<?xml version="1.0" encoding="UTF-8" standalone="no"?>
<!DOCTYPE svg PUBLIC "-//W3C//DTD SVG 1.1//EN"
 "http://www.w3.org/Graphics/SVG/1.1/DTD/svg11.dtd">
<!-- Generated by graphviz version 2.38.0 (20140413.2041)
 -->
<!-- Title: gOcraContactSetTaskManager.h Pages: 1 -->
<svg width="344pt" height="157pt"
 viewBox="0.00 0.00 344.13 157.00" xmlns="http://www.w3.org/2000/svg" xmlns:xlink="http://www.w3.org/1999/xlink">
<g id="graph0" class="graph" transform="scale(1 1) rotate(0) translate(4 153)">
<title>gOcraContactSetTaskManager.h</title>
<polygon fill="white" stroke="none" points="-4,4 -4,-153 340.13,-153 340.13,4 -4,4"/>
<!-- Node105 -->
<g id="node1" class="node"><title>Node105</title>
<polygon fill="#bfbfbf" stroke="black" points="81.3228,-130.5 81.3228,-148.5 241.849,-148.5 241.849,-130.5 81.3228,-130.5"/>
<text text-anchor="middle" x="161.586" y="-136.5" font-family="Helvetica,sans-Serif" font-size="10.00">gOcraContactSetTaskManager.h</text>
</g>
<!-- Node106 -->
<g id="node2" class="node"><title>Node106</title>
<g id="a_node2"><a xlink:href="../../d4/d79/gOcraTaskManagerCollectionBase_8h.html" target="_top" xlink:title="gOcraTaskManagerCollection\lBase.h">
<polygon fill="white" stroke="black" points="0,-65.5 0,-93.5 147.172,-93.5 147.172,-65.5 0,-65.5"/>
<text text-anchor="start" x="8" y="-81.5" font-family="Helvetica,sans-Serif" font-size="10.00">gOcraTaskManagerCollection</text>
<text text-anchor="middle" x="73.5859" y="-71.5" font-family="Helvetica,sans-Serif" font-size="10.00">Base.h</text>
</a>
</g>
</g>
<!-- Node105&#45;&gt;Node106 -->
<g id="edge1" class="edge"><title>Node105&#45;&gt;Node106</title>
<path fill="none" stroke="midnightblue" d="M140.709,-124.74C126.416,-115.32 107.574,-102.901 93.4926,-93.6203"/>
<polygon fill="midnightblue" stroke="midnightblue" points="139.074,-127.855 149.35,-130.435 142.926,-122.01 139.074,-127.855"/>
</g>
<!-- Node108 -->
<g id="node4" class="node"><title>Node108</title>
<g id="a_node4"><a xlink:href="../../d9/d71/gOcraContactSetTaskManager_8cpp.html" target="_top" xlink:title="gOcraContactSetTaskManager.cpp">
<polygon fill="white" stroke="black" points="165.042,-70.5 165.042,-88.5 336.13,-88.5 336.13,-70.5 165.042,-70.5"/>
<text text-anchor="middle" x="250.586" y="-76.5" font-family="Helvetica,sans-Serif" font-size="10.00">gOcraContactSetTaskManager.cpp</text>
</a>
</g>
</g>
<!-- Node105&#45;&gt;Node108 -->
<g id="edge3" class="edge"><title>Node105&#45;&gt;Node108</title>
<path fill="none" stroke="midnightblue" d="M182.756,-124.704C199.972,-113.484 223.683,-98.0322 238.029,-88.6831"/>
<polygon fill="midnightblue" stroke="midnightblue" points="180.428,-122.043 173.961,-130.435 184.25,-127.908 180.428,-122.043"/>
</g>
<!-- Node107 -->
<g id="node3" class="node"><title>Node107</title>
<g id="a_node3"><a xlink:href="../../de/d9f/gOcraTaskManagerCollectionBase_8cpp.html" target="_top" xlink:title="gOcraTaskManagerCollection\lBase.cpp">
<polygon fill="white" stroke="black" points="0,-0.5 0,-28.5 147.172,-28.5 147.172,-0.5 0,-0.5"/>
<text text-anchor="start" x="8" y="-16.5" font-family="Helvetica,sans-Serif" font-size="10.00">gOcraTaskManagerCollection</text>
<text text-anchor="middle" x="73.5859" y="-6.5" font-family="Helvetica,sans-Serif" font-size="10.00">Base.cpp</text>
</a>
</g>
</g>
<!-- Node106&#45;&gt;Node107 -->
<g id="edge2" class="edge"><title>Node106&#45;&gt;Node107</title>
<path fill="none" stroke="midnightblue" d="M73.5859,-55.1641C73.5859,-46.1693 73.5859,-36.2205 73.5859,-28.5369"/>
<polygon fill="midnightblue" stroke="midnightblue" points="70.086,-55.4463 73.5859,-65.4464 77.086,-55.4464 70.086,-55.4463"/>
</g>
</g>
</svg>
