<?xml version="1.0" encoding="UTF-8" standalone="no"?>
<!DOCTYPE svg PUBLIC "-//W3C//DTD SVG 1.1//EN"
 "http://www.w3.org/Graphics/SVG/1.1/DTD/svg11.dtd">
<!-- Generated by graphviz version 2.38.0 (20140413.2041)
 -->
<!-- Title: ocra::PartialState::Pimpl Pages: 1 -->
<svg width="101pt" height="102pt"
 viewBox="0.00 0.00 100.70 102.00" xmlns="http://www.w3.org/2000/svg" xmlns:xlink="http://www.w3.org/1999/xlink">
<g id="graph0" class="graph" transform="scale(1 1) rotate(0) translate(4 98)">
<title>ocra::PartialState::Pimpl</title>
<polygon fill="white" stroke="none" points="-4,4 -4,-98 96.7041,-98 96.7041,4 -4,4"/>
<!-- Node1 -->
<g id="node1" class="node"><title>Node1</title>
<polygon fill="#bfbfbf" stroke="black" points="0,-0.5 0,-28.5 92.7041,-28.5 92.7041,-0.5 0,-0.5"/>
<text text-anchor="start" x="8" y="-16.5" font-family="Helvetica,sans-Serif" font-size="10.00">ocra::PartialState</text>
<text text-anchor="middle" x="46.3521" y="-6.5" font-family="Helvetica,sans-Serif" font-size="10.00">::Pimpl</text>
</g>
<!-- Node2 -->
<g id="node2" class="node"><title>Node2</title>
<polygon fill="white" stroke="#bfbfbf" points="18.6255,-75.5 18.6255,-93.5 74.0786,-93.5 74.0786,-75.5 18.6255,-75.5"/>
<text text-anchor="middle" x="46.3521" y="-81.5" font-family="Helvetica,sans-Serif" font-size="10.00">MatrixXd</text>
</g>
<!-- Node2&#45;&gt;Node1 -->
<g id="edge1" class="edge"><title>Node2&#45;&gt;Node1</title>
<path fill="none" stroke="#9a32cd" stroke-dasharray="5,2" d="M46.3521,-65.2088C46.3521,-53.6862 46.3521,-39.0784 46.3521,-28.6867"/>
<polygon fill="#9a32cd" stroke="#9a32cd" points="42.8521,-65.4324 46.3521,-75.4325 49.8521,-65.4325 42.8521,-65.4324"/>
<text text-anchor="middle" x="50.2412" y="-49" font-family="Helvetica,sans-Serif" font-size="10.00"> J</text>
</g>
</g>
</svg>
