<?xml version="1.0" encoding="UTF-8" standalone="no"?>
<!DOCTYPE svg PUBLIC "-//W3C//DTD SVG 1.1//EN"
 "http://www.w3.org/Graphics/SVG/1.1/DTD/svg11.dtd">
<!-- Generated by graphviz version 2.38.0 (20140413.2041)
 -->
<!-- Title: ConstraintSet.h Pages: 1 -->
<svg width="1782pt" height="562pt"
 viewBox="0.00 0.00 1782.00 562.00" xmlns="http://www.w3.org/2000/svg" xmlns:xlink="http://www.w3.org/1999/xlink">
<g id="graph0" class="graph" transform="scale(1 1) rotate(0) translate(4 558)">
<title>ConstraintSet.h</title>
<polygon fill="white" stroke="none" points="-4,4 -4,-558 1778,-558 1778,4 -4,4"/>
<!-- Node0 -->
<g id="node1" class="node"><title>Node0</title>
<polygon fill="#bfbfbf" stroke="black" points="688.537,-535.5 688.537,-553.5 773.463,-553.5 773.463,-535.5 688.537,-535.5"/>
<text text-anchor="middle" x="731" y="-541.5" font-family="Helvetica,sans-Serif" font-size="10.00">ConstraintSet.h</text>
</g>
<!-- Node1 -->
<g id="node2" class="node"><title>Node1</title>
<g id="a_node2"><a xlink:href="../../d3/dcf/Constraint_8h.html" target="_top" xlink:title="Declaration file of the Constraint class. ">
<polygon fill="white" stroke="black" points="671.311,-480.5 671.311,-498.5 790.689,-498.5 790.689,-480.5 671.311,-480.5"/>
<text text-anchor="middle" x="731" y="-486.5" font-family="Helvetica,sans-Serif" font-size="10.00">ocra/optim/Constraint.h</text>
</a>
</g>
</g>
<!-- Node0&#45;&gt;Node1 -->
<g id="edge1" class="edge"><title>Node0&#45;&gt;Node1</title>
<path fill="none" stroke="midnightblue" d="M731,-535.219C731,-528.177 731,-517.808 731,-508.828"/>
<polygon fill="midnightblue" stroke="midnightblue" points="734.5,-508.55 731,-498.55 727.5,-508.55 734.5,-508.55"/>
</g>
<!-- Node6 -->
<g id="node7" class="node"><title>Node6</title>
<polygon fill="white" stroke="#bfbfbf" points="1531.44,-5.5 1531.44,-23.5 1588.56,-23.5 1588.56,-5.5 1531.44,-5.5"/>
<text text-anchor="middle" x="1560" y="-11.5" font-family="Helvetica,sans-Serif" font-size="10.00">algorithm</text>
</g>
<!-- Node0&#45;&gt;Node6 -->
<g id="edge69" class="edge"><title>Node0&#45;&gt;Node6</title>
<path fill="none" stroke="midnightblue" d="M773.504,-543.637C969.202,-543.721 1774,-537.843 1774,-435.5 1774,-435.5 1774,-435.5 1774,-138.5 1774,-102.508 1767.46,-88.268 1740,-65 1699.94,-31.0531 1638.49,-20.2483 1598.77,-16.8902"/>
<polygon fill="midnightblue" stroke="midnightblue" points="1598.9,-13.3906 1588.67,-16.1572 1598.39,-20.3722 1598.9,-13.3906"/>
</g>
<!-- Node19 -->
<g id="node20" class="node"><title>Node19</title>
<polygon fill="white" stroke="#bfbfbf" points="204.384,-70.5 204.384,-88.5 247.616,-88.5 247.616,-70.5 204.384,-70.5"/>
<text text-anchor="middle" x="226" y="-76.5" font-family="Helvetica,sans-Serif" font-size="10.00">vector</text>
</g>
<!-- Node0&#45;&gt;Node19 -->
<g id="edge68" class="edge"><title>Node0&#45;&gt;Node19</title>
<path fill="none" stroke="midnightblue" d="M688.271,-541.726C531.916,-534.674 0,-505.537 0,-435.5 0,-435.5 0,-435.5 0,-198.5 0,-111.888 132.044,-88.7402 194.271,-82.6406"/>
<polygon fill="midnightblue" stroke="midnightblue" points="194.68,-86.118 204.33,-81.7441 194.059,-79.1457 194.68,-86.118"/>
</g>
<!-- Node2 -->
<g id="node3" class="node"><title>Node2</title>
<g id="a_node3"><a xlink:href="../../d7/d90/Variable_8h.html" target="_top" xlink:title="Declaration file of the Variable class. ">
<polygon fill="white" stroke="black" points="750.123,-190.5 750.123,-208.5 859.877,-208.5 859.877,-190.5 750.123,-190.5"/>
<text text-anchor="middle" x="805" y="-196.5" font-family="Helvetica,sans-Serif" font-size="10.00">ocra/optim/Variable.h</text>
</a>
</g>
</g>
<!-- Node1&#45;&gt;Node2 -->
<g id="edge2" class="edge"><title>Node1&#45;&gt;Node2</title>
<path fill="none" stroke="midnightblue" d="M671.071,-488.374C614.507,-485.418 540.976,-472.645 560,-425 602.481,-318.605 726.474,-242.188 779.961,-213.26"/>
<polygon fill="midnightblue" stroke="midnightblue" points="781.61,-216.347 788.8,-208.566 778.327,-210.165 781.61,-216.347"/>
</g>
<!-- Node9 -->
<g id="node10" class="node"><title>Node9</title>
<polygon fill="white" stroke="#bfbfbf" points="1240.31,-0.5 1240.31,-28.5 1339.69,-28.5 1339.69,-0.5 1240.31,-0.5"/>
<text text-anchor="start" x="1248.31" y="-16.5" font-family="Helvetica,sans-Serif" font-size="10.00">boost/type_traits/is</text>
<text text-anchor="middle" x="1290" y="-6.5" font-family="Helvetica,sans-Serif" font-size="10.00">_base_of.hpp</text>
</g>
<!-- Node1&#45;&gt;Node9 -->
<g id="edge58" class="edge"><title>Node1&#45;&gt;Node9</title>
<path fill="none" stroke="midnightblue" d="M790.858,-488.095C1007.22,-485.851 1736,-471.19 1736,-375.5 1736,-375.5 1736,-375.5 1736,-138.5 1736,-104.76 1742.44,-87.1621 1717,-65 1689.85,-41.3514 1461,-25.2285 1349.96,-18.7233"/>
<polygon fill="midnightblue" stroke="midnightblue" points="1350.1,-15.2256 1339.92,-18.1422 1349.7,-22.214 1350.1,-15.2256"/>
</g>
<!-- Node10 -->
<g id="node11" class="node"><title>Node10</title>
<polygon fill="white" stroke="#bfbfbf" points="864.582,-5.5 864.582,-23.5 983.418,-23.5 983.418,-5.5 864.582,-5.5"/>
<text text-anchor="middle" x="924" y="-11.5" font-family="Helvetica,sans-Serif" font-size="10.00">boost/static_assert.hpp</text>
</g>
<!-- Node1&#45;&gt;Node10 -->
<g id="edge57" class="edge"><title>Node1&#45;&gt;Node10</title>
<path fill="none" stroke="midnightblue" d="M790.836,-481.641C837.271,-474.941 896.167,-462.947 911,-444 917.391,-435.836 986.289,-511.9 893,-130 888.845,-112.991 880.635,-111.128 877,-94 874.324,-81.3919 872.222,-76.9707 877,-65 882.546,-51.1047 894.053,-38.8757 904.292,-30.0491"/>
<polygon fill="midnightblue" stroke="midnightblue" points="906.524,-32.7454 912.094,-23.7329 902.119,-27.3048 906.524,-32.7454"/>
</g>
<!-- Node24 -->
<g id="node25" class="node"><title>Node24</title>
<g id="a_node25"><a xlink:href="../../df/df5/Function_8h.html" target="_top" xlink:title="Declaration file of the Function class. ">
<polygon fill="white" stroke="black" points="429.921,-250.5 429.921,-268.5 542.079,-268.5 542.079,-250.5 429.921,-250.5"/>
<text text-anchor="middle" x="486" y="-256.5" font-family="Helvetica,sans-Serif" font-size="10.00">ocra/optim/Function.h</text>
</a>
</g>
</g>
<!-- Node1&#45;&gt;Node24 -->
<g id="edge33" class="edge"><title>Node1&#45;&gt;Node24</title>
<path fill="none" stroke="midnightblue" d="M671.149,-484.319C619.589,-479.204 543.918,-468.037 482,-444 439.355,-427.445 417.073,-429.068 395,-389 370.541,-344.601 429.259,-297.103 463.491,-274.289"/>
<polygon fill="midnightblue" stroke="midnightblue" points="465.507,-277.153 472.005,-268.784 461.707,-271.275 465.507,-277.153"/>
</g>
<!-- Node34 -->
<g id="node35" class="node"><title>Node34</title>
<g id="a_node35"><a xlink:href="../../df/d55/FunctionInterfaceMapping_8h.html" target="_top" xlink:title="Declaration file of the FunctionInterfaceMapping struct. ">
<polygon fill="white" stroke="black" points="403.636,-360.5 403.636,-388.5 546.364,-388.5 546.364,-360.5 403.636,-360.5"/>
<text text-anchor="start" x="411.636" y="-376.5" font-family="Helvetica,sans-Serif" font-size="10.00">ocra/optim/FunctionInterface</text>
<text text-anchor="middle" x="475" y="-366.5" font-family="Helvetica,sans-Serif" font-size="10.00">Mapping.h</text>
</a>
</g>
</g>
<!-- Node1&#45;&gt;Node34 -->
<g id="edge53" class="edge"><title>Node1&#45;&gt;Node34</title>
<path fill="none" stroke="midnightblue" d="M671.138,-483.764C611.179,-477.864 524.273,-465.796 499,-444 485.946,-432.742 479.99,-413.956 477.274,-398.902"/>
<polygon fill="midnightblue" stroke="midnightblue" points="480.703,-398.16 475.813,-388.761 473.775,-399.158 480.703,-398.16"/>
</g>
<!-- Node35 -->
<g id="node36" class="node"><title>Node35</title>
<g id="a_node36"><a xlink:href="../../df/d0a/Macros_8h.html" target="_top" xlink:title="ocra/util/Macros.h">
<polygon fill="white" stroke="black" points="939.542,-250.5 939.542,-268.5 1034.46,-268.5 1034.46,-250.5 939.542,-250.5"/>
<text text-anchor="middle" x="987" y="-256.5" font-family="Helvetica,sans-Serif" font-size="10.00">ocra/util/Macros.h</text>
</a>
</g>
</g>
<!-- Node1&#45;&gt;Node35 -->
<g id="edge55" class="edge"><title>Node1&#45;&gt;Node35</title>
<path fill="none" stroke="midnightblue" d="M790.695,-484.85C851.481,-479.82 939.973,-468.439 963,-444 1005.94,-398.423 997.409,-315.879 990.889,-279.077"/>
<polygon fill="midnightblue" stroke="midnightblue" points="994.245,-277.995 988.911,-268.841 987.372,-279.323 994.245,-277.995"/>
</g>
<!-- Node37 -->
<g id="node38" class="node"><title>Node37</title>
<g id="a_node38"><a xlink:href="../../dc/d8a/LinearFunction_8h.html" target="_top" xlink:title="Declaration file of the LinearFunction class. ">
<polygon fill="white" stroke="black" points="683.022,-305.5 683.022,-323.5 822.978,-323.5 822.978,-305.5 683.022,-305.5"/>
<text text-anchor="middle" x="753" y="-311.5" font-family="Helvetica,sans-Serif" font-size="10.00">ocra/optim/LinearFunction.h</text>
</a>
</g>
</g>
<!-- Node1&#45;&gt;Node37 -->
<g id="edge59" class="edge"><title>Node1&#45;&gt;Node37</title>
<path fill="none" stroke="midnightblue" d="M786.267,-480.466C827.573,-473.199 879.047,-461.019 892,-444 929.491,-394.741 836.56,-348.403 784.835,-327.355"/>
<polygon fill="midnightblue" stroke="midnightblue" points="785.979,-324.044 775.394,-323.607 783.396,-330.55 785.979,-324.044"/>
</g>
<!-- Node38 -->
<g id="node39" class="node"><title>Node38</title>
<g id="a_node39"><a xlink:href="../../de/d69/BoundFunction_8h.html" target="_top" xlink:title="Declaration file of the BoundFunction class. ">
<polygon fill="white" stroke="black" points="741.463,-425.5 741.463,-443.5 882.537,-443.5 882.537,-425.5 741.463,-425.5"/>
<text text-anchor="middle" x="812" y="-431.5" font-family="Helvetica,sans-Serif" font-size="10.00">ocra/optim/BoundFunction.h</text>
</a>
</g>
</g>
<!-- Node1&#45;&gt;Node38 -->
<g id="edge62" class="edge"><title>Node1&#45;&gt;Node38</title>
<path fill="none" stroke="midnightblue" d="M743.302,-480.45C755.91,-472.201 775.755,-459.216 790.881,-449.319"/>
<polygon fill="midnightblue" stroke="midnightblue" points="793.131,-452.029 799.582,-443.625 789.298,-446.172 793.131,-452.029"/>
</g>
<!-- Node39 -->
<g id="node40" class="node"><title>Node39</title>
<g id="a_node40"><a xlink:href="../../dc/d6f/DiagonalLinearFunction_8h.html" target="_top" xlink:title="Declaration file of the DiagonalLinearFunction class. ">
<polygon fill="white" stroke="black" points="643.633,-360.5 643.633,-388.5 776.367,-388.5 776.367,-360.5 643.633,-360.5"/>
<text text-anchor="start" x="651.633" y="-376.5" font-family="Helvetica,sans-Serif" font-size="10.00">ocra/optim/DiagonalLinear</text>
<text text-anchor="middle" x="710" y="-366.5" font-family="Helvetica,sans-Serif" font-size="10.00">Function.h</text>
</a>
</g>
</g>
<!-- Node1&#45;&gt;Node39 -->
<g id="edge67" class="edge"><title>Node1&#45;&gt;Node39</title>
<path fill="none" stroke="midnightblue" d="M675.733,-480.466C634.427,-473.199 582.953,-461.019 570,-444 547.451,-414.373 589.585,-396.806 633.384,-386.893"/>
<polygon fill="midnightblue" stroke="midnightblue" points="634.273,-390.282 643.323,-384.773 632.812,-383.436 634.273,-390.282"/>
</g>
<!-- Node40 -->
<g id="node41" class="node"><title>Node40</title>
<g id="a_node41"><a xlink:href="../../de/d7a/IdentityFunction_8h.html" target="_top" xlink:title="Declaration file of the IdentityFunction class. ">
<polygon fill="white" stroke="black" points="578.801,-425.5 578.801,-443.5 723.199,-443.5 723.199,-425.5 578.801,-425.5"/>
<text text-anchor="middle" x="651" y="-431.5" font-family="Helvetica,sans-Serif" font-size="10.00">ocra/optim/IdentityFunction.h</text>
</a>
</g>
</g>
<!-- Node1&#45;&gt;Node40 -->
<g id="edge65" class="edge"><title>Node1&#45;&gt;Node40</title>
<path fill="none" stroke="midnightblue" d="M718.85,-480.45C706.398,-472.201 686.797,-459.216 671.858,-449.319"/>
<polygon fill="midnightblue" stroke="midnightblue" points="673.534,-446.231 663.265,-443.625 669.668,-452.066 673.534,-446.231"/>
</g>
<!-- Node3 -->
<g id="node4" class="node"><title>Node3</title>
<g id="a_node4"><a xlink:href="../../d8/ddc/ObserverSubject_8h.html" target="_top" xlink:title="Declaration file of the Observer, Subject and ObserverSubject classes. ">
<polygon fill="white" stroke="black" points="647.86,-130.5 647.86,-148.5 796.14,-148.5 796.14,-130.5 647.86,-130.5"/>
<text text-anchor="middle" x="722" y="-136.5" font-family="Helvetica,sans-Serif" font-size="10.00">ocra/optim/ObserverSubject.h</text>
</a>
</g>
</g>
<!-- Node2&#45;&gt;Node3 -->
<g id="edge3" class="edge"><title>Node2&#45;&gt;Node3</title>
<path fill="none" stroke="midnightblue" d="M793.459,-190.435C780.155,-181.138 758.054,-165.694 741.948,-154.439"/>
<polygon fill="midnightblue" stroke="midnightblue" points="743.912,-151.542 733.71,-148.683 739.903,-157.28 743.912,-151.542"/>
</g>
<!-- Node14 -->
<g id="node15" class="node"><title>Node14</title>
<g id="a_node15"><a xlink:href="../../d1/de6/Composite_8h.html" target="_top" xlink:title="Utility classes and functions to implement the Composite design pattern. ">
<polygon fill="white" stroke="black" points="1211.2,-130.5 1211.2,-148.5 1332.8,-148.5 1332.8,-130.5 1211.2,-130.5"/>
<text text-anchor="middle" x="1272" y="-136.5" font-family="Helvetica,sans-Serif" font-size="10.00">ocra/optim/Composite.h</text>
</a>
</g>
</g>
<!-- Node2&#45;&gt;Node14 -->
<g id="edge17" class="edge"><title>Node2&#45;&gt;Node14</title>
<path fill="none" stroke="midnightblue" d="M859.944,-191.676C944.739,-181.145 1107.46,-160.936 1201.04,-149.313"/>
<polygon fill="midnightblue" stroke="midnightblue" points="1201.5,-152.783 1210.99,-148.077 1200.64,-145.836 1201.5,-152.783"/>
</g>
<!-- Node17 -->
<g id="node18" class="node"><title>Node17</title>
<polygon fill="white" stroke="#bfbfbf" points="1588.29,-70.5 1588.29,-88.5 1707.71,-88.5 1707.71,-70.5 1588.29,-70.5"/>
<text text-anchor="middle" x="1648" y="-76.5" font-family="Helvetica,sans-Serif" font-size="10.00">boost/noncopyable.hpp</text>
</g>
<!-- Node2&#45;&gt;Node17 -->
<g id="edge30" class="edge"><title>Node2&#45;&gt;Node17</title>
<path fill="none" stroke="midnightblue" d="M860.269,-193.417C997.058,-180.835 1340.52,-149.233 1342,-149 1438.39,-133.833 1549.81,-106.325 1607.96,-91.192"/>
<polygon fill="midnightblue" stroke="midnightblue" points="1609.06,-94.5232 1617.84,-88.6054 1607.28,-87.7513 1609.06,-94.5232"/>
</g>
<!-- Node2&#45;&gt;Node19 -->
<g id="edge32" class="edge"><title>Node2&#45;&gt;Node19</title>
<path fill="none" stroke="midnightblue" d="M749.731,-192.781C636.827,-181.018 388.798,-154.732 371,-149 354.523,-143.693 352.476,-137.755 337,-130 329.085,-126.034 283.838,-105.992 253.611,-92.6577"/>
<polygon fill="midnightblue" stroke="midnightblue" points="254.954,-89.4246 244.392,-88.5931 252.13,-95.8298 254.954,-89.4246"/>
</g>
<!-- Node22 -->
<g id="node23" class="node"><title>Node22</title>
<polygon fill="white" stroke="#bfbfbf" points="814.035,-130.5 814.035,-148.5 883.965,-148.5 883.965,-130.5 814.035,-130.5"/>
<text text-anchor="middle" x="849" y="-136.5" font-family="Helvetica,sans-Serif" font-size="10.00">Eigen/Eigen</text>
</g>
<!-- Node2&#45;&gt;Node22 -->
<g id="edge29" class="edge"><title>Node2&#45;&gt;Node22</title>
<path fill="none" stroke="midnightblue" d="M811.118,-190.435C817.677,-181.79 828.267,-167.829 836.586,-156.864"/>
<polygon fill="midnightblue" stroke="midnightblue" points="839.394,-158.954 842.649,-148.872 833.817,-154.723 839.394,-158.954"/>
</g>
<!-- Node23 -->
<g id="node24" class="node"><title>Node23</title>
<polygon fill="white" stroke="#bfbfbf" points="245.773,-130.5 245.773,-148.5 286.227,-148.5 286.227,-130.5 245.773,-130.5"/>
<text text-anchor="middle" x="266" y="-136.5" font-family="Helvetica,sans-Serif" font-size="10.00">string</text>
</g>
<!-- Node2&#45;&gt;Node23 -->
<g id="edge31" class="edge"><title>Node2&#45;&gt;Node23</title>
<path fill="none" stroke="midnightblue" d="M749.98,-192.882C662.634,-183.916 486.881,-165.678 338,-149 324.416,-147.478 309.401,-145.718 296.613,-144.196"/>
<polygon fill="midnightblue" stroke="midnightblue" points="296.821,-140.696 286.476,-142.983 295.989,-147.646 296.821,-140.696"/>
</g>
<!-- Node4 -->
<g id="node5" class="node"><title>Node4</title>
<g id="a_node5"><a xlink:href="../../df/d67/ObserverSubjectBase_8h.html" target="_top" xlink:title="Declaration file of the Observer and Subject base classes. ">
<polygon fill="white" stroke="black" points="652.03,-65.5 652.03,-93.5 791.97,-93.5 791.97,-65.5 652.03,-65.5"/>
<text text-anchor="start" x="660.03" y="-81.5" font-family="Helvetica,sans-Serif" font-size="10.00">ocra/optim/ObserverSubject</text>
<text text-anchor="middle" x="722" y="-71.5" font-family="Helvetica,sans-Serif" font-size="10.00">Base.h</text>
</a>
</g>
</g>
<!-- Node3&#45;&gt;Node4 -->
<g id="edge4" class="edge"><title>Node3&#45;&gt;Node4</title>
<path fill="none" stroke="midnightblue" d="M722,-130.435C722,-123.56 722,-113.324 722,-103.906"/>
<polygon fill="midnightblue" stroke="midnightblue" points="725.5,-103.843 722,-93.8428 718.5,-103.843 725.5,-103.843"/>
</g>
<!-- Node8 -->
<g id="node9" class="node"><title>Node8</title>
<polygon fill="white" stroke="#bfbfbf" points="456.313,-0.5 456.313,-28.5 555.687,-28.5 555.687,-0.5 456.313,-0.5"/>
<text text-anchor="start" x="464.313" y="-16.5" font-family="Helvetica,sans-Serif" font-size="10.00">boost/type_traits/is</text>
<text text-anchor="middle" x="506" y="-6.5" font-family="Helvetica,sans-Serif" font-size="10.00">_class.hpp</text>
</g>
<!-- Node3&#45;&gt;Node8 -->
<g id="edge16" class="edge"><title>Node3&#45;&gt;Node8</title>
<path fill="none" stroke="midnightblue" d="M706.181,-130.423C689.955,-121.947 664.165,-107.94 643,-94 625.258,-82.314 623.025,-76.2448 605,-65 585.892,-53.0798 563.53,-41.6993 544.899,-32.8627"/>
<polygon fill="midnightblue" stroke="midnightblue" points="546.35,-29.6774 535.809,-28.6113 543.384,-36.0182 546.35,-29.6774"/>
</g>
<!-- Node3&#45;&gt;Node9 -->
<g id="edge14" class="edge"><title>Node3&#45;&gt;Node9</title>
<path fill="none" stroke="midnightblue" d="M796.16,-130.714C901.485,-119.509 1083.25,-99.5706 1097,-94 1116.69,-86.0213 1116.16,-74.8199 1135,-65 1164.93,-49.3979 1200.69,-37.5763 1230.32,-29.4052"/>
<polygon fill="midnightblue" stroke="midnightblue" points="1231.36,-32.7486 1240.11,-26.7738 1229.55,-25.9883 1231.36,-32.7486"/>
</g>
<!-- Node3&#45;&gt;Node10 -->
<g id="edge13" class="edge"><title>Node3&#45;&gt;Node10</title>
<path fill="none" stroke="midnightblue" d="M737.059,-130.486C753.11,-121.835 779.168,-107.481 801,-94 820.613,-81.8892 824.64,-77.5113 844,-65 863.379,-52.4765 885.733,-38.7006 901.876,-28.8684"/>
<polygon fill="midnightblue" stroke="midnightblue" points="903.863,-31.7565 910.594,-23.5743 900.23,-25.7733 903.863,-31.7565"/>
</g>
<!-- Node12 -->
<g id="node13" class="node"><title>Node12</title>
<g id="a_node13"><a xlink:href="../../db/ddf/ocra__events_8h.html" target="_top" xlink:title="ocra/optim/ocra_events.h">
<polygon fill="white" stroke="black" points="467.86,-70.5 467.86,-88.5 596.14,-88.5 596.14,-70.5 467.86,-70.5"/>
<text text-anchor="middle" x="532" y="-76.5" font-family="Helvetica,sans-Serif" font-size="10.00">ocra/optim/ocra_events.h</text>
</a>
</g>
</g>
<!-- Node3&#45;&gt;Node12 -->
<g id="edge12" class="edge"><title>Node3&#45;&gt;Node12</title>
<path fill="none" stroke="midnightblue" d="M695.581,-130.435C662.494,-120.335 605.641,-102.98 568.436,-91.6227"/>
<polygon fill="midnightblue" stroke="midnightblue" points="569.086,-88.1616 558.5,-88.5894 567.042,-94.8566 569.086,-88.1616"/>
</g>
<!-- Node13 -->
<g id="node14" class="node"><title>Node13</title>
<polygon fill="white" stroke="#bfbfbf" points="1144.31,-65.5 1144.31,-93.5 1243.69,-93.5 1243.69,-65.5 1144.31,-65.5"/>
<text text-anchor="start" x="1152.31" y="-81.5" font-family="Helvetica,sans-Serif" font-size="10.00">boost/type_traits/is</text>
<text text-anchor="middle" x="1194" y="-71.5" font-family="Helvetica,sans-Serif" font-size="10.00">_convertible.hpp</text>
</g>
<!-- Node3&#45;&gt;Node13 -->
<g id="edge15" class="edge"><title>Node3&#45;&gt;Node13</title>
<path fill="none" stroke="midnightblue" d="M796.54,-130.776C905.275,-119.446 1097.98,-99.1096 1130,-94 1131.29,-93.7936 1132.6,-93.5785 1133.92,-93.3557"/>
<polygon fill="midnightblue" stroke="midnightblue" points="1134.9,-96.734 1144.13,-91.5194 1133.67,-89.8445 1134.9,-96.734"/>
</g>
<!-- Node5 -->
<g id="node6" class="node"><title>Node5</title>
<polygon fill="white" stroke="#bfbfbf" points="692.596,-5.5 692.596,-23.5 751.404,-23.5 751.404,-5.5 692.596,-5.5"/>
<text text-anchor="middle" x="722" y="-11.5" font-family="Helvetica,sans-Serif" font-size="10.00">functional</text>
</g>
<!-- Node4&#45;&gt;Node5 -->
<g id="edge5" class="edge"><title>Node4&#45;&gt;Node5</title>
<path fill="none" stroke="midnightblue" d="M722,-65.4464C722,-56.3336 722,-44.0406 722,-33.9308"/>
<polygon fill="midnightblue" stroke="midnightblue" points="725.5,-33.7301 722,-23.7301 718.5,-33.7301 725.5,-33.7301"/>
</g>
<!-- Node4&#45;&gt;Node6 -->
<g id="edge6" class="edge"><title>Node4&#45;&gt;Node6</title>
<path fill="none" stroke="midnightblue" d="M792.197,-72.1686C818.758,-69.8302 849.266,-67.2126 877,-65 1122.19,-45.4382 1417.17,-25.1641 1521.31,-18.1059"/>
<polygon fill="midnightblue" stroke="midnightblue" points="1521.62,-21.5935 1531.36,-17.4261 1521.15,-14.6094 1521.62,-21.5935"/>
</g>
<!-- Node7 -->
<g id="node8" class="node"><title>Node7</title>
<polygon fill="white" stroke="#bfbfbf" points="768.955,-5.5 768.955,-23.5 847.045,-23.5 847.045,-5.5 768.955,-5.5"/>
<text text-anchor="middle" x="808" y="-11.5" font-family="Helvetica,sans-Serif" font-size="10.00">boost/any.hpp</text>
</g>
<!-- Node4&#45;&gt;Node7 -->
<g id="edge7" class="edge"><title>Node4&#45;&gt;Node7</title>
<path fill="none" stroke="midnightblue" d="M739.819,-65.4464C754.079,-55 774.044,-40.3747 788.685,-29.6496"/>
<polygon fill="midnightblue" stroke="midnightblue" points="791.015,-32.2811 797.014,-23.548 786.878,-26.6341 791.015,-32.2811"/>
</g>
<!-- Node4&#45;&gt;Node8 -->
<g id="edge8" class="edge"><title>Node4&#45;&gt;Node8</title>
<path fill="none" stroke="midnightblue" d="M677.245,-65.4464C643.36,-55.5632 596.65,-41.9394 560.572,-31.4169"/>
<polygon fill="midnightblue" stroke="midnightblue" points="561.278,-27.977 550.698,-28.5369 559.318,-34.697 561.278,-27.977"/>
</g>
<!-- Node4&#45;&gt;Node9 -->
<g id="edge9" class="edge"><title>Node4&#45;&gt;Node9</title>
<path fill="none" stroke="midnightblue" d="M792.218,-70.7118C904.819,-58.2225 1123.84,-33.9294 1229.76,-22.1813"/>
<polygon fill="midnightblue" stroke="midnightblue" points="1230.41,-25.6314 1239.96,-21.0503 1229.63,-18.6741 1230.41,-25.6314"/>
</g>
<!-- Node4&#45;&gt;Node10 -->
<g id="edge10" class="edge"><title>Node4&#45;&gt;Node10</title>
<path fill="none" stroke="midnightblue" d="M763.855,-65.4464C800.667,-53.9653 853.665,-37.4363 888.457,-26.5851"/>
<polygon fill="midnightblue" stroke="midnightblue" points="889.691,-29.8667 898.195,-23.548 887.607,-23.1842 889.691,-29.8667"/>
</g>
<!-- Node11 -->
<g id="node12" class="node"><title>Node11</title>
<polygon fill="white" stroke="#bfbfbf" points="573.195,-0.5 573.195,-28.5 674.805,-28.5 674.805,-0.5 573.195,-0.5"/>
<text text-anchor="start" x="581.195" y="-16.5" font-family="Helvetica,sans-Serif" font-size="10.00">boost/ptr_container</text>
<text text-anchor="middle" x="624" y="-6.5" font-family="Helvetica,sans-Serif" font-size="10.00">/ptr_vector.hpp</text>
</g>
<!-- Node4&#45;&gt;Node11 -->
<g id="edge11" class="edge"><title>Node4&#45;&gt;Node11</title>
<path fill="none" stroke="midnightblue" d="M701.694,-65.4464C687.635,-56.4079 668.708,-44.241 653.056,-34.1787"/>
<polygon fill="midnightblue" stroke="midnightblue" points="654.584,-31.0004 644.28,-28.5369 650.799,-36.8887 654.584,-31.0004"/>
</g>
<!-- Node14&#45;&gt;Node6 -->
<g id="edge26" class="edge"><title>Node14&#45;&gt;Node6</title>
<path fill="none" stroke="midnightblue" d="M1333.03,-133.978C1397.24,-128.131 1492.96,-115.988 1522,-94 1541.39,-79.3161 1551.41,-52.1463 1556.18,-33.9449"/>
<polygon fill="midnightblue" stroke="midnightblue" points="1559.65,-34.4967 1558.51,-23.9628 1552.83,-32.9053 1559.65,-34.4967"/>
</g>
<!-- Node14&#45;&gt;Node9 -->
<g id="edge22" class="edge"><title>Node14&#45;&gt;Node9</title>
<path fill="none" stroke="midnightblue" d="M1332.92,-135.31C1393.95,-130.689 1481.81,-119.666 1503,-94 1547.61,-39.9777 1427.55,-23.1295 1350.01,-17.8772"/>
<polygon fill="midnightblue" stroke="midnightblue" points="1350.05,-14.3723 1339.85,-17.2375 1349.61,-21.3585 1350.05,-14.3723"/>
</g>
<!-- Node14&#45;&gt;Node10 -->
<g id="edge21" class="edge"><title>Node14&#45;&gt;Node10</title>
<path fill="none" stroke="midnightblue" d="M1272.57,-130.174C1273.13,-114.765 1271.89,-81.8421 1253,-65 1209.79,-26.4719 1052.12,-38.4095 995,-29 988.346,-27.9038 981.356,-26.6728 974.464,-25.4119"/>
<polygon fill="midnightblue" stroke="midnightblue" points="974.96,-21.9442 964.489,-23.5554 973.68,-28.826 974.96,-21.9442"/>
</g>
<!-- Node14&#45;&gt;Node13 -->
<g id="edge23" class="edge"><title>Node14&#45;&gt;Node13</title>
<path fill="none" stroke="midnightblue" d="M1261.15,-130.435C1250.55,-122.548 1233.99,-110.236 1219.97,-99.8109"/>
<polygon fill="midnightblue" stroke="midnightblue" points="1221.76,-96.7788 1211.64,-93.6203 1217.58,-102.396 1221.76,-96.7788"/>
</g>
<!-- Node15 -->
<g id="node16" class="node"><title>Node15</title>
<g id="a_node16"><a xlink:href="../../de/df3/ocra__assert_8h.html" target="_top" xlink:title="ocra/optim/ocra_assert.h">
<polygon fill="white" stroke="black" points="961.976,-70.5 961.976,-88.5 1088.02,-88.5 1088.02,-70.5 961.976,-70.5"/>
<text text-anchor="middle" x="1025" y="-76.5" font-family="Helvetica,sans-Serif" font-size="10.00">ocra/optim/ocra_assert.h</text>
</a>
</g>
</g>
<!-- Node14&#45;&gt;Node15 -->
<g id="edge18" class="edge"><title>Node14&#45;&gt;Node15</title>
<path fill="none" stroke="midnightblue" d="M1237.92,-130.496C1193.93,-120.168 1117.33,-102.181 1069,-90.8308"/>
<polygon fill="midnightblue" stroke="midnightblue" points="1069.67,-87.3934 1059.13,-88.5147 1068.07,-94.2081 1069.67,-87.3934"/>
</g>
<!-- Node14&#45;&gt;Node17 -->
<g id="edge20" class="edge"><title>Node14&#45;&gt;Node17</title>
<path fill="none" stroke="midnightblue" d="M1330.55,-130.476C1391.46,-121.988 1489.55,-107.921 1574,-94 1580.84,-92.8726 1588.02,-91.6323 1595.12,-90.3745"/>
<polygon fill="midnightblue" stroke="midnightblue" points="1596.17,-93.742 1605.39,-88.5302 1594.93,-86.8522 1596.17,-93.742"/>
</g>
<!-- Node18 -->
<g id="node19" class="node"><title>Node18</title>
<polygon fill="white" stroke="#bfbfbf" points="1300.46,-65.5 1300.46,-93.5 1431.54,-93.5 1431.54,-65.5 1300.46,-65.5"/>
<text text-anchor="start" x="1308.46" y="-81.5" font-family="Helvetica,sans-Serif" font-size="10.00">boost/type_traits/has</text>
<text text-anchor="middle" x="1366" y="-71.5" font-family="Helvetica,sans-Serif" font-size="10.00">_nothrow_constructor.hpp</text>
</g>
<!-- Node14&#45;&gt;Node18 -->
<g id="edge24" class="edge"><title>Node14&#45;&gt;Node18</title>
<path fill="none" stroke="midnightblue" d="M1285.07,-130.435C1298.22,-122.324 1318.94,-109.535 1336.13,-98.9304"/>
<polygon fill="midnightblue" stroke="midnightblue" points="1338.06,-101.85 1344.74,-93.6203 1334.39,-95.8928 1338.06,-101.85"/>
</g>
<!-- Node14&#45;&gt;Node19 -->
<g id="edge25" class="edge"><title>Node14&#45;&gt;Node19</title>
<path fill="none" stroke="midnightblue" d="M1211.14,-137.127C1006.31,-132.328 349.637,-115.423 257,-94 255.027,-93.5437 253.023,-92.9652 251.031,-92.3057"/>
<polygon fill="midnightblue" stroke="midnightblue" points="251.976,-88.9168 241.388,-88.5244 249.421,-95.4336 251.976,-88.9168"/>
</g>
<!-- Node20 -->
<g id="node21" class="node"><title>Node20</title>
<polygon fill="white" stroke="#bfbfbf" points="1449.83,-70.5 1449.83,-88.5 1494.17,-88.5 1494.17,-70.5 1449.83,-70.5"/>
<text text-anchor="middle" x="1472" y="-76.5" font-family="Helvetica,sans-Serif" font-size="10.00">iosfwd</text>
</g>
<!-- Node14&#45;&gt;Node20 -->
<g id="edge27" class="edge"><title>Node14&#45;&gt;Node20</title>
<path fill="none" stroke="midnightblue" d="M1309.08,-130.463C1343.65,-122.566 1396.43,-109.471 1441,-94 1442.42,-93.5067 1443.87,-92.977 1445.32,-92.4229"/>
<polygon fill="midnightblue" stroke="midnightblue" points="1446.88,-95.5692 1454.81,-88.5445 1444.23,-89.09 1446.88,-95.5692"/>
</g>
<!-- Node21 -->
<g id="node22" class="node"><title>Node21</title>
<polygon fill="white" stroke="#bfbfbf" points="885.599,-70.5 885.599,-88.5 944.401,-88.5 944.401,-70.5 885.599,-70.5"/>
<text text-anchor="middle" x="915" y="-76.5" font-family="Helvetica,sans-Serif" font-size="10.00">stdexcept</text>
</g>
<!-- Node14&#45;&gt;Node21 -->
<g id="edge28" class="edge"><title>Node14&#45;&gt;Node21</title>
<path fill="none" stroke="midnightblue" d="M1211.04,-133.698C1146.33,-127.744 1041.4,-115.631 953,-94 950.35,-93.3515 947.626,-92.5877 944.912,-91.7586"/>
<polygon fill="midnightblue" stroke="midnightblue" points="945.872,-88.3894 935.279,-88.5598 943.666,-95.0328 945.872,-88.3894"/>
</g>
<!-- Node16 -->
<g id="node17" class="node"><title>Node16</title>
<polygon fill="white" stroke="#bfbfbf" points="1003.94,-5.5 1003.94,-23.5 1046.06,-23.5 1046.06,-5.5 1003.94,-5.5"/>
<text text-anchor="middle" x="1025" y="-11.5" font-family="Helvetica,sans-Serif" font-size="10.00">cstdio</text>
</g>
<!-- Node15&#45;&gt;Node16 -->
<g id="edge19" class="edge"><title>Node15&#45;&gt;Node16</title>
<path fill="none" stroke="midnightblue" d="M1025,-70.2639C1025,-61.0635 1025,-45.881 1025,-33.8326"/>
<polygon fill="midnightblue" stroke="midnightblue" points="1028.5,-33.5389 1025,-23.539 1021.5,-33.539 1028.5,-33.5389"/>
</g>
<!-- Node24&#45;&gt;Node2 -->
<g id="edge49" class="edge"><title>Node24&#45;&gt;Node2</title>
<path fill="none" stroke="midnightblue" d="M532.58,-250.453C582.822,-241.717 665.147,-227.236 736,-214 741.919,-212.894 748.118,-211.713 754.271,-210.528"/>
<polygon fill="midnightblue" stroke="midnightblue" points="755.372,-213.879 764.523,-208.539 754.04,-207.007 755.372,-213.879"/>
</g>
<!-- Node24&#45;&gt;Node3 -->
<g id="edge50" class="edge"><title>Node24&#45;&gt;Node3</title>
<path fill="none" stroke="midnightblue" d="M542.267,-251.109C592.431,-243.581 661.201,-230.66 683,-214 701.077,-200.185 711.673,-175.548 717.15,-158.635"/>
<polygon fill="midnightblue" stroke="midnightblue" points="720.571,-159.408 720.038,-148.827 713.856,-157.431 720.571,-159.408"/>
</g>
<!-- Node25 -->
<g id="node26" class="node"><title>Node25</title>
<g id="a_node26"><a xlink:href="../../de/d94/IFunction_8h.html" target="_top" xlink:title="Declaration file of the IFunction interface. ">
<polygon fill="white" stroke="black" points="379.532,-130.5 379.532,-148.5 494.468,-148.5 494.468,-130.5 379.532,-130.5"/>
<text text-anchor="middle" x="437" y="-136.5" font-family="Helvetica,sans-Serif" font-size="10.00">ocra/optim/IFunction.h</text>
</a>
</g>
</g>
<!-- Node24&#45;&gt;Node25 -->
<g id="edge34" class="edge"><title>Node24&#45;&gt;Node25</title>
<path fill="none" stroke="midnightblue" d="M542.285,-252.058C588.921,-245.425 649.912,-233.299 665,-214 672.939,-203.846 673.195,-194.949 665,-185 644.973,-160.686 564.491,-149.475 504.791,-144.43"/>
<polygon fill="midnightblue" stroke="midnightblue" points="504.903,-140.928 494.654,-143.615 504.341,-147.905 504.903,-140.928"/>
</g>
<!-- Node30 -->
<g id="node31" class="node"><title>Node30</title>
<g id="a_node31"><a xlink:href="../../d9/d54/IFunctionProperties_8h.html" target="_top" xlink:title="ocra/optim/IFunctionProperties.h">
<polygon fill="white" stroke="black" points="27.7441,-190.5 27.7441,-208.5 188.256,-208.5 188.256,-190.5 27.7441,-190.5"/>
<text text-anchor="middle" x="108" y="-196.5" font-family="Helvetica,sans-Serif" font-size="10.00">ocra/optim/IFunctionProperties.h</text>
</a>
</g>
</g>
<!-- Node24&#45;&gt;Node30 -->
<g id="edge42" class="edge"><title>Node24&#45;&gt;Node30</title>
<path fill="none" stroke="midnightblue" d="M433.838,-250.496C364.976,-239.93 243.879,-221.349 170.291,-210.058"/>
<polygon fill="midnightblue" stroke="midnightblue" points="170.649,-206.572 160.234,-208.515 169.587,-213.491 170.649,-206.572"/>
</g>
<!-- Node31 -->
<g id="node32" class="node"><title>Node31</title>
<g id="a_node32"><a xlink:href="../../db/d47/AbilitySet_8h.html" target="_top" xlink:title="ocra/optim/AbilitySet.h">
<polygon fill="white" stroke="black" points="368.256,-190.5 368.256,-208.5 483.744,-208.5 483.744,-190.5 368.256,-190.5"/>
<text text-anchor="middle" x="426" y="-196.5" font-family="Helvetica,sans-Serif" font-size="10.00">ocra/optim/AbilitySet.h</text>
</a>
</g>
</g>
<!-- Node24&#45;&gt;Node31 -->
<g id="edge45" class="edge"><title>Node24&#45;&gt;Node31</title>
<path fill="none" stroke="midnightblue" d="M477.657,-250.435C468.448,-241.533 453.409,-226.995 441.926,-215.895"/>
<polygon fill="midnightblue" stroke="midnightblue" points="444.283,-213.306 434.66,-208.872 439.418,-218.338 444.283,-213.306"/>
</g>
<!-- Node32 -->
<g id="node33" class="node"><title>Node32</title>
<g id="a_node33"><a xlink:href="../../d1/d87/CoupledInputOutputSize_8h.html" target="_top" xlink:title="ocra/optim/CoupledInputOutput\lSize.h">
<polygon fill="white" stroke="black" points="501.513,-185.5 501.513,-213.5 656.487,-213.5 656.487,-185.5 501.513,-185.5"/>
<text text-anchor="start" x="509.513" y="-201.5" font-family="Helvetica,sans-Serif" font-size="10.00">ocra/optim/CoupledInputOutput</text>
<text text-anchor="middle" x="579" y="-191.5" font-family="Helvetica,sans-Serif" font-size="10.00">Size.h</text>
</a>
</g>
</g>
<!-- Node24&#45;&gt;Node32 -->
<g id="edge48" class="edge"><title>Node24&#45;&gt;Node32</title>
<path fill="none" stroke="midnightblue" d="M498.931,-250.435C511.937,-242.324 532.444,-229.535 549.448,-218.93"/>
<polygon fill="midnightblue" stroke="midnightblue" points="551.329,-221.882 557.962,-213.62 547.625,-215.942 551.329,-221.882"/>
</g>
<!-- Node33 -->
<g id="node34" class="node"><title>Node33</title>
<g id="a_node34"><a xlink:href="../../df/d97/NamedInstance_8h.html" target="_top" xlink:title="ocra/optim/NamedInstance.h">
<polygon fill="white" stroke="black" points="206.079,-190.5 206.079,-208.5 349.921,-208.5 349.921,-190.5 206.079,-190.5"/>
<text text-anchor="middle" x="278" y="-196.5" font-family="Helvetica,sans-Serif" font-size="10.00">ocra/optim/NamedInstance.h</text>
</a>
</g>
</g>
<!-- Node24&#45;&gt;Node33 -->
<g id="edge51" class="edge"><title>Node24&#45;&gt;Node33</title>
<path fill="none" stroke="midnightblue" d="M457.078,-250.435C420.547,-240.249 357.552,-222.683 316.849,-211.333"/>
<polygon fill="midnightblue" stroke="midnightblue" points="317.583,-207.904 307.01,-208.589 315.703,-214.647 317.583,-207.904"/>
</g>
<!-- Node25&#45;&gt;Node15 -->
<g id="edge38" class="edge"><title>Node25&#45;&gt;Node15</title>
<path fill="none" stroke="midnightblue" d="M494.474,-135.413C589.987,-129.863 787.294,-116.623 953,-94 960.447,-92.9832 968.294,-91.7164 975.957,-90.3692"/>
<polygon fill="midnightblue" stroke="midnightblue" points="976.666,-93.7979 985.879,-88.566 975.414,-86.9107 976.666,-93.7979"/>
</g>
<!-- Node25&#45;&gt;Node19 -->
<g id="edge40" class="edge"><title>Node25&#45;&gt;Node19</title>
<path fill="none" stroke="midnightblue" d="M396.048,-130.434C359.194,-122.692 303.802,-109.85 257,-94 255.575,-93.5175 254.125,-92.9963 252.669,-92.4491"/>
<polygon fill="midnightblue" stroke="midnightblue" points="253.759,-89.1141 243.177,-88.5921 251.124,-95.5992 253.759,-89.1141"/>
</g>
<!-- Node25&#45;&gt;Node21 -->
<g id="edge41" class="edge"><title>Node25&#45;&gt;Node21</title>
<path fill="none" stroke="midnightblue" d="M494.658,-131.504C593.103,-119.559 791.128,-95.5305 875.486,-85.2946"/>
<polygon fill="midnightblue" stroke="midnightblue" points="875.927,-88.7668 885.433,-84.0876 875.084,-81.8178 875.927,-88.7668"/>
</g>
<!-- Node26 -->
<g id="node27" class="node"><title>Node26</title>
<g id="a_node27"><a xlink:href="../../d5/d55/MathTypes_8h.html" target="_top" xlink:title="Declaration file of the OptimizationVariable class. ">
<polygon fill="white" stroke="black" points="338.476,-70.5 338.476,-88.5 449.524,-88.5 449.524,-70.5 338.476,-70.5"/>
<text text-anchor="middle" x="394" y="-76.5" font-family="Helvetica,sans-Serif" font-size="10.00">ocra/util/MathTypes.h</text>
</a>
</g>
</g>
<!-- Node25&#45;&gt;Node26 -->
<g id="edge35" class="edge"><title>Node25&#45;&gt;Node26</title>
<path fill="none" stroke="midnightblue" d="M431.021,-130.435C424.675,-121.876 414.466,-108.105 406.374,-97.1909"/>
<polygon fill="midnightblue" stroke="midnightblue" points="408.974,-94.8204 400.207,-88.8718 403.351,-98.9894 408.974,-94.8204"/>
</g>
<!-- Node29 -->
<g id="node30" class="node"><title>Node29</title>
<polygon fill="white" stroke="#bfbfbf" points="265.828,-70.5 265.828,-88.5 320.172,-88.5 320.172,-70.5 265.828,-70.5"/>
<text text-anchor="middle" x="293" y="-76.5" font-family="Helvetica,sans-Serif" font-size="10.00">iostream</text>
</g>
<!-- Node25&#45;&gt;Node29 -->
<g id="edge39" class="edge"><title>Node25&#45;&gt;Node29</title>
<path fill="none" stroke="midnightblue" d="M416.977,-130.435C392.506,-120.579 350.881,-103.813 322.681,-92.4549"/>
<polygon fill="midnightblue" stroke="midnightblue" points="323.9,-89.1728 313.317,-88.6831 321.285,-95.6659 323.9,-89.1728"/>
</g>
<!-- Node27 -->
<g id="node28" class="node"><title>Node27</title>
<polygon fill="white" stroke="#bfbfbf" points="292.37,-5.5 292.37,-23.5 365.63,-23.5 365.63,-5.5 292.37,-5.5"/>
<text text-anchor="middle" x="329" y="-11.5" font-family="Helvetica,sans-Serif" font-size="10.00">Eigen/Dense</text>
</g>
<!-- Node26&#45;&gt;Node27 -->
<g id="edge36" class="edge"><title>Node26&#45;&gt;Node27</title>
<path fill="none" stroke="midnightblue" d="M385.502,-70.2639C375.129,-60.2099 357.385,-43.0121 344.545,-30.5672"/>
<polygon fill="midnightblue" stroke="midnightblue" points="346.911,-27.9855 337.294,-23.539 342.039,-33.012 346.911,-27.9855"/>
</g>
<!-- Node28 -->
<g id="node29" class="node"><title>Node28</title>
<polygon fill="white" stroke="#bfbfbf" points="383.384,-5.5 383.384,-23.5 426.616,-23.5 426.616,-5.5 383.384,-5.5"/>
<text text-anchor="middle" x="405" y="-11.5" font-family="Helvetica,sans-Serif" font-size="10.00">cmath</text>
</g>
<!-- Node26&#45;&gt;Node28 -->
<g id="edge37" class="edge"><title>Node26&#45;&gt;Node28</title>
<path fill="none" stroke="midnightblue" d="M395.438,-70.2639C397.061,-60.9687 399.75,-45.5673 401.864,-33.461"/>
<polygon fill="midnightblue" stroke="midnightblue" points="405.324,-33.992 403.596,-23.539 398.428,-32.7879 405.324,-33.992"/>
</g>
<!-- Node30&#45;&gt;Node19 -->
<g id="edge44" class="edge"><title>Node30&#45;&gt;Node19</title>
<path fill="none" stroke="midnightblue" d="M116.111,-190.389C135.562,-170.938 185.13,-121.37 210.511,-95.9893"/>
<polygon fill="midnightblue" stroke="midnightblue" points="213.236,-98.2134 217.833,-88.6674 208.287,-93.2636 213.236,-98.2134"/>
</g>
<!-- Node30&#45;&gt;Node23 -->
<g id="edge43" class="edge"><title>Node30&#45;&gt;Node23</title>
<path fill="none" stroke="midnightblue" d="M129.969,-190.435C157.667,-180.268 205.391,-162.749 236.315,-151.397"/>
<polygon fill="midnightblue" stroke="midnightblue" points="237.537,-154.677 245.718,-147.945 235.124,-148.106 237.537,-154.677"/>
</g>
<!-- Node31&#45;&gt;Node19 -->
<g id="edge47" class="edge"><title>Node31&#45;&gt;Node19</title>
<path fill="none" stroke="midnightblue" d="M411.27,-190.43C393.717,-180.763 363.55,-163.992 338,-149 306.35,-130.428 270.211,-108.123 247.748,-94.1257"/>
<polygon fill="midnightblue" stroke="midnightblue" points="249.347,-90.998 239.011,-88.6707 245.64,-96.9357 249.347,-90.998"/>
</g>
<!-- Node31&#45;&gt;Node25 -->
<g id="edge46" class="edge"><title>Node31&#45;&gt;Node25</title>
<path fill="none" stroke="midnightblue" d="M427.53,-190.435C429.072,-182.304 431.506,-169.469 433.52,-158.848"/>
<polygon fill="midnightblue" stroke="midnightblue" points="436.988,-159.349 435.412,-148.872 430.11,-158.044 436.988,-159.349"/>
</g>
<!-- Node33&#45;&gt;Node23 -->
<g id="edge52" class="edge"><title>Node33&#45;&gt;Node23</title>
<path fill="none" stroke="midnightblue" d="M276.331,-190.435C274.649,-182.304 271.994,-169.469 269.796,-158.848"/>
<polygon fill="midnightblue" stroke="midnightblue" points="273.186,-157.955 267.732,-148.872 266.331,-159.374 273.186,-157.955"/>
</g>
<!-- Node34&#45;&gt;Node24 -->
<g id="edge54" class="edge"><title>Node34&#45;&gt;Node24</title>
<path fill="none" stroke="midnightblue" d="M476.305,-360.094C478.272,-339.889 482.001,-301.581 484.217,-278.817"/>
<polygon fill="midnightblue" stroke="midnightblue" points="487.709,-279.064 485.195,-268.772 480.742,-278.386 487.709,-279.064"/>
</g>
<!-- Node36 -->
<g id="node37" class="node"><title>Node36</title>
<polygon fill="white" stroke="#bfbfbf" points="960.943,-190.5 960.943,-208.5 1013.06,-208.5 1013.06,-190.5 960.943,-190.5"/>
<text text-anchor="middle" x="987" y="-196.5" font-family="Helvetica,sans-Serif" font-size="10.00">memory</text>
</g>
<!-- Node35&#45;&gt;Node36 -->
<g id="edge56" class="edge"><title>Node35&#45;&gt;Node36</title>
<path fill="none" stroke="midnightblue" d="M987,-250.435C987,-242.389 987,-229.739 987,-219.185"/>
<polygon fill="midnightblue" stroke="midnightblue" points="990.5,-218.872 987,-208.872 983.5,-218.872 990.5,-218.872"/>
</g>
<!-- Node37&#45;&gt;Node24 -->
<g id="edge60" class="edge"><title>Node37&#45;&gt;Node24</title>
<path fill="none" stroke="midnightblue" d="M712.448,-305.45C665.264,-296.084 587.327,-280.614 536.32,-270.489"/>
<polygon fill="midnightblue" stroke="midnightblue" points="536.985,-267.052 526.495,-268.538 535.622,-273.918 536.985,-267.052"/>
</g>
<!-- Node37&#45;&gt;Node35 -->
<g id="edge61" class="edge"><title>Node37&#45;&gt;Node35</title>
<path fill="none" stroke="midnightblue" d="M788.54,-305.45C829.461,-296.182 896.777,-280.935 941.495,-270.807"/>
<polygon fill="midnightblue" stroke="midnightblue" points="942.53,-274.161 951.51,-268.538 940.984,-267.334 942.53,-274.161"/>
</g>
<!-- Node38&#45;&gt;Node39 -->
<g id="edge63" class="edge"><title>Node38&#45;&gt;Node39</title>
<path fill="none" stroke="midnightblue" d="M797.817,-425.435C783.422,-417.25 760.648,-404.3 741.9,-393.639"/>
<polygon fill="midnightblue" stroke="midnightblue" points="743.497,-390.521 733.074,-388.62 740.037,-396.606 743.497,-390.521"/>
</g>
<!-- Node39&#45;&gt;Node37 -->
<g id="edge64" class="edge"><title>Node39&#45;&gt;Node37</title>
<path fill="none" stroke="midnightblue" d="M719.757,-360.339C726.002,-351.916 734.152,-340.923 740.82,-331.929"/>
<polygon fill="midnightblue" stroke="midnightblue" points="743.724,-333.889 746.868,-323.771 738.1,-329.72 743.724,-333.889"/>
</g>
<!-- Node40&#45;&gt;Node39 -->
<g id="edge66" class="edge"><title>Node40&#45;&gt;Node39</title>
<path fill="none" stroke="midnightblue" d="M659.204,-425.435C666.949,-417.821 678.889,-406.084 689.247,-395.901"/>
<polygon fill="midnightblue" stroke="midnightblue" points="691.75,-398.349 696.427,-388.843 686.842,-393.357 691.75,-398.349"/>
</g>
</g>
</svg>
