<?xml version="1.0" encoding="UTF-8" standalone="no"?>
<!DOCTYPE svg PUBLIC "-//W3C//DTD SVG 1.1//EN"
 "http://www.w3.org/Graphics/SVG/1.1/DTD/svg11.dtd">
<!-- Generated by graphviz version 2.38.0 (20140413.2041)
 -->
<!-- Title: gOcraTaskManagerBase.h Pages: 1 -->
<svg width="1717pt" height="212pt"
 viewBox="0.00 0.00 1716.84 212.00" xmlns="http://www.w3.org/2000/svg" xmlns:xlink="http://www.w3.org/1999/xlink">
<g id="graph0" class="graph" transform="scale(1 1) rotate(0) translate(4 208)">
<title>gOcraTaskManagerBase.h</title>
<polygon fill="white" stroke="none" points="-4,4 -4,-208 1712.84,-208 1712.84,4 -4,4"/>
<!-- Node104 -->
<g id="node1" class="node"><title>Node104</title>
<polygon fill="#bfbfbf" stroke="black" points="778.167,-185.5 778.167,-203.5 912.561,-203.5 912.561,-185.5 778.167,-185.5"/>
<text text-anchor="middle" x="845.364" y="-191.5" font-family="Helvetica,sans-Serif" font-size="10.00">gOcraTaskManagerBase.h</text>
</g>
<!-- Node105 -->
<g id="node2" class="node"><title>Node105</title>
<g id="a_node2"><a xlink:href="../../d4/d79/gOcraTaskManagerCollectionBase_8h.html" target="_top" xlink:title="gOcraTaskManagerCollection\lBase.h">
<polygon fill="white" stroke="black" points="714.778,-65.5 714.778,-93.5 861.95,-93.5 861.95,-65.5 714.778,-65.5"/>
<text text-anchor="start" x="722.778" y="-81.5" font-family="Helvetica,sans-Serif" font-size="10.00">gOcraTaskManagerCollection</text>
<text text-anchor="middle" x="788.364" y="-71.5" font-family="Helvetica,sans-Serif" font-size="10.00">Base.h</text>
</a>
</g>
</g>
<!-- Node104&#45;&gt;Node105 -->
<g id="edge1" class="edge"><title>Node104&#45;&gt;Node105</title>
<path fill="none" stroke="midnightblue" d="M829.431,-178.281C821.795,-170.215 813.087,-159.764 807.364,-149 797.863,-131.129 792.737,-108.043 790.281,-93.7577"/>
<polygon fill="midnightblue" stroke="midnightblue" points="827.035,-180.835 836.56,-185.475 832.007,-175.908 827.035,-180.835"/>
</g>
<!-- Node107 -->
<g id="node4" class="node"><title>Node107</title>
<g id="a_node4"><a xlink:href="../../de/dda/gOcraCoMTaskManager_8h.html" target="_top" xlink:title="gOcraCoMTaskManager.h">
<polygon fill="white" stroke="black" points="106.281,-130.5 106.281,-148.5 238.448,-148.5 238.448,-130.5 106.281,-130.5"/>
<text text-anchor="middle" x="172.364" y="-136.5" font-family="Helvetica,sans-Serif" font-size="10.00">gOcraCoMTaskManager.h</text>
</a>
</g>
</g>
<!-- Node104&#45;&gt;Node107 -->
<g id="edge3" class="edge"><title>Node104&#45;&gt;Node107</title>
<path fill="none" stroke="midnightblue" d="M767.999,-188.7C653.943,-181.406 434.004,-166.514 247.364,-149 244.494,-148.731 241.563,-148.445 238.603,-148.147"/>
<polygon fill="midnightblue" stroke="midnightblue" points="767.83,-192.196 778.032,-189.339 768.275,-185.21 767.83,-192.196"/>
</g>
<!-- Node109 -->
<g id="node6" class="node"><title>Node109</title>
<g id="a_node6"><a xlink:href="../../d0/d8c/gOcraContactSetTaskManager_8h.html" target="_top" xlink:title="gOcraContactSetTaskManager.h">
<polygon fill="white" stroke="black" points="256.101,-130.5 256.101,-148.5 416.627,-148.5 416.627,-130.5 256.101,-130.5"/>
<text text-anchor="middle" x="336.364" y="-136.5" font-family="Helvetica,sans-Serif" font-size="10.00">gOcraContactSetTaskManager.h</text>
</a>
</g>
</g>
<!-- Node104&#45;&gt;Node109 -->
<g id="edge6" class="edge"><title>Node104&#45;&gt;Node109</title>
<path fill="none" stroke="midnightblue" d="M767.813,-185.425C671.808,-175.428 509.289,-158.506 413.484,-148.53"/>
<polygon fill="midnightblue" stroke="midnightblue" points="767.727,-188.935 778.036,-186.489 768.452,-181.972 767.727,-188.935"/>
</g>
<!-- Node111 -->
<g id="node8" class="node"><title>Node111</title>
<g id="a_node8"><a xlink:href="../../dc/db6/gOcraContactTaskManager_8h.html" target="_top" xlink:title="gOcraContactTaskManager.h">
<polygon fill="white" stroke="black" points="434.606,-130.5 434.606,-148.5 580.123,-148.5 580.123,-130.5 434.606,-130.5"/>
<text text-anchor="middle" x="507.364" y="-136.5" font-family="Helvetica,sans-Serif" font-size="10.00">gOcraContactTaskManager.h</text>
</a>
</g>
</g>
<!-- Node104&#45;&gt;Node111 -->
<g id="edge9" class="edge"><title>Node104&#45;&gt;Node111</title>
<path fill="none" stroke="midnightblue" d="M783.992,-183.877C719.461,-173.758 619.074,-158.017 558.627,-148.538"/>
<polygon fill="midnightblue" stroke="midnightblue" points="783.608,-187.359 794.029,-185.45 784.692,-180.443 783.608,-187.359"/>
</g>
<!-- Node113 -->
<g id="node10" class="node"><title>Node113</title>
<g id="a_node10"><a xlink:href="../../d0/dd7/gOcraFullPostureTaskManager_8h.html" target="_top" xlink:title="gOcraFullPostureTaskManager.h">
<polygon fill="white" stroke="black" points="598.549,-130.5 598.549,-148.5 760.179,-148.5 760.179,-130.5 598.549,-130.5"/>
<text text-anchor="middle" x="679.364" y="-136.5" font-family="Helvetica,sans-Serif" font-size="10.00">gOcraFullPostureTaskManager.h</text>
</a>
</g>
</g>
<!-- Node104&#45;&gt;Node113 -->
<g id="edge12" class="edge"><title>Node104&#45;&gt;Node113</title>
<path fill="none" stroke="midnightblue" d="M810.403,-182.338C778.708,-172.218 732.762,-157.549 704.541,-148.538"/>
<polygon fill="midnightblue" stroke="midnightblue" points="809.562,-185.743 820.152,-185.45 811.691,-179.075 809.562,-185.743"/>
</g>
<!-- Node115 -->
<g id="node12" class="node"><title>Node115</title>
<g id="a_node12"><a xlink:href="../../dd/dc3/gOcraPartialPostureTaskManager_8h.html" target="_top" xlink:title="gOcraPartialPostureTaskManager.h">
<polygon fill="white" stroke="black" points="816.434,-130.5 816.434,-148.5 990.295,-148.5 990.295,-130.5 816.434,-130.5"/>
<text text-anchor="middle" x="903.364" y="-136.5" font-family="Helvetica,sans-Serif" font-size="10.00">gOcraPartialPostureTaskManager.h</text>
</a>
</g>
</g>
<!-- Node104&#45;&gt;Node115 -->
<g id="edge15" class="edge"><title>Node104&#45;&gt;Node115</title>
<path fill="none" stroke="midnightblue" d="M861.893,-178.397C872.522,-168.683 885.913,-156.447 894.555,-148.55"/>
<polygon fill="midnightblue" stroke="midnightblue" points="859.448,-175.889 854.427,-185.219 864.17,-181.057 859.448,-175.889"/>
</g>
<!-- Node117 -->
<g id="node14" class="node"><title>Node117</title>
<g id="a_node14"><a xlink:href="../../d8/de2/gOcraSegCartesianTaskManager_8h.html" target="_top" xlink:title="gOcraSegCartesianTaskManager.h">
<polygon fill="white" stroke="black" points="1008.54,-130.5 1008.54,-148.5 1180.19,-148.5 1180.19,-130.5 1008.54,-130.5"/>
<text text-anchor="middle" x="1094.36" y="-136.5" font-family="Helvetica,sans-Serif" font-size="10.00">gOcraSegCartesianTaskManager.h</text>
</a>
</g>
</g>
<!-- Node104&#45;&gt;Node117 -->
<g id="edge18" class="edge"><title>Node104&#45;&gt;Node117</title>
<path fill="none" stroke="midnightblue" d="M893.244,-183.309C940.845,-173.177 1012.89,-157.841 1056.6,-148.538"/>
<polygon fill="midnightblue" stroke="midnightblue" points="892.234,-179.945 883.182,-185.45 893.692,-186.792 892.234,-179.945"/>
</g>
<!-- Node119 -->
<g id="node16" class="node"><title>Node119</title>
<g id="a_node16"><a xlink:href="../../d7/d74/gOcraSegOrientationTaskManager_8h.html" target="_top" xlink:title="gOcraSegOrientationTaskManager.h">
<polygon fill="white" stroke="black" points="1198.48,-130.5 1198.48,-148.5 1376.25,-148.5 1376.25,-130.5 1198.48,-130.5"/>
<text text-anchor="middle" x="1287.36" y="-136.5" font-family="Helvetica,sans-Serif" font-size="10.00">gOcraSegOrientationTaskManager.h</text>
</a>
</g>
</g>
<!-- Node104&#45;&gt;Node119 -->
<g id="edge21" class="edge"><title>Node104&#45;&gt;Node119</title>
<path fill="none" stroke="midnightblue" d="M922.517,-184.249C1006.76,-174.147 1140.31,-158.134 1220.33,-148.538"/>
<polygon fill="midnightblue" stroke="midnightblue" points="922.007,-180.785 912.495,-185.45 922.84,-187.735 922.007,-180.785"/>
</g>
<!-- Node121 -->
<g id="node18" class="node"><title>Node121</title>
<g id="a_node18"><a xlink:href="../../d2/db2/gOcraSegPoseTaskManager_8h.html" target="_top" xlink:title="gOcraSegPoseTaskManager.h">
<polygon fill="white" stroke="black" points="1394.54,-130.5 1394.54,-148.5 1546.18,-148.5 1546.18,-130.5 1394.54,-130.5"/>
<text text-anchor="middle" x="1470.36" y="-136.5" font-family="Helvetica,sans-Serif" font-size="10.00">gOcraSegPoseTaskManager.h</text>
</a>
</g>
</g>
<!-- Node104&#45;&gt;Node121 -->
<g id="edge24" class="edge"><title>Node104&#45;&gt;Node121</title>
<path fill="none" stroke="midnightblue" d="M922.93,-187.535C1027.85,-179.37 1220.82,-164.006 1385.36,-149 1388.32,-148.731 1391.33,-148.451 1394.37,-148.166"/>
<polygon fill="midnightblue" stroke="midnightblue" points="922.444,-184.063 912.745,-188.327 922.987,-191.041 922.444,-184.063"/>
</g>
<!-- Node123 -->
<g id="node20" class="node"><title>Node123</title>
<g id="a_node20"><a xlink:href="../../d6/d1f/gOcraTaskManagerBase_8cpp.html" target="_top" xlink:title="gOcraTaskManagerBase.cpp">
<polygon fill="white" stroke="black" points="1563.89,-130.5 1563.89,-148.5 1708.84,-148.5 1708.84,-130.5 1563.89,-130.5"/>
<text text-anchor="middle" x="1636.36" y="-136.5" font-family="Helvetica,sans-Serif" font-size="10.00">gOcraTaskManagerBase.cpp</text>
</a>
</g>
</g>
<!-- Node104&#45;&gt;Node123 -->
<g id="edge27" class="edge"><title>Node104&#45;&gt;Node123</title>
<path fill="none" stroke="midnightblue" d="M923.291,-189.688C1054.06,-183.05 1325.89,-168.223 1555.36,-149 1558.04,-148.776 1560.77,-148.538 1563.52,-148.29"/>
<polygon fill="midnightblue" stroke="midnightblue" points="922.792,-186.208 912.981,-190.209 923.145,-193.199 922.792,-186.208"/>
</g>
<!-- Node106 -->
<g id="node3" class="node"><title>Node106</title>
<g id="a_node3"><a xlink:href="../../de/d9f/gOcraTaskManagerCollectionBase_8cpp.html" target="_top" xlink:title="gOcraTaskManagerCollection\lBase.cpp">
<polygon fill="white" stroke="black" points="714.778,-0.5 714.778,-28.5 861.95,-28.5 861.95,-0.5 714.778,-0.5"/>
<text text-anchor="start" x="722.778" y="-16.5" font-family="Helvetica,sans-Serif" font-size="10.00">gOcraTaskManagerCollection</text>
<text text-anchor="middle" x="788.364" y="-6.5" font-family="Helvetica,sans-Serif" font-size="10.00">Base.cpp</text>
</a>
</g>
</g>
<!-- Node105&#45;&gt;Node106 -->
<g id="edge2" class="edge"><title>Node105&#45;&gt;Node106</title>
<path fill="none" stroke="midnightblue" d="M788.364,-55.1641C788.364,-46.1693 788.364,-36.2205 788.364,-28.5369"/>
<polygon fill="midnightblue" stroke="midnightblue" points="784.864,-55.4463 788.364,-65.4464 791.864,-55.4464 784.864,-55.4463"/>
</g>
<!-- Node107&#45;&gt;Node105 -->
<g id="edge4" class="edge"><title>Node107&#45;&gt;Node105</title>
<path fill="none" stroke="midnightblue" d="M248.73,-129.905C452.33,-110.747 505.912,-118.017 705.364,-94 708.408,-93.6335 711.511,-93.2362 714.643,-92.8158"/>
<polygon fill="midnightblue" stroke="midnightblue" points="248.228,-126.437 238.605,-130.868 248.891,-133.405 248.228,-126.437"/>
</g>
<!-- Node108 -->
<g id="node5" class="node"><title>Node108</title>
<g id="a_node5"><a xlink:href="../../d4/d34/gOcraCoMTaskManager_8cpp.html" target="_top" xlink:title="gOcraCoMTaskManager.cpp">
<polygon fill="white" stroke="black" points="0,-70.5 0,-88.5 142.729,-88.5 142.729,-70.5 0,-70.5"/>
<text text-anchor="middle" x="71.3643" y="-76.5" font-family="Helvetica,sans-Serif" font-size="10.00">gOcraCoMTaskManager.cpp</text>
</a>
</g>
</g>
<!-- Node107&#45;&gt;Node108 -->
<g id="edge5" class="edge"><title>Node107&#45;&gt;Node108</title>
<path fill="none" stroke="midnightblue" d="M149.417,-125.322C129.803,-114.059 102.196,-98.2053 85.6142,-88.6831"/>
<polygon fill="midnightblue" stroke="midnightblue" points="147.906,-128.491 158.321,-130.435 151.392,-122.42 147.906,-128.491"/>
</g>
<!-- Node109&#45;&gt;Node105 -->
<g id="edge7" class="edge"><title>Node109&#45;&gt;Node105</title>
<path fill="none" stroke="midnightblue" d="M420.653,-129.336C495.529,-120.957 607.885,-107.799 705.364,-94 708.4,-93.5703 711.496,-93.1202 714.622,-92.656"/>
<polygon fill="midnightblue" stroke="midnightblue" points="419.893,-125.899 410.342,-130.486 420.669,-132.856 419.893,-125.899"/>
</g>
<!-- Node110 -->
<g id="node7" class="node"><title>Node110</title>
<g id="a_node7"><a xlink:href="../../d9/d71/gOcraContactSetTaskManager_8cpp.html" target="_top" xlink:title="gOcraContactSetTaskManager.cpp">
<polygon fill="white" stroke="black" points="160.82,-70.5 160.82,-88.5 331.908,-88.5 331.908,-70.5 160.82,-70.5"/>
<text text-anchor="middle" x="246.364" y="-76.5" font-family="Helvetica,sans-Serif" font-size="10.00">gOcraContactSetTaskManager.cpp</text>
</a>
</g>
</g>
<!-- Node109&#45;&gt;Node110 -->
<g id="edge8" class="edge"><title>Node109&#45;&gt;Node110</title>
<path fill="none" stroke="midnightblue" d="M315.438,-125.014C297.992,-113.771 273.704,-98.1187 259.062,-88.6831"/>
<polygon fill="midnightblue" stroke="midnightblue" points="313.548,-127.96 323.85,-130.435 317.34,-122.076 313.548,-127.96"/>
</g>
<!-- Node111&#45;&gt;Node105 -->
<g id="edge10" class="edge"><title>Node111&#45;&gt;Node105</title>
<path fill="none" stroke="midnightblue" d="M556.046,-128.452C602.903,-118.78 673.998,-104.106 725.195,-93.5385"/>
<polygon fill="midnightblue" stroke="midnightblue" points="555.227,-125.047 546.141,-130.496 556.642,-131.902 555.227,-125.047"/>
</g>
<!-- Node112 -->
<g id="node9" class="node"><title>Node112</title>
<g id="a_node9"><a xlink:href="../../da/d9a/gOcraContactTaskManager_8cpp.html" target="_top" xlink:title="gOcraContactTaskManager.cpp">
<polygon fill="white" stroke="black" points="350.325,-70.5 350.325,-88.5 506.403,-88.5 506.403,-70.5 350.325,-70.5"/>
<text text-anchor="middle" x="428.364" y="-76.5" font-family="Helvetica,sans-Serif" font-size="10.00">gOcraContactTaskManager.cpp</text>
</a>
</g>
</g>
<!-- Node111&#45;&gt;Node112 -->
<g id="edge11" class="edge"><title>Node111&#45;&gt;Node112</title>
<path fill="none" stroke="midnightblue" d="M488.147,-124.391C472.902,-113.199 452.126,-97.9456 439.51,-88.6831"/>
<polygon fill="midnightblue" stroke="midnightblue" points="486.247,-127.339 496.38,-130.435 490.39,-121.696 486.247,-127.339"/>
</g>
<!-- Node113&#45;&gt;Node105 -->
<g id="edge13" class="edge"><title>Node113&#45;&gt;Node105</title>
<path fill="none" stroke="midnightblue" d="M703.719,-125.541C721.589,-116.032 745.767,-103.167 763.707,-93.6203"/>
<polygon fill="midnightblue" stroke="midnightblue" points="701.704,-122.648 694.52,-130.435 704.992,-128.828 701.704,-122.648"/>
</g>
<!-- Node114 -->
<g id="node11" class="node"><title>Node114</title>
<g id="a_node11"><a xlink:href="../../d3/df6/gOcraFullPostureTaskManager_8cpp.html" target="_top" xlink:title="gOcraFullPostureTaskManager.cpp">
<polygon fill="white" stroke="black" points="524.269,-70.5 524.269,-88.5 696.46,-88.5 696.46,-70.5 524.269,-70.5"/>
<text text-anchor="middle" x="610.364" y="-76.5" font-family="Helvetica,sans-Serif" font-size="10.00">gOcraFullPostureTaskManager.cpp</text>
</a>
</g>
</g>
<!-- Node113&#45;&gt;Node114 -->
<g id="edge14" class="edge"><title>Node113&#45;&gt;Node114</title>
<path fill="none" stroke="midnightblue" d="M661.877,-123.8C648.723,-112.744 631.169,-97.9883 620.324,-88.8718"/>
<polygon fill="midnightblue" stroke="midnightblue" points="659.863,-126.68 669.77,-130.435 664.367,-121.322 659.863,-126.68"/>
</g>
<!-- Node115&#45;&gt;Node105 -->
<g id="edge16" class="edge"><title>Node115&#45;&gt;Node105</title>
<path fill="none" stroke="midnightblue" d="M878.191,-125.804C859.288,-116.27 833.482,-103.255 814.379,-93.6203"/>
<polygon fill="midnightblue" stroke="midnightblue" points="876.869,-129.057 887.374,-130.435 880.021,-122.807 876.869,-129.057"/>
</g>
<!-- Node116 -->
<g id="node13" class="node"><title>Node116</title>
<g id="a_node13"><a xlink:href="../../dd/dcc/gOcraPartialPostureTaskManager_8cpp.html" target="_top" xlink:title="gOcraPartialPostureTaskManager.cpp">
<polygon fill="white" stroke="black" points="880.153,-70.5 880.153,-88.5 1064.58,-88.5 1064.58,-70.5 880.153,-70.5"/>
<text text-anchor="middle" x="972.364" y="-76.5" font-family="Helvetica,sans-Serif" font-size="10.00">gOcraPartialPostureTaskManager.cpp</text>
</a>
</g>
</g>
<!-- Node115&#45;&gt;Node116 -->
<g id="edge17" class="edge"><title>Node115&#45;&gt;Node116</title>
<path fill="none" stroke="midnightblue" d="M920.852,-123.8C934.005,-112.744 951.559,-97.9883 962.405,-88.8718"/>
<polygon fill="midnightblue" stroke="midnightblue" points="918.361,-121.322 912.958,-130.435 922.865,-126.68 918.361,-121.322"/>
</g>
<!-- Node117&#45;&gt;Node105 -->
<g id="edge19" class="edge"><title>Node117&#45;&gt;Node105</title>
<path fill="none" stroke="midnightblue" d="M1042.31,-128.634C991.301,-118.965 913.256,-104.172 857.154,-93.5385"/>
<polygon fill="midnightblue" stroke="midnightblue" points="1041.66,-132.073 1052.14,-130.496 1042.96,-125.195 1041.66,-132.073"/>
</g>
<!-- Node118 -->
<g id="node15" class="node"><title>Node118</title>
<g id="a_node15"><a xlink:href="../../dd/d9e/gOcraSegCartesianTaskManager_8cpp.html" target="_top" xlink:title="gOcraSegCartesianTaskManager.cpp">
<polygon fill="white" stroke="black" points="1082.26,-70.5 1082.26,-88.5 1264.47,-88.5 1264.47,-70.5 1082.26,-70.5"/>
<text text-anchor="middle" x="1173.36" y="-76.5" font-family="Helvetica,sans-Serif" font-size="10.00">gOcraSegCartesianTaskManager.cpp</text>
</a>
</g>
</g>
<!-- Node117&#45;&gt;Node118 -->
<g id="edge20" class="edge"><title>Node117&#45;&gt;Node118</title>
<path fill="none" stroke="midnightblue" d="M1113.58,-124.391C1128.83,-113.199 1149.6,-97.9456 1162.22,-88.6831"/>
<polygon fill="midnightblue" stroke="midnightblue" points="1111.34,-121.696 1105.35,-130.435 1115.48,-127.339 1111.34,-121.696"/>
</g>
<!-- Node119&#45;&gt;Node105 -->
<g id="edge22" class="edge"><title>Node119&#45;&gt;Node105</title>
<path fill="none" stroke="midnightblue" d="M1189.05,-129.512C1104.64,-121.43 979.792,-108.606 871.364,-94 868.326,-93.5907 865.227,-93.1577 862.099,-92.7077"/>
<polygon fill="midnightblue" stroke="midnightblue" points="1188.86,-133.009 1199.14,-130.474 1189.52,-126.041 1188.86,-133.009"/>
</g>
<!-- Node120 -->
<g id="node17" class="node"><title>Node120</title>
<g id="a_node17"><a xlink:href="../../d8/dfe/gOcraSegOrientationTaskManager_8cpp.html" target="_top" xlink:title="gOcraSegOrientationTaskManager.cpp">
<polygon fill="white" stroke="black" points="1282.2,-70.5 1282.2,-88.5 1470.53,-88.5 1470.53,-70.5 1282.2,-70.5"/>
<text text-anchor="middle" x="1376.36" y="-76.5" font-family="Helvetica,sans-Serif" font-size="10.00">gOcraSegOrientationTaskManager.cpp</text>
</a>
</g>
</g>
<!-- Node119&#45;&gt;Node120 -->
<g id="edge23" class="edge"><title>Node119&#45;&gt;Node120</title>
<path fill="none" stroke="midnightblue" d="M1308.53,-124.704C1325.75,-113.484 1349.46,-98.0322 1363.81,-88.6831"/>
<polygon fill="midnightblue" stroke="midnightblue" points="1306.21,-122.043 1299.74,-130.435 1310.03,-127.908 1306.21,-122.043"/>
</g>
<!-- Node121&#45;&gt;Node105 -->
<g id="edge25" class="edge"><title>Node121&#45;&gt;Node105</title>
<path fill="none" stroke="midnightblue" d="M1384.41,-129.948C1155.5,-110.875 1095.62,-120.036 871.364,-94 868.319,-93.6464 865.215,-93.26 862.082,-92.8486"/>
<polygon fill="midnightblue" stroke="midnightblue" points="1384.12,-133.436 1394.37,-130.788 1384.7,-126.461 1384.12,-133.436"/>
</g>
<!-- Node122 -->
<g id="node19" class="node"><title>Node122</title>
<g id="a_node19"><a xlink:href="../../de/d48/gOcraSegPoseTaskManager_8cpp.html" target="_top" xlink:title="gOcraSegPoseTaskManager.cpp">
<polygon fill="white" stroke="black" points="1488.26,-70.5 1488.26,-88.5 1650.46,-88.5 1650.46,-70.5 1488.26,-70.5"/>
<text text-anchor="middle" x="1569.36" y="-76.5" font-family="Helvetica,sans-Serif" font-size="10.00">gOcraSegPoseTaskManager.cpp</text>
</a>
</g>
</g>
<!-- Node121&#45;&gt;Node122 -->
<g id="edge26" class="edge"><title>Node121&#45;&gt;Node122</title>
<path fill="none" stroke="midnightblue" d="M1492.86,-125.322C1512.08,-114.059 1539.14,-98.2053 1555.4,-88.6831"/>
<polygon fill="midnightblue" stroke="midnightblue" points="1490.99,-122.36 1484.13,-130.435 1494.53,-128.4 1490.99,-122.36"/>
</g>
</g>
</svg>
