<?xml version="1.0" encoding="UTF-8" standalone="no"?>
<!DOCTYPE svg PUBLIC "-//W3C//DTD SVG 1.1//EN"
 "http://www.w3.org/Graphics/SVG/1.1/DTD/svg11.dtd">
<!-- Generated by graphviz version 2.38.0 (20140413.2041)
 -->
<!-- Title: ContactSet.h Pages: 1 -->
<svg width="222pt" height="82pt"
 viewBox="0.00 0.00 221.70 82.00" xmlns="http://www.w3.org/2000/svg" xmlns:xlink="http://www.w3.org/1999/xlink">
<g id="graph0" class="graph" transform="scale(1 1) rotate(0) translate(4 78)">
<title>ContactSet.h</title>
<polygon fill="white" stroke="none" points="-4,4 -4,-78 217.704,-78 217.704,4 -4,4"/>
<!-- Node102 -->
<g id="node1" class="node"><title>Node102</title>
<polygon fill="#bfbfbf" stroke="black" points="63.2808,-55.5 63.2808,-73.5 137.093,-73.5 137.093,-55.5 63.2808,-55.5"/>
<text text-anchor="middle" x="100.187" y="-61.5" font-family="Helvetica,sans-Serif" font-size="10.00">ContactSet.h</text>
</g>
<!-- Node103 -->
<g id="node2" class="node"><title>Node103</title>
<g id="a_node2"><a xlink:href="../../d7/dce/ContactSet_8cpp.html" target="_top" xlink:title="ContactSet.cpp">
<polygon fill="white" stroke="black" points="0,-0.5 0,-18.5 84.374,-18.5 84.374,-0.5 0,-0.5"/>
<text text-anchor="middle" x="42.187" y="-6.5" font-family="Helvetica,sans-Serif" font-size="10.00">ContactSet.cpp</text>
</a>
</g>
</g>
<!-- Node102&#45;&gt;Node103 -->
<g id="edge1" class="edge"><title>Node102&#45;&gt;Node103</title>
<path fill="none" stroke="midnightblue" d="M83.6587,-48.3965C73.0291,-38.6833 59.638,-26.4466 50.996,-18.5496"/>
<polygon fill="midnightblue" stroke="midnightblue" points="81.3814,-51.0568 91.1245,-55.2188 86.1034,-45.8893 81.3814,-51.0568"/>
</g>
<!-- Node104 -->
<g id="node3" class="node"><title>Node104</title>
<g id="a_node3"><a xlink:href="../../d0/d71/GHCJTController_8cpp.html" target="_top" xlink:title="Implement the quasi&#45;static Generalized Hierarchical Control based on Jacobian Transpose (GHCJT)...">
<polygon fill="white" stroke="black" points="102.67,-0.5 102.67,-18.5 213.704,-18.5 213.704,-0.5 102.67,-0.5"/>
<text text-anchor="middle" x="158.187" y="-6.5" font-family="Helvetica,sans-Serif" font-size="10.00">GHCJTController.cpp</text>
</a>
</g>
</g>
<!-- Node102&#45;&gt;Node104 -->
<g id="edge2" class="edge"><title>Node102&#45;&gt;Node104</title>
<path fill="none" stroke="midnightblue" d="M116.715,-48.3965C127.345,-38.6833 140.736,-26.4466 149.378,-18.5496"/>
<polygon fill="midnightblue" stroke="midnightblue" points="114.271,-45.8893 109.25,-55.2188 118.993,-51.0568 114.271,-45.8893"/>
</g>
</g>
</svg>
