<?xml version="1.0" encoding="UTF-8" standalone="no"?>
<!DOCTYPE svg PUBLIC "-//W3C//DTD SVG 1.1//EN"
 "http://www.w3.org/Graphics/SVG/1.1/DTD/svg11.dtd">
<!-- Generated by graphviz version 2.38.0 (20140413.2041)
 -->
<!-- Title: TestFunction.cpp Pages: 1 -->
<svg width="1544pt" height="572pt"
 viewBox="0.00 0.00 1543.62 572.00" xmlns="http://www.w3.org/2000/svg" xmlns:xlink="http://www.w3.org/1999/xlink">
<g id="graph0" class="graph" transform="scale(1 1) rotate(0) translate(4 568)">
<title>TestFunction.cpp</title>
<polygon fill="white" stroke="none" points="-4,4 -4,-568 1539.62,-568 1539.62,4 -4,4"/>
<!-- Node0 -->
<g id="node1" class="node"><title>Node0</title>
<polygon fill="#bfbfbf" stroke="black" points="925.202,-545.5 925.202,-563.5 1016.8,-563.5 1016.8,-545.5 925.202,-545.5"/>
<text text-anchor="middle" x="971" y="-551.5" font-family="Helvetica,sans-Serif" font-size="10.00">TestFunction.cpp</text>
</g>
<!-- Node1 -->
<g id="node2" class="node"><title>Node1</title>
<g id="a_node2"><a xlink:href="../../d0/d12/TestFunction_8h.html" target="_top" xlink:title="A set of tutorial/test for the Function class. ">
<polygon fill="white" stroke="black" points="942.751,-375.5 942.751,-393.5 1073.25,-393.5 1073.25,-375.5 942.751,-375.5"/>
<text text-anchor="middle" x="1008" y="-381.5" font-family="Helvetica,sans-Serif" font-size="10.00">ocra/optim/TestFunction.h</text>
</a>
</g>
</g>
<!-- Node0&#45;&gt;Node1 -->
<g id="edge1" class="edge"><title>Node0&#45;&gt;Node1</title>
<path fill="none" stroke="midnightblue" d="M972.785,-545.397C978.438,-519.729 996.045,-439.781 1004.01,-403.605"/>
<polygon fill="midnightblue" stroke="midnightblue" points="1007.5,-404.04 1006.23,-393.522 1000.66,-402.535 1007.5,-404.04"/>
</g>
<!-- Node34 -->
<g id="node35" class="node"><title>Node34</title>
<g id="a_node35"><a xlink:href="../../d3/dcf/Constraint_8h.html" target="_top" xlink:title="Declaration file of the Constraint class. ">
<polygon fill="white" stroke="black" points="594.311,-490.5 594.311,-508.5 713.689,-508.5 713.689,-490.5 594.311,-490.5"/>
<text text-anchor="middle" x="654" y="-496.5" font-family="Helvetica,sans-Serif" font-size="10.00">ocra/optim/Constraint.h</text>
</a>
</g>
</g>
<!-- Node0&#45;&gt;Node34 -->
<g id="edge52" class="edge"><title>Node0&#45;&gt;Node34</title>
<path fill="none" stroke="midnightblue" d="M924.905,-545.793C868.543,-536.37 773.111,-520.414 711.865,-510.175"/>
<polygon fill="midnightblue" stroke="midnightblue" points="712.408,-506.717 701.967,-508.52 711.253,-513.621 712.408,-506.717"/>
</g>
<!-- Node42 -->
<g id="node43" class="node"><title>Node42</title>
<polygon fill="white" stroke="#bfbfbf" points="998.714,-490.5 998.714,-508.5 1045.29,-508.5 1045.29,-490.5 998.714,-490.5"/>
<text text-anchor="middle" x="1022" y="-496.5" font-family="Helvetica,sans-Serif" font-size="10.00">math.h</text>
</g>
<!-- Node0&#45;&gt;Node42 -->
<g id="edge70" class="edge"><title>Node0&#45;&gt;Node42</title>
<path fill="none" stroke="midnightblue" d="M978.969,-545.219C986.498,-537.394 997.979,-525.463 1007.19,-515.892"/>
<polygon fill="midnightblue" stroke="midnightblue" points="1009.84,-518.182 1014.25,-508.55 1004.8,-513.328 1009.84,-518.182"/>
</g>
<!-- Node2 -->
<g id="node3" class="node"><title>Node2</title>
<g id="a_node3"><a xlink:href="../../df/df5/Function_8h.html" target="_top" xlink:title="Declaration file of the Function class. ">
<polygon fill="white" stroke="black" points="871.921,-250.5 871.921,-268.5 984.079,-268.5 984.079,-250.5 871.921,-250.5"/>
<text text-anchor="middle" x="928" y="-256.5" font-family="Helvetica,sans-Serif" font-size="10.00">ocra/optim/Function.h</text>
</a>
</g>
</g>
<!-- Node1&#45;&gt;Node2 -->
<g id="edge2" class="edge"><title>Node1&#45;&gt;Node2</title>
<path fill="none" stroke="midnightblue" d="M1010.49,-375.464C1014.63,-360.434 1021.26,-327.556 1008,-305 998.993,-289.684 982.596,-279.258 966.981,-272.373"/>
<polygon fill="midnightblue" stroke="midnightblue" points="968.017,-269.017 957.433,-268.531 965.404,-275.511 968.017,-269.017"/>
</g>
<!-- Node3 -->
<g id="node4" class="node"><title>Node3</title>
<g id="a_node4"><a xlink:href="../../de/d94/IFunction_8h.html" target="_top" xlink:title="Declaration file of the IFunction interface. ">
<polygon fill="white" stroke="black" points="1149.53,-130.5 1149.53,-148.5 1264.47,-148.5 1264.47,-130.5 1149.53,-130.5"/>
<text text-anchor="middle" x="1207" y="-136.5" font-family="Helvetica,sans-Serif" font-size="10.00">ocra/optim/IFunction.h</text>
</a>
</g>
</g>
<!-- Node2&#45;&gt;Node3 -->
<g id="edge3" class="edge"><title>Node2&#45;&gt;Node3</title>
<path fill="none" stroke="midnightblue" d="M982.089,-250.447C1017.46,-243.808 1063.98,-232.42 1102,-214 1121.12,-204.738 1122.7,-197.328 1140,-185 1155.06,-174.269 1172.47,-162.731 1185.77,-154.093"/>
<polygon fill="midnightblue" stroke="midnightblue" points="1187.74,-156.988 1194.24,-148.622 1183.94,-151.109 1187.74,-156.988"/>
</g>
<!-- Node12 -->
<g id="node13" class="node"><title>Node12</title>
<g id="a_node13"><a xlink:href="../../d9/d54/IFunctionProperties_8h.html" target="_top" xlink:title="ocra/optim/IFunctionProperties.h">
<polygon fill="white" stroke="black" points="932.744,-190.5 932.744,-208.5 1093.26,-208.5 1093.26,-190.5 932.744,-190.5"/>
<text text-anchor="middle" x="1013" y="-196.5" font-family="Helvetica,sans-Serif" font-size="10.00">ocra/optim/IFunctionProperties.h</text>
</a>
</g>
</g>
<!-- Node2&#45;&gt;Node12 -->
<g id="edge12" class="edge"><title>Node2&#45;&gt;Node12</title>
<path fill="none" stroke="midnightblue" d="M939.819,-250.435C953.444,-241.138 976.077,-225.694 992.572,-214.439"/>
<polygon fill="midnightblue" stroke="midnightblue" points="994.72,-217.211 1001.01,-208.683 990.774,-211.428 994.72,-217.211"/>
</g>
<!-- Node14 -->
<g id="node15" class="node"><title>Node14</title>
<g id="a_node15"><a xlink:href="../../db/d47/AbilitySet_8h.html" target="_top" xlink:title="ocra/optim/AbilitySet.h">
<polygon fill="white" stroke="black" points="1149.26,-190.5 1149.26,-208.5 1264.74,-208.5 1264.74,-190.5 1149.26,-190.5"/>
<text text-anchor="middle" x="1207" y="-196.5" font-family="Helvetica,sans-Serif" font-size="10.00">ocra/optim/AbilitySet.h</text>
</a>
</g>
</g>
<!-- Node2&#45;&gt;Node14 -->
<g id="edge15" class="edge"><title>Node2&#45;&gt;Node14</title>
<path fill="none" stroke="midnightblue" d="M966.501,-250.496C1016.5,-240.103 1103.79,-221.955 1158.33,-210.618"/>
<polygon fill="midnightblue" stroke="midnightblue" points="1159.37,-213.977 1168.45,-208.515 1157.94,-207.123 1159.37,-213.977"/>
</g>
<!-- Node15 -->
<g id="node16" class="node"><title>Node15</title>
<g id="a_node16"><a xlink:href="../../d1/d87/CoupledInputOutputSize_8h.html" target="_top" xlink:title="ocra/optim/CoupledInputOutput\lSize.h">
<polygon fill="white" stroke="black" points="1282.51,-185.5 1282.51,-213.5 1437.49,-213.5 1437.49,-185.5 1282.51,-185.5"/>
<text text-anchor="start" x="1290.51" y="-201.5" font-family="Helvetica,sans-Serif" font-size="10.00">ocra/optim/CoupledInputOutput</text>
<text text-anchor="middle" x="1360" y="-191.5" font-family="Helvetica,sans-Serif" font-size="10.00">Size.h</text>
</a>
</g>
</g>
<!-- Node2&#45;&gt;Node15 -->
<g id="edge18" class="edge"><title>Node2&#45;&gt;Node15</title>
<path fill="none" stroke="midnightblue" d="M984.097,-251.771C1050.52,-243.696 1164.75,-229.467 1272.16,-214.241"/>
<polygon fill="midnightblue" stroke="midnightblue" points="1272.79,-217.686 1282.2,-212.812 1271.81,-210.756 1272.79,-217.686"/>
</g>
<!-- Node16 -->
<g id="node17" class="node"><title>Node16</title>
<g id="a_node17"><a xlink:href="../../d7/d90/Variable_8h.html" target="_top" xlink:title="Declaration file of the Variable class. ">
<polygon fill="white" stroke="black" points="512.123,-190.5 512.123,-208.5 621.877,-208.5 621.877,-190.5 512.123,-190.5"/>
<text text-anchor="middle" x="567" y="-196.5" font-family="Helvetica,sans-Serif" font-size="10.00">ocra/optim/Variable.h</text>
</a>
</g>
</g>
<!-- Node2&#45;&gt;Node16 -->
<g id="edge19" class="edge"><title>Node2&#45;&gt;Node16</title>
<path fill="none" stroke="midnightblue" d="M878.184,-250.496C812.553,-239.952 697.241,-221.425 626.922,-210.127"/>
<polygon fill="midnightblue" stroke="midnightblue" points="627.313,-206.645 616.885,-208.515 626.203,-213.557 627.313,-206.645"/>
</g>
<!-- Node17 -->
<g id="node18" class="node"><title>Node17</title>
<g id="a_node18"><a xlink:href="../../d8/ddc/ObserverSubject_8h.html" target="_top" xlink:title="Declaration file of the Observer, Subject and ObserverSubject classes. ">
<polygon fill="white" stroke="black" points="621.86,-130.5 621.86,-148.5 770.14,-148.5 770.14,-130.5 621.86,-130.5"/>
<text text-anchor="middle" x="696" y="-136.5" font-family="Helvetica,sans-Serif" font-size="10.00">ocra/optim/ObserverSubject.h</text>
</a>
</g>
</g>
<!-- Node2&#45;&gt;Node17 -->
<g id="edge49" class="edge"><title>Node2&#45;&gt;Node17</title>
<path fill="none" stroke="midnightblue" d="M871.744,-251.657C837.999,-245.62 795.312,-234.447 762,-214 738.541,-199.601 718.555,-174.366 706.908,-157.543"/>
<polygon fill="midnightblue" stroke="midnightblue" points="709.509,-155.135 701.051,-148.755 703.684,-159.017 709.509,-155.135"/>
</g>
<!-- Node33 -->
<g id="node34" class="node"><title>Node33</title>
<g id="a_node34"><a xlink:href="../../df/d97/NamedInstance_8h.html" target="_top" xlink:title="ocra/optim/NamedInstance.h">
<polygon fill="white" stroke="black" points="771.079,-190.5 771.079,-208.5 914.921,-208.5 914.921,-190.5 771.079,-190.5"/>
<text text-anchor="middle" x="843" y="-196.5" font-family="Helvetica,sans-Serif" font-size="10.00">ocra/optim/NamedInstance.h</text>
</a>
</g>
</g>
<!-- Node2&#45;&gt;Node33 -->
<g id="edge50" class="edge"><title>Node2&#45;&gt;Node33</title>
<path fill="none" stroke="midnightblue" d="M916.181,-250.435C902.556,-241.138 879.923,-225.694 863.428,-214.439"/>
<polygon fill="midnightblue" stroke="midnightblue" points="865.226,-211.428 854.993,-208.683 861.28,-217.211 865.226,-211.428"/>
</g>
<!-- Node4 -->
<g id="node5" class="node"><title>Node4</title>
<g id="a_node5"><a xlink:href="../../d5/d55/MathTypes_8h.html" target="_top" xlink:title="Declaration file of the OptimizationVariable class. ">
<polygon fill="white" stroke="black" points="1420.48,-70.5 1420.48,-88.5 1531.52,-88.5 1531.52,-70.5 1420.48,-70.5"/>
<text text-anchor="middle" x="1476" y="-76.5" font-family="Helvetica,sans-Serif" font-size="10.00">ocra/util/MathTypes.h</text>
</a>
</g>
</g>
<!-- Node3&#45;&gt;Node4 -->
<g id="edge4" class="edge"><title>Node3&#45;&gt;Node4</title>
<path fill="none" stroke="midnightblue" d="M1244.12,-130.496C1292.22,-120.125 1376.14,-102.03 1428.75,-90.6887"/>
<polygon fill="midnightblue" stroke="midnightblue" points="1429.79,-94.0438 1438.83,-88.5147 1428.32,-87.2011 1429.79,-94.0438"/>
</g>
<!-- Node7 -->
<g id="node8" class="node"><title>Node7</title>
<g id="a_node8"><a xlink:href="../../de/df3/ocra__assert_8h.html" target="_top" xlink:title="ocra/optim/ocra_assert.h">
<polygon fill="white" stroke="black" points="1141.98,-70.5 1141.98,-88.5 1268.02,-88.5 1268.02,-70.5 1141.98,-70.5"/>
<text text-anchor="middle" x="1205" y="-76.5" font-family="Helvetica,sans-Serif" font-size="10.00">ocra/optim/ocra_assert.h</text>
</a>
</g>
</g>
<!-- Node3&#45;&gt;Node7 -->
<g id="edge7" class="edge"><title>Node3&#45;&gt;Node7</title>
<path fill="none" stroke="midnightblue" d="M1206.72,-130.435C1206.44,-122.389 1206.01,-109.739 1205.64,-99.1846"/>
<polygon fill="midnightblue" stroke="midnightblue" points="1209.13,-98.7452 1205.29,-88.8718 1202.14,-98.9865 1209.13,-98.7452"/>
</g>
<!-- Node9 -->
<g id="node10" class="node"><title>Node9</title>
<polygon fill="white" stroke="#bfbfbf" points="1347.83,-70.5 1347.83,-88.5 1402.17,-88.5 1402.17,-70.5 1347.83,-70.5"/>
<text text-anchor="middle" x="1375" y="-76.5" font-family="Helvetica,sans-Serif" font-size="10.00">iostream</text>
</g>
<!-- Node3&#45;&gt;Node9 -->
<g id="edge9" class="edge"><title>Node3&#45;&gt;Node9</title>
<path fill="none" stroke="midnightblue" d="M1231.9,-130.382C1258.5,-121.645 1301.86,-107.219 1339,-94 1340.64,-93.4152 1342.33,-92.8092 1344.02,-92.1924"/>
<polygon fill="midnightblue" stroke="midnightblue" points="1345.55,-95.3585 1353.72,-88.6139 1343.13,-88.7911 1345.55,-95.3585"/>
</g>
<!-- Node10 -->
<g id="node11" class="node"><title>Node10</title>
<polygon fill="white" stroke="#bfbfbf" points="1286.38,-70.5 1286.38,-88.5 1329.62,-88.5 1329.62,-70.5 1286.38,-70.5"/>
<text text-anchor="middle" x="1308" y="-76.5" font-family="Helvetica,sans-Serif" font-size="10.00">vector</text>
</g>
<!-- Node3&#45;&gt;Node10 -->
<g id="edge10" class="edge"><title>Node3&#45;&gt;Node10</title>
<path fill="none" stroke="midnightblue" d="M1221.04,-130.435C1237.61,-120.923 1265.38,-104.976 1285.08,-93.6645"/>
<polygon fill="midnightblue" stroke="midnightblue" points="1286.82,-96.6982 1293.75,-88.6831 1283.34,-90.6279 1286.82,-96.6982"/>
</g>
<!-- Node11 -->
<g id="node12" class="node"><title>Node11</title>
<polygon fill="white" stroke="#bfbfbf" points="881.599,-70.5 881.599,-88.5 940.401,-88.5 940.401,-70.5 881.599,-70.5"/>
<text text-anchor="middle" x="911" y="-76.5" font-family="Helvetica,sans-Serif" font-size="10.00">stdexcept</text>
</g>
<!-- Node3&#45;&gt;Node11 -->
<g id="edge11" class="edge"><title>Node3&#45;&gt;Node11</title>
<path fill="none" stroke="midnightblue" d="M1166.15,-130.496C1109.27,-119.35 1006.87,-99.2846 950.636,-88.2666"/>
<polygon fill="midnightblue" stroke="midnightblue" points="951.182,-84.807 940.696,-86.3188 949.836,-91.6764 951.182,-84.807"/>
</g>
<!-- Node5 -->
<g id="node6" class="node"><title>Node5</title>
<polygon fill="white" stroke="#bfbfbf" points="1401.37,-5.5 1401.37,-23.5 1474.63,-23.5 1474.63,-5.5 1401.37,-5.5"/>
<text text-anchor="middle" x="1438" y="-11.5" font-family="Helvetica,sans-Serif" font-size="10.00">Eigen/Dense</text>
</g>
<!-- Node4&#45;&gt;Node5 -->
<g id="edge5" class="edge"><title>Node4&#45;&gt;Node5</title>
<path fill="none" stroke="midnightblue" d="M1471.03,-70.2639C1465.25,-60.6842 1455.56,-44.6186 1448.17,-32.3587"/>
<polygon fill="midnightblue" stroke="midnightblue" points="1451.01,-30.2942 1442.85,-23.539 1445.02,-33.9096 1451.01,-30.2942"/>
</g>
<!-- Node6 -->
<g id="node7" class="node"><title>Node6</title>
<polygon fill="white" stroke="#bfbfbf" points="1492.38,-5.5 1492.38,-23.5 1535.62,-23.5 1535.62,-5.5 1492.38,-5.5"/>
<text text-anchor="middle" x="1514" y="-11.5" font-family="Helvetica,sans-Serif" font-size="10.00">cmath</text>
</g>
<!-- Node4&#45;&gt;Node6 -->
<g id="edge6" class="edge"><title>Node4&#45;&gt;Node6</title>
<path fill="none" stroke="midnightblue" d="M1480.97,-70.2639C1486.75,-60.6842 1496.44,-44.6186 1503.83,-32.3587"/>
<polygon fill="midnightblue" stroke="midnightblue" points="1506.98,-33.9096 1509.15,-23.539 1500.99,-30.2942 1506.98,-33.9096"/>
</g>
<!-- Node8 -->
<g id="node9" class="node"><title>Node8</title>
<polygon fill="white" stroke="#bfbfbf" points="1183.94,-5.5 1183.94,-23.5 1226.06,-23.5 1226.06,-5.5 1183.94,-5.5"/>
<text text-anchor="middle" x="1205" y="-11.5" font-family="Helvetica,sans-Serif" font-size="10.00">cstdio</text>
</g>
<!-- Node7&#45;&gt;Node8 -->
<g id="edge8" class="edge"><title>Node7&#45;&gt;Node8</title>
<path fill="none" stroke="midnightblue" d="M1205,-70.2639C1205,-61.0635 1205,-45.881 1205,-33.8326"/>
<polygon fill="midnightblue" stroke="midnightblue" points="1208.5,-33.5389 1205,-23.539 1201.5,-33.539 1208.5,-33.5389"/>
</g>
<!-- Node12&#45;&gt;Node10 -->
<g id="edge14" class="edge"><title>Node12&#45;&gt;Node10</title>
<path fill="none" stroke="midnightblue" d="M1025.61,-190.466C1048.03,-176.471 1096.68,-147.451 1141,-130 1199.18,-107.094 1217.94,-114.542 1277,-94 1278.42,-93.5058 1279.87,-92.9753 1281.32,-92.4207"/>
<polygon fill="midnightblue" stroke="midnightblue" points="1282.88,-95.5666 1290.81,-88.5404 1280.22,-89.0879 1282.88,-95.5666"/>
</g>
<!-- Node13 -->
<g id="node14" class="node"><title>Node13</title>
<polygon fill="white" stroke="#bfbfbf" points="825.773,-130.5 825.773,-148.5 866.227,-148.5 866.227,-130.5 825.773,-130.5"/>
<text text-anchor="middle" x="846" y="-136.5" font-family="Helvetica,sans-Serif" font-size="10.00">string</text>
</g>
<!-- Node12&#45;&gt;Node13 -->
<g id="edge13" class="edge"><title>Node12&#45;&gt;Node13</title>
<path fill="none" stroke="midnightblue" d="M989.779,-190.435C960.053,-180.111 908.5,-162.207 875.876,-150.876"/>
<polygon fill="midnightblue" stroke="midnightblue" points="876.999,-147.561 866.404,-147.587 874.703,-154.174 876.999,-147.561"/>
</g>
<!-- Node14&#45;&gt;Node3 -->
<g id="edge16" class="edge"><title>Node14&#45;&gt;Node3</title>
<path fill="none" stroke="midnightblue" d="M1207,-190.435C1207,-182.389 1207,-169.739 1207,-159.185"/>
<polygon fill="midnightblue" stroke="midnightblue" points="1210.5,-158.872 1207,-148.872 1203.5,-158.872 1210.5,-158.872"/>
</g>
<!-- Node14&#45;&gt;Node10 -->
<g id="edge17" class="edge"><title>Node14&#45;&gt;Node10</title>
<path fill="none" stroke="midnightblue" d="M1221.38,-190.397C1235.87,-181.67 1258.15,-166.64 1273,-149 1285.87,-133.71 1295.66,-112.884 1301.56,-98.2216"/>
<polygon fill="midnightblue" stroke="midnightblue" points="1304.86,-99.3923 1305.17,-88.8019 1298.33,-96.8907 1304.86,-99.3923"/>
</g>
<!-- Node16&#45;&gt;Node10 -->
<g id="edge48" class="edge"><title>Node16&#45;&gt;Node10</title>
<path fill="none" stroke="midnightblue" d="M615.926,-190.446C659.508,-182.485 724.61,-168.639 779,-149 796.76,-142.587 798.806,-135.052 817,-130 1014.59,-75.1287 1078.03,-143.623 1277,-94 1278.92,-93.5206 1280.88,-92.9329 1282.82,-92.2739"/>
<polygon fill="midnightblue" stroke="midnightblue" points="1284.24,-95.4752 1292.27,-88.5549 1281.68,-88.9618 1284.24,-95.4752"/>
</g>
<!-- Node16&#45;&gt;Node13 -->
<g id="edge47" class="edge"><title>Node16&#45;&gt;Node13</title>
<path fill="none" stroke="midnightblue" d="M610.056,-190.417C659.085,-181.071 741.524,-164.92 812,-149 813.235,-148.721 814.494,-148.431 815.765,-148.134"/>
<polygon fill="midnightblue" stroke="midnightblue" points="816.64,-151.524 825.54,-145.776 814.998,-144.719 816.64,-151.524"/>
</g>
<!-- Node16&#45;&gt;Node17 -->
<g id="edge20" class="edge"><title>Node16&#45;&gt;Node17</title>
<path fill="none" stroke="midnightblue" d="M584.937,-190.435C606.572,-180.708 643.174,-164.251 668.412,-152.904"/>
<polygon fill="midnightblue" stroke="midnightblue" points="670.114,-155.976 677.8,-148.683 667.244,-149.592 670.114,-155.976"/>
</g>
<!-- Node28 -->
<g id="node29" class="node"><title>Node28</title>
<g id="a_node29"><a xlink:href="../../d1/de6/Composite_8h.html" target="_top" xlink:title="Utility classes and functions to implement the Composite design pattern. ">
<polygon fill="white" stroke="black" points="461.2,-130.5 461.2,-148.5 582.8,-148.5 582.8,-130.5 461.2,-130.5"/>
<text text-anchor="middle" x="522" y="-136.5" font-family="Helvetica,sans-Serif" font-size="10.00">ocra/optim/Composite.h</text>
</a>
</g>
</g>
<!-- Node16&#45;&gt;Node28 -->
<g id="edge34" class="edge"><title>Node16&#45;&gt;Node28</title>
<path fill="none" stroke="midnightblue" d="M560.743,-190.435C554.035,-181.79 543.204,-167.829 534.696,-156.864"/>
<polygon fill="midnightblue" stroke="midnightblue" points="537.391,-154.627 528.495,-148.872 531.86,-158.918 537.391,-154.627"/>
</g>
<!-- Node29 -->
<g id="node30" class="node"><title>Node29</title>
<polygon fill="white" stroke="#bfbfbf" points="66.291,-70.5 66.291,-88.5 185.709,-88.5 185.709,-70.5 66.291,-70.5"/>
<text text-anchor="middle" x="126" y="-76.5" font-family="Helvetica,sans-Serif" font-size="10.00">boost/noncopyable.hpp</text>
</g>
<!-- Node16&#45;&gt;Node29 -->
<g id="edge46" class="edge"><title>Node16&#45;&gt;Node29</title>
<path fill="none" stroke="midnightblue" d="M532.046,-190.437C491.507,-180.98 422.724,-164.604 364,-149 292.185,-129.918 208.868,-105.382 162.307,-91.4524"/>
<polygon fill="midnightblue" stroke="midnightblue" points="163.254,-88.0826 152.67,-88.5637 161.244,-94.7878 163.254,-88.0826"/>
</g>
<!-- Node32 -->
<g id="node33" class="node"><title>Node32</title>
<polygon fill="white" stroke="#bfbfbf" points="373.035,-130.5 373.035,-148.5 442.965,-148.5 442.965,-130.5 373.035,-130.5"/>
<text text-anchor="middle" x="408" y="-136.5" font-family="Helvetica,sans-Serif" font-size="10.00">Eigen/Eigen</text>
</g>
<!-- Node16&#45;&gt;Node32 -->
<g id="edge45" class="edge"><title>Node16&#45;&gt;Node32</title>
<path fill="none" stroke="midnightblue" d="M544.892,-190.435C517.558,-180.465 470.842,-163.424 439.697,-152.062"/>
<polygon fill="midnightblue" stroke="midnightblue" points="440.77,-148.728 430.176,-148.589 438.371,-155.304 440.77,-148.728"/>
</g>
<!-- Node18 -->
<g id="node19" class="node"><title>Node18</title>
<g id="a_node19"><a xlink:href="../../df/d67/ObserverSubjectBase_8h.html" target="_top" xlink:title="Declaration file of the Observer and Subject base classes. ">
<polygon fill="white" stroke="black" points="724.03,-65.5 724.03,-93.5 863.97,-93.5 863.97,-65.5 724.03,-65.5"/>
<text text-anchor="start" x="732.03" y="-81.5" font-family="Helvetica,sans-Serif" font-size="10.00">ocra/optim/ObserverSubject</text>
<text text-anchor="middle" x="794" y="-71.5" font-family="Helvetica,sans-Serif" font-size="10.00">Base.h</text>
</a>
</g>
</g>
<!-- Node17&#45;&gt;Node18 -->
<g id="edge21" class="edge"><title>Node17&#45;&gt;Node18</title>
<path fill="none" stroke="midnightblue" d="M709.626,-130.435C723.331,-122.324 744.941,-109.535 762.859,-98.9304"/>
<polygon fill="midnightblue" stroke="midnightblue" points="765.008,-101.726 771.831,-93.6203 761.443,-95.7016 765.008,-101.726"/>
</g>
<!-- Node22 -->
<g id="node23" class="node"><title>Node22</title>
<polygon fill="white" stroke="#bfbfbf" points="918.313,-0.5 918.313,-28.5 1017.69,-28.5 1017.69,-0.5 918.313,-0.5"/>
<text text-anchor="start" x="926.313" y="-16.5" font-family="Helvetica,sans-Serif" font-size="10.00">boost/type_traits/is</text>
<text text-anchor="middle" x="968" y="-6.5" font-family="Helvetica,sans-Serif" font-size="10.00">_class.hpp</text>
</g>
<!-- Node17&#45;&gt;Node22 -->
<g id="edge33" class="edge"><title>Node17&#45;&gt;Node22</title>
<path fill="none" stroke="midnightblue" d="M763.455,-130.483C833.748,-121.527 935.545,-106.628 949,-94 963.902,-80.0138 967.994,-56.5081 968.755,-38.8559"/>
<polygon fill="midnightblue" stroke="midnightblue" points="972.256,-38.7965 968.865,-28.7589 965.256,-38.72 972.256,-38.7965"/>
</g>
<!-- Node23 -->
<g id="node24" class="node"><title>Node23</title>
<polygon fill="white" stroke="#bfbfbf" points="226.313,-0.5 226.313,-28.5 325.687,-28.5 325.687,-0.5 226.313,-0.5"/>
<text text-anchor="start" x="234.313" y="-16.5" font-family="Helvetica,sans-Serif" font-size="10.00">boost/type_traits/is</text>
<text text-anchor="middle" x="276" y="-6.5" font-family="Helvetica,sans-Serif" font-size="10.00">_base_of.hpp</text>
</g>
<!-- Node17&#45;&gt;Node23 -->
<g id="edge31" class="edge"><title>Node17&#45;&gt;Node23</title>
<path fill="none" stroke="midnightblue" d="M692.364,-130.41C684.877,-114.793 666.134,-80.6567 639,-65 626.017,-57.5089 435.292,-34.206 335.654,-22.4424"/>
<polygon fill="midnightblue" stroke="midnightblue" points="336.063,-18.9664 325.722,-21.2723 335.244,-25.9183 336.063,-18.9664"/>
</g>
<!-- Node24 -->
<g id="node25" class="node"><title>Node24</title>
<polygon fill="white" stroke="#bfbfbf" points="406.582,-5.5 406.582,-23.5 525.418,-23.5 525.418,-5.5 406.582,-5.5"/>
<text text-anchor="middle" x="466" y="-11.5" font-family="Helvetica,sans-Serif" font-size="10.00">boost/static_assert.hpp</text>
</g>
<!-- Node17&#45;&gt;Node24 -->
<g id="edge30" class="edge"><title>Node17&#45;&gt;Node24</title>
<path fill="none" stroke="midnightblue" d="M695.801,-130.294C694.968,-115.085 690.937,-82.4829 672,-65 660.719,-54.5847 576.517,-36.6976 519.317,-25.5165"/>
<polygon fill="midnightblue" stroke="midnightblue" points="519.812,-22.0472 509.328,-23.5781 518.478,-28.919 519.812,-22.0472"/>
</g>
<!-- Node26 -->
<g id="node27" class="node"><title>Node26</title>
<g id="a_node27"><a xlink:href="../../db/ddf/ocra__events_8h.html" target="_top" xlink:title="ocra/optim/ocra_events.h">
<polygon fill="white" stroke="black" points="995.86,-70.5 995.86,-88.5 1124.14,-88.5 1124.14,-70.5 995.86,-70.5"/>
<text text-anchor="middle" x="1060" y="-76.5" font-family="Helvetica,sans-Serif" font-size="10.00">ocra/optim/ocra_events.h</text>
</a>
</g>
</g>
<!-- Node17&#45;&gt;Node26 -->
<g id="edge29" class="edge"><title>Node17&#45;&gt;Node26</title>
<path fill="none" stroke="midnightblue" d="M749.281,-130.487C806.753,-121.779 900.928,-107.322 982,-94 989.179,-92.8203 996.724,-91.5513 1004.18,-90.2802"/>
<polygon fill="midnightblue" stroke="midnightblue" points="1004.98,-93.6944 1014.24,-88.554 1003.79,-86.7952 1004.98,-93.6944"/>
</g>
<!-- Node27 -->
<g id="node28" class="node"><title>Node27</title>
<polygon fill="white" stroke="#bfbfbf" points="530.313,-65.5 530.313,-93.5 629.687,-93.5 629.687,-65.5 530.313,-65.5"/>
<text text-anchor="start" x="538.313" y="-81.5" font-family="Helvetica,sans-Serif" font-size="10.00">boost/type_traits/is</text>
<text text-anchor="middle" x="580" y="-71.5" font-family="Helvetica,sans-Serif" font-size="10.00">_convertible.hpp</text>
</g>
<!-- Node17&#45;&gt;Node27 -->
<g id="edge32" class="edge"><title>Node17&#45;&gt;Node27</title>
<path fill="none" stroke="midnightblue" d="M679.871,-130.435C663.277,-122.138 636.892,-108.946 615.409,-98.2043"/>
<polygon fill="midnightblue" stroke="midnightblue" points="616.75,-94.962 606.241,-93.6203 613.62,-101.223 616.75,-94.962"/>
</g>
<!-- Node19 -->
<g id="node20" class="node"><title>Node19</title>
<polygon fill="white" stroke="#bfbfbf" points="841.596,-5.5 841.596,-23.5 900.404,-23.5 900.404,-5.5 841.596,-5.5"/>
<text text-anchor="middle" x="871" y="-11.5" font-family="Helvetica,sans-Serif" font-size="10.00">functional</text>
</g>
<!-- Node18&#45;&gt;Node19 -->
<g id="edge22" class="edge"><title>Node18&#45;&gt;Node19</title>
<path fill="none" stroke="midnightblue" d="M809.954,-65.4464C822.529,-55.1577 840.059,-40.8153 853.109,-30.1379"/>
<polygon fill="midnightblue" stroke="midnightblue" points="855.418,-32.7714 860.941,-23.7301 850.985,-27.3536 855.418,-32.7714"/>
</g>
<!-- Node20 -->
<g id="node21" class="node"><title>Node20</title>
<polygon fill="white" stroke="#bfbfbf" points="546.436,-5.5 546.436,-23.5 603.564,-23.5 603.564,-5.5 546.436,-5.5"/>
<text text-anchor="middle" x="575" y="-11.5" font-family="Helvetica,sans-Serif" font-size="10.00">algorithm</text>
</g>
<!-- Node18&#45;&gt;Node20 -->
<g id="edge23" class="edge"><title>Node18&#45;&gt;Node20</title>
<path fill="none" stroke="midnightblue" d="M745.4,-65.4472C709.757,-55.7435 660.241,-41.9906 617,-29 614.407,-28.2211 611.73,-27.4 609.041,-26.5631"/>
<polygon fill="midnightblue" stroke="midnightblue" points="609.97,-23.1863 599.381,-23.5109 607.861,-29.8611 609.97,-23.1863"/>
</g>
<!-- Node21 -->
<g id="node22" class="node"><title>Node21</title>
<polygon fill="white" stroke="#bfbfbf" points="625.955,-5.5 625.955,-23.5 704.045,-23.5 704.045,-5.5 625.955,-5.5"/>
<text text-anchor="middle" x="665" y="-11.5" font-family="Helvetica,sans-Serif" font-size="10.00">boost/any.hpp</text>
</g>
<!-- Node18&#45;&gt;Node21 -->
<g id="edge24" class="edge"><title>Node18&#45;&gt;Node21</title>
<path fill="none" stroke="midnightblue" d="M767.271,-65.4464C744.771,-54.458 712.803,-38.8458 690.621,-28.0128"/>
<polygon fill="midnightblue" stroke="midnightblue" points="692.001,-24.7914 681.479,-23.548 688.929,-31.0814 692.001,-24.7914"/>
</g>
<!-- Node18&#45;&gt;Node22 -->
<g id="edge25" class="edge"><title>Node18&#45;&gt;Node22</title>
<path fill="none" stroke="midnightblue" d="M830.053,-65.4464C856.883,-55.7321 893.693,-42.4041 922.541,-31.9592"/>
<polygon fill="midnightblue" stroke="midnightblue" points="923.782,-35.2323 931.993,-28.5369 921.399,-28.6505 923.782,-35.2323"/>
</g>
<!-- Node18&#45;&gt;Node23 -->
<g id="edge26" class="edge"><title>Node18&#45;&gt;Node23</title>
<path fill="none" stroke="midnightblue" d="M723.871,-69.9708C621.335,-57.5002 432.253,-34.5037 335.875,-22.7821"/>
<polygon fill="midnightblue" stroke="midnightblue" points="336.067,-19.2798 325.718,-21.5468 335.222,-26.2286 336.067,-19.2798"/>
</g>
<!-- Node18&#45;&gt;Node24 -->
<g id="edge27" class="edge"><title>Node18&#45;&gt;Node24</title>
<path fill="none" stroke="midnightblue" d="M726.038,-65.4464C664.211,-53.5711 574.267,-36.2953 518.001,-25.4879"/>
<polygon fill="midnightblue" stroke="midnightblue" points="518.381,-21.9972 507.901,-23.548 517.061,-28.8715 518.381,-21.9972"/>
</g>
<!-- Node25 -->
<g id="node26" class="node"><title>Node25</title>
<polygon fill="white" stroke="#bfbfbf" points="722.195,-0.5 722.195,-28.5 823.805,-28.5 823.805,-0.5 722.195,-0.5"/>
<text text-anchor="start" x="730.195" y="-16.5" font-family="Helvetica,sans-Serif" font-size="10.00">boost/ptr_container</text>
<text text-anchor="middle" x="773" y="-6.5" font-family="Helvetica,sans-Serif" font-size="10.00">/ptr_vector.hpp</text>
</g>
<!-- Node18&#45;&gt;Node25 -->
<g id="edge28" class="edge"><title>Node18&#45;&gt;Node25</title>
<path fill="none" stroke="midnightblue" d="M789.649,-65.4464C787.03,-57.5905 783.624,-47.3713 780.575,-38.2247"/>
<polygon fill="midnightblue" stroke="midnightblue" points="783.828,-36.9169 777.346,-28.5369 777.188,-39.1306 783.828,-36.9169"/>
</g>
<!-- Node28&#45;&gt;Node7 -->
<g id="edge35" class="edge"><title>Node28&#45;&gt;Node7</title>
<path fill="none" stroke="midnightblue" d="M583.169,-132.583C593.136,-131.678 603.353,-130.784 613,-130 843.902,-111.226 903.208,-123.396 1133,-94 1140.72,-93.0128 1148.86,-91.7266 1156.78,-90.3406"/>
<polygon fill="midnightblue" stroke="midnightblue" points="1157.43,-93.7792 1166.64,-88.5466 1156.18,-86.8921 1157.43,-93.7792"/>
</g>
<!-- Node28&#45;&gt;Node10 -->
<g id="edge41" class="edge"><title>Node28&#45;&gt;Node10</title>
<path fill="none" stroke="midnightblue" d="M583.16,-132.458C593.128,-131.568 603.347,-130.712 613,-130 907.743,-108.253 989.404,-162.08 1277,-94 1278.93,-93.5436 1280.89,-92.973 1282.83,-92.326"/>
<polygon fill="midnightblue" stroke="midnightblue" points="1284.25,-95.5322 1292.29,-88.6324 1281.7,-89.0123 1284.25,-95.5322"/>
</g>
<!-- Node28&#45;&gt;Node11 -->
<g id="edge44" class="edge"><title>Node28&#45;&gt;Node11</title>
<path fill="none" stroke="midnightblue" d="M582.931,-132.374C668.381,-123.509 819.37,-106.768 873,-94 875.654,-93.3681 878.381,-92.6158 881.096,-91.7943"/>
<polygon fill="midnightblue" stroke="midnightblue" points="882.337,-95.0704 890.733,-88.6082 880.14,-88.4243 882.337,-95.0704"/>
</g>
<!-- Node28&#45;&gt;Node20 -->
<g id="edge42" class="edge"><title>Node28&#45;&gt;Node20</title>
<path fill="none" stroke="midnightblue" d="M519.781,-130.346C516.407,-116.306 511.339,-86.9609 521,-65 527.448,-50.3429 540.615,-38.1297 552.333,-29.5019"/>
<polygon fill="midnightblue" stroke="midnightblue" points="554.623,-32.1748 560.876,-23.6219 550.654,-26.4086 554.623,-32.1748"/>
</g>
<!-- Node28&#45;&gt;Node23 -->
<g id="edge38" class="edge"><title>Node28&#45;&gt;Node23</title>
<path fill="none" stroke="midnightblue" d="M463.772,-130.498C380.451,-118.912 236.749,-98.3709 233,-94 217.909,-76.408 235.001,-52.6672 251.896,-35.9146"/>
<polygon fill="midnightblue" stroke="midnightblue" points="254.629,-38.1502 259.529,-28.7564 249.84,-33.0443 254.629,-38.1502"/>
</g>
<!-- Node28&#45;&gt;Node24 -->
<g id="edge37" class="edge"><title>Node28&#45;&gt;Node24</title>
<path fill="none" stroke="midnightblue" d="M518.326,-130.43C509.389,-110.802 486.351,-60.2003 474.039,-33.1577"/>
<polygon fill="midnightblue" stroke="midnightblue" points="477.09,-31.4122 469.761,-23.7614 470.72,-34.3128 477.09,-31.4122"/>
</g>
<!-- Node28&#45;&gt;Node27 -->
<g id="edge39" class="edge"><title>Node28&#45;&gt;Node27</title>
<path fill="none" stroke="midnightblue" d="M530.065,-130.435C537.605,-122.895 549.189,-111.311 559.302,-101.198"/>
<polygon fill="midnightblue" stroke="midnightblue" points="562.061,-103.389 566.657,-93.8428 557.111,-98.439 562.061,-103.389"/>
</g>
<!-- Node28&#45;&gt;Node29 -->
<g id="edge36" class="edge"><title>Node28&#45;&gt;Node29</title>
<path fill="none" stroke="midnightblue" d="M461.052,-130.873C396.211,-122.572 290.69,-108.532 200,-94 192.908,-92.8636 185.447,-91.5923 178.104,-90.2966"/>
<polygon fill="midnightblue" stroke="midnightblue" points="178.67,-86.8423 168.209,-88.525 177.436,-93.7327 178.67,-86.8423"/>
</g>
<!-- Node30 -->
<g id="node31" class="node"><title>Node30</title>
<polygon fill="white" stroke="#bfbfbf" points="242.461,-65.5 242.461,-93.5 373.539,-93.5 373.539,-65.5 242.461,-65.5"/>
<text text-anchor="start" x="250.461" y="-81.5" font-family="Helvetica,sans-Serif" font-size="10.00">boost/type_traits/has</text>
<text text-anchor="middle" x="308" y="-71.5" font-family="Helvetica,sans-Serif" font-size="10.00">_nothrow_constructor.hpp</text>
</g>
<!-- Node28&#45;&gt;Node30 -->
<g id="edge40" class="edge"><title>Node28&#45;&gt;Node30</title>
<path fill="none" stroke="midnightblue" d="M492.244,-130.435C459.672,-121.607 406.651,-107.237 365.831,-96.1738"/>
<polygon fill="midnightblue" stroke="midnightblue" points="366.568,-92.7474 356.001,-93.5096 364.737,-99.5037 366.568,-92.7474"/>
</g>
<!-- Node31 -->
<g id="node32" class="node"><title>Node31</title>
<polygon fill="white" stroke="#bfbfbf" points="391.828,-70.5 391.828,-88.5 436.172,-88.5 436.172,-70.5 391.828,-70.5"/>
<text text-anchor="middle" x="414" y="-76.5" font-family="Helvetica,sans-Serif" font-size="10.00">iosfwd</text>
</g>
<!-- Node28&#45;&gt;Node31 -->
<g id="edge43" class="edge"><title>Node28&#45;&gt;Node31</title>
<path fill="none" stroke="midnightblue" d="M506.983,-130.435C489.19,-120.88 459.307,-104.832 438.228,-93.5113"/>
<polygon fill="midnightblue" stroke="midnightblue" points="439.703,-90.331 429.238,-88.6831 436.392,-96.4979 439.703,-90.331"/>
</g>
<!-- Node33&#45;&gt;Node13 -->
<g id="edge51" class="edge"><title>Node33&#45;&gt;Node13</title>
<path fill="none" stroke="midnightblue" d="M843.417,-190.435C843.833,-182.389 844.488,-169.739 845.034,-159.185"/>
<polygon fill="midnightblue" stroke="midnightblue" points="848.546,-159.039 845.567,-148.872 841.555,-158.678 848.546,-159.039"/>
</g>
<!-- Node34&#45;&gt;Node2 -->
<g id="edge54" class="edge"><title>Node34&#45;&gt;Node2</title>
<path fill="none" stroke="midnightblue" d="M694.208,-490.427C718.184,-483.925 747.952,-472.694 769,-454 825.041,-404.225 795.535,-358.531 848,-305 861.634,-291.089 880.55,-280.298 896.566,-272.828"/>
<polygon fill="midnightblue" stroke="midnightblue" points="898.365,-275.859 906.09,-268.608 895.529,-269.459 898.365,-275.859"/>
</g>
<!-- Node34&#45;&gt;Node16 -->
<g id="edge53" class="edge"><title>Node34&#45;&gt;Node16</title>
<path fill="none" stroke="midnightblue" d="M594.145,-494.671C531.299,-489.435 438.04,-477.827 412,-454 388.691,-432.672 393,-417.094 393,-385.5 393,-385.5 393,-385.5 393,-318.5 393,-257.591 466.935,-225.95 518.416,-211.301"/>
<polygon fill="midnightblue" stroke="midnightblue" points="519.651,-214.592 528.384,-208.594 517.816,-207.837 519.651,-214.592"/>
</g>
<!-- Node34&#45;&gt;Node23 -->
<g id="edge60" class="edge"><title>Node34&#45;&gt;Node23</title>
<path fill="none" stroke="midnightblue" d="M593.933,-495.692C479.425,-489.924 234,-475.455 152,-454 80.3144,-435.244 0,-459.599 0,-385.5 0,-385.5 0,-385.5 0,-138.5 0,-102.319 6.51666,-87.3111 35,-65 62.6322,-43.3556 154.115,-29.1006 216.076,-21.668"/>
<polygon fill="midnightblue" stroke="midnightblue" points="216.608,-25.1296 226.133,-20.49 215.794,-18.1771 216.608,-25.1296"/>
</g>
<!-- Node34&#45;&gt;Node24 -->
<g id="edge59" class="edge"><title>Node34&#45;&gt;Node24</title>
<path fill="none" stroke="midnightblue" d="M594.095,-493.779C439.298,-480.78 38,-441.665 38,-385.5 38,-385.5 38,-385.5 38,-138.5 38,-104.76 31.6145,-87.226 57,-65 63.3256,-59.4617 281.106,-35.3443 396.231,-22.9358"/>
<polygon fill="midnightblue" stroke="midnightblue" points="396.798,-26.3951 406.366,-21.8451 396.049,-19.4353 396.798,-26.3951"/>
</g>
<!-- Node35 -->
<g id="node36" class="node"><title>Node35</title>
<g id="a_node36"><a xlink:href="../../df/d55/FunctionInterfaceMapping_8h.html" target="_top" xlink:title="Declaration file of the FunctionInterfaceMapping struct. ">
<polygon fill="white" stroke="black" points="856.636,-305.5 856.636,-333.5 999.364,-333.5 999.364,-305.5 856.636,-305.5"/>
<text text-anchor="start" x="864.636" y="-321.5" font-family="Helvetica,sans-Serif" font-size="10.00">ocra/optim/FunctionInterface</text>
<text text-anchor="middle" x="928" y="-311.5" font-family="Helvetica,sans-Serif" font-size="10.00">Mapping.h</text>
</a>
</g>
</g>
<!-- Node34&#45;&gt;Node35 -->
<g id="edge55" class="edge"><title>Node34&#45;&gt;Node35</title>
<path fill="none" stroke="midnightblue" d="M713.707,-495.974C753.49,-491.684 805.21,-480.838 843,-454 882.477,-425.964 907.882,-373.267 919.882,-343.146"/>
<polygon fill="midnightblue" stroke="midnightblue" points="923.264,-344.101 923.569,-333.51 916.726,-341.599 923.264,-344.101"/>
</g>
<!-- Node36 -->
<g id="node37" class="node"><title>Node36</title>
<g id="a_node37"><a xlink:href="../../df/d0a/Macros_8h.html" target="_top" xlink:title="ocra/util/Macros.h">
<polygon fill="white" stroke="black" points="270.542,-250.5 270.542,-268.5 365.458,-268.5 365.458,-250.5 270.542,-250.5"/>
<text text-anchor="middle" x="318" y="-256.5" font-family="Helvetica,sans-Serif" font-size="10.00">ocra/util/Macros.h</text>
</a>
</g>
</g>
<!-- Node34&#45;&gt;Node36 -->
<g id="edge57" class="edge"><title>Node34&#45;&gt;Node36</title>
<path fill="none" stroke="midnightblue" d="M594.148,-496.021C523.129,-491.878 410.372,-481.125 379,-454 326.359,-408.486 318.638,-317.979 317.856,-279.03"/>
<polygon fill="midnightblue" stroke="midnightblue" points="321.354,-278.684 317.794,-268.705 314.354,-278.726 321.354,-278.684"/>
</g>
<!-- Node38 -->
<g id="node39" class="node"><title>Node38</title>
<g id="a_node39"><a xlink:href="../../dc/d8a/LinearFunction_8h.html" target="_top" xlink:title="Declaration file of the LinearFunction class. ">
<polygon fill="white" stroke="black" points="623.022,-310.5 623.022,-328.5 762.978,-328.5 762.978,-310.5 623.022,-310.5"/>
<text text-anchor="middle" x="693" y="-316.5" font-family="Helvetica,sans-Serif" font-size="10.00">ocra/optim/LinearFunction.h</text>
</a>
</g>
</g>
<!-- Node34&#45;&gt;Node38 -->
<g id="edge61" class="edge"><title>Node34&#45;&gt;Node38</title>
<path fill="none" stroke="midnightblue" d="M694.331,-490.43C714.653,-484.122 737.565,-473.085 750,-454 770.382,-422.718 766.637,-403.904 751,-370 743.995,-354.813 729.779,-342.56 717.175,-334.044"/>
<polygon fill="midnightblue" stroke="midnightblue" points="718.733,-330.889 708.408,-328.515 714.999,-336.81 718.733,-330.889"/>
</g>
<!-- Node39 -->
<g id="node40" class="node"><title>Node39</title>
<g id="a_node40"><a xlink:href="../../de/d69/BoundFunction_8h.html" target="_top" xlink:title="Declaration file of the BoundFunction class. ">
<polygon fill="white" stroke="black" points="583.463,-435.5 583.463,-453.5 724.537,-453.5 724.537,-435.5 583.463,-435.5"/>
<text text-anchor="middle" x="654" y="-441.5" font-family="Helvetica,sans-Serif" font-size="10.00">ocra/optim/BoundFunction.h</text>
</a>
</g>
</g>
<!-- Node34&#45;&gt;Node39 -->
<g id="edge64" class="edge"><title>Node34&#45;&gt;Node39</title>
<path fill="none" stroke="midnightblue" d="M654,-490.219C654,-483.177 654,-472.808 654,-463.828"/>
<polygon fill="midnightblue" stroke="midnightblue" points="657.5,-463.55 654,-453.55 650.5,-463.55 657.5,-463.55"/>
</g>
<!-- Node40 -->
<g id="node41" class="node"><title>Node40</title>
<g id="a_node41"><a xlink:href="../../dc/d6f/DiagonalLinearFunction_8h.html" target="_top" xlink:title="Declaration file of the DiagonalLinearFunction class. ">
<polygon fill="white" stroke="black" points="609.633,-370.5 609.633,-398.5 742.367,-398.5 742.367,-370.5 609.633,-370.5"/>
<text text-anchor="start" x="617.633" y="-386.5" font-family="Helvetica,sans-Serif" font-size="10.00">ocra/optim/DiagonalLinear</text>
<text text-anchor="middle" x="676" y="-376.5" font-family="Helvetica,sans-Serif" font-size="10.00">Function.h</text>
</a>
</g>
</g>
<!-- Node34&#45;&gt;Node40 -->
<g id="edge69" class="edge"><title>Node34&#45;&gt;Node40</title>
<path fill="none" stroke="midnightblue" d="M683.433,-490.469C701.472,-483.858 723.124,-472.495 734,-454 744.823,-435.595 727.446,-417.269 708.955,-404.21"/>
<polygon fill="midnightblue" stroke="midnightblue" points="710.749,-401.2 700.478,-398.599 706.885,-407.037 710.749,-401.2"/>
</g>
<!-- Node41 -->
<g id="node42" class="node"><title>Node41</title>
<g id="a_node42"><a xlink:href="../../de/d7a/IdentityFunction_8h.html" target="_top" xlink:title="Declaration file of the IdentityFunction class. ">
<polygon fill="white" stroke="black" points="420.801,-435.5 420.801,-453.5 565.199,-453.5 565.199,-435.5 420.801,-435.5"/>
<text text-anchor="middle" x="493" y="-441.5" font-family="Helvetica,sans-Serif" font-size="10.00">ocra/optim/IdentityFunction.h</text>
</a>
</g>
</g>
<!-- Node34&#45;&gt;Node41 -->
<g id="edge67" class="edge"><title>Node34&#45;&gt;Node41</title>
<path fill="none" stroke="midnightblue" d="M629.548,-490.45C602.281,-481.475 557.984,-466.892 527.269,-456.781"/>
<polygon fill="midnightblue" stroke="midnightblue" points="528.011,-453.341 517.418,-453.538 525.822,-459.99 528.011,-453.341"/>
</g>
<!-- Node35&#45;&gt;Node2 -->
<g id="edge56" class="edge"><title>Node35&#45;&gt;Node2</title>
<path fill="none" stroke="midnightblue" d="M928,-305.339C928,-297.531 928,-287.512 928,-278.927"/>
<polygon fill="midnightblue" stroke="midnightblue" points="931.5,-278.771 928,-268.771 924.5,-278.772 931.5,-278.771"/>
</g>
<!-- Node37 -->
<g id="node38" class="node"><title>Node37</title>
<polygon fill="white" stroke="#bfbfbf" points="291.943,-190.5 291.943,-208.5 344.057,-208.5 344.057,-190.5 291.943,-190.5"/>
<text text-anchor="middle" x="318" y="-196.5" font-family="Helvetica,sans-Serif" font-size="10.00">memory</text>
</g>
<!-- Node36&#45;&gt;Node37 -->
<g id="edge58" class="edge"><title>Node36&#45;&gt;Node37</title>
<path fill="none" stroke="midnightblue" d="M318,-250.435C318,-242.389 318,-229.739 318,-219.185"/>
<polygon fill="midnightblue" stroke="midnightblue" points="321.5,-218.872 318,-208.872 314.5,-218.872 321.5,-218.872"/>
</g>
<!-- Node38&#45;&gt;Node2 -->
<g id="edge62" class="edge"><title>Node38&#45;&gt;Node2</title>
<path fill="none" stroke="midnightblue" d="M725.676,-310.435C767.299,-300.162 839.331,-282.384 885.272,-271.046"/>
<polygon fill="midnightblue" stroke="midnightblue" points="886.354,-274.384 895.224,-268.589 884.676,-267.588 886.354,-274.384"/>
</g>
<!-- Node38&#45;&gt;Node36 -->
<g id="edge63" class="edge"><title>Node38&#45;&gt;Node36</title>
<path fill="none" stroke="midnightblue" d="M641.252,-310.496C571.736,-299.744 448.561,-280.693 375.992,-269.469"/>
<polygon fill="midnightblue" stroke="midnightblue" points="376.082,-265.942 365.664,-267.872 375.012,-272.86 376.082,-265.942"/>
</g>
<!-- Node39&#45;&gt;Node40 -->
<g id="edge65" class="edge"><title>Node39&#45;&gt;Node40</title>
<path fill="none" stroke="midnightblue" d="M657.059,-435.435C659.723,-428.412 663.717,-417.882 667.352,-408.299"/>
<polygon fill="midnightblue" stroke="midnightblue" points="670.665,-409.434 670.939,-398.843 664.12,-406.951 670.665,-409.434"/>
</g>
<!-- Node40&#45;&gt;Node38 -->
<g id="edge66" class="edge"><title>Node40&#45;&gt;Node38</title>
<path fill="none" stroke="midnightblue" d="M679.522,-370.446C682.008,-361.236 685.37,-348.776 688.114,-338.605"/>
<polygon fill="midnightblue" stroke="midnightblue" points="691.553,-339.297 690.779,-328.73 684.795,-337.473 691.553,-339.297"/>
</g>
<!-- Node41&#45;&gt;Node40 -->
<g id="edge68" class="edge"><title>Node41&#45;&gt;Node40</title>
<path fill="none" stroke="midnightblue" d="M518.445,-435.435C545.887,-426.738 590.301,-412.661 624.99,-401.667"/>
<polygon fill="midnightblue" stroke="midnightblue" points="626.477,-404.867 634.953,-398.51 624.362,-398.194 626.477,-404.867"/>
</g>
</g>
</svg>
