<?xml version="1.0" encoding="UTF-8" standalone="no"?>
<!DOCTYPE svg PUBLIC "-//W3C//DTD SVG 1.1//EN"
 "http://www.w3.org/Graphics/SVG/1.1/DTD/svg11.dtd">
<!-- Generated by graphviz version 2.38.0 (20140413.2041)
 -->
<!-- Title: ocra::NamedInstance Pages: 1 -->
<svg width="645pt" height="1248pt"
 viewBox="0.00 0.00 645.05 1248.00" xmlns="http://www.w3.org/2000/svg" xmlns:xlink="http://www.w3.org/1999/xlink">
<g id="graph0" class="graph" transform="scale(1 1) rotate(0) translate(4 1244)">
<title>ocra::NamedInstance</title>
<polygon fill="white" stroke="none" points="-4,4 -4,-1244 641.049,-1244 641.049,4 -4,4"/>
<!-- Node0 -->
<g id="node1" class="node"><title>Node0</title>
<polygon fill="#bfbfbf" stroke="black" points="0,-721.5 0,-739.5 111.049,-739.5 111.049,-721.5 0,-721.5"/>
<text text-anchor="middle" x="55.5244" y="-727.5" font-family="Helvetica,sans-Serif" font-size="10.00">ocra::NamedInstance</text>
</g>
<!-- Node1 -->
<g id="node2" class="node"><title>Node1</title>
<g id="a_node2"><a xlink:href="../../d5/d38/classocra_1_1ContactSet.html" target="_top" xlink:title="Contact task factory. ">
<polygon fill="white" stroke="black" points="152.876,-1184.5 152.876,-1202.5 243.359,-1202.5 243.359,-1184.5 152.876,-1184.5"/>
<text text-anchor="middle" x="198.118" y="-1190.5" font-family="Helvetica,sans-Serif" font-size="10.00">ocra::ContactSet</text>
</a>
</g>
</g>
<!-- Node0&#45;&gt;Node1 -->
<g id="edge1" class="edge"><title>Node0&#45;&gt;Node1</title>
<path fill="none" stroke="midnightblue" d="M57.969,-749.826C64.0777,-826.688 90.1374,-1109.71 147.049,-1175.5 150.191,-1179.13 154.123,-1182.03 158.394,-1184.35"/>
<polygon fill="midnightblue" stroke="midnightblue" points="61.4448,-749.377 57.1845,-739.676 54.4656,-749.916 61.4448,-749.377"/>
</g>
<!-- Node2 -->
<g id="node3" class="node"><title>Node2</title>
<g id="a_node3"><a xlink:href="../../db/d33/classocra_1_1ControlFrame.html" target="_top" xlink:title="Generic representation of a frame: gives access to its position, velocity, jacobian... ">
<polygon fill="white" stroke="black" points="147.049,-1147.5 147.049,-1165.5 249.187,-1165.5 249.187,-1147.5 147.049,-1147.5"/>
<text text-anchor="middle" x="198.118" y="-1153.5" font-family="Helvetica,sans-Serif" font-size="10.00">ocra::ControlFrame</text>
</a>
</g>
</g>
<!-- Node0&#45;&gt;Node2 -->
<g id="edge2" class="edge"><title>Node0&#45;&gt;Node2</title>
<path fill="none" stroke="midnightblue" d="M59.115,-749.823C66.9,-804.209 92.9599,-962.441 147.049,-1082.5 158.39,-1107.67 178.166,-1133.62 189.164,-1147.09"/>
<polygon fill="midnightblue" stroke="midnightblue" points="62.5355,-749.008 57.6927,-739.584 55.6021,-749.971 62.5355,-749.008"/>
</g>
<!-- Node6 -->
<g id="node7" class="node"><title>Node6</title>
<g id="a_node7"><a xlink:href="../../d8/d92/classocra_1_1Controller.html" target="_top" xlink:title="Interface for controllers. ">
<polygon fill="white" stroke="black" points="155.938,-1054.5 155.938,-1072.5 240.297,-1072.5 240.297,-1054.5 155.938,-1054.5"/>
<text text-anchor="middle" x="198.118" y="-1060.5" font-family="Helvetica,sans-Serif" font-size="10.00">ocra::Controller</text>
</a>
</g>
</g>
<!-- Node0&#45;&gt;Node6 -->
<g id="edge6" class="edge"><title>Node0&#45;&gt;Node6</title>
<path fill="none" stroke="midnightblue" d="M64.3752,-749.095C90.5681,-811.134 174.371,-1009.62 193.296,-1054.45"/>
<polygon fill="midnightblue" stroke="midnightblue" points="67.5454,-747.605 60.4314,-739.754 61.0966,-750.328 67.5454,-747.605"/>
</g>
<!-- Node10 -->
<g id="node11" class="node"><title>Node10</title>
<g id="a_node11"><a xlink:href="../../d6/d87/classocra_1_1Feature.html" target="_top" xlink:title="Feature interface, used by tasks to compute errors and jacobians. ">
<polygon fill="white" stroke="black" points="160.381,-869.5 160.381,-887.5 235.854,-887.5 235.854,-869.5 160.381,-869.5"/>
<text text-anchor="middle" x="198.118" y="-875.5" font-family="Helvetica,sans-Serif" font-size="10.00">ocra::Feature</text>
</a>
</g>
</g>
<!-- Node0&#45;&gt;Node10 -->
<g id="edge10" class="edge"><title>Node0&#45;&gt;Node10</title>
<path fill="none" stroke="midnightblue" d="M72.4347,-747.248C102.147,-778.526 165.153,-844.851 188.326,-869.245"/>
<polygon fill="midnightblue" stroke="midnightblue" points="74.7441,-744.598 65.3192,-739.758 69.6689,-749.419 74.7441,-744.598"/>
</g>
<!-- Node18 -->
<g id="node19" class="node"><title>Node18</title>
<g id="a_node19"><a xlink:href="../../d2/d99/classocra_1_1FullState.html" target="_top" xlink:title="ocra::FullState">
<polygon fill="white" stroke="black" points="157.881,-721.5 157.881,-739.5 238.354,-739.5 238.354,-721.5 157.881,-721.5"/>
<text text-anchor="middle" x="198.118" y="-727.5" font-family="Helvetica,sans-Serif" font-size="10.00">ocra::FullState</text>
</a>
</g>
</g>
<!-- Node0&#45;&gt;Node18 -->
<g id="edge18" class="edge"><title>Node0&#45;&gt;Node18</title>
<path fill="none" stroke="midnightblue" d="M121.521,-730.5C133.809,-730.5 146.313,-730.5 157.522,-730.5"/>
<polygon fill="midnightblue" stroke="midnightblue" points="121.284,-727 111.284,-730.5 121.284,-734 121.284,-727"/>
</g>
<!-- Node21 -->
<g id="node22" class="node"><title>Node21</title>
<g id="a_node22"><a xlink:href="../../d2/d99/classocra_1_1Function.html" target="_top" xlink:title="Function class. ">
<polygon fill="white" stroke="black" points="158.436,-500.5 158.436,-518.5 237.8,-518.5 237.8,-500.5 158.436,-500.5"/>
<text text-anchor="middle" x="198.118" y="-506.5" font-family="Helvetica,sans-Serif" font-size="10.00">ocra::Function</text>
</a>
</g>
</g>
<!-- Node0&#45;&gt;Node21 -->
<g id="edge21" class="edge"><title>Node0&#45;&gt;Node21</title>
<path fill="none" stroke="midnightblue" d="M67.8815,-712.648C96.3288,-667.931 169.886,-552.305 191.231,-518.754"/>
<polygon fill="midnightblue" stroke="midnightblue" points="64.8011,-710.969 62.3865,-721.285 70.7072,-714.727 64.8011,-710.969"/>
</g>
<!-- Node54 -->
<g id="node39" class="node"><title>Node54</title>
<g id="a_node39"><a xlink:href="../../d0/d45/classocra_1_1PartialState.html" target="_top" xlink:title="A abstract partial state. ">
<polygon fill="white" stroke="black" points="151.766,-259.5 151.766,-277.5 244.47,-277.5 244.47,-259.5 151.766,-259.5"/>
<text text-anchor="middle" x="198.118" y="-265.5" font-family="Helvetica,sans-Serif" font-size="10.00">ocra::PartialState</text>
</a>
</g>
</g>
<!-- Node0&#45;&gt;Node54 -->
<g id="edge38" class="edge"><title>Node0&#45;&gt;Node54</title>
<path fill="none" stroke="midnightblue" d="M62.3805,-711.256C86.4284,-632.233 177.131,-334.178 194.303,-277.751"/>
<polygon fill="midnightblue" stroke="midnightblue" points="58.8958,-710.686 59.3328,-721.271 65.5926,-712.724 58.8958,-710.686"/>
</g>
<!-- Node57 -->
<g id="node42" class="node"><title>Node57</title>
<g id="a_node42"><a xlink:href="../../d6/dd3/classocra_1_1Solver.html" target="_top" xlink:title="Solver class. ">
<polygon fill="white" stroke="black" points="163.44,-130.5 163.44,-148.5 232.795,-148.5 232.795,-130.5 163.44,-130.5"/>
<text text-anchor="middle" x="198.118" y="-136.5" font-family="Helvetica,sans-Serif" font-size="10.00">ocra::Solver</text>
</a>
</g>
</g>
<!-- Node0&#45;&gt;Node57 -->
<g id="edge41" class="edge"><title>Node0&#45;&gt;Node57</title>
<path fill="none" stroke="midnightblue" d="M58.4494,-711.354C65.4008,-645.703 91.7685,-424.125 147.049,-249.5 159.397,-210.492 181.984,-167.087 192.047,-148.616"/>
<polygon fill="midnightblue" stroke="midnightblue" points="54.9527,-711.142 57.4052,-721.449 61.9156,-711.862 54.9527,-711.142"/>
</g>
<!-- Node68 -->
<g id="node48" class="node"><title>Node68</title>
<g id="a_node48"><a xlink:href="../../d9/d84/classocra_1_1Task.html" target="_top" xlink:title="ocra::Task">
<polygon fill="white" stroke="black" points="167.332,-38.5 167.332,-56.5 228.903,-56.5 228.903,-38.5 167.332,-38.5"/>
<text text-anchor="middle" x="198.118" y="-44.5" font-family="Helvetica,sans-Serif" font-size="10.00">ocra::Task</text>
</a>
</g>
</g>
<!-- Node0&#45;&gt;Node68 -->
<g id="edge47" class="edge"><title>Node0&#45;&gt;Node68</title>
<path fill="none" stroke="midnightblue" d="M56.2838,-710.918C55.9677,-633.183 60.8645,-339.929 147.049,-120.5 157.049,-95.0382 177.349,-69.6917 188.791,-56.6099"/>
<polygon fill="midnightblue" stroke="midnightblue" points="52.7856,-711.175 56.3634,-721.147 59.7854,-711.12 52.7856,-711.175"/>
</g>
<!-- Node3 -->
<g id="node4" class="node"><title>Node3</title>
<g id="a_node4"><a xlink:href="../../d9/d52/classocra_1_1CoMFrame.html" target="_top" xlink:title="Creates a frame whose center is at the CoM of the model and whose axes are parallel to the axes of th...">
<polygon fill="white" stroke="black" points="317.435,-1221.5 317.435,-1239.5 408.45,-1239.5 408.45,-1221.5 317.435,-1221.5"/>
<text text-anchor="middle" x="362.942" y="-1227.5" font-family="Helvetica,sans-Serif" font-size="10.00">ocra::CoMFrame</text>
</a>
</g>
</g>
<!-- Node2&#45;&gt;Node3 -->
<g id="edge3" class="edge"><title>Node2&#45;&gt;Node3</title>
<path fill="none" stroke="midnightblue" d="M238.572,-1169.56C242.27,-1171.35 245.871,-1173.32 249.187,-1175.5 268.367,-1188.09 265.216,-1201.2 285.187,-1212.5 294.956,-1218.03 306.342,-1221.86 317.306,-1224.51"/>
<polygon fill="midnightblue" stroke="midnightblue" points="239.848,-1166.3 229.282,-1165.51 237.052,-1172.71 239.848,-1166.3"/>
</g>
<!-- Node4 -->
<g id="node5" class="node"><title>Node4</title>
<g id="a_node5"><a xlink:href="../../d1/d45/classocra_1_1SegmentFrame.html" target="_top" xlink:title="A frame attached to a segment of a model. ">
<polygon fill="white" stroke="black" points="307.979,-1184.5 307.979,-1202.5 417.905,-1202.5 417.905,-1184.5 307.979,-1184.5"/>
<text text-anchor="middle" x="362.942" y="-1190.5" font-family="Helvetica,sans-Serif" font-size="10.00">ocra::SegmentFrame</text>
</a>
</g>
</g>
<!-- Node2&#45;&gt;Node4 -->
<g id="edge4" class="edge"><title>Node2&#45;&gt;Node4</title>
<path fill="none" stroke="midnightblue" d="M248.762,-1167.78C272.326,-1173.14 300.102,-1179.45 322.24,-1184.48"/>
<polygon fill="midnightblue" stroke="midnightblue" points="249.476,-1164.35 238.949,-1165.55 247.925,-1171.18 249.476,-1164.35"/>
</g>
<!-- Node5 -->
<g id="node6" class="node"><title>Node5</title>
<g id="a_node6"><a xlink:href="../../da/dbb/classocra_1_1TargetFrame.html" target="_top" xlink:title="Represents a &#39;target&#39;, i.e. something that does not depend on a model but must match with another fra...">
<polygon fill="white" stroke="black" points="314.095,-1147.5 314.095,-1165.5 411.79,-1165.5 411.79,-1147.5 314.095,-1147.5"/>
<text text-anchor="middle" x="362.942" y="-1153.5" font-family="Helvetica,sans-Serif" font-size="10.00">ocra::TargetFrame</text>
</a>
</g>
</g>
<!-- Node2&#45;&gt;Node5 -->
<g id="edge5" class="edge"><title>Node2&#45;&gt;Node5</title>
<path fill="none" stroke="midnightblue" d="M259.39,-1156.5C277.358,-1156.5 296.801,-1156.5 313.878,-1156.5"/>
<polygon fill="midnightblue" stroke="midnightblue" points="259.299,-1153 249.299,-1156.5 259.299,-1160 259.299,-1153"/>
</g>
<!-- Node7 -->
<g id="node8" class="node"><title>Node7</title>
<g id="a_node8"><a xlink:href="../../d6/dbf/classgocra_1_1GHCJTController.html" target="_top" xlink:title="gOcra Controller based on LQP solver for the ocra framework. ">
<polygon fill="white" stroke="black" points="301.317,-1110.5 301.317,-1128.5 424.568,-1128.5 424.568,-1110.5 301.317,-1110.5"/>
<text text-anchor="middle" x="362.942" y="-1116.5" font-family="Helvetica,sans-Serif" font-size="10.00">gocra::GHCJTController</text>
</a>
</g>
</g>
<!-- Node6&#45;&gt;Node7 -->
<g id="edge7" class="edge"><title>Node6&#45;&gt;Node7</title>
<path fill="none" stroke="midnightblue" d="M226.034,-1076.93C242.752,-1084.88 264.858,-1094.69 285.187,-1101.5 295.31,-1104.89 306.39,-1107.88 316.904,-1110.41"/>
<polygon fill="midnightblue" stroke="midnightblue" points="227.394,-1073.7 216.867,-1072.5 224.349,-1080 227.394,-1073.7"/>
</g>
<!-- Node8 -->
<g id="node9" class="node"><title>Node8</title>
<g id="a_node9"><a xlink:href="../../d1/d6a/classhocra_1_1HocraController.html" target="_top" xlink:title="Hocra Controller based on LQP solver for the ocra framework. ">
<polygon fill="white" stroke="black" points="304.645,-1073.5 304.645,-1091.5 421.24,-1091.5 421.24,-1073.5 304.645,-1073.5"/>
<text text-anchor="middle" x="362.942" y="-1079.5" font-family="Helvetica,sans-Serif" font-size="10.00">hocra::HocraController</text>
</a>
</g>
</g>
<!-- Node6&#45;&gt;Node8 -->
<g id="edge8" class="edge"><title>Node6&#45;&gt;Node8</title>
<path fill="none" stroke="midnightblue" d="M250.958,-1069.55C268.02,-1071.54 287.087,-1073.77 304.538,-1075.8"/>
<polygon fill="midnightblue" stroke="midnightblue" points="250.965,-1066.03 240.627,-1068.34 250.153,-1072.98 250.965,-1066.03"/>
</g>
<!-- Node9 -->
<g id="node10" class="node"><title>Node9</title>
<g id="a_node10"><a xlink:href="../../db/d14/classwocra_1_1WocraController.html" target="_top" xlink:title="Wocra Controller based on LQP solver for the ocra framework. ">
<polygon fill="white" stroke="black" points="302.794,-1036.5 302.794,-1054.5 423.091,-1054.5 423.091,-1036.5 302.794,-1036.5"/>
<text text-anchor="middle" x="362.942" y="-1042.5" font-family="Helvetica,sans-Serif" font-size="10.00">wocra::WocraController</text>
</a>
</g>
</g>
<!-- Node6&#45;&gt;Node9 -->
<g id="edge9" class="edge"><title>Node6&#45;&gt;Node9</title>
<path fill="none" stroke="midnightblue" d="M250.649,-1057.8C267.19,-1055.97 285.642,-1053.93 302.691,-1052.05"/>
<polygon fill="midnightblue" stroke="midnightblue" points="250.181,-1054.33 240.627,-1058.91 250.951,-1061.29 250.181,-1054.33"/>
</g>
<!-- Node11 -->
<g id="node12" class="node"><title>Node11</title>
<g id="a_node12"><a xlink:href="../../d3/dd9/classocra_1_1ContactConstraintFeature.html" target="_top" xlink:title="Used to build contact constraint tasks (null acceleration). ">
<polygon fill="white" stroke="black" points="285.187,-999.5 285.187,-1017.5 440.698,-1017.5 440.698,-999.5 285.187,-999.5"/>
<text text-anchor="middle" x="362.942" y="-1005.5" font-family="Helvetica,sans-Serif" font-size="10.00">ocra::ContactConstraintFeature</text>
</a>
</g>
</g>
<!-- Node10&#45;&gt;Node11 -->
<g id="edge11" class="edge"><title>Node10&#45;&gt;Node11</title>
<path fill="none" stroke="midnightblue" d="M208.107,-896.962C221.366,-922.165 248.602,-966.897 285.187,-990.5 290.937,-994.21 297.369,-997.158 303.998,-999.499"/>
<polygon fill="midnightblue" stroke="midnightblue" points="211.084,-895.094 203.435,-887.763 204.843,-898.264 211.084,-895.094"/>
</g>
<!-- Node12 -->
<g id="node13" class="node"><title>Node12</title>
<g id="a_node13"><a xlink:href="../../dd/dda/classocra_1_1DisplacementFeature.html" target="_top" xlink:title="Used to build position/orientation tasks. ">
<polygon fill="white" stroke="black" points="294.916,-962.5 294.916,-980.5 430.969,-980.5 430.969,-962.5 294.916,-962.5"/>
<text text-anchor="middle" x="362.942" y="-968.5" font-family="Helvetica,sans-Serif" font-size="10.00">ocra::DisplacementFeature</text>
</a>
</g>
</g>
<!-- Node10&#45;&gt;Node12 -->
<g id="edge12" class="edge"><title>Node10&#45;&gt;Node12</title>
<path fill="none" stroke="midnightblue" d="M213.727,-895.353C229.596,-912.576 256.538,-938.819 285.187,-953.5 292.373,-957.183 300.324,-960.124 308.306,-962.47"/>
<polygon fill="midnightblue" stroke="midnightblue" points="216.153,-892.815 206.868,-887.712 210.944,-897.492 216.153,-892.815"/>
</g>
<!-- Node13 -->
<g id="node14" class="node"><title>Node13</title>
<g id="a_node14"><a xlink:href="../../d4/d65/classocra_1_1FullStateFeature.html" target="_top" xlink:title="Used to build tasks in the manikin configuration space. ">
<polygon fill="white" stroke="black" points="305.475,-925.5 305.475,-943.5 420.41,-943.5 420.41,-925.5 305.475,-925.5"/>
<text text-anchor="middle" x="362.942" y="-931.5" font-family="Helvetica,sans-Serif" font-size="10.00">ocra::FullStateFeature</text>
</a>
</g>
</g>
<!-- Node10&#45;&gt;Node13 -->
<g id="edge13" class="edge"><title>Node10&#45;&gt;Node13</title>
<path fill="none" stroke="midnightblue" d="M226.034,-891.929C242.752,-899.879 264.858,-909.694 285.187,-916.5 295.31,-919.889 306.39,-922.884 316.904,-925.411"/>
<polygon fill="midnightblue" stroke="midnightblue" points="227.394,-888.699 216.867,-887.501 224.349,-895.002 227.394,-888.699"/>
</g>
<!-- Node14 -->
<g id="node15" class="node"><title>Node14</title>
<g id="a_node15"><a xlink:href="../../d0/d2e/classocra_1_1OrientationFeature.html" target="_top" xlink:title="Used to build orientation tasks. ">
<polygon fill="white" stroke="black" points="300.748,-888.5 300.748,-906.5 425.137,-906.5 425.137,-888.5 300.748,-888.5"/>
<text text-anchor="middle" x="362.942" y="-894.5" font-family="Helvetica,sans-Serif" font-size="10.00">ocra::OrientationFeature</text>
</a>
</g>
</g>
<!-- Node10&#45;&gt;Node14 -->
<g id="edge14" class="edge"><title>Node10&#45;&gt;Node14</title>
<path fill="none" stroke="midnightblue" d="M246.267,-884.002C263.21,-885.979 282.574,-888.239 300.55,-890.336"/>
<polygon fill="midnightblue" stroke="midnightblue" points="246.403,-880.494 236.065,-882.811 245.592,-887.447 246.403,-880.494"/>
</g>
<!-- Node15 -->
<g id="node16" class="node"><title>Node15</title>
<g id="a_node16"><a xlink:href="../../dc/daf/classocra_1_1PartialStateFeature.html" target="_top" xlink:title="Used to build tasks in a partial configuration space. ">
<polygon fill="white" stroke="black" points="299.359,-851.5 299.359,-869.5 426.526,-869.5 426.526,-851.5 299.359,-851.5"/>
<text text-anchor="middle" x="362.942" y="-857.5" font-family="Helvetica,sans-Serif" font-size="10.00">ocra::PartialStateFeature</text>
</a>
</g>
</g>
<!-- Node10&#45;&gt;Node15 -->
<g id="edge15" class="edge"><title>Node10&#45;&gt;Node15</title>
<path fill="none" stroke="midnightblue" d="M246.06,-873.311C262.649,-871.477 281.58,-869.384 299.265,-867.429"/>
<polygon fill="midnightblue" stroke="midnightblue" points="245.62,-869.838 236.065,-874.416 246.389,-876.795 245.62,-869.838"/>
</g>
<!-- Node16 -->
<g id="node17" class="node"><title>Node16</title>
<g id="a_node17"><a xlink:href="../../d4/d58/classocra_1_1PointContactFeature.html" target="_top" xlink:title="Used to build point contact tasks. ">
<polygon fill="white" stroke="black" points="296.578,-814.5 296.578,-832.5 429.307,-832.5 429.307,-814.5 296.578,-814.5"/>
<text text-anchor="middle" x="362.942" y="-820.5" font-family="Helvetica,sans-Serif" font-size="10.00">ocra::PointContactFeature</text>
</a>
</g>
</g>
<!-- Node10&#45;&gt;Node16 -->
<g id="edge16" class="edge"><title>Node10&#45;&gt;Node16</title>
<path fill="none" stroke="midnightblue" d="M227.429,-865.365C244.02,-857.996 265.519,-849.005 285.187,-842.5 296.526,-838.75 309.023,-835.354 320.581,-832.505"/>
<polygon fill="midnightblue" stroke="midnightblue" points="225.96,-862.188 218.279,-869.485 228.834,-868.571 225.96,-862.188"/>
</g>
<!-- Node17 -->
<g id="node18" class="node"><title>Node17</title>
<g id="a_node18"><a xlink:href="../../d7/d01/classocra_1_1PositionFeature.html" target="_top" xlink:title="Used to build positioning tasks. ">
<polygon fill="white" stroke="black" points="307.418,-777.5 307.418,-795.5 418.467,-795.5 418.467,-777.5 307.418,-777.5"/>
<text text-anchor="middle" x="362.942" y="-783.5" font-family="Helvetica,sans-Serif" font-size="10.00">ocra::PositionFeature</text>
</a>
</g>
</g>
<!-- Node10&#45;&gt;Node17 -->
<g id="edge17" class="edge"><title>Node10&#45;&gt;Node17</title>
<path fill="none" stroke="midnightblue" d="M214.11,-861.915C230.116,-845.216 257.007,-819.922 285.187,-805.5 293.252,-801.372 302.26,-798.11 311.19,-795.541"/>
<polygon fill="midnightblue" stroke="midnightblue" points="211.443,-859.642 207.169,-869.337 216.556,-864.423 211.443,-859.642"/>
</g>
<!-- Node19 -->
<g id="node20" class="node"><title>Node19</title>
<g id="a_node20"><a xlink:href="../../dd/d54/classocra_1_1FullModelState.html" target="_top" xlink:title="ocra::FullModelState">
<polygon fill="white" stroke="black" points="309.088,-740.5 309.088,-758.5 416.797,-758.5 416.797,-740.5 309.088,-740.5"/>
<text text-anchor="middle" x="362.942" y="-746.5" font-family="Helvetica,sans-Serif" font-size="10.00">ocra::FullModelState</text>
</a>
</g>
</g>
<!-- Node18&#45;&gt;Node19 -->
<g id="edge19" class="edge"><title>Node18&#45;&gt;Node19</title>
<path fill="none" stroke="midnightblue" d="M248.544,-736.268C267.672,-738.5 289.601,-741.059 309.046,-743.328"/>
<polygon fill="midnightblue" stroke="midnightblue" points="248.871,-732.782 238.533,-735.099 248.06,-739.735 248.871,-732.782"/>
</g>
<!-- Node20 -->
<g id="node21" class="node"><title>Node20</title>
<g id="a_node21"><a xlink:href="../../d5/de2/classocra_1_1FullTargetState.html" target="_top" xlink:title="ocra::FullTargetState">
<polygon fill="white" stroke="black" points="308.81,-703.5 308.81,-721.5 417.075,-721.5 417.075,-703.5 308.81,-703.5"/>
<text text-anchor="middle" x="362.942" y="-709.5" font-family="Helvetica,sans-Serif" font-size="10.00">ocra::FullTargetState</text>
</a>
</g>
</g>
<!-- Node18&#45;&gt;Node20 -->
<g id="edge20" class="edge"><title>Node18&#45;&gt;Node20</title>
<path fill="none" stroke="midnightblue" d="M248.498,-725.041C267.537,-722.936 289.356,-720.524 308.74,-718.381"/>
<polygon fill="midnightblue" stroke="midnightblue" points="248.088,-721.565 238.533,-726.143 248.857,-728.523 248.088,-721.565"/>
</g>
<!-- Node22 -->
<g id="node23" class="node"><title>Node22</title>
<g id="a_node23"><a xlink:href="../../d1/d44/classFunction1.html" target="_top" xlink:title="Function1">
<polygon fill="white" stroke="black" points="332.984,-666.5 332.984,-684.5 392.9,-684.5 392.9,-666.5 332.984,-666.5"/>
<text text-anchor="middle" x="362.942" y="-672.5" font-family="Helvetica,sans-Serif" font-size="10.00">Function1</text>
</a>
</g>
</g>
<!-- Node21&#45;&gt;Node22 -->
<g id="edge22" class="edge"><title>Node21&#45;&gt;Node22</title>
<path fill="none" stroke="midnightblue" d="M204.627,-528.318C214.948,-560.122 240.308,-624.28 285.187,-657.5 298.828,-667.598 317.263,-672.136 332.647,-674.132"/>
<polygon fill="midnightblue" stroke="midnightblue" points="207.896,-527.04 201.596,-518.521 201.208,-529.109 207.896,-527.04"/>
</g>
<!-- Node23 -->
<g id="node24" class="node"><title>Node23</title>
<g id="a_node24"><a xlink:href="../../d6/d7e/classFunction2.html" target="_top" xlink:title="Function2">
<polygon fill="white" stroke="black" points="332.984,-629.5 332.984,-647.5 392.9,-647.5 392.9,-629.5 332.984,-629.5"/>
<text text-anchor="middle" x="362.942" y="-635.5" font-family="Helvetica,sans-Serif" font-size="10.00">Function2</text>
</a>
</g>
</g>
<!-- Node21&#45;&gt;Node23 -->
<g id="edge23" class="edge"><title>Node21&#45;&gt;Node23</title>
<path fill="none" stroke="midnightblue" d="M208.15,-527.797C221.46,-552.775 248.756,-597.109 285.187,-620.5 299.353,-629.596 317.625,-634.107 332.788,-636.338"/>
<polygon fill="midnightblue" stroke="midnightblue" points="211.146,-525.97 203.458,-518.681 204.922,-529.174 211.146,-525.97"/>
</g>
<!-- Node24 -->
<g id="node25" class="node"><title>Node24</title>
<g id="a_node25"><a xlink:href="../../d9/d4a/classFunction3.html" target="_top" xlink:title="Function3">
<polygon fill="white" stroke="black" points="332.984,-592.5 332.984,-610.5 392.9,-610.5 392.9,-592.5 332.984,-592.5"/>
<text text-anchor="middle" x="362.942" y="-598.5" font-family="Helvetica,sans-Serif" font-size="10.00">Function3</text>
</a>
</g>
</g>
<!-- Node21&#45;&gt;Node24 -->
<g id="edge24" class="edge"><title>Node21&#45;&gt;Node24</title>
<path fill="none" stroke="midnightblue" d="M214.027,-526.392C229.966,-543.383 256.805,-569.074 285.187,-583.5 299.95,-591.004 317.905,-595.436 332.737,-598.023"/>
<polygon fill="midnightblue" stroke="midnightblue" points="216.45,-523.855 207.119,-518.837 211.284,-528.578 216.45,-523.855"/>
</g>
<!-- Node25 -->
<g id="node26" class="node"><title>Node25</title>
<g id="a_node26"><a xlink:href="../../db/d8c/classMyFunction.html" target="_top" xlink:title="MyFunction">
<polygon fill="white" stroke="black" points="329.1,-555.5 329.1,-573.5 396.785,-573.5 396.785,-555.5 329.1,-555.5"/>
<text text-anchor="middle" x="362.942" y="-561.5" font-family="Helvetica,sans-Serif" font-size="10.00">MyFunction</text>
</a>
</g>
</g>
<!-- Node21&#45;&gt;Node25 -->
<g id="edge25" class="edge"><title>Node21&#45;&gt;Node25</title>
<path fill="none" stroke="midnightblue" d="M226.714,-522.836C243.367,-530.51 265.17,-539.907 285.187,-546.5 299.357,-551.167 315.375,-555.123 329.099,-558.128"/>
<polygon fill="midnightblue" stroke="midnightblue" points="228.097,-519.619 217.556,-518.551 225.13,-525.959 228.097,-519.619"/>
</g>
<!-- Node26 -->
<g id="node27" class="node"><title>Node26</title>
<g id="a_node27"><a xlink:href="../../db/da4/classocra_1_1DotProductFunction.html" target="_top" xlink:title="DotProductFunction class. ">
<polygon fill="white" stroke="black" points="298.248,-518.5 298.248,-536.5 427.637,-536.5 427.637,-518.5 298.248,-518.5"/>
<text text-anchor="middle" x="362.942" y="-524.5" font-family="Helvetica,sans-Serif" font-size="10.00">ocra::DotProductFunction</text>
</a>
</g>
</g>
<!-- Node21&#45;&gt;Node26 -->
<g id="edge26" class="edge"><title>Node21&#45;&gt;Node26</title>
<path fill="none" stroke="midnightblue" d="M248.144,-514.92C263.871,-516.658 281.524,-518.61 298.147,-520.448"/>
<polygon fill="midnightblue" stroke="midnightblue" points="248.442,-511.432 238.118,-513.811 247.673,-518.389 248.442,-511.432"/>
</g>
<!-- Node27 -->
<g id="node28" class="node"><title>Node27</title>
<g id="a_node28"><a xlink:href="../../de/d3a/classocra_1_1LinearFunction.html" target="_top" xlink:title="LinearFunction class. ">
<polygon fill="white" stroke="red" points="309.361,-481.5 309.361,-499.5 416.523,-499.5 416.523,-481.5 309.361,-481.5"/>
<text text-anchor="middle" x="362.942" y="-487.5" font-family="Helvetica,sans-Serif" font-size="10.00">ocra::LinearFunction</text>
</a>
</g>
</g>
<!-- Node21&#45;&gt;Node27 -->
<g id="edge27" class="edge"><title>Node21&#45;&gt;Node27</title>
<path fill="none" stroke="midnightblue" d="M248.177,-503.775C267.409,-501.531 289.518,-498.951 309.101,-496.666"/>
<polygon fill="midnightblue" stroke="midnightblue" points="247.645,-500.313 238.118,-504.949 248.457,-507.266 247.645,-500.313"/>
</g>
<!-- Node46 -->
<g id="node34" class="node"><title>Node46</title>
<g id="a_node34"><a xlink:href="../../dd/d93/classocra_1_1Pb114G10.html" target="_top" xlink:title="ocra::Pb114G10">
<polygon fill="white" stroke="black" points="318.897,-444.5 318.897,-462.5 406.987,-462.5 406.987,-444.5 318.897,-444.5"/>
<text text-anchor="middle" x="362.942" y="-450.5" font-family="Helvetica,sans-Serif" font-size="10.00">ocra::Pb114G10</text>
</a>
</g>
</g>
<!-- Node21&#45;&gt;Node46 -->
<g id="edge33" class="edge"><title>Node21&#45;&gt;Node46</title>
<path fill="none" stroke="midnightblue" d="M227.067,-496.106C243.689,-488.491 265.34,-479.173 285.187,-472.5 296.377,-468.738 308.711,-465.359 320.157,-462.531"/>
<polygon fill="midnightblue" stroke="midnightblue" points="225.506,-492.972 217.913,-500.361 228.457,-499.32 225.506,-492.972"/>
</g>
<!-- Node47 -->
<g id="node35" class="node"><title>Node47</title>
<g id="a_node35"><a xlink:href="../../da/d6c/classocra_1_1Pb114G11.html" target="_top" xlink:title="ocra::Pb114G11">
<polygon fill="white" stroke="black" points="319.266,-407.5 319.266,-425.5 406.619,-425.5 406.619,-407.5 319.266,-407.5"/>
<text text-anchor="middle" x="362.942" y="-413.5" font-family="Helvetica,sans-Serif" font-size="10.00">ocra::Pb114G11</text>
</a>
</g>
</g>
<!-- Node21&#45;&gt;Node47 -->
<g id="edge34" class="edge"><title>Node21&#45;&gt;Node47</title>
<path fill="none" stroke="midnightblue" d="M214.064,-492.68C230.032,-475.746 256.894,-450.1 285.187,-435.5 295.678,-430.086 307.783,-426.165 319.233,-423.346"/>
<polygon fill="midnightblue" stroke="midnightblue" points="211.334,-490.477 207.141,-500.206 216.487,-495.215 211.334,-490.477"/>
</g>
<!-- Node48 -->
<g id="node36" class="node"><title>Node48</title>
<g id="a_node36"><a xlink:href="../../d9/df1/classocra_1_1Pb114G5.html" target="_top" xlink:title="ocra::Pb114G5">
<polygon fill="white" stroke="black" points="321.678,-370.5 321.678,-388.5 404.207,-388.5 404.207,-370.5 321.678,-370.5"/>
<text text-anchor="middle" x="362.942" y="-376.5" font-family="Helvetica,sans-Serif" font-size="10.00">ocra::Pb114G5</text>
</a>
</g>
</g>
<!-- Node21&#45;&gt;Node48 -->
<g id="edge35" class="edge"><title>Node21&#45;&gt;Node48</title>
<path fill="none" stroke="midnightblue" d="M208.191,-491.266C221.549,-466.362 248.901,-422.115 285.187,-398.5 296.002,-391.461 309.223,-387.03 321.626,-384.24"/>
<polygon fill="midnightblue" stroke="midnightblue" points="204.975,-489.865 203.48,-500.353 211.19,-493.086 204.975,-489.865"/>
</g>
<!-- Node49 -->
<g id="node37" class="node"><title>Node49</title>
<g id="a_node37"><a xlink:href="../../d9/d7e/classocra_1_1QuadraticFunction.html" target="_top" xlink:title="QuadraticFunction class. ">
<polygon fill="white" stroke="red" points="301.583,-333.5 301.583,-351.5 424.302,-351.5 424.302,-333.5 301.583,-333.5"/>
<text text-anchor="middle" x="362.942" y="-339.5" font-family="Helvetica,sans-Serif" font-size="10.00">ocra::QuadraticFunction</text>
</a>
</g>
</g>
<!-- Node21&#45;&gt;Node49 -->
<g id="edge36" class="edge"><title>Node21&#45;&gt;Node49</title>
<path fill="none" stroke="midnightblue" d="M204.82,-490.285C215.301,-458.415 240.726,-394.836 285.187,-361.5 290.678,-357.382 296.953,-354.148 303.495,-351.61"/>
<polygon fill="midnightblue" stroke="midnightblue" points="201.384,-489.545 201.73,-500.134 208.063,-491.641 201.384,-489.545"/>
</g>
<!-- Node53 -->
<g id="node38" class="node"><title>Node53</title>
<g id="a_node38"><a xlink:href="../../df/d5a/classocra_1_1SubtractionFunction.html" target="_top" xlink:title="SubtractionFunction class. ">
<polygon fill="white" stroke="black" points="297.967,-296.5 297.967,-314.5 427.917,-314.5 427.917,-296.5 297.967,-296.5"/>
<text text-anchor="middle" x="362.942" y="-302.5" font-family="Helvetica,sans-Serif" font-size="10.00">ocra::SubtractionFunction</text>
</a>
</g>
</g>
<!-- Node21&#45;&gt;Node53 -->
<g id="edge37" class="edge"><title>Node21&#45;&gt;Node53</title>
<path fill="none" stroke="midnightblue" d="M202.306,-490.226C209.653,-452.175 231.448,-367.301 285.187,-323.5 289.642,-319.868 294.702,-316.943 300.048,-314.591"/>
<polygon fill="midnightblue" stroke="midnightblue" points="198.796,-489.973 200.471,-500.435 205.685,-491.212 198.796,-489.973"/>
</g>
<!-- Node28 -->
<g id="node29" class="node"><title>Node28</title>
<g id="a_node29"><a xlink:href="../../d4/d45/classocra_1_1ContactAvoidanceFunction.html" target="_top" xlink:title="Create a linear function that represents the joint limit function. ">
<polygon fill="white" stroke="red" points="476.698,-560.5 476.698,-578.5 637.049,-578.5 637.049,-560.5 476.698,-560.5"/>
<text text-anchor="middle" x="556.874" y="-566.5" font-family="Helvetica,sans-Serif" font-size="10.00">ocra::ContactAvoidanceFunction</text>
</a>
</g>
</g>
<!-- Node27&#45;&gt;Node28 -->
<g id="edge28" class="edge"><title>Node27&#45;&gt;Node28</title>
<path fill="none" stroke="midnightblue" d="M426.552,-502.448C431.499,-504.446 436.283,-506.778 440.698,-509.5 461.627,-522.401 455.647,-538.8 476.698,-551.5 482.733,-555.141 489.431,-558.046 496.303,-560.365"/>
<polygon fill="midnightblue" stroke="midnightblue" points="427.485,-499.065 416.89,-499.002 425.133,-505.658 427.485,-499.065"/>
</g>
<!-- Node31 -->
<g id="node30" class="node"><title>Node31</title>
<g id="a_node30"><a xlink:href="../../d3/d89/classocra_1_1DiagonalLinearFunction.html" target="_top" xlink:title="DiagonalLinearFunction class. ">
<polygon fill="white" stroke="red" points="483.556,-523.5 483.556,-541.5 630.191,-541.5 630.191,-523.5 483.556,-523.5"/>
<text text-anchor="middle" x="556.874" y="-529.5" font-family="Helvetica,sans-Serif" font-size="10.00">ocra::DiagonalLinearFunction</text>
</a>
</g>
</g>
<!-- Node27&#45;&gt;Node31 -->
<g id="edge29" class="edge"><title>Node27&#45;&gt;Node31</title>
<path fill="none" stroke="midnightblue" d="M414.904,-501.652C446.004,-508.457 485.255,-517.047 514.437,-523.432"/>
<polygon fill="midnightblue" stroke="midnightblue" points="415.633,-498.229 405.116,-499.51 414.137,-505.067 415.633,-498.229"/>
</g>
<!-- Node34 -->
<g id="node31" class="node"><title>Node34</title>
<g id="a_node31"><a xlink:href="../../d4/d5c/classocra_1_1DoubleDiagonalLinearFunction.html" target="_top" xlink:title="DoubleDiagonalLinearFunction class. ">
<polygon fill="white" stroke="black" points="486.889,-476.5 486.889,-504.5 626.858,-504.5 626.858,-476.5 486.889,-476.5"/>
<text text-anchor="start" x="494.889" y="-492.5" font-family="Helvetica,sans-Serif" font-size="10.00">ocra::DoubleDiagonalLinear</text>
<text text-anchor="middle" x="556.874" y="-482.5" font-family="Helvetica,sans-Serif" font-size="10.00">Function</text>
</a>
</g>
</g>
<!-- Node27&#45;&gt;Node34 -->
<g id="edge30" class="edge"><title>Node27&#45;&gt;Node34</title>
<path fill="none" stroke="midnightblue" d="M426.77,-490.5C445.955,-490.5 467.154,-490.5 486.733,-490.5"/>
<polygon fill="midnightblue" stroke="midnightblue" points="426.642,-487 416.642,-490.5 426.642,-494 426.642,-487"/>
</g>
<!-- Node35 -->
<g id="node32" class="node"><title>Node35</title>
<g id="a_node32"><a xlink:href="../../d9/da6/classocra_1_1DynamicEquationFunction.html" target="_top" xlink:title="DynamicEquationFunction class. ">
<polygon fill="white" stroke="black" points="478.004,-439.5 478.004,-457.5 635.743,-457.5 635.743,-439.5 478.004,-439.5"/>
<text text-anchor="middle" x="556.874" y="-445.5" font-family="Helvetica,sans-Serif" font-size="10.00">ocra::DynamicEquationFunction</text>
</a>
</g>
</g>
<!-- Node27&#45;&gt;Node35 -->
<g id="edge31" class="edge"><title>Node27&#45;&gt;Node35</title>
<path fill="none" stroke="midnightblue" d="M414.904,-479.348C446.004,-472.543 485.255,-463.953 514.437,-457.568"/>
<polygon fill="midnightblue" stroke="midnightblue" points="414.137,-475.933 405.116,-481.49 415.633,-482.771 414.137,-475.933"/>
</g>
<!-- Node36 -->
<g id="node33" class="node"><title>Node36</title>
<g id="a_node33"><a xlink:href="../../de/ddd/classocra_1_1FullDynamicEquationFunction.html" target="_top" xlink:title="Create a linear function that represents the dynamic equation of motion. ">
<polygon fill="white" stroke="black" points="489.125,-392.5 489.125,-420.5 624.622,-420.5 624.622,-392.5 489.125,-392.5"/>
<text text-anchor="start" x="497.125" y="-408.5" font-family="Helvetica,sans-Serif" font-size="10.00">ocra::FullDynamicEquation</text>
<text text-anchor="middle" x="556.874" y="-398.5" font-family="Helvetica,sans-Serif" font-size="10.00">Function</text>
</a>
</g>
</g>
<!-- Node27&#45;&gt;Node36 -->
<g id="edge32" class="edge"><title>Node27&#45;&gt;Node36</title>
<path fill="none" stroke="midnightblue" d="M426.544,-479.416C431.493,-477.472 436.28,-475.186 440.698,-472.5 461.706,-459.728 456.11,-443.937 476.698,-430.5 482.592,-426.653 489.13,-423.4 495.85,-420.654"/>
<polygon fill="midnightblue" stroke="midnightblue" points="425.192,-476.181 416.88,-482.751 427.475,-482.798 425.192,-476.181"/>
</g>
<!-- Node55 -->
<g id="node40" class="node"><title>Node55</title>
<g id="a_node40"><a xlink:href="../../d1/dc1/classocra_1_1PartialModelState.html" target="_top" xlink:title="A partial state of the model. ">
<polygon fill="white" stroke="black" points="302.972,-259.5 302.972,-277.5 422.913,-277.5 422.913,-259.5 302.972,-259.5"/>
<text text-anchor="middle" x="362.942" y="-265.5" font-family="Helvetica,sans-Serif" font-size="10.00">ocra::PartialModelState</text>
</a>
</g>
</g>
<!-- Node54&#45;&gt;Node55 -->
<g id="edge39" class="edge"><title>Node54&#45;&gt;Node55</title>
<path fill="none" stroke="midnightblue" d="M254.918,-268.5C270.366,-268.5 287.183,-268.5 302.814,-268.5"/>
<polygon fill="midnightblue" stroke="midnightblue" points="254.473,-265 244.473,-268.5 254.473,-272 254.473,-265"/>
</g>
<!-- Node56 -->
<g id="node41" class="node"><title>Node56</title>
<g id="a_node41"><a xlink:href="../../d1/def/classocra_1_1PartialTargetState.html" target="_top" xlink:title="A target for a model partial state. ">
<polygon fill="white" stroke="black" points="302.694,-222.5 302.694,-240.5 423.191,-240.5 423.191,-222.5 302.694,-222.5"/>
<text text-anchor="middle" x="362.942" y="-228.5" font-family="Helvetica,sans-Serif" font-size="10.00">ocra::PartialTargetState</text>
</a>
</g>
</g>
<!-- Node54&#45;&gt;Node56 -->
<g id="edge40" class="edge"><title>Node54&#45;&gt;Node56</title>
<path fill="none" stroke="midnightblue" d="M248.762,-257.219C272.326,-251.864 300.102,-245.552 322.24,-240.522"/>
<polygon fill="midnightblue" stroke="midnightblue" points="247.925,-253.82 238.949,-259.449 249.476,-260.646 247.925,-253.82"/>
</g>
<!-- Node58 -->
<g id="node43" class="node"><title>Node58</title>
<g id="a_node43"><a xlink:href="../../d6/d35/classocra_1_1CascadeQPSolver.html" target="_top" xlink:title="CascadeQPSolver class. ">
<polygon fill="white" stroke="black" points="301.307,-185.5 301.307,-203.5 424.578,-203.5 424.578,-185.5 301.307,-185.5"/>
<text text-anchor="middle" x="362.942" y="-191.5" font-family="Helvetica,sans-Serif" font-size="10.00">ocra::CascadeQPSolver</text>
</a>
</g>
</g>
<!-- Node57&#45;&gt;Node58 -->
<g id="edge42" class="edge"><title>Node57&#45;&gt;Node58</title>
<path fill="none" stroke="midnightblue" d="M227.429,-152.635C244.02,-160.004 265.519,-168.995 285.187,-175.5 296.526,-179.25 309.023,-182.646 320.581,-185.495"/>
<polygon fill="midnightblue" stroke="midnightblue" points="228.834,-149.429 218.279,-148.515 225.96,-155.812 228.834,-149.429"/>
</g>
<!-- Node59 -->
<g id="node44" class="node"><title>Node59</title>
<g id="a_node44"><a xlink:href="../../dc/d6e/classocra_1_1FSQPSolver.html" target="_top" xlink:title="FSQPSolver class. ">
<polygon fill="white" stroke="black" points="314.652,-148.5 314.652,-166.5 411.233,-166.5 411.233,-148.5 314.652,-148.5"/>
<text text-anchor="middle" x="362.942" y="-154.5" font-family="Helvetica,sans-Serif" font-size="10.00">ocra::FSQPSolver</text>
</a>
</g>
</g>
<!-- Node57&#45;&gt;Node59 -->
<g id="edge43" class="edge"><title>Node57&#45;&gt;Node59</title>
<path fill="none" stroke="midnightblue" d="M242.947,-144.345C265.01,-146.784 291.791,-149.745 314.356,-152.239"/>
<polygon fill="midnightblue" stroke="midnightblue" points="243.179,-140.85 232.855,-143.23 242.41,-147.807 243.179,-140.85"/>
</g>
<!-- Node60 -->
<g id="node45" class="node"><title>Node60</title>
<g id="a_node45"><a xlink:href="../../d2/d07/classocra_1_1NewtonSolver.html" target="_top" xlink:title="NewtonSolver class. ">
<polygon fill="white" stroke="black" points="311.312,-111.5 311.312,-129.5 414.573,-129.5 414.573,-111.5 311.312,-111.5"/>
<text text-anchor="middle" x="362.942" y="-117.5" font-family="Helvetica,sans-Serif" font-size="10.00">ocra::NewtonSolver</text>
</a>
</g>
</g>
<!-- Node57&#45;&gt;Node60 -->
<g id="edge44" class="edge"><title>Node57&#45;&gt;Node60</title>
<path fill="none" stroke="midnightblue" d="M242.82,-134.4C263.898,-131.941 289.305,-128.976 311.231,-126.418"/>
<polygon fill="midnightblue" stroke="midnightblue" points="242.382,-130.928 232.855,-135.563 243.193,-137.88 242.382,-130.928"/>
</g>
<!-- Node61 -->
<g id="node46" class="node"><title>Node61</title>
<g id="a_node46"><a xlink:href="../../d2/d5e/classocra_1_1OneLevelSolver.html" target="_top" xlink:title="A generic abstract class the solvers that can be used in the wOcra Controller. ">
<polygon fill="white" stroke="red" points="306.861,-74.5 306.861,-92.5 419.023,-92.5 419.023,-74.5 306.861,-74.5"/>
<text text-anchor="middle" x="362.942" y="-80.5" font-family="Helvetica,sans-Serif" font-size="10.00">ocra::OneLevelSolver</text>
</a>
</g>
</g>
<!-- Node57&#45;&gt;Node61 -->
<g id="edge45" class="edge"><title>Node57&#45;&gt;Node61</title>
<path fill="none" stroke="midnightblue" d="M226.034,-126.071C242.752,-118.121 264.858,-108.306 285.187,-101.5 295.31,-98.1107 306.39,-95.1157 316.904,-92.5895"/>
<polygon fill="midnightblue" stroke="midnightblue" points="224.349,-122.998 216.867,-130.499 227.394,-129.301 224.349,-122.998"/>
</g>
<!-- Node65 -->
<g id="node47" class="node"><title>Node65</title>
<g id="a_node47"><a xlink:href="../../d7/dab/classocra_1_1QuadraticSolver.html" target="_top" xlink:title="QuadraticSolver class. ">
<polygon fill="white" stroke="red" points="306.588,-37.5 306.588,-55.5 419.297,-55.5 419.297,-37.5 306.588,-37.5"/>
<text text-anchor="middle" x="362.942" y="-43.5" font-family="Helvetica,sans-Serif" font-size="10.00">ocra::QuadraticSolver</text>
</a>
</g>
</g>
<!-- Node57&#45;&gt;Node65 -->
<g id="edge46" class="edge"><title>Node57&#45;&gt;Node65</title>
<path fill="none" stroke="midnightblue" d="M213.727,-122.647C229.596,-105.424 256.538,-79.1814 285.187,-64.5 292.373,-60.8171 300.324,-57.8757 308.306,-55.5296"/>
<polygon fill="midnightblue" stroke="midnightblue" points="210.944,-120.508 206.868,-130.288 216.153,-125.185 210.944,-120.508"/>
</g>
<!-- Node69 -->
<g id="node49" class="node"><title>Node69</title>
<g id="a_node49"><a xlink:href="../../d2/d46/classgocra_1_1GHCJTTask.html" target="_top" xlink:title="A generic abstract task for the GHCJT controller. ">
<polygon fill="white" stroke="black" points="312.711,-0.5 312.711,-18.5 413.174,-18.5 413.174,-0.5 312.711,-0.5"/>
<text text-anchor="middle" x="362.942" y="-6.5" font-family="Helvetica,sans-Serif" font-size="10.00">gocra::GHCJTTask</text>
</a>
</g>
</g>
<!-- Node68&#45;&gt;Node69 -->
<g id="edge48" class="edge"><title>Node68&#45;&gt;Node69</title>
<path fill="none" stroke="midnightblue" d="M238.785,-38.2424C264.504,-32.2402 297.842,-24.4597 323.346,-18.5077"/>
<polygon fill="midnightblue" stroke="midnightblue" points="237.925,-34.849 228.982,-40.5302 239.516,-41.6658 237.925,-34.849"/>
</g>
</g>
</svg>
