<?xml version="1.0" encoding="UTF-8" standalone="no"?>
<!DOCTYPE svg PUBLIC "-//W3C//DTD SVG 1.1//EN"
 "http://www.w3.org/Graphics/SVG/1.1/DTD/svg11.dtd">
<!-- Generated by graphviz version 2.38.0 (20140413.2041)
 -->
<!-- Title: TaskYarpInterfaceVocab.h Pages: 1 -->
<svg width="663pt" height="82pt"
 viewBox="0.00 0.00 662.73 82.00" xmlns="http://www.w3.org/2000/svg" xmlns:xlink="http://www.w3.org/1999/xlink">
<g id="graph0" class="graph" transform="scale(1 1) rotate(0) translate(4 78)">
<title>TaskYarpInterfaceVocab.h</title>
<polygon fill="white" stroke="none" points="-4,4 -4,-78 658.734,-78 658.734,4 -4,4"/>
<!-- Node0 -->
<g id="node1" class="node"><title>Node0</title>
<polygon fill="#bfbfbf" stroke="black" points="288.169,-55.5 288.169,-73.5 420.175,-73.5 420.175,-55.5 288.169,-55.5"/>
<text text-anchor="middle" x="354.172" y="-61.5" font-family="Helvetica,sans-Serif" font-size="10.00">TaskYarpInterfaceVocab.h</text>
</g>
<!-- Node1 -->
<g id="node2" class="node"><title>Node1</title>
<polygon fill="white" stroke="#bfbfbf" points="0,-0.5 0,-18.5 54.3447,-18.5 54.3447,-0.5 0,-0.5"/>
<text text-anchor="middle" x="27.1724" y="-6.5" font-family="Helvetica,sans-Serif" font-size="10.00">iostream</text>
</g>
<!-- Node0&#45;&gt;Node1 -->
<g id="edge1" class="edge"><title>Node0&#45;&gt;Node1</title>
<path fill="none" stroke="midnightblue" d="M292.048,-55.4685C235.211,-47.7873 148.595,-35.2481 64.6032,-19.1532"/>
<polygon fill="midnightblue" stroke="midnightblue" points="65.1237,-15.6891 54.6408,-17.2248 63.7934,-22.5615 65.1237,-15.6891"/>
</g>
<!-- Node2 -->
<g id="node3" class="node"><title>Node2</title>
<polygon fill="white" stroke="#bfbfbf" points="72.5566,-0.5 72.5566,-18.5 115.788,-18.5 115.788,-0.5 72.5566,-0.5"/>
<text text-anchor="middle" x="94.1724" y="-6.5" font-family="Helvetica,sans-Serif" font-size="10.00">vector</text>
</g>
<!-- Node0&#45;&gt;Node2 -->
<g id="edge2" class="edge"><title>Node0&#45;&gt;Node2</title>
<path fill="none" stroke="midnightblue" d="M306.346,-55.4688C261.836,-47.721 193.469,-35.1261 126.014,-19.2957"/>
<polygon fill="midnightblue" stroke="midnightblue" points="126.609,-15.8398 116.071,-16.9368 124.993,-22.6507 126.609,-15.8398"/>
</g>
<!-- Node3 -->
<g id="node4" class="node"><title>Node3</title>
<polygon fill="white" stroke="#bfbfbf" points="133.542,-0.5 133.542,-18.5 206.803,-18.5 206.803,-0.5 133.542,-0.5"/>
<text text-anchor="middle" x="170.172" y="-6.5" font-family="Helvetica,sans-Serif" font-size="10.00">Eigen/Dense</text>
</g>
<!-- Node0&#45;&gt;Node3 -->
<g id="edge3" class="edge"><title>Node0&#45;&gt;Node3</title>
<path fill="none" stroke="midnightblue" d="M326.227,-55.4504C294.659,-46.3575 243.116,-31.5108 207.972,-21.3879"/>
<polygon fill="midnightblue" stroke="midnightblue" points="208.657,-17.943 198.079,-18.5383 206.719,-24.6695 208.657,-17.943"/>
</g>
<!-- Node4 -->
<g id="node5" class="node"><title>Node4</title>
<polygon fill="white" stroke="#bfbfbf" points="224.769,-0.5 224.769,-18.5 293.576,-18.5 293.576,-0.5 224.769,-0.5"/>
<text text-anchor="middle" x="259.172" y="-6.5" font-family="Helvetica,sans-Serif" font-size="10.00">Eigen/Lgsm</text>
</g>
<!-- Node0&#45;&gt;Node4 -->
<g id="edge4" class="edge"><title>Node0&#45;&gt;Node4</title>
<path fill="none" stroke="midnightblue" d="M339.744,-55.4504C324.678,-47.0453 300.801,-33.7241 282.944,-23.7618"/>
<polygon fill="midnightblue" stroke="midnightblue" points="284.175,-20.4409 273.737,-18.6253 280.764,-26.5539 284.175,-20.4409"/>
</g>
<!-- Node5 -->
<g id="node6" class="node"><title>Node5</title>
<polygon fill="white" stroke="#bfbfbf" points="311.431,-0.5 311.431,-18.5 396.914,-18.5 396.914,-0.5 311.431,-0.5"/>
<text text-anchor="middle" x="354.172" y="-6.5" font-family="Helvetica,sans-Serif" font-size="10.00">yarp/os/Bottle.h</text>
</g>
<!-- Node0&#45;&gt;Node5 -->
<g id="edge5" class="edge"><title>Node0&#45;&gt;Node5</title>
<path fill="none" stroke="midnightblue" d="M354.172,-55.2188C354.172,-48.1769 354.172,-37.8083 354.172,-28.8277"/>
<polygon fill="midnightblue" stroke="midnightblue" points="357.672,-28.5495 354.172,-18.5496 350.672,-28.5496 357.672,-28.5495"/>
</g>
<!-- Node6 -->
<g id="node7" class="node"><title>Node6</title>
<polygon fill="white" stroke="#bfbfbf" points="414.608,-0.5 414.608,-18.5 471.736,-18.5 471.736,-0.5 414.608,-0.5"/>
<text text-anchor="middle" x="443.172" y="-6.5" font-family="Helvetica,sans-Serif" font-size="10.00">algorithm</text>
</g>
<!-- Node0&#45;&gt;Node6 -->
<g id="edge6" class="edge"><title>Node0&#45;&gt;Node6</title>
<path fill="none" stroke="midnightblue" d="M367.69,-55.4504C381.804,-47.0453 404.173,-33.7241 420.903,-23.7618"/>
<polygon fill="midnightblue" stroke="midnightblue" points="422.727,-26.7491 429.528,-18.6253 419.145,-20.7347 422.727,-26.7491"/>
</g>
<!-- Node7 -->
<g id="node8" class="node"><title>Node7</title>
<polygon fill="white" stroke="#bfbfbf" points="489.946,-0.5 489.946,-18.5 530.399,-18.5 530.399,-0.5 489.946,-0.5"/>
<text text-anchor="middle" x="510.172" y="-6.5" font-family="Helvetica,sans-Serif" font-size="10.00">string</text>
</g>
<!-- Node0&#45;&gt;Node7 -->
<g id="edge7" class="edge"><title>Node0&#45;&gt;Node7</title>
<path fill="none" stroke="midnightblue" d="M377.865,-55.4504C405.281,-46.1363 450.465,-30.7853 480.274,-20.6579"/>
<polygon fill="midnightblue" stroke="midnightblue" points="481.403,-23.9708 489.746,-17.4399 479.151,-17.3428 481.403,-23.9708"/>
</g>
<!-- Node8 -->
<g id="node9" class="node"><title>Node8</title>
<polygon fill="white" stroke="#bfbfbf" points="548.665,-0.5 548.665,-18.5 589.68,-18.5 589.68,-0.5 548.665,-0.5"/>
<text text-anchor="middle" x="569.172" y="-6.5" font-family="Helvetica,sans-Serif" font-size="10.00">regex</text>
</g>
<!-- Node0&#45;&gt;Node8 -->
<g id="edge8" class="edge"><title>Node0&#45;&gt;Node8</title>
<path fill="none" stroke="midnightblue" d="M389.399,-55.469C424.731,-47.316 480.921,-34.0854 538.857,-18.998"/>
<polygon fill="midnightblue" stroke="midnightblue" points="539.758,-22.3802 548.545,-16.4616 537.985,-15.6084 539.758,-22.3802"/>
</g>
<!-- Node9 -->
<g id="node10" class="node"><title>Node9</title>
<polygon fill="white" stroke="#bfbfbf" points="607.611,-0.5 607.611,-18.5 654.734,-18.5 654.734,-0.5 607.611,-0.5"/>
<text text-anchor="middle" x="631.172" y="-6.5" font-family="Helvetica,sans-Serif" font-size="10.00">iterator</text>
</g>
<!-- Node0&#45;&gt;Node9 -->
<g id="edge9" class="edge"><title>Node0&#45;&gt;Node9</title>
<path fill="none" stroke="midnightblue" d="M405.087,-55.4721C452.574,-47.7107 525.585,-35.0816 597.344,-19.2761"/>
<polygon fill="midnightblue" stroke="midnightblue" points="598.458,-22.6139 607.459,-17.0249 596.937,-15.7811 598.458,-22.6139"/>
</g>
</g>
</svg>
