<?xml version="1.0" encoding="UTF-8" standalone="no"?>
<!DOCTYPE svg PUBLIC "-//W3C//DTD SVG 1.1//EN"
 "http://www.w3.org/Graphics/SVG/1.1/DTD/svg11.dtd">
<!-- Generated by graphviz version 2.38.0 (20140413.2041)
 -->
<!-- Title: ocra::Observer Pages: 1 -->
<svg width="312pt" height="131pt"
 viewBox="0.00 0.00 311.63 131.00" xmlns="http://www.w3.org/2000/svg" xmlns:xlink="http://www.w3.org/1999/xlink">
<g id="graph0" class="graph" transform="scale(1 1) rotate(0) translate(4 127)">
<title>ocra::Observer</title>
<polygon fill="white" stroke="none" points="-4,4 -4,-127 307.63,-127 307.63,4 -4,4"/>
<!-- Node54 -->
<g id="node1" class="node"><title>Node54</title>
<polygon fill="#bfbfbf" stroke="black" points="221.497,-52.5 221.497,-70.5 303.63,-70.5 303.63,-52.5 221.497,-52.5"/>
<text text-anchor="middle" x="262.563" y="-58.5" font-family="Helvetica,sans-Serif" font-size="10.00">ocra::Observer</text>
</g>
<!-- Node55 -->
<g id="node2" class="node"><title>Node55</title>
<g id="a_node2"><a xlink:href="../../d4/dee/classocra_1_1ObserverBase.html" target="_top" xlink:title="ocra::ObserverBase\l\&lt; EVT_RESIZE \&gt;">
<polygon fill="white" stroke="black" points="40.2856,-94.5 40.2856,-122.5 145.211,-122.5 145.211,-94.5 40.2856,-94.5"/>
<text text-anchor="start" x="48.2856" y="-110.5" font-family="Helvetica,sans-Serif" font-size="10.00">ocra::ObserverBase</text>
<text text-anchor="middle" x="92.7485" y="-100.5" font-family="Helvetica,sans-Serif" font-size="10.00">&lt; EVT_RESIZE &gt;</text>
</a>
</g>
</g>
<!-- Node55&#45;&gt;Node54 -->
<g id="edge1" class="edge"><title>Node55&#45;&gt;Node54</title>
<path fill="none" stroke="midnightblue" d="M155.327,-93.604C165.435,-91.0038 175.779,-88.2485 185.497,-85.5 201.754,-80.9023 219.791,-75.2361 234.22,-70.564"/>
<polygon fill="midnightblue" stroke="midnightblue" points="154.158,-90.2898 145.329,-96.1466 155.884,-97.0739 154.158,-90.2898"/>
</g>
<!-- Node56 -->
<g id="node3" class="node"><title>Node56</title>
<g id="a_node3"><a xlink:href="../../d4/dee/classocra_1_1ObserverBase.html" target="_top" xlink:title="ocra::ObserverBase\l\&lt; EVT_CHANGE_DEPENDENCIES \&gt;">
<polygon fill="white" stroke="black" points="0,-47.5 0,-75.5 185.497,-75.5 185.497,-47.5 0,-47.5"/>
<text text-anchor="start" x="8" y="-63.5" font-family="Helvetica,sans-Serif" font-size="10.00">ocra::ObserverBase</text>
<text text-anchor="middle" x="92.7485" y="-53.5" font-family="Helvetica,sans-Serif" font-size="10.00">&lt; EVT_CHANGE_DEPENDENCIES &gt;</text>
</a>
</g>
</g>
<!-- Node56&#45;&gt;Node54 -->
<g id="edge2" class="edge"><title>Node56&#45;&gt;Node54</title>
<path fill="none" stroke="midnightblue" d="M195.73,-61.5C204.692,-61.5 213.366,-61.5 221.314,-61.5"/>
<polygon fill="midnightblue" stroke="midnightblue" points="195.512,-58.0001 185.512,-61.5 195.512,-65.0001 195.512,-58.0001"/>
</g>
<!-- Node57 -->
<g id="node4" class="node"><title>Node57</title>
<g id="a_node4"><a xlink:href="../../d4/dee/classocra_1_1ObserverBase.html" target="_top" xlink:title="ocra::ObserverBase\l\&lt; EVT_CHANGE_VALUE \&gt;">
<polygon fill="white" stroke="black" points="23.4253,-0.5 23.4253,-28.5 162.072,-28.5 162.072,-0.5 23.4253,-0.5"/>
<text text-anchor="start" x="31.4253" y="-16.5" font-family="Helvetica,sans-Serif" font-size="10.00">ocra::ObserverBase</text>
<text text-anchor="middle" x="92.7485" y="-6.5" font-family="Helvetica,sans-Serif" font-size="10.00">&lt; EVT_CHANGE_VALUE &gt;</text>
</a>
</g>
</g>
<!-- Node57&#45;&gt;Node54 -->
<g id="edge3" class="edge"><title>Node57&#45;&gt;Node54</title>
<path fill="none" stroke="midnightblue" d="M158.454,-31.0988C167.549,-33.5273 176.769,-36.0398 185.497,-38.5 201.034,-42.8792 218.257,-48.0597 232.381,-52.3944"/>
<polygon fill="midnightblue" stroke="midnightblue" points="159.226,-27.6825 148.663,-28.5032 157.432,-34.4488 159.226,-27.6825"/>
</g>
</g>
</svg>
