<?xml version="1.0" encoding="UTF-8" standalone="no"?>
<!DOCTYPE svg PUBLIC "-//W3C//DTD SVG 1.1//EN"
 "http://www.w3.org/Graphics/SVG/1.1/DTD/svg11.dtd">
<!-- Generated by graphviz version 2.38.0 (20140413.2041)
 -->
<!-- Title: DotProductFunction.h Pages: 1 -->
<svg width="1473pt" height="332pt"
 viewBox="0.00 0.00 1473.31 332.00" xmlns="http://www.w3.org/2000/svg" xmlns:xlink="http://www.w3.org/1999/xlink">
<g id="graph0" class="graph" transform="scale(1 1) rotate(0) translate(4 328)">
<title>DotProductFunction.h</title>
<polygon fill="white" stroke="none" points="-4,4 -4,-328 1469.31,-328 1469.31,4 -4,4"/>
<!-- Node0 -->
<g id="node1" class="node"><title>Node0</title>
<polygon fill="#bfbfbf" stroke="black" points="493.813,-305.5 493.813,-323.5 606.532,-323.5 606.532,-305.5 493.813,-305.5"/>
<text text-anchor="middle" x="550.172" y="-311.5" font-family="Helvetica,sans-Serif" font-size="10.00">DotProductFunction.h</text>
</g>
<!-- Node1 -->
<g id="node2" class="node"><title>Node1</title>
<g id="a_node2"><a xlink:href="../../df/df5/Function_8h.html" target="_top" xlink:title="Declaration file of the Function class. ">
<polygon fill="white" stroke="black" points="494.094,-250.5 494.094,-268.5 606.251,-268.5 606.251,-250.5 494.094,-250.5"/>
<text text-anchor="middle" x="550.172" y="-256.5" font-family="Helvetica,sans-Serif" font-size="10.00">ocra/optim/Function.h</text>
</a>
</g>
</g>
<!-- Node0&#45;&gt;Node1 -->
<g id="edge1" class="edge"><title>Node0&#45;&gt;Node1</title>
<path fill="none" stroke="midnightblue" d="M550.172,-305.219C550.172,-298.177 550.172,-287.808 550.172,-278.828"/>
<polygon fill="midnightblue" stroke="midnightblue" points="553.672,-278.55 550.172,-268.55 546.672,-278.55 553.672,-278.55"/>
</g>
<!-- Node2 -->
<g id="node3" class="node"><title>Node2</title>
<g id="a_node3"><a xlink:href="../../de/d94/IFunction_8h.html" target="_top" xlink:title="Declaration file of the IFunction interface. ">
<polygon fill="white" stroke="black" points="213.705,-130.5 213.705,-148.5 328.64,-148.5 328.64,-130.5 213.705,-130.5"/>
<text text-anchor="middle" x="271.172" y="-136.5" font-family="Helvetica,sans-Serif" font-size="10.00">ocra/optim/IFunction.h</text>
</a>
</g>
</g>
<!-- Node1&#45;&gt;Node2 -->
<g id="edge2" class="edge"><title>Node1&#45;&gt;Node2</title>
<path fill="none" stroke="midnightblue" d="M493.902,-255.775C426.834,-251.373 320.168,-240.35 291.172,-214 275.905,-200.125 271.818,-175.867 270.955,-159.032"/>
<polygon fill="midnightblue" stroke="midnightblue" points="274.45,-158.719 270.774,-148.783 267.451,-158.843 274.45,-158.719"/>
</g>
<!-- Node11 -->
<g id="node12" class="node"><title>Node11</title>
<g id="a_node12"><a xlink:href="../../d9/d54/IFunctionProperties_8h.html" target="_top" xlink:title="ocra/optim/IFunctionProperties.h">
<polygon fill="white" stroke="black" points="299.917,-190.5 299.917,-208.5 460.428,-208.5 460.428,-190.5 299.917,-190.5"/>
<text text-anchor="middle" x="380.172" y="-196.5" font-family="Helvetica,sans-Serif" font-size="10.00">ocra/optim/IFunctionProperties.h</text>
</a>
</g>
</g>
<!-- Node1&#45;&gt;Node11 -->
<g id="edge11" class="edge"><title>Node1&#45;&gt;Node11</title>
<path fill="none" stroke="midnightblue" d="M526.535,-250.435C497.183,-240.421 446.93,-223.276 413.631,-211.915"/>
<polygon fill="midnightblue" stroke="midnightblue" points="414.477,-208.506 403.883,-208.589 412.217,-215.131 414.477,-208.506"/>
</g>
<!-- Node13 -->
<g id="node14" class="node"><title>Node13</title>
<g id="a_node14"><a xlink:href="../../db/d47/AbilitySet_8h.html" target="_top" xlink:title="ocra/optim/AbilitySet.h">
<polygon fill="white" stroke="black" points="128.429,-190.5 128.429,-208.5 243.916,-208.5 243.916,-190.5 128.429,-190.5"/>
<text text-anchor="middle" x="186.172" y="-196.5" font-family="Helvetica,sans-Serif" font-size="10.00">ocra/optim/AbilitySet.h</text>
</a>
</g>
</g>
<!-- Node1&#45;&gt;Node13 -->
<g id="edge14" class="edge"><title>Node1&#45;&gt;Node13</title>
<path fill="none" stroke="midnightblue" d="M493.83,-250.496C434.956,-241.995 339.946,-227.893 258.172,-214 251.517,-212.869 244.527,-211.627 237.626,-210.368"/>
<polygon fill="midnightblue" stroke="midnightblue" points="238.098,-206.897 227.629,-208.523 236.828,-213.78 238.098,-206.897"/>
</g>
<!-- Node14 -->
<g id="node15" class="node"><title>Node14</title>
<g id="a_node15"><a xlink:href="../../d1/d87/CoupledInputOutputSize_8h.html" target="_top" xlink:title="ocra/optim/CoupledInputOutput\lSize.h">
<polygon fill="white" stroke="black" points="805.685,-185.5 805.685,-213.5 960.66,-213.5 960.66,-185.5 805.685,-185.5"/>
<text text-anchor="start" x="813.685" y="-201.5" font-family="Helvetica,sans-Serif" font-size="10.00">ocra/optim/CoupledInputOutput</text>
<text text-anchor="middle" x="883.172" y="-191.5" font-family="Helvetica,sans-Serif" font-size="10.00">Size.h</text>
</a>
</g>
</g>
<!-- Node1&#45;&gt;Node14 -->
<g id="edge17" class="edge"><title>Node1&#45;&gt;Node14</title>
<path fill="none" stroke="midnightblue" d="M596.125,-250.496C648.118,-241.44 733.914,-226.497 798.191,-215.302"/>
<polygon fill="midnightblue" stroke="midnightblue" points="799.062,-218.703 808.313,-213.538 797.861,-211.806 799.062,-218.703"/>
</g>
<!-- Node15 -->
<g id="node16" class="node"><title>Node15</title>
<g id="a_node16"><a xlink:href="../../d7/d90/Variable_8h.html" target="_top" xlink:title="Declaration file of the Variable class. ">
<polygon fill="white" stroke="black" points="640.295,-190.5 640.295,-208.5 750.05,-208.5 750.05,-190.5 640.295,-190.5"/>
<text text-anchor="middle" x="695.172" y="-196.5" font-family="Helvetica,sans-Serif" font-size="10.00">ocra/optim/Variable.h</text>
</a>
</g>
</g>
<!-- Node1&#45;&gt;Node15 -->
<g id="edge18" class="edge"><title>Node1&#45;&gt;Node15</title>
<path fill="none" stroke="midnightblue" d="M570.334,-250.435C594.976,-240.579 636.89,-223.813 665.285,-212.455"/>
<polygon fill="midnightblue" stroke="midnightblue" points="666.73,-215.647 674.715,-208.683 664.13,-209.147 666.73,-215.647"/>
</g>
<!-- Node16 -->
<g id="node17" class="node"><title>Node16</title>
<g id="a_node17"><a xlink:href="../../d8/ddc/ObserverSubject_8h.html" target="_top" xlink:title="Declaration file of the Observer, Subject and ObserverSubject classes. ">
<polygon fill="white" stroke="black" points="1020.03,-130.5 1020.03,-148.5 1168.31,-148.5 1168.31,-130.5 1020.03,-130.5"/>
<text text-anchor="middle" x="1094.17" y="-136.5" font-family="Helvetica,sans-Serif" font-size="10.00">ocra/optim/ObserverSubject.h</text>
</a>
</g>
</g>
<!-- Node1&#45;&gt;Node16 -->
<g id="edge48" class="edge"><title>Node1&#45;&gt;Node16</title>
<path fill="none" stroke="midnightblue" d="M606.409,-253.327C649.737,-247.758 710.296,-236.465 759.172,-214 778.476,-205.128 777.607,-193.279 797.172,-185 865.171,-156.227 948.825,-145.67 1010,-141.98"/>
<polygon fill="midnightblue" stroke="midnightblue" points="1010.22,-145.474 1020.01,-141.426 1009.83,-138.485 1010.22,-145.474"/>
</g>
<!-- Node32 -->
<g id="node33" class="node"><title>Node32</title>
<g id="a_node33"><a xlink:href="../../df/d97/NamedInstance_8h.html" target="_top" xlink:title="ocra/optim/NamedInstance.h">
<polygon fill="white" stroke="black" points="478.251,-190.5 478.251,-208.5 622.093,-208.5 622.093,-190.5 478.251,-190.5"/>
<text text-anchor="middle" x="550.172" y="-196.5" font-family="Helvetica,sans-Serif" font-size="10.00">ocra/optim/NamedInstance.h</text>
</a>
</g>
</g>
<!-- Node1&#45;&gt;Node32 -->
<g id="edge49" class="edge"><title>Node1&#45;&gt;Node32</title>
<path fill="none" stroke="midnightblue" d="M550.172,-250.435C550.172,-242.389 550.172,-229.739 550.172,-219.185"/>
<polygon fill="midnightblue" stroke="midnightblue" points="553.672,-218.872 550.172,-208.872 546.672,-218.872 553.672,-218.872"/>
</g>
<!-- Node3 -->
<g id="node4" class="node"><title>Node3</title>
<g id="a_node4"><a xlink:href="../../d5/d55/MathTypes_8h.html" target="_top" xlink:title="Declaration file of the OptimizationVariable class. ">
<polygon fill="white" stroke="black" points="72.6479,-70.5 72.6479,-88.5 183.697,-88.5 183.697,-70.5 72.6479,-70.5"/>
<text text-anchor="middle" x="128.172" y="-76.5" font-family="Helvetica,sans-Serif" font-size="10.00">ocra/util/MathTypes.h</text>
</a>
</g>
</g>
<!-- Node2&#45;&gt;Node3 -->
<g id="edge3" class="edge"><title>Node2&#45;&gt;Node3</title>
<path fill="none" stroke="midnightblue" d="M251.289,-130.435C226.987,-120.579 185.651,-103.813 157.647,-92.4549"/>
<polygon fill="midnightblue" stroke="midnightblue" points="158.93,-89.1984 148.348,-88.6831 156.299,-95.6851 158.93,-89.1984"/>
</g>
<!-- Node6 -->
<g id="node7" class="node"><title>Node6</title>
<g id="a_node7"><a xlink:href="../../de/df3/ocra__assert_8h.html" target="_top" xlink:title="ocra/optim/ocra_assert.h">
<polygon fill="white" stroke="black" points="263.148,-70.5 263.148,-88.5 389.197,-88.5 389.197,-70.5 263.148,-70.5"/>
<text text-anchor="middle" x="326.172" y="-76.5" font-family="Helvetica,sans-Serif" font-size="10.00">ocra/optim/ocra_assert.h</text>
</a>
</g>
</g>
<!-- Node2&#45;&gt;Node6 -->
<g id="edge6" class="edge"><title>Node2&#45;&gt;Node6</title>
<path fill="none" stroke="midnightblue" d="M278.82,-130.435C287.18,-121.619 300.783,-107.274 311.269,-96.2165"/>
<polygon fill="midnightblue" stroke="midnightblue" points="313.892,-98.5364 318.234,-88.8718 308.813,-93.7197 313.892,-98.5364"/>
</g>
<!-- Node8 -->
<g id="node9" class="node"><title>Node8</title>
<polygon fill="white" stroke="#bfbfbf" points="0,-70.5 0,-88.5 54.3447,-88.5 54.3447,-70.5 0,-70.5"/>
<text text-anchor="middle" x="27.1724" y="-76.5" font-family="Helvetica,sans-Serif" font-size="10.00">iostream</text>
</g>
<!-- Node2&#45;&gt;Node8 -->
<g id="edge8" class="edge"><title>Node2&#45;&gt;Node8</title>
<path fill="none" stroke="midnightblue" d="M224.003,-130.47C181.519,-122.751 117.574,-109.925 63.1724,-94 61.0383,-93.3753 58.8501,-92.6846 56.6579,-91.9556"/>
<polygon fill="midnightblue" stroke="midnightblue" points="57.7722,-88.6373 47.1774,-88.6009 55.437,-95.2364 57.7722,-88.6373"/>
</g>
<!-- Node9 -->
<g id="node10" class="node"><title>Node9</title>
<polygon fill="white" stroke="#bfbfbf" points="201.557,-70.5 201.557,-88.5 244.788,-88.5 244.788,-70.5 201.557,-70.5"/>
<text text-anchor="middle" x="223.172" y="-76.5" font-family="Helvetica,sans-Serif" font-size="10.00">vector</text>
</g>
<!-- Node2&#45;&gt;Node9 -->
<g id="edge9" class="edge"><title>Node2&#45;&gt;Node9</title>
<path fill="none" stroke="midnightblue" d="M264.498,-130.435C257.343,-121.79 245.79,-107.829 236.715,-96.8643"/>
<polygon fill="midnightblue" stroke="midnightblue" points="239.173,-94.3442 230.101,-88.8718 233.78,-98.8072 239.173,-94.3442"/>
</g>
<!-- Node10 -->
<g id="node11" class="node"><title>Node10</title>
<polygon fill="white" stroke="#bfbfbf" points="406.771,-70.5 406.771,-88.5 465.574,-88.5 465.574,-70.5 406.771,-70.5"/>
<text text-anchor="middle" x="436.172" y="-76.5" font-family="Helvetica,sans-Serif" font-size="10.00">stdexcept</text>
</g>
<!-- Node2&#45;&gt;Node10 -->
<g id="edge10" class="edge"><title>Node2&#45;&gt;Node10</title>
<path fill="none" stroke="midnightblue" d="M294.126,-130.491C319.57,-121.605 361.82,-106.826 398.172,-94 400.054,-93.3361 401.988,-92.6527 403.938,-91.9624"/>
<polygon fill="midnightblue" stroke="midnightblue" points="405.418,-95.1515 413.673,-88.5112 403.079,-88.5539 405.418,-95.1515"/>
</g>
<!-- Node4 -->
<g id="node5" class="node"><title>Node4</title>
<polygon fill="white" stroke="#bfbfbf" points="53.542,-5.5 53.542,-23.5 126.803,-23.5 126.803,-5.5 53.542,-5.5"/>
<text text-anchor="middle" x="90.1724" y="-11.5" font-family="Helvetica,sans-Serif" font-size="10.00">Eigen/Dense</text>
</g>
<!-- Node3&#45;&gt;Node4 -->
<g id="edge4" class="edge"><title>Node3&#45;&gt;Node4</title>
<path fill="none" stroke="midnightblue" d="M123.205,-70.2639C117.426,-60.6842 107.736,-44.6186 100.341,-32.3587"/>
<polygon fill="midnightblue" stroke="midnightblue" points="103.183,-30.2942 95.0213,-23.539 97.1892,-33.9096 103.183,-30.2942"/>
</g>
<!-- Node5 -->
<g id="node6" class="node"><title>Node5</title>
<polygon fill="white" stroke="#bfbfbf" points="144.557,-5.5 144.557,-23.5 187.788,-23.5 187.788,-5.5 144.557,-5.5"/>
<text text-anchor="middle" x="166.172" y="-11.5" font-family="Helvetica,sans-Serif" font-size="10.00">cmath</text>
</g>
<!-- Node3&#45;&gt;Node5 -->
<g id="edge5" class="edge"><title>Node3&#45;&gt;Node5</title>
<path fill="none" stroke="midnightblue" d="M133.14,-70.2639C138.918,-60.6842 148.609,-44.6186 156.004,-32.3587"/>
<polygon fill="midnightblue" stroke="midnightblue" points="159.156,-33.9096 161.323,-23.539 153.161,-30.2942 159.156,-33.9096"/>
</g>
<!-- Node7 -->
<g id="node8" class="node"><title>Node7</title>
<polygon fill="white" stroke="#bfbfbf" points="305.111,-5.5 305.111,-23.5 347.234,-23.5 347.234,-5.5 305.111,-5.5"/>
<text text-anchor="middle" x="326.172" y="-11.5" font-family="Helvetica,sans-Serif" font-size="10.00">cstdio</text>
</g>
<!-- Node6&#45;&gt;Node7 -->
<g id="edge7" class="edge"><title>Node6&#45;&gt;Node7</title>
<path fill="none" stroke="midnightblue" d="M326.172,-70.2639C326.172,-61.0635 326.172,-45.881 326.172,-33.8326"/>
<polygon fill="midnightblue" stroke="midnightblue" points="329.672,-33.5389 326.172,-23.539 322.672,-33.539 329.672,-33.5389"/>
</g>
<!-- Node11&#45;&gt;Node9 -->
<g id="edge13" class="edge"><title>Node11&#45;&gt;Node9</title>
<path fill="none" stroke="midnightblue" d="M376.921,-190.209C371,-176.081 357.196,-147.202 337.172,-130 306.672,-103.798 291.049,-110.027 254.172,-94 253.176,-93.5671 252.162,-93.1263 251.138,-92.681"/>
<polygon fill="midnightblue" stroke="midnightblue" points="252.424,-89.4236 241.858,-88.6427 249.631,-95.8422 252.424,-89.4236"/>
</g>
<!-- Node12 -->
<g id="node13" class="node"><title>Node12</title>
<polygon fill="white" stroke="#bfbfbf" points="492.946,-130.5 492.946,-148.5 533.399,-148.5 533.399,-130.5 492.946,-130.5"/>
<text text-anchor="middle" x="513.172" y="-136.5" font-family="Helvetica,sans-Serif" font-size="10.00">string</text>
</g>
<!-- Node11&#45;&gt;Node12 -->
<g id="edge12" class="edge"><title>Node11&#45;&gt;Node12</title>
<path fill="none" stroke="midnightblue" d="M398.665,-190.435C421.07,-180.665 459.043,-164.105 485.073,-152.754"/>
<polygon fill="midnightblue" stroke="midnightblue" points="486.64,-155.889 494.408,-148.683 483.842,-149.472 486.64,-155.889"/>
</g>
<!-- Node13&#45;&gt;Node2 -->
<g id="edge15" class="edge"><title>Node13&#45;&gt;Node2</title>
<path fill="none" stroke="midnightblue" d="M197.991,-190.435C211.616,-181.138 234.25,-165.694 250.744,-154.439"/>
<polygon fill="midnightblue" stroke="midnightblue" points="252.892,-157.211 259.18,-148.683 248.947,-151.428 252.892,-157.211"/>
</g>
<!-- Node13&#45;&gt;Node9 -->
<g id="edge16" class="edge"><title>Node13&#45;&gt;Node9</title>
<path fill="none" stroke="midnightblue" d="M188.194,-190.425C191.464,-177.553 198.252,-151.628 205.172,-130 208.574,-119.369 212.824,-107.622 216.34,-98.2409"/>
<polygon fill="midnightblue" stroke="midnightblue" points="219.632,-99.4304 219.913,-88.8393 213.089,-96.9433 219.632,-99.4304"/>
</g>
<!-- Node15&#45;&gt;Node9 -->
<g id="edge47" class="edge"><title>Node15&#45;&gt;Node9</title>
<path fill="none" stroke="midnightblue" d="M675.487,-190.43C652.465,-180.899 613.288,-164.39 580.172,-149 563.049,-141.042 560.245,-135.472 542.172,-130 418.711,-92.619 378.579,-128.101 254.172,-94 252.46,-93.5306 250.719,-92.9836 248.981,-92.3839"/>
<polygon fill="midnightblue" stroke="midnightblue" points="249.851,-88.9647 239.265,-88.5467 247.28,-95.4754 249.851,-88.9647"/>
</g>
<!-- Node15&#45;&gt;Node12 -->
<g id="edge46" class="edge"><title>Node15&#45;&gt;Node12</title>
<path fill="none" stroke="midnightblue" d="M669.866,-190.435C636.707,-179.868 578.63,-161.36 543.258,-150.088"/>
<polygon fill="midnightblue" stroke="midnightblue" points="544.084,-146.677 533.493,-146.976 541.958,-153.347 544.084,-146.677"/>
</g>
<!-- Node15&#45;&gt;Node16 -->
<g id="edge19" class="edge"><title>Node15&#45;&gt;Node16</title>
<path fill="none" stroke="midnightblue" d="M734.145,-190.457C743.928,-188.553 754.417,-186.611 764.172,-185 849.892,-170.848 948.696,-157.976 1015.68,-149.758"/>
<polygon fill="midnightblue" stroke="midnightblue" points="1016.24,-153.216 1025.74,-148.53 1015.39,-146.268 1016.24,-153.216"/>
</g>
<!-- Node27 -->
<g id="node28" class="node"><title>Node27</title>
<g id="a_node28"><a xlink:href="../../d1/de6/Composite_8h.html" target="_top" xlink:title="Utility classes and functions to implement the Composite design pattern. ">
<polygon fill="white" stroke="black" points="589.372,-130.5 589.372,-148.5 710.973,-148.5 710.973,-130.5 589.372,-130.5"/>
<text text-anchor="middle" x="650.172" y="-136.5" font-family="Helvetica,sans-Serif" font-size="10.00">ocra/optim/Composite.h</text>
</a>
</g>
</g>
<!-- Node15&#45;&gt;Node27 -->
<g id="edge33" class="edge"><title>Node15&#45;&gt;Node27</title>
<path fill="none" stroke="midnightblue" d="M688.915,-190.435C682.208,-181.79 671.376,-167.829 662.869,-156.864"/>
<polygon fill="midnightblue" stroke="midnightblue" points="665.563,-154.627 656.668,-148.872 660.032,-158.918 665.563,-154.627"/>
</g>
<!-- Node28 -->
<g id="node29" class="node"><title>Node28</title>
<polygon fill="white" stroke="#bfbfbf" points="810.463,-70.5 810.463,-88.5 929.881,-88.5 929.881,-70.5 810.463,-70.5"/>
<text text-anchor="middle" x="870.172" y="-76.5" font-family="Helvetica,sans-Serif" font-size="10.00">boost/noncopyable.hpp</text>
</g>
<!-- Node15&#45;&gt;Node28 -->
<g id="edge45" class="edge"><title>Node15&#45;&gt;Node28</title>
<path fill="none" stroke="midnightblue" d="M700.919,-190.313C711.078,-176.341 733.48,-147.691 758.172,-130 781.506,-113.283 811.381,-100.43 834.408,-92.0158"/>
<polygon fill="midnightblue" stroke="midnightblue" points="835.877,-95.2088 844.137,-88.5737 833.542,-88.6096 835.877,-95.2088"/>
</g>
<!-- Node31 -->
<g id="node32" class="node"><title>Node31</title>
<polygon fill="white" stroke="#bfbfbf" points="767.207,-130.5 767.207,-148.5 837.138,-148.5 837.138,-130.5 767.207,-130.5"/>
<text text-anchor="middle" x="802.172" y="-136.5" font-family="Helvetica,sans-Serif" font-size="10.00">Eigen/Eigen</text>
</g>
<!-- Node15&#45;&gt;Node31 -->
<g id="edge44" class="edge"><title>Node15&#45;&gt;Node31</title>
<path fill="none" stroke="midnightblue" d="M710.05,-190.435C727.678,-180.88 757.285,-164.832 778.169,-153.511"/>
<polygon fill="midnightblue" stroke="midnightblue" points="779.952,-156.526 787.076,-148.683 776.616,-150.372 779.952,-156.526"/>
</g>
<!-- Node17 -->
<g id="node18" class="node"><title>Node17</title>
<g id="a_node18"><a xlink:href="../../df/d67/ObserverSubjectBase_8h.html" target="_top" xlink:title="Declaration file of the Observer and Subject base classes. ">
<polygon fill="white" stroke="black" points="1141.2,-65.5 1141.2,-93.5 1281.14,-93.5 1281.14,-65.5 1141.2,-65.5"/>
<text text-anchor="start" x="1149.2" y="-81.5" font-family="Helvetica,sans-Serif" font-size="10.00">ocra/optim/ObserverSubject</text>
<text text-anchor="middle" x="1211.17" y="-71.5" font-family="Helvetica,sans-Serif" font-size="10.00">Base.h</text>
</a>
</g>
</g>
<!-- Node16&#45;&gt;Node17 -->
<g id="edge20" class="edge"><title>Node16&#45;&gt;Node17</title>
<path fill="none" stroke="midnightblue" d="M1110.44,-130.435C1127.18,-122.138 1153.79,-108.946 1175.46,-98.2043"/>
<polygon fill="midnightblue" stroke="midnightblue" points="1177.3,-101.198 1184.71,-93.6203 1174.19,-94.926 1177.3,-101.198"/>
</g>
<!-- Node21 -->
<g id="node22" class="node"><title>Node21</title>
<polygon fill="white" stroke="#bfbfbf" points="1354.49,-0.5 1354.49,-28.5 1453.86,-28.5 1453.86,-0.5 1354.49,-0.5"/>
<text text-anchor="start" x="1362.49" y="-16.5" font-family="Helvetica,sans-Serif" font-size="10.00">boost/type_traits/is</text>
<text text-anchor="middle" x="1404.17" y="-6.5" font-family="Helvetica,sans-Serif" font-size="10.00">_class.hpp</text>
</g>
<!-- Node16&#45;&gt;Node21 -->
<g id="edge32" class="edge"><title>Node16&#45;&gt;Node21</title>
<path fill="none" stroke="midnightblue" d="M1161.83,-130.444C1200.72,-124.051 1249.72,-112.926 1290.17,-94 1309.42,-84.9977 1310.81,-77.2504 1328.17,-65 1343.16,-54.4237 1360.24,-43.2237 1374.41,-34.1573"/>
<polygon fill="midnightblue" stroke="midnightblue" points="1376.69,-36.8554 1383.25,-28.5354 1372.93,-30.9488 1376.69,-36.8554"/>
</g>
<!-- Node22 -->
<g id="node23" class="node"><title>Node22</title>
<polygon fill="white" stroke="#bfbfbf" points="733.485,-0.5 733.485,-28.5 832.859,-28.5 832.859,-0.5 733.485,-0.5"/>
<text text-anchor="start" x="741.485" y="-16.5" font-family="Helvetica,sans-Serif" font-size="10.00">boost/type_traits/is</text>
<text text-anchor="middle" x="783.172" y="-6.5" font-family="Helvetica,sans-Serif" font-size="10.00">_base_of.hpp</text>
</g>
<!-- Node16&#45;&gt;Node22 -->
<g id="edge30" class="edge"><title>Node16&#45;&gt;Node22</title>
<path fill="none" stroke="midnightblue" d="M1092.41,-130.061C1088.69,-114.466 1078.46,-81.2439 1056.17,-65 980.473,-9.8329 938.988,-45.4386 843.183,-29.1972"/>
<polygon fill="midnightblue" stroke="midnightblue" points="843.586,-25.7125 833.116,-27.3346 842.312,-32.5956 843.586,-25.7125"/>
</g>
<!-- Node23 -->
<g id="node24" class="node"><title>Node23</title>
<polygon fill="white" stroke="#bfbfbf" points="925.754,-5.5 925.754,-23.5 1044.59,-23.5 1044.59,-5.5 925.754,-5.5"/>
<text text-anchor="middle" x="985.172" y="-11.5" font-family="Helvetica,sans-Serif" font-size="10.00">boost/static_assert.hpp</text>
</g>
<!-- Node16&#45;&gt;Node23 -->
<g id="edge29" class="edge"><title>Node16&#45;&gt;Node23</title>
<path fill="none" stroke="midnightblue" d="M1096.07,-130.37C1098.97,-115.848 1102.84,-85.0941 1089.17,-65 1076.26,-46.0153 1054.01,-34.1029 1033.4,-26.7377"/>
<polygon fill="midnightblue" stroke="midnightblue" points="1034.36,-23.3708 1023.77,-23.5705 1032.17,-30.0202 1034.36,-23.3708"/>
</g>
<!-- Node25 -->
<g id="node26" class="node"><title>Node25</title>
<g id="a_node26"><a xlink:href="../../db/ddf/ocra__events_8h.html" target="_top" xlink:title="ocra/optim/ocra_events.h">
<polygon fill="white" stroke="black" points="1337.03,-70.5 1337.03,-88.5 1465.31,-88.5 1465.31,-70.5 1337.03,-70.5"/>
<text text-anchor="middle" x="1401.17" y="-76.5" font-family="Helvetica,sans-Serif" font-size="10.00">ocra/optim/ocra_events.h</text>
</a>
</g>
</g>
<!-- Node16&#45;&gt;Node25 -->
<g id="edge28" class="edge"><title>Node16&#45;&gt;Node25</title>
<path fill="none" stroke="midnightblue" d="M1136.54,-130.496C1191.89,-120.038 1288.81,-101.728 1348.74,-90.4066"/>
<polygon fill="midnightblue" stroke="midnightblue" points="1349.57,-93.8103 1358.75,-88.5147 1348.27,-86.932 1349.57,-93.8103"/>
</g>
<!-- Node26 -->
<g id="node27" class="node"><title>Node26</title>
<polygon fill="white" stroke="#bfbfbf" points="947.485,-65.5 947.485,-93.5 1046.86,-93.5 1046.86,-65.5 947.485,-65.5"/>
<text text-anchor="start" x="955.485" y="-81.5" font-family="Helvetica,sans-Serif" font-size="10.00">boost/type_traits/is</text>
<text text-anchor="middle" x="997.172" y="-71.5" font-family="Helvetica,sans-Serif" font-size="10.00">_convertible.hpp</text>
</g>
<!-- Node16&#45;&gt;Node26 -->
<g id="edge31" class="edge"><title>Node16&#45;&gt;Node26</title>
<path fill="none" stroke="midnightblue" d="M1080.68,-130.435C1067.12,-122.324 1045.73,-109.535 1028,-98.9304"/>
<polygon fill="midnightblue" stroke="midnightblue" points="1029.49,-95.7484 1019.11,-93.6203 1025.9,-101.756 1029.49,-95.7484"/>
</g>
<!-- Node18 -->
<g id="node19" class="node"><title>Node18</title>
<polygon fill="white" stroke="#bfbfbf" points="1181.77,-5.5 1181.77,-23.5 1240.58,-23.5 1240.58,-5.5 1181.77,-5.5"/>
<text text-anchor="middle" x="1211.17" y="-11.5" font-family="Helvetica,sans-Serif" font-size="10.00">functional</text>
</g>
<!-- Node17&#45;&gt;Node18 -->
<g id="edge21" class="edge"><title>Node17&#45;&gt;Node18</title>
<path fill="none" stroke="midnightblue" d="M1211.17,-65.4464C1211.17,-56.3336 1211.17,-44.0406 1211.17,-33.9308"/>
<polygon fill="midnightblue" stroke="midnightblue" points="1214.67,-33.7301 1211.17,-23.7301 1207.67,-33.7301 1214.67,-33.7301"/>
</g>
<!-- Node19 -->
<g id="node20" class="node"><title>Node19</title>
<polygon fill="white" stroke="#bfbfbf" points="850.608,-5.5 850.608,-23.5 907.736,-23.5 907.736,-5.5 850.608,-5.5"/>
<text text-anchor="middle" x="879.172" y="-11.5" font-family="Helvetica,sans-Serif" font-size="10.00">algorithm</text>
</g>
<!-- Node17&#45;&gt;Node19 -->
<g id="edge22" class="edge"><title>Node17&#45;&gt;Node19</title>
<path fill="none" stroke="midnightblue" d="M1140.95,-70.1848C1080.93,-62.2464 992.57,-48.5802 917.172,-29 914.682,-28.3533 912.124,-27.614 909.568,-26.8222"/>
<polygon fill="midnightblue" stroke="midnightblue" points="910.468,-23.433 899.875,-23.5915 908.255,-30.0739 910.468,-23.433"/>
</g>
<!-- Node20 -->
<g id="node21" class="node"><title>Node20</title>
<polygon fill="white" stroke="#bfbfbf" points="1258.13,-5.5 1258.13,-23.5 1336.22,-23.5 1336.22,-5.5 1258.13,-5.5"/>
<text text-anchor="middle" x="1297.17" y="-11.5" font-family="Helvetica,sans-Serif" font-size="10.00">boost/any.hpp</text>
</g>
<!-- Node17&#45;&gt;Node20 -->
<g id="edge23" class="edge"><title>Node17&#45;&gt;Node20</title>
<path fill="none" stroke="midnightblue" d="M1228.99,-65.4464C1243.25,-55 1263.22,-40.3747 1277.86,-29.6496"/>
<polygon fill="midnightblue" stroke="midnightblue" points="1280.19,-32.2811 1286.19,-23.548 1276.05,-26.6341 1280.19,-32.2811"/>
</g>
<!-- Node17&#45;&gt;Node21 -->
<g id="edge24" class="edge"><title>Node17&#45;&gt;Node21</title>
<path fill="none" stroke="midnightblue" d="M1251.16,-65.4464C1281.18,-55.6477 1322.46,-42.1721 1354.58,-31.6874"/>
<polygon fill="midnightblue" stroke="midnightblue" points="1355.81,-34.9673 1364.23,-28.5369 1353.64,-28.3129 1355.81,-34.9673"/>
</g>
<!-- Node17&#45;&gt;Node22 -->
<g id="edge25" class="edge"><title>Node17&#45;&gt;Node22</title>
<path fill="none" stroke="midnightblue" d="M1141.02,-69.9286C1054.68,-59.2448 911.92,-41.1099 843.093,-29.2197"/>
<polygon fill="midnightblue" stroke="midnightblue" points="843.555,-25.7469 833.096,-27.4398 842.328,-32.6385 843.555,-25.7469"/>
</g>
<!-- Node17&#45;&gt;Node23 -->
<g id="edge26" class="edge"><title>Node17&#45;&gt;Node23</title>
<path fill="none" stroke="midnightblue" d="M1164.35,-65.4464C1122.81,-53.8667 1062.85,-37.1521 1023.94,-26.307"/>
<polygon fill="midnightblue" stroke="midnightblue" points="1024.62,-22.8618 1014.04,-23.548 1022.74,-29.6048 1024.62,-22.8618"/>
</g>
<!-- Node24 -->
<g id="node25" class="node"><title>Node24</title>
<polygon fill="white" stroke="#bfbfbf" points="1062.37,-0.5 1062.37,-28.5 1163.98,-28.5 1163.98,-0.5 1062.37,-0.5"/>
<text text-anchor="start" x="1070.37" y="-16.5" font-family="Helvetica,sans-Serif" font-size="10.00">boost/ptr_container</text>
<text text-anchor="middle" x="1113.17" y="-6.5" font-family="Helvetica,sans-Serif" font-size="10.00">/ptr_vector.hpp</text>
</g>
<!-- Node17&#45;&gt;Node24 -->
<g id="edge27" class="edge"><title>Node17&#45;&gt;Node24</title>
<path fill="none" stroke="midnightblue" d="M1190.87,-65.4464C1176.81,-56.4079 1157.88,-44.241 1142.23,-34.1787"/>
<polygon fill="midnightblue" stroke="midnightblue" points="1143.76,-31.0004 1133.45,-28.5369 1139.97,-36.8887 1143.76,-31.0004"/>
</g>
<!-- Node27&#45;&gt;Node6 -->
<g id="edge34" class="edge"><title>Node27&#45;&gt;Node6</title>
<path fill="none" stroke="midnightblue" d="M603.7,-130.445C553.115,-121.642 469.854,-107.049 398.172,-94 391.932,-92.864 385.39,-91.6582 378.901,-90.453"/>
<polygon fill="midnightblue" stroke="midnightblue" points="379.271,-86.9617 368.799,-88.5696 377.988,-93.8432 379.271,-86.9617"/>
</g>
<!-- Node27&#45;&gt;Node9 -->
<g id="edge40" class="edge"><title>Node27&#45;&gt;Node9</title>
<path fill="none" stroke="midnightblue" d="M589.184,-131.582C584.443,-131.046 579.73,-130.514 575.172,-130 432.515,-113.917 392.864,-131.073 254.172,-94 252.457,-93.5414 250.714,-93.0028 248.974,-92.4093"/>
<polygon fill="midnightblue" stroke="midnightblue" points="249.841,-88.9894 239.254,-88.5876 247.28,-95.5039 249.841,-88.9894"/>
</g>
<!-- Node27&#45;&gt;Node10 -->
<g id="edge43" class="edge"><title>Node27&#45;&gt;Node10</title>
<path fill="none" stroke="midnightblue" d="M615.071,-130.494C579.567,-122.181 523.22,-108.397 475.172,-94 472.856,-93.3059 470.472,-92.5602 468.08,-91.7885"/>
<polygon fill="midnightblue" stroke="midnightblue" points="468.935,-88.3841 458.341,-88.536 466.717,-95.0236 468.935,-88.3841"/>
</g>
<!-- Node27&#45;&gt;Node19 -->
<g id="edge41" class="edge"><title>Node27&#45;&gt;Node19</title>
<path fill="none" stroke="midnightblue" d="M664.42,-130.375C679.617,-121.632 704.321,-107.201 725.172,-94 744.648,-81.6692 748.014,-76.1809 768.172,-65 794.533,-50.379 826.039,-36.6614 848.74,-27.392"/>
<polygon fill="midnightblue" stroke="midnightblue" points="850.228,-30.566 858.194,-23.5807 847.61,-24.0737 850.228,-30.566"/>
</g>
<!-- Node27&#45;&gt;Node22 -->
<g id="edge37" class="edge"><title>Node27&#45;&gt;Node22</title>
<path fill="none" stroke="midnightblue" d="M623.648,-130.425C606.498,-123.669 585.511,-112.156 575.172,-94 568.794,-82.7997 567.183,-75.1139 575.172,-65 593.368,-41.9663 668.469,-28.5 723.219,-21.5711"/>
<polygon fill="midnightblue" stroke="midnightblue" points="723.686,-25.0403 733.187,-20.3526 722.836,-18.092 723.686,-25.0403"/>
</g>
<!-- Node27&#45;&gt;Node23 -->
<g id="edge36" class="edge"><title>Node27&#45;&gt;Node23</title>
<path fill="none" stroke="midnightblue" d="M675.216,-130.447C698.249,-122.583 732.998,-109.549 761.172,-94 780.397,-83.3899 781.353,-74.4533 801.172,-65 825.442,-53.4239 893.091,-36.5881 939.236,-25.8412"/>
<polygon fill="midnightblue" stroke="midnightblue" points="940.067,-29.2416 949.021,-23.5784 938.489,-22.4216 940.067,-29.2416"/>
</g>
<!-- Node27&#45;&gt;Node26 -->
<g id="edge38" class="edge"><title>Node27&#45;&gt;Node26</title>
<path fill="none" stroke="midnightblue" d="M711.016,-130.499C767.426,-122.772 853.898,-110.142 937.342,-94.2761"/>
<polygon fill="midnightblue" stroke="midnightblue" points="938.076,-97.6991 947.237,-92.3765 936.756,-90.8247 938.076,-97.6991"/>
</g>
<!-- Node27&#45;&gt;Node28 -->
<g id="edge35" class="edge"><title>Node27&#45;&gt;Node28</title>
<path fill="none" stroke="midnightblue" d="M680.762,-130.435C719.565,-120.206 786.596,-102.534 829.628,-91.1888"/>
<polygon fill="midnightblue" stroke="midnightblue" points="830.711,-94.5231 839.488,-88.5894 828.926,-87.7544 830.711,-94.5231"/>
</g>
<!-- Node29 -->
<g id="node30" class="node"><title>Node29</title>
<polygon fill="white" stroke="#bfbfbf" points="584.633,-65.5 584.633,-93.5 715.711,-93.5 715.711,-65.5 584.633,-65.5"/>
<text text-anchor="start" x="592.633" y="-81.5" font-family="Helvetica,sans-Serif" font-size="10.00">boost/type_traits/has</text>
<text text-anchor="middle" x="650.172" y="-71.5" font-family="Helvetica,sans-Serif" font-size="10.00">_nothrow_constructor.hpp</text>
</g>
<!-- Node27&#45;&gt;Node29 -->
<g id="edge39" class="edge"><title>Node27&#45;&gt;Node29</title>
<path fill="none" stroke="midnightblue" d="M650.172,-130.435C650.172,-123.56 650.172,-113.324 650.172,-103.906"/>
<polygon fill="midnightblue" stroke="midnightblue" points="653.672,-103.843 650.172,-93.8428 646.672,-103.843 653.672,-103.843"/>
</g>
<!-- Node30 -->
<g id="node31" class="node"><title>Node30</title>
<polygon fill="white" stroke="#bfbfbf" points="484,-70.5 484,-88.5 528.345,-88.5 528.345,-70.5 484,-70.5"/>
<text text-anchor="middle" x="506.172" y="-76.5" font-family="Helvetica,sans-Serif" font-size="10.00">iosfwd</text>
</g>
<!-- Node27&#45;&gt;Node30 -->
<g id="edge42" class="edge"><title>Node27&#45;&gt;Node30</title>
<path fill="none" stroke="midnightblue" d="M630.15,-130.435C605.678,-120.579 564.053,-103.813 535.854,-92.4549"/>
<polygon fill="midnightblue" stroke="midnightblue" points="537.073,-89.1728 526.489,-88.6831 534.457,-95.6659 537.073,-89.1728"/>
</g>
<!-- Node32&#45;&gt;Node12 -->
<g id="edge50" class="edge"><title>Node32&#45;&gt;Node12</title>
<path fill="none" stroke="midnightblue" d="M545.028,-190.435C539.622,-181.961 530.958,-168.38 524.029,-157.519"/>
<polygon fill="midnightblue" stroke="midnightblue" points="526.842,-155.42 518.513,-148.872 520.94,-159.185 526.842,-155.42"/>
</g>
</g>
</svg>
