<?xml version="1.0" encoding="UTF-8" standalone="no"?>
<!DOCTYPE svg PUBLIC "-//W3C//DTD SVG 1.1//EN"
 "http://www.w3.org/Graphics/SVG/1.1/DTD/svg11.dtd">
<!-- Generated by graphviz version 2.38.0 (20140413.2041)
 -->
<!-- Title: Composite.h Pages: 1 -->
<svg width="1067pt" height="147pt"
 viewBox="0.00 0.00 1067.43 147.00" xmlns="http://www.w3.org/2000/svg" xmlns:xlink="http://www.w3.org/1999/xlink">
<g id="graph0" class="graph" transform="scale(1 1) rotate(0) translate(4 143)">
<title>Composite.h</title>
<polygon fill="white" stroke="none" points="-4,4 -4,-143 1063.43,-143 1063.43,4 -4,4"/>
<!-- Node0 -->
<g id="node1" class="node"><title>Node0</title>
<polygon fill="#bfbfbf" stroke="black" points="614.956,-120.5 614.956,-138.5 687.093,-138.5 687.093,-120.5 614.956,-120.5"/>
<text text-anchor="middle" x="651.024" y="-126.5" font-family="Helvetica,sans-Serif" font-size="10.00">Composite.h</text>
</g>
<!-- Node1 -->
<g id="node2" class="node"><title>Node1</title>
<g id="a_node2"><a xlink:href="../../de/df3/ocra__assert_8h.html" target="_top" xlink:title="ocra/optim/ocra_assert.h">
<polygon fill="white" stroke="black" points="0,-60.5 0,-78.5 126.049,-78.5 126.049,-60.5 0,-60.5"/>
<text text-anchor="middle" x="63.0244" y="-66.5" font-family="Helvetica,sans-Serif" font-size="10.00">ocra/optim/ocra_assert.h</text>
</a>
</g>
</g>
<!-- Node0&#45;&gt;Node1 -->
<g id="edge1" class="edge"><title>Node0&#45;&gt;Node1</title>
<path fill="none" stroke="midnightblue" d="M614.917,-126.623C530.604,-121.971 314.317,-108.478 135.024,-84 127.577,-82.9832 119.731,-81.7164 112.067,-80.3692"/>
<polygon fill="midnightblue" stroke="midnightblue" points="112.61,-76.9107 102.146,-78.566 111.359,-83.7979 112.61,-76.9107"/>
</g>
<!-- Node3 -->
<g id="node4" class="node"><title>Node3</title>
<polygon fill="white" stroke="#bfbfbf" points="144.315,-60.5 144.315,-78.5 263.733,-78.5 263.733,-60.5 144.315,-60.5"/>
<text text-anchor="middle" x="204.024" y="-66.5" font-family="Helvetica,sans-Serif" font-size="10.00">boost/noncopyable.hpp</text>
</g>
<!-- Node0&#45;&gt;Node3 -->
<g id="edge3" class="edge"><title>Node0&#45;&gt;Node3</title>
<path fill="none" stroke="midnightblue" d="M614.938,-125.174C547.541,-118.757 398.043,-103.56 273.024,-84 266.299,-82.9478 259.23,-81.7134 252.285,-80.4262"/>
<polygon fill="midnightblue" stroke="midnightblue" points="252.733,-76.9486 242.255,-78.5174 251.424,-83.8252 252.733,-76.9486"/>
</g>
<!-- Node4 -->
<g id="node5" class="node"><title>Node4</title>
<polygon fill="white" stroke="#bfbfbf" points="281.606,-60.5 281.606,-78.5 400.443,-78.5 400.443,-60.5 281.606,-60.5"/>
<text text-anchor="middle" x="341.024" y="-66.5" font-family="Helvetica,sans-Serif" font-size="10.00">boost/static_assert.hpp</text>
</g>
<!-- Node0&#45;&gt;Node4 -->
<g id="edge4" class="edge"><title>Node0&#45;&gt;Node4</title>
<path fill="none" stroke="midnightblue" d="M614.915,-122.024C567.593,-113.5 482.032,-97.9588 409.024,-84 403.193,-82.885 397.084,-81.6985 391.021,-80.5094"/>
<polygon fill="midnightblue" stroke="midnightblue" points="391.406,-77.0181 380.918,-78.518 390.052,-83.8859 391.406,-77.0181"/>
</g>
<!-- Node5 -->
<g id="node6" class="node"><title>Node5</title>
<polygon fill="white" stroke="#bfbfbf" points="418.337,-55.5 418.337,-83.5 517.711,-83.5 517.711,-55.5 418.337,-55.5"/>
<text text-anchor="start" x="426.337" y="-71.5" font-family="Helvetica,sans-Serif" font-size="10.00">boost/type_traits/is</text>
<text text-anchor="middle" x="468.024" y="-61.5" font-family="Helvetica,sans-Serif" font-size="10.00">_base_of.hpp</text>
</g>
<!-- Node0&#45;&gt;Node5 -->
<g id="edge5" class="edge"><title>Node0&#45;&gt;Node5</title>
<path fill="none" stroke="midnightblue" d="M625.579,-120.435C598.137,-111.738 553.723,-97.6614 519.034,-86.6671"/>
<polygon fill="midnightblue" stroke="midnightblue" points="519.662,-83.1945 509.072,-83.5096 517.547,-89.8673 519.662,-83.1945"/>
</g>
<!-- Node6 -->
<g id="node7" class="node"><title>Node6</title>
<polygon fill="white" stroke="#bfbfbf" points="535.337,-55.5 535.337,-83.5 634.711,-83.5 634.711,-55.5 535.337,-55.5"/>
<text text-anchor="start" x="543.337" y="-71.5" font-family="Helvetica,sans-Serif" font-size="10.00">boost/type_traits/is</text>
<text text-anchor="middle" x="585.024" y="-61.5" font-family="Helvetica,sans-Serif" font-size="10.00">_convertible.hpp</text>
</g>
<!-- Node0&#45;&gt;Node6 -->
<g id="edge6" class="edge"><title>Node0&#45;&gt;Node6</title>
<path fill="none" stroke="midnightblue" d="M641.847,-120.435C633.099,-112.747 619.567,-100.855 607.903,-90.605"/>
<polygon fill="midnightblue" stroke="midnightblue" points="610.03,-87.8149 600.208,-83.8428 605.409,-93.073 610.03,-87.8149"/>
</g>
<!-- Node7 -->
<g id="node8" class="node"><title>Node7</title>
<polygon fill="white" stroke="#bfbfbf" points="652.485,-55.5 652.485,-83.5 783.563,-83.5 783.563,-55.5 652.485,-55.5"/>
<text text-anchor="start" x="660.485" y="-71.5" font-family="Helvetica,sans-Serif" font-size="10.00">boost/type_traits/has</text>
<text text-anchor="middle" x="718.024" y="-61.5" font-family="Helvetica,sans-Serif" font-size="10.00">_nothrow_constructor.hpp</text>
</g>
<!-- Node0&#45;&gt;Node7 -->
<g id="edge7" class="edge"><title>Node0&#45;&gt;Node7</title>
<path fill="none" stroke="midnightblue" d="M660.34,-120.435C669.28,-112.697 683.14,-100.699 695.033,-90.4029"/>
<polygon fill="midnightblue" stroke="midnightblue" points="697.598,-92.8116 702.868,-83.6203 693.017,-87.5191 697.598,-92.8116"/>
</g>
<!-- Node8 -->
<g id="node9" class="node"><title>Node8</title>
<polygon fill="white" stroke="#bfbfbf" points="801.409,-60.5 801.409,-78.5 844.64,-78.5 844.64,-60.5 801.409,-60.5"/>
<text text-anchor="middle" x="823.024" y="-66.5" font-family="Helvetica,sans-Serif" font-size="10.00">vector</text>
</g>
<!-- Node0&#45;&gt;Node8 -->
<g id="edge8" class="edge"><title>Node0&#45;&gt;Node8</title>
<path fill="none" stroke="midnightblue" d="M680.198,-120.462C709.149,-112.227 754.628,-98.5962 793.024,-84 794.226,-83.5434 795.447,-83.0627 796.677,-82.5658"/>
<polygon fill="midnightblue" stroke="midnightblue" points="798.217,-85.7138 806.038,-78.5667 795.467,-79.2766 798.217,-85.7138"/>
</g>
<!-- Node9 -->
<g id="node10" class="node"><title>Node9</title>
<polygon fill="white" stroke="#bfbfbf" points="862.46,-60.5 862.46,-78.5 919.588,-78.5 919.588,-60.5 862.46,-60.5"/>
<text text-anchor="middle" x="891.024" y="-66.5" font-family="Helvetica,sans-Serif" font-size="10.00">algorithm</text>
</g>
<!-- Node0&#45;&gt;Node9 -->
<g id="edge9" class="edge"><title>Node0&#45;&gt;Node9</title>
<path fill="none" stroke="midnightblue" d="M687.328,-122.065C728.23,-114.463 796.511,-100.714 854.024,-84 856.296,-83.3399 858.629,-82.6116 860.966,-81.8457"/>
<polygon fill="midnightblue" stroke="midnightblue" points="862.139,-85.1434 870.443,-78.5634 859.848,-78.5288 862.139,-85.1434"/>
</g>
<!-- Node10 -->
<g id="node11" class="node"><title>Node10</title>
<polygon fill="white" stroke="#bfbfbf" points="937.852,-60.5 937.852,-78.5 982.197,-78.5 982.197,-60.5 937.852,-60.5"/>
<text text-anchor="middle" x="960.024" y="-66.5" font-family="Helvetica,sans-Serif" font-size="10.00">iosfwd</text>
</g>
<!-- Node0&#45;&gt;Node10 -->
<g id="edge10" class="edge"><title>Node0&#45;&gt;Node10</title>
<path fill="none" stroke="midnightblue" d="M687.208,-125.638C740.877,-120.74 844.351,-108.782 929.024,-84 930.69,-83.5126 932.384,-82.9577 934.078,-82.3574"/>
<polygon fill="midnightblue" stroke="midnightblue" points="935.582,-85.5262 943.579,-78.5771 932.994,-79.0222 935.582,-85.5262"/>
</g>
<!-- Node11 -->
<g id="node12" class="node"><title>Node11</title>
<polygon fill="white" stroke="#bfbfbf" points="1000.62,-60.5 1000.62,-78.5 1059.43,-78.5 1059.43,-60.5 1000.62,-60.5"/>
<text text-anchor="middle" x="1030.02" y="-66.5" font-family="Helvetica,sans-Serif" font-size="10.00">stdexcept</text>
</g>
<!-- Node0&#45;&gt;Node11 -->
<g id="edge11" class="edge"><title>Node0&#45;&gt;Node11</title>
<path fill="none" stroke="midnightblue" d="M687.191,-126.188C749.792,-121.652 882.096,-109.699 991.024,-84 993.836,-83.3367 996.729,-82.5476 999.608,-81.6887"/>
<polygon fill="midnightblue" stroke="midnightblue" points="1000.77,-84.9915 1009.21,-78.5812 998.613,-78.3319 1000.77,-84.9915"/>
</g>
<!-- Node2 -->
<g id="node3" class="node"><title>Node2</title>
<polygon fill="white" stroke="#bfbfbf" points="41.9629,-0.5 41.9629,-18.5 84.0859,-18.5 84.0859,-0.5 41.9629,-0.5"/>
<text text-anchor="middle" x="63.0244" y="-6.5" font-family="Helvetica,sans-Serif" font-size="10.00">cstdio</text>
</g>
<!-- Node1&#45;&gt;Node2 -->
<g id="edge2" class="edge"><title>Node1&#45;&gt;Node2</title>
<path fill="none" stroke="midnightblue" d="M63.0244,-60.4353C63.0244,-52.3891 63.0244,-39.7388 63.0244,-29.1846"/>
<polygon fill="midnightblue" stroke="midnightblue" points="66.5245,-28.8717 63.0244,-18.8718 59.5245,-28.8718 66.5245,-28.8717"/>
</g>
</g>
</svg>
