<?xml version="1.0" encoding="UTF-8" standalone="no"?>
<!DOCTYPE svg PUBLIC "-//W3C//DTD SVG 1.1//EN"
 "http://www.w3.org/Graphics/SVG/1.1/DTD/svg11.dtd">
<!-- Generated by graphviz version 2.38.0 (20140413.2041)
 -->
<!-- Title: gOcraSegCartesianTaskManager.h Pages: 1 -->
<svg width="356pt" height="157pt"
 viewBox="0.00 0.00 355.69 157.00" xmlns="http://www.w3.org/2000/svg" xmlns:xlink="http://www.w3.org/1999/xlink">
<g id="graph0" class="graph" transform="scale(1 1) rotate(0) translate(4 153)">
<title>gOcraSegCartesianTaskManager.h</title>
<polygon fill="white" stroke="none" points="-4,4 -4,-153 351.689,-153 351.689,4 -4,4"/>
<!-- Node105 -->
<g id="node1" class="node"><title>Node105</title>
<polygon fill="#bfbfbf" stroke="black" points="78.7637,-130.5 78.7637,-148.5 250.408,-148.5 250.408,-130.5 78.7637,-130.5"/>
<text text-anchor="middle" x="164.586" y="-136.5" font-family="Helvetica,sans-Serif" font-size="10.00">gOcraSegCartesianTaskManager.h</text>
</g>
<!-- Node106 -->
<g id="node2" class="node"><title>Node106</title>
<g id="a_node2"><a xlink:href="../../d4/d79/gOcraTaskManagerCollectionBase_8h.html" target="_top" xlink:title="gOcraTaskManagerCollection\lBase.h">
<polygon fill="white" stroke="black" points="0,-65.5 0,-93.5 147.172,-93.5 147.172,-65.5 0,-65.5"/>
<text text-anchor="start" x="8" y="-81.5" font-family="Helvetica,sans-Serif" font-size="10.00">gOcraTaskManagerCollection</text>
<text text-anchor="middle" x="73.5859" y="-71.5" font-family="Helvetica,sans-Serif" font-size="10.00">Base.h</text>
</a>
</g>
</g>
<!-- Node105&#45;&gt;Node106 -->
<g id="edge1" class="edge"><title>Node105&#45;&gt;Node106</title>
<path fill="none" stroke="midnightblue" d="M143.419,-125.009C128.588,-115.557 108.872,-102.99 94.1713,-93.6203"/>
<polygon fill="midnightblue" stroke="midnightblue" points="141.619,-128.012 151.933,-130.435 145.381,-122.109 141.619,-128.012"/>
</g>
<!-- Node108 -->
<g id="node4" class="node"><title>Node108</title>
<g id="a_node4"><a xlink:href="../../dd/d9e/gOcraSegCartesianTaskManager_8cpp.html" target="_top" xlink:title="gOcraSegCartesianTaskManager.cpp">
<polygon fill="white" stroke="black" points="165.483,-70.5 165.483,-88.5 347.689,-88.5 347.689,-70.5 165.483,-70.5"/>
<text text-anchor="middle" x="256.586" y="-76.5" font-family="Helvetica,sans-Serif" font-size="10.00">gOcraSegCartesianTaskManager.cpp</text>
</a>
</g>
</g>
<!-- Node105&#45;&gt;Node108 -->
<g id="edge3" class="edge"><title>Node105&#45;&gt;Node108</title>
<path fill="none" stroke="midnightblue" d="M185.977,-125.014C203.811,-113.771 228.639,-98.1187 243.606,-88.6831"/>
<polygon fill="midnightblue" stroke="midnightblue" points="183.971,-122.142 177.378,-130.435 187.704,-128.063 183.971,-122.142"/>
</g>
<!-- Node107 -->
<g id="node3" class="node"><title>Node107</title>
<g id="a_node3"><a xlink:href="../../de/d9f/gOcraTaskManagerCollectionBase_8cpp.html" target="_top" xlink:title="gOcraTaskManagerCollection\lBase.cpp">
<polygon fill="white" stroke="black" points="0,-0.5 0,-28.5 147.172,-28.5 147.172,-0.5 0,-0.5"/>
<text text-anchor="start" x="8" y="-16.5" font-family="Helvetica,sans-Serif" font-size="10.00">gOcraTaskManagerCollection</text>
<text text-anchor="middle" x="73.5859" y="-6.5" font-family="Helvetica,sans-Serif" font-size="10.00">Base.cpp</text>
</a>
</g>
</g>
<!-- Node106&#45;&gt;Node107 -->
<g id="edge2" class="edge"><title>Node106&#45;&gt;Node107</title>
<path fill="none" stroke="midnightblue" d="M73.5859,-55.1641C73.5859,-46.1693 73.5859,-36.2205 73.5859,-28.5369"/>
<polygon fill="midnightblue" stroke="midnightblue" points="70.086,-55.4463 73.5859,-65.4464 77.086,-55.4464 70.086,-55.4463"/>
</g>
</g>
</svg>
