<?xml version="1.0" encoding="UTF-8" standalone="no"?>
<!DOCTYPE svg PUBLIC "-//W3C//DTD SVG 1.1//EN"
 "http://www.w3.org/Graphics/SVG/1.1/DTD/svg11.dtd">
<!-- Generated by graphviz version 2.38.0 (20140413.2041)
 -->
<!-- Title: ocra::TorqueLimitConstraint Pages: 1 -->
<svg width="165pt" height="147pt"
 viewBox="0.00 0.00 164.63 147.00" xmlns="http://www.w3.org/2000/svg" xmlns:xlink="http://www.w3.org/1999/xlink">
<g id="graph0" class="graph" transform="scale(1 1) rotate(0) translate(4 143)">
<title>ocra::TorqueLimitConstraint</title>
<polygon fill="white" stroke="none" points="-4,4 -4,-143 160.635,-143 160.635,4 -4,4"/>
<!-- Node3 -->
<g id="node1" class="node"><title>Node3</title>
<polygon fill="#bfbfbf" stroke="black" points="9.17969,-0.5 9.17969,-18.5 147.455,-18.5 147.455,-0.5 9.17969,-0.5"/>
<text text-anchor="middle" x="78.3174" y="-6.5" font-family="Helvetica,sans-Serif" font-size="10.00">ocra::TorqueLimitConstraint</text>
</g>
<!-- Node4 -->
<g id="node2" class="node"><title>Node4</title>
<g id="a_node2"><a xlink:href="../../dc/d5c/classocra_1_1Constraint.html" target="_top" xlink:title="Constraint class. ">
<polygon fill="white" stroke="black" points="33.6304,-55.5 33.6304,-73.5 123.004,-73.5 123.004,-55.5 33.6304,-55.5"/>
<text text-anchor="middle" x="78.3174" y="-61.5" font-family="Helvetica,sans-Serif" font-size="10.00">LinearConstraint</text>
</a>
</g>
</g>
<!-- Node4&#45;&gt;Node3 -->
<g id="edge1" class="edge"><title>Node4&#45;&gt;Node3</title>
<path fill="none" stroke="midnightblue" d="M78.3174,-45.1746C78.3174,-36.0945 78.3174,-25.5949 78.3174,-18.5496"/>
<polygon fill="midnightblue" stroke="midnightblue" points="74.8175,-45.2187 78.3174,-55.2188 81.8175,-45.2188 74.8175,-45.2187"/>
</g>
<!-- Node5 -->
<g id="node3" class="node"><title>Node5</title>
<g id="a_node3"><a xlink:href="../../d1/d29/structocra_1_1FunctionInterfaceMapping.html" target="_top" xlink:title="ocra::FunctionInterfaceMapping\l\&lt; Constraint\&lt; T \&gt; \&gt;">
<polygon fill="white" stroke="black" points="0,-110.5 0,-138.5 156.635,-138.5 156.635,-110.5 0,-110.5"/>
<text text-anchor="start" x="8" y="-126.5" font-family="Helvetica,sans-Serif" font-size="10.00">ocra::FunctionInterfaceMapping</text>
<text text-anchor="middle" x="78.3174" y="-116.5" font-family="Helvetica,sans-Serif" font-size="10.00">&lt; Constraint&lt; T &gt; &gt;</text>
</a>
</g>
</g>
<!-- Node5&#45;&gt;Node4 -->
<g id="edge2" class="edge"><title>Node5&#45;&gt;Node4</title>
<path fill="none" stroke="midnightblue" d="M78.3174,-100.323C78.3174,-90.936 78.3174,-80.7002 78.3174,-73.7715"/>
<polygon fill="midnightblue" stroke="midnightblue" points="74.8175,-100.339 78.3174,-110.339 81.8175,-100.339 74.8175,-100.339"/>
</g>
</g>
</svg>
