<?xml version="1.0" encoding="UTF-8" standalone="no"?>
<!DOCTYPE svg PUBLIC "-//W3C//DTD SVG 1.1//EN"
 "http://www.w3.org/Graphics/SVG/1.1/DTD/svg11.dtd">
<!-- Generated by graphviz version 2.38.0 (20140413.2041)
 -->
<!-- Title: FunctionUtilities.cpp Pages: 1 -->
<svg width="1492pt" height="387pt"
 viewBox="0.00 0.00 1492.34 387.00" xmlns="http://www.w3.org/2000/svg" xmlns:xlink="http://www.w3.org/1999/xlink">
<g id="graph0" class="graph" transform="scale(1 1) rotate(0) translate(4 383)">
<title>FunctionUtilities.cpp</title>
<polygon fill="white" stroke="none" points="-4,4 -4,-383 1488.34,-383 1488.34,4 -4,4"/>
<!-- Node0 -->
<g id="node1" class="node"><title>Node0</title>
<polygon fill="#bfbfbf" stroke="black" points="844.889,-360.5 844.889,-378.5 950.372,-378.5 950.372,-360.5 844.889,-360.5"/>
<text text-anchor="middle" x="897.63" y="-366.5" font-family="Helvetica,sans-Serif" font-size="10.00">FunctionUtilities.cpp</text>
</g>
<!-- Node1 -->
<g id="node2" class="node"><title>Node1</title>
<g id="a_node2"><a xlink:href="../../d1/d68/FunctionUtilities_8h.html" target="_top" xlink:title="Declaration file of the FunctionProperties class. ">
<polygon fill="white" stroke="black" points="663.438,-305.5 663.438,-323.5 807.822,-323.5 807.822,-305.5 663.438,-305.5"/>
<text text-anchor="middle" x="735.63" y="-311.5" font-family="Helvetica,sans-Serif" font-size="10.00">ocra/optim/FunctionUtilities.h</text>
</a>
</g>
</g>
<!-- Node0&#45;&gt;Node1 -->
<g id="edge1" class="edge"><title>Node0&#45;&gt;Node1</title>
<path fill="none" stroke="midnightblue" d="M873.026,-360.45C845.471,-351.436 800.63,-336.765 769.71,-326.65"/>
<polygon fill="midnightblue" stroke="midnightblue" points="770.793,-323.321 760.2,-323.538 768.616,-329.974 770.793,-323.321"/>
</g>
<!-- Node16 -->
<g id="node17" class="node"><title>Node16</title>
<g id="a_node17"><a xlink:href="../../d7/d90/Variable_8h.html" target="_top" xlink:title="Declaration file of the Variable class. ">
<polygon fill="white" stroke="black" points="874.753,-190.5 874.753,-208.5 984.508,-208.5 984.508,-190.5 874.753,-190.5"/>
<text text-anchor="middle" x="929.63" y="-196.5" font-family="Helvetica,sans-Serif" font-size="10.00">ocra/optim/Variable.h</text>
</a>
</g>
</g>
<!-- Node0&#45;&gt;Node16 -->
<g id="edge52" class="edge"><title>Node0&#45;&gt;Node16</title>
<path fill="none" stroke="midnightblue" d="M899.174,-360.397C904.063,-334.729 919.291,-254.781 926.182,-218.605"/>
<polygon fill="midnightblue" stroke="midnightblue" points="929.669,-219 928.102,-208.522 922.793,-217.69 929.669,-219"/>
</g>
<!-- Node34 -->
<g id="node35" class="node"><title>Node34</title>
<polygon fill="white" stroke="#bfbfbf" points="925.85,-305.5 925.85,-323.5 977.411,-323.5 977.411,-305.5 925.85,-305.5"/>
<text text-anchor="middle" x="951.63" y="-311.5" font-family="Helvetica,sans-Serif" font-size="10.00">sstream</text>
</g>
<!-- Node0&#45;&gt;Node34 -->
<g id="edge53" class="edge"><title>Node0&#45;&gt;Node34</title>
<path fill="none" stroke="midnightblue" d="M906.068,-360.219C914.12,-352.316 926.44,-340.224 936.24,-330.606"/>
<polygon fill="midnightblue" stroke="midnightblue" points="938.744,-333.052 943.429,-323.55 933.84,-328.056 938.744,-333.052"/>
</g>
<!-- Node2 -->
<g id="node3" class="node"><title>Node2</title>
<g id="a_node3"><a xlink:href="../../df/df5/Function_8h.html" target="_top" xlink:title="Declaration file of the Function class. ">
<polygon fill="white" stroke="black" points="554.552,-250.5 554.552,-268.5 666.709,-268.5 666.709,-250.5 554.552,-250.5"/>
<text text-anchor="middle" x="610.63" y="-256.5" font-family="Helvetica,sans-Serif" font-size="10.00">ocra/optim/Function.h</text>
</a>
</g>
</g>
<!-- Node1&#45;&gt;Node2 -->
<g id="edge2" class="edge"><title>Node1&#45;&gt;Node2</title>
<path fill="none" stroke="midnightblue" d="M716.646,-305.45C695.996,-296.695 662.766,-282.606 639.014,-272.535"/>
<polygon fill="midnightblue" stroke="midnightblue" points="640.367,-269.307 629.794,-268.625 637.634,-275.751 640.367,-269.307"/>
</g>
<!-- Node3 -->
<g id="node4" class="node"><title>Node3</title>
<g id="a_node4"><a xlink:href="../../de/d94/IFunction_8h.html" target="_top" xlink:title="Declaration file of the IFunction interface. ">
<polygon fill="white" stroke="black" points="190.163,-130.5 190.163,-148.5 305.098,-148.5 305.098,-130.5 190.163,-130.5"/>
<text text-anchor="middle" x="247.63" y="-136.5" font-family="Helvetica,sans-Serif" font-size="10.00">ocra/optim/IFunction.h</text>
</a>
</g>
</g>
<!-- Node2&#45;&gt;Node3 -->
<g id="edge3" class="edge"><title>Node2&#45;&gt;Node3</title>
<path fill="none" stroke="midnightblue" d="M554.475,-256.798C443.624,-252.857 205.228,-241.275 180.63,-214 171.998,-204.429 174.539,-196.359 180.63,-185 188.298,-170.702 202.807,-160.216 216.368,-153.027"/>
<polygon fill="midnightblue" stroke="midnightblue" points="218.054,-156.099 225.508,-148.571 214.986,-149.807 218.054,-156.099"/>
</g>
<!-- Node12 -->
<g id="node13" class="node"><title>Node12</title>
<g id="a_node13"><a xlink:href="../../d9/d54/IFunctionProperties_8h.html" target="_top" xlink:title="ocra/optim/IFunctionProperties.h">
<polygon fill="white" stroke="black" points="323.375,-190.5 323.375,-208.5 483.886,-208.5 483.886,-190.5 323.375,-190.5"/>
<text text-anchor="middle" x="403.63" y="-196.5" font-family="Helvetica,sans-Serif" font-size="10.00">ocra/optim/IFunctionProperties.h</text>
</a>
</g>
</g>
<!-- Node2&#45;&gt;Node12 -->
<g id="edge12" class="edge"><title>Node2&#45;&gt;Node12</title>
<path fill="none" stroke="midnightblue" d="M581.848,-250.435C545.492,-240.249 482.799,-222.683 442.292,-211.333"/>
<polygon fill="midnightblue" stroke="midnightblue" points="443.075,-207.917 432.501,-208.589 441.186,-214.658 443.075,-207.917"/>
</g>
<!-- Node14 -->
<g id="node15" class="node"><title>Node14</title>
<g id="a_node15"><a xlink:href="../../db/d47/AbilitySet_8h.html" target="_top" xlink:title="ocra/optim/AbilitySet.h">
<polygon fill="white" stroke="black" points="189.887,-190.5 189.887,-208.5 305.374,-208.5 305.374,-190.5 189.887,-190.5"/>
<text text-anchor="middle" x="247.63" y="-196.5" font-family="Helvetica,sans-Serif" font-size="10.00">ocra/optim/AbilitySet.h</text>
</a>
</g>
</g>
<!-- Node2&#45;&gt;Node14 -->
<g id="edge15" class="edge"><title>Node2&#45;&gt;Node14</title>
<path fill="none" stroke="midnightblue" d="M554.301,-250.879C494.65,-242.611 397.8,-228.622 314.63,-214 308.495,-212.921 302.058,-211.717 295.702,-210.485"/>
<polygon fill="midnightblue" stroke="midnightblue" points="296.322,-207.04 285.834,-208.538 294.968,-213.908 296.322,-207.04"/>
</g>
<!-- Node15 -->
<g id="node16" class="node"><title>Node15</title>
<g id="a_node16"><a xlink:href="../../d1/d87/CoupledInputOutputSize_8h.html" target="_top" xlink:title="ocra/optim/CoupledInputOutput\lSize.h">
<polygon fill="white" stroke="black" points="502.143,-185.5 502.143,-213.5 657.118,-213.5 657.118,-185.5 502.143,-185.5"/>
<text text-anchor="start" x="510.143" y="-201.5" font-family="Helvetica,sans-Serif" font-size="10.00">ocra/optim/CoupledInputOutput</text>
<text text-anchor="middle" x="579.63" y="-191.5" font-family="Helvetica,sans-Serif" font-size="10.00">Size.h</text>
</a>
</g>
</g>
<!-- Node2&#45;&gt;Node15 -->
<g id="edge18" class="edge"><title>Node2&#45;&gt;Node15</title>
<path fill="none" stroke="midnightblue" d="M606.32,-250.435C602.487,-243.265 596.7,-232.437 591.493,-222.695"/>
<polygon fill="midnightblue" stroke="midnightblue" points="594.562,-221.012 586.762,-213.843 588.389,-224.312 594.562,-221.012"/>
</g>
<!-- Node2&#45;&gt;Node16 -->
<g id="edge19" class="edge"><title>Node2&#45;&gt;Node16</title>
<path fill="none" stroke="midnightblue" d="M657.21,-250.453C707.452,-241.717 789.777,-227.236 860.63,-214 866.549,-212.894 872.749,-211.713 878.901,-210.528"/>
<polygon fill="midnightblue" stroke="midnightblue" points="880.003,-213.879 889.153,-208.539 878.67,-207.007 880.003,-213.879"/>
</g>
<!-- Node17 -->
<g id="node18" class="node"><title>Node17</title>
<g id="a_node18"><a xlink:href="../../d8/ddc/ObserverSubject_8h.html" target="_top" xlink:title="Declaration file of the Observer, Subject and ObserverSubject classes. ">
<polygon fill="white" stroke="black" points="764.49,-130.5 764.49,-148.5 912.771,-148.5 912.771,-130.5 764.49,-130.5"/>
<text text-anchor="middle" x="838.63" y="-136.5" font-family="Helvetica,sans-Serif" font-size="10.00">ocra/optim/ObserverSubject.h</text>
</a>
</g>
</g>
<!-- Node2&#45;&gt;Node17 -->
<g id="edge49" class="edge"><title>Node2&#45;&gt;Node17</title>
<path fill="none" stroke="midnightblue" d="M666.94,-254.181C723.74,-248.606 806.038,-236.785 827.63,-214 841.476,-199.39 842.532,-175.293 841.244,-158.696"/>
<polygon fill="midnightblue" stroke="midnightblue" points="844.706,-158.158 840.107,-148.613 837.75,-158.942 844.706,-158.158"/>
</g>
<!-- Node33 -->
<g id="node34" class="node"><title>Node33</title>
<g id="a_node34"><a xlink:href="../../df/d97/NamedInstance_8h.html" target="_top" xlink:title="ocra/optim/NamedInstance.h">
<polygon fill="white" stroke="black" points="674.709,-190.5 674.709,-208.5 818.551,-208.5 818.551,-190.5 674.709,-190.5"/>
<text text-anchor="middle" x="746.63" y="-196.5" font-family="Helvetica,sans-Serif" font-size="10.00">ocra/optim/NamedInstance.h</text>
</a>
</g>
</g>
<!-- Node2&#45;&gt;Node33 -->
<g id="edge50" class="edge"><title>Node2&#45;&gt;Node33</title>
<path fill="none" stroke="midnightblue" d="M629.541,-250.435C652.451,-240.665 691.28,-224.105 717.897,-212.754"/>
<polygon fill="midnightblue" stroke="midnightblue" points="719.617,-215.826 727.442,-208.683 716.871,-209.387 719.617,-215.826"/>
</g>
<!-- Node4 -->
<g id="node5" class="node"><title>Node4</title>
<g id="a_node5"><a xlink:href="../../d5/d55/MathTypes_8h.html" target="_top" xlink:title="Declaration file of the OptimizationVariable class. ">
<polygon fill="white" stroke="black" points="19.106,-70.5 19.106,-88.5 130.155,-88.5 130.155,-70.5 19.106,-70.5"/>
<text text-anchor="middle" x="74.6304" y="-76.5" font-family="Helvetica,sans-Serif" font-size="10.00">ocra/util/MathTypes.h</text>
</a>
</g>
</g>
<!-- Node3&#45;&gt;Node4 -->
<g id="edge4" class="edge"><title>Node3&#45;&gt;Node4</title>
<path fill="none" stroke="midnightblue" d="M223.575,-130.435C193.577,-120.378 142.124,-103.128 108.242,-91.7686"/>
<polygon fill="midnightblue" stroke="midnightblue" points="109.353,-88.4498 98.7592,-88.5894 107.128,-95.0867 109.353,-88.4498"/>
</g>
<!-- Node7 -->
<g id="node8" class="node"><title>Node7</title>
<g id="a_node8"><a xlink:href="../../de/df3/ocra__assert_8h.html" target="_top" xlink:title="ocra/optim/ocra_assert.h">
<polygon fill="white" stroke="black" points="220.606,-70.5 220.606,-88.5 346.655,-88.5 346.655,-70.5 220.606,-70.5"/>
<text text-anchor="middle" x="283.63" y="-76.5" font-family="Helvetica,sans-Serif" font-size="10.00">ocra/optim/ocra_assert.h</text>
</a>
</g>
</g>
<!-- Node3&#45;&gt;Node7 -->
<g id="edge7" class="edge"><title>Node3&#45;&gt;Node7</title>
<path fill="none" stroke="midnightblue" d="M252.636,-130.435C257.896,-121.961 266.326,-108.38 273.067,-97.5192"/>
<polygon fill="midnightblue" stroke="midnightblue" points="276.134,-99.214 278.434,-88.8718 270.187,-95.5224 276.134,-99.214"/>
</g>
<!-- Node9 -->
<g id="node10" class="node"><title>Node9</title>
<polygon fill="white" stroke="#bfbfbf" points="148.458,-70.5 148.458,-88.5 202.803,-88.5 202.803,-70.5 148.458,-70.5"/>
<text text-anchor="middle" x="175.63" y="-76.5" font-family="Helvetica,sans-Serif" font-size="10.00">iostream</text>
</g>
<!-- Node3&#45;&gt;Node9 -->
<g id="edge9" class="edge"><title>Node3&#45;&gt;Node9</title>
<path fill="none" stroke="midnightblue" d="M237.619,-130.435C226.356,-121.362 207.824,-106.434 193.952,-95.2589"/>
<polygon fill="midnightblue" stroke="midnightblue" points="196.006,-92.4194 186.023,-88.8718 191.615,-97.8707 196.006,-92.4194"/>
</g>
<!-- Node10 -->
<g id="node11" class="node"><title>Node10</title>
<polygon fill="white" stroke="#bfbfbf" points="365.015,-70.5 365.015,-88.5 408.246,-88.5 408.246,-70.5 365.015,-70.5"/>
<text text-anchor="middle" x="386.63" y="-76.5" font-family="Helvetica,sans-Serif" font-size="10.00">vector</text>
</g>
<!-- Node3&#45;&gt;Node10 -->
<g id="edge10" class="edge"><title>Node3&#45;&gt;Node10</title>
<path fill="none" stroke="midnightblue" d="M267.585,-130.416C289.297,-121.589 325.008,-106.975 355.63,-94 356.657,-93.5649 357.703,-93.12 358.758,-92.6691"/>
<polygon fill="midnightblue" stroke="midnightblue" points="360.5,-95.7293 368.297,-88.5556 357.729,-89.3015 360.5,-95.7293"/>
</g>
<!-- Node11 -->
<g id="node12" class="node"><title>Node11</title>
<polygon fill="white" stroke="#bfbfbf" points="426.229,-70.5 426.229,-88.5 485.032,-88.5 485.032,-70.5 426.229,-70.5"/>
<text text-anchor="middle" x="455.63" y="-76.5" font-family="Helvetica,sans-Serif" font-size="10.00">stdexcept</text>
</g>
<!-- Node3&#45;&gt;Node11 -->
<g id="edge11" class="edge"><title>Node3&#45;&gt;Node11</title>
<path fill="none" stroke="midnightblue" d="M281.738,-130.48C316.235,-122.156 370.978,-108.364 417.63,-94 419.889,-93.3047 422.212,-92.5581 424.544,-91.7857"/>
<polygon fill="midnightblue" stroke="midnightblue" points="425.71,-95.086 434.034,-88.5318 423.44,-88.4644 425.71,-95.086"/>
</g>
<!-- Node5 -->
<g id="node6" class="node"><title>Node5</title>
<polygon fill="white" stroke="#bfbfbf" points="0,-5.5 0,-23.5 73.2607,-23.5 73.2607,-5.5 0,-5.5"/>
<text text-anchor="middle" x="36.6304" y="-11.5" font-family="Helvetica,sans-Serif" font-size="10.00">Eigen/Dense</text>
</g>
<!-- Node4&#45;&gt;Node5 -->
<g id="edge5" class="edge"><title>Node4&#45;&gt;Node5</title>
<path fill="none" stroke="midnightblue" d="M69.6625,-70.2639C63.8843,-60.6842 54.194,-44.6186 46.7991,-32.3587"/>
<polygon fill="midnightblue" stroke="midnightblue" points="49.6413,-30.2942 41.4793,-23.539 43.6472,-33.9096 49.6413,-30.2942"/>
</g>
<!-- Node6 -->
<g id="node7" class="node"><title>Node6</title>
<polygon fill="white" stroke="#bfbfbf" points="91.0146,-5.5 91.0146,-23.5 134.246,-23.5 134.246,-5.5 91.0146,-5.5"/>
<text text-anchor="middle" x="112.63" y="-11.5" font-family="Helvetica,sans-Serif" font-size="10.00">cmath</text>
</g>
<!-- Node4&#45;&gt;Node6 -->
<g id="edge6" class="edge"><title>Node4&#45;&gt;Node6</title>
<path fill="none" stroke="midnightblue" d="M79.5982,-70.2639C85.3764,-60.6842 95.0667,-44.6186 102.462,-32.3587"/>
<polygon fill="midnightblue" stroke="midnightblue" points="105.614,-33.9096 107.781,-23.539 99.6195,-30.2942 105.614,-33.9096"/>
</g>
<!-- Node8 -->
<g id="node9" class="node"><title>Node8</title>
<polygon fill="white" stroke="#bfbfbf" points="262.569,-5.5 262.569,-23.5 304.692,-23.5 304.692,-5.5 262.569,-5.5"/>
<text text-anchor="middle" x="283.63" y="-11.5" font-family="Helvetica,sans-Serif" font-size="10.00">cstdio</text>
</g>
<!-- Node7&#45;&gt;Node8 -->
<g id="edge8" class="edge"><title>Node7&#45;&gt;Node8</title>
<path fill="none" stroke="midnightblue" d="M283.63,-70.2639C283.63,-61.0635 283.63,-45.881 283.63,-33.8326"/>
<polygon fill="midnightblue" stroke="midnightblue" points="287.13,-33.5389 283.63,-23.539 280.13,-33.539 287.13,-33.5389"/>
</g>
<!-- Node12&#45;&gt;Node10 -->
<g id="edge14" class="edge"><title>Node12&#45;&gt;Node10</title>
<path fill="none" stroke="midnightblue" d="M402.462,-190.389C399.757,-171.611 393.008,-124.768 389.254,-98.7111"/>
<polygon fill="midnightblue" stroke="midnightblue" points="392.697,-98.0661 387.807,-88.6674 385.769,-99.0643 392.697,-98.0661"/>
</g>
<!-- Node13 -->
<g id="node14" class="node"><title>Node13</title>
<polygon fill="white" stroke="#bfbfbf" points="668.404,-130.5 668.404,-148.5 708.857,-148.5 708.857,-130.5 668.404,-130.5"/>
<text text-anchor="middle" x="688.63" y="-136.5" font-family="Helvetica,sans-Serif" font-size="10.00">string</text>
</g>
<!-- Node12&#45;&gt;Node13 -->
<g id="edge13" class="edge"><title>Node12&#45;&gt;Node13</title>
<path fill="none" stroke="midnightblue" d="M442.959,-190.496C500.531,-178.78 606.53,-157.208 658.415,-146.649"/>
<polygon fill="midnightblue" stroke="midnightblue" points="659.234,-150.054 668.335,-144.63 657.838,-143.195 659.234,-150.054"/>
</g>
<!-- Node14&#45;&gt;Node3 -->
<g id="edge16" class="edge"><title>Node14&#45;&gt;Node3</title>
<path fill="none" stroke="midnightblue" d="M247.63,-190.435C247.63,-182.389 247.63,-169.739 247.63,-159.185"/>
<polygon fill="midnightblue" stroke="midnightblue" points="251.13,-158.872 247.63,-148.872 244.13,-158.872 251.13,-158.872"/>
</g>
<!-- Node14&#45;&gt;Node10 -->
<g id="edge17" class="edge"><title>Node14&#45;&gt;Node10</title>
<path fill="none" stroke="midnightblue" d="M259.133,-190.46C272.538,-180.957 295.204,-164.475 313.63,-149 334.292,-131.648 356.741,-110.149 371.211,-95.9151"/>
<polygon fill="midnightblue" stroke="midnightblue" points="373.725,-98.3512 378.366,-88.8272 368.799,-93.378 373.725,-98.3512"/>
</g>
<!-- Node16&#45;&gt;Node10 -->
<g id="edge48" class="edge"><title>Node16&#45;&gt;Node10</title>
<path fill="none" stroke="midnightblue" d="M894.003,-190.432C858.38,-181.886 802.327,-167.134 755.63,-149 738.029,-142.165 735.716,-135.427 717.63,-130 589.007,-91.4016 547.23,-129.181 417.63,-94 415.917,-93.5348 414.175,-92.991 412.436,-92.3938"/>
<polygon fill="midnightblue" stroke="midnightblue" points="413.305,-88.9743 402.719,-88.5626 410.738,-95.4865 413.305,-88.9743"/>
</g>
<!-- Node16&#45;&gt;Node13 -->
<g id="edge47" class="edge"><title>Node16&#45;&gt;Node13</title>
<path fill="none" stroke="midnightblue" d="M895.539,-190.461C854.49,-180.755 783.469,-163.879 722.63,-149 721.4,-148.699 720.146,-148.391 718.878,-148.079"/>
<polygon fill="midnightblue" stroke="midnightblue" points="719.667,-144.669 709.118,-145.658 717.982,-151.463 719.667,-144.669"/>
</g>
<!-- Node16&#45;&gt;Node17 -->
<g id="edge20" class="edge"><title>Node16&#45;&gt;Node17</title>
<path fill="none" stroke="midnightblue" d="M916.977,-190.435C902.255,-181.052 877.71,-165.408 860.012,-154.128"/>
<polygon fill="midnightblue" stroke="midnightblue" points="861.783,-151.106 851.469,-148.683 858.021,-157.009 861.783,-151.106"/>
</g>
<!-- Node28 -->
<g id="node29" class="node"><title>Node28</title>
<g id="a_node29"><a xlink:href="../../d1/de6/Composite_8h.html" target="_top" xlink:title="Utility classes and functions to implement the Composite design pattern. ">
<polygon fill="white" stroke="black" points="958.83,-130.5 958.83,-148.5 1080.43,-148.5 1080.43,-130.5 958.83,-130.5"/>
<text text-anchor="middle" x="1019.63" y="-136.5" font-family="Helvetica,sans-Serif" font-size="10.00">ocra/optim/Composite.h</text>
</a>
</g>
</g>
<!-- Node16&#45;&gt;Node28 -->
<g id="edge34" class="edge"><title>Node16&#45;&gt;Node28</title>
<path fill="none" stroke="midnightblue" d="M942.144,-190.435C956.705,-181.052 980.98,-165.408 998.484,-154.128"/>
<polygon fill="midnightblue" stroke="midnightblue" points="1000.42,-157.042 1006.93,-148.683 996.631,-151.158 1000.42,-157.042"/>
</g>
<!-- Node29 -->
<g id="node30" class="node"><title>Node29</title>
<polygon fill="white" stroke="#bfbfbf" points="1364.92,-70.5 1364.92,-88.5 1484.34,-88.5 1484.34,-70.5 1364.92,-70.5"/>
<text text-anchor="middle" x="1424.63" y="-76.5" font-family="Helvetica,sans-Serif" font-size="10.00">boost/noncopyable.hpp</text>
</g>
<!-- Node16&#45;&gt;Node29 -->
<g id="edge46" class="edge"><title>Node16&#45;&gt;Node29</title>
<path fill="none" stroke="midnightblue" d="M960.824,-190.479C993.457,-181.712 1045.92,-166.552 1089.63,-149 1107.15,-141.964 1109.65,-135.762 1127.63,-130 1225.33,-98.6922 1254.61,-111.852 1355.63,-94 1361.86,-92.8988 1368.4,-91.6899 1374.86,-90.4622"/>
<polygon fill="midnightblue" stroke="midnightblue" points="1375.75,-93.8564 1384.91,-88.5301 1374.42,-86.9825 1375.75,-93.8564"/>
</g>
<!-- Node32 -->
<g id="node33" class="node"><title>Node32</title>
<polygon fill="white" stroke="#bfbfbf" points="1136.67,-130.5 1136.67,-148.5 1206.6,-148.5 1206.6,-130.5 1136.67,-130.5"/>
<text text-anchor="middle" x="1171.63" y="-136.5" font-family="Helvetica,sans-Serif" font-size="10.00">Eigen/Eigen</text>
</g>
<!-- Node16&#45;&gt;Node32 -->
<g id="edge45" class="edge"><title>Node16&#45;&gt;Node32</title>
<path fill="none" stroke="midnightblue" d="M963.025,-190.496C1006.03,-180.189 1080.85,-162.256 1128.23,-150.902"/>
<polygon fill="midnightblue" stroke="midnightblue" points="1129.28,-154.249 1138.19,-148.515 1127.65,-147.442 1129.28,-154.249"/>
</g>
<!-- Node18 -->
<g id="node19" class="node"><title>Node18</title>
<g id="a_node19"><a xlink:href="../../df/d67/ObserverSubjectBase_8h.html" target="_top" xlink:title="Declaration file of the Observer and Subject base classes. ">
<polygon fill="white" stroke="black" points="540.66,-65.5 540.66,-93.5 680.601,-93.5 680.601,-65.5 540.66,-65.5"/>
<text text-anchor="start" x="548.66" y="-81.5" font-family="Helvetica,sans-Serif" font-size="10.00">ocra/optim/ObserverSubject</text>
<text text-anchor="middle" x="610.63" y="-71.5" font-family="Helvetica,sans-Serif" font-size="10.00">Base.h</text>
</a>
</g>
</g>
<!-- Node17&#45;&gt;Node18 -->
<g id="edge21" class="edge"><title>Node17&#45;&gt;Node18</title>
<path fill="none" stroke="midnightblue" d="M806.928,-130.435C772.078,-121.57 715.257,-107.116 671.694,-96.0336"/>
<polygon fill="midnightblue" stroke="midnightblue" points="672.326,-92.583 661.771,-93.5096 670.6,-99.3669 672.326,-92.583"/>
</g>
<!-- Node22 -->
<g id="node23" class="node"><title>Node22</title>
<polygon fill="white" stroke="#bfbfbf" points="377.943,-0.5 377.943,-28.5 477.317,-28.5 477.317,-0.5 377.943,-0.5"/>
<text text-anchor="start" x="385.943" y="-16.5" font-family="Helvetica,sans-Serif" font-size="10.00">boost/type_traits/is</text>
<text text-anchor="middle" x="427.63" y="-6.5" font-family="Helvetica,sans-Serif" font-size="10.00">_class.hpp</text>
</g>
<!-- Node17&#45;&gt;Node22 -->
<g id="edge33" class="edge"><title>Node17&#45;&gt;Node22</title>
<path fill="none" stroke="midnightblue" d="M770.601,-130.478C686.907,-120.324 553.196,-103.065 531.63,-94 512.045,-85.7677 510.573,-77.8181 493.63,-65 480.487,-55.0561 465.824,-44.0504 453.664,-34.9466"/>
<polygon fill="midnightblue" stroke="midnightblue" points="455.413,-31.884 445.309,-28.6961 451.219,-37.489 455.413,-31.884"/>
</g>
<!-- Node23 -->
<g id="node24" class="node"><title>Node23</title>
<polygon fill="white" stroke="#bfbfbf" points="861.943,-0.5 861.943,-28.5 961.317,-28.5 961.317,-0.5 861.943,-0.5"/>
<text text-anchor="start" x="869.943" y="-16.5" font-family="Helvetica,sans-Serif" font-size="10.00">boost/type_traits/is</text>
<text text-anchor="middle" x="911.63" y="-6.5" font-family="Helvetica,sans-Serif" font-size="10.00">_base_of.hpp</text>
</g>
<!-- Node17&#45;&gt;Node23 -->
<g id="edge31" class="edge"><title>Node17&#45;&gt;Node23</title>
<path fill="none" stroke="midnightblue" d="M789.698,-130.429C768.413,-124.225 745.447,-113.281 732.63,-94 725.495,-83.2662 724.825,-75.2567 732.63,-65 736.417,-60.0237 801.366,-42.8966 851.948,-30.1752"/>
<polygon fill="midnightblue" stroke="midnightblue" points="853.001,-33.5198 861.851,-27.6946 851.3,-26.7296 853.001,-33.5198"/>
</g>
<!-- Node24 -->
<g id="node25" class="node"><title>Node24</title>
<polygon fill="white" stroke="#bfbfbf" points="979.212,-5.5 979.212,-23.5 1098.05,-23.5 1098.05,-5.5 979.212,-5.5"/>
<text text-anchor="middle" x="1038.63" y="-11.5" font-family="Helvetica,sans-Serif" font-size="10.00">boost/static_assert.hpp</text>
</g>
<!-- Node17&#45;&gt;Node24 -->
<g id="edge30" class="edge"><title>Node17&#45;&gt;Node24</title>
<path fill="none" stroke="midnightblue" d="M813.154,-130.384C796.386,-123.562 775.732,-111.989 765.63,-94 759.319,-82.7619 757.342,-74.8706 765.63,-65 795.373,-29.5787 925.166,-37.5039 970.63,-29 976.542,-27.8942 982.737,-26.7058 988.879,-25.5091"/>
<polygon fill="midnightblue" stroke="midnightblue" points="989.968,-28.8621 999.106,-23.5005 988.619,-21.9933 989.968,-28.8621"/>
</g>
<!-- Node26 -->
<g id="node27" class="node"><title>Node26</title>
<g id="a_node27"><a xlink:href="../../db/ddf/ocra__events_8h.html" target="_top" xlink:title="ocra/optim/ocra_events.h">
<polygon fill="white" stroke="black" points="774.49,-70.5 774.49,-88.5 902.771,-88.5 902.771,-70.5 774.49,-70.5"/>
<text text-anchor="middle" x="838.63" y="-76.5" font-family="Helvetica,sans-Serif" font-size="10.00">ocra/optim/ocra_events.h</text>
</a>
</g>
</g>
<!-- Node17&#45;&gt;Node26 -->
<g id="edge29" class="edge"><title>Node17&#45;&gt;Node26</title>
<path fill="none" stroke="midnightblue" d="M838.63,-130.435C838.63,-122.389 838.63,-109.739 838.63,-99.1846"/>
<polygon fill="midnightblue" stroke="midnightblue" points="842.13,-98.8717 838.63,-88.8718 835.13,-98.8718 842.13,-98.8717"/>
</g>
<!-- Node27 -->
<g id="node28" class="node"><title>Node27</title>
<polygon fill="white" stroke="#bfbfbf" points="920.943,-65.5 920.943,-93.5 1020.32,-93.5 1020.32,-65.5 920.943,-65.5"/>
<text text-anchor="start" x="928.943" y="-81.5" font-family="Helvetica,sans-Serif" font-size="10.00">boost/type_traits/is</text>
<text text-anchor="middle" x="970.63" y="-71.5" font-family="Helvetica,sans-Serif" font-size="10.00">_convertible.hpp</text>
</g>
<!-- Node17&#45;&gt;Node27 -->
<g id="edge32" class="edge"><title>Node17&#45;&gt;Node27</title>
<path fill="none" stroke="midnightblue" d="M856.984,-130.435C876.184,-121.999 906.901,-108.502 931.563,-97.6661"/>
<polygon fill="midnightblue" stroke="midnightblue" points="933.275,-100.737 941.022,-93.5096 930.459,-94.328 933.275,-100.737"/>
</g>
<!-- Node19 -->
<g id="node20" class="node"><title>Node19</title>
<polygon fill="white" stroke="#bfbfbf" points="495.227,-5.5 495.227,-23.5 554.034,-23.5 554.034,-5.5 495.227,-5.5"/>
<text text-anchor="middle" x="524.63" y="-11.5" font-family="Helvetica,sans-Serif" font-size="10.00">functional</text>
</g>
<!-- Node18&#45;&gt;Node19 -->
<g id="edge22" class="edge"><title>Node18&#45;&gt;Node19</title>
<path fill="none" stroke="midnightblue" d="M592.811,-65.4464C578.551,-55 558.586,-40.3747 543.946,-29.6496"/>
<polygon fill="midnightblue" stroke="midnightblue" points="545.752,-26.6341 535.617,-23.548 541.615,-32.2811 545.752,-26.6341"/>
</g>
<!-- Node20 -->
<g id="node21" class="node"><title>Node20</title>
<polygon fill="white" stroke="#bfbfbf" points="787.066,-5.5 787.066,-23.5 844.194,-23.5 844.194,-5.5 787.066,-5.5"/>
<text text-anchor="middle" x="815.63" y="-11.5" font-family="Helvetica,sans-Serif" font-size="10.00">algorithm</text>
</g>
<!-- Node18&#45;&gt;Node20 -->
<g id="edge23" class="edge"><title>Node18&#45;&gt;Node20</title>
<path fill="none" stroke="midnightblue" d="M657.948,-65.4236C691.745,-55.8733 738.198,-42.3178 778.63,-29 780.53,-28.3743 782.479,-27.7153 784.44,-27.0388"/>
<polygon fill="midnightblue" stroke="midnightblue" points="785.933,-30.2232 794.189,-23.5838 783.594,-23.6253 785.933,-30.2232"/>
</g>
<!-- Node21 -->
<g id="node22" class="node"><title>Node21</title>
<polygon fill="white" stroke="#bfbfbf" points="571.585,-5.5 571.585,-23.5 649.675,-23.5 649.675,-5.5 571.585,-5.5"/>
<text text-anchor="middle" x="610.63" y="-11.5" font-family="Helvetica,sans-Serif" font-size="10.00">boost/any.hpp</text>
</g>
<!-- Node18&#45;&gt;Node21 -->
<g id="edge24" class="edge"><title>Node18&#45;&gt;Node21</title>
<path fill="none" stroke="midnightblue" d="M610.63,-65.4464C610.63,-56.3336 610.63,-44.0406 610.63,-33.9308"/>
<polygon fill="midnightblue" stroke="midnightblue" points="614.13,-33.7301 610.63,-23.7301 607.13,-33.7301 614.13,-33.7301"/>
</g>
<!-- Node18&#45;&gt;Node22 -->
<g id="edge25" class="edge"><title>Node18&#45;&gt;Node22</title>
<path fill="none" stroke="midnightblue" d="M572.713,-65.4464C544.372,-55.6899 505.444,-42.2882 475.045,-31.8231"/>
<polygon fill="midnightblue" stroke="midnightblue" points="476.094,-28.4827 465.5,-28.5369 473.816,-35.1015 476.094,-28.4827"/>
</g>
<!-- Node18&#45;&gt;Node23 -->
<g id="edge26" class="edge"><title>Node18&#45;&gt;Node23</title>
<path fill="none" stroke="midnightblue" d="M677,-65.4963C723.519,-56.2626 787.4,-43.3456 851.751,-29.3814"/>
<polygon fill="midnightblue" stroke="midnightblue" points="852.637,-32.7707 861.663,-27.2229 851.148,-25.9309 852.637,-32.7707"/>
</g>
<!-- Node18&#45;&gt;Node24 -->
<g id="edge27" class="edge"><title>Node18&#45;&gt;Node24</title>
<path fill="none" stroke="midnightblue" d="M680.841,-70.0978C753.535,-61.1055 870.305,-45.841 970.63,-29 976.94,-27.9409 983.561,-26.7395 990.092,-25.5007"/>
<polygon fill="midnightblue" stroke="midnightblue" points="991.072,-28.876 1000.22,-23.5381 989.741,-22.0037 991.072,-28.876"/>
</g>
<!-- Node25 -->
<g id="node26" class="node"><title>Node25</title>
<polygon fill="white" stroke="#bfbfbf" points="667.825,-0.5 667.825,-28.5 769.436,-28.5 769.436,-0.5 667.825,-0.5"/>
<text text-anchor="start" x="675.825" y="-16.5" font-family="Helvetica,sans-Serif" font-size="10.00">boost/ptr_container</text>
<text text-anchor="middle" x="718.63" y="-6.5" font-family="Helvetica,sans-Serif" font-size="10.00">/ptr_vector.hpp</text>
</g>
<!-- Node18&#45;&gt;Node25 -->
<g id="edge28" class="edge"><title>Node18&#45;&gt;Node25</title>
<path fill="none" stroke="midnightblue" d="M633.008,-65.4464C648.792,-56.239 670.142,-43.785 687.573,-33.6167"/>
<polygon fill="midnightblue" stroke="midnightblue" points="689.407,-36.5989 696.281,-28.5369 685.88,-30.5524 689.407,-36.5989"/>
</g>
<!-- Node28&#45;&gt;Node7 -->
<g id="edge35" class="edge"><title>Node28&#45;&gt;Node7</title>
<path fill="none" stroke="midnightblue" d="M958.745,-133C946.462,-131.952 933.636,-130.902 921.63,-130 670.275,-111.108 605.745,-125.284 355.63,-94 347.822,-93.0233 339.582,-91.7301 331.575,-90.3305"/>
<polygon fill="midnightblue" stroke="midnightblue" points="332.073,-86.8637 321.608,-88.5165 330.82,-93.7506 332.073,-86.8637"/>
</g>
<!-- Node28&#45;&gt;Node10 -->
<g id="edge41" class="edge"><title>Node28&#45;&gt;Node10</title>
<path fill="none" stroke="midnightblue" d="M958.74,-133.074C946.457,-132.02 933.633,-130.949 921.63,-130 697.759,-112.297 635.71,-147.602 417.63,-94 415.706,-93.5271 413.751,-92.9443 411.806,-92.2887"/>
<polygon fill="midnightblue" stroke="midnightblue" points="412.946,-88.9761 402.358,-88.5769 410.386,-95.4913 412.946,-88.9761"/>
</g>
<!-- Node28&#45;&gt;Node11 -->
<g id="edge44" class="edge"><title>Node28&#45;&gt;Node11</title>
<path fill="none" stroke="midnightblue" d="M958.568,-133.071C832.303,-121.826 552.473,-96.7963 531.63,-94 519.714,-92.4012 506.815,-90.265 495.087,-88.1643"/>
<polygon fill="midnightblue" stroke="midnightblue" points="495.602,-84.7005 485.135,-86.3418 494.341,-91.586 495.602,-84.7005"/>
</g>
<!-- Node28&#45;&gt;Node20 -->
<g id="edge42" class="edge"><title>Node28&#45;&gt;Node20</title>
<path fill="none" stroke="midnightblue" d="M1024.37,-130.141C1032.1,-115.257 1045.11,-83.9475 1029.63,-65 978.837,-2.83538 929.886,-50.8187 852.63,-29 850.354,-28.3571 848.017,-27.6414 845.678,-26.8844"/>
<polygon fill="midnightblue" stroke="midnightblue" points="846.79,-23.5657 836.195,-23.62 844.511,-30.1845 846.79,-23.5657"/>
</g>
<!-- Node28&#45;&gt;Node23 -->
<g id="edge38" class="edge"><title>Node28&#45;&gt;Node23</title>
<path fill="none" stroke="midnightblue" d="M1030.57,-130.461C1048.1,-116.596 1078.94,-87.5067 1062.63,-65 1056.85,-57.0283 1010.58,-42.5584 970.762,-31.3144"/>
<polygon fill="midnightblue" stroke="midnightblue" points="971.644,-27.9268 961.071,-28.6044 969.759,-34.6682 971.644,-27.9268"/>
</g>
<!-- Node28&#45;&gt;Node24 -->
<g id="edge37" class="edge"><title>Node28&#45;&gt;Node24</title>
<path fill="none" stroke="midnightblue" d="M1049.83,-130.421C1068,-123.83 1089.68,-112.505 1100.63,-94 1107.19,-82.9069 1106.22,-76.614 1100.63,-65 1093.11,-49.3695 1077.98,-37.1382 1064.55,-28.7445"/>
<polygon fill="midnightblue" stroke="midnightblue" points="1066.05,-25.5628 1055.64,-23.5518 1062.52,-31.6108 1066.05,-25.5628"/>
</g>
<!-- Node28&#45;&gt;Node27 -->
<g id="edge39" class="edge"><title>Node28&#45;&gt;Node27</title>
<path fill="none" stroke="midnightblue" d="M1012.82,-130.435C1006.51,-122.969 996.852,-111.538 988.368,-101.496"/>
<polygon fill="midnightblue" stroke="midnightblue" points="991.03,-99.2229 981.903,-93.8428 985.683,-103.74 991.03,-99.2229"/>
</g>
<!-- Node28&#45;&gt;Node29 -->
<g id="edge36" class="edge"><title>Node28&#45;&gt;Node29</title>
<path fill="none" stroke="midnightblue" d="M1080.5,-131.581C1147.93,-123.65 1259.82,-109.702 1355.63,-94 1362.03,-92.9506 1368.75,-91.755 1375.38,-90.5191"/>
<polygon fill="midnightblue" stroke="midnightblue" points="1376.49,-93.8699 1385.66,-88.559 1375.18,-86.9938 1376.49,-93.8699"/>
</g>
<!-- Node30 -->
<g id="node31" class="node"><title>Node30</title>
<polygon fill="white" stroke="#bfbfbf" points="1153.09,-65.5 1153.09,-93.5 1284.17,-93.5 1284.17,-65.5 1153.09,-65.5"/>
<text text-anchor="start" x="1161.09" y="-81.5" font-family="Helvetica,sans-Serif" font-size="10.00">boost/type_traits/has</text>
<text text-anchor="middle" x="1218.63" y="-71.5" font-family="Helvetica,sans-Serif" font-size="10.00">_nothrow_constructor.hpp</text>
</g>
<!-- Node28&#45;&gt;Node30 -->
<g id="edge40" class="edge"><title>Node28&#45;&gt;Node30</title>
<path fill="none" stroke="midnightblue" d="M1047.3,-130.435C1077.4,-121.663 1126.27,-107.419 1164.13,-96.3847"/>
<polygon fill="midnightblue" stroke="midnightblue" points="1165.37,-99.668 1173.99,-93.5096 1163.41,-92.9476 1165.37,-99.668"/>
</g>
<!-- Node31 -->
<g id="node32" class="node"><title>Node31</title>
<polygon fill="white" stroke="#bfbfbf" points="1302.46,-70.5 1302.46,-88.5 1346.8,-88.5 1346.8,-70.5 1302.46,-70.5"/>
<text text-anchor="middle" x="1324.63" y="-76.5" font-family="Helvetica,sans-Serif" font-size="10.00">iosfwd</text>
</g>
<!-- Node28&#45;&gt;Node31 -->
<g id="edge43" class="edge"><title>Node28&#45;&gt;Node31</title>
<path fill="none" stroke="midnightblue" d="M1080.13,-130.47C1148.3,-121.105 1254.68,-105.449 1293.63,-94 1295.3,-93.5107 1296.99,-92.9543 1298.68,-92.3529"/>
<polygon fill="midnightblue" stroke="midnightblue" points="1300.19,-95.5212 1308.18,-88.5698 1297.6,-89.0179 1300.19,-95.5212"/>
</g>
<!-- Node33&#45;&gt;Node13 -->
<g id="edge51" class="edge"><title>Node33&#45;&gt;Node13</title>
<path fill="none" stroke="midnightblue" d="M738.566,-190.435C729.749,-181.619 715.405,-167.274 704.347,-156.217"/>
<polygon fill="midnightblue" stroke="midnightblue" points="706.548,-153.468 697.002,-148.872 701.598,-158.418 706.548,-153.468"/>
</g>
</g>
</svg>
