<?xml version="1.0" encoding="UTF-8" standalone="no"?>
<!DOCTYPE svg PUBLIC "-//W3C//DTD SVG 1.1//EN"
 "http://www.w3.org/Graphics/SVG/1.1/DTD/svg11.dtd">
<!-- Generated by graphviz version 2.38.0 (20140413.2041)
 -->
<!-- Title: GHCJTTask.h Pages: 1 -->
<svg width="1682pt" height="322pt"
 viewBox="0.00 0.00 1681.95 322.00" xmlns="http://www.w3.org/2000/svg" xmlns:xlink="http://www.w3.org/1999/xlink">
<g id="graph0" class="graph" transform="scale(1 1) rotate(0) translate(4 318)">
<title>GHCJTTask.h</title>
<polygon fill="white" stroke="none" points="-4,4 -4,-318 1677.95,-318 1677.95,4 -4,4"/>
<!-- Node85 -->
<g id="node1" class="node"><title>Node85</title>
<polygon fill="#bfbfbf" stroke="black" points="1004.67,-295.5 1004.67,-313.5 1082.9,-313.5 1082.9,-295.5 1004.67,-295.5"/>
<text text-anchor="middle" x="1043.79" y="-301.5" font-family="Helvetica,sans-Serif" font-size="10.00">GHCJTTask.h</text>
</g>
<!-- Node86 -->
<g id="node2" class="node"><title>Node86</title>
<g id="a_node2"><a xlink:href="../../d9/de9/GHCJTController_8h.html" target="_top" xlink:title="Define the Generalized Hierarchical Controller based on Jacobian transpose (GHCJT) in quasi&#45;static ca...">
<polygon fill="white" stroke="black" points="700.549,-240.5 700.549,-258.5 801.022,-258.5 801.022,-240.5 700.549,-240.5"/>
<text text-anchor="middle" x="750.786" y="-246.5" font-family="Helvetica,sans-Serif" font-size="10.00">GHCJTController.h</text>
</a>
</g>
</g>
<!-- Node85&#45;&gt;Node86 -->
<g id="edge1" class="edge"><title>Node85&#45;&gt;Node86</title>
<path fill="none" stroke="midnightblue" d="M994.575,-294.598C938.792,-284.508 848.665,-268.205 795.027,-258.503"/>
<polygon fill="midnightblue" stroke="midnightblue" points="994.111,-298.071 1004.57,-296.407 995.357,-291.183 994.111,-298.071"/>
</g>
<!-- Node91 -->
<g id="node7" class="node"><title>Node91</title>
<g id="a_node7"><a xlink:href="../../de/dda/gOcraCoMTaskManager_8h.html" target="_top" xlink:title="gOcraCoMTaskManager.h">
<polygon fill="white" stroke="black" points="216.702,-130.5 216.702,-148.5 348.869,-148.5 348.869,-130.5 216.702,-130.5"/>
<text text-anchor="middle" x="282.786" y="-136.5" font-family="Helvetica,sans-Serif" font-size="10.00">gOcraCoMTaskManager.h</text>
</a>
</g>
</g>
<!-- Node85&#45;&gt;Node91 -->
<g id="edge41" class="edge"><title>Node85&#45;&gt;Node91</title>
<path fill="none" stroke="midnightblue" d="M994.405,-302.835C872.918,-300.699 562.314,-292.071 464.786,-259 390.514,-233.815 316.785,-171.327 291.748,-148.78"/>
<polygon fill="midnightblue" stroke="midnightblue" points="994.479,-306.336 1004.54,-303.005 994.596,-299.337 994.479,-306.336"/>
</g>
<!-- Node93 -->
<g id="node9" class="node"><title>Node93</title>
<g id="a_node9"><a xlink:href="../../d0/d8c/gOcraContactSetTaskManager_8h.html" target="_top" xlink:title="gOcraContactSetTaskManager.h">
<polygon fill="white" stroke="black" points="366.522,-130.5 366.522,-148.5 527.049,-148.5 527.049,-130.5 366.522,-130.5"/>
<text text-anchor="middle" x="446.786" y="-136.5" font-family="Helvetica,sans-Serif" font-size="10.00">gOcraContactSetTaskManager.h</text>
</a>
</g>
</g>
<!-- Node85&#45;&gt;Node93 -->
<g id="edge42" class="edge"><title>Node85&#45;&gt;Node93</title>
<path fill="none" stroke="midnightblue" d="M994.29,-303.331C878.333,-302.312 592.301,-296.005 504.786,-259 470.551,-244.524 457.163,-237.839 441.786,-204 433.459,-185.677 439.499,-161.312 443.686,-148.757"/>
<polygon fill="midnightblue" stroke="midnightblue" points="994.287,-306.831 1004.31,-303.41 994.342,-299.831 994.287,-306.831"/>
</g>
<!-- Node95 -->
<g id="node11" class="node"><title>Node95</title>
<g id="a_node11"><a xlink:href="../../dc/db6/gOcraContactTaskManager_8h.html" target="_top" xlink:title="gOcraContactTaskManager.h">
<polygon fill="white" stroke="black" points="545.027,-130.5 545.027,-148.5 690.544,-148.5 690.544,-130.5 545.027,-130.5"/>
<text text-anchor="middle" x="617.786" y="-136.5" font-family="Helvetica,sans-Serif" font-size="10.00">gOcraContactTaskManager.h</text>
</a>
</g>
</g>
<!-- Node85&#45;&gt;Node95 -->
<g id="edge43" class="edge"><title>Node85&#45;&gt;Node95</title>
<path fill="none" stroke="midnightblue" d="M994.436,-303.271C864.184,-301.492 516.494,-288.746 448.786,-204 443.514,-197.403 443.63,-191.688 448.786,-185 462.214,-167.578 514.648,-155.615 557.594,-148.517"/>
<polygon fill="midnightblue" stroke="midnightblue" points="994.489,-306.772 1004.53,-303.393 994.573,-299.772 994.489,-306.772"/>
</g>
<!-- Node97 -->
<g id="node13" class="node"><title>Node97</title>
<g id="a_node13"><a xlink:href="../../d0/dd7/gOcraFullPostureTaskManager_8h.html" target="_top" xlink:title="gOcraFullPostureTaskManager.h">
<polygon fill="white" stroke="black" points="36.9706,-130.5 36.9706,-148.5 198.6,-148.5 198.6,-130.5 36.9706,-130.5"/>
<text text-anchor="middle" x="117.786" y="-136.5" font-family="Helvetica,sans-Serif" font-size="10.00">gOcraFullPostureTaskManager.h</text>
</a>
</g>
</g>
<!-- Node85&#45;&gt;Node97 -->
<g id="edge44" class="edge"><title>Node85&#45;&gt;Node97</title>
<path fill="none" stroke="midnightblue" d="M994.003,-301.905C866.039,-297.492 528.033,-283.782 418.786,-259 304.591,-233.096 176.745,-170.782 133.234,-148.55"/>
<polygon fill="midnightblue" stroke="midnightblue" points="994.175,-305.412 1004.29,-302.255 994.413,-298.416 994.175,-305.412"/>
</g>
<!-- Node99 -->
<g id="node15" class="node"><title>Node99</title>
<g id="a_node15"><a xlink:href="../../dd/dc3/gOcraPartialPostureTaskManager_8h.html" target="_top" xlink:title="gOcraPartialPostureTaskManager.h">
<polygon fill="white" stroke="black" points="1078.85,-130.5 1078.85,-148.5 1252.72,-148.5 1252.72,-130.5 1078.85,-130.5"/>
<text text-anchor="middle" x="1165.79" y="-136.5" font-family="Helvetica,sans-Serif" font-size="10.00">gOcraPartialPostureTaskManager.h</text>
</a>
</g>
</g>
<!-- Node85&#45;&gt;Node99 -->
<g id="edge45" class="edge"><title>Node85&#45;&gt;Node99</title>
<path fill="none" stroke="midnightblue" d="M1071.89,-290.624C1085.95,-283.044 1102.36,-272.321 1113.79,-259 1143.77,-224.043 1159.08,-169.084 1163.99,-148.573"/>
<polygon fill="midnightblue" stroke="midnightblue" points="1069.93,-287.694 1062.62,-295.363 1073.11,-293.927 1069.93,-287.694"/>
</g>
<!-- Node101 -->
<g id="node17" class="node"><title>Node101</title>
<g id="a_node17"><a xlink:href="../../d8/de2/gOcraSegCartesianTaskManager_8h.html" target="_top" xlink:title="gOcraSegCartesianTaskManager.h">
<polygon fill="white" stroke="black" points="1270.96,-130.5 1270.96,-148.5 1442.61,-148.5 1442.61,-130.5 1270.96,-130.5"/>
<text text-anchor="middle" x="1356.79" y="-136.5" font-family="Helvetica,sans-Serif" font-size="10.00">gOcraSegCartesianTaskManager.h</text>
</a>
</g>
</g>
<!-- Node85&#45;&gt;Node101 -->
<g id="edge46" class="edge"><title>Node85&#45;&gt;Node101</title>
<path fill="none" stroke="midnightblue" d="M1072.54,-291.376C1090.89,-283.177 1114.87,-271.58 1134.79,-259 1179.44,-230.787 1181.48,-210.423 1227.79,-185 1258.52,-168.124 1296.83,-155.888 1323.69,-148.567"/>
<polygon fill="midnightblue" stroke="midnightblue" points="1071,-288.229 1063.25,-295.454 1073.82,-294.639 1071,-288.229"/>
</g>
<!-- Node103 -->
<g id="node19" class="node"><title>Node103</title>
<g id="a_node19"><a xlink:href="../../d7/d74/gOcraSegOrientationTaskManager_8h.html" target="_top" xlink:title="gOcraSegOrientationTaskManager.h">
<polygon fill="white" stroke="black" points="1460.9,-130.5 1460.9,-148.5 1638.67,-148.5 1638.67,-130.5 1460.9,-130.5"/>
<text text-anchor="middle" x="1549.79" y="-136.5" font-family="Helvetica,sans-Serif" font-size="10.00">gOcraSegOrientationTaskManager.h</text>
</a>
</g>
</g>
<!-- Node85&#45;&gt;Node103 -->
<g id="edge47" class="edge"><title>Node85&#45;&gt;Node103</title>
<path fill="none" stroke="midnightblue" d="M1078.4,-292.35C1174.29,-261.461 1441.76,-175.299 1524.84,-148.536"/>
<polygon fill="midnightblue" stroke="midnightblue" points="1077.32,-289.019 1068.88,-295.417 1079.47,-295.682 1077.32,-289.019"/>
</g>
<!-- Node105 -->
<g id="node21" class="node"><title>Node105</title>
<g id="a_node21"><a xlink:href="../../d2/db2/gOcraSegPoseTaskManager_8h.html" target="_top" xlink:title="gOcraSegPoseTaskManager.h">
<polygon fill="white" stroke="black" points="908.966,-130.5 908.966,-148.5 1060.61,-148.5 1060.61,-130.5 908.966,-130.5"/>
<text text-anchor="middle" x="984.786" y="-136.5" font-family="Helvetica,sans-Serif" font-size="10.00">gOcraSegPoseTaskManager.h</text>
</a>
</g>
</g>
<!-- Node85&#45;&gt;Node105 -->
<g id="edge48" class="edge"><title>Node85&#45;&gt;Node105</title>
<path fill="none" stroke="midnightblue" d="M1062.58,-288.722C1089.58,-265.67 1133.52,-220.153 1108.79,-185 1095.23,-165.733 1072.51,-154.766 1050.19,-148.539"/>
<polygon fill="midnightblue" stroke="midnightblue" points="1060,-286.311 1054.51,-295.375 1064.46,-291.71 1060,-286.311"/>
</g>
<!-- Node108 -->
<g id="node24" class="node"><title>Node108</title>
<g id="a_node24"><a xlink:href="../../d0/d71/GHCJTController_8cpp.html" target="_top" xlink:title="Implement the quasi&#45;static Generalized Hierarchical Control based on Jacobian Transpose (GHCJT)...">
<polygon fill="white" stroke="black" points="988.268,-185.5 988.268,-203.5 1099.3,-203.5 1099.3,-185.5 988.268,-185.5"/>
<text text-anchor="middle" x="1043.79" y="-191.5" font-family="Helvetica,sans-Serif" font-size="10.00">GHCJTController.cpp</text>
</a>
</g>
</g>
<!-- Node85&#45;&gt;Node108 -->
<g id="edge49" class="edge"><title>Node85&#45;&gt;Node108</title>
<path fill="none" stroke="midnightblue" d="M1043.79,-285.243C1043.79,-261.493 1043.79,-220.997 1043.79,-203.712"/>
<polygon fill="midnightblue" stroke="midnightblue" points="1040.29,-285.382 1043.79,-295.382 1047.29,-285.382 1040.29,-285.382"/>
</g>
<!-- Node109 -->
<g id="node25" class="node"><title>Node109</title>
<g id="a_node25"><a xlink:href="../../d2/d79/GHCJTTask_8cpp.html" target="_top" xlink:title="Implement task class for GHCJT controller. It inherits from the task class defined in the ocra framew...">
<polygon fill="white" stroke="black" points="1269.39,-240.5 1269.39,-258.5 1358.18,-258.5 1358.18,-240.5 1269.39,-240.5"/>
<text text-anchor="middle" x="1313.79" y="-246.5" font-family="Helvetica,sans-Serif" font-size="10.00">GHCJTTask.cpp</text>
</a>
</g>
</g>
<!-- Node85&#45;&gt;Node109 -->
<g id="edge50" class="edge"><title>Node85&#45;&gt;Node109</title>
<path fill="none" stroke="midnightblue" d="M1092.95,-293.849C1144.46,-283.738 1224.45,-268.036 1272.71,-258.564"/>
<polygon fill="midnightblue" stroke="midnightblue" points="1092.18,-290.433 1083.05,-295.793 1093.53,-297.302 1092.18,-290.433"/>
</g>
<!-- Node87 -->
<g id="node3" class="node"><title>Node87</title>
<g id="a_node3"><a xlink:href="../../df/d0a/main_8cpp.html" target="_top" xlink:title="main.cpp">
<polygon fill="white" stroke="black" points="457.497,-185.5 457.497,-203.5 514.074,-203.5 514.074,-185.5 457.497,-185.5"/>
<text text-anchor="middle" x="485.786" y="-191.5" font-family="Helvetica,sans-Serif" font-size="10.00">main.cpp</text>
</a>
</g>
</g>
<!-- Node86&#45;&gt;Node87 -->
<g id="edge2" class="edge"><title>Node86&#45;&gt;Node87</title>
<path fill="none" stroke="midnightblue" d="M700.648,-238.535C655.446,-229.542 587.158,-215.932 527.786,-204 523.409,-203.121 518.777,-202.186 514.25,-201.272"/>
<polygon fill="midnightblue" stroke="midnightblue" points="700.003,-241.976 710.493,-240.494 701.368,-235.11 700.003,-241.976"/>
</g>
<!-- Node88 -->
<g id="node4" class="node"><title>Node88</title>
<g id="a_node4"><a xlink:href="../../db/d31/gOcraTaskManagerBase_8h.html" target="_top" xlink:title="gOcraTaskManagerBase.h">
<polygon fill="white" stroke="black" points="683.589,-185.5 683.589,-203.5 817.982,-203.5 817.982,-185.5 683.589,-185.5"/>
<text text-anchor="middle" x="750.786" y="-191.5" font-family="Helvetica,sans-Serif" font-size="10.00">gOcraTaskManagerBase.h</text>
</a>
</g>
</g>
<!-- Node86&#45;&gt;Node88 -->
<g id="edge3" class="edge"><title>Node86&#45;&gt;Node88</title>
<path fill="none" stroke="midnightblue" d="M750.786,-230.175C750.786,-221.094 750.786,-210.595 750.786,-203.55"/>
<polygon fill="midnightblue" stroke="midnightblue" points="747.286,-230.219 750.786,-240.219 754.286,-230.219 747.286,-230.219"/>
</g>
<!-- Node90 -->
<g id="node6" class="node"><title>Node90</title>
<g id="a_node6"><a xlink:href="../../de/d9f/gOcraTaskManagerCollectionBase_8cpp.html" target="_top" xlink:title="gOcraTaskManagerCollection\lBase.cpp">
<polygon fill="white" stroke="black" points="330.2,-0.5 330.2,-28.5 477.371,-28.5 477.371,-0.5 330.2,-0.5"/>
<text text-anchor="start" x="338.2" y="-16.5" font-family="Helvetica,sans-Serif" font-size="10.00">gOcraTaskManagerCollection</text>
<text text-anchor="middle" x="403.786" y="-6.5" font-family="Helvetica,sans-Serif" font-size="10.00">Base.cpp</text>
</a>
</g>
</g>
<!-- Node86&#45;&gt;Node90 -->
<g id="edge40" class="edge"><title>Node86&#45;&gt;Node90</title>
<path fill="none" stroke="midnightblue" d="M690.185,-248.643C534.219,-247.732 124.424,-236.838 27.7855,-149 -0.170021,-123.59 -10.1846,-93.3488 14.7855,-65 35.2598,-41.7552 223.235,-26.5427 330.198,-19.6903"/>
<polygon fill="midnightblue" stroke="midnightblue" points="690.511,-252.145 700.527,-248.691 690.543,-245.145 690.511,-252.145"/>
</g>
<!-- Node86&#45;&gt;Node91 -->
<g id="edge31" class="edge"><title>Node86&#45;&gt;Node91</title>
<path fill="none" stroke="midnightblue" d="M705.36,-238.026C673.608,-230.126 630.491,-218.233 593.786,-204 576.18,-197.173 573.753,-190.807 555.786,-185 517.745,-172.705 413.706,-157.579 345.609,-148.506"/>
<polygon fill="midnightblue" stroke="midnightblue" points="704.702,-241.468 715.248,-240.448 706.368,-234.669 704.702,-241.468"/>
</g>
<!-- Node86&#45;&gt;Node93 -->
<g id="edge32" class="edge"><title>Node86&#45;&gt;Node93</title>
<path fill="none" stroke="midnightblue" d="M722.79,-236.283C691.613,-222.887 639.571,-201.152 593.786,-185 553.427,-170.762 505.893,-156.886 476.044,-148.514"/>
<polygon fill="midnightblue" stroke="midnightblue" points="721.577,-239.571 732.145,-240.321 724.351,-233.144 721.577,-239.571"/>
</g>
<!-- Node86&#45;&gt;Node95 -->
<g id="edge33" class="edge"><title>Node86&#45;&gt;Node95</title>
<path fill="none" stroke="midnightblue" d="M724.873,-235.908C709.547,-227.85 690.187,-216.569 674.786,-204 653.668,-186.765 633.46,-161.501 623.764,-148.653"/>
<polygon fill="midnightblue" stroke="midnightblue" points="723.326,-239.048 733.822,-240.492 726.518,-232.818 723.326,-239.048"/>
</g>
<!-- Node86&#45;&gt;Node97 -->
<g id="edge34" class="edge"><title>Node86&#45;&gt;Node97</title>
<path fill="none" stroke="midnightblue" d="M690.327,-239.498C651.097,-232.5 599.359,-221.07 555.786,-204 540.028,-197.827 538.872,-190.258 522.786,-185 507.616,-180.041 312.498,-159.953 198.728,-148.535"/>
<polygon fill="midnightblue" stroke="midnightblue" points="689.823,-242.962 700.274,-241.225 691.02,-236.066 689.823,-242.962"/>
</g>
<!-- Node86&#45;&gt;Node99 -->
<g id="edge35" class="edge"><title>Node86&#45;&gt;Node99</title>
<path fill="none" stroke="midnightblue" d="M782.217,-236.877C805.439,-228.159 837.753,-215.754 865.786,-204 884.68,-196.078 888.2,-191.012 907.786,-185 967.424,-166.694 1037.27,-155.226 1089.24,-148.526"/>
<polygon fill="midnightblue" stroke="midnightblue" points="780.69,-233.711 772.548,-240.491 783.141,-240.268 780.69,-233.711"/>
</g>
<!-- Node86&#45;&gt;Node101 -->
<g id="edge36" class="edge"><title>Node86&#45;&gt;Node101</title>
<path fill="none" stroke="midnightblue" d="M791.382,-237.774C821.786,-229.423 864.255,-217.085 900.786,-204 921.224,-196.679 924.771,-190.449 945.786,-185 976.398,-177.063 1159.67,-158.962 1270.89,-148.454"/>
<polygon fill="midnightblue" stroke="midnightblue" points="790.289,-234.444 781.559,-240.448 792.128,-241.198 790.289,-234.444"/>
</g>
<!-- Node86&#45;&gt;Node103 -->
<g id="edge37" class="edge"><title>Node86&#45;&gt;Node103</title>
<path fill="none" stroke="midnightblue" d="M805.973,-238.397C843.653,-230.767 894.411,-219.041 937.786,-204 956.761,-197.42 959.351,-190.065 978.786,-185 1182.8,-131.828 1241.65,-166.109 1451.79,-149 1454.76,-148.757 1457.79,-148.508 1460.85,-148.255"/>
<polygon fill="midnightblue" stroke="midnightblue" points="804.833,-235.055 795.709,-240.44 806.2,-241.921 804.833,-235.055"/>
</g>
<!-- Node86&#45;&gt;Node105 -->
<g id="edge38" class="edge"><title>Node86&#45;&gt;Node105</title>
<path fill="none" stroke="midnightblue" d="M773.696,-235.205C797.356,-221.731 835.545,-200.691 869.786,-185 900.924,-170.731 938.062,-156.915 961.535,-148.56"/>
<polygon fill="midnightblue" stroke="midnightblue" points="771.727,-232.299 764.793,-240.309 775.209,-238.372 771.727,-232.299"/>
</g>
<!-- Node86&#45;&gt;Node108 -->
<g id="edge39" class="edge"><title>Node86&#45;&gt;Node108</title>
<path fill="none" stroke="midnightblue" d="M805.374,-238.626C861.357,-228.499 947.38,-212.939 999.347,-203.538"/>
<polygon fill="midnightblue" stroke="midnightblue" points="804.503,-235.226 795.286,-240.45 805.749,-242.114 804.503,-235.226"/>
</g>
<!-- Node89 -->
<g id="node5" class="node"><title>Node89</title>
<g id="a_node5"><a xlink:href="../../d4/d79/gOcraTaskManagerCollectionBase_8h.html" target="_top" xlink:title="gOcraTaskManagerCollection\lBase.h">
<polygon fill="white" stroke="black" points="738.2,-65.5 738.2,-93.5 885.371,-93.5 885.371,-65.5 738.2,-65.5"/>
<text text-anchor="start" x="746.2" y="-81.5" font-family="Helvetica,sans-Serif" font-size="10.00">gOcraTaskManagerCollection</text>
<text text-anchor="middle" x="811.786" y="-71.5" font-family="Helvetica,sans-Serif" font-size="10.00">Base.h</text>
</a>
</g>
</g>
<!-- Node88&#45;&gt;Node89 -->
<g id="edge4" class="edge"><title>Node88&#45;&gt;Node89</title>
<path fill="none" stroke="midnightblue" d="M813.693,-182.386C832.293,-175.851 850.641,-165.475 861.786,-149 875.067,-129.366 851.867,-107.334 832.819,-93.6868"/>
<polygon fill="midnightblue" stroke="midnightblue" points="812.456,-179.106 803.981,-185.465 814.571,-185.779 812.456,-179.106"/>
</g>
<!-- Node88&#45;&gt;Node91 -->
<g id="edge6" class="edge"><title>Node88&#45;&gt;Node91</title>
<path fill="none" stroke="midnightblue" d="M672.942,-184.688C593.653,-175.712 467.158,-161.39 357.786,-149 354.921,-148.675 351.995,-148.344 349.039,-148.009"/>
<polygon fill="midnightblue" stroke="midnightblue" points="673,-188.217 683.33,-185.864 673.788,-181.261 673,-188.217"/>
</g>
<!-- Node88&#45;&gt;Node93 -->
<g id="edge9" class="edge"><title>Node88&#45;&gt;Node93</title>
<path fill="none" stroke="midnightblue" d="M694.508,-183.689C636.433,-173.564 546.922,-157.958 492.892,-148.538"/>
<polygon fill="midnightblue" stroke="midnightblue" points="694.162,-187.181 704.614,-185.45 695.364,-180.285 694.162,-187.181"/>
</g>
<!-- Node88&#45;&gt;Node95 -->
<g id="edge12" class="edge"><title>Node88&#45;&gt;Node95</title>
<path fill="none" stroke="midnightblue" d="M721.139,-181.686C695.904,-171.63 660.321,-157.45 638.175,-148.625"/>
<polygon fill="midnightblue" stroke="midnightblue" points="720,-185 730.586,-185.45 722.592,-178.497 720,-185"/>
</g>
<!-- Node88&#45;&gt;Node97 -->
<g id="edge15" class="edge"><title>Node88&#45;&gt;Node97</title>
<path fill="none" stroke="midnightblue" d="M673.236,-187.449C567.844,-179.155 373.514,-163.616 207.786,-149 204.815,-148.738 201.79,-148.468 198.734,-148.193"/>
<polygon fill="midnightblue" stroke="midnightblue" points="673.221,-190.958 683.464,-188.253 673.769,-183.98 673.221,-190.958"/>
</g>
<!-- Node88&#45;&gt;Node99 -->
<g id="edge18" class="edge"><title>Node88&#45;&gt;Node99</title>
<path fill="none" stroke="midnightblue" d="M824.192,-184.125C903.339,-174.017 1028.02,-158.095 1102.84,-148.538"/>
<polygon fill="midnightblue" stroke="midnightblue" points="823.291,-180.712 813.815,-185.45 824.178,-187.655 823.291,-180.712"/>
</g>
<!-- Node88&#45;&gt;Node101 -->
<g id="edge21" class="edge"><title>Node88&#45;&gt;Node101</title>
<path fill="none" stroke="midnightblue" d="M828.188,-186.817C928.293,-178.161 1108.06,-162.571 1261.79,-149 1264.75,-148.738 1267.78,-148.471 1270.83,-148.2"/>
<polygon fill="midnightblue" stroke="midnightblue" points="827.821,-183.336 818.16,-187.684 828.424,-190.309 827.821,-183.336"/>
</g>
<!-- Node88&#45;&gt;Node103 -->
<g id="edge24" class="edge"><title>Node88&#45;&gt;Node103</title>
<path fill="none" stroke="midnightblue" d="M828.194,-189.173C957.442,-181.816 1225.35,-166.005 1451.79,-149 1454.77,-148.776 1457.8,-148.543 1460.86,-148.304"/>
<polygon fill="midnightblue" stroke="midnightblue" points="827.787,-185.69 818.002,-189.752 828.184,-192.679 827.787,-185.69"/>
</g>
<!-- Node88&#45;&gt;Node105 -->
<g id="edge27" class="edge"><title>Node88&#45;&gt;Node105</title>
<path fill="none" stroke="midnightblue" d="M796.345,-183.181C841.081,-173.048 908.395,-157.802 949.296,-148.538"/>
<polygon fill="midnightblue" stroke="midnightblue" points="795.305,-179.828 786.325,-185.45 796.851,-186.655 795.305,-179.828"/>
</g>
<!-- Node107 -->
<g id="node23" class="node"><title>Node107</title>
<g id="a_node23"><a xlink:href="../../d6/d1f/gOcraTaskManagerBase_8cpp.html" target="_top" xlink:title="gOcraTaskManagerBase.cpp">
<polygon fill="white" stroke="black" points="708.308,-130.5 708.308,-148.5 853.263,-148.5 853.263,-130.5 708.308,-130.5"/>
<text text-anchor="middle" x="780.786" y="-136.5" font-family="Helvetica,sans-Serif" font-size="10.00">gOcraTaskManagerBase.cpp</text>
</a>
</g>
</g>
<!-- Node88&#45;&gt;Node107 -->
<g id="edge30" class="edge"><title>Node88&#45;&gt;Node107</title>
<path fill="none" stroke="midnightblue" d="M760.486,-176.363C765.772,-167.024 772.066,-155.905 776.229,-148.55"/>
<polygon fill="midnightblue" stroke="midnightblue" points="757.353,-174.792 755.473,-185.219 763.445,-178.24 757.353,-174.792"/>
</g>
<!-- Node89&#45;&gt;Node90 -->
<g id="edge5" class="edge"><title>Node89&#45;&gt;Node90</title>
<path fill="none" stroke="midnightblue" d="M727.941,-64.8765C635.588,-50.3658 540.968,-36.0403 477.392,-26.4943"/>
<polygon fill="midnightblue" stroke="midnightblue" points="727.603,-68.3664 738.025,-66.4633 728.691,-61.4514 727.603,-68.3664"/>
</g>
<!-- Node91&#45;&gt;Node89 -->
<g id="edge7" class="edge"><title>Node91&#45;&gt;Node89</title>
<path fill="none" stroke="midnightblue" d="M359.05,-129.887C524.226,-112.765 567.707,-114.893 728.786,-94 731.826,-93.6057 734.926,-93.1852 738.055,-92.7455"/>
<polygon fill="midnightblue" stroke="midnightblue" points="358.615,-126.413 349.033,-130.933 359.342,-133.375 358.615,-126.413"/>
</g>
<!-- Node92 -->
<g id="node8" class="node"><title>Node92</title>
<g id="a_node8"><a xlink:href="../../d4/d34/gOcraCoMTaskManager_8cpp.html" target="_top" xlink:title="gOcraCoMTaskManager.cpp">
<polygon fill="white" stroke="black" points="213.421,-70.5 213.421,-88.5 356.15,-88.5 356.15,-70.5 213.421,-70.5"/>
<text text-anchor="middle" x="284.786" y="-76.5" font-family="Helvetica,sans-Serif" font-size="10.00">gOcraCoMTaskManager.cpp</text>
</a>
</g>
</g>
<!-- Node91&#45;&gt;Node92 -->
<g id="edge8" class="edge"><title>Node91&#45;&gt;Node92</title>
<path fill="none" stroke="midnightblue" d="M283.416,-120.214C283.778,-109.714 284.215,-97.0332 284.497,-88.8718"/>
<polygon fill="midnightblue" stroke="midnightblue" points="279.91,-120.321 283.064,-130.435 286.906,-120.562 279.91,-120.321"/>
</g>
<!-- Node93&#45;&gt;Node89 -->
<g id="edge10" class="edge"><title>Node93&#45;&gt;Node89</title>
<path fill="none" stroke="midnightblue" d="M507.949,-128.934C565.079,-119.978 652.724,-106.187 728.786,-94 731.813,-93.515 734.902,-93.0187 738.022,-92.5162"/>
<polygon fill="midnightblue" stroke="midnightblue" points="507.336,-125.487 497.998,-130.493 508.419,-132.403 507.336,-125.487"/>
</g>
<!-- Node94 -->
<g id="node10" class="node"><title>Node94</title>
<g id="a_node10"><a xlink:href="../../d9/d71/gOcraContactSetTaskManager_8cpp.html" target="_top" xlink:title="gOcraContactSetTaskManager.cpp">
<polygon fill="white" stroke="black" points="374.242,-70.5 374.242,-88.5 545.329,-88.5 545.329,-70.5 374.242,-70.5"/>
<text text-anchor="middle" x="459.786" y="-76.5" font-family="Helvetica,sans-Serif" font-size="10.00">gOcraContactSetTaskManager.cpp</text>
</a>
</g>
</g>
<!-- Node93&#45;&gt;Node94 -->
<g id="edge11" class="edge"><title>Node93&#45;&gt;Node94</title>
<path fill="none" stroke="midnightblue" d="M450.809,-120.549C453.177,-109.984 456.06,-97.12 457.909,-88.8718"/>
<polygon fill="midnightblue" stroke="midnightblue" points="447.365,-119.912 448.593,-130.435 454.196,-121.443 447.365,-119.912"/>
</g>
<!-- Node95&#45;&gt;Node89 -->
<g id="edge13" class="edge"><title>Node95&#45;&gt;Node89</title>
<path fill="none" stroke="midnightblue" d="M654.711,-127.46C687.057,-117.79 734.104,-103.724 768.271,-93.5096"/>
<polygon fill="midnightblue" stroke="midnightblue" points="653.339,-124.218 644.76,-130.435 655.344,-130.924 653.339,-124.218"/>
</g>
<!-- Node96 -->
<g id="node12" class="node"><title>Node96</title>
<g id="a_node12"><a xlink:href="../../da/d9a/gOcraContactTaskManager_8cpp.html" target="_top" xlink:title="gOcraContactTaskManager.cpp">
<polygon fill="white" stroke="black" points="563.746,-70.5 563.746,-88.5 719.825,-88.5 719.825,-70.5 563.746,-70.5"/>
<text text-anchor="middle" x="641.786" y="-76.5" font-family="Helvetica,sans-Serif" font-size="10.00">gOcraContactTaskManager.cpp</text>
</a>
</g>
</g>
<!-- Node95&#45;&gt;Node96 -->
<g id="edge14" class="edge"><title>Node95&#45;&gt;Node96</title>
<path fill="none" stroke="midnightblue" d="M625.076,-120.882C629.473,-110.256 634.872,-97.2069 638.321,-88.8718"/>
<polygon fill="midnightblue" stroke="midnightblue" points="621.712,-119.857 621.123,-130.435 628.18,-122.533 621.712,-119.857"/>
</g>
<!-- Node97&#45;&gt;Node89 -->
<g id="edge16" class="edge"><title>Node97&#45;&gt;Node89</title>
<path fill="none" stroke="midnightblue" d="M208.834,-129.94C440.829,-111.35 501.479,-120.282 728.786,-94 731.831,-93.6479 734.935,-93.2627 738.068,-92.8522"/>
<polygon fill="midnightblue" stroke="midnightblue" points="208.415,-126.462 198.73,-130.758 208.98,-133.44 208.415,-126.462"/>
</g>
<!-- Node98 -->
<g id="node14" class="node"><title>Node98</title>
<g id="a_node14"><a xlink:href="../../d3/df6/gOcraFullPostureTaskManager_8cpp.html" target="_top" xlink:title="gOcraFullPostureTaskManager.cpp">
<polygon fill="white" stroke="black" points="23.6898,-70.5 23.6898,-88.5 195.881,-88.5 195.881,-70.5 23.6898,-70.5"/>
<text text-anchor="middle" x="109.786" y="-76.5" font-family="Helvetica,sans-Serif" font-size="10.00">gOcraFullPostureTaskManager.cpp</text>
</a>
</g>
</g>
<!-- Node97&#45;&gt;Node98 -->
<g id="edge17" class="edge"><title>Node97&#45;&gt;Node98</title>
<path fill="none" stroke="midnightblue" d="M115.263,-120.214C113.815,-109.714 112.066,-97.0332 110.94,-88.8718"/>
<polygon fill="midnightblue" stroke="midnightblue" points="111.84,-121.007 116.673,-130.435 118.774,-120.051 111.84,-121.007"/>
</g>
<!-- Node99&#45;&gt;Node89 -->
<g id="edge19" class="edge"><title>Node99&#45;&gt;Node89</title>
<path fill="none" stroke="midnightblue" d="M1106.75,-128.828C1046.04,-118.881 951.334,-103.364 885.683,-92.6075"/>
<polygon fill="midnightblue" stroke="midnightblue" points="1106.5,-132.333 1116.93,-130.496 1107.63,-125.425 1106.5,-132.333"/>
</g>
<!-- Node100 -->
<g id="node16" class="node"><title>Node100</title>
<g id="a_node16"><a xlink:href="../../dd/dcc/gOcraPartialPostureTaskManager_8cpp.html" target="_top" xlink:title="gOcraPartialPostureTaskManager.cpp">
<polygon fill="white" stroke="black" points="1083.57,-70.5 1083.57,-88.5 1268,-88.5 1268,-70.5 1083.57,-70.5"/>
<text text-anchor="middle" x="1175.79" y="-76.5" font-family="Helvetica,sans-Serif" font-size="10.00">gOcraPartialPostureTaskManager.cpp</text>
</a>
</g>
</g>
<!-- Node99&#45;&gt;Node100 -->
<g id="edge20" class="edge"><title>Node99&#45;&gt;Node100</title>
<path fill="none" stroke="midnightblue" d="M1168.88,-120.549C1170.7,-109.984 1172.92,-97.12 1174.34,-88.8718"/>
<polygon fill="midnightblue" stroke="midnightblue" points="1165.43,-119.986 1167.18,-130.435 1172.32,-121.175 1165.43,-119.986"/>
</g>
<!-- Node101&#45;&gt;Node89 -->
<g id="edge22" class="edge"><title>Node101&#45;&gt;Node89</title>
<path fill="none" stroke="midnightblue" d="M1260.56,-129.57C1135.81,-117.94 930.006,-98.5557 894.786,-94 891.745,-93.6067 888.645,-93.1871 885.515,-92.7482"/>
<polygon fill="midnightblue" stroke="midnightblue" points="1260.6,-133.089 1270.88,-130.532 1261.25,-126.119 1260.6,-133.089"/>
</g>
<!-- Node102 -->
<g id="node18" class="node"><title>Node102</title>
<g id="a_node18"><a xlink:href="../../dd/d9e/gOcraSegCartesianTaskManager_8cpp.html" target="_top" xlink:title="gOcraSegCartesianTaskManager.cpp">
<polygon fill="white" stroke="black" points="1285.68,-70.5 1285.68,-88.5 1467.89,-88.5 1467.89,-70.5 1285.68,-70.5"/>
<text text-anchor="middle" x="1376.79" y="-76.5" font-family="Helvetica,sans-Serif" font-size="10.00">gOcraSegCartesianTaskManager.cpp</text>
</a>
</g>
</g>
<!-- Node101&#45;&gt;Node102 -->
<g id="edge23" class="edge"><title>Node101&#45;&gt;Node102</title>
<path fill="none" stroke="midnightblue" d="M1362.86,-120.882C1366.52,-110.256 1371.02,-97.2069 1373.9,-88.8718"/>
<polygon fill="midnightblue" stroke="midnightblue" points="1359.52,-119.841 1359.57,-130.435 1366.14,-122.123 1359.52,-119.841"/>
</g>
<!-- Node103&#45;&gt;Node89 -->
<g id="edge25" class="edge"><title>Node103&#45;&gt;Node89</title>
<path fill="none" stroke="midnightblue" d="M1450.81,-129.948C1202.72,-111.555 1138.03,-121.577 894.786,-94 891.739,-93.6546 888.634,-93.2751 885.501,-92.8693"/>
<polygon fill="midnightblue" stroke="midnightblue" points="1450.62,-133.444 1460.86,-130.701 1451.15,-126.463 1450.62,-133.444"/>
</g>
<!-- Node104 -->
<g id="node20" class="node"><title>Node104</title>
<g id="a_node20"><a xlink:href="../../d8/dfe/gOcraSegOrientationTaskManager_8cpp.html" target="_top" xlink:title="gOcraSegOrientationTaskManager.cpp">
<polygon fill="white" stroke="black" points="1485.62,-70.5 1485.62,-88.5 1673.95,-88.5 1673.95,-70.5 1485.62,-70.5"/>
<text text-anchor="middle" x="1579.79" y="-76.5" font-family="Helvetica,sans-Serif" font-size="10.00">gOcraSegOrientationTaskManager.cpp</text>
</a>
</g>
</g>
<!-- Node103&#45;&gt;Node104 -->
<g id="edge26" class="edge"><title>Node103&#45;&gt;Node104</title>
<path fill="none" stroke="midnightblue" d="M1558.56,-121.542C1564.11,-110.802 1571.05,-97.3805 1575.46,-88.8718"/>
<polygon fill="midnightblue" stroke="midnightblue" points="1555.44,-119.945 1553.96,-130.435 1561.66,-123.161 1555.44,-119.945"/>
</g>
<!-- Node105&#45;&gt;Node89 -->
<g id="edge28" class="edge"><title>Node105&#45;&gt;Node89</title>
<path fill="none" stroke="midnightblue" d="M951.105,-127.208C922.287,-117.547 880.794,-103.636 850.59,-93.5096"/>
<polygon fill="midnightblue" stroke="midnightblue" points="950.137,-130.575 960.731,-130.435 952.362,-123.938 950.137,-130.575"/>
</g>
<!-- Node106 -->
<g id="node22" class="node"><title>Node106</title>
<g id="a_node22"><a xlink:href="../../de/d48/gOcraSegPoseTaskManager_8cpp.html" target="_top" xlink:title="gOcraSegPoseTaskManager.cpp">
<polygon fill="white" stroke="black" points="903.685,-70.5 903.685,-88.5 1065.89,-88.5 1065.89,-70.5 903.685,-70.5"/>
<text text-anchor="middle" x="984.786" y="-76.5" font-family="Helvetica,sans-Serif" font-size="10.00">gOcraSegPoseTaskManager.cpp</text>
</a>
</g>
</g>
<!-- Node105&#45;&gt;Node106 -->
<g id="edge29" class="edge"><title>Node105&#45;&gt;Node106</title>
<path fill="none" stroke="midnightblue" d="M984.786,-120.214C984.786,-109.714 984.786,-97.0332 984.786,-88.8718"/>
<polygon fill="midnightblue" stroke="midnightblue" points="981.286,-120.435 984.786,-130.435 988.286,-120.435 981.286,-120.435"/>
</g>
</g>
</svg>
