<?xml version="1.0" encoding="UTF-8" standalone="no"?>
<!DOCTYPE svg PUBLIC "-//W3C//DTD SVG 1.1//EN"
 "http://www.w3.org/Graphics/SVG/1.1/DTD/svg11.dtd">
<!-- Generated by graphviz version 2.38.0 (20140413.2041)
 -->
<!-- Title: gOcraPartialPostureTaskManager.h Pages: 1 -->
<svg width="358pt" height="157pt"
 viewBox="0.00 0.00 357.80 157.00" xmlns="http://www.w3.org/2000/svg" xmlns:xlink="http://www.w3.org/1999/xlink">
<g id="graph0" class="graph" transform="scale(1 1) rotate(0) translate(4 153)">
<title>gOcraPartialPostureTaskManager.h</title>
<polygon fill="white" stroke="none" points="-4,4 -4,-153 353.797,-153 353.797,4 -4,4"/>
<!-- Node105 -->
<g id="node1" class="node"><title>Node105</title>
<polygon fill="#bfbfbf" stroke="black" points="78.6553,-130.5 78.6553,-148.5 252.517,-148.5 252.517,-130.5 78.6553,-130.5"/>
<text text-anchor="middle" x="165.586" y="-136.5" font-family="Helvetica,sans-Serif" font-size="10.00">gOcraPartialPostureTaskManager.h</text>
</g>
<!-- Node106 -->
<g id="node2" class="node"><title>Node106</title>
<g id="a_node2"><a xlink:href="../../d4/d79/gOcraTaskManagerCollectionBase_8h.html" target="_top" xlink:title="gOcraTaskManagerCollection\lBase.h">
<polygon fill="white" stroke="black" points="0,-65.5 0,-93.5 147.172,-93.5 147.172,-65.5 0,-65.5"/>
<text text-anchor="start" x="8" y="-81.5" font-family="Helvetica,sans-Serif" font-size="10.00">gOcraTaskManagerCollection</text>
<text text-anchor="middle" x="73.5859" y="-71.5" font-family="Helvetica,sans-Serif" font-size="10.00">Base.h</text>
</a>
</g>
</g>
<!-- Node105&#45;&gt;Node106 -->
<g id="edge1" class="edge"><title>Node105&#45;&gt;Node106</title>
<path fill="none" stroke="midnightblue" d="M144.186,-125.009C129.193,-115.557 109.259,-102.99 94.3975,-93.6203"/>
<polygon fill="midnightblue" stroke="midnightblue" points="142.468,-128.063 152.794,-130.435 146.201,-122.142 142.468,-128.063"/>
</g>
<!-- Node108 -->
<g id="node4" class="node"><title>Node108</title>
<g id="a_node4"><a xlink:href="../../dd/dcc/gOcraPartialPostureTaskManager_8cpp.html" target="_top" xlink:title="gOcraPartialPostureTaskManager.cpp">
<polygon fill="white" stroke="black" points="165.375,-70.5 165.375,-88.5 349.797,-88.5 349.797,-70.5 165.375,-70.5"/>
<text text-anchor="middle" x="257.586" y="-76.5" font-family="Helvetica,sans-Serif" font-size="10.00">gOcraPartialPostureTaskManager.cpp</text>
</a>
</g>
</g>
<!-- Node105&#45;&gt;Node108 -->
<g id="edge3" class="edge"><title>Node105&#45;&gt;Node108</title>
<path fill="none" stroke="midnightblue" d="M186.977,-125.014C204.811,-113.771 229.639,-98.1187 244.606,-88.6831"/>
<polygon fill="midnightblue" stroke="midnightblue" points="184.971,-122.142 178.378,-130.435 188.704,-128.063 184.971,-122.142"/>
</g>
<!-- Node107 -->
<g id="node3" class="node"><title>Node107</title>
<g id="a_node3"><a xlink:href="../../de/d9f/gOcraTaskManagerCollectionBase_8cpp.html" target="_top" xlink:title="gOcraTaskManagerCollection\lBase.cpp">
<polygon fill="white" stroke="black" points="0,-0.5 0,-28.5 147.172,-28.5 147.172,-0.5 0,-0.5"/>
<text text-anchor="start" x="8" y="-16.5" font-family="Helvetica,sans-Serif" font-size="10.00">gOcraTaskManagerCollection</text>
<text text-anchor="middle" x="73.5859" y="-6.5" font-family="Helvetica,sans-Serif" font-size="10.00">Base.cpp</text>
</a>
</g>
</g>
<!-- Node106&#45;&gt;Node107 -->
<g id="edge2" class="edge"><title>Node106&#45;&gt;Node107</title>
<path fill="none" stroke="midnightblue" d="M73.5859,-55.1641C73.5859,-46.1693 73.5859,-36.2205 73.5859,-28.5369"/>
<polygon fill="midnightblue" stroke="midnightblue" points="70.086,-55.4463 73.5859,-65.4464 77.086,-55.4464 70.086,-55.4463"/>
</g>
</g>
</svg>
