<?xml version="1.0" encoding="UTF-8" standalone="no"?>
<!DOCTYPE svg PUBLIC "-//W3C//DTD SVG 1.1//EN"
 "http://www.w3.org/Graphics/SVG/1.1/DTD/svg11.dtd">
<!-- Generated by graphviz version 2.38.0 (20140413.2041)
 -->
<!-- Title: ocra::Subject Pages: 1 -->
<svg width="1138pt" height="814pt"
 viewBox="0.00 0.00 1137.96 814.00" xmlns="http://www.w3.org/2000/svg" xmlns:xlink="http://www.w3.org/1999/xlink">
<g id="graph0" class="graph" transform="scale(1 1) rotate(0) translate(4 810)">
<title>ocra::Subject</title>
<polygon fill="white" stroke="none" points="-4,4 -4,-810 1133.96,-810 1133.96,4 -4,4"/>
<!-- Node0 -->
<g id="node1" class="node"><title>Node0</title>
<polygon fill="#bfbfbf" stroke="black" points="215.657,-200.5 215.657,-218.5 290.021,-218.5 290.021,-200.5 215.657,-200.5"/>
<text text-anchor="middle" x="252.839" y="-206.5" font-family="Helvetica,sans-Serif" font-size="10.00">ocra::Subject</text>
</g>
<!-- Node4 -->
<g id="node5" class="node"><title>Node4</title>
<g id="a_node5"><a xlink:href="../../d3/d16/classocra_1_1ObserverSubject.html" target="_top" xlink:title="ocra::ObserverSubject">
<polygon fill="white" stroke="black" points="326.021,-200.5 326.021,-218.5 441.509,-218.5 441.509,-200.5 326.021,-200.5"/>
<text text-anchor="middle" x="383.765" y="-206.5" font-family="Helvetica,sans-Serif" font-size="10.00">ocra::ObserverSubject</text>
</a>
</g>
</g>
<!-- Node0&#45;&gt;Node4 -->
<g id="edge4" class="edge"><title>Node0&#45;&gt;Node4</title>
<path fill="none" stroke="midnightblue" d="M300.23,-209.5C308.447,-209.5 317.089,-209.5 325.562,-209.5"/>
<polygon fill="midnightblue" stroke="midnightblue" points="300.096,-206 290.095,-209.5 300.095,-213 300.096,-206"/>
</g>
<!-- Node1 -->
<g id="node2" class="node"><title>Node1</title>
<g id="a_node2"><a xlink:href="../../dc/d29/classocra_1_1SubjectBase.html" target="_top" xlink:title="ocra::SubjectBase\&lt;\l EVT_RESIZE \&gt;">
<polygon fill="white" stroke="black" points="38.3301,-242.5 38.3301,-270.5 141.327,-270.5 141.327,-242.5 38.3301,-242.5"/>
<text text-anchor="start" x="46.3301" y="-258.5" font-family="Helvetica,sans-Serif" font-size="10.00">ocra::SubjectBase&lt;</text>
<text text-anchor="middle" x="89.8286" y="-248.5" font-family="Helvetica,sans-Serif" font-size="10.00"> EVT_RESIZE &gt;</text>
</a>
</g>
</g>
<!-- Node1&#45;&gt;Node0 -->
<g id="edge1" class="edge"><title>Node1&#45;&gt;Node0</title>
<path fill="none" stroke="midnightblue" d="M151.435,-240.513C160.901,-237.904 170.558,-235.177 179.657,-232.5 194.546,-228.119 211.045,-222.89 224.507,-218.526"/>
<polygon fill="midnightblue" stroke="midnightblue" points="150.394,-237.169 141.671,-243.182 152.24,-243.921 150.394,-237.169"/>
</g>
<!-- Node2 -->
<g id="node3" class="node"><title>Node2</title>
<g id="a_node3"><a xlink:href="../../dc/d29/classocra_1_1SubjectBase.html" target="_top" xlink:title="ocra::SubjectBase\&lt;\l EVT_CHANGE_DEPENDENCIES \&gt;">
<polygon fill="white" stroke="black" points="0,-195.5 0,-223.5 179.657,-223.5 179.657,-195.5 0,-195.5"/>
<text text-anchor="start" x="8" y="-211.5" font-family="Helvetica,sans-Serif" font-size="10.00">ocra::SubjectBase&lt;</text>
<text text-anchor="middle" x="89.8286" y="-201.5" font-family="Helvetica,sans-Serif" font-size="10.00"> EVT_CHANGE_DEPENDENCIES &gt;</text>
</a>
</g>
</g>
<!-- Node2&#45;&gt;Node0 -->
<g id="edge2" class="edge"><title>Node2&#45;&gt;Node0</title>
<path fill="none" stroke="midnightblue" d="M189.985,-209.5C198.898,-209.5 207.488,-209.5 215.285,-209.5"/>
<polygon fill="midnightblue" stroke="midnightblue" points="189.811,-206 179.811,-209.5 189.811,-213 189.811,-206"/>
</g>
<!-- Node3 -->
<g id="node4" class="node"><title>Node3</title>
<g id="a_node4"><a xlink:href="../../dc/d29/classocra_1_1SubjectBase.html" target="_top" xlink:title="ocra::SubjectBase\&lt;\l EVT_CHANGE_VALUE \&gt;">
<polygon fill="white" stroke="black" points="23.4253,-148.5 23.4253,-176.5 156.232,-176.5 156.232,-148.5 23.4253,-148.5"/>
<text text-anchor="start" x="31.4253" y="-164.5" font-family="Helvetica,sans-Serif" font-size="10.00">ocra::SubjectBase&lt;</text>
<text text-anchor="middle" x="89.8286" y="-154.5" font-family="Helvetica,sans-Serif" font-size="10.00"> EVT_CHANGE_VALUE &gt;</text>
</a>
</g>
</g>
<!-- Node3&#45;&gt;Node0 -->
<g id="edge3" class="edge"><title>Node3&#45;&gt;Node0</title>
<path fill="none" stroke="midnightblue" d="M157.281,-179.182C164.848,-181.237 172.434,-183.367 179.657,-185.5 195.109,-190.064 212.227,-195.728 225.913,-200.408"/>
<polygon fill="midnightblue" stroke="midnightblue" points="157.941,-175.735 147.376,-176.529 156.13,-182.497 157.941,-175.735"/>
</g>
<!-- Node5 -->
<g id="node6" class="node"><title>Node5</title>
<g id="a_node6"><a xlink:href="../../d2/d99/classocra_1_1Function.html" target="_top" xlink:title="Function class. ">
<polygon fill="white" stroke="black" points="493.261,-484.5 493.261,-502.5 572.625,-502.5 572.625,-484.5 493.261,-484.5"/>
<text text-anchor="middle" x="532.943" y="-490.5" font-family="Helvetica,sans-Serif" font-size="10.00">ocra::Function</text>
</a>
</g>
</g>
<!-- Node4&#45;&gt;Node5 -->
<g id="edge5" class="edge"><title>Node4&#45;&gt;Node5</title>
<path fill="none" stroke="midnightblue" d="M394.268,-227.836C422.669,-282.641 506.243,-443.908 527.156,-484.264"/>
<polygon fill="midnightblue" stroke="midnightblue" points="397.204,-225.896 389.495,-218.628 390.989,-229.117 397.204,-225.896"/>
</g>
<!-- Node38 -->
<g id="node34" class="node"><title>Node38</title>
<g id="a_node34"><a xlink:href="../../dd/d9c/classocra_1_1MergedVariable.html" target="_top" xlink:title="ocra::MergedVariable">
<polygon fill="white" stroke="black" points="477.509,-237.5 477.509,-255.5 588.377,-255.5 588.377,-237.5 477.509,-237.5"/>
<text text-anchor="middle" x="532.943" y="-243.5" font-family="Helvetica,sans-Serif" font-size="10.00">ocra::MergedVariable</text>
</a>
</g>
</g>
<!-- Node4&#45;&gt;Node38 -->
<g id="edge33" class="edge"><title>Node4&#45;&gt;Node38</title>
<path fill="none" stroke="midnightblue" d="M430.496,-220.997C451.61,-226.305 476.313,-232.515 496.056,-237.478"/>
<polygon fill="midnightblue" stroke="midnightblue" points="431.32,-217.595 420.769,-218.551 429.614,-224.384 431.32,-217.595"/>
</g>
<!-- Node39 -->
<g id="node35" class="node"><title>Node39</title>
<g id="a_node35"><a xlink:href="../../d8/d4c/classocra_1_1ModelContacts.html" target="_top" xlink:title="ModelContacts class. ">
<polygon fill="white" stroke="black" points="479.088,-200.5 479.088,-218.5 586.797,-218.5 586.797,-200.5 479.088,-200.5"/>
<text text-anchor="middle" x="532.943" y="-206.5" font-family="Helvetica,sans-Serif" font-size="10.00">ocra::ModelContacts</text>
</a>
</g>
</g>
<!-- Node4&#45;&gt;Node39 -->
<g id="edge34" class="edge"><title>Node4&#45;&gt;Node39</title>
<path fill="none" stroke="midnightblue" d="M451.871,-209.5C460.985,-209.5 470.232,-209.5 479.049,-209.5"/>
<polygon fill="midnightblue" stroke="midnightblue" points="451.668,-206 441.668,-209.5 451.668,-213 451.668,-206"/>
</g>
<!-- Node40 -->
<g id="node36" class="node"><title>Node40</title>
<g id="a_node36"><a xlink:href="../../d6/dd3/classocra_1_1Solver.html" target="_top" xlink:title="Solver class. ">
<polygon fill="white" stroke="black" points="498.266,-163.5 498.266,-181.5 567.62,-181.5 567.62,-163.5 498.266,-163.5"/>
<text text-anchor="middle" x="532.943" y="-169.5" font-family="Helvetica,sans-Serif" font-size="10.00">ocra::Solver</text>
</a>
</g>
</g>
<!-- Node4&#45;&gt;Node40 -->
<g id="edge35" class="edge"><title>Node4&#45;&gt;Node40</title>
<path fill="none" stroke="midnightblue" d="M430.499,-198.003C452.34,-192.512 478.02,-186.056 498.078,-181.013"/>
<polygon fill="midnightblue" stroke="midnightblue" points="429.614,-194.616 420.769,-200.449 431.32,-201.405 429.614,-194.616"/>
</g>
<!-- Node51 -->
<g id="node47" class="node"><title>Node51</title>
<g id="a_node47"><a xlink:href="../../d2/dac/classocra_1_1Variable.html" target="_top" xlink:title="This class represents a variable in a mathematical sense. ">
<polygon fill="white" stroke="black" points="494.462,-37.5 494.462,-55.5 571.424,-55.5 571.424,-37.5 494.462,-37.5"/>
<text text-anchor="middle" x="532.943" y="-43.5" font-family="Helvetica,sans-Serif" font-size="10.00">ocra::Variable</text>
</a>
</g>
</g>
<!-- Node4&#45;&gt;Node51 -->
<g id="edge46" class="edge"><title>Node4&#45;&gt;Node51</title>
<path fill="none" stroke="midnightblue" d="M400.091,-192.526C431.011,-158.283 499.934,-81.95 523.7,-55.6294"/>
<polygon fill="midnightblue" stroke="midnightblue" points="397.204,-190.502 393.1,-200.269 402.399,-195.193 397.204,-190.502"/>
</g>
<!-- Node6 -->
<g id="node7" class="node"><title>Node6</title>
<g id="a_node7"><a xlink:href="../../d1/d44/classFunction1.html" target="_top" xlink:title="Function1">
<polygon fill="white" stroke="black" points="659.394,-688.5 659.394,-706.5 719.31,-706.5 719.31,-688.5 659.394,-688.5"/>
<text text-anchor="middle" x="689.352" y="-694.5" font-family="Helvetica,sans-Serif" font-size="10.00">Function1</text>
</a>
</g>
</g>
<!-- Node5&#45;&gt;Node6 -->
<g id="edge6" class="edge"><title>Node5&#45;&gt;Node6</title>
<path fill="none" stroke="midnightblue" d="M537.98,-512.949C546.816,-550.608 571.456,-633.707 624.377,-678.5 634.105,-686.734 647.285,-691.4 659.154,-694.044"/>
<polygon fill="midnightblue" stroke="midnightblue" points="541.314,-511.818 535.731,-502.814 534.48,-513.334 541.314,-511.818"/>
</g>
<!-- Node7 -->
<g id="node8" class="node"><title>Node7</title>
<g id="a_node8"><a xlink:href="../../d6/d7e/classFunction2.html" target="_top" xlink:title="Function2">
<polygon fill="white" stroke="black" points="659.394,-651.5 659.394,-669.5 719.31,-669.5 719.31,-651.5 659.394,-651.5"/>
<text text-anchor="middle" x="689.352" y="-657.5" font-family="Helvetica,sans-Serif" font-size="10.00">Function2</text>
</a>
</g>
</g>
<!-- Node5&#45;&gt;Node7 -->
<g id="edge7" class="edge"><title>Node5&#45;&gt;Node7</title>
<path fill="none" stroke="midnightblue" d="M540.39,-512.501C552.073,-544.056 579.749,-607.185 624.377,-641.5 634.389,-649.198 647.473,-653.785 659.198,-656.515"/>
<polygon fill="midnightblue" stroke="midnightblue" points="543.573,-511.004 536.923,-502.755 536.977,-513.35 543.573,-511.004"/>
</g>
<!-- Node8 -->
<g id="node9" class="node"><title>Node8</title>
<g id="a_node9"><a xlink:href="../../d9/d4a/classFunction3.html" target="_top" xlink:title="Function3">
<polygon fill="white" stroke="black" points="659.394,-614.5 659.394,-632.5 719.31,-632.5 719.31,-614.5 659.394,-614.5"/>
<text text-anchor="middle" x="689.352" y="-620.5" font-family="Helvetica,sans-Serif" font-size="10.00">Function3</text>
</a>
</g>
</g>
<!-- Node5&#45;&gt;Node8 -->
<g id="edge8" class="edge"><title>Node5&#45;&gt;Node8</title>
<path fill="none" stroke="midnightblue" d="M543.872,-511.491C558.373,-536.11 587.656,-580.024 624.377,-604.5 634.789,-611.44 647.802,-615.906 659.369,-618.75"/>
<polygon fill="midnightblue" stroke="midnightblue" points="546.742,-509.459 538.74,-502.516 540.665,-512.934 546.742,-509.459"/>
</g>
<!-- Node9 -->
<g id="node10" class="node"><title>Node9</title>
<g id="a_node10"><a xlink:href="../../db/d8c/classMyFunction.html" target="_top" xlink:title="MyFunction">
<polygon fill="white" stroke="black" points="655.51,-577.5 655.51,-595.5 723.194,-595.5 723.194,-577.5 655.51,-577.5"/>
<text text-anchor="middle" x="689.352" y="-583.5" font-family="Helvetica,sans-Serif" font-size="10.00">MyFunction</text>
</a>
</g>
</g>
<!-- Node5&#45;&gt;Node9 -->
<g id="edge9" class="edge"><title>Node5&#45;&gt;Node9</title>
<path fill="none" stroke="midnightblue" d="M549.959,-510.016C566.99,-526.705 595.415,-552.155 624.377,-567.5 634.001,-572.599 645.182,-576.515 655.481,-579.43"/>
<polygon fill="midnightblue" stroke="midnightblue" points="552.105,-507.212 542.562,-502.61 547.153,-512.159 552.105,-507.212"/>
</g>
<!-- Node10 -->
<g id="node11" class="node"><title>Node10</title>
<g id="a_node11"><a xlink:href="../../db/da4/classocra_1_1DotProductFunction.html" target="_top" xlink:title="DotProductFunction class. ">
<polygon fill="white" stroke="black" points="624.658,-540.5 624.658,-558.5 754.046,-558.5 754.046,-540.5 624.658,-540.5"/>
<text text-anchor="middle" x="689.352" y="-546.5" font-family="Helvetica,sans-Serif" font-size="10.00">ocra::DotProductFunction</text>
</a>
</g>
</g>
<!-- Node5&#45;&gt;Node10 -->
<g id="edge10" class="edge"><title>Node5&#45;&gt;Node10</title>
<path fill="none" stroke="midnightblue" d="M564.184,-506.756C581.618,-514.174 604.046,-523.342 624.377,-530.5 634.431,-534.04 645.522,-537.489 655.605,-540.456"/>
<polygon fill="midnightblue" stroke="midnightblue" points="565.119,-503.348 554.55,-502.618 562.357,-509.78 565.119,-503.348"/>
</g>
<!-- Node11 -->
<g id="node12" class="node"><title>Node11</title>
<g id="a_node12"><a xlink:href="../../de/d3a/classocra_1_1LinearFunction.html" target="_top" xlink:title="LinearFunction class. ">
<polygon fill="white" stroke="black" points="635.771,-503.5 635.771,-521.5 742.933,-521.5 742.933,-503.5 635.771,-503.5"/>
<text text-anchor="middle" x="689.352" y="-509.5" font-family="Helvetica,sans-Serif" font-size="10.00">ocra::LinearFunction</text>
</a>
</g>
</g>
<!-- Node5&#45;&gt;Node11 -->
<g id="edge11" class="edge"><title>Node5&#45;&gt;Node11</title>
<path fill="none" stroke="midnightblue" d="M583.052,-499.543C599.827,-501.607 618.65,-503.923 635.692,-506.02"/>
<polygon fill="midnightblue" stroke="midnightblue" points="583.259,-496.042 572.907,-498.295 582.404,-502.99 583.259,-496.042"/>
</g>
<!-- Node30 -->
<g id="node26" class="node"><title>Node30</title>
<g id="a_node26"><a xlink:href="../../dd/d93/classocra_1_1Pb114G10.html" target="_top" xlink:title="ocra::Pb114G10">
<polygon fill="white" stroke="black" points="645.307,-466.5 645.307,-484.5 733.397,-484.5 733.397,-466.5 645.307,-466.5"/>
<text text-anchor="middle" x="689.352" y="-472.5" font-family="Helvetica,sans-Serif" font-size="10.00">ocra::Pb114G10</text>
</a>
</g>
</g>
<!-- Node5&#45;&gt;Node30 -->
<g id="edge25" class="edge"><title>Node5&#45;&gt;Node30</title>
<path fill="none" stroke="midnightblue" d="M583.025,-487.778C602.944,-485.456 625.756,-482.797 645.045,-480.548"/>
<polygon fill="midnightblue" stroke="midnightblue" points="582.434,-484.323 572.907,-488.958 583.245,-491.276 582.434,-484.323"/>
</g>
<!-- Node31 -->
<g id="node27" class="node"><title>Node31</title>
<g id="a_node27"><a xlink:href="../../da/d6c/classocra_1_1Pb114G11.html" target="_top" xlink:title="ocra::Pb114G11">
<polygon fill="white" stroke="black" points="645.676,-429.5 645.676,-447.5 733.028,-447.5 733.028,-429.5 645.676,-429.5"/>
<text text-anchor="middle" x="689.352" y="-435.5" font-family="Helvetica,sans-Serif" font-size="10.00">ocra::Pb114G11</text>
</a>
</g>
</g>
<!-- Node5&#45;&gt;Node31 -->
<g id="edge26" class="edge"><title>Node5&#45;&gt;Node31</title>
<path fill="none" stroke="midnightblue" d="M563.802,-480.279C581.272,-472.798 603.861,-463.557 624.377,-456.5 633.76,-453.272 644.059,-450.182 653.599,-447.501"/>
<polygon fill="midnightblue" stroke="midnightblue" points="561.95,-477.267 554.162,-484.451 564.73,-483.692 561.95,-477.267"/>
</g>
<!-- Node32 -->
<g id="node28" class="node"><title>Node32</title>
<g id="a_node28"><a xlink:href="../../d9/df1/classocra_1_1Pb114G5.html" target="_top" xlink:title="ocra::Pb114G5">
<polygon fill="white" stroke="black" points="648.088,-392.5 648.088,-410.5 730.616,-410.5 730.616,-392.5 648.088,-392.5"/>
<text text-anchor="middle" x="689.352" y="-398.5" font-family="Helvetica,sans-Serif" font-size="10.00">ocra::Pb114G5</text>
</a>
</g>
</g>
<!-- Node5&#45;&gt;Node32 -->
<g id="edge27" class="edge"><title>Node5&#45;&gt;Node32</title>
<path fill="none" stroke="midnightblue" d="M549.915,-476.898C566.909,-460.141 595.305,-434.636 624.377,-419.5 631.643,-415.717 639.8,-412.648 647.794,-410.187"/>
<polygon fill="midnightblue" stroke="midnightblue" points="547.092,-474.774 542.535,-484.338 552.062,-479.703 547.092,-474.774"/>
</g>
<!-- Node33 -->
<g id="node29" class="node"><title>Node33</title>
<g id="a_node29"><a xlink:href="../../d9/d7e/classocra_1_1QuadraticFunction.html" target="_top" xlink:title="QuadraticFunction class. ">
<polygon fill="white" stroke="black" points="627.993,-318.5 627.993,-336.5 750.711,-336.5 750.711,-318.5 627.993,-318.5"/>
<text text-anchor="middle" x="689.352" y="-324.5" font-family="Helvetica,sans-Serif" font-size="10.00">ocra::QuadraticFunction</text>
</a>
</g>
</g>
<!-- Node5&#45;&gt;Node33 -->
<g id="edge28" class="edge"><title>Node5&#45;&gt;Node33</title>
<path fill="none" stroke="midnightblue" d="M546.54,-476.176C563.259,-453.64 594.197,-413.489 624.377,-382.5 641.341,-365.081 663.204,-347.127 676.48,-336.655"/>
<polygon fill="midnightblue" stroke="midnightblue" points="543.583,-474.289 540.478,-484.418 549.222,-478.436 543.583,-474.289"/>
</g>
<!-- Node37 -->
<g id="node33" class="node"><title>Node37</title>
<g id="a_node33"><a xlink:href="../../df/d5a/classocra_1_1SubtractionFunction.html" target="_top" xlink:title="SubtractionFunction class. ">
<polygon fill="white" stroke="black" points="624.377,-281.5 624.377,-299.5 754.327,-299.5 754.327,-281.5 624.377,-281.5"/>
<text text-anchor="middle" x="689.352" y="-287.5" font-family="Helvetica,sans-Serif" font-size="10.00">ocra::SubtractionFunction</text>
</a>
</g>
</g>
<!-- Node5&#45;&gt;Node37 -->
<g id="edge32" class="edge"><title>Node5&#45;&gt;Node37</title>
<path fill="none" stroke="midnightblue" d="M537.923,-473.983C546.661,-436.206 571.134,-352.91 624.377,-308.5 628.807,-304.805 633.947,-301.866 639.351,-299.53"/>
<polygon fill="midnightblue" stroke="midnightblue" points="534.417,-473.636 535.703,-484.152 541.256,-475.129 534.417,-473.636"/>
</g>
<!-- Node12 -->
<g id="node13" class="node"><title>Node12</title>
<g id="a_node13"><a xlink:href="../../d4/d45/classocra_1_1ContactAvoidanceFunction.html" target="_top" xlink:title="Create a linear function that represents the joint limit function. ">
<polygon fill="white" stroke="red" points="792.915,-782.5 792.915,-800.5 953.266,-800.5 953.266,-782.5 792.915,-782.5"/>
<text text-anchor="middle" x="873.09" y="-788.5" font-family="Helvetica,sans-Serif" font-size="10.00">ocra::ContactAvoidanceFunction</text>
</a>
</g>
</g>
<!-- Node11&#45;&gt;Node12 -->
<g id="edge12" class="edge"><title>Node11&#45;&gt;Node12</title>
<path fill="none" stroke="midnightblue" d="M751.472,-527.597C752.472,-528.511 753.426,-529.477 754.327,-530.5 826.2,-612.1 716.599,-692.573 790.327,-772.5 794.082,-776.571 798.524,-779.851 803.365,-782.487"/>
<polygon fill="midnightblue" stroke="midnightblue" points="753.19,-524.524 743.011,-521.582 749.134,-530.229 753.19,-524.524"/>
</g>
<!-- Node15 -->
<g id="node15" class="node"><title>Node15</title>
<g id="a_node15"><a xlink:href="../../d3/d89/classocra_1_1DiagonalLinearFunction.html" target="_top" xlink:title="DiagonalLinearFunction class. ">
<polygon fill="white" stroke="red" points="799.773,-745.5 799.773,-763.5 946.408,-763.5 946.408,-745.5 799.773,-745.5"/>
<text text-anchor="middle" x="873.09" y="-751.5" font-family="Helvetica,sans-Serif" font-size="10.00">ocra::DiagonalLinearFunction</text>
</a>
</g>
</g>
<!-- Node11&#45;&gt;Node15 -->
<g id="edge14" class="edge"><title>Node11&#45;&gt;Node15</title>
<path fill="none" stroke="midnightblue" d="M751.016,-527.259C752.18,-528.271 753.287,-529.35 754.327,-530.5 816.373,-599.112 726.722,-668.331 790.327,-735.5 794.135,-739.521 798.614,-742.767 803.481,-745.379"/>
<polygon fill="midnightblue" stroke="midnightblue" points="752.837,-524.264 742.608,-521.505 748.883,-530.041 752.837,-524.264"/>
</g>
<!-- Node18 -->
<g id="node16" class="node"><title>Node18</title>
<g id="a_node16"><a xlink:href="../../d4/d5c/classocra_1_1DoubleDiagonalLinearFunction.html" target="_top" xlink:title="DoubleDiagonalLinearFunction class. ">
<polygon fill="white" stroke="black" points="803.105,-698.5 803.105,-726.5 943.075,-726.5 943.075,-698.5 803.105,-698.5"/>
<text text-anchor="start" x="811.105" y="-714.5" font-family="Helvetica,sans-Serif" font-size="10.00">ocra::DoubleDiagonalLinear</text>
<text text-anchor="middle" x="873.09" y="-704.5" font-family="Helvetica,sans-Serif" font-size="10.00">Function</text>
</a>
</g>
</g>
<!-- Node11&#45;&gt;Node18 -->
<g id="edge15" class="edge"><title>Node11&#45;&gt;Node18</title>
<path fill="none" stroke="midnightblue" d="M750.856,-527.261C752.073,-528.272 753.234,-529.35 754.327,-530.5 803.959,-582.69 740.989,-636.031 790.327,-688.5 793.976,-692.38 798.215,-695.643 802.806,-698.387"/>
<polygon fill="midnightblue" stroke="midnightblue" points="752.39,-524.081 742.109,-521.519 748.548,-529.933 752.39,-524.081"/>
</g>
<!-- Node19 -->
<g id="node17" class="node"><title>Node19</title>
<g id="a_node17"><a xlink:href="../../d9/da6/classocra_1_1DynamicEquationFunction.html" target="_top" xlink:title="DynamicEquationFunction class. ">
<polygon fill="white" stroke="black" points="794.221,-661.5 794.221,-679.5 951.959,-679.5 951.959,-661.5 794.221,-661.5"/>
<text text-anchor="middle" x="873.09" y="-667.5" font-family="Helvetica,sans-Serif" font-size="10.00">ocra::DynamicEquationFunction</text>
</a>
</g>
</g>
<!-- Node11&#45;&gt;Node19 -->
<g id="edge16" class="edge"><title>Node11&#45;&gt;Node19</title>
<path fill="none" stroke="midnightblue" d="M750.287,-526.993C751.704,-528.08 753.056,-529.247 754.327,-530.5 794.296,-569.877 749.465,-613.051 790.327,-651.5 794.679,-655.594 799.734,-658.865 805.155,-661.47"/>
<polygon fill="midnightblue" stroke="midnightblue" points="751.901,-523.877 741.554,-521.601 748.224,-529.833 751.901,-523.877"/>
</g>
<!-- Node20 -->
<g id="node18" class="node"><title>Node20</title>
<g id="a_node18"><a xlink:href="../../de/ddd/classocra_1_1FullDynamicEquationFunction.html" target="_top" xlink:title="Create a linear function that represents the dynamic equation of motion. ">
<polygon fill="white" stroke="black" points="805.342,-614.5 805.342,-642.5 940.839,-642.5 940.839,-614.5 805.342,-614.5"/>
<text text-anchor="start" x="813.342" y="-630.5" font-family="Helvetica,sans-Serif" font-size="10.00">ocra::FullDynamicEquation</text>
<text text-anchor="middle" x="873.09" y="-620.5" font-family="Helvetica,sans-Serif" font-size="10.00">Function</text>
</a>
</g>
</g>
<!-- Node11&#45;&gt;Node20 -->
<g id="edge17" class="edge"><title>Node11&#45;&gt;Node20</title>
<path fill="none" stroke="midnightblue" d="M748.61,-526.356C750.613,-527.619 752.529,-528.997 754.327,-530.5 782.391,-553.954 762.395,-580.889 790.327,-604.5 794.959,-608.416 800.205,-611.693 805.749,-614.435"/>
<polygon fill="midnightblue" stroke="midnightblue" points="749.844,-523.052 739.36,-521.522 746.601,-529.256 749.844,-523.052"/>
</g>
<!-- Node21 -->
<g id="node19" class="node"><title>Node21</title>
<g id="a_node19"><a xlink:href="../../df/de0/classocra_1_1JointLimitFunction.html" target="_top" xlink:title="Create a linear function that represents the joint limit function. ">
<polygon fill="white" stroke="red" points="812.29,-577.5 812.29,-595.5 933.891,-595.5 933.891,-577.5 812.29,-577.5"/>
<text text-anchor="middle" x="873.09" y="-583.5" font-family="Helvetica,sans-Serif" font-size="10.00">ocra::JointLimitFunction</text>
</a>
</g>
</g>
<!-- Node11&#45;&gt;Node21 -->
<g id="edge18" class="edge"><title>Node11&#45;&gt;Node21</title>
<path fill="none" stroke="midnightblue" d="M743.666,-525.12C747.371,-526.714 750.965,-528.5 754.327,-530.5 774.045,-542.231 770.345,-556.225 790.327,-567.5 797.689,-571.654 805.911,-574.9 814.227,-577.438"/>
<polygon fill="midnightblue" stroke="midnightblue" points="744.886,-521.839 734.296,-521.543 742.39,-528.379 744.886,-521.839"/>
</g>
<!-- Node24 -->
<g id="node20" class="node"><title>Node24</title>
<g id="a_node20"><a xlink:href="../../d0/dd6/classocra_1_1LinearizedCoulombFunction.html" target="_top" xlink:title="LinearizedCoulombFunction class. ">
<polygon fill="white" stroke="black" points="790.327,-540.5 790.327,-558.5 955.854,-558.5 955.854,-540.5 790.327,-540.5"/>
<text text-anchor="middle" x="873.09" y="-546.5" font-family="Helvetica,sans-Serif" font-size="10.00">ocra::LinearizedCoulombFunction</text>
</a>
</g>
</g>
<!-- Node11&#45;&gt;Node24 -->
<g id="edge19" class="edge"><title>Node11&#45;&gt;Node24</title>
<path fill="none" stroke="midnightblue" d="M744.708,-523.566C771.233,-528.966 802.736,-535.38 827.777,-540.478"/>
<polygon fill="midnightblue" stroke="midnightblue" points="745.307,-520.117 734.81,-521.551 743.911,-526.976 745.307,-520.117"/>
</g>
<!-- Node25 -->
<g id="node21" class="node"><title>Node25</title>
<g id="a_node21"><a xlink:href="../../dd/d16/classocra_1_1LinearTask.html" target="_top" xlink:title="LinearTask class. ">
<polygon fill="white" stroke="black" points="828.406,-503.5 828.406,-521.5 917.775,-521.5 917.775,-503.5 828.406,-503.5"/>
<text text-anchor="middle" x="873.09" y="-509.5" font-family="Helvetica,sans-Serif" font-size="10.00">ocra::LinearTask</text>
</a>
</g>
</g>
<!-- Node11&#45;&gt;Node25 -->
<g id="edge20" class="edge"><title>Node11&#45;&gt;Node25</title>
<path fill="none" stroke="midnightblue" d="M753.733,-512.5C778.306,-512.5 805.839,-512.5 828.163,-512.5"/>
<polygon fill="midnightblue" stroke="midnightblue" points="753.407,-509 743.407,-512.5 753.407,-516 753.407,-509"/>
</g>
<!-- Node26 -->
<g id="node22" class="node"><title>Node26</title>
<g id="a_node22"><a xlink:href="../../dd/dda/classocra_1_1SecondOrderLinearTask.html" target="_top" xlink:title="SecondOrderLinearTask class. ">
<polygon fill="white" stroke="black" points="798.667,-466.5 798.667,-484.5 947.514,-484.5 947.514,-466.5 798.667,-466.5"/>
<text text-anchor="middle" x="873.09" y="-472.5" font-family="Helvetica,sans-Serif" font-size="10.00">ocra::SecondOrderLinearTask</text>
</a>
</g>
</g>
<!-- Node11&#45;&gt;Node26 -->
<g id="edge21" class="edge"><title>Node11&#45;&gt;Node26</title>
<path fill="none" stroke="midnightblue" d="M744.708,-501.434C771.233,-496.034 802.736,-489.62 827.777,-484.522"/>
<polygon fill="midnightblue" stroke="midnightblue" points="743.911,-498.024 734.81,-503.449 745.307,-504.883 743.911,-498.024"/>
</g>
<!-- Node27 -->
<g id="node23" class="node"><title>Node27</title>
<g id="a_node23"><a xlink:href="../../d0/d8f/classocra_1_1SumOfLinearFunctions.html" target="_top" xlink:title="ocra::SumOfLinearFunctions">
<polygon fill="white" stroke="black" points="801.45,-429.5 801.45,-447.5 944.73,-447.5 944.73,-429.5 801.45,-429.5"/>
<text text-anchor="middle" x="873.09" y="-435.5" font-family="Helvetica,sans-Serif" font-size="10.00">ocra::SumOfLinearFunctions</text>
</a>
</g>
</g>
<!-- Node11&#45;&gt;Node27 -->
<g id="edge22" class="edge"><title>Node11&#45;&gt;Node27</title>
<path fill="none" stroke="midnightblue" d="M741.887,-499.773C746.22,-497.938 750.43,-495.857 754.327,-493.5 773.96,-481.627 770.279,-467.658 790.327,-456.5 796.931,-452.824 804.226,-449.899 811.658,-447.571"/>
<polygon fill="midnightblue" stroke="midnightblue" points="740.392,-496.596 732.276,-503.406 742.867,-503.144 740.392,-496.596"/>
</g>
<!-- Node28 -->
<g id="node24" class="node"><title>Node28</title>
<g id="a_node24"><a xlink:href="../../dd/d3d/classocra_1_1TorqueLimitFunction.html" target="_top" xlink:title="Create a linear function that represents the torque limit function. ">
<polygon fill="white" stroke="black" points="807.563,-392.5 807.563,-410.5 938.617,-410.5 938.617,-392.5 807.563,-392.5"/>
<text text-anchor="middle" x="873.09" y="-398.5" font-family="Helvetica,sans-Serif" font-size="10.00">ocra::TorqueLimitFunction</text>
</a>
</g>
</g>
<!-- Node11&#45;&gt;Node28 -->
<g id="edge23" class="edge"><title>Node11&#45;&gt;Node28</title>
<path fill="none" stroke="midnightblue" d="M746.724,-498.882C749.416,-497.283 751.973,-495.496 754.327,-493.5 782.221,-469.844 761.599,-442.136 790.327,-419.5 795.465,-415.452 801.322,-412.271 807.488,-409.777"/>
<polygon fill="midnightblue" stroke="midnightblue" points="745.123,-495.769 737.749,-503.377 748.257,-502.028 745.123,-495.769"/>
</g>
<!-- Node29 -->
<g id="node25" class="node"><title>Node29</title>
<g id="a_node25"><a xlink:href="../../d7/d46/classocra_1_1VariableChiFunction.html" target="_top" xlink:title="ocra::VariableChiFunction">
<polygon fill="white" stroke="black" points="807.93,-355.5 807.93,-373.5 938.251,-373.5 938.251,-355.5 807.93,-355.5"/>
<text text-anchor="middle" x="873.09" y="-361.5" font-family="Helvetica,sans-Serif" font-size="10.00">ocra::VariableChiFunction</text>
</a>
</g>
</g>
<!-- Node11&#45;&gt;Node29 -->
<g id="edge24" class="edge"><title>Node11&#45;&gt;Node29</title>
<path fill="none" stroke="midnightblue" d="M748.328,-498.42C750.462,-496.94 752.477,-495.305 754.327,-493.5 791.454,-457.287 751.921,-417.353 790.327,-382.5 795.386,-377.909 801.343,-374.397 807.699,-371.723"/>
<polygon fill="midnightblue" stroke="midnightblue" points="746.542,-495.409 739.584,-503.399 750.006,-501.492 746.542,-495.409"/>
</g>
<!-- Node13 -->
<g id="node14" class="node"><title>Node13</title>
<g id="a_node14"><a xlink:href="../../da/d90/classocra_1_1FullContactAvoidanceFunction.html" target="_top" xlink:title="Create a linear function that represents the contact avoidance function for the full formalism...">
<polygon fill="white" stroke="black" points="991.854,-777.5 991.854,-805.5 1129.96,-805.5 1129.96,-777.5 991.854,-777.5"/>
<text text-anchor="start" x="999.854" y="-793.5" font-family="Helvetica,sans-Serif" font-size="10.00">ocra::FullContactAvoidance</text>
<text text-anchor="middle" x="1060.91" y="-783.5" font-family="Helvetica,sans-Serif" font-size="10.00">Function</text>
</a>
</g>
</g>
<!-- Node12&#45;&gt;Node13 -->
<g id="edge13" class="edge"><title>Node12&#45;&gt;Node13</title>
<path fill="none" stroke="midnightblue" d="M963.628,-791.5C973.057,-791.5 982.533,-791.5 991.666,-791.5"/>
<polygon fill="midnightblue" stroke="midnightblue" points="963.433,-788 953.433,-791.5 963.433,-795 963.433,-788"/>
</g>
<!-- Node34 -->
<g id="node30" class="node"><title>Node34</title>
<g id="a_node30"><a xlink:href="../../d3/d16/classocra_1_1FcQuadraticFunction.html" target="_top" xlink:title="ocra::FcQuadraticFunction">
<polygon fill="white" stroke="black" points="806.177,-318.5 806.177,-336.5 940.004,-336.5 940.004,-318.5 806.177,-318.5"/>
<text text-anchor="middle" x="873.09" y="-324.5" font-family="Helvetica,sans-Serif" font-size="10.00">ocra::FcQuadraticFunction</text>
</a>
</g>
</g>
<!-- Node33&#45;&gt;Node34 -->
<g id="edge29" class="edge"><title>Node33&#45;&gt;Node34</title>
<path fill="none" stroke="midnightblue" d="M760.962,-327.5C775.745,-327.5 791.283,-327.5 805.898,-327.5"/>
<polygon fill="midnightblue" stroke="midnightblue" points="760.868,-324 750.868,-327.5 760.868,-331 760.868,-324"/>
</g>
<!-- Node35 -->
<g id="node31" class="node"><title>Node35</title>
<g id="a_node31"><a xlink:href="../../df/dfc/classocra_1_1SquaredLinearFunction.html" target="_top" xlink:title="SquaredLinearFunction class. ">
<polygon fill="white" stroke="black" points="800.605,-281.5 800.605,-299.5 945.575,-299.5 945.575,-281.5 800.605,-281.5"/>
<text text-anchor="middle" x="873.09" y="-287.5" font-family="Helvetica,sans-Serif" font-size="10.00">ocra::SquaredLinearFunction</text>
</a>
</g>
</g>
<!-- Node33&#45;&gt;Node35 -->
<g id="edge30" class="edge"><title>Node33&#45;&gt;Node35</title>
<path fill="none" stroke="midnightblue" d="M744.708,-316.434C771.233,-311.034 802.736,-304.62 827.777,-299.522"/>
<polygon fill="midnightblue" stroke="midnightblue" points="743.911,-313.024 734.81,-318.449 745.307,-319.883 743.911,-313.024"/>
</g>
<!-- Node36 -->
<g id="node32" class="node"><title>Node36</title>
<g id="a_node32"><a xlink:href="../../d2/d31/classocra_1_1WeightedSquareDistanceFunction.html" target="_top" xlink:title="WeightedSquareDistanceFunction class. ">
<polygon fill="white" stroke="black" points="795.974,-234.5 795.974,-262.5 950.207,-262.5 950.207,-234.5 795.974,-234.5"/>
<text text-anchor="start" x="803.974" y="-250.5" font-family="Helvetica,sans-Serif" font-size="10.00">ocra::WeightedSquareDistance</text>
<text text-anchor="middle" x="873.09" y="-240.5" font-family="Helvetica,sans-Serif" font-size="10.00">Function</text>
</a>
</g>
</g>
<!-- Node33&#45;&gt;Node36 -->
<g id="edge31" class="edge"><title>Node33&#45;&gt;Node36</title>
<path fill="none" stroke="midnightblue" d="M741.887,-314.773C746.22,-312.938 750.43,-310.857 754.327,-308.5 773.96,-296.627 770.609,-283.23 790.327,-271.5 796.157,-268.032 802.531,-265.068 809.067,-262.538"/>
<polygon fill="midnightblue" stroke="midnightblue" points="740.392,-311.596 732.276,-318.406 742.867,-318.144 740.392,-311.596"/>
</g>
<!-- Node41 -->
<g id="node37" class="node"><title>Node41</title>
<g id="a_node37"><a xlink:href="../../d6/d35/classocra_1_1CascadeQPSolver.html" target="_top" xlink:title="CascadeQPSolver class. ">
<polygon fill="white" stroke="black" points="627.717,-237.5 627.717,-255.5 750.987,-255.5 750.987,-237.5 627.717,-237.5"/>
<text text-anchor="middle" x="689.352" y="-243.5" font-family="Helvetica,sans-Serif" font-size="10.00">ocra::CascadeQPSolver</text>
</a>
</g>
</g>
<!-- Node40&#45;&gt;Node41 -->
<g id="edge36" class="edge"><title>Node40&#45;&gt;Node41</title>
<path fill="none" stroke="midnightblue" d="M577.465,-184.748C581.267,-186.452 584.962,-188.363 588.377,-190.5 607.826,-202.672 604.744,-215.627 624.377,-227.5 631.119,-231.577 638.793,-234.829 646.428,-237.406"/>
<polygon fill="midnightblue" stroke="midnightblue" points="578.479,-181.385 567.894,-180.932 575.887,-187.887 578.479,-181.385"/>
</g>
<!-- Node42 -->
<g id="node38" class="node"><title>Node42</title>
<g id="a_node38"><a xlink:href="../../dc/d6e/classocra_1_1FSQPSolver.html" target="_top" xlink:title="FSQPSolver class. ">
<polygon fill="white" stroke="black" points="641.062,-200.5 641.062,-218.5 737.643,-218.5 737.643,-200.5 641.062,-200.5"/>
<text text-anchor="middle" x="689.352" y="-206.5" font-family="Helvetica,sans-Serif" font-size="10.00">ocra::FSQPSolver</text>
</a>
</g>
</g>
<!-- Node40&#45;&gt;Node42 -->
<g id="edge37" class="edge"><title>Node40&#45;&gt;Node42</title>
<path fill="none" stroke="midnightblue" d="M577.698,-182.985C600.737,-188.505 628.702,-195.207 650.755,-200.491"/>
<polygon fill="midnightblue" stroke="midnightblue" points="578.369,-179.546 567.829,-180.62 576.738,-186.354 578.369,-179.546"/>
</g>
<!-- Node43 -->
<g id="node39" class="node"><title>Node43</title>
<g id="a_node39"><a xlink:href="../../d2/d07/classocra_1_1NewtonSolver.html" target="_top" xlink:title="NewtonSolver class. ">
<polygon fill="white" stroke="black" points="637.722,-163.5 637.722,-181.5 740.982,-181.5 740.982,-163.5 637.722,-163.5"/>
<text text-anchor="middle" x="689.352" y="-169.5" font-family="Helvetica,sans-Serif" font-size="10.00">ocra::NewtonSolver</text>
</a>
</g>
</g>
<!-- Node40&#45;&gt;Node43 -->
<g id="edge38" class="edge"><title>Node40&#45;&gt;Node43</title>
<path fill="none" stroke="midnightblue" d="M578.06,-172.5C596.611,-172.5 618.307,-172.5 637.524,-172.5"/>
<polygon fill="midnightblue" stroke="midnightblue" points="577.829,-169 567.829,-172.5 577.829,-176 577.829,-169"/>
</g>
<!-- Node44 -->
<g id="node40" class="node"><title>Node44</title>
<g id="a_node40"><a xlink:href="../../d2/d5e/classocra_1_1OneLevelSolver.html" target="_top" xlink:title="A generic abstract class the solvers that can be used in the wOcra Controller. ">
<polygon fill="white" stroke="black" points="633.271,-126.5 633.271,-144.5 745.433,-144.5 745.433,-126.5 633.271,-126.5"/>
<text text-anchor="middle" x="689.352" y="-132.5" font-family="Helvetica,sans-Serif" font-size="10.00">ocra::OneLevelSolver</text>
</a>
</g>
</g>
<!-- Node40&#45;&gt;Node44 -->
<g id="edge39" class="edge"><title>Node40&#45;&gt;Node44</title>
<path fill="none" stroke="midnightblue" d="M577.698,-162.015C600.737,-156.495 628.702,-149.793 650.755,-144.509"/>
<polygon fill="midnightblue" stroke="midnightblue" points="576.738,-158.646 567.829,-164.38 578.369,-165.454 576.738,-158.646"/>
</g>
<!-- Node48 -->
<g id="node44" class="node"><title>Node48</title>
<g id="a_node44"><a xlink:href="../../d7/dab/classocra_1_1QuadraticSolver.html" target="_top" xlink:title="QuadraticSolver class. ">
<polygon fill="white" stroke="black" points="632.998,-74.5 632.998,-92.5 745.707,-92.5 745.707,-74.5 632.998,-74.5"/>
<text text-anchor="middle" x="689.352" y="-80.5" font-family="Helvetica,sans-Serif" font-size="10.00">ocra::QuadraticSolver</text>
</a>
</g>
</g>
<!-- Node40&#45;&gt;Node48 -->
<g id="edge43" class="edge"><title>Node40&#45;&gt;Node48</title>
<path fill="none" stroke="midnightblue" d="M556.516,-157.839C574.634,-146.238 600.842,-129.83 624.377,-116.5 639.492,-107.939 657.054,-98.9458 669.949,-92.5136"/>
<polygon fill="midnightblue" stroke="midnightblue" points="554.351,-155.07 547.836,-163.425 558.139,-160.956 554.351,-155.07"/>
</g>
<!-- Node45 -->
<g id="node41" class="node"><title>Node45</title>
<g id="a_node41"><a xlink:href="../../df/d1b/classocra_1_1OneLevelSolverWithQLD.html" target="_top" xlink:title="Solver class that only consider one level of importance for all tasks using QLD. ">
<polygon fill="white" stroke="black" points="796.729,-197.5 796.729,-215.5 949.452,-215.5 949.452,-197.5 796.729,-197.5"/>
<text text-anchor="middle" x="873.09" y="-203.5" font-family="Helvetica,sans-Serif" font-size="10.00">ocra::OneLevelSolverWithQLD</text>
</a>
</g>
</g>
<!-- Node44&#45;&gt;Node45 -->
<g id="edge40" class="edge"><title>Node44&#45;&gt;Node45</title>
<path fill="none" stroke="midnightblue" d="M742.881,-147.995C746.851,-149.624 750.713,-151.452 754.327,-153.5 773.474,-164.35 770.936,-177.092 790.327,-187.5 798.032,-191.635 806.616,-194.875 815.245,-197.413"/>
<polygon fill="midnightblue" stroke="midnightblue" points="744.083,-144.708 733.49,-144.544 741.669,-151.279 744.083,-144.708"/>
</g>
<!-- Node46 -->
<g id="node42" class="node"><title>Node46</title>
<g id="a_node42"><a xlink:href="../../d0/d12/classocra_1_1OneLevelSolverWithQPOASES.html" target="_top" xlink:title="Solver class that only consider one level of importance for all tasks using QPOASES. ">
<polygon fill="white" stroke="black" points="807.009,-150.5 807.009,-178.5 939.171,-178.5 939.171,-150.5 807.009,-150.5"/>
<text text-anchor="start" x="815.009" y="-166.5" font-family="Helvetica,sans-Serif" font-size="10.00">ocra::OneLevelSolverWith</text>
<text text-anchor="middle" x="873.09" y="-156.5" font-family="Helvetica,sans-Serif" font-size="10.00">QPOASES</text>
</a>
</g>
</g>
<!-- Node44&#45;&gt;Node46 -->
<g id="edge41" class="edge"><title>Node44&#45;&gt;Node46</title>
<path fill="none" stroke="midnightblue" d="M755.97,-145.971C772.482,-148.606 790.203,-151.433 806.703,-154.066"/>
<polygon fill="midnightblue" stroke="midnightblue" points="756.294,-142.478 745.867,-144.359 755.191,-149.391 756.294,-142.478"/>
</g>
<!-- Node47 -->
<g id="node43" class="node"><title>Node47</title>
<g id="a_node43"><a xlink:href="../../d9/d45/classocra_1_1OneLevelSolverWithQuadProg.html" target="_top" xlink:title="Solver class that only consider one level of importance for all tasks using Quadprog++. ">
<polygon fill="white" stroke="black" points="807.009,-103.5 807.009,-131.5 939.171,-131.5 939.171,-103.5 807.009,-103.5"/>
<text text-anchor="start" x="815.009" y="-119.5" font-family="Helvetica,sans-Serif" font-size="10.00">ocra::OneLevelSolverWith</text>
<text text-anchor="middle" x="873.09" y="-109.5" font-family="Helvetica,sans-Serif" font-size="10.00">QuadProg</text>
</a>
</g>
</g>
<!-- Node44&#45;&gt;Node47 -->
<g id="edge42" class="edge"><title>Node44&#45;&gt;Node47</title>
<path fill="none" stroke="midnightblue" d="M755.97,-129.001C772.482,-127.366 790.203,-125.61 806.703,-123.976"/>
<polygon fill="midnightblue" stroke="midnightblue" points="755.473,-125.533 745.867,-130.002 756.163,-132.499 755.473,-125.533"/>
</g>
<!-- Node49 -->
<g id="node45" class="node"><title>Node49</title>
<g id="a_node45"><a xlink:href="../../d4/d02/classocra_1_1CmlQuadraticSolver.html" target="_top" xlink:title="CmlQuadraticSolver class. ">
<polygon fill="white" stroke="black" points="807.849,-66.5 807.849,-84.5 938.332,-84.5 938.332,-66.5 807.849,-66.5"/>
<text text-anchor="middle" x="873.09" y="-72.5" font-family="Helvetica,sans-Serif" font-size="10.00">ocra::CmlQuadraticSolver</text>
</a>
</g>
</g>
<!-- Node48&#45;&gt;Node49 -->
<g id="edge44" class="edge"><title>Node48&#45;&gt;Node49</title>
<path fill="none" stroke="midnightblue" d="M756.138,-80.6041C772.927,-79.8651 790.957,-79.0715 807.676,-78.3355"/>
<polygon fill="midnightblue" stroke="midnightblue" points="755.703,-77.1198 745.867,-81.0563 756.011,-84.113 755.703,-77.1198"/>
</g>
<!-- Node50 -->
<g id="node46" class="node"><title>Node50</title>
<g id="a_node46"><a xlink:href="../../d2/dab/classocra_1_1QLDSolver.html" target="_top" xlink:title="QLDSolver class. ">
<polygon fill="white" stroke="black" points="828.132,-29.5 828.132,-47.5 918.048,-47.5 918.048,-29.5 828.132,-29.5"/>
<text text-anchor="middle" x="873.09" y="-35.5" font-family="Helvetica,sans-Serif" font-size="10.00">ocra::QLDSolver</text>
</a>
</g>
</g>
<!-- Node48&#45;&gt;Node50 -->
<g id="edge45" class="edge"><title>Node48&#45;&gt;Node50</title>
<path fill="none" stroke="midnightblue" d="M732.062,-71.7651C749.951,-66.8541 771.115,-61.2062 790.327,-56.5 802.892,-53.4221 816.602,-50.3088 829.143,-47.5566"/>
<polygon fill="midnightblue" stroke="midnightblue" points="730.928,-68.447 722.221,-74.4826 732.792,-75.1945 730.928,-68.447"/>
</g>
<!-- Node52 -->
<g id="node48" class="node"><title>Node52</title>
<g id="a_node48"><a xlink:href="../../d5/d40/classocra_1_1BaseVariable.html" target="_top" xlink:title="Implements a basic variable. ">
<polygon fill="white" stroke="black" points="639.475,-37.5 639.475,-55.5 739.229,-55.5 739.229,-37.5 639.475,-37.5"/>
<text text-anchor="middle" x="689.352" y="-43.5" font-family="Helvetica,sans-Serif" font-size="10.00">ocra::BaseVariable</text>
</a>
</g>
</g>
<!-- Node51&#45;&gt;Node52 -->
<g id="edge47" class="edge"><title>Node51&#45;&gt;Node52</title>
<path fill="none" stroke="midnightblue" d="M581.846,-46.5C600.104,-46.5 620.93,-46.5 639.294,-46.5"/>
<polygon fill="midnightblue" stroke="midnightblue" points="581.716,-43.0001 571.716,-46.5 581.716,-50.0001 581.716,-43.0001"/>
</g>
<!-- Node53 -->
<g id="node49" class="node"><title>Node53</title>
<g id="a_node49"><a xlink:href="../../d2/d7c/classocra_1_1CompositeVariable.html" target="_top" xlink:title="A concatenation of base variables and other composite variables. ">
<polygon fill="white" stroke="black" points="626.972,-0.5 626.972,-18.5 751.732,-18.5 751.732,-0.5 626.972,-0.5"/>
<text text-anchor="middle" x="689.352" y="-6.5" font-family="Helvetica,sans-Serif" font-size="10.00">ocra::CompositeVariable</text>
</a>
</g>
</g>
<!-- Node51&#45;&gt;Node53 -->
<g id="edge48" class="edge"><title>Node51&#45;&gt;Node53</title>
<path fill="none" stroke="midnightblue" d="M581.62,-35.0753C603.837,-29.7516 629.895,-23.5076 650.702,-18.5218"/>
<polygon fill="midnightblue" stroke="midnightblue" points="580.625,-31.7148 571.716,-37.4488 582.256,-38.5221 580.625,-31.7148"/>
</g>
</g>
</svg>
