<?xml version="1.0" encoding="UTF-8" standalone="no"?>
<!DOCTYPE svg PUBLIC "-//W3C//DTD SVG 1.1//EN"
 "http://www.w3.org/Graphics/SVG/1.1/DTD/svg11.dtd">
<!-- Generated by graphviz version 2.38.0 (20140413.2041)
 -->
<!-- Title: ocra::CascadeQPSolver::StandardObjectivesAndConstraints Pages: 1 -->
<svg width="1587pt" height="534pt"
 viewBox="0.00 0.00 1587.06 534.00" xmlns="http://www.w3.org/2000/svg" xmlns:xlink="http://www.w3.org/1999/xlink">
<g id="graph0" class="graph" transform="scale(1 1) rotate(0) translate(4 530)">
<title>ocra::CascadeQPSolver::StandardObjectivesAndConstraints</title>
<polygon fill="white" stroke="none" points="-4,4 -4,-530 1583.06,-530 1583.06,4 -4,4"/>
<!-- Node1 -->
<g id="node1" class="node"><title>Node1</title>
<polygon fill="#bfbfbf" stroke="black" points="1401.86,-73.5 1401.86,-101.5 1579.06,-101.5 1579.06,-73.5 1401.86,-73.5"/>
<text text-anchor="start" x="1409.86" y="-89.5" font-family="Helvetica,sans-Serif" font-size="10.00">ocra::CascadeQPSolver</text>
<text text-anchor="middle" x="1490.46" y="-79.5" font-family="Helvetica,sans-Serif" font-size="10.00">::StandardObjectivesAndConstraints</text>
</g>
<!-- Node2 -->
<g id="node2" class="node"><title>Node2</title>
<g id="a_node2"><a xlink:href="../../d9/d7e/classocra_1_1QuadraticFunction.html" target="_top" xlink:title="QuadraticFunction class. ">
<polygon fill="white" stroke="black" points="944.747,-132.5 944.747,-150.5 1067.47,-150.5 1067.47,-132.5 944.747,-132.5"/>
<text text-anchor="middle" x="1006.11" y="-138.5" font-family="Helvetica,sans-Serif" font-size="10.00">ocra::QuadraticFunction</text>
</a>
</g>
</g>
<!-- Node2&#45;&gt;Node1 -->
<g id="edge1" class="edge"><title>Node2&#45;&gt;Node1</title>
<path fill="none" stroke="#9a32cd" stroke-dasharray="5,2" d="M1077.79,-145.679C1080.72,-145.657 1083.62,-145.599 1086.47,-145.5 1219.1,-140.861 1254.03,-146.044 1383.86,-118.5 1404.98,-114.019 1428.03,-107.454 1447.19,-101.518"/>
<polygon fill="#9a32cd" stroke="#9a32cd" points="1077.78,-142.178 1067.76,-145.623 1077.74,-149.178 1077.78,-142.178"/>
<text text-anchor="middle" x="1195.42" y="-157.5" font-family="Helvetica,sans-Serif" font-size="10.00"> minDdqFunction</text>
<text text-anchor="middle" x="1195.42" y="-147.5" font-family="Helvetica,sans-Serif" font-size="10.00">minTauFunction</text>
</g>
<!-- Node26 -->
<g id="node26" class="node"><title>Node26</title>
<g id="a_node26"><a xlink:href="../../d3/d16/classocra_1_1FcQuadraticFunction.html" target="_top" xlink:title="ocra::FcQuadraticFunction">
<polygon fill="white" stroke="black" points="1128.5,-104.5 1128.5,-122.5 1262.33,-122.5 1262.33,-104.5 1128.5,-104.5"/>
<text text-anchor="middle" x="1195.42" y="-110.5" font-family="Helvetica,sans-Serif" font-size="10.00">ocra::FcQuadraticFunction</text>
</a>
</g>
</g>
<!-- Node2&#45;&gt;Node26 -->
<g id="edge28" class="edge"><title>Node2&#45;&gt;Node26</title>
<path fill="none" stroke="midnightblue" d="M1077.3,-131.008C1095.92,-128.224 1115.86,-125.243 1133.91,-122.545"/>
<polygon fill="midnightblue" stroke="midnightblue" points="1076.78,-127.546 1067.4,-132.486 1077.81,-134.47 1076.78,-127.546"/>
</g>
<!-- Node3 -->
<g id="node3" class="node"><title>Node3</title>
<g id="a_node3"><a xlink:href="../../d2/d99/classocra_1_1Function.html" target="_top" xlink:title="Function class. ">
<polygon fill="white" stroke="black" points="828.383,-258.5 828.383,-276.5 907.747,-276.5 907.747,-258.5 828.383,-258.5"/>
<text text-anchor="middle" x="868.065" y="-264.5" font-family="Helvetica,sans-Serif" font-size="10.00">ocra::Function</text>
</a>
</g>
</g>
<!-- Node3&#45;&gt;Node2 -->
<g id="edge2" class="edge"><title>Node3&#45;&gt;Node2</title>
<path fill="none" stroke="midnightblue" d="M886.514,-251.339C915.347,-224.634 972.035,-172.13 995.044,-150.819"/>
<polygon fill="midnightblue" stroke="midnightblue" points="883.807,-249.075 878.849,-258.438 888.564,-254.211 883.807,-249.075"/>
</g>
<!-- Node4 -->
<g id="node4" class="node"><title>Node4</title>
<g id="a_node4"><a xlink:href="../../d3/d16/classocra_1_1ObserverSubject.html" target="_top" xlink:title="ocra::ObserverSubject">
<polygon fill="white" stroke="black" points="386.068,-363.5 386.068,-381.5 501.556,-381.5 501.556,-363.5 386.068,-363.5"/>
<text text-anchor="middle" x="443.812" y="-369.5" font-family="Helvetica,sans-Serif" font-size="10.00">ocra::ObserverSubject</text>
</a>
</g>
</g>
<!-- Node4&#45;&gt;Node3 -->
<g id="edge3" class="edge"><title>Node4&#45;&gt;Node3</title>
<path fill="none" stroke="midnightblue" d="M511.916,-375.384C574.158,-376.153 668.671,-372.428 746.792,-348.5 793.73,-334.123 838.945,-294.651 857.828,-276.656"/>
<polygon fill="midnightblue" stroke="midnightblue" points="511.886,-371.883 501.83,-375.216 511.77,-378.882 511.886,-371.883"/>
</g>
<!-- Node20 -->
<g id="node20" class="node"><title>Node20</title>
<g id="a_node20"><a xlink:href="../../d2/dac/classocra_1_1Variable.html" target="_top" xlink:title="This class represents a variable in a mathematical sense. ">
<polygon fill="white" stroke="black" points="626.412,-403.5 626.412,-421.5 703.374,-421.5 703.374,-403.5 626.412,-403.5"/>
<text text-anchor="middle" x="664.893" y="-409.5" font-family="Helvetica,sans-Serif" font-size="10.00">ocra::Variable</text>
</a>
</g>
</g>
<!-- Node4&#45;&gt;Node20 -->
<g id="edge21" class="edge"><title>Node4&#45;&gt;Node20</title>
<path fill="none" stroke="midnightblue" d="M504.39,-383.378C543.234,-390.47 592.746,-399.51 626.224,-405.622"/>
<polygon fill="midnightblue" stroke="midnightblue" points="504.717,-379.88 494.251,-381.527 503.46,-386.766 504.717,-379.88"/>
</g>
<!-- Node5 -->
<g id="node5" class="node"><title>Node5</title>
<g id="a_node5"><a xlink:href="../../d2/d45/classocra_1_1Observer.html" target="_top" xlink:title="ocra::Observer">
<polygon fill="white" stroke="black" points="222.497,-431.5 222.497,-449.5 304.63,-449.5 304.63,-431.5 222.497,-431.5"/>
<text text-anchor="middle" x="263.563" y="-437.5" font-family="Helvetica,sans-Serif" font-size="10.00">ocra::Observer</text>
</a>
</g>
</g>
<!-- Node5&#45;&gt;Node4 -->
<g id="edge4" class="edge"><title>Node5&#45;&gt;Node4</title>
<path fill="none" stroke="midnightblue" d="M284.539,-425.224C299.495,-414.514 320.869,-400.698 341.63,-392.5 355.537,-387.008 371.136,-382.971 385.844,-380.024"/>
<polygon fill="midnightblue" stroke="midnightblue" points="282.103,-422.67 276.118,-431.413 286.249,-428.311 282.103,-422.67"/>
</g>
<!-- Node6 -->
<g id="node6" class="node"><title>Node6</title>
<g id="a_node6"><a xlink:href="../../d4/dee/classocra_1_1ObserverBase.html" target="_top" xlink:title="ocra::ObserverBase\l\&lt; EVT_RESIZE \&gt;">
<polygon fill="white" stroke="black" points="40.2856,-497.5 40.2856,-525.5 145.211,-525.5 145.211,-497.5 40.2856,-497.5"/>
<text text-anchor="start" x="48.2856" y="-513.5" font-family="Helvetica,sans-Serif" font-size="10.00">ocra::ObserverBase</text>
<text text-anchor="middle" x="92.7485" y="-503.5" font-family="Helvetica,sans-Serif" font-size="10.00">&lt; EVT_RESIZE &gt;</text>
</a>
</g>
</g>
<!-- Node6&#45;&gt;Node5 -->
<g id="edge5" class="edge"><title>Node6&#45;&gt;Node5</title>
<path fill="none" stroke="midnightblue" d="M155.373,-498.87C165.614,-495.976 175.989,-492.535 185.497,-488.5 210.164,-478.032 236.055,-460.3 250.667,-449.567"/>
<polygon fill="midnightblue" stroke="midnightblue" points="154.382,-495.512 145.628,-501.48 156.193,-502.274 154.382,-495.512"/>
</g>
<!-- Node7 -->
<g id="node7" class="node"><title>Node7</title>
<g id="a_node7"><a xlink:href="../../d4/dee/classocra_1_1ObserverBase.html" target="_top" xlink:title="ocra::ObserverBase\l\&lt; EVT_CHANGE_DEPENDENCIES \&gt;">
<polygon fill="white" stroke="black" points="0,-450.5 0,-478.5 185.497,-478.5 185.497,-450.5 0,-450.5"/>
<text text-anchor="start" x="8" y="-466.5" font-family="Helvetica,sans-Serif" font-size="10.00">ocra::ObserverBase</text>
<text text-anchor="middle" x="92.7485" y="-456.5" font-family="Helvetica,sans-Serif" font-size="10.00">&lt; EVT_CHANGE_DEPENDENCIES &gt;</text>
</a>
</g>
</g>
<!-- Node7&#45;&gt;Node5 -->
<g id="edge6" class="edge"><title>Node7&#45;&gt;Node5</title>
<path fill="none" stroke="midnightblue" d="M195.725,-450.002C205,-448.684 213.979,-447.407 222.187,-446.24"/>
<polygon fill="midnightblue" stroke="midnightblue" points="194.974,-446.574 185.566,-451.447 195.959,-453.504 194.974,-446.574"/>
</g>
<!-- Node8 -->
<g id="node8" class="node"><title>Node8</title>
<g id="a_node8"><a xlink:href="../../d4/dee/classocra_1_1ObserverBase.html" target="_top" xlink:title="ocra::ObserverBase\l\&lt; EVT_CHANGE_VALUE \&gt;">
<polygon fill="white" stroke="black" points="23.4253,-403.5 23.4253,-431.5 162.072,-431.5 162.072,-403.5 23.4253,-403.5"/>
<text text-anchor="start" x="31.4253" y="-419.5" font-family="Helvetica,sans-Serif" font-size="10.00">ocra::ObserverBase</text>
<text text-anchor="middle" x="92.7485" y="-409.5" font-family="Helvetica,sans-Serif" font-size="10.00">&lt; EVT_CHANGE_VALUE &gt;</text>
</a>
</g>
</g>
<!-- Node8&#45;&gt;Node5 -->
<g id="edge7" class="edge"><title>Node8&#45;&gt;Node5</title>
<path fill="none" stroke="midnightblue" d="M172.466,-428.225C189.64,-430.565 207.13,-432.948 222.074,-434.984"/>
<polygon fill="midnightblue" stroke="midnightblue" points="172.793,-424.737 162.412,-426.855 171.848,-431.673 172.793,-424.737"/>
</g>
<!-- Node9 -->
<g id="node9" class="node"><title>Node9</title>
<g id="a_node9"><a xlink:href="../../dc/d77/classocra_1_1Subject.html" target="_top" xlink:title="ocra::Subject">
<polygon fill="white" stroke="black" points="226.381,-334.5 226.381,-352.5 300.746,-352.5 300.746,-334.5 226.381,-334.5"/>
<text text-anchor="middle" x="263.563" y="-340.5" font-family="Helvetica,sans-Serif" font-size="10.00">ocra::Subject</text>
</a>
</g>
</g>
<!-- Node9&#45;&gt;Node4 -->
<g id="edge8" class="edge"><title>Node9&#45;&gt;Node4</title>
<path fill="none" stroke="midnightblue" d="M311.07,-351.066C334.43,-354.867 362.898,-359.499 387.386,-363.483"/>
<polygon fill="midnightblue" stroke="midnightblue" points="311.497,-347.59 301.065,-349.439 310.373,-354.499 311.497,-347.59"/>
</g>
<!-- Node10 -->
<g id="node10" class="node"><title>Node10</title>
<g id="a_node10"><a xlink:href="../../dc/d29/classocra_1_1SubjectBase.html" target="_top" xlink:title="ocra::SubjectBase\&lt;\l EVT_RESIZE \&gt;">
<polygon fill="white" stroke="black" points="41.25,-356.5 41.25,-384.5 144.247,-384.5 144.247,-356.5 41.25,-356.5"/>
<text text-anchor="start" x="49.25" y="-372.5" font-family="Helvetica,sans-Serif" font-size="10.00">ocra::SubjectBase&lt;</text>
<text text-anchor="middle" x="92.7485" y="-362.5" font-family="Helvetica,sans-Serif" font-size="10.00"> EVT_RESIZE &gt;</text>
</a>
</g>
</g>
<!-- Node10&#45;&gt;Node9 -->
<g id="edge9" class="edge"><title>Node10&#45;&gt;Node9</title>
<path fill="none" stroke="midnightblue" d="M154.489,-360.785C178.489,-356.947 205.266,-352.664 226.162,-349.322"/>
<polygon fill="midnightblue" stroke="midnightblue" points="153.72,-357.364 144.399,-362.399 154.826,-364.276 153.72,-357.364"/>
</g>
<!-- Node11 -->
<g id="node11" class="node"><title>Node11</title>
<g id="a_node11"><a xlink:href="../../dc/d29/classocra_1_1SubjectBase.html" target="_top" xlink:title="ocra::SubjectBase\&lt;\l EVT_CHANGE_DEPENDENCIES \&gt;">
<polygon fill="white" stroke="black" points="2.91992,-309.5 2.91992,-337.5 182.577,-337.5 182.577,-309.5 2.91992,-309.5"/>
<text text-anchor="start" x="10.9199" y="-325.5" font-family="Helvetica,sans-Serif" font-size="10.00">ocra::SubjectBase&lt;</text>
<text text-anchor="middle" x="92.7485" y="-315.5" font-family="Helvetica,sans-Serif" font-size="10.00"> EVT_CHANGE_DEPENDENCIES &gt;</text>
</a>
</g>
</g>
<!-- Node11&#45;&gt;Node9 -->
<g id="edge10" class="edge"><title>Node11&#45;&gt;Node9</title>
<path fill="none" stroke="midnightblue" d="M192.668,-335.219C204.562,-336.628 216.06,-337.991 226.178,-339.189"/>
<polygon fill="midnightblue" stroke="midnightblue" points="192.948,-331.728 182.605,-334.027 192.124,-338.679 192.948,-331.728"/>
</g>
<!-- Node12 -->
<g id="node12" class="node"><title>Node12</title>
<g id="a_node12"><a xlink:href="../../dc/d29/classocra_1_1SubjectBase.html" target="_top" xlink:title="ocra::SubjectBase\&lt;\l EVT_CHANGE_VALUE \&gt;">
<polygon fill="white" stroke="black" points="26.3452,-262.5 26.3452,-290.5 159.152,-290.5 159.152,-262.5 26.3452,-262.5"/>
<text text-anchor="start" x="34.3452" y="-278.5" font-family="Helvetica,sans-Serif" font-size="10.00">ocra::SubjectBase&lt;</text>
<text text-anchor="middle" x="92.7485" y="-268.5" font-family="Helvetica,sans-Serif" font-size="10.00"> EVT_CHANGE_VALUE &gt;</text>
</a>
</g>
</g>
<!-- Node12&#45;&gt;Node9 -->
<g id="edge11" class="edge"><title>Node12&#45;&gt;Node9</title>
<path fill="none" stroke="midnightblue" d="M168.784,-293.498C174.5,-295.342 180.129,-297.342 185.497,-299.5 209.084,-308.981 234.281,-324.519 249.214,-334.367"/>
<polygon fill="midnightblue" stroke="midnightblue" points="169.7,-290.119 159.114,-290.542 167.653,-296.813 169.7,-290.119"/>
</g>
<!-- Node13 -->
<g id="node13" class="node"><title>Node13</title>
<g id="a_node13"><a xlink:href="../../dd/d68/classocra_1_1IFunctionProperties.html" target="_top" xlink:title="ocra::IFunctionProperties">
<polygon fill="white" stroke="black" points="601.034,-321.5 601.034,-339.5 728.752,-339.5 728.752,-321.5 601.034,-321.5"/>
<text text-anchor="middle" x="664.893" y="-327.5" font-family="Helvetica,sans-Serif" font-size="10.00">ocra::IFunctionProperties</text>
</a>
</g>
</g>
<!-- Node13&#45;&gt;Node3 -->
<g id="edge12" class="edge"><title>Node13&#45;&gt;Node3</title>
<path fill="none" stroke="midnightblue" d="M717.623,-319.069C727.353,-316.716 737.414,-314.144 746.792,-311.5 775.439,-303.423 782.446,-300.768 810.383,-290.5 822.145,-286.177 835.107,-280.952 845.663,-276.576"/>
<polygon fill="midnightblue" stroke="midnightblue" points="716.567,-315.722 707.645,-321.436 718.183,-322.533 716.567,-315.722"/>
</g>
<!-- Node14 -->
<g id="node14" class="node"><title>Node14</title>
<polygon fill="white" stroke="#bfbfbf" points="582.994,-274.5 582.994,-302.5 746.792,-302.5 746.792,-274.5 582.994,-274.5"/>
<text text-anchor="start" x="590.994" y="-290.5" font-family="Helvetica,sans-Serif" font-size="10.00">OCRA_FUNCTION_INTERFACE</text>
<text text-anchor="middle" x="664.893" y="-280.5" font-family="Helvetica,sans-Serif" font-size="10.00">_INHERITANCEpublic</text>
</g>
<!-- Node14&#45;&gt;Node3 -->
<g id="edge13" class="edge"><title>Node14&#45;&gt;Node3</title>
<path fill="none" stroke="#8b1a1a" d="M757.118,-278.977C782.113,-276.368 807.885,-273.678 828.189,-271.558"/>
<polygon fill="#8b1a1a" stroke="#8b1a1a" points="756.43,-275.53 746.848,-280.049 757.157,-282.492 756.43,-275.53"/>
</g>
<!-- Node15 -->
<g id="node15" class="node"><title>Node15</title>
<g id="a_node15"><a xlink:href="../../db/de3/classocra_1_1NamedInstance.html" target="_top" xlink:title="ocra::NamedInstance">
<polygon fill="white" stroke="black" points="609.369,-237.5 609.369,-255.5 720.417,-255.5 720.417,-237.5 609.369,-237.5"/>
<text text-anchor="middle" x="664.893" y="-243.5" font-family="Helvetica,sans-Serif" font-size="10.00">ocra::NamedInstance</text>
</a>
</g>
</g>
<!-- Node15&#45;&gt;Node3 -->
<g id="edge14" class="edge"><title>Node15&#45;&gt;Node3</title>
<path fill="none" stroke="midnightblue" d="M730.822,-253.278C762.976,-256.634 800.714,-260.574 828.309,-263.454"/>
<polygon fill="midnightblue" stroke="midnightblue" points="730.908,-249.768 720.598,-252.211 730.181,-256.73 730.908,-249.768"/>
</g>
<!-- Node16 -->
<g id="node16" class="node"><title>Node16</title>
<g id="a_node16"><a xlink:href="../../d8/d24/classocra_1_1AbilitySet.html" target="_top" xlink:title="ocra::AbilitySet">
<polygon fill="white" stroke="black" points="623.546,-200.5 623.546,-218.5 706.24,-218.5 706.24,-200.5 623.546,-200.5"/>
<text text-anchor="middle" x="664.893" y="-206.5" font-family="Helvetica,sans-Serif" font-size="10.00">ocra::AbilitySet</text>
</a>
</g>
</g>
<!-- Node16&#45;&gt;Node3 -->
<g id="edge15" class="edge"><title>Node16&#45;&gt;Node3</title>
<path fill="none" stroke="midnightblue" d="M716.366,-219.895C726.489,-222.214 737.016,-224.794 746.792,-227.5 780.301,-236.774 818.261,-249.837 842.415,-258.48"/>
<polygon fill="midnightblue" stroke="midnightblue" points="716.943,-216.437 706.42,-217.668 715.414,-223.268 716.943,-216.437"/>
</g>
<!-- Node17 -->
<g id="node17" class="node"><title>Node17</title>
<g id="a_node17"><a xlink:href="../../d5/dc0/classocra_1_1CoupledInputOutputSize.html" target="_top" xlink:title="ocra::CoupledInputOutputSize">
<polygon fill="white" stroke="black" points="589.906,-163.5 589.906,-181.5 739.88,-181.5 739.88,-163.5 589.906,-163.5"/>
<text text-anchor="middle" x="664.893" y="-169.5" font-family="Helvetica,sans-Serif" font-size="10.00">ocra::CoupledInputOutputSize</text>
</a>
</g>
</g>
<!-- Node17&#45;&gt;Node3 -->
<g id="edge16" class="edge"><title>Node17&#45;&gt;Node3</title>
<path fill="none" stroke="midnightblue" d="M728.384,-184.205C734.691,-186.038 740.928,-188.127 746.792,-190.5 790.459,-208.171 835.559,-242.027 855.912,-258.309"/>
<polygon fill="midnightblue" stroke="midnightblue" points="729.022,-180.753 718.456,-181.533 727.203,-187.512 729.022,-180.753"/>
</g>
<!-- Node18 -->
<g id="node18" class="node"><title>Node18</title>
<polygon fill="white" stroke="#bfbfbf" points="636.6,-124.5 636.6,-142.5 693.186,-142.5 693.186,-124.5 636.6,-124.5"/>
<text text-anchor="middle" x="664.893" y="-130.5" font-family="Helvetica,sans-Serif" font-size="10.00">VectorXd</text>
</g>
<!-- Node18&#45;&gt;Node2 -->
<g id="edge24" class="edge"><title>Node18&#45;&gt;Node2</title>
<path fill="none" stroke="#9a32cd" stroke-dasharray="5,2" d="M703.609,-134.389C761.984,-135.766 874.755,-138.426 944.612,-140.073"/>
<polygon fill="#9a32cd" stroke="#9a32cd" points="703.445,-130.885 693.365,-134.148 703.28,-137.883 703.445,-130.885"/>
<text text-anchor="middle" x="868.065" y="-141.5" font-family="Helvetica,sans-Serif" font-size="10.00"> _r</text>
</g>
<!-- Node18&#45;&gt;Node3 -->
<g id="edge17" class="edge"><title>Node18&#45;&gt;Node3</title>
<path fill="none" stroke="#9a32cd" stroke-dasharray="5,2" d="M703.599,-139.525C735.256,-146.262 780.048,-159.924 810.383,-186.5 834.912,-207.99 854.253,-242.199 862.596,-258.41"/>
<polygon fill="#9a32cd" stroke="#9a32cd" points="703.897,-136.015 693.407,-137.496 702.531,-142.881 703.897,-136.015"/>
<text text-anchor="middle" x="787.587" y="-188.5" font-family="Helvetica,sans-Serif" font-size="10.00"> _value</text>
</g>
<!-- Node19 -->
<g id="node19" class="node"><title>Node19</title>
<polygon fill="white" stroke="#bfbfbf" points="637.167,-440.5 637.167,-458.5 692.62,-458.5 692.62,-440.5 637.167,-440.5"/>
<text text-anchor="middle" x="664.893" y="-446.5" font-family="Helvetica,sans-Serif" font-size="10.00">MatrixXd</text>
</g>
<!-- Node19&#45;&gt;Node3 -->
<g id="edge18" class="edge"><title>Node19&#45;&gt;Node3</title>
<path fill="none" stroke="#9a32cd" stroke-dasharray="5,2" d="M702.971,-450.927C735.008,-450.178 780.705,-444.087 810.383,-418.5 854.918,-380.103 864.53,-303.091 866.546,-276.655"/>
<polygon fill="#9a32cd" stroke="#9a32cd" points="702.648,-447.429 692.672,-450.997 702.696,-454.429 702.648,-447.429"/>
<text text-anchor="middle" x="787.587" y="-444.5" font-family="Helvetica,sans-Serif" font-size="10.00"> _jacobian</text>
</g>
<!-- Node20&#45;&gt;Node3 -->
<g id="edge19" class="edge"><title>Node20&#45;&gt;Node3</title>
<path fill="none" stroke="#9a32cd" stroke-dasharray="5,2" d="M713.439,-412.949C743.967,-410.928 782.899,-403.777 810.383,-382.5 846.112,-354.84 860.819,-298.735 865.377,-276.69"/>
<polygon fill="#9a32cd" stroke="#9a32cd" points="713.249,-409.455 703.437,-413.451 713.6,-416.446 713.249,-409.455"/>
<text text-anchor="middle" x="787.587" y="-406.5" font-family="Helvetica,sans-Serif" font-size="10.00"> x</text>
</g>
<!-- Node21 -->
<g id="node21" class="node"><title>Node21</title>
<g id="a_node21"><a xlink:href="../../d0/d29/classocra_1_1Component.html" target="_top" xlink:title="ocra::Component\&lt; Variable,\l CompositeVariable, VariableParenthood \&gt;">
<polygon fill="white" stroke="black" points="341.63,-486.5 341.63,-514.5 545.994,-514.5 545.994,-486.5 341.63,-486.5"/>
<text text-anchor="start" x="349.63" y="-502.5" font-family="Helvetica,sans-Serif" font-size="10.00">ocra::Component&lt; Variable,</text>
<text text-anchor="middle" x="443.812" y="-492.5" font-family="Helvetica,sans-Serif" font-size="10.00"> CompositeVariable, VariableParenthood &gt;</text>
</a>
</g>
</g>
<!-- Node21&#45;&gt;Node20 -->
<g id="edge20" class="edge"><title>Node21&#45;&gt;Node20</title>
<path fill="none" stroke="midnightblue" d="M537.732,-482.178C540.576,-480.735 543.339,-479.178 545.994,-477.5 568.466,-463.295 560.49,-444.653 582.994,-430.5 595.783,-422.457 611.69,-417.984 626.007,-415.505"/>
<polygon fill="midnightblue" stroke="midnightblue" points="536.066,-479.091 528.409,-486.414 538.961,-485.464 536.066,-479.091"/>
</g>
<!-- Node22 -->
<g id="node22" class="node"><title>Node22</title>
<polygon fill="white" stroke="#bfbfbf" points="407.455,-449.5 407.455,-467.5 480.169,-467.5 480.169,-449.5 407.455,-449.5"/>
<text text-anchor="middle" x="443.812" y="-455.5" font-family="Helvetica,sans-Serif" font-size="10.00">noncopyable</text>
</g>
<!-- Node22&#45;&gt;Node20 -->
<g id="edge22" class="edge"><title>Node22&#45;&gt;Node20</title>
<path fill="none" stroke="#8b1a1a" d="M490.42,-450.466C507.849,-447.257 527.883,-443.4 545.994,-439.5 562.539,-435.937 566.511,-434.338 582.994,-430.5 597.148,-427.204 612.726,-423.707 626.401,-420.681"/>
<polygon fill="#8b1a1a" stroke="#8b1a1a" points="489.703,-447.039 480.493,-452.276 490.958,-453.926 489.703,-447.039"/>
</g>
<!-- Node23 -->
<g id="node23" class="node"><title>Node23</title>
<g id="a_node23"><a xlink:href="../../dc/d20/classocra_1_1VariableHasRestrictedClassDerivation.html" target="_top" xlink:title="ocra::VariableHasRestricted\lClassDerivation">
<polygon fill="white" stroke="black" points="373.932,-402.5 373.932,-430.5 513.692,-430.5 513.692,-402.5 373.932,-402.5"/>
<text text-anchor="start" x="381.932" y="-418.5" font-family="Helvetica,sans-Serif" font-size="10.00">ocra::VariableHasRestricted</text>
<text text-anchor="middle" x="443.812" y="-408.5" font-family="Helvetica,sans-Serif" font-size="10.00">ClassDerivation</text>
</a>
</g>
</g>
<!-- Node23&#45;&gt;Node20 -->
<g id="edge23" class="edge"><title>Node23&#45;&gt;Node20</title>
<path fill="none" stroke="#8b1a1a" d="M523.996,-415.054C558.816,-414.419 598.079,-413.702 626.126,-413.19"/>
<polygon fill="#8b1a1a" stroke="#8b1a1a" points="523.764,-411.558 513.83,-415.24 523.892,-418.557 523.764,-411.558"/>
</g>
<!-- Node24 -->
<g id="node24" class="node"><title>Node24</title>
<g id="a_node24"><a xlink:href="../../d5/d01/classocra_1_1EqualZeroConstraintPtr.html" target="_top" xlink:title="ocra::EqualZeroConstraint\lPtr\&lt; ocra::ocra::FullDynamicEquation\lFunction \&gt;">
<polygon fill="white" stroke="black" points="1104.47,-47.5 1104.47,-85.5 1286.37,-85.5 1286.37,-47.5 1104.47,-47.5"/>
<text text-anchor="start" x="1112.47" y="-73.5" font-family="Helvetica,sans-Serif" font-size="10.00">ocra::EqualZeroConstraint</text>
<text text-anchor="start" x="1112.47" y="-63.5" font-family="Helvetica,sans-Serif" font-size="10.00">Ptr&lt; ocra::ocra::FullDynamicEquation</text>
<text text-anchor="middle" x="1195.42" y="-53.5" font-family="Helvetica,sans-Serif" font-size="10.00">Function &gt;</text>
</a>
</g>
</g>
<!-- Node24&#45;&gt;Node1 -->
<g id="edge25" class="edge"><title>Node24&#45;&gt;Node1</title>
<path fill="none" stroke="#9a32cd" stroke-dasharray="5,2" d="M1296.85,-70.1134C1325.03,-71.4555 1355.66,-73.2232 1383.86,-75.5 1389.65,-75.9677 1395.62,-76.5021 1401.63,-77.0795"/>
<polygon fill="#9a32cd" stroke="#9a32cd" points="1296.74,-66.6047 1286.59,-69.6381 1296.42,-73.5972 1296.74,-66.6047"/>
<text text-anchor="middle" x="1344.12" y="-77.5" font-family="Helvetica,sans-Serif" font-size="10.00"> dynamicEquation</text>
</g>
<!-- Node25 -->
<g id="node25" class="node"><title>Node25</title>
<g id="a_node25"><a xlink:href="../../d9/dce/classocra_1_1ObjectivePtr.html" target="_top" xlink:title="ocra::ObjectivePtr\l\&lt; ocra::ocra::QuadraticFunction \&gt;">
<polygon fill="white" stroke="black" points="1112.94,-0.5 1112.94,-28.5 1277.9,-28.5 1277.9,-0.5 1112.94,-0.5"/>
<text text-anchor="start" x="1120.94" y="-16.5" font-family="Helvetica,sans-Serif" font-size="10.00">ocra::ObjectivePtr</text>
<text text-anchor="middle" x="1195.42" y="-6.5" font-family="Helvetica,sans-Serif" font-size="10.00">&lt; ocra::ocra::QuadraticFunction &gt;</text>
</a>
</g>
</g>
<!-- Node25&#45;&gt;Node1 -->
<g id="edge26" class="edge"><title>Node25&#45;&gt;Node1</title>
<path fill="none" stroke="#9a32cd" stroke-dasharray="5,2" d="M1288.57,-19.8921C1319.3,-23.2456 1353.45,-28.6834 1383.86,-37.5 1413.28,-46.028 1444.73,-61.8914 1465.59,-73.4697"/>
<polygon fill="#9a32cd" stroke="#9a32cd" points="1288.6,-16.3763 1278.29,-18.8329 1287.88,-23.3394 1288.6,-16.3763"/>
<text text-anchor="middle" x="1344.12" y="-59.5" font-family="Helvetica,sans-Serif" font-size="10.00"> minFcObjective</text>
<text text-anchor="middle" x="1344.12" y="-49.5" font-family="Helvetica,sans-Serif" font-size="10.00">minDdqObjective</text>
<text text-anchor="middle" x="1344.12" y="-39.5" font-family="Helvetica,sans-Serif" font-size="10.00">minTauObjective</text>
</g>
<!-- Node26&#45;&gt;Node1 -->
<g id="edge27" class="edge"><title>Node26&#45;&gt;Node1</title>
<path fill="none" stroke="#9a32cd" stroke-dasharray="5,2" d="M1272.65,-106.737C1312.14,-103.233 1360.56,-98.9369 1401.61,-95.2941"/>
<polygon fill="#9a32cd" stroke="#9a32cd" points="1272.2,-103.263 1262.55,-107.633 1272.82,-110.235 1272.2,-103.263"/>
<text text-anchor="middle" x="1344.12" y="-106.5" font-family="Helvetica,sans-Serif" font-size="10.00"> minFcFunction</text>
</g>
</g>
</svg>
