<?xml version="1.0" encoding="UTF-8" standalone="no"?>
<!DOCTYPE svg PUBLIC "-//W3C//DTD SVG 1.1//EN"
 "http://www.w3.org/Graphics/SVG/1.1/DTD/svg11.dtd">
<!-- Generated by graphviz version 2.38.0 (20140413.2041)
 -->
<!-- Title: ocra::ControlConstraint Pages: 1 -->
<svg width="322pt" height="82pt"
 viewBox="0.00 0.00 322.20 82.00" xmlns="http://www.w3.org/2000/svg" xmlns:xlink="http://www.w3.org/1999/xlink">
<g id="graph0" class="graph" transform="scale(1 1) rotate(0) translate(4 78)">
<title>ocra::ControlConstraint</title>
<polygon fill="white" stroke="none" points="-4,4 -4,-78 318.197,-78 318.197,4 -4,4"/>
<!-- Node0 -->
<g id="node1" class="node"><title>Node0</title>
<polygon fill="#bfbfbf" stroke="black" points="107.375,-55.5 107.375,-73.5 226.197,-73.5 226.197,-55.5 107.375,-55.5"/>
<text text-anchor="middle" x="166.786" y="-61.5" font-family="Helvetica,sans-Serif" font-size="10.00">ocra::ControlConstraint</text>
</g>
<!-- Node1 -->
<g id="node2" class="node"><title>Node1</title>
<g id="a_node2"><a xlink:href="../../d4/d90/classocra_1_1ContactAvoidanceConstraint.html" target="_top" xlink:title="ocra::ContactAvoidanceConstraint">
<polygon fill="white" stroke="black" points="0,-0.5 0,-18.5 167.572,-18.5 167.572,-0.5 0,-0.5"/>
<text text-anchor="middle" x="83.7861" y="-6.5" font-family="Helvetica,sans-Serif" font-size="10.00">ocra::ContactAvoidanceConstraint</text>
</a>
</g>
</g>
<!-- Node0&#45;&gt;Node1 -->
<g id="edge1" class="edge"><title>Node0&#45;&gt;Node1</title>
<path fill="none" stroke="midnightblue" d="M145.724,-50.0507C130.202,-40.1393 109.597,-26.9817 96.5107,-18.6253"/>
<polygon fill="midnightblue" stroke="midnightblue" points="143.868,-53.0184 154.18,-55.4504 147.636,-47.1186 143.868,-53.0184"/>
</g>
<!-- Node2 -->
<g id="node3" class="node"><title>Node2</title>
<g id="a_node3"><a xlink:href="../../d4/d69/classocra_1_1JointLimitConstraint.html" target="_top" xlink:title="ocra::JointLimitConstraint">
<polygon fill="white" stroke="black" points="185.375,-0.5 185.375,-18.5 314.197,-18.5 314.197,-0.5 185.375,-0.5"/>
<text text-anchor="middle" x="249.786" y="-6.5" font-family="Helvetica,sans-Serif" font-size="10.00">ocra::JointLimitConstraint</text>
</a>
</g>
</g>
<!-- Node0&#45;&gt;Node2 -->
<g id="edge2" class="edge"><title>Node0&#45;&gt;Node2</title>
<path fill="none" stroke="midnightblue" d="M187.848,-50.0507C203.37,-40.1393 223.975,-26.9817 237.062,-18.6253"/>
<polygon fill="midnightblue" stroke="midnightblue" points="185.937,-47.1186 179.392,-55.4504 189.704,-53.0184 185.937,-47.1186"/>
</g>
</g>
</svg>
