<?xml version="1.0" encoding="UTF-8" standalone="no"?>
<!DOCTYPE svg PUBLIC "-//W3C//DTD SVG 1.1//EN"
 "http://www.w3.org/Graphics/SVG/1.1/DTD/svg11.dtd">
<!-- Generated by graphviz version 2.38.0 (20140413.2041)
 -->
<!-- Title: ControllerServer.h Pages: 1 -->
<svg width="3478pt" height="562pt"
 viewBox="0.00 0.00 3478.08 562.00" xmlns="http://www.w3.org/2000/svg" xmlns:xlink="http://www.w3.org/1999/xlink">
<g id="graph0" class="graph" transform="scale(1 1) rotate(0) translate(4 558)">
<title>ControllerServer.h</title>
<polygon fill="white" stroke="none" points="-4,4 -4,-558 3474.08,-558 3474.08,4 -4,4"/>
<!-- Node0 -->
<g id="node1" class="node"><title>Node0</title>
<polygon fill="#bfbfbf" stroke="black" points="2972.7,-535.5 2972.7,-553.5 3069.3,-553.5 3069.3,-535.5 2972.7,-535.5"/>
<text text-anchor="middle" x="3021" y="-541.5" font-family="Helvetica,sans-Serif" font-size="10.00">ControllerServer.h</text>
</g>
<!-- Node1 -->
<g id="node2" class="node"><title>Node1</title>
<polygon fill="white" stroke="#bfbfbf" points="1577.83,-55.5 1577.83,-73.5 1632.17,-73.5 1632.17,-55.5 1577.83,-55.5"/>
<text text-anchor="middle" x="1605" y="-61.5" font-family="Helvetica,sans-Serif" font-size="10.00">iostream</text>
</g>
<!-- Node0&#45;&gt;Node1 -->
<g id="edge1" class="edge"><title>Node0&#45;&gt;Node1</title>
<path fill="none" stroke="midnightblue" d="M2994.24,-535.354C2972.66,-527.987 2942.19,-515.727 2919,-499 2846.77,-446.899 2863.22,-392.582 2785,-350 2696.05,-301.581 2657.65,-340.856 2560,-314 2526.34,-304.742 2520.12,-296.045 2487,-285 2294.31,-220.735 2242.54,-216.302 2046,-165 1948.48,-139.545 1924.32,-132.176 1826,-110 1761.67,-95.4905 1686.29,-80.8035 1642.27,-72.4581"/>
<polygon fill="midnightblue" stroke="midnightblue" points="1642.78,-68.9936 1632.3,-70.5766 1641.48,-75.8719 1642.78,-68.9936"/>
</g>
<!-- Node2 -->
<g id="node3" class="node"><title>Node2</title>
<polygon fill="white" stroke="#bfbfbf" points="2467.94,-0.5 2467.94,-18.5 2520.06,-18.5 2520.06,-0.5 2467.94,-0.5"/>
<text text-anchor="middle" x="2494" y="-6.5" font-family="Helvetica,sans-Serif" font-size="10.00">memory</text>
</g>
<!-- Node0&#45;&gt;Node2 -->
<g id="edge2" class="edge"><title>Node0&#45;&gt;Node2</title>
<path fill="none" stroke="midnightblue" d="M3069.39,-540.838C3150.43,-535.773 3309.65,-523.044 3360,-499 3399.86,-479.967 3432,-474.669 3432,-430.5 3432,-430.5 3432,-430.5 3432,-118.5 3432,-25.9765 2702.43,-12.6491 2530.14,-10.7917"/>
<polygon fill="midnightblue" stroke="midnightblue" points="2530.1,-7.29123 2520.07,-10.6895 2530.03,-14.2909 2530.1,-7.29123"/>
</g>
<!-- Node3 -->
<g id="node4" class="node"><title>Node3</title>
<g id="a_node4"><a xlink:href="../../df/d0a/Macros_8h.html" target="_top" xlink:title="ocra/util/Macros.h">
<polygon fill="white" stroke="black" points="2446.54,-55.5 2446.54,-73.5 2541.46,-73.5 2541.46,-55.5 2446.54,-55.5"/>
<text text-anchor="middle" x="2494" y="-61.5" font-family="Helvetica,sans-Serif" font-size="10.00">ocra/util/Macros.h</text>
</a>
</g>
</g>
<!-- Node0&#45;&gt;Node3 -->
<g id="edge3" class="edge"><title>Node0&#45;&gt;Node3</title>
<path fill="none" stroke="midnightblue" d="M3062.19,-535.465C3095.89,-526.628 3136.03,-509.591 3123,-480 3088.52,-401.69 3058.87,-385.465 2981,-350 2916.68,-320.706 2718.34,-360.37 2665,-314 2639.54,-291.863 2646,-274.24 2646,-240.5 2646,-240.5 2646,-240.5 2646,-178.5 2646,-123.052 2580.05,-91.6219 2535.03,-76.6269"/>
<polygon fill="midnightblue" stroke="midnightblue" points="2536.09,-73.2892 2525.49,-73.5886 2533.96,-79.959 2536.09,-73.2892"/>
</g>
<!-- Node4 -->
<g id="node5" class="node"><title>Node4</title>
<g id="a_node5"><a xlink:href="../../de/d4a/Controller_8h.html" target="_top" xlink:title="Controller interface. ">
<polygon fill="white" stroke="black" points="812.917,-355.5 812.917,-373.5 935.083,-373.5 935.083,-355.5 812.917,-355.5"/>
<text text-anchor="middle" x="874" y="-361.5" font-family="Helvetica,sans-Serif" font-size="10.00">ocra/control/Controller.h</text>
</a>
</g>
</g>
<!-- Node0&#45;&gt;Node4 -->
<g id="edge5" class="edge"><title>Node0&#45;&gt;Node4</title>
<path fill="none" stroke="midnightblue" d="M2972.28,-542.899C2680.28,-539.063 1168.41,-515.835 976,-444 975.392,-443.773 921.948,-402.533 892.675,-379.927"/>
<polygon fill="midnightblue" stroke="midnightblue" points="894.505,-376.918 884.452,-373.575 890.227,-382.458 894.505,-376.918"/>
</g>
<!-- Node16 -->
<g id="node16" class="node"><title>Node16</title>
<polygon fill="white" stroke="#bfbfbf" points="3120.37,-0.5 3120.37,-18.5 3193.63,-18.5 3193.63,-0.5 3120.37,-0.5"/>
<text text-anchor="middle" x="3157" y="-6.5" font-family="Helvetica,sans-Serif" font-size="10.00">Eigen/Dense</text>
</g>
<!-- Node0&#45;&gt;Node16 -->
<g id="edge135" class="edge"><title>Node0&#45;&gt;Node16</title>
<path fill="none" stroke="midnightblue" d="M3069.33,-541.327C3174.48,-536.191 3416.94,-521.979 3446,-499 3471.3,-478.991 3470,-462.759 3470,-430.5 3470,-430.5 3470,-430.5 3470,-118.5 3470,-88.3293 3469.44,-73.9971 3446,-55 3409.68,-25.5622 3276.02,-15.4486 3203.89,-12.0911"/>
<polygon fill="midnightblue" stroke="midnightblue" points="3203.85,-8.58637 3193.71,-11.6432 3203.55,-15.5796 3203.85,-8.58637"/>
</g>
<!-- Node24 -->
<g id="node18" class="node"><title>Node24</title>
<g id="a_node18"><a xlink:href="../../d3/d5a/Model_8h.html" target="_top" xlink:title="Declaration file of the Model class. ">
<polygon fill="white" stroke="black" points="762.7,-110.5 762.7,-128.5 869.3,-128.5 869.3,-110.5 762.7,-110.5"/>
<text text-anchor="middle" x="816" y="-116.5" font-family="Helvetica,sans-Serif" font-size="10.00">ocra/control/Model.h</text>
</a>
</g>
</g>
<!-- Node0&#45;&gt;Node24 -->
<g id="edge70" class="edge"><title>Node0&#45;&gt;Node24</title>
<path fill="none" stroke="midnightblue" d="M2972.62,-543.054C2697.64,-540.43 1328.85,-526.187 908,-499 767.027,-489.893 276,-571.767 276,-430.5 276,-430.5 276,-430.5 276,-298.5 276,-170.575 409.512,-205.07 531,-165 604.691,-140.695 693.584,-129.509 752.281,-124.466"/>
<polygon fill="midnightblue" stroke="midnightblue" points="752.839,-127.932 762.518,-123.623 752.264,-120.956 752.839,-127.932"/>
</g>
<!-- Node23 -->
<g id="node24" class="node"><title>Node23</title>
<polygon fill="white" stroke="#bfbfbf" points="2889.6,-55.5 2889.6,-73.5 2958.4,-73.5 2958.4,-55.5 2889.6,-55.5"/>
<text text-anchor="middle" x="2924" y="-61.5" font-family="Helvetica,sans-Serif" font-size="10.00">Eigen/Lgsm</text>
</g>
<!-- Node0&#45;&gt;Node23 -->
<g id="edge136" class="edge"><title>Node0&#45;&gt;Node23</title>
<path fill="none" stroke="midnightblue" d="M3069.55,-540.232C3144.16,-534.581 3282.98,-521.387 3327,-499 3364.96,-479.697 3394,-473.086 3394,-430.5 3394,-430.5 3394,-430.5 3394,-298.5 3394,-204.684 3375.84,-163.824 3299,-110 3246.63,-73.3134 3056.33,-66.6985 2968.72,-65.6279"/>
<polygon fill="midnightblue" stroke="midnightblue" points="2968.59,-62.1265 2958.56,-65.5232 2968.52,-69.1261 2968.59,-62.1265"/>
</g>
<!-- Node70 -->
<g id="node26" class="node"><title>Node70</title>
<g id="a_node26"><a xlink:href="../../d0/d17/OneLevelSolver_8h.html" target="_top" xlink:title="Define the internal solver class that can be used in the wOcra controller. ">
<polygon fill="white" stroke="red" points="179.796,-170.5 179.796,-188.5 324.204,-188.5 324.204,-170.5 179.796,-170.5"/>
<text text-anchor="middle" x="252" y="-176.5" font-family="Helvetica,sans-Serif" font-size="10.00">ocra/optim/OneLevelSolver.h</text>
</a>
</g>
</g>
<!-- Node0&#45;&gt;Node70 -->
<g id="edge117" class="edge"><title>Node0&#45;&gt;Node70</title>
<path fill="none" stroke="midnightblue" d="M2972.61,-543.418C2627.11,-542.741 540.478,-537.088 262,-499 142.752,-482.69 0,-550.859 0,-430.5 0,-430.5 0,-430.5 0,-298.5 0,-222.14 96.0715,-195.09 169.577,-185.569"/>
<polygon fill="midnightblue" stroke="midnightblue" points="170.278,-189.01 179.787,-184.339 169.44,-182.061 170.278,-189.01"/>
</g>
<!-- Node98 -->
<g id="node29" class="node"><title>Node98</title>
<polygon fill="white" stroke="#bfbfbf" points="3135.87,-230.5 3135.87,-248.5 3214.13,-248.5 3214.13,-230.5 3135.87,-230.5"/>
<text text-anchor="middle" x="3175" y="-236.5" font-family="Helvetica,sans-Serif" font-size="10.00">yarp/os/Port.h</text>
</g>
<!-- Node0&#45;&gt;Node98 -->
<g id="edge138" class="edge"><title>Node0&#45;&gt;Node98</title>
<path fill="none" stroke="midnightblue" d="M3069.47,-541.374C3131.23,-537.531 3232.79,-527.02 3256,-499 3279.82,-470.25 3264.05,-451.455 3256,-415 3242.36,-353.198 3204.53,-287.279 3185.8,-257.2"/>
<polygon fill="midnightblue" stroke="midnightblue" points="3188.75,-255.319 3180.44,-248.744 3182.84,-259.064 3188.75,-255.319"/>
</g>
<!-- Node102 -->
<g id="node31" class="node"><title>Node102</title>
<g id="a_node31"><a xlink:href="../../d1/d7b/TaskConstructionManager_8h.html" target="_top" xlink:title="ocra/control/TaskBuilders\l/TaskConstructionManager.h">
<polygon fill="white" stroke="black" points="2145.63,-415.5 2145.63,-443.5 2288.37,-443.5 2288.37,-415.5 2145.63,-415.5"/>
<text text-anchor="start" x="2153.63" y="-431.5" font-family="Helvetica,sans-Serif" font-size="10.00">ocra/control/TaskBuilders</text>
<text text-anchor="middle" x="2217" y="-421.5" font-family="Helvetica,sans-Serif" font-size="10.00">/TaskConstructionManager.h</text>
</a>
</g>
</g>
<!-- Node0&#45;&gt;Node102 -->
<g id="edge71" class="edge"><title>Node0&#45;&gt;Node102</title>
<path fill="none" stroke="midnightblue" d="M2972.52,-536.686C2839.08,-517.932 2465.32,-465.401 2298.82,-441.999"/>
<polygon fill="midnightblue" stroke="midnightblue" points="2299.03,-438.494 2288.64,-440.568 2298.05,-445.426 2299.03,-438.494"/>
</g>
<!-- Node49 -->
<g id="node38" class="node"><title>Node49</title>
<polygon fill="white" stroke="#bfbfbf" points="3204.26,-110.5 3204.26,-128.5 3289.74,-128.5 3289.74,-110.5 3204.26,-110.5"/>
<text text-anchor="middle" x="3247" y="-116.5" font-family="Helvetica,sans-Serif" font-size="10.00">yarp/os/Bottle.h</text>
</g>
<!-- Node0&#45;&gt;Node49 -->
<g id="edge137" class="edge"><title>Node0&#45;&gt;Node49</title>
<path fill="none" stroke="midnightblue" d="M3069.54,-539.615C3137.77,-533.488 3257.98,-520.065 3296,-499 3331.4,-479.386 3356,-470.972 3356,-430.5 3356,-430.5 3356,-430.5 3356,-363.5 3356,-271.004 3289.44,-174.682 3260.35,-136.995"/>
<polygon fill="midnightblue" stroke="midnightblue" points="3262.76,-134.402 3253.82,-128.715 3257.26,-138.735 3262.76,-134.402"/>
</g>
<!-- Node116 -->
<g id="node47" class="node"><title>Node116</title>
<g id="a_node47"><a xlink:href="../../db/dc6/WocraController_8h.html" target="_top" xlink:title="Define the LQP&#45;based controller developped during my PhD thesis with ocra framework. ">
<polygon fill="white" stroke="red" points="803.344,-420.5 803.344,-438.5 928.656,-438.5 928.656,-420.5 803.344,-420.5"/>
<text text-anchor="middle" x="866" y="-426.5" font-family="Helvetica,sans-Serif" font-size="10.00">wocra/WocraController.h</text>
</a>
</g>
</g>
<!-- Node0&#45;&gt;Node116 -->
<g id="edge118" class="edge"><title>Node0&#45;&gt;Node116</title>
<path fill="none" stroke="midnightblue" d="M2972.69,-543.41C2669.66,-542.726 1040.46,-537.274 943,-499 916.021,-488.404 892.352,-463.788 878.608,-447.139"/>
<polygon fill="midnightblue" stroke="midnightblue" points="880.991,-444.51 872.036,-438.849 875.506,-448.859 880.991,-444.51"/>
</g>
<!-- Node119 -->
<g id="node48" class="node"><title>Node119</title>
<g id="a_node48"><a xlink:href="../../d7/d34/HocraController_8h.html" target="_top" xlink:title="hocra/HocraController.h">
<polygon fill="white" stroke="red" points="985.195,-420.5 985.195,-438.5 1106.81,-438.5 1106.81,-420.5 985.195,-420.5"/>
<text text-anchor="middle" x="1046" y="-426.5" font-family="Helvetica,sans-Serif" font-size="10.00">hocra/HocraController.h</text>
</a>
</g>
</g>
<!-- Node0&#45;&gt;Node119 -->
<g id="edge127" class="edge"><title>Node0&#45;&gt;Node119</title>
<path fill="none" stroke="midnightblue" d="M2972.67,-540.735C2708,-525.592 1434.62,-452.735 1117.6,-434.596"/>
<polygon fill="midnightblue" stroke="midnightblue" points="1117.35,-431.077 1107.17,-434 1116.95,-438.065 1117.35,-431.077"/>
</g>
<!-- Node123 -->
<g id="node49" class="node"><title>Node123</title>
<g id="a_node49"><a xlink:href="../../d2/d6c/ServerCommunications_8h.html" target="_top" xlink:title="ocra&#45;recipes/ServerCommunications.h">
<polygon fill="white" stroke="red" points="2927.97,-480.5 2927.97,-498.5 3114.03,-498.5 3114.03,-480.5 2927.97,-480.5"/>
<text text-anchor="middle" x="3021" y="-486.5" font-family="Helvetica,sans-Serif" font-size="10.00">ocra&#45;recipes/ServerCommunications.h</text>
</a>
</g>
</g>
<!-- Node0&#45;&gt;Node123 -->
<g id="edge139" class="edge"><title>Node0&#45;&gt;Node123</title>
<path fill="none" stroke="midnightblue" d="M3021,-535.219C3021,-528.177 3021,-517.808 3021,-508.828"/>
<polygon fill="midnightblue" stroke="midnightblue" points="3024.5,-508.55 3021,-498.55 3017.5,-508.55 3024.5,-508.55"/>
</g>
<!-- Node125 -->
<g id="node50" class="node"><title>Node125</title>
<g id="a_node50"><a xlink:href="../../d2/d42/RobotState_8h.html" target="_top" xlink:title="ocra&#45;recipes/RobotState.h">
<polygon fill="white" stroke="red" points="3043.91,-170.5 3043.91,-188.5 3176.09,-188.5 3176.09,-170.5 3043.91,-170.5"/>
<text text-anchor="middle" x="3110" y="-176.5" font-family="Helvetica,sans-Serif" font-size="10.00">ocra&#45;recipes/RobotState.h</text>
</a>
</g>
</g>
<!-- Node0&#45;&gt;Node125 -->
<g id="edge152" class="edge"><title>Node0&#45;&gt;Node125</title>
<path fill="none" stroke="midnightblue" d="M3069.31,-542.2C3135.76,-539.278 3250.12,-529.788 3276,-499 3324.86,-440.878 3259.85,-272.357 3223,-230 3206.41,-210.927 3181.09,-198.919 3158.63,-191.516"/>
<polygon fill="midnightblue" stroke="midnightblue" points="3159.47,-188.112 3148.88,-188.524 3157.41,-194.804 3159.47,-188.112"/>
</g>
<!-- Node3&#45;&gt;Node2 -->
<g id="edge4" class="edge"><title>Node3&#45;&gt;Node2</title>
<path fill="none" stroke="midnightblue" d="M2494,-55.2188C2494,-48.1769 2494,-37.8083 2494,-28.8277"/>
<polygon fill="midnightblue" stroke="midnightblue" points="2497.5,-28.5495 2494,-18.5496 2490.5,-28.5496 2497.5,-28.5495"/>
</g>
<!-- Node4&#45;&gt;Node1 -->
<g id="edge69" class="edge"><title>Node4&#45;&gt;Node1</title>
<path fill="none" stroke="midnightblue" d="M935.114,-360.223C1001.32,-355.289 1109.36,-343.182 1198,-314 1306.77,-278.191 1328.59,-254.2 1426,-194 1487.28,-156.132 1555.25,-104.45 1586.92,-79.7631"/>
<polygon fill="midnightblue" stroke="midnightblue" points="1589.14,-82.4711 1594.85,-73.5497 1584.82,-76.96 1589.14,-82.4711"/>
</g>
<!-- Node4&#45;&gt;Node3 -->
<g id="edge15" class="edge"><title>Node4&#45;&gt;Node3</title>
<path fill="none" stroke="midnightblue" d="M935.403,-356.683C1010,-348.109 1139.57,-332.278 1250,-314 1720.68,-236.095 2285.51,-112.106 2448.16,-75.8018"/>
<polygon fill="midnightblue" stroke="midnightblue" points="2449.29,-79.1357 2458.28,-73.5388 2447.76,-72.3042 2449.29,-79.1357"/>
</g>
<!-- Node5 -->
<g id="node6" class="node"><title>Node5</title>
<g id="a_node6"><a xlink:href="../../df/d97/NamedInstance_8h.html" target="_top" xlink:title="ocra/optim/NamedInstance.h">
<polygon fill="white" stroke="black" points="348.079,-55.5 348.079,-73.5 491.921,-73.5 491.921,-55.5 348.079,-55.5"/>
<text text-anchor="middle" x="420" y="-61.5" font-family="Helvetica,sans-Serif" font-size="10.00">ocra/optim/NamedInstance.h</text>
</a>
</g>
</g>
<!-- Node4&#45;&gt;Node5 -->
<g id="edge6" class="edge"><title>Node4&#45;&gt;Node5</title>
<path fill="none" stroke="midnightblue" d="M858.204,-355.377C840.462,-346.057 811.009,-329.992 787,-314 663.588,-231.799 650.724,-185.326 523,-110 500.65,-96.819 473.673,-85.3069 452.934,-77.2957"/>
<polygon fill="midnightblue" stroke="midnightblue" points="453.894,-73.9167 443.302,-73.6521 451.417,-80.4639 453.894,-73.9167"/>
</g>
<!-- Node6 -->
<g id="node7" class="node"><title>Node6</title>
<polygon fill="white" stroke="#bfbfbf" points="253.773,-0.5 253.773,-18.5 294.227,-18.5 294.227,-0.5 253.773,-0.5"/>
<text text-anchor="middle" x="274" y="-6.5" font-family="Helvetica,sans-Serif" font-size="10.00">string</text>
</g>
<!-- Node4&#45;&gt;Node6 -->
<g id="edge12" class="edge"><title>Node4&#45;&gt;Node6</title>
<path fill="none" stroke="midnightblue" d="M842.215,-355.447C803.942,-345.727 737.724,-328.837 681,-314 540.824,-277.335 507.35,-261.843 366,-230 323.012,-220.316 199.189,-227.87 171,-194 144.765,-162.478 149.981,-127.541 205,-55 215.358,-41.3429 231.21,-30.6974 245.108,-23.2476"/>
<polygon fill="midnightblue" stroke="midnightblue" points="246.971,-26.2281 254.327,-18.6028 243.822,-19.9767 246.971,-26.2281"/>
</g>
<!-- Node7 -->
<g id="node8" class="node"><title>Node7</title>
<polygon fill="white" stroke="#bfbfbf" points="42.9854,-0.5 42.9854,-18.5 109.015,-18.5 109.015,-0.5 42.9854,-0.5"/>
<text text-anchor="middle" x="76" y="-6.5" font-family="Helvetica,sans-Serif" font-size="10.00">Eigen/Core</text>
</g>
<!-- Node4&#45;&gt;Node7 -->
<g id="edge8" class="edge"><title>Node4&#45;&gt;Node7</title>
<path fill="none" stroke="midnightblue" d="M812.746,-356.472C650.702,-336.899 215.313,-277.652 100,-194 48.9,-156.93 41.5849,-134.631 24,-74 21.6478,-65.8898 20.4684,-62.6705 24,-55 29.8234,-42.3517 41.2118,-31.9584 51.85,-24.406"/>
<polygon fill="midnightblue" stroke="midnightblue" points="54.0346,-27.1587 60.471,-18.7431 50.1914,-21.308 54.0346,-27.1587"/>
</g>
<!-- Node8 -->
<g id="node9" class="node"><title>Node8</title>
<polygon fill="white" stroke="#bfbfbf" points="1181.29,-0.5 1181.29,-18.5 1300.71,-18.5 1300.71,-0.5 1181.29,-0.5"/>
<text text-anchor="middle" x="1241" y="-6.5" font-family="Helvetica,sans-Serif" font-size="10.00">boost/noncopyable.hpp</text>
</g>
<!-- Node4&#45;&gt;Node8 -->
<g id="edge9" class="edge"><title>Node4&#45;&gt;Node8</title>
<path fill="none" stroke="midnightblue" d="M917.118,-355.455C988.167,-342.145 1122.5,-316.728 1127,-314 1167.83,-289.228 1159.9,-263.434 1194,-230 1212.79,-211.578 1229.35,-217.594 1241,-194 1268.11,-139.077 1254.5,-63.148 1246.04,-28.7452"/>
<polygon fill="midnightblue" stroke="midnightblue" points="1249.35,-27.5531 1243.44,-18.7605 1242.57,-29.3202 1249.35,-27.5531"/>
</g>
<!-- Node9 -->
<g id="node10" class="node"><title>Node9</title>
<polygon fill="white" stroke="#bfbfbf" points="1053.02,-0.5 1053.02,-18.5 1162.98,-18.5 1162.98,-0.5 1053.02,-0.5"/>
<text text-anchor="middle" x="1108" y="-6.5" font-family="Helvetica,sans-Serif" font-size="10.00">boost/shared_ptr.hpp</text>
</g>
<!-- Node4&#45;&gt;Node9 -->
<g id="edge10" class="edge"><title>Node4&#45;&gt;Node9</title>
<path fill="none" stroke="midnightblue" d="M882.517,-355.414C923.61,-316.174 1100.49,-144.615 1127,-74 1132.8,-58.5472 1126.14,-40.4758 1119.15,-27.5714"/>
<polygon fill="midnightblue" stroke="midnightblue" points="1122.08,-25.6405 1113.95,-18.8395 1116.06,-29.2222 1122.08,-25.6405"/>
</g>
<!-- Node10 -->
<g id="node11" class="node"><title>Node10</title>
<polygon fill="white" stroke="#bfbfbf" points="1015.64,-285.5 1015.64,-313.5 1118.36,-313.5 1118.36,-285.5 1015.64,-285.5"/>
<text text-anchor="start" x="1023.64" y="-301.5" font-family="Helvetica,sans-Serif" font-size="10.00">boost/property_tree</text>
<text text-anchor="middle" x="1067" y="-291.5" font-family="Helvetica,sans-Serif" font-size="10.00">/ptree.hpp</text>
</g>
<!-- Node4&#45;&gt;Node10 -->
<g id="edge11" class="edge"><title>Node4&#45;&gt;Node10</title>
<path fill="none" stroke="midnightblue" d="M898.836,-355.393C928.649,-345.661 979.368,-329.105 1017.33,-316.714"/>
<polygon fill="midnightblue" stroke="midnightblue" points="1018.75,-319.931 1027.17,-313.5 1016.58,-313.276 1018.75,-319.931"/>
</g>
<!-- Node11 -->
<g id="node12" class="node"><title>Node11</title>
<polygon fill="white" stroke="#bfbfbf" points="1471.38,-0.5 1471.38,-18.5 1514.62,-18.5 1514.62,-0.5 1471.38,-0.5"/>
<text text-anchor="middle" x="1493" y="-6.5" font-family="Helvetica,sans-Serif" font-size="10.00">vector</text>
</g>
<!-- Node4&#45;&gt;Node11 -->
<g id="edge13" class="edge"><title>Node4&#45;&gt;Node11</title>
<path fill="none" stroke="midnightblue" d="M918.409,-355.456C928.466,-353.648 939.098,-351.748 949,-350 1041.39,-333.69 1075.31,-360.131 1157,-314 1218.45,-279.298 1224.2,-254.221 1261,-194 1295.73,-137.169 1266.83,-98.8032 1317,-55 1338.32,-36.386 1416.35,-21.9872 1461.03,-15.0508"/>
<polygon fill="midnightblue" stroke="midnightblue" points="1461.72,-18.486 1471.08,-13.5281 1460.67,-11.5649 1461.72,-18.486"/>
</g>
<!-- Node12 -->
<g id="node13" class="node"><title>Node12</title>
<polygon fill="white" stroke="#bfbfbf" points="256.273,-55.5 256.273,-73.5 291.727,-73.5 291.727,-55.5 256.273,-55.5"/>
<text text-anchor="middle" x="274" y="-61.5" font-family="Helvetica,sans-Serif" font-size="10.00">map</text>
</g>
<!-- Node4&#45;&gt;Node12 -->
<g id="edge14" class="edge"><title>Node4&#45;&gt;Node12</title>
<path fill="none" stroke="midnightblue" d="M850.16,-355.412C823.813,-346.246 780.301,-330.433 744,-314 567.282,-234.001 363.955,-117.873 296.81,-78.8526"/>
<polygon fill="midnightblue" stroke="midnightblue" points="298.314,-75.6779 287.911,-73.6685 294.79,-81.7264 298.314,-75.6779"/>
</g>
<!-- Node13 -->
<g id="node14" class="node"><title>Node13</title>
<g id="a_node14"><a xlink:href="../../df/d4f/Task_8h.html" target="_top" xlink:title="ocra/control/Task.h">
<polygon fill="white" stroke="red" points="766.037,-230.5 766.037,-248.5 865.963,-248.5 865.963,-230.5 766.037,-230.5"/>
<text text-anchor="middle" x="816" y="-236.5" font-family="Helvetica,sans-Serif" font-size="10.00">ocra/control/Task.h</text>
</a>
</g>
</g>
<!-- Node4&#45;&gt;Node13 -->
<g id="edge16" class="edge"><title>Node4&#45;&gt;Node13</title>
<path fill="none" stroke="midnightblue" d="M873.309,-355.253C871.792,-340.435 867.268,-308.649 855,-285 849.394,-274.194 840.622,-263.857 832.815,-255.871"/>
<polygon fill="midnightblue" stroke="midnightblue" points="835.092,-253.202 825.484,-248.737 830.21,-258.219 835.092,-253.202"/>
</g>
<!-- Node18 -->
<g id="node17" class="node"><title>Node18</title>
<g id="a_node17"><a xlink:href="../../dc/d2f/Feature_8h.html" target="_top" xlink:title="A class hierarchy to compute task errors based on control frames. ">
<polygon fill="white" stroke="red" points="1118.09,-170.5 1118.09,-188.5 1231.91,-188.5 1231.91,-170.5 1118.09,-170.5"/>
<text text-anchor="middle" x="1175" y="-176.5" font-family="Helvetica,sans-Serif" font-size="10.00">ocra/control/Feature.h</text>
</a>
</g>
</g>
<!-- Node4&#45;&gt;Node18 -->
<g id="edge66" class="edge"><title>Node4&#45;&gt;Node18</title>
<path fill="none" stroke="midnightblue" d="M889.854,-355.338C908.027,-345.854 938.582,-329.517 964,-314 983.675,-301.989 987.654,-297.534 1007,-285 1058.69,-251.511 1120.38,-213.671 1152.71,-194.002"/>
<polygon fill="midnightblue" stroke="midnightblue" points="1154.66,-196.914 1161.39,-188.73 1151.03,-190.931 1154.66,-196.914"/>
</g>
<!-- Node4&#45;&gt;Node24 -->
<g id="edge67" class="edge"><title>Node4&#45;&gt;Node24</title>
<path fill="none" stroke="midnightblue" d="M877.556,-355.473C886.38,-334.405 907.548,-275.979 893,-230 880.923,-191.83 850.233,-155.448 831.449,-135.73"/>
<polygon fill="midnightblue" stroke="midnightblue" points="833.937,-133.269 824.442,-128.569 828.933,-138.164 833.937,-133.269"/>
</g>
<!-- Node87 -->
<g id="node28" class="node"><title>Node87</title>
<g id="a_node28"><a xlink:href="../../d9/d76/TaskYarpInterface_8h.html" target="_top" xlink:title="ocra/control/TaskYarpInterface.h">
<polygon fill="white" stroke="red" points="2674.39,-290.5 2674.39,-308.5 2833.61,-308.5 2833.61,-290.5 2674.39,-290.5"/>
<text text-anchor="middle" x="2754" y="-296.5" font-family="Helvetica,sans-Serif" font-size="10.00">ocra/control/TaskYarpInterface.h</text>
</a>
</g>
</g>
<!-- Node4&#45;&gt;Node87 -->
<g id="edge61" class="edge"><title>Node4&#45;&gt;Node87</title>
<path fill="none" stroke="midnightblue" d="M935.425,-361.485C1015.93,-358.844 1161.54,-354.07 1286,-350 1776.22,-333.968 1898.81,-331.064 2389,-314 2482.82,-310.734 2590.18,-306.731 2664.06,-303.935"/>
<polygon fill="midnightblue" stroke="midnightblue" points="2664.4,-307.425 2674.26,-303.549 2664.13,-300.43 2664.4,-307.425"/>
</g>
<!-- Node90 -->
<g id="node30" class="node"><title>Node90</title>
<polygon fill="white" stroke="#bfbfbf" points="796.33,-290.5 796.33,-308.5 845.67,-308.5 845.67,-290.5 796.33,-290.5"/>
<text text-anchor="middle" x="821" y="-296.5" font-family="Helvetica,sans-Serif" font-size="10.00">fstream</text>
</g>
<!-- Node4&#45;&gt;Node90 -->
<g id="edge68" class="edge"><title>Node4&#45;&gt;Node90</title>
<path fill="none" stroke="midnightblue" d="M867.071,-355.264C858.773,-345.4 844.689,-328.659 834.272,-316.277"/>
<polygon fill="midnightblue" stroke="midnightblue" points="836.879,-313.938 827.763,-308.539 831.522,-318.444 836.879,-313.938"/>
</g>
<!-- Node5&#45;&gt;Node6 -->
<g id="edge7" class="edge"><title>Node5&#45;&gt;Node6</title>
<path fill="none" stroke="midnightblue" d="M397.826,-55.4504C372.817,-46.3721 332.01,-31.5585 304.127,-21.4367"/>
<polygon fill="midnightblue" stroke="midnightblue" points="305.087,-18.0616 294.493,-17.9392 302.698,-24.6415 305.087,-18.0616"/>
</g>
<!-- Node13&#45;&gt;Node3 -->
<g id="edge19" class="edge"><title>Node13&#45;&gt;Node3</title>
<path fill="none" stroke="midnightblue" d="M866.219,-233.322C1110.8,-208.107 2175.98,-98.288 2436.4,-71.4389"/>
<polygon fill="midnightblue" stroke="midnightblue" points="2436.81,-74.9148 2446.4,-70.4077 2436.09,-67.9518 2436.81,-74.9148"/>
</g>
<!-- Node13&#45;&gt;Node5 -->
<g id="edge17" class="edge"><title>Node13&#45;&gt;Node5</title>
<path fill="none" stroke="midnightblue" d="M801.394,-230.353C762.4,-208.81 652.261,-149.301 556,-110 523.635,-96.786 485.758,-84.6533 458.209,-76.4058"/>
<polygon fill="midnightblue" stroke="midnightblue" points="459.137,-73.0307 448.555,-73.5482 457.15,-79.7427 459.137,-73.0307"/>
</g>
<!-- Node13&#45;&gt;Node7 -->
<g id="edge18" class="edge"><title>Node13&#45;&gt;Node7</title>
<path fill="none" stroke="midnightblue" d="M782.014,-230.464C711.078,-213.478 542.291,-171.945 403,-129 332.747,-107.34 316.128,-99.0192 247,-74 197.809,-56.1964 140.899,-34.9286 106.715,-22.0807"/>
<polygon fill="midnightblue" stroke="midnightblue" points="107.877,-18.7786 97.2853,-18.5335 105.413,-25.3303 107.877,-18.7786"/>
</g>
<!-- Node13&#45;&gt;Node13 -->
<g id="edge51" class="edge"><title>Node13&#45;&gt;Node13</title>
<path fill="none" stroke="midnightblue" d="M838.627,-248.519C860.301,-253.346 883.963,-250.34 883.963,-239.5 883.963,-230.312 866.962,-226.752 848.58,-228.82"/>
<polygon fill="midnightblue" stroke="midnightblue" points="847.915,-225.383 838.627,-230.481 849.067,-232.287 847.915,-225.383"/>
</g>
<!-- Node14 -->
<g id="node15" class="node"><title>Node14</title>
<g id="a_node15"><a xlink:href="../../da/dbb/StringUtilities_8h.html" target="_top" xlink:title="ocra/util/StringUtilities.h">
<polygon fill="white" stroke="red" points="1325.76,-55.5 1325.76,-73.5 1446.24,-73.5 1446.24,-55.5 1325.76,-55.5"/>
<text text-anchor="middle" x="1386" y="-61.5" font-family="Helvetica,sans-Serif" font-size="10.00">ocra/util/StringUtilities.h</text>
</a>
</g>
</g>
<!-- Node13&#45;&gt;Node14 -->
<g id="edge20" class="edge"><title>Node13&#45;&gt;Node14</title>
<path fill="none" stroke="midnightblue" d="M842.728,-230.388C935.479,-202.237 1243.58,-108.726 1349.7,-76.5161"/>
<polygon fill="midnightblue" stroke="midnightblue" points="1350.78,-79.848 1359.33,-73.5946 1348.74,-73.1498 1350.78,-79.848"/>
</g>
<!-- Node13&#45;&gt;Node18 -->
<g id="edge24" class="edge"><title>Node13&#45;&gt;Node18</title>
<path fill="none" stroke="midnightblue" d="M865.54,-230.496C930.807,-219.952 1045.48,-201.425 1115.41,-190.127"/>
<polygon fill="midnightblue" stroke="midnightblue" points="1116.08,-193.565 1125.39,-188.515 1114.96,-186.654 1116.08,-193.565"/>
</g>
<!-- Node13&#45;&gt;Node24 -->
<g id="edge50" class="edge"><title>Node13&#45;&gt;Node24</title>
<path fill="none" stroke="midnightblue" d="M816,-230.389C816,-211.611 816,-164.768 816,-138.711"/>
<polygon fill="midnightblue" stroke="midnightblue" points="819.5,-138.667 816,-128.667 812.5,-138.667 819.5,-138.667"/>
</g>
<!-- Node13&#45;&gt;Node70 -->
<g id="edge52" class="edge"><title>Node13&#45;&gt;Node70</title>
<path fill="none" stroke="midnightblue" d="M765.949,-233.353C668.631,-223.345 453.066,-201.177 334.366,-188.97"/>
<polygon fill="midnightblue" stroke="midnightblue" points="334.545,-185.47 324.239,-187.929 333.829,-192.434 334.545,-185.47"/>
</g>
<!-- Node14&#45;&gt;Node6 -->
<g id="edge21" class="edge"><title>Node14&#45;&gt;Node6</title>
<path fill="none" stroke="midnightblue" d="M1325.42,-60.6129C1120.26,-50.8345 456.004,-19.1747 304.817,-11.9688"/>
<polygon fill="midnightblue" stroke="midnightblue" points="304.601,-8.45461 294.446,-11.4745 304.268,-15.4467 304.601,-8.45461"/>
</g>
<!-- Node14&#45;&gt;Node11 -->
<g id="edge22" class="edge"><title>Node14&#45;&gt;Node11</title>
<path fill="none" stroke="midnightblue" d="M1402.25,-55.4504C1419.61,-46.8508 1447.36,-33.1048 1467.61,-23.0755"/>
<polygon fill="midnightblue" stroke="midnightblue" points="1469.19,-26.2003 1476.6,-18.6253 1466.08,-19.9276 1469.19,-26.2003"/>
</g>
<!-- Node14&#45;&gt;Node16 -->
<g id="edge23" class="edge"><title>Node14&#45;&gt;Node16</title>
<path fill="none" stroke="midnightblue" d="M1446.57,-60.4065C1482.21,-58.6563 1528.16,-56.5206 1569,-55 2177.96,-32.3271 2918.67,-15.643 3110.09,-11.4992"/>
<polygon fill="midnightblue" stroke="midnightblue" points="3110.43,-14.9927 3120.35,-11.2776 3110.28,-7.99434 3110.43,-14.9927"/>
</g>
<!-- Node18&#45;&gt;Node3 -->
<g id="edge46" class="edge"><title>Node18&#45;&gt;Node3</title>
<path fill="none" stroke="midnightblue" d="M1218.35,-170.443C1298.52,-155.874 1475.51,-125.248 1626,-110 1930.27,-79.1709 2296.82,-69.2644 2436.32,-66.4751"/>
<polygon fill="midnightblue" stroke="midnightblue" points="2436.43,-69.9736 2446.36,-66.2788 2436.29,-62.975 2436.43,-69.9736"/>
</g>
<!-- Node18&#45;&gt;Node5 -->
<g id="edge25" class="edge"><title>Node18&#45;&gt;Node5</title>
<path fill="none" stroke="midnightblue" d="M1117.76,-174.283C1036.42,-167.721 882.922,-153.238 754,-129 721.052,-122.806 713.777,-117.046 681,-110 614.717,-95.7509 538.173,-83.1493 485.195,-75.0268"/>
<polygon fill="midnightblue" stroke="midnightblue" points="485.667,-71.5585 475.254,-73.5129 484.613,-78.4787 485.667,-71.5585"/>
</g>
<!-- Node18&#45;&gt;Node8 -->
<g id="edge49" class="edge"><title>Node18&#45;&gt;Node8</title>
<path fill="none" stroke="midnightblue" d="M1178.18,-170.397C1188.31,-144.618 1219.95,-64.0877 1234.07,-28.1375"/>
<polygon fill="midnightblue" stroke="midnightblue" points="1237.45,-29.109 1237.85,-18.5217 1230.93,-26.5494 1237.45,-29.109"/>
</g>
<!-- Node18&#45;&gt;Node9 -->
<g id="edge48" class="edge"><title>Node18&#45;&gt;Node9</title>
<path fill="none" stroke="midnightblue" d="M1175.94,-170.395C1177.95,-149.744 1180.91,-94.0271 1160,-55 1153.34,-42.5629 1141.66,-32.0889 1131.07,-24.433"/>
<polygon fill="midnightblue" stroke="midnightblue" points="1132.8,-21.3777 1122.55,-18.6835 1128.88,-27.1795 1132.8,-21.3777"/>
</g>
<!-- Node18&#45;&gt;Node24 -->
<g id="edge26" class="edge"><title>Node18&#45;&gt;Node24</title>
<path fill="none" stroke="midnightblue" d="M1125.46,-170.496C1060.19,-159.952 945.519,-141.425 875.59,-130.127"/>
<polygon fill="midnightblue" stroke="midnightblue" points="876.038,-126.654 865.608,-128.515 874.922,-133.565 876.038,-126.654"/>
</g>
<!-- Node18&#45;&gt;Node23 -->
<g id="edge47" class="edge"><title>Node18&#45;&gt;Node23</title>
<path fill="none" stroke="midnightblue" d="M1232.2,-174.805C1501.37,-157.414 2638.86,-83.9222 2879.26,-68.3905"/>
<polygon fill="midnightblue" stroke="midnightblue" points="2879.63,-71.8741 2889.38,-67.7366 2879.18,-64.8887 2879.63,-71.8741"/>
</g>
<!-- Node24&#45;&gt;Node1 -->
<g id="edge44" class="edge"><title>Node24&#45;&gt;Node1</title>
<path fill="none" stroke="midnightblue" d="M869.302,-114.92C1018.8,-104.877 1439.52,-76.6162 1567.56,-68.0152"/>
<polygon fill="midnightblue" stroke="midnightblue" points="1567.91,-71.4997 1577.65,-67.3372 1567.44,-64.5154 1567.91,-71.4997"/>
</g>
<!-- Node24&#45;&gt;Node3 -->
<g id="edge41" class="edge"><title>Node24&#45;&gt;Node3</title>
<path fill="none" stroke="midnightblue" d="M869.459,-116.811C1119.93,-108.9 2176.05,-75.5427 2436,-67.3318"/>
<polygon fill="midnightblue" stroke="midnightblue" points="2436.47,-70.8191 2446.35,-67.005 2436.25,-63.8225 2436.47,-70.8191"/>
</g>
<!-- Node24&#45;&gt;Node5 -->
<g id="edge36" class="edge"><title>Node24&#45;&gt;Node5</title>
<path fill="none" stroke="midnightblue" d="M762.594,-111.352C692.181,-101.928 568.127,-85.3251 490.196,-74.895"/>
<polygon fill="midnightblue" stroke="midnightblue" points="490.364,-71.3862 479.988,-73.5286 489.435,-78.3243 490.364,-71.3862"/>
</g>
<!-- Node24&#45;&gt;Node6 -->
<g id="edge43" class="edge"><title>Node24&#45;&gt;Node6</title>
<path fill="none" stroke="midnightblue" d="M763.188,-110.464C712.977,-102.475 635.466,-89.2375 569,-74 538.414,-66.9881 531.532,-62.2462 501,-55 431.15,-38.4223 348.165,-23.2983 304.448,-15.681"/>
<polygon fill="midnightblue" stroke="midnightblue" points="304.915,-12.2099 294.464,-13.9534 303.721,-19.1074 304.915,-12.2099"/>
</g>
<!-- Node21 -->
<g id="node19" class="node"><title>Node21</title>
<g id="a_node19"><a xlink:href="../../d5/d55/MathTypes_8h.html" target="_top" xlink:title="Declaration file of the OptimizationVariable class. ">
<polygon fill="white" stroke="black" points="877.476,-55.5 877.476,-73.5 988.524,-73.5 988.524,-55.5 877.476,-55.5"/>
<text text-anchor="middle" x="933" y="-61.5" font-family="Helvetica,sans-Serif" font-size="10.00">ocra/util/MathTypes.h</text>
</a>
</g>
</g>
<!-- Node24&#45;&gt;Node21 -->
<g id="edge27" class="edge"><title>Node24&#45;&gt;Node21</title>
<path fill="none" stroke="midnightblue" d="M833.77,-110.45C852.926,-101.773 883.649,-87.8556 905.838,-77.8041"/>
<polygon fill="midnightblue" stroke="midnightblue" points="907.398,-80.9398 915.063,-73.6253 904.51,-74.5635 907.398,-80.9398"/>
</g>
<!-- Node25 -->
<g id="node21" class="node"><title>Node25</title>
<g id="a_node21"><a xlink:href="../../d8/ddc/ObserverSubject_8h.html" target="_top" xlink:title="Declaration file of the Observer, Subject and ObserverSubject classes. ">
<polygon fill="white" stroke="red" points="584.86,-0.5 584.86,-18.5 733.14,-18.5 733.14,-0.5 584.86,-0.5"/>
<text text-anchor="middle" x="659" y="-6.5" font-family="Helvetica,sans-Serif" font-size="10.00">ocra/optim/ObserverSubject.h</text>
</a>
</g>
</g>
<!-- Node24&#45;&gt;Node25 -->
<g id="edge30" class="edge"><title>Node24&#45;&gt;Node25</title>
<path fill="none" stroke="midnightblue" d="M762.618,-112.183C695.846,-103.737 588.785,-88.1814 577,-74 559.062,-52.4135 593.371,-33.5718 622.952,-22.1357"/>
<polygon fill="midnightblue" stroke="midnightblue" points="624.54,-25.2811 632.72,-18.548 622.126,-18.7103 624.54,-25.2811"/>
</g>
<!-- Node35 -->
<g id="node22" class="node"><title>Node35</title>
<g id="a_node22"><a xlink:href="../../d7/d90/Variable_8h.html" target="_top" xlink:title="Declaration file of the Variable class. ">
<polygon fill="white" stroke="red" points="750.123,-55.5 750.123,-73.5 859.877,-73.5 859.877,-55.5 750.123,-55.5"/>
<text text-anchor="middle" x="805" y="-61.5" font-family="Helvetica,sans-Serif" font-size="10.00">ocra/optim/Variable.h</text>
</a>
</g>
</g>
<!-- Node24&#45;&gt;Node35 -->
<g id="edge31" class="edge"><title>Node24&#45;&gt;Node35</title>
<path fill="none" stroke="midnightblue" d="M814.281,-110.219C812.803,-103.099 810.62,-92.5775 808.742,-83.5289"/>
<polygon fill="midnightblue" stroke="midnightblue" points="812.13,-82.6296 806.671,-73.5496 805.276,-84.0522 812.13,-82.6296"/>
</g>
<!-- Node43 -->
<g id="node23" class="node"><title>Node43</title>
<g id="a_node23"><a xlink:href="../../d9/d5d/ModelContacts_8h.html" target="_top" xlink:title="Declaration file of the ModelContacts class. ">
<polygon fill="white" stroke="black" points="585.968,-55.5 585.968,-73.5 732.032,-73.5 732.032,-55.5 585.968,-55.5"/>
<text text-anchor="middle" x="659" y="-61.5" font-family="Helvetica,sans-Serif" font-size="10.00">ocra/control/ModelContacts.h</text>
</a>
</g>
</g>
<!-- Node24&#45;&gt;Node43 -->
<g id="edge37" class="edge"><title>Node24&#45;&gt;Node43</title>
<path fill="none" stroke="midnightblue" d="M792.155,-110.45C765.566,-101.475 722.369,-86.8922 692.418,-76.7813"/>
<polygon fill="midnightblue" stroke="midnightblue" points="693.406,-73.4207 682.812,-73.5383 691.167,-80.053 693.406,-73.4207"/>
</g>
<!-- Node24&#45;&gt;Node23 -->
<g id="edge42" class="edge"><title>Node24&#45;&gt;Node23</title>
<path fill="none" stroke="midnightblue" d="M869.428,-117.157C1165.88,-109.703 2605.19,-73.5157 2878.97,-66.6321"/>
<polygon fill="midnightblue" stroke="midnightblue" points="2879.41,-70.1224 2889.32,-66.372 2879.23,-63.1246 2879.41,-70.1224"/>
</g>
<!-- Node44 -->
<g id="node25" class="node"><title>Node44</title>
<polygon fill="white" stroke="#bfbfbf" points="1006.19,-55.5 1006.19,-73.5 1117.81,-73.5 1117.81,-55.5 1006.19,-55.5"/>
<text text-anchor="middle" x="1062" y="-61.5" font-family="Helvetica,sans-Serif" font-size="10.00">yarp/os/Semaphore.h</text>
</g>
<!-- Node24&#45;&gt;Node44 -->
<g id="edge45" class="edge"><title>Node24&#45;&gt;Node44</title>
<path fill="none" stroke="midnightblue" d="M853.362,-110.45C896.564,-101.143 967.746,-85.8067 1014.75,-75.6791"/>
<polygon fill="midnightblue" stroke="midnightblue" points="1015.65,-79.066 1024.69,-73.5383 1014.18,-72.223 1015.65,-79.066"/>
</g>
<!-- Node21&#45;&gt;Node16 -->
<g id="edge28" class="edge"><title>Node21&#45;&gt;Node16</title>
<path fill="none" stroke="midnightblue" d="M988.809,-55.7155C991.576,-55.4465 994.318,-55.2051 997,-55 1214.04,-38.4037 2813.47,-15.3165 3109.83,-11.1556"/>
<polygon fill="midnightblue" stroke="midnightblue" points="3110.27,-14.6499 3120.22,-11.01 3110.17,-7.6506 3110.27,-14.6499"/>
</g>
<!-- Node22 -->
<g id="node20" class="node"><title>Node22</title>
<polygon fill="white" stroke="#bfbfbf" points="1364.38,-0.5 1364.38,-18.5 1407.62,-18.5 1407.62,-0.5 1364.38,-0.5"/>
<text text-anchor="middle" x="1386" y="-6.5" font-family="Helvetica,sans-Serif" font-size="10.00">cmath</text>
</g>
<!-- Node21&#45;&gt;Node22 -->
<g id="edge29" class="edge"><title>Node21&#45;&gt;Node22</title>
<path fill="none" stroke="midnightblue" d="M988.84,-56.0231C991.599,-55.6728 994.33,-55.33 997,-55 1066.24,-46.4419 1274.57,-22.9945 1354.4,-14.04"/>
<polygon fill="midnightblue" stroke="midnightblue" points="1354.8,-17.5168 1364.35,-12.9242 1354.02,-10.5604 1354.8,-17.5168"/>
</g>
<!-- Node35&#45;&gt;Node6 -->
<g id="edge34" class="edge"><title>Node35&#45;&gt;Node6</title>
<path fill="none" stroke="midnightblue" d="M749.858,-56.0446C746.863,-55.6809 743.895,-55.3301 741,-55 576.721,-36.2703 379.304,-19.2612 304.622,-13.0227"/>
<polygon fill="midnightblue" stroke="midnightblue" points="304.768,-9.52285 294.512,-12.1815 304.188,-16.4987 304.768,-9.52285"/>
</g>
<!-- Node35&#45;&gt;Node8 -->
<g id="edge33" class="edge"><title>Node35&#45;&gt;Node8</title>
<path fill="none" stroke="midnightblue" d="M859.968,-56.0302C862.683,-55.678 865.372,-55.3328 868,-55 999.813,-38.3042 1035.28,-35.4466 1171.2,-19.09"/>
<polygon fill="midnightblue" stroke="midnightblue" points="1171.65,-22.5608 1181.16,-17.8887 1170.82,-15.6111 1171.65,-22.5608"/>
</g>
<!-- Node35&#45;&gt;Node11 -->
<g id="edge35" class="edge"><title>Node35&#45;&gt;Node11</title>
<path fill="none" stroke="midnightblue" d="M859.949,-55.8603C862.669,-55.553 865.364,-55.2639 868,-55 1111.31,-30.6381 1173.43,-40.595 1417,-19 1431.4,-17.7232 1447.3,-15.9947 1460.82,-14.4298"/>
<polygon fill="midnightblue" stroke="midnightblue" points="1461.55,-17.8675 1471.08,-13.2216 1460.74,-10.9156 1461.55,-17.8675"/>
</g>
<!-- Node35&#45;&gt;Node25 -->
<g id="edge32" class="edge"><title>Node35&#45;&gt;Node25</title>
<path fill="none" stroke="midnightblue" d="M782.826,-55.4504C758.386,-46.5784 718.857,-32.2288 691.048,-22.134"/>
<polygon fill="midnightblue" stroke="midnightblue" points="691.977,-18.7477 681.383,-18.6253 689.588,-25.3276 691.977,-18.7477"/>
</g>
<!-- Node43&#45;&gt;Node7 -->
<g id="edge39" class="edge"><title>Node43&#45;&gt;Node7</title>
<path fill="none" stroke="midnightblue" d="M585.753,-56.8412C462.731,-45.6574 218.358,-23.4417 119.258,-14.4325"/>
<polygon fill="midnightblue" stroke="midnightblue" points="119.57,-10.9465 109.294,-13.5267 118.936,-17.9178 119.57,-10.9465"/>
</g>
<!-- Node43&#45;&gt;Node9 -->
<g id="edge40" class="edge"><title>Node43&#45;&gt;Node9</title>
<path fill="none" stroke="midnightblue" d="M727.193,-55.4504C812.886,-45.3353 958.895,-28.1003 1043.04,-18.1681"/>
<polygon fill="midnightblue" stroke="midnightblue" points="1043.46,-21.6423 1052.98,-16.9941 1042.64,-14.6906 1043.46,-21.6423"/>
</g>
<!-- Node43&#45;&gt;Node25 -->
<g id="edge38" class="edge"><title>Node43&#45;&gt;Node25</title>
<path fill="none" stroke="midnightblue" d="M659,-55.2188C659,-48.1769 659,-37.8083 659,-28.8277"/>
<polygon fill="midnightblue" stroke="midnightblue" points="662.5,-28.5495 659,-18.5496 655.5,-28.5496 662.5,-28.5495"/>
</g>
<!-- Node70&#45;&gt;Node6 -->
<g id="edge60" class="edge"><title>Node70&#45;&gt;Node6</title>
<path fill="none" stroke="midnightblue" d="M245.387,-170.343C229.772,-150.03 193.425,-95.877 214,-55 220.83,-41.4302 233.973,-30.9615 246.22,-23.5972"/>
<polygon fill="midnightblue" stroke="midnightblue" points="248.241,-26.4788 255.292,-18.5709 244.849,-20.3557 248.241,-26.4788"/>
</g>
<!-- Node70&#45;&gt;Node24 -->
<g id="edge59" class="edge"><title>Node70&#45;&gt;Node24</title>
<path fill="none" stroke="midnightblue" d="M299.688,-170.467C312.136,-168.521 325.553,-166.555 338,-165 485.919,-146.523 660.472,-132.143 752.24,-125.154"/>
<polygon fill="midnightblue" stroke="midnightblue" points="752.767,-128.624 762.474,-124.379 752.239,-121.644 752.767,-128.624"/>
</g>
<!-- Node71 -->
<g id="node27" class="node"><title>Node71</title>
<g id="a_node27"><a xlink:href="../../db/dc5/Solver_8h.html" target="_top" xlink:title="Declaration file of the Solver class. ">
<polygon fill="white" stroke="red" points="412.2,-110.5 412.2,-128.5 513.8,-128.5 513.8,-110.5 412.2,-110.5"/>
<text text-anchor="middle" x="463" y="-116.5" font-family="Helvetica,sans-Serif" font-size="10.00">ocra/optim/Solver.h</text>
</a>
</g>
</g>
<!-- Node70&#45;&gt;Node71 -->
<g id="edge53" class="edge"><title>Node70&#45;&gt;Node71</title>
<path fill="none" stroke="midnightblue" d="M281.339,-170.435C318.476,-160.227 382.572,-142.608 423.853,-131.261"/>
<polygon fill="midnightblue" stroke="midnightblue" points="424.857,-134.615 433.571,-128.589 423.001,-127.865 424.857,-134.615"/>
</g>
<!-- Node71&#45;&gt;Node5 -->
<g id="edge56" class="edge"><title>Node71&#45;&gt;Node5</title>
<path fill="none" stroke="midnightblue" d="M456.281,-110.219C450.06,-102.551 440.639,-90.9387 432.956,-81.4691"/>
<polygon fill="midnightblue" stroke="midnightblue" points="435.549,-79.11 426.531,-73.5496 430.113,-83.5204 435.549,-79.11"/>
</g>
<!-- Node71&#45;&gt;Node6 -->
<g id="edge57" class="edge"><title>Node71&#45;&gt;Node6</title>
<path fill="none" stroke="midnightblue" d="M428.597,-110.432C402.664,-103.367 366.92,-91.471 339,-74 318.401,-61.1099 299.058,-40.7428 286.918,-26.5628"/>
<polygon fill="midnightblue" stroke="midnightblue" points="289.427,-24.1066 280.343,-18.6555 284.045,-28.5823 289.427,-24.1066"/>
</g>
<!-- Node71&#45;&gt;Node12 -->
<g id="edge58" class="edge"><title>Node71&#45;&gt;Node12</title>
<path fill="none" stroke="midnightblue" d="M434.295,-110.45C398.298,-100.356 337.014,-83.1705 301.561,-73.2289"/>
<polygon fill="midnightblue" stroke="midnightblue" points="302.441,-69.8405 291.867,-70.5104 300.551,-76.5805 302.441,-69.8405"/>
</g>
<!-- Node71&#45;&gt;Node21 -->
<g id="edge54" class="edge"><title>Node71&#45;&gt;Node21</title>
<path fill="none" stroke="midnightblue" d="M513.997,-113.289C589.094,-105.531 734.111,-90.2331 867.194,-74.1976"/>
<polygon fill="midnightblue" stroke="midnightblue" points="867.654,-77.6676 877.162,-72.9925 866.814,-70.7182 867.654,-77.6676"/>
</g>
<!-- Node71&#45;&gt;Node35 -->
<g id="edge55" class="edge"><title>Node71&#45;&gt;Node35</title>
<path fill="none" stroke="midnightblue" d="M513.832,-110.623C574.944,-101.152 677.463,-85.2646 743.12,-75.0896"/>
<polygon fill="midnightblue" stroke="midnightblue" points="743.983,-78.4977 753.329,-73.5075 742.911,-71.5803 743.983,-78.4977"/>
</g>
<!-- Node87&#45;&gt;Node3 -->
<g id="edge62" class="edge"><title>Node87&#45;&gt;Node3</title>
<path fill="none" stroke="midnightblue" d="M2752.4,-290.204C2746.26,-260.739 2721.45,-160.209 2660,-110 2629.51,-85.0855 2586.34,-74.0325 2551.67,-69.1705"/>
<polygon fill="midnightblue" stroke="midnightblue" points="2552.03,-65.6884 2541.67,-67.9043 2551.15,-72.633 2552.03,-65.6884"/>
</g>
<!-- Node87&#45;&gt;Node13 -->
<g id="edge63" class="edge"><title>Node87&#45;&gt;Node13</title>
<path fill="none" stroke="midnightblue" d="M2674.26,-295.351C2600.32,-292.479 2487.24,-288.206 2389,-285 1799.6,-265.763 1085.8,-247.329 876.429,-242.021"/>
<polygon fill="midnightblue" stroke="midnightblue" points="876.345,-238.517 866.26,-241.763 876.168,-245.515 876.345,-238.517"/>
</g>
<!-- Node87&#45;&gt;Node16 -->
<g id="edge64" class="edge"><title>Node87&#45;&gt;Node16</title>
<path fill="none" stroke="midnightblue" d="M2812.68,-290.5C2943.74,-271.156 3252.38,-216.859 3299,-129 3326.23,-77.6787 3244.03,-39.7074 3193.49,-21.8524"/>
<polygon fill="midnightblue" stroke="midnightblue" points="3194.44,-18.4782 3183.84,-18.5516 3192.17,-25.1011 3194.44,-18.4782"/>
</g>
<!-- Node87&#45;&gt;Node98 -->
<g id="edge65" class="edge"><title>Node87&#45;&gt;Node98</title>
<path fill="none" stroke="midnightblue" d="M2817.23,-290.489C2890.6,-281.079 3015.18,-264.748 3122,-249 3123.11,-248.837 3124.23,-248.67 3125.35,-248.501"/>
<polygon fill="midnightblue" stroke="midnightblue" points="3126.3,-251.897 3135.66,-246.924 3125.24,-244.978 3126.3,-251.897"/>
</g>
<!-- Node102&#45;&gt;Node1 -->
<g id="edge72" class="edge"><title>Node102&#45;&gt;Node1</title>
<path fill="none" stroke="midnightblue" d="M2288.65,-420.053C2317.34,-413.259 2348.6,-401.023 2370,-379 2399.71,-348.435 2414.76,-318.959 2389,-285 2377.15,-269.381 1796.79,-115.919 1642.39,-75.3142"/>
<polygon fill="midnightblue" stroke="midnightblue" points="1643,-71.8544 1632.44,-72.697 1641.22,-78.6244 1643,-71.8544"/>
</g>
<!-- Node102&#45;&gt;Node3 -->
<g id="edge81" class="edge"><title>Node102&#45;&gt;Node3</title>
<path fill="none" stroke="midnightblue" d="M2288.54,-427.722C2436.67,-425.366 2766.03,-415.981 2800,-379 2808.72,-369.508 2808.42,-359.756 2800,-350 2728.37,-267.024 2651.76,-367.348 2556,-314 2518.67,-293.201 2494,-283.237 2494,-240.5 2494,-240.5 2494,-240.5 2494,-178.5 2494,-145.088 2494,-106.119 2494,-83.775"/>
<polygon fill="midnightblue" stroke="midnightblue" points="2497.5,-83.7235 2494,-73.7235 2490.5,-83.7235 2497.5,-83.7235"/>
</g>
<!-- Node102&#45;&gt;Node4 -->
<g id="edge80" class="edge"><title>Node102&#45;&gt;Node4</title>
<path fill="none" stroke="midnightblue" d="M2145.48,-427.588C1956.17,-424.747 1426.39,-414.034 987,-379 973.053,-377.888 958.176,-376.358 943.951,-374.727"/>
<polygon fill="midnightblue" stroke="midnightblue" points="944.07,-371.217 933.73,-373.526 943.253,-378.169 944.07,-371.217"/>
</g>
<!-- Node102&#45;&gt;Node6 -->
<g id="edge74" class="edge"><title>Node102&#45;&gt;Node6</title>
<path fill="none" stroke="midnightblue" d="M2145.59,-427.853C1876.71,-425.162 934.007,-413.347 804,-379 667.562,-342.954 316.931,-196.574 247,-74 238.137,-58.4654 248.795,-39.453 259.219,-26.3027"/>
<polygon fill="midnightblue" stroke="midnightblue" points="261.97,-28.4708 265.828,-18.6031 256.659,-23.9116 261.97,-28.4708"/>
</g>
<!-- Node102&#45;&gt;Node11 -->
<g id="edge76" class="edge"><title>Node102&#45;&gt;Node11</title>
<path fill="none" stroke="midnightblue" d="M2145.25,-425.995C1929.54,-418.296 1300.76,-394.562 1286,-379 1277.13,-369.647 1281.76,-362.171 1286,-350 1337.54,-202.133 1453.46,-221.867 1505,-74 1510.25,-58.9361 1505.97,-41.0166 1501.12,-28.0607"/>
<polygon fill="midnightblue" stroke="midnightblue" points="1504.21,-26.3824 1497.11,-18.5168 1497.76,-29.0921 1504.21,-26.3824"/>
</g>
<!-- Node102&#45;&gt;Node14 -->
<g id="edge82" class="edge"><title>Node102&#45;&gt;Node14</title>
<path fill="none" stroke="midnightblue" d="M2145.46,-426.135C1924.74,-418.674 1268.36,-395.165 1253,-379 1221.44,-345.781 1269.89,-334.864 1312,-249 1340.95,-189.981 1367.97,-116.659 1379.77,-83.3979"/>
<polygon fill="midnightblue" stroke="midnightblue" points="1383.15,-84.3271 1383.17,-73.7323 1376.55,-82.0051 1383.15,-84.3271"/>
</g>
<!-- Node102&#45;&gt;Node24 -->
<g id="edge79" class="edge"><title>Node102&#45;&gt;Node24</title>
<path fill="none" stroke="midnightblue" d="M2145.58,-426.447C1907.89,-419.462 1157.54,-396.095 1139,-379 1108.04,-350.45 1150.98,-319.626 1127,-285 1063.87,-193.82 933.84,-149.229 863.57,-131.008"/>
<polygon fill="midnightblue" stroke="midnightblue" points="864.203,-127.558 853.651,-128.508 862.492,-134.346 864.203,-127.558"/>
</g>
<!-- Node102&#45;&gt;Node22 -->
<g id="edge77" class="edge"><title>Node102&#45;&gt;Node22</title>
<path fill="none" stroke="midnightblue" d="M2288.52,-427.326C2430.13,-424.256 2735.33,-413.653 2767,-379 2775.7,-369.486 2775.47,-359.719 2767,-350 2728.69,-306.018 2561.6,-334.529 2507,-314 2456.46,-294.997 2304,-234.492 2304,-180.5 2304,-180.5 2304,-180.5 2304,-118.5 2304,-115.651 1580.44,-32.7355 1418.07,-14.1658"/>
<polygon fill="midnightblue" stroke="midnightblue" points="1418.12,-10.6483 1407.79,-12.9895 1417.32,-17.603 1418.12,-10.6483"/>
</g>
<!-- Node103 -->
<g id="node32" class="node"><title>Node103</title>
<polygon fill="white" stroke="#bfbfbf" points="2324.27,-290.5 2324.27,-308.5 2379.73,-308.5 2379.73,-290.5 2324.27,-290.5"/>
<text text-anchor="middle" x="2352" y="-296.5" font-family="Helvetica,sans-Serif" font-size="10.00">tinyxml.h</text>
</g>
<!-- Node102&#45;&gt;Node103 -->
<g id="edge73" class="edge"><title>Node102&#45;&gt;Node103</title>
<path fill="none" stroke="midnightblue" d="M2288.64,-418.642C2312.41,-411.601 2336.48,-399.562 2351,-379 2363.38,-361.465 2360.91,-335.793 2357.17,-318.633"/>
<polygon fill="midnightblue" stroke="midnightblue" points="2360.52,-317.595 2354.67,-308.758 2353.73,-319.31 2360.52,-317.595"/>
</g>
<!-- Node64 -->
<g id="node33" class="node"><title>Node64</title>
<polygon fill="white" stroke="#bfbfbf" points="2436.22,-355.5 2436.22,-373.5 2487.78,-373.5 2487.78,-355.5 2436.22,-355.5"/>
<text text-anchor="middle" x="2462" y="-361.5" font-family="Helvetica,sans-Serif" font-size="10.00">sstream</text>
</g>
<!-- Node102&#45;&gt;Node64 -->
<g id="edge75" class="edge"><title>Node102&#45;&gt;Node64</title>
<path fill="none" stroke="midnightblue" d="M2277.02,-415.481C2318.08,-406.214 2373.63,-392.971 2422,-379 2424.46,-378.288 2427,-377.519 2429.55,-376.72"/>
<polygon fill="midnightblue" stroke="midnightblue" points="2430.84,-379.982 2439.26,-373.562 2428.67,-373.325 2430.84,-379.982"/>
</g>
<!-- Node104 -->
<g id="node34" class="node"><title>Node104</title>
<polygon fill="white" stroke="#bfbfbf" points="2505.42,-355.5 2505.42,-373.5 2612.58,-373.5 2612.58,-355.5 2505.42,-355.5"/>
<text text-anchor="middle" x="2559" y="-361.5" font-family="Helvetica,sans-Serif" font-size="10.00">boost/filesystem.hpp</text>
</g>
<!-- Node102&#45;&gt;Node104 -->
<g id="edge78" class="edge"><title>Node102&#45;&gt;Node104</title>
<path fill="none" stroke="midnightblue" d="M2288.5,-416.659C2345.16,-407.083 2426.29,-392.943 2497,-379 2502.34,-377.948 2507.92,-376.799 2513.46,-375.631"/>
<polygon fill="midnightblue" stroke="midnightblue" points="2514.27,-379.037 2523.31,-373.522 2512.8,-372.192 2514.27,-379.037"/>
</g>
<!-- Node105 -->
<g id="node35" class="node"><title>Node105</title>
<g id="a_node35"><a xlink:href="../../df/dfd/EigenUtilities_8h.html" target="_top" xlink:title="ocra/util/EigenUtilities.h">
<polygon fill="white" stroke="black" points="2806.03,-230.5 2806.03,-248.5 2925.97,-248.5 2925.97,-230.5 2806.03,-230.5"/>
<text text-anchor="middle" x="2866" y="-236.5" font-family="Helvetica,sans-Serif" font-size="10.00">ocra/util/EigenUtilities.h</text>
</a>
</g>
</g>
<!-- Node102&#45;&gt;Node105 -->
<g id="edge83" class="edge"><title>Node102&#45;&gt;Node105</title>
<path fill="none" stroke="midnightblue" d="M2288.57,-426.907C2442.39,-422.9 2794.21,-410.382 2838,-379 2875.48,-352.138 2873.02,-290.045 2869.06,-258.946"/>
<polygon fill="midnightblue" stroke="midnightblue" points="2872.47,-258.067 2867.55,-248.683 2865.54,-259.086 2872.47,-258.067"/>
</g>
<!-- Node106 -->
<g id="node36" class="node"><title>Node106</title>
<g id="a_node36"><a xlink:href="../../d5/da8/XmlUtilities_8h.html" target="_top" xlink:title="ocra/util/XmlUtilities.h">
<polygon fill="white" stroke="black" points="2230.21,-355.5 2230.21,-373.5 2341.79,-373.5 2341.79,-355.5 2230.21,-355.5"/>
<text text-anchor="middle" x="2286" y="-361.5" font-family="Helvetica,sans-Serif" font-size="10.00">ocra/util/XmlUtilities.h</text>
</a>
</g>
</g>
<!-- Node102&#45;&gt;Node106 -->
<g id="edge87" class="edge"><title>Node102&#45;&gt;Node106</title>
<path fill="none" stroke="midnightblue" d="M2231.3,-415.446C2242.35,-405.354 2257.68,-391.36 2269.3,-380.752"/>
<polygon fill="midnightblue" stroke="midnightblue" points="2271.96,-383.058 2276.99,-373.73 2267.24,-377.888 2271.96,-383.058"/>
</g>
<!-- Node107 -->
<g id="node37" class="node"><title>Node107</title>
<g id="a_node37"><a xlink:href="../../d2/d1d/TaskBuilderOptions_8h.html" target="_top" xlink:title="ocra/control/TaskBuilders\l/TaskBuilderOptions.h">
<polygon fill="white" stroke="red" points="2860.14,-165.5 2860.14,-193.5 2987.86,-193.5 2987.86,-165.5 2860.14,-165.5"/>
<text text-anchor="start" x="2868.14" y="-181.5" font-family="Helvetica,sans-Serif" font-size="10.00">ocra/control/TaskBuilders</text>
<text text-anchor="middle" x="2924" y="-171.5" font-family="Helvetica,sans-Serif" font-size="10.00">/TaskBuilderOptions.h</text>
</a>
</g>
</g>
<!-- Node102&#45;&gt;Node107 -->
<g id="edge90" class="edge"><title>Node102&#45;&gt;Node107</title>
<path fill="none" stroke="midnightblue" d="M2288.65,-426.842C2447.02,-422.635 2816.6,-409.625 2864,-379 2919.3,-343.273 2918.72,-312.788 2935,-249 2938.83,-233.99 2936.04,-216.772 2932.31,-203.353"/>
<polygon fill="midnightblue" stroke="midnightblue" points="2935.56,-202.015 2929.22,-193.521 2928.88,-204.11 2935.56,-202.015"/>
</g>
<!-- Node108 -->
<g id="node39" class="node"><title>Node108</title>
<g id="a_node39"><a xlink:href="../../d3/dc1/TaskBuilder_8h.html" target="_top" xlink:title="ocra/control/TaskBuilders\l/TaskBuilder.h">
<polygon fill="white" stroke="red" points="1858.14,-285.5 1858.14,-313.5 1985.86,-313.5 1985.86,-285.5 1858.14,-285.5"/>
<text text-anchor="start" x="1866.14" y="-301.5" font-family="Helvetica,sans-Serif" font-size="10.00">ocra/control/TaskBuilders</text>
<text text-anchor="middle" x="1922" y="-291.5" font-family="Helvetica,sans-Serif" font-size="10.00">/TaskBuilder.h</text>
</a>
</g>
</g>
<!-- Node102&#45;&gt;Node108 -->
<g id="edge95" class="edge"><title>Node102&#45;&gt;Node108</title>
<path fill="none" stroke="midnightblue" d="M2167.41,-415.428C2139.37,-407.016 2104.2,-394.711 2075,-379 2056.29,-368.933 2055.34,-360.725 2037,-350 2015.28,-337.297 1989.68,-325.96 1968.16,-317.351"/>
<polygon fill="midnightblue" stroke="midnightblue" points="1969.18,-313.99 1958.59,-313.593 1966.62,-320.506 1969.18,-313.99"/>
</g>
<!-- Node109 -->
<g id="node40" class="node"><title>Node109</title>
<g id="a_node40"><a xlink:href="../../da/db2/CartesianTaskBuilder_8h.html" target="_top" xlink:title="ocra/control/TaskBuilders\l/CartesianTaskBuilder.h">
<polygon fill="white" stroke="black" points="2084.14,-350.5 2084.14,-378.5 2211.86,-378.5 2211.86,-350.5 2084.14,-350.5"/>
<text text-anchor="start" x="2092.14" y="-366.5" font-family="Helvetica,sans-Serif" font-size="10.00">ocra/control/TaskBuilders</text>
<text text-anchor="middle" x="2148" y="-356.5" font-family="Helvetica,sans-Serif" font-size="10.00">/CartesianTaskBuilder.h</text>
</a>
</g>
</g>
<!-- Node102&#45;&gt;Node109 -->
<g id="edge102" class="edge"><title>Node102&#45;&gt;Node109</title>
<path fill="none" stroke="midnightblue" d="M2202.7,-415.446C2193.17,-406.746 2180.47,-395.146 2169.7,-385.316"/>
<polygon fill="midnightblue" stroke="midnightblue" points="2172.02,-382.695 2162.28,-378.537 2167.3,-387.864 2172.02,-382.695"/>
</g>
<!-- Node110 -->
<g id="node41" class="node"><title>Node110</title>
<g id="a_node41"><a xlink:href="../../d4/d7b/PoseTaskBuilder_8h.html" target="_top" xlink:title="ocra/control/TaskBuilders\l/PoseTaskBuilder.h">
<polygon fill="white" stroke="black" points="2630.14,-350.5 2630.14,-378.5 2757.86,-378.5 2757.86,-350.5 2630.14,-350.5"/>
<text text-anchor="start" x="2638.14" y="-366.5" font-family="Helvetica,sans-Serif" font-size="10.00">ocra/control/TaskBuilders</text>
<text text-anchor="middle" x="2694" y="-356.5" font-family="Helvetica,sans-Serif" font-size="10.00">/PoseTaskBuilder.h</text>
</a>
</g>
</g>
<!-- Node102&#45;&gt;Node110 -->
<g id="edge104" class="edge"><title>Node102&#45;&gt;Node110</title>
<path fill="none" stroke="midnightblue" d="M2288.52,-421.152C2367.38,-412.737 2498.22,-397.846 2619.81,-379.284"/>
<polygon fill="midnightblue" stroke="midnightblue" points="2620.69,-382.69 2630.05,-377.71 2619.63,-375.772 2620.69,-382.69"/>
</g>
<!-- Node111 -->
<g id="node42" class="node"><title>Node111</title>
<g id="a_node42"><a xlink:href="../../d1/df8/OrientationTaskBuilder_8h.html" target="_top" xlink:title="ocra/control/TaskBuilders\l/OrientationTaskBuilder.h">
<polygon fill="white" stroke="black" points="1295.14,-350.5 1295.14,-378.5 1422.86,-378.5 1422.86,-350.5 1295.14,-350.5"/>
<text text-anchor="start" x="1303.14" y="-366.5" font-family="Helvetica,sans-Serif" font-size="10.00">ocra/control/TaskBuilders</text>
<text text-anchor="middle" x="1359" y="-356.5" font-family="Helvetica,sans-Serif" font-size="10.00">/OrientationTaskBuilder.h</text>
</a>
</g>
</g>
<!-- Node102&#45;&gt;Node111 -->
<g id="edge107" class="edge"><title>Node102&#45;&gt;Node111</title>
<path fill="none" stroke="midnightblue" d="M2145.57,-426.86C2009.01,-423.101 1701.36,-411.62 1432.96,-379.008"/>
<polygon fill="midnightblue" stroke="midnightblue" points="1433.38,-375.533 1423.03,-377.789 1432.53,-382.481 1433.38,-375.533"/>
</g>
<!-- Node112 -->
<g id="node43" class="node"><title>Node112</title>
<g id="a_node43"><a xlink:href="../../de/d08/ComTaskBuilder_8h.html" target="_top" xlink:title="ocra/control/TaskBuilders\l/ComTaskBuilder.h">
<polygon fill="white" stroke="black" points="1441.14,-350.5 1441.14,-378.5 1568.86,-378.5 1568.86,-350.5 1441.14,-350.5"/>
<text text-anchor="start" x="1449.14" y="-366.5" font-family="Helvetica,sans-Serif" font-size="10.00">ocra/control/TaskBuilders</text>
<text text-anchor="middle" x="1505" y="-356.5" font-family="Helvetica,sans-Serif" font-size="10.00">/ComTaskBuilder.h</text>
</a>
</g>
</g>
<!-- Node102&#45;&gt;Node112 -->
<g id="edge109" class="edge"><title>Node102&#45;&gt;Node112</title>
<path fill="none" stroke="midnightblue" d="M2145.35,-425.42C2028.74,-419.864 1790.53,-406.246 1579.08,-379.043"/>
<polygon fill="midnightblue" stroke="midnightblue" points="1579.4,-375.555 1569.03,-377.737 1578.5,-382.497 1579.4,-375.555"/>
</g>
<!-- Node113 -->
<g id="node44" class="node"><title>Node113</title>
<g id="a_node44"><a xlink:href="../../dc/d87/FullPostureTaskBuilder_8h.html" target="_top" xlink:title="ocra/control/TaskBuilders\l/FullPostureTaskBuilder.h">
<polygon fill="white" stroke="black" points="1586.58,-350.5 1586.58,-378.5 1715.42,-378.5 1715.42,-350.5 1586.58,-350.5"/>
<text text-anchor="start" x="1594.58" y="-366.5" font-family="Helvetica,sans-Serif" font-size="10.00">ocra/control/TaskBuilders</text>
<text text-anchor="middle" x="1651" y="-356.5" font-family="Helvetica,sans-Serif" font-size="10.00">/FullPostureTaskBuilder.h</text>
</a>
</g>
</g>
<!-- Node102&#45;&gt;Node113 -->
<g id="edge111" class="edge"><title>Node102&#45;&gt;Node113</title>
<path fill="none" stroke="midnightblue" d="M2145.34,-423.176C2051.26,-415.769 1880.77,-400.911 1725.63,-379.159"/>
<polygon fill="midnightblue" stroke="midnightblue" points="1725.83,-375.652 1715.44,-377.716 1724.85,-382.583 1725.83,-375.652"/>
</g>
<!-- Node114 -->
<g id="node45" class="node"><title>Node114</title>
<g id="a_node45"><a xlink:href="../../d5/d81/PartialPostureTaskBuilder_8h.html" target="_top" xlink:title="ocra/control/TaskBuilders\l/PartialPostureTaskBuilder.h">
<polygon fill="white" stroke="black" points="1733.47,-350.5 1733.47,-378.5 1874.53,-378.5 1874.53,-350.5 1733.47,-350.5"/>
<text text-anchor="start" x="1741.47" y="-366.5" font-family="Helvetica,sans-Serif" font-size="10.00">ocra/control/TaskBuilders</text>
<text text-anchor="middle" x="1804" y="-356.5" font-family="Helvetica,sans-Serif" font-size="10.00">/PartialPostureTaskBuilder.h</text>
</a>
</g>
</g>
<!-- Node102&#45;&gt;Node114 -->
<g id="edge113" class="edge"><title>Node102&#45;&gt;Node114</title>
<path fill="none" stroke="midnightblue" d="M2145.59,-418.383C2080.22,-409.016 1980.55,-394.465 1884.77,-379.264"/>
<polygon fill="midnightblue" stroke="midnightblue" points="1885.05,-375.764 1874.62,-377.648 1883.95,-382.677 1885.05,-375.764"/>
</g>
<!-- Node115 -->
<g id="node46" class="node"><title>Node115</title>
<g id="a_node46"><a xlink:href="../../d2/d1a/PointContactTaskBuilder_8h.html" target="_top" xlink:title="ocra/control/TaskBuilders\l/PointContactTaskBuilder.h">
<polygon fill="white" stroke="black" points="1892.24,-350.5 1892.24,-378.5 2027.76,-378.5 2027.76,-350.5 1892.24,-350.5"/>
<text text-anchor="start" x="1900.24" y="-366.5" font-family="Helvetica,sans-Serif" font-size="10.00">ocra/control/TaskBuilders</text>
<text text-anchor="middle" x="1960" y="-356.5" font-family="Helvetica,sans-Serif" font-size="10.00">/PointContactTaskBuilder.h</text>
</a>
</g>
</g>
<!-- Node102&#45;&gt;Node115 -->
<g id="edge115" class="edge"><title>Node102&#45;&gt;Node115</title>
<path fill="none" stroke="midnightblue" d="M2163.75,-415.446C2122.83,-405.415 2066.19,-391.531 2023.01,-380.947"/>
<polygon fill="midnightblue" stroke="midnightblue" points="2023.73,-377.519 2013.18,-378.537 2022.06,-384.317 2023.73,-377.519"/>
</g>
<!-- Node105&#45;&gt;Node11 -->
<g id="edge86" class="edge"><title>Node105&#45;&gt;Node11</title>
<path fill="none" stroke="midnightblue" d="M2857.1,-230.407C2821.72,-198.924 2686.33,-84.8826 2550,-55 2347.42,-10.5962 1679.71,-9.90461 1525.14,-10.3583"/>
<polygon fill="midnightblue" stroke="midnightblue" points="1524.9,-6.85901 1514.91,-10.3924 1524.92,-13.859 1524.9,-6.85901"/>
</g>
<!-- Node105&#45;&gt;Node16 -->
<g id="edge84" class="edge"><title>Node105&#45;&gt;Node16</title>
<path fill="none" stroke="midnightblue" d="M2926.3,-239.091C3009.28,-238.468 3152.15,-231.754 3185,-194 3206.36,-169.452 3176.59,-69.4371 3163.07,-28.3009"/>
<polygon fill="midnightblue" stroke="midnightblue" points="3166.38,-27.1509 3159.89,-18.7793 3159.74,-29.3731 3166.38,-27.1509"/>
</g>
<!-- Node105&#45;&gt;Node23 -->
<g id="edge85" class="edge"><title>Node105&#45;&gt;Node23</title>
<path fill="none" stroke="midnightblue" d="M2861.56,-230.183C2854.8,-216.39 2843.46,-188.021 2851,-165 2862.1,-131.099 2889.64,-99.2067 2907.54,-81.0504"/>
<polygon fill="midnightblue" stroke="midnightblue" points="2910.32,-83.2258 2914.99,-73.717 2905.41,-78.2364 2910.32,-83.2258"/>
</g>
<!-- Node106&#45;&gt;Node11 -->
<g id="edge89" class="edge"><title>Node106&#45;&gt;Node11</title>
<path fill="none" stroke="midnightblue" d="M2288.37,-355.481C2292.77,-341.026 2302.86,-309.794 2315,-285 2339.04,-235.873 2380,-235.196 2380,-180.5 2380,-180.5 2380,-180.5 2380,-118.5 2380,-79.0563 2353.92,-71.2857 2318,-55 2244.87,-21.8475 1668.5,-12.6453 1525.18,-10.8595"/>
<polygon fill="midnightblue" stroke="midnightblue" points="1524.92,-7.35617 1514.88,-10.7347 1524.83,-14.3557 1524.92,-7.35617"/>
</g>
<!-- Node106&#45;&gt;Node103 -->
<g id="edge88" class="edge"><title>Node106&#45;&gt;Node103</title>
<path fill="none" stroke="midnightblue" d="M2294.63,-355.264C2305.16,-345.21 2323.18,-328.012 2336.22,-315.567"/>
<polygon fill="midnightblue" stroke="midnightblue" points="2338.76,-317.976 2343.58,-308.539 2333.93,-312.912 2338.76,-317.976"/>
</g>
<!-- Node107&#45;&gt;Node3 -->
<g id="edge93" class="edge"><title>Node107&#45;&gt;Node3</title>
<path fill="none" stroke="midnightblue" d="M2888.51,-165.445C2847.23,-150.596 2776.85,-126.301 2715,-110 2660.23,-95.5635 2596.75,-83.2275 2551.92,-75.231"/>
<polygon fill="midnightblue" stroke="midnightblue" points="2552.25,-71.7356 2541.79,-73.4424 2551.03,-78.6288 2552.25,-71.7356"/>
</g>
<!-- Node107&#45;&gt;Node16 -->
<g id="edge91" class="edge"><title>Node107&#45;&gt;Node16</title>
<path fill="none" stroke="midnightblue" d="M2942.28,-165.317C2985.44,-134.2 3093.33,-56.4054 3137.59,-24.4937"/>
<polygon fill="midnightblue" stroke="midnightblue" points="3139.73,-27.2693 3145.79,-18.5817 3135.63,-21.5913 3139.73,-27.2693"/>
</g>
<!-- Node107&#45;&gt;Node23 -->
<g id="edge92" class="edge"><title>Node107&#45;&gt;Node23</title>
<path fill="none" stroke="midnightblue" d="M2924,-165.094C2924,-144.889 2924,-106.581 2924,-83.8169"/>
<polygon fill="midnightblue" stroke="midnightblue" points="2927.5,-83.7719 2924,-73.772 2920.5,-83.772 2927.5,-83.7719"/>
</g>
<!-- Node107&#45;&gt;Node49 -->
<g id="edge94" class="edge"><title>Node107&#45;&gt;Node49</title>
<path fill="none" stroke="midnightblue" d="M2988.2,-166.972C3048.47,-156.149 3137.57,-140.15 3193.93,-130.029"/>
<polygon fill="midnightblue" stroke="midnightblue" points="3194.83,-133.423 3204.06,-128.211 3193.6,-126.533 3194.83,-133.423"/>
</g>
<!-- Node108&#45;&gt;Node3 -->
<g id="edge100" class="edge"><title>Node108&#45;&gt;Node3</title>
<path fill="none" stroke="midnightblue" d="M1964.05,-285.493C1994.07,-275.975 2035.28,-262.43 2071,-249 2199.64,-200.632 2230.22,-184.399 2356,-129 2395.12,-111.768 2440.03,-90.9 2467.71,-77.9087"/>
<polygon fill="midnightblue" stroke="midnightblue" points="2469.52,-80.9226 2477.08,-73.5002 2466.55,-74.5879 2469.52,-80.9226"/>
</g>
<!-- Node108&#45;&gt;Node13 -->
<g id="edge98" class="edge"><title>Node108&#45;&gt;Node13</title>
<path fill="none" stroke="midnightblue" d="M1857.76,-295.131C1660.83,-284.804 1067.43,-253.685 876.136,-243.654"/>
<polygon fill="midnightblue" stroke="midnightblue" points="876.16,-240.15 865.991,-243.122 875.794,-247.141 876.16,-240.15"/>
</g>
<!-- Node108&#45;&gt;Node18 -->
<g id="edge99" class="edge"><title>Node108&#45;&gt;Node18</title>
<path fill="none" stroke="midnightblue" d="M1857.99,-288.388C1715.79,-265.925 1375.18,-212.122 1235.91,-190.122"/>
<polygon fill="midnightblue" stroke="midnightblue" points="1236.27,-186.635 1225.84,-188.531 1235.17,-193.549 1236.27,-186.635"/>
</g>
<!-- Node108&#45;&gt;Node24 -->
<g id="edge97" class="edge"><title>Node108&#45;&gt;Node24</title>
<path fill="none" stroke="midnightblue" d="M1857.96,-291.451C1775.22,-282.239 1626.75,-265.346 1500,-249 1325.95,-226.554 1279.38,-236.017 1109,-194 1071.87,-184.845 1064.8,-175.396 1028,-165 976.402,-150.422 916.523,-138.28 873.59,-130.381"/>
<polygon fill="midnightblue" stroke="midnightblue" points="874.069,-126.911 863.604,-128.565 872.816,-133.798 874.069,-126.911"/>
</g>
<!-- Node108&#45;&gt;Node105 -->
<g id="edge101" class="edge"><title>Node108&#45;&gt;Node105</title>
<path fill="none" stroke="midnightblue" d="M1986.14,-294.559C2156.32,-284.103 2618.33,-255.717 2795.52,-244.831"/>
<polygon fill="midnightblue" stroke="midnightblue" points="2796,-248.308 2805.76,-244.201 2795.57,-241.321 2796,-248.308"/>
</g>
<!-- Node108&#45;&gt;Node107 -->
<g id="edge96" class="edge"><title>Node108&#45;&gt;Node107</title>
<path fill="none" stroke="midnightblue" d="M1985.99,-291.332C2070.66,-281.818 2224.57,-264.42 2356,-249 2533.28,-228.201 2741.55,-202.849 2849.96,-189.584"/>
<polygon fill="midnightblue" stroke="midnightblue" points="2850.63,-193.028 2860.13,-188.339 2849.78,-186.08 2850.63,-193.028"/>
</g>
<!-- Node109&#45;&gt;Node108 -->
<g id="edge103" class="edge"><title>Node109&#45;&gt;Node108</title>
<path fill="none" stroke="midnightblue" d="M2101.17,-350.446C2065.57,-340.521 2016.43,-326.823 1978.62,-316.282"/>
<polygon fill="midnightblue" stroke="midnightblue" points="1979.34,-312.851 1968.77,-313.537 1977.46,-319.594 1979.34,-312.851"/>
</g>
<!-- Node110&#45;&gt;Node105 -->
<g id="edge106" class="edge"><title>Node110&#45;&gt;Node105</title>
<path fill="none" stroke="midnightblue" d="M2757.93,-355.771C2787.32,-349.146 2820.55,-336.844 2843,-314 2857.62,-299.123 2862.96,-275.084 2864.91,-258.574"/>
<polygon fill="midnightblue" stroke="midnightblue" points="2868.4,-258.818 2865.78,-248.551 2861.42,-258.209 2868.4,-258.818"/>
</g>
<!-- Node110&#45;&gt;Node108 -->
<g id="edge105" class="edge"><title>Node110&#45;&gt;Node108</title>
<path fill="none" stroke="midnightblue" d="M2630.07,-351.119C2627.35,-350.717 2624.65,-350.341 2622,-350 2394.94,-320.783 2124.06,-307.788 1996.03,-302.942"/>
<polygon fill="midnightblue" stroke="midnightblue" points="1996.07,-299.441 1985.94,-302.566 1995.81,-306.436 1996.07,-299.441"/>
</g>
<!-- Node111&#45;&gt;Node108 -->
<g id="edge108" class="edge"><title>Node111&#45;&gt;Node108</title>
<path fill="none" stroke="midnightblue" d="M1423.05,-351.348C1426.07,-350.871 1429.07,-350.419 1432,-350 1510.26,-338.83 1731.13,-317.969 1847.75,-307.246"/>
<polygon fill="midnightblue" stroke="midnightblue" points="1848.38,-310.703 1858.02,-306.303 1847.74,-303.732 1848.38,-310.703"/>
</g>
<!-- Node112&#45;&gt;Node108 -->
<g id="edge110" class="edge"><title>Node112&#45;&gt;Node108</title>
<path fill="none" stroke="midnightblue" d="M1569.07,-351.502C1572.09,-350.984 1575.07,-350.481 1578,-350 1670.78,-334.752 1778.08,-319.725 1847.83,-310.301"/>
<polygon fill="midnightblue" stroke="midnightblue" points="1848.4,-313.756 1857.85,-308.951 1847.47,-306.818 1848.4,-313.756"/>
</g>
<!-- Node113&#45;&gt;Node108 -->
<g id="edge112" class="edge"><title>Node113&#45;&gt;Node108</title>
<path fill="none" stroke="midnightblue" d="M1707.15,-350.446C1750.48,-340.373 1810.53,-326.414 1856.13,-315.813"/>
<polygon fill="midnightblue" stroke="midnightblue" points="1856.97,-319.21 1865.92,-313.537 1855.39,-312.392 1856.97,-319.21"/>
</g>
<!-- Node114&#45;&gt;Node108 -->
<g id="edge114" class="edge"><title>Node114&#45;&gt;Node108</title>
<path fill="none" stroke="midnightblue" d="M1828.45,-350.446C1845.85,-341.154 1869.45,-328.556 1888.59,-318.337"/>
<polygon fill="midnightblue" stroke="midnightblue" points="1890.41,-321.334 1897.58,-313.537 1887.11,-315.159 1890.41,-321.334"/>
</g>
<!-- Node115&#45;&gt;Node108 -->
<g id="edge116" class="edge"><title>Node115&#45;&gt;Node108</title>
<path fill="none" stroke="midnightblue" d="M1952.13,-350.446C1947.24,-342.337 1940.82,-331.71 1935.18,-322.343"/>
<polygon fill="midnightblue" stroke="midnightblue" points="1938.03,-320.292 1929.86,-313.537 1932.03,-323.908 1938.03,-320.292"/>
</g>
<!-- Node116&#45;&gt;Node1 -->
<g id="edge121" class="edge"><title>Node116&#45;&gt;Node1</title>
<path fill="none" stroke="midnightblue" d="M894.287,-420.444C977.235,-396.768 1216.15,-328.177 1250,-314 1305.23,-290.869 1315.93,-278.566 1368,-249 1410.09,-225.099 1421.66,-220.75 1462,-194 1502.23,-167.326 1513.52,-161.719 1549,-129 1565.13,-114.124 1581.5,-95.0021 1592.33,-81.646"/>
<polygon fill="midnightblue" stroke="midnightblue" points="1595.09,-83.8017 1598.6,-73.8044 1589.62,-79.4321 1595.09,-83.8017"/>
</g>
<!-- Node116&#45;&gt;Node2 -->
<g id="edge122" class="edge"><title>Node116&#45;&gt;Node2</title>
<path fill="none" stroke="midnightblue" d="M907.597,-420.497C954.521,-411.285 1033.03,-395.316 1100,-379 1147.04,-367.54 1158.25,-362.597 1205,-350 1265.79,-333.62 1281.44,-331.191 1342,-314 1437.21,-286.973 1461.1,-280.297 1555,-249 1795.35,-168.89 1844.25,-112.418 2091,-55 2223.7,-24.1205 2386.13,-14.4969 2457.46,-11.6394"/>
<polygon fill="midnightblue" stroke="midnightblue" points="2457.85,-15.1273 2467.71,-11.2509 2457.58,-8.13231 2457.85,-15.1273"/>
</g>
<!-- Node116&#45;&gt;Node4 -->
<g id="edge123" class="edge"><title>Node116&#45;&gt;Node4</title>
<path fill="none" stroke="midnightblue" d="M867.046,-420.264C868.226,-410.969 870.182,-395.567 871.719,-383.461"/>
<polygon fill="midnightblue" stroke="midnightblue" points="875.191,-383.9 872.979,-373.539 868.247,-383.018 875.191,-383.9"/>
</g>
<!-- Node116&#45;&gt;Node6 -->
<g id="edge119" class="edge"><title>Node116&#45;&gt;Node6</title>
<path fill="none" stroke="midnightblue" d="M803.086,-425.399C609.86,-415.044 38,-377.865 38,-300.5 38,-300.5 38,-300.5 38,-118.5 38,-29.2644 179.238,-13.4608 243.189,-10.8789"/>
<polygon fill="midnightblue" stroke="midnightblue" points="243.586,-14.3681 253.469,-10.5519 243.363,-7.37165 243.586,-14.3681"/>
</g>
<!-- Node116&#45;&gt;Node11 -->
<g id="edge120" class="edge"><title>Node116&#45;&gt;Node11</title>
<path fill="none" stroke="midnightblue" d="M889.855,-420.414C962.728,-395.672 1178.32,-322.175 1192,-314 1259.91,-273.407 1404.93,-135.264 1455,-74 1466.79,-59.5724 1477.42,-41.1115 1484.42,-27.8178"/>
<polygon fill="midnightblue" stroke="midnightblue" points="1487.58,-29.309 1489.02,-18.8117 1481.35,-26.1233 1487.58,-29.309"/>
</g>
<!-- Node116&#45;&gt;Node13 -->
<g id="edge126" class="edge"><title>Node116&#45;&gt;Node13</title>
<path fill="none" stroke="midnightblue" d="M802.994,-424.502C771.451,-418.93 735.844,-406.445 716,-379 691.521,-345.145 693.243,-320.036 716,-285 726.524,-268.798 744.462,-258.446 762.265,-251.853"/>
<polygon fill="midnightblue" stroke="midnightblue" points="763.721,-255.057 772.094,-248.564 761.5,-248.419 763.721,-255.057"/>
</g>
<!-- Node116&#45;&gt;Node24 -->
<g id="edge124" class="edge"><title>Node116&#45;&gt;Node24</title>
<path fill="none" stroke="midnightblue" d="M803.324,-428.279C723.266,-424.169 587.708,-403.471 526,-314 487.071,-257.556 510.697,-205.535 566,-165 594.984,-143.756 688.44,-131.523 752.498,-125.439"/>
<polygon fill="midnightblue" stroke="midnightblue" points="752.876,-128.919 762.513,-124.515 752.233,-121.949 752.876,-128.919"/>
</g>
<!-- Node116&#45;&gt;Node70 -->
<g id="edge125" class="edge"><title>Node116&#45;&gt;Node70</title>
<path fill="none" stroke="midnightblue" d="M802.924,-427.502C694.438,-424.826 477.823,-415.001 412,-379 333.764,-336.209 279.576,-237.835 260.038,-197.862"/>
<polygon fill="midnightblue" stroke="midnightblue" points="263.194,-196.347 255.731,-188.826 256.875,-199.359 263.194,-196.347"/>
</g>
<!-- Node119&#45;&gt;Node1 -->
<g id="edge130" class="edge"><title>Node119&#45;&gt;Node1</title>
<path fill="none" stroke="midnightblue" d="M1060.43,-420.334C1089.04,-404.486 1155.32,-369.417 1215,-350 1293.83,-324.355 1321.37,-345.601 1398,-314 1486.89,-277.346 1524.11,-273.628 1578,-194 1601.04,-159.958 1605.02,-110.119 1605.36,-83.6267"/>
<polygon fill="midnightblue" stroke="midnightblue" points="1608.86,-83.5124 1605.32,-73.5259 1601.86,-83.5392 1608.86,-83.5124"/>
</g>
<!-- Node119&#45;&gt;Node2 -->
<g id="edge131" class="edge"><title>Node119&#45;&gt;Node2</title>
<path fill="none" stroke="midnightblue" d="M1073.12,-420.436C1104.86,-410.911 1158.94,-394.408 1205,-379 1241.26,-366.87 1248.68,-358.321 1286,-350 1450.72,-313.274 1498.99,-349.379 1664,-314 1754.18,-294.664 2057,-272.735 2057,-180.5 2057,-180.5 2057,-180.5 2057,-118.5 2057,-36.2386 2352.52,-16.2366 2457.52,-11.7259"/>
<polygon fill="midnightblue" stroke="midnightblue" points="2457.8,-15.2177 2467.65,-11.3141 2457.51,-8.22351 2457.8,-15.2177"/>
</g>
<!-- Node119&#45;&gt;Node4 -->
<g id="edge133" class="edge"><title>Node119&#45;&gt;Node4</title>
<path fill="none" stroke="midnightblue" d="M1023.87,-420.393C993.807,-409.383 939.901,-389.638 905.594,-377.072"/>
<polygon fill="midnightblue" stroke="midnightblue" points="906.643,-373.729 896.049,-373.576 904.235,-380.302 906.643,-373.729"/>
</g>
<!-- Node119&#45;&gt;Node6 -->
<g id="edge128" class="edge"><title>Node119&#45;&gt;Node6</title>
<path fill="none" stroke="midnightblue" d="M985.137,-420.548C925.743,-412.234 833.04,-397.779 754,-379 482.09,-314.395 319.026,-418.82 153,-194 115.09,-142.665 142.879,-99.1062 189,-55 204.744,-39.944 226.585,-28.6574 244.185,-21.2183"/>
<polygon fill="midnightblue" stroke="midnightblue" points="245.493,-24.4648 253.461,-17.4818 242.878,-17.9718 245.493,-24.4648"/>
</g>
<!-- Node119&#45;&gt;Node11 -->
<g id="edge129" class="edge"><title>Node119&#45;&gt;Node11</title>
<path fill="none" stroke="midnightblue" d="M1054.07,-420.086C1069.49,-404.427 1104.72,-370.541 1140,-350 1179.38,-327.071 1197.39,-338.201 1236,-314 1301.53,-272.929 1454.77,-143.829 1488,-74 1494.69,-59.9441 1495.53,-42.1465 1494.94,-28.972"/>
<polygon fill="midnightblue" stroke="midnightblue" points="1498.41,-28.4968 1494.16,-18.7946 1491.43,-29.0336 1498.41,-28.4968"/>
</g>
<!-- Node119&#45;&gt;Node13 -->
<g id="edge134" class="edge"><title>Node119&#45;&gt;Node13</title>
<path fill="none" stroke="midnightblue" d="M991.587,-420.466C924.473,-410.087 817.542,-391.829 804,-379 773.179,-349.802 774.909,-325.698 787,-285 790.053,-274.724 796.313,-264.604 802.238,-256.618"/>
<polygon fill="midnightblue" stroke="midnightblue" points="805.118,-258.621 808.597,-248.613 799.636,-254.267 805.118,-258.621"/>
</g>
<!-- Node119&#45;&gt;Node24 -->
<g id="edge132" class="edge"><title>Node119&#45;&gt;Node24</title>
<path fill="none" stroke="midnightblue" d="M985.078,-420.857C911.087,-411.013 794.322,-393.45 780,-379 732.83,-331.409 740.61,-294.971 757,-230 766.024,-194.23 789.278,-157.437 803.752,-136.916"/>
<polygon fill="midnightblue" stroke="midnightblue" points="806.674,-138.848 809.701,-128.695 801.003,-134.744 806.674,-138.848"/>
</g>
<!-- Node123&#45;&gt;Node1 -->
<g id="edge140" class="edge"><title>Node123&#45;&gt;Node1</title>
<path fill="none" stroke="midnightblue" d="M3015.83,-480.219C2998.57,-452.846 2942.42,-366.101 2914,-350 2795.62,-282.936 2734.14,-369.689 2610,-314 2518.94,-273.149 2528.29,-215.144 2442,-165 2376.26,-126.797 2354.57,-124.85 2280,-110 2156.33,-85.3731 1765.18,-70.7499 1642.31,-66.676"/>
<polygon fill="midnightblue" stroke="midnightblue" points="1642.37,-63.1763 1632.26,-66.3467 1642.14,-70.1725 1642.37,-63.1763"/>
</g>
<!-- Node123&#45;&gt;Node2 -->
<g id="edge141" class="edge"><title>Node123&#45;&gt;Node2</title>
<path fill="none" stroke="midnightblue" d="M3022.27,-480.14C3024.08,-466.286 3026.49,-437.832 3020,-415 3010.79,-382.594 3005.28,-373.36 2981,-350 2913.78,-285.315 2868.64,-308.748 2797,-249 2735.86,-198.008 2745.64,-160.39 2684,-110 2634.17,-69.2642 2565.01,-38.1764 2525.34,-22.2792"/>
<polygon fill="midnightblue" stroke="midnightblue" points="2526.51,-18.9771 2515.92,-18.5682 2523.94,-25.49 2526.51,-18.9771"/>
</g>
<!-- Node123&#45;&gt;Node3 -->
<g id="edge142" class="edge"><title>Node123&#45;&gt;Node3</title>
<path fill="none" stroke="midnightblue" d="M3019.66,-480.177C3015.2,-455.509 2998.45,-382.486 2952,-350 2834.72,-267.975 2751.09,-393.382 2632,-314 2621.01,-306.672 2531.82,-137.68 2502.97,-82.6491"/>
<polygon fill="midnightblue" stroke="midnightblue" points="2506.06,-80.9995 2498.32,-73.7645 2499.85,-84.247 2506.06,-80.9995"/>
</g>
<!-- Node123&#45;&gt;Node4 -->
<g id="edge143" class="edge"><title>Node123&#45;&gt;Node4</title>
<path fill="none" stroke="midnightblue" d="M2927.84,-485.734C2639.15,-476.681 1734.05,-444.672 987,-379 973.459,-377.81 959.034,-376.284 945.179,-374.689"/>
<polygon fill="midnightblue" stroke="midnightblue" points="945.552,-371.209 935.212,-373.52 944.736,-378.161 945.552,-371.209"/>
</g>
<!-- Node123&#45;&gt;Node16 -->
<g id="edge148" class="edge"><title>Node123&#45;&gt;Node16</title>
<path fill="none" stroke="midnightblue" d="M3070.16,-480.481C3097.97,-474.1 3132.22,-462.975 3158,-444 3237.51,-385.479 3300.38,-202.087 3316,-129 3323.26,-95.0519 3316.81,-78.2124 3291,-55 3266.89,-33.3218 3231.93,-22.1655 3203.76,-16.4452"/>
<polygon fill="midnightblue" stroke="midnightblue" points="3204.2,-12.966 3193.72,-14.5743 3202.91,-19.8475 3204.2,-12.966"/>
</g>
<!-- Node123&#45;&gt;Node24 -->
<g id="edge144" class="edge"><title>Node123&#45;&gt;Node24</title>
<path fill="none" stroke="midnightblue" d="M2927.76,-488.102C2518.51,-486.166 897.074,-476.47 794,-444 744.502,-428.407 721.433,-424.784 697,-379 690.932,-367.629 694.682,-362.679 697,-350 712.813,-263.523 717.535,-237.675 767,-165 774.802,-153.538 786.134,-142.995 795.936,-135.051"/>
<polygon fill="midnightblue" stroke="midnightblue" points="798.267,-137.673 804.028,-128.782 793.979,-132.139 798.267,-137.673"/>
</g>
<!-- Node123&#45;&gt;Node23 -->
<g id="edge149" class="edge"><title>Node123&#45;&gt;Node23</title>
<path fill="none" stroke="midnightblue" d="M3033.63,-480.373C3044.52,-472.546 3059.48,-459.614 3066,-444 3082.1,-405.447 3073.42,-391.114 3066,-350 3050.42,-263.639 3038.68,-242.222 2997,-165 2979.88,-133.282 2953.73,-100.281 2937.82,-81.3817"/>
<polygon fill="midnightblue" stroke="midnightblue" points="2940.45,-79.0759 2931.3,-73.7456 2935.13,-83.6225 2940.45,-79.0759"/>
</g>
<!-- Node123&#45;&gt;Node70 -->
<g id="edge146" class="edge"><title>Node123&#45;&gt;Node70</title>
<path fill="none" stroke="midnightblue" d="M2927.92,-488.103C2485.08,-486.054 608.004,-475.538 488,-444 359.691,-410.28 311.886,-371.929 262,-249 255.504,-232.991 253.15,-213.363 252.335,-199.227"/>
<polygon fill="midnightblue" stroke="midnightblue" points="255.818,-198.71 251.955,-188.845 248.823,-198.966 255.818,-198.71"/>
</g>
<!-- Node123&#45;&gt;Node98 -->
<g id="edge151" class="edge"><title>Node123&#45;&gt;Node98</title>
<path fill="none" stroke="midnightblue" d="M3043.55,-480.388C3061.56,-473.042 3086.58,-460.792 3104,-444 3157.46,-392.479 3170.7,-298.577 3173.95,-258.938"/>
<polygon fill="midnightblue" stroke="midnightblue" points="3177.45,-259.098 3174.65,-248.879 3170.47,-258.611 3177.45,-259.098"/>
</g>
<!-- Node123&#45;&gt;Node102 -->
<g id="edge145" class="edge"><title>Node123&#45;&gt;Node102</title>
<path fill="none" stroke="midnightblue" d="M2927.59,-481.762C2768.83,-470.308 2448.96,-447.234 2298.61,-436.387"/>
<polygon fill="midnightblue" stroke="midnightblue" points="2298.74,-432.888 2288.52,-435.659 2298.24,-439.87 2298.74,-432.888"/>
</g>
<!-- Node123&#45;&gt;Node49 -->
<g id="edge150" class="edge"><title>Node123&#45;&gt;Node49</title>
<path fill="none" stroke="midnightblue" d="M3056.95,-480.429C3079.97,-473.782 3109.29,-462.393 3130,-444 3224.43,-360.12 3242.69,-194.055 3246.18,-138.836"/>
<polygon fill="midnightblue" stroke="midnightblue" points="3249.69,-138.721 3246.74,-128.547 3242.7,-138.344 3249.69,-138.721"/>
</g>
<!-- Node123&#45;&gt;Node116 -->
<g id="edge147" class="edge"><title>Node123&#45;&gt;Node116</title>
<path fill="none" stroke="midnightblue" d="M2927.72,-487.716C2580.52,-484.602 1363.19,-471.901 976,-444 961.947,-442.987 946.934,-441.449 932.659,-439.77"/>
<polygon fill="midnightblue" stroke="midnightblue" points="932.768,-436.257 922.419,-438.527 931.925,-443.206 932.768,-436.257"/>
</g>
<!-- Node125&#45;&gt;Node3 -->
<g id="edge156" class="edge"><title>Node125&#45;&gt;Node3</title>
<path fill="none" stroke="midnightblue" d="M3071.08,-170.482C3006.68,-157.301 2873.85,-130.475 2761,-110 2689.11,-96.9565 2606.06,-83.3423 2551.92,-74.6619"/>
<polygon fill="midnightblue" stroke="midnightblue" points="2552.25,-71.1704 2541.82,-73.0465 2551.14,-78.0825 2552.25,-71.1704"/>
</g>
<!-- Node125&#45;&gt;Node16 -->
<g id="edge153" class="edge"><title>Node125&#45;&gt;Node16</title>
<path fill="none" stroke="midnightblue" d="M3112.27,-170.397C3119.45,-144.729 3141.81,-64.7809 3151.93,-28.6048"/>
<polygon fill="midnightblue" stroke="midnightblue" points="3155.43,-29.0949 3154.76,-18.5217 3148.69,-27.2089 3155.43,-29.0949"/>
</g>
<!-- Node125&#45;&gt;Node24 -->
<g id="edge155" class="edge"><title>Node125&#45;&gt;Node24</title>
<path fill="none" stroke="midnightblue" d="M3052.33,-170.5C3034.61,-168.342 3015.03,-166.258 2997,-165 2569.5,-135.175 1193.46,-123.306 879.974,-120.953"/>
<polygon fill="midnightblue" stroke="midnightblue" points="879.733,-117.452 869.707,-120.877 879.68,-124.451 879.733,-117.452"/>
</g>
<!-- Node125&#45;&gt;Node23 -->
<g id="edge154" class="edge"><title>Node125&#45;&gt;Node23</title>
<path fill="none" stroke="midnightblue" d="M3108.24,-170.419C3104.7,-156.087 3095.34,-126.201 3076,-110 3045.76,-84.663 3001.67,-73.7486 2968.76,-69.049"/>
<polygon fill="midnightblue" stroke="midnightblue" points="2968.86,-65.5334 2958.5,-67.7311 2967.97,-72.4764 2968.86,-65.5334"/>
</g>
<!-- Node125&#45;&gt;Node49 -->
<g id="edge157" class="edge"><title>Node125&#45;&gt;Node49</title>
<path fill="none" stroke="midnightblue" d="M3129.05,-170.435C3152.23,-160.622 3191.59,-143.959 3218.41,-132.604"/>
<polygon fill="midnightblue" stroke="midnightblue" points="3219.83,-135.805 3227.67,-128.683 3217.1,-129.359 3219.83,-135.805"/>
</g>
</g>
</svg>
