<?xml version="1.0" encoding="UTF-8" standalone="no"?>
<!DOCTYPE svg PUBLIC "-//W3C//DTD SVG 1.1//EN"
 "http://www.w3.org/Graphics/SVG/1.1/DTD/svg11.dtd">
<!-- Generated by graphviz version 2.38.0 (20140413.2041)
 -->
<!-- Title: LinearFunction.cpp Pages: 1 -->
<svg width="1593pt" height="387pt"
 viewBox="0.00 0.00 1592.99 387.00" xmlns="http://www.w3.org/2000/svg" xmlns:xlink="http://www.w3.org/1999/xlink">
<g id="graph0" class="graph" transform="scale(1 1) rotate(0) translate(4 383)">
<title>LinearFunction.cpp</title>
<polygon fill="white" stroke="none" points="-4,4 -4,-383 1588.99,-383 1588.99,4 -4,4"/>
<!-- Node0 -->
<g id="node1" class="node"><title>Node0</title>
<polygon fill="#bfbfbf" stroke="black" points="1390.18,-360.5 1390.18,-378.5 1491.24,-378.5 1491.24,-360.5 1390.18,-360.5"/>
<text text-anchor="middle" x="1440.71" y="-366.5" font-family="Helvetica,sans-Serif" font-size="10.00">LinearFunction.cpp</text>
</g>
<!-- Node1 -->
<g id="node2" class="node"><title>Node1</title>
<g id="a_node2"><a xlink:href="../../dc/d8a/LinearFunction_8h.html" target="_top" xlink:title="Declaration file of the LinearFunction class. ">
<polygon fill="white" stroke="black" points="914.731,-305.5 914.731,-323.5 1054.69,-323.5 1054.69,-305.5 914.731,-305.5"/>
<text text-anchor="middle" x="984.709" y="-311.5" font-family="Helvetica,sans-Serif" font-size="10.00">ocra/optim/LinearFunction.h</text>
</a>
</g>
</g>
<!-- Node0&#45;&gt;Node1 -->
<g id="edge1" class="edge"><title>Node0&#45;&gt;Node1</title>
<path fill="none" stroke="midnightblue" d="M1390.17,-362.626C1311.08,-353.433 1157.43,-335.575 1063.66,-324.676"/>
<polygon fill="midnightblue" stroke="midnightblue" points="1063.99,-321.191 1053.65,-323.513 1063.18,-328.145 1063.99,-321.191"/>
</g>
<!-- Node11 -->
<g id="node12" class="node"><title>Node11</title>
<polygon fill="white" stroke="#bfbfbf" points="1407.31,-70.5 1407.31,-88.5 1466.11,-88.5 1466.11,-70.5 1407.31,-70.5"/>
<text text-anchor="middle" x="1436.71" y="-76.5" font-family="Helvetica,sans-Serif" font-size="10.00">stdexcept</text>
</g>
<!-- Node0&#45;&gt;Node11 -->
<g id="edge55" class="edge"><title>Node0&#45;&gt;Node11</title>
<path fill="none" stroke="midnightblue" d="M1440.71,-360.371C1440.71,-342.376 1440.71,-297.812 1440.71,-260.5 1440.71,-260.5 1440.71,-260.5 1440.71,-198.5 1440.71,-163.079 1438.89,-121.711 1437.7,-98.5641"/>
<polygon fill="midnightblue" stroke="midnightblue" points="1441.19,-98.3094 1437.17,-88.5091 1434.2,-98.6807 1441.19,-98.3094"/>
</g>
<!-- Node16 -->
<g id="node17" class="node"><title>Node16</title>
<g id="a_node17"><a xlink:href="../../d7/d90/Variable_8h.html" target="_top" xlink:title="Declaration file of the Variable class. ">
<polygon fill="white" stroke="black" points="509.832,-190.5 509.832,-208.5 619.586,-208.5 619.586,-190.5 509.832,-190.5"/>
<text text-anchor="middle" x="564.709" y="-196.5" font-family="Helvetica,sans-Serif" font-size="10.00">ocra/optim/Variable.h</text>
</a>
</g>
</g>
<!-- Node0&#45;&gt;Node16 -->
<g id="edge56" class="edge"><title>Node0&#45;&gt;Node16</title>
<path fill="none" stroke="midnightblue" d="M1389.95,-369.246C1268.12,-369.43 951.204,-360.328 707.709,-269 664.364,-252.742 616.256,-228.284 588.349,-213.415"/>
<polygon fill="midnightblue" stroke="midnightblue" points="589.826,-210.236 579.361,-208.585 586.513,-216.402 589.826,-210.236"/>
</g>
<!-- Node36 -->
<g id="node37" class="node"><title>Node36</title>
<polygon fill="white" stroke="#bfbfbf" points="1468.93,-305.5 1468.93,-323.5 1520.49,-323.5 1520.49,-305.5 1468.93,-305.5"/>
<text text-anchor="middle" x="1494.71" y="-311.5" font-family="Helvetica,sans-Serif" font-size="10.00">sstream</text>
</g>
<!-- Node0&#45;&gt;Node36 -->
<g id="edge54" class="edge"><title>Node0&#45;&gt;Node36</title>
<path fill="none" stroke="midnightblue" d="M1449.15,-360.219C1457.2,-352.316 1469.52,-340.224 1479.32,-330.606"/>
<polygon fill="midnightblue" stroke="midnightblue" points="1481.82,-333.052 1486.51,-323.55 1476.92,-328.056 1481.82,-333.052"/>
</g>
<!-- Node37 -->
<g id="node38" class="node"><title>Node37</title>
<polygon fill="white" stroke="#bfbfbf" points="1538.42,-305.5 1538.42,-323.5 1584.99,-323.5 1584.99,-305.5 1538.42,-305.5"/>
<text text-anchor="middle" x="1561.71" y="-311.5" font-family="Helvetica,sans-Serif" font-size="10.00">math.h</text>
</g>
<!-- Node0&#45;&gt;Node37 -->
<g id="edge57" class="edge"><title>Node0&#45;&gt;Node37</title>
<path fill="none" stroke="midnightblue" d="M1459.09,-360.45C1478.99,-351.734 1510.96,-337.731 1533.93,-327.669"/>
<polygon fill="midnightblue" stroke="midnightblue" points="1535.4,-330.843 1543.16,-323.625 1532.59,-324.432 1535.4,-330.843"/>
</g>
<!-- Node2 -->
<g id="node3" class="node"><title>Node2</title>
<g id="a_node3"><a xlink:href="../../df/df5/Function_8h.html" target="_top" xlink:title="Declaration file of the Function class. ">
<polygon fill="white" stroke="black" points="928.63,-250.5 928.63,-268.5 1040.79,-268.5 1040.79,-250.5 928.63,-250.5"/>
<text text-anchor="middle" x="984.709" y="-256.5" font-family="Helvetica,sans-Serif" font-size="10.00">ocra/optim/Function.h</text>
</a>
</g>
</g>
<!-- Node1&#45;&gt;Node2 -->
<g id="edge2" class="edge"><title>Node1&#45;&gt;Node2</title>
<path fill="none" stroke="midnightblue" d="M984.709,-305.219C984.709,-298.177 984.709,-287.808 984.709,-278.828"/>
<polygon fill="midnightblue" stroke="midnightblue" points="988.209,-278.55 984.709,-268.55 981.209,-278.55 988.209,-278.55"/>
</g>
<!-- Node34 -->
<g id="node35" class="node"><title>Node34</title>
<g id="a_node35"><a xlink:href="../../df/d0a/Macros_8h.html" target="_top" xlink:title="ocra/util/Macros.h">
<polygon fill="white" stroke="black" points="716.251,-250.5 716.251,-268.5 811.167,-268.5 811.167,-250.5 716.251,-250.5"/>
<text text-anchor="middle" x="763.709" y="-256.5" font-family="Helvetica,sans-Serif" font-size="10.00">ocra/util/Macros.h</text>
</a>
</g>
</g>
<!-- Node1&#45;&gt;Node34 -->
<g id="edge52" class="edge"><title>Node1&#45;&gt;Node34</title>
<path fill="none" stroke="midnightblue" d="M951.144,-305.45C912.577,-296.201 849.187,-280.999 806.953,-270.871"/>
<polygon fill="midnightblue" stroke="midnightblue" points="807.768,-267.467 797.227,-268.538 806.135,-274.274 807.768,-267.467"/>
</g>
<!-- Node3 -->
<g id="node4" class="node"><title>Node3</title>
<g id="a_node4"><a xlink:href="../../de/d94/IFunction_8h.html" target="_top" xlink:title="Declaration file of the IFunction interface. ">
<polygon fill="white" stroke="black" points="1259.24,-130.5 1259.24,-148.5 1374.18,-148.5 1374.18,-130.5 1259.24,-130.5"/>
<text text-anchor="middle" x="1316.71" y="-136.5" font-family="Helvetica,sans-Serif" font-size="10.00">ocra/optim/IFunction.h</text>
</a>
</g>
</g>
<!-- Node2&#45;&gt;Node3 -->
<g id="edge3" class="edge"><title>Node2&#45;&gt;Node3</title>
<path fill="none" stroke="midnightblue" d="M1040.83,-256.313C1145.33,-251.661 1361.26,-239.096 1383.71,-214 1392.3,-204.394 1389.8,-196.359 1383.71,-185 1376.04,-170.702 1361.53,-160.216 1347.97,-153.027"/>
<polygon fill="midnightblue" stroke="midnightblue" points="1349.35,-149.807 1338.83,-148.571 1346.29,-156.099 1349.35,-149.807"/>
</g>
<!-- Node12 -->
<g id="node13" class="node"><title>Node12</title>
<g id="a_node13"><a xlink:href="../../d9/d54/IFunctionProperties_8h.html" target="_top" xlink:title="ocra/optim/IFunctionProperties.h">
<polygon fill="white" stroke="black" points="1080.45,-190.5 1080.45,-208.5 1240.96,-208.5 1240.96,-190.5 1080.45,-190.5"/>
<text text-anchor="middle" x="1160.71" y="-196.5" font-family="Helvetica,sans-Serif" font-size="10.00">ocra/optim/IFunctionProperties.h</text>
</a>
</g>
</g>
<!-- Node2&#45;&gt;Node12 -->
<g id="edge12" class="edge"><title>Node2&#45;&gt;Node12</title>
<path fill="none" stroke="midnightblue" d="M1009.18,-250.435C1039.7,-240.378 1092.04,-223.128 1126.51,-211.769"/>
<polygon fill="midnightblue" stroke="midnightblue" points="1127.76,-215.044 1136.16,-208.589 1125.57,-208.395 1127.76,-215.044"/>
</g>
<!-- Node14 -->
<g id="node15" class="node"><title>Node14</title>
<g id="a_node15"><a xlink:href="../../db/d47/AbilitySet_8h.html" target="_top" xlink:title="ocra/optim/AbilitySet.h">
<polygon fill="white" stroke="black" points="1258.97,-190.5 1258.97,-208.5 1374.45,-208.5 1374.45,-190.5 1258.97,-190.5"/>
<text text-anchor="middle" x="1316.71" y="-196.5" font-family="Helvetica,sans-Serif" font-size="10.00">ocra/optim/AbilitySet.h</text>
</a>
</g>
</g>
<!-- Node2&#45;&gt;Node14 -->
<g id="edge15" class="edge"><title>Node2&#45;&gt;Node14</title>
<path fill="none" stroke="midnightblue" d="M1035.6,-250.458C1089.01,-241.898 1175.39,-227.723 1249.71,-214 1255.54,-212.923 1261.65,-211.753 1267.7,-210.566"/>
<polygon fill="midnightblue" stroke="midnightblue" points="1268.65,-213.945 1277.78,-208.566 1267.29,-207.079 1268.65,-213.945"/>
</g>
<!-- Node15 -->
<g id="node16" class="node"><title>Node15</title>
<g id="a_node16"><a xlink:href="../../d1/d87/CoupledInputOutputSize_8h.html" target="_top" xlink:title="ocra/optim/CoupledInputOutput\lSize.h">
<polygon fill="white" stroke="black" points="907.222,-185.5 907.222,-213.5 1062.2,-213.5 1062.2,-185.5 907.222,-185.5"/>
<text text-anchor="start" x="915.222" y="-201.5" font-family="Helvetica,sans-Serif" font-size="10.00">ocra/optim/CoupledInputOutput</text>
<text text-anchor="middle" x="984.709" y="-191.5" font-family="Helvetica,sans-Serif" font-size="10.00">Size.h</text>
</a>
</g>
</g>
<!-- Node2&#45;&gt;Node15 -->
<g id="edge18" class="edge"><title>Node2&#45;&gt;Node15</title>
<path fill="none" stroke="midnightblue" d="M984.709,-250.435C984.709,-243.56 984.709,-233.324 984.709,-223.906"/>
<polygon fill="midnightblue" stroke="midnightblue" points="988.209,-223.843 984.709,-213.843 981.209,-223.843 988.209,-223.843"/>
</g>
<!-- Node2&#45;&gt;Node16 -->
<g id="edge19" class="edge"><title>Node2&#45;&gt;Node16</title>
<path fill="none" stroke="midnightblue" d="M928.388,-252.929C858.028,-245.632 734.06,-231.664 628.709,-214 622.754,-213.002 616.512,-211.835 610.359,-210.614"/>
<polygon fill="midnightblue" stroke="midnightblue" points="610.652,-207.102 600.154,-208.528 609.25,-213.96 610.652,-207.102"/>
</g>
<!-- Node17 -->
<g id="node18" class="node"><title>Node17</title>
<g id="a_node18"><a xlink:href="../../d8/ddc/ObserverSubject_8h.html" target="_top" xlink:title="Declaration file of the Observer, Subject and ObserverSubject classes. ">
<polygon fill="white" stroke="black" points="661.569,-130.5 661.569,-148.5 809.849,-148.5 809.849,-130.5 661.569,-130.5"/>
<text text-anchor="middle" x="735.709" y="-136.5" font-family="Helvetica,sans-Serif" font-size="10.00">ocra/optim/ObserverSubject.h</text>
</a>
</g>
</g>
<!-- Node2&#45;&gt;Node17 -->
<g id="edge49" class="edge"><title>Node2&#45;&gt;Node17</title>
<path fill="none" stroke="midnightblue" d="M928.557,-256.457C863.128,-252.766 760.866,-242.481 736.709,-214 723.966,-198.976 726.228,-175.344 730.032,-158.949"/>
<polygon fill="midnightblue" stroke="midnightblue" points="733.504,-159.517 732.747,-148.95 726.749,-157.683 733.504,-159.517"/>
</g>
<!-- Node33 -->
<g id="node34" class="node"><title>Node33</title>
<g id="a_node34"><a xlink:href="../../df/d97/NamedInstance_8h.html" target="_top" xlink:title="ocra/optim/NamedInstance.h">
<polygon fill="white" stroke="black" points="745.788,-190.5 745.788,-208.5 889.63,-208.5 889.63,-190.5 745.788,-190.5"/>
<text text-anchor="middle" x="817.709" y="-196.5" font-family="Helvetica,sans-Serif" font-size="10.00">ocra/optim/NamedInstance.h</text>
</a>
</g>
</g>
<!-- Node2&#45;&gt;Node33 -->
<g id="edge50" class="edge"><title>Node2&#45;&gt;Node33</title>
<path fill="none" stroke="midnightblue" d="M961.488,-250.435C932.655,-240.421 883.288,-223.276 850.577,-211.915"/>
<polygon fill="midnightblue" stroke="midnightblue" points="851.596,-208.564 841.001,-208.589 849.299,-215.177 851.596,-208.564"/>
</g>
<!-- Node4 -->
<g id="node5" class="node"><title>Node4</title>
<g id="a_node5"><a xlink:href="../../d5/d55/MathTypes_8h.html" target="_top" xlink:title="Declaration file of the OptimizationVariable class. ">
<polygon fill="white" stroke="black" points="1278.18,-70.5 1278.18,-88.5 1389.23,-88.5 1389.23,-70.5 1278.18,-70.5"/>
<text text-anchor="middle" x="1333.71" y="-76.5" font-family="Helvetica,sans-Serif" font-size="10.00">ocra/util/MathTypes.h</text>
</a>
</g>
</g>
<!-- Node3&#45;&gt;Node4 -->
<g id="edge4" class="edge"><title>Node3&#45;&gt;Node4</title>
<path fill="none" stroke="midnightblue" d="M1319.07,-130.435C1321.48,-122.218 1325.3,-109.198 1328.43,-98.5138"/>
<polygon fill="midnightblue" stroke="midnightblue" points="1331.8,-99.4525 1331.26,-88.8718 1325.08,-97.4836 1331.8,-99.4525"/>
</g>
<!-- Node7 -->
<g id="node8" class="node"><title>Node7</title>
<g id="a_node8"><a xlink:href="../../de/df3/ocra__assert_8h.html" target="_top" xlink:title="ocra/optim/ocra_assert.h">
<polygon fill="white" stroke="black" points="581.685,-70.5 581.685,-88.5 707.733,-88.5 707.733,-70.5 581.685,-70.5"/>
<text text-anchor="middle" x="644.709" y="-76.5" font-family="Helvetica,sans-Serif" font-size="10.00">ocra/optim/ocra_assert.h</text>
</a>
</g>
</g>
<!-- Node3&#45;&gt;Node7 -->
<g id="edge7" class="edge"><title>Node3&#45;&gt;Node7</title>
<path fill="none" stroke="midnightblue" d="M1258.93,-133.712C1162.37,-125.684 962.099,-108.918 792.709,-94 768.421,-91.861 741.897,-89.4616 718.098,-87.2855"/>
<polygon fill="midnightblue" stroke="midnightblue" points="718.357,-83.7947 708.079,-86.368 717.718,-90.7655 718.357,-83.7947"/>
</g>
<!-- Node9 -->
<g id="node10" class="node"><title>Node9</title>
<polygon fill="white" stroke="#bfbfbf" points="1205.54,-70.5 1205.54,-88.5 1259.88,-88.5 1259.88,-70.5 1205.54,-70.5"/>
<text text-anchor="middle" x="1232.71" y="-76.5" font-family="Helvetica,sans-Serif" font-size="10.00">iostream</text>
</g>
<!-- Node3&#45;&gt;Node9 -->
<g id="edge9" class="edge"><title>Node3&#45;&gt;Node9</title>
<path fill="none" stroke="midnightblue" d="M1305.03,-130.435C1291.56,-121.138 1269.2,-105.694 1252.9,-94.4393"/>
<polygon fill="midnightblue" stroke="midnightblue" points="1254.78,-91.4849 1244.56,-88.6831 1250.8,-97.2452 1254.78,-91.4849"/>
</g>
<!-- Node10 -->
<g id="node11" class="node"><title>Node10</title>
<polygon fill="white" stroke="#bfbfbf" points="1144.09,-70.5 1144.09,-88.5 1187.32,-88.5 1187.32,-70.5 1144.09,-70.5"/>
<text text-anchor="middle" x="1165.71" y="-76.5" font-family="Helvetica,sans-Serif" font-size="10.00">vector</text>
</g>
<!-- Node3&#45;&gt;Node10 -->
<g id="edge10" class="edge"><title>Node3&#45;&gt;Node10</title>
<path fill="none" stroke="midnightblue" d="M1293.56,-130.347C1269.28,-121.697 1230.1,-107.449 1196.71,-94 1195.51,-93.5189 1194.3,-93.021 1193.07,-92.5129"/>
<polygon fill="midnightblue" stroke="midnightblue" points="1194.24,-89.2084 1183.67,-88.5227 1191.51,-95.6519 1194.24,-89.2084"/>
</g>
<!-- Node3&#45;&gt;Node11 -->
<g id="edge11" class="edge"><title>Node3&#45;&gt;Node11</title>
<path fill="none" stroke="midnightblue" d="M1333.39,-130.435C1353.43,-120.751 1387.27,-104.397 1410.73,-93.055"/>
<polygon fill="midnightblue" stroke="midnightblue" points="1412.3,-96.1861 1419.78,-88.6831 1409.25,-89.8837 1412.3,-96.1861"/>
</g>
<!-- Node5 -->
<g id="node6" class="node"><title>Node5</title>
<polygon fill="white" stroke="#bfbfbf" points="1285.08,-5.5 1285.08,-23.5 1358.34,-23.5 1358.34,-5.5 1285.08,-5.5"/>
<text text-anchor="middle" x="1321.71" y="-11.5" font-family="Helvetica,sans-Serif" font-size="10.00">Eigen/Dense</text>
</g>
<!-- Node4&#45;&gt;Node5 -->
<g id="edge5" class="edge"><title>Node4&#45;&gt;Node5</title>
<path fill="none" stroke="midnightblue" d="M1332.14,-70.2639C1330.37,-60.9687 1327.44,-45.5673 1325.13,-33.461"/>
<polygon fill="midnightblue" stroke="midnightblue" points="1328.55,-32.7074 1323.24,-23.539 1321.67,-34.0173 1328.55,-32.7074"/>
</g>
<!-- Node6 -->
<g id="node7" class="node"><title>Node6</title>
<polygon fill="white" stroke="#bfbfbf" points="1376.09,-5.5 1376.09,-23.5 1419.32,-23.5 1419.32,-5.5 1376.09,-5.5"/>
<text text-anchor="middle" x="1397.71" y="-11.5" font-family="Helvetica,sans-Serif" font-size="10.00">cmath</text>
</g>
<!-- Node4&#45;&gt;Node6 -->
<g id="edge6" class="edge"><title>Node4&#45;&gt;Node6</title>
<path fill="none" stroke="midnightblue" d="M1342.08,-70.2639C1352.29,-60.2099 1369.76,-43.0121 1382.4,-30.5672"/>
<polygon fill="midnightblue" stroke="midnightblue" points="1384.87,-33.0485 1389.54,-23.539 1379.96,-28.0599 1384.87,-33.0485"/>
</g>
<!-- Node8 -->
<g id="node9" class="node"><title>Node8</title>
<polygon fill="white" stroke="#bfbfbf" points="539.647,-5.5 539.647,-23.5 581.771,-23.5 581.771,-5.5 539.647,-5.5"/>
<text text-anchor="middle" x="560.709" y="-11.5" font-family="Helvetica,sans-Serif" font-size="10.00">cstdio</text>
</g>
<!-- Node7&#45;&gt;Node8 -->
<g id="edge8" class="edge"><title>Node7&#45;&gt;Node8</title>
<path fill="none" stroke="midnightblue" d="M633.727,-70.2639C620.069,-60.0202 596.523,-42.3606 579.866,-29.8679"/>
<polygon fill="midnightblue" stroke="midnightblue" points="581.528,-26.739 571.428,-23.539 577.328,-32.339 581.528,-26.739"/>
</g>
<!-- Node12&#45;&gt;Node10 -->
<g id="edge14" class="edge"><title>Node12&#45;&gt;Node10</title>
<path fill="none" stroke="midnightblue" d="M1161.05,-190.389C1161.85,-171.611 1163.83,-124.768 1164.94,-98.7111"/>
<polygon fill="midnightblue" stroke="midnightblue" points="1168.44,-98.8066 1165.36,-88.6674 1161.44,-98.5102 1168.44,-98.8066"/>
</g>
<!-- Node13 -->
<g id="node14" class="node"><title>Node13</title>
<polygon fill="white" stroke="#bfbfbf" points="865.482,-130.5 865.482,-148.5 905.936,-148.5 905.936,-130.5 865.482,-130.5"/>
<text text-anchor="middle" x="885.709" y="-136.5" font-family="Helvetica,sans-Serif" font-size="10.00">string</text>
</g>
<!-- Node12&#45;&gt;Node13 -->
<g id="edge13" class="edge"><title>Node12&#45;&gt;Node13</title>
<path fill="none" stroke="midnightblue" d="M1122.76,-190.496C1067.6,-178.862 966.367,-157.511 915.929,-146.874"/>
<polygon fill="midnightblue" stroke="midnightblue" points="916.479,-143.413 905.972,-144.774 915.034,-150.262 916.479,-143.413"/>
</g>
<!-- Node14&#45;&gt;Node3 -->
<g id="edge16" class="edge"><title>Node14&#45;&gt;Node3</title>
<path fill="none" stroke="midnightblue" d="M1316.71,-190.435C1316.71,-182.389 1316.71,-169.739 1316.71,-159.185"/>
<polygon fill="midnightblue" stroke="midnightblue" points="1320.21,-158.872 1316.71,-148.872 1313.21,-158.872 1320.21,-158.872"/>
</g>
<!-- Node14&#45;&gt;Node10 -->
<g id="edge17" class="edge"><title>Node14&#45;&gt;Node10</title>
<path fill="none" stroke="midnightblue" d="M1305.41,-190.21C1292.19,-180.473 1269.7,-163.77 1250.71,-149 1227.27,-130.771 1200.68,-109.196 1183.58,-95.1986"/>
<polygon fill="midnightblue" stroke="midnightblue" points="1185.52,-92.2634 1175.56,-88.6278 1181.08,-97.6757 1185.52,-92.2634"/>
</g>
<!-- Node16&#45;&gt;Node10 -->
<g id="edge48" class="edge"><title>Node16&#45;&gt;Node10</title>
<path fill="none" stroke="midnightblue" d="M602.247,-190.447C610.929,-188.621 620.135,-186.716 628.709,-185 712.984,-168.13 737.274,-176.48 818.709,-149 836.6,-142.963 838.655,-135.533 856.709,-130 973.721,-94.1396 1010.98,-123.678 1129.71,-94 1132.06,-93.4127 1134.47,-92.7208 1136.87,-91.9656"/>
<polygon fill="midnightblue" stroke="midnightblue" points="1138.23,-95.1953 1146.54,-88.6114 1135.94,-88.5819 1138.23,-95.1953"/>
</g>
<!-- Node16&#45;&gt;Node13 -->
<g id="edge47" class="edge"><title>Node16&#45;&gt;Node13</title>
<path fill="none" stroke="midnightblue" d="M601.201,-190.488C610.179,-188.603 619.778,-186.662 628.709,-185 727.409,-166.634 753.366,-169.193 851.709,-149 852.949,-148.745 854.213,-148.476 855.487,-148.196"/>
<polygon fill="midnightblue" stroke="midnightblue" points="856.336,-151.592 865.277,-145.907 854.743,-144.775 856.336,-151.592"/>
</g>
<!-- Node16&#45;&gt;Node17 -->
<g id="edge20" class="edge"><title>Node16&#45;&gt;Node17</title>
<path fill="none" stroke="midnightblue" d="M588.486,-190.435C618.01,-180.421 668.559,-163.276 702.054,-151.915"/>
<polygon fill="midnightblue" stroke="midnightblue" points="703.513,-155.116 711.859,-148.589 701.265,-148.487 703.513,-155.116"/>
</g>
<!-- Node28 -->
<g id="node29" class="node"><title>Node28</title>
<g id="a_node29"><a xlink:href="../../d1/de6/Composite_8h.html" target="_top" xlink:title="Utility classes and functions to implement the Composite design pattern. ">
<polygon fill="white" stroke="black" points="374.909,-130.5 374.909,-148.5 496.509,-148.5 496.509,-130.5 374.909,-130.5"/>
<text text-anchor="middle" x="435.709" y="-136.5" font-family="Helvetica,sans-Serif" font-size="10.00">ocra/optim/Composite.h</text>
</a>
</g>
</g>
<!-- Node16&#45;&gt;Node28 -->
<g id="edge34" class="edge"><title>Node16&#45;&gt;Node28</title>
<path fill="none" stroke="midnightblue" d="M546.772,-190.435C525.137,-180.708 488.535,-164.251 463.297,-152.904"/>
<polygon fill="midnightblue" stroke="midnightblue" points="464.465,-149.592 453.909,-148.683 461.595,-155.976 464.465,-149.592"/>
</g>
<!-- Node29 -->
<g id="node30" class="node"><title>Node29</title>
<polygon fill="white" stroke="#bfbfbf" points="0,-70.5 0,-88.5 119.418,-88.5 119.418,-70.5 0,-70.5"/>
<text text-anchor="middle" x="59.709" y="-76.5" font-family="Helvetica,sans-Serif" font-size="10.00">boost/noncopyable.hpp</text>
</g>
<!-- Node16&#45;&gt;Node29 -->
<g id="edge46" class="edge"><title>Node16&#45;&gt;Node29</title>
<path fill="none" stroke="midnightblue" d="M530.395,-190.482C441.416,-169.691 203.294,-114.05 104.07,-90.8655"/>
<polygon fill="midnightblue" stroke="midnightblue" points="104.604,-87.3961 94.0699,-88.5289 103.011,-94.2125 104.604,-87.3961"/>
</g>
<!-- Node32 -->
<g id="node33" class="node"><title>Node32</title>
<polygon fill="white" stroke="#bfbfbf" points="529.744,-130.5 529.744,-148.5 599.674,-148.5 599.674,-130.5 529.744,-130.5"/>
<text text-anchor="middle" x="564.709" y="-136.5" font-family="Helvetica,sans-Serif" font-size="10.00">Eigen/Eigen</text>
</g>
<!-- Node16&#45;&gt;Node32 -->
<g id="edge45" class="edge"><title>Node16&#45;&gt;Node32</title>
<path fill="none" stroke="midnightblue" d="M564.709,-190.435C564.709,-182.389 564.709,-169.739 564.709,-159.185"/>
<polygon fill="midnightblue" stroke="midnightblue" points="568.209,-158.872 564.709,-148.872 561.209,-158.872 568.209,-158.872"/>
</g>
<!-- Node18 -->
<g id="node19" class="node"><title>Node18</title>
<g id="a_node19"><a xlink:href="../../df/d67/ObserverSubjectBase_8h.html" target="_top" xlink:title="Declaration file of the Observer and Subject base classes. ">
<polygon fill="white" stroke="black" points="947.739,-65.5 947.739,-93.5 1087.68,-93.5 1087.68,-65.5 947.739,-65.5"/>
<text text-anchor="start" x="955.739" y="-81.5" font-family="Helvetica,sans-Serif" font-size="10.00">ocra/optim/ObserverSubject</text>
<text text-anchor="middle" x="1017.71" y="-71.5" font-family="Helvetica,sans-Serif" font-size="10.00">Base.h</text>
</a>
</g>
</g>
<!-- Node17&#45;&gt;Node18 -->
<g id="edge21" class="edge"><title>Node17&#45;&gt;Node18</title>
<path fill="none" stroke="midnightblue" d="M774.624,-130.496C818.292,-121.515 890.116,-106.743 944.395,-95.5788"/>
<polygon fill="midnightblue" stroke="midnightblue" points="945.225,-98.9814 954.315,-93.5385 943.815,-92.1249 945.225,-98.9814"/>
</g>
<!-- Node22 -->
<g id="node23" class="node"><title>Node22</title>
<polygon fill="white" stroke="#bfbfbf" points="1145.02,-0.5 1145.02,-28.5 1244.4,-28.5 1244.4,-0.5 1145.02,-0.5"/>
<text text-anchor="start" x="1153.02" y="-16.5" font-family="Helvetica,sans-Serif" font-size="10.00">boost/type_traits/is</text>
<text text-anchor="middle" x="1194.71" y="-6.5" font-family="Helvetica,sans-Serif" font-size="10.00">_class.hpp</text>
</g>
<!-- Node17&#45;&gt;Node22 -->
<g id="edge33" class="edge"><title>Node17&#45;&gt;Node22</title>
<path fill="none" stroke="midnightblue" d="M809.23,-130.475C910.943,-119.223 1083.63,-99.5123 1096.71,-94 1100.99,-92.1964 1142.98,-58.0237 1170.59,-35.3659"/>
<polygon fill="midnightblue" stroke="midnightblue" points="1173.13,-37.8049 1178.64,-28.7524 1168.69,-32.3963 1173.13,-37.8049"/>
</g>
<!-- Node23 -->
<g id="node24" class="node"><title>Node23</title>
<polygon fill="white" stroke="#bfbfbf" points="736.022,-0.5 736.022,-28.5 835.396,-28.5 835.396,-0.5 736.022,-0.5"/>
<text text-anchor="start" x="744.022" y="-16.5" font-family="Helvetica,sans-Serif" font-size="10.00">boost/type_traits/is</text>
<text text-anchor="middle" x="785.709" y="-6.5" font-family="Helvetica,sans-Serif" font-size="10.00">_base_of.hpp</text>
</g>
<!-- Node17&#45;&gt;Node23 -->
<g id="edge31" class="edge"><title>Node17&#45;&gt;Node23</title>
<path fill="none" stroke="midnightblue" d="M738.99,-130.43C746.497,-111.961 765.153,-66.0687 776.488,-38.1838"/>
<polygon fill="midnightblue" stroke="midnightblue" points="779.775,-39.3912 780.299,-28.8093 773.29,-36.7551 779.775,-39.3912"/>
</g>
<!-- Node24 -->
<g id="node25" class="node"><title>Node24</title>
<polygon fill="white" stroke="#bfbfbf" points="599.291,-5.5 599.291,-23.5 718.127,-23.5 718.127,-5.5 599.291,-5.5"/>
<text text-anchor="middle" x="658.709" y="-11.5" font-family="Helvetica,sans-Serif" font-size="10.00">boost/static_assert.hpp</text>
</g>
<!-- Node17&#45;&gt;Node24 -->
<g id="edge30" class="edge"><title>Node17&#45;&gt;Node24</title>
<path fill="none" stroke="midnightblue" d="M735.179,-130.145C733.933,-115.801 729.842,-86.0114 716.709,-65 707.675,-50.547 693.058,-38.1113 680.758,-29.3194"/>
<polygon fill="midnightblue" stroke="midnightblue" points="682.562,-26.3135 672.324,-23.5848 678.626,-32.1021 682.562,-26.3135"/>
</g>
<!-- Node26 -->
<g id="node27" class="node"><title>Node26</title>
<g id="a_node27"><a xlink:href="../../db/ddf/ocra__events_8h.html" target="_top" xlink:title="ocra/optim/ocra_events.h">
<polygon fill="white" stroke="black" points="801.569,-70.5 801.569,-88.5 929.849,-88.5 929.849,-70.5 801.569,-70.5"/>
<text text-anchor="middle" x="865.709" y="-76.5" font-family="Helvetica,sans-Serif" font-size="10.00">ocra/optim/ocra_events.h</text>
</a>
</g>
</g>
<!-- Node17&#45;&gt;Node26 -->
<g id="edge29" class="edge"><title>Node17&#45;&gt;Node26</title>
<path fill="none" stroke="midnightblue" d="M753.785,-130.435C775.588,-120.708 812.474,-104.251 837.907,-92.9041"/>
<polygon fill="midnightblue" stroke="midnightblue" points="839.661,-95.9539 847.367,-88.6831 836.809,-89.5613 839.661,-95.9539"/>
</g>
<!-- Node27 -->
<g id="node28" class="node"><title>Node27</title>
<polygon fill="white" stroke="#bfbfbf" points="464.022,-65.5 464.022,-93.5 563.396,-93.5 563.396,-65.5 464.022,-65.5"/>
<text text-anchor="start" x="472.022" y="-81.5" font-family="Helvetica,sans-Serif" font-size="10.00">boost/type_traits/is</text>
<text text-anchor="middle" x="513.709" y="-71.5" font-family="Helvetica,sans-Serif" font-size="10.00">_convertible.hpp</text>
</g>
<!-- Node17&#45;&gt;Node27 -->
<g id="edge32" class="edge"><title>Node17&#45;&gt;Node27</title>
<path fill="none" stroke="midnightblue" d="M704.841,-130.435C670.98,-121.589 615.815,-107.176 573.433,-96.1037"/>
<polygon fill="midnightblue" stroke="midnightblue" points="574.064,-92.6511 563.504,-93.5096 572.295,-99.4237 574.064,-92.6511"/>
</g>
<!-- Node19 -->
<g id="node20" class="node"><title>Node19</title>
<polygon fill="white" stroke="#bfbfbf" points="972.305,-5.5 972.305,-23.5 1031.11,-23.5 1031.11,-5.5 972.305,-5.5"/>
<text text-anchor="middle" x="1001.71" y="-11.5" font-family="Helvetica,sans-Serif" font-size="10.00">functional</text>
</g>
<!-- Node18&#45;&gt;Node19 -->
<g id="edge22" class="edge"><title>Node18&#45;&gt;Node19</title>
<path fill="none" stroke="midnightblue" d="M1014.39,-65.4464C1012.05,-56.2356 1008.89,-43.7759 1006.31,-33.6055"/>
<polygon fill="midnightblue" stroke="midnightblue" points="1009.65,-32.5608 1003.8,-23.7301 1002.87,-34.284 1009.65,-32.5608"/>
</g>
<!-- Node20 -->
<g id="node21" class="node"><title>Node20</title>
<polygon fill="white" stroke="#bfbfbf" points="329.145,-5.5 329.145,-23.5 386.273,-23.5 386.273,-5.5 329.145,-5.5"/>
<text text-anchor="middle" x="357.709" y="-11.5" font-family="Helvetica,sans-Serif" font-size="10.00">algorithm</text>
</g>
<!-- Node18&#45;&gt;Node20 -->
<g id="edge23" class="edge"><title>Node18&#45;&gt;Node20</title>
<path fill="none" stroke="midnightblue" d="M947.544,-66.1941C944.562,-65.771 941.607,-65.3704 938.709,-65 885.22,-58.1635 518.295,-28.4171 396.734,-18.6325"/>
<polygon fill="midnightblue" stroke="midnightblue" points="396.662,-15.1155 386.413,-17.8023 396.1,-22.093 396.662,-15.1155"/>
</g>
<!-- Node21 -->
<g id="node22" class="node"><title>Node21</title>
<polygon fill="white" stroke="#bfbfbf" points="1048.66,-5.5 1048.66,-23.5 1126.75,-23.5 1126.75,-5.5 1048.66,-5.5"/>
<text text-anchor="middle" x="1087.71" y="-11.5" font-family="Helvetica,sans-Serif" font-size="10.00">boost/any.hpp</text>
</g>
<!-- Node18&#45;&gt;Node21 -->
<g id="edge24" class="edge"><title>Node18&#45;&gt;Node21</title>
<path fill="none" stroke="midnightblue" d="M1032.21,-65.4464C1043.54,-55.2557 1059.28,-41.0881 1071.1,-30.444"/>
<polygon fill="midnightblue" stroke="midnightblue" points="1073.47,-33.0213 1078.56,-23.7301 1068.79,-27.8182 1073.47,-33.0213"/>
</g>
<!-- Node18&#45;&gt;Node22 -->
<g id="edge25" class="edge"><title>Node18&#45;&gt;Node22</title>
<path fill="none" stroke="midnightblue" d="M1054.38,-65.4464C1081.68,-55.7321 1119.12,-42.4041 1148.47,-31.9592"/>
<polygon fill="midnightblue" stroke="midnightblue" points="1149.83,-35.1876 1158.08,-28.5369 1147.49,-28.5929 1149.83,-35.1876"/>
</g>
<!-- Node18&#45;&gt;Node23 -->
<g id="edge26" class="edge"><title>Node18&#45;&gt;Node23</title>
<path fill="none" stroke="midnightblue" d="M969.638,-65.4464C933.088,-55.521 882.644,-41.8229 843.827,-31.2822"/>
<polygon fill="midnightblue" stroke="midnightblue" points="844.286,-27.7799 833.718,-28.5369 842.451,-34.5353 844.286,-27.7799"/>
</g>
<!-- Node18&#45;&gt;Node24 -->
<g id="edge27" class="edge"><title>Node18&#45;&gt;Node24</title>
<path fill="none" stroke="midnightblue" d="M947.498,-66.4981C944.529,-65.9917 941.589,-65.4907 938.709,-65 844.495,-48.9508 820.7,-46.3069 726.709,-29 720.794,-27.9109 714.598,-26.7326 708.455,-25.5415"/>
<polygon fill="midnightblue" stroke="midnightblue" points="708.713,-22.0256 698.226,-23.5382 707.367,-28.895 708.713,-22.0256"/>
</g>
<!-- Node25 -->
<g id="node26" class="node"><title>Node25</title>
<polygon fill="white" stroke="#bfbfbf" points="852.904,-0.5 852.904,-28.5 954.514,-28.5 954.514,-0.5 852.904,-0.5"/>
<text text-anchor="start" x="860.904" y="-16.5" font-family="Helvetica,sans-Serif" font-size="10.00">boost/ptr_container</text>
<text text-anchor="middle" x="903.709" y="-6.5" font-family="Helvetica,sans-Serif" font-size="10.00">/ptr_vector.hpp</text>
</g>
<!-- Node18&#45;&gt;Node25 -->
<g id="edge28" class="edge"><title>Node18&#45;&gt;Node25</title>
<path fill="none" stroke="midnightblue" d="M994.088,-65.4464C977.351,-56.1967 954.685,-43.6707 936.239,-33.4769"/>
<polygon fill="midnightblue" stroke="midnightblue" points="937.745,-30.3105 927.3,-28.5369 934.359,-36.4372 937.745,-30.3105"/>
</g>
<!-- Node28&#45;&gt;Node7 -->
<g id="edge35" class="edge"><title>Node28&#45;&gt;Node7</title>
<path fill="none" stroke="midnightblue" d="M464.77,-130.435C501.477,-120.249 564.775,-102.683 605.674,-91.3328"/>
<polygon fill="midnightblue" stroke="midnightblue" points="606.859,-94.6361 615.559,-88.5894 604.987,-87.891 606.859,-94.6361"/>
</g>
<!-- Node28&#45;&gt;Node10 -->
<g id="edge41" class="edge"><title>Node28&#45;&gt;Node10</title>
<path fill="none" stroke="midnightblue" d="M496.969,-132.099C504.951,-131.346 513.022,-130.624 520.709,-130 776.367,-109.235 842.302,-126.695 1096.71,-94 1109.07,-92.4115 1122.54,-89.9429 1134.28,-87.5488"/>
<polygon fill="midnightblue" stroke="midnightblue" points="1135.01,-90.9723 1144.07,-85.4881 1133.57,-84.1223 1135.01,-90.9723"/>
</g>
<!-- Node28&#45;&gt;Node11 -->
<g id="edge44" class="edge"><title>Node28&#45;&gt;Node11</title>
<path fill="none" stroke="midnightblue" d="M496.957,-131.942C504.941,-131.214 513.016,-130.542 520.709,-130 715.501,-116.279 1206.99,-131.103 1398.71,-94 1401.77,-93.4072 1404.92,-92.6117 1408.03,-91.7021"/>
<polygon fill="midnightblue" stroke="midnightblue" points="1409.29,-94.9722 1417.69,-88.5158 1407.1,-88.3246 1409.29,-94.9722"/>
</g>
<!-- Node28&#45;&gt;Node20 -->
<g id="edge42" class="edge"><title>Node28&#45;&gt;Node20</title>
<path fill="none" stroke="midnightblue" d="M374.657,-133.726C320.355,-128.06 246.813,-116.41 228.709,-94 199.716,-58.1116 271.545,-34.4687 319.28,-23.1949"/>
<polygon fill="midnightblue" stroke="midnightblue" points="320.078,-26.6029 329.056,-20.977 318.529,-19.7764 320.078,-26.6029"/>
</g>
<!-- Node28&#45;&gt;Node23 -->
<g id="edge38" class="edge"><title>Node28&#45;&gt;Node23</title>
<path fill="none" stroke="midnightblue" d="M435.125,-130.161C434.549,-114.731 435.763,-81.7754 454.709,-65 498.307,-26.3966 652.002,-38.5555 725.991,-28.7778"/>
<polygon fill="midnightblue" stroke="midnightblue" points="726.537,-32.2351 735.883,-27.245 725.465,-25.3177 726.537,-32.2351"/>
</g>
<!-- Node28&#45;&gt;Node24 -->
<g id="edge37" class="edge"><title>Node28&#45;&gt;Node24</title>
<path fill="none" stroke="midnightblue" d="M430.293,-130.182C421.395,-115.363 406.143,-84.153 421.709,-65 423.201,-63.1637 539.946,-39.4014 609.003,-25.4799"/>
<polygon fill="midnightblue" stroke="midnightblue" points="609.715,-28.907 618.827,-23.5011 608.333,-22.0448 609.715,-28.907"/>
</g>
<!-- Node28&#45;&gt;Node27 -->
<g id="edge39" class="edge"><title>Node28&#45;&gt;Node27</title>
<path fill="none" stroke="midnightblue" d="M446.555,-130.435C457.162,-122.548 473.72,-110.236 487.739,-99.8109"/>
<polygon fill="midnightblue" stroke="midnightblue" points="490.128,-102.396 496.064,-93.6203 485.951,-96.7788 490.128,-102.396"/>
</g>
<!-- Node28&#45;&gt;Node29 -->
<g id="edge36" class="edge"><title>Node28&#45;&gt;Node29</title>
<path fill="none" stroke="midnightblue" d="M374.7,-130.558C312.65,-122.269 213.789,-108.48 128.709,-94 122.392,-92.9248 115.763,-91.7228 109.217,-90.4913"/>
<polygon fill="midnightblue" stroke="midnightblue" points="109.535,-86.9886 99.0553,-88.5457 108.219,-93.8638 109.535,-86.9886"/>
</g>
<!-- Node30 -->
<g id="node31" class="node"><title>Node30</title>
<polygon fill="white" stroke="#bfbfbf" points="238.17,-65.5 238.17,-93.5 369.248,-93.5 369.248,-65.5 238.17,-65.5"/>
<text text-anchor="start" x="246.17" y="-81.5" font-family="Helvetica,sans-Serif" font-size="10.00">boost/type_traits/has</text>
<text text-anchor="middle" x="303.709" y="-71.5" font-family="Helvetica,sans-Serif" font-size="10.00">_nothrow_constructor.hpp</text>
</g>
<!-- Node28&#45;&gt;Node30 -->
<g id="edge40" class="edge"><title>Node28&#45;&gt;Node30</title>
<path fill="none" stroke="midnightblue" d="M417.355,-130.435C398.156,-121.999 367.438,-108.502 342.777,-97.6661"/>
<polygon fill="midnightblue" stroke="midnightblue" points="343.88,-94.328 333.317,-93.5096 341.064,-100.737 343.88,-94.328"/>
</g>
<!-- Node31 -->
<g id="node32" class="node"><title>Node31</title>
<polygon fill="white" stroke="#bfbfbf" points="137.537,-70.5 137.537,-88.5 181.881,-88.5 181.881,-70.5 137.537,-70.5"/>
<text text-anchor="middle" x="159.709" y="-76.5" font-family="Helvetica,sans-Serif" font-size="10.00">iosfwd</text>
</g>
<!-- Node28&#45;&gt;Node31 -->
<g id="edge43" class="edge"><title>Node28&#45;&gt;Node31</title>
<path fill="none" stroke="midnightblue" d="M376.365,-130.463C327.388,-123.124 256.341,-110.849 195.709,-94 193.43,-93.3667 191.092,-92.65 188.755,-91.8852"/>
<polygon fill="midnightblue" stroke="midnightblue" points="189.903,-88.5789 179.309,-88.5603 187.579,-95.1819 189.903,-88.5789"/>
</g>
<!-- Node33&#45;&gt;Node13 -->
<g id="edge51" class="edge"><title>Node33&#45;&gt;Node13</title>
<path fill="none" stroke="midnightblue" d="M827.164,-190.435C837.702,-181.448 854.974,-166.715 868.033,-155.576"/>
<polygon fill="midnightblue" stroke="midnightblue" points="870.557,-158.024 875.894,-148.872 866.014,-152.698 870.557,-158.024"/>
</g>
<!-- Node35 -->
<g id="node36" class="node"><title>Node35</title>
<polygon fill="white" stroke="#bfbfbf" points="637.652,-190.5 637.652,-208.5 689.766,-208.5 689.766,-190.5 637.652,-190.5"/>
<text text-anchor="middle" x="663.709" y="-196.5" font-family="Helvetica,sans-Serif" font-size="10.00">memory</text>
</g>
<!-- Node34&#45;&gt;Node35 -->
<g id="edge53" class="edge"><title>Node34&#45;&gt;Node35</title>
<path fill="none" stroke="midnightblue" d="M749.804,-250.435C733.478,-240.966 706.157,-225.12 686.672,-213.818"/>
<polygon fill="midnightblue" stroke="midnightblue" points="688.224,-210.673 677.818,-208.683 684.712,-216.728 688.224,-210.673"/>
</g>
</g>
</svg>
