<?xml version="1.0" encoding="UTF-8" standalone="no"?>
<!DOCTYPE svg PUBLIC "-//W3C//DTD SVG 1.1//EN"
 "http://www.w3.org/Graphics/SVG/1.1/DTD/svg11.dtd">
<!-- Generated by graphviz version 2.38.0 (20140413.2041)
 -->
<!-- Title: TaskState.cpp Pages: 1 -->
<svg width="777pt" height="202pt"
 viewBox="0.00 0.00 777.24 202.00" xmlns="http://www.w3.org/2000/svg" xmlns:xlink="http://www.w3.org/1999/xlink">
<g id="graph0" class="graph" transform="scale(1 1) rotate(0) translate(4 198)">
<title>TaskState.cpp</title>
<polygon fill="white" stroke="none" points="-4,4 -4,-198 773.241,-198 773.241,4 -4,4"/>
<!-- Node0 -->
<g id="node1" class="node"><title>Node0</title>
<polygon fill="#bfbfbf" stroke="black" points="185.608,-175.5 185.608,-193.5 264.421,-193.5 264.421,-175.5 185.608,-175.5"/>
<text text-anchor="middle" x="225.015" y="-181.5" font-family="Helvetica,sans-Serif" font-size="10.00">TaskState.cpp</text>
</g>
<!-- Node1 -->
<g id="node2" class="node"><title>Node1</title>
<g id="a_node2"><a xlink:href="../../d0/d8a/TaskState_8h.html" target="_top" xlink:title="ocra/control/TaskState.h">
<polygon fill="white" stroke="black" points="163.377,-120.5 163.377,-138.5 286.652,-138.5 286.652,-120.5 163.377,-120.5"/>
<text text-anchor="middle" x="225.015" y="-126.5" font-family="Helvetica,sans-Serif" font-size="10.00">ocra/control/TaskState.h</text>
</a>
</g>
</g>
<!-- Node0&#45;&gt;Node1 -->
<g id="edge1" class="edge"><title>Node0&#45;&gt;Node1</title>
<path fill="none" stroke="midnightblue" d="M225.015,-175.219C225.015,-168.177 225.015,-157.808 225.015,-148.828"/>
<polygon fill="midnightblue" stroke="midnightblue" points="228.515,-148.55 225.015,-138.55 221.515,-148.55 228.515,-148.55"/>
</g>
<!-- Node2 -->
<g id="node3" class="node"><title>Node2</title>
<polygon fill="white" stroke="#bfbfbf" points="0,-60.5 0,-78.5 66.0293,-78.5 66.0293,-60.5 0,-60.5"/>
<text text-anchor="middle" x="33.0146" y="-66.5" font-family="Helvetica,sans-Serif" font-size="10.00">Eigen/Core</text>
</g>
<!-- Node1&#45;&gt;Node2 -->
<g id="edge2" class="edge"><title>Node1&#45;&gt;Node2</title>
<path fill="none" stroke="midnightblue" d="M197.312,-120.485C167.166,-111.716 117.577,-97.152 75.0146,-84 72.5815,-83.2482 70.0719,-82.4639 67.5467,-81.6683"/>
<polygon fill="midnightblue" stroke="midnightblue" points="68.4495,-78.2827 57.8591,-78.5882 66.3285,-84.9537 68.4495,-78.2827"/>
</g>
<!-- Node3 -->
<g id="node4" class="node"><title>Node3</title>
<polygon fill="white" stroke="#bfbfbf" points="114.611,-0.5 114.611,-18.5 183.418,-18.5 183.418,-0.5 114.611,-0.5"/>
<text text-anchor="middle" x="149.015" y="-6.5" font-family="Helvetica,sans-Serif" font-size="10.00">Eigen/Lgsm</text>
</g>
<!-- Node1&#45;&gt;Node3 -->
<g id="edge3" class="edge"><title>Node1&#45;&gt;Node3</title>
<path fill="none" stroke="midnightblue" d="M221.585,-120.441C215.514,-106.545 202.084,-77.4109 187.015,-55 180.127,-44.7569 171.218,-34.2129 163.757,-25.961"/>
<polygon fill="midnightblue" stroke="midnightblue" points="166.272,-23.5255 156.908,-18.5691 161.137,-28.2832 166.272,-23.5255"/>
</g>
<!-- Node4 -->
<g id="node5" class="node"><title>Node4</title>
<g id="a_node5"><a xlink:href="../../df/d0a/Macros_8h.html" target="_top" xlink:title="ocra/util/Macros.h">
<polygon fill="white" stroke="black" points="83.5566,-60.5 83.5566,-78.5 178.473,-78.5 178.473,-60.5 83.5566,-60.5"/>
<text text-anchor="middle" x="131.015" y="-66.5" font-family="Helvetica,sans-Serif" font-size="10.00">ocra/util/Macros.h</text>
</a>
</g>
</g>
<!-- Node1&#45;&gt;Node4 -->
<g id="edge4" class="edge"><title>Node1&#45;&gt;Node4</title>
<path fill="none" stroke="midnightblue" d="M211.944,-120.435C196.667,-111.009 171.15,-95.2641 152.85,-83.9728"/>
<polygon fill="midnightblue" stroke="midnightblue" points="154.625,-80.9556 144.277,-78.6831 150.949,-86.9129 154.625,-80.9556"/>
</g>
<!-- Node6 -->
<g id="node7" class="node"><title>Node6</title>
<g id="a_node7"><a xlink:href="../../d5/ded/YarpUtilities_8h.html" target="_top" xlink:title="ocra/util/YarpUtilities.h">
<polygon fill="white" stroke="black" points="276.642,-60.5 276.642,-78.5 391.387,-78.5 391.387,-60.5 276.642,-60.5"/>
<text text-anchor="middle" x="334.015" y="-66.5" font-family="Helvetica,sans-Serif" font-size="10.00">ocra/util/YarpUtilities.h</text>
</a>
</g>
</g>
<!-- Node1&#45;&gt;Node6 -->
<g id="edge6" class="edge"><title>Node1&#45;&gt;Node6</title>
<path fill="none" stroke="midnightblue" d="M240.171,-120.435C258.128,-110.88 288.288,-94.8315 309.562,-83.5113"/>
<polygon fill="midnightblue" stroke="midnightblue" points="311.452,-86.4705 318.636,-78.6831 308.164,-80.2909 311.452,-86.4705"/>
</g>
<!-- Node10 -->
<g id="node11" class="node"><title>Node10</title>
<polygon fill="white" stroke="#bfbfbf" points="201.273,-0.5 201.273,-18.5 286.756,-18.5 286.756,-0.5 201.273,-0.5"/>
<text text-anchor="middle" x="244.015" y="-6.5" font-family="Helvetica,sans-Serif" font-size="10.00">yarp/os/Bottle.h</text>
</g>
<!-- Node1&#45;&gt;Node10 -->
<g id="edge22" class="edge"><title>Node1&#45;&gt;Node10</title>
<path fill="none" stroke="midnightblue" d="M226.321,-120.389C229.344,-101.611 236.887,-54.7676 241.082,-28.7111"/>
<polygon fill="midnightblue" stroke="midnightblue" points="244.565,-29.0966 242.7,-18.6674 237.654,-27.9838 244.565,-29.0966"/>
</g>
<!-- Node11 -->
<g id="node12" class="node"><title>Node11</title>
<g id="a_node12"><a xlink:href="../../da/d33/TaskYarpInterfaceVocab_8h.html" target="_top" xlink:title="ocra/control/TaskYarpInterface\lVocab.h">
<polygon fill="white" stroke="black" points="412.573,-55.5 412.573,-83.5 563.456,-83.5 563.456,-55.5 412.573,-55.5"/>
<text text-anchor="start" x="420.573" y="-71.5" font-family="Helvetica,sans-Serif" font-size="10.00">ocra/control/TaskYarpInterface</text>
<text text-anchor="middle" x="488.015" y="-61.5" font-family="Helvetica,sans-Serif" font-size="10.00">Vocab.h</text>
</a>
</g>
</g>
<!-- Node1&#45;&gt;Node11 -->
<g id="edge12" class="edge"><title>Node1&#45;&gt;Node11</title>
<path fill="none" stroke="midnightblue" d="M261.308,-120.496C301.864,-111.552 368.463,-96.8651 419.009,-85.718"/>
<polygon fill="midnightblue" stroke="midnightblue" points="419.88,-89.11 428.892,-83.5385 418.373,-82.2743 419.88,-89.11"/>
</g>
<!-- Node5 -->
<g id="node6" class="node"><title>Node5</title>
<polygon fill="white" stroke="#bfbfbf" points="44.958,-0.5 44.958,-18.5 97.0713,-18.5 97.0713,-0.5 44.958,-0.5"/>
<text text-anchor="middle" x="71.0146" y="-6.5" font-family="Helvetica,sans-Serif" font-size="10.00">memory</text>
</g>
<!-- Node4&#45;&gt;Node5 -->
<g id="edge5" class="edge"><title>Node4&#45;&gt;Node5</title>
<path fill="none" stroke="midnightblue" d="M122.672,-60.4353C113.463,-51.5331 98.4235,-36.9952 86.9409,-25.8954"/>
<polygon fill="midnightblue" stroke="midnightblue" points="89.2976,-23.3055 79.6751,-18.8718 84.4324,-28.3385 89.2976,-23.3055"/>
</g>
<!-- Node6&#45;&gt;Node3 -->
<g id="edge10" class="edge"><title>Node6&#45;&gt;Node3</title>
<path fill="none" stroke="midnightblue" d="M308.291,-60.4353C276.075,-50.335 220.718,-32.9798 184.492,-21.6227"/>
<polygon fill="midnightblue" stroke="midnightblue" points="185.406,-18.2414 174.817,-18.5894 183.312,-24.9208 185.406,-18.2414"/>
</g>
<!-- Node7 -->
<g id="node8" class="node"><title>Node7</title>
<polygon fill="white" stroke="#bfbfbf" points="395.842,-0.5 395.842,-18.5 450.187,-18.5 450.187,-0.5 395.842,-0.5"/>
<text text-anchor="middle" x="423.015" y="-6.5" font-family="Helvetica,sans-Serif" font-size="10.00">iostream</text>
</g>
<!-- Node6&#45;&gt;Node7 -->
<g id="edge7" class="edge"><title>Node6&#45;&gt;Node7</title>
<path fill="none" stroke="midnightblue" d="M346.39,-60.4353C360.656,-51.1382 384.355,-35.6942 401.625,-24.4393"/>
<polygon fill="midnightblue" stroke="midnightblue" points="403.991,-27.0753 410.458,-18.6831 400.169,-21.2107 403.991,-27.0753"/>
</g>
<!-- Node8 -->
<g id="node9" class="node"><title>Node8</title>
<polygon fill="white" stroke="#bfbfbf" points="468.399,-0.5 468.399,-18.5 511.63,-18.5 511.63,-0.5 468.399,-0.5"/>
<text text-anchor="middle" x="490.015" y="-6.5" font-family="Helvetica,sans-Serif" font-size="10.00">vector</text>
</g>
<!-- Node6&#45;&gt;Node8 -->
<g id="edge8" class="edge"><title>Node6&#45;&gt;Node8</title>
<path fill="none" stroke="midnightblue" d="M355.706,-60.4353C382.408,-50.5077 427.961,-33.5711 458.518,-22.2103"/>
<polygon fill="midnightblue" stroke="midnightblue" points="460.103,-25.355 468.257,-18.5894 457.664,-18.7938 460.103,-25.355"/>
</g>
<!-- Node9 -->
<g id="node10" class="node"><title>Node9</title>
<polygon fill="white" stroke="#bfbfbf" points="304.384,-0.5 304.384,-18.5 377.645,-18.5 377.645,-0.5 304.384,-0.5"/>
<text text-anchor="middle" x="341.015" y="-6.5" font-family="Helvetica,sans-Serif" font-size="10.00">Eigen/Dense</text>
</g>
<!-- Node6&#45;&gt;Node9 -->
<g id="edge9" class="edge"><title>Node6&#45;&gt;Node9</title>
<path fill="none" stroke="midnightblue" d="M334.988,-60.4353C335.969,-52.3035 337.518,-39.4692 338.8,-28.8485"/>
<polygon fill="midnightblue" stroke="midnightblue" points="342.281,-29.2191 340.004,-18.8718 335.331,-28.3803 342.281,-29.2191"/>
</g>
<!-- Node6&#45;&gt;Node10 -->
<g id="edge11" class="edge"><title>Node6&#45;&gt;Node10</title>
<path fill="none" stroke="midnightblue" d="M321.501,-60.4353C306.94,-51.0521 282.665,-35.4077 265.161,-24.1277"/>
<polygon fill="midnightblue" stroke="midnightblue" points="267.014,-21.1582 256.713,-18.6831 263.222,-27.0422 267.014,-21.1582"/>
</g>
<!-- Node11&#45;&gt;Node3 -->
<g id="edge16" class="edge"><title>Node11&#45;&gt;Node3</title>
<path fill="none" stroke="midnightblue" d="M412.478,-56.4973C355.058,-47.2277 273.84,-33.8064 193.97,-19.3184"/>
<polygon fill="midnightblue" stroke="midnightblue" points="194.197,-15.8021 183.732,-17.4538 192.943,-22.6889 194.197,-15.8021"/>
</g>
<!-- Node11&#45;&gt;Node7 -->
<g id="edge13" class="edge"><title>Node11&#45;&gt;Node7</title>
<path fill="none" stroke="midnightblue" d="M473.265,-55.3389C463.334,-46.4777 450.214,-34.7705 439.871,-25.5407"/>
<polygon fill="midnightblue" stroke="midnightblue" points="442.076,-22.8179 432.284,-18.7715 437.416,-28.0409 442.076,-22.8179"/>
</g>
<!-- Node11&#45;&gt;Node8 -->
<g id="edge14" class="edge"><title>Node11&#45;&gt;Node8</title>
<path fill="none" stroke="midnightblue" d="M488.468,-55.3389C488.738,-47.5305 489.083,-37.5122 489.379,-28.9265"/>
<polygon fill="midnightblue" stroke="midnightblue" points="492.883,-28.8862 489.729,-18.7715 485.887,-28.6449 492.883,-28.8862"/>
</g>
<!-- Node11&#45;&gt;Node9 -->
<g id="edge15" class="edge"><title>Node11&#45;&gt;Node9</title>
<path fill="none" stroke="midnightblue" d="M455.025,-55.4837C429.878,-45.5618 395.531,-32.0098 371.125,-22.3804"/>
<polygon fill="midnightblue" stroke="midnightblue" points="372.241,-19.058 361.654,-18.6434 369.672,-25.5694 372.241,-19.058"/>
</g>
<!-- Node11&#45;&gt;Node10 -->
<g id="edge17" class="edge"><title>Node11&#45;&gt;Node10</title>
<path fill="none" stroke="midnightblue" d="M433.256,-55.4837C389.346,-45.0459 328.535,-30.5908 287.814,-20.9113"/>
<polygon fill="midnightblue" stroke="midnightblue" points="288.455,-17.4663 277.917,-18.5587 286.836,-24.2765 288.455,-17.4663"/>
</g>
<!-- Node12 -->
<g id="node13" class="node"><title>Node12</title>
<polygon fill="white" stroke="#bfbfbf" points="653.451,-0.5 653.451,-18.5 710.579,-18.5 710.579,-0.5 653.451,-0.5"/>
<text text-anchor="middle" x="682.015" y="-6.5" font-family="Helvetica,sans-Serif" font-size="10.00">algorithm</text>
</g>
<!-- Node11&#45;&gt;Node12 -->
<g id="edge18" class="edge"><title>Node11&#45;&gt;Node12</title>
<path fill="none" stroke="midnightblue" d="M531.552,-55.4837C565.725,-45.2671 612.772,-31.2015 645.111,-21.5329"/>
<polygon fill="midnightblue" stroke="midnightblue" points="646.481,-24.7765 655.06,-18.5587 644.476,-18.0698 646.481,-24.7765"/>
</g>
<!-- Node13 -->
<g id="node14" class="node"><title>Node13</title>
<polygon fill="white" stroke="#bfbfbf" points="728.788,-0.5 728.788,-18.5 769.241,-18.5 769.241,-0.5 728.788,-0.5"/>
<text text-anchor="middle" x="749.015" y="-6.5" font-family="Helvetica,sans-Serif" font-size="10.00">string</text>
</g>
<!-- Node11&#45;&gt;Node13 -->
<g id="edge19" class="edge"><title>Node11&#45;&gt;Node13</title>
<path fill="none" stroke="midnightblue" d="M555.581,-55.4743C599.672,-46.6518 658.66,-34.2449 719.079,-19.094"/>
<polygon fill="midnightblue" stroke="midnightblue" points="719.95,-22.4841 728.786,-16.6389 718.233,-15.6978 719.95,-22.4841"/>
</g>
<!-- Node14 -->
<g id="node15" class="node"><title>Node14</title>
<polygon fill="white" stroke="#bfbfbf" points="529.507,-0.5 529.507,-18.5 570.522,-18.5 570.522,-0.5 529.507,-0.5"/>
<text text-anchor="middle" x="550.015" y="-6.5" font-family="Helvetica,sans-Serif" font-size="10.00">regex</text>
</g>
<!-- Node11&#45;&gt;Node14 -->
<g id="edge20" class="edge"><title>Node11&#45;&gt;Node14</title>
<path fill="none" stroke="midnightblue" d="M502.083,-55.3389C511.462,-46.5654 523.823,-35.002 533.643,-25.8156"/>
<polygon fill="midnightblue" stroke="midnightblue" points="536.261,-28.159 541.173,-18.7715 531.479,-23.0471 536.261,-28.159"/>
</g>
<!-- Node15 -->
<g id="node16" class="node"><title>Node15</title>
<polygon fill="white" stroke="#bfbfbf" points="588.453,-0.5 588.453,-18.5 635.576,-18.5 635.576,-0.5 588.453,-0.5"/>
<text text-anchor="middle" x="612.015" y="-6.5" font-family="Helvetica,sans-Serif" font-size="10.00">iterator</text>
</g>
<!-- Node11&#45;&gt;Node15 -->
<g id="edge21" class="edge"><title>Node11&#45;&gt;Node15</title>
<path fill="none" stroke="midnightblue" d="M515.843,-55.4837C536.678,-45.7382 565,-32.4905 585.509,-22.8977"/>
<polygon fill="midnightblue" stroke="midnightblue" points="587.029,-26.0507 594.605,-18.6434 584.064,-19.71 587.029,-26.0507"/>
</g>
</g>
</svg>
