<?xml version="1.0" encoding="UTF-8" standalone="no"?>
<!DOCTYPE svg PUBLIC "-//W3C//DTD SVG 1.1//EN"
 "http://www.w3.org/Graphics/SVG/1.1/DTD/svg11.dtd">
<!-- Generated by graphviz version 2.38.0 (20140413.2041)
 -->
<!-- Title: ocra::DynamicEquationFunction Pages: 1 -->
<svg width="1290pt" height="385pt"
 viewBox="0.00 0.00 1289.79 385.00" xmlns="http://www.w3.org/2000/svg" xmlns:xlink="http://www.w3.org/1999/xlink">
<g id="graph0" class="graph" transform="scale(1 1) rotate(0) translate(4 381)">
<title>ocra::DynamicEquationFunction</title>
<polygon fill="white" stroke="none" points="-4,4 -4,-381 1285.79,-381 1285.79,4 -4,4"/>
<!-- Node17 -->
<g id="node1" class="node"><title>Node17</title>
<polygon fill="#bfbfbf" stroke="black" points="1124.06,-83.5 1124.06,-101.5 1281.79,-101.5 1281.79,-83.5 1124.06,-83.5"/>
<text text-anchor="middle" x="1202.93" y="-89.5" font-family="Helvetica,sans-Serif" font-size="10.00">ocra::DynamicEquationFunction</text>
</g>
<!-- Node18 -->
<g id="node2" class="node"><title>Node18</title>
<g id="a_node2"><a xlink:href="../../de/d3a/classocra_1_1LinearFunction.html" target="_top" xlink:title="LinearFunction class. ">
<polygon fill="white" stroke="black" points="979.895,-195.5 979.895,-213.5 1087.06,-213.5 1087.06,-195.5 979.895,-195.5"/>
<text text-anchor="middle" x="1033.48" y="-201.5" font-family="Helvetica,sans-Serif" font-size="10.00">ocra::LinearFunction</text>
</a>
</g>
</g>
<!-- Node18&#45;&gt;Node17 -->
<g id="edge1" class="edge"><title>Node18&#45;&gt;Node17</title>
<path fill="none" stroke="midnightblue" d="M1056.77,-189.586C1091.89,-166.101 1159.04,-121.183 1188.03,-101.792"/>
<polygon fill="midnightblue" stroke="midnightblue" points="1054.54,-186.866 1048.18,-195.335 1058.44,-192.684 1054.54,-186.866"/>
</g>
<!-- Node19 -->
<g id="node3" class="node"><title>Node19</title>
<g id="a_node3"><a xlink:href="../../d2/d99/classocra_1_1Function.html" target="_top" xlink:title="Function class. ">
<polygon fill="white" stroke="black" points="828.383,-195.5 828.383,-213.5 907.747,-213.5 907.747,-195.5 828.383,-195.5"/>
<text text-anchor="middle" x="868.065" y="-201.5" font-family="Helvetica,sans-Serif" font-size="10.00">ocra::Function</text>
</a>
</g>
</g>
<!-- Node19&#45;&gt;Node18 -->
<g id="edge2" class="edge"><title>Node19&#45;&gt;Node18</title>
<path fill="none" stroke="midnightblue" d="M917.98,-204.5C937.475,-204.5 959.957,-204.5 979.809,-204.5"/>
<polygon fill="midnightblue" stroke="midnightblue" points="917.791,-201 907.791,-204.5 917.791,-208 917.791,-201"/>
</g>
<!-- Node20 -->
<g id="node4" class="node"><title>Node20</title>
<g id="a_node4"><a xlink:href="../../d3/d16/classocra_1_1ObserverSubject.html" target="_top" xlink:title="ocra::ObserverSubject">
<polygon fill="white" stroke="black" points="386.068,-194.5 386.068,-212.5 501.556,-212.5 501.556,-194.5 386.068,-194.5"/>
<text text-anchor="middle" x="443.812" y="-200.5" font-family="Helvetica,sans-Serif" font-size="10.00">ocra::ObserverSubject</text>
</a>
</g>
</g>
<!-- Node20&#45;&gt;Node19 -->
<g id="edge3" class="edge"><title>Node20&#45;&gt;Node19</title>
<path fill="none" stroke="midnightblue" d="M468.845,-217.823C495.62,-232.876 540.717,-255.584 582.994,-264.5 654.226,-279.523 675.455,-279.017 746.792,-264.5 789.323,-255.845 833.542,-228.093 854.545,-213.564"/>
<polygon fill="midnightblue" stroke="midnightblue" points="470.265,-214.603 459.849,-212.663 466.782,-220.675 470.265,-214.603"/>
</g>
<!-- Node36 -->
<g id="node20" class="node"><title>Node36</title>
<g id="a_node20"><a xlink:href="../../d2/dac/classocra_1_1Variable.html" target="_top" xlink:title="This class represents a variable in a mathematical sense. ">
<polygon fill="white" stroke="black" points="626.412,-42.5 626.412,-60.5 703.374,-60.5 703.374,-42.5 626.412,-42.5"/>
<text text-anchor="middle" x="664.893" y="-48.5" font-family="Helvetica,sans-Serif" font-size="10.00">ocra::Variable</text>
</a>
</g>
</g>
<!-- Node20&#45;&gt;Node36 -->
<g id="edge21" class="edge"><title>Node20&#45;&gt;Node36</title>
<path fill="none" stroke="midnightblue" d="M466.681,-188.463C488.207,-173.07 521.343,-147.746 545.994,-121.5 555.704,-111.163 571.175,-77.3391 582.994,-69.5 595.704,-61.0697 611.759,-56.5347 626.209,-54.1146"/>
<polygon fill="midnightblue" stroke="midnightblue" points="464.381,-185.802 458.226,-194.425 468.415,-191.523 464.381,-185.802"/>
</g>
<!-- Node21 -->
<g id="node5" class="node"><title>Node21</title>
<g id="a_node5"><a xlink:href="../../d2/d45/classocra_1_1Observer.html" target="_top" xlink:title="ocra::Observer">
<polygon fill="white" stroke="black" points="222.497,-227.5 222.497,-245.5 304.63,-245.5 304.63,-227.5 222.497,-227.5"/>
<text text-anchor="middle" x="263.563" y="-233.5" font-family="Helvetica,sans-Serif" font-size="10.00">ocra::Observer</text>
</a>
</g>
</g>
<!-- Node21&#45;&gt;Node20 -->
<g id="edge4" class="edge"><title>Node21&#45;&gt;Node20</title>
<path fill="none" stroke="midnightblue" d="M314.936,-227.174C339.695,-222.591 369.408,-217.09 393.959,-212.544"/>
<polygon fill="midnightblue" stroke="midnightblue" points="314.207,-223.75 305.011,-229.012 315.481,-230.633 314.207,-223.75"/>
</g>
<!-- Node22 -->
<g id="node6" class="node"><title>Node22</title>
<g id="a_node6"><a xlink:href="../../d4/dee/classocra_1_1ObserverBase.html" target="_top" xlink:title="ocra::ObserverBase\l\&lt; EVT_RESIZE \&gt;">
<polygon fill="white" stroke="black" points="40.2856,-293.5 40.2856,-321.5 145.211,-321.5 145.211,-293.5 40.2856,-293.5"/>
<text text-anchor="start" x="48.2856" y="-309.5" font-family="Helvetica,sans-Serif" font-size="10.00">ocra::ObserverBase</text>
<text text-anchor="middle" x="92.7485" y="-299.5" font-family="Helvetica,sans-Serif" font-size="10.00">&lt; EVT_RESIZE &gt;</text>
</a>
</g>
</g>
<!-- Node22&#45;&gt;Node21 -->
<g id="edge5" class="edge"><title>Node22&#45;&gt;Node21</title>
<path fill="none" stroke="midnightblue" d="M155.334,-294.047C165.579,-291.058 175.966,-287.549 185.497,-283.5 209.873,-273.144 235.651,-255.978 250.357,-245.507"/>
<polygon fill="midnightblue" stroke="midnightblue" points="154.285,-290.705 145.586,-296.754 156.158,-297.45 154.285,-290.705"/>
</g>
<!-- Node23 -->
<g id="node7" class="node"><title>Node23</title>
<g id="a_node7"><a xlink:href="../../d4/dee/classocra_1_1ObserverBase.html" target="_top" xlink:title="ocra::ObserverBase\l\&lt; EVT_CHANGE_DEPENDENCIES \&gt;">
<polygon fill="white" stroke="black" points="0,-246.5 0,-274.5 185.497,-274.5 185.497,-246.5 0,-246.5"/>
<text text-anchor="start" x="8" y="-262.5" font-family="Helvetica,sans-Serif" font-size="10.00">ocra::ObserverBase</text>
<text text-anchor="middle" x="92.7485" y="-252.5" font-family="Helvetica,sans-Serif" font-size="10.00">&lt; EVT_CHANGE_DEPENDENCIES &gt;</text>
</a>
</g>
</g>
<!-- Node23&#45;&gt;Node21 -->
<g id="edge6" class="edge"><title>Node23&#45;&gt;Node21</title>
<path fill="none" stroke="midnightblue" d="M195.725,-246.002C205,-244.684 213.979,-243.407 222.187,-242.24"/>
<polygon fill="midnightblue" stroke="midnightblue" points="194.974,-242.574 185.566,-247.447 195.959,-249.504 194.974,-242.574"/>
</g>
<!-- Node24 -->
<g id="node8" class="node"><title>Node24</title>
<g id="a_node8"><a xlink:href="../../d4/dee/classocra_1_1ObserverBase.html" target="_top" xlink:title="ocra::ObserverBase\l\&lt; EVT_CHANGE_VALUE \&gt;">
<polygon fill="white" stroke="black" points="23.4253,-199.5 23.4253,-227.5 162.072,-227.5 162.072,-199.5 23.4253,-199.5"/>
<text text-anchor="start" x="31.4253" y="-215.5" font-family="Helvetica,sans-Serif" font-size="10.00">ocra::ObserverBase</text>
<text text-anchor="middle" x="92.7485" y="-205.5" font-family="Helvetica,sans-Serif" font-size="10.00">&lt; EVT_CHANGE_VALUE &gt;</text>
</a>
</g>
</g>
<!-- Node24&#45;&gt;Node21 -->
<g id="edge7" class="edge"><title>Node24&#45;&gt;Node21</title>
<path fill="none" stroke="midnightblue" d="M172.466,-224.225C189.64,-226.565 207.13,-228.948 222.074,-230.984"/>
<polygon fill="midnightblue" stroke="midnightblue" points="172.793,-220.737 162.412,-222.855 171.848,-227.673 172.793,-220.737"/>
</g>
<!-- Node25 -->
<g id="node9" class="node"><title>Node25</title>
<g id="a_node9"><a xlink:href="../../dc/d77/classocra_1_1Subject.html" target="_top" xlink:title="ocra::Subject">
<polygon fill="white" stroke="black" points="226.381,-130.5 226.381,-148.5 300.746,-148.5 300.746,-130.5 226.381,-130.5"/>
<text text-anchor="middle" x="263.563" y="-136.5" font-family="Helvetica,sans-Serif" font-size="10.00">ocra::Subject</text>
</a>
</g>
</g>
<!-- Node25&#45;&gt;Node20 -->
<g id="edge8" class="edge"><title>Node25&#45;&gt;Node20</title>
<path fill="none" stroke="midnightblue" d="M299.448,-152.025C334.16,-164.488 386.585,-183.312 417.491,-194.409"/>
<polygon fill="midnightblue" stroke="midnightblue" points="300.319,-148.619 289.724,-148.534 297.953,-155.207 300.319,-148.619"/>
</g>
<!-- Node26 -->
<g id="node10" class="node"><title>Node26</title>
<g id="a_node10"><a xlink:href="../../dc/d29/classocra_1_1SubjectBase.html" target="_top" xlink:title="ocra::SubjectBase\&lt;\l EVT_RESIZE \&gt;">
<polygon fill="white" stroke="black" points="41.25,-152.5 41.25,-180.5 144.247,-180.5 144.247,-152.5 41.25,-152.5"/>
<text text-anchor="start" x="49.25" y="-168.5" font-family="Helvetica,sans-Serif" font-size="10.00">ocra::SubjectBase&lt;</text>
<text text-anchor="middle" x="92.7485" y="-158.5" font-family="Helvetica,sans-Serif" font-size="10.00"> EVT_RESIZE &gt;</text>
</a>
</g>
</g>
<!-- Node26&#45;&gt;Node25 -->
<g id="edge9" class="edge"><title>Node26&#45;&gt;Node25</title>
<path fill="none" stroke="midnightblue" d="M154.489,-156.785C178.489,-152.947 205.266,-148.664 226.162,-145.322"/>
<polygon fill="midnightblue" stroke="midnightblue" points="153.72,-153.364 144.399,-158.399 154.826,-160.276 153.72,-153.364"/>
</g>
<!-- Node27 -->
<g id="node11" class="node"><title>Node27</title>
<g id="a_node11"><a xlink:href="../../dc/d29/classocra_1_1SubjectBase.html" target="_top" xlink:title="ocra::SubjectBase\&lt;\l EVT_CHANGE_DEPENDENCIES \&gt;">
<polygon fill="white" stroke="black" points="2.91992,-105.5 2.91992,-133.5 182.577,-133.5 182.577,-105.5 2.91992,-105.5"/>
<text text-anchor="start" x="10.9199" y="-121.5" font-family="Helvetica,sans-Serif" font-size="10.00">ocra::SubjectBase&lt;</text>
<text text-anchor="middle" x="92.7485" y="-111.5" font-family="Helvetica,sans-Serif" font-size="10.00"> EVT_CHANGE_DEPENDENCIES &gt;</text>
</a>
</g>
</g>
<!-- Node27&#45;&gt;Node25 -->
<g id="edge10" class="edge"><title>Node27&#45;&gt;Node25</title>
<path fill="none" stroke="midnightblue" d="M192.668,-131.219C204.562,-132.628 216.06,-133.991 226.178,-135.189"/>
<polygon fill="midnightblue" stroke="midnightblue" points="192.948,-127.728 182.605,-130.027 192.124,-134.679 192.948,-127.728"/>
</g>
<!-- Node28 -->
<g id="node12" class="node"><title>Node28</title>
<g id="a_node12"><a xlink:href="../../dc/d29/classocra_1_1SubjectBase.html" target="_top" xlink:title="ocra::SubjectBase\&lt;\l EVT_CHANGE_VALUE \&gt;">
<polygon fill="white" stroke="black" points="26.3452,-58.5 26.3452,-86.5 159.152,-86.5 159.152,-58.5 26.3452,-58.5"/>
<text text-anchor="start" x="34.3452" y="-74.5" font-family="Helvetica,sans-Serif" font-size="10.00">ocra::SubjectBase&lt;</text>
<text text-anchor="middle" x="92.7485" y="-64.5" font-family="Helvetica,sans-Serif" font-size="10.00"> EVT_CHANGE_VALUE &gt;</text>
</a>
</g>
</g>
<!-- Node28&#45;&gt;Node25 -->
<g id="edge11" class="edge"><title>Node28&#45;&gt;Node25</title>
<path fill="none" stroke="midnightblue" d="M168.784,-89.4984C174.5,-91.3424 180.129,-93.342 185.497,-95.5 209.084,-104.981 234.281,-120.519 249.214,-130.367"/>
<polygon fill="midnightblue" stroke="midnightblue" points="169.7,-86.1186 159.114,-86.5415 167.653,-92.8126 169.7,-86.1186"/>
</g>
<!-- Node29 -->
<g id="node13" class="node"><title>Node29</title>
<g id="a_node13"><a xlink:href="../../dd/d68/classocra_1_1IFunctionProperties.html" target="_top" xlink:title="ocra::IFunctionProperties">
<polygon fill="white" stroke="black" points="601.034,-237.5 601.034,-255.5 728.752,-255.5 728.752,-237.5 601.034,-237.5"/>
<text text-anchor="middle" x="664.893" y="-243.5" font-family="Helvetica,sans-Serif" font-size="10.00">ocra::IFunctionProperties</text>
</a>
</g>
</g>
<!-- Node29&#45;&gt;Node19 -->
<g id="edge12" class="edge"><title>Node29&#45;&gt;Node19</title>
<path fill="none" stroke="midnightblue" d="M725.933,-235.571C751.956,-230.652 782.736,-224.589 810.383,-218.5 817.312,-216.974 824.69,-215.236 831.753,-213.515"/>
<polygon fill="midnightblue" stroke="midnightblue" points="725.022,-232.181 715.84,-237.467 726.314,-239.061 725.022,-232.181"/>
</g>
<!-- Node30 -->
<g id="node14" class="node"><title>Node30</title>
<polygon fill="white" stroke="#bfbfbf" points="582.994,-190.5 582.994,-218.5 746.792,-218.5 746.792,-190.5 582.994,-190.5"/>
<text text-anchor="start" x="590.994" y="-206.5" font-family="Helvetica,sans-Serif" font-size="10.00">OCRA_FUNCTION_INTERFACE</text>
<text text-anchor="middle" x="664.893" y="-196.5" font-family="Helvetica,sans-Serif" font-size="10.00">_INHERITANCEpublic</text>
</g>
<!-- Node30&#45;&gt;Node19 -->
<g id="edge13" class="edge"><title>Node30&#45;&gt;Node19</title>
<path fill="none" stroke="#8b1a1a" d="M757.118,-204.5C782.113,-204.5 807.885,-204.5 828.189,-204.5"/>
<polygon fill="#8b1a1a" stroke="#8b1a1a" points="756.848,-201 746.848,-204.5 756.848,-208 756.848,-201"/>
</g>
<!-- Node31 -->
<g id="node15" class="node"><title>Node31</title>
<g id="a_node15"><a xlink:href="../../db/de3/classocra_1_1NamedInstance.html" target="_top" xlink:title="ocra::NamedInstance">
<polygon fill="white" stroke="black" points="609.369,-153.5 609.369,-171.5 720.417,-171.5 720.417,-153.5 609.369,-153.5"/>
<text text-anchor="middle" x="664.893" y="-159.5" font-family="Helvetica,sans-Serif" font-size="10.00">ocra::NamedInstance</text>
</a>
</g>
</g>
<!-- Node31&#45;&gt;Node19 -->
<g id="edge14" class="edge"><title>Node31&#45;&gt;Node19</title>
<path fill="none" stroke="midnightblue" d="M718.894,-173.565C753.155,-180.718 796.987,-189.869 828.066,-196.358"/>
<polygon fill="midnightblue" stroke="midnightblue" points="719.554,-170.128 709.049,-171.51 718.123,-176.98 719.554,-170.128"/>
</g>
<!-- Node32 -->
<g id="node16" class="node"><title>Node32</title>
<g id="a_node16"><a xlink:href="../../d8/d24/classocra_1_1AbilitySet.html" target="_top" xlink:title="ocra::AbilitySet">
<polygon fill="white" stroke="black" points="623.546,-116.5 623.546,-134.5 706.24,-134.5 706.24,-116.5 623.546,-116.5"/>
<text text-anchor="middle" x="664.893" y="-122.5" font-family="Helvetica,sans-Serif" font-size="10.00">ocra::AbilitySet</text>
</a>
</g>
</g>
<!-- Node32&#45;&gt;Node19 -->
<g id="edge15" class="edge"><title>Node32&#45;&gt;Node19</title>
<path fill="none" stroke="midnightblue" d="M716.402,-134.689C726.596,-137.113 737.141,-140.041 746.792,-143.5 786.464,-157.719 829.808,-182.1 852.048,-195.323"/>
<polygon fill="midnightblue" stroke="midnightblue" points="716.895,-131.212 706.37,-132.431 715.358,-138.041 716.895,-131.212"/>
</g>
<!-- Node33 -->
<g id="node17" class="node"><title>Node33</title>
<g id="a_node17"><a xlink:href="../../d5/dc0/classocra_1_1CoupledInputOutputSize.html" target="_top" xlink:title="ocra::CoupledInputOutputSize">
<polygon fill="white" stroke="black" points="589.906,-79.5 589.906,-97.5 739.88,-97.5 739.88,-79.5 589.906,-79.5"/>
<text text-anchor="middle" x="664.893" y="-85.5" font-family="Helvetica,sans-Serif" font-size="10.00">ocra::CoupledInputOutputSize</text>
</a>
</g>
</g>
<!-- Node33&#45;&gt;Node19 -->
<g id="edge16" class="edge"><title>Node33&#45;&gt;Node19</title>
<path fill="none" stroke="midnightblue" d="M729.466,-100.303C735.415,-102.104 741.277,-104.16 746.792,-106.5 796.133,-127.438 841.441,-175.042 859.171,-195.202"/>
<polygon fill="midnightblue" stroke="midnightblue" points="729.989,-96.8159 719.417,-97.507 728.112,-103.56 729.989,-96.8159"/>
</g>
<!-- Node34 -->
<g id="node18" class="node"><title>Node34</title>
<polygon fill="white" stroke="#bfbfbf" points="636.6,-358.5 636.6,-376.5 693.186,-376.5 693.186,-358.5 636.6,-358.5"/>
<text text-anchor="middle" x="664.893" y="-364.5" font-family="Helvetica,sans-Serif" font-size="10.00">VectorXd</text>
</g>
<!-- Node34&#45;&gt;Node18 -->
<g id="edge24" class="edge"><title>Node34&#45;&gt;Node18</title>
<path fill="none" stroke="#9a32cd" stroke-dasharray="5,2" d="M703.358,-371.297C733.174,-373.004 775.532,-372.452 810.383,-360.5 904.873,-328.095 995.173,-242.377 1023.42,-213.869"/>
<polygon fill="#9a32cd" stroke="#9a32cd" points="703.584,-367.805 693.368,-370.614 703.106,-374.788 703.584,-367.805"/>
<text text-anchor="middle" x="868.065" y="-355.5" font-family="Helvetica,sans-Serif" font-size="10.00"> _b</text>
</g>
<!-- Node34&#45;&gt;Node19 -->
<g id="edge17" class="edge"><title>Node34&#45;&gt;Node19</title>
<path fill="none" stroke="#9a32cd" stroke-dasharray="5,2" d="M703.365,-361.121C740.566,-354.144 794.3,-342.125 810.383,-328.5 847.407,-297.135 861.482,-236.488 865.621,-213.569"/>
<polygon fill="#9a32cd" stroke="#9a32cd" points="702.563,-357.71 693.356,-362.952 703.823,-364.595 702.563,-357.71"/>
<text text-anchor="middle" x="787.587" y="-348.5" font-family="Helvetica,sans-Serif" font-size="10.00"> _value</text>
</g>
<!-- Node35 -->
<g id="node19" class="node"><title>Node35</title>
<polygon fill="white" stroke="#bfbfbf" points="637.167,-313.5 637.167,-331.5 692.62,-331.5 692.62,-313.5 637.167,-313.5"/>
<text text-anchor="middle" x="664.893" y="-319.5" font-family="Helvetica,sans-Serif" font-size="10.00">MatrixXd</text>
</g>
<!-- Node35&#45;&gt;Node19 -->
<g id="edge18" class="edge"><title>Node35&#45;&gt;Node19</title>
<path fill="none" stroke="#9a32cd" stroke-dasharray="5,2" d="M702.855,-323.567C734.047,-322.717 778.576,-317.224 810.383,-295.5 840.508,-274.925 857.73,-232.513 864.148,-213.762"/>
<polygon fill="#9a32cd" stroke="#9a32cd" points="702.78,-320.068 692.826,-323.694 702.869,-327.067 702.78,-320.068"/>
<text text-anchor="middle" x="787.587" y="-317.5" font-family="Helvetica,sans-Serif" font-size="10.00"> _jacobian</text>
</g>
<!-- Node36&#45;&gt;Node17 -->
<g id="edge25" class="edge"><title>Node36&#45;&gt;Node17</title>
<path fill="none" stroke="#9a32cd" stroke-dasharray="5,2" d="M713.792,-55.1637C806.479,-62.2531 1011.14,-77.9069 1123.79,-86.5233"/>
<polygon fill="#9a32cd" stroke="#9a32cd" points="713.824,-51.656 703.586,-54.383 713.29,-58.6356 713.824,-51.656"/>
<text text-anchor="middle" x="943.821" y="-96.5" font-family="Helvetica,sans-Serif" font-size="10.00"> _f</text>
<text text-anchor="middle" x="943.821" y="-86.5" font-family="Helvetica,sans-Serif" font-size="10.00">_tau</text>
<text text-anchor="middle" x="943.821" y="-76.5" font-family="Helvetica,sans-Serif" font-size="10.00">_q_ddot</text>
</g>
<!-- Node36&#45;&gt;Node19 -->
<g id="edge19" class="edge"><title>Node36&#45;&gt;Node19</title>
<path fill="none" stroke="#9a32cd" stroke-dasharray="5,2" d="M713.581,-57.8481C744.698,-64.2778 784.246,-77.0979 810.383,-102.5 839.148,-130.456 857.325,-176.185 864.084,-195.47"/>
<polygon fill="#9a32cd" stroke="#9a32cd" points="713.862,-54.3387 703.383,-55.9036 712.551,-61.2148 713.862,-54.3387"/>
<text text-anchor="middle" x="787.587" y="-104.5" font-family="Helvetica,sans-Serif" font-size="10.00"> x</text>
</g>
<!-- Node37 -->
<g id="node21" class="node"><title>Node37</title>
<g id="a_node21"><a xlink:href="../../d0/d29/classocra_1_1Component.html" target="_top" xlink:title="ocra::Component\&lt; Variable,\l CompositeVariable, VariableParenthood \&gt;">
<polygon fill="white" stroke="black" points="341.63,-37.5 341.63,-65.5 545.994,-65.5 545.994,-37.5 341.63,-37.5"/>
<text text-anchor="start" x="349.63" y="-53.5" font-family="Helvetica,sans-Serif" font-size="10.00">ocra::Component&lt; Variable,</text>
<text text-anchor="middle" x="443.812" y="-43.5" font-family="Helvetica,sans-Serif" font-size="10.00"> CompositeVariable, VariableParenthood &gt;</text>
</a>
</g>
</g>
<!-- Node37&#45;&gt;Node36 -->
<g id="edge20" class="edge"><title>Node37&#45;&gt;Node36</title>
<path fill="none" stroke="midnightblue" d="M556.086,-51.5C581.387,-51.5 606.565,-51.5 626.219,-51.5"/>
<polygon fill="midnightblue" stroke="midnightblue" points="556.016,-48.0001 546.016,-51.5 556.016,-55.0001 556.016,-48.0001"/>
</g>
<!-- Node38 -->
<g id="node22" class="node"><title>Node38</title>
<polygon fill="white" stroke="#bfbfbf" points="407.455,-0.5 407.455,-18.5 480.169,-18.5 480.169,-0.5 407.455,-0.5"/>
<text text-anchor="middle" x="443.812" y="-6.5" font-family="Helvetica,sans-Serif" font-size="10.00">noncopyable</text>
</g>
<!-- Node38&#45;&gt;Node36 -->
<g id="edge22" class="edge"><title>Node38&#45;&gt;Node36</title>
<path fill="none" stroke="#8b1a1a" d="M490.361,-17.3559C507.783,-20.4255 527.827,-24.0355 545.994,-27.5 572.873,-32.6259 603.116,-38.7903 626.241,-43.5881"/>
<polygon fill="#8b1a1a" stroke="#8b1a1a" points="490.894,-13.896 480.44,-15.6161 489.685,-20.7908 490.894,-13.896"/>
</g>
<!-- Node39 -->
<g id="node23" class="node"><title>Node39</title>
<g id="a_node23"><a xlink:href="../../dc/d20/classocra_1_1VariableHasRestrictedClassDerivation.html" target="_top" xlink:title="ocra::VariableHasRestricted\lClassDerivation">
<polygon fill="white" stroke="black" points="373.932,-84.5 373.932,-112.5 513.692,-112.5 513.692,-84.5 373.932,-84.5"/>
<text text-anchor="start" x="381.932" y="-100.5" font-family="Helvetica,sans-Serif" font-size="10.00">ocra::VariableHasRestricted</text>
<text text-anchor="middle" x="443.812" y="-90.5" font-family="Helvetica,sans-Serif" font-size="10.00">ClassDerivation</text>
</a>
</g>
</g>
<!-- Node39&#45;&gt;Node36 -->
<g id="edge23" class="edge"><title>Node39&#45;&gt;Node36</title>
<path fill="none" stroke="#8b1a1a" d="M520.171,-82.3331C555.915,-74.6648 597.056,-65.8388 626.136,-59.6001"/>
<polygon fill="#8b1a1a" stroke="#8b1a1a" points="519.29,-78.9423 510.247,-84.4621 520.759,-85.7866 519.29,-78.9423"/>
</g>
</g>
</svg>
