<?xml version="1.0" encoding="UTF-8" standalone="no"?>
<!DOCTYPE svg PUBLIC "-//W3C//DTD SVG 1.1//EN"
 "http://www.w3.org/Graphics/SVG/1.1/DTD/svg11.dtd">
<!-- Generated by graphviz version 2.38.0 (20140413.2041)
 -->
<!-- Title: ocra::DynamicEquationFunction Pages: 1 -->
<svg width="1290pt" height="419pt"
 viewBox="0.00 0.00 1289.79 419.00" xmlns="http://www.w3.org/2000/svg" xmlns:xlink="http://www.w3.org/1999/xlink">
<g id="graph0" class="graph" transform="scale(1 1) rotate(0) translate(4 415)">
<title>ocra::DynamicEquationFunction</title>
<polygon fill="white" stroke="none" points="-4,4 -4,-415 1285.79,-415 1285.79,4 -4,4"/>
<!-- Node17 -->
<g id="node1" class="node"><title>Node17</title>
<polygon fill="#bfbfbf" stroke="black" points="1124.06,-254.5 1124.06,-272.5 1281.79,-272.5 1281.79,-254.5 1124.06,-254.5"/>
<text text-anchor="middle" x="1202.93" y="-260.5" font-family="Helvetica,sans-Serif" font-size="10.00">ocra::DynamicEquationFunction</text>
</g>
<!-- Node18 -->
<g id="node2" class="node"><title>Node18</title>
<g id="a_node2"><a xlink:href="../../de/d3a/classocra_1_1LinearFunction.html" target="_top" xlink:title="LinearFunction class. ">
<polygon fill="white" stroke="black" points="979.895,-254.5 979.895,-272.5 1087.06,-272.5 1087.06,-254.5 979.895,-254.5"/>
<text text-anchor="middle" x="1033.48" y="-260.5" font-family="Helvetica,sans-Serif" font-size="10.00">ocra::LinearFunction</text>
</a>
</g>
</g>
<!-- Node18&#45;&gt;Node17 -->
<g id="edge1" class="edge"><title>Node18&#45;&gt;Node17</title>
<path fill="none" stroke="midnightblue" d="M1097.71,-263.5C1106.27,-263.5 1115.13,-263.5 1123.9,-263.5"/>
<polygon fill="midnightblue" stroke="midnightblue" points="1097.46,-260 1087.46,-263.5 1097.46,-267 1097.46,-260"/>
</g>
<!-- Node19 -->
<g id="node3" class="node"><title>Node19</title>
<g id="a_node3"><a xlink:href="../../d2/d99/classocra_1_1Function.html" target="_top" xlink:title="Function class. ">
<polygon fill="white" stroke="black" points="828.383,-185.5 828.383,-203.5 907.747,-203.5 907.747,-185.5 828.383,-185.5"/>
<text text-anchor="middle" x="868.065" y="-191.5" font-family="Helvetica,sans-Serif" font-size="10.00">ocra::Function</text>
</a>
</g>
</g>
<!-- Node19&#45;&gt;Node18 -->
<g id="edge2" class="edge"><title>Node19&#45;&gt;Node18</title>
<path fill="none" stroke="midnightblue" d="M899.897,-207.519C932.393,-221.24 982.723,-242.492 1011.11,-254.477"/>
<polygon fill="midnightblue" stroke="midnightblue" points="901.002,-204.186 890.428,-203.521 898.279,-210.635 901.002,-204.186"/>
</g>
<!-- Node20 -->
<g id="node4" class="node"><title>Node20</title>
<g id="a_node4"><a xlink:href="../../d3/d16/classocra_1_1ObserverSubject.html" target="_top" xlink:title="ocra::ObserverSubject">
<polygon fill="white" stroke="black" points="386.068,-248.5 386.068,-266.5 501.556,-266.5 501.556,-248.5 386.068,-248.5"/>
<text text-anchor="middle" x="443.812" y="-254.5" font-family="Helvetica,sans-Serif" font-size="10.00">ocra::ObserverSubject</text>
</a>
</g>
</g>
<!-- Node20&#45;&gt;Node19 -->
<g id="edge3" class="edge"><title>Node20&#45;&gt;Node19</title>
<path fill="none" stroke="midnightblue" d="M512.118,-257.345C573.665,-256.187 666.993,-251.876 746.792,-237.5 783.892,-230.816 824.757,-214.047 848.025,-203.535"/>
<polygon fill="midnightblue" stroke="midnightblue" points="511.705,-253.851 501.764,-257.515 511.821,-260.85 511.705,-253.851"/>
</g>
<!-- Node36 -->
<g id="node20" class="node"><title>Node36</title>
<g id="a_node20"><a xlink:href="../../d2/dac/classocra_1_1Variable.html" target="_top" xlink:title="This class represents a variable in a mathematical sense. ">
<polygon fill="white" stroke="black" points="626.412,-52.5 626.412,-70.5 703.374,-70.5 703.374,-52.5 626.412,-52.5"/>
<text text-anchor="middle" x="664.893" y="-58.5" font-family="Helvetica,sans-Serif" font-size="10.00">ocra::Variable</text>
</a>
</g>
</g>
<!-- Node20&#45;&gt;Node36 -->
<g id="edge21" class="edge"><title>Node20&#45;&gt;Node36</title>
<path fill="none" stroke="midnightblue" d="M457.883,-240.011C490.692,-196.204 574.51,-84.876 582.994,-79.5 595.877,-71.3365 611.961,-66.8474 626.387,-64.3894"/>
<polygon fill="midnightblue" stroke="midnightblue" points="454.891,-238.168 451.702,-248.272 460.496,-242.362 454.891,-238.168"/>
</g>
<!-- Node40 -->
<g id="node24" class="node"><title>Node40</title>
<g id="a_node24"><a xlink:href="../../d4/d00/classocra_1_1Model.html" target="_top" xlink:title="Model class. ">
<polygon fill="white" stroke="black" points="833.942,-336.5 833.942,-354.5 902.188,-354.5 902.188,-336.5 833.942,-336.5"/>
<text text-anchor="middle" x="868.065" y="-342.5" font-family="Helvetica,sans-Serif" font-size="10.00">ocra::Model</text>
</a>
</g>
</g>
<!-- Node20&#45;&gt;Node40 -->
<g id="edge26" class="edge"><title>Node20&#45;&gt;Node40</title>
<path fill="none" stroke="midnightblue" d="M461.397,-273.673C485.703,-296.145 533.511,-335.817 582.994,-351.5 669.988,-379.072 779.599,-363.66 833.708,-352.991"/>
<polygon fill="midnightblue" stroke="midnightblue" points="463.487,-270.833 453.815,-266.509 458.68,-275.921 463.487,-270.833"/>
</g>
<!-- Node21 -->
<g id="node5" class="node"><title>Node21</title>
<g id="a_node5"><a xlink:href="../../d2/d45/classocra_1_1Observer.html" target="_top" xlink:title="ocra::Observer">
<polygon fill="white" stroke="black" points="222.497,-316.5 222.497,-334.5 304.63,-334.5 304.63,-316.5 222.497,-316.5"/>
<text text-anchor="middle" x="263.563" y="-322.5" font-family="Helvetica,sans-Serif" font-size="10.00">ocra::Observer</text>
</a>
</g>
</g>
<!-- Node21&#45;&gt;Node20 -->
<g id="edge4" class="edge"><title>Node21&#45;&gt;Node20</title>
<path fill="none" stroke="midnightblue" d="M297.618,-312.89C332.87,-299.442 387.832,-278.474 419.044,-266.567"/>
<polygon fill="midnightblue" stroke="midnightblue" points="296.329,-309.636 288.234,-316.47 298.824,-316.176 296.329,-309.636"/>
</g>
<!-- Node22 -->
<g id="node6" class="node"><title>Node22</title>
<g id="a_node6"><a xlink:href="../../d4/dee/classocra_1_1ObserverBase.html" target="_top" xlink:title="ocra::ObserverBase\l\&lt; EVT_RESIZE \&gt;">
<polygon fill="white" stroke="black" points="40.2856,-382.5 40.2856,-410.5 145.211,-410.5 145.211,-382.5 40.2856,-382.5"/>
<text text-anchor="start" x="48.2856" y="-398.5" font-family="Helvetica,sans-Serif" font-size="10.00">ocra::ObserverBase</text>
<text text-anchor="middle" x="92.7485" y="-388.5" font-family="Helvetica,sans-Serif" font-size="10.00">&lt; EVT_RESIZE &gt;</text>
</a>
</g>
</g>
<!-- Node22&#45;&gt;Node21 -->
<g id="edge5" class="edge"><title>Node22&#45;&gt;Node21</title>
<path fill="none" stroke="midnightblue" d="M155.373,-383.87C165.614,-380.976 175.989,-377.535 185.497,-373.5 210.164,-363.032 236.055,-345.3 250.667,-334.567"/>
<polygon fill="midnightblue" stroke="midnightblue" points="154.382,-380.512 145.628,-386.48 156.193,-387.274 154.382,-380.512"/>
</g>
<!-- Node23 -->
<g id="node7" class="node"><title>Node23</title>
<g id="a_node7"><a xlink:href="../../d4/dee/classocra_1_1ObserverBase.html" target="_top" xlink:title="ocra::ObserverBase\l\&lt; EVT_CHANGE_DEPENDENCIES \&gt;">
<polygon fill="white" stroke="black" points="0,-335.5 0,-363.5 185.497,-363.5 185.497,-335.5 0,-335.5"/>
<text text-anchor="start" x="8" y="-351.5" font-family="Helvetica,sans-Serif" font-size="10.00">ocra::ObserverBase</text>
<text text-anchor="middle" x="92.7485" y="-341.5" font-family="Helvetica,sans-Serif" font-size="10.00">&lt; EVT_CHANGE_DEPENDENCIES &gt;</text>
</a>
</g>
</g>
<!-- Node23&#45;&gt;Node21 -->
<g id="edge6" class="edge"><title>Node23&#45;&gt;Node21</title>
<path fill="none" stroke="midnightblue" d="M195.725,-335.002C205,-333.684 213.979,-332.407 222.187,-331.24"/>
<polygon fill="midnightblue" stroke="midnightblue" points="194.974,-331.574 185.566,-336.447 195.959,-338.504 194.974,-331.574"/>
</g>
<!-- Node24 -->
<g id="node8" class="node"><title>Node24</title>
<g id="a_node8"><a xlink:href="../../d4/dee/classocra_1_1ObserverBase.html" target="_top" xlink:title="ocra::ObserverBase\l\&lt; EVT_CHANGE_VALUE \&gt;">
<polygon fill="white" stroke="black" points="23.4253,-288.5 23.4253,-316.5 162.072,-316.5 162.072,-288.5 23.4253,-288.5"/>
<text text-anchor="start" x="31.4253" y="-304.5" font-family="Helvetica,sans-Serif" font-size="10.00">ocra::ObserverBase</text>
<text text-anchor="middle" x="92.7485" y="-294.5" font-family="Helvetica,sans-Serif" font-size="10.00">&lt; EVT_CHANGE_VALUE &gt;</text>
</a>
</g>
</g>
<!-- Node24&#45;&gt;Node21 -->
<g id="edge7" class="edge"><title>Node24&#45;&gt;Node21</title>
<path fill="none" stroke="midnightblue" d="M172.466,-313.225C189.64,-315.565 207.13,-317.948 222.074,-319.984"/>
<polygon fill="midnightblue" stroke="midnightblue" points="172.793,-309.737 162.412,-311.855 171.848,-316.673 172.793,-309.737"/>
</g>
<!-- Node25 -->
<g id="node9" class="node"><title>Node25</title>
<g id="a_node9"><a xlink:href="../../dc/d77/classocra_1_1Subject.html" target="_top" xlink:title="ocra::Subject">
<polygon fill="white" stroke="black" points="226.381,-219.5 226.381,-237.5 300.746,-237.5 300.746,-219.5 226.381,-219.5"/>
<text text-anchor="middle" x="263.563" y="-225.5" font-family="Helvetica,sans-Serif" font-size="10.00">ocra::Subject</text>
</a>
</g>
</g>
<!-- Node25&#45;&gt;Node20 -->
<g id="edge8" class="edge"><title>Node25&#45;&gt;Node20</title>
<path fill="none" stroke="midnightblue" d="M311.07,-236.066C334.43,-239.867 362.898,-244.499 387.386,-248.483"/>
<polygon fill="midnightblue" stroke="midnightblue" points="311.497,-232.59 301.065,-234.439 310.373,-239.499 311.497,-232.59"/>
</g>
<!-- Node26 -->
<g id="node10" class="node"><title>Node26</title>
<g id="a_node10"><a xlink:href="../../dc/d29/classocra_1_1SubjectBase.html" target="_top" xlink:title="ocra::SubjectBase\&lt;\l EVT_RESIZE \&gt;">
<polygon fill="white" stroke="black" points="41.25,-241.5 41.25,-269.5 144.247,-269.5 144.247,-241.5 41.25,-241.5"/>
<text text-anchor="start" x="49.25" y="-257.5" font-family="Helvetica,sans-Serif" font-size="10.00">ocra::SubjectBase&lt;</text>
<text text-anchor="middle" x="92.7485" y="-247.5" font-family="Helvetica,sans-Serif" font-size="10.00"> EVT_RESIZE &gt;</text>
</a>
</g>
</g>
<!-- Node26&#45;&gt;Node25 -->
<g id="edge9" class="edge"><title>Node26&#45;&gt;Node25</title>
<path fill="none" stroke="midnightblue" d="M154.489,-245.785C178.489,-241.947 205.266,-237.664 226.162,-234.322"/>
<polygon fill="midnightblue" stroke="midnightblue" points="153.72,-242.364 144.399,-247.399 154.826,-249.276 153.72,-242.364"/>
</g>
<!-- Node27 -->
<g id="node11" class="node"><title>Node27</title>
<g id="a_node11"><a xlink:href="../../dc/d29/classocra_1_1SubjectBase.html" target="_top" xlink:title="ocra::SubjectBase\&lt;\l EVT_CHANGE_DEPENDENCIES \&gt;">
<polygon fill="white" stroke="black" points="2.91992,-194.5 2.91992,-222.5 182.577,-222.5 182.577,-194.5 2.91992,-194.5"/>
<text text-anchor="start" x="10.9199" y="-210.5" font-family="Helvetica,sans-Serif" font-size="10.00">ocra::SubjectBase&lt;</text>
<text text-anchor="middle" x="92.7485" y="-200.5" font-family="Helvetica,sans-Serif" font-size="10.00"> EVT_CHANGE_DEPENDENCIES &gt;</text>
</a>
</g>
</g>
<!-- Node27&#45;&gt;Node25 -->
<g id="edge10" class="edge"><title>Node27&#45;&gt;Node25</title>
<path fill="none" stroke="midnightblue" d="M192.668,-220.219C204.562,-221.628 216.06,-222.991 226.178,-224.189"/>
<polygon fill="midnightblue" stroke="midnightblue" points="192.948,-216.728 182.605,-219.027 192.124,-223.679 192.948,-216.728"/>
</g>
<!-- Node28 -->
<g id="node12" class="node"><title>Node28</title>
<g id="a_node12"><a xlink:href="../../dc/d29/classocra_1_1SubjectBase.html" target="_top" xlink:title="ocra::SubjectBase\&lt;\l EVT_CHANGE_VALUE \&gt;">
<polygon fill="white" stroke="black" points="26.3452,-147.5 26.3452,-175.5 159.152,-175.5 159.152,-147.5 26.3452,-147.5"/>
<text text-anchor="start" x="34.3452" y="-163.5" font-family="Helvetica,sans-Serif" font-size="10.00">ocra::SubjectBase&lt;</text>
<text text-anchor="middle" x="92.7485" y="-153.5" font-family="Helvetica,sans-Serif" font-size="10.00"> EVT_CHANGE_VALUE &gt;</text>
</a>
</g>
</g>
<!-- Node28&#45;&gt;Node25 -->
<g id="edge11" class="edge"><title>Node28&#45;&gt;Node25</title>
<path fill="none" stroke="midnightblue" d="M168.784,-178.498C174.5,-180.342 180.129,-182.342 185.497,-184.5 209.084,-193.981 234.281,-209.519 249.214,-219.367"/>
<polygon fill="midnightblue" stroke="midnightblue" points="169.7,-175.119 159.114,-175.542 167.653,-181.813 169.7,-175.119"/>
</g>
<!-- Node29 -->
<g id="node13" class="node"><title>Node29</title>
<g id="a_node13"><a xlink:href="../../dd/d68/classocra_1_1IFunctionProperties.html" target="_top" xlink:title="ocra::IFunctionProperties">
<polygon fill="white" stroke="black" points="601.034,-210.5 601.034,-228.5 728.752,-228.5 728.752,-210.5 601.034,-210.5"/>
<text text-anchor="middle" x="664.893" y="-216.5" font-family="Helvetica,sans-Serif" font-size="10.00">ocra::IFunctionProperties</text>
</a>
</g>
</g>
<!-- Node29&#45;&gt;Node19 -->
<g id="edge12" class="edge"><title>Node29&#45;&gt;Node19</title>
<path fill="none" stroke="midnightblue" d="M739.065,-210.407C769.217,-206.66 802.928,-202.47 828.182,-199.332"/>
<polygon fill="midnightblue" stroke="midnightblue" points="738.485,-206.952 728.993,-211.658 739.348,-213.898 738.485,-206.952"/>
</g>
<!-- Node30 -->
<g id="node14" class="node"><title>Node30</title>
<polygon fill="white" stroke="#bfbfbf" points="582.994,-163.5 582.994,-191.5 746.792,-191.5 746.792,-163.5 582.994,-163.5"/>
<text text-anchor="start" x="590.994" y="-179.5" font-family="Helvetica,sans-Serif" font-size="10.00">OCRA_FUNCTION_INTERFACE</text>
<text text-anchor="middle" x="664.893" y="-169.5" font-family="Helvetica,sans-Serif" font-size="10.00">_INHERITANCEpublic</text>
</g>
<!-- Node30&#45;&gt;Node19 -->
<g id="edge13" class="edge"><title>Node30&#45;&gt;Node19</title>
<path fill="none" stroke="#8b1a1a" d="M757.118,-185.209C782.113,-187.321 807.885,-189.499 828.189,-191.215"/>
<polygon fill="#8b1a1a" stroke="#8b1a1a" points="757.107,-181.696 746.848,-184.341 756.518,-188.671 757.107,-181.696"/>
</g>
<!-- Node31 -->
<g id="node15" class="node"><title>Node31</title>
<g id="a_node15"><a xlink:href="../../db/de3/classocra_1_1NamedInstance.html" target="_top" xlink:title="ocra::NamedInstance">
<polygon fill="white" stroke="black" points="609.369,-323.5 609.369,-341.5 720.417,-341.5 720.417,-323.5 609.369,-323.5"/>
<text text-anchor="middle" x="664.893" y="-329.5" font-family="Helvetica,sans-Serif" font-size="10.00">ocra::NamedInstance</text>
</a>
</g>
</g>
<!-- Node31&#45;&gt;Node19 -->
<g id="edge14" class="edge"><title>Node31&#45;&gt;Node19</title>
<path fill="none" stroke="midnightblue" d="M730.296,-322.558C757.531,-315.652 788.049,-304.021 810.383,-284.5 837.355,-260.924 855.999,-221.395 863.447,-203.631"/>
<polygon fill="midnightblue" stroke="midnightblue" points="729.355,-319.184 720.431,-324.894 730.969,-325.995 729.355,-319.184"/>
</g>
<!-- Node31&#45;&gt;Node40 -->
<g id="edge27" class="edge"><title>Node31&#45;&gt;Node40</title>
<path fill="none" stroke="midnightblue" d="M731.02,-336.709C765.322,-338.925 805.932,-341.55 833.799,-343.35"/>
<polygon fill="midnightblue" stroke="midnightblue" points="730.803,-333.187 720.598,-336.035 730.352,-340.173 730.803,-333.187"/>
</g>
<!-- Node32 -->
<g id="node16" class="node"><title>Node32</title>
<g id="a_node16"><a xlink:href="../../d8/d24/classocra_1_1AbilitySet.html" target="_top" xlink:title="ocra::AbilitySet">
<polygon fill="white" stroke="black" points="623.546,-89.5 623.546,-107.5 706.24,-107.5 706.24,-89.5 623.546,-89.5"/>
<text text-anchor="middle" x="664.893" y="-95.5" font-family="Helvetica,sans-Serif" font-size="10.00">ocra::AbilitySet</text>
</a>
</g>
</g>
<!-- Node32&#45;&gt;Node19 -->
<g id="edge15" class="edge"><title>Node32&#45;&gt;Node19</title>
<path fill="none" stroke="midnightblue" d="M716.598,-107.17C726.777,-109.634 737.267,-112.709 746.792,-116.5 790.957,-134.078 836.17,-168.845 856.283,-185.368"/>
<polygon fill="midnightblue" stroke="midnightblue" points="717.094,-103.694 706.569,-104.906 715.553,-110.522 717.094,-103.694"/>
</g>
<!-- Node33 -->
<g id="node17" class="node"><title>Node33</title>
<g id="a_node17"><a xlink:href="../../d5/dc0/classocra_1_1CoupledInputOutputSize.html" target="_top" xlink:title="ocra::CoupledInputOutputSize">
<polygon fill="white" stroke="black" points="589.906,-15.5 589.906,-33.5 739.88,-33.5 739.88,-15.5 589.906,-15.5"/>
<text text-anchor="middle" x="664.893" y="-21.5" font-family="Helvetica,sans-Serif" font-size="10.00">ocra::CoupledInputOutputSize</text>
</a>
</g>
</g>
<!-- Node33&#45;&gt;Node19 -->
<g id="edge16" class="edge"><title>Node33&#45;&gt;Node19</title>
<path fill="none" stroke="midnightblue" d="M728.694,-36.2198C734.899,-38.0458 741.028,-40.1295 746.792,-42.5 777.671,-55.2006 787.896,-57.8188 810.383,-82.5 839.737,-114.719 857.821,-164.955 864.329,-185.392"/>
<polygon fill="midnightblue" stroke="midnightblue" points="729.488,-32.8088 718.92,-33.5583 727.649,-39.5629 729.488,-32.8088"/>
</g>
<!-- Node34 -->
<g id="node18" class="node"><title>Node34</title>
<polygon fill="white" stroke="#bfbfbf" points="636.6,-286.5 636.6,-304.5 693.186,-304.5 693.186,-286.5 636.6,-286.5"/>
<text text-anchor="middle" x="664.893" y="-292.5" font-family="Helvetica,sans-Serif" font-size="10.00">VectorXd</text>
</g>
<!-- Node34&#45;&gt;Node18 -->
<g id="edge24" class="edge"><title>Node34&#45;&gt;Node18</title>
<path fill="none" stroke="#9a32cd" stroke-dasharray="5,2" d="M703.753,-292.195C769.478,-286.458 904.814,-274.644 979.712,-268.106"/>
<polygon fill="#9a32cd" stroke="#9a32cd" points="703.104,-288.738 693.446,-293.095 703.713,-295.712 703.104,-288.738"/>
<text text-anchor="middle" x="868.065" y="-283.5" font-family="Helvetica,sans-Serif" font-size="10.00"> _b</text>
</g>
<!-- Node34&#45;&gt;Node19 -->
<g id="edge17" class="edge"><title>Node34&#45;&gt;Node19</title>
<path fill="none" stroke="#9a32cd" stroke-dasharray="5,2" d="M703.191,-288.528C733.676,-281.658 777.029,-269.139 810.383,-248.5 830.493,-236.056 849.452,-215.581 859.534,-203.742"/>
<polygon fill="#9a32cd" stroke="#9a32cd" points="702.416,-285.114 693.379,-290.644 703.893,-291.957 702.416,-285.114"/>
<text text-anchor="middle" x="787.587" y="-272.5" font-family="Helvetica,sans-Serif" font-size="10.00"> _value</text>
</g>
<!-- Node35 -->
<g id="node19" class="node"><title>Node35</title>
<polygon fill="white" stroke="#bfbfbf" points="637.167,-126.5 637.167,-144.5 692.62,-144.5 692.62,-126.5 637.167,-126.5"/>
<text text-anchor="middle" x="664.893" y="-132.5" font-family="Helvetica,sans-Serif" font-size="10.00">MatrixXd</text>
</g>
<!-- Node35&#45;&gt;Node19 -->
<g id="edge18" class="edge"><title>Node35&#45;&gt;Node19</title>
<path fill="none" stroke="#9a32cd" stroke-dasharray="5,2" d="M703.078,-143.191C716.861,-146.195 732.589,-149.803 746.792,-153.5 775.338,-160.93 782.48,-162.934 810.383,-172.5 821.866,-176.437 834.471,-181.276 844.872,-185.413"/>
<polygon fill="#9a32cd" stroke="#9a32cd" points="703.487,-139.699 692.975,-141.021 702.017,-146.543 703.487,-139.699"/>
<text text-anchor="middle" x="787.587" y="-174.5" font-family="Helvetica,sans-Serif" font-size="10.00"> _jacobian</text>
</g>
<!-- Node36&#45;&gt;Node17 -->
<g id="edge28" class="edge"><title>Node36&#45;&gt;Node17</title>
<path fill="none" stroke="#9a32cd" stroke-dasharray="5,2" d="M713.76,-64.9642C742.261,-67.8838 778.894,-73.1488 810.383,-82.5 964.371,-128.229 1135.2,-224.399 1186.53,-254.378"/>
<polygon fill="#9a32cd" stroke="#9a32cd" points="713.942,-61.4656 703.652,-63.9915 713.271,-68.4334 713.942,-61.4656"/>
<text text-anchor="middle" x="943.821" y="-161.5" font-family="Helvetica,sans-Serif" font-size="10.00"> _f</text>
<text text-anchor="middle" x="943.821" y="-151.5" font-family="Helvetica,sans-Serif" font-size="10.00">_tau</text>
<text text-anchor="middle" x="943.821" y="-141.5" font-family="Helvetica,sans-Serif" font-size="10.00">_q_ddot</text>
</g>
<!-- Node36&#45;&gt;Node19 -->
<g id="edge19" class="edge"><title>Node36&#45;&gt;Node19</title>
<path fill="none" stroke="#9a32cd" stroke-dasharray="5,2" d="M713.709,-68.8965C744.35,-75.7464 783.306,-88.6403 810.383,-112.5 835.053,-134.239 854.326,-168.878 862.624,-185.294"/>
<polygon fill="#9a32cd" stroke="#9a32cd" points="714.17,-65.4173 703.665,-66.7981 712.738,-72.2694 714.17,-65.4173"/>
<text text-anchor="middle" x="787.587" y="-114.5" font-family="Helvetica,sans-Serif" font-size="10.00"> x</text>
</g>
<!-- Node37 -->
<g id="node21" class="node"><title>Node37</title>
<g id="a_node21"><a xlink:href="../../d0/d29/classocra_1_1Component.html" target="_top" xlink:title="ocra::Component\&lt; Variable,\l CompositeVariable, VariableParenthood \&gt;">
<polygon fill="white" stroke="black" points="341.63,-0.5 341.63,-28.5 545.994,-28.5 545.994,-0.5 341.63,-0.5"/>
<text text-anchor="start" x="349.63" y="-16.5" font-family="Helvetica,sans-Serif" font-size="10.00">ocra::Component&lt; Variable,</text>
<text text-anchor="middle" x="443.812" y="-6.5" font-family="Helvetica,sans-Serif" font-size="10.00"> CompositeVariable, VariableParenthood &gt;</text>
</a>
</g>
</g>
<!-- Node37&#45;&gt;Node36 -->
<g id="edge20" class="edge"><title>Node37&#45;&gt;Node36</title>
<path fill="none" stroke="midnightblue" d="M520.171,-30.6669C555.915,-38.3352 597.056,-47.1612 626.136,-53.3999"/>
<polygon fill="midnightblue" stroke="midnightblue" points="520.759,-27.2134 510.247,-28.5379 519.29,-34.0577 520.759,-27.2134"/>
</g>
<!-- Node38 -->
<g id="node22" class="node"><title>Node38</title>
<polygon fill="white" stroke="#bfbfbf" points="407.455,-94.5 407.455,-112.5 480.169,-112.5 480.169,-94.5 407.455,-94.5"/>
<text text-anchor="middle" x="443.812" y="-100.5" font-family="Helvetica,sans-Serif" font-size="10.00">noncopyable</text>
</g>
<!-- Node38&#45;&gt;Node36 -->
<g id="edge22" class="edge"><title>Node38&#45;&gt;Node36</title>
<path fill="none" stroke="#8b1a1a" d="M490.33,-95.0232C507.748,-91.7609 527.798,-87.9833 545.994,-84.5 572.826,-79.3636 603.07,-73.4613 626.207,-68.9219"/>
<polygon fill="#8b1a1a" stroke="#8b1a1a" points="489.598,-91.5994 480.412,-96.8784 490.885,-98.48 489.598,-91.5994"/>
</g>
<!-- Node39 -->
<g id="node23" class="node"><title>Node39</title>
<g id="a_node23"><a xlink:href="../../dc/d20/classocra_1_1VariableHasRestrictedClassDerivation.html" target="_top" xlink:title="ocra::VariableHasRestricted\lClassDerivation">
<polygon fill="white" stroke="black" points="373.932,-47.5 373.932,-75.5 513.692,-75.5 513.692,-47.5 373.932,-47.5"/>
<text text-anchor="start" x="381.932" y="-63.5" font-family="Helvetica,sans-Serif" font-size="10.00">ocra::VariableHasRestricted</text>
<text text-anchor="middle" x="443.812" y="-53.5" font-family="Helvetica,sans-Serif" font-size="10.00">ClassDerivation</text>
</a>
</g>
</g>
<!-- Node39&#45;&gt;Node36 -->
<g id="edge23" class="edge"><title>Node39&#45;&gt;Node36</title>
<path fill="none" stroke="#8b1a1a" d="M523.996,-61.5C558.816,-61.5 598.079,-61.5 626.126,-61.5"/>
<polygon fill="#8b1a1a" stroke="#8b1a1a" points="523.83,-58.0001 513.83,-61.5 523.83,-65.0001 523.83,-58.0001"/>
</g>
<!-- Node40&#45;&gt;Node17 -->
<g id="edge25" class="edge"><title>Node40&#45;&gt;Node17</title>
<path fill="none" stroke="#9a32cd" stroke-dasharray="5,2" d="M912.272,-334.856C978.309,-318.588 1103.19,-287.823 1165.15,-272.56"/>
<polygon fill="#9a32cd" stroke="#9a32cd" points="911.07,-331.547 902.198,-337.338 912.745,-338.344 911.07,-331.547"/>
<text text-anchor="middle" x="1033.48" y="-320.5" font-family="Helvetica,sans-Serif" font-size="10.00"> _model</text>
</g>
</g>
</svg>
