<?xml version="1.0" encoding="UTF-8" standalone="no"?>
<!DOCTYPE svg PUBLIC "-//W3C//DTD SVG 1.1//EN"
 "http://www.w3.org/Graphics/SVG/1.1/DTD/svg11.dtd">
<!-- Generated by graphviz version 2.38.0 (20140413.2041)
 -->
<!-- Title: ocra::FullDynamicEquationFunction::Pimpl Pages: 1 -->
<svg width="1249pt" height="272pt"
 viewBox="0.00 0.00 1248.65 272.00" xmlns="http://www.w3.org/2000/svg" xmlns:xlink="http://www.w3.org/1999/xlink">
<g id="graph0" class="graph" transform="scale(1 1) rotate(0) translate(4 268)">
<title>ocra::FullDynamicEquationFunction::Pimpl</title>
<polygon fill="white" stroke="none" points="-4,4 -4,-268 1244.65,-268 1244.65,4 -4,4"/>
<!-- Node1 -->
<g id="node1" class="node"><title>Node1</title>
<polygon fill="#bfbfbf" stroke="black" points="1105.16,-110.5 1105.16,-138.5 1240.65,-138.5 1240.65,-110.5 1105.16,-110.5"/>
<text text-anchor="start" x="1113.16" y="-126.5" font-family="Helvetica,sans-Serif" font-size="10.00">ocra::FullDynamicEquation</text>
<text text-anchor="middle" x="1172.91" y="-116.5" font-family="Helvetica,sans-Serif" font-size="10.00">Function::Pimpl</text>
</g>
<!-- Node2 -->
<g id="node2" class="node"><title>Node2</title>
<g id="a_node2"><a xlink:href="../../d2/d7c/classocra_1_1CompositeVariable.html" target="_top" xlink:title="A concatenation of base variables and other composite variables. ">
<polygon fill="white" stroke="black" points="824.358,-209.5 824.358,-227.5 949.118,-227.5 949.118,-209.5 824.358,-209.5"/>
<text text-anchor="middle" x="886.738" y="-215.5" font-family="Helvetica,sans-Serif" font-size="10.00">ocra::CompositeVariable</text>
</a>
</g>
</g>
<!-- Node2&#45;&gt;Node1 -->
<g id="edge1" class="edge"><title>Node2&#45;&gt;Node1</title>
<path fill="none" stroke="#9a32cd" stroke-dasharray="5,2" d="M959.664,-214.029C998.575,-209.707 1046.79,-201.208 1087.16,-184.5 1113.97,-173.399 1140.58,-152.53 1156.63,-138.569"/>
<polygon fill="#9a32cd" stroke="#9a32cd" points="959.051,-210.574 949.468,-215.09 959.776,-217.536 959.051,-210.574"/>
<text text-anchor="middle" x="1027.14" y="-215.5" font-family="Helvetica,sans-Serif" font-size="10.00"> _chi</text>
</g>
<!-- Node3 -->
<g id="node3" class="node"><title>Node3</title>
<g id="a_node3"><a xlink:href="../../d7/d79/classocra_1_1Composite.html" target="_top" xlink:title="ocra::Composite\&lt; Variable,\l CompositeVariable, VariableParenthood \&gt;">
<polygon fill="white" stroke="black" points="582.994,-206.5 582.994,-234.5 787.358,-234.5 787.358,-206.5 582.994,-206.5"/>
<text text-anchor="start" x="590.994" y="-222.5" font-family="Helvetica,sans-Serif" font-size="10.00">ocra::Composite&lt; Variable,</text>
<text text-anchor="middle" x="685.176" y="-212.5" font-family="Helvetica,sans-Serif" font-size="10.00"> CompositeVariable, VariableParenthood &gt;</text>
</a>
</g>
</g>
<!-- Node3&#45;&gt;Node2 -->
<g id="edge2" class="edge"><title>Node3&#45;&gt;Node2</title>
<path fill="none" stroke="midnightblue" d="M797.685,-219.382C806.742,-219.292 815.669,-219.202 824.161,-219.117"/>
<polygon fill="midnightblue" stroke="midnightblue" points="797.383,-215.885 787.419,-219.485 797.453,-222.885 797.383,-215.885"/>
</g>
<!-- Node4 -->
<g id="node4" class="node"><title>Node4</title>
<g id="a_node4"><a xlink:href="../../d2/dac/classocra_1_1Variable.html" target="_top" xlink:title="This class represents a variable in a mathematical sense. ">
<polygon fill="white" stroke="black" points="646.695,-165.5 646.695,-183.5 723.657,-183.5 723.657,-165.5 646.695,-165.5"/>
<text text-anchor="middle" x="685.176" y="-171.5" font-family="Helvetica,sans-Serif" font-size="10.00">ocra::Variable</text>
</a>
</g>
</g>
<!-- Node4&#45;&gt;Node1 -->
<g id="edge21" class="edge"><title>Node4&#45;&gt;Node1</title>
<path fill="none" stroke="#9a32cd" stroke-dasharray="5,2" d="M733.946,-174.648C809.49,-174.156 960.921,-170.216 1087.16,-148.5 1100.87,-146.141 1115.54,-142.426 1128.76,-138.618"/>
<polygon fill="#9a32cd" stroke="#9a32cd" points="733.783,-171.149 723.8,-174.696 733.817,-178.149 733.783,-171.149"/>
<text text-anchor="middle" x="886.738" y="-185.5" font-family="Helvetica,sans-Serif" font-size="10.00"> _fc</text>
<text text-anchor="middle" x="886.738" y="-175.5" font-family="Helvetica,sans-Serif" font-size="10.00">_tau</text>
</g>
<!-- Node4&#45;&gt;Node2 -->
<g id="edge3" class="edge"><title>Node4&#45;&gt;Node2</title>
<path fill="none" stroke="midnightblue" d="M733.865,-184.808C750.765,-188.477 769.913,-192.653 787.358,-196.5 806.5,-200.721 827.724,-205.46 845.543,-209.455"/>
<polygon fill="midnightblue" stroke="midnightblue" points="734.183,-181.296 723.668,-182.597 732.699,-188.137 734.183,-181.296"/>
</g>
<!-- Node5 -->
<g id="node5" class="node"><title>Node5</title>
<g id="a_node5"><a xlink:href="../../d0/d29/classocra_1_1Component.html" target="_top" xlink:title="ocra::Component\&lt; Variable,\l CompositeVariable, VariableParenthood \&gt;">
<polygon fill="white" stroke="black" points="341.63,-138.5 341.63,-166.5 545.994,-166.5 545.994,-138.5 341.63,-138.5"/>
<text text-anchor="start" x="349.63" y="-154.5" font-family="Helvetica,sans-Serif" font-size="10.00">ocra::Component&lt; Variable,</text>
<text text-anchor="middle" x="443.812" y="-144.5" font-family="Helvetica,sans-Serif" font-size="10.00"> CompositeVariable, VariableParenthood &gt;</text>
</a>
</g>
</g>
<!-- Node5&#45;&gt;Node4 -->
<g id="edge4" class="edge"><title>Node5&#45;&gt;Node4</title>
<path fill="none" stroke="midnightblue" d="M556.37,-162.753C588.856,-165.739 622.144,-168.799 646.601,-171.046"/>
<polygon fill="midnightblue" stroke="midnightblue" points="556.602,-159.26 546.324,-161.83 555.962,-166.231 556.602,-159.26"/>
</g>
<!-- Node6 -->
<g id="node6" class="node"><title>Node6</title>
<g id="a_node6"><a xlink:href="../../d3/d16/classocra_1_1ObserverSubject.html" target="_top" xlink:title="ocra::ObserverSubject">
<polygon fill="white" stroke="black" points="386.068,-101.5 386.068,-119.5 501.556,-119.5 501.556,-101.5 386.068,-101.5"/>
<text text-anchor="middle" x="443.812" y="-107.5" font-family="Helvetica,sans-Serif" font-size="10.00">ocra::ObserverSubject</text>
</a>
</g>
</g>
<!-- Node6&#45;&gt;Node4 -->
<g id="edge5" class="edge"><title>Node6&#45;&gt;Node4</title>
<path fill="none" stroke="midnightblue" d="M511.612,-120.964C523.14,-123.174 534.96,-125.698 545.994,-128.5 586.92,-138.894 633.254,-155.302 660.524,-165.455"/>
<polygon fill="midnightblue" stroke="midnightblue" points="512.054,-117.487 501.583,-119.104 510.777,-124.369 512.054,-117.487"/>
</g>
<!-- Node18 -->
<g id="node18" class="node"><title>Node18</title>
<g id="a_node18"><a xlink:href="../../d4/d00/classocra_1_1Model.html" target="_top" xlink:title="Model class. ">
<polygon fill="white" stroke="black" points="651.053,-77.5 651.053,-95.5 719.299,-95.5 719.299,-77.5 651.053,-77.5"/>
<text text-anchor="middle" x="685.176" y="-83.5" font-family="Helvetica,sans-Serif" font-size="10.00">ocra::Model</text>
</a>
</g>
</g>
<!-- Node6&#45;&gt;Node18 -->
<g id="edge18" class="edge"><title>Node6&#45;&gt;Node18</title>
<path fill="none" stroke="midnightblue" d="M511.887,-103.775C557.178,-99.2335 615.017,-93.4343 650.823,-89.8442"/>
<polygon fill="midnightblue" stroke="midnightblue" points="511.443,-100.302 501.842,-104.782 512.141,-107.267 511.443,-100.302"/>
</g>
<!-- Node7 -->
<g id="node7" class="node"><title>Node7</title>
<g id="a_node7"><a xlink:href="../../d2/d45/classocra_1_1Observer.html" target="_top" xlink:title="ocra::Observer">
<polygon fill="white" stroke="black" points="222.497,-169.5 222.497,-187.5 304.63,-187.5 304.63,-169.5 222.497,-169.5"/>
<text text-anchor="middle" x="263.563" y="-175.5" font-family="Helvetica,sans-Serif" font-size="10.00">ocra::Observer</text>
</a>
</g>
</g>
<!-- Node7&#45;&gt;Node6 -->
<g id="edge6" class="edge"><title>Node7&#45;&gt;Node6</title>
<path fill="none" stroke="midnightblue" d="M283.71,-162.952C298.618,-151.651 320.299,-136.916 341.63,-128.5 355.571,-123 371.258,-119.171 386.043,-116.509"/>
<polygon fill="midnightblue" stroke="midnightblue" points="281.509,-160.23 275.768,-169.135 285.809,-165.753 281.509,-160.23"/>
</g>
<!-- Node8 -->
<g id="node8" class="node"><title>Node8</title>
<g id="a_node8"><a xlink:href="../../d4/dee/classocra_1_1ObserverBase.html" target="_top" xlink:title="ocra::ObserverBase\l\&lt; EVT_RESIZE \&gt;">
<polygon fill="white" stroke="black" points="40.2856,-235.5 40.2856,-263.5 145.211,-263.5 145.211,-235.5 40.2856,-235.5"/>
<text text-anchor="start" x="48.2856" y="-251.5" font-family="Helvetica,sans-Serif" font-size="10.00">ocra::ObserverBase</text>
<text text-anchor="middle" x="92.7485" y="-241.5" font-family="Helvetica,sans-Serif" font-size="10.00">&lt; EVT_RESIZE &gt;</text>
</a>
</g>
</g>
<!-- Node8&#45;&gt;Node7 -->
<g id="edge7" class="edge"><title>Node8&#45;&gt;Node7</title>
<path fill="none" stroke="midnightblue" d="M155.334,-236.047C165.579,-233.058 175.966,-229.549 185.497,-225.5 209.873,-215.144 235.651,-197.978 250.357,-187.507"/>
<polygon fill="midnightblue" stroke="midnightblue" points="154.285,-232.705 145.586,-238.754 156.158,-239.45 154.285,-232.705"/>
</g>
<!-- Node9 -->
<g id="node9" class="node"><title>Node9</title>
<g id="a_node9"><a xlink:href="../../d4/dee/classocra_1_1ObserverBase.html" target="_top" xlink:title="ocra::ObserverBase\l\&lt; EVT_CHANGE_DEPENDENCIES \&gt;">
<polygon fill="white" stroke="black" points="0,-188.5 0,-216.5 185.497,-216.5 185.497,-188.5 0,-188.5"/>
<text text-anchor="start" x="8" y="-204.5" font-family="Helvetica,sans-Serif" font-size="10.00">ocra::ObserverBase</text>
<text text-anchor="middle" x="92.7485" y="-194.5" font-family="Helvetica,sans-Serif" font-size="10.00">&lt; EVT_CHANGE_DEPENDENCIES &gt;</text>
</a>
</g>
</g>
<!-- Node9&#45;&gt;Node7 -->
<g id="edge8" class="edge"><title>Node9&#45;&gt;Node7</title>
<path fill="none" stroke="midnightblue" d="M195.725,-188.002C205,-186.684 213.979,-185.407 222.187,-184.24"/>
<polygon fill="midnightblue" stroke="midnightblue" points="194.974,-184.574 185.566,-189.447 195.959,-191.504 194.974,-184.574"/>
</g>
<!-- Node10 -->
<g id="node10" class="node"><title>Node10</title>
<g id="a_node10"><a xlink:href="../../d4/dee/classocra_1_1ObserverBase.html" target="_top" xlink:title="ocra::ObserverBase\l\&lt; EVT_CHANGE_VALUE \&gt;">
<polygon fill="white" stroke="black" points="23.4253,-141.5 23.4253,-169.5 162.072,-169.5 162.072,-141.5 23.4253,-141.5"/>
<text text-anchor="start" x="31.4253" y="-157.5" font-family="Helvetica,sans-Serif" font-size="10.00">ocra::ObserverBase</text>
<text text-anchor="middle" x="92.7485" y="-147.5" font-family="Helvetica,sans-Serif" font-size="10.00">&lt; EVT_CHANGE_VALUE &gt;</text>
</a>
</g>
</g>
<!-- Node10&#45;&gt;Node7 -->
<g id="edge9" class="edge"><title>Node10&#45;&gt;Node7</title>
<path fill="none" stroke="midnightblue" d="M172.466,-166.225C189.64,-168.565 207.13,-170.948 222.074,-172.984"/>
<polygon fill="midnightblue" stroke="midnightblue" points="172.793,-162.737 162.412,-164.855 171.848,-169.673 172.793,-162.737"/>
</g>
<!-- Node11 -->
<g id="node11" class="node"><title>Node11</title>
<g id="a_node11"><a xlink:href="../../dc/d77/classocra_1_1Subject.html" target="_top" xlink:title="ocra::Subject">
<polygon fill="white" stroke="black" points="226.381,-72.5 226.381,-90.5 300.746,-90.5 300.746,-72.5 226.381,-72.5"/>
<text text-anchor="middle" x="263.563" y="-78.5" font-family="Helvetica,sans-Serif" font-size="10.00">ocra::Subject</text>
</a>
</g>
</g>
<!-- Node11&#45;&gt;Node6 -->
<g id="edge10" class="edge"><title>Node11&#45;&gt;Node6</title>
<path fill="none" stroke="midnightblue" d="M311.07,-89.0664C334.43,-92.8669 362.898,-97.4985 387.386,-101.483"/>
<polygon fill="midnightblue" stroke="midnightblue" points="311.497,-85.5899 301.065,-87.4386 310.373,-92.4991 311.497,-85.5899"/>
</g>
<!-- Node12 -->
<g id="node12" class="node"><title>Node12</title>
<g id="a_node12"><a xlink:href="../../dc/d29/classocra_1_1SubjectBase.html" target="_top" xlink:title="ocra::SubjectBase\&lt;\l EVT_RESIZE \&gt;">
<polygon fill="white" stroke="black" points="41.25,-94.5 41.25,-122.5 144.247,-122.5 144.247,-94.5 41.25,-94.5"/>
<text text-anchor="start" x="49.25" y="-110.5" font-family="Helvetica,sans-Serif" font-size="10.00">ocra::SubjectBase&lt;</text>
<text text-anchor="middle" x="92.7485" y="-100.5" font-family="Helvetica,sans-Serif" font-size="10.00"> EVT_RESIZE &gt;</text>
</a>
</g>
</g>
<!-- Node12&#45;&gt;Node11 -->
<g id="edge11" class="edge"><title>Node12&#45;&gt;Node11</title>
<path fill="none" stroke="midnightblue" d="M154.489,-98.7853C178.489,-94.9468 205.266,-90.6641 226.162,-87.322"/>
<polygon fill="midnightblue" stroke="midnightblue" points="153.72,-95.3636 144.399,-100.399 154.826,-102.276 153.72,-95.3636"/>
</g>
<!-- Node13 -->
<g id="node13" class="node"><title>Node13</title>
<g id="a_node13"><a xlink:href="../../dc/d29/classocra_1_1SubjectBase.html" target="_top" xlink:title="ocra::SubjectBase\&lt;\l EVT_CHANGE_DEPENDENCIES \&gt;">
<polygon fill="white" stroke="black" points="2.91992,-47.5 2.91992,-75.5 182.577,-75.5 182.577,-47.5 2.91992,-47.5"/>
<text text-anchor="start" x="10.9199" y="-63.5" font-family="Helvetica,sans-Serif" font-size="10.00">ocra::SubjectBase&lt;</text>
<text text-anchor="middle" x="92.7485" y="-53.5" font-family="Helvetica,sans-Serif" font-size="10.00"> EVT_CHANGE_DEPENDENCIES &gt;</text>
</a>
</g>
</g>
<!-- Node13&#45;&gt;Node11 -->
<g id="edge12" class="edge"><title>Node13&#45;&gt;Node11</title>
<path fill="none" stroke="midnightblue" d="M192.668,-73.2193C204.562,-74.6284 216.06,-75.9906 226.178,-77.1893"/>
<polygon fill="midnightblue" stroke="midnightblue" points="192.948,-69.728 182.605,-72.0271 192.124,-76.6794 192.948,-69.728"/>
</g>
<!-- Node14 -->
<g id="node14" class="node"><title>Node14</title>
<g id="a_node14"><a xlink:href="../../dc/d29/classocra_1_1SubjectBase.html" target="_top" xlink:title="ocra::SubjectBase\&lt;\l EVT_CHANGE_VALUE \&gt;">
<polygon fill="white" stroke="black" points="26.3452,-0.5 26.3452,-28.5 159.152,-28.5 159.152,-0.5 26.3452,-0.5"/>
<text text-anchor="start" x="34.3452" y="-16.5" font-family="Helvetica,sans-Serif" font-size="10.00">ocra::SubjectBase&lt;</text>
<text text-anchor="middle" x="92.7485" y="-6.5" font-family="Helvetica,sans-Serif" font-size="10.00"> EVT_CHANGE_VALUE &gt;</text>
</a>
</g>
</g>
<!-- Node14&#45;&gt;Node11 -->
<g id="edge13" class="edge"><title>Node14&#45;&gt;Node11</title>
<path fill="none" stroke="midnightblue" d="M168.784,-31.4984C174.5,-33.3424 180.129,-35.342 185.497,-37.5 209.084,-46.9811 234.281,-62.519 249.214,-72.3674"/>
<polygon fill="midnightblue" stroke="midnightblue" points="169.7,-28.1186 159.114,-28.5415 167.653,-34.8126 169.7,-28.1186"/>
</g>
<!-- Node15 -->
<g id="node15" class="node"><title>Node15</title>
<polygon fill="white" stroke="#bfbfbf" points="407.455,-232.5 407.455,-250.5 480.169,-250.5 480.169,-232.5 407.455,-232.5"/>
<text text-anchor="middle" x="443.812" y="-238.5" font-family="Helvetica,sans-Serif" font-size="10.00">noncopyable</text>
</g>
<!-- Node15&#45;&gt;Node4 -->
<g id="edge14" class="edge"><title>Node15&#45;&gt;Node4</title>
<path fill="none" stroke="#8b1a1a" d="M490.677,-237.104C508.447,-234.327 528.648,-229.815 545.994,-222.5 564.513,-214.69 564.588,-204.573 582.994,-196.5 603.079,-187.691 627,-182.282 646.54,-179.032"/>
<polygon fill="#8b1a1a" stroke="#8b1a1a" points="489.943,-233.673 480.535,-238.547 490.929,-240.604 489.943,-233.673"/>
</g>
<!-- Node16 -->
<g id="node16" class="node"><title>Node16</title>
<g id="a_node16"><a xlink:href="../../dc/d20/classocra_1_1VariableHasRestrictedClassDerivation.html" target="_top" xlink:title="ocra::VariableHasRestricted\lClassDerivation">
<polygon fill="white" stroke="black" points="373.932,-185.5 373.932,-213.5 513.692,-213.5 513.692,-185.5 373.932,-185.5"/>
<text text-anchor="start" x="381.932" y="-201.5" font-family="Helvetica,sans-Serif" font-size="10.00">ocra::VariableHasRestricted</text>
<text text-anchor="middle" x="443.812" y="-191.5" font-family="Helvetica,sans-Serif" font-size="10.00">ClassDerivation</text>
</a>
</g>
</g>
<!-- Node16&#45;&gt;Node4 -->
<g id="edge15" class="edge"><title>Node16&#45;&gt;Node4</title>
<path fill="none" stroke="#8b1a1a" d="M523.779,-191.252C565.084,-186.938 613.735,-181.857 646.535,-178.431"/>
<polygon fill="#8b1a1a" stroke="#8b1a1a" points="523.307,-187.783 513.725,-192.303 524.034,-194.745 523.307,-187.783"/>
</g>
<!-- Node17 -->
<g id="node17" class="node"><title>Node17</title>
<polygon fill="white" stroke="#bfbfbf" points="858.445,-115.5 858.445,-133.5 915.031,-133.5 915.031,-115.5 858.445,-115.5"/>
<text text-anchor="middle" x="886.738" y="-121.5" font-family="Helvetica,sans-Serif" font-size="10.00">VectorXd</text>
</g>
<!-- Node17&#45;&gt;Node1 -->
<g id="edge16" class="edge"><title>Node17&#45;&gt;Node1</title>
<path fill="none" stroke="#9a32cd" stroke-dasharray="5,2" d="M925.303,-124.5C970.97,-124.5 1048.87,-124.5 1104.91,-124.5"/>
<polygon fill="#9a32cd" stroke="#9a32cd" points="925.244,-121 915.244,-124.5 925.244,-128 925.244,-121"/>
<text text-anchor="start" x="972.392" y="-136.5" font-family="Helvetica,sans-Serif" font-size="10.00"> _InertiaMatrixInverseLin</text>
<text text-anchor="middle" x="1027.14" y="-126.5" font-family="Helvetica,sans-Serif" font-size="10.00">NonLinGrav</text>
</g>
<!-- Node18&#45;&gt;Node1 -->
<g id="edge17" class="edge"><title>Node18&#45;&gt;Node1</title>
<path fill="none" stroke="#9a32cd" stroke-dasharray="5,2" d="M729.674,-86.7224C781.879,-87.2818 872.031,-89.178 949.118,-95.5 1001.6,-99.804 1060.68,-107.633 1104.81,-114.073"/>
<polygon fill="#9a32cd" stroke="#9a32cd" points="729.474,-83.2204 719.441,-86.6248 729.407,-90.2201 729.474,-83.2204"/>
<text text-anchor="middle" x="886.738" y="-97.5" font-family="Helvetica,sans-Serif" font-size="10.00"> _model</text>
</g>
<!-- Node19 -->
<g id="node19" class="node"><title>Node19</title>
<g id="a_node19"><a xlink:href="../../db/de3/classocra_1_1NamedInstance.html" target="_top" xlink:title="ocra::NamedInstance">
<polygon fill="white" stroke="black" points="388.288,-64.5 388.288,-82.5 499.336,-82.5 499.336,-64.5 388.288,-64.5"/>
<text text-anchor="middle" x="443.812" y="-70.5" font-family="Helvetica,sans-Serif" font-size="10.00">ocra::NamedInstance</text>
</a>
</g>
</g>
<!-- Node19&#45;&gt;Node18 -->
<g id="edge19" class="edge"><title>Node19&#45;&gt;Node18</title>
<path fill="none" stroke="midnightblue" d="M509.53,-77.0149C555.156,-79.4928 614.396,-82.7102 650.826,-84.6887"/>
<polygon fill="midnightblue" stroke="midnightblue" points="509.602,-73.5137 499.427,-76.4662 509.222,-80.5034 509.602,-73.5137"/>
</g>
<!-- Node20 -->
<g id="node20" class="node"><title>Node20</title>
<polygon fill="white" stroke="#bfbfbf" points="859.012,-31.5 859.012,-49.5 914.465,-49.5 914.465,-31.5 859.012,-31.5"/>
<text text-anchor="middle" x="886.738" y="-37.5" font-family="Helvetica,sans-Serif" font-size="10.00">MatrixXd</text>
</g>
<!-- Node20&#45;&gt;Node1 -->
<g id="edge20" class="edge"><title>Node20&#45;&gt;Node1</title>
<path fill="none" stroke="#9a32cd" stroke-dasharray="5,2" d="M924.676,-38.9746C965.753,-38.5354 1033.4,-41.6037 1087.16,-62.5 1115.02,-73.3321 1141.97,-95.7304 1157.73,-110.43"/>
<polygon fill="#9a32cd" stroke="#9a32cd" points="924.513,-35.4769 914.579,-39.1596 924.641,-42.4757 924.513,-35.4769"/>
<text text-anchor="middle" x="1027.14" y="-64.5" font-family="Helvetica,sans-Serif" font-size="10.00"> _InertiaMatrixInverseJchiT</text>
</g>
</g>
</svg>
