<?xml version="1.0" encoding="UTF-8" standalone="no"?>
<!DOCTYPE svg PUBLIC "-//W3C//DTD SVG 1.1//EN"
 "http://www.w3.org/Graphics/SVG/1.1/DTD/svg11.dtd">
<!-- Generated by graphviz version 2.38.0 (20140413.2041)
 -->
<!-- Title: ocra::FullDynamicEquationFunction::Pimpl Pages: 1 -->
<svg width="1249pt" height="277pt"
 viewBox="0.00 0.00 1248.65 277.00" xmlns="http://www.w3.org/2000/svg" xmlns:xlink="http://www.w3.org/1999/xlink">
<g id="graph0" class="graph" transform="scale(1 1) rotate(0) translate(4 273)">
<title>ocra::FullDynamicEquationFunction::Pimpl</title>
<polygon fill="white" stroke="none" points="-4,4 -4,-273 1244.65,-273 1244.65,4 -4,4"/>
<!-- Node1 -->
<g id="node1" class="node"><title>Node1</title>
<polygon fill="#bfbfbf" stroke="black" points="1105.16,-55.5 1105.16,-83.5 1240.65,-83.5 1240.65,-55.5 1105.16,-55.5"/>
<text text-anchor="start" x="1113.16" y="-71.5" font-family="Helvetica,sans-Serif" font-size="10.00">ocra::FullDynamicEquation</text>
<text text-anchor="middle" x="1172.91" y="-61.5" font-family="Helvetica,sans-Serif" font-size="10.00">Function::Pimpl</text>
</g>
<!-- Node2 -->
<g id="node2" class="node"><title>Node2</title>
<g id="a_node2"><a xlink:href="../../d2/d7c/classocra_1_1CompositeVariable.html" target="_top" xlink:title="A concatenation of base variables and other composite variables. ">
<polygon fill="white" stroke="black" points="824.358,-131.5 824.358,-149.5 949.118,-149.5 949.118,-131.5 824.358,-131.5"/>
<text text-anchor="middle" x="886.738" y="-137.5" font-family="Helvetica,sans-Serif" font-size="10.00">ocra::CompositeVariable</text>
</a>
</g>
</g>
<!-- Node2&#45;&gt;Node1 -->
<g id="edge1" class="edge"><title>Node2&#45;&gt;Node1</title>
<path fill="none" stroke="#9a32cd" stroke-dasharray="5,2" d="M959.335,-132.576C997.751,-127.258 1045.61,-118.91 1087.16,-106.5 1106.85,-100.619 1128.03,-91.3687 1144.3,-83.589"/>
<polygon fill="#9a32cd" stroke="#9a32cd" points="958.717,-129.127 949.273,-133.93 959.65,-136.065 958.717,-129.127"/>
<text text-anchor="middle" x="1027.14" y="-133.5" font-family="Helvetica,sans-Serif" font-size="10.00"> _chi</text>
</g>
<!-- Node3 -->
<g id="node3" class="node"><title>Node3</title>
<g id="a_node3"><a xlink:href="../../d7/d79/classocra_1_1Composite.html" target="_top" xlink:title="ocra::Composite\&lt; Variable,\l CompositeVariable, VariableParenthood \&gt;">
<polygon fill="white" stroke="black" points="582.994,-128.5 582.994,-156.5 787.358,-156.5 787.358,-128.5 582.994,-128.5"/>
<text text-anchor="start" x="590.994" y="-144.5" font-family="Helvetica,sans-Serif" font-size="10.00">ocra::Composite&lt; Variable,</text>
<text text-anchor="middle" x="685.176" y="-134.5" font-family="Helvetica,sans-Serif" font-size="10.00"> CompositeVariable, VariableParenthood &gt;</text>
</a>
</g>
</g>
<!-- Node3&#45;&gt;Node2 -->
<g id="edge2" class="edge"><title>Node3&#45;&gt;Node2</title>
<path fill="none" stroke="midnightblue" d="M797.685,-141.382C806.742,-141.292 815.669,-141.202 824.161,-141.117"/>
<polygon fill="midnightblue" stroke="midnightblue" points="797.383,-137.885 787.419,-141.485 797.453,-144.885 797.383,-137.885"/>
</g>
<!-- Node4 -->
<g id="node4" class="node"><title>Node4</title>
<g id="a_node4"><a xlink:href="../../d2/dac/classocra_1_1Variable.html" target="_top" xlink:title="This class represents a variable in a mathematical sense. ">
<polygon fill="white" stroke="black" points="646.695,-87.5 646.695,-105.5 723.657,-105.5 723.657,-87.5 646.695,-87.5"/>
<text text-anchor="middle" x="685.176" y="-93.5" font-family="Helvetica,sans-Serif" font-size="10.00">ocra::Variable</text>
</a>
</g>
</g>
<!-- Node4&#45;&gt;Node1 -->
<g id="edge18" class="edge"><title>Node4&#45;&gt;Node1</title>
<path fill="none" stroke="#9a32cd" stroke-dasharray="5,2" d="M733.915,-95.2979C809.118,-93.1922 959.735,-88.1169 1087.16,-78.5 1092.91,-78.0657 1098.88,-77.5549 1104.86,-77.0009"/>
<polygon fill="#9a32cd" stroke="#9a32cd" points="733.714,-91.802 723.814,-95.5755 733.907,-98.7994 733.714,-91.802"/>
<text text-anchor="middle" x="886.738" y="-104.5" font-family="Helvetica,sans-Serif" font-size="10.00"> _fc</text>
<text text-anchor="middle" x="886.738" y="-94.5" font-family="Helvetica,sans-Serif" font-size="10.00">_tau</text>
</g>
<!-- Node4&#45;&gt;Node2 -->
<g id="edge3" class="edge"><title>Node4&#45;&gt;Node2</title>
<path fill="none" stroke="midnightblue" d="M733.865,-106.808C750.765,-110.477 769.913,-114.653 787.358,-118.5 806.5,-122.721 827.724,-127.46 845.543,-131.455"/>
<polygon fill="midnightblue" stroke="midnightblue" points="734.183,-103.296 723.668,-104.597 732.699,-110.137 734.183,-103.296"/>
</g>
<!-- Node5 -->
<g id="node5" class="node"><title>Node5</title>
<g id="a_node5"><a xlink:href="../../d0/d29/classocra_1_1Component.html" target="_top" xlink:title="ocra::Component\&lt; Variable,\l CompositeVariable, VariableParenthood \&gt;">
<polygon fill="white" stroke="black" points="341.63,-143.5 341.63,-171.5 545.994,-171.5 545.994,-143.5 341.63,-143.5"/>
<text text-anchor="start" x="349.63" y="-159.5" font-family="Helvetica,sans-Serif" font-size="10.00">ocra::Component&lt; Variable,</text>
<text text-anchor="middle" x="443.812" y="-149.5" font-family="Helvetica,sans-Serif" font-size="10.00"> CompositeVariable, VariableParenthood &gt;</text>
</a>
</g>
</g>
<!-- Node5&#45;&gt;Node4 -->
<g id="edge4" class="edge"><title>Node5&#45;&gt;Node4</title>
<path fill="none" stroke="midnightblue" d="M520.333,-140.928C529.039,-138.622 537.747,-136.133 545.994,-133.5 562.898,-128.103 566.04,-123.738 582.994,-118.5 603.605,-112.133 627.126,-106.901 646.299,-103.139"/>
<polygon fill="midnightblue" stroke="midnightblue" points="519.34,-137.569 510.528,-143.452 521.085,-144.348 519.34,-137.569"/>
</g>
<!-- Node6 -->
<g id="node6" class="node"><title>Node6</title>
<g id="a_node6"><a xlink:href="../../d3/d16/classocra_1_1ObserverSubject.html" target="_top" xlink:title="ocra::ObserverSubject">
<polygon fill="white" stroke="black" points="386.068,-106.5 386.068,-124.5 501.556,-124.5 501.556,-106.5 386.068,-106.5"/>
<text text-anchor="middle" x="443.812" y="-112.5" font-family="Helvetica,sans-Serif" font-size="10.00">ocra::ObserverSubject</text>
</a>
</g>
</g>
<!-- Node6&#45;&gt;Node4 -->
<g id="edge5" class="edge"><title>Node6&#45;&gt;Node4</title>
<path fill="none" stroke="midnightblue" d="M512.071,-110.161C555.593,-106.707 610.642,-102.337 646.601,-99.4826"/>
<polygon fill="midnightblue" stroke="midnightblue" points="511.533,-106.693 501.842,-110.973 512.087,-113.671 511.533,-106.693"/>
</g>
<!-- Node7 -->
<g id="node7" class="node"><title>Node7</title>
<g id="a_node7"><a xlink:href="../../d2/d45/classocra_1_1Observer.html" target="_top" xlink:title="ocra::Observer">
<polygon fill="white" stroke="black" points="222.497,-174.5 222.497,-192.5 304.63,-192.5 304.63,-174.5 222.497,-174.5"/>
<text text-anchor="middle" x="263.563" y="-180.5" font-family="Helvetica,sans-Serif" font-size="10.00">ocra::Observer</text>
</a>
</g>
</g>
<!-- Node7&#45;&gt;Node6 -->
<g id="edge6" class="edge"><title>Node7&#45;&gt;Node6</title>
<path fill="none" stroke="midnightblue" d="M283.71,-167.952C298.618,-156.651 320.299,-141.916 341.63,-133.5 355.571,-128 371.258,-124.171 386.043,-121.509"/>
<polygon fill="midnightblue" stroke="midnightblue" points="281.509,-165.23 275.768,-174.135 285.809,-170.753 281.509,-165.23"/>
</g>
<!-- Node8 -->
<g id="node8" class="node"><title>Node8</title>
<g id="a_node8"><a xlink:href="../../d4/dee/classocra_1_1ObserverBase.html" target="_top" xlink:title="ocra::ObserverBase\l\&lt; EVT_RESIZE \&gt;">
<polygon fill="white" stroke="black" points="40.2856,-240.5 40.2856,-268.5 145.211,-268.5 145.211,-240.5 40.2856,-240.5"/>
<text text-anchor="start" x="48.2856" y="-256.5" font-family="Helvetica,sans-Serif" font-size="10.00">ocra::ObserverBase</text>
<text text-anchor="middle" x="92.7485" y="-246.5" font-family="Helvetica,sans-Serif" font-size="10.00">&lt; EVT_RESIZE &gt;</text>
</a>
</g>
</g>
<!-- Node8&#45;&gt;Node7 -->
<g id="edge7" class="edge"><title>Node8&#45;&gt;Node7</title>
<path fill="none" stroke="midnightblue" d="M155.334,-241.047C165.579,-238.058 175.966,-234.549 185.497,-230.5 209.873,-220.144 235.651,-202.978 250.357,-192.507"/>
<polygon fill="midnightblue" stroke="midnightblue" points="154.285,-237.705 145.586,-243.754 156.158,-244.45 154.285,-237.705"/>
</g>
<!-- Node9 -->
<g id="node9" class="node"><title>Node9</title>
<g id="a_node9"><a xlink:href="../../d4/dee/classocra_1_1ObserverBase.html" target="_top" xlink:title="ocra::ObserverBase\l\&lt; EVT_CHANGE_DEPENDENCIES \&gt;">
<polygon fill="white" stroke="black" points="0,-193.5 0,-221.5 185.497,-221.5 185.497,-193.5 0,-193.5"/>
<text text-anchor="start" x="8" y="-209.5" font-family="Helvetica,sans-Serif" font-size="10.00">ocra::ObserverBase</text>
<text text-anchor="middle" x="92.7485" y="-199.5" font-family="Helvetica,sans-Serif" font-size="10.00">&lt; EVT_CHANGE_DEPENDENCIES &gt;</text>
</a>
</g>
</g>
<!-- Node9&#45;&gt;Node7 -->
<g id="edge8" class="edge"><title>Node9&#45;&gt;Node7</title>
<path fill="none" stroke="midnightblue" d="M195.725,-193.002C205,-191.684 213.979,-190.407 222.187,-189.24"/>
<polygon fill="midnightblue" stroke="midnightblue" points="194.974,-189.574 185.566,-194.447 195.959,-196.504 194.974,-189.574"/>
</g>
<!-- Node10 -->
<g id="node10" class="node"><title>Node10</title>
<g id="a_node10"><a xlink:href="../../d4/dee/classocra_1_1ObserverBase.html" target="_top" xlink:title="ocra::ObserverBase\l\&lt; EVT_CHANGE_VALUE \&gt;">
<polygon fill="white" stroke="black" points="23.4253,-146.5 23.4253,-174.5 162.072,-174.5 162.072,-146.5 23.4253,-146.5"/>
<text text-anchor="start" x="31.4253" y="-162.5" font-family="Helvetica,sans-Serif" font-size="10.00">ocra::ObserverBase</text>
<text text-anchor="middle" x="92.7485" y="-152.5" font-family="Helvetica,sans-Serif" font-size="10.00">&lt; EVT_CHANGE_VALUE &gt;</text>
</a>
</g>
</g>
<!-- Node10&#45;&gt;Node7 -->
<g id="edge9" class="edge"><title>Node10&#45;&gt;Node7</title>
<path fill="none" stroke="midnightblue" d="M172.466,-171.225C189.64,-173.565 207.13,-175.948 222.074,-177.984"/>
<polygon fill="midnightblue" stroke="midnightblue" points="172.793,-167.737 162.412,-169.855 171.848,-174.673 172.793,-167.737"/>
</g>
<!-- Node11 -->
<g id="node11" class="node"><title>Node11</title>
<g id="a_node11"><a xlink:href="../../dc/d77/classocra_1_1Subject.html" target="_top" xlink:title="ocra::Subject">
<polygon fill="white" stroke="black" points="226.381,-77.5 226.381,-95.5 300.746,-95.5 300.746,-77.5 226.381,-77.5"/>
<text text-anchor="middle" x="263.563" y="-83.5" font-family="Helvetica,sans-Serif" font-size="10.00">ocra::Subject</text>
</a>
</g>
</g>
<!-- Node11&#45;&gt;Node6 -->
<g id="edge10" class="edge"><title>Node11&#45;&gt;Node6</title>
<path fill="none" stroke="midnightblue" d="M311.07,-94.0664C334.43,-97.8669 362.898,-102.499 387.386,-106.483"/>
<polygon fill="midnightblue" stroke="midnightblue" points="311.497,-90.5899 301.065,-92.4386 310.373,-97.4991 311.497,-90.5899"/>
</g>
<!-- Node12 -->
<g id="node12" class="node"><title>Node12</title>
<g id="a_node12"><a xlink:href="../../dc/d29/classocra_1_1SubjectBase.html" target="_top" xlink:title="ocra::SubjectBase\&lt;\l EVT_RESIZE \&gt;">
<polygon fill="white" stroke="black" points="41.25,-99.5 41.25,-127.5 144.247,-127.5 144.247,-99.5 41.25,-99.5"/>
<text text-anchor="start" x="49.25" y="-115.5" font-family="Helvetica,sans-Serif" font-size="10.00">ocra::SubjectBase&lt;</text>
<text text-anchor="middle" x="92.7485" y="-105.5" font-family="Helvetica,sans-Serif" font-size="10.00"> EVT_RESIZE &gt;</text>
</a>
</g>
</g>
<!-- Node12&#45;&gt;Node11 -->
<g id="edge11" class="edge"><title>Node12&#45;&gt;Node11</title>
<path fill="none" stroke="midnightblue" d="M154.489,-103.785C178.489,-99.9468 205.266,-95.6641 226.162,-92.322"/>
<polygon fill="midnightblue" stroke="midnightblue" points="153.72,-100.364 144.399,-105.399 154.826,-107.276 153.72,-100.364"/>
</g>
<!-- Node13 -->
<g id="node13" class="node"><title>Node13</title>
<g id="a_node13"><a xlink:href="../../dc/d29/classocra_1_1SubjectBase.html" target="_top" xlink:title="ocra::SubjectBase\&lt;\l EVT_CHANGE_DEPENDENCIES \&gt;">
<polygon fill="white" stroke="black" points="2.91992,-52.5 2.91992,-80.5 182.577,-80.5 182.577,-52.5 2.91992,-52.5"/>
<text text-anchor="start" x="10.9199" y="-68.5" font-family="Helvetica,sans-Serif" font-size="10.00">ocra::SubjectBase&lt;</text>
<text text-anchor="middle" x="92.7485" y="-58.5" font-family="Helvetica,sans-Serif" font-size="10.00"> EVT_CHANGE_DEPENDENCIES &gt;</text>
</a>
</g>
</g>
<!-- Node13&#45;&gt;Node11 -->
<g id="edge12" class="edge"><title>Node13&#45;&gt;Node11</title>
<path fill="none" stroke="midnightblue" d="M192.668,-78.2193C204.562,-79.6284 216.06,-80.9906 226.178,-82.1893"/>
<polygon fill="midnightblue" stroke="midnightblue" points="192.948,-74.728 182.605,-77.0271 192.124,-81.6794 192.948,-74.728"/>
</g>
<!-- Node14 -->
<g id="node14" class="node"><title>Node14</title>
<g id="a_node14"><a xlink:href="../../dc/d29/classocra_1_1SubjectBase.html" target="_top" xlink:title="ocra::SubjectBase\&lt;\l EVT_CHANGE_VALUE \&gt;">
<polygon fill="white" stroke="black" points="26.3452,-5.5 26.3452,-33.5 159.152,-33.5 159.152,-5.5 26.3452,-5.5"/>
<text text-anchor="start" x="34.3452" y="-21.5" font-family="Helvetica,sans-Serif" font-size="10.00">ocra::SubjectBase&lt;</text>
<text text-anchor="middle" x="92.7485" y="-11.5" font-family="Helvetica,sans-Serif" font-size="10.00"> EVT_CHANGE_VALUE &gt;</text>
</a>
</g>
</g>
<!-- Node14&#45;&gt;Node11 -->
<g id="edge13" class="edge"><title>Node14&#45;&gt;Node11</title>
<path fill="none" stroke="midnightblue" d="M168.784,-36.4984C174.5,-38.3424 180.129,-40.342 185.497,-42.5 209.084,-51.9811 234.281,-67.519 249.214,-77.3674"/>
<polygon fill="midnightblue" stroke="midnightblue" points="169.7,-33.1186 159.114,-33.5415 167.653,-39.8126 169.7,-33.1186"/>
</g>
<!-- Node15 -->
<g id="node15" class="node"><title>Node15</title>
<polygon fill="white" stroke="#bfbfbf" points="407.455,-69.5 407.455,-87.5 480.169,-87.5 480.169,-69.5 407.455,-69.5"/>
<text text-anchor="middle" x="443.812" y="-75.5" font-family="Helvetica,sans-Serif" font-size="10.00">noncopyable</text>
</g>
<!-- Node15&#45;&gt;Node4 -->
<g id="edge14" class="edge"><title>Node15&#45;&gt;Node4</title>
<path fill="none" stroke="#8b1a1a" d="M490.514,-81.9367C535.749,-85.3384 604.183,-90.4846 646.427,-93.6613"/>
<polygon fill="#8b1a1a" stroke="#8b1a1a" points="490.623,-78.4352 480.389,-81.1753 490.098,-85.4155 490.623,-78.4352"/>
</g>
<!-- Node16 -->
<g id="node16" class="node"><title>Node16</title>
<g id="a_node16"><a xlink:href="../../dc/d20/classocra_1_1VariableHasRestrictedClassDerivation.html" target="_top" xlink:title="ocra::VariableHasRestricted\lClassDerivation">
<polygon fill="white" stroke="black" points="373.932,-22.5 373.932,-50.5 513.692,-50.5 513.692,-22.5 373.932,-22.5"/>
<text text-anchor="start" x="381.932" y="-38.5" font-family="Helvetica,sans-Serif" font-size="10.00">ocra::VariableHasRestricted</text>
<text text-anchor="middle" x="443.812" y="-28.5" font-family="Helvetica,sans-Serif" font-size="10.00">ClassDerivation</text>
</a>
</g>
</g>
<!-- Node16&#45;&gt;Node4 -->
<g id="edge15" class="edge"><title>Node16&#45;&gt;Node4</title>
<path fill="none" stroke="#8b1a1a" d="M518.072,-52.8055C527.481,-55.0017 536.974,-57.268 545.994,-59.5 582.397,-68.5077 623.932,-79.762 651.879,-87.4787"/>
<polygon fill="#8b1a1a" stroke="#8b1a1a" points="518.852,-49.3937 508.32,-50.5466 517.272,-56.2131 518.852,-49.3937"/>
</g>
<!-- Node17 -->
<g id="node17" class="node"><title>Node17</title>
<polygon fill="white" stroke="#bfbfbf" points="858.445,-37.5 858.445,-55.5 915.031,-55.5 915.031,-37.5 858.445,-37.5"/>
<text text-anchor="middle" x="886.738" y="-43.5" font-family="Helvetica,sans-Serif" font-size="10.00">VectorXd</text>
</g>
<!-- Node17&#45;&gt;Node1 -->
<g id="edge16" class="edge"><title>Node17&#45;&gt;Node1</title>
<path fill="none" stroke="#9a32cd" stroke-dasharray="5,2" d="M925.332,-47.9883C965.467,-49.7581 1030.9,-53.1624 1087.16,-58.5 1092.92,-59.0465 1098.89,-59.6818 1104.88,-60.3661"/>
<polygon fill="#9a32cd" stroke="#9a32cd" points="925.344,-44.4857 915.203,-47.5528 925.043,-51.4793 925.344,-44.4857"/>
<text text-anchor="start" x="972.392" y="-70.5" font-family="Helvetica,sans-Serif" font-size="10.00"> _InertiaMatrixInverseLin</text>
<text text-anchor="middle" x="1027.14" y="-60.5" font-family="Helvetica,sans-Serif" font-size="10.00">NonLinGrav</text>
</g>
<!-- Node18 -->
<g id="node18" class="node"><title>Node18</title>
<polygon fill="white" stroke="#bfbfbf" points="859.012,-0.5 859.012,-18.5 914.465,-18.5 914.465,-0.5 859.012,-0.5"/>
<text text-anchor="middle" x="886.738" y="-6.5" font-family="Helvetica,sans-Serif" font-size="10.00">MatrixXd</text>
</g>
<!-- Node18&#45;&gt;Node1 -->
<g id="edge17" class="edge"><title>Node18&#45;&gt;Node1</title>
<path fill="none" stroke="#9a32cd" stroke-dasharray="5,2" d="M924.765,-11.8806C965.188,-15.0857 1031.58,-22.1331 1087.16,-36.5 1105.5,-41.2418 1125.27,-48.7891 1141.1,-55.4699"/>
<polygon fill="#9a32cd" stroke="#9a32cd" points="924.811,-8.37419 914.576,-11.1109 924.284,-15.3543 924.811,-8.37419"/>
<text text-anchor="middle" x="1027.14" y="-38.5" font-family="Helvetica,sans-Serif" font-size="10.00"> _InertiaMatrixInverseJchiT</text>
</g>
</g>
</svg>
