<?xml version="1.0" encoding="UTF-8" standalone="no"?>
<!DOCTYPE svg PUBLIC "-//W3C//DTD SVG 1.1//EN"
 "http://www.w3.org/Graphics/SVG/1.1/DTD/svg11.dtd">
<!-- Generated by graphviz version 2.38.0 (20140413.2041)
 -->
<!-- Title: ocra::ModelContacts::Pimpl Pages: 1 -->
<svg width="1202pt" height="272pt"
 viewBox="0.00 0.00 1202.36 272.00" xmlns="http://www.w3.org/2000/svg" xmlns:xlink="http://www.w3.org/1999/xlink">
<g id="graph0" class="graph" transform="scale(1 1) rotate(0) translate(4 268)">
<title>ocra::ModelContacts::Pimpl</title>
<polygon fill="white" stroke="none" points="-4,4 -4,-268 1198.36,-268 1198.36,4 -4,4"/>
<!-- Node1 -->
<g id="node1" class="node"><title>Node1</title>
<polygon fill="#bfbfbf" stroke="black" points="1086.65,-113.5 1086.65,-141.5 1194.36,-141.5 1194.36,-113.5 1086.65,-113.5"/>
<text text-anchor="start" x="1094.65" y="-129.5" font-family="Helvetica,sans-Serif" font-size="10.00">ocra::ModelContacts</text>
<text text-anchor="middle" x="1140.51" y="-119.5" font-family="Helvetica,sans-Serif" font-size="10.00">::Pimpl</text>
</g>
<!-- Node2 -->
<g id="node2" class="node"><title>Node2</title>
<g id="a_node2"><a xlink:href="../../d2/d7c/classocra_1_1CompositeVariable.html" target="_top" xlink:title="A concatenation of base variables and other composite variables. ">
<polygon fill="white" stroke="black" points="824.358,-138.5 824.358,-156.5 949.118,-156.5 949.118,-138.5 824.358,-138.5"/>
<text text-anchor="middle" x="886.738" y="-144.5" font-family="Helvetica,sans-Serif" font-size="10.00">ocra::CompositeVariable</text>
</a>
</g>
</g>
<!-- Node2&#45;&gt;Node1 -->
<g id="edge1" class="edge"><title>Node2&#45;&gt;Node1</title>
<path fill="none" stroke="#9a32cd" stroke-dasharray="5,2" d="M959.415,-141.806C999.927,-138.588 1049.7,-134.634 1086.64,-131.699"/>
<polygon fill="#9a32cd" stroke="#9a32cd" points="959.019,-138.326 949.328,-142.607 959.573,-145.304 959.019,-138.326"/>
<text text-anchor="middle" x="1017.88" y="-143.5" font-family="Helvetica,sans-Serif" font-size="10.00"> contactForcesVariable</text>
</g>
<!-- Node3 -->
<g id="node3" class="node"><title>Node3</title>
<g id="a_node3"><a xlink:href="../../d7/d79/classocra_1_1Composite.html" target="_top" xlink:title="ocra::Composite\&lt; Variable,\l CompositeVariable, VariableParenthood \&gt;">
<polygon fill="white" stroke="black" points="582.994,-154.5 582.994,-182.5 787.358,-182.5 787.358,-154.5 582.994,-154.5"/>
<text text-anchor="start" x="590.994" y="-170.5" font-family="Helvetica,sans-Serif" font-size="10.00">ocra::Composite&lt; Variable,</text>
<text text-anchor="middle" x="685.176" y="-160.5" font-family="Helvetica,sans-Serif" font-size="10.00"> CompositeVariable, VariableParenthood &gt;</text>
</a>
</g>
</g>
<!-- Node3&#45;&gt;Node2 -->
<g id="edge2" class="edge"><title>Node3&#45;&gt;Node2</title>
<path fill="none" stroke="midnightblue" d="M797.392,-156.797C806.55,-155.833 815.578,-154.883 824.161,-153.98"/>
<polygon fill="midnightblue" stroke="midnightblue" points="796.998,-153.319 787.419,-157.846 797.73,-160.28 796.998,-153.319"/>
</g>
<!-- Node4 -->
<g id="node4" class="node"><title>Node4</title>
<g id="a_node4"><a xlink:href="../../d2/dac/classocra_1_1Variable.html" target="_top" xlink:title="This class represents a variable in a mathematical sense. ">
<polygon fill="white" stroke="black" points="646.695,-117.5 646.695,-135.5 723.657,-135.5 723.657,-117.5 646.695,-117.5"/>
<text text-anchor="middle" x="685.176" y="-123.5" font-family="Helvetica,sans-Serif" font-size="10.00">ocra::Variable</text>
</a>
</g>
</g>
<!-- Node4&#45;&gt;Node2 -->
<g id="edge3" class="edge"><title>Node4&#45;&gt;Node2</title>
<path fill="none" stroke="midnightblue" d="M733.706,-131.502C760.758,-134.348 794.949,-137.946 824.052,-141.009"/>
<polygon fill="midnightblue" stroke="midnightblue" points="734.024,-128.016 723.712,-130.45 733.291,-134.977 734.024,-128.016"/>
</g>
<!-- Node5 -->
<g id="node5" class="node"><title>Node5</title>
<g id="a_node5"><a xlink:href="../../d0/d29/classocra_1_1Component.html" target="_top" xlink:title="ocra::Component\&lt; Variable,\l CompositeVariable, VariableParenthood \&gt;">
<polygon fill="white" stroke="black" points="341.63,-173.5 341.63,-201.5 545.994,-201.5 545.994,-173.5 341.63,-173.5"/>
<text text-anchor="start" x="349.63" y="-189.5" font-family="Helvetica,sans-Serif" font-size="10.00">ocra::Component&lt; Variable,</text>
<text text-anchor="middle" x="443.812" y="-179.5" font-family="Helvetica,sans-Serif" font-size="10.00"> CompositeVariable, VariableParenthood &gt;</text>
</a>
</g>
</g>
<!-- Node5&#45;&gt;Node4 -->
<g id="edge4" class="edge"><title>Node5&#45;&gt;Node4</title>
<path fill="none" stroke="midnightblue" d="M523.704,-170.76C531.311,-168.558 538.849,-166.138 545.994,-163.5 563.336,-157.098 565.477,-150.407 582.994,-144.5 603.451,-137.602 627.175,-133.203 646.506,-130.483"/>
<polygon fill="midnightblue" stroke="midnightblue" points="522.757,-167.391 514.055,-173.434 524.627,-174.137 522.757,-167.391"/>
</g>
<!-- Node6 -->
<g id="node6" class="node"><title>Node6</title>
<g id="a_node6"><a xlink:href="../../d3/d16/classocra_1_1ObserverSubject.html" target="_top" xlink:title="ocra::ObserverSubject">
<polygon fill="white" stroke="black" points="386.068,-136.5 386.068,-154.5 501.556,-154.5 501.556,-136.5 386.068,-136.5"/>
<text text-anchor="middle" x="443.812" y="-142.5" font-family="Helvetica,sans-Serif" font-size="10.00">ocra::ObserverSubject</text>
</a>
</g>
</g>
<!-- Node6&#45;&gt;Node4 -->
<g id="edge5" class="edge"><title>Node6&#45;&gt;Node4</title>
<path fill="none" stroke="midnightblue" d="M512.071,-140.161C555.593,-136.707 610.642,-132.337 646.601,-129.483"/>
<polygon fill="midnightblue" stroke="midnightblue" points="511.533,-136.693 501.842,-140.973 512.087,-143.671 511.533,-136.693"/>
</g>
<!-- Node7 -->
<g id="node7" class="node"><title>Node7</title>
<g id="a_node7"><a xlink:href="../../d2/d45/classocra_1_1Observer.html" target="_top" xlink:title="ocra::Observer">
<polygon fill="white" stroke="black" points="222.497,-169.5 222.497,-187.5 304.63,-187.5 304.63,-169.5 222.497,-169.5"/>
<text text-anchor="middle" x="263.563" y="-175.5" font-family="Helvetica,sans-Serif" font-size="10.00">ocra::Observer</text>
</a>
</g>
</g>
<!-- Node7&#45;&gt;Node6 -->
<g id="edge6" class="edge"><title>Node7&#45;&gt;Node6</title>
<path fill="none" stroke="midnightblue" d="M314.841,-168.592C323.76,-166.87 332.965,-165.114 341.63,-163.5 357.679,-160.511 375.182,-157.359 391.049,-154.542"/>
<polygon fill="midnightblue" stroke="midnightblue" points="314.087,-165.173 304.937,-170.514 315.421,-172.045 314.087,-165.173"/>
</g>
<!-- Node8 -->
<g id="node8" class="node"><title>Node8</title>
<g id="a_node8"><a xlink:href="../../d4/dee/classocra_1_1ObserverBase.html" target="_top" xlink:title="ocra::ObserverBase\l\&lt; EVT_RESIZE \&gt;">
<polygon fill="white" stroke="black" points="40.2856,-235.5 40.2856,-263.5 145.211,-263.5 145.211,-235.5 40.2856,-235.5"/>
<text text-anchor="start" x="48.2856" y="-251.5" font-family="Helvetica,sans-Serif" font-size="10.00">ocra::ObserverBase</text>
<text text-anchor="middle" x="92.7485" y="-241.5" font-family="Helvetica,sans-Serif" font-size="10.00">&lt; EVT_RESIZE &gt;</text>
</a>
</g>
</g>
<!-- Node8&#45;&gt;Node7 -->
<g id="edge7" class="edge"><title>Node8&#45;&gt;Node7</title>
<path fill="none" stroke="midnightblue" d="M155.373,-236.87C165.614,-233.976 175.989,-230.535 185.497,-226.5 210.164,-216.032 236.055,-198.3 250.667,-187.567"/>
<polygon fill="midnightblue" stroke="midnightblue" points="154.382,-233.512 145.628,-239.48 156.193,-240.274 154.382,-233.512"/>
</g>
<!-- Node9 -->
<g id="node9" class="node"><title>Node9</title>
<g id="a_node9"><a xlink:href="../../d4/dee/classocra_1_1ObserverBase.html" target="_top" xlink:title="ocra::ObserverBase\l\&lt; EVT_CHANGE_DEPENDENCIES \&gt;">
<polygon fill="white" stroke="black" points="0,-188.5 0,-216.5 185.497,-216.5 185.497,-188.5 0,-188.5"/>
<text text-anchor="start" x="8" y="-204.5" font-family="Helvetica,sans-Serif" font-size="10.00">ocra::ObserverBase</text>
<text text-anchor="middle" x="92.7485" y="-194.5" font-family="Helvetica,sans-Serif" font-size="10.00">&lt; EVT_CHANGE_DEPENDENCIES &gt;</text>
</a>
</g>
</g>
<!-- Node9&#45;&gt;Node7 -->
<g id="edge8" class="edge"><title>Node9&#45;&gt;Node7</title>
<path fill="none" stroke="midnightblue" d="M195.725,-188.002C205,-186.684 213.979,-185.407 222.187,-184.24"/>
<polygon fill="midnightblue" stroke="midnightblue" points="194.974,-184.574 185.566,-189.447 195.959,-191.504 194.974,-184.574"/>
</g>
<!-- Node10 -->
<g id="node10" class="node"><title>Node10</title>
<g id="a_node10"><a xlink:href="../../d4/dee/classocra_1_1ObserverBase.html" target="_top" xlink:title="ocra::ObserverBase\l\&lt; EVT_CHANGE_VALUE \&gt;">
<polygon fill="white" stroke="black" points="23.4253,-141.5 23.4253,-169.5 162.072,-169.5 162.072,-141.5 23.4253,-141.5"/>
<text text-anchor="start" x="31.4253" y="-157.5" font-family="Helvetica,sans-Serif" font-size="10.00">ocra::ObserverBase</text>
<text text-anchor="middle" x="92.7485" y="-147.5" font-family="Helvetica,sans-Serif" font-size="10.00">&lt; EVT_CHANGE_VALUE &gt;</text>
</a>
</g>
</g>
<!-- Node10&#45;&gt;Node7 -->
<g id="edge9" class="edge"><title>Node10&#45;&gt;Node7</title>
<path fill="none" stroke="midnightblue" d="M172.466,-166.225C189.64,-168.565 207.13,-170.948 222.074,-172.984"/>
<polygon fill="midnightblue" stroke="midnightblue" points="172.793,-162.737 162.412,-164.855 171.848,-169.673 172.793,-162.737"/>
</g>
<!-- Node11 -->
<g id="node11" class="node"><title>Node11</title>
<g id="a_node11"><a xlink:href="../../dc/d77/classocra_1_1Subject.html" target="_top" xlink:title="ocra::Subject">
<polygon fill="white" stroke="black" points="226.381,-72.5 226.381,-90.5 300.746,-90.5 300.746,-72.5 226.381,-72.5"/>
<text text-anchor="middle" x="263.563" y="-78.5" font-family="Helvetica,sans-Serif" font-size="10.00">ocra::Subject</text>
</a>
</g>
</g>
<!-- Node11&#45;&gt;Node6 -->
<g id="edge10" class="edge"><title>Node11&#45;&gt;Node6</title>
<path fill="none" stroke="midnightblue" d="M285.457,-96.363C300.428,-106.33 321.434,-118.966 341.63,-126.5 355.613,-131.716 371.239,-135.551 385.948,-138.351"/>
<polygon fill="midnightblue" stroke="midnightblue" points="287.209,-93.3209 276.977,-90.5714 283.261,-99.1014 287.209,-93.3209"/>
</g>
<!-- Node12 -->
<g id="node12" class="node"><title>Node12</title>
<g id="a_node12"><a xlink:href="../../dc/d29/classocra_1_1SubjectBase.html" target="_top" xlink:title="ocra::SubjectBase\&lt;\l EVT_RESIZE \&gt;">
<polygon fill="white" stroke="black" points="41.25,-94.5 41.25,-122.5 144.247,-122.5 144.247,-94.5 41.25,-94.5"/>
<text text-anchor="start" x="49.25" y="-110.5" font-family="Helvetica,sans-Serif" font-size="10.00">ocra::SubjectBase&lt;</text>
<text text-anchor="middle" x="92.7485" y="-100.5" font-family="Helvetica,sans-Serif" font-size="10.00"> EVT_RESIZE &gt;</text>
</a>
</g>
</g>
<!-- Node12&#45;&gt;Node11 -->
<g id="edge11" class="edge"><title>Node12&#45;&gt;Node11</title>
<path fill="none" stroke="midnightblue" d="M154.489,-98.7853C178.489,-94.9468 205.266,-90.6641 226.162,-87.322"/>
<polygon fill="midnightblue" stroke="midnightblue" points="153.72,-95.3636 144.399,-100.399 154.826,-102.276 153.72,-95.3636"/>
</g>
<!-- Node13 -->
<g id="node13" class="node"><title>Node13</title>
<g id="a_node13"><a xlink:href="../../dc/d29/classocra_1_1SubjectBase.html" target="_top" xlink:title="ocra::SubjectBase\&lt;\l EVT_CHANGE_DEPENDENCIES \&gt;">
<polygon fill="white" stroke="black" points="2.91992,-47.5 2.91992,-75.5 182.577,-75.5 182.577,-47.5 2.91992,-47.5"/>
<text text-anchor="start" x="10.9199" y="-63.5" font-family="Helvetica,sans-Serif" font-size="10.00">ocra::SubjectBase&lt;</text>
<text text-anchor="middle" x="92.7485" y="-53.5" font-family="Helvetica,sans-Serif" font-size="10.00"> EVT_CHANGE_DEPENDENCIES &gt;</text>
</a>
</g>
</g>
<!-- Node13&#45;&gt;Node11 -->
<g id="edge12" class="edge"><title>Node13&#45;&gt;Node11</title>
<path fill="none" stroke="midnightblue" d="M192.668,-73.2193C204.562,-74.6284 216.06,-75.9906 226.178,-77.1893"/>
<polygon fill="midnightblue" stroke="midnightblue" points="192.948,-69.728 182.605,-72.0271 192.124,-76.6794 192.948,-69.728"/>
</g>
<!-- Node14 -->
<g id="node14" class="node"><title>Node14</title>
<g id="a_node14"><a xlink:href="../../dc/d29/classocra_1_1SubjectBase.html" target="_top" xlink:title="ocra::SubjectBase\&lt;\l EVT_CHANGE_VALUE \&gt;">
<polygon fill="white" stroke="black" points="26.3452,-0.5 26.3452,-28.5 159.152,-28.5 159.152,-0.5 26.3452,-0.5"/>
<text text-anchor="start" x="34.3452" y="-16.5" font-family="Helvetica,sans-Serif" font-size="10.00">ocra::SubjectBase&lt;</text>
<text text-anchor="middle" x="92.7485" y="-6.5" font-family="Helvetica,sans-Serif" font-size="10.00"> EVT_CHANGE_VALUE &gt;</text>
</a>
</g>
</g>
<!-- Node14&#45;&gt;Node11 -->
<g id="edge13" class="edge"><title>Node14&#45;&gt;Node11</title>
<path fill="none" stroke="midnightblue" d="M168.784,-31.4984C174.5,-33.3424 180.129,-35.342 185.497,-37.5 209.084,-46.9811 234.281,-62.519 249.214,-72.3674"/>
<polygon fill="midnightblue" stroke="midnightblue" points="169.7,-28.1186 159.114,-28.5415 167.653,-34.8126 169.7,-28.1186"/>
</g>
<!-- Node15 -->
<g id="node15" class="node"><title>Node15</title>
<polygon fill="white" stroke="#bfbfbf" points="407.455,-99.5 407.455,-117.5 480.169,-117.5 480.169,-99.5 407.455,-99.5"/>
<text text-anchor="middle" x="443.812" y="-105.5" font-family="Helvetica,sans-Serif" font-size="10.00">noncopyable</text>
</g>
<!-- Node15&#45;&gt;Node4 -->
<g id="edge14" class="edge"><title>Node15&#45;&gt;Node4</title>
<path fill="none" stroke="#8b1a1a" d="M490.514,-111.937C535.749,-115.338 604.183,-120.485 646.427,-123.661"/>
<polygon fill="#8b1a1a" stroke="#8b1a1a" points="490.623,-108.435 480.389,-111.175 490.098,-115.415 490.623,-108.435"/>
</g>
<!-- Node16 -->
<g id="node16" class="node"><title>Node16</title>
<g id="a_node16"><a xlink:href="../../dc/d20/classocra_1_1VariableHasRestrictedClassDerivation.html" target="_top" xlink:title="ocra::VariableHasRestricted\lClassDerivation">
<polygon fill="white" stroke="black" points="373.932,-52.5 373.932,-80.5 513.692,-80.5 513.692,-52.5 373.932,-52.5"/>
<text text-anchor="start" x="381.932" y="-68.5" font-family="Helvetica,sans-Serif" font-size="10.00">ocra::VariableHasRestricted</text>
<text text-anchor="middle" x="443.812" y="-58.5" font-family="Helvetica,sans-Serif" font-size="10.00">ClassDerivation</text>
</a>
</g>
</g>
<!-- Node16&#45;&gt;Node4 -->
<g id="edge15" class="edge"><title>Node16&#45;&gt;Node4</title>
<path fill="none" stroke="#8b1a1a" d="M518.072,-82.8055C527.481,-85.0017 536.974,-87.268 545.994,-89.5 582.397,-98.5077 623.932,-109.762 651.879,-117.479"/>
<polygon fill="#8b1a1a" stroke="#8b1a1a" points="518.852,-79.3937 508.32,-80.5466 517.272,-86.2131 518.852,-79.3937"/>
</g>
<!-- Node17 -->
<g id="node17" class="node"><title>Node17</title>
<polygon fill="white" stroke="#bfbfbf" points="859.012,-101.5 859.012,-119.5 914.465,-119.5 914.465,-101.5 859.012,-101.5"/>
<text text-anchor="middle" x="886.738" y="-107.5" font-family="Helvetica,sans-Serif" font-size="10.00">MatrixXd</text>
</g>
<!-- Node17&#45;&gt;Node1 -->
<g id="edge16" class="edge"><title>Node17&#45;&gt;Node1</title>
<path fill="none" stroke="#9a32cd" stroke-dasharray="5,2" d="M924.707,-109.191C961.354,-108.344 1019.04,-108.23 1068.65,-113.5 1074.39,-114.109 1080.35,-114.952 1086.27,-115.924"/>
<polygon fill="#9a32cd" stroke="#9a32cd" points="924.403,-105.697 914.498,-109.458 924.586,-112.695 924.403,-105.697"/>
<text text-anchor="middle" x="1017.88" y="-115.5" font-family="Helvetica,sans-Serif" font-size="10.00"> Jct</text>
</g>
</g>
</svg>
