<?xml version="1.0" encoding="UTF-8" standalone="no"?>
<!DOCTYPE svg PUBLIC "-//W3C//DTD SVG 1.1//EN"
 "http://www.w3.org/Graphics/SVG/1.1/DTD/svg11.dtd">
<!-- Generated by graphviz version 2.38.0 (20140413.2041)
 -->
<!-- Title: ocra::ModelContacts::Pimpl Pages: 1 -->
<svg width="1202pt" height="272pt"
 viewBox="0.00 0.00 1202.36 272.00" xmlns="http://www.w3.org/2000/svg" xmlns:xlink="http://www.w3.org/1999/xlink">
<g id="graph0" class="graph" transform="scale(1 1) rotate(0) translate(4 268)">
<title>ocra::ModelContacts::Pimpl</title>
<polygon fill="white" stroke="none" points="-4,4 -4,-268 1198.36,-268 1198.36,4 -4,4"/>
<!-- Node1 -->
<g id="node1" class="node"><title>Node1</title>
<polygon fill="#bfbfbf" stroke="black" points="1086.65,-75.5 1086.65,-103.5 1194.36,-103.5 1194.36,-75.5 1086.65,-75.5"/>
<text text-anchor="start" x="1094.65" y="-91.5" font-family="Helvetica,sans-Serif" font-size="10.00">ocra::ModelContacts</text>
<text text-anchor="middle" x="1140.51" y="-81.5" font-family="Helvetica,sans-Serif" font-size="10.00">::Pimpl</text>
</g>
<!-- Node2 -->
<g id="node2" class="node"><title>Node2</title>
<g id="a_node2"><a xlink:href="../../d2/d7c/classocra_1_1CompositeVariable.html" target="_top" xlink:title="A concatenation of base variables and other composite variables. ">
<polygon fill="white" stroke="black" points="824.358,-120.5 824.358,-138.5 949.118,-138.5 949.118,-120.5 824.358,-120.5"/>
<text text-anchor="middle" x="886.738" y="-126.5" font-family="Helvetica,sans-Serif" font-size="10.00">ocra::CompositeVariable</text>
</a>
</g>
</g>
<!-- Node2&#45;&gt;Node1 -->
<g id="edge1" class="edge"><title>Node2&#45;&gt;Node1</title>
<path fill="none" stroke="#9a32cd" stroke-dasharray="5,2" d="M959.504,-120.066C992.77,-115.467 1032.79,-109.615 1068.65,-103.5 1074.46,-102.509 1080.53,-101.41 1086.56,-100.277"/>
<polygon fill="#9a32cd" stroke="#9a32cd" points="958.84,-116.624 949.409,-121.452 959.792,-123.559 958.84,-116.624"/>
<text text-anchor="middle" x="1017.88" y="-121.5" font-family="Helvetica,sans-Serif" font-size="10.00"> contactForcesVariable</text>
</g>
<!-- Node3 -->
<g id="node3" class="node"><title>Node3</title>
<g id="a_node3"><a xlink:href="../../d7/d79/classocra_1_1Composite.html" target="_top" xlink:title="ocra::Composite\&lt; Variable,\l CompositeVariable, VariableParenthood \&gt;">
<polygon fill="white" stroke="black" points="582.994,-115.5 582.994,-143.5 787.358,-143.5 787.358,-115.5 582.994,-115.5"/>
<text text-anchor="start" x="590.994" y="-131.5" font-family="Helvetica,sans-Serif" font-size="10.00">ocra::Composite&lt; Variable,</text>
<text text-anchor="middle" x="685.176" y="-121.5" font-family="Helvetica,sans-Serif" font-size="10.00"> CompositeVariable, VariableParenthood &gt;</text>
</a>
</g>
</g>
<!-- Node3&#45;&gt;Node2 -->
<g id="edge2" class="edge"><title>Node3&#45;&gt;Node2</title>
<path fill="none" stroke="midnightblue" d="M797.685,-129.5C806.742,-129.5 815.669,-129.5 824.161,-129.5"/>
<polygon fill="midnightblue" stroke="midnightblue" points="797.419,-126 787.419,-129.5 797.419,-133 797.419,-126"/>
</g>
<!-- Node4 -->
<g id="node4" class="node"><title>Node4</title>
<g id="a_node4"><a xlink:href="../../d2/dac/classocra_1_1Variable.html" target="_top" xlink:title="This class represents a variable in a mathematical sense. ">
<polygon fill="white" stroke="black" points="646.695,-162.5 646.695,-180.5 723.657,-180.5 723.657,-162.5 646.695,-162.5"/>
<text text-anchor="middle" x="685.176" y="-168.5" font-family="Helvetica,sans-Serif" font-size="10.00">ocra::Variable</text>
</a>
</g>
</g>
<!-- Node4&#45;&gt;Node2 -->
<g id="edge3" class="edge"><title>Node4&#45;&gt;Node2</title>
<path fill="none" stroke="midnightblue" d="M733.938,-162.978C750.845,-159.843 769.978,-156.162 787.358,-152.5 807.783,-148.197 830.477,-142.925 848.917,-138.514"/>
<polygon fill="midnightblue" stroke="midnightblue" points="732.937,-159.604 723.735,-164.854 734.203,-166.488 732.937,-159.604"/>
</g>
<!-- Node5 -->
<g id="node5" class="node"><title>Node5</title>
<g id="a_node5"><a xlink:href="../../d0/d29/classocra_1_1Component.html" target="_top" xlink:title="ocra::Component\&lt; Variable,\l CompositeVariable, VariableParenthood \&gt;">
<polygon fill="white" stroke="black" points="341.63,-138.5 341.63,-166.5 545.994,-166.5 545.994,-138.5 341.63,-138.5"/>
<text text-anchor="start" x="349.63" y="-154.5" font-family="Helvetica,sans-Serif" font-size="10.00">ocra::Component&lt; Variable,</text>
<text text-anchor="middle" x="443.812" y="-144.5" font-family="Helvetica,sans-Serif" font-size="10.00"> CompositeVariable, VariableParenthood &gt;</text>
</a>
</g>
</g>
<!-- Node5&#45;&gt;Node4 -->
<g id="edge4" class="edge"><title>Node5&#45;&gt;Node4</title>
<path fill="none" stroke="midnightblue" d="M556.37,-161.355C588.856,-163.934 622.144,-166.576 646.601,-168.517"/>
<polygon fill="midnightblue" stroke="midnightblue" points="556.57,-157.86 546.324,-160.558 556.016,-164.838 556.57,-157.86"/>
</g>
<!-- Node6 -->
<g id="node6" class="node"><title>Node6</title>
<g id="a_node6"><a xlink:href="../../d3/d16/classocra_1_1ObserverSubject.html" target="_top" xlink:title="ocra::ObserverSubject">
<polygon fill="white" stroke="black" points="386.068,-101.5 386.068,-119.5 501.556,-119.5 501.556,-101.5 386.068,-101.5"/>
<text text-anchor="middle" x="443.812" y="-107.5" font-family="Helvetica,sans-Serif" font-size="10.00">ocra::ObserverSubject</text>
</a>
</g>
</g>
<!-- Node6&#45;&gt;Node4 -->
<g id="edge5" class="edge"><title>Node6&#45;&gt;Node4</title>
<path fill="none" stroke="midnightblue" d="M511.738,-118.505C523.384,-120.992 535.211,-124.246 545.994,-128.5 564.228,-135.693 564.795,-145.22 582.994,-152.5 603.24,-160.599 627.169,-165.293 646.672,-167.989"/>
<polygon fill="midnightblue" stroke="midnightblue" points="512.068,-115.003 501.581,-116.51 510.719,-121.871 512.068,-115.003"/>
</g>
<!-- Node17 -->
<g id="node17" class="node"><title>Node17</title>
<g id="a_node17"><a xlink:href="../../d4/d00/classocra_1_1Model.html" target="_top" xlink:title="Model class. ">
<polygon fill="white" stroke="black" points="651.053,-78.5 651.053,-96.5 719.299,-96.5 719.299,-78.5 651.053,-78.5"/>
<text text-anchor="middle" x="685.176" y="-84.5" font-family="Helvetica,sans-Serif" font-size="10.00">ocra::Model</text>
</a>
</g>
</g>
<!-- Node6&#45;&gt;Node17 -->
<g id="edge17" class="edge"><title>Node6&#45;&gt;Node17</title>
<path fill="none" stroke="midnightblue" d="M511.887,-104.055C557.178,-99.703 615.017,-94.1454 650.823,-90.7049"/>
<polygon fill="midnightblue" stroke="midnightblue" points="511.461,-100.58 501.842,-105.02 512.131,-107.548 511.461,-100.58"/>
</g>
<!-- Node7 -->
<g id="node7" class="node"><title>Node7</title>
<g id="a_node7"><a xlink:href="../../d2/d45/classocra_1_1Observer.html" target="_top" xlink:title="ocra::Observer">
<polygon fill="white" stroke="black" points="222.497,-169.5 222.497,-187.5 304.63,-187.5 304.63,-169.5 222.497,-169.5"/>
<text text-anchor="middle" x="263.563" y="-175.5" font-family="Helvetica,sans-Serif" font-size="10.00">ocra::Observer</text>
</a>
</g>
</g>
<!-- Node7&#45;&gt;Node6 -->
<g id="edge6" class="edge"><title>Node7&#45;&gt;Node6</title>
<path fill="none" stroke="midnightblue" d="M283.71,-162.952C298.618,-151.651 320.299,-136.916 341.63,-128.5 355.571,-123 371.258,-119.171 386.043,-116.509"/>
<polygon fill="midnightblue" stroke="midnightblue" points="281.509,-160.23 275.768,-169.135 285.809,-165.753 281.509,-160.23"/>
</g>
<!-- Node8 -->
<g id="node8" class="node"><title>Node8</title>
<g id="a_node8"><a xlink:href="../../d4/dee/classocra_1_1ObserverBase.html" target="_top" xlink:title="ocra::ObserverBase\l\&lt; EVT_RESIZE \&gt;">
<polygon fill="white" stroke="black" points="40.2856,-235.5 40.2856,-263.5 145.211,-263.5 145.211,-235.5 40.2856,-235.5"/>
<text text-anchor="start" x="48.2856" y="-251.5" font-family="Helvetica,sans-Serif" font-size="10.00">ocra::ObserverBase</text>
<text text-anchor="middle" x="92.7485" y="-241.5" font-family="Helvetica,sans-Serif" font-size="10.00">&lt; EVT_RESIZE &gt;</text>
</a>
</g>
</g>
<!-- Node8&#45;&gt;Node7 -->
<g id="edge7" class="edge"><title>Node8&#45;&gt;Node7</title>
<path fill="none" stroke="midnightblue" d="M155.334,-236.047C165.579,-233.058 175.966,-229.549 185.497,-225.5 209.873,-215.144 235.651,-197.978 250.357,-187.507"/>
<polygon fill="midnightblue" stroke="midnightblue" points="154.285,-232.705 145.586,-238.754 156.158,-239.45 154.285,-232.705"/>
</g>
<!-- Node9 -->
<g id="node9" class="node"><title>Node9</title>
<g id="a_node9"><a xlink:href="../../d4/dee/classocra_1_1ObserverBase.html" target="_top" xlink:title="ocra::ObserverBase\l\&lt; EVT_CHANGE_DEPENDENCIES \&gt;">
<polygon fill="white" stroke="black" points="0,-188.5 0,-216.5 185.497,-216.5 185.497,-188.5 0,-188.5"/>
<text text-anchor="start" x="8" y="-204.5" font-family="Helvetica,sans-Serif" font-size="10.00">ocra::ObserverBase</text>
<text text-anchor="middle" x="92.7485" y="-194.5" font-family="Helvetica,sans-Serif" font-size="10.00">&lt; EVT_CHANGE_DEPENDENCIES &gt;</text>
</a>
</g>
</g>
<!-- Node9&#45;&gt;Node7 -->
<g id="edge8" class="edge"><title>Node9&#45;&gt;Node7</title>
<path fill="none" stroke="midnightblue" d="M195.725,-188.002C205,-186.684 213.979,-185.407 222.187,-184.24"/>
<polygon fill="midnightblue" stroke="midnightblue" points="194.974,-184.574 185.566,-189.447 195.959,-191.504 194.974,-184.574"/>
</g>
<!-- Node10 -->
<g id="node10" class="node"><title>Node10</title>
<g id="a_node10"><a xlink:href="../../d4/dee/classocra_1_1ObserverBase.html" target="_top" xlink:title="ocra::ObserverBase\l\&lt; EVT_CHANGE_VALUE \&gt;">
<polygon fill="white" stroke="black" points="23.4253,-141.5 23.4253,-169.5 162.072,-169.5 162.072,-141.5 23.4253,-141.5"/>
<text text-anchor="start" x="31.4253" y="-157.5" font-family="Helvetica,sans-Serif" font-size="10.00">ocra::ObserverBase</text>
<text text-anchor="middle" x="92.7485" y="-147.5" font-family="Helvetica,sans-Serif" font-size="10.00">&lt; EVT_CHANGE_VALUE &gt;</text>
</a>
</g>
</g>
<!-- Node10&#45;&gt;Node7 -->
<g id="edge9" class="edge"><title>Node10&#45;&gt;Node7</title>
<path fill="none" stroke="midnightblue" d="M172.466,-166.225C189.64,-168.565 207.13,-170.948 222.074,-172.984"/>
<polygon fill="midnightblue" stroke="midnightblue" points="172.793,-162.737 162.412,-164.855 171.848,-169.673 172.793,-162.737"/>
</g>
<!-- Node11 -->
<g id="node11" class="node"><title>Node11</title>
<g id="a_node11"><a xlink:href="../../dc/d77/classocra_1_1Subject.html" target="_top" xlink:title="ocra::Subject">
<polygon fill="white" stroke="black" points="226.381,-72.5 226.381,-90.5 300.746,-90.5 300.746,-72.5 226.381,-72.5"/>
<text text-anchor="middle" x="263.563" y="-78.5" font-family="Helvetica,sans-Serif" font-size="10.00">ocra::Subject</text>
</a>
</g>
</g>
<!-- Node11&#45;&gt;Node6 -->
<g id="edge10" class="edge"><title>Node11&#45;&gt;Node6</title>
<path fill="none" stroke="midnightblue" d="M311.07,-89.0664C334.43,-92.8669 362.898,-97.4985 387.386,-101.483"/>
<polygon fill="midnightblue" stroke="midnightblue" points="311.497,-85.5899 301.065,-87.4386 310.373,-92.4991 311.497,-85.5899"/>
</g>
<!-- Node12 -->
<g id="node12" class="node"><title>Node12</title>
<g id="a_node12"><a xlink:href="../../dc/d29/classocra_1_1SubjectBase.html" target="_top" xlink:title="ocra::SubjectBase\&lt;\l EVT_RESIZE \&gt;">
<polygon fill="white" stroke="black" points="41.25,-94.5 41.25,-122.5 144.247,-122.5 144.247,-94.5 41.25,-94.5"/>
<text text-anchor="start" x="49.25" y="-110.5" font-family="Helvetica,sans-Serif" font-size="10.00">ocra::SubjectBase&lt;</text>
<text text-anchor="middle" x="92.7485" y="-100.5" font-family="Helvetica,sans-Serif" font-size="10.00"> EVT_RESIZE &gt;</text>
</a>
</g>
</g>
<!-- Node12&#45;&gt;Node11 -->
<g id="edge11" class="edge"><title>Node12&#45;&gt;Node11</title>
<path fill="none" stroke="midnightblue" d="M154.489,-98.7853C178.489,-94.9468 205.266,-90.6641 226.162,-87.322"/>
<polygon fill="midnightblue" stroke="midnightblue" points="153.72,-95.3636 144.399,-100.399 154.826,-102.276 153.72,-95.3636"/>
</g>
<!-- Node13 -->
<g id="node13" class="node"><title>Node13</title>
<g id="a_node13"><a xlink:href="../../dc/d29/classocra_1_1SubjectBase.html" target="_top" xlink:title="ocra::SubjectBase\&lt;\l EVT_CHANGE_DEPENDENCIES \&gt;">
<polygon fill="white" stroke="black" points="2.91992,-47.5 2.91992,-75.5 182.577,-75.5 182.577,-47.5 2.91992,-47.5"/>
<text text-anchor="start" x="10.9199" y="-63.5" font-family="Helvetica,sans-Serif" font-size="10.00">ocra::SubjectBase&lt;</text>
<text text-anchor="middle" x="92.7485" y="-53.5" font-family="Helvetica,sans-Serif" font-size="10.00"> EVT_CHANGE_DEPENDENCIES &gt;</text>
</a>
</g>
</g>
<!-- Node13&#45;&gt;Node11 -->
<g id="edge12" class="edge"><title>Node13&#45;&gt;Node11</title>
<path fill="none" stroke="midnightblue" d="M192.668,-73.2193C204.562,-74.6284 216.06,-75.9906 226.178,-77.1893"/>
<polygon fill="midnightblue" stroke="midnightblue" points="192.948,-69.728 182.605,-72.0271 192.124,-76.6794 192.948,-69.728"/>
</g>
<!-- Node14 -->
<g id="node14" class="node"><title>Node14</title>
<g id="a_node14"><a xlink:href="../../dc/d29/classocra_1_1SubjectBase.html" target="_top" xlink:title="ocra::SubjectBase\&lt;\l EVT_CHANGE_VALUE \&gt;">
<polygon fill="white" stroke="black" points="26.3452,-0.5 26.3452,-28.5 159.152,-28.5 159.152,-0.5 26.3452,-0.5"/>
<text text-anchor="start" x="34.3452" y="-16.5" font-family="Helvetica,sans-Serif" font-size="10.00">ocra::SubjectBase&lt;</text>
<text text-anchor="middle" x="92.7485" y="-6.5" font-family="Helvetica,sans-Serif" font-size="10.00"> EVT_CHANGE_VALUE &gt;</text>
</a>
</g>
</g>
<!-- Node14&#45;&gt;Node11 -->
<g id="edge13" class="edge"><title>Node14&#45;&gt;Node11</title>
<path fill="none" stroke="midnightblue" d="M168.784,-31.4984C174.5,-33.3424 180.129,-35.342 185.497,-37.5 209.084,-46.9811 234.281,-62.519 249.214,-72.3674"/>
<polygon fill="midnightblue" stroke="midnightblue" points="169.7,-28.1186 159.114,-28.5415 167.653,-34.8126 169.7,-28.1186"/>
</g>
<!-- Node15 -->
<g id="node15" class="node"><title>Node15</title>
<polygon fill="white" stroke="#bfbfbf" points="407.455,-232.5 407.455,-250.5 480.169,-250.5 480.169,-232.5 407.455,-232.5"/>
<text text-anchor="middle" x="443.812" y="-238.5" font-family="Helvetica,sans-Serif" font-size="10.00">noncopyable</text>
</g>
<!-- Node15&#45;&gt;Node4 -->
<g id="edge14" class="edge"><title>Node15&#45;&gt;Node4</title>
<path fill="none" stroke="#8b1a1a" d="M490.268,-234.639C507.829,-231.553 527.992,-227.474 545.994,-222.5 588.389,-210.785 636.193,-191.79 663,-180.586"/>
<polygon fill="#8b1a1a" stroke="#8b1a1a" points="489.536,-231.213 480.264,-236.341 490.71,-238.114 489.536,-231.213"/>
</g>
<!-- Node16 -->
<g id="node16" class="node"><title>Node16</title>
<g id="a_node16"><a xlink:href="../../dc/d20/classocra_1_1VariableHasRestrictedClassDerivation.html" target="_top" xlink:title="ocra::VariableHasRestricted\lClassDerivation">
<polygon fill="white" stroke="black" points="373.932,-185.5 373.932,-213.5 513.692,-213.5 513.692,-185.5 373.932,-185.5"/>
<text text-anchor="start" x="381.932" y="-201.5" font-family="Helvetica,sans-Serif" font-size="10.00">ocra::VariableHasRestricted</text>
<text text-anchor="middle" x="443.812" y="-191.5" font-family="Helvetica,sans-Serif" font-size="10.00">ClassDerivation</text>
</a>
</g>
</g>
<!-- Node16&#45;&gt;Node4 -->
<g id="edge15" class="edge"><title>Node16&#45;&gt;Node4</title>
<path fill="none" stroke="#8b1a1a" d="M523.779,-190.263C565.084,-185.431 613.735,-179.74 646.535,-175.903"/>
<polygon fill="#8b1a1a" stroke="#8b1a1a" points="523.251,-186.801 513.725,-191.439 524.064,-193.753 523.251,-186.801"/>
</g>
<!-- Node17&#45;&gt;Node1 -->
<g id="edge16" class="edge"><title>Node17&#45;&gt;Node1</title>
<path fill="none" stroke="#9a32cd" stroke-dasharray="5,2" d="M729.67,-87.6919C813.205,-88.0604 995.82,-88.8661 1086.39,-89.2657"/>
<polygon fill="#9a32cd" stroke="#9a32cd" points="729.526,-84.1913 719.511,-87.6471 729.495,-91.1912 729.526,-84.1913"/>
<text text-anchor="middle" x="886.738" y="-91.5" font-family="Helvetica,sans-Serif" font-size="10.00"> model</text>
</g>
<!-- Node18 -->
<g id="node18" class="node"><title>Node18</title>
<g id="a_node18"><a xlink:href="../../db/de3/classocra_1_1NamedInstance.html" target="_top" xlink:title="ocra::NamedInstance">
<polygon fill="white" stroke="black" points="388.288,-64.5 388.288,-82.5 499.336,-82.5 499.336,-64.5 388.288,-64.5"/>
<text text-anchor="middle" x="443.812" y="-70.5" font-family="Helvetica,sans-Serif" font-size="10.00">ocra::NamedInstance</text>
</a>
</g>
</g>
<!-- Node18&#45;&gt;Node17 -->
<g id="edge18" class="edge"><title>Node18&#45;&gt;Node17</title>
<path fill="none" stroke="midnightblue" d="M509.53,-77.2852C555.156,-79.9538 614.396,-83.4187 650.826,-85.5494"/>
<polygon fill="midnightblue" stroke="midnightblue" points="509.614,-73.7843 499.427,-76.6943 509.206,-80.7723 509.614,-73.7843"/>
</g>
<!-- Node19 -->
<g id="node19" class="node"><title>Node19</title>
<polygon fill="white" stroke="#bfbfbf" points="859.012,-34.5 859.012,-52.5 914.465,-52.5 914.465,-34.5 859.012,-34.5"/>
<text text-anchor="middle" x="886.738" y="-40.5" font-family="Helvetica,sans-Serif" font-size="10.00">MatrixXd</text>
</g>
<!-- Node19&#45;&gt;Node1 -->
<g id="edge19" class="edge"><title>Node19&#45;&gt;Node1</title>
<path fill="none" stroke="#9a32cd" stroke-dasharray="5,2" d="M924.972,-45.7824C961.819,-48.5652 1019.65,-54.3473 1068.65,-65.5 1079.92,-68.0654 1091.92,-71.7478 1102.78,-75.4605"/>
<polygon fill="#9a32cd" stroke="#9a32cd" points="924.928,-42.2703 914.703,-45.0437 924.426,-49.2522 924.928,-42.2703"/>
<text text-anchor="middle" x="1017.88" y="-67.5" font-family="Helvetica,sans-Serif" font-size="10.00"> Jct</text>
</g>
</g>
</svg>
