<?xml version="1.0" encoding="UTF-8" standalone="no"?>
<!DOCTYPE svg PUBLIC "-//W3C//DTD SVG 1.1//EN"
 "http://www.w3.org/Graphics/SVG/1.1/DTD/svg11.dtd">
<!-- Generated by graphviz version 2.38.0 (20140413.2041)
 -->
<!-- Title: CascadeQP.h Pages: 1 -->
<svg width="503pt" height="192pt"
 viewBox="0.00 0.00 503.05 192.00" xmlns="http://www.w3.org/2000/svg" xmlns:xlink="http://www.w3.org/1999/xlink">
<g id="graph0" class="graph" transform="scale(1 1) rotate(0) translate(4 188)">
<title>CascadeQP.h</title>
<polygon fill="white" stroke="none" points="-4,4 -4,-188 499.046,-188 499.046,4 -4,4"/>
<!-- Node0 -->
<g id="node1" class="node"><title>Node0</title>
<polygon fill="#bfbfbf" stroke="black" points="311.041,-165.5 311.041,-183.5 388.008,-183.5 388.008,-165.5 311.041,-165.5"/>
<text text-anchor="middle" x="349.524" y="-171.5" font-family="Helvetica,sans-Serif" font-size="10.00">CascadeQP.h</text>
</g>
<!-- Node1 -->
<g id="node2" class="node"><title>Node1</title>
<g id="a_node2"><a xlink:href="../../d5/de8/CascadeQPStructures_8h.html" target="_top" xlink:title="Declaration file of the structures needed in CascadeQP. ">
<polygon fill="white" stroke="black" points="106.879,-110.5 106.879,-128.5 280.169,-128.5 280.169,-110.5 106.879,-110.5"/>
<text text-anchor="middle" x="193.524" y="-116.5" font-family="Helvetica,sans-Serif" font-size="10.00">ocra/optim/CascadeQPStructures.h</text>
</a>
</g>
</g>
<!-- Node0&#45;&gt;Node1 -->
<g id="edge1" class="edge"><title>Node0&#45;&gt;Node1</title>
<path fill="none" stroke="midnightblue" d="M325.831,-165.45C299.412,-156.475 256.49,-141.892 226.73,-131.781"/>
<polygon fill="midnightblue" stroke="midnightblue" points="227.779,-128.441 217.184,-128.538 225.527,-135.069 227.779,-128.441"/>
</g>
<!-- Node6 -->
<g id="node7" class="node"><title>Node6</title>
<polygon fill="white" stroke="#bfbfbf" points="229.468,-0.5 229.468,-18.5 281.581,-18.5 281.581,-0.5 229.468,-0.5"/>
<text text-anchor="middle" x="255.524" y="-6.5" font-family="Helvetica,sans-Serif" font-size="10.00">memory</text>
</g>
<!-- Node0&#45;&gt;Node6 -->
<g id="edge8" class="edge"><title>Node0&#45;&gt;Node6</title>
<path fill="none" stroke="midnightblue" d="M347.942,-165.393C343.727,-145.264 330.785,-91.9608 305.524,-55 297.613,-43.4243 286.052,-32.8751 276.04,-24.9562"/>
<polygon fill="midnightblue" stroke="midnightblue" points="277.86,-21.9451 267.77,-18.7145 273.643,-27.5324 277.86,-21.9451"/>
</g>
<!-- Node8 -->
<g id="node9" class="node"><title>Node8</title>
<polygon fill="white" stroke="#bfbfbf" points="352.909,-110.5 352.909,-128.5 396.14,-128.5 396.14,-110.5 352.909,-110.5"/>
<text text-anchor="middle" x="374.524" y="-116.5" font-family="Helvetica,sans-Serif" font-size="10.00">vector</text>
</g>
<!-- Node0&#45;&gt;Node8 -->
<g id="edge9" class="edge"><title>Node0&#45;&gt;Node8</title>
<path fill="none" stroke="midnightblue" d="M353.431,-165.219C356.9,-157.864 362.081,-146.88 366.44,-137.639"/>
<polygon fill="midnightblue" stroke="midnightblue" points="369.627,-139.087 370.727,-128.55 363.296,-136.101 369.627,-139.087"/>
</g>
<!-- Node9 -->
<g id="node10" class="node"><title>Node9</title>
<polygon fill="white" stroke="#bfbfbf" points="414.002,-110.5 414.002,-128.5 495.046,-128.5 495.046,-110.5 414.002,-110.5"/>
<text text-anchor="middle" x="454.524" y="-116.5" font-family="Helvetica,sans-Serif" font-size="10.00">qpOASES.hpp</text>
</g>
<!-- Node0&#45;&gt;Node9 -->
<g id="edge10" class="edge"><title>Node0&#45;&gt;Node9</title>
<path fill="none" stroke="midnightblue" d="M365.472,-165.45C382.432,-156.89 409.495,-143.229 429.341,-133.212"/>
<polygon fill="midnightblue" stroke="midnightblue" points="431.077,-136.256 438.427,-128.625 427.923,-130.007 431.077,-136.256"/>
</g>
<!-- Node2 -->
<g id="node3" class="node"><title>Node2</title>
<g id="a_node3"><a xlink:href="../../d5/d55/MathTypes_8h.html" target="_top" xlink:title="Declaration file of the OptimizationVariable class. ">
<polygon fill="white" stroke="black" points="0,-55.5 0,-73.5 111.049,-73.5 111.049,-55.5 0,-55.5"/>
<text text-anchor="middle" x="55.5244" y="-61.5" font-family="Helvetica,sans-Serif" font-size="10.00">ocra/util/MathTypes.h</text>
</a>
</g>
</g>
<!-- Node1&#45;&gt;Node2 -->
<g id="edge2" class="edge"><title>Node1&#45;&gt;Node2</title>
<path fill="none" stroke="midnightblue" d="M172.565,-110.45C149.566,-101.617 112.429,-87.3546 86.1631,-77.267"/>
<polygon fill="midnightblue" stroke="midnightblue" points="87.271,-73.9433 76.6809,-73.6253 84.7612,-80.478 87.271,-73.9433"/>
</g>
<!-- Node5 -->
<g id="node6" class="node"><title>Node5</title>
<g id="a_node6"><a xlink:href="../../df/d0a/Macros_8h.html" target="_top" xlink:title="ocra/util/Macros.h">
<polygon fill="white" stroke="black" points="129.066,-55.5 129.066,-73.5 223.982,-73.5 223.982,-55.5 129.066,-55.5"/>
<text text-anchor="middle" x="176.524" y="-61.5" font-family="Helvetica,sans-Serif" font-size="10.00">ocra/util/Macros.h</text>
</a>
</g>
</g>
<!-- Node1&#45;&gt;Node5 -->
<g id="edge5" class="edge"><title>Node1&#45;&gt;Node5</title>
<path fill="none" stroke="midnightblue" d="M190.868,-110.219C188.559,-103.02 185.135,-92.3458 182.212,-83.2311"/>
<polygon fill="midnightblue" stroke="midnightblue" points="185.493,-82.0027 179.106,-73.5496 178.828,-84.1407 185.493,-82.0027"/>
</g>
<!-- Node7 -->
<g id="node8" class="node"><title>Node7</title>
<polygon fill="white" stroke="#bfbfbf" points="242.352,-55.5 242.352,-73.5 296.697,-73.5 296.697,-55.5 242.352,-55.5"/>
<text text-anchor="middle" x="269.524" y="-61.5" font-family="Helvetica,sans-Serif" font-size="10.00">iostream</text>
</g>
<!-- Node1&#45;&gt;Node7 -->
<g id="edge7" class="edge"><title>Node1&#45;&gt;Node7</title>
<path fill="none" stroke="midnightblue" d="M205.067,-110.45C216.785,-102.279 235.166,-89.4604 249.306,-79.5996"/>
<polygon fill="midnightblue" stroke="midnightblue" points="251.673,-82.2163 257.873,-73.6253 247.668,-76.4746 251.673,-82.2163"/>
</g>
<!-- Node3 -->
<g id="node4" class="node"><title>Node3</title>
<polygon fill="white" stroke="#bfbfbf" points="8.89404,-0.5 8.89404,-18.5 82.1548,-18.5 82.1548,-0.5 8.89404,-0.5"/>
<text text-anchor="middle" x="45.5244" y="-6.5" font-family="Helvetica,sans-Serif" font-size="10.00">Eigen/Dense</text>
</g>
<!-- Node2&#45;&gt;Node3 -->
<g id="edge3" class="edge"><title>Node2&#45;&gt;Node3</title>
<path fill="none" stroke="midnightblue" d="M53.9619,-55.2188C52.6185,-48.0986 50.6334,-37.5775 48.9261,-28.5289"/>
<polygon fill="midnightblue" stroke="midnightblue" points="52.3367,-27.7272 47.0432,-18.5496 45.458,-29.0251 52.3367,-27.7272"/>
</g>
<!-- Node4 -->
<g id="node5" class="node"><title>Node4</title>
<polygon fill="white" stroke="#bfbfbf" points="99.9087,-0.5 99.9087,-18.5 143.14,-18.5 143.14,-0.5 99.9087,-0.5"/>
<text text-anchor="middle" x="121.524" y="-6.5" font-family="Helvetica,sans-Serif" font-size="10.00">cmath</text>
</g>
<!-- Node2&#45;&gt;Node4 -->
<g id="edge4" class="edge"><title>Node2&#45;&gt;Node4</title>
<path fill="none" stroke="midnightblue" d="M65.5484,-55.4504C75.5306,-47.4345 91.0809,-34.9471 103.261,-25.1663"/>
<polygon fill="midnightblue" stroke="midnightblue" points="105.8,-27.6157 111.406,-18.6253 101.417,-22.1577 105.8,-27.6157"/>
</g>
<!-- Node5&#45;&gt;Node6 -->
<g id="edge6" class="edge"><title>Node5&#45;&gt;Node6</title>
<path fill="none" stroke="midnightblue" d="M188.523,-55.4504C200.819,-47.201 220.174,-34.2158 234.927,-24.3187"/>
<polygon fill="midnightblue" stroke="midnightblue" points="237.059,-27.1031 243.413,-18.6253 233.159,-21.2901 237.059,-27.1031"/>
</g>
</g>
</svg>
