<?xml version="1.0" encoding="UTF-8" standalone="no"?>
<!DOCTYPE svg PUBLIC "-//W3C//DTD SVG 1.1//EN"
 "http://www.w3.org/Graphics/SVG/1.1/DTD/svg11.dtd">
<!-- Generated by graphviz version 2.38.0 (20140413.2041)
 -->
<!-- Title: ocra::InequalitiesConstraints Pages: 1 -->
<svg width="150pt" height="92pt"
 viewBox="0.00 0.00 150.18 92.00" xmlns="http://www.w3.org/2000/svg" xmlns:xlink="http://www.w3.org/1999/xlink">
<g id="graph0" class="graph" transform="scale(1 1) rotate(0) translate(4 88)">
<title>ocra::InequalitiesConstraints</title>
<polygon fill="white" stroke="none" points="-4,4 -4,-88 146.177,-88 146.177,4 -4,4"/>
<!-- Node1 -->
<g id="node1" class="node"><title>Node1</title>
<polygon fill="#bfbfbf" stroke="black" points="0,-0.5 0,-18.5 142.177,-18.5 142.177,-0.5 0,-0.5"/>
<text text-anchor="middle" x="71.0884" y="-6.5" font-family="Helvetica,sans-Serif" font-size="10.00">ocra::InequalitiesConstraints</text>
</g>
<!-- Node2 -->
<g id="node2" class="node"><title>Node2</title>
<polygon fill="white" stroke="#bfbfbf" points="5.79541,-65.5 5.79541,-83.5 62.3813,-83.5 62.3813,-65.5 5.79541,-65.5"/>
<text text-anchor="middle" x="34.0884" y="-71.5" font-family="Helvetica,sans-Serif" font-size="10.00">VectorXd</text>
</g>
<!-- Node2&#45;&gt;Node1 -->
<g id="edge1" class="edge"><title>Node2&#45;&gt;Node1</title>
<path fill="none" stroke="#9a32cd" stroke-dasharray="5,2" d="M44.1387,-56.3872C51.3695,-44.0753 60.7937,-28.0288 66.3671,-18.539"/>
<polygon fill="#9a32cd" stroke="#9a32cd" points="40.9717,-54.8685 38.9255,-65.2639 47.0078,-58.4135 40.9717,-54.8685"/>
<text text-anchor="middle" x="58.9775" y="-39" font-family="Helvetica,sans-Serif" font-size="10.00"> s</text>
</g>
<!-- Node3 -->
<g id="node3" class="node"><title>Node3</title>
<polygon fill="white" stroke="#bfbfbf" points="80.3618,-65.5 80.3618,-83.5 135.815,-83.5 135.815,-65.5 80.3618,-65.5"/>
<text text-anchor="middle" x="108.088" y="-71.5" font-family="Helvetica,sans-Serif" font-size="10.00">MatrixXd</text>
</g>
<!-- Node3&#45;&gt;Node1 -->
<g id="edge2" class="edge"><title>Node3&#45;&gt;Node1</title>
<path fill="none" stroke="#9a32cd" stroke-dasharray="5,2" d="M98.038,-56.3872C90.8072,-44.0753 81.3831,-28.0288 75.8097,-18.539"/>
<polygon fill="#9a32cd" stroke="#9a32cd" points="95.169,-58.4135 103.251,-65.2639 101.205,-54.8685 95.169,-58.4135"/>
<text text-anchor="middle" x="97.0884" y="-39" font-family="Helvetica,sans-Serif" font-size="10.00"> R</text>
</g>
</g>
</svg>
