<?xml version="1.0" encoding="UTF-8" standalone="no"?>
<!DOCTYPE svg PUBLIC "-//W3C//DTD SVG 1.1//EN"
 "http://www.w3.org/Graphics/SVG/1.1/DTD/svg11.dtd">
<!-- Generated by graphviz version 2.38.0 (20140413.2041)
 -->
<!-- Title: ControlEnum.h Pages: 1 -->
<svg width="276pt" height="137pt"
 viewBox="0.00 0.00 276.19 137.00" xmlns="http://www.w3.org/2000/svg" xmlns:xlink="http://www.w3.org/1999/xlink">
<g id="graph0" class="graph" transform="scale(1 1) rotate(0) translate(4 133)">
<title>ControlEnum.h</title>
<polygon fill="white" stroke="none" points="-4,4 -4,-133 272.194,-133 272.194,4 -4,4"/>
<!-- Node0 -->
<g id="node1" class="node"><title>Node0</title>
<polygon fill="#bfbfbf" stroke="black" points="136.214,-110.5 136.214,-128.5 218.914,-128.5 218.914,-110.5 136.214,-110.5"/>
<text text-anchor="middle" x="177.564" y="-116.5" font-family="Helvetica,sans-Serif" font-size="10.00">ControlEnum.h</text>
</g>
<!-- Node1 -->
<g id="node2" class="node"><title>Node1</title>
<g id="a_node2"><a xlink:href="../../da/dbb/StringUtilities_8h.html" target="_top" xlink:title="ocra/util/StringUtilities.h">
<polygon fill="white" stroke="black" points="65.3228,-55.5 65.3228,-73.5 185.805,-73.5 185.805,-55.5 65.3228,-55.5"/>
<text text-anchor="middle" x="125.564" y="-61.5" font-family="Helvetica,sans-Serif" font-size="10.00">ocra/util/StringUtilities.h</text>
</a>
</g>
</g>
<!-- Node0&#45;&gt;Node1 -->
<g id="edge1" class="edge"><title>Node0&#45;&gt;Node1</title>
<path fill="none" stroke="midnightblue" d="M169.439,-110.219C161.762,-102.394 150.056,-90.4631 140.666,-80.8921"/>
<polygon fill="midnightblue" stroke="midnightblue" points="142.963,-78.2365 133.462,-73.5496 137.967,-83.1389 142.963,-78.2365"/>
</g>
<!-- Node6 -->
<g id="node7" class="node"><title>Node6</title>
<polygon fill="white" stroke="#bfbfbf" points="203.392,-55.5 203.392,-73.5 257.736,-73.5 257.736,-55.5 203.392,-55.5"/>
<text text-anchor="middle" x="230.564" y="-61.5" font-family="Helvetica,sans-Serif" font-size="10.00">iostream</text>
</g>
<!-- Node0&#45;&gt;Node6 -->
<g id="edge6" class="edge"><title>Node0&#45;&gt;Node6</title>
<path fill="none" stroke="midnightblue" d="M185.845,-110.219C193.67,-102.394 205.601,-90.4631 215.172,-80.8921"/>
<polygon fill="midnightblue" stroke="midnightblue" points="217.918,-83.0955 222.514,-73.5496 212.968,-78.1458 217.918,-83.0955"/>
</g>
<!-- Node2 -->
<g id="node3" class="node"><title>Node2</title>
<polygon fill="white" stroke="#bfbfbf" points="0,-0.5 0,-18.5 57.1279,-18.5 57.1279,-0.5 0,-0.5"/>
<text text-anchor="middle" x="28.564" y="-6.5" font-family="Helvetica,sans-Serif" font-size="10.00">algorithm</text>
</g>
<!-- Node1&#45;&gt;Node2 -->
<g id="edge2" class="edge"><title>Node1&#45;&gt;Node2</title>
<path fill="none" stroke="midnightblue" d="M110.832,-55.4504C95.3064,-46.9675 70.6163,-33.477 52.3307,-23.486"/>
<polygon fill="midnightblue" stroke="midnightblue" points="53.8885,-20.3488 43.4348,-18.6253 50.5321,-26.4917 53.8885,-20.3488"/>
</g>
<!-- Node3 -->
<g id="node4" class="node"><title>Node3</title>
<polygon fill="white" stroke="#bfbfbf" points="75.3374,-0.5 75.3374,-18.5 115.791,-18.5 115.791,-0.5 75.3374,-0.5"/>
<text text-anchor="middle" x="95.564" y="-6.5" font-family="Helvetica,sans-Serif" font-size="10.00">string</text>
</g>
<!-- Node1&#45;&gt;Node3 -->
<g id="edge3" class="edge"><title>Node1&#45;&gt;Node3</title>
<path fill="none" stroke="midnightblue" d="M120.876,-55.2188C116.669,-47.7856 110.364,-36.646 105.099,-27.3446"/>
<polygon fill="midnightblue" stroke="midnightblue" points="108.092,-25.528 100.12,-18.5496 102,-28.9763 108.092,-25.528"/>
</g>
<!-- Node4 -->
<g id="node5" class="node"><title>Node4</title>
<polygon fill="white" stroke="#bfbfbf" points="133.948,-0.5 133.948,-18.5 177.18,-18.5 177.18,-0.5 133.948,-0.5"/>
<text text-anchor="middle" x="155.564" y="-6.5" font-family="Helvetica,sans-Serif" font-size="10.00">vector</text>
</g>
<!-- Node1&#45;&gt;Node4 -->
<g id="edge4" class="edge"><title>Node1&#45;&gt;Node4</title>
<path fill="none" stroke="midnightblue" d="M130.251,-55.2188C134.459,-47.7856 140.764,-36.646 146.029,-27.3446"/>
<polygon fill="midnightblue" stroke="midnightblue" points="149.127,-28.9763 151.008,-18.5496 143.036,-25.528 149.127,-28.9763"/>
</g>
<!-- Node5 -->
<g id="node6" class="node"><title>Node5</title>
<polygon fill="white" stroke="#bfbfbf" points="194.934,-0.5 194.934,-18.5 268.194,-18.5 268.194,-0.5 194.934,-0.5"/>
<text text-anchor="middle" x="231.564" y="-6.5" font-family="Helvetica,sans-Serif" font-size="10.00">Eigen/Dense</text>
</g>
<!-- Node1&#45;&gt;Node5 -->
<g id="edge5" class="edge"><title>Node1&#45;&gt;Node5</title>
<path fill="none" stroke="midnightblue" d="M141.663,-55.4504C158.785,-46.8897 186.106,-33.2291 206.14,-23.2119"/>
<polygon fill="midnightblue" stroke="midnightblue" points="207.934,-26.228 215.313,-18.6253 204.804,-19.967 207.934,-26.228"/>
</g>
</g>
</svg>
