<?xml version="1.0" encoding="UTF-8" standalone="no"?>
<!DOCTYPE svg PUBLIC "-//W3C//DTD SVG 1.1//EN"
 "http://www.w3.org/Graphics/SVG/1.1/DTD/svg11.dtd">
<!-- Generated by graphviz version 2.38.0 (20140413.2041)
 -->
<!-- Title: JointLimitConstraint.h Pages: 1 -->
<svg width="402pt" height="247pt"
 viewBox="0.00 0.00 401.77 247.00" xmlns="http://www.w3.org/2000/svg" xmlns:xlink="http://www.w3.org/1999/xlink">
<g id="graph0" class="graph" transform="scale(1 1) rotate(0) translate(4 243)">
<title>JointLimitConstraint.h</title>
<polygon fill="white" stroke="none" points="-4,4 -4,-243 397.771,-243 397.771,4 -4,4"/>
<!-- Node49 -->
<g id="node1" class="node"><title>Node49</title>
<polygon fill="#bfbfbf" stroke="black" points="68.2808,-220.5 68.2808,-238.5 180.433,-238.5 180.433,-220.5 68.2808,-220.5"/>
<text text-anchor="middle" x="124.357" y="-226.5" font-family="Helvetica,sans-Serif" font-size="10.00">JointLimitConstraint.h</text>
</g>
<!-- Node50 -->
<g id="node2" class="node"><title>Node50</title>
<g id="a_node2"><a xlink:href="../../db/d5d/JointLimitConstraint_8cpp.html" target="_top" xlink:title="Implement joint limit constraint for wOcra controller. ">
<polygon fill="white" stroke="black" points="0,-165.5 0,-183.5 122.714,-183.5 122.714,-165.5 0,-165.5"/>
<text text-anchor="middle" x="61.3569" y="-171.5" font-family="Helvetica,sans-Serif" font-size="10.00">JointLimitConstraint.cpp</text>
</a>
</g>
</g>
<!-- Node49&#45;&gt;Node50 -->
<g id="edge1" class="edge"><title>Node49&#45;&gt;Node50</title>
<path fill="none" stroke="midnightblue" d="M107.033,-213.926C95.4271,-204.162 80.5771,-191.669 71.0153,-183.625"/>
<polygon fill="midnightblue" stroke="midnightblue" points="104.883,-216.691 114.789,-220.45 109.389,-211.334 104.883,-216.691"/>
</g>
<!-- Node51 -->
<g id="node3" class="node"><title>Node51</title>
<g id="a_node3"><a xlink:href="../../db/dc6/WocraController_8h.html" target="_top" xlink:title="Define the LQP&#45;based controller developped during my PhD thesis with ocra framework. ">
<polygon fill="white" stroke="black" points="140.428,-165.5 140.428,-183.5 236.286,-183.5 236.286,-165.5 140.428,-165.5"/>
<text text-anchor="middle" x="188.357" y="-171.5" font-family="Helvetica,sans-Serif" font-size="10.00">WocraController.h</text>
</a>
</g>
</g>
<!-- Node49&#45;&gt;Node51 -->
<g id="edge2" class="edge"><title>Node49&#45;&gt;Node51</title>
<path fill="none" stroke="midnightblue" d="M141.956,-213.926C153.746,-204.162 168.832,-191.669 178.545,-183.625"/>
<polygon fill="midnightblue" stroke="midnightblue" points="139.547,-211.377 134.077,-220.45 144.011,-216.768 139.547,-211.377"/>
</g>
<!-- Node52 -->
<g id="node4" class="node"><title>Node52</title>
<g id="a_node4"><a xlink:href="../../d2/def/WocraController_8cpp.html" target="_top" xlink:title="Implement the LQP&#45;based controller developped during my PhD thesis with ocra framework. ">
<polygon fill="white" stroke="black" points="54.147,-110.5 54.147,-128.5 160.567,-128.5 160.567,-110.5 54.147,-110.5"/>
<text text-anchor="middle" x="107.357" y="-116.5" font-family="Helvetica,sans-Serif" font-size="10.00">WocraController.cpp</text>
</a>
</g>
</g>
<!-- Node51&#45;&gt;Node52 -->
<g id="edge3" class="edge"><title>Node51&#45;&gt;Node52</title>
<path fill="none" stroke="midnightblue" d="M167.376,-159.772C152.279,-149.894 132.427,-136.904 119.775,-128.625"/>
<polygon fill="midnightblue" stroke="midnightblue" points="165.771,-162.904 176.055,-165.45 169.603,-157.046 165.771,-162.904"/>
</g>
<!-- Node53 -->
<g id="node5" class="node"><title>Node53</title>
<g id="a_node5"><a xlink:href="../../da/d7c/ControllerServer_8h.html" target="_top" xlink:title="ControllerServer.h">
<polygon fill="white" stroke="black" points="140.059,-55.5 140.059,-73.5 236.655,-73.5 236.655,-55.5 140.059,-55.5"/>
<text text-anchor="middle" x="188.357" y="-61.5" font-family="Helvetica,sans-Serif" font-size="10.00">ControllerServer.h</text>
</a>
</g>
</g>
<!-- Node51&#45;&gt;Node53 -->
<g id="edge4" class="edge"><title>Node51&#45;&gt;Node53</title>
<path fill="none" stroke="midnightblue" d="M188.357,-155.243C188.357,-131.493 188.357,-90.9967 188.357,-73.7118"/>
<polygon fill="midnightblue" stroke="midnightblue" points="184.857,-155.382 188.357,-165.382 191.857,-155.382 184.857,-155.382"/>
</g>
<!-- Node55 -->
<g id="node7" class="node"><title>Node55</title>
<g id="a_node7"><a xlink:href="../../d2/d6c/ServerCommunications_8h.html" target="_top" xlink:title="ServerCommunications.h">
<polygon fill="white" stroke="black" points="216.224,-110.5 216.224,-128.5 344.49,-128.5 344.49,-110.5 216.224,-110.5"/>
<text text-anchor="middle" x="280.357" y="-116.5" font-family="Helvetica,sans-Serif" font-size="10.00">ServerCommunications.h</text>
</a>
</g>
</g>
<!-- Node51&#45;&gt;Node55 -->
<g id="edge6" class="edge"><title>Node51&#45;&gt;Node55</title>
<path fill="none" stroke="midnightblue" d="M211.222,-160.328C228.48,-150.386 251.612,-137.06 266.253,-128.625"/>
<polygon fill="midnightblue" stroke="midnightblue" points="209.248,-157.426 202.33,-165.45 212.742,-163.491 209.248,-157.426"/>
</g>
<!-- Node54 -->
<g id="node6" class="node"><title>Node54</title>
<g id="a_node6"><a xlink:href="../../d5/dd2/ControllerServer_8cpp.html" target="_top" xlink:title="ControllerServer.cpp">
<polygon fill="white" stroke="black" points="134.778,-0.5 134.778,-18.5 241.936,-18.5 241.936,-0.5 134.778,-0.5"/>
<text text-anchor="middle" x="188.357" y="-6.5" font-family="Helvetica,sans-Serif" font-size="10.00">ControllerServer.cpp</text>
</a>
</g>
</g>
<!-- Node53&#45;&gt;Node54 -->
<g id="edge5" class="edge"><title>Node53&#45;&gt;Node54</title>
<path fill="none" stroke="midnightblue" d="M188.357,-45.1746C188.357,-36.0945 188.357,-25.5949 188.357,-18.5496"/>
<polygon fill="midnightblue" stroke="midnightblue" points="184.857,-45.2187 188.357,-55.2188 191.857,-45.2188 184.857,-45.2187"/>
</g>
<!-- Node55&#45;&gt;Node53 -->
<g id="edge7" class="edge"><title>Node55&#45;&gt;Node53</title>
<path fill="none" stroke="midnightblue" d="M257.492,-105.328C240.234,-95.3856 217.102,-82.0598 202.461,-73.6253"/>
<polygon fill="midnightblue" stroke="midnightblue" points="255.972,-108.491 266.384,-110.45 259.466,-102.426 255.972,-108.491"/>
</g>
<!-- Node56 -->
<g id="node8" class="node"><title>Node56</title>
<g id="a_node8"><a xlink:href="../../dc/dac/ServerCommunications_8cpp.html" target="_top" xlink:title="ServerCommunications.cpp">
<polygon fill="white" stroke="black" points="254.943,-55.5 254.943,-73.5 393.771,-73.5 393.771,-55.5 254.943,-55.5"/>
<text text-anchor="middle" x="324.357" y="-61.5" font-family="Helvetica,sans-Serif" font-size="10.00">ServerCommunications.cpp</text>
</a>
</g>
</g>
<!-- Node55&#45;&gt;Node56 -->
<g id="edge8" class="edge"><title>Node55&#45;&gt;Node56</title>
<path fill="none" stroke="midnightblue" d="M293.854,-102.243C301.751,-92.7302 311.375,-81.1369 317.674,-73.5496"/>
<polygon fill="midnightblue" stroke="midnightblue" points="290.927,-100.289 287.232,-110.219 296.312,-104.76 290.927,-100.289"/>
</g>
</g>
</svg>
