<?xml version="1.0" encoding="UTF-8" standalone="no"?>
<!DOCTYPE svg PUBLIC "-//W3C//DTD SVG 1.1//EN"
 "http://www.w3.org/Graphics/SVG/1.1/DTD/svg11.dtd">
<!-- Generated by graphviz version 2.38.0 (20140413.2041)
 -->
<!-- Title: ocra::SegmentFrame::Pimpl Pages: 1 -->
<svg width="199pt" height="112pt"
 viewBox="0.00 0.00 198.61 112.00" xmlns="http://www.w3.org/2000/svg" xmlns:xlink="http://www.w3.org/1999/xlink">
<g id="graph0" class="graph" transform="scale(1 1) rotate(0) translate(4 108)">
<title>ocra::SegmentFrame::Pimpl</title>
<polygon fill="white" stroke="none" points="-4,4 -4,-108 194.612,-108 194.612,4 -4,4"/>
<!-- Node1 -->
<g id="node1" class="node"><title>Node1</title>
<polygon fill="#bfbfbf" stroke="black" points="0,-0.5 0,-28.5 109.926,-28.5 109.926,-0.5 0,-0.5"/>
<text text-anchor="start" x="8" y="-16.5" font-family="Helvetica,sans-Serif" font-size="10.00">ocra::SegmentFrame</text>
<text text-anchor="middle" x="54.9629" y="-6.5" font-family="Helvetica,sans-Serif" font-size="10.00">::Pimpl</text>
</g>
<!-- Node2 -->
<g id="node2" class="node"><title>Node2</title>
<polygon fill="white" stroke="#bfbfbf" points="27.2363,-85.5 27.2363,-103.5 82.6895,-103.5 82.6895,-85.5 27.2363,-85.5"/>
<text text-anchor="middle" x="54.9629" y="-91.5" font-family="Helvetica,sans-Serif" font-size="10.00">MatrixXd</text>
</g>
<!-- Node2&#45;&gt;Node1 -->
<g id="edge1" class="edge"><title>Node2&#45;&gt;Node1</title>
<path fill="none" stroke="#9a32cd" stroke-dasharray="5,2" d="M54.9629,-75.3218C54.9629,-60.9889 54.9629,-41.3474 54.9629,-28.5431"/>
<polygon fill="#9a32cd" stroke="#9a32cd" points="51.463,-75.4464 54.9629,-85.4464 58.463,-75.4464 51.463,-75.4464"/>
<text text-anchor="start" x="54.9629" y="-59" font-family="Helvetica,sans-Serif" font-size="10.00"> Adj_H_segment_in_controlled</text>
<text text-anchor="middle" x="122.788" y="-49" font-family="Helvetica,sans-Serif" font-size="10.00">Frame</text>
</g>
</g>
</svg>
