<?xml version="1.0" encoding="UTF-8" standalone="no"?>
<!DOCTYPE svg PUBLIC "-//W3C//DTD SVG 1.1//EN"
 "http://www.w3.org/Graphics/SVG/1.1/DTD/svg11.dtd">
<!-- Generated by graphviz version 2.38.0 (20140413.2041)
 -->
<!-- Title: Model3T.h Pages: 1 -->
<svg width="156pt" height="82pt"
 viewBox="0.00 0.00 155.64 82.00" xmlns="http://www.w3.org/2000/svg" xmlns:xlink="http://www.w3.org/1999/xlink">
<g id="graph0" class="graph" transform="scale(1 1) rotate(0) translate(4 78)">
<title>Model3T.h</title>
<polygon fill="white" stroke="none" points="-4,4 -4,-78 151.638,-78 151.638,4 -4,4"/>
<!-- Node36 -->
<g id="node1" class="node"><title>Node36</title>
<polygon fill="#bfbfbf" stroke="black" points="38.2192,-55.5 38.2192,-73.5 100.357,-73.5 100.357,-55.5 38.2192,-55.5"/>
<text text-anchor="middle" x="69.2881" y="-61.5" font-family="Helvetica,sans-Serif" font-size="10.00">Model3T.h</text>
</g>
<!-- Node37 -->
<g id="node2" class="node"><title>Node37</title>
<g id="a_node2"><a xlink:href="../../df/d0a/main_8cpp.html" target="_top" xlink:title="main.cpp">
<polygon fill="white" stroke="black" points="0,-0.5 0,-18.5 56.5762,-18.5 56.5762,-0.5 0,-0.5"/>
<text text-anchor="middle" x="28.2881" y="-6.5" font-family="Helvetica,sans-Serif" font-size="10.00">main.cpp</text>
</a>
</g>
</g>
<!-- Node36&#45;&gt;Node37 -->
<g id="edge1" class="edge"><title>Node36&#45;&gt;Node37</title>
<path fill="none" stroke="midnightblue" d="M56.7116,-47.2426C49.353,-37.7302 40.3846,-26.1369 34.5151,-18.5496"/>
<polygon fill="midnightblue" stroke="midnightblue" points="53.9947,-49.4507 62.8818,-55.2188 59.5314,-45.1676 53.9947,-49.4507"/>
</g>
<!-- Node38 -->
<g id="node3" class="node"><title>Node38</title>
<g id="a_node3"><a xlink:href="../../d2/df9/Model3T_8cpp.html" target="_top" xlink:title="Model3T.cpp">
<polygon fill="white" stroke="black" points="74.9385,-0.5 74.9385,-18.5 147.638,-18.5 147.638,-0.5 74.9385,-0.5"/>
<text text-anchor="middle" x="111.288" y="-6.5" font-family="Helvetica,sans-Serif" font-size="10.00">Model3T.cpp</text>
</a>
</g>
</g>
<!-- Node36&#45;&gt;Node38 -->
<g id="edge2" class="edge"><title>Node36&#45;&gt;Node38</title>
<path fill="none" stroke="midnightblue" d="M82.1713,-47.2426C89.7094,-37.7302 98.8966,-26.1369 104.909,-18.5496"/>
<polygon fill="midnightblue" stroke="midnightblue" points="79.3183,-45.2075 75.8506,-55.2188 84.8046,-49.5551 79.3183,-45.2075"/>
</g>
</g>
</svg>
