<?xml version="1.0" encoding="UTF-8" standalone="no"?>
<!DOCTYPE svg PUBLIC "-//W3C//DTD SVG 1.1//EN"
 "http://www.w3.org/Graphics/SVG/1.1/DTD/svg11.dtd">
<!-- Generated by graphviz version 2.38.0 (20140413.2041)
 -->
<!-- Title: Model3T.cpp Pages: 1 -->
<svg width="1388pt" height="377pt"
 viewBox="0.00 0.00 1388.40 377.00" xmlns="http://www.w3.org/2000/svg" xmlns:xlink="http://www.w3.org/1999/xlink">
<g id="graph0" class="graph" transform="scale(1 1) rotate(0) translate(4 373)">
<title>Model3T.cpp</title>
<polygon fill="white" stroke="none" points="-4,4 -4,-373 1384.4,-373 1384.4,4 -4,4"/>
<!-- Node0 -->
<g id="node1" class="node"><title>Node0</title>
<polygon fill="#bfbfbf" stroke="black" points="1066.36,-350.5 1066.36,-368.5 1139.06,-368.5 1139.06,-350.5 1066.36,-350.5"/>
<text text-anchor="middle" x="1102.71" y="-356.5" font-family="Helvetica,sans-Serif" font-size="10.00">Model3T.cpp</text>
</g>
<!-- Node1 -->
<g id="node2" class="node"><title>Node1</title>
<g id="a_node2"><a xlink:href="../../d0/de5/Model3T_8h.html" target="_top" xlink:title="Model3T.h">
<polygon fill="white" stroke="black" points="917.64,-295.5 917.64,-313.5 979.778,-313.5 979.778,-295.5 917.64,-295.5"/>
<text text-anchor="middle" x="948.709" y="-301.5" font-family="Helvetica,sans-Serif" font-size="10.00">Model3T.h</text>
</a>
</g>
</g>
<!-- Node0&#45;&gt;Node1 -->
<g id="edge1" class="edge"><title>Node0&#45;&gt;Node1</title>
<path fill="none" stroke="midnightblue" d="M1079.32,-350.45C1053.35,-341.514 1011.24,-327.019 981.872,-316.913"/>
<polygon fill="midnightblue" stroke="midnightblue" points="982.66,-313.483 972.066,-313.538 980.382,-320.102 982.66,-313.483"/>
</g>
<!-- Node27 -->
<g id="node28" class="node"><title>Node27</title>
<polygon fill="white" stroke="#bfbfbf" points="643.482,-130.5 643.482,-148.5 683.936,-148.5 683.936,-130.5 643.482,-130.5"/>
<text text-anchor="middle" x="663.709" y="-136.5" font-family="Helvetica,sans-Serif" font-size="10.00">string</text>
</g>
<!-- Node0&#45;&gt;Node27 -->
<g id="edge50" class="edge"><title>Node0&#45;&gt;Node27</title>
<path fill="none" stroke="midnightblue" d="M1066.14,-354.508C949.723,-340.972 591.529,-292.649 524.709,-204 494.656,-164.129 583.905,-148.562 633.293,-143.113"/>
<polygon fill="midnightblue" stroke="midnightblue" points="633.867,-146.573 643.458,-142.072 633.153,-139.609 633.867,-146.573"/>
</g>
<!-- Node34 -->
<g id="node35" class="node"><title>Node34</title>
<polygon fill="white" stroke="#bfbfbf" points="1178.31,-185.5 1178.31,-203.5 1247.11,-203.5 1247.11,-185.5 1178.31,-185.5"/>
<text text-anchor="middle" x="1212.71" y="-191.5" font-family="Helvetica,sans-Serif" font-size="10.00">Eigen/Lgsm</text>
</g>
<!-- Node0&#45;&gt;Node34 -->
<g id="edge53" class="edge"><title>Node0&#45;&gt;Node34</title>
<path fill="none" stroke="midnightblue" d="M1100.36,-350.396C1094.92,-329.812 1083.66,-274.694 1107.71,-240 1115.92,-228.152 1148.76,-215.385 1175.56,-206.577"/>
<polygon fill="midnightblue" stroke="midnightblue" points="1176.65,-209.905 1185.1,-203.521 1174.51,-203.238 1176.65,-209.905"/>
</g>
<!-- Node35 -->
<g id="node36" class="node"><title>Node35</title>
<polygon fill="white" stroke="#bfbfbf" points="1265.54,-185.5 1265.54,-203.5 1319.88,-203.5 1319.88,-185.5 1265.54,-185.5"/>
<text text-anchor="middle" x="1292.71" y="-191.5" font-family="Helvetica,sans-Serif" font-size="10.00">iostream</text>
</g>
<!-- Node0&#45;&gt;Node35 -->
<g id="edge52" class="edge"><title>Node0&#45;&gt;Node35</title>
<path fill="none" stroke="midnightblue" d="M1106.15,-350.302C1111.87,-337.394 1124.33,-312.049 1140.71,-295 1178.13,-256.038 1233.52,-224.671 1266.08,-208.177"/>
<polygon fill="midnightblue" stroke="midnightblue" points="1268.01,-211.127 1275.41,-203.544 1264.9,-204.858 1268.01,-211.127"/>
</g>
<!-- Node37 -->
<g id="node38" class="node"><title>Node37</title>
<polygon fill="white" stroke="#bfbfbf" points="1149.93,-295.5 1149.93,-313.5 1201.49,-313.5 1201.49,-295.5 1149.93,-295.5"/>
<text text-anchor="middle" x="1175.71" y="-301.5" font-family="Helvetica,sans-Serif" font-size="10.00">sstream</text>
</g>
<!-- Node0&#45;&gt;Node37 -->
<g id="edge51" class="edge"><title>Node0&#45;&gt;Node37</title>
<path fill="none" stroke="midnightblue" d="M1113.8,-350.45C1125.05,-342.279 1142.71,-329.46 1156.29,-319.6"/>
<polygon fill="midnightblue" stroke="midnightblue" points="1158.48,-322.333 1164.52,-313.625 1154.37,-316.668 1158.48,-322.333"/>
</g>
<!-- Node38 -->
<g id="node39" class="node"><title>Node38</title>
<polygon fill="white" stroke="#bfbfbf" points="1219.85,-295.5 1219.85,-313.5 1307.57,-313.5 1307.57,-295.5 1219.85,-295.5"/>
<text text-anchor="middle" x="1263.71" y="-301.5" font-family="Helvetica,sans-Serif" font-size="10.00">Eigen/StdVector</text>
</g>
<!-- Node0&#45;&gt;Node38 -->
<g id="edge54" class="edge"><title>Node0&#45;&gt;Node38</title>
<path fill="none" stroke="midnightblue" d="M1127.16,-350.45C1154.43,-341.475 1198.73,-326.892 1229.44,-316.781"/>
<polygon fill="midnightblue" stroke="midnightblue" points="1230.89,-319.99 1239.29,-313.538 1228.7,-313.341 1230.89,-319.99"/>
</g>
<!-- Node2 -->
<g id="node3" class="node"><title>Node2</title>
<g id="a_node3"><a xlink:href="../../d3/d5a/Model_8h.html" target="_top" xlink:title="Declaration file of the Model class. ">
<polygon fill="white" stroke="black" points="820.409,-240.5 820.409,-258.5 927.009,-258.5 927.009,-240.5 820.409,-240.5"/>
<text text-anchor="middle" x="873.709" y="-246.5" font-family="Helvetica,sans-Serif" font-size="10.00">ocra/control/Model.h</text>
</a>
</g>
</g>
<!-- Node1&#45;&gt;Node2 -->
<g id="edge2" class="edge"><title>Node1&#45;&gt;Node2</title>
<path fill="none" stroke="midnightblue" d="M937.318,-295.45C925.754,-287.279 907.615,-274.46 893.661,-264.6"/>
<polygon fill="midnightblue" stroke="midnightblue" points="895.394,-261.538 885.207,-258.625 891.354,-267.255 895.394,-261.538"/>
</g>
<!-- Node3 -->
<g id="node4" class="node"><title>Node3</title>
<g id="a_node4"><a xlink:href="../../d5/d55/MathTypes_8h.html" target="_top" xlink:title="Declaration file of the OptimizationVariable class. ">
<polygon fill="white" stroke="black" points="156.185,-185.5 156.185,-203.5 267.233,-203.5 267.233,-185.5 156.185,-185.5"/>
<text text-anchor="middle" x="211.709" y="-191.5" font-family="Helvetica,sans-Serif" font-size="10.00">ocra/util/MathTypes.h</text>
</a>
</g>
</g>
<!-- Node2&#45;&gt;Node3 -->
<g id="edge3" class="edge"><title>Node2&#45;&gt;Node3</title>
<path fill="none" stroke="midnightblue" d="M820.375,-244.23C700.241,-234.612 408.739,-211.274 277.579,-200.774"/>
<polygon fill="midnightblue" stroke="midnightblue" points="277.53,-197.259 267.282,-199.949 276.971,-204.236 277.53,-197.259"/>
</g>
<!-- Node6 -->
<g id="node7" class="node"><title>Node6</title>
<g id="a_node7"><a xlink:href="../../d8/ddc/ObserverSubject_8h.html" target="_top" xlink:title="Declaration file of the Observer, Subject and ObserverSubject classes. ">
<polygon fill="white" stroke="black" points="799.569,-130.5 799.569,-148.5 947.849,-148.5 947.849,-130.5 799.569,-130.5"/>
<text text-anchor="middle" x="873.709" y="-136.5" font-family="Helvetica,sans-Serif" font-size="10.00">ocra/optim/ObserverSubject.h</text>
</a>
</g>
</g>
<!-- Node2&#45;&gt;Node6 -->
<g id="edge6" class="edge"><title>Node2&#45;&gt;Node6</title>
<path fill="none" stroke="midnightblue" d="M873.709,-240.382C873.709,-223.182 873.709,-182.698 873.709,-158.887"/>
<polygon fill="midnightblue" stroke="midnightblue" points="877.209,-158.712 873.709,-148.712 870.209,-158.712 877.209,-158.712"/>
</g>
<!-- Node17 -->
<g id="node18" class="node"><title>Node17</title>
<g id="a_node18"><a xlink:href="../../d7/d90/Variable_8h.html" target="_top" xlink:title="Declaration file of the Variable class. ">
<polygon fill="white" stroke="black" points="367.832,-185.5 367.832,-203.5 477.586,-203.5 477.586,-185.5 367.832,-185.5"/>
<text text-anchor="middle" x="422.709" y="-191.5" font-family="Helvetica,sans-Serif" font-size="10.00">ocra/optim/Variable.h</text>
</a>
</g>
</g>
<!-- Node2&#45;&gt;Node17 -->
<g id="edge20" class="edge"><title>Node2&#45;&gt;Node17</title>
<path fill="none" stroke="midnightblue" d="M820.202,-242.212C737.186,-232.456 577.602,-213.703 487.952,-203.167"/>
<polygon fill="midnightblue" stroke="midnightblue" points="488.247,-199.678 477.906,-201.987 487.43,-206.63 488.247,-199.678"/>
</g>
<!-- Node2&#45;&gt;Node27 -->
<g id="edge47" class="edge"><title>Node2&#45;&gt;Node27</title>
<path fill="none" stroke="midnightblue" d="M868.487,-240.142C859.557,-226.54 840.038,-199.664 816.709,-185 778.413,-160.928 726.618,-149.452 694.192,-144.302"/>
<polygon fill="midnightblue" stroke="midnightblue" points="694.391,-140.793 683.986,-142.789 693.364,-147.718 694.391,-140.793"/>
</g>
<!-- Node28 -->
<g id="node29" class="node"><title>Node28</title>
<g id="a_node29"><a xlink:href="../../df/d97/NamedInstance_8h.html" target="_top" xlink:title="ocra/optim/NamedInstance.h">
<polygon fill="white" stroke="black" points="663.788,-185.5 663.788,-203.5 807.63,-203.5 807.63,-185.5 663.788,-185.5"/>
<text text-anchor="middle" x="735.709" y="-191.5" font-family="Helvetica,sans-Serif" font-size="10.00">ocra/optim/NamedInstance.h</text>
</a>
</g>
</g>
<!-- Node2&#45;&gt;Node28 -->
<g id="edge38" class="edge"><title>Node2&#45;&gt;Node28</title>
<path fill="none" stroke="midnightblue" d="M852.75,-240.45C829.75,-231.617 792.613,-217.355 766.348,-207.267"/>
<polygon fill="midnightblue" stroke="midnightblue" points="767.456,-203.943 756.865,-203.625 764.946,-210.478 767.456,-203.943"/>
</g>
<!-- Node29 -->
<g id="node30" class="node"><title>Node29</title>
<g id="a_node30"><a xlink:href="../../d9/d5d/ModelContacts_8h.html" target="_top" xlink:title="Declaration file of the ModelContacts class. ">
<polygon fill="white" stroke="black" points="901.677,-185.5 901.677,-203.5 1047.74,-203.5 1047.74,-185.5 901.677,-185.5"/>
<text text-anchor="middle" x="974.709" y="-191.5" font-family="Helvetica,sans-Serif" font-size="10.00">ocra/control/ModelContacts.h</text>
</a>
</g>
</g>
<!-- Node2&#45;&gt;Node29 -->
<g id="edge40" class="edge"><title>Node2&#45;&gt;Node29</title>
<path fill="none" stroke="midnightblue" d="M889.049,-240.45C905.288,-231.929 931.159,-218.353 950.224,-208.349"/>
<polygon fill="midnightblue" stroke="midnightblue" points="951.996,-211.371 959.225,-203.625 948.744,-205.173 951.996,-211.371"/>
</g>
<!-- Node32 -->
<g id="node33" class="node"><title>Node32</title>
<g id="a_node33"><a xlink:href="../../df/d0a/Macros_8h.html" target="_top" xlink:title="ocra/util/Macros.h">
<polygon fill="white" stroke="black" points="1065.25,-185.5 1065.25,-203.5 1160.17,-203.5 1160.17,-185.5 1065.25,-185.5"/>
<text text-anchor="middle" x="1112.71" y="-191.5" font-family="Helvetica,sans-Serif" font-size="10.00">ocra/util/Macros.h</text>
</a>
</g>
</g>
<!-- Node2&#45;&gt;Node32 -->
<g id="edge44" class="edge"><title>Node2&#45;&gt;Node32</title>
<path fill="none" stroke="midnightblue" d="M910.008,-240.45C951.892,-231.162 1020.85,-215.871 1066.52,-205.743"/>
<polygon fill="midnightblue" stroke="midnightblue" points="1067.46,-209.12 1076.46,-203.538 1065.94,-202.286 1067.46,-209.12"/>
</g>
<!-- Node2&#45;&gt;Node34 -->
<g id="edge46" class="edge"><title>Node2&#45;&gt;Node34</title>
<path fill="none" stroke="midnightblue" d="M927.108,-241.118C984.201,-233.075 1077.63,-219.48 1168.25,-204.014"/>
<polygon fill="midnightblue" stroke="midnightblue" points="1168.88,-207.457 1178.15,-202.316 1167.7,-200.558 1168.88,-207.457"/>
</g>
<!-- Node2&#45;&gt;Node35 -->
<g id="edge48" class="edge"><title>Node2&#45;&gt;Node35</title>
<path fill="none" stroke="midnightblue" d="M927.12,-244.144C999.267,-237.847 1132.02,-224.809 1255.3,-203.869"/>
<polygon fill="midnightblue" stroke="midnightblue" points="1256.04,-207.294 1265.3,-202.15 1254.85,-200.396 1256.04,-207.294"/>
</g>
<!-- Node36 -->
<g id="node37" class="node"><title>Node36</title>
<polygon fill="white" stroke="#bfbfbf" points="533.904,-185.5 533.904,-203.5 645.514,-203.5 645.514,-185.5 533.904,-185.5"/>
<text text-anchor="middle" x="589.709" y="-191.5" font-family="Helvetica,sans-Serif" font-size="10.00">yarp/os/Semaphore.h</text>
</g>
<!-- Node2&#45;&gt;Node36 -->
<g id="edge49" class="edge"><title>Node2&#45;&gt;Node36</title>
<path fill="none" stroke="midnightblue" d="M830.575,-240.45C780.282,-231.065 697.142,-215.549 642.894,-205.425"/>
<polygon fill="midnightblue" stroke="midnightblue" points="643.255,-201.932 632.782,-203.538 641.97,-208.814 643.255,-201.932"/>
</g>
<!-- Node4 -->
<g id="node5" class="node"><title>Node4</title>
<polygon fill="white" stroke="#bfbfbf" points="175.079,-130.5 175.079,-148.5 248.339,-148.5 248.339,-130.5 175.079,-130.5"/>
<text text-anchor="middle" x="211.709" y="-136.5" font-family="Helvetica,sans-Serif" font-size="10.00">Eigen/Dense</text>
</g>
<!-- Node3&#45;&gt;Node4 -->
<g id="edge4" class="edge"><title>Node3&#45;&gt;Node4</title>
<path fill="none" stroke="midnightblue" d="M211.709,-185.219C211.709,-178.177 211.709,-167.808 211.709,-158.828"/>
<polygon fill="midnightblue" stroke="midnightblue" points="215.209,-158.55 211.709,-148.55 208.209,-158.55 215.209,-158.55"/>
</g>
<!-- Node5 -->
<g id="node6" class="node"><title>Node5</title>
<polygon fill="white" stroke="#bfbfbf" points="114.093,-130.5 114.093,-148.5 157.325,-148.5 157.325,-130.5 114.093,-130.5"/>
<text text-anchor="middle" x="135.709" y="-136.5" font-family="Helvetica,sans-Serif" font-size="10.00">cmath</text>
</g>
<!-- Node3&#45;&gt;Node5 -->
<g id="edge5" class="edge"><title>Node3&#45;&gt;Node5</title>
<path fill="none" stroke="midnightblue" d="M200.166,-185.45C188.448,-177.279 170.067,-164.46 155.927,-154.6"/>
<polygon fill="midnightblue" stroke="midnightblue" points="157.565,-151.475 147.36,-148.625 153.561,-157.216 157.565,-151.475"/>
</g>
<!-- Node7 -->
<g id="node8" class="node"><title>Node7</title>
<g id="a_node8"><a xlink:href="../../df/d67/ObserverSubjectBase_8h.html" target="_top" xlink:title="Declaration file of the Observer and Subject base classes. ">
<polygon fill="white" stroke="black" points="1085.74,-65.5 1085.74,-93.5 1225.68,-93.5 1225.68,-65.5 1085.74,-65.5"/>
<text text-anchor="start" x="1093.74" y="-81.5" font-family="Helvetica,sans-Serif" font-size="10.00">ocra/optim/ObserverSubject</text>
<text text-anchor="middle" x="1155.71" y="-71.5" font-family="Helvetica,sans-Serif" font-size="10.00">Base.h</text>
</a>
</g>
</g>
<!-- Node6&#45;&gt;Node7 -->
<g id="edge7" class="edge"><title>Node6&#45;&gt;Node7</title>
<path fill="none" stroke="midnightblue" d="M912.624,-130.496C956.292,-121.515 1028.12,-106.743 1082.39,-95.5788"/>
<polygon fill="midnightblue" stroke="midnightblue" points="1083.23,-98.9814 1092.31,-93.5385 1081.81,-92.1249 1083.23,-98.9814"/>
</g>
<!-- Node11 -->
<g id="node12" class="node"><title>Node11</title>
<polygon fill="white" stroke="#bfbfbf" points="1281.02,-0.5 1281.02,-28.5 1380.4,-28.5 1380.4,-0.5 1281.02,-0.5"/>
<text text-anchor="start" x="1289.02" y="-16.5" font-family="Helvetica,sans-Serif" font-size="10.00">boost/type_traits/is</text>
<text text-anchor="middle" x="1330.71" y="-6.5" font-family="Helvetica,sans-Serif" font-size="10.00">_class.hpp</text>
</g>
<!-- Node6&#45;&gt;Node11 -->
<g id="edge19" class="edge"><title>Node6&#45;&gt;Node11</title>
<path fill="none" stroke="midnightblue" d="M947.238,-130.493C1048.96,-119.262 1221.66,-99.5781 1234.71,-94 1265.54,-80.8171 1294.39,-54.6185 1312.26,-36.1212"/>
<polygon fill="midnightblue" stroke="midnightblue" points="1314.91,-38.4071 1319.22,-28.7257 1309.82,-33.6101 1314.91,-38.4071"/>
</g>
<!-- Node12 -->
<g id="node13" class="node"><title>Node12</title>
<polygon fill="white" stroke="#bfbfbf" points="735.022,-0.5 735.022,-28.5 834.396,-28.5 834.396,-0.5 735.022,-0.5"/>
<text text-anchor="start" x="743.022" y="-16.5" font-family="Helvetica,sans-Serif" font-size="10.00">boost/type_traits/is</text>
<text text-anchor="middle" x="784.709" y="-6.5" font-family="Helvetica,sans-Serif" font-size="10.00">_base_of.hpp</text>
</g>
<!-- Node6&#45;&gt;Node12 -->
<g id="edge17" class="edge"><title>Node6&#45;&gt;Node12</title>
<path fill="none" stroke="midnightblue" d="M873.408,-130.473C872.51,-116.114 868.934,-85.6093 854.709,-65 846.068,-52.4813 833.171,-42.0692 820.793,-34.0768"/>
<polygon fill="midnightblue" stroke="midnightblue" points="822.302,-30.8978 811.939,-28.6891 818.663,-36.8776 822.302,-30.8978"/>
</g>
<!-- Node13 -->
<g id="node14" class="node"><title>Node13</title>
<polygon fill="white" stroke="#bfbfbf" points="852.291,-5.5 852.291,-23.5 971.127,-23.5 971.127,-5.5 852.291,-5.5"/>
<text text-anchor="middle" x="911.709" y="-11.5" font-family="Helvetica,sans-Serif" font-size="10.00">boost/static_assert.hpp</text>
</g>
<!-- Node6&#45;&gt;Node13 -->
<g id="edge16" class="edge"><title>Node6&#45;&gt;Node13</title>
<path fill="none" stroke="midnightblue" d="M876.309,-130.304C879.135,-121.381 883.774,-106.686 887.709,-94 894.158,-73.2084 901.455,-49.2806 906.293,-33.3615"/>
<polygon fill="midnightblue" stroke="midnightblue" points="909.653,-34.3426 909.209,-23.7571 902.955,-32.3093 909.653,-34.3426"/>
</g>
<!-- Node15 -->
<g id="node16" class="node"><title>Node15</title>
<g id="a_node16"><a xlink:href="../../db/ddf/ocra__events_8h.html" target="_top" xlink:title="ocra/optim/ocra_events.h">
<polygon fill="white" stroke="black" points="939.569,-70.5 939.569,-88.5 1067.85,-88.5 1067.85,-70.5 939.569,-70.5"/>
<text text-anchor="middle" x="1003.71" y="-76.5" font-family="Helvetica,sans-Serif" font-size="10.00">ocra/optim/ocra_events.h</text>
</a>
</g>
</g>
<!-- Node6&#45;&gt;Node15 -->
<g id="edge15" class="edge"><title>Node6&#45;&gt;Node15</title>
<path fill="none" stroke="midnightblue" d="M891.785,-130.435C913.588,-120.708 950.474,-104.251 975.907,-92.9041"/>
<polygon fill="midnightblue" stroke="midnightblue" points="977.661,-95.9539 985.367,-88.6831 974.809,-89.5613 977.661,-95.9539"/>
</g>
<!-- Node16 -->
<g id="node17" class="node"><title>Node16</title>
<polygon fill="white" stroke="#bfbfbf" points="746.022,-65.5 746.022,-93.5 845.396,-93.5 845.396,-65.5 746.022,-65.5"/>
<text text-anchor="start" x="754.022" y="-81.5" font-family="Helvetica,sans-Serif" font-size="10.00">boost/type_traits/is</text>
<text text-anchor="middle" x="795.709" y="-71.5" font-family="Helvetica,sans-Serif" font-size="10.00">_convertible.hpp</text>
</g>
<!-- Node6&#45;&gt;Node16 -->
<g id="edge18" class="edge"><title>Node6&#45;&gt;Node16</title>
<path fill="none" stroke="midnightblue" d="M862.863,-130.435C852.256,-122.548 835.698,-110.236 821.679,-99.8109"/>
<polygon fill="midnightblue" stroke="midnightblue" points="823.467,-96.7788 813.354,-93.6203 819.29,-102.396 823.467,-96.7788"/>
</g>
<!-- Node8 -->
<g id="node9" class="node"><title>Node8</title>
<polygon fill="white" stroke="#bfbfbf" points="1204.31,-5.5 1204.31,-23.5 1263.11,-23.5 1263.11,-5.5 1204.31,-5.5"/>
<text text-anchor="middle" x="1233.71" y="-11.5" font-family="Helvetica,sans-Serif" font-size="10.00">functional</text>
</g>
<!-- Node7&#45;&gt;Node8 -->
<g id="edge8" class="edge"><title>Node7&#45;&gt;Node8</title>
<path fill="none" stroke="midnightblue" d="M1171.87,-65.4464C1184.61,-55.1577 1202.37,-40.8153 1215.59,-30.1379"/>
<polygon fill="midnightblue" stroke="midnightblue" points="1217.94,-32.7363 1223.52,-23.7301 1213.54,-27.2907 1217.94,-32.7363"/>
</g>
<!-- Node9 -->
<g id="node10" class="node"><title>Node9</title>
<polygon fill="white" stroke="#bfbfbf" points="561.145,-5.5 561.145,-23.5 618.273,-23.5 618.273,-5.5 561.145,-5.5"/>
<text text-anchor="middle" x="589.709" y="-11.5" font-family="Helvetica,sans-Serif" font-size="10.00">algorithm</text>
</g>
<!-- Node7&#45;&gt;Node9 -->
<g id="edge9" class="edge"><title>Node7&#45;&gt;Node9</title>
<path fill="none" stroke="midnightblue" d="M1085.54,-66.2538C1082.56,-65.8143 1079.6,-65.3941 1076.71,-65 1054.58,-61.9883 740.403,-30.5442 628.74,-19.3941"/>
<polygon fill="midnightblue" stroke="midnightblue" points="628.881,-15.8908 618.583,-18.38 628.185,-22.8562 628.881,-15.8908"/>
</g>
<!-- Node10 -->
<g id="node11" class="node"><title>Node10</title>
<polygon fill="white" stroke="#bfbfbf" points="988.664,-5.5 988.664,-23.5 1066.75,-23.5 1066.75,-5.5 988.664,-5.5"/>
<text text-anchor="middle" x="1027.71" y="-11.5" font-family="Helvetica,sans-Serif" font-size="10.00">boost/any.hpp</text>
</g>
<!-- Node7&#45;&gt;Node10 -->
<g id="edge10" class="edge"><title>Node7&#45;&gt;Node10</title>
<path fill="none" stroke="midnightblue" d="M1129.19,-65.4464C1106.86,-54.458 1075.14,-38.8458 1053.13,-28.0128"/>
<polygon fill="midnightblue" stroke="midnightblue" points="1054.58,-24.8238 1044.06,-23.548 1051.49,-31.1043 1054.58,-24.8238"/>
</g>
<!-- Node7&#45;&gt;Node11 -->
<g id="edge11" class="edge"><title>Node7&#45;&gt;Node11</title>
<path fill="none" stroke="midnightblue" d="M1191.97,-65.4464C1218.95,-55.7321 1255.98,-42.4041 1284.99,-31.9592"/>
<polygon fill="midnightblue" stroke="midnightblue" points="1286.27,-35.2173 1294.5,-28.5369 1283.9,-28.6311 1286.27,-35.2173"/>
</g>
<!-- Node7&#45;&gt;Node12 -->
<g id="edge12" class="edge"><title>Node7&#45;&gt;Node12</title>
<path fill="none" stroke="midnightblue" d="M1085.51,-66.4437C1082.54,-65.9523 1079.59,-65.4692 1076.71,-65 976.415,-48.6837 948.31,-48.6828 844.498,-29.0641"/>
<polygon fill="midnightblue" stroke="midnightblue" points="845.028,-25.6022 834.549,-27.1683 843.717,-32.4785 845.028,-25.6022"/>
</g>
<!-- Node7&#45;&gt;Node13 -->
<g id="edge13" class="edge"><title>Node7&#45;&gt;Node13</title>
<path fill="none" stroke="midnightblue" d="M1105.15,-65.4464C1060.02,-53.7928 994.741,-36.9386 952.763,-26.1"/>
<polygon fill="midnightblue" stroke="midnightblue" points="953.436,-22.6592 942.879,-23.548 951.686,-29.4369 953.436,-22.6592"/>
</g>
<!-- Node14 -->
<g id="node15" class="node"><title>Node14</title>
<polygon fill="white" stroke="#bfbfbf" points="1084.9,-0.5 1084.9,-28.5 1186.51,-28.5 1186.51,-0.5 1084.9,-0.5"/>
<text text-anchor="start" x="1092.9" y="-16.5" font-family="Helvetica,sans-Serif" font-size="10.00">boost/ptr_container</text>
<text text-anchor="middle" x="1135.71" y="-6.5" font-family="Helvetica,sans-Serif" font-size="10.00">/ptr_vector.hpp</text>
</g>
<!-- Node7&#45;&gt;Node14 -->
<g id="edge14" class="edge"><title>Node7&#45;&gt;Node14</title>
<path fill="none" stroke="midnightblue" d="M1151.56,-65.4464C1149.07,-57.5905 1145.83,-47.3713 1142.92,-38.2247"/>
<polygon fill="midnightblue" stroke="midnightblue" points="1146.21,-37.0091 1139.85,-28.5369 1139.54,-39.1272 1146.21,-37.0091"/>
</g>
<!-- Node17&#45;&gt;Node6 -->
<g id="edge21" class="edge"><title>Node17&#45;&gt;Node6</title>
<path fill="none" stroke="midnightblue" d="M478.01,-187.001C557.588,-177.65 704.771,-160.353 795.471,-149.694"/>
<polygon fill="midnightblue" stroke="midnightblue" points="795.903,-153.168 805.426,-148.524 795.086,-146.216 795.903,-153.168"/>
</g>
<!-- Node18 -->
<g id="node19" class="node"><title>Node18</title>
<g id="a_node19"><a xlink:href="../../d1/de6/Composite_8h.html" target="_top" xlink:title="Utility classes and functions to implement the Composite design pattern. ">
<polygon fill="white" stroke="black" points="430.909,-130.5 430.909,-148.5 552.509,-148.5 552.509,-130.5 430.909,-130.5"/>
<text text-anchor="middle" x="491.709" y="-136.5" font-family="Helvetica,sans-Serif" font-size="10.00">ocra/optim/Composite.h</text>
</a>
</g>
</g>
<!-- Node17&#45;&gt;Node18 -->
<g id="edge22" class="edge"><title>Node17&#45;&gt;Node18</title>
<path fill="none" stroke="midnightblue" d="M433.189,-185.45C443.726,-177.357 460.198,-164.704 472.985,-154.882"/>
<polygon fill="midnightblue" stroke="midnightblue" points="475.332,-157.493 481.131,-148.625 471.068,-151.941 475.332,-157.493"/>
</g>
<!-- Node21 -->
<g id="node22" class="node"><title>Node21</title>
<polygon fill="white" stroke="#bfbfbf" points="0,-70.5 0,-88.5 119.418,-88.5 119.418,-70.5 0,-70.5"/>
<text text-anchor="middle" x="59.709" y="-76.5" font-family="Helvetica,sans-Serif" font-size="10.00">boost/noncopyable.hpp</text>
</g>
<!-- Node17&#45;&gt;Node21 -->
<g id="edge35" class="edge"><title>Node17&#45;&gt;Node21</title>
<path fill="none" stroke="midnightblue" d="M393.5,-185.46C366.327,-177.56 324.988,-164.464 290.709,-149 275.282,-142.041 273.402,-136.335 257.709,-130 230.659,-119.08 156.494,-101.729 107.013,-90.738"/>
<polygon fill="midnightblue" stroke="midnightblue" points="107.681,-87.3012 97.161,-88.561 106.17,-94.1363 107.681,-87.3012"/>
</g>
<!-- Node23 -->
<g id="node24" class="node"><title>Node23</title>
<polygon fill="white" stroke="#bfbfbf" points="137.093,-70.5 137.093,-88.5 180.325,-88.5 180.325,-70.5 137.093,-70.5"/>
<text text-anchor="middle" x="158.709" y="-76.5" font-family="Helvetica,sans-Serif" font-size="10.00">vector</text>
</g>
<!-- Node17&#45;&gt;Node23 -->
<g id="edge37" class="edge"><title>Node17&#45;&gt;Node23</title>
<path fill="none" stroke="midnightblue" d="M407.107,-185.327C382.655,-172.671 333.656,-147.925 290.709,-130 246.731,-111.645 234.025,-111.524 189.709,-94 188.511,-93.5265 187.292,-93.0349 186.062,-92.532"/>
<polygon fill="midnightblue" stroke="midnightblue" points="187.228,-89.2251 176.654,-88.5619 184.506,-95.6745 187.228,-89.2251"/>
</g>
<!-- Node26 -->
<g id="node27" class="node"><title>Node26</title>
<polygon fill="white" stroke="#bfbfbf" points="342.744,-130.5 342.744,-148.5 412.674,-148.5 412.674,-130.5 342.744,-130.5"/>
<text text-anchor="middle" x="377.709" y="-136.5" font-family="Helvetica,sans-Serif" font-size="10.00">Eigen/Eigen</text>
</g>
<!-- Node17&#45;&gt;Node26 -->
<g id="edge34" class="edge"><title>Node17&#45;&gt;Node26</title>
<path fill="none" stroke="midnightblue" d="M415.678,-185.219C409.101,-177.473 399.106,-165.701 391.022,-156.18"/>
<polygon fill="midnightblue" stroke="midnightblue" points="393.684,-153.907 384.544,-148.55 388.348,-158.438 393.684,-153.907"/>
</g>
<!-- Node17&#45;&gt;Node27 -->
<g id="edge36" class="edge"><title>Node17&#45;&gt;Node27</title>
<path fill="none" stroke="midnightblue" d="M459.312,-185.45C506.855,-174.995 588.988,-156.932 633.285,-147.191"/>
<polygon fill="midnightblue" stroke="midnightblue" points="634.156,-150.583 643.171,-145.017 632.653,-143.746 634.156,-150.583"/>
</g>
<!-- Node18&#45;&gt;Node9 -->
<g id="edge31" class="edge"><title>Node18&#45;&gt;Node9</title>
<path fill="none" stroke="midnightblue" d="M492.601,-130.416C494.547,-115.969 500.306,-85.3281 515.709,-65 527.691,-49.1869 546.261,-36.7867 561.801,-28.3525"/>
<polygon fill="midnightblue" stroke="midnightblue" points="563.709,-31.3068 570.999,-23.6184 560.506,-25.0828 563.709,-31.3068"/>
</g>
<!-- Node18&#45;&gt;Node12 -->
<g id="edge27" class="edge"><title>Node18&#45;&gt;Node12</title>
<path fill="none" stroke="midnightblue" d="M495.687,-130.098C503.504,-114.565 522.424,-81.4415 548.709,-65 602.169,-31.5609 674.419,-20.3351 724.841,-16.7592"/>
<polygon fill="midnightblue" stroke="midnightblue" points="725.178,-20.245 734.938,-16.1243 724.738,-13.2588 725.178,-20.245"/>
</g>
<!-- Node18&#45;&gt;Node13 -->
<g id="edge26" class="edge"><title>Node18&#45;&gt;Node13</title>
<path fill="none" stroke="midnightblue" d="M552.822,-132.511C595.266,-126.665 652.305,-115.384 698.709,-94 718.004,-85.1085 717.708,-74.5033 736.709,-65 759.632,-53.535 823.865,-36.7031 867.791,-25.9228"/>
<polygon fill="midnightblue" stroke="midnightblue" points="868.77,-29.2868 877.658,-23.5192 867.113,-22.4857 868.77,-29.2868"/>
</g>
<!-- Node18&#45;&gt;Node16 -->
<g id="edge28" class="edge"><title>Node18&#45;&gt;Node16</title>
<path fill="none" stroke="midnightblue" d="M536.891,-130.464C585.181,-121.795 663.952,-107.426 731.709,-94 732.993,-93.7455 734.292,-93.4865 735.601,-93.224"/>
<polygon fill="midnightblue" stroke="midnightblue" points="736.669,-96.5786 745.772,-91.1572 735.275,-89.7187 736.669,-96.5786"/>
</g>
<!-- Node19 -->
<g id="node20" class="node"><title>Node19</title>
<g id="a_node20"><a xlink:href="../../de/df3/ocra__assert_8h.html" target="_top" xlink:title="ocra/optim/ocra_assert.h">
<polygon fill="white" stroke="black" points="337.685,-70.5 337.685,-88.5 463.733,-88.5 463.733,-70.5 337.685,-70.5"/>
<text text-anchor="middle" x="400.709" y="-76.5" font-family="Helvetica,sans-Serif" font-size="10.00">ocra/optim/ocra_assert.h</text>
</a>
</g>
</g>
<!-- Node18&#45;&gt;Node19 -->
<g id="edge23" class="edge"><title>Node18&#45;&gt;Node19</title>
<path fill="none" stroke="midnightblue" d="M479.056,-130.435C464.334,-121.052 439.788,-105.408 422.09,-94.1277"/>
<polygon fill="midnightblue" stroke="midnightblue" points="423.862,-91.1064 413.548,-88.6831 420.1,-97.0094 423.862,-91.1064"/>
</g>
<!-- Node18&#45;&gt;Node21 -->
<g id="edge25" class="edge"><title>Node18&#45;&gt;Node21</title>
<path fill="none" stroke="midnightblue" d="M430.724,-131.073C328.054,-118.566 131.422,-94.5947 127.709,-94 121.314,-92.9757 114.602,-91.7855 107.99,-90.5444"/>
<polygon fill="midnightblue" stroke="midnightblue" points="108.224,-87.025 97.7418,-88.5688 106.899,-93.8985 108.224,-87.025"/>
</g>
<!-- Node22 -->
<g id="node23" class="node"><title>Node22</title>
<polygon fill="white" stroke="#bfbfbf" points="558.17,-65.5 558.17,-93.5 689.248,-93.5 689.248,-65.5 558.17,-65.5"/>
<text text-anchor="start" x="566.17" y="-81.5" font-family="Helvetica,sans-Serif" font-size="10.00">boost/type_traits/has</text>
<text text-anchor="middle" x="623.709" y="-71.5" font-family="Helvetica,sans-Serif" font-size="10.00">_nothrow_constructor.hpp</text>
</g>
<!-- Node18&#45;&gt;Node22 -->
<g id="edge29" class="edge"><title>Node18&#45;&gt;Node22</title>
<path fill="none" stroke="midnightblue" d="M510.063,-130.435C529.262,-121.999 559.98,-108.502 584.641,-97.6661"/>
<polygon fill="midnightblue" stroke="midnightblue" points="586.354,-100.737 594.101,-93.5096 583.538,-94.328 586.354,-100.737"/>
</g>
<!-- Node18&#45;&gt;Node23 -->
<g id="edge30" class="edge"><title>Node18&#45;&gt;Node23</title>
<path fill="none" stroke="midnightblue" d="M431.343,-130.476C349.917,-119.518 212.416,-100.493 189.709,-94 188.04,-93.5229 186.344,-92.976 184.648,-92.3817"/>
<polygon fill="midnightblue" stroke="midnightblue" points="185.729,-89.0453 175.143,-88.6169 183.151,-95.5535 185.729,-89.0453"/>
</g>
<!-- Node24 -->
<g id="node25" class="node"><title>Node24</title>
<polygon fill="white" stroke="#bfbfbf" points="198.537,-70.5 198.537,-88.5 242.881,-88.5 242.881,-70.5 198.537,-70.5"/>
<text text-anchor="middle" x="220.709" y="-76.5" font-family="Helvetica,sans-Serif" font-size="10.00">iosfwd</text>
</g>
<!-- Node18&#45;&gt;Node24 -->
<g id="edge32" class="edge"><title>Node18&#45;&gt;Node24</title>
<path fill="none" stroke="midnightblue" d="M430.44,-130.798C381.64,-123.783 311.93,-111.779 252.709,-94 251.041,-93.4994 249.343,-92.9399 247.642,-92.3413"/>
<polygon fill="midnightblue" stroke="midnightblue" points="248.653,-88.9795 238.064,-88.6211 246.119,-95.5045 248.653,-88.9795"/>
</g>
<!-- Node25 -->
<g id="node26" class="node"><title>Node25</title>
<polygon fill="white" stroke="#bfbfbf" points="261.308,-70.5 261.308,-88.5 320.11,-88.5 320.11,-70.5 261.308,-70.5"/>
<text text-anchor="middle" x="290.709" y="-76.5" font-family="Helvetica,sans-Serif" font-size="10.00">stdexcept</text>
</g>
<!-- Node18&#45;&gt;Node25 -->
<g id="edge33" class="edge"><title>Node18&#45;&gt;Node25</title>
<path fill="none" stroke="midnightblue" d="M459.337,-130.425C426.297,-122.004 373.633,-108.09 328.709,-94 326.592,-93.3361 324.417,-92.6296 322.231,-91.9014"/>
<polygon fill="midnightblue" stroke="midnightblue" points="323.313,-88.5724 312.718,-88.6335 321.039,-95.1927 323.313,-88.5724"/>
</g>
<!-- Node20 -->
<g id="node21" class="node"><title>Node20</title>
<polygon fill="white" stroke="#bfbfbf" points="379.647,-5.5 379.647,-23.5 421.771,-23.5 421.771,-5.5 379.647,-5.5"/>
<text text-anchor="middle" x="400.709" y="-11.5" font-family="Helvetica,sans-Serif" font-size="10.00">cstdio</text>
</g>
<!-- Node19&#45;&gt;Node20 -->
<g id="edge24" class="edge"><title>Node19&#45;&gt;Node20</title>
<path fill="none" stroke="midnightblue" d="M400.709,-70.2639C400.709,-61.0635 400.709,-45.881 400.709,-33.8326"/>
<polygon fill="midnightblue" stroke="midnightblue" points="404.209,-33.5389 400.709,-23.539 397.209,-33.539 404.209,-33.5389"/>
</g>
<!-- Node28&#45;&gt;Node27 -->
<g id="edge39" class="edge"><title>Node28&#45;&gt;Node27</title>
<path fill="none" stroke="midnightblue" d="M724.774,-185.45C713.673,-177.279 696.259,-164.46 682.863,-154.6"/>
<polygon fill="midnightblue" stroke="midnightblue" points="684.875,-151.735 674.747,-148.625 680.726,-157.372 684.875,-151.735"/>
</g>
<!-- Node29&#45;&gt;Node6 -->
<g id="edge41" class="edge"><title>Node29&#45;&gt;Node6</title>
<path fill="none" stroke="midnightblue" d="M959.369,-185.45C943.13,-176.929 917.259,-163.353 898.194,-153.349"/>
<polygon fill="midnightblue" stroke="midnightblue" points="899.674,-150.173 889.193,-148.625 896.422,-156.371 899.674,-150.173"/>
</g>
<!-- Node30 -->
<g id="node31" class="node"><title>Node30</title>
<polygon fill="white" stroke="#bfbfbf" points="1093.69,-130.5 1093.69,-148.5 1159.72,-148.5 1159.72,-130.5 1093.69,-130.5"/>
<text text-anchor="middle" x="1126.71" y="-136.5" font-family="Helvetica,sans-Serif" font-size="10.00">Eigen/Core</text>
</g>
<!-- Node29&#45;&gt;Node30 -->
<g id="edge42" class="edge"><title>Node29&#45;&gt;Node30</title>
<path fill="none" stroke="midnightblue" d="M997.795,-185.45C1023.35,-176.539 1064.75,-162.103 1093.72,-152.001"/>
<polygon fill="midnightblue" stroke="midnightblue" points="1095.12,-155.223 1103.41,-148.625 1092.81,-148.613 1095.12,-155.223"/>
</g>
<!-- Node31 -->
<g id="node32" class="node"><title>Node31</title>
<polygon fill="white" stroke="#bfbfbf" points="965.727,-130.5 965.727,-148.5 1075.69,-148.5 1075.69,-130.5 965.727,-130.5"/>
<text text-anchor="middle" x="1020.71" y="-136.5" font-family="Helvetica,sans-Serif" font-size="10.00">boost/shared_ptr.hpp</text>
</g>
<!-- Node29&#45;&gt;Node31 -->
<g id="edge43" class="edge"><title>Node29&#45;&gt;Node31</title>
<path fill="none" stroke="midnightblue" d="M981.896,-185.219C988.619,-177.473 998.836,-165.701 1007.1,-156.18"/>
<polygon fill="midnightblue" stroke="midnightblue" points="1009.81,-158.396 1013.72,-148.55 1004.52,-153.808 1009.81,-158.396"/>
</g>
<!-- Node33 -->
<g id="node34" class="node"><title>Node33</title>
<polygon fill="white" stroke="#bfbfbf" points="1177.65,-130.5 1177.65,-148.5 1229.77,-148.5 1229.77,-130.5 1177.65,-130.5"/>
<text text-anchor="middle" x="1203.71" y="-136.5" font-family="Helvetica,sans-Serif" font-size="10.00">memory</text>
</g>
<!-- Node32&#45;&gt;Node33 -->
<g id="edge45" class="edge"><title>Node32&#45;&gt;Node33</title>
<path fill="none" stroke="midnightblue" d="M1126.53,-185.45C1140.96,-177.045 1163.83,-163.724 1180.94,-153.762"/>
<polygon fill="midnightblue" stroke="midnightblue" points="1182.88,-156.683 1189.76,-148.625 1179.36,-150.634 1182.88,-156.683"/>
</g>
</g>
</svg>
