<?xml version="1.0" encoding="UTF-8" standalone="no"?>
<!DOCTYPE svg PUBLIC "-//W3C//DTD SVG 1.1//EN"
 "http://www.w3.org/Graphics/SVG/1.1/DTD/svg11.dtd">
<!-- Generated by graphviz version 2.38.0 (20140413.2041)
 -->
<!-- Title: ocra::PartialStateFeature Pages: 1 -->
<svg width="240pt" height="137pt"
 viewBox="0.00 0.00 239.89 137.00" xmlns="http://www.w3.org/2000/svg" xmlns:xlink="http://www.w3.org/1999/xlink">
<g id="graph0" class="graph" transform="scale(1 1) rotate(0) translate(4 133)">
<title>ocra::PartialStateFeature</title>
<polygon fill="white" stroke="none" points="-4,4 -4,-133 235.891,-133 235.891,4 -4,4"/>
<!-- Node0 -->
<g id="node1" class="node"><title>Node0</title>
<polygon fill="#bfbfbf" stroke="black" points="53.9409,-0.5 53.9409,-18.5 181.108,-18.5 181.108,-0.5 53.9409,-0.5"/>
<text text-anchor="middle" x="117.524" y="-6.5" font-family="Helvetica,sans-Serif" font-size="10.00">ocra::PartialStateFeature</text>
</g>
<!-- Node1 -->
<g id="node2" class="node"><title>Node1</title>
<g id="a_node2"><a xlink:href="../../d6/d87/classocra_1_1Feature.html" target="_top" xlink:title="Feature interface, used by tasks to compute errors and jacobians. ">
<polygon fill="white" stroke="black" points="79.7881,-55.5 79.7881,-73.5 155.261,-73.5 155.261,-55.5 79.7881,-55.5"/>
<text text-anchor="middle" x="117.524" y="-61.5" font-family="Helvetica,sans-Serif" font-size="10.00">ocra::Feature</text>
</a>
</g>
</g>
<!-- Node1&#45;&gt;Node0 -->
<g id="edge1" class="edge"><title>Node1&#45;&gt;Node0</title>
<path fill="none" stroke="midnightblue" d="M117.524,-45.1746C117.524,-36.0945 117.524,-25.5949 117.524,-18.5496"/>
<polygon fill="midnightblue" stroke="midnightblue" points="114.025,-45.2187 117.524,-55.2188 121.025,-45.2188 114.025,-45.2187"/>
</g>
<!-- Node2 -->
<g id="node3" class="node"><title>Node2</title>
<g id="a_node3"><a xlink:href="../../db/de3/classocra_1_1NamedInstance.html" target="_top" xlink:title="ocra::NamedInstance">
<polygon fill="white" stroke="black" points="0,-110.5 0,-128.5 111.049,-128.5 111.049,-110.5 0,-110.5"/>
<text text-anchor="middle" x="55.5244" y="-116.5" font-family="Helvetica,sans-Serif" font-size="10.00">ocra::NamedInstance</text>
</a>
</g>
</g>
<!-- Node2&#45;&gt;Node1 -->
<g id="edge2" class="edge"><title>Node2&#45;&gt;Node1</title>
<path fill="none" stroke="midnightblue" d="M72.5733,-103.926C83.995,-94.1622 98.6093,-81.6693 108.019,-73.6253"/>
<polygon fill="midnightblue" stroke="midnightblue" points="70.2679,-101.292 64.9409,-110.45 74.8164,-106.613 70.2679,-101.292"/>
</g>
<!-- Node3 -->
<g id="node4" class="node"><title>Node3</title>
<polygon fill="white" stroke="#bfbfbf" points="129.158,-110.5 129.158,-128.5 231.891,-128.5 231.891,-110.5 129.158,-110.5"/>
<text text-anchor="middle" x="180.524" y="-116.5" font-family="Helvetica,sans-Serif" font-size="10.00">boost::noncopyable</text>
</g>
<!-- Node3&#45;&gt;Node1 -->
<g id="edge3" class="edge"><title>Node3&#45;&gt;Node1</title>
<path fill="none" stroke="#8b1a1a" d="M163.201,-103.926C151.595,-94.1622 136.745,-81.6693 127.183,-73.6253"/>
<polygon fill="#8b1a1a" stroke="#8b1a1a" points="161.051,-106.691 170.956,-110.45 165.557,-101.334 161.051,-106.691"/>
</g>
</g>
</svg>
