<?xml version="1.0" encoding="UTF-8" standalone="no"?>
<!DOCTYPE svg PUBLIC "-//W3C//DTD SVG 1.1//EN"
 "http://www.w3.org/Graphics/SVG/1.1/DTD/svg11.dtd">
<!-- Generated by graphviz version 2.38.0 (20140413.2041)
 -->
<!-- Title: ocra::VariableHasRestrictedClassDerivation Pages: 1 -->
<svg width="250pt" height="147pt"
 viewBox="0.00 0.00 250.26 147.00" xmlns="http://www.w3.org/2000/svg" xmlns:xlink="http://www.w3.org/1999/xlink">
<g id="graph0" class="graph" transform="scale(1 1) rotate(0) translate(4 143)">
<title>ocra::VariableHasRestrictedClassDerivation</title>
<polygon fill="white" stroke="none" points="-4,4 -4,-143 246.257,-143 246.257,4 -4,4"/>
<!-- Node0 -->
<g id="node1" class="node"><title>Node0</title>
<polygon fill="#bfbfbf" stroke="black" points="44.9976,-110.5 44.9976,-138.5 184.757,-138.5 184.757,-110.5 44.9976,-110.5"/>
<text text-anchor="start" x="52.9976" y="-126.5" font-family="Helvetica,sans-Serif" font-size="10.00">ocra::VariableHasRestricted</text>
<text text-anchor="middle" x="114.877" y="-116.5" font-family="Helvetica,sans-Serif" font-size="10.00">ClassDerivation</text>
</g>
<!-- Node1 -->
<g id="node2" class="node"><title>Node1</title>
<g id="a_node2"><a xlink:href="../../d2/dac/classocra_1_1Variable.html" target="_top" xlink:title="This class represents a variable in a mathematical sense. ">
<polygon fill="white" stroke="black" points="76.3965,-55.5 76.3965,-73.5 153.358,-73.5 153.358,-55.5 76.3965,-55.5"/>
<text text-anchor="middle" x="114.877" y="-61.5" font-family="Helvetica,sans-Serif" font-size="10.00">ocra::Variable</text>
</a>
</g>
</g>
<!-- Node0&#45;&gt;Node1 -->
<g id="edge1" class="edge"><title>Node0&#45;&gt;Node1</title>
<path fill="none" stroke="#8b1a1a" d="M114.877,-100.323C114.877,-90.936 114.877,-80.7002 114.877,-73.7715"/>
<polygon fill="#8b1a1a" stroke="#8b1a1a" points="111.378,-100.339 114.877,-110.339 118.378,-100.339 111.378,-100.339"/>
</g>
<!-- Node2 -->
<g id="node3" class="node"><title>Node2</title>
<g id="a_node3"><a xlink:href="../../d5/d40/classocra_1_1BaseVariable.html" target="_top" xlink:title="Implements a basic variable. ">
<polygon fill="white" stroke="black" points="0,-0.5 0,-18.5 99.7549,-18.5 99.7549,-0.5 0,-0.5"/>
<text text-anchor="middle" x="49.8774" y="-6.5" font-family="Helvetica,sans-Serif" font-size="10.00">ocra::BaseVariable</text>
</a>
</g>
</g>
<!-- Node1&#45;&gt;Node2 -->
<g id="edge2" class="edge"><title>Node1&#45;&gt;Node2</title>
<path fill="none" stroke="midnightblue" d="M97.0036,-48.9259C85.0292,-39.1622 69.7078,-26.6693 59.8424,-18.6253"/>
<polygon fill="midnightblue" stroke="midnightblue" points="95.0433,-51.8436 105.005,-55.4504 99.4669,-46.4184 95.0433,-51.8436"/>
</g>
<!-- Node3 -->
<g id="node4" class="node"><title>Node3</title>
<g id="a_node4"><a xlink:href="../../d2/d7c/classocra_1_1CompositeVariable.html" target="_top" xlink:title="A concatenation of base variables and other composite variables. ">
<polygon fill="white" stroke="black" points="117.498,-0.5 117.498,-18.5 242.257,-18.5 242.257,-0.5 117.498,-0.5"/>
<text text-anchor="middle" x="179.877" y="-6.5" font-family="Helvetica,sans-Serif" font-size="10.00">ocra::CompositeVariable</text>
</a>
</g>
</g>
<!-- Node1&#45;&gt;Node3 -->
<g id="edge3" class="edge"><title>Node1&#45;&gt;Node3</title>
<path fill="none" stroke="midnightblue" d="M132.751,-48.9259C144.726,-39.1622 160.047,-26.6693 169.912,-18.6253"/>
<polygon fill="midnightblue" stroke="midnightblue" points="130.288,-46.4184 124.75,-55.4504 134.712,-51.8436 130.288,-46.4184"/>
</g>
</g>
</svg>
