<?xml version="1.0" encoding="UTF-8" standalone="no"?>
<!DOCTYPE svg PUBLIC "-//W3C//DTD SVG 1.1//EN"
 "http://www.w3.org/Graphics/SVG/1.1/DTD/svg11.dtd">
<!-- Generated by graphviz version 2.38.0 (20140413.2041)
 -->
<!-- Title: SolverUtilities.cpp Pages: 1 -->
<svg width="1710pt" height="617pt"
 viewBox="0.00 0.00 1710.32 617.00" xmlns="http://www.w3.org/2000/svg" xmlns:xlink="http://www.w3.org/1999/xlink">
<g id="graph0" class="graph" transform="scale(1 1) rotate(0) translate(4 613)">
<title>SolverUtilities.cpp</title>
<polygon fill="white" stroke="none" points="-4,4 -4,-613 1706.32,-613 1706.32,4 -4,4"/>
<!-- Node0 -->
<g id="node1" class="node"><title>Node0</title>
<polygon fill="#bfbfbf" stroke="black" points="713.894,-590.5 713.894,-608.5 809.367,-608.5 809.367,-590.5 713.894,-590.5"/>
<text text-anchor="middle" x="761.63" y="-596.5" font-family="Helvetica,sans-Serif" font-size="10.00">SolverUtilities.cpp</text>
</g>
<!-- Node1 -->
<g id="node2" class="node"><title>Node1</title>
<g id="a_node2"><a xlink:href="../../de/d2e/SolverUtilities_8h.html" target="_top" xlink:title="ocra/optim/SolverUtilities.h">
<polygon fill="white" stroke="black" points="694.443,-535.5 694.443,-553.5 828.817,-553.5 828.817,-535.5 694.443,-535.5"/>
<text text-anchor="middle" x="761.63" y="-541.5" font-family="Helvetica,sans-Serif" font-size="10.00">ocra/optim/SolverUtilities.h</text>
</a>
</g>
</g>
<!-- Node0&#45;&gt;Node1 -->
<g id="edge1" class="edge"><title>Node0&#45;&gt;Node1</title>
<path fill="none" stroke="midnightblue" d="M761.63,-590.219C761.63,-583.177 761.63,-572.808 761.63,-563.828"/>
<polygon fill="midnightblue" stroke="midnightblue" points="765.13,-563.55 761.63,-553.55 758.13,-563.55 765.13,-563.55"/>
</g>
<!-- Node2 -->
<g id="node3" class="node"><title>Node2</title>
<g id="a_node3"><a xlink:href="../../d5/d55/MathTypes_8h.html" target="_top" xlink:title="Declaration file of the OptimizationVariable class. ">
<polygon fill="white" stroke="black" points="19.106,-70.5 19.106,-88.5 130.155,-88.5 130.155,-70.5 19.106,-70.5"/>
<text text-anchor="middle" x="74.6304" y="-76.5" font-family="Helvetica,sans-Serif" font-size="10.00">ocra/util/MathTypes.h</text>
</a>
</g>
</g>
<!-- Node1&#45;&gt;Node2 -->
<g id="edge2" class="edge"><title>Node1&#45;&gt;Node2</title>
<path fill="none" stroke="midnightblue" d="M694.33,-541.496C561.524,-537.036 270.24,-524.6 173.63,-499 109.925,-482.119 39.6304,-501.404 39.6304,-435.5 39.6304,-435.5 39.6304,-435.5 39.6304,-198.5 39.6304,-161.422 55.7103,-120.395 66.0719,-97.8075"/>
<polygon fill="midnightblue" stroke="midnightblue" points="69.3398,-99.0856 70.478,-88.5521 63.0194,-96.0767 69.3398,-99.0856"/>
</g>
<!-- Node5 -->
<g id="node6" class="node"><title>Node5</title>
<g id="a_node6"><a xlink:href="../../d7/d90/Variable_8h.html" target="_top" xlink:title="Declaration file of the Variable class. ">
<polygon fill="white" stroke="black" points="352.753,-190.5 352.753,-208.5 462.508,-208.5 462.508,-190.5 352.753,-190.5"/>
<text text-anchor="middle" x="407.63" y="-196.5" font-family="Helvetica,sans-Serif" font-size="10.00">ocra/optim/Variable.h</text>
</a>
</g>
</g>
<!-- Node1&#45;&gt;Node5 -->
<g id="edge5" class="edge"><title>Node1&#45;&gt;Node5</title>
<path fill="none" stroke="midnightblue" d="M766.116,-535.151C783.068,-502.349 839.682,-380.414 787.63,-305 704.61,-184.717 614.641,-244.137 471.63,-214 466.552,-212.93 461.247,-211.812 455.958,-210.696"/>
<polygon fill="midnightblue" stroke="midnightblue" points="456.379,-207.208 445.872,-208.569 454.934,-214.057 456.379,-207.208"/>
</g>
<!-- Node25 -->
<g id="node26" class="node"><title>Node25</title>
<polygon fill="white" stroke="#bfbfbf" points="95.665,-130.5 95.665,-148.5 165.596,-148.5 165.596,-130.5 95.665,-130.5"/>
<text text-anchor="middle" x="130.63" y="-136.5" font-family="Helvetica,sans-Serif" font-size="10.00">Eigen/Eigen</text>
</g>
<!-- Node1&#45;&gt;Node25 -->
<g id="edge73" class="edge"><title>Node1&#45;&gt;Node25</title>
<path fill="none" stroke="midnightblue" d="M694.174,-539.872C521.611,-529.696 77.6304,-497.489 77.6304,-435.5 77.6304,-435.5 77.6304,-435.5 77.6304,-258.5 77.6304,-219.199 102.397,-178.488 118.07,-156.661"/>
<polygon fill="midnightblue" stroke="midnightblue" points="120.966,-158.632 124.132,-148.521 115.352,-154.451 120.966,-158.632"/>
</g>
<!-- Node27 -->
<g id="node28" class="node"><title>Node27</title>
<g id="a_node28"><a xlink:href="../../d3/dcf/Constraint_8h.html" target="_top" xlink:title="Declaration file of the Constraint class. ">
<polygon fill="white" stroke="black" points="576.941,-480.5 576.941,-498.5 696.32,-498.5 696.32,-480.5 576.941,-480.5"/>
<text text-anchor="middle" x="636.63" y="-486.5" font-family="Helvetica,sans-Serif" font-size="10.00">ocra/optim/Constraint.h</text>
</a>
</g>
</g>
<!-- Node1&#45;&gt;Node27 -->
<g id="edge36" class="edge"><title>Node1&#45;&gt;Node27</title>
<path fill="none" stroke="midnightblue" d="M742.646,-535.45C721.996,-526.695 688.766,-512.606 665.014,-502.535"/>
<polygon fill="midnightblue" stroke="midnightblue" points="666.367,-499.307 655.794,-498.625 663.634,-505.751 666.367,-499.307"/>
</g>
<!-- Node30 -->
<g id="node31" class="node"><title>Node30</title>
<polygon fill="white" stroke="#bfbfbf" points="1190.46,-70.5 1190.46,-88.5 1244.8,-88.5 1244.8,-70.5 1190.46,-70.5"/>
<text text-anchor="middle" x="1217.63" y="-76.5" font-family="Helvetica,sans-Serif" font-size="10.00">iostream</text>
</g>
<!-- Node1&#45;&gt;Node30 -->
<g id="edge74" class="edge"><title>Node1&#45;&gt;Node30</title>
<path fill="none" stroke="midnightblue" d="M829.299,-541.289C955.392,-535.318 1213.63,-513.559 1213.63,-435.5 1213.63,-435.5 1213.63,-435.5 1213.63,-198.5 1213.63,-163.079 1215.45,-121.711 1216.64,-98.5641"/>
<polygon fill="midnightblue" stroke="midnightblue" points="1220.14,-98.6807 1217.17,-88.5091 1213.15,-98.3094 1220.14,-98.6807"/>
</g>
<!-- Node42 -->
<g id="node43" class="node"><title>Node42</title>
<g id="a_node43"><a xlink:href="../../da/dc1/uncompress_8h.html" target="_top" xlink:title="ocra/optim/uncompress.h">
<polygon fill="white" stroke="black" points="105.495,-305.5 105.495,-323.5 233.766,-323.5 233.766,-305.5 105.495,-305.5"/>
<text text-anchor="middle" x="169.63" y="-311.5" font-family="Helvetica,sans-Serif" font-size="10.00">ocra/optim/uncompress.h</text>
</a>
</g>
</g>
<!-- Node1&#45;&gt;Node42 -->
<g id="edge71" class="edge"><title>Node1&#45;&gt;Node42</title>
<path fill="none" stroke="midnightblue" d="M694.267,-537.253C571.9,-524.818 319.146,-493.795 247.63,-444 208.114,-416.485 185.042,-361.882 175.237,-333.53"/>
<polygon fill="midnightblue" stroke="midnightblue" points="178.471,-332.161 172.026,-323.752 171.82,-334.345 178.471,-332.161"/>
</g>
<!-- Node43 -->
<g id="node44" class="node"><title>Node43</title>
<polygon fill="white" stroke="#bfbfbf" points="1242.12,-480.5 1242.12,-498.5 1293.14,-498.5 1293.14,-480.5 1242.12,-480.5"/>
<text text-anchor="middle" x="1267.63" y="-486.5" font-family="Helvetica,sans-Serif" font-size="10.00">iomanip</text>
</g>
<!-- Node1&#45;&gt;Node43 -->
<g id="edge75" class="edge"><title>Node1&#45;&gt;Node43</title>
<path fill="none" stroke="midnightblue" d="M829.066,-539.485C919.959,-533.522 1086.65,-520.638 1227.63,-499 1229.08,-498.778 1230.55,-498.536 1232.04,-498.28"/>
<polygon fill="midnightblue" stroke="midnightblue" points="1232.71,-501.715 1241.89,-496.422 1231.41,-494.836 1232.71,-501.715"/>
</g>
<!-- Node44 -->
<g id="node45" class="node"><title>Node44</title>
<g id="a_node45"><a xlink:href="../../dd/d88/SolverUtilities_8hxx.html" target="_top" xlink:title="SolverUtilities.hxx">
<polygon fill="white" stroke="black" points="1311.17,-480.5 1311.17,-498.5 1406.09,-498.5 1406.09,-480.5 1311.17,-480.5"/>
<text text-anchor="middle" x="1358.63" y="-486.5" font-family="Helvetica,sans-Serif" font-size="10.00">SolverUtilities.hxx</text>
</a>
</g>
</g>
<!-- Node1&#45;&gt;Node44 -->
<g id="edge76" class="edge"><title>Node1&#45;&gt;Node44</title>
<path fill="none" stroke="midnightblue" d="M828.828,-539.459C929.356,-533.085 1125.07,-519.404 1301.04,-499.114"/>
<polygon fill="midnightblue" stroke="midnightblue" points="1301.47,-502.588 1311,-497.957 1300.66,-495.635 1301.47,-502.588"/>
</g>
<!-- Node3 -->
<g id="node4" class="node"><title>Node3</title>
<polygon fill="white" stroke="#bfbfbf" points="0,-5.5 0,-23.5 73.2607,-23.5 73.2607,-5.5 0,-5.5"/>
<text text-anchor="middle" x="36.6304" y="-11.5" font-family="Helvetica,sans-Serif" font-size="10.00">Eigen/Dense</text>
</g>
<!-- Node2&#45;&gt;Node3 -->
<g id="edge3" class="edge"><title>Node2&#45;&gt;Node3</title>
<path fill="none" stroke="midnightblue" d="M69.6625,-70.2639C63.8843,-60.6842 54.194,-44.6186 46.7991,-32.3587"/>
<polygon fill="midnightblue" stroke="midnightblue" points="49.6413,-30.2942 41.4793,-23.539 43.6472,-33.9096 49.6413,-30.2942"/>
</g>
<!-- Node4 -->
<g id="node5" class="node"><title>Node4</title>
<polygon fill="white" stroke="#bfbfbf" points="91.0146,-5.5 91.0146,-23.5 134.246,-23.5 134.246,-5.5 91.0146,-5.5"/>
<text text-anchor="middle" x="112.63" y="-11.5" font-family="Helvetica,sans-Serif" font-size="10.00">cmath</text>
</g>
<!-- Node2&#45;&gt;Node4 -->
<g id="edge4" class="edge"><title>Node2&#45;&gt;Node4</title>
<path fill="none" stroke="midnightblue" d="M79.5982,-70.2639C85.3764,-60.6842 95.0667,-44.6186 102.462,-32.3587"/>
<polygon fill="midnightblue" stroke="midnightblue" points="105.614,-33.9096 107.781,-23.539 99.6195,-30.2942 105.614,-33.9096"/>
</g>
<!-- Node6 -->
<g id="node7" class="node"><title>Node6</title>
<g id="a_node7"><a xlink:href="../../d8/ddc/ObserverSubject_8h.html" target="_top" xlink:title="Declaration file of the Observer, Subject and ObserverSubject classes. ">
<polygon fill="white" stroke="black" points="1241.49,-130.5 1241.49,-148.5 1389.77,-148.5 1389.77,-130.5 1241.49,-130.5"/>
<text text-anchor="middle" x="1315.63" y="-136.5" font-family="Helvetica,sans-Serif" font-size="10.00">ocra/optim/ObserverSubject.h</text>
</a>
</g>
</g>
<!-- Node5&#45;&gt;Node6 -->
<g id="edge6" class="edge"><title>Node5&#45;&gt;Node6</title>
<path fill="none" stroke="midnightblue" d="M441.01,-190.437C450.821,-188.345 461.61,-186.313 471.63,-185 616.65,-165.999 1047.63,-149.605 1231.25,-143.281"/>
<polygon fill="midnightblue" stroke="midnightblue" points="1231.52,-146.774 1241.4,-142.933 1231.28,-139.778 1231.52,-146.774"/>
</g>
<!-- Node17 -->
<g id="node18" class="node"><title>Node17</title>
<g id="a_node18"><a xlink:href="../../d1/de6/Composite_8h.html" target="_top" xlink:title="Utility classes and functions to implement the Composite design pattern. ">
<polygon fill="white" stroke="black" points="641.83,-130.5 641.83,-148.5 763.431,-148.5 763.431,-130.5 641.83,-130.5"/>
<text text-anchor="middle" x="702.63" y="-136.5" font-family="Helvetica,sans-Serif" font-size="10.00">ocra/optim/Composite.h</text>
</a>
</g>
</g>
<!-- Node5&#45;&gt;Node17 -->
<g id="edge20" class="edge"><title>Node5&#45;&gt;Node17</title>
<path fill="none" stroke="midnightblue" d="M445.172,-190.466C453.854,-188.64 463.059,-186.729 471.63,-185 532.613,-172.695 602.808,-159.279 649.662,-150.43"/>
<polygon fill="midnightblue" stroke="midnightblue" points="650.408,-153.851 659.586,-148.558 649.11,-146.972 650.408,-153.851"/>
</g>
<!-- Node20 -->
<g id="node21" class="node"><title>Node20</title>
<polygon fill="white" stroke="#bfbfbf" points="327.921,-70.5 327.921,-88.5 447.339,-88.5 447.339,-70.5 327.921,-70.5"/>
<text text-anchor="middle" x="387.63" y="-76.5" font-family="Helvetica,sans-Serif" font-size="10.00">boost/noncopyable.hpp</text>
</g>
<!-- Node5&#45;&gt;Node20 -->
<g id="edge33" class="edge"><title>Node5&#45;&gt;Node20</title>
<path fill="none" stroke="midnightblue" d="M406.256,-190.389C403.073,-171.611 395.133,-124.768 390.717,-98.7111"/>
<polygon fill="midnightblue" stroke="midnightblue" points="394.137,-97.9419 389.015,-88.6674 387.235,-99.1117 394.137,-97.9419"/>
</g>
<!-- Node22 -->
<g id="node23" class="node"><title>Node22</title>
<polygon fill="white" stroke="#bfbfbf" points="1012.01,-70.5 1012.01,-88.5 1055.25,-88.5 1055.25,-70.5 1012.01,-70.5"/>
<text text-anchor="middle" x="1033.63" y="-76.5" font-family="Helvetica,sans-Serif" font-size="10.00">vector</text>
</g>
<!-- Node5&#45;&gt;Node22 -->
<g id="edge35" class="edge"><title>Node5&#45;&gt;Node22</title>
<path fill="none" stroke="midnightblue" d="M443.069,-190.438C452.334,-188.492 462.331,-186.534 471.63,-185 604.566,-163.074 643.577,-187.7 772.63,-149 790.717,-143.576 792.733,-136.02 810.63,-130 892.92,-102.319 919.637,-119.494 1002.63,-94 1004.25,-93.5023 1005.9,-92.9451 1007.55,-92.3482"/>
<polygon fill="midnightblue" stroke="midnightblue" points="1008.85,-95.5972 1016.84,-88.6325 1006.25,-89.0982 1008.85,-95.5972"/>
</g>
<!-- Node5&#45;&gt;Node25 -->
<g id="edge32" class="edge"><title>Node5&#45;&gt;Node25</title>
<path fill="none" stroke="midnightblue" d="M369.406,-190.496C318.793,-179.899 229.674,-161.238 175.796,-149.957"/>
<polygon fill="midnightblue" stroke="midnightblue" points="176.343,-146.496 165.838,-147.872 174.909,-153.347 176.343,-146.496"/>
</g>
<!-- Node26 -->
<g id="node27" class="node"><title>Node26</title>
<polygon fill="white" stroke="#bfbfbf" points="819.404,-130.5 819.404,-148.5 859.857,-148.5 859.857,-130.5 819.404,-130.5"/>
<text text-anchor="middle" x="839.63" y="-136.5" font-family="Helvetica,sans-Serif" font-size="10.00">string</text>
</g>
<!-- Node5&#45;&gt;Node26 -->
<g id="edge34" class="edge"><title>Node5&#45;&gt;Node26</title>
<path fill="none" stroke="midnightblue" d="M442.723,-190.434C452.081,-188.466 462.21,-186.497 471.63,-185 619.084,-161.563 658.637,-175.168 805.63,-149 806.877,-148.778 808.146,-148.536 809.425,-148.279"/>
<polygon fill="midnightblue" stroke="midnightblue" points="810.238,-151.683 819.232,-146.083 808.709,-144.852 810.238,-151.683"/>
</g>
<!-- Node7 -->
<g id="node8" class="node"><title>Node7</title>
<g id="a_node8"><a xlink:href="../../df/d67/ObserverSubjectBase_8h.html" target="_top" xlink:title="Declaration file of the Observer and Subject base classes. ">
<polygon fill="white" stroke="black" points="1484.66,-65.5 1484.66,-93.5 1624.6,-93.5 1624.6,-65.5 1484.66,-65.5"/>
<text text-anchor="start" x="1492.66" y="-81.5" font-family="Helvetica,sans-Serif" font-size="10.00">ocra/optim/ObserverSubject</text>
<text text-anchor="middle" x="1554.63" y="-71.5" font-family="Helvetica,sans-Serif" font-size="10.00">Base.h</text>
</a>
</g>
</g>
<!-- Node6&#45;&gt;Node7 -->
<g id="edge7" class="edge"><title>Node6&#45;&gt;Node7</title>
<path fill="none" stroke="midnightblue" d="M1348.86,-130.435C1385.55,-121.533 1445.46,-106.994 1491.2,-95.8938"/>
<polygon fill="midnightblue" stroke="midnightblue" points="1492.13,-99.2692 1501.02,-93.5096 1490.48,-92.4667 1492.13,-99.2692"/>
</g>
<!-- Node11 -->
<g id="node12" class="node"><title>Node11</title>
<polygon fill="white" stroke="#bfbfbf" points="1602.94,-0.5 1602.94,-28.5 1702.32,-28.5 1702.32,-0.5 1602.94,-0.5"/>
<text text-anchor="start" x="1610.94" y="-16.5" font-family="Helvetica,sans-Serif" font-size="10.00">boost/type_traits/is</text>
<text text-anchor="middle" x="1652.63" y="-6.5" font-family="Helvetica,sans-Serif" font-size="10.00">_class.hpp</text>
</g>
<!-- Node6&#45;&gt;Node11 -->
<g id="edge19" class="edge"><title>Node6&#45;&gt;Node11</title>
<path fill="none" stroke="midnightblue" d="M1389.86,-137.498C1472.45,-134.809 1598.88,-125.489 1633.63,-94 1648.86,-80.1993 1652.88,-56.4672 1653.53,-38.7008"/>
<polygon fill="midnightblue" stroke="midnightblue" points="1657.03,-38.5661 1653.57,-28.5518 1650.03,-38.5374 1657.03,-38.5661"/>
</g>
<!-- Node12 -->
<g id="node13" class="node"><title>Node12</title>
<polygon fill="white" stroke="#bfbfbf" points="479.943,-0.5 479.943,-28.5 579.317,-28.5 579.317,-0.5 479.943,-0.5"/>
<text text-anchor="start" x="487.943" y="-16.5" font-family="Helvetica,sans-Serif" font-size="10.00">boost/type_traits/is</text>
<text text-anchor="middle" x="529.63" y="-6.5" font-family="Helvetica,sans-Serif" font-size="10.00">_base_of.hpp</text>
</g>
<!-- Node6&#45;&gt;Node12 -->
<g id="edge17" class="edge"><title>Node6&#45;&gt;Node12</title>
<path fill="none" stroke="midnightblue" d="M1309.99,-130.3C1297.7,-112.734 1268.47,-72.4576 1253.63,-65 1195.14,-35.6127 730.876,-34.2338 665.63,-29 640.701,-27.0003 613.246,-24.3588 589.57,-21.9429"/>
<polygon fill="midnightblue" stroke="midnightblue" points="589.634,-18.431 579.328,-20.888 588.916,-25.3942 589.634,-18.431"/>
</g>
<!-- Node13 -->
<g id="node14" class="node"><title>Node13</title>
<polygon fill="white" stroke="#bfbfbf" points="674.212,-5.5 674.212,-23.5 793.049,-23.5 793.049,-5.5 674.212,-5.5"/>
<text text-anchor="middle" x="733.63" y="-11.5" font-family="Helvetica,sans-Serif" font-size="10.00">boost/static_assert.hpp</text>
</g>
<!-- Node6&#45;&gt;Node13 -->
<g id="edge16" class="edge"><title>Node6&#45;&gt;Node13</title>
<path fill="none" stroke="midnightblue" d="M1315.12,-130.435C1313.66,-114.863 1308.04,-80.8013 1286.63,-65 1244.49,-33.9019 868.636,-35.2098 816.63,-29 807.582,-27.9195 798.011,-26.5633 788.711,-25.1301"/>
<polygon fill="midnightblue" stroke="midnightblue" points="789.187,-21.662 778.763,-23.554 788.092,-28.5758 789.187,-21.662"/>
</g>
<!-- Node15 -->
<g id="node16" class="node"><title>Node15</title>
<g id="a_node16"><a xlink:href="../../db/ddf/ocra__events_8h.html" target="_top" xlink:title="ocra/optim/ocra_events.h">
<polygon fill="white" stroke="black" points="1338.49,-70.5 1338.49,-88.5 1466.77,-88.5 1466.77,-70.5 1338.49,-70.5"/>
<text text-anchor="middle" x="1402.63" y="-76.5" font-family="Helvetica,sans-Serif" font-size="10.00">ocra/optim/ocra_events.h</text>
</a>
</g>
</g>
<!-- Node6&#45;&gt;Node15 -->
<g id="edge15" class="edge"><title>Node6&#45;&gt;Node15</title>
<path fill="none" stroke="midnightblue" d="M1327.73,-130.435C1341.67,-121.138 1364.84,-105.694 1381.72,-94.4393"/>
<polygon fill="midnightblue" stroke="midnightblue" points="1383.98,-97.1424 1390.36,-88.6831 1380.09,-91.318 1383.98,-97.1424"/>
</g>
<!-- Node16 -->
<g id="node17" class="node"><title>Node16</title>
<polygon fill="white" stroke="#bfbfbf" points="1072.94,-65.5 1072.94,-93.5 1172.32,-93.5 1172.32,-65.5 1072.94,-65.5"/>
<text text-anchor="start" x="1080.94" y="-81.5" font-family="Helvetica,sans-Serif" font-size="10.00">boost/type_traits/is</text>
<text text-anchor="middle" x="1122.63" y="-71.5" font-family="Helvetica,sans-Serif" font-size="10.00">_convertible.hpp</text>
</g>
<!-- Node6&#45;&gt;Node16 -->
<g id="edge18" class="edge"><title>Node6&#45;&gt;Node16</title>
<path fill="none" stroke="midnightblue" d="M1288.79,-130.435C1259.73,-121.701 1212.61,-107.54 1175.96,-96.5257"/>
<polygon fill="midnightblue" stroke="midnightblue" points="1176.51,-93.0357 1165.92,-93.5096 1174.49,-99.7396 1176.51,-93.0357"/>
</g>
<!-- Node8 -->
<g id="node9" class="node"><title>Node8</title>
<polygon fill="white" stroke="#bfbfbf" points="1526.23,-5.5 1526.23,-23.5 1585.03,-23.5 1585.03,-5.5 1526.23,-5.5"/>
<text text-anchor="middle" x="1555.63" y="-11.5" font-family="Helvetica,sans-Serif" font-size="10.00">functional</text>
</g>
<!-- Node7&#45;&gt;Node8 -->
<g id="edge8" class="edge"><title>Node7&#45;&gt;Node8</title>
<path fill="none" stroke="midnightblue" d="M1554.84,-65.4464C1554.98,-56.3336 1555.18,-44.0406 1555.34,-33.9308"/>
<polygon fill="midnightblue" stroke="midnightblue" points="1558.84,-33.7844 1555.5,-23.7301 1551.84,-33.6732 1558.84,-33.7844"/>
</g>
<!-- Node9 -->
<g id="node10" class="node"><title>Node9</title>
<polygon fill="white" stroke="#bfbfbf" points="826.066,-5.5 826.066,-23.5 883.194,-23.5 883.194,-5.5 826.066,-5.5"/>
<text text-anchor="middle" x="854.63" y="-11.5" font-family="Helvetica,sans-Serif" font-size="10.00">algorithm</text>
</g>
<!-- Node7&#45;&gt;Node9 -->
<g id="edge9" class="edge"><title>Node7&#45;&gt;Node9</title>
<path fill="none" stroke="midnightblue" d="M1484.48,-66.1118C1481.49,-65.7111 1478.53,-65.3379 1475.63,-65 1221.29,-35.3923 1152.82,-73.328 900.63,-29 896.481,-28.2706 892.173,-27.3017 887.933,-26.2166"/>
<polygon fill="midnightblue" stroke="midnightblue" points="888.837,-22.8355 878.266,-23.5318 886.964,-29.5802 888.837,-22.8355"/>
</g>
<!-- Node10 -->
<g id="node11" class="node"><title>Node10</title>
<polygon fill="white" stroke="#bfbfbf" points="1310.59,-5.5 1310.59,-23.5 1388.68,-23.5 1388.68,-5.5 1310.59,-5.5"/>
<text text-anchor="middle" x="1349.63" y="-11.5" font-family="Helvetica,sans-Serif" font-size="10.00">boost/any.hpp</text>
</g>
<!-- Node7&#45;&gt;Node10 -->
<g id="edge10" class="edge"><title>Node7&#45;&gt;Node10</title>
<path fill="none" stroke="midnightblue" d="M1512.15,-65.4464C1474.8,-53.9653 1421.01,-37.4363 1385.7,-26.5851"/>
<polygon fill="midnightblue" stroke="midnightblue" points="1386.41,-23.1401 1375.82,-23.548 1384.35,-29.8312 1386.41,-23.1401"/>
</g>
<!-- Node7&#45;&gt;Node11 -->
<g id="edge11" class="edge"><title>Node7&#45;&gt;Node11</title>
<path fill="none" stroke="midnightblue" d="M1574.94,-65.4464C1589,-56.4079 1607.92,-44.241 1623.57,-34.1787"/>
<polygon fill="midnightblue" stroke="midnightblue" points="1625.83,-36.8887 1632.35,-28.5369 1622.05,-31.0004 1625.83,-36.8887"/>
</g>
<!-- Node7&#45;&gt;Node12 -->
<g id="edge12" class="edge"><title>Node7&#45;&gt;Node12</title>
<path fill="none" stroke="midnightblue" d="M1484.48,-66.0453C1481.5,-65.6629 1478.54,-65.3116 1475.63,-65 1117.33,-26.5753 1025.06,-54.8074 665.63,-29 640.789,-27.2163 613.454,-24.6257 589.847,-22.1898"/>
<polygon fill="midnightblue" stroke="midnightblue" points="589.942,-18.6807 579.632,-21.1216 589.214,-25.6427 589.942,-18.6807"/>
</g>
<!-- Node7&#45;&gt;Node13 -->
<g id="edge13" class="edge"><title>Node7&#45;&gt;Node13</title>
<path fill="none" stroke="midnightblue" d="M1484.48,-66.0826C1481.49,-65.6899 1478.53,-65.3263 1475.63,-65 1184.14,-32.2417 1108.25,-60.5903 816.63,-29 807.151,-27.9731 797.106,-26.5915 787.401,-25.103"/>
<polygon fill="midnightblue" stroke="midnightblue" points="787.873,-21.6342 777.448,-23.5235 786.776,-28.5477 787.873,-21.6342"/>
</g>
<!-- Node14 -->
<g id="node15" class="node"><title>Node14</title>
<polygon fill="white" stroke="#bfbfbf" points="1406.83,-0.5 1406.83,-28.5 1508.44,-28.5 1508.44,-0.5 1406.83,-0.5"/>
<text text-anchor="start" x="1414.83" y="-16.5" font-family="Helvetica,sans-Serif" font-size="10.00">boost/ptr_container</text>
<text text-anchor="middle" x="1457.63" y="-6.5" font-family="Helvetica,sans-Serif" font-size="10.00">/ptr_vector.hpp</text>
</g>
<!-- Node7&#45;&gt;Node14 -->
<g id="edge14" class="edge"><title>Node7&#45;&gt;Node14</title>
<path fill="none" stroke="midnightblue" d="M1534.53,-65.4464C1520.62,-56.4079 1501.88,-44.241 1486.39,-34.1787"/>
<polygon fill="midnightblue" stroke="midnightblue" points="1488,-31.0486 1477.7,-28.5369 1484.18,-36.9191 1488,-31.0486"/>
</g>
<!-- Node17&#45;&gt;Node9 -->
<g id="edge29" class="edge"><title>Node17&#45;&gt;Node9</title>
<path fill="none" stroke="midnightblue" d="M710.695,-130.374C724.752,-116.376 754.897,-87.0936 782.63,-65 798.884,-52.0519 818.36,-38.7868 832.955,-29.2517"/>
<polygon fill="midnightblue" stroke="midnightblue" points="835.258,-31.9311 841.759,-23.5652 831.46,-26.0511 835.258,-31.9311"/>
</g>
<!-- Node17&#45;&gt;Node12 -->
<g id="edge25" class="edge"><title>Node17&#45;&gt;Node12</title>
<path fill="none" stroke="midnightblue" d="M641.808,-133.822C587.197,-128.208 512.888,-116.576 494.63,-94 480.681,-76.7502 494.738,-53.0604 508.977,-36.2284"/>
<polygon fill="midnightblue" stroke="midnightblue" points="511.776,-38.3506 515.86,-28.5746 506.571,-33.67 511.776,-38.3506"/>
</g>
<!-- Node17&#45;&gt;Node13 -->
<g id="edge24" class="edge"><title>Node17&#45;&gt;Node13</title>
<path fill="none" stroke="midnightblue" d="M704.664,-130.43C709.589,-110.889 722.252,-60.6475 729.089,-33.518"/>
<polygon fill="midnightblue" stroke="midnightblue" points="732.498,-34.3135 731.548,-23.7614 725.71,-32.6027 732.498,-34.3135"/>
</g>
<!-- Node17&#45;&gt;Node16 -->
<g id="edge26" class="edge"><title>Node17&#45;&gt;Node16</title>
<path fill="none" stroke="midnightblue" d="M763.452,-133.018C833.504,-126.257 952.209,-113.436 1062.73,-94.2304"/>
<polygon fill="midnightblue" stroke="midnightblue" points="1063.47,-97.6539 1072.71,-92.474 1062.26,-90.7598 1063.47,-97.6539"/>
</g>
<!-- Node18 -->
<g id="node19" class="node"><title>Node18</title>
<g id="a_node19"><a xlink:href="../../de/df3/ocra__assert_8h.html" target="_top" xlink:title="ocra/optim/ocra_assert.h">
<polygon fill="white" stroke="black" points="867.606,-70.5 867.606,-88.5 993.655,-88.5 993.655,-70.5 867.606,-70.5"/>
<text text-anchor="middle" x="930.63" y="-76.5" font-family="Helvetica,sans-Serif" font-size="10.00">ocra/optim/ocra_assert.h</text>
</a>
</g>
</g>
<!-- Node17&#45;&gt;Node18 -->
<g id="edge21" class="edge"><title>Node17&#45;&gt;Node18</title>
<path fill="none" stroke="midnightblue" d="M734.333,-130.435C774.631,-120.184 844.309,-102.459 888.894,-91.1171"/>
<polygon fill="midnightblue" stroke="midnightblue" points="890.002,-94.4468 898.831,-88.5894 888.276,-87.6629 890.002,-94.4468"/>
</g>
<!-- Node17&#45;&gt;Node20 -->
<g id="edge23" class="edge"><title>Node17&#45;&gt;Node20</title>
<path fill="none" stroke="midnightblue" d="M659.162,-130.496C602.246,-120.017 502.511,-101.653 441.053,-90.3365"/>
<polygon fill="midnightblue" stroke="midnightblue" points="441.627,-86.8835 431.158,-88.5147 440.359,-93.7677 441.627,-86.8835"/>
</g>
<!-- Node21 -->
<g id="node22" class="node"><title>Node21</title>
<polygon fill="white" stroke="#bfbfbf" points="504.091,-65.5 504.091,-93.5 635.169,-93.5 635.169,-65.5 504.091,-65.5"/>
<text text-anchor="start" x="512.091" y="-81.5" font-family="Helvetica,sans-Serif" font-size="10.00">boost/type_traits/has</text>
<text text-anchor="middle" x="569.63" y="-71.5" font-family="Helvetica,sans-Serif" font-size="10.00">_nothrow_constructor.hpp</text>
</g>
<!-- Node17&#45;&gt;Node21 -->
<g id="edge27" class="edge"><title>Node17&#45;&gt;Node21</title>
<path fill="none" stroke="midnightblue" d="M684.137,-130.435C664.707,-121.962 633.568,-108.383 608.665,-97.5224"/>
<polygon fill="midnightblue" stroke="midnightblue" points="610.028,-94.2987 599.463,-93.5096 607.23,-100.715 610.028,-94.2987"/>
</g>
<!-- Node17&#45;&gt;Node22 -->
<g id="edge28" class="edge"><title>Node17&#45;&gt;Node22</title>
<path fill="none" stroke="midnightblue" d="M763.625,-131.377C837.937,-122.363 958.973,-106.506 1002.63,-94 1004.3,-93.5221 1005.99,-92.9746 1007.69,-92.3798"/>
<polygon fill="midnightblue" stroke="midnightblue" points="1009.19,-95.5514 1017.2,-88.6139 1006.61,-89.0436 1009.19,-95.5514"/>
</g>
<!-- Node23 -->
<g id="node24" class="node"><title>Node23</title>
<polygon fill="white" stroke="#bfbfbf" points="653.458,-70.5 653.458,-88.5 697.803,-88.5 697.803,-70.5 653.458,-70.5"/>
<text text-anchor="middle" x="675.63" y="-76.5" font-family="Helvetica,sans-Serif" font-size="10.00">iosfwd</text>
</g>
<!-- Node17&#45;&gt;Node23 -->
<g id="edge30" class="edge"><title>Node17&#45;&gt;Node23</title>
<path fill="none" stroke="midnightblue" d="M698.876,-130.435C695.011,-122.132 688.863,-108.927 683.861,-98.1807"/>
<polygon fill="midnightblue" stroke="midnightblue" points="686.921,-96.4605 679.528,-88.8718 680.575,-99.4147 686.921,-96.4605"/>
</g>
<!-- Node24 -->
<g id="node25" class="node"><title>Node24</title>
<polygon fill="white" stroke="#bfbfbf" points="791.229,-70.5 791.229,-88.5 850.032,-88.5 850.032,-70.5 791.229,-70.5"/>
<text text-anchor="middle" x="820.63" y="-76.5" font-family="Helvetica,sans-Serif" font-size="10.00">stdexcept</text>
</g>
<!-- Node17&#45;&gt;Node24 -->
<g id="edge31" class="edge"><title>Node17&#45;&gt;Node24</title>
<path fill="none" stroke="midnightblue" d="M719.038,-130.435C738.653,-120.794 771.718,-104.542 794.779,-93.2065"/>
<polygon fill="midnightblue" stroke="midnightblue" points="796.551,-96.2355 803.982,-88.6831 793.463,-89.9533 796.551,-96.2355"/>
</g>
<!-- Node19 -->
<g id="node20" class="node"><title>Node19</title>
<polygon fill="white" stroke="#bfbfbf" points="909.569,-5.5 909.569,-23.5 951.692,-23.5 951.692,-5.5 909.569,-5.5"/>
<text text-anchor="middle" x="930.63" y="-11.5" font-family="Helvetica,sans-Serif" font-size="10.00">cstdio</text>
</g>
<!-- Node18&#45;&gt;Node19 -->
<g id="edge22" class="edge"><title>Node18&#45;&gt;Node19</title>
<path fill="none" stroke="midnightblue" d="M930.63,-70.2639C930.63,-61.0635 930.63,-45.881 930.63,-33.8326"/>
<polygon fill="midnightblue" stroke="midnightblue" points="934.13,-33.5389 930.63,-23.539 927.13,-33.539 934.13,-33.5389"/>
</g>
<!-- Node27&#45;&gt;Node5 -->
<g id="edge37" class="edge"><title>Node27&#45;&gt;Node5</title>
<path fill="none" stroke="midnightblue" d="M662.399,-480.408C702.085,-466.151 773.63,-432.538 773.63,-375.5 773.63,-375.5 773.63,-375.5 773.63,-313.5 773.63,-296.677 544.903,-235.834 449.08,-211.083"/>
<polygon fill="midnightblue" stroke="midnightblue" points="449.709,-207.631 439.152,-208.525 447.963,-214.409 449.709,-207.631"/>
</g>
<!-- Node27&#45;&gt;Node12 -->
<g id="edge61" class="edge"><title>Node27&#45;&gt;Node12</title>
<path fill="none" stroke="midnightblue" d="M576.871,-487.149C493.887,-484.164 349.252,-474.597 307.63,-444 252.682,-403.606 279.207,-362.561 242.63,-305 231.46,-287.421 222.297,-287.448 212.63,-269 197.967,-241.015 193.63,-232.094 193.63,-200.5 193.63,-200.5 193.63,-200.5 193.63,-138.5 193.63,-80.379 373.16,-41.5066 469.758,-24.7974"/>
<polygon fill="midnightblue" stroke="midnightblue" points="470.42,-28.2352 479.691,-23.1068 469.245,-21.3345 470.42,-28.2352"/>
</g>
<!-- Node27&#45;&gt;Node13 -->
<g id="edge60" class="edge"><title>Node27&#45;&gt;Node13</title>
<path fill="none" stroke="midnightblue" d="M576.685,-485.732C510.368,-481.378 409.32,-470.492 382.63,-444 352.32,-413.914 290.276,-96.9369 318.63,-65 324.308,-58.6054 546.767,-34.7761 663.583,-22.6647"/>
<polygon fill="midnightblue" stroke="midnightblue" points="664.276,-26.1118 673.862,-21.6009 663.555,-19.1489 664.276,-26.1118"/>
</g>
<!-- Node28 -->
<g id="node29" class="node"><title>Node28</title>
<g id="a_node29"><a xlink:href="../../df/df5/Function_8h.html" target="_top" xlink:title="Declaration file of the Function class. ">
<polygon fill="white" stroke="black" points="839.552,-250.5 839.552,-268.5 951.709,-268.5 951.709,-250.5 839.552,-250.5"/>
<text text-anchor="middle" x="895.63" y="-256.5" font-family="Helvetica,sans-Serif" font-size="10.00">ocra/optim/Function.h</text>
</a>
</g>
</g>
<!-- Node27&#45;&gt;Node28 -->
<g id="edge38" class="edge"><title>Node27&#45;&gt;Node28</title>
<path fill="none" stroke="midnightblue" d="M696.569,-481.401C726.401,-475.4 761.561,-464.346 787.63,-444 844.938,-399.274 877.932,-314.978 890.149,-278.3"/>
<polygon fill="midnightblue" stroke="midnightblue" points="893.557,-279.134 893.277,-268.542 886.891,-276.996 893.557,-279.134"/>
</g>
<!-- Node35 -->
<g id="node36" class="node"><title>Node35</title>
<g id="a_node36"><a xlink:href="../../df/d55/FunctionInterfaceMapping_8h.html" target="_top" xlink:title="Declaration file of the FunctionInterfaceMapping struct. ">
<polygon fill="white" stroke="black" points="877.266,-360.5 877.266,-388.5 1019.99,-388.5 1019.99,-360.5 877.266,-360.5"/>
<text text-anchor="start" x="885.266" y="-376.5" font-family="Helvetica,sans-Serif" font-size="10.00">ocra/optim/FunctionInterface</text>
<text text-anchor="middle" x="948.63" y="-366.5" font-family="Helvetica,sans-Serif" font-size="10.00">Mapping.h</text>
</a>
</g>
</g>
<!-- Node27&#45;&gt;Node35 -->
<g id="edge56" class="edge"><title>Node27&#45;&gt;Node35</title>
<path fill="none" stroke="midnightblue" d="M687.513,-480.472C726.225,-473.427 780.368,-461.539 825.63,-444 859.784,-430.765 896.1,-409.553 920.343,-394.237"/>
<polygon fill="midnightblue" stroke="midnightblue" points="922.48,-397.025 929.014,-388.685 918.705,-391.13 922.48,-397.025"/>
</g>
<!-- Node36 -->
<g id="node37" class="node"><title>Node36</title>
<g id="a_node37"><a xlink:href="../../df/d0a/Macros_8h.html" target="_top" xlink:title="ocra/util/Macros.h">
<polygon fill="white" stroke="black" points="221.172,-250.5 221.172,-268.5 316.088,-268.5 316.088,-250.5 221.172,-250.5"/>
<text text-anchor="middle" x="268.63" y="-256.5" font-family="Helvetica,sans-Serif" font-size="10.00">ocra/util/Macros.h</text>
</a>
</g>
</g>
<!-- Node27&#45;&gt;Node36 -->
<g id="edge58" class="edge"><title>Node27&#45;&gt;Node36</title>
<path fill="none" stroke="midnightblue" d="M576.804,-487.474C496.752,-484.875 360.559,-475.767 323.63,-444 298.165,-422.093 278.642,-320.5 271.54,-278.621"/>
<polygon fill="midnightblue" stroke="midnightblue" points="274.952,-277.805 269.871,-268.508 268.046,-278.945 274.952,-277.805"/>
</g>
<!-- Node38 -->
<g id="node39" class="node"><title>Node38</title>
<g id="a_node39"><a xlink:href="../../dc/d8a/LinearFunction_8h.html" target="_top" xlink:title="Declaration file of the LinearFunction class. ">
<polygon fill="white" stroke="black" points="418.653,-305.5 418.653,-323.5 558.608,-323.5 558.608,-305.5 418.653,-305.5"/>
<text text-anchor="middle" x="488.63" y="-311.5" font-family="Helvetica,sans-Serif" font-size="10.00">ocra/optim/LinearFunction.h</text>
</a>
</g>
</g>
<!-- Node27&#45;&gt;Node38 -->
<g id="edge62" class="edge"><title>Node27&#45;&gt;Node38</title>
<path fill="none" stroke="midnightblue" d="M576.921,-486.006C512.912,-481.931 417.39,-471.326 394.63,-444 361.2,-403.862 428.355,-352.957 465.805,-329.055"/>
<polygon fill="midnightblue" stroke="midnightblue" points="467.962,-331.836 474.607,-323.584 464.266,-325.891 467.962,-331.836"/>
</g>
<!-- Node39 -->
<g id="node40" class="node"><title>Node39</title>
<g id="a_node40"><a xlink:href="../../de/d69/BoundFunction_8h.html" target="_top" xlink:title="Declaration file of the BoundFunction class. ">
<polygon fill="white" stroke="black" points="566.094,-425.5 566.094,-443.5 707.167,-443.5 707.167,-425.5 566.094,-425.5"/>
<text text-anchor="middle" x="636.63" y="-431.5" font-family="Helvetica,sans-Serif" font-size="10.00">ocra/optim/BoundFunction.h</text>
</a>
</g>
</g>
<!-- Node27&#45;&gt;Node39 -->
<g id="edge65" class="edge"><title>Node27&#45;&gt;Node39</title>
<path fill="none" stroke="midnightblue" d="M636.63,-480.219C636.63,-473.177 636.63,-462.808 636.63,-453.828"/>
<polygon fill="midnightblue" stroke="midnightblue" points="640.13,-453.55 636.63,-443.55 633.13,-453.55 640.13,-453.55"/>
</g>
<!-- Node40 -->
<g id="node41" class="node"><title>Node40</title>
<g id="a_node41"><a xlink:href="../../dc/d6f/DiagonalLinearFunction_8h.html" target="_top" xlink:title="Declaration file of the DiagonalLinearFunction class. ">
<polygon fill="white" stroke="black" points="522.264,-360.5 522.264,-388.5 654.997,-388.5 654.997,-360.5 522.264,-360.5"/>
<text text-anchor="start" x="530.264" y="-376.5" font-family="Helvetica,sans-Serif" font-size="10.00">ocra/optim/DiagonalLinear</text>
<text text-anchor="middle" x="588.63" y="-366.5" font-family="Helvetica,sans-Serif" font-size="10.00">Function.h</text>
</a>
</g>
</g>
<!-- Node27&#45;&gt;Node40 -->
<g id="edge70" class="edge"><title>Node27&#45;&gt;Node40</title>
<path fill="none" stroke="midnightblue" d="M662.902,-480.419C692.32,-469.941 733.774,-450.011 716.63,-425 704.478,-407.271 684.995,-395.89 664.858,-388.585"/>
<polygon fill="midnightblue" stroke="midnightblue" points="665.86,-385.23 655.267,-385.412 663.661,-391.876 665.86,-385.23"/>
</g>
<!-- Node41 -->
<g id="node42" class="node"><title>Node41</title>
<g id="a_node42"><a xlink:href="../../de/d7a/IdentityFunction_8h.html" target="_top" xlink:title="Declaration file of the IdentityFunction class. ">
<polygon fill="white" stroke="black" points="403.431,-425.5 403.431,-443.5 547.83,-443.5 547.83,-425.5 403.431,-425.5"/>
<text text-anchor="middle" x="475.63" y="-431.5" font-family="Helvetica,sans-Serif" font-size="10.00">ocra/optim/IdentityFunction.h</text>
</a>
</g>
</g>
<!-- Node27&#45;&gt;Node41 -->
<g id="edge68" class="edge"><title>Node27&#45;&gt;Node41</title>
<path fill="none" stroke="midnightblue" d="M612.178,-480.45C584.912,-471.475 540.614,-456.892 509.9,-446.781"/>
<polygon fill="midnightblue" stroke="midnightblue" points="510.642,-443.341 500.049,-443.538 508.453,-449.99 510.642,-443.341"/>
</g>
<!-- Node28&#45;&gt;Node5 -->
<g id="edge52" class="edge"><title>Node28&#45;&gt;Node5</title>
<path fill="none" stroke="midnightblue" d="M839.478,-251.584C834.795,-251.037 830.132,-250.502 825.63,-250 668.46,-232.468 627.889,-238.355 471.63,-214 465.372,-213.024 458.802,-211.833 452.354,-210.566"/>
<polygon fill="midnightblue" stroke="midnightblue" points="452.881,-207.102 442.383,-208.534 451.482,-213.961 452.881,-207.102"/>
</g>
<!-- Node28&#45;&gt;Node6 -->
<g id="edge53" class="edge"><title>Node28&#45;&gt;Node6</title>
<path fill="none" stroke="midnightblue" d="M951.873,-253.251C1005.42,-247.244 1087.82,-235.358 1156.63,-214 1207.21,-198.301 1262.56,-169.947 1292.78,-153.421"/>
<polygon fill="midnightblue" stroke="midnightblue" points="1294.61,-156.406 1301.67,-148.502 1291.22,-150.281 1294.61,-156.406"/>
</g>
<!-- Node29 -->
<g id="node30" class="node"><title>Node29</title>
<g id="a_node30"><a xlink:href="../../de/d94/IFunction_8h.html" target="_top" xlink:title="Declaration file of the IFunction interface. ">
<polygon fill="white" stroke="black" points="946.163,-130.5 946.163,-148.5 1061.1,-148.5 1061.1,-130.5 946.163,-130.5"/>
<text text-anchor="middle" x="1003.63" y="-136.5" font-family="Helvetica,sans-Serif" font-size="10.00">ocra/optim/IFunction.h</text>
</a>
</g>
</g>
<!-- Node28&#45;&gt;Node29 -->
<g id="edge39" class="edge"><title>Node28&#45;&gt;Node29</title>
<path fill="none" stroke="midnightblue" d="M926.225,-250.375C945.662,-243.685 969.856,-232.268 984.63,-214 997.302,-198.332 1001.61,-175.163 1003.03,-159.04"/>
<polygon fill="midnightblue" stroke="midnightblue" points="1006.55,-158.941 1003.63,-148.754 999.557,-158.534 1006.55,-158.941"/>
</g>
<!-- Node31 -->
<g id="node32" class="node"><title>Node31</title>
<g id="a_node32"><a xlink:href="../../d9/d54/IFunctionProperties_8h.html" target="_top" xlink:title="ocra/optim/IFunctionProperties.h">
<polygon fill="white" stroke="black" points="815.375,-190.5 815.375,-208.5 975.886,-208.5 975.886,-190.5 815.375,-190.5"/>
<text text-anchor="middle" x="895.63" y="-196.5" font-family="Helvetica,sans-Serif" font-size="10.00">ocra/optim/IFunctionProperties.h</text>
</a>
</g>
</g>
<!-- Node28&#45;&gt;Node31 -->
<g id="edge45" class="edge"><title>Node28&#45;&gt;Node31</title>
<path fill="none" stroke="midnightblue" d="M895.63,-250.435C895.63,-242.389 895.63,-229.739 895.63,-219.185"/>
<polygon fill="midnightblue" stroke="midnightblue" points="899.13,-218.872 895.63,-208.872 892.13,-218.872 899.13,-218.872"/>
</g>
<!-- Node32 -->
<g id="node33" class="node"><title>Node32</title>
<g id="a_node33"><a xlink:href="../../db/d47/AbilitySet_8h.html" target="_top" xlink:title="ocra/optim/AbilitySet.h">
<polygon fill="white" stroke="black" points="1031.89,-190.5 1031.89,-208.5 1147.37,-208.5 1147.37,-190.5 1031.89,-190.5"/>
<text text-anchor="middle" x="1089.63" y="-196.5" font-family="Helvetica,sans-Serif" font-size="10.00">ocra/optim/AbilitySet.h</text>
</a>
</g>
</g>
<!-- Node28&#45;&gt;Node32 -->
<g id="edge48" class="edge"><title>Node28&#45;&gt;Node32</title>
<path fill="none" stroke="midnightblue" d="M922.605,-250.435C956.533,-240.292 1014.94,-222.831 1052.91,-211.477"/>
<polygon fill="midnightblue" stroke="midnightblue" points="1053.99,-214.807 1062.57,-208.589 1051.99,-208.101 1053.99,-214.807"/>
</g>
<!-- Node33 -->
<g id="node34" class="node"><title>Node33</title>
<g id="a_node34"><a xlink:href="../../d1/d87/CoupledInputOutputSize_8h.html" target="_top" xlink:title="ocra/optim/CoupledInputOutput\lSize.h">
<polygon fill="white" stroke="black" points="642.143,-185.5 642.143,-213.5 797.118,-213.5 797.118,-185.5 642.143,-185.5"/>
<text text-anchor="start" x="650.143" y="-201.5" font-family="Helvetica,sans-Serif" font-size="10.00">ocra/optim/CoupledInputOutput</text>
<text text-anchor="middle" x="719.63" y="-191.5" font-family="Helvetica,sans-Serif" font-size="10.00">Size.h</text>
</a>
</g>
</g>
<!-- Node28&#45;&gt;Node33 -->
<g id="edge51" class="edge"><title>Node28&#45;&gt;Node33</title>
<path fill="none" stroke="midnightblue" d="M871.158,-250.435C844.766,-241.738 802.051,-227.661 768.689,-216.667"/>
<polygon fill="midnightblue" stroke="midnightblue" points="769.701,-213.315 759.108,-213.51 767.51,-219.964 769.701,-213.315"/>
</g>
<!-- Node34 -->
<g id="node35" class="node"><title>Node34</title>
<g id="a_node35"><a xlink:href="../../df/d97/NamedInstance_8h.html" target="_top" xlink:title="ocra/optim/NamedInstance.h">
<polygon fill="white" stroke="black" points="480.709,-190.5 480.709,-208.5 624.551,-208.5 624.551,-190.5 480.709,-190.5"/>
<text text-anchor="middle" x="552.63" y="-196.5" font-family="Helvetica,sans-Serif" font-size="10.00">ocra/optim/NamedInstance.h</text>
</a>
</g>
</g>
<!-- Node28&#45;&gt;Node34 -->
<g id="edge54" class="edge"><title>Node28&#45;&gt;Node34</title>
<path fill="none" stroke="midnightblue" d="M848.298,-250.496C786.068,-239.973 676.826,-221.501 609.976,-210.197"/>
<polygon fill="midnightblue" stroke="midnightblue" points="610.471,-206.731 600.028,-208.515 609.304,-213.633 610.471,-206.731"/>
</g>
<!-- Node29&#45;&gt;Node2 -->
<g id="edge40" class="edge"><title>Node29&#45;&gt;Node2</title>
<path fill="none" stroke="midnightblue" d="M946.151,-134.873C922.185,-133.363 894.061,-131.593 868.63,-130 598.598,-113.082 276.897,-93.0705 140.725,-84.6066"/>
<polygon fill="midnightblue" stroke="midnightblue" points="140.662,-81.0961 130.464,-83.9689 140.228,-88.0826 140.662,-81.0961"/>
</g>
<!-- Node29&#45;&gt;Node18 -->
<g id="edge41" class="edge"><title>Node29&#45;&gt;Node18</title>
<path fill="none" stroke="midnightblue" d="M993.48,-130.435C982.06,-121.362 963.271,-106.434 949.206,-95.2589"/>
<polygon fill="midnightblue" stroke="midnightblue" points="951.174,-92.3522 941.167,-88.8718 946.82,-97.8329 951.174,-92.3522"/>
</g>
<!-- Node29&#45;&gt;Node22 -->
<g id="edge43" class="edge"><title>Node29&#45;&gt;Node22</title>
<path fill="none" stroke="midnightblue" d="M1007.8,-130.435C1012.14,-122.047 1019.07,-108.654 1024.66,-97.8491"/>
<polygon fill="midnightblue" stroke="midnightblue" points="1027.81,-99.3619 1029.3,-88.8718 1021.6,-96.1459 1027.81,-99.3619"/>
</g>
<!-- Node29&#45;&gt;Node24 -->
<g id="edge44" class="edge"><title>Node29&#45;&gt;Node24</title>
<path fill="none" stroke="midnightblue" d="M976.259,-130.487C947.022,-121.838 899.379,-107.484 858.63,-94 856.524,-93.3031 854.357,-92.5718 852.177,-91.8254"/>
<polygon fill="midnightblue" stroke="midnightblue" points="853.272,-88.5009 842.678,-88.5157 850.969,-95.1111 853.272,-88.5009"/>
</g>
<!-- Node29&#45;&gt;Node30 -->
<g id="edge42" class="edge"><title>Node29&#45;&gt;Node30</title>
<path fill="none" stroke="midnightblue" d="M1041.13,-130.43C1077.39,-122.322 1133.73,-108.916 1181.63,-94 1183.54,-93.4046 1185.5,-92.7634 1187.47,-92.0953"/>
<polygon fill="midnightblue" stroke="midnightblue" points="1188.97,-95.276 1197.21,-88.6177 1186.61,-88.6835 1188.97,-95.276"/>
</g>
<!-- Node31&#45;&gt;Node22 -->
<g id="edge47" class="edge"><title>Node31&#45;&gt;Node22</title>
<path fill="none" stroke="midnightblue" d="M898.879,-190.346C904.77,-176.423 918.413,-147.846 937.63,-130 948.366,-120.031 981.762,-103.789 1006.16,-92.6471"/>
<polygon fill="midnightblue" stroke="midnightblue" points="1007.65,-95.8134 1015.32,-88.5061 1004.77,-89.4344 1007.65,-95.8134"/>
</g>
<!-- Node31&#45;&gt;Node26 -->
<g id="edge46" class="edge"><title>Node31&#45;&gt;Node26</title>
<path fill="none" stroke="midnightblue" d="M887.844,-190.435C879.331,-181.619 865.481,-167.274 854.805,-156.217"/>
<polygon fill="midnightblue" stroke="midnightblue" points="857.177,-153.635 847.713,-148.872 852.142,-158.497 857.177,-153.635"/>
</g>
<!-- Node32&#45;&gt;Node22 -->
<g id="edge50" class="edge"><title>Node32&#45;&gt;Node22</title>
<path fill="none" stroke="midnightblue" d="M1088.16,-190.148C1085.61,-176.897 1079.68,-150.462 1069.63,-130 1063.74,-118.001 1054.94,-105.842 1047.52,-96.5773"/>
<polygon fill="midnightblue" stroke="midnightblue" points="1050.05,-94.1396 1040.97,-88.6814 1044.66,-98.6111 1050.05,-94.1396"/>
</g>
<!-- Node32&#45;&gt;Node29 -->
<g id="edge49" class="edge"><title>Node32&#45;&gt;Node29</title>
<path fill="none" stroke="midnightblue" d="M1077.67,-190.435C1063.89,-181.138 1040.99,-165.694 1024.3,-154.439"/>
<polygon fill="midnightblue" stroke="midnightblue" points="1026.01,-151.373 1015.76,-148.683 1022.1,-157.176 1026.01,-151.373"/>
</g>
<!-- Node34&#45;&gt;Node26 -->
<g id="edge55" class="edge"><title>Node34&#45;&gt;Node26</title>
<path fill="none" stroke="midnightblue" d="M597.564,-190.435C648.261,-181.167 733.111,-165.148 805.63,-149 806.866,-148.725 808.126,-148.438 809.398,-148.144"/>
<polygon fill="midnightblue" stroke="midnightblue" points="810.268,-151.534 819.175,-145.796 808.634,-144.728 810.268,-151.534"/>
</g>
<!-- Node35&#45;&gt;Node28 -->
<g id="edge57" class="edge"><title>Node35&#45;&gt;Node28</title>
<path fill="none" stroke="midnightblue" d="M942.342,-360.094C932.736,-339.612 914.405,-300.528 903.787,-277.89"/>
<polygon fill="midnightblue" stroke="midnightblue" points="906.925,-276.339 899.51,-268.772 900.588,-279.312 906.925,-276.339"/>
</g>
<!-- Node37 -->
<g id="node38" class="node"><title>Node37</title>
<polygon fill="white" stroke="#bfbfbf" points="242.574,-190.5 242.574,-208.5 294.687,-208.5 294.687,-190.5 242.574,-190.5"/>
<text text-anchor="middle" x="268.63" y="-196.5" font-family="Helvetica,sans-Serif" font-size="10.00">memory</text>
</g>
<!-- Node36&#45;&gt;Node37 -->
<g id="edge59" class="edge"><title>Node36&#45;&gt;Node37</title>
<path fill="none" stroke="midnightblue" d="M268.63,-250.435C268.63,-242.389 268.63,-229.739 268.63,-219.185"/>
<polygon fill="midnightblue" stroke="midnightblue" points="272.13,-218.872 268.63,-208.872 265.13,-218.872 272.13,-218.872"/>
</g>
<!-- Node38&#45;&gt;Node28 -->
<g id="edge63" class="edge"><title>Node38&#45;&gt;Node28</title>
<path fill="none" stroke="midnightblue" d="M550.445,-305.45C625.677,-295.654 752.199,-279.178 829.382,-269.127"/>
<polygon fill="midnightblue" stroke="midnightblue" points="830.007,-272.575 839.471,-267.813 829.103,-265.634 830.007,-272.575"/>
</g>
<!-- Node38&#45;&gt;Node36 -->
<g id="edge64" class="edge"><title>Node38&#45;&gt;Node36</title>
<path fill="none" stroke="midnightblue" d="M455.217,-305.45C416.906,-296.221 353.988,-281.063 311.945,-270.935"/>
<polygon fill="midnightblue" stroke="midnightblue" points="312.539,-267.478 301.997,-268.538 310.899,-274.283 312.539,-267.478"/>
</g>
<!-- Node39&#45;&gt;Node40 -->
<g id="edge66" class="edge"><title>Node39&#45;&gt;Node40</title>
<path fill="none" stroke="midnightblue" d="M629.956,-425.435C623.838,-418.043 614.504,-406.764 606.254,-396.795"/>
<polygon fill="midnightblue" stroke="midnightblue" points="608.745,-394.315 599.673,-388.843 603.352,-398.778 608.745,-394.315"/>
</g>
<!-- Node40&#45;&gt;Node38 -->
<g id="edge67" class="edge"><title>Node40&#45;&gt;Node38</title>
<path fill="none" stroke="midnightblue" d="M565.939,-360.339C549.657,-350.895 527.802,-338.22 511.483,-328.755"/>
<polygon fill="midnightblue" stroke="midnightblue" points="513.005,-325.591 502.599,-323.602 509.493,-331.647 513.005,-325.591"/>
</g>
<!-- Node41&#45;&gt;Node40 -->
<g id="edge69" class="edge"><title>Node41&#45;&gt;Node40</title>
<path fill="none" stroke="midnightblue" d="M491.343,-425.435C507.507,-417.138 533.21,-403.946 554.138,-393.204"/>
<polygon fill="midnightblue" stroke="midnightblue" points="555.77,-396.301 563.068,-388.62 552.574,-390.073 555.77,-396.301"/>
</g>
<!-- Node42&#45;&gt;Node25 -->
<g id="edge72" class="edge"><title>Node42&#45;&gt;Node25</title>
<path fill="none" stroke="midnightblue" d="M167.749,-305.156C161.765,-278.609 143.07,-195.683 134.725,-158.662"/>
<polygon fill="midnightblue" stroke="midnightblue" points="138.106,-157.746 132.493,-148.76 131.277,-159.285 138.106,-157.746"/>
</g>
</g>
</svg>
