<?xml version="1.0" encoding="UTF-8" standalone="no"?>
<!DOCTYPE svg PUBLIC "-//W3C//DTD SVG 1.1//EN"
 "http://www.w3.org/Graphics/SVG/1.1/DTD/svg11.dtd">
<!-- Generated by graphviz version 2.38.0 (20140413.2041)
 -->
<!-- Title: ocra::PointContactTaskBuilder Pages: 1 -->
<svg width="167pt" height="263pt"
 viewBox="0.00 0.00 167.29 263.00" xmlns="http://www.w3.org/2000/svg" xmlns:xlink="http://www.w3.org/1999/xlink">
<g id="graph0" class="graph" transform="scale(1 1) rotate(0) translate(4 259)">
<title>ocra::PointContactTaskBuilder</title>
<polygon fill="white" stroke="none" points="-4,4 -4,-259 163.294,-259 163.294,4 -4,4"/>
<!-- Node2 -->
<g id="node1" class="node"><title>Node2</title>
<polygon fill="#bfbfbf" stroke="black" points="0,-0.5 0,-18.5 149.955,-18.5 149.955,-0.5 0,-0.5"/>
<text text-anchor="middle" x="74.9775" y="-6.5" font-family="Helvetica,sans-Serif" font-size="10.00">ocra::PointContactTaskBuilder</text>
</g>
<!-- Node3 -->
<g id="node2" class="node"><title>Node3</title>
<g id="a_node2"><a xlink:href="../../d6/d6a/classocra_1_1TaskBuilder.html" target="_top" xlink:title="ocra::TaskBuilder">
<polygon fill="white" stroke="black" points="28.6279,-56.5 28.6279,-74.5 121.327,-74.5 121.327,-56.5 28.6279,-56.5"/>
<text text-anchor="middle" x="74.9775" y="-62.5" font-family="Helvetica,sans-Serif" font-size="10.00">ocra::TaskBuilder</text>
</a>
</g>
</g>
<!-- Node3&#45;&gt;Node2 -->
<g id="edge1" class="edge"><title>Node3&#45;&gt;Node2</title>
<path fill="none" stroke="midnightblue" d="M74.9775,-45.8288C74.9775,-36.5774 74.9775,-25.8798 74.9775,-18.7014"/>
<polygon fill="midnightblue" stroke="midnightblue" points="71.4776,-46.0625 74.9775,-56.0625 78.4776,-46.0625 71.4776,-46.0625"/>
</g>
<!-- Node4 -->
<g id="node3" class="node"><title>Node4</title>
<g id="a_node3"><a xlink:href="../../d9/d2f/classocra_1_1TaskBuilderOptions.html" target="_top" xlink:title="ocra::TaskBuilderOptions">
<polygon fill="white" stroke="black" points="11.3965,-121.5 11.3965,-139.5 138.559,-139.5 138.559,-121.5 11.3965,-121.5"/>
<text text-anchor="middle" x="74.9775" y="-127.5" font-family="Helvetica,sans-Serif" font-size="10.00">ocra::TaskBuilderOptions</text>
</a>
</g>
</g>
<!-- Node4&#45;&gt;Node3 -->
<g id="edge2" class="edge"><title>Node4&#45;&gt;Node3</title>
<path fill="none" stroke="#9a32cd" stroke-dasharray="5,2" d="M74.9775,-110.907C74.9775,-98.8146 74.9775,-83.6529 74.9775,-74.539"/>
<polygon fill="#9a32cd" stroke="#9a32cd" points="71.4776,-111.264 74.9775,-121.264 78.4776,-111.264 71.4776,-111.264"/>
<text text-anchor="middle" x="92.4897" y="-95" font-family="Helvetica,sans-Serif" font-size="10.00"> options</text>
</g>
<!-- Node5 -->
<g id="node4" class="node"><title>Node5</title>
<polygon fill="white" stroke="#bfbfbf" points="46.6846,-236.5 46.6846,-254.5 103.271,-254.5 103.271,-236.5 46.6846,-236.5"/>
<text text-anchor="middle" x="74.9775" y="-242.5" font-family="Helvetica,sans-Serif" font-size="10.00">VectorXd</text>
</g>
<!-- Node5&#45;&gt;Node4 -->
<g id="edge3" class="edge"><title>Node5&#45;&gt;Node4</title>
<path fill="none" stroke="#9a32cd" stroke-dasharray="5,2" d="M74.9775,-226.071C74.9775,-201.073 74.9775,-157.482 74.9775,-139.553"/>
<polygon fill="#9a32cd" stroke="#9a32cd" points="71.4776,-226.373 74.9775,-236.373 78.4776,-226.373 71.4776,-226.373"/>
<text text-anchor="middle" x="117.136" y="-210" font-family="Helvetica,sans-Serif" font-size="10.00"> nameDesired</text>
<text text-anchor="middle" x="117.136" y="-200" font-family="Helvetica,sans-Serif" font-size="10.00">indexDesired</text>
<text text-anchor="middle" x="117.136" y="-190" font-family="Helvetica,sans-Serif" font-size="10.00">desired</text>
<text text-anchor="middle" x="117.136" y="-180" font-family="Helvetica,sans-Serif" font-size="10.00">indexWeightVector</text>
<text text-anchor="middle" x="117.136" y="-170" font-family="Helvetica,sans-Serif" font-size="10.00">weightVector</text>
<text text-anchor="middle" x="117.136" y="-160" font-family="Helvetica,sans-Serif" font-size="10.00">nameWeightVector</text>
</g>
</g>
</svg>
