<?xml version="1.0" encoding="UTF-8" standalone="no"?>
<!DOCTYPE svg PUBLIC "-//W3C//DTD SVG 1.1//EN"
 "http://www.w3.org/Graphics/SVG/1.1/DTD/svg11.dtd">
<!-- Generated by graphviz version 2.38.0 (20140413.2041)
 -->
<!-- Title: ocra::ContactAvoidanceFunction Pages: 1 -->
<svg width="1164pt" height="345pt"
 viewBox="0.00 0.00 1164.33 345.00" xmlns="http://www.w3.org/2000/svg" xmlns:xlink="http://www.w3.org/1999/xlink">
<g id="graph0" class="graph" transform="scale(1 1) rotate(0) translate(4 341)">
<title>ocra::ContactAvoidanceFunction</title>
<polygon fill="white" stroke="none" points="-4,4 -4,-341 1160.33,-341 1160.33,4 -4,4"/>
<!-- Node0 -->
<g id="node1" class="node"><title>Node0</title>
<polygon fill="#bfbfbf" stroke="black" points="797.954,-95.5 797.954,-113.5 958.305,-113.5 958.305,-95.5 797.954,-95.5"/>
<text text-anchor="middle" x="878.129" y="-101.5" font-family="Helvetica,sans-Serif" font-size="10.00">ocra::ContactAvoidanceFunction</text>
</g>
<!-- Node17 -->
<g id="node18" class="node"><title>Node17</title>
<g id="a_node18"><a xlink:href="../../da/d90/classocra_1_1FullContactAvoidanceFunction.html" target="_top" xlink:title="Create a linear function that represents the contact avoidance function for the full formalism...">
<polygon fill="white" stroke="black" points="1006.26,-114.5 1006.26,-142.5 1144.37,-142.5 1144.37,-114.5 1006.26,-114.5"/>
<text text-anchor="start" x="1014.26" y="-130.5" font-family="Helvetica,sans-Serif" font-size="10.00">ocra::FullContactAvoidance</text>
<text text-anchor="middle" x="1075.32" y="-120.5" font-family="Helvetica,sans-Serif" font-size="10.00">Function</text>
</a>
</g>
</g>
<!-- Node0&#45;&gt;Node17 -->
<g id="edge17" class="edge"><title>Node0&#45;&gt;Node17</title>
<path fill="none" stroke="midnightblue" d="M962.387,-114.737C976.987,-116.532 992.024,-118.381 1006.15,-120.119"/>
<polygon fill="midnightblue" stroke="midnightblue" points="962.718,-111.252 952.366,-113.505 961.864,-118.199 962.718,-111.252"/>
</g>
<!-- Node18 -->
<g id="node19" class="node"><title>Node18</title>
<g id="a_node19"><a xlink:href="../../db/d40/classocra_1_1ReducedContactAvoidanceFunction.html" target="_top" xlink:title="Create a linear function that represents the contact avoidance function for the reduced formalism...">
<polygon fill="white" stroke="black" points="994.305,-67.5 994.305,-95.5 1156.33,-95.5 1156.33,-67.5 994.305,-67.5"/>
<text text-anchor="start" x="1002.3" y="-83.5" font-family="Helvetica,sans-Serif" font-size="10.00">ocra::ReducedContactAvoidance</text>
<text text-anchor="middle" x="1075.32" y="-73.5" font-family="Helvetica,sans-Serif" font-size="10.00">Function</text>
</a>
</g>
</g>
<!-- Node0&#45;&gt;Node18 -->
<g id="edge18" class="edge"><title>Node0&#45;&gt;Node18</title>
<path fill="none" stroke="midnightblue" d="M965.843,-94.2821C975.243,-93.1745 984.779,-92.0507 994.097,-90.9527"/>
<polygon fill="midnightblue" stroke="midnightblue" points="965.234,-90.8295 955.713,-95.4758 966.054,-97.7814 965.234,-90.8295"/>
</g>
<!-- Node1 -->
<g id="node2" class="node"><title>Node1</title>
<g id="a_node2"><a xlink:href="../../de/d3a/classocra_1_1LinearFunction.html" target="_top" xlink:title="LinearFunction class. ">
<polygon fill="white" stroke="black" points="654.792,-95.5 654.792,-113.5 761.954,-113.5 761.954,-95.5 654.792,-95.5"/>
<text text-anchor="middle" x="708.373" y="-101.5" font-family="Helvetica,sans-Serif" font-size="10.00">ocra::LinearFunction</text>
</a>
</g>
</g>
<!-- Node1&#45;&gt;Node0 -->
<g id="edge1" class="edge"><title>Node1&#45;&gt;Node0</title>
<path fill="none" stroke="midnightblue" d="M772.023,-104.5C780.389,-104.5 789.057,-104.5 797.663,-104.5"/>
<polygon fill="midnightblue" stroke="midnightblue" points="771.992,-101 761.992,-104.5 771.992,-108 771.992,-101"/>
</g>
<!-- Node2 -->
<g id="node3" class="node"><title>Node2</title>
<g id="a_node3"><a xlink:href="../../d2/d99/classocra_1_1Function.html" target="_top" xlink:title="Function class. ">
<polygon fill="white" stroke="black" points="539.428,-95.5 539.428,-113.5 618.792,-113.5 618.792,-95.5 539.428,-95.5"/>
<text text-anchor="middle" x="579.11" y="-101.5" font-family="Helvetica,sans-Serif" font-size="10.00">ocra::Function</text>
</a>
</g>
</g>
<!-- Node2&#45;&gt;Node1 -->
<g id="edge2" class="edge"><title>Node2&#45;&gt;Node1</title>
<path fill="none" stroke="midnightblue" d="M629.011,-104.5C637.413,-104.5 646.178,-104.5 654.674,-104.5"/>
<polygon fill="midnightblue" stroke="midnightblue" points="628.985,-101 618.985,-104.5 628.984,-108 628.985,-101"/>
</g>
<!-- Node3 -->
<g id="node4" class="node"><title>Node3</title>
<g id="a_node4"><a xlink:href="../../d3/d16/classocra_1_1ObserverSubject.html" target="_top" xlink:title="ocra::ObserverSubject">
<polygon fill="white" stroke="black" points="363.785,-195.5 363.785,-213.5 479.272,-213.5 479.272,-195.5 363.785,-195.5"/>
<text text-anchor="middle" x="421.529" y="-201.5" font-family="Helvetica,sans-Serif" font-size="10.00">ocra::ObserverSubject</text>
</a>
</g>
</g>
<!-- Node3&#45;&gt;Node2 -->
<g id="edge3" class="edge"><title>Node3&#45;&gt;Node2</title>
<path fill="none" stroke="midnightblue" d="M489.17,-193.217C494.139,-191.316 498.953,-189.095 503.428,-186.5 535.577,-167.857 561.698,-130.718 572.608,-113.567"/>
<polygon fill="midnightblue" stroke="midnightblue" points="487.825,-189.977 479.471,-196.493 490.065,-196.609 487.825,-189.977"/>
</g>
<!-- Node4 -->
<g id="node5" class="node"><title>Node4</title>
<g id="a_node5"><a xlink:href="../../d2/d45/classocra_1_1Observer.html" target="_top" xlink:title="ocra::Observer">
<polygon fill="white" stroke="black" points="221.497,-242.5 221.497,-260.5 303.63,-260.5 303.63,-242.5 221.497,-242.5"/>
<text text-anchor="middle" x="262.563" y="-248.5" font-family="Helvetica,sans-Serif" font-size="10.00">ocra::Observer</text>
</a>
</g>
</g>
<!-- Node4&#45;&gt;Node3 -->
<g id="edge4" class="edge"><title>Node4&#45;&gt;Node3</title>
<path fill="none" stroke="midnightblue" d="M303.743,-239.469C330.736,-231.387 365.737,-220.906 390.357,-213.534"/>
<polygon fill="midnightblue" stroke="midnightblue" points="302.404,-236.216 293.828,-242.438 304.412,-242.922 302.404,-236.216"/>
</g>
<!-- Node5 -->
<g id="node6" class="node"><title>Node5</title>
<g id="a_node6"><a xlink:href="../../d4/dee/classocra_1_1ObserverBase.html" target="_top" xlink:title="ocra::ObserverBase\l\&lt; EVT_RESIZE \&gt;">
<polygon fill="white" stroke="black" points="40.2856,-308.5 40.2856,-336.5 145.211,-336.5 145.211,-308.5 40.2856,-308.5"/>
<text text-anchor="start" x="48.2856" y="-324.5" font-family="Helvetica,sans-Serif" font-size="10.00">ocra::ObserverBase</text>
<text text-anchor="middle" x="92.7485" y="-314.5" font-family="Helvetica,sans-Serif" font-size="10.00">&lt; EVT_RESIZE &gt;</text>
</a>
</g>
</g>
<!-- Node5&#45;&gt;Node4 -->
<g id="edge5" class="edge"><title>Node5&#45;&gt;Node4</title>
<path fill="none" stroke="midnightblue" d="M155.394,-309.918C165.632,-307.018 176.001,-303.563 185.497,-299.5 209.903,-289.058 235.439,-271.317 249.841,-260.576"/>
<polygon fill="midnightblue" stroke="midnightblue" points="154.402,-306.56 145.65,-312.531 156.215,-313.321 154.402,-306.56"/>
</g>
<!-- Node6 -->
<g id="node7" class="node"><title>Node6</title>
<g id="a_node7"><a xlink:href="../../d4/dee/classocra_1_1ObserverBase.html" target="_top" xlink:title="ocra::ObserverBase\l\&lt; EVT_CHANGE_DEPENDENCIES \&gt;">
<polygon fill="white" stroke="black" points="0,-261.5 0,-289.5 185.497,-289.5 185.497,-261.5 0,-261.5"/>
<text text-anchor="start" x="8" y="-277.5" font-family="Helvetica,sans-Serif" font-size="10.00">ocra::ObserverBase</text>
<text text-anchor="middle" x="92.7485" y="-267.5" font-family="Helvetica,sans-Serif" font-size="10.00">&lt; EVT_CHANGE_DEPENDENCIES &gt;</text>
</a>
</g>
</g>
<!-- Node6&#45;&gt;Node4 -->
<g id="edge6" class="edge"><title>Node6&#45;&gt;Node4</title>
<path fill="none" stroke="midnightblue" d="M195.441,-260.957C204.506,-259.66 213.28,-258.405 221.314,-257.256"/>
<polygon fill="midnightblue" stroke="midnightblue" points="194.916,-257.496 185.512,-262.376 195.907,-264.425 194.916,-257.496"/>
</g>
<!-- Node7 -->
<g id="node8" class="node"><title>Node7</title>
<g id="a_node8"><a xlink:href="../../d4/dee/classocra_1_1ObserverBase.html" target="_top" xlink:title="ocra::ObserverBase\l\&lt; EVT_CHANGE_VALUE \&gt;">
<polygon fill="white" stroke="black" points="23.4253,-214.5 23.4253,-242.5 162.072,-242.5 162.072,-214.5 23.4253,-214.5"/>
<text text-anchor="start" x="31.4253" y="-230.5" font-family="Helvetica,sans-Serif" font-size="10.00">ocra::ObserverBase</text>
<text text-anchor="middle" x="92.7485" y="-220.5" font-family="Helvetica,sans-Serif" font-size="10.00">&lt; EVT_CHANGE_VALUE &gt;</text>
</a>
</g>
</g>
<!-- Node7&#45;&gt;Node4 -->
<g id="edge7" class="edge"><title>Node7&#45;&gt;Node4</title>
<path fill="none" stroke="midnightblue" d="M172.838,-239.34C189.55,-241.63 206.517,-243.956 221.077,-245.951"/>
<polygon fill="midnightblue" stroke="midnightblue" points="172.872,-235.812 162.489,-237.921 171.922,-242.747 172.872,-235.812"/>
</g>
<!-- Node8 -->
<g id="node9" class="node"><title>Node8</title>
<g id="a_node9"><a xlink:href="../../dc/d77/classocra_1_1Subject.html" target="_top" xlink:title="ocra::Subject">
<polygon fill="white" stroke="black" points="225.381,-148.5 225.381,-166.5 299.746,-166.5 299.746,-148.5 225.381,-148.5"/>
<text text-anchor="middle" x="262.563" y="-154.5" font-family="Helvetica,sans-Serif" font-size="10.00">ocra::Subject</text>
</a>
</g>
</g>
<!-- Node8&#45;&gt;Node3 -->
<g id="edge8" class="edge"><title>Node8&#45;&gt;Node3</title>
<path fill="none" stroke="midnightblue" d="M294.354,-170.407C308.058,-175.846 324.489,-181.956 339.63,-186.5 350.793,-189.85 362.99,-192.883 374.451,-195.463"/>
<polygon fill="midnightblue" stroke="midnightblue" points="295.499,-167.094 284.915,-166.597 292.878,-173.586 295.499,-167.094"/>
</g>
<!-- Node9 -->
<g id="node10" class="node"><title>Node9</title>
<g id="a_node10"><a xlink:href="../../dc/d29/classocra_1_1SubjectBase.html" target="_top" xlink:title="ocra::SubjectBase\&lt;\l EVT_RESIZE \&gt;">
<polygon fill="white" stroke="black" points="41.25,-167.5 41.25,-195.5 144.247,-195.5 144.247,-167.5 41.25,-167.5"/>
<text text-anchor="start" x="49.25" y="-183.5" font-family="Helvetica,sans-Serif" font-size="10.00">ocra::SubjectBase&lt;</text>
<text text-anchor="middle" x="92.7485" y="-173.5" font-family="Helvetica,sans-Serif" font-size="10.00"> EVT_RESIZE &gt;</text>
</a>
</g>
</g>
<!-- Node9&#45;&gt;Node8 -->
<g id="edge9" class="edge"><title>Node9&#45;&gt;Node8</title>
<path fill="none" stroke="midnightblue" d="M154.534,-172.807C178.262,-169.413 204.665,-165.637 225.31,-162.685"/>
<polygon fill="midnightblue" stroke="midnightblue" points="153.958,-169.354 144.554,-174.234 154.949,-176.283 153.958,-169.354"/>
</g>
<!-- Node10 -->
<g id="node11" class="node"><title>Node10</title>
<g id="a_node11"><a xlink:href="../../dc/d29/classocra_1_1SubjectBase.html" target="_top" xlink:title="ocra::SubjectBase\&lt;\l EVT_CHANGE_DEPENDENCIES \&gt;">
<polygon fill="white" stroke="black" points="2.91992,-120.5 2.91992,-148.5 182.577,-148.5 182.577,-120.5 2.91992,-120.5"/>
<text text-anchor="start" x="10.9199" y="-136.5" font-family="Helvetica,sans-Serif" font-size="10.00">ocra::SubjectBase&lt;</text>
<text text-anchor="middle" x="92.7485" y="-126.5" font-family="Helvetica,sans-Serif" font-size="10.00"> EVT_CHANGE_DEPENDENCIES &gt;</text>
</a>
</g>
</g>
<!-- Node10&#45;&gt;Node8 -->
<g id="edge10" class="edge"><title>Node10&#45;&gt;Node8</title>
<path fill="none" stroke="midnightblue" d="M193.112,-148.118C204.461,-149.674 215.419,-151.176 225.116,-152.505"/>
<polygon fill="midnightblue" stroke="midnightblue" points="193.443,-144.631 183.061,-146.741 192.493,-151.566 193.443,-144.631"/>
</g>
<!-- Node11 -->
<g id="node12" class="node"><title>Node11</title>
<g id="a_node12"><a xlink:href="../../dc/d29/classocra_1_1SubjectBase.html" target="_top" xlink:title="ocra::SubjectBase\&lt;\l EVT_CHANGE_VALUE \&gt;">
<polygon fill="white" stroke="black" points="26.3452,-73.5 26.3452,-101.5 159.152,-101.5 159.152,-73.5 26.3452,-73.5"/>
<text text-anchor="start" x="34.3452" y="-89.5" font-family="Helvetica,sans-Serif" font-size="10.00">ocra::SubjectBase&lt;</text>
<text text-anchor="middle" x="92.7485" y="-79.5" font-family="Helvetica,sans-Serif" font-size="10.00"> EVT_CHANGE_VALUE &gt;</text>
</a>
</g>
</g>
<!-- Node11&#45;&gt;Node8 -->
<g id="edge11" class="edge"><title>Node11&#45;&gt;Node8</title>
<path fill="none" stroke="midnightblue" d="M168.869,-104.291C174.566,-106.182 180.167,-108.249 185.497,-110.5 209.665,-120.705 235.074,-137.919 249.553,-148.441"/>
<polygon fill="midnightblue" stroke="midnightblue" points="169.813,-100.919 159.224,-101.274 167.723,-107.6 169.813,-100.919"/>
</g>
<!-- Node12 -->
<g id="node13" class="node"><title>Node12</title>
<g id="a_node13"><a xlink:href="../../dd/d68/classocra_1_1IFunctionProperties.html" target="_top" xlink:title="ocra::IFunctionProperties">
<polygon fill="white" stroke="black" points="357.669,-158.5 357.669,-176.5 485.388,-176.5 485.388,-158.5 357.669,-158.5"/>
<text text-anchor="middle" x="421.529" y="-164.5" font-family="Helvetica,sans-Serif" font-size="10.00">ocra::IFunctionProperties</text>
</a>
</g>
</g>
<!-- Node12&#45;&gt;Node2 -->
<g id="edge12" class="edge"><title>Node12&#45;&gt;Node2</title>
<path fill="none" stroke="midnightblue" d="M481.442,-155.873C488.951,-153.75 496.445,-151.301 503.428,-148.5 526.612,-139.198 551.131,-123.459 565.505,-113.542"/>
<polygon fill="midnightblue" stroke="midnightblue" points="480.375,-152.535 471.605,-158.479 482.168,-159.301 480.375,-152.535"/>
</g>
<!-- Node13 -->
<g id="node14" class="node"><title>Node13</title>
<polygon fill="white" stroke="#bfbfbf" points="339.63,-111.5 339.63,-139.5 503.428,-139.5 503.428,-111.5 339.63,-111.5"/>
<text text-anchor="start" x="347.63" y="-127.5" font-family="Helvetica,sans-Serif" font-size="10.00">OCRA_FUNCTION_INTERFACE</text>
<text text-anchor="middle" x="421.529" y="-117.5" font-family="Helvetica,sans-Serif" font-size="10.00">_INHERITANCEpublic</text>
</g>
<!-- Node13&#45;&gt;Node2 -->
<g id="edge13" class="edge"><title>Node13&#45;&gt;Node2</title>
<path fill="none" stroke="#8b1a1a" d="M513.634,-113.203C522.535,-112.001 531.196,-110.832 539.133,-109.761"/>
<polygon fill="#8b1a1a" stroke="#8b1a1a" points="512.951,-109.763 503.509,-114.569 513.888,-116.7 512.951,-109.763"/>
</g>
<!-- Node14 -->
<g id="node15" class="node"><title>Node14</title>
<g id="a_node15"><a xlink:href="../../db/de3/classocra_1_1NamedInstance.html" target="_top" xlink:title="ocra::NamedInstance">
<polygon fill="white" stroke="black" points="366.004,-74.5 366.004,-92.5 477.053,-92.5 477.053,-74.5 366.004,-74.5"/>
<text text-anchor="middle" x="421.529" y="-80.5" font-family="Helvetica,sans-Serif" font-size="10.00">ocra::NamedInstance</text>
</a>
</g>
</g>
<!-- Node14&#45;&gt;Node2 -->
<g id="edge14" class="edge"><title>Node14&#45;&gt;Node2</title>
<path fill="none" stroke="midnightblue" d="M487.616,-92.2854C505.224,-94.662 523.724,-97.1591 539.375,-99.2717"/>
<polygon fill="midnightblue" stroke="midnightblue" points="487.759,-88.773 477.381,-90.9038 486.823,-95.7101 487.759,-88.773"/>
</g>
<!-- Node15 -->
<g id="node16" class="node"><title>Node15</title>
<g id="a_node16"><a xlink:href="../../d8/d24/classocra_1_1AbilitySet.html" target="_top" xlink:title="ocra::AbilitySet">
<polygon fill="white" stroke="black" points="380.182,-37.5 380.182,-55.5 462.876,-55.5 462.876,-37.5 380.182,-37.5"/>
<text text-anchor="middle" x="421.529" y="-43.5" font-family="Helvetica,sans-Serif" font-size="10.00">ocra::AbilitySet</text>
</a>
</g>
</g>
<!-- Node15&#45;&gt;Node2 -->
<g id="edge15" class="edge"><title>Node15&#45;&gt;Node2</title>
<path fill="none" stroke="midnightblue" d="M473.099,-55.5205C483.289,-57.9579 493.816,-60.9334 503.428,-64.5 525.629,-72.7383 549.444,-86.4353 564.061,-95.4665"/>
<polygon fill="midnightblue" stroke="midnightblue" points="473.593,-52.0442 463.068,-53.2607 472.054,-58.8731 473.593,-52.0442"/>
</g>
<!-- Node16 -->
<g id="node17" class="node"><title>Node16</title>
<g id="a_node17"><a xlink:href="../../d5/dc0/classocra_1_1CoupledInputOutputSize.html" target="_top" xlink:title="ocra::CoupledInputOutputSize">
<polygon fill="white" stroke="black" points="346.542,-0.5 346.542,-18.5 496.516,-18.5 496.516,-0.5 346.542,-0.5"/>
<text text-anchor="middle" x="421.529" y="-6.5" font-family="Helvetica,sans-Serif" font-size="10.00">ocra::CoupledInputOutputSize</text>
</a>
</g>
</g>
<!-- Node16&#45;&gt;Node2 -->
<g id="edge16" class="edge"><title>Node16&#45;&gt;Node2</title>
<path fill="none" stroke="midnightblue" d="M491.855,-22.0148C495.864,-23.6267 499.754,-25.4462 503.428,-27.5 534.474,-44.8583 560.766,-79.1773 572.115,-95.4858"/>
<polygon fill="midnightblue" stroke="midnightblue" points="492.924,-18.6802 482.329,-18.6179 490.573,-25.2735 492.924,-18.6802"/>
</g>
</g>
</svg>
