<?xml version="1.0" encoding="UTF-8" standalone="no"?>
<!DOCTYPE svg PUBLIC "-//W3C//DTD SVG 1.1//EN"
 "http://www.w3.org/Graphics/SVG/1.1/DTD/svg11.dtd">
<!-- Generated by graphviz version 2.38.0 (20140413.2041)
 -->
<!-- Title: ocra::DoubleDiagonalLinearFunction Pages: 1 -->
<svg width="1255pt" height="446pt"
 viewBox="0.00 0.00 1255.34 446.00" xmlns="http://www.w3.org/2000/svg" xmlns:xlink="http://www.w3.org/1999/xlink">
<g id="graph0" class="graph" transform="scale(1 1) rotate(0) translate(4 442)">
<title>ocra::DoubleDiagonalLinearFunction</title>
<polygon fill="white" stroke="none" points="-4,4 -4,-442 1251.34,-442 1251.34,4 -4,4"/>
<!-- Node17 -->
<g id="node1" class="node"><title>Node17</title>
<polygon fill="#bfbfbf" stroke="black" points="1107.37,-0.5 1107.37,-28.5 1247.34,-28.5 1247.34,-0.5 1107.37,-0.5"/>
<text text-anchor="start" x="1115.37" y="-16.5" font-family="Helvetica,sans-Serif" font-size="10.00">ocra::DoubleDiagonalLinear</text>
<text text-anchor="middle" x="1177.36" y="-6.5" font-family="Helvetica,sans-Serif" font-size="10.00">Function</text>
</g>
<!-- Node18 -->
<g id="node2" class="node"><title>Node18</title>
<g id="a_node2"><a xlink:href="../../de/d3a/classocra_1_1LinearFunction.html" target="_top" xlink:title="LinearFunction class. ">
<polygon fill="white" stroke="black" points="963.21,-34.5 963.21,-52.5 1070.37,-52.5 1070.37,-34.5 963.21,-34.5"/>
<text text-anchor="middle" x="1016.79" y="-40.5" font-family="Helvetica,sans-Serif" font-size="10.00">ocra::LinearFunction</text>
</a>
</g>
</g>
<!-- Node18&#45;&gt;Node17 -->
<g id="edge1" class="edge"><title>Node18&#45;&gt;Node17</title>
<path fill="none" stroke="midnightblue" d="M1077.15,-32.6438C1086.98,-30.8461 1097.25,-28.9684 1107.29,-27.1315"/>
<polygon fill="midnightblue" stroke="midnightblue" points="1076.3,-29.2412 1067.09,-34.4832 1077.56,-36.1269 1076.3,-29.2412"/>
</g>
<!-- Node19 -->
<g id="node3" class="node"><title>Node19</title>
<g id="a_node3"><a xlink:href="../../d2/d99/classocra_1_1Function.html" target="_top" xlink:title="Function class. ">
<polygon fill="white" stroke="black" points="828.383,-170.5 828.383,-188.5 907.747,-188.5 907.747,-170.5 828.383,-170.5"/>
<text text-anchor="middle" x="868.065" y="-176.5" font-family="Helvetica,sans-Serif" font-size="10.00">ocra::Function</text>
</a>
</g>
</g>
<!-- Node19&#45;&gt;Node18 -->
<g id="edge2" class="edge"><title>Node19&#45;&gt;Node18</title>
<path fill="none" stroke="midnightblue" d="M886.664,-163.187C917.806,-134.322 981.634,-75.16 1006.02,-52.5551"/>
<polygon fill="midnightblue" stroke="midnightblue" points="884.105,-160.787 879.15,-170.152 888.863,-165.921 884.105,-160.787"/>
</g>
<!-- Node20 -->
<g id="node4" class="node"><title>Node20</title>
<g id="a_node4"><a xlink:href="../../d3/d16/classocra_1_1ObserverSubject.html" target="_top" xlink:title="ocra::ObserverSubject">
<polygon fill="white" stroke="black" points="386.068,-275.5 386.068,-293.5 501.556,-293.5 501.556,-275.5 386.068,-275.5"/>
<text text-anchor="middle" x="443.812" y="-281.5" font-family="Helvetica,sans-Serif" font-size="10.00">ocra::ObserverSubject</text>
</a>
</g>
</g>
<!-- Node20&#45;&gt;Node19 -->
<g id="edge3" class="edge"><title>Node20&#45;&gt;Node19</title>
<path fill="none" stroke="midnightblue" d="M511.916,-287.384C574.158,-288.153 668.671,-284.428 746.792,-260.5 793.73,-246.123 838.945,-206.651 857.828,-188.656"/>
<polygon fill="midnightblue" stroke="midnightblue" points="511.886,-283.883 501.83,-287.216 511.77,-290.882 511.886,-283.883"/>
</g>
<!-- Node36 -->
<g id="node20" class="node"><title>Node36</title>
<g id="a_node20"><a xlink:href="../../d2/dac/classocra_1_1Variable.html" target="_top" xlink:title="This class represents a variable in a mathematical sense. ">
<polygon fill="white" stroke="black" points="626.412,-315.5 626.412,-333.5 703.374,-333.5 703.374,-315.5 626.412,-315.5"/>
<text text-anchor="middle" x="664.893" y="-321.5" font-family="Helvetica,sans-Serif" font-size="10.00">ocra::Variable</text>
</a>
</g>
</g>
<!-- Node20&#45;&gt;Node36 -->
<g id="edge21" class="edge"><title>Node20&#45;&gt;Node36</title>
<path fill="none" stroke="midnightblue" d="M504.39,-295.378C543.234,-302.47 592.746,-311.51 626.224,-317.622"/>
<polygon fill="midnightblue" stroke="midnightblue" points="504.717,-291.88 494.251,-293.527 503.46,-298.766 504.717,-291.88"/>
</g>
<!-- Node21 -->
<g id="node5" class="node"><title>Node21</title>
<g id="a_node5"><a xlink:href="../../d2/d45/classocra_1_1Observer.html" target="_top" xlink:title="ocra::Observer">
<polygon fill="white" stroke="black" points="222.497,-343.5 222.497,-361.5 304.63,-361.5 304.63,-343.5 222.497,-343.5"/>
<text text-anchor="middle" x="263.563" y="-349.5" font-family="Helvetica,sans-Serif" font-size="10.00">ocra::Observer</text>
</a>
</g>
</g>
<!-- Node21&#45;&gt;Node20 -->
<g id="edge4" class="edge"><title>Node21&#45;&gt;Node20</title>
<path fill="none" stroke="midnightblue" d="M284.539,-337.224C299.495,-326.514 320.869,-312.698 341.63,-304.5 355.537,-299.008 371.136,-294.971 385.844,-292.024"/>
<polygon fill="midnightblue" stroke="midnightblue" points="282.103,-334.67 276.118,-343.413 286.249,-340.311 282.103,-334.67"/>
</g>
<!-- Node22 -->
<g id="node6" class="node"><title>Node22</title>
<g id="a_node6"><a xlink:href="../../d4/dee/classocra_1_1ObserverBase.html" target="_top" xlink:title="ocra::ObserverBase\l\&lt; EVT_RESIZE \&gt;">
<polygon fill="white" stroke="black" points="40.2856,-409.5 40.2856,-437.5 145.211,-437.5 145.211,-409.5 40.2856,-409.5"/>
<text text-anchor="start" x="48.2856" y="-425.5" font-family="Helvetica,sans-Serif" font-size="10.00">ocra::ObserverBase</text>
<text text-anchor="middle" x="92.7485" y="-415.5" font-family="Helvetica,sans-Serif" font-size="10.00">&lt; EVT_RESIZE &gt;</text>
</a>
</g>
</g>
<!-- Node22&#45;&gt;Node21 -->
<g id="edge5" class="edge"><title>Node22&#45;&gt;Node21</title>
<path fill="none" stroke="midnightblue" d="M155.334,-410.047C165.579,-407.058 175.966,-403.549 185.497,-399.5 209.873,-389.144 235.651,-371.978 250.357,-361.507"/>
<polygon fill="midnightblue" stroke="midnightblue" points="154.285,-406.705 145.586,-412.754 156.158,-413.45 154.285,-406.705"/>
</g>
<!-- Node23 -->
<g id="node7" class="node"><title>Node23</title>
<g id="a_node7"><a xlink:href="../../d4/dee/classocra_1_1ObserverBase.html" target="_top" xlink:title="ocra::ObserverBase\l\&lt; EVT_CHANGE_DEPENDENCIES \&gt;">
<polygon fill="white" stroke="black" points="0,-362.5 0,-390.5 185.497,-390.5 185.497,-362.5 0,-362.5"/>
<text text-anchor="start" x="8" y="-378.5" font-family="Helvetica,sans-Serif" font-size="10.00">ocra::ObserverBase</text>
<text text-anchor="middle" x="92.7485" y="-368.5" font-family="Helvetica,sans-Serif" font-size="10.00">&lt; EVT_CHANGE_DEPENDENCIES &gt;</text>
</a>
</g>
</g>
<!-- Node23&#45;&gt;Node21 -->
<g id="edge6" class="edge"><title>Node23&#45;&gt;Node21</title>
<path fill="none" stroke="midnightblue" d="M195.725,-362.002C205,-360.684 213.979,-359.407 222.187,-358.24"/>
<polygon fill="midnightblue" stroke="midnightblue" points="194.974,-358.574 185.566,-363.447 195.959,-365.504 194.974,-358.574"/>
</g>
<!-- Node24 -->
<g id="node8" class="node"><title>Node24</title>
<g id="a_node8"><a xlink:href="../../d4/dee/classocra_1_1ObserverBase.html" target="_top" xlink:title="ocra::ObserverBase\l\&lt; EVT_CHANGE_VALUE \&gt;">
<polygon fill="white" stroke="black" points="23.4253,-315.5 23.4253,-343.5 162.072,-343.5 162.072,-315.5 23.4253,-315.5"/>
<text text-anchor="start" x="31.4253" y="-331.5" font-family="Helvetica,sans-Serif" font-size="10.00">ocra::ObserverBase</text>
<text text-anchor="middle" x="92.7485" y="-321.5" font-family="Helvetica,sans-Serif" font-size="10.00">&lt; EVT_CHANGE_VALUE &gt;</text>
</a>
</g>
</g>
<!-- Node24&#45;&gt;Node21 -->
<g id="edge7" class="edge"><title>Node24&#45;&gt;Node21</title>
<path fill="none" stroke="midnightblue" d="M172.466,-340.225C189.64,-342.565 207.13,-344.948 222.074,-346.984"/>
<polygon fill="midnightblue" stroke="midnightblue" points="172.793,-336.737 162.412,-338.855 171.848,-343.673 172.793,-336.737"/>
</g>
<!-- Node25 -->
<g id="node9" class="node"><title>Node25</title>
<g id="a_node9"><a xlink:href="../../dc/d77/classocra_1_1Subject.html" target="_top" xlink:title="ocra::Subject">
<polygon fill="white" stroke="black" points="226.381,-246.5 226.381,-264.5 300.746,-264.5 300.746,-246.5 226.381,-246.5"/>
<text text-anchor="middle" x="263.563" y="-252.5" font-family="Helvetica,sans-Serif" font-size="10.00">ocra::Subject</text>
</a>
</g>
</g>
<!-- Node25&#45;&gt;Node20 -->
<g id="edge8" class="edge"><title>Node25&#45;&gt;Node20</title>
<path fill="none" stroke="midnightblue" d="M311.07,-263.066C334.43,-266.867 362.898,-271.499 387.386,-275.483"/>
<polygon fill="midnightblue" stroke="midnightblue" points="311.497,-259.59 301.065,-261.439 310.373,-266.499 311.497,-259.59"/>
</g>
<!-- Node26 -->
<g id="node10" class="node"><title>Node26</title>
<g id="a_node10"><a xlink:href="../../dc/d29/classocra_1_1SubjectBase.html" target="_top" xlink:title="ocra::SubjectBase\&lt;\l EVT_RESIZE \&gt;">
<polygon fill="white" stroke="black" points="41.25,-268.5 41.25,-296.5 144.247,-296.5 144.247,-268.5 41.25,-268.5"/>
<text text-anchor="start" x="49.25" y="-284.5" font-family="Helvetica,sans-Serif" font-size="10.00">ocra::SubjectBase&lt;</text>
<text text-anchor="middle" x="92.7485" y="-274.5" font-family="Helvetica,sans-Serif" font-size="10.00"> EVT_RESIZE &gt;</text>
</a>
</g>
</g>
<!-- Node26&#45;&gt;Node25 -->
<g id="edge9" class="edge"><title>Node26&#45;&gt;Node25</title>
<path fill="none" stroke="midnightblue" d="M154.489,-272.785C178.489,-268.947 205.266,-264.664 226.162,-261.322"/>
<polygon fill="midnightblue" stroke="midnightblue" points="153.72,-269.364 144.399,-274.399 154.826,-276.276 153.72,-269.364"/>
</g>
<!-- Node27 -->
<g id="node11" class="node"><title>Node27</title>
<g id="a_node11"><a xlink:href="../../dc/d29/classocra_1_1SubjectBase.html" target="_top" xlink:title="ocra::SubjectBase\&lt;\l EVT_CHANGE_DEPENDENCIES \&gt;">
<polygon fill="white" stroke="black" points="2.91992,-221.5 2.91992,-249.5 182.577,-249.5 182.577,-221.5 2.91992,-221.5"/>
<text text-anchor="start" x="10.9199" y="-237.5" font-family="Helvetica,sans-Serif" font-size="10.00">ocra::SubjectBase&lt;</text>
<text text-anchor="middle" x="92.7485" y="-227.5" font-family="Helvetica,sans-Serif" font-size="10.00"> EVT_CHANGE_DEPENDENCIES &gt;</text>
</a>
</g>
</g>
<!-- Node27&#45;&gt;Node25 -->
<g id="edge10" class="edge"><title>Node27&#45;&gt;Node25</title>
<path fill="none" stroke="midnightblue" d="M192.668,-247.219C204.562,-248.628 216.06,-249.991 226.178,-251.189"/>
<polygon fill="midnightblue" stroke="midnightblue" points="192.948,-243.728 182.605,-246.027 192.124,-250.679 192.948,-243.728"/>
</g>
<!-- Node28 -->
<g id="node12" class="node"><title>Node28</title>
<g id="a_node12"><a xlink:href="../../dc/d29/classocra_1_1SubjectBase.html" target="_top" xlink:title="ocra::SubjectBase\&lt;\l EVT_CHANGE_VALUE \&gt;">
<polygon fill="white" stroke="black" points="26.3452,-174.5 26.3452,-202.5 159.152,-202.5 159.152,-174.5 26.3452,-174.5"/>
<text text-anchor="start" x="34.3452" y="-190.5" font-family="Helvetica,sans-Serif" font-size="10.00">ocra::SubjectBase&lt;</text>
<text text-anchor="middle" x="92.7485" y="-180.5" font-family="Helvetica,sans-Serif" font-size="10.00"> EVT_CHANGE_VALUE &gt;</text>
</a>
</g>
</g>
<!-- Node28&#45;&gt;Node25 -->
<g id="edge11" class="edge"><title>Node28&#45;&gt;Node25</title>
<path fill="none" stroke="midnightblue" d="M168.784,-205.498C174.5,-207.342 180.129,-209.342 185.497,-211.5 209.084,-220.981 234.281,-236.519 249.214,-246.367"/>
<polygon fill="midnightblue" stroke="midnightblue" points="169.7,-202.119 159.114,-202.542 167.653,-208.813 169.7,-202.119"/>
</g>
<!-- Node29 -->
<g id="node13" class="node"><title>Node29</title>
<g id="a_node13"><a xlink:href="../../dd/d68/classocra_1_1IFunctionProperties.html" target="_top" xlink:title="ocra::IFunctionProperties">
<polygon fill="white" stroke="black" points="601.034,-233.5 601.034,-251.5 728.752,-251.5 728.752,-233.5 601.034,-233.5"/>
<text text-anchor="middle" x="664.893" y="-239.5" font-family="Helvetica,sans-Serif" font-size="10.00">ocra::IFunctionProperties</text>
</a>
</g>
</g>
<!-- Node29&#45;&gt;Node19 -->
<g id="edge12" class="edge"><title>Node29&#45;&gt;Node19</title>
<path fill="none" stroke="midnightblue" d="M717.623,-231.069C727.353,-228.716 737.414,-226.144 746.792,-223.5 775.439,-215.423 782.446,-212.768 810.383,-202.5 822.145,-198.177 835.107,-192.952 845.663,-188.576"/>
<polygon fill="midnightblue" stroke="midnightblue" points="716.567,-227.722 707.645,-233.436 718.183,-234.533 716.567,-227.722"/>
</g>
<!-- Node30 -->
<g id="node14" class="node"><title>Node30</title>
<polygon fill="white" stroke="#bfbfbf" points="582.994,-186.5 582.994,-214.5 746.792,-214.5 746.792,-186.5 582.994,-186.5"/>
<text text-anchor="start" x="590.994" y="-202.5" font-family="Helvetica,sans-Serif" font-size="10.00">OCRA_FUNCTION_INTERFACE</text>
<text text-anchor="middle" x="664.893" y="-192.5" font-family="Helvetica,sans-Serif" font-size="10.00">_INHERITANCEpublic</text>
</g>
<!-- Node30&#45;&gt;Node19 -->
<g id="edge13" class="edge"><title>Node30&#45;&gt;Node19</title>
<path fill="none" stroke="#8b1a1a" d="M757.118,-190.977C782.113,-188.368 807.885,-185.678 828.189,-183.558"/>
<polygon fill="#8b1a1a" stroke="#8b1a1a" points="756.43,-187.53 746.848,-192.049 757.157,-194.492 756.43,-187.53"/>
</g>
<!-- Node31 -->
<g id="node15" class="node"><title>Node31</title>
<g id="a_node15"><a xlink:href="../../db/de3/classocra_1_1NamedInstance.html" target="_top" xlink:title="ocra::NamedInstance">
<polygon fill="white" stroke="black" points="609.369,-149.5 609.369,-167.5 720.417,-167.5 720.417,-149.5 609.369,-149.5"/>
<text text-anchor="middle" x="664.893" y="-155.5" font-family="Helvetica,sans-Serif" font-size="10.00">ocra::NamedInstance</text>
</a>
</g>
</g>
<!-- Node31&#45;&gt;Node19 -->
<g id="edge14" class="edge"><title>Node31&#45;&gt;Node19</title>
<path fill="none" stroke="midnightblue" d="M730.822,-165.278C762.976,-168.634 800.714,-172.574 828.309,-175.454"/>
<polygon fill="midnightblue" stroke="midnightblue" points="730.908,-161.768 720.598,-164.211 730.181,-168.73 730.908,-161.768"/>
</g>
<!-- Node32 -->
<g id="node16" class="node"><title>Node32</title>
<g id="a_node16"><a xlink:href="../../d8/d24/classocra_1_1AbilitySet.html" target="_top" xlink:title="ocra::AbilitySet">
<polygon fill="white" stroke="black" points="623.546,-112.5 623.546,-130.5 706.24,-130.5 706.24,-112.5 623.546,-112.5"/>
<text text-anchor="middle" x="664.893" y="-118.5" font-family="Helvetica,sans-Serif" font-size="10.00">ocra::AbilitySet</text>
</a>
</g>
</g>
<!-- Node32&#45;&gt;Node19 -->
<g id="edge15" class="edge"><title>Node32&#45;&gt;Node19</title>
<path fill="none" stroke="midnightblue" d="M716.366,-131.895C726.489,-134.214 737.016,-136.794 746.792,-139.5 780.301,-148.774 818.261,-161.837 842.415,-170.48"/>
<polygon fill="midnightblue" stroke="midnightblue" points="716.943,-128.437 706.42,-129.668 715.414,-135.268 716.943,-128.437"/>
</g>
<!-- Node33 -->
<g id="node17" class="node"><title>Node33</title>
<g id="a_node17"><a xlink:href="../../d5/dc0/classocra_1_1CoupledInputOutputSize.html" target="_top" xlink:title="ocra::CoupledInputOutputSize">
<polygon fill="white" stroke="black" points="589.906,-75.5 589.906,-93.5 739.88,-93.5 739.88,-75.5 589.906,-75.5"/>
<text text-anchor="middle" x="664.893" y="-81.5" font-family="Helvetica,sans-Serif" font-size="10.00">ocra::CoupledInputOutputSize</text>
</a>
</g>
</g>
<!-- Node33&#45;&gt;Node19 -->
<g id="edge16" class="edge"><title>Node33&#45;&gt;Node19</title>
<path fill="none" stroke="midnightblue" d="M728.384,-96.2054C734.691,-98.0378 740.928,-100.127 746.792,-102.5 790.459,-120.171 835.559,-154.027 855.912,-170.309"/>
<polygon fill="midnightblue" stroke="midnightblue" points="729.022,-92.7528 718.456,-93.5332 727.203,-99.5122 729.022,-92.7528"/>
</g>
<!-- Node34 -->
<g id="node18" class="node"><title>Node34</title>
<polygon fill="white" stroke="#bfbfbf" points="636.6,-34.5 636.6,-52.5 693.186,-52.5 693.186,-34.5 636.6,-34.5"/>
<text text-anchor="middle" x="664.893" y="-40.5" font-family="Helvetica,sans-Serif" font-size="10.00">VectorXd</text>
</g>
<!-- Node34&#45;&gt;Node17 -->
<g id="edge25" class="edge"><title>Node34&#45;&gt;Node17</title>
<path fill="none" stroke="#9a32cd" stroke-dasharray="5,2" d="M703.658,-39.1504C754.172,-33.5299 846.565,-23.9407 925.747,-19.5 987.01,-16.0642 1056.81,-14.8964 1107.16,-14.5405"/>
<polygon fill="#9a32cd" stroke="#9a32cd" points="703.081,-35.693 693.534,-40.2862 703.862,-42.6494 703.081,-35.693"/>
<text text-anchor="middle" x="935.479" y="-31.5" font-family="Helvetica,sans-Serif" font-size="10.00"> _d1</text>
<text text-anchor="middle" x="935.479" y="-21.5" font-family="Helvetica,sans-Serif" font-size="10.00">_d2</text>
</g>
<!-- Node34&#45;&gt;Node18 -->
<g id="edge24" class="edge"><title>Node34&#45;&gt;Node18</title>
<path fill="none" stroke="#9a32cd" stroke-dasharray="5,2" d="M703.555,-43.5C766.136,-43.5 891.701,-43.5 963.059,-43.5"/>
<polygon fill="#9a32cd" stroke="#9a32cd" points="703.349,-40.0001 693.349,-43.5 703.349,-47.0001 703.349,-40.0001"/>
<text text-anchor="middle" x="868.065" y="-45.5" font-family="Helvetica,sans-Serif" font-size="10.00"> _b</text>
</g>
<!-- Node34&#45;&gt;Node19 -->
<g id="edge17" class="edge"><title>Node34&#45;&gt;Node19</title>
<path fill="none" stroke="#9a32cd" stroke-dasharray="5,2" d="M703.529,-50.1976C735.142,-57.4676 779.91,-71.803 810.383,-98.5 834.912,-119.99 854.253,-154.199 862.596,-170.41"/>
<polygon fill="#9a32cd" stroke="#9a32cd" points="703.866,-46.6896 693.352,-47.9953 702.386,-53.5312 703.866,-46.6896"/>
<text text-anchor="middle" x="787.587" y="-100.5" font-family="Helvetica,sans-Serif" font-size="10.00"> _value</text>
</g>
<!-- Node35 -->
<g id="node19" class="node"><title>Node35</title>
<polygon fill="white" stroke="#bfbfbf" points="637.167,-352.5 637.167,-370.5 692.62,-370.5 692.62,-352.5 637.167,-352.5"/>
<text text-anchor="middle" x="664.893" y="-358.5" font-family="Helvetica,sans-Serif" font-size="10.00">MatrixXd</text>
</g>
<!-- Node35&#45;&gt;Node19 -->
<g id="edge18" class="edge"><title>Node35&#45;&gt;Node19</title>
<path fill="none" stroke="#9a32cd" stroke-dasharray="5,2" d="M702.978,-362.62C735.019,-361.616 780.719,-355.19 810.383,-329.5 854.576,-291.228 864.407,-214.809 866.513,-188.582"/>
<polygon fill="#9a32cd" stroke="#9a32cd" points="702.625,-359.125 692.678,-362.773 702.728,-366.124 702.625,-359.125"/>
<text text-anchor="middle" x="787.587" y="-355.5" font-family="Helvetica,sans-Serif" font-size="10.00"> _jacobian</text>
</g>
<!-- Node36&#45;&gt;Node19 -->
<g id="edge19" class="edge"><title>Node36&#45;&gt;Node19</title>
<path fill="none" stroke="#9a32cd" stroke-dasharray="5,2" d="M713.436,-324.543C743.963,-322.278 782.894,-314.85 810.383,-293.5 845.819,-265.977 860.697,-210.421 865.339,-188.596"/>
<polygon fill="#9a32cd" stroke="#9a32cd" points="713.213,-321.05 703.434,-325.126 713.621,-328.038 713.213,-321.05"/>
<text text-anchor="middle" x="787.587" y="-317.5" font-family="Helvetica,sans-Serif" font-size="10.00"> x</text>
</g>
<!-- Node37 -->
<g id="node21" class="node"><title>Node37</title>
<g id="a_node21"><a xlink:href="../../d0/d29/classocra_1_1Component.html" target="_top" xlink:title="ocra::Component\&lt; Variable,\l CompositeVariable, VariableParenthood \&gt;">
<polygon fill="white" stroke="black" points="341.63,-398.5 341.63,-426.5 545.994,-426.5 545.994,-398.5 341.63,-398.5"/>
<text text-anchor="start" x="349.63" y="-414.5" font-family="Helvetica,sans-Serif" font-size="10.00">ocra::Component&lt; Variable,</text>
<text text-anchor="middle" x="443.812" y="-404.5" font-family="Helvetica,sans-Serif" font-size="10.00"> CompositeVariable, VariableParenthood &gt;</text>
</a>
</g>
</g>
<!-- Node37&#45;&gt;Node36 -->
<g id="edge20" class="edge"><title>Node37&#45;&gt;Node36</title>
<path fill="none" stroke="midnightblue" d="M535.389,-394.352C539.06,-392.58 542.613,-390.635 545.994,-388.5 568.18,-374.493 560.711,-356.352 582.994,-342.5 595.825,-334.524 611.74,-330.063 626.051,-327.575"/>
<polygon fill="midnightblue" stroke="midnightblue" points="533.83,-391.213 526.055,-398.41 536.621,-397.632 533.83,-391.213"/>
</g>
<!-- Node38 -->
<g id="node22" class="node"><title>Node38</title>
<polygon fill="white" stroke="#bfbfbf" points="407.455,-361.5 407.455,-379.5 480.169,-379.5 480.169,-361.5 407.455,-361.5"/>
<text text-anchor="middle" x="443.812" y="-367.5" font-family="Helvetica,sans-Serif" font-size="10.00">noncopyable</text>
</g>
<!-- Node38&#45;&gt;Node36 -->
<g id="edge22" class="edge"><title>Node38&#45;&gt;Node36</title>
<path fill="none" stroke="#8b1a1a" d="M490.42,-362.466C507.849,-359.257 527.883,-355.4 545.994,-351.5 562.539,-347.937 566.511,-346.338 582.994,-342.5 597.148,-339.204 612.726,-335.707 626.401,-332.681"/>
<polygon fill="#8b1a1a" stroke="#8b1a1a" points="489.703,-359.039 480.493,-364.276 490.958,-365.926 489.703,-359.039"/>
</g>
<!-- Node39 -->
<g id="node23" class="node"><title>Node39</title>
<g id="a_node23"><a xlink:href="../../dc/d20/classocra_1_1VariableHasRestrictedClassDerivation.html" target="_top" xlink:title="ocra::VariableHasRestricted\lClassDerivation">
<polygon fill="white" stroke="black" points="373.932,-314.5 373.932,-342.5 513.692,-342.5 513.692,-314.5 373.932,-314.5"/>
<text text-anchor="start" x="381.932" y="-330.5" font-family="Helvetica,sans-Serif" font-size="10.00">ocra::VariableHasRestricted</text>
<text text-anchor="middle" x="443.812" y="-320.5" font-family="Helvetica,sans-Serif" font-size="10.00">ClassDerivation</text>
</a>
</g>
</g>
<!-- Node39&#45;&gt;Node36 -->
<g id="edge23" class="edge"><title>Node39&#45;&gt;Node36</title>
<path fill="none" stroke="#8b1a1a" d="M523.996,-327.054C558.816,-326.419 598.079,-325.702 626.126,-325.19"/>
<polygon fill="#8b1a1a" stroke="#8b1a1a" points="523.764,-323.558 513.83,-327.24 523.892,-330.557 523.764,-323.558"/>
</g>
</g>
</svg>
