<?xml version="1.0" encoding="UTF-8" standalone="no"?>
<!DOCTYPE svg PUBLIC "-//W3C//DTD SVG 1.1//EN"
 "http://www.w3.org/Graphics/SVG/1.1/DTD/svg11.dtd">
<!-- Generated by graphviz version 2.38.0 (20140413.2041)
 -->
<!-- Title: FullState.h Pages: 1 -->
<svg width="476pt" height="137pt"
 viewBox="0.00 0.00 475.90 137.00" xmlns="http://www.w3.org/2000/svg" xmlns:xlink="http://www.w3.org/1999/xlink">
<g id="graph0" class="graph" transform="scale(1 1) rotate(0) translate(4 133)">
<title>FullState.h</title>
<polygon fill="white" stroke="none" points="-4,4 -4,-133 471.903,-133 471.903,4 -4,4"/>
<!-- Node0 -->
<g id="node1" class="node"><title>Node0</title>
<polygon fill="#bfbfbf" stroke="black" points="226.02,-110.5 226.02,-128.5 289.822,-128.5 289.822,-110.5 226.02,-110.5"/>
<text text-anchor="middle" x="257.921" y="-116.5" font-family="Helvetica,sans-Serif" font-size="10.00">FullState.h</text>
</g>
<!-- Node1 -->
<g id="node2" class="node"><title>Node1</title>
<g id="a_node2"><a xlink:href="../../df/d97/NamedInstance_8h.html" target="_top" xlink:title="ocra/optim/NamedInstance.h">
<polygon fill="white" stroke="black" points="0,-55.5 0,-73.5 143.842,-73.5 143.842,-55.5 0,-55.5"/>
<text text-anchor="middle" x="71.9209" y="-61.5" font-family="Helvetica,sans-Serif" font-size="10.00">ocra/optim/NamedInstance.h</text>
</a>
</g>
</g>
<!-- Node0&#45;&gt;Node1 -->
<g id="edge1" class="edge"><title>Node0&#45;&gt;Node1</title>
<path fill="none" stroke="midnightblue" d="M229.672,-110.45C197.76,-101.357 145.657,-86.5108 110.131,-76.3879"/>
<polygon fill="midnightblue" stroke="midnightblue" points="110.707,-72.9127 100.131,-73.5383 108.789,-79.6448 110.707,-72.9127"/>
</g>
<!-- Node3 -->
<g id="node4" class="node"><title>Node3</title>
<g id="a_node4"><a xlink:href="../../df/d0a/Macros_8h.html" target="_top" xlink:title="ocra/util/Macros.h">
<polygon fill="white" stroke="black" points="161.463,-55.5 161.463,-73.5 256.379,-73.5 256.379,-55.5 161.463,-55.5"/>
<text text-anchor="middle" x="208.921" y="-61.5" font-family="Helvetica,sans-Serif" font-size="10.00">ocra/util/Macros.h</text>
</a>
</g>
</g>
<!-- Node0&#45;&gt;Node3 -->
<g id="edge3" class="edge"><title>Node0&#45;&gt;Node3</title>
<path fill="none" stroke="midnightblue" d="M250.265,-110.219C243.103,-102.473 232.22,-90.7013 223.417,-81.1799"/>
<polygon fill="midnightblue" stroke="midnightblue" points="225.721,-78.5163 216.363,-73.5496 220.582,-83.2683 225.721,-78.5163"/>
</g>
<!-- Node5 -->
<g id="node6" class="node"><title>Node5</title>
<polygon fill="white" stroke="#bfbfbf" points="273.906,-55.5 273.906,-73.5 339.936,-73.5 339.936,-55.5 273.906,-55.5"/>
<text text-anchor="middle" x="306.921" y="-61.5" font-family="Helvetica,sans-Serif" font-size="10.00">Eigen/Core</text>
</g>
<!-- Node0&#45;&gt;Node5 -->
<g id="edge5" class="edge"><title>Node0&#45;&gt;Node5</title>
<path fill="none" stroke="midnightblue" d="M265.577,-110.219C272.739,-102.473 283.622,-90.7013 292.424,-81.1799"/>
<polygon fill="midnightblue" stroke="midnightblue" points="295.26,-83.2683 299.479,-73.5496 290.12,-78.5163 295.26,-83.2683"/>
</g>
<!-- Node6 -->
<g id="node7" class="node"><title>Node6</title>
<polygon fill="white" stroke="#bfbfbf" points="357.938,-55.5 357.938,-73.5 467.903,-73.5 467.903,-55.5 357.938,-55.5"/>
<text text-anchor="middle" x="412.921" y="-61.5" font-family="Helvetica,sans-Serif" font-size="10.00">boost/shared_ptr.hpp</text>
</g>
<!-- Node0&#45;&gt;Node6 -->
<g id="edge6" class="edge"><title>Node0&#45;&gt;Node6</title>
<path fill="none" stroke="midnightblue" d="M281.462,-110.45C307.712,-101.475 350.359,-86.8922 379.929,-76.7813"/>
<polygon fill="midnightblue" stroke="midnightblue" points="381.083,-80.0856 389.413,-73.5383 378.818,-73.4621 381.083,-80.0856"/>
</g>
<!-- Node2 -->
<g id="node3" class="node"><title>Node2</title>
<polygon fill="white" stroke="#bfbfbf" points="51.6943,-0.5 51.6943,-18.5 92.1475,-18.5 92.1475,-0.5 51.6943,-0.5"/>
<text text-anchor="middle" x="71.9209" y="-6.5" font-family="Helvetica,sans-Serif" font-size="10.00">string</text>
</g>
<!-- Node1&#45;&gt;Node2 -->
<g id="edge2" class="edge"><title>Node1&#45;&gt;Node2</title>
<path fill="none" stroke="midnightblue" d="M71.9209,-55.2188C71.9209,-48.1769 71.9209,-37.8083 71.9209,-28.8277"/>
<polygon fill="midnightblue" stroke="midnightblue" points="75.421,-28.5495 71.9209,-18.5496 68.421,-28.5496 75.421,-28.5495"/>
</g>
<!-- Node4 -->
<g id="node5" class="node"><title>Node4</title>
<polygon fill="white" stroke="#bfbfbf" points="182.864,-0.5 182.864,-18.5 234.978,-18.5 234.978,-0.5 182.864,-0.5"/>
<text text-anchor="middle" x="208.921" y="-6.5" font-family="Helvetica,sans-Serif" font-size="10.00">memory</text>
</g>
<!-- Node3&#45;&gt;Node4 -->
<g id="edge4" class="edge"><title>Node3&#45;&gt;Node4</title>
<path fill="none" stroke="midnightblue" d="M208.921,-55.2188C208.921,-48.1769 208.921,-37.8083 208.921,-28.8277"/>
<polygon fill="midnightblue" stroke="midnightblue" points="212.421,-28.5495 208.921,-18.5496 205.421,-28.5496 212.421,-28.5495"/>
</g>
</g>
</svg>
