<?xml version="1.0" encoding="UTF-8" standalone="no"?>
<!DOCTYPE svg PUBLIC "-//W3C//DTD SVG 1.1//EN"
 "http://www.w3.org/Graphics/SVG/1.1/DTD/svg11.dtd">
<!-- Generated by graphviz version 2.38.0 (20140413.2041)
 -->
<!-- Title: main.cpp Pages: 1 -->
<svg width="3342pt" height="617pt"
 viewBox="0.00 0.00 3341.64 617.00" xmlns="http://www.w3.org/2000/svg" xmlns:xlink="http://www.w3.org/1999/xlink">
<g id="graph0" class="graph" transform="scale(1 1) rotate(0) translate(4 613)">
<title>main.cpp</title>
<polygon fill="white" stroke="none" points="-4,4 -4,-613 3337.64,-613 3337.64,4 -4,4"/>
<!-- Node0 -->
<g id="node1" class="node"><title>Node0</title>
<polygon fill="#bfbfbf" stroke="black" points="1271.92,-590.5 1271.92,-608.5 1328.5,-608.5 1328.5,-590.5 1271.92,-590.5"/>
<text text-anchor="middle" x="1300.21" y="-596.5" font-family="Helvetica,sans-Serif" font-size="10.00">main.cpp</text>
</g>
<!-- Node1 -->
<g id="node2" class="node"><title>Node1</title>
<polygon fill="white" stroke="#bfbfbf" points="652.035,-115.5 652.035,-133.5 706.38,-133.5 706.38,-115.5 652.035,-115.5"/>
<text text-anchor="middle" x="679.208" y="-121.5" font-family="Helvetica,sans-Serif" font-size="10.00">iostream</text>
</g>
<!-- Node0&#45;&gt;Node1 -->
<g id="edge1" class="edge"><title>Node0&#45;&gt;Node1</title>
<path fill="none" stroke="midnightblue" d="M1271.91,-598.788C1134.93,-599.934 540.066,-602.011 362.208,-554 303.193,-538.069 240.208,-551.627 240.208,-490.5 240.208,-490.5 240.208,-490.5 240.208,-428.5 240.208,-299.361 269.937,-238.812 382.208,-175 425.975,-150.124 572.012,-134.659 641.648,-128.526"/>
<polygon fill="midnightblue" stroke="midnightblue" points="642.082,-132.002 651.744,-127.655 641.48,-125.028 642.082,-132.002"/>
</g>
<!-- Node2 -->
<g id="node3" class="node"><title>Node2</title>
<polygon fill="white" stroke="#bfbfbf" points="760.481,-115.5 760.481,-133.5 795.934,-133.5 795.934,-115.5 760.481,-115.5"/>
<text text-anchor="middle" x="778.208" y="-121.5" font-family="Helvetica,sans-Serif" font-size="10.00">map</text>
</g>
<!-- Node0&#45;&gt;Node2 -->
<g id="edge2" class="edge"><title>Node0&#45;&gt;Node2</title>
<path fill="none" stroke="midnightblue" d="M1271.68,-595.881C1195.45,-587.493 984.157,-554.96 857.208,-444 832.813,-422.678 837.331,-408.622 824.208,-379 797.427,-318.55 808.601,-294.526 771.208,-240 757.68,-220.275 740.938,-225.849 731.208,-204 725.964,-192.226 726.43,-186.971 731.208,-175 736.753,-161.105 748.26,-148.876 758.5,-140.049"/>
<polygon fill="midnightblue" stroke="midnightblue" points="760.732,-142.745 766.302,-133.733 756.327,-137.305 760.732,-142.745"/>
</g>
<!-- Node3 -->
<g id="node4" class="node"><title>Node3</title>
<polygon fill="white" stroke="#bfbfbf" points="160.242,-55.5 160.242,-73.5 230.173,-73.5 230.173,-55.5 160.242,-55.5"/>
<text text-anchor="middle" x="195.208" y="-61.5" font-family="Helvetica,sans-Serif" font-size="10.00">Eigen/Eigen</text>
</g>
<!-- Node0&#45;&gt;Node3 -->
<g id="edge3" class="edge"><title>Node0&#45;&gt;Node3</title>
<path fill="none" stroke="midnightblue" d="M1271.89,-598.149C1115.78,-596.096 363.618,-584.67 265.208,-554 214.585,-538.223 164.208,-543.524 164.208,-490.5 164.208,-490.5 164.208,-490.5 164.208,-188.5 164.208,-149.924 178.722,-106.549 187.888,-83.0054"/>
<polygon fill="midnightblue" stroke="midnightblue" points="191.158,-84.2551 191.651,-73.6717 184.666,-81.6373 191.158,-84.2551"/>
</g>
<!-- Node4 -->
<g id="node5" class="node"><title>Node4</title>
<g id="a_node5"><a xlink:href="../../d0/de5/Model3T_8h.html" target="_top" xlink:title="Model3T.h">
<polygon fill="white" stroke="black" points="1849.14,-360.5 1849.14,-378.5 1911.28,-378.5 1911.28,-360.5 1849.14,-360.5"/>
<text text-anchor="middle" x="1880.21" y="-366.5" font-family="Helvetica,sans-Serif" font-size="10.00">Model3T.h</text>
</a>
</g>
</g>
<!-- Node0&#45;&gt;Node4 -->
<g id="edge4" class="edge"><title>Node0&#45;&gt;Node4</title>
<path fill="none" stroke="midnightblue" d="M1328.6,-596.901C1427.85,-590.767 1757.49,-565.655 1835.21,-499 1868.17,-470.733 1877,-416.871 1879.35,-388.699"/>
<polygon fill="midnightblue" stroke="midnightblue" points="1882.85,-388.857 1880.01,-378.651 1875.87,-388.404 1882.85,-388.857"/>
</g>
<!-- Node38 -->
<g id="node20" class="node"><title>Node38</title>
<g id="a_node20"><a xlink:href="../../d0/d09/OrthonormalFamily_8h.html" target="_top" xlink:title="gocra/OrthonormalFamily.h">
<polygon fill="white" stroke="black" points="0,-480.5 0,-498.5 136.415,-498.5 136.415,-480.5 0,-480.5"/>
<text text-anchor="middle" x="68.2075" y="-486.5" font-family="Helvetica,sans-Serif" font-size="10.00">gocra/OrthonormalFamily.h</text>
</a>
</g>
</g>
<!-- Node0&#45;&gt;Node38 -->
<g id="edge25" class="edge"><title>Node0&#45;&gt;Node38</title>
<path fill="none" stroke="midnightblue" d="M1271.74,-598.436C1104.99,-597.921 258.469,-593.372 150.208,-554 122.829,-544.043 97.3034,-521.307 82.2247,-505.923"/>
<polygon fill="midnightblue" stroke="midnightblue" points="84.7561,-503.506 75.3373,-498.654 79.675,-508.32 84.7561,-503.506"/>
</g>
<!-- Node39 -->
<g id="node21" class="node"><title>Node39</title>
<g id="a_node21"><a xlink:href="../../d9/de9/GHCJTController_8h.html" target="_top" xlink:title="Define the Generalized Hierarchical Controller based on Jacobian transpose (GHCJT) in quasi&#45;static ca...">
<polygon fill="white" stroke="black" points="1236.07,-535.5 1236.07,-553.5 1364.34,-553.5 1364.34,-535.5 1236.07,-535.5"/>
<text text-anchor="middle" x="1300.21" y="-541.5" font-family="Helvetica,sans-Serif" font-size="10.00">gocra/GHCJTController.h</text>
</a>
</g>
</g>
<!-- Node0&#45;&gt;Node39 -->
<g id="edge27" class="edge"><title>Node0&#45;&gt;Node39</title>
<path fill="none" stroke="midnightblue" d="M1300.21,-590.219C1300.21,-583.177 1300.21,-572.808 1300.21,-563.828"/>
<polygon fill="midnightblue" stroke="midnightblue" points="1303.71,-563.55 1300.21,-553.55 1296.71,-563.55 1303.71,-563.55"/>
</g>
<!-- Node45 -->
<g id="node27" class="node"><title>Node45</title>
<g id="a_node27"><a xlink:href="../../dc/d2f/Feature_8h.html" target="_top" xlink:title="A class hierarchy to compute task errors based on control frames. ">
<polygon fill="white" stroke="black" points="2595.29,-300.5 2595.29,-318.5 2709.12,-318.5 2709.12,-300.5 2595.29,-300.5"/>
<text text-anchor="middle" x="2652.21" y="-306.5" font-family="Helvetica,sans-Serif" font-size="10.00">ocra/control/Feature.h</text>
</a>
</g>
</g>
<!-- Node0&#45;&gt;Node45 -->
<g id="edge154" class="edge"><title>Node0&#45;&gt;Node45</title>
<path fill="none" stroke="midnightblue" d="M1328.58,-598.139C1544.15,-595.214 2915.21,-573.354 2915.21,-490.5 2915.21,-490.5 2915.21,-490.5 2915.21,-428.5 2915.21,-342.769 2797.44,-318.936 2719.52,-312.55"/>
<polygon fill="midnightblue" stroke="midnightblue" points="2719.51,-309.04 2709.27,-311.791 2718.99,-316.021 2719.51,-309.04"/>
</g>
<!-- Node46 -->
<g id="node28" class="node"><title>Node46</title>
<g id="a_node28"><a xlink:href="../../df/d60/ControlEnum_8h.html" target="_top" xlink:title="Some enumerations for the control. ">
<polygon fill="white" stroke="black" points="624.346,-240.5 624.346,-258.5 762.069,-258.5 762.069,-240.5 624.346,-240.5"/>
<text text-anchor="middle" x="693.208" y="-246.5" font-family="Helvetica,sans-Serif" font-size="10.00">ocra/control/ControlEnum.h</text>
</a>
</g>
</g>
<!-- Node0&#45;&gt;Node46 -->
<g id="edge157" class="edge"><title>Node0&#45;&gt;Node46</title>
<path fill="none" stroke="midnightblue" d="M1271.67,-598.217C1119.55,-596.572 409.784,-587.137 378.208,-554 265.641,-435.869 563.951,-302.229 662.711,-262.337"/>
<polygon fill="midnightblue" stroke="midnightblue" points="664.168,-265.524 672.155,-258.563 661.57,-259.024 664.168,-265.524"/>
</g>
<!-- Node47 -->
<g id="node29" class="node"><title>Node47</title>
<g id="a_node29"><a xlink:href="../../db/d3d/ControlFrame_8h.html" target="_top" xlink:title="Classes that represent frames. ">
<polygon fill="white" stroke="black" points="2325.96,-180.5 2325.96,-198.5 2466.45,-198.5 2466.45,-180.5 2325.96,-180.5"/>
<text text-anchor="middle" x="2396.21" y="-186.5" font-family="Helvetica,sans-Serif" font-size="10.00">ocra/control/ControlFrame.h</text>
</a>
</g>
</g>
<!-- Node0&#45;&gt;Node47 -->
<g id="edge156" class="edge"><title>Node0&#45;&gt;Node47</title>
<path fill="none" stroke="midnightblue" d="M1328.5,-598.212C1499.59,-596.377 2397.64,-585.369 2671.21,-554 2815.26,-537.482 2991.21,-635.495 2991.21,-490.5 2991.21,-490.5 2991.21,-490.5 2991.21,-308.5 2991.21,-204.872 2639.56,-190.837 2476.94,-189.888"/>
<polygon fill="midnightblue" stroke="midnightblue" points="2476.52,-186.386 2466.5,-189.843 2476.49,-193.386 2476.52,-186.386"/>
</g>
<!-- Node48 -->
<g id="node30" class="node"><title>Node48</title>
<g id="a_node30"><a xlink:href="../../da/dfc/FullState_8h.html" target="_top" xlink:title="ocra/control/FullState.h">
<polygon fill="white" stroke="black" points="3056.79,-180.5 3056.79,-198.5 3175.62,-198.5 3175.62,-180.5 3056.79,-180.5"/>
<text text-anchor="middle" x="3116.21" y="-186.5" font-family="Helvetica,sans-Serif" font-size="10.00">ocra/control/FullState.h</text>
</a>
</g>
</g>
<!-- Node0&#45;&gt;Node48 -->
<g id="edge155" class="edge"><title>Node0&#45;&gt;Node48</title>
<path fill="none" stroke="midnightblue" d="M1328.67,-598.362C1512.31,-597.366 2532.02,-590.26 2841.21,-554 2979.16,-537.822 3147.21,-629.397 3147.21,-490.5 3147.21,-490.5 3147.21,-490.5 3147.21,-308.5 3147.21,-271.746 3132.97,-230.604 3123.79,-207.909"/>
<polygon fill="midnightblue" stroke="midnightblue" points="3126.98,-206.472 3119.89,-198.604 3120.53,-209.18 3126.98,-206.472"/>
</g>
<!-- Node106 -->
<g id="node50" class="node"><title>Node106</title>
<polygon fill="white" stroke="#bfbfbf" points="3174.78,-535.5 3174.78,-553.5 3333.64,-553.5 3333.64,-535.5 3174.78,-535.5"/>
<text text-anchor="middle" x="3254.21" y="-541.5" font-family="Helvetica,sans-Serif" font-size="10.00">gocra/Solvers/OneLevelSolver.h</text>
</g>
<!-- Node0&#45;&gt;Node106 -->
<g id="edge153" class="edge"><title>Node0&#45;&gt;Node106</title>
<path fill="none" stroke="midnightblue" d="M1328.66,-598.538C1500.37,-598.616 2415.89,-596.922 3161.21,-554 3162.3,-553.937 3163.4,-553.872 3164.51,-553.804"/>
<polygon fill="midnightblue" stroke="midnightblue" points="3164.84,-557.289 3174.58,-553.132 3164.37,-550.305 3164.84,-557.289"/>
</g>
<!-- Node5 -->
<g id="node6" class="node"><title>Node5</title>
<g id="a_node6"><a xlink:href="../../d3/d5a/Model_8h.html" target="_top" xlink:title="Declaration file of the Model class. ">
<polygon fill="white" stroke="black" points="1897.91,-180.5 1897.91,-198.5 2004.51,-198.5 2004.51,-180.5 1897.91,-180.5"/>
<text text-anchor="middle" x="1951.21" y="-186.5" font-family="Helvetica,sans-Serif" font-size="10.00">ocra/control/Model.h</text>
</a>
</g>
</g>
<!-- Node4&#45;&gt;Node5 -->
<g id="edge5" class="edge"><title>Node4&#45;&gt;Node5</title>
<path fill="none" stroke="midnightblue" d="M1883.44,-360.389C1894.21,-333.4 1928.99,-246.193 1944.1,-208.325"/>
<polygon fill="midnightblue" stroke="midnightblue" points="1947.5,-209.244 1947.95,-198.658 1941,-206.65 1947.5,-209.244"/>
</g>
<!-- Node5&#45;&gt;Node1 -->
<g id="edge23" class="edge"><title>Node5&#45;&gt;Node1</title>
<path fill="none" stroke="midnightblue" d="M1897.71,-183.818C1862.85,-180.91 1816.36,-177.301 1775.21,-175 1320.53,-149.58 1203.84,-189.103 751.208,-139 739.788,-137.736 727.461,-135.683 716.29,-133.555"/>
<polygon fill="midnightblue" stroke="midnightblue" points="716.904,-130.108 706.414,-131.6 715.545,-136.975 716.904,-130.108"/>
</g>
<!-- Node6 -->
<g id="node7" class="node"><title>Node6</title>
<g id="a_node7"><a xlink:href="../../d5/d55/MathTypes_8h.html" target="_top" xlink:title="Declaration file of the OptimizationVariable class. ">
<polygon fill="white" stroke="red" points="1484.68,-115.5 1484.68,-133.5 1595.73,-133.5 1595.73,-115.5 1484.68,-115.5"/>
<text text-anchor="middle" x="1540.21" y="-121.5" font-family="Helvetica,sans-Serif" font-size="10.00">ocra/util/MathTypes.h</text>
</a>
</g>
</g>
<!-- Node5&#45;&gt;Node6 -->
<g id="edge6" class="edge"><title>Node5&#45;&gt;Node6</title>
<path fill="none" stroke="midnightblue" d="M1897.83,-182C1829.55,-173.43 1707.73,-157.281 1604.21,-139 1598.4,-137.975 1592.32,-136.811 1586.32,-135.607"/>
<polygon fill="midnightblue" stroke="midnightblue" points="1586.84,-132.141 1576.34,-133.558 1585.43,-138.998 1586.84,-132.141"/>
</g>
<!-- Node9 -->
<g id="node8" class="node"><title>Node9</title>
<g id="a_node8"><a xlink:href="../../d8/ddc/ObserverSubject_8h.html" target="_top" xlink:title="Declaration file of the Observer, Subject and ObserverSubject classes. ">
<polygon fill="white" stroke="red" points="1967.07,-55.5 1967.07,-73.5 2115.35,-73.5 2115.35,-55.5 1967.07,-55.5"/>
<text text-anchor="middle" x="2041.21" y="-61.5" font-family="Helvetica,sans-Serif" font-size="10.00">ocra/optim/ObserverSubject.h</text>
</a>
</g>
</g>
<!-- Node5&#45;&gt;Node9 -->
<g id="edge7" class="edge"><title>Node5&#45;&gt;Node9</title>
<path fill="none" stroke="midnightblue" d="M1957.11,-180.43C1971.67,-160.541 2009.49,-108.851 2029.07,-82.0933"/>
<polygon fill="midnightblue" stroke="midnightblue" points="2032.08,-83.8985 2035.16,-73.7614 2026.43,-79.7649 2032.08,-83.8985"/>
</g>
<!-- Node20 -->
<g id="node9" class="node"><title>Node20</title>
<g id="a_node9"><a xlink:href="../../d7/d90/Variable_8h.html" target="_top" xlink:title="Declaration file of the Variable class. ">
<polygon fill="white" stroke="red" points="1204.33,-115.5 1204.33,-133.5 1314.08,-133.5 1314.08,-115.5 1204.33,-115.5"/>
<text text-anchor="middle" x="1259.21" y="-121.5" font-family="Helvetica,sans-Serif" font-size="10.00">ocra/optim/Variable.h</text>
</a>
</g>
</g>
<!-- Node5&#45;&gt;Node20 -->
<g id="edge8" class="edge"><title>Node5&#45;&gt;Node20</title>
<path fill="none" stroke="midnightblue" d="M1897.77,-183.635C1772.64,-172.243 1460.92,-143.864 1324.68,-131.461"/>
<polygon fill="midnightblue" stroke="midnightblue" points="1324.67,-127.945 1314.39,-130.524 1324.04,-134.917 1324.67,-127.945"/>
</g>
<!-- Node29 -->
<g id="node11" class="node"><title>Node29</title>
<polygon fill="white" stroke="#bfbfbf" points="1098.98,-55.5 1098.98,-73.5 1139.43,-73.5 1139.43,-55.5 1098.98,-55.5"/>
<text text-anchor="middle" x="1119.21" y="-61.5" font-family="Helvetica,sans-Serif" font-size="10.00">string</text>
</g>
<!-- Node5&#45;&gt;Node29 -->
<g id="edge22" class="edge"><title>Node5&#45;&gt;Node29</title>
<path fill="none" stroke="midnightblue" d="M1917.24,-180.453C1886.59,-172.417 1840.83,-158.456 1804.21,-139 1785.45,-129.033 1786.09,-117.49 1766.21,-110 1651.24,-66.6899 1262.1,-64.8826 1149.79,-65.2919"/>
<polygon fill="midnightblue" stroke="midnightblue" points="1149.5,-61.7931 1139.51,-65.3387 1149.53,-68.7931 1149.5,-61.7931"/>
</g>
<!-- Node30 -->
<g id="node13" class="node"><title>Node30</title>
<g id="a_node13"><a xlink:href="../../df/d97/NamedInstance_8h.html" target="_top" xlink:title="ocra/optim/NamedInstance.h">
<polygon fill="white" stroke="black" points="1613.29,-115.5 1613.29,-133.5 1757.13,-133.5 1757.13,-115.5 1613.29,-115.5"/>
<text text-anchor="middle" x="1685.21" y="-121.5" font-family="Helvetica,sans-Serif" font-size="10.00">ocra/optim/NamedInstance.h</text>
</a>
</g>
</g>
<!-- Node5&#45;&gt;Node30 -->
<g id="edge14" class="edge"><title>Node5&#45;&gt;Node30</title>
<path fill="none" stroke="midnightblue" d="M1917.25,-180.457C1869.35,-169.114 1781.93,-148.407 1729.14,-135.905"/>
<polygon fill="midnightblue" stroke="midnightblue" points="1729.92,-132.494 1719.38,-133.595 1728.31,-139.305 1729.92,-132.494"/>
</g>
<!-- Node31 -->
<g id="node14" class="node"><title>Node31</title>
<g id="a_node14"><a xlink:href="../../d9/d5d/ModelContacts_8h.html" target="_top" xlink:title="Declaration file of the ModelContacts class. ">
<polygon fill="white" stroke="black" points="2369.18,-115.5 2369.18,-133.5 2515.24,-133.5 2515.24,-115.5 2369.18,-115.5"/>
<text text-anchor="middle" x="2442.21" y="-121.5" font-family="Helvetica,sans-Serif" font-size="10.00">ocra/control/ModelContacts.h</text>
</a>
</g>
</g>
<!-- Node5&#45;&gt;Node31 -->
<g id="edge16" class="edge"><title>Node5&#45;&gt;Node31</title>
<path fill="none" stroke="midnightblue" d="M2004.69,-181.638C2093.12,-170.292 2269.91,-147.607 2369.57,-134.82"/>
<polygon fill="midnightblue" stroke="midnightblue" points="2370.08,-138.283 2379.55,-133.539 2369.19,-131.34 2370.08,-138.283"/>
</g>
<!-- Node34 -->
<g id="node17" class="node"><title>Node34</title>
<g id="a_node17"><a xlink:href="../../df/d0a/Macros_8h.html" target="_top" xlink:title="ocra/util/Macros.h">
<polygon fill="white" stroke="red" points="2552.75,-0.5 2552.75,-18.5 2647.67,-18.5 2647.67,-0.5 2552.75,-0.5"/>
<text text-anchor="middle" x="2600.21" y="-6.5" font-family="Helvetica,sans-Serif" font-size="10.00">ocra/util/Macros.h</text>
</a>
</g>
</g>
<!-- Node5&#45;&gt;Node34 -->
<g id="edge20" class="edge"><title>Node5&#45;&gt;Node34</title>
<path fill="none" stroke="midnightblue" d="M1948.49,-180.484C1941.22,-157.323 1924.04,-89.7521 1958.21,-55 1998.66,-13.8651 2391.74,-10.1394 2542.11,-10.2351"/>
<polygon fill="midnightblue" stroke="midnightblue" points="2542.51,-13.7355 2552.51,-10.2481 2542.51,-6.73546 2542.51,-13.7355"/>
</g>
<!-- Node36 -->
<g id="node18" class="node"><title>Node36</title>
<polygon fill="white" stroke="#bfbfbf" points="2168.8,-115.5 2168.8,-133.5 2237.61,-133.5 2237.61,-115.5 2168.8,-115.5"/>
<text text-anchor="middle" x="2203.21" y="-121.5" font-family="Helvetica,sans-Serif" font-size="10.00">Eigen/Lgsm</text>
</g>
<!-- Node5&#45;&gt;Node36 -->
<g id="edge21" class="edge"><title>Node5&#45;&gt;Node36</title>
<path fill="none" stroke="midnightblue" d="M1988.79,-180.451C2030.79,-171.258 2100.7,-155.364 2160.21,-139 2163.04,-138.222 2165.96,-137.382 2168.89,-136.515"/>
<polygon fill="midnightblue" stroke="midnightblue" points="2170.19,-139.777 2178.74,-133.515 2168.15,-133.081 2170.19,-139.777"/>
</g>
<!-- Node37 -->
<g id="node19" class="node"><title>Node37</title>
<polygon fill="white" stroke="#bfbfbf" points="1813.4,-115.5 1813.4,-133.5 1925.01,-133.5 1925.01,-115.5 1813.4,-115.5"/>
<text text-anchor="middle" x="1869.21" y="-121.5" font-family="Helvetica,sans-Serif" font-size="10.00">yarp/os/Semaphore.h</text>
</g>
<!-- Node5&#45;&gt;Node37 -->
<g id="edge24" class="edge"><title>Node5&#45;&gt;Node37</title>
<path fill="none" stroke="midnightblue" d="M1940.49,-180.264C1927.15,-170.02 1904.17,-152.361 1887.91,-139.868"/>
<polygon fill="midnightblue" stroke="midnightblue" points="1889.73,-136.856 1879.67,-133.539 1885.47,-142.407 1889.73,-136.856"/>
</g>
<!-- Node20&#45;&gt;Node3 -->
<g id="edge10" class="edge"><title>Node20&#45;&gt;Node3</title>
<path fill="none" stroke="midnightblue" d="M1204.24,-120.504C1017.82,-110.342 411.711,-77.3019 240.577,-67.9731"/>
<polygon fill="midnightblue" stroke="midnightblue" points="240.583,-64.4684 230.408,-67.4188 240.202,-71.458 240.583,-64.4684"/>
</g>
<!-- Node20&#45;&gt;Node9 -->
<g id="edge9" class="edge"><title>Node20&#45;&gt;Node9</title>
<path fill="none" stroke="midnightblue" d="M1314.26,-118.072C1341.34,-115.48 1374.47,-112.422 1404.21,-110 1601.96,-93.8893 1834.54,-78.5557 1956.6,-70.7866"/>
<polygon fill="midnightblue" stroke="midnightblue" points="1956.88,-74.2765 1966.63,-70.1494 1956.43,-67.2906 1956.88,-74.2765"/>
</g>
<!-- Node24 -->
<g id="node10" class="node"><title>Node24</title>
<polygon fill="white" stroke="#bfbfbf" points="1555.5,-55.5 1555.5,-73.5 1674.92,-73.5 1674.92,-55.5 1555.5,-55.5"/>
<text text-anchor="middle" x="1615.21" y="-61.5" font-family="Helvetica,sans-Serif" font-size="10.00">boost/noncopyable.hpp</text>
</g>
<!-- Node20&#45;&gt;Node24 -->
<g id="edge11" class="edge"><title>Node20&#45;&gt;Node24</title>
<path fill="none" stroke="midnightblue" d="M1308.33,-115.496C1373.06,-104.952 1486.77,-86.4251 1556.12,-75.1273"/>
<polygon fill="midnightblue" stroke="midnightblue" points="1556.71,-78.5772 1566.01,-73.5147 1555.58,-71.6683 1556.71,-78.5772"/>
</g>
<!-- Node20&#45;&gt;Node29 -->
<g id="edge12" class="edge"><title>Node20&#45;&gt;Node29</title>
<path fill="none" stroke="midnightblue" d="M1239.74,-115.435C1216.05,-105.622 1175.83,-88.9593 1148.42,-77.604"/>
<polygon fill="midnightblue" stroke="midnightblue" points="1149.54,-74.2771 1138.96,-73.6831 1146.86,-80.7441 1149.54,-74.2771"/>
</g>
<!-- Node26 -->
<g id="node12" class="node"><title>Node26</title>
<polygon fill="white" stroke="#bfbfbf" points="577.592,-55.5 577.592,-73.5 620.823,-73.5 620.823,-55.5 577.592,-55.5"/>
<text text-anchor="middle" x="599.208" y="-61.5" font-family="Helvetica,sans-Serif" font-size="10.00">vector</text>
</g>
<!-- Node20&#45;&gt;Node26 -->
<g id="edge13" class="edge"><title>Node20&#45;&gt;Node26</title>
<path fill="none" stroke="midnightblue" d="M1204.07,-118.655C1071.08,-106.968 735.926,-77.5146 631.073,-68.3003"/>
<polygon fill="midnightblue" stroke="midnightblue" points="631.37,-64.813 621.102,-67.4241 630.757,-71.7861 631.37,-64.813"/>
</g>
<!-- Node30&#45;&gt;Node29 -->
<g id="edge15" class="edge"><title>Node30&#45;&gt;Node29</title>
<path fill="none" stroke="midnightblue" d="M1641.28,-115.472C1629.59,-113.503 1616.94,-111.525 1605.21,-110 1433.83,-87.7267 1227.02,-72.6968 1150.04,-67.5073"/>
<polygon fill="midnightblue" stroke="midnightblue" points="1149.85,-63.9871 1139.64,-66.8133 1149.38,-70.9716 1149.85,-63.9871"/>
</g>
<!-- Node31&#45;&gt;Node9 -->
<g id="edge17" class="edge"><title>Node31&#45;&gt;Node9</title>
<path fill="none" stroke="midnightblue" d="M2391.16,-115.464C2379.36,-113.638 2366.85,-111.728 2355.21,-110 2270.55,-97.4342 2172.94,-83.7225 2109.31,-74.8888"/>
<polygon fill="midnightblue" stroke="midnightblue" points="2109.79,-71.421 2099.4,-73.5138 2108.83,-78.3546 2109.79,-71.421"/>
</g>
<!-- Node32 -->
<g id="node15" class="node"><title>Node32</title>
<polygon fill="white" stroke="#bfbfbf" points="2700.19,-55.5 2700.19,-73.5 2766.22,-73.5 2766.22,-55.5 2700.19,-55.5"/>
<text text-anchor="middle" x="2733.21" y="-61.5" font-family="Helvetica,sans-Serif" font-size="10.00">Eigen/Core</text>
</g>
<!-- Node31&#45;&gt;Node32 -->
<g id="edge18" class="edge"><title>Node31&#45;&gt;Node32</title>
<path fill="none" stroke="midnightblue" d="M2482.36,-115.496C2536.82,-104.643 2633.71,-85.3318 2689.8,-74.1525"/>
<polygon fill="midnightblue" stroke="midnightblue" points="2690.65,-77.5509 2699.77,-72.1636 2689.28,-70.6859 2690.65,-77.5509"/>
</g>
<!-- Node33 -->
<g id="node16" class="node"><title>Node33</title>
<polygon fill="white" stroke="#bfbfbf" points="2944.23,-55.5 2944.23,-73.5 3054.19,-73.5 3054.19,-55.5 2944.23,-55.5"/>
<text text-anchor="middle" x="2999.21" y="-61.5" font-family="Helvetica,sans-Serif" font-size="10.00">boost/shared_ptr.hpp</text>
</g>
<!-- Node31&#45;&gt;Node33 -->
<g id="edge19" class="edge"><title>Node31&#45;&gt;Node33</title>
<path fill="none" stroke="midnightblue" d="M2515.31,-115.888C2624.71,-104.496 2829.32,-83.1905 2933.95,-72.2954"/>
<polygon fill="midnightblue" stroke="midnightblue" points="2934.48,-75.7594 2944.06,-71.2424 2933.75,-68.797 2934.48,-75.7594"/>
</g>
<!-- Node38&#45;&gt;Node3 -->
<g id="edge26" class="edge"><title>Node38&#45;&gt;Node3</title>
<path fill="none" stroke="midnightblue" d="M69.3939,-480.223C72.0428,-461 78.2075,-411.825 78.2075,-370.5 78.2075,-370.5 78.2075,-370.5 78.2075,-188.5 78.2075,-136.238 134.346,-97.361 168.85,-78.402"/>
<polygon fill="midnightblue" stroke="midnightblue" points="170.743,-81.3601 177.944,-73.5882 167.468,-75.1735 170.743,-81.3601"/>
</g>
<!-- Node39&#45;&gt;Node1 -->
<g id="edge30" class="edge"><title>Node39&#45;&gt;Node1</title>
<path fill="none" stroke="midnightblue" d="M1235.97,-541.562C1068.15,-535.567 620.713,-513.339 492.208,-444 441.864,-416.836 304.238,-288.096 335.208,-240 369.316,-187.029 560.436,-146.886 642.149,-131.901"/>
<polygon fill="midnightblue" stroke="midnightblue" points="642.795,-135.341 652.012,-130.117 641.549,-128.452 642.795,-135.341"/>
</g>
<!-- Node39&#45;&gt;Node5 -->
<g id="edge143" class="edge"><title>Node39&#45;&gt;Node5</title>
<path fill="none" stroke="midnightblue" d="M1364.61,-542.205C1456.03,-537.619 1625.69,-518.743 1746.21,-444 1797.38,-412.265 1905.09,-258.186 1940.02,-207.039"/>
<polygon fill="midnightblue" stroke="midnightblue" points="1942.93,-208.976 1945.66,-198.739 1937.14,-205.04 1942.93,-208.976"/>
</g>
<!-- Node39&#45;&gt;Node29 -->
<g id="edge28" class="edge"><title>Node39&#45;&gt;Node29</title>
<path fill="none" stroke="midnightblue" d="M1235.81,-541.644C1087.2,-536.994 723.878,-523.433 604.208,-499 532.177,-484.293 509.358,-484.808 448.208,-444 366.486,-389.464 336.889,-356.769 327.208,-259 317.075,-156.671 407.714,-145.536 504.208,-110 613.224,-69.8526 979.462,-65.7943 1088.39,-65.4888"/>
<polygon fill="midnightblue" stroke="midnightblue" points="1088.69,-68.9883 1098.69,-65.4693 1088.68,-61.9883 1088.69,-68.9883"/>
</g>
<!-- Node39&#45;&gt;Node26 -->
<g id="edge29" class="edge"><title>Node39&#45;&gt;Node26</title>
<path fill="none" stroke="midnightblue" d="M1236.06,-543.231C1073.69,-542.014 649.77,-535.343 514.208,-499 461.796,-484.949 447.343,-478.191 405.208,-444 329.329,-382.428 281.077,-328.168 323.208,-240 370.804,-140.392 505.693,-91.3519 567.529,-73.5844"/>
<polygon fill="midnightblue" stroke="midnightblue" points="568.801,-76.8636 577.497,-70.811 566.924,-70.1197 568.801,-76.8636"/>
</g>
<!-- Node40 -->
<g id="node22" class="node"><title>Node40</title>
<g id="a_node22"><a xlink:href="../../de/d4a/Controller_8h.html" target="_top" xlink:title="Controller interface. ">
<polygon fill="white" stroke="black" points="1239.12,-480.5 1239.12,-498.5 1361.29,-498.5 1361.29,-480.5 1239.12,-480.5"/>
<text text-anchor="middle" x="1300.21" y="-486.5" font-family="Helvetica,sans-Serif" font-size="10.00">ocra/control/Controller.h</text>
</a>
</g>
</g>
<!-- Node39&#45;&gt;Node40 -->
<g id="edge31" class="edge"><title>Node39&#45;&gt;Node40</title>
<path fill="none" stroke="midnightblue" d="M1300.21,-535.219C1300.21,-528.177 1300.21,-517.808 1300.21,-508.828"/>
<polygon fill="midnightblue" stroke="midnightblue" points="1303.71,-508.55 1300.21,-498.55 1296.71,-508.55 1303.71,-508.55"/>
</g>
<!-- Node73 -->
<g id="node40" class="node"><title>Node73</title>
<g id="a_node40"><a xlink:href="../../d0/d17/OneLevelSolver_8h.html" target="_top" xlink:title="Define the internal solver class that can be used in the wOcra controller. ">
<polygon fill="white" stroke="black" points="1521,-300.5 1521,-318.5 1665.41,-318.5 1665.41,-300.5 1521,-300.5"/>
<text text-anchor="middle" x="1593.21" y="-306.5" font-family="Helvetica,sans-Serif" font-size="10.00">ocra/optim/OneLevelSolver.h</text>
</a>
</g>
</g>
<!-- Node39&#45;&gt;Node73 -->
<g id="edge144" class="edge"><title>Node39&#45;&gt;Node73</title>
<path fill="none" stroke="midnightblue" d="M1313.99,-535.496C1328.37,-526.969 1351.41,-512.82 1370.21,-499 1451.12,-439.506 1540.36,-359.201 1576.57,-325.928"/>
<polygon fill="midnightblue" stroke="midnightblue" points="1579.25,-328.219 1584.23,-318.867 1574.5,-323.074 1579.25,-328.219"/>
</g>
<!-- Node105 -->
<g id="node49" class="node"><title>Node105</title>
<g id="a_node49"><a xlink:href="../../d5/d9e/GHCJTTask_8h.html" target="_top" xlink:title="Define task class for GHCJT controller. It inherits from the task class defined in the ocra framework...">
<polygon fill="white" stroke="black" points="2216.03,-420.5 2216.03,-438.5 2350.39,-438.5 2350.39,-420.5 2216.03,-420.5"/>
<text text-anchor="middle" x="2283.21" y="-426.5" font-family="Helvetica,sans-Serif" font-size="10.00">gocra/Tasks/GHCJTTask.h</text>
</a>
</g>
</g>
<!-- Node39&#45;&gt;Node105 -->
<g id="edge145" class="edge"><title>Node39&#45;&gt;Node105</title>
<path fill="none" stroke="midnightblue" d="M1364.59,-539.58C1465.22,-533.129 1665.82,-518.971 1835.21,-499 1977.12,-482.268 2143.16,-454.8 2227.66,-440.251"/>
<polygon fill="midnightblue" stroke="midnightblue" points="2228.3,-443.693 2237.56,-438.542 2227.11,-436.795 2228.3,-443.693"/>
</g>
<!-- Node40&#45;&gt;Node1 -->
<g id="edge142" class="edge"><title>Node40&#45;&gt;Node1</title>
<path fill="none" stroke="midnightblue" d="M1238.81,-485.905C1134.19,-480.892 926.034,-468.174 857.208,-444 845.649,-439.94 493.056,-214.764 487.208,-204 454.474,-143.751 576.64,-129.699 641.399,-126.454"/>
<polygon fill="midnightblue" stroke="midnightblue" points="641.806,-129.939 651.644,-126.006 641.5,-122.946 641.806,-129.939"/>
</g>
<!-- Node40&#45;&gt;Node2 -->
<g id="edge39" class="edge"><title>Node40&#45;&gt;Node2</title>
<path fill="none" stroke="midnightblue" d="M1238.99,-485.977C1111.27,-479.042 828.208,-454.227 828.208,-370.5 828.208,-370.5 828.208,-370.5 828.208,-308.5 828.208,-276.241 825.014,-264.652 804.208,-240 782.908,-214.763 755.973,-232.451 739.208,-204 726.659,-182.705 745.733,-156.833 761.354,-140.763"/>
<polygon fill="midnightblue" stroke="midnightblue" points="763.862,-143.205 768.591,-133.725 758.982,-138.187 763.862,-143.205"/>
</g>
<!-- Node40&#45;&gt;Node5 -->
<g id="edge140" class="edge"><title>Node40&#45;&gt;Node5</title>
<path fill="none" stroke="midnightblue" d="M1317.83,-480.416C1336.64,-471.707 1367.24,-457.304 1393.21,-444 1417.1,-431.756 1421.92,-426.442 1446.21,-415 1544.91,-368.507 1574.34,-367.933 1674.21,-324 1723.5,-302.314 1867.16,-231.883 1925.82,-203.016"/>
<polygon fill="midnightblue" stroke="midnightblue" points="1927.37,-206.154 1934.79,-198.597 1924.27,-199.874 1927.37,-206.154"/>
</g>
<!-- Node40&#45;&gt;Node24 -->
<g id="edge34" class="edge"><title>Node40&#45;&gt;Node24</title>
<path fill="none" stroke="midnightblue" d="M1316.69,-480.379C1330.36,-472.806 1349.27,-460.242 1360.21,-444 1379.06,-416.016 1379.21,-404.24 1379.21,-370.5 1379.21,-370.5 1379.21,-370.5 1379.21,-308.5 1379.21,-217.187 1366.92,-173.841 1432.21,-110 1448.4,-94.1668 1500.65,-82.4391 1545.19,-75.0097"/>
<polygon fill="midnightblue" stroke="midnightblue" points="1545.84,-78.4512 1555.15,-73.3979 1544.72,-71.5411 1545.84,-78.4512"/>
</g>
<!-- Node40&#45;&gt;Node29 -->
<g id="edge37" class="edge"><title>Node40&#45;&gt;Node29</title>
<path fill="none" stroke="midnightblue" d="M1238.82,-486.587C1125.14,-482.446 886.293,-470.778 808.208,-444 722.434,-414.586 513.285,-287.617 478.208,-204 452.135,-141.848 532.671,-129.434 597.208,-110 690.28,-81.9733 991.813,-69.7263 1088.83,-66.4465"/>
<polygon fill="midnightblue" stroke="midnightblue" points="1088.98,-69.9436 1098.86,-66.115 1088.75,-62.9474 1088.98,-69.9436"/>
</g>
<!-- Node40&#45;&gt;Node26 -->
<g id="edge38" class="edge"><title>Node40&#45;&gt;Node26</title>
<path fill="none" stroke="midnightblue" d="M1238.8,-487.42C1113.36,-484.595 831.855,-474.914 741.208,-444 588.617,-391.961 509.043,-360.221 469.208,-204 454.132,-144.88 528.742,-98.8752 571.282,-77.9062"/>
<polygon fill="midnightblue" stroke="midnightblue" points="572.817,-81.0521 580.331,-73.5833 569.799,-74.7359 572.817,-81.0521"/>
</g>
<!-- Node40&#45;&gt;Node30 -->
<g id="edge32" class="edge"><title>Node40&#45;&gt;Node30</title>
<path fill="none" stroke="midnightblue" d="M1239.1,-482.562C1214.12,-476.776 1187.55,-465.571 1172.21,-444 1164.74,-433.496 1166.11,-426.356 1172.21,-415 1238.79,-290.973 1303.76,-287.686 1436.21,-240 1507.49,-214.337 1724.55,-260.326 1775.21,-204 1798.72,-177.862 1751.6,-151.911 1717.1,-137.366"/>
<polygon fill="midnightblue" stroke="midnightblue" points="1718.36,-134.098 1707.78,-133.575 1715.72,-140.583 1718.36,-134.098"/>
</g>
<!-- Node40&#45;&gt;Node32 -->
<g id="edge33" class="edge"><title>Node40&#45;&gt;Node32</title>
<path fill="none" stroke="midnightblue" d="M1361.32,-488.705C1564.15,-488.973 2213.74,-486.412 2418.21,-444 2641.26,-397.732 2767.44,-446.914 2896.21,-259 2946.2,-186.043 2816.72,-108.147 2759.15,-78.2147"/>
<polygon fill="midnightblue" stroke="midnightblue" points="2760.43,-74.9382 2749.94,-73.5116 2757.25,-81.1737 2760.43,-74.9382"/>
</g>
<!-- Node40&#45;&gt;Node33 -->
<g id="edge35" class="edge"><title>Node40&#45;&gt;Node33</title>
<path fill="none" stroke="midnightblue" d="M1361.56,-487.998C1578.28,-485.959 2307.17,-476.772 2538.21,-444 2841.46,-400.985 3021.8,-463.678 3184.21,-204 3224.07,-140.26 3106.46,-95.6269 3040.55,-76.2794"/>
<polygon fill="midnightblue" stroke="midnightblue" points="3041.41,-72.8859 3030.84,-73.5005 3039.49,-79.616 3041.41,-72.8859"/>
</g>
<!-- Node40&#45;&gt;Node34 -->
<g id="edge40" class="edge"><title>Node40&#45;&gt;Node34</title>
<path fill="none" stroke="midnightblue" d="M1238.98,-487.183C1100.33,-483.727 765.965,-472.612 657.208,-444 404.299,-377.465 126.208,-452.014 126.208,-190.5 126.208,-190.5 126.208,-190.5 126.208,-123.5 126.208,-91.0913 124.822,-73.8177 151.208,-55 201.48,-19.1469 2177.55,-11.7186 2542.55,-10.6514"/>
<polygon fill="midnightblue" stroke="midnightblue" points="2542.64,-14.1513 2552.63,-10.6224 2542.62,-7.15132 2542.64,-14.1513"/>
</g>
<!-- Node41 -->
<g id="node23" class="node"><title>Node41</title>
<polygon fill="white" stroke="#bfbfbf" points="1248.85,-415.5 1248.85,-443.5 1351.57,-443.5 1351.57,-415.5 1248.85,-415.5"/>
<text text-anchor="start" x="1256.85" y="-431.5" font-family="Helvetica,sans-Serif" font-size="10.00">boost/property_tree</text>
<text text-anchor="middle" x="1300.21" y="-421.5" font-family="Helvetica,sans-Serif" font-size="10.00">/ptree.hpp</text>
</g>
<!-- Node40&#45;&gt;Node41 -->
<g id="edge36" class="edge"><title>Node40&#45;&gt;Node41</title>
<path fill="none" stroke="midnightblue" d="M1300.21,-480.435C1300.21,-473.56 1300.21,-463.324 1300.21,-453.906"/>
<polygon fill="midnightblue" stroke="midnightblue" points="1303.71,-453.843 1300.21,-443.843 1296.71,-453.843 1303.71,-453.843"/>
</g>
<!-- Node42 -->
<g id="node24" class="node"><title>Node42</title>
<g id="a_node24"><a xlink:href="../../df/d4f/Task_8h.html" target="_top" xlink:title="ocra/control/Task.h">
<polygon fill="white" stroke="red" points="1967.24,-360.5 1967.24,-378.5 2067.17,-378.5 2067.17,-360.5 1967.24,-360.5"/>
<text text-anchor="middle" x="2017.21" y="-366.5" font-family="Helvetica,sans-Serif" font-size="10.00">ocra/control/Task.h</text>
</a>
</g>
</g>
<!-- Node40&#45;&gt;Node42 -->
<g id="edge41" class="edge"><title>Node40&#45;&gt;Node42</title>
<path fill="none" stroke="midnightblue" d="M1324.28,-480.419C1370.82,-465.126 1476.65,-431.966 1568.21,-415 1605.46,-408.097 1842.83,-386.214 1956.58,-375.934"/>
<polygon fill="midnightblue" stroke="midnightblue" points="1957.22,-379.391 1966.86,-375.006 1956.59,-372.419 1957.22,-379.391"/>
</g>
<!-- Node40&#45;&gt;Node45 -->
<g id="edge139" class="edge"><title>Node40&#45;&gt;Node45</title>
<path fill="none" stroke="midnightblue" d="M1361.59,-489.002C1557.78,-490.124 2167.93,-489.747 2359.21,-444 2467.03,-418.211 2583.65,-352.25 2630.72,-323.844"/>
<polygon fill="midnightblue" stroke="midnightblue" points="2632.71,-326.726 2639.43,-318.533 2629.07,-320.75 2632.71,-326.726"/>
</g>
<!-- Node90 -->
<g id="node47" class="node"><title>Node90</title>
<g id="a_node47"><a xlink:href="../../d9/d76/TaskYarpInterface_8h.html" target="_top" xlink:title="ocra/control/TaskYarpInterface.h">
<polygon fill="white" stroke="red" points="1577.6,-420.5 1577.6,-438.5 1736.82,-438.5 1736.82,-420.5 1577.6,-420.5"/>
<text text-anchor="middle" x="1657.21" y="-426.5" font-family="Helvetica,sans-Serif" font-size="10.00">ocra/control/TaskYarpInterface.h</text>
</a>
</g>
</g>
<!-- Node40&#45;&gt;Node90 -->
<g id="edge133" class="edge"><title>Node40&#45;&gt;Node90</title>
<path fill="none" stroke="midnightblue" d="M1349.47,-480.496C1414.38,-469.952 1528.41,-451.425 1597.95,-440.127"/>
<polygon fill="midnightblue" stroke="midnightblue" points="1598.57,-443.573 1607.88,-438.515 1597.44,-436.664 1598.57,-443.573"/>
</g>
<!-- Node93 -->
<g id="node48" class="node"><title>Node93</title>
<polygon fill="white" stroke="#bfbfbf" points="1181.54,-420.5 1181.54,-438.5 1230.88,-438.5 1230.88,-420.5 1181.54,-420.5"/>
<text text-anchor="middle" x="1206.21" y="-426.5" font-family="Helvetica,sans-Serif" font-size="10.00">fstream</text>
</g>
<!-- Node40&#45;&gt;Node93 -->
<g id="edge141" class="edge"><title>Node40&#45;&gt;Node93</title>
<path fill="none" stroke="midnightblue" d="M1287.14,-480.435C1271.86,-471.009 1246.34,-455.264 1228.04,-443.973"/>
<polygon fill="midnightblue" stroke="midnightblue" points="1229.82,-440.956 1219.47,-438.683 1226.14,-446.913 1229.82,-440.956"/>
</g>
<!-- Node42&#45;&gt;Node5 -->
<g id="edge91" class="edge"><title>Node42&#45;&gt;Node5</title>
<path fill="none" stroke="midnightblue" d="M2002.59,-360.351C1990.36,-352.679 1973.61,-339.989 1965.21,-324 1945.66,-286.8 1946.71,-235.772 1949.03,-208.851"/>
<polygon fill="midnightblue" stroke="midnightblue" points="1952.54,-208.912 1950.08,-198.607 1945.58,-208.196 1952.54,-208.912"/>
</g>
<!-- Node42&#45;&gt;Node30 -->
<g id="edge42" class="edge"><title>Node42&#45;&gt;Node30</title>
<path fill="none" stroke="midnightblue" d="M2003.46,-360.426C1989.68,-352.061 1968.13,-338.237 1951.21,-324 1880.98,-264.899 1884.26,-226.392 1808.21,-175 1782.45,-157.592 1749.63,-144.773 1724.37,-136.548"/>
<polygon fill="midnightblue" stroke="midnightblue" points="1725.34,-133.182 1714.75,-133.515 1723.23,-139.859 1725.34,-133.182"/>
</g>
<!-- Node42&#45;&gt;Node32 -->
<g id="edge43" class="edge"><title>Node42&#45;&gt;Node32</title>
<path fill="none" stroke="midnightblue" d="M2036.36,-360.35C2055.31,-352.03 2084.91,-338.336 2109.21,-324 2128.43,-312.658 2129.2,-302.55 2150.21,-295 2251.28,-258.666 2541.85,-317.075 2632.21,-259 2695.88,-218.073 2721.68,-123.205 2729.94,-83.492"/>
<polygon fill="midnightblue" stroke="midnightblue" points="2733.39,-84.1306 2731.86,-73.6458 2726.52,-82.792 2733.39,-84.1306"/>
</g>
<!-- Node42&#45;&gt;Node34 -->
<g id="edge44" class="edge"><title>Node42&#45;&gt;Node34</title>
<path fill="none" stroke="midnightblue" d="M2021.88,-360.493C2032.06,-343.31 2056.35,-303.751 2069.21,-295 2124.81,-257.152 2156.14,-289.281 2216.21,-259 2268.34,-232.716 2264.21,-199.497 2317.21,-175 2401.97,-135.82 2447.37,-192.069 2524.21,-139 2563.56,-111.822 2585.66,-57.0702 2594.94,-28.6089"/>
<polygon fill="midnightblue" stroke="midnightblue" points="2598.37,-29.3779 2597.97,-18.7905 2591.68,-27.3153 2598.37,-29.3779"/>
</g>
<!-- Node42&#45;&gt;Node42 -->
<g id="edge103" class="edge"><title>Node42&#45;&gt;Node42</title>
<path fill="none" stroke="midnightblue" d="M2039.83,-378.519C2061.51,-383.346 2085.17,-380.34 2085.17,-369.5 2085.17,-360.312 2068.17,-356.752 2049.79,-358.82"/>
<polygon fill="midnightblue" stroke="midnightblue" points="2049.12,-355.383 2039.83,-360.481 2050.27,-362.287 2049.12,-355.383"/>
</g>
<!-- Node43 -->
<g id="node25" class="node"><title>Node43</title>
<g id="a_node25"><a xlink:href="../../da/dbb/StringUtilities_8h.html" target="_top" xlink:title="ocra/util/StringUtilities.h">
<polygon fill="white" stroke="red" points="495.966,-180.5 495.966,-198.5 616.449,-198.5 616.449,-180.5 495.966,-180.5"/>
<text text-anchor="middle" x="556.208" y="-186.5" font-family="Helvetica,sans-Serif" font-size="10.00">ocra/util/StringUtilities.h</text>
</a>
</g>
</g>
<!-- Node42&#45;&gt;Node43 -->
<g id="edge45" class="edge"><title>Node42&#45;&gt;Node43</title>
<path fill="none" stroke="midnightblue" d="M1966.87,-363.95C1951.86,-362.63 1935.37,-361.218 1920.21,-360 1701.22,-342.41 1646.26,-340.765 1427.21,-324 1066.22,-296.372 938.023,-422.908 615.208,-259 592.956,-247.702 575.585,-224.014 565.616,-207.685"/>
<polygon fill="midnightblue" stroke="midnightblue" points="568.424,-205.549 560.388,-198.645 562.365,-209.054 568.424,-205.549"/>
</g>
<!-- Node44 -->
<g id="node26" class="node"><title>Node44</title>
<g id="a_node26"><a xlink:href="../../d8/d9f/ErrorsHelper_8h.html" target="_top" xlink:title="ocra/util/ErrorsHelper.h">
<polygon fill="white" stroke="black" points="748.075,-180.5 748.075,-198.5 866.34,-198.5 866.34,-180.5 748.075,-180.5"/>
<text text-anchor="middle" x="807.208" y="-186.5" font-family="Helvetica,sans-Serif" font-size="10.00">ocra/util/ErrorsHelper.h</text>
</a>
</g>
</g>
<!-- Node42&#45;&gt;Node44 -->
<g id="edge48" class="edge"><title>Node42&#45;&gt;Node44</title>
<path fill="none" stroke="midnightblue" d="M1967.1,-364.105C1839.75,-352.933 1513.59,-324.303 1512.21,-324 1474.86,-315.81 1468.49,-303.473 1431.21,-295 1279.58,-260.545 1232.5,-302.474 1083.21,-259 1065.08,-253.721 1063.05,-246.187 1045.21,-240 970.596,-214.124 948.51,-220.15 871.208,-204 865.928,-202.897 860.404,-201.738 854.908,-200.583"/>
<polygon fill="midnightblue" stroke="midnightblue" points="855.612,-197.155 845.105,-198.519 854.17,-204.004 855.612,-197.155"/>
</g>
<!-- Node42&#45;&gt;Node45 -->
<g id="edge50" class="edge"><title>Node42&#45;&gt;Node45</title>
<path fill="none" stroke="midnightblue" d="M2067.29,-366.667C2166.65,-362.57 2395.61,-350.841 2586.21,-324 2592.98,-323.047 2600.1,-321.825 2607.05,-320.507"/>
<polygon fill="midnightblue" stroke="midnightblue" points="2607.94,-323.9 2617.07,-318.527 2606.58,-317.033 2607.94,-323.9"/>
</g>
<!-- Node42&#45;&gt;Node47 -->
<g id="edge105" class="edge"><title>Node42&#45;&gt;Node47</title>
<path fill="none" stroke="midnightblue" d="M2025.85,-360.39C2042.33,-345.341 2079.96,-312.995 2117.21,-295 2171.96,-268.548 2192.11,-279.918 2249.21,-259 2293.86,-242.641 2343.58,-218.049 2372.25,-203.21"/>
<polygon fill="midnightblue" stroke="midnightblue" points="2373.88,-206.308 2381.12,-198.578 2370.64,-200.102 2373.88,-206.308"/>
</g>
<!-- Node50 -->
<g id="node32" class="node"><title>Node50</title>
<g id="a_node32"><a xlink:href="../../d0/d8a/TaskState_8h.html" target="_top" xlink:title="ocra/control/TaskState.h">
<polygon fill="white" stroke="red" points="2083.57,-240.5 2083.57,-258.5 2206.85,-258.5 2206.85,-240.5 2083.57,-240.5"/>
<text text-anchor="middle" x="2145.21" y="-246.5" font-family="Helvetica,sans-Serif" font-size="10.00">ocra/control/TaskState.h</text>
</a>
</g>
</g>
<!-- Node42&#45;&gt;Node50 -->
<g id="edge104" class="edge"><title>Node42&#45;&gt;Node50</title>
<path fill="none" stroke="midnightblue" d="M2017.74,-360.115C2019.11,-345.189 2023.99,-313.816 2041.21,-295 2055.95,-278.887 2077.51,-268.375 2097.18,-261.639"/>
<polygon fill="midnightblue" stroke="midnightblue" points="2098.48,-264.901 2106.95,-258.54 2096.36,-258.229 2098.48,-264.901"/>
</g>
<!-- Node56 -->
<g id="node35" class="node"><title>Node56</title>
<g id="a_node35"><a xlink:href="../../d3/ded/FunctionHelpers_8h.html" target="_top" xlink:title="ocra/optim/FunctionHelpers.h">
<polygon fill="white" stroke="red" points="2158.9,-300.5 2158.9,-318.5 2305.52,-318.5 2305.52,-300.5 2158.9,-300.5"/>
<text text-anchor="middle" x="2232.21" y="-306.5" font-family="Helvetica,sans-Serif" font-size="10.00">ocra/optim/FunctionHelpers.h</text>
</a>
</g>
</g>
<!-- Node42&#45;&gt;Node56 -->
<g id="edge92" class="edge"><title>Node42&#45;&gt;Node56</title>
<path fill="none" stroke="midnightblue" d="M2047.1,-360.435C2084.94,-350.227 2150.25,-332.608 2192.32,-321.261"/>
<polygon fill="midnightblue" stroke="midnightblue" points="2193.48,-324.573 2202.22,-318.589 2191.65,-317.815 2193.48,-324.573"/>
</g>
<!-- Node64 -->
<g id="node37" class="node"><title>Node64</title>
<g id="a_node37"><a xlink:href="../../d1/d0e/SquaredLinearFunction_8h.html" target="_top" xlink:title="Declaration file of the SquaredLinearFunction class. ">
<polygon fill="white" stroke="red" points="2019.67,-110.5 2019.67,-138.5 2150.74,-138.5 2150.74,-110.5 2019.67,-110.5"/>
<text text-anchor="start" x="2027.67" y="-126.5" font-family="Helvetica,sans-Serif" font-size="10.00">ocra/optim/SquaredLinear</text>
<text text-anchor="middle" x="2085.21" y="-116.5" font-family="Helvetica,sans-Serif" font-size="10.00">Function.h</text>
</a>
</g>
</g>
<!-- Node42&#45;&gt;Node64 -->
<g id="edge100" class="edge"><title>Node42&#45;&gt;Node64</title>
<path fill="none" stroke="midnightblue" d="M2017.06,-360.248C2016.98,-346.55 2017.48,-318.314 2022.21,-295 2033.31,-240.309 2059.37,-179.844 2074.26,-147.993"/>
<polygon fill="midnightblue" stroke="midnightblue" points="2077.55,-149.236 2078.67,-138.701 2071.22,-146.235 2077.55,-149.236"/>
</g>
<!-- Node72 -->
<g id="node39" class="node"><title>Node72</title>
<g id="a_node39"><a xlink:href="../../d8/d6a/WeightedSquareDistanceFunction_8h.html" target="_top" xlink:title="Declaration file of the WeightedSquareDistanceFunction class. ">
<polygon fill="white" stroke="black" points="2437.32,-295.5 2437.32,-323.5 2577.1,-323.5 2577.1,-295.5 2437.32,-295.5"/>
<text text-anchor="start" x="2445.32" y="-311.5" font-family="Helvetica,sans-Serif" font-size="10.00">ocra/optim/WeightedSquare</text>
<text text-anchor="middle" x="2507.21" y="-301.5" font-family="Helvetica,sans-Serif" font-size="10.00">DistanceFunction.h</text>
</a>
</g>
</g>
<!-- Node42&#45;&gt;Node72 -->
<g id="edge101" class="edge"><title>Node42&#45;&gt;Node72</title>
<path fill="none" stroke="midnightblue" d="M2067.34,-362.566C2152.32,-352.507 2325.32,-332.029 2427.21,-319.97"/>
<polygon fill="midnightblue" stroke="midnightblue" points="2427.62,-323.445 2437.14,-318.794 2426.8,-316.493 2427.62,-323.445"/>
</g>
<!-- Node42&#45;&gt;Node73 -->
<g id="edge106" class="edge"><title>Node42&#45;&gt;Node73</title>
<path fill="none" stroke="midnightblue" d="M1966.9,-361.619C1891.12,-351.253 1747.48,-331.603 1662.05,-319.917"/>
<polygon fill="midnightblue" stroke="midnightblue" points="1662.31,-316.42 1651.93,-318.533 1661.36,-323.356 1662.31,-316.42"/>
</g>
<!-- Node43&#45;&gt;Node29 -->
<g id="edge46" class="edge"><title>Node43&#45;&gt;Node29</title>
<path fill="none" stroke="midnightblue" d="M562.093,-180.48C574.773,-163.911 606.51,-126.109 643.208,-110 723.714,-74.6595 996.979,-67.3356 1088.82,-65.8607"/>
<polygon fill="midnightblue" stroke="midnightblue" points="1088.9,-69.3599 1098.85,-65.7116 1088.8,-62.3607 1088.9,-69.3599"/>
</g>
<!-- Node43&#45;&gt;Node26 -->
<g id="edge47" class="edge"><title>Node43&#45;&gt;Node26</title>
<path fill="none" stroke="midnightblue" d="M557.703,-180.058C560.43,-165.465 566.813,-134.715 576.208,-110 579.766,-100.638 584.778,-90.6924 589.215,-82.5838"/>
<polygon fill="midnightblue" stroke="midnightblue" points="592.326,-84.1933 594.207,-73.7666 586.235,-80.7449 592.326,-84.1933"/>
</g>
<!-- Node44&#45;&gt;Node1 -->
<g id="edge49" class="edge"><title>Node44&#45;&gt;Node1</title>
<path fill="none" stroke="midnightblue" d="M790.736,-180.393C768.942,-169.666 730.304,-150.649 704.72,-138.057"/>
<polygon fill="midnightblue" stroke="midnightblue" points="706.134,-134.852 695.616,-133.576 703.043,-141.132 706.134,-134.852"/>
</g>
<!-- Node45&#45;&gt;Node5 -->
<g id="edge62" class="edge"><title>Node45&#45;&gt;Node5</title>
<path fill="none" stroke="midnightblue" d="M2613.17,-300.46C2557.86,-288.992 2459.46,-268.297 2424.21,-259 2396.75,-251.758 2390.97,-245.941 2363.21,-240 2298.31,-226.117 2113.45,-206.58 2014.9,-196.717"/>
<polygon fill="midnightblue" stroke="midnightblue" points="2015.06,-193.216 2004.77,-195.707 2014.37,-200.182 2015.06,-193.216"/>
</g>
<!-- Node45&#45;&gt;Node24 -->
<g id="edge90" class="edge"><title>Node45&#45;&gt;Node24</title>
<path fill="none" stroke="midnightblue" d="M2651.93,-300.315C2651.03,-286.347 2647.34,-257.703 2632.21,-240 2588.15,-188.468 2557.86,-198.332 2494.21,-175 2436.31,-153.778 2418.32,-159.627 2360.21,-139 2330.4,-128.419 2325.92,-117.596 2295.21,-110 2181.23,-81.8057 1835.21,-70.5805 1685.49,-66.9598"/>
<polygon fill="midnightblue" stroke="midnightblue" points="1685.14,-63.4505 1675.06,-66.7121 1684.97,-70.4485 1685.14,-63.4505"/>
</g>
<!-- Node45&#45;&gt;Node30 -->
<g id="edge54" class="edge"><title>Node45&#45;&gt;Node30</title>
<path fill="none" stroke="midnightblue" d="M2614.58,-300.437C2605.32,-298.554 2595.42,-296.626 2586.21,-295 2422.49,-266.109 2381.09,-261.323 2216.21,-240 2071.2,-221.248 2026.48,-254.342 1889.21,-204 1867.57,-196.063 1867.01,-184.94 1846.21,-175 1809.38,-157.402 1764.86,-144.28 1731.98,-135.984"/>
<polygon fill="midnightblue" stroke="midnightblue" points="1732.71,-132.561 1722.17,-133.565 1731.04,-139.357 1732.71,-132.561"/>
</g>
<!-- Node45&#45;&gt;Node33 -->
<g id="edge89" class="edge"><title>Node45&#45;&gt;Node33</title>
<path fill="none" stroke="midnightblue" d="M2709.15,-303.468C2779.29,-296.399 2893.54,-281.781 2929.21,-259 2984.07,-223.954 2993.64,-201.09 3013.21,-139 3019.05,-120.457 3013.28,-98.4729 3007.47,-83.4094"/>
<polygon fill="midnightblue" stroke="midnightblue" points="3010.53,-81.654 3003.4,-73.8123 3004.08,-84.3853 3010.53,-81.654"/>
</g>
<!-- Node45&#45;&gt;Node34 -->
<g id="edge87" class="edge"><title>Node45&#45;&gt;Node34</title>
<path fill="none" stroke="midnightblue" d="M2709.33,-308.613C2766.61,-306.393 2855.64,-296.426 2922.21,-259 2970.24,-231.993 3100.26,-95.7887 3063.21,-55 3036.46,-25.5556 2776.56,-15.0741 2658.29,-11.8082"/>
<polygon fill="midnightblue" stroke="midnightblue" points="2658.07,-8.30112 2647.98,-11.5319 2657.88,-15.2986 2658.07,-8.30112"/>
</g>
<!-- Node45&#45;&gt;Node36 -->
<g id="edge88" class="edge"><title>Node45&#45;&gt;Node36</title>
<path fill="none" stroke="midnightblue" d="M2616.89,-300.464C2569.67,-289.385 2490.87,-269.591 2482.21,-259 2458.5,-229.995 2500.38,-202.742 2475.21,-175 2460.09,-158.337 2321.16,-139.525 2247.93,-130.653"/>
<polygon fill="midnightblue" stroke="midnightblue" points="2247.97,-127.133 2237.62,-129.418 2247.14,-134.083 2247.97,-127.133"/>
</g>
<!-- Node45&#45;&gt;Node46 -->
<g id="edge51" class="edge"><title>Node45&#45;&gt;Node46</title>
<path fill="none" stroke="midnightblue" d="M2618.82,-300.466C2608.43,-298.293 2596.9,-296.209 2586.21,-295 2494.93,-284.675 1119.53,-258.448 772.334,-251.966"/>
<polygon fill="midnightblue" stroke="midnightblue" points="772.184,-248.463 762.12,-251.775 772.053,-255.461 772.184,-248.463"/>
</g>
<!-- Node45&#45;&gt;Node47 -->
<g id="edge55" class="edge"><title>Node45&#45;&gt;Node47</title>
<path fill="none" stroke="midnightblue" d="M2613.23,-300.449C2558.22,-288.865 2462.94,-267.912 2449.21,-259 2429.55,-246.241 2414.18,-223.627 2405.17,-207.887"/>
<polygon fill="midnightblue" stroke="midnightblue" points="2408.03,-205.825 2400.18,-198.71 2401.88,-209.167 2408.03,-205.825"/>
</g>
<!-- Node45&#45;&gt;Node48 -->
<g id="edge63" class="edge"><title>Node45&#45;&gt;Node48</title>
<path fill="none" stroke="midnightblue" d="M2709.49,-305.586C2803.37,-300.095 2985.32,-286.237 3043.21,-259 3068.68,-247.014 3091.15,-222.767 3104.21,-206.576"/>
<polygon fill="midnightblue" stroke="midnightblue" points="3107.09,-208.582 3110.46,-198.539 3101.56,-204.285 3107.09,-208.582"/>
</g>
<!-- Node49 -->
<g id="node31" class="node"><title>Node49</title>
<g id="a_node31"><a xlink:href="../../d9/daf/PartialState_8h.html" target="_top" xlink:title="Define partial state classes that can be used to control some joints of the robot. ">
<polygon fill="white" stroke="black" points="2755.68,-240.5 2755.68,-258.5 2886.74,-258.5 2886.74,-240.5 2755.68,-240.5"/>
<text text-anchor="middle" x="2821.21" y="-246.5" font-family="Helvetica,sans-Serif" font-size="10.00">ocra/control/PartialState.h</text>
</a>
</g>
</g>
<!-- Node45&#45;&gt;Node49 -->
<g id="edge68" class="edge"><title>Node45&#45;&gt;Node49</title>
<path fill="none" stroke="midnightblue" d="M2675.71,-300.435C2704.88,-290.421 2754.84,-273.276 2787.95,-261.915"/>
<polygon fill="midnightblue" stroke="midnightblue" points="2789.31,-265.146 2797.64,-258.589 2787.04,-258.525 2789.31,-265.146"/>
</g>
<!-- Node45&#45;&gt;Node50 -->
<g id="edge74" class="edge"><title>Node45&#45;&gt;Node50</title>
<path fill="none" stroke="midnightblue" d="M2616.36,-300.48C2606.61,-298.488 2596.04,-296.497 2586.21,-295 2456.87,-275.298 2304.81,-262.138 2217.26,-255.52"/>
<polygon fill="midnightblue" stroke="midnightblue" points="2217.4,-252.021 2207.17,-254.765 2216.88,-259.002 2217.4,-252.021"/>
</g>
<!-- Node46&#45;&gt;Node1 -->
<g id="edge53" class="edge"><title>Node46&#45;&gt;Node1</title>
<path fill="none" stroke="midnightblue" d="M686.812,-240.207C680.665,-231.67 671.797,-217.716 668.208,-204 662.886,-183.664 667.831,-159.648 672.686,-143.584"/>
<polygon fill="midnightblue" stroke="midnightblue" points="676.08,-144.469 675.905,-133.876 669.436,-142.266 676.08,-144.469"/>
</g>
<!-- Node46&#45;&gt;Node43 -->
<g id="edge52" class="edge"><title>Node46&#45;&gt;Node43</title>
<path fill="none" stroke="midnightblue" d="M674.158,-240.435C650.978,-230.622 611.62,-213.959 584.798,-202.604"/>
<polygon fill="midnightblue" stroke="midnightblue" points="586.11,-199.359 575.537,-198.683 583.381,-205.805 586.11,-199.359"/>
</g>
<!-- Node47&#45;&gt;Node6 -->
<g id="edge57" class="edge"><title>Node47&#45;&gt;Node6</title>
<path fill="none" stroke="midnightblue" d="M2325.93,-185.422C2159.08,-177.903 1742.68,-157.83 1604.21,-139 1597.48,-138.085 1590.4,-136.861 1583.51,-135.522"/>
<polygon fill="midnightblue" stroke="midnightblue" points="1584.09,-132.07 1573.6,-133.501 1582.69,-138.929 1584.09,-132.07"/>
</g>
<!-- Node47&#45;&gt;Node24 -->
<g id="edge61" class="edge"><title>Node47&#45;&gt;Node24</title>
<path fill="none" stroke="midnightblue" d="M2384.85,-180.43C2360.71,-163.766 2301.91,-125.794 2246.21,-110 2142.55,-80.611 1827.1,-70.1309 1685.42,-66.8388"/>
<polygon fill="midnightblue" stroke="midnightblue" points="1685.19,-63.3329 1675.11,-66.605 1685.03,-70.3311 1685.19,-63.3329"/>
</g>
<!-- Node47&#45;&gt;Node30 -->
<g id="edge56" class="edge"><title>Node47&#45;&gt;Node30</title>
<path fill="none" stroke="midnightblue" d="M2325.52,-183.268C2214.45,-174.894 1992.29,-157.528 1804.21,-139 1790.8,-137.68 1776.56,-136.163 1762.77,-134.634"/>
<polygon fill="midnightblue" stroke="midnightblue" points="1763.15,-131.155 1752.82,-133.521 1762.37,-138.112 1763.15,-131.155"/>
</g>
<!-- Node47&#45;&gt;Node33 -->
<g id="edge60" class="edge"><title>Node47&#45;&gt;Node33</title>
<path fill="none" stroke="midnightblue" d="M2444.51,-180.442C2499.52,-171.118 2592.04,-154.989 2671.21,-139 2773.35,-118.373 2892.58,-90.7626 2955.36,-75.9457"/>
<polygon fill="midnightblue" stroke="midnightblue" points="2956.38,-79.3006 2965.31,-73.5935 2954.77,-72.4884 2956.38,-79.3006"/>
</g>
<!-- Node47&#45;&gt;Node34 -->
<g id="edge58" class="edge"><title>Node47&#45;&gt;Node34</title>
<path fill="none" stroke="midnightblue" d="M2466.62,-181.45C2497.9,-174.966 2533.03,-162.587 2557.21,-139 2587.85,-109.1 2596.66,-56.7661 2599.19,-29.0089"/>
<polygon fill="midnightblue" stroke="midnightblue" points="2602.7,-28.9821 2599.93,-18.7546 2595.72,-28.4746 2602.7,-28.9821"/>
</g>
<!-- Node47&#45;&gt;Node36 -->
<g id="edge59" class="edge"><title>Node47&#45;&gt;Node36</title>
<path fill="none" stroke="midnightblue" d="M2371.37,-180.393C2337.35,-169.288 2276.11,-149.298 2237.67,-136.75"/>
<polygon fill="midnightblue" stroke="midnightblue" points="2238.54,-133.352 2227.95,-133.576 2236.37,-140.006 2238.54,-133.352"/>
</g>
<!-- Node48&#45;&gt;Node30 -->
<g id="edge64" class="edge"><title>Node48&#45;&gt;Node30</title>
<path fill="none" stroke="midnightblue" d="M3056.62,-187.848C2870.98,-185.473 2286.64,-175.414 1804.21,-139 1789.38,-137.881 1773.56,-136.334 1758.44,-134.685"/>
<polygon fill="midnightblue" stroke="midnightblue" points="1758.44,-131.164 1748.12,-133.532 1757.67,-138.12 1758.44,-131.164"/>
</g>
<!-- Node48&#45;&gt;Node32 -->
<g id="edge66" class="edge"><title>Node48&#45;&gt;Node32</title>
<path fill="none" stroke="midnightblue" d="M3091.08,-180.43C3024.66,-159.1 2844.36,-101.196 2768.06,-76.6922"/>
<polygon fill="midnightblue" stroke="midnightblue" points="2769.02,-73.3255 2758.43,-73.6001 2766.88,-79.9902 2769.02,-73.3255"/>
</g>
<!-- Node48&#45;&gt;Node33 -->
<g id="edge67" class="edge"><title>Node48&#45;&gt;Node33</title>
<path fill="none" stroke="midnightblue" d="M3110.18,-180.316C3099.17,-165.598 3074.79,-133.964 3051.21,-110 3040.66,-99.2802 3027.83,-88.2833 3017.56,-79.9034"/>
<polygon fill="midnightblue" stroke="midnightblue" points="3019.62,-77.0725 3009.63,-73.5433 3015.24,-82.5319 3019.62,-77.0725"/>
</g>
<!-- Node48&#45;&gt;Node34 -->
<g id="edge65" class="edge"><title>Node48&#45;&gt;Node34</title>
<path fill="none" stroke="midnightblue" d="M3128.61,-180.387C3140.55,-171.756 3157.85,-156.893 3165.21,-139 3179.41,-104.472 3190.55,-82.4155 3165.21,-55 3131.28,-18.2934 2795.22,-11.8219 2658.05,-10.7138"/>
<polygon fill="midnightblue" stroke="midnightblue" points="2657.77,-7.21168 2647.75,-10.6376 2657.72,-14.2115 2657.77,-7.21168"/>
</g>
<!-- Node49&#45;&gt;Node5 -->
<g id="edge70" class="edge"><title>Node49&#45;&gt;Node5</title>
<path fill="none" stroke="midnightblue" d="M2755.5,-245.206C2627.92,-238.649 2337.84,-222.951 2094.21,-204 2068.2,-201.977 2039.58,-199.354 2014.82,-196.958"/>
<polygon fill="midnightblue" stroke="midnightblue" points="2015.11,-193.471 2004.82,-195.983 2014.43,-200.438 2015.11,-193.471"/>
</g>
<!-- Node49&#45;&gt;Node30 -->
<g id="edge69" class="edge"><title>Node49&#45;&gt;Node30</title>
<path fill="none" stroke="midnightblue" d="M2755.49,-243.447C2659.22,-235.874 2474.22,-220.677 2317.21,-204 2112.03,-182.206 1870.14,-150.471 1754.1,-134.87"/>
<polygon fill="midnightblue" stroke="midnightblue" points="1754.32,-131.368 1743.94,-133.503 1753.38,-138.306 1754.32,-131.368"/>
</g>
<!-- Node49&#45;&gt;Node32 -->
<g id="edge72" class="edge"><title>Node49&#45;&gt;Node32</title>
<path fill="none" stroke="midnightblue" d="M2816.15,-240.446C2810.7,-231.643 2801.92,-217.051 2795.21,-204 2773.4,-161.579 2751.43,-109.885 2740.43,-83.2534"/>
<polygon fill="midnightblue" stroke="midnightblue" points="2743.57,-81.6876 2736.54,-73.7627 2737.09,-84.343 2743.57,-81.6876"/>
</g>
<!-- Node49&#45;&gt;Node33 -->
<g id="edge73" class="edge"><title>Node49&#45;&gt;Node33</title>
<path fill="none" stroke="midnightblue" d="M2829.32,-240.161C2856.89,-211.819 2947.29,-118.881 2983.75,-81.3905"/>
<polygon fill="midnightblue" stroke="midnightblue" points="2986.59,-83.4964 2991.05,-73.8876 2981.57,-78.6156 2986.59,-83.4964"/>
</g>
<!-- Node49&#45;&gt;Node34 -->
<g id="edge71" class="edge"><title>Node49&#45;&gt;Node34</title>
<path fill="none" stroke="midnightblue" d="M2821.99,-240.113C2824.28,-210.303 2827.78,-108.396 2775.21,-55 2758.83,-38.3682 2702.3,-26.0292 2657.87,-18.6159"/>
<polygon fill="midnightblue" stroke="midnightblue" points="2658.16,-15.1177 2647.73,-16.9735 2657.04,-22.0276 2658.16,-15.1177"/>
</g>
<!-- Node50&#45;&gt;Node32 -->
<g id="edge75" class="edge"><title>Node50&#45;&gt;Node32</title>
<path fill="none" stroke="midnightblue" d="M2160.87,-240.336C2190.57,-225.199 2257.43,-192.71 2317.21,-175 2406.74,-148.475 2433.85,-162.571 2524.21,-139 2589.91,-121.86 2664.39,-93.4064 2704.29,-77.394"/>
<polygon fill="midnightblue" stroke="midnightblue" points="2705.7,-80.5977 2713.66,-73.6056 2703.08,-74.1077 2705.7,-80.5977"/>
</g>
<!-- Node50&#45;&gt;Node34 -->
<g id="edge77" class="edge"><title>Node50&#45;&gt;Node34</title>
<path fill="none" stroke="midnightblue" d="M2154.29,-240.406C2170.48,-226.205 2205.66,-196.289 2238.21,-175 2350.31,-101.686 2500.45,-45.0037 2566.56,-21.8605"/>
<polygon fill="midnightblue" stroke="midnightblue" points="2567.76,-25.1487 2576.06,-18.5637 2565.46,-18.5356 2567.76,-25.1487"/>
</g>
<!-- Node50&#45;&gt;Node36 -->
<g id="edge76" class="edge"><title>Node50&#45;&gt;Node36</title>
<path fill="none" stroke="midnightblue" d="M2149.01,-240.43C2158.27,-220.802 2182.13,-170.2 2194.88,-143.158"/>
<polygon fill="midnightblue" stroke="midnightblue" points="2198.21,-144.299 2199.31,-133.761 2191.88,-141.313 2198.21,-144.299"/>
</g>
<!-- Node51 -->
<g id="node33" class="node"><title>Node51</title>
<g id="a_node33"><a xlink:href="../../d5/ded/YarpUtilities_8h.html" target="_top" xlink:title="ocra/util/YarpUtilities.h">
<polygon fill="white" stroke="red" points="1651.83,-180.5 1651.83,-198.5 1766.58,-198.5 1766.58,-180.5 1651.83,-180.5"/>
<text text-anchor="middle" x="1709.21" y="-186.5" font-family="Helvetica,sans-Serif" font-size="10.00">ocra/util/YarpUtilities.h</text>
</a>
</g>
</g>
<!-- Node50&#45;&gt;Node51 -->
<g id="edge78" class="edge"><title>Node50&#45;&gt;Node51</title>
<path fill="none" stroke="midnightblue" d="M2085.04,-240.496C2004.23,-229.746 1861.05,-210.699 1776.67,-199.474"/>
<polygon fill="midnightblue" stroke="midnightblue" points="1777.05,-195.994 1766.68,-198.145 1776.13,-202.933 1777.05,-195.994"/>
</g>
<!-- Node53 -->
<g id="node34" class="node"><title>Node53</title>
<g id="a_node34"><a xlink:href="../../da/d33/TaskYarpInterfaceVocab_8h.html" target="_top" xlink:title="ocra/control/TaskYarpInterface\lVocab.h">
<polygon fill="white" stroke="red" points="921.766,-175.5 921.766,-203.5 1072.65,-203.5 1072.65,-175.5 921.766,-175.5"/>
<text text-anchor="start" x="929.766" y="-191.5" font-family="Helvetica,sans-Serif" font-size="10.00">ocra/control/TaskYarpInterface</text>
<text text-anchor="middle" x="997.208" y="-181.5" font-family="Helvetica,sans-Serif" font-size="10.00">Vocab.h</text>
</a>
</g>
</g>
<!-- Node50&#45;&gt;Node53 -->
<g id="edge82" class="edge"><title>Node50&#45;&gt;Node53</title>
<path fill="none" stroke="midnightblue" d="M2083.54,-247.263C1923.94,-243.748 1484.3,-232.085 1119.21,-204 1107.51,-203.1 1095.19,-201.962 1083.07,-200.731"/>
<polygon fill="midnightblue" stroke="midnightblue" points="1083.26,-197.232 1072.95,-199.677 1082.54,-204.194 1083.26,-197.232"/>
</g>
<!-- Node51&#45;&gt;Node1 -->
<g id="edge79" class="edge"><title>Node51&#45;&gt;Node1</title>
<path fill="none" stroke="midnightblue" d="M1654.52,-180.494C1638.65,-178.416 1621.26,-176.378 1605.21,-175 1226.71,-142.518 1128.65,-182.115 751.208,-139 739.792,-137.696 727.467,-135.631 716.295,-133.505"/>
<polygon fill="midnightblue" stroke="midnightblue" points="716.908,-130.058 706.42,-131.555 715.552,-136.926 716.908,-130.058"/>
</g>
<!-- Node51&#45;&gt;Node26 -->
<g id="edge80" class="edge"><title>Node51&#45;&gt;Node26</title>
<path fill="none" stroke="midnightblue" d="M1671.18,-180.453C1580.72,-161.353 1357.66,-114.539 1323.21,-110 1057.29,-74.961 732.695,-67.423 631.132,-65.8791"/>
<polygon fill="midnightblue" stroke="midnightblue" points="630.981,-62.3767 620.932,-65.7332 630.88,-69.376 630.981,-62.3767"/>
</g>
<!-- Node51&#45;&gt;Node36 -->
<g id="edge81" class="edge"><title>Node51&#45;&gt;Node36</title>
<path fill="none" stroke="midnightblue" d="M1766.61,-183.605C1870.64,-174.501 2086.39,-154.483 2160.21,-139 2163.6,-138.288 2167.11,-137.417 2170.59,-136.464"/>
<polygon fill="midnightblue" stroke="midnightblue" points="2171.62,-139.812 2180.22,-133.625 2169.64,-133.098 2171.62,-139.812"/>
</g>
<!-- Node53&#45;&gt;Node1 -->
<g id="edge83" class="edge"><title>Node53&#45;&gt;Node1</title>
<path fill="none" stroke="midnightblue" d="M931.318,-175.446C866.337,-162.573 769.322,-143.353 716.595,-132.907"/>
<polygon fill="midnightblue" stroke="midnightblue" points="717.152,-129.449 706.662,-130.939 715.791,-136.316 717.152,-129.449"/>
</g>
<!-- Node53&#45;&gt;Node29 -->
<g id="edge86" class="edge"><title>Node53&#45;&gt;Node29</title>
<path fill="none" stroke="midnightblue" d="M1010.26,-175.337C1033.02,-152.397 1079.81,-105.218 1104,-80.8372"/>
<polygon fill="midnightblue" stroke="midnightblue" points="1106.7,-83.0757 1111.26,-73.5111 1101.73,-78.1462 1106.7,-83.0757"/>
</g>
<!-- Node53&#45;&gt;Node26 -->
<g id="edge84" class="edge"><title>Node53&#45;&gt;Node26</title>
<path fill="none" stroke="midnightblue" d="M969.786,-175.498C933.023,-158.485 865.405,-128.65 805.208,-110 744.602,-91.2239 671.583,-77.4667 630.775,-70.5441"/>
<polygon fill="midnightblue" stroke="midnightblue" points="631.319,-67.0866 620.88,-68.8928 630.167,-73.9911 631.319,-67.0866"/>
</g>
<!-- Node53&#45;&gt;Node36 -->
<g id="edge85" class="edge"><title>Node53&#45;&gt;Node36</title>
<path fill="none" stroke="midnightblue" d="M1072.94,-179.219C1088.24,-177.599 1104.22,-176.087 1119.21,-175 1350.07,-158.259 1932.05,-178.021 2160.21,-139 2163.98,-138.355 2167.87,-137.465 2171.71,-136.446"/>
<polygon fill="midnightblue" stroke="midnightblue" points="2173.01,-139.713 2181.61,-133.528 2171.03,-132.998 2173.01,-139.713"/>
</g>
<!-- Node56&#45;&gt;Node33 -->
<g id="edge99" class="edge"><title>Node56&#45;&gt;Node33</title>
<path fill="none" stroke="midnightblue" d="M2305.73,-303.248C2477.92,-290.918 2893.14,-261.002 2896.21,-259 2959.88,-217.465 2986.9,-122.938 2995.7,-83.404"/>
<polygon fill="midnightblue" stroke="midnightblue" points="2999.12,-84.1093 2997.75,-73.6041 2992.27,-82.6741 2999.12,-84.1093"/>
</g>
<!-- Node57 -->
<g id="node36" class="node"><title>Node57</title>
<g id="a_node36"><a xlink:href="../../d1/d76/Objective_8h.html" target="_top" xlink:title="Declaration file of the Objective class. ">
<polygon fill="white" stroke="red" points="1480.46,-180.5 1480.46,-198.5 1595.95,-198.5 1595.95,-180.5 1480.46,-180.5"/>
<text text-anchor="middle" x="1538.21" y="-186.5" font-family="Helvetica,sans-Serif" font-size="10.00">ocra/optim/Objective.h</text>
</a>
</g>
</g>
<!-- Node56&#45;&gt;Node57 -->
<g id="edge93" class="edge"><title>Node56&#45;&gt;Node57</title>
<path fill="none" stroke="midnightblue" d="M2185.05,-300.482C2061.66,-279.502 1729.56,-223.035 1595.5,-200.241"/>
<polygon fill="midnightblue" stroke="midnightblue" points="1595.87,-196.755 1585.43,-198.529 1594.7,-203.656 1595.87,-196.755"/>
</g>
<!-- Node57&#45;&gt;Node20 -->
<g id="edge94" class="edge"><title>Node57&#45;&gt;Node20</title>
<path fill="none" stroke="midnightblue" d="M1502.59,-180.457C1452.25,-169.09 1360.27,-148.321 1304.94,-135.827"/>
<polygon fill="midnightblue" stroke="midnightblue" points="1305.58,-132.383 1295.06,-133.595 1304.04,-139.211 1305.58,-132.383"/>
</g>
<!-- Node57&#45;&gt;Node64 -->
<g id="edge95" class="edge"><title>Node57&#45;&gt;Node64</title>
<path fill="none" stroke="midnightblue" d="M1595.95,-180.903C1611.31,-178.931 1627.88,-176.844 1643.21,-175 1771.71,-159.545 1921.42,-143.108 2009.48,-133.6"/>
<polygon fill="midnightblue" stroke="midnightblue" points="2010.08,-137.056 2019.64,-132.504 2009.32,-130.097 2010.08,-137.056"/>
</g>
<!-- Node66 -->
<g id="node38" class="node"><title>Node66</title>
<g id="a_node38"><a xlink:href="../../d4/d83/QuadraticFunction_8h.html" target="_top" xlink:title="Declaration file of the QuadraticFunction class. ">
<polygon fill="white" stroke="red" points="2133.45,-55.5 2133.45,-73.5 2288.96,-73.5 2288.96,-55.5 2133.45,-55.5"/>
<text text-anchor="middle" x="2211.21" y="-61.5" font-family="Helvetica,sans-Serif" font-size="10.00">ocra/optim/QuadraticFunction.h</text>
</a>
</g>
</g>
<!-- Node57&#45;&gt;Node66 -->
<g id="edge98" class="edge"><title>Node57&#45;&gt;Node66</title>
<path fill="none" stroke="midnightblue" d="M1513.83,-180.403C1477.14,-167.024 1414.8,-138.896 1442.21,-110 1467.1,-83.7635 2029.73,-77.4211 2123.17,-73.7902"/>
<polygon fill="midnightblue" stroke="midnightblue" points="2123.62,-77.272 2133.43,-73.2721 2123.27,-70.2809 2123.62,-77.272"/>
</g>
<!-- Node64&#45;&gt;Node66 -->
<g id="edge96" class="edge"><title>Node64&#45;&gt;Node66</title>
<path fill="none" stroke="midnightblue" d="M2113.48,-110.484C2134.66,-100.738 2163.44,-87.4905 2184.27,-77.8977"/>
<polygon fill="midnightblue" stroke="midnightblue" points="2185.9,-81.0042 2193.52,-73.6434 2182.97,-74.6456 2185.9,-81.0042"/>
</g>
<!-- Node66&#45;&gt;Node34 -->
<g id="edge97" class="edge"><title>Node66&#45;&gt;Node34</title>
<path fill="none" stroke="midnightblue" d="M2270.29,-55.4504C2344.08,-45.397 2469.49,-28.3102 2542.59,-18.3506"/>
<polygon fill="midnightblue" stroke="midnightblue" points="2543.11,-21.8121 2552.54,-16.9941 2542.16,-14.8762 2543.11,-21.8121"/>
</g>
<!-- Node72&#45;&gt;Node66 -->
<g id="edge102" class="edge"><title>Node72&#45;&gt;Node66</title>
<path fill="none" stroke="midnightblue" d="M2577.24,-296.606C2598.45,-289.368 2619.48,-277.726 2632.21,-259 2676.35,-194.043 2767.46,-245.875 2524.21,-110 2486.77,-89.0913 2378.45,-77.1291 2299.71,-70.981"/>
<polygon fill="midnightblue" stroke="midnightblue" points="2299.53,-67.4572 2289.29,-70.1878 2299,-74.437 2299.53,-67.4572"/>
</g>
<!-- Node73&#45;&gt;Node5 -->
<g id="edge126" class="edge"><title>Node73&#45;&gt;Node5</title>
<path fill="none" stroke="midnightblue" d="M1617.53,-300.482C1679.78,-279.964 1845,-225.507 1916.94,-201.796"/>
<polygon fill="midnightblue" stroke="midnightblue" points="1918.45,-204.983 1926.85,-198.529 1916.26,-198.335 1918.45,-204.983"/>
</g>
<!-- Node73&#45;&gt;Node29 -->
<g id="edge130" class="edge"><title>Node73&#45;&gt;Node29</title>
<path fill="none" stroke="midnightblue" d="M1530.27,-300.497C1425.4,-287.118 1225.55,-261.428 1218.21,-259 1170.42,-243.206 1144.73,-247.382 1119.21,-204 1096.92,-166.114 1106.46,-111.709 1113.74,-83.6978"/>
<polygon fill="midnightblue" stroke="midnightblue" points="1117.21,-84.3087 1116.53,-73.7352 1110.46,-82.4204 1117.21,-84.3087"/>
</g>
<!-- Node73&#45;&gt;Node44 -->
<g id="edge127" class="edge"><title>Node73&#45;&gt;Node44</title>
<path fill="none" stroke="midnightblue" d="M1544.6,-300.44C1532.41,-298.536 1519.34,-296.598 1507.21,-295 1357.43,-275.28 1318.31,-283.333 1169.21,-259 1130.57,-252.695 1121.63,-247.501 1083.21,-240 989.408,-221.686 965.094,-221.866 871.208,-204 865.7,-202.952 859.935,-201.806 854.219,-200.639"/>
<polygon fill="midnightblue" stroke="midnightblue" points="854.548,-197.133 844.046,-198.532 853.128,-203.987 854.548,-197.133"/>
</g>
<!-- Node73&#45;&gt;Node46 -->
<g id="edge125" class="edge"><title>Node73&#45;&gt;Node46</title>
<path fill="none" stroke="midnightblue" d="M1520.7,-303.827C1354.08,-293.089 944.976,-266.725 772.229,-255.592"/>
<polygon fill="midnightblue" stroke="midnightblue" points="772.395,-252.096 762.191,-254.946 771.945,-259.082 772.395,-252.096"/>
</g>
<!-- Node73&#45;&gt;Node57 -->
<g id="edge119" class="edge"><title>Node73&#45;&gt;Node57</title>
<path fill="none" stroke="midnightblue" d="M1600.72,-300.121C1611.67,-286.833 1629.55,-260.348 1618.21,-240 1608.51,-222.587 1589.87,-210.527 1573.03,-202.673"/>
<polygon fill="midnightblue" stroke="midnightblue" points="1573.97,-199.266 1563.4,-198.526 1571.2,-205.696 1573.97,-199.266"/>
</g>
<!-- Node73&#45;&gt;Node64 -->
<g id="edge121" class="edge"><title>Node73&#45;&gt;Node64</title>
<path fill="none" stroke="midnightblue" d="M1665.61,-303.219C1753.34,-294.073 1903.07,-269.451 2013.21,-204 2037.17,-189.76 2057.87,-165.076 2070.85,-147.182"/>
<polygon fill="midnightblue" stroke="midnightblue" points="2074.04,-148.734 2076.91,-138.535 2068.3,-144.717 2074.04,-148.734"/>
</g>
<!-- Node73&#45;&gt;Node66 -->
<g id="edge120" class="edge"><title>Node73&#45;&gt;Node66</title>
<path fill="none" stroke="midnightblue" d="M1603.25,-300.258C1613.29,-291.312 1628.08,-276.007 1634.21,-259 1645.61,-227.364 1605.81,-175.516 1605.21,-175 1559.77,-135.892 1511.51,-186.715 1475.21,-139 1467.4,-128.742 1466.35,-119.363 1475.21,-110 1498.84,-85.0233 2033.2,-77.4714 2123.33,-73.7893"/>
<polygon fill="midnightblue" stroke="midnightblue" points="2123.63,-77.2786 2133.43,-73.2618 2123.26,-70.2882 2123.63,-77.2786"/>
</g>
<!-- Node74 -->
<g id="node41" class="node"><title>Node74</title>
<g id="a_node41"><a xlink:href="../../db/dc5/Solver_8h.html" target="_top" xlink:title="Declaration file of the Solver class. ">
<polygon fill="white" stroke="red" points="1249.41,-240.5 1249.41,-258.5 1351.01,-258.5 1351.01,-240.5 1249.41,-240.5"/>
<text text-anchor="middle" x="1300.21" y="-246.5" font-family="Helvetica,sans-Serif" font-size="10.00">ocra/optim/Solver.h</text>
</a>
</g>
</g>
<!-- Node73&#45;&gt;Node74 -->
<g id="edge107" class="edge"><title>Node73&#45;&gt;Node74</title>
<path fill="none" stroke="midnightblue" d="M1552.77,-300.496C1500.05,-290.06 1407.83,-271.804 1350.61,-260.477"/>
<polygon fill="midnightblue" stroke="midnightblue" points="1351.18,-257.023 1340.7,-258.515 1349.83,-263.89 1351.18,-257.023"/>
</g>
<!-- Node75 -->
<g id="node42" class="node"><title>Node75</title>
<g id="a_node42"><a xlink:href="../../d4/d54/MergedVariable_8h.html" target="_top" xlink:title="ocra/optim/MergedVariable.h">
<polygon fill="white" stroke="black" points="1128.38,-180.5 1128.38,-198.5 1272.04,-198.5 1272.04,-180.5 1128.38,-180.5"/>
<text text-anchor="middle" x="1200.21" y="-186.5" font-family="Helvetica,sans-Serif" font-size="10.00">ocra/optim/MergedVariable.h</text>
</a>
</g>
</g>
<!-- Node73&#45;&gt;Node75 -->
<g id="edge122" class="edge"><title>Node73&#45;&gt;Node75</title>
<path fill="none" stroke="midnightblue" d="M1543.21,-300.464C1531.41,-298.62 1518.87,-296.702 1507.21,-295 1447.96,-286.357 1290.02,-292.217 1240.21,-259 1222.52,-247.205 1211.62,-224.726 1205.75,-208.737"/>
<polygon fill="midnightblue" stroke="midnightblue" points="1208.96,-207.293 1202.47,-198.917 1202.32,-209.51 1208.96,-207.293"/>
</g>
<!-- Node81 -->
<g id="node43" class="node"><title>Node81</title>
<g id="a_node43"><a xlink:href="../../db/d1f/ObjQLD_8h.html" target="_top" xlink:title="Declaration file of the ObjQLD class. This class should be merged with ocra::ObjQLD. It has been created to have a cml&#45;free solver. ">
<polygon fill="white" stroke="black" points="344.245,-240.5 344.245,-258.5 454.17,-258.5 454.17,-240.5 344.245,-240.5"/>
<text text-anchor="middle" x="399.208" y="-246.5" font-family="Helvetica,sans-Serif" font-size="10.00">ocra/optim/ObjQLD.h</text>
</a>
</g>
</g>
<!-- Node73&#45;&gt;Node81 -->
<g id="edge123" class="edge"><title>Node73&#45;&gt;Node81</title>
<path fill="none" stroke="midnightblue" d="M1520.76,-304.981C1305.25,-294.512 670.396,-263.673 464.491,-253.671"/>
<polygon fill="midnightblue" stroke="midnightblue" points="464.592,-250.172 454.434,-253.183 464.252,-257.164 464.592,-250.172"/>
</g>
<!-- Node82 -->
<g id="node44" class="node"><title>Node82</title>
<g id="a_node44"><a xlink:href="../../d8/d25/QuadProg_09_09_8h.html" target="_top" xlink:title="ocra/optim/QuadProg++.h">
<polygon fill="white" stroke="black" points="2491.67,-240.5 2491.67,-258.5 2622.74,-258.5 2622.74,-240.5 2491.67,-240.5"/>
<text text-anchor="middle" x="2557.21" y="-246.5" font-family="Helvetica,sans-Serif" font-size="10.00">ocra/optim/QuadProg++.h</text>
</a>
</g>
</g>
<!-- Node73&#45;&gt;Node82 -->
<g id="edge128" class="edge"><title>Node73&#45;&gt;Node82</title>
<path fill="none" stroke="midnightblue" d="M1665.66,-304.141C1843.49,-293.442 2300.14,-265.967 2481.41,-255.061"/>
<polygon fill="midnightblue" stroke="midnightblue" points="2481.87,-258.539 2491.65,-254.445 2481.45,-251.552 2481.87,-258.539"/>
</g>
<!-- Node83 -->
<g id="node45" class="node"><title>Node83</title>
<polygon fill="white" stroke="#bfbfbf" points="1544.75,-240.5 1544.75,-258.5 1609.67,-258.5 1609.67,-240.5 1544.75,-240.5"/>
<text text-anchor="middle" x="1577.21" y="-246.5" font-family="Helvetica,sans-Serif" font-size="10.00">Eigen/SVD</text>
</g>
<!-- Node73&#45;&gt;Node83 -->
<g id="edge131" class="edge"><title>Node73&#45;&gt;Node83</title>
<path fill="none" stroke="midnightblue" d="M1590.98,-300.435C1588.72,-292.218 1585.12,-279.198 1582.18,-268.514"/>
<polygon fill="midnightblue" stroke="midnightblue" points="1585.55,-267.581 1579.52,-258.872 1578.8,-269.442 1585.55,-267.581"/>
</g>
<!-- Node84 -->
<g id="node46" class="node"><title>Node84</title>
<polygon fill="white" stroke="#bfbfbf" points="1445.69,-240.5 1445.69,-258.5 1526.73,-258.5 1526.73,-240.5 1445.69,-240.5"/>
<text text-anchor="middle" x="1486.21" y="-246.5" font-family="Helvetica,sans-Serif" font-size="10.00">qpOASES.hpp</text>
</g>
<!-- Node73&#45;&gt;Node84 -->
<g id="edge132" class="edge"><title>Node73&#45;&gt;Node84</title>
<path fill="none" stroke="midnightblue" d="M1578.33,-300.435C1560.7,-290.88 1531.09,-274.832 1510.21,-263.511"/>
<polygon fill="midnightblue" stroke="midnightblue" points="1511.76,-260.372 1501.3,-258.683 1508.43,-266.526 1511.76,-260.372"/>
</g>
<!-- Node74&#45;&gt;Node2 -->
<g id="edge118" class="edge"><title>Node74&#45;&gt;Node2</title>
<path fill="none" stroke="midnightblue" d="M1249.22,-244.158C1151.26,-235.595 943.708,-216.295 913.208,-204 893.503,-196.057 893.294,-186.147 875.208,-175 844.072,-155.811 833.448,-156.27 801.208,-139 801.014,-138.896 800.819,-138.792 800.624,-138.686"/>
<polygon fill="midnightblue" stroke="midnightblue" points="802.159,-135.534 791.729,-133.673 798.722,-141.632 802.159,-135.534"/>
</g>
<!-- Node74&#45;&gt;Node6 -->
<g id="edge108" class="edge"><title>Node74&#45;&gt;Node6</title>
<path fill="none" stroke="midnightblue" d="M1315.95,-240.43C1356.72,-219.536 1465.98,-163.544 1515.36,-138.234"/>
<polygon fill="midnightblue" stroke="midnightblue" points="1517.1,-141.276 1524.4,-133.6 1513.91,-135.046 1517.1,-141.276"/>
</g>
<!-- Node74&#45;&gt;Node20 -->
<g id="edge109" class="edge"><title>Node74&#45;&gt;Node20</title>
<path fill="none" stroke="midnightblue" d="M1304.75,-240.419C1311.94,-226.49 1324.14,-197.308 1314.21,-175 1307.56,-160.08 1293.95,-147.77 1281.93,-139.158"/>
<polygon fill="midnightblue" stroke="midnightblue" points="1283.84,-136.223 1273.59,-133.557 1279.94,-142.035 1283.84,-136.223"/>
</g>
<!-- Node74&#45;&gt;Node29 -->
<g id="edge117" class="edge"><title>Node74&#45;&gt;Node29</title>
<path fill="none" stroke="midnightblue" d="M1300.34,-240.138C1300.13,-225.248 1297.6,-193.931 1281.21,-175 1254.08,-143.676 1229.81,-161.797 1195.21,-139 1181.93,-130.252 1151.82,-99.6816 1133.73,-80.8322"/>
<polygon fill="midnightblue" stroke="midnightblue" points="1136.24,-78.3894 1126.81,-73.5693 1131.18,-83.221 1136.24,-78.3894"/>
</g>
<!-- Node74&#45;&gt;Node30 -->
<g id="edge115" class="edge"><title>Node74&#45;&gt;Node30</title>
<path fill="none" stroke="midnightblue" d="M1316.34,-240.408C1346.24,-225.673 1412.56,-194.217 1471.21,-175 1524.16,-157.651 1586.38,-143.98 1630.04,-135.441"/>
<polygon fill="midnightblue" stroke="midnightblue" points="1630.74,-138.871 1639.89,-133.54 1629.41,-131.998 1630.74,-138.871"/>
</g>
<!-- Node74&#45;&gt;Node44 -->
<g id="edge116" class="edge"><title>Node74&#45;&gt;Node44</title>
<path fill="none" stroke="midnightblue" d="M1249.3,-244.385C1170.13,-237.698 1012.82,-223.258 880.208,-204 872.847,-202.931 865.095,-201.658 857.502,-200.327"/>
<polygon fill="midnightblue" stroke="midnightblue" points="858.12,-196.882 847.659,-198.557 856.881,-203.772 858.12,-196.882"/>
</g>
<!-- Node74&#45;&gt;Node57 -->
<g id="edge114" class="edge"><title>Node74&#45;&gt;Node57</title>
<path fill="none" stroke="midnightblue" d="M1333.3,-240.435C1375.54,-230.141 1448.71,-212.31 1495.23,-200.974"/>
<polygon fill="midnightblue" stroke="midnightblue" points="1496.13,-204.358 1505.01,-198.589 1494.47,-197.557 1496.13,-204.358"/>
</g>
<!-- Node74&#45;&gt;Node75 -->
<g id="edge110" class="edge"><title>Node74&#45;&gt;Node75</title>
<path fill="none" stroke="midnightblue" d="M1286.3,-240.435C1269.98,-230.966 1242.66,-215.12 1223.17,-203.818"/>
<polygon fill="midnightblue" stroke="midnightblue" points="1224.72,-200.673 1214.32,-198.683 1221.21,-206.728 1224.72,-200.673"/>
</g>
<!-- Node75&#45;&gt;Node2 -->
<g id="edge113" class="edge"><title>Node75&#45;&gt;Node2</title>
<path fill="none" stroke="midnightblue" d="M1146.33,-180.457C1055.64,-166.917 875.595,-140.039 806.298,-129.694"/>
<polygon fill="midnightblue" stroke="midnightblue" points="806.565,-126.195 796.158,-128.18 805.532,-133.118 806.565,-126.195"/>
</g>
<!-- Node75&#45;&gt;Node20 -->
<g id="edge111" class="edge"><title>Node75&#45;&gt;Node20</title>
<path fill="none" stroke="midnightblue" d="M1207.92,-180.264C1217.25,-170.305 1233.14,-153.336 1244.77,-140.921"/>
<polygon fill="midnightblue" stroke="midnightblue" points="1247.4,-143.23 1251.68,-133.539 1242.29,-138.446 1247.4,-143.23"/>
</g>
<!-- Node75&#45;&gt;Node29 -->
<g id="edge112" class="edge"><title>Node75&#45;&gt;Node29</title>
<path fill="none" stroke="midnightblue" d="M1193.42,-180.328C1185.56,-170.702 1172.36,-154.103 1162.21,-139 1149.74,-120.46 1137.01,-98.1957 1128.67,-83.0649"/>
<polygon fill="midnightblue" stroke="midnightblue" points="1131.51,-80.9689 1123.65,-73.8629 1125.36,-84.3185 1131.51,-80.9689"/>
</g>
<!-- Node81&#45;&gt;Node3 -->
<g id="edge124" class="edge"><title>Node81&#45;&gt;Node3</title>
<path fill="none" stroke="midnightblue" d="M344.011,-240.499C317.401,-234.279 286.504,-223.301 264.208,-204 226.386,-171.26 207.079,-112.87 199.363,-83.4677"/>
<polygon fill="midnightblue" stroke="midnightblue" points="202.754,-82.6013 196.959,-73.732 195.958,-84.2795 202.754,-82.6013"/>
</g>
<!-- Node82&#45;&gt;Node32 -->
<g id="edge129" class="edge"><title>Node82&#45;&gt;Node32</title>
<path fill="none" stroke="midnightblue" d="M2566.39,-240.289C2586.17,-222.466 2634.05,-178.641 2671.21,-139 2688.96,-120.063 2708.02,-97.0162 2720.25,-81.8372"/>
<polygon fill="midnightblue" stroke="midnightblue" points="2723.09,-83.8949 2726.6,-73.8998 2717.62,-79.5219 2723.09,-83.8949"/>
</g>
<!-- Node90&#45;&gt;Node34 -->
<g id="edge134" class="edge"><title>Node90&#45;&gt;Node34</title>
<path fill="none" stroke="midnightblue" d="M1736.93,-423.66C2039.7,-404.38 3105.3,-328.026 3184.21,-204 3219.76,-148.121 3231.23,-103.571 3186.21,-55 3150.81,-16.8118 2799.23,-11.2311 2658.25,-10.5372"/>
<polygon fill="midnightblue" stroke="midnightblue" points="2658.08,-7.03655 2648.07,-10.4938 2658.05,-14.0365 2658.08,-7.03655"/>
</g>
<!-- Node90&#45;&gt;Node42 -->
<g id="edge136" class="edge"><title>Node90&#45;&gt;Node42</title>
<path fill="none" stroke="midnightblue" d="M1706.89,-420.496C1772.33,-409.952 1887.33,-391.425 1957.45,-380.127"/>
<polygon fill="midnightblue" stroke="midnightblue" points="1958.15,-383.561 1967.46,-378.515 1957.03,-376.65 1958.15,-383.561"/>
</g>
<!-- Node90&#45;&gt;Node44 -->
<g id="edge135" class="edge"><title>Node90&#45;&gt;Node44</title>
<path fill="none" stroke="midnightblue" d="M1627.88,-420.489C1539.67,-396.372 1269.08,-322.217 1045.21,-259 974.083,-238.916 891.173,-214.92 844.368,-201.321"/>
<polygon fill="midnightblue" stroke="midnightblue" points="845.247,-197.931 834.668,-198.501 843.293,-204.653 845.247,-197.931"/>
</g>
<!-- Node90&#45;&gt;Node50 -->
<g id="edge137" class="edge"><title>Node90&#45;&gt;Node50</title>
<path fill="none" stroke="midnightblue" d="M1737.08,-428.672C1896.43,-427.075 2244.55,-413.214 2314.21,-324 2344.83,-284.784 2275.89,-266.091 2217.05,-257.457"/>
<polygon fill="midnightblue" stroke="midnightblue" points="2217.34,-253.965 2206.96,-256.058 2216.38,-260.898 2217.34,-253.965"/>
</g>
<!-- Node90&#45;&gt;Node53 -->
<g id="edge138" class="edge"><title>Node90&#45;&gt;Node53</title>
<path fill="none" stroke="midnightblue" d="M1647.14,-420.473C1616.7,-396.683 1522.14,-326.264 1431.21,-295 1313.39,-254.491 1273.24,-292.383 1153.21,-259 1108.92,-246.681 1060.9,-224.072 1030.02,-208.208"/>
<polygon fill="midnightblue" stroke="midnightblue" points="1031.49,-205.029 1021,-203.52 1028.26,-211.239 1031.49,-205.029"/>
</g>
<!-- Node105&#45;&gt;Node42 -->
<g id="edge149" class="edge"><title>Node105&#45;&gt;Node42</title>
<path fill="none" stroke="midnightblue" d="M2246.5,-420.496C2198.93,-410.125 2115.95,-392.03 2063.94,-380.689"/>
<polygon fill="midnightblue" stroke="midnightblue" points="2064.48,-377.226 2053.96,-378.515 2062.99,-384.065 2064.48,-377.226"/>
</g>
<!-- Node105&#45;&gt;Node45 -->
<g id="edge150" class="edge"><title>Node105&#45;&gt;Node45</title>
<path fill="none" stroke="midnightblue" d="M2311.86,-420.455C2345.38,-410.947 2402.52,-394.461 2451.21,-379 2511.17,-359.959 2580.5,-335.866 2620.07,-321.917"/>
<polygon fill="midnightblue" stroke="midnightblue" points="2621.44,-325.145 2629.7,-318.514 2619.11,-318.545 2621.44,-325.145"/>
</g>
<!-- Node105&#45;&gt;Node47 -->
<g id="edge151" class="edge"><title>Node105&#45;&gt;Node47</title>
<path fill="none" stroke="midnightblue" d="M2287.1,-420.308C2303.26,-386.264 2365.33,-255.534 2387.92,-207.95"/>
<polygon fill="midnightblue" stroke="midnightblue" points="2391.21,-209.193 2392.33,-198.658 2384.88,-206.19 2391.21,-209.193"/>
</g>
<!-- Node105&#45;&gt;Node56 -->
<g id="edge146" class="edge"><title>Node105&#45;&gt;Node56</title>
<path fill="none" stroke="midnightblue" d="M2279.7,-420.389C2271.51,-401.443 2250.98,-353.925 2239.78,-328.015"/>
<polygon fill="midnightblue" stroke="midnightblue" points="2242.92,-326.458 2235.74,-318.667 2236.49,-329.235 2242.92,-326.458"/>
</g>
<!-- Node105&#45;&gt;Node64 -->
<g id="edge147" class="edge"><title>Node105&#45;&gt;Node64</title>
<path fill="none" stroke="midnightblue" d="M2289.24,-420.463C2305.46,-397.817 2346.66,-332.682 2314.21,-295 2243.82,-213.27 2144.59,-340.73 2074.21,-259 2067.19,-250.855 2076.05,-184.851 2081.51,-148.803"/>
<polygon fill="midnightblue" stroke="midnightblue" points="2085,-149.092 2083.07,-138.674 2078.09,-148.023 2085,-149.092"/>
</g>
<!-- Node105&#45;&gt;Node72 -->
<g id="edge148" class="edge"><title>Node105&#45;&gt;Node72</title>
<path fill="none" stroke="midnightblue" d="M2315.69,-420.45C2344.96,-412.412 2388.6,-398.45 2423.21,-379 2446.89,-365.69 2470.58,-345.606 2486.73,-330.622"/>
<polygon fill="midnightblue" stroke="midnightblue" points="2489.16,-333.141 2494.02,-323.728 2484.35,-328.055 2489.16,-333.141"/>
</g>
<!-- Node105&#45;&gt;Node73 -->
<g id="edge152" class="edge"><title>Node105&#45;&gt;Node73</title>
<path fill="none" stroke="midnightblue" d="M2215.84,-424.392C2149.13,-418.903 2044.7,-406.458 1958.21,-379 1940.21,-373.287 1938.21,-365.705 1920.21,-360 1839.25,-334.34 1742.69,-321.808 1675.57,-315.799"/>
<polygon fill="midnightblue" stroke="midnightblue" points="1675.74,-312.3 1665.48,-314.924 1675.14,-319.274 1675.74,-312.3"/>
</g>
</g>
</svg>
