<?xml version="1.0" encoding="UTF-8" standalone="no"?>
<!DOCTYPE svg PUBLIC "-//W3C//DTD SVG 1.1//EN"
 "http://www.w3.org/Graphics/SVG/1.1/DTD/svg11.dtd">
<!-- Generated by graphviz version 2.38.0 (20140413.2041)
 -->
<!-- Title: gocra::gOcraContactSetTaskManager Pages: 1 -->
<svg width="210pt" height="270pt"
 viewBox="0.00 0.00 209.88 270.00" xmlns="http://www.w3.org/2000/svg" xmlns:xlink="http://www.w3.org/1999/xlink">
<g id="graph0" class="graph" transform="scale(1 1) rotate(0) translate(4 266)">
<title>gocra::gOcraContactSetTaskManager</title>
<polygon fill="white" stroke="none" points="-4,4 -4,-266 205.881,-266 205.881,4 -4,4"/>
<!-- Node2 -->
<g id="node1" class="node"><title>Node2</title>
<polygon fill="#bfbfbf" stroke="black" points="38.606,-0.5 38.606,-28.5 182.443,-28.5 182.443,-0.5 38.606,-0.5"/>
<text text-anchor="start" x="46.606" y="-16.5" font-family="Helvetica,sans-Serif" font-size="10.00">gocra::gOcraContactSetTask</text>
<text text-anchor="middle" x="110.524" y="-6.5" font-family="Helvetica,sans-Serif" font-size="10.00">Manager</text>
</g>
<!-- Node3 -->
<g id="node2" class="node"><title>Node3</title>
<g id="a_node2"><a xlink:href="../../d5/d16/classgocra_1_1gOcraTaskManagerBase.html" target="_top" xlink:title="Task Manager for the Center of Mass (CoM) task with the gOcra Controllers. ">
<polygon fill="white" stroke="black" points="32.2119,-66.5 32.2119,-84.5 188.837,-84.5 188.837,-66.5 32.2119,-66.5"/>
<text text-anchor="middle" x="110.524" y="-72.5" font-family="Helvetica,sans-Serif" font-size="10.00">gocra::gOcraTaskManagerBase</text>
</a>
</g>
</g>
<!-- Node3&#45;&gt;Node2 -->
<g id="edge1" class="edge"><title>Node3&#45;&gt;Node2</title>
<path fill="none" stroke="midnightblue" d="M110.524,-56.1543C110.524,-47.2359 110.524,-36.7225 110.524,-28.6215"/>
<polygon fill="midnightblue" stroke="midnightblue" points="107.025,-56.2963 110.524,-66.2963 114.025,-56.2963 107.025,-56.2963"/>
</g>
<!-- Node4 -->
<g id="node3" class="node"><title>Node4</title>
<g id="a_node3"><a xlink:href="../../d6/dbf/classgocra_1_1GHCJTController.html" target="_top" xlink:title="gOcra Controller based on LQP solver for the ocra framework. ">
<polygon fill="white" stroke="black" points="48.8989,-131.5 48.8989,-149.5 172.15,-149.5 172.15,-131.5 48.8989,-131.5"/>
<text text-anchor="middle" x="110.524" y="-137.5" font-family="Helvetica,sans-Serif" font-size="10.00">gocra::GHCJTController</text>
</a>
</g>
</g>
<!-- Node4&#45;&gt;Node3 -->
<g id="edge2" class="edge"><title>Node4&#45;&gt;Node3</title>
<path fill="none" stroke="#9a32cd" stroke-dasharray="5,2" d="M110.524,-120.907C110.524,-108.815 110.524,-93.6529 110.524,-84.539"/>
<polygon fill="#9a32cd" stroke="#9a32cd" points="107.025,-121.264 110.524,-131.264 114.025,-121.264 107.025,-121.264"/>
<text text-anchor="middle" x="118.579" y="-105" font-family="Helvetica,sans-Serif" font-size="10.00"> ctrl</text>
</g>
<!-- Node5 -->
<g id="node4" class="node"><title>Node5</title>
<g id="a_node4"><a xlink:href="../../d8/d92/classocra_1_1Controller.html" target="_top" xlink:title="Interface for controllers. ">
<polygon fill="white" stroke="black" points="68.3447,-187.5 68.3447,-205.5 152.704,-205.5 152.704,-187.5 68.3447,-187.5"/>
<text text-anchor="middle" x="110.524" y="-193.5" font-family="Helvetica,sans-Serif" font-size="10.00">ocra::Controller</text>
</a>
</g>
</g>
<!-- Node5&#45;&gt;Node4 -->
<g id="edge3" class="edge"><title>Node5&#45;&gt;Node4</title>
<path fill="none" stroke="midnightblue" d="M110.524,-176.829C110.524,-167.577 110.524,-156.88 110.524,-149.701"/>
<polygon fill="midnightblue" stroke="midnightblue" points="107.025,-177.062 110.524,-187.062 114.025,-177.063 107.025,-177.062"/>
</g>
<!-- Node6 -->
<g id="node5" class="node"><title>Node6</title>
<g id="a_node5"><a xlink:href="../../db/de3/classocra_1_1NamedInstance.html" target="_top" xlink:title="ocra::NamedInstance">
<polygon fill="white" stroke="black" points="0,-243.5 0,-261.5 111.049,-261.5 111.049,-243.5 0,-243.5"/>
<text text-anchor="middle" x="55.5244" y="-249.5" font-family="Helvetica,sans-Serif" font-size="10.00">ocra::NamedInstance</text>
</a>
</g>
</g>
<!-- Node6&#45;&gt;Node5 -->
<g id="edge4" class="edge"><title>Node6&#45;&gt;Node5</title>
<path fill="none" stroke="midnightblue" d="M71.495,-235.82C81.5261,-225.971 94.0564,-213.669 102.171,-205.701"/>
<polygon fill="midnightblue" stroke="midnightblue" points="68.8018,-233.559 64.1182,-243.062 73.7059,-238.554 68.8018,-233.559"/>
</g>
<!-- Node7 -->
<g id="node6" class="node"><title>Node7</title>
<polygon fill="white" stroke="#bfbfbf" points="129.167,-243.5 129.167,-261.5 201.881,-261.5 201.881,-243.5 129.167,-243.5"/>
<text text-anchor="middle" x="165.524" y="-249.5" font-family="Helvetica,sans-Serif" font-size="10.00">noncopyable</text>
</g>
<!-- Node7&#45;&gt;Node5 -->
<g id="edge5" class="edge"><title>Node7&#45;&gt;Node5</title>
<path fill="none" stroke="#8b1a1a" d="M149.554,-235.82C139.523,-225.971 126.992,-213.669 118.878,-205.701"/>
<polygon fill="#8b1a1a" stroke="#8b1a1a" points="147.343,-238.554 156.931,-243.062 152.247,-233.559 147.343,-238.554"/>
</g>
</g>
</svg>
