<?xml version="1.0" encoding="UTF-8" standalone="no"?>
<!DOCTYPE svg PUBLIC "-//W3C//DTD SVG 1.1//EN"
 "http://www.w3.org/Graphics/SVG/1.1/DTD/svg11.dtd">
<!-- Generated by graphviz version 2.38.0 (20140413.2041)
 -->
<!-- Title: ocra::Feature Pages: 1 -->
<svg width="422pt" height="249pt"
 viewBox="0.00 0.00 422.03 249.00" xmlns="http://www.w3.org/2000/svg" xmlns:xlink="http://www.w3.org/1999/xlink">
<g id="graph0" class="graph" transform="scale(1 1) rotate(0) translate(4 245)">
<title>ocra::Feature</title>
<polygon fill="white" stroke="none" points="-4,4 -4,-245 418.033,-245 418.033,4 -4,4"/>
<!-- Node0 -->
<g id="node1" class="node"><title>Node0</title>
<polygon fill="#bfbfbf" stroke="black" points="147.049,-111.5 147.049,-129.5 222.521,-129.5 222.521,-111.5 147.049,-111.5"/>
<text text-anchor="middle" x="184.785" y="-117.5" font-family="Helvetica,sans-Serif" font-size="10.00">ocra::Feature</text>
</g>
<!-- Node3 -->
<g id="node4" class="node"><title>Node3</title>
<g id="a_node4"><a xlink:href="../../d3/dd9/classocra_1_1ContactConstraintFeature.html" target="_top" xlink:title="Used to build contact constraint tasks (null acceleration). ">
<polygon fill="white" stroke="black" points="258.521,-222.5 258.521,-240.5 414.033,-240.5 414.033,-222.5 258.521,-222.5"/>
<text text-anchor="middle" x="336.277" y="-228.5" font-family="Helvetica,sans-Serif" font-size="10.00">ocra::ContactConstraintFeature</text>
</a>
</g>
</g>
<!-- Node0&#45;&gt;Node3 -->
<g id="edge3" class="edge"><title>Node0&#45;&gt;Node3</title>
<path fill="none" stroke="midnightblue" d="M194.941,-138.556C206.702,-159.853 229.149,-194.727 258.521,-213.5 264.288,-217.186 270.73,-220.118 277.363,-222.451"/>
<polygon fill="midnightblue" stroke="midnightblue" points="197.954,-136.767 190.173,-129.577 191.772,-140.051 197.954,-136.767"/>
</g>
<!-- Node4 -->
<g id="node5" class="node"><title>Node4</title>
<g id="a_node5"><a xlink:href="../../dd/dda/classocra_1_1DisplacementFeature.html" target="_top" xlink:title="Used to build position/orientation tasks. ">
<polygon fill="white" stroke="black" points="268.25,-185.5 268.25,-203.5 404.304,-203.5 404.304,-185.5 268.25,-185.5"/>
<text text-anchor="middle" x="336.277" y="-191.5" font-family="Helvetica,sans-Serif" font-size="10.00">ocra::DisplacementFeature</text>
</a>
</g>
</g>
<!-- Node0&#45;&gt;Node4 -->
<g id="edge4" class="edge"><title>Node0&#45;&gt;Node4</title>
<path fill="none" stroke="midnightblue" d="M202.098,-136.386C216.007,-149.064 237.099,-166.33 258.521,-176.5 266.188,-180.139 274.642,-183.072 283.054,-185.426"/>
<polygon fill="midnightblue" stroke="midnightblue" points="204.481,-133.823 194.791,-129.54 199.696,-138.931 204.481,-133.823"/>
</g>
<!-- Node5 -->
<g id="node6" class="node"><title>Node5</title>
<g id="a_node6"><a xlink:href="../../d4/d65/classocra_1_1FullStateFeature.html" target="_top" xlink:title="Used to build tasks in the manikin configuration space. ">
<polygon fill="white" stroke="black" points="278.81,-148.5 278.81,-166.5 393.745,-166.5 393.745,-148.5 278.81,-148.5"/>
<text text-anchor="middle" x="336.277" y="-154.5" font-family="Helvetica,sans-Serif" font-size="10.00">ocra::FullStateFeature</text>
</a>
</g>
</g>
<!-- Node0&#45;&gt;Node5 -->
<g id="edge5" class="edge"><title>Node0&#45;&gt;Node5</title>
<path fill="none" stroke="midnightblue" d="M229.503,-132.11C239.055,-134.594 249.119,-137.17 258.521,-139.5 270.611,-142.496 283.804,-145.637 295.789,-148.44"/>
<polygon fill="midnightblue" stroke="midnightblue" points="230.344,-128.713 219.784,-129.57 228.573,-135.485 230.344,-128.713"/>
</g>
<!-- Node6 -->
<g id="node7" class="node"><title>Node6</title>
<g id="a_node7"><a xlink:href="../../d0/d2e/classocra_1_1OrientationFeature.html" target="_top" xlink:title="Used to build orientation tasks. ">
<polygon fill="white" stroke="black" points="274.083,-111.5 274.083,-129.5 398.472,-129.5 398.472,-111.5 274.083,-111.5"/>
<text text-anchor="middle" x="336.277" y="-117.5" font-family="Helvetica,sans-Serif" font-size="10.00">ocra::OrientationFeature</text>
</a>
</g>
</g>
<!-- Node0&#45;&gt;Node6 -->
<g id="edge6" class="edge"><title>Node0&#45;&gt;Node6</title>
<path fill="none" stroke="midnightblue" d="M232.887,-120.5C245.937,-120.5 260.296,-120.5 274.027,-120.5"/>
<polygon fill="midnightblue" stroke="midnightblue" points="232.738,-117 222.738,-120.5 232.738,-124 232.738,-117"/>
</g>
<!-- Node7 -->
<g id="node8" class="node"><title>Node7</title>
<g id="a_node8"><a xlink:href="../../dc/daf/classocra_1_1PartialStateFeature.html" target="_top" xlink:title="Used to build tasks in a partial configuration space. ">
<polygon fill="white" stroke="black" points="272.694,-74.5 272.694,-92.5 399.861,-92.5 399.861,-74.5 272.694,-74.5"/>
<text text-anchor="middle" x="336.277" y="-80.5" font-family="Helvetica,sans-Serif" font-size="10.00">ocra::PartialStateFeature</text>
</a>
</g>
</g>
<!-- Node0&#45;&gt;Node7 -->
<g id="edge7" class="edge"><title>Node0&#45;&gt;Node7</title>
<path fill="none" stroke="midnightblue" d="M229.503,-108.89C239.055,-106.406 249.119,-103.83 258.521,-101.5 270.611,-98.5039 283.804,-95.3634 295.789,-92.5598"/>
<polygon fill="midnightblue" stroke="midnightblue" points="228.573,-105.515 219.784,-111.43 230.344,-112.287 228.573,-105.515"/>
</g>
<!-- Node8 -->
<g id="node9" class="node"><title>Node8</title>
<g id="a_node9"><a xlink:href="../../d4/d58/classocra_1_1PointContactFeature.html" target="_top" xlink:title="Used to build point contact tasks. ">
<polygon fill="white" stroke="black" points="269.913,-37.5 269.913,-55.5 402.642,-55.5 402.642,-37.5 269.913,-37.5"/>
<text text-anchor="middle" x="336.277" y="-43.5" font-family="Helvetica,sans-Serif" font-size="10.00">ocra::PointContactFeature</text>
</a>
</g>
</g>
<!-- Node0&#45;&gt;Node8 -->
<g id="edge8" class="edge"><title>Node0&#45;&gt;Node8</title>
<path fill="none" stroke="midnightblue" d="M202.098,-104.614C216.007,-91.9364 237.099,-74.6699 258.521,-64.5 266.188,-60.8607 274.642,-57.9283 283.054,-55.574"/>
<polygon fill="midnightblue" stroke="midnightblue" points="199.696,-102.069 194.791,-111.46 204.481,-107.177 199.696,-102.069"/>
</g>
<!-- Node9 -->
<g id="node10" class="node"><title>Node9</title>
<g id="a_node10"><a xlink:href="../../d7/d01/classocra_1_1PositionFeature.html" target="_top" xlink:title="Used to build positioning tasks. ">
<polygon fill="white" stroke="black" points="280.753,-0.5 280.753,-18.5 391.802,-18.5 391.802,-0.5 280.753,-0.5"/>
<text text-anchor="middle" x="336.277" y="-6.5" font-family="Helvetica,sans-Serif" font-size="10.00">ocra::PositionFeature</text>
</a>
</g>
</g>
<!-- Node0&#45;&gt;Node9 -->
<g id="edge9" class="edge"><title>Node0&#45;&gt;Node9</title>
<path fill="none" stroke="midnightblue" d="M194.941,-102.444C206.702,-81.1466 229.149,-46.2732 258.521,-27.5 265.211,-23.2248 272.809,-19.9628 280.56,-17.4744"/>
<polygon fill="midnightblue" stroke="midnightblue" points="191.772,-100.949 190.173,-111.423 197.954,-104.233 191.772,-100.949"/>
</g>
<!-- Node1 -->
<g id="node2" class="node"><title>Node1</title>
<g id="a_node2"><a xlink:href="../../db/de3/classocra_1_1NamedInstance.html" target="_top" xlink:title="ocra::NamedInstance">
<polygon fill="white" stroke="black" points="0,-130.5 0,-148.5 111.049,-148.5 111.049,-130.5 0,-130.5"/>
<text text-anchor="middle" x="55.5244" y="-136.5" font-family="Helvetica,sans-Serif" font-size="10.00">ocra::NamedInstance</text>
</a>
</g>
</g>
<!-- Node1&#45;&gt;Node0 -->
<g id="edge1" class="edge"><title>Node1&#45;&gt;Node0</title>
<path fill="none" stroke="midnightblue" d="M121.131,-129.854C129.919,-128.542 138.683,-127.234 146.752,-126.029"/>
<polygon fill="midnightblue" stroke="midnightblue" points="120.607,-126.394 111.233,-131.332 121.64,-133.317 120.607,-126.394"/>
</g>
<!-- Node2 -->
<g id="node3" class="node"><title>Node2</title>
<polygon fill="white" stroke="#bfbfbf" points="4.15771,-93.5 4.15771,-111.5 106.891,-111.5 106.891,-93.5 4.15771,-93.5"/>
<text text-anchor="middle" x="55.5244" y="-99.5" font-family="Helvetica,sans-Serif" font-size="10.00">boost::noncopyable</text>
</g>
<!-- Node2&#45;&gt;Node0 -->
<g id="edge2" class="edge"><title>Node2&#45;&gt;Node0</title>
<path fill="none" stroke="#8b1a1a" d="M117.278,-111.093C127.44,-112.53 137.7,-113.982 147.019,-115.3"/>
<polygon fill="#8b1a1a" stroke="#8b1a1a" points="117.579,-107.601 107.187,-109.666 116.598,-114.532 117.579,-107.601"/>
</g>
</g>
</svg>
