<?xml version="1.0" encoding="UTF-8" standalone="no"?>
<!DOCTYPE svg PUBLIC "-//W3C//DTD SVG 1.1//EN"
 "http://www.w3.org/Graphics/SVG/1.1/DTD/svg11.dtd">
<!-- Generated by graphviz version 2.38.0 (20140413.2041)
 -->
<!-- Title: ocra::CartesianTaskBuilder Pages: 1 -->
<svg width="160pt" height="263pt"
 viewBox="0.00 0.00 160.06 263.00" xmlns="http://www.w3.org/2000/svg" xmlns:xlink="http://www.w3.org/1999/xlink">
<g id="graph0" class="graph" transform="scale(1 1) rotate(0) translate(4 259)">
<title>ocra::CartesianTaskBuilder</title>
<polygon fill="white" stroke="none" points="-4,4 -4,-259 156.065,-259 156.065,4 -4,4"/>
<!-- Node2 -->
<g id="node1" class="node"><title>Node2</title>
<polygon fill="#bfbfbf" stroke="black" points="0,-0.5 0,-18.5 135.497,-18.5 135.497,-0.5 0,-0.5"/>
<text text-anchor="middle" x="67.7485" y="-6.5" font-family="Helvetica,sans-Serif" font-size="10.00">ocra::CartesianTaskBuilder</text>
</g>
<!-- Node3 -->
<g id="node2" class="node"><title>Node3</title>
<g id="a_node2"><a xlink:href="../../d6/d6a/classocra_1_1TaskBuilder.html" target="_top" xlink:title="ocra::TaskBuilder">
<polygon fill="white" stroke="black" points="21.3989,-56.5 21.3989,-74.5 114.098,-74.5 114.098,-56.5 21.3989,-56.5"/>
<text text-anchor="middle" x="67.7485" y="-62.5" font-family="Helvetica,sans-Serif" font-size="10.00">ocra::TaskBuilder</text>
</a>
</g>
</g>
<!-- Node3&#45;&gt;Node2 -->
<g id="edge1" class="edge"><title>Node3&#45;&gt;Node2</title>
<path fill="none" stroke="midnightblue" d="M67.7485,-45.8288C67.7485,-36.5774 67.7485,-25.8798 67.7485,-18.7014"/>
<polygon fill="midnightblue" stroke="midnightblue" points="64.2486,-46.0625 67.7485,-56.0625 71.2486,-46.0625 64.2486,-46.0625"/>
</g>
<!-- Node4 -->
<g id="node3" class="node"><title>Node4</title>
<g id="a_node3"><a xlink:href="../../d9/d2f/classocra_1_1TaskBuilderOptions.html" target="_top" xlink:title="ocra::TaskBuilderOptions">
<polygon fill="white" stroke="black" points="4.16748,-121.5 4.16748,-139.5 131.33,-139.5 131.33,-121.5 4.16748,-121.5"/>
<text text-anchor="middle" x="67.7485" y="-127.5" font-family="Helvetica,sans-Serif" font-size="10.00">ocra::TaskBuilderOptions</text>
</a>
</g>
</g>
<!-- Node4&#45;&gt;Node3 -->
<g id="edge2" class="edge"><title>Node4&#45;&gt;Node3</title>
<path fill="none" stroke="#9a32cd" stroke-dasharray="5,2" d="M67.7485,-110.907C67.7485,-98.8146 67.7485,-83.6529 67.7485,-74.539"/>
<polygon fill="#9a32cd" stroke="#9a32cd" points="64.2486,-111.264 67.7485,-121.264 71.2486,-111.264 64.2486,-111.264"/>
<text text-anchor="middle" x="85.2607" y="-95" font-family="Helvetica,sans-Serif" font-size="10.00"> options</text>
</g>
<!-- Node5 -->
<g id="node4" class="node"><title>Node5</title>
<polygon fill="white" stroke="#bfbfbf" points="39.4556,-236.5 39.4556,-254.5 96.0415,-254.5 96.0415,-236.5 39.4556,-236.5"/>
<text text-anchor="middle" x="67.7485" y="-242.5" font-family="Helvetica,sans-Serif" font-size="10.00">VectorXd</text>
</g>
<!-- Node5&#45;&gt;Node4 -->
<g id="edge3" class="edge"><title>Node5&#45;&gt;Node4</title>
<path fill="none" stroke="#9a32cd" stroke-dasharray="5,2" d="M67.7485,-226.071C67.7485,-201.073 67.7485,-157.482 67.7485,-139.553"/>
<polygon fill="#9a32cd" stroke="#9a32cd" points="64.2486,-226.373 67.7485,-236.373 71.2486,-226.373 64.2486,-226.373"/>
<text text-anchor="middle" x="109.907" y="-210" font-family="Helvetica,sans-Serif" font-size="10.00"> nameDesired</text>
<text text-anchor="middle" x="109.907" y="-200" font-family="Helvetica,sans-Serif" font-size="10.00">indexDesired</text>
<text text-anchor="middle" x="109.907" y="-190" font-family="Helvetica,sans-Serif" font-size="10.00">desired</text>
<text text-anchor="middle" x="109.907" y="-180" font-family="Helvetica,sans-Serif" font-size="10.00">indexWeightVector</text>
<text text-anchor="middle" x="109.907" y="-170" font-family="Helvetica,sans-Serif" font-size="10.00">weightVector</text>
<text text-anchor="middle" x="109.907" y="-160" font-family="Helvetica,sans-Serif" font-size="10.00">nameWeightVector</text>
</g>
</g>
</svg>
