<?xml version="1.0" encoding="UTF-8" standalone="no"?>
<!DOCTYPE svg PUBLIC "-//W3C//DTD SVG 1.1//EN"
 "http://www.w3.org/Graphics/SVG/1.1/DTD/svg11.dtd">
<!-- Generated by graphviz version 2.38.0 (20140413.2041)
 -->
<!-- Title: ContactSet.h Pages: 1 -->
<svg width="3448pt" height="737pt"
 viewBox="0.00 0.00 3448.00 737.00" xmlns="http://www.w3.org/2000/svg" xmlns:xlink="http://www.w3.org/1999/xlink">
<g id="graph0" class="graph" transform="scale(1 1) rotate(0) translate(4 733)">
<title>ContactSet.h</title>
<polygon fill="white" stroke="none" points="-4,4 -4,-733 3444,-733 3444,4 -4,4"/>
<!-- Node0 -->
<g id="node1" class="node"><title>Node0</title>
<polygon fill="#bfbfbf" stroke="black" points="1455.09,-710.5 1455.09,-728.5 1528.91,-728.5 1528.91,-710.5 1455.09,-710.5"/>
<text text-anchor="middle" x="1492" y="-716.5" font-family="Helvetica,sans-Serif" font-size="10.00">ContactSet.h</text>
</g>
<!-- Node1 -->
<g id="node2" class="node"><title>Node1</title>
<g id="a_node2"><a xlink:href="../../df/d97/NamedInstance_8h.html" target="_top" xlink:title="ocra/optim/NamedInstance.h">
<polygon fill="white" stroke="black" points="2565.08,-120.5 2565.08,-138.5 2708.92,-138.5 2708.92,-120.5 2565.08,-120.5"/>
<text text-anchor="middle" x="2637" y="-126.5" font-family="Helvetica,sans-Serif" font-size="10.00">ocra/optim/NamedInstance.h</text>
</a>
</g>
</g>
<!-- Node0&#45;&gt;Node1 -->
<g id="edge1" class="edge"><title>Node0&#45;&gt;Node1</title>
<path fill="none" stroke="midnightblue" d="M1529.02,-718.207C1762.92,-716.264 3031.37,-704.385 3201,-674 3293.9,-657.36 3402,-699.879 3402,-605.5 3402,-605.5 3402,-605.5 3402,-423.5 3402,-259.099 3278.64,-240.841 3128,-175 3056.84,-143.898 2839.86,-134.53 2719.54,-131.711"/>
<polygon fill="midnightblue" stroke="midnightblue" points="2719.35,-128.206 2709.27,-131.481 2719.19,-135.204 2719.35,-128.206"/>
</g>
<!-- Node3 -->
<g id="node4" class="node"><title>Node3</title>
<polygon fill="white" stroke="#bfbfbf" points="2621.6,-355.5 2621.6,-373.5 2690.4,-373.5 2690.4,-355.5 2621.6,-355.5"/>
<text text-anchor="middle" x="2656" y="-361.5" font-family="Helvetica,sans-Serif" font-size="10.00">Eigen/Lgsm</text>
</g>
<!-- Node0&#45;&gt;Node3 -->
<g id="edge3" class="edge"><title>Node0&#45;&gt;Node3</title>
<path fill="none" stroke="midnightblue" d="M1529.1,-717.677C1758.88,-712.34 2978,-680.492 2978,-605.5 2978,-605.5 2978,-605.5 2978,-478.5 2978,-449.293 2786.95,-398.035 2699.17,-376.026"/>
<polygon fill="midnightblue" stroke="midnightblue" points="2699.8,-372.575 2689.25,-373.552 2698.1,-379.367 2699.8,-372.575"/>
</g>
<!-- Node4 -->
<g id="node5" class="node"><title>Node4</title>
<polygon fill="white" stroke="#bfbfbf" points="2865.02,-290.5 2865.02,-308.5 2974.98,-308.5 2974.98,-290.5 2865.02,-290.5"/>
<text text-anchor="middle" x="2920" y="-296.5" font-family="Helvetica,sans-Serif" font-size="10.00">boost/shared_ptr.hpp</text>
</g>
<!-- Node0&#45;&gt;Node4 -->
<g id="edge4" class="edge"><title>Node0&#45;&gt;Node4</title>
<path fill="none" stroke="midnightblue" d="M1529.03,-718.446C1736.12,-717.99 2752.43,-713.735 3063,-674 3182.81,-658.671 3326,-726.289 3326,-605.5 3326,-605.5 3326,-605.5 3326,-538.5 3326,-423.578 3249.02,-406.59 3149,-350 3098.43,-321.39 3033,-309.296 2985.04,-304.195"/>
<polygon fill="midnightblue" stroke="midnightblue" points="2985.37,-300.711 2975.08,-303.209 2984.68,-307.677 2985.37,-300.711"/>
</g>
<!-- Node5 -->
<g id="node6" class="node"><title>Node5</title>
<polygon fill="white" stroke="#bfbfbf" points="1370.38,-65.5 1370.38,-83.5 1413.62,-83.5 1413.62,-65.5 1370.38,-65.5"/>
<text text-anchor="middle" x="1392" y="-71.5" font-family="Helvetica,sans-Serif" font-size="10.00">vector</text>
</g>
<!-- Node0&#45;&gt;Node5 -->
<g id="edge5" class="edge"><title>Node0&#45;&gt;Node5</title>
<path fill="none" stroke="midnightblue" d="M1454.84,-718.292C1234.97,-716.945 111.688,-708.397 48,-674 15.2907,-656.334 0,-642.675 0,-605.5 0,-605.5 0,-605.5 0,-423.5 0,-346.522 36.2681,-321.578 104,-285 332.443,-161.63 1184.28,-91.237 1360.12,-77.8509"/>
<polygon fill="midnightblue" stroke="midnightblue" points="1360.56,-81.3281 1370.27,-77.0851 1360.03,-74.3479 1360.56,-81.3281"/>
</g>
<!-- Node6 -->
<g id="node7" class="node"><title>Node6</title>
<polygon fill="white" stroke="#bfbfbf" points="1499.94,-120.5 1499.94,-138.5 1552.06,-138.5 1552.06,-120.5 1499.94,-120.5"/>
<text text-anchor="middle" x="1526" y="-126.5" font-family="Helvetica,sans-Serif" font-size="10.00">memory</text>
</g>
<!-- Node0&#45;&gt;Node6 -->
<g id="edge6" class="edge"><title>Node0&#45;&gt;Node6</title>
<path fill="none" stroke="midnightblue" d="M1454.86,-718.049C1280.17,-715.785 539.256,-704.525 310,-674 186.427,-657.547 38,-730.163 38,-605.5 38,-605.5 38,-605.5 38,-423.5 38,-337.229 94.2477,-317.897 174,-285 244.189,-256.048 1110.4,-176.884 1129,-175 1286.56,-159.036 1329.85,-165.849 1489.52,-139.03"/>
<polygon fill="midnightblue" stroke="midnightblue" points="1490.44,-142.425 1499.71,-137.3 1489.26,-135.524 1490.44,-142.425"/>
</g>
<!-- Node7 -->
<g id="node8" class="node"><title>Node7</title>
<g id="a_node8"><a xlink:href="../../d3/dcf/Constraint_8h.html" target="_top" xlink:title="Declaration file of the Constraint class. ">
<polygon fill="white" stroke="black" points="738.311,-415.5 738.311,-433.5 857.689,-433.5 857.689,-415.5 738.311,-415.5"/>
<text text-anchor="middle" x="798" y="-421.5" font-family="Helvetica,sans-Serif" font-size="10.00">ocra/optim/Constraint.h</text>
</a>
</g>
</g>
<!-- Node0&#45;&gt;Node7 -->
<g id="edge7" class="edge"><title>Node0&#45;&gt;Node7</title>
<path fill="none" stroke="midnightblue" d="M1454.79,-718.097C1316.9,-716.349 835.307,-707.899 686,-674 608.168,-656.329 520,-685.312 520,-605.5 520,-605.5 520,-605.5 520,-538.5 520,-490.287 665.312,-452.723 745.82,-435.611"/>
<polygon fill="midnightblue" stroke="midnightblue" points="746.706,-439.001 755.778,-433.528 745.273,-432.149 746.706,-439.001"/>
</g>
<!-- Node43 -->
<g id="node21" class="node"><title>Node43</title>
<g id="a_node21"><a xlink:href="../../d9/d0f/LinearizedCoulombFunction_8h.html" target="_top" xlink:title="Declaration file of the LinearizedCoulombFunction class. ">
<polygon fill="white" stroke="black" points="548.188,-525.5 548.188,-553.5 699.812,-553.5 699.812,-525.5 548.188,-525.5"/>
<text text-anchor="start" x="556.188" y="-541.5" font-family="Helvetica,sans-Serif" font-size="10.00">ocra/optim/LinearizedCoulomb</text>
<text text-anchor="middle" x="624" y="-531.5" font-family="Helvetica,sans-Serif" font-size="10.00">Function.h</text>
</a>
</g>
</g>
<!-- Node0&#45;&gt;Node43 -->
<g id="edge34" class="edge"><title>Node0&#45;&gt;Node43</title>
<path fill="none" stroke="midnightblue" d="M1455.01,-718.298C1309.16,-717.244 778.818,-710.887 714,-674 670.784,-649.406 644.17,-594.53 631.953,-563.332"/>
<polygon fill="midnightblue" stroke="midnightblue" points="635.145,-561.874 628.359,-553.737 628.59,-564.33 635.145,-561.874"/>
</g>
<!-- Node44 -->
<g id="node22" class="node"><title>Node44</title>
<g id="a_node22"><a xlink:href="../../d8/d6a/WeightedSquareDistanceFunction_8h.html" target="_top" xlink:title="Declaration file of the WeightedSquareDistanceFunction class. ">
<polygon fill="white" stroke="black" points="756.11,-525.5 756.11,-553.5 895.89,-553.5 895.89,-525.5 756.11,-525.5"/>
<text text-anchor="start" x="764.11" y="-541.5" font-family="Helvetica,sans-Serif" font-size="10.00">ocra/optim/WeightedSquare</text>
<text text-anchor="middle" x="826" y="-531.5" font-family="Helvetica,sans-Serif" font-size="10.00">DistanceFunction.h</text>
</a>
</g>
</g>
<!-- Node0&#45;&gt;Node44 -->
<g id="edge36" class="edge"><title>Node0&#45;&gt;Node44</title>
<path fill="none" stroke="midnightblue" d="M1461.65,-710.389C1358.75,-682.887 1021.88,-592.852 884.807,-556.217"/>
<polygon fill="midnightblue" stroke="midnightblue" points="885.463,-552.77 874.899,-553.569 883.656,-559.532 885.463,-552.77"/>
</g>
<!-- Node46 -->
<g id="node24" class="node"><title>Node46</title>
<g id="a_node24"><a xlink:href="../../d1/d76/Objective_8h.html" target="_top" xlink:title="Declaration file of the Objective class. ">
<polygon fill="white" stroke="black" points="1095.26,-415.5 1095.26,-433.5 1210.74,-433.5 1210.74,-415.5 1095.26,-415.5"/>
<text text-anchor="middle" x="1153" y="-421.5" font-family="Helvetica,sans-Serif" font-size="10.00">ocra/optim/Objective.h</text>
</a>
</g>
</g>
<!-- Node0&#45;&gt;Node46 -->
<g id="edge40" class="edge"><title>Node0&#45;&gt;Node46</title>
<path fill="none" stroke="midnightblue" d="M1454.89,-716.976C1301.89,-710.21 728,-679.874 728,-605.5 728,-605.5 728,-605.5 728,-538.5 728,-465.519 965.02,-438.522 1085.05,-429.529"/>
<polygon fill="midnightblue" stroke="midnightblue" points="1085.52,-433.004 1095.24,-428.787 1085.01,-426.022 1085.52,-433.004"/>
</g>
<!-- Node48 -->
<g id="node26" class="node"><title>Node48</title>
<polygon fill="white" stroke="#bfbfbf" points="183.219,-290.5 183.219,-308.5 234.781,-308.5 234.781,-290.5 183.219,-290.5"/>
<text text-anchor="middle" x="209" y="-296.5" font-family="Helvetica,sans-Serif" font-size="10.00">sstream</text>
</g>
<!-- Node0&#45;&gt;Node48 -->
<g id="edge156" class="edge"><title>Node0&#45;&gt;Node48</title>
<path fill="none" stroke="midnightblue" d="M1454.85,-717.535C1231.44,-711.491 76,-676.787 76,-605.5 76,-605.5 76,-605.5 76,-423.5 76,-367.977 139.249,-330.538 178.513,-312.646"/>
<polygon fill="midnightblue" stroke="midnightblue" points="180.173,-315.741 187.926,-308.52 177.362,-309.33 180.173,-315.741"/>
</g>
<!-- Node49 -->
<g id="node27" class="node"><title>Node49</title>
<g id="a_node27"><a xlink:href="../../d3/d5a/Model_8h.html" target="_top" xlink:title="Declaration file of the Model class. ">
<polygon fill="white" stroke="black" points="1939.7,-415.5 1939.7,-433.5 2046.3,-433.5 2046.3,-415.5 1939.7,-415.5"/>
<text text-anchor="middle" x="1993" y="-421.5" font-family="Helvetica,sans-Serif" font-size="10.00">ocra/control/Model.h</text>
</a>
</g>
</g>
<!-- Node0&#45;&gt;Node49 -->
<g id="edge52" class="edge"><title>Node0&#45;&gt;Node49</title>
<path fill="none" stroke="midnightblue" d="M1529.02,-717.731C1641.89,-714.395 1974,-696.821 1974,-605.5 1974,-605.5 1974,-605.5 1974,-538.5 1974,-504.464 1982.49,-465.449 1988.12,-443.313"/>
<polygon fill="midnightblue" stroke="midnightblue" points="1991.5,-444.207 1990.67,-433.644 1984.73,-442.419 1991.5,-444.207"/>
</g>
<!-- Node53 -->
<g id="node33" class="node"><title>Node53</title>
<g id="a_node33"><a xlink:href="../../db/d3d/ControlFrame_8h.html" target="_top" xlink:title="Classes that represent frames. ">
<polygon fill="white" stroke="black" points="3005.75,-415.5 3005.75,-433.5 3146.25,-433.5 3146.25,-415.5 3005.75,-415.5"/>
<text text-anchor="middle" x="3076" y="-421.5" font-family="Helvetica,sans-Serif" font-size="10.00">ocra/control/ControlFrame.h</text>
</a>
</g>
</g>
<!-- Node0&#45;&gt;Node53 -->
<g id="edge66" class="edge"><title>Node0&#45;&gt;Node53</title>
<path fill="none" stroke="midnightblue" d="M1528.99,-718.314C1745.68,-717.102 2845.98,-709.244 2992,-674 3060.89,-657.371 3136,-676.372 3136,-605.5 3136,-605.5 3136,-605.5 3136,-538.5 3136,-499.846 3108.27,-461.527 3090.52,-440.95"/>
<polygon fill="midnightblue" stroke="midnightblue" points="3093.12,-438.613 3083.84,-433.5 3087.91,-443.284 3093.12,-438.613"/>
</g>
<!-- Node54 -->
<g id="node34" class="node"><title>Node54</title>
<g id="a_node34"><a xlink:href="../../df/d60/ControlEnum_8h.html" target="_top" xlink:title="Some enumerations for the control. ">
<polygon fill="white" stroke="black" points="1746.14,-415.5 1746.14,-433.5 1883.86,-433.5 1883.86,-415.5 1746.14,-415.5"/>
<text text-anchor="middle" x="1815" y="-421.5" font-family="Helvetica,sans-Serif" font-size="10.00">ocra/control/ControlEnum.h</text>
</a>
</g>
</g>
<!-- Node0&#45;&gt;Node54 -->
<g id="edge73" class="edge"><title>Node0&#45;&gt;Node54</title>
<path fill="none" stroke="midnightblue" d="M1529.1,-713.342C1612.99,-700.642 1810,-664.53 1810,-605.5 1810,-605.5 1810,-605.5 1810,-538.5 1810,-505.055 1812.21,-466.097 1813.69,-443.764"/>
<polygon fill="midnightblue" stroke="midnightblue" points="1817.19,-443.935 1814.39,-433.718 1810.21,-443.454 1817.19,-443.935"/>
</g>
<!-- Node56 -->
<g id="node36" class="node"><title>Node56</title>
<g id="a_node36"><a xlink:href="../../dc/d2f/Feature_8h.html" target="_top" xlink:title="A class hierarchy to compute task errors based on control frames. ">
<polygon fill="white" stroke="black" points="2544.09,-530.5 2544.09,-548.5 2657.91,-548.5 2657.91,-530.5 2544.09,-530.5"/>
<text text-anchor="middle" x="2601" y="-536.5" font-family="Helvetica,sans-Serif" font-size="10.00">ocra/control/Feature.h</text>
</a>
</g>
</g>
<!-- Node0&#45;&gt;Node56 -->
<g id="edge78" class="edge"><title>Node0&#45;&gt;Node56</title>
<path fill="none" stroke="midnightblue" d="M1528.97,-718.44C1669.41,-717.917 2169.56,-713.276 2323,-674 2425.42,-647.784 2535.23,-582.588 2580.1,-554.139"/>
<polygon fill="midnightblue" stroke="midnightblue" points="2582.13,-556.995 2588.66,-548.654 2578.36,-551.101 2582.13,-556.995"/>
</g>
<!-- Node65 -->
<g id="node40" class="node"><title>Node65</title>
<g id="a_node40"><a xlink:href="../../df/d4f/Task_8h.html" target="_top" xlink:title="ocra/control/Task.h">
<polygon fill="white" stroke="black" points="1442.04,-595.5 1442.04,-613.5 1541.96,-613.5 1541.96,-595.5 1442.04,-595.5"/>
<text text-anchor="middle" x="1492" y="-601.5" font-family="Helvetica,sans-Serif" font-size="10.00">ocra/control/Task.h</text>
</a>
</g>
</g>
<!-- Node0&#45;&gt;Node65 -->
<g id="edge102" class="edge"><title>Node0&#45;&gt;Node65</title>
<path fill="none" stroke="midnightblue" d="M1492,-710.373C1492,-692.374 1492,-648.774 1492,-623.826"/>
<polygon fill="midnightblue" stroke="midnightblue" points="1495.5,-623.553 1492,-613.553 1488.5,-623.553 1495.5,-623.553"/>
</g>
<!-- Node26 -->
<g id="node43" class="node"><title>Node26</title>
<polygon fill="white" stroke="#bfbfbf" points="480.599,-415.5 480.599,-433.5 539.401,-433.5 539.401,-415.5 480.599,-415.5"/>
<text text-anchor="middle" x="510" y="-421.5" font-family="Helvetica,sans-Serif" font-size="10.00">stdexcept</text>
</g>
<!-- Node0&#45;&gt;Node26 -->
<g id="edge155" class="edge"><title>Node0&#45;&gt;Node26</title>
<path fill="none" stroke="midnightblue" d="M1454.85,-718.451C1289.68,-718.007 626.321,-713.742 543,-674 506.205,-656.45 482,-646.266 482,-605.5 482,-605.5 482,-605.5 482,-538.5 482,-503.92 494.507,-465.088 502.803,-443.134"/>
<polygon fill="midnightblue" stroke="midnightblue" points="506.168,-444.14 506.567,-433.553 499.652,-441.581 506.168,-444.14"/>
</g>
<!-- Node85 -->
<g id="node48" class="node"><title>Node85</title>
<g id="a_node48"><a xlink:href="../../de/d4a/Controller_8h.html" target="_top" xlink:title="Controller interface. ">
<polygon fill="white" stroke="red" points="2191.92,-655.5 2191.92,-673.5 2314.08,-673.5 2314.08,-655.5 2191.92,-655.5"/>
<text text-anchor="middle" x="2253" y="-661.5" font-family="Helvetica,sans-Serif" font-size="10.00">ocra/control/Controller.h</text>
</a>
</g>
</g>
<!-- Node0&#45;&gt;Node85 -->
<g id="edge141" class="edge"><title>Node0&#45;&gt;Node85</title>
<path fill="none" stroke="midnightblue" d="M1528.96,-715.926C1648.09,-707.629 2023.37,-681.493 2181.56,-670.475"/>
<polygon fill="midnightblue" stroke="midnightblue" points="2181.93,-673.958 2191.66,-669.772 2181.45,-666.975 2181.93,-673.958"/>
</g>
<!-- Node2 -->
<g id="node3" class="node"><title>Node2</title>
<polygon fill="white" stroke="#bfbfbf" points="1778.77,-65.5 1778.77,-83.5 1819.23,-83.5 1819.23,-65.5 1778.77,-65.5"/>
<text text-anchor="middle" x="1799" y="-71.5" font-family="Helvetica,sans-Serif" font-size="10.00">string</text>
</g>
<!-- Node1&#45;&gt;Node2 -->
<g id="edge2" class="edge"><title>Node1&#45;&gt;Node2</title>
<path fill="none" stroke="midnightblue" d="M2564.83,-123.935C2390.04,-112.881 1949.6,-85.025 1829.6,-77.4354"/>
<polygon fill="midnightblue" stroke="midnightblue" points="1829.52,-73.9232 1819.32,-76.785 1829.08,-80.9093 1829.52,-73.9232"/>
</g>
<!-- Node8 -->
<g id="node9" class="node"><title>Node8</title>
<g id="a_node9"><a xlink:href="../../d7/d90/Variable_8h.html" target="_top" xlink:title="Declaration file of the Variable class. ">
<polygon fill="white" stroke="red" points="1372.12,-120.5 1372.12,-138.5 1481.88,-138.5 1481.88,-120.5 1372.12,-120.5"/>
<text text-anchor="middle" x="1427" y="-126.5" font-family="Helvetica,sans-Serif" font-size="10.00">ocra/optim/Variable.h</text>
</a>
</g>
</g>
<!-- Node7&#45;&gt;Node8 -->
<g id="edge8" class="edge"><title>Node7&#45;&gt;Node8</title>
<path fill="none" stroke="midnightblue" d="M851.195,-415.465C872.892,-409.283 895.913,-398.346 909,-379 919.078,-364.103 916.499,-304.304 903,-285 879.106,-250.83 800.289,-262.015 827,-230 894.395,-149.222 1220.39,-133.911 1361.58,-131.093"/>
<polygon fill="midnightblue" stroke="midnightblue" points="1361.89,-134.587 1371.83,-130.904 1361.76,-127.589 1361.89,-134.587"/>
</g>
<!-- Node16 -->
<g id="node11" class="node"><title>Node16</title>
<polygon fill="white" stroke="#bfbfbf" points="234.582,-5.5 234.582,-23.5 353.418,-23.5 353.418,-5.5 234.582,-5.5"/>
<text text-anchor="middle" x="294" y="-11.5" font-family="Helvetica,sans-Serif" font-size="10.00">boost/static_assert.hpp</text>
</g>
<!-- Node7&#45;&gt;Node16 -->
<g id="edge23" class="edge"><title>Node7&#45;&gt;Node16</title>
<path fill="none" stroke="midnightblue" d="M737.897,-416.765C627.188,-404.356 402.227,-379.129 402,-379 355.204,-352.321 256,-239.367 256,-185.5 256,-185.5 256,-185.5 256,-128.5 256,-92.9429 273.113,-54.2209 284.37,-32.5941"/>
<polygon fill="midnightblue" stroke="midnightblue" points="287.51,-34.1469 289.187,-23.6857 281.352,-30.8174 287.51,-34.1469"/>
</g>
<!-- Node15 -->
<g id="node12" class="node"><title>Node15</title>
<polygon fill="white" stroke="#bfbfbf" points="1256.31,-0.5 1256.31,-28.5 1355.69,-28.5 1355.69,-0.5 1256.31,-0.5"/>
<text text-anchor="start" x="1264.31" y="-16.5" font-family="Helvetica,sans-Serif" font-size="10.00">boost/type_traits/is</text>
<text text-anchor="middle" x="1306" y="-6.5" font-family="Helvetica,sans-Serif" font-size="10.00">_base_of.hpp</text>
</g>
<!-- Node7&#45;&gt;Node15 -->
<g id="edge24" class="edge"><title>Node7&#45;&gt;Node15</title>
<path fill="none" stroke="midnightblue" d="M738.216,-415.917C651.976,-404.822 501.747,-384.848 491,-379 419.203,-339.932 370,-322.238 370,-240.5 370,-240.5 370,-240.5 370,-128.5 370,-39.9203 1039.26,-20.3473 1245.94,-16.4147"/>
<polygon fill="midnightblue" stroke="midnightblue" points="1246.07,-19.9129 1256.01,-16.2287 1245.94,-12.9141 1246.07,-19.9129"/>
</g>
<!-- Node28 -->
<g id="node14" class="node"><title>Node28</title>
<g id="a_node14"><a xlink:href="../../df/df5/Function_8h.html" target="_top" xlink:title="Declaration file of the Function class. ">
<polygon fill="white" stroke="red" points="1137.92,-175.5 1137.92,-193.5 1250.08,-193.5 1250.08,-175.5 1137.92,-175.5"/>
<text text-anchor="middle" x="1194" y="-181.5" font-family="Helvetica,sans-Serif" font-size="10.00">ocra/optim/Function.h</text>
</a>
</g>
</g>
<!-- Node7&#45;&gt;Node28 -->
<g id="edge15" class="edge"><title>Node7&#45;&gt;Node28</title>
<path fill="none" stroke="midnightblue" d="M858.034,-416.448C894.862,-410.314 942.064,-399.111 980,-379 1069.31,-331.651 1150.81,-238.696 1181.3,-201.47"/>
<polygon fill="midnightblue" stroke="midnightblue" points="1184.06,-203.621 1187.63,-193.644 1178.62,-199.219 1184.06,-203.621"/>
</g>
<!-- Node37 -->
<g id="node15" class="node"><title>Node37</title>
<g id="a_node15"><a xlink:href="../../df/d55/FunctionInterfaceMapping_8h.html" target="_top" xlink:title="Declaration file of the FunctionInterfaceMapping struct. ">
<polygon fill="white" stroke="black" points="1069.64,-350.5 1069.64,-378.5 1212.36,-378.5 1212.36,-350.5 1069.64,-350.5"/>
<text text-anchor="start" x="1077.64" y="-366.5" font-family="Helvetica,sans-Serif" font-size="10.00">ocra/optim/FunctionInterface</text>
<text text-anchor="middle" x="1141" y="-356.5" font-family="Helvetica,sans-Serif" font-size="10.00">Mapping.h</text>
</a>
</g>
</g>
<!-- Node7&#45;&gt;Node37 -->
<g id="edge19" class="edge"><title>Node7&#45;&gt;Node37</title>
<path fill="none" stroke="midnightblue" d="M845.333,-415.496C900.483,-406.17 992.557,-390.601 1059.32,-379.311"/>
<polygon fill="midnightblue" stroke="midnightblue" points="1060.12,-382.726 1069.4,-377.607 1058.96,-375.824 1060.12,-382.726"/>
</g>
<!-- Node38 -->
<g id="node16" class="node"><title>Node38</title>
<g id="a_node16"><a xlink:href="../../df/d0a/Macros_8h.html" target="_top" xlink:title="ocra/util/Macros.h">
<polygon fill="white" stroke="black" points="2005.54,-175.5 2005.54,-193.5 2100.46,-193.5 2100.46,-175.5 2005.54,-175.5"/>
<text text-anchor="middle" x="2053" y="-181.5" font-family="Helvetica,sans-Serif" font-size="10.00">ocra/util/Macros.h</text>
</a>
</g>
</g>
<!-- Node7&#45;&gt;Node38 -->
<g id="edge21" class="edge"><title>Node7&#45;&gt;Node38</title>
<path fill="none" stroke="midnightblue" d="M738.093,-416.539C653.578,-406.431 508.688,-387.926 501,-379 492.588,-369.234 493.12,-360.199 501,-350 539.753,-299.84 579.194,-335 639,-314 725.348,-283.68 737.857,-250.707 827,-230 941.357,-203.436 1768.17,-189.62 1995.37,-186.298"/>
<polygon fill="midnightblue" stroke="midnightblue" points="1995.46,-189.797 2005.41,-186.152 1995.36,-182.798 1995.46,-189.797"/>
</g>
<!-- Node39 -->
<g id="node17" class="node"><title>Node39</title>
<g id="a_node17"><a xlink:href="../../dc/d8a/LinearFunction_8h.html" target="_top" xlink:title="Declaration file of the LinearFunction class. ">
<polygon fill="white" stroke="black" points="836.022,-230.5 836.022,-248.5 975.978,-248.5 975.978,-230.5 836.022,-230.5"/>
<text text-anchor="middle" x="906" y="-236.5" font-family="Helvetica,sans-Serif" font-size="10.00">ocra/optim/LinearFunction.h</text>
</a>
</g>
</g>
<!-- Node7&#45;&gt;Node39 -->
<g id="edge25" class="edge"><title>Node7&#45;&gt;Node39</title>
<path fill="none" stroke="midnightblue" d="M738.061,-416.212C656.116,-405.961 518.351,-387.579 511,-379 502.613,-369.213 502.737,-359.892 511,-350 568.621,-281.02 626.739,-347.852 710,-314 731.354,-305.318 732.127,-294.781 753,-285 785.97,-269.551 825.483,-258.224 856.094,-250.865"/>
<polygon fill="midnightblue" stroke="midnightblue" points="857.172,-254.208 866.112,-248.522 855.577,-247.392 857.172,-254.208"/>
</g>
<!-- Node40 -->
<g id="node18" class="node"><title>Node40</title>
<g id="a_node18"><a xlink:href="../../de/d69/BoundFunction_8h.html" target="_top" xlink:title="Declaration file of the BoundFunction class. ">
<polygon fill="white" stroke="black" points="520.463,-355.5 520.463,-373.5 661.537,-373.5 661.537,-355.5 520.463,-355.5"/>
<text text-anchor="middle" x="591" y="-361.5" font-family="Helvetica,sans-Serif" font-size="10.00">ocra/optim/BoundFunction.h</text>
</a>
</g>
</g>
<!-- Node7&#45;&gt;Node40 -->
<g id="edge28" class="edge"><title>Node7&#45;&gt;Node40</title>
<path fill="none" stroke="midnightblue" d="M769.218,-415.435C732.862,-405.249 670.169,-387.683 629.662,-376.333"/>
<polygon fill="midnightblue" stroke="midnightblue" points="630.444,-372.917 619.871,-373.589 628.556,-379.658 630.444,-372.917"/>
</g>
<!-- Node41 -->
<g id="node19" class="node"><title>Node41</title>
<g id="a_node19"><a xlink:href="../../dc/d6f/DiagonalLinearFunction_8h.html" target="_top" xlink:title="Declaration file of the DiagonalLinearFunction class. ">
<polygon fill="white" stroke="black" points="761.633,-285.5 761.633,-313.5 894.367,-313.5 894.367,-285.5 761.633,-285.5"/>
<text text-anchor="start" x="769.633" y="-301.5" font-family="Helvetica,sans-Serif" font-size="10.00">ocra/optim/DiagonalLinear</text>
<text text-anchor="middle" x="828" y="-291.5" font-family="Helvetica,sans-Serif" font-size="10.00">Function.h</text>
</a>
</g>
</g>
<!-- Node7&#45;&gt;Node41 -->
<g id="edge33" class="edge"><title>Node7&#45;&gt;Node41</title>
<path fill="none" stroke="midnightblue" d="M783.248,-415.485C770.985,-407.899 754.392,-395.26 747,-379 741.666,-367.267 740.695,-361.242 747,-350 754.737,-336.204 768.058,-325.795 781.688,-318.172"/>
<polygon fill="midnightblue" stroke="midnightblue" points="783.351,-321.253 790.634,-313.558 780.142,-315.032 783.351,-321.253"/>
</g>
<!-- Node42 -->
<g id="node20" class="node"><title>Node42</title>
<g id="a_node20"><a xlink:href="../../de/d7a/IdentityFunction_8h.html" target="_top" xlink:title="Declaration file of the IdentityFunction class. ">
<polygon fill="white" stroke="black" points="755.801,-355.5 755.801,-373.5 900.199,-373.5 900.199,-355.5 755.801,-355.5"/>
<text text-anchor="middle" x="828" y="-361.5" font-family="Helvetica,sans-Serif" font-size="10.00">ocra/optim/IdentityFunction.h</text>
</a>
</g>
</g>
<!-- Node7&#45;&gt;Node42 -->
<g id="edge31" class="edge"><title>Node7&#45;&gt;Node42</title>
<path fill="none" stroke="midnightblue" d="M802.171,-415.435C806.51,-407.047 813.438,-393.654 819.026,-382.849"/>
<polygon fill="midnightblue" stroke="midnightblue" points="822.184,-384.362 823.67,-373.872 815.967,-381.146 822.184,-384.362"/>
</g>
<!-- Node8&#45;&gt;Node2 -->
<g id="edge13" class="edge"><title>Node8&#45;&gt;Node2</title>
<path fill="none" stroke="midnightblue" d="M1481.89,-120.68C1561.37,-109.356 1705.83,-88.7744 1768.56,-79.8363"/>
<polygon fill="midnightblue" stroke="midnightblue" points="1769.2,-83.2816 1778.6,-78.406 1768.21,-76.3516 1769.2,-83.2816"/>
</g>
<!-- Node8&#45;&gt;Node5 -->
<g id="edge14" class="edge"><title>Node8&#45;&gt;Node5</title>
<path fill="none" stroke="midnightblue" d="M1421.53,-120.219C1416.57,-112.707 1409.11,-101.411 1402.93,-92.0515"/>
<polygon fill="midnightblue" stroke="midnightblue" points="1405.75,-89.9655 1397.32,-83.5496 1399.91,-93.823 1405.75,-89.9655"/>
</g>
<!-- Node9 -->
<g id="node10" class="node"><title>Node9</title>
<g id="a_node10"><a xlink:href="../../d8/ddc/ObserverSubject_8h.html" target="_top" xlink:title="Declaration file of the Observer, Subject and ObserverSubject classes. ">
<polygon fill="white" stroke="red" points="1431.86,-65.5 1431.86,-83.5 1580.14,-83.5 1580.14,-65.5 1431.86,-65.5"/>
<text text-anchor="middle" x="1506" y="-71.5" font-family="Helvetica,sans-Serif" font-size="10.00">ocra/optim/ObserverSubject.h</text>
</a>
</g>
</g>
<!-- Node8&#45;&gt;Node9 -->
<g id="edge9" class="edge"><title>Node8&#45;&gt;Node9</title>
<path fill="none" stroke="midnightblue" d="M1439,-120.45C1451.29,-112.201 1470.65,-99.2158 1485.4,-89.3187"/>
<polygon fill="midnightblue" stroke="midnightblue" points="1487.53,-92.1031 1493.89,-83.6253 1483.63,-86.2901 1487.53,-92.1031"/>
</g>
<!-- Node23 -->
<g id="node13" class="node"><title>Node23</title>
<polygon fill="white" stroke="#bfbfbf" points="3285.29,-65.5 3285.29,-83.5 3404.71,-83.5 3404.71,-65.5 3285.29,-65.5"/>
<text text-anchor="middle" x="3345" y="-71.5" font-family="Helvetica,sans-Serif" font-size="10.00">boost/noncopyable.hpp</text>
</g>
<!-- Node8&#45;&gt;Node23 -->
<g id="edge12" class="edge"><title>Node8&#45;&gt;Node23</title>
<path fill="none" stroke="midnightblue" d="M1482.12,-120.795C1485.12,-120.496 1488.09,-120.227 1491,-120 1847.48,-92.1311 2981.06,-79.1229 3274.89,-76.1677"/>
<polygon fill="midnightblue" stroke="midnightblue" points="3275.03,-79.6667 3284.99,-76.0668 3274.96,-72.667 3275.03,-79.6667"/>
</g>
<!-- Node9&#45;&gt;Node16 -->
<g id="edge10" class="edge"><title>Node9&#45;&gt;Node16</title>
<path fill="none" stroke="midnightblue" d="M1431.81,-65.6858C1428.83,-65.4411 1425.89,-65.2111 1423,-65 1022.51,-35.7383 540.743,-21.6256 363.657,-17.1428"/>
<polygon fill="midnightblue" stroke="midnightblue" points="363.525,-13.6384 353.44,-16.8863 363.349,-20.6362 363.525,-13.6384"/>
</g>
<!-- Node9&#45;&gt;Node15 -->
<g id="edge11" class="edge"><title>Node9&#45;&gt;Node15</title>
<path fill="none" stroke="midnightblue" d="M1478.19,-65.4353C1447.94,-56.6634 1398.83,-42.4193 1360.77,-31.3847"/>
<polygon fill="midnightblue" stroke="midnightblue" points="1361.44,-27.9334 1350.86,-28.5096 1359.49,-34.6564 1361.44,-27.9334"/>
</g>
<!-- Node28&#45;&gt;Node1 -->
<g id="edge18" class="edge"><title>Node28&#45;&gt;Node1</title>
<path fill="none" stroke="midnightblue" d="M1250.12,-181.439C1472.36,-173.276 2291.4,-143.194 2554.82,-133.518"/>
<polygon fill="midnightblue" stroke="midnightblue" points="2555.21,-137.007 2565.07,-133.142 2554.95,-130.011 2555.21,-137.007"/>
</g>
<!-- Node28&#45;&gt;Node8 -->
<g id="edge16" class="edge"><title>Node28&#45;&gt;Node8</title>
<path fill="none" stroke="midnightblue" d="M1229.39,-175.45C1270.13,-166.182 1337.16,-150.935 1381.69,-140.807"/>
<polygon fill="midnightblue" stroke="midnightblue" points="1382.69,-144.169 1391.66,-138.538 1381.13,-137.344 1382.69,-144.169"/>
</g>
<!-- Node28&#45;&gt;Node9 -->
<g id="edge17" class="edge"><title>Node28&#45;&gt;Node9</title>
<path fill="none" stroke="midnightblue" d="M1214.15,-175.496C1245.7,-163.066 1308.75,-138.616 1363,-120 1398.64,-107.771 1439.75,-95.1273 1468.72,-86.4573"/>
<polygon fill="midnightblue" stroke="midnightblue" points="1469.85,-89.7735 1478.43,-83.5636 1467.85,-83.065 1469.85,-89.7735"/>
</g>
<!-- Node37&#45;&gt;Node28 -->
<g id="edge20" class="edge"><title>Node37&#45;&gt;Node28</title>
<path fill="none" stroke="midnightblue" d="M1144.9,-350.411C1154.26,-318.979 1178.01,-239.194 1188.68,-203.381"/>
<polygon fill="midnightblue" stroke="midnightblue" points="1192.04,-204.363 1191.53,-193.78 1185.33,-202.365 1192.04,-204.363"/>
</g>
<!-- Node38&#45;&gt;Node6 -->
<g id="edge22" class="edge"><title>Node38&#45;&gt;Node6</title>
<path fill="none" stroke="midnightblue" d="M2005.3,-178.703C1901.13,-168.226 1655.18,-143.491 1562.33,-134.154"/>
<polygon fill="midnightblue" stroke="midnightblue" points="1562.6,-130.663 1552.3,-133.145 1561.9,-137.628 1562.6,-130.663"/>
</g>
<!-- Node39&#45;&gt;Node28 -->
<g id="edge26" class="edge"><title>Node39&#45;&gt;Node28</title>
<path fill="none" stroke="midnightblue" d="M949.741,-230.45C1000.85,-221.045 1085.4,-205.485 1140.41,-195.362"/>
<polygon fill="midnightblue" stroke="midnightblue" points="1141.12,-198.79 1150.32,-193.538 1139.85,-191.906 1141.12,-198.79"/>
</g>
<!-- Node39&#45;&gt;Node38 -->
<g id="edge27" class="edge"><title>Node39&#45;&gt;Node38</title>
<path fill="none" stroke="midnightblue" d="M976.023,-235.264C1185.21,-225.598 1802.9,-197.057 1995.19,-188.171"/>
<polygon fill="midnightblue" stroke="midnightblue" points="1995.53,-191.659 2005.36,-187.701 1995.21,-184.667 1995.53,-191.659"/>
</g>
<!-- Node40&#45;&gt;Node41 -->
<g id="edge29" class="edge"><title>Node40&#45;&gt;Node41</title>
<path fill="none" stroke="midnightblue" d="M621.498,-355.393C658.731,-345.495 722.518,-328.54 769.369,-316.085"/>
<polygon fill="midnightblue" stroke="midnightblue" points="770.329,-319.452 779.094,-313.5 768.531,-312.687 770.329,-319.452"/>
</g>
<!-- Node41&#45;&gt;Node39 -->
<g id="edge30" class="edge"><title>Node41&#45;&gt;Node39</title>
<path fill="none" stroke="midnightblue" d="M845.699,-285.339C857.852,-276.302 873.985,-264.306 886.506,-254.995"/>
<polygon fill="midnightblue" stroke="midnightblue" points="888.94,-257.547 894.876,-248.771 884.763,-251.93 888.94,-257.547"/>
</g>
<!-- Node42&#45;&gt;Node41 -->
<g id="edge32" class="edge"><title>Node42&#45;&gt;Node41</title>
<path fill="none" stroke="midnightblue" d="M828,-355.264C828,-347.359 828,-335.038 828,-324.083"/>
<polygon fill="midnightblue" stroke="midnightblue" points="831.5,-323.798 828,-313.798 824.5,-323.798 831.5,-323.798"/>
</g>
<!-- Node43&#45;&gt;Node39 -->
<g id="edge35" class="edge"><title>Node43&#45;&gt;Node39</title>
<path fill="none" stroke="midnightblue" d="M548.018,-533.653C395.915,-521.127 77.0653,-479.054 180,-350 219.959,-299.901 645.126,-260.943 825.657,-246.536"/>
<polygon fill="midnightblue" stroke="midnightblue" points="826.198,-250.005 835.89,-245.725 825.644,-243.026 826.198,-250.005"/>
</g>
<!-- Node45 -->
<g id="node23" class="node"><title>Node45</title>
<g id="a_node23"><a xlink:href="../../d4/d83/QuadraticFunction_8h.html" target="_top" xlink:title="Declaration file of the QuadraticFunction class. ">
<polygon fill="white" stroke="red" points="474.244,-290.5 474.244,-308.5 629.756,-308.5 629.756,-290.5 474.244,-290.5"/>
<text text-anchor="middle" x="552" y="-296.5" font-family="Helvetica,sans-Serif" font-size="10.00">ocra/optim/QuadraticFunction.h</text>
</a>
</g>
</g>
<!-- Node44&#45;&gt;Node45 -->
<g id="edge37" class="edge"><title>Node44&#45;&gt;Node45</title>
<path fill="none" stroke="midnightblue" d="M755.969,-525.468C601.423,-496.006 242.188,-423.388 209,-379 106.86,-242.389 -85.6621,-393.166 460,-314 468.917,-312.706 478.318,-311.335 487.569,-309.982"/>
<polygon fill="midnightblue" stroke="midnightblue" points="488.132,-313.437 497.519,-308.524 487.117,-306.511 488.132,-313.437"/>
</g>
<!-- Node45&#45;&gt;Node28 -->
<g id="edge38" class="edge"><title>Node45&#45;&gt;Node28</title>
<path fill="none" stroke="midnightblue" d="M558,-290.322C569.584,-275.266 596.668,-243.469 628,-230 716.167,-192.098 997.687,-186.109 1127.4,-185.414"/>
<polygon fill="midnightblue" stroke="midnightblue" points="1127.61,-188.913 1137.6,-185.368 1127.58,-181.913 1127.61,-188.913"/>
</g>
<!-- Node45&#45;&gt;Node38 -->
<g id="edge39" class="edge"><title>Node45&#45;&gt;Node38</title>
<path fill="none" stroke="midnightblue" d="M573.628,-290.469C615.476,-275.361 710.745,-243.059 794,-230 1030.11,-192.966 1780.64,-186.732 1995.2,-185.701"/>
<polygon fill="midnightblue" stroke="midnightblue" points="1995.32,-189.2 2005.31,-185.654 1995.29,-182.2 1995.32,-189.2"/>
</g>
<!-- Node46&#45;&gt;Node8 -->
<g id="edge41" class="edge"><title>Node46&#45;&gt;Node8</title>
<path fill="none" stroke="midnightblue" d="M1210.86,-418.718C1281.59,-409.34 1392,-381.698 1392,-300.5 1392,-300.5 1392,-300.5 1392,-238.5 1392,-205.115 1407.32,-168.628 1417.69,-147.759"/>
<polygon fill="midnightblue" stroke="midnightblue" points="1420.94,-149.1 1422.42,-138.609 1414.72,-145.883 1420.94,-149.1"/>
</g>
<!-- Node46&#45;&gt;Node16 -->
<g id="edge44" class="edge"><title>Node46&#45;&gt;Node16</title>
<path fill="none" stroke="midnightblue" d="M1178.58,-415.428C1197.52,-408.361 1222.92,-396.463 1240,-379 1267.11,-351.292 1278,-339.262 1278,-300.5 1278,-300.5 1278,-300.5 1278,-238.5 1278,-209.042 1281.11,-194.467 1259,-175 1125.28,-57.2575 562.346,-25.3719 363.735,-17.7022"/>
<polygon fill="midnightblue" stroke="midnightblue" points="363.835,-14.2036 353.71,-17.3238 363.571,-21.1986 363.835,-14.2036"/>
</g>
<!-- Node46&#45;&gt;Node15 -->
<g id="edge45" class="edge"><title>Node46&#45;&gt;Node15</title>
<path fill="none" stroke="midnightblue" d="M1210.92,-417.49C1238.76,-411.771 1270.64,-400.641 1292,-379 1317.63,-353.034 1316,-336.983 1316,-300.5 1316,-300.5 1316,-300.5 1316,-238.5 1316,-165.527 1310.59,-79.2569 1307.73,-38.7298"/>
<polygon fill="midnightblue" stroke="midnightblue" points="1311.21,-38.2836 1307,-28.5611 1304.22,-38.7869 1311.21,-38.2836"/>
</g>
<!-- Node46&#45;&gt;Node28 -->
<g id="edge42" class="edge"><title>Node46&#45;&gt;Node28</title>
<path fill="none" stroke="midnightblue" d="M1175.78,-415.37C1191.59,-408.388 1211.47,-396.623 1221,-379 1252.57,-320.614 1220.1,-238.427 1203.05,-202.94"/>
<polygon fill="midnightblue" stroke="midnightblue" points="1206.12,-201.253 1198.52,-193.864 1199.85,-204.375 1206.12,-201.253"/>
</g>
<!-- Node46&#45;&gt;Node37 -->
<g id="edge43" class="edge"><title>Node46&#45;&gt;Node37</title>
<path fill="none" stroke="midnightblue" d="M1151.33,-415.435C1149.91,-408.56 1147.79,-398.324 1145.84,-388.906"/>
<polygon fill="midnightblue" stroke="midnightblue" points="1149.21,-387.926 1143.76,-378.843 1142.36,-389.345 1149.21,-387.926"/>
</g>
<!-- Node46&#45;&gt;Node39 -->
<g id="edge50" class="edge"><title>Node46&#45;&gt;Node39</title>
<path fill="none" stroke="midnightblue" d="M1131.97,-415.385C1112.7,-407.479 1083.77,-394.418 1061,-379 1009.68,-344.255 1004.44,-326.042 958,-285 946.593,-274.918 933.578,-263.781 923.423,-255.171"/>
<polygon fill="midnightblue" stroke="midnightblue" points="925.56,-252.394 915.663,-248.611 921.04,-257.74 925.56,-252.394"/>
</g>
<!-- Node46&#45;&gt;Node45 -->
<g id="edge51" class="edge"><title>Node46&#45;&gt;Node45</title>
<path fill="none" stroke="midnightblue" d="M1130.43,-415.416C1087.74,-400.412 991.984,-368.137 909,-350 818.214,-330.157 712.614,-316.678 639.942,-308.857"/>
<polygon fill="midnightblue" stroke="midnightblue" points="640.225,-305.367 629.911,-307.791 639.485,-312.328 640.225,-305.367"/>
</g>
<!-- Node47 -->
<g id="node25" class="node"><title>Node47</title>
<g id="a_node25"><a xlink:href="../../d1/d0e/SquaredLinearFunction_8h.html" target="_top" xlink:title="Declaration file of the SquaredLinearFunction class. ">
<polygon fill="white" stroke="black" points="218.466,-350.5 218.466,-378.5 349.534,-378.5 349.534,-350.5 218.466,-350.5"/>
<text text-anchor="start" x="226.466" y="-366.5" font-family="Helvetica,sans-Serif" font-size="10.00">ocra/optim/SquaredLinear</text>
<text text-anchor="middle" x="284" y="-356.5" font-family="Helvetica,sans-Serif" font-size="10.00">Function.h</text>
</a>
</g>
</g>
<!-- Node46&#45;&gt;Node47 -->
<g id="edge46" class="edge"><title>Node46&#45;&gt;Node47</title>
<path fill="none" stroke="midnightblue" d="M1094.97,-419.627C942.552,-409.454 530.858,-381.976 359.96,-370.57"/>
<polygon fill="midnightblue" stroke="midnightblue" points="360.004,-367.065 349.793,-369.891 359.537,-374.049 360.004,-367.065"/>
</g>
<!-- Node47&#45;&gt;Node39 -->
<g id="edge47" class="edge"><title>Node47&#45;&gt;Node39</title>
<path fill="none" stroke="midnightblue" d="M349.539,-358.42C421.361,-351.916 539.597,-338.449 639,-314 676.131,-304.867 683.352,-295.909 720,-285 765.814,-271.362 818.923,-258.99 856.633,-250.773"/>
<polygon fill="midnightblue" stroke="midnightblue" points="857.806,-254.1 866.842,-248.568 856.328,-247.258 857.806,-254.1"/>
</g>
<!-- Node47&#45;&gt;Node45 -->
<g id="edge48" class="edge"><title>Node47&#45;&gt;Node45</title>
<path fill="none" stroke="midnightblue" d="M339.53,-350.446C389.418,-338.719 461.711,-321.725 507.782,-310.895"/>
<polygon fill="midnightblue" stroke="midnightblue" points="508.83,-314.244 517.764,-308.548 507.228,-307.429 508.83,-314.244"/>
</g>
<!-- Node47&#45;&gt;Node48 -->
<g id="edge49" class="edge"><title>Node47&#45;&gt;Node48</title>
<path fill="none" stroke="midnightblue" d="M268.46,-350.446C256.328,-340.256 239.462,-326.088 226.79,-315.444"/>
<polygon fill="midnightblue" stroke="midnightblue" points="228.706,-312.482 218.798,-308.73 224.204,-317.842 228.706,-312.482"/>
</g>
<!-- Node49&#45;&gt;Node1 -->
<g id="edge56" class="edge"><title>Node49&#45;&gt;Node1</title>
<path fill="none" stroke="midnightblue" d="M2010.9,-415.358C2100.63,-374.533 2501.53,-192.135 2609.91,-142.824"/>
<polygon fill="midnightblue" stroke="midnightblue" points="2611.54,-145.93 2619.19,-138.603 2608.64,-139.558 2611.54,-145.93"/>
</g>
<!-- Node49&#45;&gt;Node2 -->
<g id="edge63" class="edge"><title>Node49&#45;&gt;Node2</title>
<path fill="none" stroke="midnightblue" d="M1991.96,-415.257C1990.13,-401.57 1985.97,-373.351 1980,-350 1967.27,-300.233 1943,-291.87 1943,-240.5 1943,-240.5 1943,-240.5 1943,-183.5 1943,-127.06 1871.33,-96.5018 1829.11,-83.3983"/>
<polygon fill="midnightblue" stroke="midnightblue" points="1829.91,-79.9843 1819.33,-80.5083 1827.93,-86.6976 1829.91,-79.9843"/>
</g>
<!-- Node49&#45;&gt;Node3 -->
<g id="edge62" class="edge"><title>Node49&#45;&gt;Node3</title>
<path fill="none" stroke="midnightblue" d="M2046.41,-418.827C2173.69,-407.693 2493.01,-379.758 2611.14,-369.424"/>
<polygon fill="midnightblue" stroke="midnightblue" points="2611.62,-372.896 2621.28,-368.537 2611.01,-365.922 2611.62,-372.896"/>
</g>
<!-- Node49&#45;&gt;Node8 -->
<g id="edge55" class="edge"><title>Node49&#45;&gt;Node8</title>
<path fill="none" stroke="midnightblue" d="M1990.73,-415.048C1986.29,-400.016 1975.09,-368.48 1955,-350 1814.66,-220.874 1587.62,-161.94 1483.03,-140.564"/>
<polygon fill="midnightblue" stroke="midnightblue" points="1483.49,-137.087 1473,-138.553 1482.12,-143.95 1483.49,-137.087"/>
</g>
<!-- Node49&#45;&gt;Node9 -->
<g id="edge54" class="edge"><title>Node49&#45;&gt;Node9</title>
<path fill="none" stroke="midnightblue" d="M1946.75,-415.484C1901.79,-407.056 1837.26,-393.087 1816,-379 1772.35,-350.085 1779.31,-324.546 1745,-285 1677.24,-206.902 1662.56,-183.554 1581,-120 1565.52,-107.938 1546.49,-96.6833 1531.47,-88.51"/>
<polygon fill="midnightblue" stroke="midnightblue" points="1532.73,-85.2159 1522.26,-83.6066 1529.44,-91.395 1532.73,-85.2159"/>
</g>
<!-- Node49&#45;&gt;Node38 -->
<g id="edge61" class="edge"><title>Node49&#45;&gt;Node38</title>
<path fill="none" stroke="midnightblue" d="M1939.27,-416.432C1895.59,-409.453 1838.99,-397.172 1825,-379 1817.14,-368.786 1819.13,-361.474 1825,-350 1866.46,-268.967 1968.5,-218.701 2020.86,-197.377"/>
<polygon fill="midnightblue" stroke="midnightblue" points="2022.34,-200.558 2030.34,-193.614 2019.75,-194.052 2022.34,-200.558"/>
</g>
<!-- Node30 -->
<g id="node28" class="node"><title>Node30</title>
<g id="a_node28"><a xlink:href="../../d5/d55/MathTypes_8h.html" target="_top" xlink:title="Declaration file of the OptimizationVariable class. ">
<polygon fill="white" stroke="red" points="2882.48,-355.5 2882.48,-373.5 2993.52,-373.5 2993.52,-355.5 2882.48,-355.5"/>
<text text-anchor="middle" x="2938" y="-361.5" font-family="Helvetica,sans-Serif" font-size="10.00">ocra/util/MathTypes.h</text>
</a>
</g>
</g>
<!-- Node49&#45;&gt;Node30 -->
<g id="edge53" class="edge"><title>Node49&#45;&gt;Node30</title>
<path fill="none" stroke="midnightblue" d="M2046.59,-421.273C2224.86,-413.797 2791.35,-389.48 2873,-379 2879.91,-378.113 2887.19,-376.891 2894.26,-375.543"/>
<polygon fill="midnightblue" stroke="midnightblue" points="2895.32,-378.902 2904.43,-373.502 2893.94,-372.039 2895.32,-378.902"/>
</g>
<!-- Node50 -->
<g id="node29" class="node"><title>Node50</title>
<g id="a_node29"><a xlink:href="../../d9/d5d/ModelContacts_8h.html" target="_top" xlink:title="Declaration file of the ModelContacts class. ">
<polygon fill="white" stroke="black" points="2191.97,-355.5 2191.97,-373.5 2338.03,-373.5 2338.03,-355.5 2191.97,-355.5"/>
<text text-anchor="middle" x="2265" y="-361.5" font-family="Helvetica,sans-Serif" font-size="10.00">ocra/control/ModelContacts.h</text>
</a>
</g>
</g>
<!-- Node49&#45;&gt;Node50 -->
<g id="edge57" class="edge"><title>Node49&#45;&gt;Node50</title>
<path fill="none" stroke="midnightblue" d="M2030.53,-415.496C2079.28,-405.103 2164.38,-386.955 2217.55,-375.618"/>
<polygon fill="midnightblue" stroke="midnightblue" points="2218.36,-379.023 2227.41,-373.515 2216.9,-372.177 2218.36,-379.023"/>
</g>
<!-- Node33 -->
<g id="node31" class="node"><title>Node33</title>
<polygon fill="white" stroke="#bfbfbf" points="1685.83,-355.5 1685.83,-373.5 1740.17,-373.5 1740.17,-355.5 1685.83,-355.5"/>
<text text-anchor="middle" x="1713" y="-361.5" font-family="Helvetica,sans-Serif" font-size="10.00">iostream</text>
</g>
<!-- Node49&#45;&gt;Node33 -->
<g id="edge64" class="edge"><title>Node49&#45;&gt;Node33</title>
<path fill="none" stroke="midnightblue" d="M1939.39,-415.627C1890.66,-407.972 1816.96,-395.149 1754,-379 1751.21,-378.284 1748.33,-377.479 1745.46,-376.628"/>
<polygon fill="midnightblue" stroke="midnightblue" points="1746.41,-373.259 1735.83,-373.616 1744.33,-379.94 1746.41,-373.259"/>
</g>
<!-- Node52 -->
<g id="node32" class="node"><title>Node52</title>
<polygon fill="white" stroke="#bfbfbf" points="1834.19,-355.5 1834.19,-373.5 1945.81,-373.5 1945.81,-355.5 1834.19,-355.5"/>
<text text-anchor="middle" x="1890" y="-361.5" font-family="Helvetica,sans-Serif" font-size="10.00">yarp/os/Semaphore.h</text>
</g>
<!-- Node49&#45;&gt;Node52 -->
<g id="edge65" class="edge"><title>Node49&#45;&gt;Node52</title>
<path fill="none" stroke="midnightblue" d="M1978.68,-415.435C1961.79,-405.923 1933.47,-389.976 1913.38,-378.665"/>
<polygon fill="midnightblue" stroke="midnightblue" points="1914.96,-375.54 1904.53,-373.683 1911.53,-381.64 1914.96,-375.54"/>
</g>
<!-- Node50&#45;&gt;Node4 -->
<g id="edge60" class="edge"><title>Node50&#45;&gt;Node4</title>
<path fill="none" stroke="midnightblue" d="M2338.23,-356.456C2466.97,-344.074 2731.85,-318.597 2854.73,-306.778"/>
<polygon fill="midnightblue" stroke="midnightblue" points="2855.13,-310.256 2864.75,-305.814 2854.46,-303.288 2855.13,-310.256"/>
</g>
<!-- Node50&#45;&gt;Node9 -->
<g id="edge58" class="edge"><title>Node50&#45;&gt;Node9</title>
<path fill="none" stroke="midnightblue" d="M2266.45,-355.086C2272.01,-319.833 2288.13,-182.936 2216,-120 2192.77,-99.7288 1773.63,-84.0019 1590.48,-78.0671"/>
<polygon fill="midnightblue" stroke="midnightblue" points="1590.45,-74.5646 1580.35,-77.741 1590.23,-81.561 1590.45,-74.5646"/>
</g>
<!-- Node51 -->
<g id="node30" class="node"><title>Node51</title>
<polygon fill="white" stroke="#bfbfbf" points="2344.99,-290.5 2344.99,-308.5 2411.01,-308.5 2411.01,-290.5 2344.99,-290.5"/>
<text text-anchor="middle" x="2378" y="-296.5" font-family="Helvetica,sans-Serif" font-size="10.00">Eigen/Core</text>
</g>
<!-- Node50&#45;&gt;Node51 -->
<g id="edge59" class="edge"><title>Node50&#45;&gt;Node51</title>
<path fill="none" stroke="midnightblue" d="M2279.77,-355.264C2298.83,-344.641 2332.19,-326.042 2354.68,-313.502"/>
<polygon fill="midnightblue" stroke="midnightblue" points="2356.55,-316.466 2363.58,-308.539 2353.14,-310.352 2356.55,-316.466"/>
</g>
<!-- Node53&#45;&gt;Node1 -->
<g id="edge67" class="edge"><title>Node53&#45;&gt;Node1</title>
<path fill="none" stroke="midnightblue" d="M3083.36,-415.239C3099.38,-396.363 3136,-348.019 3136,-300.5 3136,-300.5 3136,-300.5 3136,-238.5 3136,-154.296 2861.14,-135.591 2719.41,-131.543"/>
<polygon fill="midnightblue" stroke="midnightblue" points="2719.12,-128.034 2709.03,-131.266 2718.93,-135.032 2719.12,-128.034"/>
</g>
<!-- Node53&#45;&gt;Node3 -->
<g id="edge70" class="edge"><title>Node53&#45;&gt;Node3</title>
<path fill="none" stroke="midnightblue" d="M3009.65,-415.479C2941.24,-407.049 2831.53,-393.077 2737,-379 2725.22,-377.246 2712.51,-375.199 2700.72,-373.238"/>
<polygon fill="midnightblue" stroke="midnightblue" points="2701.09,-369.751 2690.64,-371.545 2699.93,-376.654 2701.09,-369.751"/>
</g>
<!-- Node53&#45;&gt;Node4 -->
<g id="edge71" class="edge"><title>Node53&#45;&gt;Node4</title>
<path fill="none" stroke="midnightblue" d="M3073.47,-415.066C3068.56,-400.061 3056.42,-368.569 3036,-350 3015.66,-331.505 2987.36,-319.245 2963.81,-311.552"/>
<polygon fill="midnightblue" stroke="midnightblue" points="2964.64,-308.143 2954.05,-308.531 2962.57,-314.83 2964.64,-308.143"/>
</g>
<!-- Node53&#45;&gt;Node23 -->
<g id="edge72" class="edge"><title>Node53&#45;&gt;Node23</title>
<path fill="none" stroke="midnightblue" d="M3088.42,-415.207C3100.37,-406.884 3118.55,-393.281 3132,-379 3224.31,-281.02 3307.95,-140.588 3335.48,-92.4453"/>
<polygon fill="midnightblue" stroke="midnightblue" points="3338.59,-94.0463 3340.48,-83.6215 3332.5,-90.592 3338.59,-94.0463"/>
</g>
<!-- Node53&#45;&gt;Node38 -->
<g id="edge69" class="edge"><title>Node53&#45;&gt;Node38</title>
<path fill="none" stroke="midnightblue" d="M3076.03,-415.154C3075.73,-400.825 3073.49,-371.056 3061,-350 3038.15,-311.484 3025.18,-302.596 2984,-285 2825.16,-217.137 2288.45,-193.377 2110.71,-187.263"/>
<polygon fill="midnightblue" stroke="midnightblue" points="2110.63,-183.759 2100.52,-186.918 2110.4,-190.755 2110.63,-183.759"/>
</g>
<!-- Node53&#45;&gt;Node30 -->
<g id="edge68" class="edge"><title>Node53&#45;&gt;Node30</title>
<path fill="none" stroke="midnightblue" d="M3056.81,-415.435C3033.46,-405.622 2993.82,-388.959 2966.8,-377.604"/>
<polygon fill="midnightblue" stroke="midnightblue" points="2968.05,-374.331 2957.47,-373.683 2965.33,-380.784 2968.05,-374.331"/>
</g>
<!-- Node54&#45;&gt;Node33 -->
<g id="edge77" class="edge"><title>Node54&#45;&gt;Node33</title>
<path fill="none" stroke="midnightblue" d="M1800.82,-415.435C1784.09,-405.923 1756.04,-389.976 1736.15,-378.665"/>
<polygon fill="midnightblue" stroke="midnightblue" points="1737.81,-375.584 1727.39,-373.683 1734.35,-381.669 1737.81,-375.584"/>
</g>
<!-- Node55 -->
<g id="node35" class="node"><title>Node55</title>
<g id="a_node35"><a xlink:href="../../da/dbb/StringUtilities_8h.html" target="_top" xlink:title="ocra/util/StringUtilities.h">
<polygon fill="white" stroke="red" points="1507.76,-230.5 1507.76,-248.5 1628.24,-248.5 1628.24,-230.5 1507.76,-230.5"/>
<text text-anchor="middle" x="1568" y="-236.5" font-family="Helvetica,sans-Serif" font-size="10.00">ocra/util/StringUtilities.h</text>
</a>
</g>
</g>
<!-- Node54&#45;&gt;Node55 -->
<g id="edge74" class="edge"><title>Node54&#45;&gt;Node55</title>
<path fill="none" stroke="midnightblue" d="M1767.46,-415.431C1739.3,-408.962 1703.96,-397.765 1677,-379 1629.82,-346.167 1593.19,-286.943 1577.03,-257.739"/>
<polygon fill="midnightblue" stroke="midnightblue" points="1580.01,-255.894 1572.18,-248.753 1573.85,-259.216 1580.01,-255.894"/>
</g>
<!-- Node55&#45;&gt;Node2 -->
<g id="edge75" class="edge"><title>Node55&#45;&gt;Node2</title>
<path fill="none" stroke="midnightblue" d="M1572.69,-230.25C1587.3,-204.641 1631.67,-127.759 1642,-120 1679.61,-91.7441 1734.47,-81.4214 1768.39,-77.6557"/>
<polygon fill="midnightblue" stroke="midnightblue" points="1769.01,-81.1118 1778.62,-76.6491 1768.32,-74.1455 1769.01,-81.1118"/>
</g>
<!-- Node55&#45;&gt;Node5 -->
<g id="edge76" class="edge"><title>Node55&#45;&gt;Node5</title>
<path fill="none" stroke="midnightblue" d="M1570.39,-230.46C1576.05,-209.55 1587.94,-152.815 1561,-120 1522.75,-73.3977 1487.81,-97.6991 1423.77,-83.9172"/>
<polygon fill="midnightblue" stroke="midnightblue" points="1424.21,-80.4241 1413.67,-81.4789 1422.57,-87.2285 1424.21,-80.4241"/>
</g>
<!-- Node56&#45;&gt;Node1 -->
<g id="edge80" class="edge"><title>Node56&#45;&gt;Node1</title>
<path fill="none" stroke="midnightblue" d="M2620.58,-530.419C2653.89,-515.22 2718,-479.014 2718,-425.5 2718,-425.5 2718,-425.5 2718,-238.5 2718,-198.213 2681.48,-163.336 2657.49,-144.768"/>
<polygon fill="midnightblue" stroke="midnightblue" points="2659.42,-141.841 2649.3,-138.684 2655.24,-147.459 2659.42,-141.841"/>
</g>
<!-- Node56&#45;&gt;Node3 -->
<g id="edge99" class="edge"><title>Node56&#45;&gt;Node3</title>
<path fill="none" stroke="midnightblue" d="M2606.55,-530.467C2612.87,-520.97 2623.08,-504.494 2629,-489 2642.8,-452.895 2650.39,-408.02 2653.78,-383.527"/>
<polygon fill="midnightblue" stroke="midnightblue" points="2657.26,-383.909 2655.09,-373.54 2650.32,-383.002 2657.26,-383.909"/>
</g>
<!-- Node56&#45;&gt;Node4 -->
<g id="edge100" class="edge"><title>Node56&#45;&gt;Node4</title>
<path fill="none" stroke="midnightblue" d="M2634.57,-530.447C2723.37,-508.378 2960.58,-444.224 3003,-379 3010.03,-368.195 3009.37,-361.207 3003,-350 2992.93,-332.274 2973.73,-320.224 2956.32,-312.455"/>
<polygon fill="midnightblue" stroke="midnightblue" points="2957.49,-309.15 2946.91,-308.57 2954.82,-315.62 2957.49,-309.15"/>
</g>
<!-- Node56&#45;&gt;Node23 -->
<g id="edge101" class="edge"><title>Node56&#45;&gt;Node23</title>
<path fill="none" stroke="midnightblue" d="M2658.12,-530.757C2721.39,-521.893 2826.32,-506.343 2916,-489 3154.19,-442.938 3402,-483.098 3402,-240.5 3402,-240.5 3402,-240.5 3402,-183.5 3402,-147.302 3376.65,-111.349 3359.76,-91.4152"/>
<polygon fill="midnightblue" stroke="midnightblue" points="3362.17,-88.8536 3352.93,-83.669 3356.92,-93.4839 3362.17,-88.8536"/>
</g>
<!-- Node56&#45;&gt;Node38 -->
<g id="edge98" class="edge"><title>Node56&#45;&gt;Node38</title>
<path fill="none" stroke="midnightblue" d="M2556.18,-530.452C2530.28,-523.59 2498.97,-511.159 2479,-489 2415.82,-418.886 2487.3,-351.176 2420,-285 2376.22,-241.947 2202.27,-208.924 2110.46,-194.088"/>
<polygon fill="midnightblue" stroke="midnightblue" points="2110.91,-190.617 2100.49,-192.497 2109.81,-197.529 2110.91,-190.617"/>
</g>
<!-- Node56&#45;&gt;Node49 -->
<g id="edge82" class="edge"><title>Node56&#45;&gt;Node49</title>
<path fill="none" stroke="midnightblue" d="M2557.76,-530.464C2449.15,-510.279 2165.11,-457.488 2046.38,-435.42"/>
<polygon fill="midnightblue" stroke="midnightblue" points="2046.9,-431.957 2036.42,-433.571 2045.62,-438.839 2046.9,-431.957"/>
</g>
<!-- Node56&#45;&gt;Node53 -->
<g id="edge81" class="edge"><title>Node56&#45;&gt;Node53</title>
<path fill="none" stroke="midnightblue" d="M2657.99,-531.71C2714.52,-524.185 2803.28,-510.232 2878,-489 2900.07,-482.728 2904.31,-477.492 2926,-470 2963.02,-457.209 3005.93,-444.709 3036.34,-436.23"/>
<polygon fill="midnightblue" stroke="midnightblue" points="3037.45,-439.556 3046.15,-433.514 3035.58,-432.809 3037.45,-439.556"/>
</g>
<!-- Node56&#45;&gt;Node54 -->
<g id="edge79" class="edge"><title>Node56&#45;&gt;Node54</title>
<path fill="none" stroke="midnightblue" d="M2543.91,-530.923C2472.55,-521.399 2346.69,-504.426 2239,-489 2110.27,-470.56 1959.76,-447.713 1877.16,-435.064"/>
<polygon fill="midnightblue" stroke="midnightblue" points="1877.6,-431.59 1867.19,-433.535 1876.54,-438.509 1877.6,-431.59"/>
</g>
<!-- Node57 -->
<g id="node37" class="node"><title>Node57</title>
<g id="a_node37"><a xlink:href="../../da/dfc/FullState_8h.html" target="_top" xlink:title="ocra/control/FullState.h">
<polygon fill="white" stroke="black" points="2745.59,-355.5 2745.59,-373.5 2864.41,-373.5 2864.41,-355.5 2745.59,-355.5"/>
<text text-anchor="middle" x="2805" y="-361.5" font-family="Helvetica,sans-Serif" font-size="10.00">ocra/control/FullState.h</text>
</a>
</g>
</g>
<!-- Node56&#45;&gt;Node57 -->
<g id="edge83" class="edge"><title>Node56&#45;&gt;Node57</title>
<path fill="none" stroke="midnightblue" d="M2642.17,-530.484C2670,-523.381 2706.23,-510.67 2732,-489 2766.68,-459.839 2788.94,-409.751 2798.91,-383.209"/>
<polygon fill="midnightblue" stroke="midnightblue" points="2802.24,-384.289 2802.34,-373.695 2795.66,-381.919 2802.24,-384.289"/>
</g>
<!-- Node58 -->
<g id="node38" class="node"><title>Node58</title>
<g id="a_node38"><a xlink:href="../../d9/daf/PartialState_8h.html" target="_top" xlink:title="Define partial state classes that can be used to control some joints of the robot. ">
<polygon fill="white" stroke="black" points="2488.47,-470.5 2488.47,-488.5 2619.53,-488.5 2619.53,-470.5 2488.47,-470.5"/>
<text text-anchor="middle" x="2554" y="-476.5" font-family="Helvetica,sans-Serif" font-size="10.00">ocra/control/PartialState.h</text>
</a>
</g>
</g>
<!-- Node56&#45;&gt;Node58 -->
<g id="edge88" class="edge"><title>Node56&#45;&gt;Node58</title>
<path fill="none" stroke="midnightblue" d="M2594.46,-530.435C2587.46,-521.79 2576.15,-507.829 2567.26,-496.864"/>
<polygon fill="midnightblue" stroke="midnightblue" points="2569.8,-494.438 2560.78,-488.872 2564.36,-498.845 2569.8,-494.438"/>
</g>
<!-- Node59 -->
<g id="node39" class="node"><title>Node59</title>
<g id="a_node39"><a xlink:href="../../d0/d8a/TaskState_8h.html" target="_top" xlink:title="ocra/control/TaskState.h">
<polygon fill="white" stroke="red" points="2252.36,-415.5 2252.36,-433.5 2375.64,-433.5 2375.64,-415.5 2252.36,-415.5"/>
<text text-anchor="middle" x="2314" y="-421.5" font-family="Helvetica,sans-Serif" font-size="10.00">ocra/control/TaskState.h</text>
</a>
</g>
</g>
<!-- Node56&#45;&gt;Node59 -->
<g id="edge94" class="edge"><title>Node56&#45;&gt;Node59</title>
<path fill="none" stroke="midnightblue" d="M2571.23,-530.438C2539.5,-521.528 2488.02,-506.149 2445,-489 2406.69,-473.731 2364,-452.132 2338.08,-438.473"/>
<polygon fill="midnightblue" stroke="midnightblue" points="2339.48,-435.255 2329.01,-433.657 2336.2,-441.438 2339.48,-435.255"/>
</g>
<!-- Node57&#45;&gt;Node1 -->
<g id="edge84" class="edge"><title>Node57&#45;&gt;Node1</title>
<path fill="none" stroke="midnightblue" d="M2804,-355.19C2800.14,-326.511 2783.73,-230.407 2732,-175 2717.5,-159.469 2696.49,-148.852 2677.91,-141.895"/>
<polygon fill="midnightblue" stroke="midnightblue" points="2679.06,-138.589 2668.46,-138.585 2676.74,-145.195 2679.06,-138.589"/>
</g>
<!-- Node57&#45;&gt;Node4 -->
<g id="edge87" class="edge"><title>Node57&#45;&gt;Node4</title>
<path fill="none" stroke="midnightblue" d="M2820.03,-355.264C2839.43,-344.641 2873.38,-326.042 2896.27,-313.502"/>
<polygon fill="midnightblue" stroke="midnightblue" points="2898.24,-316.413 2905.33,-308.539 2894.87,-310.274 2898.24,-316.413"/>
</g>
<!-- Node57&#45;&gt;Node38 -->
<g id="edge85" class="edge"><title>Node57&#45;&gt;Node38</title>
<path fill="none" stroke="midnightblue" d="M2776.93,-355.456C2725.03,-340.693 2610.44,-308.621 2513,-285 2364.78,-249.068 2188.14,-212.636 2103.34,-195.536"/>
<polygon fill="midnightblue" stroke="midnightblue" points="2103.95,-192.09 2093.46,-193.548 2102.57,-198.952 2103.95,-192.09"/>
</g>
<!-- Node57&#45;&gt;Node51 -->
<g id="edge86" class="edge"><title>Node57&#45;&gt;Node51</title>
<path fill="none" stroke="midnightblue" d="M2750.49,-355.457C2664.53,-342.774 2499.24,-318.387 2421.03,-306.849"/>
<polygon fill="midnightblue" stroke="midnightblue" points="2421.44,-303.372 2411.04,-305.374 2420.42,-310.297 2421.44,-303.372"/>
</g>
<!-- Node58&#45;&gt;Node1 -->
<g id="edge89" class="edge"><title>Node58&#45;&gt;Node1</title>
<path fill="none" stroke="midnightblue" d="M2554.25,-470.277C2554.78,-451.638 2556,-404.742 2556,-365.5 2556,-365.5 2556,-365.5 2556,-238.5 2556,-198.213 2592.52,-163.336 2616.51,-144.768"/>
<polygon fill="midnightblue" stroke="midnightblue" points="2618.76,-147.459 2624.7,-138.684 2614.58,-141.841 2618.76,-147.459"/>
</g>
<!-- Node58&#45;&gt;Node4 -->
<g id="edge93" class="edge"><title>Node58&#45;&gt;Node4</title>
<path fill="none" stroke="midnightblue" d="M2557.25,-470.282C2568.02,-443.194 2602.5,-357.986 2613,-350 2649.96,-321.893 2775.88,-309.209 2854.5,-303.912"/>
<polygon fill="midnightblue" stroke="midnightblue" points="2855.05,-307.384 2864.8,-303.242 2854.59,-300.399 2855.05,-307.384"/>
</g>
<!-- Node58&#45;&gt;Node38 -->
<g id="edge91" class="edge"><title>Node58&#45;&gt;Node38</title>
<path fill="none" stroke="midnightblue" d="M2550.79,-470.091C2537.72,-436.289 2487.68,-310.902 2455,-285 2353.32,-204.397 2195.21,-187.99 2110.77,-185.324"/>
<polygon fill="midnightblue" stroke="midnightblue" points="2110.69,-181.821 2100.6,-185.059 2110.51,-188.818 2110.69,-181.821"/>
</g>
<!-- Node58&#45;&gt;Node49 -->
<g id="edge90" class="edge"><title>Node58&#45;&gt;Node49</title>
<path fill="none" stroke="midnightblue" d="M2488.27,-472.29C2379.52,-462.016 2163.52,-441.609 2056.35,-431.485"/>
<polygon fill="midnightblue" stroke="midnightblue" points="2056.61,-427.994 2046.32,-430.538 2055.95,-434.963 2056.61,-427.994"/>
</g>
<!-- Node58&#45;&gt;Node51 -->
<g id="edge92" class="edge"><title>Node58&#45;&gt;Node51</title>
<path fill="none" stroke="midnightblue" d="M2544.19,-470.212C2533.94,-461.452 2517.5,-447.116 2504,-434 2461.69,-392.906 2414.7,-341.454 2391.91,-316.099"/>
<polygon fill="midnightblue" stroke="midnightblue" points="2394.43,-313.668 2385.15,-308.554 2389.22,-318.338 2394.43,-313.668"/>
</g>
<!-- Node59&#45;&gt;Node3 -->
<g id="edge96" class="edge"><title>Node59&#45;&gt;Node3</title>
<path fill="none" stroke="midnightblue" d="M2361.19,-415.496C2427.29,-404.287 2546.57,-384.058 2611.3,-373.081"/>
<polygon fill="midnightblue" stroke="midnightblue" points="2611.93,-376.524 2621.2,-371.401 2610.76,-369.623 2611.93,-376.524"/>
</g>
<!-- Node59&#45;&gt;Node38 -->
<g id="edge97" class="edge"><title>Node59&#45;&gt;Node38</title>
<path fill="none" stroke="midnightblue" d="M2263.28,-415.438C2236.97,-409.142 2205.69,-398.114 2183,-379 2125.36,-330.433 2148.55,-289.281 2102,-230 2093.33,-218.956 2081.77,-208.315 2072.06,-200.21"/>
<polygon fill="midnightblue" stroke="midnightblue" points="2074.09,-197.356 2064.11,-193.793 2069.69,-202.8 2074.09,-197.356"/>
</g>
<!-- Node59&#45;&gt;Node51 -->
<g id="edge95" class="edge"><title>Node59&#45;&gt;Node51</title>
<path fill="none" stroke="midnightblue" d="M2321.02,-415.416C2328.23,-406.823 2339.43,-392.621 2347,-379 2357.99,-359.226 2366.99,-334.755 2372.42,-318.442"/>
<polygon fill="midnightblue" stroke="midnightblue" points="2375.85,-319.201 2375.58,-308.61 2369.18,-317.059 2375.85,-319.201"/>
</g>
<!-- Node65&#45;&gt;Node1 -->
<g id="edge103" class="edge"><title>Node65&#45;&gt;Node1</title>
<path fill="none" stroke="midnightblue" d="M1520.5,-595.4C1543.69,-587.698 1576.2,-574.252 1599,-554 1643.88,-514.136 1647.55,-492.506 1661,-434 1669.38,-397.523 1649.93,-383.307 1667,-350 1719.6,-247.379 1980.93,-178.94 1997,-175 2100.39,-149.643 2406.24,-137.342 2554.53,-132.738"/>
<polygon fill="midnightblue" stroke="midnightblue" points="2555.04,-136.224 2564.93,-132.42 2554.83,-129.227 2555.04,-136.224"/>
</g>
<!-- Node65&#45;&gt;Node38 -->
<g id="edge105" class="edge"><title>Node65&#45;&gt;Node38</title>
<path fill="none" stroke="midnightblue" d="M1441.74,-602.973C1322.93,-601.097 1027.97,-592.575 938,-554 920.055,-546.306 922.827,-532.965 905,-525 782.392,-470.217 736.74,-515.046 605,-489 422.014,-452.823 94.4789,-497.233 209,-350 281.072,-257.342 350.918,-312.662 465,-285 570.508,-259.417 595.351,-244.077 703,-230 958.641,-196.571 1771.09,-187.738 1995.24,-185.911"/>
<polygon fill="midnightblue" stroke="midnightblue" points="1995.49,-189.409 2005.46,-185.829 1995.44,-182.41 1995.49,-189.409"/>
</g>
<!-- Node65&#45;&gt;Node43 -->
<g id="edge134" class="edge"><title>Node65&#45;&gt;Node43</title>
<path fill="none" stroke="midnightblue" d="M1441.8,-600.911C1321.67,-594.553 1008.16,-576.997 747,-554 735.13,-552.955 722.629,-551.729 710.328,-550.449"/>
<polygon fill="midnightblue" stroke="midnightblue" points="710.373,-546.934 700.061,-549.365 709.638,-553.896 710.373,-546.934"/>
</g>
<!-- Node65&#45;&gt;Node44 -->
<g id="edge117" class="edge"><title>Node65&#45;&gt;Node44</title>
<path fill="none" stroke="midnightblue" d="M1441.66,-600.486C1340.62,-594.157 1106.02,-578.053 910,-554 908.722,-553.843 907.433,-553.681 906.136,-553.515"/>
<polygon fill="midnightblue" stroke="midnightblue" points="906.448,-550.026 896.071,-552.162 905.515,-556.963 906.448,-550.026"/>
</g>
<!-- Node65&#45;&gt;Node47 -->
<g id="edge116" class="edge"><title>Node65&#45;&gt;Node47</title>
<path fill="none" stroke="midnightblue" d="M1441.8,-601.773C1330.25,-597.432 1064.98,-584.178 981,-554 959.307,-546.205 959.604,-533.038 938,-525 811.726,-478.018 760.761,-542.252 637,-489 589.746,-468.668 594.554,-436.888 548,-415 539.392,-410.953 434.501,-391.955 359.565,-378.709"/>
<polygon fill="midnightblue" stroke="midnightblue" points="360.12,-375.253 349.664,-376.961 358.903,-382.146 360.12,-375.253"/>
</g>
<!-- Node65&#45;&gt;Node49 -->
<g id="edge110" class="edge"><title>Node65&#45;&gt;Node49</title>
<path fill="none" stroke="midnightblue" d="M1542.17,-596.95C1591.41,-589.641 1668.22,-575.879 1732,-554 1824.8,-522.167 1927.04,-464.659 1970.97,-438.767"/>
<polygon fill="midnightblue" stroke="midnightblue" points="1972.85,-441.716 1979.67,-433.601 1969.28,-435.697 1972.85,-441.716"/>
</g>
<!-- Node65&#45;&gt;Node51 -->
<g id="edge104" class="edge"><title>Node65&#45;&gt;Node51</title>
<path fill="none" stroke="midnightblue" d="M1542,-598.252C1595.58,-591.475 1675.45,-577.65 1694,-554 1732.13,-505.395 1707.52,-475.281 1694,-415 1687.47,-385.863 1656.64,-371.846 1677,-350 1721.83,-301.89 2188.37,-299.706 2334.49,-300.215"/>
<polygon fill="midnightblue" stroke="midnightblue" points="2334.84,-303.716 2344.85,-300.257 2334.87,-296.716 2334.84,-303.716"/>
</g>
<!-- Node65&#45;&gt;Node53 -->
<g id="edge120" class="edge"><title>Node65&#45;&gt;Node53</title>
<path fill="none" stroke="midnightblue" d="M1542,-602.813C1736.76,-599.917 2444.89,-587.279 2667,-554 2780.11,-537.052 2807.31,-524.607 2916,-489 2963.15,-473.553 3016.44,-451.432 3048.08,-437.792"/>
<polygon fill="midnightblue" stroke="midnightblue" points="3049.77,-440.873 3057.55,-433.681 3046.98,-434.451 3049.77,-440.873"/>
</g>
<!-- Node65&#45;&gt;Node55 -->
<g id="edge106" class="edge"><title>Node65&#45;&gt;Node55</title>
<path fill="none" stroke="midnightblue" d="M1487.54,-595.386C1476.67,-574.581 1450.44,-517.621 1461,-470 1479.86,-384.898 1533.7,-293.947 1557.01,-257.26"/>
<polygon fill="midnightblue" stroke="midnightblue" points="1560.01,-259.07 1562.48,-248.768 1554.13,-255.278 1560.01,-259.07"/>
</g>
<!-- Node65&#45;&gt;Node56 -->
<g id="edge109" class="edge"><title>Node65&#45;&gt;Node56</title>
<path fill="none" stroke="midnightblue" d="M1542.17,-600.65C1721.3,-590.474 2329.56,-555.92 2533.62,-544.328"/>
<polygon fill="midnightblue" stroke="midnightblue" points="2534.11,-547.806 2543.9,-543.744 2533.71,-540.817 2534.11,-547.806"/>
</g>
<!-- Node65&#45;&gt;Node59 -->
<g id="edge119" class="edge"><title>Node65&#45;&gt;Node59</title>
<path fill="none" stroke="midnightblue" d="M1542.05,-595.969C1599.83,-587.035 1697.61,-571.173 1781,-554 1966.41,-515.816 2185.42,-459.408 2273.92,-436.136"/>
<polygon fill="midnightblue" stroke="midnightblue" points="2275.03,-439.463 2283.81,-433.53 2273.25,-432.693 2275.03,-439.463"/>
</g>
<!-- Node65&#45;&gt;Node65 -->
<g id="edge118" class="edge"><title>Node65&#45;&gt;Node65</title>
<path fill="none" stroke="midnightblue" d="M1514.63,-613.519C1536.3,-618.346 1559.96,-615.34 1559.96,-604.5 1559.96,-595.312 1542.96,-591.752 1524.58,-593.82"/>
<polygon fill="midnightblue" stroke="midnightblue" points="1523.91,-590.383 1514.63,-595.481 1525.07,-597.287 1523.91,-590.383"/>
</g>
<!-- Node66 -->
<g id="node41" class="node"><title>Node66</title>
<g id="a_node41"><a xlink:href="../../d8/d9f/ErrorsHelper_8h.html" target="_top" xlink:title="ocra/util/ErrorsHelper.h">
<polygon fill="white" stroke="black" points="1533.87,-415.5 1533.87,-433.5 1652.13,-433.5 1652.13,-415.5 1533.87,-415.5"/>
<text text-anchor="middle" x="1593" y="-421.5" font-family="Helvetica,sans-Serif" font-size="10.00">ocra/util/ErrorsHelper.h</text>
</a>
</g>
</g>
<!-- Node65&#45;&gt;Node66 -->
<g id="edge107" class="edge"><title>Node65&#45;&gt;Node66</title>
<path fill="none" stroke="midnightblue" d="M1508.43,-595.263C1537.96,-579.413 1599.15,-541.531 1623,-489 1630.44,-472.608 1619.32,-454 1608.57,-441.186"/>
<polygon fill="midnightblue" stroke="midnightblue" points="1611.07,-438.735 1601.76,-433.683 1605.89,-443.44 1611.07,-438.735"/>
</g>
<!-- Node67 -->
<g id="node42" class="node"><title>Node67</title>
<g id="a_node42"><a xlink:href="../../d3/ded/FunctionHelpers_8h.html" target="_top" xlink:title="ocra/optim/FunctionHelpers.h">
<polygon fill="white" stroke="black" points="1079.69,-470.5 1079.69,-488.5 1226.31,-488.5 1226.31,-470.5 1079.69,-470.5"/>
<text text-anchor="middle" x="1153" y="-476.5" font-family="Helvetica,sans-Serif" font-size="10.00">ocra/optim/FunctionHelpers.h</text>
</a>
</g>
</g>
<!-- Node65&#45;&gt;Node67 -->
<g id="edge111" class="edge"><title>Node65&#45;&gt;Node67</title>
<path fill="none" stroke="midnightblue" d="M1472.94,-595.415C1451.91,-586.251 1417.31,-570.44 1389,-554 1369.38,-542.608 1367.76,-534.144 1347,-525 1308.41,-508.003 1262.53,-497.099 1225.08,-490.341"/>
<polygon fill="midnightblue" stroke="midnightblue" points="1225.2,-486.81 1214.75,-488.543 1224,-493.706 1225.2,-486.81"/>
</g>
<!-- Node68 -->
<g id="node44" class="node"><title>Node68</title>
<g id="a_node44"><a xlink:href="../../d0/d17/OneLevelSolver_8h.html" target="_top" xlink:title="Define the internal solver class that can be used in the wOcra controller. ">
<polygon fill="white" stroke="red" points="1469.8,-470.5 1469.8,-488.5 1614.2,-488.5 1614.2,-470.5 1469.8,-470.5"/>
<text text-anchor="middle" x="1542" y="-476.5" font-family="Helvetica,sans-Serif" font-size="10.00">ocra/optim/OneLevelSolver.h</text>
</a>
</g>
</g>
<!-- Node65&#45;&gt;Node68 -->
<g id="edge121" class="edge"><title>Node65&#45;&gt;Node68</title>
<path fill="none" stroke="midnightblue" d="M1495.28,-595.43C1503.26,-575.802 1523.83,-525.2 1534.82,-498.158"/>
<polygon fill="midnightblue" stroke="midnightblue" points="1538.12,-499.343 1538.64,-488.761 1531.63,-496.707 1538.12,-499.343"/>
</g>
<!-- Node81 -->
<g id="node45" class="node"><title>Node81</title>
<g id="a_node45"><a xlink:href="../../d6/d2b/ControlConstraint_8h.html" target="_top" xlink:title="Define base class that can be used as constraints in wOcra controller. ">
<polygon fill="white" stroke="red" points="1256.41,-470.5 1256.41,-488.5 1413.59,-488.5 1413.59,-470.5 1256.41,-470.5"/>
<text text-anchor="middle" x="1335" y="-476.5" font-family="Helvetica,sans-Serif" font-size="10.00">ocra/control/ControlConstraint.h</text>
</a>
</g>
</g>
<!-- Node65&#45;&gt;Node81 -->
<g id="edge129" class="edge"><title>Node65&#45;&gt;Node81</title>
<path fill="none" stroke="midnightblue" d="M1481.55,-595.474C1468.86,-585.71 1446.81,-568.708 1428,-554 1401.97,-533.647 1372,-509.91 1353.28,-495.041"/>
<polygon fill="midnightblue" stroke="midnightblue" points="1355.3,-492.174 1345.29,-488.693 1350.95,-497.654 1355.3,-492.174"/>
</g>
<!-- Node83 -->
<g id="node46" class="node"><title>Node83</title>
<g id="a_node46"><a xlink:href="../../dc/df4/VariableChiFunction_8h.html" target="_top" xlink:title="ocra/optim/VariableChiFunction.h">
<polygon fill="white" stroke="black" points="1174.44,-530.5 1174.44,-548.5 1337.56,-548.5 1337.56,-530.5 1174.44,-530.5"/>
<text text-anchor="middle" x="1256" y="-536.5" font-family="Helvetica,sans-Serif" font-size="10.00">ocra/optim/VariableChiFunction.h</text>
</a>
</g>
</g>
<!-- Node65&#45;&gt;Node83 -->
<g id="edge135" class="edge"><title>Node65&#45;&gt;Node83</title>
<path fill="none" stroke="midnightblue" d="M1461.63,-595.393C1419.41,-584.123 1342.91,-563.701 1296.06,-551.194"/>
<polygon fill="midnightblue" stroke="midnightblue" points="1296.82,-547.774 1286.25,-548.576 1295.01,-554.537 1296.82,-547.774"/>
</g>
<!-- Node84 -->
<g id="node47" class="node"><title>Node84</title>
<g id="a_node47"><a xlink:href="../../da/d74/FcQuadraticFunction_8h.html" target="_top" xlink:title="ocra/optim/FcQuadraticFunction.h">
<polygon fill="white" stroke="black" points="989.69,-530.5 989.69,-548.5 1156.31,-548.5 1156.31,-530.5 989.69,-530.5"/>
<text text-anchor="middle" x="1073" y="-536.5" font-family="Helvetica,sans-Serif" font-size="10.00">ocra/optim/FcQuadraticFunction.h</text>
</a>
</g>
</g>
<!-- Node65&#45;&gt;Node84 -->
<g id="edge138" class="edge"><title>Node65&#45;&gt;Node84</title>
<path fill="none" stroke="midnightblue" d="M1441.87,-595.963C1365.56,-584.488 1220.28,-562.644 1136.62,-550.066"/>
<polygon fill="midnightblue" stroke="midnightblue" points="1136.89,-546.568 1126.48,-548.542 1135.85,-553.49 1136.89,-546.568"/>
</g>
<!-- Node66&#45;&gt;Node33 -->
<g id="edge108" class="edge"><title>Node66&#45;&gt;Node33</title>
<path fill="none" stroke="midnightblue" d="M1609.69,-415.435C1629.72,-405.751 1663.56,-389.397 1687.02,-378.055"/>
<polygon fill="midnightblue" stroke="midnightblue" points="1688.59,-381.186 1696.07,-373.683 1685.54,-374.884 1688.59,-381.186"/>
</g>
<!-- Node67&#45;&gt;Node4 -->
<g id="edge114" class="edge"><title>Node67&#45;&gt;Node4</title>
<path fill="none" stroke="midnightblue" d="M1178.01,-470.46C1252.77,-446.836 1481.53,-377.574 1677,-350 1793.69,-333.539 2614.89,-309.167 2854.51,-302.337"/>
<polygon fill="midnightblue" stroke="midnightblue" points="2854.92,-305.827 2864.81,-302.045 2854.72,-298.83 2854.92,-305.827"/>
</g>
<!-- Node67&#45;&gt;Node7 -->
<g id="edge113" class="edge"><title>Node67&#45;&gt;Node7</title>
<path fill="none" stroke="midnightblue" d="M1099.08,-470.45C1035.43,-460.948 929.692,-445.161 861.961,-435.049"/>
<polygon fill="midnightblue" stroke="midnightblue" points="862.249,-431.553 851.842,-433.538 861.215,-438.477 862.249,-431.553"/>
</g>
<!-- Node67&#45;&gt;Node46 -->
<g id="edge112" class="edge"><title>Node67&#45;&gt;Node46</title>
<path fill="none" stroke="midnightblue" d="M1153,-470.219C1153,-463.177 1153,-452.808 1153,-443.828"/>
<polygon fill="midnightblue" stroke="midnightblue" points="1156.5,-443.55 1153,-433.55 1149.5,-443.55 1156.5,-443.55"/>
</g>
<!-- Node67&#45;&gt;Node26 -->
<g id="edge115" class="edge"><title>Node67&#45;&gt;Node26</title>
<path fill="none" stroke="midnightblue" d="M1079.55,-472.446C943.202,-461.207 655.236,-437.471 549.778,-428.779"/>
<polygon fill="midnightblue" stroke="midnightblue" points="549.826,-425.271 539.572,-427.938 549.251,-432.247 549.826,-425.271"/>
</g>
<!-- Node68&#45;&gt;Node2 -->
<g id="edge128" class="edge"><title>Node68&#45;&gt;Node2</title>
<path fill="none" stroke="midnightblue" d="M1536.83,-470.235C1529.89,-458.073 1519.08,-434.672 1525,-415 1534.98,-381.83 1547.57,-377.974 1568,-350 1604.82,-299.577 1656,-302.935 1656,-240.5 1656,-240.5 1656,-240.5 1656,-183.5 1656,-127.454 1726.81,-96.8064 1768.78,-83.565"/>
<polygon fill="midnightblue" stroke="midnightblue" points="1769.94,-86.8694 1778.51,-80.6401 1767.93,-80.1654 1769.94,-86.8694"/>
</g>
<!-- Node68&#45;&gt;Node45 -->
<g id="edge123" class="edge"><title>Node68&#45;&gt;Node45</title>
<path fill="none" stroke="midnightblue" d="M1469.58,-472.862C1379.49,-465.521 1221.08,-451.531 1086,-434 934.633,-414.355 894.034,-419.974 747,-379 730.274,-374.339 630.649,-333.225 580.624,-312.432"/>
<polygon fill="midnightblue" stroke="midnightblue" points="581.897,-309.171 571.319,-308.561 579.208,-315.634 581.897,-309.171"/>
</g>
<!-- Node68&#45;&gt;Node46 -->
<g id="edge122" class="edge"><title>Node68&#45;&gt;Node46</title>
<path fill="none" stroke="midnightblue" d="M1482.92,-470.45C1412.58,-460.867 1295.34,-444.893 1221.21,-434.793"/>
<polygon fill="midnightblue" stroke="midnightblue" points="1221.43,-431.291 1211.05,-433.408 1220.48,-438.227 1221.43,-431.291"/>
</g>
<!-- Node68&#45;&gt;Node47 -->
<g id="edge124" class="edge"><title>Node68&#45;&gt;Node47</title>
<path fill="none" stroke="midnightblue" d="M1469.65,-473.105C1454.25,-472.021 1438.09,-470.93 1423,-470 1268.86,-460.498 879.223,-469.799 729,-434 708.676,-429.156 706.171,-420.446 686,-415 546.975,-377.465 506.609,-398.989 364,-379 362.705,-378.819 361.399,-378.632 360.085,-378.442"/>
<polygon fill="midnightblue" stroke="midnightblue" points="360.284,-374.933 349.876,-376.916 359.249,-381.856 360.284,-374.933"/>
</g>
<!-- Node68&#45;&gt;Node49 -->
<g id="edge126" class="edge"><title>Node68&#45;&gt;Node49</title>
<path fill="none" stroke="midnightblue" d="M1610.5,-470.45C1697.16,-460.266 1845.25,-442.863 1929.48,-432.964"/>
<polygon fill="midnightblue" stroke="midnightblue" points="1929.91,-436.439 1939.43,-431.795 1929.09,-429.486 1929.91,-436.439"/>
</g>
<!-- Node68&#45;&gt;Node54 -->
<g id="edge125" class="edge"><title>Node68&#45;&gt;Node54</title>
<path fill="none" stroke="midnightblue" d="M1583.46,-470.45C1631.71,-461.084 1711.4,-445.614 1763.55,-435.489"/>
<polygon fill="midnightblue" stroke="midnightblue" points="1764.45,-438.88 1773.6,-433.538 1763.11,-432.008 1764.45,-438.88"/>
</g>
<!-- Node68&#45;&gt;Node66 -->
<g id="edge127" class="edge"><title>Node68&#45;&gt;Node66</title>
<path fill="none" stroke="midnightblue" d="M1549.97,-470.219C1557.5,-462.394 1568.98,-450.463 1578.19,-440.892"/>
<polygon fill="midnightblue" stroke="midnightblue" points="1580.84,-443.182 1585.25,-433.55 1575.8,-438.328 1580.84,-443.182"/>
</g>
<!-- Node81&#45;&gt;Node7 -->
<g id="edge133" class="edge"><title>Node81&#45;&gt;Node7</title>
<path fill="none" stroke="midnightblue" d="M1256.31,-471.385C1164.15,-462.948 1006.92,-448.231 872,-434 870.698,-433.863 869.383,-433.723 868.058,-433.581"/>
<polygon fill="midnightblue" stroke="midnightblue" points="868.084,-430.063 857.764,-432.461 867.327,-437.022 868.084,-430.063"/>
</g>
<!-- Node81&#45;&gt;Node8 -->
<g id="edge132" class="edge"><title>Node81&#45;&gt;Node8</title>
<path fill="none" stroke="midnightblue" d="M1343.1,-470.449C1366.07,-446.714 1430,-374.06 1430,-300.5 1430,-300.5 1430,-300.5 1430,-238.5 1430,-207.005 1428.71,-170.365 1427.82,-148.877"/>
<polygon fill="midnightblue" stroke="midnightblue" points="1431.31,-148.467 1427.38,-138.627 1424.31,-148.768 1431.31,-148.467"/>
</g>
<!-- Node81&#45;&gt;Node39 -->
<g id="edge130" class="edge"><title>Node81&#45;&gt;Node39</title>
<path fill="none" stroke="midnightblue" d="M1329.92,-470.28C1315.59,-447.769 1272.55,-384.504 1221,-350 1139.02,-295.129 1026.63,-264.793 960.622,-250.638"/>
<polygon fill="midnightblue" stroke="midnightblue" points="960.944,-247.13 950.438,-248.505 959.508,-253.981 960.944,-247.13"/>
</g>
<!-- Node81&#45;&gt;Node49 -->
<g id="edge131" class="edge"><title>Node81&#45;&gt;Node49</title>
<path fill="none" stroke="midnightblue" d="M1414.02,-472.329C1522.15,-463.854 1722.29,-448.062 1893,-434 1904.8,-433.028 1917.39,-431.973 1929.51,-430.947"/>
<polygon fill="midnightblue" stroke="midnightblue" points="1929.88,-434.428 1939.55,-430.095 1929.29,-427.453 1929.88,-434.428"/>
</g>
<!-- Node83&#45;&gt;Node47 -->
<g id="edge137" class="edge"><title>Node83&#45;&gt;Node47</title>
<path fill="none" stroke="midnightblue" d="M1206.39,-530.473C1086.73,-510.94 784.854,-460.591 686,-434 661.836,-427.5 657.314,-420.915 633,-415 515.797,-386.489 483.265,-397.038 364,-379 362.707,-378.805 361.403,-378.605 360.09,-378.403"/>
<polygon fill="midnightblue" stroke="midnightblue" points="360.314,-374.896 349.893,-376.803 359.229,-381.811 360.314,-374.896"/>
</g>
<!-- Node83&#45;&gt;Node67 -->
<g id="edge136" class="edge"><title>Node83&#45;&gt;Node67</title>
<path fill="none" stroke="midnightblue" d="M1241.68,-530.435C1224.79,-520.923 1196.47,-504.976 1176.38,-493.665"/>
<polygon fill="midnightblue" stroke="midnightblue" points="1177.96,-490.54 1167.53,-488.683 1174.53,-496.64 1177.96,-490.54"/>
</g>
<!-- Node84&#45;&gt;Node47 -->
<g id="edge140" class="edge"><title>Node84&#45;&gt;Node47</title>
<path fill="none" stroke="midnightblue" d="M1017.12,-530.475C1003.67,-528.611 989.326,-526.681 976,-525 905.441,-516.098 718.479,-526.418 658,-489 624.663,-468.374 642.997,-436.166 610,-415 516.992,-355.34 473.152,-396.194 364,-379 362.709,-378.797 361.406,-378.59 360.094,-378.381"/>
<polygon fill="midnightblue" stroke="midnightblue" points="360.332,-374.875 349.903,-376.738 359.218,-381.785 360.332,-374.875"/>
</g>
<!-- Node84&#45;&gt;Node67 -->
<g id="edge139" class="edge"><title>Node84&#45;&gt;Node67</title>
<path fill="none" stroke="midnightblue" d="M1084.12,-530.435C1096.83,-521.224 1117.86,-505.98 1133.34,-494.753"/>
<polygon fill="midnightblue" stroke="midnightblue" points="1135.67,-497.386 1141.71,-488.683 1131.56,-491.719 1135.67,-497.386"/>
</g>
<!-- Node85&#45;&gt;Node1 -->
<g id="edge142" class="edge"><title>Node85&#45;&gt;Node1</title>
<path fill="none" stroke="midnightblue" d="M2314.23,-661.739C2440.99,-656.483 2739.99,-635.688 2975,-554 3072.56,-520.091 3133.21,-528.886 3174,-434 3221.42,-323.67 3205.13,-227.254 3097,-175 3032.31,-143.737 2833,-134.437 2719.08,-131.671"/>
<polygon fill="midnightblue" stroke="midnightblue" points="2719.09,-128.17 2709.01,-131.438 2718.93,-135.168 2719.09,-128.17"/>
</g>
<!-- Node85&#45;&gt;Node2 -->
<g id="edge147" class="edge"><title>Node85&#45;&gt;Node2</title>
<path fill="none" stroke="midnightblue" d="M2314.47,-662.152C2416.03,-659.109 2624.97,-649.393 2799,-619 2907.86,-599.987 2936.25,-594.683 3039,-554 3214.64,-484.457 3326,-429.403 3326,-240.5 3326,-240.5 3326,-240.5 3326,-183.5 3326,-105.622 2045.55,-79.8103 1829.71,-76.0126"/>
<polygon fill="midnightblue" stroke="midnightblue" points="1829.49,-72.5083 1819.43,-75.8343 1829.37,-79.5073 1829.49,-72.5083"/>
</g>
<!-- Node85&#45;&gt;Node4 -->
<g id="edge145" class="edge"><title>Node85&#45;&gt;Node4</title>
<path fill="none" stroke="midnightblue" d="M2314.37,-657.691C2500.56,-638.658 3052.51,-571.36 3155,-434 3206.01,-365.629 3066.05,-327.039 2980.64,-310.413"/>
<polygon fill="midnightblue" stroke="midnightblue" points="2981.24,-306.965 2970.76,-308.541 2979.94,-313.842 2981.24,-306.965"/>
</g>
<!-- Node85&#45;&gt;Node5 -->
<g id="edge148" class="edge"><title>Node85&#45;&gt;Node5</title>
<path fill="none" stroke="midnightblue" d="M2214.98,-655.487C2193.18,-649.053 2166.88,-637.873 2150,-619 2125.67,-591.81 2126,-576.983 2126,-540.5 2126,-540.5 2126,-540.5 2126,-423.5 2126,-312.797 2184.75,-255.727 2109,-175 2005.88,-65.105 1590.81,-112.511 1423.84,-83.767"/>
<polygon fill="midnightblue" stroke="midnightblue" points="1424.4,-80.3104 1413.93,-81.908 1423.11,-87.1906 1424.4,-80.3104"/>
</g>
<!-- Node85&#45;&gt;Node23 -->
<g id="edge144" class="edge"><title>Node85&#45;&gt;Node23</title>
<path fill="none" stroke="midnightblue" d="M2314.35,-663.461C2427.61,-662.441 2676.83,-655.766 2883,-619 3087.1,-582.603 3155.9,-600.014 3331,-489 3392.83,-449.799 3440,-438.71 3440,-365.5 3440,-365.5 3440,-365.5 3440,-183.5 3440,-140.648 3397.31,-106.718 3369.17,-89.0029"/>
<polygon fill="midnightblue" stroke="midnightblue" points="3370.63,-85.799 3360.26,-83.6274 3367.02,-91.7918 3370.63,-85.799"/>
</g>
<!-- Node85&#45;&gt;Node38 -->
<g id="edge150" class="edge"><title>Node85&#45;&gt;Node38</title>
<path fill="none" stroke="midnightblue" d="M2191.78,-657.181C2164.14,-651.365 2133.05,-640.241 2112,-619 2086.32,-593.087 2088,-576.983 2088,-540.5 2088,-540.5 2088,-540.5 2088,-298.5 2088,-263.378 2072.38,-224.753 2062.01,-202.979"/>
<polygon fill="midnightblue" stroke="midnightblue" points="2065.01,-201.142 2057.43,-193.733 2058.73,-204.248 2065.01,-201.142"/>
</g>
<!-- Node85&#45;&gt;Node49 -->
<g id="edge153" class="edge"><title>Node85&#45;&gt;Node49</title>
<path fill="none" stroke="midnightblue" d="M2191.55,-661.803C2153.73,-657.739 2106.45,-646.834 2074,-619 2019.39,-572.155 2000.83,-482.372 1995.2,-443.822"/>
<polygon fill="midnightblue" stroke="midnightblue" points="1998.63,-443.06 1993.84,-433.608 1991.69,-443.982 1998.63,-443.06"/>
</g>
<!-- Node85&#45;&gt;Node51 -->
<g id="edge143" class="edge"><title>Node85&#45;&gt;Node51</title>
<path fill="none" stroke="midnightblue" d="M2273.16,-655.471C2289.06,-648.171 2310.72,-635.946 2324,-619 2382.37,-544.515 2387.89,-509.589 2385,-415 2383.96,-380.928 2381.18,-341.231 2379.45,-318.664"/>
<polygon fill="midnightblue" stroke="midnightblue" points="2382.93,-318.24 2378.66,-308.544 2375.95,-318.787 2382.93,-318.24"/>
</g>
<!-- Node85&#45;&gt;Node33 -->
<g id="edge154" class="edge"><title>Node85&#45;&gt;Node33</title>
<path fill="none" stroke="midnightblue" d="M2191.78,-661.695C2147.88,-657.843 2088.98,-647.224 2045,-619 1949.85,-557.928 1986.83,-478.088 1893,-415 1840.04,-379.393 1815.23,-396.989 1754,-379 1751.55,-378.279 1749.02,-377.511 1746.48,-376.72"/>
<polygon fill="midnightblue" stroke="midnightblue" points="1747.36,-373.326 1736.77,-373.614 1745.23,-379.994 1747.36,-373.326"/>
</g>
<!-- Node85&#45;&gt;Node56 -->
<g id="edge152" class="edge"><title>Node85&#45;&gt;Node56</title>
<path fill="none" stroke="midnightblue" d="M2275.83,-655.43C2335.93,-634.187 2498.67,-576.668 2568.48,-551.994"/>
<polygon fill="midnightblue" stroke="midnightblue" points="2569.82,-555.233 2578.08,-548.6 2567.49,-548.633 2569.82,-555.233"/>
</g>
<!-- Node85&#45;&gt;Node65 -->
<g id="edge151" class="edge"><title>Node85&#45;&gt;Node65</title>
<path fill="none" stroke="midnightblue" d="M2191.69,-658.827C2048.66,-647.926 1694.32,-620.92 1552.3,-610.095"/>
<polygon fill="midnightblue" stroke="midnightblue" points="1552.28,-606.584 1542.04,-609.314 1551.74,-613.564 1552.28,-606.584"/>
</g>
<!-- Node86 -->
<g id="node49" class="node"><title>Node86</title>
<polygon fill="white" stroke="#bfbfbf" points="2158.64,-590.5 2158.64,-618.5 2261.36,-618.5 2261.36,-590.5 2158.64,-590.5"/>
<text text-anchor="start" x="2166.64" y="-606.5" font-family="Helvetica,sans-Serif" font-size="10.00">boost/property_tree</text>
<text text-anchor="middle" x="2210" y="-596.5" font-family="Helvetica,sans-Serif" font-size="10.00">/ptree.hpp</text>
</g>
<!-- Node85&#45;&gt;Node86 -->
<g id="edge146" class="edge"><title>Node85&#45;&gt;Node86</title>
<path fill="none" stroke="midnightblue" d="M2247.02,-655.435C2241.6,-648.117 2233.35,-636.989 2226.01,-627.094"/>
<polygon fill="midnightblue" stroke="midnightblue" points="2228.66,-624.791 2219.89,-618.843 2223.04,-628.96 2228.66,-624.791"/>
</g>
<!-- Node71 -->
<g id="node50" class="node"><title>Node71</title>
<polygon fill="white" stroke="#bfbfbf" points="2279.27,-595.5 2279.27,-613.5 2314.73,-613.5 2314.73,-595.5 2279.27,-595.5"/>
<text text-anchor="middle" x="2297" y="-601.5" font-family="Helvetica,sans-Serif" font-size="10.00">map</text>
</g>
<!-- Node85&#45;&gt;Node71 -->
<g id="edge149" class="edge"><title>Node85&#45;&gt;Node71</title>
<path fill="none" stroke="midnightblue" d="M2259.12,-655.435C2265.68,-646.79 2276.27,-632.829 2284.59,-621.864"/>
<polygon fill="midnightblue" stroke="midnightblue" points="2287.39,-623.954 2290.65,-613.872 2281.82,-619.723 2287.39,-623.954"/>
</g>
</g>
</svg>
