<?xml version="1.0" encoding="UTF-8" standalone="no"?>
<!DOCTYPE svg PUBLIC "-//W3C//DTD SVG 1.1//EN"
 "http://www.w3.org/Graphics/SVG/1.1/DTD/svg11.dtd">
<!-- Generated by graphviz version 2.38.0 (20140413.2041)
 -->
<!-- Title: controlUtils.cpp Pages: 1 -->
<svg width="1428pt" height="377pt"
 viewBox="0.00 0.00 1427.71 377.00" xmlns="http://www.w3.org/2000/svg" xmlns:xlink="http://www.w3.org/1999/xlink">
<g id="graph0" class="graph" transform="scale(1 1) rotate(0) translate(4 373)">
<title>controlUtils.cpp</title>
<polygon fill="white" stroke="none" points="-4,4 -4,-373 1423.71,-373 1423.71,4 -4,4"/>
<!-- Node0 -->
<g id="node1" class="node"><title>Node0</title>
<polygon fill="#bfbfbf" stroke="black" points="159.507,-350.5 159.507,-368.5 243.867,-368.5 243.867,-350.5 159.507,-350.5"/>
<text text-anchor="middle" x="201.687" y="-356.5" font-family="Helvetica,sans-Serif" font-size="10.00">controlUtils.cpp</text>
</g>
<!-- Node1 -->
<g id="node2" class="node"><title>Node1</title>
<g id="a_node2"><a xlink:href="../../d6/d65/controlUtils_8h.html" target="_top" xlink:title="Control utility functions. ">
<polygon fill="white" stroke="black" points="137.276,-295.5 137.276,-313.5 266.098,-313.5 266.098,-295.5 137.276,-295.5"/>
<text text-anchor="middle" x="201.687" y="-301.5" font-family="Helvetica,sans-Serif" font-size="10.00">ocra/control/controlUtils.h</text>
</a>
</g>
</g>
<!-- Node0&#45;&gt;Node1 -->
<g id="edge1" class="edge"><title>Node0&#45;&gt;Node1</title>
<path fill="none" stroke="midnightblue" d="M201.687,-350.219C201.687,-343.177 201.687,-332.808 201.687,-323.828"/>
<polygon fill="midnightblue" stroke="midnightblue" points="205.187,-323.55 201.687,-313.55 198.187,-323.55 205.187,-323.55"/>
</g>
<!-- Node2 -->
<g id="node3" class="node"><title>Node2</title>
<g id="a_node3"><a xlink:href="../../d5/d55/MathTypes_8h.html" target="_top" xlink:title="Declaration file of the OptimizationVariable class. ">
<polygon fill="white" stroke="black" points="38.1626,-185.5 38.1626,-203.5 149.211,-203.5 149.211,-185.5 38.1626,-185.5"/>
<text text-anchor="middle" x="93.687" y="-191.5" font-family="Helvetica,sans-Serif" font-size="10.00">ocra/util/MathTypes.h</text>
</a>
</g>
</g>
<!-- Node1&#45;&gt;Node2 -->
<g id="edge2" class="edge"><title>Node1&#45;&gt;Node2</title>
<path fill="none" stroke="midnightblue" d="M193.569,-295.382C175.666,-277.479 132.534,-234.347 109.238,-211.051"/>
<polygon fill="midnightblue" stroke="midnightblue" points="111.445,-208.308 101.899,-203.712 106.495,-213.258 111.445,-208.308"/>
</g>
<!-- Node5 -->
<g id="node6" class="node"><title>Node5</title>
<polygon fill="white" stroke="#bfbfbf" points="167.283,-185.5 167.283,-203.5 236.091,-203.5 236.091,-185.5 167.283,-185.5"/>
<text text-anchor="middle" x="201.687" y="-191.5" font-family="Helvetica,sans-Serif" font-size="10.00">Eigen/Lgsm</text>
</g>
<!-- Node1&#45;&gt;Node5 -->
<g id="edge5" class="edge"><title>Node1&#45;&gt;Node5</title>
<path fill="none" stroke="midnightblue" d="M201.687,-295.382C201.687,-278.182 201.687,-237.698 201.687,-213.887"/>
<polygon fill="midnightblue" stroke="midnightblue" points="205.187,-213.712 201.687,-203.712 198.187,-213.712 205.187,-213.712"/>
</g>
<!-- Node6 -->
<g id="node7" class="node"><title>Node6</title>
<g id="a_node7"><a xlink:href="../../d3/d5a/Model_8h.html" target="_top" xlink:title="Declaration file of the Model class. ">
<polygon fill="white" stroke="black" points="504.387,-240.5 504.387,-258.5 610.987,-258.5 610.987,-240.5 504.387,-240.5"/>
<text text-anchor="middle" x="557.687" y="-246.5" font-family="Helvetica,sans-Serif" font-size="10.00">ocra/control/Model.h</text>
</a>
</g>
</g>
<!-- Node1&#45;&gt;Node6 -->
<g id="edge6" class="edge"><title>Node1&#45;&gt;Node6</title>
<path fill="none" stroke="midnightblue" d="M255.756,-295.45C319.771,-285.92 426.239,-270.069 494.136,-259.961"/>
<polygon fill="midnightblue" stroke="midnightblue" points="494.9,-263.386 504.276,-258.452 493.869,-256.462 494.9,-263.386"/>
</g>
<!-- Node3 -->
<g id="node4" class="node"><title>Node3</title>
<polygon fill="white" stroke="#bfbfbf" points="9.05664,-130.5 9.05664,-148.5 82.3174,-148.5 82.3174,-130.5 9.05664,-130.5"/>
<text text-anchor="middle" x="45.687" y="-136.5" font-family="Helvetica,sans-Serif" font-size="10.00">Eigen/Dense</text>
</g>
<!-- Node2&#45;&gt;Node3 -->
<g id="edge3" class="edge"><title>Node2&#45;&gt;Node3</title>
<path fill="none" stroke="midnightblue" d="M86.187,-185.219C79.1717,-177.473 68.5108,-165.701 59.8877,-156.18"/>
<polygon fill="midnightblue" stroke="midnightblue" points="62.2842,-153.612 52.9772,-148.55 57.0958,-158.311 62.2842,-153.612"/>
</g>
<!-- Node4 -->
<g id="node5" class="node"><title>Node4</title>
<polygon fill="white" stroke="#bfbfbf" points="100.071,-130.5 100.071,-148.5 143.303,-148.5 143.303,-130.5 100.071,-130.5"/>
<text text-anchor="middle" x="121.687" y="-136.5" font-family="Helvetica,sans-Serif" font-size="10.00">cmath</text>
</g>
<!-- Node2&#45;&gt;Node4 -->
<g id="edge4" class="edge"><title>Node2&#45;&gt;Node4</title>
<path fill="none" stroke="midnightblue" d="M98.062,-185.219C101.948,-177.864 107.75,-166.88 112.632,-157.639"/>
<polygon fill="midnightblue" stroke="midnightblue" points="115.858,-159.026 117.434,-148.55 109.668,-155.757 115.858,-159.026"/>
</g>
<!-- Node6&#45;&gt;Node2 -->
<g id="edge7" class="edge"><title>Node6&#45;&gt;Node2</title>
<path fill="none" stroke="midnightblue" d="M504.084,-242.848C429.401,-234.901 289.531,-219.756 159.49,-204.076"/>
<polygon fill="midnightblue" stroke="midnightblue" points="159.695,-200.575 149.347,-202.849 158.855,-207.525 159.695,-200.575"/>
</g>
<!-- Node6&#45;&gt;Node5 -->
<g id="edge48" class="edge"><title>Node6&#45;&gt;Node5</title>
<path fill="none" stroke="midnightblue" d="M504.385,-241.812C444.056,-234.044 342.612,-220.381 246.295,-204.203"/>
<polygon fill="midnightblue" stroke="midnightblue" points="246.835,-200.744 236.391,-202.527 245.667,-207.646 246.835,-200.744"/>
</g>
<!-- Node7 -->
<g id="node8" class="node"><title>Node7</title>
<g id="a_node8"><a xlink:href="../../d8/ddc/ObserverSubject_8h.html" target="_top" xlink:title="Declaration file of the Observer, Subject and ObserverSubject classes. ">
<polygon fill="white" stroke="black" points="470.547,-130.5 470.547,-148.5 618.827,-148.5 618.827,-130.5 470.547,-130.5"/>
<text text-anchor="middle" x="544.687" y="-136.5" font-family="Helvetica,sans-Serif" font-size="10.00">ocra/optim/ObserverSubject.h</text>
</a>
</g>
</g>
<!-- Node6&#45;&gt;Node7 -->
<g id="edge8" class="edge"><title>Node6&#45;&gt;Node7</title>
<path fill="none" stroke="midnightblue" d="M611.185,-245.895C671.202,-240.936 756.186,-226.567 723.687,-185 710.768,-168.476 664.2,-157.211 621.803,-150.149"/>
<polygon fill="midnightblue" stroke="midnightblue" points="622.134,-146.658 611.706,-148.532 621.026,-153.57 622.134,-146.658"/>
</g>
<!-- Node18 -->
<g id="node19" class="node"><title>Node18</title>
<g id="a_node19"><a xlink:href="../../d7/d90/Variable_8h.html" target="_top" xlink:title="Declaration file of the Variable class. ">
<polygon fill="white" stroke="black" points="770.81,-185.5 770.81,-203.5 880.564,-203.5 880.564,-185.5 770.81,-185.5"/>
<text text-anchor="middle" x="825.687" y="-191.5" font-family="Helvetica,sans-Serif" font-size="10.00">ocra/optim/Variable.h</text>
</a>
</g>
</g>
<!-- Node6&#45;&gt;Node18 -->
<g id="edge22" class="edge"><title>Node6&#45;&gt;Node18</title>
<path fill="none" stroke="midnightblue" d="M598.39,-240.45C645.751,-231.084 723.981,-215.614 775.178,-205.489"/>
<polygon fill="midnightblue" stroke="midnightblue" points="775.91,-208.912 785.04,-203.538 774.551,-202.045 775.91,-208.912"/>
</g>
<!-- Node28 -->
<g id="node29" class="node"><title>Node28</title>
<polygon fill="white" stroke="#bfbfbf" points="1018.46,-130.5 1018.46,-148.5 1058.91,-148.5 1058.91,-130.5 1018.46,-130.5"/>
<text text-anchor="middle" x="1038.69" y="-136.5" font-family="Helvetica,sans-Serif" font-size="10.00">string</text>
</g>
<!-- Node6&#45;&gt;Node28 -->
<g id="edge49" class="edge"><title>Node6&#45;&gt;Node28</title>
<path fill="none" stroke="midnightblue" d="M611.179,-245.77C677.537,-241.377 793.654,-230.377 889.687,-204 935.486,-191.421 985.713,-167.798 1014.59,-153.18"/>
<polygon fill="midnightblue" stroke="midnightblue" points="1016.22,-156.275 1023.52,-148.597 1013.03,-150.046 1016.22,-156.275"/>
</g>
<!-- Node29 -->
<g id="node30" class="node"><title>Node29</title>
<g id="a_node30"><a xlink:href="../../df/d97/NamedInstance_8h.html" target="_top" xlink:title="ocra/optim/NamedInstance.h">
<polygon fill="white" stroke="black" points="958.766,-185.5 958.766,-203.5 1102.61,-203.5 1102.61,-185.5 958.766,-185.5"/>
<text text-anchor="middle" x="1030.69" y="-191.5" font-family="Helvetica,sans-Serif" font-size="10.00">ocra/optim/NamedInstance.h</text>
</a>
</g>
</g>
<!-- Node6&#45;&gt;Node29 -->
<g id="edge40" class="edge"><title>Node6&#45;&gt;Node29</title>
<path fill="none" stroke="midnightblue" d="M611.027,-242.523C693.398,-233.293 852.149,-215.505 949.036,-204.649"/>
<polygon fill="midnightblue" stroke="midnightblue" points="949.535,-208.115 959.083,-203.523 948.756,-201.159 949.535,-208.115"/>
</g>
<!-- Node30 -->
<g id="node31" class="node"><title>Node30</title>
<g id="a_node31"><a xlink:href="../../d9/d5d/ModelContacts_8h.html" target="_top" xlink:title="Declaration file of the ModelContacts class. ">
<polygon fill="white" stroke="black" points="253.655,-185.5 253.655,-203.5 399.719,-203.5 399.719,-185.5 253.655,-185.5"/>
<text text-anchor="middle" x="326.687" y="-191.5" font-family="Helvetica,sans-Serif" font-size="10.00">ocra/control/ModelContacts.h</text>
</a>
</g>
</g>
<!-- Node6&#45;&gt;Node30 -->
<g id="edge42" class="edge"><title>Node6&#45;&gt;Node30</title>
<path fill="none" stroke="midnightblue" d="M522.603,-240.45C482.206,-231.182 415.754,-215.935 371.609,-205.807"/>
<polygon fill="midnightblue" stroke="midnightblue" points="372.251,-202.363 361.722,-203.538 370.686,-209.186 372.251,-202.363"/>
</g>
<!-- Node33 -->
<g id="node34" class="node"><title>Node33</title>
<g id="a_node34"><a xlink:href="../../df/d0a/Macros_8h.html" target="_top" xlink:title="ocra/util/Macros.h">
<polygon fill="white" stroke="black" points="417.229,-185.5 417.229,-203.5 512.145,-203.5 512.145,-185.5 417.229,-185.5"/>
<text text-anchor="middle" x="464.687" y="-191.5" font-family="Helvetica,sans-Serif" font-size="10.00">ocra/util/Macros.h</text>
</a>
</g>
</g>
<!-- Node6&#45;&gt;Node33 -->
<g id="edge46" class="edge"><title>Node6&#45;&gt;Node33</title>
<path fill="none" stroke="midnightblue" d="M543.562,-240.45C528.814,-232.045 505.439,-218.724 487.958,-208.762"/>
<polygon fill="midnightblue" stroke="midnightblue" points="489.366,-205.536 478.945,-203.625 485.9,-211.618 489.366,-205.536"/>
</g>
<!-- Node35 -->
<g id="node36" class="node"><title>Node35</title>
<polygon fill="white" stroke="#bfbfbf" points="530.515,-185.5 530.515,-203.5 584.859,-203.5 584.859,-185.5 530.515,-185.5"/>
<text text-anchor="middle" x="557.687" y="-191.5" font-family="Helvetica,sans-Serif" font-size="10.00">iostream</text>
</g>
<!-- Node6&#45;&gt;Node35 -->
<g id="edge50" class="edge"><title>Node6&#45;&gt;Node35</title>
<path fill="none" stroke="midnightblue" d="M557.687,-240.219C557.687,-233.177 557.687,-222.808 557.687,-213.828"/>
<polygon fill="midnightblue" stroke="midnightblue" points="561.187,-213.55 557.687,-203.55 554.187,-213.55 561.187,-213.55"/>
</g>
<!-- Node36 -->
<g id="node37" class="node"><title>Node36</title>
<polygon fill="white" stroke="#bfbfbf" points="602.882,-185.5 602.882,-203.5 714.492,-203.5 714.492,-185.5 602.882,-185.5"/>
<text text-anchor="middle" x="658.687" y="-191.5" font-family="Helvetica,sans-Serif" font-size="10.00">yarp/os/Semaphore.h</text>
</g>
<!-- Node6&#45;&gt;Node36 -->
<g id="edge51" class="edge"><title>Node6&#45;&gt;Node36</title>
<path fill="none" stroke="midnightblue" d="M573.027,-240.45C589.266,-231.929 615.137,-218.353 634.202,-208.349"/>
<polygon fill="midnightblue" stroke="midnightblue" points="635.974,-211.371 643.203,-203.625 632.722,-205.173 635.974,-211.371"/>
</g>
<!-- Node8 -->
<g id="node9" class="node"><title>Node8</title>
<g id="a_node9"><a xlink:href="../../df/d67/ObserverSubjectBase_8h.html" target="_top" xlink:title="Declaration file of the Observer and Subject base classes. ">
<polygon fill="white" stroke="black" points="194.717,-65.5 194.717,-93.5 334.657,-93.5 334.657,-65.5 194.717,-65.5"/>
<text text-anchor="start" x="202.717" y="-81.5" font-family="Helvetica,sans-Serif" font-size="10.00">ocra/optim/ObserverSubject</text>
<text text-anchor="middle" x="264.687" y="-71.5" font-family="Helvetica,sans-Serif" font-size="10.00">Base.h</text>
</a>
</g>
</g>
<!-- Node7&#45;&gt;Node8 -->
<g id="edge9" class="edge"><title>Node7&#45;&gt;Node8</title>
<path fill="none" stroke="midnightblue" d="M506.048,-130.496C462.69,-121.515 391.375,-106.743 337.481,-95.5788"/>
<polygon fill="midnightblue" stroke="midnightblue" points="338.134,-92.1397 327.631,-93.5385 336.714,-98.9942 338.134,-92.1397"/>
</g>
<!-- Node12 -->
<g id="node13" class="node"><title>Node12</title>
<polygon fill="white" stroke="#bfbfbf" points="0,-0.5 0,-28.5 99.374,-28.5 99.374,-0.5 0,-0.5"/>
<text text-anchor="start" x="8" y="-16.5" font-family="Helvetica,sans-Serif" font-size="10.00">boost/type_traits/is</text>
<text text-anchor="middle" x="49.687" y="-6.5" font-family="Helvetica,sans-Serif" font-size="10.00">_class.hpp</text>
</g>
<!-- Node7&#45;&gt;Node12 -->
<g id="edge21" class="edge"><title>Node7&#45;&gt;Node12</title>
<path fill="none" stroke="midnightblue" d="M470.34,-130.882C373.111,-120.673 212,-102.819 185.687,-94 144.349,-80.1446 101.585,-52.9658 75.3089,-34.5168"/>
<polygon fill="midnightblue" stroke="midnightblue" points="77.2286,-31.5869 67.0557,-28.6267 73.1622,-37.2847 77.2286,-31.5869"/>
</g>
<!-- Node13 -->
<g id="node14" class="node"><title>Node13</title>
<polygon fill="white" stroke="#bfbfbf" points="410,-0.5 410,-28.5 509.374,-28.5 509.374,-0.5 410,-0.5"/>
<text text-anchor="start" x="418" y="-16.5" font-family="Helvetica,sans-Serif" font-size="10.00">boost/type_traits/is</text>
<text text-anchor="middle" x="459.687" y="-6.5" font-family="Helvetica,sans-Serif" font-size="10.00">_base_of.hpp</text>
</g>
<!-- Node7&#45;&gt;Node13 -->
<g id="edge19" class="edge"><title>Node7&#45;&gt;Node13</title>
<path fill="none" stroke="midnightblue" d="M488.317,-130.488C446.575,-123.265 394.772,-111.136 381.687,-94 364.35,-71.2953 393.466,-48.4829 420.923,-33.3476"/>
<polygon fill="midnightblue" stroke="midnightblue" points="422.879,-36.273 430.101,-28.5202 419.621,-30.0777 422.879,-36.273"/>
</g>
<!-- Node14 -->
<g id="node15" class="node"><title>Node14</title>
<polygon fill="white" stroke="#bfbfbf" points="527.269,-5.5 527.269,-23.5 646.105,-23.5 646.105,-5.5 527.269,-5.5"/>
<text text-anchor="middle" x="586.687" y="-11.5" font-family="Helvetica,sans-Serif" font-size="10.00">boost/static_assert.hpp</text>
</g>
<!-- Node7&#45;&gt;Node14 -->
<g id="edge18" class="edge"><title>Node7&#45;&gt;Node14</title>
<path fill="none" stroke="midnightblue" d="M546.694,-130.239C550.102,-116.528 557.461,-88.273 565.687,-65 569.484,-54.2567 574.435,-42.5048 578.575,-33.1485"/>
<polygon fill="midnightblue" stroke="midnightblue" points="581.878,-34.3389 582.801,-23.7844 575.498,-31.4594 581.878,-34.3389"/>
</g>
<!-- Node16 -->
<g id="node17" class="node"><title>Node16</title>
<g id="a_node17"><a xlink:href="../../db/ddf/ocra__events_8h.html" target="_top" xlink:title="ocra/optim/ocra_events.h">
<polygon fill="white" stroke="black" points="390.547,-70.5 390.547,-88.5 518.827,-88.5 518.827,-70.5 390.547,-70.5"/>
<text text-anchor="middle" x="454.687" y="-76.5" font-family="Helvetica,sans-Serif" font-size="10.00">ocra/optim/ocra_events.h</text>
</a>
</g>
</g>
<!-- Node7&#45;&gt;Node16 -->
<g id="edge17" class="edge"><title>Node7&#45;&gt;Node16</title>
<path fill="none" stroke="midnightblue" d="M532.173,-130.435C517.613,-121.052 493.337,-105.408 475.833,-94.1277"/>
<polygon fill="midnightblue" stroke="midnightblue" points="477.687,-91.1582 467.385,-88.6831 473.895,-97.0422 477.687,-91.1582"/>
</g>
<!-- Node17 -->
<g id="node18" class="node"><title>Node17</title>
<polygon fill="white" stroke="#bfbfbf" points="575,-65.5 575,-93.5 674.374,-93.5 674.374,-65.5 575,-65.5"/>
<text text-anchor="start" x="583" y="-81.5" font-family="Helvetica,sans-Serif" font-size="10.00">boost/type_traits/is</text>
<text text-anchor="middle" x="624.687" y="-71.5" font-family="Helvetica,sans-Serif" font-size="10.00">_convertible.hpp</text>
</g>
<!-- Node7&#45;&gt;Node17 -->
<g id="edge20" class="edge"><title>Node7&#45;&gt;Node17</title>
<path fill="none" stroke="midnightblue" d="M555.811,-130.435C566.793,-122.473 583.993,-110.003 598.458,-99.5163"/>
<polygon fill="midnightblue" stroke="midnightblue" points="600.548,-102.324 606.59,-93.6203 596.439,-96.6564 600.548,-102.324"/>
</g>
<!-- Node9 -->
<g id="node10" class="node"><title>Node9</title>
<polygon fill="white" stroke="#bfbfbf" points="333.283,-5.5 333.283,-23.5 392.091,-23.5 392.091,-5.5 333.283,-5.5"/>
<text text-anchor="middle" x="362.687" y="-11.5" font-family="Helvetica,sans-Serif" font-size="10.00">functional</text>
</g>
<!-- Node8&#45;&gt;Node9 -->
<g id="edge10" class="edge"><title>Node8&#45;&gt;Node9</title>
<path fill="none" stroke="midnightblue" d="M284.993,-65.4464C301.549,-54.8029 324.854,-39.8214 341.614,-29.0468"/>
<polygon fill="midnightblue" stroke="midnightblue" points="343.649,-31.8997 350.168,-23.548 339.863,-26.0115 343.649,-31.8997"/>
</g>
<!-- Node10 -->
<g id="node11" class="node"><title>Node10</title>
<polygon fill="white" stroke="#bfbfbf" points="951.123,-5.5 951.123,-23.5 1008.25,-23.5 1008.25,-5.5 951.123,-5.5"/>
<text text-anchor="middle" x="979.687" y="-11.5" font-family="Helvetica,sans-Serif" font-size="10.00">algorithm</text>
</g>
<!-- Node8&#45;&gt;Node10 -->
<g id="edge11" class="edge"><title>Node8&#45;&gt;Node10</title>
<path fill="none" stroke="midnightblue" d="M334.869,-70.0288C350.283,-68.2725 366.528,-66.5016 381.687,-65 592.521,-44.116 845.782,-25.1731 940.996,-18.2677"/>
<polygon fill="midnightblue" stroke="midnightblue" points="941.305,-21.7545 951.027,-17.5423 940.8,-14.7727 941.305,-21.7545"/>
</g>
<!-- Node11 -->
<g id="node12" class="node"><title>Node11</title>
<polygon fill="white" stroke="#bfbfbf" points="117.642,-5.5 117.642,-23.5 195.732,-23.5 195.732,-5.5 117.642,-5.5"/>
<text text-anchor="middle" x="156.687" y="-11.5" font-family="Helvetica,sans-Serif" font-size="10.00">boost/any.hpp</text>
</g>
<!-- Node8&#45;&gt;Node11 -->
<g id="edge12" class="edge"><title>Node8&#45;&gt;Node11</title>
<path fill="none" stroke="midnightblue" d="M242.309,-65.4464C223.81,-54.6551 197.666,-39.4044 179.145,-28.6003"/>
<polygon fill="midnightblue" stroke="midnightblue" points="180.885,-25.5635 170.484,-23.548 177.358,-31.61 180.885,-25.5635"/>
</g>
<!-- Node8&#45;&gt;Node12 -->
<g id="edge13" class="edge"><title>Node8&#45;&gt;Node12</title>
<path fill="none" stroke="midnightblue" d="M220.139,-65.4464C186.411,-55.5632 139.917,-41.9394 104.007,-31.4169"/>
<polygon fill="midnightblue" stroke="midnightblue" points="104.759,-27.9902 94.1781,-28.5369 102.79,-34.7078 104.759,-27.9902"/>
</g>
<!-- Node8&#45;&gt;Node13 -->
<g id="edge14" class="edge"><title>Node8&#45;&gt;Node13</title>
<path fill="none" stroke="midnightblue" d="M305.091,-65.4464C335.42,-55.6477 377.131,-42.1721 409.583,-31.6874"/>
<polygon fill="midnightblue" stroke="midnightblue" points="410.895,-34.9418 419.335,-28.5369 408.743,-28.2808 410.895,-34.9418"/>
</g>
<!-- Node8&#45;&gt;Node14 -->
<g id="edge15" class="edge"><title>Node8&#45;&gt;Node14</title>
<path fill="none" stroke="midnightblue" d="M331.815,-65.4846C383.028,-55.5388 455.319,-41.4648 518.687,-29 524.437,-27.869 530.459,-26.6799 536.442,-25.4957"/>
<polygon fill="midnightblue" stroke="midnightblue" points="537.291,-28.8957 546.42,-23.5185 535.93,-22.0292 537.291,-28.8957"/>
</g>
<!-- Node15 -->
<g id="node16" class="node"><title>Node15</title>
<polygon fill="white" stroke="#bfbfbf" points="213.882,-0.5 213.882,-28.5 315.492,-28.5 315.492,-0.5 213.882,-0.5"/>
<text text-anchor="start" x="221.882" y="-16.5" font-family="Helvetica,sans-Serif" font-size="10.00">boost/ptr_container</text>
<text text-anchor="middle" x="264.687" y="-6.5" font-family="Helvetica,sans-Serif" font-size="10.00">/ptr_vector.hpp</text>
</g>
<!-- Node8&#45;&gt;Node15 -->
<g id="edge16" class="edge"><title>Node8&#45;&gt;Node15</title>
<path fill="none" stroke="midnightblue" d="M264.687,-65.4464C264.687,-57.7594 264.687,-47.8097 264.687,-38.8163"/>
<polygon fill="midnightblue" stroke="midnightblue" points="268.187,-38.5369 264.687,-28.5369 261.187,-38.537 268.187,-38.5369"/>
</g>
<!-- Node18&#45;&gt;Node7 -->
<g id="edge23" class="edge"><title>Node18&#45;&gt;Node7</title>
<path fill="none" stroke="midnightblue" d="M783.009,-185.45C733.247,-176.065 650.985,-160.549 597.31,-150.425"/>
<polygon fill="midnightblue" stroke="midnightblue" points="597.781,-146.952 587.305,-148.538 596.483,-153.831 597.781,-146.952"/>
</g>
<!-- Node19 -->
<g id="node20" class="node"><title>Node19</title>
<g id="a_node20"><a xlink:href="../../d1/de6/Composite_8h.html" target="_top" xlink:title="Utility classes and functions to implement the Composite design pattern. ">
<polygon fill="white" stroke="black" points="878.887,-130.5 878.887,-148.5 1000.49,-148.5 1000.49,-130.5 878.887,-130.5"/>
<text text-anchor="middle" x="939.687" y="-136.5" font-family="Helvetica,sans-Serif" font-size="10.00">ocra/optim/Composite.h</text>
</a>
</g>
</g>
<!-- Node18&#45;&gt;Node19 -->
<g id="edge24" class="edge"><title>Node18&#45;&gt;Node19</title>
<path fill="none" stroke="midnightblue" d="M843.001,-185.45C861.582,-176.812 891.333,-162.98 912.93,-152.94"/>
<polygon fill="midnightblue" stroke="midnightblue" points="914.618,-156.015 922.21,-148.625 911.666,-149.667 914.618,-156.015"/>
</g>
<!-- Node22 -->
<g id="node23" class="node"><title>Node22</title>
<polygon fill="white" stroke="#bfbfbf" points="691.978,-70.5 691.978,-88.5 811.396,-88.5 811.396,-70.5 691.978,-70.5"/>
<text text-anchor="middle" x="751.687" y="-76.5" font-family="Helvetica,sans-Serif" font-size="10.00">boost/noncopyable.hpp</text>
</g>
<!-- Node18&#45;&gt;Node22 -->
<g id="edge37" class="edge"><title>Node18&#45;&gt;Node22</title>
<path fill="none" stroke="midnightblue" d="M813.378,-185.329C802.137,-177.291 785.777,-164.061 775.687,-149 765.393,-133.635 759.014,-113.373 755.445,-98.8796"/>
<polygon fill="midnightblue" stroke="midnightblue" points="758.765,-97.689 753.163,-88.6962 751.934,-99.2196 758.765,-97.689"/>
</g>
<!-- Node24 -->
<g id="node25" class="node"><title>Node24</title>
<polygon fill="white" stroke="#bfbfbf" points="829.071,-70.5 829.071,-88.5 872.303,-88.5 872.303,-70.5 829.071,-70.5"/>
<text text-anchor="middle" x="850.687" y="-76.5" font-family="Helvetica,sans-Serif" font-size="10.00">vector</text>
</g>
<!-- Node18&#45;&gt;Node24 -->
<g id="edge39" class="edge"><title>Node18&#45;&gt;Node24</title>
<path fill="none" stroke="midnightblue" d="M812.886,-185.322C796.316,-173.642 770.785,-151.239 781.687,-130 786.732,-120.171 809.52,-104.885 827.546,-93.8999"/>
<polygon fill="midnightblue" stroke="midnightblue" points="829.629,-96.7324 836.419,-88.5993 826.04,-90.723 829.629,-96.7324"/>
</g>
<!-- Node27 -->
<g id="node28" class="node"><title>Node27</title>
<polygon fill="white" stroke="#bfbfbf" points="790.722,-130.5 790.722,-148.5 860.652,-148.5 860.652,-130.5 790.722,-130.5"/>
<text text-anchor="middle" x="825.687" y="-136.5" font-family="Helvetica,sans-Serif" font-size="10.00">Eigen/Eigen</text>
</g>
<!-- Node18&#45;&gt;Node27 -->
<g id="edge36" class="edge"><title>Node18&#45;&gt;Node27</title>
<path fill="none" stroke="midnightblue" d="M825.687,-185.219C825.687,-178.177 825.687,-167.808 825.687,-158.828"/>
<polygon fill="midnightblue" stroke="midnightblue" points="829.187,-158.55 825.687,-148.55 822.187,-158.55 829.187,-158.55"/>
</g>
<!-- Node18&#45;&gt;Node28 -->
<g id="edge38" class="edge"><title>Node18&#45;&gt;Node28</title>
<path fill="none" stroke="midnightblue" d="M861.088,-185.468C896.199,-177.385 951.755,-164.282 1008.57,-149.204"/>
<polygon fill="midnightblue" stroke="midnightblue" points="1009.68,-152.53 1018.44,-146.568 1007.88,-145.767 1009.68,-152.53"/>
</g>
<!-- Node19&#45;&gt;Node10 -->
<g id="edge33" class="edge"><title>Node19&#45;&gt;Node10</title>
<path fill="none" stroke="midnightblue" d="M1000.81,-130.656C1089.2,-119.17 1242.68,-98.6321 1246.69,-94 1310.65,-20.102 1106.83,-13.9744 1018.48,-14.657"/>
<polygon fill="midnightblue" stroke="midnightblue" points="1018.26,-11.1591 1008.3,-14.77 1018.34,-18.1587 1018.26,-11.1591"/>
</g>
<!-- Node19&#45;&gt;Node13 -->
<g id="edge29" class="edge"><title>Node19&#45;&gt;Node13</title>
<path fill="none" stroke="midnightblue" d="M935.996,-130.319C928.394,-114.543 909.349,-80.1403 881.687,-65 813.148,-27.4868 613.818,-40.9829 519.63,-28.8388"/>
<polygon fill="midnightblue" stroke="midnightblue" points="519.894,-25.3403 509.493,-27.3609 518.884,-32.2671 519.894,-25.3403"/>
</g>
<!-- Node19&#45;&gt;Node14 -->
<g id="edge28" class="edge"><title>Node19&#45;&gt;Node14</title>
<path fill="none" stroke="midnightblue" d="M939.503,-130.128C938.676,-114.643 934.54,-81.5992 914.687,-65 876.583,-33.1419 740.92,-21.7425 656.464,-17.6954"/>
<polygon fill="midnightblue" stroke="midnightblue" points="656.578,-14.197 646.428,-17.2374 656.258,-21.1898 656.578,-14.197"/>
</g>
<!-- Node19&#45;&gt;Node17 -->
<g id="edge30" class="edge"><title>Node19&#45;&gt;Node17</title>
<path fill="none" stroke="midnightblue" d="M888.326,-130.494C838.566,-122.539 760.738,-109.573 684.843,-94.377"/>
<polygon fill="midnightblue" stroke="midnightblue" points="685.129,-90.8643 674.634,-92.3169 683.744,-97.726 685.129,-90.8643"/>
</g>
<!-- Node20 -->
<g id="node21" class="node"><title>Node20</title>
<g id="a_node21"><a xlink:href="../../de/df3/ocra__assert_8h.html" target="_top" xlink:title="ocra/optim/ocra_assert.h">
<polygon fill="white" stroke="black" points="1293.66,-70.5 1293.66,-88.5 1419.71,-88.5 1419.71,-70.5 1293.66,-70.5"/>
<text text-anchor="middle" x="1356.69" y="-76.5" font-family="Helvetica,sans-Serif" font-size="10.00">ocra/optim/ocra_assert.h</text>
</a>
</g>
</g>
<!-- Node19&#45;&gt;Node20 -->
<g id="edge25" class="edge"><title>Node19&#45;&gt;Node20</title>
<path fill="none" stroke="midnightblue" d="M1000.56,-130.856C1083.4,-120.398 1227.31,-102.015 1279.69,-94 1287.15,-92.858 1295,-91.5749 1302.73,-90.266"/>
<polygon fill="midnightblue" stroke="midnightblue" points="1303.5,-93.6844 1312.76,-88.54 1302.32,-86.7857 1303.5,-93.6844"/>
</g>
<!-- Node19&#45;&gt;Node22 -->
<g id="edge27" class="edge"><title>Node19&#45;&gt;Node22</title>
<path fill="none" stroke="midnightblue" d="M913.546,-130.435C880.807,-120.335 824.553,-102.98 787.74,-91.6227"/>
<polygon fill="midnightblue" stroke="midnightblue" points="788.495,-88.1931 777.908,-88.5894 786.432,-94.882 788.495,-88.1931"/>
</g>
<!-- Node23 -->
<g id="node24" class="node"><title>Node23</title>
<polygon fill="white" stroke="#bfbfbf" points="967.148,-65.5 967.148,-93.5 1098.23,-93.5 1098.23,-65.5 967.148,-65.5"/>
<text text-anchor="start" x="975.148" y="-81.5" font-family="Helvetica,sans-Serif" font-size="10.00">boost/type_traits/has</text>
<text text-anchor="middle" x="1032.69" y="-71.5" font-family="Helvetica,sans-Serif" font-size="10.00">_nothrow_constructor.hpp</text>
</g>
<!-- Node19&#45;&gt;Node23 -->
<g id="edge31" class="edge"><title>Node19&#45;&gt;Node23</title>
<path fill="none" stroke="midnightblue" d="M952.618,-130.435C965.624,-122.324 986.131,-109.535 1003.13,-98.9304"/>
<polygon fill="midnightblue" stroke="midnightblue" points="1005.02,-101.882 1011.65,-93.6203 1001.31,-95.9424 1005.02,-101.882"/>
</g>
<!-- Node19&#45;&gt;Node24 -->
<g id="edge32" class="edge"><title>Node19&#45;&gt;Node24</title>
<path fill="none" stroke="midnightblue" d="M927.312,-130.435C913.046,-121.138 889.347,-105.694 872.077,-94.4393"/>
<polygon fill="midnightblue" stroke="midnightblue" points="873.533,-91.2107 863.244,-88.6831 869.711,-97.0753 873.533,-91.2107"/>
</g>
<!-- Node25 -->
<g id="node26" class="node"><title>Node25</title>
<polygon fill="white" stroke="#bfbfbf" points="1116.51,-70.5 1116.51,-88.5 1160.86,-88.5 1160.86,-70.5 1116.51,-70.5"/>
<text text-anchor="middle" x="1138.69" y="-76.5" font-family="Helvetica,sans-Serif" font-size="10.00">iosfwd</text>
</g>
<!-- Node19&#45;&gt;Node25 -->
<g id="edge34" class="edge"><title>Node19&#45;&gt;Node25</title>
<path fill="none" stroke="midnightblue" d="M976.545,-130.438C1010.91,-122.524 1063.37,-109.418 1107.69,-94 1109.11,-93.5057 1110.55,-92.9751 1112.01,-92.4204"/>
<polygon fill="midnightblue" stroke="midnightblue" points="1113.56,-95.5663 1121.49,-88.5399 1110.91,-89.0876 1113.56,-95.5663"/>
</g>
<!-- Node26 -->
<g id="node27" class="node"><title>Node26</title>
<polygon fill="white" stroke="#bfbfbf" points="1179.29,-70.5 1179.29,-88.5 1238.09,-88.5 1238.09,-70.5 1179.29,-70.5"/>
<text text-anchor="middle" x="1208.69" y="-76.5" font-family="Helvetica,sans-Serif" font-size="10.00">stdexcept</text>
</g>
<!-- Node19&#45;&gt;Node26 -->
<g id="edge35" class="edge"><title>Node19&#45;&gt;Node26</title>
<path fill="none" stroke="midnightblue" d="M992.698,-130.443C1039.63,-122.79 1109.78,-110.076 1169.69,-94 1172.17,-93.3338 1174.72,-92.5892 1177.28,-91.8012"/>
<polygon fill="midnightblue" stroke="midnightblue" points="1178.58,-95.0584 1186.99,-88.6215 1176.4,-88.4056 1178.58,-95.0584"/>
</g>
<!-- Node21 -->
<g id="node22" class="node"><title>Node21</title>
<polygon fill="white" stroke="#bfbfbf" points="1335.63,-5.5 1335.63,-23.5 1377.75,-23.5 1377.75,-5.5 1335.63,-5.5"/>
<text text-anchor="middle" x="1356.69" y="-11.5" font-family="Helvetica,sans-Serif" font-size="10.00">cstdio</text>
</g>
<!-- Node20&#45;&gt;Node21 -->
<g id="edge26" class="edge"><title>Node20&#45;&gt;Node21</title>
<path fill="none" stroke="midnightblue" d="M1356.69,-70.2639C1356.69,-61.0635 1356.69,-45.881 1356.69,-33.8326"/>
<polygon fill="midnightblue" stroke="midnightblue" points="1360.19,-33.5389 1356.69,-23.539 1353.19,-33.539 1360.19,-33.5389"/>
</g>
<!-- Node29&#45;&gt;Node28 -->
<g id="edge41" class="edge"><title>Node29&#45;&gt;Node28</title>
<path fill="none" stroke="midnightblue" d="M1031.94,-185.219C1033.01,-178.099 1034.6,-167.577 1035.97,-158.529"/>
<polygon fill="midnightblue" stroke="midnightblue" points="1039.44,-158.96 1037.47,-148.55 1032.52,-157.915 1039.44,-158.96"/>
</g>
<!-- Node30&#45;&gt;Node7 -->
<g id="edge43" class="edge"><title>Node30&#45;&gt;Node7</title>
<path fill="none" stroke="midnightblue" d="M359.797,-185.45C397.76,-176.221 460.105,-161.063 501.766,-150.935"/>
<polygon fill="midnightblue" stroke="midnightblue" points="502.734,-154.302 511.624,-148.538 501.08,-147.5 502.734,-154.302"/>
</g>
<!-- Node31 -->
<g id="node32" class="node"><title>Node31</title>
<polygon fill="white" stroke="#bfbfbf" points="188.672,-130.5 188.672,-148.5 254.702,-148.5 254.702,-130.5 188.672,-130.5"/>
<text text-anchor="middle" x="221.687" y="-136.5" font-family="Helvetica,sans-Serif" font-size="10.00">Eigen/Core</text>
</g>
<!-- Node30&#45;&gt;Node31 -->
<g id="edge44" class="edge"><title>Node30&#45;&gt;Node31</title>
<path fill="none" stroke="midnightblue" d="M310.74,-185.45C293.78,-176.89 266.716,-163.229 246.871,-153.212"/>
<polygon fill="midnightblue" stroke="midnightblue" points="248.289,-150.007 237.784,-148.625 245.134,-156.256 248.289,-150.007"/>
</g>
<!-- Node32 -->
<g id="node33" class="node"><title>Node32</title>
<polygon fill="white" stroke="#bfbfbf" points="272.705,-130.5 272.705,-148.5 382.669,-148.5 382.669,-130.5 272.705,-130.5"/>
<text text-anchor="middle" x="327.687" y="-136.5" font-family="Helvetica,sans-Serif" font-size="10.00">boost/shared_ptr.hpp</text>
</g>
<!-- Node30&#45;&gt;Node32 -->
<g id="edge45" class="edge"><title>Node30&#45;&gt;Node32</title>
<path fill="none" stroke="midnightblue" d="M326.843,-185.219C326.976,-178.177 327.172,-167.808 327.341,-158.828"/>
<polygon fill="midnightblue" stroke="midnightblue" points="330.846,-158.614 327.535,-148.55 323.847,-158.482 330.846,-158.614"/>
</g>
<!-- Node34 -->
<g id="node35" class="node"><title>Node34</title>
<polygon fill="white" stroke="#bfbfbf" points="400.63,-130.5 400.63,-148.5 452.744,-148.5 452.744,-130.5 400.63,-130.5"/>
<text text-anchor="middle" x="426.687" y="-136.5" font-family="Helvetica,sans-Serif" font-size="10.00">memory</text>
</g>
<!-- Node33&#45;&gt;Node34 -->
<g id="edge47" class="edge"><title>Node33&#45;&gt;Node34</title>
<path fill="none" stroke="midnightblue" d="M458.75,-185.219C453.308,-177.629 445.096,-166.175 438.345,-156.76"/>
<polygon fill="midnightblue" stroke="midnightblue" points="441.13,-154.637 432.458,-148.55 435.441,-158.716 441.13,-154.637"/>
</g>
</g>
</svg>
