<?xml version="1.0" encoding="UTF-8" standalone="no"?>
<!DOCTYPE svg PUBLIC "-//W3C//DTD SVG 1.1//EN"
 "http://www.w3.org/Graphics/SVG/1.1/DTD/svg11.dtd">
<!-- Generated by graphviz version 2.38.0 (20140413.2041)
 -->
<!-- Title: ocra::OrientationTaskBuilder Pages: 1 -->
<svg width="163pt" height="263pt"
 viewBox="0.00 0.00 163.12 263.00" xmlns="http://www.w3.org/2000/svg" xmlns:xlink="http://www.w3.org/1999/xlink">
<g id="graph0" class="graph" transform="scale(1 1) rotate(0) translate(4 259)">
<title>ocra::OrientationTaskBuilder</title>
<polygon fill="white" stroke="none" points="-4,4 -4,-259 159.124,-259 159.124,4 -4,4"/>
<!-- Node2 -->
<g id="node1" class="node"><title>Node2</title>
<polygon fill="#bfbfbf" stroke="black" points="0,-0.5 0,-18.5 141.615,-18.5 141.615,-0.5 0,-0.5"/>
<text text-anchor="middle" x="70.8076" y="-6.5" font-family="Helvetica,sans-Serif" font-size="10.00">ocra::OrientationTaskBuilder</text>
</g>
<!-- Node3 -->
<g id="node2" class="node"><title>Node3</title>
<g id="a_node2"><a xlink:href="../../d6/d6a/classocra_1_1TaskBuilder.html" target="_top" xlink:title="ocra::TaskBuilder">
<polygon fill="white" stroke="black" points="24.458,-56.5 24.458,-74.5 117.157,-74.5 117.157,-56.5 24.458,-56.5"/>
<text text-anchor="middle" x="70.8076" y="-62.5" font-family="Helvetica,sans-Serif" font-size="10.00">ocra::TaskBuilder</text>
</a>
</g>
</g>
<!-- Node3&#45;&gt;Node2 -->
<g id="edge1" class="edge"><title>Node3&#45;&gt;Node2</title>
<path fill="none" stroke="midnightblue" d="M70.8076,-45.8288C70.8076,-36.5774 70.8076,-25.8798 70.8076,-18.7014"/>
<polygon fill="midnightblue" stroke="midnightblue" points="67.3077,-46.0625 70.8076,-56.0625 74.3077,-46.0625 67.3077,-46.0625"/>
</g>
<!-- Node4 -->
<g id="node3" class="node"><title>Node4</title>
<g id="a_node3"><a xlink:href="../../d9/d2f/classocra_1_1TaskBuilderOptions.html" target="_top" xlink:title="ocra::TaskBuilderOptions">
<polygon fill="white" stroke="black" points="7.22656,-121.5 7.22656,-139.5 134.389,-139.5 134.389,-121.5 7.22656,-121.5"/>
<text text-anchor="middle" x="70.8076" y="-127.5" font-family="Helvetica,sans-Serif" font-size="10.00">ocra::TaskBuilderOptions</text>
</a>
</g>
</g>
<!-- Node4&#45;&gt;Node3 -->
<g id="edge2" class="edge"><title>Node4&#45;&gt;Node3</title>
<path fill="none" stroke="#9a32cd" stroke-dasharray="5,2" d="M70.8076,-110.907C70.8076,-98.8146 70.8076,-83.6529 70.8076,-74.539"/>
<polygon fill="#9a32cd" stroke="#9a32cd" points="67.3077,-111.264 70.8076,-121.264 74.3077,-111.264 67.3077,-111.264"/>
<text text-anchor="middle" x="88.3198" y="-95" font-family="Helvetica,sans-Serif" font-size="10.00"> options</text>
</g>
<!-- Node5 -->
<g id="node4" class="node"><title>Node5</title>
<polygon fill="white" stroke="#bfbfbf" points="42.5146,-236.5 42.5146,-254.5 99.1006,-254.5 99.1006,-236.5 42.5146,-236.5"/>
<text text-anchor="middle" x="70.8076" y="-242.5" font-family="Helvetica,sans-Serif" font-size="10.00">VectorXd</text>
</g>
<!-- Node5&#45;&gt;Node4 -->
<g id="edge3" class="edge"><title>Node5&#45;&gt;Node4</title>
<path fill="none" stroke="#9a32cd" stroke-dasharray="5,2" d="M70.8076,-226.071C70.8076,-201.073 70.8076,-157.482 70.8076,-139.553"/>
<polygon fill="#9a32cd" stroke="#9a32cd" points="67.3077,-226.373 70.8076,-236.373 74.3077,-226.373 67.3077,-226.373"/>
<text text-anchor="middle" x="112.966" y="-210" font-family="Helvetica,sans-Serif" font-size="10.00"> nameDesired</text>
<text text-anchor="middle" x="112.966" y="-200" font-family="Helvetica,sans-Serif" font-size="10.00">indexDesired</text>
<text text-anchor="middle" x="112.966" y="-190" font-family="Helvetica,sans-Serif" font-size="10.00">desired</text>
<text text-anchor="middle" x="112.966" y="-180" font-family="Helvetica,sans-Serif" font-size="10.00">indexWeightVector</text>
<text text-anchor="middle" x="112.966" y="-170" font-family="Helvetica,sans-Serif" font-size="10.00">weightVector</text>
<text text-anchor="middle" x="112.966" y="-160" font-family="Helvetica,sans-Serif" font-size="10.00">nameWeightVector</text>
</g>
</g>
</svg>
