<?xml version="1.0" encoding="UTF-8" standalone="no"?>
<!DOCTYPE svg PUBLIC "-//W3C//DTD SVG 1.1//EN"
 "http://www.w3.org/Graphics/SVG/1.1/DTD/svg11.dtd">
<!-- Generated by graphviz version 2.38.0 (20140413.2041)
 -->
<!-- Title: EigenUtilities.h Pages: 1 -->
<svg width="229pt" height="82pt"
 viewBox="0.00 0.00 229.25 82.00" xmlns="http://www.w3.org/2000/svg" xmlns:xlink="http://www.w3.org/1999/xlink">
<g id="graph0" class="graph" transform="scale(1 1) rotate(0) translate(4 78)">
<title>EigenUtilities.h</title>
<polygon fill="white" stroke="none" points="-4,4 -4,-78 225.246,-78 225.246,4 -4,4"/>
<!-- Node0 -->
<g id="node1" class="node"><title>Node0</title>
<polygon fill="#bfbfbf" stroke="black" points="84.5591,-55.5 84.5591,-73.5 166.702,-73.5 166.702,-55.5 84.5591,-55.5"/>
<text text-anchor="middle" x="125.63" y="-61.5" font-family="Helvetica,sans-Serif" font-size="10.00">EigenUtilities.h</text>
</g>
<!-- Node1 -->
<g id="node2" class="node"><title>Node1</title>
<polygon fill="white" stroke="#bfbfbf" points="0,-0.5 0,-18.5 73.2607,-18.5 73.2607,-0.5 0,-0.5"/>
<text text-anchor="middle" x="36.6304" y="-6.5" font-family="Helvetica,sans-Serif" font-size="10.00">Eigen/Dense</text>
</g>
<!-- Node0&#45;&gt;Node1 -->
<g id="edge1" class="edge"><title>Node0&#45;&gt;Node1</title>
<path fill="none" stroke="midnightblue" d="M112.113,-55.4504C97.9989,-47.0453 75.6294,-33.7241 58.9002,-23.7618"/>
<polygon fill="midnightblue" stroke="midnightblue" points="60.6575,-20.7347 50.2748,-18.6253 57.0759,-26.7491 60.6575,-20.7347"/>
</g>
<!-- Node2 -->
<g id="node3" class="node"><title>Node2</title>
<polygon fill="white" stroke="#bfbfbf" points="91.2266,-0.5 91.2266,-18.5 160.034,-18.5 160.034,-0.5 91.2266,-0.5"/>
<text text-anchor="middle" x="125.63" y="-6.5" font-family="Helvetica,sans-Serif" font-size="10.00">Eigen/Lgsm</text>
</g>
<!-- Node0&#45;&gt;Node2 -->
<g id="edge2" class="edge"><title>Node0&#45;&gt;Node2</title>
<path fill="none" stroke="midnightblue" d="M125.63,-55.2188C125.63,-48.1769 125.63,-37.8083 125.63,-28.8277"/>
<polygon fill="midnightblue" stroke="midnightblue" points="129.13,-28.5495 125.63,-18.5496 122.13,-28.5496 129.13,-28.5495"/>
</g>
<!-- Node3 -->
<g id="node4" class="node"><title>Node3</title>
<polygon fill="white" stroke="#bfbfbf" points="178.015,-0.5 178.015,-18.5 221.246,-18.5 221.246,-0.5 178.015,-0.5"/>
<text text-anchor="middle" x="199.63" y="-6.5" font-family="Helvetica,sans-Serif" font-size="10.00">vector</text>
</g>
<!-- Node0&#45;&gt;Node3 -->
<g id="edge3" class="edge"><title>Node0&#45;&gt;Node3</title>
<path fill="none" stroke="midnightblue" d="M136.869,-55.4504C148.279,-47.2788 166.176,-34.4604 179.944,-24.5996"/>
<polygon fill="midnightblue" stroke="midnightblue" points="182.194,-27.2936 188.286,-18.6253 178.118,-21.6027 182.194,-27.2936"/>
</g>
</g>
</svg>
