<?xml version="1.0" encoding="UTF-8" standalone="no"?>
<!DOCTYPE svg PUBLIC "-//W3C//DTD SVG 1.1//EN"
 "http://www.w3.org/Graphics/SVG/1.1/DTD/svg11.dtd">
<!-- Generated by graphviz version 2.38.0 (20140413.2041)
 -->
<!-- Title: ocra::RowFunction&lt; T &gt; Pages: 1 -->
<svg width="266pt" height="82pt"
 viewBox="0.00 0.00 265.57 82.00" xmlns="http://www.w3.org/2000/svg" xmlns:xlink="http://www.w3.org/1999/xlink">
<g id="graph0" class="graph" transform="scale(1 1) rotate(0) translate(4 78)">
<title>ocra::RowFunction&lt; T &gt;</title>
<polygon fill="white" stroke="none" points="-4,4 -4,-78 261.572,-78 261.572,4 -4,4"/>
<!-- Node0 -->
<g id="node1" class="node"><title>Node0</title>
<polygon fill="#bfbfbf" stroke="black" points="53.6216,-0.5 53.6216,-18.5 175.984,-18.5 175.984,-0.5 53.6216,-0.5"/>
<text text-anchor="middle" x="114.803" y="-6.5" font-family="Helvetica,sans-Serif" font-size="10.00">ocra::RowFunction&lt; T &gt;</text>
</g>
<!-- Node1 -->
<g id="node2" class="node"><title>Node1</title>
<polygon fill="white" stroke="#bfbfbf" points="0,-55.5 0,-73.5 91.6055,-73.5 91.6055,-55.5 0,-55.5"/>
<text text-anchor="middle" x="45.8027" y="-61.5" font-family="Helvetica,sans-Serif" font-size="10.00">T::functionType_t</text>
</g>
<!-- Node1&#45;&gt;Node0 -->
<g id="edge1" class="edge"><title>Node1&#45;&gt;Node0</title>
<path fill="none" stroke="midnightblue" d="M64.4073,-49.2095C77.1714,-39.4052 93.6504,-26.7474 104.224,-18.6253"/>
<polygon fill="midnightblue" stroke="midnightblue" points="62.0808,-46.5832 56.2823,-55.4504 66.3449,-52.1345 62.0808,-46.5832"/>
</g>
<!-- Node2 -->
<g id="node3" class="node"><title>Node2</title>
<polygon fill="white" stroke="#bfbfbf" points="110.034,-55.5 110.034,-73.5 257.572,-73.5 257.572,-55.5 110.034,-55.5"/>
<text text-anchor="middle" x="183.803" y="-61.5" font-family="Helvetica,sans-Serif" font-size="10.00">IsDerivedFrom&lt; T, Function &gt;</text>
</g>
<!-- Node2&#45;&gt;Node0 -->
<g id="edge2" class="edge"><title>Node2&#45;&gt;Node0</title>
<path fill="none" stroke="#8b1a1a" d="M165.198,-49.2095C152.434,-39.4052 135.955,-26.7474 125.381,-18.6253"/>
<polygon fill="#8b1a1a" stroke="#8b1a1a" points="163.261,-52.1345 173.323,-55.4504 167.525,-46.5832 163.261,-52.1345"/>
</g>
</g>
</svg>
