<?xml version="1.0" encoding="UTF-8" standalone="no"?>
<!DOCTYPE svg PUBLIC "-//W3C//DTD SVG 1.1//EN"
 "http://www.w3.org/Graphics/SVG/1.1/DTD/svg11.dtd">
<!-- Generated by graphviz version 2.38.0 (20140413.2041)
 -->
<!-- Title: gocra Pages: 1 -->
<svg width="113pt" height="230pt"
 viewBox="0.00 0.00 113.00 230.00" xmlns="http://www.w3.org/2000/svg" xmlns:xlink="http://www.w3.org/1999/xlink">
<g id="graph0" class="graph" transform="scale(1 1) rotate(0) translate(4 226)">
<title>gocra</title>
<polygon fill="white" stroke="none" points="-4,4 -4,-226 109,-226 109,4 -4,4"/>
<g id="clust1" class="cluster"><title>clusterdir_2093c66c76bc540995905a5d4eb94ce6</title>
<g id="a_clust1"><a xlink:href="dir_2093c66c76bc540995905a5d4eb94ce6.html" target="_top" xlink:title="include">
<polygon fill="#ddddee" stroke="black" points="8,-56 8,-214 94,-214 94,-56 8,-56"/>
<text text-anchor="middle" x="51" y="-202" font-family="Helvetica,sans-Serif" font-size="10.00">include</text>
</a>
</g>
</g>
<g id="clust2" class="cluster"><title>clusterdir_e6fc671b9e6ec1f66c60697c84531ef6</title>
<g id="a_clust2"><a xlink:href="dir_e6fc671b9e6ec1f66c60697c84531ef6.html" target="_top">
<polygon fill="#eeeeff" stroke="black" points="16,-64 16,-188 86,-188 86,-64 16,-64"/>
</a>
</g>
</g>
<!-- dir_e6fc671b9e6ec1f66c60697c84531ef6 -->
<g id="node1" class="node"><title>dir_e6fc671b9e6ec1f66c60697c84531ef6</title>
<text text-anchor="middle" x="51" y="-159" font-family="Helvetica,sans-Serif" font-size="10.00">gocra</text>
</g>
<!-- dir_cdb699f385881371bea1ba2f4560b645 -->
<g id="node2" class="node"><title>dir_cdb699f385881371bea1ba2f4560b645</title>
<g id="a_node2"><a xlink:href="dir_cdb699f385881371bea1ba2f4560b645.html" target="_top" xlink:title="Tasks">
<polygon fill="white" stroke="red" points="78,-108 24,-108 24,-72 78,-72 78,-108"/>
<text text-anchor="middle" x="51" y="-87" font-family="Helvetica,sans-Serif" font-size="10.00">Tasks</text>
</a>
</g>
</g>
<!-- dir_e6fc671b9e6ec1f66c60697c84531ef6&#45;&gt;dir_cdb699f385881371bea1ba2f4560b645 -->
<g id="edge2" class="edge"><title>dir_e6fc671b9e6ec1f66c60697c84531ef6&#45;&gt;dir_cdb699f385881371bea1ba2f4560b645</title>
<path fill="none" stroke="black" d="M51,-143.697C51,-135.983 51,-126.712 51,-118.112"/>
<polygon fill="black" stroke="black" points="54.5001,-118.104 51,-108.104 47.5001,-118.104 54.5001,-118.104"/>
<g id="a_edge2&#45;headlabel"><a xlink:href="dir_000023_000025.html" target="_top" xlink:title="9">
<text text-anchor="middle" x="57.3393" y="-118.699" font-family="Helvetica,sans-Serif" font-size="10.00">9</text>
</a>
</g>
</g>
<!-- dir_1c6d0bf2a3141da4a9eb77799fc9ded8 -->
<g id="node3" class="node"><title>dir_1c6d0bf2a3141da4a9eb77799fc9ded8</title>
<g id="a_node3"><a xlink:href="dir_1c6d0bf2a3141da4a9eb77799fc9ded8.html" target="_top" xlink:title="ocra">
<polygon fill="white" stroke="red" points="105,-36 51,-36 51,-0 105,-0 105,-36"/>
<text text-anchor="middle" x="78" y="-15" font-family="Helvetica,sans-Serif" font-size="10.00">ocra</text>
</a>
</g>
</g>
<!-- dir_e6fc671b9e6ec1f66c60697c84531ef6&#45;&gt;dir_1c6d0bf2a3141da4a9eb77799fc9ded8 -->
<g id="edge3" class="edge"><title>dir_e6fc671b9e6ec1f66c60697c84531ef6&#45;&gt;dir_1c6d0bf2a3141da4a9eb77799fc9ded8</title>
<path fill="none" stroke="black" d="M66.6099,-143.774C74.3729,-134.03 82.9459,-121.184 87,-108 93.2198,-87.7736 90.2688,-63.865 86.1475,-45.9241"/>
<polygon fill="black" stroke="black" points="89.5104,-44.9471 83.6461,-36.1232 82.7278,-46.6782 89.5104,-44.9471"/>
<g id="a_edge3&#45;headlabel"><a xlink:href="dir_000023_000002.html" target="_top" xlink:title="24">
<text text-anchor="middle" x="93.1503" y="-44.728" font-family="Helvetica,sans-Serif" font-size="10.00">24</text>
</a>
</g>
</g>
<!-- dir_cdb699f385881371bea1ba2f4560b645&#45;&gt;dir_1c6d0bf2a3141da4a9eb77799fc9ded8 -->
<g id="edge1" class="edge"><title>dir_cdb699f385881371bea1ba2f4560b645&#45;&gt;dir_1c6d0bf2a3141da4a9eb77799fc9ded8</title>
<path fill="none" stroke="black" d="M57.6742,-71.6966C60.7149,-63.8132 64.3827,-54.3042 67.7607,-45.5464"/>
<polygon fill="black" stroke="black" points="71.0693,-46.6939 71.4026,-36.1043 64.5383,-44.1748 71.0693,-46.6939"/>
<g id="a_edge1&#45;headlabel"><a xlink:href="dir_000025_000002.html" target="_top" xlink:title="21">
<text text-anchor="middle" x="72.4248" y="-48.0695" font-family="Helvetica,sans-Serif" font-size="10.00">21</text>
</a>
</g>
</g>
</g>
</svg>
