<?xml version="1.0" encoding="UTF-8" standalone="no"?>
<!DOCTYPE svg PUBLIC "-//W3C//DTD SVG 1.1//EN"
 "http://www.w3.org/Graphics/SVG/1.1/DTD/svg11.dtd">
<!-- Generated by graphviz version 2.38.0 (20140413.2041)
 -->
<!-- Title: control Pages: 1 -->
<svg width="278pt" height="158pt"
 viewBox="0.00 0.00 278.00 158.00" xmlns="http://www.w3.org/2000/svg" xmlns:xlink="http://www.w3.org/1999/xlink">
<g id="graph0" class="graph" transform="scale(1 1) rotate(0) translate(4 154)">
<title>control</title>
<polygon fill="white" stroke="none" points="-4,4 -4,-154 274,-154 274,4 -4,4"/>
<g id="clust1" class="cluster"><title>clusterdir_7c230de9eb00479a533341ae891ff838</title>
<g id="a_clust1"><a xlink:href="dir_7c230de9eb00479a533341ae891ff838.html" target="_top" xlink:title="src">
<polygon fill="#ddddee" stroke="black" points="8,-56 8,-142 262,-142 262,-56 8,-56"/>
<text text-anchor="middle" x="135" y="-130" font-family="Helvetica,sans-Serif" font-size="10.00">src</text>
</a>
</g>
</g>
<g id="clust2" class="cluster"><title>clusterdir_ba7a259fc2d2d710296f3aad8302b266</title>
<g id="a_clust2"><a xlink:href="dir_ba7a259fc2d2d710296f3aad8302b266.html" target="_top">
<polygon fill="#eeeeff" stroke="black" points="16,-64 16,-116 254,-116 254,-64 16,-64"/>
</a>
</g>
</g>
<!-- dir_ba7a259fc2d2d710296f3aad8302b266 -->
<g id="node1" class="node"><title>dir_ba7a259fc2d2d710296f3aad8302b266</title>
<text text-anchor="middle" x="219" y="-87" font-family="Helvetica,sans-Serif" font-size="10.00">control</text>
</g>
<!-- dir_299427f46d6e0ce313cf5001789a1f8b -->
<g id="node4" class="node"><title>dir_299427f46d6e0ce313cf5001789a1f8b</title>
<g id="a_node4"><a xlink:href="dir_299427f46d6e0ce313cf5001789a1f8b.html" target="_top" xlink:title="include">
<polygon fill="white" stroke="red" points="165,-36 111,-36 111,-0 165,-0 165,-36"/>
<text text-anchor="middle" x="138" y="-15" font-family="Helvetica,sans-Serif" font-size="10.00">include</text>
</a>
</g>
</g>
<!-- dir_ba7a259fc2d2d710296f3aad8302b266&#45;&gt;dir_299427f46d6e0ce313cf5001789a1f8b -->
<g id="edge3" class="edge"><title>dir_ba7a259fc2d2d710296f3aad8302b266&#45;&gt;dir_299427f46d6e0ce313cf5001789a1f8b</title>
<path fill="none" stroke="black" d="M200.488,-71.6792C194.922,-66.567 188.762,-61.0031 183,-56 177.988,-51.6481 172.589,-47.096 167.33,-42.7323"/>
<polygon fill="black" stroke="black" points="169.202,-39.7401 159.257,-36.086 164.753,-45.1442 169.202,-39.7401"/>
<g id="a_edge3&#45;headlabel"><a xlink:href="dir_000008_000003.html" target="_top" xlink:title="43">
<text text-anchor="middle" x="173.782" y="-36.8329" font-family="Helvetica,sans-Serif" font-size="10.00">43</text>
</a>
</g>
</g>
<!-- dir_bd7d53f33b31f1a5b50db98bec135101 -->
<g id="node2" class="node"><title>dir_bd7d53f33b31f1a5b50db98bec135101</title>
<g id="a_node2"><a xlink:href="dir_bd7d53f33b31f1a5b50db98bec135101.html" target="_top" xlink:title="TaskBuilders">
<polygon fill="white" stroke="black" points="174.19,-108 101.81,-108 101.81,-72 174.19,-72 174.19,-108"/>
<text text-anchor="middle" x="138" y="-87" font-family="Helvetica,sans-Serif" font-size="10.00">TaskBuilders</text>
</a>
</g>
</g>
<!-- dir_bd7d53f33b31f1a5b50db98bec135101&#45;&gt;dir_299427f46d6e0ce313cf5001789a1f8b -->
<g id="edge2" class="edge"><title>dir_bd7d53f33b31f1a5b50db98bec135101&#45;&gt;dir_299427f46d6e0ce313cf5001789a1f8b</title>
<path fill="none" stroke="black" d="M138,-71.6966C138,-63.9827 138,-54.7125 138,-46.1124"/>
<polygon fill="black" stroke="black" points="141.5,-46.1043 138,-36.1043 134.5,-46.1044 141.5,-46.1043"/>
<g id="a_edge2&#45;headlabel"><a xlink:href="dir_000009_000003.html" target="_top" xlink:title="10">
<text text-anchor="middle" x="144.339" y="-46.699" font-family="Helvetica,sans-Serif" font-size="10.00">10</text>
</a>
</g>
</g>
<!-- dir_14645d2d140a9731b1b67939574270ba -->
<g id="node3" class="node"><title>dir_14645d2d140a9731b1b67939574270ba</title>
<g id="a_node3"><a xlink:href="dir_14645d2d140a9731b1b67939574270ba.html" target="_top" xlink:title="Trajectory">
<polygon fill="white" stroke="black" points="84.087,-108 23.913,-108 23.913,-72 84.087,-72 84.087,-108"/>
<text text-anchor="middle" x="54" y="-87" font-family="Helvetica,sans-Serif" font-size="10.00">Trajectory</text>
</a>
</g>
</g>
<!-- dir_14645d2d140a9731b1b67939574270ba&#45;&gt;dir_299427f46d6e0ce313cf5001789a1f8b -->
<g id="edge1" class="edge"><title>dir_14645d2d140a9731b1b67939574270ba&#45;&gt;dir_299427f46d6e0ce313cf5001789a1f8b</title>
<path fill="none" stroke="black" d="M74.196,-71.818C80.2299,-66.7098 86.87,-61.1131 93,-56 98.0971,-51.7484 103.538,-47.2452 108.812,-42.8987"/>
<polygon fill="black" stroke="black" points="111.388,-45.3118 116.887,-36.2563 106.941,-39.9056 111.388,-45.3118"/>
<g id="a_edge1&#45;headlabel"><a xlink:href="dir_000017_000003.html" target="_top" xlink:title="6">
<text text-anchor="middle" x="110.415" y="-46.788" font-family="Helvetica,sans-Serif" font-size="10.00">6</text>
</a>
</g>
</g>
</g>
</svg>
