<?xml version="1.0" encoding="UTF-8" standalone="no"?>
<!DOCTYPE svg PUBLIC "-//W3C//DTD SVG 1.1//EN"
 "http://www.w3.org/Graphics/SVG/1.1/DTD/svg11.dtd">
<!-- Generated by graphviz version 2.38.0 (20140413.2041)
 -->
<!-- Title: ocra Pages: 1 -->
<svg width="182pt" height="254pt"
 viewBox="0.00 0.00 182.00 254.00" xmlns="http://www.w3.org/2000/svg" xmlns:xlink="http://www.w3.org/1999/xlink">
<g id="graph0" class="graph" transform="scale(1 1) rotate(0) translate(4 250)">
<title>ocra</title>
<polygon fill="white" stroke="none" points="-4,4 -4,-250 178,-250 178,4 -4,4"/>
<g id="clust1" class="cluster"><title>clusterdir_299427f46d6e0ce313cf5001789a1f8b</title>
<g id="a_clust1"><a xlink:href="dir_299427f46d6e0ce313cf5001789a1f8b.html" target="_top" xlink:title="include">
<polygon fill="#ddddee" stroke="black" points="8,-8 8,-238 166,-238 166,-8 8,-8"/>
<text text-anchor="middle" x="87" y="-226" font-family="Helvetica,sans-Serif" font-size="10.00">include</text>
</a>
</g>
</g>
<g id="clust2" class="cluster"><title>clusterdir_4ded287f5e090968895c04f294dfd75a</title>
<g id="a_clust2"><a xlink:href="dir_4ded287f5e090968895c04f294dfd75a.html" target="_top">
<polygon fill="#eeeeff" stroke="black" points="16,-16 16,-212 158,-212 158,-16 16,-16"/>
</a>
</g>
</g>
<!-- dir_4ded287f5e090968895c04f294dfd75a -->
<g id="node1" class="node"><title>dir_4ded287f5e090968895c04f294dfd75a</title>
<text text-anchor="middle" x="123" y="-183" font-family="Helvetica,sans-Serif" font-size="10.00">ocra</text>
</g>
<!-- dir_a95d257b462285295fdf6b81f0297401 -->
<g id="node2" class="node"><title>dir_a95d257b462285295fdf6b81f0297401</title>
<g id="a_node2"><a xlink:href="dir_a95d257b462285295fdf6b81f0297401.html" target="_top" xlink:title="control">
<polygon fill="white" stroke="red" points="78,-204 24,-204 24,-168 78,-168 78,-204"/>
<text text-anchor="middle" x="51" y="-183" font-family="Helvetica,sans-Serif" font-size="10.00">control</text>
</a>
</g>
</g>
<!-- dir_f91d6fb20358b4bf1aaf812310655430 -->
<g id="node3" class="node"><title>dir_f91d6fb20358b4bf1aaf812310655430</title>
<g id="a_node3"><a xlink:href="dir_f91d6fb20358b4bf1aaf812310655430.html" target="_top" xlink:title="optim">
<polygon fill="white" stroke="black" points="78,-132 24,-132 24,-96 78,-96 78,-132"/>
<text text-anchor="middle" x="51" y="-111" font-family="Helvetica,sans-Serif" font-size="10.00">optim</text>
</a>
</g>
</g>
<!-- dir_a95d257b462285295fdf6b81f0297401&#45;&gt;dir_f91d6fb20358b4bf1aaf812310655430 -->
<g id="edge4" class="edge"><title>dir_a95d257b462285295fdf6b81f0297401&#45;&gt;dir_f91d6fb20358b4bf1aaf812310655430</title>
<path fill="none" stroke="black" d="M45.0843,-167.697C44.2886,-159.983 44.0621,-150.712 44.4047,-142.112"/>
<polygon fill="black" stroke="black" points="47.8984,-142.324 45.105,-132.104 40.9154,-141.836 47.8984,-142.324"/>
<g id="a_edge4&#45;headlabel"><a xlink:href="dir_000010_000005.html" target="_top" xlink:title="31">
<text text-anchor="middle" x="50.4799" y="-143.108" font-family="Helvetica,sans-Serif" font-size="10.00">31</text>
</a>
</g>
</g>
<!-- dir_20de452d7840760686826993fa07b5df -->
<g id="node4" class="node"><title>dir_20de452d7840760686826993fa07b5df</title>
<g id="a_node4"><a xlink:href="dir_20de452d7840760686826993fa07b5df.html" target="_top" xlink:title="util">
<polygon fill="white" stroke="black" points="101,-60 47,-60 47,-24 101,-24 101,-60"/>
<text text-anchor="middle" x="74" y="-39" font-family="Helvetica,sans-Serif" font-size="10.00">util</text>
</a>
</g>
</g>
<!-- dir_a95d257b462285295fdf6b81f0297401&#45;&gt;dir_20de452d7840760686826993fa07b5df -->
<g id="edge3" class="edge"><title>dir_a95d257b462285295fdf6b81f0297401&#45;&gt;dir_20de452d7840760686826993fa07b5df</title>
<path fill="none" stroke="black" d="M66.6099,-167.774C74.3729,-158.03 82.9459,-145.184 87,-132 93.2831,-111.568 89.1291,-87.5378 83.9037,-69.6006"/>
<polygon fill="black" stroke="black" points="87.2371,-68.5332 80.8624,-60.0707 80.5685,-70.6615 87.2371,-68.5332"/>
<g id="a_edge3&#45;headlabel"><a xlink:href="dir_000010_000016.html" target="_top" xlink:title="27">
<text text-anchor="middle" x="91.0348" y="-68.0945" font-family="Helvetica,sans-Serif" font-size="10.00">27</text>
</a>
</g>
</g>
<!-- dir_f91d6fb20358b4bf1aaf812310655430&#45;&gt;dir_a95d257b462285295fdf6b81f0297401 -->
<g id="edge2" class="edge"><title>dir_f91d6fb20358b4bf1aaf812310655430&#45;&gt;dir_a95d257b462285295fdf6b81f0297401</title>
<path fill="none" stroke="black" d="M56.895,-132.104C57.7005,-139.791 57.9369,-149.054 57.604,-157.665"/>
<polygon fill="black" stroke="black" points="54.1085,-157.48 56.9157,-167.697 61.0921,-157.96 54.1085,-157.48"/>
<g id="a_edge2&#45;headlabel"><a xlink:href="dir_000005_000010.html" target="_top" xlink:title="5">
<text text-anchor="middle" x="51.5219" y="-150.7" font-family="Helvetica,sans-Serif" font-size="10.00">5</text>
</a>
</g>
</g>
<!-- dir_f91d6fb20358b4bf1aaf812310655430&#45;&gt;dir_20de452d7840760686826993fa07b5df -->
<g id="edge1" class="edge"><title>dir_f91d6fb20358b4bf1aaf812310655430&#45;&gt;dir_20de452d7840760686826993fa07b5df</title>
<path fill="none" stroke="black" d="M56.6854,-95.6966C59.2478,-87.8979 62.3329,-78.5085 65.1847,-69.8292"/>
<polygon fill="black" stroke="black" points="68.5835,-70.6972 68.38,-60.1043 61.9333,-68.5121 68.5835,-70.6972"/>
<g id="a_edge1&#45;headlabel"><a xlink:href="dir_000005_000016.html" target="_top" xlink:title="10">
<text text-anchor="middle" x="70.1589" y="-71.9985" font-family="Helvetica,sans-Serif" font-size="10.00">10</text>
</a>
</g>
</g>
</g>
</svg>
