<?xml version="1.0" encoding="UTF-8" standalone="no"?>
<!DOCTYPE svg PUBLIC "-//W3C//DTD SVG 1.1//EN"
 "http://www.w3.org/Graphics/SVG/1.1/DTD/svg11.dtd">
<!-- Generated by graphviz version 2.38.0 (20140413.2041)
 -->
<!-- Title: Tasks Pages: 1 -->
<svg width="116pt" height="230pt"
 viewBox="0.00 0.00 116.00 230.00" xmlns="http://www.w3.org/2000/svg" xmlns:xlink="http://www.w3.org/1999/xlink">
<g id="graph0" class="graph" transform="scale(1 1) rotate(0) translate(4 226)">
<title>Tasks</title>
<polygon fill="white" stroke="none" points="-4,4 -4,-226 112,-226 112,4 -4,4"/>
<g id="clust1" class="cluster"><title>clusterdir_e6fc671b9e6ec1f66c60697c84531ef6</title>
<g id="a_clust1"><a xlink:href="dir_e6fc671b9e6ec1f66c60697c84531ef6.html" target="_top" xlink:title="gocra">
<polygon fill="#ddddee" stroke="black" points="8,-56 8,-214 100,-214 100,-56 8,-56"/>
<text text-anchor="middle" x="54" y="-202" font-family="Helvetica,sans-Serif" font-size="10.00">gocra</text>
</a>
</g>
</g>
<g id="clust2" class="cluster"><title>clusterdir_cdb699f385881371bea1ba2f4560b645</title>
<g id="a_clust2"><a xlink:href="dir_cdb699f385881371bea1ba2f4560b645.html" target="_top">
<polygon fill="#eeeeff" stroke="black" points="16,-64 16,-188 92,-188 92,-64 16,-64"/>
</a>
</g>
</g>
<!-- dir_cdb699f385881371bea1ba2f4560b645 -->
<g id="node1" class="node"><title>dir_cdb699f385881371bea1ba2f4560b645</title>
<text text-anchor="middle" x="54" y="-159" font-family="Helvetica,sans-Serif" font-size="10.00">Tasks</text>
</g>
<!-- dir_f52b30356a84eaa8d1a361b55981db49 -->
<g id="node2" class="node"><title>dir_f52b30356a84eaa8d1a361b55981db49</title>
<g id="a_node2"><a xlink:href="dir_f52b30356a84eaa8d1a361b55981db49.html" target="_top" xlink:title="Managers">
<polygon fill="white" stroke="black" points="84.4696,-108 23.5304,-108 23.5304,-72 84.4696,-72 84.4696,-108"/>
<text text-anchor="middle" x="54" y="-87" font-family="Helvetica,sans-Serif" font-size="10.00">Managers</text>
</a>
</g>
</g>
<!-- dir_cdb699f385881371bea1ba2f4560b645&#45;&gt;dir_f52b30356a84eaa8d1a361b55981db49 -->
<g id="edge1" class="edge"><title>dir_cdb699f385881371bea1ba2f4560b645&#45;&gt;dir_f52b30356a84eaa8d1a361b55981db49</title>
<path fill="none" stroke="black" d="M54,-143.697C54,-135.983 54,-126.712 54,-118.112"/>
<polygon fill="black" stroke="black" points="57.5001,-118.104 54,-108.104 50.5001,-118.104 57.5001,-118.104"/>
<g id="a_edge1&#45;headlabel"><a xlink:href="dir_000025_000027.html" target="_top" xlink:title="8">
<text text-anchor="middle" x="60.3393" y="-118.699" font-family="Helvetica,sans-Serif" font-size="10.00">8</text>
</a>
</g>
</g>
<!-- dir_1c6d0bf2a3141da4a9eb77799fc9ded8 -->
<g id="node3" class="node"><title>dir_1c6d0bf2a3141da4a9eb77799fc9ded8</title>
<g id="a_node3"><a xlink:href="dir_1c6d0bf2a3141da4a9eb77799fc9ded8.html" target="_top" xlink:title="ocra">
<polygon fill="white" stroke="red" points="81,-36 27,-36 27,-0 81,-0 81,-36"/>
<text text-anchor="middle" x="54" y="-15" font-family="Helvetica,sans-Serif" font-size="10.00">ocra</text>
</a>
</g>
</g>
<!-- dir_f52b30356a84eaa8d1a361b55981db49&#45;&gt;dir_1c6d0bf2a3141da4a9eb77799fc9ded8 -->
<g id="edge2" class="edge"><title>dir_f52b30356a84eaa8d1a361b55981db49&#45;&gt;dir_1c6d0bf2a3141da4a9eb77799fc9ded8</title>
<path fill="none" stroke="black" d="M54,-71.6966C54,-63.9827 54,-54.7125 54,-46.1124"/>
<polygon fill="black" stroke="black" points="57.5001,-46.1043 54,-36.1043 50.5001,-46.1044 57.5001,-46.1043"/>
<g id="a_edge2&#45;headlabel"><a xlink:href="dir_000027_000002.html" target="_top" xlink:title="12">
<text text-anchor="middle" x="60.3393" y="-46.699" font-family="Helvetica,sans-Serif" font-size="10.00">12</text>
</a>
</g>
</g>
</g>
</svg>
