<?xml version="1.0" encoding="UTF-8" standalone="no"?>
<!DOCTYPE svg PUBLIC "-//W3C//DTD SVG 1.1//EN"
 "http://www.w3.org/Graphics/SVG/1.1/DTD/svg11.dtd">
<!-- Generated by graphviz version 2.38.0 (20140413.2041)
 -->
<!-- Title: Managers Pages: 1 -->
<svg width="100pt" height="150pt"
 viewBox="0.00 0.00 100.00 150.00" xmlns="http://www.w3.org/2000/svg" xmlns:xlink="http://www.w3.org/1999/xlink">
<g id="graph0" class="graph" transform="scale(1 1) rotate(0) translate(4 146)">
<title>Managers</title>
<polygon fill="white" stroke="none" points="-4,4 -4,-146 96,-146 96,4 -4,4"/>
<g id="clust1" class="cluster"><title>clusterdir_cdb699f385881371bea1ba2f4560b645</title>
<g id="a_clust1"><a xlink:href="dir_cdb699f385881371bea1ba2f4560b645.html" target="_top" xlink:title="Tasks">
<polygon fill="#ddddee" stroke="black" points="8,-64 8,-134 84,-134 84,-64 8,-64"/>
<text text-anchor="middle" x="46" y="-122" font-family="Helvetica,sans-Serif" font-size="10.00">Tasks</text>
</a>
</g>
</g>
<!-- dir_f52b30356a84eaa8d1a361b55981db49 -->
<g id="node1" class="node"><title>dir_f52b30356a84eaa8d1a361b55981db49</title>
<g id="a_node1"><a xlink:href="dir_f52b30356a84eaa8d1a361b55981db49.html" target="_top" xlink:title="Managers">
<polygon fill="#eeeeff" stroke="black" points="76.4696,-108 15.5304,-108 15.5304,-72 76.4696,-72 76.4696,-108"/>
<text text-anchor="middle" x="46" y="-87" font-family="Helvetica,sans-Serif" font-size="10.00">Managers</text>
</a>
</g>
</g>
<!-- dir_1c6d0bf2a3141da4a9eb77799fc9ded8 -->
<g id="node2" class="node"><title>dir_1c6d0bf2a3141da4a9eb77799fc9ded8</title>
<g id="a_node2"><a xlink:href="dir_1c6d0bf2a3141da4a9eb77799fc9ded8.html" target="_top" xlink:title="ocra">
<polygon fill="white" stroke="red" points="73,-36 19,-36 19,-0 73,-0 73,-36"/>
<text text-anchor="middle" x="46" y="-15" font-family="Helvetica,sans-Serif" font-size="10.00">ocra</text>
</a>
</g>
</g>
<!-- dir_f52b30356a84eaa8d1a361b55981db49&#45;&gt;dir_1c6d0bf2a3141da4a9eb77799fc9ded8 -->
<g id="edge1" class="edge"><title>dir_f52b30356a84eaa8d1a361b55981db49&#45;&gt;dir_1c6d0bf2a3141da4a9eb77799fc9ded8</title>
<path fill="none" stroke="black" d="M46,-71.6966C46,-63.9827 46,-54.7125 46,-46.1124"/>
<polygon fill="black" stroke="black" points="49.5001,-46.1043 46,-36.1043 42.5001,-46.1044 49.5001,-46.1043"/>
<g id="a_edge1&#45;headlabel"><a xlink:href="dir_000027_000002.html" target="_top" xlink:title="12">
<text text-anchor="middle" x="52.3393" y="-46.699" font-family="Helvetica,sans-Serif" font-size="10.00">12</text>
</a>
</g>
</g>
</g>
</svg>
