<?xml version="1.0" encoding="UTF-8" standalone="no"?>
<!DOCTYPE svg PUBLIC "-//W3C//DTD SVG 1.1//EN"
 "http://www.w3.org/Graphics/SVG/1.1/DTD/svg11.dtd">
<!-- Generated by graphviz version 2.38.0 (20140413.2041)
 -->
<!-- Title: ocra&#45;recipes Pages: 1 -->
<svg width="159pt" height="222pt"
 viewBox="0.00 0.00 159.00 222.00" xmlns="http://www.w3.org/2000/svg" xmlns:xlink="http://www.w3.org/1999/xlink">
<g id="graph0" class="graph" transform="scale(1 1) rotate(0) translate(4 218)">
<title>ocra&#45;recipes</title>
<polygon fill="white" stroke="none" points="-4,4 -4,-218 155,-218 155,4 -4,4"/>
<g id="clust1" class="cluster"><title>clusterdir_b6f6dccefeb974ed6b2f40c4a6c2ac42</title>
<g id="a_clust1"><a xlink:href="dir_b6f6dccefeb974ed6b2f40c4a6c2ac42.html" target="_top" xlink:title="include">
<polygon fill="#ddddee" stroke="black" points="8,-136 8,-206 96,-206 96,-136 8,-136"/>
<text text-anchor="middle" x="52" y="-194" font-family="Helvetica,sans-Serif" font-size="10.00">include</text>
</a>
</g>
</g>
<!-- dir_20b0a967949a31efd98e75cfa16753b8 -->
<g id="node1" class="node"><title>dir_20b0a967949a31efd98e75cfa16753b8</title>
<g id="a_node1"><a xlink:href="dir_20b0a967949a31efd98e75cfa16753b8.html" target="_top" xlink:title="ocra&#45;recipes">
<polygon fill="#eeeeff" stroke="black" points="87.5195,-180 16.4805,-180 16.4805,-144 87.5195,-144 87.5195,-180"/>
<text text-anchor="middle" x="52" y="-159" font-family="Helvetica,sans-Serif" font-size="10.00">ocra&#45;recipes</text>
</a>
</g>
</g>
<!-- dir_1c6d0bf2a3141da4a9eb77799fc9ded8 -->
<g id="node2" class="node"><title>dir_1c6d0bf2a3141da4a9eb77799fc9ded8</title>
<g id="a_node2"><a xlink:href="dir_1c6d0bf2a3141da4a9eb77799fc9ded8.html" target="_top" xlink:title="ocra">
<polygon fill="white" stroke="red" points="79,-36 25,-36 25,-0 79,-0 79,-36"/>
<text text-anchor="middle" x="52" y="-15" font-family="Helvetica,sans-Serif" font-size="10.00">ocra</text>
</a>
</g>
</g>
<!-- dir_20b0a967949a31efd98e75cfa16753b8&#45;&gt;dir_1c6d0bf2a3141da4a9eb77799fc9ded8 -->
<g id="edge2" class="edge"><title>dir_20b0a967949a31efd98e75cfa16753b8&#45;&gt;dir_1c6d0bf2a3141da4a9eb77799fc9ded8</title>
<path fill="none" stroke="black" d="M36.3901,-143.774C28.6271,-134.03 20.0541,-121.184 16,-108 11.2972,-92.7067 11.2972,-87.2933 16,-72 19.0089,-62.2153 24.507,-52.6161 30.3157,-44.3336"/>
<polygon fill="black" stroke="black" points="33.1948,-46.3279 36.3901,-36.2264 27.5928,-42.1306 33.1948,-46.3279"/>
<g id="a_edge2&#45;headlabel"><a xlink:href="dir_000015_000002.html" target="_top" xlink:title="31">
<text text-anchor="middle" x="33.3117" y="-47.9071" font-family="Helvetica,sans-Serif" font-size="10.00">31</text>
</a>
</g>
</g>
<!-- dir_0777ee02f2a9b5fe084d74997e26b88b -->
<g id="node3" class="node"><title>dir_0777ee02f2a9b5fe084d74997e26b88b</title>
<g id="a_node3"><a xlink:href="dir_0777ee02f2a9b5fe084d74997e26b88b.html" target="_top" xlink:title="hocra">
<polygon fill="white" stroke="red" points="79,-108 25,-108 25,-72 79,-72 79,-108"/>
<text text-anchor="middle" x="52" y="-87" font-family="Helvetica,sans-Serif" font-size="10.00">hocra</text>
</a>
</g>
</g>
<!-- dir_20b0a967949a31efd98e75cfa16753b8&#45;&gt;dir_0777ee02f2a9b5fe084d74997e26b88b -->
<g id="edge3" class="edge"><title>dir_20b0a967949a31efd98e75cfa16753b8&#45;&gt;dir_0777ee02f2a9b5fe084d74997e26b88b</title>
<path fill="none" stroke="black" d="M52,-143.697C52,-135.983 52,-126.712 52,-118.112"/>
<polygon fill="black" stroke="black" points="55.5001,-118.104 52,-108.104 48.5001,-118.104 55.5001,-118.104"/>
<g id="a_edge3&#45;headlabel"><a xlink:href="dir_000015_000028.html" target="_top" xlink:title="1">
<text text-anchor="middle" x="58.3393" y="-118.699" font-family="Helvetica,sans-Serif" font-size="10.00">1</text>
</a>
</g>
</g>
<!-- dir_701731b0aa701a244870ea8887d54b2e -->
<g id="node4" class="node"><title>dir_701731b0aa701a244870ea8887d54b2e</title>
<g id="a_node4"><a xlink:href="dir_701731b0aa701a244870ea8887d54b2e.html" target="_top" xlink:title="wocra">
<polygon fill="white" stroke="red" points="151,-108 97,-108 97,-72 151,-72 151,-108"/>
<text text-anchor="middle" x="124" y="-87" font-family="Helvetica,sans-Serif" font-size="10.00">wocra</text>
</a>
</g>
</g>
<!-- dir_20b0a967949a31efd98e75cfa16753b8&#45;&gt;dir_701731b0aa701a244870ea8887d54b2e -->
<g id="edge4" class="edge"><title>dir_20b0a967949a31efd98e75cfa16753b8&#45;&gt;dir_701731b0aa701a244870ea8887d54b2e</title>
<path fill="none" stroke="black" d="M69.7978,-143.697C78.604,-135.135 89.3821,-124.656 99.0011,-115.304"/>
<polygon fill="black" stroke="black" points="101.677,-117.585 106.407,-108.104 96.7972,-112.566 101.677,-117.585"/>
<g id="a_edge4&#45;headlabel"><a xlink:href="dir_000015_000034.html" target="_top" xlink:title="2">
<text text-anchor="middle" x="101.079" y="-119.126" font-family="Helvetica,sans-Serif" font-size="10.00">2</text>
</a>
</g>
</g>
<!-- dir_0777ee02f2a9b5fe084d74997e26b88b&#45;&gt;dir_1c6d0bf2a3141da4a9eb77799fc9ded8 -->
<g id="edge1" class="edge"><title>dir_0777ee02f2a9b5fe084d74997e26b88b&#45;&gt;dir_1c6d0bf2a3141da4a9eb77799fc9ded8</title>
<path fill="none" stroke="black" d="M52,-71.6966C52,-63.9827 52,-54.7125 52,-46.1124"/>
<polygon fill="black" stroke="black" points="55.5001,-46.1043 52,-36.1043 48.5001,-46.1044 55.5001,-46.1043"/>
<g id="a_edge1&#45;headlabel"><a xlink:href="dir_000028_000002.html" target="_top" xlink:title="4">
<text text-anchor="middle" x="58.3393" y="-46.699" font-family="Helvetica,sans-Serif" font-size="10.00">4</text>
</a>
</g>
</g>
<!-- dir_701731b0aa701a244870ea8887d54b2e&#45;&gt;dir_1c6d0bf2a3141da4a9eb77799fc9ded8 -->
<g id="edge5" class="edge"><title>dir_701731b0aa701a244870ea8887d54b2e&#45;&gt;dir_1c6d0bf2a3141da4a9eb77799fc9ded8</title>
<path fill="none" stroke="black" d="M106.202,-71.6966C97.396,-63.135 86.6179,-52.6562 76.9989,-43.3045"/>
<polygon fill="black" stroke="black" points="79.2028,-40.5657 69.593,-36.1043 74.3232,-45.5846 79.2028,-40.5657"/>
<g id="a_edge5&#45;headlabel"><a xlink:href="dir_000034_000002.html" target="_top" xlink:title="8">
<text text-anchor="middle" x="83.7593" y="-38.0356" font-family="Helvetica,sans-Serif" font-size="10.00">8</text>
</a>
</g>
</g>
</g>
</svg>
