<?xml version="1.0" encoding="UTF-8" standalone="no"?>
<!DOCTYPE svg PUBLIC "-//W3C//DTD SVG 1.1//EN"
 "http://www.w3.org/Graphics/SVG/1.1/DTD/svg11.dtd">
<!-- Generated by graphviz version 2.38.0 (20140413.2041)
 -->
<!-- Title: src Pages: 1 -->
<svg width="106pt" height="222pt"
 viewBox="0.00 0.00 106.00 222.00" xmlns="http://www.w3.org/2000/svg" xmlns:xlink="http://www.w3.org/1999/xlink">
<g id="graph0" class="graph" transform="scale(1 1) rotate(0) translate(4 218)">
<title>src</title>
<polygon fill="white" stroke="none" points="-4,4 -4,-218 102,-218 102,4 -4,4"/>
<g id="clust1" class="cluster"><title>clusterdir_701731b0aa701a244870ea8887d54b2e</title>
<g id="a_clust1"><a xlink:href="dir_701731b0aa701a244870ea8887d54b2e.html" target="_top" xlink:title="wocra">
<polygon fill="#ddddee" stroke="black" points="8,-136 8,-206 78,-206 78,-136 8,-136"/>
<text text-anchor="middle" x="43" y="-194" font-family="Helvetica,sans-Serif" font-size="10.00">wocra</text>
</a>
</g>
</g>
<!-- dir_d68167349b272a7b40b3c8ef8e2170ba -->
<g id="node1" class="node"><title>dir_d68167349b272a7b40b3c8ef8e2170ba</title>
<g id="a_node1"><a xlink:href="dir_d68167349b272a7b40b3c8ef8e2170ba.html" target="_top" xlink:title="src">
<polygon fill="#eeeeff" stroke="black" points="70,-180 16,-180 16,-144 70,-144 70,-180"/>
<text text-anchor="middle" x="43" y="-159" font-family="Helvetica,sans-Serif" font-size="10.00">src</text>
</a>
</g>
</g>
<!-- dir_1c6d0bf2a3141da4a9eb77799fc9ded8 -->
<g id="node2" class="node"><title>dir_1c6d0bf2a3141da4a9eb77799fc9ded8</title>
<g id="a_node2"><a xlink:href="dir_1c6d0bf2a3141da4a9eb77799fc9ded8.html" target="_top" xlink:title="ocra">
<polygon fill="white" stroke="red" points="70,-36 16,-36 16,-0 70,-0 70,-36"/>
<text text-anchor="middle" x="43" y="-15" font-family="Helvetica,sans-Serif" font-size="10.00">ocra</text>
</a>
</g>
</g>
<!-- dir_d68167349b272a7b40b3c8ef8e2170ba&#45;&gt;dir_1c6d0bf2a3141da4a9eb77799fc9ded8 -->
<g id="edge1" class="edge"><title>dir_d68167349b272a7b40b3c8ef8e2170ba&#45;&gt;dir_1c6d0bf2a3141da4a9eb77799fc9ded8</title>
<path fill="none" stroke="black" d="M39.7517,-143.888C37.9542,-133.542 35.9053,-120.063 35,-108 33.8026,-92.0449 33.8026,-87.9551 35,-72 35.6366,-63.5179 36.8384,-54.3361 38.1208,-46.0356"/>
<polygon fill="black" stroke="black" points="41.5836,-46.5472 39.7517,-36.1119 34.6763,-45.412 41.5836,-46.5472"/>
<g id="a_edge1&#45;headlabel"><a xlink:href="dir_000037_000002.html" target="_top" xlink:title="1">
<text text-anchor="middle" x="43.8024" y="-47.5546" font-family="Helvetica,sans-Serif" font-size="10.00">1</text>
</a>
</g>
</g>
<!-- dir_9f145123ba1c7c9cc0ebd9bc85ecf206 -->
<g id="node3" class="node"><title>dir_9f145123ba1c7c9cc0ebd9bc85ecf206</title>
<g id="a_node3"><a xlink:href="dir_9f145123ba1c7c9cc0ebd9bc85ecf206.html" target="_top" xlink:title="include">
<polygon fill="white" stroke="red" points="98,-108 44,-108 44,-72 98,-72 98,-108"/>
<text text-anchor="middle" x="71" y="-87" font-family="Helvetica,sans-Serif" font-size="10.00">include</text>
</a>
</g>
</g>
<!-- dir_d68167349b272a7b40b3c8ef8e2170ba&#45;&gt;dir_9f145123ba1c7c9cc0ebd9bc85ecf206 -->
<g id="edge2" class="edge"><title>dir_d68167349b272a7b40b3c8ef8e2170ba&#45;&gt;dir_9f145123ba1c7c9cc0ebd9bc85ecf206</title>
<path fill="none" stroke="black" d="M49.9214,-143.697C53.0747,-135.813 56.8783,-126.304 60.3814,-117.546"/>
<polygon fill="black" stroke="black" points="63.694,-118.689 64.1583,-108.104 57.1946,-116.089 63.694,-118.689"/>
<g id="a_edge2&#45;headlabel"><a xlink:href="dir_000037_000035.html" target="_top" xlink:title="3">
<text text-anchor="middle" x="64.9952" y="-120.081" font-family="Helvetica,sans-Serif" font-size="10.00">3</text>
</a>
</g>
</g>
<!-- dir_9f145123ba1c7c9cc0ebd9bc85ecf206&#45;&gt;dir_1c6d0bf2a3141da4a9eb77799fc9ded8 -->
<g id="edge3" class="edge"><title>dir_9f145123ba1c7c9cc0ebd9bc85ecf206&#45;&gt;dir_1c6d0bf2a3141da4a9eb77799fc9ded8</title>
<path fill="none" stroke="black" d="M64.0786,-71.6966C60.9253,-63.8132 57.1217,-54.3042 53.6186,-45.5464"/>
<polygon fill="black" stroke="black" points="56.8054,-44.0892 49.8417,-36.1043 50.306,-46.689 56.8054,-44.0892"/>
<g id="a_edge3&#45;headlabel"><a xlink:href="dir_000035_000002.html" target="_top" xlink:title="7">
<text text-anchor="middle" x="60.7765" y="-43.3723" font-family="Helvetica,sans-Serif" font-size="10.00">7</text>
</a>
</g>
</g>
</g>
</svg>
