<?xml version="1.0" encoding="UTF-8" standalone="no"?>
<!DOCTYPE svg PUBLIC "-//W3C//DTD SVG 1.1//EN"
 "http://www.w3.org/Graphics/SVG/1.1/DTD/svg11.dtd">
<!-- Generated by graphviz version 2.38.0 (20140413.2041)
 -->
<!-- Title: optim Pages: 1 -->
<svg width="150pt" height="150pt"
 viewBox="0.00 0.00 150.00 150.00" xmlns="http://www.w3.org/2000/svg" xmlns:xlink="http://www.w3.org/1999/xlink">
<g id="graph0" class="graph" transform="scale(1 1) rotate(0) translate(4 146)">
<title>optim</title>
<polygon fill="white" stroke="none" points="-4,4 -4,-146 146,-146 146,4 -4,4"/>
<g id="clust1" class="cluster"><title>clusterdir_4ded287f5e090968895c04f294dfd75a</title>
<g id="a_clust1"><a xlink:href="dir_4ded287f5e090968895c04f294dfd75a.html" target="_top" xlink:title="ocra">
<polygon fill="#ddddee" stroke="black" points="8,-64 8,-134 78,-134 78,-64 8,-64"/>
<text text-anchor="middle" x="43" y="-122" font-family="Helvetica,sans-Serif" font-size="10.00">ocra</text>
</a>
</g>
</g>
<!-- dir_f91d6fb20358b4bf1aaf812310655430 -->
<g id="node1" class="node"><title>dir_f91d6fb20358b4bf1aaf812310655430</title>
<g id="a_node1"><a xlink:href="dir_f91d6fb20358b4bf1aaf812310655430.html" target="_top" xlink:title="optim">
<polygon fill="#eeeeff" stroke="black" points="70,-108 16,-108 16,-72 70,-72 70,-108"/>
<text text-anchor="middle" x="43" y="-87" font-family="Helvetica,sans-Serif" font-size="10.00">optim</text>
</a>
</g>
</g>
<!-- dir_20de452d7840760686826993fa07b5df -->
<g id="node2" class="node"><title>dir_20de452d7840760686826993fa07b5df</title>
<g id="a_node2"><a xlink:href="dir_20de452d7840760686826993fa07b5df.html" target="_top" xlink:title="util">
<polygon fill="none" stroke="black" points="106,-36 52,-36 52,-0 106,-0 106,-36"/>
<text text-anchor="middle" x="79" y="-15" font-family="Helvetica,sans-Serif" font-size="10.00">util</text>
</a>
</g>
</g>
<!-- dir_f91d6fb20358b4bf1aaf812310655430&#45;&gt;dir_20de452d7840760686826993fa07b5df -->
<g id="edge1" class="edge"><title>dir_f91d6fb20358b4bf1aaf812310655430&#45;&gt;dir_20de452d7840760686826993fa07b5df</title>
<path fill="none" stroke="black" d="M51.8989,-71.6966C55.9968,-63.7284 60.9488,-54.0995 65.4927,-45.2641"/>
<polygon fill="black" stroke="black" points="68.7425,-46.598 70.2035,-36.1043 62.5174,-43.3965 68.7425,-46.598"/>
<g id="a_edge1&#45;headlabel"><a xlink:href="dir_000005_000016.html" target="_top" xlink:title="10">
<text text-anchor="middle" x="69.6235" y="-48.0931" font-family="Helvetica,sans-Serif" font-size="10.00">10</text>
</a>
</g>
</g>
<!-- dir_a95d257b462285295fdf6b81f0297401 -->
<g id="node3" class="node"><title>dir_a95d257b462285295fdf6b81f0297401</title>
<g id="a_node3"><a xlink:href="dir_a95d257b462285295fdf6b81f0297401.html" target="_top" xlink:title="control">
<polygon fill="white" stroke="red" points="142,-108 88,-108 88,-72 142,-72 142,-108"/>
<text text-anchor="middle" x="115" y="-87" font-family="Helvetica,sans-Serif" font-size="10.00">control</text>
</a>
</g>
</g>
<!-- dir_f91d6fb20358b4bf1aaf812310655430&#45;&gt;dir_a95d257b462285295fdf6b81f0297401 -->
<g id="edge2" class="edge"><title>dir_f91d6fb20358b4bf1aaf812310655430&#45;&gt;dir_a95d257b462285295fdf6b81f0297401</title>
<path fill="none" stroke="black" d="M70.2812,-90C72.7377,-90 75.1942,-90 77.6507,-90"/>
<polygon fill="black" stroke="black" points="77.7495,-93.5001 87.7495,-90 77.7495,-86.5001 77.7495,-93.5001"/>
<g id="a_edge2&#45;headlabel"><a xlink:href="dir_000005_000010.html" target="_top" xlink:title="5">
<text text-anchor="middle" x="74.1549" y="-93.3393" font-family="Helvetica,sans-Serif" font-size="10.00">5</text>
</a>
</g>
</g>
<!-- dir_a95d257b462285295fdf6b81f0297401&#45;&gt;dir_f91d6fb20358b4bf1aaf812310655430 -->
<g id="edge4" class="edge"><title>dir_a95d257b462285295fdf6b81f0297401&#45;&gt;dir_f91d6fb20358b4bf1aaf812310655430</title>
<path fill="none" stroke="black" d="M87.7495,-90C85.293,-90 82.8366,-90 80.3801,-90"/>
<polygon fill="black" stroke="black" points="80.2813,-86.5001 70.2812,-90 80.2812,-93.5001 80.2813,-86.5001"/>
<g id="a_edge4&#45;headlabel"><a xlink:href="dir_000010_000005.html" target="_top" xlink:title="31">
<text text-anchor="middle" x="83.8759" y="-80.6607" font-family="Helvetica,sans-Serif" font-size="10.00">31</text>
</a>
</g>
</g>
<!-- dir_a95d257b462285295fdf6b81f0297401&#45;&gt;dir_20de452d7840760686826993fa07b5df -->
<g id="edge3" class="edge"><title>dir_a95d257b462285295fdf6b81f0297401&#45;&gt;dir_20de452d7840760686826993fa07b5df</title>
<path fill="none" stroke="black" d="M106.101,-71.6966C102.003,-63.7284 97.0512,-54.0995 92.5073,-45.2641"/>
<polygon fill="black" stroke="black" points="95.4826,-43.3965 87.7965,-36.1043 89.2575,-46.598 95.4826,-43.3965"/>
<g id="a_edge3&#45;headlabel"><a xlink:href="dir_000010_000016.html" target="_top" xlink:title="27">
<text text-anchor="middle" x="99.6514" y="-42.2946" font-family="Helvetica,sans-Serif" font-size="10.00">27</text>
</a>
</g>
</g>
</g>
</svg>
