<?xml version="1.0" encoding="UTF-8" standalone="no"?>
<!DOCTYPE svg PUBLIC "-//W3C//DTD SVG 1.1//EN"
 "http://www.w3.org/Graphics/SVG/1.1/DTD/svg11.dtd">
<!-- Generated by graphviz version 2.38.0 (20140413.2041)
 -->
<!-- Title: ocra&#45;recipes Pages: 1 -->
<svg width="200pt" height="302pt"
 viewBox="0.00 0.00 200.00 302.00" xmlns="http://www.w3.org/2000/svg" xmlns:xlink="http://www.w3.org/1999/xlink">
<g id="graph0" class="graph" transform="scale(1 1) rotate(0) translate(4 298)">
<title>ocra&#45;recipes</title>
<polygon fill="white" stroke="none" points="-4,4 -4,-298 196,-298 196,4 -4,4"/>
<g id="clust1" class="cluster"><title>clusterdir_b010cc7e8cde16c197c9e6089ac32dbd</title>
<g id="a_clust1"><a xlink:href="dir_b010cc7e8cde16c197c9e6089ac32dbd.html" target="_top" xlink:title="ocra&#45;recipes">
<polygon fill="#ddddee" stroke="black" points="8,-128 8,-286 184,-286 184,-128 8,-128"/>
<text text-anchor="middle" x="96" y="-274" font-family="Helvetica,sans-Serif" font-size="10.00">ocra&#45;recipes</text>
</a>
</g>
</g>
<g id="clust2" class="cluster"><title>clusterdir_e99b07783c278ec58b1109b40445d27d</title>
<g id="a_clust2"><a xlink:href="dir_e99b07783c278ec58b1109b40445d27d.html" target="_top">
<polygon fill="#eeeeff" stroke="black" points="16,-136 16,-260 176,-260 176,-136 16,-136"/>
</a>
</g>
</g>
<!-- dir_e99b07783c278ec58b1109b40445d27d -->
<g id="node1" class="node"><title>dir_e99b07783c278ec58b1109b40445d27d</title>
<text text-anchor="middle" x="132" y="-231" font-family="Helvetica,sans-Serif" font-size="10.00">ocra&#45;recipes</text>
</g>
<!-- dir_b6f6dccefeb974ed6b2f40c4a6c2ac42 -->
<g id="node2" class="node"><title>dir_b6f6dccefeb974ed6b2f40c4a6c2ac42</title>
<g id="a_node2"><a xlink:href="dir_b6f6dccefeb974ed6b2f40c4a6c2ac42.html" target="_top" xlink:title="include">
<polygon fill="white" stroke="red" points="78,-180 24,-180 24,-144 78,-144 78,-180"/>
<text text-anchor="middle" x="51" y="-159" font-family="Helvetica,sans-Serif" font-size="10.00">include</text>
</a>
</g>
</g>
<!-- dir_1c6d0bf2a3141da4a9eb77799fc9ded8 -->
<g id="node4" class="node"><title>dir_1c6d0bf2a3141da4a9eb77799fc9ded8</title>
<g id="a_node4"><a xlink:href="dir_1c6d0bf2a3141da4a9eb77799fc9ded8.html" target="_top" xlink:title="ocra">
<polygon fill="white" stroke="red" points="78,-36 24,-36 24,-0 78,-0 78,-36"/>
<text text-anchor="middle" x="51" y="-15" font-family="Helvetica,sans-Serif" font-size="10.00">ocra</text>
</a>
</g>
</g>
<!-- dir_b6f6dccefeb974ed6b2f40c4a6c2ac42&#45;&gt;dir_1c6d0bf2a3141da4a9eb77799fc9ded8 -->
<g id="edge1" class="edge"><title>dir_b6f6dccefeb974ed6b2f40c4a6c2ac42&#45;&gt;dir_1c6d0bf2a3141da4a9eb77799fc9ded8</title>
<path fill="none" stroke="black" d="M35.3901,-143.774C27.6271,-134.03 19.0541,-121.184 15,-108 10.2972,-92.7067 10.2972,-87.2933 15,-72 18.0089,-62.2153 23.507,-52.6161 29.3157,-44.3336"/>
<polygon fill="black" stroke="black" points="32.1948,-46.3279 35.3901,-36.2264 26.5928,-42.1306 32.1948,-46.3279"/>
<g id="a_edge1&#45;headlabel"><a xlink:href="dir_000014_000002.html" target="_top" xlink:title="31">
<text text-anchor="middle" x="32.3117" y="-47.9071" font-family="Helvetica,sans-Serif" font-size="10.00">31</text>
</a>
</g>
</g>
<!-- dir_0777ee02f2a9b5fe084d74997e26b88b -->
<g id="node5" class="node"><title>dir_0777ee02f2a9b5fe084d74997e26b88b</title>
<g id="a_node5"><a xlink:href="dir_0777ee02f2a9b5fe084d74997e26b88b.html" target="_top" xlink:title="hocra">
<polygon fill="white" stroke="red" points="78,-108 24,-108 24,-72 78,-72 78,-108"/>
<text text-anchor="middle" x="51" y="-87" font-family="Helvetica,sans-Serif" font-size="10.00">hocra</text>
</a>
</g>
</g>
<!-- dir_b6f6dccefeb974ed6b2f40c4a6c2ac42&#45;&gt;dir_0777ee02f2a9b5fe084d74997e26b88b -->
<g id="edge2" class="edge"><title>dir_b6f6dccefeb974ed6b2f40c4a6c2ac42&#45;&gt;dir_0777ee02f2a9b5fe084d74997e26b88b</title>
<path fill="none" stroke="black" d="M51,-143.697C51,-135.983 51,-126.712 51,-118.112"/>
<polygon fill="black" stroke="black" points="54.5001,-118.104 51,-108.104 47.5001,-118.104 54.5001,-118.104"/>
<g id="a_edge2&#45;headlabel"><a xlink:href="dir_000014_000028.html" target="_top" xlink:title="1">
<text text-anchor="middle" x="57.3393" y="-118.699" font-family="Helvetica,sans-Serif" font-size="10.00">1</text>
</a>
</g>
</g>
<!-- dir_701731b0aa701a244870ea8887d54b2e -->
<g id="node6" class="node"><title>dir_701731b0aa701a244870ea8887d54b2e</title>
<g id="a_node6"><a xlink:href="dir_701731b0aa701a244870ea8887d54b2e.html" target="_top" xlink:title="wocra">
<polygon fill="white" stroke="red" points="150,-108 96,-108 96,-72 150,-72 150,-108"/>
<text text-anchor="middle" x="123" y="-87" font-family="Helvetica,sans-Serif" font-size="10.00">wocra</text>
</a>
</g>
</g>
<!-- dir_b6f6dccefeb974ed6b2f40c4a6c2ac42&#45;&gt;dir_701731b0aa701a244870ea8887d54b2e -->
<g id="edge3" class="edge"><title>dir_b6f6dccefeb974ed6b2f40c4a6c2ac42&#45;&gt;dir_701731b0aa701a244870ea8887d54b2e</title>
<path fill="none" stroke="black" d="M68.7978,-143.697C77.604,-135.135 88.3821,-124.656 98.0011,-115.304"/>
<polygon fill="black" stroke="black" points="100.677,-117.585 105.407,-108.104 95.7972,-112.566 100.677,-117.585"/>
<g id="a_edge3&#45;headlabel"><a xlink:href="dir_000014_000034.html" target="_top" xlink:title="2">
<text text-anchor="middle" x="100.079" y="-119.126" font-family="Helvetica,sans-Serif" font-size="10.00">2</text>
</a>
</g>
</g>
<!-- dir_a5636aa70a4fb2121527de8b7d63112c -->
<g id="node3" class="node"><title>dir_a5636aa70a4fb2121527de8b7d63112c</title>
<g id="a_node3"><a xlink:href="dir_a5636aa70a4fb2121527de8b7d63112c.html" target="_top" xlink:title="src">
<polygon fill="white" stroke="black" points="78,-252 24,-252 24,-216 78,-216 78,-252"/>
<text text-anchor="middle" x="51" y="-231" font-family="Helvetica,sans-Serif" font-size="10.00">src</text>
</a>
</g>
</g>
<!-- dir_a5636aa70a4fb2121527de8b7d63112c&#45;&gt;dir_b6f6dccefeb974ed6b2f40c4a6c2ac42 -->
<g id="edge4" class="edge"><title>dir_a5636aa70a4fb2121527de8b7d63112c&#45;&gt;dir_b6f6dccefeb974ed6b2f40c4a6c2ac42</title>
<path fill="none" stroke="black" d="M51,-215.697C51,-207.983 51,-198.712 51,-190.112"/>
<polygon fill="black" stroke="black" points="54.5001,-190.104 51,-180.104 47.5001,-190.104 54.5001,-190.104"/>
<g id="a_edge4&#45;headlabel"><a xlink:href="dir_000013_000014.html" target="_top" xlink:title="9">
<text text-anchor="middle" x="57.3393" y="-190.699" font-family="Helvetica,sans-Serif" font-size="10.00">9</text>
</a>
</g>
</g>
<!-- dir_0777ee02f2a9b5fe084d74997e26b88b&#45;&gt;dir_1c6d0bf2a3141da4a9eb77799fc9ded8 -->
<g id="edge5" class="edge"><title>dir_0777ee02f2a9b5fe084d74997e26b88b&#45;&gt;dir_1c6d0bf2a3141da4a9eb77799fc9ded8</title>
<path fill="none" stroke="black" d="M51,-71.6966C51,-63.9827 51,-54.7125 51,-46.1124"/>
<polygon fill="black" stroke="black" points="54.5001,-46.1043 51,-36.1043 47.5001,-46.1044 54.5001,-46.1043"/>
<g id="a_edge5&#45;headlabel"><a xlink:href="dir_000028_000002.html" target="_top" xlink:title="4">
<text text-anchor="middle" x="57.3393" y="-46.699" font-family="Helvetica,sans-Serif" font-size="10.00">4</text>
</a>
</g>
</g>
<!-- dir_701731b0aa701a244870ea8887d54b2e&#45;&gt;dir_1c6d0bf2a3141da4a9eb77799fc9ded8 -->
<g id="edge6" class="edge"><title>dir_701731b0aa701a244870ea8887d54b2e&#45;&gt;dir_1c6d0bf2a3141da4a9eb77799fc9ded8</title>
<path fill="none" stroke="black" d="M105.202,-71.6966C96.396,-63.135 85.6179,-52.6562 75.9989,-43.3045"/>
<polygon fill="black" stroke="black" points="78.2028,-40.5657 68.593,-36.1043 73.3232,-45.5846 78.2028,-40.5657"/>
<g id="a_edge6&#45;headlabel"><a xlink:href="dir_000034_000002.html" target="_top" xlink:title="8">
<text text-anchor="middle" x="82.7593" y="-38.0356" font-family="Helvetica,sans-Serif" font-size="10.00">8</text>
</a>
</g>
</g>
</g>
</svg>
