<?xml version="1.0" encoding="UTF-8" standalone="no"?>
<!DOCTYPE svg PUBLIC "-//W3C//DTD SVG 1.1//EN"
 "http://www.w3.org/Graphics/SVG/1.1/DTD/svg11.dtd">
<!-- Generated by graphviz version 2.38.0 (20140413.2041)
 -->
<!-- Title: ocra&#45;recipes Pages: 1 -->
<svg width="274pt" height="254pt"
 viewBox="0.00 0.00 274.00 254.00" xmlns="http://www.w3.org/2000/svg" xmlns:xlink="http://www.w3.org/1999/xlink">
<g id="graph0" class="graph" transform="scale(1 1) rotate(0) translate(4 250)">
<title>ocra&#45;recipes</title>
<polygon fill="white" stroke="none" points="-4,4 -4,-250 270,-250 270,4 -4,4"/>
<g id="clust1" class="cluster"><title>clusterdir_bc0718b08fb2015b8e59c47b2805f60c</title>
<g id="a_clust1"><a xlink:href="dir_bc0718b08fb2015b8e59c47b2805f60c.html" target="_top" xlink:title="libraries">
<polygon fill="#ddddee" stroke="black" points="8,-8 8,-238 258,-238 258,-8 8,-8"/>
<text text-anchor="middle" x="133" y="-226" font-family="Helvetica,sans-Serif" font-size="10.00">libraries</text>
</a>
</g>
</g>
<g id="clust2" class="cluster"><title>clusterdir_b010cc7e8cde16c197c9e6089ac32dbd</title>
<g id="a_clust2"><a xlink:href="dir_b010cc7e8cde16c197c9e6089ac32dbd.html" target="_top">
<polygon fill="#eeeeff" stroke="black" points="16,-16 16,-212 250,-212 250,-16 16,-16"/>
</a>
</g>
</g>
<!-- dir_b010cc7e8cde16c197c9e6089ac32dbd -->
<g id="node1" class="node"><title>dir_b010cc7e8cde16c197c9e6089ac32dbd</title>
<text text-anchor="middle" x="196" y="-183" font-family="Helvetica,sans-Serif" font-size="10.00">ocra&#45;recipes</text>
</g>
<!-- dir_e3c530b8b8641f7f16f01e1f3bfb5705 -->
<g id="node2" class="node"><title>dir_e3c530b8b8641f7f16f01e1f3bfb5705</title>
<g id="a_node2"><a xlink:href="dir_e3c530b8b8641f7f16f01e1f3bfb5705.html" target="_top" xlink:title="gocra">
<polygon fill="white" stroke="red" points="242,-132 188,-132 188,-96 242,-96 242,-132"/>
<text text-anchor="middle" x="215" y="-111" font-family="Helvetica,sans-Serif" font-size="10.00">gocra</text>
</a>
</g>
</g>
<!-- dir_1c6d0bf2a3141da4a9eb77799fc9ded8 -->
<g id="node4" class="node"><title>dir_1c6d0bf2a3141da4a9eb77799fc9ded8</title>
<g id="a_node4"><a xlink:href="dir_1c6d0bf2a3141da4a9eb77799fc9ded8.html" target="_top" xlink:title="ocra">
<polygon fill="white" stroke="red" points="147,-60 93,-60 93,-24 147,-24 147,-60"/>
<text text-anchor="middle" x="120" y="-39" font-family="Helvetica,sans-Serif" font-size="10.00">ocra</text>
</a>
</g>
</g>
<!-- dir_e3c530b8b8641f7f16f01e1f3bfb5705&#45;&gt;dir_1c6d0bf2a3141da4a9eb77799fc9ded8 -->
<g id="edge5" class="edge"><title>dir_e3c530b8b8641f7f16f01e1f3bfb5705&#45;&gt;dir_1c6d0bf2a3141da4a9eb77799fc9ded8</title>
<path fill="none" stroke="black" d="M191.517,-95.6966C179.437,-86.796 164.546,-75.8232 151.484,-66.1989"/>
<polygon fill="black" stroke="black" points="153.34,-63.2187 143.213,-60.1043 149.187,-68.8541 153.34,-63.2187"/>
<g id="a_edge5&#45;headlabel"><a xlink:href="dir_000020_000002.html" target="_top" xlink:title="43">
<text text-anchor="middle" x="157.918" y="-60.0652" font-family="Helvetica,sans-Serif" font-size="10.00">43</text>
</a>
</g>
</g>
<!-- dir_0777ee02f2a9b5fe084d74997e26b88b -->
<g id="node3" class="node"><title>dir_0777ee02f2a9b5fe084d74997e26b88b</title>
<g id="a_node3"><a xlink:href="dir_0777ee02f2a9b5fe084d74997e26b88b.html" target="_top" xlink:title="hocra">
<polygon fill="white" stroke="red" points="78,-132 24,-132 24,-96 78,-96 78,-132"/>
<text text-anchor="middle" x="51" y="-111" font-family="Helvetica,sans-Serif" font-size="10.00">hocra</text>
</a>
</g>
</g>
<!-- dir_0777ee02f2a9b5fe084d74997e26b88b&#45;&gt;dir_1c6d0bf2a3141da4a9eb77799fc9ded8 -->
<g id="edge4" class="edge"><title>dir_0777ee02f2a9b5fe084d74997e26b88b&#45;&gt;dir_1c6d0bf2a3141da4a9eb77799fc9ded8</title>
<path fill="none" stroke="black" d="M68.0562,-95.6966C76.4955,-87.135 86.8246,-76.6562 96.0427,-67.3045"/>
<polygon fill="black" stroke="black" points="98.6126,-69.6831 103.14,-60.1043 93.6273,-64.7691 98.6126,-69.6831"/>
<g id="a_edge4&#45;headlabel"><a xlink:href="dir_000028_000002.html" target="_top" xlink:title="4">
<text text-anchor="middle" x="98.1112" y="-71.2363" font-family="Helvetica,sans-Serif" font-size="10.00">4</text>
</a>
</g>
</g>
<!-- dir_e99b07783c278ec58b1109b40445d27d -->
<g id="node5" class="node"><title>dir_e99b07783c278ec58b1109b40445d27d</title>
<g id="a_node5"><a xlink:href="dir_e99b07783c278ec58b1109b40445d27d.html" target="_top" xlink:title="ocra&#45;recipes">
<polygon fill="white" stroke="red" points="132.52,-204 61.4805,-204 61.4805,-168 132.52,-168 132.52,-204"/>
<text text-anchor="middle" x="97" y="-183" font-family="Helvetica,sans-Serif" font-size="10.00">ocra&#45;recipes</text>
</a>
</g>
</g>
<!-- dir_e99b07783c278ec58b1109b40445d27d&#45;&gt;dir_0777ee02f2a9b5fe084d74997e26b88b -->
<g id="edge2" class="edge"><title>dir_e99b07783c278ec58b1109b40445d27d&#45;&gt;dir_0777ee02f2a9b5fe084d74997e26b88b</title>
<path fill="none" stroke="black" d="M85.6292,-167.697C80.2815,-159.559 73.7957,-149.689 67.8894,-140.701"/>
<polygon fill="black" stroke="black" points="70.6568,-138.539 62.24,-132.104 64.8068,-142.384 70.6568,-138.539"/>
<g id="a_edge2&#45;headlabel"><a xlink:href="dir_000012_000028.html" target="_top" xlink:title="1">
<text text-anchor="middle" x="75.0036" y="-136.984" font-family="Helvetica,sans-Serif" font-size="10.00">1</text>
</a>
</g>
</g>
<!-- dir_e99b07783c278ec58b1109b40445d27d&#45;&gt;dir_1c6d0bf2a3141da4a9eb77799fc9ded8 -->
<g id="edge1" class="edge"><title>dir_e99b07783c278ec58b1109b40445d27d&#45;&gt;dir_1c6d0bf2a3141da4a9eb77799fc9ded8</title>
<path fill="none" stroke="black" d="M98.2686,-167.844C99.7528,-149.852 102.584,-120.799 107,-96 108.518,-87.4741 110.609,-78.2798 112.671,-69.9813"/>
<polygon fill="black" stroke="black" points="116.12,-70.6234 115.221,-60.0667 109.341,-68.8795 116.12,-70.6234"/>
<g id="a_edge1&#45;headlabel"><a xlink:href="dir_000012_000002.html" target="_top" xlink:title="31">
<text text-anchor="middle" x="117.974" y="-71.8119" font-family="Helvetica,sans-Serif" font-size="10.00">31</text>
</a>
</g>
</g>
<!-- dir_701731b0aa701a244870ea8887d54b2e -->
<g id="node6" class="node"><title>dir_701731b0aa701a244870ea8887d54b2e</title>
<g id="a_node6"><a xlink:href="dir_701731b0aa701a244870ea8887d54b2e.html" target="_top" xlink:title="wocra">
<polygon fill="white" stroke="red" points="170,-132 116,-132 116,-96 170,-96 170,-132"/>
<text text-anchor="middle" x="143" y="-111" font-family="Helvetica,sans-Serif" font-size="10.00">wocra</text>
</a>
</g>
</g>
<!-- dir_e99b07783c278ec58b1109b40445d27d&#45;&gt;dir_701731b0aa701a244870ea8887d54b2e -->
<g id="edge3" class="edge"><title>dir_e99b07783c278ec58b1109b40445d27d&#45;&gt;dir_701731b0aa701a244870ea8887d54b2e</title>
<path fill="none" stroke="black" d="M108.371,-167.697C113.718,-159.559 120.204,-149.689 126.111,-140.701"/>
<polygon fill="black" stroke="black" points="129.193,-142.384 131.76,-132.104 123.343,-138.539 129.193,-142.384"/>
<g id="a_edge3&#45;headlabel"><a xlink:href="dir_000012_000034.html" target="_top" xlink:title="2">
<text text-anchor="middle" x="129.592" y="-143.947" font-family="Helvetica,sans-Serif" font-size="10.00">2</text>
</a>
</g>
</g>
<!-- dir_701731b0aa701a244870ea8887d54b2e&#45;&gt;dir_1c6d0bf2a3141da4a9eb77799fc9ded8 -->
<g id="edge6" class="edge"><title>dir_701731b0aa701a244870ea8887d54b2e&#45;&gt;dir_1c6d0bf2a3141da4a9eb77799fc9ded8</title>
<path fill="none" stroke="black" d="M137.315,-95.6966C134.752,-87.8979 131.667,-78.5085 128.815,-69.8292"/>
<polygon fill="black" stroke="black" points="132.067,-68.5121 125.62,-60.1043 125.416,-70.6972 132.067,-68.5121"/>
<g id="a_edge6&#45;headlabel"><a xlink:href="dir_000034_000002.html" target="_top" xlink:title="8">
<text text-anchor="middle" x="135.886" y="-68.0408" font-family="Helvetica,sans-Serif" font-size="10.00">8</text>
</a>
</g>
</g>
</g>
</svg>
