<?xml version="1.0" encoding="UTF-8" standalone="no"?>
<!DOCTYPE svg PUBLIC "-//W3C//DTD SVG 1.1//EN"
 "http://www.w3.org/Graphics/SVG/1.1/DTD/svg11.dtd">
<!-- Generated by graphviz version 2.38.0 (20140413.2041)
 -->
<!-- Title: hocra Pages: 1 -->
<svg width="182pt" height="230pt"
 viewBox="0.00 0.00 182.00 230.00" xmlns="http://www.w3.org/2000/svg" xmlns:xlink="http://www.w3.org/1999/xlink">
<g id="graph0" class="graph" transform="scale(1 1) rotate(0) translate(4 226)">
<title>hocra</title>
<polygon fill="white" stroke="none" points="-4,4 -4,-226 178,-226 178,4 -4,4"/>
<g id="clust1" class="cluster"><title>clusterdir_b010cc7e8cde16c197c9e6089ac32dbd</title>
<g id="a_clust1"><a xlink:href="dir_b010cc7e8cde16c197c9e6089ac32dbd.html" target="_top" xlink:title="ocra&#45;recipes">
<polygon fill="#ddddee" stroke="black" points="8,-56 8,-214 166,-214 166,-56 8,-56"/>
<text text-anchor="middle" x="87" y="-202" font-family="Helvetica,sans-Serif" font-size="10.00">ocra&#45;recipes</text>
</a>
</g>
</g>
<g id="clust2" class="cluster"><title>clusterdir_0777ee02f2a9b5fe084d74997e26b88b</title>
<g id="a_clust2"><a xlink:href="dir_0777ee02f2a9b5fe084d74997e26b88b.html" target="_top">
<polygon fill="#eeeeff" stroke="black" points="16,-64 16,-188 158,-188 158,-64 16,-64"/>
</a>
</g>
</g>
<!-- dir_0777ee02f2a9b5fe084d74997e26b88b -->
<g id="node1" class="node"><title>dir_0777ee02f2a9b5fe084d74997e26b88b</title>
<text text-anchor="middle" x="123" y="-159" font-family="Helvetica,sans-Serif" font-size="10.00">hocra</text>
</g>
<!-- dir_5ae44468195dbfc166b26239d5301f6e -->
<g id="node2" class="node"><title>dir_5ae44468195dbfc166b26239d5301f6e</title>
<g id="a_node2"><a xlink:href="dir_5ae44468195dbfc166b26239d5301f6e.html" target="_top" xlink:title="include">
<polygon fill="white" stroke="red" points="78,-108 24,-108 24,-72 78,-72 78,-108"/>
<text text-anchor="middle" x="51" y="-87" font-family="Helvetica,sans-Serif" font-size="10.00">include</text>
</a>
</g>
</g>
<!-- dir_1c6d0bf2a3141da4a9eb77799fc9ded8 -->
<g id="node4" class="node"><title>dir_1c6d0bf2a3141da4a9eb77799fc9ded8</title>
<g id="a_node4"><a xlink:href="dir_1c6d0bf2a3141da4a9eb77799fc9ded8.html" target="_top" xlink:title="ocra">
<polygon fill="white" stroke="red" points="78,-36 24,-36 24,-0 78,-0 78,-36"/>
<text text-anchor="middle" x="51" y="-15" font-family="Helvetica,sans-Serif" font-size="10.00">ocra</text>
</a>
</g>
</g>
<!-- dir_5ae44468195dbfc166b26239d5301f6e&#45;&gt;dir_1c6d0bf2a3141da4a9eb77799fc9ded8 -->
<g id="edge1" class="edge"><title>dir_5ae44468195dbfc166b26239d5301f6e&#45;&gt;dir_1c6d0bf2a3141da4a9eb77799fc9ded8</title>
<path fill="none" stroke="black" d="M51,-71.6966C51,-63.9827 51,-54.7125 51,-46.1124"/>
<polygon fill="black" stroke="black" points="54.5001,-46.1043 51,-36.1043 47.5001,-46.1044 54.5001,-46.1043"/>
<g id="a_edge1&#45;headlabel"><a xlink:href="dir_000030_000002.html" target="_top" xlink:title="4">
<text text-anchor="middle" x="57.3393" y="-46.699" font-family="Helvetica,sans-Serif" font-size="10.00">4</text>
</a>
</g>
</g>
<!-- dir_217c7ea35df26111d134f67b1525248d -->
<g id="node3" class="node"><title>dir_217c7ea35df26111d134f67b1525248d</title>
<g id="a_node3"><a xlink:href="dir_217c7ea35df26111d134f67b1525248d.html" target="_top" xlink:title="src">
<polygon fill="white" stroke="black" points="78,-180 24,-180 24,-144 78,-144 78,-180"/>
<text text-anchor="middle" x="51" y="-159" font-family="Helvetica,sans-Serif" font-size="10.00">src</text>
</a>
</g>
</g>
<!-- dir_217c7ea35df26111d134f67b1525248d&#45;&gt;dir_5ae44468195dbfc166b26239d5301f6e -->
<g id="edge2" class="edge"><title>dir_217c7ea35df26111d134f67b1525248d&#45;&gt;dir_5ae44468195dbfc166b26239d5301f6e</title>
<path fill="none" stroke="black" d="M51,-143.697C51,-135.983 51,-126.712 51,-118.112"/>
<polygon fill="black" stroke="black" points="54.5001,-118.104 51,-108.104 47.5001,-118.104 54.5001,-118.104"/>
<g id="a_edge2&#45;headlabel"><a xlink:href="dir_000029_000030.html" target="_top" xlink:title="1">
<text text-anchor="middle" x="57.3393" y="-118.699" font-family="Helvetica,sans-Serif" font-size="10.00">1</text>
</a>
</g>
</g>
</g>
</svg>
