<?xml version="1.0" encoding="UTF-8" standalone="no"?>
<!DOCTYPE svg PUBLIC "-//W3C//DTD SVG 1.1//EN"
 "http://www.w3.org/Graphics/SVG/1.1/DTD/svg11.dtd">
<!-- Generated by graphviz version 2.38.0 (20140413.2041)
 -->
<!-- Title: examples Pages: 1 -->
<svg width="204pt" height="230pt"
 viewBox="0.00 0.00 204.00 230.00" xmlns="http://www.w3.org/2000/svg" xmlns:xlink="http://www.w3.org/1999/xlink">
<g id="graph0" class="graph" transform="scale(1 1) rotate(0) translate(4 226)">
<title>examples</title>
<polygon fill="white" stroke="none" points="-4,4 -4,-226 200,-226 200,4 -4,4"/>
<g id="clust1" class="cluster"><title>clusterdir_e3c530b8b8641f7f16f01e1f3bfb5705</title>
<g id="a_clust1"><a xlink:href="dir_e3c530b8b8641f7f16f01e1f3bfb5705.html" target="_top" xlink:title="gocra">
<polygon fill="#ddddee" stroke="black" points="8,-128 8,-214 188,-214 188,-128 8,-128"/>
<text text-anchor="middle" x="98" y="-202" font-family="Helvetica,sans-Serif" font-size="10.00">gocra</text>
</a>
</g>
</g>
<g id="clust2" class="cluster"><title>clusterdir_7c77fb5ed4af752d43cf7b8029cff20a</title>
<g id="a_clust2"><a xlink:href="dir_7c77fb5ed4af752d43cf7b8029cff20a.html" target="_top">
<polygon fill="#eeeeff" stroke="black" points="16,-136 16,-188 180,-188 180,-136 16,-136"/>
</a>
</g>
</g>
<!-- dir_7c77fb5ed4af752d43cf7b8029cff20a -->
<g id="node1" class="node"><title>dir_7c77fb5ed4af752d43cf7b8029cff20a</title>
<text text-anchor="middle" x="143" y="-159" font-family="Helvetica,sans-Serif" font-size="10.00">examples</text>
</g>
<!-- dir_df95689e2b1b4b1c229d997416f7c2d9 -->
<g id="node2" class="node"><title>dir_df95689e2b1b4b1c229d997416f7c2d9</title>
<g id="a_node2"><a xlink:href="dir_df95689e2b1b4b1c229d997416f7c2d9.html" target="_top" xlink:title="test_GHCJT">
<polygon fill="white" stroke="black" points="95.5098,-180 24.4902,-180 24.4902,-144 95.5098,-144 95.5098,-180"/>
<text text-anchor="middle" x="60" y="-159" font-family="Helvetica,sans-Serif" font-size="10.00">test_GHCJT</text>
</a>
</g>
</g>
<!-- dir_2093c66c76bc540995905a5d4eb94ce6 -->
<g id="node3" class="node"><title>dir_2093c66c76bc540995905a5d4eb94ce6</title>
<g id="a_node3"><a xlink:href="dir_2093c66c76bc540995905a5d4eb94ce6.html" target="_top" xlink:title="include">
<polygon fill="white" stroke="red" points="60,-108 6,-108 6,-72 60,-72 60,-108"/>
<text text-anchor="middle" x="33" y="-87" font-family="Helvetica,sans-Serif" font-size="10.00">include</text>
</a>
</g>
</g>
<!-- dir_df95689e2b1b4b1c229d997416f7c2d9&#45;&gt;dir_2093c66c76bc540995905a5d4eb94ce6 -->
<g id="edge1" class="edge"><title>dir_df95689e2b1b4b1c229d997416f7c2d9&#45;&gt;dir_2093c66c76bc540995905a5d4eb94ce6</title>
<path fill="none" stroke="black" d="M53.3258,-143.697C50.2851,-135.813 46.6173,-126.304 43.2393,-117.546"/>
<polygon fill="black" stroke="black" points="46.4617,-116.175 39.5974,-108.104 39.9307,-118.694 46.4617,-116.175"/>
<g id="a_edge1&#45;headlabel"><a xlink:href="dir_000033_000022.html" target="_top" xlink:title="2">
<text text-anchor="middle" x="50.4043" y="-115.507" font-family="Helvetica,sans-Serif" font-size="10.00">2</text>
</a>
</g>
</g>
<!-- dir_1c6d0bf2a3141da4a9eb77799fc9ded8 -->
<g id="node4" class="node"><title>dir_1c6d0bf2a3141da4a9eb77799fc9ded8</title>
<g id="a_node4"><a xlink:href="dir_1c6d0bf2a3141da4a9eb77799fc9ded8.html" target="_top" xlink:title="ocra">
<polygon fill="white" stroke="red" points="87,-36 33,-36 33,-0 87,-0 87,-36"/>
<text text-anchor="middle" x="60" y="-15" font-family="Helvetica,sans-Serif" font-size="10.00">ocra</text>
</a>
</g>
</g>
<!-- dir_df95689e2b1b4b1c229d997416f7c2d9&#45;&gt;dir_1c6d0bf2a3141da4a9eb77799fc9ded8 -->
<g id="edge2" class="edge"><title>dir_df95689e2b1b4b1c229d997416f7c2d9&#45;&gt;dir_1c6d0bf2a3141da4a9eb77799fc9ded8</title>
<path fill="none" stroke="black" d="M63.6538,-143.908C65.6758,-133.569 67.9808,-120.09 69,-108 70.3441,-92.0566 70.3441,-87.9434 69,-72 68.2834,-63.4991 66.9311,-54.3119 65.4884,-46.0122"/>
<polygon fill="black" stroke="black" points="68.9142,-45.2892 63.6538,-36.0925 62.0309,-46.5623 68.9142,-45.2892"/>
<g id="a_edge2&#45;headlabel"><a xlink:href="dir_000033_000002.html" target="_top" xlink:title="5">
<text text-anchor="middle" x="72.3597" y="-45.3075" font-family="Helvetica,sans-Serif" font-size="10.00">5</text>
</a>
</g>
</g>
<!-- dir_2093c66c76bc540995905a5d4eb94ce6&#45;&gt;dir_1c6d0bf2a3141da4a9eb77799fc9ded8 -->
<g id="edge3" class="edge"><title>dir_2093c66c76bc540995905a5d4eb94ce6&#45;&gt;dir_1c6d0bf2a3141da4a9eb77799fc9ded8</title>
<path fill="none" stroke="black" d="M39.6742,-71.6966C42.7149,-63.8132 46.3827,-54.3042 49.7607,-45.5464"/>
<polygon fill="black" stroke="black" points="53.0693,-46.6939 53.4026,-36.1043 46.5383,-44.1748 53.0693,-46.6939"/>
<g id="a_edge3&#45;headlabel"><a xlink:href="dir_000022_000002.html" target="_top" xlink:title="24">
<text text-anchor="middle" x="54.4248" y="-48.0695" font-family="Helvetica,sans-Serif" font-size="10.00">24</text>
</a>
</g>
</g>
</g>
</svg>
