<?xml version="1.0" encoding="UTF-8" standalone="no"?>
<!DOCTYPE svg PUBLIC "-//W3C//DTD SVG 1.1//EN"
 "http://www.w3.org/Graphics/SVG/1.1/DTD/svg11.dtd">
<!-- Generated by graphviz version 2.38.0 (20140413.2041)
 -->
<!-- Title: control Pages: 1 -->
<svg width="272pt" height="230pt"
 viewBox="0.00 0.00 272.29 230.00" xmlns="http://www.w3.org/2000/svg" xmlns:xlink="http://www.w3.org/1999/xlink">
<g id="graph0" class="graph" transform="scale(1 1) rotate(0) translate(4 226)">
<title>control</title>
<polygon fill="white" stroke="none" points="-4,4 -4,-226 268.285,-226 268.285,4 -4,4"/>
<g id="clust1" class="cluster"><title>clusterdir_4ded287f5e090968895c04f294dfd75a</title>
<g id="a_clust1"><a xlink:href="dir_4ded287f5e090968895c04f294dfd75a.html" target="_top" xlink:title="ocra">
<polygon fill="#ddddee" stroke="black" points="8,-56 8,-214 184,-214 184,-56 8,-56"/>
<text text-anchor="middle" x="96" y="-202" font-family="Helvetica,sans-Serif" font-size="10.00">ocra</text>
</a>
</g>
</g>
<g id="clust2" class="cluster"><title>clusterdir_a95d257b462285295fdf6b81f0297401</title>
<g id="a_clust2"><a xlink:href="dir_a95d257b462285295fdf6b81f0297401.html" target="_top">
<polygon fill="#eeeeff" stroke="black" points="16,-64 16,-188 176,-188 176,-64 16,-64"/>
</a>
</g>
</g>
<!-- dir_a95d257b462285295fdf6b81f0297401 -->
<g id="node1" class="node"><title>dir_a95d257b462285295fdf6b81f0297401</title>
<text text-anchor="middle" x="51" y="-159" font-family="Helvetica,sans-Serif" font-size="10.00">control</text>
</g>
<!-- dir_6caea37d84e24fd94ecda4ebf8d11ecc -->
<g id="node3" class="node"><title>dir_6caea37d84e24fd94ecda4ebf8d11ecc</title>
<g id="a_node3"><a xlink:href="dir_6caea37d84e24fd94ecda4ebf8d11ecc.html" target="_top" xlink:title="Trajectory">
<polygon fill="white" stroke="black" points="110.087,-108 49.913,-108 49.913,-72 110.087,-72 110.087,-108"/>
<text text-anchor="middle" x="80" y="-87" font-family="Helvetica,sans-Serif" font-size="10.00">Trajectory</text>
</a>
</g>
</g>
<!-- dir_a95d257b462285295fdf6b81f0297401&#45;&gt;dir_6caea37d84e24fd94ecda4ebf8d11ecc -->
<g id="edge6" class="edge"><title>dir_a95d257b462285295fdf6b81f0297401&#45;&gt;dir_6caea37d84e24fd94ecda4ebf8d11ecc</title>
<path fill="none" stroke="black" d="M58.1685,-143.697C61.4345,-135.813 65.374,-126.304 69.0022,-117.546"/>
<polygon fill="black" stroke="black" points="72.32,-118.683 72.9139,-108.104 65.853,-116.003 72.32,-118.683"/>
<g id="a_edge6&#45;headlabel"><a xlink:href="dir_000010_000018.html" target="_top" xlink:title="1">
<text text-anchor="middle" x="73.5673" y="-120.09" font-family="Helvetica,sans-Serif" font-size="10.00">1</text>
</a>
</g>
</g>
<!-- dir_20de452d7840760686826993fa07b5df -->
<g id="node4" class="node"><title>dir_20de452d7840760686826993fa07b5df</title>
<g id="a_node4"><a xlink:href="dir_20de452d7840760686826993fa07b5df.html" target="_top" xlink:title="util">
<polygon fill="none" stroke="black" points="212,-36 158,-36 158,-0 212,-0 212,-36"/>
<text text-anchor="middle" x="185" y="-15" font-family="Helvetica,sans-Serif" font-size="10.00">util</text>
</a>
</g>
</g>
<!-- dir_a95d257b462285295fdf6b81f0297401&#45;&gt;dir_20de452d7840760686826993fa07b5df -->
<g id="edge5" class="edge"><title>dir_a95d257b462285295fdf6b81f0297401&#45;&gt;dir_20de452d7840760686826993fa07b5df</title>
<path fill="none" stroke="black" d="M76.2517,-143.851C89.675,-134.13 106.034,-121.28 119,-108 138.055,-88.4827 156.25,-63.2814 168.691,-44.6806"/>
<polygon fill="black" stroke="black" points="171.742,-46.411 174.315,-36.1333 165.895,-42.5633 171.742,-46.411"/>
<g id="a_edge5&#45;headlabel"><a xlink:href="dir_000010_000016.html" target="_top" xlink:title="27">
<text text-anchor="middle" x="172.138" y="-47.9745" font-family="Helvetica,sans-Serif" font-size="10.00">27</text>
</a>
</g>
</g>
<!-- dir_f91d6fb20358b4bf1aaf812310655430 -->
<g id="node5" class="node"><title>dir_f91d6fb20358b4bf1aaf812310655430</title>
<g id="a_node5"><a xlink:href="dir_f91d6fb20358b4bf1aaf812310655430.html" target="_top" xlink:title="optim">
<polygon fill="none" stroke="black" points="246,-108 192,-108 192,-72 246,-72 246,-108"/>
<text text-anchor="middle" x="219" y="-87" font-family="Helvetica,sans-Serif" font-size="10.00">optim</text>
</a>
</g>
</g>
<!-- dir_a95d257b462285295fdf6b81f0297401&#45;&gt;dir_f91d6fb20358b4bf1aaf812310655430 -->
<g id="edge7" class="edge"><title>dir_a95d257b462285295fdf6b81f0297401&#45;&gt;dir_f91d6fb20358b4bf1aaf812310655430</title>
<path fill="none" stroke="black" d="M78.476,-143.796C118.821,-126.513 130.17,-124.793 171,-108 174.661,-106.494 178.498,-104.874 182.36,-103.253"/>
<polygon fill="black" stroke="black" points="184.028,-106.351 191.925,-99.2872 181.347,-99.8843 184.028,-106.351"/>
<g id="a_edge7&#45;headlabel"><a xlink:href="dir_000010_000005.html" target="_top" xlink:title="31">
<text text-anchor="middle" x="181.795" y="-107.35" font-family="Helvetica,sans-Serif" font-size="10.00">31</text>
</a>
</g>
</g>
<!-- dir_6dd622156c0e801cb65fc05199a0bcd0 -->
<g id="node2" class="node"><title>dir_6dd622156c0e801cb65fc05199a0bcd0</title>
<g id="a_node2"><a xlink:href="dir_6dd622156c0e801cb65fc05199a0bcd0.html" target="_top" xlink:title="TaskBuilders">
<polygon fill="white" stroke="black" points="168.19,-180 95.8099,-180 95.8099,-144 168.19,-144 168.19,-180"/>
<text text-anchor="middle" x="132" y="-159" font-family="Helvetica,sans-Serif" font-size="10.00">TaskBuilders</text>
</a>
</g>
</g>
<!-- dir_6dd622156c0e801cb65fc05199a0bcd0&#45;&gt;dir_20de452d7840760686826993fa07b5df -->
<g id="edge2" class="edge"><title>dir_6dd622156c0e801cb65fc05199a0bcd0&#45;&gt;dir_20de452d7840760686826993fa07b5df</title>
<path fill="none" stroke="black" d="M168.23,-156.192C197.154,-150.237 235.892,-137.04 255,-108 267.704,-88.6934 266.927,-75.7955 255,-56 247.594,-43.7091 234.589,-35.2897 221.782,-29.6281"/>
<polygon fill="black" stroke="black" points="222.709,-26.2316 212.123,-25.8177 220.141,-32.7433 222.709,-26.2316"/>
<g id="a_edge2&#45;headlabel"><a xlink:href="dir_000011_000016.html" target="_top" xlink:title="9">
<text text-anchor="middle" x="227.095" y="-21.9095" font-family="Helvetica,sans-Serif" font-size="10.00">9</text>
</a>
</g>
</g>
<!-- dir_6caea37d84e24fd94ecda4ebf8d11ecc&#45;&gt;dir_20de452d7840760686826993fa07b5df -->
<g id="edge1" class="edge"><title>dir_6caea37d84e24fd94ecda4ebf8d11ecc&#45;&gt;dir_20de452d7840760686826993fa07b5df</title>
<path fill="none" stroke="black" d="M105.686,-71.8761C119.288,-62.8083 136.172,-51.5523 150.861,-41.7592"/>
<polygon fill="black" stroke="black" points="152.836,-44.649 159.215,-36.1898 148.953,-38.8246 152.836,-44.649"/>
<g id="a_edge1&#45;headlabel"><a xlink:href="dir_000018_000016.html" target="_top" xlink:title="1">
<text text-anchor="middle" x="151.42" y="-46.0053" font-family="Helvetica,sans-Serif" font-size="10.00">1</text>
</a>
</g>
</g>
<!-- dir_f91d6fb20358b4bf1aaf812310655430&#45;&gt;dir_a95d257b462285295fdf6b81f0297401 -->
<g id="edge4" class="edge"><title>dir_f91d6fb20358b4bf1aaf812310655430&#45;&gt;dir_a95d257b462285295fdf6b81f0297401</title>
<path fill="none" stroke="black" d="M191.899,-106.799C190.925,-107.206 189.956,-107.607 189,-108 148.009,-124.859 136.732,-126.526 96,-144 93.2309,-145.188 90.361,-146.464 87.4605,-147.764"/>
<polygon fill="black" stroke="black" points="85.8751,-144.639 78.1779,-151.92 88.7352,-151.028 85.8751,-144.639"/>
<g id="a_edge4&#45;headlabel"><a xlink:href="dir_000005_000010.html" target="_top" xlink:title="5">
<text text-anchor="middle" x="87.996" y="-137.579" font-family="Helvetica,sans-Serif" font-size="10.00">5</text>
</a>
</g>
</g>
<!-- dir_f91d6fb20358b4bf1aaf812310655430&#45;&gt;dir_20de452d7840760686826993fa07b5df -->
<g id="edge3" class="edge"><title>dir_f91d6fb20358b4bf1aaf812310655430&#45;&gt;dir_20de452d7840760686826993fa07b5df</title>
<path fill="none" stroke="black" d="M210.596,-71.6966C206.725,-63.7284 202.048,-54.0995 197.757,-45.2641"/>
<polygon fill="black" stroke="black" points="200.825,-43.5702 193.308,-36.1043 194.529,-46.6286 200.825,-43.5702"/>
<g id="a_edge3&#45;headlabel"><a xlink:href="dir_000005_000016.html" target="_top" xlink:title="10">
<text text-anchor="middle" x="204.95" y="-42.5631" font-family="Helvetica,sans-Serif" font-size="10.00">10</text>
</a>
</g>
</g>
</g>
</svg>
