<?xml version="1.0" encoding="UTF-8" standalone="no"?>
<!DOCTYPE svg PUBLIC "-//W3C//DTD SVG 1.1//EN"
 "http://www.w3.org/Graphics/SVG/1.1/DTD/svg11.dtd">
<!-- Generated by graphviz version 2.38.0 (20140413.2041)
 -->
<!-- Title: include Pages: 1 -->
<svg width="182pt" height="158pt"
 viewBox="0.00 0.00 182.00 158.00" xmlns="http://www.w3.org/2000/svg" xmlns:xlink="http://www.w3.org/1999/xlink">
<g id="graph0" class="graph" transform="scale(1 1) rotate(0) translate(4 154)">
<title>include</title>
<polygon fill="white" stroke="none" points="-4,4 -4,-154 178,-154 178,4 -4,4"/>
<g id="clust1" class="cluster"><title>clusterdir_0777ee02f2a9b5fe084d74997e26b88b</title>
<g id="a_clust1"><a xlink:href="dir_0777ee02f2a9b5fe084d74997e26b88b.html" target="_top" xlink:title="hocra">
<polygon fill="#ddddee" stroke="black" points="8,-56 8,-142 166,-142 166,-56 8,-56"/>
<text text-anchor="middle" x="87" y="-130" font-family="Helvetica,sans-Serif" font-size="10.00">hocra</text>
</a>
</g>
</g>
<g id="clust2" class="cluster"><title>clusterdir_5ae44468195dbfc166b26239d5301f6e</title>
<g id="a_clust2"><a xlink:href="dir_5ae44468195dbfc166b26239d5301f6e.html" target="_top">
<polygon fill="#eeeeff" stroke="black" points="16,-64 16,-116 158,-116 158,-64 16,-64"/>
</a>
</g>
</g>
<!-- dir_5ae44468195dbfc166b26239d5301f6e -->
<g id="node1" class="node"><title>dir_5ae44468195dbfc166b26239d5301f6e</title>
<text text-anchor="middle" x="123" y="-87" font-family="Helvetica,sans-Serif" font-size="10.00">include</text>
</g>
<!-- dir_6376c1d4d337d1bb3f0a74e3a4db119a -->
<g id="node2" class="node"><title>dir_6376c1d4d337d1bb3f0a74e3a4db119a</title>
<g id="a_node2"><a xlink:href="dir_6376c1d4d337d1bb3f0a74e3a4db119a.html" target="_top" xlink:title="hocra">
<polygon fill="white" stroke="black" points="78,-108 24,-108 24,-72 78,-72 78,-108"/>
<text text-anchor="middle" x="51" y="-87" font-family="Helvetica,sans-Serif" font-size="10.00">hocra</text>
</a>
</g>
</g>
<!-- dir_1c6d0bf2a3141da4a9eb77799fc9ded8 -->
<g id="node3" class="node"><title>dir_1c6d0bf2a3141da4a9eb77799fc9ded8</title>
<g id="a_node3"><a xlink:href="dir_1c6d0bf2a3141da4a9eb77799fc9ded8.html" target="_top" xlink:title="ocra">
<polygon fill="white" stroke="red" points="78,-36 24,-36 24,-0 78,-0 78,-36"/>
<text text-anchor="middle" x="51" y="-15" font-family="Helvetica,sans-Serif" font-size="10.00">ocra</text>
</a>
</g>
</g>
<!-- dir_6376c1d4d337d1bb3f0a74e3a4db119a&#45;&gt;dir_1c6d0bf2a3141da4a9eb77799fc9ded8 -->
<g id="edge1" class="edge"><title>dir_6376c1d4d337d1bb3f0a74e3a4db119a&#45;&gt;dir_1c6d0bf2a3141da4a9eb77799fc9ded8</title>
<path fill="none" stroke="black" d="M51,-71.6966C51,-63.9827 51,-54.7125 51,-46.1124"/>
<polygon fill="black" stroke="black" points="54.5001,-46.1043 51,-36.1043 47.5001,-46.1044 54.5001,-46.1043"/>
<g id="a_edge1&#45;headlabel"><a xlink:href="dir_000031_000002.html" target="_top" xlink:title="4">
<text text-anchor="middle" x="57.3393" y="-46.699" font-family="Helvetica,sans-Serif" font-size="10.00">4</text>
</a>
</g>
</g>
</g>
</svg>
