<?xml version="1.0" encoding="UTF-8" standalone="no"?>
<!DOCTYPE svg PUBLIC "-//W3C//DTD SVG 1.1//EN"
 "http://www.w3.org/Graphics/SVG/1.1/DTD/svg11.dtd">
<!-- Generated by graphviz version 2.38.0 (20140413.2041)
 -->
<!-- Title: TaskBuilders Pages: 1 -->
<svg width="112pt" height="150pt"
 viewBox="0.00 0.00 112.00 150.00" xmlns="http://www.w3.org/2000/svg" xmlns:xlink="http://www.w3.org/1999/xlink">
<g id="graph0" class="graph" transform="scale(1 1) rotate(0) translate(4 146)">
<title>TaskBuilders</title>
<polygon fill="white" stroke="none" points="-4,4 -4,-146 108,-146 108,4 -4,4"/>
<g id="clust1" class="cluster"><title>clusterdir_ba7a259fc2d2d710296f3aad8302b266</title>
<g id="a_clust1"><a xlink:href="dir_ba7a259fc2d2d710296f3aad8302b266.html" target="_top" xlink:title="control">
<polygon fill="#ddddee" stroke="black" points="8,-64 8,-134 96,-134 96,-64 8,-64"/>
<text text-anchor="middle" x="52" y="-122" font-family="Helvetica,sans-Serif" font-size="10.00">control</text>
</a>
</g>
</g>
<!-- dir_bd7d53f33b31f1a5b50db98bec135101 -->
<g id="node1" class="node"><title>dir_bd7d53f33b31f1a5b50db98bec135101</title>
<g id="a_node1"><a xlink:href="dir_bd7d53f33b31f1a5b50db98bec135101.html" target="_top" xlink:title="TaskBuilders">
<polygon fill="#eeeeff" stroke="black" points="88.1901,-108 15.8099,-108 15.8099,-72 88.1901,-72 88.1901,-108"/>
<text text-anchor="middle" x="52" y="-87" font-family="Helvetica,sans-Serif" font-size="10.00">TaskBuilders</text>
</a>
</g>
</g>
<!-- dir_299427f46d6e0ce313cf5001789a1f8b -->
<g id="node2" class="node"><title>dir_299427f46d6e0ce313cf5001789a1f8b</title>
<g id="a_node2"><a xlink:href="dir_299427f46d6e0ce313cf5001789a1f8b.html" target="_top" xlink:title="include">
<polygon fill="white" stroke="red" points="79,-36 25,-36 25,-0 79,-0 79,-36"/>
<text text-anchor="middle" x="52" y="-15" font-family="Helvetica,sans-Serif" font-size="10.00">include</text>
</a>
</g>
</g>
<!-- dir_bd7d53f33b31f1a5b50db98bec135101&#45;&gt;dir_299427f46d6e0ce313cf5001789a1f8b -->
<g id="edge1" class="edge"><title>dir_bd7d53f33b31f1a5b50db98bec135101&#45;&gt;dir_299427f46d6e0ce313cf5001789a1f8b</title>
<path fill="none" stroke="black" d="M52,-71.6966C52,-63.9827 52,-54.7125 52,-46.1124"/>
<polygon fill="black" stroke="black" points="55.5001,-46.1043 52,-36.1043 48.5001,-46.1044 55.5001,-46.1043"/>
<g id="a_edge1&#45;headlabel"><a xlink:href="dir_000009_000003.html" target="_top" xlink:title="10">
<text text-anchor="middle" x="58.3393" y="-46.699" font-family="Helvetica,sans-Serif" font-size="10.00">10</text>
</a>
</g>
</g>
</g>
</svg>
