<?xml version="1.0" encoding="UTF-8" standalone="no"?>
<!DOCTYPE svg PUBLIC "-//W3C//DTD SVG 1.1//EN"
 "http://www.w3.org/Graphics/SVG/1.1/DTD/svg11.dtd">
<!-- Generated by graphviz version 2.38.0 (20140413.2041)
 -->
<!-- Title: Graphical Class Hierarchy Pages: 1 -->
<svg width="294pt" height="383pt"
 viewBox="0.00 0.00 293.87 383.00" xmlns="http://www.w3.org/2000/svg" xmlns:xlink="http://www.w3.org/1999/xlink">
<g id="graph0" class="graph" transform="scale(1 1) rotate(0) translate(4 379)">
<title>Graphical Class Hierarchy</title>
<polygon fill="white" stroke="none" points="-4,4 -4,-379 289.871,-379 289.871,4 -4,4"/>
<!-- Node105 -->
<g id="node1" class="node"><title>Node105</title>
<polygon fill="white" stroke="#bfbfbf" points="0,-173.5 0,-191.5 67.1377,-191.5 67.1377,-173.5 0,-173.5"/>
<text text-anchor="middle" x="33.5688" y="-179.5" font-family="Helvetica,sans-Serif" font-size="10.00">PortReader</text>
</g>
<!-- Node0 -->
<g id="node2" class="node"><title>Node0</title>
<g id="a_node2"><a xlink:href="de/d1c/classocra_1_1TaskYarpInterface_1_1ControlInputCallback.html" target="_top" xlink:title="a short description ">
<polygon fill="white" stroke="black" points="134.07,-346.5 134.07,-374.5 254.938,-374.5 254.938,-346.5 134.07,-346.5"/>
<text text-anchor="start" x="142.07" y="-362.5" font-family="Helvetica,sans-Serif" font-size="10.00">ocra::TaskYarpInterface</text>
<text text-anchor="middle" x="194.504" y="-352.5" font-family="Helvetica,sans-Serif" font-size="10.00">::ControlInputCallback</text>
</a>
</g>
</g>
<!-- Node105&#45;&gt;Node0 -->
<g id="edge1" class="edge"><title>Node105&#45;&gt;Node0</title>
<path fill="none" stroke="midnightblue" d="M37.5846,-202.018C43.741,-235.041 60.9232,-301.816 103.138,-337.5 111.916,-344.92 122.776,-349.994 133.888,-353.451"/>
<polygon fill="midnightblue" stroke="midnightblue" points="40.9814,-201.117 35.8439,-191.851 34.0818,-202.298 40.9814,-201.117"/>
</g>
<!-- Node107 -->
<g id="node3" class="node"><title>Node107</title>
<g id="a_node3"><a xlink:href="d1/d1a/classocra_1_1TaskYarpInterface_1_1RpcMessageCallback.html" target="_top" xlink:title="a short description ">
<polygon fill="white" stroke="black" points="134.07,-299.5 134.07,-327.5 254.938,-327.5 254.938,-299.5 134.07,-299.5"/>
<text text-anchor="start" x="142.07" y="-315.5" font-family="Helvetica,sans-Serif" font-size="10.00">ocra::TaskYarpInterface</text>
<text text-anchor="middle" x="194.504" y="-305.5" font-family="Helvetica,sans-Serif" font-size="10.00">::RpcMessageCallback</text>
</a>
</g>
</g>
<!-- Node105&#45;&gt;Node107 -->
<g id="edge2" class="edge"><title>Node105&#45;&gt;Node107</title>
<path fill="none" stroke="midnightblue" d="M41.3518,-201.206C51.1595,-225.554 71.6511,-267.679 103.138,-290.5 112.182,-297.055 122.916,-301.748 133.771,-305.105"/>
<polygon fill="midnightblue" stroke="midnightblue" points="44.5487,-199.768 37.6986,-191.685 38.0133,-202.276 44.5487,-199.768"/>
</g>
<!-- Node108 -->
<g id="node4" class="node"><title>Node108</title>
<g id="a_node4"><a xlink:href="df/dca/classocra__recipes_1_1ClientCommunications.html" target="_top" xlink:title="ocra_recipes::ClientCommunications">
<polygon fill="white" stroke="black" points="105.081,-262.5 105.081,-280.5 283.928,-280.5 283.928,-262.5 105.081,-262.5"/>
<text text-anchor="middle" x="194.504" y="-268.5" font-family="Helvetica,sans-Serif" font-size="10.00">ocra_recipes::ClientCommunications</text>
</a>
</g>
</g>
<!-- Node105&#45;&gt;Node108 -->
<g id="edge3" class="edge"><title>Node105&#45;&gt;Node108</title>
<path fill="none" stroke="midnightblue" d="M46.4281,-199.849C58.6612,-216.331 79.2791,-240.475 103.138,-253.5 109.877,-257.179 117.266,-260.112 124.825,-262.448"/>
<polygon fill="midnightblue" stroke="midnightblue" points="49.1919,-197.697 40.5273,-191.6 43.4985,-201.769 49.1919,-197.697"/>
</g>
<!-- Node109 -->
<g id="node5" class="node"><title>Node109</title>
<g id="a_node5"><a xlink:href="de/dfc/classocra__recipes_1_1ClientCommunications_1_1InputCallback.html" target="_top" xlink:title="ocra_recipes::ClientCommunications\l::InputCallback">
<polygon fill="white" stroke="black" points="105.081,-215.5 105.081,-243.5 283.928,-243.5 283.928,-215.5 105.081,-215.5"/>
<text text-anchor="start" x="113.081" y="-231.5" font-family="Helvetica,sans-Serif" font-size="10.00">ocra_recipes::ClientCommunications</text>
<text text-anchor="middle" x="194.504" y="-221.5" font-family="Helvetica,sans-Serif" font-size="10.00">::InputCallback</text>
</a>
</g>
</g>
<!-- Node105&#45;&gt;Node109 -->
<g id="edge4" class="edge"><title>Node105&#45;&gt;Node109</title>
<path fill="none" stroke="midnightblue" d="M68.496,-195.034C79.4824,-198.916 91.7664,-203.07 103.138,-206.5 113.367,-209.586 124.328,-212.609 134.964,-215.397"/>
<polygon fill="midnightblue" stroke="midnightblue" points="69.4292,-191.651 58.8346,-191.575 67.0694,-198.241 69.4292,-191.651"/>
</g>
<!-- Node110 -->
<g id="node6" class="node"><title>Node110</title>
<g id="a_node6"><a xlink:href="d4/d05/classocra__recipes_1_1ClientManager_1_1moduleCallback.html" target="_top" xlink:title="A callback function which binds the rpc server port opened in the contoller server module to the cont...">
<polygon fill="white" stroke="black" points="122.583,-168.5 122.583,-196.5 266.425,-196.5 266.425,-168.5 122.583,-168.5"/>
<text text-anchor="start" x="130.583" y="-184.5" font-family="Helvetica,sans-Serif" font-size="10.00">ocra_recipes::ClientManager</text>
<text text-anchor="middle" x="194.504" y="-174.5" font-family="Helvetica,sans-Serif" font-size="10.00">::moduleCallback</text>
</a>
</g>
</g>
<!-- Node105&#45;&gt;Node110 -->
<g id="edge5" class="edge"><title>Node105&#45;&gt;Node110</title>
<path fill="none" stroke="midnightblue" d="M77.6347,-182.5C91.4111,-182.5 107.049,-182.5 122.279,-182.5"/>
<polygon fill="midnightblue" stroke="midnightblue" points="77.5004,-179 67.5004,-182.5 77.5004,-186 77.5004,-179"/>
</g>
<!-- Node111 -->
<g id="node7" class="node"><title>Node111</title>
<g id="a_node7"><a xlink:href="d5/d79/classocra__recipes_1_1ControlThread_1_1inputCallback.html" target="_top" xlink:title="ocra_recipes::ControlThread\l::inputCallback">
<polygon fill="white" stroke="black" points="123.14,-121.5 123.14,-149.5 265.869,-149.5 265.869,-121.5 123.14,-121.5"/>
<text text-anchor="start" x="131.14" y="-137.5" font-family="Helvetica,sans-Serif" font-size="10.00">ocra_recipes::ControlThread</text>
<text text-anchor="middle" x="194.504" y="-127.5" font-family="Helvetica,sans-Serif" font-size="10.00">::inputCallback</text>
</a>
</g>
</g>
<!-- Node105&#45;&gt;Node111 -->
<g id="edge6" class="edge"><title>Node105&#45;&gt;Node111</title>
<path fill="none" stroke="midnightblue" d="M69.9557,-170.149C80.5795,-166.571 92.2926,-162.755 103.138,-159.5 114.487,-156.093 126.712,-152.678 138.39,-149.536"/>
<polygon fill="midnightblue" stroke="midnightblue" points="68.5068,-166.945 60.1676,-173.48 70.762,-173.572 68.5068,-166.945"/>
</g>
<!-- Node112 -->
<g id="node8" class="node"><title>Node112</title>
<g id="a_node8"><a xlink:href="d9/d94/classocra__recipes_1_1ServerCommunications.html" target="_top" xlink:title="ocra_recipes::ServerCommunications">
<polygon fill="white" stroke="black" points="103.138,-84.5 103.138,-102.5 285.871,-102.5 285.871,-84.5 103.138,-84.5"/>
<text text-anchor="middle" x="194.504" y="-90.5" font-family="Helvetica,sans-Serif" font-size="10.00">ocra_recipes::ServerCommunications</text>
</a>
</g>
</g>
<!-- Node105&#45;&gt;Node112 -->
<g id="edge7" class="edge"><title>Node105&#45;&gt;Node112</title>
<path fill="none" stroke="midnightblue" d="M46.9085,-164.932C59.2504,-148.74 79.727,-125.334 103.138,-112.5 110.729,-108.338 119.138,-105.087 127.683,-102.547"/>
<polygon fill="midnightblue" stroke="midnightblue" points="44.0267,-162.943 40.9219,-173.073 49.666,-167.09 44.0267,-162.943"/>
</g>
<!-- Node113 -->
<g id="node9" class="node"><title>Node113</title>
<g id="a_node9"><a xlink:href="d2/dde/classocra__recipes_1_1StateListener.html" target="_top" xlink:title="A callback for a port listing to robot states. ">
<polygon fill="white" stroke="black" points="125.638,-47.5 125.638,-65.5 263.371,-65.5 263.371,-47.5 125.638,-47.5"/>
<text text-anchor="middle" x="194.504" y="-53.5" font-family="Helvetica,sans-Serif" font-size="10.00">ocra_recipes::StateListener</text>
</a>
</g>
</g>
<!-- Node105&#45;&gt;Node113 -->
<g id="edge8" class="edge"><title>Node105&#45;&gt;Node113</title>
<path fill="none" stroke="midnightblue" d="M41.2595,-163.767C50.9649,-139.422 71.3432,-97.442 103.138,-75.5 109.867,-70.856 117.501,-67.3083 125.414,-64.6043"/>
<polygon fill="midnightblue" stroke="midnightblue" points="37.9201,-162.702 37.6497,-173.294 44.466,-165.183 37.9201,-162.702"/>
</g>
<!-- Node114 -->
<g id="node10" class="node"><title>Node114</title>
<g id="a_node10"><a xlink:href="da/d7d/classocra__recipes_1_1TaskConnection_1_1inputCallback.html" target="_top" xlink:title="ocra_recipes::TaskConnection\l::inputCallback">
<polygon fill="white" stroke="black" points="119.524,-0.5 119.524,-28.5 269.484,-28.5 269.484,-0.5 119.524,-0.5"/>
<text text-anchor="start" x="127.524" y="-16.5" font-family="Helvetica,sans-Serif" font-size="10.00">ocra_recipes::TaskConnection</text>
<text text-anchor="middle" x="194.504" y="-6.5" font-family="Helvetica,sans-Serif" font-size="10.00">::inputCallback</text>
</a>
</g>
</g>
<!-- Node105&#45;&gt;Node114 -->
<g id="edge9" class="edge"><title>Node105&#45;&gt;Node114</title>
<path fill="none" stroke="midnightblue" d="M38.242,-163.538C45.2443,-132.602 63.4848,-71.4269 103.138,-38.5 108.008,-34.4557 113.492,-31.0866 119.289,-28.2809"/>
<polygon fill="midnightblue" stroke="midnightblue" points="34.7886,-162.953 36.1518,-173.459 41.6382,-164.396 34.7886,-162.953"/>
</g>
</g>
</svg>
