<?xml version="1.0" encoding="UTF-8" standalone="no"?>
<!DOCTYPE svg PUBLIC "-//W3C//DTD SVG 1.1//EN"
 "http://www.w3.org/Graphics/SVG/1.1/DTD/svg11.dtd">
<!-- Generated by graphviz version 2.38.0 (20140413.2041)
 -->
<!-- Title: Graphical Class Hierarchy Pages: 1 -->
<svg width="399pt" height="37pt"
 viewBox="0.00 0.00 399.26 37.00" xmlns="http://www.w3.org/2000/svg" xmlns:xlink="http://www.w3.org/1999/xlink">
<g id="graph0" class="graph" transform="scale(1 1) rotate(0) translate(4 33)">
<title>Graphical Class Hierarchy</title>
<polygon fill="white" stroke="none" points="-4,4 -4,-33 395.262,-33 395.262,4 -4,4"/>
<!-- Node0 -->
<g id="node1" class="node"><title>Node0</title>
<g id="a_node1"><a xlink:href="d1/d29/structocra_1_1FunctionInterfaceMapping.html" target="_top" xlink:title="ocra::FunctionInterfaceMapping\l\&lt; Objective\&lt; ocra::SquaredLinearFunction \&gt; \&gt;">
<polygon fill="white" stroke="black" points="0,-0.5 0,-28.5 221.127,-28.5 221.127,-0.5 0,-0.5"/>
<text text-anchor="start" x="8" y="-16.5" font-family="Helvetica,sans-Serif" font-size="10.00">ocra::FunctionInterfaceMapping</text>
<text text-anchor="middle" x="110.563" y="-6.5" font-family="Helvetica,sans-Serif" font-size="10.00">&lt; Objective&lt; ocra::SquaredLinearFunction &gt; &gt;</text>
</a>
</g>
</g>
<!-- Node1 -->
<g id="node2" class="node"><title>Node1</title>
<g id="a_node2"><a xlink:href="df/d6c/classocra_1_1Objective.html" target="_top" xlink:title="ocra::Objective\&lt; ocra\l::SquaredLinearFunction \&gt;">
<polygon fill="white" stroke="black" points="257.127,-0.5 257.127,-28.5 391.262,-28.5 391.262,-0.5 257.127,-0.5"/>
<text text-anchor="start" x="265.127" y="-16.5" font-family="Helvetica,sans-Serif" font-size="10.00">ocra::Objective&lt; ocra</text>
<text text-anchor="middle" x="324.194" y="-6.5" font-family="Helvetica,sans-Serif" font-size="10.00">::SquaredLinearFunction &gt;</text>
</a>
</g>
</g>
<!-- Node0&#45;&gt;Node1 -->
<g id="edge1" class="edge"><title>Node0&#45;&gt;Node1</title>
<path fill="none" stroke="midnightblue" d="M231.652,-14.5C240.34,-14.5 248.897,-14.5 257.083,-14.5"/>
<polygon fill="midnightblue" stroke="midnightblue" points="231.408,-11.0001 221.408,-14.5 231.408,-18.0001 231.408,-11.0001"/>
</g>
</g>
</svg>
