<?xml version="1.0" encoding="UTF-8" standalone="no"?>
<!DOCTYPE svg PUBLIC "-//W3C//DTD SVG 1.1//EN"
 "http://www.w3.org/Graphics/SVG/1.1/DTD/svg11.dtd">
<!-- Generated by graphviz version 2.38.0 (20140413.2041)
 -->
<!-- Title: Graphical Class Hierarchy Pages: 1 -->
<svg width="330pt" height="64pt"
 viewBox="0.00 0.00 330.39 64.00" xmlns="http://www.w3.org/2000/svg" xmlns:xlink="http://www.w3.org/1999/xlink">
<g id="graph0" class="graph" transform="scale(1 1) rotate(0) translate(4 60)">
<title>Graphical Class Hierarchy</title>
<polygon fill="white" stroke="none" points="-4,4 -4,-60 326.395,-60 326.395,4 -4,4"/>
<!-- Node0 -->
<g id="node1" class="node"><title>Node0</title>
<g id="a_node1"><a xlink:href="d7/d85/classocra_1_1ControlConstraint.html" target="_top" xlink:title="ocra::ControlConstraint">
<polygon fill="white" stroke="black" points="0,-18.5 0,-36.5 118.822,-36.5 118.822,-18.5 0,-18.5"/>
<text text-anchor="middle" x="59.4111" y="-24.5" font-family="Helvetica,sans-Serif" font-size="10.00">ocra::ControlConstraint</text>
</a>
</g>
</g>
<!-- Node1 -->
<g id="node2" class="node"><title>Node1</title>
<g id="a_node2"><a xlink:href="d4/d90/classocra_1_1ContactAvoidanceConstraint.html" target="_top" xlink:title="ocra::ContactAvoidanceConstraint">
<polygon fill="white" stroke="black" points="154.822,-37.5 154.822,-55.5 322.395,-55.5 322.395,-37.5 154.822,-37.5"/>
<text text-anchor="middle" x="238.608" y="-43.5" font-family="Helvetica,sans-Serif" font-size="10.00">ocra::ContactAvoidanceConstraint</text>
</a>
</g>
</g>
<!-- Node0&#45;&gt;Node1 -->
<g id="edge1" class="edge"><title>Node0&#45;&gt;Node1</title>
<path fill="none" stroke="midnightblue" d="M129.059,-34.8608C137.49,-35.7648 146.175,-36.6961 154.788,-37.6195"/>
<polygon fill="midnightblue" stroke="midnightblue" points="129.239,-31.3601 118.923,-33.774 128.493,-38.3202 129.239,-31.3601"/>
</g>
<!-- Node2 -->
<g id="node3" class="node"><title>Node2</title>
<g id="a_node3"><a xlink:href="d4/d69/classocra_1_1JointLimitConstraint.html" target="_top" xlink:title="ocra::JointLimitConstraint">
<polygon fill="white" stroke="black" points="174.197,-0.5 174.197,-18.5 303.02,-18.5 303.02,-0.5 174.197,-0.5"/>
<text text-anchor="middle" x="238.608" y="-6.5" font-family="Helvetica,sans-Serif" font-size="10.00">ocra::JointLimitConstraint</text>
</a>
</g>
</g>
<!-- Node0&#45;&gt;Node2 -->
<g id="edge2" class="edge"><title>Node0&#45;&gt;Node2</title>
<path fill="none" stroke="midnightblue" d="M129.015,-20.5311C143.805,-19.0287 159.379,-17.4467 173.97,-15.9645"/>
<polygon fill="midnightblue" stroke="midnightblue" points="128.518,-17.0635 118.923,-21.5562 129.226,-24.0276 128.518,-17.0635"/>
</g>
</g>
</svg>
