<?xml version="1.0" encoding="UTF-8" standalone="no"?>
<!DOCTYPE svg PUBLIC "-//W3C//DTD SVG 1.1//EN"
 "http://www.w3.org/Graphics/SVG/1.1/DTD/svg11.dtd">
<!-- Generated by graphviz version 2.38.0 (20140413.2041)
 -->
<!-- Title: Graphical Class Hierarchy Pages: 1 -->
<svg width="310pt" height="84pt"
 viewBox="0.00 0.00 310.38 84.00" xmlns="http://www.w3.org/2000/svg" xmlns:xlink="http://www.w3.org/1999/xlink">
<g id="graph0" class="graph" transform="scale(1 1) rotate(0) translate(4 80)">
<title>Graphical Class Hierarchy</title>
<polygon fill="white" stroke="none" points="-4,4 -4,-80 306.375,-80 306.375,4 -4,4"/>
<!-- Node0 -->
<g id="node1" class="node"><title>Node0</title>
<g id="a_node1"><a xlink:href="d0/dd9/structocra_1_1SubjectBaseTraitsBase.html" target="_top" xlink:title="Base class for objects who can raise events,. ">
<polygon fill="white" stroke="black" points="0,-23.5 0,-51.5 144.584,-51.5 144.584,-23.5 0,-23.5"/>
<text text-anchor="start" x="8" y="-39.5" font-family="Helvetica,sans-Serif" font-size="10.00">ocra::SubjectBaseTraitsBase</text>
<text text-anchor="middle" x="72.292" y="-29.5" font-family="Helvetica,sans-Serif" font-size="10.00">&lt; EVT &gt;</text>
</a>
</g>
</g>
<!-- Node1 -->
<g id="node2" class="node"><title>Node1</title>
<g id="a_node2"><a xlink:href="dc/d3a/structocra_1_1SubjectBaseTraits.html" target="_top" xlink:title="ocra::SubjectBaseTraits\l\&lt; EVT, T \&gt;">
<polygon fill="white" stroke="black" points="180.584,-47.5 180.584,-75.5 302.375,-75.5 302.375,-47.5 180.584,-47.5"/>
<text text-anchor="start" x="188.584" y="-63.5" font-family="Helvetica,sans-Serif" font-size="10.00">ocra::SubjectBaseTraits</text>
<text text-anchor="middle" x="241.479" y="-53.5" font-family="Helvetica,sans-Serif" font-size="10.00">&lt; EVT, T &gt;</text>
</a>
</g>
</g>
<!-- Node0&#45;&gt;Node1 -->
<g id="edge1" class="edge"><title>Node0&#45;&gt;Node1</title>
<path fill="none" stroke="midnightblue" d="M154.772,-49.1966C163.4,-50.4351 172.058,-51.6779 180.377,-52.8723"/>
<polygon fill="midnightblue" stroke="midnightblue" points="155.075,-45.7043 144.679,-47.7478 154.081,-52.6333 155.075,-45.7043"/>
</g>
<!-- Node2 -->
<g id="node3" class="node"><title>Node2</title>
<g id="a_node3"><a xlink:href="d9/d47/structocra_1_1SubjectBaseTraits_3_01EVT_00_01void_01_4.html" target="_top" xlink:title="ocra::SubjectBaseTraits\l\&lt; EVT, void \&gt;">
<polygon fill="white" stroke="black" points="180.584,-0.5 180.584,-28.5 302.375,-28.5 302.375,-0.5 180.584,-0.5"/>
<text text-anchor="start" x="188.584" y="-16.5" font-family="Helvetica,sans-Serif" font-size="10.00">ocra::SubjectBaseTraits</text>
<text text-anchor="middle" x="241.479" y="-6.5" font-family="Helvetica,sans-Serif" font-size="10.00">&lt; EVT, void &gt;</text>
</a>
</g>
</g>
<!-- Node0&#45;&gt;Node2 -->
<g id="edge2" class="edge"><title>Node0&#45;&gt;Node2</title>
<path fill="none" stroke="midnightblue" d="M154.772,-26.2908C163.4,-25.1039 172.058,-23.9128 180.377,-22.7682"/>
<polygon fill="midnightblue" stroke="midnightblue" points="154.109,-22.8489 144.679,-27.6792 155.063,-29.7836 154.109,-22.8489"/>
</g>
</g>
</svg>
