<?xml version="1.0" encoding="UTF-8" standalone="no"?>
<!DOCTYPE svg PUBLIC "-//W3C//DTD SVG 1.1//EN"
 "http://www.w3.org/Graphics/SVG/1.1/DTD/svg11.dtd">
<!-- Generated by graphviz version 2.38.0 (20140413.2041)
 -->
<!-- Title: Graphical Class Hierarchy Pages: 1 -->
<svg width="484pt" height="37pt"
 viewBox="0.00 0.00 484.49 37.00" xmlns="http://www.w3.org/2000/svg" xmlns:xlink="http://www.w3.org/1999/xlink">
<g id="graph0" class="graph" transform="scale(1 1) rotate(0) translate(4 33)">
<title>Graphical Class Hierarchy</title>
<polygon fill="white" stroke="none" points="-4,4 -4,-33 480.489,-33 480.489,4 -4,4"/>
<!-- Node0 -->
<g id="node1" class="node"><title>Node0</title>
<g id="a_node1"><a xlink:href="d1/d29/structocra_1_1FunctionInterfaceMapping.html" target="_top" xlink:title="ocra::FunctionInterfaceMapping\l\&lt; Constraint\&lt; T \&gt; \&gt;">
<polygon fill="white" stroke="black" points="0,-0.5 0,-28.5 156.635,-28.5 156.635,-0.5 0,-0.5"/>
<text text-anchor="start" x="8" y="-16.5" font-family="Helvetica,sans-Serif" font-size="10.00">ocra::FunctionInterfaceMapping</text>
<text text-anchor="middle" x="78.3174" y="-6.5" font-family="Helvetica,sans-Serif" font-size="10.00">&lt; Constraint&lt; T &gt; &gt;</text>
</a>
</g>
</g>
<!-- Node1 -->
<g id="node2" class="node"><title>Node1</title>
<g id="a_node2"><a xlink:href="dc/d5c/classocra_1_1Constraint.html" target="_top" xlink:title="Constraint class. ">
<polygon fill="white" stroke="black" points="192.635,-5.5 192.635,-23.5 302.214,-23.5 302.214,-5.5 192.635,-5.5"/>
<text text-anchor="middle" x="247.424" y="-11.5" font-family="Helvetica,sans-Serif" font-size="10.00">ocra::Constraint&lt; T &gt;</text>
</a>
</g>
</g>
<!-- Node0&#45;&gt;Node1 -->
<g id="edge1" class="edge"><title>Node0&#45;&gt;Node1</title>
<path fill="none" stroke="midnightblue" d="M167.085,-14.5C175.67,-14.5 184.196,-14.5 192.299,-14.5"/>
<polygon fill="midnightblue" stroke="midnightblue" points="167,-11.0001 157,-14.5 167,-18.0001 167,-11.0001"/>
</g>
<!-- Node2 -->
<g id="node3" class="node"><title>Node2</title>
<g id="a_node3"><a xlink:href="d2/da4/classocra_1_1TorqueLimitConstraint.html" target="_top" xlink:title="ocra::TorqueLimitConstraint">
<polygon fill="white" stroke="black" points="338.214,-5.5 338.214,-23.5 476.489,-23.5 476.489,-5.5 338.214,-5.5"/>
<text text-anchor="middle" x="407.352" y="-11.5" font-family="Helvetica,sans-Serif" font-size="10.00">ocra::TorqueLimitConstraint</text>
</a>
</g>
</g>
<!-- Node1&#45;&gt;Node2 -->
<g id="edge2" class="edge"><title>Node1&#45;&gt;Node2</title>
<path fill="none" stroke="midnightblue" d="M312.5,-14.5C320.954,-14.5 329.645,-14.5 338.165,-14.5"/>
<polygon fill="midnightblue" stroke="midnightblue" points="312.332,-11.0001 302.332,-14.5 312.332,-18.0001 312.332,-11.0001"/>
</g>
</g>
</svg>
