<?xml version="1.0" encoding="UTF-8" standalone="no"?>
<!DOCTYPE svg PUBLIC "-//W3C//DTD SVG 1.1//EN"
 "http://www.w3.org/Graphics/SVG/1.1/DTD/svg11.dtd">
<!-- Generated by graphviz version 2.38.0 (20140413.2041)
 -->
<!-- Title: Graphical Class Hierarchy Pages: 1 -->
<svg width="248pt" height="64pt"
 viewBox="0.00 0.00 247.93 64.00" xmlns="http://www.w3.org/2000/svg" xmlns:xlink="http://www.w3.org/1999/xlink">
<g id="graph0" class="graph" transform="scale(1 1) rotate(0) translate(4 60)">
<title>Graphical Class Hierarchy</title>
<polygon fill="white" stroke="none" points="-4,4 -4,-60 243.929,-60 243.929,4 -4,4"/>
<!-- Node236 -->
<g id="node1" class="node"><title>Node236</title>
<polygon fill="white" stroke="#bfbfbf" points="0.258789,-37.5 0.258789,-55.5 81.3076,-55.5 81.3076,-37.5 0.258789,-37.5"/>
<text text-anchor="middle" x="40.7832" y="-43.5" font-family="Helvetica,sans-Serif" font-size="10.00">functionType_t</text>
</g>
<!-- Node0 -->
<g id="node2" class="node"><title>Node0</title>
<g id="a_node2"><a xlink:href="df/d7f/classocra_1_1RowFunction.html" target="_top" xlink:title="RowFunction class. ">
<polygon fill="white" stroke="black" points="117.566,-18.5 117.566,-36.5 239.929,-36.5 239.929,-18.5 117.566,-18.5"/>
<text text-anchor="middle" x="178.748" y="-24.5" font-family="Helvetica,sans-Serif" font-size="10.00">ocra::RowFunction&lt; T &gt;</text>
</a>
</g>
</g>
<!-- Node236&#45;&gt;Node0 -->
<g id="edge1" class="edge"><title>Node236&#45;&gt;Node0</title>
<path fill="none" stroke="midnightblue" d="M91.5419,-39.5466C99.9914,-38.3658 108.846,-37.1284 117.53,-35.9149"/>
<polygon fill="midnightblue" stroke="midnightblue" points="90.8946,-36.103 81.4752,-40.9533 91.8634,-43.0356 90.8946,-36.103"/>
</g>
<!-- Node211 -->
<g id="node3" class="node"><title>Node211</title>
<polygon fill="white" stroke="#bfbfbf" points="0,-0.5 0,-18.5 81.5664,-18.5 81.5664,-0.5 0,-0.5"/>
<text text-anchor="middle" x="40.7832" y="-6.5" font-family="Helvetica,sans-Serif" font-size="10.00">IsDerivedFrom</text>
</g>
<!-- Node211&#45;&gt;Node0 -->
<g id="edge2" class="edge"><title>Node211&#45;&gt;Node0</title>
<path fill="none" stroke="#8b1a1a" d="M91.8247,-16.1249C100.199,-17.2335 108.964,-18.3939 117.561,-19.5321"/>
<polygon fill="#8b1a1a" stroke="#8b1a1a" points="92.2145,-12.646 81.8416,-14.8032 91.2957,-19.5855 92.2145,-12.646"/>
</g>
</g>
</svg>
