<?xml version="1.0" encoding="UTF-8" standalone="no"?>
<!DOCTYPE svg PUBLIC "-//W3C//DTD SVG 1.1//EN"
 "http://www.w3.org/Graphics/SVG/1.1/DTD/svg11.dtd">
<!-- Generated by graphviz version 2.38.0 (20140413.2041)
 -->
<!-- Title: Graphical Class Hierarchy Pages: 1 -->
<svg width="354pt" height="94pt"
 viewBox="0.00 0.00 353.88 94.00" xmlns="http://www.w3.org/2000/svg" xmlns:xlink="http://www.w3.org/1999/xlink">
<g id="graph0" class="graph" transform="scale(1 1) rotate(0) translate(4 90)">
<title>Graphical Class Hierarchy</title>
<polygon fill="white" stroke="none" points="-4,4 -4,-90 349.876,-90 349.876,4 -4,4"/>
<!-- Node249 -->
<g id="node1" class="node"><title>Node249</title>
<g id="a_node1"><a xlink:href="d1/d29/structocra_1_1FunctionInterfaceMapping.html" target="_top" xlink:title="ocra::FunctionInterfaceMapping\l\&lt; Constraint\&lt; Function \&gt; \&gt;">
<polygon fill="white" stroke="black" points="5.53223,-57.5 5.53223,-85.5 162.167,-85.5 162.167,-57.5 5.53223,-57.5"/>
<text text-anchor="start" x="13.5322" y="-73.5" font-family="Helvetica,sans-Serif" font-size="10.00">ocra::FunctionInterfaceMapping</text>
<text text-anchor="middle" x="83.8496" y="-63.5" font-family="Helvetica,sans-Serif" font-size="10.00">&lt; Constraint&lt; Function &gt; &gt;</text>
</a>
</g>
</g>
<!-- Node1 -->
<g id="node2" class="node"><title>Node1</title>
<g id="a_node2"><a xlink:href="de/d3b/classocra_1_1Constraint_3_01Function_01_4.html" target="_top" xlink:title="ocra::Constraint\&lt; Function \&gt;">
<polygon fill="white" stroke="black" points="203.699,-36.5 203.699,-54.5 345.876,-54.5 345.876,-36.5 203.699,-36.5"/>
<text text-anchor="middle" x="274.788" y="-42.5" font-family="Helvetica,sans-Serif" font-size="10.00">ocra::Constraint&lt; Function &gt;</text>
</a>
</g>
</g>
<!-- Node249&#45;&gt;Node1 -->
<g id="edge1" class="edge"><title>Node249&#45;&gt;Node1</title>
<path fill="none" stroke="midnightblue" d="M172.346,-59.4595C184.437,-57.7957 196.681,-56.1108 208.28,-54.5146"/>
<polygon fill="midnightblue" stroke="midnightblue" points="171.673,-56.0191 162.243,-60.8498 172.627,-62.9538 171.673,-56.0191"/>
</g>
<!-- Node0 -->
<g id="node3" class="node"><title>Node0</title>
<g id="a_node3"><a xlink:href="dc/d29/classocra_1_1SubjectBase.html" target="_top" xlink:title="ocra::SubjectBase\&lt;\l EVT_CSTR_CHANGE_BOUNDS\l_NUMBER \&gt;">
<polygon fill="white" stroke="black" points="0,-0.5 0,-38.5 167.699,-38.5 167.699,-0.5 0,-0.5"/>
<text text-anchor="start" x="8" y="-26.5" font-family="Helvetica,sans-Serif" font-size="10.00">ocra::SubjectBase&lt;</text>
<text text-anchor="start" x="8" y="-16.5" font-family="Helvetica,sans-Serif" font-size="10.00"> EVT_CSTR_CHANGE_BOUNDS</text>
<text text-anchor="middle" x="83.8496" y="-6.5" font-family="Helvetica,sans-Serif" font-size="10.00">_NUMBER &gt;</text>
</a>
</g>
</g>
<!-- Node0&#45;&gt;Node1 -->
<g id="edge2" class="edge"><title>Node0&#45;&gt;Node1</title>
<path fill="none" stroke="midnightblue" d="M177.631,-32.2677C187.993,-33.6937 198.382,-35.1234 208.3,-36.4881"/>
<polygon fill="midnightblue" stroke="midnightblue" points="178.104,-28.8 167.721,-30.904 177.15,-35.7347 178.104,-28.8"/>
</g>
</g>
</svg>
