<?xml version="1.0" encoding="UTF-8" standalone="no"?>
<!DOCTYPE svg PUBLIC "-//W3C//DTD SVG 1.1//EN"
 "http://www.w3.org/Graphics/SVG/1.1/DTD/svg11.dtd">
<!-- Generated by graphviz version 2.38.0 (20140413.2041)
 -->
<!-- Title: Constraint.cpp Pages: 1 -->
<svg width="1925pt" height="562pt"
 viewBox="0.00 0.00 1924.69 562.00" xmlns="http://www.w3.org/2000/svg" xmlns:xlink="http://www.w3.org/1999/xlink">
<g id="graph0" class="graph" transform="scale(1 1) rotate(0) translate(4 558)">
<title>Constraint.cpp</title>
<polygon fill="white" stroke="none" points="-4,4 -4,-558 1920.69,-558 1920.69,4 -4,4"/>
<!-- Node0 -->
<g id="node1" class="node"><title>Node0</title>
<polygon fill="#bfbfbf" stroke="black" points="1619.45,-535.5 1619.45,-553.5 1699.93,-553.5 1699.93,-535.5 1619.45,-535.5"/>
<text text-anchor="middle" x="1659.69" y="-541.5" font-family="Helvetica,sans-Serif" font-size="10.00">Constraint.cpp</text>
</g>
<!-- Node1 -->
<g id="node2" class="node"><title>Node1</title>
<g id="a_node2"><a xlink:href="../../d3/dcf/Constraint_8h.html" target="_top" xlink:title="Declaration file of the Constraint class. ">
<polygon fill="white" stroke="black" points="1344,-480.5 1344,-498.5 1463.38,-498.5 1463.38,-480.5 1344,-480.5"/>
<text text-anchor="middle" x="1403.69" y="-486.5" font-family="Helvetica,sans-Serif" font-size="10.00">ocra/optim/Constraint.h</text>
</a>
</g>
</g>
<!-- Node0&#45;&gt;Node1 -->
<g id="edge1" class="edge"><title>Node0&#45;&gt;Node1</title>
<path fill="none" stroke="midnightblue" d="M1620.81,-535.45C1575.75,-526.123 1501.46,-510.742 1452.55,-500.615"/>
<polygon fill="midnightblue" stroke="midnightblue" points="1453.02,-497.138 1442.51,-498.538 1451.6,-503.993 1453.02,-497.138"/>
</g>
<!-- Node21 -->
<g id="node22" class="node"><title>Node21</title>
<polygon fill="white" stroke="#bfbfbf" points="1320.29,-70.5 1320.29,-88.5 1379.09,-88.5 1379.09,-70.5 1320.29,-70.5"/>
<text text-anchor="middle" x="1349.69" y="-76.5" font-family="Helvetica,sans-Serif" font-size="10.00">stdexcept</text>
</g>
<!-- Node0&#45;&gt;Node21 -->
<g id="edge68" class="edge"><title>Node0&#45;&gt;Node21</title>
<path fill="none" stroke="midnightblue" d="M1700.13,-544.043C1772.5,-542.674 1916.69,-528.303 1916.69,-435.5 1916.69,-435.5 1916.69,-435.5 1916.69,-198.5 1916.69,-78.6727 1503.52,-124.685 1387.69,-94 1385.2,-93.3411 1382.64,-92.5932 1380.09,-91.7954"/>
<polygon fill="midnightblue" stroke="midnightblue" points="1380.99,-88.407 1370.4,-88.5539 1378.77,-95.0455 1380.99,-88.407"/>
</g>
<!-- Node2 -->
<g id="node3" class="node"><title>Node2</title>
<g id="a_node3"><a xlink:href="../../d7/d90/Variable_8h.html" target="_top" xlink:title="Declaration file of the Variable class. ">
<polygon fill="white" stroke="black" points="888.81,-190.5 888.81,-208.5 998.564,-208.5 998.564,-190.5 888.81,-190.5"/>
<text text-anchor="middle" x="943.687" y="-196.5" font-family="Helvetica,sans-Serif" font-size="10.00">ocra/optim/Variable.h</text>
</a>
</g>
</g>
<!-- Node1&#45;&gt;Node2 -->
<g id="edge2" class="edge"><title>Node1&#45;&gt;Node2</title>
<path fill="none" stroke="midnightblue" d="M1343.72,-486.032C1253.5,-481.523 1087.73,-469.922 1034.69,-444 996.145,-425.166 966.687,-418.398 966.687,-375.5 966.687,-375.5 966.687,-375.5 966.687,-313.5 966.687,-279.247 956.414,-240.305 949.599,-218.241"/>
<polygon fill="midnightblue" stroke="midnightblue" points="952.896,-217.06 946.507,-208.608 946.23,-219.199 952.896,-217.06"/>
</g>
<!-- Node9 -->
<g id="node10" class="node"><title>Node9</title>
<polygon fill="white" stroke="#bfbfbf" points="536,-0.5 536,-28.5 635.374,-28.5 635.374,-0.5 536,-0.5"/>
<text text-anchor="start" x="544" y="-16.5" font-family="Helvetica,sans-Serif" font-size="10.00">boost/type_traits/is</text>
<text text-anchor="middle" x="585.687" y="-6.5" font-family="Helvetica,sans-Serif" font-size="10.00">_base_of.hpp</text>
</g>
<!-- Node1&#45;&gt;Node9 -->
<g id="edge58" class="edge"><title>Node1&#45;&gt;Node9</title>
<path fill="none" stroke="midnightblue" d="M1343.77,-487.038C1287.79,-483.741 1203,-473.717 1135.69,-444 1090.67,-424.123 1048.69,-424.714 1048.69,-375.5 1048.69,-375.5 1048.69,-375.5 1048.69,-138.5 1048.69,-104.76 1055.33,-86.9336 1029.69,-65 967.249,-11.5852 743.089,-40.1939 661.687,-29 656.377,-28.2697 650.87,-27.4381 645.359,-26.5546"/>
<polygon fill="midnightblue" stroke="midnightblue" points="645.911,-23.0985 635.474,-24.9189 644.768,-30.0046 645.911,-23.0985"/>
</g>
<!-- Node10 -->
<g id="node11" class="node"><title>Node10</title>
<polygon fill="white" stroke="#bfbfbf" points="670.269,-5.5 670.269,-23.5 789.105,-23.5 789.105,-5.5 670.269,-5.5"/>
<text text-anchor="middle" x="729.687" y="-11.5" font-family="Helvetica,sans-Serif" font-size="10.00">boost/static_assert.hpp</text>
</g>
<!-- Node1&#45;&gt;Node10 -->
<g id="edge57" class="edge"><title>Node1&#45;&gt;Node10</title>
<path fill="none" stroke="midnightblue" d="M1348.47,-480.442C1257.65,-465.619 1086.69,-430.421 1086.69,-375.5 1086.69,-375.5 1086.69,-375.5 1086.69,-138.5 1086.69,-104.136 1088.94,-87.174 1062.69,-65 1024.02,-32.3376 885.233,-21.2135 799.511,-17.4345"/>
<polygon fill="midnightblue" stroke="midnightblue" points="799.468,-13.9297 789.331,-17.0091 799.176,-20.9236 799.468,-13.9297"/>
</g>
<!-- Node24 -->
<g id="node25" class="node"><title>Node24</title>
<g id="a_node25"><a xlink:href="../../df/df5/Function_8h.html" target="_top" xlink:title="Declaration file of the Function class. ">
<polygon fill="white" stroke="black" points="1253.61,-250.5 1253.61,-268.5 1365.77,-268.5 1365.77,-250.5 1253.61,-250.5"/>
<text text-anchor="middle" x="1309.69" y="-256.5" font-family="Helvetica,sans-Serif" font-size="10.00">ocra/optim/Function.h</text>
</a>
</g>
</g>
<!-- Node1&#45;&gt;Node24 -->
<g id="edge33" class="edge"><title>Node1&#45;&gt;Node24</title>
<path fill="none" stroke="midnightblue" d="M1368.53,-480.417C1325.84,-468.507 1255.69,-441.711 1224.69,-389 1199.52,-346.22 1255.49,-297.946 1288.2,-274.618"/>
<polygon fill="midnightblue" stroke="midnightblue" points="1290.49,-277.291 1296.73,-268.725 1286.51,-271.534 1290.49,-277.291"/>
</g>
<!-- Node34 -->
<g id="node35" class="node"><title>Node34</title>
<g id="a_node35"><a xlink:href="../../df/d55/FunctionInterfaceMapping_8h.html" target="_top" xlink:title="Declaration file of the FunctionInterfaceMapping struct. ">
<polygon fill="white" stroke="black" points="1233.32,-360.5 1233.32,-388.5 1376.05,-388.5 1376.05,-360.5 1233.32,-360.5"/>
<text text-anchor="start" x="1241.32" y="-376.5" font-family="Helvetica,sans-Serif" font-size="10.00">ocra/optim/FunctionInterface</text>
<text text-anchor="middle" x="1304.69" y="-366.5" font-family="Helvetica,sans-Serif" font-size="10.00">Mapping.h</text>
</a>
</g>
</g>
<!-- Node1&#45;&gt;Node34 -->
<g id="edge53" class="edge"><title>Node1&#45;&gt;Node34</title>
<path fill="none" stroke="midnightblue" d="M1396.57,-480.373C1381.28,-462.93 1344.94,-421.44 1322.81,-396.188"/>
<polygon fill="midnightblue" stroke="midnightblue" points="1325.4,-393.826 1316.17,-388.611 1320.13,-398.439 1325.4,-393.826"/>
</g>
<!-- Node35 -->
<g id="node36" class="node"><title>Node35</title>
<g id="a_node36"><a xlink:href="../../df/d0a/Macros_8h.html" target="_top" xlink:title="ocra/util/Macros.h">
<polygon fill="white" stroke="black" points="1454.23,-250.5 1454.23,-268.5 1549.15,-268.5 1549.15,-250.5 1454.23,-250.5"/>
<text text-anchor="middle" x="1501.69" y="-256.5" font-family="Helvetica,sans-Serif" font-size="10.00">ocra/util/Macros.h</text>
</a>
</g>
</g>
<!-- Node1&#45;&gt;Node35 -->
<g id="edge55" class="edge"><title>Node1&#45;&gt;Node35</title>
<path fill="none" stroke="midnightblue" d="M1402.09,-480.318C1397.19,-452.873 1384.92,-362.58 1422.69,-305 1432.55,-289.957 1449.35,-279.477 1464.93,-272.483"/>
<polygon fill="midnightblue" stroke="midnightblue" points="1466.5,-275.624 1474.4,-268.57 1463.82,-269.155 1466.5,-275.624"/>
</g>
<!-- Node37 -->
<g id="node38" class="node"><title>Node37</title>
<g id="a_node38"><a xlink:href="../../dc/d8a/LinearFunction_8h.html" target="_top" xlink:title="Declaration file of the LinearFunction class. ">
<polygon fill="white" stroke="black" points="1431.71,-305.5 1431.71,-323.5 1571.66,-323.5 1571.66,-305.5 1431.71,-305.5"/>
<text text-anchor="middle" x="1501.69" y="-311.5" font-family="Helvetica,sans-Serif" font-size="10.00">ocra/optim/LinearFunction.h</text>
</a>
</g>
</g>
<!-- Node1&#45;&gt;Node37 -->
<g id="edge59" class="edge"><title>Node1&#45;&gt;Node37</title>
<path fill="none" stroke="midnightblue" d="M1408.41,-480.156C1423.58,-453.38 1471.24,-369.249 1491.94,-332.715"/>
<polygon fill="midnightblue" stroke="midnightblue" points="1495.12,-334.186 1497.01,-323.76 1489.03,-330.736 1495.12,-334.186"/>
</g>
<!-- Node38 -->
<g id="node39" class="node"><title>Node38</title>
<g id="a_node39"><a xlink:href="../../de/d69/BoundFunction_8h.html" target="_top" xlink:title="Declaration file of the BoundFunction class. ">
<polygon fill="white" stroke="black" points="1470.15,-425.5 1470.15,-443.5 1611.22,-443.5 1611.22,-425.5 1470.15,-425.5"/>
<text text-anchor="middle" x="1540.69" y="-431.5" font-family="Helvetica,sans-Serif" font-size="10.00">ocra/optim/BoundFunction.h</text>
</a>
</g>
</g>
<!-- Node1&#45;&gt;Node38 -->
<g id="edge62" class="edge"><title>Node1&#45;&gt;Node38</title>
<path fill="none" stroke="midnightblue" d="M1424.49,-480.45C1447.33,-471.617 1484.19,-457.355 1510.27,-447.267"/>
<polygon fill="midnightblue" stroke="midnightblue" points="1511.62,-450.498 1519.68,-443.625 1509.09,-443.969 1511.62,-450.498"/>
</g>
<!-- Node39 -->
<g id="node40" class="node"><title>Node39</title>
<g id="a_node40"><a xlink:href="../../dc/d6f/DiagonalLinearFunction_8h.html" target="_top" xlink:title="Declaration file of the DiagonalLinearFunction class. ">
<polygon fill="white" stroke="black" points="1524.32,-360.5 1524.32,-388.5 1657.05,-388.5 1657.05,-360.5 1524.32,-360.5"/>
<text text-anchor="start" x="1532.32" y="-376.5" font-family="Helvetica,sans-Serif" font-size="10.00">ocra/optim/DiagonalLinear</text>
<text text-anchor="middle" x="1590.69" y="-366.5" font-family="Helvetica,sans-Serif" font-size="10.00">Function.h</text>
</a>
</g>
</g>
<!-- Node1&#45;&gt;Node39 -->
<g id="edge67" class="edge"><title>Node1&#45;&gt;Node39</title>
<path fill="none" stroke="midnightblue" d="M1463.61,-484.526C1520.84,-479.334 1601.18,-467.915 1620.69,-444 1632.07,-430.04 1622.3,-411.087 1610.96,-396.656"/>
<polygon fill="midnightblue" stroke="midnightblue" points="1613.39,-394.112 1604.25,-388.754 1608.06,-398.642 1613.39,-394.112"/>
</g>
<!-- Node40 -->
<g id="node41" class="node"><title>Node40</title>
<g id="a_node41"><a xlink:href="../../de/d7a/IdentityFunction_8h.html" target="_top" xlink:title="Declaration file of the IdentityFunction class. ">
<polygon fill="white" stroke="black" points="1667.49,-425.5 1667.49,-443.5 1811.89,-443.5 1811.89,-425.5 1667.49,-425.5"/>
<text text-anchor="middle" x="1739.69" y="-431.5" font-family="Helvetica,sans-Serif" font-size="10.00">ocra/optim/IdentityFunction.h</text>
</a>
</g>
</g>
<!-- Node1&#45;&gt;Node40 -->
<g id="edge65" class="edge"><title>Node1&#45;&gt;Node40</title>
<path fill="none" stroke="midnightblue" d="M1454.72,-480.45C1514.84,-470.967 1614.63,-455.226 1678.75,-445.111"/>
<polygon fill="midnightblue" stroke="midnightblue" points="1679.39,-448.554 1688.73,-443.538 1678.3,-441.639 1679.39,-448.554"/>
</g>
<!-- Node3 -->
<g id="node4" class="node"><title>Node3</title>
<g id="a_node4"><a xlink:href="../../d8/ddc/ObserverSubject_8h.html" target="_top" xlink:title="Declaration file of the Observer, Subject and ObserverSubject classes. ">
<polygon fill="white" stroke="black" points="255.547,-130.5 255.547,-148.5 403.827,-148.5 403.827,-130.5 255.547,-130.5"/>
<text text-anchor="middle" x="329.687" y="-136.5" font-family="Helvetica,sans-Serif" font-size="10.00">ocra/optim/ObserverSubject.h</text>
</a>
</g>
</g>
<!-- Node2&#45;&gt;Node3 -->
<g id="edge3" class="edge"><title>Node2&#45;&gt;Node3</title>
<path fill="none" stroke="midnightblue" d="M888.658,-193.302C781.044,-183.136 542.106,-160.566 414.262,-148.489"/>
<polygon fill="midnightblue" stroke="midnightblue" points="414.409,-144.988 404.124,-147.532 413.751,-151.957 414.409,-144.988"/>
</g>
<!-- Node14 -->
<g id="node15" class="node"><title>Node14</title>
<g id="a_node15"><a xlink:href="../../d1/de6/Composite_8h.html" target="_top" xlink:title="Utility classes and functions to implement the Composite design pattern. ">
<polygon fill="white" stroke="black" points="772.887,-130.5 772.887,-148.5 894.487,-148.5 894.487,-130.5 772.887,-130.5"/>
<text text-anchor="middle" x="833.687" y="-136.5" font-family="Helvetica,sans-Serif" font-size="10.00">ocra/optim/Composite.h</text>
</a>
</g>
</g>
<!-- Node2&#45;&gt;Node14 -->
<g id="edge17" class="edge"><title>Node2&#45;&gt;Node14</title>
<path fill="none" stroke="midnightblue" d="M928.392,-190.435C910.188,-180.837 879.559,-164.687 858.074,-153.359"/>
<polygon fill="midnightblue" stroke="midnightblue" points="859.685,-150.251 849.207,-148.683 856.42,-156.443 859.685,-150.251"/>
</g>
<!-- Node17 -->
<g id="node18" class="node"><title>Node17</title>
<polygon fill="white" stroke="#bfbfbf" points="574.978,-70.5 574.978,-88.5 694.396,-88.5 694.396,-70.5 574.978,-70.5"/>
<text text-anchor="middle" x="634.687" y="-76.5" font-family="Helvetica,sans-Serif" font-size="10.00">boost/noncopyable.hpp</text>
</g>
<!-- Node2&#45;&gt;Node17 -->
<g id="edge30" class="edge"><title>Node2&#45;&gt;Node17</title>
<path fill="none" stroke="midnightblue" d="M904.965,-190.448C867.961,-182.152 810.974,-167.791 763.687,-149 724.403,-133.389 681.58,-109.063 656.485,-93.991"/>
<polygon fill="midnightblue" stroke="midnightblue" points="658.144,-90.9035 647.78,-88.7053 654.511,-96.887 658.144,-90.9035"/>
</g>
<!-- Node19 -->
<g id="node20" class="node"><title>Node19</title>
<polygon fill="white" stroke="#bfbfbf" points="1259.07,-70.5 1259.07,-88.5 1302.3,-88.5 1302.3,-70.5 1259.07,-70.5"/>
<text text-anchor="middle" x="1280.69" y="-76.5" font-family="Helvetica,sans-Serif" font-size="10.00">vector</text>
</g>
<!-- Node2&#45;&gt;Node19 -->
<g id="edge32" class="edge"><title>Node2&#45;&gt;Node19</title>
<path fill="none" stroke="midnightblue" d="M940.191,-190.105C934.866,-175.819 926.817,-146.709 941.687,-130 987.498,-78.5222 1183.16,-111.951 1249.69,-94 1251.4,-93.5374 1253.14,-92.9957 1254.88,-92.3999"/>
<polygon fill="midnightblue" stroke="midnightblue" points="1256.58,-95.4934 1264.6,-88.5725 1254.01,-88.9803 1256.58,-95.4934"/>
</g>
<!-- Node22 -->
<g id="node23" class="node"><title>Node22</title>
<polygon fill="white" stroke="#bfbfbf" points="950.722,-130.5 950.722,-148.5 1020.65,-148.5 1020.65,-130.5 950.722,-130.5"/>
<text text-anchor="middle" x="985.687" y="-136.5" font-family="Helvetica,sans-Serif" font-size="10.00">Eigen/Eigen</text>
</g>
<!-- Node2&#45;&gt;Node22 -->
<g id="edge29" class="edge"><title>Node2&#45;&gt;Node22</title>
<path fill="none" stroke="midnightblue" d="M949.527,-190.435C955.725,-181.876 965.697,-168.105 973.6,-157.191"/>
<polygon fill="midnightblue" stroke="midnightblue" points="976.594,-159.024 979.625,-148.872 970.925,-154.918 976.594,-159.024"/>
</g>
<!-- Node23 -->
<g id="node24" class="node"><title>Node23</title>
<polygon fill="white" stroke="#bfbfbf" points="1205.46,-130.5 1205.46,-148.5 1245.91,-148.5 1245.91,-130.5 1205.46,-130.5"/>
<text text-anchor="middle" x="1225.69" y="-136.5" font-family="Helvetica,sans-Serif" font-size="10.00">string</text>
</g>
<!-- Node2&#45;&gt;Node23 -->
<g id="edge31" class="edge"><title>Node2&#45;&gt;Node23</title>
<path fill="none" stroke="midnightblue" d="M982.602,-190.496C1039.43,-178.809 1143.93,-157.315 1195.41,-146.728"/>
<polygon fill="midnightblue" stroke="midnightblue" points="1196.17,-150.145 1205.26,-144.702 1194.76,-143.288 1196.17,-150.145"/>
</g>
<!-- Node4 -->
<g id="node5" class="node"><title>Node4</title>
<g id="a_node5"><a xlink:href="../../df/d67/ObserverSubjectBase_8h.html" target="_top" xlink:title="Declaration file of the Observer and Subject base classes. ">
<polygon fill="white" stroke="black" points="77.7168,-65.5 77.7168,-93.5 217.657,-93.5 217.657,-65.5 77.7168,-65.5"/>
<text text-anchor="start" x="85.7168" y="-81.5" font-family="Helvetica,sans-Serif" font-size="10.00">ocra/optim/ObserverSubject</text>
<text text-anchor="middle" x="147.687" y="-71.5" font-family="Helvetica,sans-Serif" font-size="10.00">Base.h</text>
</a>
</g>
</g>
<!-- Node3&#45;&gt;Node4 -->
<g id="edge4" class="edge"><title>Node3&#45;&gt;Node4</title>
<path fill="none" stroke="midnightblue" d="M304.381,-130.435C277.089,-121.738 232.918,-107.661 198.418,-96.6671"/>
<polygon fill="midnightblue" stroke="midnightblue" points="199.101,-93.2112 188.51,-93.5096 196.975,-99.8807 199.101,-93.2112"/>
</g>
<!-- Node8 -->
<g id="node9" class="node"><title>Node8</title>
<polygon fill="white" stroke="#bfbfbf" points="0,-0.5 0,-28.5 99.374,-28.5 99.374,-0.5 0,-0.5"/>
<text text-anchor="start" x="8" y="-16.5" font-family="Helvetica,sans-Serif" font-size="10.00">boost/type_traits/is</text>
<text text-anchor="middle" x="49.687" y="-6.5" font-family="Helvetica,sans-Serif" font-size="10.00">_class.hpp</text>
</g>
<!-- Node3&#45;&gt;Node8 -->
<g id="edge16" class="edge"><title>Node3&#45;&gt;Node8</title>
<path fill="none" stroke="midnightblue" d="M255.254,-134.777C187.84,-129.854 95.1459,-118.703 68.687,-94 53.7488,-80.0529 49.6616,-56.5417 48.9118,-38.8776"/>
<polygon fill="midnightblue" stroke="midnightblue" points="52.4106,-38.7365 48.809,-28.7727 45.411,-38.8078 52.4106,-38.7365"/>
</g>
<!-- Node3&#45;&gt;Node9 -->
<g id="edge14" class="edge"><title>Node3&#45;&gt;Node9</title>
<path fill="none" stroke="midnightblue" d="M310.979,-130.429C296.77,-123.174 278.258,-111.029 269.687,-94 263.892,-82.4873 261.308,-74.7937 269.687,-65 271.767,-62.5693 434.7,-37.9729 525.756,-24.3932"/>
<polygon fill="midnightblue" stroke="midnightblue" points="526.306,-27.85 535.681,-22.9142 525.274,-20.9264 526.306,-27.85"/>
</g>
<!-- Node3&#45;&gt;Node10 -->
<g id="edge13" class="edge"><title>Node3&#45;&gt;Node10</title>
<path fill="none" stroke="midnightblue" d="M321.783,-130.191C308.649,-115.385 285.406,-84.196 302.687,-65 353.817,-8.20493 568.924,-38.997 644.687,-29 653.513,-27.8355 662.834,-26.4818 671.943,-25.0901"/>
<polygon fill="midnightblue" stroke="midnightblue" points="672.755,-28.5059 682.098,-23.5107 671.679,-21.589 672.755,-28.5059"/>
</g>
<!-- Node12 -->
<g id="node13" class="node"><title>Node12</title>
<g id="a_node13"><a xlink:href="../../db/ddf/ocra__events_8h.html" target="_top" xlink:title="ocra/optim/ocra_events.h">
<polygon fill="white" stroke="black" points="311.547,-70.5 311.547,-88.5 439.827,-88.5 439.827,-70.5 311.547,-70.5"/>
<text text-anchor="middle" x="375.687" y="-76.5" font-family="Helvetica,sans-Serif" font-size="10.00">ocra/optim/ocra_events.h</text>
</a>
</g>
</g>
<!-- Node3&#45;&gt;Node12 -->
<g id="edge12" class="edge"><title>Node3&#45;&gt;Node12</title>
<path fill="none" stroke="midnightblue" d="M336.083,-130.435C342.94,-121.79 354.012,-107.829 362.708,-96.8643"/>
<polygon fill="midnightblue" stroke="midnightblue" points="365.576,-98.8816 369.047,-88.8718 360.091,-94.5319 365.576,-98.8816"/>
</g>
<!-- Node13 -->
<g id="node14" class="node"><title>Node13</title>
<polygon fill="white" stroke="#bfbfbf" points="458,-65.5 458,-93.5 557.374,-93.5 557.374,-65.5 458,-65.5"/>
<text text-anchor="start" x="466" y="-81.5" font-family="Helvetica,sans-Serif" font-size="10.00">boost/type_traits/is</text>
<text text-anchor="middle" x="507.687" y="-71.5" font-family="Helvetica,sans-Serif" font-size="10.00">_convertible.hpp</text>
</g>
<!-- Node3&#45;&gt;Node13 -->
<g id="edge15" class="edge"><title>Node3&#45;&gt;Node13</title>
<path fill="none" stroke="midnightblue" d="M354.437,-130.435C381.129,-121.738 424.33,-107.661 458.071,-96.6671"/>
<polygon fill="midnightblue" stroke="midnightblue" points="459.337,-99.9355 467.761,-93.5096 457.169,-93.2799 459.337,-99.9355"/>
</g>
<!-- Node5 -->
<g id="node6" class="node"><title>Node5</title>
<polygon fill="white" stroke="#bfbfbf" points="117.283,-5.5 117.283,-23.5 176.091,-23.5 176.091,-5.5 117.283,-5.5"/>
<text text-anchor="middle" x="146.687" y="-11.5" font-family="Helvetica,sans-Serif" font-size="10.00">functional</text>
</g>
<!-- Node4&#45;&gt;Node5 -->
<g id="edge5" class="edge"><title>Node4&#45;&gt;Node5</title>
<path fill="none" stroke="midnightblue" d="M147.48,-65.4464C147.335,-56.3336 147.14,-44.0406 146.98,-33.9308"/>
<polygon fill="midnightblue" stroke="midnightblue" points="150.476,-33.6732 146.818,-23.7301 143.477,-33.7844 150.476,-33.6732"/>
</g>
<!-- Node6 -->
<g id="node7" class="node"><title>Node6</title>
<polygon fill="white" stroke="#bfbfbf" points="427.123,-5.5 427.123,-23.5 484.251,-23.5 484.251,-5.5 427.123,-5.5"/>
<text text-anchor="middle" x="455.687" y="-11.5" font-family="Helvetica,sans-Serif" font-size="10.00">algorithm</text>
</g>
<!-- Node4&#45;&gt;Node6 -->
<g id="edge6" class="edge"><title>Node4&#45;&gt;Node6</title>
<path fill="none" stroke="midnightblue" d="M217.673,-65.7312C268.569,-56.2207 339.06,-42.584 400.687,-29 406.028,-27.8227 411.644,-26.5197 417.165,-25.2012"/>
<polygon fill="midnightblue" stroke="midnightblue" points="418.024,-28.5942 426.917,-22.8348 416.374,-21.7916 418.024,-28.5942"/>
</g>
<!-- Node7 -->
<g id="node8" class="node"><title>Node7</title>
<polygon fill="white" stroke="#bfbfbf" points="193.642,-5.5 193.642,-23.5 271.732,-23.5 271.732,-5.5 193.642,-5.5"/>
<text text-anchor="middle" x="232.687" y="-11.5" font-family="Helvetica,sans-Serif" font-size="10.00">boost/any.hpp</text>
</g>
<!-- Node4&#45;&gt;Node7 -->
<g id="edge7" class="edge"><title>Node4&#45;&gt;Node7</title>
<path fill="none" stroke="midnightblue" d="M165.299,-65.4464C179.313,-55.0597 198.901,-40.5418 213.348,-29.8339"/>
<polygon fill="midnightblue" stroke="midnightblue" points="215.633,-32.4965 221.583,-23.7301 211.465,-26.8728 215.633,-32.4965"/>
</g>
<!-- Node4&#45;&gt;Node8 -->
<g id="edge8" class="edge"><title>Node4&#45;&gt;Node8</title>
<path fill="none" stroke="midnightblue" d="M127.381,-65.4464C113.322,-56.4079 94.3952,-44.241 78.7427,-34.1787"/>
<polygon fill="midnightblue" stroke="midnightblue" points="80.2711,-31.0004 69.9667,-28.5369 76.4858,-36.8887 80.2711,-31.0004"/>
</g>
<!-- Node4&#45;&gt;Node9 -->
<g id="edge9" class="edge"><title>Node4&#45;&gt;Node9</title>
<path fill="none" stroke="midnightblue" d="M217.795,-67.1101C222.494,-66.3844 227.158,-65.675 231.687,-65 347.941,-47.6735 377.317,-45.5326 493.687,-29 503.982,-27.5374 514.921,-25.9561 525.528,-24.4085"/>
<polygon fill="midnightblue" stroke="midnightblue" points="526.176,-27.851 535.564,-22.9399 525.163,-20.9248 526.176,-27.851"/>
</g>
<!-- Node4&#45;&gt;Node10 -->
<g id="edge10" class="edge"><title>Node4&#45;&gt;Node10</title>
<path fill="none" stroke="midnightblue" d="M217.667,-70.5801C234.685,-68.7028 252.835,-66.7411 269.687,-65 436.233,-47.792 478.594,-50.1416 644.687,-29 653.722,-27.85 663.273,-26.4823 672.582,-25.0658"/>
<polygon fill="midnightblue" stroke="midnightblue" points="673.209,-28.5105 682.553,-23.5175 672.135,-21.5934 673.209,-28.5105"/>
</g>
<!-- Node11 -->
<g id="node12" class="node"><title>Node11</title>
<polygon fill="white" stroke="#bfbfbf" points="289.882,-0.5 289.882,-28.5 391.492,-28.5 391.492,-0.5 289.882,-0.5"/>
<text text-anchor="start" x="297.882" y="-16.5" font-family="Helvetica,sans-Serif" font-size="10.00">boost/ptr_container</text>
<text text-anchor="middle" x="340.687" y="-6.5" font-family="Helvetica,sans-Serif" font-size="10.00">/ptr_vector.hpp</text>
</g>
<!-- Node4&#45;&gt;Node11 -->
<g id="edge11" class="edge"><title>Node4&#45;&gt;Node11</title>
<path fill="none" stroke="midnightblue" d="M187.677,-65.4464C217.695,-55.6477 258.977,-42.1721 291.097,-31.6874"/>
<polygon fill="midnightblue" stroke="midnightblue" points="292.328,-34.9673 300.749,-28.5369 290.156,-28.3129 292.328,-34.9673"/>
</g>
<!-- Node14&#45;&gt;Node6 -->
<g id="edge26" class="edge"><title>Node14&#45;&gt;Node6</title>
<path fill="none" stroke="midnightblue" d="M811.555,-130.485C791.256,-122.647 760.779,-109.631 736.687,-94 720.307,-83.3726 721.191,-73.6505 703.687,-65 698.984,-62.6757 562.986,-36.215 494.424,-22.9653"/>
<polygon fill="midnightblue" stroke="midnightblue" points="494.907,-19.4941 484.425,-21.0343 493.58,-26.3671 494.907,-19.4941"/>
</g>
<!-- Node14&#45;&gt;Node9 -->
<g id="edge22" class="edge"><title>Node14&#45;&gt;Node9</title>
<path fill="none" stroke="midnightblue" d="M822.799,-130.317C810.949,-121.404 791.45,-106.718 774.687,-94 757.762,-81.159 755.489,-74.8919 736.687,-65 708.077,-49.9476 674.019,-38.3037 645.497,-30.1018"/>
<polygon fill="midnightblue" stroke="midnightblue" points="646.23,-26.6726 635.657,-27.3443 644.341,-33.4129 646.23,-26.6726"/>
</g>
<!-- Node14&#45;&gt;Node10 -->
<g id="edge21" class="edge"><title>Node14&#45;&gt;Node10</title>
<path fill="none" stroke="midnightblue" d="M827.3,-130.209C816.645,-116.454 794.459,-88.1382 774.687,-65 764.883,-53.5271 753.439,-40.9483 744.544,-31.3419"/>
<polygon fill="midnightblue" stroke="midnightblue" points="746.867,-28.7001 737.49,-23.7677 741.744,-33.4709 746.867,-28.7001"/>
</g>
<!-- Node14&#45;&gt;Node13 -->
<g id="edge23" class="edge"><title>Node14&#45;&gt;Node13</title>
<path fill="none" stroke="midnightblue" d="M779.092,-130.485C727.032,-122.605 646.201,-109.758 567.689,-94.3322"/>
<polygon fill="midnightblue" stroke="midnightblue" points="568.119,-90.8496 557.63,-92.3389 566.759,-97.716 568.119,-90.8496"/>
</g>
<!-- Node15 -->
<g id="node16" class="node"><title>Node15</title>
<g id="a_node16"><a xlink:href="../../de/df3/ocra__assert_8h.html" target="_top" xlink:title="ocra/optim/ocra_assert.h">
<polygon fill="white" stroke="black" points="1114.66,-70.5 1114.66,-88.5 1240.71,-88.5 1240.71,-70.5 1114.66,-70.5"/>
<text text-anchor="middle" x="1177.69" y="-76.5" font-family="Helvetica,sans-Serif" font-size="10.00">ocra/optim/ocra_assert.h</text>
</a>
</g>
</g>
<!-- Node14&#45;&gt;Node15 -->
<g id="edge18" class="edge"><title>Node14&#45;&gt;Node15</title>
<path fill="none" stroke="midnightblue" d="M881.158,-130.496C943.569,-119.973 1053.13,-101.501 1120.17,-90.1969"/>
<polygon fill="midnightblue" stroke="midnightblue" points="1120.87,-93.6286 1130.15,-88.5147 1119.71,-86.7261 1120.87,-93.6286"/>
</g>
<!-- Node14&#45;&gt;Node17 -->
<g id="edge20" class="edge"><title>Node14&#45;&gt;Node17</title>
<path fill="none" stroke="midnightblue" d="M806.017,-130.435C771.214,-120.292 711.307,-102.831 672.351,-91.4774"/>
<polygon fill="midnightblue" stroke="midnightblue" points="673.022,-88.0275 662.442,-88.5894 671.063,-94.7478 673.022,-88.0275"/>
</g>
<!-- Node18 -->
<g id="node19" class="node"><title>Node18</title>
<polygon fill="white" stroke="#bfbfbf" points="827.148,-65.5 827.148,-93.5 958.226,-93.5 958.226,-65.5 827.148,-65.5"/>
<text text-anchor="start" x="835.148" y="-81.5" font-family="Helvetica,sans-Serif" font-size="10.00">boost/type_traits/has</text>
<text text-anchor="middle" x="892.687" y="-71.5" font-family="Helvetica,sans-Serif" font-size="10.00">_nothrow_constructor.hpp</text>
</g>
<!-- Node14&#45;&gt;Node18 -->
<g id="edge24" class="edge"><title>Node14&#45;&gt;Node18</title>
<path fill="none" stroke="midnightblue" d="M841.891,-130.435C849.636,-122.821 861.576,-111.084 871.934,-100.901"/>
<polygon fill="midnightblue" stroke="midnightblue" points="874.437,-103.349 879.114,-93.8428 869.529,-98.3572 874.437,-103.349"/>
</g>
<!-- Node14&#45;&gt;Node19 -->
<g id="edge25" class="edge"><title>Node14&#45;&gt;Node19</title>
<path fill="none" stroke="midnightblue" d="M894.671,-131.549C899.413,-131.02 904.128,-130.499 908.687,-130 1060.18,-113.419 1102.33,-132.876 1249.69,-94 1251.4,-93.547 1253.15,-93.0126 1254.89,-92.4223"/>
<polygon fill="midnightblue" stroke="midnightblue" points="1256.58,-95.5186 1264.61,-88.6085 1254.02,-89.0021 1256.58,-95.5186"/>
</g>
<!-- Node20 -->
<g id="node21" class="node"><title>Node20</title>
<polygon fill="white" stroke="#bfbfbf" points="976.515,-70.5 976.515,-88.5 1020.86,-88.5 1020.86,-70.5 976.515,-70.5"/>
<text text-anchor="middle" x="998.687" y="-76.5" font-family="Helvetica,sans-Serif" font-size="10.00">iosfwd</text>
</g>
<!-- Node14&#45;&gt;Node20 -->
<g id="edge27" class="edge"><title>Node14&#45;&gt;Node20</title>
<path fill="none" stroke="midnightblue" d="M860.124,-130.494C887.332,-122.075 930.83,-108.112 967.687,-94 968.89,-93.5395 970.114,-93.0588 971.347,-92.5648"/>
<polygon fill="midnightblue" stroke="midnightblue" points="972.89,-95.7132 980.769,-88.6293 970.192,-89.2541 972.89,-95.7132"/>
</g>
<!-- Node14&#45;&gt;Node21 -->
<g id="edge28" class="edge"><title>Node14&#45;&gt;Node21</title>
<path fill="none" stroke="midnightblue" d="M894.494,-133.689C1014.12,-124.099 1271.91,-102.774 1311.69,-94 1314.51,-93.378 1317.41,-92.6059 1320.28,-91.7482"/>
<polygon fill="midnightblue" stroke="midnightblue" points="1321.44,-95.0513 1329.84,-88.5966 1319.25,-88.4032 1321.44,-95.0513"/>
</g>
<!-- Node16 -->
<g id="node17" class="node"><title>Node16</title>
<polygon fill="white" stroke="#bfbfbf" points="1156.63,-5.5 1156.63,-23.5 1198.75,-23.5 1198.75,-5.5 1156.63,-5.5"/>
<text text-anchor="middle" x="1177.69" y="-11.5" font-family="Helvetica,sans-Serif" font-size="10.00">cstdio</text>
</g>
<!-- Node15&#45;&gt;Node16 -->
<g id="edge19" class="edge"><title>Node15&#45;&gt;Node16</title>
<path fill="none" stroke="midnightblue" d="M1177.69,-70.2639C1177.69,-61.0635 1177.69,-45.881 1177.69,-33.8326"/>
<polygon fill="midnightblue" stroke="midnightblue" points="1181.19,-33.5389 1177.69,-23.539 1174.19,-33.539 1181.19,-33.5389"/>
</g>
<!-- Node24&#45;&gt;Node2 -->
<g id="edge49" class="edge"><title>Node24&#45;&gt;Node2</title>
<path fill="none" stroke="midnightblue" d="M1259.18,-250.496C1192.64,-239.952 1075.73,-221.425 1004.44,-210.127"/>
<polygon fill="midnightblue" stroke="midnightblue" points="1004.69,-206.623 994.262,-208.515 1003.59,-213.537 1004.69,-206.623"/>
</g>
<!-- Node24&#45;&gt;Node3 -->
<g id="edge50" class="edge"><title>Node24&#45;&gt;Node3</title>
<path fill="none" stroke="midnightblue" d="M1279.33,-250.401C1213.81,-233.037 1060.76,-193.137 1007.69,-185 795.68,-152.494 542.804,-143.715 414.065,-141.356"/>
<polygon fill="midnightblue" stroke="midnightblue" points="413.942,-137.853 403.882,-141.178 413.819,-144.852 413.942,-137.853"/>
</g>
<!-- Node25 -->
<g id="node26" class="node"><title>Node25</title>
<g id="a_node26"><a xlink:href="../../de/d94/IFunction_8h.html" target="_top" xlink:title="Declaration file of the IFunction interface. ">
<polygon fill="white" stroke="black" points="1339.22,-130.5 1339.22,-148.5 1454.15,-148.5 1454.15,-130.5 1339.22,-130.5"/>
<text text-anchor="middle" x="1396.69" y="-136.5" font-family="Helvetica,sans-Serif" font-size="10.00">ocra/optim/IFunction.h</text>
</a>
</g>
</g>
<!-- Node24&#45;&gt;Node25 -->
<g id="edge34" class="edge"><title>Node24&#45;&gt;Node25</title>
<path fill="none" stroke="midnightblue" d="M1366.08,-256.89C1397.86,-252.725 1435.18,-241.682 1455.69,-214 1463.36,-203.642 1461.44,-196.536 1455.69,-185 1448.94,-171.457 1435.89,-160.948 1423.77,-153.551"/>
<polygon fill="midnightblue" stroke="midnightblue" points="1425.24,-150.361 1414.81,-148.503 1421.8,-156.46 1425.24,-150.361"/>
</g>
<!-- Node30 -->
<g id="node31" class="node"><title>Node30</title>
<g id="a_node31"><a xlink:href="../../d9/d54/IFunctionProperties_8h.html" target="_top" xlink:title="ocra/optim/IFunctionProperties.h">
<polygon fill="white" stroke="black" points="1152.43,-190.5 1152.43,-208.5 1312.94,-208.5 1312.94,-190.5 1152.43,-190.5"/>
<text text-anchor="middle" x="1232.69" y="-196.5" font-family="Helvetica,sans-Serif" font-size="10.00">ocra/optim/IFunctionProperties.h</text>
</a>
</g>
</g>
<!-- Node24&#45;&gt;Node30 -->
<g id="edge42" class="edge"><title>Node24&#45;&gt;Node30</title>
<path fill="none" stroke="midnightblue" d="M1298.98,-250.435C1286.82,-241.276 1266.74,-226.152 1251.86,-214.944"/>
<polygon fill="midnightblue" stroke="midnightblue" points="1253.89,-212.093 1243.8,-208.872 1249.68,-217.684 1253.89,-212.093"/>
</g>
<!-- Node31 -->
<g id="node32" class="node"><title>Node31</title>
<g id="a_node32"><a xlink:href="../../db/d47/AbilitySet_8h.html" target="_top" xlink:title="ocra/optim/AbilitySet.h">
<polygon fill="white" stroke="black" points="1330.94,-190.5 1330.94,-208.5 1446.43,-208.5 1446.43,-190.5 1330.94,-190.5"/>
<text text-anchor="middle" x="1388.69" y="-196.5" font-family="Helvetica,sans-Serif" font-size="10.00">ocra/optim/AbilitySet.h</text>
</a>
</g>
</g>
<!-- Node24&#45;&gt;Node31 -->
<g id="edge45" class="edge"><title>Node24&#45;&gt;Node31</title>
<path fill="none" stroke="midnightblue" d="M1320.67,-250.435C1333.22,-241.224 1353.98,-225.98 1369.27,-214.753"/>
<polygon fill="midnightblue" stroke="midnightblue" points="1371.55,-217.423 1377.54,-208.683 1367.41,-211.78 1371.55,-217.423"/>
</g>
<!-- Node32 -->
<g id="node33" class="node"><title>Node32</title>
<g id="a_node33"><a xlink:href="../../d1/d87/CoupledInputOutputSize_8h.html" target="_top" xlink:title="ocra/optim/CoupledInputOutput\lSize.h">
<polygon fill="white" stroke="black" points="1502.2,-185.5 1502.2,-213.5 1657.17,-213.5 1657.17,-185.5 1502.2,-185.5"/>
<text text-anchor="start" x="1510.2" y="-201.5" font-family="Helvetica,sans-Serif" font-size="10.00">ocra/optim/CoupledInputOutput</text>
<text text-anchor="middle" x="1579.69" y="-191.5" font-family="Helvetica,sans-Serif" font-size="10.00">Size.h</text>
</a>
</g>
</g>
<!-- Node24&#45;&gt;Node32 -->
<g id="edge48" class="edge"><title>Node24&#45;&gt;Node32</title>
<path fill="none" stroke="midnightblue" d="M1346.95,-250.496C1388.67,-241.534 1457.24,-226.804 1509.17,-215.648"/>
<polygon fill="midnightblue" stroke="midnightblue" points="1509.95,-219.061 1518.99,-213.538 1508.48,-212.217 1509.95,-219.061"/>
</g>
<!-- Node33 -->
<g id="node34" class="node"><title>Node33</title>
<g id="a_node34"><a xlink:href="../../df/d97/NamedInstance_8h.html" target="_top" xlink:title="ocra/optim/NamedInstance.h">
<polygon fill="white" stroke="black" points="1674.77,-190.5 1674.77,-208.5 1818.61,-208.5 1818.61,-190.5 1674.77,-190.5"/>
<text text-anchor="middle" x="1746.69" y="-196.5" font-family="Helvetica,sans-Serif" font-size="10.00">ocra/optim/NamedInstance.h</text>
</a>
</g>
</g>
<!-- Node24&#45;&gt;Node33 -->
<g id="edge51" class="edge"><title>Node24&#45;&gt;Node33</title>
<path fill="none" stroke="midnightblue" d="M1365.89,-252.192C1436.13,-244.144 1559.98,-229.409 1665.69,-214 1673.71,-212.83 1682.17,-211.514 1690.47,-210.174"/>
<polygon fill="midnightblue" stroke="midnightblue" points="1691.17,-213.605 1700.48,-208.536 1690.04,-206.697 1691.17,-213.605"/>
</g>
<!-- Node25&#45;&gt;Node15 -->
<g id="edge38" class="edge"><title>Node25&#45;&gt;Node15</title>
<path fill="none" stroke="midnightblue" d="M1366.24,-130.435C1327.61,-120.206 1260.88,-102.534 1218.05,-91.1888"/>
<polygon fill="midnightblue" stroke="midnightblue" points="1218.79,-87.7663 1208.23,-88.5894 1217,-94.533 1218.79,-87.7663"/>
</g>
<!-- Node25&#45;&gt;Node19 -->
<g id="edge40" class="edge"><title>Node25&#45;&gt;Node19</title>
<path fill="none" stroke="midnightblue" d="M1380.56,-130.435C1361.27,-120.794 1328.77,-104.542 1306.1,-93.2065"/>
<polygon fill="midnightblue" stroke="midnightblue" points="1307.56,-90.0248 1297.05,-88.6831 1304.43,-96.2858 1307.56,-90.0248"/>
</g>
<!-- Node25&#45;&gt;Node21 -->
<g id="edge41" class="edge"><title>Node25&#45;&gt;Node21</title>
<path fill="none" stroke="midnightblue" d="M1390.15,-130.435C1383.15,-121.79 1371.83,-107.829 1362.95,-96.8643"/>
<polygon fill="midnightblue" stroke="midnightblue" points="1365.49,-94.4376 1356.47,-88.8718 1360.05,-98.8447 1365.49,-94.4376"/>
</g>
<!-- Node26 -->
<g id="node27" class="node"><title>Node26</title>
<g id="a_node27"><a xlink:href="../../d5/d55/MathTypes_8h.html" target="_top" xlink:title="Declaration file of the OptimizationVariable class. ">
<polygon fill="white" stroke="black" points="1397.16,-70.5 1397.16,-88.5 1508.21,-88.5 1508.21,-70.5 1397.16,-70.5"/>
<text text-anchor="middle" x="1452.69" y="-76.5" font-family="Helvetica,sans-Serif" font-size="10.00">ocra/util/MathTypes.h</text>
</a>
</g>
</g>
<!-- Node25&#45;&gt;Node26 -->
<g id="edge35" class="edge"><title>Node25&#45;&gt;Node26</title>
<path fill="none" stroke="midnightblue" d="M1404.47,-130.435C1412.99,-121.619 1426.84,-107.274 1437.51,-96.2165"/>
<polygon fill="midnightblue" stroke="midnightblue" points="1440.18,-98.4969 1444.6,-88.8718 1435.14,-93.6347 1440.18,-98.4969"/>
</g>
<!-- Node29 -->
<g id="node30" class="node"><title>Node29</title>
<polygon fill="white" stroke="#bfbfbf" points="1526.51,-70.5 1526.51,-88.5 1580.86,-88.5 1580.86,-70.5 1526.51,-70.5"/>
<text text-anchor="middle" x="1553.69" y="-76.5" font-family="Helvetica,sans-Serif" font-size="10.00">iostream</text>
</g>
<!-- Node25&#45;&gt;Node29 -->
<g id="edge39" class="edge"><title>Node25&#45;&gt;Node29</title>
<path fill="none" stroke="midnightblue" d="M1419,-130.341C1443.3,-121.448 1483.28,-106.78 1517.69,-94 1519.32,-93.3929 1521,-92.7691 1522.69,-92.1383"/>
<polygon fill="midnightblue" stroke="midnightblue" points="1524.23,-95.2977 1532.38,-88.5175 1521.78,-88.7409 1524.23,-95.2977"/>
</g>
<!-- Node27 -->
<g id="node28" class="node"><title>Node27</title>
<polygon fill="white" stroke="#bfbfbf" points="1378.06,-5.5 1378.06,-23.5 1451.32,-23.5 1451.32,-5.5 1378.06,-5.5"/>
<text text-anchor="middle" x="1414.69" y="-11.5" font-family="Helvetica,sans-Serif" font-size="10.00">Eigen/Dense</text>
</g>
<!-- Node26&#45;&gt;Node27 -->
<g id="edge36" class="edge"><title>Node26&#45;&gt;Node27</title>
<path fill="none" stroke="midnightblue" d="M1447.72,-70.2639C1441.94,-60.6842 1432.25,-44.6186 1424.86,-32.3587"/>
<polygon fill="midnightblue" stroke="midnightblue" points="1427.7,-30.2942 1419.54,-23.539 1421.7,-33.9096 1427.7,-30.2942"/>
</g>
<!-- Node28 -->
<g id="node29" class="node"><title>Node28</title>
<polygon fill="white" stroke="#bfbfbf" points="1469.07,-5.5 1469.07,-23.5 1512.3,-23.5 1512.3,-5.5 1469.07,-5.5"/>
<text text-anchor="middle" x="1490.69" y="-11.5" font-family="Helvetica,sans-Serif" font-size="10.00">cmath</text>
</g>
<!-- Node26&#45;&gt;Node28 -->
<g id="edge37" class="edge"><title>Node26&#45;&gt;Node28</title>
<path fill="none" stroke="midnightblue" d="M1457.65,-70.2639C1463.43,-60.6842 1473.12,-44.6186 1480.52,-32.3587"/>
<polygon fill="midnightblue" stroke="midnightblue" points="1483.67,-33.9096 1485.84,-23.539 1477.68,-30.2942 1483.67,-33.9096"/>
</g>
<!-- Node30&#45;&gt;Node19 -->
<g id="edge44" class="edge"><title>Node30&#45;&gt;Node19</title>
<path fill="none" stroke="midnightblue" d="M1236.41,-190.5C1240.9,-180.761 1248.6,-163.784 1254.69,-149 1261.72,-131.922 1269.14,-112.183 1274.24,-98.2934"/>
<polygon fill="midnightblue" stroke="midnightblue" points="1277.65,-99.1654 1277.79,-88.5714 1271.07,-96.7661 1277.65,-99.1654"/>
</g>
<!-- Node30&#45;&gt;Node23 -->
<g id="edge43" class="edge"><title>Node30&#45;&gt;Node23</title>
<path fill="none" stroke="midnightblue" d="M1231.71,-190.435C1230.73,-182.304 1229.18,-169.469 1227.9,-158.848"/>
<polygon fill="midnightblue" stroke="midnightblue" points="1231.37,-158.38 1226.7,-148.872 1224.42,-159.219 1231.37,-158.38"/>
</g>
<!-- Node31&#45;&gt;Node19 -->
<g id="edge47" class="edge"><title>Node31&#45;&gt;Node19</title>
<path fill="none" stroke="midnightblue" d="M1377.76,-190.424C1365.58,-181.146 1345.62,-165.118 1330.69,-149 1315.56,-132.68 1300.87,-111.757 1291.37,-97.3526"/>
<polygon fill="midnightblue" stroke="midnightblue" points="1294.05,-95.0542 1285.68,-88.5586 1288.17,-98.8561 1294.05,-95.0542"/>
</g>
<!-- Node31&#45;&gt;Node25 -->
<g id="edge46" class="edge"><title>Node31&#45;&gt;Node25</title>
<path fill="none" stroke="midnightblue" d="M1389.8,-190.435C1390.92,-182.304 1392.69,-169.469 1394.16,-158.848"/>
<polygon fill="midnightblue" stroke="midnightblue" points="1397.63,-159.256 1395.53,-148.872 1390.7,-158.3 1397.63,-159.256"/>
</g>
<!-- Node33&#45;&gt;Node23 -->
<g id="edge52" class="edge"><title>Node33&#45;&gt;Node23</title>
<path fill="none" stroke="midnightblue" d="M1701.78,-190.486C1690.05,-188.539 1677.42,-186.569 1665.69,-185 1512.23,-164.474 1327.53,-148.674 1256.01,-142.89"/>
<polygon fill="midnightblue" stroke="midnightblue" points="1256.16,-139.391 1245.92,-142.079 1255.6,-146.369 1256.16,-139.391"/>
</g>
<!-- Node34&#45;&gt;Node24 -->
<g id="edge54" class="edge"><title>Node34&#45;&gt;Node24</title>
<path fill="none" stroke="midnightblue" d="M1305.28,-360.094C1306.17,-339.889 1307.87,-301.581 1308.88,-278.817"/>
<polygon fill="midnightblue" stroke="midnightblue" points="1312.38,-278.917 1309.32,-268.772 1305.38,-278.607 1312.38,-278.917"/>
</g>
<!-- Node36 -->
<g id="node37" class="node"><title>Node36</title>
<polygon fill="white" stroke="#bfbfbf" points="1836.63,-190.5 1836.63,-208.5 1888.74,-208.5 1888.74,-190.5 1836.63,-190.5"/>
<text text-anchor="middle" x="1862.69" y="-196.5" font-family="Helvetica,sans-Serif" font-size="10.00">memory</text>
</g>
<!-- Node35&#45;&gt;Node36 -->
<g id="edge56" class="edge"><title>Node35&#45;&gt;Node36</title>
<path fill="none" stroke="midnightblue" d="M1549.32,-255.479C1613.42,-250.628 1730.6,-238.986 1827.69,-214 1829.89,-213.433 1832.14,-212.769 1834.39,-212.046"/>
<polygon fill="midnightblue" stroke="midnightblue" points="1835.81,-215.257 1844.06,-208.606 1833.46,-208.662 1835.81,-215.257"/>
</g>
<!-- Node37&#45;&gt;Node24 -->
<g id="edge60" class="edge"><title>Node37&#45;&gt;Node24</title>
<path fill="none" stroke="midnightblue" d="M1472.53,-305.45C1439.44,-296.318 1385.34,-281.383 1348.66,-271.258"/>
<polygon fill="midnightblue" stroke="midnightblue" points="1349.38,-267.825 1338.81,-268.538 1347.52,-274.573 1349.38,-267.825"/>
</g>
<!-- Node37&#45;&gt;Node35 -->
<g id="edge61" class="edge"><title>Node37&#45;&gt;Node35</title>
<path fill="none" stroke="midnightblue" d="M1501.69,-305.219C1501.69,-298.177 1501.69,-287.808 1501.69,-278.828"/>
<polygon fill="midnightblue" stroke="midnightblue" points="1505.19,-278.55 1501.69,-268.55 1498.19,-278.55 1505.19,-278.55"/>
</g>
<!-- Node38&#45;&gt;Node39 -->
<g id="edge63" class="edge"><title>Node38&#45;&gt;Node39</title>
<path fill="none" stroke="midnightblue" d="M1547.64,-425.435C1554.08,-417.969 1563.93,-406.538 1572.59,-396.496"/>
<polygon fill="midnightblue" stroke="midnightblue" points="1575.31,-398.702 1579.18,-388.843 1570,-394.132 1575.31,-398.702"/>
</g>
<!-- Node39&#45;&gt;Node37 -->
<g id="edge64" class="edge"><title>Node39&#45;&gt;Node37</title>
<path fill="none" stroke="midnightblue" d="M1570.49,-360.339C1556.27,-351.072 1537.28,-338.692 1522.85,-329.289"/>
<polygon fill="midnightblue" stroke="midnightblue" points="1524.41,-326.129 1514.12,-323.602 1520.59,-331.994 1524.41,-326.129"/>
</g>
<!-- Node40&#45;&gt;Node39 -->
<g id="edge66" class="edge"><title>Node40&#45;&gt;Node39</title>
<path fill="none" stroke="midnightblue" d="M1718.97,-425.435C1697.01,-416.887 1661.7,-403.143 1633.68,-392.236"/>
<polygon fill="midnightblue" stroke="midnightblue" points="1634.7,-388.875 1624.11,-388.51 1632.16,-395.399 1634.7,-388.875"/>
</g>
</g>
</svg>
