<?xml version="1.0" encoding="UTF-8" standalone="no"?>
<!DOCTYPE svg PUBLIC "-//W3C//DTD SVG 1.1//EN"
 "http://www.w3.org/Graphics/SVG/1.1/DTD/svg11.dtd">
<!-- Generated by graphviz version 2.38.0 (20140413.2041)
 -->
<!-- Title: BoundFunction.cpp Pages: 1 -->
<svg width="1544pt" height="507pt"
 viewBox="0.00 0.00 1543.86 507.00" xmlns="http://www.w3.org/2000/svg" xmlns:xlink="http://www.w3.org/1999/xlink">
<g id="graph0" class="graph" transform="scale(1 1) rotate(0) translate(4 503)">
<title>BoundFunction.cpp</title>
<polygon fill="white" stroke="none" points="-4,4 -4,-503 1539.86,-503 1539.86,4 -4,4"/>
<!-- Node0 -->
<g id="node1" class="node"><title>Node0</title>
<polygon fill="#bfbfbf" stroke="black" points="1278.6,-480.5 1278.6,-498.5 1380.77,-498.5 1380.77,-480.5 1278.6,-480.5"/>
<text text-anchor="middle" x="1329.69" y="-486.5" font-family="Helvetica,sans-Serif" font-size="10.00">BoundFunction.cpp</text>
</g>
<!-- Node1 -->
<g id="node2" class="node"><title>Node1</title>
<g id="a_node2"><a xlink:href="../../de/d69/BoundFunction_8h.html" target="_top" xlink:title="Declaration file of the BoundFunction class. ">
<polygon fill="white" stroke="black" points="1166.15,-425.5 1166.15,-443.5 1307.22,-443.5 1307.22,-425.5 1166.15,-425.5"/>
<text text-anchor="middle" x="1236.69" y="-431.5" font-family="Helvetica,sans-Serif" font-size="10.00">ocra/optim/BoundFunction.h</text>
</a>
</g>
</g>
<!-- Node0&#45;&gt;Node1 -->
<g id="edge1" class="edge"><title>Node0&#45;&gt;Node1</title>
<path fill="none" stroke="midnightblue" d="M1315.56,-480.45C1300.81,-472.045 1277.44,-458.724 1259.96,-448.762"/>
<polygon fill="midnightblue" stroke="midnightblue" points="1261.37,-445.536 1250.94,-443.625 1257.9,-451.618 1261.37,-445.536"/>
</g>
<!-- Node13 -->
<g id="node14" class="node"><title>Node13</title>
<polygon fill="white" stroke="#bfbfbf" points="1275.29,-70.5 1275.29,-88.5 1334.09,-88.5 1334.09,-70.5 1275.29,-70.5"/>
<text text-anchor="middle" x="1304.69" y="-76.5" font-family="Helvetica,sans-Serif" font-size="10.00">stdexcept</text>
</g>
<!-- Node0&#45;&gt;Node13 -->
<g id="edge56" class="edge"><title>Node0&#45;&gt;Node13</title>
<path fill="none" stroke="midnightblue" d="M1343.96,-480.286C1370.26,-463.967 1423.69,-424.751 1423.69,-375.5 1423.69,-375.5 1423.69,-375.5 1423.69,-198.5 1423.69,-147.572 1368.05,-111.12 1332.86,-93.1591"/>
<polygon fill="midnightblue" stroke="midnightblue" points="1334.06,-89.8493 1323.54,-88.5867 1330.98,-96.1337 1334.06,-89.8493"/>
</g>
<!-- Node2 -->
<g id="node3" class="node"><title>Node2</title>
<g id="a_node3"><a xlink:href="../../dc/d6f/DiagonalLinearFunction_8h.html" target="_top" xlink:title="Declaration file of the DiagonalLinearFunction class. ">
<polygon fill="white" stroke="black" points="995.32,-360.5 995.32,-388.5 1128.05,-388.5 1128.05,-360.5 995.32,-360.5"/>
<text text-anchor="start" x="1003.32" y="-376.5" font-family="Helvetica,sans-Serif" font-size="10.00">ocra/optim/DiagonalLinear</text>
<text text-anchor="middle" x="1061.69" y="-366.5" font-family="Helvetica,sans-Serif" font-size="10.00">Function.h</text>
</a>
</g>
</g>
<!-- Node1&#45;&gt;Node2 -->
<g id="edge2" class="edge"><title>Node1&#45;&gt;Node2</title>
<path fill="none" stroke="midnightblue" d="M1212.35,-425.435C1186.11,-416.738 1143.64,-402.661 1110.47,-391.667"/>
<polygon fill="midnightblue" stroke="midnightblue" points="1111.53,-388.333 1100.94,-388.51 1109.33,-394.978 1111.53,-388.333"/>
</g>
<!-- Node3 -->
<g id="node4" class="node"><title>Node3</title>
<g id="a_node4"><a xlink:href="../../dc/d8a/LinearFunction_8h.html" target="_top" xlink:title="Declaration file of the LinearFunction class. ">
<polygon fill="white" stroke="black" points="903.709,-305.5 903.709,-323.5 1043.66,-323.5 1043.66,-305.5 903.709,-305.5"/>
<text text-anchor="middle" x="973.687" y="-311.5" font-family="Helvetica,sans-Serif" font-size="10.00">ocra/optim/LinearFunction.h</text>
</a>
</g>
</g>
<!-- Node2&#45;&gt;Node3 -->
<g id="edge3" class="edge"><title>Node2&#45;&gt;Node3</title>
<path fill="none" stroke="midnightblue" d="M1041.72,-360.339C1027.66,-351.072 1008.88,-338.692 994.608,-329.289"/>
<polygon fill="midnightblue" stroke="midnightblue" points="996.255,-326.183 985.979,-323.602 992.403,-332.027 996.255,-326.183"/>
</g>
<!-- Node4 -->
<g id="node5" class="node"><title>Node4</title>
<g id="a_node5"><a xlink:href="../../df/df5/Function_8h.html" target="_top" xlink:title="Declaration file of the Function class. ">
<polygon fill="white" stroke="black" points="917.608,-250.5 917.608,-268.5 1029.77,-268.5 1029.77,-250.5 917.608,-250.5"/>
<text text-anchor="middle" x="973.687" y="-256.5" font-family="Helvetica,sans-Serif" font-size="10.00">ocra/optim/Function.h</text>
</a>
</g>
</g>
<!-- Node3&#45;&gt;Node4 -->
<g id="edge4" class="edge"><title>Node3&#45;&gt;Node4</title>
<path fill="none" stroke="midnightblue" d="M973.687,-305.219C973.687,-298.177 973.687,-287.808 973.687,-278.828"/>
<polygon fill="midnightblue" stroke="midnightblue" points="977.187,-278.55 973.687,-268.55 970.187,-278.55 977.187,-278.55"/>
</g>
<!-- Node36 -->
<g id="node37" class="node"><title>Node36</title>
<g id="a_node37"><a xlink:href="../../df/d0a/Macros_8h.html" target="_top" xlink:title="ocra/util/Macros.h">
<polygon fill="white" stroke="black" points="638.229,-250.5 638.229,-268.5 733.145,-268.5 733.145,-250.5 638.229,-250.5"/>
<text text-anchor="middle" x="685.687" y="-256.5" font-family="Helvetica,sans-Serif" font-size="10.00">ocra/util/Macros.h</text>
</a>
</g>
</g>
<!-- Node3&#45;&gt;Node36 -->
<g id="edge54" class="edge"><title>Node3&#45;&gt;Node36</title>
<path fill="none" stroke="midnightblue" d="M929.946,-305.45C878.839,-296.045 794.282,-280.485 739.279,-270.362"/>
<polygon fill="midnightblue" stroke="midnightblue" points="739.835,-266.906 729.367,-268.538 738.568,-273.79 739.835,-266.906"/>
</g>
<!-- Node5 -->
<g id="node6" class="node"><title>Node5</title>
<g id="a_node6"><a xlink:href="../../de/d94/IFunction_8h.html" target="_top" xlink:title="Declaration file of the IFunction interface. ">
<polygon fill="white" stroke="black" points="1263.22,-130.5 1263.22,-148.5 1378.15,-148.5 1378.15,-130.5 1263.22,-130.5"/>
<text text-anchor="middle" x="1320.69" y="-136.5" font-family="Helvetica,sans-Serif" font-size="10.00">ocra/optim/IFunction.h</text>
</a>
</g>
</g>
<!-- Node4&#45;&gt;Node5 -->
<g id="edge5" class="edge"><title>Node4&#45;&gt;Node5</title>
<path fill="none" stroke="midnightblue" d="M1029.77,-256.212C1133,-251.422 1344.65,-238.678 1366.69,-214 1383.2,-195.516 1359.45,-170.407 1340.39,-154.84"/>
<polygon fill="midnightblue" stroke="midnightblue" points="1342.43,-151.989 1332.38,-148.608 1338.13,-157.513 1342.43,-151.989"/>
</g>
<!-- Node14 -->
<g id="node15" class="node"><title>Node14</title>
<g id="a_node15"><a xlink:href="../../d9/d54/IFunctionProperties_8h.html" target="_top" xlink:title="ocra/optim/IFunctionProperties.h">
<polygon fill="white" stroke="black" points="1063.43,-190.5 1063.43,-208.5 1223.94,-208.5 1223.94,-190.5 1063.43,-190.5"/>
<text text-anchor="middle" x="1143.69" y="-196.5" font-family="Helvetica,sans-Serif" font-size="10.00">ocra/optim/IFunctionProperties.h</text>
</a>
</g>
</g>
<!-- Node4&#45;&gt;Node14 -->
<g id="edge14" class="edge"><title>Node4&#45;&gt;Node14</title>
<path fill="none" stroke="midnightblue" d="M997.325,-250.435C1026.68,-240.421 1076.93,-223.276 1110.23,-211.915"/>
<polygon fill="midnightblue" stroke="midnightblue" points="1111.64,-215.131 1119.98,-208.589 1109.38,-208.506 1111.64,-215.131"/>
</g>
<!-- Node16 -->
<g id="node17" class="node"><title>Node16</title>
<g id="a_node17"><a xlink:href="../../db/d47/AbilitySet_8h.html" target="_top" xlink:title="ocra/optim/AbilitySet.h">
<polygon fill="white" stroke="black" points="1241.94,-190.5 1241.94,-208.5 1357.43,-208.5 1357.43,-190.5 1241.94,-190.5"/>
<text text-anchor="middle" x="1299.69" y="-196.5" font-family="Helvetica,sans-Serif" font-size="10.00">ocra/optim/AbilitySet.h</text>
</a>
</g>
</g>
<!-- Node4&#45;&gt;Node16 -->
<g id="edge17" class="edge"><title>Node4&#45;&gt;Node16</title>
<path fill="none" stroke="midnightblue" d="M1022.93,-250.471C1075.09,-241.865 1159.81,-227.601 1232.69,-214 1238.52,-212.912 1244.62,-211.735 1250.67,-210.544"/>
<polygon fill="midnightblue" stroke="midnightblue" points="1251.63,-213.924 1260.75,-208.541 1250.26,-207.058 1251.63,-213.924"/>
</g>
<!-- Node17 -->
<g id="node18" class="node"><title>Node17</title>
<g id="a_node18"><a xlink:href="../../d1/d87/CoupledInputOutputSize_8h.html" target="_top" xlink:title="ocra/optim/CoupledInputOutput\lSize.h">
<polygon fill="white" stroke="black" points="601.2,-185.5 601.2,-213.5 756.174,-213.5 756.174,-185.5 601.2,-185.5"/>
<text text-anchor="start" x="609.2" y="-201.5" font-family="Helvetica,sans-Serif" font-size="10.00">ocra/optim/CoupledInputOutput</text>
<text text-anchor="middle" x="678.687" y="-191.5" font-family="Helvetica,sans-Serif" font-size="10.00">Size.h</text>
</a>
</g>
</g>
<!-- Node4&#45;&gt;Node17 -->
<g id="edge20" class="edge"><title>Node4&#45;&gt;Node17</title>
<path fill="none" stroke="midnightblue" d="M932.978,-250.496C887.203,-241.496 811.85,-226.681 755.028,-215.509"/>
<polygon fill="midnightblue" stroke="midnightblue" points="755.491,-212.033 745.003,-213.538 754.14,-218.902 755.491,-212.033"/>
</g>
<!-- Node18 -->
<g id="node19" class="node"><title>Node18</title>
<g id="a_node19"><a xlink:href="../../d7/d90/Variable_8h.html" target="_top" xlink:title="Declaration file of the Variable class. ">
<polygon fill="white" stroke="black" points="773.81,-190.5 773.81,-208.5 883.564,-208.5 883.564,-190.5 773.81,-190.5"/>
<text text-anchor="middle" x="828.687" y="-196.5" font-family="Helvetica,sans-Serif" font-size="10.00">ocra/optim/Variable.h</text>
</a>
</g>
</g>
<!-- Node4&#45;&gt;Node18 -->
<g id="edge21" class="edge"><title>Node4&#45;&gt;Node18</title>
<path fill="none" stroke="midnightblue" d="M953.525,-250.435C928.884,-240.579 886.969,-223.813 858.574,-212.455"/>
<polygon fill="midnightblue" stroke="midnightblue" points="859.73,-209.147 849.145,-208.683 857.13,-215.647 859.73,-209.147"/>
</g>
<!-- Node19 -->
<g id="node20" class="node"><title>Node19</title>
<g id="a_node20"><a xlink:href="../../d8/ddc/ObserverSubject_8h.html" target="_top" xlink:title="Declaration file of the Observer, Subject and ObserverSubject classes. ">
<polygon fill="white" stroke="black" points="366.547,-130.5 366.547,-148.5 514.827,-148.5 514.827,-130.5 366.547,-130.5"/>
<text text-anchor="middle" x="440.687" y="-136.5" font-family="Helvetica,sans-Serif" font-size="10.00">ocra/optim/ObserverSubject.h</text>
</a>
</g>
</g>
<!-- Node4&#45;&gt;Node19 -->
<g id="edge51" class="edge"><title>Node4&#45;&gt;Node19</title>
<path fill="none" stroke="midnightblue" d="M917.422,-255.586C826.159,-250.252 650.263,-237.269 592.687,-214 572.99,-206.039 573.208,-195.409 554.687,-185 530.002,-171.127 500.121,-159.638 477.145,-151.81"/>
<polygon fill="midnightblue" stroke="midnightblue" points="478.032,-148.417 467.438,-148.58 475.821,-155.058 478.032,-148.417"/>
</g>
<!-- Node35 -->
<g id="node36" class="node"><title>Node35</title>
<g id="a_node36"><a xlink:href="../../df/d97/NamedInstance_8h.html" target="_top" xlink:title="ocra/optim/NamedInstance.h">
<polygon fill="white" stroke="black" points="901.766,-190.5 901.766,-208.5 1045.61,-208.5 1045.61,-190.5 901.766,-190.5"/>
<text text-anchor="middle" x="973.687" y="-196.5" font-family="Helvetica,sans-Serif" font-size="10.00">ocra/optim/NamedInstance.h</text>
</a>
</g>
</g>
<!-- Node4&#45;&gt;Node35 -->
<g id="edge52" class="edge"><title>Node4&#45;&gt;Node35</title>
<path fill="none" stroke="midnightblue" d="M973.687,-250.435C973.687,-242.389 973.687,-229.739 973.687,-219.185"/>
<polygon fill="midnightblue" stroke="midnightblue" points="977.187,-218.872 973.687,-208.872 970.187,-218.872 977.187,-218.872"/>
</g>
<!-- Node6 -->
<g id="node7" class="node"><title>Node6</title>
<g id="a_node7"><a xlink:href="../../d5/d55/MathTypes_8h.html" target="_top" xlink:title="Declaration file of the OptimizationVariable class. ">
<polygon fill="white" stroke="black" points="1352.16,-70.5 1352.16,-88.5 1463.21,-88.5 1463.21,-70.5 1352.16,-70.5"/>
<text text-anchor="middle" x="1407.69" y="-76.5" font-family="Helvetica,sans-Serif" font-size="10.00">ocra/util/MathTypes.h</text>
</a>
</g>
</g>
<!-- Node5&#45;&gt;Node6 -->
<g id="edge6" class="edge"><title>Node5&#45;&gt;Node6</title>
<path fill="none" stroke="midnightblue" d="M1332.78,-130.435C1346.73,-121.138 1369.9,-105.694 1386.78,-94.4393"/>
<polygon fill="midnightblue" stroke="midnightblue" points="1389.03,-97.1424 1395.41,-88.6831 1385.15,-91.318 1389.03,-97.1424"/>
</g>
<!-- Node9 -->
<g id="node10" class="node"><title>Node9</title>
<g id="a_node10"><a xlink:href="../../de/df3/ocra__assert_8h.html" target="_top" xlink:title="ocra/optim/ocra_assert.h">
<polygon fill="white" stroke="black" points="1069.66,-70.5 1069.66,-88.5 1195.71,-88.5 1195.71,-70.5 1069.66,-70.5"/>
<text text-anchor="middle" x="1132.69" y="-76.5" font-family="Helvetica,sans-Serif" font-size="10.00">ocra/optim/ocra_assert.h</text>
</a>
</g>
</g>
<!-- Node5&#45;&gt;Node9 -->
<g id="edge9" class="edge"><title>Node5&#45;&gt;Node9</title>
<path fill="none" stroke="midnightblue" d="M1294.55,-130.435C1261.81,-120.335 1205.55,-102.98 1168.74,-91.6227"/>
<polygon fill="midnightblue" stroke="midnightblue" points="1169.5,-88.1931 1158.91,-88.5894 1167.43,-94.882 1169.5,-88.1931"/>
</g>
<!-- Node11 -->
<g id="node12" class="node"><title>Node11</title>
<polygon fill="white" stroke="#bfbfbf" points="1481.51,-70.5 1481.51,-88.5 1535.86,-88.5 1535.86,-70.5 1481.51,-70.5"/>
<text text-anchor="middle" x="1508.69" y="-76.5" font-family="Helvetica,sans-Serif" font-size="10.00">iostream</text>
</g>
<!-- Node5&#45;&gt;Node11 -->
<g id="edge11" class="edge"><title>Node5&#45;&gt;Node11</title>
<path fill="none" stroke="midnightblue" d="M1350.6,-130.448C1381.4,-121.992 1430.69,-108.001 1472.69,-94 1474.54,-93.3825 1476.44,-92.7299 1478.35,-92.0582"/>
<polygon fill="midnightblue" stroke="midnightblue" points="1479.63,-95.3157 1487.84,-88.6157 1477.25,-88.7351 1479.63,-95.3157"/>
</g>
<!-- Node12 -->
<g id="node13" class="node"><title>Node12</title>
<polygon fill="white" stroke="#bfbfbf" points="1214.07,-70.5 1214.07,-88.5 1257.3,-88.5 1257.3,-70.5 1214.07,-70.5"/>
<text text-anchor="middle" x="1235.69" y="-76.5" font-family="Helvetica,sans-Serif" font-size="10.00">vector</text>
</g>
<!-- Node5&#45;&gt;Node12 -->
<g id="edge12" class="edge"><title>Node5&#45;&gt;Node12</title>
<path fill="none" stroke="midnightblue" d="M1308.87,-130.435C1295.24,-121.138 1272.61,-105.694 1256.12,-94.4393"/>
<polygon fill="midnightblue" stroke="midnightblue" points="1257.91,-91.4285 1247.68,-88.6831 1253.97,-97.2106 1257.91,-91.4285"/>
</g>
<!-- Node5&#45;&gt;Node13 -->
<g id="edge13" class="edge"><title>Node5&#45;&gt;Node13</title>
<path fill="none" stroke="midnightblue" d="M1318.46,-130.435C1316.2,-122.218 1312.6,-109.198 1309.66,-98.5138"/>
<polygon fill="midnightblue" stroke="midnightblue" points="1313.03,-97.5809 1307,-88.8718 1306.28,-99.4425 1313.03,-97.5809"/>
</g>
<!-- Node7 -->
<g id="node8" class="node"><title>Node7</title>
<polygon fill="white" stroke="#bfbfbf" points="1333.06,-5.5 1333.06,-23.5 1406.32,-23.5 1406.32,-5.5 1333.06,-5.5"/>
<text text-anchor="middle" x="1369.69" y="-11.5" font-family="Helvetica,sans-Serif" font-size="10.00">Eigen/Dense</text>
</g>
<!-- Node6&#45;&gt;Node7 -->
<g id="edge7" class="edge"><title>Node6&#45;&gt;Node7</title>
<path fill="none" stroke="midnightblue" d="M1402.72,-70.2639C1396.94,-60.6842 1387.25,-44.6186 1379.86,-32.3587"/>
<polygon fill="midnightblue" stroke="midnightblue" points="1382.7,-30.2942 1374.54,-23.539 1376.7,-33.9096 1382.7,-30.2942"/>
</g>
<!-- Node8 -->
<g id="node9" class="node"><title>Node8</title>
<polygon fill="white" stroke="#bfbfbf" points="1424.07,-5.5 1424.07,-23.5 1467.3,-23.5 1467.3,-5.5 1424.07,-5.5"/>
<text text-anchor="middle" x="1445.69" y="-11.5" font-family="Helvetica,sans-Serif" font-size="10.00">cmath</text>
</g>
<!-- Node6&#45;&gt;Node8 -->
<g id="edge8" class="edge"><title>Node6&#45;&gt;Node8</title>
<path fill="none" stroke="midnightblue" d="M1412.65,-70.2639C1418.43,-60.6842 1428.12,-44.6186 1435.52,-32.3587"/>
<polygon fill="midnightblue" stroke="midnightblue" points="1438.67,-33.9096 1440.84,-23.539 1432.68,-30.2942 1438.67,-33.9096"/>
</g>
<!-- Node10 -->
<g id="node11" class="node"><title>Node10</title>
<polygon fill="white" stroke="#bfbfbf" points="1111.63,-5.5 1111.63,-23.5 1153.75,-23.5 1153.75,-5.5 1111.63,-5.5"/>
<text text-anchor="middle" x="1132.69" y="-11.5" font-family="Helvetica,sans-Serif" font-size="10.00">cstdio</text>
</g>
<!-- Node9&#45;&gt;Node10 -->
<g id="edge10" class="edge"><title>Node9&#45;&gt;Node10</title>
<path fill="none" stroke="midnightblue" d="M1132.69,-70.2639C1132.69,-61.0635 1132.69,-45.881 1132.69,-33.8326"/>
<polygon fill="midnightblue" stroke="midnightblue" points="1136.19,-33.5389 1132.69,-23.539 1129.19,-33.539 1136.19,-33.5389"/>
</g>
<!-- Node14&#45;&gt;Node12 -->
<g id="edge16" class="edge"><title>Node14&#45;&gt;Node12</title>
<path fill="none" stroke="midnightblue" d="M1150.01,-190.389C1165.04,-171.106 1203.15,-122.227 1223.09,-96.654"/>
<polygon fill="midnightblue" stroke="midnightblue" points="1225.93,-98.7058 1229.32,-88.6674 1220.41,-94.4017 1225.93,-98.7058"/>
</g>
<!-- Node15 -->
<g id="node16" class="node"><title>Node15</title>
<polygon fill="white" stroke="#bfbfbf" points="1028.46,-130.5 1028.46,-148.5 1068.91,-148.5 1068.91,-130.5 1028.46,-130.5"/>
<text text-anchor="middle" x="1048.69" y="-136.5" font-family="Helvetica,sans-Serif" font-size="10.00">string</text>
</g>
<!-- Node14&#45;&gt;Node15 -->
<g id="edge15" class="edge"><title>Node14&#45;&gt;Node15</title>
<path fill="none" stroke="midnightblue" d="M1130.48,-190.435C1115.04,-181.009 1089.25,-165.264 1070.75,-153.973"/>
<polygon fill="midnightblue" stroke="midnightblue" points="1072.45,-150.907 1062.09,-148.683 1068.8,-156.881 1072.45,-150.907"/>
</g>
<!-- Node16&#45;&gt;Node5 -->
<g id="edge18" class="edge"><title>Node16&#45;&gt;Node5</title>
<path fill="none" stroke="midnightblue" d="M1302.61,-190.435C1305.58,-182.218 1310.3,-169.198 1314.16,-158.514"/>
<polygon fill="midnightblue" stroke="midnightblue" points="1317.54,-159.466 1317.66,-148.872 1310.96,-157.083 1317.54,-159.466"/>
</g>
<!-- Node16&#45;&gt;Node12 -->
<g id="edge19" class="edge"><title>Node16&#45;&gt;Node12</title>
<path fill="none" stroke="midnightblue" d="M1289.99,-190.378C1279.77,-181.301 1263.89,-165.677 1254.69,-149 1245.94,-133.141 1240.97,-112.952 1238.33,-98.6097"/>
<polygon fill="midnightblue" stroke="midnightblue" points="1241.76,-97.8575 1236.68,-88.5558 1234.85,-98.9904 1241.76,-97.8575"/>
</g>
<!-- Node18&#45;&gt;Node12 -->
<g id="edge50" class="edge"><title>Node18&#45;&gt;Node12</title>
<path fill="none" stroke="midnightblue" d="M840.244,-190.383C864.993,-173.064 921.684,-133.754 931.687,-130 1046.27,-87.0023 1086.77,-126.751 1204.69,-94 1206.4,-93.5248 1208.14,-92.9734 1209.87,-92.3705"/>
<polygon fill="midnightblue" stroke="midnightblue" points="1211.58,-95.4602 1219.59,-88.525 1209,-88.9516 1211.58,-95.4602"/>
</g>
<!-- Node18&#45;&gt;Node15 -->
<g id="edge49" class="edge"><title>Node18&#45;&gt;Node15</title>
<path fill="none" stroke="midnightblue" d="M860.874,-190.488C896.974,-181.429 957.502,-166.026 1018.62,-149.233"/>
<polygon fill="midnightblue" stroke="midnightblue" points="1019.72,-152.56 1028.43,-146.526 1017.86,-145.812 1019.72,-152.56"/>
</g>
<!-- Node18&#45;&gt;Node19 -->
<g id="edge22" class="edge"><title>Node18&#45;&gt;Node19</title>
<path fill="none" stroke="midnightblue" d="M792.894,-190.479C783.724,-188.554 773.861,-186.595 764.687,-185 681.456,-170.525 585.525,-157.844 519.773,-149.761"/>
<polygon fill="midnightblue" stroke="midnightblue" points="519.837,-146.243 509.486,-148.503 518.988,-153.191 519.837,-146.243"/>
</g>
<!-- Node30 -->
<g id="node31" class="node"><title>Node30</title>
<g id="a_node31"><a xlink:href="../../d1/de6/Composite_8h.html" target="_top" xlink:title="Utility classes and functions to implement the Composite design pattern. ">
<polygon fill="white" stroke="black" points="724.887,-130.5 724.887,-148.5 846.487,-148.5 846.487,-130.5 724.887,-130.5"/>
<text text-anchor="middle" x="785.687" y="-136.5" font-family="Helvetica,sans-Serif" font-size="10.00">ocra/optim/Composite.h</text>
</a>
</g>
</g>
<!-- Node18&#45;&gt;Node30 -->
<g id="edge36" class="edge"><title>Node18&#45;&gt;Node30</title>
<path fill="none" stroke="midnightblue" d="M822.708,-190.435C816.362,-181.876 806.153,-168.105 798.061,-157.191"/>
<polygon fill="midnightblue" stroke="midnightblue" points="800.661,-154.82 791.894,-148.872 795.038,-158.989 800.661,-154.82"/>
</g>
<!-- Node31 -->
<g id="node32" class="node"><title>Node31</title>
<polygon fill="white" stroke="#bfbfbf" points="931.978,-70.5 931.978,-88.5 1051.4,-88.5 1051.4,-70.5 931.978,-70.5"/>
<text text-anchor="middle" x="991.687" y="-76.5" font-family="Helvetica,sans-Serif" font-size="10.00">boost/noncopyable.hpp</text>
</g>
<!-- Node18&#45;&gt;Node31 -->
<g id="edge48" class="edge"><title>Node18&#45;&gt;Node31</title>
<path fill="none" stroke="midnightblue" d="M835.802,-190.126C847.778,-176.376 873.166,-148.68 898.687,-130 919.141,-115.029 944.704,-101.76 963.851,-92.7386"/>
<polygon fill="midnightblue" stroke="midnightblue" points="965.335,-95.9084 972.95,-88.5419 962.403,-89.5519 965.335,-95.9084"/>
</g>
<!-- Node34 -->
<g id="node35" class="node"><title>Node34</title>
<polygon fill="white" stroke="#bfbfbf" points="940.722,-130.5 940.722,-148.5 1010.65,-148.5 1010.65,-130.5 940.722,-130.5"/>
<text text-anchor="middle" x="975.687" y="-136.5" font-family="Helvetica,sans-Serif" font-size="10.00">Eigen/Eigen</text>
</g>
<!-- Node18&#45;&gt;Node34 -->
<g id="edge47" class="edge"><title>Node18&#45;&gt;Node34</title>
<path fill="none" stroke="midnightblue" d="M849.127,-190.435C874.108,-180.579 916.601,-163.813 945.387,-152.455"/>
<polygon fill="midnightblue" stroke="midnightblue" points="946.929,-155.609 954.947,-148.683 944.36,-149.098 946.929,-155.609"/>
</g>
<!-- Node20 -->
<g id="node21" class="node"><title>Node20</title>
<g id="a_node21"><a xlink:href="../../df/d67/ObserverSubjectBase_8h.html" target="_top" xlink:title="Declaration file of the Observer and Subject base classes. ">
<polygon fill="white" stroke="black" points="253.717,-65.5 253.717,-93.5 393.657,-93.5 393.657,-65.5 253.717,-65.5"/>
<text text-anchor="start" x="261.717" y="-81.5" font-family="Helvetica,sans-Serif" font-size="10.00">ocra/optim/ObserverSubject</text>
<text text-anchor="middle" x="323.687" y="-71.5" font-family="Helvetica,sans-Serif" font-size="10.00">Base.h</text>
</a>
</g>
</g>
<!-- Node19&#45;&gt;Node20 -->
<g id="edge23" class="edge"><title>Node19&#45;&gt;Node20</title>
<path fill="none" stroke="midnightblue" d="M424.419,-130.435C407.682,-122.138 381.07,-108.946 359.401,-98.2043"/>
<polygon fill="midnightblue" stroke="midnightblue" points="360.668,-94.926 350.154,-93.6203 357.559,-101.198 360.668,-94.926"/>
</g>
<!-- Node24 -->
<g id="node25" class="node"><title>Node24</title>
<polygon fill="white" stroke="#bfbfbf" points="0,-0.5 0,-28.5 99.374,-28.5 99.374,-0.5 0,-0.5"/>
<text text-anchor="start" x="8" y="-16.5" font-family="Helvetica,sans-Serif" font-size="10.00">boost/type_traits/is</text>
<text text-anchor="middle" x="49.687" y="-6.5" font-family="Helvetica,sans-Serif" font-size="10.00">_class.hpp</text>
</g>
<!-- Node19&#45;&gt;Node24 -->
<g id="edge35" class="edge"><title>Node19&#45;&gt;Node24</title>
<path fill="none" stroke="midnightblue" d="M366.476,-136.175C279.479,-132.2 141.694,-121.632 98.687,-94 78.3873,-80.9576 65.0411,-56.2001 57.4764,-37.9622"/>
<polygon fill="midnightblue" stroke="midnightblue" points="60.7334,-36.6804 53.8612,-28.6167 54.2048,-39.2059 60.7334,-36.6804"/>
</g>
<!-- Node25 -->
<g id="node26" class="node"><title>Node25</title>
<polygon fill="white" stroke="#bfbfbf" points="546,-0.5 546,-28.5 645.374,-28.5 645.374,-0.5 546,-0.5"/>
<text text-anchor="start" x="554" y="-16.5" font-family="Helvetica,sans-Serif" font-size="10.00">boost/type_traits/is</text>
<text text-anchor="middle" x="595.687" y="-6.5" font-family="Helvetica,sans-Serif" font-size="10.00">_base_of.hpp</text>
</g>
<!-- Node19&#45;&gt;Node25 -->
<g id="edge33" class="edge"><title>Node19&#45;&gt;Node25</title>
<path fill="none" stroke="midnightblue" d="M442.968,-130.06C447.429,-115.048 458.66,-83.543 478.687,-65 494.894,-49.9944 516.324,-39.1541 536.411,-31.5164"/>
<polygon fill="midnightblue" stroke="midnightblue" points="537.606,-34.8064 545.828,-28.1248 535.234,-28.2206 537.606,-34.8064"/>
</g>
<!-- Node26 -->
<g id="node27" class="node"><title>Node26</title>
<polygon fill="white" stroke="#bfbfbf" points="409.269,-5.5 409.269,-23.5 528.105,-23.5 528.105,-5.5 409.269,-5.5"/>
<text text-anchor="middle" x="468.687" y="-11.5" font-family="Helvetica,sans-Serif" font-size="10.00">boost/static_assert.hpp</text>
</g>
<!-- Node19&#45;&gt;Node26 -->
<g id="edge32" class="edge"><title>Node19&#45;&gt;Node26</title>
<path fill="none" stroke="midnightblue" d="M440.276,-130.187C439.811,-116.401 439.768,-88.0412 445.687,-65 448.596,-53.6765 454.043,-41.7704 458.906,-32.4734"/>
<polygon fill="midnightblue" stroke="midnightblue" points="462.056,-34.0093 463.806,-23.5601 455.922,-30.637 462.056,-34.0093"/>
</g>
<!-- Node28 -->
<g id="node29" class="node"><title>Node28</title>
<g id="a_node29"><a xlink:href="../../db/ddf/ocra__events_8h.html" target="_top" xlink:title="ocra/optim/ocra_events.h">
<polygon fill="white" stroke="black" points="107.547,-70.5 107.547,-88.5 235.827,-88.5 235.827,-70.5 107.547,-70.5"/>
<text text-anchor="middle" x="171.687" y="-76.5" font-family="Helvetica,sans-Serif" font-size="10.00">ocra/optim/ocra_events.h</text>
</a>
</g>
</g>
<!-- Node19&#45;&gt;Node28 -->
<g id="edge31" class="edge"><title>Node19&#45;&gt;Node28</title>
<path fill="none" stroke="midnightblue" d="M403.566,-130.496C355.463,-120.125 271.544,-102.03 218.942,-90.6887"/>
<polygon fill="midnightblue" stroke="midnightblue" points="219.372,-87.2011 208.859,-88.5147 217.896,-94.0438 219.372,-87.2011"/>
</g>
<!-- Node29 -->
<g id="node30" class="node"><title>Node29</title>
<polygon fill="white" stroke="#bfbfbf" points="488,-65.5 488,-93.5 587.374,-93.5 587.374,-65.5 488,-65.5"/>
<text text-anchor="start" x="496" y="-81.5" font-family="Helvetica,sans-Serif" font-size="10.00">boost/type_traits/is</text>
<text text-anchor="middle" x="537.687" y="-71.5" font-family="Helvetica,sans-Serif" font-size="10.00">_convertible.hpp</text>
</g>
<!-- Node19&#45;&gt;Node29 -->
<g id="edge34" class="edge"><title>Node19&#45;&gt;Node29</title>
<path fill="none" stroke="midnightblue" d="M454.174,-130.435C467.739,-122.324 489.128,-109.535 506.864,-98.9304"/>
<polygon fill="midnightblue" stroke="midnightblue" points="508.958,-101.756 515.744,-93.6203 505.365,-95.7484 508.958,-101.756"/>
</g>
<!-- Node21 -->
<g id="node22" class="node"><title>Node21</title>
<polygon fill="white" stroke="#bfbfbf" points="117.283,-5.5 117.283,-23.5 176.091,-23.5 176.091,-5.5 117.283,-5.5"/>
<text text-anchor="middle" x="146.687" y="-11.5" font-family="Helvetica,sans-Serif" font-size="10.00">functional</text>
</g>
<!-- Node20&#45;&gt;Node21 -->
<g id="edge24" class="edge"><title>Node20&#45;&gt;Node21</title>
<path fill="none" stroke="midnightblue" d="M287.012,-65.4464C255.171,-54.1131 209.511,-37.8611 179.016,-27.0071"/>
<polygon fill="midnightblue" stroke="midnightblue" points="179.893,-23.6039 169.298,-23.548 177.545,-30.1987 179.893,-23.6039"/>
</g>
<!-- Node22 -->
<g id="node23" class="node"><title>Node22</title>
<polygon fill="white" stroke="#bfbfbf" points="663.123,-5.5 663.123,-23.5 720.251,-23.5 720.251,-5.5 663.123,-5.5"/>
<text text-anchor="middle" x="691.687" y="-11.5" font-family="Helvetica,sans-Serif" font-size="10.00">algorithm</text>
</g>
<!-- Node20&#45;&gt;Node22 -->
<g id="edge25" class="edge"><title>Node20&#45;&gt;Node22</title>
<path fill="none" stroke="midnightblue" d="M393.919,-72.1431C461.483,-65.0584 566.139,-51.5299 654.687,-29 657.18,-28.3656 659.74,-27.6261 662.293,-26.826"/>
<polygon fill="midnightblue" stroke="midnightblue" points="663.612,-30.0742 671.948,-23.5347 661.353,-23.4485 663.612,-30.0742"/>
</g>
<!-- Node23 -->
<g id="node24" class="node"><title>Node23</title>
<polygon fill="white" stroke="#bfbfbf" points="193.642,-5.5 193.642,-23.5 271.732,-23.5 271.732,-5.5 193.642,-5.5"/>
<text text-anchor="middle" x="232.687" y="-11.5" font-family="Helvetica,sans-Serif" font-size="10.00">boost/any.hpp</text>
</g>
<!-- Node20&#45;&gt;Node23 -->
<g id="edge26" class="edge"><title>Node20&#45;&gt;Node23</title>
<path fill="none" stroke="midnightblue" d="M304.832,-65.4464C289.6,-54.9015 268.218,-40.0984 252.688,-29.3471"/>
<polygon fill="midnightblue" stroke="midnightblue" points="254.526,-26.3625 244.312,-23.548 250.542,-32.1178 254.526,-26.3625"/>
</g>
<!-- Node20&#45;&gt;Node24 -->
<g id="edge27" class="edge"><title>Node20&#45;&gt;Node24</title>
<path fill="none" stroke="midnightblue" d="M266.914,-65.4464C220.913,-54.8695 156.279,-40.0085 109.486,-29.2493"/>
<polygon fill="midnightblue" stroke="midnightblue" points="110.018,-25.7804 99.4876,-26.9505 108.449,-32.6024 110.018,-25.7804"/>
</g>
<!-- Node20&#45;&gt;Node25 -->
<g id="edge28" class="edge"><title>Node20&#45;&gt;Node25</title>
<path fill="none" stroke="midnightblue" d="M380.046,-65.4464C425.566,-54.903 489.466,-40.1028 535.882,-29.3519"/>
<polygon fill="midnightblue" stroke="midnightblue" points="536.851,-32.7203 545.803,-27.054 535.271,-25.9008 536.851,-32.7203"/>
</g>
<!-- Node20&#45;&gt;Node26 -->
<g id="edge29" class="edge"><title>Node20&#45;&gt;Node26</title>
<path fill="none" stroke="midnightblue" d="M353.731,-65.4464C379.362,-54.3102 415.923,-38.4249 440.888,-27.5782"/>
<polygon fill="midnightblue" stroke="midnightblue" points="442.387,-30.7431 450.164,-23.548 439.597,-24.3229 442.387,-30.7431"/>
</g>
<!-- Node27 -->
<g id="node28" class="node"><title>Node27</title>
<polygon fill="white" stroke="#bfbfbf" points="289.882,-0.5 289.882,-28.5 391.492,-28.5 391.492,-0.5 289.882,-0.5"/>
<text text-anchor="start" x="297.882" y="-16.5" font-family="Helvetica,sans-Serif" font-size="10.00">boost/ptr_container</text>
<text text-anchor="middle" x="340.687" y="-6.5" font-family="Helvetica,sans-Serif" font-size="10.00">/ptr_vector.hpp</text>
</g>
<!-- Node20&#45;&gt;Node27 -->
<g id="edge30" class="edge"><title>Node20&#45;&gt;Node27</title>
<path fill="none" stroke="midnightblue" d="M327.209,-65.4464C329.329,-57.5905 332.087,-47.3713 334.555,-38.2247"/>
<polygon fill="midnightblue" stroke="midnightblue" points="337.943,-39.1035 337.169,-28.5369 331.185,-37.2797 337.943,-39.1035"/>
</g>
<!-- Node30&#45;&gt;Node9 -->
<g id="edge37" class="edge"><title>Node30&#45;&gt;Node9</title>
<path fill="none" stroke="midnightblue" d="M837.704,-130.478C893.052,-121.85 983.148,-107.541 1060.69,-94 1067.25,-92.8534 1074.15,-91.6106 1080.96,-90.3589"/>
<polygon fill="midnightblue" stroke="midnightblue" points="1081.64,-93.792 1090.84,-88.5288 1080.37,-86.9091 1081.64,-93.792"/>
</g>
<!-- Node30&#45;&gt;Node12 -->
<g id="edge43" class="edge"><title>Node30&#45;&gt;Node12</title>
<path fill="none" stroke="midnightblue" d="M846.899,-133.037C954.865,-123.248 1170.96,-102.91 1204.69,-94 1206.4,-93.5465 1208.15,-93.0116 1209.89,-92.421"/>
<polygon fill="midnightblue" stroke="midnightblue" points="1211.58,-95.5172 1219.61,-88.6065 1209.02,-89.0008 1211.58,-95.5172"/>
</g>
<!-- Node30&#45;&gt;Node13 -->
<g id="edge46" class="edge"><title>Node30&#45;&gt;Node13</title>
<path fill="none" stroke="midnightblue" d="M846.534,-134.766C957.414,-127.648 1188.17,-111.296 1266.69,-94 1269.51,-93.3788 1272.41,-92.6072 1275.28,-91.7499"/>
<polygon fill="midnightblue" stroke="midnightblue" points="1276.44,-95.0531 1284.84,-88.5988 1274.25,-88.4048 1276.44,-95.0531"/>
</g>
<!-- Node30&#45;&gt;Node22 -->
<g id="edge44" class="edge"><title>Node30&#45;&gt;Node22</title>
<path fill="none" stroke="midnightblue" d="M762.622,-130.469C745.755,-123.423 723.644,-111.534 710.687,-94 697.687,-76.4076 693.476,-51.1059 692.169,-34.0233"/>
<polygon fill="midnightblue" stroke="midnightblue" points="695.648,-33.5197 691.656,-23.7058 688.657,-33.8673 695.648,-33.5197"/>
</g>
<!-- Node30&#45;&gt;Node25 -->
<g id="edge40" class="edge"><title>Node30&#45;&gt;Node25</title>
<path fill="none" stroke="midnightblue" d="M766.223,-130.445C747.346,-122.299 718.191,-108.821 694.687,-94 666.601,-76.2889 637.115,-52.076 617.705,-35.2431"/>
<polygon fill="midnightblue" stroke="midnightblue" points="619.864,-32.4811 610.037,-28.5213 615.249,-37.7451 619.864,-32.4811"/>
</g>
<!-- Node30&#45;&gt;Node26 -->
<g id="edge39" class="edge"><title>Node30&#45;&gt;Node26</title>
<path fill="none" stroke="midnightblue" d="M756.951,-130.453C729.469,-122.409 687.091,-109.091 651.687,-94 626.266,-83.1642 621.839,-76.4474 596.687,-65 564.959,-50.5595 527.688,-36.4567 501.574,-27.0223"/>
<polygon fill="midnightblue" stroke="midnightblue" points="502.741,-23.7226 492.146,-23.6441 500.379,-30.3123 502.741,-23.7226"/>
</g>
<!-- Node30&#45;&gt;Node29 -->
<g id="edge41" class="edge"><title>Node30&#45;&gt;Node29</title>
<path fill="none" stroke="midnightblue" d="M751.464,-130.496C711.767,-121.212 645.612,-105.741 597.391,-94.463"/>
<polygon fill="midnightblue" stroke="midnightblue" points="597.923,-90.9932 587.389,-92.1239 596.329,-97.8092 597.923,-90.9932"/>
</g>
<!-- Node30&#45;&gt;Node31 -->
<g id="edge38" class="edge"><title>Node30&#45;&gt;Node31</title>
<path fill="none" stroke="midnightblue" d="M814.33,-130.435C850.511,-120.249 912.9,-102.683 953.212,-91.3328"/>
<polygon fill="midnightblue" stroke="midnightblue" points="954.278,-94.6687 962.956,-88.5894 952.381,-87.9307 954.278,-94.6687"/>
</g>
<!-- Node32 -->
<g id="node33" class="node"><title>Node32</title>
<polygon fill="white" stroke="#bfbfbf" points="720.148,-65.5 720.148,-93.5 851.226,-93.5 851.226,-65.5 720.148,-65.5"/>
<text text-anchor="start" x="728.148" y="-81.5" font-family="Helvetica,sans-Serif" font-size="10.00">boost/type_traits/has</text>
<text text-anchor="middle" x="785.687" y="-71.5" font-family="Helvetica,sans-Serif" font-size="10.00">_nothrow_constructor.hpp</text>
</g>
<!-- Node30&#45;&gt;Node32 -->
<g id="edge42" class="edge"><title>Node30&#45;&gt;Node32</title>
<path fill="none" stroke="midnightblue" d="M785.687,-130.435C785.687,-123.56 785.687,-113.324 785.687,-103.906"/>
<polygon fill="midnightblue" stroke="midnightblue" points="789.187,-103.843 785.687,-93.8428 782.187,-103.843 789.187,-103.843"/>
</g>
<!-- Node33 -->
<g id="node34" class="node"><title>Node33</title>
<polygon fill="white" stroke="#bfbfbf" points="869.515,-70.5 869.515,-88.5 913.859,-88.5 913.859,-70.5 869.515,-70.5"/>
<text text-anchor="middle" x="891.687" y="-76.5" font-family="Helvetica,sans-Serif" font-size="10.00">iosfwd</text>
</g>
<!-- Node30&#45;&gt;Node33 -->
<g id="edge45" class="edge"><title>Node30&#45;&gt;Node33</title>
<path fill="none" stroke="midnightblue" d="M800.426,-130.435C817.889,-120.88 847.219,-104.832 867.908,-93.5113"/>
<polygon fill="midnightblue" stroke="midnightblue" points="869.639,-96.5537 876.732,-88.6831 866.279,-90.4129 869.639,-96.5537"/>
</g>
<!-- Node35&#45;&gt;Node15 -->
<g id="edge53" class="edge"><title>Node35&#45;&gt;Node15</title>
<path fill="none" stroke="midnightblue" d="M984.115,-190.435C995.848,-181.362 1015.15,-166.434 1029.6,-155.259"/>
<polygon fill="midnightblue" stroke="midnightblue" points="1032.09,-157.758 1037.86,-148.872 1027.81,-152.221 1032.09,-157.758"/>
</g>
<!-- Node37 -->
<g id="node38" class="node"><title>Node37</title>
<polygon fill="white" stroke="#bfbfbf" points="493.63,-190.5 493.63,-208.5 545.744,-208.5 545.744,-190.5 493.63,-190.5"/>
<text text-anchor="middle" x="519.687" y="-196.5" font-family="Helvetica,sans-Serif" font-size="10.00">memory</text>
</g>
<!-- Node36&#45;&gt;Node37 -->
<g id="edge55" class="edge"><title>Node36&#45;&gt;Node37</title>
<path fill="none" stroke="midnightblue" d="M662.605,-250.435C633.945,-240.421 584.873,-223.276 552.358,-211.915"/>
<polygon fill="midnightblue" stroke="midnightblue" points="553.434,-208.584 542.84,-208.589 551.125,-215.192 553.434,-208.584"/>
</g>
</g>
</svg>
