<?xml version="1.0" encoding="UTF-8" standalone="no"?>
<!DOCTYPE svg PUBLIC "-//W3C//DTD SVG 1.1//EN"
 "http://www.w3.org/Graphics/SVG/1.1/DTD/svg11.dtd">
<!-- Generated by graphviz version 2.38.0 (20140413.2041)
 -->
<!-- Title: ocra::SecondOrderLinearTask Pages: 1 -->
<svg width="1246pt" height="410pt"
 viewBox="0.00 0.00 1245.76 410.00" xmlns="http://www.w3.org/2000/svg" xmlns:xlink="http://www.w3.org/1999/xlink">
<g id="graph0" class="graph" transform="scale(1 1) rotate(0) translate(4 406)">
<title>ocra::SecondOrderLinearTask</title>
<polygon fill="white" stroke="none" points="-4,4 -4,-406 1241.76,-406 1241.76,4 -4,4"/>
<!-- Node17 -->
<g id="node1" class="node"><title>Node17</title>
<polygon fill="#bfbfbf" stroke="black" points="1088.91,-116.5 1088.91,-134.5 1237.76,-134.5 1237.76,-116.5 1088.91,-116.5"/>
<text text-anchor="middle" x="1163.33" y="-122.5" font-family="Helvetica,sans-Serif" font-size="10.00">ocra::SecondOrderLinearTask</text>
</g>
<!-- Node18 -->
<g id="node2" class="node"><title>Node18</title>
<g id="a_node2"><a xlink:href="../../de/d3a/classocra_1_1LinearFunction.html" target="_top" xlink:title="LinearFunction class. ">
<polygon fill="white" stroke="black" points="944.747,-88.5 944.747,-106.5 1051.91,-106.5 1051.91,-88.5 944.747,-88.5"/>
<text text-anchor="middle" x="998.328" y="-94.5" font-family="Helvetica,sans-Serif" font-size="10.00">ocra::LinearFunction</text>
</a>
</g>
</g>
<!-- Node18&#45;&gt;Node17 -->
<g id="edge1" class="edge"><title>Node18&#45;&gt;Node17</title>
<path fill="none" stroke="midnightblue" d="M1061.98,-108.262C1077.73,-110.968 1094.47,-113.844 1109.68,-116.455"/>
<polygon fill="midnightblue" stroke="midnightblue" points="1062.25,-104.757 1051.8,-106.514 1061.06,-111.656 1062.25,-104.757"/>
</g>
<!-- Node19 -->
<g id="node3" class="node"><title>Node19</title>
<g id="a_node3"><a xlink:href="../../d2/d99/classocra_1_1Function.html" target="_top" xlink:title="Function class. ">
<polygon fill="white" stroke="black" points="828.383,-134.5 828.383,-152.5 907.747,-152.5 907.747,-134.5 828.383,-134.5"/>
<text text-anchor="middle" x="868.065" y="-140.5" font-family="Helvetica,sans-Serif" font-size="10.00">ocra::Function</text>
</a>
</g>
</g>
<!-- Node19&#45;&gt;Node17 -->
<g id="edge25" class="edge"><title>Node19&#45;&gt;Node17</title>
<path fill="none" stroke="#9a32cd" stroke-dasharray="5,2" d="M918.153,-140.487C964.761,-137.626 1035.43,-133.289 1088.77,-130.015"/>
<polygon fill="#9a32cd" stroke="#9a32cd" points="917.775,-137.004 908.009,-141.11 918.204,-143.99 917.775,-137.004"/>
<text text-anchor="middle" x="998.328" y="-151.5" font-family="Helvetica,sans-Serif" font-size="10.00"> _f</text>
<text text-anchor="middle" x="998.328" y="-141.5" font-family="Helvetica,sans-Serif" font-size="10.00">_L</text>
</g>
<!-- Node19&#45;&gt;Node18 -->
<g id="edge2" class="edge"><title>Node19&#45;&gt;Node18</title>
<path fill="none" stroke="midnightblue" d="M903.857,-131.022C925.392,-123.299 952.554,-113.558 972.04,-106.569"/>
<polygon fill="midnightblue" stroke="midnightblue" points="902.637,-127.741 894.406,-134.412 905,-134.331 902.637,-127.741"/>
</g>
<!-- Node20 -->
<g id="node4" class="node"><title>Node20</title>
<g id="a_node4"><a xlink:href="../../d3/d16/classocra_1_1ObserverSubject.html" target="_top" xlink:title="ocra::ObserverSubject">
<polygon fill="white" stroke="black" points="386.068,-239.5 386.068,-257.5 501.556,-257.5 501.556,-239.5 386.068,-239.5"/>
<text text-anchor="middle" x="443.812" y="-245.5" font-family="Helvetica,sans-Serif" font-size="10.00">ocra::ObserverSubject</text>
</a>
</g>
</g>
<!-- Node20&#45;&gt;Node19 -->
<g id="edge3" class="edge"><title>Node20&#45;&gt;Node19</title>
<path fill="none" stroke="midnightblue" d="M511.916,-251.384C574.158,-252.153 668.671,-248.428 746.792,-224.5 793.73,-210.123 838.945,-170.651 857.828,-152.656"/>
<polygon fill="midnightblue" stroke="midnightblue" points="511.886,-247.883 501.83,-251.216 511.77,-254.882 511.886,-247.883"/>
</g>
<!-- Node36 -->
<g id="node20" class="node"><title>Node36</title>
<g id="a_node20"><a xlink:href="../../d2/dac/classocra_1_1Variable.html" target="_top" xlink:title="This class represents a variable in a mathematical sense. ">
<polygon fill="white" stroke="black" points="626.412,-279.5 626.412,-297.5 703.374,-297.5 703.374,-279.5 626.412,-279.5"/>
<text text-anchor="middle" x="664.893" y="-285.5" font-family="Helvetica,sans-Serif" font-size="10.00">ocra::Variable</text>
</a>
</g>
</g>
<!-- Node20&#45;&gt;Node36 -->
<g id="edge21" class="edge"><title>Node20&#45;&gt;Node36</title>
<path fill="none" stroke="midnightblue" d="M504.39,-259.378C543.234,-266.47 592.746,-275.51 626.224,-281.622"/>
<polygon fill="midnightblue" stroke="midnightblue" points="504.717,-255.88 494.251,-257.527 503.46,-262.766 504.717,-255.88"/>
</g>
<!-- Node21 -->
<g id="node5" class="node"><title>Node21</title>
<g id="a_node5"><a xlink:href="../../d2/d45/classocra_1_1Observer.html" target="_top" xlink:title="ocra::Observer">
<polygon fill="white" stroke="black" points="222.497,-307.5 222.497,-325.5 304.63,-325.5 304.63,-307.5 222.497,-307.5"/>
<text text-anchor="middle" x="263.563" y="-313.5" font-family="Helvetica,sans-Serif" font-size="10.00">ocra::Observer</text>
</a>
</g>
</g>
<!-- Node21&#45;&gt;Node20 -->
<g id="edge4" class="edge"><title>Node21&#45;&gt;Node20</title>
<path fill="none" stroke="midnightblue" d="M284.539,-301.224C299.495,-290.514 320.869,-276.698 341.63,-268.5 355.537,-263.008 371.136,-258.971 385.844,-256.024"/>
<polygon fill="midnightblue" stroke="midnightblue" points="282.103,-298.67 276.118,-307.413 286.249,-304.311 282.103,-298.67"/>
</g>
<!-- Node22 -->
<g id="node6" class="node"><title>Node22</title>
<g id="a_node6"><a xlink:href="../../d4/dee/classocra_1_1ObserverBase.html" target="_top" xlink:title="ocra::ObserverBase\l\&lt; EVT_RESIZE \&gt;">
<polygon fill="white" stroke="black" points="40.2856,-373.5 40.2856,-401.5 145.211,-401.5 145.211,-373.5 40.2856,-373.5"/>
<text text-anchor="start" x="48.2856" y="-389.5" font-family="Helvetica,sans-Serif" font-size="10.00">ocra::ObserverBase</text>
<text text-anchor="middle" x="92.7485" y="-379.5" font-family="Helvetica,sans-Serif" font-size="10.00">&lt; EVT_RESIZE &gt;</text>
</a>
</g>
</g>
<!-- Node22&#45;&gt;Node21 -->
<g id="edge5" class="edge"><title>Node22&#45;&gt;Node21</title>
<path fill="none" stroke="midnightblue" d="M155.334,-374.047C165.579,-371.058 175.966,-367.549 185.497,-363.5 209.873,-353.144 235.651,-335.978 250.357,-325.507"/>
<polygon fill="midnightblue" stroke="midnightblue" points="154.285,-370.705 145.586,-376.754 156.158,-377.45 154.285,-370.705"/>
</g>
<!-- Node23 -->
<g id="node7" class="node"><title>Node23</title>
<g id="a_node7"><a xlink:href="../../d4/dee/classocra_1_1ObserverBase.html" target="_top" xlink:title="ocra::ObserverBase\l\&lt; EVT_CHANGE_DEPENDENCIES \&gt;">
<polygon fill="white" stroke="black" points="0,-326.5 0,-354.5 185.497,-354.5 185.497,-326.5 0,-326.5"/>
<text text-anchor="start" x="8" y="-342.5" font-family="Helvetica,sans-Serif" font-size="10.00">ocra::ObserverBase</text>
<text text-anchor="middle" x="92.7485" y="-332.5" font-family="Helvetica,sans-Serif" font-size="10.00">&lt; EVT_CHANGE_DEPENDENCIES &gt;</text>
</a>
</g>
</g>
<!-- Node23&#45;&gt;Node21 -->
<g id="edge6" class="edge"><title>Node23&#45;&gt;Node21</title>
<path fill="none" stroke="midnightblue" d="M195.725,-326.002C205,-324.684 213.979,-323.407 222.187,-322.24"/>
<polygon fill="midnightblue" stroke="midnightblue" points="194.974,-322.574 185.566,-327.447 195.959,-329.504 194.974,-322.574"/>
</g>
<!-- Node24 -->
<g id="node8" class="node"><title>Node24</title>
<g id="a_node8"><a xlink:href="../../d4/dee/classocra_1_1ObserverBase.html" target="_top" xlink:title="ocra::ObserverBase\l\&lt; EVT_CHANGE_VALUE \&gt;">
<polygon fill="white" stroke="black" points="23.4253,-279.5 23.4253,-307.5 162.072,-307.5 162.072,-279.5 23.4253,-279.5"/>
<text text-anchor="start" x="31.4253" y="-295.5" font-family="Helvetica,sans-Serif" font-size="10.00">ocra::ObserverBase</text>
<text text-anchor="middle" x="92.7485" y="-285.5" font-family="Helvetica,sans-Serif" font-size="10.00">&lt; EVT_CHANGE_VALUE &gt;</text>
</a>
</g>
</g>
<!-- Node24&#45;&gt;Node21 -->
<g id="edge7" class="edge"><title>Node24&#45;&gt;Node21</title>
<path fill="none" stroke="midnightblue" d="M172.466,-304.225C189.64,-306.565 207.13,-308.948 222.074,-310.984"/>
<polygon fill="midnightblue" stroke="midnightblue" points="172.793,-300.737 162.412,-302.855 171.848,-307.673 172.793,-300.737"/>
</g>
<!-- Node25 -->
<g id="node9" class="node"><title>Node25</title>
<g id="a_node9"><a xlink:href="../../dc/d77/classocra_1_1Subject.html" target="_top" xlink:title="ocra::Subject">
<polygon fill="white" stroke="black" points="226.381,-210.5 226.381,-228.5 300.746,-228.5 300.746,-210.5 226.381,-210.5"/>
<text text-anchor="middle" x="263.563" y="-216.5" font-family="Helvetica,sans-Serif" font-size="10.00">ocra::Subject</text>
</a>
</g>
</g>
<!-- Node25&#45;&gt;Node20 -->
<g id="edge8" class="edge"><title>Node25&#45;&gt;Node20</title>
<path fill="none" stroke="midnightblue" d="M311.07,-227.066C334.43,-230.867 362.898,-235.499 387.386,-239.483"/>
<polygon fill="midnightblue" stroke="midnightblue" points="311.497,-223.59 301.065,-225.439 310.373,-230.499 311.497,-223.59"/>
</g>
<!-- Node26 -->
<g id="node10" class="node"><title>Node26</title>
<g id="a_node10"><a xlink:href="../../dc/d29/classocra_1_1SubjectBase.html" target="_top" xlink:title="ocra::SubjectBase\&lt;\l EVT_RESIZE \&gt;">
<polygon fill="white" stroke="black" points="41.25,-232.5 41.25,-260.5 144.247,-260.5 144.247,-232.5 41.25,-232.5"/>
<text text-anchor="start" x="49.25" y="-248.5" font-family="Helvetica,sans-Serif" font-size="10.00">ocra::SubjectBase&lt;</text>
<text text-anchor="middle" x="92.7485" y="-238.5" font-family="Helvetica,sans-Serif" font-size="10.00"> EVT_RESIZE &gt;</text>
</a>
</g>
</g>
<!-- Node26&#45;&gt;Node25 -->
<g id="edge9" class="edge"><title>Node26&#45;&gt;Node25</title>
<path fill="none" stroke="midnightblue" d="M154.489,-236.785C178.489,-232.947 205.266,-228.664 226.162,-225.322"/>
<polygon fill="midnightblue" stroke="midnightblue" points="153.72,-233.364 144.399,-238.399 154.826,-240.276 153.72,-233.364"/>
</g>
<!-- Node27 -->
<g id="node11" class="node"><title>Node27</title>
<g id="a_node11"><a xlink:href="../../dc/d29/classocra_1_1SubjectBase.html" target="_top" xlink:title="ocra::SubjectBase\&lt;\l EVT_CHANGE_DEPENDENCIES \&gt;">
<polygon fill="white" stroke="black" points="2.91992,-185.5 2.91992,-213.5 182.577,-213.5 182.577,-185.5 2.91992,-185.5"/>
<text text-anchor="start" x="10.9199" y="-201.5" font-family="Helvetica,sans-Serif" font-size="10.00">ocra::SubjectBase&lt;</text>
<text text-anchor="middle" x="92.7485" y="-191.5" font-family="Helvetica,sans-Serif" font-size="10.00"> EVT_CHANGE_DEPENDENCIES &gt;</text>
</a>
</g>
</g>
<!-- Node27&#45;&gt;Node25 -->
<g id="edge10" class="edge"><title>Node27&#45;&gt;Node25</title>
<path fill="none" stroke="midnightblue" d="M192.668,-211.219C204.562,-212.628 216.06,-213.991 226.178,-215.189"/>
<polygon fill="midnightblue" stroke="midnightblue" points="192.948,-207.728 182.605,-210.027 192.124,-214.679 192.948,-207.728"/>
</g>
<!-- Node28 -->
<g id="node12" class="node"><title>Node28</title>
<g id="a_node12"><a xlink:href="../../dc/d29/classocra_1_1SubjectBase.html" target="_top" xlink:title="ocra::SubjectBase\&lt;\l EVT_CHANGE_VALUE \&gt;">
<polygon fill="white" stroke="black" points="26.3452,-138.5 26.3452,-166.5 159.152,-166.5 159.152,-138.5 26.3452,-138.5"/>
<text text-anchor="start" x="34.3452" y="-154.5" font-family="Helvetica,sans-Serif" font-size="10.00">ocra::SubjectBase&lt;</text>
<text text-anchor="middle" x="92.7485" y="-144.5" font-family="Helvetica,sans-Serif" font-size="10.00"> EVT_CHANGE_VALUE &gt;</text>
</a>
</g>
</g>
<!-- Node28&#45;&gt;Node25 -->
<g id="edge11" class="edge"><title>Node28&#45;&gt;Node25</title>
<path fill="none" stroke="midnightblue" d="M168.784,-169.498C174.5,-171.342 180.129,-173.342 185.497,-175.5 209.084,-184.981 234.281,-200.519 249.214,-210.367"/>
<polygon fill="midnightblue" stroke="midnightblue" points="169.7,-166.119 159.114,-166.542 167.653,-172.813 169.7,-166.119"/>
</g>
<!-- Node29 -->
<g id="node13" class="node"><title>Node29</title>
<g id="a_node13"><a xlink:href="../../dd/d68/classocra_1_1IFunctionProperties.html" target="_top" xlink:title="ocra::IFunctionProperties">
<polygon fill="white" stroke="black" points="601.034,-197.5 601.034,-215.5 728.752,-215.5 728.752,-197.5 601.034,-197.5"/>
<text text-anchor="middle" x="664.893" y="-203.5" font-family="Helvetica,sans-Serif" font-size="10.00">ocra::IFunctionProperties</text>
</a>
</g>
</g>
<!-- Node29&#45;&gt;Node19 -->
<g id="edge12" class="edge"><title>Node29&#45;&gt;Node19</title>
<path fill="none" stroke="midnightblue" d="M717.623,-195.069C727.353,-192.716 737.414,-190.144 746.792,-187.5 775.439,-179.423 782.446,-176.768 810.383,-166.5 822.145,-162.177 835.107,-156.952 845.663,-152.576"/>
<polygon fill="midnightblue" stroke="midnightblue" points="716.567,-191.722 707.645,-197.436 718.183,-198.533 716.567,-191.722"/>
</g>
<!-- Node30 -->
<g id="node14" class="node"><title>Node30</title>
<polygon fill="white" stroke="#bfbfbf" points="582.994,-150.5 582.994,-178.5 746.792,-178.5 746.792,-150.5 582.994,-150.5"/>
<text text-anchor="start" x="590.994" y="-166.5" font-family="Helvetica,sans-Serif" font-size="10.00">OCRA_FUNCTION_INTERFACE</text>
<text text-anchor="middle" x="664.893" y="-156.5" font-family="Helvetica,sans-Serif" font-size="10.00">_INHERITANCEpublic</text>
</g>
<!-- Node30&#45;&gt;Node19 -->
<g id="edge13" class="edge"><title>Node30&#45;&gt;Node19</title>
<path fill="none" stroke="#8b1a1a" d="M757.118,-154.977C782.113,-152.368 807.885,-149.678 828.189,-147.558"/>
<polygon fill="#8b1a1a" stroke="#8b1a1a" points="756.43,-151.53 746.848,-156.049 757.157,-158.492 756.43,-151.53"/>
</g>
<!-- Node31 -->
<g id="node15" class="node"><title>Node31</title>
<g id="a_node15"><a xlink:href="../../db/de3/classocra_1_1NamedInstance.html" target="_top" xlink:title="ocra::NamedInstance">
<polygon fill="white" stroke="black" points="609.369,-113.5 609.369,-131.5 720.417,-131.5 720.417,-113.5 609.369,-113.5"/>
<text text-anchor="middle" x="664.893" y="-119.5" font-family="Helvetica,sans-Serif" font-size="10.00">ocra::NamedInstance</text>
</a>
</g>
</g>
<!-- Node31&#45;&gt;Node19 -->
<g id="edge14" class="edge"><title>Node31&#45;&gt;Node19</title>
<path fill="none" stroke="midnightblue" d="M730.822,-129.278C762.976,-132.634 800.714,-136.574 828.309,-139.454"/>
<polygon fill="midnightblue" stroke="midnightblue" points="730.908,-125.768 720.598,-128.211 730.181,-132.73 730.908,-125.768"/>
</g>
<!-- Node32 -->
<g id="node16" class="node"><title>Node32</title>
<g id="a_node16"><a xlink:href="../../d8/d24/classocra_1_1AbilitySet.html" target="_top" xlink:title="ocra::AbilitySet">
<polygon fill="white" stroke="black" points="623.546,-76.5 623.546,-94.5 706.24,-94.5 706.24,-76.5 623.546,-76.5"/>
<text text-anchor="middle" x="664.893" y="-82.5" font-family="Helvetica,sans-Serif" font-size="10.00">ocra::AbilitySet</text>
</a>
</g>
</g>
<!-- Node32&#45;&gt;Node19 -->
<g id="edge15" class="edge"><title>Node32&#45;&gt;Node19</title>
<path fill="none" stroke="midnightblue" d="M716.366,-95.8946C726.489,-98.2137 737.016,-100.794 746.792,-103.5 780.301,-112.774 818.261,-125.837 842.415,-134.48"/>
<polygon fill="midnightblue" stroke="midnightblue" points="716.943,-92.4373 706.42,-93.6676 715.414,-99.2682 716.943,-92.4373"/>
</g>
<!-- Node33 -->
<g id="node17" class="node"><title>Node33</title>
<g id="a_node17"><a xlink:href="../../d5/dc0/classocra_1_1CoupledInputOutputSize.html" target="_top" xlink:title="ocra::CoupledInputOutputSize">
<polygon fill="white" stroke="black" points="589.906,-39.5 589.906,-57.5 739.88,-57.5 739.88,-39.5 589.906,-39.5"/>
<text text-anchor="middle" x="664.893" y="-45.5" font-family="Helvetica,sans-Serif" font-size="10.00">ocra::CoupledInputOutputSize</text>
</a>
</g>
</g>
<!-- Node33&#45;&gt;Node19 -->
<g id="edge16" class="edge"><title>Node33&#45;&gt;Node19</title>
<path fill="none" stroke="midnightblue" d="M728.384,-60.2054C734.691,-62.0378 740.928,-64.1268 746.792,-66.5 790.459,-84.1713 835.559,-118.027 855.912,-134.309"/>
<polygon fill="midnightblue" stroke="midnightblue" points="729.022,-56.7528 718.456,-57.5332 727.203,-63.5122 729.022,-56.7528"/>
</g>
<!-- Node34 -->
<g id="node18" class="node"><title>Node34</title>
<polygon fill="white" stroke="#bfbfbf" points="636.6,-0.5 636.6,-18.5 693.186,-18.5 693.186,-0.5 636.6,-0.5"/>
<text text-anchor="middle" x="664.893" y="-6.5" font-family="Helvetica,sans-Serif" font-size="10.00">VectorXd</text>
</g>
<!-- Node34&#45;&gt;Node18 -->
<g id="edge24" class="edge"><title>Node34&#45;&gt;Node18</title>
<path fill="none" stroke="#9a32cd" stroke-dasharray="5,2" d="M703.579,-13.6458C732.953,-17.3211 774.62,-23.5115 810.383,-32.5 871.368,-47.8279 940.693,-74.4568 975.271,-88.3972"/>
<polygon fill="#9a32cd" stroke="#9a32cd" points="703.695,-10.1343 693.347,-12.405 702.853,-17.0834 703.695,-10.1343"/>
<text text-anchor="middle" x="868.065" y="-65.5" font-family="Helvetica,sans-Serif" font-size="10.00"> _b</text>
</g>
<!-- Node34&#45;&gt;Node19 -->
<g id="edge17" class="edge"><title>Node34&#45;&gt;Node19</title>
<path fill="none" stroke="#9a32cd" stroke-dasharray="5,2" d="M703.599,-15.5246C735.256,-22.2621 780.048,-35.9239 810.383,-62.5 834.912,-83.9898 854.253,-118.199 862.596,-134.41"/>
<polygon fill="#9a32cd" stroke="#9a32cd" points="703.897,-12.0154 693.407,-13.4965 702.531,-18.8808 703.897,-12.0154"/>
<text text-anchor="middle" x="787.587" y="-64.5" font-family="Helvetica,sans-Serif" font-size="10.00"> _value</text>
</g>
<!-- Node35 -->
<g id="node19" class="node"><title>Node35</title>
<polygon fill="white" stroke="#bfbfbf" points="637.167,-316.5 637.167,-334.5 692.62,-334.5 692.62,-316.5 637.167,-316.5"/>
<text text-anchor="middle" x="664.893" y="-322.5" font-family="Helvetica,sans-Serif" font-size="10.00">MatrixXd</text>
</g>
<!-- Node35&#45;&gt;Node19 -->
<g id="edge18" class="edge"><title>Node35&#45;&gt;Node19</title>
<path fill="none" stroke="#9a32cd" stroke-dasharray="5,2" d="M702.978,-326.62C735.019,-325.616 780.719,-319.19 810.383,-293.5 854.576,-255.228 864.407,-178.809 866.513,-152.582"/>
<polygon fill="#9a32cd" stroke="#9a32cd" points="702.625,-323.125 692.678,-326.773 702.728,-330.124 702.625,-323.125"/>
<text text-anchor="middle" x="787.587" y="-319.5" font-family="Helvetica,sans-Serif" font-size="10.00"> _jacobian</text>
</g>
<!-- Node36&#45;&gt;Node19 -->
<g id="edge19" class="edge"><title>Node36&#45;&gt;Node19</title>
<path fill="none" stroke="#9a32cd" stroke-dasharray="5,2" d="M713.436,-288.543C743.963,-286.278 782.894,-278.85 810.383,-257.5 845.819,-229.977 860.697,-174.421 865.339,-152.596"/>
<polygon fill="#9a32cd" stroke="#9a32cd" points="713.213,-285.05 703.434,-289.126 713.621,-292.038 713.213,-285.05"/>
<text text-anchor="middle" x="787.587" y="-281.5" font-family="Helvetica,sans-Serif" font-size="10.00"> x</text>
</g>
<!-- Node37 -->
<g id="node21" class="node"><title>Node37</title>
<g id="a_node21"><a xlink:href="../../d0/d29/classocra_1_1Component.html" target="_top" xlink:title="ocra::Component\&lt; Variable,\l CompositeVariable, VariableParenthood \&gt;">
<polygon fill="white" stroke="black" points="341.63,-362.5 341.63,-390.5 545.994,-390.5 545.994,-362.5 341.63,-362.5"/>
<text text-anchor="start" x="349.63" y="-378.5" font-family="Helvetica,sans-Serif" font-size="10.00">ocra::Component&lt; Variable,</text>
<text text-anchor="middle" x="443.812" y="-368.5" font-family="Helvetica,sans-Serif" font-size="10.00"> CompositeVariable, VariableParenthood &gt;</text>
</a>
</g>
</g>
<!-- Node37&#45;&gt;Node36 -->
<g id="edge20" class="edge"><title>Node37&#45;&gt;Node36</title>
<path fill="none" stroke="midnightblue" d="M535.389,-358.352C539.06,-356.58 542.613,-354.635 545.994,-352.5 568.18,-338.493 560.711,-320.352 582.994,-306.5 595.825,-298.524 611.74,-294.063 626.051,-291.575"/>
<polygon fill="midnightblue" stroke="midnightblue" points="533.83,-355.213 526.055,-362.41 536.621,-361.632 533.83,-355.213"/>
</g>
<!-- Node38 -->
<g id="node22" class="node"><title>Node38</title>
<polygon fill="white" stroke="#bfbfbf" points="407.455,-325.5 407.455,-343.5 480.169,-343.5 480.169,-325.5 407.455,-325.5"/>
<text text-anchor="middle" x="443.812" y="-331.5" font-family="Helvetica,sans-Serif" font-size="10.00">noncopyable</text>
</g>
<!-- Node38&#45;&gt;Node36 -->
<g id="edge22" class="edge"><title>Node38&#45;&gt;Node36</title>
<path fill="none" stroke="#8b1a1a" d="M490.42,-326.466C507.849,-323.257 527.883,-319.4 545.994,-315.5 562.539,-311.937 566.511,-310.338 582.994,-306.5 597.148,-303.204 612.726,-299.707 626.401,-296.681"/>
<polygon fill="#8b1a1a" stroke="#8b1a1a" points="489.703,-323.039 480.493,-328.276 490.958,-329.926 489.703,-323.039"/>
</g>
<!-- Node39 -->
<g id="node23" class="node"><title>Node39</title>
<g id="a_node23"><a xlink:href="../../dc/d20/classocra_1_1VariableHasRestrictedClassDerivation.html" target="_top" xlink:title="ocra::VariableHasRestricted\lClassDerivation">
<polygon fill="white" stroke="black" points="373.932,-278.5 373.932,-306.5 513.692,-306.5 513.692,-278.5 373.932,-278.5"/>
<text text-anchor="start" x="381.932" y="-294.5" font-family="Helvetica,sans-Serif" font-size="10.00">ocra::VariableHasRestricted</text>
<text text-anchor="middle" x="443.812" y="-284.5" font-family="Helvetica,sans-Serif" font-size="10.00">ClassDerivation</text>
</a>
</g>
</g>
<!-- Node39&#45;&gt;Node36 -->
<g id="edge23" class="edge"><title>Node39&#45;&gt;Node36</title>
<path fill="none" stroke="#8b1a1a" d="M523.996,-291.054C558.816,-290.419 598.079,-289.702 626.126,-289.19"/>
<polygon fill="#8b1a1a" stroke="#8b1a1a" points="523.764,-287.558 513.83,-291.24 523.892,-294.557 523.764,-287.558"/>
</g>
</g>
</svg>
