<?xml version="1.0" encoding="UTF-8" standalone="no"?>
<!DOCTYPE svg PUBLIC "-//W3C//DTD SVG 1.1//EN"
 "http://www.w3.org/Graphics/SVG/1.1/DTD/svg11.dtd">
<!-- Generated by graphviz version 2.38.0 (20140413.2041)
 -->
<!-- Title: WeightedSquareDistanceFunction.cpp Pages: 1 -->
<svg width="1656pt" height="452pt"
 viewBox="0.00 0.00 1656.44 452.00" xmlns="http://www.w3.org/2000/svg" xmlns:xlink="http://www.w3.org/1999/xlink">
<g id="graph0" class="graph" transform="scale(1 1) rotate(0) translate(4 448)">
<title>WeightedSquareDistanceFunction.cpp</title>
<polygon fill="white" stroke="none" points="-4,4 -4,-448 1652.44,-448 1652.44,4 -4,4"/>
<!-- Node0 -->
<g id="node1" class="node"><title>Node0</title>
<polygon fill="#bfbfbf" stroke="black" points="873.566,-425.5 873.566,-443.5 1060.04,-443.5 1060.04,-425.5 873.566,-425.5"/>
<text text-anchor="middle" x="966.805" y="-431.5" font-family="Helvetica,sans-Serif" font-size="10.00">WeightedSquareDistanceFunction.cpp</text>
</g>
<!-- Node1 -->
<g id="node2" class="node"><title>Node1</title>
<g id="a_node2"><a xlink:href="../../d8/d6a/WeightedSquareDistanceFunction_8h.html" target="_top" xlink:title="Declaration file of the WeightedSquareDistanceFunction class. ">
<polygon fill="white" stroke="black" points="794.916,-360.5 794.916,-388.5 934.695,-388.5 934.695,-360.5 794.916,-360.5"/>
<text text-anchor="start" x="802.916" y="-376.5" font-family="Helvetica,sans-Serif" font-size="10.00">ocra/optim/WeightedSquare</text>
<text text-anchor="middle" x="864.805" y="-366.5" font-family="Helvetica,sans-Serif" font-size="10.00">DistanceFunction.h</text>
</a>
</g>
</g>
<!-- Node0&#45;&gt;Node1 -->
<g id="edge1" class="edge"><title>Node0&#45;&gt;Node1</title>
<path fill="none" stroke="midnightblue" d="M952.623,-425.435C938.228,-417.25 915.454,-404.3 896.705,-393.639"/>
<polygon fill="midnightblue" stroke="midnightblue" points="898.302,-390.521 887.879,-388.62 894.842,-396.606 898.302,-390.521"/>
</g>
<!-- Node12 -->
<g id="node13" class="node"><title>Node12</title>
<polygon fill="white" stroke="#bfbfbf" points="1441.4,-70.5 1441.4,-88.5 1500.21,-88.5 1500.21,-70.5 1441.4,-70.5"/>
<text text-anchor="middle" x="1470.81" y="-76.5" font-family="Helvetica,sans-Serif" font-size="10.00">stdexcept</text>
</g>
<!-- Node0&#45;&gt;Node12 -->
<g id="edge56" class="edge"><title>Node0&#45;&gt;Node12</title>
<path fill="none" stroke="midnightblue" d="M1060.29,-430.235C1204.26,-422.626 1463.81,-397.532 1463.81,-315.5 1463.81,-315.5 1463.81,-315.5 1463.81,-198.5 1463.81,-163.037 1466.99,-121.684 1469.07,-98.5508"/>
<polygon fill="midnightblue" stroke="midnightblue" points="1472.56,-98.7837 1470,-88.5026 1465.59,-98.1355 1472.56,-98.7837"/>
</g>
<!-- Node17 -->
<g id="node18" class="node"><title>Node17</title>
<g id="a_node18"><a xlink:href="../../d7/d90/Variable_8h.html" target="_top" xlink:title="Declaration file of the Variable class. ">
<polygon fill="white" stroke="black" points="805.928,-190.5 805.928,-208.5 915.683,-208.5 915.683,-190.5 805.928,-190.5"/>
<text text-anchor="middle" x="860.805" y="-196.5" font-family="Helvetica,sans-Serif" font-size="10.00">ocra/optim/Variable.h</text>
</a>
</g>
</g>
<!-- Node0&#45;&gt;Node17 -->
<g id="edge57" class="edge"><title>Node0&#45;&gt;Node17</title>
<path fill="none" stroke="midnightblue" d="M967.256,-425.186C968.333,-397.323 968.292,-305.862 925.805,-250 914.642,-235.323 898.055,-222.788 884.431,-214.004"/>
<polygon fill="midnightblue" stroke="midnightblue" points="885.924,-210.812 875.575,-208.541 882.249,-216.77 885.924,-210.812"/>
</g>
<!-- Node2 -->
<g id="node3" class="node"><title>Node2</title>
<g id="a_node3"><a xlink:href="../../d4/d83/QuadraticFunction_8h.html" target="_top" xlink:title="Declaration file of the QuadraticFunction class. ">
<polygon fill="white" stroke="black" points="783.049,-305.5 783.049,-323.5 938.561,-323.5 938.561,-305.5 783.049,-305.5"/>
<text text-anchor="middle" x="860.805" y="-311.5" font-family="Helvetica,sans-Serif" font-size="10.00">ocra/optim/QuadraticFunction.h</text>
</a>
</g>
</g>
<!-- Node1&#45;&gt;Node2 -->
<g id="edge2" class="edge"><title>Node1&#45;&gt;Node2</title>
<path fill="none" stroke="midnightblue" d="M863.898,-360.339C863.359,-352.531 862.668,-342.512 862.076,-333.927"/>
<polygon fill="midnightblue" stroke="midnightblue" points="865.555,-333.507 861.376,-323.771 858.572,-333.989 865.555,-333.507"/>
</g>
<!-- Node3 -->
<g id="node4" class="node"><title>Node3</title>
<g id="a_node4"><a xlink:href="../../df/df5/Function_8h.html" target="_top" xlink:title="Declaration file of the Function class. ">
<polygon fill="white" stroke="black" points="804.727,-250.5 804.727,-268.5 916.884,-268.5 916.884,-250.5 804.727,-250.5"/>
<text text-anchor="middle" x="860.805" y="-256.5" font-family="Helvetica,sans-Serif" font-size="10.00">ocra/optim/Function.h</text>
</a>
</g>
</g>
<!-- Node2&#45;&gt;Node3 -->
<g id="edge3" class="edge"><title>Node2&#45;&gt;Node3</title>
<path fill="none" stroke="midnightblue" d="M860.805,-305.219C860.805,-298.177 860.805,-287.808 860.805,-278.828"/>
<polygon fill="midnightblue" stroke="midnightblue" points="864.305,-278.55 860.805,-268.55 857.305,-278.55 864.305,-278.55"/>
</g>
<!-- Node8 -->
<g id="node9" class="node"><title>Node8</title>
<g id="a_node9"><a xlink:href="../../de/df3/ocra__assert_8h.html" target="_top" xlink:title="ocra/optim/ocra_assert.h">
<polygon fill="white" stroke="black" points="1224.78,-70.5 1224.78,-88.5 1350.83,-88.5 1350.83,-70.5 1224.78,-70.5"/>
<text text-anchor="middle" x="1287.81" y="-76.5" font-family="Helvetica,sans-Serif" font-size="10.00">ocra/optim/ocra_assert.h</text>
</a>
</g>
</g>
<!-- Node2&#45;&gt;Node8 -->
<g id="edge53" class="edge"><title>Node2&#45;&gt;Node8</title>
<path fill="none" stroke="midnightblue" d="M933.931,-305.47C1038.88,-292.381 1224.49,-262.882 1268.81,-214 1297.69,-182.142 1294.91,-127.268 1291.03,-98.8105"/>
<polygon fill="midnightblue" stroke="midnightblue" points="1294.45,-98.0205 1289.44,-88.6819 1287.53,-99.1028 1294.45,-98.0205"/>
</g>
<!-- Node35 -->
<g id="node36" class="node"><title>Node35</title>
<g id="a_node36"><a xlink:href="../../df/d0a/Macros_8h.html" target="_top" xlink:title="ocra/util/Macros.h">
<polygon fill="white" stroke="black" points="514.347,-250.5 514.347,-268.5 609.263,-268.5 609.263,-250.5 514.347,-250.5"/>
<text text-anchor="middle" x="561.805" y="-256.5" font-family="Helvetica,sans-Serif" font-size="10.00">ocra/util/Macros.h</text>
</a>
</g>
</g>
<!-- Node2&#45;&gt;Node35 -->
<g id="edge54" class="edge"><title>Node2&#45;&gt;Node35</title>
<path fill="none" stroke="midnightblue" d="M815.394,-305.45C762.224,-296.026 674.184,-280.42 617.089,-270.299"/>
<polygon fill="midnightblue" stroke="midnightblue" points="617.611,-266.837 607.153,-268.538 616.389,-273.73 617.611,-266.837"/>
</g>
<!-- Node4 -->
<g id="node5" class="node"><title>Node4</title>
<g id="a_node5"><a xlink:href="../../de/d94/IFunction_8h.html" target="_top" xlink:title="Declaration file of the IFunction interface. ">
<polygon fill="white" stroke="black" points="1315.34,-130.5 1315.34,-148.5 1430.27,-148.5 1430.27,-130.5 1315.34,-130.5"/>
<text text-anchor="middle" x="1372.81" y="-136.5" font-family="Helvetica,sans-Serif" font-size="10.00">ocra/optim/IFunction.h</text>
</a>
</g>
</g>
<!-- Node3&#45;&gt;Node4 -->
<g id="edge4" class="edge"><title>Node3&#45;&gt;Node4</title>
<path fill="none" stroke="midnightblue" d="M917.087,-252.405C957.898,-246.448 1013.63,-235.075 1058.81,-214 1078.06,-205.019 1077.29,-193.388 1096.81,-185 1164.01,-156.122 1247.73,-145.823 1305.24,-142.236"/>
<polygon fill="midnightblue" stroke="midnightblue" points="1305.52,-145.725 1315.31,-141.659 1305.12,-138.737 1305.52,-145.725"/>
</g>
<!-- Node13 -->
<g id="node14" class="node"><title>Node13</title>
<g id="a_node14"><a xlink:href="../../d9/d54/IFunctionProperties_8h.html" target="_top" xlink:title="ocra/optim/IFunctionProperties.h">
<polygon fill="white" stroke="black" points="465.549,-190.5 465.549,-208.5 626.061,-208.5 626.061,-190.5 465.549,-190.5"/>
<text text-anchor="middle" x="545.805" y="-196.5" font-family="Helvetica,sans-Serif" font-size="10.00">ocra/optim/IFunctionProperties.h</text>
</a>
</g>
</g>
<!-- Node3&#45;&gt;Node13 -->
<g id="edge13" class="edge"><title>Node3&#45;&gt;Node13</title>
<path fill="none" stroke="midnightblue" d="M817.336,-250.496C760.421,-240.017 660.686,-221.653 599.228,-210.336"/>
<polygon fill="midnightblue" stroke="midnightblue" points="599.802,-206.883 589.333,-208.515 598.534,-213.768 599.802,-206.883"/>
</g>
<!-- Node15 -->
<g id="node16" class="node"><title>Node15</title>
<g id="a_node16"><a xlink:href="../../db/d47/AbilitySet_8h.html" target="_top" xlink:title="ocra/optim/AbilitySet.h">
<polygon fill="white" stroke="black" points="934.062,-190.5 934.062,-208.5 1049.55,-208.5 1049.55,-190.5 934.062,-190.5"/>
<text text-anchor="middle" x="991.805" y="-196.5" font-family="Helvetica,sans-Serif" font-size="10.00">ocra/optim/AbilitySet.h</text>
</a>
</g>
</g>
<!-- Node3&#45;&gt;Node15 -->
<g id="edge16" class="edge"><title>Node3&#45;&gt;Node15</title>
<path fill="none" stroke="midnightblue" d="M879.02,-250.435C901.088,-240.665 938.49,-224.105 964.129,-212.754"/>
<polygon fill="midnightblue" stroke="midnightblue" points="965.596,-215.932 973.323,-208.683 962.762,-209.531 965.596,-215.932"/>
</g>
<!-- Node16 -->
<g id="node17" class="node"><title>Node16</title>
<g id="a_node17"><a xlink:href="../../d1/d87/CoupledInputOutputSize_8h.html" target="_top" xlink:title="ocra/optim/CoupledInputOutput\lSize.h">
<polygon fill="white" stroke="black" points="1105.32,-185.5 1105.32,-213.5 1260.29,-213.5 1260.29,-185.5 1105.32,-185.5"/>
<text text-anchor="start" x="1113.32" y="-201.5" font-family="Helvetica,sans-Serif" font-size="10.00">ocra/optim/CoupledInputOutput</text>
<text text-anchor="middle" x="1182.81" y="-191.5" font-family="Helvetica,sans-Serif" font-size="10.00">Size.h</text>
</a>
</g>
</g>
<!-- Node3&#45;&gt;Node16 -->
<g id="edge19" class="edge"><title>Node3&#45;&gt;Node16</title>
<path fill="none" stroke="midnightblue" d="M905.24,-250.496C955.412,-241.459 1038.14,-226.558 1100.25,-215.371"/>
<polygon fill="midnightblue" stroke="midnightblue" points="1101.2,-218.756 1110.42,-213.538 1099.96,-211.867 1101.2,-218.756"/>
</g>
<!-- Node3&#45;&gt;Node17 -->
<g id="edge20" class="edge"><title>Node3&#45;&gt;Node17</title>
<path fill="none" stroke="midnightblue" d="M860.805,-250.435C860.805,-242.389 860.805,-229.739 860.805,-219.185"/>
<polygon fill="midnightblue" stroke="midnightblue" points="864.305,-218.872 860.805,-208.872 857.305,-218.872 864.305,-218.872"/>
</g>
<!-- Node18 -->
<g id="node19" class="node"><title>Node18</title>
<g id="a_node19"><a xlink:href="../../d8/ddc/ObserverSubject_8h.html" target="_top" xlink:title="Declaration file of the Observer, Subject and ObserverSubject classes. ">
<polygon fill="white" stroke="black" points="366.665,-130.5 366.665,-148.5 514.945,-148.5 514.945,-130.5 366.665,-130.5"/>
<text text-anchor="middle" x="440.805" y="-136.5" font-family="Helvetica,sans-Serif" font-size="10.00">ocra/optim/ObserverSubject.h</text>
</a>
</g>
</g>
<!-- Node3&#45;&gt;Node18 -->
<g id="edge50" class="edge"><title>Node3&#45;&gt;Node18</title>
<path fill="none" stroke="midnightblue" d="M804.451,-255.902C699.443,-250.542 482.139,-236.812 456.805,-214 441.666,-200.368 439.036,-176.056 439.292,-159.143"/>
<polygon fill="midnightblue" stroke="midnightblue" points="442.803,-159.002 439.812,-148.838 435.812,-158.649 442.803,-159.002"/>
</g>
<!-- Node34 -->
<g id="node35" class="node"><title>Node34</title>
<g id="a_node35"><a xlink:href="../../df/d97/NamedInstance_8h.html" target="_top" xlink:title="ocra/optim/NamedInstance.h">
<polygon fill="white" stroke="black" points="643.884,-190.5 643.884,-208.5 787.726,-208.5 787.726,-190.5 643.884,-190.5"/>
<text text-anchor="middle" x="715.805" y="-196.5" font-family="Helvetica,sans-Serif" font-size="10.00">ocra/optim/NamedInstance.h</text>
</a>
</g>
</g>
<!-- Node3&#45;&gt;Node34 -->
<g id="edge51" class="edge"><title>Node3&#45;&gt;Node34</title>
<path fill="none" stroke="midnightblue" d="M840.644,-250.435C816.002,-240.579 774.088,-223.813 745.692,-212.455"/>
<polygon fill="midnightblue" stroke="midnightblue" points="746.848,-209.147 736.263,-208.683 744.248,-215.647 746.848,-209.147"/>
</g>
<!-- Node5 -->
<g id="node6" class="node"><title>Node5</title>
<g id="a_node6"><a xlink:href="../../d5/d55/MathTypes_8h.html" target="_top" xlink:title="Declaration file of the OptimizationVariable class. ">
<polygon fill="white" stroke="black" points="1518.28,-70.5 1518.28,-88.5 1629.33,-88.5 1629.33,-70.5 1518.28,-70.5"/>
<text text-anchor="middle" x="1573.81" y="-76.5" font-family="Helvetica,sans-Serif" font-size="10.00">ocra/util/MathTypes.h</text>
</a>
</g>
</g>
<!-- Node4&#45;&gt;Node5 -->
<g id="edge5" class="edge"><title>Node4&#45;&gt;Node5</title>
<path fill="none" stroke="midnightblue" d="M1400.75,-130.435C1435.98,-120.27 1496.67,-102.757 1536.01,-91.405"/>
<polygon fill="midnightblue" stroke="midnightblue" points="1537.13,-94.7248 1545.77,-88.5894 1535.19,-87.9992 1537.13,-94.7248"/>
</g>
<!-- Node4&#45;&gt;Node8 -->
<g id="edge8" class="edge"><title>Node4&#45;&gt;Node8</title>
<path fill="none" stroke="midnightblue" d="M1360.99,-130.435C1347.36,-121.138 1324.73,-105.694 1308.23,-94.4393"/>
<polygon fill="midnightblue" stroke="midnightblue" points="1310.03,-91.4285 1299.8,-88.6831 1306.09,-97.2106 1310.03,-91.4285"/>
</g>
<!-- Node10 -->
<g id="node11" class="node"><title>Node10</title>
<polygon fill="white" stroke="#bfbfbf" points="1368.63,-70.5 1368.63,-88.5 1422.98,-88.5 1422.98,-70.5 1368.63,-70.5"/>
<text text-anchor="middle" x="1395.81" y="-76.5" font-family="Helvetica,sans-Serif" font-size="10.00">iostream</text>
</g>
<!-- Node4&#45;&gt;Node10 -->
<g id="edge10" class="edge"><title>Node4&#45;&gt;Node10</title>
<path fill="none" stroke="midnightblue" d="M1376,-130.435C1379.3,-122.132 1384.53,-108.927 1388.79,-98.1807"/>
<polygon fill="midnightblue" stroke="midnightblue" points="1392.05,-99.4578 1392.49,-88.8718 1385.55,-96.8773 1392.05,-99.4578"/>
</g>
<!-- Node11 -->
<g id="node12" class="node"><title>Node11</title>
<polygon fill="white" stroke="#bfbfbf" points="700.189,-70.5 700.189,-88.5 743.421,-88.5 743.421,-70.5 700.189,-70.5"/>
<text text-anchor="middle" x="721.805" y="-76.5" font-family="Helvetica,sans-Serif" font-size="10.00">vector</text>
</g>
<!-- Node4&#45;&gt;Node11 -->
<g id="edge11" class="edge"><title>Node4&#45;&gt;Node11</title>
<path fill="none" stroke="midnightblue" d="M1315.2,-136.946C1182.3,-132.945 857.526,-120.679 751.805,-94 750.092,-93.5677 748.355,-93.0426 746.624,-92.4537"/>
<polygon fill="midnightblue" stroke="midnightblue" points="747.585,-89.0678 737.002,-88.581 744.972,-95.5616 747.585,-89.0678"/>
</g>
<!-- Node4&#45;&gt;Node12 -->
<g id="edge12" class="edge"><title>Node4&#45;&gt;Node12</title>
<path fill="none" stroke="midnightblue" d="M1386.43,-130.435C1402.43,-120.966 1429.21,-105.12 1448.3,-93.8184"/>
<polygon fill="midnightblue" stroke="midnightblue" points="1450.16,-96.7884 1456.98,-88.6831 1446.59,-90.7644 1450.16,-96.7884"/>
</g>
<!-- Node6 -->
<g id="node7" class="node"><title>Node6</title>
<polygon fill="white" stroke="#bfbfbf" points="1575.17,-5.5 1575.17,-23.5 1648.44,-23.5 1648.44,-5.5 1575.17,-5.5"/>
<text text-anchor="middle" x="1611.81" y="-11.5" font-family="Helvetica,sans-Serif" font-size="10.00">Eigen/Dense</text>
</g>
<!-- Node5&#45;&gt;Node6 -->
<g id="edge6" class="edge"><title>Node5&#45;&gt;Node6</title>
<path fill="none" stroke="midnightblue" d="M1578.77,-70.2639C1584.55,-60.6842 1594.24,-44.6186 1601.64,-32.3587"/>
<polygon fill="midnightblue" stroke="midnightblue" points="1604.79,-33.9096 1606.96,-23.539 1598.79,-30.2942 1604.79,-33.9096"/>
</g>
<!-- Node7 -->
<g id="node8" class="node"><title>Node7</title>
<polygon fill="white" stroke="#bfbfbf" points="1514.19,-5.5 1514.19,-23.5 1557.42,-23.5 1557.42,-5.5 1514.19,-5.5"/>
<text text-anchor="middle" x="1535.81" y="-11.5" font-family="Helvetica,sans-Serif" font-size="10.00">cmath</text>
</g>
<!-- Node5&#45;&gt;Node7 -->
<g id="edge7" class="edge"><title>Node5&#45;&gt;Node7</title>
<path fill="none" stroke="midnightblue" d="M1568.84,-70.2639C1563.06,-60.6842 1553.37,-44.6186 1545.97,-32.3587"/>
<polygon fill="midnightblue" stroke="midnightblue" points="1548.82,-30.2942 1540.65,-23.539 1542.82,-33.9096 1548.82,-30.2942"/>
</g>
<!-- Node9 -->
<g id="node10" class="node"><title>Node9</title>
<polygon fill="white" stroke="#bfbfbf" points="1266.74,-5.5 1266.74,-23.5 1308.87,-23.5 1308.87,-5.5 1266.74,-5.5"/>
<text text-anchor="middle" x="1287.81" y="-11.5" font-family="Helvetica,sans-Serif" font-size="10.00">cstdio</text>
</g>
<!-- Node8&#45;&gt;Node9 -->
<g id="edge9" class="edge"><title>Node8&#45;&gt;Node9</title>
<path fill="none" stroke="midnightblue" d="M1287.81,-70.2639C1287.81,-61.0635 1287.81,-45.881 1287.81,-33.8326"/>
<polygon fill="midnightblue" stroke="midnightblue" points="1291.31,-33.5389 1287.81,-23.539 1284.31,-33.539 1291.31,-33.5389"/>
</g>
<!-- Node13&#45;&gt;Node11 -->
<g id="edge15" class="edge"><title>Node13&#45;&gt;Node11</title>
<path fill="none" stroke="midnightblue" d="M557.902,-190.389C587.543,-170.517 664.067,-119.211 701.109,-94.3757"/>
<polygon fill="midnightblue" stroke="midnightblue" points="703.266,-97.1433 709.623,-88.6674 699.368,-91.3291 703.266,-97.1433"/>
</g>
<!-- Node14 -->
<g id="node15" class="node"><title>Node14</title>
<polygon fill="white" stroke="#bfbfbf" points="691.579,-130.5 691.579,-148.5 732.032,-148.5 732.032,-130.5 691.579,-130.5"/>
<text text-anchor="middle" x="711.805" y="-136.5" font-family="Helvetica,sans-Serif" font-size="10.00">string</text>
</g>
<!-- Node13&#45;&gt;Node14 -->
<g id="edge14" class="edge"><title>Node13&#45;&gt;Node14</title>
<path fill="none" stroke="midnightblue" d="M568.887,-190.435C598.308,-180.156 649.238,-162.361 681.687,-151.023"/>
<polygon fill="midnightblue" stroke="midnightblue" points="683.237,-154.189 691.523,-147.587 680.928,-147.581 683.237,-154.189"/>
</g>
<!-- Node15&#45;&gt;Node4 -->
<g id="edge17" class="edge"><title>Node15&#45;&gt;Node4</title>
<path fill="none" stroke="midnightblue" d="M1032.87,-190.489C1042.97,-188.605 1053.77,-186.663 1063.81,-185 1146.62,-171.279 1242.33,-157.873 1305.02,-149.422"/>
<polygon fill="midnightblue" stroke="midnightblue" points="1305.73,-152.858 1315.17,-148.058 1304.8,-145.921 1305.73,-152.858"/>
</g>
<!-- Node15&#45;&gt;Node11 -->
<g id="edge18" class="edge"><title>Node15&#45;&gt;Node11</title>
<path fill="none" stroke="midnightblue" d="M984,-190.35C969.695,-175.908 937.71,-145.856 904.805,-130 841.873,-99.6752 817.961,-116.436 751.805,-94 750.385,-93.5185 748.941,-92.9938 747.493,-92.4398"/>
<polygon fill="midnightblue" stroke="midnightblue" points="748.658,-89.1335 738.082,-88.5067 745.959,-95.5922 748.658,-89.1335"/>
</g>
<!-- Node17&#45;&gt;Node11 -->
<g id="edge49" class="edge"><title>Node17&#45;&gt;Node11</title>
<path fill="none" stroke="midnightblue" d="M851.251,-190.389C828.139,-170.769 768.935,-120.51 739.281,-95.3355"/>
<polygon fill="midnightblue" stroke="midnightblue" points="741.315,-92.4709 731.426,-88.6674 736.784,-97.8073 741.315,-92.4709"/>
</g>
<!-- Node17&#45;&gt;Node14 -->
<g id="edge48" class="edge"><title>Node17&#45;&gt;Node14</title>
<path fill="none" stroke="midnightblue" d="M840.087,-190.435C814.623,-180.523 771.208,-163.623 742.024,-152.263"/>
<polygon fill="midnightblue" stroke="midnightblue" points="742.936,-148.862 732.347,-148.496 740.396,-155.385 742.936,-148.862"/>
</g>
<!-- Node17&#45;&gt;Node18 -->
<g id="edge21" class="edge"><title>Node17&#45;&gt;Node18</title>
<path fill="none" stroke="midnightblue" d="M825.36,-190.472C816.096,-188.526 806.101,-186.559 796.805,-185 704.254,-169.482 597.334,-156.816 525.015,-149.021"/>
<polygon fill="midnightblue" stroke="midnightblue" points="525.361,-145.538 515.046,-147.953 524.616,-152.498 525.361,-145.538"/>
</g>
<!-- Node29 -->
<g id="node30" class="node"><title>Node29</title>
<g id="a_node30"><a xlink:href="../../d1/de6/Composite_8h.html" target="_top" xlink:title="Utility classes and functions to implement the Composite design pattern. ">
<polygon fill="white" stroke="black" points="952.005,-130.5 952.005,-148.5 1073.61,-148.5 1073.61,-130.5 952.005,-130.5"/>
<text text-anchor="middle" x="1012.81" y="-136.5" font-family="Helvetica,sans-Serif" font-size="10.00">ocra/optim/Composite.h</text>
</a>
</g>
</g>
<!-- Node17&#45;&gt;Node29 -->
<g id="edge35" class="edge"><title>Node17&#45;&gt;Node29</title>
<path fill="none" stroke="midnightblue" d="M881.94,-190.435C907.884,-180.536 952.093,-163.666 981.864,-152.306"/>
<polygon fill="midnightblue" stroke="midnightblue" points="983.265,-155.518 991.36,-148.683 980.769,-148.978 983.265,-155.518"/>
</g>
<!-- Node30 -->
<g id="node31" class="node"><title>Node30</title>
<polygon fill="white" stroke="#bfbfbf" points="761.096,-70.5 761.096,-88.5 880.514,-88.5 880.514,-70.5 761.096,-70.5"/>
<text text-anchor="middle" x="820.805" y="-76.5" font-family="Helvetica,sans-Serif" font-size="10.00">boost/noncopyable.hpp</text>
</g>
<!-- Node17&#45;&gt;Node30 -->
<g id="edge47" class="edge"><title>Node17&#45;&gt;Node30</title>
<path fill="none" stroke="midnightblue" d="M850.042,-190.422C839.286,-181.608 823.425,-166.411 816.805,-149 810.659,-132.833 812.771,-112.971 815.751,-98.8056"/>
<polygon fill="midnightblue" stroke="midnightblue" points="819.211,-99.3906 818.185,-88.8455 812.411,-97.7283 819.211,-99.3906"/>
</g>
<!-- Node33 -->
<g id="node34" class="node"><title>Node33</title>
<polygon fill="white" stroke="#bfbfbf" points="825.84,-130.5 825.84,-148.5 895.771,-148.5 895.771,-130.5 825.84,-130.5"/>
<text text-anchor="middle" x="860.805" y="-136.5" font-family="Helvetica,sans-Serif" font-size="10.00">Eigen/Eigen</text>
</g>
<!-- Node17&#45;&gt;Node33 -->
<g id="edge46" class="edge"><title>Node17&#45;&gt;Node33</title>
<path fill="none" stroke="midnightblue" d="M860.805,-190.435C860.805,-182.389 860.805,-169.739 860.805,-159.185"/>
<polygon fill="midnightblue" stroke="midnightblue" points="864.305,-158.872 860.805,-148.872 857.305,-158.872 864.305,-158.872"/>
</g>
<!-- Node19 -->
<g id="node20" class="node"><title>Node19</title>
<g id="a_node20"><a xlink:href="../../df/d67/ObserverSubjectBase_8h.html" target="_top" xlink:title="Declaration file of the Observer and Subject base classes. ">
<polygon fill="white" stroke="black" points="164.835,-65.5 164.835,-93.5 304.775,-93.5 304.775,-65.5 164.835,-65.5"/>
<text text-anchor="start" x="172.835" y="-81.5" font-family="Helvetica,sans-Serif" font-size="10.00">ocra/optim/ObserverSubject</text>
<text text-anchor="middle" x="234.805" y="-71.5" font-family="Helvetica,sans-Serif" font-size="10.00">Base.h</text>
</a>
</g>
</g>
<!-- Node18&#45;&gt;Node19 -->
<g id="edge22" class="edge"><title>Node18&#45;&gt;Node19</title>
<path fill="none" stroke="midnightblue" d="M412.162,-130.435C380.874,-121.626 329.984,-107.298 290.724,-96.244"/>
<polygon fill="midnightblue" stroke="midnightblue" points="291.586,-92.8508 281.012,-93.5096 289.689,-99.5888 291.586,-92.8508"/>
</g>
<!-- Node23 -->
<g id="node24" class="node"><title>Node23</title>
<polygon fill="white" stroke="#bfbfbf" points="292.118,-0.5 292.118,-28.5 391.492,-28.5 391.492,-0.5 292.118,-0.5"/>
<text text-anchor="start" x="300.118" y="-16.5" font-family="Helvetica,sans-Serif" font-size="10.00">boost/type_traits/is</text>
<text text-anchor="middle" x="341.805" y="-6.5" font-family="Helvetica,sans-Serif" font-size="10.00">_class.hpp</text>
</g>
<!-- Node18&#45;&gt;Node23 -->
<g id="edge34" class="edge"><title>Node18&#45;&gt;Node23</title>
<path fill="none" stroke="midnightblue" d="M458.055,-130.487C471.638,-123.128 489.602,-110.811 497.805,-94 503.457,-82.4166 505.417,-75.4011 497.805,-65 491.746,-56.7211 442.875,-42.0293 401.424,-30.795"/>
<polygon fill="midnightblue" stroke="midnightblue" points="402.189,-27.3766 391.624,-28.1649 400.375,-34.1374 402.189,-27.3766"/>
</g>
<!-- Node24 -->
<g id="node25" class="node"><title>Node24</title>
<polygon fill="white" stroke="#bfbfbf" points="621.118,-0.5 621.118,-28.5 720.492,-28.5 720.492,-0.5 621.118,-0.5"/>
<text text-anchor="start" x="629.118" y="-16.5" font-family="Helvetica,sans-Serif" font-size="10.00">boost/type_traits/is</text>
<text text-anchor="middle" x="670.805" y="-6.5" font-family="Helvetica,sans-Serif" font-size="10.00">_base_of.hpp</text>
</g>
<!-- Node18&#45;&gt;Node24 -->
<g id="edge32" class="edge"><title>Node18&#45;&gt;Node24</title>
<path fill="none" stroke="midnightblue" d="M455.088,-130.404C479.353,-116.696 530.239,-88.1463 573.805,-65 594.23,-54.1486 617.284,-42.3648 635.791,-33.0176"/>
<polygon fill="midnightblue" stroke="midnightblue" points="637.392,-36.1303 644.747,-28.5049 634.242,-29.879 637.392,-36.1303"/>
</g>
<!-- Node25 -->
<g id="node26" class="node"><title>Node25</title>
<polygon fill="white" stroke="#bfbfbf" points="409.387,-5.5 409.387,-23.5 528.224,-23.5 528.224,-5.5 409.387,-5.5"/>
<text text-anchor="middle" x="468.805" y="-11.5" font-family="Helvetica,sans-Serif" font-size="10.00">boost/static_assert.hpp</text>
</g>
<!-- Node18&#45;&gt;Node25 -->
<g id="edge31" class="edge"><title>Node18&#45;&gt;Node25</title>
<path fill="none" stroke="midnightblue" d="M405.024,-130.357C385.68,-123.935 363.43,-112.81 351.805,-94 345.029,-83.0361 344.685,-75.7436 351.805,-65 364.696,-45.5496 386.914,-33.7215 408.549,-26.5376"/>
<polygon fill="midnightblue" stroke="midnightblue" points="409.855,-29.7992 418.413,-23.553 407.828,-23.0992 409.855,-29.7992"/>
</g>
<!-- Node27 -->
<g id="node28" class="node"><title>Node27</title>
<g id="a_node28"><a xlink:href="../../db/ddf/ocra__events_8h.html" target="_top" xlink:title="ocra/optim/ocra_events.h">
<polygon fill="white" stroke="black" points="360.665,-70.5 360.665,-88.5 488.945,-88.5 488.945,-70.5 360.665,-70.5"/>
<text text-anchor="middle" x="424.805" y="-76.5" font-family="Helvetica,sans-Serif" font-size="10.00">ocra/optim/ocra_events.h</text>
</a>
</g>
</g>
<!-- Node18&#45;&gt;Node27 -->
<g id="edge30" class="edge"><title>Node18&#45;&gt;Node27</title>
<path fill="none" stroke="midnightblue" d="M438.58,-130.435C436.314,-122.218 432.722,-109.198 429.775,-98.5138"/>
<polygon fill="midnightblue" stroke="midnightblue" points="433.148,-97.5809 427.115,-88.8718 426.4,-99.4425 433.148,-97.5809"/>
</g>
<!-- Node28 -->
<g id="node29" class="node"><title>Node28</title>
<polygon fill="white" stroke="#bfbfbf" points="583.118,-65.5 583.118,-93.5 682.492,-93.5 682.492,-65.5 583.118,-65.5"/>
<text text-anchor="start" x="591.118" y="-81.5" font-family="Helvetica,sans-Serif" font-size="10.00">boost/type_traits/is</text>
<text text-anchor="middle" x="632.805" y="-71.5" font-family="Helvetica,sans-Serif" font-size="10.00">_convertible.hpp</text>
</g>
<!-- Node18&#45;&gt;Node28 -->
<g id="edge33" class="edge"><title>Node18&#45;&gt;Node28</title>
<path fill="none" stroke="midnightblue" d="M467.502,-130.435C496.417,-121.701 543.292,-107.54 579.754,-96.5257"/>
<polygon fill="midnightblue" stroke="midnightblue" points="581.178,-99.7519 589.739,-93.5096 579.154,-93.0509 581.178,-99.7519"/>
</g>
<!-- Node20 -->
<g id="node21" class="node"><title>Node20</title>
<polygon fill="white" stroke="#bfbfbf" points="119.401,-5.5 119.401,-23.5 178.209,-23.5 178.209,-5.5 119.401,-5.5"/>
<text text-anchor="middle" x="148.805" y="-11.5" font-family="Helvetica,sans-Serif" font-size="10.00">functional</text>
</g>
<!-- Node19&#45;&gt;Node20 -->
<g id="edge23" class="edge"><title>Node19&#45;&gt;Node20</title>
<path fill="none" stroke="midnightblue" d="M216.986,-65.4464C202.726,-55 182.761,-40.3747 168.121,-29.6496"/>
<polygon fill="midnightblue" stroke="midnightblue" points="169.927,-26.6341 159.791,-23.548 165.79,-32.2811 169.927,-26.6341"/>
</g>
<!-- Node21 -->
<g id="node22" class="node"><title>Node21</title>
<polygon fill="white" stroke="#bfbfbf" points="546.241,-5.5 546.241,-23.5 603.369,-23.5 603.369,-5.5 546.241,-5.5"/>
<text text-anchor="middle" x="574.805" y="-11.5" font-family="Helvetica,sans-Serif" font-size="10.00">algorithm</text>
</g>
<!-- Node19&#45;&gt;Node21 -->
<g id="edge24" class="edge"><title>Node19&#45;&gt;Node21</title>
<path fill="none" stroke="midnightblue" d="M304.807,-70.6341C366.492,-62.8506 458.468,-49.1623 536.805,-29 539.297,-28.3587 541.856,-27.6233 544.413,-26.834"/>
<polygon fill="midnightblue" stroke="midnightblue" points="545.724,-30.0866 554.107,-23.6082 543.514,-23.4446 545.724,-30.0866"/>
</g>
<!-- Node22 -->
<g id="node23" class="node"><title>Node22</title>
<polygon fill="white" stroke="#bfbfbf" points="195.76,-5.5 195.76,-23.5 273.85,-23.5 273.85,-5.5 195.76,-5.5"/>
<text text-anchor="middle" x="234.805" y="-11.5" font-family="Helvetica,sans-Serif" font-size="10.00">boost/any.hpp</text>
</g>
<!-- Node19&#45;&gt;Node22 -->
<g id="edge25" class="edge"><title>Node19&#45;&gt;Node22</title>
<path fill="none" stroke="midnightblue" d="M234.805,-65.4464C234.805,-56.3336 234.805,-44.0406 234.805,-33.9308"/>
<polygon fill="midnightblue" stroke="midnightblue" points="238.305,-33.7301 234.805,-23.7301 231.305,-33.7301 238.305,-33.7301"/>
</g>
<!-- Node19&#45;&gt;Node23 -->
<g id="edge26" class="edge"><title>Node19&#45;&gt;Node23</title>
<path fill="none" stroke="midnightblue" d="M256.976,-65.4464C272.614,-56.239 293.766,-43.785 311.036,-33.6167"/>
<polygon fill="midnightblue" stroke="midnightblue" points="312.822,-36.6267 319.663,-28.5369 309.27,-30.5946 312.822,-36.6267"/>
</g>
<!-- Node19&#45;&gt;Node24 -->
<g id="edge27" class="edge"><title>Node19&#45;&gt;Node24</title>
<path fill="none" stroke="midnightblue" d="M304.899,-70.1599C392.912,-59.5493 540.07,-41.3172 610.639,-29.2556"/>
<polygon fill="midnightblue" stroke="midnightblue" points="611.643,-32.6326 620.883,-27.4487 610.427,-25.739 611.643,-32.6326"/>
</g>
<!-- Node19&#45;&gt;Node25 -->
<g id="edge28" class="edge"><title>Node19&#45;&gt;Node25</title>
<path fill="none" stroke="midnightblue" d="M283.29,-65.4464C326.483,-53.8174 388.912,-37.0098 429.178,-26.1688"/>
<polygon fill="midnightblue" stroke="midnightblue" points="430.166,-29.5275 438.913,-23.548 428.347,-22.7681 430.166,-29.5275"/>
</g>
<!-- Node26 -->
<g id="node27" class="node"><title>Node26</title>
<polygon fill="white" stroke="#bfbfbf" points="0,-0.5 0,-28.5 101.61,-28.5 101.61,-0.5 0,-0.5"/>
<text text-anchor="start" x="8" y="-16.5" font-family="Helvetica,sans-Serif" font-size="10.00">boost/ptr_container</text>
<text text-anchor="middle" x="50.8052" y="-6.5" font-family="Helvetica,sans-Serif" font-size="10.00">/ptr_vector.hpp</text>
</g>
<!-- Node19&#45;&gt;Node26 -->
<g id="edge29" class="edge"><title>Node19&#45;&gt;Node26</title>
<path fill="none" stroke="midnightblue" d="M196.68,-65.4464C168.185,-55.6899 129.044,-42.2882 98.4791,-31.8231"/>
<polygon fill="midnightblue" stroke="midnightblue" points="99.4758,-28.465 88.8813,-28.5369 97.2083,-35.0876 99.4758,-28.465"/>
</g>
<!-- Node29&#45;&gt;Node8 -->
<g id="edge36" class="edge"><title>Node29&#45;&gt;Node8</title>
<path fill="none" stroke="midnightblue" d="M1050.75,-130.496C1100.03,-120.103 1186.08,-101.955 1239.83,-90.6179"/>
<polygon fill="midnightblue" stroke="midnightblue" points="1240.74,-94.0031 1249.8,-88.5147 1239.3,-87.1538 1240.74,-94.0031"/>
</g>
<!-- Node29&#45;&gt;Node11 -->
<g id="edge42" class="edge"><title>Node29&#45;&gt;Node11</title>
<path fill="none" stroke="midnightblue" d="M955.735,-130.499C890.804,-121.091 788.959,-105.325 751.805,-94 750.337,-93.5525 748.846,-93.0501 747.354,-92.5094"/>
<polygon fill="midnightblue" stroke="midnightblue" points="748.288,-89.1096 737.707,-88.5584 745.635,-95.5874 748.288,-89.1096"/>
</g>
<!-- Node29&#45;&gt;Node12 -->
<g id="edge45" class="edge"><title>Node29&#45;&gt;Node12</title>
<path fill="none" stroke="midnightblue" d="M1073.87,-136.36C1156.08,-132.496 1306.5,-121.957 1431.81,-94 1434.69,-93.3564 1437.66,-92.5697 1440.61,-91.7027"/>
<polygon fill="midnightblue" stroke="midnightblue" points="1441.97,-94.9399 1450.41,-88.5371 1439.82,-88.2783 1441.97,-94.9399"/>
</g>
<!-- Node29&#45;&gt;Node21 -->
<g id="edge43" class="edge"><title>Node29&#45;&gt;Node21</title>
<path fill="none" stroke="midnightblue" d="M1003.42,-130.327C982.299,-112.007 932.142,-68.9479 922.805,-65 794.646,-10.8102 747.205,-61.0672 611.805,-29 609.152,-28.3716 606.428,-27.6115 603.719,-26.7759"/>
<polygon fill="midnightblue" stroke="midnightblue" points="604.724,-23.421 594.13,-23.5194 602.473,-30.0492 604.724,-23.421"/>
</g>
<!-- Node29&#45;&gt;Node24 -->
<g id="edge39" class="edge"><title>Node29&#45;&gt;Node24</title>
<path fill="none" stroke="midnightblue" d="M1009.65,-130.499C1003.1,-115.037 986.464,-81.1608 960.805,-65 923.398,-41.4402 803.978,-27.1089 730.564,-20.2982"/>
<polygon fill="midnightblue" stroke="midnightblue" points="730.799,-16.8052 720.524,-19.3869 730.167,-23.7766 730.799,-16.8052"/>
</g>
<!-- Node29&#45;&gt;Node25 -->
<g id="edge38" class="edge"><title>Node29&#45;&gt;Node25</title>
<path fill="none" stroke="midnightblue" d="M992.678,-130.36C973.877,-122.345 945.399,-109.13 922.805,-94 906.582,-83.1356 907.702,-72.8062 889.805,-65 745.255,-1.95007 692.765,-52.3806 536.805,-29 530.087,-27.9929 523.027,-26.7737 516.101,-25.4849"/>
<polygon fill="midnightblue" stroke="midnightblue" points="516.586,-22.0143 506.105,-23.5635 515.265,-28.8884 516.586,-22.0143"/>
</g>
<!-- Node29&#45;&gt;Node28 -->
<g id="edge40" class="edge"><title>Node29&#45;&gt;Node28</title>
<path fill="none" stroke="midnightblue" d="M951.707,-131.742C888.962,-124.422 788.291,-111.627 692.843,-94.2843"/>
<polygon fill="midnightblue" stroke="midnightblue" points="693.199,-90.7911 682.731,-92.4259 691.934,-97.6758 693.199,-90.7911"/>
</g>
<!-- Node29&#45;&gt;Node30 -->
<g id="edge37" class="edge"><title>Node29&#45;&gt;Node30</title>
<path fill="none" stroke="midnightblue" d="M986.108,-130.435C952.673,-120.335 895.221,-102.98 857.625,-91.6227"/>
<polygon fill="midnightblue" stroke="midnightblue" points="858.169,-88.1308 847.584,-88.5894 856.145,-94.8317 858.169,-88.1308"/>
</g>
<!-- Node31 -->
<g id="node32" class="node"><title>Node31</title>
<polygon fill="white" stroke="#bfbfbf" points="1013.27,-65.5 1013.27,-93.5 1144.34,-93.5 1144.34,-65.5 1013.27,-65.5"/>
<text text-anchor="start" x="1021.27" y="-81.5" font-family="Helvetica,sans-Serif" font-size="10.00">boost/type_traits/has</text>
<text text-anchor="middle" x="1078.81" y="-71.5" font-family="Helvetica,sans-Serif" font-size="10.00">_nothrow_constructor.hpp</text>
</g>
<!-- Node29&#45;&gt;Node31 -->
<g id="edge41" class="edge"><title>Node29&#45;&gt;Node31</title>
<path fill="none" stroke="midnightblue" d="M1021.98,-130.435C1030.73,-122.747 1044.26,-110.855 1055.93,-100.605"/>
<polygon fill="midnightblue" stroke="midnightblue" points="1058.42,-103.073 1063.62,-93.8428 1053.8,-97.8149 1058.42,-103.073"/>
</g>
<!-- Node32 -->
<g id="node33" class="node"><title>Node32</title>
<polygon fill="white" stroke="#bfbfbf" points="1162.63,-70.5 1162.63,-88.5 1206.98,-88.5 1206.98,-70.5 1162.63,-70.5"/>
<text text-anchor="middle" x="1184.81" y="-76.5" font-family="Helvetica,sans-Serif" font-size="10.00">iosfwd</text>
</g>
<!-- Node29&#45;&gt;Node32 -->
<g id="edge44" class="edge"><title>Node29&#45;&gt;Node32</title>
<path fill="none" stroke="midnightblue" d="M1041.19,-130.495C1069.88,-122.182 1115.34,-108.4 1153.81,-94 1155.18,-93.4855 1156.58,-92.9427 1157.99,-92.3821"/>
<polygon fill="midnightblue" stroke="midnightblue" points="1159.35,-95.6097 1167.23,-88.5343 1156.65,-89.1477 1159.35,-95.6097"/>
</g>
<!-- Node34&#45;&gt;Node14 -->
<g id="edge52" class="edge"><title>Node34&#45;&gt;Node14</title>
<path fill="none" stroke="midnightblue" d="M715.249,-190.435C714.688,-182.304 713.803,-169.469 713.071,-158.848"/>
<polygon fill="midnightblue" stroke="midnightblue" points="716.562,-158.607 712.383,-148.872 709.579,-159.089 716.562,-158.607"/>
</g>
<!-- Node36 -->
<g id="node37" class="node"><title>Node36</title>
<polygon fill="white" stroke="#bfbfbf" points="357.749,-190.5 357.749,-208.5 409.862,-208.5 409.862,-190.5 357.749,-190.5"/>
<text text-anchor="middle" x="383.805" y="-196.5" font-family="Helvetica,sans-Serif" font-size="10.00">memory</text>
</g>
<!-- Node35&#45;&gt;Node36 -->
<g id="edge55" class="edge"><title>Node35&#45;&gt;Node36</title>
<path fill="none" stroke="midnightblue" d="M536.59,-250.482C508.897,-241.65 463.13,-226.976 423.805,-214 421.656,-213.291 419.444,-212.557 417.214,-211.813"/>
<polygon fill="midnightblue" stroke="midnightblue" points="418.071,-208.409 407.477,-208.548 415.845,-215.046 418.071,-208.409"/>
</g>
</g>
</svg>
