<?xml version="1.0" encoding="UTF-8" standalone="no"?>
<!DOCTYPE svg PUBLIC "-//W3C//DTD SVG 1.1//EN"
 "http://www.w3.org/Graphics/SVG/1.1/DTD/svg11.dtd">
<!-- Generated by graphviz version 2.38.0 (20140413.2041)
 -->
<!-- Title: gocra::gOcraTaskManagerBase Pages: 1 -->
<svg width="375pt" height="336pt"
 viewBox="0.00 0.00 375.04 336.00" xmlns="http://www.w3.org/2000/svg" xmlns:xlink="http://www.w3.org/1999/xlink">
<g id="graph0" class="graph" transform="scale(1 1) rotate(0) translate(4 332)">
<title>gocra::gOcraTaskManagerBase</title>
<polygon fill="white" stroke="none" points="-4,4 -4,-332 371.043,-332 371.043,4 -4,4"/>
<!-- Node0 -->
<g id="node1" class="node"><title>Node0</title>
<polygon fill="#bfbfbf" stroke="black" points="0,-159.5 0,-177.5 156.625,-177.5 156.625,-159.5 0,-159.5"/>
<text text-anchor="middle" x="78.3125" y="-165.5" font-family="Helvetica,sans-Serif" font-size="10.00">gocra::gOcraTaskManagerBase</text>
</g>
<!-- Node1 -->
<g id="node2" class="node"><title>Node1</title>
<g id="a_node2"><a xlink:href="../../de/de6/classgocra_1_1gOcraCoMTaskManager.html" target="_top" xlink:title="Task Manager for the Center of Mass (CoM) task with the gOcra Controller. ">
<polygon fill="white" stroke="black" points="202.361,-309.5 202.361,-327.5 357.307,-327.5 357.307,-309.5 202.361,-309.5"/>
<text text-anchor="middle" x="279.834" y="-315.5" font-family="Helvetica,sans-Serif" font-size="10.00">gocra::gOcraCoMTaskManager</text>
</a>
</g>
</g>
<!-- Node0&#45;&gt;Node1 -->
<g id="edge1" class="edge"><title>Node0&#45;&gt;Node1</title>
<path fill="none" stroke="midnightblue" d="M89.478,-186.691C106.697,-215.698 144.476,-272.053 192.625,-300.5 198.812,-304.155 205.633,-307.075 212.647,-309.406"/>
<polygon fill="midnightblue" stroke="midnightblue" points="92.2946,-184.569 84.2614,-177.661 86.2334,-188.071 92.2946,-184.569"/>
</g>
<!-- Node2 -->
<g id="node3" class="node"><title>Node2</title>
<g id="a_node3"><a xlink:href="../../d2/d71/classgocra_1_1gOcraContactSetTaskManager.html" target="_top" xlink:title="Task Manager for a set of contact tasks. ">
<polygon fill="white" stroke="black" points="207.916,-262.5 207.916,-290.5 351.752,-290.5 351.752,-262.5 207.916,-262.5"/>
<text text-anchor="start" x="215.916" y="-278.5" font-family="Helvetica,sans-Serif" font-size="10.00">gocra::gOcraContactSetTask</text>
<text text-anchor="middle" x="279.834" y="-268.5" font-family="Helvetica,sans-Serif" font-size="10.00">Manager</text>
</a>
</g>
</g>
<!-- Node0&#45;&gt;Node2 -->
<g id="edge2" class="edge"><title>Node0&#45;&gt;Node2</title>
<path fill="none" stroke="midnightblue" d="M96.2105,-184.52C117.221,-203.603 154.935,-235.193 192.625,-253.5 199.592,-256.884 207.126,-259.823 214.74,-262.363"/>
<polygon fill="midnightblue" stroke="midnightblue" points="98.4858,-181.857 88.7655,-177.642 93.7358,-186.999 98.4858,-181.857"/>
</g>
<!-- Node3 -->
<g id="node4" class="node"><title>Node3</title>
<g id="a_node4"><a xlink:href="../../d7/d0b/classgocra_1_1gOcraContactTaskManager.html" target="_top" xlink:title="Task Manager for a contact task. ">
<polygon fill="white" stroke="black" points="195.687,-225.5 195.687,-243.5 363.981,-243.5 363.981,-225.5 195.687,-225.5"/>
<text text-anchor="middle" x="279.834" y="-231.5" font-family="Helvetica,sans-Serif" font-size="10.00">gocra::gOcraContactTaskManager</text>
</a>
</g>
</g>
<!-- Node0&#45;&gt;Node3 -->
<g id="edge3" class="edge"><title>Node0&#45;&gt;Node3</title>
<path fill="none" stroke="midnightblue" d="M107.046,-182.048C129.643,-192.644 162.608,-207.107 192.625,-216.5 203.715,-219.97 215.818,-222.966 227.356,-225.464"/>
<polygon fill="midnightblue" stroke="midnightblue" points="108.273,-178.756 97.739,-177.627 105.27,-185.079 108.273,-178.756"/>
</g>
<!-- Node4 -->
<g id="node5" class="node"><title>Node4</title>
<g id="a_node5"><a xlink:href="../../d5/db1/classgocra_1_1gOcraFullPostureTaskManager.html" target="_top" xlink:title="gOcra Task Manager for the joint space posture ">
<polygon fill="white" stroke="black" points="207.364,-178.5 207.364,-206.5 352.304,-206.5 352.304,-178.5 207.364,-178.5"/>
<text text-anchor="start" x="215.364" y="-194.5" font-family="Helvetica,sans-Serif" font-size="10.00">gocra::gOcraFullPostureTask</text>
<text text-anchor="middle" x="279.834" y="-184.5" font-family="Helvetica,sans-Serif" font-size="10.00">Manager</text>
</a>
</g>
</g>
<!-- Node0&#45;&gt;Node4 -->
<g id="edge4" class="edge"><title>Node0&#45;&gt;Node4</title>
<path fill="none" stroke="midnightblue" d="M164.453,-178.741C178.69,-180.454 193.333,-182.215 207.189,-183.882"/>
<polygon fill="midnightblue" stroke="midnightblue" points="164.521,-175.224 154.175,-177.505 163.685,-182.174 164.521,-175.224"/>
</g>
<!-- Node5 -->
<g id="node6" class="node"><title>Node5</title>
<g id="a_node6"><a xlink:href="../../d9/dc9/classgocra_1_1gOcraPartialPostureTaskManager.html" target="_top" xlink:title="Task Manager for partal joint posture task. ">
<polygon fill="white" stroke="black" points="211.529,-131.5 211.529,-159.5 348.139,-159.5 348.139,-131.5 211.529,-131.5"/>
<text text-anchor="start" x="219.529" y="-147.5" font-family="Helvetica,sans-Serif" font-size="10.00">gocra::gOcraPartialPosture</text>
<text text-anchor="middle" x="279.834" y="-137.5" font-family="Helvetica,sans-Serif" font-size="10.00">TaskManager</text>
</a>
</g>
</g>
<!-- Node0&#45;&gt;Node5 -->
<g id="edge5" class="edge"><title>Node0&#45;&gt;Node5</title>
<path fill="none" stroke="midnightblue" d="M166.997,-158.392C181.924,-156.671 197.216,-154.909 211.512,-153.261"/>
<polygon fill="midnightblue" stroke="midnightblue" points="166.272,-154.952 156.738,-159.575 167.073,-161.906 166.272,-154.952"/>
</g>
<!-- Node6 -->
<g id="node7" class="node"><title>Node6</title>
<g id="a_node7"><a xlink:href="../../de/d88/classgocra_1_1gOcraSegCartesianTaskManager.html" target="_top" xlink:title="Task Manager for the cartesian position of a specified segment. ">
<polygon fill="white" stroke="black" points="212.637,-84.5 212.637,-112.5 347.031,-112.5 347.031,-84.5 212.637,-84.5"/>
<text text-anchor="start" x="220.637" y="-100.5" font-family="Helvetica,sans-Serif" font-size="10.00">gocra::gOcraSegCartesian</text>
<text text-anchor="middle" x="279.834" y="-90.5" font-family="Helvetica,sans-Serif" font-size="10.00">TaskManager</text>
</a>
</g>
</g>
<!-- Node0&#45;&gt;Node6 -->
<g id="edge6" class="edge"><title>Node0&#45;&gt;Node6</title>
<path fill="none" stroke="midnightblue" d="M108.912,-155.4C131.572,-145.637 163.741,-132.347 192.625,-122.5 202.918,-118.991 214.028,-115.606 224.739,-112.54"/>
<polygon fill="midnightblue" stroke="midnightblue" points="107.296,-152.286 99.5179,-159.48 110.084,-158.707 107.296,-152.286"/>
</g>
<!-- Node7 -->
<g id="node8" class="node"><title>Node7</title>
<g id="a_node8"><a xlink:href="../../db/d04/classgocra_1_1gOcraSegOrientationTaskManager.html" target="_top" xlink:title="Task Manager for the Center of Mass (CoM) task with the gOcra Controller. ">
<polygon fill="white" stroke="black" points="209.578,-37.5 209.578,-65.5 350.09,-65.5 350.09,-37.5 209.578,-37.5"/>
<text text-anchor="start" x="217.578" y="-53.5" font-family="Helvetica,sans-Serif" font-size="10.00">gocra::gOcraSegOrientation</text>
<text text-anchor="middle" x="279.834" y="-43.5" font-family="Helvetica,sans-Serif" font-size="10.00">TaskManager</text>
</a>
</g>
</g>
<!-- Node0&#45;&gt;Node7 -->
<g id="edge7" class="edge"><title>Node0&#45;&gt;Node7</title>
<path fill="none" stroke="midnightblue" d="M94.9919,-151.926C115.532,-131.152 153.553,-95.811 192.625,-75.5 200.069,-71.6305 208.208,-68.3255 216.418,-65.5192"/>
<polygon fill="midnightblue" stroke="midnightblue" points="92.2293,-149.747 87.7745,-159.36 97.2516,-154.624 92.2293,-149.747"/>
</g>
<!-- Node8 -->
<g id="node9" class="node"><title>Node8</title>
<g id="a_node9"><a xlink:href="../../d7/d78/classgocra_1_1gOcraSegPoseTaskManager.html" target="_top" xlink:title="Task Manager for a segment&#39;s pose. ">
<polygon fill="white" stroke="black" points="192.625,-0.5 192.625,-18.5 367.043,-18.5 367.043,-0.5 192.625,-0.5"/>
<text text-anchor="middle" x="279.834" y="-6.5" font-family="Helvetica,sans-Serif" font-size="10.00">gocra::gOcraSegPoseTaskManager</text>
</a>
</g>
</g>
<!-- Node0&#45;&gt;Node8 -->
<g id="edge8" class="edge"><title>Node0&#45;&gt;Node8</title>
<path fill="none" stroke="midnightblue" d="M88.7639,-150.11C105.401,-119.694 142.92,-59.2242 192.625,-28.5 199.274,-24.3903 206.695,-21.1639 214.316,-18.6321"/>
<polygon fill="midnightblue" stroke="midnightblue" points="85.5419,-148.715 83.9346,-159.187 91.7217,-152.003 85.5419,-148.715"/>
</g>
</g>
</svg>
