<?xml version="1.0" encoding="UTF-8" standalone="no"?>
<!DOCTYPE svg PUBLIC "-//W3C//DTD SVG 1.1//EN"
 "http://www.w3.org/Graphics/SVG/1.1/DTD/svg11.dtd">
<!-- Generated by graphviz version 2.38.0 (20140413.2041)
 -->
<!-- Title: TaskBuilderOptions.h Pages: 1 -->
<svg width="1182pt" height="357pt"
 viewBox="0.00 0.00 1181.91 357.00" xmlns="http://www.w3.org/2000/svg" xmlns:xlink="http://www.w3.org/1999/xlink">
<g id="graph0" class="graph" transform="scale(1 1) rotate(0) translate(4 353)">
<title>TaskBuilderOptions.h</title>
<polygon fill="white" stroke="none" points="-4,4 -4,-353 1177.91,-353 1177.91,4 -4,4"/>
<!-- Node13 -->
<g id="node1" class="node"><title>Node13</title>
<polygon fill="#bfbfbf" stroke="black" points="489.18,-330.5 489.18,-348.5 599.672,-348.5 599.672,-330.5 489.18,-330.5"/>
<text text-anchor="middle" x="544.426" y="-336.5" font-family="Helvetica,sans-Serif" font-size="10.00">TaskBuilderOptions.h</text>
</g>
<!-- Node14 -->
<g id="node2" class="node"><title>Node14</title>
<g id="a_node2"><a xlink:href="../../d3/dc1/TaskBuilder_8h.html" target="_top" xlink:title="TaskBuilder.h">
<polygon fill="white" stroke="black" points="506.685,-275.5 506.685,-293.5 582.167,-293.5 582.167,-275.5 506.685,-275.5"/>
<text text-anchor="middle" x="544.426" y="-281.5" font-family="Helvetica,sans-Serif" font-size="10.00">TaskBuilder.h</text>
</a>
</g>
</g>
<!-- Node13&#45;&gt;Node14 -->
<g id="edge1" class="edge"><title>Node13&#45;&gt;Node14</title>
<path fill="none" stroke="midnightblue" d="M544.426,-320.175C544.426,-311.094 544.426,-300.595 544.426,-293.55"/>
<polygon fill="midnightblue" stroke="midnightblue" points="540.926,-320.219 544.426,-330.219 547.926,-320.219 540.926,-320.219"/>
</g>
<!-- Node16 -->
<g id="node4" class="node"><title>Node16</title>
<g id="a_node4"><a xlink:href="../../d1/d7b/TaskConstructionManager_8h.html" target="_top" xlink:title="TaskConstructionManager.h">
<polygon fill="white" stroke="black" points="454.446,-165.5 454.446,-183.5 594.406,-183.5 594.406,-165.5 454.446,-165.5"/>
<text text-anchor="middle" x="524.426" y="-171.5" font-family="Helvetica,sans-Serif" font-size="10.00">TaskConstructionManager.h</text>
</a>
</g>
</g>
<!-- Node13&#45;&gt;Node16 -->
<g id="edge35" class="edge"><title>Node13&#45;&gt;Node16</title>
<path fill="none" stroke="midnightblue" d="M500.225,-327.638C457.48,-314.522 395.094,-287.869 366.426,-239 362.153,-231.716 361.328,-226.732 366.426,-220 379.2,-203.131 430.319,-190.859 471,-183.527"/>
<polygon fill="midnightblue" stroke="midnightblue" points="499.25,-330.999 509.831,-330.461 501.223,-324.283 499.25,-330.999"/>
</g>
<!-- Node40 -->
<g id="node28" class="node"><title>Node40</title>
<g id="a_node28"><a xlink:href="../../dd/d04/TaskBuilderOptions_8cpp.html" target="_top" xlink:title="TaskBuilderOptions.cpp">
<polygon fill="white" stroke="black" points="599.899,-275.5 599.899,-293.5 720.953,-293.5 720.953,-275.5 599.899,-275.5"/>
<text text-anchor="middle" x="660.426" y="-281.5" font-family="Helvetica,sans-Serif" font-size="10.00">TaskBuilderOptions.cpp</text>
</a>
</g>
</g>
<!-- Node13&#45;&gt;Node40 -->
<g id="edge36" class="edge"><title>Node13&#45;&gt;Node40</title>
<path fill="none" stroke="midnightblue" d="M571.164,-326.283C593.114,-316.254 623.583,-302.333 642.642,-293.625"/>
<polygon fill="midnightblue" stroke="midnightblue" points="569.685,-323.111 562.044,-330.45 572.594,-329.478 569.685,-323.111"/>
</g>
<!-- Node15 -->
<g id="node3" class="node"><title>Node15</title>
<g id="a_node3"><a xlink:href="../../da/db2/CartesianTaskBuilder_8h.html" target="_top" xlink:title="CartesianTaskBuilder.h">
<polygon fill="white" stroke="black" points="529.286,-220.5 529.286,-238.5 647.566,-238.5 647.566,-220.5 529.286,-220.5"/>
<text text-anchor="middle" x="588.426" y="-226.5" font-family="Helvetica,sans-Serif" font-size="10.00">CartesianTaskBuilder.h</text>
</a>
</g>
</g>
<!-- Node14&#45;&gt;Node15 -->
<g id="edge2" class="edge"><title>Node14&#45;&gt;Node15</title>
<path fill="none" stroke="midnightblue" d="M557.923,-267.243C565.82,-257.73 575.444,-246.137 581.743,-238.55"/>
<polygon fill="midnightblue" stroke="midnightblue" points="554.995,-265.289 551.301,-275.219 560.381,-269.76 554.995,-265.289"/>
</g>
<!-- Node14&#45;&gt;Node16 -->
<g id="edge33" class="edge"><title>Node14&#45;&gt;Node16</title>
<path fill="none" stroke="midnightblue" d="M533.035,-267.079C528.119,-259.011 522.928,-248.91 520.426,-239 515.559,-219.722 519.513,-196.16 522.291,-183.869"/>
<polygon fill="midnightblue" stroke="midnightblue" points="530.116,-269.01 538.503,-275.483 535.983,-265.192 530.116,-269.01"/>
</g>
<!-- Node27 -->
<g id="node15" class="node"><title>Node27</title>
<g id="a_node15"><a xlink:href="../../de/d08/ComTaskBuilder_8h.html" target="_top" xlink:title="ComTaskBuilder.h">
<polygon fill="white" stroke="black" points="769.128,-220.5 769.128,-238.5 865.724,-238.5 865.724,-220.5 769.128,-220.5"/>
<text text-anchor="middle" x="817.426" y="-226.5" font-family="Helvetica,sans-Serif" font-size="10.00">ComTaskBuilder.h</text>
</a>
</g>
</g>
<!-- Node14&#45;&gt;Node27 -->
<g id="edge15" class="edge"><title>Node14&#45;&gt;Node27</title>
<path fill="none" stroke="midnightblue" d="M592.357,-274.195C644.315,-264.108 726.403,-248.171 775.768,-238.587"/>
<polygon fill="midnightblue" stroke="midnightblue" points="591.535,-270.789 582.385,-276.131 592.869,-277.661 591.535,-270.789"/>
</g>
<!-- Node29 -->
<g id="node17" class="node"><title>Node29</title>
<g id="a_node17"><a xlink:href="../../dc/d87/FullPostureTaskBuilder_8h.html" target="_top" xlink:title="FullPostureTaskBuilder.h">
<polygon fill="white" stroke="black" points="883.396,-220.5 883.396,-238.5 1009.46,-238.5 1009.46,-220.5 883.396,-220.5"/>
<text text-anchor="middle" x="946.426" y="-226.5" font-family="Helvetica,sans-Serif" font-size="10.00">FullPostureTaskBuilder.h</text>
</a>
</g>
</g>
<!-- Node14&#45;&gt;Node29 -->
<g id="edge18" class="edge"><title>Node14&#45;&gt;Node29</title>
<path fill="none" stroke="midnightblue" d="M592.714,-274.78C643.478,-267.583 795.879,-248.862 883.348,-238.181"/>
<polygon fill="midnightblue" stroke="midnightblue" points="591.933,-271.357 582.55,-276.278 592.954,-278.282 591.933,-271.357"/>
</g>
<!-- Node31 -->
<g id="node19" class="node"><title>Node31</title>
<g id="a_node19"><a xlink:href="../../d1/df8/OrientationTaskBuilder_8h.html" target="_top" xlink:title="OrientationTaskBuilder.h">
<polygon fill="white" stroke="black" points="1027.23,-220.5 1027.23,-238.5 1151.62,-238.5 1151.62,-220.5 1027.23,-220.5"/>
<text text-anchor="middle" x="1089.43" y="-226.5" font-family="Helvetica,sans-Serif" font-size="10.00">OrientationTaskBuilder.h</text>
</a>
</g>
</g>
<!-- Node14&#45;&gt;Node31 -->
<g id="edge21" class="edge"><title>Node14&#45;&gt;Node31</title>
<path fill="none" stroke="midnightblue" d="M592.272,-274.867C781.338,-249.916 831.761,-258.018 1018.43,-239 1021.27,-238.711 1024.17,-238.405 1027.1,-238.087"/>
<polygon fill="midnightblue" stroke="midnightblue" points="591.733,-271.407 582.283,-276.198 592.658,-278.346 591.733,-271.407"/>
</g>
<!-- Node33 -->
<g id="node21" class="node"><title>Node33</title>
<g id="a_node21"><a xlink:href="../../d5/d81/PartialPostureTaskBuilder_8h.html" target="_top" xlink:title="PartialPostureTaskBuilder.h">
<polygon fill="white" stroke="black" points="30.2808,-220.5 30.2808,-238.5 168.571,-238.5 168.571,-220.5 30.2808,-220.5"/>
<text text-anchor="middle" x="99.4258" y="-226.5" font-family="Helvetica,sans-Serif" font-size="10.00">PartialPostureTaskBuilder.h</text>
</a>
</g>
</g>
<!-- Node14&#45;&gt;Node33 -->
<g id="edge24" class="edge"><title>Node14&#45;&gt;Node33</title>
<path fill="none" stroke="midnightblue" d="M496.265,-277.764C416.715,-268.289 257.66,-249.346 166.932,-238.54"/>
<polygon fill="midnightblue" stroke="midnightblue" points="496.142,-281.274 506.485,-278.981 496.969,-274.323 496.142,-281.274"/>
</g>
<!-- Node35 -->
<g id="node23" class="node"><title>Node35</title>
<g id="a_node23"><a xlink:href="../../d2/d1a/PointContactTaskBuilder_8h.html" target="_top" xlink:title="PointContactTaskBuilder.h">
<polygon fill="white" stroke="black" points="187.057,-220.5 187.057,-238.5 319.795,-238.5 319.795,-220.5 187.057,-220.5"/>
<text text-anchor="middle" x="253.426" y="-226.5" font-family="Helvetica,sans-Serif" font-size="10.00">PointContactTaskBuilder.h</text>
</a>
</g>
</g>
<!-- Node14&#45;&gt;Node35 -->
<g id="edge27" class="edge"><title>Node14&#45;&gt;Node35</title>
<path fill="none" stroke="midnightblue" d="M496.806,-274.827C441.647,-264.781 351.493,-248.361 297.768,-238.576"/>
<polygon fill="midnightblue" stroke="midnightblue" points="496.216,-278.277 506.681,-276.626 497.47,-271.39 496.216,-278.277"/>
</g>
<!-- Node37 -->
<g id="node25" class="node"><title>Node37</title>
<g id="a_node25"><a xlink:href="../../d4/d7b/PoseTaskBuilder_8h.html" target="_top" xlink:title="PoseTaskBuilder.h">
<polygon fill="white" stroke="black" points="375.288,-220.5 375.288,-238.5 473.563,-238.5 473.563,-220.5 375.288,-220.5"/>
<text text-anchor="middle" x="424.426" y="-226.5" font-family="Helvetica,sans-Serif" font-size="10.00">PoseTaskBuilder.h</text>
</a>
</g>
</g>
<!-- Node14&#45;&gt;Node37 -->
<g id="edge30" class="edge"><title>Node14&#45;&gt;Node37</title>
<path fill="none" stroke="midnightblue" d="M516.765,-271.283C494.059,-261.254 462.539,-247.333 442.823,-238.625"/>
<polygon fill="midnightblue" stroke="midnightblue" points="515.639,-274.612 526.2,-275.45 518.467,-268.209 515.639,-274.612"/>
</g>
<!-- Node39 -->
<g id="node27" class="node"><title>Node39</title>
<g id="a_node27"><a xlink:href="../../da/d3a/TaskBuilder_8cpp.html" target="_top" xlink:title="TaskBuilder.cpp">
<polygon fill="white" stroke="black" points="665.404,-220.5 665.404,-238.5 751.448,-238.5 751.448,-220.5 665.404,-220.5"/>
<text text-anchor="middle" x="708.426" y="-226.5" font-family="Helvetica,sans-Serif" font-size="10.00">TaskBuilder.cpp</text>
</a>
</g>
</g>
<!-- Node14&#45;&gt;Node39 -->
<g id="edge34" class="edge"><title>Node14&#45;&gt;Node39</title>
<path fill="none" stroke="midnightblue" d="M578.966,-272.338C610.279,-262.218 655.672,-247.549 683.553,-238.538"/>
<polygon fill="midnightblue" stroke="midnightblue" points="577.773,-269.045 569.334,-275.45 579.926,-275.706 577.773,-269.045"/>
</g>
<!-- Node15&#45;&gt;Node16 -->
<g id="edge3" class="edge"><title>Node15&#45;&gt;Node16</title>
<path fill="none" stroke="midnightblue" d="M570.827,-213.926C559.037,-204.162 543.951,-191.669 534.237,-183.625"/>
<polygon fill="midnightblue" stroke="midnightblue" points="568.771,-216.768 578.706,-220.45 573.236,-211.377 568.771,-216.768"/>
</g>
<!-- Node26 -->
<g id="node14" class="node"><title>Node26</title>
<g id="a_node14"><a xlink:href="../../d5/d46/CartesianTaskBuilder_8cpp.html" target="_top" xlink:title="CartesianTaskBuilder.cpp">
<polygon fill="white" stroke="black" points="612.005,-165.5 612.005,-183.5 740.847,-183.5 740.847,-165.5 612.005,-165.5"/>
<text text-anchor="middle" x="676.426" y="-171.5" font-family="Helvetica,sans-Serif" font-size="10.00">CartesianTaskBuilder.cpp</text>
</a>
</g>
</g>
<!-- Node15&#45;&gt;Node26 -->
<g id="edge14" class="edge"><title>Node15&#45;&gt;Node26</title>
<path fill="none" stroke="midnightblue" d="M610.757,-215.051C627.213,-205.139 649.06,-191.982 662.935,-183.625"/>
<polygon fill="midnightblue" stroke="midnightblue" points="608.552,-212.293 601.791,-220.45 612.163,-218.289 608.552,-212.293"/>
</g>
<!-- Node17 -->
<g id="node5" class="node"><title>Node17</title>
<g id="a_node5"><a xlink:href="../../dd/d25/TaskConstructionManager_8cpp.html" target="_top" xlink:title="TaskConstructionManager.cpp">
<polygon fill="white" stroke="black" points="272.165,-110.5 272.165,-128.5 422.687,-128.5 422.687,-110.5 272.165,-110.5"/>
<text text-anchor="middle" x="347.426" y="-116.5" font-family="Helvetica,sans-Serif" font-size="10.00">TaskConstructionManager.cpp</text>
</a>
</g>
</g>
<!-- Node16&#45;&gt;Node17 -->
<g id="edge4" class="edge"><title>Node16&#45;&gt;Node17</title>
<path fill="none" stroke="midnightblue" d="M487.586,-162.469C453.777,-152.345 404.492,-137.588 374.271,-128.538"/>
<polygon fill="midnightblue" stroke="midnightblue" points="486.96,-165.935 497.543,-165.45 488.968,-159.229 486.96,-165.935"/>
</g>
<!-- Node18 -->
<g id="node6" class="node"><title>Node18</title>
<g id="a_node6"><a xlink:href="../../db/d9a/ControllerClient_8h.html" target="_top" xlink:title="ControllerClient.h">
<polygon fill="white" stroke="black" points="440.798,-110.5 440.798,-128.5 534.054,-128.5 534.054,-110.5 440.798,-110.5"/>
<text text-anchor="middle" x="487.426" y="-116.5" font-family="Helvetica,sans-Serif" font-size="10.00">ControllerClient.h</text>
</a>
</g>
</g>
<!-- Node16&#45;&gt;Node18 -->
<g id="edge5" class="edge"><title>Node16&#45;&gt;Node18</title>
<path fill="none" stroke="midnightblue" d="M512.873,-156.951C506.271,-147.494 498.288,-136.059 493.045,-128.55"/>
<polygon fill="midnightblue" stroke="midnightblue" points="510.05,-159.023 518.645,-165.219 515.79,-155.016 510.05,-159.023"/>
</g>
<!-- Node22 -->
<g id="node10" class="node"><title>Node22</title>
<g id="a_node10"><a xlink:href="../../da/d7c/ControllerServer_8h.html" target="_top" xlink:title="ControllerServer.h">
<polygon fill="white" stroke="black" points="557.128,-55.5 557.128,-73.5 653.724,-73.5 653.724,-55.5 557.128,-55.5"/>
<text text-anchor="middle" x="605.426" y="-61.5" font-family="Helvetica,sans-Serif" font-size="10.00">ControllerServer.h</text>
</a>
</g>
</g>
<!-- Node16&#45;&gt;Node22 -->
<g id="edge9" class="edge"><title>Node16&#45;&gt;Node22</title>
<path fill="none" stroke="midnightblue" d="M536.689,-157.148C554.262,-133.719 585.95,-91.4681 599.267,-73.7118"/>
<polygon fill="midnightblue" stroke="midnightblue" points="533.714,-155.282 530.514,-165.382 539.314,-159.482 533.714,-155.282"/>
</g>
<!-- Node24 -->
<g id="node12" class="node"><title>Node24</title>
<g id="a_node12"><a xlink:href="../../d2/d6c/ServerCommunications_8h.html" target="_top" xlink:title="ServerCommunications.h">
<polygon fill="white" stroke="black" points="590.293,-110.5 590.293,-128.5 718.559,-128.5 718.559,-110.5 590.293,-110.5"/>
<text text-anchor="middle" x="654.426" y="-116.5" font-family="Helvetica,sans-Serif" font-size="10.00">ServerCommunications.h</text>
</a>
</g>
</g>
<!-- Node16&#45;&gt;Node24 -->
<g id="edge11" class="edge"><title>Node16&#45;&gt;Node24</title>
<path fill="none" stroke="midnightblue" d="M553.732,-161.552C578.377,-151.505 612.945,-137.411 634.496,-128.625"/>
<polygon fill="midnightblue" stroke="midnightblue" points="552.109,-158.434 544.17,-165.45 554.751,-164.916 552.109,-158.434"/>
</g>
<!-- Node19 -->
<g id="node7" class="node"><title>Node19</title>
<g id="a_node7"><a xlink:href="../../d8/d80/ClientManager_8h.html" target="_top" xlink:title="Module class for the controller Client. ">
<polygon fill="white" stroke="black" points="329.012,-55.5 329.012,-73.5 417.839,-73.5 417.839,-55.5 329.012,-55.5"/>
<text text-anchor="middle" x="373.426" y="-61.5" font-family="Helvetica,sans-Serif" font-size="10.00">ClientManager.h</text>
</a>
</g>
</g>
<!-- Node18&#45;&gt;Node19 -->
<g id="edge6" class="edge"><title>Node18&#45;&gt;Node19</title>
<path fill="none" stroke="midnightblue" d="M460.858,-106.148C439.309,-96.1297 409.549,-82.2941 390.903,-73.6253"/>
<polygon fill="midnightblue" stroke="midnightblue" points="459.568,-109.408 470.112,-110.45 462.519,-103.061 459.568,-109.408"/>
</g>
<!-- Node21 -->
<g id="node9" class="node"><title>Node21</title>
<g id="a_node9"><a xlink:href="../../d2/d77/ControllerClient_8cpp.html" target="_top" xlink:title="ControllerClient.cpp">
<polygon fill="white" stroke="black" points="435.517,-55.5 435.517,-73.5 539.334,-73.5 539.334,-55.5 435.517,-55.5"/>
<text text-anchor="middle" x="487.426" y="-61.5" font-family="Helvetica,sans-Serif" font-size="10.00">ControllerClient.cpp</text>
</a>
</g>
</g>
<!-- Node18&#45;&gt;Node21 -->
<g id="edge8" class="edge"><title>Node18&#45;&gt;Node21</title>
<path fill="none" stroke="midnightblue" d="M487.426,-100.175C487.426,-91.0945 487.426,-80.5949 487.426,-73.5496"/>
<polygon fill="midnightblue" stroke="midnightblue" points="483.926,-100.219 487.426,-110.219 490.926,-100.219 483.926,-100.219"/>
</g>
<!-- Node20 -->
<g id="node8" class="node"><title>Node20</title>
<g id="a_node8"><a xlink:href="../../d9/d36/ClientManager_8cpp.html" target="_top" xlink:title="ClientManager.cpp">
<polygon fill="white" stroke="black" points="323.731,-0.5 323.731,-18.5 423.12,-18.5 423.12,-0.5 323.731,-0.5"/>
<text text-anchor="middle" x="373.426" y="-6.5" font-family="Helvetica,sans-Serif" font-size="10.00">ClientManager.cpp</text>
</a>
</g>
</g>
<!-- Node19&#45;&gt;Node20 -->
<g id="edge7" class="edge"><title>Node19&#45;&gt;Node20</title>
<path fill="none" stroke="midnightblue" d="M373.426,-45.1746C373.426,-36.0945 373.426,-25.5949 373.426,-18.5496"/>
<polygon fill="midnightblue" stroke="midnightblue" points="369.926,-45.2187 373.426,-55.2188 376.926,-45.2188 369.926,-45.2187"/>
</g>
<!-- Node23 -->
<g id="node11" class="node"><title>Node23</title>
<g id="a_node11"><a xlink:href="../../d5/dd2/ControllerServer_8cpp.html" target="_top" xlink:title="ControllerServer.cpp">
<polygon fill="white" stroke="black" points="551.847,-0.5 551.847,-18.5 659.004,-18.5 659.004,-0.5 551.847,-0.5"/>
<text text-anchor="middle" x="605.426" y="-6.5" font-family="Helvetica,sans-Serif" font-size="10.00">ControllerServer.cpp</text>
</a>
</g>
</g>
<!-- Node22&#45;&gt;Node23 -->
<g id="edge10" class="edge"><title>Node22&#45;&gt;Node23</title>
<path fill="none" stroke="midnightblue" d="M605.426,-45.1746C605.426,-36.0945 605.426,-25.5949 605.426,-18.5496"/>
<polygon fill="midnightblue" stroke="midnightblue" points="601.926,-45.2187 605.426,-55.2188 608.926,-45.2188 601.926,-45.2187"/>
</g>
<!-- Node24&#45;&gt;Node22 -->
<g id="edge12" class="edge"><title>Node24&#45;&gt;Node22</title>
<path fill="none" stroke="midnightblue" d="M639.931,-102.822C631.04,-93.2051 620.026,-81.2917 612.868,-73.5496"/>
<polygon fill="midnightblue" stroke="midnightblue" points="637.411,-105.252 646.77,-110.219 642.551,-100.5 637.411,-105.252"/>
</g>
<!-- Node25 -->
<g id="node13" class="node"><title>Node25</title>
<g id="a_node13"><a xlink:href="../../dc/dac/ServerCommunications_8cpp.html" target="_top" xlink:title="ServerCommunications.cpp">
<polygon fill="white" stroke="black" points="672.012,-55.5 672.012,-73.5 810.839,-73.5 810.839,-55.5 672.012,-55.5"/>
<text text-anchor="middle" x="741.426" y="-61.5" font-family="Helvetica,sans-Serif" font-size="10.00">ServerCommunications.cpp</text>
</a>
</g>
</g>
<!-- Node24&#45;&gt;Node25 -->
<g id="edge13" class="edge"><title>Node24&#45;&gt;Node25</title>
<path fill="none" stroke="midnightblue" d="M676.503,-105.051C692.773,-95.1393 714.371,-81.9817 728.088,-73.6253"/>
<polygon fill="midnightblue" stroke="midnightblue" points="674.358,-102.259 667.639,-110.45 678,-108.237 674.358,-102.259"/>
</g>
<!-- Node27&#45;&gt;Node16 -->
<g id="edge16" class="edge"><title>Node27&#45;&gt;Node16</title>
<path fill="none" stroke="midnightblue" d="M762.837,-218.626C706.854,-208.499 620.832,-192.939 568.864,-183.538"/>
<polygon fill="midnightblue" stroke="midnightblue" points="762.462,-222.114 772.925,-220.45 763.708,-215.226 762.462,-222.114"/>
</g>
<!-- Node28 -->
<g id="node16" class="node"><title>Node28</title>
<g id="a_node16"><a xlink:href="../../d4/d18/ComTaskBuilder_8cpp.html" target="_top" xlink:title="ComTaskBuilder.cpp">
<polygon fill="white" stroke="black" points="758.847,-165.5 758.847,-183.5 866.004,-183.5 866.004,-165.5 758.847,-165.5"/>
<text text-anchor="middle" x="812.426" y="-171.5" font-family="Helvetica,sans-Serif" font-size="10.00">ComTaskBuilder.cpp</text>
</a>
</g>
</g>
<!-- Node27&#45;&gt;Node28 -->
<g id="edge17" class="edge"><title>Node27&#45;&gt;Node28</title>
<path fill="none" stroke="midnightblue" d="M815.697,-210.175C814.84,-201.094 813.85,-190.595 813.185,-183.55"/>
<polygon fill="midnightblue" stroke="midnightblue" points="812.221,-210.592 816.645,-220.219 819.19,-209.934 812.221,-210.592"/>
</g>
<!-- Node29&#45;&gt;Node16 -->
<g id="edge19" class="edge"><title>Node29&#45;&gt;Node16</title>
<path fill="none" stroke="midnightblue" d="M873.197,-219.303C792.776,-209.203 664.914,-193.144 588.381,-183.532"/>
<polygon fill="midnightblue" stroke="midnightblue" points="872.89,-222.792 883.248,-220.565 873.762,-215.846 872.89,-222.792"/>
</g>
<!-- Node30 -->
<g id="node18" class="node"><title>Node30</title>
<g id="a_node18"><a xlink:href="../../d7/de9/FullPostureTaskBuilder_8cpp.html" target="_top" xlink:title="FullPostureTaskBuilder.cpp">
<polygon fill="white" stroke="black" points="884.116,-165.5 884.116,-183.5 1020.74,-183.5 1020.74,-165.5 884.116,-165.5"/>
<text text-anchor="middle" x="952.426" y="-171.5" font-family="Helvetica,sans-Serif" font-size="10.00">FullPostureTaskBuilder.cpp</text>
</a>
</g>
</g>
<!-- Node29&#45;&gt;Node30 -->
<g id="edge20" class="edge"><title>Node29&#45;&gt;Node30</title>
<path fill="none" stroke="midnightblue" d="M948.5,-210.175C949.528,-201.094 950.717,-190.595 951.515,-183.55"/>
<polygon fill="midnightblue" stroke="midnightblue" points="945.01,-209.888 947.363,-220.219 951.966,-210.676 945.01,-209.888"/>
</g>
<!-- Node31&#45;&gt;Node16 -->
<g id="edge22" class="edge"><title>Node31&#45;&gt;Node16</title>
<path fill="none" stroke="midnightblue" d="M1017.07,-219.89C832.587,-201.02 784.456,-201.589 603.426,-184 600.543,-183.72 597.601,-183.428 594.629,-183.13"/>
<polygon fill="midnightblue" stroke="midnightblue" points="1016.79,-223.381 1027.1,-220.922 1017.51,-216.417 1016.79,-223.381"/>
</g>
<!-- Node32 -->
<g id="node20" class="node"><title>Node32</title>
<g id="a_node20"><a xlink:href="../../d8/da4/OrientationTaskBuilder_8cpp.html" target="_top" xlink:title="OrientationTaskBuilder.cpp">
<polygon fill="white" stroke="black" points="1038.95,-165.5 1038.95,-183.5 1173.91,-183.5 1173.91,-165.5 1038.95,-165.5"/>
<text text-anchor="middle" x="1106.43" y="-171.5" font-family="Helvetica,sans-Serif" font-size="10.00">OrientationTaskBuilder.cpp</text>
</a>
</g>
</g>
<!-- Node31&#45;&gt;Node32 -->
<g id="edge23" class="edge"><title>Node31&#45;&gt;Node32</title>
<path fill="none" stroke="midnightblue" d="M1095.21,-210.473C1098.14,-201.326 1101.56,-190.672 1103.84,-183.55"/>
<polygon fill="midnightblue" stroke="midnightblue" points="1091.8,-209.628 1092.08,-220.219 1098.47,-211.766 1091.8,-209.628"/>
</g>
<!-- Node33&#45;&gt;Node16 -->
<g id="edge25" class="edge"><title>Node33&#45;&gt;Node16</title>
<path fill="none" stroke="midnightblue" d="M174.105,-219.187C255.134,-209.082 383.181,-193.114 459.968,-183.538"/>
<polygon fill="midnightblue" stroke="midnightblue" points="173.464,-215.74 163.974,-220.45 174.33,-222.686 173.464,-215.74"/>
</g>
<!-- Node34 -->
<g id="node22" class="node"><title>Node34</title>
<g id="a_node22"><a xlink:href="../../d5/df0/PartialPostureTaskBuilder_8cpp.html" target="_top" xlink:title="PartialPostureTaskBuilder.cpp">
<polygon fill="white" stroke="black" points="0,-165.5 0,-183.5 148.852,-183.5 148.852,-165.5 0,-165.5"/>
<text text-anchor="middle" x="74.4258" y="-171.5" font-family="Helvetica,sans-Serif" font-size="10.00">PartialPostureTaskBuilder.cpp</text>
</a>
</g>
</g>
<!-- Node33&#45;&gt;Node34 -->
<g id="edge26" class="edge"><title>Node33&#45;&gt;Node34</title>
<path fill="none" stroke="midnightblue" d="M91.2031,-211.068C86.827,-201.791 81.6556,-190.827 78.2227,-183.55"/>
<polygon fill="midnightblue" stroke="midnightblue" points="88.0878,-212.668 95.5195,-220.219 94.4188,-209.681 88.0878,-212.668"/>
</g>
<!-- Node35&#45;&gt;Node16 -->
<g id="edge28" class="edge"><title>Node35&#45;&gt;Node16</title>
<path fill="none" stroke="midnightblue" d="M304.562,-218.499C356.355,-208.37 435.458,-192.9 483.324,-183.538"/>
<polygon fill="midnightblue" stroke="midnightblue" points="303.727,-215.096 294.585,-220.45 305.071,-221.966 303.727,-215.096"/>
</g>
<!-- Node36 -->
<g id="node24" class="node"><title>Node36</title>
<g id="a_node24"><a xlink:href="../../da/d78/PointContactTaskBuilder_8cpp.html" target="_top" xlink:title="PointContactTaskBuilder.cpp">
<polygon fill="white" stroke="black" points="166.776,-165.5 166.776,-183.5 310.076,-183.5 310.076,-165.5 166.776,-165.5"/>
<text text-anchor="middle" x="238.426" y="-171.5" font-family="Helvetica,sans-Serif" font-size="10.00">PointContactTaskBuilder.cpp</text>
</a>
</g>
</g>
<!-- Node35&#45;&gt;Node36 -->
<g id="edge29" class="edge"><title>Node35&#45;&gt;Node36</title>
<path fill="none" stroke="midnightblue" d="M248.324,-210.473C245.735,-201.326 242.72,-190.672 240.704,-183.55"/>
<polygon fill="midnightblue" stroke="midnightblue" points="244.991,-211.55 251.082,-220.219 251.726,-209.644 244.991,-211.55"/>
</g>
<!-- Node37&#45;&gt;Node16 -->
<g id="edge31" class="edge"><title>Node37&#45;&gt;Node16</title>
<path fill="none" stroke="midnightblue" d="M448.501,-215.74C467.338,-205.757 492.96,-192.177 509.095,-183.625"/>
<polygon fill="midnightblue" stroke="midnightblue" points="446.81,-212.675 439.614,-220.45 450.088,-218.86 446.81,-212.675"/>
</g>
<!-- Node38 -->
<g id="node26" class="node"><title>Node38</title>
<g id="a_node26"><a xlink:href="../../d2/def/PoseTaskBuilder_8cpp.html" target="_top" xlink:title="PoseTaskBuilder.cpp">
<polygon fill="white" stroke="black" points="328.007,-165.5 328.007,-183.5 436.844,-183.5 436.844,-165.5 328.007,-165.5"/>
<text text-anchor="middle" x="382.426" y="-171.5" font-family="Helvetica,sans-Serif" font-size="10.00">PoseTaskBuilder.cpp</text>
</a>
</g>
</g>
<!-- Node37&#45;&gt;Node38 -->
<g id="edge32" class="edge"><title>Node37&#45;&gt;Node38</title>
<path fill="none" stroke="midnightblue" d="M411.543,-212.243C404.004,-202.73 394.817,-191.137 388.805,-183.55"/>
<polygon fill="midnightblue" stroke="midnightblue" points="408.909,-214.555 417.863,-220.219 414.396,-210.207 408.909,-214.555"/>
</g>
</g>
</svg>
