<?xml version="1.0" encoding="UTF-8" standalone="no"?>
<!DOCTYPE svg PUBLIC "-//W3C//DTD SVG 1.1//EN"
 "http://www.w3.org/Graphics/SVG/1.1/DTD/svg11.dtd">
<!-- Generated by graphviz version 2.38.0 (20140413.2041)
 -->
<!-- Title: TorqueLimitConstraint.h Pages: 1 -->
<svg width="411pt" height="247pt"
 viewBox="0.00 0.00 411.50 247.00" xmlns="http://www.w3.org/2000/svg" xmlns:xlink="http://www.w3.org/1999/xlink">
<g id="graph0" class="graph" transform="scale(1 1) rotate(0) translate(4 243)">
<title>TorqueLimitConstraint.h</title>
<polygon fill="white" stroke="none" points="-4,4 -4,-243 407.497,-243 407.497,4 -4,4"/>
<!-- Node47 -->
<g id="node1" class="node"><title>Node47</title>
<polygon fill="#bfbfbf" stroke="black" points="71.2808,-220.5 71.2808,-238.5 192.886,-238.5 192.886,-220.5 71.2808,-220.5"/>
<text text-anchor="middle" x="132.083" y="-226.5" font-family="Helvetica,sans-Serif" font-size="10.00">TorqueLimitConstraint.h</text>
</g>
<!-- Node48 -->
<g id="node2" class="node"><title>Node48</title>
<g id="a_node2"><a xlink:href="../../d8/d52/TorqueLimitConstraint_8cpp.html" target="_top" xlink:title="Implement torque limit constraint for wOcra controller. ">
<polygon fill="white" stroke="black" points="0,-165.5 0,-183.5 132.167,-183.5 132.167,-165.5 0,-165.5"/>
<text text-anchor="middle" x="66.0835" y="-171.5" font-family="Helvetica,sans-Serif" font-size="10.00">TorqueLimitConstraint.cpp</text>
</a>
</g>
</g>
<!-- Node47&#45;&gt;Node48 -->
<g id="edge1" class="edge"><title>Node47&#45;&gt;Node48</title>
<path fill="none" stroke="midnightblue" d="M113.935,-213.926C101.776,-204.162 86.2189,-191.669 76.2018,-183.625"/>
<polygon fill="midnightblue" stroke="midnightblue" points="112.071,-216.918 122.06,-220.45 116.454,-211.46 112.071,-216.918"/>
</g>
<!-- Node49 -->
<g id="node3" class="node"><title>Node49</title>
<g id="a_node3"><a xlink:href="../../db/dc6/WocraController_8h.html" target="_top" xlink:title="Define the LQP&#45;based controller developped during my PhD thesis with ocra framework. ">
<polygon fill="white" stroke="black" points="150.154,-165.5 150.154,-183.5 246.013,-183.5 246.013,-165.5 150.154,-165.5"/>
<text text-anchor="middle" x="198.083" y="-171.5" font-family="Helvetica,sans-Serif" font-size="10.00">WocraController.h</text>
</a>
</g>
</g>
<!-- Node47&#45;&gt;Node49 -->
<g id="edge2" class="edge"><title>Node47&#45;&gt;Node49</title>
<path fill="none" stroke="midnightblue" d="M150.232,-213.926C162.391,-204.162 177.948,-191.669 187.965,-183.625"/>
<polygon fill="midnightblue" stroke="midnightblue" points="147.713,-211.46 142.107,-220.45 152.096,-216.918 147.713,-211.46"/>
</g>
<!-- Node50 -->
<g id="node4" class="node"><title>Node50</title>
<g id="a_node4"><a xlink:href="../../d2/def/WocraController_8cpp.html" target="_top" xlink:title="Implement the LQP&#45;based controller developped during my PhD thesis with ocra framework. ">
<polygon fill="white" stroke="black" points="63.8735,-110.5 63.8735,-128.5 170.293,-128.5 170.293,-110.5 63.8735,-110.5"/>
<text text-anchor="middle" x="117.083" y="-116.5" font-family="Helvetica,sans-Serif" font-size="10.00">WocraController.cpp</text>
</a>
</g>
</g>
<!-- Node49&#45;&gt;Node50 -->
<g id="edge3" class="edge"><title>Node49&#45;&gt;Node50</title>
<path fill="none" stroke="midnightblue" d="M177.103,-159.772C162.006,-149.894 142.153,-136.904 129.501,-128.625"/>
<polygon fill="midnightblue" stroke="midnightblue" points="175.497,-162.904 185.781,-165.45 179.33,-157.046 175.497,-162.904"/>
</g>
<!-- Node51 -->
<g id="node5" class="node"><title>Node51</title>
<g id="a_node5"><a xlink:href="../../da/d7c/ControllerServer_8h.html" target="_top" xlink:title="ControllerServer.h">
<polygon fill="white" stroke="black" points="149.786,-55.5 149.786,-73.5 246.381,-73.5 246.381,-55.5 149.786,-55.5"/>
<text text-anchor="middle" x="198.083" y="-61.5" font-family="Helvetica,sans-Serif" font-size="10.00">ControllerServer.h</text>
</a>
</g>
</g>
<!-- Node49&#45;&gt;Node51 -->
<g id="edge4" class="edge"><title>Node49&#45;&gt;Node51</title>
<path fill="none" stroke="midnightblue" d="M198.083,-155.243C198.083,-131.493 198.083,-90.9967 198.083,-73.7118"/>
<polygon fill="midnightblue" stroke="midnightblue" points="194.584,-155.382 198.083,-165.382 201.584,-155.382 194.584,-155.382"/>
</g>
<!-- Node53 -->
<g id="node7" class="node"><title>Node53</title>
<g id="a_node7"><a xlink:href="../../d2/d6c/ServerCommunications_8h.html" target="_top" xlink:title="ServerCommunications.h">
<polygon fill="white" stroke="black" points="225.951,-110.5 225.951,-128.5 354.216,-128.5 354.216,-110.5 225.951,-110.5"/>
<text text-anchor="middle" x="290.083" y="-116.5" font-family="Helvetica,sans-Serif" font-size="10.00">ServerCommunications.h</text>
</a>
</g>
</g>
<!-- Node49&#45;&gt;Node53 -->
<g id="edge6" class="edge"><title>Node49&#45;&gt;Node53</title>
<path fill="none" stroke="midnightblue" d="M220.949,-160.328C238.207,-150.386 261.338,-137.06 275.979,-128.625"/>
<polygon fill="midnightblue" stroke="midnightblue" points="218.974,-157.426 212.056,-165.45 222.468,-163.491 218.974,-157.426"/>
</g>
<!-- Node52 -->
<g id="node6" class="node"><title>Node52</title>
<g id="a_node6"><a xlink:href="../../d5/dd2/ControllerServer_8cpp.html" target="_top" xlink:title="ControllerServer.cpp">
<polygon fill="white" stroke="black" points="144.505,-0.5 144.505,-18.5 251.662,-18.5 251.662,-0.5 144.505,-0.5"/>
<text text-anchor="middle" x="198.083" y="-6.5" font-family="Helvetica,sans-Serif" font-size="10.00">ControllerServer.cpp</text>
</a>
</g>
</g>
<!-- Node51&#45;&gt;Node52 -->
<g id="edge5" class="edge"><title>Node51&#45;&gt;Node52</title>
<path fill="none" stroke="midnightblue" d="M198.083,-45.1746C198.083,-36.0945 198.083,-25.5949 198.083,-18.5496"/>
<polygon fill="midnightblue" stroke="midnightblue" points="194.584,-45.2187 198.083,-55.2188 201.584,-45.2188 194.584,-45.2187"/>
</g>
<!-- Node53&#45;&gt;Node51 -->
<g id="edge7" class="edge"><title>Node53&#45;&gt;Node51</title>
<path fill="none" stroke="midnightblue" d="M267.218,-105.328C249.96,-95.3856 226.829,-82.0598 212.188,-73.6253"/>
<polygon fill="midnightblue" stroke="midnightblue" points="265.699,-108.491 276.111,-110.45 269.193,-102.426 265.699,-108.491"/>
</g>
<!-- Node54 -->
<g id="node8" class="node"><title>Node54</title>
<g id="a_node8"><a xlink:href="../../dc/dac/ServerCommunications_8cpp.html" target="_top" xlink:title="ServerCommunications.cpp">
<polygon fill="white" stroke="black" points="264.67,-55.5 264.67,-73.5 403.497,-73.5 403.497,-55.5 264.67,-55.5"/>
<text text-anchor="middle" x="334.083" y="-61.5" font-family="Helvetica,sans-Serif" font-size="10.00">ServerCommunications.cpp</text>
</a>
</g>
</g>
<!-- Node53&#45;&gt;Node54 -->
<g id="edge8" class="edge"><title>Node53&#45;&gt;Node54</title>
<path fill="none" stroke="midnightblue" d="M303.58,-102.243C311.477,-92.7302 321.102,-81.1369 327.401,-73.5496"/>
<polygon fill="midnightblue" stroke="midnightblue" points="300.653,-100.289 296.958,-110.219 306.039,-104.76 300.653,-100.289"/>
</g>
</g>
</svg>
