<?xml version="1.0" encoding="UTF-8" standalone="no"?>
<!DOCTYPE svg PUBLIC "-//W3C//DTD SVG 1.1//EN"
 "http://www.w3.org/Graphics/SVG/1.1/DTD/svg11.dtd">
<!-- Generated by graphviz version 2.38.0 (20140413.2041)
 -->
<!-- Title: RobotState.h Pages: 1 -->
<svg width="1810pt" height="322pt"
 viewBox="0.00 0.00 1810.19 322.00" xmlns="http://www.w3.org/2000/svg" xmlns:xlink="http://www.w3.org/1999/xlink">
<g id="graph0" class="graph" transform="scale(1 1) rotate(0) translate(4 318)">
<title>RobotState.h</title>
<polygon fill="white" stroke="none" points="-4,4 -4,-318 1806.19,-318 1806.19,4 -4,4"/>
<!-- Node0 -->
<g id="node1" class="node"><title>Node0</title>
<polygon fill="#bfbfbf" stroke="black" points="551.392,-295.5 551.392,-313.5 625.766,-313.5 625.766,-295.5 551.392,-295.5"/>
<text text-anchor="middle" x="588.579" y="-301.5" font-family="Helvetica,sans-Serif" font-size="10.00">RobotState.h</text>
</g>
<!-- Node1 -->
<g id="node2" class="node"><title>Node1</title>
<polygon fill="white" stroke="#bfbfbf" points="0,-240.5 0,-258.5 97.1572,-258.5 97.1572,-240.5 0,-240.5"/>
<text text-anchor="middle" x="48.5786" y="-246.5" font-family="Helvetica,sans-Serif" font-size="10.00">yarp/os/Portable.h</text>
</g>
<!-- Node0&#45;&gt;Node1 -->
<g id="edge1" class="edge"><title>Node0&#45;&gt;Node1</title>
<path fill="none" stroke="midnightblue" d="M551.315,-300.742C471.822,-294.712 279.516,-279.344 107.294,-259.02"/>
<polygon fill="midnightblue" stroke="midnightblue" points="107.631,-255.536 97.2877,-257.831 106.805,-262.487 107.631,-255.536"/>
</g>
<!-- Node2 -->
<g id="node3" class="node"><title>Node2</title>
<polygon fill="white" stroke="#bfbfbf" points="115.359,-240.5 115.359,-258.5 251.798,-258.5 251.798,-240.5 115.359,-240.5"/>
<text text-anchor="middle" x="183.579" y="-246.5" font-family="Helvetica,sans-Serif" font-size="10.00">yarp/os/ConnectionWriter.h</text>
</g>
<!-- Node0&#45;&gt;Node2 -->
<g id="edge2" class="edge"><title>Node0&#45;&gt;Node2</title>
<path fill="none" stroke="midnightblue" d="M551.203,-298.609C483.957,-289.809 341.54,-271.171 255.038,-259.851"/>
<polygon fill="midnightblue" stroke="midnightblue" points="255.404,-256.37 245.034,-258.542 254.496,-263.31 255.404,-256.37"/>
</g>
<!-- Node3 -->
<g id="node4" class="node"><title>Node3</title>
<polygon fill="white" stroke="#bfbfbf" points="270.202,-240.5 270.202,-258.5 412.955,-258.5 412.955,-240.5 270.202,-240.5"/>
<text text-anchor="middle" x="341.579" y="-246.5" font-family="Helvetica,sans-Serif" font-size="10.00">yarp/os/ConnectionReader.h</text>
</g>
<!-- Node0&#45;&gt;Node3 -->
<g id="edge3" class="edge"><title>Node0&#45;&gt;Node3</title>
<path fill="none" stroke="midnightblue" d="M551.333,-295.508C508.016,-286.213 436.423,-270.851 389.126,-260.702"/>
<polygon fill="midnightblue" stroke="midnightblue" points="389.64,-257.233 379.128,-258.557 388.171,-264.077 389.64,-257.233"/>
</g>
<!-- Node4 -->
<g id="node5" class="node"><title>Node4</title>
<polygon fill="white" stroke="#bfbfbf" points="431.328,-240.5 431.328,-258.5 541.83,-258.5 541.83,-240.5 431.328,-240.5"/>
<text text-anchor="middle" x="486.579" y="-246.5" font-family="Helvetica,sans-Serif" font-size="10.00">yarp/os/PortReader.h</text>
</g>
<!-- Node0&#45;&gt;Node4 -->
<g id="edge4" class="edge"><title>Node0&#45;&gt;Node4</title>
<path fill="none" stroke="midnightblue" d="M573.087,-295.45C556.686,-286.929 530.56,-273.353 511.306,-263.349"/>
<polygon fill="midnightblue" stroke="midnightblue" points="512.703,-260.13 502.216,-258.625 509.476,-266.342 512.703,-260.13"/>
</g>
<!-- Node5 -->
<g id="node6" class="node"><title>Node5</title>
<polygon fill="white" stroke="#bfbfbf" points="530.948,-130.5 530.948,-148.5 604.209,-148.5 604.209,-130.5 530.948,-130.5"/>
<text text-anchor="middle" x="567.579" y="-136.5" font-family="Helvetica,sans-Serif" font-size="10.00">Eigen/Dense</text>
</g>
<!-- Node0&#45;&gt;Node5 -->
<g id="edge5" class="edge"><title>Node0&#45;&gt;Node5</title>
<path fill="none" stroke="midnightblue" d="M585.919,-295.364C580.575,-278.537 568.691,-238.585 564.579,-204 563.582,-195.615 564.294,-193.44 564.579,-185 564.869,-176.374 565.475,-166.823 566.067,-158.788"/>
<polygon fill="midnightblue" stroke="midnightblue" points="569.566,-158.937 566.86,-148.693 562.588,-158.389 569.566,-158.937"/>
</g>
<!-- Node6 -->
<g id="node7" class="node"><title>Node6</title>
<polygon fill="white" stroke="#bfbfbf" points="573.175,-185.5 573.175,-203.5 641.982,-203.5 641.982,-185.5 573.175,-185.5"/>
<text text-anchor="middle" x="607.579" y="-191.5" font-family="Helvetica,sans-Serif" font-size="10.00">Eigen/Lgsm</text>
</g>
<!-- Node0&#45;&gt;Node6 -->
<g id="edge6" class="edge"><title>Node0&#45;&gt;Node6</title>
<path fill="none" stroke="midnightblue" d="M590.007,-295.382C593.046,-278.104 600.22,-237.329 604.401,-213.563"/>
<polygon fill="midnightblue" stroke="midnightblue" points="607.848,-214.167 606.134,-203.712 600.954,-212.954 607.848,-214.167"/>
</g>
<!-- Node7 -->
<g id="node8" class="node"><title>Node7</title>
<g id="a_node8"><a xlink:href="../../d3/d5a/Model_8h.html" target="_top" xlink:title="Declaration file of the Model class. ">
<polygon fill="white" stroke="black" points="988.278,-240.5 988.278,-258.5 1094.88,-258.5 1094.88,-240.5 988.278,-240.5"/>
<text text-anchor="middle" x="1041.58" y="-246.5" font-family="Helvetica,sans-Serif" font-size="10.00">ocra/control/Model.h</text>
</a>
</g>
</g>
<!-- Node0&#45;&gt;Node7 -->
<g id="edge7" class="edge"><title>Node0&#45;&gt;Node7</title>
<path fill="none" stroke="midnightblue" d="M626.035,-299.118C703.448,-290.061 881.837,-269.189 977.772,-257.965"/>
<polygon fill="midnightblue" stroke="midnightblue" points="978.396,-261.416 987.922,-256.778 977.583,-254.464 978.396,-261.416"/>
</g>
<!-- Node36 -->
<g id="node37" class="node"><title>Node36</title>
<g id="a_node37"><a xlink:href="../../df/d0a/Macros_8h.html" target="_top" xlink:title="ocra/util/Macros.h">
<polygon fill="white" stroke="black" points="1448.12,-185.5 1448.12,-203.5 1543.04,-203.5 1543.04,-185.5 1448.12,-185.5"/>
<text text-anchor="middle" x="1495.58" y="-191.5" font-family="Helvetica,sans-Serif" font-size="10.00">ocra/util/Macros.h</text>
</a>
</g>
</g>
<!-- Node0&#45;&gt;Node36 -->
<g id="edge55" class="edge"><title>Node0&#45;&gt;Node36</title>
<path fill="none" stroke="midnightblue" d="M625.89,-302.096C728.547,-297.943 1013.54,-284.398 1103.58,-259 1121.75,-253.874 1123.5,-245.434 1141.58,-240 1266.22,-202.542 1305.48,-221.051 1437.82,-204.168"/>
<polygon fill="midnightblue" stroke="midnightblue" points="1438.48,-207.612 1447.93,-202.833 1437.56,-200.672 1438.48,-207.612"/>
</g>
<!-- Node40 -->
<g id="node41" class="node"><title>Node40</title>
<g id="a_node41"><a xlink:href="../../d8/d9f/ErrorsHelper_8h.html" target="_top" xlink:title="ocra/util/ErrorsHelper.h">
<polygon fill="white" stroke="black" points="1150.45,-240.5 1150.45,-258.5 1268.71,-258.5 1268.71,-240.5 1150.45,-240.5"/>
<text text-anchor="middle" x="1209.58" y="-246.5" font-family="Helvetica,sans-Serif" font-size="10.00">ocra/util/ErrorsHelper.h</text>
</a>
</g>
</g>
<!-- Node0&#45;&gt;Node40 -->
<g id="edge56" class="edge"><title>Node0&#45;&gt;Node40</title>
<path fill="none" stroke="midnightblue" d="M625.828,-300.926C714.434,-294.704 944.7,-277.956 1136.58,-259 1137.69,-258.89 1138.81,-258.778 1139.94,-258.664"/>
<polygon fill="midnightblue" stroke="midnightblue" points="1140.65,-262.108 1150.24,-257.585 1139.92,-255.146 1140.65,-262.108"/>
</g>
<!-- Node41 -->
<g id="node42" class="node"><title>Node41</title>
<polygon fill="white" stroke="#bfbfbf" points="1286.84,-240.5 1286.84,-258.5 1372.32,-258.5 1372.32,-240.5 1286.84,-240.5"/>
<text text-anchor="middle" x="1329.58" y="-246.5" font-family="Helvetica,sans-Serif" font-size="10.00">yarp/os/Bottle.h</text>
</g>
<!-- Node0&#45;&gt;Node41 -->
<g id="edge58" class="edge"><title>Node0&#45;&gt;Node41</title>
<path fill="none" stroke="midnightblue" d="M626.036,-302.365C728.465,-298.989 1021.98,-287.488 1276.59,-258.987"/>
<polygon fill="midnightblue" stroke="midnightblue" points="1277.23,-262.437 1286.78,-257.836 1276.45,-255.482 1277.23,-262.437"/>
</g>
<!-- Node7&#45;&gt;Node6 -->
<g id="edge51" class="edge"><title>Node7&#45;&gt;Node6</title>
<path fill="none" stroke="midnightblue" d="M988.27,-243.827C914.826,-237.082 778.192,-223.428 652.459,-204.186"/>
<polygon fill="midnightblue" stroke="midnightblue" points="652.687,-200.68 642.269,-202.611 651.617,-207.598 652.687,-200.68"/>
</g>
<!-- Node8 -->
<g id="node9" class="node"><title>Node8</title>
<g id="a_node9"><a xlink:href="../../d5/d55/MathTypes_8h.html" target="_top" xlink:title="Declaration file of the OptimizationVariable class. ">
<polygon fill="white" stroke="black" points="789.054,-185.5 789.054,-203.5 900.103,-203.5 900.103,-185.5 789.054,-185.5"/>
<text text-anchor="middle" x="844.579" y="-191.5" font-family="Helvetica,sans-Serif" font-size="10.00">ocra/util/MathTypes.h</text>
</a>
</g>
</g>
<!-- Node7&#45;&gt;Node8 -->
<g id="edge8" class="edge"><title>Node7&#45;&gt;Node8</title>
<path fill="none" stroke="midnightblue" d="M1011.66,-240.45C977.715,-231.318 922.201,-216.383 884.565,-206.258"/>
<polygon fill="midnightblue" stroke="midnightblue" points="885.023,-202.757 874.457,-203.538 883.204,-209.516 885.023,-202.757"/>
</g>
<!-- Node10 -->
<g id="node11" class="node"><title>Node10</title>
<g id="a_node11"><a xlink:href="../../d8/ddc/ObserverSubject_8h.html" target="_top" xlink:title="Declaration file of the Observer, Subject and ObserverSubject classes. ">
<polygon fill="white" stroke="black" points="917.438,-130.5 917.438,-148.5 1065.72,-148.5 1065.72,-130.5 917.438,-130.5"/>
<text text-anchor="middle" x="991.579" y="-136.5" font-family="Helvetica,sans-Serif" font-size="10.00">ocra/optim/ObserverSubject.h</text>
</a>
</g>
</g>
<!-- Node7&#45;&gt;Node10 -->
<g id="edge11" class="edge"><title>Node7&#45;&gt;Node10</title>
<path fill="none" stroke="midnightblue" d="M1050.93,-240.49C1064.05,-228.257 1085.07,-204.308 1073.58,-185 1064.46,-169.669 1048,-159.293 1032.22,-152.446"/>
<polygon fill="midnightblue" stroke="midnightblue" points="1033.13,-149.045 1022.55,-148.626 1030.56,-155.555 1033.13,-149.045"/>
</g>
<!-- Node21 -->
<g id="node22" class="node"><title>Node21</title>
<g id="a_node22"><a xlink:href="../../d7/d90/Variable_8h.html" target="_top" xlink:title="Declaration file of the Variable class. ">
<polygon fill="white" stroke="black" points="1120.7,-185.5 1120.7,-203.5 1230.46,-203.5 1230.46,-185.5 1120.7,-185.5"/>
<text text-anchor="middle" x="1175.58" y="-191.5" font-family="Helvetica,sans-Serif" font-size="10.00">ocra/optim/Variable.h</text>
</a>
</g>
</g>
<!-- Node7&#45;&gt;Node21 -->
<g id="edge25" class="edge"><title>Node7&#45;&gt;Node21</title>
<path fill="none" stroke="midnightblue" d="M1061.93,-240.45C1084.16,-231.656 1120.01,-217.48 1145.49,-207.401"/>
<polygon fill="midnightblue" stroke="midnightblue" points="1147.02,-210.558 1155.04,-203.625 1144.45,-204.049 1147.02,-210.558"/>
</g>
<!-- Node31 -->
<g id="node32" class="node"><title>Node31</title>
<polygon fill="white" stroke="#bfbfbf" points="1387.35,-130.5 1387.35,-148.5 1427.81,-148.5 1427.81,-130.5 1387.35,-130.5"/>
<text text-anchor="middle" x="1407.58" y="-136.5" font-family="Helvetica,sans-Serif" font-size="10.00">string</text>
</g>
<!-- Node7&#45;&gt;Node31 -->
<g id="edge52" class="edge"><title>Node7&#45;&gt;Node31</title>
<path fill="none" stroke="midnightblue" d="M1093,-240.478C1133.54,-233.314 1191.12,-221.269 1239.58,-204 1257.37,-197.661 1260.16,-192.296 1277.58,-185 1310.99,-171.004 1350.5,-157.955 1377.12,-149.654"/>
<polygon fill="midnightblue" stroke="midnightblue" points="1378.47,-152.9 1387,-146.608 1376.41,-146.211 1378.47,-152.9"/>
</g>
<!-- Node32 -->
<g id="node33" class="node"><title>Node32</title>
<g id="a_node33"><a xlink:href="../../df/d97/NamedInstance_8h.html" target="_top" xlink:title="ocra/optim/NamedInstance.h">
<polygon fill="white" stroke="black" points="1286.66,-185.5 1286.66,-203.5 1430.5,-203.5 1430.5,-185.5 1286.66,-185.5"/>
<text text-anchor="middle" x="1358.58" y="-191.5" font-family="Helvetica,sans-Serif" font-size="10.00">ocra/optim/NamedInstance.h</text>
</a>
</g>
</g>
<!-- Node7&#45;&gt;Node32 -->
<g id="edge43" class="edge"><title>Node7&#45;&gt;Node32</title>
<path fill="none" stroke="midnightblue" d="M1089.72,-240.45C1146.21,-231.006 1239.82,-215.355 1300.34,-205.237"/>
<polygon fill="midnightblue" stroke="midnightblue" points="1301.21,-208.64 1310.5,-203.538 1300.06,-201.735 1301.21,-208.64"/>
</g>
<!-- Node33 -->
<g id="node34" class="node"><title>Node33</title>
<g id="a_node34"><a xlink:href="../../d9/d5d/ModelContacts_8h.html" target="_top" xlink:title="Declaration file of the ModelContacts class. ">
<polygon fill="white" stroke="black" points="918.547,-185.5 918.547,-203.5 1064.61,-203.5 1064.61,-185.5 918.547,-185.5"/>
<text text-anchor="middle" x="991.579" y="-191.5" font-family="Helvetica,sans-Serif" font-size="10.00">ocra/control/ModelContacts.h</text>
</a>
</g>
</g>
<!-- Node7&#45;&gt;Node33 -->
<g id="edge45" class="edge"><title>Node7&#45;&gt;Node33</title>
<path fill="none" stroke="midnightblue" d="M1033.77,-240.219C1026.38,-232.394 1015.13,-220.463 1006.1,-210.892"/>
<polygon fill="midnightblue" stroke="midnightblue" points="1008.58,-208.422 999.173,-203.55 1003.49,-213.225 1008.58,-208.422"/>
</g>
<!-- Node7&#45;&gt;Node36 -->
<g id="edge49" class="edge"><title>Node7&#45;&gt;Node36</title>
<path fill="none" stroke="midnightblue" d="M1094.96,-241.64C1099.57,-241.075 1104.15,-240.521 1108.58,-240 1252.24,-223.076 1291.11,-223.098 1437.66,-204.204"/>
<polygon fill="midnightblue" stroke="midnightblue" points="1438.47,-207.628 1447.94,-202.871 1437.57,-200.687 1438.47,-207.628"/>
</g>
<!-- Node38 -->
<g id="node39" class="node"><title>Node38</title>
<polygon fill="white" stroke="#bfbfbf" points="1561.41,-185.5 1561.41,-203.5 1615.75,-203.5 1615.75,-185.5 1561.41,-185.5"/>
<text text-anchor="middle" x="1588.58" y="-191.5" font-family="Helvetica,sans-Serif" font-size="10.00">iostream</text>
</g>
<!-- Node7&#45;&gt;Node38 -->
<g id="edge53" class="edge"><title>Node7&#45;&gt;Node38</title>
<path fill="none" stroke="midnightblue" d="M1095.24,-243.916C1213.9,-233.768 1492.1,-209.906 1551.13,-203.479"/>
<polygon fill="midnightblue" stroke="midnightblue" points="1551.69,-206.937 1561.18,-202.239 1550.83,-199.989 1551.69,-206.937"/>
</g>
<!-- Node39 -->
<g id="node40" class="node"><title>Node39</title>
<polygon fill="white" stroke="#bfbfbf" points="659.773,-185.5 659.773,-203.5 771.384,-203.5 771.384,-185.5 659.773,-185.5"/>
<text text-anchor="middle" x="715.579" y="-191.5" font-family="Helvetica,sans-Serif" font-size="10.00">yarp/os/Semaphore.h</text>
</g>
<!-- Node7&#45;&gt;Node39 -->
<g id="edge54" class="edge"><title>Node7&#45;&gt;Node39</title>
<path fill="none" stroke="midnightblue" d="M992.066,-240.45C933.855,-230.987 837.309,-215.291 775.083,-205.174"/>
<polygon fill="midnightblue" stroke="midnightblue" points="775.454,-201.688 765.022,-203.538 774.331,-208.598 775.454,-201.688"/>
</g>
<!-- Node8&#45;&gt;Node5 -->
<g id="edge9" class="edge"><title>Node8&#45;&gt;Node5</title>
<path fill="none" stroke="midnightblue" d="M802.508,-185.45C751.854,-175.759 667.037,-159.53 614.365,-149.452"/>
<polygon fill="midnightblue" stroke="midnightblue" points="614.759,-145.964 604.279,-147.522 613.443,-152.839 614.759,-145.964"/>
</g>
<!-- Node9 -->
<g id="node10" class="node"><title>Node9</title>
<polygon fill="white" stroke="#bfbfbf" points="643.963,-130.5 643.963,-148.5 687.194,-148.5 687.194,-130.5 643.963,-130.5"/>
<text text-anchor="middle" x="665.579" y="-136.5" font-family="Helvetica,sans-Serif" font-size="10.00">cmath</text>
</g>
<!-- Node8&#45;&gt;Node9 -->
<g id="edge10" class="edge"><title>Node8&#45;&gt;Node9</title>
<path fill="none" stroke="midnightblue" d="M817.392,-185.45C785.13,-175.898 731.421,-159.995 697.294,-149.891"/>
<polygon fill="midnightblue" stroke="midnightblue" points="697.959,-146.437 687.376,-146.954 695.971,-153.149 697.959,-146.437"/>
</g>
<!-- Node11 -->
<g id="node12" class="node"><title>Node11</title>
<g id="a_node12"><a xlink:href="../../df/d67/ObserverSubjectBase_8h.html" target="_top" xlink:title="Declaration file of the Observer and Subject base classes. ">
<polygon fill="white" stroke="black" points="576.608,-65.5 576.608,-93.5 716.549,-93.5 716.549,-65.5 576.608,-65.5"/>
<text text-anchor="start" x="584.608" y="-81.5" font-family="Helvetica,sans-Serif" font-size="10.00">ocra/optim/ObserverSubject</text>
<text text-anchor="middle" x="646.579" y="-71.5" font-family="Helvetica,sans-Serif" font-size="10.00">Base.h</text>
</a>
</g>
</g>
<!-- Node10&#45;&gt;Node11 -->
<g id="edge12" class="edge"><title>Node10&#45;&gt;Node11</title>
<path fill="none" stroke="midnightblue" d="M943.031,-130.431C891.784,-121.901 808.359,-107.982 726.731,-94.1916"/>
<polygon fill="midnightblue" stroke="midnightblue" points="727.231,-90.7265 716.788,-92.5108 726.064,-97.6286 727.231,-90.7265"/>
</g>
<!-- Node15 -->
<g id="node16" class="node"><title>Node15</title>
<polygon fill="white" stroke="#bfbfbf" points="431.892,-0.5 431.892,-28.5 531.266,-28.5 531.266,-0.5 431.892,-0.5"/>
<text text-anchor="start" x="439.892" y="-16.5" font-family="Helvetica,sans-Serif" font-size="10.00">boost/type_traits/is</text>
<text text-anchor="middle" x="481.579" y="-6.5" font-family="Helvetica,sans-Serif" font-size="10.00">_class.hpp</text>
</g>
<!-- Node10&#45;&gt;Node15 -->
<g id="edge24" class="edge"><title>Node10&#45;&gt;Node15</title>
<path fill="none" stroke="midnightblue" d="M917.177,-130.838C796.088,-118.347 569.557,-94.8886 567.579,-94 538.955,-81.1416 513.424,-55.015 497.759,-36.4382"/>
<polygon fill="midnightblue" stroke="midnightblue" points="500.318,-34.0383 491.281,-28.509 494.898,-38.4673 500.318,-34.0383"/>
</g>
<!-- Node16 -->
<g id="node17" class="node"><title>Node16</title>
<polygon fill="white" stroke="#bfbfbf" points="840.892,-0.5 840.892,-28.5 940.266,-28.5 940.266,-0.5 840.892,-0.5"/>
<text text-anchor="start" x="848.892" y="-16.5" font-family="Helvetica,sans-Serif" font-size="10.00">boost/type_traits/is</text>
<text text-anchor="middle" x="890.579" y="-6.5" font-family="Helvetica,sans-Serif" font-size="10.00">_base_of.hpp</text>
</g>
<!-- Node10&#45;&gt;Node16 -->
<g id="edge22" class="edge"><title>Node10&#45;&gt;Node16</title>
<path fill="none" stroke="midnightblue" d="M979.668,-130.255C968.248,-121.967 950.961,-108.389 938.579,-94 923.597,-76.5906 910.303,-53.9745 901.526,-37.4921"/>
<polygon fill="midnightblue" stroke="midnightblue" points="904.615,-35.8458 896.902,-28.582 898.402,-39.0702 904.615,-35.8458"/>
</g>
<!-- Node17 -->
<g id="node18" class="node"><title>Node17</title>
<polygon fill="white" stroke="#bfbfbf" points="958.16,-5.5 958.16,-23.5 1077,-23.5 1077,-5.5 958.16,-5.5"/>
<text text-anchor="middle" x="1017.58" y="-11.5" font-family="Helvetica,sans-Serif" font-size="10.00">boost/static_assert.hpp</text>
</g>
<!-- Node10&#45;&gt;Node17 -->
<g id="edge21" class="edge"><title>Node10&#45;&gt;Node17</title>
<path fill="none" stroke="midnightblue" d="M979.218,-130.307C968.569,-122.436 953.938,-109.476 947.579,-94 942.68,-82.0783 941.654,-76.4464 947.579,-65 956.135,-48.4707 973.034,-36.2788 988.084,-28.1308"/>
<polygon fill="midnightblue" stroke="midnightblue" points="989.768,-31.2016 997.125,-23.5775 986.619,-24.9497 989.768,-31.2016"/>
</g>
<!-- Node19 -->
<g id="node20" class="node"><title>Node19</title>
<g id="a_node20"><a xlink:href="../../db/ddf/ocra__events_8h.html" target="_top" xlink:title="ocra/optim/ocra_events.h">
<polygon fill="white" stroke="black" points="734.438,-70.5 734.438,-88.5 862.719,-88.5 862.719,-70.5 734.438,-70.5"/>
<text text-anchor="middle" x="798.579" y="-76.5" font-family="Helvetica,sans-Serif" font-size="10.00">ocra/optim/ocra_events.h</text>
</a>
</g>
</g>
<!-- Node10&#45;&gt;Node19 -->
<g id="edge20" class="edge"><title>Node10&#45;&gt;Node19</title>
<path fill="none" stroke="midnightblue" d="M964.743,-130.435C930.989,-120.292 872.888,-102.831 835.107,-91.4774"/>
<polygon fill="midnightblue" stroke="midnightblue" points="836.081,-88.1156 825.497,-88.5894 834.066,-94.8195 836.081,-88.1156"/>
</g>
<!-- Node20 -->
<g id="node21" class="node"><title>Node20</title>
<polygon fill="white" stroke="#bfbfbf" points="956.892,-65.5 956.892,-93.5 1056.27,-93.5 1056.27,-65.5 956.892,-65.5"/>
<text text-anchor="start" x="964.892" y="-81.5" font-family="Helvetica,sans-Serif" font-size="10.00">boost/type_traits/is</text>
<text text-anchor="middle" x="1006.58" y="-71.5" font-family="Helvetica,sans-Serif" font-size="10.00">_convertible.hpp</text>
</g>
<!-- Node10&#45;&gt;Node20 -->
<g id="edge23" class="edge"><title>Node10&#45;&gt;Node20</title>
<path fill="none" stroke="midnightblue" d="M993.664,-130.435C995.461,-123.486 998.147,-113.103 1000.6,-103.602"/>
<polygon fill="midnightblue" stroke="midnightblue" points="1004.01,-104.401 1003.13,-93.8428 997.235,-102.648 1004.01,-104.401"/>
</g>
<!-- Node12 -->
<g id="node13" class="node"><title>Node12</title>
<polygon fill="white" stroke="#bfbfbf" points="549.175,-5.5 549.175,-23.5 607.982,-23.5 607.982,-5.5 549.175,-5.5"/>
<text text-anchor="middle" x="578.579" y="-11.5" font-family="Helvetica,sans-Serif" font-size="10.00">functional</text>
</g>
<!-- Node11&#45;&gt;Node12 -->
<g id="edge13" class="edge"><title>Node11&#45;&gt;Node12</title>
<path fill="none" stroke="midnightblue" d="M632.489,-65.4464C621.595,-55.3537 606.491,-41.3602 595.041,-30.752"/>
<polygon fill="midnightblue" stroke="midnightblue" points="597.176,-27.9589 587.462,-23.7301 592.419,-33.0938 597.176,-27.9589"/>
</g>
<!-- Node13 -->
<g id="node14" class="node"><title>Node13</title>
<polygon fill="white" stroke="#bfbfbf" points="1258.01,-5.5 1258.01,-23.5 1315.14,-23.5 1315.14,-5.5 1258.01,-5.5"/>
<text text-anchor="middle" x="1286.58" y="-11.5" font-family="Helvetica,sans-Serif" font-size="10.00">algorithm</text>
</g>
<!-- Node11&#45;&gt;Node13 -->
<g id="edge14" class="edge"><title>Node11&#45;&gt;Node13</title>
<path fill="none" stroke="midnightblue" d="M716.745,-66.2052C719.727,-65.779 722.681,-65.3748 725.579,-65 920.986,-39.7253 1156.38,-23.569 1247.72,-17.8372"/>
<polygon fill="midnightblue" stroke="midnightblue" points="1248.12,-21.3194 1257.88,-17.2055 1247.68,-14.3328 1248.12,-21.3194"/>
</g>
<!-- Node14 -->
<g id="node15" class="node"><title>Node14</title>
<polygon fill="white" stroke="#bfbfbf" points="625.534,-5.5 625.534,-23.5 703.624,-23.5 703.624,-5.5 625.534,-5.5"/>
<text text-anchor="middle" x="664.579" y="-11.5" font-family="Helvetica,sans-Serif" font-size="10.00">boost/any.hpp</text>
</g>
<!-- Node11&#45;&gt;Node14 -->
<g id="edge15" class="edge"><title>Node11&#45;&gt;Node14</title>
<path fill="none" stroke="midnightblue" d="M650.308,-65.4464C652.94,-56.2356 656.5,-43.7759 659.406,-33.6055"/>
<polygon fill="midnightblue" stroke="midnightblue" points="662.845,-34.3069 662.227,-23.7301 656.115,-32.3838 662.845,-34.3069"/>
</g>
<!-- Node11&#45;&gt;Node15 -->
<g id="edge16" class="edge"><title>Node11&#45;&gt;Node15</title>
<path fill="none" stroke="midnightblue" d="M612.391,-65.4464C587.17,-55.8166 552.648,-42.6356 525.401,-32.2323"/>
<polygon fill="midnightblue" stroke="midnightblue" points="526.314,-28.8342 515.723,-28.5369 523.817,-35.3738 526.314,-28.8342"/>
</g>
<!-- Node11&#45;&gt;Node16 -->
<g id="edge17" class="edge"><title>Node11&#45;&gt;Node16</title>
<path fill="none" stroke="midnightblue" d="M697.136,-65.4464C735.951,-55.4243 789.664,-41.5558 830.643,-30.9751"/>
<polygon fill="midnightblue" stroke="midnightblue" points="831.697,-34.3179 840.504,-28.429 829.947,-27.5402 831.697,-34.3179"/>
</g>
<!-- Node11&#45;&gt;Node17 -->
<g id="edge18" class="edge"><title>Node11&#45;&gt;Node17</title>
<path fill="none" stroke="midnightblue" d="M716.784,-66.4658C719.755,-65.9683 722.696,-65.4779 725.579,-65 825.054,-48.5074 850.333,-46.8205 949.579,-29 955.72,-27.8972 962.163,-26.6874 968.534,-25.4592"/>
<polygon fill="midnightblue" stroke="midnightblue" points="969.287,-28.8783 978.43,-23.5267 967.945,-22.0081 969.287,-28.8783"/>
</g>
<!-- Node18 -->
<g id="node19" class="node"><title>Node18</title>
<polygon fill="white" stroke="#bfbfbf" points="721.773,-0.5 721.773,-28.5 823.384,-28.5 823.384,-0.5 721.773,-0.5"/>
<text text-anchor="start" x="729.773" y="-16.5" font-family="Helvetica,sans-Serif" font-size="10.00">boost/ptr_container</text>
<text text-anchor="middle" x="772.579" y="-6.5" font-family="Helvetica,sans-Serif" font-size="10.00">/ptr_vector.hpp</text>
</g>
<!-- Node11&#45;&gt;Node18 -->
<g id="edge19" class="edge"><title>Node11&#45;&gt;Node18</title>
<path fill="none" stroke="midnightblue" d="M672.686,-65.4464C691.439,-56.07 716.925,-43.3269 737.46,-33.0593"/>
<polygon fill="midnightblue" stroke="midnightblue" points="739.126,-36.1396 746.505,-28.5369 735.995,-29.8786 739.126,-36.1396"/>
</g>
<!-- Node21&#45;&gt;Node10 -->
<g id="edge26" class="edge"><title>Node21&#45;&gt;Node10</title>
<path fill="none" stroke="midnightblue" d="M1147.63,-185.45C1116.06,-176.357 1064.52,-161.511 1029.38,-151.388"/>
<polygon fill="midnightblue" stroke="midnightblue" points="1030.06,-147.943 1019.49,-148.538 1028.13,-154.67 1030.06,-147.943"/>
</g>
<!-- Node22 -->
<g id="node23" class="node"><title>Node22</title>
<g id="a_node23"><a xlink:href="../../d1/de6/Composite_8h.html" target="_top" xlink:title="Utility classes and functions to implement the Composite design pattern. ">
<polygon fill="white" stroke="black" points="1171.78,-130.5 1171.78,-148.5 1293.38,-148.5 1293.38,-130.5 1171.78,-130.5"/>
<text text-anchor="middle" x="1232.58" y="-136.5" font-family="Helvetica,sans-Serif" font-size="10.00">ocra/optim/Composite.h</text>
</a>
</g>
</g>
<!-- Node21&#45;&gt;Node22 -->
<g id="edge27" class="edge"><title>Node21&#45;&gt;Node22</title>
<path fill="none" stroke="midnightblue" d="M1184.48,-185.219C1192.98,-177.316 1205.99,-165.224 1216.33,-155.606"/>
<polygon fill="midnightblue" stroke="midnightblue" points="1218.98,-157.922 1223.92,-148.55 1214.21,-152.796 1218.98,-157.922"/>
</g>
<!-- Node25 -->
<g id="node26" class="node"><title>Node25</title>
<polygon fill="white" stroke="#bfbfbf" points="1621.87,-70.5 1621.87,-88.5 1741.29,-88.5 1741.29,-70.5 1621.87,-70.5"/>
<text text-anchor="middle" x="1681.58" y="-76.5" font-family="Helvetica,sans-Serif" font-size="10.00">boost/noncopyable.hpp</text>
</g>
<!-- Node21&#45;&gt;Node25 -->
<g id="edge40" class="edge"><title>Node21&#45;&gt;Node25</title>
<path fill="none" stroke="midnightblue" d="M1200.62,-185.378C1226.39,-176.866 1267.6,-162.831 1302.58,-149 1322.01,-141.317 1325.47,-135.674 1345.58,-130 1460.82,-97.4798 1494.44,-113.504 1612.58,-94 1618.98,-92.9431 1625.7,-91.7431 1632.33,-90.5049"/>
<polygon fill="midnightblue" stroke="midnightblue" points="1633.44,-93.8556 1642.61,-88.5429 1632.13,-86.9797 1633.44,-93.8556"/>
</g>
<!-- Node27 -->
<g id="node28" class="node"><title>Node27</title>
<polygon fill="white" stroke="#bfbfbf" points="1758.96,-70.5 1758.96,-88.5 1802.19,-88.5 1802.19,-70.5 1758.96,-70.5"/>
<text text-anchor="middle" x="1780.58" y="-76.5" font-family="Helvetica,sans-Serif" font-size="10.00">vector</text>
</g>
<!-- Node21&#45;&gt;Node27 -->
<g id="edge42" class="edge"><title>Node21&#45;&gt;Node27</title>
<path fill="none" stroke="midnightblue" d="M1211.51,-185.445C1244.69,-177.579 1295.13,-164.545 1337.58,-149 1356.44,-142.094 1359.2,-135.264 1378.58,-130 1538.88,-86.4611 1590.04,-136.649 1750.58,-94 1752.29,-93.5463 1754.02,-93.0051 1755.75,-92.4042"/>
<polygon fill="midnightblue" stroke="midnightblue" points="1757.41,-95.506 1765.36,-88.5028 1754.78,-89.0196 1757.41,-95.506"/>
</g>
<!-- Node30 -->
<g id="node31" class="node"><title>Node30</title>
<polygon fill="white" stroke="#bfbfbf" points="1083.61,-130.5 1083.61,-148.5 1153.54,-148.5 1153.54,-130.5 1083.61,-130.5"/>
<text text-anchor="middle" x="1118.58" y="-136.5" font-family="Helvetica,sans-Serif" font-size="10.00">Eigen/Eigen</text>
</g>
<!-- Node21&#45;&gt;Node30 -->
<g id="edge39" class="edge"><title>Node21&#45;&gt;Node30</title>
<path fill="none" stroke="midnightblue" d="M1166.67,-185.219C1158.17,-177.316 1145.17,-165.224 1134.82,-155.606"/>
<polygon fill="midnightblue" stroke="midnightblue" points="1136.94,-152.796 1127.24,-148.55 1132.18,-157.922 1136.94,-152.796"/>
</g>
<!-- Node21&#45;&gt;Node31 -->
<g id="edge41" class="edge"><title>Node21&#45;&gt;Node31</title>
<path fill="none" stroke="midnightblue" d="M1212.5,-185.479C1252.31,-176.765 1317.53,-162.302 1373.58,-149 1374.81,-148.708 1376.07,-148.407 1377.34,-148.1"/>
<polygon fill="midnightblue" stroke="midnightblue" points="1378.22,-151.486 1387.1,-145.703 1376.56,-144.688 1378.22,-151.486"/>
</g>
<!-- Node22&#45;&gt;Node13 -->
<g id="edge36" class="edge"><title>Node22&#45;&gt;Node13</title>
<path fill="none" stroke="midnightblue" d="M1283.41,-130.436C1338.95,-121.108 1421.33,-105.554 1430.58,-94 1462.6,-53.9826 1378.4,-31.4305 1325.58,-21.5671"/>
<polygon fill="midnightblue" stroke="midnightblue" points="1325.94,-18.0758 1315.48,-19.7622 1324.71,-24.9667 1325.94,-18.0758"/>
</g>
<!-- Node22&#45;&gt;Node16 -->
<g id="edge32" class="edge"><title>Node22&#45;&gt;Node16</title>
<path fill="none" stroke="midnightblue" d="M1195.66,-130.486C1167.77,-123.448 1129.2,-111.564 1098.58,-94 1081.64,-84.2847 1082.73,-74.332 1065.58,-65 1045.62,-54.1378 992.765,-39.8389 950.328,-29.4034"/>
<polygon fill="midnightblue" stroke="midnightblue" points="950.889,-25.9378 940.344,-26.9719 949.232,-32.739 950.889,-25.9378"/>
</g>
<!-- Node22&#45;&gt;Node17 -->
<g id="edge31" class="edge"><title>Node22&#45;&gt;Node17</title>
<path fill="none" stroke="midnightblue" d="M1214.06,-130.36C1195.4,-121.944 1165.94,-108.081 1141.58,-94 1121.62,-82.4647 1117.97,-77.4576 1098.58,-65 1078.99,-52.4174 1056.35,-38.6476 1040,-28.8327"/>
<polygon fill="midnightblue" stroke="midnightblue" points="1041.54,-25.6791 1031.17,-23.5498 1037.95,-31.6866 1041.54,-25.6791"/>
</g>
<!-- Node22&#45;&gt;Node20 -->
<g id="edge33" class="edge"><title>Node22&#45;&gt;Node20</title>
<path fill="none" stroke="midnightblue" d="M1201.15,-130.435C1166.39,-121.512 1109.55,-106.927 1066.26,-95.8175"/>
<polygon fill="midnightblue" stroke="midnightblue" points="1066.97,-92.3847 1056.41,-93.2889 1065.23,-99.1649 1066.97,-92.3847"/>
</g>
<!-- Node23 -->
<g id="node24" class="node"><title>Node23</title>
<g id="a_node24"><a xlink:href="../../de/df3/ocra__assert_8h.html" target="_top" xlink:title="ocra/optim/ocra_assert.h">
<polygon fill="white" stroke="black" points="1477.55,-70.5 1477.55,-88.5 1603.6,-88.5 1603.6,-70.5 1477.55,-70.5"/>
<text text-anchor="middle" x="1540.58" y="-76.5" font-family="Helvetica,sans-Serif" font-size="10.00">ocra/optim/ocra_assert.h</text>
</a>
</g>
</g>
<!-- Node22&#45;&gt;Node23 -->
<g id="edge28" class="edge"><title>Node22&#45;&gt;Node23</title>
<path fill="none" stroke="midnightblue" d="M1275.08,-130.496C1330.62,-120.038 1427.85,-101.728 1487.97,-90.4066"/>
<polygon fill="midnightblue" stroke="midnightblue" points="1488.84,-93.8049 1498.02,-88.5147 1487.54,-86.9258 1488.84,-93.8049"/>
</g>
<!-- Node22&#45;&gt;Node25 -->
<g id="edge30" class="edge"><title>Node22&#45;&gt;Node25</title>
<path fill="none" stroke="midnightblue" d="M1293.44,-131.496C1396.81,-119.583 1597.05,-96.4241 1612.58,-94 1619.3,-92.9499 1626.37,-91.7166 1633.32,-90.4299"/>
<polygon fill="midnightblue" stroke="midnightblue" points="1634.18,-93.829 1643.35,-88.5216 1632.87,-86.9523 1634.18,-93.829"/>
</g>
<!-- Node26 -->
<g id="node27" class="node"><title>Node26</title>
<polygon fill="white" stroke="#bfbfbf" points="1151.04,-65.5 1151.04,-93.5 1282.12,-93.5 1282.12,-65.5 1151.04,-65.5"/>
<text text-anchor="start" x="1159.04" y="-81.5" font-family="Helvetica,sans-Serif" font-size="10.00">boost/type_traits/has</text>
<text text-anchor="middle" x="1216.58" y="-71.5" font-family="Helvetica,sans-Serif" font-size="10.00">_nothrow_constructor.hpp</text>
</g>
<!-- Node22&#45;&gt;Node26 -->
<g id="edge34" class="edge"><title>Node22&#45;&gt;Node26</title>
<path fill="none" stroke="midnightblue" d="M1230.35,-130.435C1228.44,-123.486 1225.57,-113.103 1222.95,-103.602"/>
<polygon fill="midnightblue" stroke="midnightblue" points="1226.29,-102.552 1220.26,-93.8428 1219.54,-104.413 1226.29,-102.552"/>
</g>
<!-- Node22&#45;&gt;Node27 -->
<g id="edge35" class="edge"><title>Node22&#45;&gt;Node27</title>
<path fill="none" stroke="midnightblue" d="M1293.46,-133.82C1425.62,-123.584 1728.77,-99.6691 1750.58,-94 1752.29,-93.5555 1754.02,-93.0213 1755.75,-92.4256"/>
<polygon fill="midnightblue" stroke="midnightblue" points="1757.41,-95.53 1765.37,-88.5365 1754.79,-89.0404 1757.41,-95.53"/>
</g>
<!-- Node28 -->
<g id="node29" class="node"><title>Node28</title>
<polygon fill="white" stroke="#bfbfbf" points="1300.41,-70.5 1300.41,-88.5 1344.75,-88.5 1344.75,-70.5 1300.41,-70.5"/>
<text text-anchor="middle" x="1322.58" y="-76.5" font-family="Helvetica,sans-Serif" font-size="10.00">iosfwd</text>
</g>
<!-- Node22&#45;&gt;Node28 -->
<g id="edge37" class="edge"><title>Node22&#45;&gt;Node28</title>
<path fill="none" stroke="midnightblue" d="M1245.09,-130.435C1259.65,-121.052 1283.93,-105.408 1301.43,-94.1277"/>
<polygon fill="midnightblue" stroke="midnightblue" points="1303.37,-97.0422 1309.88,-88.6831 1299.58,-91.1582 1303.37,-97.0422"/>
</g>
<!-- Node29 -->
<g id="node30" class="node"><title>Node29</title>
<polygon fill="white" stroke="#bfbfbf" points="1363.18,-70.5 1363.18,-88.5 1421.98,-88.5 1421.98,-70.5 1363.18,-70.5"/>
<text text-anchor="middle" x="1392.58" y="-76.5" font-family="Helvetica,sans-Serif" font-size="10.00">stdexcept</text>
</g>
<!-- Node22&#45;&gt;Node29 -->
<g id="edge38" class="edge"><title>Node22&#45;&gt;Node29</title>
<path fill="none" stroke="midnightblue" d="M1254.83,-130.435C1282.33,-120.465 1329.34,-103.424 1360.68,-92.0624"/>
<polygon fill="midnightblue" stroke="midnightblue" points="1362.05,-95.288 1370.26,-88.5894 1359.67,-88.707 1362.05,-95.288"/>
</g>
<!-- Node24 -->
<g id="node25" class="node"><title>Node24</title>
<polygon fill="white" stroke="#bfbfbf" points="1519.52,-5.5 1519.52,-23.5 1561.64,-23.5 1561.64,-5.5 1519.52,-5.5"/>
<text text-anchor="middle" x="1540.58" y="-11.5" font-family="Helvetica,sans-Serif" font-size="10.00">cstdio</text>
</g>
<!-- Node23&#45;&gt;Node24 -->
<g id="edge29" class="edge"><title>Node23&#45;&gt;Node24</title>
<path fill="none" stroke="midnightblue" d="M1540.58,-70.2639C1540.58,-61.0635 1540.58,-45.881 1540.58,-33.8326"/>
<polygon fill="midnightblue" stroke="midnightblue" points="1544.08,-33.5389 1540.58,-23.539 1537.08,-33.539 1544.08,-33.5389"/>
</g>
<!-- Node32&#45;&gt;Node31 -->
<g id="edge44" class="edge"><title>Node32&#45;&gt;Node31</title>
<path fill="none" stroke="midnightblue" d="M1366.23,-185.219C1373.4,-177.473 1384.28,-165.701 1393.08,-156.18"/>
<polygon fill="midnightblue" stroke="midnightblue" points="1395.92,-158.268 1400.14,-148.55 1390.78,-153.516 1395.92,-158.268"/>
</g>
<!-- Node33&#45;&gt;Node10 -->
<g id="edge46" class="edge"><title>Node33&#45;&gt;Node10</title>
<path fill="none" stroke="midnightblue" d="M991.579,-185.219C991.579,-178.177 991.579,-167.808 991.579,-158.828"/>
<polygon fill="midnightblue" stroke="midnightblue" points="995.079,-158.55 991.579,-148.55 988.079,-158.55 995.079,-158.55"/>
</g>
<!-- Node34 -->
<g id="node35" class="node"><title>Node34</title>
<polygon fill="white" stroke="#bfbfbf" points="705.564,-130.5 705.564,-148.5 771.593,-148.5 771.593,-130.5 705.564,-130.5"/>
<text text-anchor="middle" x="738.579" y="-136.5" font-family="Helvetica,sans-Serif" font-size="10.00">Eigen/Core</text>
</g>
<!-- Node33&#45;&gt;Node34 -->
<g id="edge47" class="edge"><title>Node33&#45;&gt;Node34</title>
<path fill="none" stroke="midnightblue" d="M953.153,-185.45C906.952,-175.772 829.633,-159.575 781.511,-149.494"/>
<polygon fill="midnightblue" stroke="midnightblue" points="782.212,-146.065 771.707,-147.44 780.777,-152.916 782.212,-146.065"/>
</g>
<!-- Node35 -->
<g id="node36" class="node"><title>Node35</title>
<polygon fill="white" stroke="#bfbfbf" points="789.596,-130.5 789.596,-148.5 899.561,-148.5 899.561,-130.5 789.596,-130.5"/>
<text text-anchor="middle" x="844.579" y="-136.5" font-family="Helvetica,sans-Serif" font-size="10.00">boost/shared_ptr.hpp</text>
</g>
<!-- Node33&#45;&gt;Node35 -->
<g id="edge48" class="edge"><title>Node33&#45;&gt;Node35</title>
<path fill="none" stroke="midnightblue" d="M969.252,-185.45C944.645,-176.578 904.845,-162.229 876.846,-152.134"/>
<polygon fill="midnightblue" stroke="midnightblue" points="877.709,-148.725 867.115,-148.625 875.335,-155.31 877.709,-148.725"/>
</g>
<!-- Node37 -->
<g id="node38" class="node"><title>Node37</title>
<polygon fill="white" stroke="#bfbfbf" points="1469.52,-130.5 1469.52,-148.5 1521.64,-148.5 1521.64,-130.5 1469.52,-130.5"/>
<text text-anchor="middle" x="1495.58" y="-136.5" font-family="Helvetica,sans-Serif" font-size="10.00">memory</text>
</g>
<!-- Node36&#45;&gt;Node37 -->
<g id="edge50" class="edge"><title>Node36&#45;&gt;Node37</title>
<path fill="none" stroke="midnightblue" d="M1495.58,-185.219C1495.58,-178.177 1495.58,-167.808 1495.58,-158.828"/>
<polygon fill="midnightblue" stroke="midnightblue" points="1499.08,-158.55 1495.58,-148.55 1492.08,-158.55 1499.08,-158.55"/>
</g>
<!-- Node40&#45;&gt;Node38 -->
<g id="edge57" class="edge"><title>Node40&#45;&gt;Node38</title>
<path fill="none" stroke="midnightblue" d="M1268.85,-240.938C1354.43,-230.002 1506.45,-210.494 1551.09,-203.743"/>
<polygon fill="midnightblue" stroke="midnightblue" points="1551.85,-207.166 1561.16,-202.109 1550.73,-200.256 1551.85,-207.166"/>
</g>
</g>
</svg>
