<?xml version="1.0" encoding="UTF-8" standalone="no"?>
<!DOCTYPE svg PUBLIC "-//W3C//DTD SVG 1.1//EN"
 "http://www.w3.org/Graphics/SVG/1.1/DTD/svg11.dtd">
<!-- Generated by graphviz version 2.38.0 (20140413.2041)
 -->
<!-- Title: CascadeQPStructures.h Pages: 1 -->
<svg width="334pt" height="137pt"
 viewBox="0.00 0.00 333.80 137.00" xmlns="http://www.w3.org/2000/svg" xmlns:xlink="http://www.w3.org/1999/xlink">
<g id="graph0" class="graph" transform="scale(1 1) rotate(0) translate(4 133)">
<title>CascadeQPStructures.h</title>
<polygon fill="white" stroke="none" points="-4,4 -4,-133 329.803,-133 329.803,4 -4,4"/>
<!-- Node0 -->
<g id="node1" class="node"><title>Node0</title>
<polygon fill="#bfbfbf" stroke="black" points="143.717,-110.5 143.717,-128.5 267.544,-128.5 267.544,-110.5 143.717,-110.5"/>
<text text-anchor="middle" x="205.63" y="-116.5" font-family="Helvetica,sans-Serif" font-size="10.00">CascadeQPStructures.h</text>
</g>
<!-- Node1 -->
<g id="node2" class="node"><title>Node1</title>
<g id="a_node2"><a xlink:href="../../d5/d55/MathTypes_8h.html" target="_top" xlink:title="Declaration file of the OptimizationVariable class. ">
<polygon fill="white" stroke="black" points="29.106,-55.5 29.106,-73.5 140.155,-73.5 140.155,-55.5 29.106,-55.5"/>
<text text-anchor="middle" x="84.6304" y="-61.5" font-family="Helvetica,sans-Serif" font-size="10.00">ocra/util/MathTypes.h</text>
</a>
</g>
</g>
<!-- Node0&#45;&gt;Node1 -->
<g id="edge1" class="edge"><title>Node0&#45;&gt;Node1</title>
<path fill="none" stroke="midnightblue" d="M187.253,-110.45C167.353,-101.734 135.383,-87.7306 112.413,-77.6691"/>
<polygon fill="midnightblue" stroke="midnightblue" points="113.745,-74.4316 103.181,-73.6253 110.936,-80.8435 113.745,-74.4316"/>
</g>
<!-- Node4 -->
<g id="node5" class="node"><title>Node4</title>
<g id="a_node5"><a xlink:href="../../df/d0a/Macros_8h.html" target="_top" xlink:title="ocra/util/Macros.h">
<polygon fill="white" stroke="black" points="158.172,-55.5 158.172,-73.5 253.088,-73.5 253.088,-55.5 158.172,-55.5"/>
<text text-anchor="middle" x="205.63" y="-61.5" font-family="Helvetica,sans-Serif" font-size="10.00">ocra/util/Macros.h</text>
</a>
</g>
</g>
<!-- Node0&#45;&gt;Node4 -->
<g id="edge4" class="edge"><title>Node0&#45;&gt;Node4</title>
<path fill="none" stroke="midnightblue" d="M205.63,-110.219C205.63,-103.177 205.63,-92.8083 205.63,-83.8277"/>
<polygon fill="midnightblue" stroke="midnightblue" points="209.13,-83.5495 205.63,-73.5496 202.13,-83.5496 209.13,-83.5495"/>
</g>
<!-- Node6 -->
<g id="node7" class="node"><title>Node6</title>
<polygon fill="white" stroke="#bfbfbf" points="271.458,-55.5 271.458,-73.5 325.803,-73.5 325.803,-55.5 271.458,-55.5"/>
<text text-anchor="middle" x="298.63" y="-61.5" font-family="Helvetica,sans-Serif" font-size="10.00">iostream</text>
</g>
<!-- Node0&#45;&gt;Node6 -->
<g id="edge6" class="edge"><title>Node0&#45;&gt;Node6</title>
<path fill="none" stroke="midnightblue" d="M219.755,-110.45C234.504,-102.045 257.879,-88.7241 275.36,-78.7618"/>
<polygon fill="midnightblue" stroke="midnightblue" points="277.418,-81.6176 284.373,-73.6253 273.952,-75.5358 277.418,-81.6176"/>
</g>
<!-- Node2 -->
<g id="node3" class="node"><title>Node2</title>
<polygon fill="white" stroke="#bfbfbf" points="0,-0.5 0,-18.5 73.2607,-18.5 73.2607,-0.5 0,-0.5"/>
<text text-anchor="middle" x="36.6304" y="-6.5" font-family="Helvetica,sans-Serif" font-size="10.00">Eigen/Dense</text>
</g>
<!-- Node1&#45;&gt;Node2 -->
<g id="edge2" class="edge"><title>Node1&#45;&gt;Node2</title>
<path fill="none" stroke="midnightblue" d="M77.1304,-55.2188C70.1151,-47.4727 59.4542,-35.7013 50.8311,-26.1799"/>
<polygon fill="midnightblue" stroke="midnightblue" points="53.2276,-23.6121 43.9205,-18.5496 48.0391,-28.3111 53.2276,-23.6121"/>
</g>
<!-- Node3 -->
<g id="node4" class="node"><title>Node3</title>
<polygon fill="white" stroke="#bfbfbf" points="91.0146,-0.5 91.0146,-18.5 134.246,-18.5 134.246,-0.5 91.0146,-0.5"/>
<text text-anchor="middle" x="112.63" y="-6.5" font-family="Helvetica,sans-Serif" font-size="10.00">cmath</text>
</g>
<!-- Node1&#45;&gt;Node3 -->
<g id="edge3" class="edge"><title>Node1&#45;&gt;Node3</title>
<path fill="none" stroke="midnightblue" d="M89.0054,-55.2188C92.891,-47.8639 98.6937,-36.8801 103.576,-27.639"/>
<polygon fill="midnightblue" stroke="midnightblue" points="106.801,-29.0264 108.378,-18.5496 100.612,-25.7566 106.801,-29.0264"/>
</g>
<!-- Node5 -->
<g id="node6" class="node"><title>Node5</title>
<polygon fill="white" stroke="#bfbfbf" points="179.574,-0.5 179.574,-18.5 231.687,-18.5 231.687,-0.5 179.574,-0.5"/>
<text text-anchor="middle" x="205.63" y="-6.5" font-family="Helvetica,sans-Serif" font-size="10.00">memory</text>
</g>
<!-- Node4&#45;&gt;Node5 -->
<g id="edge5" class="edge"><title>Node4&#45;&gt;Node5</title>
<path fill="none" stroke="midnightblue" d="M205.63,-55.2188C205.63,-48.1769 205.63,-37.8083 205.63,-28.8277"/>
<polygon fill="midnightblue" stroke="midnightblue" points="209.13,-28.5495 205.63,-18.5496 202.13,-28.5496 209.13,-28.5495"/>
</g>
</g>
</svg>
