<?xml version="1.0" encoding="UTF-8" standalone="no"?>
<!DOCTYPE svg PUBLIC "-//W3C//DTD SVG 1.1//EN"
 "http://www.w3.org/Graphics/SVG/1.1/DTD/svg11.dtd">
<!-- Generated by graphviz version 2.38.0 (20140413.2041)
 -->
<!-- Title: FSQPConstraintManager.h Pages: 1 -->
<svg width="2134pt" height="562pt"
 viewBox="0.00 0.00 2133.69 562.00" xmlns="http://www.w3.org/2000/svg" xmlns:xlink="http://www.w3.org/1999/xlink">
<g id="graph0" class="graph" transform="scale(1 1) rotate(0) translate(4 558)">
<title>FSQPConstraintManager.h</title>
<polygon fill="white" stroke="none" points="-4,4 -4,-558 2129.69,-558 2129.69,4 -4,4"/>
<!-- Node0 -->
<g id="node1" class="node"><title>Node0</title>
<polygon fill="#bfbfbf" stroke="black" points="1800.66,-535.5 1800.66,-553.5 1936.72,-553.5 1936.72,-535.5 1800.66,-535.5"/>
<text text-anchor="middle" x="1868.69" y="-541.5" font-family="Helvetica,sans-Serif" font-size="10.00">FSQPConstraintManager.h</text>
</g>
<!-- Node1 -->
<g id="node2" class="node"><title>Node1</title>
<g id="a_node2"><a xlink:href="../../d3/dcf/Constraint_8h.html" target="_top" xlink:title="Declaration file of the Constraint class. ">
<polygon fill="white" stroke="black" points="1577.73,-480.5 1577.73,-498.5 1647.65,-498.5 1647.65,-480.5 1577.73,-480.5"/>
<text text-anchor="middle" x="1612.69" y="-486.5" font-family="Helvetica,sans-Serif" font-size="10.00">Constraint.h</text>
</a>
</g>
</g>
<!-- Node0&#45;&gt;Node1 -->
<g id="edge1" class="edge"><title>Node0&#45;&gt;Node1</title>
<path fill="none" stroke="midnightblue" d="M1829.81,-535.45C1783.58,-525.88 1706.57,-509.936 1657.77,-499.834"/>
<polygon fill="midnightblue" stroke="midnightblue" points="1658.31,-496.371 1647.81,-497.771 1656.89,-503.226 1658.31,-496.371"/>
</g>
<!-- Node19 -->
<g id="node20" class="node"><title>Node19</title>
<polygon fill="white" stroke="#bfbfbf" points="1444.07,-70.5 1444.07,-88.5 1487.3,-88.5 1487.3,-70.5 1444.07,-70.5"/>
<text text-anchor="middle" x="1465.69" y="-76.5" font-family="Helvetica,sans-Serif" font-size="10.00">vector</text>
</g>
<!-- Node0&#45;&gt;Node19 -->
<g id="edge68" class="edge"><title>Node0&#45;&gt;Node19</title>
<path fill="none" stroke="midnightblue" d="M1936.88,-542.939C2013.02,-538.283 2125.69,-517.534 2125.69,-435.5 2125.69,-435.5 2125.69,-435.5 2125.69,-198.5 2125.69,-59.6553 1645.05,-124.907 1509.69,-94 1505.57,-93.0595 1501.27,-91.9316 1497.05,-90.7339"/>
<polygon fill="midnightblue" stroke="midnightblue" points="1498.03,-87.3742 1487.45,-87.8676 1496.03,-94.0817 1498.03,-87.3742"/>
</g>
<!-- Node2 -->
<g id="node3" class="node"><title>Node2</title>
<g id="a_node3"><a xlink:href="../../d7/d90/Variable_8h.html" target="_top" xlink:title="Declaration file of the Variable class. ">
<polygon fill="white" stroke="black" points="1098.81,-190.5 1098.81,-208.5 1208.56,-208.5 1208.56,-190.5 1098.81,-190.5"/>
<text text-anchor="middle" x="1153.69" y="-196.5" font-family="Helvetica,sans-Serif" font-size="10.00">ocra/optim/Variable.h</text>
</a>
</g>
</g>
<!-- Node1&#45;&gt;Node2 -->
<g id="edge2" class="edge"><title>Node1&#45;&gt;Node2</title>
<path fill="none" stroke="midnightblue" d="M1577.7,-487.544C1497.1,-484.825 1300.86,-475.115 1243.69,-444 1208.9,-425.068 1186.69,-415.106 1186.69,-375.5 1186.69,-375.5 1186.69,-375.5 1186.69,-313.5 1186.69,-278.549 1171.96,-239.867 1162.18,-218.036"/>
<polygon fill="midnightblue" stroke="midnightblue" points="1165.26,-216.352 1157.87,-208.763 1158.91,-219.306 1165.26,-216.352"/>
</g>
<!-- Node9 -->
<g id="node10" class="node"><title>Node9</title>
<polygon fill="white" stroke="#bfbfbf" points="536,-0.5 536,-28.5 635.374,-28.5 635.374,-0.5 536,-0.5"/>
<text text-anchor="start" x="544" y="-16.5" font-family="Helvetica,sans-Serif" font-size="10.00">boost/type_traits/is</text>
<text text-anchor="middle" x="585.687" y="-6.5" font-family="Helvetica,sans-Serif" font-size="10.00">_base_of.hpp</text>
</g>
<!-- Node1&#45;&gt;Node9 -->
<g id="edge58" class="edge"><title>Node1&#45;&gt;Node9</title>
<path fill="none" stroke="midnightblue" d="M1577.7,-488.172C1524.98,-486.492 1423,-478.575 1344.69,-444 1299.67,-424.123 1257.69,-424.714 1257.69,-375.5 1257.69,-375.5 1257.69,-375.5 1257.69,-258.5 1257.69,-172.427 1309.94,-126.464 1249.69,-65 1203.86,-18.2593 726.684,-36.7366 661.687,-29 656.364,-28.3664 650.849,-27.6012 645.332,-26.7611"/>
<polygon fill="midnightblue" stroke="midnightblue" points="645.868,-23.3023 635.44,-25.18 644.763,-30.2145 645.868,-23.3023"/>
</g>
<!-- Node10 -->
<g id="node11" class="node"><title>Node10</title>
<polygon fill="white" stroke="#bfbfbf" points="670.269,-5.5 670.269,-23.5 789.105,-23.5 789.105,-5.5 670.269,-5.5"/>
<text text-anchor="middle" x="729.687" y="-11.5" font-family="Helvetica,sans-Serif" font-size="10.00">boost/static_assert.hpp</text>
</g>
<!-- Node1&#45;&gt;Node10 -->
<g id="edge57" class="edge"><title>Node1&#45;&gt;Node10</title>
<path fill="none" stroke="midnightblue" d="M1577.55,-483.601C1495.02,-471.11 1295.69,-434.803 1295.69,-375.5 1295.69,-375.5 1295.69,-375.5 1295.69,-258.5 1295.69,-172.306 1342.96,-126.621 1282.69,-65 1266.01,-47.9448 944.327,-27.661 799.418,-19.3451"/>
<polygon fill="midnightblue" stroke="midnightblue" points="799.48,-15.843 789.296,-18.7673 799.081,-22.8317 799.48,-15.843"/>
</g>
<!-- Node24 -->
<g id="node25" class="node"><title>Node24</title>
<g id="a_node25"><a xlink:href="../../df/df5/Function_8h.html" target="_top" xlink:title="Declaration file of the Function class. ">
<polygon fill="white" stroke="black" points="1462.61,-250.5 1462.61,-268.5 1574.77,-268.5 1574.77,-250.5 1462.61,-250.5"/>
<text text-anchor="middle" x="1518.69" y="-256.5" font-family="Helvetica,sans-Serif" font-size="10.00">ocra/optim/Function.h</text>
</a>
</g>
</g>
<!-- Node1&#45;&gt;Node24 -->
<g id="edge33" class="edge"><title>Node1&#45;&gt;Node24</title>
<path fill="none" stroke="midnightblue" d="M1577.53,-480.417C1534.84,-468.507 1464.69,-441.711 1433.69,-389 1408.52,-346.22 1464.49,-297.946 1497.2,-274.618"/>
<polygon fill="midnightblue" stroke="midnightblue" points="1499.49,-277.291 1505.73,-268.725 1495.51,-271.534 1499.49,-277.291"/>
</g>
<!-- Node34 -->
<g id="node35" class="node"><title>Node34</title>
<g id="a_node35"><a xlink:href="../../df/d55/FunctionInterfaceMapping_8h.html" target="_top" xlink:title="Declaration file of the FunctionInterfaceMapping struct. ">
<polygon fill="white" stroke="black" points="1442.32,-360.5 1442.32,-388.5 1585.05,-388.5 1585.05,-360.5 1442.32,-360.5"/>
<text text-anchor="start" x="1450.32" y="-376.5" font-family="Helvetica,sans-Serif" font-size="10.00">ocra/optim/FunctionInterface</text>
<text text-anchor="middle" x="1513.69" y="-366.5" font-family="Helvetica,sans-Serif" font-size="10.00">Mapping.h</text>
</a>
</g>
</g>
<!-- Node1&#45;&gt;Node34 -->
<g id="edge53" class="edge"><title>Node1&#45;&gt;Node34</title>
<path fill="none" stroke="midnightblue" d="M1605.57,-480.373C1590.28,-462.93 1553.94,-421.44 1531.81,-396.188"/>
<polygon fill="midnightblue" stroke="midnightblue" points="1534.4,-393.826 1525.17,-388.611 1529.13,-398.439 1534.4,-393.826"/>
</g>
<!-- Node35 -->
<g id="node36" class="node"><title>Node35</title>
<g id="a_node36"><a xlink:href="../../df/d0a/Macros_8h.html" target="_top" xlink:title="ocra/util/Macros.h">
<polygon fill="white" stroke="black" points="1663.23,-250.5 1663.23,-268.5 1758.15,-268.5 1758.15,-250.5 1663.23,-250.5"/>
<text text-anchor="middle" x="1710.69" y="-256.5" font-family="Helvetica,sans-Serif" font-size="10.00">ocra/util/Macros.h</text>
</a>
</g>
</g>
<!-- Node1&#45;&gt;Node35 -->
<g id="edge55" class="edge"><title>Node1&#45;&gt;Node35</title>
<path fill="none" stroke="midnightblue" d="M1611.09,-480.318C1606.19,-452.873 1593.92,-362.58 1631.69,-305 1641.55,-289.957 1658.35,-279.477 1673.93,-272.483"/>
<polygon fill="midnightblue" stroke="midnightblue" points="1675.5,-275.624 1683.4,-268.57 1672.82,-269.155 1675.5,-275.624"/>
</g>
<!-- Node37 -->
<g id="node38" class="node"><title>Node37</title>
<g id="a_node38"><a xlink:href="../../dc/d8a/LinearFunction_8h.html" target="_top" xlink:title="Declaration file of the LinearFunction class. ">
<polygon fill="white" stroke="black" points="1640.71,-305.5 1640.71,-323.5 1780.66,-323.5 1780.66,-305.5 1640.71,-305.5"/>
<text text-anchor="middle" x="1710.69" y="-311.5" font-family="Helvetica,sans-Serif" font-size="10.00">ocra/optim/LinearFunction.h</text>
</a>
</g>
</g>
<!-- Node1&#45;&gt;Node37 -->
<g id="edge59" class="edge"><title>Node1&#45;&gt;Node37</title>
<path fill="none" stroke="midnightblue" d="M1617.41,-480.156C1632.58,-453.38 1680.24,-369.249 1700.94,-332.715"/>
<polygon fill="midnightblue" stroke="midnightblue" points="1704.12,-334.186 1706.01,-323.76 1698.03,-330.736 1704.12,-334.186"/>
</g>
<!-- Node38 -->
<g id="node39" class="node"><title>Node38</title>
<g id="a_node39"><a xlink:href="../../de/d69/BoundFunction_8h.html" target="_top" xlink:title="Declaration file of the BoundFunction class. ">
<polygon fill="white" stroke="black" points="1679.15,-425.5 1679.15,-443.5 1820.22,-443.5 1820.22,-425.5 1679.15,-425.5"/>
<text text-anchor="middle" x="1749.69" y="-431.5" font-family="Helvetica,sans-Serif" font-size="10.00">ocra/optim/BoundFunction.h</text>
</a>
</g>
</g>
<!-- Node1&#45;&gt;Node38 -->
<g id="edge62" class="edge"><title>Node1&#45;&gt;Node38</title>
<path fill="none" stroke="midnightblue" d="M1633.49,-480.45C1656.33,-471.617 1693.19,-457.355 1719.27,-447.267"/>
<polygon fill="midnightblue" stroke="midnightblue" points="1720.62,-450.498 1728.68,-443.625 1718.09,-443.969 1720.62,-450.498"/>
</g>
<!-- Node39 -->
<g id="node40" class="node"><title>Node39</title>
<g id="a_node40"><a xlink:href="../../dc/d6f/DiagonalLinearFunction_8h.html" target="_top" xlink:title="Declaration file of the DiagonalLinearFunction class. ">
<polygon fill="white" stroke="black" points="1733.32,-360.5 1733.32,-388.5 1866.05,-388.5 1866.05,-360.5 1733.32,-360.5"/>
<text text-anchor="start" x="1741.32" y="-376.5" font-family="Helvetica,sans-Serif" font-size="10.00">ocra/optim/DiagonalLinear</text>
<text text-anchor="middle" x="1799.69" y="-366.5" font-family="Helvetica,sans-Serif" font-size="10.00">Function.h</text>
</a>
</g>
</g>
<!-- Node1&#45;&gt;Node39 -->
<g id="edge67" class="edge"><title>Node1&#45;&gt;Node39</title>
<path fill="none" stroke="midnightblue" d="M1647.86,-486.523C1703.33,-482.589 1807.14,-471.64 1829.69,-444 1841.07,-430.04 1831.3,-411.087 1819.96,-396.656"/>
<polygon fill="midnightblue" stroke="midnightblue" points="1822.39,-394.112 1813.25,-388.754 1817.06,-398.642 1822.39,-394.112"/>
</g>
<!-- Node40 -->
<g id="node41" class="node"><title>Node40</title>
<g id="a_node41"><a xlink:href="../../de/d7a/IdentityFunction_8h.html" target="_top" xlink:title="Declaration file of the IdentityFunction class. ">
<polygon fill="white" stroke="black" points="1876.49,-425.5 1876.49,-443.5 2020.89,-443.5 2020.89,-425.5 1876.49,-425.5"/>
<text text-anchor="middle" x="1948.69" y="-431.5" font-family="Helvetica,sans-Serif" font-size="10.00">ocra/optim/IdentityFunction.h</text>
</a>
</g>
</g>
<!-- Node1&#45;&gt;Node40 -->
<g id="edge65" class="edge"><title>Node1&#45;&gt;Node40</title>
<path fill="none" stroke="midnightblue" d="M1647.69,-482.978C1704.49,-474.02 1817.4,-456.208 1887.64,-445.13"/>
<polygon fill="midnightblue" stroke="midnightblue" points="1888.35,-448.561 1897.68,-443.546 1887.26,-441.647 1888.35,-448.561"/>
</g>
<!-- Node3 -->
<g id="node4" class="node"><title>Node3</title>
<g id="a_node4"><a xlink:href="../../d8/ddc/ObserverSubject_8h.html" target="_top" xlink:title="Declaration file of the Observer, Subject and ObserverSubject classes. ">
<polygon fill="white" stroke="black" points="255.547,-130.5 255.547,-148.5 403.827,-148.5 403.827,-130.5 255.547,-130.5"/>
<text text-anchor="middle" x="329.687" y="-136.5" font-family="Helvetica,sans-Serif" font-size="10.00">ocra/optim/ObserverSubject.h</text>
</a>
</g>
</g>
<!-- Node2&#45;&gt;Node3 -->
<g id="edge3" class="edge"><title>Node2&#45;&gt;Node3</title>
<path fill="none" stroke="midnightblue" d="M1098.66,-194.627C957.666,-184.702 582.681,-158.308 413.987,-146.434"/>
<polygon fill="midnightblue" stroke="midnightblue" points="414.132,-142.935 403.911,-145.724 413.64,-149.918 414.132,-142.935"/>
</g>
<!-- Node14 -->
<g id="node15" class="node"><title>Node14</title>
<g id="a_node15"><a xlink:href="../../d1/de6/Composite_8h.html" target="_top" xlink:title="Utility classes and functions to implement the Composite design pattern. ">
<polygon fill="white" stroke="black" points="831.887,-130.5 831.887,-148.5 953.487,-148.5 953.487,-130.5 831.887,-130.5"/>
<text text-anchor="middle" x="892.687" y="-136.5" font-family="Helvetica,sans-Serif" font-size="10.00">ocra/optim/Composite.h</text>
</a>
</g>
</g>
<!-- Node2&#45;&gt;Node14 -->
<g id="edge17" class="edge"><title>Node2&#45;&gt;Node14</title>
<path fill="none" stroke="midnightblue" d="M1117.67,-190.496C1071,-180.125 989.574,-162.03 938.536,-150.689"/>
<polygon fill="midnightblue" stroke="midnightblue" points="939.274,-147.267 928.753,-148.515 937.756,-154.101 939.274,-147.267"/>
</g>
<!-- Node17 -->
<g id="node18" class="node"><title>Node17</title>
<polygon fill="white" stroke="#bfbfbf" points="574.978,-70.5 574.978,-88.5 694.396,-88.5 694.396,-70.5 574.978,-70.5"/>
<text text-anchor="middle" x="634.687" y="-76.5" font-family="Helvetica,sans-Serif" font-size="10.00">boost/noncopyable.hpp</text>
</g>
<!-- Node2&#45;&gt;Node17 -->
<g id="edge30" class="edge"><title>Node2&#45;&gt;Node17</title>
<path fill="none" stroke="midnightblue" d="M1098.55,-193.675C1032.3,-187.097 918.138,-173.264 822.687,-149 764.217,-134.137 698.555,-107.914 662.37,-92.5851"/>
<polygon fill="midnightblue" stroke="midnightblue" points="663.547,-89.2819 652.976,-88.569 660.795,-95.7183 663.547,-89.2819"/>
</g>
<!-- Node2&#45;&gt;Node19 -->
<g id="edge32" class="edge"><title>Node2&#45;&gt;Node19</title>
<path fill="none" stroke="midnightblue" d="M1151.87,-190.468C1149.18,-176.212 1145.97,-146.445 1161.69,-130 1198.68,-91.3022 1363.76,-82.8573 1433.95,-81.0144"/>
<polygon fill="midnightblue" stroke="midnightblue" points="1434.06,-84.5128 1443.98,-80.7796 1433.9,-77.5148 1434.06,-84.5128"/>
</g>
<!-- Node22 -->
<g id="node23" class="node"><title>Node22</title>
<polygon fill="white" stroke="#bfbfbf" points="1170.72,-130.5 1170.72,-148.5 1240.65,-148.5 1240.65,-130.5 1170.72,-130.5"/>
<text text-anchor="middle" x="1205.69" y="-136.5" font-family="Helvetica,sans-Serif" font-size="10.00">Eigen/Eigen</text>
</g>
<!-- Node2&#45;&gt;Node22 -->
<g id="edge29" class="edge"><title>Node2&#45;&gt;Node22</title>
<path fill="none" stroke="midnightblue" d="M1160.92,-190.435C1168.75,-181.704 1181.43,-167.552 1191.31,-156.54"/>
<polygon fill="midnightblue" stroke="midnightblue" points="1194.11,-158.654 1198.18,-148.872 1188.9,-153.981 1194.11,-158.654"/>
</g>
<!-- Node23 -->
<g id="node24" class="node"><title>Node23</title>
<polygon fill="white" stroke="#bfbfbf" points="1390.46,-130.5 1390.46,-148.5 1430.91,-148.5 1430.91,-130.5 1390.46,-130.5"/>
<text text-anchor="middle" x="1410.69" y="-136.5" font-family="Helvetica,sans-Serif" font-size="10.00">string</text>
</g>
<!-- Node2&#45;&gt;Node23 -->
<g id="edge31" class="edge"><title>Node2&#45;&gt;Node23</title>
<path fill="none" stroke="midnightblue" d="M1189.15,-190.496C1239.97,-179.027 1332.65,-158.112 1380.42,-147.331"/>
<polygon fill="midnightblue" stroke="midnightblue" points="1381.47,-150.682 1390.45,-145.067 1379.93,-143.854 1381.47,-150.682"/>
</g>
<!-- Node4 -->
<g id="node5" class="node"><title>Node4</title>
<g id="a_node5"><a xlink:href="../../df/d67/ObserverSubjectBase_8h.html" target="_top" xlink:title="Declaration file of the Observer and Subject base classes. ">
<polygon fill="white" stroke="black" points="77.7168,-65.5 77.7168,-93.5 217.657,-93.5 217.657,-65.5 77.7168,-65.5"/>
<text text-anchor="start" x="85.7168" y="-81.5" font-family="Helvetica,sans-Serif" font-size="10.00">ocra/optim/ObserverSubject</text>
<text text-anchor="middle" x="147.687" y="-71.5" font-family="Helvetica,sans-Serif" font-size="10.00">Base.h</text>
</a>
</g>
</g>
<!-- Node3&#45;&gt;Node4 -->
<g id="edge4" class="edge"><title>Node3&#45;&gt;Node4</title>
<path fill="none" stroke="midnightblue" d="M304.381,-130.435C277.089,-121.738 232.918,-107.661 198.418,-96.6671"/>
<polygon fill="midnightblue" stroke="midnightblue" points="199.101,-93.2112 188.51,-93.5096 196.975,-99.8807 199.101,-93.2112"/>
</g>
<!-- Node8 -->
<g id="node9" class="node"><title>Node8</title>
<polygon fill="white" stroke="#bfbfbf" points="0,-0.5 0,-28.5 99.374,-28.5 99.374,-0.5 0,-0.5"/>
<text text-anchor="start" x="8" y="-16.5" font-family="Helvetica,sans-Serif" font-size="10.00">boost/type_traits/is</text>
<text text-anchor="middle" x="49.687" y="-6.5" font-family="Helvetica,sans-Serif" font-size="10.00">_class.hpp</text>
</g>
<!-- Node3&#45;&gt;Node8 -->
<g id="edge16" class="edge"><title>Node3&#45;&gt;Node8</title>
<path fill="none" stroke="midnightblue" d="M255.254,-134.777C187.84,-129.854 95.1459,-118.703 68.687,-94 53.7488,-80.0529 49.6616,-56.5417 48.9118,-38.8776"/>
<polygon fill="midnightblue" stroke="midnightblue" points="52.4106,-38.7365 48.809,-28.7727 45.411,-38.8078 52.4106,-38.7365"/>
</g>
<!-- Node3&#45;&gt;Node9 -->
<g id="edge14" class="edge"><title>Node3&#45;&gt;Node9</title>
<path fill="none" stroke="midnightblue" d="M310.979,-130.429C296.77,-123.174 278.258,-111.029 269.687,-94 263.892,-82.4873 261.308,-74.7937 269.687,-65 271.767,-62.5693 434.7,-37.9729 525.756,-24.3932"/>
<polygon fill="midnightblue" stroke="midnightblue" points="526.306,-27.85 535.681,-22.9142 525.274,-20.9264 526.306,-27.85"/>
</g>
<!-- Node3&#45;&gt;Node10 -->
<g id="edge13" class="edge"><title>Node3&#45;&gt;Node10</title>
<path fill="none" stroke="midnightblue" d="M321.783,-130.191C308.649,-115.385 285.406,-84.196 302.687,-65 353.817,-8.20493 568.924,-38.997 644.687,-29 653.513,-27.8355 662.834,-26.4818 671.943,-25.0901"/>
<polygon fill="midnightblue" stroke="midnightblue" points="672.755,-28.5059 682.098,-23.5107 671.679,-21.589 672.755,-28.5059"/>
</g>
<!-- Node12 -->
<g id="node13" class="node"><title>Node12</title>
<g id="a_node13"><a xlink:href="../../db/ddf/ocra__events_8h.html" target="_top" xlink:title="ocra/optim/ocra_events.h">
<polygon fill="white" stroke="black" points="311.547,-70.5 311.547,-88.5 439.827,-88.5 439.827,-70.5 311.547,-70.5"/>
<text text-anchor="middle" x="375.687" y="-76.5" font-family="Helvetica,sans-Serif" font-size="10.00">ocra/optim/ocra_events.h</text>
</a>
</g>
</g>
<!-- Node3&#45;&gt;Node12 -->
<g id="edge12" class="edge"><title>Node3&#45;&gt;Node12</title>
<path fill="none" stroke="midnightblue" d="M336.083,-130.435C342.94,-121.79 354.012,-107.829 362.708,-96.8643"/>
<polygon fill="midnightblue" stroke="midnightblue" points="365.576,-98.8816 369.047,-88.8718 360.091,-94.5319 365.576,-98.8816"/>
</g>
<!-- Node13 -->
<g id="node14" class="node"><title>Node13</title>
<polygon fill="white" stroke="#bfbfbf" points="458,-65.5 458,-93.5 557.374,-93.5 557.374,-65.5 458,-65.5"/>
<text text-anchor="start" x="466" y="-81.5" font-family="Helvetica,sans-Serif" font-size="10.00">boost/type_traits/is</text>
<text text-anchor="middle" x="507.687" y="-71.5" font-family="Helvetica,sans-Serif" font-size="10.00">_convertible.hpp</text>
</g>
<!-- Node3&#45;&gt;Node13 -->
<g id="edge15" class="edge"><title>Node3&#45;&gt;Node13</title>
<path fill="none" stroke="midnightblue" d="M354.437,-130.435C381.129,-121.738 424.33,-107.661 458.071,-96.6671"/>
<polygon fill="midnightblue" stroke="midnightblue" points="459.337,-99.9355 467.761,-93.5096 457.169,-93.2799 459.337,-99.9355"/>
</g>
<!-- Node5 -->
<g id="node6" class="node"><title>Node5</title>
<polygon fill="white" stroke="#bfbfbf" points="117.283,-5.5 117.283,-23.5 176.091,-23.5 176.091,-5.5 117.283,-5.5"/>
<text text-anchor="middle" x="146.687" y="-11.5" font-family="Helvetica,sans-Serif" font-size="10.00">functional</text>
</g>
<!-- Node4&#45;&gt;Node5 -->
<g id="edge5" class="edge"><title>Node4&#45;&gt;Node5</title>
<path fill="none" stroke="midnightblue" d="M147.48,-65.4464C147.335,-56.3336 147.14,-44.0406 146.98,-33.9308"/>
<polygon fill="midnightblue" stroke="midnightblue" points="150.476,-33.6732 146.818,-23.7301 143.477,-33.7844 150.476,-33.6732"/>
</g>
<!-- Node6 -->
<g id="node7" class="node"><title>Node6</title>
<polygon fill="white" stroke="#bfbfbf" points="427.123,-5.5 427.123,-23.5 484.251,-23.5 484.251,-5.5 427.123,-5.5"/>
<text text-anchor="middle" x="455.687" y="-11.5" font-family="Helvetica,sans-Serif" font-size="10.00">algorithm</text>
</g>
<!-- Node4&#45;&gt;Node6 -->
<g id="edge6" class="edge"><title>Node4&#45;&gt;Node6</title>
<path fill="none" stroke="midnightblue" d="M217.673,-65.7312C268.569,-56.2207 339.06,-42.584 400.687,-29 406.028,-27.8227 411.644,-26.5197 417.165,-25.2012"/>
<polygon fill="midnightblue" stroke="midnightblue" points="418.024,-28.5942 426.917,-22.8348 416.374,-21.7916 418.024,-28.5942"/>
</g>
<!-- Node7 -->
<g id="node8" class="node"><title>Node7</title>
<polygon fill="white" stroke="#bfbfbf" points="193.642,-5.5 193.642,-23.5 271.732,-23.5 271.732,-5.5 193.642,-5.5"/>
<text text-anchor="middle" x="232.687" y="-11.5" font-family="Helvetica,sans-Serif" font-size="10.00">boost/any.hpp</text>
</g>
<!-- Node4&#45;&gt;Node7 -->
<g id="edge7" class="edge"><title>Node4&#45;&gt;Node7</title>
<path fill="none" stroke="midnightblue" d="M165.299,-65.4464C179.313,-55.0597 198.901,-40.5418 213.348,-29.8339"/>
<polygon fill="midnightblue" stroke="midnightblue" points="215.633,-32.4965 221.583,-23.7301 211.465,-26.8728 215.633,-32.4965"/>
</g>
<!-- Node4&#45;&gt;Node8 -->
<g id="edge8" class="edge"><title>Node4&#45;&gt;Node8</title>
<path fill="none" stroke="midnightblue" d="M127.381,-65.4464C113.322,-56.4079 94.3952,-44.241 78.7427,-34.1787"/>
<polygon fill="midnightblue" stroke="midnightblue" points="80.2711,-31.0004 69.9667,-28.5369 76.4858,-36.8887 80.2711,-31.0004"/>
</g>
<!-- Node4&#45;&gt;Node9 -->
<g id="edge9" class="edge"><title>Node4&#45;&gt;Node9</title>
<path fill="none" stroke="midnightblue" d="M217.795,-67.1101C222.494,-66.3844 227.158,-65.675 231.687,-65 347.941,-47.6735 377.317,-45.5326 493.687,-29 503.982,-27.5374 514.921,-25.9561 525.528,-24.4085"/>
<polygon fill="midnightblue" stroke="midnightblue" points="526.176,-27.851 535.564,-22.9399 525.163,-20.9248 526.176,-27.851"/>
</g>
<!-- Node4&#45;&gt;Node10 -->
<g id="edge10" class="edge"><title>Node4&#45;&gt;Node10</title>
<path fill="none" stroke="midnightblue" d="M217.667,-70.5801C234.685,-68.7028 252.835,-66.7411 269.687,-65 436.233,-47.792 478.594,-50.1416 644.687,-29 653.722,-27.85 663.273,-26.4823 672.582,-25.0658"/>
<polygon fill="midnightblue" stroke="midnightblue" points="673.209,-28.5105 682.553,-23.5175 672.135,-21.5934 673.209,-28.5105"/>
</g>
<!-- Node11 -->
<g id="node12" class="node"><title>Node11</title>
<polygon fill="white" stroke="#bfbfbf" points="289.882,-0.5 289.882,-28.5 391.492,-28.5 391.492,-0.5 289.882,-0.5"/>
<text text-anchor="start" x="297.882" y="-16.5" font-family="Helvetica,sans-Serif" font-size="10.00">boost/ptr_container</text>
<text text-anchor="middle" x="340.687" y="-6.5" font-family="Helvetica,sans-Serif" font-size="10.00">/ptr_vector.hpp</text>
</g>
<!-- Node4&#45;&gt;Node11 -->
<g id="edge11" class="edge"><title>Node4&#45;&gt;Node11</title>
<path fill="none" stroke="midnightblue" d="M187.677,-65.4464C217.695,-55.6477 258.977,-42.1721 291.097,-31.6874"/>
<polygon fill="midnightblue" stroke="midnightblue" points="292.328,-34.9673 300.749,-28.5369 290.156,-28.3129 292.328,-34.9673"/>
</g>
<!-- Node14&#45;&gt;Node6 -->
<g id="edge26" class="edge"><title>Node14&#45;&gt;Node6</title>
<path fill="none" stroke="midnightblue" d="M844.506,-130.498C812.546,-123.84 770.435,-112.411 736.687,-94 719.547,-84.649 721.191,-73.6505 703.687,-65 698.984,-62.6757 562.986,-36.215 494.424,-22.9653"/>
<polygon fill="midnightblue" stroke="midnightblue" points="494.907,-19.4941 484.425,-21.0343 493.58,-26.3671 494.907,-19.4941"/>
</g>
<!-- Node14&#45;&gt;Node9 -->
<g id="edge22" class="edge"><title>Node14&#45;&gt;Node9</title>
<path fill="none" stroke="midnightblue" d="M867.036,-130.399C843.428,-122.502 807.771,-109.447 778.687,-94 758.653,-83.3597 757.008,-75.0815 736.687,-65 707.727,-50.6322 673.64,-39.0461 645.188,-30.7057"/>
<polygon fill="midnightblue" stroke="midnightblue" points="645.954,-27.2844 635.377,-27.8917 644.024,-34.0131 645.954,-27.2844"/>
</g>
<!-- Node14&#45;&gt;Node10 -->
<g id="edge21" class="edge"><title>Node14&#45;&gt;Node10</title>
<path fill="none" stroke="midnightblue" d="M877.203,-130.457C861.643,-122.115 837.233,-108.31 817.687,-94 790.714,-74.253 762.35,-47.7613 745.341,-31.162"/>
<polygon fill="midnightblue" stroke="midnightblue" points="747.537,-28.4116 737.96,-23.8808 742.621,-33.3951 747.537,-28.4116"/>
</g>
<!-- Node14&#45;&gt;Node13 -->
<g id="edge23" class="edge"><title>Node14&#45;&gt;Node13</title>
<path fill="none" stroke="midnightblue" d="M831.848,-131.943C768.165,-124.692 665.084,-111.866 567.631,-94.2631"/>
<polygon fill="midnightblue" stroke="midnightblue" points="568.078,-90.7869 557.612,-92.4326 566.82,-97.6729 568.078,-90.7869"/>
</g>
<!-- Node15 -->
<g id="node16" class="node"><title>Node15</title>
<g id="a_node16"><a xlink:href="../../de/df3/ocra__assert_8h.html" target="_top" xlink:title="ocra/optim/ocra_assert.h">
<polygon fill="white" stroke="black" points="1038.66,-70.5 1038.66,-88.5 1164.71,-88.5 1164.71,-70.5 1038.66,-70.5"/>
<text text-anchor="middle" x="1101.69" y="-76.5" font-family="Helvetica,sans-Serif" font-size="10.00">ocra/optim/ocra_assert.h</text>
</a>
</g>
</g>
<!-- Node14&#45;&gt;Node15 -->
<g id="edge18" class="edge"><title>Node14&#45;&gt;Node15</title>
<path fill="none" stroke="midnightblue" d="M921.748,-130.435C958.455,-120.249 1021.75,-102.683 1062.65,-91.3328"/>
<polygon fill="midnightblue" stroke="midnightblue" points="1063.84,-94.6361 1072.54,-88.5894 1061.97,-87.891 1063.84,-94.6361"/>
</g>
<!-- Node14&#45;&gt;Node17 -->
<g id="edge20" class="edge"><title>Node14&#45;&gt;Node17</title>
<path fill="none" stroke="midnightblue" d="M857.084,-130.496C811.044,-120.146 730.795,-102.106 680.325,-90.7597"/>
<polygon fill="midnightblue" stroke="midnightblue" points="680.863,-87.2933 670.339,-88.5147 679.327,-94.1229 680.863,-87.2933"/>
</g>
<!-- Node18 -->
<g id="node19" class="node"><title>Node18</title>
<polygon fill="white" stroke="#bfbfbf" points="827.148,-65.5 827.148,-93.5 958.226,-93.5 958.226,-65.5 827.148,-65.5"/>
<text text-anchor="start" x="835.148" y="-81.5" font-family="Helvetica,sans-Serif" font-size="10.00">boost/type_traits/has</text>
<text text-anchor="middle" x="892.687" y="-71.5" font-family="Helvetica,sans-Serif" font-size="10.00">_nothrow_constructor.hpp</text>
</g>
<!-- Node14&#45;&gt;Node18 -->
<g id="edge24" class="edge"><title>Node14&#45;&gt;Node18</title>
<path fill="none" stroke="midnightblue" d="M892.687,-130.435C892.687,-123.56 892.687,-113.324 892.687,-103.906"/>
<polygon fill="midnightblue" stroke="midnightblue" points="896.187,-103.843 892.687,-93.8428 889.187,-103.843 896.187,-103.843"/>
</g>
<!-- Node14&#45;&gt;Node19 -->
<g id="edge25" class="edge"><title>Node14&#45;&gt;Node19</title>
<path fill="none" stroke="midnightblue" d="M953.737,-132.32C1074.95,-120.051 1342.21,-92.9982 1434,-83.707"/>
<polygon fill="midnightblue" stroke="midnightblue" points="1434.46,-87.1783 1444.06,-82.689 1433.76,-80.2139 1434.46,-87.1783"/>
</g>
<!-- Node20 -->
<g id="node21" class="node"><title>Node20</title>
<polygon fill="white" stroke="#bfbfbf" points="976.515,-70.5 976.515,-88.5 1020.86,-88.5 1020.86,-70.5 976.515,-70.5"/>
<text text-anchor="middle" x="998.687" y="-76.5" font-family="Helvetica,sans-Serif" font-size="10.00">iosfwd</text>
</g>
<!-- Node14&#45;&gt;Node20 -->
<g id="edge27" class="edge"><title>Node14&#45;&gt;Node20</title>
<path fill="none" stroke="midnightblue" d="M907.426,-130.435C924.889,-120.88 954.219,-104.832 974.908,-93.5113"/>
<polygon fill="midnightblue" stroke="midnightblue" points="976.639,-96.5537 983.732,-88.6831 973.279,-90.4129 976.639,-96.5537"/>
</g>
<!-- Node21 -->
<g id="node22" class="node"><title>Node21</title>
<polygon fill="white" stroke="#bfbfbf" points="1182.29,-70.5 1182.29,-88.5 1241.09,-88.5 1241.09,-70.5 1182.29,-70.5"/>
<text text-anchor="middle" x="1211.69" y="-76.5" font-family="Helvetica,sans-Serif" font-size="10.00">stdexcept</text>
</g>
<!-- Node14&#45;&gt;Node21 -->
<g id="edge28" class="edge"><title>Node14&#45;&gt;Node21</title>
<path fill="none" stroke="midnightblue" d="M953.639,-132.134C1011,-125.371 1099.01,-113.004 1173.69,-94 1176.18,-93.3654 1178.74,-92.6348 1181.3,-91.8489"/>
<polygon fill="midnightblue" stroke="midnightblue" points="1182.61,-95.1023 1190.99,-88.6291 1180.4,-88.459 1182.61,-95.1023"/>
</g>
<!-- Node16 -->
<g id="node17" class="node"><title>Node16</title>
<polygon fill="white" stroke="#bfbfbf" points="1080.63,-5.5 1080.63,-23.5 1122.75,-23.5 1122.75,-5.5 1080.63,-5.5"/>
<text text-anchor="middle" x="1101.69" y="-11.5" font-family="Helvetica,sans-Serif" font-size="10.00">cstdio</text>
</g>
<!-- Node15&#45;&gt;Node16 -->
<g id="edge19" class="edge"><title>Node15&#45;&gt;Node16</title>
<path fill="none" stroke="midnightblue" d="M1101.69,-70.2639C1101.69,-61.0635 1101.69,-45.881 1101.69,-33.8326"/>
<polygon fill="midnightblue" stroke="midnightblue" points="1105.19,-33.5389 1101.69,-23.539 1098.19,-33.539 1105.19,-33.5389"/>
</g>
<!-- Node24&#45;&gt;Node2 -->
<g id="edge49" class="edge"><title>Node24&#45;&gt;Node2</title>
<path fill="none" stroke="midnightblue" d="M1468.32,-250.496C1401.96,-239.952 1285.37,-221.425 1214.27,-210.127"/>
<polygon fill="midnightblue" stroke="midnightblue" points="1214.55,-206.627 1204.12,-208.515 1213.45,-213.541 1214.55,-206.627"/>
</g>
<!-- Node24&#45;&gt;Node3 -->
<g id="edge50" class="edge"><title>Node24&#45;&gt;Node3</title>
<path fill="none" stroke="midnightblue" d="M1488.93,-250.471C1423.92,-233.054 1270.78,-192.742 1217.69,-185 1064.33,-162.639 605.191,-147.978 414.337,-142.695"/>
<polygon fill="midnightblue" stroke="midnightblue" points="414.171,-139.19 404.078,-142.413 413.978,-146.187 414.171,-139.19"/>
</g>
<!-- Node25 -->
<g id="node26" class="node"><title>Node25</title>
<g id="a_node26"><a xlink:href="../../de/d94/IFunction_8h.html" target="_top" xlink:title="Declaration file of the IFunction interface. ">
<polygon fill="white" stroke="black" points="1524.22,-130.5 1524.22,-148.5 1639.15,-148.5 1639.15,-130.5 1524.22,-130.5"/>
<text text-anchor="middle" x="1581.69" y="-136.5" font-family="Helvetica,sans-Serif" font-size="10.00">ocra/optim/IFunction.h</text>
</a>
</g>
</g>
<!-- Node24&#45;&gt;Node25 -->
<g id="edge34" class="edge"><title>Node24&#45;&gt;Node25</title>
<path fill="none" stroke="midnightblue" d="M1575.08,-256.89C1606.86,-252.725 1644.18,-241.682 1664.69,-214 1672.36,-203.642 1671.31,-196.059 1664.69,-185 1655.35,-169.402 1638.47,-158.959 1622.36,-152.136"/>
<polygon fill="midnightblue" stroke="midnightblue" points="1623.61,-148.868 1613.02,-148.525 1621.09,-155.397 1623.61,-148.868"/>
</g>
<!-- Node30 -->
<g id="node31" class="node"><title>Node30</title>
<g id="a_node31"><a xlink:href="../../d9/d54/IFunctionProperties_8h.html" target="_top" xlink:title="ocra/optim/IFunctionProperties.h">
<polygon fill="white" stroke="black" points="1361.43,-190.5 1361.43,-208.5 1521.94,-208.5 1521.94,-190.5 1361.43,-190.5"/>
<text text-anchor="middle" x="1441.69" y="-196.5" font-family="Helvetica,sans-Serif" font-size="10.00">ocra/optim/IFunctionProperties.h</text>
</a>
</g>
</g>
<!-- Node24&#45;&gt;Node30 -->
<g id="edge42" class="edge"><title>Node24&#45;&gt;Node30</title>
<path fill="none" stroke="midnightblue" d="M1507.98,-250.435C1495.82,-241.276 1475.74,-226.152 1460.86,-214.944"/>
<polygon fill="midnightblue" stroke="midnightblue" points="1462.89,-212.093 1452.8,-208.872 1458.68,-217.684 1462.89,-212.093"/>
</g>
<!-- Node31 -->
<g id="node32" class="node"><title>Node31</title>
<g id="a_node32"><a xlink:href="../../db/d47/AbilitySet_8h.html" target="_top" xlink:title="ocra/optim/AbilitySet.h">
<polygon fill="white" stroke="black" points="1539.94,-190.5 1539.94,-208.5 1655.43,-208.5 1655.43,-190.5 1539.94,-190.5"/>
<text text-anchor="middle" x="1597.69" y="-196.5" font-family="Helvetica,sans-Serif" font-size="10.00">ocra/optim/AbilitySet.h</text>
</a>
</g>
</g>
<!-- Node24&#45;&gt;Node31 -->
<g id="edge45" class="edge"><title>Node24&#45;&gt;Node31</title>
<path fill="none" stroke="midnightblue" d="M1529.67,-250.435C1542.22,-241.224 1562.98,-225.98 1578.27,-214.753"/>
<polygon fill="midnightblue" stroke="midnightblue" points="1580.55,-217.423 1586.54,-208.683 1576.41,-211.78 1580.55,-217.423"/>
</g>
<!-- Node32 -->
<g id="node33" class="node"><title>Node32</title>
<g id="a_node33"><a xlink:href="../../d1/d87/CoupledInputOutputSize_8h.html" target="_top" xlink:title="ocra/optim/CoupledInputOutput\lSize.h">
<polygon fill="white" stroke="black" points="1711.2,-185.5 1711.2,-213.5 1866.17,-213.5 1866.17,-185.5 1711.2,-185.5"/>
<text text-anchor="start" x="1719.2" y="-201.5" font-family="Helvetica,sans-Serif" font-size="10.00">ocra/optim/CoupledInputOutput</text>
<text text-anchor="middle" x="1788.69" y="-191.5" font-family="Helvetica,sans-Serif" font-size="10.00">Size.h</text>
</a>
</g>
</g>
<!-- Node24&#45;&gt;Node32 -->
<g id="edge48" class="edge"><title>Node24&#45;&gt;Node32</title>
<path fill="none" stroke="midnightblue" d="M1555.95,-250.496C1597.67,-241.534 1666.24,-226.804 1718.17,-215.648"/>
<polygon fill="midnightblue" stroke="midnightblue" points="1718.95,-219.061 1727.99,-213.538 1717.48,-212.217 1718.95,-219.061"/>
</g>
<!-- Node33 -->
<g id="node34" class="node"><title>Node33</title>
<g id="a_node34"><a xlink:href="../../df/d97/NamedInstance_8h.html" target="_top" xlink:title="ocra/optim/NamedInstance.h">
<polygon fill="white" stroke="black" points="1883.77,-190.5 1883.77,-208.5 2027.61,-208.5 2027.61,-190.5 1883.77,-190.5"/>
<text text-anchor="middle" x="1955.69" y="-196.5" font-family="Helvetica,sans-Serif" font-size="10.00">ocra/optim/NamedInstance.h</text>
</a>
</g>
</g>
<!-- Node24&#45;&gt;Node33 -->
<g id="edge51" class="edge"><title>Node24&#45;&gt;Node33</title>
<path fill="none" stroke="midnightblue" d="M1574.89,-252.192C1645.13,-244.144 1768.98,-229.409 1874.69,-214 1882.71,-212.83 1891.17,-211.514 1899.47,-210.174"/>
<polygon fill="midnightblue" stroke="midnightblue" points="1900.17,-213.605 1909.48,-208.536 1899.04,-206.697 1900.17,-213.605"/>
</g>
<!-- Node25&#45;&gt;Node15 -->
<g id="edge38" class="edge"><title>Node25&#45;&gt;Node15</title>
<path fill="none" stroke="midnightblue" d="M1524.08,-133.62C1444.9,-126.593 1298.09,-112.42 1173.69,-94 1166.51,-92.9371 1158.95,-91.6773 1151.54,-90.3612"/>
<polygon fill="midnightblue" stroke="midnightblue" points="1152.05,-86.8956 1141.58,-88.5448 1150.79,-93.782 1152.05,-86.8956"/>
</g>
<!-- Node25&#45;&gt;Node19 -->
<g id="edge40" class="edge"><title>Node25&#45;&gt;Node19</title>
<path fill="none" stroke="midnightblue" d="M1565.56,-130.435C1546.27,-120.794 1513.77,-104.542 1491.1,-93.2065"/>
<polygon fill="midnightblue" stroke="midnightblue" points="1492.56,-90.0248 1482.05,-88.6831 1489.43,-96.2858 1492.56,-90.0248"/>
</g>
<!-- Node25&#45;&gt;Node21 -->
<g id="edge41" class="edge"><title>Node25&#45;&gt;Node21</title>
<path fill="none" stroke="midnightblue" d="M1530.63,-130.496C1456.11,-118.815 1319.1,-97.338 1251.52,-86.7447"/>
<polygon fill="midnightblue" stroke="midnightblue" points="1251.72,-83.2321 1241.29,-85.1411 1250.63,-90.1476 1251.72,-83.2321"/>
</g>
<!-- Node26 -->
<g id="node27" class="node"><title>Node26</title>
<g id="a_node27"><a xlink:href="../../d5/d55/MathTypes_8h.html" target="_top" xlink:title="Declaration file of the OptimizationVariable class. ">
<polygon fill="white" stroke="black" points="1519.16,-70.5 1519.16,-88.5 1630.21,-88.5 1630.21,-70.5 1519.16,-70.5"/>
<text text-anchor="middle" x="1574.69" y="-76.5" font-family="Helvetica,sans-Serif" font-size="10.00">ocra/util/MathTypes.h</text>
</a>
</g>
</g>
<!-- Node25&#45;&gt;Node26 -->
<g id="edge35" class="edge"><title>Node25&#45;&gt;Node26</title>
<path fill="none" stroke="midnightblue" d="M1580.71,-130.435C1579.73,-122.304 1578.18,-109.469 1576.9,-98.8485"/>
<polygon fill="midnightblue" stroke="midnightblue" points="1580.37,-98.3803 1575.7,-88.8718 1573.42,-99.2191 1580.37,-98.3803"/>
</g>
<!-- Node29 -->
<g id="node30" class="node"><title>Node29</title>
<polygon fill="white" stroke="#bfbfbf" points="1648.51,-70.5 1648.51,-88.5 1702.86,-88.5 1702.86,-70.5 1648.51,-70.5"/>
<text text-anchor="middle" x="1675.69" y="-76.5" font-family="Helvetica,sans-Serif" font-size="10.00">iostream</text>
</g>
<!-- Node25&#45;&gt;Node29 -->
<g id="edge39" class="edge"><title>Node25&#45;&gt;Node29</title>
<path fill="none" stroke="midnightblue" d="M1594.76,-130.435C1610.03,-121.009 1635.55,-105.264 1653.85,-93.9728"/>
<polygon fill="midnightblue" stroke="midnightblue" points="1655.75,-96.9129 1662.42,-88.6831 1652.08,-90.9556 1655.75,-96.9129"/>
</g>
<!-- Node27 -->
<g id="node28" class="node"><title>Node27</title>
<polygon fill="white" stroke="#bfbfbf" points="1500.06,-5.5 1500.06,-23.5 1573.32,-23.5 1573.32,-5.5 1500.06,-5.5"/>
<text text-anchor="middle" x="1536.69" y="-11.5" font-family="Helvetica,sans-Serif" font-size="10.00">Eigen/Dense</text>
</g>
<!-- Node26&#45;&gt;Node27 -->
<g id="edge36" class="edge"><title>Node26&#45;&gt;Node27</title>
<path fill="none" stroke="midnightblue" d="M1569.72,-70.2639C1563.94,-60.6842 1554.25,-44.6186 1546.86,-32.3587"/>
<polygon fill="midnightblue" stroke="midnightblue" points="1549.7,-30.2942 1541.54,-23.539 1543.7,-33.9096 1549.7,-30.2942"/>
</g>
<!-- Node28 -->
<g id="node29" class="node"><title>Node28</title>
<polygon fill="white" stroke="#bfbfbf" points="1591.07,-5.5 1591.07,-23.5 1634.3,-23.5 1634.3,-5.5 1591.07,-5.5"/>
<text text-anchor="middle" x="1612.69" y="-11.5" font-family="Helvetica,sans-Serif" font-size="10.00">cmath</text>
</g>
<!-- Node26&#45;&gt;Node28 -->
<g id="edge37" class="edge"><title>Node26&#45;&gt;Node28</title>
<path fill="none" stroke="midnightblue" d="M1579.65,-70.2639C1585.43,-60.6842 1595.12,-44.6186 1602.52,-32.3587"/>
<polygon fill="midnightblue" stroke="midnightblue" points="1605.67,-33.9096 1607.84,-23.539 1599.68,-30.2942 1605.67,-33.9096"/>
</g>
<!-- Node30&#45;&gt;Node19 -->
<g id="edge44" class="edge"><title>Node30&#45;&gt;Node19</title>
<path fill="none" stroke="midnightblue" d="M1443.34,-190.389C1447.16,-171.611 1456.68,-124.768 1461.98,-98.7111"/>
<polygon fill="midnightblue" stroke="midnightblue" points="1465.46,-99.1644 1464.03,-88.6674 1458.6,-97.7691 1465.46,-99.1644"/>
</g>
<!-- Node30&#45;&gt;Node23 -->
<g id="edge43" class="edge"><title>Node30&#45;&gt;Node23</title>
<path fill="none" stroke="midnightblue" d="M1437.38,-190.435C1432.89,-182.047 1425.73,-168.654 1419.96,-157.849"/>
<polygon fill="midnightblue" stroke="midnightblue" points="1422.96,-156.041 1415.16,-148.872 1416.79,-159.341 1422.96,-156.041"/>
</g>
<!-- Node31&#45;&gt;Node19 -->
<g id="edge47" class="edge"><title>Node31&#45;&gt;Node19</title>
<path fill="none" stroke="midnightblue" d="M1580.02,-190.42C1562.43,-181.816 1535.3,-166.973 1515.69,-149 1499.12,-133.824 1484.54,-112.405 1475.46,-97.576"/>
<polygon fill="midnightblue" stroke="midnightblue" points="1478.44,-95.7307 1470.33,-88.9144 1472.42,-99.301 1478.44,-95.7307"/>
</g>
<!-- Node31&#45;&gt;Node25 -->
<g id="edge46" class="edge"><title>Node31&#45;&gt;Node25</title>
<path fill="none" stroke="midnightblue" d="M1595.46,-190.435C1593.2,-182.218 1589.6,-169.198 1586.66,-158.514"/>
<polygon fill="midnightblue" stroke="midnightblue" points="1590.03,-157.581 1584,-148.872 1583.28,-159.442 1590.03,-157.581"/>
</g>
<!-- Node33&#45;&gt;Node23 -->
<g id="edge52" class="edge"><title>Node33&#45;&gt;Node23</title>
<path fill="none" stroke="midnightblue" d="M1910.78,-190.445C1899.06,-188.498 1886.42,-186.538 1874.69,-185 1790.07,-173.904 1529.9,-150.883 1440.91,-143.121"/>
<polygon fill="midnightblue" stroke="midnightblue" points="1441.19,-139.633 1430.92,-142.252 1440.58,-146.606 1441.19,-139.633"/>
</g>
<!-- Node34&#45;&gt;Node24 -->
<g id="edge54" class="edge"><title>Node34&#45;&gt;Node24</title>
<path fill="none" stroke="midnightblue" d="M1514.28,-360.094C1515.17,-339.889 1516.87,-301.581 1517.88,-278.817"/>
<polygon fill="midnightblue" stroke="midnightblue" points="1521.38,-278.917 1518.32,-268.772 1514.38,-278.607 1521.38,-278.917"/>
</g>
<!-- Node36 -->
<g id="node37" class="node"><title>Node36</title>
<polygon fill="white" stroke="#bfbfbf" points="2045.63,-190.5 2045.63,-208.5 2097.74,-208.5 2097.74,-190.5 2045.63,-190.5"/>
<text text-anchor="middle" x="2071.69" y="-196.5" font-family="Helvetica,sans-Serif" font-size="10.00">memory</text>
</g>
<!-- Node35&#45;&gt;Node36 -->
<g id="edge56" class="edge"><title>Node35&#45;&gt;Node36</title>
<path fill="none" stroke="midnightblue" d="M1758.32,-255.479C1822.42,-250.628 1939.6,-238.986 2036.69,-214 2038.89,-213.433 2041.14,-212.769 2043.39,-212.046"/>
<polygon fill="midnightblue" stroke="midnightblue" points="2044.81,-215.257 2053.06,-208.606 2042.46,-208.662 2044.81,-215.257"/>
</g>
<!-- Node37&#45;&gt;Node24 -->
<g id="edge60" class="edge"><title>Node37&#45;&gt;Node24</title>
<path fill="none" stroke="midnightblue" d="M1681.53,-305.45C1648.44,-296.318 1594.34,-281.383 1557.66,-271.258"/>
<polygon fill="midnightblue" stroke="midnightblue" points="1558.38,-267.825 1547.81,-268.538 1556.52,-274.573 1558.38,-267.825"/>
</g>
<!-- Node37&#45;&gt;Node35 -->
<g id="edge61" class="edge"><title>Node37&#45;&gt;Node35</title>
<path fill="none" stroke="midnightblue" d="M1710.69,-305.219C1710.69,-298.177 1710.69,-287.808 1710.69,-278.828"/>
<polygon fill="midnightblue" stroke="midnightblue" points="1714.19,-278.55 1710.69,-268.55 1707.19,-278.55 1714.19,-278.55"/>
</g>
<!-- Node38&#45;&gt;Node39 -->
<g id="edge63" class="edge"><title>Node38&#45;&gt;Node39</title>
<path fill="none" stroke="midnightblue" d="M1756.64,-425.435C1763.08,-417.969 1772.93,-406.538 1781.59,-396.496"/>
<polygon fill="midnightblue" stroke="midnightblue" points="1784.31,-398.702 1788.18,-388.843 1779,-394.132 1784.31,-398.702"/>
</g>
<!-- Node39&#45;&gt;Node37 -->
<g id="edge64" class="edge"><title>Node39&#45;&gt;Node37</title>
<path fill="none" stroke="midnightblue" d="M1779.49,-360.339C1765.27,-351.072 1746.28,-338.692 1731.85,-329.289"/>
<polygon fill="midnightblue" stroke="midnightblue" points="1733.41,-326.129 1723.12,-323.602 1729.59,-331.994 1733.41,-326.129"/>
</g>
<!-- Node40&#45;&gt;Node39 -->
<g id="edge66" class="edge"><title>Node40&#45;&gt;Node39</title>
<path fill="none" stroke="midnightblue" d="M1927.97,-425.435C1906.01,-416.887 1870.7,-403.143 1842.68,-392.236"/>
<polygon fill="midnightblue" stroke="midnightblue" points="1843.7,-388.875 1833.11,-388.51 1841.16,-395.399 1843.7,-388.875"/>
</g>
</g>
</svg>
