<?xml version="1.0" encoding="UTF-8" standalone="no"?>
<!DOCTYPE svg PUBLIC "-//W3C//DTD SVG 1.1//EN"
 "http://www.w3.org/Graphics/SVG/1.1/DTD/svg11.dtd">
<!-- Generated by graphviz version 2.38.0 (20140413.2041)
 -->
<!-- Title: GHCJTController.cpp Pages: 1 -->
<svg width="3364pt" height="652pt"
 viewBox="0.00 0.00 3364.21 652.00" xmlns="http://www.w3.org/2000/svg" xmlns:xlink="http://www.w3.org/1999/xlink">
<g id="graph0" class="graph" transform="scale(1 1) rotate(0) translate(4 648)">
<title>GHCJTController.cpp</title>
<polygon fill="white" stroke="none" points="-4,4 -4,-648 3360.21,-648 3360.21,4 -4,4"/>
<!-- Node0 -->
<g id="node1" class="node"><title>Node0</title>
<polygon fill="#bfbfbf" stroke="black" points="791.483,-625.5 791.483,-643.5 902.517,-643.5 902.517,-625.5 791.483,-625.5"/>
<text text-anchor="middle" x="847" y="-631.5" font-family="Helvetica,sans-Serif" font-size="10.00">GHCJTController.cpp</text>
</g>
<!-- Node1 -->
<g id="node2" class="node"><title>Node1</title>
<g id="a_node2"><a xlink:href="../../d9/de9/GHCJTController_8h.html" target="_top" xlink:title="Define the Generalized Hierarchical Controller based on Jacobian transpose (GHCJT) in quasi&#45;static ca...">
<polygon fill="white" stroke="black" points="782.867,-570.5 782.867,-588.5 911.133,-588.5 911.133,-570.5 782.867,-570.5"/>
<text text-anchor="middle" x="847" y="-576.5" font-family="Helvetica,sans-Serif" font-size="10.00">gocra/GHCJTController.h</text>
</a>
</g>
</g>
<!-- Node0&#45;&gt;Node1 -->
<g id="edge1" class="edge"><title>Node0&#45;&gt;Node1</title>
<path fill="none" stroke="midnightblue" d="M847,-625.219C847,-618.177 847,-607.808 847,-598.828"/>
<polygon fill="midnightblue" stroke="midnightblue" points="850.5,-598.55 847,-588.55 843.5,-598.55 850.5,-598.55"/>
</g>
<!-- Node4 -->
<g id="node5" class="node"><title>Node4</title>
<polygon fill="white" stroke="#bfbfbf" points="630.828,-225.5 630.828,-243.5 685.172,-243.5 685.172,-225.5 630.828,-225.5"/>
<text text-anchor="middle" x="658" y="-231.5" font-family="Helvetica,sans-Serif" font-size="10.00">iostream</text>
</g>
<!-- Node0&#45;&gt;Node4 -->
<g id="edge140" class="edge"><title>Node0&#45;&gt;Node4</title>
<path fill="none" stroke="midnightblue" d="M791.315,-633.323C676.964,-632.199 419.8,-625.55 341,-589 277.993,-559.776 256.724,-543.107 230,-479 159.824,-310.659 503.852,-253.787 620.459,-239.508"/>
<polygon fill="midnightblue" stroke="midnightblue" points="621.178,-242.947 630.696,-238.293 620.353,-235.996 621.178,-242.947"/>
</g>
<!-- Node19 -->
<g id="node15" class="node"><title>Node19</title>
<g id="a_node15"><a xlink:href="../../dc/d2f/Feature_8h.html" target="_top" xlink:title="A class hierarchy to compute task errors based on control frames. ">
<polygon fill="white" stroke="black" points="2116.09,-400.5 2116.09,-418.5 2229.91,-418.5 2229.91,-400.5 2116.09,-400.5"/>
<text text-anchor="middle" x="2173" y="-406.5" font-family="Helvetica,sans-Serif" font-size="10.00">ocra/control/Feature.h</text>
</a>
</g>
</g>
<!-- Node0&#45;&gt;Node19 -->
<g id="edge149" class="edge"><title>Node0&#45;&gt;Node19</title>
<path fill="none" stroke="midnightblue" d="M902.713,-633.258C1140.31,-631.7 2061.02,-620.109 2154,-534 2182.97,-507.173 2180.35,-456.07 2176.42,-428.767"/>
<polygon fill="midnightblue" stroke="midnightblue" points="2179.83,-427.955 2174.74,-418.664 2172.92,-429.102 2179.83,-427.955"/>
</g>
<!-- Node25 -->
<g id="node20" class="node"><title>Node25</title>
<g id="a_node20"><a xlink:href="../../d3/d5a/Model_8h.html" target="_top" xlink:title="Declaration file of the Model class. ">
<polygon fill="white" stroke="black" points="1699.7,-285.5 1699.7,-303.5 1806.3,-303.5 1806.3,-285.5 1699.7,-285.5"/>
<text text-anchor="middle" x="1753" y="-291.5" font-family="Helvetica,sans-Serif" font-size="10.00">ocra/control/Model.h</text>
</a>
</g>
</g>
<!-- Node0&#45;&gt;Node25 -->
<g id="edge150" class="edge"><title>Node0&#45;&gt;Node25</title>
<path fill="none" stroke="midnightblue" d="M821.052,-625.491C717.298,-592.364 344.203,-462.057 478,-340 489.31,-329.682 1432.86,-303.974 1689.3,-297.173"/>
<polygon fill="midnightblue" stroke="midnightblue" points="1689.65,-300.665 1699.56,-296.901 1689.47,-293.667 1689.65,-300.665"/>
</g>
<!-- Node46 -->
<g id="node25" class="node"><title>Node46</title>
<g id="a_node25"><a xlink:href="../../da/dfc/FullState_8h.html" target="_top" xlink:title="ocra/control/FullState.h">
<polygon fill="white" stroke="black" points="2798.59,-225.5 2798.59,-243.5 2917.41,-243.5 2917.41,-225.5 2798.59,-225.5"/>
<text text-anchor="middle" x="2858" y="-231.5" font-family="Helvetica,sans-Serif" font-size="10.00">ocra/control/FullState.h</text>
</a>
</g>
</g>
<!-- Node0&#45;&gt;Node46 -->
<g id="edge148" class="edge"><title>Node0&#45;&gt;Node46</title>
<path fill="none" stroke="midnightblue" d="M902.621,-633.425C1160.51,-632.87 2241.47,-628.205 2577,-589 2727.21,-571.449 2838.1,-617.429 2899,-479 2933.85,-399.777 2888.23,-294.066 2867.39,-252.919"/>
<polygon fill="midnightblue" stroke="midnightblue" points="2870.42,-251.153 2862.69,-243.904 2864.21,-254.389 2870.42,-251.153"/>
</g>
<!-- Node54 -->
<g id="node28" class="node"><title>Node54</title>
<g id="a_node28"><a xlink:href="../../d3/ded/FunctionHelpers_8h.html" target="_top" xlink:title="ocra/optim/FunctionHelpers.h">
<polygon fill="white" stroke="black" points="1495.69,-400.5 1495.69,-418.5 1642.31,-418.5 1642.31,-400.5 1495.69,-400.5"/>
<text text-anchor="middle" x="1569" y="-406.5" font-family="Helvetica,sans-Serif" font-size="10.00">ocra/optim/FunctionHelpers.h</text>
</a>
</g>
</g>
<!-- Node0&#45;&gt;Node54 -->
<g id="edge143" class="edge"><title>Node0&#45;&gt;Node54</title>
<path fill="none" stroke="midnightblue" d="M892.017,-625.484C970.323,-610.983 1136.23,-577.793 1272,-534 1374.89,-500.812 1492.01,-447.193 1543,-423.023"/>
<polygon fill="midnightblue" stroke="midnightblue" points="1544.77,-426.057 1552.29,-418.596 1541.76,-419.737 1544.77,-426.057"/>
</g>
<!-- Node64 -->
<g id="node33" class="node"><title>Node64</title>
<g id="a_node33"><a xlink:href="../../d4/d83/QuadraticFunction_8h.html" target="_top" xlink:title="Declaration file of the QuadraticFunction class. ">
<polygon fill="white" stroke="black" points="779.244,-165.5 779.244,-183.5 934.756,-183.5 934.756,-165.5 779.244,-165.5"/>
<text text-anchor="middle" x="857" y="-171.5" font-family="Helvetica,sans-Serif" font-size="10.00">ocra/optim/QuadraticFunction.h</text>
</a>
</g>
</g>
<!-- Node0&#45;&gt;Node64 -->
<g id="edge142" class="edge"><title>Node0&#45;&gt;Node64</title>
<path fill="none" stroke="midnightblue" d="M791.41,-631.631C671.531,-627.167 392.179,-614.325 301,-589 239.812,-572.005 173,-589.005 173,-525.5 173,-525.5 173,-525.5 173,-468.5 173,-271.883 347.756,-265.653 539,-220 615.689,-201.693 704.703,-190.032 769.016,-183.261"/>
<polygon fill="midnightblue" stroke="midnightblue" points="769.533,-186.726 779.12,-182.216 768.813,-179.763 769.533,-186.726"/>
</g>
<!-- Node71 -->
<g id="node38" class="node"><title>Node71</title>
<g id="a_node38"><a xlink:href="../../d0/d17/OneLevelSolver_8h.html" target="_top" xlink:title="Define the internal solver class that can be used in the wOcra controller. ">
<polygon fill="white" stroke="black" points="774.796,-400.5 774.796,-418.5 919.204,-418.5 919.204,-400.5 774.796,-400.5"/>
<text text-anchor="middle" x="847" y="-406.5" font-family="Helvetica,sans-Serif" font-size="10.00">ocra/optim/OneLevelSolver.h</text>
</a>
</g>
</g>
<!-- Node0&#45;&gt;Node71 -->
<g id="edge141" class="edge"><title>Node0&#45;&gt;Node71</title>
<path fill="none" stroke="midnightblue" d="M821.524,-625.384C804.755,-618.562 784.102,-606.989 774,-589 769.865,-581.637 772.202,-578.251 774,-570 786.067,-514.637 819.155,-455.495 836.334,-427.312"/>
<polygon fill="midnightblue" stroke="midnightblue" points="839.385,-429.034 841.686,-418.692 833.438,-425.342 839.385,-429.034"/>
</g>
<!-- Node103 -->
<g id="node46" class="node"><title>Node103</title>
<g id="a_node46"><a xlink:href="../../d5/d9e/GHCJTTask_8h.html" target="_top" xlink:title="Define task class for GHCJT controller. It inherits from the task class defined in the ocra framework...">
<polygon fill="white" stroke="black" points="1128.82,-515.5 1128.82,-533.5 1263.18,-533.5 1263.18,-515.5 1128.82,-515.5"/>
<text text-anchor="middle" x="1196" y="-521.5" font-family="Helvetica,sans-Serif" font-size="10.00">gocra/Tasks/GHCJTTask.h</text>
</a>
</g>
</g>
<!-- Node0&#45;&gt;Node103 -->
<g id="edge168" class="edge"><title>Node0&#45;&gt;Node103</title>
<path fill="none" stroke="midnightblue" d="M872.947,-625.471C934.528,-606.414 1089.61,-558.423 1160.12,-536.605"/>
<polygon fill="midnightblue" stroke="midnightblue" points="1161.36,-539.882 1169.88,-533.582 1159.29,-533.195 1161.36,-539.882"/>
</g>
<!-- Node104 -->
<g id="node47" class="node"><title>Node104</title>
<g id="a_node47"><a xlink:href="../../db/dd9/SumOfLinearFunctions_8h.html" target="_top" xlink:title="ocra/optim/SumOfLinearFunctions.h">
<polygon fill="white" stroke="black" points="65.9634,-225.5 65.9634,-243.5 242.037,-243.5 242.037,-225.5 65.9634,-225.5"/>
<text text-anchor="middle" x="154" y="-231.5" font-family="Helvetica,sans-Serif" font-size="10.00">ocra/optim/SumOfLinearFunctions.h</text>
</a>
</g>
</g>
<!-- Node0&#45;&gt;Node104 -->
<g id="edge144" class="edge"><title>Node0&#45;&gt;Node104</title>
<path fill="none" stroke="midnightblue" d="M791.306,-633.314C636.536,-632.326 209.305,-626.221 159,-589 134.747,-571.055 135,-555.671 135,-525.5 135,-525.5 135,-525.5 135,-348.5 135,-314.464 143.487,-275.449 149.116,-253.313"/>
<polygon fill="midnightblue" stroke="midnightblue" points="152.5,-254.207 151.67,-243.644 145.732,-252.419 152.5,-254.207"/>
</g>
<!-- Node105 -->
<g id="node48" class="node"><title>Node105</title>
<g id="a_node48"><a xlink:href="../../d2/d16/ContactSet_8h.html" target="_top" xlink:title="Factory classes and functions to build sets of contact frames. ">
<polygon fill="white" stroke="red" points="2439.58,-570.5 2439.58,-588.5 2568.42,-588.5 2568.42,-570.5 2439.58,-570.5"/>
<text text-anchor="middle" x="2504" y="-576.5" font-family="Helvetica,sans-Serif" font-size="10.00">ocra/control/ContactSet.h</text>
</a>
</g>
</g>
<!-- Node0&#45;&gt;Node105 -->
<g id="edge151" class="edge"><title>Node0&#45;&gt;Node105</title>
<path fill="none" stroke="midnightblue" d="M902.605,-631.721C1149.58,-623.822 2147.4,-591.906 2429.42,-582.885"/>
<polygon fill="midnightblue" stroke="midnightblue" points="2429.67,-586.38 2439.55,-582.562 2429.44,-579.383 2429.67,-586.38"/>
</g>
<!-- Node106 -->
<g id="node49" class="node"><title>Node106</title>
<g id="a_node49"><a xlink:href="../../db/d01/gocra_2include_2gocra_2Performances_8h.html" target="_top" xlink:title="gocra/Performances.h">
<polygon fill="white" stroke="red" points="238.811,-460.5 238.811,-478.5 353.189,-478.5 353.189,-460.5 238.811,-460.5"/>
<text text-anchor="middle" x="296" y="-466.5" font-family="Helvetica,sans-Serif" font-size="10.00">gocra/Performances.h</text>
</a>
</g>
</g>
<!-- Node0&#45;&gt;Node106 -->
<g id="edge169" class="edge"><title>Node0&#45;&gt;Node106</title>
<path fill="none" stroke="midnightblue" d="M791.449,-631.162C672.738,-625.766 402.238,-611.177 367,-589 329.893,-565.647 309.576,-515.218 300.992,-488.292"/>
<polygon fill="midnightblue" stroke="midnightblue" points="304.322,-487.209 298.099,-478.633 297.616,-489.217 304.322,-487.209"/>
</g>
<!-- Node108 -->
<g id="node50" class="node"><title>Node108</title>
<g id="a_node50"><a xlink:href="../../d0/d09/OrthonormalFamily_8h.html" target="_top" xlink:title="gocra/OrthonormalFamily.h">
<polygon fill="white" stroke="red" points="3219.79,-570.5 3219.79,-588.5 3356.21,-588.5 3356.21,-570.5 3219.79,-570.5"/>
<text text-anchor="middle" x="3288" y="-576.5" font-family="Helvetica,sans-Serif" font-size="10.00">gocra/OrthonormalFamily.h</text>
</a>
</g>
</g>
<!-- Node0&#45;&gt;Node108 -->
<g id="edge171" class="edge"><title>Node0&#45;&gt;Node108</title>
<path fill="none" stroke="midnightblue" d="M902.518,-633.09C1212.98,-630.704 2736.84,-617.69 3206,-589 3207.11,-588.932 3208.22,-588.861 3209.34,-588.786"/>
<polygon fill="midnightblue" stroke="midnightblue" points="3209.86,-592.257 3219.58,-588.029 3209.35,-585.276 3209.86,-592.257"/>
</g>
<!-- Node2 -->
<g id="node3" class="node"><title>Node2</title>
<polygon fill="white" stroke="#bfbfbf" points="626.773,-0.5 626.773,-18.5 667.227,-18.5 667.227,-0.5 626.773,-0.5"/>
<text text-anchor="middle" x="647" y="-6.5" font-family="Helvetica,sans-Serif" font-size="10.00">string</text>
</g>
<!-- Node1&#45;&gt;Node2 -->
<g id="edge2" class="edge"><title>Node1&#45;&gt;Node2</title>
<path fill="none" stroke="midnightblue" d="M782.724,-573.36C721.745,-567.443 627.956,-555.628 549,-534 524.125,-527.186 142.353,-369.947 119,-359 64.7199,-333.556 0,-355.448 0,-295.5 0,-295.5 0,-295.5 0,-118.5 0,-51.3885 72.1533,-72.2875 137,-55 228.478,-30.6129 520.894,-15.9973 616.462,-11.7786"/>
<polygon fill="midnightblue" stroke="midnightblue" points="616.773,-15.2685 626.611,-11.3372 616.468,-8.27512 616.773,-15.2685"/>
</g>
<!-- Node3 -->
<g id="node4" class="node"><title>Node3</title>
<polygon fill="white" stroke="#bfbfbf" points="1403.38,-0.5 1403.38,-18.5 1446.62,-18.5 1446.62,-0.5 1403.38,-0.5"/>
<text text-anchor="middle" x="1425" y="-6.5" font-family="Helvetica,sans-Serif" font-size="10.00">vector</text>
</g>
<!-- Node1&#45;&gt;Node3 -->
<g id="edge3" class="edge"><title>Node1&#45;&gt;Node3</title>
<path fill="none" stroke="midnightblue" d="M858.815,-570.468C898.568,-543.189 1030.33,-450.685 1126,-359 1141.97,-343.691 1355.15,-92.7865 1411.45,-26.4709"/>
<polygon fill="midnightblue" stroke="midnightblue" points="1414.25,-28.5819 1418.05,-18.6929 1408.91,-24.0522 1414.25,-28.5819"/>
</g>
<!-- Node1&#45;&gt;Node4 -->
<g id="edge4" class="edge"><title>Node1&#45;&gt;Node4</title>
<path fill="none" stroke="midnightblue" d="M782.669,-577.208C688.161,-571.217 517.907,-543.573 471,-424 464.367,-407.093 476.28,-342.593 478,-340 511.655,-289.264 578.983,-260.045 621.079,-245.999"/>
<polygon fill="midnightblue" stroke="midnightblue" points="622.238,-249.302 630.687,-242.909 620.096,-242.638 622.238,-249.302"/>
</g>
<!-- Node5 -->
<g id="node6" class="node"><title>Node5</title>
<g id="a_node6"><a xlink:href="../../de/d4a/Controller_8h.html" target="_top" xlink:title="Controller interface. ">
<polygon fill="white" stroke="red" points="2022.92,-515.5 2022.92,-533.5 2145.08,-533.5 2145.08,-515.5 2022.92,-515.5"/>
<text text-anchor="middle" x="2084" y="-521.5" font-family="Helvetica,sans-Serif" font-size="10.00">ocra/control/Controller.h</text>
</a>
</g>
</g>
<!-- Node1&#45;&gt;Node5 -->
<g id="edge5" class="edge"><title>Node1&#45;&gt;Node5</title>
<path fill="none" stroke="midnightblue" d="M911.333,-575.744C1122.22,-566.708 1791.75,-538.022 2012.58,-528.56"/>
<polygon fill="midnightblue" stroke="midnightblue" points="2012.91,-532.049 2022.75,-528.124 2012.61,-525.056 2012.91,-532.049"/>
</g>
<!-- Node1&#45;&gt;Node25 -->
<g id="edge130" class="edge"><title>Node1&#45;&gt;Node25</title>
<path fill="none" stroke="midnightblue" d="M812.537,-570.414C704.604,-543.673 386.634,-453.307 496,-340 506.471,-329.152 1435.12,-303.883 1689.31,-297.165"/>
<polygon fill="midnightblue" stroke="midnightblue" points="1689.58,-300.659 1699.49,-296.897 1689.4,-293.662 1689.58,-300.659"/>
</g>
<!-- Node1&#45;&gt;Node71 -->
<g id="edge131" class="edge"><title>Node1&#45;&gt;Node71</title>
<path fill="none" stroke="midnightblue" d="M847,-570.397C847,-544.729 847,-464.781 847,-428.605"/>
<polygon fill="midnightblue" stroke="midnightblue" points="850.5,-428.522 847,-418.522 843.5,-428.522 850.5,-428.522"/>
</g>
<!-- Node1&#45;&gt;Node103 -->
<g id="edge132" class="edge"><title>Node1&#45;&gt;Node103</title>
<path fill="none" stroke="midnightblue" d="M900.006,-570.45C962.58,-560.948 1066.53,-545.161 1133.12,-535.049"/>
<polygon fill="midnightblue" stroke="midnightblue" points="1133.71,-538.5 1143.07,-533.538 1132.66,-531.579 1133.71,-538.5"/>
</g>
<!-- Node5&#45;&gt;Node2 -->
<g id="edge11" class="edge"><title>Node5&#45;&gt;Node2</title>
<path fill="none" stroke="midnightblue" d="M2022.48,-521.207C1903.87,-516.299 1647.78,-503.207 1563,-479 1511.2,-464.211 1496.97,-457.764 1455,-424 1392.75,-373.919 1410.73,-324.002 1341,-285 1238.03,-227.409 1187.49,-292.944 1078,-249 1057.62,-240.821 1056.13,-232.386 1038,-220 1013.57,-203.31 1003.44,-204.39 982,-184 952.686,-156.121 961.346,-134.296 929,-110 850.001,-50.6599 732.61,-24.5584 677.568,-15.0704"/>
<polygon fill="midnightblue" stroke="midnightblue" points="677.859,-11.5709 667.421,-13.3894 676.714,-18.4768 677.859,-11.5709"/>
</g>
<!-- Node5&#45;&gt;Node3 -->
<g id="edge12" class="edge"><title>Node5&#45;&gt;Node3</title>
<path fill="none" stroke="midnightblue" d="M2145.36,-516.864C2212.71,-509.227 2323.92,-495.581 2419,-479 2532.79,-459.157 2563.66,-461.223 2673,-424 2736.8,-402.281 2750.13,-389.955 2810,-359 2885.95,-319.729 2985.87,-293.976 2943,-220 2891.48,-131.106 2620.58,-112.117 2607,-110 2154.31,-39.4383 1595.75,-16.3729 1457.21,-11.5419"/>
<polygon fill="midnightblue" stroke="midnightblue" points="1457.01,-8.0329 1446.89,-11.189 1456.77,-15.0288 1457.01,-8.0329"/>
</g>
<!-- Node5&#45;&gt;Node4 -->
<g id="edge129" class="edge"><title>Node5&#45;&gt;Node4</title>
<path fill="none" stroke="midnightblue" d="M2022.84,-521.704C1874.87,-517.027 1500.69,-503.129 1378,-479 1302.98,-464.246 1287.22,-449.091 1215,-424 1110.23,-387.601 1085.3,-374.859 980,-340 927.948,-322.767 912.303,-325.819 862,-304 846.474,-297.265 844.574,-291.623 829,-285 784.476,-266.066 730.461,-251.778 695.212,-243.535"/>
<polygon fill="midnightblue" stroke="midnightblue" points="695.879,-240.097 685.35,-241.272 694.314,-246.92 695.879,-240.097"/>
</g>
<!-- Node6 -->
<g id="node7" class="node"><title>Node6</title>
<g id="a_node7"><a xlink:href="../../df/d97/NamedInstance_8h.html" target="_top" xlink:title="ocra/optim/NamedInstance.h">
<polygon fill="white" stroke="black" points="1597.08,-55.5 1597.08,-73.5 1740.92,-73.5 1740.92,-55.5 1597.08,-55.5"/>
<text text-anchor="middle" x="1669" y="-61.5" font-family="Helvetica,sans-Serif" font-size="10.00">ocra/optim/NamedInstance.h</text>
</a>
</g>
</g>
<!-- Node5&#45;&gt;Node6 -->
<g id="edge6" class="edge"><title>Node5&#45;&gt;Node6</title>
<path fill="none" stroke="midnightblue" d="M2022.83,-520.734C1887.68,-513.473 1569.11,-489.67 1487,-424 1396.93,-351.966 1446.98,-265.811 1503,-165 1519.34,-135.595 1527.1,-128.794 1555,-110 1577.26,-95.0074 1605.3,-83.9764 1628.01,-76.6474"/>
<polygon fill="midnightblue" stroke="midnightblue" points="1629.19,-79.9456 1637.7,-73.6362 1627.11,-73.2608 1629.19,-79.9456"/>
</g>
<!-- Node7 -->
<g id="node8" class="node"><title>Node7</title>
<polygon fill="white" stroke="#bfbfbf" points="2357.99,-165.5 2357.99,-183.5 2424.01,-183.5 2424.01,-165.5 2357.99,-165.5"/>
<text text-anchor="middle" x="2391" y="-171.5" font-family="Helvetica,sans-Serif" font-size="10.00">Eigen/Core</text>
</g>
<!-- Node5&#45;&gt;Node7 -->
<g id="edge8" class="edge"><title>Node5&#45;&gt;Node7</title>
<path fill="none" stroke="midnightblue" d="M2114.68,-515.459C2228.46,-485.5 2620.63,-380.955 2637,-359 2700.28,-274.162 2517.25,-210.503 2432.05,-186.233"/>
<polygon fill="midnightblue" stroke="midnightblue" points="2432.99,-182.86 2422.41,-183.536 2431.1,-189.601 2432.99,-182.86"/>
</g>
<!-- Node8 -->
<g id="node9" class="node"><title>Node8</title>
<polygon fill="white" stroke="#bfbfbf" points="2476.29,-0.5 2476.29,-18.5 2595.71,-18.5 2595.71,-0.5 2476.29,-0.5"/>
<text text-anchor="middle" x="2536" y="-6.5" font-family="Helvetica,sans-Serif" font-size="10.00">boost/noncopyable.hpp</text>
</g>
<!-- Node5&#45;&gt;Node8 -->
<g id="edge9" class="edge"><title>Node5&#45;&gt;Node8</title>
<path fill="none" stroke="midnightblue" d="M2145.36,-519.861C2235.65,-514.022 2409.48,-500.931 2556,-479 2873.31,-431.505 3211,-496.344 3211,-175.5 3211,-175.5 3211,-175.5 3211,-118.5 3211,-88.3293 3211.22,-72.9898 3187,-55 3141.2,-20.9808 2764.35,-12.9461 2605.84,-11.0666"/>
<polygon fill="midnightblue" stroke="midnightblue" points="2605.76,-7.56551 2595.72,-10.9514 2605.68,-14.5651 2605.76,-7.56551"/>
</g>
<!-- Node9 -->
<g id="node10" class="node"><title>Node9</title>
<polygon fill="white" stroke="#bfbfbf" points="2557.02,-165.5 2557.02,-183.5 2666.98,-183.5 2666.98,-165.5 2557.02,-165.5"/>
<text text-anchor="middle" x="2612" y="-171.5" font-family="Helvetica,sans-Serif" font-size="10.00">boost/shared_ptr.hpp</text>
</g>
<!-- Node5&#45;&gt;Node9 -->
<g id="edge10" class="edge"><title>Node5&#45;&gt;Node9</title>
<path fill="none" stroke="midnightblue" d="M2126.36,-515.447C2170.01,-506.99 2239.97,-492.998 2300,-479 2394.38,-456.993 2418.8,-453.848 2511,-424 2529.94,-417.867 2666.76,-375.436 2678,-359 2696.63,-331.758 2742.55,-388.649 2655,-220 2649.15,-208.728 2639.53,-198.377 2630.87,-190.5"/>
<polygon fill="midnightblue" stroke="midnightblue" points="2632.89,-187.617 2623.02,-183.757 2628.33,-192.927 2632.89,-187.617"/>
</g>
<!-- Node12 -->
<g id="node11" class="node"><title>Node12</title>
<g id="a_node11"><a xlink:href="../../df/d0a/Macros_8h.html" target="_top" xlink:title="ocra/util/Macros.h">
<polygon fill="white" stroke="black" points="2227.54,-110.5 2227.54,-128.5 2322.46,-128.5 2322.46,-110.5 2227.54,-110.5"/>
<text text-anchor="middle" x="2275" y="-116.5" font-family="Helvetica,sans-Serif" font-size="10.00">ocra/util/Macros.h</text>
</a>
</g>
</g>
<!-- Node5&#45;&gt;Node12 -->
<g id="edge13" class="edge"><title>Node5&#45;&gt;Node12</title>
<path fill="none" stroke="midnightblue" d="M2142.65,-515.472C2197.93,-507.535 2282.95,-494.373 2356,-479 2545.56,-439.106 2602.09,-446.316 2775,-359 2849.12,-321.573 2888.35,-323.004 2926,-249 2981.16,-140.57 2502.21,-123.589 2332.89,-120.967"/>
<polygon fill="midnightblue" stroke="midnightblue" points="2332.72,-117.464 2322.67,-120.82 2332.62,-124.463 2332.72,-117.464"/>
</g>
<!-- Node14 -->
<g id="node13" class="node"><title>Node14</title>
<g id="a_node13"><a xlink:href="../../df/d4f/Task_8h.html" target="_top" xlink:title="ocra/control/Task.h">
<polygon fill="white" stroke="red" points="1753.04,-460.5 1753.04,-478.5 1852.96,-478.5 1852.96,-460.5 1753.04,-460.5"/>
<text text-anchor="middle" x="1803" y="-466.5" font-family="Helvetica,sans-Serif" font-size="10.00">ocra/control/Task.h</text>
</a>
</g>
</g>
<!-- Node5&#45;&gt;Node14 -->
<g id="edge15" class="edge"><title>Node5&#45;&gt;Node14</title>
<path fill="none" stroke="midnightblue" d="M2041.32,-515.45C1991.56,-506.065 1909.3,-490.549 1855.62,-480.425"/>
<polygon fill="midnightblue" stroke="midnightblue" points="1856.09,-476.952 1845.62,-478.538 1854.8,-483.831 1856.09,-476.952"/>
</g>
<!-- Node5&#45;&gt;Node19 -->
<g id="edge127" class="edge"><title>Node5&#45;&gt;Node19</title>
<path fill="none" stroke="midnightblue" d="M2090.4,-515.373C2105.03,-496.804 2141.11,-450.986 2160.39,-426.513"/>
<polygon fill="midnightblue" stroke="midnightblue" points="2163.22,-428.575 2166.66,-418.553 2157.72,-424.243 2163.22,-428.575"/>
</g>
<!-- Node5&#45;&gt;Node25 -->
<g id="edge128" class="edge"><title>Node5&#45;&gt;Node25</title>
<path fill="none" stroke="midnightblue" d="M2080.83,-515.282C2069.12,-486.119 2025.34,-386.835 1955,-340 1913.99,-312.696 1858.93,-301.876 1816.65,-297.714"/>
<polygon fill="midnightblue" stroke="midnightblue" points="1816.73,-294.209 1806.46,-296.815 1816.12,-301.181 1816.73,-294.209"/>
</g>
<!-- Node6&#45;&gt;Node2 -->
<g id="edge7" class="edge"><title>Node6&#45;&gt;Node2</title>
<path fill="none" stroke="midnightblue" d="M1596.73,-59.752C1392.64,-49.1682 817.693,-19.352 677.914,-12.1032"/>
<polygon fill="midnightblue" stroke="midnightblue" points="677.699,-8.58742 667.531,-11.5647 677.337,-15.578 677.699,-8.58742"/>
</g>
<!-- Node13 -->
<g id="node12" class="node"><title>Node13</title>
<polygon fill="white" stroke="#bfbfbf" points="3092.94,-55.5 3092.94,-73.5 3145.06,-73.5 3145.06,-55.5 3092.94,-55.5"/>
<text text-anchor="middle" x="3119" y="-61.5" font-family="Helvetica,sans-Serif" font-size="10.00">memory</text>
</g>
<!-- Node12&#45;&gt;Node13 -->
<g id="edge14" class="edge"><title>Node12&#45;&gt;Node13</title>
<path fill="none" stroke="midnightblue" d="M2322.49,-115.518C2474.59,-105.966 2947.63,-76.2612 3082.67,-67.7813"/>
<polygon fill="midnightblue" stroke="midnightblue" points="3083.12,-71.2599 3092.88,-67.1399 3082.69,-64.2736 3083.12,-71.2599"/>
</g>
<!-- Node14&#45;&gt;Node6 -->
<g id="edge16" class="edge"><title>Node14&#45;&gt;Node6</title>
<path fill="none" stroke="midnightblue" d="M1793.28,-460.417C1768.3,-439.749 1699.67,-383.542 1640,-340 1581.55,-297.35 1538.98,-312.884 1505,-249 1465.26,-174.293 1585.16,-105.355 1641.48,-77.9699"/>
<polygon fill="midnightblue" stroke="midnightblue" points="1643.05,-81.0995 1650.57,-73.6412 1640.04,-74.7791 1643.05,-81.0995"/>
</g>
<!-- Node14&#45;&gt;Node7 -->
<g id="edge17" class="edge"><title>Node14&#45;&gt;Node7</title>
<path fill="none" stroke="midnightblue" d="M1824.19,-460.432C1845.99,-451.963 1880.77,-437.961 1910,-424 2081.56,-342.054 2114.72,-302.523 2286,-220 2310.79,-208.056 2339.61,-195.964 2360.78,-187.406"/>
<polygon fill="midnightblue" stroke="midnightblue" points="2362.24,-190.592 2370.22,-183.62 2359.63,-184.096 2362.24,-190.592"/>
</g>
<!-- Node14&#45;&gt;Node12 -->
<g id="edge18" class="edge"><title>Node14&#45;&gt;Node12</title>
<path fill="none" stroke="midnightblue" d="M1806.51,-460.195C1818.62,-432.362 1861.14,-340.986 1920,-285 1989.4,-218.989 2011.51,-203.977 2099,-165 2136.73,-148.19 2181.96,-136.929 2217.12,-129.94"/>
<polygon fill="midnightblue" stroke="midnightblue" points="2218.06,-133.323 2227.22,-127.994 2216.74,-126.449 2218.06,-133.323"/>
</g>
<!-- Node14&#45;&gt;Node14 -->
<g id="edge97" class="edge"><title>Node14&#45;&gt;Node14</title>
<path fill="none" stroke="midnightblue" d="M1830.92,-478.535C1850.98,-481.476 1870.96,-478.465 1870.96,-469.5 1870.96,-462.076 1857.26,-458.735 1841.16,-459.476"/>
<polygon fill="midnightblue" stroke="midnightblue" points="1840.54,-456.019 1830.92,-460.465 1841.21,-462.987 1840.54,-456.019"/>
</g>
<!-- Node18 -->
<g id="node14" class="node"><title>Node18</title>
<g id="a_node14"><a xlink:href="../../d8/d9f/ErrorsHelper_8h.html" target="_top" xlink:title="ocra/util/ErrorsHelper.h">
<polygon fill="white" stroke="black" points="701.867,-285.5 701.867,-303.5 820.133,-303.5 820.133,-285.5 701.867,-285.5"/>
<text text-anchor="middle" x="761" y="-291.5" font-family="Helvetica,sans-Serif" font-size="10.00">ocra/util/ErrorsHelper.h</text>
</a>
</g>
</g>
<!-- Node14&#45;&gt;Node18 -->
<g id="edge19" class="edge"><title>Node14&#45;&gt;Node18</title>
<path fill="none" stroke="midnightblue" d="M1752.91,-463.158C1690.36,-456.095 1580.22,-442.364 1487,-424 1435.71,-413.895 1424.18,-405.65 1373,-395 1177.61,-354.346 944.23,-320.388 830.375,-304.752"/>
<polygon fill="midnightblue" stroke="midnightblue" points="830.78,-301.275 820.398,-303.386 829.831,-308.21 830.78,-301.275"/>
</g>
<!-- Node14&#45;&gt;Node19 -->
<g id="edge21" class="edge"><title>Node14&#45;&gt;Node19</title>
<path fill="none" stroke="midnightblue" d="M1853.09,-461.671C1912.56,-453.42 2014.68,-438.793 2102,-424 2108.57,-422.888 2115.46,-421.656 2122.27,-420.403"/>
<polygon fill="midnightblue" stroke="midnightblue" points="2122.94,-423.838 2132.13,-418.562 2121.65,-416.957 2122.94,-423.838"/>
</g>
<!-- Node21 -->
<g id="node17" class="node"><title>Node21</title>
<g id="a_node17"><a xlink:href="../../db/d3d/ControlFrame_8h.html" target="_top" xlink:title="Classes that represent frames. ">
<polygon fill="white" stroke="black" points="1928.75,-285.5 1928.75,-303.5 2069.25,-303.5 2069.25,-285.5 1928.75,-285.5"/>
<text text-anchor="middle" x="1999" y="-291.5" font-family="Helvetica,sans-Serif" font-size="10.00">ocra/control/ControlFrame.h</text>
</a>
</g>
</g>
<!-- Node14&#45;&gt;Node21 -->
<g id="edge99" class="edge"><title>Node14&#45;&gt;Node21</title>
<path fill="none" stroke="midnightblue" d="M1817.86,-460.465C1846.87,-444.24 1911.98,-405.155 1955,-359 1968.39,-344.631 1980.86,-325.92 1989.08,-312.538"/>
<polygon fill="midnightblue" stroke="midnightblue" points="1992.14,-314.252 1994.27,-303.874 1986.13,-310.657 1992.14,-314.252"/>
</g>
<!-- Node14&#45;&gt;Node25 -->
<g id="edge69" class="edge"><title>Node14&#45;&gt;Node25</title>
<path fill="none" stroke="midnightblue" d="M1800.59,-460.156C1792.92,-433.609 1768.95,-350.683 1758.25,-313.662"/>
<polygon fill="midnightblue" stroke="midnightblue" points="1761.53,-312.395 1755.39,-303.76 1754.8,-314.339 1761.53,-312.395"/>
</g>
<!-- Node48 -->
<g id="node27" class="node"><title>Node48</title>
<g id="a_node27"><a xlink:href="../../d0/d8a/TaskState_8h.html" target="_top" xlink:title="ocra/control/TaskState.h">
<polygon fill="white" stroke="red" points="2277.36,-285.5 2277.36,-303.5 2400.64,-303.5 2400.64,-285.5 2277.36,-285.5"/>
<text text-anchor="middle" x="2339" y="-291.5" font-family="Helvetica,sans-Serif" font-size="10.00">ocra/control/TaskState.h</text>
</a>
</g>
</g>
<!-- Node14&#45;&gt;Node48 -->
<g id="edge98" class="edge"><title>Node14&#45;&gt;Node48</title>
<path fill="none" stroke="midnightblue" d="M1853.09,-462.517C1917.79,-454.349 2026.56,-439.003 2064,-424 2085.4,-415.426 2086.76,-406.036 2107,-395 2175.5,-357.644 2260.93,-324.123 2306.61,-307.17"/>
<polygon fill="midnightblue" stroke="midnightblue" points="2308.1,-310.354 2316.27,-303.614 2305.68,-303.785 2308.1,-310.354"/>
</g>
<!-- Node14&#45;&gt;Node54 -->
<g id="edge70" class="edge"><title>Node14&#45;&gt;Node54</title>
<path fill="none" stroke="midnightblue" d="M1770.46,-460.435C1729.02,-450.162 1657.29,-432.384 1611.55,-421.046"/>
<polygon fill="midnightblue" stroke="midnightblue" points="1612.19,-417.598 1601.64,-418.589 1610.5,-424.393 1612.19,-417.598"/>
</g>
<!-- Node62 -->
<g id="node31" class="node"><title>Node62</title>
<g id="a_node31"><a xlink:href="../../d1/d0e/SquaredLinearFunction_8h.html" target="_top" xlink:title="Declaration file of the SquaredLinearFunction class. ">
<polygon fill="white" stroke="red" points="861.466,-220.5 861.466,-248.5 992.534,-248.5 992.534,-220.5 861.466,-220.5"/>
<text text-anchor="start" x="869.466" y="-236.5" font-family="Helvetica,sans-Serif" font-size="10.00">ocra/optim/SquaredLinear</text>
<text text-anchor="middle" x="927" y="-226.5" font-family="Helvetica,sans-Serif" font-size="10.00">Function.h</text>
</a>
</g>
</g>
<!-- Node14&#45;&gt;Node62 -->
<g id="edge94" class="edge"><title>Node14&#45;&gt;Node62</title>
<path fill="none" stroke="midnightblue" d="M1774.54,-460.484C1751.56,-453.192 1719.04,-440.971 1694,-424 1651.07,-394.905 1658.48,-364.935 1613,-340 1504.85,-280.702 1462.77,-304.559 1341,-285 1223.51,-266.128 1086.19,-251.082 1002.96,-242.73"/>
<polygon fill="midnightblue" stroke="midnightblue" points="1003.13,-239.229 992.836,-241.72 1002.44,-246.195 1003.13,-239.229"/>
</g>
<!-- Node70 -->
<g id="node37" class="node"><title>Node70</title>
<g id="a_node37"><a xlink:href="../../d8/d6a/WeightedSquareDistanceFunction_8h.html" target="_top" xlink:title="Declaration file of the WeightedSquareDistanceFunction class. ">
<polygon fill="white" stroke="black" points="1224.11,-395.5 1224.11,-423.5 1363.89,-423.5 1363.89,-395.5 1224.11,-395.5"/>
<text text-anchor="start" x="1232.11" y="-411.5" font-family="Helvetica,sans-Serif" font-size="10.00">ocra/optim/WeightedSquare</text>
<text text-anchor="middle" x="1294" y="-401.5" font-family="Helvetica,sans-Serif" font-size="10.00">DistanceFunction.h</text>
</a>
</g>
</g>
<!-- Node14&#45;&gt;Node70 -->
<g id="edge95" class="edge"><title>Node14&#45;&gt;Node70</title>
<path fill="none" stroke="midnightblue" d="M1752.8,-462.78C1664.36,-452.702 1480.12,-431.708 1373.98,-419.614"/>
<polygon fill="midnightblue" stroke="midnightblue" points="1374.29,-416.127 1363.96,-418.472 1373.5,-423.082 1374.29,-416.127"/>
</g>
<!-- Node14&#45;&gt;Node71 -->
<g id="edge100" class="edge"><title>Node14&#45;&gt;Node71</title>
<path fill="none" stroke="midnightblue" d="M1752.95,-465.463C1597.54,-456.035 1122.2,-427.196 929.472,-415.504"/>
<polygon fill="midnightblue" stroke="midnightblue" points="929.595,-412.005 919.401,-414.893 929.171,-418.992 929.595,-412.005"/>
</g>
<!-- Node85 -->
<g id="node45" class="node"><title>Node85</title>
<g id="a_node45"><a xlink:href="../../d9/d0f/LinearizedCoulombFunction_8h.html" target="_top" xlink:title="Declaration file of the LinearizedCoulombFunction class. ">
<polygon fill="white" stroke="black" points="2248.19,-395.5 2248.19,-423.5 2399.81,-423.5 2399.81,-395.5 2248.19,-395.5"/>
<text text-anchor="start" x="2256.19" y="-411.5" font-family="Helvetica,sans-Serif" font-size="10.00">ocra/optim/LinearizedCoulomb</text>
<text text-anchor="middle" x="2324" y="-401.5" font-family="Helvetica,sans-Serif" font-size="10.00">Function.h</text>
</a>
</g>
</g>
<!-- Node14&#45;&gt;Node85 -->
<g id="edge125" class="edge"><title>Node14&#45;&gt;Node85</title>
<path fill="none" stroke="midnightblue" d="M1853.13,-464.3C1932.51,-457.447 2092.22,-442.844 2238,-424.081"/>
<polygon fill="midnightblue" stroke="midnightblue" points="2238.56,-427.538 2248.03,-422.781 2237.66,-420.596 2238.56,-427.538"/>
</g>
<!-- Node18&#45;&gt;Node4 -->
<g id="edge20" class="edge"><title>Node18&#45;&gt;Node4</title>
<path fill="none" stroke="midnightblue" d="M746.678,-285.435C729.786,-275.923 701.466,-259.976 681.378,-248.665"/>
<polygon fill="midnightblue" stroke="midnightblue" points="682.963,-245.54 672.532,-243.683 679.528,-251.64 682.963,-245.54"/>
</g>
<!-- Node19&#45;&gt;Node6 -->
<g id="edge24" class="edge"><title>Node19&#45;&gt;Node6</title>
<path fill="none" stroke="midnightblue" d="M2168.74,-400.445C2157.01,-378.937 2122.14,-319.454 2078,-285 1949.94,-185.044 1769.95,-106.402 1699.22,-77.487"/>
<polygon fill="midnightblue" stroke="midnightblue" points="1700.18,-74.0991 1689.6,-73.585 1697.55,-80.5861 1700.18,-74.0991"/>
</g>
<!-- Node19&#45;&gt;Node8 -->
<g id="edge68" class="edge"><title>Node19&#45;&gt;Node8</title>
<path fill="none" stroke="midnightblue" d="M2207.79,-400.471C2217.81,-398.405 2228.8,-396.379 2239,-395 2357.3,-379.002 2661.81,-396.937 2775,-359 2896.12,-318.406 2956.48,-302.971 3003,-184 3023.88,-130.603 3041.57,-97.4201 3003,-55 2976.85,-26.2439 2730.06,-15.6301 2606.2,-12.0912"/>
<polygon fill="midnightblue" stroke="midnightblue" points="2606.14,-8.58844 2596.05,-11.8092 2605.95,-15.5857 2606.14,-8.58844"/>
</g>
<!-- Node19&#45;&gt;Node9 -->
<g id="edge67" class="edge"><title>Node19&#45;&gt;Node9</title>
<path fill="none" stroke="midnightblue" d="M2208.49,-400.483C2218.34,-398.467 2229.05,-396.463 2239,-395 2282.93,-388.541 2607.05,-391.781 2637,-359 2679.82,-312.135 2641.72,-228.41 2622.05,-192.557"/>
<polygon fill="midnightblue" stroke="midnightblue" points="2625.05,-190.755 2617.07,-183.785 2618.96,-194.21 2625.05,-190.755"/>
</g>
<!-- Node19&#45;&gt;Node12 -->
<g id="edge65" class="edge"><title>Node19&#45;&gt;Node12</title>
<path fill="none" stroke="midnightblue" d="M2208.49,-400.454C2218.33,-398.438 2229.05,-396.442 2239,-395 2331.27,-381.636 2585.92,-419.328 2657,-359 2676.23,-342.678 2667.34,-328.958 2671,-304 2679.96,-242.835 2717.23,-211.059 2676,-165 2653.53,-139.904 2438.45,-127.398 2332.88,-122.731"/>
<polygon fill="midnightblue" stroke="midnightblue" points="2332.85,-119.226 2322.71,-122.29 2332.55,-126.22 2332.85,-119.226"/>
</g>
<!-- Node20 -->
<g id="node16" class="node"><title>Node20</title>
<g id="a_node16"><a xlink:href="../../df/d60/ControlEnum_8h.html" target="_top" xlink:title="Some enumerations for the control. ">
<polygon fill="white" stroke="red" points="1466.14,-340.5 1466.14,-358.5 1603.86,-358.5 1603.86,-340.5 1466.14,-340.5"/>
<text text-anchor="middle" x="1535" y="-346.5" font-family="Helvetica,sans-Serif" font-size="10.00">ocra/control/ControlEnum.h</text>
</a>
</g>
</g>
<!-- Node19&#45;&gt;Node20 -->
<g id="edge22" class="edge"><title>Node19&#45;&gt;Node20</title>
<path fill="none" stroke="midnightblue" d="M2115.82,-403.302C2001.62,-392.92 1745.08,-369.598 1614.55,-357.732"/>
<polygon fill="midnightblue" stroke="midnightblue" points="1614.5,-354.213 1604.23,-356.793 1613.87,-361.184 1614.5,-354.213"/>
</g>
<!-- Node19&#45;&gt;Node21 -->
<g id="edge25" class="edge"><title>Node19&#45;&gt;Node21</title>
<path fill="none" stroke="midnightblue" d="M2166.31,-400.347C2154.53,-386.426 2128.8,-357.852 2102,-340 2080.96,-325.986 2054.79,-314.745 2034.09,-307.067"/>
<polygon fill="midnightblue" stroke="midnightblue" points="2035.01,-303.678 2024.41,-303.587 2032.64,-310.265 2035.01,-303.678"/>
</g>
<!-- Node24 -->
<g id="node19" class="node"><title>Node24</title>
<polygon fill="white" stroke="#bfbfbf" points="2294.6,-225.5 2294.6,-243.5 2363.4,-243.5 2363.4,-225.5 2294.6,-225.5"/>
<text text-anchor="middle" x="2329" y="-231.5" font-family="Helvetica,sans-Serif" font-size="10.00">Eigen/Lgsm</text>
</g>
<!-- Node19&#45;&gt;Node24 -->
<g id="edge66" class="edge"><title>Node19&#45;&gt;Node24</title>
<path fill="none" stroke="midnightblue" d="M2180.57,-400.313C2189.38,-390.673 2204.22,-374.062 2216,-359 2240.77,-327.341 2240.58,-314.389 2268,-285 2280.28,-271.841 2296.11,-259.094 2308.57,-249.832"/>
<polygon fill="midnightblue" stroke="midnightblue" points="2310.91,-252.457 2316.94,-243.748 2306.79,-246.794 2310.91,-252.457"/>
</g>
<!-- Node19&#45;&gt;Node25 -->
<g id="edge32" class="edge"><title>Node19&#45;&gt;Node25</title>
<path fill="none" stroke="midnightblue" d="M2154.43,-400.439C2121.48,-386.403 2050.37,-357.321 1988,-340 1930.78,-324.111 1864.16,-312.087 1816.49,-304.568"/>
<polygon fill="midnightblue" stroke="midnightblue" points="1816.73,-301.064 1806.32,-302.986 1815.66,-307.981 1816.73,-301.064"/>
</g>
<!-- Node19&#45;&gt;Node46 -->
<g id="edge50" class="edge"><title>Node19&#45;&gt;Node46</title>
<path fill="none" stroke="midnightblue" d="M2207.79,-400.495C2217.82,-398.43 2228.8,-396.398 2239,-395 2351.12,-379.627 2645.33,-408.704 2747,-359 2795.21,-335.432 2832,-280.844 2848.48,-252.806"/>
<polygon fill="midnightblue" stroke="midnightblue" points="2851.71,-254.205 2853.62,-243.784 2845.63,-250.741 2851.71,-254.205"/>
</g>
<!-- Node47 -->
<g id="node26" class="node"><title>Node47</title>
<g id="a_node26"><a xlink:href="../../d9/daf/PartialState_8h.html" target="_top" xlink:title="Define partial state classes that can be used to control some joints of the robot. ">
<polygon fill="white" stroke="black" points="2496.47,-340.5 2496.47,-358.5 2627.53,-358.5 2627.53,-340.5 2496.47,-340.5"/>
<text text-anchor="middle" x="2562" y="-346.5" font-family="Helvetica,sans-Serif" font-size="10.00">ocra/control/PartialState.h</text>
</a>
</g>
</g>
<!-- Node19&#45;&gt;Node47 -->
<g id="edge55" class="edge"><title>Node19&#45;&gt;Node47</title>
<path fill="none" stroke="midnightblue" d="M2210.27,-400.437C2219.63,-398.534 2229.66,-396.597 2239,-395 2323.21,-380.602 2420.39,-367.714 2485.99,-359.56"/>
<polygon fill="midnightblue" stroke="midnightblue" points="2486.74,-362.993 2496.23,-358.292 2485.88,-356.046 2486.74,-362.993"/>
</g>
<!-- Node19&#45;&gt;Node48 -->
<g id="edge61" class="edge"><title>Node19&#45;&gt;Node48</title>
<path fill="none" stroke="midnightblue" d="M2204.82,-400.407C2248.27,-389.07 2321.73,-368.756 2330,-359 2340.46,-346.657 2341.95,-327.867 2341.27,-313.925"/>
<polygon fill="midnightblue" stroke="midnightblue" points="2344.73,-313.252 2340.35,-303.603 2337.76,-313.875 2344.73,-313.252"/>
</g>
<!-- Node20&#45;&gt;Node4 -->
<g id="edge23" class="edge"><title>Node20&#45;&gt;Node4</title>
<path fill="none" stroke="midnightblue" d="M1465.94,-346.62C1325.18,-342.297 1009.62,-329.968 905,-304 884.722,-298.967 881.854,-291.507 862,-285 791.5,-261.894 770.547,-268.626 699,-249 696.38,-248.281 693.68,-247.496 690.975,-246.676"/>
<polygon fill="midnightblue" stroke="midnightblue" points="691.882,-243.292 681.293,-243.62 689.775,-249.968 691.882,-243.292"/>
</g>
<!-- Node21&#45;&gt;Node6 -->
<g id="edge26" class="edge"><title>Node21&#45;&gt;Node6</title>
<path fill="none" stroke="midnightblue" d="M1976.74,-285.481C1955.93,-277.552 1924.33,-264.395 1899,-249 1812.11,-196.199 1721.3,-114.574 1685.19,-80.8672"/>
<polygon fill="midnightblue" stroke="midnightblue" points="1687.27,-78.0227 1677.59,-73.7239 1682.48,-83.1231 1687.27,-78.0227"/>
</g>
<!-- Node21&#45;&gt;Node8 -->
<g id="edge31" class="edge"><title>Node21&#45;&gt;Node8</title>
<path fill="none" stroke="midnightblue" d="M1999.26,-285.445C2000.1,-271.043 2003.58,-240.473 2018,-220 2043.06,-184.424 2061.09,-186.362 2099,-165 2232.45,-89.802 2409.07,-41.0101 2490.86,-20.9324"/>
<polygon fill="midnightblue" stroke="midnightblue" points="2491.93,-24.274 2500.83,-18.514 2490.28,-17.4715 2491.93,-24.274"/>
</g>
<!-- Node21&#45;&gt;Node9 -->
<g id="edge30" class="edge"><title>Node21&#45;&gt;Node9</title>
<path fill="none" stroke="midnightblue" d="M2047.72,-285.464C2090.84,-277.824 2155.23,-265.117 2210,-249 2244.68,-238.794 2250.97,-228.948 2286,-220 2374.65,-197.354 2480,-185.626 2546.43,-180.018"/>
<polygon fill="midnightblue" stroke="midnightblue" points="2547.08,-183.477 2556.75,-179.17 2546.5,-176.501 2547.08,-183.477"/>
</g>
<!-- Node21&#45;&gt;Node12 -->
<g id="edge28" class="edge"><title>Node21&#45;&gt;Node12</title>
<path fill="none" stroke="midnightblue" d="M2002.39,-285.085C2008.82,-270.113 2024.1,-238.668 2046,-220 2101.09,-173.041 2181.75,-145.007 2231.18,-131.19"/>
<polygon fill="midnightblue" stroke="midnightblue" points="2232.21,-134.539 2240.94,-128.535 2230.37,-127.785 2232.21,-134.539"/>
</g>
<!-- Node22 -->
<g id="node18" class="node"><title>Node22</title>
<g id="a_node18"><a xlink:href="../../d5/d55/MathTypes_8h.html" target="_top" xlink:title="Declaration file of the OptimizationVariable class. ">
<polygon fill="white" stroke="red" points="1529.48,-225.5 1529.48,-243.5 1640.52,-243.5 1640.52,-225.5 1529.48,-225.5"/>
<text text-anchor="middle" x="1585" y="-231.5" font-family="Helvetica,sans-Serif" font-size="10.00">ocra/util/MathTypes.h</text>
</a>
</g>
</g>
<!-- Node21&#45;&gt;Node22 -->
<g id="edge27" class="edge"><title>Node21&#45;&gt;Node22</title>
<path fill="none" stroke="midnightblue" d="M1941.87,-285.496C1865.61,-274.812 1730.86,-255.934 1650.55,-244.683"/>
<polygon fill="midnightblue" stroke="midnightblue" points="1650.94,-241.204 1640.55,-243.283 1649.97,-248.136 1650.94,-241.204"/>
</g>
<!-- Node21&#45;&gt;Node24 -->
<g id="edge29" class="edge"><title>Node21&#45;&gt;Node24</title>
<path fill="none" stroke="midnightblue" d="M2044.54,-285.496C2107.85,-274.369 2221.73,-254.353 2284.49,-243.323"/>
<polygon fill="midnightblue" stroke="midnightblue" points="2285.24,-246.746 2294.48,-241.567 2284.02,-239.851 2285.24,-246.746"/>
</g>
<!-- Node25&#45;&gt;Node2 -->
<g id="edge47" class="edge"><title>Node25&#45;&gt;Node2</title>
<path fill="none" stroke="midnightblue" d="M1699.41,-288.336C1631.27,-281.158 1517.9,-266.996 1480,-249 1362.54,-193.231 1380.83,-105.474 1261,-55 1153.99,-9.92772 786.294,-9.30931 677.534,-10.153"/>
<polygon fill="midnightblue" stroke="midnightblue" points="677.235,-6.65538 667.266,-10.2433 677.297,-13.6551 677.235,-6.65538"/>
</g>
<!-- Node25&#45;&gt;Node4 -->
<g id="edge48" class="edge"><title>Node25&#45;&gt;Node4</title>
<path fill="none" stroke="midnightblue" d="M1699.66,-291.241C1560.28,-285.256 1173.67,-268.133 852,-249 797.627,-245.766 734.738,-241.246 695.661,-238.346"/>
<polygon fill="midnightblue" stroke="midnightblue" points="695.53,-234.827 685.297,-237.573 695.01,-241.807 695.53,-234.827"/>
</g>
<!-- Node25&#45;&gt;Node6 -->
<g id="edge40" class="edge"><title>Node25&#45;&gt;Node6</title>
<path fill="none" stroke="midnightblue" d="M1732.97,-285.416C1717.92,-278.219 1698.21,-266.158 1688,-249 1656.36,-195.836 1661.65,-118.427 1666.15,-83.6299"/>
<polygon fill="midnightblue" stroke="midnightblue" points="1669.64,-83.9545 1667.6,-73.5592 1662.71,-82.9619 1669.64,-83.9545"/>
</g>
<!-- Node25&#45;&gt;Node12 -->
<g id="edge45" class="edge"><title>Node25&#45;&gt;Node12</title>
<path fill="none" stroke="midnightblue" d="M1765.95,-285.379C1802.95,-262.569 1912.9,-197.466 2013,-165 2081.24,-142.869 2163.23,-131.206 2217.1,-125.458"/>
<polygon fill="midnightblue" stroke="midnightblue" points="2217.57,-128.929 2227.15,-124.42 2216.85,-121.966 2217.57,-128.929"/>
</g>
<!-- Node25&#45;&gt;Node22 -->
<g id="edge33" class="edge"><title>Node25&#45;&gt;Node22</title>
<path fill="none" stroke="midnightblue" d="M1729.64,-285.435C1700.63,-275.421 1650.97,-258.276 1618.06,-246.915"/>
<polygon fill="midnightblue" stroke="midnightblue" points="1619.03,-243.544 1608.43,-243.589 1616.74,-250.161 1619.03,-243.544"/>
</g>
<!-- Node25&#45;&gt;Node24 -->
<g id="edge46" class="edge"><title>Node25&#45;&gt;Node24</title>
<path fill="none" stroke="midnightblue" d="M1806.5,-288.569C1891.86,-280.637 2064.13,-264.375 2210,-249 2234.54,-246.413 2261.91,-243.323 2284.21,-240.752"/>
<polygon fill="midnightblue" stroke="midnightblue" points="2284.86,-244.2 2294.39,-239.574 2284.05,-237.247 2284.86,-244.2"/>
</g>
<!-- Node26 -->
<g id="node21" class="node"><title>Node26</title>
<g id="a_node21"><a xlink:href="../../d8/ddc/ObserverSubject_8h.html" target="_top" xlink:title="Declaration file of the Observer, Subject and ObserverSubject classes. ">
<polygon fill="white" stroke="red" points="1179.86,-0.5 1179.86,-18.5 1328.14,-18.5 1328.14,-0.5 1179.86,-0.5"/>
<text text-anchor="middle" x="1254" y="-6.5" font-family="Helvetica,sans-Serif" font-size="10.00">ocra/optim/ObserverSubject.h</text>
</a>
</g>
</g>
<!-- Node25&#45;&gt;Node26 -->
<g id="edge34" class="edge"><title>Node25&#45;&gt;Node26</title>
<path fill="none" stroke="midnightblue" d="M1699.59,-287.608C1640.48,-280.343 1549.63,-266.746 1520,-249 1424.84,-192.013 1452.03,-121.153 1363,-55 1342.51,-39.7772 1316.08,-28.8171 1294.37,-21.5833"/>
<polygon fill="midnightblue" stroke="midnightblue" points="1295.36,-18.225 1284.77,-18.5199 1293.23,-24.8938 1295.36,-18.225"/>
</g>
<!-- Node36 -->
<g id="node22" class="node"><title>Node36</title>
<g id="a_node22"><a xlink:href="../../d7/d90/Variable_8h.html" target="_top" xlink:title="Declaration file of the Variable class. ">
<polygon fill="white" stroke="red" points="1142.12,-55.5 1142.12,-73.5 1251.88,-73.5 1251.88,-55.5 1142.12,-55.5"/>
<text text-anchor="middle" x="1197" y="-61.5" font-family="Helvetica,sans-Serif" font-size="10.00">ocra/optim/Variable.h</text>
</a>
</g>
</g>
<!-- Node25&#45;&gt;Node36 -->
<g id="edge35" class="edge"><title>Node25&#45;&gt;Node36</title>
<path fill="none" stroke="midnightblue" d="M1699.63,-288.136C1610.14,-278.905 1437,-259.958 1411,-249 1319.98,-210.641 1239.47,-118.716 1209.47,-81.5242"/>
<polygon fill="midnightblue" stroke="midnightblue" points="1212.21,-79.3449 1203.25,-73.6904 1206.72,-83.6981 1212.21,-79.3449"/>
</g>
<!-- Node44 -->
<g id="node23" class="node"><title>Node44</title>
<g id="a_node23"><a xlink:href="../../d9/d5d/ModelContacts_8h.html" target="_top" xlink:title="Declaration file of the ModelContacts class. ">
<polygon fill="white" stroke="black" points="2054.97,-225.5 2054.97,-243.5 2201.03,-243.5 2201.03,-225.5 2054.97,-225.5"/>
<text text-anchor="middle" x="2128" y="-231.5" font-family="Helvetica,sans-Serif" font-size="10.00">ocra/control/ModelContacts.h</text>
</a>
</g>
</g>
<!-- Node25&#45;&gt;Node44 -->
<g id="edge41" class="edge"><title>Node25&#45;&gt;Node44</title>
<path fill="none" stroke="midnightblue" d="M1804.75,-285.496C1873.06,-274.93 1993.2,-256.349 2066.2,-245.058"/>
<polygon fill="midnightblue" stroke="midnightblue" points="2066.83,-248.502 2076.18,-243.515 2065.76,-241.584 2066.83,-248.502"/>
</g>
<!-- Node45 -->
<g id="node24" class="node"><title>Node45</title>
<polygon fill="white" stroke="#bfbfbf" points="1697.19,-225.5 1697.19,-243.5 1808.81,-243.5 1808.81,-225.5 1697.19,-225.5"/>
<text text-anchor="middle" x="1753" y="-231.5" font-family="Helvetica,sans-Serif" font-size="10.00">yarp/os/Semaphore.h</text>
</g>
<!-- Node25&#45;&gt;Node45 -->
<g id="edge49" class="edge"><title>Node25&#45;&gt;Node45</title>
<path fill="none" stroke="midnightblue" d="M1753,-285.435C1753,-277.389 1753,-264.739 1753,-254.185"/>
<polygon fill="midnightblue" stroke="midnightblue" points="1756.5,-253.872 1753,-243.872 1749.5,-253.872 1756.5,-253.872"/>
</g>
<!-- Node36&#45;&gt;Node2 -->
<g id="edge38" class="edge"><title>Node36&#45;&gt;Node2</title>
<path fill="none" stroke="midnightblue" d="M1142,-58.2C1027.36,-47.153 766.146,-21.9813 677.262,-13.4162"/>
<polygon fill="midnightblue" stroke="midnightblue" points="677.588,-9.93146 667.299,-12.456 676.917,-16.8992 677.588,-9.93146"/>
</g>
<!-- Node36&#45;&gt;Node3 -->
<g id="edge39" class="edge"><title>Node36&#45;&gt;Node3</title>
<path fill="none" stroke="midnightblue" d="M1231.63,-55.4504C1275.59,-45.231 1350.82,-27.7442 1393.32,-17.8633"/>
<polygon fill="midnightblue" stroke="midnightblue" points="1394.19,-21.256 1403.14,-15.5826 1392.6,-14.4378 1394.19,-21.256"/>
</g>
<!-- Node36&#45;&gt;Node8 -->
<g id="edge37" class="edge"><title>Node36&#45;&gt;Node8</title>
<path fill="none" stroke="midnightblue" d="M1251.99,-61.3235C1464.13,-52.9263 2229.3,-22.6397 2465.83,-13.2773"/>
<polygon fill="midnightblue" stroke="midnightblue" points="2466.18,-16.7666 2476.03,-12.8737 2465.9,-9.77208 2466.18,-16.7666"/>
</g>
<!-- Node36&#45;&gt;Node26 -->
<g id="edge36" class="edge"><title>Node36&#45;&gt;Node26</title>
<path fill="none" stroke="midnightblue" d="M1205.91,-55.2188C1214.41,-47.3162 1227.41,-35.2241 1237.75,-25.6057"/>
<polygon fill="midnightblue" stroke="midnightblue" points="1240.4,-27.9222 1245.34,-18.5496 1235.64,-22.7958 1240.4,-27.9222"/>
</g>
<!-- Node44&#45;&gt;Node7 -->
<g id="edge43" class="edge"><title>Node44&#45;&gt;Node7</title>
<path fill="none" stroke="midnightblue" d="M2164.29,-225.496C2212.28,-214.914 2296.72,-196.291 2347.9,-185.005"/>
<polygon fill="midnightblue" stroke="midnightblue" points="2348.97,-188.353 2357.98,-182.782 2347.46,-181.518 2348.97,-188.353"/>
</g>
<!-- Node44&#45;&gt;Node9 -->
<g id="edge44" class="edge"><title>Node44&#45;&gt;Node9</title>
<path fill="none" stroke="midnightblue" d="M2177.18,-225.497C2189.51,-223.593 2202.73,-221.639 2215,-220 2331.61,-204.424 2468,-189.951 2546.75,-181.959"/>
<polygon fill="midnightblue" stroke="midnightblue" points="2547.4,-185.41 2557,-180.922 2546.7,-178.446 2547.4,-185.41"/>
</g>
<!-- Node44&#45;&gt;Node26 -->
<g id="edge42" class="edge"><title>Node44&#45;&gt;Node26</title>
<path fill="none" stroke="midnightblue" d="M2116.78,-225.198C2087.16,-203.591 2003.83,-144.874 1927,-110 1851.99,-75.9503 1830.81,-70.9924 1750,-55 1673.56,-39.8733 1458.88,-23.9872 1338.51,-15.91"/>
<polygon fill="midnightblue" stroke="midnightblue" points="1338.44,-12.3978 1328.23,-15.2239 1337.98,-19.3823 1338.44,-12.3978"/>
</g>
<!-- Node46&#45;&gt;Node6 -->
<g id="edge51" class="edge"><title>Node46&#45;&gt;Node6</title>
<path fill="none" stroke="midnightblue" d="M2848.25,-225.294C2830.07,-210.482 2789.16,-179.475 2749,-165 2565.37,-98.8102 1970.77,-74.5689 1751.34,-67.7442"/>
<polygon fill="midnightblue" stroke="midnightblue" points="1751.28,-64.2408 1741.18,-67.4323 1751.07,-71.2375 1751.28,-64.2408"/>
</g>
<!-- Node46&#45;&gt;Node7 -->
<g id="edge53" class="edge"><title>Node46&#45;&gt;Node7</title>
<path fill="none" stroke="midnightblue" d="M2798.38,-226.095C2702.9,-214.237 2517.93,-191.264 2434.12,-180.856"/>
<polygon fill="midnightblue" stroke="midnightblue" points="2434.54,-177.38 2424.18,-179.621 2433.67,-184.327 2434.54,-177.38"/>
</g>
<!-- Node46&#45;&gt;Node9 -->
<g id="edge54" class="edge"><title>Node46&#45;&gt;Node9</title>
<path fill="none" stroke="midnightblue" d="M2824.05,-225.496C2780.25,-215.168 2703.96,-197.181 2655.82,-185.831"/>
<polygon fill="midnightblue" stroke="midnightblue" points="2656.53,-182.403 2645.99,-183.515 2654.92,-189.216 2656.53,-182.403"/>
</g>
<!-- Node46&#45;&gt;Node12 -->
<g id="edge52" class="edge"><title>Node46&#45;&gt;Node12</title>
<path fill="none" stroke="midnightblue" d="M2844.61,-225.497C2819.18,-210.731 2761.73,-179.399 2709,-165 2577.66,-129.138 2416.79,-121.698 2332.61,-120.447"/>
<polygon fill="midnightblue" stroke="midnightblue" points="2332.53,-116.946 2322.49,-120.322 2332.44,-123.946 2332.53,-116.946"/>
</g>
<!-- Node47&#45;&gt;Node6 -->
<g id="edge56" class="edge"><title>Node47&#45;&gt;Node6</title>
<path fill="none" stroke="midnightblue" d="M2627.71,-348.418C2751.34,-345.801 2999.79,-327.447 2926,-220 2887.45,-163.869 2848.2,-184.648 2783,-165 2674.9,-132.423 2646.88,-125.172 2535,-110 2248.99,-71.2135 1905.67,-65.5636 1751.28,-65.1717"/>
<polygon fill="midnightblue" stroke="midnightblue" points="1750.95,-61.6712 1740.94,-65.1527 1750.94,-68.6712 1750.95,-61.6712"/>
</g>
<!-- Node47&#45;&gt;Node7 -->
<g id="edge59" class="edge"><title>Node47&#45;&gt;Node7</title>
<path fill="none" stroke="midnightblue" d="M2555.06,-340.376C2537.21,-319.614 2487.93,-263.203 2443,-220 2432.16,-209.577 2419.33,-198.583 2409.12,-190.131"/>
<polygon fill="midnightblue" stroke="midnightblue" points="2411.23,-187.327 2401.27,-183.697 2406.79,-192.742 2411.23,-187.327"/>
</g>
<!-- Node47&#45;&gt;Node9 -->
<g id="edge60" class="edge"><title>Node47&#45;&gt;Node9</title>
<path fill="none" stroke="midnightblue" d="M2564.41,-340.156C2572.08,-313.609 2596.05,-230.683 2606.75,-193.662"/>
<polygon fill="midnightblue" stroke="midnightblue" points="2610.2,-194.339 2609.61,-183.76 2603.47,-192.395 2610.2,-194.339"/>
</g>
<!-- Node47&#45;&gt;Node12 -->
<g id="edge58" class="edge"><title>Node47&#45;&gt;Node12</title>
<path fill="none" stroke="midnightblue" d="M2559.63,-340.295C2550.78,-311.173 2516.71,-212.013 2451,-165 2416.44,-140.274 2369.47,-129.25 2332.74,-124.353"/>
<polygon fill="midnightblue" stroke="midnightblue" points="2333.02,-120.861 2322.67,-123.128 2332.18,-127.81 2333.02,-120.861"/>
</g>
<!-- Node47&#45;&gt;Node25 -->
<g id="edge57" class="edge"><title>Node47&#45;&gt;Node25</title>
<path fill="none" stroke="midnightblue" d="M2496.14,-344.185C2343.39,-334.178 1966.57,-309.491 1816.33,-299.649"/>
<polygon fill="midnightblue" stroke="midnightblue" points="1816.54,-296.155 1806.33,-298.994 1816.08,-303.14 1816.54,-296.155"/>
</g>
<!-- Node48&#45;&gt;Node7 -->
<g id="edge62" class="edge"><title>Node48&#45;&gt;Node7</title>
<path fill="none" stroke="midnightblue" d="M2346.64,-285.278C2354.14,-276.798 2365.37,-262.887 2372,-249 2380.51,-231.182 2385.57,-209.047 2388.3,-193.75"/>
<polygon fill="midnightblue" stroke="midnightblue" points="2391.8,-194.002 2389.95,-183.57 2384.89,-192.879 2391.8,-194.002"/>
</g>
<!-- Node48&#45;&gt;Node12 -->
<g id="edge64" class="edge"><title>Node48&#45;&gt;Node12</title>
<path fill="none" stroke="midnightblue" d="M2353.27,-285.312C2387.14,-264.861 2467.04,-209.953 2433,-165 2420.67,-148.716 2372.6,-136.716 2332.69,-129.307"/>
<polygon fill="midnightblue" stroke="midnightblue" points="2333.21,-125.844 2322.75,-127.523 2331.97,-132.734 2333.21,-125.844"/>
</g>
<!-- Node48&#45;&gt;Node24 -->
<g id="edge63" class="edge"><title>Node48&#45;&gt;Node24</title>
<path fill="none" stroke="midnightblue" d="M2337.61,-285.435C2336.21,-277.304 2333.99,-264.469 2332.16,-253.848"/>
<polygon fill="midnightblue" stroke="midnightblue" points="2335.59,-253.132 2330.44,-243.872 2328.69,-254.321 2335.59,-253.132"/>
</g>
<!-- Node54&#45;&gt;Node9 -->
<g id="edge92" class="edge"><title>Node54&#45;&gt;Node9</title>
<path fill="none" stroke="midnightblue" d="M1580.67,-400.379C1596.82,-388.06 1622.92,-363.582 1613,-340 1586.84,-277.802 1473.24,-268.643 1520,-220 1555.18,-183.406 2382.29,-186.204 2433,-184 2470.6,-182.366 2512.64,-180.378 2546.53,-178.735"/>
<polygon fill="midnightblue" stroke="midnightblue" points="2546.95,-182.219 2556.77,-178.238 2546.61,-175.227 2546.95,-182.219"/>
</g>
<!-- Node55 -->
<g id="node29" class="node"><title>Node55</title>
<g id="a_node29"><a xlink:href="../../d1/d76/Objective_8h.html" target="_top" xlink:title="Declaration file of the Objective class. ">
<polygon fill="white" stroke="red" points="914.256,-285.5 914.256,-303.5 1029.74,-303.5 1029.74,-285.5 914.256,-285.5"/>
<text text-anchor="middle" x="972" y="-291.5" font-family="Helvetica,sans-Serif" font-size="10.00">ocra/optim/Objective.h</text>
</a>
</g>
</g>
<!-- Node54&#45;&gt;Node55 -->
<g id="edge71" class="edge"><title>Node54&#45;&gt;Node55</title>
<path fill="none" stroke="midnightblue" d="M1526.54,-400.464C1420.01,-380.299 1141.56,-327.594 1024.76,-305.487"/>
<polygon fill="midnightblue" stroke="midnightblue" points="1025.12,-301.992 1014.64,-303.571 1023.81,-308.87 1025.12,-301.992"/>
</g>
<!-- Node66 -->
<g id="node35" class="node"><title>Node66</title>
<g id="a_node35"><a xlink:href="../../d3/dcf/Constraint_8h.html" target="_top" xlink:title="Declaration file of the Constraint class. ">
<polygon fill="white" stroke="red" points="1087.31,-225.5 1087.31,-243.5 1206.69,-243.5 1206.69,-225.5 1087.31,-225.5"/>
<text text-anchor="middle" x="1147" y="-231.5" font-family="Helvetica,sans-Serif" font-size="10.00">ocra/optim/Constraint.h</text>
</a>
</g>
</g>
<!-- Node54&#45;&gt;Node66 -->
<g id="edge87" class="edge"><title>Node54&#45;&gt;Node66</title>
<path fill="none" stroke="midnightblue" d="M1538.15,-400.431C1513.93,-392.875 1480.49,-379.613 1457,-359 1428.07,-333.61 1443.67,-306.879 1412,-285 1410.91,-284.244 1277.67,-259.588 1200.56,-245.366"/>
<polygon fill="midnightblue" stroke="midnightblue" points="1201,-241.888 1190.53,-243.516 1199.73,-248.772 1201,-241.888"/>
</g>
<!-- Node42 -->
<g id="node36" class="node"><title>Node42</title>
<polygon fill="white" stroke="#bfbfbf" points="1887.6,-340.5 1887.6,-358.5 1946.4,-358.5 1946.4,-340.5 1887.6,-340.5"/>
<text text-anchor="middle" x="1917" y="-346.5" font-family="Helvetica,sans-Serif" font-size="10.00">stdexcept</text>
</g>
<!-- Node54&#45;&gt;Node42 -->
<g id="edge93" class="edge"><title>Node54&#45;&gt;Node42</title>
<path fill="none" stroke="midnightblue" d="M1617.02,-400.496C1686.26,-388.957 1812.85,-367.858 1877.19,-357.135"/>
<polygon fill="midnightblue" stroke="midnightblue" points="1878.05,-360.541 1887.33,-355.444 1876.9,-353.636 1878.05,-360.541"/>
</g>
<!-- Node55&#45;&gt;Node36 -->
<g id="edge72" class="edge"><title>Node55&#45;&gt;Node36</title>
<path fill="none" stroke="midnightblue" d="M922.572,-285.47C866.311,-275.891 780.766,-259.817 770,-249 726.166,-204.96 733.597,-144.909 785,-110 839.951,-72.6813 1029.99,-66.0466 1131.65,-65.2469"/>
<polygon fill="midnightblue" stroke="midnightblue" points="1131.82,-68.746 1141.8,-65.1842 1131.78,-61.7462 1131.82,-68.746"/>
</g>
<!-- Node56 -->
<g id="node30" class="node"><title>Node56</title>
<g id="a_node30"><a xlink:href="../../df/df5/Function_8h.html" target="_top" xlink:title="Declaration file of the Function class. ">
<polygon fill="white" stroke="red" points="1056.92,-110.5 1056.92,-128.5 1169.08,-128.5 1169.08,-110.5 1056.92,-110.5"/>
<text text-anchor="middle" x="1113" y="-116.5" font-family="Helvetica,sans-Serif" font-size="10.00">ocra/optim/Function.h</text>
</a>
</g>
</g>
<!-- Node55&#45;&gt;Node56 -->
<g id="edge73" class="edge"><title>Node55&#45;&gt;Node56</title>
<path fill="none" stroke="midnightblue" d="M933.946,-285.46C861.709,-268.574 716.503,-225.886 770,-165 787.949,-144.571 952.243,-130.772 1046.78,-124.449"/>
<polygon fill="midnightblue" stroke="midnightblue" points="1047.08,-127.937 1056.83,-123.788 1046.62,-120.952 1047.08,-127.937"/>
</g>
<!-- Node55&#45;&gt;Node62 -->
<g id="edge77" class="edge"><title>Node55&#45;&gt;Node62</title>
<path fill="none" stroke="midnightblue" d="M965.743,-285.435C960.007,-278.043 951.256,-266.764 943.522,-256.795"/>
<polygon fill="midnightblue" stroke="midnightblue" points="946.247,-254.598 937.352,-248.843 940.717,-258.889 946.247,-254.598"/>
</g>
<!-- Node63 -->
<g id="node32" class="node"><title>Node63</title>
<g id="a_node32"><a xlink:href="../../dc/d8a/LinearFunction_8h.html" target="_top" xlink:title="Declaration file of the LinearFunction class. ">
<polygon fill="white" stroke="black" points="991.022,-165.5 991.022,-183.5 1130.98,-183.5 1130.98,-165.5 991.022,-165.5"/>
<text text-anchor="middle" x="1061" y="-171.5" font-family="Helvetica,sans-Serif" font-size="10.00">ocra/optim/LinearFunction.h</text>
</a>
</g>
</g>
<!-- Node55&#45;&gt;Node63 -->
<g id="edge85" class="edge"><title>Node55&#45;&gt;Node63</title>
<path fill="none" stroke="midnightblue" d="M932.792,-285.407C888.452,-274.485 825.638,-252.566 852,-220 868.275,-199.895 928.838,-188.489 980.608,-182.27"/>
<polygon fill="midnightblue" stroke="midnightblue" points="981.294,-185.715 990.829,-181.095 980.495,-178.76 981.294,-185.715"/>
</g>
<!-- Node55&#45;&gt;Node64 -->
<g id="edge86" class="edge"><title>Node55&#45;&gt;Node64</title>
<path fill="none" stroke="midnightblue" d="M933.269,-285.441C899.021,-277.436 852.853,-264.187 842,-249 830.085,-232.328 838.483,-208.385 846.725,-192.406"/>
<polygon fill="midnightblue" stroke="midnightblue" points="849.813,-194.056 851.654,-183.623 843.708,-190.631 849.813,-194.056"/>
</g>
<!-- Node56&#45;&gt;Node6 -->
<g id="edge76" class="edge"><title>Node56&#45;&gt;Node6</title>
<path fill="none" stroke="midnightblue" d="M1169.11,-113.151C1267.61,-103.762 1472,-84.279 1586.57,-73.3573"/>
<polygon fill="midnightblue" stroke="midnightblue" points="1587.07,-76.8255 1596.7,-72.3923 1586.41,-69.8571 1587.07,-76.8255"/>
</g>
<!-- Node56&#45;&gt;Node26 -->
<g id="edge75" class="edge"><title>Node56&#45;&gt;Node26</title>
<path fill="none" stroke="midnightblue" d="M1113.34,-110.343C1114.33,-97.0288 1118.16,-70.5567 1133,-55 1148.94,-38.2858 1171.69,-27.8158 1193.17,-21.2718"/>
<polygon fill="midnightblue" stroke="midnightblue" points="1194.24,-24.6068 1202.92,-18.5331 1192.35,-17.8676 1194.24,-24.6068"/>
</g>
<!-- Node56&#45;&gt;Node36 -->
<g id="edge74" class="edge"><title>Node56&#45;&gt;Node36</title>
<path fill="none" stroke="midnightblue" d="M1125.76,-110.45C1138.96,-102.123 1159.8,-88.9704 1175.54,-79.0394"/>
<polygon fill="midnightblue" stroke="midnightblue" points="1177.53,-81.9216 1184.12,-73.6253 1173.8,-76.0014 1177.53,-81.9216"/>
</g>
<!-- Node62&#45;&gt;Node63 -->
<g id="edge78" class="edge"><title>Node62&#45;&gt;Node63</title>
<path fill="none" stroke="midnightblue" d="M957.072,-220.484C979.791,-210.65 1010.75,-197.25 1032.96,-187.638"/>
<polygon fill="midnightblue" stroke="midnightblue" points="1034.4,-190.828 1042.19,-183.643 1031.62,-184.404 1034.4,-190.828"/>
</g>
<!-- Node62&#45;&gt;Node64 -->
<g id="edge81" class="edge"><title>Node62&#45;&gt;Node64</title>
<path fill="none" stroke="midnightblue" d="M911.116,-220.339C900.315,-211.39 886.012,-199.538 874.823,-190.267"/>
<polygon fill="midnightblue" stroke="midnightblue" points="876.916,-187.457 866.983,-183.771 872.45,-192.847 876.916,-187.457"/>
</g>
<!-- Node63&#45;&gt;Node12 -->
<g id="edge80" class="edge"><title>Node63&#45;&gt;Node12</title>
<path fill="none" stroke="midnightblue" d="M1131.07,-170.441C1349.7,-160.896 2016.61,-131.781 2217.28,-123.02"/>
<polygon fill="midnightblue" stroke="midnightblue" points="2217.48,-126.515 2227.32,-122.582 2217.18,-119.521 2217.48,-126.515"/>
</g>
<!-- Node63&#45;&gt;Node56 -->
<g id="edge79" class="edge"><title>Node63&#45;&gt;Node56</title>
<path fill="none" stroke="midnightblue" d="M1069.12,-165.219C1076.8,-157.394 1088.51,-145.463 1097.9,-135.892"/>
<polygon fill="midnightblue" stroke="midnightblue" points="1100.6,-138.139 1105.1,-128.55 1095.6,-133.236 1100.6,-138.139"/>
</g>
<!-- Node64&#45;&gt;Node12 -->
<g id="edge84" class="edge"><title>Node64&#45;&gt;Node12</title>
<path fill="none" stroke="midnightblue" d="M934.991,-167.792C950.558,-166.767 966.794,-165.778 982,-165 1458.95,-140.583 2035.57,-126.028 2217.29,-121.797"/>
<polygon fill="midnightblue" stroke="midnightblue" points="2217.51,-125.293 2227.42,-121.562 2217.35,-118.295 2217.51,-125.293"/>
</g>
<!-- Node64&#45;&gt;Node56 -->
<g id="edge82" class="edge"><title>Node64&#45;&gt;Node56</title>
<path fill="none" stroke="midnightblue" d="M895.881,-165.45C940.933,-156.123 1015.23,-140.742 1064.14,-130.615"/>
<polygon fill="midnightblue" stroke="midnightblue" points="1065.09,-133.993 1074.17,-128.538 1063.67,-127.138 1065.09,-133.993"/>
</g>
<!-- Node38 -->
<g id="node34" class="node"><title>Node38</title>
<g id="a_node34"><a xlink:href="../../de/df3/ocra__assert_8h.html" target="_top" xlink:title="ocra/optim/ocra_assert.h">
<polygon fill="white" stroke="red" points="793.976,-110.5 793.976,-128.5 920.024,-128.5 920.024,-110.5 793.976,-110.5"/>
<text text-anchor="middle" x="857" y="-116.5" font-family="Helvetica,sans-Serif" font-size="10.00">ocra/optim/ocra_assert.h</text>
</a>
</g>
</g>
<!-- Node64&#45;&gt;Node38 -->
<g id="edge83" class="edge"><title>Node64&#45;&gt;Node38</title>
<path fill="none" stroke="midnightblue" d="M857,-165.219C857,-158.177 857,-147.808 857,-138.828"/>
<polygon fill="midnightblue" stroke="midnightblue" points="860.5,-138.55 857,-128.55 853.5,-138.55 860.5,-138.55"/>
</g>
<!-- Node66&#45;&gt;Node12 -->
<g id="edge90" class="edge"><title>Node66&#45;&gt;Node12</title>
<path fill="none" stroke="midnightblue" d="M1206.85,-227.504C1402.85,-207.869 2023.95,-145.65 2217.1,-126.3"/>
<polygon fill="midnightblue" stroke="midnightblue" points="2217.72,-129.756 2227.32,-125.276 2217.02,-122.791 2217.72,-129.756"/>
</g>
<!-- Node66&#45;&gt;Node36 -->
<g id="edge88" class="edge"><title>Node66&#45;&gt;Node36</title>
<path fill="none" stroke="midnightblue" d="M1149.41,-225.397C1157.08,-199.618 1181.05,-119.088 1191.75,-83.1375"/>
<polygon fill="midnightblue" stroke="midnightblue" points="1195.11,-84.1046 1194.61,-73.5217 1188.41,-82.1078 1195.11,-84.1046"/>
</g>
<!-- Node66&#45;&gt;Node56 -->
<g id="edge89" class="edge"><title>Node66&#45;&gt;Node56</title>
<path fill="none" stroke="midnightblue" d="M1147.31,-225.241C1147.55,-212.118 1146.99,-185.854 1140,-165 1136.7,-155.147 1130.91,-145.167 1125.54,-137.161"/>
<polygon fill="midnightblue" stroke="midnightblue" points="1128.25,-134.924 1119.6,-128.797 1122.54,-138.977 1128.25,-134.924"/>
</g>
<!-- Node66&#45;&gt;Node63 -->
<g id="edge91" class="edge"><title>Node66&#45;&gt;Node63</title>
<path fill="none" stroke="midnightblue" d="M1135.04,-225.435C1121.26,-216.138 1098.36,-200.694 1081.67,-189.439"/>
<polygon fill="midnightblue" stroke="midnightblue" points="1083.38,-186.373 1073.13,-183.683 1079.47,-192.176 1083.38,-186.373"/>
</g>
<!-- Node70&#45;&gt;Node64 -->
<g id="edge96" class="edge"><title>Node70&#45;&gt;Node64</title>
<path fill="none" stroke="midnightblue" d="M1275.54,-395.34C1242.77,-372.159 1172.05,-322.911 1110,-285 1081.82,-267.782 1073.16,-266.249 1045,-249 1025.34,-236.96 1022.8,-229.934 1002,-220 970.436,-204.925 932.587,-193.513 903.474,-186.021"/>
<polygon fill="midnightblue" stroke="midnightblue" points="904.117,-182.574 893.566,-183.536 902.413,-189.364 904.117,-182.574"/>
</g>
<!-- Node71&#45;&gt;Node2 -->
<g id="edge122" class="edge"><title>Node71&#45;&gt;Node2</title>
<path fill="none" stroke="midnightblue" d="M774.495,-405.936C575.925,-397.957 38,-369.51 38,-295.5 38,-295.5 38,-295.5 38,-118.5 38,-59.0872 493.177,-21.682 616.5,-12.638"/>
<polygon fill="midnightblue" stroke="midnightblue" points="617.016,-16.1098 626.737,-11.8968 616.511,-9.12809 617.016,-16.1098"/>
</g>
<!-- Node71&#45;&gt;Node18 -->
<g id="edge119" class="edge"><title>Node71&#45;&gt;Node18</title>
<path fill="none" stroke="midnightblue" d="M888.184,-400.458C930.649,-390.319 987.468,-370.445 963,-340 954.1,-328.926 879.015,-314.539 822.972,-305.166"/>
<polygon fill="midnightblue" stroke="midnightblue" points="823.538,-301.712 813.101,-303.534 822.396,-308.618 823.538,-301.712"/>
</g>
<!-- Node71&#45;&gt;Node20 -->
<g id="edge117" class="edge"><title>Node71&#45;&gt;Node20</title>
<path fill="none" stroke="midnightblue" d="M919.328,-402.403C1049.2,-391.454 1320.92,-368.548 1455.69,-357.186"/>
<polygon fill="midnightblue" stroke="midnightblue" points="1456.27,-360.65 1465.94,-356.322 1455.68,-353.674 1456.27,-360.65"/>
</g>
<!-- Node71&#45;&gt;Node25 -->
<g id="edge118" class="edge"><title>Node71&#45;&gt;Node25</title>
<path fill="none" stroke="midnightblue" d="M911.431,-400.464C1078.43,-379.635 1523.8,-324.087 1689.62,-303.405"/>
<polygon fill="midnightblue" stroke="midnightblue" points="1690.18,-306.863 1699.67,-302.152 1689.31,-299.917 1690.18,-306.863"/>
</g>
<!-- Node71&#45;&gt;Node55 -->
<g id="edge112" class="edge"><title>Node71&#45;&gt;Node55</title>
<path fill="none" stroke="midnightblue" d="M774.559,-404.416C708.368,-398.019 625.886,-381.669 662,-340 677.628,-321.968 817.597,-307.741 904.026,-300.58"/>
<polygon fill="midnightblue" stroke="midnightblue" points="904.348,-304.065 914.03,-299.763 903.778,-297.088 904.348,-304.065"/>
</g>
<!-- Node71&#45;&gt;Node62 -->
<g id="edge114" class="edge"><title>Node71&#45;&gt;Node62</title>
<path fill="none" stroke="midnightblue" d="M891.318,-400.465C939.719,-388.881 1013.72,-362.119 1039,-304 1049.82,-279.118 1026.36,-262.565 998.16,-251.975"/>
<polygon fill="midnightblue" stroke="midnightblue" points="999.052,-248.58 988.458,-248.608 996.758,-255.193 999.052,-248.58"/>
</g>
<!-- Node71&#45;&gt;Node64 -->
<g id="edge113" class="edge"><title>Node71&#45;&gt;Node64</title>
<path fill="none" stroke="midnightblue" d="M774.425,-408.977C682.372,-407.854 531.318,-399.648 496,-359 407.442,-257.077 654.921,-204.806 784.092,-185.051"/>
<polygon fill="midnightblue" stroke="midnightblue" points="784.947,-188.462 794.317,-183.517 783.909,-181.539 784.947,-188.462"/>
</g>
<!-- Node72 -->
<g id="node39" class="node"><title>Node72</title>
<g id="a_node39"><a xlink:href="../../db/dc5/Solver_8h.html" target="_top" xlink:title="Declaration file of the Solver class. ">
<polygon fill="white" stroke="red" points="852.2,-340.5 852.2,-358.5 953.8,-358.5 953.8,-340.5 852.2,-340.5"/>
<text text-anchor="middle" x="903" y="-346.5" font-family="Helvetica,sans-Serif" font-size="10.00">ocra/optim/Solver.h</text>
</a>
</g>
</g>
<!-- Node71&#45;&gt;Node72 -->
<g id="edge101" class="edge"><title>Node71&#45;&gt;Node72</title>
<path fill="none" stroke="midnightblue" d="M854.787,-400.435C863.299,-391.619 877.149,-377.274 887.825,-366.217"/>
<polygon fill="midnightblue" stroke="midnightblue" points="890.489,-368.497 894.917,-358.872 885.453,-363.635 890.489,-368.497"/>
</g>
<!-- Node73 -->
<g id="node40" class="node"><title>Node73</title>
<g id="a_node40"><a xlink:href="../../d4/d54/MergedVariable_8h.html" target="_top" xlink:title="ocra/optim/MergedVariable.h">
<polygon fill="white" stroke="red" points="198.169,-165.5 198.169,-183.5 341.831,-183.5 341.831,-165.5 198.169,-165.5"/>
<text text-anchor="middle" x="270" y="-171.5" font-family="Helvetica,sans-Serif" font-size="10.00">ocra/optim/MergedVariable.h</text>
</a>
</g>
</g>
<!-- Node71&#45;&gt;Node73 -->
<g id="edge115" class="edge"><title>Node71&#45;&gt;Node73</title>
<path fill="none" stroke="midnightblue" d="M774.759,-403.374C700.119,-397.006 580.658,-383.813 480,-359 410.652,-341.905 387.019,-345.656 329,-304 303.571,-285.743 298.278,-277.349 285,-249 276.724,-231.331 272.998,-209.171 271.33,-193.827"/>
<polygon fill="midnightblue" stroke="midnightblue" points="274.793,-193.257 270.415,-183.609 267.821,-193.882 274.793,-193.257"/>
</g>
<!-- Node79 -->
<g id="node41" class="node"><title>Node79</title>
<g id="a_node41"><a xlink:href="../../db/d1f/ObjQLD_8h.html" target="_top" xlink:title="Declaration file of the ObjQLD class. This class should be merged with ocra::ObjQLD. It has been created to have a cml&#45;free solver. ">
<polygon fill="white" stroke="red" points="505.037,-340.5 505.037,-358.5 614.963,-358.5 614.963,-340.5 505.037,-340.5"/>
<text text-anchor="middle" x="560" y="-346.5" font-family="Helvetica,sans-Serif" font-size="10.00">ocra/optim/ObjQLD.h</text>
</a>
</g>
</g>
<!-- Node71&#45;&gt;Node79 -->
<g id="edge116" class="edge"><title>Node71&#45;&gt;Node79</title>
<path fill="none" stroke="midnightblue" d="M807.395,-400.496C755.86,-390.081 665.792,-371.879 609.717,-360.547"/>
<polygon fill="midnightblue" stroke="midnightblue" points="610.154,-357.065 599.659,-358.515 608.767,-363.926 610.154,-357.065"/>
</g>
<!-- Node80 -->
<g id="node42" class="node"><title>Node80</title>
<g id="a_node42"><a xlink:href="../../d8/d25/QuadProg_09_09_8h.html" target="_top" xlink:title="ocra/optim/QuadProg++.h">
<polygon fill="white" stroke="black" points="1200.47,-285.5 1200.47,-303.5 1331.53,-303.5 1331.53,-285.5 1200.47,-285.5"/>
<text text-anchor="middle" x="1266" y="-291.5" font-family="Helvetica,sans-Serif" font-size="10.00">ocra/optim/QuadProg++.h</text>
</a>
</g>
</g>
<!-- Node71&#45;&gt;Node80 -->
<g id="edge120" class="edge"><title>Node71&#45;&gt;Node80</title>
<path fill="none" stroke="midnightblue" d="M889.606,-400.445C935.086,-391.54 1009.11,-376.166 1072,-359 1129.9,-343.197 1196.1,-320.51 1234.28,-306.965"/>
<polygon fill="midnightblue" stroke="midnightblue" points="1235.57,-310.22 1243.81,-303.565 1233.22,-303.627 1235.57,-310.22"/>
</g>
<!-- Node81 -->
<g id="node43" class="node"><title>Node81</title>
<polygon fill="white" stroke="#bfbfbf" points="670.542,-340.5 670.542,-358.5 735.458,-358.5 735.458,-340.5 670.542,-340.5"/>
<text text-anchor="middle" x="703" y="-346.5" font-family="Helvetica,sans-Serif" font-size="10.00">Eigen/SVD</text>
</g>
<!-- Node71&#45;&gt;Node81 -->
<g id="edge123" class="edge"><title>Node71&#45;&gt;Node81</title>
<path fill="none" stroke="midnightblue" d="M826.977,-400.435C802.506,-390.579 760.881,-373.813 732.681,-362.455"/>
<polygon fill="midnightblue" stroke="midnightblue" points="733.9,-359.173 723.317,-358.683 731.285,-365.666 733.9,-359.173"/>
</g>
<!-- Node82 -->
<g id="node44" class="node"><title>Node82</title>
<polygon fill="white" stroke="#bfbfbf" points="753.478,-340.5 753.478,-358.5 834.522,-358.5 834.522,-340.5 753.478,-340.5"/>
<text text-anchor="middle" x="794" y="-346.5" font-family="Helvetica,sans-Serif" font-size="10.00">qpOASES.hpp</text>
</g>
<!-- Node71&#45;&gt;Node82 -->
<g id="edge124" class="edge"><title>Node71&#45;&gt;Node82</title>
<path fill="none" stroke="midnightblue" d="M839.631,-400.435C831.652,-391.704 818.72,-377.552 808.657,-366.54"/>
<polygon fill="midnightblue" stroke="midnightblue" points="810.98,-363.893 801.65,-358.872 805.812,-368.615 810.98,-363.893"/>
</g>
<!-- Node72&#45;&gt;Node2 -->
<g id="edge111" class="edge"><title>Node72&#45;&gt;Node2</title>
<path fill="none" stroke="midnightblue" d="M852.169,-341.038C849.408,-340.676 846.671,-340.327 844,-340 765.076,-330.329 558.251,-341.248 488,-304 459.846,-289.072 455.127,-278.038 442,-249 416.519,-192.636 409.035,-157.212 449,-110 493.757,-57.1266 573.51,-29.4065 616.886,-17.6138"/>
<polygon fill="midnightblue" stroke="midnightblue" points="617.79,-20.9951 626.579,-15.0799 616.019,-14.2227 617.79,-20.9951"/>
</g>
<!-- Node72&#45;&gt;Node6 -->
<g id="edge109" class="edge"><title>Node72&#45;&gt;Node6</title>
<path fill="none" stroke="midnightblue" d="M851.907,-340.6C780.891,-329.452 660.084,-309.814 652,-304 619.815,-280.855 603.393,-255.005 622,-220 663.022,-142.828 702.094,-137.656 785,-110 859.721,-85.0746 1381.83,-71.5299 1586.74,-67.125"/>
<polygon fill="midnightblue" stroke="midnightblue" points="1586.92,-70.6221 1596.84,-66.9097 1586.77,-63.6237 1586.92,-70.6221"/>
</g>
<!-- Node72&#45;&gt;Node18 -->
<g id="edge110" class="edge"><title>Node72&#45;&gt;Node18</title>
<path fill="none" stroke="midnightblue" d="M881.433,-340.45C857.663,-331.578 819.217,-317.229 792.17,-307.134"/>
<polygon fill="midnightblue" stroke="midnightblue" points="793.362,-303.843 782.77,-303.625 790.915,-310.401 793.362,-303.843"/>
</g>
<!-- Node72&#45;&gt;Node22 -->
<g id="edge102" class="edge"><title>Node72&#45;&gt;Node22</title>
<path fill="none" stroke="midnightblue" d="M851.979,-341.094C793.095,-332.029 703.016,-316.36 693,-304 687.684,-297.439 687.197,-291.134 693,-285 707.185,-270.006 1314.84,-245.711 1518.93,-237.959"/>
<polygon fill="midnightblue" stroke="midnightblue" points="1519.35,-241.446 1529.21,-237.57 1519.08,-234.451 1519.35,-241.446"/>
</g>
<!-- Node72&#45;&gt;Node36 -->
<g id="edge103" class="edge"><title>Node72&#45;&gt;Node36</title>
<path fill="none" stroke="midnightblue" d="M852.154,-341.157C849.396,-340.764 846.664,-340.376 844,-340 753.457,-327.21 446,-326.942 446,-235.5 446,-235.5 446,-235.5 446,-173.5 446,-143.329 445.716,-127.904 470,-110 522.526,-71.2755 963.049,-66.0681 1131.69,-65.5035"/>
<polygon fill="midnightblue" stroke="midnightblue" points="1131.92,-69.0029 1141.91,-65.4738 1131.9,-62.0029 1131.92,-69.0029"/>
</g>
<!-- Node72&#45;&gt;Node55 -->
<g id="edge107" class="edge"><title>Node72&#45;&gt;Node55</title>
<path fill="none" stroke="midnightblue" d="M913.48,-340.45C924.017,-332.357 940.489,-319.704 953.276,-309.882"/>
<polygon fill="midnightblue" stroke="midnightblue" points="955.623,-312.493 961.422,-303.625 951.359,-306.941 955.623,-312.493"/>
</g>
<!-- Node72&#45;&gt;Node66 -->
<g id="edge108" class="edge"><title>Node72&#45;&gt;Node66</title>
<path fill="none" stroke="midnightblue" d="M851.94,-340.845C782.5,-330.191 666.144,-311.372 660,-304 654.593,-297.513 654.339,-291.266 660,-285 663.462,-281.169 942.594,-254.603 1076.65,-242.047"/>
<polygon fill="midnightblue" stroke="midnightblue" points="1077.19,-245.511 1086.82,-241.095 1076.54,-238.542 1077.19,-245.511"/>
</g>
<!-- Node72&#45;&gt;Node73 -->
<g id="edge104" class="edge"><title>Node72&#45;&gt;Node73</title>
<path fill="none" stroke="midnightblue" d="M852.18,-340.95C849.415,-340.611 846.675,-340.291 844,-340 735.899,-328.24 449.968,-358.719 356,-304 312.803,-278.846 286.946,-222.297 276.058,-193.335"/>
<polygon fill="midnightblue" stroke="midnightblue" points="279.278,-191.944 272.614,-183.708 272.688,-194.303 279.278,-191.944"/>
</g>
<!-- Node73&#45;&gt;Node2 -->
<g id="edge106" class="edge"><title>Node73&#45;&gt;Node2</title>
<path fill="none" stroke="midnightblue" d="M270.614,-165.235C272.723,-143.265 281.708,-83.1777 318,-55 364.119,-19.1931 543.3,-12.1904 616.046,-10.827"/>
<polygon fill="midnightblue" stroke="midnightblue" points="616.434,-14.3212 626.375,-10.6584 616.32,-7.32213 616.434,-14.3212"/>
</g>
<!-- Node73&#45;&gt;Node36 -->
<g id="edge105" class="edge"><title>Node73&#45;&gt;Node36</title>
<path fill="none" stroke="midnightblue" d="M290.606,-165.49C313.447,-156.604 351.374,-141.825 384,-129 405.353,-120.606 409.597,-114.951 432,-110 564.593,-80.6965 972.181,-69.8306 1131.87,-66.6309"/>
<polygon fill="midnightblue" stroke="midnightblue" points="1132.09,-70.1273 1142.02,-66.4311 1131.96,-63.1286 1132.09,-70.1273"/>
</g>
<!-- Node80&#45;&gt;Node7 -->
<g id="edge121" class="edge"><title>Node80&#45;&gt;Node7</title>
<path fill="none" stroke="midnightblue" d="M1281.11,-285.391C1311.73,-269.42 1383.77,-234.215 1449,-220 1623.75,-181.919 2186.33,-176.426 2347.49,-175.633"/>
<polygon fill="midnightblue" stroke="midnightblue" points="2347.97,-179.131 2357.95,-175.586 2347.94,-172.131 2347.97,-179.131"/>
</g>
<!-- Node85&#45;&gt;Node63 -->
<g id="edge126" class="edge"><title>Node85&#45;&gt;Node63</title>
<path fill="none" stroke="midnightblue" d="M2340.21,-395.36C2361.03,-377.326 2396.12,-342.705 2410,-304 2423.83,-265.429 2407.19,-240.991 2372,-220 2319.08,-188.432 1418.3,-178.433 1141.35,-176.097"/>
<polygon fill="midnightblue" stroke="midnightblue" points="1141.01,-172.595 1130.98,-176.011 1140.95,-179.594 1141.01,-172.595"/>
</g>
<!-- Node103&#45;&gt;Node14 -->
<g id="edge136" class="edge"><title>Node103&#45;&gt;Node14</title>
<path fill="none" stroke="midnightblue" d="M1263.28,-517.626C1382.41,-507.224 1628.62,-485.726 1742.63,-475.771"/>
<polygon fill="midnightblue" stroke="midnightblue" points="1743.26,-479.23 1752.92,-474.873 1742.65,-472.256 1743.26,-479.23"/>
</g>
<!-- Node103&#45;&gt;Node19 -->
<g id="edge137" class="edge"><title>Node103&#45;&gt;Node19</title>
<path fill="none" stroke="midnightblue" d="M1263.38,-522.786C1386.49,-520.669 1655.76,-512.275 1880,-479 1973.16,-465.176 2080.41,-436.852 2135.71,-421.305"/>
<polygon fill="midnightblue" stroke="midnightblue" points="2136.75,-424.649 2145.42,-418.558 2134.84,-417.914 2136.75,-424.649"/>
</g>
<!-- Node103&#45;&gt;Node21 -->
<g id="edge138" class="edge"><title>Node103&#45;&gt;Node21</title>
<path fill="none" stroke="midnightblue" d="M1194.22,-515.37C1189.76,-492.534 1180.74,-427.372 1215,-395 1247.27,-364.503 1568.95,-364.608 1613,-359 1732.84,-343.743 1872.51,-319.03 1946.59,-305.368"/>
<polygon fill="midnightblue" stroke="midnightblue" points="1947.4,-308.777 1956.6,-303.515 1946.13,-301.894 1947.4,-308.777"/>
</g>
<!-- Node103&#45;&gt;Node54 -->
<g id="edge133" class="edge"><title>Node103&#45;&gt;Node54</title>
<path fill="none" stroke="midnightblue" d="M1222.53,-515.464C1288.02,-495.623 1457.49,-444.282 1532.43,-421.578"/>
<polygon fill="midnightblue" stroke="midnightblue" points="1533.8,-424.82 1542.36,-418.571 1531.77,-418.12 1533.8,-424.82"/>
</g>
<!-- Node103&#45;&gt;Node62 -->
<g id="edge134" class="edge"><title>Node103&#45;&gt;Node62</title>
<path fill="none" stroke="midnightblue" d="M1193.36,-515.198C1182.26,-481.534 1136.1,-353.721 1055,-285 1037.42,-270.107 1014.86,-259.403 993.593,-251.847"/>
<polygon fill="midnightblue" stroke="midnightblue" points="994.528,-248.469 983.933,-248.594 992.293,-255.103 994.528,-248.469"/>
</g>
<!-- Node103&#45;&gt;Node70 -->
<g id="edge135" class="edge"><title>Node103&#45;&gt;Node70</title>
<path fill="none" stroke="midnightblue" d="M1203.05,-515.373C1218.18,-497.93 1254.16,-456.44 1276.06,-431.188"/>
<polygon fill="midnightblue" stroke="midnightblue" points="1278.72,-433.459 1282.63,-423.611 1273.43,-428.873 1278.72,-433.459"/>
</g>
<!-- Node103&#45;&gt;Node71 -->
<g id="edge139" class="edge"><title>Node103&#45;&gt;Node71</title>
<path fill="none" stroke="midnightblue" d="M1171.18,-515.464C1110.03,-495.664 951.984,-444.492 881.646,-421.718"/>
<polygon fill="midnightblue" stroke="midnightblue" points="882.518,-418.321 871.926,-418.571 880.362,-424.981 882.518,-418.321"/>
</g>
<!-- Node104&#45;&gt;Node3 -->
<g id="edge147" class="edge"><title>Node104&#45;&gt;Node3</title>
<path fill="none" stroke="midnightblue" d="M155.867,-225.396C159.602,-211.027 169.377,-181.086 189,-165 258.64,-107.913 295.489,-126.569 384,-110 802.218,-31.7112 913.467,-59.6759 1337,-19 1355.55,-17.2186 1376.3,-15.2151 1392.99,-13.6008"/>
<polygon fill="midnightblue" stroke="midnightblue" points="1393.69,-17.0495 1403.3,-12.6025 1393.01,-10.082 1393.69,-17.0495"/>
</g>
<!-- Node104&#45;&gt;Node63 -->
<g id="edge145" class="edge"><title>Node104&#45;&gt;Node63</title>
<path fill="none" stroke="midnightblue" d="M242.285,-228.256C388.31,-219.517 689.321,-201.23 944,-184 955.827,-183.2 968.323,-182.324 980.574,-181.449"/>
<polygon fill="midnightblue" stroke="midnightblue" points="981.063,-184.923 990.787,-180.715 980.562,-177.941 981.063,-184.923"/>
</g>
<!-- Node104&#45;&gt;Node73 -->
<g id="edge146" class="edge"><title>Node104&#45;&gt;Node73</title>
<path fill="none" stroke="midnightblue" d="M170.129,-225.435C189.412,-215.794 221.916,-199.542 244.587,-188.206"/>
<polygon fill="midnightblue" stroke="midnightblue" points="246.255,-191.286 253.634,-183.683 243.124,-185.025 246.255,-191.286"/>
</g>
<!-- Node105&#45;&gt;Node3 -->
<g id="edge155" class="edge"><title>Node105&#45;&gt;Node3</title>
<path fill="none" stroke="midnightblue" d="M2568.63,-576.652C2713.31,-572.09 3054.19,-558.825 3100,-534 3228.21,-464.529 3173,-232.336 3173,-175.5 3173,-175.5 3173,-175.5 3173,-118.5 3173,-89.0415 3177.4,-72.8957 3154,-55 3118.95,-28.1919 1689.55,-13.0875 1456.86,-10.8042"/>
<polygon fill="midnightblue" stroke="midnightblue" points="1456.73,-7.30283 1446.7,-10.7052 1456.66,-14.3025 1456.73,-7.30283"/>
</g>
<!-- Node105&#45;&gt;Node5 -->
<g id="edge166" class="edge"><title>Node105&#45;&gt;Node5</title>
<path fill="none" stroke="midnightblue" d="M2440.21,-570.45C2363.52,-560.772 2235.17,-544.577 2155.29,-534.496"/>
<polygon fill="midnightblue" stroke="midnightblue" points="2155.67,-531.016 2145.31,-533.237 2154.79,-537.961 2155.67,-531.016"/>
</g>
<!-- Node105&#45;&gt;Node6 -->
<g id="edge152" class="edge"><title>Node105&#45;&gt;Node6</title>
<path fill="none" stroke="midnightblue" d="M2567.92,-570.5C2663.42,-558.477 2832.9,-536.848 2839,-534 2974.94,-470.498 3043.21,-346.803 2963,-220 2916.3,-146.174 2628.1,-112.895 2607,-110 2442.88,-87.4846 1948.25,-72.674 1751.25,-67.5237"/>
<polygon fill="midnightblue" stroke="midnightblue" points="1751.34,-64.0249 1741.25,-67.2639 1751.16,-71.0225 1751.34,-64.0249"/>
</g>
<!-- Node105&#45;&gt;Node9 -->
<g id="edge154" class="edge"><title>Node105&#45;&gt;Node9</title>
<path fill="none" stroke="midnightblue" d="M2568.63,-573.53C2677.33,-563.374 2885,-535.471 2885,-470.5 2885,-470.5 2885,-470.5 2885,-408.5 2885,-285.31 2722.18,-213.43 2648.03,-187.081"/>
<polygon fill="midnightblue" stroke="midnightblue" points="2648.77,-183.635 2638.18,-183.664 2646.48,-190.248 2648.77,-183.635"/>
</g>
<!-- Node105&#45;&gt;Node13 -->
<g id="edge156" class="edge"><title>Node105&#45;&gt;Node13</title>
<path fill="none" stroke="midnightblue" d="M2568.66,-576.99C2708.94,-573.208 3031.96,-561.586 3073,-534 3123.97,-499.738 3135,-471.917 3135,-410.5 3135,-410.5 3135,-410.5 3135,-173.5 3135,-141.527 3128.05,-104.798 3123.31,-83.463"/>
<polygon fill="midnightblue" stroke="midnightblue" points="3126.69,-82.5227 3121.03,-73.5683 3119.87,-84.0998 3126.69,-82.5227"/>
</g>
<!-- Node105&#45;&gt;Node14 -->
<g id="edge165" class="edge"><title>Node105&#45;&gt;Node14</title>
<path fill="none" stroke="midnightblue" d="M2439.21,-576.77C2344.87,-573.315 2164.53,-563.175 2014,-534 1948.74,-521.351 1874.85,-496.615 1834.12,-482.03"/>
<polygon fill="midnightblue" stroke="midnightblue" points="1835.1,-478.662 1824.51,-478.554 1832.72,-485.245 1835.1,-478.662"/>
</g>
<!-- Node105&#45;&gt;Node19 -->
<g id="edge164" class="edge"><title>Node105&#45;&gt;Node19</title>
<path fill="none" stroke="midnightblue" d="M2479.59,-570.454C2456.29,-562.411 2420.46,-549.094 2391,-534 2336.91,-506.287 2329.05,-489.665 2276,-460 2251.19,-446.123 2221.88,-432.271 2200.88,-422.765"/>
<polygon fill="midnightblue" stroke="midnightblue" points="2202.14,-419.493 2191.58,-418.592 2199.27,-425.879 2202.14,-419.493"/>
</g>
<!-- Node105&#45;&gt;Node20 -->
<g id="edge163" class="edge"><title>Node105&#45;&gt;Node20</title>
<path fill="none" stroke="midnightblue" d="M2502.69,-570.369C2497.41,-540.634 2474.76,-437.332 2409,-395 2375.9,-373.694 1823.57,-357.72 1614.41,-352.409"/>
<polygon fill="midnightblue" stroke="midnightblue" points="1614.2,-348.902 1604.11,-352.149 1614.02,-355.9 1614.2,-348.902"/>
</g>
<!-- Node105&#45;&gt;Node21 -->
<g id="edge162" class="edge"><title>Node105&#45;&gt;Node21</title>
<path fill="none" stroke="midnightblue" d="M2568.45,-571.758C2592.43,-565.76 2617.34,-554.612 2632,-534 2672.8,-476.618 2619.64,-425.127 2556,-395 2511.88,-374.112 2200.46,-325.673 2063.44,-305.061"/>
<polygon fill="midnightblue" stroke="midnightblue" points="2063.89,-301.591 2053.49,-303.567 2062.86,-308.513 2063.89,-301.591"/>
</g>
<!-- Node105&#45;&gt;Node24 -->
<g id="edge153" class="edge"><title>Node105&#45;&gt;Node24</title>
<path fill="none" stroke="midnightblue" d="M2568.57,-573.116C2621.59,-567.198 2690.66,-555.527 2708,-534 2746.75,-485.886 2748.02,-442.064 2708,-395 2643.54,-319.185 2576.02,-403.493 2487,-359 2444.54,-337.779 2447.58,-313.99 2410,-285 2392,-271.116 2369.88,-257.824 2353.31,-248.516"/>
<polygon fill="midnightblue" stroke="midnightblue" points="2354.71,-245.292 2344.27,-243.522 2351.33,-251.419 2354.71,-245.292"/>
</g>
<!-- Node105&#45;&gt;Node25 -->
<g id="edge161" class="edge"><title>Node105&#45;&gt;Node25</title>
<path fill="none" stroke="midnightblue" d="M2506.87,-570.43C2509.84,-561.613 2514.28,-547.009 2516,-534 2517.11,-525.629 2516.98,-523.388 2516,-515 2509.37,-458.107 2515.83,-427.976 2469,-395 2442.34,-376.226 1986.86,-322.333 1816.56,-302.735"/>
<polygon fill="midnightblue" stroke="midnightblue" points="1816.82,-299.242 1806.49,-301.578 1816.02,-306.197 1816.82,-299.242"/>
</g>
<!-- Node105&#45;&gt;Node55 -->
<g id="edge160" class="edge"><title>Node105&#45;&gt;Node55</title>
<path fill="none" stroke="midnightblue" d="M2476.66,-570.417C2346.77,-532.14 1791.09,-369.732 1613,-340 1504.38,-321.866 1182.04,-305.235 1040.24,-298.574"/>
<polygon fill="midnightblue" stroke="midnightblue" points="1040.09,-295.063 1029.94,-298.093 1039.77,-302.056 1040.09,-295.063"/>
</g>
<!-- Node105&#45;&gt;Node66 -->
<g id="edge157" class="edge"><title>Node105&#45;&gt;Node66</title>
<path fill="none" stroke="midnightblue" d="M2568.88,-573.899C2617.33,-567.463 2672,-552.024 2652,-515 2605.78,-429.423 2560.42,-428.206 2469,-395 2141.78,-276.143 2036.6,-345.969 1691,-304 1520.67,-283.315 1320.51,-257.8 1216.97,-244.511"/>
<polygon fill="midnightblue" stroke="midnightblue" points="1217.31,-241.026 1206.95,-243.224 1216.42,-247.969 1217.31,-241.026"/>
</g>
<!-- Node105&#45;&gt;Node42 -->
<g id="edge167" class="edge"><title>Node105&#45;&gt;Node42</title>
<path fill="none" stroke="midnightblue" d="M2504.12,-570.155C2504.05,-540.564 2499.43,-440.013 2442,-395 2422.93,-380.057 2075.87,-359.37 1956.75,-352.68"/>
<polygon fill="midnightblue" stroke="midnightblue" points="1956.78,-349.177 1946.6,-352.113 1956.39,-356.166 1956.78,-349.177"/>
</g>
<!-- Node105&#45;&gt;Node70 -->
<g id="edge159" class="edge"><title>Node105&#45;&gt;Node70</title>
<path fill="none" stroke="midnightblue" d="M2439.43,-577.822C2230.07,-574.848 1572.34,-559.19 1378,-479 1352.14,-468.329 1327.98,-446.949 1312.28,-430.898"/>
<polygon fill="midnightblue" stroke="midnightblue" points="1314.7,-428.362 1305.27,-423.517 1309.62,-433.18 1314.7,-428.362"/>
</g>
<!-- Node105&#45;&gt;Node85 -->
<g id="edge158" class="edge"><title>Node105&#45;&gt;Node85</title>
<path fill="none" stroke="midnightblue" d="M2480.38,-570.446C2461.09,-563.063 2433.86,-550.734 2414,-534 2379.3,-504.77 2350.8,-459.486 2335.7,-432.637"/>
<polygon fill="midnightblue" stroke="midnightblue" points="2338.64,-430.72 2330.76,-423.643 2332.51,-434.092 2338.64,-430.72"/>
</g>
<!-- Node106&#45;&gt;Node4 -->
<g id="edge170" class="edge"><title>Node106&#45;&gt;Node4</title>
<path fill="none" stroke="midnightblue" d="M297.028,-460.261C300.276,-437.7 312.371,-374.32 349,-340 369.467,-320.823 543.3,-268.747 620.878,-246.174"/>
<polygon fill="midnightblue" stroke="midnightblue" points="622.094,-249.466 630.722,-243.318 620.143,-242.743 622.094,-249.466"/>
</g>
</g>
</svg>
