<?xml version="1.0" encoding="UTF-8" standalone="no"?>
<!DOCTYPE svg PUBLIC "-//W3C//DTD SVG 1.1//EN"
 "http://www.w3.org/Graphics/SVG/1.1/DTD/svg11.dtd">
<!-- Generated by graphviz version 2.38.0 (20140413.2041)
 -->
<!-- Title: ocra::Function Pages: 1 -->
<svg width="1192pt" height="632pt"
 viewBox="0.00 0.00 1192.29 632.00" xmlns="http://www.w3.org/2000/svg" xmlns:xlink="http://www.w3.org/1999/xlink">
<g id="graph0" class="graph" transform="scale(1 1) rotate(0) translate(4 628)">
<title>ocra::Function</title>
<polygon fill="white" stroke="none" points="-4,4 -4,-628 1188.29,-628 1188.29,4 -4,4"/>
<!-- Node0 -->
<g id="node1" class="node"><title>Node0</title>
<polygon fill="#bfbfbf" stroke="black" points="539.428,-287.5 539.428,-305.5 618.792,-305.5 618.792,-287.5 539.428,-287.5"/>
<text text-anchor="middle" x="579.11" y="-293.5" font-family="Helvetica,sans-Serif" font-size="10.00">ocra::Function</text>
</g>
<!-- Node15 -->
<g id="node16" class="node"><title>Node15</title>
<g id="a_node16"><a xlink:href="../../d1/d44/classFunction1.html" target="_top" xlink:title="Function1">
<polygon fill="white" stroke="black" points="689.809,-472.5 689.809,-490.5 749.725,-490.5 749.725,-472.5 689.809,-472.5"/>
<text text-anchor="middle" x="719.767" y="-478.5" font-family="Helvetica,sans-Serif" font-size="10.00">Function1</text>
</a>
</g>
</g>
<!-- Node0&#45;&gt;Node15 -->
<g id="edge15" class="edge"><title>Node0&#45;&gt;Node15</title>
<path fill="none" stroke="midnightblue" d="M583.377,-315.776C590.25,-350.327 609.475,-422.885 654.792,-462.5 664.475,-470.964 677.788,-475.661 689.764,-478.265"/>
<polygon fill="midnightblue" stroke="midnightblue" points="586.759,-314.816 581.5,-305.618 579.875,-316.088 586.759,-314.816"/>
</g>
<!-- Node16 -->
<g id="node17" class="node"><title>Node16</title>
<g id="a_node17"><a xlink:href="../../d6/d7e/classFunction2.html" target="_top" xlink:title="Function2">
<polygon fill="white" stroke="black" points="689.809,-435.5 689.809,-453.5 749.725,-453.5 749.725,-435.5 689.809,-435.5"/>
<text text-anchor="middle" x="719.767" y="-441.5" font-family="Helvetica,sans-Serif" font-size="10.00">Function2</text>
</a>
</g>
</g>
<!-- Node0&#45;&gt;Node16 -->
<g id="edge16" class="edge"><title>Node0&#45;&gt;Node16</title>
<path fill="none" stroke="midnightblue" d="M585.972,-315.363C595.692,-343.529 617.827,-396.373 654.792,-425.5 664.712,-433.316 677.782,-437.921 689.522,-440.632"/>
<polygon fill="midnightblue" stroke="midnightblue" points="589.199,-313.972 582.752,-305.565 582.549,-316.158 589.199,-313.972"/>
</g>
<!-- Node17 -->
<g id="node18" class="node"><title>Node17</title>
<g id="a_node18"><a xlink:href="../../d9/d4a/classFunction3.html" target="_top" xlink:title="Function3">
<polygon fill="white" stroke="black" points="689.809,-398.5 689.809,-416.5 749.725,-416.5 749.725,-398.5 689.809,-398.5"/>
<text text-anchor="middle" x="719.767" y="-404.5" font-family="Helvetica,sans-Serif" font-size="10.00">Function3</text>
</a>
</g>
</g>
<!-- Node0&#45;&gt;Node17 -->
<g id="edge17" class="edge"><title>Node0&#45;&gt;Node17</title>
<path fill="none" stroke="midnightblue" d="M590.061,-314.389C602.538,-335.2 625.845,-369.168 654.792,-388.5 665.198,-395.449 678.21,-399.917 689.777,-402.76"/>
<polygon fill="midnightblue" stroke="midnightblue" points="593.011,-312.499 584.968,-305.602 586.954,-316.009 593.011,-312.499"/>
</g>
<!-- Node18 -->
<g id="node19" class="node"><title>Node18</title>
<g id="a_node19"><a xlink:href="../../db/d8c/classMyFunction.html" target="_top" xlink:title="MyFunction">
<polygon fill="white" stroke="black" points="685.925,-361.5 685.925,-379.5 753.609,-379.5 753.609,-361.5 685.925,-361.5"/>
<text text-anchor="middle" x="719.767" y="-367.5" font-family="Helvetica,sans-Serif" font-size="10.00">MyFunction</text>
</a>
</g>
</g>
<!-- Node0&#45;&gt;Node18 -->
<g id="edge18" class="edge"><title>Node0&#45;&gt;Node18</title>
<path fill="none" stroke="midnightblue" d="M597.635,-312.156C612.085,-324.357 633.582,-340.946 654.792,-351.5 664.439,-356.3 675.52,-360.12 685.719,-363.039"/>
<polygon fill="midnightblue" stroke="midnightblue" points="599.853,-309.446 589.998,-305.557 595.277,-314.743 599.853,-309.446"/>
</g>
<!-- Node19 -->
<g id="node20" class="node"><title>Node19</title>
<g id="a_node20"><a xlink:href="../../db/da4/classocra_1_1DotProductFunction.html" target="_top" xlink:title="DotProductFunction class. ">
<polygon fill="white" stroke="black" points="655.073,-324.5 655.073,-342.5 784.461,-342.5 784.461,-324.5 655.073,-324.5"/>
<text text-anchor="middle" x="719.767" y="-330.5" font-family="Helvetica,sans-Serif" font-size="10.00">ocra::DotProductFunction</text>
</a>
</g>
</g>
<!-- Node0&#45;&gt;Node19 -->
<g id="edge19" class="edge"><title>Node0&#45;&gt;Node19</title>
<path fill="none" stroke="midnightblue" d="M623.697,-308.131C643.391,-313.386 666.315,-319.503 684.717,-324.414"/>
<polygon fill="midnightblue" stroke="midnightblue" points="624.594,-304.748 614.029,-305.551 622.789,-311.511 624.594,-304.748"/>
</g>
<!-- Node20 -->
<g id="node21" class="node"><title>Node20</title>
<g id="a_node21"><a xlink:href="../../de/d3a/classocra_1_1LinearFunction.html" target="_top" xlink:title="LinearFunction class. ">
<polygon fill="white" stroke="black" points="666.186,-287.5 666.186,-305.5 773.348,-305.5 773.348,-287.5 666.186,-287.5"/>
<text text-anchor="middle" x="719.767" y="-293.5" font-family="Helvetica,sans-Serif" font-size="10.00">ocra::LinearFunction</text>
</a>
</g>
</g>
<!-- Node0&#45;&gt;Node20 -->
<g id="edge20" class="edge"><title>Node0&#45;&gt;Node20</title>
<path fill="none" stroke="midnightblue" d="M629.315,-296.5C641.235,-296.5 654.025,-296.5 666.098,-296.5"/>
<polygon fill="midnightblue" stroke="midnightblue" points="629.103,-293 619.103,-296.5 629.103,-300 629.103,-293"/>
</g>
<!-- Node39 -->
<g id="node40" class="node"><title>Node39</title>
<g id="a_node40"><a xlink:href="../../dd/d93/classocra_1_1Pb114G10.html" target="_top" xlink:title="ocra::Pb114G10">
<polygon fill="white" stroke="black" points="675.722,-250.5 675.722,-268.5 763.812,-268.5 763.812,-250.5 675.722,-250.5"/>
<text text-anchor="middle" x="719.767" y="-256.5" font-family="Helvetica,sans-Serif" font-size="10.00">ocra::Pb114G10</text>
</a>
</g>
</g>
<!-- Node0&#45;&gt;Node39 -->
<g id="edge39" class="edge"><title>Node0&#45;&gt;Node39</title>
<path fill="none" stroke="midnightblue" d="M623.697,-284.869C643.391,-279.614 666.315,-273.497 684.717,-268.586"/>
<polygon fill="midnightblue" stroke="midnightblue" points="622.789,-281.489 614.029,-287.449 624.594,-288.252 622.789,-281.489"/>
</g>
<!-- Node40 -->
<g id="node41" class="node"><title>Node40</title>
<g id="a_node41"><a xlink:href="../../da/d6c/classocra_1_1Pb114G11.html" target="_top" xlink:title="ocra::Pb114G11">
<polygon fill="white" stroke="black" points="676.091,-213.5 676.091,-231.5 763.443,-231.5 763.443,-213.5 676.091,-213.5"/>
<text text-anchor="middle" x="719.767" y="-219.5" font-family="Helvetica,sans-Serif" font-size="10.00">ocra::Pb114G11</text>
</a>
</g>
</g>
<!-- Node0&#45;&gt;Node40 -->
<g id="edge40" class="edge"><title>Node0&#45;&gt;Node40</title>
<path fill="none" stroke="midnightblue" d="M597.545,-280.459C611.943,-267.978 633.415,-251.06 654.792,-240.5 662.033,-236.923 670.098,-233.956 677.994,-231.533"/>
<polygon fill="midnightblue" stroke="midnightblue" points="595.093,-277.956 589.939,-287.213 599.741,-283.19 595.093,-277.956"/>
</g>
<!-- Node41 -->
<g id="node42" class="node"><title>Node41</title>
<g id="a_node42"><a xlink:href="../../d9/df1/classocra_1_1Pb114G5.html" target="_top" xlink:title="ocra::Pb114G5">
<polygon fill="white" stroke="black" points="678.503,-176.5 678.503,-194.5 761.031,-194.5 761.031,-176.5 678.503,-176.5"/>
<text text-anchor="middle" x="719.767" y="-182.5" font-family="Helvetica,sans-Serif" font-size="10.00">ocra::Pb114G5</text>
</a>
</g>
</g>
<!-- Node0&#45;&gt;Node41 -->
<g id="edge41" class="edge"><title>Node0&#45;&gt;Node41</title>
<path fill="none" stroke="midnightblue" d="M589.965,-278.342C602.349,-257.232 625.566,-222.825 654.792,-203.5 661.818,-198.854 670.039,-195.394 678.202,-192.822"/>
<polygon fill="midnightblue" stroke="midnightblue" points="586.797,-276.832 584.915,-287.258 592.889,-280.281 586.797,-276.832"/>
</g>
<!-- Node42 -->
<g id="node43" class="node"><title>Node42</title>
<g id="a_node43"><a xlink:href="../../d9/d7e/classocra_1_1QuadraticFunction.html" target="_top" xlink:title="QuadraticFunction class. ">
<polygon fill="white" stroke="black" points="658.408,-84.5 658.408,-102.5 781.126,-102.5 781.126,-84.5 658.408,-84.5"/>
<text text-anchor="middle" x="719.767" y="-90.5" font-family="Helvetica,sans-Serif" font-size="10.00">ocra::QuadraticFunction</text>
</a>
</g>
</g>
<!-- Node0&#45;&gt;Node42 -->
<g id="edge42" class="edge"><title>Node0&#45;&gt;Node42</title>
<path fill="none" stroke="midnightblue" d="M589.109,-278.289C602.176,-252.497 627.803,-204.263 654.792,-166.5 672.234,-142.096 696.35,-116.336 709.426,-102.904"/>
<polygon fill="midnightblue" stroke="midnightblue" points="585.946,-276.789 584.596,-287.297 592.205,-279.924 585.946,-276.789"/>
</g>
<!-- Node46 -->
<g id="node47" class="node"><title>Node46</title>
<g id="a_node47"><a xlink:href="../../df/d5a/classocra_1_1SubtractionFunction.html" target="_top" xlink:title="SubtractionFunction class. ">
<polygon fill="white" stroke="black" points="654.792,-47.5 654.792,-65.5 784.742,-65.5 784.742,-47.5 654.792,-47.5"/>
<text text-anchor="middle" x="719.767" y="-53.5" font-family="Helvetica,sans-Serif" font-size="10.00">ocra::SubtractionFunction</text>
</a>
</g>
</g>
<!-- Node0&#45;&gt;Node46 -->
<g id="edge46" class="edge"><title>Node0&#45;&gt;Node46</title>
<path fill="none" stroke="midnightblue" d="M580.819,-277.125C583.464,-234.197 595.949,-130.459 654.792,-74.5 658.638,-70.8425 663.168,-67.9182 668.011,-65.5818"/>
<polygon fill="midnightblue" stroke="midnightblue" points="577.314,-277.154 580.312,-287.316 584.305,-277.502 577.314,-277.154"/>
</g>
<!-- Node1 -->
<g id="node2" class="node"><title>Node1</title>
<g id="a_node2"><a xlink:href="../../d3/d16/classocra_1_1ObserverSubject.html" target="_top" xlink:title="ocra::ObserverSubject">
<polygon fill="white" stroke="black" points="363.785,-387.5 363.785,-405.5 479.272,-405.5 479.272,-387.5 363.785,-387.5"/>
<text text-anchor="middle" x="421.529" y="-393.5" font-family="Helvetica,sans-Serif" font-size="10.00">ocra::ObserverSubject</text>
</a>
</g>
</g>
<!-- Node1&#45;&gt;Node0 -->
<g id="edge1" class="edge"><title>Node1&#45;&gt;Node0</title>
<path fill="none" stroke="midnightblue" d="M489.159,-384.314C494.131,-382.37 498.948,-380.115 503.428,-377.5 535.145,-358.988 561.295,-322.681 572.388,-305.685"/>
<polygon fill="midnightblue" stroke="midnightblue" points="487.755,-381.097 479.457,-387.685 490.052,-387.71 487.755,-381.097"/>
</g>
<!-- Node2 -->
<g id="node3" class="node"><title>Node2</title>
<g id="a_node3"><a xlink:href="../../d2/d45/classocra_1_1Observer.html" target="_top" xlink:title="ocra::Observer">
<polygon fill="white" stroke="black" points="221.497,-434.5 221.497,-452.5 303.63,-452.5 303.63,-434.5 221.497,-434.5"/>
<text text-anchor="middle" x="262.563" y="-440.5" font-family="Helvetica,sans-Serif" font-size="10.00">ocra::Observer</text>
</a>
</g>
</g>
<!-- Node2&#45;&gt;Node1 -->
<g id="edge2" class="edge"><title>Node2&#45;&gt;Node1</title>
<path fill="none" stroke="midnightblue" d="M303.743,-431.469C330.736,-423.387 365.737,-412.906 390.357,-405.534"/>
<polygon fill="midnightblue" stroke="midnightblue" points="302.404,-428.216 293.828,-434.438 304.412,-434.922 302.404,-428.216"/>
</g>
<!-- Node3 -->
<g id="node4" class="node"><title>Node3</title>
<g id="a_node4"><a xlink:href="../../d4/dee/classocra_1_1ObserverBase.html" target="_top" xlink:title="ocra::ObserverBase\l\&lt; EVT_RESIZE \&gt;">
<polygon fill="white" stroke="black" points="40.2856,-500.5 40.2856,-528.5 145.211,-528.5 145.211,-500.5 40.2856,-500.5"/>
<text text-anchor="start" x="48.2856" y="-516.5" font-family="Helvetica,sans-Serif" font-size="10.00">ocra::ObserverBase</text>
<text text-anchor="middle" x="92.7485" y="-506.5" font-family="Helvetica,sans-Serif" font-size="10.00">&lt; EVT_RESIZE &gt;</text>
</a>
</g>
</g>
<!-- Node3&#45;&gt;Node2 -->
<g id="edge3" class="edge"><title>Node3&#45;&gt;Node2</title>
<path fill="none" stroke="midnightblue" d="M155.354,-501.094C165.597,-498.1 175.978,-494.577 185.497,-490.5 209.613,-480.171 235.039,-462.997 249.535,-452.516"/>
<polygon fill="midnightblue" stroke="midnightblue" points="154.304,-497.753 145.607,-503.804 156.179,-504.497 154.304,-497.753"/>
</g>
<!-- Node4 -->
<g id="node5" class="node"><title>Node4</title>
<g id="a_node5"><a xlink:href="../../d4/dee/classocra_1_1ObserverBase.html" target="_top" xlink:title="ocra::ObserverBase\l\&lt; EVT_CHANGE_DEPENDENCIES \&gt;">
<polygon fill="white" stroke="black" points="0,-453.5 0,-481.5 185.497,-481.5 185.497,-453.5 0,-453.5"/>
<text text-anchor="start" x="8" y="-469.5" font-family="Helvetica,sans-Serif" font-size="10.00">ocra::ObserverBase</text>
<text text-anchor="middle" x="92.7485" y="-459.5" font-family="Helvetica,sans-Serif" font-size="10.00">&lt; EVT_CHANGE_DEPENDENCIES &gt;</text>
</a>
</g>
</g>
<!-- Node4&#45;&gt;Node2 -->
<g id="edge4" class="edge"><title>Node4&#45;&gt;Node2</title>
<path fill="none" stroke="midnightblue" d="M195.441,-452.957C204.506,-451.66 213.28,-450.405 221.314,-449.256"/>
<polygon fill="midnightblue" stroke="midnightblue" points="194.916,-449.496 185.512,-454.376 195.907,-456.425 194.916,-449.496"/>
</g>
<!-- Node5 -->
<g id="node6" class="node"><title>Node5</title>
<g id="a_node6"><a xlink:href="../../d4/dee/classocra_1_1ObserverBase.html" target="_top" xlink:title="ocra::ObserverBase\l\&lt; EVT_CHANGE_VALUE \&gt;">
<polygon fill="white" stroke="black" points="23.4253,-406.5 23.4253,-434.5 162.072,-434.5 162.072,-406.5 23.4253,-406.5"/>
<text text-anchor="start" x="31.4253" y="-422.5" font-family="Helvetica,sans-Serif" font-size="10.00">ocra::ObserverBase</text>
<text text-anchor="middle" x="92.7485" y="-412.5" font-family="Helvetica,sans-Serif" font-size="10.00">&lt; EVT_CHANGE_VALUE &gt;</text>
</a>
</g>
</g>
<!-- Node5&#45;&gt;Node2 -->
<g id="edge5" class="edge"><title>Node5&#45;&gt;Node2</title>
<path fill="none" stroke="midnightblue" d="M172.838,-431.34C189.55,-433.63 206.517,-435.956 221.077,-437.951"/>
<polygon fill="midnightblue" stroke="midnightblue" points="172.872,-427.812 162.489,-429.921 171.922,-434.747 172.872,-427.812"/>
</g>
<!-- Node6 -->
<g id="node7" class="node"><title>Node6</title>
<g id="a_node7"><a xlink:href="../../dc/d77/classocra_1_1Subject.html" target="_top" xlink:title="ocra::Subject">
<polygon fill="white" stroke="black" points="225.381,-340.5 225.381,-358.5 299.746,-358.5 299.746,-340.5 225.381,-340.5"/>
<text text-anchor="middle" x="262.563" y="-346.5" font-family="Helvetica,sans-Serif" font-size="10.00">ocra::Subject</text>
</a>
</g>
</g>
<!-- Node6&#45;&gt;Node1 -->
<g id="edge6" class="edge"><title>Node6&#45;&gt;Node1</title>
<path fill="none" stroke="midnightblue" d="M295.309,-362.169C308.84,-367.312 324.88,-373.071 339.63,-377.5 351.789,-381.151 365.149,-384.537 377.446,-387.409"/>
<polygon fill="midnightblue" stroke="midnightblue" points="296.543,-358.894 285.953,-358.561 294.024,-365.425 296.543,-358.894"/>
</g>
<!-- Node7 -->
<g id="node8" class="node"><title>Node7</title>
<g id="a_node8"><a xlink:href="../../dc/d29/classocra_1_1SubjectBase.html" target="_top" xlink:title="ocra::SubjectBase\&lt;\l EVT_RESIZE \&gt;">
<polygon fill="white" stroke="black" points="41.25,-359.5 41.25,-387.5 144.247,-387.5 144.247,-359.5 41.25,-359.5"/>
<text text-anchor="start" x="49.25" y="-375.5" font-family="Helvetica,sans-Serif" font-size="10.00">ocra::SubjectBase&lt;</text>
<text text-anchor="middle" x="92.7485" y="-365.5" font-family="Helvetica,sans-Serif" font-size="10.00"> EVT_RESIZE &gt;</text>
</a>
</g>
</g>
<!-- Node7&#45;&gt;Node6 -->
<g id="edge7" class="edge"><title>Node7&#45;&gt;Node6</title>
<path fill="none" stroke="midnightblue" d="M154.534,-364.807C178.262,-361.413 204.665,-357.637 225.31,-354.685"/>
<polygon fill="midnightblue" stroke="midnightblue" points="153.958,-361.354 144.554,-366.234 154.949,-368.283 153.958,-361.354"/>
</g>
<!-- Node8 -->
<g id="node9" class="node"><title>Node8</title>
<g id="a_node9"><a xlink:href="../../dc/d29/classocra_1_1SubjectBase.html" target="_top" xlink:title="ocra::SubjectBase\&lt;\l EVT_CHANGE_DEPENDENCIES \&gt;">
<polygon fill="white" stroke="black" points="2.91992,-312.5 2.91992,-340.5 182.577,-340.5 182.577,-312.5 2.91992,-312.5"/>
<text text-anchor="start" x="10.9199" y="-328.5" font-family="Helvetica,sans-Serif" font-size="10.00">ocra::SubjectBase&lt;</text>
<text text-anchor="middle" x="92.7485" y="-318.5" font-family="Helvetica,sans-Serif" font-size="10.00"> EVT_CHANGE_DEPENDENCIES &gt;</text>
</a>
</g>
</g>
<!-- Node8&#45;&gt;Node6 -->
<g id="edge8" class="edge"><title>Node8&#45;&gt;Node6</title>
<path fill="none" stroke="midnightblue" d="M193.112,-340.118C204.461,-341.674 215.419,-343.176 225.116,-344.505"/>
<polygon fill="midnightblue" stroke="midnightblue" points="193.443,-336.631 183.061,-338.741 192.493,-343.566 193.443,-336.631"/>
</g>
<!-- Node9 -->
<g id="node10" class="node"><title>Node9</title>
<g id="a_node10"><a xlink:href="../../dc/d29/classocra_1_1SubjectBase.html" target="_top" xlink:title="ocra::SubjectBase\&lt;\l EVT_CHANGE_VALUE \&gt;">
<polygon fill="white" stroke="black" points="26.3452,-265.5 26.3452,-293.5 159.152,-293.5 159.152,-265.5 26.3452,-265.5"/>
<text text-anchor="start" x="34.3452" y="-281.5" font-family="Helvetica,sans-Serif" font-size="10.00">ocra::SubjectBase&lt;</text>
<text text-anchor="middle" x="92.7485" y="-271.5" font-family="Helvetica,sans-Serif" font-size="10.00"> EVT_CHANGE_VALUE &gt;</text>
</a>
</g>
</g>
<!-- Node9&#45;&gt;Node6 -->
<g id="edge9" class="edge"><title>Node9&#45;&gt;Node6</title>
<path fill="none" stroke="midnightblue" d="M168.869,-296.291C174.566,-298.182 180.167,-300.249 185.497,-302.5 209.665,-312.705 235.074,-329.919 249.553,-340.441"/>
<polygon fill="midnightblue" stroke="midnightblue" points="169.813,-292.919 159.224,-293.274 167.723,-299.6 169.813,-292.919"/>
</g>
<!-- Node10 -->
<g id="node11" class="node"><title>Node10</title>
<g id="a_node11"><a xlink:href="../../dd/d68/classocra_1_1IFunctionProperties.html" target="_top" xlink:title="ocra::IFunctionProperties">
<polygon fill="white" stroke="black" points="357.669,-350.5 357.669,-368.5 485.388,-368.5 485.388,-350.5 357.669,-350.5"/>
<text text-anchor="middle" x="421.529" y="-356.5" font-family="Helvetica,sans-Serif" font-size="10.00">ocra::IFunctionProperties</text>
</a>
</g>
</g>
<!-- Node10&#45;&gt;Node0 -->
<g id="edge10" class="edge"><title>Node10&#45;&gt;Node0</title>
<path fill="none" stroke="midnightblue" d="M481.442,-347.873C488.951,-345.75 496.445,-343.301 503.428,-340.5 526.612,-331.198 551.131,-315.459 565.505,-305.542"/>
<polygon fill="midnightblue" stroke="midnightblue" points="480.375,-344.535 471.605,-350.479 482.168,-351.301 480.375,-344.535"/>
</g>
<!-- Node11 -->
<g id="node12" class="node"><title>Node11</title>
<polygon fill="white" stroke="#bfbfbf" points="339.63,-303.5 339.63,-331.5 503.428,-331.5 503.428,-303.5 339.63,-303.5"/>
<text text-anchor="start" x="347.63" y="-319.5" font-family="Helvetica,sans-Serif" font-size="10.00">OCRA_FUNCTION_INTERFACE</text>
<text text-anchor="middle" x="421.529" y="-309.5" font-family="Helvetica,sans-Serif" font-size="10.00">_INHERITANCEpublic</text>
</g>
<!-- Node11&#45;&gt;Node0 -->
<g id="edge11" class="edge"><title>Node11&#45;&gt;Node0</title>
<path fill="none" stroke="#8b1a1a" d="M513.634,-305.203C522.535,-304.001 531.196,-302.832 539.133,-301.761"/>
<polygon fill="#8b1a1a" stroke="#8b1a1a" points="512.951,-301.763 503.509,-306.569 513.888,-308.7 512.951,-301.763"/>
</g>
<!-- Node12 -->
<g id="node13" class="node"><title>Node12</title>
<g id="a_node13"><a xlink:href="../../db/de3/classocra_1_1NamedInstance.html" target="_top" xlink:title="ocra::NamedInstance">
<polygon fill="white" stroke="black" points="366.004,-266.5 366.004,-284.5 477.053,-284.5 477.053,-266.5 366.004,-266.5"/>
<text text-anchor="middle" x="421.529" y="-272.5" font-family="Helvetica,sans-Serif" font-size="10.00">ocra::NamedInstance</text>
</a>
</g>
</g>
<!-- Node12&#45;&gt;Node0 -->
<g id="edge12" class="edge"><title>Node12&#45;&gt;Node0</title>
<path fill="none" stroke="midnightblue" d="M487.616,-284.285C505.224,-286.662 523.724,-289.159 539.375,-291.272"/>
<polygon fill="midnightblue" stroke="midnightblue" points="487.759,-280.773 477.381,-282.904 486.823,-287.71 487.759,-280.773"/>
</g>
<!-- Node13 -->
<g id="node14" class="node"><title>Node13</title>
<g id="a_node14"><a xlink:href="../../d8/d24/classocra_1_1AbilitySet.html" target="_top" xlink:title="ocra::AbilitySet">
<polygon fill="white" stroke="black" points="380.182,-229.5 380.182,-247.5 462.876,-247.5 462.876,-229.5 380.182,-229.5"/>
<text text-anchor="middle" x="421.529" y="-235.5" font-family="Helvetica,sans-Serif" font-size="10.00">ocra::AbilitySet</text>
</a>
</g>
</g>
<!-- Node13&#45;&gt;Node0 -->
<g id="edge13" class="edge"><title>Node13&#45;&gt;Node0</title>
<path fill="none" stroke="midnightblue" d="M473.099,-247.521C483.289,-249.958 493.816,-252.933 503.428,-256.5 525.629,-264.738 549.444,-278.435 564.061,-287.467"/>
<polygon fill="midnightblue" stroke="midnightblue" points="473.593,-244.044 463.068,-245.261 472.054,-250.873 473.593,-244.044"/>
</g>
<!-- Node14 -->
<g id="node15" class="node"><title>Node14</title>
<g id="a_node15"><a xlink:href="../../d5/dc0/classocra_1_1CoupledInputOutputSize.html" target="_top" xlink:title="ocra::CoupledInputOutputSize">
<polygon fill="white" stroke="black" points="346.542,-192.5 346.542,-210.5 496.516,-210.5 496.516,-192.5 346.542,-192.5"/>
<text text-anchor="middle" x="421.529" y="-198.5" font-family="Helvetica,sans-Serif" font-size="10.00">ocra::CoupledInputOutputSize</text>
</a>
</g>
</g>
<!-- Node14&#45;&gt;Node0 -->
<g id="edge14" class="edge"><title>Node14&#45;&gt;Node0</title>
<path fill="none" stroke="midnightblue" d="M491.855,-214.015C495.864,-215.627 499.754,-217.446 503.428,-219.5 534.474,-236.858 560.766,-271.177 572.115,-287.486"/>
<polygon fill="midnightblue" stroke="midnightblue" points="492.924,-210.68 482.329,-210.618 490.573,-217.274 492.924,-210.68"/>
</g>
<!-- Node21 -->
<g id="node22" class="node"><title>Node21</title>
<g id="a_node22"><a xlink:href="../../d4/d45/classocra_1_1ContactAvoidanceFunction.html" target="_top" xlink:title="Create a linear function that represents the joint limit function. ">
<polygon fill="white" stroke="black" points="823.33,-553.5 823.33,-571.5 983.681,-571.5 983.681,-553.5 823.33,-553.5"/>
<text text-anchor="middle" x="903.505" y="-559.5" font-family="Helvetica,sans-Serif" font-size="10.00">ocra::ContactAvoidanceFunction</text>
</a>
</g>
</g>
<!-- Node20&#45;&gt;Node21 -->
<g id="edge21" class="edge"><title>Node20&#45;&gt;Node21</title>
<path fill="none" stroke="midnightblue" d="M781.872,-311.61C782.877,-312.52 783.836,-313.482 784.742,-314.5 852.095,-390.128 753.387,-463.874 820.742,-539.5 826.136,-545.556 832.987,-550.072 840.418,-553.43"/>
<polygon fill="midnightblue" stroke="midnightblue" points="783.573,-308.527 773.385,-305.619 779.536,-314.245 783.573,-308.527"/>
</g>
<!-- Node24 -->
<g id="node25" class="node"><title>Node24</title>
<g id="a_node25"><a xlink:href="../../d3/d89/classocra_1_1DiagonalLinearFunction.html" target="_top" xlink:title="DiagonalLinearFunction class. ">
<polygon fill="white" stroke="black" points="830.188,-511.5 830.188,-529.5 976.823,-529.5 976.823,-511.5 830.188,-511.5"/>
<text text-anchor="middle" x="903.505" y="-517.5" font-family="Helvetica,sans-Serif" font-size="10.00">ocra::DiagonalLinearFunction</text>
</a>
</g>
</g>
<!-- Node20&#45;&gt;Node24 -->
<g id="edge24" class="edge"><title>Node20&#45;&gt;Node24</title>
<path fill="none" stroke="midnightblue" d="M781.407,-311.281C782.579,-312.286 783.693,-313.358 784.742,-314.5 842.286,-377.16 761.419,-441.523 820.742,-502.5 824.188,-506.042 828.161,-508.961 832.46,-511.359"/>
<polygon fill="midnightblue" stroke="midnightblue" points="783.206,-308.271 772.964,-305.558 779.278,-314.066 783.206,-308.271"/>
</g>
<!-- Node27 -->
<g id="node28" class="node"><title>Node27</title>
<g id="a_node28"><a xlink:href="../../d4/d5c/classocra_1_1DoubleDiagonalLinearFunction.html" target="_top" xlink:title="DoubleDiagonalLinearFunction class. ">
<polygon fill="white" stroke="black" points="833.521,-464.5 833.521,-492.5 973.49,-492.5 973.49,-464.5 833.521,-464.5"/>
<text text-anchor="start" x="841.521" y="-480.5" font-family="Helvetica,sans-Serif" font-size="10.00">ocra::DoubleDiagonalLinear</text>
<text text-anchor="middle" x="903.505" y="-470.5" font-family="Helvetica,sans-Serif" font-size="10.00">Function</text>
</a>
</g>
</g>
<!-- Node20&#45;&gt;Node27 -->
<g id="edge27" class="edge"><title>Node20&#45;&gt;Node27</title>
<path fill="none" stroke="midnightblue" d="M780.858,-311.005C782.223,-312.089 783.522,-313.252 784.742,-314.5 829.656,-360.439 776.088,-408.309 820.742,-454.5 824.547,-458.435 828.959,-461.735 833.725,-464.499"/>
<polygon fill="midnightblue" stroke="midnightblue" points="782.733,-308.049 772.42,-305.619 778.967,-313.95 782.733,-308.049"/>
</g>
<!-- Node28 -->
<g id="node29" class="node"><title>Node28</title>
<g id="a_node29"><a xlink:href="../../d9/da6/classocra_1_1DynamicEquationFunction.html" target="_top" xlink:title="DynamicEquationFunction class. ">
<polygon fill="white" stroke="black" points="824.636,-427.5 824.636,-445.5 982.375,-445.5 982.375,-427.5 824.636,-427.5"/>
<text text-anchor="middle" x="903.505" y="-433.5" font-family="Helvetica,sans-Serif" font-size="10.00">ocra::DynamicEquationFunction</text>
</a>
</g>
</g>
<!-- Node20&#45;&gt;Node28 -->
<g id="edge28" class="edge"><title>Node20&#45;&gt;Node28</title>
<path fill="none" stroke="midnightblue" d="M780.126,-310.709C781.747,-311.876 783.292,-313.137 784.742,-314.5 820.078,-347.711 784.653,-385.109 820.742,-417.5 825.297,-421.588 830.559,-424.847 836.172,-427.437"/>
<polygon fill="midnightblue" stroke="midnightblue" points="781.875,-307.678 771.48,-305.627 778.328,-313.712 781.875,-307.678"/>
</g>
<!-- Node29 -->
<g id="node30" class="node"><title>Node29</title>
<g id="a_node30"><a xlink:href="../../de/ddd/classocra_1_1FullDynamicEquationFunction.html" target="_top" xlink:title="Create a linear function that represents the dynamic equation of motion. ">
<polygon fill="white" stroke="black" points="835.757,-380.5 835.757,-408.5 971.254,-408.5 971.254,-380.5 835.757,-380.5"/>
<text text-anchor="start" x="843.757" y="-396.5" font-family="Helvetica,sans-Serif" font-size="10.00">ocra::FullDynamicEquation</text>
<text text-anchor="middle" x="903.505" y="-386.5" font-family="Helvetica,sans-Serif" font-size="10.00">Function</text>
</a>
</g>
</g>
<!-- Node20&#45;&gt;Node29 -->
<g id="edge29" class="edge"><title>Node20&#45;&gt;Node29</title>
<path fill="none" stroke="midnightblue" d="M777.27,-309.776C779.885,-311.194 782.394,-312.763 784.742,-314.5 808.53,-332.095 797.054,-352.771 820.742,-370.5 825.954,-374.4 831.789,-377.669 837.88,-380.408"/>
<polygon fill="midnightblue" stroke="midnightblue" points="778.593,-306.532 768.047,-305.514 775.657,-312.886 778.593,-306.532"/>
</g>
<!-- Node30 -->
<g id="node31" class="node"><title>Node30</title>
<g id="a_node31"><a xlink:href="../../df/de0/classocra_1_1JointLimitFunction.html" target="_top" xlink:title="Create a linear function that represents the joint limit function. ">
<polygon fill="white" stroke="black" points="842.705,-343.5 842.705,-361.5 964.306,-361.5 964.306,-343.5 842.705,-343.5"/>
<text text-anchor="middle" x="903.505" y="-349.5" font-family="Helvetica,sans-Serif" font-size="10.00">ocra::JointLimitFunction</text>
</a>
</g>
</g>
<!-- Node20&#45;&gt;Node30 -->
<g id="edge30" class="edge"><title>Node20&#45;&gt;Node30</title>
<path fill="none" stroke="midnightblue" d="M767.758,-308.486C773.54,-310.322 779.319,-312.334 784.742,-314.5 801.544,-321.21 803.791,-327.178 820.742,-333.5 831.393,-337.472 843.143,-340.788 854.335,-343.478"/>
<polygon fill="midnightblue" stroke="midnightblue" points="768.67,-305.105 758.085,-305.567 766.648,-311.807 768.67,-305.105"/>
</g>
<!-- Node33 -->
<g id="node34" class="node"><title>Node33</title>
<g id="a_node34"><a xlink:href="../../d0/dd6/classocra_1_1LinearizedCoulombFunction.html" target="_top" xlink:title="LinearizedCoulombFunction class. ">
<polygon fill="white" stroke="black" points="820.742,-306.5 820.742,-324.5 986.269,-324.5 986.269,-306.5 820.742,-306.5"/>
<text text-anchor="middle" x="903.505" y="-312.5" font-family="Helvetica,sans-Serif" font-size="10.00">ocra::LinearizedCoulombFunction</text>
</a>
</g>
</g>
<!-- Node20&#45;&gt;Node33 -->
<g id="edge33" class="edge"><title>Node20&#45;&gt;Node33</title>
<path fill="none" stroke="midnightblue" d="M784.015,-303.112C795.842,-304.349 808.359,-305.657 820.654,-306.943"/>
<polygon fill="midnightblue" stroke="midnightblue" points="784.132,-299.606 773.822,-302.047 783.404,-306.568 784.132,-299.606"/>
</g>
<!-- Node34 -->
<g id="node35" class="node"><title>Node34</title>
<g id="a_node35"><a xlink:href="../../dd/d16/classocra_1_1LinearTask.html" target="_top" xlink:title="LinearTask class. ">
<polygon fill="white" stroke="black" points="858.821,-269.5 858.821,-287.5 948.19,-287.5 948.19,-269.5 858.821,-269.5"/>
<text text-anchor="middle" x="903.505" y="-275.5" font-family="Helvetica,sans-Serif" font-size="10.00">ocra::LinearTask</text>
</a>
</g>
</g>
<!-- Node20&#45;&gt;Node34 -->
<g id="edge34" class="edge"><title>Node20&#45;&gt;Node34</title>
<path fill="none" stroke="midnightblue" d="M783.819,-290.255C808.475,-287.813 836.155,-285.072 858.578,-282.851"/>
<polygon fill="midnightblue" stroke="midnightblue" points="783.428,-286.777 773.822,-291.245 784.118,-293.743 783.428,-286.777"/>
</g>
<!-- Node35 -->
<g id="node36" class="node"><title>Node35</title>
<g id="a_node36"><a xlink:href="../../dd/dda/classocra_1_1SecondOrderLinearTask.html" target="_top" xlink:title="SecondOrderLinearTask class. ">
<polygon fill="white" stroke="black" points="829.082,-232.5 829.082,-250.5 977.929,-250.5 977.929,-232.5 829.082,-232.5"/>
<text text-anchor="middle" x="903.505" y="-238.5" font-family="Helvetica,sans-Serif" font-size="10.00">ocra::SecondOrderLinearTask</text>
</a>
</g>
</g>
<!-- Node20&#45;&gt;Node35 -->
<g id="edge35" class="edge"><title>Node20&#45;&gt;Node35</title>
<path fill="none" stroke="midnightblue" d="M765.007,-284.464C771.685,-282.33 778.443,-279.988 784.742,-277.5 801.38,-270.928 803.879,-265.468 820.742,-259.5 830.745,-255.96 841.691,-252.975 852.23,-250.517"/>
<polygon fill="midnightblue" stroke="midnightblue" points="763.872,-281.151 755.341,-287.433 765.928,-287.842 763.872,-281.151"/>
</g>
<!-- Node36 -->
<g id="node37" class="node"><title>Node36</title>
<g id="a_node37"><a xlink:href="../../d0/d8f/classocra_1_1SumOfLinearFunctions.html" target="_top" xlink:title="ocra::SumOfLinearFunctions">
<polygon fill="white" stroke="black" points="831.865,-195.5 831.865,-213.5 975.146,-213.5 975.146,-195.5 831.865,-195.5"/>
<text text-anchor="middle" x="903.505" y="-201.5" font-family="Helvetica,sans-Serif" font-size="10.00">ocra::SumOfLinearFunctions</text>
</a>
</g>
</g>
<!-- Node20&#45;&gt;Node36 -->
<g id="edge36" class="edge"><title>Node20&#45;&gt;Node36</title>
<path fill="none" stroke="midnightblue" d="M775.202,-283.382C778.563,-281.656 781.78,-279.705 784.742,-277.5 808.176,-260.054 796.695,-239.092 820.742,-222.5 826.006,-218.868 831.876,-215.953 837.988,-213.615"/>
<polygon fill="midnightblue" stroke="midnightblue" points="773.765,-280.19 766.041,-287.442 776.601,-286.59 773.765,-280.19"/>
</g>
<!-- Node37 -->
<g id="node38" class="node"><title>Node37</title>
<g id="a_node38"><a xlink:href="../../dd/d3d/classocra_1_1TorqueLimitFunction.html" target="_top" xlink:title="Create a linear function that represents the torque limit function. ">
<polygon fill="white" stroke="black" points="837.979,-158.5 837.979,-176.5 969.032,-176.5 969.032,-158.5 837.979,-158.5"/>
<text text-anchor="middle" x="903.505" y="-164.5" font-family="Helvetica,sans-Serif" font-size="10.00">ocra::TorqueLimitFunction</text>
</a>
</g>
</g>
<!-- Node20&#45;&gt;Node37 -->
<g id="edge37" class="edge"><title>Node20&#45;&gt;Node37</title>
<path fill="none" stroke="midnightblue" d="M778.355,-282.45C780.62,-280.962 782.764,-279.318 784.742,-277.5 817.07,-247.788 787.366,-214.029 820.742,-185.5 825.825,-181.156 831.72,-177.792 837.973,-175.195"/>
<polygon fill="midnightblue" stroke="midnightblue" points="776.253,-279.608 769.122,-287.445 779.583,-285.765 776.253,-279.608"/>
</g>
<!-- Node38 -->
<g id="node39" class="node"><title>Node38</title>
<g id="a_node39"><a xlink:href="../../d7/d46/classocra_1_1VariableChiFunction.html" target="_top" xlink:title="ocra::VariableChiFunction">
<polygon fill="white" stroke="black" points="838.345,-121.5 838.345,-139.5 968.666,-139.5 968.666,-121.5 838.345,-121.5"/>
<text text-anchor="middle" x="903.505" y="-127.5" font-family="Helvetica,sans-Serif" font-size="10.00">ocra::VariableChiFunction</text>
</a>
</g>
</g>
<!-- Node20&#45;&gt;Node38 -->
<g id="edge38" class="edge"><title>Node20&#45;&gt;Node38</title>
<path fill="none" stroke="midnightblue" d="M779.401,-282.106C781.301,-280.709 783.092,-279.178 784.742,-277.5 826.482,-235.063 777.502,-189.407 820.742,-148.5 825.81,-143.705 831.852,-140.076 838.325,-137.343"/>
<polygon fill="midnightblue" stroke="midnightblue" points="777.286,-279.292 770.483,-287.414 780.866,-285.308 777.286,-279.292"/>
</g>
<!-- Node22 -->
<g id="node23" class="node"><title>Node22</title>
<g id="a_node23"><a xlink:href="../../da/d90/classocra_1_1FullContactAvoidanceFunction.html" target="_top" xlink:title="Create a linear function that represents the contact avoidance function for the full formalism...">
<polygon fill="white" stroke="black" points="1034.23,-595.5 1034.23,-623.5 1172.34,-623.5 1172.34,-595.5 1034.23,-595.5"/>
<text text-anchor="start" x="1042.23" y="-611.5" font-family="Helvetica,sans-Serif" font-size="10.00">ocra::FullContactAvoidance</text>
<text text-anchor="middle" x="1103.28" y="-601.5" font-family="Helvetica,sans-Serif" font-size="10.00">Function</text>
</a>
</g>
</g>
<!-- Node21&#45;&gt;Node22 -->
<g id="edge22" class="edge"><title>Node21&#45;&gt;Node22</title>
<path fill="none" stroke="midnightblue" d="M952.725,-573.959C980.013,-580.444 1014.35,-588.604 1043.24,-595.47"/>
<polygon fill="midnightblue" stroke="midnightblue" points="953.177,-570.469 942.639,-571.562 951.558,-577.279 953.177,-570.469"/>
</g>
<!-- Node23 -->
<g id="node24" class="node"><title>Node23</title>
<g id="a_node24"><a xlink:href="../../db/d40/classocra_1_1ReducedContactAvoidanceFunction.html" target="_top" xlink:title="Create a linear function that represents the contact avoidance function for the reduced formalism...">
<polygon fill="white" stroke="black" points="1022.27,-548.5 1022.27,-576.5 1184.29,-576.5 1184.29,-548.5 1022.27,-548.5"/>
<text text-anchor="start" x="1030.27" y="-564.5" font-family="Helvetica,sans-Serif" font-size="10.00">ocra::ReducedContactAvoidance</text>
<text text-anchor="middle" x="1103.28" y="-554.5" font-family="Helvetica,sans-Serif" font-size="10.00">Function</text>
</a>
</g>
</g>
<!-- Node21&#45;&gt;Node23 -->
<g id="edge23" class="edge"><title>Node21&#45;&gt;Node23</title>
<path fill="none" stroke="midnightblue" d="M993.905,-562.5C1003.27,-562.5 1012.74,-562.5 1021.99,-562.5"/>
<polygon fill="midnightblue" stroke="midnightblue" points="993.809,-559 983.809,-562.5 993.809,-566 993.809,-559"/>
</g>
<!-- Node25 -->
<g id="node26" class="node"><title>Node25</title>
<g id="a_node26"><a xlink:href="../../dd/d77/classocra_1_1BoundFunction.html" target="_top" xlink:title="BoundFunction class. ">
<polygon fill="white" stroke="black" points="1049.14,-511.5 1049.14,-529.5 1157.42,-529.5 1157.42,-511.5 1049.14,-511.5"/>
<text text-anchor="middle" x="1103.28" y="-517.5" font-family="Helvetica,sans-Serif" font-size="10.00">ocra::BoundFunction</text>
</a>
</g>
</g>
<!-- Node24&#45;&gt;Node25 -->
<g id="edge25" class="edge"><title>Node24&#45;&gt;Node25</title>
<path fill="none" stroke="midnightblue" d="M987.186,-520.5C1008.08,-520.5 1029.96,-520.5 1048.97,-520.5"/>
<polygon fill="midnightblue" stroke="midnightblue" points="987.027,-517 977.027,-520.5 987.027,-524 987.027,-517"/>
</g>
<!-- Node26 -->
<g id="node27" class="node"><title>Node26</title>
<g id="a_node27"><a xlink:href="../../d4/d58/classocra_1_1IdentityFunction.html" target="_top" xlink:title="IdentityFunction class. ">
<polygon fill="white" stroke="black" points="1047.48,-474.5 1047.48,-492.5 1159.08,-492.5 1159.08,-474.5 1047.48,-474.5"/>
<text text-anchor="middle" x="1103.28" y="-480.5" font-family="Helvetica,sans-Serif" font-size="10.00">ocra::IdentityFunction</text>
</a>
</g>
</g>
<!-- Node24&#45;&gt;Node26 -->
<g id="edge26" class="edge"><title>Node24&#45;&gt;Node26</title>
<path fill="none" stroke="midnightblue" d="M962.645,-509.623C991.676,-504.192 1026.39,-497.699 1053.94,-492.544"/>
<polygon fill="midnightblue" stroke="midnightblue" points="961.82,-506.217 952.634,-511.496 963.107,-513.097 961.82,-506.217"/>
</g>
<!-- Node31 -->
<g id="node32" class="node"><title>Node31</title>
<g id="a_node32"><a xlink:href="../../df/d42/classocra_1_1FullJointLimitFunction.html" target="_top" xlink:title="Create a linear function that represents the joint limit function for the full formalism. ">
<polygon fill="white" stroke="black" points="1034.42,-362.5 1034.42,-380.5 1172.14,-380.5 1172.14,-362.5 1034.42,-362.5"/>
<text text-anchor="middle" x="1103.28" y="-368.5" font-family="Helvetica,sans-Serif" font-size="10.00">ocra::FullJointLimitFunction</text>
</a>
</g>
</g>
<!-- Node30&#45;&gt;Node31 -->
<g id="edge31" class="edge"><title>Node30&#45;&gt;Node31</title>
<path fill="none" stroke="midnightblue" d="M974.389,-359.214C993.848,-361.083 1014.95,-363.11 1034.3,-364.969"/>
<polygon fill="midnightblue" stroke="midnightblue" points="974.67,-355.725 964.381,-358.252 974.001,-362.693 974.67,-355.725"/>
</g>
<!-- Node32 -->
<g id="node33" class="node"><title>Node32</title>
<g id="a_node33"><a xlink:href="../../dc/daa/classocra_1_1ReducedJointLimitFunction.html" target="_top" xlink:title="Create a linear function that represents the joint limit function for the reduced formalism...">
<polygon fill="white" stroke="black" points="1022.47,-325.5 1022.47,-343.5 1184.1,-343.5 1184.1,-325.5 1022.47,-325.5"/>
<text text-anchor="middle" x="1103.28" y="-331.5" font-family="Helvetica,sans-Serif" font-size="10.00">ocra::ReducedJointLimitFunction</text>
</a>
</g>
</g>
<!-- Node30&#45;&gt;Node32 -->
<g id="edge32" class="edge"><title>Node30&#45;&gt;Node32</title>
<path fill="none" stroke="midnightblue" d="M974.373,-346.141C989.831,-344.734 1006.33,-343.233 1022.16,-341.792"/>
<polygon fill="midnightblue" stroke="midnightblue" points="974.023,-342.658 964.381,-347.051 974.657,-349.63 974.023,-342.658"/>
</g>
<!-- Node43 -->
<g id="node44" class="node"><title>Node43</title>
<g id="a_node44"><a xlink:href="../../d3/d16/classocra_1_1FcQuadraticFunction.html" target="_top" xlink:title="ocra::FcQuadraticFunction">
<polygon fill="white" stroke="black" points="836.592,-84.5 836.592,-102.5 970.419,-102.5 970.419,-84.5 836.592,-84.5"/>
<text text-anchor="middle" x="903.505" y="-90.5" font-family="Helvetica,sans-Serif" font-size="10.00">ocra::FcQuadraticFunction</text>
</a>
</g>
</g>
<!-- Node42&#45;&gt;Node43 -->
<g id="edge43" class="edge"><title>Node42&#45;&gt;Node43</title>
<path fill="none" stroke="midnightblue" d="M791.377,-93.5C806.16,-93.5 821.698,-93.5 836.313,-93.5"/>
<polygon fill="midnightblue" stroke="midnightblue" points="791.283,-90.0001 781.283,-93.5 791.283,-97.0001 791.283,-90.0001"/>
</g>
<!-- Node44 -->
<g id="node45" class="node"><title>Node44</title>
<g id="a_node45"><a xlink:href="../../df/dfc/classocra_1_1SquaredLinearFunction.html" target="_top" xlink:title="SquaredLinearFunction class. ">
<polygon fill="white" stroke="black" points="831.021,-47.5 831.021,-65.5 975.99,-65.5 975.99,-47.5 831.021,-47.5"/>
<text text-anchor="middle" x="903.505" y="-53.5" font-family="Helvetica,sans-Serif" font-size="10.00">ocra::SquaredLinearFunction</text>
</a>
</g>
</g>
<!-- Node42&#45;&gt;Node44 -->
<g id="edge44" class="edge"><title>Node42&#45;&gt;Node44</title>
<path fill="none" stroke="midnightblue" d="M775.123,-82.4336C801.648,-77.0335 833.151,-70.6199 858.192,-65.5218"/>
<polygon fill="midnightblue" stroke="midnightblue" points="774.326,-79.0241 765.225,-84.4488 775.723,-85.8834 774.326,-79.0241"/>
</g>
<!-- Node45 -->
<g id="node46" class="node"><title>Node45</title>
<g id="a_node46"><a xlink:href="../../d2/d31/classocra_1_1WeightedSquareDistanceFunction.html" target="_top" xlink:title="WeightedSquareDistanceFunction class. ">
<polygon fill="white" stroke="black" points="826.389,-0.5 826.389,-28.5 980.622,-28.5 980.622,-0.5 826.389,-0.5"/>
<text text-anchor="start" x="834.389" y="-16.5" font-family="Helvetica,sans-Serif" font-size="10.00">ocra::WeightedSquareDistance</text>
<text text-anchor="middle" x="903.505" y="-6.5" font-family="Helvetica,sans-Serif" font-size="10.00">Function</text>
</a>
</g>
</g>
<!-- Node42&#45;&gt;Node45 -->
<g id="edge45" class="edge"><title>Node42&#45;&gt;Node45</title>
<path fill="none" stroke="midnightblue" d="M772.302,-80.7726C776.635,-78.9382 780.845,-76.857 784.742,-74.5 804.375,-62.6272 801.024,-49.2304 820.742,-37.5 826.572,-34.032 832.946,-31.0677 839.482,-28.5381"/>
<polygon fill="midnightblue" stroke="midnightblue" points="770.807,-77.5959 762.691,-84.4058 773.283,-84.1437 770.807,-77.5959"/>
</g>
</g>
</svg>
