<?xml version="1.0" encoding="UTF-8" standalone="no"?>
<!DOCTYPE svg PUBLIC "-//W3C//DTD SVG 1.1//EN"
 "http://www.w3.org/Graphics/SVG/1.1/DTD/svg11.dtd">
<!-- Generated by graphviz version 2.38.0 (20140413.2041)
 -->
<!-- Title: ocra::OneLevelSolverWithQuadProg Pages: 1 -->
<svg width="885pt" height="272pt"
 viewBox="0.00 0.00 884.80 272.00" xmlns="http://www.w3.org/2000/svg" xmlns:xlink="http://www.w3.org/1999/xlink">
<g id="graph0" class="graph" transform="scale(1 1) rotate(0) translate(4 268)">
<title>ocra::OneLevelSolverWithQuadProg</title>
<polygon fill="white" stroke="none" points="-4,4 -4,-268 880.796,-268 880.796,4 -4,4"/>
<!-- Node0 -->
<g id="node1" class="node"><title>Node0</title>
<polygon fill="#bfbfbf" stroke="black" points="744.634,-98.5 744.634,-126.5 876.796,-126.5 876.796,-98.5 744.634,-98.5"/>
<text text-anchor="start" x="752.634" y="-114.5" font-family="Helvetica,sans-Serif" font-size="10.00">ocra::OneLevelSolverWith</text>
<text text-anchor="middle" x="810.715" y="-104.5" font-family="Helvetica,sans-Serif" font-size="10.00">QuadProg</text>
</g>
<!-- Node1 -->
<g id="node2" class="node"><title>Node1</title>
<g id="a_node2"><a xlink:href="../../d2/d5e/classocra_1_1OneLevelSolver.html" target="_top" xlink:title="A generic abstract class the solvers that can be used in the wOcra Controller. ">
<polygon fill="white" stroke="black" points="596.472,-103.5 596.472,-121.5 708.634,-121.5 708.634,-103.5 596.472,-103.5"/>
<text text-anchor="middle" x="652.553" y="-109.5" font-family="Helvetica,sans-Serif" font-size="10.00">ocra::OneLevelSolver</text>
</a>
</g>
</g>
<!-- Node1&#45;&gt;Node0 -->
<g id="edge1" class="edge"><title>Node1&#45;&gt;Node0</title>
<path fill="none" stroke="midnightblue" d="M719.16,-112.5C727.552,-112.5 736.14,-112.5 744.525,-112.5"/>
<polygon fill="midnightblue" stroke="midnightblue" points="719.049,-109 709.049,-112.5 719.049,-116 719.049,-109"/>
</g>
<!-- Node2 -->
<g id="node3" class="node"><title>Node2</title>
<g id="a_node3"><a xlink:href="../../d6/dd3/classocra_1_1Solver.html" target="_top" xlink:title="Solver class. ">
<polygon fill="white" stroke="black" points="491.117,-103.5 491.117,-121.5 560.472,-121.5 560.472,-103.5 491.117,-103.5"/>
<text text-anchor="middle" x="525.794" y="-109.5" font-family="Helvetica,sans-Serif" font-size="10.00">ocra::Solver</text>
</a>
</g>
</g>
<!-- Node2&#45;&gt;Node1 -->
<g id="edge2" class="edge"><title>Node2&#45;&gt;Node1</title>
<path fill="none" stroke="midnightblue" d="M570.675,-112.5C578.901,-112.5 587.599,-112.5 596.122,-112.5"/>
<polygon fill="midnightblue" stroke="midnightblue" points="570.556,-109 560.556,-112.5 570.556,-116 570.556,-109"/>
</g>
<!-- Node3 -->
<g id="node4" class="node"><title>Node3</title>
<g id="a_node4"><a xlink:href="../../d3/d16/classocra_1_1ObserverSubject.html" target="_top" xlink:title="ocra::ObserverSubject">
<polygon fill="white" stroke="black" points="339.63,-122.5 339.63,-140.5 455.117,-140.5 455.117,-122.5 339.63,-122.5"/>
<text text-anchor="middle" x="397.374" y="-128.5" font-family="Helvetica,sans-Serif" font-size="10.00">ocra::ObserverSubject</text>
</a>
</g>
</g>
<!-- Node3&#45;&gt;Node2 -->
<g id="edge3" class="edge"><title>Node3&#45;&gt;Node2</title>
<path fill="none" stroke="midnightblue" d="M465.33,-121.437C474.212,-120.102 482.995,-118.782 490.974,-117.583"/>
<polygon fill="midnightblue" stroke="midnightblue" points="464.666,-117.997 455.297,-122.945 465.706,-124.92 464.666,-117.997"/>
</g>
<!-- Node4 -->
<g id="node5" class="node"><title>Node4</title>
<g id="a_node5"><a xlink:href="../../d2/d45/classocra_1_1Observer.html" target="_top" xlink:title="ocra::Observer">
<polygon fill="white" stroke="black" points="221.497,-169.5 221.497,-187.5 303.63,-187.5 303.63,-169.5 221.497,-169.5"/>
<text text-anchor="middle" x="262.563" y="-175.5" font-family="Helvetica,sans-Serif" font-size="10.00">ocra::Observer</text>
</a>
</g>
</g>
<!-- Node4&#45;&gt;Node3 -->
<g id="edge4" class="edge"><title>Node4&#45;&gt;Node3</title>
<path fill="none" stroke="midnightblue" d="M298.773,-166.04C321.439,-158.018 350.381,-147.776 370.845,-140.534"/>
<polygon fill="midnightblue" stroke="midnightblue" points="297.43,-162.802 289.171,-169.438 299.765,-169.401 297.43,-162.802"/>
</g>
<!-- Node5 -->
<g id="node6" class="node"><title>Node5</title>
<g id="a_node6"><a xlink:href="../../d4/dee/classocra_1_1ObserverBase.html" target="_top" xlink:title="ocra::ObserverBase\l\&lt; EVT_RESIZE \&gt;">
<polygon fill="white" stroke="black" points="40.2856,-235.5 40.2856,-263.5 145.211,-263.5 145.211,-235.5 40.2856,-235.5"/>
<text text-anchor="start" x="48.2856" y="-251.5" font-family="Helvetica,sans-Serif" font-size="10.00">ocra::ObserverBase</text>
<text text-anchor="middle" x="92.7485" y="-241.5" font-family="Helvetica,sans-Serif" font-size="10.00">&lt; EVT_RESIZE &gt;</text>
</a>
</g>
</g>
<!-- Node5&#45;&gt;Node4 -->
<g id="edge5" class="edge"><title>Node5&#45;&gt;Node4</title>
<path fill="none" stroke="midnightblue" d="M155.394,-236.918C165.632,-234.018 176.001,-230.563 185.497,-226.5 209.903,-216.058 235.439,-198.317 249.841,-187.576"/>
<polygon fill="midnightblue" stroke="midnightblue" points="154.402,-233.56 145.65,-239.531 156.215,-240.321 154.402,-233.56"/>
</g>
<!-- Node6 -->
<g id="node7" class="node"><title>Node6</title>
<g id="a_node7"><a xlink:href="../../d4/dee/classocra_1_1ObserverBase.html" target="_top" xlink:title="ocra::ObserverBase\l\&lt; EVT_CHANGE_DEPENDENCIES \&gt;">
<polygon fill="white" stroke="black" points="0,-188.5 0,-216.5 185.497,-216.5 185.497,-188.5 0,-188.5"/>
<text text-anchor="start" x="8" y="-204.5" font-family="Helvetica,sans-Serif" font-size="10.00">ocra::ObserverBase</text>
<text text-anchor="middle" x="92.7485" y="-194.5" font-family="Helvetica,sans-Serif" font-size="10.00">&lt; EVT_CHANGE_DEPENDENCIES &gt;</text>
</a>
</g>
</g>
<!-- Node6&#45;&gt;Node4 -->
<g id="edge6" class="edge"><title>Node6&#45;&gt;Node4</title>
<path fill="none" stroke="midnightblue" d="M195.441,-187.957C204.506,-186.66 213.28,-185.405 221.314,-184.256"/>
<polygon fill="midnightblue" stroke="midnightblue" points="194.916,-184.496 185.512,-189.376 195.907,-191.425 194.916,-184.496"/>
</g>
<!-- Node7 -->
<g id="node8" class="node"><title>Node7</title>
<g id="a_node8"><a xlink:href="../../d4/dee/classocra_1_1ObserverBase.html" target="_top" xlink:title="ocra::ObserverBase\l\&lt; EVT_CHANGE_VALUE \&gt;">
<polygon fill="white" stroke="black" points="23.4253,-141.5 23.4253,-169.5 162.072,-169.5 162.072,-141.5 23.4253,-141.5"/>
<text text-anchor="start" x="31.4253" y="-157.5" font-family="Helvetica,sans-Serif" font-size="10.00">ocra::ObserverBase</text>
<text text-anchor="middle" x="92.7485" y="-147.5" font-family="Helvetica,sans-Serif" font-size="10.00">&lt; EVT_CHANGE_VALUE &gt;</text>
</a>
</g>
</g>
<!-- Node7&#45;&gt;Node4 -->
<g id="edge7" class="edge"><title>Node7&#45;&gt;Node4</title>
<path fill="none" stroke="midnightblue" d="M172.838,-166.34C189.55,-168.63 206.517,-170.956 221.077,-172.951"/>
<polygon fill="midnightblue" stroke="midnightblue" points="172.872,-162.812 162.489,-164.921 171.922,-169.747 172.872,-162.812"/>
</g>
<!-- Node8 -->
<g id="node9" class="node"><title>Node8</title>
<g id="a_node9"><a xlink:href="../../dc/d77/classocra_1_1Subject.html" target="_top" xlink:title="ocra::Subject">
<polygon fill="white" stroke="black" points="225.381,-75.5 225.381,-93.5 299.746,-93.5 299.746,-75.5 225.381,-75.5"/>
<text text-anchor="middle" x="262.563" y="-81.5" font-family="Helvetica,sans-Serif" font-size="10.00">ocra::Subject</text>
</a>
</g>
</g>
<!-- Node8&#45;&gt;Node3 -->
<g id="edge8" class="edge"><title>Node8&#45;&gt;Node3</title>
<path fill="none" stroke="midnightblue" d="M295.752,-97.2376C309.243,-102.455 325.134,-108.442 339.63,-113.5 348.412,-116.564 358.033,-119.699 366.817,-122.475"/>
<polygon fill="midnightblue" stroke="midnightblue" points="296.995,-93.9657 286.406,-93.5991 294.455,-100.489 296.995,-93.9657"/>
</g>
<!-- Node9 -->
<g id="node10" class="node"><title>Node9</title>
<g id="a_node10"><a xlink:href="../../dc/d29/classocra_1_1SubjectBase.html" target="_top" xlink:title="ocra::SubjectBase\&lt;\l EVT_RESIZE \&gt;">
<polygon fill="white" stroke="black" points="41.25,-94.5 41.25,-122.5 144.247,-122.5 144.247,-94.5 41.25,-94.5"/>
<text text-anchor="start" x="49.25" y="-110.5" font-family="Helvetica,sans-Serif" font-size="10.00">ocra::SubjectBase&lt;</text>
<text text-anchor="middle" x="92.7485" y="-100.5" font-family="Helvetica,sans-Serif" font-size="10.00"> EVT_RESIZE &gt;</text>
</a>
</g>
</g>
<!-- Node9&#45;&gt;Node8 -->
<g id="edge9" class="edge"><title>Node9&#45;&gt;Node8</title>
<path fill="none" stroke="midnightblue" d="M154.534,-99.8067C178.262,-96.4133 204.665,-92.6373 225.31,-89.6848"/>
<polygon fill="midnightblue" stroke="midnightblue" points="153.958,-96.3535 144.554,-101.234 154.949,-103.283 153.958,-96.3535"/>
</g>
<!-- Node10 -->
<g id="node11" class="node"><title>Node10</title>
<g id="a_node11"><a xlink:href="../../dc/d29/classocra_1_1SubjectBase.html" target="_top" xlink:title="ocra::SubjectBase\&lt;\l EVT_CHANGE_DEPENDENCIES \&gt;">
<polygon fill="white" stroke="black" points="2.91992,-47.5 2.91992,-75.5 182.577,-75.5 182.577,-47.5 2.91992,-47.5"/>
<text text-anchor="start" x="10.9199" y="-63.5" font-family="Helvetica,sans-Serif" font-size="10.00">ocra::SubjectBase&lt;</text>
<text text-anchor="middle" x="92.7485" y="-53.5" font-family="Helvetica,sans-Serif" font-size="10.00"> EVT_CHANGE_DEPENDENCIES &gt;</text>
</a>
</g>
</g>
<!-- Node10&#45;&gt;Node8 -->
<g id="edge10" class="edge"><title>Node10&#45;&gt;Node8</title>
<path fill="none" stroke="midnightblue" d="M193.112,-75.1184C204.461,-76.6738 215.419,-78.1756 225.116,-79.5047"/>
<polygon fill="midnightblue" stroke="midnightblue" points="193.443,-71.6311 183.061,-73.7408 192.493,-78.5663 193.443,-71.6311"/>
</g>
<!-- Node11 -->
<g id="node12" class="node"><title>Node11</title>
<g id="a_node12"><a xlink:href="../../dc/d29/classocra_1_1SubjectBase.html" target="_top" xlink:title="ocra::SubjectBase\&lt;\l EVT_CHANGE_VALUE \&gt;">
<polygon fill="white" stroke="black" points="26.3452,-0.5 26.3452,-28.5 159.152,-28.5 159.152,-0.5 26.3452,-0.5"/>
<text text-anchor="start" x="34.3452" y="-16.5" font-family="Helvetica,sans-Serif" font-size="10.00">ocra::SubjectBase&lt;</text>
<text text-anchor="middle" x="92.7485" y="-6.5" font-family="Helvetica,sans-Serif" font-size="10.00"> EVT_CHANGE_VALUE &gt;</text>
</a>
</g>
</g>
<!-- Node11&#45;&gt;Node8 -->
<g id="edge11" class="edge"><title>Node11&#45;&gt;Node8</title>
<path fill="none" stroke="midnightblue" d="M168.869,-31.2914C174.566,-33.1824 180.167,-35.2493 185.497,-37.5 209.665,-47.7052 235.074,-64.9193 249.553,-75.4408"/>
<polygon fill="midnightblue" stroke="midnightblue" points="169.813,-27.9194 159.224,-28.2737 167.723,-34.6 169.813,-27.9194"/>
</g>
<!-- Node12 -->
<g id="node13" class="node"><title>Node12</title>
<g id="a_node13"><a xlink:href="../../db/de3/classocra_1_1NamedInstance.html" target="_top" xlink:title="ocra::NamedInstance">
<polygon fill="white" stroke="black" points="341.849,-85.5 341.849,-103.5 452.898,-103.5 452.898,-85.5 341.849,-85.5"/>
<text text-anchor="middle" x="397.374" y="-91.5" font-family="Helvetica,sans-Serif" font-size="10.00">ocra::NamedInstance</text>
</a>
</g>
</g>
<!-- Node12&#45;&gt;Node2 -->
<g id="edge12" class="edge"><title>Node12&#45;&gt;Node2</title>
<path fill="none" stroke="midnightblue" d="M463.056,-103.71C472.64,-105.074 482.179,-106.432 490.791,-107.659"/>
<polygon fill="midnightblue" stroke="midnightblue" points="463.482,-100.235 453.088,-102.29 462.495,-107.165 463.482,-100.235"/>
</g>
</g>
</svg>
