<?xml version="1.0" encoding="UTF-8" standalone="no"?>
<!DOCTYPE svg PUBLIC "-//W3C//DTD SVG 1.1//EN"
 "http://www.w3.org/Graphics/SVG/1.1/DTD/svg11.dtd">
<!-- Generated by graphviz version 2.38.0 (20140413.2041)
 -->
<!-- Title: Constraint.h Pages: 1 -->
<svg width="1544pt" height="507pt"
 viewBox="0.00 0.00 1543.62 507.00" xmlns="http://www.w3.org/2000/svg" xmlns:xlink="http://www.w3.org/1999/xlink">
<g id="graph0" class="graph" transform="scale(1 1) rotate(0) translate(4 503)">
<title>Constraint.h</title>
<polygon fill="white" stroke="none" points="-4,4 -4,-503 1539.62,-503 1539.62,4 -4,4"/>
<!-- Node0 -->
<g id="node1" class="node"><title>Node0</title>
<polygon fill="#bfbfbf" stroke="black" points="778.042,-480.5 778.042,-498.5 847.958,-498.5 847.958,-480.5 778.042,-480.5"/>
<text text-anchor="middle" x="813" y="-486.5" font-family="Helvetica,sans-Serif" font-size="10.00">Constraint.h</text>
</g>
<!-- Node1 -->
<g id="node2" class="node"><title>Node1</title>
<g id="a_node2"><a xlink:href="../../d7/d90/Variable_8h.html" target="_top" xlink:title="Declaration file of the Variable class. ">
<polygon fill="white" stroke="black" points="527.123,-190.5 527.123,-208.5 636.877,-208.5 636.877,-190.5 527.123,-190.5"/>
<text text-anchor="middle" x="582" y="-196.5" font-family="Helvetica,sans-Serif" font-size="10.00">ocra/optim/Variable.h</text>
</a>
</g>
</g>
<!-- Node0&#45;&gt;Node1 -->
<g id="edge1" class="edge"><title>Node0&#45;&gt;Node1</title>
<path fill="none" stroke="midnightblue" d="M777.916,-486.993C713.295,-482.136 582,-461.666 582,-375.5 582,-375.5 582,-375.5 582,-313.5 582,-280.088 582,-241.119 582,-218.775"/>
<polygon fill="midnightblue" stroke="midnightblue" points="585.5,-218.723 582,-208.723 578.5,-218.724 585.5,-218.723"/>
</g>
<!-- Node8 -->
<g id="node9" class="node"><title>Node8</title>
<polygon fill="white" stroke="#bfbfbf" points="458.313,-0.5 458.313,-28.5 557.687,-28.5 557.687,-0.5 458.313,-0.5"/>
<text text-anchor="start" x="466.313" y="-16.5" font-family="Helvetica,sans-Serif" font-size="10.00">boost/type_traits/is</text>
<text text-anchor="middle" x="508" y="-6.5" font-family="Helvetica,sans-Serif" font-size="10.00">_base_of.hpp</text>
</g>
<!-- Node0&#45;&gt;Node8 -->
<g id="edge57" class="edge"><title>Node0&#45;&gt;Node8</title>
<path fill="none" stroke="midnightblue" d="M777.941,-487.14C626.733,-480.821 38,-451.346 38,-375.5 38,-375.5 38,-375.5 38,-138.5 38,-104.76 31.4913,-87.0845 57,-65 64.3235,-58.6596 326.825,-32.8228 447.912,-21.2058"/>
<polygon fill="midnightblue" stroke="midnightblue" points="448.508,-24.6648 458.129,-20.2271 447.841,-17.6967 448.508,-24.6648"/>
</g>
<!-- Node9 -->
<g id="node10" class="node"><title>Node9</title>
<polygon fill="white" stroke="#bfbfbf" points="237.582,-5.5 237.582,-23.5 356.418,-23.5 356.418,-5.5 237.582,-5.5"/>
<text text-anchor="middle" x="297" y="-11.5" font-family="Helvetica,sans-Serif" font-size="10.00">boost/static_assert.hpp</text>
</g>
<!-- Node0&#45;&gt;Node9 -->
<g id="edge56" class="edge"><title>Node0&#45;&gt;Node9</title>
<path fill="none" stroke="midnightblue" d="M777.765,-487.852C658.112,-485.385 268.079,-475.096 147,-444 77.1872,-426.07 0,-447.578 0,-375.5 0,-375.5 0,-375.5 0,-138.5 0,-102.319 6.34077,-87.0847 35,-65 64.4707,-42.2899 160.234,-28.583 227.416,-21.5269"/>
<polygon fill="midnightblue" stroke="midnightblue" points="227.932,-24.9925 237.524,-20.4925 227.22,-18.0289 227.932,-24.9925"/>
</g>
<!-- Node23 -->
<g id="node24" class="node"><title>Node23</title>
<g id="a_node24"><a xlink:href="../../df/df5/Function_8h.html" target="_top" xlink:title="Declaration file of the Function class. ">
<polygon fill="white" stroke="black" points="800.921,-250.5 800.921,-268.5 913.079,-268.5 913.079,-250.5 800.921,-250.5"/>
<text text-anchor="middle" x="857" y="-256.5" font-family="Helvetica,sans-Serif" font-size="10.00">ocra/optim/Function.h</text>
</a>
</g>
</g>
<!-- Node0&#45;&gt;Node23 -->
<g id="edge32" class="edge"><title>Node0&#45;&gt;Node23</title>
<path fill="none" stroke="midnightblue" d="M805.346,-480.435C797.986,-472.075 787.357,-458.257 783,-444 780.532,-435.924 781.228,-433.257 783,-425 795.283,-367.756 829.092,-306.388 846.436,-277.451"/>
<polygon fill="midnightblue" stroke="midnightblue" points="849.599,-278.986 851.821,-268.627 843.624,-275.339 849.599,-278.986"/>
</g>
<!-- Node33 -->
<g id="node34" class="node"><title>Node33</title>
<g id="a_node34"><a xlink:href="../../df/d55/FunctionInterfaceMapping_8h.html" target="_top" xlink:title="Declaration file of the FunctionInterfaceMapping struct. ">
<polygon fill="white" stroke="black" points="609.636,-360.5 609.636,-388.5 752.364,-388.5 752.364,-360.5 609.636,-360.5"/>
<text text-anchor="start" x="617.636" y="-376.5" font-family="Helvetica,sans-Serif" font-size="10.00">ocra/optim/FunctionInterface</text>
<text text-anchor="middle" x="681" y="-366.5" font-family="Helvetica,sans-Serif" font-size="10.00">Mapping.h</text>
</a>
</g>
</g>
<!-- Node0&#45;&gt;Node33 -->
<g id="edge52" class="edge"><title>Node0&#45;&gt;Node33</title>
<path fill="none" stroke="midnightblue" d="M799.989,-480.232C786.917,-471.715 766.41,-457.776 750,-444 732.002,-428.89 713.173,-409.956 699.74,-395.826"/>
<polygon fill="midnightblue" stroke="midnightblue" points="702.273,-393.41 692.871,-388.525 697.174,-398.207 702.273,-393.41"/>
</g>
<!-- Node34 -->
<g id="node35" class="node"><title>Node34</title>
<g id="a_node35"><a xlink:href="../../df/d0a/Macros_8h.html" target="_top" xlink:title="ocra/util/Macros.h">
<polygon fill="white" stroke="black" points="1152.54,-250.5 1152.54,-268.5 1247.46,-268.5 1247.46,-250.5 1152.54,-250.5"/>
<text text-anchor="middle" x="1200" y="-256.5" font-family="Helvetica,sans-Serif" font-size="10.00">ocra/util/Macros.h</text>
</a>
</g>
</g>
<!-- Node0&#45;&gt;Node34 -->
<g id="edge54" class="edge"><title>Node0&#45;&gt;Node34</title>
<path fill="none" stroke="midnightblue" d="M848.167,-488.994C927.493,-489.349 1116.95,-485.695 1162,-444 1208.75,-400.731 1206.22,-316.299 1202.44,-278.987"/>
<polygon fill="midnightblue" stroke="midnightblue" points="1205.87,-278.166 1201.23,-268.64 1198.91,-278.979 1205.87,-278.166"/>
</g>
<!-- Node36 -->
<g id="node37" class="node"><title>Node36</title>
<g id="a_node37"><a xlink:href="../../dc/d8a/LinearFunction_8h.html" target="_top" xlink:title="Declaration file of the LinearFunction class. ">
<polygon fill="white" stroke="black" points="987.022,-305.5 987.022,-323.5 1126.98,-323.5 1126.98,-305.5 987.022,-305.5"/>
<text text-anchor="middle" x="1057" y="-311.5" font-family="Helvetica,sans-Serif" font-size="10.00">ocra/optim/LinearFunction.h</text>
</a>
</g>
</g>
<!-- Node0&#45;&gt;Node36 -->
<g id="edge58" class="edge"><title>Node0&#45;&gt;Node36</title>
<path fill="none" stroke="midnightblue" d="M848.002,-489.291C924.938,-490.202 1104.95,-487.524 1143,-444 1176.41,-405.782 1113.54,-353.91 1078.39,-329.41"/>
<polygon fill="midnightblue" stroke="midnightblue" points="1079.97,-326.246 1069.73,-323.526 1076.03,-332.038 1079.97,-326.246"/>
</g>
<!-- Node37 -->
<g id="node38" class="node"><title>Node37</title>
<g id="a_node38"><a xlink:href="../../de/d69/BoundFunction_8h.html" target="_top" xlink:title="Declaration file of the BoundFunction class. ">
<polygon fill="white" stroke="black" points="792.463,-425.5 792.463,-443.5 933.537,-443.5 933.537,-425.5 792.463,-425.5"/>
<text text-anchor="middle" x="863" y="-431.5" font-family="Helvetica,sans-Serif" font-size="10.00">ocra/optim/BoundFunction.h</text>
</a>
</g>
</g>
<!-- Node0&#45;&gt;Node37 -->
<g id="edge61" class="edge"><title>Node0&#45;&gt;Node37</title>
<path fill="none" stroke="midnightblue" d="M820.812,-480.219C828.194,-472.394 839.45,-460.463 848.479,-450.892"/>
<polygon fill="midnightblue" stroke="midnightblue" points="851.09,-453.225 855.406,-443.55 845.998,-448.422 851.09,-453.225"/>
</g>
<!-- Node38 -->
<g id="node39" class="node"><title>Node38</title>
<g id="a_node39"><a xlink:href="../../dc/d6f/DiagonalLinearFunction_8h.html" target="_top" xlink:title="Declaration file of the DiagonalLinearFunction class. ">
<polygon fill="white" stroke="black" points="945.633,-360.5 945.633,-388.5 1078.37,-388.5 1078.37,-360.5 945.633,-360.5"/>
<text text-anchor="start" x="953.633" y="-376.5" font-family="Helvetica,sans-Serif" font-size="10.00">ocra/optim/DiagonalLinear</text>
<text text-anchor="middle" x="1012" y="-366.5" font-family="Helvetica,sans-Serif" font-size="10.00">Function.h</text>
</a>
</g>
</g>
<!-- Node0&#45;&gt;Node38 -->
<g id="edge66" class="edge"><title>Node0&#45;&gt;Node38</title>
<path fill="none" stroke="midnightblue" d="M847.992,-481.091C875.291,-474.266 913.414,-462.376 943,-444 963.447,-431.301 982.523,-411.496 995.412,-396.441"/>
<polygon fill="midnightblue" stroke="midnightblue" points="998.197,-398.567 1001.91,-388.642 992.818,-394.088 998.197,-398.567"/>
</g>
<!-- Node39 -->
<g id="node40" class="node"><title>Node39</title>
<g id="a_node40"><a xlink:href="../../de/d7a/IdentityFunction_8h.html" target="_top" xlink:title="Declaration file of the IdentityFunction class. ">
<polygon fill="white" stroke="black" points="989.801,-425.5 989.801,-443.5 1134.2,-443.5 1134.2,-425.5 989.801,-425.5"/>
<text text-anchor="middle" x="1062" y="-431.5" font-family="Helvetica,sans-Serif" font-size="10.00">ocra/optim/IdentityFunction.h</text>
</a>
</g>
</g>
<!-- Node0&#45;&gt;Node39 -->
<g id="edge64" class="edge"><title>Node0&#45;&gt;Node39</title>
<path fill="none" stroke="midnightblue" d="M848.148,-481.019C891.576,-471.775 965.663,-456.006 1014.22,-445.669"/>
<polygon fill="midnightblue" stroke="midnightblue" points="1015.13,-449.056 1024.18,-443.55 1013.67,-442.209 1015.13,-449.056"/>
</g>
<!-- Node2 -->
<g id="node3" class="node"><title>Node2</title>
<g id="a_node3"><a xlink:href="../../d8/ddc/ObserverSubject_8h.html" target="_top" xlink:title="Declaration file of the Observer, Subject and ObserverSubject classes. ">
<polygon fill="white" stroke="black" points="634.86,-130.5 634.86,-148.5 783.14,-148.5 783.14,-130.5 634.86,-130.5"/>
<text text-anchor="middle" x="709" y="-136.5" font-family="Helvetica,sans-Serif" font-size="10.00">ocra/optim/ObserverSubject.h</text>
</a>
</g>
</g>
<!-- Node1&#45;&gt;Node2 -->
<g id="edge2" class="edge"><title>Node1&#45;&gt;Node2</title>
<path fill="none" stroke="midnightblue" d="M599.659,-190.435C620.959,-180.708 656.993,-164.251 681.839,-152.904"/>
<polygon fill="midnightblue" stroke="midnightblue" points="683.439,-156.021 691.082,-148.683 680.531,-149.654 683.439,-156.021"/>
</g>
<!-- Node13 -->
<g id="node14" class="node"><title>Node13</title>
<g id="a_node14"><a xlink:href="../../d1/de6/Composite_8h.html" target="_top" xlink:title="Utility classes and functions to implement the Composite design pattern. ">
<polygon fill="white" stroke="black" points="407.2,-130.5 407.2,-148.5 528.8,-148.5 528.8,-130.5 407.2,-130.5"/>
<text text-anchor="middle" x="468" y="-136.5" font-family="Helvetica,sans-Serif" font-size="10.00">ocra/optim/Composite.h</text>
</a>
</g>
</g>
<!-- Node1&#45;&gt;Node13 -->
<g id="edge16" class="edge"><title>Node1&#45;&gt;Node13</title>
<path fill="none" stroke="midnightblue" d="M566.149,-190.435C547.283,-180.837 515.54,-164.687 493.274,-153.359"/>
<polygon fill="midnightblue" stroke="midnightblue" points="494.584,-150.098 484.084,-148.683 491.41,-156.337 494.584,-150.098"/>
</g>
<!-- Node16 -->
<g id="node17" class="node"><title>Node16</title>
<polygon fill="white" stroke="#bfbfbf" points="66.291,-70.5 66.291,-88.5 185.709,-88.5 185.709,-70.5 66.291,-70.5"/>
<text text-anchor="middle" x="126" y="-76.5" font-family="Helvetica,sans-Serif" font-size="10.00">boost/noncopyable.hpp</text>
</g>
<!-- Node1&#45;&gt;Node16 -->
<g id="edge29" class="edge"><title>Node1&#45;&gt;Node16</title>
<path fill="none" stroke="midnightblue" d="M551.016,-190.482C470.914,-169.754 256.956,-114.388 166.875,-91.0773"/>
<polygon fill="midnightblue" stroke="midnightblue" points="167.585,-87.6458 157.027,-88.5289 165.831,-94.4225 167.585,-87.6458"/>
</g>
<!-- Node18 -->
<g id="node19" class="node"><title>Node18</title>
<polygon fill="white" stroke="#bfbfbf" points="1142.38,-70.5 1142.38,-88.5 1185.62,-88.5 1185.62,-70.5 1142.38,-70.5"/>
<text text-anchor="middle" x="1164" y="-76.5" font-family="Helvetica,sans-Serif" font-size="10.00">vector</text>
</g>
<!-- Node1&#45;&gt;Node18 -->
<g id="edge31" class="edge"><title>Node1&#45;&gt;Node18</title>
<path fill="none" stroke="midnightblue" d="M630.039,-190.467C673.209,-182.48 737.941,-168.584 792,-149 809.753,-142.568 811.927,-135.468 830,-130 953.891,-92.5175 992.345,-120.69 1119,-94 1123.43,-93.0665 1128.05,-91.9033 1132.58,-90.6538"/>
<polygon fill="midnightblue" stroke="midnightblue" points="1133.6,-94.0018 1142.22,-87.8364 1131.64,-87.283 1133.6,-94.0018"/>
</g>
<!-- Node21 -->
<g id="node22" class="node"><title>Node21</title>
<polygon fill="white" stroke="#bfbfbf" points="547.035,-130.5 547.035,-148.5 616.965,-148.5 616.965,-130.5 547.035,-130.5"/>
<text text-anchor="middle" x="582" y="-136.5" font-family="Helvetica,sans-Serif" font-size="10.00">Eigen/Eigen</text>
</g>
<!-- Node1&#45;&gt;Node21 -->
<g id="edge28" class="edge"><title>Node1&#45;&gt;Node21</title>
<path fill="none" stroke="midnightblue" d="M582,-190.435C582,-182.389 582,-169.739 582,-159.185"/>
<polygon fill="midnightblue" stroke="midnightblue" points="585.5,-158.872 582,-148.872 578.5,-158.872 585.5,-158.872"/>
</g>
<!-- Node22 -->
<g id="node23" class="node"><title>Node22</title>
<polygon fill="white" stroke="#bfbfbf" points="838.773,-130.5 838.773,-148.5 879.227,-148.5 879.227,-130.5 838.773,-130.5"/>
<text text-anchor="middle" x="859" y="-136.5" font-family="Helvetica,sans-Serif" font-size="10.00">string</text>
</g>
<!-- Node1&#45;&gt;Node22 -->
<g id="edge30" class="edge"><title>Node1&#45;&gt;Node22</title>
<path fill="none" stroke="midnightblue" d="M624.264,-190.476C672.835,-181.119 754.88,-164.899 825,-149 826.235,-148.72 827.494,-148.429 828.765,-148.132"/>
<polygon fill="midnightblue" stroke="midnightblue" points="829.64,-151.521 838.539,-145.77 827.996,-144.717 829.64,-151.521"/>
</g>
<!-- Node3 -->
<g id="node4" class="node"><title>Node3</title>
<g id="a_node4"><a xlink:href="../../df/d67/ObserverSubjectBase_8h.html" target="_top" xlink:title="Declaration file of the Observer and Subject base classes. ">
<polygon fill="white" stroke="black" points="946.03,-65.5 946.03,-93.5 1085.97,-93.5 1085.97,-65.5 946.03,-65.5"/>
<text text-anchor="start" x="954.03" y="-81.5" font-family="Helvetica,sans-Serif" font-size="10.00">ocra/optim/ObserverSubject</text>
<text text-anchor="middle" x="1016" y="-71.5" font-family="Helvetica,sans-Serif" font-size="10.00">Base.h</text>
</a>
</g>
</g>
<!-- Node2&#45;&gt;Node3 -->
<g id="edge3" class="edge"><title>Node2&#45;&gt;Node3</title>
<path fill="none" stroke="midnightblue" d="M751.365,-130.496C799.101,-121.478 877.745,-106.62 936.921,-95.44"/>
<polygon fill="midnightblue" stroke="midnightblue" points="937.809,-98.8341 946.986,-93.5385 936.51,-91.9558 937.809,-98.8341"/>
</g>
<!-- Node7 -->
<g id="node8" class="node"><title>Node7</title>
<polygon fill="white" stroke="#bfbfbf" points="1073.31,-0.5 1073.31,-28.5 1172.69,-28.5 1172.69,-0.5 1073.31,-0.5"/>
<text text-anchor="start" x="1081.31" y="-16.5" font-family="Helvetica,sans-Serif" font-size="10.00">boost/type_traits/is</text>
<text text-anchor="middle" x="1123" y="-6.5" font-family="Helvetica,sans-Serif" font-size="10.00">_class.hpp</text>
</g>
<!-- Node2&#45;&gt;Node7 -->
<g id="edge15" class="edge"><title>Node2&#45;&gt;Node7</title>
<path fill="none" stroke="midnightblue" d="M783.335,-130.926C893.776,-119.534 1088.95,-98.8067 1095,-94 1111.68,-80.7427 1118.44,-56.7599 1121.17,-38.7791"/>
<polygon fill="midnightblue" stroke="midnightblue" points="1124.65,-39.108 1122.37,-28.7608 1117.7,-38.2695 1124.65,-39.108"/>
</g>
<!-- Node2&#45;&gt;Node8 -->
<g id="edge13" class="edge"><title>Node2&#45;&gt;Node8</title>
<path fill="none" stroke="midnightblue" d="M744.06,-130.488C786.676,-119.166 849.783,-96.3202 823,-65 818.865,-60.1639 658.097,-36.729 567.883,-23.9143"/>
<polygon fill="midnightblue" stroke="midnightblue" points="568.172,-20.4204 557.78,-22.4817 567.189,-27.351 568.172,-20.4204"/>
</g>
<!-- Node2&#45;&gt;Node9 -->
<g id="edge12" class="edge"><title>Node2&#45;&gt;Node9</title>
<path fill="none" stroke="midnightblue" d="M704.016,-130.415C693.912,-114.808 669.374,-80.688 639,-65 615.334,-52.7766 459.916,-33.6906 366.934,-23.146"/>
<polygon fill="midnightblue" stroke="midnightblue" points="367.08,-19.6404 356.75,-21.997 366.295,-26.5962 367.08,-19.6404"/>
</g>
<!-- Node11 -->
<g id="node12" class="node"><title>Node11</title>
<g id="a_node12"><a xlink:href="../../db/ddf/ocra__events_8h.html" target="_top" xlink:title="ocra/optim/ocra_events.h">
<polygon fill="white" stroke="black" points="685.86,-70.5 685.86,-88.5 814.14,-88.5 814.14,-70.5 685.86,-70.5"/>
<text text-anchor="middle" x="750" y="-76.5" font-family="Helvetica,sans-Serif" font-size="10.00">ocra/optim/ocra_events.h</text>
</a>
</g>
</g>
<!-- Node2&#45;&gt;Node11 -->
<g id="edge11" class="edge"><title>Node2&#45;&gt;Node11</title>
<path fill="none" stroke="midnightblue" d="M714.701,-130.435C720.752,-121.876 730.486,-108.105 738.201,-97.1909"/>
<polygon fill="midnightblue" stroke="midnightblue" points="741.168,-99.0579 744.082,-88.8718 735.452,-95.0172 741.168,-99.0579"/>
</g>
<!-- Node12 -->
<g id="node13" class="node"><title>Node12</title>
<polygon fill="white" stroke="#bfbfbf" points="530.313,-65.5 530.313,-93.5 629.687,-93.5 629.687,-65.5 530.313,-65.5"/>
<text text-anchor="start" x="538.313" y="-81.5" font-family="Helvetica,sans-Serif" font-size="10.00">boost/type_traits/is</text>
<text text-anchor="middle" x="580" y="-71.5" font-family="Helvetica,sans-Serif" font-size="10.00">_convertible.hpp</text>
</g>
<!-- Node2&#45;&gt;Node12 -->
<g id="edge14" class="edge"><title>Node2&#45;&gt;Node12</title>
<path fill="none" stroke="midnightblue" d="M691.063,-130.435C672.361,-122.027 642.476,-108.59 618.416,-97.7721"/>
<polygon fill="midnightblue" stroke="midnightblue" points="619.737,-94.5289 609.181,-93.6203 616.867,-100.913 619.737,-94.5289"/>
</g>
<!-- Node4 -->
<g id="node5" class="node"><title>Node4</title>
<polygon fill="white" stroke="#bfbfbf" points="900.596,-5.5 900.596,-23.5 959.404,-23.5 959.404,-5.5 900.596,-5.5"/>
<text text-anchor="middle" x="930" y="-11.5" font-family="Helvetica,sans-Serif" font-size="10.00">functional</text>
</g>
<!-- Node3&#45;&gt;Node4 -->
<g id="edge4" class="edge"><title>Node3&#45;&gt;Node4</title>
<path fill="none" stroke="midnightblue" d="M998.181,-65.4464C983.921,-55 963.956,-40.3747 949.315,-29.6496"/>
<polygon fill="midnightblue" stroke="midnightblue" points="951.122,-26.6341 940.986,-23.548 946.985,-32.2811 951.122,-26.6341"/>
</g>
<!-- Node5 -->
<g id="node6" class="node"><title>Node5</title>
<polygon fill="white" stroke="#bfbfbf" points="619.436,-5.5 619.436,-23.5 676.564,-23.5 676.564,-5.5 619.436,-5.5"/>
<text text-anchor="middle" x="648" y="-11.5" font-family="Helvetica,sans-Serif" font-size="10.00">algorithm</text>
</g>
<!-- Node3&#45;&gt;Node5 -->
<g id="edge5" class="edge"><title>Node3&#45;&gt;Node5</title>
<path fill="none" stroke="midnightblue" d="M945.916,-66.5019C869.033,-53.34 748.405,-32.6889 686.893,-22.1583"/>
<polygon fill="midnightblue" stroke="midnightblue" points="687.278,-18.6734 676.831,-20.4357 686.097,-25.573 687.278,-18.6734"/>
</g>
<!-- Node6 -->
<g id="node7" class="node"><title>Node6</title>
<polygon fill="white" stroke="#bfbfbf" points="976.955,-5.5 976.955,-23.5 1055.04,-23.5 1055.04,-5.5 976.955,-5.5"/>
<text text-anchor="middle" x="1016" y="-11.5" font-family="Helvetica,sans-Serif" font-size="10.00">boost/any.hpp</text>
</g>
<!-- Node3&#45;&gt;Node6 -->
<g id="edge6" class="edge"><title>Node3&#45;&gt;Node6</title>
<path fill="none" stroke="midnightblue" d="M1016,-65.4464C1016,-56.3336 1016,-44.0406 1016,-33.9308"/>
<polygon fill="midnightblue" stroke="midnightblue" points="1019.5,-33.7301 1016,-23.7301 1012.5,-33.7301 1019.5,-33.7301"/>
</g>
<!-- Node3&#45;&gt;Node7 -->
<g id="edge7" class="edge"><title>Node3&#45;&gt;Node7</title>
<path fill="none" stroke="midnightblue" d="M1038.17,-65.4464C1053.81,-56.239 1074.96,-43.785 1092.23,-33.6167"/>
<polygon fill="midnightblue" stroke="midnightblue" points="1094.02,-36.6267 1100.86,-28.5369 1090.46,-30.5946 1094.02,-36.6267"/>
</g>
<!-- Node3&#45;&gt;Node8 -->
<g id="edge8" class="edge"><title>Node3&#45;&gt;Node8</title>
<path fill="none" stroke="midnightblue" d="M945.823,-66.2844C942.844,-65.8365 939.894,-65.4061 937,-65 792.208,-44.6767 755.149,-46.5932 610,-29 596.301,-27.3396 581.582,-25.452 567.706,-23.6255"/>
<polygon fill="midnightblue" stroke="midnightblue" points="568.15,-20.1539 557.777,-22.3105 567.231,-27.0933 568.15,-20.1539"/>
</g>
<!-- Node3&#45;&gt;Node9 -->
<g id="edge9" class="edge"><title>Node3&#45;&gt;Node9</title>
<path fill="none" stroke="midnightblue" d="M945.84,-66.1525C942.857,-65.7407 939.9,-65.354 937,-65 721.124,-38.6534 665.763,-46.6204 449,-29 422.076,-26.8113 392.485,-24.2245 366.624,-21.9039"/>
<polygon fill="midnightblue" stroke="midnightblue" points="366.812,-18.4066 356.538,-20.9953 366.183,-25.3784 366.812,-18.4066"/>
</g>
<!-- Node10 -->
<g id="node11" class="node"><title>Node10</title>
<polygon fill="white" stroke="#bfbfbf" points="781.195,-0.5 781.195,-28.5 882.805,-28.5 882.805,-0.5 781.195,-0.5"/>
<text text-anchor="start" x="789.195" y="-16.5" font-family="Helvetica,sans-Serif" font-size="10.00">boost/ptr_container</text>
<text text-anchor="middle" x="832" y="-6.5" font-family="Helvetica,sans-Serif" font-size="10.00">/ptr_vector.hpp</text>
</g>
<!-- Node3&#45;&gt;Node10 -->
<g id="edge10" class="edge"><title>Node3&#45;&gt;Node10</title>
<path fill="none" stroke="midnightblue" d="M977.875,-65.4464C949.38,-55.6899 910.238,-42.2882 879.674,-31.8231"/>
<polygon fill="midnightblue" stroke="midnightblue" points="880.671,-28.465 870.076,-28.5369 878.403,-35.0876 880.671,-28.465"/>
</g>
<!-- Node13&#45;&gt;Node5 -->
<g id="edge25" class="edge"><title>Node13&#45;&gt;Node5</title>
<path fill="none" stroke="midnightblue" d="M471.803,-130.483C479.246,-115.59 497.117,-83.492 521,-65 547.215,-44.7028 582.773,-31.7962 609.597,-24.27"/>
<polygon fill="midnightblue" stroke="midnightblue" points="610.657,-27.6099 619.413,-21.6448 608.848,-20.8476 610.657,-27.6099"/>
</g>
<!-- Node13&#45;&gt;Node8 -->
<g id="edge21" class="edge"><title>Node13&#45;&gt;Node8</title>
<path fill="none" stroke="midnightblue" d="M469.907,-130.248C473.149,-116.548 480.15,-88.311 488,-65 490.986,-56.1323 494.728,-46.5607 498.164,-38.2195"/>
<polygon fill="midnightblue" stroke="midnightblue" points="501.481,-39.3599 502.133,-28.7852 495.029,-36.6454 501.481,-39.3599"/>
</g>
<!-- Node13&#45;&gt;Node9 -->
<g id="edge20" class="edge"><title>Node13&#45;&gt;Node9</title>
<path fill="none" stroke="midnightblue" d="M407.179,-135.549C345.056,-131.109 254.722,-120.221 233,-94 214.118,-71.2066 247.737,-44.4487 272.979,-28.7945"/>
<polygon fill="midnightblue" stroke="midnightblue" points="274.98,-31.6766 281.787,-23.5574 271.402,-25.6598 274.98,-31.6766"/>
</g>
<!-- Node13&#45;&gt;Node12 -->
<g id="edge22" class="edge"><title>Node13&#45;&gt;Node12</title>
<path fill="none" stroke="midnightblue" d="M483.573,-130.435C499.523,-122.176 524.841,-109.064 545.533,-98.3489"/>
<polygon fill="midnightblue" stroke="midnightblue" points="547.394,-101.327 554.664,-93.6203 544.175,-95.1109 547.394,-101.327"/>
</g>
<!-- Node14 -->
<g id="node15" class="node"><title>Node14</title>
<g id="a_node15"><a xlink:href="../../de/df3/ocra__assert_8h.html" target="_top" xlink:title="ocra/optim/ocra_assert.h">
<polygon fill="white" stroke="black" points="1203.98,-70.5 1203.98,-88.5 1330.02,-88.5 1330.02,-70.5 1203.98,-70.5"/>
<text text-anchor="middle" x="1267" y="-76.5" font-family="Helvetica,sans-Serif" font-size="10.00">ocra/optim/ocra_assert.h</text>
</a>
</g>
</g>
<!-- Node13&#45;&gt;Node14 -->
<g id="edge17" class="edge"><title>Node13&#45;&gt;Node14</title>
<path fill="none" stroke="midnightblue" d="M529.058,-130.845C532.08,-130.542 535.073,-130.258 538,-130 829.312,-104.36 904.667,-129.021 1195,-94 1202.9,-93.0469 1211.24,-91.7531 1219.34,-90.3421"/>
<polygon fill="midnightblue" stroke="midnightblue" points="1220.19,-93.7439 1229.4,-88.509 1218.94,-86.8571 1220.19,-93.7439"/>
</g>
<!-- Node13&#45;&gt;Node16 -->
<g id="edge19" class="edge"><title>Node13&#45;&gt;Node16</title>
<path fill="none" stroke="midnightblue" d="M418.072,-130.453C364.218,-121.717 275.97,-107.236 200,-94 193.344,-92.8404 186.356,-91.5981 179.442,-90.354"/>
<polygon fill="midnightblue" stroke="midnightblue" points="179.877,-86.8757 169.413,-88.5392 178.63,-93.7639 179.877,-86.8757"/>
</g>
<!-- Node17 -->
<g id="node18" class="node"><title>Node17</title>
<polygon fill="white" stroke="#bfbfbf" points="242.461,-65.5 242.461,-93.5 373.539,-93.5 373.539,-65.5 242.461,-65.5"/>
<text text-anchor="start" x="250.461" y="-81.5" font-family="Helvetica,sans-Serif" font-size="10.00">boost/type_traits/has</text>
<text text-anchor="middle" x="308" y="-71.5" font-family="Helvetica,sans-Serif" font-size="10.00">_nothrow_constructor.hpp</text>
</g>
<!-- Node13&#45;&gt;Node17 -->
<g id="edge23" class="edge"><title>Node13&#45;&gt;Node17</title>
<path fill="none" stroke="midnightblue" d="M445.753,-130.435C421.966,-121.813 383.593,-107.903 353.382,-96.9509"/>
<polygon fill="midnightblue" stroke="midnightblue" points="354.483,-93.6271 343.888,-93.5096 352.097,-100.208 354.483,-93.6271"/>
</g>
<!-- Node13&#45;&gt;Node18 -->
<g id="edge24" class="edge"><title>Node13&#45;&gt;Node18</title>
<path fill="none" stroke="midnightblue" d="M529.062,-130.88C532.082,-130.568 535.075,-130.272 538,-130 785.007,-107.039 848.985,-125.882 1095,-94 1107.36,-92.3984 1120.83,-89.9271 1132.57,-87.5346"/>
<polygon fill="midnightblue" stroke="midnightblue" points="1133.3,-90.9583 1142.36,-85.4762 1131.86,-84.1079 1133.3,-90.9583"/>
</g>
<!-- Node19 -->
<g id="node20" class="node"><title>Node19</title>
<polygon fill="white" stroke="#bfbfbf" points="391.828,-70.5 391.828,-88.5 436.172,-88.5 436.172,-70.5 391.828,-70.5"/>
<text text-anchor="middle" x="414" y="-76.5" font-family="Helvetica,sans-Serif" font-size="10.00">iosfwd</text>
</g>
<!-- Node13&#45;&gt;Node19 -->
<g id="edge26" class="edge"><title>Node13&#45;&gt;Node19</title>
<path fill="none" stroke="midnightblue" d="M460.492,-130.435C452.283,-121.619 438.928,-107.274 428.633,-96.2165"/>
<polygon fill="midnightblue" stroke="midnightblue" points="431.17,-93.8057 421.794,-88.8718 426.047,-98.5757 431.17,-93.8057"/>
</g>
<!-- Node20 -->
<g id="node21" class="node"><title>Node20</title>
<polygon fill="white" stroke="#bfbfbf" points="869.599,-70.5 869.599,-88.5 928.401,-88.5 928.401,-70.5 869.599,-70.5"/>
<text text-anchor="middle" x="899" y="-76.5" font-family="Helvetica,sans-Serif" font-size="10.00">stdexcept</text>
</g>
<!-- Node13&#45;&gt;Node20 -->
<g id="edge27" class="edge"><title>Node13&#45;&gt;Node20</title>
<path fill="none" stroke="midnightblue" d="M528.979,-131.029C622.785,-119.509 794.673,-98.2885 823,-94 834.888,-92.2003 847.778,-90.0039 859.507,-87.91"/>
<polygon fill="midnightblue" stroke="midnightblue" points="860.245,-91.3334 869.462,-86.1087 858.999,-84.4452 860.245,-91.3334"/>
</g>
<!-- Node15 -->
<g id="node16" class="node"><title>Node15</title>
<polygon fill="white" stroke="#bfbfbf" points="1245.94,-5.5 1245.94,-23.5 1288.06,-23.5 1288.06,-5.5 1245.94,-5.5"/>
<text text-anchor="middle" x="1267" y="-11.5" font-family="Helvetica,sans-Serif" font-size="10.00">cstdio</text>
</g>
<!-- Node14&#45;&gt;Node15 -->
<g id="edge18" class="edge"><title>Node14&#45;&gt;Node15</title>
<path fill="none" stroke="midnightblue" d="M1267,-70.2639C1267,-61.0635 1267,-45.881 1267,-33.8326"/>
<polygon fill="midnightblue" stroke="midnightblue" points="1270.5,-33.5389 1267,-23.539 1263.5,-33.539 1270.5,-33.5389"/>
</g>
<!-- Node23&#45;&gt;Node1 -->
<g id="edge48" class="edge"><title>Node23&#45;&gt;Node1</title>
<path fill="none" stroke="midnightblue" d="M819.051,-250.496C769.773,-240.103 683.726,-221.955 629.973,-210.618"/>
<polygon fill="midnightblue" stroke="midnightblue" points="630.508,-207.154 620.001,-208.515 629.063,-214.003 630.508,-207.154"/>
</g>
<!-- Node23&#45;&gt;Node2 -->
<g id="edge49" class="edge"><title>Node23&#45;&gt;Node2</title>
<path fill="none" stroke="midnightblue" d="M800.804,-251.521C755.958,-244.661 698.347,-232.504 684,-214 670.883,-197.082 683.665,-172.865 695.259,-156.918"/>
<polygon fill="midnightblue" stroke="midnightblue" points="698.354,-158.64 701.743,-148.601 692.834,-154.336 698.354,-158.64"/>
</g>
<!-- Node24 -->
<g id="node25" class="node"><title>Node24</title>
<g id="a_node25"><a xlink:href="../../de/d94/IFunction_8h.html" target="_top" xlink:title="Declaration file of the IFunction interface. ">
<polygon fill="white" stroke="black" points="1209.53,-130.5 1209.53,-148.5 1324.47,-148.5 1324.47,-130.5 1209.53,-130.5"/>
<text text-anchor="middle" x="1267" y="-136.5" font-family="Helvetica,sans-Serif" font-size="10.00">ocra/optim/IFunction.h</text>
</a>
</g>
</g>
<!-- Node23&#45;&gt;Node24 -->
<g id="edge33" class="edge"><title>Node23&#45;&gt;Node24</title>
<path fill="none" stroke="midnightblue" d="M913.366,-257.375C1032.93,-254.404 1303.35,-244.367 1331,-214 1339.68,-204.47 1336.97,-196.423 1331,-185 1323.69,-171.006 1309.74,-160.524 1296.74,-153.26"/>
<polygon fill="midnightblue" stroke="midnightblue" points="1298.03,-149.99 1287.54,-148.535 1294.83,-156.217 1298.03,-149.99"/>
</g>
<!-- Node29 -->
<g id="node30" class="node"><title>Node29</title>
<g id="a_node30"><a xlink:href="../../d9/d54/IFunctionProperties_8h.html" target="_top" xlink:title="ocra/optim/IFunctionProperties.h">
<polygon fill="white" stroke="black" points="854.744,-190.5 854.744,-208.5 1015.26,-208.5 1015.26,-190.5 854.744,-190.5"/>
<text text-anchor="middle" x="935" y="-196.5" font-family="Helvetica,sans-Serif" font-size="10.00">ocra/optim/IFunctionProperties.h</text>
</a>
</g>
</g>
<!-- Node23&#45;&gt;Node29 -->
<g id="edge41" class="edge"><title>Node23&#45;&gt;Node29</title>
<path fill="none" stroke="midnightblue" d="M867.846,-250.435C880.163,-241.276 900.503,-226.152 915.576,-214.944"/>
<polygon fill="midnightblue" stroke="midnightblue" points="917.805,-217.647 923.741,-208.872 913.628,-212.03 917.805,-217.647"/>
</g>
<!-- Node30 -->
<g id="node31" class="node"><title>Node30</title>
<g id="a_node31"><a xlink:href="../../db/d47/AbilitySet_8h.html" target="_top" xlink:title="ocra/optim/AbilitySet.h">
<polygon fill="white" stroke="black" points="1206.26,-190.5 1206.26,-208.5 1321.74,-208.5 1321.74,-190.5 1206.26,-190.5"/>
<text text-anchor="middle" x="1264" y="-196.5" font-family="Helvetica,sans-Serif" font-size="10.00">ocra/optim/AbilitySet.h</text>
</a>
</g>
</g>
<!-- Node23&#45;&gt;Node30 -->
<g id="edge44" class="edge"><title>Node23&#45;&gt;Node30</title>
<path fill="none" stroke="midnightblue" d="M913.126,-252.351C980.678,-244.674 1097.46,-230.523 1197,-214 1203.3,-212.954 1209.91,-211.752 1216.42,-210.505"/>
<polygon fill="midnightblue" stroke="midnightblue" points="1217.38,-213.884 1226.52,-208.524 1216.03,-207.014 1217.38,-213.884"/>
</g>
<!-- Node31 -->
<g id="node32" class="node"><title>Node31</title>
<g id="a_node32"><a xlink:href="../../d1/d87/CoupledInputOutputSize_8h.html" target="_top" xlink:title="ocra/optim/CoupledInputOutput\lSize.h">
<polygon fill="white" stroke="black" points="1033.51,-185.5 1033.51,-213.5 1188.49,-213.5 1188.49,-185.5 1033.51,-185.5"/>
<text text-anchor="start" x="1041.51" y="-201.5" font-family="Helvetica,sans-Serif" font-size="10.00">ocra/optim/CoupledInputOutput</text>
<text text-anchor="middle" x="1111" y="-191.5" font-family="Helvetica,sans-Serif" font-size="10.00">Size.h</text>
</a>
</g>
</g>
<!-- Node23&#45;&gt;Node31 -->
<g id="edge47" class="edge"><title>Node23&#45;&gt;Node31</title>
<path fill="none" stroke="midnightblue" d="M892.051,-250.496C931.138,-241.571 995.271,-226.926 1044.05,-215.788"/>
<polygon fill="midnightblue" stroke="midnightblue" points="1044.93,-219.177 1053.9,-213.538 1043.37,-212.353 1044.93,-219.177"/>
</g>
<!-- Node32 -->
<g id="node33" class="node"><title>Node32</title>
<g id="a_node33"><a xlink:href="../../df/d97/NamedInstance_8h.html" target="_top" xlink:title="ocra/optim/NamedInstance.h">
<polygon fill="white" stroke="black" points="693.079,-190.5 693.079,-208.5 836.921,-208.5 836.921,-190.5 693.079,-190.5"/>
<text text-anchor="middle" x="765" y="-196.5" font-family="Helvetica,sans-Serif" font-size="10.00">ocra/optim/NamedInstance.h</text>
</a>
</g>
</g>
<!-- Node23&#45;&gt;Node32 -->
<g id="edge50" class="edge"><title>Node23&#45;&gt;Node32</title>
<path fill="none" stroke="midnightblue" d="M844.208,-250.435C829.324,-241.052 804.509,-225.408 786.616,-214.128"/>
<polygon fill="midnightblue" stroke="midnightblue" points="788.306,-211.055 777.98,-208.683 784.573,-216.977 788.306,-211.055"/>
</g>
<!-- Node24&#45;&gt;Node14 -->
<g id="edge37" class="edge"><title>Node24&#45;&gt;Node14</title>
<path fill="none" stroke="midnightblue" d="M1267,-130.435C1267,-122.389 1267,-109.739 1267,-99.1846"/>
<polygon fill="midnightblue" stroke="midnightblue" points="1270.5,-98.8717 1267,-88.8718 1263.5,-98.8718 1270.5,-98.8717"/>
</g>
<!-- Node24&#45;&gt;Node18 -->
<g id="edge39" class="edge"><title>Node24&#45;&gt;Node18</title>
<path fill="none" stroke="midnightblue" d="M1252.68,-130.435C1235.79,-120.923 1207.47,-104.976 1187.38,-93.6645"/>
<polygon fill="midnightblue" stroke="midnightblue" points="1188.96,-90.5401 1178.53,-88.6831 1185.53,-96.6395 1188.96,-90.5401"/>
</g>
<!-- Node24&#45;&gt;Node20 -->
<g id="edge40" class="edge"><title>Node24&#45;&gt;Node20</title>
<path fill="none" stroke="midnightblue" d="M1209.4,-134.372C1143.01,-128.779 1030.97,-116.767 937,-94 934.348,-93.3576 931.624,-92.5979 928.909,-91.7716"/>
<polygon fill="midnightblue" stroke="midnightblue" points="929.868,-88.4022 919.274,-88.5774 927.665,-95.0465 929.868,-88.4022"/>
</g>
<!-- Node25 -->
<g id="node26" class="node"><title>Node25</title>
<g id="a_node26"><a xlink:href="../../d5/d55/MathTypes_8h.html" target="_top" xlink:title="Declaration file of the OptimizationVariable class. ">
<polygon fill="white" stroke="black" points="1420.48,-70.5 1420.48,-88.5 1531.52,-88.5 1531.52,-70.5 1420.48,-70.5"/>
<text text-anchor="middle" x="1476" y="-76.5" font-family="Helvetica,sans-Serif" font-size="10.00">ocra/util/MathTypes.h</text>
</a>
</g>
</g>
<!-- Node24&#45;&gt;Node25 -->
<g id="edge34" class="edge"><title>Node24&#45;&gt;Node25</title>
<path fill="none" stroke="midnightblue" d="M1296.06,-130.435C1332.77,-120.249 1396.07,-102.683 1436.96,-91.3328"/>
<polygon fill="midnightblue" stroke="midnightblue" points="1438.15,-94.6361 1446.85,-88.5894 1436.28,-87.891 1438.15,-94.6361"/>
</g>
<!-- Node28 -->
<g id="node29" class="node"><title>Node28</title>
<polygon fill="white" stroke="#bfbfbf" points="1347.83,-70.5 1347.83,-88.5 1402.17,-88.5 1402.17,-70.5 1347.83,-70.5"/>
<text text-anchor="middle" x="1375" y="-76.5" font-family="Helvetica,sans-Serif" font-size="10.00">iostream</text>
</g>
<!-- Node24&#45;&gt;Node28 -->
<g id="edge38" class="edge"><title>Node24&#45;&gt;Node28</title>
<path fill="none" stroke="midnightblue" d="M1282.02,-130.435C1299.81,-120.88 1329.69,-104.832 1350.77,-93.5113"/>
<polygon fill="midnightblue" stroke="midnightblue" points="1352.61,-96.4979 1359.76,-88.6831 1349.3,-90.331 1352.61,-96.4979"/>
</g>
<!-- Node26 -->
<g id="node27" class="node"><title>Node26</title>
<polygon fill="white" stroke="#bfbfbf" points="1401.37,-5.5 1401.37,-23.5 1474.63,-23.5 1474.63,-5.5 1401.37,-5.5"/>
<text text-anchor="middle" x="1438" y="-11.5" font-family="Helvetica,sans-Serif" font-size="10.00">Eigen/Dense</text>
</g>
<!-- Node25&#45;&gt;Node26 -->
<g id="edge35" class="edge"><title>Node25&#45;&gt;Node26</title>
<path fill="none" stroke="midnightblue" d="M1471.03,-70.2639C1465.25,-60.6842 1455.56,-44.6186 1448.17,-32.3587"/>
<polygon fill="midnightblue" stroke="midnightblue" points="1451.01,-30.2942 1442.85,-23.539 1445.02,-33.9096 1451.01,-30.2942"/>
</g>
<!-- Node27 -->
<g id="node28" class="node"><title>Node27</title>
<polygon fill="white" stroke="#bfbfbf" points="1492.38,-5.5 1492.38,-23.5 1535.62,-23.5 1535.62,-5.5 1492.38,-5.5"/>
<text text-anchor="middle" x="1514" y="-11.5" font-family="Helvetica,sans-Serif" font-size="10.00">cmath</text>
</g>
<!-- Node25&#45;&gt;Node27 -->
<g id="edge36" class="edge"><title>Node25&#45;&gt;Node27</title>
<path fill="none" stroke="midnightblue" d="M1480.97,-70.2639C1486.75,-60.6842 1496.44,-44.6186 1503.83,-32.3587"/>
<polygon fill="midnightblue" stroke="midnightblue" points="1506.98,-33.9096 1509.15,-23.539 1500.99,-30.2942 1506.98,-33.9096"/>
</g>
<!-- Node29&#45;&gt;Node18 -->
<g id="edge43" class="edge"><title>Node29&#45;&gt;Node18</title>
<path fill="none" stroke="midnightblue" d="M950.74,-190.389C989.973,-170.173 1092.33,-117.428 1139.52,-93.1122"/>
<polygon fill="midnightblue" stroke="midnightblue" points="1141.17,-96.2031 1148.45,-88.5113 1137.96,-89.9806 1141.17,-96.2031"/>
</g>
<!-- Node29&#45;&gt;Node22 -->
<g id="edge42" class="edge"><title>Node29&#45;&gt;Node22</title>
<path fill="none" stroke="midnightblue" d="M924.433,-190.435C912.431,-181.276 892.613,-166.152 877.926,-154.944"/>
<polygon fill="midnightblue" stroke="midnightblue" points="880.043,-152.156 869.97,-148.872 875.796,-157.721 880.043,-152.156"/>
</g>
<!-- Node30&#45;&gt;Node18 -->
<g id="edge46" class="edge"><title>Node30&#45;&gt;Node18</title>
<path fill="none" stroke="midnightblue" d="M1250.63,-190.35C1236.89,-181.479 1215.52,-166.234 1201,-149 1187.97,-133.528 1177.53,-112.732 1171.1,-98.1273"/>
<polygon fill="midnightblue" stroke="midnightblue" points="1174.26,-96.6091 1167.15,-88.7511 1167.81,-99.3257 1174.26,-96.6091"/>
</g>
<!-- Node30&#45;&gt;Node24 -->
<g id="edge45" class="edge"><title>Node30&#45;&gt;Node24</title>
<path fill="none" stroke="midnightblue" d="M1264.42,-190.435C1264.83,-182.389 1265.49,-169.739 1266.03,-159.185"/>
<polygon fill="midnightblue" stroke="midnightblue" points="1269.55,-159.039 1266.57,-148.872 1262.56,-158.678 1269.55,-159.039"/>
</g>
<!-- Node32&#45;&gt;Node22 -->
<g id="edge51" class="edge"><title>Node32&#45;&gt;Node22</title>
<path fill="none" stroke="midnightblue" d="M778.07,-190.435C793.347,-181.009 818.865,-165.264 837.165,-153.973"/>
<polygon fill="midnightblue" stroke="midnightblue" points="839.065,-156.913 845.738,-148.683 835.389,-150.956 839.065,-156.913"/>
</g>
<!-- Node33&#45;&gt;Node23 -->
<g id="edge53" class="edge"><title>Node33&#45;&gt;Node23</title>
<path fill="none" stroke="midnightblue" d="M695.288,-360.315C711.595,-345.676 739.455,-321.886 766,-305 785.873,-292.358 809.859,-280.764 828.215,-272.582"/>
<polygon fill="midnightblue" stroke="midnightblue" points="829.752,-275.73 837.51,-268.514 826.946,-269.317 829.752,-275.73"/>
</g>
<!-- Node35 -->
<g id="node36" class="node"><title>Node35</title>
<polygon fill="white" stroke="#bfbfbf" points="1377.94,-190.5 1377.94,-208.5 1430.06,-208.5 1430.06,-190.5 1377.94,-190.5"/>
<text text-anchor="middle" x="1404" y="-196.5" font-family="Helvetica,sans-Serif" font-size="10.00">memory</text>
</g>
<!-- Node34&#45;&gt;Node35 -->
<g id="edge55" class="edge"><title>Node34&#45;&gt;Node35</title>
<path fill="none" stroke="midnightblue" d="M1231.91,-250.452C1265.08,-241.945 1318.42,-227.863 1364,-214 1366.31,-213.298 1368.68,-212.554 1371.07,-211.789"/>
<polygon fill="midnightblue" stroke="midnightblue" points="1372.4,-215.036 1380.81,-208.591 1370.22,-208.386 1372.4,-215.036"/>
</g>
<!-- Node36&#45;&gt;Node23 -->
<g id="edge59" class="edge"><title>Node36&#45;&gt;Node23</title>
<path fill="none" stroke="midnightblue" d="M1026.62,-305.45C992.017,-296.279 935.323,-281.256 897.107,-271.128"/>
<polygon fill="midnightblue" stroke="midnightblue" points="897.896,-267.717 887.333,-268.538 896.103,-274.483 897.896,-267.717"/>
</g>
<!-- Node36&#45;&gt;Node34 -->
<g id="edge60" class="edge"><title>Node36&#45;&gt;Node34</title>
<path fill="none" stroke="midnightblue" d="M1078.72,-305.45C1102.66,-296.578 1141.37,-282.229 1168.61,-272.134"/>
<polygon fill="midnightblue" stroke="midnightblue" points="1169.92,-275.383 1178.08,-268.625 1167.48,-268.819 1169.92,-275.383"/>
</g>
<!-- Node37&#45;&gt;Node38 -->
<g id="edge62" class="edge"><title>Node37&#45;&gt;Node38</title>
<path fill="none" stroke="midnightblue" d="M883.718,-425.435C905.677,-416.887 940.986,-403.143 969.006,-392.236"/>
<polygon fill="midnightblue" stroke="midnightblue" points="970.53,-395.399 978.579,-388.51 967.99,-388.875 970.53,-395.399"/>
</g>
<!-- Node38&#45;&gt;Node36 -->
<g id="edge63" class="edge"><title>Node38&#45;&gt;Node36</title>
<path fill="none" stroke="midnightblue" d="M1022.21,-360.339C1028.75,-351.916 1037.28,-340.923 1044.25,-331.929"/>
<polygon fill="midnightblue" stroke="midnightblue" points="1047.22,-333.818 1050.58,-323.771 1041.69,-329.527 1047.22,-333.818"/>
</g>
<!-- Node39&#45;&gt;Node38 -->
<g id="edge65" class="edge"><title>Node39&#45;&gt;Node38</title>
<path fill="none" stroke="midnightblue" d="M1055.05,-425.435C1048.61,-417.969 1038.76,-406.538 1030.1,-396.496"/>
<polygon fill="midnightblue" stroke="midnightblue" points="1032.68,-394.132 1023.5,-388.843 1027.38,-398.702 1032.68,-394.132"/>
</g>
</g>
</svg>
