<?xml version="1.0" encoding="UTF-8" standalone="no"?>
<!DOCTYPE svg PUBLIC "-//W3C//DTD SVG 1.1//EN"
 "http://www.w3.org/Graphics/SVG/1.1/DTD/svg11.dtd">
<!-- Generated by graphviz version 2.38.0 (20140413.2041)
 -->
<!-- Title: PartialState.h Pages: 1 -->
<svg width="1321pt" height="322pt"
 viewBox="0.00 0.00 1321.03 322.00" xmlns="http://www.w3.org/2000/svg" xmlns:xlink="http://www.w3.org/1999/xlink">
<g id="graph0" class="graph" transform="scale(1 1) rotate(0) translate(4 318)">
<title>PartialState.h</title>
<polygon fill="white" stroke="none" points="-4,4 -4,-318 1317.03,-318 1317.03,4 -4,4"/>
<!-- Node0 -->
<g id="node1" class="node"><title>Node0</title>
<polygon fill="#bfbfbf" stroke="black" points="1056.6,-295.5 1056.6,-313.5 1132.63,-313.5 1132.63,-295.5 1056.6,-295.5"/>
<text text-anchor="middle" x="1094.62" y="-301.5" font-family="Helvetica,sans-Serif" font-size="10.00">PartialState.h</text>
</g>
<!-- Node1 -->
<g id="node2" class="node"><title>Node1</title>
<g id="a_node2"><a xlink:href="../../df/d97/NamedInstance_8h.html" target="_top" xlink:title="ocra/optim/NamedInstance.h">
<polygon fill="white" stroke="black" points="265.695,-185.5 265.695,-203.5 409.537,-203.5 409.537,-185.5 265.695,-185.5"/>
<text text-anchor="middle" x="337.616" y="-191.5" font-family="Helvetica,sans-Serif" font-size="10.00">ocra/optim/NamedInstance.h</text>
</a>
</g>
</g>
<!-- Node0&#45;&gt;Node1 -->
<g id="edge1" class="edge"><title>Node0&#45;&gt;Node1</title>
<path fill="none" stroke="midnightblue" d="M1056.35,-301.122C978.245,-295.963 795,-282.296 642.616,-259 548.298,-244.581 439.138,-219.881 380.379,-205.916"/>
<polygon fill="midnightblue" stroke="midnightblue" points="380.893,-202.441 370.354,-203.521 379.267,-209.249 380.893,-202.441"/>
</g>
<!-- Node3 -->
<g id="node4" class="node"><title>Node3</title>
<g id="a_node4"><a xlink:href="../../d3/d5a/Model_8h.html" target="_top" xlink:title="Declaration file of the Model class. ">
<polygon fill="white" stroke="black" points="651.315,-240.5 651.315,-258.5 757.916,-258.5 757.916,-240.5 651.315,-240.5"/>
<text text-anchor="middle" x="704.616" y="-246.5" font-family="Helvetica,sans-Serif" font-size="10.00">ocra/control/Model.h</text>
</a>
</g>
</g>
<!-- Node0&#45;&gt;Node3 -->
<g id="edge3" class="edge"><title>Node0&#45;&gt;Node3</title>
<path fill="none" stroke="midnightblue" d="M1056.51,-298.322C989.445,-289.208 849.694,-270.216 767.928,-259.104"/>
<polygon fill="midnightblue" stroke="midnightblue" points="768.389,-255.635 758.009,-257.756 767.447,-262.571 768.389,-255.635"/>
</g>
<!-- Node29 -->
<g id="node30" class="node"><title>Node29</title>
<polygon fill="white" stroke="#bfbfbf" points="938.601,-130.5 938.601,-148.5 1004.63,-148.5 1004.63,-130.5 938.601,-130.5"/>
<text text-anchor="middle" x="971.616" y="-136.5" font-family="Helvetica,sans-Serif" font-size="10.00">Eigen/Core</text>
</g>
<!-- Node0&#45;&gt;Node29 -->
<g id="edge51" class="edge"><title>Node0&#45;&gt;Node29</title>
<path fill="none" stroke="midnightblue" d="M1095.78,-295.274C1098.27,-274.404 1101.9,-218.671 1075.62,-185 1060.8,-166.022 1036.33,-155.015 1014.84,-148.698"/>
<polygon fill="midnightblue" stroke="midnightblue" points="1015.48,-145.243 1004.91,-146.036 1013.66,-152.005 1015.48,-145.243"/>
</g>
<!-- Node30 -->
<g id="node31" class="node"><title>Node30</title>
<polygon fill="white" stroke="#bfbfbf" points="1043.63,-130.5 1043.63,-148.5 1153.6,-148.5 1153.6,-130.5 1043.63,-130.5"/>
<text text-anchor="middle" x="1098.62" y="-136.5" font-family="Helvetica,sans-Serif" font-size="10.00">boost/shared_ptr.hpp</text>
</g>
<!-- Node0&#45;&gt;Node30 -->
<g id="edge52" class="edge"><title>Node0&#45;&gt;Node30</title>
<path fill="none" stroke="midnightblue" d="M1097.96,-295.476C1101.42,-286.699 1106.6,-272.128 1108.62,-259 1113.61,-226.492 1112.24,-217.688 1108.62,-185 1107.63,-176.127 1105.57,-166.437 1103.58,-158.372"/>
<polygon fill="midnightblue" stroke="midnightblue" points="1106.94,-157.388 1101.01,-148.61 1100.17,-159.172 1106.94,-157.388"/>
</g>
<!-- Node31 -->
<g id="node32" class="node"><title>Node31</title>
<g id="a_node32"><a xlink:href="../../df/d0a/Macros_8h.html" target="_top" xlink:title="ocra/util/Macros.h">
<polygon fill="white" stroke="black" points="1160.16,-185.5 1160.16,-203.5 1255.07,-203.5 1255.07,-185.5 1160.16,-185.5"/>
<text text-anchor="middle" x="1207.62" y="-191.5" font-family="Helvetica,sans-Serif" font-size="10.00">ocra/util/Macros.h</text>
</a>
</g>
</g>
<!-- Node0&#45;&gt;Node31 -->
<g id="edge50" class="edge"><title>Node0&#45;&gt;Node31</title>
<path fill="none" stroke="midnightblue" d="M1104.84,-295.252C1115.51,-286.524 1132.62,-272.214 1146.62,-259 1163.21,-243.332 1181.2,-224.342 1193.31,-211.233"/>
<polygon fill="midnightblue" stroke="midnightblue" points="1196.16,-213.298 1200.34,-203.562 1191,-208.566 1196.16,-213.298"/>
</g>
<!-- Node2 -->
<g id="node3" class="node"><title>Node2</title>
<polygon fill="white" stroke="#bfbfbf" points="296.389,-130.5 296.389,-148.5 336.842,-148.5 336.842,-130.5 296.389,-130.5"/>
<text text-anchor="middle" x="316.616" y="-136.5" font-family="Helvetica,sans-Serif" font-size="10.00">string</text>
</g>
<!-- Node1&#45;&gt;Node2 -->
<g id="edge2" class="edge"><title>Node1&#45;&gt;Node2</title>
<path fill="none" stroke="midnightblue" d="M334.334,-185.219C331.451,-177.942 327.161,-167.113 323.524,-157.934"/>
<polygon fill="midnightblue" stroke="midnightblue" points="326.743,-156.557 319.805,-148.55 320.235,-159.136 326.743,-156.557"/>
</g>
<!-- Node3&#45;&gt;Node1 -->
<g id="edge39" class="edge"><title>Node3&#45;&gt;Node1</title>
<path fill="none" stroke="midnightblue" d="M651.251,-240.793C585.595,-231.312 474.146,-215.217 403.297,-204.985"/>
<polygon fill="midnightblue" stroke="midnightblue" points="403.546,-201.485 393.149,-203.52 402.546,-208.413 403.546,-201.485"/>
</g>
<!-- Node3&#45;&gt;Node2 -->
<g id="edge47" class="edge"><title>Node3&#45;&gt;Node2</title>
<path fill="none" stroke="midnightblue" d="M651.277,-243.392C600.303,-237.476 521.793,-225.642 456.616,-204 438.695,-198.05 435.719,-193 418.616,-185 394.101,-173.534 365.875,-161.292 345.339,-152.557"/>
<polygon fill="midnightblue" stroke="midnightblue" points="346.498,-149.247 335.925,-148.569 343.768,-155.692 346.498,-149.247"/>
</g>
<!-- Node4 -->
<g id="node5" class="node"><title>Node4</title>
<g id="a_node5"><a xlink:href="../../d5/d55/MathTypes_8h.html" target="_top" xlink:title="Declaration file of the OptimizationVariable class. ">
<polygon fill="white" stroke="black" points="137.091,-185.5 137.091,-203.5 248.14,-203.5 248.14,-185.5 137.091,-185.5"/>
<text text-anchor="middle" x="192.616" y="-191.5" font-family="Helvetica,sans-Serif" font-size="10.00">ocra/util/MathTypes.h</text>
</a>
</g>
</g>
<!-- Node3&#45;&gt;Node4 -->
<g id="edge4" class="edge"><title>Node3&#45;&gt;Node4</title>
<path fill="none" stroke="midnightblue" d="M651.109,-243.761C568.922,-236.355 406.401,-221.21 258.613,-204.201"/>
<polygon fill="midnightblue" stroke="midnightblue" points="258.786,-200.698 248.45,-203.026 257.982,-207.652 258.786,-200.698"/>
</g>
<!-- Node7 -->
<g id="node8" class="node"><title>Node7</title>
<g id="a_node8"><a xlink:href="../../d8/ddc/ObserverSubject_8h.html" target="_top" xlink:title="Declaration file of the Observer, Subject and ObserverSubject classes. ">
<polygon fill="white" stroke="black" points="761.476,-130.5 761.476,-148.5 909.756,-148.5 909.756,-130.5 761.476,-130.5"/>
<text text-anchor="middle" x="835.616" y="-136.5" font-family="Helvetica,sans-Serif" font-size="10.00">ocra/optim/ObserverSubject.h</text>
</a>
</g>
</g>
<!-- Node3&#45;&gt;Node7 -->
<g id="edge7" class="edge"><title>Node3&#45;&gt;Node7</title>
<path fill="none" stroke="midnightblue" d="M678.151,-240.427C647.325,-229.674 602.97,-209.174 622.616,-185 638.983,-164.86 699.136,-153.52 751.36,-147.336"/>
<polygon fill="midnightblue" stroke="midnightblue" points="751.803,-150.808 761.344,-146.203 751.014,-143.852 751.803,-150.808"/>
</g>
<!-- Node18 -->
<g id="node19" class="node"><title>Node18</title>
<g id="a_node19"><a xlink:href="../../d7/d90/Variable_8h.html" target="_top" xlink:title="Declaration file of the Variable class. ">
<polygon fill="white" stroke="black" points="465.738,-185.5 465.738,-203.5 575.493,-203.5 575.493,-185.5 465.738,-185.5"/>
<text text-anchor="middle" x="520.616" y="-191.5" font-family="Helvetica,sans-Serif" font-size="10.00">ocra/optim/Variable.h</text>
</a>
</g>
</g>
<!-- Node3&#45;&gt;Node18 -->
<g id="edge21" class="edge"><title>Node3&#45;&gt;Node18</title>
<path fill="none" stroke="midnightblue" d="M676.67,-240.45C645.102,-231.357 593.559,-216.511 558.415,-206.388"/>
<polygon fill="midnightblue" stroke="midnightblue" points="559.1,-202.943 548.522,-203.538 557.163,-209.67 559.1,-202.943"/>
</g>
<!-- Node28 -->
<g id="node29" class="node"><title>Node28</title>
<g id="a_node29"><a xlink:href="../../d9/d5d/ModelContacts_8h.html" target="_top" xlink:title="Declaration file of the ModelContacts class. ">
<polygon fill="white" stroke="black" points="631.584,-185.5 631.584,-203.5 777.647,-203.5 777.647,-185.5 631.584,-185.5"/>
<text text-anchor="middle" x="704.616" y="-191.5" font-family="Helvetica,sans-Serif" font-size="10.00">ocra/control/ModelContacts.h</text>
</a>
</g>
</g>
<!-- Node3&#45;&gt;Node28 -->
<g id="edge40" class="edge"><title>Node3&#45;&gt;Node28</title>
<path fill="none" stroke="midnightblue" d="M704.616,-240.219C704.616,-233.177 704.616,-222.808 704.616,-213.828"/>
<polygon fill="midnightblue" stroke="midnightblue" points="708.116,-213.55 704.616,-203.55 701.116,-213.55 708.116,-213.55"/>
</g>
<!-- Node3&#45;&gt;Node31 -->
<g id="edge44" class="edge"><title>Node3&#45;&gt;Node31</title>
<path fill="none" stroke="midnightblue" d="M757.969,-242.878C853.206,-232.843 1051.68,-211.931 1149.94,-201.577"/>
<polygon fill="midnightblue" stroke="midnightblue" points="1150.41,-205.047 1159.99,-200.518 1149.68,-198.086 1150.41,-205.047"/>
</g>
<!-- Node33 -->
<g id="node34" class="node"><title>Node33</title>
<polygon fill="white" stroke="#bfbfbf" points="795.212,-185.5 795.212,-203.5 864.02,-203.5 864.02,-185.5 795.212,-185.5"/>
<text text-anchor="middle" x="829.616" y="-191.5" font-family="Helvetica,sans-Serif" font-size="10.00">Eigen/Lgsm</text>
</g>
<!-- Node3&#45;&gt;Node33 -->
<g id="edge46" class="edge"><title>Node3&#45;&gt;Node33</title>
<path fill="none" stroke="midnightblue" d="M723.601,-240.45C744.25,-231.695 777.48,-217.606 801.232,-207.535"/>
<polygon fill="midnightblue" stroke="midnightblue" points="802.612,-210.751 810.452,-203.625 799.879,-204.307 802.612,-210.751"/>
</g>
<!-- Node34 -->
<g id="node35" class="node"><title>Node34</title>
<polygon fill="white" stroke="#bfbfbf" points="882.443,-185.5 882.443,-203.5 936.788,-203.5 936.788,-185.5 882.443,-185.5"/>
<text text-anchor="middle" x="909.616" y="-191.5" font-family="Helvetica,sans-Serif" font-size="10.00">iostream</text>
</g>
<!-- Node3&#45;&gt;Node34 -->
<g id="edge48" class="edge"><title>Node3&#45;&gt;Node34</title>
<path fill="none" stroke="midnightblue" d="M735.751,-240.45C772.433,-230.967 833.322,-215.225 872.443,-205.11"/>
<polygon fill="midnightblue" stroke="midnightblue" points="873.329,-208.497 882.135,-202.605 871.577,-201.719 873.329,-208.497"/>
</g>
<!-- Node35 -->
<g id="node36" class="node"><title>Node35</title>
<polygon fill="white" stroke="#bfbfbf" points="954.811,-185.5 954.811,-203.5 1066.42,-203.5 1066.42,-185.5 954.811,-185.5"/>
<text text-anchor="middle" x="1010.62" y="-191.5" font-family="Helvetica,sans-Serif" font-size="10.00">yarp/os/Semaphore.h</text>
</g>
<!-- Node3&#45;&gt;Node35 -->
<g id="edge49" class="edge"><title>Node3&#45;&gt;Node35</title>
<path fill="none" stroke="midnightblue" d="M751.091,-240.45C805.505,-231.026 895.606,-215.42 954.038,-205.299"/>
<polygon fill="midnightblue" stroke="midnightblue" points="954.95,-208.694 964.206,-203.538 953.755,-201.796 954.95,-208.694"/>
</g>
<!-- Node5 -->
<g id="node6" class="node"><title>Node5</title>
<polygon fill="white" stroke="#bfbfbf" points="180.985,-130.5 180.985,-148.5 254.246,-148.5 254.246,-130.5 180.985,-130.5"/>
<text text-anchor="middle" x="217.616" y="-136.5" font-family="Helvetica,sans-Serif" font-size="10.00">Eigen/Dense</text>
</g>
<!-- Node4&#45;&gt;Node5 -->
<g id="edge5" class="edge"><title>Node4&#45;&gt;Node5</title>
<path fill="none" stroke="midnightblue" d="M196.522,-185.219C199.991,-177.864 205.172,-166.88 209.531,-157.639"/>
<polygon fill="midnightblue" stroke="midnightblue" points="212.718,-159.087 213.819,-148.55 206.387,-156.101 212.718,-159.087"/>
</g>
<!-- Node6 -->
<g id="node7" class="node"><title>Node6</title>
<polygon fill="white" stroke="#bfbfbf" points="120,-130.5 120,-148.5 163.231,-148.5 163.231,-130.5 120,-130.5"/>
<text text-anchor="middle" x="141.616" y="-136.5" font-family="Helvetica,sans-Serif" font-size="10.00">cmath</text>
</g>
<!-- Node4&#45;&gt;Node6 -->
<g id="edge6" class="edge"><title>Node4&#45;&gt;Node6</title>
<path fill="none" stroke="midnightblue" d="M184.647,-185.219C177.118,-177.394 165.637,-165.463 156.427,-155.892"/>
<polygon fill="midnightblue" stroke="midnightblue" points="158.817,-153.328 149.362,-148.55 153.773,-158.182 158.817,-153.328"/>
</g>
<!-- Node8 -->
<g id="node9" class="node"><title>Node8</title>
<g id="a_node9"><a xlink:href="../../df/d67/ObserverSubjectBase_8h.html" target="_top" xlink:title="Declaration file of the Observer and Subject base classes. ">
<polygon fill="white" stroke="black" points="901.646,-65.5 901.646,-93.5 1041.59,-93.5 1041.59,-65.5 901.646,-65.5"/>
<text text-anchor="start" x="909.646" y="-81.5" font-family="Helvetica,sans-Serif" font-size="10.00">ocra/optim/ObserverSubject</text>
<text text-anchor="middle" x="971.616" y="-71.5" font-family="Helvetica,sans-Serif" font-size="10.00">Base.h</text>
</a>
</g>
</g>
<!-- Node7&#45;&gt;Node8 -->
<g id="edge8" class="edge"><title>Node7&#45;&gt;Node8</title>
<path fill="none" stroke="midnightblue" d="M854.526,-130.435C874.395,-121.962 906.235,-108.383 931.701,-97.5224"/>
<polygon fill="midnightblue" stroke="midnightblue" points="933.285,-100.652 941.111,-93.5096 930.539,-94.213 933.285,-100.652"/>
</g>
<!-- Node12 -->
<g id="node13" class="node"><title>Node12</title>
<polygon fill="white" stroke="#bfbfbf" points="783.929,-0.5 783.929,-28.5 883.303,-28.5 883.303,-0.5 783.929,-0.5"/>
<text text-anchor="start" x="791.929" y="-16.5" font-family="Helvetica,sans-Serif" font-size="10.00">boost/type_traits/is</text>
<text text-anchor="middle" x="833.616" y="-6.5" font-family="Helvetica,sans-Serif" font-size="10.00">_class.hpp</text>
</g>
<!-- Node7&#45;&gt;Node12 -->
<g id="edge20" class="edge"><title>Node7&#45;&gt;Node12</title>
<path fill="none" stroke="midnightblue" d="M838.959,-130.476C842.421,-121.699 847.599,-107.128 849.616,-94 851.572,-81.2605 851.622,-77.7317 849.616,-65 848.196,-55.9936 845.408,-46.3927 842.552,-38.0668"/>
<polygon fill="midnightblue" stroke="midnightblue" points="845.838,-36.8623 839.121,-28.6691 839.262,-39.263 845.838,-36.8623"/>
</g>
<!-- Node13 -->
<g id="node14" class="node"><title>Node13</title>
<polygon fill="white" stroke="#bfbfbf" points="666.929,-0.5 666.929,-28.5 766.303,-28.5 766.303,-0.5 666.929,-0.5"/>
<text text-anchor="start" x="674.929" y="-16.5" font-family="Helvetica,sans-Serif" font-size="10.00">boost/type_traits/is</text>
<text text-anchor="middle" x="716.616" y="-6.5" font-family="Helvetica,sans-Serif" font-size="10.00">_base_of.hpp</text>
</g>
<!-- Node7&#45;&gt;Node13 -->
<g id="edge18" class="edge"><title>Node7&#45;&gt;Node13</title>
<path fill="none" stroke="midnightblue" d="M835.626,-130.239C835.221,-115.51 832.402,-84.4393 816.616,-65 805.029,-50.7324 788.295,-40.2412 771.821,-32.687"/>
<polygon fill="midnightblue" stroke="midnightblue" points="772.763,-29.2834 762.192,-28.5722 770.012,-35.7203 772.763,-29.2834"/>
</g>
<!-- Node14 -->
<g id="node15" class="node"><title>Node14</title>
<polygon fill="white" stroke="#bfbfbf" points="1194.2,-5.5 1194.2,-23.5 1313.03,-23.5 1313.03,-5.5 1194.2,-5.5"/>
<text text-anchor="middle" x="1253.62" y="-11.5" font-family="Helvetica,sans-Serif" font-size="10.00">boost/static_assert.hpp</text>
</g>
<!-- Node7&#45;&gt;Node14 -->
<g id="edge17" class="edge"><title>Node7&#45;&gt;Node14</title>
<path fill="none" stroke="midnightblue" d="M910.192,-131.268C1024,-120.082 1228.58,-99.3129 1234.62,-94 1251.44,-79.179 1254.66,-52.2473 1254.71,-34.1158"/>
<polygon fill="midnightblue" stroke="midnightblue" points="1258.2,-33.8108 1254.4,-23.9188 1251.2,-34.018 1258.2,-33.8108"/>
</g>
<!-- Node16 -->
<g id="node17" class="node"><title>Node16</title>
<g id="a_node17"><a xlink:href="../../db/ddf/ocra__events_8h.html" target="_top" xlink:title="ocra/optim/ocra_events.h">
<polygon fill="white" stroke="black" points="1097.48,-70.5 1097.48,-88.5 1225.76,-88.5 1225.76,-70.5 1097.48,-70.5"/>
<text text-anchor="middle" x="1161.62" y="-76.5" font-family="Helvetica,sans-Serif" font-size="10.00">ocra/optim/ocra_events.h</text>
</a>
</g>
</g>
<!-- Node7&#45;&gt;Node16 -->
<g id="edge16" class="edge"><title>Node7&#45;&gt;Node16</title>
<path fill="none" stroke="midnightblue" d="M880.602,-130.496C939.627,-119.995 1043.15,-101.577 1106.72,-90.2666"/>
<polygon fill="midnightblue" stroke="midnightblue" points="1107.34,-93.7123 1116.57,-88.5147 1106.11,-86.8205 1107.34,-93.7123"/>
</g>
<!-- Node17 -->
<g id="node18" class="node"><title>Node17</title>
<polygon fill="white" stroke="#bfbfbf" points="707.929,-65.5 707.929,-93.5 807.303,-93.5 807.303,-65.5 707.929,-65.5"/>
<text text-anchor="start" x="715.929" y="-81.5" font-family="Helvetica,sans-Serif" font-size="10.00">boost/type_traits/is</text>
<text text-anchor="middle" x="757.616" y="-71.5" font-family="Helvetica,sans-Serif" font-size="10.00">_convertible.hpp</text>
</g>
<!-- Node7&#45;&gt;Node17 -->
<g id="edge19" class="edge"><title>Node7&#45;&gt;Node17</title>
<path fill="none" stroke="midnightblue" d="M824.77,-130.435C814.163,-122.548 797.605,-110.236 783.586,-99.8109"/>
<polygon fill="midnightblue" stroke="midnightblue" points="785.373,-96.7788 775.26,-93.6203 781.196,-102.396 785.373,-96.7788"/>
</g>
<!-- Node9 -->
<g id="node10" class="node"><title>Node9</title>
<polygon fill="white" stroke="#bfbfbf" points="1117.21,-5.5 1117.21,-23.5 1176.02,-23.5 1176.02,-5.5 1117.21,-5.5"/>
<text text-anchor="middle" x="1146.62" y="-11.5" font-family="Helvetica,sans-Serif" font-size="10.00">functional</text>
</g>
<!-- Node8&#45;&gt;Node9 -->
<g id="edge9" class="edge"><title>Node8&#45;&gt;Node9</title>
<path fill="none" stroke="midnightblue" d="M1007.88,-65.4464C1039.36,-54.1131 1084.5,-37.8611 1114.65,-27.0071"/>
<polygon fill="midnightblue" stroke="midnightblue" points="1116.04,-30.2284 1124.26,-23.548 1113.67,-23.6421 1116.04,-30.2284"/>
</g>
<!-- Node10 -->
<g id="node11" class="node"><title>Node10</title>
<polygon fill="white" stroke="#bfbfbf" points="389.052,-5.5 389.052,-23.5 446.18,-23.5 446.18,-5.5 389.052,-5.5"/>
<text text-anchor="middle" x="417.616" y="-11.5" font-family="Helvetica,sans-Serif" font-size="10.00">algorithm</text>
</g>
<!-- Node8&#45;&gt;Node10 -->
<g id="edge10" class="edge"><title>Node8&#45;&gt;Node10</title>
<path fill="none" stroke="midnightblue" d="M901.451,-70.521C783.422,-57.0989 548.99,-30.4397 456.469,-19.9183"/>
<polygon fill="midnightblue" stroke="midnightblue" points="456.75,-16.4278 446.419,-18.7754 455.959,-23.383 456.75,-16.4278"/>
</g>
<!-- Node11 -->
<g id="node12" class="node"><title>Node11</title>
<polygon fill="white" stroke="#bfbfbf" points="901.571,-5.5 901.571,-23.5 979.661,-23.5 979.661,-5.5 901.571,-5.5"/>
<text text-anchor="middle" x="940.616" y="-11.5" font-family="Helvetica,sans-Serif" font-size="10.00">boost/any.hpp</text>
</g>
<!-- Node8&#45;&gt;Node11 -->
<g id="edge11" class="edge"><title>Node8&#45;&gt;Node11</title>
<path fill="none" stroke="midnightblue" d="M965.193,-65.4464C960.564,-56.0396 954.268,-43.2442 949.207,-32.9595"/>
<polygon fill="midnightblue" stroke="midnightblue" points="952.221,-31.1574 944.665,-23.7301 945.94,-34.248 952.221,-31.1574"/>
</g>
<!-- Node8&#45;&gt;Node12 -->
<g id="edge12" class="edge"><title>Node8&#45;&gt;Node12</title>
<path fill="none" stroke="midnightblue" d="M943.022,-65.4464C922.298,-55.9855 894.066,-43.097 871.472,-32.7824"/>
<polygon fill="midnightblue" stroke="midnightblue" points="872.723,-29.506 862.173,-28.5369 869.816,-35.8738 872.723,-29.506"/>
</g>
<!-- Node8&#45;&gt;Node13 -->
<g id="edge13" class="edge"><title>Node8&#45;&gt;Node13</title>
<path fill="none" stroke="midnightblue" d="M918.78,-65.4464C877.231,-55.1813 819.348,-40.881 776.162,-30.2114"/>
<polygon fill="midnightblue" stroke="midnightblue" points="776.9,-26.7885 766.352,-27.7878 775.221,-33.5842 776.9,-26.7885"/>
</g>
<!-- Node8&#45;&gt;Node14 -->
<g id="edge14" class="edge"><title>Node8&#45;&gt;Node14</title>
<path fill="none" stroke="midnightblue" d="M1030.05,-65.4464C1082.76,-53.6696 1159.25,-36.5816 1207.7,-25.7583"/>
<polygon fill="midnightblue" stroke="midnightblue" points="1208.6,-29.1442 1217.59,-23.548 1207.07,-22.3126 1208.6,-29.1442"/>
</g>
<!-- Node15 -->
<g id="node16" class="node"><title>Node15</title>
<polygon fill="white" stroke="#bfbfbf" points="997.811,-0.5 997.811,-28.5 1099.42,-28.5 1099.42,-0.5 997.811,-0.5"/>
<text text-anchor="start" x="1005.81" y="-16.5" font-family="Helvetica,sans-Serif" font-size="10.00">boost/ptr_container</text>
<text text-anchor="middle" x="1048.62" y="-6.5" font-family="Helvetica,sans-Serif" font-size="10.00">/ptr_vector.hpp</text>
</g>
<!-- Node8&#45;&gt;Node15 -->
<g id="edge15" class="edge"><title>Node8&#45;&gt;Node15</title>
<path fill="none" stroke="midnightblue" d="M987.57,-65.4464C998.307,-56.6613 1012.66,-44.9208 1024.75,-35.0299"/>
<polygon fill="midnightblue" stroke="midnightblue" points="1027.16,-37.5782 1032.68,-28.5369 1022.73,-32.1605 1027.16,-37.5782"/>
</g>
<!-- Node18&#45;&gt;Node2 -->
<g id="edge37" class="edge"><title>Node18&#45;&gt;Node2</title>
<path fill="none" stroke="midnightblue" d="M489.633,-185.45C451.019,-175.418 385.449,-158.383 347.079,-148.415"/>
<polygon fill="midnightblue" stroke="midnightblue" points="347.582,-144.929 337.023,-145.802 345.822,-151.704 347.582,-144.929"/>
</g>
<!-- Node18&#45;&gt;Node7 -->
<g id="edge22" class="edge"><title>Node18&#45;&gt;Node7</title>
<path fill="none" stroke="midnightblue" d="M568.457,-185.45C624.588,-176.006 717.608,-160.355 777.747,-150.237"/>
<polygon fill="midnightblue" stroke="midnightblue" points="778.56,-153.649 787.841,-148.538 777.399,-146.746 778.56,-153.649"/>
</g>
<!-- Node19 -->
<g id="node20" class="node"><title>Node19</title>
<g id="a_node20"><a xlink:href="../../d1/de6/Composite_8h.html" target="_top" xlink:title="Utility classes and functions to implement the Composite design pattern. ">
<polygon fill="white" stroke="black" points="480.815,-130.5 480.815,-148.5 602.416,-148.5 602.416,-130.5 480.815,-130.5"/>
<text text-anchor="middle" x="541.616" y="-136.5" font-family="Helvetica,sans-Serif" font-size="10.00">ocra/optim/Composite.h</text>
</a>
</g>
</g>
<!-- Node18&#45;&gt;Node19 -->
<g id="edge23" class="edge"><title>Node18&#45;&gt;Node19</title>
<path fill="none" stroke="midnightblue" d="M523.897,-185.219C526.78,-177.942 531.071,-167.113 534.708,-157.934"/>
<polygon fill="midnightblue" stroke="midnightblue" points="537.996,-159.136 538.426,-148.55 531.489,-156.557 537.996,-159.136"/>
</g>
<!-- Node22 -->
<g id="node23" class="node"><title>Node22</title>
<polygon fill="white" stroke="#bfbfbf" points="570.907,-70.5 570.907,-88.5 690.325,-88.5 690.325,-70.5 570.907,-70.5"/>
<text text-anchor="middle" x="630.616" y="-76.5" font-family="Helvetica,sans-Serif" font-size="10.00">boost/noncopyable.hpp</text>
</g>
<!-- Node18&#45;&gt;Node22 -->
<g id="edge36" class="edge"><title>Node18&#45;&gt;Node22</title>
<path fill="none" stroke="midnightblue" d="M551.78,-185.46C571.604,-178.806 596.331,-167.396 611.616,-149 623.431,-134.779 627.925,-113.744 629.619,-98.7396"/>
<polygon fill="midnightblue" stroke="midnightblue" points="633.117,-98.9066 630.445,-88.6544 626.141,-98.3355 633.117,-98.9066"/>
</g>
<!-- Node24 -->
<g id="node25" class="node"><title>Node24</title>
<polygon fill="white" stroke="#bfbfbf" points="0,-70.5 0,-88.5 43.2314,-88.5 43.2314,-70.5 0,-70.5"/>
<text text-anchor="middle" x="21.6157" y="-76.5" font-family="Helvetica,sans-Serif" font-size="10.00">vector</text>
</g>
<!-- Node18&#45;&gt;Node24 -->
<g id="edge38" class="edge"><title>Node18&#45;&gt;Node24</title>
<path fill="none" stroke="midnightblue" d="M491.564,-185.438C463.519,-177.335 420.063,-163.933 383.616,-149 366.143,-141.841 363.694,-135.453 345.616,-130 220.004,-92.1118 179.186,-128.551 52.6157,-94 50.9027,-93.5324 49.1616,-92.9868 47.4231,-92.3881"/>
<polygon fill="midnightblue" stroke="midnightblue" points="48.293,-88.9688 37.7063,-88.5535 45.7234,-95.4801 48.293,-88.9688"/>
</g>
<!-- Node27 -->
<g id="node28" class="node"><title>Node27</title>
<polygon fill="white" stroke="#bfbfbf" points="392.65,-130.5 392.65,-148.5 462.581,-148.5 462.581,-130.5 392.65,-130.5"/>
<text text-anchor="middle" x="427.616" y="-136.5" font-family="Helvetica,sans-Serif" font-size="10.00">Eigen/Eigen</text>
</g>
<!-- Node18&#45;&gt;Node27 -->
<g id="edge35" class="edge"><title>Node18&#45;&gt;Node27</title>
<path fill="none" stroke="midnightblue" d="M506.491,-185.45C491.742,-177.045 468.368,-163.724 450.886,-153.762"/>
<polygon fill="midnightblue" stroke="midnightblue" points="452.295,-150.536 441.873,-148.625 448.829,-156.618 452.295,-150.536"/>
</g>
<!-- Node19&#45;&gt;Node10 -->
<g id="edge32" class="edge"><title>Node19&#45;&gt;Node10</title>
<path fill="none" stroke="midnightblue" d="M480.495,-130.656C392.101,-119.17 238.625,-98.6321 234.616,-94 191.666,-44.3755 313.056,-25.1818 378.664,-18.5756"/>
<polygon fill="midnightblue" stroke="midnightblue" points="379.058,-22.054 388.681,-17.6207 378.394,-15.0856 379.058,-22.054"/>
</g>
<!-- Node19&#45;&gt;Node13 -->
<g id="edge28" class="edge"><title>Node19&#45;&gt;Node13</title>
<path fill="none" stroke="midnightblue" d="M541.448,-130.454C541.586,-115.514 544.056,-83.3397 561.616,-65 586.296,-39.2241 624.362,-26.8336 656.594,-20.8947"/>
<polygon fill="midnightblue" stroke="midnightblue" points="657.543,-24.2847 666.829,-19.1843 656.389,-17.3804 657.543,-24.2847"/>
</g>
<!-- Node19&#45;&gt;Node14 -->
<g id="edge27" class="edge"><title>Node19&#45;&gt;Node14</title>
<path fill="none" stroke="midnightblue" d="M602.809,-135.069C728.999,-127.716 1009.77,-109.819 1050.62,-94 1070.43,-86.3266 1069.69,-74.6531 1088.62,-65 1124.71,-46.5892 1168.82,-33.8013 1202.34,-25.8412"/>
<polygon fill="midnightblue" stroke="midnightblue" points="1203.43,-29.1825 1212.39,-23.5249 1201.86,-22.3615 1203.43,-29.1825"/>
</g>
<!-- Node19&#45;&gt;Node17 -->
<g id="edge29" class="edge"><title>Node19&#45;&gt;Node17</title>
<path fill="none" stroke="midnightblue" d="M571.65,-130.435C604.596,-121.589 658.269,-107.176 699.506,-96.1037"/>
<polygon fill="midnightblue" stroke="midnightblue" points="700.416,-99.4832 709.166,-93.5096 698.601,-92.7227 700.416,-99.4832"/>
</g>
<!-- Node20 -->
<g id="node21" class="node"><title>Node20</title>
<g id="a_node21"><a xlink:href="../../de/df3/ocra__assert_8h.html" target="_top" xlink:title="ocra/optim/ocra_assert.h">
<polygon fill="white" stroke="black" points="61.5913,-70.5 61.5913,-88.5 187.64,-88.5 187.64,-70.5 61.5913,-70.5"/>
<text text-anchor="middle" x="124.616" y="-76.5" font-family="Helvetica,sans-Serif" font-size="10.00">ocra/optim/ocra_assert.h</text>
</a>
</g>
</g>
<!-- Node19&#45;&gt;Node20 -->
<g id="edge24" class="edge"><title>Node19&#45;&gt;Node20</title>
<path fill="none" stroke="midnightblue" d="M480.745,-130.856C397.907,-120.398 253.989,-102.015 201.616,-94 194.153,-92.858 186.298,-91.5749 178.574,-90.266"/>
<polygon fill="midnightblue" stroke="midnightblue" points="178.987,-86.7857 168.538,-88.54 177.8,-93.6844 178.987,-86.7857"/>
</g>
<!-- Node19&#45;&gt;Node22 -->
<g id="edge26" class="edge"><title>Node19&#45;&gt;Node22</title>
<path fill="none" stroke="midnightblue" d="M553.991,-130.435C568.257,-121.138 591.956,-105.694 609.226,-94.4393"/>
<polygon fill="midnightblue" stroke="midnightblue" points="611.592,-97.0753 618.059,-88.6831 607.77,-91.2107 611.592,-97.0753"/>
</g>
<!-- Node23 -->
<g id="node24" class="node"><title>Node23</title>
<polygon fill="white" stroke="#bfbfbf" points="244.077,-65.5 244.077,-93.5 375.155,-93.5 375.155,-65.5 244.077,-65.5"/>
<text text-anchor="start" x="252.077" y="-81.5" font-family="Helvetica,sans-Serif" font-size="10.00">boost/type_traits/has</text>
<text text-anchor="middle" x="309.616" y="-71.5" font-family="Helvetica,sans-Serif" font-size="10.00">_nothrow_constructor.hpp</text>
</g>
<!-- Node19&#45;&gt;Node23 -->
<g id="edge30" class="edge"><title>Node19&#45;&gt;Node23</title>
<path fill="none" stroke="midnightblue" d="M509.357,-130.435C473.821,-121.551 415.835,-107.055 371.47,-95.9637"/>
<polygon fill="midnightblue" stroke="midnightblue" points="372.204,-92.5395 361.654,-93.5096 370.506,-99.3305 372.204,-92.5395"/>
</g>
<!-- Node19&#45;&gt;Node24 -->
<g id="edge31" class="edge"><title>Node19&#45;&gt;Node24</title>
<path fill="none" stroke="midnightblue" d="M480.547,-130.956C477.528,-130.624 474.538,-130.303 471.616,-130 285.703,-110.732 233.796,-139.918 52.6157,-94 50.6953,-93.5133 48.7424,-92.9203 46.799,-92.2574"/>
<polygon fill="midnightblue" stroke="midnightblue" points="47.942,-88.9459 37.3553,-88.5303 45.3722,-95.4571 47.942,-88.9459"/>
</g>
<!-- Node25 -->
<g id="node26" class="node"><title>Node25</title>
<polygon fill="white" stroke="#bfbfbf" points="393.443,-70.5 393.443,-88.5 437.788,-88.5 437.788,-70.5 393.443,-70.5"/>
<text text-anchor="middle" x="415.616" y="-76.5" font-family="Helvetica,sans-Serif" font-size="10.00">iosfwd</text>
</g>
<!-- Node19&#45;&gt;Node25 -->
<g id="edge33" class="edge"><title>Node19&#45;&gt;Node25</title>
<path fill="none" stroke="midnightblue" d="M524.096,-130.435C502.964,-120.708 467.213,-104.251 442.562,-92.9041"/>
<polygon fill="midnightblue" stroke="midnightblue" points="443.94,-89.6853 433.393,-88.6831 441.013,-96.044 443.94,-89.6853"/>
</g>
<!-- Node26 -->
<g id="node27" class="node"><title>Node26</title>
<polygon fill="white" stroke="#bfbfbf" points="456.214,-70.5 456.214,-88.5 515.017,-88.5 515.017,-70.5 456.214,-70.5"/>
<text text-anchor="middle" x="485.616" y="-76.5" font-family="Helvetica,sans-Serif" font-size="10.00">stdexcept</text>
</g>
<!-- Node19&#45;&gt;Node26 -->
<g id="edge34" class="edge"><title>Node19&#45;&gt;Node26</title>
<path fill="none" stroke="midnightblue" d="M533.829,-130.435C525.317,-121.619 511.467,-107.274 500.79,-96.2165"/>
<polygon fill="midnightblue" stroke="midnightblue" points="503.163,-93.6347 493.699,-88.8718 498.127,-98.4969 503.163,-93.6347"/>
</g>
<!-- Node21 -->
<g id="node22" class="node"><title>Node21</title>
<polygon fill="white" stroke="#bfbfbf" points="103.554,-5.5 103.554,-23.5 145.677,-23.5 145.677,-5.5 103.554,-5.5"/>
<text text-anchor="middle" x="124.616" y="-11.5" font-family="Helvetica,sans-Serif" font-size="10.00">cstdio</text>
</g>
<!-- Node20&#45;&gt;Node21 -->
<g id="edge25" class="edge"><title>Node20&#45;&gt;Node21</title>
<path fill="none" stroke="midnightblue" d="M124.616,-70.2639C124.616,-61.0635 124.616,-45.881 124.616,-33.8326"/>
<polygon fill="midnightblue" stroke="midnightblue" points="128.116,-33.5389 124.616,-23.539 121.116,-33.539 128.116,-33.5389"/>
</g>
<!-- Node28&#45;&gt;Node7 -->
<g id="edge41" class="edge"><title>Node28&#45;&gt;Node7</title>
<path fill="none" stroke="midnightblue" d="M724.512,-185.45C746.248,-176.656 781.287,-162.48 806.201,-152.401"/>
<polygon fill="midnightblue" stroke="midnightblue" points="807.575,-155.62 815.532,-148.625 804.95,-149.131 807.575,-155.62"/>
</g>
<!-- Node28&#45;&gt;Node29 -->
<g id="edge42" class="edge"><title>Node28&#45;&gt;Node29</title>
<path fill="none" stroke="midnightblue" d="M745.167,-185.45C794.573,-175.643 877.697,-159.143 928.316,-149.095"/>
<polygon fill="midnightblue" stroke="midnightblue" points="929.166,-152.495 938.294,-147.115 927.803,-145.629 929.166,-152.495"/>
</g>
<!-- Node28&#45;&gt;Node30 -->
<g id="edge43" class="edge"><title>Node28&#45;&gt;Node30</title>
<path fill="none" stroke="midnightblue" d="M764.456,-185.45C836.931,-175.701 958.575,-159.338 1033.39,-149.274"/>
<polygon fill="midnightblue" stroke="midnightblue" points="1034.18,-152.699 1043.63,-147.897 1033.25,-145.762 1034.18,-152.699"/>
</g>
<!-- Node32 -->
<g id="node33" class="node"><title>Node32</title>
<polygon fill="white" stroke="#bfbfbf" points="1181.56,-130.5 1181.56,-148.5 1233.67,-148.5 1233.67,-130.5 1181.56,-130.5"/>
<text text-anchor="middle" x="1207.62" y="-136.5" font-family="Helvetica,sans-Serif" font-size="10.00">memory</text>
</g>
<!-- Node31&#45;&gt;Node32 -->
<g id="edge45" class="edge"><title>Node31&#45;&gt;Node32</title>
<path fill="none" stroke="midnightblue" d="M1207.62,-185.219C1207.62,-178.177 1207.62,-167.808 1207.62,-158.828"/>
<polygon fill="midnightblue" stroke="midnightblue" points="1211.12,-158.55 1207.62,-148.55 1204.12,-158.55 1211.12,-158.55"/>
</g>
</g>
</svg>
