<?xml version="1.0" encoding="UTF-8" standalone="no"?>
<!DOCTYPE svg PUBLIC "-//W3C//DTD SVG 1.1//EN"
 "http://www.w3.org/Graphics/SVG/1.1/DTD/svg11.dtd">
<!-- Generated by graphviz version 2.38.0 (20140413.2041)
 -->
<!-- Title: ocra::Observer Pages: 1 -->
<svg width="1152pt" height="814pt"
 viewBox="0.00 0.00 1151.57 814.00" xmlns="http://www.w3.org/2000/svg" xmlns:xlink="http://www.w3.org/1999/xlink">
<g id="graph0" class="graph" transform="scale(1 1) rotate(0) translate(4 810)">
<title>ocra::Observer</title>
<polygon fill="white" stroke="none" points="-4,4 -4,-810 1147.57,-810 1147.57,4 -4,4"/>
<!-- Node0 -->
<g id="node1" class="node"><title>Node0</title>
<polygon fill="#bfbfbf" stroke="black" points="221.497,-200.5 221.497,-218.5 303.63,-218.5 303.63,-200.5 221.497,-200.5"/>
<text text-anchor="middle" x="262.563" y="-206.5" font-family="Helvetica,sans-Serif" font-size="10.00">ocra::Observer</text>
</g>
<!-- Node4 -->
<g id="node5" class="node"><title>Node4</title>
<g id="a_node5"><a xlink:href="../../d3/d16/classocra_1_1ObserverSubject.html" target="_top" xlink:title="ocra::ObserverSubject">
<polygon fill="white" stroke="black" points="339.63,-200.5 339.63,-218.5 455.117,-218.5 455.117,-200.5 339.63,-200.5"/>
<text text-anchor="middle" x="397.374" y="-206.5" font-family="Helvetica,sans-Serif" font-size="10.00">ocra::ObserverSubject</text>
</a>
</g>
</g>
<!-- Node0&#45;&gt;Node4 -->
<g id="edge4" class="edge"><title>Node0&#45;&gt;Node4</title>
<path fill="none" stroke="midnightblue" d="M313.968,-209.5C322.197,-209.5 330.775,-209.5 339.154,-209.5"/>
<polygon fill="midnightblue" stroke="midnightblue" points="313.771,-206 303.771,-209.5 313.771,-213 313.771,-206"/>
</g>
<!-- Node1 -->
<g id="node2" class="node"><title>Node1</title>
<g id="a_node2"><a xlink:href="../../d4/dee/classocra_1_1ObserverBase.html" target="_top" xlink:title="ocra::ObserverBase\l\&lt; EVT_RESIZE \&gt;">
<polygon fill="white" stroke="black" points="40.2856,-242.5 40.2856,-270.5 145.211,-270.5 145.211,-242.5 40.2856,-242.5"/>
<text text-anchor="start" x="48.2856" y="-258.5" font-family="Helvetica,sans-Serif" font-size="10.00">ocra::ObserverBase</text>
<text text-anchor="middle" x="92.7485" y="-248.5" font-family="Helvetica,sans-Serif" font-size="10.00">&lt; EVT_RESIZE &gt;</text>
</a>
</g>
</g>
<!-- Node1&#45;&gt;Node0 -->
<g id="edge1" class="edge"><title>Node1&#45;&gt;Node0</title>
<path fill="none" stroke="midnightblue" d="M154.963,-240.831C165.177,-238.118 175.65,-235.276 185.497,-232.5 201.034,-228.121 218.257,-222.94 232.381,-218.606"/>
<polygon fill="midnightblue" stroke="midnightblue" points="154.054,-237.451 145.278,-243.386 155.84,-244.219 154.054,-237.451"/>
</g>
<!-- Node2 -->
<g id="node3" class="node"><title>Node2</title>
<g id="a_node3"><a xlink:href="../../d4/dee/classocra_1_1ObserverBase.html" target="_top" xlink:title="ocra::ObserverBase\l\&lt; EVT_CHANGE_DEPENDENCIES \&gt;">
<polygon fill="white" stroke="black" points="0,-195.5 0,-223.5 185.497,-223.5 185.497,-195.5 0,-195.5"/>
<text text-anchor="start" x="8" y="-211.5" font-family="Helvetica,sans-Serif" font-size="10.00">ocra::ObserverBase</text>
<text text-anchor="middle" x="92.7485" y="-201.5" font-family="Helvetica,sans-Serif" font-size="10.00">&lt; EVT_CHANGE_DEPENDENCIES &gt;</text>
</a>
</g>
</g>
<!-- Node2&#45;&gt;Node0 -->
<g id="edge2" class="edge"><title>Node2&#45;&gt;Node0</title>
<path fill="none" stroke="midnightblue" d="M195.73,-209.5C204.692,-209.5 213.366,-209.5 221.314,-209.5"/>
<polygon fill="midnightblue" stroke="midnightblue" points="195.512,-206 185.512,-209.5 195.512,-213 195.512,-206"/>
</g>
<!-- Node3 -->
<g id="node4" class="node"><title>Node3</title>
<g id="a_node4"><a xlink:href="../../d4/dee/classocra_1_1ObserverBase.html" target="_top" xlink:title="ocra::ObserverBase\l\&lt; EVT_CHANGE_VALUE \&gt;">
<polygon fill="white" stroke="black" points="23.4253,-148.5 23.4253,-176.5 162.072,-176.5 162.072,-148.5 23.4253,-148.5"/>
<text text-anchor="start" x="31.4253" y="-164.5" font-family="Helvetica,sans-Serif" font-size="10.00">ocra::ObserverBase</text>
<text text-anchor="middle" x="92.7485" y="-154.5" font-family="Helvetica,sans-Serif" font-size="10.00">&lt; EVT_CHANGE_VALUE &gt;</text>
</a>
</g>
</g>
<!-- Node3&#45;&gt;Node0 -->
<g id="edge3" class="edge"><title>Node3&#45;&gt;Node0</title>
<path fill="none" stroke="midnightblue" d="M161.838,-179.084C169.832,-181.175 177.858,-183.339 185.497,-185.5 201.754,-190.098 219.791,-195.764 234.22,-200.436"/>
<polygon fill="midnightblue" stroke="midnightblue" points="162.689,-175.689 152.131,-176.577 160.938,-182.467 162.689,-175.689"/>
</g>
<!-- Node5 -->
<g id="node6" class="node"><title>Node5</title>
<g id="a_node6"><a xlink:href="../../d2/d99/classocra_1_1Function.html" target="_top" xlink:title="Function class. ">
<polygon fill="white" stroke="black" points="506.869,-484.5 506.869,-502.5 586.233,-502.5 586.233,-484.5 506.869,-484.5"/>
<text text-anchor="middle" x="546.551" y="-490.5" font-family="Helvetica,sans-Serif" font-size="10.00">ocra::Function</text>
</a>
</g>
</g>
<!-- Node4&#45;&gt;Node5 -->
<g id="edge5" class="edge"><title>Node4&#45;&gt;Node5</title>
<path fill="none" stroke="midnightblue" d="M407.876,-227.836C436.278,-282.641 519.851,-443.908 540.765,-484.264"/>
<polygon fill="midnightblue" stroke="midnightblue" points="410.812,-225.896 403.104,-218.628 404.597,-229.117 410.812,-225.896"/>
</g>
<!-- Node38 -->
<g id="node34" class="node"><title>Node38</title>
<g id="a_node34"><a xlink:href="../../dd/d9c/classocra_1_1MergedVariable.html" target="_top" xlink:title="ocra::MergedVariable">
<polygon fill="white" stroke="black" points="491.117,-237.5 491.117,-255.5 601.985,-255.5 601.985,-237.5 491.117,-237.5"/>
<text text-anchor="middle" x="546.551" y="-243.5" font-family="Helvetica,sans-Serif" font-size="10.00">ocra::MergedVariable</text>
</a>
</g>
</g>
<!-- Node4&#45;&gt;Node38 -->
<g id="edge33" class="edge"><title>Node4&#45;&gt;Node38</title>
<path fill="none" stroke="midnightblue" d="M444.105,-220.997C465.218,-226.305 489.922,-232.515 509.664,-237.478"/>
<polygon fill="midnightblue" stroke="midnightblue" points="444.929,-217.595 434.377,-218.551 443.222,-224.384 444.929,-217.595"/>
</g>
<!-- Node39 -->
<g id="node35" class="node"><title>Node39</title>
<g id="a_node35"><a xlink:href="../../d8/d4c/classocra_1_1ModelContacts.html" target="_top" xlink:title="ModelContacts class. ">
<polygon fill="white" stroke="black" points="492.697,-200.5 492.697,-218.5 600.406,-218.5 600.406,-200.5 492.697,-200.5"/>
<text text-anchor="middle" x="546.551" y="-206.5" font-family="Helvetica,sans-Serif" font-size="10.00">ocra::ModelContacts</text>
</a>
</g>
</g>
<!-- Node4&#45;&gt;Node39 -->
<g id="edge34" class="edge"><title>Node4&#45;&gt;Node39</title>
<path fill="none" stroke="midnightblue" d="M465.479,-209.5C474.593,-209.5 483.841,-209.5 492.657,-209.5"/>
<polygon fill="midnightblue" stroke="midnightblue" points="465.276,-206 455.276,-209.5 465.276,-213 465.276,-206"/>
</g>
<!-- Node40 -->
<g id="node36" class="node"><title>Node40</title>
<g id="a_node36"><a xlink:href="../../d6/dd3/classocra_1_1Solver.html" target="_top" xlink:title="Solver class. ">
<polygon fill="white" stroke="black" points="511.874,-163.5 511.874,-181.5 581.229,-181.5 581.229,-163.5 511.874,-163.5"/>
<text text-anchor="middle" x="546.551" y="-169.5" font-family="Helvetica,sans-Serif" font-size="10.00">ocra::Solver</text>
</a>
</g>
</g>
<!-- Node4&#45;&gt;Node40 -->
<g id="edge35" class="edge"><title>Node4&#45;&gt;Node40</title>
<path fill="none" stroke="midnightblue" d="M444.108,-198.003C465.948,-192.512 491.629,-186.056 511.687,-181.013"/>
<polygon fill="midnightblue" stroke="midnightblue" points="443.222,-194.616 434.377,-200.449 444.929,-201.405 443.222,-194.616"/>
</g>
<!-- Node51 -->
<g id="node47" class="node"><title>Node51</title>
<g id="a_node47"><a xlink:href="../../d2/dac/classocra_1_1Variable.html" target="_top" xlink:title="This class represents a variable in a mathematical sense. ">
<polygon fill="white" stroke="black" points="508.07,-37.5 508.07,-55.5 585.032,-55.5 585.032,-37.5 508.07,-37.5"/>
<text text-anchor="middle" x="546.551" y="-43.5" font-family="Helvetica,sans-Serif" font-size="10.00">ocra::Variable</text>
</a>
</g>
</g>
<!-- Node4&#45;&gt;Node51 -->
<g id="edge46" class="edge"><title>Node4&#45;&gt;Node51</title>
<path fill="none" stroke="midnightblue" d="M413.7,-192.526C444.619,-158.283 513.542,-81.95 537.308,-55.6294"/>
<polygon fill="midnightblue" stroke="midnightblue" points="410.812,-190.502 406.708,-200.269 416.008,-195.193 410.812,-190.502"/>
</g>
<!-- Node6 -->
<g id="node7" class="node"><title>Node6</title>
<g id="a_node7"><a xlink:href="../../d1/d44/classFunction1.html" target="_top" xlink:title="Function1">
<polygon fill="white" stroke="black" points="673.002,-688.5 673.002,-706.5 732.918,-706.5 732.918,-688.5 673.002,-688.5"/>
<text text-anchor="middle" x="702.96" y="-694.5" font-family="Helvetica,sans-Serif" font-size="10.00">Function1</text>
</a>
</g>
</g>
<!-- Node5&#45;&gt;Node6 -->
<g id="edge6" class="edge"><title>Node5&#45;&gt;Node6</title>
<path fill="none" stroke="midnightblue" d="M551.588,-512.949C560.425,-550.608 585.064,-633.707 637.985,-678.5 647.713,-686.734 660.893,-691.4 672.762,-694.044"/>
<polygon fill="midnightblue" stroke="midnightblue" points="554.923,-511.818 549.34,-502.814 548.089,-513.334 554.923,-511.818"/>
</g>
<!-- Node7 -->
<g id="node8" class="node"><title>Node7</title>
<g id="a_node8"><a xlink:href="../../d6/d7e/classFunction2.html" target="_top" xlink:title="Function2">
<polygon fill="white" stroke="black" points="673.002,-651.5 673.002,-669.5 732.918,-669.5 732.918,-651.5 673.002,-651.5"/>
<text text-anchor="middle" x="702.96" y="-657.5" font-family="Helvetica,sans-Serif" font-size="10.00">Function2</text>
</a>
</g>
</g>
<!-- Node5&#45;&gt;Node7 -->
<g id="edge7" class="edge"><title>Node5&#45;&gt;Node7</title>
<path fill="none" stroke="midnightblue" d="M553.999,-512.501C565.681,-544.056 593.357,-607.185 637.985,-641.5 647.997,-649.198 661.081,-653.785 672.806,-656.515"/>
<polygon fill="midnightblue" stroke="midnightblue" points="557.181,-511.004 550.532,-502.755 550.586,-513.35 557.181,-511.004"/>
</g>
<!-- Node8 -->
<g id="node9" class="node"><title>Node8</title>
<g id="a_node9"><a xlink:href="../../d9/d4a/classFunction3.html" target="_top" xlink:title="Function3">
<polygon fill="white" stroke="black" points="673.002,-614.5 673.002,-632.5 732.918,-632.5 732.918,-614.5 673.002,-614.5"/>
<text text-anchor="middle" x="702.96" y="-620.5" font-family="Helvetica,sans-Serif" font-size="10.00">Function3</text>
</a>
</g>
</g>
<!-- Node5&#45;&gt;Node8 -->
<g id="edge8" class="edge"><title>Node5&#45;&gt;Node8</title>
<path fill="none" stroke="midnightblue" d="M557.481,-511.491C571.981,-536.11 601.264,-580.024 637.985,-604.5 648.398,-611.44 661.411,-615.906 672.977,-618.75"/>
<polygon fill="midnightblue" stroke="midnightblue" points="560.351,-509.459 552.348,-502.516 554.274,-512.934 560.351,-509.459"/>
</g>
<!-- Node9 -->
<g id="node10" class="node"><title>Node9</title>
<g id="a_node10"><a xlink:href="../../db/d8c/classMyFunction.html" target="_top" xlink:title="MyFunction">
<polygon fill="white" stroke="black" points="669.118,-577.5 669.118,-595.5 736.803,-595.5 736.803,-577.5 669.118,-577.5"/>
<text text-anchor="middle" x="702.96" y="-583.5" font-family="Helvetica,sans-Serif" font-size="10.00">MyFunction</text>
</a>
</g>
</g>
<!-- Node5&#45;&gt;Node9 -->
<g id="edge9" class="edge"><title>Node5&#45;&gt;Node9</title>
<path fill="none" stroke="midnightblue" d="M563.568,-510.016C580.599,-526.705 609.024,-552.155 637.985,-567.5 647.609,-572.599 658.791,-576.515 669.089,-579.43"/>
<polygon fill="midnightblue" stroke="midnightblue" points="565.714,-507.212 556.17,-502.61 560.761,-512.159 565.714,-507.212"/>
</g>
<!-- Node10 -->
<g id="node11" class="node"><title>Node10</title>
<g id="a_node11"><a xlink:href="../../db/da4/classocra_1_1DotProductFunction.html" target="_top" xlink:title="DotProductFunction class. ">
<polygon fill="white" stroke="black" points="638.266,-540.5 638.266,-558.5 767.655,-558.5 767.655,-540.5 638.266,-540.5"/>
<text text-anchor="middle" x="702.96" y="-546.5" font-family="Helvetica,sans-Serif" font-size="10.00">ocra::DotProductFunction</text>
</a>
</g>
</g>
<!-- Node5&#45;&gt;Node10 -->
<g id="edge10" class="edge"><title>Node5&#45;&gt;Node10</title>
<path fill="none" stroke="midnightblue" d="M577.793,-506.756C595.227,-514.174 617.654,-523.342 637.985,-530.5 648.04,-534.04 659.13,-537.489 669.213,-540.456"/>
<polygon fill="midnightblue" stroke="midnightblue" points="578.728,-503.348 568.158,-502.618 575.966,-509.78 578.728,-503.348"/>
</g>
<!-- Node11 -->
<g id="node12" class="node"><title>Node11</title>
<g id="a_node12"><a xlink:href="../../de/d3a/classocra_1_1LinearFunction.html" target="_top" xlink:title="LinearFunction class. ">
<polygon fill="white" stroke="black" points="649.379,-503.5 649.379,-521.5 756.542,-521.5 756.542,-503.5 649.379,-503.5"/>
<text text-anchor="middle" x="702.96" y="-509.5" font-family="Helvetica,sans-Serif" font-size="10.00">ocra::LinearFunction</text>
</a>
</g>
</g>
<!-- Node5&#45;&gt;Node11 -->
<g id="edge11" class="edge"><title>Node5&#45;&gt;Node11</title>
<path fill="none" stroke="midnightblue" d="M596.661,-499.543C613.435,-501.607 632.258,-503.923 649.301,-506.02"/>
<polygon fill="midnightblue" stroke="midnightblue" points="596.868,-496.042 586.515,-498.295 596.013,-502.99 596.868,-496.042"/>
</g>
<!-- Node30 -->
<g id="node26" class="node"><title>Node30</title>
<g id="a_node26"><a xlink:href="../../dd/d93/classocra_1_1Pb114G10.html" target="_top" xlink:title="ocra::Pb114G10">
<polygon fill="white" stroke="black" points="658.916,-466.5 658.916,-484.5 747.005,-484.5 747.005,-466.5 658.916,-466.5"/>
<text text-anchor="middle" x="702.96" y="-472.5" font-family="Helvetica,sans-Serif" font-size="10.00">ocra::Pb114G10</text>
</a>
</g>
</g>
<!-- Node5&#45;&gt;Node30 -->
<g id="edge25" class="edge"><title>Node5&#45;&gt;Node30</title>
<path fill="none" stroke="midnightblue" d="M596.634,-487.778C616.553,-485.456 639.364,-482.797 658.654,-480.548"/>
<polygon fill="midnightblue" stroke="midnightblue" points="596.043,-484.323 586.515,-488.958 596.853,-491.276 596.043,-484.323"/>
</g>
<!-- Node31 -->
<g id="node27" class="node"><title>Node31</title>
<g id="a_node27"><a xlink:href="../../da/d6c/classocra_1_1Pb114G11.html" target="_top" xlink:title="ocra::Pb114G11">
<polygon fill="white" stroke="black" points="659.284,-429.5 659.284,-447.5 746.637,-447.5 746.637,-429.5 659.284,-429.5"/>
<text text-anchor="middle" x="702.96" y="-435.5" font-family="Helvetica,sans-Serif" font-size="10.00">ocra::Pb114G11</text>
</a>
</g>
</g>
<!-- Node5&#45;&gt;Node31 -->
<g id="edge26" class="edge"><title>Node5&#45;&gt;Node31</title>
<path fill="none" stroke="midnightblue" d="M577.411,-480.279C594.88,-472.798 617.469,-463.557 637.985,-456.5 647.368,-453.272 657.667,-450.182 667.207,-447.501"/>
<polygon fill="midnightblue" stroke="midnightblue" points="575.558,-477.267 567.771,-484.451 578.338,-483.692 575.558,-477.267"/>
</g>
<!-- Node32 -->
<g id="node28" class="node"><title>Node32</title>
<g id="a_node28"><a xlink:href="../../d9/df1/classocra_1_1Pb114G5.html" target="_top" xlink:title="ocra::Pb114G5">
<polygon fill="white" stroke="black" points="661.696,-392.5 661.696,-410.5 744.225,-410.5 744.225,-392.5 661.696,-392.5"/>
<text text-anchor="middle" x="702.96" y="-398.5" font-family="Helvetica,sans-Serif" font-size="10.00">ocra::Pb114G5</text>
</a>
</g>
</g>
<!-- Node5&#45;&gt;Node32 -->
<g id="edge27" class="edge"><title>Node5&#45;&gt;Node32</title>
<path fill="none" stroke="midnightblue" d="M563.523,-476.898C580.517,-460.141 608.914,-434.636 637.985,-419.5 645.252,-415.717 653.408,-412.648 661.402,-410.187"/>
<polygon fill="midnightblue" stroke="midnightblue" points="560.701,-474.774 556.143,-484.338 565.67,-479.703 560.701,-474.774"/>
</g>
<!-- Node33 -->
<g id="node29" class="node"><title>Node33</title>
<g id="a_node29"><a xlink:href="../../d9/d7e/classocra_1_1QuadraticFunction.html" target="_top" xlink:title="QuadraticFunction class. ">
<polygon fill="white" stroke="black" points="641.601,-318.5 641.601,-336.5 764.32,-336.5 764.32,-318.5 641.601,-318.5"/>
<text text-anchor="middle" x="702.96" y="-324.5" font-family="Helvetica,sans-Serif" font-size="10.00">ocra::QuadraticFunction</text>
</a>
</g>
</g>
<!-- Node5&#45;&gt;Node33 -->
<g id="edge28" class="edge"><title>Node5&#45;&gt;Node33</title>
<path fill="none" stroke="midnightblue" d="M560.148,-476.176C576.867,-453.64 607.805,-413.489 637.985,-382.5 654.949,-365.081 676.813,-347.127 690.089,-336.655"/>
<polygon fill="midnightblue" stroke="midnightblue" points="557.191,-474.289 554.086,-484.418 562.831,-478.436 557.191,-474.289"/>
</g>
<!-- Node37 -->
<g id="node33" class="node"><title>Node37</title>
<g id="a_node33"><a xlink:href="../../df/d5a/classocra_1_1SubtractionFunction.html" target="_top" xlink:title="SubtractionFunction class. ">
<polygon fill="white" stroke="black" points="637.985,-281.5 637.985,-299.5 767.936,-299.5 767.936,-281.5 637.985,-281.5"/>
<text text-anchor="middle" x="702.96" y="-287.5" font-family="Helvetica,sans-Serif" font-size="10.00">ocra::SubtractionFunction</text>
</a>
</g>
</g>
<!-- Node5&#45;&gt;Node37 -->
<g id="edge32" class="edge"><title>Node5&#45;&gt;Node37</title>
<path fill="none" stroke="midnightblue" d="M551.532,-473.983C560.269,-436.206 584.743,-352.91 637.985,-308.5 642.416,-304.805 647.556,-301.866 652.959,-299.53"/>
<polygon fill="midnightblue" stroke="midnightblue" points="548.025,-473.636 549.311,-484.152 554.864,-475.129 548.025,-473.636"/>
</g>
<!-- Node12 -->
<g id="node13" class="node"><title>Node12</title>
<g id="a_node13"><a xlink:href="../../d4/d45/classocra_1_1ContactAvoidanceFunction.html" target="_top" xlink:title="Create a linear function that represents the joint limit function. ">
<polygon fill="white" stroke="red" points="806.523,-782.5 806.523,-800.5 966.874,-800.5 966.874,-782.5 806.523,-782.5"/>
<text text-anchor="middle" x="886.699" y="-788.5" font-family="Helvetica,sans-Serif" font-size="10.00">ocra::ContactAvoidanceFunction</text>
</a>
</g>
</g>
<!-- Node11&#45;&gt;Node12 -->
<g id="edge12" class="edge"><title>Node11&#45;&gt;Node12</title>
<path fill="none" stroke="midnightblue" d="M765.081,-527.597C766.081,-528.511 767.035,-529.477 767.936,-530.5 839.808,-612.1 730.208,-692.573 803.936,-772.5 807.69,-776.571 812.132,-779.851 816.974,-782.487"/>
<polygon fill="midnightblue" stroke="midnightblue" points="766.798,-524.524 756.62,-521.582 762.742,-530.229 766.798,-524.524"/>
</g>
<!-- Node15 -->
<g id="node15" class="node"><title>Node15</title>
<g id="a_node15"><a xlink:href="../../d3/d89/classocra_1_1DiagonalLinearFunction.html" target="_top" xlink:title="DiagonalLinearFunction class. ">
<polygon fill="white" stroke="red" points="813.381,-745.5 813.381,-763.5 960.016,-763.5 960.016,-745.5 813.381,-745.5"/>
<text text-anchor="middle" x="886.699" y="-751.5" font-family="Helvetica,sans-Serif" font-size="10.00">ocra::DiagonalLinearFunction</text>
</a>
</g>
</g>
<!-- Node11&#45;&gt;Node15 -->
<g id="edge14" class="edge"><title>Node11&#45;&gt;Node15</title>
<path fill="none" stroke="midnightblue" d="M764.624,-527.259C765.789,-528.271 766.896,-529.35 767.936,-530.5 829.981,-599.112 740.331,-668.331 803.936,-735.5 807.743,-739.521 812.222,-742.767 817.089,-745.379"/>
<polygon fill="midnightblue" stroke="midnightblue" points="766.445,-524.264 756.216,-521.505 762.492,-530.041 766.445,-524.264"/>
</g>
<!-- Node18 -->
<g id="node16" class="node"><title>Node18</title>
<g id="a_node16"><a xlink:href="../../d4/d5c/classocra_1_1DoubleDiagonalLinearFunction.html" target="_top" xlink:title="DoubleDiagonalLinearFunction class. ">
<polygon fill="white" stroke="black" points="816.714,-698.5 816.714,-726.5 956.684,-726.5 956.684,-698.5 816.714,-698.5"/>
<text text-anchor="start" x="824.714" y="-714.5" font-family="Helvetica,sans-Serif" font-size="10.00">ocra::DoubleDiagonalLinear</text>
<text text-anchor="middle" x="886.699" y="-704.5" font-family="Helvetica,sans-Serif" font-size="10.00">Function</text>
</a>
</g>
</g>
<!-- Node11&#45;&gt;Node18 -->
<g id="edge15" class="edge"><title>Node11&#45;&gt;Node18</title>
<path fill="none" stroke="midnightblue" d="M764.465,-527.261C765.682,-528.272 766.842,-529.35 767.936,-530.5 817.567,-582.69 754.598,-636.031 803.936,-688.5 807.584,-692.38 811.823,-695.643 816.415,-698.387"/>
<polygon fill="midnightblue" stroke="midnightblue" points="765.998,-524.081 755.718,-521.519 762.156,-529.933 765.998,-524.081"/>
</g>
<!-- Node19 -->
<g id="node17" class="node"><title>Node19</title>
<g id="a_node17"><a xlink:href="../../d9/da6/classocra_1_1DynamicEquationFunction.html" target="_top" xlink:title="DynamicEquationFunction class. ">
<polygon fill="white" stroke="black" points="807.83,-661.5 807.83,-679.5 965.568,-679.5 965.568,-661.5 807.83,-661.5"/>
<text text-anchor="middle" x="886.699" y="-667.5" font-family="Helvetica,sans-Serif" font-size="10.00">ocra::DynamicEquationFunction</text>
</a>
</g>
</g>
<!-- Node11&#45;&gt;Node19 -->
<g id="edge16" class="edge"><title>Node11&#45;&gt;Node19</title>
<path fill="none" stroke="midnightblue" d="M763.896,-526.993C765.313,-528.08 766.664,-529.247 767.936,-530.5 807.904,-569.877 763.073,-613.051 803.936,-651.5 808.287,-655.594 813.342,-658.865 818.763,-661.47"/>
<polygon fill="midnightblue" stroke="midnightblue" points="765.51,-523.877 755.162,-521.601 761.832,-529.833 765.51,-523.877"/>
</g>
<!-- Node20 -->
<g id="node18" class="node"><title>Node20</title>
<g id="a_node18"><a xlink:href="../../de/ddd/classocra_1_1FullDynamicEquationFunction.html" target="_top" xlink:title="Create a linear function that represents the dynamic equation of motion. ">
<polygon fill="white" stroke="black" points="818.95,-614.5 818.95,-642.5 954.447,-642.5 954.447,-614.5 818.95,-614.5"/>
<text text-anchor="start" x="826.95" y="-630.5" font-family="Helvetica,sans-Serif" font-size="10.00">ocra::FullDynamicEquation</text>
<text text-anchor="middle" x="886.699" y="-620.5" font-family="Helvetica,sans-Serif" font-size="10.00">Function</text>
</a>
</g>
</g>
<!-- Node11&#45;&gt;Node20 -->
<g id="edge17" class="edge"><title>Node11&#45;&gt;Node20</title>
<path fill="none" stroke="midnightblue" d="M762.218,-526.356C764.221,-527.619 766.137,-528.997 767.936,-530.5 796,-553.954 776.004,-580.889 803.936,-604.5 808.568,-608.416 813.813,-611.693 819.357,-614.435"/>
<polygon fill="midnightblue" stroke="midnightblue" points="763.452,-523.052 752.968,-521.522 760.21,-529.256 763.452,-523.052"/>
</g>
<!-- Node21 -->
<g id="node19" class="node"><title>Node21</title>
<g id="a_node19"><a xlink:href="../../df/de0/classocra_1_1JointLimitFunction.html" target="_top" xlink:title="Create a linear function that represents the joint limit function. ">
<polygon fill="white" stroke="red" points="825.898,-577.5 825.898,-595.5 947.499,-595.5 947.499,-577.5 825.898,-577.5"/>
<text text-anchor="middle" x="886.699" y="-583.5" font-family="Helvetica,sans-Serif" font-size="10.00">ocra::JointLimitFunction</text>
</a>
</g>
</g>
<!-- Node11&#45;&gt;Node21 -->
<g id="edge18" class="edge"><title>Node11&#45;&gt;Node21</title>
<path fill="none" stroke="midnightblue" d="M757.275,-525.12C760.98,-526.714 764.573,-528.5 767.936,-530.5 787.654,-542.231 783.953,-556.225 803.936,-567.5 811.297,-571.654 819.52,-574.9 827.836,-577.438"/>
<polygon fill="midnightblue" stroke="midnightblue" points="758.495,-521.839 747.904,-521.543 755.998,-528.379 758.495,-521.839"/>
</g>
<!-- Node24 -->
<g id="node20" class="node"><title>Node24</title>
<g id="a_node20"><a xlink:href="../../d0/dd6/classocra_1_1LinearizedCoulombFunction.html" target="_top" xlink:title="LinearizedCoulombFunction class. ">
<polygon fill="white" stroke="black" points="803.936,-540.5 803.936,-558.5 969.462,-558.5 969.462,-540.5 803.936,-540.5"/>
<text text-anchor="middle" x="886.699" y="-546.5" font-family="Helvetica,sans-Serif" font-size="10.00">ocra::LinearizedCoulombFunction</text>
</a>
</g>
</g>
<!-- Node11&#45;&gt;Node24 -->
<g id="edge19" class="edge"><title>Node11&#45;&gt;Node24</title>
<path fill="none" stroke="midnightblue" d="M758.317,-523.566C784.841,-528.966 816.344,-535.38 841.385,-540.478"/>
<polygon fill="midnightblue" stroke="midnightblue" points="758.916,-520.117 748.419,-521.551 757.519,-526.976 758.916,-520.117"/>
</g>
<!-- Node25 -->
<g id="node21" class="node"><title>Node25</title>
<g id="a_node21"><a xlink:href="../../dd/d16/classocra_1_1LinearTask.html" target="_top" xlink:title="LinearTask class. ">
<polygon fill="white" stroke="black" points="842.014,-503.5 842.014,-521.5 931.383,-521.5 931.383,-503.5 842.014,-503.5"/>
<text text-anchor="middle" x="886.699" y="-509.5" font-family="Helvetica,sans-Serif" font-size="10.00">ocra::LinearTask</text>
</a>
</g>
</g>
<!-- Node11&#45;&gt;Node25 -->
<g id="edge20" class="edge"><title>Node11&#45;&gt;Node25</title>
<path fill="none" stroke="midnightblue" d="M767.341,-512.5C791.914,-512.5 819.448,-512.5 841.771,-512.5"/>
<polygon fill="midnightblue" stroke="midnightblue" points="767.015,-509 757.015,-512.5 767.015,-516 767.015,-509"/>
</g>
<!-- Node26 -->
<g id="node22" class="node"><title>Node26</title>
<g id="a_node22"><a xlink:href="../../dd/dda/classocra_1_1SecondOrderLinearTask.html" target="_top" xlink:title="SecondOrderLinearTask class. ">
<polygon fill="white" stroke="black" points="812.275,-466.5 812.275,-484.5 961.122,-484.5 961.122,-466.5 812.275,-466.5"/>
<text text-anchor="middle" x="886.699" y="-472.5" font-family="Helvetica,sans-Serif" font-size="10.00">ocra::SecondOrderLinearTask</text>
</a>
</g>
</g>
<!-- Node11&#45;&gt;Node26 -->
<g id="edge21" class="edge"><title>Node11&#45;&gt;Node26</title>
<path fill="none" stroke="midnightblue" d="M758.317,-501.434C784.841,-496.034 816.344,-489.62 841.385,-484.522"/>
<polygon fill="midnightblue" stroke="midnightblue" points="757.519,-498.024 748.419,-503.449 758.916,-504.883 757.519,-498.024"/>
</g>
<!-- Node27 -->
<g id="node23" class="node"><title>Node27</title>
<g id="a_node23"><a xlink:href="../../d0/d8f/classocra_1_1SumOfLinearFunctions.html" target="_top" xlink:title="ocra::SumOfLinearFunctions">
<polygon fill="white" stroke="black" points="815.059,-429.5 815.059,-447.5 958.339,-447.5 958.339,-429.5 815.059,-429.5"/>
<text text-anchor="middle" x="886.699" y="-435.5" font-family="Helvetica,sans-Serif" font-size="10.00">ocra::SumOfLinearFunctions</text>
</a>
</g>
</g>
<!-- Node11&#45;&gt;Node27 -->
<g id="edge22" class="edge"><title>Node11&#45;&gt;Node27</title>
<path fill="none" stroke="midnightblue" d="M755.496,-499.773C759.829,-497.938 764.038,-495.857 767.936,-493.5 787.569,-481.627 783.888,-467.658 803.936,-456.5 810.54,-452.824 817.834,-449.899 825.267,-447.571"/>
<polygon fill="midnightblue" stroke="midnightblue" points="754.001,-496.596 745.884,-503.406 756.476,-503.144 754.001,-496.596"/>
</g>
<!-- Node28 -->
<g id="node24" class="node"><title>Node28</title>
<g id="a_node24"><a xlink:href="../../dd/d3d/classocra_1_1TorqueLimitFunction.html" target="_top" xlink:title="Create a linear function that represents the torque limit function. ">
<polygon fill="white" stroke="black" points="821.172,-392.5 821.172,-410.5 952.226,-410.5 952.226,-392.5 821.172,-392.5"/>
<text text-anchor="middle" x="886.699" y="-398.5" font-family="Helvetica,sans-Serif" font-size="10.00">ocra::TorqueLimitFunction</text>
</a>
</g>
</g>
<!-- Node11&#45;&gt;Node28 -->
<g id="edge23" class="edge"><title>Node11&#45;&gt;Node28</title>
<path fill="none" stroke="midnightblue" d="M760.332,-498.882C763.024,-497.283 765.581,-495.496 767.936,-493.5 795.83,-469.844 775.208,-442.136 803.936,-419.5 809.073,-415.452 814.931,-412.271 821.097,-409.777"/>
<polygon fill="midnightblue" stroke="midnightblue" points="758.731,-495.769 751.357,-503.377 761.866,-502.028 758.731,-495.769"/>
</g>
<!-- Node29 -->
<g id="node25" class="node"><title>Node29</title>
<g id="a_node25"><a xlink:href="../../d7/d46/classocra_1_1VariableChiFunction.html" target="_top" xlink:title="ocra::VariableChiFunction">
<polygon fill="white" stroke="black" points="821.538,-355.5 821.538,-373.5 951.859,-373.5 951.859,-355.5 821.538,-355.5"/>
<text text-anchor="middle" x="886.699" y="-361.5" font-family="Helvetica,sans-Serif" font-size="10.00">ocra::VariableChiFunction</text>
</a>
</g>
</g>
<!-- Node11&#45;&gt;Node29 -->
<g id="edge24" class="edge"><title>Node11&#45;&gt;Node29</title>
<path fill="none" stroke="midnightblue" d="M761.936,-498.42C764.071,-496.94 766.085,-495.305 767.936,-493.5 805.062,-457.287 765.529,-417.353 803.936,-382.5 808.994,-377.909 814.952,-374.397 821.307,-371.723"/>
<polygon fill="midnightblue" stroke="midnightblue" points="760.151,-495.409 753.192,-503.399 763.614,-501.492 760.151,-495.409"/>
</g>
<!-- Node13 -->
<g id="node14" class="node"><title>Node13</title>
<g id="a_node14"><a xlink:href="../../da/d90/classocra_1_1FullContactAvoidanceFunction.html" target="_top" xlink:title="Create a linear function that represents the contact avoidance function for the full formalism...">
<polygon fill="white" stroke="black" points="1005.46,-777.5 1005.46,-805.5 1143.57,-805.5 1143.57,-777.5 1005.46,-777.5"/>
<text text-anchor="start" x="1013.46" y="-793.5" font-family="Helvetica,sans-Serif" font-size="10.00">ocra::FullContactAvoidance</text>
<text text-anchor="middle" x="1074.52" y="-783.5" font-family="Helvetica,sans-Serif" font-size="10.00">Function</text>
</a>
</g>
</g>
<!-- Node12&#45;&gt;Node13 -->
<g id="edge13" class="edge"><title>Node12&#45;&gt;Node13</title>
<path fill="none" stroke="midnightblue" d="M977.236,-791.5C986.666,-791.5 996.141,-791.5 1005.27,-791.5"/>
<polygon fill="midnightblue" stroke="midnightblue" points="977.041,-788 967.041,-791.5 977.041,-795 977.041,-788"/>
</g>
<!-- Node34 -->
<g id="node30" class="node"><title>Node34</title>
<g id="a_node30"><a xlink:href="../../d3/d16/classocra_1_1FcQuadraticFunction.html" target="_top" xlink:title="ocra::FcQuadraticFunction">
<polygon fill="white" stroke="black" points="819.785,-318.5 819.785,-336.5 953.612,-336.5 953.612,-318.5 819.785,-318.5"/>
<text text-anchor="middle" x="886.699" y="-324.5" font-family="Helvetica,sans-Serif" font-size="10.00">ocra::FcQuadraticFunction</text>
</a>
</g>
</g>
<!-- Node33&#45;&gt;Node34 -->
<g id="edge29" class="edge"><title>Node33&#45;&gt;Node34</title>
<path fill="none" stroke="midnightblue" d="M774.57,-327.5C789.354,-327.5 804.891,-327.5 819.507,-327.5"/>
<polygon fill="midnightblue" stroke="midnightblue" points="774.477,-324 764.477,-327.5 774.477,-331 774.477,-324"/>
</g>
<!-- Node35 -->
<g id="node31" class="node"><title>Node35</title>
<g id="a_node31"><a xlink:href="../../df/dfc/classocra_1_1SquaredLinearFunction.html" target="_top" xlink:title="SquaredLinearFunction class. ">
<polygon fill="white" stroke="black" points="814.214,-281.5 814.214,-299.5 959.184,-299.5 959.184,-281.5 814.214,-281.5"/>
<text text-anchor="middle" x="886.699" y="-287.5" font-family="Helvetica,sans-Serif" font-size="10.00">ocra::SquaredLinearFunction</text>
</a>
</g>
</g>
<!-- Node33&#45;&gt;Node35 -->
<g id="edge30" class="edge"><title>Node33&#45;&gt;Node35</title>
<path fill="none" stroke="midnightblue" d="M758.317,-316.434C784.841,-311.034 816.344,-304.62 841.385,-299.522"/>
<polygon fill="midnightblue" stroke="midnightblue" points="757.519,-313.024 748.419,-318.449 758.916,-319.883 757.519,-313.024"/>
</g>
<!-- Node36 -->
<g id="node32" class="node"><title>Node36</title>
<g id="a_node32"><a xlink:href="../../d2/d31/classocra_1_1WeightedSquareDistanceFunction.html" target="_top" xlink:title="WeightedSquareDistanceFunction class. ">
<polygon fill="white" stroke="black" points="809.583,-234.5 809.583,-262.5 963.815,-262.5 963.815,-234.5 809.583,-234.5"/>
<text text-anchor="start" x="817.583" y="-250.5" font-family="Helvetica,sans-Serif" font-size="10.00">ocra::WeightedSquareDistance</text>
<text text-anchor="middle" x="886.699" y="-240.5" font-family="Helvetica,sans-Serif" font-size="10.00">Function</text>
</a>
</g>
</g>
<!-- Node33&#45;&gt;Node36 -->
<g id="edge31" class="edge"><title>Node33&#45;&gt;Node36</title>
<path fill="none" stroke="midnightblue" d="M755.496,-314.773C759.829,-312.938 764.038,-310.857 767.936,-308.5 787.569,-296.627 784.217,-283.23 803.936,-271.5 809.765,-268.032 816.14,-265.068 822.675,-262.538"/>
<polygon fill="midnightblue" stroke="midnightblue" points="754.001,-311.596 745.884,-318.406 756.476,-318.144 754.001,-311.596"/>
</g>
<!-- Node41 -->
<g id="node37" class="node"><title>Node41</title>
<g id="a_node37"><a xlink:href="../../d6/d35/classocra_1_1CascadeQPSolver.html" target="_top" xlink:title="CascadeQPSolver class. ">
<polygon fill="white" stroke="black" points="641.325,-237.5 641.325,-255.5 764.596,-255.5 764.596,-237.5 641.325,-237.5"/>
<text text-anchor="middle" x="702.96" y="-243.5" font-family="Helvetica,sans-Serif" font-size="10.00">ocra::CascadeQPSolver</text>
</a>
</g>
</g>
<!-- Node40&#45;&gt;Node41 -->
<g id="edge36" class="edge"><title>Node40&#45;&gt;Node41</title>
<path fill="none" stroke="midnightblue" d="M591.074,-184.748C594.876,-186.452 598.571,-188.363 601.985,-190.5 621.434,-202.672 618.352,-215.627 637.985,-227.5 644.727,-231.577 652.401,-234.829 660.037,-237.406"/>
<polygon fill="midnightblue" stroke="midnightblue" points="592.088,-181.385 581.503,-180.932 589.495,-187.887 592.088,-181.385"/>
</g>
<!-- Node42 -->
<g id="node38" class="node"><title>Node42</title>
<g id="a_node38"><a xlink:href="../../dc/d6e/classocra_1_1FSQPSolver.html" target="_top" xlink:title="FSQPSolver class. ">
<polygon fill="white" stroke="black" points="654.67,-200.5 654.67,-218.5 751.251,-218.5 751.251,-200.5 654.67,-200.5"/>
<text text-anchor="middle" x="702.96" y="-206.5" font-family="Helvetica,sans-Serif" font-size="10.00">ocra::FSQPSolver</text>
</a>
</g>
</g>
<!-- Node40&#45;&gt;Node42 -->
<g id="edge37" class="edge"><title>Node40&#45;&gt;Node42</title>
<path fill="none" stroke="midnightblue" d="M591.306,-182.985C614.345,-188.505 642.311,-195.207 664.364,-200.491"/>
<polygon fill="midnightblue" stroke="midnightblue" points="591.977,-179.546 581.437,-180.62 590.346,-186.354 591.977,-179.546"/>
</g>
<!-- Node43 -->
<g id="node39" class="node"><title>Node43</title>
<g id="a_node39"><a xlink:href="../../d2/d07/classocra_1_1NewtonSolver.html" target="_top" xlink:title="NewtonSolver class. ">
<polygon fill="white" stroke="black" points="651.33,-163.5 651.33,-181.5 754.591,-181.5 754.591,-163.5 651.33,-163.5"/>
<text text-anchor="middle" x="702.96" y="-169.5" font-family="Helvetica,sans-Serif" font-size="10.00">ocra::NewtonSolver</text>
</a>
</g>
</g>
<!-- Node40&#45;&gt;Node43 -->
<g id="edge38" class="edge"><title>Node40&#45;&gt;Node43</title>
<path fill="none" stroke="midnightblue" d="M591.668,-172.5C610.22,-172.5 631.915,-172.5 651.132,-172.5"/>
<polygon fill="midnightblue" stroke="midnightblue" points="591.437,-169 581.437,-172.5 591.437,-176 591.437,-169"/>
</g>
<!-- Node44 -->
<g id="node40" class="node"><title>Node44</title>
<g id="a_node40"><a xlink:href="../../d2/d5e/classocra_1_1OneLevelSolver.html" target="_top" xlink:title="A generic abstract class the solvers that can be used in the wOcra Controller. ">
<polygon fill="white" stroke="black" points="646.879,-126.5 646.879,-144.5 759.042,-144.5 759.042,-126.5 646.879,-126.5"/>
<text text-anchor="middle" x="702.96" y="-132.5" font-family="Helvetica,sans-Serif" font-size="10.00">ocra::OneLevelSolver</text>
</a>
</g>
</g>
<!-- Node40&#45;&gt;Node44 -->
<g id="edge39" class="edge"><title>Node40&#45;&gt;Node44</title>
<path fill="none" stroke="midnightblue" d="M591.306,-162.015C614.345,-156.495 642.311,-149.793 664.364,-144.509"/>
<polygon fill="midnightblue" stroke="midnightblue" points="590.346,-158.646 581.437,-164.38 591.977,-165.454 590.346,-158.646"/>
</g>
<!-- Node48 -->
<g id="node44" class="node"><title>Node48</title>
<g id="a_node44"><a xlink:href="../../d7/dab/classocra_1_1QuadraticSolver.html" target="_top" xlink:title="QuadraticSolver class. ">
<polygon fill="white" stroke="black" points="646.606,-74.5 646.606,-92.5 759.315,-92.5 759.315,-74.5 646.606,-74.5"/>
<text text-anchor="middle" x="702.96" y="-80.5" font-family="Helvetica,sans-Serif" font-size="10.00">ocra::QuadraticSolver</text>
</a>
</g>
</g>
<!-- Node40&#45;&gt;Node48 -->
<g id="edge43" class="edge"><title>Node40&#45;&gt;Node48</title>
<path fill="none" stroke="midnightblue" d="M570.125,-157.839C588.242,-146.238 614.45,-129.83 637.985,-116.5 653.101,-107.939 670.662,-98.9458 683.558,-92.5136"/>
<polygon fill="midnightblue" stroke="midnightblue" points="567.96,-155.07 561.445,-163.425 571.748,-160.956 567.96,-155.07"/>
</g>
<!-- Node45 -->
<g id="node41" class="node"><title>Node45</title>
<g id="a_node41"><a xlink:href="../../df/d1b/classocra_1_1OneLevelSolverWithQLD.html" target="_top" xlink:title="Solver class that only consider one level of importance for all tasks using QLD. ">
<polygon fill="white" stroke="black" points="810.337,-197.5 810.337,-215.5 963.061,-215.5 963.061,-197.5 810.337,-197.5"/>
<text text-anchor="middle" x="886.699" y="-203.5" font-family="Helvetica,sans-Serif" font-size="10.00">ocra::OneLevelSolverWithQLD</text>
</a>
</g>
</g>
<!-- Node44&#45;&gt;Node45 -->
<g id="edge40" class="edge"><title>Node44&#45;&gt;Node45</title>
<path fill="none" stroke="midnightblue" d="M756.489,-147.995C760.459,-149.624 764.322,-151.452 767.936,-153.5 787.083,-164.35 784.544,-177.092 803.936,-187.5 811.64,-191.635 820.224,-194.875 828.853,-197.413"/>
<polygon fill="midnightblue" stroke="midnightblue" points="757.692,-144.708 747.098,-144.544 755.277,-151.279 757.692,-144.708"/>
</g>
<!-- Node46 -->
<g id="node42" class="node"><title>Node46</title>
<g id="a_node42"><a xlink:href="../../d0/d12/classocra_1_1OneLevelSolverWithQPOASES.html" target="_top" xlink:title="Solver class that only consider one level of importance for all tasks using QPOASES. ">
<polygon fill="white" stroke="black" points="820.618,-150.5 820.618,-178.5 952.78,-178.5 952.78,-150.5 820.618,-150.5"/>
<text text-anchor="start" x="828.618" y="-166.5" font-family="Helvetica,sans-Serif" font-size="10.00">ocra::OneLevelSolverWith</text>
<text text-anchor="middle" x="886.699" y="-156.5" font-family="Helvetica,sans-Serif" font-size="10.00">QPOASES</text>
</a>
</g>
</g>
<!-- Node44&#45;&gt;Node46 -->
<g id="edge41" class="edge"><title>Node44&#45;&gt;Node46</title>
<path fill="none" stroke="midnightblue" d="M769.579,-145.971C786.091,-148.606 803.811,-151.433 820.312,-154.066"/>
<polygon fill="midnightblue" stroke="midnightblue" points="769.902,-142.478 759.475,-144.359 768.799,-149.391 769.902,-142.478"/>
</g>
<!-- Node47 -->
<g id="node43" class="node"><title>Node47</title>
<g id="a_node43"><a xlink:href="../../d9/d45/classocra_1_1OneLevelSolverWithQuadProg.html" target="_top" xlink:title="Solver class that only consider one level of importance for all tasks using Quadprog++. ">
<polygon fill="white" stroke="black" points="820.618,-103.5 820.618,-131.5 952.78,-131.5 952.78,-103.5 820.618,-103.5"/>
<text text-anchor="start" x="828.618" y="-119.5" font-family="Helvetica,sans-Serif" font-size="10.00">ocra::OneLevelSolverWith</text>
<text text-anchor="middle" x="886.699" y="-109.5" font-family="Helvetica,sans-Serif" font-size="10.00">QuadProg</text>
</a>
</g>
</g>
<!-- Node44&#45;&gt;Node47 -->
<g id="edge42" class="edge"><title>Node44&#45;&gt;Node47</title>
<path fill="none" stroke="midnightblue" d="M769.579,-129.001C786.091,-127.366 803.811,-125.61 820.312,-123.976"/>
<polygon fill="midnightblue" stroke="midnightblue" points="769.082,-125.533 759.475,-130.002 769.772,-132.499 769.082,-125.533"/>
</g>
<!-- Node49 -->
<g id="node45" class="node"><title>Node49</title>
<g id="a_node45"><a xlink:href="../../d4/d02/classocra_1_1CmlQuadraticSolver.html" target="_top" xlink:title="CmlQuadraticSolver class. ">
<polygon fill="white" stroke="black" points="821.458,-66.5 821.458,-84.5 951.94,-84.5 951.94,-66.5 821.458,-66.5"/>
<text text-anchor="middle" x="886.699" y="-72.5" font-family="Helvetica,sans-Serif" font-size="10.00">ocra::CmlQuadraticSolver</text>
</a>
</g>
</g>
<!-- Node48&#45;&gt;Node49 -->
<g id="edge44" class="edge"><title>Node48&#45;&gt;Node49</title>
<path fill="none" stroke="midnightblue" d="M769.746,-80.6041C786.536,-79.8651 804.565,-79.0715 821.285,-78.3355"/>
<polygon fill="midnightblue" stroke="midnightblue" points="769.312,-77.1198 759.475,-81.0563 769.62,-84.113 769.312,-77.1198"/>
</g>
<!-- Node50 -->
<g id="node46" class="node"><title>Node50</title>
<g id="a_node46"><a xlink:href="../../d2/dab/classocra_1_1QLDSolver.html" target="_top" xlink:title="QLDSolver class. ">
<polygon fill="white" stroke="black" points="841.741,-29.5 841.741,-47.5 931.657,-47.5 931.657,-29.5 841.741,-29.5"/>
<text text-anchor="middle" x="886.699" y="-35.5" font-family="Helvetica,sans-Serif" font-size="10.00">ocra::QLDSolver</text>
</a>
</g>
</g>
<!-- Node48&#45;&gt;Node50 -->
<g id="edge45" class="edge"><title>Node48&#45;&gt;Node50</title>
<path fill="none" stroke="midnightblue" d="M745.67,-71.7651C763.56,-66.8541 784.724,-61.2062 803.936,-56.5 816.5,-53.4221 830.211,-50.3088 842.752,-47.5566"/>
<polygon fill="midnightblue" stroke="midnightblue" points="744.537,-68.447 735.829,-74.4826 746.4,-75.1945 744.537,-68.447"/>
</g>
<!-- Node52 -->
<g id="node48" class="node"><title>Node52</title>
<g id="a_node48"><a xlink:href="../../d5/d40/classocra_1_1BaseVariable.html" target="_top" xlink:title="Implements a basic variable. ">
<polygon fill="white" stroke="black" points="653.083,-37.5 653.083,-55.5 752.838,-55.5 752.838,-37.5 653.083,-37.5"/>
<text text-anchor="middle" x="702.96" y="-43.5" font-family="Helvetica,sans-Serif" font-size="10.00">ocra::BaseVariable</text>
</a>
</g>
</g>
<!-- Node51&#45;&gt;Node52 -->
<g id="edge47" class="edge"><title>Node51&#45;&gt;Node52</title>
<path fill="none" stroke="midnightblue" d="M595.454,-46.5C613.713,-46.5 634.538,-46.5 652.902,-46.5"/>
<polygon fill="midnightblue" stroke="midnightblue" points="595.324,-43.0001 585.324,-46.5 595.324,-50.0001 595.324,-43.0001"/>
</g>
<!-- Node53 -->
<g id="node49" class="node"><title>Node53</title>
<g id="a_node49"><a xlink:href="../../d2/d7c/classocra_1_1CompositeVariable.html" target="_top" xlink:title="A concatenation of base variables and other composite variables. ">
<polygon fill="white" stroke="black" points="640.581,-0.5 640.581,-18.5 765.34,-18.5 765.34,-0.5 640.581,-0.5"/>
<text text-anchor="middle" x="702.96" y="-6.5" font-family="Helvetica,sans-Serif" font-size="10.00">ocra::CompositeVariable</text>
</a>
</g>
</g>
<!-- Node51&#45;&gt;Node53 -->
<g id="edge48" class="edge"><title>Node51&#45;&gt;Node53</title>
<path fill="none" stroke="midnightblue" d="M595.229,-35.0753C617.446,-29.7516 643.504,-23.5076 664.31,-18.5218"/>
<polygon fill="midnightblue" stroke="midnightblue" points="594.233,-31.7148 585.324,-37.4488 595.864,-38.5221 594.233,-31.7148"/>
</g>
</g>
</svg>
