<?xml version="1.0" encoding="UTF-8" standalone="no"?>
<!DOCTYPE svg PUBLIC "-//W3C//DTD SVG 1.1//EN"
 "http://www.w3.org/Graphics/SVG/1.1/DTD/svg11.dtd">
<!-- Generated by graphviz version 2.38.0 (20140413.2041)
 -->
<!-- Title: WocraController.h Pages: 1 -->
<svg width="348pt" height="192pt"
 viewBox="0.00 0.00 347.62 192.00" xmlns="http://www.w3.org/2000/svg" xmlns:xlink="http://www.w3.org/1999/xlink">
<g id="graph0" class="graph" transform="scale(1 1) rotate(0) translate(4 188)">
<title>WocraController.h</title>
<polygon fill="white" stroke="none" points="-4,4 -4,-188 343.624,-188 343.624,4 -4,4"/>
<!-- Node104 -->
<g id="node1" class="node"><title>Node104</title>
<polygon fill="#bfbfbf" stroke="black" points="86.2808,-165.5 86.2808,-183.5 182.139,-183.5 182.139,-165.5 86.2808,-165.5"/>
<text text-anchor="middle" x="134.21" y="-171.5" font-family="Helvetica,sans-Serif" font-size="10.00">WocraController.h</text>
</g>
<!-- Node105 -->
<g id="node2" class="node"><title>Node105</title>
<g id="a_node2"><a xlink:href="../../d2/def/WocraController_8cpp.html" target="_top" xlink:title="Implement the LQP&#45;based controller developped during my PhD thesis with ocra framework. ">
<polygon fill="white" stroke="black" points="0,-110.5 0,-128.5 106.42,-128.5 106.42,-110.5 0,-110.5"/>
<text text-anchor="middle" x="53.21" y="-116.5" font-family="Helvetica,sans-Serif" font-size="10.00">WocraController.cpp</text>
</a>
</g>
</g>
<!-- Node104&#45;&gt;Node105 -->
<g id="edge1" class="edge"><title>Node104&#45;&gt;Node105</title>
<path fill="none" stroke="midnightblue" d="M113.229,-159.772C98.1325,-149.894 78.2797,-136.904 65.6279,-128.625"/>
<polygon fill="midnightblue" stroke="midnightblue" points="111.624,-162.904 121.908,-165.45 115.456,-157.046 111.624,-162.904"/>
</g>
<!-- Node106 -->
<g id="node3" class="node"><title>Node106</title>
<g id="a_node3"><a xlink:href="../../da/d7c/ControllerServer_8h.html" target="_top" xlink:title="ControllerServer.h">
<polygon fill="white" stroke="black" points="85.9121,-55.5 85.9121,-73.5 182.508,-73.5 182.508,-55.5 85.9121,-55.5"/>
<text text-anchor="middle" x="134.21" y="-61.5" font-family="Helvetica,sans-Serif" font-size="10.00">ControllerServer.h</text>
</a>
</g>
</g>
<!-- Node104&#45;&gt;Node106 -->
<g id="edge2" class="edge"><title>Node104&#45;&gt;Node106</title>
<path fill="none" stroke="midnightblue" d="M134.21,-155.243C134.21,-131.493 134.21,-90.9967 134.21,-73.7118"/>
<polygon fill="midnightblue" stroke="midnightblue" points="130.71,-155.382 134.21,-165.382 137.71,-155.382 130.71,-155.382"/>
</g>
<!-- Node108 -->
<g id="node5" class="node"><title>Node108</title>
<g id="a_node5"><a xlink:href="../../d2/d6c/ServerCommunications_8h.html" target="_top" xlink:title="ServerCommunications.h">
<polygon fill="white" stroke="black" points="162.077,-110.5 162.077,-128.5 290.343,-128.5 290.343,-110.5 162.077,-110.5"/>
<text text-anchor="middle" x="226.21" y="-116.5" font-family="Helvetica,sans-Serif" font-size="10.00">ServerCommunications.h</text>
</a>
</g>
</g>
<!-- Node104&#45;&gt;Node108 -->
<g id="edge4" class="edge"><title>Node104&#45;&gt;Node108</title>
<path fill="none" stroke="midnightblue" d="M157.075,-160.328C174.333,-150.386 197.465,-137.06 212.106,-128.625"/>
<polygon fill="midnightblue" stroke="midnightblue" points="155.101,-157.426 148.183,-165.45 158.595,-163.491 155.101,-157.426"/>
</g>
<!-- Node107 -->
<g id="node4" class="node"><title>Node107</title>
<g id="a_node4"><a xlink:href="../../d5/dd2/ControllerServer_8cpp.html" target="_top" xlink:title="ControllerServer.cpp">
<polygon fill="white" stroke="black" points="80.6313,-0.5 80.6313,-18.5 187.789,-18.5 187.789,-0.5 80.6313,-0.5"/>
<text text-anchor="middle" x="134.21" y="-6.5" font-family="Helvetica,sans-Serif" font-size="10.00">ControllerServer.cpp</text>
</a>
</g>
</g>
<!-- Node106&#45;&gt;Node107 -->
<g id="edge3" class="edge"><title>Node106&#45;&gt;Node107</title>
<path fill="none" stroke="midnightblue" d="M134.21,-45.1746C134.21,-36.0945 134.21,-25.5949 134.21,-18.5496"/>
<polygon fill="midnightblue" stroke="midnightblue" points="130.71,-45.2187 134.21,-55.2188 137.71,-45.2188 130.71,-45.2187"/>
</g>
<!-- Node108&#45;&gt;Node106 -->
<g id="edge5" class="edge"><title>Node108&#45;&gt;Node106</title>
<path fill="none" stroke="midnightblue" d="M203.345,-105.328C186.087,-95.3856 162.955,-82.0598 148.314,-73.6253"/>
<polygon fill="midnightblue" stroke="midnightblue" points="201.825,-108.491 212.237,-110.45 205.319,-102.426 201.825,-108.491"/>
</g>
<!-- Node109 -->
<g id="node6" class="node"><title>Node109</title>
<g id="a_node6"><a xlink:href="../../dc/dac/ServerCommunications_8cpp.html" target="_top" xlink:title="ServerCommunications.cpp">
<polygon fill="white" stroke="black" points="200.796,-55.5 200.796,-73.5 339.624,-73.5 339.624,-55.5 200.796,-55.5"/>
<text text-anchor="middle" x="270.21" y="-61.5" font-family="Helvetica,sans-Serif" font-size="10.00">ServerCommunications.cpp</text>
</a>
</g>
</g>
<!-- Node108&#45;&gt;Node109 -->
<g id="edge6" class="edge"><title>Node108&#45;&gt;Node109</title>
<path fill="none" stroke="midnightblue" d="M239.707,-102.243C247.604,-92.7302 257.228,-81.1369 263.527,-73.5496"/>
<polygon fill="midnightblue" stroke="midnightblue" points="236.78,-100.289 233.085,-110.219 242.165,-104.76 236.78,-100.289"/>
</g>
</g>
</svg>
