<?xml version="1.0" encoding="UTF-8" standalone="no"?>
<!DOCTYPE svg PUBLIC "-//W3C//DTD SVG 1.1//EN"
 "http://www.w3.org/Graphics/SVG/1.1/DTD/svg11.dtd">
<!-- Generated by graphviz version 2.38.0 (20140413.2041)
 -->
<!-- Title: CascadeQPSolver.h Pages: 1 -->
<svg width="302pt" height="192pt"
 viewBox="0.00 0.00 301.89 192.00" xmlns="http://www.w3.org/2000/svg" xmlns:xlink="http://www.w3.org/1999/xlink">
<g id="graph0" class="graph" transform="scale(1 1) rotate(0) translate(4 188)">
<title>CascadeQPSolver.h</title>
<polygon fill="white" stroke="none" points="-4,4 -4,-188 297.886,-188 297.886,4 -4,4"/>
<!-- Node87 -->
<g id="node1" class="node"><title>Node87</title>
<polygon fill="#bfbfbf" stroke="black" points="66.2808,-165.5 66.2808,-183.5 172.334,-183.5 172.334,-165.5 66.2808,-165.5"/>
<text text-anchor="middle" x="119.308" y="-171.5" font-family="Helvetica,sans-Serif" font-size="10.00">CascadeQPSolver.h</text>
</g>
<!-- Node88 -->
<g id="node2" class="node"><title>Node88</title>
<g id="a_node2"><a xlink:href="../../d9/dd8/CascadeQPSolver_8cpp.html" target="_top" xlink:title="CascadeQPSolver.cpp">
<polygon fill="white" stroke="black" points="0,-110.5 0,-128.5 116.615,-128.5 116.615,-110.5 0,-110.5"/>
<text text-anchor="middle" x="58.3076" y="-116.5" font-family="Helvetica,sans-Serif" font-size="10.00">CascadeQPSolver.cpp</text>
</a>
</g>
</g>
<!-- Node87&#45;&gt;Node88 -->
<g id="edge1" class="edge"><title>Node87&#45;&gt;Node88</title>
<path fill="none" stroke="midnightblue" d="M102.206,-158.641C91.0175,-148.92 76.8277,-136.591 67.6594,-128.625"/>
<polygon fill="midnightblue" stroke="midnightblue" points="100.199,-161.534 110.043,-165.45 104.79,-156.25 100.199,-161.534"/>
</g>
<!-- Node89 -->
<g id="node3" class="node"><title>Node89</title>
<g id="a_node3"><a xlink:href="../../d7/d34/HocraController_8h.html" target="_top" xlink:title="HocraController.h">
<polygon fill="white" stroke="black" points="134.399,-110.5 134.399,-128.5 228.216,-128.5 228.216,-110.5 134.399,-110.5"/>
<text text-anchor="middle" x="181.308" y="-116.5" font-family="Helvetica,sans-Serif" font-size="10.00">HocraController.h</text>
</a>
</g>
</g>
<!-- Node87&#45;&gt;Node89 -->
<g id="edge2" class="edge"><title>Node87&#45;&gt;Node89</title>
<path fill="none" stroke="midnightblue" d="M136.357,-158.926C147.778,-149.162 162.393,-136.669 171.803,-128.625"/>
<polygon fill="midnightblue" stroke="midnightblue" points="134.051,-156.292 128.724,-165.45 138.6,-161.613 134.051,-156.292"/>
</g>
<!-- Node90 -->
<g id="node4" class="node"><title>Node90</title>
<g id="a_node4"><a xlink:href="../../d9/d62/HocraController_8cpp.html" target="_top" xlink:title="HocraController.cpp">
<polygon fill="white" stroke="black" points="70.1182,-55.5 70.1182,-73.5 174.497,-73.5 174.497,-55.5 70.1182,-55.5"/>
<text text-anchor="middle" x="122.308" y="-61.5" font-family="Helvetica,sans-Serif" font-size="10.00">HocraController.cpp</text>
</a>
</g>
</g>
<!-- Node89&#45;&gt;Node90 -->
<g id="edge3" class="edge"><title>Node89&#45;&gt;Node90</title>
<path fill="none" stroke="midnightblue" d="M164.766,-103.641C153.945,-93.9201 140.221,-81.5913 131.353,-73.6253"/>
<polygon fill="midnightblue" stroke="midnightblue" points="162.569,-106.371 172.347,-110.45 167.247,-101.164 162.569,-106.371"/>
</g>
<!-- Node91 -->
<g id="node5" class="node"><title>Node91</title>
<g id="a_node5"><a xlink:href="../../da/d7c/ControllerServer_8h.html" target="_top" xlink:title="ControllerServer.h">
<polygon fill="white" stroke="black" points="192.01,-55.5 192.01,-73.5 288.605,-73.5 288.605,-55.5 192.01,-55.5"/>
<text text-anchor="middle" x="240.308" y="-61.5" font-family="Helvetica,sans-Serif" font-size="10.00">ControllerServer.h</text>
</a>
</g>
</g>
<!-- Node89&#45;&gt;Node91 -->
<g id="edge4" class="edge"><title>Node89&#45;&gt;Node91</title>
<path fill="none" stroke="midnightblue" d="M197.849,-103.641C208.67,-93.9201 222.395,-81.5913 231.262,-73.6253"/>
<polygon fill="midnightblue" stroke="midnightblue" points="195.369,-101.164 190.268,-110.45 200.047,-106.371 195.369,-101.164"/>
</g>
<!-- Node92 -->
<g id="node6" class="node"><title>Node92</title>
<g id="a_node6"><a xlink:href="../../d5/dd2/ControllerServer_8cpp.html" target="_top" xlink:title="ControllerServer.cpp">
<polygon fill="white" stroke="black" points="186.729,-0.5 186.729,-18.5 293.886,-18.5 293.886,-0.5 186.729,-0.5"/>
<text text-anchor="middle" x="240.308" y="-6.5" font-family="Helvetica,sans-Serif" font-size="10.00">ControllerServer.cpp</text>
</a>
</g>
</g>
<!-- Node91&#45;&gt;Node92 -->
<g id="edge5" class="edge"><title>Node91&#45;&gt;Node92</title>
<path fill="none" stroke="midnightblue" d="M240.308,-45.1746C240.308,-36.0945 240.308,-25.5949 240.308,-18.5496"/>
<polygon fill="midnightblue" stroke="midnightblue" points="236.808,-45.2187 240.308,-55.2188 243.808,-45.2188 236.808,-45.2187"/>
</g>
</g>
</svg>
