<?xml version="1.0" encoding="UTF-8" standalone="no"?>
<!DOCTYPE svg PUBLIC "-//W3C//DTD SVG 1.1//EN"
 "http://www.w3.org/Graphics/SVG/1.1/DTD/svg11.dtd">
<!-- Generated by graphviz version 2.38.0 (20140413.2041)
 -->
<!-- Title: ocra::Constraint&lt; T &gt; Pages: 1 -->
<svg width="165pt" height="157pt"
 viewBox="0.00 0.00 164.63 157.00" xmlns="http://www.w3.org/2000/svg" xmlns:xlink="http://www.w3.org/1999/xlink">
<g id="graph0" class="graph" transform="scale(1 1) rotate(0) translate(4 153)">
<title>ocra::Constraint&lt; T &gt;</title>
<polygon fill="white" stroke="none" points="-4,4 -4,-153 160.635,-153 160.635,4 -4,4"/>
<!-- Node0 -->
<g id="node1" class="node"><title>Node0</title>
<polygon fill="#bfbfbf" stroke="black" points="23.5278,-65.5 23.5278,-83.5 133.107,-83.5 133.107,-65.5 23.5278,-65.5"/>
<text text-anchor="middle" x="78.3174" y="-71.5" font-family="Helvetica,sans-Serif" font-size="10.00">ocra::Constraint&lt; T &gt;</text>
</g>
<!-- Node2 -->
<g id="node3" class="node"><title>Node2</title>
<g id="a_node3"><a xlink:href="../../d2/da4/classocra_1_1TorqueLimitConstraint.html" target="_top" xlink:title="ocra::TorqueLimitConstraint\l\&lt; LinearFunction \&gt;">
<polygon fill="white" stroke="black" points="9.17969,-0.5 9.17969,-28.5 147.455,-28.5 147.455,-0.5 9.17969,-0.5"/>
<text text-anchor="start" x="17.1797" y="-16.5" font-family="Helvetica,sans-Serif" font-size="10.00">ocra::TorqueLimitConstraint</text>
<text text-anchor="middle" x="78.3174" y="-6.5" font-family="Helvetica,sans-Serif" font-size="10.00">&lt; LinearFunction &gt;</text>
</a>
</g>
</g>
<!-- Node0&#45;&gt;Node2 -->
<g id="edge2" class="edge"><title>Node0&#45;&gt;Node2</title>
<path fill="none" stroke="midnightblue" d="M78.3174,-55.3209C78.3174,-46.747 78.3174,-36.6999 78.3174,-28.8428"/>
<polygon fill="midnightblue" stroke="midnightblue" points="74.8175,-55.4353 78.3174,-65.4353 81.8175,-55.4354 74.8175,-55.4353"/>
</g>
<!-- Node1 -->
<g id="node2" class="node"><title>Node1</title>
<g id="a_node2"><a xlink:href="../../d1/d29/structocra_1_1FunctionInterfaceMapping.html" target="_top" xlink:title="ocra::FunctionInterfaceMapping\l\&lt; Constraint\&lt; T \&gt; \&gt;">
<polygon fill="white" stroke="black" points="0,-120.5 0,-148.5 156.635,-148.5 156.635,-120.5 0,-120.5"/>
<text text-anchor="start" x="8" y="-136.5" font-family="Helvetica,sans-Serif" font-size="10.00">ocra::FunctionInterfaceMapping</text>
<text text-anchor="middle" x="78.3174" y="-126.5" font-family="Helvetica,sans-Serif" font-size="10.00">&lt; Constraint&lt; T &gt; &gt;</text>
</a>
</g>
</g>
<!-- Node1&#45;&gt;Node0 -->
<g id="edge1" class="edge"><title>Node1&#45;&gt;Node0</title>
<path fill="none" stroke="midnightblue" d="M78.3174,-110.323C78.3174,-100.936 78.3174,-90.7002 78.3174,-83.7715"/>
<polygon fill="midnightblue" stroke="midnightblue" points="74.8175,-110.339 78.3174,-120.339 81.8175,-110.339 74.8175,-110.339"/>
</g>
</g>
</svg>
