<?xml version="1.0" encoding="UTF-8" standalone="no"?>
<!DOCTYPE svg PUBLIC "-//W3C//DTD SVG 1.1//EN"
 "http://www.w3.org/Graphics/SVG/1.1/DTD/svg11.dtd">
<!-- Generated by graphviz version 2.38.0 (20140413.2041)
 -->
<!-- Title: ocra::CmlQuadraticSolver Pages: 1 -->
<svg width="966pt" height="272pt"
 viewBox="0.00 0.00 966.15 272.00" xmlns="http://www.w3.org/2000/svg" xmlns:xlink="http://www.w3.org/1999/xlink">
<g id="graph0" class="graph" transform="scale(1 1) rotate(0) translate(4 268)">
<title>ocra::CmlQuadraticSolver</title>
<polygon fill="white" stroke="none" points="-4,4 -4,-268 962.146,-268 962.146,4 -4,4"/>
<!-- Node13 -->
<g id="node1" class="node"><title>Node13</title>
<polygon fill="#bfbfbf" stroke="black" points="827.663,-65.5 827.663,-83.5 958.146,-83.5 958.146,-65.5 827.663,-65.5"/>
<text text-anchor="middle" x="892.904" y="-71.5" font-family="Helvetica,sans-Serif" font-size="10.00">ocra::CmlQuadraticSolver</text>
</g>
<!-- Node14 -->
<g id="node2" class="node"><title>Node14</title>
<g id="a_node2"><a xlink:href="../../d7/dab/classocra_1_1QuadraticSolver.html" target="_top" xlink:title="QuadraticSolver class. ">
<polygon fill="white" stroke="black" points="677.954,-65.5 677.954,-83.5 790.663,-83.5 790.663,-65.5 677.954,-65.5"/>
<text text-anchor="middle" x="734.309" y="-71.5" font-family="Helvetica,sans-Serif" font-size="10.00">ocra::QuadraticSolver</text>
</a>
</g>
</g>
<!-- Node14&#45;&gt;Node13 -->
<g id="edge1" class="edge"><title>Node14&#45;&gt;Node13</title>
<path fill="none" stroke="midnightblue" d="M801.126,-74.5C809.893,-74.5 818.875,-74.5 827.616,-74.5"/>
<polygon fill="midnightblue" stroke="midnightblue" points="800.959,-71.0001 790.959,-74.5 800.959,-78.0001 800.959,-71.0001"/>
</g>
<!-- Node15 -->
<g id="node3" class="node"><title>Node15</title>
<g id="a_node3"><a xlink:href="../../d6/dd3/classocra_1_1Solver.html" target="_top" xlink:title="Solver class. ">
<polygon fill="white" stroke="black" points="571.6,-65.5 571.6,-83.5 640.954,-83.5 640.954,-65.5 571.6,-65.5"/>
<text text-anchor="middle" x="606.277" y="-71.5" font-family="Helvetica,sans-Serif" font-size="10.00">ocra::Solver</text>
</a>
</g>
</g>
<!-- Node15&#45;&gt;Node14 -->
<g id="edge2" class="edge"><title>Node15&#45;&gt;Node14</title>
<path fill="none" stroke="midnightblue" d="M651.14,-74.5C659.66,-74.5 668.696,-74.5 677.539,-74.5"/>
<polygon fill="midnightblue" stroke="midnightblue" points="651.051,-71.0001 641.051,-74.5 651.051,-78.0001 651.051,-71.0001"/>
</g>
<!-- Node16 -->
<g id="node4" class="node"><title>Node16</title>
<g id="a_node4"><a xlink:href="../../d3/d16/classocra_1_1ObserverSubject.html" target="_top" xlink:title="ocra::ObserverSubject">
<polygon fill="white" stroke="black" points="382.598,-102.5 382.598,-120.5 498.085,-120.5 498.085,-102.5 382.598,-102.5"/>
<text text-anchor="middle" x="440.341" y="-108.5" font-family="Helvetica,sans-Serif" font-size="10.00">ocra::ObserverSubject</text>
</a>
</g>
</g>
<!-- Node16&#45;&gt;Node15 -->
<g id="edge3" class="edge"><title>Node16&#45;&gt;Node15</title>
<path fill="none" stroke="midnightblue" d="M498.87,-100.432C516.484,-96.8504 535.883,-92.7104 553.6,-88.5 559.93,-86.9956 566.662,-85.2671 573.103,-83.5497"/>
<polygon fill="midnightblue" stroke="midnightblue" points="497.845,-97.0681 488.732,-102.473 499.226,-103.931 497.845,-97.0681"/>
</g>
<!-- Node17 -->
<g id="node5" class="node"><title>Node17</title>
<g id="a_node5"><a xlink:href="../../d2/d45/classocra_1_1Observer.html" target="_top" xlink:title="ocra::Observer">
<polygon fill="white" stroke="black" points="222.497,-169.5 222.497,-187.5 304.63,-187.5 304.63,-169.5 222.497,-169.5"/>
<text text-anchor="middle" x="263.563" y="-175.5" font-family="Helvetica,sans-Serif" font-size="10.00">ocra::Observer</text>
</a>
</g>
</g>
<!-- Node17&#45;&gt;Node16 -->
<g id="edge4" class="edge"><title>Node17&#45;&gt;Node16</title>
<path fill="none" stroke="midnightblue" d="M297.747,-165.779C332.168,-152.584 385.133,-132.28 415.585,-120.607"/>
<polygon fill="midnightblue" stroke="midnightblue" points="296.219,-162.616 288.135,-169.464 298.725,-169.153 296.219,-162.616"/>
</g>
<!-- Node18 -->
<g id="node6" class="node"><title>Node18</title>
<g id="a_node6"><a xlink:href="../../d4/dee/classocra_1_1ObserverBase.html" target="_top" xlink:title="ocra::ObserverBase\l\&lt; EVT_RESIZE \&gt;">
<polygon fill="white" stroke="black" points="40.2856,-235.5 40.2856,-263.5 145.211,-263.5 145.211,-235.5 40.2856,-235.5"/>
<text text-anchor="start" x="48.2856" y="-251.5" font-family="Helvetica,sans-Serif" font-size="10.00">ocra::ObserverBase</text>
<text text-anchor="middle" x="92.7485" y="-241.5" font-family="Helvetica,sans-Serif" font-size="10.00">&lt; EVT_RESIZE &gt;</text>
</a>
</g>
</g>
<!-- Node18&#45;&gt;Node17 -->
<g id="edge5" class="edge"><title>Node18&#45;&gt;Node17</title>
<path fill="none" stroke="midnightblue" d="M155.373,-236.87C165.614,-233.976 175.989,-230.535 185.497,-226.5 210.164,-216.032 236.055,-198.3 250.667,-187.567"/>
<polygon fill="midnightblue" stroke="midnightblue" points="154.382,-233.512 145.628,-239.48 156.193,-240.274 154.382,-233.512"/>
</g>
<!-- Node19 -->
<g id="node7" class="node"><title>Node19</title>
<g id="a_node7"><a xlink:href="../../d4/dee/classocra_1_1ObserverBase.html" target="_top" xlink:title="ocra::ObserverBase\l\&lt; EVT_CHANGE_DEPENDENCIES \&gt;">
<polygon fill="white" stroke="black" points="0,-188.5 0,-216.5 185.497,-216.5 185.497,-188.5 0,-188.5"/>
<text text-anchor="start" x="8" y="-204.5" font-family="Helvetica,sans-Serif" font-size="10.00">ocra::ObserverBase</text>
<text text-anchor="middle" x="92.7485" y="-194.5" font-family="Helvetica,sans-Serif" font-size="10.00">&lt; EVT_CHANGE_DEPENDENCIES &gt;</text>
</a>
</g>
</g>
<!-- Node19&#45;&gt;Node17 -->
<g id="edge6" class="edge"><title>Node19&#45;&gt;Node17</title>
<path fill="none" stroke="midnightblue" d="M195.725,-188.002C205,-186.684 213.979,-185.407 222.187,-184.24"/>
<polygon fill="midnightblue" stroke="midnightblue" points="194.974,-184.574 185.566,-189.447 195.959,-191.504 194.974,-184.574"/>
</g>
<!-- Node20 -->
<g id="node8" class="node"><title>Node20</title>
<g id="a_node8"><a xlink:href="../../d4/dee/classocra_1_1ObserverBase.html" target="_top" xlink:title="ocra::ObserverBase\l\&lt; EVT_CHANGE_VALUE \&gt;">
<polygon fill="white" stroke="black" points="23.4253,-141.5 23.4253,-169.5 162.072,-169.5 162.072,-141.5 23.4253,-141.5"/>
<text text-anchor="start" x="31.4253" y="-157.5" font-family="Helvetica,sans-Serif" font-size="10.00">ocra::ObserverBase</text>
<text text-anchor="middle" x="92.7485" y="-147.5" font-family="Helvetica,sans-Serif" font-size="10.00">&lt; EVT_CHANGE_VALUE &gt;</text>
</a>
</g>
</g>
<!-- Node20&#45;&gt;Node17 -->
<g id="edge7" class="edge"><title>Node20&#45;&gt;Node17</title>
<path fill="none" stroke="midnightblue" d="M172.466,-166.225C189.64,-168.565 207.13,-170.948 222.074,-172.984"/>
<polygon fill="midnightblue" stroke="midnightblue" points="172.793,-162.737 162.412,-164.855 171.848,-169.673 172.793,-162.737"/>
</g>
<!-- Node21 -->
<g id="node9" class="node"><title>Node21</title>
<g id="a_node9"><a xlink:href="../../dc/d77/classocra_1_1Subject.html" target="_top" xlink:title="ocra::Subject">
<polygon fill="white" stroke="black" points="226.381,-76.5 226.381,-94.5 300.746,-94.5 300.746,-76.5 226.381,-76.5"/>
<text text-anchor="middle" x="263.563" y="-82.5" font-family="Helvetica,sans-Serif" font-size="10.00">ocra::Subject</text>
</a>
</g>
</g>
<!-- Node21&#45;&gt;Node16 -->
<g id="edge8" class="edge"><title>Node21&#45;&gt;Node16</title>
<path fill="none" stroke="midnightblue" d="M310.856,-92.3865C332.846,-95.6577 359.331,-99.5977 382.528,-103.048"/>
<polygon fill="midnightblue" stroke="midnightblue" points="311.184,-88.8968 300.778,-90.8872 310.154,-95.8206 311.184,-88.8968"/>
</g>
<!-- Node22 -->
<g id="node10" class="node"><title>Node22</title>
<g id="a_node10"><a xlink:href="../../dc/d29/classocra_1_1SubjectBase.html" target="_top" xlink:title="ocra::SubjectBase\&lt;\l EVT_RESIZE \&gt;">
<polygon fill="white" stroke="black" points="41.25,-94.5 41.25,-122.5 144.247,-122.5 144.247,-94.5 41.25,-94.5"/>
<text text-anchor="start" x="49.25" y="-110.5" font-family="Helvetica,sans-Serif" font-size="10.00">ocra::SubjectBase&lt;</text>
<text text-anchor="middle" x="92.7485" y="-100.5" font-family="Helvetica,sans-Serif" font-size="10.00"> EVT_RESIZE &gt;</text>
</a>
</g>
</g>
<!-- Node22&#45;&gt;Node21 -->
<g id="edge9" class="edge"><title>Node22&#45;&gt;Node21</title>
<path fill="none" stroke="midnightblue" d="M154.489,-100.224C178.489,-96.9547 205.266,-93.3065 226.162,-90.4595"/>
<polygon fill="midnightblue" stroke="midnightblue" points="153.835,-96.7812 144.399,-101.599 154.78,-103.717 153.835,-96.7812"/>
</g>
<!-- Node23 -->
<g id="node11" class="node"><title>Node23</title>
<g id="a_node11"><a xlink:href="../../dc/d29/classocra_1_1SubjectBase.html" target="_top" xlink:title="ocra::SubjectBase\&lt;\l EVT_CHANGE_DEPENDENCIES \&gt;">
<polygon fill="white" stroke="black" points="2.91992,-47.5 2.91992,-75.5 182.577,-75.5 182.577,-47.5 2.91992,-47.5"/>
<text text-anchor="start" x="10.9199" y="-63.5" font-family="Helvetica,sans-Serif" font-size="10.00">ocra::SubjectBase&lt;</text>
<text text-anchor="middle" x="92.7485" y="-53.5" font-family="Helvetica,sans-Serif" font-size="10.00"> EVT_CHANGE_DEPENDENCIES &gt;</text>
</a>
</g>
</g>
<!-- Node23&#45;&gt;Node21 -->
<g id="edge10" class="edge"><title>Node23&#45;&gt;Node21</title>
<path fill="none" stroke="midnightblue" d="M192.668,-75.5631C204.562,-77.2541 216.06,-78.8887 226.178,-80.3272"/>
<polygon fill="midnightblue" stroke="midnightblue" points="192.998,-72.075 182.605,-74.1326 192.013,-79.0053 192.998,-72.075"/>
</g>
<!-- Node24 -->
<g id="node12" class="node"><title>Node24</title>
<g id="a_node12"><a xlink:href="../../dc/d29/classocra_1_1SubjectBase.html" target="_top" xlink:title="ocra::SubjectBase\&lt;\l EVT_CHANGE_VALUE \&gt;">
<polygon fill="white" stroke="black" points="26.3452,-0.5 26.3452,-28.5 159.152,-28.5 159.152,-0.5 26.3452,-0.5"/>
<text text-anchor="start" x="34.3452" y="-16.5" font-family="Helvetica,sans-Serif" font-size="10.00">ocra::SubjectBase&lt;</text>
<text text-anchor="middle" x="92.7485" y="-6.5" font-family="Helvetica,sans-Serif" font-size="10.00"> EVT_CHANGE_VALUE &gt;</text>
</a>
</g>
</g>
<!-- Node24&#45;&gt;Node21 -->
<g id="edge11" class="edge"><title>Node24&#45;&gt;Node21</title>
<path fill="none" stroke="midnightblue" d="M167.156,-31.6319C173.439,-33.7196 179.63,-36.0073 185.497,-38.5 209.873,-48.8562 235.651,-66.0219 250.357,-76.4931"/>
<polygon fill="midnightblue" stroke="midnightblue" points="167.829,-28.1749 157.24,-28.5152 165.73,-34.8528 167.829,-28.1749"/>
</g>
<!-- Node25 -->
<g id="node13" class="node"><title>Node25</title>
<g id="a_node13"><a xlink:href="../../db/de3/classocra_1_1NamedInstance.html" target="_top" xlink:title="ocra::NamedInstance">
<polygon fill="white" stroke="black" points="384.817,-65.5 384.817,-83.5 495.866,-83.5 495.866,-65.5 384.817,-65.5"/>
<text text-anchor="middle" x="440.341" y="-71.5" font-family="Helvetica,sans-Serif" font-size="10.00">ocra::NamedInstance</text>
</a>
</g>
</g>
<!-- Node25&#45;&gt;Node15 -->
<g id="edge12" class="edge"><title>Node25&#45;&gt;Node15</title>
<path fill="none" stroke="midnightblue" d="M506.052,-74.5C528.415,-74.5 552.573,-74.5 571.452,-74.5"/>
<polygon fill="midnightblue" stroke="midnightblue" points="505.93,-71.0001 495.929,-74.5 505.929,-78.0001 505.93,-71.0001"/>
</g>
<!-- Node26 -->
<g id="node14" class="node"><title>Node26</title>
<g id="a_node14"><a xlink:href="../../d5/d53/structocra_1_1OptimizationResult.html" target="_top" xlink:title="ocra::OptimizationResult">
<polygon fill="white" stroke="black" points="377.876,-28.5 377.876,-46.5 502.807,-46.5 502.807,-28.5 377.876,-28.5"/>
<text text-anchor="middle" x="440.341" y="-34.5" font-family="Helvetica,sans-Serif" font-size="10.00">ocra::OptimizationResult</text>
</a>
</g>
</g>
<!-- Node26&#45;&gt;Node15 -->
<g id="edge13" class="edge"><title>Node26&#45;&gt;Node15</title>
<path fill="none" stroke="#9a32cd" stroke-dasharray="5,2" d="M498.87,-48.568C516.484,-52.1496 535.883,-56.2896 553.6,-60.5 559.93,-62.0044 566.662,-63.7329 573.103,-65.4503"/>
<polygon fill="#9a32cd" stroke="#9a32cd" points="499.226,-45.0695 488.732,-46.5274 497.845,-51.9319 499.226,-45.0695"/>
<text text-anchor="middle" x="537.203" y="-62.5" font-family="Helvetica,sans-Serif" font-size="10.00"> _result</text>
</g>
<!-- Node27 -->
<g id="node15" class="node"><title>Node27</title>
<polygon fill="white" stroke="#bfbfbf" points="235.271,-28.5 235.271,-46.5 291.856,-46.5 291.856,-28.5 235.271,-28.5"/>
<text text-anchor="middle" x="263.563" y="-34.5" font-family="Helvetica,sans-Serif" font-size="10.00">VectorXd</text>
</g>
<!-- Node27&#45;&gt;Node26 -->
<g id="edge14" class="edge"><title>Node27&#45;&gt;Node26</title>
<path fill="none" stroke="#9a32cd" stroke-dasharray="5,2" d="M302.147,-37.5C324.2,-37.5 352.606,-37.5 377.844,-37.5"/>
<polygon fill="#9a32cd" stroke="#9a32cd" points="301.873,-34.0001 291.873,-37.5 301.872,-41.0001 301.873,-34.0001"/>
<text text-anchor="middle" x="341.253" y="-39.5" font-family="Helvetica,sans-Serif" font-size="10.00"> solution</text>
</g>
</g>
</svg>
