<?xml version="1.0" encoding="UTF-8" standalone="no"?>
<!DOCTYPE svg PUBLIC "-//W3C//DTD SVG 1.1//EN"
 "http://www.w3.org/Graphics/SVG/1.1/DTD/svg11.dtd">
<!-- Generated by graphviz version 2.38.0 (20140413.2041)
 -->
<!-- Title: gocra::GHCJTController::Pimpl Pages: 1 -->
<svg width="1142pt" height="463pt"
 viewBox="0.00 0.00 1142.01 463.00" xmlns="http://www.w3.org/2000/svg" xmlns:xlink="http://www.w3.org/1999/xlink">
<g id="graph0" class="graph" transform="scale(1 1) rotate(0) translate(4 459)">
<title>gocra::GHCJTController::Pimpl</title>
<polygon fill="white" stroke="none" points="-4,4 -4,-459 1138.01,-459 1138.01,4 -4,4"/>
<!-- Node1 -->
<g id="node1" class="node"><title>Node1</title>
<polygon fill="#bfbfbf" stroke="black" points="1010.76,-65.5 1010.76,-93.5 1134.01,-93.5 1134.01,-65.5 1010.76,-65.5"/>
<text text-anchor="start" x="1018.76" y="-81.5" font-family="Helvetica,sans-Serif" font-size="10.00">gocra::GHCJTController</text>
<text text-anchor="middle" x="1072.39" y="-71.5" font-family="Helvetica,sans-Serif" font-size="10.00">::Pimpl</text>
</g>
<!-- Node2 -->
<g id="node2" class="node"><title>Node2</title>
<g id="a_node2"><a xlink:href="../../d2/d5e/classocra_1_1OneLevelSolver.html" target="_top" xlink:title="A generic abstract class the solvers that can be used in the wOcra Controller. ">
<polygon fill="white" stroke="black" points="740.05,-156.5 740.05,-174.5 852.212,-174.5 852.212,-156.5 740.05,-156.5"/>
<text text-anchor="middle" x="796.131" y="-162.5" font-family="Helvetica,sans-Serif" font-size="10.00">ocra::OneLevelSolver</text>
</a>
</g>
</g>
<!-- Node2&#45;&gt;Node1 -->
<g id="edge1" class="edge"><title>Node2&#45;&gt;Node1</title>
<path fill="none" stroke="#9a32cd" stroke-dasharray="5,2" d="M853.722,-154.379C893.258,-145.874 946.952,-132.84 992.761,-116.5 1010.52,-110.164 1029.68,-101.194 1044.64,-93.6732"/>
<polygon fill="#9a32cd" stroke="#9a32cd" points="852.791,-150.999 843.734,-156.497 854.243,-157.847 852.791,-150.999"/>
<text text-anchor="middle" x="940.517" y="-148.5" font-family="Helvetica,sans-Serif" font-size="10.00"> innerSolver</text>
</g>
<!-- Node3 -->
<g id="node3" class="node"><title>Node3</title>
<g id="a_node3"><a xlink:href="../../d6/dd3/classocra_1_1Solver.html" target="_top" xlink:title="Solver class. ">
<polygon fill="white" stroke="black" points="582.723,-266.5 582.723,-284.5 652.077,-284.5 652.077,-266.5 582.723,-266.5"/>
<text text-anchor="middle" x="617.4" y="-272.5" font-family="Helvetica,sans-Serif" font-size="10.00">ocra::Solver</text>
</a>
</g>
</g>
<!-- Node3&#45;&gt;Node2 -->
<g id="edge2" class="edge"><title>Node3&#45;&gt;Node2</title>
<path fill="none" stroke="midnightblue" d="M641.463,-261.145C678.388,-238.162 749.74,-193.752 780.468,-174.626"/>
<polygon fill="midnightblue" stroke="midnightblue" points="639.503,-258.243 632.863,-266.498 643.202,-264.185 639.503,-258.243"/>
</g>
<!-- Node4 -->
<g id="node4" class="node"><title>Node4</title>
<g id="a_node4"><a xlink:href="../../d3/d16/classocra_1_1ObserverSubject.html" target="_top" xlink:title="ocra::ObserverSubject">
<polygon fill="white" stroke="black" points="382.598,-316.5 382.598,-334.5 498.085,-334.5 498.085,-316.5 382.598,-316.5"/>
<text text-anchor="middle" x="440.341" y="-322.5" font-family="Helvetica,sans-Serif" font-size="10.00">ocra::ObserverSubject</text>
</a>
</g>
</g>
<!-- Node4&#45;&gt;Node3 -->
<g id="edge3" class="edge"><title>Node4&#45;&gt;Node3</title>
<path fill="none" stroke="midnightblue" d="M494.353,-314.213C516.308,-309.124 541.922,-302.651 564.723,-295.5 574.82,-292.333 585.781,-288.195 595,-284.506"/>
<polygon fill="midnightblue" stroke="midnightblue" points="493.516,-310.813 484.545,-316.45 495.074,-317.638 493.516,-310.813"/>
</g>
<!-- Node5 -->
<g id="node5" class="node"><title>Node5</title>
<g id="a_node5"><a xlink:href="../../d2/d45/classocra_1_1Observer.html" target="_top" xlink:title="ocra::Observer">
<polygon fill="white" stroke="black" points="222.497,-350.5 222.497,-368.5 304.63,-368.5 304.63,-350.5 222.497,-350.5"/>
<text text-anchor="middle" x="263.563" y="-356.5" font-family="Helvetica,sans-Serif" font-size="10.00">ocra::Observer</text>
</a>
</g>
</g>
<!-- Node5&#45;&gt;Node4 -->
<g id="edge4" class="edge"><title>Node5&#45;&gt;Node4</title>
<path fill="none" stroke="midnightblue" d="M314.55,-349.776C339.214,-344.978 368.778,-339.227 392.939,-334.527"/>
<polygon fill="midnightblue" stroke="midnightblue" points="313.809,-346.355 304.661,-351.7 315.145,-353.226 313.809,-346.355"/>
</g>
<!-- Node6 -->
<g id="node6" class="node"><title>Node6</title>
<g id="a_node6"><a xlink:href="../../d4/dee/classocra_1_1ObserverBase.html" target="_top" xlink:title="ocra::ObserverBase\l\&lt; EVT_RESIZE \&gt;">
<polygon fill="white" stroke="black" points="40.2856,-426.5 40.2856,-454.5 145.211,-454.5 145.211,-426.5 40.2856,-426.5"/>
<text text-anchor="start" x="48.2856" y="-442.5" font-family="Helvetica,sans-Serif" font-size="10.00">ocra::ObserverBase</text>
<text text-anchor="middle" x="92.7485" y="-432.5" font-family="Helvetica,sans-Serif" font-size="10.00">&lt; EVT_RESIZE &gt;</text>
</a>
</g>
</g>
<!-- Node6&#45;&gt;Node5 -->
<g id="edge5" class="edge"><title>Node6&#45;&gt;Node5</title>
<path fill="none" stroke="midnightblue" d="M155.324,-428.686C165.649,-425.689 176.064,-422.003 185.497,-417.5 212.396,-404.659 239.147,-381.634 252.951,-368.796"/>
<polygon fill="midnightblue" stroke="midnightblue" points="154.223,-425.358 145.487,-431.352 156.054,-432.114 154.223,-425.358"/>
</g>
<!-- Node7 -->
<g id="node7" class="node"><title>Node7</title>
<g id="a_node7"><a xlink:href="../../d4/dee/classocra_1_1ObserverBase.html" target="_top" xlink:title="ocra::ObserverBase\l\&lt; EVT_CHANGE_DEPENDENCIES \&gt;">
<polygon fill="white" stroke="black" points="0,-379.5 0,-407.5 185.497,-407.5 185.497,-379.5 0,-379.5"/>
<text text-anchor="start" x="8" y="-395.5" font-family="Helvetica,sans-Serif" font-size="10.00">ocra::ObserverBase</text>
<text text-anchor="middle" x="92.7485" y="-385.5" font-family="Helvetica,sans-Serif" font-size="10.00">&lt; EVT_CHANGE_DEPENDENCIES &gt;</text>
</a>
</g>
</g>
<!-- Node7&#45;&gt;Node5 -->
<g id="edge6" class="edge"><title>Node7&#45;&gt;Node5</title>
<path fill="none" stroke="midnightblue" d="M173.293,-377.48C190.203,-374.074 207.375,-370.615 222.081,-367.653"/>
<polygon fill="midnightblue" stroke="midnightblue" points="172.499,-374.069 163.387,-379.475 173.881,-380.931 172.499,-374.069"/>
</g>
<!-- Node8 -->
<g id="node8" class="node"><title>Node8</title>
<g id="a_node8"><a xlink:href="../../d4/dee/classocra_1_1ObserverBase.html" target="_top" xlink:title="ocra::ObserverBase\l\&lt; EVT_CHANGE_VALUE \&gt;">
<polygon fill="white" stroke="black" points="23.4253,-332.5 23.4253,-360.5 162.072,-360.5 162.072,-332.5 23.4253,-332.5"/>
<text text-anchor="start" x="31.4253" y="-348.5" font-family="Helvetica,sans-Serif" font-size="10.00">ocra::ObserverBase</text>
<text text-anchor="middle" x="92.7485" y="-338.5" font-family="Helvetica,sans-Serif" font-size="10.00">&lt; EVT_CHANGE_VALUE &gt;</text>
</a>
</g>
</g>
<!-- Node8&#45;&gt;Node5 -->
<g id="edge7" class="edge"><title>Node8&#45;&gt;Node5</title>
<path fill="none" stroke="midnightblue" d="M172.466,-352.562C189.64,-353.884 207.13,-355.231 222.074,-356.382"/>
<polygon fill="midnightblue" stroke="midnightblue" points="172.651,-349.066 162.412,-351.788 172.114,-356.045 172.651,-349.066"/>
</g>
<!-- Node9 -->
<g id="node9" class="node"><title>Node9</title>
<g id="a_node9"><a xlink:href="../../dc/d77/classocra_1_1Subject.html" target="_top" xlink:title="ocra::Subject">
<polygon fill="white" stroke="black" points="226.381,-257.5 226.381,-275.5 300.746,-275.5 300.746,-257.5 226.381,-257.5"/>
<text text-anchor="middle" x="263.563" y="-263.5" font-family="Helvetica,sans-Serif" font-size="10.00">ocra::Subject</text>
</a>
</g>
</g>
<!-- Node9&#45;&gt;Node4 -->
<g id="edge8" class="edge"><title>Node9&#45;&gt;Node4</title>
<path fill="none" stroke="midnightblue" d="M297.712,-279.111C320.204,-287.515 350.682,-298.608 377.876,-307.5 387.282,-310.576 397.577,-313.688 407.006,-316.441"/>
<polygon fill="midnightblue" stroke="midnightblue" points="298.881,-275.811 288.289,-275.572 296.42,-282.364 298.881,-275.811"/>
</g>
<!-- Node10 -->
<g id="node10" class="node"><title>Node10</title>
<g id="a_node10"><a xlink:href="../../dc/d29/classocra_1_1SubjectBase.html" target="_top" xlink:title="ocra::SubjectBase\&lt;\l EVT_RESIZE \&gt;">
<polygon fill="white" stroke="black" points="41.25,-285.5 41.25,-313.5 144.247,-313.5 144.247,-285.5 41.25,-285.5"/>
<text text-anchor="start" x="49.25" y="-301.5" font-family="Helvetica,sans-Serif" font-size="10.00">ocra::SubjectBase&lt;</text>
<text text-anchor="middle" x="92.7485" y="-291.5" font-family="Helvetica,sans-Serif" font-size="10.00"> EVT_RESIZE &gt;</text>
</a>
</g>
</g>
<!-- Node10&#45;&gt;Node9 -->
<g id="edge9" class="edge"><title>Node10&#45;&gt;Node9</title>
<path fill="none" stroke="midnightblue" d="M154.489,-287.626C178.489,-282.935 205.266,-277.701 226.162,-273.616"/>
<polygon fill="midnightblue" stroke="midnightblue" points="153.541,-284.245 144.399,-289.599 154.884,-291.115 153.541,-284.245"/>
</g>
<!-- Node11 -->
<g id="node11" class="node"><title>Node11</title>
<g id="a_node11"><a xlink:href="../../dc/d29/classocra_1_1SubjectBase.html" target="_top" xlink:title="ocra::SubjectBase\&lt;\l EVT_CHANGE_DEPENDENCIES \&gt;">
<polygon fill="white" stroke="black" points="2.91992,-238.5 2.91992,-266.5 182.577,-266.5 182.577,-238.5 2.91992,-238.5"/>
<text text-anchor="start" x="10.9199" y="-254.5" font-family="Helvetica,sans-Serif" font-size="10.00">ocra::SubjectBase&lt;</text>
<text text-anchor="middle" x="92.7485" y="-244.5" font-family="Helvetica,sans-Serif" font-size="10.00"> EVT_CHANGE_DEPENDENCIES &gt;</text>
</a>
</g>
</g>
<!-- Node11&#45;&gt;Node9 -->
<g id="edge10" class="edge"><title>Node11&#45;&gt;Node9</title>
<path fill="none" stroke="midnightblue" d="M192.668,-260.704C204.562,-261.69 216.06,-262.643 226.178,-263.483"/>
<polygon fill="midnightblue" stroke="midnightblue" points="192.86,-257.208 182.605,-259.869 192.282,-264.184 192.86,-257.208"/>
</g>
<!-- Node12 -->
<g id="node12" class="node"><title>Node12</title>
<g id="a_node12"><a xlink:href="../../dc/d29/classocra_1_1SubjectBase.html" target="_top" xlink:title="ocra::SubjectBase\&lt;\l EVT_CHANGE_VALUE \&gt;">
<polygon fill="white" stroke="black" points="26.3452,-191.5 26.3452,-219.5 159.152,-219.5 159.152,-191.5 26.3452,-191.5"/>
<text text-anchor="start" x="34.3452" y="-207.5" font-family="Helvetica,sans-Serif" font-size="10.00">ocra::SubjectBase&lt;</text>
<text text-anchor="middle" x="92.7485" y="-197.5" font-family="Helvetica,sans-Serif" font-size="10.00"> EVT_CHANGE_VALUE &gt;</text>
</a>
</g>
</g>
<!-- Node12&#45;&gt;Node9 -->
<g id="edge11" class="edge"><title>Node12&#45;&gt;Node9</title>
<path fill="none" stroke="midnightblue" d="M167.258,-222.442C173.479,-224.324 179.63,-226.346 185.497,-228.5 207.483,-236.572 231.487,-249.035 246.766,-257.468"/>
<polygon fill="midnightblue" stroke="midnightblue" points="168.036,-219.024 157.457,-219.602 166.088,-225.747 168.036,-219.024"/>
</g>
<!-- Node13 -->
<g id="node13" class="node"><title>Node13</title>
<g id="a_node13"><a xlink:href="../../db/de3/classocra_1_1NamedInstance.html" target="_top" xlink:title="ocra::NamedInstance">
<polygon fill="white" stroke="black" points="384.817,-279.5 384.817,-297.5 495.866,-297.5 495.866,-279.5 384.817,-279.5"/>
<text text-anchor="middle" x="440.341" y="-285.5" font-family="Helvetica,sans-Serif" font-size="10.00">ocra::NamedInstance</text>
</a>
</g>
</g>
<!-- Node13&#45;&gt;Node3 -->
<g id="edge12" class="edge"><title>Node13&#45;&gt;Node3</title>
<path fill="none" stroke="midnightblue" d="M506.387,-283.67C532.271,-281.747 560.97,-279.616 582.564,-278.013"/>
<polygon fill="midnightblue" stroke="midnightblue" points="505.964,-280.191 496.251,-284.422 506.482,-287.172 505.964,-280.191"/>
</g>
<!-- Node14 -->
<g id="node14" class="node"><title>Node14</title>
<g id="a_node14"><a xlink:href="../../d5/d53/structocra_1_1OptimizationResult.html" target="_top" xlink:title="ocra::OptimizationResult">
<polygon fill="white" stroke="black" points="377.876,-231.5 377.876,-249.5 502.807,-249.5 502.807,-231.5 377.876,-231.5"/>
<text text-anchor="middle" x="440.341" y="-237.5" font-family="Helvetica,sans-Serif" font-size="10.00">ocra::OptimizationResult</text>
</a>
</g>
</g>
<!-- Node14&#45;&gt;Node3 -->
<g id="edge13" class="edge"><title>Node14&#45;&gt;Node3</title>
<path fill="none" stroke="#9a32cd" stroke-dasharray="5,2" d="M496.551,-251.538C524.751,-257.176 558.159,-263.856 582.53,-268.728"/>
<polygon fill="#9a32cd" stroke="#9a32cd" points="496.915,-248.042 486.423,-249.513 495.543,-254.906 496.915,-248.042"/>
<text text-anchor="middle" x="542.765" y="-267.5" font-family="Helvetica,sans-Serif" font-size="10.00"> _result</text>
</g>
<!-- Node15 -->
<g id="node15" class="node"><title>Node15</title>
<polygon fill="white" stroke="#bfbfbf" points="235.271,-209.5 235.271,-227.5 291.856,-227.5 291.856,-209.5 235.271,-209.5"/>
<text text-anchor="middle" x="263.563" y="-215.5" font-family="Helvetica,sans-Serif" font-size="10.00">VectorXd</text>
</g>
<!-- Node15&#45;&gt;Node2 -->
<g id="edge15" class="edge"><title>Node15&#45;&gt;Node2</title>
<path fill="none" stroke="#9a32cd" stroke-dasharray="5,2" d="M302.128,-215.226C378.086,-208.537 555.356,-192.57 703.988,-176.5 715.556,-175.249 727.937,-173.818 739.728,-172.41"/>
<polygon fill="#9a32cd" stroke="#9a32cd" points="301.751,-211.746 292.095,-216.108 302.363,-218.719 301.751,-211.746"/>
<text text-anchor="middle" x="542.765" y="-237.5" font-family="Helvetica,sans-Serif" font-size="10.00"> Xsolution</text>
<text text-anchor="middle" x="542.765" y="-227.5" font-family="Helvetica,sans-Serif" font-size="10.00">_b</text>
<text text-anchor="middle" x="542.765" y="-217.5" font-family="Helvetica,sans-Serif" font-size="10.00">_d</text>
<text text-anchor="middle" x="542.765" y="-207.5" font-family="Helvetica,sans-Serif" font-size="10.00">_btotal</text>
<text text-anchor="middle" x="542.765" y="-197.5" font-family="Helvetica,sans-Serif" font-size="10.00">_h</text>
</g>
<!-- Node15&#45;&gt;Node14 -->
<g id="edge14" class="edge"><title>Node15&#45;&gt;Node14</title>
<path fill="none" stroke="#9a32cd" stroke-dasharray="5,2" d="M301.846,-223.193C323.941,-225.974 352.491,-229.568 377.844,-232.759"/>
<polygon fill="#9a32cd" stroke="#9a32cd" points="302.231,-219.714 291.873,-221.938 301.357,-226.659 302.231,-219.714"/>
<text text-anchor="middle" x="341.253" y="-232.5" font-family="Helvetica,sans-Serif" font-size="10.00"> solution</text>
</g>
<!-- Node16 -->
<g id="node16" class="node"><title>Node16</title>
<polygon fill="white" stroke="#bfbfbf" points="589.673,-110.5 589.673,-128.5 645.126,-128.5 645.126,-110.5 589.673,-110.5"/>
<text text-anchor="middle" x="617.4" y="-116.5" font-family="Helvetica,sans-Serif" font-size="10.00">MatrixXd</text>
</g>
<!-- Node16&#45;&gt;Node1 -->
<g id="edge18" class="edge"><title>Node16&#45;&gt;Node1</title>
<path fill="none" stroke="#9a32cd" stroke-dasharray="5,2" d="M655.292,-116.831C722.473,-111.884 869.243,-100.68 992.761,-88.5 998.503,-87.9337 1004.48,-87.311 1010.45,-86.6656"/>
<polygon fill="#9a32cd" stroke="#9a32cd" points="654.926,-113.348 645.208,-117.57 655.438,-120.329 654.926,-113.348"/>
<text text-anchor="middle" x="796.131" y="-114.5" font-family="Helvetica,sans-Serif" font-size="10.00"> augmentedJacobian</text>
</g>
<!-- Node16&#45;&gt;Node2 -->
<g id="edge16" class="edge"><title>Node16&#45;&gt;Node2</title>
<path fill="none" stroke="#9a32cd" stroke-dasharray="5,2" d="M655.229,-125.879C670.415,-128.752 688.135,-132.417 703.988,-136.5 726.34,-142.256 751.289,-150.311 769.426,-156.472"/>
<polygon fill="#9a32cd" stroke="#9a32cd" points="655.644,-122.397 645.175,-124.022 654.373,-129.281 655.644,-122.397"/>
<text text-anchor="middle" x="687.033" y="-168.5" font-family="Helvetica,sans-Serif" font-size="10.00"> _Atotal</text>
<text text-anchor="middle" x="687.033" y="-158.5" font-family="Helvetica,sans-Serif" font-size="10.00">_A</text>
<text text-anchor="middle" x="687.033" y="-148.5" font-family="Helvetica,sans-Serif" font-size="10.00">_C</text>
<text text-anchor="middle" x="687.033" y="-138.5" font-family="Helvetica,sans-Serif" font-size="10.00">_G</text>
</g>
<!-- Node17 -->
<g id="node17" class="node"><title>Node17</title>
<g id="a_node17"><a xlink:href="../../de/d36/classgocra_1_1PerformanceRecorder.html" target="_top" xlink:title="To get and save time information to collect some data on performances. ">
<polygon fill="white" stroke="black" points="723.658,-47.5 723.658,-65.5 868.604,-65.5 868.604,-47.5 723.658,-47.5"/>
<text text-anchor="middle" x="796.131" y="-53.5" font-family="Helvetica,sans-Serif" font-size="10.00">gocra::PerformanceRecorder</text>
</a>
</g>
</g>
<!-- Node17&#45;&gt;Node1 -->
<g id="edge17" class="edge"><title>Node17&#45;&gt;Node1</title>
<path fill="none" stroke="#9a32cd" stroke-dasharray="5,2" d="M878.979,-60.0995C914.065,-62.0101 955.474,-64.7539 992.761,-68.5 998.521,-69.0787 1004.51,-69.7636 1010.49,-70.5043"/>
<polygon fill="#9a32cd" stroke="#9a32cd" points="878.956,-56.5934 868.784,-59.5579 878.584,-63.5836 878.956,-56.5934"/>
<text text-anchor="middle" x="940.517" y="-80.5" font-family="Helvetica,sans-Serif" font-size="10.00"> solveProblemRecorder</text>
<text text-anchor="middle" x="940.517" y="-70.5" font-family="Helvetica,sans-Serif" font-size="10.00">updateTasksRecorder</text>
</g>
<!-- Node18 -->
<g id="node18" class="node"><title>Node18</title>
<g id="a_node18"><a xlink:href="../../d5/d01/classocra_1_1EqualZeroConstraintPtr.html" target="_top" xlink:title="ocra::EqualZeroConstraint\lPtr\&lt; SumOfLinearFunctions \&gt;">
<polygon fill="white" stroke="black" points="721.988,-0.5 721.988,-28.5 870.273,-28.5 870.273,-0.5 721.988,-0.5"/>
<text text-anchor="start" x="729.988" y="-16.5" font-family="Helvetica,sans-Serif" font-size="10.00">ocra::EqualZeroConstraint</text>
<text text-anchor="middle" x="796.131" y="-6.5" font-family="Helvetica,sans-Serif" font-size="10.00">Ptr&lt; SumOfLinearFunctions &gt;</text>
</a>
</g>
</g>
<!-- Node18&#45;&gt;Node1 -->
<g id="edge19" class="edge"><title>Node18&#45;&gt;Node1</title>
<path fill="none" stroke="#9a32cd" stroke-dasharray="5,2" d="M880.631,-24.466C915.657,-29.7039 956.574,-37.219 992.761,-47.5 1009.21,-52.1721 1026.89,-59.1804 1041.32,-65.4485"/>
<polygon fill="#9a32cd" stroke="#9a32cd" points="880.842,-20.9597 870.441,-22.9809 879.832,-27.8866 880.842,-20.9597"/>
<text text-anchor="middle" x="940.517" y="-49.5" font-family="Helvetica,sans-Serif" font-size="10.00"> seConstraint</text>
</g>
</g>
</svg>
