<?xml version="1.0" encoding="UTF-8" standalone="no"?>
<!DOCTYPE svg PUBLIC "-//W3C//DTD SVG 1.1//EN"
 "http://www.w3.org/Graphics/SVG/1.1/DTD/svg11.dtd">
<!-- Generated by graphviz version 2.38.0 (20140413.2041)
 -->
<!-- Title: Model.h Pages: 1 -->
<svg width="1435pt" height="267pt"
 viewBox="0.00 0.00 1434.51 267.00" xmlns="http://www.w3.org/2000/svg" xmlns:xlink="http://www.w3.org/1999/xlink">
<g id="graph0" class="graph" transform="scale(1 1) rotate(0) translate(4 263)">
<title>Model.h</title>
<polygon fill="white" stroke="none" points="-4,4 -4,-263 1430.51,-263 1430.51,4 -4,4"/>
<!-- Node0 -->
<g id="node1" class="node"><title>Node0</title>
<polygon fill="#bfbfbf" stroke="black" points="874.921,-240.5 874.921,-258.5 926.497,-258.5 926.497,-240.5 874.921,-240.5"/>
<text text-anchor="middle" x="900.709" y="-246.5" font-family="Helvetica,sans-Serif" font-size="10.00">Model.h</text>
</g>
<!-- Node1 -->
<g id="node2" class="node"><title>Node1</title>
<g id="a_node2"><a xlink:href="../../d5/d55/MathTypes_8h.html" target="_top" xlink:title="Declaration file of the OptimizationVariable class. ">
<polygon fill="white" stroke="black" points="190.185,-185.5 190.185,-203.5 301.233,-203.5 301.233,-185.5 190.185,-185.5"/>
<text text-anchor="middle" x="245.709" y="-191.5" font-family="Helvetica,sans-Serif" font-size="10.00">ocra/util/MathTypes.h</text>
</a>
</g>
</g>
<!-- Node0&#45;&gt;Node1 -->
<g id="edge1" class="edge"><title>Node0&#45;&gt;Node1</title>
<path fill="none" stroke="midnightblue" d="M874.628,-246.39C780.037,-238.736 453.163,-212.286 311.756,-200.844"/>
<polygon fill="midnightblue" stroke="midnightblue" points="311.745,-197.332 301.495,-200.014 311.18,-204.309 311.745,-197.332"/>
</g>
<!-- Node4 -->
<g id="node5" class="node"><title>Node4</title>
<g id="a_node5"><a xlink:href="../../d8/ddc/ObserverSubject_8h.html" target="_top" xlink:title="Declaration file of the Observer, Subject and ObserverSubject classes. ">
<polygon fill="white" stroke="black" points="788.569,-130.5 788.569,-148.5 936.849,-148.5 936.849,-130.5 788.569,-130.5"/>
<text text-anchor="middle" x="862.709" y="-136.5" font-family="Helvetica,sans-Serif" font-size="10.00">ocra/optim/ObserverSubject.h</text>
</a>
</g>
</g>
<!-- Node0&#45;&gt;Node4 -->
<g id="edge4" class="edge"><title>Node0&#45;&gt;Node4</title>
<path fill="none" stroke="midnightblue" d="M893.134,-240.37C885.789,-231.961 875.004,-218.104 869.709,-204 864.222,-189.384 862.653,-171.642 862.352,-158.631"/>
<polygon fill="midnightblue" stroke="midnightblue" points="865.852,-158.611 862.347,-148.613 858.852,-158.615 865.852,-158.611"/>
</g>
<!-- Node15 -->
<g id="node16" class="node"><title>Node15</title>
<g id="a_node16"><a xlink:href="../../d7/d90/Variable_8h.html" target="_top" xlink:title="Declaration file of the Variable class. ">
<polygon fill="white" stroke="black" points="455.832,-185.5 455.832,-203.5 565.586,-203.5 565.586,-185.5 455.832,-185.5"/>
<text text-anchor="middle" x="510.709" y="-191.5" font-family="Helvetica,sans-Serif" font-size="10.00">ocra/optim/Variable.h</text>
</a>
</g>
</g>
<!-- Node0&#45;&gt;Node15 -->
<g id="edge18" class="edge"><title>Node0&#45;&gt;Node15</title>
<path fill="none" stroke="midnightblue" d="M874.818,-244.981C814.514,-236.786 663.191,-216.222 575.781,-204.343"/>
<polygon fill="midnightblue" stroke="midnightblue" points="576.088,-200.853 565.708,-202.974 575.146,-207.789 576.088,-200.853"/>
</g>
<!-- Node25 -->
<g id="node26" class="node"><title>Node25</title>
<polygon fill="white" stroke="#bfbfbf" points="630.482,-130.5 630.482,-148.5 670.936,-148.5 670.936,-130.5 630.482,-130.5"/>
<text text-anchor="middle" x="650.709" y="-136.5" font-family="Helvetica,sans-Serif" font-size="10.00">string</text>
</g>
<!-- Node0&#45;&gt;Node25 -->
<g id="edge45" class="edge"><title>Node0&#45;&gt;Node25</title>
<path fill="none" stroke="midnightblue" d="M874.72,-246.829C820.869,-242.849 699.623,-231.051 669.709,-204 657.183,-192.672 652.774,-173.462 651.293,-159.131"/>
<polygon fill="midnightblue" stroke="midnightblue" points="654.771,-158.68 650.633,-148.927 647.786,-159.132 654.771,-158.68"/>
</g>
<!-- Node26 -->
<g id="node27" class="node"><title>Node26</title>
<g id="a_node27"><a xlink:href="../../df/d97/NamedInstance_8h.html" target="_top" xlink:title="ocra/optim/NamedInstance.h">
<polygon fill="white" stroke="black" points="678.788,-185.5 678.788,-203.5 822.63,-203.5 822.63,-185.5 678.788,-185.5"/>
<text text-anchor="middle" x="750.709" y="-191.5" font-family="Helvetica,sans-Serif" font-size="10.00">ocra/optim/NamedInstance.h</text>
</a>
</g>
</g>
<!-- Node0&#45;&gt;Node26 -->
<g id="edge36" class="edge"><title>Node0&#45;&gt;Node26</title>
<path fill="none" stroke="midnightblue" d="M877.927,-240.45C852.707,-231.539 811.849,-217.103 783.26,-207.001"/>
<polygon fill="midnightblue" stroke="midnightblue" points="784.3,-203.657 773.705,-203.625 781.968,-210.257 784.3,-203.657"/>
</g>
<!-- Node27 -->
<g id="node28" class="node"><title>Node27</title>
<g id="a_node28"><a xlink:href="../../d9/d5d/ModelContacts_8h.html" target="_top" xlink:title="Declaration file of the ModelContacts class. ">
<polygon fill="white" stroke="black" points="878.677,-185.5 878.677,-203.5 1024.74,-203.5 1024.74,-185.5 878.677,-185.5"/>
<text text-anchor="middle" x="951.709" y="-191.5" font-family="Helvetica,sans-Serif" font-size="10.00">ocra/control/ModelContacts.h</text>
</a>
</g>
</g>
<!-- Node0&#45;&gt;Node27 -->
<g id="edge38" class="edge"><title>Node0&#45;&gt;Node27</title>
<path fill="none" stroke="midnightblue" d="M908.678,-240.219C916.207,-232.394 927.688,-220.463 936.898,-210.892"/>
<polygon fill="midnightblue" stroke="midnightblue" points="939.551,-213.182 943.963,-203.55 934.507,-208.328 939.551,-213.182"/>
</g>
<!-- Node30 -->
<g id="node31" class="node"><title>Node30</title>
<g id="a_node31"><a xlink:href="../../df/d0a/Macros_8h.html" target="_top" xlink:title="ocra/util/Macros.h">
<polygon fill="white" stroke="black" points="1042.25,-185.5 1042.25,-203.5 1137.17,-203.5 1137.17,-185.5 1042.25,-185.5"/>
<text text-anchor="middle" x="1089.71" y="-191.5" font-family="Helvetica,sans-Serif" font-size="10.00">ocra/util/Macros.h</text>
</a>
</g>
</g>
<!-- Node0&#45;&gt;Node30 -->
<g id="edge42" class="edge"><title>Node0&#45;&gt;Node30</title>
<path fill="none" stroke="midnightblue" d="M926.592,-241.242C958.751,-232.224 1013.91,-216.755 1051.08,-206.333"/>
<polygon fill="midnightblue" stroke="midnightblue" points="1052.37,-209.606 1061.05,-203.536 1050.48,-202.866 1052.37,-209.606"/>
</g>
<!-- Node32 -->
<g id="node33" class="node"><title>Node32</title>
<polygon fill="white" stroke="#bfbfbf" points="1155.31,-185.5 1155.31,-203.5 1224.11,-203.5 1224.11,-185.5 1155.31,-185.5"/>
<text text-anchor="middle" x="1189.71" y="-191.5" font-family="Helvetica,sans-Serif" font-size="10.00">Eigen/Lgsm</text>
</g>
<!-- Node0&#45;&gt;Node32 -->
<g id="edge44" class="edge"><title>Node0&#45;&gt;Node32</title>
<path fill="none" stroke="midnightblue" d="M926.833,-243.854C969.982,-236.158 1059.1,-220.175 1145.19,-204.079"/>
<polygon fill="midnightblue" stroke="midnightblue" points="1145.94,-207.499 1155.13,-202.218 1144.66,-200.619 1145.94,-207.499"/>
</g>
<!-- Node33 -->
<g id="node34" class="node"><title>Node33</title>
<polygon fill="white" stroke="#bfbfbf" points="1242.54,-185.5 1242.54,-203.5 1296.88,-203.5 1296.88,-185.5 1242.54,-185.5"/>
<text text-anchor="middle" x="1269.71" y="-191.5" font-family="Helvetica,sans-Serif" font-size="10.00">iostream</text>
</g>
<!-- Node0&#45;&gt;Node33 -->
<g id="edge46" class="edge"><title>Node0&#45;&gt;Node33</title>
<path fill="none" stroke="midnightblue" d="M926.666,-245.849C981.234,-240.098 1112,-225.395 1232.18,-203.924"/>
<polygon fill="midnightblue" stroke="midnightblue" points="1233.07,-207.319 1242.29,-202.097 1231.83,-200.431 1233.07,-207.319"/>
</g>
<!-- Node34 -->
<g id="node35" class="node"><title>Node34</title>
<polygon fill="white" stroke="#bfbfbf" points="1314.9,-185.5 1314.9,-203.5 1426.51,-203.5 1426.51,-185.5 1314.9,-185.5"/>
<text text-anchor="middle" x="1370.71" y="-191.5" font-family="Helvetica,sans-Serif" font-size="10.00">yarp/os/Semaphore.h</text>
</g>
<!-- Node0&#45;&gt;Node34 -->
<g id="edge47" class="edge"><title>Node0&#45;&gt;Node34</title>
<path fill="none" stroke="midnightblue" d="M926.79,-245.822C989.725,-239.321 1155.14,-221.996 1304.43,-204.131"/>
<polygon fill="midnightblue" stroke="midnightblue" points="1305.19,-207.566 1314.7,-202.899 1304.35,-200.616 1305.19,-207.566"/>
</g>
<!-- Node2 -->
<g id="node3" class="node"><title>Node2</title>
<polygon fill="white" stroke="#bfbfbf" points="133.079,-130.5 133.079,-148.5 206.339,-148.5 206.339,-130.5 133.079,-130.5"/>
<text text-anchor="middle" x="169.709" y="-136.5" font-family="Helvetica,sans-Serif" font-size="10.00">Eigen/Dense</text>
</g>
<!-- Node1&#45;&gt;Node2 -->
<g id="edge2" class="edge"><title>Node1&#45;&gt;Node2</title>
<path fill="none" stroke="midnightblue" d="M234.166,-185.45C222.448,-177.279 204.067,-164.46 189.927,-154.6"/>
<polygon fill="midnightblue" stroke="midnightblue" points="191.565,-151.475 181.36,-148.625 187.561,-157.216 191.565,-151.475"/>
</g>
<!-- Node3 -->
<g id="node4" class="node"><title>Node3</title>
<polygon fill="white" stroke="#bfbfbf" points="224.093,-130.5 224.093,-148.5 267.325,-148.5 267.325,-130.5 224.093,-130.5"/>
<text text-anchor="middle" x="245.709" y="-136.5" font-family="Helvetica,sans-Serif" font-size="10.00">cmath</text>
</g>
<!-- Node1&#45;&gt;Node3 -->
<g id="edge3" class="edge"><title>Node1&#45;&gt;Node3</title>
<path fill="none" stroke="midnightblue" d="M245.709,-185.219C245.709,-178.177 245.709,-167.808 245.709,-158.828"/>
<polygon fill="midnightblue" stroke="midnightblue" points="249.209,-158.55 245.709,-148.55 242.209,-158.55 249.209,-158.55"/>
</g>
<!-- Node5 -->
<g id="node6" class="node"><title>Node5</title>
<g id="a_node6"><a xlink:href="../../df/d67/ObserverSubjectBase_8h.html" target="_top" xlink:title="Declaration file of the Observer and Subject base classes. ">
<polygon fill="white" stroke="black" points="939.739,-65.5 939.739,-93.5 1079.68,-93.5 1079.68,-65.5 939.739,-65.5"/>
<text text-anchor="start" x="947.739" y="-81.5" font-family="Helvetica,sans-Serif" font-size="10.00">ocra/optim/ObserverSubject</text>
<text text-anchor="middle" x="1009.71" y="-71.5" font-family="Helvetica,sans-Serif" font-size="10.00">Base.h</text>
</a>
</g>
</g>
<!-- Node4&#45;&gt;Node5 -->
<g id="edge5" class="edge"><title>Node4&#45;&gt;Node5</title>
<path fill="none" stroke="midnightblue" d="M883.149,-130.435C904.814,-121.887 939.648,-108.143 967.292,-97.236"/>
<polygon fill="midnightblue" stroke="midnightblue" points="968.719,-100.436 976.736,-93.5096 966.15,-93.9241 968.719,-100.436"/>
</g>
<!-- Node9 -->
<g id="node10" class="node"><title>Node9</title>
<polygon fill="white" stroke="#bfbfbf" points="1186.02,-0.5 1186.02,-28.5 1285.4,-28.5 1285.4,-0.5 1186.02,-0.5"/>
<text text-anchor="start" x="1194.02" y="-16.5" font-family="Helvetica,sans-Serif" font-size="10.00">boost/type_traits/is</text>
<text text-anchor="middle" x="1235.71" y="-6.5" font-family="Helvetica,sans-Serif" font-size="10.00">_class.hpp</text>
</g>
<!-- Node4&#45;&gt;Node9 -->
<g id="edge17" class="edge"><title>Node4&#45;&gt;Node9</title>
<path fill="none" stroke="midnightblue" d="M918.49,-130.487C975.239,-121.808 1058.95,-107.403 1088.71,-94 1108.08,-85.2761 1108.48,-75.9061 1126.71,-65 1147.5,-52.5659 1171.95,-41.1942 1192.42,-32.4944"/>
<polygon fill="midnightblue" stroke="midnightblue" points="1193.94,-35.6533 1201.81,-28.5685 1191.24,-29.1944 1193.94,-35.6533"/>
</g>
<!-- Node10 -->
<g id="node11" class="node"><title>Node10</title>
<polygon fill="white" stroke="#bfbfbf" points="640.022,-0.5 640.022,-28.5 739.396,-28.5 739.396,-0.5 640.022,-0.5"/>
<text text-anchor="start" x="648.022" y="-16.5" font-family="Helvetica,sans-Serif" font-size="10.00">boost/type_traits/is</text>
<text text-anchor="middle" x="689.709" y="-6.5" font-family="Helvetica,sans-Serif" font-size="10.00">_base_of.hpp</text>
</g>
<!-- Node4&#45;&gt;Node10 -->
<g id="edge15" class="edge"><title>Node4&#45;&gt;Node10</title>
<path fill="none" stroke="midnightblue" d="M864.498,-130.102C867.158,-115.154 870.306,-83.7488 854.709,-65 847.641,-56.5034 793.721,-41.3149 749.413,-29.9955"/>
<polygon fill="midnightblue" stroke="midnightblue" points="750.103,-26.5597 739.55,-27.4982 748.385,-33.3456 750.103,-26.5597"/>
</g>
<!-- Node11 -->
<g id="node12" class="node"><title>Node11</title>
<polygon fill="white" stroke="#bfbfbf" points="757.291,-5.5 757.291,-23.5 876.127,-23.5 876.127,-5.5 757.291,-5.5"/>
<text text-anchor="middle" x="816.709" y="-11.5" font-family="Helvetica,sans-Serif" font-size="10.00">boost/static_assert.hpp</text>
</g>
<!-- Node4&#45;&gt;Node11 -->
<g id="edge14" class="edge"><title>Node4&#45;&gt;Node11</title>
<path fill="none" stroke="midnightblue" d="M869.545,-130.452C880.454,-116.573 899.432,-87.4644 887.709,-65 879.073,-48.4522 862.101,-36.3087 846.917,-28.1914"/>
<polygon fill="midnightblue" stroke="midnightblue" points="848.296,-24.9688 837.783,-23.6542 845.182,-31.2378 848.296,-24.9688"/>
</g>
<!-- Node13 -->
<g id="node14" class="node"><title>Node13</title>
<g id="a_node14"><a xlink:href="../../db/ddf/ocra__events_8h.html" target="_top" xlink:title="ocra/optim/ocra_events.h">
<polygon fill="white" stroke="black" points="1135.57,-70.5 1135.57,-88.5 1263.85,-88.5 1263.85,-70.5 1135.57,-70.5"/>
<text text-anchor="middle" x="1199.71" y="-76.5" font-family="Helvetica,sans-Serif" font-size="10.00">ocra/optim/ocra_events.h</text>
</a>
</g>
</g>
<!-- Node4&#45;&gt;Node13 -->
<g id="edge13" class="edge"><title>Node4&#45;&gt;Node13</title>
<path fill="none" stroke="midnightblue" d="M909.501,-130.478C961.374,-121.581 1047.52,-106.793 1121.71,-94 1128.79,-92.7797 1136.22,-91.4952 1143.58,-90.2235"/>
<polygon fill="midnightblue" stroke="midnightblue" points="1144.26,-93.6577 1153.52,-88.5045 1143.07,-86.7601 1144.26,-93.6577"/>
</g>
<!-- Node14 -->
<g id="node15" class="node"><title>Node14</title>
<polygon fill="white" stroke="#bfbfbf" points="746.022,-65.5 746.022,-93.5 845.396,-93.5 845.396,-65.5 746.022,-65.5"/>
<text text-anchor="start" x="754.022" y="-81.5" font-family="Helvetica,sans-Serif" font-size="10.00">boost/type_traits/is</text>
<text text-anchor="middle" x="795.709" y="-71.5" font-family="Helvetica,sans-Serif" font-size="10.00">_convertible.hpp</text>
</g>
<!-- Node4&#45;&gt;Node14 -->
<g id="edge16" class="edge"><title>Node4&#45;&gt;Node14</title>
<path fill="none" stroke="midnightblue" d="M853.393,-130.435C844.453,-122.697 830.594,-110.699 818.7,-100.403"/>
<polygon fill="midnightblue" stroke="midnightblue" points="820.717,-97.5191 810.865,-93.6203 816.135,-102.812 820.717,-97.5191"/>
</g>
<!-- Node6 -->
<g id="node7" class="node"><title>Node6</title>
<polygon fill="white" stroke="#bfbfbf" points="894.305,-5.5 894.305,-23.5 953.113,-23.5 953.113,-5.5 894.305,-5.5"/>
<text text-anchor="middle" x="923.709" y="-11.5" font-family="Helvetica,sans-Serif" font-size="10.00">functional</text>
</g>
<!-- Node5&#45;&gt;Node6 -->
<g id="edge6" class="edge"><title>Node5&#45;&gt;Node6</title>
<path fill="none" stroke="midnightblue" d="M991.89,-65.4464C977.63,-55 957.665,-40.3747 943.024,-29.6496"/>
<polygon fill="midnightblue" stroke="midnightblue" points="944.831,-26.6341 934.695,-23.548 940.694,-32.2811 944.831,-26.6341"/>
</g>
<!-- Node7 -->
<g id="node8" class="node"><title>Node7</title>
<polygon fill="white" stroke="#bfbfbf" points="514.145,-5.5 514.145,-23.5 571.273,-23.5 571.273,-5.5 514.145,-5.5"/>
<text text-anchor="middle" x="542.709" y="-11.5" font-family="Helvetica,sans-Serif" font-size="10.00">algorithm</text>
</g>
<!-- Node5&#45;&gt;Node7 -->
<g id="edge7" class="edge"><title>Node5&#45;&gt;Node7</title>
<path fill="none" stroke="midnightblue" d="M939.444,-69.8C863.311,-60.262 738.29,-44.2754 630.709,-29 614.67,-26.7226 597.013,-24.047 581.752,-21.6811"/>
<polygon fill="midnightblue" stroke="midnightblue" points="582.038,-18.1836 571.618,-20.1014 580.96,-25.1 582.038,-18.1836"/>
</g>
<!-- Node8 -->
<g id="node9" class="node"><title>Node8</title>
<polygon fill="white" stroke="#bfbfbf" points="970.664,-5.5 970.664,-23.5 1048.75,-23.5 1048.75,-5.5 970.664,-5.5"/>
<text text-anchor="middle" x="1009.71" y="-11.5" font-family="Helvetica,sans-Serif" font-size="10.00">boost/any.hpp</text>
</g>
<!-- Node5&#45;&gt;Node8 -->
<g id="edge8" class="edge"><title>Node5&#45;&gt;Node8</title>
<path fill="none" stroke="midnightblue" d="M1009.71,-65.4464C1009.71,-56.3336 1009.71,-44.0406 1009.71,-33.9308"/>
<polygon fill="midnightblue" stroke="midnightblue" points="1013.21,-33.7301 1009.71,-23.7301 1006.21,-33.7301 1013.21,-33.7301"/>
</g>
<!-- Node5&#45;&gt;Node9 -->
<g id="edge9" class="edge"><title>Node5&#45;&gt;Node9</title>
<path fill="none" stroke="midnightblue" d="M1056.54,-65.4464C1092.14,-55.521 1141.28,-41.8229 1179.09,-31.2822"/>
<polygon fill="midnightblue" stroke="midnightblue" points="1180.25,-34.5937 1188.94,-28.5369 1178.37,-27.8508 1180.25,-34.5937"/>
</g>
<!-- Node5&#45;&gt;Node10 -->
<g id="edge10" class="edge"><title>Node5&#45;&gt;Node10</title>
<path fill="none" stroke="midnightblue" d="M939.501,-65.9225C889.244,-56.7483 819.733,-43.7133 749.488,-29.1176"/>
<polygon fill="midnightblue" stroke="midnightblue" points="750.078,-25.6653 739.573,-27.048 748.647,-32.5176 750.078,-25.6653"/>
</g>
<!-- Node5&#45;&gt;Node11 -->
<g id="edge11" class="edge"><title>Node5&#45;&gt;Node11</title>
<path fill="none" stroke="midnightblue" d="M969.719,-65.4464C934.698,-54.0145 884.345,-37.5781 851.097,-26.7252"/>
<polygon fill="midnightblue" stroke="midnightblue" points="851.956,-23.3239 841.364,-23.548 849.784,-29.9784 851.956,-23.3239"/>
</g>
<!-- Node12 -->
<g id="node13" class="node"><title>Node12</title>
<polygon fill="white" stroke="#bfbfbf" points="1066.9,-0.5 1066.9,-28.5 1168.51,-28.5 1168.51,-0.5 1066.9,-0.5"/>
<text text-anchor="start" x="1074.9" y="-16.5" font-family="Helvetica,sans-Serif" font-size="10.00">boost/ptr_container</text>
<text text-anchor="middle" x="1117.71" y="-6.5" font-family="Helvetica,sans-Serif" font-size="10.00">/ptr_vector.hpp</text>
</g>
<!-- Node5&#45;&gt;Node12 -->
<g id="edge12" class="edge"><title>Node5&#45;&gt;Node12</title>
<path fill="none" stroke="midnightblue" d="M1032.09,-65.4464C1047.87,-56.239 1069.22,-43.785 1086.65,-33.6167"/>
<polygon fill="midnightblue" stroke="midnightblue" points="1088.49,-36.5989 1095.36,-28.5369 1084.96,-30.5524 1088.49,-36.5989"/>
</g>
<!-- Node15&#45;&gt;Node4 -->
<g id="edge19" class="edge"><title>Node15&#45;&gt;Node4</title>
<path fill="none" stroke="midnightblue" d="M564.17,-185.45C627.283,-175.948 732.13,-160.161 799.289,-150.049"/>
<polygon fill="midnightblue" stroke="midnightblue" points="799.955,-153.488 809.322,-148.538 798.913,-146.566 799.955,-153.488"/>
</g>
<!-- Node16 -->
<g id="node17" class="node"><title>Node16</title>
<g id="a_node17"><a xlink:href="../../d1/de6/Composite_8h.html" target="_top" xlink:title="Utility classes and functions to implement the Composite design pattern. ">
<polygon fill="white" stroke="black" points="449.909,-130.5 449.909,-148.5 571.509,-148.5 571.509,-130.5 449.909,-130.5"/>
<text text-anchor="middle" x="510.709" y="-136.5" font-family="Helvetica,sans-Serif" font-size="10.00">ocra/optim/Composite.h</text>
</a>
</g>
</g>
<!-- Node15&#45;&gt;Node16 -->
<g id="edge20" class="edge"><title>Node15&#45;&gt;Node16</title>
<path fill="none" stroke="midnightblue" d="M510.709,-185.219C510.709,-178.177 510.709,-167.808 510.709,-158.828"/>
<polygon fill="midnightblue" stroke="midnightblue" points="514.209,-158.55 510.709,-148.55 507.209,-158.55 514.209,-158.55"/>
</g>
<!-- Node19 -->
<g id="node20" class="node"><title>Node19</title>
<polygon fill="white" stroke="#bfbfbf" points="0,-70.5 0,-88.5 119.418,-88.5 119.418,-70.5 0,-70.5"/>
<text text-anchor="middle" x="59.709" y="-76.5" font-family="Helvetica,sans-Serif" font-size="10.00">boost/noncopyable.hpp</text>
</g>
<!-- Node15&#45;&gt;Node19 -->
<g id="edge33" class="edge"><title>Node15&#45;&gt;Node19</title>
<path fill="none" stroke="midnightblue" d="M455.645,-185.95C414.491,-179.207 357.357,-167.489 309.709,-149 293.931,-142.878 292.467,-136.173 276.709,-130 261.064,-123.872 166.502,-103.22 107.485,-90.6091"/>
<polygon fill="midnightblue" stroke="midnightblue" points="108.131,-87.1684 97.6212,-88.5056 106.671,-94.0144 108.131,-87.1684"/>
</g>
<!-- Node21 -->
<g id="node22" class="node"><title>Node21</title>
<polygon fill="white" stroke="#bfbfbf" points="137.093,-70.5 137.093,-88.5 180.325,-88.5 180.325,-70.5 137.093,-70.5"/>
<text text-anchor="middle" x="158.709" y="-76.5" font-family="Helvetica,sans-Serif" font-size="10.00">vector</text>
</g>
<!-- Node15&#45;&gt;Node21 -->
<g id="edge35" class="edge"><title>Node15&#45;&gt;Node21</title>
<path fill="none" stroke="midnightblue" d="M476.986,-185.477C444.697,-177.45 394.81,-164.144 352.709,-149 333.049,-141.928 329.309,-137.238 309.709,-130 257.475,-110.71 241.994,-113.15 189.709,-94 188.331,-93.4953 186.926,-92.9604 185.514,-92.4061"/>
<polygon fill="midnightblue" stroke="midnightblue" points="186.845,-89.169 176.266,-88.5788 184.168,-95.637 186.845,-89.169"/>
</g>
<!-- Node24 -->
<g id="node25" class="node"><title>Node24</title>
<polygon fill="white" stroke="#bfbfbf" points="361.744,-130.5 361.744,-148.5 431.674,-148.5 431.674,-130.5 361.744,-130.5"/>
<text text-anchor="middle" x="396.709" y="-136.5" font-family="Helvetica,sans-Serif" font-size="10.00">Eigen/Eigen</text>
</g>
<!-- Node15&#45;&gt;Node24 -->
<g id="edge32" class="edge"><title>Node15&#45;&gt;Node24</title>
<path fill="none" stroke="midnightblue" d="M493.395,-185.45C474.814,-176.812 445.063,-162.98 423.466,-152.94"/>
<polygon fill="midnightblue" stroke="midnightblue" points="424.73,-149.667 414.186,-148.625 421.778,-156.015 424.73,-149.667"/>
</g>
<!-- Node15&#45;&gt;Node25 -->
<g id="edge34" class="edge"><title>Node15&#45;&gt;Node25</title>
<path fill="none" stroke="midnightblue" d="M531.972,-185.45C555.576,-176.515 593.858,-162.022 620.551,-151.917"/>
<polygon fill="midnightblue" stroke="midnightblue" points="622.047,-155.093 630.16,-148.279 619.568,-148.547 622.047,-155.093"/>
</g>
<!-- Node16&#45;&gt;Node7 -->
<g id="edge29" class="edge"><title>Node16&#45;&gt;Node7</title>
<path fill="none" stroke="midnightblue" d="M510.133,-130.142C509.429,-116.29 509.052,-87.8387 515.709,-65 519.084,-53.4215 525.464,-41.5227 531.175,-32.2937"/>
<polygon fill="midnightblue" stroke="midnightblue" points="534.204,-34.057 536.73,-23.7678 528.339,-30.2355 534.204,-34.057"/>
</g>
<!-- Node16&#45;&gt;Node10 -->
<g id="edge25" class="edge"><title>Node16&#45;&gt;Node10</title>
<path fill="none" stroke="midnightblue" d="M512.744,-130.409C516.927,-115.391 527.894,-83.0955 548.709,-65 571.465,-45.2164 602.622,-33.1936 629.861,-25.9624"/>
<polygon fill="midnightblue" stroke="midnightblue" points="630.84,-29.3254 639.696,-23.5096 629.146,-22.5334 630.84,-29.3254"/>
</g>
<!-- Node16&#45;&gt;Node11 -->
<g id="edge24" class="edge"><title>Node16&#45;&gt;Node11</title>
<path fill="none" stroke="midnightblue" d="M571.709,-130.699C609.591,-124.268 658.541,-113.016 698.709,-94 717.911,-84.9096 719.21,-77.0481 736.709,-65 755.601,-51.9924 777.841,-38.3596 794.07,-28.702"/>
<polygon fill="midnightblue" stroke="midnightblue" points="796.03,-31.6094 802.86,-23.51 792.47,-25.5822 796.03,-31.6094"/>
</g>
<!-- Node16&#45;&gt;Node14 -->
<g id="edge26" class="edge"><title>Node16&#45;&gt;Node14</title>
<path fill="none" stroke="midnightblue" d="M551.059,-130.491C595.381,-121.666 668.653,-106.999 731.709,-94 732.991,-93.7356 734.288,-93.4677 735.595,-93.197"/>
<polygon fill="midnightblue" stroke="midnightblue" points="736.679,-96.5465 745.757,-91.083 735.254,-89.6933 736.679,-96.5465"/>
</g>
<!-- Node17 -->
<g id="node18" class="node"><title>Node17</title>
<g id="a_node18"><a xlink:href="../../de/df3/ocra__assert_8h.html" target="_top" xlink:title="ocra/optim/ocra_assert.h">
<polygon fill="white" stroke="black" points="337.685,-70.5 337.685,-88.5 463.733,-88.5 463.733,-70.5 337.685,-70.5"/>
<text text-anchor="middle" x="400.709" y="-76.5" font-family="Helvetica,sans-Serif" font-size="10.00">ocra/optim/ocra_assert.h</text>
</a>
</g>
</g>
<!-- Node16&#45;&gt;Node17 -->
<g id="edge21" class="edge"><title>Node16&#45;&gt;Node17</title>
<path fill="none" stroke="midnightblue" d="M495.414,-130.435C477.21,-120.837 446.58,-104.687 425.096,-93.3586"/>
<polygon fill="midnightblue" stroke="midnightblue" points="426.707,-90.2513 416.229,-88.6831 423.442,-96.4433 426.707,-90.2513"/>
</g>
<!-- Node16&#45;&gt;Node19 -->
<g id="edge23" class="edge"><title>Node16&#45;&gt;Node19</title>
<path fill="none" stroke="midnightblue" d="M449.628,-131.06C446.613,-130.7 443.627,-130.345 440.709,-130 301.649,-113.56 266.053,-115.652 127.709,-94 121.078,-92.9622 114.109,-91.7359 107.264,-90.4525"/>
<polygon fill="midnightblue" stroke="midnightblue" points="107.86,-87.003 97.3781,-88.5467 106.535,-93.8765 107.86,-87.003"/>
</g>
<!-- Node20 -->
<g id="node21" class="node"><title>Node20</title>
<polygon fill="white" stroke="#bfbfbf" points="558.17,-65.5 558.17,-93.5 689.248,-93.5 689.248,-65.5 558.17,-65.5"/>
<text text-anchor="start" x="566.17" y="-81.5" font-family="Helvetica,sans-Serif" font-size="10.00">boost/type_traits/has</text>
<text text-anchor="middle" x="623.709" y="-71.5" font-family="Helvetica,sans-Serif" font-size="10.00">_nothrow_constructor.hpp</text>
</g>
<!-- Node16&#45;&gt;Node20 -->
<g id="edge27" class="edge"><title>Node16&#45;&gt;Node20</title>
<path fill="none" stroke="midnightblue" d="M526.421,-130.435C542.586,-122.138 568.288,-108.946 589.216,-98.2043"/>
<polygon fill="midnightblue" stroke="midnightblue" points="590.849,-101.301 598.147,-93.6203 587.652,-95.073 590.849,-101.301"/>
</g>
<!-- Node16&#45;&gt;Node21 -->
<g id="edge28" class="edge"><title>Node16&#45;&gt;Node21</title>
<path fill="none" stroke="midnightblue" d="M449.794,-130.965C363.705,-120.178 214.149,-100.875 189.709,-94 188,-93.5191 186.261,-92.9634 184.525,-92.3572"/>
<polygon fill="midnightblue" stroke="midnightblue" points="185.399,-88.9387 174.813,-88.5037 182.818,-95.4452 185.399,-88.9387"/>
</g>
<!-- Node22 -->
<g id="node23" class="node"><title>Node22</title>
<polygon fill="white" stroke="#bfbfbf" points="198.537,-70.5 198.537,-88.5 242.881,-88.5 242.881,-70.5 198.537,-70.5"/>
<text text-anchor="middle" x="220.709" y="-76.5" font-family="Helvetica,sans-Serif" font-size="10.00">iosfwd</text>
</g>
<!-- Node16&#45;&gt;Node22 -->
<g id="edge30" class="edge"><title>Node16&#45;&gt;Node22</title>
<path fill="none" stroke="midnightblue" d="M455.475,-130.486C391.392,-120.922 289.785,-104.863 252.709,-94 250.843,-93.4532 248.939,-92.83 247.037,-92.1582"/>
<polygon fill="midnightblue" stroke="midnightblue" points="248.306,-88.8966 237.718,-88.5242 245.763,-95.4183 248.306,-88.8966"/>
</g>
<!-- Node23 -->
<g id="node24" class="node"><title>Node23</title>
<polygon fill="white" stroke="#bfbfbf" points="261.308,-70.5 261.308,-88.5 320.11,-88.5 320.11,-70.5 261.308,-70.5"/>
<text text-anchor="middle" x="290.709" y="-76.5" font-family="Helvetica,sans-Serif" font-size="10.00">stdexcept</text>
</g>
<!-- Node16&#45;&gt;Node23 -->
<g id="edge31" class="edge"><title>Node16&#45;&gt;Node23</title>
<path fill="none" stroke="midnightblue" d="M473.114,-130.48C436.101,-122.31 378.105,-108.771 328.709,-94 326.445,-93.323 324.118,-92.5899 321.783,-91.8272"/>
<polygon fill="midnightblue" stroke="midnightblue" points="322.881,-88.5038 312.286,-88.5935 320.624,-95.1302 322.881,-88.5038"/>
</g>
<!-- Node18 -->
<g id="node19" class="node"><title>Node18</title>
<polygon fill="white" stroke="#bfbfbf" points="379.647,-5.5 379.647,-23.5 421.771,-23.5 421.771,-5.5 379.647,-5.5"/>
<text text-anchor="middle" x="400.709" y="-11.5" font-family="Helvetica,sans-Serif" font-size="10.00">cstdio</text>
</g>
<!-- Node17&#45;&gt;Node18 -->
<g id="edge22" class="edge"><title>Node17&#45;&gt;Node18</title>
<path fill="none" stroke="midnightblue" d="M400.709,-70.2639C400.709,-61.0635 400.709,-45.881 400.709,-33.8326"/>
<polygon fill="midnightblue" stroke="midnightblue" points="404.209,-33.5389 400.709,-23.539 397.209,-33.539 404.209,-33.5389"/>
</g>
<!-- Node26&#45;&gt;Node25 -->
<g id="edge37" class="edge"><title>Node26&#45;&gt;Node25</title>
<path fill="none" stroke="midnightblue" d="M735.521,-185.45C719.442,-176.929 693.828,-163.353 674.952,-153.349"/>
<polygon fill="midnightblue" stroke="midnightblue" points="676.515,-150.216 666.04,-148.625 673.236,-156.401 676.515,-150.216"/>
</g>
<!-- Node27&#45;&gt;Node4 -->
<g id="edge39" class="edge"><title>Node27&#45;&gt;Node4</title>
<path fill="none" stroke="midnightblue" d="M938.192,-185.45C924.078,-177.045 901.708,-163.724 884.979,-153.762"/>
<polygon fill="midnightblue" stroke="midnightblue" points="886.736,-150.735 876.353,-148.625 883.155,-156.749 886.736,-150.735"/>
</g>
<!-- Node28 -->
<g id="node29" class="node"><title>Node28</title>
<polygon fill="white" stroke="#bfbfbf" points="954.694,-130.5 954.694,-148.5 1020.72,-148.5 1020.72,-130.5 954.694,-130.5"/>
<text text-anchor="middle" x="987.709" y="-136.5" font-family="Helvetica,sans-Serif" font-size="10.00">Eigen/Core</text>
</g>
<!-- Node27&#45;&gt;Node28 -->
<g id="edge40" class="edge"><title>Node27&#45;&gt;Node28</title>
<path fill="none" stroke="midnightblue" d="M957.334,-185.219C962.436,-177.707 970.109,-166.411 976.466,-157.052"/>
<polygon fill="midnightblue" stroke="midnightblue" points="979.518,-158.788 982.241,-148.55 973.727,-154.855 979.518,-158.788"/>
</g>
<!-- Node29 -->
<g id="node30" class="node"><title>Node29</title>
<polygon fill="white" stroke="#bfbfbf" points="1038.73,-130.5 1038.73,-148.5 1148.69,-148.5 1148.69,-130.5 1038.73,-130.5"/>
<text text-anchor="middle" x="1093.71" y="-136.5" font-family="Helvetica,sans-Serif" font-size="10.00">boost/shared_ptr.hpp</text>
</g>
<!-- Node27&#45;&gt;Node29 -->
<g id="edge41" class="edge"><title>Node27&#45;&gt;Node29</title>
<path fill="none" stroke="midnightblue" d="M973.276,-185.45C997.046,-176.578 1035.49,-162.229 1062.54,-152.134"/>
<polygon fill="midnightblue" stroke="midnightblue" points="1063.79,-155.401 1071.94,-148.625 1061.35,-148.843 1063.79,-155.401"/>
</g>
<!-- Node31 -->
<g id="node32" class="node"><title>Node31</title>
<polygon fill="white" stroke="#bfbfbf" points="1166.65,-130.5 1166.65,-148.5 1218.77,-148.5 1218.77,-130.5 1166.65,-130.5"/>
<text text-anchor="middle" x="1192.71" y="-136.5" font-family="Helvetica,sans-Serif" font-size="10.00">memory</text>
</g>
<!-- Node30&#45;&gt;Node31 -->
<g id="edge43" class="edge"><title>Node30&#45;&gt;Node31</title>
<path fill="none" stroke="midnightblue" d="M1105.35,-185.45C1121.99,-176.89 1148.54,-163.229 1168,-153.212"/>
<polygon fill="midnightblue" stroke="midnightblue" points="1169.63,-156.313 1176.92,-148.625 1166.42,-150.089 1169.63,-156.313"/>
</g>
</g>
</svg>
