<?xml version="1.0" encoding="UTF-8" standalone="no"?>
<!DOCTYPE svg PUBLIC "-//W3C//DTD SVG 1.1//EN"
 "http://www.w3.org/Graphics/SVG/1.1/DTD/svg11.dtd">
<!-- Generated by graphviz version 2.38.0 (20140413.2041)
 -->
<!-- Title: ocra::Parenthood&lt; ComponentDerived, CompositeDerived, ParenthoodInfo &gt; Pages: 1 -->
<svg width="161pt" height="102pt"
 viewBox="0.00 0.00 161.04 102.00" xmlns="http://www.w3.org/2000/svg" xmlns:xlink="http://www.w3.org/1999/xlink">
<g id="graph0" class="graph" transform="scale(1 1) rotate(0) translate(4 98)">
<title>ocra::Parenthood&lt; ComponentDerived, CompositeDerived, ParenthoodInfo &gt;</title>
<polygon fill="white" stroke="none" points="-4,4 -4,-98 157.036,-98 157.036,4 -4,4"/>
<!-- Node0 -->
<g id="node1" class="node"><title>Node0</title>
<polygon fill="#bfbfbf" stroke="black" points="0,-0.5 0,-38.5 153.036,-38.5 153.036,-0.5 0,-0.5"/>
<text text-anchor="start" x="8" y="-26.5" font-family="Helvetica,sans-Serif" font-size="10.00">ocra::Parenthood&lt; Component</text>
<text text-anchor="start" x="8" y="-16.5" font-family="Helvetica,sans-Serif" font-size="10.00">Derived, CompositeDerived,</text>
<text text-anchor="middle" x="76.5181" y="-6.5" font-family="Helvetica,sans-Serif" font-size="10.00"> ParenthoodInfo &gt;</text>
</g>
<!-- Node1 -->
<g id="node2" class="node"><title>Node1</title>
<polygon fill="white" stroke="#bfbfbf" points="40.1611,-75.5 40.1611,-93.5 112.875,-93.5 112.875,-75.5 40.1611,-75.5"/>
<text text-anchor="middle" x="76.5181" y="-81.5" font-family="Helvetica,sans-Serif" font-size="10.00">noncopyable</text>
</g>
<!-- Node1&#45;&gt;Node0 -->
<g id="edge1" class="edge"><title>Node1&#45;&gt;Node0</title>
<path fill="none" stroke="#8b1a1a" d="M76.5181,-65.0758C76.5181,-56.7168 76.5181,-46.8643 76.5181,-38.5506"/>
<polygon fill="#8b1a1a" stroke="#8b1a1a" points="73.0182,-65.2638 76.5181,-75.2639 80.0182,-65.2639 73.0182,-65.2638"/>
</g>
</g>
</svg>
