<?xml version="1.0" encoding="UTF-8" standalone="no"?>
<!DOCTYPE svg PUBLIC "-//W3C//DTD SVG 1.1//EN"
 "http://www.w3.org/Graphics/SVG/1.1/DTD/svg11.dtd">
<!-- Generated by graphviz version 2.38.0 (20140413.2041)
 -->
<!-- Title: DoubleDiagonalLinearFunction.cpp Pages: 1 -->
<svg width="1581pt" height="452pt"
 viewBox="0.00 0.00 1580.71 452.00" xmlns="http://www.w3.org/2000/svg" xmlns:xlink="http://www.w3.org/1999/xlink">
<g id="graph0" class="graph" transform="scale(1 1) rotate(0) translate(4 448)">
<title>DoubleDiagonalLinearFunction.cpp</title>
<polygon fill="white" stroke="none" points="-4,4 -4,-448 1576.71,-448 1576.71,4 -4,4"/>
<!-- Node0 -->
<g id="node1" class="node"><title>Node0</title>
<polygon fill="#bfbfbf" stroke="black" points="992.579,-425.5 992.579,-443.5 1164.79,-443.5 1164.79,-425.5 992.579,-425.5"/>
<text text-anchor="middle" x="1078.69" y="-431.5" font-family="Helvetica,sans-Serif" font-size="10.00">DoubleDiagonalLinearFunction.cpp</text>
</g>
<!-- Node1 -->
<g id="node2" class="node"><title>Node1</title>
<g id="a_node2"><a xlink:href="../../d9/d62/DoubleDiagonalLinearFunction_8h.html" target="_top" xlink:title="Declaration file of the DoubleDiagonalLinearFunction class. ">
<polygon fill="white" stroke="black" points="1010.37,-360.5 1010.37,-388.5 1147,-388.5 1147,-360.5 1010.37,-360.5"/>
<text text-anchor="start" x="1018.37" y="-376.5" font-family="Helvetica,sans-Serif" font-size="10.00">ocra/optim/DoubleDiagonal</text>
<text text-anchor="middle" x="1078.69" y="-366.5" font-family="Helvetica,sans-Serif" font-size="10.00">LinearFunction.h</text>
</a>
</g>
</g>
<!-- Node0&#45;&gt;Node1 -->
<g id="edge1" class="edge"><title>Node0&#45;&gt;Node1</title>
<path fill="none" stroke="midnightblue" d="M1078.69,-425.435C1078.69,-418.56 1078.69,-408.324 1078.69,-398.906"/>
<polygon fill="midnightblue" stroke="midnightblue" points="1082.19,-398.843 1078.69,-388.843 1075.19,-398.843 1082.19,-398.843"/>
</g>
<!-- Node2 -->
<g id="node3" class="node"><title>Node2</title>
<g id="a_node3"><a xlink:href="../../dc/d8a/LinearFunction_8h.html" target="_top" xlink:title="Declaration file of the LinearFunction class. ">
<polygon fill="white" stroke="black" points="1008.71,-305.5 1008.71,-323.5 1148.66,-323.5 1148.66,-305.5 1008.71,-305.5"/>
<text text-anchor="middle" x="1078.69" y="-311.5" font-family="Helvetica,sans-Serif" font-size="10.00">ocra/optim/LinearFunction.h</text>
</a>
</g>
</g>
<!-- Node1&#45;&gt;Node2 -->
<g id="edge2" class="edge"><title>Node1&#45;&gt;Node2</title>
<path fill="none" stroke="midnightblue" d="M1078.69,-360.339C1078.69,-352.531 1078.69,-342.512 1078.69,-333.927"/>
<polygon fill="midnightblue" stroke="midnightblue" points="1082.19,-333.771 1078.69,-323.771 1075.19,-333.772 1082.19,-333.771"/>
</g>
<!-- Node3 -->
<g id="node4" class="node"><title>Node3</title>
<g id="a_node4"><a xlink:href="../../df/df5/Function_8h.html" target="_top" xlink:title="Declaration file of the Function class. ">
<polygon fill="white" stroke="black" points="877.608,-250.5 877.608,-268.5 989.766,-268.5 989.766,-250.5 877.608,-250.5"/>
<text text-anchor="middle" x="933.687" y="-256.5" font-family="Helvetica,sans-Serif" font-size="10.00">ocra/optim/Function.h</text>
</a>
</g>
</g>
<!-- Node2&#45;&gt;Node3 -->
<g id="edge3" class="edge"><title>Node2&#45;&gt;Node3</title>
<path fill="none" stroke="midnightblue" d="M1056.66,-305.45C1032.39,-296.578 993.134,-282.229 965.516,-272.134"/>
<polygon fill="midnightblue" stroke="midnightblue" points="966.51,-268.771 955.917,-268.625 964.107,-275.346 966.51,-268.771"/>
</g>
<!-- Node35 -->
<g id="node36" class="node"><title>Node35</title>
<g id="a_node36"><a xlink:href="../../df/d0a/Macros_8h.html" target="_top" xlink:title="ocra/util/Macros.h">
<polygon fill="white" stroke="black" points="1176.23,-250.5 1176.23,-268.5 1271.15,-268.5 1271.15,-250.5 1176.23,-250.5"/>
<text text-anchor="middle" x="1223.69" y="-256.5" font-family="Helvetica,sans-Serif" font-size="10.00">ocra/util/Macros.h</text>
</a>
</g>
</g>
<!-- Node2&#45;&gt;Node35 -->
<g id="edge53" class="edge"><title>Node2&#45;&gt;Node35</title>
<path fill="none" stroke="midnightblue" d="M1100.71,-305.45C1124.98,-296.578 1164.24,-282.229 1191.86,-272.134"/>
<polygon fill="midnightblue" stroke="midnightblue" points="1193.27,-275.346 1201.46,-268.625 1190.86,-268.771 1193.27,-275.346"/>
</g>
<!-- Node4 -->
<g id="node5" class="node"><title>Node4</title>
<g id="a_node5"><a xlink:href="../../de/d94/IFunction_8h.html" target="_top" xlink:title="Declaration file of the IFunction interface. ">
<polygon fill="white" stroke="black" points="1202.22,-130.5 1202.22,-148.5 1317.15,-148.5 1317.15,-130.5 1202.22,-130.5"/>
<text text-anchor="middle" x="1259.69" y="-136.5" font-family="Helvetica,sans-Serif" font-size="10.00">ocra/optim/IFunction.h</text>
</a>
</g>
</g>
<!-- Node3&#45;&gt;Node4 -->
<g id="edge4" class="edge"><title>Node3&#45;&gt;Node4</title>
<path fill="none" stroke="midnightblue" d="M989.905,-257.597C1068.24,-255.162 1204.7,-246.265 1240.69,-214 1256,-200.275 1259.7,-175.984 1260.26,-159.101"/>
<polygon fill="midnightblue" stroke="midnightblue" points="1263.76,-158.813 1260.25,-148.817 1256.76,-158.821 1263.76,-158.813"/>
</g>
<!-- Node13 -->
<g id="node14" class="node"><title>Node13</title>
<g id="a_node14"><a xlink:href="../../d9/d54/IFunctionProperties_8h.html" target="_top" xlink:title="ocra/optim/IFunctionProperties.h">
<polygon fill="white" stroke="black" points="775.431,-190.5 775.431,-208.5 935.943,-208.5 935.943,-190.5 775.431,-190.5"/>
<text text-anchor="middle" x="855.687" y="-196.5" font-family="Helvetica,sans-Serif" font-size="10.00">ocra/optim/IFunctionProperties.h</text>
</a>
</g>
</g>
<!-- Node3&#45;&gt;Node13 -->
<g id="edge13" class="edge"><title>Node3&#45;&gt;Node13</title>
<path fill="none" stroke="midnightblue" d="M922.841,-250.435C910.524,-241.276 890.184,-226.152 875.111,-214.944"/>
<polygon fill="midnightblue" stroke="midnightblue" points="877.059,-212.03 866.946,-208.872 872.882,-217.647 877.059,-212.03"/>
</g>
<!-- Node15 -->
<g id="node16" class="node"><title>Node15</title>
<g id="a_node16"><a xlink:href="../../db/d47/AbilitySet_8h.html" target="_top" xlink:title="ocra/optim/AbilitySet.h">
<polygon fill="white" stroke="black" points="953.943,-190.5 953.943,-208.5 1069.43,-208.5 1069.43,-190.5 953.943,-190.5"/>
<text text-anchor="middle" x="1011.69" y="-196.5" font-family="Helvetica,sans-Serif" font-size="10.00">ocra/optim/AbilitySet.h</text>
</a>
</g>
</g>
<!-- Node3&#45;&gt;Node15 -->
<g id="edge16" class="edge"><title>Node3&#45;&gt;Node15</title>
<path fill="none" stroke="midnightblue" d="M944.533,-250.435C956.85,-241.276 977.19,-226.152 992.263,-214.944"/>
<polygon fill="midnightblue" stroke="midnightblue" points="994.492,-217.647 1000.43,-208.872 990.315,-212.03 994.492,-217.647"/>
</g>
<!-- Node16 -->
<g id="node17" class="node"><title>Node16</title>
<g id="a_node17"><a xlink:href="../../d1/d87/CoupledInputOutputSize_8h.html" target="_top" xlink:title="ocra/optim/CoupledInputOutput\lSize.h">
<polygon fill="white" stroke="black" points="475.2,-185.5 475.2,-213.5 630.174,-213.5 630.174,-185.5 475.2,-185.5"/>
<text text-anchor="start" x="483.2" y="-201.5" font-family="Helvetica,sans-Serif" font-size="10.00">ocra/optim/CoupledInputOutput</text>
<text text-anchor="middle" x="552.687" y="-191.5" font-family="Helvetica,sans-Serif" font-size="10.00">Size.h</text>
</a>
</g>
</g>
<!-- Node3&#45;&gt;Node16 -->
<g id="edge19" class="edge"><title>Node3&#45;&gt;Node16</title>
<path fill="none" stroke="midnightblue" d="M879.842,-250.476C822.829,-241.959 729.914,-228.014 640.534,-214.28"/>
<polygon fill="midnightblue" stroke="midnightblue" points="640.915,-210.797 630.499,-212.736 639.851,-217.716 640.915,-210.797"/>
</g>
<!-- Node17 -->
<g id="node18" class="node"><title>Node17</title>
<g id="a_node18"><a xlink:href="../../d7/d90/Variable_8h.html" target="_top" xlink:title="Declaration file of the Variable class. ">
<polygon fill="white" stroke="black" points="647.81,-190.5 647.81,-208.5 757.564,-208.5 757.564,-190.5 647.81,-190.5"/>
<text text-anchor="middle" x="702.687" y="-196.5" font-family="Helvetica,sans-Serif" font-size="10.00">ocra/optim/Variable.h</text>
</a>
</g>
</g>
<!-- Node3&#45;&gt;Node17 -->
<g id="edge20" class="edge"><title>Node3&#45;&gt;Node17</title>
<path fill="none" stroke="midnightblue" d="M901.567,-250.435C860.653,-240.162 789.847,-222.384 744.688,-211.046"/>
<polygon fill="midnightblue" stroke="midnightblue" points="745.457,-207.63 734.905,-208.589 743.752,-214.419 745.457,-207.63"/>
</g>
<!-- Node18 -->
<g id="node19" class="node"><title>Node18</title>
<g id="a_node19"><a xlink:href="../../d8/ddc/ObserverSubject_8h.html" target="_top" xlink:title="Declaration file of the Observer, Subject and ObserverSubject classes. ">
<polygon fill="white" stroke="black" points="380.547,-130.5 380.547,-148.5 528.827,-148.5 528.827,-130.5 380.547,-130.5"/>
<text text-anchor="middle" x="454.687" y="-136.5" font-family="Helvetica,sans-Serif" font-size="10.00">ocra/optim/ObserverSubject.h</text>
</a>
</g>
</g>
<!-- Node3&#45;&gt;Node18 -->
<g id="edge50" class="edge"><title>Node3&#45;&gt;Node18</title>
<path fill="none" stroke="midnightblue" d="M877.169,-256.923C759.39,-253.098 496.13,-241.538 466.687,-214 451.956,-200.222 450.723,-175.943 452.006,-159.077"/>
<polygon fill="midnightblue" stroke="midnightblue" points="455.522,-159.134 453.163,-148.805 448.566,-158.351 455.522,-159.134"/>
</g>
<!-- Node34 -->
<g id="node35" class="node"><title>Node34</title>
<g id="a_node35"><a xlink:href="../../df/d97/NamedInstance_8h.html" target="_top" xlink:title="ocra/optim/NamedInstance.h">
<polygon fill="white" stroke="black" points="1087.77,-190.5 1087.77,-208.5 1231.61,-208.5 1231.61,-190.5 1087.77,-190.5"/>
<text text-anchor="middle" x="1159.69" y="-196.5" font-family="Helvetica,sans-Serif" font-size="10.00">ocra/optim/NamedInstance.h</text>
</a>
</g>
</g>
<!-- Node3&#45;&gt;Node34 -->
<g id="edge51" class="edge"><title>Node3&#45;&gt;Node34</title>
<path fill="none" stroke="midnightblue" d="M965.111,-250.435C1005.06,-240.184 1074.12,-222.459 1118.32,-211.117"/>
<polygon fill="midnightblue" stroke="midnightblue" points="1119.35,-214.465 1128.17,-208.589 1117.61,-207.685 1119.35,-214.465"/>
</g>
<!-- Node5 -->
<g id="node6" class="node"><title>Node5</title>
<g id="a_node6"><a xlink:href="../../d5/d55/MathTypes_8h.html" target="_top" xlink:title="Declaration file of the OptimizationVariable class. ">
<polygon fill="white" stroke="black" points="1317.16,-70.5 1317.16,-88.5 1428.21,-88.5 1428.21,-70.5 1317.16,-70.5"/>
<text text-anchor="middle" x="1372.69" y="-76.5" font-family="Helvetica,sans-Serif" font-size="10.00">ocra/util/MathTypes.h</text>
</a>
</g>
</g>
<!-- Node4&#45;&gt;Node5 -->
<g id="edge5" class="edge"><title>Node4&#45;&gt;Node5</title>
<path fill="none" stroke="midnightblue" d="M1275.4,-130.435C1294.1,-120.837 1325.56,-104.687 1347.63,-93.3586"/>
<polygon fill="midnightblue" stroke="midnightblue" points="1349.45,-96.3633 1356.74,-88.6831 1346.25,-90.1358 1349.45,-96.3633"/>
</g>
<!-- Node8 -->
<g id="node9" class="node"><title>Node8</title>
<g id="a_node9"><a xlink:href="../../de/df3/ocra__assert_8h.html" target="_top" xlink:title="ocra/optim/ocra_assert.h">
<polygon fill="white" stroke="black" points="1446.66,-70.5 1446.66,-88.5 1572.71,-88.5 1572.71,-70.5 1446.66,-70.5"/>
<text text-anchor="middle" x="1509.69" y="-76.5" font-family="Helvetica,sans-Serif" font-size="10.00">ocra/optim/ocra_assert.h</text>
</a>
</g>
</g>
<!-- Node4&#45;&gt;Node8 -->
<g id="edge8" class="edge"><title>Node4&#45;&gt;Node8</title>
<path fill="none" stroke="midnightblue" d="M1294.19,-130.496C1338.7,-120.168 1416.23,-102.181 1465.16,-90.8308"/>
<polygon fill="midnightblue" stroke="midnightblue" points="1466.19,-94.1842 1475.14,-88.5147 1464.61,-87.3653 1466.19,-94.1842"/>
</g>
<!-- Node10 -->
<g id="node11" class="node"><title>Node10</title>
<polygon fill="white" stroke="#bfbfbf" points="1244.51,-70.5 1244.51,-88.5 1298.86,-88.5 1298.86,-70.5 1244.51,-70.5"/>
<text text-anchor="middle" x="1271.69" y="-76.5" font-family="Helvetica,sans-Serif" font-size="10.00">iostream</text>
</g>
<!-- Node4&#45;&gt;Node10 -->
<g id="edge10" class="edge"><title>Node4&#45;&gt;Node10</title>
<path fill="none" stroke="midnightblue" d="M1261.36,-130.435C1263.04,-122.304 1265.69,-109.469 1267.89,-98.8485"/>
<polygon fill="midnightblue" stroke="midnightblue" points="1271.36,-99.3735 1269.95,-88.8718 1264.5,-97.9552 1271.36,-99.3735"/>
</g>
<!-- Node11 -->
<g id="node12" class="node"><title>Node11</title>
<polygon fill="white" stroke="#bfbfbf" points="779.071,-70.5 779.071,-88.5 822.303,-88.5 822.303,-70.5 779.071,-70.5"/>
<text text-anchor="middle" x="800.687" y="-76.5" font-family="Helvetica,sans-Serif" font-size="10.00">vector</text>
</g>
<!-- Node4&#45;&gt;Node11 -->
<g id="edge11" class="edge"><title>Node4&#45;&gt;Node11</title>
<path fill="none" stroke="midnightblue" d="M1202.02,-131.213C1104.29,-118.863 909.273,-94.2211 832.652,-84.5391"/>
<polygon fill="midnightblue" stroke="midnightblue" points="833.009,-81.0564 822.649,-83.2751 832.131,-88.0012 833.009,-81.0564"/>
</g>
<!-- Node12 -->
<g id="node13" class="node"><title>Node12</title>
<polygon fill="white" stroke="#bfbfbf" points="1167.29,-70.5 1167.29,-88.5 1226.09,-88.5 1226.09,-70.5 1167.29,-70.5"/>
<text text-anchor="middle" x="1196.69" y="-76.5" font-family="Helvetica,sans-Serif" font-size="10.00">stdexcept</text>
</g>
<!-- Node4&#45;&gt;Node12 -->
<g id="edge12" class="edge"><title>Node4&#45;&gt;Node12</title>
<path fill="none" stroke="midnightblue" d="M1250.93,-130.435C1241.26,-121.533 1225.47,-106.995 1213.41,-95.8954"/>
<polygon fill="midnightblue" stroke="midnightblue" points="1215.51,-93.0699 1205.78,-88.8718 1210.77,-98.2198 1215.51,-93.0699"/>
</g>
<!-- Node6 -->
<g id="node7" class="node"><title>Node6</title>
<polygon fill="white" stroke="#bfbfbf" points="1298.06,-5.5 1298.06,-23.5 1371.32,-23.5 1371.32,-5.5 1298.06,-5.5"/>
<text text-anchor="middle" x="1334.69" y="-11.5" font-family="Helvetica,sans-Serif" font-size="10.00">Eigen/Dense</text>
</g>
<!-- Node5&#45;&gt;Node6 -->
<g id="edge6" class="edge"><title>Node5&#45;&gt;Node6</title>
<path fill="none" stroke="midnightblue" d="M1367.72,-70.2639C1361.94,-60.6842 1352.25,-44.6186 1344.86,-32.3587"/>
<polygon fill="midnightblue" stroke="midnightblue" points="1347.7,-30.2942 1339.54,-23.539 1341.7,-33.9096 1347.7,-30.2942"/>
</g>
<!-- Node7 -->
<g id="node8" class="node"><title>Node7</title>
<polygon fill="white" stroke="#bfbfbf" points="1389.07,-5.5 1389.07,-23.5 1432.3,-23.5 1432.3,-5.5 1389.07,-5.5"/>
<text text-anchor="middle" x="1410.69" y="-11.5" font-family="Helvetica,sans-Serif" font-size="10.00">cmath</text>
</g>
<!-- Node5&#45;&gt;Node7 -->
<g id="edge7" class="edge"><title>Node5&#45;&gt;Node7</title>
<path fill="none" stroke="midnightblue" d="M1377.65,-70.2639C1383.43,-60.6842 1393.12,-44.6186 1400.52,-32.3587"/>
<polygon fill="midnightblue" stroke="midnightblue" points="1403.67,-33.9096 1405.84,-23.539 1397.68,-30.2942 1403.67,-33.9096"/>
</g>
<!-- Node9 -->
<g id="node10" class="node"><title>Node9</title>
<polygon fill="white" stroke="#bfbfbf" points="1488.63,-5.5 1488.63,-23.5 1530.75,-23.5 1530.75,-5.5 1488.63,-5.5"/>
<text text-anchor="middle" x="1509.69" y="-11.5" font-family="Helvetica,sans-Serif" font-size="10.00">cstdio</text>
</g>
<!-- Node8&#45;&gt;Node9 -->
<g id="edge9" class="edge"><title>Node8&#45;&gt;Node9</title>
<path fill="none" stroke="midnightblue" d="M1509.69,-70.2639C1509.69,-61.0635 1509.69,-45.881 1509.69,-33.8326"/>
<polygon fill="midnightblue" stroke="midnightblue" points="1513.19,-33.5389 1509.69,-23.539 1506.19,-33.539 1513.19,-33.5389"/>
</g>
<!-- Node13&#45;&gt;Node11 -->
<g id="edge15" class="edge"><title>Node13&#45;&gt;Node11</title>
<path fill="none" stroke="midnightblue" d="M849.588,-190.464C842.598,-180.966 831.148,-164.488 823.687,-149 815.783,-132.591 809.446,-112.762 805.442,-98.6694"/>
<polygon fill="midnightblue" stroke="midnightblue" points="808.751,-97.5005 802.744,-88.7726 801.997,-99.3411 808.751,-97.5005"/>
</g>
<!-- Node14 -->
<g id="node15" class="node"><title>Node14</title>
<polygon fill="white" stroke="#bfbfbf" points="1005.46,-130.5 1005.46,-148.5 1045.91,-148.5 1045.91,-130.5 1005.46,-130.5"/>
<text text-anchor="middle" x="1025.69" y="-136.5" font-family="Helvetica,sans-Serif" font-size="10.00">string</text>
</g>
<!-- Node13&#45;&gt;Node14 -->
<g id="edge14" class="edge"><title>Node13&#45;&gt;Node14</title>
<path fill="none" stroke="midnightblue" d="M879.325,-190.435C909.751,-180.055 962.638,-162.011 995.817,-150.691"/>
<polygon fill="midnightblue" stroke="midnightblue" points="997.1,-153.951 1005.43,-147.41 994.84,-147.326 997.1,-153.951"/>
</g>
<!-- Node15&#45;&gt;Node4 -->
<g id="edge17" class="edge"><title>Node15&#45;&gt;Node4</title>
<path fill="none" stroke="midnightblue" d="M1045.91,-190.496C1090.07,-180.168 1166.98,-162.181 1215.51,-150.831"/>
<polygon fill="midnightblue" stroke="midnightblue" points="1216.48,-154.2 1225.42,-148.515 1214.88,-147.384 1216.48,-154.2"/>
</g>
<!-- Node15&#45;&gt;Node11 -->
<g id="edge18" class="edge"><title>Node15&#45;&gt;Node11</title>
<path fill="none" stroke="midnightblue" d="M979.062,-190.422C939.839,-180.311 876.775,-162.663 856.687,-149 836.703,-135.407 820.129,-112.647 810.323,-97.1225"/>
<polygon fill="midnightblue" stroke="midnightblue" points="813.298,-95.2773 805.122,-88.5384 807.311,-98.9048 813.298,-95.2773"/>
</g>
<!-- Node17&#45;&gt;Node11 -->
<g id="edge49" class="edge"><title>Node17&#45;&gt;Node11</title>
<path fill="none" stroke="midnightblue" d="M689.671,-190.397C670.569,-177.488 638.839,-151.512 654.687,-130 686.705,-86.5392 720.202,-113.112 770.687,-94 771.889,-93.545 773.111,-93.0658 774.341,-92.57"/>
<polygon fill="midnightblue" stroke="midnightblue" points="775.88,-95.7187 783.704,-88.5751 773.133,-89.2802 775.88,-95.7187"/>
</g>
<!-- Node17&#45;&gt;Node14 -->
<g id="edge48" class="edge"><title>Node17&#45;&gt;Node14</title>
<path fill="none" stroke="midnightblue" d="M739.174,-190.457C748.151,-188.574 757.752,-186.64 766.687,-185 865.273,-166.9 893.941,-171.292 995.152,-149.101"/>
<polygon fill="midnightblue" stroke="midnightblue" points="996.177,-152.459 1005.18,-146.869 994.656,-145.626 996.177,-152.459"/>
</g>
<!-- Node17&#45;&gt;Node18 -->
<g id="edge21" class="edge"><title>Node17&#45;&gt;Node18</title>
<path fill="none" stroke="midnightblue" d="M668.464,-190.496C624.301,-180.168 547.392,-162.181 498.86,-150.831"/>
<polygon fill="midnightblue" stroke="midnightblue" points="499.491,-147.384 488.957,-148.515 497.897,-154.2 499.491,-147.384"/>
</g>
<!-- Node29 -->
<g id="node30" class="node"><title>Node29</title>
<g id="a_node30"><a xlink:href="../../d1/de6/Composite_8h.html" target="_top" xlink:title="Utility classes and functions to implement the Composite design pattern. ">
<polygon fill="white" stroke="black" points="865.887,-130.5 865.887,-148.5 987.487,-148.5 987.487,-130.5 865.887,-130.5"/>
<text text-anchor="middle" x="926.687" y="-136.5" font-family="Helvetica,sans-Serif" font-size="10.00">ocra/optim/Composite.h</text>
</a>
</g>
</g>
<!-- Node17&#45;&gt;Node29 -->
<g id="edge35" class="edge"><title>Node17&#45;&gt;Node29</title>
<path fill="none" stroke="midnightblue" d="M733.833,-190.435C773.425,-180.184 841.88,-162.459 885.683,-151.117"/>
<polygon fill="midnightblue" stroke="midnightblue" points="886.642,-154.484 895.445,-148.589 884.887,-147.708 886.642,-154.484"/>
</g>
<!-- Node30 -->
<g id="node31" class="node"><title>Node30</title>
<polygon fill="white" stroke="#bfbfbf" points="641.978,-70.5 641.978,-88.5 761.396,-88.5 761.396,-70.5 641.978,-70.5"/>
<text text-anchor="middle" x="701.687" y="-76.5" font-family="Helvetica,sans-Serif" font-size="10.00">boost/noncopyable.hpp</text>
</g>
<!-- Node17&#45;&gt;Node30 -->
<g id="edge47" class="edge"><title>Node17&#45;&gt;Node30</title>
<path fill="none" stroke="midnightblue" d="M713.392,-190.139C727.901,-177.712 751.091,-153.321 742.687,-130 737.947,-116.846 728.025,-104.711 719.13,-95.7476"/>
<polygon fill="midnightblue" stroke="midnightblue" points="721.4,-93.0769 711.732,-88.7417 716.586,-98.1593 721.4,-93.0769"/>
</g>
<!-- Node33 -->
<g id="node34" class="node"><title>Node33</title>
<polygon fill="white" stroke="#bfbfbf" points="663.722,-130.5 663.722,-148.5 733.652,-148.5 733.652,-130.5 663.722,-130.5"/>
<text text-anchor="middle" x="698.687" y="-136.5" font-family="Helvetica,sans-Serif" font-size="10.00">Eigen/Eigen</text>
</g>
<!-- Node17&#45;&gt;Node33 -->
<g id="edge46" class="edge"><title>Node17&#45;&gt;Node33</title>
<path fill="none" stroke="midnightblue" d="M702.131,-190.435C701.57,-182.304 700.685,-169.469 699.952,-158.848"/>
<polygon fill="midnightblue" stroke="midnightblue" points="703.444,-158.607 699.264,-148.872 696.461,-159.089 703.444,-158.607"/>
</g>
<!-- Node19 -->
<g id="node20" class="node"><title>Node19</title>
<g id="a_node20"><a xlink:href="../../df/d67/ObserverSubjectBase_8h.html" target="_top" xlink:title="Declaration file of the Observer and Subject base classes. ">
<polygon fill="white" stroke="black" points="144.717,-65.5 144.717,-93.5 284.657,-93.5 284.657,-65.5 144.717,-65.5"/>
<text text-anchor="start" x="152.717" y="-81.5" font-family="Helvetica,sans-Serif" font-size="10.00">ocra/optim/ObserverSubject</text>
<text text-anchor="middle" x="214.687" y="-71.5" font-family="Helvetica,sans-Serif" font-size="10.00">Base.h</text>
</a>
</g>
</g>
<!-- Node18&#45;&gt;Node19 -->
<g id="edge22" class="edge"><title>Node18&#45;&gt;Node19</title>
<path fill="none" stroke="midnightblue" d="M421.568,-130.496C384.789,-121.608 324.543,-107.048 278.524,-95.9274"/>
<polygon fill="midnightblue" stroke="midnightblue" points="279.182,-92.4855 268.639,-93.5385 277.537,-99.2897 279.182,-92.4855"/>
</g>
<!-- Node23 -->
<g id="node24" class="node"><title>Node23</title>
<polygon fill="white" stroke="#bfbfbf" points="0,-0.5 0,-28.5 99.374,-28.5 99.374,-0.5 0,-0.5"/>
<text text-anchor="start" x="8" y="-16.5" font-family="Helvetica,sans-Serif" font-size="10.00">boost/type_traits/is</text>
<text text-anchor="middle" x="49.687" y="-6.5" font-family="Helvetica,sans-Serif" font-size="10.00">_class.hpp</text>
</g>
<!-- Node18&#45;&gt;Node23 -->
<g id="edge34" class="edge"><title>Node18&#45;&gt;Node23</title>
<path fill="none" stroke="midnightblue" d="M380.428,-133.244C300.087,-126.665 177.82,-113.795 135.687,-94 107.445,-80.7309 81.9938,-54.9233 66.2361,-36.5221"/>
<polygon fill="midnightblue" stroke="midnightblue" points="68.7861,-34.1144 59.703,-28.6602 63.4023,-38.5883 68.7861,-34.1144"/>
</g>
<!-- Node24 -->
<g id="node25" class="node"><title>Node24</title>
<polygon fill="white" stroke="#bfbfbf" points="409,-0.5 409,-28.5 508.374,-28.5 508.374,-0.5 409,-0.5"/>
<text text-anchor="start" x="417" y="-16.5" font-family="Helvetica,sans-Serif" font-size="10.00">boost/type_traits/is</text>
<text text-anchor="middle" x="458.687" y="-6.5" font-family="Helvetica,sans-Serif" font-size="10.00">_base_of.hpp</text>
</g>
<!-- Node18&#45;&gt;Node24 -->
<g id="edge32" class="edge"><title>Node18&#45;&gt;Node24</title>
<path fill="none" stroke="midnightblue" d="M454.949,-130.43C455.545,-112.123 457.016,-66.8717 457.925,-38.9218"/>
<polygon fill="midnightblue" stroke="midnightblue" points="461.427,-38.9178 458.254,-28.8093 454.431,-38.6902 461.427,-38.9178"/>
</g>
<!-- Node25 -->
<g id="node26" class="node"><title>Node25</title>
<polygon fill="white" stroke="#bfbfbf" points="526.269,-5.5 526.269,-23.5 645.105,-23.5 645.105,-5.5 526.269,-5.5"/>
<text text-anchor="middle" x="585.687" y="-11.5" font-family="Helvetica,sans-Serif" font-size="10.00">boost/static_assert.hpp</text>
</g>
<!-- Node18&#45;&gt;Node25 -->
<g id="edge31" class="edge"><title>Node18&#45;&gt;Node25</title>
<path fill="none" stroke="midnightblue" d="M460.47,-130.18C470.635,-115.889 492.808,-86.1769 515.687,-65 530.382,-51.398 548.964,-38.4219 563.289,-29.1703"/>
<polygon fill="midnightblue" stroke="midnightblue" points="565.423,-31.9621 572.004,-23.6594 561.682,-26.0457 565.423,-31.9621"/>
</g>
<!-- Node27 -->
<g id="node28" class="node"><title>Node27</title>
<g id="a_node28"><a xlink:href="../../db/ddf/ocra__events_8h.html" target="_top" xlink:title="ocra/optim/ocra_events.h">
<polygon fill="white" stroke="black" points="302.547,-70.5 302.547,-88.5 430.827,-88.5 430.827,-70.5 302.547,-70.5"/>
<text text-anchor="middle" x="366.687" y="-76.5" font-family="Helvetica,sans-Serif" font-size="10.00">ocra/optim/ocra_events.h</text>
</a>
</g>
</g>
<!-- Node18&#45;&gt;Node27 -->
<g id="edge30" class="edge"><title>Node18&#45;&gt;Node27</title>
<path fill="none" stroke="midnightblue" d="M442.451,-130.435C428.345,-121.138 404.913,-105.694 387.836,-94.4393"/>
<polygon fill="midnightblue" stroke="midnightblue" points="389.379,-91.264 379.103,-88.6831 385.526,-97.1087 389.379,-91.264"/>
</g>
<!-- Node28 -->
<g id="node29" class="node"><title>Node28</title>
<polygon fill="white" stroke="#bfbfbf" points="525,-65.5 525,-93.5 624.374,-93.5 624.374,-65.5 525,-65.5"/>
<text text-anchor="start" x="533" y="-81.5" font-family="Helvetica,sans-Serif" font-size="10.00">boost/type_traits/is</text>
<text text-anchor="middle" x="574.687" y="-71.5" font-family="Helvetica,sans-Serif" font-size="10.00">_convertible.hpp</text>
</g>
<!-- Node18&#45;&gt;Node28 -->
<g id="edge33" class="edge"><title>Node18&#45;&gt;Node28</title>
<path fill="none" stroke="midnightblue" d="M471.372,-130.435C488.616,-122.101 516.078,-108.828 538.356,-98.0599"/>
<polygon fill="midnightblue" stroke="midnightblue" points="540.061,-101.123 547.541,-93.6203 537.015,-94.8208 540.061,-101.123"/>
</g>
<!-- Node20 -->
<g id="node21" class="node"><title>Node20</title>
<polygon fill="white" stroke="#bfbfbf" points="236.283,-5.5 236.283,-23.5 295.091,-23.5 295.091,-5.5 236.283,-5.5"/>
<text text-anchor="middle" x="265.687" y="-11.5" font-family="Helvetica,sans-Serif" font-size="10.00">functional</text>
</g>
<!-- Node19&#45;&gt;Node20 -->
<g id="edge23" class="edge"><title>Node19&#45;&gt;Node20</title>
<path fill="none" stroke="midnightblue" d="M225.254,-65.4464C233.187,-55.6477 244.095,-42.1721 252.583,-31.6874"/>
<polygon fill="midnightblue" stroke="midnightblue" points="255.453,-33.7048 259.025,-23.7301 250.012,-29.3004 255.453,-33.7048"/>
</g>
<!-- Node21 -->
<g id="node22" class="node"><title>Node21</title>
<polygon fill="white" stroke="#bfbfbf" points="781.123,-5.5 781.123,-23.5 838.251,-23.5 838.251,-5.5 781.123,-5.5"/>
<text text-anchor="middle" x="809.687" y="-11.5" font-family="Helvetica,sans-Serif" font-size="10.00">algorithm</text>
</g>
<!-- Node19&#45;&gt;Node21 -->
<g id="edge24" class="edge"><title>Node19&#45;&gt;Node21</title>
<path fill="none" stroke="midnightblue" d="M284.857,-66.2331C287.838,-65.7993 290.791,-65.3859 293.687,-65 386.184,-52.6771 667.429,-27.8365 770.926,-18.845"/>
<polygon fill="midnightblue" stroke="midnightblue" points="771.286,-22.3271 780.946,-17.9759 770.681,-15.3533 771.286,-22.3271"/>
</g>
<!-- Node22 -->
<g id="node23" class="node"><title>Node22</title>
<polygon fill="white" stroke="#bfbfbf" points="312.642,-5.5 312.642,-23.5 390.732,-23.5 390.732,-5.5 312.642,-5.5"/>
<text text-anchor="middle" x="351.687" y="-11.5" font-family="Helvetica,sans-Serif" font-size="10.00">boost/any.hpp</text>
</g>
<!-- Node19&#45;&gt;Node22 -->
<g id="edge25" class="edge"><title>Node19&#45;&gt;Node22</title>
<path fill="none" stroke="midnightblue" d="M243.074,-65.4464C267.076,-54.4087 301.224,-38.7057 324.793,-27.8674"/>
<polygon fill="midnightblue" stroke="midnightblue" points="326.563,-30.9059 334.186,-23.548 323.638,-24.5461 326.563,-30.9059"/>
</g>
<!-- Node19&#45;&gt;Node23 -->
<g id="edge26" class="edge"><title>Node19&#45;&gt;Node23</title>
<path fill="none" stroke="midnightblue" d="M180.499,-65.4464C155.278,-55.8166 120.757,-42.6356 93.5098,-32.2323"/>
<polygon fill="midnightblue" stroke="midnightblue" points="94.422,-28.8342 83.8313,-28.5369 91.925,-35.3738 94.422,-28.8342"/>
</g>
<!-- Node19&#45;&gt;Node24 -->
<g id="edge27" class="edge"><title>Node19&#45;&gt;Node24</title>
<path fill="none" stroke="midnightblue" d="M265.244,-65.4464C304.06,-55.4243 357.772,-41.5558 398.752,-30.9751"/>
<polygon fill="midnightblue" stroke="midnightblue" points="399.805,-34.3179 408.613,-28.429 398.055,-27.5402 399.805,-34.3179"/>
</g>
<!-- Node19&#45;&gt;Node25 -->
<g id="edge28" class="edge"><title>Node19&#45;&gt;Node25</title>
<path fill="none" stroke="midnightblue" d="M284.892,-66.4658C287.863,-65.9683 290.804,-65.4779 293.687,-65 393.162,-48.5074 418.441,-46.8205 517.687,-29 523.829,-27.8972 530.272,-26.6874 536.642,-25.4592"/>
<polygon fill="midnightblue" stroke="midnightblue" points="537.395,-28.8783 546.539,-23.5267 536.053,-22.0081 537.395,-28.8783"/>
</g>
<!-- Node26 -->
<g id="node27" class="node"><title>Node26</title>
<polygon fill="white" stroke="#bfbfbf" points="116.882,-0.5 116.882,-28.5 218.492,-28.5 218.492,-0.5 116.882,-0.5"/>
<text text-anchor="start" x="124.882" y="-16.5" font-family="Helvetica,sans-Serif" font-size="10.00">boost/ptr_container</text>
<text text-anchor="middle" x="167.687" y="-6.5" font-family="Helvetica,sans-Serif" font-size="10.00">/ptr_vector.hpp</text>
</g>
<!-- Node19&#45;&gt;Node26 -->
<g id="edge29" class="edge"><title>Node19&#45;&gt;Node26</title>
<path fill="none" stroke="midnightblue" d="M204.949,-65.4464C198.773,-57.1681 190.639,-46.2656 183.547,-36.7593"/>
<polygon fill="midnightblue" stroke="midnightblue" points="186.198,-34.4593 177.413,-28.5369 180.587,-38.6451 186.198,-34.4593"/>
</g>
<!-- Node29&#45;&gt;Node8 -->
<g id="edge36" class="edge"><title>Node29&#45;&gt;Node8</title>
<path fill="none" stroke="midnightblue" d="M987.755,-130.941C990.774,-130.612 993.764,-130.297 996.687,-130 1192.33,-110.144 1242.78,-120.156 1437.69,-94 1445.22,-92.9885 1453.17,-91.713 1460.92,-90.352"/>
<polygon fill="midnightblue" stroke="midnightblue" points="1461.73,-93.7615 1470.95,-88.5285 1460.48,-86.8745 1461.73,-93.7615"/>
</g>
<!-- Node29&#45;&gt;Node11 -->
<g id="edge42" class="edge"><title>Node29&#45;&gt;Node11</title>
<path fill="none" stroke="midnightblue" d="M909.167,-130.435C888.035,-120.708 852.284,-104.251 827.634,-92.9041"/>
<polygon fill="midnightblue" stroke="midnightblue" points="829.012,-89.6853 818.464,-88.6831 826.084,-96.044 829.012,-89.6853"/>
</g>
<!-- Node29&#45;&gt;Node12 -->
<g id="edge45" class="edge"><title>Node29&#45;&gt;Node12</title>
<path fill="none" stroke="midnightblue" d="M979.93,-130.464C1027.07,-122.825 1097.53,-110.119 1157.69,-94 1160.17,-93.3348 1162.72,-92.5909 1165.28,-91.8034"/>
<polygon fill="midnightblue" stroke="midnightblue" points="1166.58,-95.0608 1174.99,-88.6247 1164.4,-88.4078 1166.58,-95.0608"/>
</g>
<!-- Node29&#45;&gt;Node21 -->
<g id="edge43" class="edge"><title>Node29&#45;&gt;Node21</title>
<path fill="none" stroke="midnightblue" d="M925.995,-130.257C924.366,-115.557 919.091,-84.5292 902.687,-65 887.893,-47.3879 865.192,-35.1343 845.923,-27.2246"/>
<polygon fill="midnightblue" stroke="midnightblue" points="847.094,-23.9249 836.504,-23.5827 844.569,-30.4538 847.094,-23.9249"/>
</g>
<!-- Node29&#45;&gt;Node24 -->
<g id="edge39" class="edge"><title>Node29&#45;&gt;Node24</title>
<path fill="none" stroke="midnightblue" d="M914.544,-130.31C901.853,-121.63 881.488,-107.358 864.687,-94 849.404,-81.8483 849.535,-72.9181 831.687,-65 706.296,-9.37007 658.397,-50.6642 518.72,-28.979"/>
<polygon fill="midnightblue" stroke="midnightblue" points="518.936,-25.468 508.502,-27.3067 517.806,-32.376 518.936,-25.468"/>
</g>
<!-- Node29&#45;&gt;Node25 -->
<g id="edge38" class="edge"><title>Node29&#45;&gt;Node25</title>
<path fill="none" stroke="midnightblue" d="M922.206,-130.017C913.447,-114.346 892.458,-81.0049 864.687,-65 829.903,-44.9529 726.056,-30.3467 655.354,-22.3928"/>
<polygon fill="midnightblue" stroke="midnightblue" points="655.499,-18.8876 645.175,-21.2677 654.73,-25.8453 655.499,-18.8876"/>
</g>
<!-- Node29&#45;&gt;Node28 -->
<g id="edge40" class="edge"><title>Node29&#45;&gt;Node28</title>
<path fill="none" stroke="midnightblue" d="M865.637,-130.682C808.221,-123.007 719.664,-110.344 634.456,-94.2595"/>
<polygon fill="midnightblue" stroke="midnightblue" points="635.099,-90.8193 624.621,-92.3847 633.789,-97.6954 635.099,-90.8193"/>
</g>
<!-- Node29&#45;&gt;Node30 -->
<g id="edge37" class="edge"><title>Node29&#45;&gt;Node30</title>
<path fill="none" stroke="midnightblue" d="M895.402,-130.435C855.633,-120.184 786.873,-102.459 742.874,-91.1171"/>
<polygon fill="midnightblue" stroke="midnightblue" points="743.626,-87.6965 733.068,-88.5894 741.878,-94.4749 743.626,-87.6965"/>
</g>
<!-- Node31 -->
<g id="node32" class="node"><title>Node31</title>
<polygon fill="white" stroke="#bfbfbf" points="955.148,-65.5 955.148,-93.5 1086.23,-93.5 1086.23,-65.5 955.148,-65.5"/>
<text text-anchor="start" x="963.148" y="-81.5" font-family="Helvetica,sans-Serif" font-size="10.00">boost/type_traits/has</text>
<text text-anchor="middle" x="1020.69" y="-71.5" font-family="Helvetica,sans-Serif" font-size="10.00">_nothrow_constructor.hpp</text>
</g>
<!-- Node29&#45;&gt;Node31 -->
<g id="edge41" class="edge"><title>Node29&#45;&gt;Node31</title>
<path fill="none" stroke="midnightblue" d="M939.757,-130.435C952.903,-122.324 973.63,-109.535 990.817,-98.9304"/>
<polygon fill="midnightblue" stroke="midnightblue" points="992.751,-101.85 999.423,-93.6203 989.075,-95.8928 992.751,-101.85"/>
</g>
<!-- Node32 -->
<g id="node33" class="node"><title>Node32</title>
<polygon fill="white" stroke="#bfbfbf" points="1104.51,-70.5 1104.51,-88.5 1148.86,-88.5 1148.86,-70.5 1104.51,-70.5"/>
<text text-anchor="middle" x="1126.69" y="-76.5" font-family="Helvetica,sans-Serif" font-size="10.00">iosfwd</text>
</g>
<!-- Node29&#45;&gt;Node32 -->
<g id="edge44" class="edge"><title>Node29&#45;&gt;Node32</title>
<path fill="none" stroke="midnightblue" d="M963.767,-130.463C998.338,-122.566 1051.12,-109.471 1095.69,-94 1097.11,-93.5067 1098.56,-92.977 1100.01,-92.4229"/>
<polygon fill="midnightblue" stroke="midnightblue" points="1101.56,-95.5692 1109.49,-88.5445 1098.91,-89.09 1101.56,-95.5692"/>
</g>
<!-- Node34&#45;&gt;Node14 -->
<g id="edge52" class="edge"><title>Node34&#45;&gt;Node14</title>
<path fill="none" stroke="midnightblue" d="M1141.05,-190.435C1118.48,-180.665 1080.22,-164.105 1054,-152.754"/>
<polygon fill="midnightblue" stroke="midnightblue" points="1055.16,-149.443 1044.59,-148.683 1052.38,-155.867 1055.16,-149.443"/>
</g>
<!-- Node36 -->
<g id="node37" class="node"><title>Node36</title>
<polygon fill="white" stroke="#bfbfbf" points="1287.63,-190.5 1287.63,-208.5 1339.74,-208.5 1339.74,-190.5 1287.63,-190.5"/>
<text text-anchor="middle" x="1313.69" y="-196.5" font-family="Helvetica,sans-Serif" font-size="10.00">memory</text>
</g>
<!-- Node35&#45;&gt;Node36 -->
<g id="edge54" class="edge"><title>Node35&#45;&gt;Node36</title>
<path fill="none" stroke="midnightblue" d="M1236.2,-250.435C1250.76,-241.052 1275.04,-225.408 1292.54,-214.128"/>
<polygon fill="midnightblue" stroke="midnightblue" points="1294.48,-217.042 1300.99,-208.683 1290.69,-211.158 1294.48,-217.042"/>
</g>
</g>
</svg>
