<?xml version="1.0" encoding="UTF-8" standalone="no"?>
<!DOCTYPE svg PUBLIC "-//W3C//DTD SVG 1.1//EN"
 "http://www.w3.org/Graphics/SVG/1.1/DTD/svg11.dtd">
<!-- Generated by graphviz version 2.38.0 (20140413.2041)
 -->
<!-- Title: gocra::gOcraContactTaskManager Pages: 1 -->
<svg width="1082pt" height="272pt"
 viewBox="0.00 0.00 1082.22 272.00" xmlns="http://www.w3.org/2000/svg" xmlns:xlink="http://www.w3.org/1999/xlink">
<g id="graph0" class="graph" transform="scale(1 1) rotate(0) translate(4 268)">
<title>gocra::gOcraContactTaskManager</title>
<polygon fill="white" stroke="none" points="-4,4 -4,-268 1078.22,-268 1078.22,4 -4,4"/>
<!-- Node2 -->
<g id="node1" class="node"><title>Node2</title>
<polygon fill="#bfbfbf" stroke="black" points="905.924,-33.5 905.924,-51.5 1074.22,-51.5 1074.22,-33.5 905.924,-33.5"/>
<text text-anchor="middle" x="990.071" y="-39.5" font-family="Helvetica,sans-Serif" font-size="10.00">gocra::gOcraContactTaskManager</text>
</g>
<!-- Node3 -->
<g id="node2" class="node"><title>Node3</title>
<g id="a_node2"><a xlink:href="../../d5/d16/classgocra_1_1gOcraTaskManagerBase.html" target="_top" xlink:title="Task Manager for the Center of Mass (CoM) task with the gOcra Controllers. ">
<polygon fill="white" stroke="black" points="712.299,-33.5 712.299,-51.5 868.924,-51.5 868.924,-33.5 712.299,-33.5"/>
<text text-anchor="middle" x="790.611" y="-39.5" font-family="Helvetica,sans-Serif" font-size="10.00">gocra::gOcraTaskManagerBase</text>
</a>
</g>
</g>
<!-- Node3&#45;&gt;Node2 -->
<g id="edge1" class="edge"><title>Node3&#45;&gt;Node2</title>
<path fill="none" stroke="midnightblue" d="M879.293,-42.5C888.047,-42.5 896.92,-42.5 905.629,-42.5"/>
<polygon fill="midnightblue" stroke="midnightblue" points="879.086,-39.0001 869.086,-42.5 879.086,-46.0001 879.086,-39.0001"/>
</g>
<!-- Node4 -->
<g id="node3" class="node"><title>Node4</title>
<g id="a_node3"><a xlink:href="../../d4/d00/classocra_1_1Model.html" target="_top" xlink:title="Model class. ">
<polygon fill="white" stroke="black" points="550.536,-51.5 550.536,-69.5 618.782,-69.5 618.782,-51.5 550.536,-51.5"/>
<text text-anchor="middle" x="584.659" y="-57.5" font-family="Helvetica,sans-Serif" font-size="10.00">ocra::Model</text>
</a>
</g>
</g>
<!-- Node4&#45;&gt;Node3 -->
<g id="edge2" class="edge"><title>Node4&#45;&gt;Node3</title>
<path fill="none" stroke="#9a32cd" stroke-dasharray="5,2" d="M629.107,-56.6654C653.182,-54.5407 683.836,-51.8352 711.891,-49.3593"/>
<polygon fill="#9a32cd" stroke="#9a32cd" points="628.535,-53.2023 618.881,-57.5679 629.15,-60.1751 628.535,-53.2023"/>
<text text-anchor="middle" x="679.292" y="-55.5" font-family="Helvetica,sans-Serif" font-size="10.00"> model</text>
</g>
<!-- Node5 -->
<g id="node4" class="node"><title>Node5</title>
<g id="a_node4"><a xlink:href="../../d3/d16/classocra_1_1ObserverSubject.html" target="_top" xlink:title="ocra::ObserverSubject">
<polygon fill="white" stroke="black" points="370.546,-89.5 370.546,-107.5 486.033,-107.5 486.033,-89.5 370.546,-89.5"/>
<text text-anchor="middle" x="428.29" y="-95.5" font-family="Helvetica,sans-Serif" font-size="10.00">ocra::ObserverSubject</text>
</a>
</g>
</g>
<!-- Node5&#45;&gt;Node4 -->
<g id="edge3" class="edge"><title>Node5&#45;&gt;Node4</title>
<path fill="none" stroke="midnightblue" d="M475.861,-87.0359C499.922,-81.1129 528.72,-74.024 550.495,-68.6636"/>
<polygon fill="midnightblue" stroke="midnightblue" points="474.746,-83.7056 465.873,-89.4945 476.42,-90.5027 474.746,-83.7056"/>
</g>
<!-- Node6 -->
<g id="node5" class="node"><title>Node6</title>
<g id="a_node5"><a xlink:href="../../d2/d45/classocra_1_1Observer.html" target="_top" xlink:title="ocra::Observer">
<polygon fill="white" stroke="black" points="236.955,-169.5 236.955,-187.5 319.088,-187.5 319.088,-169.5 236.955,-169.5"/>
<text text-anchor="middle" x="278.021" y="-175.5" font-family="Helvetica,sans-Serif" font-size="10.00">ocra::Observer</text>
</a>
</g>
</g>
<!-- Node6&#45;&gt;Node5 -->
<g id="edge4" class="edge"><title>Node6&#45;&gt;Node5</title>
<path fill="none" stroke="midnightblue" d="M304.863,-164.557C335.19,-148.193 384.606,-121.53 410.403,-107.611"/>
<polygon fill="midnightblue" stroke="midnightblue" points="302.88,-161.65 295.742,-169.478 306.204,-167.81 302.88,-161.65"/>
</g>
<!-- Node7 -->
<g id="node6" class="node"><title>Node7</title>
<g id="a_node6"><a xlink:href="../../d4/dee/classocra_1_1ObserverBase.html" target="_top" xlink:title="ocra::ObserverBase\l\&lt; EVT_RESIZE \&gt;">
<polygon fill="white" stroke="black" points="40.2856,-235.5 40.2856,-263.5 145.211,-263.5 145.211,-235.5 40.2856,-235.5"/>
<text text-anchor="start" x="48.2856" y="-251.5" font-family="Helvetica,sans-Serif" font-size="10.00">ocra::ObserverBase</text>
<text text-anchor="middle" x="92.7485" y="-241.5" font-family="Helvetica,sans-Serif" font-size="10.00">&lt; EVT_RESIZE &gt;</text>
</a>
</g>
</g>
<!-- Node7&#45;&gt;Node6 -->
<g id="edge5" class="edge"><title>Node7&#45;&gt;Node6</title>
<path fill="none" stroke="midnightblue" d="M155.13,-236.265C165.399,-233.441 175.846,-230.18 185.497,-226.5 213.829,-215.696 244.641,-198.238 262.311,-187.62"/>
<polygon fill="midnightblue" stroke="midnightblue" points="154.147,-232.905 145.37,-238.839 155.932,-239.673 154.147,-232.905"/>
</g>
<!-- Node8 -->
<g id="node7" class="node"><title>Node8</title>
<g id="a_node7"><a xlink:href="../../d4/dee/classocra_1_1ObserverBase.html" target="_top" xlink:title="ocra::ObserverBase\l\&lt; EVT_CHANGE_DEPENDENCIES \&gt;">
<polygon fill="white" stroke="black" points="0,-188.5 0,-216.5 185.497,-216.5 185.497,-188.5 0,-188.5"/>
<text text-anchor="start" x="8" y="-204.5" font-family="Helvetica,sans-Serif" font-size="10.00">ocra::ObserverBase</text>
<text text-anchor="middle" x="92.7485" y="-194.5" font-family="Helvetica,sans-Serif" font-size="10.00">&lt; EVT_CHANGE_DEPENDENCIES &gt;</text>
</a>
</g>
</g>
<!-- Node8&#45;&gt;Node6 -->
<g id="edge6" class="edge"><title>Node8&#45;&gt;Node6</title>
<path fill="none" stroke="midnightblue" d="M195.782,-189.139C210.356,-187.23 224.575,-185.368 236.939,-183.749"/>
<polygon fill="midnightblue" stroke="midnightblue" points="195.114,-185.696 185.653,-190.465 196.023,-192.637 195.114,-185.696"/>
</g>
<!-- Node9 -->
<g id="node8" class="node"><title>Node9</title>
<g id="a_node8"><a xlink:href="../../d4/dee/classocra_1_1ObserverBase.html" target="_top" xlink:title="ocra::ObserverBase\l\&lt; EVT_CHANGE_VALUE \&gt;">
<polygon fill="white" stroke="black" points="23.4253,-141.5 23.4253,-169.5 162.072,-169.5 162.072,-141.5 23.4253,-141.5"/>
<text text-anchor="start" x="31.4253" y="-157.5" font-family="Helvetica,sans-Serif" font-size="10.00">ocra::ObserverBase</text>
<text text-anchor="middle" x="92.7485" y="-147.5" font-family="Helvetica,sans-Serif" font-size="10.00">&lt; EVT_CHANGE_VALUE &gt;</text>
</a>
</g>
</g>
<!-- Node9&#45;&gt;Node6 -->
<g id="edge7" class="edge"><title>Node9&#45;&gt;Node6</title>
<path fill="none" stroke="midnightblue" d="M172.371,-165.367C194.594,-168.156 217.859,-171.075 236.795,-173.452"/>
<polygon fill="midnightblue" stroke="midnightblue" points="172.611,-161.87 162.253,-164.097 171.74,-168.815 172.611,-161.87"/>
</g>
<!-- Node10 -->
<g id="node9" class="node"><title>Node10</title>
<g id="a_node9"><a xlink:href="../../dc/d77/classocra_1_1Subject.html" target="_top" xlink:title="ocra::Subject">
<polygon fill="white" stroke="black" points="240.839,-75.5 240.839,-93.5 315.204,-93.5 315.204,-75.5 240.839,-75.5"/>
<text text-anchor="middle" x="278.021" y="-81.5" font-family="Helvetica,sans-Serif" font-size="10.00">ocra::Subject</text>
</a>
</g>
</g>
<!-- Node10&#45;&gt;Node5 -->
<g id="edge8" class="edge"><title>Node10&#45;&gt;Node5</title>
<path fill="none" stroke="midnightblue" d="M325.344,-88.8739C339.588,-90.2189 355.434,-91.7151 370.306,-93.1194"/>
<polygon fill="midnightblue" stroke="midnightblue" points="325.577,-85.3804 315.292,-87.9248 324.919,-92.3494 325.577,-85.3804"/>
</g>
<!-- Node11 -->
<g id="node10" class="node"><title>Node11</title>
<g id="a_node10"><a xlink:href="../../dc/d29/classocra_1_1SubjectBase.html" target="_top" xlink:title="ocra::SubjectBase\&lt;\l EVT_RESIZE \&gt;">
<polygon fill="white" stroke="black" points="41.25,-94.5 41.25,-122.5 144.247,-122.5 144.247,-94.5 41.25,-94.5"/>
<text text-anchor="start" x="49.25" y="-110.5" font-family="Helvetica,sans-Serif" font-size="10.00">ocra::SubjectBase&lt;</text>
<text text-anchor="middle" x="92.7485" y="-100.5" font-family="Helvetica,sans-Serif" font-size="10.00"> EVT_RESIZE &gt;</text>
</a>
</g>
</g>
<!-- Node11&#45;&gt;Node10 -->
<g id="edge9" class="edge"><title>Node11&#45;&gt;Node10</title>
<path fill="none" stroke="midnightblue" d="M154.577,-100.534C183.052,-96.8055 216.018,-92.4885 240.566,-89.2739"/>
<polygon fill="midnightblue" stroke="midnightblue" points="153.775,-97.1095 144.314,-101.878 154.684,-104.05 153.775,-97.1095"/>
</g>
<!-- Node12 -->
<g id="node11" class="node"><title>Node12</title>
<g id="a_node11"><a xlink:href="../../dc/d29/classocra_1_1SubjectBase.html" target="_top" xlink:title="ocra::SubjectBase\&lt;\l EVT_CHANGE_DEPENDENCIES \&gt;">
<polygon fill="white" stroke="black" points="2.91992,-47.5 2.91992,-75.5 182.577,-75.5 182.577,-47.5 2.91992,-47.5"/>
<text text-anchor="start" x="10.9199" y="-63.5" font-family="Helvetica,sans-Serif" font-size="10.00">ocra::SubjectBase&lt;</text>
<text text-anchor="middle" x="92.7485" y="-53.5" font-family="Helvetica,sans-Serif" font-size="10.00"> EVT_CHANGE_DEPENDENCIES &gt;</text>
</a>
</g>
</g>
<!-- Node12&#45;&gt;Node10 -->
<g id="edge10" class="edge"><title>Node12&#45;&gt;Node10</title>
<path fill="none" stroke="midnightblue" d="M192.752,-73.9245C209.787,-76.0623 226.48,-78.1573 240.456,-79.9112"/>
<polygon fill="midnightblue" stroke="midnightblue" points="193.059,-70.4356 182.701,-72.6631 192.187,-77.3812 193.059,-70.4356"/>
</g>
<!-- Node13 -->
<g id="node12" class="node"><title>Node13</title>
<g id="a_node12"><a xlink:href="../../dc/d29/classocra_1_1SubjectBase.html" target="_top" xlink:title="ocra::SubjectBase\&lt;\l EVT_CHANGE_VALUE \&gt;">
<polygon fill="white" stroke="black" points="26.3452,-0.5 26.3452,-28.5 159.152,-28.5 159.152,-0.5 26.3452,-0.5"/>
<text text-anchor="start" x="34.3452" y="-16.5" font-family="Helvetica,sans-Serif" font-size="10.00">ocra::SubjectBase&lt;</text>
<text text-anchor="middle" x="92.7485" y="-6.5" font-family="Helvetica,sans-Serif" font-size="10.00"> EVT_CHANGE_VALUE &gt;</text>
</a>
</g>
</g>
<!-- Node13&#45;&gt;Node10 -->
<g id="edge11" class="edge"><title>Node13&#45;&gt;Node10</title>
<path fill="none" stroke="midnightblue" d="M169.12,-30.7362C174.759,-32.7532 180.279,-35.0004 185.497,-37.5 204.096,-46.409 204.316,-55.7662 222.497,-65.5 229.744,-69.3798 237.942,-72.7235 245.739,-75.4765"/>
<polygon fill="midnightblue" stroke="midnightblue" points="170.141,-27.3876 159.548,-27.5552 167.934,-34.0304 170.141,-27.3876"/>
</g>
<!-- Node14 -->
<g id="node13" class="node"><title>Node14</title>
<g id="a_node13"><a xlink:href="../../db/de3/classocra_1_1NamedInstance.html" target="_top" xlink:title="ocra::NamedInstance">
<polygon fill="white" stroke="black" points="222.497,-38.5 222.497,-56.5 333.546,-56.5 333.546,-38.5 222.497,-38.5"/>
<text text-anchor="middle" x="278.021" y="-44.5" font-family="Helvetica,sans-Serif" font-size="10.00">ocra::NamedInstance</text>
</a>
</g>
</g>
<!-- Node14&#45;&gt;Node4 -->
<g id="edge12" class="edge"><title>Node14&#45;&gt;Node4</title>
<path fill="none" stroke="midnightblue" d="M344.117,-50.2779C407.441,-52.9801 501.102,-56.977 550.45,-59.0829"/>
<polygon fill="midnightblue" stroke="midnightblue" points="343.977,-46.7688 333.836,-49.8392 343.678,-53.7624 343.977,-46.7688"/>
</g>
<!-- Node16 -->
<g id="node15" class="node"><title>Node16</title>
<g id="a_node15"><a xlink:href="../../d8/d92/classocra_1_1Controller.html" target="_top" xlink:title="Interface for controllers. ">
<polygon fill="white" stroke="black" points="386.11,-13.5 386.11,-31.5 470.469,-31.5 470.469,-13.5 386.11,-13.5"/>
<text text-anchor="middle" x="428.29" y="-19.5" font-family="Helvetica,sans-Serif" font-size="10.00">ocra::Controller</text>
</a>
</g>
</g>
<!-- Node14&#45;&gt;Node16 -->
<g id="edge15" class="edge"><title>Node14&#45;&gt;Node16</title>
<path fill="none" stroke="midnightblue" d="M342.589,-36.7816C357.263,-34.3074 372.501,-31.7381 385.939,-29.4722"/>
<polygon fill="midnightblue" stroke="midnightblue" points="341.829,-33.3604 332.55,-38.4744 342.992,-40.263 341.829,-33.3604"/>
</g>
<!-- Node15 -->
<g id="node14" class="node"><title>Node15</title>
<g id="a_node14"><a xlink:href="../../d6/dbf/classgocra_1_1GHCJTController.html" target="_top" xlink:title="gOcra Controller based on LQP solver for the ocra framework. ">
<polygon fill="white" stroke="black" points="523.033,-14.5 523.033,-32.5 646.284,-32.5 646.284,-14.5 523.033,-14.5"/>
<text text-anchor="middle" x="584.659" y="-20.5" font-family="Helvetica,sans-Serif" font-size="10.00">gocra::GHCJTController</text>
</a>
</g>
</g>
<!-- Node15&#45;&gt;Node3 -->
<g id="edge13" class="edge"><title>Node15&#45;&gt;Node3</title>
<path fill="none" stroke="#9a32cd" stroke-dasharray="5,2" d="M656.421,-30.0921C674.417,-31.7687 693.849,-33.5789 712.16,-35.2847"/>
<polygon fill="#9a32cd" stroke="#9a32cd" points="656.581,-26.5919 646.299,-29.1492 655.931,-33.5618 656.581,-26.5919"/>
<text text-anchor="middle" x="679.292" y="-36.5" font-family="Helvetica,sans-Serif" font-size="10.00"> ctrl</text>
</g>
<!-- Node16&#45;&gt;Node15 -->
<g id="edge14" class="edge"><title>Node16&#45;&gt;Node15</title>
<path fill="none" stroke="midnightblue" d="M480.751,-22.8334C494.297,-22.9211 509.035,-23.0166 523.015,-23.1072"/>
<polygon fill="midnightblue" stroke="midnightblue" points="480.68,-19.3329 470.658,-22.768 480.635,-26.3328 480.68,-19.3329"/>
</g>
<!-- Node17 -->
<g id="node16" class="node"><title>Node17</title>
<polygon fill="white" stroke="#bfbfbf" points="241.665,-1.5 241.665,-19.5 314.378,-19.5 314.378,-1.5 241.665,-1.5"/>
<text text-anchor="middle" x="278.021" y="-7.5" font-family="Helvetica,sans-Serif" font-size="10.00">noncopyable</text>
</g>
<!-- Node17&#45;&gt;Node16 -->
<g id="edge16" class="edge"><title>Node17&#45;&gt;Node16</title>
<path fill="none" stroke="#8b1a1a" d="M324.743,-14.2004C344.306,-15.7838 366.98,-17.6189 386.025,-19.1603"/>
<polygon fill="#8b1a1a" stroke="#8b1a1a" points="324.785,-10.6925 314.535,-13.3743 324.22,-17.6697 324.785,-10.6925"/>
</g>
</g>
</svg>
