<?xml version="1.0" encoding="UTF-8" standalone="no"?>
<!DOCTYPE svg PUBLIC "-//W3C//DTD SVG 1.1//EN"
 "http://www.w3.org/Graphics/SVG/1.1/DTD/svg11.dtd">
<!-- Generated by graphviz version 2.38.0 (20140413.2041)
 -->
<!-- Title: ocra::Objective&lt; Function &gt; Pages: 1 -->
<svg width="1211pt" height="445pt"
 viewBox="0.00 0.00 1210.67 445.00" xmlns="http://www.w3.org/2000/svg" xmlns:xlink="http://www.w3.org/1999/xlink">
<g id="graph0" class="graph" transform="scale(1 1) rotate(0) translate(4 441)">
<title>ocra::Objective&lt; Function &gt;</title>
<polygon fill="white" stroke="none" points="-4,4 -4,-441 1206.67,-441 1206.67,4 -4,4"/>
<!-- Node2 -->
<g id="node1" class="node"><title>Node2</title>
<polygon fill="#bfbfbf" stroke="black" points="1064.38,-173.5 1064.38,-191.5 1202.67,-191.5 1202.67,-173.5 1064.38,-173.5"/>
<text text-anchor="middle" x="1133.52" y="-179.5" font-family="Helvetica,sans-Serif" font-size="10.00">ocra::Objective&lt; Function &gt;</text>
</g>
<!-- Node3 -->
<g id="node2" class="node"><title>Node3</title>
<g id="a_node2"><a xlink:href="../../d1/d29/structocra_1_1FunctionInterfaceMapping.html" target="_top" xlink:title="ocra::FunctionInterfaceMapping\l\&lt; Objective\&lt; Function \&gt; \&gt;">
<polygon fill="white" stroke="black" points="828.383,-185.5 828.383,-213.5 985.018,-213.5 985.018,-185.5 828.383,-185.5"/>
<text text-anchor="start" x="836.383" y="-201.5" font-family="Helvetica,sans-Serif" font-size="10.00">ocra::FunctionInterfaceMapping</text>
<text text-anchor="middle" x="906.7" y="-191.5" font-family="Helvetica,sans-Serif" font-size="10.00">&lt; Objective&lt; Function &gt; &gt;</text>
</a>
</g>
</g>
<!-- Node3&#45;&gt;Node2 -->
<g id="edge1" class="edge"><title>Node3&#45;&gt;Node2</title>
<path fill="none" stroke="midnightblue" d="M995.116,-192.89C1017.99,-191.161 1042.31,-189.322 1064.03,-187.679"/>
<polygon fill="midnightblue" stroke="midnightblue" points="994.78,-189.405 985.072,-193.65 995.307,-196.386 994.78,-189.405"/>
</g>
<!-- Node4 -->
<g id="node3" class="node"><title>Node4</title>
<g id="a_node3"><a xlink:href="../../d2/d99/classocra_1_1Function.html" target="_top" xlink:title="Function class. ">
<polygon fill="white" stroke="black" points="867.018,-148.5 867.018,-166.5 946.382,-166.5 946.382,-148.5 867.018,-148.5"/>
<text text-anchor="middle" x="906.7" y="-154.5" font-family="Helvetica,sans-Serif" font-size="10.00">ocra::Function</text>
</a>
</g>
</g>
<!-- Node4&#45;&gt;Node2 -->
<g id="edge2" class="edge"><title>Node4&#45;&gt;Node2</title>
<path fill="none" stroke="#9a32cd" stroke-dasharray="5,2" d="M956.869,-162.967C988.309,-166.464 1029.53,-171.048 1064.15,-174.896"/>
<polygon fill="#9a32cd" stroke="#9a32cd" points="956.931,-159.453 946.605,-161.826 956.157,-166.41 956.931,-159.453"/>
<text text-anchor="middle" x="1024.7" y="-174.5" font-family="Helvetica,sans-Serif" font-size="10.00"> _function</text>
</g>
<!-- Node5 -->
<g id="node4" class="node"><title>Node5</title>
<g id="a_node4"><a xlink:href="../../d3/d16/classocra_1_1ObserverSubject.html" target="_top" xlink:title="ocra::ObserverSubject">
<polygon fill="white" stroke="black" points="386.068,-274.5 386.068,-292.5 501.556,-292.5 501.556,-274.5 386.068,-274.5"/>
<text text-anchor="middle" x="443.812" y="-280.5" font-family="Helvetica,sans-Serif" font-size="10.00">ocra::ObserverSubject</text>
</a>
</g>
</g>
<!-- Node5&#45;&gt;Node4 -->
<g id="edge3" class="edge"><title>Node5&#45;&gt;Node4</title>
<path fill="none" stroke="midnightblue" d="M511.68,-287.407C574.147,-288.932 669.156,-285.745 746.792,-259.5 778.649,-248.731 788.789,-244.279 810.383,-218.5 823.687,-202.618 812.557,-188.871 828.383,-175.5 839.016,-166.516 853.293,-161.819 866.685,-159.425"/>
<polygon fill="midnightblue" stroke="midnightblue" points="511.656,-283.905 501.558,-287.112 511.452,-290.902 511.656,-283.905"/>
</g>
<!-- Node21 -->
<g id="node20" class="node"><title>Node21</title>
<g id="a_node20"><a xlink:href="../../d2/dac/classocra_1_1Variable.html" target="_top" xlink:title="This class represents a variable in a mathematical sense. ">
<polygon fill="white" stroke="black" points="626.412,-320.5 626.412,-338.5 703.374,-338.5 703.374,-320.5 626.412,-320.5"/>
<text text-anchor="middle" x="664.893" y="-326.5" font-family="Helvetica,sans-Serif" font-size="10.00">ocra::Variable</text>
</a>
</g>
</g>
<!-- Node5&#45;&gt;Node21 -->
<g id="edge21" class="edge"><title>Node5&#45;&gt;Node21</title>
<path fill="none" stroke="midnightblue" d="M501.549,-294.488C516.052,-297.359 531.611,-300.493 545.994,-303.5 572.871,-309.119 603.114,-315.796 626.24,-320.976"/>
<polygon fill="midnightblue" stroke="midnightblue" points="502.192,-291.047 491.704,-292.547 500.838,-297.915 502.192,-291.047"/>
</g>
<!-- Node6 -->
<g id="node5" class="node"><title>Node6</title>
<g id="a_node5"><a xlink:href="../../d2/d45/classocra_1_1Observer.html" target="_top" xlink:title="ocra::Observer">
<polygon fill="white" stroke="black" points="222.497,-342.5 222.497,-360.5 304.63,-360.5 304.63,-342.5 222.497,-342.5"/>
<text text-anchor="middle" x="263.563" y="-348.5" font-family="Helvetica,sans-Serif" font-size="10.00">ocra::Observer</text>
</a>
</g>
</g>
<!-- Node6&#45;&gt;Node5 -->
<g id="edge4" class="edge"><title>Node6&#45;&gt;Node5</title>
<path fill="none" stroke="midnightblue" d="M284.539,-336.224C299.495,-325.514 320.869,-311.698 341.63,-303.5 355.537,-298.008 371.136,-293.971 385.844,-291.024"/>
<polygon fill="midnightblue" stroke="midnightblue" points="282.103,-333.67 276.118,-342.413 286.249,-339.311 282.103,-333.67"/>
</g>
<!-- Node7 -->
<g id="node6" class="node"><title>Node7</title>
<g id="a_node6"><a xlink:href="../../d4/dee/classocra_1_1ObserverBase.html" target="_top" xlink:title="ocra::ObserverBase\l\&lt; EVT_RESIZE \&gt;">
<polygon fill="white" stroke="black" points="40.2856,-408.5 40.2856,-436.5 145.211,-436.5 145.211,-408.5 40.2856,-408.5"/>
<text text-anchor="start" x="48.2856" y="-424.5" font-family="Helvetica,sans-Serif" font-size="10.00">ocra::ObserverBase</text>
<text text-anchor="middle" x="92.7485" y="-414.5" font-family="Helvetica,sans-Serif" font-size="10.00">&lt; EVT_RESIZE &gt;</text>
</a>
</g>
</g>
<!-- Node7&#45;&gt;Node6 -->
<g id="edge5" class="edge"><title>Node7&#45;&gt;Node6</title>
<path fill="none" stroke="midnightblue" d="M155.334,-409.047C165.579,-406.058 175.966,-402.549 185.497,-398.5 209.873,-388.144 235.651,-370.978 250.357,-360.507"/>
<polygon fill="midnightblue" stroke="midnightblue" points="154.285,-405.705 145.586,-411.754 156.158,-412.45 154.285,-405.705"/>
</g>
<!-- Node8 -->
<g id="node7" class="node"><title>Node8</title>
<g id="a_node7"><a xlink:href="../../d4/dee/classocra_1_1ObserverBase.html" target="_top" xlink:title="ocra::ObserverBase\l\&lt; EVT_CHANGE_DEPENDENCIES \&gt;">
<polygon fill="white" stroke="black" points="0,-361.5 0,-389.5 185.497,-389.5 185.497,-361.5 0,-361.5"/>
<text text-anchor="start" x="8" y="-377.5" font-family="Helvetica,sans-Serif" font-size="10.00">ocra::ObserverBase</text>
<text text-anchor="middle" x="92.7485" y="-367.5" font-family="Helvetica,sans-Serif" font-size="10.00">&lt; EVT_CHANGE_DEPENDENCIES &gt;</text>
</a>
</g>
</g>
<!-- Node8&#45;&gt;Node6 -->
<g id="edge6" class="edge"><title>Node8&#45;&gt;Node6</title>
<path fill="none" stroke="midnightblue" d="M195.725,-361.002C205,-359.684 213.979,-358.407 222.187,-357.24"/>
<polygon fill="midnightblue" stroke="midnightblue" points="194.974,-357.574 185.566,-362.447 195.959,-364.504 194.974,-357.574"/>
</g>
<!-- Node9 -->
<g id="node8" class="node"><title>Node9</title>
<g id="a_node8"><a xlink:href="../../d4/dee/classocra_1_1ObserverBase.html" target="_top" xlink:title="ocra::ObserverBase\l\&lt; EVT_CHANGE_VALUE \&gt;">
<polygon fill="white" stroke="black" points="23.4253,-314.5 23.4253,-342.5 162.072,-342.5 162.072,-314.5 23.4253,-314.5"/>
<text text-anchor="start" x="31.4253" y="-330.5" font-family="Helvetica,sans-Serif" font-size="10.00">ocra::ObserverBase</text>
<text text-anchor="middle" x="92.7485" y="-320.5" font-family="Helvetica,sans-Serif" font-size="10.00">&lt; EVT_CHANGE_VALUE &gt;</text>
</a>
</g>
</g>
<!-- Node9&#45;&gt;Node6 -->
<g id="edge7" class="edge"><title>Node9&#45;&gt;Node6</title>
<path fill="none" stroke="midnightblue" d="M172.466,-339.225C189.64,-341.565 207.13,-343.948 222.074,-345.984"/>
<polygon fill="midnightblue" stroke="midnightblue" points="172.793,-335.737 162.412,-337.855 171.848,-342.673 172.793,-335.737"/>
</g>
<!-- Node10 -->
<g id="node9" class="node"><title>Node10</title>
<g id="a_node9"><a xlink:href="../../dc/d77/classocra_1_1Subject.html" target="_top" xlink:title="ocra::Subject">
<polygon fill="white" stroke="black" points="226.381,-245.5 226.381,-263.5 300.746,-263.5 300.746,-245.5 226.381,-245.5"/>
<text text-anchor="middle" x="263.563" y="-251.5" font-family="Helvetica,sans-Serif" font-size="10.00">ocra::Subject</text>
</a>
</g>
</g>
<!-- Node10&#45;&gt;Node5 -->
<g id="edge8" class="edge"><title>Node10&#45;&gt;Node5</title>
<path fill="none" stroke="midnightblue" d="M311.07,-262.066C334.43,-265.867 362.898,-270.499 387.386,-274.483"/>
<polygon fill="midnightblue" stroke="midnightblue" points="311.497,-258.59 301.065,-260.439 310.373,-265.499 311.497,-258.59"/>
</g>
<!-- Node11 -->
<g id="node10" class="node"><title>Node11</title>
<g id="a_node10"><a xlink:href="../../dc/d29/classocra_1_1SubjectBase.html" target="_top" xlink:title="ocra::SubjectBase\&lt;\l EVT_RESIZE \&gt;">
<polygon fill="white" stroke="black" points="41.25,-267.5 41.25,-295.5 144.247,-295.5 144.247,-267.5 41.25,-267.5"/>
<text text-anchor="start" x="49.25" y="-283.5" font-family="Helvetica,sans-Serif" font-size="10.00">ocra::SubjectBase&lt;</text>
<text text-anchor="middle" x="92.7485" y="-273.5" font-family="Helvetica,sans-Serif" font-size="10.00"> EVT_RESIZE &gt;</text>
</a>
</g>
</g>
<!-- Node11&#45;&gt;Node10 -->
<g id="edge9" class="edge"><title>Node11&#45;&gt;Node10</title>
<path fill="none" stroke="midnightblue" d="M154.489,-271.785C178.489,-267.947 205.266,-263.664 226.162,-260.322"/>
<polygon fill="midnightblue" stroke="midnightblue" points="153.72,-268.364 144.399,-273.399 154.826,-275.276 153.72,-268.364"/>
</g>
<!-- Node12 -->
<g id="node11" class="node"><title>Node12</title>
<g id="a_node11"><a xlink:href="../../dc/d29/classocra_1_1SubjectBase.html" target="_top" xlink:title="ocra::SubjectBase\&lt;\l EVT_CHANGE_DEPENDENCIES \&gt;">
<polygon fill="white" stroke="black" points="2.91992,-220.5 2.91992,-248.5 182.577,-248.5 182.577,-220.5 2.91992,-220.5"/>
<text text-anchor="start" x="10.9199" y="-236.5" font-family="Helvetica,sans-Serif" font-size="10.00">ocra::SubjectBase&lt;</text>
<text text-anchor="middle" x="92.7485" y="-226.5" font-family="Helvetica,sans-Serif" font-size="10.00"> EVT_CHANGE_DEPENDENCIES &gt;</text>
</a>
</g>
</g>
<!-- Node12&#45;&gt;Node10 -->
<g id="edge10" class="edge"><title>Node12&#45;&gt;Node10</title>
<path fill="none" stroke="midnightblue" d="M192.668,-246.219C204.562,-247.628 216.06,-248.991 226.178,-250.189"/>
<polygon fill="midnightblue" stroke="midnightblue" points="192.948,-242.728 182.605,-245.027 192.124,-249.679 192.948,-242.728"/>
</g>
<!-- Node13 -->
<g id="node12" class="node"><title>Node13</title>
<g id="a_node12"><a xlink:href="../../dc/d29/classocra_1_1SubjectBase.html" target="_top" xlink:title="ocra::SubjectBase\&lt;\l EVT_CHANGE_VALUE \&gt;">
<polygon fill="white" stroke="black" points="26.3452,-173.5 26.3452,-201.5 159.152,-201.5 159.152,-173.5 26.3452,-173.5"/>
<text text-anchor="start" x="34.3452" y="-189.5" font-family="Helvetica,sans-Serif" font-size="10.00">ocra::SubjectBase&lt;</text>
<text text-anchor="middle" x="92.7485" y="-179.5" font-family="Helvetica,sans-Serif" font-size="10.00"> EVT_CHANGE_VALUE &gt;</text>
</a>
</g>
</g>
<!-- Node13&#45;&gt;Node10 -->
<g id="edge11" class="edge"><title>Node13&#45;&gt;Node10</title>
<path fill="none" stroke="midnightblue" d="M168.784,-204.498C174.5,-206.342 180.129,-208.342 185.497,-210.5 209.084,-219.981 234.281,-235.519 249.214,-245.367"/>
<polygon fill="midnightblue" stroke="midnightblue" points="169.7,-201.119 159.114,-201.542 167.653,-207.813 169.7,-201.119"/>
</g>
<!-- Node14 -->
<g id="node13" class="node"><title>Node14</title>
<g id="a_node13"><a xlink:href="../../dd/d68/classocra_1_1IFunctionProperties.html" target="_top" xlink:title="ocra::IFunctionProperties">
<polygon fill="white" stroke="black" points="601.034,-232.5 601.034,-250.5 728.752,-250.5 728.752,-232.5 601.034,-232.5"/>
<text text-anchor="middle" x="664.893" y="-238.5" font-family="Helvetica,sans-Serif" font-size="10.00">ocra::IFunctionProperties</text>
</a>
</g>
</g>
<!-- Node14&#45;&gt;Node4 -->
<g id="edge12" class="edge"><title>Node14&#45;&gt;Node4</title>
<path fill="none" stroke="midnightblue" d="M721.943,-229.956C730.354,-227.759 738.862,-225.267 746.792,-222.5 776.297,-212.204 784.57,-210.115 810.383,-192.5 819.472,-186.297 818.688,-180.706 828.383,-175.5 840.161,-169.176 854.114,-165.06 866.903,-162.387"/>
<polygon fill="midnightblue" stroke="midnightblue" points="721.007,-226.582 712.152,-232.4 722.702,-233.374 721.007,-226.582"/>
</g>
<!-- Node15 -->
<g id="node14" class="node"><title>Node15</title>
<polygon fill="white" stroke="#bfbfbf" points="582.994,-185.5 582.994,-213.5 746.792,-213.5 746.792,-185.5 582.994,-185.5"/>
<text text-anchor="start" x="590.994" y="-201.5" font-family="Helvetica,sans-Serif" font-size="10.00">OCRA_FUNCTION_INTERFACE</text>
<text text-anchor="middle" x="664.893" y="-191.5" font-family="Helvetica,sans-Serif" font-size="10.00">_INHERITANCEpublic</text>
</g>
<!-- Node15&#45;&gt;Node4 -->
<g id="edge13" class="edge"><title>Node15&#45;&gt;Node4</title>
<path fill="none" stroke="#8b1a1a" d="M756.225,-183.679C794.498,-176.976 837.06,-169.522 866.947,-164.287"/>
<polygon fill="#8b1a1a" stroke="#8b1a1a" points="755.325,-180.283 746.079,-185.456 756.533,-187.179 755.325,-180.283"/>
</g>
<!-- Node16 -->
<g id="node15" class="node"><title>Node16</title>
<g id="a_node15"><a xlink:href="../../db/de3/classocra_1_1NamedInstance.html" target="_top" xlink:title="ocra::NamedInstance">
<polygon fill="white" stroke="black" points="609.369,-148.5 609.369,-166.5 720.417,-166.5 720.417,-148.5 609.369,-148.5"/>
<text text-anchor="middle" x="664.893" y="-154.5" font-family="Helvetica,sans-Serif" font-size="10.00">ocra::NamedInstance</text>
</a>
</g>
</g>
<!-- Node16&#45;&gt;Node4 -->
<g id="edge14" class="edge"><title>Node16&#45;&gt;Node4</title>
<path fill="none" stroke="midnightblue" d="M730.821,-157.5C774.336,-157.5 830.181,-157.5 866.909,-157.5"/>
<polygon fill="midnightblue" stroke="midnightblue" points="730.609,-154 720.609,-157.5 730.609,-161 730.609,-154"/>
</g>
<!-- Node17 -->
<g id="node16" class="node"><title>Node17</title>
<g id="a_node16"><a xlink:href="../../d8/d24/classocra_1_1AbilitySet.html" target="_top" xlink:title="ocra::AbilitySet">
<polygon fill="white" stroke="black" points="623.546,-111.5 623.546,-129.5 706.24,-129.5 706.24,-111.5 623.546,-111.5"/>
<text text-anchor="middle" x="664.893" y="-117.5" font-family="Helvetica,sans-Serif" font-size="10.00">ocra::AbilitySet</text>
</a>
</g>
</g>
<!-- Node17&#45;&gt;Node4 -->
<g id="edge15" class="edge"><title>Node17&#45;&gt;Node4</title>
<path fill="none" stroke="midnightblue" d="M716.396,-128.292C761.219,-135.208 825.772,-145.168 866.718,-151.485"/>
<polygon fill="midnightblue" stroke="midnightblue" points="716.719,-124.801 706.302,-126.735 715.651,-131.719 716.719,-124.801"/>
</g>
<!-- Node18 -->
<g id="node17" class="node"><title>Node18</title>
<g id="a_node17"><a xlink:href="../../d5/dc0/classocra_1_1CoupledInputOutputSize.html" target="_top" xlink:title="ocra::CoupledInputOutputSize">
<polygon fill="white" stroke="black" points="589.906,-74.5 589.906,-92.5 739.88,-92.5 739.88,-74.5 589.906,-74.5"/>
<text text-anchor="middle" x="664.893" y="-80.5" font-family="Helvetica,sans-Serif" font-size="10.00">ocra::CoupledInputOutputSize</text>
</a>
</g>
</g>
<!-- Node18&#45;&gt;Node4 -->
<g id="edge16" class="edge"><title>Node18&#45;&gt;Node4</title>
<path fill="none" stroke="midnightblue" d="M720.816,-94.7868C729.55,-96.8494 738.45,-99.1115 746.792,-101.5 796.004,-115.591 852.192,-136.586 882.821,-148.461"/>
<polygon fill="midnightblue" stroke="midnightblue" points="721.595,-91.3747 711.065,-92.5467 720.027,-98.1969 721.595,-91.3747"/>
</g>
<!-- Node19 -->
<g id="node18" class="node"><title>Node19</title>
<polygon fill="white" stroke="#bfbfbf" points="636.6,-37.5 636.6,-55.5 693.186,-55.5 693.186,-37.5 636.6,-37.5"/>
<text text-anchor="middle" x="664.893" y="-43.5" font-family="Helvetica,sans-Serif" font-size="10.00">VectorXd</text>
</g>
<!-- Node19&#45;&gt;Node4 -->
<g id="edge17" class="edge"><title>Node19&#45;&gt;Node4</title>
<path fill="none" stroke="#9a32cd" stroke-dasharray="5,2" d="M703.424,-53.0435C717.244,-55.9229 732.907,-59.7461 746.792,-64.5 806.671,-85.0015 868.985,-129.423 894.147,-148.499"/>
<polygon fill="#9a32cd" stroke="#9a32cd" points="703.765,-49.5429 693.274,-51.0257 702.4,-56.4086 703.765,-49.5429"/>
<text text-anchor="middle" x="787.587" y="-93.5" font-family="Helvetica,sans-Serif" font-size="10.00"> _value</text>
</g>
<!-- Node20 -->
<g id="node19" class="node"><title>Node20</title>
<polygon fill="white" stroke="#bfbfbf" points="637.167,-0.5 637.167,-18.5 692.62,-18.5 692.62,-0.5 637.167,-0.5"/>
<text text-anchor="middle" x="664.893" y="-6.5" font-family="Helvetica,sans-Serif" font-size="10.00">MatrixXd</text>
</g>
<!-- Node20&#45;&gt;Node4 -->
<g id="edge18" class="edge"><title>Node20&#45;&gt;Node4</title>
<path fill="none" stroke="#9a32cd" stroke-dasharray="5,2" d="M703.133,-15.8802C717.036,-18.7563 732.83,-22.6196 746.792,-27.5 776.473,-37.8746 784.958,-40.0023 810.383,-58.5 848.197,-86.0116 883.982,-129.428 898.678,-148.268"/>
<polygon fill="#9a32cd" stroke="#9a32cd" points="703.42,-12.3695 692.932,-13.8727 702.068,-19.2377 703.42,-12.3695"/>
<text text-anchor="middle" x="787.587" y="-60.5" font-family="Helvetica,sans-Serif" font-size="10.00"> _jacobian</text>
</g>
<!-- Node21&#45;&gt;Node4 -->
<g id="edge19" class="edge"><title>Node21&#45;&gt;Node4</title>
<path fill="none" stroke="#9a32cd" stroke-dasharray="5,2" d="M713.708,-330.457C745.685,-328.387 786.186,-320.053 810.383,-293.5 846.115,-254.288 792.349,-214.435 828.383,-175.5 838.212,-164.879 852.985,-159.943 866.993,-157.814"/>
<polygon fill="#9a32cd" stroke="#9a32cd" points="713.484,-326.963 703.658,-330.924 713.809,-333.956 713.484,-326.963"/>
<text text-anchor="middle" x="787.587" y="-322.5" font-family="Helvetica,sans-Serif" font-size="10.00"> x</text>
</g>
<!-- Node22 -->
<g id="node21" class="node"><title>Node22</title>
<g id="a_node21"><a xlink:href="../../d0/d29/classocra_1_1Component.html" target="_top" xlink:title="ocra::Component\&lt; Variable,\l CompositeVariable, VariableParenthood \&gt;">
<polygon fill="white" stroke="black" points="341.63,-397.5 341.63,-425.5 545.994,-425.5 545.994,-397.5 341.63,-397.5"/>
<text text-anchor="start" x="349.63" y="-413.5" font-family="Helvetica,sans-Serif" font-size="10.00">ocra::Component&lt; Variable,</text>
<text text-anchor="middle" x="443.812" y="-403.5" font-family="Helvetica,sans-Serif" font-size="10.00"> CompositeVariable, VariableParenthood &gt;</text>
</a>
</g>
</g>
<!-- Node22&#45;&gt;Node21 -->
<g id="edge20" class="edge"><title>Node22&#45;&gt;Node21</title>
<path fill="none" stroke="midnightblue" d="M523.085,-394.794C530.896,-392.574 538.647,-390.141 545.994,-387.5 584.205,-373.766 626.278,-351.09 648.369,-338.547"/>
<polygon fill="midnightblue" stroke="midnightblue" points="521.914,-391.486 513.187,-397.493 523.756,-398.239 521.914,-391.486"/>
</g>
<!-- Node23 -->
<g id="node22" class="node"><title>Node23</title>
<polygon fill="white" stroke="#bfbfbf" points="407.455,-360.5 407.455,-378.5 480.169,-378.5 480.169,-360.5 407.455,-360.5"/>
<text text-anchor="middle" x="443.812" y="-366.5" font-family="Helvetica,sans-Serif" font-size="10.00">noncopyable</text>
</g>
<!-- Node23&#45;&gt;Node21 -->
<g id="edge22" class="edge"><title>Node23&#45;&gt;Node21</title>
<path fill="none" stroke="#8b1a1a" d="M490.591,-361.142C530.871,-353.787 588.795,-343.212 626.386,-336.348"/>
<polygon fill="#8b1a1a" stroke="#8b1a1a" points="489.707,-357.745 480.499,-362.984 490.965,-364.631 489.707,-357.745"/>
</g>
<!-- Node24 -->
<g id="node23" class="node"><title>Node24</title>
<g id="a_node23"><a xlink:href="../../dc/d20/classocra_1_1VariableHasRestrictedClassDerivation.html" target="_top" xlink:title="ocra::VariableHasRestricted\lClassDerivation">
<polygon fill="white" stroke="black" points="373.932,-313.5 373.932,-341.5 513.692,-341.5 513.692,-313.5 373.932,-313.5"/>
<text text-anchor="start" x="381.932" y="-329.5" font-family="Helvetica,sans-Serif" font-size="10.00">ocra::VariableHasRestricted</text>
<text text-anchor="middle" x="443.812" y="-319.5" font-family="Helvetica,sans-Serif" font-size="10.00">ClassDerivation</text>
</a>
</g>
</g>
<!-- Node24&#45;&gt;Node21 -->
<g id="edge23" class="edge"><title>Node24&#45;&gt;Node21</title>
<path fill="none" stroke="#8b1a1a" d="M523.996,-328.223C558.816,-328.541 598.079,-328.899 626.126,-329.155"/>
<polygon fill="#8b1a1a" stroke="#8b1a1a" points="523.861,-324.722 513.83,-328.13 523.798,-331.721 523.861,-324.722"/>
</g>
</g>
</svg>
