<?xml version="1.0" encoding="UTF-8" standalone="no"?>
<!DOCTYPE svg PUBLIC "-//W3C//DTD SVG 1.1//EN"
 "http://www.w3.org/Graphics/SVG/1.1/DTD/svg11.dtd">
<!-- Generated by graphviz version 2.38.0 (20140413.2041)
 -->
<!-- Title: VariableMapping.cpp Pages: 1 -->
<svg width="1275pt" height="267pt"
 viewBox="0.00 0.00 1275.03 267.00" xmlns="http://www.w3.org/2000/svg" xmlns:xlink="http://www.w3.org/1999/xlink">
<g id="graph0" class="graph" transform="scale(1 1) rotate(0) translate(4 263)">
<title>VariableMapping.cpp</title>
<polygon fill="white" stroke="none" points="-4,4 -4,-263 1271.03,-263 1271.03,4 -4,4"/>
<!-- Node0 -->
<g id="node1" class="node"><title>Node0</title>
<polygon fill="#bfbfbf" stroke="black" points="208.009,-240.5 208.009,-258.5 317.222,-258.5 317.222,-240.5 208.009,-240.5"/>
<text text-anchor="middle" x="262.616" y="-246.5" font-family="Helvetica,sans-Serif" font-size="10.00">VariableMapping.cpp</text>
</g>
<!-- Node1 -->
<g id="node2" class="node"><title>Node1</title>
<g id="a_node2"><a xlink:href="../../d9/d9e/VariableMapping_8h.html" target="_top" xlink:title="Declaration file of the VariableMapping class. ">
<polygon fill="white" stroke="black" points="80.5586,-185.5 80.5586,-203.5 228.673,-203.5 228.673,-185.5 80.5586,-185.5"/>
<text text-anchor="middle" x="154.616" y="-191.5" font-family="Helvetica,sans-Serif" font-size="10.00">ocra/optim/VariableMapping.h</text>
</a>
</g>
</g>
<!-- Node0&#45;&gt;Node1 -->
<g id="edge1" class="edge"><title>Node0&#45;&gt;Node1</title>
<path fill="none" stroke="midnightblue" d="M246.213,-240.45C228.689,-231.851 200.678,-218.105 180.241,-208.075"/>
<polygon fill="midnightblue" stroke="midnightblue" points="181.692,-204.889 171.173,-203.625 178.608,-211.173 181.692,-204.889"/>
</g>
<!-- Node3 -->
<g id="node4" class="node"><title>Node3</title>
<g id="a_node4"><a xlink:href="../../d7/d90/Variable_8h.html" target="_top" xlink:title="Declaration file of the Variable class. ">
<polygon fill="white" stroke="black" points="316.738,-185.5 316.738,-203.5 426.493,-203.5 426.493,-185.5 316.738,-185.5"/>
<text text-anchor="middle" x="371.616" y="-191.5" font-family="Helvetica,sans-Serif" font-size="10.00">ocra/optim/Variable.h</text>
</a>
</g>
</g>
<!-- Node0&#45;&gt;Node3 -->
<g id="edge3" class="edge"><title>Node0&#45;&gt;Node3</title>
<path fill="none" stroke="midnightblue" d="M279.17,-240.45C296.857,-231.851 325.127,-218.105 345.753,-208.075"/>
<polygon fill="midnightblue" stroke="midnightblue" points="347.442,-211.146 354.905,-203.625 344.381,-204.851 347.442,-211.146"/>
</g>
<!-- Node2 -->
<g id="node3" class="node"><title>Node2</title>
<polygon fill="white" stroke="#bfbfbf" points="0,-70.5 0,-88.5 43.2314,-88.5 43.2314,-70.5 0,-70.5"/>
<text text-anchor="middle" x="21.6157" y="-76.5" font-family="Helvetica,sans-Serif" font-size="10.00">vector</text>
</g>
<!-- Node1&#45;&gt;Node2 -->
<g id="edge2" class="edge"><title>Node1&#45;&gt;Node2</title>
<path fill="none" stroke="midnightblue" d="M145.051,-185.373C122.812,-166.479 67.3652,-119.37 38.9709,-95.2454"/>
<polygon fill="midnightblue" stroke="midnightblue" points="40.9811,-92.3606 31.0941,-88.553 36.4487,-97.6952 40.9811,-92.3606"/>
</g>
<!-- Node3&#45;&gt;Node2 -->
<g id="edge33" class="edge"><title>Node3&#45;&gt;Node2</title>
<path fill="none" stroke="midnightblue" d="M342.23,-185.488C285.57,-169.788 157.54,-133.079 52.6157,-94 51.2405,-93.4878 49.8382,-92.9469 48.4273,-92.3877"/>
<polygon fill="midnightblue" stroke="midnightblue" points="49.763,-89.1527 39.1856,-88.5447 47.0752,-95.6161 49.763,-89.1527"/>
</g>
<!-- Node4 -->
<g id="node5" class="node"><title>Node4</title>
<g id="a_node5"><a xlink:href="../../d8/ddc/ObserverSubject_8h.html" target="_top" xlink:title="Declaration file of the Observer, Subject and ObserverSubject classes. ">
<polygon fill="white" stroke="black" points="799.476,-130.5 799.476,-148.5 947.756,-148.5 947.756,-130.5 799.476,-130.5"/>
<text text-anchor="middle" x="873.616" y="-136.5" font-family="Helvetica,sans-Serif" font-size="10.00">ocra/optim/ObserverSubject.h</text>
</a>
</g>
</g>
<!-- Node3&#45;&gt;Node4 -->
<g id="edge4" class="edge"><title>Node3&#45;&gt;Node4</title>
<path fill="none" stroke="midnightblue" d="M426.775,-187.676C514.402,-178.425 686.027,-160.305 789.198,-149.413"/>
<polygon fill="midnightblue" stroke="midnightblue" points="789.694,-152.88 799.271,-148.349 788.959,-145.919 789.694,-152.88"/>
</g>
<!-- Node15 -->
<g id="node16" class="node"><title>Node15</title>
<g id="a_node16"><a xlink:href="../../d1/de6/Composite_8h.html" target="_top" xlink:title="Utility classes and functions to implement the Composite design pattern. ">
<polygon fill="white" stroke="black" points="409.815,-130.5 409.815,-148.5 531.416,-148.5 531.416,-130.5 409.815,-130.5"/>
<text text-anchor="middle" x="470.616" y="-136.5" font-family="Helvetica,sans-Serif" font-size="10.00">ocra/optim/Composite.h</text>
</a>
</g>
</g>
<!-- Node3&#45;&gt;Node15 -->
<g id="edge18" class="edge"><title>Node3&#45;&gt;Node15</title>
<path fill="none" stroke="midnightblue" d="M386.652,-185.45C402.57,-176.929 427.928,-163.353 446.615,-153.349"/>
<polygon fill="midnightblue" stroke="midnightblue" points="448.274,-156.431 455.438,-148.625 444.97,-150.259 448.274,-156.431"/>
</g>
<!-- Node18 -->
<g id="node19" class="node"><title>Node18</title>
<polygon fill="white" stroke="#bfbfbf" points="570.907,-70.5 570.907,-88.5 690.325,-88.5 690.325,-70.5 570.907,-70.5"/>
<text text-anchor="middle" x="630.616" y="-76.5" font-family="Helvetica,sans-Serif" font-size="10.00">boost/noncopyable.hpp</text>
</g>
<!-- Node3&#45;&gt;Node18 -->
<g id="edge31" class="edge"><title>Node3&#45;&gt;Node18</title>
<path fill="none" stroke="midnightblue" d="M422.626,-185.484C457.153,-178.777 503.124,-167.297 540.616,-149 569.429,-134.938 598.1,-110.948 615.089,-95.4142"/>
<polygon fill="midnightblue" stroke="midnightblue" points="617.521,-97.9322 622.44,-88.5486 612.742,-92.8165 617.521,-97.9322"/>
</g>
<!-- Node22 -->
<g id="node23" class="node"><title>Node22</title>
<polygon fill="white" stroke="#bfbfbf" points="263.65,-130.5 263.65,-148.5 333.581,-148.5 333.581,-130.5 263.65,-130.5"/>
<text text-anchor="middle" x="298.616" y="-136.5" font-family="Helvetica,sans-Serif" font-size="10.00">Eigen/Eigen</text>
</g>
<!-- Node3&#45;&gt;Node22 -->
<g id="edge30" class="edge"><title>Node3&#45;&gt;Node22</title>
<path fill="none" stroke="midnightblue" d="M360.529,-185.45C349.273,-177.279 331.618,-164.46 318.036,-154.6"/>
<polygon fill="midnightblue" stroke="midnightblue" points="319.956,-151.668 309.807,-148.625 315.843,-157.333 319.956,-151.668"/>
</g>
<!-- Node23 -->
<g id="node24" class="node"><title>Node23</title>
<polygon fill="white" stroke="#bfbfbf" points="351.389,-130.5 351.389,-148.5 391.842,-148.5 391.842,-130.5 351.389,-130.5"/>
<text text-anchor="middle" x="371.616" y="-136.5" font-family="Helvetica,sans-Serif" font-size="10.00">string</text>
</g>
<!-- Node3&#45;&gt;Node23 -->
<g id="edge32" class="edge"><title>Node3&#45;&gt;Node23</title>
<path fill="none" stroke="midnightblue" d="M371.616,-185.219C371.616,-178.177 371.616,-167.808 371.616,-158.828"/>
<polygon fill="midnightblue" stroke="midnightblue" points="375.116,-158.55 371.616,-148.55 368.116,-158.55 375.116,-158.55"/>
</g>
<!-- Node5 -->
<g id="node6" class="node"><title>Node5</title>
<g id="a_node6"><a xlink:href="../../df/d67/ObserverSubjectBase_8h.html" target="_top" xlink:title="Declaration file of the Observer and Subject base classes. ">
<polygon fill="white" stroke="black" points="901.646,-65.5 901.646,-93.5 1041.59,-93.5 1041.59,-65.5 901.646,-65.5"/>
<text text-anchor="start" x="909.646" y="-81.5" font-family="Helvetica,sans-Serif" font-size="10.00">ocra/optim/ObserverSubject</text>
<text text-anchor="middle" x="971.616" y="-71.5" font-family="Helvetica,sans-Serif" font-size="10.00">Base.h</text>
</a>
</g>
</g>
<!-- Node4&#45;&gt;Node5 -->
<g id="edge5" class="edge"><title>Node4&#45;&gt;Node5</title>
<path fill="none" stroke="midnightblue" d="M887.242,-130.435C900.947,-122.324 922.556,-109.535 940.475,-98.9304"/>
<polygon fill="midnightblue" stroke="midnightblue" points="942.624,-101.726 949.447,-93.6203 939.058,-95.7016 942.624,-101.726"/>
</g>
<!-- Node9 -->
<g id="node10" class="node"><title>Node9</title>
<polygon fill="white" stroke="#bfbfbf" points="738.929,-0.5 738.929,-28.5 838.303,-28.5 838.303,-0.5 738.929,-0.5"/>
<text text-anchor="start" x="746.929" y="-16.5" font-family="Helvetica,sans-Serif" font-size="10.00">boost/type_traits/is</text>
<text text-anchor="middle" x="788.616" y="-6.5" font-family="Helvetica,sans-Serif" font-size="10.00">_class.hpp</text>
</g>
<!-- Node4&#45;&gt;Node9 -->
<g id="edge17" class="edge"><title>Node4&#45;&gt;Node9</title>
<path fill="none" stroke="midnightblue" d="M872.462,-130.099C870.155,-115.686 863.914,-85.7946 849.616,-65 841.488,-53.1789 829.74,-42.7151 818.72,-34.4889"/>
<polygon fill="midnightblue" stroke="midnightblue" points="820.685,-31.5914 810.507,-28.649 816.629,-37.2963 820.685,-31.5914"/>
</g>
<!-- Node10 -->
<g id="node11" class="node"><title>Node10</title>
<polygon fill="white" stroke="#bfbfbf" points="621.929,-0.5 621.929,-28.5 721.303,-28.5 721.303,-0.5 621.929,-0.5"/>
<text text-anchor="start" x="629.929" y="-16.5" font-family="Helvetica,sans-Serif" font-size="10.00">boost/type_traits/is</text>
<text text-anchor="middle" x="671.616" y="-6.5" font-family="Helvetica,sans-Serif" font-size="10.00">_base_of.hpp</text>
</g>
<!-- Node4&#45;&gt;Node10 -->
<g id="edge15" class="edge"><title>Node4&#45;&gt;Node10</title>
<path fill="none" stroke="midnightblue" d="M869.441,-130.394C861.294,-115.352 841.848,-83.0162 816.616,-65 802.134,-54.6597 763.184,-41.6072 729.297,-31.5018"/>
<polygon fill="midnightblue" stroke="midnightblue" points="730.019,-28.0661 719.438,-28.6009 728.043,-34.7814 730.019,-28.0661"/>
</g>
<!-- Node11 -->
<g id="node12" class="node"><title>Node11</title>
<polygon fill="white" stroke="#bfbfbf" points="1148.2,-5.5 1148.2,-23.5 1267.03,-23.5 1267.03,-5.5 1148.2,-5.5"/>
<text text-anchor="middle" x="1207.62" y="-11.5" font-family="Helvetica,sans-Serif" font-size="10.00">boost/static_assert.hpp</text>
</g>
<!-- Node4&#45;&gt;Node11 -->
<g id="edge14" class="edge"><title>Node4&#45;&gt;Node11</title>
<path fill="none" stroke="midnightblue" d="M944.223,-130.443C985.967,-124.009 1039.18,-112.842 1083.62,-94 1104.84,-85.0005 1107.22,-77.4576 1126.62,-65 1146.21,-52.4174 1168.84,-38.6476 1185.2,-28.8327"/>
<polygon fill="midnightblue" stroke="midnightblue" points="1187.24,-31.6866 1194.03,-23.5498 1183.65,-25.6791 1187.24,-31.6866"/>
</g>
<!-- Node13 -->
<g id="node14" class="node"><title>Node13</title>
<g id="a_node14"><a xlink:href="../../db/ddf/ocra__events_8h.html" target="_top" xlink:title="ocra/optim/ocra_events.h">
<polygon fill="white" stroke="black" points="1135.48,-70.5 1135.48,-88.5 1263.76,-88.5 1263.76,-70.5 1135.48,-70.5"/>
<text text-anchor="middle" x="1199.62" y="-76.5" font-family="Helvetica,sans-Serif" font-size="10.00">ocra/optim/ocra_events.h</text>
</a>
</g>
</g>
<!-- Node4&#45;&gt;Node13 -->
<g id="edge13" class="edge"><title>Node4&#45;&gt;Node13</title>
<path fill="none" stroke="midnightblue" d="M918.602,-130.496C977.627,-119.995 1081.15,-101.577 1144.72,-90.2666"/>
<polygon fill="midnightblue" stroke="midnightblue" points="1145.34,-93.7123 1154.57,-88.5147 1144.11,-86.8205 1145.34,-93.7123"/>
</g>
<!-- Node14 -->
<g id="node15" class="node"><title>Node14</title>
<polygon fill="white" stroke="#bfbfbf" points="707.929,-65.5 707.929,-93.5 807.303,-93.5 807.303,-65.5 707.929,-65.5"/>
<text text-anchor="start" x="715.929" y="-81.5" font-family="Helvetica,sans-Serif" font-size="10.00">boost/type_traits/is</text>
<text text-anchor="middle" x="757.616" y="-71.5" font-family="Helvetica,sans-Serif" font-size="10.00">_convertible.hpp</text>
</g>
<!-- Node4&#45;&gt;Node14 -->
<g id="edge16" class="edge"><title>Node4&#45;&gt;Node14</title>
<path fill="none" stroke="midnightblue" d="M857.486,-130.435C840.893,-122.138 814.508,-108.946 793.024,-98.2043"/>
<polygon fill="midnightblue" stroke="midnightblue" points="794.366,-94.962 783.856,-93.6203 791.235,-101.223 794.366,-94.962"/>
</g>
<!-- Node6 -->
<g id="node7" class="node"><title>Node6</title>
<polygon fill="white" stroke="#bfbfbf" points="856.212,-5.5 856.212,-23.5 915.02,-23.5 915.02,-5.5 856.212,-5.5"/>
<text text-anchor="middle" x="885.616" y="-11.5" font-family="Helvetica,sans-Serif" font-size="10.00">functional</text>
</g>
<!-- Node5&#45;&gt;Node6 -->
<g id="edge6" class="edge"><title>Node5&#45;&gt;Node6</title>
<path fill="none" stroke="midnightblue" d="M953.796,-65.4464C939.536,-55 919.572,-40.3747 904.931,-29.6496"/>
<polygon fill="midnightblue" stroke="midnightblue" points="906.737,-26.6341 896.602,-23.548 902.601,-32.2811 906.737,-26.6341"/>
</g>
<!-- Node7 -->
<g id="node8" class="node"><title>Node7</title>
<polygon fill="white" stroke="#bfbfbf" points="511.052,-5.5 511.052,-23.5 568.18,-23.5 568.18,-5.5 511.052,-5.5"/>
<text text-anchor="middle" x="539.616" y="-11.5" font-family="Helvetica,sans-Serif" font-size="10.00">algorithm</text>
</g>
<!-- Node5&#45;&gt;Node7 -->
<g id="edge7" class="edge"><title>Node5&#45;&gt;Node7</title>
<path fill="none" stroke="midnightblue" d="M901.645,-69.8169C829.19,-60.5995 712.773,-45.1574 612.616,-29 601.413,-27.1927 589.281,-25.0317 578.184,-22.974"/>
<polygon fill="midnightblue" stroke="midnightblue" points="578.814,-19.5313 568.34,-21.1265 577.523,-26.4112 578.814,-19.5313"/>
</g>
<!-- Node8 -->
<g id="node9" class="node"><title>Node8</title>
<polygon fill="white" stroke="#bfbfbf" points="932.571,-5.5 932.571,-23.5 1010.66,-23.5 1010.66,-5.5 932.571,-5.5"/>
<text text-anchor="middle" x="971.616" y="-11.5" font-family="Helvetica,sans-Serif" font-size="10.00">boost/any.hpp</text>
</g>
<!-- Node5&#45;&gt;Node8 -->
<g id="edge8" class="edge"><title>Node5&#45;&gt;Node8</title>
<path fill="none" stroke="midnightblue" d="M971.616,-65.4464C971.616,-56.3336 971.616,-44.0406 971.616,-33.9308"/>
<polygon fill="midnightblue" stroke="midnightblue" points="975.116,-33.7301 971.616,-23.7301 968.116,-33.7301 975.116,-33.7301"/>
</g>
<!-- Node5&#45;&gt;Node9 -->
<g id="edge9" class="edge"><title>Node5&#45;&gt;Node9</title>
<path fill="none" stroke="midnightblue" d="M933.698,-65.4464C905.358,-55.6899 866.429,-42.2882 836.031,-31.8231"/>
<polygon fill="midnightblue" stroke="midnightblue" points="837.08,-28.4827 826.485,-28.5369 834.801,-35.1015 837.08,-28.4827"/>
</g>
<!-- Node5&#45;&gt;Node10 -->
<g id="edge10" class="edge"><title>Node5&#45;&gt;Node10</title>
<path fill="none" stroke="midnightblue" d="M905.522,-65.4799C859.196,-56.2386 795.578,-43.3184 731.46,-29.3754"/>
<polygon fill="midnightblue" stroke="midnightblue" points="732.1,-25.9328 721.583,-27.2204 730.607,-32.7718 732.1,-25.9328"/>
</g>
<!-- Node5&#45;&gt;Node11 -->
<g id="edge11" class="edge"><title>Node5&#45;&gt;Node11</title>
<path fill="none" stroke="midnightblue" d="M1020.52,-65.4464C1064.08,-53.8174 1127.04,-37.0098 1167.65,-26.1688"/>
<polygon fill="midnightblue" stroke="midnightblue" points="1168.71,-29.5088 1177.47,-23.548 1166.9,-22.7457 1168.71,-29.5088"/>
</g>
<!-- Node12 -->
<g id="node13" class="node"><title>Node12</title>
<polygon fill="white" stroke="#bfbfbf" points="1028.81,-0.5 1028.81,-28.5 1130.42,-28.5 1130.42,-0.5 1028.81,-0.5"/>
<text text-anchor="start" x="1036.81" y="-16.5" font-family="Helvetica,sans-Serif" font-size="10.00">boost/ptr_container</text>
<text text-anchor="middle" x="1079.62" y="-6.5" font-family="Helvetica,sans-Serif" font-size="10.00">/ptr_vector.hpp</text>
</g>
<!-- Node5&#45;&gt;Node12 -->
<g id="edge12" class="edge"><title>Node5&#45;&gt;Node12</title>
<path fill="none" stroke="midnightblue" d="M993.993,-65.4464C1009.78,-56.239 1031.13,-43.785 1048.56,-33.6167"/>
<polygon fill="midnightblue" stroke="midnightblue" points="1050.39,-36.5989 1057.27,-28.5369 1046.87,-30.5524 1050.39,-36.5989"/>
</g>
<!-- Node15&#45;&gt;Node2 -->
<g id="edge26" class="edge"><title>Node15&#45;&gt;Node2</title>
<path fill="none" stroke="midnightblue" d="M409.54,-131.019C406.523,-130.67 403.535,-130.328 400.616,-130 246.097,-112.628 203.005,-133.508 52.6157,-94 50.8983,-93.5488 49.1539,-93.0158 47.4129,-92.4265"/>
<polygon fill="midnightblue" stroke="midnightblue" points="48.2774,-89.0062 37.6898,-88.6153 45.7228,-95.5234 48.2774,-89.0062"/>
</g>
<!-- Node15&#45;&gt;Node7 -->
<g id="edge27" class="edge"><title>Node15&#45;&gt;Node7</title>
<path fill="none" stroke="midnightblue" d="M475.143,-130.43C486.203,-110.715 514.791,-59.7519 529.911,-32.8001"/>
<polygon fill="midnightblue" stroke="midnightblue" points="533.141,-34.1952 534.981,-23.7614 527.036,-30.7704 533.141,-34.1952"/>
</g>
<!-- Node15&#45;&gt;Node10 -->
<g id="edge23" class="edge"><title>Node15&#45;&gt;Node10</title>
<path fill="none" stroke="midnightblue" d="M479.088,-130.392C494.539,-115.905 528.743,-85.2055 561.616,-65 582.1,-52.409 606.337,-41.155 626.839,-32.5715"/>
<polygon fill="midnightblue" stroke="midnightblue" points="628.349,-35.7355 636.27,-28.6996 625.69,-29.2601 628.349,-35.7355"/>
</g>
<!-- Node15&#45;&gt;Node11 -->
<g id="edge22" class="edge"><title>Node15&#45;&gt;Node11</title>
<path fill="none" stroke="midnightblue" d="M531.651,-136.005C670.908,-130 1003.7,-113.766 1050.62,-94 1068.61,-86.4186 1066.97,-75.2121 1083.62,-65 1110.82,-48.3037 1144.64,-35.2459 1170.09,-26.7438"/>
<polygon fill="midnightblue" stroke="midnightblue" points="1171.32,-30.0245 1179.74,-23.6009 1169.15,-23.3682 1171.32,-30.0245"/>
</g>
<!-- Node15&#45;&gt;Node14 -->
<g id="edge24" class="edge"><title>Node15&#45;&gt;Node14</title>
<path fill="none" stroke="midnightblue" d="M514.614,-130.447C558.626,-122.281 628.514,-109.014 697.488,-94.4149"/>
<polygon fill="midnightblue" stroke="midnightblue" points="698.602,-97.7562 707.655,-92.2516 697.145,-90.9095 698.602,-97.7562"/>
</g>
<!-- Node16 -->
<g id="node17" class="node"><title>Node16</title>
<g id="a_node17"><a xlink:href="../../de/df3/ocra__assert_8h.html" target="_top" xlink:title="ocra/optim/ocra_assert.h">
<polygon fill="white" stroke="black" points="61.5913,-70.5 61.5913,-88.5 187.64,-88.5 187.64,-70.5 61.5913,-70.5"/>
<text text-anchor="middle" x="124.616" y="-76.5" font-family="Helvetica,sans-Serif" font-size="10.00">ocra/optim/ocra_assert.h</text>
</a>
</g>
</g>
<!-- Node15&#45;&gt;Node16 -->
<g id="edge19" class="edge"><title>Node15&#45;&gt;Node16</title>
<path fill="none" stroke="midnightblue" d="M418.789,-130.468C363.643,-121.831 273.876,-107.515 196.616,-94 190.05,-92.8516 183.156,-91.6076 176.342,-90.3553"/>
<polygon fill="midnightblue" stroke="midnightblue" points="176.935,-86.9056 166.464,-88.5248 175.659,-93.7884 176.935,-86.9056"/>
</g>
<!-- Node15&#45;&gt;Node18 -->
<g id="edge21" class="edge"><title>Node15&#45;&gt;Node18</title>
<path fill="none" stroke="midnightblue" d="M492.863,-130.435C520.369,-120.465 567.378,-103.424 598.719,-92.0624"/>
<polygon fill="midnightblue" stroke="midnightblue" points="600.091,-95.288 608.3,-88.5894 597.706,-88.707 600.091,-95.288"/>
</g>
<!-- Node19 -->
<g id="node20" class="node"><title>Node19</title>
<polygon fill="white" stroke="#bfbfbf" points="206.077,-65.5 206.077,-93.5 337.155,-93.5 337.155,-65.5 206.077,-65.5"/>
<text text-anchor="start" x="214.077" y="-81.5" font-family="Helvetica,sans-Serif" font-size="10.00">boost/type_traits/has</text>
<text text-anchor="middle" x="271.616" y="-71.5" font-family="Helvetica,sans-Serif" font-size="10.00">_nothrow_constructor.hpp</text>
</g>
<!-- Node15&#45;&gt;Node19 -->
<g id="edge25" class="edge"><title>Node15&#45;&gt;Node19</title>
<path fill="none" stroke="midnightblue" d="M442.946,-130.435C412.849,-121.663 363.977,-107.419 326.117,-96.3847"/>
<polygon fill="midnightblue" stroke="midnightblue" points="326.832,-92.9476 316.252,-93.5096 324.873,-99.668 326.832,-92.9476"/>
</g>
<!-- Node20 -->
<g id="node21" class="node"><title>Node20</title>
<polygon fill="white" stroke="#bfbfbf" points="355.443,-70.5 355.443,-88.5 399.788,-88.5 399.788,-70.5 355.443,-70.5"/>
<text text-anchor="middle" x="377.616" y="-76.5" font-family="Helvetica,sans-Serif" font-size="10.00">iosfwd</text>
</g>
<!-- Node15&#45;&gt;Node20 -->
<g id="edge28" class="edge"><title>Node15&#45;&gt;Node20</title>
<path fill="none" stroke="midnightblue" d="M457.684,-130.435C442.639,-121.052 417.554,-105.408 399.467,-94.1277"/>
<polygon fill="midnightblue" stroke="midnightblue" points="401.074,-91.0052 390.737,-88.6831 397.37,-96.9448 401.074,-91.0052"/>
</g>
<!-- Node21 -->
<g id="node22" class="node"><title>Node21</title>
<polygon fill="white" stroke="#bfbfbf" points="418.214,-70.5 418.214,-88.5 477.017,-88.5 477.017,-70.5 418.214,-70.5"/>
<text text-anchor="middle" x="447.616" y="-76.5" font-family="Helvetica,sans-Serif" font-size="10.00">stdexcept</text>
</g>
<!-- Node15&#45;&gt;Node21 -->
<g id="edge29" class="edge"><title>Node15&#45;&gt;Node21</title>
<path fill="none" stroke="midnightblue" d="M467.418,-130.435C464.125,-122.132 458.888,-108.927 454.627,-98.1807"/>
<polygon fill="midnightblue" stroke="midnightblue" points="457.875,-96.8773 450.936,-88.8718 451.368,-99.4578 457.875,-96.8773"/>
</g>
<!-- Node17 -->
<g id="node18" class="node"><title>Node17</title>
<polygon fill="white" stroke="#bfbfbf" points="103.554,-5.5 103.554,-23.5 145.677,-23.5 145.677,-5.5 103.554,-5.5"/>
<text text-anchor="middle" x="124.616" y="-11.5" font-family="Helvetica,sans-Serif" font-size="10.00">cstdio</text>
</g>
<!-- Node16&#45;&gt;Node17 -->
<g id="edge20" class="edge"><title>Node16&#45;&gt;Node17</title>
<path fill="none" stroke="midnightblue" d="M124.616,-70.2639C124.616,-61.0635 124.616,-45.881 124.616,-33.8326"/>
<polygon fill="midnightblue" stroke="midnightblue" points="128.116,-33.5389 124.616,-23.539 121.116,-33.539 128.116,-33.5389"/>
</g>
</g>
</svg>
