<?xml version="1.0" encoding="UTF-8" standalone="no"?>
<!DOCTYPE svg PUBLIC "-//W3C//DTD SVG 1.1//EN"
 "http://www.w3.org/Graphics/SVG/1.1/DTD/svg11.dtd">
<!-- Generated by graphviz version 2.38.0 (20140413.2041)
 -->
<!-- Title: ocra::HierarchyLevel_barre Pages: 1 -->
<svg width="138pt" height="112pt"
 viewBox="0.00 0.00 138.02 112.00" xmlns="http://www.w3.org/2000/svg" xmlns:xlink="http://www.w3.org/1999/xlink">
<g id="graph0" class="graph" transform="scale(1 1) rotate(0) translate(4 108)">
<title>ocra::HierarchyLevel_barre</title>
<polygon fill="white" stroke="none" points="-4,4 -4,-108 134.02,-108 134.02,4 -4,4"/>
<!-- Node1 -->
<g id="node1" class="node"><title>Node1</title>
<polygon fill="#bfbfbf" stroke="black" points="11.4409,-0.5 11.4409,-28.5 119.145,-28.5 119.145,-0.5 11.4409,-0.5"/>
<text text-anchor="start" x="19.4409" y="-16.5" font-family="Helvetica,sans-Serif" font-size="10.00">ocra::HierarchyLevel</text>
<text text-anchor="middle" x="65.293" y="-6.5" font-family="Helvetica,sans-Serif" font-size="10.00">_barre</text>
</g>
<!-- Node2 -->
<g id="node2" class="node"><title>Node2</title>
<polygon fill="white" stroke="#bfbfbf" points="0,-85.5 0,-103.5 56.5859,-103.5 56.5859,-85.5 0,-85.5"/>
<text text-anchor="middle" x="28.293" y="-91.5" font-family="Helvetica,sans-Serif" font-size="10.00">VectorXd</text>
</g>
<!-- Node2&#45;&gt;Node1 -->
<g id="edge1" class="edge"><title>Node2&#45;&gt;Node1</title>
<path fill="none" stroke="#9a32cd" stroke-dasharray="5,2" d="M32.6486,-75.3616C35.1111,-66.5517 38.5958,-55.9599 43.0469,-47 46.2042,-40.6443 50.561,-34.1513 54.5825,-28.7244"/>
<polygon fill="#9a32cd" stroke="#9a32cd" points="29.1909,-74.7535 30.0804,-85.311 35.9688,-76.5031 29.1909,-74.7535"/>
<text text-anchor="middle" x="60.916" y="-59" font-family="Helvetica,sans-Serif" font-size="10.00"> b_barre</text>
<text text-anchor="middle" x="60.916" y="-49" font-family="Helvetica,sans-Serif" font-size="10.00">d_barre</text>
</g>
<!-- Node3 -->
<g id="node3" class="node"><title>Node3</title>
<polygon fill="white" stroke="#bfbfbf" points="74.5664,-85.5 74.5664,-103.5 130.02,-103.5 130.02,-85.5 74.5664,-85.5"/>
<text text-anchor="middle" x="102.293" y="-91.5" font-family="Helvetica,sans-Serif" font-size="10.00">MatrixXd</text>
</g>
<!-- Node3&#45;&gt;Node1 -->
<g id="edge2" class="edge"><title>Node3&#45;&gt;Node1</title>
<path fill="none" stroke="#9a32cd" stroke-dasharray="5,2" d="M94.0826,-76.1196C89.951,-67.3802 84.8621,-56.6263 80.293,-47 77.4359,-40.9808 74.2647,-34.3184 71.5768,-28.677"/>
<polygon fill="#9a32cd" stroke="#9a32cd" points="90.9675,-77.7195 98.4046,-85.2653 97.2964,-74.7286 90.9675,-77.7195"/>
<text text-anchor="middle" x="108.197" y="-59" font-family="Helvetica,sans-Serif" font-size="10.00"> A_barre</text>
<text text-anchor="middle" x="108.197" y="-49" font-family="Helvetica,sans-Serif" font-size="10.00">C_barre</text>
</g>
</g>
</svg>
