<?xml version="1.0" encoding="UTF-8" standalone="no"?>
<!DOCTYPE svg PUBLIC "-//W3C//DTD SVG 1.1//EN"
 "http://www.w3.org/Graphics/SVG/1.1/DTD/svg11.dtd">
<!-- Generated by graphviz version 2.38.0 (20140413.2041)
 -->
<!-- Title: TaskBuilderOptions.cpp Pages: 1 -->
<svg width="565pt" height="257pt"
 viewBox="0.00 0.00 565.10 257.00" xmlns="http://www.w3.org/2000/svg" xmlns:xlink="http://www.w3.org/1999/xlink">
<g id="graph0" class="graph" transform="scale(1 1) rotate(0) translate(4 253)">
<title>TaskBuilderOptions.cpp</title>
<polygon fill="white" stroke="none" points="-4,4 -4,-253 561.098,-253 561.098,4 -4,4"/>
<!-- Node0 -->
<g id="node1" class="node"><title>Node0</title>
<polygon fill="#bfbfbf" stroke="black" points="115.33,-230.5 115.33,-248.5 236.384,-248.5 236.384,-230.5 115.33,-230.5"/>
<text text-anchor="middle" x="175.857" y="-236.5" font-family="Helvetica,sans-Serif" font-size="10.00">TaskBuilderOptions.cpp</text>
</g>
<!-- Node1 -->
<g id="node2" class="node"><title>Node1</title>
<g id="a_node2"><a xlink:href="../../d2/d1d/TaskBuilderOptions_8h.html" target="_top" xlink:title="ocra/control/TaskBuilders\l/TaskBuilderOptions.h">
<polygon fill="white" stroke="black" points="112,-165.5 112,-193.5 239.714,-193.5 239.714,-165.5 112,-165.5"/>
<text text-anchor="start" x="120" y="-181.5" font-family="Helvetica,sans-Serif" font-size="10.00">ocra/control/TaskBuilders</text>
<text text-anchor="middle" x="175.857" y="-171.5" font-family="Helvetica,sans-Serif" font-size="10.00">/TaskBuilderOptions.h</text>
</a>
</g>
</g>
<!-- Node0&#45;&gt;Node1 -->
<g id="edge1" class="edge"><title>Node0&#45;&gt;Node1</title>
<path fill="none" stroke="midnightblue" d="M175.857,-230.435C175.857,-223.56 175.857,-213.324 175.857,-203.906"/>
<polygon fill="midnightblue" stroke="midnightblue" points="179.357,-203.843 175.857,-193.843 172.357,-203.843 179.357,-203.843"/>
</g>
<!-- Node2 -->
<g id="node3" class="node"><title>Node2</title>
<polygon fill="white" stroke="#bfbfbf" points="158.227,-0.5 158.227,-18.5 231.488,-18.5 231.488,-0.5 158.227,-0.5"/>
<text text-anchor="middle" x="194.857" y="-6.5" font-family="Helvetica,sans-Serif" font-size="10.00">Eigen/Dense</text>
</g>
<!-- Node1&#45;&gt;Node2 -->
<g id="edge2" class="edge"><title>Node1&#45;&gt;Node2</title>
<path fill="none" stroke="midnightblue" d="M111.895,-168.418C68.3436,-160.097 16.2578,-146.773 2.85721,-129 -2.22671,-122.257 1.59622,-118.35 2.85721,-110 6.67782,-84.7014 1.31217,-72.6267 19.8572,-55 54.1694,-22.387 108.892,-12.7652 148.008,-10.3585"/>
<polygon fill="midnightblue" stroke="midnightblue" points="148.274,-13.8499 158.095,-9.87495 147.939,-6.85794 148.274,-13.8499"/>
</g>
<!-- Node3 -->
<g id="node4" class="node"><title>Node3</title>
<polygon fill="white" stroke="#bfbfbf" points="98.4534,-55.5 98.4534,-73.5 167.261,-73.5 167.261,-55.5 98.4534,-55.5"/>
<text text-anchor="middle" x="132.857" y="-61.5" font-family="Helvetica,sans-Serif" font-size="10.00">Eigen/Lgsm</text>
</g>
<!-- Node1&#45;&gt;Node3 -->
<g id="edge3" class="edge"><title>Node1&#45;&gt;Node3</title>
<path fill="none" stroke="midnightblue" d="M169.132,-165.258C164.268,-155.403 157.724,-141.545 152.857,-129 147.038,-113.998 141.633,-96.5332 137.913,-83.7209"/>
<polygon fill="midnightblue" stroke="midnightblue" points="141.206,-82.5034 135.109,-73.8382 134.471,-84.4138 141.206,-82.5034"/>
</g>
<!-- Node4 -->
<g id="node5" class="node"><title>Node4</title>
<g id="a_node5"><a xlink:href="../../df/d0a/Macros_8h.html" target="_top" xlink:title="ocra/util/Macros.h">
<polygon fill="white" stroke="black" points="11.3992,-110.5 11.3992,-128.5 106.315,-128.5 106.315,-110.5 11.3992,-110.5"/>
<text text-anchor="middle" x="58.8572" y="-116.5" font-family="Helvetica,sans-Serif" font-size="10.00">ocra/util/Macros.h</text>
</a>
</g>
</g>
<!-- Node1&#45;&gt;Node4 -->
<g id="edge4" class="edge"><title>Node1&#45;&gt;Node4</title>
<path fill="none" stroke="midnightblue" d="M149.6,-165.484C130.119,-155.826 103.7,-142.73 84.3935,-133.159"/>
<polygon fill="midnightblue" stroke="midnightblue" points="85.7985,-129.949 75.2844,-128.643 82.6894,-136.221 85.7985,-129.949"/>
</g>
<!-- Node6 -->
<g id="node7" class="node"><title>Node6</title>
<g id="a_node7"><a xlink:href="../../d5/ded/YarpUtilities_8h.html" target="_top" xlink:title="ocra/util/YarpUtilities.h">
<polygon fill="white" stroke="black" points="161.485,-110.5 161.485,-128.5 276.23,-128.5 276.23,-110.5 161.485,-110.5"/>
<text text-anchor="middle" x="218.857" y="-116.5" font-family="Helvetica,sans-Serif" font-size="10.00">ocra/util/YarpUtilities.h</text>
</a>
</g>
</g>
<!-- Node1&#45;&gt;Node6 -->
<g id="edge6" class="edge"><title>Node1&#45;&gt;Node6</title>
<path fill="none" stroke="midnightblue" d="M185.615,-165.339C191.859,-156.916 200.009,-145.923 206.677,-136.929"/>
<polygon fill="midnightblue" stroke="midnightblue" points="209.581,-138.889 212.725,-128.771 203.958,-134.72 209.581,-138.889"/>
</g>
<!-- Node9 -->
<g id="node10" class="node"><title>Node9</title>
<polygon fill="white" stroke="#bfbfbf" points="261.116,-55.5 261.116,-73.5 346.598,-73.5 346.598,-55.5 261.116,-55.5"/>
<text text-anchor="middle" x="303.857" y="-61.5" font-family="Helvetica,sans-Serif" font-size="10.00">yarp/os/Bottle.h</text>
</g>
<!-- Node1&#45;&gt;Node9 -->
<g id="edge19" class="edge"><title>Node1&#45;&gt;Node9</title>
<path fill="none" stroke="midnightblue" d="M226.829,-165.473C247.382,-157.89 269.755,-146.302 284.857,-129 295.853,-116.403 300.488,-97.6467 302.44,-83.7827"/>
<polygon fill="midnightblue" stroke="midnightblue" points="305.953,-83.8439 303.529,-73.53 298.992,-83.1041 305.953,-83.8439"/>
</g>
<!-- Node10 -->
<g id="node11" class="node"><title>Node10</title>
<g id="a_node11"><a xlink:href="../../df/d60/ControlEnum_8h.html" target="_top" xlink:title="Some enumerations for the control. ">
<polygon fill="white" stroke="black" points="331.995,-110.5 331.995,-128.5 469.719,-128.5 469.719,-110.5 331.995,-110.5"/>
<text text-anchor="middle" x="400.857" y="-116.5" font-family="Helvetica,sans-Serif" font-size="10.00">ocra/control/ControlEnum.h</text>
</a>
</g>
</g>
<!-- Node1&#45;&gt;Node10 -->
<g id="edge12" class="edge"><title>Node1&#45;&gt;Node10</title>
<path fill="none" stroke="midnightblue" d="M226.352,-165.484C266.5,-155.134 321.969,-140.836 359.51,-131.158"/>
<polygon fill="midnightblue" stroke="midnightblue" points="360.785,-134.444 369.595,-128.559 359.038,-127.666 360.785,-134.444"/>
</g>
<!-- Node5 -->
<g id="node6" class="node"><title>Node5</title>
<polygon fill="white" stroke="#bfbfbf" points="28.8006,-55.5 28.8006,-73.5 80.9138,-73.5 80.9138,-55.5 28.8006,-55.5"/>
<text text-anchor="middle" x="54.8572" y="-61.5" font-family="Helvetica,sans-Serif" font-size="10.00">memory</text>
</g>
<!-- Node4&#45;&gt;Node5 -->
<g id="edge5" class="edge"><title>Node4&#45;&gt;Node5</title>
<path fill="none" stroke="midnightblue" d="M58.2322,-110.219C57.6948,-103.099 56.9008,-92.5775 56.2179,-83.5289"/>
<polygon fill="midnightblue" stroke="midnightblue" points="59.7075,-83.2578 55.4647,-73.5496 52.7273,-83.7846 59.7075,-83.2578"/>
</g>
<!-- Node6&#45;&gt;Node2 -->
<g id="edge9" class="edge"><title>Node6&#45;&gt;Node2</title>
<path fill="none" stroke="midnightblue" d="M217.053,-110.382C213.214,-93.104 204.153,-52.3294 198.871,-28.5629"/>
<polygon fill="midnightblue" stroke="midnightblue" points="202.268,-27.7143 196.682,-18.7118 195.435,-29.2329 202.268,-27.7143"/>
</g>
<!-- Node6&#45;&gt;Node3 -->
<g id="edge10" class="edge"><title>Node6&#45;&gt;Node3</title>
<path fill="none" stroke="midnightblue" d="M205.796,-110.45C192.283,-102.123 170.941,-88.9704 154.827,-79.0394"/>
<polygon fill="midnightblue" stroke="midnightblue" points="156.391,-75.8922 146.042,-73.6253 152.719,-81.8515 156.391,-75.8922"/>
</g>
<!-- Node7 -->
<g id="node8" class="node"><title>Node7</title>
<polygon fill="white" stroke="#bfbfbf" points="364.685,-55.5 364.685,-73.5 419.03,-73.5 419.03,-55.5 364.685,-55.5"/>
<text text-anchor="middle" x="391.857" y="-61.5" font-family="Helvetica,sans-Serif" font-size="10.00">iostream</text>
</g>
<!-- Node6&#45;&gt;Node7 -->
<g id="edge7" class="edge"><title>Node6&#45;&gt;Node7</title>
<path fill="none" stroke="midnightblue" d="M245.132,-110.45C274.686,-101.396 322.859,-86.6382 355.891,-76.5185"/>
<polygon fill="midnightblue" stroke="midnightblue" points="357.083,-79.8141 365.619,-73.5383 355.032,-73.1211 357.083,-79.8141"/>
</g>
<!-- Node8 -->
<g id="node9" class="node"><title>Node8</title>
<polygon fill="white" stroke="#bfbfbf" points="328.241,-0.5 328.241,-18.5 371.473,-18.5 371.473,-0.5 328.241,-0.5"/>
<text text-anchor="middle" x="349.857" y="-6.5" font-family="Helvetica,sans-Serif" font-size="10.00">vector</text>
</g>
<!-- Node6&#45;&gt;Node8 -->
<g id="edge8" class="edge"><title>Node6&#45;&gt;Node8</title>
<path fill="none" stroke="midnightblue" d="M221.149,-110.42C225.267,-97.2173 235.089,-70.9015 251.857,-55 270.5,-37.3204 297.388,-25.7949 318.286,-18.913"/>
<polygon fill="midnightblue" stroke="midnightblue" points="319.486,-22.2053 328.001,-15.901 317.413,-15.5192 319.486,-22.2053"/>
</g>
<!-- Node6&#45;&gt;Node9 -->
<g id="edge11" class="edge"><title>Node6&#45;&gt;Node9</title>
<path fill="none" stroke="midnightblue" d="M231.767,-110.45C245.122,-102.123 266.216,-88.9704 282.143,-79.0394"/>
<polygon fill="midnightblue" stroke="midnightblue" points="284.192,-81.8863 290.826,-73.6253 280.489,-75.9464 284.192,-81.8863"/>
</g>
<!-- Node10&#45;&gt;Node7 -->
<g id="edge18" class="edge"><title>Node10&#45;&gt;Node7</title>
<path fill="none" stroke="midnightblue" d="M399.451,-110.219C398.242,-103.099 396.455,-92.5775 394.919,-83.5289"/>
<polygon fill="midnightblue" stroke="midnightblue" points="398.349,-82.8224 393.224,-73.5496 391.448,-83.9944 398.349,-82.8224"/>
</g>
<!-- Node11 -->
<g id="node12" class="node"><title>Node11</title>
<g id="a_node12"><a xlink:href="../../da/dbb/StringUtilities_8h.html" target="_top" xlink:title="ocra/util/StringUtilities.h">
<polygon fill="white" stroke="black" points="436.616,-55.5 436.616,-73.5 557.098,-73.5 557.098,-55.5 436.616,-55.5"/>
<text text-anchor="middle" x="496.857" y="-61.5" font-family="Helvetica,sans-Serif" font-size="10.00">ocra/util/StringUtilities.h</text>
</a>
</g>
</g>
<!-- Node10&#45;&gt;Node11 -->
<g id="edge13" class="edge"><title>Node10&#45;&gt;Node11</title>
<path fill="none" stroke="midnightblue" d="M415.438,-110.45C430.803,-101.968 455.238,-88.477 473.335,-78.486"/>
<polygon fill="midnightblue" stroke="midnightblue" points="475.077,-81.5226 482.14,-73.6253 471.694,-75.3945 475.077,-81.5226"/>
</g>
<!-- Node11&#45;&gt;Node2 -->
<g id="edge17" class="edge"><title>Node11&#45;&gt;Node2</title>
<path fill="none" stroke="midnightblue" d="M450.99,-55.4504C394.447,-45.5273 298.859,-28.7519 241.818,-18.7414"/>
<polygon fill="midnightblue" stroke="midnightblue" points="242.088,-15.2354 231.634,-16.9541 240.878,-22.1301 242.088,-15.2354"/>
</g>
<!-- Node11&#45;&gt;Node8 -->
<g id="edge16" class="edge"><title>Node11&#45;&gt;Node8</title>
<path fill="none" stroke="midnightblue" d="M474.531,-55.4504C449.781,-46.5268 409.661,-32.0618 381.638,-21.9583"/>
<polygon fill="midnightblue" stroke="midnightblue" points="382.506,-18.5509 371.912,-18.4517 380.132,-25.136 382.506,-18.5509"/>
</g>
<!-- Node12 -->
<g id="node13" class="node"><title>Node12</title>
<polygon fill="white" stroke="#bfbfbf" points="434.293,-0.5 434.293,-18.5 491.421,-18.5 491.421,-0.5 434.293,-0.5"/>
<text text-anchor="middle" x="462.857" y="-6.5" font-family="Helvetica,sans-Serif" font-size="10.00">algorithm</text>
</g>
<!-- Node11&#45;&gt;Node12 -->
<g id="edge14" class="edge"><title>Node11&#45;&gt;Node12</title>
<path fill="none" stroke="midnightblue" d="M491.545,-55.2188C486.726,-47.7074 479.479,-36.411 473.475,-27.0515"/>
<polygon fill="midnightblue" stroke="midnightblue" points="476.367,-25.0767 468.021,-18.5496 470.475,-28.8564 476.367,-25.0767"/>
</g>
<!-- Node13 -->
<g id="node14" class="node"><title>Node13</title>
<polygon fill="white" stroke="#bfbfbf" points="509.631,-0.5 509.631,-18.5 550.084,-18.5 550.084,-0.5 509.631,-0.5"/>
<text text-anchor="middle" x="529.857" y="-6.5" font-family="Helvetica,sans-Serif" font-size="10.00">string</text>
</g>
<!-- Node11&#45;&gt;Node13 -->
<g id="edge15" class="edge"><title>Node11&#45;&gt;Node13</title>
<path fill="none" stroke="midnightblue" d="M502.013,-55.2188C506.69,-47.7074 513.724,-36.411 519.552,-27.0515"/>
<polygon fill="midnightblue" stroke="midnightblue" points="522.531,-28.8885 524.845,-18.5496 516.588,-25.1886 522.531,-28.8885"/>
</g>
</g>
</svg>
