<?xml version="1.0" encoding="UTF-8" standalone="no"?>
<!DOCTYPE svg PUBLIC "-//W3C//DTD SVG 1.1//EN"
 "http://www.w3.org/Graphics/SVG/1.1/DTD/svg11.dtd">
<!-- Generated by graphviz version 2.38.0 (20140413.2041)
 -->
<!-- Title: gOcraDebug.cpp Pages: 1 -->
<svg width="292pt" height="137pt"
 viewBox="0.00 0.00 291.56 137.00" xmlns="http://www.w3.org/2000/svg" xmlns:xlink="http://www.w3.org/1999/xlink">
<g id="graph0" class="graph" transform="scale(1 1) rotate(0) translate(4 133)">
<title>gOcraDebug.cpp</title>
<polygon fill="white" stroke="none" points="-4,4 -4,-133 287.562,-133 287.562,4 -4,4"/>
<!-- Node0 -->
<g id="node1" class="node"><title>Node0</title>
<polygon fill="#bfbfbf" stroke="black" points="180.261,-110.5 180.261,-128.5 271.862,-128.5 271.862,-110.5 180.261,-110.5"/>
<text text-anchor="middle" x="226.062" y="-116.5" font-family="Helvetica,sans-Serif" font-size="10.00">gOcraDebug.cpp</text>
</g>
<!-- Node1 -->
<g id="node2" class="node"><title>Node1</title>
<g id="a_node2"><a xlink:href="../../d5/d2e/gOcraDebug_8h.html" target="_top" xlink:title="Debug trace. ">
<polygon fill="white" stroke="black" points="89.6455,-55.5 89.6455,-73.5 198.478,-73.5 198.478,-55.5 89.6455,-55.5"/>
<text text-anchor="middle" x="144.062" y="-61.5" font-family="Helvetica,sans-Serif" font-size="10.00">gocra/gOcraDebug.h</text>
</a>
</g>
</g>
<!-- Node0&#45;&gt;Node1 -->
<g id="edge1" class="edge"><title>Node0&#45;&gt;Node1</title>
<path fill="none" stroke="midnightblue" d="M213.607,-110.45C200.844,-102.201 180.754,-89.2158 165.441,-79.3187"/>
<polygon fill="midnightblue" stroke="midnightblue" points="166.931,-76.1142 156.633,-73.6253 163.131,-81.9931 166.931,-76.1142"/>
</g>
<!-- Node4 -->
<g id="node5" class="node"><title>Node4</title>
<polygon fill="white" stroke="#bfbfbf" points="201.392,-0.5 201.392,-18.5 250.731,-18.5 250.731,-0.5 201.392,-0.5"/>
<text text-anchor="middle" x="226.062" y="-6.5" font-family="Helvetica,sans-Serif" font-size="10.00">fstream</text>
</g>
<!-- Node0&#45;&gt;Node4 -->
<g id="edge6" class="edge"><title>Node0&#45;&gt;Node4</title>
<path fill="none" stroke="midnightblue" d="M226.062,-110.382C226.062,-93.1822 226.062,-52.698 226.062,-28.8866"/>
<polygon fill="midnightblue" stroke="midnightblue" points="229.562,-28.7117 226.062,-18.7118 222.562,-28.7118 229.562,-28.7117"/>
</g>
<!-- Node6 -->
<g id="node7" class="node"><title>Node6</title>
<polygon fill="white" stroke="#bfbfbf" points="254.562,-55.5 254.562,-73.5 283.562,-73.5 283.562,-55.5 254.562,-55.5"/>
<text text-anchor="middle" x="268.953" y="-61.5" font-family="Helvetica,sans-Serif" font-size="10.00">ios</text>
</g>
<!-- Node0&#45;&gt;Node6 -->
<g id="edge7" class="edge"><title>Node0&#45;&gt;Node6</title>
<path fill="none" stroke="midnightblue" d="M232.78,-110.219C239.001,-102.551 248.423,-90.9387 256.105,-81.4691"/>
<polygon fill="midnightblue" stroke="midnightblue" points="258.948,-83.5204 262.531,-73.5496 253.512,-79.11 258.948,-83.5204"/>
</g>
<!-- Node2 -->
<g id="node3" class="node"><title>Node2</title>
<polygon fill="white" stroke="#bfbfbf" points="0,-0.5 0,-18.5 42.123,-18.5 42.123,-0.5 0,-0.5"/>
<text text-anchor="middle" x="21.0615" y="-6.5" font-family="Helvetica,sans-Serif" font-size="10.00">cstdio</text>
</g>
<!-- Node1&#45;&gt;Node2 -->
<g id="edge2" class="edge"><title>Node1&#45;&gt;Node2</title>
<path fill="none" stroke="midnightblue" d="M125.38,-55.4504C105.152,-46.734 72.6534,-32.7306 49.3031,-22.6691"/>
<polygon fill="midnightblue" stroke="midnightblue" points="50.4871,-19.3683 39.9184,-18.6253 47.7171,-25.7969 50.4871,-19.3683"/>
</g>
<!-- Node3 -->
<g id="node4" class="node"><title>Node3</title>
<polygon fill="white" stroke="#bfbfbf" points="59.8892,-0.5 59.8892,-18.5 114.234,-18.5 114.234,-0.5 59.8892,-0.5"/>
<text text-anchor="middle" x="87.0615" y="-6.5" font-family="Helvetica,sans-Serif" font-size="10.00">iostream</text>
</g>
<!-- Node1&#45;&gt;Node3 -->
<g id="edge3" class="edge"><title>Node1&#45;&gt;Node3</title>
<path fill="none" stroke="midnightblue" d="M135.155,-55.2188C126.656,-47.3162 113.652,-35.2241 103.307,-25.6057"/>
<polygon fill="midnightblue" stroke="midnightblue" points="105.425,-22.7958 95.7186,-18.5496 100.659,-27.9222 105.425,-22.7958"/>
</g>
<!-- Node1&#45;&gt;Node4 -->
<g id="edge4" class="edge"><title>Node1&#45;&gt;Node4</title>
<path fill="none" stroke="midnightblue" d="M156.516,-55.4504C169.279,-47.201 189.369,-34.2158 204.682,-24.3187"/>
<polygon fill="midnightblue" stroke="midnightblue" points="206.992,-26.9931 213.49,-18.6253 203.192,-21.1142 206.992,-26.9931"/>
</g>
<!-- Node5 -->
<g id="node6" class="node"><title>Node5</title>
<polygon fill="white" stroke="#bfbfbf" points="132.281,-0.5 132.281,-18.5 183.842,-18.5 183.842,-0.5 132.281,-0.5"/>
<text text-anchor="middle" x="158.062" y="-6.5" font-family="Helvetica,sans-Serif" font-size="10.00">sstream</text>
</g>
<!-- Node1&#45;&gt;Node5 -->
<g id="edge5" class="edge"><title>Node1&#45;&gt;Node5</title>
<path fill="none" stroke="midnightblue" d="M146.249,-55.2188C148.15,-48.0204 150.97,-37.3458 153.378,-28.2311"/>
<polygon fill="midnightblue" stroke="midnightblue" points="156.765,-29.1118 155.935,-18.5496 149.997,-27.324 156.765,-29.1118"/>
</g>
</g>
</svg>
