<?xml version="1.0" encoding="UTF-8" standalone="no"?>
<!DOCTYPE svg PUBLIC "-//W3C//DTD SVG 1.1//EN"
 "http://www.w3.org/Graphics/SVG/1.1/DTD/svg11.dtd">
<!-- Generated by graphviz version 2.38.0 (20140413.2041)
 -->
<!-- Title: Function2 Pages: 1 -->
<svg width="1013pt" height="445pt"
 viewBox="0.00 0.00 1012.66 445.00" xmlns="http://www.w3.org/2000/svg" xmlns:xlink="http://www.w3.org/1999/xlink">
<g id="graph0" class="graph" transform="scale(1 1) rotate(0) translate(4 441)">
<title>Function2</title>
<polygon fill="white" stroke="none" points="-4,4 -4,-441 1008.66,-441 1008.66,4 -4,4"/>
<!-- Node16 -->
<g id="node1" class="node"><title>Node16</title>
<polygon fill="#bfbfbf" stroke="black" points="944.747,-148.5 944.747,-166.5 1004.66,-166.5 1004.66,-148.5 944.747,-148.5"/>
<text text-anchor="middle" x="974.705" y="-154.5" font-family="Helvetica,sans-Serif" font-size="10.00">Function2</text>
</g>
<!-- Node17 -->
<g id="node2" class="node"><title>Node17</title>
<g id="a_node2"><a xlink:href="../../d2/d99/classocra_1_1Function.html" target="_top" xlink:title="Function class. ">
<polygon fill="white" stroke="black" points="828.383,-148.5 828.383,-166.5 907.747,-166.5 907.747,-148.5 828.383,-148.5"/>
<text text-anchor="middle" x="868.065" y="-154.5" font-family="Helvetica,sans-Serif" font-size="10.00">ocra::Function</text>
</a>
</g>
</g>
<!-- Node17&#45;&gt;Node16 -->
<g id="edge1" class="edge"><title>Node17&#45;&gt;Node16</title>
<path fill="none" stroke="midnightblue" d="M918.114,-157.5C927.147,-157.5 936.311,-157.5 944.522,-157.5"/>
<polygon fill="midnightblue" stroke="midnightblue" points="918.029,-154 908.029,-157.5 918.029,-161 918.029,-154"/>
</g>
<!-- Node18 -->
<g id="node3" class="node"><title>Node18</title>
<g id="a_node3"><a xlink:href="../../d3/d16/classocra_1_1ObserverSubject.html" target="_top" xlink:title="ocra::ObserverSubject">
<polygon fill="white" stroke="black" points="386.068,-274.5 386.068,-292.5 501.556,-292.5 501.556,-274.5 386.068,-274.5"/>
<text text-anchor="middle" x="443.812" y="-280.5" font-family="Helvetica,sans-Serif" font-size="10.00">ocra::ObserverSubject</text>
</a>
</g>
</g>
<!-- Node18&#45;&gt;Node17 -->
<g id="edge2" class="edge"><title>Node18&#45;&gt;Node17</title>
<path fill="none" stroke="midnightblue" d="M511.747,-287.604C574.262,-289.267 669.302,-286.173 746.792,-259.5 799.086,-241.5 843.738,-188.399 860.248,-166.798"/>
<polygon fill="midnightblue" stroke="midnightblue" points="511.723,-284.101 501.617,-287.285 511.502,-291.098 511.723,-284.101"/>
</g>
<!-- Node34 -->
<g id="node19" class="node"><title>Node34</title>
<g id="a_node19"><a xlink:href="../../d2/dac/classocra_1_1Variable.html" target="_top" xlink:title="This class represents a variable in a mathematical sense. ">
<polygon fill="white" stroke="black" points="626.412,-320.5 626.412,-338.5 703.374,-338.5 703.374,-320.5 626.412,-320.5"/>
<text text-anchor="middle" x="664.893" y="-326.5" font-family="Helvetica,sans-Serif" font-size="10.00">ocra::Variable</text>
</a>
</g>
</g>
<!-- Node18&#45;&gt;Node34 -->
<g id="edge20" class="edge"><title>Node18&#45;&gt;Node34</title>
<path fill="none" stroke="midnightblue" d="M501.549,-294.488C516.052,-297.359 531.611,-300.493 545.994,-303.5 572.871,-309.119 603.114,-315.796 626.24,-320.976"/>
<polygon fill="midnightblue" stroke="midnightblue" points="502.192,-291.047 491.704,-292.547 500.838,-297.915 502.192,-291.047"/>
</g>
<!-- Node19 -->
<g id="node4" class="node"><title>Node19</title>
<g id="a_node4"><a xlink:href="../../d2/d45/classocra_1_1Observer.html" target="_top" xlink:title="ocra::Observer">
<polygon fill="white" stroke="black" points="222.497,-342.5 222.497,-360.5 304.63,-360.5 304.63,-342.5 222.497,-342.5"/>
<text text-anchor="middle" x="263.563" y="-348.5" font-family="Helvetica,sans-Serif" font-size="10.00">ocra::Observer</text>
</a>
</g>
</g>
<!-- Node19&#45;&gt;Node18 -->
<g id="edge3" class="edge"><title>Node19&#45;&gt;Node18</title>
<path fill="none" stroke="midnightblue" d="M284.539,-336.224C299.495,-325.514 320.869,-311.698 341.63,-303.5 355.537,-298.008 371.136,-293.971 385.844,-291.024"/>
<polygon fill="midnightblue" stroke="midnightblue" points="282.103,-333.67 276.118,-342.413 286.249,-339.311 282.103,-333.67"/>
</g>
<!-- Node20 -->
<g id="node5" class="node"><title>Node20</title>
<g id="a_node5"><a xlink:href="../../d4/dee/classocra_1_1ObserverBase.html" target="_top" xlink:title="ocra::ObserverBase\l\&lt; EVT_RESIZE \&gt;">
<polygon fill="white" stroke="black" points="40.2856,-408.5 40.2856,-436.5 145.211,-436.5 145.211,-408.5 40.2856,-408.5"/>
<text text-anchor="start" x="48.2856" y="-424.5" font-family="Helvetica,sans-Serif" font-size="10.00">ocra::ObserverBase</text>
<text text-anchor="middle" x="92.7485" y="-414.5" font-family="Helvetica,sans-Serif" font-size="10.00">&lt; EVT_RESIZE &gt;</text>
</a>
</g>
</g>
<!-- Node20&#45;&gt;Node19 -->
<g id="edge4" class="edge"><title>Node20&#45;&gt;Node19</title>
<path fill="none" stroke="midnightblue" d="M155.334,-409.047C165.579,-406.058 175.966,-402.549 185.497,-398.5 209.873,-388.144 235.651,-370.978 250.357,-360.507"/>
<polygon fill="midnightblue" stroke="midnightblue" points="154.285,-405.705 145.586,-411.754 156.158,-412.45 154.285,-405.705"/>
</g>
<!-- Node21 -->
<g id="node6" class="node"><title>Node21</title>
<g id="a_node6"><a xlink:href="../../d4/dee/classocra_1_1ObserverBase.html" target="_top" xlink:title="ocra::ObserverBase\l\&lt; EVT_CHANGE_DEPENDENCIES \&gt;">
<polygon fill="white" stroke="black" points="0,-361.5 0,-389.5 185.497,-389.5 185.497,-361.5 0,-361.5"/>
<text text-anchor="start" x="8" y="-377.5" font-family="Helvetica,sans-Serif" font-size="10.00">ocra::ObserverBase</text>
<text text-anchor="middle" x="92.7485" y="-367.5" font-family="Helvetica,sans-Serif" font-size="10.00">&lt; EVT_CHANGE_DEPENDENCIES &gt;</text>
</a>
</g>
</g>
<!-- Node21&#45;&gt;Node19 -->
<g id="edge5" class="edge"><title>Node21&#45;&gt;Node19</title>
<path fill="none" stroke="midnightblue" d="M195.725,-361.002C205,-359.684 213.979,-358.407 222.187,-357.24"/>
<polygon fill="midnightblue" stroke="midnightblue" points="194.974,-357.574 185.566,-362.447 195.959,-364.504 194.974,-357.574"/>
</g>
<!-- Node22 -->
<g id="node7" class="node"><title>Node22</title>
<g id="a_node7"><a xlink:href="../../d4/dee/classocra_1_1ObserverBase.html" target="_top" xlink:title="ocra::ObserverBase\l\&lt; EVT_CHANGE_VALUE \&gt;">
<polygon fill="white" stroke="black" points="23.4253,-314.5 23.4253,-342.5 162.072,-342.5 162.072,-314.5 23.4253,-314.5"/>
<text text-anchor="start" x="31.4253" y="-330.5" font-family="Helvetica,sans-Serif" font-size="10.00">ocra::ObserverBase</text>
<text text-anchor="middle" x="92.7485" y="-320.5" font-family="Helvetica,sans-Serif" font-size="10.00">&lt; EVT_CHANGE_VALUE &gt;</text>
</a>
</g>
</g>
<!-- Node22&#45;&gt;Node19 -->
<g id="edge6" class="edge"><title>Node22&#45;&gt;Node19</title>
<path fill="none" stroke="midnightblue" d="M172.466,-339.225C189.64,-341.565 207.13,-343.948 222.074,-345.984"/>
<polygon fill="midnightblue" stroke="midnightblue" points="172.793,-335.737 162.412,-337.855 171.848,-342.673 172.793,-335.737"/>
</g>
<!-- Node23 -->
<g id="node8" class="node"><title>Node23</title>
<g id="a_node8"><a xlink:href="../../dc/d77/classocra_1_1Subject.html" target="_top" xlink:title="ocra::Subject">
<polygon fill="white" stroke="black" points="226.381,-245.5 226.381,-263.5 300.746,-263.5 300.746,-245.5 226.381,-245.5"/>
<text text-anchor="middle" x="263.563" y="-251.5" font-family="Helvetica,sans-Serif" font-size="10.00">ocra::Subject</text>
</a>
</g>
</g>
<!-- Node23&#45;&gt;Node18 -->
<g id="edge7" class="edge"><title>Node23&#45;&gt;Node18</title>
<path fill="none" stroke="midnightblue" d="M311.07,-262.066C334.43,-265.867 362.898,-270.499 387.386,-274.483"/>
<polygon fill="midnightblue" stroke="midnightblue" points="311.497,-258.59 301.065,-260.439 310.373,-265.499 311.497,-258.59"/>
</g>
<!-- Node24 -->
<g id="node9" class="node"><title>Node24</title>
<g id="a_node9"><a xlink:href="../../dc/d29/classocra_1_1SubjectBase.html" target="_top" xlink:title="ocra::SubjectBase\&lt;\l EVT_RESIZE \&gt;">
<polygon fill="white" stroke="black" points="41.25,-267.5 41.25,-295.5 144.247,-295.5 144.247,-267.5 41.25,-267.5"/>
<text text-anchor="start" x="49.25" y="-283.5" font-family="Helvetica,sans-Serif" font-size="10.00">ocra::SubjectBase&lt;</text>
<text text-anchor="middle" x="92.7485" y="-273.5" font-family="Helvetica,sans-Serif" font-size="10.00"> EVT_RESIZE &gt;</text>
</a>
</g>
</g>
<!-- Node24&#45;&gt;Node23 -->
<g id="edge8" class="edge"><title>Node24&#45;&gt;Node23</title>
<path fill="none" stroke="midnightblue" d="M154.489,-271.785C178.489,-267.947 205.266,-263.664 226.162,-260.322"/>
<polygon fill="midnightblue" stroke="midnightblue" points="153.72,-268.364 144.399,-273.399 154.826,-275.276 153.72,-268.364"/>
</g>
<!-- Node25 -->
<g id="node10" class="node"><title>Node25</title>
<g id="a_node10"><a xlink:href="../../dc/d29/classocra_1_1SubjectBase.html" target="_top" xlink:title="ocra::SubjectBase\&lt;\l EVT_CHANGE_DEPENDENCIES \&gt;">
<polygon fill="white" stroke="black" points="2.91992,-220.5 2.91992,-248.5 182.577,-248.5 182.577,-220.5 2.91992,-220.5"/>
<text text-anchor="start" x="10.9199" y="-236.5" font-family="Helvetica,sans-Serif" font-size="10.00">ocra::SubjectBase&lt;</text>
<text text-anchor="middle" x="92.7485" y="-226.5" font-family="Helvetica,sans-Serif" font-size="10.00"> EVT_CHANGE_DEPENDENCIES &gt;</text>
</a>
</g>
</g>
<!-- Node25&#45;&gt;Node23 -->
<g id="edge9" class="edge"><title>Node25&#45;&gt;Node23</title>
<path fill="none" stroke="midnightblue" d="M192.668,-246.219C204.562,-247.628 216.06,-248.991 226.178,-250.189"/>
<polygon fill="midnightblue" stroke="midnightblue" points="192.948,-242.728 182.605,-245.027 192.124,-249.679 192.948,-242.728"/>
</g>
<!-- Node26 -->
<g id="node11" class="node"><title>Node26</title>
<g id="a_node11"><a xlink:href="../../dc/d29/classocra_1_1SubjectBase.html" target="_top" xlink:title="ocra::SubjectBase\&lt;\l EVT_CHANGE_VALUE \&gt;">
<polygon fill="white" stroke="black" points="26.3452,-173.5 26.3452,-201.5 159.152,-201.5 159.152,-173.5 26.3452,-173.5"/>
<text text-anchor="start" x="34.3452" y="-189.5" font-family="Helvetica,sans-Serif" font-size="10.00">ocra::SubjectBase&lt;</text>
<text text-anchor="middle" x="92.7485" y="-179.5" font-family="Helvetica,sans-Serif" font-size="10.00"> EVT_CHANGE_VALUE &gt;</text>
</a>
</g>
</g>
<!-- Node26&#45;&gt;Node23 -->
<g id="edge10" class="edge"><title>Node26&#45;&gt;Node23</title>
<path fill="none" stroke="midnightblue" d="M168.784,-204.498C174.5,-206.342 180.129,-208.342 185.497,-210.5 209.084,-219.981 234.281,-235.519 249.214,-245.367"/>
<polygon fill="midnightblue" stroke="midnightblue" points="169.7,-201.119 159.114,-201.542 167.653,-207.813 169.7,-201.119"/>
</g>
<!-- Node27 -->
<g id="node12" class="node"><title>Node27</title>
<g id="a_node12"><a xlink:href="../../dd/d68/classocra_1_1IFunctionProperties.html" target="_top" xlink:title="ocra::IFunctionProperties">
<polygon fill="white" stroke="black" points="601.034,-232.5 601.034,-250.5 728.752,-250.5 728.752,-232.5 601.034,-232.5"/>
<text text-anchor="middle" x="664.893" y="-238.5" font-family="Helvetica,sans-Serif" font-size="10.00">ocra::IFunctionProperties</text>
</a>
</g>
</g>
<!-- Node27&#45;&gt;Node17 -->
<g id="edge11" class="edge"><title>Node27&#45;&gt;Node17</title>
<path fill="none" stroke="midnightblue" d="M722.589,-229.982C730.801,-227.796 739.08,-225.302 746.792,-222.5 776.53,-211.697 782.567,-205.578 810.383,-190.5 824.598,-182.795 840.483,-173.484 851.812,-166.72"/>
<polygon fill="midnightblue" stroke="midnightblue" points="721.484,-226.651 712.647,-232.495 723.199,-233.438 721.484,-226.651"/>
</g>
<!-- Node28 -->
<g id="node13" class="node"><title>Node28</title>
<polygon fill="white" stroke="#bfbfbf" points="582.994,-185.5 582.994,-213.5 746.792,-213.5 746.792,-185.5 582.994,-185.5"/>
<text text-anchor="start" x="590.994" y="-201.5" font-family="Helvetica,sans-Serif" font-size="10.00">OCRA_FUNCTION_INTERFACE</text>
<text text-anchor="middle" x="664.893" y="-191.5" font-family="Helvetica,sans-Serif" font-size="10.00">_INHERITANCEpublic</text>
</g>
<!-- Node28&#45;&gt;Node17 -->
<g id="edge12" class="edge"><title>Node28&#45;&gt;Node17</title>
<path fill="none" stroke="#8b1a1a" d="M752.1,-183.538C771.321,-179.772 791.577,-175.642 810.383,-171.5 817.312,-169.974 824.69,-168.236 831.753,-166.515"/>
<polygon fill="#8b1a1a" stroke="#8b1a1a" points="751.303,-180.127 742.155,-185.472 752.639,-186.998 751.303,-180.127"/>
</g>
<!-- Node29 -->
<g id="node14" class="node"><title>Node29</title>
<g id="a_node14"><a xlink:href="../../db/de3/classocra_1_1NamedInstance.html" target="_top" xlink:title="ocra::NamedInstance">
<polygon fill="white" stroke="black" points="609.369,-148.5 609.369,-166.5 720.417,-166.5 720.417,-148.5 609.369,-148.5"/>
<text text-anchor="middle" x="664.893" y="-154.5" font-family="Helvetica,sans-Serif" font-size="10.00">ocra::NamedInstance</text>
</a>
</g>
</g>
<!-- Node29&#45;&gt;Node17 -->
<g id="edge13" class="edge"><title>Node29&#45;&gt;Node17</title>
<path fill="none" stroke="midnightblue" d="M730.822,-157.5C762.976,-157.5 800.714,-157.5 828.309,-157.5"/>
<polygon fill="midnightblue" stroke="midnightblue" points="730.598,-154 720.598,-157.5 730.598,-161 730.598,-154"/>
</g>
<!-- Node30 -->
<g id="node15" class="node"><title>Node30</title>
<g id="a_node15"><a xlink:href="../../d8/d24/classocra_1_1AbilitySet.html" target="_top" xlink:title="ocra::AbilitySet">
<polygon fill="white" stroke="black" points="623.546,-111.5 623.546,-129.5 706.24,-129.5 706.24,-111.5 623.546,-111.5"/>
<text text-anchor="middle" x="664.893" y="-117.5" font-family="Helvetica,sans-Serif" font-size="10.00">ocra::AbilitySet</text>
</a>
</g>
</g>
<!-- Node30&#45;&gt;Node17 -->
<g id="edge14" class="edge"><title>Node30&#45;&gt;Node17</title>
<path fill="none" stroke="midnightblue" d="M716.521,-129.812C751.131,-136.177 796.32,-144.488 828.124,-150.338"/>
<polygon fill="midnightblue" stroke="midnightblue" points="717.071,-126.354 706.603,-127.988 715.805,-133.239 717.071,-126.354"/>
</g>
<!-- Node31 -->
<g id="node16" class="node"><title>Node31</title>
<g id="a_node16"><a xlink:href="../../d5/dc0/classocra_1_1CoupledInputOutputSize.html" target="_top" xlink:title="ocra::CoupledInputOutputSize">
<polygon fill="white" stroke="black" points="589.906,-74.5 589.906,-92.5 739.88,-92.5 739.88,-74.5 589.906,-74.5"/>
<text text-anchor="middle" x="664.893" y="-80.5" font-family="Helvetica,sans-Serif" font-size="10.00">ocra::CoupledInputOutputSize</text>
</a>
</g>
</g>
<!-- Node31&#45;&gt;Node17 -->
<g id="edge15" class="edge"><title>Node31&#45;&gt;Node17</title>
<path fill="none" stroke="midnightblue" d="M724.573,-94.9742C732.12,-96.9109 739.687,-99.0875 746.792,-101.5 785.178,-114.534 827.631,-136.115 850.415,-148.33"/>
<polygon fill="midnightblue" stroke="midnightblue" points="725.25,-91.5368 714.706,-92.5669 723.591,-98.3373 725.25,-91.5368"/>
</g>
<!-- Node32 -->
<g id="node17" class="node"><title>Node32</title>
<polygon fill="white" stroke="#bfbfbf" points="636.6,-37.5 636.6,-55.5 693.186,-55.5 693.186,-37.5 636.6,-37.5"/>
<text text-anchor="middle" x="664.893" y="-43.5" font-family="Helvetica,sans-Serif" font-size="10.00">VectorXd</text>
</g>
<!-- Node32&#45;&gt;Node17 -->
<g id="edge16" class="edge"><title>Node32&#45;&gt;Node17</title>
<path fill="none" stroke="#9a32cd" stroke-dasharray="5,2" d="M703.303,-52.5056C734.399,-58.9711 778.55,-71.7058 810.383,-95.5 831.176,-111.042 850.457,-134.946 860.276,-148.069"/>
<polygon fill="#9a32cd" stroke="#9a32cd" points="703.781,-49.0327 693.294,-50.5463 702.436,-55.9023 703.781,-49.0327"/>
<text text-anchor="middle" x="787.587" y="-97.5" font-family="Helvetica,sans-Serif" font-size="10.00"> _value</text>
</g>
<!-- Node33 -->
<g id="node18" class="node"><title>Node33</title>
<polygon fill="white" stroke="#bfbfbf" points="637.167,-0.5 637.167,-18.5 692.62,-18.5 692.62,-0.5 637.167,-0.5"/>
<text text-anchor="middle" x="664.893" y="-6.5" font-family="Helvetica,sans-Serif" font-size="10.00">MatrixXd</text>
</g>
<!-- Node33&#45;&gt;Node17 -->
<g id="edge17" class="edge"><title>Node33&#45;&gt;Node17</title>
<path fill="none" stroke="#9a32cd" stroke-dasharray="5,2" d="M702.62,-13.4253C734.721,-18.6529 780.713,-30.738 810.383,-58.5 838.872,-85.1578 857.081,-129.413 863.96,-148.396"/>
<polygon fill="#9a32cd" stroke="#9a32cd" points="703.129,-9.96263 692.724,-11.9578 702.102,-16.8869 703.129,-9.96263"/>
<text text-anchor="middle" x="787.587" y="-60.5" font-family="Helvetica,sans-Serif" font-size="10.00"> _jacobian</text>
</g>
<!-- Node34&#45;&gt;Node17 -->
<g id="edge18" class="edge"><title>Node34&#45;&gt;Node17</title>
<path fill="none" stroke="#9a32cd" stroke-dasharray="5,2" d="M713.722,-328.301C744.543,-325.161 783.699,-316.438 810.383,-293.5 850.537,-258.984 862.814,-191.367 866.043,-166.747"/>
<polygon fill="#9a32cd" stroke="#9a32cd" points="713.285,-324.825 703.619,-329.164 713.881,-331.8 713.285,-324.825"/>
<text text-anchor="middle" x="787.587" y="-319.5" font-family="Helvetica,sans-Serif" font-size="10.00"> x</text>
</g>
<!-- Node35 -->
<g id="node20" class="node"><title>Node35</title>
<g id="a_node20"><a xlink:href="../../d0/d29/classocra_1_1Component.html" target="_top" xlink:title="ocra::Component\&lt; Variable,\l CompositeVariable, VariableParenthood \&gt;">
<polygon fill="white" stroke="black" points="341.63,-397.5 341.63,-425.5 545.994,-425.5 545.994,-397.5 341.63,-397.5"/>
<text text-anchor="start" x="349.63" y="-413.5" font-family="Helvetica,sans-Serif" font-size="10.00">ocra::Component&lt; Variable,</text>
<text text-anchor="middle" x="443.812" y="-403.5" font-family="Helvetica,sans-Serif" font-size="10.00"> CompositeVariable, VariableParenthood &gt;</text>
</a>
</g>
</g>
<!-- Node35&#45;&gt;Node34 -->
<g id="edge19" class="edge"><title>Node35&#45;&gt;Node34</title>
<path fill="none" stroke="midnightblue" d="M523.085,-394.794C530.896,-392.574 538.647,-390.141 545.994,-387.5 584.205,-373.766 626.278,-351.09 648.369,-338.547"/>
<polygon fill="midnightblue" stroke="midnightblue" points="521.914,-391.486 513.187,-397.493 523.756,-398.239 521.914,-391.486"/>
</g>
<!-- Node36 -->
<g id="node21" class="node"><title>Node36</title>
<polygon fill="white" stroke="#bfbfbf" points="407.455,-360.5 407.455,-378.5 480.169,-378.5 480.169,-360.5 407.455,-360.5"/>
<text text-anchor="middle" x="443.812" y="-366.5" font-family="Helvetica,sans-Serif" font-size="10.00">noncopyable</text>
</g>
<!-- Node36&#45;&gt;Node34 -->
<g id="edge21" class="edge"><title>Node36&#45;&gt;Node34</title>
<path fill="none" stroke="#8b1a1a" d="M490.591,-361.142C530.871,-353.787 588.795,-343.212 626.386,-336.348"/>
<polygon fill="#8b1a1a" stroke="#8b1a1a" points="489.707,-357.745 480.499,-362.984 490.965,-364.631 489.707,-357.745"/>
</g>
<!-- Node37 -->
<g id="node22" class="node"><title>Node37</title>
<g id="a_node22"><a xlink:href="../../dc/d20/classocra_1_1VariableHasRestrictedClassDerivation.html" target="_top" xlink:title="ocra::VariableHasRestricted\lClassDerivation">
<polygon fill="white" stroke="black" points="373.932,-313.5 373.932,-341.5 513.692,-341.5 513.692,-313.5 373.932,-313.5"/>
<text text-anchor="start" x="381.932" y="-329.5" font-family="Helvetica,sans-Serif" font-size="10.00">ocra::VariableHasRestricted</text>
<text text-anchor="middle" x="443.812" y="-319.5" font-family="Helvetica,sans-Serif" font-size="10.00">ClassDerivation</text>
</a>
</g>
</g>
<!-- Node37&#45;&gt;Node34 -->
<g id="edge22" class="edge"><title>Node37&#45;&gt;Node34</title>
<path fill="none" stroke="#8b1a1a" d="M523.996,-328.223C558.816,-328.541 598.079,-328.899 626.126,-329.155"/>
<polygon fill="#8b1a1a" stroke="#8b1a1a" points="523.861,-324.722 513.83,-328.13 523.798,-331.721 523.861,-324.722"/>
</g>
</g>
</svg>
