<?xml version="1.0" encoding="UTF-8" standalone="no"?>
<!DOCTYPE svg PUBLIC "-//W3C//DTD SVG 1.1//EN"
 "http://www.w3.org/Graphics/SVG/1.1/DTD/svg11.dtd">
<!-- Generated by graphviz version 2.38.0 (20140413.2041)
 -->
<!-- Title: ServerCommunications.h Pages: 1 -->
<svg width="267pt" height="137pt"
 viewBox="0.00 0.00 266.99 137.00" xmlns="http://www.w3.org/2000/svg" xmlns:xlink="http://www.w3.org/1999/xlink">
<g id="graph0" class="graph" transform="scale(1 1) rotate(0) translate(4 133)">
<title>ServerCommunications.h</title>
<polygon fill="white" stroke="none" points="-4,4 -4,-133 262.992,-133 262.992,4 -4,4"/>
<!-- Node120 -->
<g id="node1" class="node"><title>Node120</title>
<polygon fill="#bfbfbf" stroke="black" points="57.4458,-110.5 57.4458,-128.5 185.711,-128.5 185.711,-110.5 57.4458,-110.5"/>
<text text-anchor="middle" x="121.579" y="-116.5" font-family="Helvetica,sans-Serif" font-size="10.00">ServerCommunications.h</text>
</g>
<!-- Node121 -->
<g id="node2" class="node"><title>Node121</title>
<g id="a_node2"><a xlink:href="../../da/d7c/ControllerServer_8h.html" target="_top" xlink:title="ControllerServer.h">
<polygon fill="white" stroke="black" points="5.28076,-55.5 5.28076,-73.5 101.876,-73.5 101.876,-55.5 5.28076,-55.5"/>
<text text-anchor="middle" x="53.5786" y="-61.5" font-family="Helvetica,sans-Serif" font-size="10.00">ControllerServer.h</text>
</a>
</g>
</g>
<!-- Node120&#45;&gt;Node121 -->
<g id="edge1" class="edge"><title>Node120&#45;&gt;Node121</title>
<path fill="none" stroke="midnightblue" d="M103.244,-104.21C90.6646,-94.4052 74.4244,-81.7474 64.0035,-73.6253"/>
<polygon fill="midnightblue" stroke="midnightblue" points="101.212,-107.064 111.251,-110.45 105.515,-101.542 101.212,-107.064"/>
</g>
<!-- Node123 -->
<g id="node4" class="node"><title>Node123</title>
<g id="a_node4"><a xlink:href="../../dc/dac/ServerCommunications_8cpp.html" target="_top" xlink:title="ServerCommunications.cpp">
<polygon fill="white" stroke="black" points="120.165,-55.5 120.165,-73.5 258.992,-73.5 258.992,-55.5 120.165,-55.5"/>
<text text-anchor="middle" x="189.579" y="-61.5" font-family="Helvetica,sans-Serif" font-size="10.00">ServerCommunications.cpp</text>
</a>
</g>
</g>
<!-- Node120&#45;&gt;Node123 -->
<g id="edge3" class="edge"><title>Node120&#45;&gt;Node123</title>
<path fill="none" stroke="midnightblue" d="M139.914,-104.21C152.493,-94.4052 168.733,-81.7474 179.154,-73.6253"/>
<polygon fill="midnightblue" stroke="midnightblue" points="137.642,-101.542 131.906,-110.45 141.945,-107.064 137.642,-101.542"/>
</g>
<!-- Node122 -->
<g id="node3" class="node"><title>Node122</title>
<g id="a_node3"><a xlink:href="../../d5/dd2/ControllerServer_8cpp.html" target="_top" xlink:title="ControllerServer.cpp">
<polygon fill="white" stroke="black" points="0,-0.5 0,-18.5 107.157,-18.5 107.157,-0.5 0,-0.5"/>
<text text-anchor="middle" x="53.5786" y="-6.5" font-family="Helvetica,sans-Serif" font-size="10.00">ControllerServer.cpp</text>
</a>
</g>
</g>
<!-- Node121&#45;&gt;Node122 -->
<g id="edge2" class="edge"><title>Node121&#45;&gt;Node122</title>
<path fill="none" stroke="midnightblue" d="M53.5786,-45.1746C53.5786,-36.0945 53.5786,-25.5949 53.5786,-18.5496"/>
<polygon fill="midnightblue" stroke="midnightblue" points="50.0787,-45.2187 53.5786,-55.2188 57.0787,-45.2188 50.0787,-45.2187"/>
</g>
</g>
</svg>
