<?xml version="1.0" encoding="UTF-8" standalone="no"?>
<!DOCTYPE svg PUBLIC "-//W3C//DTD SVG 1.1//EN"
 "http://www.w3.org/Graphics/SVG/1.1/DTD/svg11.dtd">
<!-- Generated by graphviz version 2.38.0 (20140413.2041)
 -->
<!-- Title: Buffer.h Pages: 1 -->
<svg width="314pt" height="137pt"
 viewBox="0.00 0.00 313.59 137.00" xmlns="http://www.w3.org/2000/svg" xmlns:xlink="http://www.w3.org/1999/xlink">
<g id="graph0" class="graph" transform="scale(1 1) rotate(0) translate(4 133)">
<title>Buffer.h</title>
<polygon fill="white" stroke="none" points="-4,4 -4,-133 309.593,-133 309.593,4 -4,4"/>
<!-- Node1 -->
<g id="node1" class="node"><title>Node1</title>
<polygon fill="#bfbfbf" stroke="black" points="127.814,-110.5 127.814,-128.5 178.111,-128.5 178.111,-110.5 127.814,-110.5"/>
<text text-anchor="middle" x="152.963" y="-116.5" font-family="Helvetica,sans-Serif" font-size="10.00">Buffer.h</text>
</g>
<!-- Node2 -->
<g id="node2" class="node"><title>Node2</title>
<g id="a_node2"><a xlink:href="../../dc/d89/FSQPSolver_8h.html" target="_top" xlink:title="Declaration file of the FSQPSolver class. ">
<polygon fill="white" stroke="black" points="7.28076,-55.5 7.28076,-73.5 86.645,-73.5 86.645,-55.5 7.28076,-55.5"/>
<text text-anchor="middle" x="46.9629" y="-61.5" font-family="Helvetica,sans-Serif" font-size="10.00">FSQPSolver.h</text>
</a>
</g>
</g>
<!-- Node1&#45;&gt;Node2 -->
<g id="edge1" class="edge"><title>Node1&#45;&gt;Node2</title>
<path fill="none" stroke="midnightblue" d="M127.716,-105.877C107.725,-95.8808 80.395,-82.216 63.2135,-73.6253"/>
<polygon fill="midnightblue" stroke="midnightblue" points="126.354,-109.109 136.864,-110.45 129.485,-102.848 126.354,-109.109"/>
</g>
<!-- Node4 -->
<g id="node4" class="node"><title>Node4</title>
<g id="a_node4"><a xlink:href="../../d1/d88/NewtonSolver_8h.html" target="_top" xlink:title="Declaration file of the NewtonSolver class. ">
<polygon fill="white" stroke="black" points="109.941,-55.5 109.941,-73.5 195.985,-73.5 195.985,-55.5 109.941,-55.5"/>
<text text-anchor="middle" x="152.963" y="-61.5" font-family="Helvetica,sans-Serif" font-size="10.00">NewtonSolver.h</text>
</a>
</g>
</g>
<!-- Node1&#45;&gt;Node4 -->
<g id="edge3" class="edge"><title>Node1&#45;&gt;Node4</title>
<path fill="none" stroke="midnightblue" d="M152.963,-100.175C152.963,-91.0945 152.963,-80.5949 152.963,-73.5496"/>
<polygon fill="midnightblue" stroke="midnightblue" points="149.463,-100.219 152.963,-110.219 156.463,-100.219 149.463,-100.219"/>
</g>
<!-- Node6 -->
<g id="node6" class="node"><title>Node6</title>
<g id="a_node6"><a xlink:href="../../da/d52/QLDSolver_8h.html" target="_top" xlink:title="Declaration file of the QLDSolver class. ">
<polygon fill="white" stroke="black" points="213.613,-55.5 213.613,-73.5 286.312,-73.5 286.312,-55.5 213.613,-55.5"/>
<text text-anchor="middle" x="249.963" y="-61.5" font-family="Helvetica,sans-Serif" font-size="10.00">QLDSolver.h</text>
</a>
</g>
</g>
<!-- Node1&#45;&gt;Node6 -->
<g id="edge5" class="edge"><title>Node1&#45;&gt;Node6</title>
<path fill="none" stroke="midnightblue" d="M176.567,-105.603C194.814,-95.6328 219.512,-82.1379 235.092,-73.6253"/>
<polygon fill="midnightblue" stroke="midnightblue" points="174.792,-102.584 167.695,-110.45 178.149,-108.727 174.792,-102.584"/>
</g>
<!-- Node3 -->
<g id="node3" class="node"><title>Node3</title>
<g id="a_node3"><a xlink:href="../../d4/d2f/FSQPSolver_8cpp.html" target="_top" xlink:title="FSQPSolver.cpp">
<polygon fill="white" stroke="black" points="0,-0.5 0,-18.5 89.9258,-18.5 89.9258,-0.5 0,-0.5"/>
<text text-anchor="middle" x="44.9629" y="-6.5" font-family="Helvetica,sans-Serif" font-size="10.00">FSQPSolver.cpp</text>
</a>
</g>
</g>
<!-- Node2&#45;&gt;Node3 -->
<g id="edge2" class="edge"><title>Node2&#45;&gt;Node3</title>
<path fill="none" stroke="midnightblue" d="M46.2714,-45.1746C45.9287,-36.0945 45.5325,-25.5949 45.2666,-18.5496"/>
<polygon fill="midnightblue" stroke="midnightblue" points="42.7757,-45.3579 46.6504,-55.2188 49.7707,-45.0938 42.7757,-45.3579"/>
</g>
<!-- Node5 -->
<g id="node5" class="node"><title>Node5</title>
<g id="a_node5"><a xlink:href="../../d2/dcc/NewtonSolver_8cpp.html" target="_top" xlink:title="NewtonSolver.cpp">
<polygon fill="white" stroke="black" points="107.66,-0.5 107.66,-18.5 204.266,-18.5 204.266,-0.5 107.66,-0.5"/>
<text text-anchor="middle" x="155.963" y="-6.5" font-family="Helvetica,sans-Serif" font-size="10.00">NewtonSolver.cpp</text>
</a>
</g>
</g>
<!-- Node4&#45;&gt;Node5 -->
<g id="edge4" class="edge"><title>Node4&#45;&gt;Node5</title>
<path fill="none" stroke="midnightblue" d="M154,-45.1746C154.514,-36.0945 155.108,-25.5949 155.507,-18.5496"/>
<polygon fill="midnightblue" stroke="midnightblue" points="150.502,-45.0369 153.432,-55.2188 157.491,-45.4326 150.502,-45.0369"/>
</g>
<!-- Node6&#45;&gt;Node5 -->
<g id="edge6" class="edge"><title>Node6&#45;&gt;Node5</title>
<path fill="none" stroke="midnightblue" d="M226.601,-50.3277C208.968,-40.3856 185.333,-27.0598 170.374,-18.6253"/>
<polygon fill="midnightblue" stroke="midnightblue" points="225.256,-53.5878 235.686,-55.4504 228.695,-47.4902 225.256,-53.5878"/>
</g>
<!-- Node7 -->
<g id="node7" class="node"><title>Node7</title>
<g id="a_node7"><a xlink:href="../../da/db2/QLDSolver_8cpp.html" target="_top" xlink:title="QLDSolver.cpp">
<polygon fill="white" stroke="black" points="222.333,-0.5 222.333,-18.5 305.593,-18.5 305.593,-0.5 222.333,-0.5"/>
<text text-anchor="middle" x="263.963" y="-6.5" font-family="Helvetica,sans-Serif" font-size="10.00">QLDSolver.cpp</text>
</a>
</g>
</g>
<!-- Node6&#45;&gt;Node7 -->
<g id="edge7" class="edge"><title>Node6&#45;&gt;Node7</title>
<path fill="none" stroke="midnightblue" d="M254.725,-45.4734C257.141,-36.3257 259.955,-25.6724 261.837,-18.5496"/>
<polygon fill="midnightblue" stroke="midnightblue" points="251.32,-44.6565 252.15,-55.2188 258.088,-46.4443 251.32,-44.6565"/>
</g>
</g>
</svg>
