<?xml version="1.0" encoding="UTF-8" standalone="no"?>
<!DOCTYPE svg PUBLIC "-//W3C//DTD SVG 1.1//EN"
 "http://www.w3.org/Graphics/SVG/1.1/DTD/svg11.dtd">
<!-- Generated by graphviz version 2.38.0 (20140413.2041)
 -->
<!-- Title: ocra::CoupledInputOutputSize Pages: 1 -->
<svg width="839pt" height="632pt"
 viewBox="0.00 0.00 838.84 632.00" xmlns="http://www.w3.org/2000/svg" xmlns:xlink="http://www.w3.org/1999/xlink">
<g id="graph0" class="graph" transform="scale(1 1) rotate(0) translate(4 628)">
<title>ocra::CoupledInputOutputSize</title>
<polygon fill="white" stroke="none" points="-4,4 -4,-628 834.841,-628 834.841,4 -4,4"/>
<!-- Node0 -->
<g id="node1" class="node"><title>Node0</title>
<polygon fill="#bfbfbf" stroke="black" points="0,-287.5 0,-305.5 149.975,-305.5 149.975,-287.5 0,-287.5"/>
<text text-anchor="middle" x="74.9873" y="-293.5" font-family="Helvetica,sans-Serif" font-size="10.00">ocra::CoupledInputOutputSize</text>
</g>
<!-- Node1 -->
<g id="node2" class="node"><title>Node1</title>
<g id="a_node2"><a xlink:href="../../d2/d99/classocra_1_1Function.html" target="_top" xlink:title="Function class. ">
<polygon fill="white" stroke="black" points="185.975,-287.5 185.975,-305.5 265.339,-305.5 265.339,-287.5 185.975,-287.5"/>
<text text-anchor="middle" x="225.657" y="-293.5" font-family="Helvetica,sans-Serif" font-size="10.00">ocra::Function</text>
</a>
</g>
</g>
<!-- Node0&#45;&gt;Node1 -->
<g id="edge1" class="edge"><title>Node0&#45;&gt;Node1</title>
<path fill="none" stroke="midnightblue" d="M160.583,-296.5C169.274,-296.5 177.774,-296.5 185.596,-296.5"/>
<polygon fill="midnightblue" stroke="midnightblue" points="160.322,-293 150.322,-296.5 160.322,-300 160.322,-293"/>
</g>
<!-- Node2 -->
<g id="node3" class="node"><title>Node2</title>
<g id="a_node3"><a xlink:href="../../d1/d44/classFunction1.html" target="_top" xlink:title="Function1">
<polygon fill="white" stroke="black" points="336.356,-472.5 336.356,-490.5 396.272,-490.5 396.272,-472.5 336.356,-472.5"/>
<text text-anchor="middle" x="366.314" y="-478.5" font-family="Helvetica,sans-Serif" font-size="10.00">Function1</text>
</a>
</g>
</g>
<!-- Node1&#45;&gt;Node2 -->
<g id="edge2" class="edge"><title>Node1&#45;&gt;Node2</title>
<path fill="none" stroke="midnightblue" d="M229.832,-315.955C236.557,-350.814 255.553,-423.964 301.339,-463.5 311.032,-471.87 324.347,-476.366 336.321,-478.773"/>
<polygon fill="midnightblue" stroke="midnightblue" points="233.205,-314.933 228.001,-305.704 226.314,-316.164 233.205,-314.933"/>
</g>
<!-- Node3 -->
<g id="node4" class="node"><title>Node3</title>
<g id="a_node4"><a xlink:href="../../d6/d7e/classFunction2.html" target="_top" xlink:title="Function2">
<polygon fill="white" stroke="black" points="336.356,-435.5 336.356,-453.5 396.272,-453.5 396.272,-435.5 336.356,-435.5"/>
<text text-anchor="middle" x="366.314" y="-441.5" font-family="Helvetica,sans-Serif" font-size="10.00">Function2</text>
</a>
</g>
</g>
<!-- Node1&#45;&gt;Node3 -->
<g id="edge3" class="edge"><title>Node1&#45;&gt;Node3</title>
<path fill="none" stroke="midnightblue" d="M232.298,-315.199C241.827,-343.573 263.832,-397.281 301.339,-426.5 311.26,-434.229 324.331,-438.639 336.07,-441.156"/>
<polygon fill="midnightblue" stroke="midnightblue" points="235.63,-314.128 229.25,-305.669 228.962,-316.26 235.63,-314.128"/>
</g>
<!-- Node4 -->
<g id="node5" class="node"><title>Node4</title>
<g id="a_node5"><a xlink:href="../../d9/d4a/classFunction3.html" target="_top" xlink:title="Function3">
<polygon fill="white" stroke="black" points="336.356,-398.5 336.356,-416.5 396.272,-416.5 396.272,-398.5 336.356,-398.5"/>
<text text-anchor="middle" x="366.314" y="-404.5" font-family="Helvetica,sans-Serif" font-size="10.00">Function3</text>
</a>
</g>
</g>
<!-- Node1&#45;&gt;Node4 -->
<g id="edge4" class="edge"><title>Node1&#45;&gt;Node4</title>
<path fill="none" stroke="midnightblue" d="M236.511,-314.658C248.896,-335.768 272.113,-370.175 301.339,-389.5 311.733,-396.373 324.743,-400.651 336.312,-403.299"/>
<polygon fill="midnightblue" stroke="midnightblue" points="239.435,-312.719 231.462,-305.742 233.344,-316.168 239.435,-312.719"/>
</g>
<!-- Node5 -->
<g id="node6" class="node"><title>Node5</title>
<g id="a_node6"><a xlink:href="../../db/d8c/classMyFunction.html" target="_top" xlink:title="MyFunction">
<polygon fill="white" stroke="black" points="332.472,-361.5 332.472,-379.5 400.156,-379.5 400.156,-361.5 332.472,-361.5"/>
<text text-anchor="middle" x="366.314" y="-367.5" font-family="Helvetica,sans-Serif" font-size="10.00">MyFunction</text>
</a>
</g>
</g>
<!-- Node1&#45;&gt;Node5 -->
<g id="edge5" class="edge"><title>Node1&#45;&gt;Node5</title>
<path fill="none" stroke="midnightblue" d="M244.092,-312.541C258.489,-325.022 279.962,-341.94 301.339,-352.5 310.959,-357.253 322.033,-360.928 332.234,-363.681"/>
<polygon fill="midnightblue" stroke="midnightblue" points="246.288,-309.81 236.486,-305.787 241.639,-315.044 246.288,-309.81"/>
</g>
<!-- Node6 -->
<g id="node7" class="node"><title>Node6</title>
<g id="a_node7"><a xlink:href="../../db/da4/classocra_1_1DotProductFunction.html" target="_top" xlink:title="DotProductFunction class. ">
<polygon fill="white" stroke="black" points="301.62,-324.5 301.62,-342.5 431.008,-342.5 431.008,-324.5 301.62,-324.5"/>
<text text-anchor="middle" x="366.314" y="-330.5" font-family="Helvetica,sans-Serif" font-size="10.00">ocra::DotProductFunction</text>
</a>
</g>
</g>
<!-- Node1&#45;&gt;Node6 -->
<g id="edge6" class="edge"><title>Node1&#45;&gt;Node6</title>
<path fill="none" stroke="midnightblue" d="M270.244,-308.131C289.938,-313.386 312.862,-319.503 331.264,-324.414"/>
<polygon fill="midnightblue" stroke="midnightblue" points="271.14,-304.748 260.576,-305.551 269.336,-311.511 271.14,-304.748"/>
</g>
<!-- Node7 -->
<g id="node8" class="node"><title>Node7</title>
<g id="a_node8"><a xlink:href="../../de/d3a/classocra_1_1LinearFunction.html" target="_top" xlink:title="LinearFunction class. ">
<polygon fill="white" stroke="black" points="312.733,-287.5 312.733,-305.5 419.895,-305.5 419.895,-287.5 312.733,-287.5"/>
<text text-anchor="middle" x="366.314" y="-293.5" font-family="Helvetica,sans-Serif" font-size="10.00">ocra::LinearFunction</text>
</a>
</g>
</g>
<!-- Node1&#45;&gt;Node7 -->
<g id="edge7" class="edge"><title>Node1&#45;&gt;Node7</title>
<path fill="none" stroke="midnightblue" d="M275.862,-296.5C287.782,-296.5 300.572,-296.5 312.645,-296.5"/>
<polygon fill="midnightblue" stroke="midnightblue" points="275.65,-293 265.649,-296.5 275.649,-300 275.65,-293"/>
</g>
<!-- Node26 -->
<g id="node27" class="node"><title>Node26</title>
<g id="a_node27"><a xlink:href="../../dd/d93/classocra_1_1Pb114G10.html" target="_top" xlink:title="ocra::Pb114G10">
<polygon fill="white" stroke="black" points="322.269,-250.5 322.269,-268.5 410.359,-268.5 410.359,-250.5 322.269,-250.5"/>
<text text-anchor="middle" x="366.314" y="-256.5" font-family="Helvetica,sans-Serif" font-size="10.00">ocra::Pb114G10</text>
</a>
</g>
</g>
<!-- Node1&#45;&gt;Node26 -->
<g id="edge26" class="edge"><title>Node1&#45;&gt;Node26</title>
<path fill="none" stroke="midnightblue" d="M270.244,-284.869C289.938,-279.614 312.862,-273.497 331.264,-268.586"/>
<polygon fill="midnightblue" stroke="midnightblue" points="269.336,-281.489 260.576,-287.449 271.14,-288.252 269.336,-281.489"/>
</g>
<!-- Node27 -->
<g id="node28" class="node"><title>Node27</title>
<g id="a_node28"><a xlink:href="../../da/d6c/classocra_1_1Pb114G11.html" target="_top" xlink:title="ocra::Pb114G11">
<polygon fill="white" stroke="black" points="322.638,-213.5 322.638,-231.5 409.99,-231.5 409.99,-213.5 322.638,-213.5"/>
<text text-anchor="middle" x="366.314" y="-219.5" font-family="Helvetica,sans-Serif" font-size="10.00">ocra::Pb114G11</text>
</a>
</g>
</g>
<!-- Node1&#45;&gt;Node27 -->
<g id="edge27" class="edge"><title>Node1&#45;&gt;Node27</title>
<path fill="none" stroke="midnightblue" d="M244.092,-280.459C258.489,-267.978 279.962,-251.06 301.339,-240.5 308.58,-236.923 316.645,-233.956 324.541,-231.533"/>
<polygon fill="midnightblue" stroke="midnightblue" points="241.639,-277.956 236.486,-287.213 246.288,-283.19 241.639,-277.956"/>
</g>
<!-- Node28 -->
<g id="node29" class="node"><title>Node28</title>
<g id="a_node29"><a xlink:href="../../d9/df1/classocra_1_1Pb114G5.html" target="_top" xlink:title="ocra::Pb114G5">
<polygon fill="white" stroke="black" points="325.05,-176.5 325.05,-194.5 407.578,-194.5 407.578,-176.5 325.05,-176.5"/>
<text text-anchor="middle" x="366.314" y="-182.5" font-family="Helvetica,sans-Serif" font-size="10.00">ocra::Pb114G5</text>
</a>
</g>
</g>
<!-- Node1&#45;&gt;Node28 -->
<g id="edge28" class="edge"><title>Node1&#45;&gt;Node28</title>
<path fill="none" stroke="midnightblue" d="M236.511,-278.342C248.896,-257.232 272.113,-222.825 301.339,-203.5 308.365,-198.854 316.586,-195.394 324.749,-192.822"/>
<polygon fill="midnightblue" stroke="midnightblue" points="233.344,-276.832 231.462,-287.258 239.435,-280.281 233.344,-276.832"/>
</g>
<!-- Node29 -->
<g id="node30" class="node"><title>Node29</title>
<g id="a_node30"><a xlink:href="../../d9/d7e/classocra_1_1QuadraticFunction.html" target="_top" xlink:title="QuadraticFunction class. ">
<polygon fill="white" stroke="black" points="304.955,-84.5 304.955,-102.5 427.673,-102.5 427.673,-84.5 304.955,-84.5"/>
<text text-anchor="middle" x="366.314" y="-90.5" font-family="Helvetica,sans-Serif" font-size="10.00">ocra::QuadraticFunction</text>
</a>
</g>
</g>
<!-- Node1&#45;&gt;Node29 -->
<g id="edge29" class="edge"><title>Node1&#45;&gt;Node29</title>
<path fill="none" stroke="midnightblue" d="M235.656,-278.289C248.722,-252.497 274.35,-204.263 301.339,-166.5 318.78,-142.096 342.897,-116.336 355.973,-102.904"/>
<polygon fill="midnightblue" stroke="midnightblue" points="232.493,-276.789 231.143,-287.297 238.752,-279.924 232.493,-276.789"/>
</g>
<!-- Node33 -->
<g id="node34" class="node"><title>Node33</title>
<g id="a_node34"><a xlink:href="../../df/d5a/classocra_1_1SubtractionFunction.html" target="_top" xlink:title="SubtractionFunction class. ">
<polygon fill="white" stroke="black" points="301.339,-47.5 301.339,-65.5 431.289,-65.5 431.289,-47.5 301.339,-47.5"/>
<text text-anchor="middle" x="366.314" y="-53.5" font-family="Helvetica,sans-Serif" font-size="10.00">ocra::SubtractionFunction</text>
</a>
</g>
</g>
<!-- Node1&#45;&gt;Node33 -->
<g id="edge33" class="edge"><title>Node1&#45;&gt;Node33</title>
<path fill="none" stroke="midnightblue" d="M227.366,-277.125C230.011,-234.197 242.496,-130.459 301.339,-74.5 305.185,-70.8425 309.714,-67.9182 314.558,-65.5818"/>
<polygon fill="midnightblue" stroke="midnightblue" points="223.86,-277.154 226.859,-287.316 230.852,-277.502 223.86,-277.154"/>
</g>
<!-- Node8 -->
<g id="node9" class="node"><title>Node8</title>
<g id="a_node9"><a xlink:href="../../d4/d45/classocra_1_1ContactAvoidanceFunction.html" target="_top" xlink:title="Create a linear function that represents the joint limit function. ">
<polygon fill="white" stroke="black" points="469.877,-553.5 469.877,-571.5 630.228,-571.5 630.228,-553.5 469.877,-553.5"/>
<text text-anchor="middle" x="550.052" y="-559.5" font-family="Helvetica,sans-Serif" font-size="10.00">ocra::ContactAvoidanceFunction</text>
</a>
</g>
</g>
<!-- Node7&#45;&gt;Node8 -->
<g id="edge8" class="edge"><title>Node7&#45;&gt;Node8</title>
<path fill="none" stroke="midnightblue" d="M428.419,-311.61C429.424,-312.52 430.383,-313.482 431.289,-314.5 498.642,-390.128 399.934,-463.874 467.289,-539.5 472.683,-545.556 479.533,-550.072 486.965,-553.43"/>
<polygon fill="midnightblue" stroke="midnightblue" points="430.12,-308.527 419.932,-305.619 426.083,-314.245 430.12,-308.527"/>
</g>
<!-- Node11 -->
<g id="node12" class="node"><title>Node11</title>
<g id="a_node12"><a xlink:href="../../d3/d89/classocra_1_1DiagonalLinearFunction.html" target="_top" xlink:title="DiagonalLinearFunction class. ">
<polygon fill="white" stroke="black" points="476.735,-511.5 476.735,-529.5 623.37,-529.5 623.37,-511.5 476.735,-511.5"/>
<text text-anchor="middle" x="550.052" y="-517.5" font-family="Helvetica,sans-Serif" font-size="10.00">ocra::DiagonalLinearFunction</text>
</a>
</g>
</g>
<!-- Node7&#45;&gt;Node11 -->
<g id="edge11" class="edge"><title>Node7&#45;&gt;Node11</title>
<path fill="none" stroke="midnightblue" d="M427.954,-311.281C429.125,-312.286 430.24,-313.358 431.289,-314.5 488.833,-377.16 407.965,-441.523 467.289,-502.5 470.735,-506.042 474.708,-508.961 479.007,-511.359"/>
<polygon fill="midnightblue" stroke="midnightblue" points="429.752,-308.271 419.511,-305.558 425.825,-314.066 429.752,-308.271"/>
</g>
<!-- Node14 -->
<g id="node15" class="node"><title>Node14</title>
<g id="a_node15"><a xlink:href="../../d4/d5c/classocra_1_1DoubleDiagonalLinearFunction.html" target="_top" xlink:title="DoubleDiagonalLinearFunction class. ">
<polygon fill="white" stroke="black" points="480.067,-464.5 480.067,-492.5 620.037,-492.5 620.037,-464.5 480.067,-464.5"/>
<text text-anchor="start" x="488.067" y="-480.5" font-family="Helvetica,sans-Serif" font-size="10.00">ocra::DoubleDiagonalLinear</text>
<text text-anchor="middle" x="550.052" y="-470.5" font-family="Helvetica,sans-Serif" font-size="10.00">Function</text>
</a>
</g>
</g>
<!-- Node7&#45;&gt;Node14 -->
<g id="edge14" class="edge"><title>Node7&#45;&gt;Node14</title>
<path fill="none" stroke="midnightblue" d="M427.408,-311.002C428.772,-312.087 430.07,-313.251 431.289,-314.5 476.464,-360.786 422.113,-409.216 467.289,-455.5 470.997,-459.299 475.279,-462.484 479.9,-465.153"/>
<polygon fill="midnightblue" stroke="midnightblue" points="429.285,-308.048 418.974,-305.613 425.516,-313.946 429.285,-308.048"/>
</g>
<!-- Node15 -->
<g id="node16" class="node"><title>Node15</title>
<g id="a_node16"><a xlink:href="../../d9/da6/classocra_1_1DynamicEquationFunction.html" target="_top" xlink:title="DynamicEquationFunction class. ">
<polygon fill="white" stroke="black" points="471.183,-427.5 471.183,-445.5 628.921,-445.5 628.921,-427.5 471.183,-427.5"/>
<text text-anchor="middle" x="550.052" y="-433.5" font-family="Helvetica,sans-Serif" font-size="10.00">ocra::DynamicEquationFunction</text>
</a>
</g>
</g>
<!-- Node7&#45;&gt;Node15 -->
<g id="edge15" class="edge"><title>Node7&#45;&gt;Node15</title>
<path fill="none" stroke="midnightblue" d="M426.678,-310.703C428.297,-311.872 429.841,-313.135 431.289,-314.5 466.881,-348.052 430.747,-385.986 467.289,-418.5 471.307,-422.075 475.871,-424.992 480.74,-427.368"/>
<polygon fill="midnightblue" stroke="midnightblue" points="428.431,-307.674 418.038,-305.616 424.879,-313.706 428.431,-307.674"/>
</g>
<!-- Node16 -->
<g id="node17" class="node"><title>Node16</title>
<g id="a_node17"><a xlink:href="../../de/ddd/classocra_1_1FullDynamicEquationFunction.html" target="_top" xlink:title="Create a linear function that represents the dynamic equation of motion. ">
<polygon fill="white" stroke="black" points="482.304,-380.5 482.304,-408.5 617.801,-408.5 617.801,-380.5 482.304,-380.5"/>
<text text-anchor="start" x="490.304" y="-396.5" font-family="Helvetica,sans-Serif" font-size="10.00">ocra::FullDynamicEquation</text>
<text text-anchor="middle" x="550.052" y="-386.5" font-family="Helvetica,sans-Serif" font-size="10.00">Function</text>
</a>
</g>
</g>
<!-- Node7&#45;&gt;Node16 -->
<g id="edge16" class="edge"><title>Node7&#45;&gt;Node16</title>
<path fill="none" stroke="midnightblue" d="M424.234,-309.973C426.701,-311.339 429.068,-312.843 431.289,-314.5 455.307,-332.415 443.271,-353.586 467.289,-371.5 471.899,-374.938 477.002,-377.863 482.341,-380.35"/>
<polygon fill="midnightblue" stroke="midnightblue" points="425.49,-306.696 414.952,-305.608 422.511,-313.031 425.49,-306.696"/>
</g>
<!-- Node17 -->
<g id="node18" class="node"><title>Node17</title>
<g id="a_node18"><a xlink:href="../../df/de0/classocra_1_1JointLimitFunction.html" target="_top" xlink:title="Create a linear function that represents the joint limit function. ">
<polygon fill="white" stroke="black" points="489.252,-343.5 489.252,-361.5 610.853,-361.5 610.853,-343.5 489.252,-343.5"/>
<text text-anchor="middle" x="550.052" y="-349.5" font-family="Helvetica,sans-Serif" font-size="10.00">ocra::JointLimitFunction</text>
</a>
</g>
</g>
<!-- Node7&#45;&gt;Node17 -->
<g id="edge17" class="edge"><title>Node7&#45;&gt;Node17</title>
<path fill="none" stroke="midnightblue" d="M414.987,-308.579C420.548,-310.379 426.088,-312.358 431.289,-314.5 448.213,-321.47 450.171,-328.02 467.289,-334.5 476.669,-338.051 486.932,-340.995 496.921,-343.402"/>
<polygon fill="midnightblue" stroke="midnightblue" points="415.608,-305.109 405.022,-305.534 413.563,-311.803 415.608,-305.109"/>
</g>
<!-- Node20 -->
<g id="node21" class="node"><title>Node20</title>
<g id="a_node21"><a xlink:href="../../d0/dd6/classocra_1_1LinearizedCoulombFunction.html" target="_top" xlink:title="LinearizedCoulombFunction class. ">
<polygon fill="white" stroke="black" points="467.289,-306.5 467.289,-324.5 632.815,-324.5 632.815,-306.5 467.289,-306.5"/>
<text text-anchor="middle" x="550.052" y="-312.5" font-family="Helvetica,sans-Serif" font-size="10.00">ocra::LinearizedCoulombFunction</text>
</a>
</g>
</g>
<!-- Node7&#45;&gt;Node20 -->
<g id="edge20" class="edge"><title>Node7&#45;&gt;Node20</title>
<path fill="none" stroke="midnightblue" d="M430.562,-303.112C442.389,-304.349 454.906,-305.657 467.201,-306.943"/>
<polygon fill="midnightblue" stroke="midnightblue" points="430.679,-299.606 420.369,-302.047 429.951,-306.568 430.679,-299.606"/>
</g>
<!-- Node21 -->
<g id="node22" class="node"><title>Node21</title>
<g id="a_node22"><a xlink:href="../../dd/d16/classocra_1_1LinearTask.html" target="_top" xlink:title="LinearTask class. ">
<polygon fill="white" stroke="black" points="505.368,-269.5 505.368,-287.5 594.737,-287.5 594.737,-269.5 505.368,-269.5"/>
<text text-anchor="middle" x="550.052" y="-275.5" font-family="Helvetica,sans-Serif" font-size="10.00">ocra::LinearTask</text>
</a>
</g>
</g>
<!-- Node7&#45;&gt;Node21 -->
<g id="edge21" class="edge"><title>Node7&#45;&gt;Node21</title>
<path fill="none" stroke="midnightblue" d="M430.366,-290.255C455.022,-287.813 482.702,-285.072 505.125,-282.851"/>
<polygon fill="midnightblue" stroke="midnightblue" points="429.975,-286.777 420.369,-291.245 430.665,-293.743 429.975,-286.777"/>
</g>
<!-- Node22 -->
<g id="node23" class="node"><title>Node22</title>
<g id="a_node23"><a xlink:href="../../dd/dda/classocra_1_1SecondOrderLinearTask.html" target="_top" xlink:title="SecondOrderLinearTask class. ">
<polygon fill="white" stroke="black" points="475.629,-232.5 475.629,-250.5 624.476,-250.5 624.476,-232.5 475.629,-232.5"/>
<text text-anchor="middle" x="550.052" y="-238.5" font-family="Helvetica,sans-Serif" font-size="10.00">ocra::SecondOrderLinearTask</text>
</a>
</g>
</g>
<!-- Node7&#45;&gt;Node22 -->
<g id="edge22" class="edge"><title>Node7&#45;&gt;Node22</title>
<path fill="none" stroke="midnightblue" d="M411.553,-284.464C418.232,-282.33 424.99,-279.988 431.289,-277.5 447.927,-270.928 450.426,-265.468 467.289,-259.5 477.292,-255.96 488.238,-252.975 498.777,-250.517"/>
<polygon fill="midnightblue" stroke="midnightblue" points="410.419,-281.151 401.888,-287.433 412.474,-287.842 410.419,-281.151"/>
</g>
<!-- Node23 -->
<g id="node24" class="node"><title>Node23</title>
<g id="a_node24"><a xlink:href="../../d0/d8f/classocra_1_1SumOfLinearFunctions.html" target="_top" xlink:title="ocra::SumOfLinearFunctions">
<polygon fill="white" stroke="black" points="478.412,-195.5 478.412,-213.5 621.692,-213.5 621.692,-195.5 478.412,-195.5"/>
<text text-anchor="middle" x="550.052" y="-201.5" font-family="Helvetica,sans-Serif" font-size="10.00">ocra::SumOfLinearFunctions</text>
</a>
</g>
</g>
<!-- Node7&#45;&gt;Node23 -->
<g id="edge23" class="edge"><title>Node7&#45;&gt;Node23</title>
<path fill="none" stroke="midnightblue" d="M421.749,-283.382C425.11,-281.656 428.327,-279.705 431.289,-277.5 454.723,-260.054 443.242,-239.092 467.289,-222.5 472.553,-218.868 478.423,-215.953 484.535,-213.615"/>
<polygon fill="midnightblue" stroke="midnightblue" points="420.312,-280.19 412.588,-287.442 423.148,-286.59 420.312,-280.19"/>
</g>
<!-- Node24 -->
<g id="node25" class="node"><title>Node24</title>
<g id="a_node25"><a xlink:href="../../dd/d3d/classocra_1_1TorqueLimitFunction.html" target="_top" xlink:title="Create a linear function that represents the torque limit function. ">
<polygon fill="white" stroke="black" points="484.525,-158.5 484.525,-176.5 615.579,-176.5 615.579,-158.5 484.525,-158.5"/>
<text text-anchor="middle" x="550.052" y="-164.5" font-family="Helvetica,sans-Serif" font-size="10.00">ocra::TorqueLimitFunction</text>
</a>
</g>
</g>
<!-- Node7&#45;&gt;Node24 -->
<g id="edge24" class="edge"><title>Node7&#45;&gt;Node24</title>
<path fill="none" stroke="midnightblue" d="M424.902,-282.45C427.166,-280.962 429.311,-279.318 431.289,-277.5 463.617,-247.788 433.912,-214.029 467.289,-185.5 472.371,-181.156 478.267,-177.792 484.52,-175.195"/>
<polygon fill="midnightblue" stroke="midnightblue" points="422.799,-279.608 415.669,-287.445 426.13,-285.765 422.799,-279.608"/>
</g>
<!-- Node25 -->
<g id="node26" class="node"><title>Node25</title>
<g id="a_node26"><a xlink:href="../../d7/d46/classocra_1_1VariableChiFunction.html" target="_top" xlink:title="ocra::VariableChiFunction">
<polygon fill="white" stroke="black" points="484.892,-121.5 484.892,-139.5 615.213,-139.5 615.213,-121.5 484.892,-121.5"/>
<text text-anchor="middle" x="550.052" y="-127.5" font-family="Helvetica,sans-Serif" font-size="10.00">ocra::VariableChiFunction</text>
</a>
</g>
</g>
<!-- Node7&#45;&gt;Node25 -->
<g id="edge25" class="edge"><title>Node7&#45;&gt;Node25</title>
<path fill="none" stroke="midnightblue" d="M425.948,-282.106C427.848,-280.709 429.639,-279.178 431.289,-277.5 473.029,-235.063 424.049,-189.407 467.289,-148.5 472.357,-143.705 478.399,-140.076 484.872,-137.343"/>
<polygon fill="midnightblue" stroke="midnightblue" points="423.833,-279.292 417.03,-287.414 427.413,-285.308 423.833,-279.292"/>
</g>
<!-- Node9 -->
<g id="node10" class="node"><title>Node9</title>
<g id="a_node10"><a xlink:href="../../da/d90/classocra_1_1FullContactAvoidanceFunction.html" target="_top" xlink:title="Create a linear function that represents the contact avoidance function for the full formalism...">
<polygon fill="white" stroke="black" points="680.773,-595.5 680.773,-623.5 818.883,-623.5 818.883,-595.5 680.773,-595.5"/>
<text text-anchor="start" x="688.773" y="-611.5" font-family="Helvetica,sans-Serif" font-size="10.00">ocra::FullContactAvoidance</text>
<text text-anchor="middle" x="749.828" y="-601.5" font-family="Helvetica,sans-Serif" font-size="10.00">Function</text>
</a>
</g>
</g>
<!-- Node8&#45;&gt;Node9 -->
<g id="edge9" class="edge"><title>Node8&#45;&gt;Node9</title>
<path fill="none" stroke="midnightblue" d="M599.272,-573.959C626.56,-580.444 660.9,-588.604 689.79,-595.47"/>
<polygon fill="midnightblue" stroke="midnightblue" points="599.724,-570.469 589.185,-571.562 598.105,-577.279 599.724,-570.469"/>
</g>
<!-- Node10 -->
<g id="node11" class="node"><title>Node10</title>
<g id="a_node11"><a xlink:href="../../db/d40/classocra_1_1ReducedContactAvoidanceFunction.html" target="_top" xlink:title="Create a linear function that represents the contact avoidance function for the reduced formalism...">
<polygon fill="white" stroke="black" points="668.815,-548.5 668.815,-576.5 830.841,-576.5 830.841,-548.5 668.815,-548.5"/>
<text text-anchor="start" x="676.815" y="-564.5" font-family="Helvetica,sans-Serif" font-size="10.00">ocra::ReducedContactAvoidance</text>
<text text-anchor="middle" x="749.828" y="-554.5" font-family="Helvetica,sans-Serif" font-size="10.00">Function</text>
</a>
</g>
</g>
<!-- Node8&#45;&gt;Node10 -->
<g id="edge10" class="edge"><title>Node8&#45;&gt;Node10</title>
<path fill="none" stroke="midnightblue" d="M640.452,-562.5C649.813,-562.5 659.289,-562.5 668.539,-562.5"/>
<polygon fill="midnightblue" stroke="midnightblue" points="640.356,-559 630.356,-562.5 640.356,-566 640.356,-559"/>
</g>
<!-- Node12 -->
<g id="node13" class="node"><title>Node12</title>
<g id="a_node13"><a xlink:href="../../dd/d77/classocra_1_1BoundFunction.html" target="_top" xlink:title="BoundFunction class. ">
<polygon fill="white" stroke="black" points="695.688,-511.5 695.688,-529.5 803.968,-529.5 803.968,-511.5 695.688,-511.5"/>
<text text-anchor="middle" x="749.828" y="-517.5" font-family="Helvetica,sans-Serif" font-size="10.00">ocra::BoundFunction</text>
</a>
</g>
</g>
<!-- Node11&#45;&gt;Node12 -->
<g id="edge12" class="edge"><title>Node11&#45;&gt;Node12</title>
<path fill="none" stroke="midnightblue" d="M633.733,-520.5C654.626,-520.5 676.51,-520.5 695.519,-520.5"/>
<polygon fill="midnightblue" stroke="midnightblue" points="633.574,-517 623.574,-520.5 633.574,-524 633.574,-517"/>
</g>
<!-- Node13 -->
<g id="node14" class="node"><title>Node13</title>
<g id="a_node14"><a xlink:href="../../d4/d58/classocra_1_1IdentityFunction.html" target="_top" xlink:title="IdentityFunction class. ">
<polygon fill="white" stroke="black" points="694.025,-474.5 694.025,-492.5 805.631,-492.5 805.631,-474.5 694.025,-474.5"/>
<text text-anchor="middle" x="749.828" y="-480.5" font-family="Helvetica,sans-Serif" font-size="10.00">ocra::IdentityFunction</text>
</a>
</g>
</g>
<!-- Node11&#45;&gt;Node13 -->
<g id="edge13" class="edge"><title>Node11&#45;&gt;Node13</title>
<path fill="none" stroke="midnightblue" d="M609.192,-509.623C638.223,-504.192 672.933,-497.699 700.484,-492.544"/>
<polygon fill="midnightblue" stroke="midnightblue" points="608.367,-506.217 599.181,-511.496 609.654,-513.097 608.367,-506.217"/>
</g>
<!-- Node18 -->
<g id="node19" class="node"><title>Node18</title>
<g id="a_node19"><a xlink:href="../../df/d42/classocra_1_1FullJointLimitFunction.html" target="_top" xlink:title="Create a linear function that represents the joint limit function for the full formalism. ">
<polygon fill="white" stroke="black" points="680.971,-362.5 680.971,-380.5 818.685,-380.5 818.685,-362.5 680.971,-362.5"/>
<text text-anchor="middle" x="749.828" y="-368.5" font-family="Helvetica,sans-Serif" font-size="10.00">ocra::FullJointLimitFunction</text>
</a>
</g>
</g>
<!-- Node17&#45;&gt;Node18 -->
<g id="edge18" class="edge"><title>Node17&#45;&gt;Node18</title>
<path fill="none" stroke="midnightblue" d="M620.936,-359.214C640.395,-361.083 661.497,-363.11 680.845,-364.969"/>
<polygon fill="midnightblue" stroke="midnightblue" points="621.217,-355.725 610.928,-358.252 620.548,-362.693 621.217,-355.725"/>
</g>
<!-- Node19 -->
<g id="node20" class="node"><title>Node19</title>
<g id="a_node20"><a xlink:href="../../dc/daa/classocra_1_1ReducedJointLimitFunction.html" target="_top" xlink:title="Create a linear function that represents the joint limit function for the reduced formalism...">
<polygon fill="white" stroke="black" points="669.013,-325.5 669.013,-343.5 830.643,-343.5 830.643,-325.5 669.013,-325.5"/>
<text text-anchor="middle" x="749.828" y="-331.5" font-family="Helvetica,sans-Serif" font-size="10.00">ocra::ReducedJointLimitFunction</text>
</a>
</g>
</g>
<!-- Node17&#45;&gt;Node19 -->
<g id="edge19" class="edge"><title>Node17&#45;&gt;Node19</title>
<path fill="none" stroke="midnightblue" d="M620.919,-346.141C636.378,-344.734 652.875,-343.233 668.706,-341.792"/>
<polygon fill="midnightblue" stroke="midnightblue" points="620.57,-342.658 610.928,-347.051 621.204,-349.63 620.57,-342.658"/>
</g>
<!-- Node30 -->
<g id="node31" class="node"><title>Node30</title>
<g id="a_node31"><a xlink:href="../../d3/d16/classocra_1_1FcQuadraticFunction.html" target="_top" xlink:title="ocra::FcQuadraticFunction">
<polygon fill="white" stroke="black" points="483.139,-84.5 483.139,-102.5 616.966,-102.5 616.966,-84.5 483.139,-84.5"/>
<text text-anchor="middle" x="550.052" y="-90.5" font-family="Helvetica,sans-Serif" font-size="10.00">ocra::FcQuadraticFunction</text>
</a>
</g>
</g>
<!-- Node29&#45;&gt;Node30 -->
<g id="edge30" class="edge"><title>Node29&#45;&gt;Node30</title>
<path fill="none" stroke="midnightblue" d="M437.924,-93.5C452.707,-93.5 468.244,-93.5 482.86,-93.5"/>
<polygon fill="midnightblue" stroke="midnightblue" points="437.83,-90.0001 427.83,-93.5 437.83,-97.0001 437.83,-90.0001"/>
</g>
<!-- Node31 -->
<g id="node32" class="node"><title>Node31</title>
<g id="a_node32"><a xlink:href="../../df/dfc/classocra_1_1SquaredLinearFunction.html" target="_top" xlink:title="SquaredLinearFunction class. ">
<polygon fill="white" stroke="black" points="477.567,-47.5 477.567,-65.5 622.537,-65.5 622.537,-47.5 477.567,-47.5"/>
<text text-anchor="middle" x="550.052" y="-53.5" font-family="Helvetica,sans-Serif" font-size="10.00">ocra::SquaredLinearFunction</text>
</a>
</g>
</g>
<!-- Node29&#45;&gt;Node31 -->
<g id="edge31" class="edge"><title>Node29&#45;&gt;Node31</title>
<path fill="none" stroke="midnightblue" d="M421.67,-82.4336C448.195,-77.0335 479.698,-70.6199 504.738,-65.5218"/>
<polygon fill="midnightblue" stroke="midnightblue" points="420.873,-79.0241 411.772,-84.4488 422.269,-85.8834 420.873,-79.0241"/>
</g>
<!-- Node32 -->
<g id="node33" class="node"><title>Node32</title>
<g id="a_node33"><a xlink:href="../../d2/d31/classocra_1_1WeightedSquareDistanceFunction.html" target="_top" xlink:title="WeightedSquareDistanceFunction class. ">
<polygon fill="white" stroke="black" points="472.936,-0.5 472.936,-28.5 627.168,-28.5 627.168,-0.5 472.936,-0.5"/>
<text text-anchor="start" x="480.936" y="-16.5" font-family="Helvetica,sans-Serif" font-size="10.00">ocra::WeightedSquareDistance</text>
<text text-anchor="middle" x="550.052" y="-6.5" font-family="Helvetica,sans-Serif" font-size="10.00">Function</text>
</a>
</g>
</g>
<!-- Node29&#45;&gt;Node32 -->
<g id="edge32" class="edge"><title>Node29&#45;&gt;Node32</title>
<path fill="none" stroke="midnightblue" d="M418.849,-80.7726C423.182,-78.9382 427.391,-76.857 431.289,-74.5 450.922,-62.6272 447.571,-49.2304 467.289,-37.5 473.119,-34.032 479.493,-31.0677 486.029,-28.5381"/>
<polygon fill="midnightblue" stroke="midnightblue" points="417.354,-77.5959 409.238,-84.4058 419.829,-84.1437 417.354,-77.5959"/>
</g>
</g>
</svg>
