<?xml version="1.0" encoding="UTF-8" standalone="no"?>
<!DOCTYPE svg PUBLIC "-//W3C//DTD SVG 1.1//EN"
 "http://www.w3.org/Graphics/SVG/1.1/DTD/svg11.dtd">
<!-- Generated by graphviz version 2.38.0 (20140413.2041)
 -->
<!-- Title: ocra::DisplacementFeature::Pimpl Pages: 1 -->
<svg width="181pt" height="142pt"
 viewBox="0.00 0.00 180.91 142.00" xmlns="http://www.w3.org/2000/svg" xmlns:xlink="http://www.w3.org/1999/xlink">
<g id="graph0" class="graph" transform="scale(1 1) rotate(0) translate(4 138)">
<title>ocra::DisplacementFeature::Pimpl</title>
<polygon fill="white" stroke="none" points="-4,4 -4,-138 176.907,-138 176.907,4 -4,4"/>
<!-- Node1 -->
<g id="node1" class="node"><title>Node1</title>
<polygon fill="#bfbfbf" stroke="black" points="0,-0.5 0,-28.5 136.054,-28.5 136.054,-0.5 0,-0.5"/>
<text text-anchor="start" x="8" y="-16.5" font-family="Helvetica,sans-Serif" font-size="10.00">ocra::DisplacementFeature</text>
<text text-anchor="middle" x="68.0269" y="-6.5" font-family="Helvetica,sans-Serif" font-size="10.00">::Pimpl</text>
</g>
<!-- Node2 -->
<g id="node2" class="node"><title>Node2</title>
<polygon fill="white" stroke="#bfbfbf" points="1.73389,-115.5 1.73389,-133.5 58.3198,-133.5 58.3198,-115.5 1.73389,-115.5"/>
<text text-anchor="middle" x="30.0269" y="-121.5" font-family="Helvetica,sans-Serif" font-size="10.00">VectorXd</text>
</g>
<!-- Node2&#45;&gt;Node1 -->
<g id="edge1" class="edge"><title>Node2&#45;&gt;Node1</title>
<path fill="none" stroke="#9a32cd" stroke-dasharray="5,2" d="M26.2077,-105.211C23.7638,-89.0918 22.4692,-65.3797 31.106,-47 34.4744,-39.8317 40.347,-33.6806 46.4307,-28.7662"/>
<polygon fill="#9a32cd" stroke="#9a32cd" points="22.8318,-106.21 28.0649,-115.422 29.7189,-104.957 22.8318,-106.21"/>
<text text-anchor="middle" x="58.9873" y="-84" font-family="Helvetica,sans-Serif" font-size="10.00"> error</text>
<text text-anchor="middle" x="58.9873" y="-74" font-family="Helvetica,sans-Serif" font-size="10.00">acceleration</text>
<text text-anchor="middle" x="58.9873" y="-64" font-family="Helvetica,sans-Serif" font-size="10.00">errorDot</text>
<text text-anchor="middle" x="58.9873" y="-54" font-family="Helvetica,sans-Serif" font-size="10.00">effort</text>
</g>
<!-- Node3 -->
<g id="node3" class="node"><title>Node3</title>
<polygon fill="white" stroke="#bfbfbf" points="79.3003,-115.5 79.3003,-133.5 134.753,-133.5 134.753,-115.5 79.3003,-115.5"/>
<text text-anchor="middle" x="107.027" y="-121.5" font-family="Helvetica,sans-Serif" font-size="10.00">MatrixXd</text>
</g>
<!-- Node3&#45;&gt;Node1 -->
<g id="edge2" class="edge"><title>Node3&#45;&gt;Node1</title>
<path fill="none" stroke="#9a32cd" stroke-dasharray="5,2" d="M102.96,-105.287C99.172,-89.5508 92.926,-66.3567 85.0269,-47 82.491,-40.786 79.0692,-34.2088 75.9602,-28.6807"/>
<polygon fill="#9a32cd" stroke="#9a32cd" points="99.6054,-106.315 105.273,-115.266 106.425,-104.734 99.6054,-106.315"/>
<text text-anchor="middle" x="136.967" y="-89" font-family="Helvetica,sans-Serif" font-size="10.00"> Minv</text>
<text text-anchor="middle" x="136.967" y="-79" font-family="Helvetica,sans-Serif" font-size="10.00">spaceTransform</text>
<text text-anchor="middle" x="136.967" y="-69" font-family="Helvetica,sans-Serif" font-size="10.00">M</text>
<text text-anchor="middle" x="136.967" y="-59" font-family="Helvetica,sans-Serif" font-size="10.00">jacobian</text>
<text text-anchor="middle" x="136.967" y="-49" font-family="Helvetica,sans-Serif" font-size="10.00">u</text>
</g>
</g>
</svg>
