<?xml version="1.0" encoding="UTF-8" standalone="no"?>
<!DOCTYPE svg PUBLIC "-//W3C//DTD SVG 1.1//EN"
 "http://www.w3.org/Graphics/SVG/1.1/DTD/svg11.dtd">
<!-- Generated by graphviz version 2.38.0 (20140413.2041)
 -->
<!-- Title: ocra::CompositeVariable Pages: 1 -->
<svg width="953pt" height="272pt"
 viewBox="0.00 0.00 953.12 272.00" xmlns="http://www.w3.org/2000/svg" xmlns:xlink="http://www.w3.org/1999/xlink">
<g id="graph0" class="graph" transform="scale(1 1) rotate(0) translate(4 268)">
<title>ocra::CompositeVariable</title>
<polygon fill="white" stroke="none" points="-4,4 -4,-268 949.118,-268 949.118,4 -4,4"/>
<!-- Node0 -->
<g id="node1" class="node"><title>Node0</title>
<polygon fill="#bfbfbf" stroke="black" points="820.358,-124.5 820.358,-142.5 945.118,-142.5 945.118,-124.5 820.358,-124.5"/>
<text text-anchor="middle" x="882.738" y="-130.5" font-family="Helvetica,sans-Serif" font-size="10.00">ocra::CompositeVariable</text>
</g>
<!-- Node1 -->
<g id="node2" class="node"><title>Node1</title>
<g id="a_node2"><a xlink:href="../../d7/d79/classocra_1_1Composite.html" target="_top" xlink:title="ocra::Composite\&lt; Variable,\l CompositeVariable, VariableParenthood \&gt;">
<polygon fill="white" stroke="black" points="579.994,-140.5 579.994,-168.5 784.358,-168.5 784.358,-140.5 579.994,-140.5"/>
<text text-anchor="start" x="587.994" y="-156.5" font-family="Helvetica,sans-Serif" font-size="10.00">ocra::Composite&lt; Variable,</text>
<text text-anchor="middle" x="682.176" y="-146.5" font-family="Helvetica,sans-Serif" font-size="10.00"> CompositeVariable, VariableParenthood &gt;</text>
</a>
</g>
</g>
<!-- Node1&#45;&gt;Node0 -->
<g id="edge1" class="edge"><title>Node1&#45;&gt;Node0</title>
<path fill="none" stroke="midnightblue" d="M794.508,-142.726C803.343,-141.791 812.049,-140.87 820.34,-139.994"/>
<polygon fill="midnightblue" stroke="midnightblue" points="794.07,-139.252 784.493,-143.785 794.806,-146.213 794.07,-139.252"/>
</g>
<!-- Node2 -->
<g id="node3" class="node"><title>Node2</title>
<g id="a_node3"><a xlink:href="../../d2/dac/classocra_1_1Variable.html" target="_top" xlink:title="This class represents a variable in a mathematical sense. ">
<polygon fill="white" stroke="black" points="643.695,-103.5 643.695,-121.5 720.657,-121.5 720.657,-103.5 643.695,-103.5"/>
<text text-anchor="middle" x="682.176" y="-109.5" font-family="Helvetica,sans-Serif" font-size="10.00">ocra::Variable</text>
</a>
</g>
</g>
<!-- Node2&#45;&gt;Node0 -->
<g id="edge2" class="edge"><title>Node2&#45;&gt;Node0</title>
<path fill="none" stroke="midnightblue" d="M731.258,-117.585C758.013,-120.415 791.598,-123.967 820.247,-126.997"/>
<polygon fill="midnightblue" stroke="midnightblue" points="731.304,-114.071 720.992,-116.499 730.568,-121.032 731.304,-114.071"/>
</g>
<!-- Node3 -->
<g id="node4" class="node"><title>Node3</title>
<g id="a_node4"><a xlink:href="../../d0/d29/classocra_1_1Component.html" target="_top" xlink:title="ocra::Component\&lt; Variable,\l CompositeVariable, VariableParenthood \&gt;">
<polygon fill="white" stroke="black" points="339.63,-159.5 339.63,-187.5 543.994,-187.5 543.994,-159.5 339.63,-159.5"/>
<text text-anchor="start" x="347.63" y="-175.5" font-family="Helvetica,sans-Serif" font-size="10.00">ocra::Component&lt; Variable,</text>
<text text-anchor="middle" x="441.812" y="-165.5" font-family="Helvetica,sans-Serif" font-size="10.00"> CompositeVariable, VariableParenthood &gt;</text>
</a>
</g>
</g>
<!-- Node3&#45;&gt;Node2 -->
<g id="edge3" class="edge"><title>Node3&#45;&gt;Node2</title>
<path fill="none" stroke="midnightblue" d="M525.382,-156.636C531.739,-154.76 538.007,-152.716 543.994,-150.5 560.96,-144.219 562.912,-137.459 579.994,-131.5 600.414,-124.377 624.135,-119.743 643.475,-116.836"/>
<polygon fill="midnightblue" stroke="midnightblue" points="524.033,-153.379 515.347,-159.447 525.921,-160.12 524.033,-153.379"/>
</g>
<!-- Node4 -->
<g id="node5" class="node"><title>Node4</title>
<g id="a_node5"><a xlink:href="../../d3/d16/classocra_1_1ObserverSubject.html" target="_top" xlink:title="ocra::ObserverSubject">
<polygon fill="white" stroke="black" points="384.068,-122.5 384.068,-140.5 499.556,-140.5 499.556,-122.5 384.068,-122.5"/>
<text text-anchor="middle" x="441.812" y="-128.5" font-family="Helvetica,sans-Serif" font-size="10.00">ocra::ObserverSubject</text>
</a>
</g>
</g>
<!-- Node4&#45;&gt;Node2 -->
<g id="edge4" class="edge"><title>Node4&#45;&gt;Node2</title>
<path fill="none" stroke="midnightblue" d="M509.758,-126.164C552.959,-122.72 607.575,-118.367 643.399,-115.511"/>
<polygon fill="midnightblue" stroke="midnightblue" points="509.294,-122.69 499.603,-126.973 509.85,-129.667 509.294,-122.69"/>
</g>
<!-- Node5 -->
<g id="node6" class="node"><title>Node5</title>
<g id="a_node6"><a xlink:href="../../d2/d45/classocra_1_1Observer.html" target="_top" xlink:title="ocra::Observer">
<polygon fill="white" stroke="black" points="221.497,-169.5 221.497,-187.5 303.63,-187.5 303.63,-169.5 221.497,-169.5"/>
<text text-anchor="middle" x="262.563" y="-175.5" font-family="Helvetica,sans-Serif" font-size="10.00">ocra::Observer</text>
</a>
</g>
</g>
<!-- Node5&#45;&gt;Node4 -->
<g id="edge5" class="edge"><title>Node5&#45;&gt;Node4</title>
<path fill="none" stroke="midnightblue" d="M294.619,-165.732C308.258,-160.474 324.566,-154.656 339.63,-150.5 353.844,-146.579 369.406,-143.212 383.969,-140.449"/>
<polygon fill="midnightblue" stroke="midnightblue" points="293.242,-162.512 285.216,-169.429 295.804,-169.027 293.242,-162.512"/>
</g>
<!-- Node6 -->
<g id="node7" class="node"><title>Node6</title>
<g id="a_node7"><a xlink:href="../../d4/dee/classocra_1_1ObserverBase.html" target="_top" xlink:title="ocra::ObserverBase\l\&lt; EVT_RESIZE \&gt;">
<polygon fill="white" stroke="black" points="40.2856,-235.5 40.2856,-263.5 145.211,-263.5 145.211,-235.5 40.2856,-235.5"/>
<text text-anchor="start" x="48.2856" y="-251.5" font-family="Helvetica,sans-Serif" font-size="10.00">ocra::ObserverBase</text>
<text text-anchor="middle" x="92.7485" y="-241.5" font-family="Helvetica,sans-Serif" font-size="10.00">&lt; EVT_RESIZE &gt;</text>
</a>
</g>
</g>
<!-- Node6&#45;&gt;Node5 -->
<g id="edge6" class="edge"><title>Node6&#45;&gt;Node5</title>
<path fill="none" stroke="midnightblue" d="M155.394,-236.918C165.632,-234.018 176.001,-230.563 185.497,-226.5 209.903,-216.058 235.439,-198.317 249.841,-187.576"/>
<polygon fill="midnightblue" stroke="midnightblue" points="154.402,-233.56 145.65,-239.531 156.215,-240.321 154.402,-233.56"/>
</g>
<!-- Node7 -->
<g id="node8" class="node"><title>Node7</title>
<g id="a_node8"><a xlink:href="../../d4/dee/classocra_1_1ObserverBase.html" target="_top" xlink:title="ocra::ObserverBase\l\&lt; EVT_CHANGE_DEPENDENCIES \&gt;">
<polygon fill="white" stroke="black" points="0,-188.5 0,-216.5 185.497,-216.5 185.497,-188.5 0,-188.5"/>
<text text-anchor="start" x="8" y="-204.5" font-family="Helvetica,sans-Serif" font-size="10.00">ocra::ObserverBase</text>
<text text-anchor="middle" x="92.7485" y="-194.5" font-family="Helvetica,sans-Serif" font-size="10.00">&lt; EVT_CHANGE_DEPENDENCIES &gt;</text>
</a>
</g>
</g>
<!-- Node7&#45;&gt;Node5 -->
<g id="edge7" class="edge"><title>Node7&#45;&gt;Node5</title>
<path fill="none" stroke="midnightblue" d="M195.441,-187.957C204.506,-186.66 213.28,-185.405 221.314,-184.256"/>
<polygon fill="midnightblue" stroke="midnightblue" points="194.916,-184.496 185.512,-189.376 195.907,-191.425 194.916,-184.496"/>
</g>
<!-- Node8 -->
<g id="node9" class="node"><title>Node8</title>
<g id="a_node9"><a xlink:href="../../d4/dee/classocra_1_1ObserverBase.html" target="_top" xlink:title="ocra::ObserverBase\l\&lt; EVT_CHANGE_VALUE \&gt;">
<polygon fill="white" stroke="black" points="23.4253,-141.5 23.4253,-169.5 162.072,-169.5 162.072,-141.5 23.4253,-141.5"/>
<text text-anchor="start" x="31.4253" y="-157.5" font-family="Helvetica,sans-Serif" font-size="10.00">ocra::ObserverBase</text>
<text text-anchor="middle" x="92.7485" y="-147.5" font-family="Helvetica,sans-Serif" font-size="10.00">&lt; EVT_CHANGE_VALUE &gt;</text>
</a>
</g>
</g>
<!-- Node8&#45;&gt;Node5 -->
<g id="edge8" class="edge"><title>Node8&#45;&gt;Node5</title>
<path fill="none" stroke="midnightblue" d="M172.838,-166.34C189.55,-168.63 206.517,-170.956 221.077,-172.951"/>
<polygon fill="midnightblue" stroke="midnightblue" points="172.872,-162.812 162.489,-164.921 171.922,-169.747 172.872,-162.812"/>
</g>
<!-- Node9 -->
<g id="node10" class="node"><title>Node9</title>
<g id="a_node10"><a xlink:href="../../dc/d77/classocra_1_1Subject.html" target="_top" xlink:title="ocra::Subject">
<polygon fill="white" stroke="black" points="225.381,-75.5 225.381,-93.5 299.746,-93.5 299.746,-75.5 225.381,-75.5"/>
<text text-anchor="middle" x="262.563" y="-81.5" font-family="Helvetica,sans-Serif" font-size="10.00">ocra::Subject</text>
</a>
</g>
</g>
<!-- Node9&#45;&gt;Node4 -->
<g id="edge9" class="edge"><title>Node9&#45;&gt;Node4</title>
<path fill="none" stroke="midnightblue" d="M293.676,-97.4798C307.479,-103.038 324.176,-109.221 339.63,-113.5 353.816,-117.428 369.367,-120.694 383.93,-123.316"/>
<polygon fill="midnightblue" stroke="midnightblue" points="294.775,-94.1476 284.196,-93.579 292.112,-100.621 294.775,-94.1476"/>
</g>
<!-- Node10 -->
<g id="node11" class="node"><title>Node10</title>
<g id="a_node11"><a xlink:href="../../dc/d29/classocra_1_1SubjectBase.html" target="_top" xlink:title="ocra::SubjectBase\&lt;\l EVT_RESIZE \&gt;">
<polygon fill="white" stroke="black" points="41.25,-94.5 41.25,-122.5 144.247,-122.5 144.247,-94.5 41.25,-94.5"/>
<text text-anchor="start" x="49.25" y="-110.5" font-family="Helvetica,sans-Serif" font-size="10.00">ocra::SubjectBase&lt;</text>
<text text-anchor="middle" x="92.7485" y="-100.5" font-family="Helvetica,sans-Serif" font-size="10.00"> EVT_RESIZE &gt;</text>
</a>
</g>
</g>
<!-- Node10&#45;&gt;Node9 -->
<g id="edge10" class="edge"><title>Node10&#45;&gt;Node9</title>
<path fill="none" stroke="midnightblue" d="M154.534,-99.8067C178.262,-96.4133 204.665,-92.6373 225.31,-89.6848"/>
<polygon fill="midnightblue" stroke="midnightblue" points="153.958,-96.3535 144.554,-101.234 154.949,-103.283 153.958,-96.3535"/>
</g>
<!-- Node11 -->
<g id="node12" class="node"><title>Node11</title>
<g id="a_node12"><a xlink:href="../../dc/d29/classocra_1_1SubjectBase.html" target="_top" xlink:title="ocra::SubjectBase\&lt;\l EVT_CHANGE_DEPENDENCIES \&gt;">
<polygon fill="white" stroke="black" points="2.91992,-47.5 2.91992,-75.5 182.577,-75.5 182.577,-47.5 2.91992,-47.5"/>
<text text-anchor="start" x="10.9199" y="-63.5" font-family="Helvetica,sans-Serif" font-size="10.00">ocra::SubjectBase&lt;</text>
<text text-anchor="middle" x="92.7485" y="-53.5" font-family="Helvetica,sans-Serif" font-size="10.00"> EVT_CHANGE_DEPENDENCIES &gt;</text>
</a>
</g>
</g>
<!-- Node11&#45;&gt;Node9 -->
<g id="edge11" class="edge"><title>Node11&#45;&gt;Node9</title>
<path fill="none" stroke="midnightblue" d="M193.112,-75.1184C204.461,-76.6738 215.419,-78.1756 225.116,-79.5047"/>
<polygon fill="midnightblue" stroke="midnightblue" points="193.443,-71.6311 183.061,-73.7408 192.493,-78.5663 193.443,-71.6311"/>
</g>
<!-- Node12 -->
<g id="node13" class="node"><title>Node12</title>
<g id="a_node13"><a xlink:href="../../dc/d29/classocra_1_1SubjectBase.html" target="_top" xlink:title="ocra::SubjectBase\&lt;\l EVT_CHANGE_VALUE \&gt;">
<polygon fill="white" stroke="black" points="26.3452,-0.5 26.3452,-28.5 159.152,-28.5 159.152,-0.5 26.3452,-0.5"/>
<text text-anchor="start" x="34.3452" y="-16.5" font-family="Helvetica,sans-Serif" font-size="10.00">ocra::SubjectBase&lt;</text>
<text text-anchor="middle" x="92.7485" y="-6.5" font-family="Helvetica,sans-Serif" font-size="10.00"> EVT_CHANGE_VALUE &gt;</text>
</a>
</g>
</g>
<!-- Node12&#45;&gt;Node9 -->
<g id="edge12" class="edge"><title>Node12&#45;&gt;Node9</title>
<path fill="none" stroke="midnightblue" d="M168.869,-31.2914C174.566,-33.1824 180.167,-35.2493 185.497,-37.5 209.665,-47.7052 235.074,-64.9193 249.553,-75.4408"/>
<polygon fill="midnightblue" stroke="midnightblue" points="169.813,-27.9194 159.224,-28.2737 167.723,-34.6 169.813,-27.9194"/>
</g>
<!-- Node13 -->
<g id="node14" class="node"><title>Node13</title>
<polygon fill="white" stroke="#bfbfbf" points="405.455,-85.5 405.455,-103.5 478.169,-103.5 478.169,-85.5 405.455,-85.5"/>
<text text-anchor="middle" x="441.812" y="-91.5" font-family="Helvetica,sans-Serif" font-size="10.00">noncopyable</text>
</g>
<!-- Node13&#45;&gt;Node2 -->
<g id="edge13" class="edge"><title>Node13&#45;&gt;Node2</title>
<path fill="none" stroke="#8b1a1a" d="M488.323,-97.9367C533.369,-101.338 601.517,-106.485 643.584,-109.661"/>
<polygon fill="#8b1a1a" stroke="#8b1a1a" points="488.475,-94.4384 478.24,-97.1753 487.948,-101.419 488.475,-94.4384"/>
</g>
<!-- Node14 -->
<g id="node15" class="node"><title>Node14</title>
<g id="a_node15"><a xlink:href="../../dc/d20/classocra_1_1VariableHasRestrictedClassDerivation.html" target="_top" xlink:title="ocra::VariableHasRestricted\lClassDerivation">
<polygon fill="white" stroke="black" points="371.932,-38.5 371.932,-66.5 511.692,-66.5 511.692,-38.5 371.932,-38.5"/>
<text text-anchor="start" x="379.932" y="-54.5" font-family="Helvetica,sans-Serif" font-size="10.00">ocra::VariableHasRestricted</text>
<text text-anchor="middle" x="441.812" y="-44.5" font-family="Helvetica,sans-Serif" font-size="10.00">ClassDerivation</text>
</a>
</g>
</g>
<!-- Node14&#45;&gt;Node2 -->
<g id="edge14" class="edge"><title>Node14&#45;&gt;Node2</title>
<path fill="none" stroke="#8b1a1a" d="M516.076,-68.7898C525.484,-70.9886 534.976,-73.2598 543.994,-75.5 580.143,-84.4798 621.376,-95.7391 649.118,-103.465"/>
<polygon fill="#8b1a1a" stroke="#8b1a1a" points="516.856,-65.3781 506.324,-66.529 515.275,-72.1972 516.856,-65.3781"/>
</g>
</g>
</svg>
