<?xml version="1.0" encoding="UTF-8" standalone="no"?>
<!DOCTYPE svg PUBLIC "-//W3C//DTD SVG 1.1//EN"
 "http://www.w3.org/Graphics/SVG/1.1/DTD/svg11.dtd">
<!-- Generated by graphviz version 2.38.0 (20140413.2041)
 -->
<!-- Title: ocra::OFSQPProblem Pages: 1 -->
<svg width="546pt" height="82pt"
 viewBox="0.00 0.00 545.53 82.00" xmlns="http://www.w3.org/2000/svg" xmlns:xlink="http://www.w3.org/1999/xlink">
<g id="graph0" class="graph" transform="scale(1 1) rotate(0) translate(4 78)">
<title>ocra::OFSQPProblem</title>
<polygon fill="white" stroke="none" points="-4,4 -4,-78 541.527,-78 541.527,4 -4,4"/>
<!-- Node0 -->
<g id="node1" class="node"><title>Node0</title>
<polygon fill="#bfbfbf" stroke="black" points="198.611,-55.5 198.611,-73.5 311.862,-73.5 311.862,-55.5 198.611,-55.5"/>
<text text-anchor="middle" x="255.236" y="-61.5" font-family="Helvetica,sans-Serif" font-size="10.00">ocra::OFSQPProblem</text>
</g>
<!-- Node1 -->
<g id="node2" class="node"><title>Node1</title>
<g id="a_node2"><a xlink:href="../../d5/d80/classocra_1_1Ex1Pb.html" target="_top" xlink:title="ocra::Ex1Pb">
<polygon fill="white" stroke="black" points="0,-0.5 0,-18.5 70.4727,-18.5 70.4727,-0.5 0,-0.5"/>
<text text-anchor="middle" x="35.2363" y="-6.5" font-family="Helvetica,sans-Serif" font-size="10.00">ocra::Ex1Pb</text>
</a>
</g>
</g>
<!-- Node0&#45;&gt;Node1 -->
<g id="edge1" class="edge"><title>Node0&#45;&gt;Node1</title>
<path fill="none" stroke="midnightblue" d="M211.87,-53.0527C169.81,-42.9201 106.894,-27.7631 68.6029,-18.5383"/>
<polygon fill="midnightblue" stroke="midnightblue" points="211.281,-56.5109 221.823,-55.4504 212.921,-49.7056 211.281,-56.5109"/>
</g>
<!-- Node2 -->
<g id="node3" class="node"><title>Node2</title>
<g id="a_node3"><a xlink:href="../../d4/d64/classocra_1_1Ex2Pb.html" target="_top" xlink:title="ocra::Ex2Pb">
<polygon fill="white" stroke="black" points="88,-0.5 88,-18.5 158.473,-18.5 158.473,-0.5 88,-0.5"/>
<text text-anchor="middle" x="123.236" y="-6.5" font-family="Helvetica,sans-Serif" font-size="10.00">ocra::Ex2Pb</text>
</a>
</g>
</g>
<!-- Node0&#45;&gt;Node2 -->
<g id="edge2" class="edge"><title>Node0&#45;&gt;Node2</title>
<path fill="none" stroke="midnightblue" d="M225.813,-51.686C200.768,-41.63 165.452,-27.4503 143.473,-18.6253"/>
<polygon fill="midnightblue" stroke="midnightblue" points="224.604,-54.9723 235.188,-55.4504 227.213,-48.4764 224.604,-54.9723"/>
</g>
<!-- Node3 -->
<g id="node4" class="node"><title>Node3</title>
<g id="a_node4"><a xlink:href="../../d7/d00/classocra_1_1Ex3Pb.html" target="_top" xlink:title="ocra::Ex3Pb">
<polygon fill="white" stroke="black" points="176,-0.5 176,-18.5 246.473,-18.5 246.473,-0.5 176,-0.5"/>
<text text-anchor="middle" x="211.236" y="-6.5" font-family="Helvetica,sans-Serif" font-size="10.00">ocra::Ex3Pb</text>
</a>
</g>
</g>
<!-- Node0&#45;&gt;Node3 -->
<g id="edge3" class="edge"><title>Node0&#45;&gt;Node3</title>
<path fill="none" stroke="midnightblue" d="M241.74,-47.2426C233.843,-37.7302 224.218,-26.1369 217.919,-18.5496"/>
<polygon fill="midnightblue" stroke="midnightblue" points="239.281,-49.7603 248.361,-55.2188 244.667,-45.289 239.281,-49.7603"/>
</g>
<!-- Node4 -->
<g id="node5" class="node"><title>Node4</title>
<g id="a_node5"><a xlink:href="../../d5/dbb/classocra_1_1Ex4Pb.html" target="_top" xlink:title="ocra::Ex4Pb">
<polygon fill="white" stroke="black" points="264,-0.5 264,-18.5 334.473,-18.5 334.473,-0.5 264,-0.5"/>
<text text-anchor="middle" x="299.236" y="-6.5" font-family="Helvetica,sans-Serif" font-size="10.00">ocra::Ex4Pb</text>
</a>
</g>
</g>
<!-- Node0&#45;&gt;Node4 -->
<g id="edge4" class="edge"><title>Node0&#45;&gt;Node4</title>
<path fill="none" stroke="midnightblue" d="M268.733,-47.2426C276.63,-37.7302 286.255,-26.1369 292.554,-18.5496"/>
<polygon fill="midnightblue" stroke="midnightblue" points="265.806,-45.289 262.111,-55.2188 271.192,-49.7603 265.806,-45.289"/>
</g>
<!-- Node5 -->
<g id="node6" class="node"><title>Node5</title>
<g id="a_node6"><a xlink:href="../../dd/ddf/classocra_1_1Ex5Pb.html" target="_top" xlink:title="ocra::Ex5Pb">
<polygon fill="white" stroke="black" points="352,-0.5 352,-18.5 422.473,-18.5 422.473,-0.5 352,-0.5"/>
<text text-anchor="middle" x="387.236" y="-6.5" font-family="Helvetica,sans-Serif" font-size="10.00">ocra::Ex5Pb</text>
</a>
</g>
</g>
<!-- Node0&#45;&gt;Node5 -->
<g id="edge5" class="edge"><title>Node0&#45;&gt;Node5</title>
<path fill="none" stroke="midnightblue" d="M284.66,-51.686C309.705,-41.63 345.02,-27.4503 367,-18.6253"/>
<polygon fill="midnightblue" stroke="midnightblue" points="283.26,-48.4764 275.284,-55.4504 285.868,-54.9723 283.26,-48.4764"/>
</g>
<!-- Node6 -->
<g id="node7" class="node"><title>Node6</title>
<g id="a_node7"><a xlink:href="../../dc/d6e/classocra_1_1FSQPSolver.html" target="_top" xlink:title="FSQPSolver class. ">
<polygon fill="white" stroke="black" points="440.946,-0.5 440.946,-18.5 537.527,-18.5 537.527,-0.5 440.946,-0.5"/>
<text text-anchor="middle" x="489.236" y="-6.5" font-family="Helvetica,sans-Serif" font-size="10.00">ocra::FSQPSolver</text>
</a>
</g>
</g>
<!-- Node0&#45;&gt;Node6 -->
<g id="edge6" class="edge"><title>Node0&#45;&gt;Node6</title>
<path fill="none" stroke="midnightblue" d="M300.796,-53.1809C345.532,-43.0484 412.846,-27.8021 453.746,-18.5383"/>
<polygon fill="midnightblue" stroke="midnightblue" points="299.756,-49.8278 290.776,-55.4504 301.302,-56.6549 299.756,-49.8278"/>
</g>
</g>
</svg>
