<?xml version="1.0" encoding="UTF-8" standalone="no"?>
<!DOCTYPE svg PUBLIC "-//W3C//DTD SVG 1.1//EN"
 "http://www.w3.org/Graphics/SVG/1.1/DTD/svg11.dtd">
<!-- Generated by graphviz version 2.38.0 (20140413.2041)
 -->
<!-- Title: ocra::FSQPSolver Pages: 1 -->
<svg width="826pt" height="272pt"
 viewBox="0.00 0.00 826.43 272.00" xmlns="http://www.w3.org/2000/svg" xmlns:xlink="http://www.w3.org/1999/xlink">
<g id="graph0" class="graph" transform="scale(1 1) rotate(0) translate(4 268)">
<title>ocra::FSQPSolver</title>
<polygon fill="white" stroke="none" points="-4,4 -4,-268 822.432,-268 822.432,4 -4,4"/>
<!-- Node13 -->
<g id="node1" class="node"><title>Node13</title>
<polygon fill="#bfbfbf" stroke="black" points="721.851,-50.5 721.851,-68.5 818.432,-68.5 818.432,-50.5 721.851,-50.5"/>
<text text-anchor="middle" x="770.141" y="-56.5" font-family="Helvetica,sans-Serif" font-size="10.00">ocra::FSQPSolver</text>
</g>
<!-- Node14 -->
<g id="node2" class="node"><title>Node14</title>
<g id="a_node2"><a xlink:href="../../d6/dd3/classocra_1_1Solver.html" target="_top" xlink:title="Solver class. ">
<polygon fill="white" stroke="black" points="593.548,-72.5 593.548,-90.5 662.902,-90.5 662.902,-72.5 593.548,-72.5"/>
<text text-anchor="middle" x="628.225" y="-78.5" font-family="Helvetica,sans-Serif" font-size="10.00">ocra::Solver</text>
</a>
</g>
</g>
<!-- Node14&#45;&gt;Node13 -->
<g id="edge1" class="edge"><title>Node14&#45;&gt;Node13</title>
<path fill="none" stroke="midnightblue" d="M673.412,-74.5522C688.826,-72.1285 706.181,-69.3996 721.839,-66.9377"/>
<polygon fill="midnightblue" stroke="midnightblue" points="672.43,-71.1635 663.095,-76.1744 673.517,-78.0786 672.43,-71.1635"/>
</g>
<!-- Node15 -->
<g id="node3" class="node"><title>Node15</title>
<g id="a_node3"><a xlink:href="../../d3/d16/classocra_1_1ObserverSubject.html" target="_top" xlink:title="ocra::ObserverSubject">
<polygon fill="white" stroke="black" points="382.598,-109.5 382.598,-127.5 498.085,-127.5 498.085,-109.5 382.598,-109.5"/>
<text text-anchor="middle" x="440.341" y="-115.5" font-family="Helvetica,sans-Serif" font-size="10.00">ocra::ObserverSubject</text>
</a>
</g>
</g>
<!-- Node15&#45;&gt;Node14 -->
<g id="edge2" class="edge"><title>Node15&#45;&gt;Node14</title>
<path fill="none" stroke="midnightblue" d="M496.736,-107.474C528.112,-101.228 566.35,-93.6172 593.298,-88.2531"/>
<polygon fill="midnightblue" stroke="midnightblue" points="495.938,-104.064 486.814,-109.449 497.304,-110.929 495.938,-104.064"/>
</g>
<!-- Node16 -->
<g id="node4" class="node"><title>Node16</title>
<g id="a_node4"><a xlink:href="../../d2/d45/classocra_1_1Observer.html" target="_top" xlink:title="ocra::Observer">
<polygon fill="white" stroke="black" points="222.497,-169.5 222.497,-187.5 304.63,-187.5 304.63,-169.5 222.497,-169.5"/>
<text text-anchor="middle" x="263.563" y="-175.5" font-family="Helvetica,sans-Serif" font-size="10.00">ocra::Observer</text>
</a>
</g>
</g>
<!-- Node16&#45;&gt;Node15 -->
<g id="edge3" class="edge"><title>Node16&#45;&gt;Node15</title>
<path fill="none" stroke="midnightblue" d="M300.971,-166.002C334.461,-154.505 383.312,-137.734 413.119,-127.502"/>
<polygon fill="midnightblue" stroke="midnightblue" points="299.43,-162.83 291.108,-169.387 301.703,-169.451 299.43,-162.83"/>
</g>
<!-- Node17 -->
<g id="node5" class="node"><title>Node17</title>
<g id="a_node5"><a xlink:href="../../d4/dee/classocra_1_1ObserverBase.html" target="_top" xlink:title="ocra::ObserverBase\l\&lt; EVT_RESIZE \&gt;">
<polygon fill="white" stroke="black" points="40.2856,-235.5 40.2856,-263.5 145.211,-263.5 145.211,-235.5 40.2856,-235.5"/>
<text text-anchor="start" x="48.2856" y="-251.5" font-family="Helvetica,sans-Serif" font-size="10.00">ocra::ObserverBase</text>
<text text-anchor="middle" x="92.7485" y="-241.5" font-family="Helvetica,sans-Serif" font-size="10.00">&lt; EVT_RESIZE &gt;</text>
</a>
</g>
</g>
<!-- Node17&#45;&gt;Node16 -->
<g id="edge4" class="edge"><title>Node17&#45;&gt;Node16</title>
<path fill="none" stroke="midnightblue" d="M155.373,-236.87C165.614,-233.976 175.989,-230.535 185.497,-226.5 210.164,-216.032 236.055,-198.3 250.667,-187.567"/>
<polygon fill="midnightblue" stroke="midnightblue" points="154.382,-233.512 145.628,-239.48 156.193,-240.274 154.382,-233.512"/>
</g>
<!-- Node18 -->
<g id="node6" class="node"><title>Node18</title>
<g id="a_node6"><a xlink:href="../../d4/dee/classocra_1_1ObserverBase.html" target="_top" xlink:title="ocra::ObserverBase\l\&lt; EVT_CHANGE_DEPENDENCIES \&gt;">
<polygon fill="white" stroke="black" points="0,-188.5 0,-216.5 185.497,-216.5 185.497,-188.5 0,-188.5"/>
<text text-anchor="start" x="8" y="-204.5" font-family="Helvetica,sans-Serif" font-size="10.00">ocra::ObserverBase</text>
<text text-anchor="middle" x="92.7485" y="-194.5" font-family="Helvetica,sans-Serif" font-size="10.00">&lt; EVT_CHANGE_DEPENDENCIES &gt;</text>
</a>
</g>
</g>
<!-- Node18&#45;&gt;Node16 -->
<g id="edge5" class="edge"><title>Node18&#45;&gt;Node16</title>
<path fill="none" stroke="midnightblue" d="M195.725,-188.002C205,-186.684 213.979,-185.407 222.187,-184.24"/>
<polygon fill="midnightblue" stroke="midnightblue" points="194.974,-184.574 185.566,-189.447 195.959,-191.504 194.974,-184.574"/>
</g>
<!-- Node19 -->
<g id="node7" class="node"><title>Node19</title>
<g id="a_node7"><a xlink:href="../../d4/dee/classocra_1_1ObserverBase.html" target="_top" xlink:title="ocra::ObserverBase\l\&lt; EVT_CHANGE_VALUE \&gt;">
<polygon fill="white" stroke="black" points="23.4253,-141.5 23.4253,-169.5 162.072,-169.5 162.072,-141.5 23.4253,-141.5"/>
<text text-anchor="start" x="31.4253" y="-157.5" font-family="Helvetica,sans-Serif" font-size="10.00">ocra::ObserverBase</text>
<text text-anchor="middle" x="92.7485" y="-147.5" font-family="Helvetica,sans-Serif" font-size="10.00">&lt; EVT_CHANGE_VALUE &gt;</text>
</a>
</g>
</g>
<!-- Node19&#45;&gt;Node16 -->
<g id="edge6" class="edge"><title>Node19&#45;&gt;Node16</title>
<path fill="none" stroke="midnightblue" d="M172.466,-166.225C189.64,-168.565 207.13,-170.948 222.074,-172.984"/>
<polygon fill="midnightblue" stroke="midnightblue" points="172.793,-162.737 162.412,-164.855 171.848,-169.673 172.793,-162.737"/>
</g>
<!-- Node20 -->
<g id="node8" class="node"><title>Node20</title>
<g id="a_node8"><a xlink:href="../../dc/d77/classocra_1_1Subject.html" target="_top" xlink:title="ocra::Subject">
<polygon fill="white" stroke="black" points="226.381,-76.5 226.381,-94.5 300.746,-94.5 300.746,-76.5 226.381,-76.5"/>
<text text-anchor="middle" x="263.563" y="-82.5" font-family="Helvetica,sans-Serif" font-size="10.00">ocra::Subject</text>
</a>
</g>
</g>
<!-- Node20&#45;&gt;Node15 -->
<g id="edge7" class="edge"><title>Node20&#45;&gt;Node15</title>
<path fill="none" stroke="midnightblue" d="M310.721,-94.215C335.649,-98.9218 366.385,-104.725 391.559,-109.478"/>
<polygon fill="midnightblue" stroke="midnightblue" points="311.253,-90.7538 300.778,-92.3376 309.955,-97.6323 311.253,-90.7538"/>
</g>
<!-- Node21 -->
<g id="node9" class="node"><title>Node21</title>
<g id="a_node9"><a xlink:href="../../dc/d29/classocra_1_1SubjectBase.html" target="_top" xlink:title="ocra::SubjectBase\&lt;\l EVT_RESIZE \&gt;">
<polygon fill="white" stroke="black" points="41.25,-94.5 41.25,-122.5 144.247,-122.5 144.247,-94.5 41.25,-94.5"/>
<text text-anchor="start" x="49.25" y="-110.5" font-family="Helvetica,sans-Serif" font-size="10.00">ocra::SubjectBase&lt;</text>
<text text-anchor="middle" x="92.7485" y="-100.5" font-family="Helvetica,sans-Serif" font-size="10.00"> EVT_RESIZE &gt;</text>
</a>
</g>
</g>
<!-- Node21&#45;&gt;Node20 -->
<g id="edge8" class="edge"><title>Node21&#45;&gt;Node20</title>
<path fill="none" stroke="midnightblue" d="M154.489,-100.224C178.489,-96.9547 205.266,-93.3065 226.162,-90.4595"/>
<polygon fill="midnightblue" stroke="midnightblue" points="153.835,-96.7812 144.399,-101.599 154.78,-103.717 153.835,-96.7812"/>
</g>
<!-- Node22 -->
<g id="node10" class="node"><title>Node22</title>
<g id="a_node10"><a xlink:href="../../dc/d29/classocra_1_1SubjectBase.html" target="_top" xlink:title="ocra::SubjectBase\&lt;\l EVT_CHANGE_DEPENDENCIES \&gt;">
<polygon fill="white" stroke="black" points="2.91992,-47.5 2.91992,-75.5 182.577,-75.5 182.577,-47.5 2.91992,-47.5"/>
<text text-anchor="start" x="10.9199" y="-63.5" font-family="Helvetica,sans-Serif" font-size="10.00">ocra::SubjectBase&lt;</text>
<text text-anchor="middle" x="92.7485" y="-53.5" font-family="Helvetica,sans-Serif" font-size="10.00"> EVT_CHANGE_DEPENDENCIES &gt;</text>
</a>
</g>
</g>
<!-- Node22&#45;&gt;Node20 -->
<g id="edge9" class="edge"><title>Node22&#45;&gt;Node20</title>
<path fill="none" stroke="midnightblue" d="M192.668,-75.5631C204.562,-77.2541 216.06,-78.8887 226.178,-80.3272"/>
<polygon fill="midnightblue" stroke="midnightblue" points="192.998,-72.075 182.605,-74.1326 192.013,-79.0053 192.998,-72.075"/>
</g>
<!-- Node23 -->
<g id="node11" class="node"><title>Node23</title>
<g id="a_node11"><a xlink:href="../../dc/d29/classocra_1_1SubjectBase.html" target="_top" xlink:title="ocra::SubjectBase\&lt;\l EVT_CHANGE_VALUE \&gt;">
<polygon fill="white" stroke="black" points="26.3452,-0.5 26.3452,-28.5 159.152,-28.5 159.152,-0.5 26.3452,-0.5"/>
<text text-anchor="start" x="34.3452" y="-16.5" font-family="Helvetica,sans-Serif" font-size="10.00">ocra::SubjectBase&lt;</text>
<text text-anchor="middle" x="92.7485" y="-6.5" font-family="Helvetica,sans-Serif" font-size="10.00"> EVT_CHANGE_VALUE &gt;</text>
</a>
</g>
</g>
<!-- Node23&#45;&gt;Node20 -->
<g id="edge10" class="edge"><title>Node23&#45;&gt;Node20</title>
<path fill="none" stroke="midnightblue" d="M169.023,-30.9424C174.684,-32.9126 180.236,-35.0928 185.497,-37.5 203.774,-45.8617 205.44,-52.8693 222.497,-63.5 229.771,-68.0332 238.038,-72.657 245.166,-76.4882"/>
<polygon fill="midnightblue" stroke="midnightblue" points="170.015,-27.5846 159.423,-27.822 167.851,-34.2418 170.015,-27.5846"/>
</g>
<!-- Node24 -->
<g id="node12" class="node"><title>Node24</title>
<g id="a_node12"><a xlink:href="../../db/de3/classocra_1_1NamedInstance.html" target="_top" xlink:title="ocra::NamedInstance">
<polygon fill="white" stroke="black" points="384.817,-72.5 384.817,-90.5 495.866,-90.5 495.866,-72.5 384.817,-72.5"/>
<text text-anchor="middle" x="440.341" y="-78.5" font-family="Helvetica,sans-Serif" font-size="10.00">ocra::NamedInstance</text>
</a>
</g>
</g>
<!-- Node24&#45;&gt;Node14 -->
<g id="edge11" class="edge"><title>Node24&#45;&gt;Node14</title>
<path fill="none" stroke="midnightblue" d="M506.284,-81.5C535.599,-81.5 569.013,-81.5 593.28,-81.5"/>
<polygon fill="midnightblue" stroke="midnightblue" points="506.107,-78.0001 496.107,-81.5 506.107,-85.0001 506.107,-78.0001"/>
</g>
<!-- Node25 -->
<g id="node13" class="node"><title>Node25</title>
<g id="a_node13"><a xlink:href="../../d5/d53/structocra_1_1OptimizationResult.html" target="_top" xlink:title="ocra::OptimizationResult">
<polygon fill="white" stroke="black" points="377.876,-35.5 377.876,-53.5 502.807,-53.5 502.807,-35.5 377.876,-35.5"/>
<text text-anchor="middle" x="440.341" y="-41.5" font-family="Helvetica,sans-Serif" font-size="10.00">ocra::OptimizationResult</text>
</a>
</g>
</g>
<!-- Node25&#45;&gt;Node14 -->
<g id="edge12" class="edge"><title>Node25&#45;&gt;Node14</title>
<path fill="none" stroke="#9a32cd" stroke-dasharray="5,2" d="M496.736,-55.5263C528.112,-61.7716 566.35,-69.3828 593.298,-74.7469"/>
<polygon fill="#9a32cd" stroke="#9a32cd" points="497.304,-52.0708 486.814,-53.5512 495.938,-58.9362 497.304,-52.0708"/>
<text text-anchor="middle" x="537.203" y="-67.5" font-family="Helvetica,sans-Serif" font-size="10.00"> _result</text>
</g>
<!-- Node26 -->
<g id="node14" class="node"><title>Node26</title>
<polygon fill="white" stroke="#bfbfbf" points="235.271,-35.5 235.271,-53.5 291.856,-53.5 291.856,-35.5 235.271,-35.5"/>
<text text-anchor="middle" x="263.563" y="-41.5" font-family="Helvetica,sans-Serif" font-size="10.00">VectorXd</text>
</g>
<!-- Node26&#45;&gt;Node25 -->
<g id="edge13" class="edge"><title>Node26&#45;&gt;Node25</title>
<path fill="none" stroke="#9a32cd" stroke-dasharray="5,2" d="M302.147,-44.5C324.2,-44.5 352.606,-44.5 377.844,-44.5"/>
<polygon fill="#9a32cd" stroke="#9a32cd" points="301.873,-41.0001 291.873,-44.5 301.872,-48.0001 301.873,-41.0001"/>
<text text-anchor="middle" x="341.253" y="-46.5" font-family="Helvetica,sans-Serif" font-size="10.00"> solution</text>
</g>
<!-- Node27 -->
<g id="node15" class="node"><title>Node27</title>
<g id="a_node15"><a xlink:href="../../d5/d0c/classocra_1_1OFSQPProblem.html" target="_top" xlink:title="ocra::OFSQPProblem">
<polygon fill="white" stroke="black" points="571.6,-35.5 571.6,-53.5 684.851,-53.5 684.851,-35.5 571.6,-35.5"/>
<text text-anchor="middle" x="628.225" y="-41.5" font-family="Helvetica,sans-Serif" font-size="10.00">ocra::OFSQPProblem</text>
</a>
</g>
</g>
<!-- Node27&#45;&gt;Node13 -->
<g id="edge14" class="edge"><title>Node27&#45;&gt;Node13</title>
<path fill="none" stroke="midnightblue" d="M695.031,-51.5549C704.045,-52.5212 713.151,-53.4974 721.748,-54.4191"/>
<polygon fill="midnightblue" stroke="midnightblue" points="695.242,-48.0575 684.926,-50.4715 694.496,-55.0176 695.242,-48.0575"/>
</g>
</g>
</svg>
