<?xml version="1.0" encoding="UTF-8" standalone="no"?>
<!DOCTYPE svg PUBLIC "-//W3C//DTD SVG 1.1//EN"
 "http://www.w3.org/Graphics/SVG/1.1/DTD/svg11.dtd">
<!-- Generated by graphviz version 2.38.0 (20140413.2041)
 -->
<!-- Title: ocra::FullContactAvoidanceFunction Pages: 1 -->
<svg width="1477pt" height="417pt"
 viewBox="0.00 0.00 1476.95 416.50" xmlns="http://www.w3.org/2000/svg" xmlns:xlink="http://www.w3.org/1999/xlink">
<g id="graph0" class="graph" transform="scale(1 1) rotate(0) translate(4 412.5)">
<title>ocra::FullContactAvoidanceFunction</title>
<polygon fill="white" stroke="none" points="-4,4 -4,-412.5 1472.95,-412.5 1472.95,4 -4,4"/>
<!-- Node18 -->
<g id="node1" class="node"><title>Node18</title>
<polygon fill="#bfbfbf" stroke="black" points="1330.84,-330.5 1330.84,-358.5 1468.95,-358.5 1468.95,-330.5 1330.84,-330.5"/>
<text text-anchor="start" x="1338.84" y="-346.5" font-family="Helvetica,sans-Serif" font-size="10.00">ocra::FullContactAvoidance</text>
<text text-anchor="middle" x="1399.9" y="-336.5" font-family="Helvetica,sans-Serif" font-size="10.00">Function</text>
</g>
<!-- Node19 -->
<g id="node2" class="node"><title>Node19</title>
<g id="a_node2"><a xlink:href="../../d4/d45/classocra_1_1ContactAvoidanceFunction.html" target="_top" xlink:title="Create a linear function that represents the joint limit function. ">
<polygon fill="white" stroke="black" points="1133.49,-335.5 1133.49,-353.5 1293.84,-353.5 1293.84,-335.5 1133.49,-335.5"/>
<text text-anchor="middle" x="1213.67" y="-341.5" font-family="Helvetica,sans-Serif" font-size="10.00">ocra::ContactAvoidanceFunction</text>
</a>
</g>
</g>
<!-- Node19&#45;&gt;Node18 -->
<g id="edge1" class="edge"><title>Node19&#45;&gt;Node18</title>
<path fill="none" stroke="midnightblue" d="M1304,-344.5C1313,-344.5 1322.04,-344.5 1330.77,-344.5"/>
<polygon fill="midnightblue" stroke="midnightblue" points="1303.86,-341 1293.86,-344.5 1303.86,-348 1303.86,-341"/>
</g>
<!-- Node20 -->
<g id="node3" class="node"><title>Node20</title>
<g id="a_node3"><a xlink:href="../../de/d3a/classocra_1_1LinearFunction.html" target="_top" xlink:title="LinearFunction class. ">
<polygon fill="white" stroke="black" points="989.328,-335.5 989.328,-353.5 1096.49,-353.5 1096.49,-335.5 989.328,-335.5"/>
<text text-anchor="middle" x="1042.91" y="-341.5" font-family="Helvetica,sans-Serif" font-size="10.00">ocra::LinearFunction</text>
</a>
</g>
</g>
<!-- Node20&#45;&gt;Node19 -->
<g id="edge2" class="edge"><title>Node20&#45;&gt;Node19</title>
<path fill="none" stroke="midnightblue" d="M1107.11,-344.5C1115.67,-344.5 1124.54,-344.5 1133.34,-344.5"/>
<polygon fill="midnightblue" stroke="midnightblue" points="1106.84,-341 1096.84,-344.5 1106.84,-348 1106.84,-341"/>
</g>
<!-- Node21 -->
<g id="node4" class="node"><title>Node21</title>
<g id="a_node4"><a xlink:href="../../d2/d99/classocra_1_1Function.html" target="_top" xlink:title="Function class. ">
<polygon fill="white" stroke="black" points="828.383,-227.5 828.383,-245.5 907.747,-245.5 907.747,-227.5 828.383,-227.5"/>
<text text-anchor="middle" x="868.065" y="-233.5" font-family="Helvetica,sans-Serif" font-size="10.00">ocra::Function</text>
</a>
</g>
</g>
<!-- Node21&#45;&gt;Node20 -->
<g id="edge3" class="edge"><title>Node21&#45;&gt;Node20</title>
<path fill="none" stroke="midnightblue" d="M892.369,-251.061C928.518,-273.649 997.073,-316.485 1027.14,-335.274"/>
<polygon fill="midnightblue" stroke="midnightblue" points="893.84,-247.853 883.504,-245.522 890.13,-253.79 893.84,-247.853"/>
</g>
<!-- Node22 -->
<g id="node5" class="node"><title>Node22</title>
<g id="a_node5"><a xlink:href="../../d3/d16/classocra_1_1ObserverSubject.html" target="_top" xlink:title="ocra::ObserverSubject">
<polygon fill="white" stroke="black" points="386.068,-101.5 386.068,-119.5 501.556,-119.5 501.556,-101.5 386.068,-101.5"/>
<text text-anchor="middle" x="443.812" y="-107.5" font-family="Helvetica,sans-Serif" font-size="10.00">ocra::ObserverSubject</text>
</a>
</g>
</g>
<!-- Node22&#45;&gt;Node21 -->
<g id="edge4" class="edge"><title>Node22&#45;&gt;Node21</title>
<path fill="none" stroke="midnightblue" d="M511.794,-104.273C574.146,-100.686 668.904,-100.931 746.792,-125.5 802.614,-143.108 846.477,-204.253 861.481,-227.466"/>
<polygon fill="midnightblue" stroke="midnightblue" points="511.453,-100.788 501.691,-104.905 511.889,-107.774 511.453,-100.788"/>
</g>
<!-- Node38 -->
<g id="node21" class="node"><title>Node38</title>
<g id="a_node21"><a xlink:href="../../d2/dac/classocra_1_1Variable.html" target="_top" xlink:title="This class represents a variable in a mathematical sense. ">
<polygon fill="white" stroke="black" points="626.412,-135.5 626.412,-153.5 703.374,-153.5 703.374,-135.5 626.412,-135.5"/>
<text text-anchor="middle" x="664.893" y="-141.5" font-family="Helvetica,sans-Serif" font-size="10.00">ocra::Variable</text>
</a>
</g>
</g>
<!-- Node22&#45;&gt;Node38 -->
<g id="edge22" class="edge"><title>Node22&#45;&gt;Node38</title>
<path fill="none" stroke="midnightblue" d="M512.143,-120.949C549.607,-126.764 594.847,-133.784 626.131,-138.64"/>
<polygon fill="midnightblue" stroke="midnightblue" points="512.22,-117.419 501.801,-119.344 511.146,-124.337 512.22,-117.419"/>
</g>
<!-- Node23 -->
<g id="node6" class="node"><title>Node23</title>
<g id="a_node6"><a xlink:href="../../d2/d45/classocra_1_1Observer.html" target="_top" xlink:title="ocra::Observer">
<polygon fill="white" stroke="black" points="222.497,-169.5 222.497,-187.5 304.63,-187.5 304.63,-169.5 222.497,-169.5"/>
<text text-anchor="middle" x="263.563" y="-175.5" font-family="Helvetica,sans-Serif" font-size="10.00">ocra::Observer</text>
</a>
</g>
</g>
<!-- Node23&#45;&gt;Node22 -->
<g id="edge5" class="edge"><title>Node23&#45;&gt;Node22</title>
<path fill="none" stroke="midnightblue" d="M284.539,-163.224C299.495,-152.514 320.869,-138.698 341.63,-130.5 355.537,-125.008 371.136,-120.971 385.844,-118.024"/>
<polygon fill="midnightblue" stroke="midnightblue" points="282.103,-160.67 276.118,-169.413 286.249,-166.311 282.103,-160.67"/>
</g>
<!-- Node24 -->
<g id="node7" class="node"><title>Node24</title>
<g id="a_node7"><a xlink:href="../../d4/dee/classocra_1_1ObserverBase.html" target="_top" xlink:title="ocra::ObserverBase\l\&lt; EVT_RESIZE \&gt;">
<polygon fill="white" stroke="black" points="40.2856,-235.5 40.2856,-263.5 145.211,-263.5 145.211,-235.5 40.2856,-235.5"/>
<text text-anchor="start" x="48.2856" y="-251.5" font-family="Helvetica,sans-Serif" font-size="10.00">ocra::ObserverBase</text>
<text text-anchor="middle" x="92.7485" y="-241.5" font-family="Helvetica,sans-Serif" font-size="10.00">&lt; EVT_RESIZE &gt;</text>
</a>
</g>
</g>
<!-- Node24&#45;&gt;Node23 -->
<g id="edge6" class="edge"><title>Node24&#45;&gt;Node23</title>
<path fill="none" stroke="midnightblue" d="M155.334,-236.047C165.579,-233.058 175.966,-229.549 185.497,-225.5 209.873,-215.144 235.651,-197.978 250.357,-187.507"/>
<polygon fill="midnightblue" stroke="midnightblue" points="154.285,-232.705 145.586,-238.754 156.158,-239.45 154.285,-232.705"/>
</g>
<!-- Node25 -->
<g id="node8" class="node"><title>Node25</title>
<g id="a_node8"><a xlink:href="../../d4/dee/classocra_1_1ObserverBase.html" target="_top" xlink:title="ocra::ObserverBase\l\&lt; EVT_CHANGE_DEPENDENCIES \&gt;">
<polygon fill="white" stroke="black" points="0,-188.5 0,-216.5 185.497,-216.5 185.497,-188.5 0,-188.5"/>
<text text-anchor="start" x="8" y="-204.5" font-family="Helvetica,sans-Serif" font-size="10.00">ocra::ObserverBase</text>
<text text-anchor="middle" x="92.7485" y="-194.5" font-family="Helvetica,sans-Serif" font-size="10.00">&lt; EVT_CHANGE_DEPENDENCIES &gt;</text>
</a>
</g>
</g>
<!-- Node25&#45;&gt;Node23 -->
<g id="edge7" class="edge"><title>Node25&#45;&gt;Node23</title>
<path fill="none" stroke="midnightblue" d="M195.725,-188.002C205,-186.684 213.979,-185.407 222.187,-184.24"/>
<polygon fill="midnightblue" stroke="midnightblue" points="194.974,-184.574 185.566,-189.447 195.959,-191.504 194.974,-184.574"/>
</g>
<!-- Node26 -->
<g id="node9" class="node"><title>Node26</title>
<g id="a_node9"><a xlink:href="../../d4/dee/classocra_1_1ObserverBase.html" target="_top" xlink:title="ocra::ObserverBase\l\&lt; EVT_CHANGE_VALUE \&gt;">
<polygon fill="white" stroke="black" points="23.4253,-141.5 23.4253,-169.5 162.072,-169.5 162.072,-141.5 23.4253,-141.5"/>
<text text-anchor="start" x="31.4253" y="-157.5" font-family="Helvetica,sans-Serif" font-size="10.00">ocra::ObserverBase</text>
<text text-anchor="middle" x="92.7485" y="-147.5" font-family="Helvetica,sans-Serif" font-size="10.00">&lt; EVT_CHANGE_VALUE &gt;</text>
</a>
</g>
</g>
<!-- Node26&#45;&gt;Node23 -->
<g id="edge8" class="edge"><title>Node26&#45;&gt;Node23</title>
<path fill="none" stroke="midnightblue" d="M172.466,-166.225C189.64,-168.565 207.13,-170.948 222.074,-172.984"/>
<polygon fill="midnightblue" stroke="midnightblue" points="172.793,-162.737 162.412,-164.855 171.848,-169.673 172.793,-162.737"/>
</g>
<!-- Node27 -->
<g id="node10" class="node"><title>Node27</title>
<g id="a_node10"><a xlink:href="../../dc/d77/classocra_1_1Subject.html" target="_top" xlink:title="ocra::Subject">
<polygon fill="white" stroke="black" points="226.381,-72.5 226.381,-90.5 300.746,-90.5 300.746,-72.5 226.381,-72.5"/>
<text text-anchor="middle" x="263.563" y="-78.5" font-family="Helvetica,sans-Serif" font-size="10.00">ocra::Subject</text>
</a>
</g>
</g>
<!-- Node27&#45;&gt;Node22 -->
<g id="edge9" class="edge"><title>Node27&#45;&gt;Node22</title>
<path fill="none" stroke="midnightblue" d="M311.07,-89.0664C334.43,-92.8669 362.898,-97.4985 387.386,-101.483"/>
<polygon fill="midnightblue" stroke="midnightblue" points="311.497,-85.5899 301.065,-87.4386 310.373,-92.4991 311.497,-85.5899"/>
</g>
<!-- Node28 -->
<g id="node11" class="node"><title>Node28</title>
<g id="a_node11"><a xlink:href="../../dc/d29/classocra_1_1SubjectBase.html" target="_top" xlink:title="ocra::SubjectBase\&lt;\l EVT_RESIZE \&gt;">
<polygon fill="white" stroke="black" points="41.25,-94.5 41.25,-122.5 144.247,-122.5 144.247,-94.5 41.25,-94.5"/>
<text text-anchor="start" x="49.25" y="-110.5" font-family="Helvetica,sans-Serif" font-size="10.00">ocra::SubjectBase&lt;</text>
<text text-anchor="middle" x="92.7485" y="-100.5" font-family="Helvetica,sans-Serif" font-size="10.00"> EVT_RESIZE &gt;</text>
</a>
</g>
</g>
<!-- Node28&#45;&gt;Node27 -->
<g id="edge10" class="edge"><title>Node28&#45;&gt;Node27</title>
<path fill="none" stroke="midnightblue" d="M154.489,-98.7853C178.489,-94.9468 205.266,-90.6641 226.162,-87.322"/>
<polygon fill="midnightblue" stroke="midnightblue" points="153.72,-95.3636 144.399,-100.399 154.826,-102.276 153.72,-95.3636"/>
</g>
<!-- Node29 -->
<g id="node12" class="node"><title>Node29</title>
<g id="a_node12"><a xlink:href="../../dc/d29/classocra_1_1SubjectBase.html" target="_top" xlink:title="ocra::SubjectBase\&lt;\l EVT_CHANGE_DEPENDENCIES \&gt;">
<polygon fill="white" stroke="black" points="2.91992,-47.5 2.91992,-75.5 182.577,-75.5 182.577,-47.5 2.91992,-47.5"/>
<text text-anchor="start" x="10.9199" y="-63.5" font-family="Helvetica,sans-Serif" font-size="10.00">ocra::SubjectBase&lt;</text>
<text text-anchor="middle" x="92.7485" y="-53.5" font-family="Helvetica,sans-Serif" font-size="10.00"> EVT_CHANGE_DEPENDENCIES &gt;</text>
</a>
</g>
</g>
<!-- Node29&#45;&gt;Node27 -->
<g id="edge11" class="edge"><title>Node29&#45;&gt;Node27</title>
<path fill="none" stroke="midnightblue" d="M192.668,-73.2193C204.562,-74.6284 216.06,-75.9906 226.178,-77.1893"/>
<polygon fill="midnightblue" stroke="midnightblue" points="192.948,-69.728 182.605,-72.0271 192.124,-76.6794 192.948,-69.728"/>
</g>
<!-- Node30 -->
<g id="node13" class="node"><title>Node30</title>
<g id="a_node13"><a xlink:href="../../dc/d29/classocra_1_1SubjectBase.html" target="_top" xlink:title="ocra::SubjectBase\&lt;\l EVT_CHANGE_VALUE \&gt;">
<polygon fill="white" stroke="black" points="26.3452,-0.5 26.3452,-28.5 159.152,-28.5 159.152,-0.5 26.3452,-0.5"/>
<text text-anchor="start" x="34.3452" y="-16.5" font-family="Helvetica,sans-Serif" font-size="10.00">ocra::SubjectBase&lt;</text>
<text text-anchor="middle" x="92.7485" y="-6.5" font-family="Helvetica,sans-Serif" font-size="10.00"> EVT_CHANGE_VALUE &gt;</text>
</a>
</g>
</g>
<!-- Node30&#45;&gt;Node27 -->
<g id="edge12" class="edge"><title>Node30&#45;&gt;Node27</title>
<path fill="none" stroke="midnightblue" d="M168.784,-31.4984C174.5,-33.3424 180.129,-35.342 185.497,-37.5 209.084,-46.9811 234.281,-62.519 249.214,-72.3674"/>
<polygon fill="midnightblue" stroke="midnightblue" points="169.7,-28.1186 159.114,-28.5415 167.653,-34.8126 169.7,-28.1186"/>
</g>
<!-- Node31 -->
<g id="node14" class="node"><title>Node31</title>
<g id="a_node14"><a xlink:href="../../dd/d68/classocra_1_1IFunctionProperties.html" target="_top" xlink:title="ocra::IFunctionProperties">
<polygon fill="white" stroke="black" points="601.034,-330.5 601.034,-348.5 728.752,-348.5 728.752,-330.5 601.034,-330.5"/>
<text text-anchor="middle" x="664.893" y="-336.5" font-family="Helvetica,sans-Serif" font-size="10.00">ocra::IFunctionProperties</text>
</a>
</g>
</g>
<!-- Node31&#45;&gt;Node21 -->
<g id="edge13" class="edge"><title>Node31&#45;&gt;Node21</title>
<path fill="none" stroke="midnightblue" d="M726.057,-327.806C733.163,-325.715 740.219,-323.292 746.792,-320.5 792.035,-301.282 837.42,-263.298 857.018,-245.766"/>
<polygon fill="midnightblue" stroke="midnightblue" points="725.097,-324.44 716.377,-330.457 726.946,-331.192 725.097,-324.44"/>
</g>
<!-- Node32 -->
<g id="node15" class="node"><title>Node32</title>
<polygon fill="white" stroke="#bfbfbf" points="582.994,-283.5 582.994,-311.5 746.792,-311.5 746.792,-283.5 582.994,-283.5"/>
<text text-anchor="start" x="590.994" y="-299.5" font-family="Helvetica,sans-Serif" font-size="10.00">OCRA_FUNCTION_INTERFACE</text>
<text text-anchor="middle" x="664.893" y="-289.5" font-family="Helvetica,sans-Serif" font-size="10.00">_INHERITANCEpublic</text>
</g>
<!-- Node32&#45;&gt;Node21 -->
<g id="edge14" class="edge"><title>Node32&#45;&gt;Node21</title>
<path fill="none" stroke="#8b1a1a" d="M733.5,-280.846C757.898,-274.418 785.537,-266.649 810.383,-258.5 822.118,-254.651 834.966,-249.725 845.459,-245.51"/>
<polygon fill="#8b1a1a" stroke="#8b1a1a" points="732.408,-277.514 723.615,-283.424 734.175,-284.287 732.408,-277.514"/>
</g>
<!-- Node33 -->
<g id="node16" class="node"><title>Node33</title>
<g id="a_node16"><a xlink:href="../../db/de3/classocra_1_1NamedInstance.html" target="_top" xlink:title="ocra::NamedInstance">
<polygon fill="white" stroke="black" points="609.369,-246.5 609.369,-264.5 720.417,-264.5 720.417,-246.5 609.369,-246.5"/>
<text text-anchor="middle" x="664.893" y="-252.5" font-family="Helvetica,sans-Serif" font-size="10.00">ocra::NamedInstance</text>
</a>
</g>
</g>
<!-- Node33&#45;&gt;Node21 -->
<g id="edge15" class="edge"><title>Node33&#45;&gt;Node21</title>
<path fill="none" stroke="midnightblue" d="M730.822,-249.368C762.976,-246.331 800.714,-242.767 828.309,-240.16"/>
<polygon fill="midnightblue" stroke="midnightblue" points="730.225,-245.908 720.598,-250.333 730.883,-252.877 730.225,-245.908"/>
</g>
<!-- Node34 -->
<g id="node17" class="node"><title>Node34</title>
<g id="a_node17"><a xlink:href="../../d8/d24/classocra_1_1AbilitySet.html" target="_top" xlink:title="ocra::AbilitySet">
<polygon fill="white" stroke="black" points="623.546,-209.5 623.546,-227.5 706.24,-227.5 706.24,-209.5 623.546,-209.5"/>
<text text-anchor="middle" x="664.893" y="-215.5" font-family="Helvetica,sans-Serif" font-size="10.00">ocra::AbilitySet</text>
</a>
</g>
</g>
<!-- Node34&#45;&gt;Node21 -->
<g id="edge16" class="edge"><title>Node34&#45;&gt;Node21</title>
<path fill="none" stroke="midnightblue" d="M716.967,-223.07C751.519,-226.161 796.456,-230.182 828.124,-233.016"/>
<polygon fill="midnightblue" stroke="midnightblue" points="716.875,-219.548 706.603,-222.143 716.251,-226.52 716.875,-219.548"/>
</g>
<!-- Node35 -->
<g id="node18" class="node"><title>Node35</title>
<g id="a_node18"><a xlink:href="../../d5/dc0/classocra_1_1CoupledInputOutputSize.html" target="_top" xlink:title="ocra::CoupledInputOutputSize">
<polygon fill="white" stroke="black" points="589.906,-172.5 589.906,-190.5 739.88,-190.5 739.88,-172.5 589.906,-172.5"/>
<text text-anchor="middle" x="664.893" y="-178.5" font-family="Helvetica,sans-Serif" font-size="10.00">ocra::CoupledInputOutputSize</text>
</a>
</g>
</g>
<!-- Node35&#45;&gt;Node21 -->
<g id="edge17" class="edge"><title>Node35&#45;&gt;Node21</title>
<path fill="none" stroke="midnightblue" d="M719.495,-192.797C728.633,-194.902 738.007,-197.175 746.792,-199.5 778.894,-207.995 815.276,-219.446 839.538,-227.348"/>
<polygon fill="midnightblue" stroke="midnightblue" points="720.237,-189.376 709.711,-190.583 718.693,-196.204 720.237,-189.376"/>
</g>
<!-- Node36 -->
<g id="node19" class="node"><title>Node36</title>
<polygon fill="white" stroke="#bfbfbf" points="636.6,-367.5 636.6,-385.5 693.186,-385.5 693.186,-367.5 636.6,-367.5"/>
<text text-anchor="middle" x="664.893" y="-373.5" font-family="Helvetica,sans-Serif" font-size="10.00">VectorXd</text>
</g>
<!-- Node36&#45;&gt;Node19 -->
<g id="edge26" class="edge"><title>Node36&#45;&gt;Node19</title>
<path fill="none" stroke="#9a32cd" stroke-dasharray="5,2" d="M703.655,-377.914C722.09,-378.536 744.597,-379.194 764.792,-379.5 912.368,-381.738 949.88,-380.5 1096.49,-363.5 1118.72,-360.922 1143.19,-357.074 1163.91,-353.513"/>
<polygon fill="#9a32cd" stroke="#9a32cd" points="703.713,-374.414 693.597,-377.565 703.47,-381.41 703.713,-374.414"/>
<text text-anchor="middle" x="948.538" y="-400.5" font-family="Helvetica,sans-Serif" font-size="10.00"> dJdqObst</text>
<text text-anchor="middle" x="948.538" y="-390.5" font-family="Helvetica,sans-Serif" font-size="10.00">distObst</text>
<text text-anchor="middle" x="948.538" y="-380.5" font-family="Helvetica,sans-Serif" font-size="10.00">velObst</text>
</g>
<!-- Node36&#45;&gt;Node20 -->
<g id="edge25" class="edge"><title>Node36&#45;&gt;Node20</title>
<path fill="none" stroke="#9a32cd" stroke-dasharray="5,2" d="M703.379,-373.31C770.658,-367.584 912.052,-355.551 989.109,-348.993"/>
<polygon fill="#9a32cd" stroke="#9a32cd" points="702.905,-369.837 693.238,-374.173 703.499,-376.812 702.905,-369.837"/>
<text text-anchor="middle" x="868.065" y="-364.5" font-family="Helvetica,sans-Serif" font-size="10.00"> _b</text>
</g>
<!-- Node36&#45;&gt;Node21 -->
<g id="edge18" class="edge"><title>Node36&#45;&gt;Node21</title>
<path fill="none" stroke="#9a32cd" stroke-dasharray="5,2" d="M703.265,-371.548C717.331,-368.826 733.202,-364.695 746.792,-358.5 747.791,-358.044 809.602,-312.272 810.383,-311.5 831.731,-290.379 851.673,-260.874 861.202,-245.949"/>
<polygon fill="#9a32cd" stroke="#9a32cd" points="702.638,-368.104 693.399,-373.29 703.855,-374.997 702.638,-368.104"/>
<text text-anchor="middle" x="787.587" y="-347.5" font-family="Helvetica,sans-Serif" font-size="10.00"> _value</text>
</g>
<!-- Node37 -->
<g id="node20" class="node"><title>Node37</title>
<polygon fill="white" stroke="#bfbfbf" points="637.167,-49.5 637.167,-67.5 692.62,-67.5 692.62,-49.5 637.167,-49.5"/>
<text text-anchor="middle" x="664.893" y="-55.5" font-family="Helvetica,sans-Serif" font-size="10.00">MatrixXd</text>
</g>
<!-- Node37&#45;&gt;Node19 -->
<g id="edge27" class="edge"><title>Node37&#45;&gt;Node19</title>
<path fill="none" stroke="#9a32cd" stroke-dasharray="5,2" d="M702.76,-53.7856C732.572,-51.3168 775.219,-50.865 810.383,-62.5 992.17,-122.649 1164.49,-294.173 1204.15,-335.474"/>
<polygon fill="#9a32cd" stroke="#9a32cd" points="702.411,-50.3029 692.784,-54.7264 703.068,-57.2719 702.411,-50.3029"/>
<text text-anchor="middle" x="948.538" y="-144.5" font-family="Helvetica,sans-Serif" font-size="10.00"> JObst</text>
</g>
<!-- Node37&#45;&gt;Node21 -->
<g id="edge19" class="edge"><title>Node37&#45;&gt;Node21</title>
<path fill="none" stroke="#9a32cd" stroke-dasharray="5,2" d="M703.135,-54.9684C735.081,-54.0017 780.55,-57.8101 810.383,-82.5 856.693,-120.827 865.17,-200.592 866.719,-227.45"/>
<polygon fill="#9a32cd" stroke="#9a32cd" points="702.684,-51.4858 692.861,-55.456 703.016,-58.4779 702.684,-51.4858"/>
<text text-anchor="middle" x="787.587" y="-84.5" font-family="Helvetica,sans-Serif" font-size="10.00"> _jacobian</text>
</g>
<!-- Node38&#45;&gt;Node21 -->
<g id="edge20" class="edge"><title>Node38&#45;&gt;Node21</title>
<path fill="none" stroke="#9a32cd" stroke-dasharray="5,2" d="M713.364,-153.323C724.456,-155.862 736.138,-158.929 746.792,-162.5 776.245,-172.372 783.892,-175.279 810.383,-191.5 827.956,-202.261 846.276,-217.702 857.174,-227.411"/>
<polygon fill="#9a32cd" stroke="#9a32cd" points="713.908,-149.859 703.39,-151.141 712.411,-156.698 713.908,-149.859"/>
<text text-anchor="middle" x="787.587" y="-193.5" font-family="Helvetica,sans-Serif" font-size="10.00"> x</text>
</g>
<!-- Node39 -->
<g id="node22" class="node"><title>Node39</title>
<g id="a_node22"><a xlink:href="../../d0/d29/classocra_1_1Component.html" target="_top" xlink:title="ocra::Component\&lt; Variable,\l CompositeVariable, VariableParenthood \&gt;">
<polygon fill="white" stroke="black" points="341.63,-224.5 341.63,-252.5 545.994,-252.5 545.994,-224.5 341.63,-224.5"/>
<text text-anchor="start" x="349.63" y="-240.5" font-family="Helvetica,sans-Serif" font-size="10.00">ocra::Component&lt; Variable,</text>
<text text-anchor="middle" x="443.812" y="-230.5" font-family="Helvetica,sans-Serif" font-size="10.00"> CompositeVariable, VariableParenthood &gt;</text>
</a>
</g>
</g>
<!-- Node39&#45;&gt;Node38 -->
<g id="edge21" class="edge"><title>Node39&#45;&gt;Node38</title>
<path fill="none" stroke="midnightblue" d="M536.218,-220.191C539.604,-218.461 542.878,-216.57 545.994,-214.5 557.916,-206.581 556.698,-200.162 564.994,-188.5 573.141,-177.048 571.332,-170.344 582.994,-162.5 595.65,-153.988 611.695,-149.439 626.153,-147.03"/>
<polygon fill="midnightblue" stroke="midnightblue" points="534.659,-217.055 527.022,-224.399 537.572,-223.42 534.659,-217.055"/>
</g>
<!-- Node40 -->
<g id="node23" class="node"><title>Node40</title>
<polygon fill="white" stroke="#bfbfbf" points="407.455,-187.5 407.455,-205.5 480.169,-205.5 480.169,-187.5 407.455,-187.5"/>
<text text-anchor="middle" x="443.812" y="-193.5" font-family="Helvetica,sans-Serif" font-size="10.00">noncopyable</text>
</g>
<!-- Node40&#45;&gt;Node38 -->
<g id="edge23" class="edge"><title>Node40&#45;&gt;Node38</title>
<path fill="none" stroke="#8b1a1a" d="M490.352,-189.937C507.925,-186.889 528.073,-182.758 545.994,-177.5 563.021,-172.504 566.053,-167.778 582.994,-162.5 596.869,-158.177 612.388,-154.463 626.094,-151.551"/>
<polygon fill="#8b1a1a" stroke="#8b1a1a" points="489.628,-186.51 480.34,-191.607 490.78,-193.414 489.628,-186.51"/>
</g>
<!-- Node41 -->
<g id="node24" class="node"><title>Node41</title>
<g id="a_node24"><a xlink:href="../../dc/d20/classocra_1_1VariableHasRestrictedClassDerivation.html" target="_top" xlink:title="ocra::VariableHasRestricted\lClassDerivation">
<polygon fill="white" stroke="black" points="373.932,-140.5 373.932,-168.5 513.692,-168.5 513.692,-140.5 373.932,-140.5"/>
<text text-anchor="start" x="381.932" y="-156.5" font-family="Helvetica,sans-Serif" font-size="10.00">ocra::VariableHasRestricted</text>
<text text-anchor="middle" x="443.812" y="-146.5" font-family="Helvetica,sans-Serif" font-size="10.00">ClassDerivation</text>
</a>
</g>
</g>
<!-- Node41&#45;&gt;Node38 -->
<g id="edge24" class="edge"><title>Node41&#45;&gt;Node38</title>
<path fill="none" stroke="#8b1a1a" d="M523.996,-150.886C558.816,-149.296 598.079,-147.504 626.126,-146.224"/>
<polygon fill="#8b1a1a" stroke="#8b1a1a" points="523.66,-147.397 513.83,-151.35 523.979,-154.39 523.66,-147.397"/>
</g>
</g>
</svg>
