<?xml version="1.0" encoding="UTF-8" standalone="no"?>
<!DOCTYPE svg PUBLIC "-//W3C//DTD SVG 1.1//EN"
 "http://www.w3.org/Graphics/SVG/1.1/DTD/svg11.dtd">
<!-- Generated by graphviz version 2.38.0 (20140413.2041)
 -->
<!-- Title: ocra::SubjectBaseTraits&lt; EVT, T &gt; Pages: 1 -->
<svg width="153pt" height="102pt"
 viewBox="0.00 0.00 152.58 102.00" xmlns="http://www.w3.org/2000/svg" xmlns:xlink="http://www.w3.org/1999/xlink">
<g id="graph0" class="graph" transform="scale(1 1) rotate(0) translate(4 98)">
<title>ocra::SubjectBaseTraits&lt; EVT, T &gt;</title>
<polygon fill="white" stroke="none" points="-4,4 -4,-98 148.584,-98 148.584,4 -4,4"/>
<!-- Node0 -->
<g id="node1" class="node"><title>Node0</title>
<polygon fill="#bfbfbf" stroke="black" points="11.3965,-0.5 11.3965,-28.5 133.188,-28.5 133.188,-0.5 11.3965,-0.5"/>
<text text-anchor="start" x="19.3965" y="-16.5" font-family="Helvetica,sans-Serif" font-size="10.00">ocra::SubjectBaseTraits</text>
<text text-anchor="middle" x="72.292" y="-6.5" font-family="Helvetica,sans-Serif" font-size="10.00">&lt; EVT, T &gt;</text>
</g>
<!-- Node1 -->
<g id="node2" class="node"><title>Node1</title>
<g id="a_node2"><a xlink:href="../../d0/dd9/structocra_1_1SubjectBaseTraitsBase.html" target="_top" xlink:title="Base class for objects who can raise events,. ">
<polygon fill="white" stroke="black" points="0,-65.5 0,-93.5 144.584,-93.5 144.584,-65.5 0,-65.5"/>
<text text-anchor="start" x="8" y="-81.5" font-family="Helvetica,sans-Serif" font-size="10.00">ocra::SubjectBaseTraitsBase</text>
<text text-anchor="middle" x="72.292" y="-71.5" font-family="Helvetica,sans-Serif" font-size="10.00">&lt; EVT &gt;</text>
</a>
</g>
</g>
<!-- Node1&#45;&gt;Node0 -->
<g id="edge1" class="edge"><title>Node1&#45;&gt;Node0</title>
<path fill="none" stroke="midnightblue" d="M72.292,-55.1641C72.292,-46.1693 72.292,-36.2205 72.292,-28.5369"/>
<polygon fill="midnightblue" stroke="midnightblue" points="68.7921,-55.4463 72.292,-65.4464 75.7921,-55.4464 68.7921,-55.4463"/>
</g>
</g>
</svg>
