<?xml version="1.0" encoding="UTF-8" standalone="no"?>
<!DOCTYPE svg PUBLIC "-//W3C//DTD SVG 1.1//EN"
 "http://www.w3.org/Graphics/SVG/1.1/DTD/svg11.dtd">
<!-- Generated by graphviz version 2.38.0 (20140413.2041)
 -->
<!-- Title: MergedVariable.cpp Pages: 1 -->
<svg width="1427pt" height="322pt"
 viewBox="0.00 0.00 1427.30 322.00" xmlns="http://www.w3.org/2000/svg" xmlns:xlink="http://www.w3.org/1999/xlink">
<g id="graph0" class="graph" transform="scale(1 1) rotate(0) translate(4 318)">
<title>MergedVariable.cpp</title>
<polygon fill="white" stroke="none" points="-4,4 -4,-318 1423.3,-318 1423.3,4 -4,4"/>
<!-- Node0 -->
<g id="node1" class="node"><title>Node0</title>
<polygon fill="#bfbfbf" stroke="black" points="1110.31,-295.5 1110.31,-313.5 1215.07,-313.5 1215.07,-295.5 1110.31,-295.5"/>
<text text-anchor="middle" x="1162.69" y="-301.5" font-family="Helvetica,sans-Serif" font-size="10.00">MergedVariable.cpp</text>
</g>
<!-- Node1 -->
<g id="node2" class="node"><title>Node1</title>
<g id="a_node2"><a xlink:href="../../d4/d54/MergedVariable_8h.html" target="_top" xlink:title="ocra/optim/MergedVariable.h">
<polygon fill="white" stroke="black" points="948.856,-240.5 948.856,-258.5 1092.52,-258.5 1092.52,-240.5 948.856,-240.5"/>
<text text-anchor="middle" x="1020.69" y="-246.5" font-family="Helvetica,sans-Serif" font-size="10.00">ocra/optim/MergedVariable.h</text>
</a>
</g>
</g>
<!-- Node0&#45;&gt;Node1 -->
<g id="edge1" class="edge"><title>Node0&#45;&gt;Node1</title>
<path fill="none" stroke="midnightblue" d="M1141.12,-295.45C1117.35,-286.578 1078.9,-272.229 1051.86,-262.134"/>
<polygon fill="midnightblue" stroke="midnightblue" points="1053.05,-258.843 1042.46,-258.625 1050.6,-265.401 1053.05,-258.843"/>
</g>
<!-- Node25 -->
<g id="node26" class="node"><title>Node25</title>
<g id="a_node26"><a xlink:href="../../d9/d9e/VariableMapping_8h.html" target="_top" xlink:title="Declaration file of the VariableMapping class. ">
<polygon fill="white" stroke="black" points="1110.63,-185.5 1110.63,-203.5 1258.74,-203.5 1258.74,-185.5 1110.63,-185.5"/>
<text text-anchor="middle" x="1184.69" y="-191.5" font-family="Helvetica,sans-Serif" font-size="10.00">ocra/optim/VariableMapping.h</text>
</a>
</g>
</g>
<!-- Node0&#45;&gt;Node25 -->
<g id="edge35" class="edge"><title>Node0&#45;&gt;Node25</title>
<path fill="none" stroke="midnightblue" d="M1164.34,-295.382C1167.86,-278.104 1176.17,-237.329 1181.01,-213.563"/>
<polygon fill="midnightblue" stroke="midnightblue" points="1184.45,-214.209 1183.01,-203.712 1177.59,-212.812 1184.45,-214.209"/>
</g>
<!-- Node26 -->
<g id="node27" class="node"><title>Node26</title>
<polygon fill="white" stroke="#bfbfbf" points="1190.66,-240.5 1190.66,-258.5 1286.72,-258.5 1286.72,-240.5 1190.66,-240.5"/>
<text text-anchor="middle" x="1238.69" y="-246.5" font-family="Helvetica,sans-Serif" font-size="10.00">boost/foreach.hpp</text>
</g>
<!-- Node0&#45;&gt;Node26 -->
<g id="edge37" class="edge"><title>Node0&#45;&gt;Node26</title>
<path fill="none" stroke="midnightblue" d="M1174.23,-295.45C1185.95,-287.279 1204.33,-274.46 1218.47,-264.6"/>
<polygon fill="midnightblue" stroke="midnightblue" points="1220.84,-267.216 1227.04,-258.625 1216.83,-261.475 1220.84,-267.216"/>
</g>
<!-- Node2 -->
<g id="node3" class="node"><title>Node2</title>
<g id="a_node3"><a xlink:href="../../d7/d90/Variable_8h.html" target="_top" xlink:title="Declaration file of the Variable class. ">
<polygon fill="white" stroke="black" points="944.81,-185.5 944.81,-203.5 1054.56,-203.5 1054.56,-185.5 944.81,-185.5"/>
<text text-anchor="middle" x="999.687" y="-191.5" font-family="Helvetica,sans-Serif" font-size="10.00">ocra/optim/Variable.h</text>
</a>
</g>
</g>
<!-- Node1&#45;&gt;Node2 -->
<g id="edge2" class="edge"><title>Node1&#45;&gt;Node2</title>
<path fill="none" stroke="midnightblue" d="M1017.41,-240.219C1014.52,-232.942 1010.23,-222.113 1006.6,-212.934"/>
<polygon fill="midnightblue" stroke="midnightblue" points="1009.81,-211.557 1002.88,-203.55 1003.31,-214.136 1009.81,-211.557"/>
</g>
<!-- Node23 -->
<g id="node24" class="node"><title>Node23</title>
<polygon fill="white" stroke="#bfbfbf" points="1089.46,-130.5 1089.46,-148.5 1129.91,-148.5 1129.91,-130.5 1089.46,-130.5"/>
<text text-anchor="middle" x="1109.69" y="-136.5" font-family="Helvetica,sans-Serif" font-size="10.00">string</text>
</g>
<!-- Node1&#45;&gt;Node23 -->
<g id="edge33" class="edge"><title>Node1&#45;&gt;Node23</title>
<path fill="none" stroke="midnightblue" d="M1029.3,-240.302C1038.26,-231.615 1052.51,-217.338 1063.69,-204 1076.49,-188.721 1089.7,-170.141 1098.66,-157.038"/>
<polygon fill="midnightblue" stroke="midnightblue" points="1101.67,-158.836 1104.37,-148.59 1095.87,-154.918 1101.67,-158.836"/>
</g>
<!-- Node24 -->
<g id="node25" class="node"><title>Node24</title>
<polygon fill="white" stroke="#bfbfbf" points="890.96,-185.5 890.96,-203.5 926.414,-203.5 926.414,-185.5 890.96,-185.5"/>
<text text-anchor="middle" x="908.687" y="-191.5" font-family="Helvetica,sans-Serif" font-size="10.00">map</text>
</g>
<!-- Node1&#45;&gt;Node24 -->
<g id="edge34" class="edge"><title>Node1&#45;&gt;Node24</title>
<path fill="none" stroke="midnightblue" d="M1003.68,-240.45C985.421,-231.812 956.193,-217.98 934.974,-207.94"/>
<polygon fill="midnightblue" stroke="midnightblue" points="936.394,-204.739 925.857,-203.625 933.399,-211.066 936.394,-204.739"/>
</g>
<!-- Node3 -->
<g id="node4" class="node"><title>Node3</title>
<g id="a_node4"><a xlink:href="../../d8/ddc/ObserverSubject_8h.html" target="_top" xlink:title="Declaration file of the Observer, Subject and ObserverSubject classes. ">
<polygon fill="white" stroke="black" points="380.547,-130.5 380.547,-148.5 528.827,-148.5 528.827,-130.5 380.547,-130.5"/>
<text text-anchor="middle" x="454.687" y="-136.5" font-family="Helvetica,sans-Serif" font-size="10.00">ocra/optim/ObserverSubject.h</text>
</a>
</g>
</g>
<!-- Node2&#45;&gt;Node3 -->
<g id="edge3" class="edge"><title>Node2&#45;&gt;Node3</title>
<path fill="none" stroke="midnightblue" d="M944.546,-186.035C941.551,-185.674 938.583,-185.326 935.687,-185 796.985,-169.38 635.325,-155.261 539.185,-147.293"/>
<polygon fill="midnightblue" stroke="midnightblue" points="539.195,-143.782 528.941,-146.447 538.619,-150.759 539.195,-143.782"/>
</g>
<!-- Node14 -->
<g id="node15" class="node"><title>Node14</title>
<g id="a_node15"><a xlink:href="../../d1/de6/Composite_8h.html" target="_top" xlink:title="Utility classes and functions to implement the Composite design pattern. ">
<polygon fill="white" stroke="black" points="911.887,-130.5 911.887,-148.5 1033.49,-148.5 1033.49,-130.5 911.887,-130.5"/>
<text text-anchor="middle" x="972.687" y="-136.5" font-family="Helvetica,sans-Serif" font-size="10.00">ocra/optim/Composite.h</text>
</a>
</g>
</g>
<!-- Node2&#45;&gt;Node14 -->
<g id="edge17" class="edge"><title>Node2&#45;&gt;Node14</title>
<path fill="none" stroke="midnightblue" d="M995.468,-185.219C991.721,-177.864 986.126,-166.88 981.418,-157.639"/>
<polygon fill="midnightblue" stroke="midnightblue" points="984.446,-155.871 976.788,-148.55 978.208,-159.049 984.446,-155.871"/>
</g>
<!-- Node17 -->
<g id="node18" class="node"><title>Node17</title>
<polygon fill="white" stroke="#bfbfbf" points="691.978,-70.5 691.978,-88.5 811.396,-88.5 811.396,-70.5 691.978,-70.5"/>
<text text-anchor="middle" x="751.687" y="-76.5" font-family="Helvetica,sans-Serif" font-size="10.00">boost/noncopyable.hpp</text>
</g>
<!-- Node2&#45;&gt;Node17 -->
<g id="edge30" class="edge"><title>Node2&#45;&gt;Node17</title>
<path fill="none" stroke="midnightblue" d="M981.725,-185.477C962.191,-176.701 930.089,-162.131 902.687,-149 885.659,-140.84 881.785,-138.013 864.687,-130 836.306,-116.699 803.446,-102.429 780.502,-92.6446"/>
<polygon fill="midnightblue" stroke="midnightblue" points="781.587,-89.3027 771.015,-88.6132 778.85,-95.7453 781.587,-89.3027"/>
</g>
<!-- Node19 -->
<g id="node20" class="node"><title>Node19</title>
<polygon fill="white" stroke="#bfbfbf" points="1376.07,-70.5 1376.07,-88.5 1419.3,-88.5 1419.3,-70.5 1376.07,-70.5"/>
<text text-anchor="middle" x="1397.69" y="-76.5" font-family="Helvetica,sans-Serif" font-size="10.00">vector</text>
</g>
<!-- Node2&#45;&gt;Node19 -->
<g id="edge32" class="edge"><title>Node2&#45;&gt;Node19</title>
<path fill="none" stroke="midnightblue" d="M1007.23,-185.176C1020.53,-171.114 1049.68,-142.928 1080.69,-130 1198.93,-80.6951 1243.15,-127.921 1366.69,-94 1368.4,-93.5298 1370.14,-92.9823 1371.88,-92.3822"/>
<polygon fill="midnightblue" stroke="midnightblue" points="1373.58,-95.4734 1381.59,-88.544 1371.01,-88.963 1373.58,-95.4734"/>
</g>
<!-- Node22 -->
<g id="node23" class="node"><title>Node22</title>
<polygon fill="white" stroke="#bfbfbf" points="785.722,-130.5 785.722,-148.5 855.652,-148.5 855.652,-130.5 785.722,-130.5"/>
<text text-anchor="middle" x="820.687" y="-136.5" font-family="Helvetica,sans-Serif" font-size="10.00">Eigen/Eigen</text>
</g>
<!-- Node2&#45;&gt;Node22 -->
<g id="edge29" class="edge"><title>Node2&#45;&gt;Node22</title>
<path fill="none" stroke="midnightblue" d="M972.501,-185.45C941.791,-176.357 891.648,-161.511 857.459,-151.388"/>
<polygon fill="midnightblue" stroke="midnightblue" points="858.417,-148.021 847.835,-148.538 856.43,-154.733 858.417,-148.021"/>
</g>
<!-- Node2&#45;&gt;Node23 -->
<g id="edge31" class="edge"><title>Node2&#45;&gt;Node23</title>
<path fill="none" stroke="midnightblue" d="M1016.39,-185.45C1034.24,-176.851 1062.77,-163.105 1083.59,-153.075"/>
<polygon fill="midnightblue" stroke="midnightblue" points="1085.33,-156.119 1092.82,-148.625 1082.3,-149.813 1085.33,-156.119"/>
</g>
<!-- Node4 -->
<g id="node5" class="node"><title>Node4</title>
<g id="a_node5"><a xlink:href="../../df/d67/ObserverSubjectBase_8h.html" target="_top" xlink:title="Declaration file of the Observer and Subject base classes. ">
<polygon fill="white" stroke="black" points="194.717,-65.5 194.717,-93.5 334.657,-93.5 334.657,-65.5 194.717,-65.5"/>
<text text-anchor="start" x="202.717" y="-81.5" font-family="Helvetica,sans-Serif" font-size="10.00">ocra/optim/ObserverSubject</text>
<text text-anchor="middle" x="264.687" y="-71.5" font-family="Helvetica,sans-Serif" font-size="10.00">Base.h</text>
</a>
</g>
</g>
<!-- Node3&#45;&gt;Node4 -->
<g id="edge4" class="edge"><title>Node3&#45;&gt;Node4</title>
<path fill="none" stroke="midnightblue" d="M428.268,-130.435C399.655,-121.701 353.268,-107.54 317.185,-96.5257"/>
<polygon fill="midnightblue" stroke="midnightblue" points="317.891,-93.0817 307.305,-93.5096 315.847,-99.7768 317.891,-93.0817"/>
</g>
<!-- Node8 -->
<g id="node9" class="node"><title>Node8</title>
<polygon fill="white" stroke="#bfbfbf" points="0,-0.5 0,-28.5 99.374,-28.5 99.374,-0.5 0,-0.5"/>
<text text-anchor="start" x="8" y="-16.5" font-family="Helvetica,sans-Serif" font-size="10.00">boost/type_traits/is</text>
<text text-anchor="middle" x="49.687" y="-6.5" font-family="Helvetica,sans-Serif" font-size="10.00">_class.hpp</text>
</g>
<!-- Node3&#45;&gt;Node8 -->
<g id="edge16" class="edge"><title>Node3&#45;&gt;Node8</title>
<path fill="none" stroke="midnightblue" d="M380.395,-133.419C325.35,-127.944 249.195,-116.731 185.687,-94 144.87,-79.3905 102.284,-52.6405 75.8774,-34.4704"/>
<polygon fill="midnightblue" stroke="midnightblue" points="77.7707,-31.5237 67.5682,-28.6673 73.7626,-37.2626 77.7707,-31.5237"/>
</g>
<!-- Node9 -->
<g id="node10" class="node"><title>Node9</title>
<polygon fill="white" stroke="#bfbfbf" points="410,-0.5 410,-28.5 509.374,-28.5 509.374,-0.5 410,-0.5"/>
<text text-anchor="start" x="418" y="-16.5" font-family="Helvetica,sans-Serif" font-size="10.00">boost/type_traits/is</text>
<text text-anchor="middle" x="459.687" y="-6.5" font-family="Helvetica,sans-Serif" font-size="10.00">_base_of.hpp</text>
</g>
<!-- Node3&#45;&gt;Node9 -->
<g id="edge14" class="edge"><title>Node3&#45;&gt;Node9</title>
<path fill="none" stroke="midnightblue" d="M429.211,-130.384C412.442,-123.562 391.789,-111.989 381.687,-94 375.376,-82.7619 375.478,-76.2946 381.687,-65 389.095,-51.5252 401.894,-41.2006 415.008,-33.5564"/>
<polygon fill="midnightblue" stroke="midnightblue" points="416.921,-36.502 424.074,-28.6868 413.608,-30.3352 416.921,-36.502"/>
</g>
<!-- Node10 -->
<g id="node11" class="node"><title>Node10</title>
<polygon fill="white" stroke="#bfbfbf" points="527.269,-5.5 527.269,-23.5 646.105,-23.5 646.105,-5.5 527.269,-5.5"/>
<text text-anchor="middle" x="586.687" y="-11.5" font-family="Helvetica,sans-Serif" font-size="10.00">boost/static_assert.hpp</text>
</g>
<!-- Node3&#45;&gt;Node10 -->
<g id="edge13" class="edge"><title>Node3&#45;&gt;Node10</title>
<path fill="none" stroke="midnightblue" d="M471.853,-130.405C487.482,-122.512 510.649,-109.459 527.687,-94 547.952,-75.613 565.997,-49.4256 576.641,-32.4461"/>
<polygon fill="midnightblue" stroke="midnightblue" points="579.793,-34.0009 582.014,-23.6414 573.817,-30.3548 579.793,-34.0009"/>
</g>
<!-- Node12 -->
<g id="node13" class="node"><title>Node12</title>
<g id="a_node13"><a xlink:href="../../db/ddf/ocra__events_8h.html" target="_top" xlink:title="ocra/optim/ocra_events.h">
<polygon fill="white" stroke="black" points="390.547,-70.5 390.547,-88.5 518.827,-88.5 518.827,-70.5 390.547,-70.5"/>
<text text-anchor="middle" x="454.687" y="-76.5" font-family="Helvetica,sans-Serif" font-size="10.00">ocra/optim/ocra_events.h</text>
</a>
</g>
</g>
<!-- Node3&#45;&gt;Node12 -->
<g id="edge12" class="edge"><title>Node3&#45;&gt;Node12</title>
<path fill="none" stroke="midnightblue" d="M454.687,-130.435C454.687,-122.389 454.687,-109.739 454.687,-99.1846"/>
<polygon fill="midnightblue" stroke="midnightblue" points="458.187,-98.8717 454.687,-88.8718 451.187,-98.8718 458.187,-98.8717"/>
</g>
<!-- Node13 -->
<g id="node14" class="node"><title>Node13</title>
<polygon fill="white" stroke="#bfbfbf" points="575,-65.5 575,-93.5 674.374,-93.5 674.374,-65.5 575,-65.5"/>
<text text-anchor="start" x="583" y="-81.5" font-family="Helvetica,sans-Serif" font-size="10.00">boost/type_traits/is</text>
<text text-anchor="middle" x="624.687" y="-71.5" font-family="Helvetica,sans-Serif" font-size="10.00">_convertible.hpp</text>
</g>
<!-- Node3&#45;&gt;Node13 -->
<g id="edge15" class="edge"><title>Node3&#45;&gt;Node13</title>
<path fill="none" stroke="midnightblue" d="M478.325,-130.435C503.708,-121.775 544.722,-107.782 576.885,-96.8088"/>
<polygon fill="midnightblue" stroke="midnightblue" points="578.221,-100.051 586.556,-93.5096 575.961,-93.4261 578.221,-100.051"/>
</g>
<!-- Node5 -->
<g id="node6" class="node"><title>Node5</title>
<polygon fill="white" stroke="#bfbfbf" points="333.283,-5.5 333.283,-23.5 392.091,-23.5 392.091,-5.5 333.283,-5.5"/>
<text text-anchor="middle" x="362.687" y="-11.5" font-family="Helvetica,sans-Serif" font-size="10.00">functional</text>
</g>
<!-- Node4&#45;&gt;Node5 -->
<g id="edge5" class="edge"><title>Node4&#45;&gt;Node5</title>
<path fill="none" stroke="midnightblue" d="M284.993,-65.4464C301.549,-54.8029 324.854,-39.8214 341.614,-29.0468"/>
<polygon fill="midnightblue" stroke="midnightblue" points="343.649,-31.8997 350.168,-23.548 339.863,-26.0115 343.649,-31.8997"/>
</g>
<!-- Node6 -->
<g id="node7" class="node"><title>Node6</title>
<polygon fill="white" stroke="#bfbfbf" points="814.123,-5.5 814.123,-23.5 871.251,-23.5 871.251,-5.5 814.123,-5.5"/>
<text text-anchor="middle" x="842.687" y="-11.5" font-family="Helvetica,sans-Serif" font-size="10.00">algorithm</text>
</g>
<!-- Node4&#45;&gt;Node6 -->
<g id="edge6" class="edge"><title>Node4&#45;&gt;Node6</title>
<path fill="none" stroke="midnightblue" d="M334.898,-70.3073C350.311,-68.5343 366.547,-66.6862 381.687,-65 538.258,-47.5615 724.869,-27.8555 804.079,-19.5413"/>
<polygon fill="midnightblue" stroke="midnightblue" points="804.506,-23.0158 814.086,-18.4915 803.775,-16.054 804.506,-23.0158"/>
</g>
<!-- Node7 -->
<g id="node8" class="node"><title>Node7</title>
<polygon fill="white" stroke="#bfbfbf" points="117.642,-5.5 117.642,-23.5 195.732,-23.5 195.732,-5.5 117.642,-5.5"/>
<text text-anchor="middle" x="156.687" y="-11.5" font-family="Helvetica,sans-Serif" font-size="10.00">boost/any.hpp</text>
</g>
<!-- Node4&#45;&gt;Node7 -->
<g id="edge7" class="edge"><title>Node4&#45;&gt;Node7</title>
<path fill="none" stroke="midnightblue" d="M242.309,-65.4464C223.81,-54.6551 197.666,-39.4044 179.145,-28.6003"/>
<polygon fill="midnightblue" stroke="midnightblue" points="180.885,-25.5635 170.484,-23.548 177.358,-31.61 180.885,-25.5635"/>
</g>
<!-- Node4&#45;&gt;Node8 -->
<g id="edge8" class="edge"><title>Node4&#45;&gt;Node8</title>
<path fill="none" stroke="midnightblue" d="M220.139,-65.4464C186.411,-55.5632 139.917,-41.9394 104.007,-31.4169"/>
<polygon fill="midnightblue" stroke="midnightblue" points="104.759,-27.9902 94.1781,-28.5369 102.79,-34.7078 104.759,-27.9902"/>
</g>
<!-- Node4&#45;&gt;Node9 -->
<g id="edge9" class="edge"><title>Node4&#45;&gt;Node9</title>
<path fill="none" stroke="midnightblue" d="M305.091,-65.4464C335.42,-55.6477 377.131,-42.1721 409.583,-31.6874"/>
<polygon fill="midnightblue" stroke="midnightblue" points="410.895,-34.9418 419.335,-28.5369 408.743,-28.2808 410.895,-34.9418"/>
</g>
<!-- Node4&#45;&gt;Node10 -->
<g id="edge10" class="edge"><title>Node4&#45;&gt;Node10</title>
<path fill="none" stroke="midnightblue" d="M331.815,-65.4846C383.028,-55.5388 455.319,-41.4648 518.687,-29 524.437,-27.869 530.459,-26.6799 536.442,-25.4957"/>
<polygon fill="midnightblue" stroke="midnightblue" points="537.291,-28.8957 546.42,-23.5185 535.93,-22.0292 537.291,-28.8957"/>
</g>
<!-- Node11 -->
<g id="node12" class="node"><title>Node11</title>
<polygon fill="white" stroke="#bfbfbf" points="213.882,-0.5 213.882,-28.5 315.492,-28.5 315.492,-0.5 213.882,-0.5"/>
<text text-anchor="start" x="221.882" y="-16.5" font-family="Helvetica,sans-Serif" font-size="10.00">boost/ptr_container</text>
<text text-anchor="middle" x="264.687" y="-6.5" font-family="Helvetica,sans-Serif" font-size="10.00">/ptr_vector.hpp</text>
</g>
<!-- Node4&#45;&gt;Node11 -->
<g id="edge11" class="edge"><title>Node4&#45;&gt;Node11</title>
<path fill="none" stroke="midnightblue" d="M264.687,-65.4464C264.687,-57.7594 264.687,-47.8097 264.687,-38.8163"/>
<polygon fill="midnightblue" stroke="midnightblue" points="268.187,-38.5369 264.687,-28.5369 261.187,-38.537 268.187,-38.5369"/>
</g>
<!-- Node14&#45;&gt;Node6 -->
<g id="edge26" class="edge"><title>Node14&#45;&gt;Node6</title>
<path fill="none" stroke="midnightblue" d="M974.719,-130.276C977.832,-115.605 982.02,-84.6238 967.687,-65 947.701,-37.637 910.185,-25.3898 881.448,-19.9141"/>
<polygon fill="midnightblue" stroke="midnightblue" points="881.752,-16.4156 871.307,-18.1876 880.577,-23.3163 881.752,-16.4156"/>
</g>
<!-- Node14&#45;&gt;Node9 -->
<g id="edge22" class="edge"><title>Node14&#45;&gt;Node9</title>
<path fill="none" stroke="midnightblue" d="M945.936,-130.42C922.21,-122.711 887.025,-109.926 858.687,-94 840.166,-83.5912 840.375,-72.9839 820.687,-65 698.481,-15.4427 654.045,-50.3097 519.758,-28.9985"/>
<polygon fill="midnightblue" stroke="midnightblue" points="519.944,-25.4813 509.505,-27.2908 518.794,-32.3862 519.944,-25.4813"/>
</g>
<!-- Node14&#45;&gt;Node10 -->
<g id="edge21" class="edge"><title>Node14&#45;&gt;Node10</title>
<path fill="none" stroke="midnightblue" d="M971.078,-130.494C967.516,-115.025 957.409,-81.1347 934.687,-65 891.193,-34.1153 744.804,-22.3284 656.343,-17.9587"/>
<polygon fill="midnightblue" stroke="midnightblue" points="656.273,-14.4515 646.118,-17.4738 655.941,-21.4437 656.273,-14.4515"/>
</g>
<!-- Node14&#45;&gt;Node13 -->
<g id="edge23" class="edge"><title>Node14&#45;&gt;Node13</title>
<path fill="none" stroke="midnightblue" d="M911.632,-130.513C855.026,-122.795 768.255,-110.172 684.548,-94.281"/>
<polygon fill="midnightblue" stroke="midnightblue" points="685.102,-90.8235 674.622,-92.3782 683.784,-97.6983 685.102,-90.8235"/>
</g>
<!-- Node15 -->
<g id="node16" class="node"><title>Node15</title>
<g id="a_node16"><a xlink:href="../../de/df3/ocra__assert_8h.html" target="_top" xlink:title="ocra/optim/ocra_assert.h">
<polygon fill="white" stroke="black" points="1019.66,-70.5 1019.66,-88.5 1145.71,-88.5 1145.71,-70.5 1019.66,-70.5"/>
<text text-anchor="middle" x="1082.69" y="-76.5" font-family="Helvetica,sans-Serif" font-size="10.00">ocra/optim/ocra_assert.h</text>
</a>
</g>
</g>
<!-- Node14&#45;&gt;Node15 -->
<g id="edge18" class="edge"><title>Node14&#45;&gt;Node15</title>
<path fill="none" stroke="midnightblue" d="M987.982,-130.435C1006.19,-120.837 1036.82,-104.687 1058.3,-93.3586"/>
<polygon fill="midnightblue" stroke="midnightblue" points="1059.95,-96.4433 1067.17,-88.6831 1056.69,-90.2513 1059.95,-96.4433"/>
</g>
<!-- Node14&#45;&gt;Node17 -->
<g id="edge20" class="edge"><title>Node14&#45;&gt;Node17</title>
<path fill="none" stroke="midnightblue" d="M941.958,-130.435C902.979,-120.206 835.643,-102.534 792.415,-91.1888"/>
<polygon fill="midnightblue" stroke="midnightblue" points="793.072,-87.7426 782.511,-88.5894 791.295,-94.5133 793.072,-87.7426"/>
</g>
<!-- Node18 -->
<g id="node19" class="node"><title>Node18</title>
<polygon fill="white" stroke="#bfbfbf" points="1164.15,-65.5 1164.15,-93.5 1295.23,-93.5 1295.23,-65.5 1164.15,-65.5"/>
<text text-anchor="start" x="1172.15" y="-81.5" font-family="Helvetica,sans-Serif" font-size="10.00">boost/type_traits/has</text>
<text text-anchor="middle" x="1229.69" y="-71.5" font-family="Helvetica,sans-Serif" font-size="10.00">_nothrow_constructor.hpp</text>
</g>
<!-- Node14&#45;&gt;Node18 -->
<g id="edge24" class="edge"><title>Node14&#45;&gt;Node18</title>
<path fill="none" stroke="midnightblue" d="M1008.15,-130.496C1047.7,-121.571 1112.59,-106.926 1161.95,-95.7877"/>
<polygon fill="midnightblue" stroke="midnightblue" points="1162.93,-99.1542 1171.91,-93.5385 1161.39,-92.3259 1162.93,-99.1542"/>
</g>
<!-- Node14&#45;&gt;Node19 -->
<g id="edge25" class="edge"><title>Node14&#45;&gt;Node19</title>
<path fill="none" stroke="midnightblue" d="M1033.68,-131.586C1038.42,-131.049 1043.13,-130.515 1047.69,-130 1189.46,-113.966 1228.86,-130.893 1366.69,-94 1368.4,-93.5408 1370.15,-93.0017 1371.88,-92.4079"/>
<polygon fill="midnightblue" stroke="midnightblue" points="1373.58,-95.5024 1381.6,-88.5853 1371.02,-88.988 1373.58,-95.5024"/>
</g>
<!-- Node20 -->
<g id="node21" class="node"><title>Node20</title>
<polygon fill="white" stroke="#bfbfbf" points="1313.51,-70.5 1313.51,-88.5 1357.86,-88.5 1357.86,-70.5 1313.51,-70.5"/>
<text text-anchor="middle" x="1335.69" y="-76.5" font-family="Helvetica,sans-Serif" font-size="10.00">iosfwd</text>
</g>
<!-- Node14&#45;&gt;Node20 -->
<g id="edge27" class="edge"><title>Node14&#45;&gt;Node20</title>
<path fill="none" stroke="midnightblue" d="M1033.85,-131.233C1122.58,-120.548 1279.23,-101.098 1304.69,-94 1306.4,-93.523 1308.14,-92.9702 1309.87,-92.3662"/>
<polygon fill="midnightblue" stroke="midnightblue" points="1311.58,-95.4554 1319.59,-88.5182 1309,-88.9475 1311.58,-95.4554"/>
</g>
<!-- Node21 -->
<g id="node22" class="node"><title>Node21</title>
<polygon fill="white" stroke="#bfbfbf" points="867.286,-70.5 867.286,-88.5 926.088,-88.5 926.088,-70.5 867.286,-70.5"/>
<text text-anchor="middle" x="896.687" y="-76.5" font-family="Helvetica,sans-Serif" font-size="10.00">stdexcept</text>
</g>
<!-- Node14&#45;&gt;Node21 -->
<g id="edge28" class="edge"><title>Node14&#45;&gt;Node21</title>
<path fill="none" stroke="midnightblue" d="M962.12,-130.435C950.118,-121.276 930.3,-106.152 915.613,-94.9437"/>
<polygon fill="midnightblue" stroke="midnightblue" points="917.73,-92.1562 907.657,-88.8718 913.483,-97.7209 917.73,-92.1562"/>
</g>
<!-- Node16 -->
<g id="node17" class="node"><title>Node16</title>
<polygon fill="white" stroke="#bfbfbf" points="1061.63,-5.5 1061.63,-23.5 1103.75,-23.5 1103.75,-5.5 1061.63,-5.5"/>
<text text-anchor="middle" x="1082.69" y="-11.5" font-family="Helvetica,sans-Serif" font-size="10.00">cstdio</text>
</g>
<!-- Node15&#45;&gt;Node16 -->
<g id="edge19" class="edge"><title>Node15&#45;&gt;Node16</title>
<path fill="none" stroke="midnightblue" d="M1082.69,-70.2639C1082.69,-61.0635 1082.69,-45.881 1082.69,-33.8326"/>
<polygon fill="midnightblue" stroke="midnightblue" points="1086.19,-33.5389 1082.69,-23.539 1079.19,-33.539 1086.19,-33.5389"/>
</g>
<!-- Node25&#45;&gt;Node19 -->
<g id="edge36" class="edge"><title>Node25&#45;&gt;Node19</title>
<path fill="none" stroke="midnightblue" d="M1200.01,-185.373C1236.62,-165.949 1329.44,-116.708 1373.61,-93.2729"/>
<polygon fill="midnightblue" stroke="midnightblue" points="1375.31,-96.3314 1382.51,-88.553 1372.03,-90.1477 1375.31,-96.3314"/>
</g>
</g>
</svg>
