<?xml version="1.0" encoding="UTF-8" standalone="no"?>
<!DOCTYPE svg PUBLIC "-//W3C//DTD SVG 1.1//EN"
 "http://www.w3.org/Graphics/SVG/1.1/DTD/svg11.dtd">
<!-- Generated by graphviz version 2.38.0 (20140413.2041)
 -->
<!-- Title: ocra::PartialState Pages: 1 -->
<svg width="266pt" height="137pt"
 viewBox="0.00 0.00 266.22 137.00" xmlns="http://www.w3.org/2000/svg" xmlns:xlink="http://www.w3.org/1999/xlink">
<g id="graph0" class="graph" transform="scale(1 1) rotate(0) translate(4 133)">
<title>ocra::PartialState</title>
<polygon fill="white" stroke="none" points="-4,4 -4,-133 262.219,-133 262.219,4 -4,4"/>
<!-- Node0 -->
<g id="node1" class="node"><title>Node0</title>
<polygon fill="#bfbfbf" stroke="black" points="82.6182,-55.5 82.6182,-73.5 175.322,-73.5 175.322,-55.5 82.6182,-55.5"/>
<text text-anchor="middle" x="128.97" y="-61.5" font-family="Helvetica,sans-Serif" font-size="10.00">ocra::PartialState</text>
</g>
<!-- Node2 -->
<g id="node3" class="node"><title>Node2</title>
<g id="a_node3"><a xlink:href="../../d1/dc1/classocra_1_1PartialModelState.html" target="_top" xlink:title="A partial state of the model. ">
<polygon fill="white" stroke="black" points="0,-0.5 0,-18.5 119.94,-18.5 119.94,-0.5 0,-0.5"/>
<text text-anchor="middle" x="59.9702" y="-6.5" font-family="Helvetica,sans-Serif" font-size="10.00">ocra::PartialModelState</text>
</a>
</g>
</g>
<!-- Node0&#45;&gt;Node2 -->
<g id="edge2" class="edge"><title>Node0&#45;&gt;Node2</title>
<path fill="none" stroke="midnightblue" d="M110.366,-49.2095C97.6016,-39.4052 81.1225,-26.7474 70.5485,-18.6253"/>
<polygon fill="midnightblue" stroke="midnightblue" points="108.428,-52.1345 118.491,-55.4504 112.692,-46.5832 108.428,-52.1345"/>
</g>
<!-- Node3 -->
<g id="node4" class="node"><title>Node3</title>
<g id="a_node4"><a xlink:href="../../d1/def/classocra_1_1PartialTargetState.html" target="_top" xlink:title="A target for a model partial state. ">
<polygon fill="white" stroke="black" points="137.722,-0.5 137.722,-18.5 258.219,-18.5 258.219,-0.5 137.722,-0.5"/>
<text text-anchor="middle" x="197.97" y="-6.5" font-family="Helvetica,sans-Serif" font-size="10.00">ocra::PartialTargetState</text>
</a>
</g>
</g>
<!-- Node0&#45;&gt;Node3 -->
<g id="edge3" class="edge"><title>Node0&#45;&gt;Node3</title>
<path fill="none" stroke="midnightblue" d="M147.575,-49.2095C160.339,-39.4052 176.818,-26.7474 187.392,-18.6253"/>
<polygon fill="midnightblue" stroke="midnightblue" points="145.248,-46.5832 139.45,-55.4504 149.512,-52.1345 145.248,-46.5832"/>
</g>
<!-- Node1 -->
<g id="node2" class="node"><title>Node1</title>
<g id="a_node2"><a xlink:href="../../db/de3/classocra_1_1NamedInstance.html" target="_top" xlink:title="ocra::NamedInstance">
<polygon fill="white" stroke="black" points="73.4458,-110.5 73.4458,-128.5 184.495,-128.5 184.495,-110.5 73.4458,-110.5"/>
<text text-anchor="middle" x="128.97" y="-116.5" font-family="Helvetica,sans-Serif" font-size="10.00">ocra::NamedInstance</text>
</a>
</g>
</g>
<!-- Node1&#45;&gt;Node0 -->
<g id="edge1" class="edge"><title>Node1&#45;&gt;Node0</title>
<path fill="none" stroke="midnightblue" d="M128.97,-100.175C128.97,-91.0945 128.97,-80.5949 128.97,-73.5496"/>
<polygon fill="midnightblue" stroke="midnightblue" points="125.47,-100.219 128.97,-110.219 132.47,-100.219 125.47,-100.219"/>
</g>
</g>
</svg>
