<?xml version="1.0" encoding="UTF-8" standalone="no"?>
<!DOCTYPE svg PUBLIC "-//W3C//DTD SVG 1.1//EN"
 "http://www.w3.org/Graphics/SVG/1.1/DTD/svg11.dtd">
<!-- Generated by graphviz version 2.38.0 (20140413.2041)
 -->
<!-- Title: NamedInstance.cpp Pages: 1 -->
<svg width="152pt" height="137pt"
 viewBox="0.00 0.00 151.84 137.00" xmlns="http://www.w3.org/2000/svg" xmlns:xlink="http://www.w3.org/1999/xlink">
<g id="graph0" class="graph" transform="scale(1 1) rotate(0) translate(4 133)">
<title>NamedInstance.cpp</title>
<polygon fill="white" stroke="none" points="-4,4 -4,-133 147.842,-133 147.842,4 -4,4"/>
<!-- Node0 -->
<g id="node1" class="node"><title>Node0</title>
<polygon fill="#bfbfbf" stroke="black" points="19.4507,-110.5 19.4507,-128.5 124.391,-128.5 124.391,-110.5 19.4507,-110.5"/>
<text text-anchor="middle" x="71.9209" y="-116.5" font-family="Helvetica,sans-Serif" font-size="10.00">NamedInstance.cpp</text>
</g>
<!-- Node1 -->
<g id="node2" class="node"><title>Node1</title>
<g id="a_node2"><a xlink:href="../../df/d97/NamedInstance_8h.html" target="_top" xlink:title="ocra/optim/NamedInstance.h">
<polygon fill="white" stroke="black" points="0,-55.5 0,-73.5 143.842,-73.5 143.842,-55.5 0,-55.5"/>
<text text-anchor="middle" x="71.9209" y="-61.5" font-family="Helvetica,sans-Serif" font-size="10.00">ocra/optim/NamedInstance.h</text>
</a>
</g>
</g>
<!-- Node0&#45;&gt;Node1 -->
<g id="edge1" class="edge"><title>Node0&#45;&gt;Node1</title>
<path fill="none" stroke="midnightblue" d="M71.9209,-110.219C71.9209,-103.177 71.9209,-92.8083 71.9209,-83.8277"/>
<polygon fill="midnightblue" stroke="midnightblue" points="75.421,-83.5495 71.9209,-73.5496 68.421,-83.5496 75.421,-83.5495"/>
</g>
<!-- Node2 -->
<g id="node3" class="node"><title>Node2</title>
<polygon fill="white" stroke="#bfbfbf" points="51.6943,-0.5 51.6943,-18.5 92.1475,-18.5 92.1475,-0.5 51.6943,-0.5"/>
<text text-anchor="middle" x="71.9209" y="-6.5" font-family="Helvetica,sans-Serif" font-size="10.00">string</text>
</g>
<!-- Node1&#45;&gt;Node2 -->
<g id="edge2" class="edge"><title>Node1&#45;&gt;Node2</title>
<path fill="none" stroke="midnightblue" d="M71.9209,-55.2188C71.9209,-48.1769 71.9209,-37.8083 71.9209,-28.8277"/>
<polygon fill="midnightblue" stroke="midnightblue" points="75.421,-28.5495 71.9209,-18.5496 68.421,-28.5496 75.421,-28.5495"/>
</g>
</g>
</svg>
