<?xml version="1.0" encoding="UTF-8" standalone="no"?>
<!DOCTYPE svg PUBLIC "-//W3C//DTD SVG 1.1//EN"
 "http://www.w3.org/Graphics/SVG/1.1/DTD/svg11.dtd">
<!-- Generated by graphviz version 2.38.0 (20140413.2041)
 -->
<!-- Title: ocra::FullTargetState::Pimpl Pages: 1 -->
<svg width="138pt" height="132pt"
 viewBox="0.00 0.00 138.02 132.00" xmlns="http://www.w3.org/2000/svg" xmlns:xlink="http://www.w3.org/1999/xlink">
<g id="graph0" class="graph" transform="scale(1 1) rotate(0) translate(4 128)">
<title>ocra::FullTargetState::Pimpl</title>
<polygon fill="white" stroke="none" points="-4,4 -4,-128 134.02,-128 134.02,4 -4,4"/>
<!-- Node1 -->
<g id="node1" class="node"><title>Node1</title>
<polygon fill="#bfbfbf" stroke="black" points="11.1602,-0.5 11.1602,-28.5 119.426,-28.5 119.426,-0.5 11.1602,-0.5"/>
<text text-anchor="start" x="19.1602" y="-16.5" font-family="Helvetica,sans-Serif" font-size="10.00">ocra::FullTargetState</text>
<text text-anchor="middle" x="65.293" y="-6.5" font-family="Helvetica,sans-Serif" font-size="10.00">::Pimpl</text>
</g>
<!-- Node2 -->
<g id="node2" class="node"><title>Node2</title>
<polygon fill="white" stroke="#bfbfbf" points="0,-105.5 0,-123.5 56.5859,-123.5 56.5859,-105.5 0,-105.5"/>
<text text-anchor="middle" x="28.293" y="-111.5" font-family="Helvetica,sans-Serif" font-size="10.00">VectorXd</text>
</g>
<!-- Node2&#45;&gt;Node1 -->
<g id="edge1" class="edge"><title>Node2&#45;&gt;Node1</title>
<path fill="none" stroke="#9a32cd" stroke-dasharray="5,2" d="M34.878,-96.0586C42.1883,-76.6962 53.8188,-45.8911 60.3767,-28.5216"/>
<polygon fill="#9a32cd" stroke="#9a32cd" points="31.5786,-94.8885 31.3208,-105.48 38.1274,-97.3611 31.5786,-94.8885"/>
<text text-anchor="middle" x="66.8052" y="-79" font-family="Helvetica,sans-Serif" font-size="10.00"> tau</text>
<text text-anchor="middle" x="66.8052" y="-69" font-family="Helvetica,sans-Serif" font-size="10.00">qdot</text>
<text text-anchor="middle" x="66.8052" y="-59" font-family="Helvetica,sans-Serif" font-size="10.00">q</text>
<text text-anchor="middle" x="66.8052" y="-49" font-family="Helvetica,sans-Serif" font-size="10.00">qddot</text>
</g>
<!-- Node3 -->
<g id="node3" class="node"><title>Node3</title>
<polygon fill="white" stroke="#bfbfbf" points="74.5664,-105.5 74.5664,-123.5 130.02,-123.5 130.02,-105.5 74.5664,-105.5"/>
<text text-anchor="middle" x="102.293" y="-111.5" font-family="Helvetica,sans-Serif" font-size="10.00">MatrixXd</text>
</g>
<!-- Node3&#45;&gt;Node1 -->
<g id="edge2" class="edge"><title>Node3&#45;&gt;Node1</title>
<path fill="none" stroke="#9a32cd" stroke-dasharray="5,2" d="M96.9359,-95.2693C92.8103,-81.781 86.7379,-63.0447 80.293,-47 77.8095,-40.8173 74.6908,-34.132 71.9413,-28.5175"/>
<polygon fill="#9a32cd" stroke="#9a32cd" points="93.6857,-96.6163 99.9088,-105.191 100.391,-94.607 93.6857,-96.6163"/>
<text text-anchor="middle" x="98.8472" y="-64" font-family="Helvetica,sans-Serif" font-size="10.00"> M</text>
</g>
</g>
</svg>
