<?xml version="1.0" encoding="UTF-8" standalone="no"?>
<!DOCTYPE svg PUBLIC "-//W3C//DTD SVG 1.1//EN"
 "http://www.w3.org/Graphics/SVG/1.1/DTD/svg11.dtd">
<!-- Generated by graphviz version 2.38.0 (20140413.2041)
 -->
<!-- Title: Objective.h Pages: 1 -->
<svg width="1539pt" height="452pt"
 viewBox="0.00 0.00 1539.02 452.00" xmlns="http://www.w3.org/2000/svg" xmlns:xlink="http://www.w3.org/1999/xlink">
<g id="graph0" class="graph" transform="scale(1 1) rotate(0) translate(4 448)">
<title>Objective.h</title>
<polygon fill="white" stroke="none" points="-4,4 -4,-448 1535.02,-448 1535.02,4 -4,4"/>
<!-- Node0 -->
<g id="node1" class="node"><title>Node0</title>
<polygon fill="#bfbfbf" stroke="black" points="712.988,-425.5 712.988,-443.5 779.012,-443.5 779.012,-425.5 712.988,-425.5"/>
<text text-anchor="middle" x="746" y="-431.5" font-family="Helvetica,sans-Serif" font-size="10.00">Objective.h</text>
</g>
<!-- Node1 -->
<g id="node2" class="node"><title>Node1</title>
<g id="a_node2"><a xlink:href="../../d7/d90/Variable_8h.html" target="_top" xlink:title="Declaration file of the Variable class. ">
<polygon fill="white" stroke="black" points="514.123,-190.5 514.123,-208.5 623.877,-208.5 623.877,-190.5 514.123,-190.5"/>
<text text-anchor="middle" x="569" y="-196.5" font-family="Helvetica,sans-Serif" font-size="10.00">ocra/optim/Variable.h</text>
</a>
</g>
</g>
<!-- Node0&#45;&gt;Node1 -->
<g id="edge1" class="edge"><title>Node0&#45;&gt;Node1</title>
<path fill="none" stroke="midnightblue" d="M739.045,-425.408C731.504,-416.574 719.184,-401.954 709,-389 659.93,-326.58 604.487,-250.026 580.773,-216.978"/>
<polygon fill="midnightblue" stroke="midnightblue" points="583.383,-214.611 574.715,-208.519 577.692,-218.687 583.383,-214.611"/>
</g>
<!-- Node8 -->
<g id="node9" class="node"><title>Node8</title>
<polygon fill="white" stroke="#bfbfbf" points="369.313,-0.5 369.313,-28.5 468.687,-28.5 468.687,-0.5 369.313,-0.5"/>
<text text-anchor="start" x="377.313" y="-16.5" font-family="Helvetica,sans-Serif" font-size="10.00">boost/type_traits/is</text>
<text text-anchor="middle" x="419" y="-6.5" font-family="Helvetica,sans-Serif" font-size="10.00">_base_of.hpp</text>
</g>
<!-- Node0&#45;&gt;Node8 -->
<g id="edge55" class="edge"><title>Node0&#45;&gt;Node8</title>
<path fill="none" stroke="midnightblue" d="M712.801,-431.528C572.827,-422.779 38,-384.816 38,-315.5 38,-315.5 38,-315.5 38,-138.5 38,-104.76 31.787,-87.4215 57,-65 62.6066,-60.0141 257.759,-35.348 359.145,-22.824"/>
<polygon fill="midnightblue" stroke="midnightblue" points="359.752,-26.2758 369.248,-21.5779 358.895,-19.3285 359.752,-26.2758"/>
</g>
<!-- Node9 -->
<g id="node10" class="node"><title>Node9</title>
<polygon fill="white" stroke="#bfbfbf" points="180.582,-5.5 180.582,-23.5 299.418,-23.5 299.418,-5.5 180.582,-5.5"/>
<text text-anchor="middle" x="240" y="-11.5" font-family="Helvetica,sans-Serif" font-size="10.00">boost/static_assert.hpp</text>
</g>
<!-- Node0&#45;&gt;Node9 -->
<g id="edge54" class="edge"><title>Node0&#45;&gt;Node9</title>
<path fill="none" stroke="midnightblue" d="M712.858,-433.169C600.329,-431.73 233.694,-424.374 122,-389 61.652,-369.888 0,-378.802 0,-315.5 0,-315.5 0,-315.5 0,-138.5 0,-102.319 6.90405,-87.797 35,-65 72.9024,-34.246 126.922,-22.0989 169.994,-17.5194"/>
<polygon fill="midnightblue" stroke="midnightblue" points="170.503,-20.9869 180.128,-16.5583 169.842,-14.0182 170.503,-20.9869"/>
</g>
<!-- Node23 -->
<g id="node24" class="node"><title>Node23</title>
<g id="a_node24"><a xlink:href="../../df/df5/Function_8h.html" target="_top" xlink:title="Declaration file of the Function class. ">
<polygon fill="white" stroke="black" points="837.921,-250.5 837.921,-268.5 950.079,-268.5 950.079,-250.5 837.921,-250.5"/>
<text text-anchor="middle" x="894" y="-256.5" font-family="Helvetica,sans-Serif" font-size="10.00">ocra/optim/Function.h</text>
</a>
</g>
</g>
<!-- Node0&#45;&gt;Node23 -->
<g id="edge32" class="edge"><title>Node0&#45;&gt;Node23</title>
<path fill="none" stroke="midnightblue" d="M737.75,-425.07C725.137,-411.115 703.749,-382.519 716,-360 742.84,-310.664 804.771,-284.264 847.994,-271.32"/>
<polygon fill="midnightblue" stroke="midnightblue" points="849.077,-274.651 857.729,-268.536 847.152,-267.921 849.077,-274.651"/>
</g>
<!-- Node33 -->
<g id="node34" class="node"><title>Node33</title>
<g id="a_node34"><a xlink:href="../../df/d55/FunctionInterfaceMapping_8h.html" target="_top" xlink:title="Declaration file of the FunctionInterfaceMapping struct. ">
<polygon fill="white" stroke="black" points="724.636,-360.5 724.636,-388.5 867.364,-388.5 867.364,-360.5 724.636,-360.5"/>
<text text-anchor="start" x="732.636" y="-376.5" font-family="Helvetica,sans-Serif" font-size="10.00">ocra/optim/FunctionInterface</text>
<text text-anchor="middle" x="796" y="-366.5" font-family="Helvetica,sans-Serif" font-size="10.00">Mapping.h</text>
</a>
</g>
</g>
<!-- Node0&#45;&gt;Node33 -->
<g id="edge52" class="edge"><title>Node0&#45;&gt;Node33</title>
<path fill="none" stroke="midnightblue" d="M752.952,-425.435C759.389,-417.969 769.243,-406.538 777.9,-396.496"/>
<polygon fill="midnightblue" stroke="midnightblue" points="780.619,-398.702 784.498,-388.843 775.317,-394.132 780.619,-398.702"/>
</g>
<!-- Node34 -->
<g id="node35" class="node"><title>Node34</title>
<g id="a_node35"><a xlink:href="../../d1/d0e/SquaredLinearFunction_8h.html" target="_top" xlink:title="Declaration file of the SquaredLinearFunction class. ">
<polygon fill="white" stroke="black" points="932.466,-360.5 932.466,-388.5 1063.53,-388.5 1063.53,-360.5 932.466,-360.5"/>
<text text-anchor="start" x="940.466" y="-376.5" font-family="Helvetica,sans-Serif" font-size="10.00">ocra/optim/SquaredLinear</text>
<text text-anchor="middle" x="998" y="-366.5" font-family="Helvetica,sans-Serif" font-size="10.00">Function.h</text>
</a>
</g>
</g>
<!-- Node0&#45;&gt;Node34 -->
<g id="edge56" class="edge"><title>Node0&#45;&gt;Node34</title>
<path fill="none" stroke="midnightblue" d="M779.204,-425.858C817.715,-416.994 882.178,-402.157 931.185,-390.878"/>
<polygon fill="midnightblue" stroke="midnightblue" points="932.12,-394.254 941.08,-388.601 930.55,-387.433 932.12,-394.254"/>
</g>
<!-- Node35 -->
<g id="node36" class="node"><title>Node35</title>
<g id="a_node36"><a xlink:href="../../dc/d8a/LinearFunction_8h.html" target="_top" xlink:title="Declaration file of the LinearFunction class. ">
<polygon fill="white" stroke="black" points="824.022,-305.5 824.022,-323.5 963.978,-323.5 963.978,-305.5 824.022,-305.5"/>
<text text-anchor="middle" x="894" y="-311.5" font-family="Helvetica,sans-Serif" font-size="10.00">ocra/optim/LinearFunction.h</text>
</a>
</g>
</g>
<!-- Node0&#45;&gt;Node35 -->
<g id="edge66" class="edge"><title>Node0&#45;&gt;Node35</title>
<path fill="none" stroke="midnightblue" d="M779.089,-430.929C808.658,-426.847 851.052,-416.291 876,-389 889.684,-374.031 893.41,-350.388 894.212,-333.975"/>
<polygon fill="midnightblue" stroke="midnightblue" points="897.711,-334.023 894.386,-323.963 890.712,-333.901 897.711,-334.023"/>
</g>
<!-- Node38 -->
<g id="node39" class="node"><title>Node38</title>
<g id="a_node39"><a xlink:href="../../d4/d83/QuadraticFunction_8h.html" target="_top" xlink:title="Declaration file of the QuadraticFunction class. ">
<polygon fill="white" stroke="black" points="1052.24,-305.5 1052.24,-323.5 1207.76,-323.5 1207.76,-305.5 1052.24,-305.5"/>
<text text-anchor="middle" x="1130" y="-311.5" font-family="Helvetica,sans-Serif" font-size="10.00">ocra/optim/QuadraticFunction.h</text>
</a>
</g>
</g>
<!-- Node0&#45;&gt;Node38 -->
<g id="edge67" class="edge"><title>Node0&#45;&gt;Node38</title>
<path fill="none" stroke="midnightblue" d="M779.245,-432.14C852.131,-428.658 1023.43,-417.592 1073,-389 1095.68,-375.915 1112.5,-349.913 1121.78,-332.61"/>
<polygon fill="midnightblue" stroke="midnightblue" points="1124.96,-334.092 1126.36,-323.591 1118.72,-330.922 1124.96,-334.092"/>
</g>
<!-- Node2 -->
<g id="node3" class="node"><title>Node2</title>
<g id="a_node3"><a xlink:href="../../d8/ddc/ObserverSubject_8h.html" target="_top" xlink:title="Declaration file of the Observer, Subject and ObserverSubject classes. ">
<polygon fill="white" stroke="black" points="621.86,-130.5 621.86,-148.5 770.14,-148.5 770.14,-130.5 621.86,-130.5"/>
<text text-anchor="middle" x="696" y="-136.5" font-family="Helvetica,sans-Serif" font-size="10.00">ocra/optim/ObserverSubject.h</text>
</a>
</g>
</g>
<!-- Node1&#45;&gt;Node2 -->
<g id="edge2" class="edge"><title>Node1&#45;&gt;Node2</title>
<path fill="none" stroke="midnightblue" d="M586.659,-190.435C607.959,-180.708 643.993,-164.251 668.839,-152.904"/>
<polygon fill="midnightblue" stroke="midnightblue" points="670.439,-156.021 678.082,-148.683 667.531,-149.654 670.439,-156.021"/>
</g>
<!-- Node13 -->
<g id="node14" class="node"><title>Node13</title>
<g id="a_node14"><a xlink:href="../../d1/de6/Composite_8h.html" target="_top" xlink:title="Utility classes and functions to implement the Composite design pattern. ">
<polygon fill="white" stroke="black" points="394.2,-130.5 394.2,-148.5 515.8,-148.5 515.8,-130.5 394.2,-130.5"/>
<text text-anchor="middle" x="455" y="-136.5" font-family="Helvetica,sans-Serif" font-size="10.00">ocra/optim/Composite.h</text>
</a>
</g>
</g>
<!-- Node1&#45;&gt;Node13 -->
<g id="edge16" class="edge"><title>Node1&#45;&gt;Node13</title>
<path fill="none" stroke="midnightblue" d="M553.149,-190.435C534.283,-180.837 502.54,-164.687 480.274,-153.359"/>
<polygon fill="midnightblue" stroke="midnightblue" points="481.584,-150.098 471.084,-148.683 478.41,-156.337 481.584,-150.098"/>
</g>
<!-- Node16 -->
<g id="node17" class="node"><title>Node16</title>
<polygon fill="white" stroke="#bfbfbf" points="66.291,-70.5 66.291,-88.5 185.709,-88.5 185.709,-70.5 66.291,-70.5"/>
<text text-anchor="middle" x="126" y="-76.5" font-family="Helvetica,sans-Serif" font-size="10.00">boost/noncopyable.hpp</text>
</g>
<!-- Node1&#45;&gt;Node16 -->
<g id="edge29" class="edge"><title>Node1&#45;&gt;Node16</title>
<path fill="none" stroke="midnightblue" d="M538.899,-190.482C461.16,-169.775 253.644,-114.5 165.976,-91.1484"/>
<polygon fill="midnightblue" stroke="midnightblue" points="166.706,-87.7208 156.142,-88.5289 164.904,-94.4849 166.706,-87.7208"/>
</g>
<!-- Node18 -->
<g id="node19" class="node"><title>Node18</title>
<polygon fill="white" stroke="#bfbfbf" points="1142.38,-70.5 1142.38,-88.5 1185.62,-88.5 1185.62,-70.5 1142.38,-70.5"/>
<text text-anchor="middle" x="1164" y="-76.5" font-family="Helvetica,sans-Serif" font-size="10.00">vector</text>
</g>
<!-- Node1&#45;&gt;Node18 -->
<g id="edge31" class="edge"><title>Node1&#45;&gt;Node18</title>
<path fill="none" stroke="midnightblue" d="M604.087,-190.441C663.68,-176.908 788.573,-149.214 895,-130 1000.28,-110.993 1030.2,-123.608 1133,-94 1134.67,-93.5197 1136.36,-92.9703 1138.06,-92.3742"/>
<polygon fill="midnightblue" stroke="midnightblue" points="1139.56,-95.5451 1147.56,-88.6047 1136.98,-89.0382 1139.56,-95.5451"/>
</g>
<!-- Node21 -->
<g id="node22" class="node"><title>Node21</title>
<polygon fill="white" stroke="#bfbfbf" points="534.035,-130.5 534.035,-148.5 603.965,-148.5 603.965,-130.5 534.035,-130.5"/>
<text text-anchor="middle" x="569" y="-136.5" font-family="Helvetica,sans-Serif" font-size="10.00">Eigen/Eigen</text>
</g>
<!-- Node1&#45;&gt;Node21 -->
<g id="edge28" class="edge"><title>Node1&#45;&gt;Node21</title>
<path fill="none" stroke="midnightblue" d="M569,-190.435C569,-182.389 569,-169.739 569,-159.185"/>
<polygon fill="midnightblue" stroke="midnightblue" points="572.5,-158.872 569,-148.872 565.5,-158.872 572.5,-158.872"/>
</g>
<!-- Node22 -->
<g id="node23" class="node"><title>Node22</title>
<polygon fill="white" stroke="#bfbfbf" points="903.773,-130.5 903.773,-148.5 944.227,-148.5 944.227,-130.5 903.773,-130.5"/>
<text text-anchor="middle" x="924" y="-136.5" font-family="Helvetica,sans-Serif" font-size="10.00">string</text>
</g>
<!-- Node1&#45;&gt;Node22 -->
<g id="edge30" class="edge"><title>Node1&#45;&gt;Node22</title>
<path fill="none" stroke="midnightblue" d="M617.989,-190.496C692.453,-178.33 831.957,-155.538 893.5,-145.483"/>
<polygon fill="midnightblue" stroke="midnightblue" points="894.406,-148.882 903.711,-143.815 893.277,-141.973 894.406,-148.882"/>
</g>
<!-- Node3 -->
<g id="node4" class="node"><title>Node3</title>
<g id="a_node4"><a xlink:href="../../df/d67/ObserverSubjectBase_8h.html" target="_top" xlink:title="Declaration file of the Observer and Subject base classes. ">
<polygon fill="white" stroke="black" points="724.03,-65.5 724.03,-93.5 863.97,-93.5 863.97,-65.5 724.03,-65.5"/>
<text text-anchor="start" x="732.03" y="-81.5" font-family="Helvetica,sans-Serif" font-size="10.00">ocra/optim/ObserverSubject</text>
<text text-anchor="middle" x="794" y="-71.5" font-family="Helvetica,sans-Serif" font-size="10.00">Base.h</text>
</a>
</g>
</g>
<!-- Node2&#45;&gt;Node3 -->
<g id="edge3" class="edge"><title>Node2&#45;&gt;Node3</title>
<path fill="none" stroke="midnightblue" d="M709.626,-130.435C723.331,-122.324 744.941,-109.535 762.859,-98.9304"/>
<polygon fill="midnightblue" stroke="midnightblue" points="765.008,-101.726 771.831,-93.6203 761.443,-95.7016 765.008,-101.726"/>
</g>
<!-- Node7 -->
<g id="node8" class="node"><title>Node7</title>
<polygon fill="white" stroke="#bfbfbf" points="918.313,-0.5 918.313,-28.5 1017.69,-28.5 1017.69,-0.5 918.313,-0.5"/>
<text text-anchor="start" x="926.313" y="-16.5" font-family="Helvetica,sans-Serif" font-size="10.00">boost/type_traits/is</text>
<text text-anchor="middle" x="968" y="-6.5" font-family="Helvetica,sans-Serif" font-size="10.00">_class.hpp</text>
</g>
<!-- Node2&#45;&gt;Node7 -->
<g id="edge15" class="edge"><title>Node2&#45;&gt;Node7</title>
<path fill="none" stroke="midnightblue" d="M770.357,-134.307C835.519,-129.087 923.676,-117.768 949,-94 963.902,-80.0138 967.994,-56.5081 968.755,-38.8559"/>
<polygon fill="midnightblue" stroke="midnightblue" points="972.256,-38.7965 968.865,-28.7589 965.256,-38.72 972.256,-38.7965"/>
</g>
<!-- Node2&#45;&gt;Node8 -->
<g id="edge13" class="edge"><title>Node2&#45;&gt;Node8</title>
<path fill="none" stroke="midnightblue" d="M695.87,-130.217C695.152,-114.882 691.305,-82.0755 672,-65 664.736,-58.5748 551.306,-38.1547 478.818,-25.6386"/>
<polygon fill="midnightblue" stroke="midnightblue" points="479.325,-22.1746 468.876,-23.9273 478.138,-29.0731 479.325,-22.1746"/>
</g>
<!-- Node2&#45;&gt;Node9 -->
<g id="edge12" class="edge"><title>Node2&#45;&gt;Node9</title>
<path fill="none" stroke="midnightblue" d="M692.381,-130.381C684.923,-114.714 666.228,-80.4923 639,-65 631.913,-60.9674 422.468,-36.4351 309.942,-23.488"/>
<polygon fill="midnightblue" stroke="midnightblue" points="310.03,-19.9752 299.695,-22.3103 309.23,-26.9294 310.03,-19.9752"/>
</g>
<!-- Node11 -->
<g id="node12" class="node"><title>Node11</title>
<g id="a_node12"><a xlink:href="../../db/ddf/ocra__events_8h.html" target="_top" xlink:title="ocra/optim/ocra_events.h">
<polygon fill="white" stroke="black" points="995.86,-70.5 995.86,-88.5 1124.14,-88.5 1124.14,-70.5 995.86,-70.5"/>
<text text-anchor="middle" x="1060" y="-76.5" font-family="Helvetica,sans-Serif" font-size="10.00">ocra/optim/ocra_events.h</text>
</a>
</g>
</g>
<!-- Node2&#45;&gt;Node11 -->
<g id="edge11" class="edge"><title>Node2&#45;&gt;Node11</title>
<path fill="none" stroke="midnightblue" d="M749.281,-130.487C806.753,-121.779 900.928,-107.322 982,-94 989.179,-92.8203 996.724,-91.5513 1004.18,-90.2802"/>
<polygon fill="midnightblue" stroke="midnightblue" points="1004.98,-93.6944 1014.24,-88.554 1003.79,-86.7952 1004.98,-93.6944"/>
</g>
<!-- Node12 -->
<g id="node13" class="node"><title>Node12</title>
<polygon fill="white" stroke="#bfbfbf" points="530.313,-65.5 530.313,-93.5 629.687,-93.5 629.687,-65.5 530.313,-65.5"/>
<text text-anchor="start" x="538.313" y="-81.5" font-family="Helvetica,sans-Serif" font-size="10.00">boost/type_traits/is</text>
<text text-anchor="middle" x="580" y="-71.5" font-family="Helvetica,sans-Serif" font-size="10.00">_convertible.hpp</text>
</g>
<!-- Node2&#45;&gt;Node12 -->
<g id="edge14" class="edge"><title>Node2&#45;&gt;Node12</title>
<path fill="none" stroke="midnightblue" d="M679.871,-130.435C663.277,-122.138 636.892,-108.946 615.409,-98.2043"/>
<polygon fill="midnightblue" stroke="midnightblue" points="616.75,-94.962 606.241,-93.6203 613.62,-101.223 616.75,-94.962"/>
</g>
<!-- Node4 -->
<g id="node5" class="node"><title>Node4</title>
<polygon fill="white" stroke="#bfbfbf" points="626.596,-5.5 626.596,-23.5 685.404,-23.5 685.404,-5.5 626.596,-5.5"/>
<text text-anchor="middle" x="656" y="-11.5" font-family="Helvetica,sans-Serif" font-size="10.00">functional</text>
</g>
<!-- Node3&#45;&gt;Node4 -->
<g id="edge4" class="edge"><title>Node3&#45;&gt;Node4</title>
<path fill="none" stroke="midnightblue" d="M765.406,-65.4464C741.121,-54.3595 706.524,-38.5654 682.773,-27.7225"/>
<polygon fill="midnightblue" stroke="midnightblue" points="684.179,-24.5171 673.629,-23.548 681.272,-30.8849 684.179,-24.5171"/>
</g>
<!-- Node5 -->
<g id="node6" class="node"><title>Node5</title>
<polygon fill="white" stroke="#bfbfbf" points="512.436,-5.5 512.436,-23.5 569.564,-23.5 569.564,-5.5 512.436,-5.5"/>
<text text-anchor="middle" x="541" y="-11.5" font-family="Helvetica,sans-Serif" font-size="10.00">algorithm</text>
</g>
<!-- Node3&#45;&gt;Node5 -->
<g id="edge5" class="edge"><title>Node3&#45;&gt;Node5</title>
<path fill="none" stroke="midnightblue" d="M741.578,-65.4464C693.34,-53.4345 622.913,-35.8972 579.623,-25.1177"/>
<polygon fill="midnightblue" stroke="midnightblue" points="580.31,-21.6819 569.761,-22.6617 578.619,-28.4744 580.31,-21.6819"/>
</g>
<!-- Node6 -->
<g id="node7" class="node"><title>Node6</title>
<polygon fill="white" stroke="#bfbfbf" points="702.955,-5.5 702.955,-23.5 781.045,-23.5 781.045,-5.5 702.955,-5.5"/>
<text text-anchor="middle" x="742" y="-11.5" font-family="Helvetica,sans-Serif" font-size="10.00">boost/any.hpp</text>
</g>
<!-- Node3&#45;&gt;Node6 -->
<g id="edge6" class="edge"><title>Node3&#45;&gt;Node6</title>
<path fill="none" stroke="midnightblue" d="M783.226,-65.4464C775.138,-55.6477 764.015,-42.1721 755.361,-31.6874"/>
<polygon fill="midnightblue" stroke="midnightblue" points="757.858,-29.2143 748.793,-23.7301 752.459,-33.6703 757.858,-29.2143"/>
</g>
<!-- Node3&#45;&gt;Node7 -->
<g id="edge7" class="edge"><title>Node3&#45;&gt;Node7</title>
<path fill="none" stroke="midnightblue" d="M830.053,-65.4464C856.883,-55.7321 893.693,-42.4041 922.541,-31.9592"/>
<polygon fill="midnightblue" stroke="midnightblue" points="923.782,-35.2323 931.993,-28.5369 921.399,-28.6505 923.782,-35.2323"/>
</g>
<!-- Node3&#45;&gt;Node8 -->
<g id="edge8" class="edge"><title>Node3&#45;&gt;Node8</title>
<path fill="none" stroke="midnightblue" d="M723.905,-66.7241C653.231,-54.8508 545.319,-36.7215 478.628,-25.5175"/>
<polygon fill="midnightblue" stroke="midnightblue" points="479.136,-22.0538 468.694,-23.8486 477.976,-28.9571 479.136,-22.0538"/>
</g>
<!-- Node3&#45;&gt;Node9 -->
<g id="edge9" class="edge"><title>Node3&#45;&gt;Node9</title>
<path fill="none" stroke="midnightblue" d="M723.836,-70.521C617.217,-58.3965 415.613,-35.4705 309.432,-23.3957"/>
<polygon fill="midnightblue" stroke="midnightblue" points="309.792,-19.9141 299.46,-22.2617 309.001,-26.8693 309.792,-19.9141"/>
</g>
<!-- Node10 -->
<g id="node11" class="node"><title>Node10</title>
<polygon fill="white" stroke="#bfbfbf" points="799.195,-0.5 799.195,-28.5 900.805,-28.5 900.805,-0.5 799.195,-0.5"/>
<text text-anchor="start" x="807.195" y="-16.5" font-family="Helvetica,sans-Serif" font-size="10.00">boost/ptr_container</text>
<text text-anchor="middle" x="850" y="-6.5" font-family="Helvetica,sans-Serif" font-size="10.00">/ptr_vector.hpp</text>
</g>
<!-- Node3&#45;&gt;Node10 -->
<g id="edge10" class="edge"><title>Node3&#45;&gt;Node10</title>
<path fill="none" stroke="midnightblue" d="M805.603,-65.4464C813.112,-56.9992 823.049,-45.8195 831.619,-36.1791"/>
<polygon fill="midnightblue" stroke="midnightblue" points="834.384,-38.3363 838.412,-28.5369 829.152,-33.6858 834.384,-38.3363"/>
</g>
<!-- Node13&#45;&gt;Node5 -->
<g id="edge25" class="edge"><title>Node13&#45;&gt;Node5</title>
<path fill="none" stroke="midnightblue" d="M460.643,-130.43C474.548,-110.541 510.689,-58.8515 529.398,-32.0933"/>
<polygon fill="midnightblue" stroke="midnightblue" points="532.362,-33.9624 535.224,-23.7614 526.625,-29.9513 532.362,-33.9624"/>
</g>
<!-- Node13&#45;&gt;Node8 -->
<g id="edge21" class="edge"><title>Node13&#45;&gt;Node8</title>
<path fill="none" stroke="midnightblue" d="M393.85,-131.827C346.392,-125.239 286.193,-113.305 271,-94 242.358,-57.6047 306.61,-36.1142 359.275,-25.0681"/>
<polygon fill="midnightblue" stroke="midnightblue" points="360.168,-28.4587 369.285,-23.0613 358.792,-21.5953 360.168,-28.4587"/>
</g>
<!-- Node13&#45;&gt;Node9 -->
<g id="edge20" class="edge"><title>Node13&#45;&gt;Node9</title>
<path fill="none" stroke="midnightblue" d="M393.955,-131.557C344.096,-124.659 278.894,-112.425 260,-94 243.9,-78.2995 240.11,-51.5871 239.533,-33.744"/>
<polygon fill="midnightblue" stroke="midnightblue" points="243.033,-33.7243 239.514,-23.731 236.033,-33.7377 243.033,-33.7243"/>
</g>
<!-- Node13&#45;&gt;Node12 -->
<g id="edge22" class="edge"><title>Node13&#45;&gt;Node12</title>
<path fill="none" stroke="midnightblue" d="M472.381,-130.435C490.422,-122.064 519.205,-108.709 542.466,-97.9159"/>
<polygon fill="midnightblue" stroke="midnightblue" points="544.125,-101.004 551.723,-93.6203 541.179,-94.6545 544.125,-101.004"/>
</g>
<!-- Node14 -->
<g id="node15" class="node"><title>Node14</title>
<g id="a_node15"><a xlink:href="../../de/df3/ocra__assert_8h.html" target="_top" xlink:title="ocra/optim/ocra_assert.h">
<polygon fill="white" stroke="black" points="1404.98,-70.5 1404.98,-88.5 1531.02,-88.5 1531.02,-70.5 1404.98,-70.5"/>
<text text-anchor="middle" x="1468" y="-76.5" font-family="Helvetica,sans-Serif" font-size="10.00">ocra/optim/ocra_assert.h</text>
</a>
</g>
</g>
<!-- Node13&#45;&gt;Node14 -->
<g id="edge17" class="edge"><title>Node13&#45;&gt;Node14</title>
<path fill="none" stroke="midnightblue" d="M516.054,-130.796C519.077,-130.506 522.072,-130.238 525,-130 911.169,-98.6235 1011.04,-137.814 1396,-94 1404.09,-93.0798 1412.63,-91.7762 1420.89,-90.3384"/>
<polygon fill="midnightblue" stroke="midnightblue" points="1421.58,-93.7715 1430.79,-88.5348 1420.32,-86.885 1421.58,-93.7715"/>
</g>
<!-- Node13&#45;&gt;Node16 -->
<g id="edge19" class="edge"><title>Node13&#45;&gt;Node16</title>
<path fill="none" stroke="midnightblue" d="M408.45,-130.487C357.315,-121.659 272.776,-106.988 200,-94 193.435,-92.8284 186.545,-91.5871 179.721,-90.3505"/>
<polygon fill="midnightblue" stroke="midnightblue" points="180.28,-86.8948 169.815,-88.5507 179.028,-93.782 180.28,-86.8948"/>
</g>
<!-- Node17 -->
<g id="node18" class="node"><title>Node17</title>
<polygon fill="white" stroke="#bfbfbf" points="280.461,-65.5 280.461,-93.5 411.539,-93.5 411.539,-65.5 280.461,-65.5"/>
<text text-anchor="start" x="288.461" y="-81.5" font-family="Helvetica,sans-Serif" font-size="10.00">boost/type_traits/has</text>
<text text-anchor="middle" x="346" y="-71.5" font-family="Helvetica,sans-Serif" font-size="10.00">_nothrow_constructor.hpp</text>
</g>
<!-- Node13&#45;&gt;Node17 -->
<g id="edge23" class="edge"><title>Node13&#45;&gt;Node17</title>
<path fill="none" stroke="midnightblue" d="M439.844,-130.435C424.321,-122.176 399.681,-109.064 379.544,-98.3489"/>
<polygon fill="midnightblue" stroke="midnightblue" points="381.129,-95.228 370.657,-93.6203 377.841,-101.408 381.129,-95.228"/>
</g>
<!-- Node13&#45;&gt;Node18 -->
<g id="edge24" class="edge"><title>Node13&#45;&gt;Node18</title>
<path fill="none" stroke="midnightblue" d="M516.06,-130.861C519.081,-130.553 522.074,-130.264 525,-130 794.6,-105.673 869.74,-157.011 1133,-94 1134.93,-93.5388 1136.88,-92.9646 1138.83,-92.3152"/>
<polygon fill="midnightblue" stroke="midnightblue" points="1140.25,-95.5203 1148.28,-88.6163 1137.69,-89.0018 1140.25,-95.5203"/>
</g>
<!-- Node19 -->
<g id="node20" class="node"><title>Node19</title>
<polygon fill="white" stroke="#bfbfbf" points="429.828,-70.5 429.828,-88.5 474.172,-88.5 474.172,-70.5 429.828,-70.5"/>
<text text-anchor="middle" x="452" y="-76.5" font-family="Helvetica,sans-Serif" font-size="10.00">iosfwd</text>
</g>
<!-- Node13&#45;&gt;Node19 -->
<g id="edge26" class="edge"><title>Node13&#45;&gt;Node19</title>
<path fill="none" stroke="midnightblue" d="M454.583,-130.435C454.167,-122.389 453.512,-109.739 452.966,-99.1846"/>
<polygon fill="midnightblue" stroke="midnightblue" points="456.445,-98.6776 452.433,-88.8718 449.454,-99.0392 456.445,-98.6776"/>
</g>
<!-- Node20 -->
<g id="node21" class="node"><title>Node20</title>
<polygon fill="white" stroke="#bfbfbf" points="881.599,-70.5 881.599,-88.5 940.401,-88.5 940.401,-70.5 881.599,-70.5"/>
<text text-anchor="middle" x="911" y="-76.5" font-family="Helvetica,sans-Serif" font-size="10.00">stdexcept</text>
</g>
<!-- Node13&#45;&gt;Node20 -->
<g id="edge27" class="edge"><title>Node13&#45;&gt;Node20</title>
<path fill="none" stroke="midnightblue" d="M516.076,-131.019C519.093,-130.67 522.08,-130.328 525,-130 679.519,-112.628 721.331,-128.27 873,-94 875.817,-93.3635 878.713,-92.5816 881.589,-91.7177"/>
<polygon fill="midnightblue" stroke="midnightblue" points="882.752,-95.0194 891.148,-88.5567 880.555,-88.3733 882.752,-95.0194"/>
</g>
<!-- Node15 -->
<g id="node16" class="node"><title>Node15</title>
<polygon fill="white" stroke="#bfbfbf" points="1446.94,-5.5 1446.94,-23.5 1489.06,-23.5 1489.06,-5.5 1446.94,-5.5"/>
<text text-anchor="middle" x="1468" y="-11.5" font-family="Helvetica,sans-Serif" font-size="10.00">cstdio</text>
</g>
<!-- Node14&#45;&gt;Node15 -->
<g id="edge18" class="edge"><title>Node14&#45;&gt;Node15</title>
<path fill="none" stroke="midnightblue" d="M1468,-70.2639C1468,-61.0635 1468,-45.881 1468,-33.8326"/>
<polygon fill="midnightblue" stroke="midnightblue" points="1471.5,-33.5389 1468,-23.539 1464.5,-33.539 1471.5,-33.5389"/>
</g>
<!-- Node23&#45;&gt;Node1 -->
<g id="edge48" class="edge"><title>Node23&#45;&gt;Node1</title>
<path fill="none" stroke="midnightblue" d="M845.82,-250.437C794.321,-241.745 710.308,-227.357 638,-214 632.079,-212.906 625.878,-211.733 619.725,-210.551"/>
<polygon fill="midnightblue" stroke="midnightblue" points="619.955,-207.031 609.472,-208.567 618.625,-213.903 619.955,-207.031"/>
</g>
<!-- Node23&#45;&gt;Node2 -->
<g id="edge49" class="edge"><title>Node23&#45;&gt;Node2</title>
<path fill="none" stroke="midnightblue" d="M837.864,-255.218C778.849,-250.458 691.717,-239.259 671,-214 657.297,-197.293 670.56,-172.687 682.39,-156.627"/>
<polygon fill="midnightblue" stroke="midnightblue" points="685.202,-158.713 688.633,-148.689 679.7,-154.385 685.202,-158.713"/>
</g>
<!-- Node24 -->
<g id="node25" class="node"><title>Node24</title>
<g id="a_node25"><a xlink:href="../../de/d94/IFunction_8h.html" target="_top" xlink:title="Declaration file of the IFunction interface. ">
<polygon fill="white" stroke="black" points="1201.53,-130.5 1201.53,-148.5 1316.47,-148.5 1316.47,-130.5 1201.53,-130.5"/>
<text text-anchor="middle" x="1259" y="-136.5" font-family="Helvetica,sans-Serif" font-size="10.00">ocra/optim/IFunction.h</text>
</a>
</g>
</g>
<!-- Node23&#45;&gt;Node24 -->
<g id="edge33" class="edge"><title>Node23&#45;&gt;Node24</title>
<path fill="none" stroke="midnightblue" d="M950.391,-254.559C1062.75,-246.436 1304.88,-227.462 1317,-214 1334.95,-194.057 1305.63,-169.27 1282.54,-154.18"/>
<polygon fill="midnightblue" stroke="midnightblue" points="1284.14,-151.049 1273.8,-148.717 1280.43,-156.985 1284.14,-151.049"/>
</g>
<!-- Node29 -->
<g id="node30" class="node"><title>Node29</title>
<g id="a_node30"><a xlink:href="../../d9/d54/IFunctionProperties_8h.html" target="_top" xlink:title="ocra/optim/IFunctionProperties.h">
<polygon fill="white" stroke="black" points="1013.74,-190.5 1013.74,-208.5 1174.26,-208.5 1174.26,-190.5 1013.74,-190.5"/>
<text text-anchor="middle" x="1094" y="-196.5" font-family="Helvetica,sans-Serif" font-size="10.00">ocra/optim/IFunctionProperties.h</text>
</a>
</g>
</g>
<!-- Node23&#45;&gt;Node29 -->
<g id="edge41" class="edge"><title>Node23&#45;&gt;Node29</title>
<path fill="none" stroke="midnightblue" d="M921.809,-250.435C956.861,-240.27 1017.25,-222.757 1056.4,-211.405"/>
<polygon fill="midnightblue" stroke="midnightblue" points="1057.48,-214.736 1066.11,-208.589 1055.53,-208.013 1057.48,-214.736"/>
</g>
<!-- Node30 -->
<g id="node31" class="node"><title>Node30</title>
<g id="a_node31"><a xlink:href="../../db/d47/AbilitySet_8h.html" target="_top" xlink:title="ocra/optim/AbilitySet.h">
<polygon fill="white" stroke="black" points="1192.26,-190.5 1192.26,-208.5 1307.74,-208.5 1307.74,-190.5 1192.26,-190.5"/>
<text text-anchor="middle" x="1250" y="-196.5" font-family="Helvetica,sans-Serif" font-size="10.00">ocra/optim/AbilitySet.h</text>
</a>
</g>
</g>
<!-- Node23&#45;&gt;Node30 -->
<g id="edge44" class="edge"><title>Node23&#45;&gt;Node30</title>
<path fill="none" stroke="midnightblue" d="M950.34,-250.608C1008.68,-242.253 1102.4,-228.317 1183,-214 1189.13,-212.91 1195.57,-211.7 1201.92,-210.464"/>
<polygon fill="midnightblue" stroke="midnightblue" points="1202.66,-213.887 1211.79,-208.515 1201.3,-207.019 1202.66,-213.887"/>
</g>
<!-- Node31 -->
<g id="node32" class="node"><title>Node31</title>
<g id="a_node32"><a xlink:href="../../d1/d87/CoupledInputOutputSize_8h.html" target="_top" xlink:title="ocra/optim/CoupledInputOutput\lSize.h">
<polygon fill="white" stroke="black" points="679.513,-185.5 679.513,-213.5 834.487,-213.5 834.487,-185.5 679.513,-185.5"/>
<text text-anchor="start" x="687.513" y="-201.5" font-family="Helvetica,sans-Serif" font-size="10.00">ocra/optim/CoupledInputOutput</text>
<text text-anchor="middle" x="757" y="-191.5" font-family="Helvetica,sans-Serif" font-size="10.00">Size.h</text>
</a>
</g>
</g>
<!-- Node23&#45;&gt;Node31 -->
<g id="edge47" class="edge"><title>Node23&#45;&gt;Node31</title>
<path fill="none" stroke="midnightblue" d="M874.951,-250.435C854.936,-241.962 822.861,-228.383 797.208,-217.522"/>
<polygon fill="midnightblue" stroke="midnightblue" points="798.303,-214.185 787.729,-213.51 795.574,-220.631 798.303,-214.185"/>
</g>
<!-- Node32 -->
<g id="node33" class="node"><title>Node32</title>
<g id="a_node33"><a xlink:href="../../df/d97/NamedInstance_8h.html" target="_top" xlink:title="ocra/optim/NamedInstance.h">
<polygon fill="white" stroke="black" points="852.079,-190.5 852.079,-208.5 995.921,-208.5 995.921,-190.5 852.079,-190.5"/>
<text text-anchor="middle" x="924" y="-196.5" font-family="Helvetica,sans-Serif" font-size="10.00">ocra/optim/NamedInstance.h</text>
</a>
</g>
</g>
<!-- Node23&#45;&gt;Node32 -->
<g id="edge50" class="edge"><title>Node23&#45;&gt;Node32</title>
<path fill="none" stroke="midnightblue" d="M898.171,-250.435C902.51,-242.047 909.438,-228.654 915.026,-217.849"/>
<polygon fill="midnightblue" stroke="midnightblue" points="918.184,-219.362 919.67,-208.872 911.967,-216.146 918.184,-219.362"/>
</g>
<!-- Node24&#45;&gt;Node14 -->
<g id="edge37" class="edge"><title>Node24&#45;&gt;Node14</title>
<path fill="none" stroke="midnightblue" d="M1288.06,-130.435C1324.77,-120.249 1388.07,-102.683 1428.96,-91.3328"/>
<polygon fill="midnightblue" stroke="midnightblue" points="1430.15,-94.6361 1438.85,-88.5894 1428.28,-87.891 1430.15,-94.6361"/>
</g>
<!-- Node24&#45;&gt;Node18 -->
<g id="edge39" class="edge"><title>Node24&#45;&gt;Node18</title>
<path fill="none" stroke="midnightblue" d="M1245.79,-130.435C1230.35,-121.009 1204.56,-105.264 1186.07,-93.9728"/>
<polygon fill="midnightblue" stroke="midnightblue" points="1187.76,-90.9068 1177.4,-88.6831 1184.11,-96.8813 1187.76,-90.9068"/>
</g>
<!-- Node24&#45;&gt;Node20 -->
<g id="edge40" class="edge"><title>Node24&#45;&gt;Node20</title>
<path fill="none" stroke="midnightblue" d="M1208.58,-130.463C1153.95,-121.704 1064.24,-107.178 987,-94 975.148,-91.9779 962.269,-89.7151 950.538,-87.6285"/>
<polygon fill="midnightblue" stroke="midnightblue" points="951.039,-84.1627 940.579,-85.8508 949.809,-91.0538 951.039,-84.1627"/>
</g>
<!-- Node25 -->
<g id="node26" class="node"><title>Node25</title>
<g id="a_node26"><a xlink:href="../../d5/d55/MathTypes_8h.html" target="_top" xlink:title="Declaration file of the OptimizationVariable class. ">
<polygon fill="white" stroke="black" points="1203.48,-70.5 1203.48,-88.5 1314.52,-88.5 1314.52,-70.5 1203.48,-70.5"/>
<text text-anchor="middle" x="1259" y="-76.5" font-family="Helvetica,sans-Serif" font-size="10.00">ocra/util/MathTypes.h</text>
</a>
</g>
</g>
<!-- Node24&#45;&gt;Node25 -->
<g id="edge34" class="edge"><title>Node24&#45;&gt;Node25</title>
<path fill="none" stroke="midnightblue" d="M1259,-130.435C1259,-122.389 1259,-109.739 1259,-99.1846"/>
<polygon fill="midnightblue" stroke="midnightblue" points="1262.5,-98.8717 1259,-88.8718 1255.5,-98.8718 1262.5,-98.8717"/>
</g>
<!-- Node28 -->
<g id="node29" class="node"><title>Node28</title>
<polygon fill="white" stroke="#bfbfbf" points="1332.83,-70.5 1332.83,-88.5 1387.17,-88.5 1387.17,-70.5 1332.83,-70.5"/>
<text text-anchor="middle" x="1360" y="-76.5" font-family="Helvetica,sans-Serif" font-size="10.00">iostream</text>
</g>
<!-- Node24&#45;&gt;Node28 -->
<g id="edge38" class="edge"><title>Node24&#45;&gt;Node28</title>
<path fill="none" stroke="midnightblue" d="M1273.04,-130.435C1289.61,-120.923 1317.38,-104.976 1337.08,-93.6645"/>
<polygon fill="midnightblue" stroke="midnightblue" points="1338.82,-96.6982 1345.75,-88.6831 1335.34,-90.6279 1338.82,-96.6982"/>
</g>
<!-- Node26 -->
<g id="node27" class="node"><title>Node26</title>
<polygon fill="white" stroke="#bfbfbf" points="1184.37,-5.5 1184.37,-23.5 1257.63,-23.5 1257.63,-5.5 1184.37,-5.5"/>
<text text-anchor="middle" x="1221" y="-11.5" font-family="Helvetica,sans-Serif" font-size="10.00">Eigen/Dense</text>
</g>
<!-- Node25&#45;&gt;Node26 -->
<g id="edge35" class="edge"><title>Node25&#45;&gt;Node26</title>
<path fill="none" stroke="midnightblue" d="M1254.03,-70.2639C1248.25,-60.6842 1238.56,-44.6186 1231.17,-32.3587"/>
<polygon fill="midnightblue" stroke="midnightblue" points="1234.01,-30.2942 1225.85,-23.539 1228.02,-33.9096 1234.01,-30.2942"/>
</g>
<!-- Node27 -->
<g id="node28" class="node"><title>Node27</title>
<polygon fill="white" stroke="#bfbfbf" points="1275.38,-5.5 1275.38,-23.5 1318.62,-23.5 1318.62,-5.5 1275.38,-5.5"/>
<text text-anchor="middle" x="1297" y="-11.5" font-family="Helvetica,sans-Serif" font-size="10.00">cmath</text>
</g>
<!-- Node25&#45;&gt;Node27 -->
<g id="edge36" class="edge"><title>Node25&#45;&gt;Node27</title>
<path fill="none" stroke="midnightblue" d="M1263.97,-70.2639C1269.75,-60.6842 1279.44,-44.6186 1286.83,-32.3587"/>
<polygon fill="midnightblue" stroke="midnightblue" points="1289.98,-33.9096 1292.15,-23.539 1283.99,-30.2942 1289.98,-33.9096"/>
</g>
<!-- Node29&#45;&gt;Node18 -->
<g id="edge43" class="edge"><title>Node29&#45;&gt;Node18</title>
<path fill="none" stroke="midnightblue" d="M1098.81,-190.389C1110.15,-171.275 1138.74,-123.078 1154.02,-97.3293"/>
<polygon fill="midnightblue" stroke="midnightblue" points="1157.06,-99.0537 1159.15,-88.6674 1151.04,-95.4822 1157.06,-99.0537"/>
</g>
<!-- Node29&#45;&gt;Node22 -->
<g id="edge42" class="edge"><title>Node29&#45;&gt;Node22</title>
<path fill="none" stroke="midnightblue" d="M1070.36,-190.435C1039.94,-180.055 987.049,-162.011 953.87,-150.691"/>
<polygon fill="midnightblue" stroke="midnightblue" points="954.847,-147.326 944.253,-147.41 952.587,-153.951 954.847,-147.326"/>
</g>
<!-- Node30&#45;&gt;Node18 -->
<g id="edge46" class="edge"><title>Node30&#45;&gt;Node18</title>
<path fill="none" stroke="midnightblue" d="M1237.63,-190.328C1224.99,-181.439 1205.48,-166.18 1193,-149 1181.75,-133.512 1173.81,-112.996 1169.11,-98.4661"/>
<polygon fill="midnightblue" stroke="midnightblue" points="1172.4,-97.2592 1166.15,-88.7044 1165.7,-99.2897 1172.4,-97.2592"/>
</g>
<!-- Node30&#45;&gt;Node24 -->
<g id="edge45" class="edge"><title>Node30&#45;&gt;Node24</title>
<path fill="none" stroke="midnightblue" d="M1251.25,-190.435C1252.51,-182.304 1254.5,-169.469 1256.15,-158.848"/>
<polygon fill="midnightblue" stroke="midnightblue" points="1259.63,-159.29 1257.7,-148.872 1252.71,-158.217 1259.63,-159.29"/>
</g>
<!-- Node32&#45;&gt;Node22 -->
<g id="edge51" class="edge"><title>Node32&#45;&gt;Node22</title>
<path fill="none" stroke="midnightblue" d="M924,-190.435C924,-182.389 924,-169.739 924,-159.185"/>
<polygon fill="midnightblue" stroke="midnightblue" points="927.5,-158.872 924,-148.872 920.5,-158.872 927.5,-158.872"/>
</g>
<!-- Node33&#45;&gt;Node23 -->
<g id="edge53" class="edge"><title>Node33&#45;&gt;Node23</title>
<path fill="none" stroke="midnightblue" d="M796.686,-360.303C798.081,-345.434 802.296,-321.229 815,-305 826.411,-290.424 844.007,-279.849 859.7,-272.676"/>
<polygon fill="midnightblue" stroke="midnightblue" points="861.327,-275.787 869.152,-268.643 858.58,-269.348 861.327,-275.787"/>
</g>
<!-- Node34&#45;&gt;Node35 -->
<g id="edge57" class="edge"><title>Node34&#45;&gt;Node35</title>
<path fill="none" stroke="midnightblue" d="M974.66,-360.484C957.581,-350.959 934.503,-338.088 917.408,-328.554"/>
<polygon fill="midnightblue" stroke="midnightblue" points="919.04,-325.457 908.602,-323.643 915.631,-331.571 919.04,-325.457"/>
</g>
<!-- Node34&#45;&gt;Node38 -->
<g id="edge61" class="edge"><title>Node34&#45;&gt;Node38</title>
<path fill="none" stroke="midnightblue" d="M1027.62,-360.484C1049.9,-350.694 1080.23,-337.371 1102.08,-327.768"/>
<polygon fill="midnightblue" stroke="midnightblue" points="1103.72,-330.871 1111.47,-323.643 1100.9,-324.462 1103.72,-330.871"/>
</g>
<!-- Node39 -->
<g id="node40" class="node"><title>Node39</title>
<polygon fill="white" stroke="#bfbfbf" points="982.219,-305.5 982.219,-323.5 1033.78,-323.5 1033.78,-305.5 982.219,-305.5"/>
<text text-anchor="middle" x="1008" y="-311.5" font-family="Helvetica,sans-Serif" font-size="10.00">sstream</text>
</g>
<!-- Node34&#45;&gt;Node39 -->
<g id="edge65" class="edge"><title>Node34&#45;&gt;Node39</title>
<path fill="none" stroke="midnightblue" d="M1000.27,-360.339C1001.63,-352.443 1003.38,-342.287 1004.87,-333.638"/>
<polygon fill="midnightblue" stroke="midnightblue" points="1008.32,-334.221 1006.57,-323.771 1001.43,-333.031 1008.32,-334.221"/>
</g>
<!-- Node35&#45;&gt;Node23 -->
<g id="edge58" class="edge"><title>Node35&#45;&gt;Node23</title>
<path fill="none" stroke="midnightblue" d="M894,-305.219C894,-298.177 894,-287.808 894,-278.828"/>
<polygon fill="midnightblue" stroke="midnightblue" points="897.5,-278.55 894,-268.55 890.5,-278.55 897.5,-278.55"/>
</g>
<!-- Node36 -->
<g id="node37" class="node"><title>Node36</title>
<g id="a_node37"><a xlink:href="../../df/d0a/Macros_8h.html" target="_top" xlink:title="ocra/util/Macros.h">
<polygon fill="white" stroke="black" points="1082.54,-250.5 1082.54,-268.5 1177.46,-268.5 1177.46,-250.5 1082.54,-250.5"/>
<text text-anchor="middle" x="1130" y="-256.5" font-family="Helvetica,sans-Serif" font-size="10.00">ocra/util/Macros.h</text>
</a>
</g>
</g>
<!-- Node35&#45;&gt;Node36 -->
<g id="edge59" class="edge"><title>Node35&#45;&gt;Node36</title>
<path fill="none" stroke="midnightblue" d="M929.843,-305.45C971.202,-296.162 1039.29,-280.871 1084.39,-270.743"/>
<polygon fill="midnightblue" stroke="midnightblue" points="1085.22,-274.145 1094.21,-268.538 1083.68,-267.315 1085.22,-274.145"/>
</g>
<!-- Node37 -->
<g id="node38" class="node"><title>Node37</title>
<polygon fill="white" stroke="#bfbfbf" points="1363.94,-190.5 1363.94,-208.5 1416.06,-208.5 1416.06,-190.5 1363.94,-190.5"/>
<text text-anchor="middle" x="1390" y="-196.5" font-family="Helvetica,sans-Serif" font-size="10.00">memory</text>
</g>
<!-- Node36&#45;&gt;Node37 -->
<g id="edge60" class="edge"><title>Node36&#45;&gt;Node37</title>
<path fill="none" stroke="midnightblue" d="M1177.61,-250.656C1222.44,-242.85 1291.29,-229.777 1350,-214 1352.63,-213.293 1355.34,-212.507 1358.05,-211.68"/>
<polygon fill="midnightblue" stroke="midnightblue" points="1359.28,-214.962 1367.73,-208.57 1357.14,-208.297 1359.28,-214.962"/>
</g>
<!-- Node38&#45;&gt;Node14 -->
<g id="edge63" class="edge"><title>Node38&#45;&gt;Node14</title>
<path fill="none" stroke="midnightblue" d="M1207.94,-306.537C1274.12,-296.601 1367.31,-272.49 1425,-214 1456.41,-182.156 1464.88,-127.276 1467.16,-98.814"/>
<polygon fill="midnightblue" stroke="midnightblue" points="1470.67,-98.8826 1467.8,-88.6836 1463.68,-98.4455 1470.67,-98.8826"/>
</g>
<!-- Node38&#45;&gt;Node23 -->
<g id="edge62" class="edge"><title>Node38&#45;&gt;Node23</title>
<path fill="none" stroke="midnightblue" d="M1094.16,-305.45C1052.8,-296.162 984.709,-280.871 939.61,-270.743"/>
<polygon fill="midnightblue" stroke="midnightblue" points="940.317,-267.315 929.793,-268.538 938.783,-274.145 940.317,-267.315"/>
</g>
<!-- Node38&#45;&gt;Node36 -->
<g id="edge64" class="edge"><title>Node38&#45;&gt;Node36</title>
<path fill="none" stroke="midnightblue" d="M1130,-305.219C1130,-298.177 1130,-287.808 1130,-278.828"/>
<polygon fill="midnightblue" stroke="midnightblue" points="1133.5,-278.55 1130,-268.55 1126.5,-278.55 1133.5,-278.55"/>
</g>
</g>
</svg>
