<?xml version="1.0" encoding="UTF-8" standalone="no"?>
<!DOCTYPE svg PUBLIC "-//W3C//DTD SVG 1.1//EN"
 "http://www.w3.org/Graphics/SVG/1.1/DTD/svg11.dtd">
<!-- Generated by graphviz version 2.38.0 (20140413.2041)
 -->
<!-- Title: Model3T::Pimpl Pages: 1 -->
<svg width="146pt" height="162pt"
 viewBox="0.00 0.00 146.02 162.00" xmlns="http://www.w3.org/2000/svg" xmlns:xlink="http://www.w3.org/1999/xlink">
<g id="graph0" class="graph" transform="scale(1 1) rotate(0) translate(4 158)">
<title>Model3T::Pimpl</title>
<polygon fill="white" stroke="none" points="-4,4 -4,-158 142.02,-158 142.02,4 -4,4"/>
<!-- Node1 -->
<g id="node1" class="node"><title>Node1</title>
<polygon fill="#bfbfbf" stroke="black" points="27.1133,-0.5 27.1133,-18.5 111.473,-18.5 111.473,-0.5 27.1133,-0.5"/>
<text text-anchor="middle" x="69.293" y="-6.5" font-family="Helvetica,sans-Serif" font-size="10.00">Model3T::Pimpl</text>
</g>
<!-- Node2 -->
<g id="node2" class="node"><title>Node2</title>
<polygon fill="white" stroke="#bfbfbf" points="0,-135.5 0,-153.5 56.5859,-153.5 56.5859,-135.5 0,-135.5"/>
<text text-anchor="middle" x="28.293" y="-141.5" font-family="Helvetica,sans-Serif" font-size="10.00">VectorXd</text>
</g>
<!-- Node2&#45;&gt;Node1 -->
<g id="edge1" class="edge"><title>Node2&#45;&gt;Node1</title>
<path fill="none" stroke="#9a32cd" stroke-dasharray="5,2" d="M23.6579,-125.633C18.9199,-103.395 14.1952,-64.9408 29.3672,-37 33.7342,-28.9578 41.7198,-22.9341 49.4081,-18.6792"/>
<polygon fill="#9a32cd" stroke="#9a32cd" points="20.2571,-126.461 25.9645,-135.388 27.0692,-124.85 20.2571,-126.461"/>
<text text-anchor="middle" x="59.7559" y="-109" font-family="Helvetica,sans-Serif" font-size="10.00"> g</text>
<text text-anchor="middle" x="59.7559" y="-99" font-family="Helvetica,sans-Serif" font-size="10.00">lowerLimits</text>
<text text-anchor="middle" x="59.7559" y="-89" font-family="Helvetica,sans-Serif" font-size="10.00">upperLimits</text>
<text text-anchor="middle" x="59.7559" y="-79" font-family="Helvetica,sans-Serif" font-size="10.00">l</text>
<text text-anchor="middle" x="59.7559" y="-69" font-family="Helvetica,sans-Serif" font-size="10.00">n</text>
<text text-anchor="middle" x="59.7559" y="-59" font-family="Helvetica,sans-Serif" font-size="10.00">q</text>
<text text-anchor="middle" x="59.7559" y="-49" font-family="Helvetica,sans-Serif" font-size="10.00">actuatedDofs</text>
<text text-anchor="middle" x="59.7559" y="-39" font-family="Helvetica,sans-Serif" font-size="10.00">dq</text>
</g>
<!-- Node3 -->
<g id="node3" class="node"><title>Node3</title>
<polygon fill="white" stroke="#bfbfbf" points="82.5664,-135.5 82.5664,-153.5 138.02,-153.5 138.02,-135.5 82.5664,-135.5"/>
<text text-anchor="middle" x="110.293" y="-141.5" font-family="Helvetica,sans-Serif" font-size="10.00">MatrixXd</text>
</g>
<!-- Node3&#45;&gt;Node1 -->
<g id="edge2" class="edge"><title>Node3&#45;&gt;Node1</title>
<path fill="none" stroke="#9a32cd" stroke-dasharray="5,2" d="M108.854,-125.291C106.617,-103.511 101.136,-66.3179 88.293,-37 85.3855,-30.3628 80.6355,-23.7378 76.6124,-18.7721"/>
<polygon fill="#9a32cd" stroke="#9a32cd" points="105.383,-125.763 109.77,-135.406 112.354,-125.131 105.383,-125.763"/>
<text text-anchor="middle" x="120.239" y="-84" font-family="Helvetica,sans-Serif" font-size="10.00"> Minv</text>
<text text-anchor="middle" x="120.239" y="-74" font-family="Helvetica,sans-Serif" font-size="10.00">M</text>
<text text-anchor="middle" x="120.239" y="-64" font-family="Helvetica,sans-Serif" font-size="10.00">B</text>
</g>
</g>
</svg>
