<?xml version="1.0" encoding="UTF-8" standalone="no"?>
<!DOCTYPE svg PUBLIC "-//W3C//DTD SVG 1.1//EN"
 "http://www.w3.org/Graphics/SVG/1.1/DTD/svg11.dtd">
<!-- Generated by graphviz version 2.38.0 (20140413.2041)
 -->
<!-- Title: RobotState.h Pages: 1 -->
<svg width="441pt" height="192pt"
 viewBox="0.00 0.00 441.16 192.00" xmlns="http://www.w3.org/2000/svg" xmlns:xlink="http://www.w3.org/1999/xlink">
<g id="graph0" class="graph" transform="scale(1 1) rotate(0) translate(4 188)">
<title>RobotState.h</title>
<polygon fill="white" stroke="none" points="-4,4 -4,-188 437.162,-188 437.162,4 -4,4"/>
<!-- Node42 -->
<g id="node1" class="node"><title>Node42</title>
<polygon fill="#bfbfbf" stroke="black" points="244.507,-165.5 244.507,-183.5 318.881,-183.5 318.881,-165.5 244.507,-165.5"/>
<text text-anchor="middle" x="281.694" y="-171.5" font-family="Helvetica,sans-Serif" font-size="10.00">RobotState.h</text>
</g>
<!-- Node43 -->
<g id="node2" class="node"><title>Node43</title>
<g id="a_node2"><a xlink:href="../../db/d9a/ControllerClient_8h.html" target="_top" xlink:title="ControllerClient.h">
<polygon fill="white" stroke="black" points="117.066,-110.5 117.066,-128.5 210.322,-128.5 210.322,-110.5 117.066,-110.5"/>
<text text-anchor="middle" x="163.694" y="-116.5" font-family="Helvetica,sans-Serif" font-size="10.00">ControllerClient.h</text>
</a>
</g>
</g>
<!-- Node42&#45;&gt;Node43 -->
<g id="edge1" class="edge"><title>Node42&#45;&gt;Node43</title>
<path fill="none" stroke="midnightblue" d="M254.495,-161.283C232.167,-151.254 201.172,-137.333 181.785,-128.625"/>
<polygon fill="midnightblue" stroke="midnightblue" points="253.217,-164.546 263.773,-165.45 256.085,-158.16 253.217,-164.546"/>
</g>
<!-- Node47 -->
<g id="node6" class="node"><title>Node47</title>
<g id="a_node6"><a xlink:href="../../da/d7c/ControllerServer_8h.html" target="_top" xlink:title="ControllerServer.h">
<polygon fill="white" stroke="black" points="233.396,-110.5 233.396,-128.5 329.992,-128.5 329.992,-110.5 233.396,-110.5"/>
<text text-anchor="middle" x="281.694" y="-116.5" font-family="Helvetica,sans-Serif" font-size="10.00">ControllerServer.h</text>
</a>
</g>
</g>
<!-- Node42&#45;&gt;Node47 -->
<g id="edge5" class="edge"><title>Node42&#45;&gt;Node47</title>
<path fill="none" stroke="midnightblue" d="M281.694,-155.175C281.694,-146.094 281.694,-135.595 281.694,-128.55"/>
<polygon fill="midnightblue" stroke="midnightblue" points="278.194,-155.219 281.694,-165.219 285.194,-155.219 278.194,-155.219"/>
</g>
<!-- Node49 -->
<g id="node8" class="node"><title>Node49</title>
<g id="a_node8"><a xlink:href="../../d3/d61/RobotState_8cpp.html" target="_top" xlink:title="RobotState.cpp">
<polygon fill="white" stroke="black" points="348.227,-110.5 348.227,-128.5 433.162,-128.5 433.162,-110.5 348.227,-110.5"/>
<text text-anchor="middle" x="390.694" y="-116.5" font-family="Helvetica,sans-Serif" font-size="10.00">RobotState.cpp</text>
</a>
</g>
</g>
<!-- Node42&#45;&gt;Node49 -->
<g id="edge7" class="edge"><title>Node42&#45;&gt;Node49</title>
<path fill="none" stroke="midnightblue" d="M307.376,-161.013C327.957,-151.005 356.236,-137.255 373.984,-128.625"/>
<polygon fill="midnightblue" stroke="midnightblue" points="305.712,-157.93 298.249,-165.45 308.773,-164.225 305.712,-157.93"/>
</g>
<!-- Node44 -->
<g id="node3" class="node"><title>Node44</title>
<g id="a_node3"><a xlink:href="../../d8/d80/ClientManager_8h.html" target="_top" xlink:title="Module class for the controller Client. ">
<polygon fill="white" stroke="black" points="5.28076,-55.5 5.28076,-73.5 94.1079,-73.5 94.1079,-55.5 5.28076,-55.5"/>
<text text-anchor="middle" x="49.6943" y="-61.5" font-family="Helvetica,sans-Serif" font-size="10.00">ClientManager.h</text>
</a>
</g>
</g>
<!-- Node43&#45;&gt;Node44 -->
<g id="edge2" class="edge"><title>Node43&#45;&gt;Node44</title>
<path fill="none" stroke="midnightblue" d="M137.126,-106.148C115.577,-96.1297 85.8176,-82.2941 67.1714,-73.6253"/>
<polygon fill="midnightblue" stroke="midnightblue" points="135.837,-109.408 146.38,-110.45 138.788,-103.061 135.837,-109.408"/>
</g>
<!-- Node46 -->
<g id="node5" class="node"><title>Node46</title>
<g id="a_node5"><a xlink:href="../../d2/d77/ControllerClient_8cpp.html" target="_top" xlink:title="ControllerClient.cpp">
<polygon fill="white" stroke="black" points="111.786,-55.5 111.786,-73.5 215.603,-73.5 215.603,-55.5 111.786,-55.5"/>
<text text-anchor="middle" x="163.694" y="-61.5" font-family="Helvetica,sans-Serif" font-size="10.00">ControllerClient.cpp</text>
</a>
</g>
</g>
<!-- Node43&#45;&gt;Node46 -->
<g id="edge4" class="edge"><title>Node43&#45;&gt;Node46</title>
<path fill="none" stroke="midnightblue" d="M163.694,-100.175C163.694,-91.0945 163.694,-80.5949 163.694,-73.5496"/>
<polygon fill="midnightblue" stroke="midnightblue" points="160.194,-100.219 163.694,-110.219 167.194,-100.219 160.194,-100.219"/>
</g>
<!-- Node45 -->
<g id="node4" class="node"><title>Node45</title>
<g id="a_node4"><a xlink:href="../../d9/d36/ClientManager_8cpp.html" target="_top" xlink:title="ClientManager.cpp">
<polygon fill="white" stroke="black" points="0,-0.5 0,-18.5 99.3887,-18.5 99.3887,-0.5 0,-0.5"/>
<text text-anchor="middle" x="49.6943" y="-6.5" font-family="Helvetica,sans-Serif" font-size="10.00">ClientManager.cpp</text>
</a>
</g>
</g>
<!-- Node44&#45;&gt;Node45 -->
<g id="edge3" class="edge"><title>Node44&#45;&gt;Node45</title>
<path fill="none" stroke="midnightblue" d="M49.6943,-45.1746C49.6943,-36.0945 49.6943,-25.5949 49.6943,-18.5496"/>
<polygon fill="midnightblue" stroke="midnightblue" points="46.1944,-45.2187 49.6943,-55.2188 53.1944,-45.2188 46.1944,-45.2187"/>
</g>
<!-- Node48 -->
<g id="node7" class="node"><title>Node48</title>
<g id="a_node7"><a xlink:href="../../d5/dd2/ControllerServer_8cpp.html" target="_top" xlink:title="ControllerServer.cpp">
<polygon fill="white" stroke="black" points="233.116,-55.5 233.116,-73.5 340.273,-73.5 340.273,-55.5 233.116,-55.5"/>
<text text-anchor="middle" x="286.694" y="-61.5" font-family="Helvetica,sans-Serif" font-size="10.00">ControllerServer.cpp</text>
</a>
</g>
</g>
<!-- Node47&#45;&gt;Node48 -->
<g id="edge6" class="edge"><title>Node47&#45;&gt;Node48</title>
<path fill="none" stroke="midnightblue" d="M283.423,-100.175C284.28,-91.0945 285.27,-80.5949 285.935,-73.5496"/>
<polygon fill="midnightblue" stroke="midnightblue" points="279.93,-99.9342 282.476,-110.219 286.899,-100.592 279.93,-99.9342"/>
</g>
</g>
</svg>
