<?xml version="1.0" encoding="UTF-8" standalone="no"?>
<!DOCTYPE svg PUBLIC "-//W3C//DTD SVG 1.1//EN"
 "http://www.w3.org/Graphics/SVG/1.1/DTD/svg11.dtd">
<!-- Generated by graphviz version 2.38.0 (20140413.2041)
 -->
<!-- Title: ocra::Task::Pimpl Pages: 1 -->
<svg width="1685pt" height="568pt"
 viewBox="0.00 0.00 1684.92 568.41" xmlns="http://www.w3.org/2000/svg" xmlns:xlink="http://www.w3.org/1999/xlink">
<g id="graph0" class="graph" transform="scale(1 1) rotate(0) translate(4 564.414)">
<title>ocra::Task::Pimpl</title>
<polygon fill="white" stroke="none" points="-4,4 -4,-564.414 1680.92,-564.414 1680.92,4 -4,4"/>
<!-- Node1 -->
<g id="node1" class="node"><title>Node1</title>
<polygon fill="#bfbfbf" stroke="black" points="1584.79,-357.414 1584.79,-375.414 1676.92,-375.414 1676.92,-357.414 1584.79,-357.414"/>
<text text-anchor="middle" x="1630.85" y="-363.414" font-family="Helvetica,sans-Serif" font-size="10.00">ocra::Task::Pimpl</text>
</g>
<!-- Node2 -->
<g id="node2" class="node"><title>Node2</title>
<polygon fill="white" stroke="#bfbfbf" points="1273.3,-532.414 1273.3,-550.414 1417.53,-550.414 1417.53,-532.414 1273.3,-532.414"/>
<text text-anchor="middle" x="1345.42" y="-538.414" font-family="Helvetica,sans-Serif" font-size="10.00">anonymous:gainsWorkspace</text>
</g>
<!-- Node2&#45;&gt;Node1 -->
<g id="edge1" class="edge"><title>Node2&#45;&gt;Node1</title>
<path fill="none" stroke="#9a32cd" stroke-dasharray="5,2" d="M1412.94,-551.247C1460.33,-554.553 1523.12,-550.978 1566.79,-518.414 1615.11,-482.378 1626.62,-402.486 1629.17,-375.513"/>
<polygon fill="#9a32cd" stroke="#9a32cd" points="1413.02,-547.742 1402.77,-550.417 1412.45,-554.719 1413.02,-547.742"/>
<text text-anchor="middle" x="1513.99" y="-552.414" font-family="Helvetica,sans-Serif" font-size="10.00"> gainsWorkspace</text>
</g>
<!-- Node3 -->
<g id="node3" class="node"><title>Node3</title>
<g id="a_node3"><a xlink:href="../../df/d6c/classocra_1_1Objective.html" target="_top" xlink:title="ocra::Objective\&lt; ocra\l::SquaredLinearFunction \&gt;">
<polygon fill="white" stroke="black" points="1278.35,-485.414 1278.35,-513.414 1412.48,-513.414 1412.48,-485.414 1278.35,-485.414"/>
<text text-anchor="start" x="1286.35" y="-501.414" font-family="Helvetica,sans-Serif" font-size="10.00">ocra::Objective&lt; ocra</text>
<text text-anchor="middle" x="1345.42" y="-491.414" font-family="Helvetica,sans-Serif" font-size="10.00">::SquaredLinearFunction &gt;</text>
</a>
</g>
</g>
<!-- Node3&#45;&gt;Node1 -->
<g id="edge2" class="edge"><title>Node3&#45;&gt;Node1</title>
<path fill="none" stroke="#9a32cd" stroke-dasharray="5,2" d="M1422.89,-506.592C1468.13,-507.106 1524.64,-500.9 1566.79,-473.414 1603.27,-449.623 1621.45,-396.757 1627.49,-375.513"/>
<polygon fill="#9a32cd" stroke="#9a32cd" points="1422.9,-503.092 1412.83,-506.366 1422.74,-510.09 1422.9,-503.092"/>
<text text-anchor="middle" x="1513.99" y="-506.414" font-family="Helvetica,sans-Serif" font-size="10.00"> innerTaskAsObjective</text>
</g>
<!-- Node4 -->
<g id="node4" class="node"><title>Node4</title>
<g id="a_node4"><a xlink:href="../../d1/d29/structocra_1_1FunctionInterfaceMapping.html" target="_top" xlink:title="ocra::FunctionInterfaceMapping\l\&lt; Objective\&lt; ocra::SquaredLinearFunction \&gt; \&gt;">
<polygon fill="white" stroke="black" points="965.138,-488.414 965.138,-516.414 1186.26,-516.414 1186.26,-488.414 965.138,-488.414"/>
<text text-anchor="start" x="973.138" y="-504.414" font-family="Helvetica,sans-Serif" font-size="10.00">ocra::FunctionInterfaceMapping</text>
<text text-anchor="middle" x="1075.7" y="-494.414" font-family="Helvetica,sans-Serif" font-size="10.00">&lt; Objective&lt; ocra::SquaredLinearFunction &gt; &gt;</text>
</a>
</g>
</g>
<!-- Node4&#45;&gt;Node3 -->
<g id="edge3" class="edge"><title>Node4&#45;&gt;Node3</title>
<path fill="none" stroke="midnightblue" d="M1196.65,-501.07C1224.71,-500.756 1253.59,-500.432 1278.29,-500.155"/>
<polygon fill="midnightblue" stroke="midnightblue" points="1196.32,-497.574 1186.36,-501.186 1196.4,-504.573 1196.32,-497.574"/>
</g>
<!-- Node5 -->
<g id="node5" class="node"><title>Node5</title>
<g id="a_node5"><a xlink:href="../../d5/d01/classocra_1_1EqualZeroConstraintPtr.html" target="_top" xlink:title="ocra::EqualZeroConstraint\lPtr\&lt; ocra::LinearFunction \&gt;">
<polygon fill="white" stroke="black" points="1276.83,-438.414 1276.83,-466.414 1414,-466.414 1414,-438.414 1276.83,-438.414"/>
<text text-anchor="start" x="1284.83" y="-454.414" font-family="Helvetica,sans-Serif" font-size="10.00">ocra::EqualZeroConstraint</text>
<text text-anchor="middle" x="1345.42" y="-444.414" font-family="Helvetica,sans-Serif" font-size="10.00">Ptr&lt; ocra::LinearFunction &gt;</text>
</a>
</g>
</g>
<!-- Node5&#45;&gt;Node1 -->
<g id="edge4" class="edge"><title>Node5&#45;&gt;Node1</title>
<path fill="none" stroke="#9a32cd" stroke-dasharray="5,2" d="M1424.38,-453.386C1468.03,-451.228 1522.43,-443.914 1566.79,-423.414 1590.9,-412.271 1612.28,-388.618 1622.85,-375.556"/>
<polygon fill="#9a32cd" stroke="#9a32cd" points="1424.23,-449.89 1414.39,-453.801 1424.52,-456.884 1424.23,-449.89"/>
<text text-anchor="middle" x="1513.99" y="-461.414" font-family="Helvetica,sans-Serif" font-size="10.00"> innerTaskAsConstraint</text>
<text text-anchor="middle" x="1513.99" y="-451.414" font-family="Helvetica,sans-Serif" font-size="10.00">ContactForceConstraint</text>
</g>
<!-- Node6 -->
<g id="node6" class="node"><title>Node6</title>
<polygon fill="white" stroke="#bfbfbf" points="636.6,-380.414 636.6,-398.414 693.186,-398.414 693.186,-380.414 636.6,-380.414"/>
<text text-anchor="middle" x="664.893" y="-386.414" font-family="Helvetica,sans-Serif" font-size="10.00">VectorXd</text>
</g>
<!-- Node6&#45;&gt;Node1 -->
<g id="edge5" class="edge"><title>Node6&#45;&gt;Node1</title>
<path fill="none" stroke="#9a32cd" stroke-dasharray="5,2" d="M703.609,-395.148C745.81,-401.058 816.266,-409.414 877.26,-409.414 877.26,-409.414 877.26,-409.414 1346.42,-409.414 1436.25,-409.414 1540.31,-388.038 1593.88,-375.429"/>
<polygon fill="#9a32cd" stroke="#9a32cd" points="703.907,-391.655 693.512,-393.705 702.916,-398.585 703.907,-391.655"/>
<text text-anchor="middle" x="1075.7" y="-461.414" font-family="Helvetica,sans-Serif" font-size="10.00"> output</text>
<text text-anchor="middle" x="1075.7" y="-451.414" font-family="Helvetica,sans-Serif" font-size="10.00">error</text>
<text text-anchor="middle" x="1075.7" y="-441.414" font-family="Helvetica,sans-Serif" font-size="10.00">errorDot</text>
<text text-anchor="middle" x="1075.7" y="-431.414" font-family="Helvetica,sans-Serif" font-size="10.00">weight</text>
<text text-anchor="middle" x="1075.7" y="-421.414" font-family="Helvetica,sans-Serif" font-size="10.00">errorDdot</text>
<text text-anchor="middle" x="1075.7" y="-411.414" font-family="Helvetica,sans-Serif" font-size="10.00">effort</text>
</g>
<!-- Node8 -->
<g id="node8" class="node"><title>Node8</title>
<g id="a_node8"><a xlink:href="../../de/d3a/classocra_1_1LinearFunction.html" target="_top" xlink:title="LinearFunction class. ">
<polygon fill="white" stroke="black" points="1022.12,-331.414 1022.12,-349.414 1129.28,-349.414 1129.28,-331.414 1022.12,-331.414"/>
<text text-anchor="middle" x="1075.7" y="-337.414" font-family="Helvetica,sans-Serif" font-size="10.00">ocra::LinearFunction</text>
</a>
</g>
</g>
<!-- Node6&#45;&gt;Node8 -->
<g id="edge30" class="edge"><title>Node6&#45;&gt;Node8</title>
<path fill="none" stroke="#9a32cd" stroke-dasharray="5,2" d="M703.472,-384.91C776.55,-376.151 937.974,-356.803 1021.82,-346.753"/>
<polygon fill="#9a32cd" stroke="#9a32cd" points="702.863,-381.458 693.351,-386.123 703.696,-388.408 702.863,-381.458"/>
<text text-anchor="middle" x="878.26" y="-372.414" font-family="Helvetica,sans-Serif" font-size="10.00"> _b</text>
</g>
<!-- Node9 -->
<g id="node9" class="node"><title>Node9</title>
<g id="a_node9"><a xlink:href="../../d2/d99/classocra_1_1Function.html" target="_top" xlink:title="Function class. ">
<polygon fill="white" stroke="black" points="838.578,-249.414 838.578,-267.414 917.942,-267.414 917.942,-249.414 838.578,-249.414"/>
<text text-anchor="middle" x="878.26" y="-255.414" font-family="Helvetica,sans-Serif" font-size="10.00">ocra::Function</text>
</a>
</g>
</g>
<!-- Node6&#45;&gt;Node9 -->
<g id="edge23" class="edge"><title>Node6&#45;&gt;Node9</title>
<path fill="none" stroke="#9a32cd" stroke-dasharray="5,2" d="M703.188,-379.418C717.01,-375.435 732.736,-370.57 746.792,-365.414 775.784,-354.78 785.642,-355.895 810.383,-337.414 837.593,-317.09 861.078,-283.716 871.507,-267.639"/>
<polygon fill="#9a32cd" stroke="#9a32cd" points="702.181,-376.066 693.511,-382.155 704.086,-382.802 702.181,-376.066"/>
<text text-anchor="middle" x="787.587" y="-361.414" font-family="Helvetica,sans-Serif" font-size="10.00"> _value</text>
</g>
<!-- Node7 -->
<g id="node7" class="node"><title>Node7</title>
<g id="a_node7"><a xlink:href="../../de/ddd/classocra_1_1FullDynamicEquationFunction.html" target="_top" xlink:title="Create a linear function that represents the dynamic equation of motion. ">
<polygon fill="white" stroke="black" points="1277.67,-352.414 1277.67,-380.414 1413.16,-380.414 1413.16,-352.414 1277.67,-352.414"/>
<text text-anchor="start" x="1285.67" y="-368.414" font-family="Helvetica,sans-Serif" font-size="10.00">ocra::FullDynamicEquation</text>
<text text-anchor="middle" x="1345.42" y="-358.414" font-family="Helvetica,sans-Serif" font-size="10.00">Function</text>
</a>
</g>
</g>
<!-- Node7&#45;&gt;Node1 -->
<g id="edge6" class="edge"><title>Node7&#45;&gt;Node1</title>
<path fill="none" stroke="#9a32cd" stroke-dasharray="5,2" d="M1423.36,-366.414C1475.04,-366.414 1541.36,-366.414 1584.7,-366.414"/>
<polygon fill="#9a32cd" stroke="#9a32cd" points="1423.23,-362.915 1413.23,-366.414 1423.23,-369.915 1423.23,-362.915"/>
<text text-anchor="middle" x="1513.99" y="-368.414" font-family="Helvetica,sans-Serif" font-size="10.00"> dynamicEquation</text>
</g>
<!-- Node8&#45;&gt;Node1 -->
<g id="edge36" class="edge"><title>Node8&#45;&gt;Node1</title>
<path fill="none" stroke="#9a32cd" stroke-dasharray="5,2" d="M1139.63,-336.765C1171.91,-335.072 1211.87,-333.251 1247.65,-332.414 1334.53,-330.383 1356.63,-324.596 1443.19,-332.414 1495.02,-337.097 1553.98,-348.951 1591.52,-357.34"/>
<polygon fill="#9a32cd" stroke="#9a32cd" points="1139.23,-333.281 1129.43,-337.309 1139.6,-340.271 1139.23,-333.281"/>
<text text-anchor="middle" x="1345.42" y="-334.414" font-family="Helvetica,sans-Serif" font-size="10.00"> innerObjectiveFunction</text>
</g>
<!-- Node8&#45;&gt;Node7 -->
<g id="edge7" class="edge"><title>Node8&#45;&gt;Node7</title>
<path fill="none" stroke="midnightblue" d="M1139.56,-346.519C1180.97,-350.541 1235.13,-355.801 1277.36,-359.902"/>
<polygon fill="midnightblue" stroke="midnightblue" points="1139.88,-343.034 1129.59,-345.551 1139.21,-350.002 1139.88,-343.034"/>
</g>
<!-- Node9&#45;&gt;Node8 -->
<g id="edge8" class="edge"><title>Node9&#45;&gt;Node8</title>
<path fill="none" stroke="midnightblue" d="M910.182,-271.388C950.109,-288.14 1018.57,-316.865 1053.24,-331.41"/>
<polygon fill="midnightblue" stroke="midnightblue" points="911.498,-268.145 900.923,-267.503 908.79,-274.6 911.498,-268.145"/>
</g>
<!-- Node10 -->
<g id="node10" class="node"><title>Node10</title>
<g id="a_node10"><a xlink:href="../../d3/d16/classocra_1_1ObserverSubject.html" target="_top" xlink:title="ocra::ObserverSubject">
<polygon fill="white" stroke="black" points="386.068,-240.414 386.068,-258.414 501.556,-258.414 501.556,-240.414 386.068,-240.414"/>
<text text-anchor="middle" x="443.812" y="-246.414" font-family="Helvetica,sans-Serif" font-size="10.00">ocra::ObserverSubject</text>
</a>
</g>
</g>
<!-- Node10&#45;&gt;Node9 -->
<g id="edge9" class="edge"><title>Node10&#45;&gt;Node9</title>
<path fill="none" stroke="midnightblue" d="M463.278,-264.856C488.453,-284.796 535.828,-318.473 582.994,-331.414 653.199,-350.677 676.068,-348.673 746.792,-331.414 777.726,-323.866 782.576,-313.927 810.383,-298.414 828.578,-288.264 849.083,-275.851 862.535,-267.57"/>
<polygon fill="midnightblue" stroke="midnightblue" points="465.313,-262 455.336,-258.432 460.91,-267.442 465.313,-262"/>
</g>
<!-- Node25 -->
<g id="node25" class="node"><title>Node25</title>
<g id="a_node25"><a xlink:href="../../d2/dac/classocra_1_1Variable.html" target="_top" xlink:title="This class represents a variable in a mathematical sense. ">
<polygon fill="white" stroke="black" points="626.412,-72.4145 626.412,-90.4145 703.374,-90.4145 703.374,-72.4145 626.412,-72.4145"/>
<text text-anchor="middle" x="664.893" y="-78.4145" font-family="Helvetica,sans-Serif" font-size="10.00">ocra::Variable</text>
</a>
</g>
</g>
<!-- Node10&#45;&gt;Node25 -->
<g id="edge27" class="edge"><title>Node10&#45;&gt;Node25</title>
<path fill="none" stroke="midnightblue" d="M461.726,-233.317C482.3,-213.485 517.778,-178.476 545.994,-146.414 563.558,-126.458 560.49,-113.568 582.994,-99.4145 595.783,-91.3713 611.69,-86.898 626.007,-84.4191"/>
<polygon fill="midnightblue" stroke="midnightblue" points="459.167,-230.921 454.372,-240.369 464.012,-235.973 459.167,-230.921"/>
</g>
<!-- Node11 -->
<g id="node11" class="node"><title>Node11</title>
<g id="a_node11"><a xlink:href="../../d2/d45/classocra_1_1Observer.html" target="_top" xlink:title="ocra::Observer">
<polygon fill="white" stroke="black" points="222.497,-308.414 222.497,-326.414 304.63,-326.414 304.63,-308.414 222.497,-308.414"/>
<text text-anchor="middle" x="263.563" y="-314.414" font-family="Helvetica,sans-Serif" font-size="10.00">ocra::Observer</text>
</a>
</g>
</g>
<!-- Node11&#45;&gt;Node10 -->
<g id="edge10" class="edge"><title>Node11&#45;&gt;Node10</title>
<path fill="none" stroke="midnightblue" d="M297.618,-304.805C332.87,-291.356 387.832,-270.389 419.044,-258.482"/>
<polygon fill="midnightblue" stroke="midnightblue" points="296.329,-301.55 288.234,-308.385 298.824,-308.09 296.329,-301.55"/>
</g>
<!-- Node12 -->
<g id="node12" class="node"><title>Node12</title>
<g id="a_node12"><a xlink:href="../../d4/dee/classocra_1_1ObserverBase.html" target="_top" xlink:title="ocra::ObserverBase\l\&lt; EVT_RESIZE \&gt;">
<polygon fill="white" stroke="black" points="40.2856,-374.414 40.2856,-402.414 145.211,-402.414 145.211,-374.414 40.2856,-374.414"/>
<text text-anchor="start" x="48.2856" y="-390.414" font-family="Helvetica,sans-Serif" font-size="10.00">ocra::ObserverBase</text>
<text text-anchor="middle" x="92.7485" y="-380.414" font-family="Helvetica,sans-Serif" font-size="10.00">&lt; EVT_RESIZE &gt;</text>
</a>
</g>
</g>
<!-- Node12&#45;&gt;Node11 -->
<g id="edge11" class="edge"><title>Node12&#45;&gt;Node11</title>
<path fill="none" stroke="midnightblue" d="M155.334,-374.961C165.579,-371.972 175.966,-368.464 185.497,-364.414 209.873,-354.058 235.651,-336.893 250.357,-326.421"/>
<polygon fill="midnightblue" stroke="midnightblue" points="154.285,-371.62 145.586,-377.668 156.158,-378.365 154.285,-371.62"/>
</g>
<!-- Node13 -->
<g id="node13" class="node"><title>Node13</title>
<g id="a_node13"><a xlink:href="../../d4/dee/classocra_1_1ObserverBase.html" target="_top" xlink:title="ocra::ObserverBase\l\&lt; EVT_CHANGE_DEPENDENCIES \&gt;">
<polygon fill="white" stroke="black" points="0,-327.414 0,-355.414 185.497,-355.414 185.497,-327.414 0,-327.414"/>
<text text-anchor="start" x="8" y="-343.414" font-family="Helvetica,sans-Serif" font-size="10.00">ocra::ObserverBase</text>
<text text-anchor="middle" x="92.7485" y="-333.414" font-family="Helvetica,sans-Serif" font-size="10.00">&lt; EVT_CHANGE_DEPENDENCIES &gt;</text>
</a>
</g>
</g>
<!-- Node13&#45;&gt;Node11 -->
<g id="edge12" class="edge"><title>Node13&#45;&gt;Node11</title>
<path fill="none" stroke="midnightblue" d="M195.725,-326.917C205,-325.598 213.979,-324.322 222.187,-323.155"/>
<polygon fill="midnightblue" stroke="midnightblue" points="194.974,-323.488 185.566,-328.361 195.959,-330.419 194.974,-323.488"/>
</g>
<!-- Node14 -->
<g id="node14" class="node"><title>Node14</title>
<g id="a_node14"><a xlink:href="../../d4/dee/classocra_1_1ObserverBase.html" target="_top" xlink:title="ocra::ObserverBase\l\&lt; EVT_CHANGE_VALUE \&gt;">
<polygon fill="white" stroke="black" points="23.4253,-280.414 23.4253,-308.414 162.072,-308.414 162.072,-280.414 23.4253,-280.414"/>
<text text-anchor="start" x="31.4253" y="-296.414" font-family="Helvetica,sans-Serif" font-size="10.00">ocra::ObserverBase</text>
<text text-anchor="middle" x="92.7485" y="-286.414" font-family="Helvetica,sans-Serif" font-size="10.00">&lt; EVT_CHANGE_VALUE &gt;</text>
</a>
</g>
</g>
<!-- Node14&#45;&gt;Node11 -->
<g id="edge13" class="edge"><title>Node14&#45;&gt;Node11</title>
<path fill="none" stroke="midnightblue" d="M172.466,-305.139C189.64,-307.479 207.13,-309.862 222.074,-311.898"/>
<polygon fill="midnightblue" stroke="midnightblue" points="172.793,-301.652 162.412,-303.769 171.848,-308.587 172.793,-301.652"/>
</g>
<!-- Node15 -->
<g id="node15" class="node"><title>Node15</title>
<g id="a_node15"><a xlink:href="../../dc/d77/classocra_1_1Subject.html" target="_top" xlink:title="ocra::Subject">
<polygon fill="white" stroke="black" points="226.381,-211.414 226.381,-229.414 300.746,-229.414 300.746,-211.414 226.381,-211.414"/>
<text text-anchor="middle" x="263.563" y="-217.414" font-family="Helvetica,sans-Serif" font-size="10.00">ocra::Subject</text>
</a>
</g>
</g>
<!-- Node15&#45;&gt;Node10 -->
<g id="edge14" class="edge"><title>Node15&#45;&gt;Node10</title>
<path fill="none" stroke="midnightblue" d="M311.07,-227.981C334.43,-231.781 362.898,-236.413 387.386,-240.397"/>
<polygon fill="midnightblue" stroke="midnightblue" points="311.497,-224.504 301.065,-226.353 310.373,-231.414 311.497,-224.504"/>
</g>
<!-- Node16 -->
<g id="node16" class="node"><title>Node16</title>
<g id="a_node16"><a xlink:href="../../dc/d29/classocra_1_1SubjectBase.html" target="_top" xlink:title="ocra::SubjectBase\&lt;\l EVT_RESIZE \&gt;">
<polygon fill="white" stroke="black" points="41.25,-233.414 41.25,-261.414 144.247,-261.414 144.247,-233.414 41.25,-233.414"/>
<text text-anchor="start" x="49.25" y="-249.414" font-family="Helvetica,sans-Serif" font-size="10.00">ocra::SubjectBase&lt;</text>
<text text-anchor="middle" x="92.7485" y="-239.414" font-family="Helvetica,sans-Serif" font-size="10.00"> EVT_RESIZE &gt;</text>
</a>
</g>
</g>
<!-- Node16&#45;&gt;Node15 -->
<g id="edge15" class="edge"><title>Node16&#45;&gt;Node15</title>
<path fill="none" stroke="midnightblue" d="M154.489,-237.7C178.489,-233.861 205.266,-229.579 226.162,-226.236"/>
<polygon fill="midnightblue" stroke="midnightblue" points="153.72,-234.278 144.399,-239.314 154.826,-241.19 153.72,-234.278"/>
</g>
<!-- Node17 -->
<g id="node17" class="node"><title>Node17</title>
<g id="a_node17"><a xlink:href="../../dc/d29/classocra_1_1SubjectBase.html" target="_top" xlink:title="ocra::SubjectBase\&lt;\l EVT_CHANGE_DEPENDENCIES \&gt;">
<polygon fill="white" stroke="black" points="2.91992,-186.414 2.91992,-214.414 182.577,-214.414 182.577,-186.414 2.91992,-186.414"/>
<text text-anchor="start" x="10.9199" y="-202.414" font-family="Helvetica,sans-Serif" font-size="10.00">ocra::SubjectBase&lt;</text>
<text text-anchor="middle" x="92.7485" y="-192.414" font-family="Helvetica,sans-Serif" font-size="10.00"> EVT_CHANGE_DEPENDENCIES &gt;</text>
</a>
</g>
</g>
<!-- Node17&#45;&gt;Node15 -->
<g id="edge16" class="edge"><title>Node17&#45;&gt;Node15</title>
<path fill="none" stroke="midnightblue" d="M192.668,-212.134C204.562,-213.543 216.06,-214.905 226.178,-216.104"/>
<polygon fill="midnightblue" stroke="midnightblue" points="192.948,-208.642 182.605,-210.942 192.124,-215.594 192.948,-208.642"/>
</g>
<!-- Node18 -->
<g id="node18" class="node"><title>Node18</title>
<g id="a_node18"><a xlink:href="../../dc/d29/classocra_1_1SubjectBase.html" target="_top" xlink:title="ocra::SubjectBase\&lt;\l EVT_CHANGE_VALUE \&gt;">
<polygon fill="white" stroke="black" points="26.3452,-139.414 26.3452,-167.414 159.152,-167.414 159.152,-139.414 26.3452,-139.414"/>
<text text-anchor="start" x="34.3452" y="-155.414" font-family="Helvetica,sans-Serif" font-size="10.00">ocra::SubjectBase&lt;</text>
<text text-anchor="middle" x="92.7485" y="-145.414" font-family="Helvetica,sans-Serif" font-size="10.00"> EVT_CHANGE_VALUE &gt;</text>
</a>
</g>
</g>
<!-- Node18&#45;&gt;Node15 -->
<g id="edge17" class="edge"><title>Node18&#45;&gt;Node15</title>
<path fill="none" stroke="midnightblue" d="M168.784,-170.413C174.5,-172.257 180.129,-174.257 185.497,-176.414 209.084,-185.896 234.281,-201.433 249.214,-211.282"/>
<polygon fill="midnightblue" stroke="midnightblue" points="169.7,-167.033 159.114,-167.456 167.653,-173.727 169.7,-167.033"/>
</g>
<!-- Node19 -->
<g id="node19" class="node"><title>Node19</title>
<g id="a_node19"><a xlink:href="../../dd/d68/classocra_1_1IFunctionProperties.html" target="_top" xlink:title="ocra::IFunctionProperties">
<polygon fill="white" stroke="black" points="601.034,-304.414 601.034,-322.414 728.752,-322.414 728.752,-304.414 601.034,-304.414"/>
<text text-anchor="middle" x="664.893" y="-310.414" font-family="Helvetica,sans-Serif" font-size="10.00">ocra::IFunctionProperties</text>
</a>
</g>
</g>
<!-- Node19&#45;&gt;Node9 -->
<g id="edge18" class="edge"><title>Node19&#45;&gt;Node9</title>
<path fill="none" stroke="midnightblue" d="M716.152,-302.045C744.023,-295.538 779.243,-286.984 810.383,-278.414 822.768,-275.006 836.363,-270.991 848.042,-267.457"/>
<polygon fill="midnightblue" stroke="midnightblue" points="715.187,-298.675 706.237,-304.345 716.77,-305.494 715.187,-298.675"/>
</g>
<!-- Node20 -->
<g id="node20" class="node"><title>Node20</title>
<polygon fill="white" stroke="#bfbfbf" points="582.994,-257.414 582.994,-285.414 746.792,-285.414 746.792,-257.414 582.994,-257.414"/>
<text text-anchor="start" x="590.994" y="-273.414" font-family="Helvetica,sans-Serif" font-size="10.00">OCRA_FUNCTION_INTERFACE</text>
<text text-anchor="middle" x="664.893" y="-263.414" font-family="Helvetica,sans-Serif" font-size="10.00">_INHERITANCEpublic</text>
</g>
<!-- Node20&#45;&gt;Node9 -->
<g id="edge19" class="edge"><title>Node20&#45;&gt;Node9</title>
<path fill="none" stroke="#8b1a1a" d="M757.043,-265.808C785.621,-264.051 815.644,-262.204 838.538,-260.796"/>
<polygon fill="#8b1a1a" stroke="#8b1a1a" points="756.775,-262.318 747.009,-266.425 757.205,-269.305 756.775,-262.318"/>
</g>
<!-- Node21 -->
<g id="node21" class="node"><title>Node21</title>
<g id="a_node21"><a xlink:href="../../db/de3/classocra_1_1NamedInstance.html" target="_top" xlink:title="ocra::NamedInstance">
<polygon fill="white" stroke="black" points="609.369,-220.414 609.369,-238.414 720.417,-238.414 720.417,-220.414 609.369,-220.414"/>
<text text-anchor="middle" x="664.893" y="-226.414" font-family="Helvetica,sans-Serif" font-size="10.00">ocra::NamedInstance</text>
</a>
</g>
</g>
<!-- Node21&#45;&gt;Node9 -->
<g id="edge20" class="edge"><title>Node21&#45;&gt;Node9</title>
<path fill="none" stroke="midnightblue" d="M730.803,-238.32C766.022,-243.152 808.377,-248.964 838.459,-253.091"/>
<polygon fill="midnightblue" stroke="midnightblue" points="730.983,-234.812 720.6,-236.92 730.032,-241.747 730.983,-234.812"/>
</g>
<!-- Node22 -->
<g id="node22" class="node"><title>Node22</title>
<g id="a_node22"><a xlink:href="../../d8/d24/classocra_1_1AbilitySet.html" target="_top" xlink:title="ocra::AbilitySet">
<polygon fill="white" stroke="black" points="623.546,-183.414 623.546,-201.414 706.24,-201.414 706.24,-183.414 623.546,-183.414"/>
<text text-anchor="middle" x="664.893" y="-189.414" font-family="Helvetica,sans-Serif" font-size="10.00">ocra::AbilitySet</text>
</a>
</g>
</g>
<!-- Node22&#45;&gt;Node9 -->
<g id="edge21" class="edge"><title>Node22&#45;&gt;Node9</title>
<path fill="none" stroke="midnightblue" d="M716.435,-202.567C726.552,-204.906 737.059,-207.555 746.792,-210.414 785.695,-221.843 829.726,-238.944 855.4,-249.35"/>
<polygon fill="midnightblue" stroke="midnightblue" points="717.014,-199.11 706.49,-200.336 715.482,-205.941 717.014,-199.11"/>
</g>
<!-- Node23 -->
<g id="node23" class="node"><title>Node23</title>
<g id="a_node23"><a xlink:href="../../d5/dc0/classocra_1_1CoupledInputOutputSize.html" target="_top" xlink:title="ocra::CoupledInputOutputSize">
<polygon fill="white" stroke="black" points="589.906,-146.414 589.906,-164.414 739.88,-164.414 739.88,-146.414 589.906,-146.414"/>
<text text-anchor="middle" x="664.893" y="-152.414" font-family="Helvetica,sans-Serif" font-size="10.00">ocra::CoupledInputOutputSize</text>
</a>
</g>
</g>
<!-- Node23&#45;&gt;Node9 -->
<g id="edge22" class="edge"><title>Node23&#45;&gt;Node9</title>
<path fill="none" stroke="midnightblue" d="M728.384,-167.12C734.691,-168.952 740.928,-171.041 746.792,-173.414 771.726,-183.505 836.733,-229.27 864.445,-249.15"/>
<polygon fill="midnightblue" stroke="midnightblue" points="729.022,-163.667 718.456,-164.448 727.203,-170.427 729.022,-163.667"/>
</g>
<!-- Node24 -->
<g id="node24" class="node"><title>Node24</title>
<polygon fill="white" stroke="#bfbfbf" points="637.167,-109.414 637.167,-127.414 692.62,-127.414 692.62,-109.414 637.167,-109.414"/>
<text text-anchor="middle" x="664.893" y="-115.414" font-family="Helvetica,sans-Serif" font-size="10.00">MatrixXd</text>
</g>
<!-- Node24&#45;&gt;Node1 -->
<g id="edge34" class="edge"><title>Node24&#45;&gt;Node1</title>
<path fill="none" stroke="#9a32cd" stroke-dasharray="5,2" d="M702.964,-114.752C745.135,-110.907 816.084,-105.414 877.26,-105.414 877.26,-105.414 877.26,-105.414 1346.42,-105.414 1498.26,-105.414 1603.68,-310.631 1625.61,-357.125"/>
<polygon fill="#9a32cd" stroke="#9a32cd" points="702.519,-111.278 692.887,-115.689 703.168,-118.248 702.519,-111.278"/>
<text text-anchor="middle" x="1075.7" y="-147.414" font-family="Helvetica,sans-Serif" font-size="10.00"> K</text>
<text text-anchor="middle" x="1075.7" y="-137.414" font-family="Helvetica,sans-Serif" font-size="10.00">jacobian</text>
<text text-anchor="middle" x="1075.7" y="-127.414" font-family="Helvetica,sans-Serif" font-size="10.00">M</text>
<text text-anchor="middle" x="1075.7" y="-117.414" font-family="Helvetica,sans-Serif" font-size="10.00">B</text>
<text text-anchor="middle" x="1075.7" y="-107.414" font-family="Helvetica,sans-Serif" font-size="10.00">M_inverse</text>
</g>
<!-- Node24&#45;&gt;Node9 -->
<g id="edge24" class="edge"><title>Node24&#45;&gt;Node9</title>
<path fill="none" stroke="#9a32cd" stroke-dasharray="5,2" d="M702.576,-123.32C716.798,-126.05 732.956,-130.199 746.792,-136.414 755.794,-140.458 756.315,-144.362 764.792,-149.414 784.117,-160.934 792.924,-157.224 810.383,-171.414 838.767,-194.486 862.193,-231.888 872.133,-249.147"/>
<polygon fill="#9a32cd" stroke="#9a32cd" points="703.077,-119.855 692.623,-121.574 701.867,-126.749 703.077,-119.855"/>
<text text-anchor="middle" x="787.587" y="-173.414" font-family="Helvetica,sans-Serif" font-size="10.00"> _jacobian</text>
</g>
<!-- Node25&#45;&gt;Node9 -->
<g id="edge25" class="edge"><title>Node25&#45;&gt;Node9</title>
<path fill="none" stroke="#9a32cd" stroke-dasharray="5,2" d="M713.709,-89.3042C724.787,-91.8809 736.376,-95.1993 746.792,-99.4145 777.525,-111.852 787.433,-114.487 810.383,-138.414 843.732,-173.184 866.091,-227.797 874.04,-249.29"/>
<polygon fill="#9a32cd" stroke="#9a32cd" points="714.242,-85.8386 703.728,-87.142 712.76,-92.6799 714.242,-85.8386"/>
<text text-anchor="middle" x="787.587" y="-140.414" font-family="Helvetica,sans-Serif" font-size="10.00"> x</text>
</g>
<!-- Node29 -->
<g id="node29" class="node"><title>Node29</title>
<g id="a_node29"><a xlink:href="../../d5/d40/classocra_1_1BaseVariable.html" target="_top" xlink:title="Implements a basic variable. ">
<polygon fill="white" stroke="black" points="828.383,-50.4145 828.383,-68.4145 928.138,-68.4145 928.138,-50.4145 828.383,-50.4145"/>
<text text-anchor="middle" x="878.26" y="-56.4145" font-family="Helvetica,sans-Serif" font-size="10.00">ocra::BaseVariable</text>
</a>
</g>
</g>
<!-- Node25&#45;&gt;Node29 -->
<g id="edge33" class="edge"><title>Node25&#45;&gt;Node29</title>
<path fill="none" stroke="midnightblue" d="M713.89,-76.4187C748.067,-72.8614 793.849,-68.0963 828.252,-64.5155"/>
<polygon fill="midnightblue" stroke="midnightblue" points="713.265,-72.9648 703.681,-77.4813 713.99,-79.9272 713.265,-72.9648"/>
</g>
<!-- Node26 -->
<g id="node26" class="node"><title>Node26</title>
<g id="a_node26"><a xlink:href="../../d0/d29/classocra_1_1Component.html" target="_top" xlink:title="ocra::Component\&lt; Variable,\l CompositeVariable, VariableParenthood \&gt;">
<polygon fill="white" stroke="black" points="341.63,-109.414 341.63,-137.414 545.994,-137.414 545.994,-109.414 341.63,-109.414"/>
<text text-anchor="start" x="349.63" y="-125.414" font-family="Helvetica,sans-Serif" font-size="10.00">ocra::Component&lt; Variable,</text>
<text text-anchor="middle" x="443.812" y="-115.414" font-family="Helvetica,sans-Serif" font-size="10.00"> CompositeVariable, VariableParenthood &gt;</text>
</a>
</g>
</g>
<!-- Node26&#45;&gt;Node25 -->
<g id="edge26" class="edge"><title>Node26&#45;&gt;Node25</title>
<path fill="none" stroke="midnightblue" d="M527.989,-107.469C561.892,-100.969 599.378,-93.7827 626.378,-88.6065"/>
<polygon fill="midnightblue" stroke="midnightblue" points="527.23,-104.05 518.067,-109.371 528.548,-110.925 527.23,-104.05"/>
</g>
<!-- Node27 -->
<g id="node27" class="node"><title>Node27</title>
<polygon fill="white" stroke="#bfbfbf" points="407.455,-72.4145 407.455,-90.4145 480.169,-90.4145 480.169,-72.4145 407.455,-72.4145"/>
<text text-anchor="middle" x="443.812" y="-78.4145" font-family="Helvetica,sans-Serif" font-size="10.00">noncopyable</text>
</g>
<!-- Node27&#45;&gt;Node25 -->
<g id="edge28" class="edge"><title>Node27&#45;&gt;Node25</title>
<path fill="none" stroke="#8b1a1a" d="M490.591,-81.4145C530.871,-81.4145 588.795,-81.4145 626.386,-81.4145"/>
<polygon fill="#8b1a1a" stroke="#8b1a1a" points="490.499,-77.9146 480.499,-81.4145 490.499,-84.9146 490.499,-77.9146"/>
</g>
<!-- Node28 -->
<g id="node28" class="node"><title>Node28</title>
<g id="a_node28"><a xlink:href="../../dc/d20/classocra_1_1VariableHasRestrictedClassDerivation.html" target="_top" xlink:title="ocra::VariableHasRestricted\lClassDerivation">
<polygon fill="white" stroke="black" points="373.932,-25.4145 373.932,-53.4145 513.692,-53.4145 513.692,-25.4145 373.932,-25.4145"/>
<text text-anchor="start" x="381.932" y="-41.4145" font-family="Helvetica,sans-Serif" font-size="10.00">ocra::VariableHasRestricted</text>
<text text-anchor="middle" x="443.812" y="-31.4145" font-family="Helvetica,sans-Serif" font-size="10.00">ClassDerivation</text>
</a>
</g>
</g>
<!-- Node28&#45;&gt;Node25 -->
<g id="edge29" class="edge"><title>Node28&#45;&gt;Node25</title>
<path fill="none" stroke="#8b1a1a" d="M523.996,-54.5949C558.816,-61.2702 598.079,-68.7972 626.126,-74.1742"/>
<polygon fill="#8b1a1a" stroke="#8b1a1a" points="524.31,-51.0914 513.83,-52.6459 522.992,-57.9662 524.31,-51.0914"/>
</g>
<!-- Node29&#45;&gt;Node1 -->
<g id="edge31" class="edge"><title>Node29&#45;&gt;Node1</title>
<path fill="none" stroke="#9a32cd" stroke-dasharray="5,2" d="M938.385,-58.1536C1096.29,-55.34 1519.17,-51.6385 1566.79,-91.4145 1609.17,-126.821 1625.82,-313.227 1629.19,-357.142"/>
<polygon fill="#9a32cd" stroke="#9a32cd" points="938.308,-54.6543 928.374,-58.3372 938.436,-61.6531 938.308,-54.6543"/>
<text text-anchor="middle" x="1216.96" y="-59.4145" font-family="Helvetica,sans-Serif" font-size="10.00"> fcVar</text>
</g>
<!-- Node30 -->
<g id="node30" class="node"><title>Node30</title>
<g id="a_node30"><a xlink:href="../../db/d90/classocra_1_1Leaf.html" target="_top" xlink:title="ocra::Leaf\&lt; BaseVariable \&gt;">
<polygon fill="white" stroke="black" points="596.666,-35.4145 596.666,-53.4145 733.12,-53.4145 733.12,-35.4145 596.666,-35.4145"/>
<text text-anchor="middle" x="664.893" y="-41.4145" font-family="Helvetica,sans-Serif" font-size="10.00">ocra::Leaf&lt; BaseVariable &gt;</text>
</a>
</g>
</g>
<!-- Node30&#45;&gt;Node29 -->
<g id="edge32" class="edge"><title>Node30&#45;&gt;Node29</title>
<path fill="none" stroke="midnightblue" d="M743.624,-49.9308C771.904,-51.9377 803.061,-54.1488 828.172,-55.9308"/>
<polygon fill="midnightblue" stroke="midnightblue" points="743.575,-46.4185 733.352,-49.2018 743.079,-53.401 743.575,-46.4185"/>
</g>
<!-- Node31 -->
<g id="node31" class="node"><title>Node31</title>
<g id="a_node31"><a xlink:href="../../de/d84/classocra_1_1LessThanZeroConstraintPtr.html" target="_top" xlink:title="ocra::LessThanZeroConstraint\lPtr\&lt; ocra::LinearizedCoulombFunction \&gt;">
<polygon fill="white" stroke="black" points="1247.65,-2.41446 1247.65,-30.4145 1443.19,-30.4145 1443.19,-2.41446 1247.65,-2.41446"/>
<text text-anchor="start" x="1255.65" y="-18.4145" font-family="Helvetica,sans-Serif" font-size="10.00">ocra::LessThanZeroConstraint</text>
<text text-anchor="middle" x="1345.42" y="-8.41446" font-family="Helvetica,sans-Serif" font-size="10.00">Ptr&lt; ocra::LinearizedCoulombFunction &gt;</text>
</a>
</g>
</g>
<!-- Node31&#45;&gt;Node1 -->
<g id="edge35" class="edge"><title>Node31&#45;&gt;Node1</title>
<path fill="none" stroke="#9a32cd" stroke-dasharray="5,2" d="M1426.63,-1.42072C1473.11,2.44022 1529.61,-1.8548 1566.79,-35.4145 1616.4,-80.1967 1627.69,-308.742 1629.54,-357.327"/>
<polygon fill="#9a32cd" stroke="#9a32cd" points="1426.19,2.05297 1416.57,-2.39401 1426.86,-4.91449 1426.19,2.05297"/>
<text text-anchor="middle" x="1513.99" y="-37.4145" font-family="Helvetica,sans-Serif" font-size="10.00"> frictionConstraint</text>
</g>
</g>
</svg>
