<?xml version="1.0" encoding="UTF-8" standalone="no"?>
<!DOCTYPE svg PUBLIC "-//W3C//DTD SVG 1.1//EN"
 "http://www.w3.org/Graphics/SVG/1.1/DTD/svg11.dtd">
<!-- Generated by graphviz version 2.38.0 (20140413.2041)
 -->
<!-- Title: ocra::PointContactFeature::Pimpl Pages: 1 -->
<svg width="178pt" height="132pt"
 viewBox="0.00 0.00 178.24 132.00" xmlns="http://www.w3.org/2000/svg" xmlns:xlink="http://www.w3.org/1999/xlink">
<g id="graph0" class="graph" transform="scale(1 1) rotate(0) translate(4 128)">
<title>ocra::PointContactFeature::Pimpl</title>
<polygon fill="white" stroke="none" points="-4,4 -4,-128 174.244,-128 174.244,4 -4,4"/>
<!-- Node1 -->
<g id="node1" class="node"><title>Node1</title>
<polygon fill="#bfbfbf" stroke="black" points="0,-0.5 0,-28.5 132.729,-28.5 132.729,-0.5 0,-0.5"/>
<text text-anchor="start" x="8" y="-16.5" font-family="Helvetica,sans-Serif" font-size="10.00">ocra::PointContactFeature</text>
<text text-anchor="middle" x="66.3643" y="-6.5" font-family="Helvetica,sans-Serif" font-size="10.00">::Pimpl</text>
</g>
<!-- Node2 -->
<g id="node2" class="node"><title>Node2</title>
<polygon fill="white" stroke="#bfbfbf" points="0.0712891,-105.5 0.0712891,-123.5 56.6572,-123.5 56.6572,-105.5 0.0712891,-105.5"/>
<text text-anchor="middle" x="28.3643" y="-111.5" font-family="Helvetica,sans-Serif" font-size="10.00">VectorXd</text>
</g>
<!-- Node2&#45;&gt;Node1 -->
<g id="edge1" class="edge"><title>Node2&#45;&gt;Node1</title>
<path fill="none" stroke="#9a32cd" stroke-dasharray="5,2" d="M24.7239,-95.0164C22.8986,-81.1354 22.3683,-62.0149 29.4434,-47 32.8194,-39.8353 38.694,-33.6852 44.7772,-28.7705"/>
<polygon fill="#9a32cd" stroke="#9a32cd" points="21.3307,-95.9483 26.4233,-105.239 28.236,-94.8003 21.3307,-95.9483"/>
<text text-anchor="middle" x="57.3247" y="-79" font-family="Helvetica,sans-Serif" font-size="10.00"> error</text>
<text text-anchor="middle" x="57.3247" y="-69" font-family="Helvetica,sans-Serif" font-size="10.00">acceleration</text>
<text text-anchor="middle" x="57.3247" y="-59" font-family="Helvetica,sans-Serif" font-size="10.00">errorDot</text>
<text text-anchor="middle" x="57.3247" y="-49" font-family="Helvetica,sans-Serif" font-size="10.00">effort</text>
</g>
<!-- Node3 -->
<g id="node3" class="node"><title>Node3</title>
<polygon fill="white" stroke="#bfbfbf" points="77.6377,-105.5 77.6377,-123.5 133.091,-123.5 133.091,-105.5 77.6377,-105.5"/>
<text text-anchor="middle" x="105.364" y="-111.5" font-family="Helvetica,sans-Serif" font-size="10.00">MatrixXd</text>
</g>
<!-- Node3&#45;&gt;Node1 -->
<g id="edge2" class="edge"><title>Node3&#45;&gt;Node1</title>
<path fill="none" stroke="#9a32cd" stroke-dasharray="5,2" d="M100.246,-95.1698C96.2397,-81.6319 90.2119,-62.877 83.3643,-47 80.7063,-40.8373 77.2654,-34.268 74.1751,-28.7321"/>
<polygon fill="#9a32cd" stroke="#9a32cd" points="96.9842,-96.4922 103.109,-105.137 103.712,-94.5593 96.9842,-96.4922"/>
<text text-anchor="middle" x="134.304" y="-79" font-family="Helvetica,sans-Serif" font-size="10.00"> Minv</text>
<text text-anchor="middle" x="134.304" y="-69" font-family="Helvetica,sans-Serif" font-size="10.00">spaceTransform</text>
<text text-anchor="middle" x="134.304" y="-59" font-family="Helvetica,sans-Serif" font-size="10.00">M</text>
<text text-anchor="middle" x="134.304" y="-49" font-family="Helvetica,sans-Serif" font-size="10.00">jacobian</text>
</g>
</g>
</svg>
