<?xml version="1.0" encoding="UTF-8" standalone="no"?>
<!DOCTYPE svg PUBLIC "-//W3C//DTD SVG 1.1//EN"
 "http://www.w3.org/Graphics/SVG/1.1/DTD/svg11.dtd">
<!-- Generated by graphviz version 2.38.0 (20140413.2041)
 -->
<!-- Title: Variable.h Pages: 1 -->
<svg width="1378pt" height="212pt"
 viewBox="0.00 0.00 1378.30 212.00" xmlns="http://www.w3.org/2000/svg" xmlns:xlink="http://www.w3.org/1999/xlink">
<g id="graph0" class="graph" transform="scale(1 1) rotate(0) translate(4 208)">
<title>Variable.h</title>
<polygon fill="white" stroke="none" points="-4,4 -4,-208 1374.3,-208 1374.3,4 -4,4"/>
<!-- Node0 -->
<g id="node1" class="node"><title>Node0</title>
<polygon fill="#bfbfbf" stroke="black" points="1138.54,-185.5 1138.54,-203.5 1198.83,-203.5 1198.83,-185.5 1138.54,-185.5"/>
<text text-anchor="middle" x="1168.69" y="-191.5" font-family="Helvetica,sans-Serif" font-size="10.00">Variable.h</text>
</g>
<!-- Node1 -->
<g id="node2" class="node"><title>Node1</title>
<g id="a_node2"><a xlink:href="../../d8/ddc/ObserverSubject_8h.html" target="_top" xlink:title="Declaration file of the Observer, Subject and ObserverSubject classes. ">
<polygon fill="white" stroke="black" points="384.547,-130.5 384.547,-148.5 532.827,-148.5 532.827,-130.5 384.547,-130.5"/>
<text text-anchor="middle" x="458.687" y="-136.5" font-family="Helvetica,sans-Serif" font-size="10.00">ocra/optim/ObserverSubject.h</text>
</a>
</g>
</g>
<!-- Node0&#45;&gt;Node1 -->
<g id="edge1" class="edge"><title>Node0&#45;&gt;Node1</title>
<path fill="none" stroke="midnightblue" d="M1138.18,-191.223C1035.72,-183.574 701.504,-158.626 543.243,-146.812"/>
<polygon fill="midnightblue" stroke="midnightblue" points="543.31,-143.307 533.077,-146.053 542.789,-150.288 543.31,-143.307"/>
</g>
<!-- Node12 -->
<g id="node13" class="node"><title>Node12</title>
<g id="a_node13"><a xlink:href="../../d1/de6/Composite_8h.html" target="_top" xlink:title="Utility classes and functions to implement the Composite design pattern. ">
<polygon fill="white" stroke="black" points="899.887,-130.5 899.887,-148.5 1021.49,-148.5 1021.49,-130.5 899.887,-130.5"/>
<text text-anchor="middle" x="960.687" y="-136.5" font-family="Helvetica,sans-Serif" font-size="10.00">ocra/optim/Composite.h</text>
</a>
</g>
</g>
<!-- Node0&#45;&gt;Node12 -->
<g id="edge15" class="edge"><title>Node0&#45;&gt;Node12</title>
<path fill="none" stroke="midnightblue" d="M1138.44,-185.793C1102.5,-176.636 1042.35,-161.309 1002.11,-151.055"/>
<polygon fill="midnightblue" stroke="midnightblue" points="1002.89,-147.641 992.333,-148.564 1001.16,-154.424 1002.89,-147.641"/>
</g>
<!-- Node15 -->
<g id="node16" class="node"><title>Node15</title>
<polygon fill="white" stroke="#bfbfbf" points="1189.98,-70.5 1189.98,-88.5 1309.4,-88.5 1309.4,-70.5 1189.98,-70.5"/>
<text text-anchor="middle" x="1249.69" y="-76.5" font-family="Helvetica,sans-Serif" font-size="10.00">boost/noncopyable.hpp</text>
</g>
<!-- Node0&#45;&gt;Node15 -->
<g id="edge28" class="edge"><title>Node0&#45;&gt;Node15</title>
<path fill="none" stroke="midnightblue" d="M1167.18,-185.408C1165.26,-172.644 1163.29,-147.494 1173.69,-130 1183.7,-113.138 1201.96,-100.967 1218.08,-92.9127"/>
<polygon fill="midnightblue" stroke="midnightblue" points="1219.65,-96.0402 1227.23,-88.6422 1216.69,-89.6959 1219.65,-96.0402"/>
</g>
<!-- Node17 -->
<g id="node18" class="node"><title>Node17</title>
<polygon fill="white" stroke="#bfbfbf" points="1327.07,-70.5 1327.07,-88.5 1370.3,-88.5 1370.3,-70.5 1327.07,-70.5"/>
<text text-anchor="middle" x="1348.69" y="-76.5" font-family="Helvetica,sans-Serif" font-size="10.00">vector</text>
</g>
<!-- Node0&#45;&gt;Node17 -->
<g id="edge30" class="edge"><title>Node0&#45;&gt;Node17</title>
<path fill="none" stroke="midnightblue" d="M1171.46,-185.187C1176.39,-171.649 1187.98,-144.863 1206.69,-130 1247.63,-97.4792 1269.88,-112.757 1318.69,-94 1319.89,-93.539 1321.11,-93.0547 1322.34,-92.5549"/>
<polygon fill="midnightblue" stroke="midnightblue" points="1323.88,-95.7009 1331.69,-88.5446 1321.12,-89.2668 1323.88,-95.7009"/>
</g>
<!-- Node20 -->
<g id="node21" class="node"><title>Node20</title>
<polygon fill="white" stroke="#bfbfbf" points="1215.72,-130.5 1215.72,-148.5 1285.65,-148.5 1285.65,-130.5 1215.72,-130.5"/>
<text text-anchor="middle" x="1250.69" y="-136.5" font-family="Helvetica,sans-Serif" font-size="10.00">Eigen/Eigen</text>
</g>
<!-- Node0&#45;&gt;Node20 -->
<g id="edge27" class="edge"><title>Node0&#45;&gt;Node20</title>
<path fill="none" stroke="midnightblue" d="M1181.14,-185.45C1193.9,-177.201 1213.99,-164.216 1229.31,-154.319"/>
<polygon fill="midnightblue" stroke="midnightblue" points="1231.62,-156.993 1238.12,-148.625 1227.82,-151.114 1231.62,-156.993"/>
</g>
<!-- Node21 -->
<g id="node22" class="node"><title>Node21</title>
<polygon fill="white" stroke="#bfbfbf" points="1303.46,-130.5 1303.46,-148.5 1343.91,-148.5 1343.91,-130.5 1303.46,-130.5"/>
<text text-anchor="middle" x="1323.69" y="-136.5" font-family="Helvetica,sans-Serif" font-size="10.00">string</text>
</g>
<!-- Node0&#45;&gt;Node21 -->
<g id="edge29" class="edge"><title>Node0&#45;&gt;Node21</title>
<path fill="none" stroke="midnightblue" d="M1192.23,-185.45C1219.35,-176.177 1263.97,-160.919 1293.59,-150.79"/>
<polygon fill="midnightblue" stroke="midnightblue" points="1295.06,-153.987 1303.39,-147.44 1292.8,-147.364 1295.06,-153.987"/>
</g>
<!-- Node2 -->
<g id="node3" class="node"><title>Node2</title>
<g id="a_node3"><a xlink:href="../../df/d67/ObserverSubjectBase_8h.html" target="_top" xlink:title="Declaration file of the Observer and Subject base classes. ">
<polygon fill="white" stroke="black" points="144.717,-65.5 144.717,-93.5 284.657,-93.5 284.657,-65.5 144.717,-65.5"/>
<text text-anchor="start" x="152.717" y="-81.5" font-family="Helvetica,sans-Serif" font-size="10.00">ocra/optim/ObserverSubject</text>
<text text-anchor="middle" x="214.687" y="-71.5" font-family="Helvetica,sans-Serif" font-size="10.00">Base.h</text>
</a>
</g>
</g>
<!-- Node1&#45;&gt;Node2 -->
<g id="edge2" class="edge"><title>Node1&#45;&gt;Node2</title>
<path fill="none" stroke="midnightblue" d="M425.016,-130.496C387.546,-121.589 326.117,-106.987 279.294,-95.8575"/>
<polygon fill="midnightblue" stroke="midnightblue" points="280.077,-92.4461 269.539,-93.5385 278.458,-99.2563 280.077,-92.4461"/>
</g>
<!-- Node6 -->
<g id="node7" class="node"><title>Node6</title>
<polygon fill="white" stroke="#bfbfbf" points="0,-0.5 0,-28.5 99.374,-28.5 99.374,-0.5 0,-0.5"/>
<text text-anchor="start" x="8" y="-16.5" font-family="Helvetica,sans-Serif" font-size="10.00">boost/type_traits/is</text>
<text text-anchor="middle" x="49.687" y="-6.5" font-family="Helvetica,sans-Serif" font-size="10.00">_class.hpp</text>
</g>
<!-- Node1&#45;&gt;Node6 -->
<g id="edge14" class="edge"><title>Node1&#45;&gt;Node6</title>
<path fill="none" stroke="midnightblue" d="M384.231,-133.379C302.898,-126.887 178.484,-114.063 135.687,-94 107.433,-80.7549 81.9849,-54.9424 66.2308,-36.5334"/>
<polygon fill="midnightblue" stroke="midnightblue" points="68.7806,-34.1253 59.6994,-28.6679 63.3952,-38.5973 68.7806,-34.1253"/>
</g>
<!-- Node7 -->
<g id="node8" class="node"><title>Node7</title>
<polygon fill="white" stroke="#bfbfbf" points="409,-0.5 409,-28.5 508.374,-28.5 508.374,-0.5 409,-0.5"/>
<text text-anchor="start" x="417" y="-16.5" font-family="Helvetica,sans-Serif" font-size="10.00">boost/type_traits/is</text>
<text text-anchor="middle" x="458.687" y="-6.5" font-family="Helvetica,sans-Serif" font-size="10.00">_base_of.hpp</text>
</g>
<!-- Node1&#45;&gt;Node7 -->
<g id="edge12" class="edge"><title>Node1&#45;&gt;Node7</title>
<path fill="none" stroke="midnightblue" d="M458.687,-130.43C458.687,-112.123 458.687,-66.8717 458.687,-38.9218"/>
<polygon fill="midnightblue" stroke="midnightblue" points="462.187,-38.8093 458.687,-28.8093 455.187,-38.8093 462.187,-38.8093"/>
</g>
<!-- Node8 -->
<g id="node9" class="node"><title>Node8</title>
<polygon fill="white" stroke="#bfbfbf" points="526.269,-5.5 526.269,-23.5 645.105,-23.5 645.105,-5.5 526.269,-5.5"/>
<text text-anchor="middle" x="585.687" y="-11.5" font-family="Helvetica,sans-Serif" font-size="10.00">boost/static_assert.hpp</text>
</g>
<!-- Node1&#45;&gt;Node8 -->
<g id="edge11" class="edge"><title>Node1&#45;&gt;Node8</title>
<path fill="none" stroke="midnightblue" d="M463.973,-130.14C473.294,-115.789 493.752,-85.9876 515.687,-65 530.155,-51.1567 548.748,-38.1929 563.135,-29.0073"/>
<polygon fill="midnightblue" stroke="midnightblue" points="565.262,-31.8058 571.897,-23.5454 561.559,-25.8656 565.262,-31.8058"/>
</g>
<!-- Node10 -->
<g id="node11" class="node"><title>Node10</title>
<g id="a_node11"><a xlink:href="../../db/ddf/ocra__events_8h.html" target="_top" xlink:title="ocra/optim/ocra_events.h">
<polygon fill="white" stroke="black" points="302.547,-70.5 302.547,-88.5 430.827,-88.5 430.827,-70.5 302.547,-70.5"/>
<text text-anchor="middle" x="366.687" y="-76.5" font-family="Helvetica,sans-Serif" font-size="10.00">ocra/optim/ocra_events.h</text>
</a>
</g>
</g>
<!-- Node1&#45;&gt;Node10 -->
<g id="edge10" class="edge"><title>Node1&#45;&gt;Node10</title>
<path fill="none" stroke="midnightblue" d="M445.895,-130.435C431.011,-121.052 406.196,-105.408 388.303,-94.1277"/>
<polygon fill="midnightblue" stroke="midnightblue" points="389.993,-91.0554 379.667,-88.6831 386.26,-96.9769 389.993,-91.0554"/>
</g>
<!-- Node11 -->
<g id="node12" class="node"><title>Node11</title>
<polygon fill="white" stroke="#bfbfbf" points="525,-65.5 525,-93.5 624.374,-93.5 624.374,-65.5 525,-65.5"/>
<text text-anchor="start" x="533" y="-81.5" font-family="Helvetica,sans-Serif" font-size="10.00">boost/type_traits/is</text>
<text text-anchor="middle" x="574.687" y="-71.5" font-family="Helvetica,sans-Serif" font-size="10.00">_convertible.hpp</text>
</g>
<!-- Node1&#45;&gt;Node11 -->
<g id="edge13" class="edge"><title>Node1&#45;&gt;Node11</title>
<path fill="none" stroke="midnightblue" d="M474.816,-130.435C491.41,-122.138 517.795,-108.946 539.278,-98.2043"/>
<polygon fill="midnightblue" stroke="midnightblue" points="541.067,-101.223 548.446,-93.6203 537.937,-94.962 541.067,-101.223"/>
</g>
<!-- Node3 -->
<g id="node4" class="node"><title>Node3</title>
<polygon fill="white" stroke="#bfbfbf" points="117.283,-5.5 117.283,-23.5 176.091,-23.5 176.091,-5.5 117.283,-5.5"/>
<text text-anchor="middle" x="146.687" y="-11.5" font-family="Helvetica,sans-Serif" font-size="10.00">functional</text>
</g>
<!-- Node2&#45;&gt;Node3 -->
<g id="edge3" class="edge"><title>Node2&#45;&gt;Node3</title>
<path fill="none" stroke="midnightblue" d="M200.597,-65.4464C189.704,-55.3537 174.6,-41.3602 163.15,-30.752"/>
<polygon fill="midnightblue" stroke="midnightblue" points="165.285,-27.9589 155.57,-23.7301 160.527,-33.0938 165.285,-27.9589"/>
</g>
<!-- Node4 -->
<g id="node5" class="node"><title>Node4</title>
<polygon fill="white" stroke="#bfbfbf" points="826.123,-5.5 826.123,-23.5 883.251,-23.5 883.251,-5.5 826.123,-5.5"/>
<text text-anchor="middle" x="854.687" y="-11.5" font-family="Helvetica,sans-Serif" font-size="10.00">algorithm</text>
</g>
<!-- Node2&#45;&gt;Node4 -->
<g id="edge4" class="edge"><title>Node2&#45;&gt;Node4</title>
<path fill="none" stroke="midnightblue" d="M284.854,-66.2052C287.835,-65.779 290.789,-65.3748 293.687,-65 489.095,-39.7253 724.491,-23.569 815.83,-17.8372"/>
<polygon fill="midnightblue" stroke="midnightblue" points="816.227,-21.3194 825.991,-17.2055 815.793,-14.3328 816.227,-21.3194"/>
</g>
<!-- Node5 -->
<g id="node6" class="node"><title>Node5</title>
<polygon fill="white" stroke="#bfbfbf" points="193.642,-5.5 193.642,-23.5 271.732,-23.5 271.732,-5.5 193.642,-5.5"/>
<text text-anchor="middle" x="232.687" y="-11.5" font-family="Helvetica,sans-Serif" font-size="10.00">boost/any.hpp</text>
</g>
<!-- Node2&#45;&gt;Node5 -->
<g id="edge5" class="edge"><title>Node2&#45;&gt;Node5</title>
<path fill="none" stroke="midnightblue" d="M218.417,-65.4464C221.048,-56.2356 224.608,-43.7759 227.514,-33.6055"/>
<polygon fill="midnightblue" stroke="midnightblue" points="230.954,-34.3069 230.336,-23.7301 224.223,-32.3838 230.954,-34.3069"/>
</g>
<!-- Node2&#45;&gt;Node6 -->
<g id="edge6" class="edge"><title>Node2&#45;&gt;Node6</title>
<path fill="none" stroke="midnightblue" d="M180.499,-65.4464C155.278,-55.8166 120.757,-42.6356 93.5098,-32.2323"/>
<polygon fill="midnightblue" stroke="midnightblue" points="94.422,-28.8342 83.8313,-28.5369 91.925,-35.3738 94.422,-28.8342"/>
</g>
<!-- Node2&#45;&gt;Node7 -->
<g id="edge7" class="edge"><title>Node2&#45;&gt;Node7</title>
<path fill="none" stroke="midnightblue" d="M265.244,-65.4464C304.06,-55.4243 357.772,-41.5558 398.752,-30.9751"/>
<polygon fill="midnightblue" stroke="midnightblue" points="399.805,-34.3179 408.613,-28.429 398.055,-27.5402 399.805,-34.3179"/>
</g>
<!-- Node2&#45;&gt;Node8 -->
<g id="edge8" class="edge"><title>Node2&#45;&gt;Node8</title>
<path fill="none" stroke="midnightblue" d="M284.892,-66.4658C287.863,-65.9683 290.804,-65.4779 293.687,-65 393.162,-48.5074 418.441,-46.8205 517.687,-29 523.829,-27.8972 530.272,-26.6874 536.642,-25.4592"/>
<polygon fill="midnightblue" stroke="midnightblue" points="537.395,-28.8783 546.539,-23.5267 536.053,-22.0081 537.395,-28.8783"/>
</g>
<!-- Node9 -->
<g id="node10" class="node"><title>Node9</title>
<polygon fill="white" stroke="#bfbfbf" points="289.882,-0.5 289.882,-28.5 391.492,-28.5 391.492,-0.5 289.882,-0.5"/>
<text text-anchor="start" x="297.882" y="-16.5" font-family="Helvetica,sans-Serif" font-size="10.00">boost/ptr_container</text>
<text text-anchor="middle" x="340.687" y="-6.5" font-family="Helvetica,sans-Serif" font-size="10.00">/ptr_vector.hpp</text>
</g>
<!-- Node2&#45;&gt;Node9 -->
<g id="edge9" class="edge"><title>Node2&#45;&gt;Node9</title>
<path fill="none" stroke="midnightblue" d="M240.794,-65.4464C259.547,-56.07 285.033,-43.3269 305.568,-33.0593"/>
<polygon fill="midnightblue" stroke="midnightblue" points="307.234,-36.1396 314.613,-28.5369 304.104,-29.8786 307.234,-36.1396"/>
</g>
<!-- Node12&#45;&gt;Node4 -->
<g id="edge24" class="edge"><title>Node12&#45;&gt;Node4</title>
<path fill="none" stroke="midnightblue" d="M970.627,-130.35C986.528,-116.317 1014.38,-86.982 998.687,-65 974.958,-31.7516 927.414,-20.606 893.447,-16.9943"/>
<polygon fill="midnightblue" stroke="midnightblue" points="893.654,-13.499 883.383,-16.0992 893.034,-20.4715 893.654,-13.499"/>
</g>
<!-- Node12&#45;&gt;Node7 -->
<g id="edge20" class="edge"><title>Node12&#45;&gt;Node7</title>
<path fill="none" stroke="midnightblue" d="M899.831,-139.138C838.295,-137.576 741.805,-128.961 666.687,-94 648.985,-85.7613 650.838,-74.332 633.687,-65 613.724,-54.1378 560.873,-39.8389 518.436,-29.4034"/>
<polygon fill="midnightblue" stroke="midnightblue" points="518.997,-25.9378 508.453,-26.9719 517.34,-32.739 518.997,-25.9378"/>
</g>
<!-- Node12&#45;&gt;Node8 -->
<g id="edge19" class="edge"><title>Node12&#45;&gt;Node8</title>
<path fill="none" stroke="midnightblue" d="M899.655,-134.806C847.58,-130.003 771.534,-119.019 709.687,-94 688.318,-85.3555 686.082,-77.4576 666.687,-65 647.097,-52.4174 624.461,-38.6476 608.107,-28.8327"/>
<polygon fill="midnightblue" stroke="midnightblue" points="609.653,-25.6791 599.274,-23.5498 606.06,-31.6866 609.653,-25.6791"/>
</g>
<!-- Node12&#45;&gt;Node11 -->
<g id="edge21" class="edge"><title>Node12&#45;&gt;Node11</title>
<path fill="none" stroke="midnightblue" d="M899.656,-131.367C834.746,-123.478 729.169,-109.775 638.687,-94 637.397,-93.7751 636.093,-93.5431 634.78,-93.305"/>
<polygon fill="midnightblue" stroke="midnightblue" points="635.058,-89.7958 624.583,-91.38 633.76,-96.6743 635.058,-89.7958"/>
</g>
<!-- Node13 -->
<g id="node14" class="node"><title>Node13</title>
<g id="a_node14"><a xlink:href="../../de/df3/ocra__assert_8h.html" target="_top" xlink:title="ocra/optim/ocra_assert.h">
<polygon fill="white" stroke="black" points="1045.66,-70.5 1045.66,-88.5 1171.71,-88.5 1171.71,-70.5 1045.66,-70.5"/>
<text text-anchor="middle" x="1108.69" y="-76.5" font-family="Helvetica,sans-Serif" font-size="10.00">ocra/optim/ocra_assert.h</text>
</a>
</g>
</g>
<!-- Node12&#45;&gt;Node13 -->
<g id="edge16" class="edge"><title>Node12&#45;&gt;Node13</title>
<path fill="none" stroke="midnightblue" d="M981.266,-130.435C1006.42,-120.579 1049.2,-103.813 1078.18,-92.4549"/>
<polygon fill="midnightblue" stroke="midnightblue" points="1079.77,-95.5906 1087.81,-88.6831 1077.22,-89.0732 1079.77,-95.5906"/>
</g>
<!-- Node12&#45;&gt;Node15 -->
<g id="edge18" class="edge"><title>Node12&#45;&gt;Node15</title>
<path fill="none" stroke="midnightblue" d="M1000.57,-130.496C1052.46,-120.081 1143.16,-101.879 1199.62,-90.5473"/>
<polygon fill="midnightblue" stroke="midnightblue" points="1200.64,-93.914 1209.75,-88.5147 1199.26,-87.0509 1200.64,-93.914"/>
</g>
<!-- Node16 -->
<g id="node17" class="node"><title>Node16</title>
<polygon fill="white" stroke="#bfbfbf" points="719.148,-65.5 719.148,-93.5 850.226,-93.5 850.226,-65.5 719.148,-65.5"/>
<text text-anchor="start" x="727.148" y="-81.5" font-family="Helvetica,sans-Serif" font-size="10.00">boost/type_traits/has</text>
<text text-anchor="middle" x="784.687" y="-71.5" font-family="Helvetica,sans-Serif" font-size="10.00">_nothrow_constructor.hpp</text>
</g>
<!-- Node12&#45;&gt;Node16 -->
<g id="edge22" class="edge"><title>Node12&#45;&gt;Node16</title>
<path fill="none" stroke="midnightblue" d="M936.215,-130.435C909.823,-121.738 867.108,-107.661 833.746,-96.6671"/>
<polygon fill="midnightblue" stroke="midnightblue" points="834.757,-93.3154 824.164,-93.5096 832.566,-99.9637 834.757,-93.3154"/>
</g>
<!-- Node12&#45;&gt;Node17 -->
<g id="edge23" class="edge"><title>Node12&#45;&gt;Node17</title>
<path fill="none" stroke="midnightblue" d="M1021.63,-136.456C1093.76,-132.778 1216.92,-122.523 1318.69,-94 1320.35,-93.5337 1322.04,-92.9892 1323.73,-92.3913"/>
<polygon fill="midnightblue" stroke="midnightblue" points="1325.2,-95.5718 1333.14,-88.5586 1322.56,-89.0887 1325.2,-95.5718"/>
</g>
<!-- Node18 -->
<g id="node19" class="node"><title>Node18</title>
<polygon fill="white" stroke="#bfbfbf" points="868.515,-70.5 868.515,-88.5 912.859,-88.5 912.859,-70.5 868.515,-70.5"/>
<text text-anchor="middle" x="890.687" y="-76.5" font-family="Helvetica,sans-Serif" font-size="10.00">iosfwd</text>
</g>
<!-- Node12&#45;&gt;Node18 -->
<g id="edge25" class="edge"><title>Node12&#45;&gt;Node18</title>
<path fill="none" stroke="midnightblue" d="M950.954,-130.435C940.003,-121.362 921.987,-106.434 908.5,-95.2589"/>
<polygon fill="midnightblue" stroke="midnightblue" points="910.724,-92.5569 900.791,-88.8718 906.258,-97.9471 910.724,-92.5569"/>
</g>
<!-- Node19 -->
<g id="node20" class="node"><title>Node19</title>
<polygon fill="white" stroke="#bfbfbf" points="931.286,-70.5 931.286,-88.5 990.088,-88.5 990.088,-70.5 931.286,-70.5"/>
<text text-anchor="middle" x="960.687" y="-76.5" font-family="Helvetica,sans-Serif" font-size="10.00">stdexcept</text>
</g>
<!-- Node12&#45;&gt;Node19 -->
<g id="edge26" class="edge"><title>Node12&#45;&gt;Node19</title>
<path fill="none" stroke="midnightblue" d="M960.687,-130.435C960.687,-122.389 960.687,-109.739 960.687,-99.1846"/>
<polygon fill="midnightblue" stroke="midnightblue" points="964.187,-98.8717 960.687,-88.8718 957.187,-98.8718 964.187,-98.8717"/>
</g>
<!-- Node14 -->
<g id="node15" class="node"><title>Node14</title>
<polygon fill="white" stroke="#bfbfbf" points="1087.63,-5.5 1087.63,-23.5 1129.75,-23.5 1129.75,-5.5 1087.63,-5.5"/>
<text text-anchor="middle" x="1108.69" y="-11.5" font-family="Helvetica,sans-Serif" font-size="10.00">cstdio</text>
</g>
<!-- Node13&#45;&gt;Node14 -->
<g id="edge17" class="edge"><title>Node13&#45;&gt;Node14</title>
<path fill="none" stroke="midnightblue" d="M1108.69,-70.2639C1108.69,-61.0635 1108.69,-45.881 1108.69,-33.8326"/>
<polygon fill="midnightblue" stroke="midnightblue" points="1112.19,-33.5389 1108.69,-23.539 1105.19,-33.539 1112.19,-33.5389"/>
</g>
</g>
</svg>
