<?xml version="1.0" encoding="UTF-8" standalone="no"?>
<!DOCTYPE svg PUBLIC "-//W3C//DTD SVG 1.1//EN"
 "http://www.w3.org/Graphics/SVG/1.1/DTD/svg11.dtd">
<!-- Generated by graphviz version 2.38.0 (20140413.2041)
 -->
<!-- Title: ocra::PositionFeature::Pimpl Pages: 1 -->
<svg width="179pt" height="142pt"
 viewBox="0.00 0.00 179.17 142.00" xmlns="http://www.w3.org/2000/svg" xmlns:xlink="http://www.w3.org/1999/xlink">
<g id="graph0" class="graph" transform="scale(1 1) rotate(0) translate(4 138)">
<title>ocra::PositionFeature::Pimpl</title>
<polygon fill="white" stroke="none" points="-4,4 -4,-138 175.173,-138 175.173,4 -4,4"/>
<!-- Node1 -->
<g id="node1" class="node"><title>Node1</title>
<polygon fill="#bfbfbf" stroke="black" points="10.7686,-0.5 10.7686,-28.5 121.817,-28.5 121.817,-0.5 10.7686,-0.5"/>
<text text-anchor="start" x="18.7686" y="-16.5" font-family="Helvetica,sans-Serif" font-size="10.00">ocra::PositionFeature</text>
<text text-anchor="middle" x="66.293" y="-6.5" font-family="Helvetica,sans-Serif" font-size="10.00">::Pimpl</text>
</g>
<!-- Node2 -->
<g id="node2" class="node"><title>Node2</title>
<polygon fill="white" stroke="#bfbfbf" points="0,-115.5 0,-133.5 56.5859,-133.5 56.5859,-115.5 0,-115.5"/>
<text text-anchor="middle" x="28.293" y="-121.5" font-family="Helvetica,sans-Serif" font-size="10.00">VectorXd</text>
</g>
<!-- Node2&#45;&gt;Node1 -->
<g id="edge1" class="edge"><title>Node2&#45;&gt;Node1</title>
<path fill="none" stroke="#9a32cd" stroke-dasharray="5,2" d="M24.4739,-105.211C22.0299,-89.0918 20.7353,-65.3797 29.3721,-47 32.7405,-39.8317 38.6131,-33.6806 44.6968,-28.7662"/>
<polygon fill="#9a32cd" stroke="#9a32cd" points="21.098,-106.21 26.331,-115.422 27.985,-104.957 21.098,-106.21"/>
<text text-anchor="middle" x="57.2534" y="-84" font-family="Helvetica,sans-Serif" font-size="10.00"> error</text>
<text text-anchor="middle" x="57.2534" y="-74" font-family="Helvetica,sans-Serif" font-size="10.00">acceleration</text>
<text text-anchor="middle" x="57.2534" y="-64" font-family="Helvetica,sans-Serif" font-size="10.00">errorDot</text>
<text text-anchor="middle" x="57.2534" y="-54" font-family="Helvetica,sans-Serif" font-size="10.00">effort</text>
</g>
<!-- Node3 -->
<g id="node3" class="node"><title>Node3</title>
<polygon fill="white" stroke="#bfbfbf" points="77.5664,-115.5 77.5664,-133.5 133.02,-133.5 133.02,-115.5 77.5664,-115.5"/>
<text text-anchor="middle" x="105.293" y="-121.5" font-family="Helvetica,sans-Serif" font-size="10.00">MatrixXd</text>
</g>
<!-- Node3&#45;&gt;Node1 -->
<g id="edge2" class="edge"><title>Node3&#45;&gt;Node1</title>
<path fill="none" stroke="#9a32cd" stroke-dasharray="5,2" d="M101.226,-105.287C97.4381,-89.5508 91.1921,-66.3567 83.293,-47 80.7571,-40.786 77.3353,-34.2088 74.2263,-28.6807"/>
<polygon fill="#9a32cd" stroke="#9a32cd" points="97.8715,-106.315 103.539,-115.266 104.691,-104.734 97.8715,-106.315"/>
<text text-anchor="middle" x="135.233" y="-89" font-family="Helvetica,sans-Serif" font-size="10.00"> Minv</text>
<text text-anchor="middle" x="135.233" y="-79" font-family="Helvetica,sans-Serif" font-size="10.00">spaceTransform</text>
<text text-anchor="middle" x="135.233" y="-69" font-family="Helvetica,sans-Serif" font-size="10.00">M</text>
<text text-anchor="middle" x="135.233" y="-59" font-family="Helvetica,sans-Serif" font-size="10.00">jacobian</text>
<text text-anchor="middle" x="135.233" y="-49" font-family="Helvetica,sans-Serif" font-size="10.00">u</text>
</g>
</g>
</svg>
