<?xml version="1.0" encoding="UTF-8" standalone="no"?>
<!DOCTYPE svg PUBLIC "-//W3C//DTD SVG 1.1//EN"
 "http://www.w3.org/Graphics/SVG/1.1/DTD/svg11.dtd">
<!-- Generated by graphviz version 2.38.0 (20140413.2041)
 -->
<!-- Title: ocra::Solver Pages: 1 -->
<svg width="916pt" height="308pt"
 viewBox="0.00 0.00 916.47 308.00" xmlns="http://www.w3.org/2000/svg" xmlns:xlink="http://www.w3.org/1999/xlink">
<g id="graph0" class="graph" transform="scale(1 1) rotate(0) translate(4 304)">
<title>ocra::Solver</title>
<polygon fill="white" stroke="none" points="-4,4 -4,-304 912.466,-304 912.466,4 -4,4"/>
<!-- Node0 -->
<g id="node1" class="node"><title>Node0</title>
<polygon fill="#bfbfbf" stroke="black" points="491.117,-139.5 491.117,-157.5 560.472,-157.5 560.472,-139.5 491.117,-139.5"/>
<text text-anchor="middle" x="525.794" y="-145.5" font-family="Helvetica,sans-Serif" font-size="10.00">ocra::Solver</text>
</g>
<!-- Node11 -->
<g id="node12" class="node"><title>Node11</title>
<g id="a_node12"><a xlink:href="../../d6/d35/classocra_1_1CascadeQPSolver.html" target="_top" xlink:title="CascadeQPSolver class. ">
<polygon fill="white" stroke="black" points="596.472,-213.5 596.472,-231.5 719.742,-231.5 719.742,-213.5 596.472,-213.5"/>
<text text-anchor="middle" x="658.107" y="-219.5" font-family="Helvetica,sans-Serif" font-size="10.00">ocra::CascadeQPSolver</text>
</a>
</g>
</g>
<!-- Node0&#45;&gt;Node11 -->
<g id="edge11" class="edge"><title>Node0&#45;&gt;Node11</title>
<path fill="none" stroke="midnightblue" d="M543.285,-164.87C556.63,-177.303 576.437,-193.999 596.472,-204.5 603.28,-208.069 610.898,-211.031 618.375,-213.453"/>
<polygon fill="midnightblue" stroke="midnightblue" points="545.513,-162.157 535.867,-157.773 540.674,-167.215 545.513,-162.157"/>
</g>
<!-- Node12 -->
<g id="node13" class="node"><title>Node12</title>
<g id="a_node13"><a xlink:href="../../dc/d6e/classocra_1_1FSQPSolver.html" target="_top" xlink:title="FSQPSolver class. ">
<polygon fill="white" stroke="black" points="609.816,-176.5 609.816,-194.5 706.397,-194.5 706.397,-176.5 609.816,-176.5"/>
<text text-anchor="middle" x="658.107" y="-182.5" font-family="Helvetica,sans-Serif" font-size="10.00">ocra::FSQPSolver</text>
</a>
</g>
</g>
<!-- Node0&#45;&gt;Node12 -->
<g id="edge12" class="edge"><title>Node0&#45;&gt;Node12</title>
<path fill="none" stroke="midnightblue" d="M568.521,-160.347C586.857,-165.554 608.048,-171.571 625.106,-176.414"/>
<polygon fill="midnightblue" stroke="midnightblue" points="569.248,-156.916 558.672,-157.551 567.336,-163.65 569.248,-156.916"/>
</g>
<!-- Node13 -->
<g id="node14" class="node"><title>Node13</title>
<g id="a_node14"><a xlink:href="../../d2/d07/classocra_1_1NewtonSolver.html" target="_top" xlink:title="NewtonSolver class. ">
<polygon fill="white" stroke="black" points="606.477,-139.5 606.477,-157.5 709.737,-157.5 709.737,-139.5 606.477,-139.5"/>
<text text-anchor="middle" x="658.107" y="-145.5" font-family="Helvetica,sans-Serif" font-size="10.00">ocra::NewtonSolver</text>
</a>
</g>
</g>
<!-- Node0&#45;&gt;Node13 -->
<g id="edge13" class="edge"><title>Node0&#45;&gt;Node13</title>
<path fill="none" stroke="midnightblue" d="M570.811,-148.5C582.174,-148.5 594.499,-148.5 606.182,-148.5"/>
<polygon fill="midnightblue" stroke="midnightblue" points="570.692,-145 560.692,-148.5 570.692,-152 570.692,-145"/>
</g>
<!-- Node14 -->
<g id="node15" class="node"><title>Node14</title>
<g id="a_node15"><a xlink:href="../../d2/d5e/classocra_1_1OneLevelSolver.html" target="_top" xlink:title="A generic abstract class the solvers that can be used in the wOcra Controller. ">
<polygon fill="white" stroke="black" points="602.026,-102.5 602.026,-120.5 714.188,-120.5 714.188,-102.5 602.026,-102.5"/>
<text text-anchor="middle" x="658.107" y="-108.5" font-family="Helvetica,sans-Serif" font-size="10.00">ocra::OneLevelSolver</text>
</a>
</g>
</g>
<!-- Node0&#45;&gt;Node14 -->
<g id="edge14" class="edge"><title>Node0&#45;&gt;Node14</title>
<path fill="none" stroke="midnightblue" d="M568.521,-136.653C586.857,-131.446 608.048,-125.429 625.106,-120.586"/>
<polygon fill="midnightblue" stroke="midnightblue" points="567.336,-133.35 558.672,-139.449 569.248,-140.084 567.336,-133.35"/>
</g>
<!-- Node18 -->
<g id="node19" class="node"><title>Node18</title>
<g id="a_node19"><a xlink:href="../../d7/dab/classocra_1_1QuadraticSolver.html" target="_top" xlink:title="QuadraticSolver class. ">
<polygon fill="white" stroke="black" points="601.752,-37.5 601.752,-55.5 714.461,-55.5 714.461,-37.5 601.752,-37.5"/>
<text text-anchor="middle" x="658.107" y="-43.5" font-family="Helvetica,sans-Serif" font-size="10.00">ocra::QuadraticSolver</text>
</a>
</g>
</g>
<!-- Node0&#45;&gt;Node18 -->
<g id="edge18" class="edge"><title>Node0&#45;&gt;Node18</title>
<path fill="none" stroke="midnightblue" d="M545.968,-132.852C559.9,-121.54 579.252,-105.947 596.472,-92.5 613.134,-79.4877 632.654,-64.7721 644.951,-55.5651"/>
<polygon fill="midnightblue" stroke="midnightblue" points="543.61,-130.258 538.061,-139.284 548.027,-135.688 543.61,-130.258"/>
</g>
<!-- Node1 -->
<g id="node2" class="node"><title>Node1</title>
<g id="a_node2"><a xlink:href="../../d3/d16/classocra_1_1ObserverSubject.html" target="_top" xlink:title="ocra::ObserverSubject">
<polygon fill="white" stroke="black" points="339.63,-158.5 339.63,-176.5 455.117,-176.5 455.117,-158.5 339.63,-158.5"/>
<text text-anchor="middle" x="397.374" y="-164.5" font-family="Helvetica,sans-Serif" font-size="10.00">ocra::ObserverSubject</text>
</a>
</g>
</g>
<!-- Node1&#45;&gt;Node0 -->
<g id="edge1" class="edge"><title>Node1&#45;&gt;Node0</title>
<path fill="none" stroke="midnightblue" d="M465.33,-157.437C474.212,-156.102 482.995,-154.782 490.974,-153.583"/>
<polygon fill="midnightblue" stroke="midnightblue" points="464.666,-153.997 455.297,-158.945 465.706,-160.92 464.666,-153.997"/>
</g>
<!-- Node2 -->
<g id="node3" class="node"><title>Node2</title>
<g id="a_node3"><a xlink:href="../../d2/d45/classocra_1_1Observer.html" target="_top" xlink:title="ocra::Observer">
<polygon fill="white" stroke="black" points="221.497,-205.5 221.497,-223.5 303.63,-223.5 303.63,-205.5 221.497,-205.5"/>
<text text-anchor="middle" x="262.563" y="-211.5" font-family="Helvetica,sans-Serif" font-size="10.00">ocra::Observer</text>
</a>
</g>
</g>
<!-- Node2&#45;&gt;Node1 -->
<g id="edge2" class="edge"><title>Node2&#45;&gt;Node1</title>
<path fill="none" stroke="midnightblue" d="M298.773,-202.04C321.439,-194.018 350.381,-183.776 370.845,-176.534"/>
<polygon fill="midnightblue" stroke="midnightblue" points="297.43,-198.802 289.171,-205.438 299.765,-205.401 297.43,-198.802"/>
</g>
<!-- Node3 -->
<g id="node4" class="node"><title>Node3</title>
<g id="a_node4"><a xlink:href="../../d4/dee/classocra_1_1ObserverBase.html" target="_top" xlink:title="ocra::ObserverBase\l\&lt; EVT_RESIZE \&gt;">
<polygon fill="white" stroke="black" points="40.2856,-271.5 40.2856,-299.5 145.211,-299.5 145.211,-271.5 40.2856,-271.5"/>
<text text-anchor="start" x="48.2856" y="-287.5" font-family="Helvetica,sans-Serif" font-size="10.00">ocra::ObserverBase</text>
<text text-anchor="middle" x="92.7485" y="-277.5" font-family="Helvetica,sans-Serif" font-size="10.00">&lt; EVT_RESIZE &gt;</text>
</a>
</g>
</g>
<!-- Node3&#45;&gt;Node2 -->
<g id="edge3" class="edge"><title>Node3&#45;&gt;Node2</title>
<path fill="none" stroke="midnightblue" d="M155.394,-272.918C165.632,-270.018 176.001,-266.563 185.497,-262.5 209.903,-252.058 235.439,-234.317 249.841,-223.576"/>
<polygon fill="midnightblue" stroke="midnightblue" points="154.402,-269.56 145.65,-275.531 156.215,-276.321 154.402,-269.56"/>
</g>
<!-- Node4 -->
<g id="node5" class="node"><title>Node4</title>
<g id="a_node5"><a xlink:href="../../d4/dee/classocra_1_1ObserverBase.html" target="_top" xlink:title="ocra::ObserverBase\l\&lt; EVT_CHANGE_DEPENDENCIES \&gt;">
<polygon fill="white" stroke="black" points="0,-224.5 0,-252.5 185.497,-252.5 185.497,-224.5 0,-224.5"/>
<text text-anchor="start" x="8" y="-240.5" font-family="Helvetica,sans-Serif" font-size="10.00">ocra::ObserverBase</text>
<text text-anchor="middle" x="92.7485" y="-230.5" font-family="Helvetica,sans-Serif" font-size="10.00">&lt; EVT_CHANGE_DEPENDENCIES &gt;</text>
</a>
</g>
</g>
<!-- Node4&#45;&gt;Node2 -->
<g id="edge4" class="edge"><title>Node4&#45;&gt;Node2</title>
<path fill="none" stroke="midnightblue" d="M195.441,-223.957C204.506,-222.66 213.28,-221.405 221.314,-220.256"/>
<polygon fill="midnightblue" stroke="midnightblue" points="194.916,-220.496 185.512,-225.376 195.907,-227.425 194.916,-220.496"/>
</g>
<!-- Node5 -->
<g id="node6" class="node"><title>Node5</title>
<g id="a_node6"><a xlink:href="../../d4/dee/classocra_1_1ObserverBase.html" target="_top" xlink:title="ocra::ObserverBase\l\&lt; EVT_CHANGE_VALUE \&gt;">
<polygon fill="white" stroke="black" points="23.4253,-177.5 23.4253,-205.5 162.072,-205.5 162.072,-177.5 23.4253,-177.5"/>
<text text-anchor="start" x="31.4253" y="-193.5" font-family="Helvetica,sans-Serif" font-size="10.00">ocra::ObserverBase</text>
<text text-anchor="middle" x="92.7485" y="-183.5" font-family="Helvetica,sans-Serif" font-size="10.00">&lt; EVT_CHANGE_VALUE &gt;</text>
</a>
</g>
</g>
<!-- Node5&#45;&gt;Node2 -->
<g id="edge5" class="edge"><title>Node5&#45;&gt;Node2</title>
<path fill="none" stroke="midnightblue" d="M172.838,-202.34C189.55,-204.63 206.517,-206.956 221.077,-208.951"/>
<polygon fill="midnightblue" stroke="midnightblue" points="172.872,-198.812 162.489,-200.921 171.922,-205.747 172.872,-198.812"/>
</g>
<!-- Node6 -->
<g id="node7" class="node"><title>Node6</title>
<g id="a_node7"><a xlink:href="../../dc/d77/classocra_1_1Subject.html" target="_top" xlink:title="ocra::Subject">
<polygon fill="white" stroke="black" points="225.381,-111.5 225.381,-129.5 299.746,-129.5 299.746,-111.5 225.381,-111.5"/>
<text text-anchor="middle" x="262.563" y="-117.5" font-family="Helvetica,sans-Serif" font-size="10.00">ocra::Subject</text>
</a>
</g>
</g>
<!-- Node6&#45;&gt;Node1 -->
<g id="edge6" class="edge"><title>Node6&#45;&gt;Node1</title>
<path fill="none" stroke="midnightblue" d="M295.752,-133.238C309.243,-138.455 325.134,-144.442 339.63,-149.5 348.412,-152.564 358.033,-155.699 366.817,-158.475"/>
<polygon fill="midnightblue" stroke="midnightblue" points="296.995,-129.966 286.406,-129.599 294.455,-136.489 296.995,-129.966"/>
</g>
<!-- Node7 -->
<g id="node8" class="node"><title>Node7</title>
<g id="a_node8"><a xlink:href="../../dc/d29/classocra_1_1SubjectBase.html" target="_top" xlink:title="ocra::SubjectBase\&lt;\l EVT_RESIZE \&gt;">
<polygon fill="white" stroke="black" points="41.25,-130.5 41.25,-158.5 144.247,-158.5 144.247,-130.5 41.25,-130.5"/>
<text text-anchor="start" x="49.25" y="-146.5" font-family="Helvetica,sans-Serif" font-size="10.00">ocra::SubjectBase&lt;</text>
<text text-anchor="middle" x="92.7485" y="-136.5" font-family="Helvetica,sans-Serif" font-size="10.00"> EVT_RESIZE &gt;</text>
</a>
</g>
</g>
<!-- Node7&#45;&gt;Node6 -->
<g id="edge7" class="edge"><title>Node7&#45;&gt;Node6</title>
<path fill="none" stroke="midnightblue" d="M154.534,-135.807C178.262,-132.413 204.665,-128.637 225.31,-125.685"/>
<polygon fill="midnightblue" stroke="midnightblue" points="153.958,-132.354 144.554,-137.234 154.949,-139.283 153.958,-132.354"/>
</g>
<!-- Node8 -->
<g id="node9" class="node"><title>Node8</title>
<g id="a_node9"><a xlink:href="../../dc/d29/classocra_1_1SubjectBase.html" target="_top" xlink:title="ocra::SubjectBase\&lt;\l EVT_CHANGE_DEPENDENCIES \&gt;">
<polygon fill="white" stroke="black" points="2.91992,-83.5 2.91992,-111.5 182.577,-111.5 182.577,-83.5 2.91992,-83.5"/>
<text text-anchor="start" x="10.9199" y="-99.5" font-family="Helvetica,sans-Serif" font-size="10.00">ocra::SubjectBase&lt;</text>
<text text-anchor="middle" x="92.7485" y="-89.5" font-family="Helvetica,sans-Serif" font-size="10.00"> EVT_CHANGE_DEPENDENCIES &gt;</text>
</a>
</g>
</g>
<!-- Node8&#45;&gt;Node6 -->
<g id="edge8" class="edge"><title>Node8&#45;&gt;Node6</title>
<path fill="none" stroke="midnightblue" d="M193.112,-111.118C204.461,-112.674 215.419,-114.176 225.116,-115.505"/>
<polygon fill="midnightblue" stroke="midnightblue" points="193.443,-107.631 183.061,-109.741 192.493,-114.566 193.443,-107.631"/>
</g>
<!-- Node9 -->
<g id="node10" class="node"><title>Node9</title>
<g id="a_node10"><a xlink:href="../../dc/d29/classocra_1_1SubjectBase.html" target="_top" xlink:title="ocra::SubjectBase\&lt;\l EVT_CHANGE_VALUE \&gt;">
<polygon fill="white" stroke="black" points="26.3452,-36.5 26.3452,-64.5 159.152,-64.5 159.152,-36.5 26.3452,-36.5"/>
<text text-anchor="start" x="34.3452" y="-52.5" font-family="Helvetica,sans-Serif" font-size="10.00">ocra::SubjectBase&lt;</text>
<text text-anchor="middle" x="92.7485" y="-42.5" font-family="Helvetica,sans-Serif" font-size="10.00"> EVT_CHANGE_VALUE &gt;</text>
</a>
</g>
</g>
<!-- Node9&#45;&gt;Node6 -->
<g id="edge9" class="edge"><title>Node9&#45;&gt;Node6</title>
<path fill="none" stroke="midnightblue" d="M168.869,-67.2914C174.566,-69.1824 180.167,-71.2493 185.497,-73.5 209.665,-83.7052 235.074,-100.919 249.553,-111.441"/>
<polygon fill="midnightblue" stroke="midnightblue" points="169.813,-63.9194 159.224,-64.2737 167.723,-70.6 169.813,-63.9194"/>
</g>
<!-- Node10 -->
<g id="node11" class="node"><title>Node10</title>
<g id="a_node11"><a xlink:href="../../db/de3/classocra_1_1NamedInstance.html" target="_top" xlink:title="ocra::NamedInstance">
<polygon fill="white" stroke="black" points="341.849,-121.5 341.849,-139.5 452.898,-139.5 452.898,-121.5 341.849,-121.5"/>
<text text-anchor="middle" x="397.374" y="-127.5" font-family="Helvetica,sans-Serif" font-size="10.00">ocra::NamedInstance</text>
</a>
</g>
</g>
<!-- Node10&#45;&gt;Node0 -->
<g id="edge10" class="edge"><title>Node10&#45;&gt;Node0</title>
<path fill="none" stroke="midnightblue" d="M463.056,-139.71C472.64,-141.074 482.179,-142.432 490.791,-143.659"/>
<polygon fill="midnightblue" stroke="midnightblue" points="463.482,-136.235 453.088,-138.29 462.495,-143.165 463.482,-136.235"/>
</g>
<!-- Node15 -->
<g id="node16" class="node"><title>Node15</title>
<g id="a_node16"><a xlink:href="../../df/d1b/classocra_1_1OneLevelSolverWithQLD.html" target="_top" xlink:title="Solver class that only consider one level of importance for all tasks using QLD. ">
<polygon fill="white" stroke="black" points="755.742,-168.5 755.742,-186.5 908.466,-186.5 908.466,-168.5 755.742,-168.5"/>
<text text-anchor="middle" x="832.104" y="-174.5" font-family="Helvetica,sans-Serif" font-size="10.00">ocra::OneLevelSolverWithQLD</text>
</a>
</g>
</g>
<!-- Node14&#45;&gt;Node15 -->
<g id="edge15" class="edge"><title>Node14&#45;&gt;Node15</title>
<path fill="none" stroke="midnightblue" d="M707.871,-124.04C711.973,-125.672 715.985,-127.488 719.742,-129.5 738.103,-139.332 737.123,-150.168 755.742,-159.5 763.078,-163.177 771.197,-166.123 779.309,-168.479"/>
<polygon fill="midnightblue" stroke="midnightblue" points="708.804,-120.656 698.21,-120.556 706.43,-127.241 708.804,-120.656"/>
</g>
<!-- Node16 -->
<g id="node17" class="node"><title>Node16</title>
<g id="a_node17"><a xlink:href="../../d0/d12/classocra_1_1OneLevelSolverWithQPOASES.html" target="_top" xlink:title="Solver class that only consider one level of importance for all tasks using QPOASES. ">
<polygon fill="white" stroke="black" points="766.023,-121.5 766.023,-149.5 898.185,-149.5 898.185,-121.5 766.023,-121.5"/>
<text text-anchor="start" x="774.023" y="-137.5" font-family="Helvetica,sans-Serif" font-size="10.00">ocra::OneLevelSolverWith</text>
<text text-anchor="middle" x="832.104" y="-127.5" font-family="Helvetica,sans-Serif" font-size="10.00">QPOASES</text>
</a>
</g>
</g>
<!-- Node14&#45;&gt;Node16 -->
<g id="edge16" class="edge"><title>Node14&#45;&gt;Node16</title>
<path fill="none" stroke="midnightblue" d="M724.656,-120.647C738.184,-122.534 752.429,-124.522 765.943,-126.408"/>
<polygon fill="midnightblue" stroke="midnightblue" points="724.862,-117.142 714.475,-119.226 723.895,-124.074 724.862,-117.142"/>
</g>
<!-- Node17 -->
<g id="node18" class="node"><title>Node17</title>
<g id="a_node18"><a xlink:href="../../d9/d45/classocra_1_1OneLevelSolverWithQuadProg.html" target="_top" xlink:title="Solver class that only consider one level of importance for all tasks using Quadprog++. ">
<polygon fill="white" stroke="black" points="766.023,-74.5 766.023,-102.5 898.185,-102.5 898.185,-74.5 766.023,-74.5"/>
<text text-anchor="start" x="774.023" y="-90.5" font-family="Helvetica,sans-Serif" font-size="10.00">ocra::OneLevelSolverWith</text>
<text text-anchor="middle" x="832.104" y="-80.5" font-family="Helvetica,sans-Serif" font-size="10.00">QuadProg</text>
</a>
</g>
</g>
<!-- Node14&#45;&gt;Node17 -->
<g id="edge17" class="edge"><title>Node14&#45;&gt;Node17</title>
<path fill="none" stroke="midnightblue" d="M724.656,-102.735C738.184,-100.926 752.429,-99.0207 765.943,-97.2135"/>
<polygon fill="midnightblue" stroke="midnightblue" points="723.922,-99.3014 714.475,-104.096 724.85,-106.24 723.922,-99.3014"/>
</g>
<!-- Node19 -->
<g id="node20" class="node"><title>Node19</title>
<g id="a_node20"><a xlink:href="../../d4/d02/classocra_1_1CmlQuadraticSolver.html" target="_top" xlink:title="CmlQuadraticSolver class. ">
<polygon fill="white" stroke="black" points="766.863,-37.5 766.863,-55.5 897.345,-55.5 897.345,-37.5 766.863,-37.5"/>
<text text-anchor="middle" x="832.104" y="-43.5" font-family="Helvetica,sans-Serif" font-size="10.00">ocra::CmlQuadraticSolver</text>
</a>
</g>
</g>
<!-- Node18&#45;&gt;Node19 -->
<g id="edge19" class="edge"><title>Node18&#45;&gt;Node19</title>
<path fill="none" stroke="midnightblue" d="M724.842,-46.5C738.62,-46.5 753.133,-46.5 766.856,-46.5"/>
<polygon fill="midnightblue" stroke="midnightblue" points="724.475,-43.0001 714.475,-46.5 724.475,-50.0001 724.475,-43.0001"/>
</g>
<!-- Node20 -->
<g id="node21" class="node"><title>Node20</title>
<g id="a_node21"><a xlink:href="../../d2/dab/classocra_1_1QLDSolver.html" target="_top" xlink:title="QLDSolver class. ">
<polygon fill="white" stroke="black" points="787.146,-0.5 787.146,-18.5 877.062,-18.5 877.062,-0.5 787.146,-0.5"/>
<text text-anchor="middle" x="832.104" y="-6.5" font-family="Helvetica,sans-Serif" font-size="10.00">ocra::QLDSolver</text>
</a>
</g>
</g>
<!-- Node18&#45;&gt;Node20 -->
<g id="edge20" class="edge"><title>Node18&#45;&gt;Node20</title>
<path fill="none" stroke="midnightblue" d="M711.214,-35.2907C736.177,-29.9206 765.676,-23.5749 789.165,-18.5218"/>
<polygon fill="midnightblue" stroke="midnightblue" points="710.222,-31.9239 701.182,-37.4488 711.695,-38.7673 710.222,-31.9239"/>
</g>
</g>
</svg>
