<?xml version="1.0" encoding="UTF-8" standalone="no"?>
<!DOCTYPE svg PUBLIC "-//W3C//DTD SVG 1.1//EN"
 "http://www.w3.org/Graphics/SVG/1.1/DTD/svg11.dtd">
<!-- Generated by graphviz version 2.38.0 (20140413.2041)
 -->
<!-- Title: QuadraticFunction.h Pages: 1 -->
<svg width="1704pt" height="332pt"
 viewBox="0.00 0.00 1704.15 332.00" xmlns="http://www.w3.org/2000/svg" xmlns:xlink="http://www.w3.org/1999/xlink">
<g id="graph0" class="graph" transform="scale(1 1) rotate(0) translate(4 328)">
<title>QuadraticFunction.h</title>
<polygon fill="white" stroke="none" points="-4,4 -4,-328 1700.15,-328 1700.15,4 -4,4"/>
<!-- Node0 -->
<g id="node1" class="node"><title>Node0</title>
<polygon fill="#bfbfbf" stroke="black" points="1520.66,-305.5 1520.66,-323.5 1626.71,-323.5 1626.71,-305.5 1520.66,-305.5"/>
<text text-anchor="middle" x="1573.69" y="-311.5" font-family="Helvetica,sans-Serif" font-size="10.00">QuadraticFunction.h</text>
</g>
<!-- Node1 -->
<g id="node2" class="node"><title>Node1</title>
<g id="a_node2"><a xlink:href="../../df/df5/Function_8h.html" target="_top" xlink:title="Declaration file of the Function class. ">
<polygon fill="white" stroke="black" points="1143.61,-250.5 1143.61,-268.5 1255.77,-268.5 1255.77,-250.5 1143.61,-250.5"/>
<text text-anchor="middle" x="1199.69" y="-256.5" font-family="Helvetica,sans-Serif" font-size="10.00">ocra/optim/Function.h</text>
</a>
</g>
</g>
<!-- Node0&#45;&gt;Node1 -->
<g id="edge1" class="edge"><title>Node0&#45;&gt;Node1</title>
<path fill="none" stroke="midnightblue" d="M1520.5,-305.963C1453.57,-296.478 1338.61,-280.186 1266.01,-269.898"/>
<polygon fill="midnightblue" stroke="midnightblue" points="1266.45,-266.426 1256.05,-268.488 1265.46,-273.356 1266.45,-266.426"/>
</g>
<!-- Node6 -->
<g id="node7" class="node"><title>Node6</title>
<g id="a_node7"><a xlink:href="../../de/df3/ocra__assert_8h.html" target="_top" xlink:title="ocra/optim/ocra_assert.h">
<polygon fill="white" stroke="black" points="1316.66,-70.5 1316.66,-88.5 1442.71,-88.5 1442.71,-70.5 1316.66,-70.5"/>
<text text-anchor="middle" x="1379.69" y="-76.5" font-family="Helvetica,sans-Serif" font-size="10.00">ocra/optim/ocra_assert.h</text>
</a>
</g>
</g>
<!-- Node0&#45;&gt;Node6 -->
<g id="edge51" class="edge"><title>Node0&#45;&gt;Node6</title>
<path fill="none" stroke="midnightblue" d="M1573.26,-305.441C1571.75,-283.86 1565.07,-223.775 1536.69,-185 1503.71,-139.962 1445.04,-108.567 1409.51,-92.6172"/>
<polygon fill="midnightblue" stroke="midnightblue" points="1410.71,-89.3218 1400.14,-88.5295 1407.91,-95.7374 1410.71,-89.3218"/>
</g>
<!-- Node33 -->
<g id="node34" class="node"><title>Node33</title>
<g id="a_node34"><a xlink:href="../../df/d0a/Macros_8h.html" target="_top" xlink:title="ocra/util/Macros.h">
<polygon fill="white" stroke="black" points="1601.23,-250.5 1601.23,-268.5 1696.15,-268.5 1696.15,-250.5 1601.23,-250.5"/>
<text text-anchor="middle" x="1648.69" y="-256.5" font-family="Helvetica,sans-Serif" font-size="10.00">ocra/util/Macros.h</text>
</a>
</g>
</g>
<!-- Node0&#45;&gt;Node33 -->
<g id="edge52" class="edge"><title>Node0&#45;&gt;Node33</title>
<path fill="none" stroke="midnightblue" d="M1585.08,-305.45C1596.64,-297.279 1614.78,-284.46 1628.73,-274.6"/>
<polygon fill="midnightblue" stroke="midnightblue" points="1631.04,-277.255 1637.19,-268.625 1627,-271.538 1631.04,-277.255"/>
</g>
<!-- Node2 -->
<g id="node3" class="node"><title>Node2</title>
<g id="a_node3"><a xlink:href="../../de/d94/IFunction_8h.html" target="_top" xlink:title="Declaration file of the IFunction interface. ">
<polygon fill="white" stroke="black" points="1220.22,-130.5 1220.22,-148.5 1335.15,-148.5 1335.15,-130.5 1220.22,-130.5"/>
<text text-anchor="middle" x="1277.69" y="-136.5" font-family="Helvetica,sans-Serif" font-size="10.00">ocra/optim/IFunction.h</text>
</a>
</g>
</g>
<!-- Node1&#45;&gt;Node2 -->
<g id="edge2" class="edge"><title>Node1&#45;&gt;Node2</title>
<path fill="none" stroke="midnightblue" d="M1255.86,-259.06C1337.68,-258.538 1483.55,-252.113 1516.69,-214 1567.24,-155.859 1432.83,-143.007 1345.62,-140.593"/>
<polygon fill="midnightblue" stroke="midnightblue" points="1345.58,-137.091 1335.5,-140.353 1345.42,-144.089 1345.58,-137.091"/>
</g>
<!-- Node11 -->
<g id="node12" class="node"><title>Node11</title>
<g id="a_node12"><a xlink:href="../../d9/d54/IFunctionProperties_8h.html" target="_top" xlink:title="ocra/optim/IFunctionProperties.h">
<polygon fill="white" stroke="black" points="1041.43,-190.5 1041.43,-208.5 1201.94,-208.5 1201.94,-190.5 1041.43,-190.5"/>
<text text-anchor="middle" x="1121.69" y="-196.5" font-family="Helvetica,sans-Serif" font-size="10.00">ocra/optim/IFunctionProperties.h</text>
</a>
</g>
</g>
<!-- Node1&#45;&gt;Node11 -->
<g id="edge11" class="edge"><title>Node1&#45;&gt;Node11</title>
<path fill="none" stroke="midnightblue" d="M1188.84,-250.435C1176.52,-241.276 1156.18,-226.152 1141.11,-214.944"/>
<polygon fill="midnightblue" stroke="midnightblue" points="1143.06,-212.03 1132.95,-208.872 1138.88,-217.647 1143.06,-212.03"/>
</g>
<!-- Node13 -->
<g id="node14" class="node"><title>Node13</title>
<g id="a_node14"><a xlink:href="../../db/d47/AbilitySet_8h.html" target="_top" xlink:title="ocra/optim/AbilitySet.h">
<polygon fill="white" stroke="black" points="1219.94,-190.5 1219.94,-208.5 1335.43,-208.5 1335.43,-190.5 1219.94,-190.5"/>
<text text-anchor="middle" x="1277.69" y="-196.5" font-family="Helvetica,sans-Serif" font-size="10.00">ocra/optim/AbilitySet.h</text>
</a>
</g>
</g>
<!-- Node1&#45;&gt;Node13 -->
<g id="edge14" class="edge"><title>Node1&#45;&gt;Node13</title>
<path fill="none" stroke="midnightblue" d="M1210.53,-250.435C1222.85,-241.276 1243.19,-226.152 1258.26,-214.944"/>
<polygon fill="midnightblue" stroke="midnightblue" points="1260.49,-217.647 1266.43,-208.872 1256.32,-212.03 1260.49,-217.647"/>
</g>
<!-- Node14 -->
<g id="node15" class="node"><title>Node14</title>
<g id="a_node15"><a xlink:href="../../d1/d87/CoupledInputOutputSize_8h.html" target="_top" xlink:title="ocra/optim/CoupledInputOutput\lSize.h">
<polygon fill="white" stroke="black" points="1353.2,-185.5 1353.2,-213.5 1508.17,-213.5 1508.17,-185.5 1353.2,-185.5"/>
<text text-anchor="start" x="1361.2" y="-201.5" font-family="Helvetica,sans-Serif" font-size="10.00">ocra/optim/CoupledInputOutput</text>
<text text-anchor="middle" x="1430.69" y="-191.5" font-family="Helvetica,sans-Serif" font-size="10.00">Size.h</text>
</a>
</g>
</g>
<!-- Node1&#45;&gt;Node14 -->
<g id="edge17" class="edge"><title>Node1&#45;&gt;Node14</title>
<path fill="none" stroke="midnightblue" d="M1231.81,-250.435C1267.19,-241.551 1324.93,-227.055 1369.1,-215.964"/>
<polygon fill="midnightblue" stroke="midnightblue" points="1370.03,-219.34 1378.87,-213.51 1368.32,-212.55 1370.03,-219.34"/>
</g>
<!-- Node15 -->
<g id="node16" class="node"><title>Node15</title>
<g id="a_node16"><a xlink:href="../../d7/d90/Variable_8h.html" target="_top" xlink:title="Declaration file of the Variable class. ">
<polygon fill="white" stroke="black" points="751.81,-190.5 751.81,-208.5 861.564,-208.5 861.564,-190.5 751.81,-190.5"/>
<text text-anchor="middle" x="806.687" y="-196.5" font-family="Helvetica,sans-Serif" font-size="10.00">ocra/optim/Variable.h</text>
</a>
</g>
</g>
<!-- Node1&#45;&gt;Node15 -->
<g id="edge18" class="edge"><title>Node1&#45;&gt;Node15</title>
<path fill="none" stroke="midnightblue" d="M1143.32,-252.153C1077.64,-244.462 965.962,-230.469 870.687,-214 864.809,-212.984 858.648,-211.816 852.569,-210.602"/>
<polygon fill="midnightblue" stroke="midnightblue" points="852.977,-207.113 842.478,-208.534 851.571,-213.971 852.977,-207.113"/>
</g>
<!-- Node16 -->
<g id="node17" class="node"><title>Node16</title>
<g id="a_node17"><a xlink:href="../../d8/ddc/ObserverSubject_8h.html" target="_top" xlink:title="Declaration file of the Observer, Subject and ObserverSubject classes. ">
<polygon fill="white" stroke="black" points="403.547,-130.5 403.547,-148.5 551.827,-148.5 551.827,-130.5 403.547,-130.5"/>
<text text-anchor="middle" x="477.687" y="-136.5" font-family="Helvetica,sans-Serif" font-size="10.00">ocra/optim/ObserverSubject.h</text>
</a>
</g>
</g>
<!-- Node1&#45;&gt;Node16 -->
<g id="edge48" class="edge"><title>Node1&#45;&gt;Node16</title>
<path fill="none" stroke="midnightblue" d="M1143.32,-256.16C1056.6,-251.854 885.521,-240.554 742.687,-214 657.933,-198.243 560.906,-168.149 511.081,-151.781"/>
<polygon fill="midnightblue" stroke="midnightblue" points="512.069,-148.421 501.475,-148.603 509.87,-155.067 512.069,-148.421"/>
</g>
<!-- Node32 -->
<g id="node33" class="node"><title>Node32</title>
<g id="a_node33"><a xlink:href="../../df/d97/NamedInstance_8h.html" target="_top" xlink:title="ocra/optim/NamedInstance.h">
<polygon fill="white" stroke="black" points="879.766,-190.5 879.766,-208.5 1023.61,-208.5 1023.61,-190.5 879.766,-190.5"/>
<text text-anchor="middle" x="951.687" y="-196.5" font-family="Helvetica,sans-Serif" font-size="10.00">ocra/optim/NamedInstance.h</text>
</a>
</g>
</g>
<!-- Node1&#45;&gt;Node32 -->
<g id="edge49" class="edge"><title>Node1&#45;&gt;Node32</title>
<path fill="none" stroke="midnightblue" d="M1165.46,-250.496C1121.3,-240.168 1044.39,-222.181 995.86,-210.831"/>
<polygon fill="midnightblue" stroke="midnightblue" points="996.491,-207.384 985.957,-208.515 994.897,-214.2 996.491,-207.384"/>
</g>
<!-- Node3 -->
<g id="node4" class="node"><title>Node3</title>
<g id="a_node4"><a xlink:href="../../d5/d55/MathTypes_8h.html" target="_top" xlink:title="Declaration file of the OptimizationVariable class. ">
<polygon fill="white" stroke="black" points="1461.16,-70.5 1461.16,-88.5 1572.21,-88.5 1572.21,-70.5 1461.16,-70.5"/>
<text text-anchor="middle" x="1516.69" y="-76.5" font-family="Helvetica,sans-Serif" font-size="10.00">ocra/util/MathTypes.h</text>
</a>
</g>
</g>
<!-- Node2&#45;&gt;Node3 -->
<g id="edge3" class="edge"><title>Node2&#45;&gt;Node3</title>
<path fill="none" stroke="midnightblue" d="M1310.92,-130.435C1353.34,-120.141 1426.82,-102.31 1473.53,-90.9742"/>
<polygon fill="midnightblue" stroke="midnightblue" points="1474.46,-94.3491 1483.35,-88.5894 1472.81,-87.5466 1474.46,-94.3491"/>
</g>
<!-- Node2&#45;&gt;Node6 -->
<g id="edge6" class="edge"><title>Node2&#45;&gt;Node6</title>
<path fill="none" stroke="midnightblue" d="M1291.87,-130.435C1308.6,-120.923 1336.64,-104.976 1356.54,-93.6645"/>
<polygon fill="midnightblue" stroke="midnightblue" points="1358.33,-96.6687 1365.3,-88.6831 1354.87,-90.5837 1358.33,-96.6687"/>
</g>
<!-- Node8 -->
<g id="node9" class="node"><title>Node8</title>
<polygon fill="white" stroke="#bfbfbf" points="1244.51,-70.5 1244.51,-88.5 1298.86,-88.5 1298.86,-70.5 1244.51,-70.5"/>
<text text-anchor="middle" x="1271.69" y="-76.5" font-family="Helvetica,sans-Serif" font-size="10.00">iostream</text>
</g>
<!-- Node2&#45;&gt;Node8 -->
<g id="edge8" class="edge"><title>Node2&#45;&gt;Node8</title>
<path fill="none" stroke="midnightblue" d="M1276.85,-130.435C1276.01,-122.304 1274.68,-109.469 1273.59,-98.8485"/>
<polygon fill="midnightblue" stroke="midnightblue" points="1277.06,-98.4585 1272.55,-88.8718 1270.1,-99.1789 1277.06,-98.4585"/>
</g>
<!-- Node9 -->
<g id="node10" class="node"><title>Node9</title>
<polygon fill="white" stroke="#bfbfbf" points="1106.07,-70.5 1106.07,-88.5 1149.3,-88.5 1149.3,-70.5 1106.07,-70.5"/>
<text text-anchor="middle" x="1127.69" y="-76.5" font-family="Helvetica,sans-Serif" font-size="10.00">vector</text>
</g>
<!-- Node2&#45;&gt;Node9 -->
<g id="edge9" class="edge"><title>Node2&#45;&gt;Node9</title>
<path fill="none" stroke="midnightblue" d="M1255.18,-130.485C1231.15,-121.834 1192.02,-107.479 1158.69,-94 1157.49,-93.5172 1156.28,-93.0181 1155.05,-92.5088"/>
<polygon fill="midnightblue" stroke="midnightblue" points="1156.22,-89.2048 1145.65,-88.5143 1153.48,-95.6471 1156.22,-89.2048"/>
</g>
<!-- Node10 -->
<g id="node11" class="node"><title>Node10</title>
<polygon fill="white" stroke="#bfbfbf" points="1167.29,-70.5 1167.29,-88.5 1226.09,-88.5 1226.09,-70.5 1167.29,-70.5"/>
<text text-anchor="middle" x="1196.69" y="-76.5" font-family="Helvetica,sans-Serif" font-size="10.00">stdexcept</text>
</g>
<!-- Node2&#45;&gt;Node10 -->
<g id="edge10" class="edge"><title>Node2&#45;&gt;Node10</title>
<path fill="none" stroke="midnightblue" d="M1266.42,-130.435C1253.56,-121.224 1232.27,-105.98 1216.59,-94.753"/>
<polygon fill="midnightblue" stroke="midnightblue" points="1218.28,-91.6594 1208.12,-88.6831 1214.21,-97.3507 1218.28,-91.6594"/>
</g>
<!-- Node4 -->
<g id="node5" class="node"><title>Node4</title>
<polygon fill="white" stroke="#bfbfbf" points="1449.06,-5.5 1449.06,-23.5 1522.32,-23.5 1522.32,-5.5 1449.06,-5.5"/>
<text text-anchor="middle" x="1485.69" y="-11.5" font-family="Helvetica,sans-Serif" font-size="10.00">Eigen/Dense</text>
</g>
<!-- Node3&#45;&gt;Node4 -->
<g id="edge4" class="edge"><title>Node3&#45;&gt;Node4</title>
<path fill="none" stroke="midnightblue" d="M1512.63,-70.2639C1507.97,-60.779 1500.17,-44.9361 1494.16,-32.724"/>
<polygon fill="midnightblue" stroke="midnightblue" points="1497.2,-30.9663 1489.64,-23.539 1490.92,-34.0569 1497.2,-30.9663"/>
</g>
<!-- Node5 -->
<g id="node6" class="node"><title>Node5</title>
<polygon fill="white" stroke="#bfbfbf" points="1540.07,-5.5 1540.07,-23.5 1583.3,-23.5 1583.3,-5.5 1540.07,-5.5"/>
<text text-anchor="middle" x="1561.69" y="-11.5" font-family="Helvetica,sans-Serif" font-size="10.00">cmath</text>
</g>
<!-- Node3&#45;&gt;Node5 -->
<g id="edge5" class="edge"><title>Node3&#45;&gt;Node5</title>
<path fill="none" stroke="midnightblue" d="M1522.57,-70.2639C1529.48,-60.5893 1541.12,-44.2999 1549.9,-31.9957"/>
<polygon fill="midnightblue" stroke="midnightblue" points="1552.98,-33.7107 1555.94,-23.539 1547.28,-29.642 1552.98,-33.7107"/>
</g>
<!-- Node7 -->
<g id="node8" class="node"><title>Node7</title>
<polygon fill="white" stroke="#bfbfbf" points="1358.63,-5.5 1358.63,-23.5 1400.75,-23.5 1400.75,-5.5 1358.63,-5.5"/>
<text text-anchor="middle" x="1379.69" y="-11.5" font-family="Helvetica,sans-Serif" font-size="10.00">cstdio</text>
</g>
<!-- Node6&#45;&gt;Node7 -->
<g id="edge7" class="edge"><title>Node6&#45;&gt;Node7</title>
<path fill="none" stroke="midnightblue" d="M1379.69,-70.2639C1379.69,-61.0635 1379.69,-45.881 1379.69,-33.8326"/>
<polygon fill="midnightblue" stroke="midnightblue" points="1383.19,-33.5389 1379.69,-23.539 1376.19,-33.539 1383.19,-33.5389"/>
</g>
<!-- Node11&#45;&gt;Node9 -->
<g id="edge13" class="edge"><title>Node11&#45;&gt;Node9</title>
<path fill="none" stroke="midnightblue" d="M1122.1,-190.389C1123.05,-171.611 1125.44,-124.768 1126.76,-98.7111"/>
<polygon fill="midnightblue" stroke="midnightblue" points="1130.26,-98.8322 1127.27,-88.6674 1123.27,-98.4767 1130.26,-98.8322"/>
</g>
<!-- Node12 -->
<g id="node13" class="node"><title>Node12</title>
<polygon fill="white" stroke="#bfbfbf" points="1049.46,-130.5 1049.46,-148.5 1089.91,-148.5 1089.91,-130.5 1049.46,-130.5"/>
<text text-anchor="middle" x="1069.69" y="-136.5" font-family="Helvetica,sans-Serif" font-size="10.00">string</text>
</g>
<!-- Node11&#45;&gt;Node12 -->
<g id="edge12" class="edge"><title>Node11&#45;&gt;Node12</title>
<path fill="none" stroke="midnightblue" d="M1114.46,-190.435C1106.63,-181.704 1093.94,-167.552 1084.07,-156.54"/>
<polygon fill="midnightblue" stroke="midnightblue" points="1086.47,-153.981 1077.19,-148.872 1081.26,-158.654 1086.47,-153.981"/>
</g>
<!-- Node13&#45;&gt;Node2 -->
<g id="edge15" class="edge"><title>Node13&#45;&gt;Node2</title>
<path fill="none" stroke="midnightblue" d="M1277.69,-190.435C1277.69,-182.389 1277.69,-169.739 1277.69,-159.185"/>
<polygon fill="midnightblue" stroke="midnightblue" points="1281.19,-158.872 1277.69,-148.872 1274.19,-158.872 1281.19,-158.872"/>
</g>
<!-- Node13&#45;&gt;Node9 -->
<g id="edge16" class="edge"><title>Node13&#45;&gt;Node9</title>
<path fill="none" stroke="midnightblue" d="M1266.37,-190.229C1253.14,-180.51 1230.64,-163.825 1211.69,-149 1188.46,-130.834 1162.2,-109.244 1145.32,-95.2267"/>
<polygon fill="midnightblue" stroke="midnightblue" points="1147.34,-92.3525 1137.41,-88.6451 1142.86,-97.7327 1147.34,-92.3525"/>
</g>
<!-- Node15&#45;&gt;Node9 -->
<g id="edge47" class="edge"><title>Node15&#45;&gt;Node9</title>
<path fill="none" stroke="midnightblue" d="M843.313,-190.42C891.615,-179.564 973.86,-160.325 1002.69,-149 1013.12,-144.903 1071.36,-112.315 1104.54,-93.6014"/>
<polygon fill="midnightblue" stroke="midnightblue" points="1106.57,-96.471 1113.56,-88.506 1103.13,-90.3758 1106.57,-96.471"/>
</g>
<!-- Node15&#45;&gt;Node12 -->
<g id="edge46" class="edge"><title>Node15&#45;&gt;Node12</title>
<path fill="none" stroke="midnightblue" d="M844.447,-190.492C899.654,-178.757 999.737,-157.377 1035.69,-149 1036.92,-148.713 1038.18,-148.416 1039.45,-148.113"/>
<polygon fill="midnightblue" stroke="midnightblue" points="1040.33,-151.5 1049.22,-145.731 1038.67,-144.7 1040.33,-151.5"/>
</g>
<!-- Node15&#45;&gt;Node16 -->
<g id="edge19" class="edge"><title>Node15&#45;&gt;Node16</title>
<path fill="none" stroke="midnightblue" d="M761.286,-190.496C701.719,-179.995 597.244,-161.577 533.087,-150.267"/>
<polygon fill="midnightblue" stroke="midnightblue" points="533.605,-146.804 523.15,-148.515 532.39,-153.698 533.605,-146.804"/>
</g>
<!-- Node27 -->
<g id="node28" class="node"><title>Node27</title>
<g id="a_node28"><a xlink:href="../../d1/de6/Composite_8h.html" target="_top" xlink:title="Utility classes and functions to implement the Composite design pattern. ">
<polygon fill="white" stroke="black" points="745.887,-130.5 745.887,-148.5 867.487,-148.5 867.487,-130.5 745.887,-130.5"/>
<text text-anchor="middle" x="806.687" y="-136.5" font-family="Helvetica,sans-Serif" font-size="10.00">ocra/optim/Composite.h</text>
</a>
</g>
</g>
<!-- Node15&#45;&gt;Node27 -->
<g id="edge33" class="edge"><title>Node15&#45;&gt;Node27</title>
<path fill="none" stroke="midnightblue" d="M806.687,-190.435C806.687,-182.389 806.687,-169.739 806.687,-159.185"/>
<polygon fill="midnightblue" stroke="midnightblue" points="810.187,-158.872 806.687,-148.872 803.187,-158.872 810.187,-158.872"/>
</g>
<!-- Node28 -->
<g id="node29" class="node"><title>Node28</title>
<polygon fill="white" stroke="#bfbfbf" points="968.978,-70.5 968.978,-88.5 1088.4,-88.5 1088.4,-70.5 968.978,-70.5"/>
<text text-anchor="middle" x="1028.69" y="-76.5" font-family="Helvetica,sans-Serif" font-size="10.00">boost/noncopyable.hpp</text>
</g>
<!-- Node15&#45;&gt;Node28 -->
<g id="edge45" class="edge"><title>Node15&#45;&gt;Node28</title>
<path fill="none" stroke="midnightblue" d="M818,-190.492C837.285,-177.033 878.002,-149.447 914.687,-130 942.044,-115.498 974.551,-101.701 997.839,-92.3746"/>
<polygon fill="midnightblue" stroke="midnightblue" points="999.205,-95.5985 1007.21,-88.6625 996.627,-89.0902 999.205,-95.5985"/>
</g>
<!-- Node31 -->
<g id="node32" class="node"><title>Node31</title>
<polygon fill="white" stroke="#bfbfbf" points="923.722,-130.5 923.722,-148.5 993.652,-148.5 993.652,-130.5 923.722,-130.5"/>
<text text-anchor="middle" x="958.687" y="-136.5" font-family="Helvetica,sans-Serif" font-size="10.00">Eigen/Eigen</text>
</g>
<!-- Node15&#45;&gt;Node31 -->
<g id="edge44" class="edge"><title>Node15&#45;&gt;Node31</title>
<path fill="none" stroke="midnightblue" d="M827.822,-190.435C853.766,-180.536 897.975,-163.666 927.746,-152.306"/>
<polygon fill="midnightblue" stroke="midnightblue" points="929.146,-155.518 937.242,-148.683 926.651,-148.978 929.146,-155.518"/>
</g>
<!-- Node17 -->
<g id="node18" class="node"><title>Node17</title>
<g id="a_node18"><a xlink:href="../../df/d67/ObserverSubjectBase_8h.html" target="_top" xlink:title="Declaration file of the Observer and Subject base classes. ">
<polygon fill="white" stroke="black" points="144.717,-65.5 144.717,-93.5 284.657,-93.5 284.657,-65.5 144.717,-65.5"/>
<text text-anchor="start" x="152.717" y="-81.5" font-family="Helvetica,sans-Serif" font-size="10.00">ocra/optim/ObserverSubject</text>
<text text-anchor="middle" x="214.687" y="-71.5" font-family="Helvetica,sans-Serif" font-size="10.00">Base.h</text>
</a>
</g>
</g>
<!-- Node16&#45;&gt;Node17 -->
<g id="edge20" class="edge"><title>Node16&#45;&gt;Node17</title>
<path fill="none" stroke="midnightblue" d="M441.394,-130.496C400.837,-121.552 334.239,-106.865 283.693,-95.718"/>
<polygon fill="midnightblue" stroke="midnightblue" points="284.329,-92.2743 273.81,-93.5385 282.821,-99.11 284.329,-92.2743"/>
</g>
<!-- Node21 -->
<g id="node22" class="node"><title>Node21</title>
<polygon fill="white" stroke="#bfbfbf" points="0,-0.5 0,-28.5 99.374,-28.5 99.374,-0.5 0,-0.5"/>
<text text-anchor="start" x="8" y="-16.5" font-family="Helvetica,sans-Serif" font-size="10.00">boost/type_traits/is</text>
<text text-anchor="middle" x="49.687" y="-6.5" font-family="Helvetica,sans-Serif" font-size="10.00">_class.hpp</text>
</g>
<!-- Node16&#45;&gt;Node21 -->
<g id="edge32" class="edge"><title>Node16&#45;&gt;Node21</title>
<path fill="none" stroke="midnightblue" d="M403.459,-134.063C317.517,-128.022 181.85,-115.429 135.687,-94 107.384,-80.8612 81.9455,-55.0268 66.2073,-36.5837"/>
<polygon fill="midnightblue" stroke="midnightblue" points="68.756,-34.1737 59.6834,-28.7021 63.3637,-38.6372 68.756,-34.1737"/>
</g>
<!-- Node22 -->
<g id="node23" class="node"><title>Node22</title>
<polygon fill="white" stroke="#bfbfbf" points="409,-0.5 409,-28.5 508.374,-28.5 508.374,-0.5 409,-0.5"/>
<text text-anchor="start" x="417" y="-16.5" font-family="Helvetica,sans-Serif" font-size="10.00">boost/type_traits/is</text>
<text text-anchor="middle" x="458.687" y="-6.5" font-family="Helvetica,sans-Serif" font-size="10.00">_base_of.hpp</text>
</g>
<!-- Node16&#45;&gt;Node22 -->
<g id="edge30" class="edge"><title>Node16&#45;&gt;Node22</title>
<path fill="none" stroke="midnightblue" d="M476.44,-130.43C473.612,-112.123 466.622,-66.8717 462.305,-38.9218"/>
<polygon fill="midnightblue" stroke="midnightblue" points="465.729,-38.1577 460.743,-28.8093 458.811,-39.2264 465.729,-38.1577"/>
</g>
<!-- Node23 -->
<g id="node24" class="node"><title>Node23</title>
<polygon fill="white" stroke="#bfbfbf" points="526.269,-5.5 526.269,-23.5 645.105,-23.5 645.105,-5.5 526.269,-5.5"/>
<text text-anchor="middle" x="585.687" y="-11.5" font-family="Helvetica,sans-Serif" font-size="10.00">boost/static_assert.hpp</text>
</g>
<!-- Node16&#45;&gt;Node23 -->
<g id="edge29" class="edge"><title>Node16&#45;&gt;Node23</title>
<path fill="none" stroke="midnightblue" d="M480.389,-130.468C485.515,-116.102 497.768,-85.5871 515.687,-65 528.513,-50.2645 546.587,-37.6272 561.157,-28.81"/>
<polygon fill="midnightblue" stroke="midnightblue" points="563.253,-31.6396 570.135,-23.5838 559.732,-25.5899 563.253,-31.6396"/>
</g>
<!-- Node25 -->
<g id="node26" class="node"><title>Node25</title>
<g id="a_node26"><a xlink:href="../../db/ddf/ocra__events_8h.html" target="_top" xlink:title="ocra/optim/ocra_events.h">
<polygon fill="white" stroke="black" points="302.547,-70.5 302.547,-88.5 430.827,-88.5 430.827,-70.5 302.547,-70.5"/>
<text text-anchor="middle" x="366.687" y="-76.5" font-family="Helvetica,sans-Serif" font-size="10.00">ocra/optim/ocra_events.h</text>
</a>
</g>
</g>
<!-- Node16&#45;&gt;Node25 -->
<g id="edge28" class="edge"><title>Node16&#45;&gt;Node25</title>
<path fill="none" stroke="midnightblue" d="M462.253,-130.435C443.884,-120.837 412.976,-104.687 391.296,-93.3586"/>
<polygon fill="midnightblue" stroke="midnightblue" points="392.832,-90.2123 382.348,-88.6831 389.59,-96.4164 392.832,-90.2123"/>
</g>
<!-- Node26 -->
<g id="node27" class="node"><title>Node26</title>
<polygon fill="white" stroke="#bfbfbf" points="525,-65.5 525,-93.5 624.374,-93.5 624.374,-65.5 525,-65.5"/>
<text text-anchor="start" x="533" y="-81.5" font-family="Helvetica,sans-Serif" font-size="10.00">boost/type_traits/is</text>
<text text-anchor="middle" x="574.687" y="-71.5" font-family="Helvetica,sans-Serif" font-size="10.00">_convertible.hpp</text>
</g>
<!-- Node16&#45;&gt;Node26 -->
<g id="edge31" class="edge"><title>Node16&#45;&gt;Node26</title>
<path fill="none" stroke="midnightblue" d="M491.174,-130.435C504.739,-122.324 526.128,-109.535 543.864,-98.9304"/>
<polygon fill="midnightblue" stroke="midnightblue" points="545.958,-101.756 552.744,-93.6203 542.365,-95.7484 545.958,-101.756"/>
</g>
<!-- Node18 -->
<g id="node19" class="node"><title>Node18</title>
<polygon fill="white" stroke="#bfbfbf" points="236.283,-5.5 236.283,-23.5 295.091,-23.5 295.091,-5.5 236.283,-5.5"/>
<text text-anchor="middle" x="265.687" y="-11.5" font-family="Helvetica,sans-Serif" font-size="10.00">functional</text>
</g>
<!-- Node17&#45;&gt;Node18 -->
<g id="edge21" class="edge"><title>Node17&#45;&gt;Node18</title>
<path fill="none" stroke="midnightblue" d="M225.254,-65.4464C233.187,-55.6477 244.095,-42.1721 252.583,-31.6874"/>
<polygon fill="midnightblue" stroke="midnightblue" points="255.453,-33.7048 259.025,-23.7301 250.012,-29.3004 255.453,-33.7048"/>
</g>
<!-- Node19 -->
<g id="node20" class="node"><title>Node19</title>
<polygon fill="white" stroke="#bfbfbf" points="681.123,-5.5 681.123,-23.5 738.251,-23.5 738.251,-5.5 681.123,-5.5"/>
<text text-anchor="middle" x="709.687" y="-11.5" font-family="Helvetica,sans-Serif" font-size="10.00">algorithm</text>
</g>
<!-- Node17&#45;&gt;Node19 -->
<g id="edge22" class="edge"><title>Node17&#45;&gt;Node19</title>
<path fill="none" stroke="midnightblue" d="M284.859,-66.2479C287.839,-65.81 290.791,-65.3917 293.687,-65 453.034,-43.4442 495.156,-55.9051 653.687,-29 659.295,-28.0483 665.175,-26.8531 670.929,-25.5696"/>
<polygon fill="midnightblue" stroke="midnightblue" points="672.127,-28.884 681.066,-23.1975 670.532,-22.0682 672.127,-28.884"/>
</g>
<!-- Node20 -->
<g id="node21" class="node"><title>Node20</title>
<polygon fill="white" stroke="#bfbfbf" points="312.642,-5.5 312.642,-23.5 390.732,-23.5 390.732,-5.5 312.642,-5.5"/>
<text text-anchor="middle" x="351.687" y="-11.5" font-family="Helvetica,sans-Serif" font-size="10.00">boost/any.hpp</text>
</g>
<!-- Node17&#45;&gt;Node20 -->
<g id="edge23" class="edge"><title>Node17&#45;&gt;Node20</title>
<path fill="none" stroke="midnightblue" d="M243.074,-65.4464C267.076,-54.4087 301.224,-38.7057 324.793,-27.8674"/>
<polygon fill="midnightblue" stroke="midnightblue" points="326.563,-30.9059 334.186,-23.548 323.638,-24.5461 326.563,-30.9059"/>
</g>
<!-- Node17&#45;&gt;Node21 -->
<g id="edge24" class="edge"><title>Node17&#45;&gt;Node21</title>
<path fill="none" stroke="midnightblue" d="M180.499,-65.4464C155.278,-55.8166 120.757,-42.6356 93.5098,-32.2323"/>
<polygon fill="midnightblue" stroke="midnightblue" points="94.422,-28.8342 83.8313,-28.5369 91.925,-35.3738 94.422,-28.8342"/>
</g>
<!-- Node17&#45;&gt;Node22 -->
<g id="edge25" class="edge"><title>Node17&#45;&gt;Node22</title>
<path fill="none" stroke="midnightblue" d="M265.244,-65.4464C304.06,-55.4243 357.772,-41.5558 398.752,-30.9751"/>
<polygon fill="midnightblue" stroke="midnightblue" points="399.805,-34.3179 408.613,-28.429 398.055,-27.5402 399.805,-34.3179"/>
</g>
<!-- Node17&#45;&gt;Node23 -->
<g id="edge26" class="edge"><title>Node17&#45;&gt;Node23</title>
<path fill="none" stroke="midnightblue" d="M284.892,-66.4658C287.863,-65.9683 290.804,-65.4779 293.687,-65 393.162,-48.5074 418.441,-46.8205 517.687,-29 523.829,-27.8972 530.272,-26.6874 536.642,-25.4592"/>
<polygon fill="midnightblue" stroke="midnightblue" points="537.395,-28.8783 546.539,-23.5267 536.053,-22.0081 537.395,-28.8783"/>
</g>
<!-- Node24 -->
<g id="node25" class="node"><title>Node24</title>
<polygon fill="white" stroke="#bfbfbf" points="116.882,-0.5 116.882,-28.5 218.492,-28.5 218.492,-0.5 116.882,-0.5"/>
<text text-anchor="start" x="124.882" y="-16.5" font-family="Helvetica,sans-Serif" font-size="10.00">boost/ptr_container</text>
<text text-anchor="middle" x="167.687" y="-6.5" font-family="Helvetica,sans-Serif" font-size="10.00">/ptr_vector.hpp</text>
</g>
<!-- Node17&#45;&gt;Node24 -->
<g id="edge27" class="edge"><title>Node17&#45;&gt;Node24</title>
<path fill="none" stroke="midnightblue" d="M204.949,-65.4464C198.773,-57.1681 190.639,-46.2656 183.547,-36.7593"/>
<polygon fill="midnightblue" stroke="midnightblue" points="186.198,-34.4593 177.413,-28.5369 180.587,-38.6451 186.198,-34.4593"/>
</g>
<!-- Node27&#45;&gt;Node6 -->
<g id="edge34" class="edge"><title>Node27&#45;&gt;Node6</title>
<path fill="none" stroke="midnightblue" d="M867.938,-133.395C992.063,-123 1265.14,-99.8646 1307.69,-94 1315.13,-92.9737 1322.98,-91.7017 1330.64,-90.3522"/>
<polygon fill="midnightblue" stroke="midnightblue" points="1331.35,-93.7808 1340.56,-88.5477 1330.1,-86.8938 1331.35,-93.7808"/>
</g>
<!-- Node27&#45;&gt;Node9 -->
<g id="edge40" class="edge"><title>Node27&#45;&gt;Node9</title>
<path fill="none" stroke="midnightblue" d="M867.643,-134.015C927.255,-128.507 1020.12,-116.918 1097.69,-94 1099.16,-93.5651 1100.65,-93.0727 1102.15,-92.5396"/>
<polygon fill="midnightblue" stroke="midnightblue" points="1103.86,-95.6225 1111.8,-88.6117 1101.22,-89.1386 1103.86,-95.6225"/>
</g>
<!-- Node27&#45;&gt;Node10 -->
<g id="edge43" class="edge"><title>Node27&#45;&gt;Node10</title>
<path fill="none" stroke="midnightblue" d="M867.792,-132.381C953.485,-123.525 1104.9,-106.795 1158.69,-94 1161.34,-93.3686 1164.07,-92.6166 1166.78,-91.7953"/>
<polygon fill="midnightblue" stroke="midnightblue" points="1168.02,-95.0715 1176.42,-88.6095 1165.83,-88.4253 1168.02,-95.0715"/>
</g>
<!-- Node27&#45;&gt;Node19 -->
<g id="edge41" class="edge"><title>Node27&#45;&gt;Node19</title>
<path fill="none" stroke="midnightblue" d="M792.277,-130.361C779.276,-122.438 760.31,-109.366 747.687,-94 732.549,-75.573 721.655,-50.1065 715.512,-33.2373"/>
<polygon fill="midnightblue" stroke="midnightblue" points="718.74,-31.8615 712.164,-23.5537 712.124,-34.1485 718.74,-31.8615"/>
</g>
<!-- Node27&#45;&gt;Node22 -->
<g id="edge37" class="edge"><title>Node27&#45;&gt;Node22</title>
<path fill="none" stroke="midnightblue" d="M772.726,-130.442C744.894,-123.092 704.975,-110.81 672.687,-94 653.528,-84.0253 653.066,-74.5414 633.687,-65 613.363,-54.9933 560.839,-40.652 518.6,-29.9796"/>
<polygon fill="midnightblue" stroke="midnightblue" points="519.212,-26.5248 508.661,-27.4877 517.509,-33.3147 519.212,-26.5248"/>
</g>
<!-- Node27&#45;&gt;Node23 -->
<g id="edge36" class="edge"><title>Node27&#45;&gt;Node23</title>
<path fill="none" stroke="midnightblue" d="M792.234,-130.463C776.211,-121.552 749.601,-106.752 726.687,-94 685.297,-70.9665 637.079,-44.1187 609.104,-28.5407"/>
<polygon fill="midnightblue" stroke="midnightblue" points="610.537,-25.3326 600.098,-23.5252 607.132,-31.4483 610.537,-25.3326"/>
</g>
<!-- Node27&#45;&gt;Node26 -->
<g id="edge38" class="edge"><title>Node27&#45;&gt;Node26</title>
<path fill="none" stroke="midnightblue" d="M774.428,-130.435C738.314,-121.407 679.011,-106.581 634.385,-95.4245"/>
<polygon fill="midnightblue" stroke="midnightblue" points="635.078,-91.9902 624.528,-92.9603 633.381,-98.7812 635.078,-91.9902"/>
</g>
<!-- Node27&#45;&gt;Node28 -->
<g id="edge35" class="edge"><title>Node27&#45;&gt;Node28</title>
<path fill="none" stroke="midnightblue" d="M837.555,-130.435C876.711,-120.206 944.351,-102.534 987.775,-91.1888"/>
<polygon fill="midnightblue" stroke="midnightblue" points="988.933,-94.5036 997.724,-88.5894 987.164,-87.7309 988.933,-94.5036"/>
</g>
<!-- Node29 -->
<g id="node30" class="node"><title>Node29</title>
<polygon fill="white" stroke="#bfbfbf" points="757.148,-65.5 757.148,-93.5 888.226,-93.5 888.226,-65.5 757.148,-65.5"/>
<text text-anchor="start" x="765.148" y="-81.5" font-family="Helvetica,sans-Serif" font-size="10.00">boost/type_traits/has</text>
<text text-anchor="middle" x="822.687" y="-71.5" font-family="Helvetica,sans-Serif" font-size="10.00">_nothrow_constructor.hpp</text>
</g>
<!-- Node27&#45;&gt;Node29 -->
<g id="edge39" class="edge"><title>Node27&#45;&gt;Node29</title>
<path fill="none" stroke="midnightblue" d="M808.912,-130.435C810.829,-123.486 813.693,-113.103 816.314,-103.602"/>
<polygon fill="midnightblue" stroke="midnightblue" points="819.721,-104.413 819.006,-93.8428 812.973,-102.552 819.721,-104.413"/>
</g>
<!-- Node30 -->
<g id="node31" class="node"><title>Node30</title>
<polygon fill="white" stroke="#bfbfbf" points="906.515,-70.5 906.515,-88.5 950.859,-88.5 950.859,-70.5 906.515,-70.5"/>
<text text-anchor="middle" x="928.687" y="-76.5" font-family="Helvetica,sans-Serif" font-size="10.00">iosfwd</text>
</g>
<!-- Node27&#45;&gt;Node30 -->
<g id="edge42" class="edge"><title>Node27&#45;&gt;Node30</title>
<path fill="none" stroke="midnightblue" d="M823.651,-130.435C844.021,-120.751 878.422,-104.397 902.278,-93.055"/>
<polygon fill="midnightblue" stroke="midnightblue" points="903.946,-96.1378 911.474,-88.6831 900.94,-89.8158 903.946,-96.1378"/>
</g>
<!-- Node32&#45;&gt;Node12 -->
<g id="edge50" class="edge"><title>Node32&#45;&gt;Node12</title>
<path fill="none" stroke="midnightblue" d="M968.094,-190.435C987.71,-180.794 1020.77,-164.542 1043.84,-153.206"/>
<polygon fill="midnightblue" stroke="midnightblue" points="1045.61,-156.235 1053.04,-148.683 1042.52,-149.953 1045.61,-156.235"/>
</g>
<!-- Node34 -->
<g id="node35" class="node"><title>Node34</title>
<polygon fill="white" stroke="#bfbfbf" points="1622.63,-190.5 1622.63,-208.5 1674.74,-208.5 1674.74,-190.5 1622.63,-190.5"/>
<text text-anchor="middle" x="1648.69" y="-196.5" font-family="Helvetica,sans-Serif" font-size="10.00">memory</text>
</g>
<!-- Node33&#45;&gt;Node34 -->
<g id="edge53" class="edge"><title>Node33&#45;&gt;Node34</title>
<path fill="none" stroke="midnightblue" d="M1648.69,-250.435C1648.69,-242.389 1648.69,-229.739 1648.69,-219.185"/>
<polygon fill="midnightblue" stroke="midnightblue" points="1652.19,-218.872 1648.69,-208.872 1645.19,-218.872 1652.19,-218.872"/>
</g>
</g>
</svg>
