<?xml version="1.0" encoding="UTF-8" standalone="no"?>
<!DOCTYPE svg PUBLIC "-//W3C//DTD SVG 1.1//EN"
 "http://www.w3.org/Graphics/SVG/1.1/DTD/svg11.dtd">
<!-- Generated by graphviz version 2.38.0 (20140413.2041)
 -->
<!-- Title: gocra::GHCJTTask::Pimpl Pages: 1 -->
<svg width="1734pt" height="764pt"
 viewBox="0.00 0.00 1734.13 764.46" xmlns="http://www.w3.org/2000/svg" xmlns:xlink="http://www.w3.org/1999/xlink">
<g id="graph0" class="graph" transform="scale(1 1) rotate(0) translate(4 760.458)">
<title>gocra::GHCJTTask::Pimpl</title>
<polygon fill="white" stroke="none" points="-4,4 -4,-760.458 1730.13,-760.458 1730.13,4 -4,4"/>
<!-- Node1 -->
<g id="node1" class="node"><title>Node1</title>
<polygon fill="#bfbfbf" stroke="black" points="1595.11,-379.458 1595.11,-397.458 1726.13,-397.458 1726.13,-379.458 1595.11,-379.458"/>
<text text-anchor="middle" x="1660.62" y="-385.458" font-family="Helvetica,sans-Serif" font-size="10.00">gocra::GHCJTTask::Pimpl</text>
</g>
<!-- Node2 -->
<g id="node2" class="node"><title>Node2</title>
<g id="a_node2"><a xlink:href="../../d0/d8f/classocra_1_1SumOfLinearFunctions.html" target="_top" xlink:title="ocra::SumOfLinearFunctions">
<polygon fill="white" stroke="black" points="1299.38,-399.458 1299.38,-417.458 1442.66,-417.458 1442.66,-399.458 1299.38,-399.458"/>
<text text-anchor="middle" x="1371.02" y="-405.458" font-family="Helvetica,sans-Serif" font-size="10.00">ocra::SumOfLinearFunctions</text>
</a>
</g>
</g>
<!-- Node2&#45;&gt;Node1 -->
<g id="edge1" class="edge"><title>Node2&#45;&gt;Node1</title>
<path fill="none" stroke="#9a32cd" stroke-dasharray="5,2" d="M1452.76,-402.843C1497.74,-399.715 1552.99,-395.874 1595.07,-392.947"/>
<polygon fill="#9a32cd" stroke="#9a32cd" points="1452.47,-399.355 1442.74,-403.54 1452.96,-406.338 1452.47,-399.355"/>
<text text-anchor="middle" x="1525.69" y="-403.458" font-family="Helvetica,sans-Serif" font-size="10.00"> seConstraint</text>
</g>
<!-- Node3 -->
<g id="node3" class="node"><title>Node3</title>
<g id="a_node3"><a xlink:href="../../de/d3a/classocra_1_1LinearFunction.html" target="_top" xlink:title="LinearFunction class. ">
<polygon fill="white" stroke="black" points="1045.86,-438.458 1045.86,-456.458 1153.02,-456.458 1153.02,-438.458 1045.86,-438.458"/>
<text text-anchor="middle" x="1099.44" y="-444.458" font-family="Helvetica,sans-Serif" font-size="10.00">ocra::LinearFunction</text>
</a>
</g>
</g>
<!-- Node3&#45;&gt;Node1 -->
<g id="edge48" class="edge"><title>Node3&#45;&gt;Node1</title>
<path fill="none" stroke="#9a32cd" stroke-dasharray="5,2" d="M1163.52,-448.654C1255.46,-449.178 1431.24,-445.562 1577.11,-415.458 1597.62,-411.224 1620.19,-403.628 1636.52,-397.569"/>
<polygon fill="#9a32cd" stroke="#9a32cd" points="1163.29,-445.152 1153.27,-448.576 1163.24,-452.152 1163.29,-445.152"/>
<text text-anchor="middle" x="1371.02" y="-459.458" font-family="Helvetica,sans-Serif" font-size="10.00"> regulationObjectiveFunction</text>
<text text-anchor="middle" x="1371.02" y="-449.458" font-family="Helvetica,sans-Serif" font-size="10.00">innerObjectiveFunction</text>
</g>
<!-- Node3&#45;&gt;Node2 -->
<g id="edge2" class="edge"><title>Node3&#45;&gt;Node2</title>
<path fill="none" stroke="midnightblue" d="M1163.22,-438.376C1206.66,-432.091 1264.23,-423.762 1307.6,-417.489"/>
<polygon fill="midnightblue" stroke="midnightblue" points="1162.45,-434.95 1153.06,-439.846 1163.46,-441.878 1162.45,-434.95"/>
</g>
<!-- Node4 -->
<g id="node4" class="node"><title>Node4</title>
<g id="a_node4"><a xlink:href="../../d2/d99/classocra_1_1Function.html" target="_top" xlink:title="Function class. ">
<polygon fill="white" stroke="black" points="874.824,-291.458 874.824,-309.458 954.188,-309.458 954.188,-291.458 874.824,-291.458"/>
<text text-anchor="middle" x="914.506" y="-297.458" font-family="Helvetica,sans-Serif" font-size="10.00">ocra::Function</text>
</a>
</g>
</g>
<!-- Node4&#45;&gt;Node3 -->
<g id="edge3" class="edge"><title>Node4&#45;&gt;Node3</title>
<path fill="none" stroke="midnightblue" d="M926.432,-318.05C938.445,-336.342 959.153,-364.976 982.384,-384.458 1011.37,-408.766 1051.2,-427.911 1075.86,-438.451"/>
<polygon fill="midnightblue" stroke="midnightblue" points="929.316,-316.063 920.975,-309.53 923.421,-319.838 929.316,-316.063"/>
</g>
<!-- Node5 -->
<g id="node5" class="node"><title>Node5</title>
<g id="a_node5"><a xlink:href="../../d3/d16/classocra_1_1ObserverSubject.html" target="_top" xlink:title="ocra::ObserverSubject">
<polygon fill="white" stroke="black" points="386.068,-163.458 386.068,-181.458 501.556,-181.458 501.556,-163.458 386.068,-163.458"/>
<text text-anchor="middle" x="443.812" y="-169.458" font-family="Helvetica,sans-Serif" font-size="10.00">ocra::ObserverSubject</text>
</a>
</g>
</g>
<!-- Node5&#45;&gt;Node4 -->
<g id="edge4" class="edge"><title>Node5&#45;&gt;Node4</title>
<path fill="none" stroke="midnightblue" d="M494.086,-183.744C528.936,-191.521 576.819,-201.795 619.24,-209.458 719.798,-227.624 753.624,-201.127 846.629,-243.458 871.622,-254.834 894.532,-278.393 905.932,-291.378"/>
<polygon fill="midnightblue" stroke="midnightblue" points="494.688,-180.292 484.165,-181.518 493.156,-187.122 494.688,-180.292"/>
</g>
<!-- Node21 -->
<g id="node21" class="node"><title>Node21</title>
<g id="a_node21"><a xlink:href="../../d2/dac/classocra_1_1Variable.html" target="_top" xlink:title="This class represents a variable in a mathematical sense. ">
<polygon fill="white" stroke="black" points="662.658,-342.458 662.658,-360.458 739.62,-360.458 739.62,-342.458 662.658,-342.458"/>
<text text-anchor="middle" x="701.139" y="-348.458" font-family="Helvetica,sans-Serif" font-size="10.00">ocra::Variable</text>
</a>
</g>
</g>
<!-- Node5&#45;&gt;Node21 -->
<g id="edge22" class="edge"><title>Node5&#45;&gt;Node21</title>
<path fill="none" stroke="midnightblue" d="M461.767,-188.931C501.913,-227.801 600.804,-322.708 619.24,-332.458 632.504,-339.473 648.342,-343.924 662.474,-346.737"/>
<polygon fill="midnightblue" stroke="midnightblue" points="463.967,-186.189 454.351,-181.741 459.095,-191.215 463.967,-186.189"/>
</g>
<!-- Node27 -->
<g id="node27" class="node"><title>Node27</title>
<g id="a_node27"><a xlink:href="../../d6/dd3/classocra_1_1Solver.html" target="_top" xlink:title="Solver class. ">
<polygon fill="white" stroke="black" points="879.829,-180.458 879.829,-198.458 949.184,-198.458 949.184,-180.458 879.829,-180.458"/>
<text text-anchor="middle" x="914.506" y="-186.458" font-family="Helvetica,sans-Serif" font-size="10.00">ocra::Solver</text>
</a>
</g>
</g>
<!-- Node5&#45;&gt;Node27 -->
<g id="edge29" class="edge"><title>Node5&#45;&gt;Node27</title>
<path fill="none" stroke="midnightblue" d="M483.987,-160.502C547.347,-142.875 676.019,-114.186 783.038,-135.458 826.317,-144.061 873.236,-167.263 897.281,-180.281"/>
<polygon fill="midnightblue" stroke="midnightblue" points="482.69,-157.232 474.028,-163.332 484.604,-163.965 482.69,-157.232"/>
</g>
<!-- Node30 -->
<g id="node30" class="node"><title>Node30</title>
<g id="a_node30"><a xlink:href="../../d4/d00/classocra_1_1Model.html" target="_top" xlink:title="Model class. ">
<polygon fill="white" stroke="black" points="880.383,-7.45844 880.383,-25.4584 948.629,-25.4584 948.629,-7.45844 880.383,-7.45844"/>
<text text-anchor="middle" x="914.506" y="-13.4584" font-family="Helvetica,sans-Serif" font-size="10.00">ocra::Model</text>
</a>
</g>
</g>
<!-- Node5&#45;&gt;Node30 -->
<g id="edge37" class="edge"><title>Node5&#45;&gt;Node30</title>
<path fill="none" stroke="midnightblue" d="M457.904,-155.084C484.157,-121.846 546.951,-50.1078 619.24,-22.4584 708.489,11.6777 824.367,-0.855421 880.348,-10.0914"/>
<polygon fill="midnightblue" stroke="midnightblue" points="454.844,-153.319 451.49,-163.369 460.379,-157.604 454.844,-153.319"/>
</g>
<!-- Node6 -->
<g id="node6" class="node"><title>Node6</title>
<g id="a_node6"><a xlink:href="../../d2/d45/classocra_1_1Observer.html" target="_top" xlink:title="ocra::Observer">
<polygon fill="white" stroke="black" points="222.497,-231.458 222.497,-249.458 304.63,-249.458 304.63,-231.458 222.497,-231.458"/>
<text text-anchor="middle" x="263.563" y="-237.458" font-family="Helvetica,sans-Serif" font-size="10.00">ocra::Observer</text>
</a>
</g>
</g>
<!-- Node6&#45;&gt;Node5 -->
<g id="edge5" class="edge"><title>Node6&#45;&gt;Node5</title>
<path fill="none" stroke="midnightblue" d="M297.618,-227.849C332.87,-214.4 387.832,-193.433 419.044,-181.526"/>
<polygon fill="midnightblue" stroke="midnightblue" points="296.329,-224.594 288.234,-231.429 298.824,-231.134 296.329,-224.594"/>
</g>
<!-- Node7 -->
<g id="node7" class="node"><title>Node7</title>
<g id="a_node7"><a xlink:href="../../d4/dee/classocra_1_1ObserverBase.html" target="_top" xlink:title="ocra::ObserverBase\l\&lt; EVT_RESIZE \&gt;">
<polygon fill="white" stroke="black" points="40.2856,-297.458 40.2856,-325.458 145.211,-325.458 145.211,-297.458 40.2856,-297.458"/>
<text text-anchor="start" x="48.2856" y="-313.458" font-family="Helvetica,sans-Serif" font-size="10.00">ocra::ObserverBase</text>
<text text-anchor="middle" x="92.7485" y="-303.458" font-family="Helvetica,sans-Serif" font-size="10.00">&lt; EVT_RESIZE &gt;</text>
</a>
</g>
</g>
<!-- Node7&#45;&gt;Node6 -->
<g id="edge6" class="edge"><title>Node7&#45;&gt;Node6</title>
<path fill="none" stroke="midnightblue" d="M155.334,-298.005C165.579,-295.016 175.966,-291.508 185.497,-287.458 209.873,-277.102 235.651,-259.937 250.357,-249.465"/>
<polygon fill="midnightblue" stroke="midnightblue" points="154.285,-294.664 145.586,-300.712 156.158,-301.408 154.285,-294.664"/>
</g>
<!-- Node8 -->
<g id="node8" class="node"><title>Node8</title>
<g id="a_node8"><a xlink:href="../../d4/dee/classocra_1_1ObserverBase.html" target="_top" xlink:title="ocra::ObserverBase\l\&lt; EVT_CHANGE_DEPENDENCIES \&gt;">
<polygon fill="white" stroke="black" points="0,-250.458 0,-278.458 185.497,-278.458 185.497,-250.458 0,-250.458"/>
<text text-anchor="start" x="8" y="-266.458" font-family="Helvetica,sans-Serif" font-size="10.00">ocra::ObserverBase</text>
<text text-anchor="middle" x="92.7485" y="-256.458" font-family="Helvetica,sans-Serif" font-size="10.00">&lt; EVT_CHANGE_DEPENDENCIES &gt;</text>
</a>
</g>
</g>
<!-- Node8&#45;&gt;Node6 -->
<g id="edge7" class="edge"><title>Node8&#45;&gt;Node6</title>
<path fill="none" stroke="midnightblue" d="M195.725,-249.961C205,-248.642 213.979,-247.366 222.187,-246.199"/>
<polygon fill="midnightblue" stroke="midnightblue" points="194.974,-246.532 185.566,-251.405 195.959,-253.463 194.974,-246.532"/>
</g>
<!-- Node9 -->
<g id="node9" class="node"><title>Node9</title>
<g id="a_node9"><a xlink:href="../../d4/dee/classocra_1_1ObserverBase.html" target="_top" xlink:title="ocra::ObserverBase\l\&lt; EVT_CHANGE_VALUE \&gt;">
<polygon fill="white" stroke="black" points="23.4253,-203.458 23.4253,-231.458 162.072,-231.458 162.072,-203.458 23.4253,-203.458"/>
<text text-anchor="start" x="31.4253" y="-219.458" font-family="Helvetica,sans-Serif" font-size="10.00">ocra::ObserverBase</text>
<text text-anchor="middle" x="92.7485" y="-209.458" font-family="Helvetica,sans-Serif" font-size="10.00">&lt; EVT_CHANGE_VALUE &gt;</text>
</a>
</g>
</g>
<!-- Node9&#45;&gt;Node6 -->
<g id="edge8" class="edge"><title>Node9&#45;&gt;Node6</title>
<path fill="none" stroke="midnightblue" d="M172.466,-228.183C189.64,-230.523 207.13,-232.906 222.074,-234.942"/>
<polygon fill="midnightblue" stroke="midnightblue" points="172.793,-224.696 162.412,-226.813 171.848,-231.631 172.793,-224.696"/>
</g>
<!-- Node10 -->
<g id="node10" class="node"><title>Node10</title>
<g id="a_node10"><a xlink:href="../../dc/d77/classocra_1_1Subject.html" target="_top" xlink:title="ocra::Subject">
<polygon fill="white" stroke="black" points="226.381,-134.458 226.381,-152.458 300.746,-152.458 300.746,-134.458 226.381,-134.458"/>
<text text-anchor="middle" x="263.563" y="-140.458" font-family="Helvetica,sans-Serif" font-size="10.00">ocra::Subject</text>
</a>
</g>
</g>
<!-- Node10&#45;&gt;Node5 -->
<g id="edge9" class="edge"><title>Node10&#45;&gt;Node5</title>
<path fill="none" stroke="midnightblue" d="M311.07,-151.025C334.43,-154.825 362.898,-159.457 387.386,-163.441"/>
<polygon fill="midnightblue" stroke="midnightblue" points="311.497,-147.548 301.065,-149.397 310.373,-154.457 311.497,-147.548"/>
</g>
<!-- Node11 -->
<g id="node11" class="node"><title>Node11</title>
<g id="a_node11"><a xlink:href="../../dc/d29/classocra_1_1SubjectBase.html" target="_top" xlink:title="ocra::SubjectBase\&lt;\l EVT_RESIZE \&gt;">
<polygon fill="white" stroke="black" points="41.25,-156.458 41.25,-184.458 144.247,-184.458 144.247,-156.458 41.25,-156.458"/>
<text text-anchor="start" x="49.25" y="-172.458" font-family="Helvetica,sans-Serif" font-size="10.00">ocra::SubjectBase&lt;</text>
<text text-anchor="middle" x="92.7485" y="-162.458" font-family="Helvetica,sans-Serif" font-size="10.00"> EVT_RESIZE &gt;</text>
</a>
</g>
</g>
<!-- Node11&#45;&gt;Node10 -->
<g id="edge10" class="edge"><title>Node11&#45;&gt;Node10</title>
<path fill="none" stroke="midnightblue" d="M154.489,-160.744C178.489,-156.905 205.266,-152.623 226.162,-149.28"/>
<polygon fill="midnightblue" stroke="midnightblue" points="153.72,-157.322 144.399,-162.358 154.826,-164.234 153.72,-157.322"/>
</g>
<!-- Node12 -->
<g id="node12" class="node"><title>Node12</title>
<g id="a_node12"><a xlink:href="../../dc/d29/classocra_1_1SubjectBase.html" target="_top" xlink:title="ocra::SubjectBase\&lt;\l EVT_CHANGE_DEPENDENCIES \&gt;">
<polygon fill="white" stroke="black" points="2.91992,-109.458 2.91992,-137.458 182.577,-137.458 182.577,-109.458 2.91992,-109.458"/>
<text text-anchor="start" x="10.9199" y="-125.458" font-family="Helvetica,sans-Serif" font-size="10.00">ocra::SubjectBase&lt;</text>
<text text-anchor="middle" x="92.7485" y="-115.458" font-family="Helvetica,sans-Serif" font-size="10.00"> EVT_CHANGE_DEPENDENCIES &gt;</text>
</a>
</g>
</g>
<!-- Node12&#45;&gt;Node10 -->
<g id="edge11" class="edge"><title>Node12&#45;&gt;Node10</title>
<path fill="none" stroke="midnightblue" d="M192.668,-135.178C204.562,-136.587 216.06,-137.949 226.178,-139.148"/>
<polygon fill="midnightblue" stroke="midnightblue" points="192.948,-131.686 182.605,-133.986 192.124,-138.638 192.948,-131.686"/>
</g>
<!-- Node13 -->
<g id="node13" class="node"><title>Node13</title>
<g id="a_node13"><a xlink:href="../../dc/d29/classocra_1_1SubjectBase.html" target="_top" xlink:title="ocra::SubjectBase\&lt;\l EVT_CHANGE_VALUE \&gt;">
<polygon fill="white" stroke="black" points="26.3452,-62.4584 26.3452,-90.4584 159.152,-90.4584 159.152,-62.4584 26.3452,-62.4584"/>
<text text-anchor="start" x="34.3452" y="-78.4584" font-family="Helvetica,sans-Serif" font-size="10.00">ocra::SubjectBase&lt;</text>
<text text-anchor="middle" x="92.7485" y="-68.4584" font-family="Helvetica,sans-Serif" font-size="10.00"> EVT_CHANGE_VALUE &gt;</text>
</a>
</g>
</g>
<!-- Node13&#45;&gt;Node10 -->
<g id="edge12" class="edge"><title>Node13&#45;&gt;Node10</title>
<path fill="none" stroke="midnightblue" d="M168.784,-93.4568C174.5,-95.3009 180.129,-97.3005 185.497,-99.4584 209.084,-108.94 234.281,-124.477 249.214,-134.326"/>
<polygon fill="midnightblue" stroke="midnightblue" points="169.7,-90.077 159.114,-90.5 167.653,-96.7711 169.7,-90.077"/>
</g>
<!-- Node14 -->
<g id="node14" class="node"><title>Node14</title>
<g id="a_node14"><a xlink:href="../../dd/d68/classocra_1_1IFunctionProperties.html" target="_top" xlink:title="ocra::IFunctionProperties">
<polygon fill="white" stroke="black" points="637.28,-145.458 637.28,-163.458 764.999,-163.458 764.999,-145.458 637.28,-145.458"/>
<text text-anchor="middle" x="701.139" y="-151.458" font-family="Helvetica,sans-Serif" font-size="10.00">ocra::IFunctionProperties</text>
</a>
</g>
</g>
<!-- Node14&#45;&gt;Node4 -->
<g id="edge13" class="edge"><title>Node14&#45;&gt;Node4</title>
<path fill="none" stroke="midnightblue" d="M775.174,-162.941C799.856,-168.69 826.285,-178.324 846.629,-194.458 880.726,-221.5 902.365,-270.987 910.201,-291.343"/>
<polygon fill="midnightblue" stroke="midnightblue" points="775.603,-159.453 765.092,-160.778 774.135,-166.298 775.603,-159.453"/>
</g>
<!-- Node15 -->
<g id="node15" class="node"><title>Node15</title>
<polygon fill="white" stroke="#bfbfbf" points="619.24,-295.458 619.24,-323.458 783.038,-323.458 783.038,-295.458 619.24,-295.458"/>
<text text-anchor="start" x="627.24" y="-311.458" font-family="Helvetica,sans-Serif" font-size="10.00">OCRA_FUNCTION_INTERFACE</text>
<text text-anchor="middle" x="701.139" y="-301.458" font-family="Helvetica,sans-Serif" font-size="10.00">_INHERITANCEpublic</text>
</g>
<!-- Node15&#45;&gt;Node4 -->
<g id="edge14" class="edge"><title>Node15&#45;&gt;Node4</title>
<path fill="none" stroke="#8b1a1a" d="M793.289,-305.577C821.867,-304.36 851.89,-303.082 874.784,-302.107"/>
<polygon fill="#8b1a1a" stroke="#8b1a1a" points="793.097,-302.082 783.255,-306.005 793.395,-309.076 793.097,-302.082"/>
</g>
<!-- Node16 -->
<g id="node16" class="node"><title>Node16</title>
<g id="a_node16"><a xlink:href="../../db/de3/classocra_1_1NamedInstance.html" target="_top" xlink:title="ocra::NamedInstance">
<polygon fill="white" stroke="black" points="645.615,-69.4584 645.615,-87.4584 756.664,-87.4584 756.664,-69.4584 645.615,-69.4584"/>
<text text-anchor="middle" x="701.139" y="-75.4584" font-family="Helvetica,sans-Serif" font-size="10.00">ocra::NamedInstance</text>
</a>
</g>
</g>
<!-- Node16&#45;&gt;Node4 -->
<g id="edge15" class="edge"><title>Node16&#45;&gt;Node4</title>
<path fill="none" stroke="midnightblue" d="M734.487,-91.5681C766.607,-106 815.439,-131.954 846.629,-167.458 859.495,-182.105 856.09,-189.933 864.629,-207.458 879.808,-238.613 899.379,-274.751 908.462,-291.314"/>
<polygon fill="midnightblue" stroke="midnightblue" points="735.658,-88.2602 725.094,-87.4612 732.854,-94.674 735.658,-88.2602"/>
</g>
<!-- Node16&#45;&gt;Node27 -->
<g id="edge30" class="edge"><title>Node16&#45;&gt;Node27</title>
<path fill="none" stroke="midnightblue" d="M767.074,-80.797C793.287,-84.1501 822.884,-91.1743 846.629,-105.458 877.617,-124.1 900.045,-162.727 909.091,-180.344"/>
<polygon fill="midnightblue" stroke="midnightblue" points="767.164,-77.2852 756.835,-79.6473 766.382,-84.2414 767.164,-77.2852"/>
</g>
<!-- Node16&#45;&gt;Node30 -->
<g id="edge38" class="edge"><title>Node16&#45;&gt;Node30</title>
<path fill="none" stroke="midnightblue" d="M753.868,-67.0227C763.598,-64.6701 773.659,-62.0999 783.038,-59.4584 819.998,-49.0493 862.072,-34.7254 888.21,-25.5279"/>
<polygon fill="midnightblue" stroke="midnightblue" points="752.812,-63.676 743.89,-69.3895 754.428,-70.487 752.812,-63.676"/>
</g>
<!-- Node35 -->
<g id="node35" class="node"><title>Node35</title>
<g id="a_node35"><a xlink:href="../../d6/d87/classocra_1_1Feature.html" target="_top" xlink:title="Feature interface, used by tasks to compute errors and jacobians. ">
<polygon fill="white" stroke="black" points="876.77,-57.4584 876.77,-75.4584 952.243,-75.4584 952.243,-57.4584 876.77,-57.4584"/>
<text text-anchor="middle" x="914.506" y="-63.4584" font-family="Helvetica,sans-Serif" font-size="10.00">ocra::Feature</text>
</a>
</g>
</g>
<!-- Node16&#45;&gt;Node35 -->
<g id="edge46" class="edge"><title>Node16&#45;&gt;Node35</title>
<path fill="none" stroke="midnightblue" d="M767.256,-74.7615C803.204,-72.7207 846.533,-70.2607 876.657,-68.5505"/>
<polygon fill="midnightblue" stroke="midnightblue" points="766.632,-71.2913 756.846,-75.3525 767.029,-78.28 766.632,-71.2913"/>
</g>
<!-- Node17 -->
<g id="node17" class="node"><title>Node17</title>
<g id="a_node17"><a xlink:href="../../d8/d24/classocra_1_1AbilitySet.html" target="_top" xlink:title="ocra::AbilitySet">
<polygon fill="white" stroke="black" points="659.792,-258.458 659.792,-276.458 742.486,-276.458 742.486,-258.458 659.792,-258.458"/>
<text text-anchor="middle" x="701.139" y="-264.458" font-family="Helvetica,sans-Serif" font-size="10.00">ocra::AbilitySet</text>
</a>
</g>
</g>
<!-- Node17&#45;&gt;Node4 -->
<g id="edge16" class="edge"><title>Node17&#45;&gt;Node4</title>
<path fill="none" stroke="midnightblue" d="M753.079,-275.412C790.465,-281.248 840.476,-289.056 874.661,-294.394"/>
<polygon fill="midnightblue" stroke="midnightblue" points="753.313,-271.906 742.893,-273.821 752.233,-278.822 753.313,-271.906"/>
</g>
<!-- Node18 -->
<g id="node18" class="node"><title>Node18</title>
<g id="a_node18"><a xlink:href="../../d5/dc0/classocra_1_1CoupledInputOutputSize.html" target="_top" xlink:title="ocra::CoupledInputOutputSize">
<polygon fill="white" stroke="black" points="626.152,-182.458 626.152,-200.458 776.126,-200.458 776.126,-182.458 626.152,-182.458"/>
<text text-anchor="middle" x="701.139" y="-188.458" font-family="Helvetica,sans-Serif" font-size="10.00">ocra::CoupledInputOutputSize</text>
</a>
</g>
</g>
<!-- Node18&#45;&gt;Node4 -->
<g id="edge17" class="edge"><title>Node18&#45;&gt;Node4</title>
<path fill="none" stroke="midnightblue" d="M786.405,-194.864C807.151,-198.483 828.575,-204.774 846.629,-215.458 878.139,-234.107 900.449,-273.664 909.292,-291.456"/>
<polygon fill="midnightblue" stroke="midnightblue" points="786.711,-191.37 776.292,-193.295 785.637,-198.287 786.711,-191.37"/>
</g>
<!-- Node19 -->
<g id="node19" class="node"><title>Node19</title>
<polygon fill="white" stroke="#bfbfbf" points="415.519,-444.458 415.519,-462.458 472.105,-462.458 472.105,-444.458 415.519,-444.458"/>
<text text-anchor="middle" x="443.812" y="-450.458" font-family="Helvetica,sans-Serif" font-size="10.00">VectorXd</text>
</g>
<!-- Node19&#45;&gt;Node3 -->
<g id="edge25" class="edge"><title>Node19&#45;&gt;Node3</title>
<path fill="none" stroke="#9a32cd" stroke-dasharray="5,2" d="M482.474,-455.443C505.918,-456.578 536.702,-457.886 563.994,-458.458 661.326,-460.499 685.7,-460.155 783.038,-458.458 875.484,-456.847 983.102,-452.58 1045.72,-449.859"/>
<polygon fill="#9a32cd" stroke="#9a32cd" points="482.418,-451.936 472.257,-454.937 482.072,-458.927 482.418,-451.936"/>
<text text-anchor="middle" x="823.833" y="-460.458" font-family="Helvetica,sans-Serif" font-size="10.00"> _b</text>
</g>
<!-- Node19&#45;&gt;Node4 -->
<g id="edge18" class="edge"><title>Node19&#45;&gt;Node4</title>
<path fill="none" stroke="#9a32cd" stroke-dasharray="5,2" d="M482.546,-454.685C546.964,-455.396 681.069,-450.799 783.038,-406.458 837.1,-382.95 887.078,-330.543 905.756,-309.48"/>
<polygon fill="#9a32cd" stroke="#9a32cd" points="482.508,-451.184 472.453,-454.522 482.395,-458.183 482.508,-451.184"/>
<text text-anchor="middle" x="701.139" y="-449.458" font-family="Helvetica,sans-Serif" font-size="10.00"> _value</text>
</g>
<!-- Node26 -->
<g id="node26" class="node"><title>Node26</title>
<g id="a_node26"><a xlink:href="../../d2/d5e/classocra_1_1OneLevelSolver.html" target="_top" xlink:title="A generic abstract class the solvers that can be used in the wOcra Controller. ">
<polygon fill="white" stroke="black" points="1043.36,-501.458 1043.36,-519.458 1155.52,-519.458 1155.52,-501.458 1043.36,-501.458"/>
<text text-anchor="middle" x="1099.44" y="-507.458" font-family="Helvetica,sans-Serif" font-size="10.00">ocra::OneLevelSolver</text>
</a>
</g>
</g>
<!-- Node19&#45;&gt;Node26 -->
<g id="edge33" class="edge"><title>Node19&#45;&gt;Node26</title>
<path fill="none" stroke="#9a32cd" stroke-dasharray="5,2" d="M482.037,-460.661C505.474,-464.959 536.407,-470.197 563.994,-473.458 738.333,-494.072 946.126,-504.402 1043.27,-508.407"/>
<polygon fill="#9a32cd" stroke="#9a32cd" points="482.63,-457.212 472.159,-458.825 481.351,-464.094 482.63,-457.212"/>
<text text-anchor="middle" x="823.833" y="-540.458" font-family="Helvetica,sans-Serif" font-size="10.00"> Xsolution</text>
<text text-anchor="middle" x="823.833" y="-530.458" font-family="Helvetica,sans-Serif" font-size="10.00">_b</text>
<text text-anchor="middle" x="823.833" y="-520.458" font-family="Helvetica,sans-Serif" font-size="10.00">_d</text>
<text text-anchor="middle" x="823.833" y="-510.458" font-family="Helvetica,sans-Serif" font-size="10.00">_btotal</text>
<text text-anchor="middle" x="823.833" y="-500.458" font-family="Helvetica,sans-Serif" font-size="10.00">_h</text>
</g>
<!-- Node28 -->
<g id="node28" class="node"><title>Node28</title>
<g id="a_node28"><a xlink:href="../../d5/d53/structocra_1_1OptimizationResult.html" target="_top" xlink:title="ocra::OptimizationResult">
<polygon fill="white" stroke="black" points="638.674,-379.458 638.674,-397.458 763.604,-397.458 763.604,-379.458 638.674,-379.458"/>
<text text-anchor="middle" x="701.139" y="-385.458" font-family="Helvetica,sans-Serif" font-size="10.00">ocra::OptimizationResult</text>
</a>
</g>
</g>
<!-- Node19&#45;&gt;Node28 -->
<g id="edge32" class="edge"><title>Node19&#45;&gt;Node28</title>
<path fill="none" stroke="#9a32cd" stroke-dasharray="5,2" d="M475.927,-440.426C499.687,-430.92 533.435,-418.367 563.994,-410.458 588.101,-404.22 615.09,-399.419 638.641,-395.918"/>
<polygon fill="#9a32cd" stroke="#9a32cd" points="474.347,-437.29 466.394,-444.291 476.977,-443.777 474.347,-437.29"/>
<text text-anchor="middle" x="582.617" y="-412.458" font-family="Helvetica,sans-Serif" font-size="10.00"> solution</text>
</g>
<!-- Node20 -->
<g id="node20" class="node"><title>Node20</title>
<polygon fill="white" stroke="#bfbfbf" points="673.413,-661.458 673.413,-679.458 728.866,-679.458 728.866,-661.458 673.413,-661.458"/>
<text text-anchor="middle" x="701.139" y="-667.458" font-family="Helvetica,sans-Serif" font-size="10.00">MatrixXd</text>
</g>
<!-- Node20&#45;&gt;Node1 -->
<g id="edge41" class="edge"><title>Node20&#45;&gt;Node1</title>
<path fill="none" stroke="#9a32cd" stroke-dasharray="5,2" d="M731.596,-683.45C771.854,-699.993 846.698,-726.458 913.506,-726.458 913.506,-726.458 913.506,-726.458 1372.02,-726.458 1550,-726.458 1640.95,-451.251 1657.02,-397.499"/>
<polygon fill="#9a32cd" stroke="#9a32cd" points="732.942,-680.219 722.367,-679.58 730.236,-686.675 732.942,-680.219"/>
<text text-anchor="middle" x="1099.44" y="-748.458" font-family="Helvetica,sans-Serif" font-size="10.00"> taskiProjector</text>
<text text-anchor="middle" x="1099.44" y="-738.458" font-family="Helvetica,sans-Serif" font-size="10.00">projector</text>
<text text-anchor="middle" x="1099.44" y="-728.458" font-family="Helvetica,sans-Serif" font-size="10.00">alpha</text>
</g>
<!-- Node20&#45;&gt;Node4 -->
<g id="edge19" class="edge"><title>Node20&#45;&gt;Node4</title>
<path fill="none" stroke="#9a32cd" stroke-dasharray="5,2" d="M739.436,-667.413C753.998,-664.825 770.235,-660.09 783.038,-651.458 803.343,-637.769 836.354,-583.687 846.629,-561.458 889.414,-468.896 907.828,-344.713 912.351,-309.885"/>
<polygon fill="#9a32cd" stroke="#9a32cd" points="738.574,-664.003 729.201,-668.943 739.609,-670.926 738.574,-664.003"/>
<text text-anchor="middle" x="823.833" y="-634.458" font-family="Helvetica,sans-Serif" font-size="10.00"> _jacobian</text>
</g>
<!-- Node20&#45;&gt;Node26 -->
<g id="edge34" class="edge"><title>Node20&#45;&gt;Node26</title>
<path fill="none" stroke="#9a32cd" stroke-dasharray="5,2" d="M739.435,-670.442C792.046,-669.068 889.936,-661.486 964.384,-626.458 1021.2,-599.728 1072.59,-541.938 1091.13,-519.564"/>
<polygon fill="#9a32cd" stroke="#9a32cd" points="739.157,-666.946 729.229,-670.644 739.296,-673.945 739.157,-666.946"/>
<text text-anchor="middle" x="914.506" y="-689.458" font-family="Helvetica,sans-Serif" font-size="10.00"> _Atotal</text>
<text text-anchor="middle" x="914.506" y="-679.458" font-family="Helvetica,sans-Serif" font-size="10.00">_A</text>
<text text-anchor="middle" x="914.506" y="-669.458" font-family="Helvetica,sans-Serif" font-size="10.00">_C</text>
<text text-anchor="middle" x="914.506" y="-659.458" font-family="Helvetica,sans-Serif" font-size="10.00">_G</text>
</g>
<!-- Node21&#45;&gt;Node4 -->
<g id="edge20" class="edge"><title>Node21&#45;&gt;Node4</title>
<path fill="none" stroke="#9a32cd" stroke-dasharray="5,2" d="M749.662,-341.086C777.9,-334.804 814.382,-326.477 846.629,-318.458 857.831,-315.673 870.036,-312.445 880.916,-309.499"/>
<polygon fill="#9a32cd" stroke="#9a32cd" points="748.661,-337.723 739.655,-343.304 750.175,-344.558 748.661,-337.723"/>
<text text-anchor="middle" x="823.833" y="-331.458" font-family="Helvetica,sans-Serif" font-size="10.00"> x</text>
</g>
<!-- Node33 -->
<g id="node33" class="node"><title>Node33</title>
<g id="a_node33"><a xlink:href="../../d5/d40/classocra_1_1BaseVariable.html" target="_top" xlink:title="Implements a basic variable. ">
<polygon fill="white" stroke="black" points="864.629,-599.458 864.629,-617.458 964.384,-617.458 964.384,-599.458 864.629,-599.458"/>
<text text-anchor="middle" x="914.506" y="-605.458" font-family="Helvetica,sans-Serif" font-size="10.00">ocra::BaseVariable</text>
</a>
</g>
</g>
<!-- Node21&#45;&gt;Node33 -->
<g id="edge44" class="edge"><title>Node21&#45;&gt;Node33</title>
<path fill="none" stroke="midnightblue" d="M749.705,-352.095C762.25,-354.658 774.619,-359.778 783.038,-369.458 815.956,-407.306 766.359,-558.218 801.038,-594.458 817.023,-611.162 842.027,-615.482 864.404,-615.267"/>
<polygon fill="midnightblue" stroke="midnightblue" points="750.095,-348.614 739.678,-350.549 749.029,-355.532 750.095,-348.614"/>
</g>
<!-- Node22 -->
<g id="node22" class="node"><title>Node22</title>
<g id="a_node22"><a xlink:href="../../d0/d29/classocra_1_1Component.html" target="_top" xlink:title="ocra::Component\&lt; Variable,\l CompositeVariable, VariableParenthood \&gt;">
<polygon fill="white" stroke="black" points="341.63,-370.458 341.63,-398.458 545.994,-398.458 545.994,-370.458 341.63,-370.458"/>
<text text-anchor="start" x="349.63" y="-386.458" font-family="Helvetica,sans-Serif" font-size="10.00">ocra::Component&lt; Variable,</text>
<text text-anchor="middle" x="443.812" y="-376.458" font-family="Helvetica,sans-Serif" font-size="10.00"> CompositeVariable, VariableParenthood &gt;</text>
</a>
</g>
</g>
<!-- Node22&#45;&gt;Node21 -->
<g id="edge21" class="edge"><title>Node22&#45;&gt;Node21</title>
<path fill="none" stroke="midnightblue" d="M556.231,-370.058C594.266,-365.142 634.257,-359.973 662.401,-356.336"/>
<polygon fill="midnightblue" stroke="midnightblue" points="555.56,-366.616 546.091,-371.369 556.457,-373.558 555.56,-366.616"/>
</g>
<!-- Node23 -->
<g id="node23" class="node"><title>Node23</title>
<polygon fill="white" stroke="#bfbfbf" points="407.455,-333.458 407.455,-351.458 480.169,-351.458 480.169,-333.458 407.455,-333.458"/>
<text text-anchor="middle" x="443.812" y="-339.458" font-family="Helvetica,sans-Serif" font-size="10.00">noncopyable</text>
</g>
<!-- Node23&#45;&gt;Node21 -->
<g id="edge23" class="edge"><title>Node23&#45;&gt;Node21</title>
<path fill="none" stroke="#8b1a1a" d="M490.339,-344.063C539.418,-345.793 616.645,-348.515 662.448,-350.13"/>
<polygon fill="#8b1a1a" stroke="#8b1a1a" points="490.431,-340.564 480.314,-343.71 490.185,-347.56 490.431,-340.564"/>
</g>
<!-- Node24 -->
<g id="node24" class="node"><title>Node24</title>
<g id="a_node24"><a xlink:href="../../dc/d20/classocra_1_1VariableHasRestrictedClassDerivation.html" target="_top" xlink:title="ocra::VariableHasRestricted\lClassDerivation">
<polygon fill="white" stroke="black" points="373.932,-286.458 373.932,-314.458 513.692,-314.458 513.692,-286.458 373.932,-286.458"/>
<text text-anchor="start" x="381.932" y="-302.458" font-family="Helvetica,sans-Serif" font-size="10.00">ocra::VariableHasRestricted</text>
<text text-anchor="middle" x="443.812" y="-292.458" font-family="Helvetica,sans-Serif" font-size="10.00">ClassDerivation</text>
</a>
</g>
</g>
<!-- Node24&#45;&gt;Node21 -->
<g id="edge24" class="edge"><title>Node24&#45;&gt;Node21</title>
<path fill="none" stroke="#8b1a1a" d="M523.905,-316.257C570.109,-325.486 626.289,-336.707 662.606,-343.961"/>
<polygon fill="#8b1a1a" stroke="#8b1a1a" points="524.399,-312.786 513.907,-314.26 523.028,-319.651 524.399,-312.786"/>
</g>
<!-- Node25 -->
<g id="node25" class="node"><title>Node25</title>
<g id="a_node25"><a xlink:href="../../de/d84/classocra_1_1LessThanZeroConstraintPtr.html" target="_top" xlink:title="ocra::LessThanZeroConstraint\lPtr\&lt; LinearizedCoulombFunction \&gt;">
<polygon fill="white" stroke="black" points="1285.75,-275.458 1285.75,-303.458 1456.28,-303.458 1456.28,-275.458 1285.75,-275.458"/>
<text text-anchor="start" x="1293.75" y="-291.458" font-family="Helvetica,sans-Serif" font-size="10.00">ocra::LessThanZeroConstraint</text>
<text text-anchor="middle" x="1371.02" y="-281.458" font-family="Helvetica,sans-Serif" font-size="10.00">Ptr&lt; LinearizedCoulombFunction &gt;</text>
</a>
</g>
</g>
<!-- Node25&#45;&gt;Node1 -->
<g id="edge26" class="edge"><title>Node25&#45;&gt;Node1</title>
<path fill="none" stroke="#9a32cd" stroke-dasharray="5,2" d="M1466.42,-285.119C1502.45,-286.764 1543.03,-292.784 1577.11,-308.458 1612.09,-324.552 1641.22,-361.85 1653.44,-379.232"/>
<polygon fill="#9a32cd" stroke="#9a32cd" points="1466.5,-281.62 1456.38,-284.766 1466.25,-288.615 1466.5,-281.62"/>
<text text-anchor="middle" x="1525.69" y="-310.458" font-family="Helvetica,sans-Serif" font-size="10.00"> frictionConstraint</text>
</g>
<!-- Node26&#45;&gt;Node1 -->
<g id="edge27" class="edge"><title>Node26&#45;&gt;Node1</title>
<path fill="none" stroke="#9a32cd" stroke-dasharray="5,2" d="M1166.07,-510.89C1260.7,-509.264 1439.24,-497.677 1577.11,-438.458 1603.42,-427.154 1631.4,-408.643 1647.07,-397.596"/>
<polygon fill="#9a32cd" stroke="#9a32cd" points="1165.74,-507.395 1155.79,-511.033 1165.83,-514.394 1165.74,-507.395"/>
<text text-anchor="middle" x="1371.02" y="-506.458" font-family="Helvetica,sans-Serif" font-size="10.00"> solver</text>
</g>
<!-- Node27&#45;&gt;Node26 -->
<g id="edge28" class="edge"><title>Node27&#45;&gt;Node26</title>
<path fill="none" stroke="midnightblue" d="M927.298,-207.487C938.531,-225.493 955.069,-254.323 964.384,-281.458 991.468,-360.354 948.704,-400.783 1001.38,-465.458 1016.05,-483.46 1039.53,-494.61 1059.73,-501.309"/>
<polygon fill="midnightblue" stroke="midnightblue" points="930.009,-205.228 921.683,-198.676 924.106,-208.99 930.009,-205.228"/>
</g>
<!-- Node28&#45;&gt;Node27 -->
<g id="edge31" class="edge"><title>Node28&#45;&gt;Node27</title>
<path fill="none" stroke="#9a32cd" stroke-dasharray="5,2" d="M772.74,-377.152C776.462,-374.983 779.937,-372.439 783.038,-369.458 804.649,-348.685 786.086,-330.439 801.038,-304.458 827.783,-257.987 877.674,-216.535 900.948,-198.714"/>
<polygon fill="#9a32cd" stroke="#9a32cd" points="771.136,-374.04 763.673,-381.56 774.197,-380.336 771.136,-374.04"/>
<text text-anchor="middle" x="823.833" y="-306.458" font-family="Helvetica,sans-Serif" font-size="10.00"> _result</text>
</g>
<!-- Node29 -->
<g id="node29" class="node"><title>Node29</title>
<g id="a_node29"><a xlink:href="../../d5/d01/classocra_1_1EqualZeroConstraintPtr.html" target="_top" xlink:title="ocra::EqualZeroConstraint\lPtr\&lt; LinearFunction \&gt;">
<polygon fill="white" stroke="black" points="1304.66,-228.458 1304.66,-256.458 1437.38,-256.458 1437.38,-228.458 1304.66,-228.458"/>
<text text-anchor="start" x="1312.66" y="-244.458" font-family="Helvetica,sans-Serif" font-size="10.00">ocra::EqualZeroConstraint</text>
<text text-anchor="middle" x="1371.02" y="-234.458" font-family="Helvetica,sans-Serif" font-size="10.00">Ptr&lt; LinearFunction &gt;</text>
</a>
</g>
</g>
<!-- Node29&#45;&gt;Node1 -->
<g id="edge35" class="edge"><title>Node29&#45;&gt;Node1</title>
<path fill="none" stroke="#9a32cd" stroke-dasharray="5,2" d="M1447.65,-239.535C1488.64,-241.242 1538.62,-248.92 1577.11,-272.458 1620.12,-298.763 1646.97,-356.806 1656.11,-379.3"/>
<polygon fill="#9a32cd" stroke="#9a32cd" points="1447.54,-236.03 1437.44,-239.223 1447.33,-243.026 1447.54,-236.03"/>
<text text-anchor="middle" x="1525.69" y="-274.458" font-family="Helvetica,sans-Serif" font-size="10.00"> innerTaskAsConstraint</text>
</g>
<!-- Node30&#45;&gt;Node1 -->
<g id="edge36" class="edge"><title>Node30&#45;&gt;Node1</title>
<path fill="none" stroke="#9a32cd" stroke-dasharray="5,2" d="M946.127,-30.6619C953.03,-35.1527 959.693,-40.7377 964.384,-47.4584 1008.89,-111.223 949.395,-160.635 1001.38,-218.458 1081.13,-307.159 1445.29,-361.769 1595.03,-380.825"/>
<polygon fill="#9a32cd" stroke="#9a32cd" points="947.786,-27.5777 937.386,-25.5557 944.256,-33.622 947.786,-27.5777"/>
<text text-anchor="middle" x="1241.63" y="-326.458" font-family="Helvetica,sans-Serif" font-size="10.00"> innerModel</text>
</g>
<!-- Node31 -->
<g id="node31" class="node"><title>Node31</title>
<g id="a_node31"><a xlink:href="../../df/d6c/classocra_1_1Objective.html" target="_top" xlink:title="ocra::Objective\&lt; Squared\lLinearFunction \&gt;">
<polygon fill="white" stroke="black" points="1306.46,-181.458 1306.46,-209.458 1435.58,-209.458 1435.58,-181.458 1306.46,-181.458"/>
<text text-anchor="start" x="1314.46" y="-197.458" font-family="Helvetica,sans-Serif" font-size="10.00">ocra::Objective&lt; Squared</text>
<text text-anchor="middle" x="1371.02" y="-187.458" font-family="Helvetica,sans-Serif" font-size="10.00">LinearFunction &gt;</text>
</a>
</g>
</g>
<!-- Node31&#45;&gt;Node1 -->
<g id="edge39" class="edge"><title>Node31&#45;&gt;Node1</title>
<path fill="none" stroke="#9a32cd" stroke-dasharray="5,2" d="M1446.07,-187.114C1488.05,-186.201 1539.54,-191.902 1577.11,-218.458 1634.17,-258.792 1653.4,-349.695 1658.25,-379.095"/>
<polygon fill="#9a32cd" stroke="#9a32cd" points="1445.76,-183.622 1435.89,-187.467 1446.01,-190.618 1445.76,-183.622"/>
<text text-anchor="middle" x="1525.69" y="-230.458" font-family="Helvetica,sans-Serif" font-size="10.00"> regulationObjective</text>
<text text-anchor="middle" x="1525.69" y="-220.458" font-family="Helvetica,sans-Serif" font-size="10.00">innerTaskAsObjective</text>
</g>
<!-- Node32 -->
<g id="node32" class="node"><title>Node32</title>
<g id="a_node32"><a xlink:href="../../d1/d29/structocra_1_1FunctionInterfaceMapping.html" target="_top" xlink:title="ocra::FunctionInterfaceMapping\l\&lt; Objective\&lt; SquaredLinearFunction \&gt; \&gt;">
<polygon fill="white" stroke="black" points="1001.38,-181.458 1001.38,-209.458 1197.5,-209.458 1197.5,-181.458 1001.38,-181.458"/>
<text text-anchor="start" x="1009.38" y="-197.458" font-family="Helvetica,sans-Serif" font-size="10.00">ocra::FunctionInterfaceMapping</text>
<text text-anchor="middle" x="1099.44" y="-187.458" font-family="Helvetica,sans-Serif" font-size="10.00">&lt; Objective&lt; SquaredLinearFunction &gt; &gt;</text>
</a>
</g>
</g>
<!-- Node32&#45;&gt;Node31 -->
<g id="edge40" class="edge"><title>Node32&#45;&gt;Node31</title>
<path fill="none" stroke="midnightblue" d="M1208,-195.458C1241.23,-195.458 1276.77,-195.458 1306.07,-195.458"/>
<polygon fill="midnightblue" stroke="midnightblue" points="1207.77,-191.959 1197.77,-195.458 1207.77,-198.959 1207.77,-191.959"/>
</g>
<!-- Node33&#45;&gt;Node1 -->
<g id="edge42" class="edge"><title>Node33&#45;&gt;Node1</title>
<path fill="none" stroke="#9a32cd" stroke-dasharray="5,2" d="M974.65,-602.926C1075.11,-592.578 1284.88,-566.838 1456.28,-518.458 1512.05,-502.718 1528.66,-501.249 1577.11,-469.458 1608.99,-448.534 1639,-414.051 1652.35,-397.662"/>
<polygon fill="#9a32cd" stroke="#9a32cd" points="973.996,-599.475 964.401,-603.967 974.704,-606.439 973.996,-599.475"/>
<text text-anchor="middle" x="1241.63" y="-572.458" font-family="Helvetica,sans-Serif" font-size="10.00"> fcVar</text>
</g>
<!-- Node34 -->
<g id="node34" class="node"><title>Node34</title>
<g id="a_node34"><a xlink:href="../../db/d90/classocra_1_1Leaf.html" target="_top" xlink:title="ocra::Leaf\&lt; BaseVariable \&gt;">
<polygon fill="white" stroke="black" points="632.912,-624.458 632.912,-642.458 769.366,-642.458 769.366,-624.458 632.912,-624.458"/>
<text text-anchor="middle" x="701.139" y="-630.458" font-family="Helvetica,sans-Serif" font-size="10.00">ocra::Leaf&lt; BaseVariable &gt;</text>
</a>
</g>
</g>
<!-- Node34&#45;&gt;Node33 -->
<g id="edge43" class="edge"><title>Node34&#45;&gt;Node33</title>
<path fill="none" stroke="midnightblue" d="M779.663,-626.903C801.366,-624.809 824.947,-622.289 846.629,-619.458 852.463,-618.697 858.569,-617.813 864.618,-616.884"/>
<polygon fill="midnightblue" stroke="midnightblue" points="779.133,-623.438 769.508,-627.866 779.794,-630.407 779.133,-623.438"/>
</g>
<!-- Node35&#45;&gt;Node1 -->
<g id="edge45" class="edge"><title>Node35&#45;&gt;Node1</title>
<path fill="none" stroke="#9a32cd" stroke-dasharray="5,2" d="M926.128,-84.2011C937.637,-104.349 955.538,-138.574 964.384,-170.458 974.894,-208.343 954.034,-319.22 982.384,-346.458 1025.92,-388.287 1434.01,-390.057 1594.88,-389.102"/>
<polygon fill="#9a32cd" stroke="#9a32cd" points="929.122,-82.3866 921.06,-75.5128 923.076,-85.9141 929.122,-82.3866"/>
<text text-anchor="middle" x="1241.63" y="-387.458" font-family="Helvetica,sans-Serif" font-size="10.00"> feature</text>
</g>
<!-- Node36 -->
<g id="node36" class="node"><title>Node36</title>
<polygon fill="white" stroke="#bfbfbf" points="649.772,-32.4584 649.772,-50.4584 752.506,-50.4584 752.506,-32.4584 649.772,-32.4584"/>
<text text-anchor="middle" x="701.139" y="-38.4584" font-family="Helvetica,sans-Serif" font-size="10.00">boost::noncopyable</text>
</g>
<!-- Node36&#45;&gt;Node35 -->
<g id="edge47" class="edge"><title>Node36&#45;&gt;Node35</title>
<path fill="none" stroke="#8b1a1a" d="M762.865,-48.641C799.572,-52.9826 845.173,-58.3761 876.53,-62.085"/>
<polygon fill="#8b1a1a" stroke="#8b1a1a" points="763.109,-45.1455 752.767,-47.4466 762.287,-52.097 763.109,-45.1455"/>
</g>
</g>
</svg>
