<?xml version="1.0" encoding="UTF-8" standalone="no"?>
<!DOCTYPE svg PUBLIC "-//W3C//DTD SVG 1.1//EN"
 "http://www.w3.org/Graphics/SVG/1.1/DTD/svg11.dtd">
<!-- Generated by graphviz version 2.38.0 (20140413.2041)
 -->
<!-- Title: TaskConnection.h Pages: 1 -->
<svg width="466pt" height="192pt"
 viewBox="0.00 0.00 465.72 192.00" xmlns="http://www.w3.org/2000/svg" xmlns:xlink="http://www.w3.org/1999/xlink">
<g id="graph0" class="graph" transform="scale(1 1) rotate(0) translate(4 188)">
<title>TaskConnection.h</title>
<polygon fill="white" stroke="none" points="-4,4 -4,-188 461.721,-188 461.721,4 -4,4"/>
<!-- Node96 -->
<g id="node1" class="node"><title>Node96</title>
<polygon fill="#bfbfbf" stroke="black" points="235.948,-165.5 235.948,-183.5 331.44,-183.5 331.44,-165.5 235.948,-165.5"/>
<text text-anchor="middle" x="283.694" y="-171.5" font-family="Helvetica,sans-Serif" font-size="10.00">TaskConnection.h</text>
</g>
<!-- Node97 -->
<g id="node2" class="node"><title>Node97</title>
<g id="a_node2"><a xlink:href="../../db/d9a/ControllerClient_8h.html" target="_top" xlink:title="ControllerClient.h">
<polygon fill="white" stroke="black" points="117.066,-110.5 117.066,-128.5 210.322,-128.5 210.322,-110.5 117.066,-110.5"/>
<text text-anchor="middle" x="163.694" y="-116.5" font-family="Helvetica,sans-Serif" font-size="10.00">ControllerClient.h</text>
</a>
</g>
</g>
<!-- Node96&#45;&gt;Node97 -->
<g id="edge1" class="edge"><title>Node96&#45;&gt;Node97</title>
<path fill="none" stroke="midnightblue" d="M256.034,-161.283C233.327,-151.254 201.807,-137.333 182.091,-128.625"/>
<polygon fill="midnightblue" stroke="midnightblue" points="254.907,-164.612 265.469,-165.45 257.735,-158.209 254.907,-164.612"/>
</g>
<!-- Node101 -->
<g id="node6" class="node"><title>Node101</title>
<g id="a_node6"><a xlink:href="../../da/d00/TrajectoryThread_8h.html" target="_top" xlink:title="A thread for launching trajectory generators. ">
<polygon fill="white" stroke="black" points="233.639,-110.5 233.639,-128.5 333.75,-128.5 333.75,-110.5 233.639,-110.5"/>
<text text-anchor="middle" x="283.694" y="-116.5" font-family="Helvetica,sans-Serif" font-size="10.00">TrajectoryThread.h</text>
</a>
</g>
</g>
<!-- Node96&#45;&gt;Node101 -->
<g id="edge5" class="edge"><title>Node96&#45;&gt;Node101</title>
<path fill="none" stroke="midnightblue" d="M283.694,-155.175C283.694,-146.094 283.694,-135.595 283.694,-128.55"/>
<polygon fill="midnightblue" stroke="midnightblue" points="280.194,-155.219 283.694,-165.219 287.194,-155.219 280.194,-155.219"/>
</g>
<!-- Node103 -->
<g id="node8" class="node"><title>Node103</title>
<g id="a_node8"><a xlink:href="../../d1/d60/TaskConnection_8cpp.html" target="_top" xlink:title="TaskConnection.cpp">
<polygon fill="white" stroke="black" points="351.667,-110.5 351.667,-128.5 457.721,-128.5 457.721,-110.5 351.667,-110.5"/>
<text text-anchor="middle" x="404.694" y="-116.5" font-family="Helvetica,sans-Serif" font-size="10.00">TaskConnection.cpp</text>
</a>
</g>
</g>
<!-- Node96&#45;&gt;Node103 -->
<g id="edge7" class="edge"><title>Node96&#45;&gt;Node103</title>
<path fill="none" stroke="midnightblue" d="M311.278,-161.418C334.196,-151.379 366.175,-137.372 386.144,-128.625"/>
<polygon fill="midnightblue" stroke="midnightblue" points="309.827,-158.232 302.072,-165.45 312.636,-164.644 309.827,-158.232"/>
</g>
<!-- Node98 -->
<g id="node3" class="node"><title>Node98</title>
<g id="a_node3"><a xlink:href="../../d8/d80/ClientManager_8h.html" target="_top" xlink:title="Module class for the controller Client. ">
<polygon fill="white" stroke="black" points="5.28076,-55.5 5.28076,-73.5 94.1079,-73.5 94.1079,-55.5 5.28076,-55.5"/>
<text text-anchor="middle" x="49.6943" y="-61.5" font-family="Helvetica,sans-Serif" font-size="10.00">ClientManager.h</text>
</a>
</g>
</g>
<!-- Node97&#45;&gt;Node98 -->
<g id="edge2" class="edge"><title>Node97&#45;&gt;Node98</title>
<path fill="none" stroke="midnightblue" d="M137.126,-106.148C115.577,-96.1297 85.8176,-82.2941 67.1714,-73.6253"/>
<polygon fill="midnightblue" stroke="midnightblue" points="135.837,-109.408 146.38,-110.45 138.788,-103.061 135.837,-109.408"/>
</g>
<!-- Node100 -->
<g id="node5" class="node"><title>Node100</title>
<g id="a_node5"><a xlink:href="../../d2/d77/ControllerClient_8cpp.html" target="_top" xlink:title="ControllerClient.cpp">
<polygon fill="white" stroke="black" points="111.786,-55.5 111.786,-73.5 215.603,-73.5 215.603,-55.5 111.786,-55.5"/>
<text text-anchor="middle" x="163.694" y="-61.5" font-family="Helvetica,sans-Serif" font-size="10.00">ControllerClient.cpp</text>
</a>
</g>
</g>
<!-- Node97&#45;&gt;Node100 -->
<g id="edge4" class="edge"><title>Node97&#45;&gt;Node100</title>
<path fill="none" stroke="midnightblue" d="M163.694,-100.175C163.694,-91.0945 163.694,-80.5949 163.694,-73.5496"/>
<polygon fill="midnightblue" stroke="midnightblue" points="160.194,-100.219 163.694,-110.219 167.194,-100.219 160.194,-100.219"/>
</g>
<!-- Node99 -->
<g id="node4" class="node"><title>Node99</title>
<g id="a_node4"><a xlink:href="../../d9/d36/ClientManager_8cpp.html" target="_top" xlink:title="ClientManager.cpp">
<polygon fill="white" stroke="black" points="0,-0.5 0,-18.5 99.3887,-18.5 99.3887,-0.5 0,-0.5"/>
<text text-anchor="middle" x="49.6943" y="-6.5" font-family="Helvetica,sans-Serif" font-size="10.00">ClientManager.cpp</text>
</a>
</g>
</g>
<!-- Node98&#45;&gt;Node99 -->
<g id="edge3" class="edge"><title>Node98&#45;&gt;Node99</title>
<path fill="none" stroke="midnightblue" d="M49.6943,-45.1746C49.6943,-36.0945 49.6943,-25.5949 49.6943,-18.5496"/>
<polygon fill="midnightblue" stroke="midnightblue" points="46.1944,-45.2187 49.6943,-55.2188 53.1944,-45.2188 46.1944,-45.2187"/>
</g>
<!-- Node102 -->
<g id="node7" class="node"><title>Node102</title>
<g id="a_node7"><a xlink:href="../../d6/db4/TrajectoryThread_8cpp.html" target="_top" xlink:title="A thread for launching trajectory generators. ">
<polygon fill="white" stroke="black" points="233.358,-55.5 233.358,-73.5 344.031,-73.5 344.031,-55.5 233.358,-55.5"/>
<text text-anchor="middle" x="288.694" y="-61.5" font-family="Helvetica,sans-Serif" font-size="10.00">TrajectoryThread.cpp</text>
</a>
</g>
</g>
<!-- Node101&#45;&gt;Node102 -->
<g id="edge6" class="edge"><title>Node101&#45;&gt;Node102</title>
<path fill="none" stroke="midnightblue" d="M285.423,-100.175C286.28,-91.0945 287.27,-80.5949 287.935,-73.5496"/>
<polygon fill="midnightblue" stroke="midnightblue" points="281.93,-99.9342 284.476,-110.219 288.899,-100.592 281.93,-99.9342"/>
</g>
</g>
</svg>
