<?xml version="1.0" encoding="UTF-8" standalone="no"?>
<!DOCTYPE svg PUBLIC "-//W3C//DTD SVG 1.1//EN"
 "http://www.w3.org/Graphics/SVG/1.1/DTD/svg11.dtd">
<!-- Generated by graphviz version 2.38.0 (20140413.2041)
 -->
<!-- Title: QLDSolver.h Pages: 1 -->
<svg width="206pt" height="82pt"
 viewBox="0.00 0.00 205.93 82.00" xmlns="http://www.w3.org/2000/svg" xmlns:xlink="http://www.w3.org/1999/xlink">
<g id="graph0" class="graph" transform="scale(1 1) rotate(0) translate(4 78)">
<title>QLDSolver.h</title>
<polygon fill="white" stroke="none" points="-4,4 -4,-78 201.933,-78 201.933,4 -4,4"/>
<!-- Node57 -->
<g id="node1" class="node"><title>Node57</title>
<polygon fill="#bfbfbf" stroke="black" points="65.9531,-55.5 65.9531,-73.5 138.652,-73.5 138.652,-55.5 65.9531,-55.5"/>
<text text-anchor="middle" x="102.303" y="-61.5" font-family="Helvetica,sans-Serif" font-size="10.00">QLDSolver.h</text>
</g>
<!-- Node58 -->
<g id="node2" class="node"><title>Node58</title>
<g id="a_node2"><a xlink:href="../../d2/dcc/NewtonSolver_8cpp.html" target="_top" xlink:title="NewtonSolver.cpp">
<polygon fill="white" stroke="black" points="0,-0.5 0,-18.5 96.6055,-18.5 96.6055,-0.5 0,-0.5"/>
<text text-anchor="middle" x="48.3027" y="-6.5" font-family="Helvetica,sans-Serif" font-size="10.00">NewtonSolver.cpp</text>
</a>
</g>
</g>
<!-- Node57&#45;&gt;Node58 -->
<g id="edge1" class="edge"><title>Node57&#45;&gt;Node58</title>
<path fill="none" stroke="midnightblue" d="M86.6225,-48.1101C76.7738,-38.4438 64.4713,-26.3692 56.5042,-18.5496"/>
<polygon fill="midnightblue" stroke="midnightblue" points="84.2767,-50.7119 93.8652,-55.2188 89.18,-45.7161 84.2767,-50.7119"/>
</g>
<!-- Node59 -->
<g id="node3" class="node"><title>Node59</title>
<g id="a_node3"><a xlink:href="../../da/db2/QLDSolver_8cpp.html" target="_top" xlink:title="QLDSolver.cpp">
<polygon fill="white" stroke="black" points="114.672,-0.5 114.672,-18.5 197.933,-18.5 197.933,-0.5 114.672,-0.5"/>
<text text-anchor="middle" x="156.303" y="-6.5" font-family="Helvetica,sans-Serif" font-size="10.00">QLDSolver.cpp</text>
</a>
</g>
</g>
<!-- Node57&#45;&gt;Node59 -->
<g id="edge2" class="edge"><title>Node57&#45;&gt;Node59</title>
<path fill="none" stroke="midnightblue" d="M117.983,-48.1101C127.832,-38.4438 140.134,-26.3692 148.101,-18.5496"/>
<polygon fill="midnightblue" stroke="midnightblue" points="115.425,-45.7161 110.74,-55.2188 120.329,-50.7119 115.425,-45.7161"/>
</g>
</g>
</svg>
