<?xml version="1.0" encoding="UTF-8" standalone="no"?>
<!DOCTYPE svg PUBLIC "-//W3C//DTD SVG 1.1//EN"
 "http://www.w3.org/Graphics/SVG/1.1/DTD/svg11.dtd">
<!-- Generated by graphviz version 2.38.0 (20140413.2041)
 -->
<!-- Title: YarpUtilities.h Pages: 1 -->
<svg width="405pt" height="82pt"
 viewBox="0.00 0.00 404.91 82.00" xmlns="http://www.w3.org/2000/svg" xmlns:xlink="http://www.w3.org/1999/xlink">
<g id="graph0" class="graph" transform="scale(1 1) rotate(0) translate(4 78)">
<title>YarpUtilities.h</title>
<polygon fill="white" stroke="none" points="-4,4 -4,-78 400.914,-78 400.914,4 -4,4"/>
<!-- Node0 -->
<g id="node1" class="node"><title>Node0</title>
<polygon fill="#bfbfbf" stroke="black" points="131.696,-55.5 131.696,-73.5 208.648,-73.5 208.648,-55.5 131.696,-55.5"/>
<text text-anchor="middle" x="170.172" y="-61.5" font-family="Helvetica,sans-Serif" font-size="10.00">YarpUtilities.h</text>
</g>
<!-- Node1 -->
<g id="node2" class="node"><title>Node1</title>
<polygon fill="white" stroke="#bfbfbf" points="0,-0.5 0,-18.5 54.3447,-18.5 54.3447,-0.5 0,-0.5"/>
<text text-anchor="middle" x="27.1724" y="-6.5" font-family="Helvetica,sans-Serif" font-size="10.00">iostream</text>
</g>
<!-- Node0&#45;&gt;Node1 -->
<g id="edge1" class="edge"><title>Node0&#45;&gt;Node1</title>
<path fill="none" stroke="midnightblue" d="M148.454,-55.4504C124.516,-46.5784 85.7992,-32.2288 58.5621,-22.134"/>
<polygon fill="midnightblue" stroke="midnightblue" points="59.6885,-18.8188 49.0954,-18.6253 57.2557,-25.3825 59.6885,-18.8188"/>
</g>
<!-- Node2 -->
<g id="node3" class="node"><title>Node2</title>
<polygon fill="white" stroke="#bfbfbf" points="72.5566,-0.5 72.5566,-18.5 115.788,-18.5 115.788,-0.5 72.5566,-0.5"/>
<text text-anchor="middle" x="94.1724" y="-6.5" font-family="Helvetica,sans-Serif" font-size="10.00">vector</text>
</g>
<!-- Node0&#45;&gt;Node2 -->
<g id="edge2" class="edge"><title>Node0&#45;&gt;Node2</title>
<path fill="none" stroke="midnightblue" d="M158.63,-55.4504C146.912,-47.2788 128.531,-34.4604 114.391,-24.5996"/>
<polygon fill="midnightblue" stroke="midnightblue" points="116.028,-21.4746 105.824,-18.6253 112.024,-27.2163 116.028,-21.4746"/>
</g>
<!-- Node3 -->
<g id="node4" class="node"><title>Node3</title>
<polygon fill="white" stroke="#bfbfbf" points="133.542,-0.5 133.542,-18.5 206.803,-18.5 206.803,-0.5 133.542,-0.5"/>
<text text-anchor="middle" x="170.172" y="-6.5" font-family="Helvetica,sans-Serif" font-size="10.00">Eigen/Dense</text>
</g>
<!-- Node0&#45;&gt;Node3 -->
<g id="edge3" class="edge"><title>Node0&#45;&gt;Node3</title>
<path fill="none" stroke="midnightblue" d="M170.172,-55.2188C170.172,-48.1769 170.172,-37.8083 170.172,-28.8277"/>
<polygon fill="midnightblue" stroke="midnightblue" points="173.672,-28.5495 170.172,-18.5496 166.672,-28.5496 173.672,-28.5495"/>
</g>
<!-- Node4 -->
<g id="node5" class="node"><title>Node4</title>
<polygon fill="white" stroke="#bfbfbf" points="224.769,-0.5 224.769,-18.5 293.576,-18.5 293.576,-0.5 224.769,-0.5"/>
<text text-anchor="middle" x="259.172" y="-6.5" font-family="Helvetica,sans-Serif" font-size="10.00">Eigen/Lgsm</text>
</g>
<!-- Node0&#45;&gt;Node4 -->
<g id="edge4" class="edge"><title>Node0&#45;&gt;Node4</title>
<path fill="none" stroke="midnightblue" d="M183.69,-55.4504C197.804,-47.0453 220.173,-33.7241 236.903,-23.7618"/>
<polygon fill="midnightblue" stroke="midnightblue" points="238.727,-26.7491 245.528,-18.6253 235.145,-20.7347 238.727,-26.7491"/>
</g>
<!-- Node5 -->
<g id="node6" class="node"><title>Node5</title>
<polygon fill="white" stroke="#bfbfbf" points="311.431,-0.5 311.431,-18.5 396.914,-18.5 396.914,-0.5 311.431,-0.5"/>
<text text-anchor="middle" x="354.172" y="-6.5" font-family="Helvetica,sans-Serif" font-size="10.00">yarp/os/Bottle.h</text>
</g>
<!-- Node0&#45;&gt;Node5 -->
<g id="edge5" class="edge"><title>Node0&#45;&gt;Node5</title>
<path fill="none" stroke="midnightblue" d="M198.118,-55.4504C229.686,-46.3575 281.229,-31.5108 316.373,-21.3879"/>
<polygon fill="midnightblue" stroke="midnightblue" points="317.625,-24.6695 326.266,-18.5383 315.688,-17.943 317.625,-24.6695"/>
</g>
</g>
</svg>
