<?xml version="1.0" encoding="UTF-8" standalone="no"?>
<!DOCTYPE svg PUBLIC "-//W3C//DTD SVG 1.1//EN"
 "http://www.w3.org/Graphics/SVG/1.1/DTD/svg11.dtd">
<!-- Generated by graphviz version 2.38.0 (20140413.2041)
 -->
<!-- Title: OFSQP.h Pages: 1 -->
<svg width="184pt" height="82pt"
 viewBox="0.00 0.00 183.57 82.00" xmlns="http://www.w3.org/2000/svg" xmlns:xlink="http://www.w3.org/1999/xlink">
<g id="graph0" class="graph" transform="scale(1 1) rotate(0) translate(4 78)">
<title>OFSQP.h</title>
<polygon fill="white" stroke="none" points="-4,4 -4,-78 179.574,-78 179.574,4 -4,4"/>
<!-- Node0 -->
<g id="node1" class="node"><title>Node0</title>
<polygon fill="#bfbfbf" stroke="black" points="57.7036,-55.5 57.7036,-73.5 115.759,-73.5 115.759,-55.5 57.7036,-55.5"/>
<text text-anchor="middle" x="86.7314" y="-61.5" font-family="Helvetica,sans-Serif" font-size="10.00">OFSQP.h</text>
</g>
<!-- Node1 -->
<g id="node2" class="node"><title>Node1</title>
<polygon fill="white" stroke="#bfbfbf" points="0,-0.5 0,-18.5 45.4629,-18.5 45.4629,-0.5 0,-0.5"/>
<text text-anchor="middle" x="22.7314" y="-6.5" font-family="Helvetica,sans-Serif" font-size="10.00">stdio.h</text>
</g>
<!-- Node0&#45;&gt;Node1 -->
<g id="edge1" class="edge"><title>Node0&#45;&gt;Node1</title>
<path fill="none" stroke="midnightblue" d="M77.0112,-55.4504C67.3315,-47.4345 52.2524,-34.9471 40.4416,-25.1663"/>
<polygon fill="midnightblue" stroke="midnightblue" points="42.4774,-22.3078 32.5431,-18.6253 38.0127,-27.6992 42.4774,-22.3078"/>
</g>
<!-- Node2 -->
<g id="node3" class="node"><title>Node2</title>
<polygon fill="white" stroke="#bfbfbf" points="63.4458,-0.5 63.4458,-18.5 110.017,-18.5 110.017,-0.5 63.4458,-0.5"/>
<text text-anchor="middle" x="86.7314" y="-6.5" font-family="Helvetica,sans-Serif" font-size="10.00">math.h</text>
</g>
<!-- Node0&#45;&gt;Node2 -->
<g id="edge2" class="edge"><title>Node0&#45;&gt;Node2</title>
<path fill="none" stroke="midnightblue" d="M86.7314,-55.2188C86.7314,-48.1769 86.7314,-37.8083 86.7314,-28.8277"/>
<polygon fill="midnightblue" stroke="midnightblue" points="90.2315,-28.5495 86.7314,-18.5496 83.2315,-28.5496 90.2315,-28.5495"/>
</g>
<!-- Node3 -->
<g id="node4" class="node"><title>Node3</title>
<polygon fill="white" stroke="#bfbfbf" points="127.889,-0.5 127.889,-18.5 175.574,-18.5 175.574,-0.5 127.889,-0.5"/>
<text text-anchor="middle" x="151.731" y="-6.5" font-family="Helvetica,sans-Serif" font-size="10.00">stdlib.h</text>
</g>
<!-- Node0&#45;&gt;Node3 -->
<g id="edge3" class="edge"><title>Node0&#45;&gt;Node3</title>
<path fill="none" stroke="midnightblue" d="M96.6035,-55.4504C106.434,-47.4345 121.749,-34.9471 133.745,-25.1663"/>
<polygon fill="midnightblue" stroke="midnightblue" points="136.228,-27.6573 141.766,-18.6253 131.804,-22.2322 136.228,-27.6573"/>
</g>
</g>
</svg>
