<?xml version="1.0" encoding="UTF-8" standalone="no"?>
<!DOCTYPE svg PUBLIC "-//W3C//DTD SVG 1.1//EN"
 "http://www.w3.org/Graphics/SVG/1.1/DTD/svg11.dtd">
<!-- Generated by graphviz version 2.38.0 (20140413.2041)
 -->
<!-- Title: ObjQLD.cpp Pages: 1 -->
<svg width="118pt" height="137pt"
 viewBox="0.00 0.00 117.93 137.00" xmlns="http://www.w3.org/2000/svg" xmlns:xlink="http://www.w3.org/1999/xlink">
<g id="graph0" class="graph" transform="scale(1 1) rotate(0) translate(4 133)">
<title>ObjQLD.cpp</title>
<polygon fill="white" stroke="none" points="-4,4 -4,-133 113.926,-133 113.926,4 -4,4"/>
<!-- Node0 -->
<g id="node1" class="node"><title>Node0</title>
<polygon fill="#bfbfbf" stroke="black" points="19.4507,-110.5 19.4507,-128.5 90.4751,-128.5 90.4751,-110.5 19.4507,-110.5"/>
<text text-anchor="middle" x="54.9629" y="-116.5" font-family="Helvetica,sans-Serif" font-size="10.00">ObjQLD.cpp</text>
</g>
<!-- Node1 -->
<g id="node2" class="node"><title>Node1</title>
<g id="a_node2"><a xlink:href="../../db/d1f/ObjQLD_8h.html" target="_top" xlink:title="Declaration file of the ObjQLD class. This class should be merged with ocra::ObjQLD. It has been created to have a cml&#45;free solver. ">
<polygon fill="white" stroke="black" points="0,-55.5 0,-73.5 109.926,-73.5 109.926,-55.5 0,-55.5"/>
<text text-anchor="middle" x="54.9629" y="-61.5" font-family="Helvetica,sans-Serif" font-size="10.00">ocra/optim/ObjQLD.h</text>
</a>
</g>
</g>
<!-- Node0&#45;&gt;Node1 -->
<g id="edge1" class="edge"><title>Node0&#45;&gt;Node1</title>
<path fill="none" stroke="midnightblue" d="M54.9629,-110.219C54.9629,-103.177 54.9629,-92.8083 54.9629,-83.8277"/>
<polygon fill="midnightblue" stroke="midnightblue" points="58.463,-83.5495 54.9629,-73.5496 51.463,-83.5496 58.463,-83.5495"/>
</g>
<!-- Node2 -->
<g id="node3" class="node"><title>Node2</title>
<polygon fill="white" stroke="#bfbfbf" points="19.9976,-0.5 19.9976,-18.5 89.9282,-18.5 89.9282,-0.5 19.9976,-0.5"/>
<text text-anchor="middle" x="54.9629" y="-6.5" font-family="Helvetica,sans-Serif" font-size="10.00">Eigen/Eigen</text>
</g>
<!-- Node1&#45;&gt;Node2 -->
<g id="edge2" class="edge"><title>Node1&#45;&gt;Node2</title>
<path fill="none" stroke="midnightblue" d="M54.9629,-55.2188C54.9629,-48.1769 54.9629,-37.8083 54.9629,-28.8277"/>
<polygon fill="midnightblue" stroke="midnightblue" points="58.463,-28.5495 54.9629,-18.5496 51.463,-28.5496 58.463,-28.5495"/>
</g>
</g>
</svg>
