<?xml version="1.0" encoding="UTF-8" standalone="no"?>
<!DOCTYPE svg PUBLIC "-//W3C//DTD SVG 1.1//EN"
 "http://www.w3.org/Graphics/SVG/1.1/DTD/svg11.dtd">
<!-- Generated by graphviz version 2.38.0 (20140413.2041)
 -->
<!-- Title: FunctionUtilities.h Pages: 1 -->
<svg width="375pt" height="82pt"
 viewBox="0.00 0.00 375.11 82.00" xmlns="http://www.w3.org/2000/svg" xmlns:xlink="http://www.w3.org/1999/xlink">
<g id="graph0" class="graph" transform="scale(1 1) rotate(0) translate(4 78)">
<title>FunctionUtilities.h</title>
<polygon fill="white" stroke="none" points="-4,4 -4,-78 371.11,-78 371.11,4 -4,4"/>
<!-- Node33 -->
<g id="node1" class="node"><title>Node33</title>
<polygon fill="#bfbfbf" stroke="black" points="117.281,-55.5 117.281,-73.5 212.202,-73.5 212.202,-55.5 117.281,-55.5"/>
<text text-anchor="middle" x="164.741" y="-61.5" font-family="Helvetica,sans-Serif" font-size="10.00">FunctionUtilities.h</text>
</g>
<!-- Node34 -->
<g id="node2" class="node"><title>Node34</title>
<g id="a_node2"><a xlink:href="../../dd/d93/FunctionUtilities_8cpp.html" target="_top" xlink:title="FunctionUtilities.cpp">
<polygon fill="white" stroke="black" points="0,-0.5 0,-18.5 105.482,-18.5 105.482,-0.5 0,-0.5"/>
<text text-anchor="middle" x="52.7412" y="-6.5" font-family="Helvetica,sans-Serif" font-size="10.00">FunctionUtilities.cpp</text>
</a>
</g>
</g>
<!-- Node33&#45;&gt;Node34 -->
<g id="edge1" class="edge"><title>Node33&#45;&gt;Node34</title>
<path fill="none" stroke="midnightblue" d="M138.639,-51.1482C117.468,-41.1297 88.2307,-27.2941 69.9117,-18.6253"/>
<polygon fill="midnightblue" stroke="midnightblue" points="137.195,-54.3367 147.731,-55.4504 140.189,-48.0093 137.195,-54.3367"/>
</g>
<!-- Node35 -->
<g id="node3" class="node"><title>Node35</title>
<g id="a_node3"><a xlink:href="../../db/d6f/LinearTask_8cpp.html" target="_top" xlink:title="LinearTask.cpp">
<polygon fill="white" stroke="black" points="123.111,-0.5 123.111,-18.5 206.372,-18.5 206.372,-0.5 123.111,-0.5"/>
<text text-anchor="middle" x="164.741" y="-6.5" font-family="Helvetica,sans-Serif" font-size="10.00">LinearTask.cpp</text>
</a>
</g>
</g>
<!-- Node33&#45;&gt;Node35 -->
<g id="edge2" class="edge"><title>Node33&#45;&gt;Node35</title>
<path fill="none" stroke="midnightblue" d="M164.741,-45.1746C164.741,-36.0945 164.741,-25.5949 164.741,-18.5496"/>
<polygon fill="midnightblue" stroke="midnightblue" points="161.241,-45.2187 164.741,-55.2188 168.241,-45.2188 161.241,-45.2187"/>
</g>
<!-- Node36 -->
<g id="node4" class="node"><title>Node36</title>
<g id="a_node4"><a xlink:href="../../db/d64/SecondOrderLinearTask_8cpp.html" target="_top" xlink:title="SecondOrderLinearTask.cpp">
<polygon fill="white" stroke="black" points="224.372,-0.5 224.372,-18.5 367.11,-18.5 367.11,-0.5 224.372,-0.5"/>
<text text-anchor="middle" x="295.741" y="-6.5" font-family="Helvetica,sans-Serif" font-size="10.00">SecondOrderLinearTask.cpp</text>
</a>
</g>
</g>
<!-- Node33&#45;&gt;Node36 -->
<g id="edge3" class="edge"><title>Node33&#45;&gt;Node36</title>
<path fill="none" stroke="midnightblue" d="M193.942,-51.686C218.797,-41.63 253.845,-27.4503 275.658,-18.6253"/>
<polygon fill="midnightblue" stroke="midnightblue" points="192.595,-48.4554 184.637,-55.4504 195.22,-54.9444 192.595,-48.4554"/>
</g>
</g>
</svg>
