<?xml version="1.0" encoding="UTF-8" standalone="no"?>
<!DOCTYPE svg PUBLIC "-//W3C//DTD SVG 1.1//EN"
 "http://www.w3.org/Graphics/SVG/1.1/DTD/svg11.dtd">
<!-- Generated by graphviz version 2.38.0 (20140413.2041)
 -->
<!-- Title: FullState.cpp Pages: 1 -->
<svg width="1595pt" height="322pt"
 viewBox="0.00 0.00 1594.72 322.00" xmlns="http://www.w3.org/2000/svg" xmlns:xlink="http://www.w3.org/1999/xlink">
<g id="graph0" class="graph" transform="scale(1 1) rotate(0) translate(4 318)">
<title>FullState.cpp</title>
<polygon fill="white" stroke="none" points="-4,4 -4,-318 1590.72,-318 1590.72,4 -4,4"/>
<!-- Node0 -->
<g id="node1" class="node"><title>Node0</title>
<polygon fill="#bfbfbf" stroke="black" points="358.833,-295.5 358.833,-313.5 433.197,-313.5 433.197,-295.5 358.833,-295.5"/>
<text text-anchor="middle" x="396.015" y="-301.5" font-family="Helvetica,sans-Serif" font-size="10.00">FullState.cpp</text>
</g>
<!-- Node1 -->
<g id="node2" class="node"><title>Node1</title>
<g id="a_node2"><a xlink:href="../../da/dfc/FullState_8h.html" target="_top" xlink:title="ocra/control/FullState.h">
<polygon fill="white" stroke="black" points="123.601,-240.5 123.601,-258.5 242.428,-258.5 242.428,-240.5 123.601,-240.5"/>
<text text-anchor="middle" x="183.015" y="-246.5" font-family="Helvetica,sans-Serif" font-size="10.00">ocra/control/FullState.h</text>
</a>
</g>
</g>
<!-- Node0&#45;&gt;Node1 -->
<g id="edge1" class="edge"><title>Node0&#45;&gt;Node1</title>
<path fill="none" stroke="midnightblue" d="M363.665,-295.45C326.651,-286.24 265.914,-271.128 225.21,-260.999"/>
<polygon fill="midnightblue" stroke="midnightblue" points="225.869,-257.557 215.32,-258.538 224.179,-264.349 225.869,-257.557"/>
</g>
<!-- Node8 -->
<g id="node9" class="node"><title>Node8</title>
<g id="a_node9"><a xlink:href="../../d3/d5a/Model_8h.html" target="_top" xlink:title="Declaration file of the Model class. ">
<polygon fill="white" stroke="black" points="555.714,-240.5 555.714,-258.5 662.315,-258.5 662.315,-240.5 555.714,-240.5"/>
<text text-anchor="middle" x="609.015" y="-246.5" font-family="Helvetica,sans-Serif" font-size="10.00">ocra/control/Model.h</text>
</a>
</g>
</g>
<!-- Node0&#45;&gt;Node8 -->
<g id="edge8" class="edge"><title>Node0&#45;&gt;Node8</title>
<path fill="none" stroke="midnightblue" d="M428.365,-295.45C465.379,-286.24 526.115,-271.128 566.819,-260.999"/>
<polygon fill="midnightblue" stroke="midnightblue" points="567.851,-264.349 576.71,-258.538 566.16,-257.557 567.851,-264.349"/>
</g>
<!-- Node2 -->
<g id="node3" class="node"><title>Node2</title>
<g id="a_node3"><a xlink:href="../../df/d97/NamedInstance_8h.html" target="_top" xlink:title="ocra/optim/NamedInstance.h">
<polygon fill="white" stroke="black" points="413.094,-185.5 413.094,-203.5 556.936,-203.5 556.936,-185.5 413.094,-185.5"/>
<text text-anchor="middle" x="485.015" y="-191.5" font-family="Helvetica,sans-Serif" font-size="10.00">ocra/optim/NamedInstance.h</text>
</a>
</g>
</g>
<!-- Node1&#45;&gt;Node2 -->
<g id="edge2" class="edge"><title>Node1&#45;&gt;Node2</title>
<path fill="none" stroke="midnightblue" d="M228.882,-240.45C282.585,-231.026 371.509,-215.42 429.176,-205.299"/>
<polygon fill="midnightblue" stroke="midnightblue" points="429.967,-208.714 439.211,-203.538 428.757,-201.82 429.967,-208.714"/>
</g>
<!-- Node4 -->
<g id="node5" class="node"><title>Node4</title>
<g id="a_node5"><a xlink:href="../../df/d0a/Macros_8h.html" target="_top" xlink:title="ocra/util/Macros.h">
<polygon fill="white" stroke="black" points="60.5566,-185.5 60.5566,-203.5 155.473,-203.5 155.473,-185.5 60.5566,-185.5"/>
<text text-anchor="middle" x="108.015" y="-191.5" font-family="Helvetica,sans-Serif" font-size="10.00">ocra/util/Macros.h</text>
</a>
</g>
</g>
<!-- Node1&#45;&gt;Node4 -->
<g id="edge4" class="edge"><title>Node1&#45;&gt;Node4</title>
<path fill="none" stroke="midnightblue" d="M171.624,-240.45C160.06,-232.279 141.921,-219.46 127.967,-209.6"/>
<polygon fill="midnightblue" stroke="midnightblue" points="129.699,-206.538 119.513,-203.625 125.66,-212.255 129.699,-206.538"/>
</g>
<!-- Node6 -->
<g id="node7" class="node"><title>Node6</title>
<polygon fill="white" stroke="#bfbfbf" points="0,-130.5 0,-148.5 66.0293,-148.5 66.0293,-130.5 0,-130.5"/>
<text text-anchor="middle" x="33.0146" y="-136.5" font-family="Helvetica,sans-Serif" font-size="10.00">Eigen/Core</text>
</g>
<!-- Node1&#45;&gt;Node6 -->
<g id="edge6" class="edge"><title>Node1&#45;&gt;Node6</title>
<path fill="none" stroke="midnightblue" d="M123.353,-240.567C98.3374,-234.405 70.7679,-223.455 52.0146,-204 40.2939,-191.841 35.7674,-172.752 34.0385,-158.676"/>
<polygon fill="midnightblue" stroke="midnightblue" points="37.5233,-158.349 33.1677,-148.69 30.5497,-158.957 37.5233,-158.349"/>
</g>
<!-- Node7 -->
<g id="node8" class="node"><title>Node7</title>
<polygon fill="white" stroke="#bfbfbf" points="192.032,-130.5 192.032,-148.5 301.997,-148.5 301.997,-130.5 192.032,-130.5"/>
<text text-anchor="middle" x="247.015" y="-136.5" font-family="Helvetica,sans-Serif" font-size="10.00">boost/shared_ptr.hpp</text>
</g>
<!-- Node1&#45;&gt;Node7 -->
<g id="edge7" class="edge"><title>Node1&#45;&gt;Node7</title>
<path fill="none" stroke="midnightblue" d="M184.157,-240.15C186.177,-227.475 191.232,-202.954 202.015,-185 208.858,-173.606 219.282,-163.044 228.374,-155.071"/>
<polygon fill="midnightblue" stroke="midnightblue" points="230.777,-157.625 236.21,-148.528 226.29,-152.252 230.777,-157.625"/>
</g>
<!-- Node3 -->
<g id="node4" class="node"><title>Node3</title>
<polygon fill="white" stroke="#bfbfbf" points="801.788,-130.5 801.788,-148.5 842.241,-148.5 842.241,-130.5 801.788,-130.5"/>
<text text-anchor="middle" x="822.015" y="-136.5" font-family="Helvetica,sans-Serif" font-size="10.00">string</text>
</g>
<!-- Node2&#45;&gt;Node3 -->
<g id="edge3" class="edge"><title>Node2&#45;&gt;Node3</title>
<path fill="none" stroke="midnightblue" d="M536.198,-185.45C607.268,-174.273 733.615,-154.403 791.508,-145.298"/>
<polygon fill="midnightblue" stroke="midnightblue" points="792.158,-148.739 801.492,-143.728 791.07,-141.824 792.158,-148.739"/>
</g>
<!-- Node5 -->
<g id="node6" class="node"><title>Node5</title>
<polygon fill="white" stroke="#bfbfbf" points="83.958,-130.5 83.958,-148.5 136.071,-148.5 136.071,-130.5 83.958,-130.5"/>
<text text-anchor="middle" x="110.015" y="-136.5" font-family="Helvetica,sans-Serif" font-size="10.00">memory</text>
</g>
<!-- Node4&#45;&gt;Node5 -->
<g id="edge5" class="edge"><title>Node4&#45;&gt;Node5</title>
<path fill="none" stroke="midnightblue" d="M108.327,-185.219C108.593,-178.177 108.984,-167.808 109.323,-158.828"/>
<polygon fill="midnightblue" stroke="midnightblue" points="112.831,-158.674 109.711,-148.55 105.836,-158.41 112.831,-158.674"/>
</g>
<!-- Node8&#45;&gt;Node2 -->
<g id="edge44" class="edge"><title>Node8&#45;&gt;Node2</title>
<path fill="none" stroke="midnightblue" d="M590.182,-240.45C569.789,-231.734 537.026,-217.731 513.486,-207.669"/>
<polygon fill="midnightblue" stroke="midnightblue" points="514.596,-204.337 504.025,-203.625 511.844,-210.774 514.596,-204.337"/>
</g>
<!-- Node8&#45;&gt;Node3 -->
<g id="edge51" class="edge"><title>Node8&#45;&gt;Node3</title>
<path fill="none" stroke="midnightblue" d="M662.515,-246.571C727.365,-242.976 830.981,-232.771 855.015,-204 867.266,-189.334 852.882,-169.368 839.447,-155.766"/>
<polygon fill="midnightblue" stroke="midnightblue" points="841.524,-152.912 831.855,-148.58 836.712,-157.996 841.524,-152.912"/>
</g>
<!-- Node8&#45;&gt;Node4 -->
<g id="edge49" class="edge"><title>Node8&#45;&gt;Node4</title>
<path fill="none" stroke="midnightblue" d="M555.399,-242.828C460.438,-232.782 263.503,-211.949 165.707,-201.603"/>
<polygon fill="midnightblue" stroke="midnightblue" points="166.018,-198.117 155.705,-200.545 165.282,-205.078 166.018,-198.117"/>
</g>
<!-- Node9 -->
<g id="node10" class="node"><title>Node9</title>
<g id="a_node10"><a xlink:href="../../d5/d55/MathTypes_8h.html" target="_top" xlink:title="Declaration file of the OptimizationVariable class. ">
<polygon fill="white" stroke="black" points="902.49,-185.5 902.49,-203.5 1013.54,-203.5 1013.54,-185.5 902.49,-185.5"/>
<text text-anchor="middle" x="958.015" y="-191.5" font-family="Helvetica,sans-Serif" font-size="10.00">ocra/util/MathTypes.h</text>
</a>
</g>
</g>
<!-- Node8&#45;&gt;Node9 -->
<g id="edge9" class="edge"><title>Node8&#45;&gt;Node9</title>
<path fill="none" stroke="midnightblue" d="M662.02,-240.45C724.595,-230.948 828.549,-215.161 895.135,-205.049"/>
<polygon fill="midnightblue" stroke="midnightblue" points="895.722,-208.5 905.083,-203.538 894.671,-201.579 895.722,-208.5"/>
</g>
<!-- Node12 -->
<g id="node13" class="node"><title>Node12</title>
<g id="a_node13"><a xlink:href="../../d8/ddc/ObserverSubject_8h.html" target="_top" xlink:title="Declaration file of the Observer, Subject and ObserverSubject classes. ">
<polygon fill="white" stroke="black" points="508.875,-130.5 508.875,-148.5 657.155,-148.5 657.155,-130.5 508.875,-130.5"/>
<text text-anchor="middle" x="583.015" y="-136.5" font-family="Helvetica,sans-Serif" font-size="10.00">ocra/optim/ObserverSubject.h</text>
</a>
</g>
</g>
<!-- Node8&#45;&gt;Node12 -->
<g id="edge12" class="edge"><title>Node8&#45;&gt;Node12</title>
<path fill="none" stroke="midnightblue" d="M555.382,-244.347C501.138,-238.901 422.701,-227.178 404.015,-204 373.236,-165.823 438.629,-150.572 498.842,-144.495"/>
<polygon fill="midnightblue" stroke="midnightblue" points="499.201,-147.977 508.832,-143.563 498.55,-141.007 499.201,-147.977"/>
</g>
<!-- Node23 -->
<g id="node24" class="node"><title>Node23</title>
<g id="a_node24"><a xlink:href="../../d7/d90/Variable_8h.html" target="_top" xlink:title="Declaration file of the Variable class. ">
<polygon fill="white" stroke="black" points="1031.14,-185.5 1031.14,-203.5 1140.89,-203.5 1140.89,-185.5 1031.14,-185.5"/>
<text text-anchor="middle" x="1086.01" y="-191.5" font-family="Helvetica,sans-Serif" font-size="10.00">ocra/optim/Variable.h</text>
</a>
</g>
</g>
<!-- Node8&#45;&gt;Node23 -->
<g id="edge26" class="edge"><title>Node8&#45;&gt;Node23</title>
<path fill="none" stroke="midnightblue" d="M662.33,-243.234C739.293,-235.531 886.26,-220.436 1020.96,-204.224"/>
<polygon fill="midnightblue" stroke="midnightblue" points="1021.54,-207.679 1031.05,-203.005 1020.7,-200.73 1021.54,-207.679"/>
</g>
<!-- Node33 -->
<g id="node34" class="node"><title>Node33</title>
<g id="a_node34"><a xlink:href="../../d9/d5d/ModelContacts_8h.html" target="_top" xlink:title="Declaration file of the ModelContacts class. ">
<polygon fill="white" stroke="black" points="210.983,-185.5 210.983,-203.5 357.046,-203.5 357.046,-185.5 210.983,-185.5"/>
<text text-anchor="middle" x="284.015" y="-191.5" font-family="Helvetica,sans-Serif" font-size="10.00">ocra/control/ModelContacts.h</text>
</a>
</g>
</g>
<!-- Node8&#45;&gt;Node33 -->
<g id="edge45" class="edge"><title>Node8&#45;&gt;Node33</title>
<path fill="none" stroke="midnightblue" d="M559.654,-240.45C501.622,-230.987 405.372,-215.291 343.336,-205.174"/>
<polygon fill="midnightblue" stroke="midnightblue" points="343.739,-201.694 333.306,-203.538 342.612,-208.602 343.739,-201.694"/>
</g>
<!-- Node34 -->
<g id="node35" class="node"><title>Node34</title>
<polygon fill="white" stroke="#bfbfbf" points="574.611,-185.5 574.611,-203.5 643.418,-203.5 643.418,-185.5 574.611,-185.5"/>
<text text-anchor="middle" x="609.015" y="-191.5" font-family="Helvetica,sans-Serif" font-size="10.00">Eigen/Lgsm</text>
</g>
<!-- Node8&#45;&gt;Node34 -->
<g id="edge50" class="edge"><title>Node8&#45;&gt;Node34</title>
<path fill="none" stroke="midnightblue" d="M609.015,-240.219C609.015,-233.177 609.015,-222.808 609.015,-213.828"/>
<polygon fill="midnightblue" stroke="midnightblue" points="612.515,-213.55 609.015,-203.55 605.515,-213.55 612.515,-213.55"/>
</g>
<!-- Node35 -->
<g id="node36" class="node"><title>Node35</title>
<polygon fill="white" stroke="#bfbfbf" points="661.842,-185.5 661.842,-203.5 716.187,-203.5 716.187,-185.5 661.842,-185.5"/>
<text text-anchor="middle" x="689.015" y="-191.5" font-family="Helvetica,sans-Serif" font-size="10.00">iostream</text>
</g>
<!-- Node8&#45;&gt;Node35 -->
<g id="edge52" class="edge"><title>Node8&#45;&gt;Node35</title>
<path fill="none" stroke="midnightblue" d="M621.165,-240.45C633.617,-232.201 653.217,-219.216 668.156,-209.319"/>
<polygon fill="midnightblue" stroke="midnightblue" points="670.347,-212.066 676.75,-203.625 666.48,-206.231 670.347,-212.066"/>
</g>
<!-- Node36 -->
<g id="node37" class="node"><title>Node36</title>
<polygon fill="white" stroke="#bfbfbf" points="734.209,-185.5 734.209,-203.5 845.82,-203.5 845.82,-185.5 734.209,-185.5"/>
<text text-anchor="middle" x="790.015" y="-191.5" font-family="Helvetica,sans-Serif" font-size="10.00">yarp/os/Semaphore.h</text>
</g>
<!-- Node8&#45;&gt;Node36 -->
<g id="edge53" class="edge"><title>Node8&#45;&gt;Node36</title>
<path fill="none" stroke="midnightblue" d="M636.505,-240.45C667.558,-231.357 718.261,-216.511 752.831,-206.388"/>
<polygon fill="midnightblue" stroke="midnightblue" points="753.95,-209.708 762.563,-203.538 751.982,-202.99 753.95,-209.708"/>
</g>
<!-- Node10 -->
<g id="node11" class="node"><title>Node10</title>
<polygon fill="white" stroke="#bfbfbf" points="921.384,-130.5 921.384,-148.5 994.645,-148.5 994.645,-130.5 921.384,-130.5"/>
<text text-anchor="middle" x="958.015" y="-136.5" font-family="Helvetica,sans-Serif" font-size="10.00">Eigen/Dense</text>
</g>
<!-- Node9&#45;&gt;Node10 -->
<g id="edge10" class="edge"><title>Node9&#45;&gt;Node10</title>
<path fill="none" stroke="midnightblue" d="M958.015,-185.219C958.015,-178.177 958.015,-167.808 958.015,-158.828"/>
<polygon fill="midnightblue" stroke="midnightblue" points="961.515,-158.55 958.015,-148.55 954.515,-158.55 961.515,-158.55"/>
</g>
<!-- Node11 -->
<g id="node12" class="node"><title>Node11</title>
<polygon fill="white" stroke="#bfbfbf" points="860.399,-130.5 860.399,-148.5 903.63,-148.5 903.63,-130.5 860.399,-130.5"/>
<text text-anchor="middle" x="882.015" y="-136.5" font-family="Helvetica,sans-Serif" font-size="10.00">cmath</text>
</g>
<!-- Node9&#45;&gt;Node11 -->
<g id="edge11" class="edge"><title>Node9&#45;&gt;Node11</title>
<path fill="none" stroke="midnightblue" d="M946.472,-185.45C934.754,-177.279 916.373,-164.46 902.233,-154.6"/>
<polygon fill="midnightblue" stroke="midnightblue" points="903.871,-151.475 893.666,-148.625 899.866,-157.216 903.871,-151.475"/>
</g>
<!-- Node13 -->
<g id="node14" class="node"><title>Node13</title>
<g id="a_node14"><a xlink:href="../../df/d67/ObserverSubjectBase_8h.html" target="_top" xlink:title="Declaration file of the Observer and Subject base classes. ">
<polygon fill="white" stroke="black" points="361.044,-65.5 361.044,-93.5 500.985,-93.5 500.985,-65.5 361.044,-65.5"/>
<text text-anchor="start" x="369.044" y="-81.5" font-family="Helvetica,sans-Serif" font-size="10.00">ocra/optim/ObserverSubject</text>
<text text-anchor="middle" x="431.015" y="-71.5" font-family="Helvetica,sans-Serif" font-size="10.00">Base.h</text>
</a>
</g>
</g>
<!-- Node12&#45;&gt;Node13 -->
<g id="edge13" class="edge"><title>Node12&#45;&gt;Node13</title>
<path fill="none" stroke="midnightblue" d="M561.88,-130.435C539.38,-121.85 503.144,-108.023 474.501,-97.0933"/>
<polygon fill="midnightblue" stroke="midnightblue" points="475.699,-93.8047 465.109,-93.5096 473.204,-100.345 475.699,-93.8047"/>
</g>
<!-- Node17 -->
<g id="node18" class="node"><title>Node17</title>
<polygon fill="white" stroke="#bfbfbf" points="206.328,-0.5 206.328,-28.5 305.702,-28.5 305.702,-0.5 206.328,-0.5"/>
<text text-anchor="start" x="214.328" y="-16.5" font-family="Helvetica,sans-Serif" font-size="10.00">boost/type_traits/is</text>
<text text-anchor="middle" x="256.015" y="-6.5" font-family="Helvetica,sans-Serif" font-size="10.00">_class.hpp</text>
</g>
<!-- Node12&#45;&gt;Node17 -->
<g id="edge25" class="edge"><title>Node12&#45;&gt;Node17</title>
<path fill="none" stroke="midnightblue" d="M508.612,-133.534C461.864,-128.185 401.302,-117.076 352.015,-94 321.817,-79.8617 293.021,-54.0991 274.983,-35.9518"/>
<polygon fill="midnightblue" stroke="midnightblue" points="277.416,-33.4329 267.939,-28.6967 272.394,-38.3093 277.416,-33.4329"/>
</g>
<!-- Node18 -->
<g id="node19" class="node"><title>Node18</title>
<polygon fill="white" stroke="#bfbfbf" points="752.328,-0.5 752.328,-28.5 851.702,-28.5 851.702,-0.5 752.328,-0.5"/>
<text text-anchor="start" x="760.328" y="-16.5" font-family="Helvetica,sans-Serif" font-size="10.00">boost/type_traits/is</text>
<text text-anchor="middle" x="802.015" y="-6.5" font-family="Helvetica,sans-Serif" font-size="10.00">_base_of.hpp</text>
</g>
<!-- Node12&#45;&gt;Node18 -->
<g id="edge23" class="edge"><title>Node12&#45;&gt;Node18</title>
<path fill="none" stroke="midnightblue" d="M601.71,-130.437C620.916,-121.972 651.524,-107.974 677.015,-94 711.237,-75.2396 748.981,-51.0182 773.944,-34.473"/>
<polygon fill="midnightblue" stroke="midnightblue" points="776.152,-37.2074 782.533,-28.749 772.27,-31.3824 776.152,-37.2074"/>
</g>
<!-- Node19 -->
<g id="node20" class="node"><title>Node19</title>
<polygon fill="white" stroke="#bfbfbf" points="615.596,-5.5 615.596,-23.5 734.433,-23.5 734.433,-5.5 615.596,-5.5"/>
<text text-anchor="middle" x="675.015" y="-11.5" font-family="Helvetica,sans-Serif" font-size="10.00">boost/static_assert.hpp</text>
</g>
<!-- Node12&#45;&gt;Node19 -->
<g id="edge22" class="edge"><title>Node12&#45;&gt;Node19</title>
<path fill="none" stroke="midnightblue" d="M605.13,-130.462C621.593,-123.352 643.328,-111.385 656.015,-94 668.909,-76.3303 673.144,-51.0455 674.485,-33.988"/>
<polygon fill="midnightblue" stroke="midnightblue" points="677.996,-33.8566 675.022,-23.688 671.006,-33.4922 677.996,-33.8566"/>
</g>
<!-- Node21 -->
<g id="node22" class="node"><title>Node21</title>
<g id="a_node22"><a xlink:href="../../db/ddf/ocra__events_8h.html" target="_top" xlink:title="ocra/optim/ocra_events.h">
<polygon fill="white" stroke="black" points="518.875,-70.5 518.875,-88.5 647.155,-88.5 647.155,-70.5 518.875,-70.5"/>
<text text-anchor="middle" x="583.015" y="-76.5" font-family="Helvetica,sans-Serif" font-size="10.00">ocra/optim/ocra_events.h</text>
</a>
</g>
</g>
<!-- Node12&#45;&gt;Node21 -->
<g id="edge21" class="edge"><title>Node12&#45;&gt;Node21</title>
<path fill="none" stroke="midnightblue" d="M583.015,-130.435C583.015,-122.389 583.015,-109.739 583.015,-99.1846"/>
<polygon fill="midnightblue" stroke="midnightblue" points="586.515,-98.8717 583.015,-88.8718 579.515,-98.8718 586.515,-98.8717"/>
</g>
<!-- Node22 -->
<g id="node23" class="node"><title>Node22</title>
<polygon fill="white" stroke="#bfbfbf" points="741.328,-65.5 741.328,-93.5 840.702,-93.5 840.702,-65.5 741.328,-65.5"/>
<text text-anchor="start" x="749.328" y="-81.5" font-family="Helvetica,sans-Serif" font-size="10.00">boost/type_traits/is</text>
<text text-anchor="middle" x="791.015" y="-71.5" font-family="Helvetica,sans-Serif" font-size="10.00">_convertible.hpp</text>
</g>
<!-- Node12&#45;&gt;Node22 -->
<g id="edge24" class="edge"><title>Node12&#45;&gt;Node22</title>
<path fill="none" stroke="midnightblue" d="M611.936,-130.435C643.528,-121.626 694.912,-107.298 734.553,-96.244"/>
<polygon fill="midnightblue" stroke="midnightblue" points="735.667,-99.567 744.36,-93.5096 733.787,-92.8242 735.667,-99.567"/>
</g>
<!-- Node14 -->
<g id="node15" class="node"><title>Node14</title>
<polygon fill="white" stroke="#bfbfbf" points="323.611,-5.5 323.611,-23.5 382.418,-23.5 382.418,-5.5 323.611,-5.5"/>
<text text-anchor="middle" x="353.015" y="-11.5" font-family="Helvetica,sans-Serif" font-size="10.00">functional</text>
</g>
<!-- Node13&#45;&gt;Node14 -->
<g id="edge14" class="edge"><title>Node13&#45;&gt;Node14</title>
<path fill="none" stroke="midnightblue" d="M414.853,-65.4464C402.115,-55.1577 384.357,-40.8153 371.138,-30.1379"/>
<polygon fill="midnightblue" stroke="midnightblue" points="373.183,-27.2907 363.204,-23.7301 368.785,-32.7363 373.183,-27.2907"/>
</g>
<!-- Node15 -->
<g id="node16" class="node"><title>Node15</title>
<polygon fill="white" stroke="#bfbfbf" points="1068.45,-5.5 1068.45,-23.5 1125.58,-23.5 1125.58,-5.5 1068.45,-5.5"/>
<text text-anchor="middle" x="1097.01" y="-11.5" font-family="Helvetica,sans-Serif" font-size="10.00">algorithm</text>
</g>
<!-- Node13&#45;&gt;Node15 -->
<g id="edge15" class="edge"><title>Node13&#45;&gt;Node15</title>
<path fill="none" stroke="midnightblue" d="M501.18,-66.1909C504.162,-65.7687 507.116,-65.3692 510.015,-65 715.646,-38.8084 963.633,-23.0612 1058,-17.6384"/>
<polygon fill="midnightblue" stroke="midnightblue" points="1058.43,-21.1197 1068.22,-17.0574 1058.03,-14.131 1058.43,-21.1197"/>
</g>
<!-- Node16 -->
<g id="node17" class="node"><title>Node16</title>
<polygon fill="white" stroke="#bfbfbf" points="399.97,-5.5 399.97,-23.5 478.06,-23.5 478.06,-5.5 399.97,-5.5"/>
<text text-anchor="middle" x="439.015" y="-11.5" font-family="Helvetica,sans-Serif" font-size="10.00">boost/any.hpp</text>
</g>
<!-- Node13&#45;&gt;Node16 -->
<g id="edge16" class="edge"><title>Node13&#45;&gt;Node16</title>
<path fill="none" stroke="midnightblue" d="M432.672,-65.4464C433.829,-56.3336 435.39,-44.0406 436.674,-33.9308"/>
<polygon fill="midnightblue" stroke="midnightblue" points="440.182,-34.0914 437.97,-23.7301 433.238,-33.2095 440.182,-34.0914"/>
</g>
<!-- Node13&#45;&gt;Node17 -->
<g id="edge17" class="edge"><title>Node13&#45;&gt;Node17</title>
<path fill="none" stroke="midnightblue" d="M394.755,-65.4464C367.771,-55.7321 330.748,-42.4041 301.735,-31.9592"/>
<polygon fill="midnightblue" stroke="midnightblue" points="302.823,-28.6311 292.228,-28.5369 300.452,-35.2173 302.823,-28.6311"/>
</g>
<!-- Node13&#45;&gt;Node18 -->
<g id="edge18" class="edge"><title>Node13&#45;&gt;Node18</title>
<path fill="none" stroke="midnightblue" d="M501.216,-66.4437C504.188,-65.9523 507.131,-65.4692 510.015,-65 610.308,-48.6837 638.414,-48.6828 742.226,-29.0641"/>
<polygon fill="midnightblue" stroke="midnightblue" points="743.006,-32.4785 752.174,-27.1683 741.696,-25.6022 743.006,-32.4785"/>
</g>
<!-- Node13&#45;&gt;Node19 -->
<g id="edge19" class="edge"><title>Node13&#45;&gt;Node19</title>
<path fill="none" stroke="midnightblue" d="M481.572,-65.4464C526.706,-53.7928 591.983,-36.9386 633.961,-26.1"/>
<polygon fill="midnightblue" stroke="midnightblue" points="635.037,-29.4369 643.845,-23.548 633.287,-22.6592 635.037,-29.4369"/>
</g>
<!-- Node20 -->
<g id="node21" class="node"><title>Node20</title>
<polygon fill="white" stroke="#bfbfbf" points="496.209,-0.5 496.209,-28.5 597.82,-28.5 597.82,-0.5 496.209,-0.5"/>
<text text-anchor="start" x="504.209" y="-16.5" font-family="Helvetica,sans-Serif" font-size="10.00">boost/ptr_container</text>
<text text-anchor="middle" x="547.015" y="-6.5" font-family="Helvetica,sans-Serif" font-size="10.00">/ptr_vector.hpp</text>
</g>
<!-- Node13&#45;&gt;Node20 -->
<g id="edge20" class="edge"><title>Node13&#45;&gt;Node20</title>
<path fill="none" stroke="midnightblue" d="M455.05,-65.4464C472.159,-56.1545 495.356,-43.5562 514.171,-33.3374"/>
<polygon fill="midnightblue" stroke="midnightblue" points="515.893,-36.3852 523.01,-28.5369 512.552,-30.2339 515.893,-36.3852"/>
</g>
<!-- Node23&#45;&gt;Node3 -->
<g id="edge42" class="edge"><title>Node23&#45;&gt;Node3</title>
<path fill="none" stroke="midnightblue" d="M1035.74,-185.448C990.193,-177.823 921.054,-165.433 852.63,-149.208"/>
<polygon fill="midnightblue" stroke="midnightblue" points="853.084,-145.718 842.543,-146.787 851.45,-152.525 853.084,-145.718"/>
</g>
<!-- Node23&#45;&gt;Node12 -->
<g id="edge27" class="edge"><title>Node23&#45;&gt;Node12</title>
<path fill="none" stroke="midnightblue" d="M1031.05,-185.975C1028.34,-185.637 1025.65,-185.31 1023.01,-185 899.485,-170.424 756.091,-156.475 667.446,-148.197"/>
<polygon fill="midnightblue" stroke="midnightblue" points="667.727,-144.708 657.446,-147.265 667.078,-151.678 667.727,-144.708"/>
</g>
<!-- Node24 -->
<g id="node25" class="node"><title>Node24</title>
<g id="a_node25"><a xlink:href="../../d1/de6/Composite_8h.html" target="_top" xlink:title="Utility classes and functions to implement the Composite design pattern. ">
<polygon fill="white" stroke="black" points="1139.21,-130.5 1139.21,-148.5 1260.81,-148.5 1260.81,-130.5 1139.21,-130.5"/>
<text text-anchor="middle" x="1200.01" y="-136.5" font-family="Helvetica,sans-Serif" font-size="10.00">ocra/optim/Composite.h</text>
</a>
</g>
</g>
<!-- Node23&#45;&gt;Node24 -->
<g id="edge28" class="edge"><title>Node23&#45;&gt;Node24</title>
<path fill="none" stroke="midnightblue" d="M1103.33,-185.45C1121.91,-176.812 1151.66,-162.98 1173.26,-152.94"/>
<polygon fill="midnightblue" stroke="midnightblue" points="1174.95,-156.015 1182.54,-148.625 1171.99,-149.667 1174.95,-156.015"/>
</g>
<!-- Node27 -->
<g id="node28" class="node"><title>Node27</title>
<polygon fill="white" stroke="#bfbfbf" points="1467.31,-70.5 1467.31,-88.5 1586.72,-88.5 1586.72,-70.5 1467.31,-70.5"/>
<text text-anchor="middle" x="1527.01" y="-76.5" font-family="Helvetica,sans-Serif" font-size="10.00">boost/noncopyable.hpp</text>
</g>
<!-- Node23&#45;&gt;Node27 -->
<g id="edge41" class="edge"><title>Node23&#45;&gt;Node27</title>
<path fill="none" stroke="midnightblue" d="M1120.32,-185.453C1157.33,-176.717 1217.94,-162.236 1270.01,-149 1347.47,-129.314 1437.66,-104.936 1487.97,-91.2091"/>
<polygon fill="midnightblue" stroke="midnightblue" points="1489.06,-94.5403 1497.78,-88.5286 1487.21,-87.7878 1489.06,-94.5403"/>
</g>
<!-- Node29 -->
<g id="node30" class="node"><title>Node29</title>
<polygon fill="white" stroke="#bfbfbf" points="858.399,-70.5 858.399,-88.5 901.63,-88.5 901.63,-70.5 858.399,-70.5"/>
<text text-anchor="middle" x="880.015" y="-76.5" font-family="Helvetica,sans-Serif" font-size="10.00">vector</text>
</g>
<!-- Node23&#45;&gt;Node29 -->
<g id="edge43" class="edge"><title>Node23&#45;&gt;Node29</title>
<path fill="none" stroke="midnightblue" d="M1077.03,-185.159C1062.55,-172.054 1032.78,-146.444 1004.01,-130 995.544,-125.157 944.573,-105.271 910.673,-92.225"/>
<polygon fill="midnightblue" stroke="midnightblue" points="911.781,-88.9011 901.19,-88.5827 909.271,-95.4357 911.781,-88.9011"/>
</g>
<!-- Node32 -->
<g id="node33" class="node"><title>Node32</title>
<polygon fill="white" stroke="#bfbfbf" points="1051.05,-130.5 1051.05,-148.5 1120.98,-148.5 1120.98,-130.5 1051.05,-130.5"/>
<text text-anchor="middle" x="1086.01" y="-136.5" font-family="Helvetica,sans-Serif" font-size="10.00">Eigen/Eigen</text>
</g>
<!-- Node23&#45;&gt;Node32 -->
<g id="edge40" class="edge"><title>Node23&#45;&gt;Node32</title>
<path fill="none" stroke="midnightblue" d="M1086.01,-185.219C1086.01,-178.177 1086.01,-167.808 1086.01,-158.828"/>
<polygon fill="midnightblue" stroke="midnightblue" points="1089.51,-158.55 1086.01,-148.55 1082.51,-158.55 1089.51,-158.55"/>
</g>
<!-- Node24&#45;&gt;Node15 -->
<g id="edge37" class="edge"><title>Node24&#45;&gt;Node15</title>
<path fill="none" stroke="midnightblue" d="M1224.11,-130.493C1240.55,-123.624 1261.08,-111.947 1271.01,-94 1277.26,-82.7229 1278.78,-75.2854 1271.01,-65 1254.74,-43.4469 1181.79,-28.5114 1135.67,-21.03"/>
<polygon fill="midnightblue" stroke="midnightblue" points="1136.13,-17.5585 1125.7,-19.4608 1135.04,-24.4734 1136.13,-17.5585"/>
</g>
<!-- Node24&#45;&gt;Node18 -->
<g id="edge33" class="edge"><title>Node24&#45;&gt;Node18</title>
<path fill="none" stroke="midnightblue" d="M1209.91,-130.423C1226.46,-115.984 1256.19,-85.3588 1238.01,-65 1213.41,-37.4476 975.843,-23.2317 862.114,-17.9587"/>
<polygon fill="midnightblue" stroke="midnightblue" points="861.984,-14.4493 851.835,-17.4909 861.665,-21.4421 861.984,-14.4493"/>
</g>
<!-- Node24&#45;&gt;Node19 -->
<g id="edge32" class="edge"><title>Node24&#45;&gt;Node19</title>
<path fill="none" stroke="midnightblue" d="M1138.94,-131.041C1075.91,-122.748 982.244,-108.587 949.015,-94 929.561,-85.4601 930.332,-73.8432 911.015,-65 902.563,-61.1309 792.216,-38.7989 725.447,-25.4886"/>
<polygon fill="midnightblue" stroke="midnightblue" points="726.02,-22.034 715.529,-23.5138 724.653,-28.8992 726.02,-22.034"/>
</g>
<!-- Node24&#45;&gt;Node22 -->
<g id="edge34" class="edge"><title>Node24&#45;&gt;Node22</title>
<path fill="none" stroke="midnightblue" d="M1139.18,-130.952C1051.35,-120.033 895.328,-100.55 850.825,-94.0219"/>
<polygon fill="midnightblue" stroke="midnightblue" points="851.357,-90.5627 840.934,-92.4618 850.267,-97.4772 851.357,-90.5627"/>
</g>
<!-- Node25 -->
<g id="node26" class="node"><title>Node25</title>
<g id="a_node26"><a xlink:href="../../de/df3/ocra__assert_8h.html" target="_top" xlink:title="ocra/optim/ocra_assert.h">
<polygon fill="white" stroke="black" points="1322.99,-70.5 1322.99,-88.5 1449.04,-88.5 1449.04,-70.5 1322.99,-70.5"/>
<text text-anchor="middle" x="1386.01" y="-76.5" font-family="Helvetica,sans-Serif" font-size="10.00">ocra/optim/ocra_assert.h</text>
</a>
</g>
</g>
<!-- Node24&#45;&gt;Node25 -->
<g id="edge29" class="edge"><title>Node24&#45;&gt;Node25</title>
<path fill="none" stroke="midnightblue" d="M1225.88,-130.435C1258.27,-120.335 1313.92,-102.98 1350.35,-91.6227"/>
<polygon fill="midnightblue" stroke="midnightblue" points="1351.57,-94.9077 1360.07,-88.5894 1349.48,-88.2251 1351.57,-94.9077"/>
</g>
<!-- Node24&#45;&gt;Node27 -->
<g id="edge31" class="edge"><title>Node24&#45;&gt;Node27</title>
<path fill="none" stroke="midnightblue" d="M1248.57,-130.458C1300.48,-121.784 1385.15,-107.41 1458.01,-94 1464.16,-92.8691 1470.61,-91.6507 1476.99,-90.425"/>
<polygon fill="midnightblue" stroke="midnightblue" points="1477.76,-93.8412 1486.91,-88.5045 1476.43,-86.9687 1477.76,-93.8412"/>
</g>
<!-- Node28 -->
<g id="node29" class="node"><title>Node28</title>
<polygon fill="white" stroke="#bfbfbf" points="958.476,-65.5 958.476,-93.5 1089.55,-93.5 1089.55,-65.5 958.476,-65.5"/>
<text text-anchor="start" x="966.476" y="-81.5" font-family="Helvetica,sans-Serif" font-size="10.00">boost/type_traits/has</text>
<text text-anchor="middle" x="1024.01" y="-71.5" font-family="Helvetica,sans-Serif" font-size="10.00">_nothrow_constructor.hpp</text>
</g>
<!-- Node24&#45;&gt;Node28 -->
<g id="edge35" class="edge"><title>Node24&#45;&gt;Node28</title>
<path fill="none" stroke="midnightblue" d="M1175.54,-130.435C1149.15,-121.738 1106.44,-107.661 1073.07,-96.6671"/>
<polygon fill="midnightblue" stroke="midnightblue" points="1074.08,-93.3154 1063.49,-93.5096 1071.89,-99.9637 1074.08,-93.3154"/>
</g>
<!-- Node24&#45;&gt;Node29 -->
<g id="edge36" class="edge"><title>Node24&#45;&gt;Node29</title>
<path fill="none" stroke="midnightblue" d="M1139.29,-130.46C1068.82,-120.871 957.041,-104.787 916.015,-94 913.672,-93.3842 911.271,-92.6718 908.874,-91.9025"/>
<polygon fill="midnightblue" stroke="midnightblue" points="909.806,-88.5206 899.211,-88.522 907.495,-95.1279 909.806,-88.5206"/>
</g>
<!-- Node30 -->
<g id="node31" class="node"><title>Node30</title>
<polygon fill="white" stroke="#bfbfbf" points="1107.84,-70.5 1107.84,-88.5 1152.19,-88.5 1152.19,-70.5 1107.84,-70.5"/>
<text text-anchor="middle" x="1130.01" y="-76.5" font-family="Helvetica,sans-Serif" font-size="10.00">iosfwd</text>
</g>
<!-- Node24&#45;&gt;Node30 -->
<g id="edge38" class="edge"><title>Node24&#45;&gt;Node30</title>
<path fill="none" stroke="midnightblue" d="M1190.28,-130.435C1179.33,-121.362 1161.31,-106.434 1147.83,-95.2589"/>
<polygon fill="midnightblue" stroke="midnightblue" points="1150.05,-92.5569 1140.12,-88.8718 1145.59,-97.9471 1150.05,-92.5569"/>
</g>
<!-- Node31 -->
<g id="node32" class="node"><title>Node31</title>
<polygon fill="white" stroke="#bfbfbf" points="1170.61,-70.5 1170.61,-88.5 1229.42,-88.5 1229.42,-70.5 1170.61,-70.5"/>
<text text-anchor="middle" x="1200.01" y="-76.5" font-family="Helvetica,sans-Serif" font-size="10.00">stdexcept</text>
</g>
<!-- Node24&#45;&gt;Node31 -->
<g id="edge39" class="edge"><title>Node24&#45;&gt;Node31</title>
<path fill="none" stroke="midnightblue" d="M1200.01,-130.435C1200.01,-122.389 1200.01,-109.739 1200.01,-99.1846"/>
<polygon fill="midnightblue" stroke="midnightblue" points="1203.51,-98.8717 1200.01,-88.8718 1196.51,-98.8718 1203.51,-98.8717"/>
</g>
<!-- Node26 -->
<g id="node27" class="node"><title>Node26</title>
<polygon fill="white" stroke="#bfbfbf" points="1364.95,-5.5 1364.95,-23.5 1407.08,-23.5 1407.08,-5.5 1364.95,-5.5"/>
<text text-anchor="middle" x="1386.01" y="-11.5" font-family="Helvetica,sans-Serif" font-size="10.00">cstdio</text>
</g>
<!-- Node25&#45;&gt;Node26 -->
<g id="edge30" class="edge"><title>Node25&#45;&gt;Node26</title>
<path fill="none" stroke="midnightblue" d="M1386.01,-70.2639C1386.01,-61.0635 1386.01,-45.881 1386.01,-33.8326"/>
<polygon fill="midnightblue" stroke="midnightblue" points="1389.51,-33.5389 1386.01,-23.539 1382.51,-33.539 1389.51,-33.5389"/>
</g>
<!-- Node33&#45;&gt;Node6 -->
<g id="edge47" class="edge"><title>Node33&#45;&gt;Node6</title>
<path fill="none" stroke="midnightblue" d="M245.893,-185.45C200.28,-175.819 124.097,-159.733 76.3082,-149.642"/>
<polygon fill="midnightblue" stroke="midnightblue" points="76.778,-146.164 66.2706,-147.522 75.3317,-153.013 76.778,-146.164"/>
</g>
<!-- Node33&#45;&gt;Node7 -->
<g id="edge48" class="edge"><title>Node33&#45;&gt;Node7</title>
<path fill="none" stroke="midnightblue" d="M278.233,-185.219C272.935,-177.629 264.939,-166.175 258.366,-156.76"/>
<polygon fill="midnightblue" stroke="midnightblue" points="261.228,-154.746 252.634,-148.55 255.489,-158.753 261.228,-154.746"/>
</g>
<!-- Node33&#45;&gt;Node12 -->
<g id="edge46" class="edge"><title>Node33&#45;&gt;Node12</title>
<path fill="none" stroke="midnightblue" d="M329.426,-185.45C382.596,-176.026 470.636,-160.42 527.731,-150.299"/>
<polygon fill="midnightblue" stroke="midnightblue" points="528.431,-153.73 537.666,-148.538 527.209,-146.837 528.431,-153.73"/>
</g>
</g>
</svg>
