<?xml version="1.0" encoding="UTF-8" standalone="no"?>
<!DOCTYPE svg PUBLIC "-//W3C//DTD SVG 1.1//EN"
 "http://www.w3.org/Graphics/SVG/1.1/DTD/svg11.dtd">
<!-- Generated by graphviz version 2.38.0 (20140413.2041)
 -->
<!-- Title: SumOfLinearFunctions.h Pages: 1 -->
<svg width="1492pt" height="387pt"
 viewBox="0.00 0.00 1492.34 387.00" xmlns="http://www.w3.org/2000/svg" xmlns:xlink="http://www.w3.org/1999/xlink">
<g id="graph0" class="graph" transform="scale(1 1) rotate(0) translate(4 383)">
<title>SumOfLinearFunctions.h</title>
<polygon fill="white" stroke="none" points="-4,4 -4,-383 1488.34,-383 1488.34,4 -4,4"/>
<!-- Node0 -->
<g id="node1" class="node"><title>Node0</title>
<polygon fill="#bfbfbf" stroke="black" points="194.325,-360.5 194.325,-378.5 320.936,-378.5 320.936,-360.5 194.325,-360.5"/>
<text text-anchor="middle" x="257.63" y="-366.5" font-family="Helvetica,sans-Serif" font-size="10.00">SumOfLinearFunctions.h</text>
</g>
<!-- Node1 -->
<g id="node2" class="node"><title>Node1</title>
<g id="a_node2"><a xlink:href="../../dc/d8a/LinearFunction_8h.html" target="_top" xlink:title="Declaration file of the LinearFunction class. ">
<polygon fill="white" stroke="black" points="187.653,-305.5 187.653,-323.5 327.608,-323.5 327.608,-305.5 187.653,-305.5"/>
<text text-anchor="middle" x="257.63" y="-311.5" font-family="Helvetica,sans-Serif" font-size="10.00">ocra/optim/LinearFunction.h</text>
</a>
</g>
</g>
<!-- Node0&#45;&gt;Node1 -->
<g id="edge1" class="edge"><title>Node0&#45;&gt;Node1</title>
<path fill="none" stroke="midnightblue" d="M257.63,-360.219C257.63,-353.177 257.63,-342.808 257.63,-333.828"/>
<polygon fill="midnightblue" stroke="midnightblue" points="261.13,-333.55 257.63,-323.55 254.13,-333.55 261.13,-333.55"/>
</g>
<!-- Node10 -->
<g id="node11" class="node"><title>Node10</title>
<polygon fill="white" stroke="#bfbfbf" points="221.015,-70.5 221.015,-88.5 264.246,-88.5 264.246,-70.5 221.015,-70.5"/>
<text text-anchor="middle" x="242.63" y="-76.5" font-family="Helvetica,sans-Serif" font-size="10.00">vector</text>
</g>
<!-- Node0&#45;&gt;Node10 -->
<g id="edge58" class="edge"><title>Node0&#45;&gt;Node10</title>
<path fill="none" stroke="midnightblue" d="M194.323,-362.654C132.172,-353.02 46.6304,-327.577 46.6304,-260.5 46.6304,-260.5 46.6304,-260.5 46.6304,-198.5 46.6304,-178.87 163.518,-119.187 216.761,-93.0196"/>
<polygon fill="midnightblue" stroke="midnightblue" points="218.474,-96.0782 225.92,-88.5408 215.399,-89.7898 218.474,-96.0782"/>
</g>
<!-- Node36 -->
<g id="node37" class="node"><title>Node36</title>
<g id="a_node37"><a xlink:href="../../d4/d54/MergedVariable_8h.html" target="_top" xlink:title="ocra/optim/MergedVariable.h">
<polygon fill="white" stroke="black" points="846.8,-250.5 846.8,-268.5 990.461,-268.5 990.461,-250.5 846.8,-250.5"/>
<text text-anchor="middle" x="918.63" y="-256.5" font-family="Helvetica,sans-Serif" font-size="10.00">ocra/optim/MergedVariable.h</text>
</a>
</g>
</g>
<!-- Node0&#45;&gt;Node36 -->
<g id="edge54" class="edge"><title>Node0&#45;&gt;Node36</title>
<path fill="none" stroke="midnightblue" d="M306.773,-360.471C426.063,-340.98 730.596,-291.223 859.532,-270.156"/>
<polygon fill="midnightblue" stroke="midnightblue" points="860.309,-273.576 869.614,-268.509 859.18,-266.667 860.309,-273.576"/>
</g>
<!-- Node2 -->
<g id="node3" class="node"><title>Node2</title>
<g id="a_node3"><a xlink:href="../../df/df5/Function_8h.html" target="_top" xlink:title="Declaration file of the Function class. ">
<polygon fill="white" stroke="black" points="425.552,-250.5 425.552,-268.5 537.709,-268.5 537.709,-250.5 425.552,-250.5"/>
<text text-anchor="middle" x="481.63" y="-256.5" font-family="Helvetica,sans-Serif" font-size="10.00">ocra/optim/Function.h</text>
</a>
</g>
</g>
<!-- Node1&#45;&gt;Node2 -->
<g id="edge2" class="edge"><title>Node1&#45;&gt;Node2</title>
<path fill="none" stroke="midnightblue" d="M291.651,-305.45C330.742,-296.201 394.992,-280.999 437.799,-270.871"/>
<polygon fill="midnightblue" stroke="midnightblue" points="438.732,-274.247 447.657,-268.538 437.12,-267.435 438.732,-274.247"/>
</g>
<!-- Node34 -->
<g id="node35" class="node"><title>Node34</title>
<g id="a_node35"><a xlink:href="../../df/d0a/Macros_8h.html" target="_top" xlink:title="ocra/util/Macros.h">
<polygon fill="white" stroke="black" points="199.172,-250.5 199.172,-268.5 294.088,-268.5 294.088,-250.5 199.172,-250.5"/>
<text text-anchor="middle" x="246.63" y="-256.5" font-family="Helvetica,sans-Serif" font-size="10.00">ocra/util/Macros.h</text>
</a>
</g>
</g>
<!-- Node1&#45;&gt;Node34 -->
<g id="edge52" class="edge"><title>Node1&#45;&gt;Node34</title>
<path fill="none" stroke="midnightblue" d="M255.912,-305.219C254.434,-298.099 252.25,-287.577 250.372,-278.529"/>
<polygon fill="midnightblue" stroke="midnightblue" points="253.76,-277.63 248.301,-268.55 246.906,-279.052 253.76,-277.63"/>
</g>
<!-- Node3 -->
<g id="node4" class="node"><title>Node3</title>
<g id="a_node4"><a xlink:href="../../de/d94/IFunction_8h.html" target="_top" xlink:title="Declaration file of the IFunction interface. ">
<polygon fill="white" stroke="black" points="230.163,-130.5 230.163,-148.5 345.098,-148.5 345.098,-130.5 230.163,-130.5"/>
<text text-anchor="middle" x="287.63" y="-136.5" font-family="Helvetica,sans-Serif" font-size="10.00">ocra/optim/IFunction.h</text>
</a>
</g>
</g>
<!-- Node2&#45;&gt;Node3 -->
<g id="edge3" class="edge"><title>Node2&#45;&gt;Node3</title>
<path fill="none" stroke="midnightblue" d="M425.168,-258.168C387.155,-254.917 338.511,-244.411 307.63,-214 292.932,-199.524 288.72,-175.398 287.673,-158.757"/>
<polygon fill="midnightblue" stroke="midnightblue" points="291.168,-158.532 287.363,-148.644 284.171,-158.746 291.168,-158.532"/>
</g>
<!-- Node12 -->
<g id="node13" class="node"><title>Node12</title>
<g id="a_node13"><a xlink:href="../../d9/d54/IFunctionProperties_8h.html" target="_top" xlink:title="ocra/optim/IFunctionProperties.h">
<polygon fill="white" stroke="black" points="489.375,-190.5 489.375,-208.5 649.886,-208.5 649.886,-190.5 489.375,-190.5"/>
<text text-anchor="middle" x="569.63" y="-196.5" font-family="Helvetica,sans-Serif" font-size="10.00">ocra/optim/IFunctionProperties.h</text>
</a>
</g>
</g>
<!-- Node2&#45;&gt;Node12 -->
<g id="edge12" class="edge"><title>Node2&#45;&gt;Node12</title>
<path fill="none" stroke="midnightblue" d="M493.866,-250.435C507.972,-241.138 531.405,-225.694 548.481,-214.439"/>
<polygon fill="midnightblue" stroke="midnightblue" points="550.791,-217.109 557.215,-208.683 546.939,-211.264 550.791,-217.109"/>
</g>
<!-- Node14 -->
<g id="node15" class="node"><title>Node14</title>
<g id="a_node15"><a xlink:href="../../db/d47/AbilitySet_8h.html" target="_top" xlink:title="ocra/optim/AbilitySet.h">
<polygon fill="white" stroke="black" points="144.887,-190.5 144.887,-208.5 260.374,-208.5 260.374,-190.5 144.887,-190.5"/>
<text text-anchor="middle" x="202.63" y="-196.5" font-family="Helvetica,sans-Serif" font-size="10.00">ocra/optim/AbilitySet.h</text>
</a>
</g>
</g>
<!-- Node2&#45;&gt;Node14 -->
<g id="edge15" class="edge"><title>Node2&#45;&gt;Node14</title>
<path fill="none" stroke="midnightblue" d="M443.13,-250.496C393.135,-240.103 305.836,-221.955 251.301,-210.618"/>
<polygon fill="midnightblue" stroke="midnightblue" points="251.687,-207.123 241.184,-208.515 250.262,-213.977 251.687,-207.123"/>
</g>
<!-- Node15 -->
<g id="node16" class="node"><title>Node15</title>
<g id="a_node16"><a xlink:href="../../d1/d87/CoupledInputOutputSize_8h.html" target="_top" xlink:title="ocra/optim/CoupledInputOutput\lSize.h">
<polygon fill="white" stroke="black" points="316.143,-185.5 316.143,-213.5 471.118,-213.5 471.118,-185.5 316.143,-185.5"/>
<text text-anchor="start" x="324.143" y="-201.5" font-family="Helvetica,sans-Serif" font-size="10.00">ocra/optim/CoupledInputOutput</text>
<text text-anchor="middle" x="393.63" y="-191.5" font-family="Helvetica,sans-Serif" font-size="10.00">Size.h</text>
</a>
</g>
</g>
<!-- Node2&#45;&gt;Node15 -->
<g id="edge18" class="edge"><title>Node2&#45;&gt;Node15</title>
<path fill="none" stroke="midnightblue" d="M469.394,-250.435C457.201,-242.399 438.039,-229.769 422.037,-219.223"/>
<polygon fill="midnightblue" stroke="midnightblue" points="423.813,-216.201 413.537,-213.62 419.961,-222.046 423.813,-216.201"/>
</g>
<!-- Node16 -->
<g id="node17" class="node"><title>Node16</title>
<g id="a_node17"><a xlink:href="../../d7/d90/Variable_8h.html" target="_top" xlink:title="Declaration file of the Variable class. ">
<polygon fill="white" stroke="black" points="905.753,-190.5 905.753,-208.5 1015.51,-208.5 1015.51,-190.5 905.753,-190.5"/>
<text text-anchor="middle" x="960.63" y="-196.5" font-family="Helvetica,sans-Serif" font-size="10.00">ocra/optim/Variable.h</text>
</a>
</g>
</g>
<!-- Node2&#45;&gt;Node16 -->
<g id="edge19" class="edge"><title>Node2&#45;&gt;Node16</title>
<path fill="none" stroke="midnightblue" d="M537.734,-251.903C610.569,-243.312 741.622,-227.765 853.63,-214 867.239,-212.328 881.817,-210.507 895.696,-208.761"/>
<polygon fill="midnightblue" stroke="midnightblue" points="896.172,-212.229 905.655,-207.505 895.296,-205.284 896.172,-212.229"/>
</g>
<!-- Node17 -->
<g id="node18" class="node"><title>Node17</title>
<g id="a_node18"><a xlink:href="../../d8/ddc/ObserverSubject_8h.html" target="_top" xlink:title="Declaration file of the Observer, Subject and ObserverSubject classes. ">
<polygon fill="white" stroke="black" points="790.49,-130.5 790.49,-148.5 938.771,-148.5 938.771,-130.5 790.49,-130.5"/>
<text text-anchor="middle" x="864.63" y="-136.5" font-family="Helvetica,sans-Serif" font-size="10.00">ocra/optim/ObserverSubject.h</text>
</a>
</g>
</g>
<!-- Node2&#45;&gt;Node17 -->
<g id="edge49" class="edge"><title>Node2&#45;&gt;Node17</title>
<path fill="none" stroke="midnightblue" d="M537.875,-256.966C621.927,-253.712 775.289,-243.768 820.63,-214 840.604,-200.887 852.837,-175.286 859.178,-158.035"/>
<polygon fill="midnightblue" stroke="midnightblue" points="862.495,-159.153 862.382,-148.559 855.863,-156.911 862.495,-159.153"/>
</g>
<!-- Node33 -->
<g id="node34" class="node"><title>Node33</title>
<g id="a_node34"><a xlink:href="../../df/d97/NamedInstance_8h.html" target="_top" xlink:title="ocra/optim/NamedInstance.h">
<polygon fill="white" stroke="black" points="667.709,-190.5 667.709,-208.5 811.551,-208.5 811.551,-190.5 667.709,-190.5"/>
<text text-anchor="middle" x="739.63" y="-196.5" font-family="Helvetica,sans-Serif" font-size="10.00">ocra/optim/NamedInstance.h</text>
</a>
</g>
</g>
<!-- Node2&#45;&gt;Node33 -->
<g id="edge50" class="edge"><title>Node2&#45;&gt;Node33</title>
<path fill="none" stroke="midnightblue" d="M517.233,-250.496C563.273,-240.146 643.522,-222.106 693.992,-210.76"/>
<polygon fill="midnightblue" stroke="midnightblue" points="694.99,-214.123 703.979,-208.515 693.455,-207.293 694.99,-214.123"/>
</g>
<!-- Node4 -->
<g id="node5" class="node"><title>Node4</title>
<g id="a_node5"><a xlink:href="../../d5/d55/MathTypes_8h.html" target="_top" xlink:title="Declaration file of the OptimizationVariable class. ">
<polygon fill="white" stroke="black" points="19.106,-70.5 19.106,-88.5 130.155,-88.5 130.155,-70.5 19.106,-70.5"/>
<text text-anchor="middle" x="74.6304" y="-76.5" font-family="Helvetica,sans-Serif" font-size="10.00">ocra/util/MathTypes.h</text>
</a>
</g>
</g>
<!-- Node3&#45;&gt;Node4 -->
<g id="edge4" class="edge"><title>Node3&#45;&gt;Node4</title>
<path fill="none" stroke="midnightblue" d="M258.014,-130.435C220.525,-120.227 155.821,-102.608 114.148,-91.2607"/>
<polygon fill="midnightblue" stroke="midnightblue" points="114.906,-87.8398 104.338,-88.5894 113.067,-94.5939 114.906,-87.8398"/>
</g>
<!-- Node7 -->
<g id="node8" class="node"><title>Node7</title>
<g id="a_node8"><a xlink:href="../../de/df3/ocra__assert_8h.html" target="_top" xlink:title="ocra/optim/ocra_assert.h">
<polygon fill="white" stroke="black" points="282.606,-70.5 282.606,-88.5 408.655,-88.5 408.655,-70.5 282.606,-70.5"/>
<text text-anchor="middle" x="345.63" y="-76.5" font-family="Helvetica,sans-Serif" font-size="10.00">ocra/optim/ocra_assert.h</text>
</a>
</g>
</g>
<!-- Node3&#45;&gt;Node7 -->
<g id="edge7" class="edge"><title>Node3&#45;&gt;Node7</title>
<path fill="none" stroke="midnightblue" d="M295.695,-130.435C304.512,-121.619 318.856,-107.274 329.914,-96.2165"/>
<polygon fill="midnightblue" stroke="midnightblue" points="332.662,-98.4177 337.259,-88.8718 327.713,-93.468 332.662,-98.4177"/>
</g>
<!-- Node9 -->
<g id="node10" class="node"><title>Node9</title>
<polygon fill="white" stroke="#bfbfbf" points="148.458,-70.5 148.458,-88.5 202.803,-88.5 202.803,-70.5 148.458,-70.5"/>
<text text-anchor="middle" x="175.63" y="-76.5" font-family="Helvetica,sans-Serif" font-size="10.00">iostream</text>
</g>
<!-- Node3&#45;&gt;Node9 -->
<g id="edge9" class="edge"><title>Node3&#45;&gt;Node9</title>
<path fill="none" stroke="midnightblue" d="M272.057,-130.435C253.522,-120.837 222.336,-104.687 200.461,-93.3586"/>
<polygon fill="midnightblue" stroke="midnightblue" points="201.922,-90.1737 191.432,-88.6831 198.703,-96.3897 201.922,-90.1737"/>
</g>
<!-- Node3&#45;&gt;Node10 -->
<g id="edge10" class="edge"><title>Node3&#45;&gt;Node10</title>
<path fill="none" stroke="midnightblue" d="M281.373,-130.435C274.666,-121.79 263.834,-107.829 255.327,-96.8643"/>
<polygon fill="midnightblue" stroke="midnightblue" points="258.021,-94.6271 249.126,-88.8718 252.49,-98.9181 258.021,-94.6271"/>
</g>
<!-- Node11 -->
<g id="node12" class="node"><title>Node11</title>
<polygon fill="white" stroke="#bfbfbf" points="610.229,-70.5 610.229,-88.5 669.032,-88.5 669.032,-70.5 610.229,-70.5"/>
<text text-anchor="middle" x="639.63" y="-76.5" font-family="Helvetica,sans-Serif" font-size="10.00">stdexcept</text>
</g>
<!-- Node3&#45;&gt;Node11 -->
<g id="edge11" class="edge"><title>Node3&#45;&gt;Node11</title>
<path fill="none" stroke="midnightblue" d="M339.047,-130.461C394.508,-121.731 485.39,-107.256 563.63,-94 575.485,-91.9916 588.365,-89.7329 600.095,-87.6459"/>
<polygon fill="midnightblue" stroke="midnightblue" points="600.825,-91.071 610.054,-85.8667 599.594,-84.1801 600.825,-91.071"/>
</g>
<!-- Node5 -->
<g id="node6" class="node"><title>Node5</title>
<polygon fill="white" stroke="#bfbfbf" points="0,-5.5 0,-23.5 73.2607,-23.5 73.2607,-5.5 0,-5.5"/>
<text text-anchor="middle" x="36.6304" y="-11.5" font-family="Helvetica,sans-Serif" font-size="10.00">Eigen/Dense</text>
</g>
<!-- Node4&#45;&gt;Node5 -->
<g id="edge5" class="edge"><title>Node4&#45;&gt;Node5</title>
<path fill="none" stroke="midnightblue" d="M69.6625,-70.2639C63.8843,-60.6842 54.194,-44.6186 46.7991,-32.3587"/>
<polygon fill="midnightblue" stroke="midnightblue" points="49.6413,-30.2942 41.4793,-23.539 43.6472,-33.9096 49.6413,-30.2942"/>
</g>
<!-- Node6 -->
<g id="node7" class="node"><title>Node6</title>
<polygon fill="white" stroke="#bfbfbf" points="91.0146,-5.5 91.0146,-23.5 134.246,-23.5 134.246,-5.5 91.0146,-5.5"/>
<text text-anchor="middle" x="112.63" y="-11.5" font-family="Helvetica,sans-Serif" font-size="10.00">cmath</text>
</g>
<!-- Node4&#45;&gt;Node6 -->
<g id="edge6" class="edge"><title>Node4&#45;&gt;Node6</title>
<path fill="none" stroke="midnightblue" d="M79.5982,-70.2639C85.3764,-60.6842 95.0667,-44.6186 102.462,-32.3587"/>
<polygon fill="midnightblue" stroke="midnightblue" points="105.614,-33.9096 107.781,-23.539 99.6195,-30.2942 105.614,-33.9096"/>
</g>
<!-- Node8 -->
<g id="node9" class="node"><title>Node8</title>
<polygon fill="white" stroke="#bfbfbf" points="324.569,-5.5 324.569,-23.5 366.692,-23.5 366.692,-5.5 324.569,-5.5"/>
<text text-anchor="middle" x="345.63" y="-11.5" font-family="Helvetica,sans-Serif" font-size="10.00">cstdio</text>
</g>
<!-- Node7&#45;&gt;Node8 -->
<g id="edge8" class="edge"><title>Node7&#45;&gt;Node8</title>
<path fill="none" stroke="midnightblue" d="M345.63,-70.2639C345.63,-61.0635 345.63,-45.881 345.63,-33.8326"/>
<polygon fill="midnightblue" stroke="midnightblue" points="349.13,-33.5389 345.63,-23.539 342.13,-33.539 349.13,-33.5389"/>
</g>
<!-- Node12&#45;&gt;Node10 -->
<g id="edge14" class="edge"><title>Node12&#45;&gt;Node10</title>
<path fill="none" stroke="midnightblue" d="M544.852,-190.418C493.729,-173.597 373.02,-133.128 273.63,-94 272.432,-93.5283 271.212,-93.0383 269.981,-92.5365"/>
<polygon fill="midnightblue" stroke="midnightblue" points="271.146,-89.2291 260.571,-88.5712 268.427,-95.6798 271.146,-89.2291"/>
</g>
<!-- Node13 -->
<g id="node14" class="node"><title>Node13</title>
<polygon fill="white" stroke="#bfbfbf" points="694.404,-130.5 694.404,-148.5 734.857,-148.5 734.857,-130.5 694.404,-130.5"/>
<text text-anchor="middle" x="714.63" y="-136.5" font-family="Helvetica,sans-Serif" font-size="10.00">string</text>
</g>
<!-- Node12&#45;&gt;Node13 -->
<g id="edge13" class="edge"><title>Node12&#45;&gt;Node13</title>
<path fill="none" stroke="midnightblue" d="M589.792,-190.435C614.434,-180.579 656.348,-163.813 684.743,-152.455"/>
<polygon fill="midnightblue" stroke="midnightblue" points="686.188,-155.647 694.173,-148.683 683.588,-149.147 686.188,-155.647"/>
</g>
<!-- Node14&#45;&gt;Node3 -->
<g id="edge16" class="edge"><title>Node14&#45;&gt;Node3</title>
<path fill="none" stroke="midnightblue" d="M214.449,-190.435C228.074,-181.138 250.708,-165.694 267.202,-154.439"/>
<polygon fill="midnightblue" stroke="midnightblue" points="269.35,-157.211 275.638,-148.683 265.405,-151.428 269.35,-157.211"/>
</g>
<!-- Node14&#45;&gt;Node10 -->
<g id="edge17" class="edge"><title>Node14&#45;&gt;Node10</title>
<path fill="none" stroke="midnightblue" d="M204.518,-190.38C207.605,-177.447 214.145,-151.439 221.63,-130 225.386,-119.242 230.335,-107.49 234.485,-98.1366"/>
<polygon fill="midnightblue" stroke="midnightblue" points="237.786,-99.3305 238.725,-88.7773 231.41,-96.4419 237.786,-99.3305"/>
</g>
<!-- Node16&#45;&gt;Node10 -->
<g id="edge48" class="edge"><title>Node16&#45;&gt;Node10</title>
<path fill="none" stroke="midnightblue" d="M923.621,-190.483C886.948,-182.025 829.488,-167.382 781.63,-149 764.004,-142.23 761.828,-135.037 743.63,-130 541.722,-74.1101 476.947,-144.527 273.63,-94 271.708,-93.5222 269.753,-92.9357 267.809,-92.2775"/>
<polygon fill="midnightblue" stroke="midnightblue" points="268.95,-88.9653 258.362,-88.5603 266.386,-95.4791 268.95,-88.9653"/>
</g>
<!-- Node16&#45;&gt;Node13 -->
<g id="edge47" class="edge"><title>Node16&#45;&gt;Node13</title>
<path fill="none" stroke="midnightblue" d="M925.33,-190.435C883.221,-180.773 810.717,-164.008 748.63,-149 747.399,-148.702 746.144,-148.397 744.876,-148.087"/>
<polygon fill="midnightblue" stroke="midnightblue" points="745.662,-144.676 735.114,-145.676 743.983,-151.472 745.662,-144.676"/>
</g>
<!-- Node16&#45;&gt;Node17 -->
<g id="edge20" class="edge"><title>Node16&#45;&gt;Node17</title>
<path fill="none" stroke="midnightblue" d="M947.282,-190.435C931.68,-181.009 905.619,-165.264 886.93,-153.973"/>
<polygon fill="midnightblue" stroke="midnightblue" points="888.544,-150.859 878.175,-148.683 884.924,-156.85 888.544,-150.859"/>
</g>
<!-- Node28 -->
<g id="node29" class="node"><title>Node28</title>
<g id="a_node29"><a xlink:href="../../d1/de6/Composite_8h.html" target="_top" xlink:title="Utility classes and functions to implement the Composite design pattern. ">
<polygon fill="white" stroke="black" points="976.83,-130.5 976.83,-148.5 1098.43,-148.5 1098.43,-130.5 976.83,-130.5"/>
<text text-anchor="middle" x="1037.63" y="-136.5" font-family="Helvetica,sans-Serif" font-size="10.00">ocra/optim/Composite.h</text>
</a>
</g>
</g>
<!-- Node16&#45;&gt;Node28 -->
<g id="edge34" class="edge"><title>Node16&#45;&gt;Node28</title>
<path fill="none" stroke="midnightblue" d="M971.337,-190.435C983.496,-181.276 1003.58,-166.152 1018.46,-154.944"/>
<polygon fill="midnightblue" stroke="midnightblue" points="1020.63,-157.684 1026.52,-148.872 1016.42,-152.093 1020.63,-157.684"/>
</g>
<!-- Node29 -->
<g id="node30" class="node"><title>Node29</title>
<polygon fill="white" stroke="#bfbfbf" points="1364.92,-70.5 1364.92,-88.5 1484.34,-88.5 1484.34,-70.5 1364.92,-70.5"/>
<text text-anchor="middle" x="1424.63" y="-76.5" font-family="Helvetica,sans-Serif" font-size="10.00">boost/noncopyable.hpp</text>
</g>
<!-- Node16&#45;&gt;Node29 -->
<g id="edge46" class="edge"><title>Node16&#45;&gt;Node29</title>
<path fill="none" stroke="midnightblue" d="M988.142,-190.488C1017.99,-181.507 1066.85,-165.963 1107.63,-149 1125.06,-141.747 1127.7,-135.933 1145.63,-130 1184.13,-117.256 1288.79,-100.393 1358.4,-90.0041"/>
<polygon fill="midnightblue" stroke="midnightblue" points="1359.03,-93.4496 1368.4,-88.5196 1358,-86.5254 1359.03,-93.4496"/>
</g>
<!-- Node32 -->
<g id="node33" class="node"><title>Node32</title>
<polygon fill="white" stroke="#bfbfbf" points="1154.67,-130.5 1154.67,-148.5 1224.6,-148.5 1224.6,-130.5 1154.67,-130.5"/>
<text text-anchor="middle" x="1189.63" y="-136.5" font-family="Helvetica,sans-Serif" font-size="10.00">Eigen/Eigen</text>
</g>
<!-- Node16&#45;&gt;Node32 -->
<g id="edge45" class="edge"><title>Node16&#45;&gt;Node32</title>
<path fill="none" stroke="midnightblue" d="M992.472,-190.435C1033.03,-180.162 1103.22,-162.384 1147.99,-151.046"/>
<polygon fill="midnightblue" stroke="midnightblue" points="1148.86,-154.438 1157.69,-148.589 1147.14,-147.652 1148.86,-154.438"/>
</g>
<!-- Node18 -->
<g id="node19" class="node"><title>Node18</title>
<g id="a_node19"><a xlink:href="../../df/d67/ObserverSubjectBase_8h.html" target="_top" xlink:title="Declaration file of the Observer and Subject base classes. ">
<polygon fill="white" stroke="black" points="686.66,-65.5 686.66,-93.5 826.601,-93.5 826.601,-65.5 686.66,-65.5"/>
<text text-anchor="start" x="694.66" y="-81.5" font-family="Helvetica,sans-Serif" font-size="10.00">ocra/optim/ObserverSubject</text>
<text text-anchor="middle" x="756.63" y="-71.5" font-family="Helvetica,sans-Serif" font-size="10.00">Base.h</text>
</a>
</g>
</g>
<!-- Node17&#45;&gt;Node18 -->
<g id="edge21" class="edge"><title>Node17&#45;&gt;Node18</title>
<path fill="none" stroke="midnightblue" d="M849.613,-130.435C834.303,-122.213 810.039,-109.182 790.136,-98.4939"/>
<polygon fill="midnightblue" stroke="midnightblue" points="791.527,-95.2682 781.061,-93.6203 788.215,-101.435 791.527,-95.2682"/>
</g>
<!-- Node22 -->
<g id="node23" class="node"><title>Node22</title>
<polygon fill="white" stroke="#bfbfbf" points="490.943,-0.5 490.943,-28.5 590.317,-28.5 590.317,-0.5 490.943,-0.5"/>
<text text-anchor="start" x="498.943" y="-16.5" font-family="Helvetica,sans-Serif" font-size="10.00">boost/type_traits/is</text>
<text text-anchor="middle" x="540.63" y="-6.5" font-family="Helvetica,sans-Serif" font-size="10.00">_class.hpp</text>
</g>
<!-- Node17&#45;&gt;Node22 -->
<g id="edge33" class="edge"><title>Node17&#45;&gt;Node22</title>
<path fill="none" stroke="midnightblue" d="M803.154,-130.486C730.913,-120.698 618.671,-104.189 601.63,-94 579.177,-80.574 561.927,-55.5262 551.591,-37.3262"/>
<polygon fill="midnightblue" stroke="midnightblue" points="554.666,-35.6554 546.825,-28.5307 548.512,-38.9904 554.666,-35.6554"/>
</g>
<!-- Node23 -->
<g id="node24" class="node"><title>Node23</title>
<polygon fill="white" stroke="#bfbfbf" points="899.943,-0.5 899.943,-28.5 999.317,-28.5 999.317,-0.5 899.943,-0.5"/>
<text text-anchor="start" x="907.943" y="-16.5" font-family="Helvetica,sans-Serif" font-size="10.00">boost/type_traits/is</text>
<text text-anchor="middle" x="949.63" y="-6.5" font-family="Helvetica,sans-Serif" font-size="10.00">_base_of.hpp</text>
</g>
<!-- Node17&#45;&gt;Node23 -->
<g id="edge31" class="edge"><title>Node17&#45;&gt;Node23</title>
<path fill="none" stroke="midnightblue" d="M864.265,-130.493C863.997,-116.166 865.206,-85.7106 878.63,-65 886.998,-52.0913 900.027,-41.5909 912.652,-33.637"/>
<polygon fill="midnightblue" stroke="midnightblue" points="914.442,-36.6444 921.265,-28.539 910.877,-30.6205 914.442,-36.6444"/>
</g>
<!-- Node24 -->
<g id="node25" class="node"><title>Node24</title>
<polygon fill="white" stroke="#bfbfbf" points="1017.21,-5.5 1017.21,-23.5 1136.05,-23.5 1136.05,-5.5 1017.21,-5.5"/>
<text text-anchor="middle" x="1076.63" y="-11.5" font-family="Helvetica,sans-Serif" font-size="10.00">boost/static_assert.hpp</text>
</g>
<!-- Node17&#45;&gt;Node24 -->
<g id="edge30" class="edge"><title>Node17&#45;&gt;Node24</title>
<path fill="none" stroke="midnightblue" d="M867.622,-130.301C873.588,-115.105 888.421,-82.522 911.63,-65 930.208,-50.9747 987.201,-35.7037 1029.02,-25.8876"/>
<polygon fill="midnightblue" stroke="midnightblue" points="1030.07,-29.2372 1039.03,-23.5746 1028.5,-22.417 1030.07,-29.2372"/>
</g>
<!-- Node26 -->
<g id="node27" class="node"><title>Node26</title>
<g id="a_node27"><a xlink:href="../../db/ddf/ocra__events_8h.html" target="_top" xlink:title="ocra/optim/ocra_events.h">
<polygon fill="white" stroke="black" points="426.49,-70.5 426.49,-88.5 554.771,-88.5 554.771,-70.5 426.49,-70.5"/>
<text text-anchor="middle" x="490.63" y="-76.5" font-family="Helvetica,sans-Serif" font-size="10.00">ocra/optim/ocra_events.h</text>
</a>
</g>
</g>
<!-- Node17&#45;&gt;Node26 -->
<g id="edge29" class="edge"><title>Node17&#45;&gt;Node26</title>
<path fill="none" stroke="midnightblue" d="M808.653,-130.462C749.089,-121.82 652.121,-107.499 568.63,-94 561.273,-92.8103 553.531,-91.5188 545.9,-90.222"/>
<polygon fill="midnightblue" stroke="midnightblue" points="546.419,-86.76 535.972,-88.5223 545.238,-93.6597 546.419,-86.76"/>
</g>
<!-- Node27 -->
<g id="node28" class="node"><title>Node27</title>
<polygon fill="white" stroke="#bfbfbf" points="920.943,-65.5 920.943,-93.5 1020.32,-93.5 1020.32,-65.5 920.943,-65.5"/>
<text text-anchor="start" x="928.943" y="-81.5" font-family="Helvetica,sans-Serif" font-size="10.00">boost/type_traits/is</text>
<text text-anchor="middle" x="970.63" y="-71.5" font-family="Helvetica,sans-Serif" font-size="10.00">_convertible.hpp</text>
</g>
<!-- Node17&#45;&gt;Node27 -->
<g id="edge32" class="edge"><title>Node17&#45;&gt;Node27</title>
<path fill="none" stroke="midnightblue" d="M879.369,-130.435C894.397,-122.213 918.211,-109.182 937.745,-98.4939"/>
<polygon fill="midnightblue" stroke="midnightblue" points="939.559,-101.491 946.652,-93.6203 936.199,-95.3501 939.559,-101.491"/>
</g>
<!-- Node19 -->
<g id="node20" class="node"><title>Node19</title>
<polygon fill="white" stroke="#bfbfbf" points="727.227,-5.5 727.227,-23.5 786.034,-23.5 786.034,-5.5 727.227,-5.5"/>
<text text-anchor="middle" x="756.63" y="-11.5" font-family="Helvetica,sans-Serif" font-size="10.00">functional</text>
</g>
<!-- Node18&#45;&gt;Node19 -->
<g id="edge22" class="edge"><title>Node18&#45;&gt;Node19</title>
<path fill="none" stroke="midnightblue" d="M756.63,-65.4464C756.63,-56.3336 756.63,-44.0406 756.63,-33.9308"/>
<polygon fill="midnightblue" stroke="midnightblue" points="760.13,-33.7301 756.63,-23.7301 753.13,-33.7301 760.13,-33.7301"/>
</g>
<!-- Node20 -->
<g id="node21" class="node"><title>Node20</title>
<polygon fill="white" stroke="#bfbfbf" points="1231.07,-5.5 1231.07,-23.5 1288.19,-23.5 1288.19,-5.5 1231.07,-5.5"/>
<text text-anchor="middle" x="1259.63" y="-11.5" font-family="Helvetica,sans-Serif" font-size="10.00">algorithm</text>
</g>
<!-- Node18&#45;&gt;Node20 -->
<g id="edge23" class="edge"><title>Node18&#45;&gt;Node20</title>
<path fill="none" stroke="midnightblue" d="M826.835,-69.707C934.462,-56.2268 1136.63,-30.9058 1221.05,-20.3318"/>
<polygon fill="midnightblue" stroke="midnightblue" points="1221.5,-23.8033 1230.99,-19.0876 1220.63,-16.8576 1221.5,-23.8033"/>
</g>
<!-- Node21 -->
<g id="node22" class="node"><title>Node21</title>
<polygon fill="white" stroke="#bfbfbf" points="803.585,-5.5 803.585,-23.5 881.675,-23.5 881.675,-5.5 803.585,-5.5"/>
<text text-anchor="middle" x="842.63" y="-11.5" font-family="Helvetica,sans-Serif" font-size="10.00">boost/any.hpp</text>
</g>
<!-- Node18&#45;&gt;Node21 -->
<g id="edge24" class="edge"><title>Node18&#45;&gt;Node21</title>
<path fill="none" stroke="midnightblue" d="M774.45,-65.4464C788.71,-55 808.674,-40.3747 823.315,-29.6496"/>
<polygon fill="midnightblue" stroke="midnightblue" points="825.646,-32.2811 831.644,-23.548 821.509,-26.6341 825.646,-32.2811"/>
</g>
<!-- Node18&#45;&gt;Node22 -->
<g id="edge25" class="edge"><title>Node18&#45;&gt;Node22</title>
<path fill="none" stroke="midnightblue" d="M711.875,-65.4464C677.99,-55.5632 631.28,-41.9394 595.203,-31.4169"/>
<polygon fill="midnightblue" stroke="midnightblue" points="595.908,-27.977 585.328,-28.5369 593.948,-34.697 595.908,-27.977"/>
</g>
<!-- Node18&#45;&gt;Node23 -->
<g id="edge26" class="edge"><title>Node18&#45;&gt;Node23</title>
<path fill="none" stroke="midnightblue" d="M796.62,-65.4464C826.638,-55.6477 867.921,-42.1721 900.04,-31.6874"/>
<polygon fill="midnightblue" stroke="midnightblue" points="901.272,-34.9673 909.692,-28.5369 899.099,-28.3129 901.272,-34.9673"/>
</g>
<!-- Node18&#45;&gt;Node24 -->
<g id="edge27" class="edge"><title>Node18&#45;&gt;Node24</title>
<path fill="none" stroke="midnightblue" d="M823.225,-65.4571C874.031,-55.497 945.752,-41.4171 1008.63,-29 1014.38,-27.8647 1020.4,-26.6729 1026.38,-25.4872"/>
<polygon fill="midnightblue" stroke="midnightblue" points="1027.23,-28.8871 1036.36,-23.5086 1025.87,-22.0208 1027.23,-28.8871"/>
</g>
<!-- Node25 -->
<g id="node26" class="node"><title>Node25</title>
<polygon fill="white" stroke="#bfbfbf" points="607.825,-0.5 607.825,-28.5 709.436,-28.5 709.436,-0.5 607.825,-0.5"/>
<text text-anchor="start" x="615.825" y="-16.5" font-family="Helvetica,sans-Serif" font-size="10.00">boost/ptr_container</text>
<text text-anchor="middle" x="658.63" y="-6.5" font-family="Helvetica,sans-Serif" font-size="10.00">/ptr_vector.hpp</text>
</g>
<!-- Node18&#45;&gt;Node25 -->
<g id="edge28" class="edge"><title>Node18&#45;&gt;Node25</title>
<path fill="none" stroke="midnightblue" d="M736.325,-65.4464C722.265,-56.4079 703.339,-44.241 687.686,-34.1787"/>
<polygon fill="midnightblue" stroke="midnightblue" points="689.214,-31.0004 678.91,-28.5369 685.429,-36.8887 689.214,-31.0004"/>
</g>
<!-- Node28&#45;&gt;Node7 -->
<g id="edge35" class="edge"><title>Node28&#45;&gt;Node7</title>
<path fill="none" stroke="midnightblue" d="M976.65,-132.522C966.946,-131.634 957.016,-130.762 947.63,-130 712.306,-110.899 651.84,-123.807 417.63,-94 409.913,-93.0178 401.773,-91.7342 393.852,-90.3493"/>
<polygon fill="midnightblue" stroke="midnightblue" points="394.45,-86.9008 383.985,-88.556 393.198,-93.7879 394.45,-86.9008"/>
</g>
<!-- Node28&#45;&gt;Node10 -->
<g id="edge41" class="edge"><title>Node28&#45;&gt;Node10</title>
<path fill="none" stroke="midnightblue" d="M976.659,-132.402C966.954,-131.53 957.021,-130.694 947.63,-130 798.047,-118.946 419.602,-128.492 273.63,-94 271.702,-93.5444 269.744,-92.9743 267.796,-92.3278"/>
<polygon fill="midnightblue" stroke="midnightblue" points="268.932,-89.014 258.344,-88.635 266.385,-95.5341 268.932,-89.014"/>
</g>
<!-- Node28&#45;&gt;Node11 -->
<g id="edge44" class="edge"><title>Node28&#45;&gt;Node11</title>
<path fill="none" stroke="midnightblue" d="M976.595,-132.584C889.224,-123.836 732.941,-107.077 677.63,-94 674.975,-93.3722 672.248,-92.6228 669.532,-91.8032"/>
<polygon fill="midnightblue" stroke="midnightblue" points="670.488,-88.433 659.895,-88.6203 668.292,-95.0799 670.488,-88.433"/>
</g>
<!-- Node28&#45;&gt;Node20 -->
<g id="edge42" class="edge"><title>Node28&#45;&gt;Node20</title>
<path fill="none" stroke="midnightblue" d="M1095.71,-130.48C1170.34,-119.898 1291.13,-101.713 1297.63,-94 1313.74,-74.9022 1293.3,-47.8121 1276.73,-30.966"/>
<polygon fill="midnightblue" stroke="midnightblue" points="1278.71,-28.0175 1269.08,-23.5988 1273.85,-33.0581 1278.71,-28.0175"/>
</g>
<!-- Node28&#45;&gt;Node23 -->
<g id="edge38" class="edge"><title>Node28&#45;&gt;Node23</title>
<path fill="none" stroke="midnightblue" d="M1038.9,-130.477C1040.74,-116.124 1042.64,-85.6296 1029.63,-65 1021.06,-51.4002 1007.25,-40.9404 993.496,-33.2165"/>
<polygon fill="midnightblue" stroke="midnightblue" points="995.009,-30.0579 984.525,-28.5304 991.768,-36.2625 995.009,-30.0579"/>
</g>
<!-- Node28&#45;&gt;Node24 -->
<g id="edge37" class="edge"><title>Node28&#45;&gt;Node24</title>
<path fill="none" stroke="midnightblue" d="M1098.48,-131.38C1166.31,-122.819 1268.08,-107.868 1279.63,-94 1320.28,-45.1944 1220.02,-26.6371 1146.38,-19.6472"/>
<polygon fill="midnightblue" stroke="midnightblue" points="1146.45,-16.14 1136.18,-18.7358 1145.83,-23.1122 1146.45,-16.14"/>
</g>
<!-- Node28&#45;&gt;Node27 -->
<g id="edge39" class="edge"><title>Node28&#45;&gt;Node27</title>
<path fill="none" stroke="midnightblue" d="M1028.31,-130.435C1019.37,-122.697 1005.52,-110.699 993.622,-100.403"/>
<polygon fill="midnightblue" stroke="midnightblue" points="995.638,-97.5191 985.787,-93.6203 991.056,-102.812 995.638,-97.5191"/>
</g>
<!-- Node28&#45;&gt;Node29 -->
<g id="edge36" class="edge"><title>Node28&#45;&gt;Node29</title>
<path fill="none" stroke="midnightblue" d="M1098.62,-130.549C1161.78,-122.147 1263.27,-108.174 1350.63,-94 1357.47,-92.8899 1364.66,-91.6598 1371.75,-90.4072"/>
<polygon fill="midnightblue" stroke="midnightblue" points="1372.8,-93.7752 1382.03,-88.5672 1371.57,-86.8848 1372.8,-93.7752"/>
</g>
<!-- Node30 -->
<g id="node31" class="node"><title>Node30</title>
<polygon fill="white" stroke="#bfbfbf" points="1077.09,-65.5 1077.09,-93.5 1208.17,-93.5 1208.17,-65.5 1077.09,-65.5"/>
<text text-anchor="start" x="1085.09" y="-81.5" font-family="Helvetica,sans-Serif" font-size="10.00">boost/type_traits/has</text>
<text text-anchor="middle" x="1142.63" y="-71.5" font-family="Helvetica,sans-Serif" font-size="10.00">_nothrow_constructor.hpp</text>
</g>
<!-- Node28&#45;&gt;Node30 -->
<g id="edge40" class="edge"><title>Node28&#45;&gt;Node30</title>
<path fill="none" stroke="midnightblue" d="M1052.23,-130.435C1067.12,-122.213 1090.71,-109.182 1110.06,-98.4939"/>
<polygon fill="midnightblue" stroke="midnightblue" points="1111.82,-101.519 1118.88,-93.6203 1108.43,-95.3919 1111.82,-101.519"/>
</g>
<!-- Node31 -->
<g id="node32" class="node"><title>Node31</title>
<polygon fill="white" stroke="#bfbfbf" points="1226.46,-70.5 1226.46,-88.5 1270.8,-88.5 1270.8,-70.5 1226.46,-70.5"/>
<text text-anchor="middle" x="1248.63" y="-76.5" font-family="Helvetica,sans-Serif" font-size="10.00">iosfwd</text>
</g>
<!-- Node28&#45;&gt;Node31 -->
<g id="edge43" class="edge"><title>Node28&#45;&gt;Node31</title>
<path fill="none" stroke="midnightblue" d="M1078.58,-130.434C1115.44,-122.692 1170.83,-109.85 1217.63,-94 1219.06,-93.5175 1220.51,-92.9963 1221.96,-92.4491"/>
<polygon fill="midnightblue" stroke="midnightblue" points="1223.51,-95.5992 1231.45,-88.5921 1220.87,-89.1141 1223.51,-95.5992"/>
</g>
<!-- Node33&#45;&gt;Node13 -->
<g id="edge51" class="edge"><title>Node33&#45;&gt;Node13</title>
<path fill="none" stroke="midnightblue" d="M736.154,-190.435C732.575,-182.132 726.883,-168.927 722.251,-158.181"/>
<polygon fill="midnightblue" stroke="midnightblue" points="725.411,-156.67 718.239,-148.872 718.983,-159.44 725.411,-156.67"/>
</g>
<!-- Node35 -->
<g id="node36" class="node"><title>Node35</title>
<polygon fill="white" stroke="#bfbfbf" points="74.5737,-190.5 74.5737,-208.5 126.687,-208.5 126.687,-190.5 74.5737,-190.5"/>
<text text-anchor="middle" x="100.63" y="-196.5" font-family="Helvetica,sans-Serif" font-size="10.00">memory</text>
</g>
<!-- Node34&#45;&gt;Node35 -->
<g id="edge53" class="edge"><title>Node34&#45;&gt;Node35</title>
<path fill="none" stroke="midnightblue" d="M226.33,-250.435C201.518,-240.579 159.315,-223.813 130.724,-212.455"/>
<polygon fill="midnightblue" stroke="midnightblue" points="131.815,-209.122 121.229,-208.683 129.231,-215.628 131.815,-209.122"/>
</g>
<!-- Node36&#45;&gt;Node13 -->
<g id="edge56" class="edge"><title>Node36&#45;&gt;Node13</title>
<path fill="none" stroke="midnightblue" d="M909.438,-250.37C892.689,-235.848 855.687,-205.095 820.63,-185 796.115,-170.948 766.295,-158.828 744.536,-150.801"/>
<polygon fill="midnightblue" stroke="midnightblue" points="745.452,-147.411 734.858,-147.304 743.073,-153.994 745.452,-147.411"/>
</g>
<!-- Node36&#45;&gt;Node16 -->
<g id="edge55" class="edge"><title>Node36&#45;&gt;Node16</title>
<path fill="none" stroke="midnightblue" d="M924.47,-250.435C930.669,-241.876 940.64,-228.105 948.544,-217.191"/>
<polygon fill="midnightblue" stroke="midnightblue" points="951.538,-219.024 954.568,-208.872 945.868,-214.918 951.538,-219.024"/>
</g>
<!-- Node37 -->
<g id="node38" class="node"><title>Node37</title>
<polygon fill="white" stroke="#bfbfbf" points="1033.9,-190.5 1033.9,-208.5 1069.36,-208.5 1069.36,-190.5 1033.9,-190.5"/>
<text text-anchor="middle" x="1051.63" y="-196.5" font-family="Helvetica,sans-Serif" font-size="10.00">map</text>
</g>
<!-- Node36&#45;&gt;Node37 -->
<g id="edge57" class="edge"><title>Node36&#45;&gt;Node37</title>
<path fill="none" stroke="midnightblue" d="M939.125,-250.365C960.605,-241.731 995.248,-227.495 1024.63,-214 1025.33,-213.68 1026.03,-213.353 1026.74,-213.02"/>
<polygon fill="midnightblue" stroke="midnightblue" points="1028.54,-216.039 1036.01,-208.529 1025.48,-209.74 1028.54,-216.039"/>
</g>
</g>
</svg>
