<?xml version="1.0" encoding="UTF-8" standalone="no"?>
<!DOCTYPE svg PUBLIC "-//W3C//DTD SVG 1.1//EN"
 "http://www.w3.org/Graphics/SVG/1.1/DTD/svg11.dtd">
<!-- Generated by graphviz version 2.38.0 (20140413.2041)
 -->
<!-- Title: ocra::ObserverSubject Pages: 1 -->
<svg width="977pt" height="768pt"
 viewBox="0.00 0.00 977.46 768.00" xmlns="http://www.w3.org/2000/svg" xmlns:xlink="http://www.w3.org/1999/xlink">
<g id="graph0" class="graph" transform="scale(1 1) rotate(0) translate(4 764)">
<title>ocra::ObserverSubject</title>
<polygon fill="white" stroke="none" points="-4,4 -4,-764 973.462,-764 973.462,4 -4,4"/>
<!-- Node0 -->
<g id="node1" class="node"><title>Node0</title>
<polygon fill="#bfbfbf" stroke="black" points="339.63,-185.5 339.63,-203.5 455.117,-203.5 455.117,-185.5 339.63,-185.5"/>
<text text-anchor="middle" x="397.374" y="-191.5" font-family="Helvetica,sans-Serif" font-size="10.00">ocra::ObserverSubject</text>
</g>
<!-- Node9 -->
<g id="node10" class="node"><title>Node9</title>
<g id="a_node10"><a xlink:href="../../d2/d99/classocra_1_1Function.html" target="_top" xlink:title="Function class. ">
<polygon fill="white" stroke="black" points="506.869,-443.5 506.869,-461.5 586.233,-461.5 586.233,-443.5 506.869,-443.5"/>
<text text-anchor="middle" x="546.551" y="-449.5" font-family="Helvetica,sans-Serif" font-size="10.00">ocra::Function</text>
</a>
</g>
</g>
<!-- Node0&#45;&gt;Node9 -->
<g id="edge9" class="edge"><title>Node0&#45;&gt;Node9</title>
<path fill="none" stroke="midnightblue" d="M408.67,-212.549C437.623,-263.304 519.034,-406.016 540.376,-443.428"/>
<polygon fill="midnightblue" stroke="midnightblue" points="411.607,-210.634 403.612,-203.682 405.527,-214.103 411.607,-210.634"/>
</g>
<!-- Node42 -->
<g id="node37" class="node"><title>Node42</title>
<g id="a_node37"><a xlink:href="../../dd/d9c/classocra_1_1MergedVariable.html" target="_top" xlink:title="ocra::MergedVariable">
<polygon fill="white" stroke="black" points="491.117,-222.5 491.117,-240.5 601.985,-240.5 601.985,-222.5 491.117,-222.5"/>
<text text-anchor="middle" x="546.551" y="-228.5" font-family="Helvetica,sans-Serif" font-size="10.00">ocra::MergedVariable</text>
</a>
</g>
</g>
<!-- Node0&#45;&gt;Node42 -->
<g id="edge36" class="edge"><title>Node0&#45;&gt;Node42</title>
<path fill="none" stroke="midnightblue" d="M444.105,-205.997C465.218,-211.305 489.922,-217.515 509.664,-222.478"/>
<polygon fill="midnightblue" stroke="midnightblue" points="444.929,-202.595 434.377,-203.551 443.222,-209.384 444.929,-202.595"/>
</g>
<!-- Node43 -->
<g id="node38" class="node"><title>Node43</title>
<g id="a_node38"><a xlink:href="../../d8/d4c/classocra_1_1ModelContacts.html" target="_top" xlink:title="ModelContacts class. ">
<polygon fill="white" stroke="black" points="492.697,-185.5 492.697,-203.5 600.406,-203.5 600.406,-185.5 492.697,-185.5"/>
<text text-anchor="middle" x="546.551" y="-191.5" font-family="Helvetica,sans-Serif" font-size="10.00">ocra::ModelContacts</text>
</a>
</g>
</g>
<!-- Node0&#45;&gt;Node43 -->
<g id="edge37" class="edge"><title>Node0&#45;&gt;Node43</title>
<path fill="none" stroke="midnightblue" d="M465.479,-194.5C474.593,-194.5 483.841,-194.5 492.657,-194.5"/>
<polygon fill="midnightblue" stroke="midnightblue" points="465.276,-191 455.276,-194.5 465.276,-198 465.276,-191"/>
</g>
<!-- Node44 -->
<g id="node39" class="node"><title>Node44</title>
<g id="a_node39"><a xlink:href="../../d6/dd3/classocra_1_1Solver.html" target="_top" xlink:title="Solver class. ">
<polygon fill="white" stroke="black" points="511.874,-148.5 511.874,-166.5 581.229,-166.5 581.229,-148.5 511.874,-148.5"/>
<text text-anchor="middle" x="546.551" y="-154.5" font-family="Helvetica,sans-Serif" font-size="10.00">ocra::Solver</text>
</a>
</g>
</g>
<!-- Node0&#45;&gt;Node44 -->
<g id="edge38" class="edge"><title>Node0&#45;&gt;Node44</title>
<path fill="none" stroke="midnightblue" d="M444.108,-183.003C465.948,-177.512 491.629,-171.056 511.687,-166.013"/>
<polygon fill="midnightblue" stroke="midnightblue" points="443.222,-179.616 434.377,-185.449 444.929,-186.405 443.222,-179.616"/>
</g>
<!-- Node55 -->
<g id="node47" class="node"><title>Node55</title>
<g id="a_node47"><a xlink:href="../../d2/dac/classocra_1_1Variable.html" target="_top" xlink:title="This class represents a variable in a mathematical sense. ">
<polygon fill="white" stroke="black" points="508.07,-37.5 508.07,-55.5 585.032,-55.5 585.032,-37.5 508.07,-37.5"/>
<text text-anchor="middle" x="546.551" y="-43.5" font-family="Helvetica,sans-Serif" font-size="10.00">ocra::Variable</text>
</a>
</g>
</g>
<!-- Node0&#45;&gt;Node55 -->
<g id="edge46" class="edge"><title>Node0&#45;&gt;Node55</title>
<path fill="none" stroke="midnightblue" d="M414.634,-178.149C445.57,-147.04 511.986,-80.2529 536.348,-55.7546"/>
<polygon fill="midnightblue" stroke="midnightblue" points="412.15,-175.683 407.58,-185.242 417.113,-180.619 412.15,-175.683"/>
</g>
<!-- Node1 -->
<g id="node2" class="node"><title>Node1</title>
<g id="a_node2"><a xlink:href="../../d2/d45/classocra_1_1Observer.html" target="_top" xlink:title="ocra::Observer">
<polygon fill="white" stroke="black" points="221.497,-221.5 221.497,-239.5 303.63,-239.5 303.63,-221.5 221.497,-221.5"/>
<text text-anchor="middle" x="262.563" y="-227.5" font-family="Helvetica,sans-Serif" font-size="10.00">ocra::Observer</text>
</a>
</g>
</g>
<!-- Node1&#45;&gt;Node0 -->
<g id="edge1" class="edge"><title>Node1&#45;&gt;Node0</title>
<path fill="none" stroke="midnightblue" d="M306.868,-218.762C325.056,-213.832 345.885,-208.186 362.871,-203.581"/>
<polygon fill="midnightblue" stroke="midnightblue" points="305.813,-215.421 297.077,-221.416 307.644,-222.177 305.813,-215.421"/>
</g>
<!-- Node2 -->
<g id="node3" class="node"><title>Node2</title>
<g id="a_node3"><a xlink:href="../../d4/dee/classocra_1_1ObserverBase.html" target="_top" xlink:title="ocra::ObserverBase\l\&lt; EVT_RESIZE \&gt;">
<polygon fill="white" stroke="black" points="40.2856,-287.5 40.2856,-315.5 145.211,-315.5 145.211,-287.5 40.2856,-287.5"/>
<text text-anchor="start" x="48.2856" y="-303.5" font-family="Helvetica,sans-Serif" font-size="10.00">ocra::ObserverBase</text>
<text text-anchor="middle" x="92.7485" y="-293.5" font-family="Helvetica,sans-Serif" font-size="10.00">&lt; EVT_RESIZE &gt;</text>
</a>
</g>
</g>
<!-- Node2&#45;&gt;Node1 -->
<g id="edge2" class="edge"><title>Node2&#45;&gt;Node1</title>
<path fill="none" stroke="midnightblue" d="M155.394,-288.918C165.632,-286.018 176.001,-282.563 185.497,-278.5 209.903,-268.058 235.439,-250.317 249.841,-239.576"/>
<polygon fill="midnightblue" stroke="midnightblue" points="154.402,-285.56 145.65,-291.531 156.215,-292.321 154.402,-285.56"/>
</g>
<!-- Node3 -->
<g id="node4" class="node"><title>Node3</title>
<g id="a_node4"><a xlink:href="../../d4/dee/classocra_1_1ObserverBase.html" target="_top" xlink:title="ocra::ObserverBase\l\&lt; EVT_CHANGE_DEPENDENCIES \&gt;">
<polygon fill="white" stroke="black" points="0,-240.5 0,-268.5 185.497,-268.5 185.497,-240.5 0,-240.5"/>
<text text-anchor="start" x="8" y="-256.5" font-family="Helvetica,sans-Serif" font-size="10.00">ocra::ObserverBase</text>
<text text-anchor="middle" x="92.7485" y="-246.5" font-family="Helvetica,sans-Serif" font-size="10.00">&lt; EVT_CHANGE_DEPENDENCIES &gt;</text>
</a>
</g>
</g>
<!-- Node3&#45;&gt;Node1 -->
<g id="edge3" class="edge"><title>Node3&#45;&gt;Node1</title>
<path fill="none" stroke="midnightblue" d="M195.441,-239.957C204.506,-238.66 213.28,-237.405 221.314,-236.256"/>
<polygon fill="midnightblue" stroke="midnightblue" points="194.916,-236.496 185.512,-241.376 195.907,-243.425 194.916,-236.496"/>
</g>
<!-- Node4 -->
<g id="node5" class="node"><title>Node4</title>
<g id="a_node5"><a xlink:href="../../d4/dee/classocra_1_1ObserverBase.html" target="_top" xlink:title="ocra::ObserverBase\l\&lt; EVT_CHANGE_VALUE \&gt;">
<polygon fill="white" stroke="black" points="23.4253,-193.5 23.4253,-221.5 162.072,-221.5 162.072,-193.5 23.4253,-193.5"/>
<text text-anchor="start" x="31.4253" y="-209.5" font-family="Helvetica,sans-Serif" font-size="10.00">ocra::ObserverBase</text>
<text text-anchor="middle" x="92.7485" y="-199.5" font-family="Helvetica,sans-Serif" font-size="10.00">&lt; EVT_CHANGE_VALUE &gt;</text>
</a>
</g>
</g>
<!-- Node4&#45;&gt;Node1 -->
<g id="edge4" class="edge"><title>Node4&#45;&gt;Node1</title>
<path fill="none" stroke="midnightblue" d="M172.838,-218.34C189.55,-220.63 206.517,-222.956 221.077,-224.951"/>
<polygon fill="midnightblue" stroke="midnightblue" points="172.872,-214.812 162.489,-216.921 171.922,-221.747 172.872,-214.812"/>
</g>
<!-- Node5 -->
<g id="node6" class="node"><title>Node5</title>
<g id="a_node6"><a xlink:href="../../dc/d77/classocra_1_1Subject.html" target="_top" xlink:title="ocra::Subject">
<polygon fill="white" stroke="black" points="225.381,-127.5 225.381,-145.5 299.746,-145.5 299.746,-127.5 225.381,-127.5"/>
<text text-anchor="middle" x="262.563" y="-133.5" font-family="Helvetica,sans-Serif" font-size="10.00">ocra::Subject</text>
</a>
</g>
</g>
<!-- Node5&#45;&gt;Node0 -->
<g id="edge5" class="edge"><title>Node5&#45;&gt;Node0</title>
<path fill="none" stroke="midnightblue" d="M293.661,-149.644C318.569,-160.522 353.318,-175.697 375.329,-185.31"/>
<polygon fill="midnightblue" stroke="midnightblue" points="294.88,-146.357 284.315,-145.562 292.079,-152.772 294.88,-146.357"/>
</g>
<!-- Node6 -->
<g id="node7" class="node"><title>Node6</title>
<g id="a_node7"><a xlink:href="../../dc/d29/classocra_1_1SubjectBase.html" target="_top" xlink:title="ocra::SubjectBase\&lt;\l EVT_RESIZE \&gt;">
<polygon fill="white" stroke="black" points="41.25,-146.5 41.25,-174.5 144.247,-174.5 144.247,-146.5 41.25,-146.5"/>
<text text-anchor="start" x="49.25" y="-162.5" font-family="Helvetica,sans-Serif" font-size="10.00">ocra::SubjectBase&lt;</text>
<text text-anchor="middle" x="92.7485" y="-152.5" font-family="Helvetica,sans-Serif" font-size="10.00"> EVT_RESIZE &gt;</text>
</a>
</g>
</g>
<!-- Node6&#45;&gt;Node5 -->
<g id="edge6" class="edge"><title>Node6&#45;&gt;Node5</title>
<path fill="none" stroke="midnightblue" d="M154.534,-151.807C178.262,-148.413 204.665,-144.637 225.31,-141.685"/>
<polygon fill="midnightblue" stroke="midnightblue" points="153.958,-148.354 144.554,-153.234 154.949,-155.283 153.958,-148.354"/>
</g>
<!-- Node7 -->
<g id="node8" class="node"><title>Node7</title>
<g id="a_node8"><a xlink:href="../../dc/d29/classocra_1_1SubjectBase.html" target="_top" xlink:title="ocra::SubjectBase\&lt;\l EVT_CHANGE_DEPENDENCIES \&gt;">
<polygon fill="white" stroke="black" points="2.91992,-99.5 2.91992,-127.5 182.577,-127.5 182.577,-99.5 2.91992,-99.5"/>
<text text-anchor="start" x="10.9199" y="-115.5" font-family="Helvetica,sans-Serif" font-size="10.00">ocra::SubjectBase&lt;</text>
<text text-anchor="middle" x="92.7485" y="-105.5" font-family="Helvetica,sans-Serif" font-size="10.00"> EVT_CHANGE_DEPENDENCIES &gt;</text>
</a>
</g>
</g>
<!-- Node7&#45;&gt;Node5 -->
<g id="edge7" class="edge"><title>Node7&#45;&gt;Node5</title>
<path fill="none" stroke="midnightblue" d="M193.112,-127.118C204.461,-128.674 215.419,-130.176 225.116,-131.505"/>
<polygon fill="midnightblue" stroke="midnightblue" points="193.443,-123.631 183.061,-125.741 192.493,-130.566 193.443,-123.631"/>
</g>
<!-- Node8 -->
<g id="node9" class="node"><title>Node8</title>
<g id="a_node9"><a xlink:href="../../dc/d29/classocra_1_1SubjectBase.html" target="_top" xlink:title="ocra::SubjectBase\&lt;\l EVT_CHANGE_VALUE \&gt;">
<polygon fill="white" stroke="black" points="26.3452,-52.5 26.3452,-80.5 159.152,-80.5 159.152,-52.5 26.3452,-52.5"/>
<text text-anchor="start" x="34.3452" y="-68.5" font-family="Helvetica,sans-Serif" font-size="10.00">ocra::SubjectBase&lt;</text>
<text text-anchor="middle" x="92.7485" y="-58.5" font-family="Helvetica,sans-Serif" font-size="10.00"> EVT_CHANGE_VALUE &gt;</text>
</a>
</g>
</g>
<!-- Node8&#45;&gt;Node5 -->
<g id="edge8" class="edge"><title>Node8&#45;&gt;Node5</title>
<path fill="none" stroke="midnightblue" d="M167.145,-83.6556C173.431,-85.7382 179.625,-88.0183 185.497,-90.5 209.237,-100.533 234.374,-117.052 248.983,-127.325"/>
<polygon fill="midnightblue" stroke="midnightblue" points="167.817,-80.1981 157.228,-80.5449 165.722,-86.8773 167.817,-80.1981"/>
</g>
<!-- Node10 -->
<g id="node11" class="node"><title>Node10</title>
<g id="a_node11"><a xlink:href="../../d1/d44/classFunction1.html" target="_top" xlink:title="Function1">
<polygon fill="white" stroke="black" points="673.002,-647.5 673.002,-665.5 732.918,-665.5 732.918,-647.5 673.002,-647.5"/>
<text text-anchor="middle" x="702.96" y="-653.5" font-family="Helvetica,sans-Serif" font-size="10.00">Function1</text>
</a>
</g>
</g>
<!-- Node9&#45;&gt;Node10 -->
<g id="edge10" class="edge"><title>Node9&#45;&gt;Node10</title>
<path fill="none" stroke="midnightblue" d="M551.499,-472.12C560.179,-510.098 584.558,-593.839 637.985,-638.5 647.723,-646.64 660.904,-651.108 672.772,-653.557"/>
<polygon fill="midnightblue" stroke="midnightblue" points="554.824,-470.935 549.295,-461.897 547.981,-472.41 554.824,-470.935"/>
</g>
<!-- Node11 -->
<g id="node12" class="node"><title>Node11</title>
<g id="a_node12"><a xlink:href="../../d6/d7e/classFunction2.html" target="_top" xlink:title="Function2">
<polygon fill="white" stroke="black" points="673.002,-610.5 673.002,-628.5 732.918,-628.5 732.918,-610.5 673.002,-610.5"/>
<text text-anchor="middle" x="702.96" y="-616.5" font-family="Helvetica,sans-Serif" font-size="10.00">Function2</text>
</a>
</g>
</g>
<!-- Node9&#45;&gt;Node11 -->
<g id="edge11" class="edge"><title>Node9&#45;&gt;Node11</title>
<path fill="none" stroke="midnightblue" d="M553.908,-471.699C565.456,-503.57 592.941,-567.273 637.985,-601.5 647.999,-609.109 661.083,-613.502 672.808,-616.037"/>
<polygon fill="midnightblue" stroke="midnightblue" points="557.075,-470.15 550.485,-461.854 550.463,-472.448 557.075,-470.15"/>
</g>
<!-- Node12 -->
<g id="node13" class="node"><title>Node12</title>
<g id="a_node13"><a xlink:href="../../d9/d4a/classFunction3.html" target="_top" xlink:title="Function3">
<polygon fill="white" stroke="black" points="673.002,-573.5 673.002,-591.5 732.918,-591.5 732.918,-573.5 673.002,-573.5"/>
<text text-anchor="middle" x="702.96" y="-579.5" font-family="Helvetica,sans-Serif" font-size="10.00">Function3</text>
</a>
</g>
</g>
<!-- Node9&#45;&gt;Node12 -->
<g id="edge12" class="edge"><title>Node9&#45;&gt;Node12</title>
<path fill="none" stroke="midnightblue" d="M557.199,-470.399C571.525,-495.266 600.777,-539.968 637.985,-564.5 648.389,-571.359 661.4,-575.635 672.968,-578.285"/>
<polygon fill="midnightblue" stroke="midnightblue" points="560.235,-468.658 552.299,-461.639 554.126,-472.075 560.235,-468.658"/>
</g>
<!-- Node13 -->
<g id="node14" class="node"><title>Node13</title>
<g id="a_node14"><a xlink:href="../../db/d8c/classMyFunction.html" target="_top" xlink:title="MyFunction">
<polygon fill="white" stroke="black" points="669.118,-536.5 669.118,-554.5 736.803,-554.5 736.803,-536.5 669.118,-536.5"/>
<text text-anchor="middle" x="702.96" y="-542.5" font-family="Helvetica,sans-Serif" font-size="10.00">MyFunction</text>
</a>
</g>
</g>
<!-- Node9&#45;&gt;Node13 -->
<g id="edge13" class="edge"><title>Node9&#45;&gt;Node13</title>
<path fill="none" stroke="midnightblue" d="M563.479,-469.337C580.438,-486.329 608.806,-512.185 637.985,-527.5 647.589,-532.54 658.765,-536.306 669.065,-539.054"/>
<polygon fill="midnightblue" stroke="midnightblue" points="565.606,-466.505 556.117,-461.792 560.596,-471.393 565.606,-466.505"/>
</g>
<!-- Node14 -->
<g id="node15" class="node"><title>Node14</title>
<g id="a_node15"><a xlink:href="../../db/da4/classocra_1_1DotProductFunction.html" target="_top" xlink:title="DotProductFunction class. ">
<polygon fill="white" stroke="black" points="638.266,-499.5 638.266,-517.5 767.655,-517.5 767.655,-499.5 638.266,-499.5"/>
<text text-anchor="middle" x="702.96" y="-505.5" font-family="Helvetica,sans-Serif" font-size="10.00">ocra::DotProductFunction</text>
</a>
</g>
</g>
<!-- Node9&#45;&gt;Node14 -->
<g id="edge14" class="edge"><title>Node9&#45;&gt;Node14</title>
<path fill="none" stroke="midnightblue" d="M576.203,-465.61C593.814,-473.398 616.959,-483.156 637.985,-490.5 647.244,-493.734 657.407,-496.805 666.854,-499.464"/>
<polygon fill="midnightblue" stroke="midnightblue" points="577.594,-462.398 567.037,-461.513 574.738,-468.789 577.594,-462.398"/>
</g>
<!-- Node15 -->
<g id="node16" class="node"><title>Node15</title>
<g id="a_node16"><a xlink:href="../../de/d3a/classocra_1_1LinearFunction.html" target="_top" xlink:title="LinearFunction class. ">
<polygon fill="white" stroke="black" points="649.379,-462.5 649.379,-480.5 756.542,-480.5 756.542,-462.5 649.379,-462.5"/>
<text text-anchor="middle" x="702.96" y="-468.5" font-family="Helvetica,sans-Serif" font-size="10.00">ocra::LinearFunction</text>
</a>
</g>
</g>
<!-- Node9&#45;&gt;Node15 -->
<g id="edge15" class="edge"><title>Node9&#45;&gt;Node15</title>
<path fill="none" stroke="midnightblue" d="M596.661,-458.543C613.435,-460.607 632.258,-462.923 649.301,-465.02"/>
<polygon fill="midnightblue" stroke="midnightblue" points="596.868,-455.042 586.515,-457.295 596.013,-461.99 596.868,-455.042"/>
</g>
<!-- Node34 -->
<g id="node29" class="node"><title>Node34</title>
<g id="a_node29"><a xlink:href="../../dd/d93/classocra_1_1Pb114G10.html" target="_top" xlink:title="ocra::Pb114G10">
<polygon fill="white" stroke="black" points="658.916,-425.5 658.916,-443.5 747.005,-443.5 747.005,-425.5 658.916,-425.5"/>
<text text-anchor="middle" x="702.96" y="-431.5" font-family="Helvetica,sans-Serif" font-size="10.00">ocra::Pb114G10</text>
</a>
</g>
</g>
<!-- Node9&#45;&gt;Node34 -->
<g id="edge28" class="edge"><title>Node9&#45;&gt;Node34</title>
<path fill="none" stroke="midnightblue" d="M596.634,-446.778C616.553,-444.456 639.364,-441.797 658.654,-439.548"/>
<polygon fill="midnightblue" stroke="midnightblue" points="596.043,-443.323 586.515,-447.958 596.853,-450.276 596.043,-443.323"/>
</g>
<!-- Node35 -->
<g id="node30" class="node"><title>Node35</title>
<g id="a_node30"><a xlink:href="../../da/d6c/classocra_1_1Pb114G11.html" target="_top" xlink:title="ocra::Pb114G11">
<polygon fill="white" stroke="black" points="659.284,-388.5 659.284,-406.5 746.637,-406.5 746.637,-388.5 659.284,-388.5"/>
<text text-anchor="middle" x="702.96" y="-394.5" font-family="Helvetica,sans-Serif" font-size="10.00">ocra::Pb114G11</text>
</a>
</g>
</g>
<!-- Node9&#45;&gt;Node35 -->
<g id="edge29" class="edge"><title>Node9&#45;&gt;Node35</title>
<path fill="none" stroke="midnightblue" d="M578.517,-439.37C595.861,-432.22 617.965,-423.442 637.985,-416.5 648.166,-412.97 659.393,-409.497 669.562,-406.506"/>
<polygon fill="midnightblue" stroke="midnightblue" points="576.797,-436.295 568.908,-443.366 579.485,-442.759 576.797,-436.295"/>
</g>
<!-- Node36 -->
<g id="node31" class="node"><title>Node36</title>
<g id="a_node31"><a xlink:href="../../d9/df1/classocra_1_1Pb114G5.html" target="_top" xlink:title="ocra::Pb114G5">
<polygon fill="white" stroke="black" points="661.696,-351.5 661.696,-369.5 744.225,-369.5 744.225,-351.5 661.696,-351.5"/>
<text text-anchor="middle" x="702.96" y="-357.5" font-family="Helvetica,sans-Serif" font-size="10.00">ocra::Pb114G5</text>
</a>
</g>
</g>
<!-- Node9&#45;&gt;Node36 -->
<g id="edge30" class="edge"><title>Node9&#45;&gt;Node36</title>
<path fill="none" stroke="midnightblue" d="M564.159,-435.691C581.282,-419.232 609.436,-394.505 637.985,-379.5 645.677,-375.457 654.353,-372.152 662.777,-369.5"/>
<polygon fill="midnightblue" stroke="midnightblue" points="561.371,-433.524 556.687,-443.027 566.275,-438.519 561.371,-433.524"/>
</g>
<!-- Node37 -->
<g id="node32" class="node"><title>Node37</title>
<g id="a_node32"><a xlink:href="../../d9/d7e/classocra_1_1QuadraticFunction.html" target="_top" xlink:title="QuadraticFunction class. ">
<polygon fill="white" stroke="black" points="641.601,-296.5 641.601,-314.5 764.32,-314.5 764.32,-296.5 641.601,-296.5"/>
<text text-anchor="middle" x="702.96" y="-302.5" font-family="Helvetica,sans-Serif" font-size="10.00">ocra::QuadraticFunction</text>
</a>
</g>
</g>
<!-- Node9&#45;&gt;Node37 -->
<g id="edge31" class="edge"><title>Node9&#45;&gt;Node37</title>
<path fill="none" stroke="midnightblue" d="M559.101,-434.799C574.881,-411.569 605.012,-370.473 637.985,-342.5 651.487,-331.046 669.023,-321.189 682.32,-314.536"/>
<polygon fill="midnightblue" stroke="midnightblue" points="556.065,-433.041 553.425,-443.302 561.888,-436.927 556.065,-433.041"/>
</g>
<!-- Node41 -->
<g id="node36" class="node"><title>Node41</title>
<g id="a_node36"><a xlink:href="../../df/d5a/classocra_1_1SubtractionFunction.html" target="_top" xlink:title="SubtractionFunction class. ">
<polygon fill="white" stroke="black" points="637.985,-259.5 637.985,-277.5 767.936,-277.5 767.936,-259.5 637.985,-259.5"/>
<text text-anchor="middle" x="702.96" y="-265.5" font-family="Helvetica,sans-Serif" font-size="10.00">ocra::SubtractionFunction</text>
</a>
</g>
</g>
<!-- Node9&#45;&gt;Node41 -->
<g id="edge35" class="edge"><title>Node9&#45;&gt;Node41</title>
<path fill="none" stroke="midnightblue" d="M552.643,-433.728C562.907,-399.473 589.358,-326.747 637.985,-287.5 643.124,-283.352 649.147,-280.109 655.404,-277.575"/>
<polygon fill="midnightblue" stroke="midnightblue" points="549.26,-432.83 549.872,-443.407 555.989,-434.757 549.26,-432.83"/>
</g>
<!-- Node16 -->
<g id="node17" class="node"><title>Node16</title>
<g id="a_node17"><a xlink:href="../../d4/d45/classocra_1_1ContactAvoidanceFunction.html" target="_top" xlink:title="Create a linear function that represents the joint limit function. ">
<polygon fill="white" stroke="red" points="806.523,-741.5 806.523,-759.5 966.874,-759.5 966.874,-741.5 806.523,-741.5"/>
<text text-anchor="middle" x="886.699" y="-747.5" font-family="Helvetica,sans-Serif" font-size="10.00">ocra::ContactAvoidanceFunction</text>
</a>
</g>
</g>
<!-- Node15&#45;&gt;Node16 -->
<g id="edge16" class="edge"><title>Node15&#45;&gt;Node16</title>
<path fill="none" stroke="midnightblue" d="M763.586,-486.231C765.139,-487.538 766.597,-488.958 767.936,-490.5 839.218,-572.616 729.744,-653.003 803.936,-732.5 807.208,-736.007 810.996,-738.908 815.111,-741.303"/>
<polygon fill="midnightblue" stroke="midnightblue" points="765.383,-483.223 755.12,-480.591 761.502,-489.048 765.383,-483.223"/>
</g>
<!-- Node19 -->
<g id="node18" class="node"><title>Node19</title>
<g id="a_node18"><a xlink:href="../../d3/d89/classocra_1_1DiagonalLinearFunction.html" target="_top" xlink:title="DiagonalLinearFunction class. ">
<polygon fill="white" stroke="red" points="813.381,-704.5 813.381,-722.5 960.016,-722.5 960.016,-704.5 813.381,-704.5"/>
<text text-anchor="middle" x="886.699" y="-710.5" font-family="Helvetica,sans-Serif" font-size="10.00">ocra::DiagonalLinearFunction</text>
</a>
</g>
</g>
<!-- Node15&#45;&gt;Node19 -->
<g id="edge17" class="edge"><title>Node15&#45;&gt;Node19</title>
<path fill="none" stroke="midnightblue" d="M763.433,-486.194C765.039,-487.511 766.548,-488.943 767.936,-490.5 829.484,-559.558 739.941,-628.702 803.936,-695.5 807.354,-699.068 811.307,-702.007 815.592,-704.419"/>
<polygon fill="midnightblue" stroke="midnightblue" points="764.996,-483.036 754.703,-480.524 761.183,-488.906 764.996,-483.036"/>
</g>
<!-- Node22 -->
<g id="node19" class="node"><title>Node22</title>
<g id="a_node19"><a xlink:href="../../d4/d5c/classocra_1_1DoubleDiagonalLinearFunction.html" target="_top" xlink:title="DoubleDiagonalLinearFunction class. ">
<polygon fill="white" stroke="black" points="816.714,-657.5 816.714,-685.5 956.684,-685.5 956.684,-657.5 816.714,-657.5"/>
<text text-anchor="start" x="824.714" y="-673.5" font-family="Helvetica,sans-Serif" font-size="10.00">ocra::DoubleDiagonalLinear</text>
<text text-anchor="middle" x="886.699" y="-663.5" font-family="Helvetica,sans-Serif" font-size="10.00">Function</text>
</a>
</g>
</g>
<!-- Node15&#45;&gt;Node22 -->
<g id="edge18" class="edge"><title>Node15&#45;&gt;Node22</title>
<path fill="none" stroke="midnightblue" d="M762.811,-485.88C764.639,-487.281 766.358,-488.817 767.936,-490.5 817.19,-543.047 754.302,-596.311 803.936,-648.5 807.594,-652.347 811.84,-655.566 816.437,-658.259"/>
<polygon fill="midnightblue" stroke="midnightblue" points="764.533,-482.83 754.186,-480.554 760.855,-488.786 764.533,-482.83"/>
</g>
<!-- Node23 -->
<g id="node20" class="node"><title>Node23</title>
<g id="a_node20"><a xlink:href="../../d9/da6/classocra_1_1DynamicEquationFunction.html" target="_top" xlink:title="DynamicEquationFunction class. ">
<polygon fill="white" stroke="black" points="807.83,-620.5 807.83,-638.5 965.568,-638.5 965.568,-620.5 807.83,-620.5"/>
<text text-anchor="middle" x="886.699" y="-626.5" font-family="Helvetica,sans-Serif" font-size="10.00">ocra::DynamicEquationFunction</text>
</a>
</g>
</g>
<!-- Node15&#45;&gt;Node23 -->
<g id="edge19" class="edge"><title>Node15&#45;&gt;Node23</title>
<path fill="none" stroke="midnightblue" d="M761.991,-485.524C764.111,-487.019 766.107,-488.672 767.936,-490.5 807.619,-530.164 762.85,-573.29 803.936,-611.5 807.767,-615.063 812.138,-617.981 816.821,-620.363"/>
<polygon fill="midnightblue" stroke="midnightblue" points="763.701,-482.469 753.29,-480.502 760.202,-488.532 763.701,-482.469"/>
</g>
<!-- Node24 -->
<g id="node21" class="node"><title>Node24</title>
<g id="a_node21"><a xlink:href="../../de/ddd/classocra_1_1FullDynamicEquationFunction.html" target="_top" xlink:title="Create a linear function that represents the dynamic equation of motion. ">
<polygon fill="white" stroke="black" points="818.95,-573.5 818.95,-601.5 954.447,-601.5 954.447,-573.5 818.95,-573.5"/>
<text text-anchor="start" x="826.95" y="-589.5" font-family="Helvetica,sans-Serif" font-size="10.00">ocra::FullDynamicEquation</text>
<text text-anchor="middle" x="886.699" y="-579.5" font-family="Helvetica,sans-Serif" font-size="10.00">Function</text>
</a>
</g>
</g>
<!-- Node15&#45;&gt;Node24 -->
<g id="edge20" class="edge"><title>Node15&#45;&gt;Node24</title>
<path fill="none" stroke="midnightblue" d="M760.332,-485.118C763.024,-486.717 765.581,-488.504 767.936,-490.5 795.83,-514.156 775.871,-541.047 803.936,-564.5 808.348,-568.188 813.314,-571.286 818.562,-573.888"/>
<polygon fill="midnightblue" stroke="midnightblue" points="761.866,-481.972 751.357,-480.623 758.731,-488.231 761.866,-481.972"/>
</g>
<!-- Node25 -->
<g id="node22" class="node"><title>Node25</title>
<g id="a_node22"><a xlink:href="../../df/de0/classocra_1_1JointLimitFunction.html" target="_top" xlink:title="Create a linear function that represents the joint limit function. ">
<polygon fill="white" stroke="red" points="825.898,-536.5 825.898,-554.5 947.499,-554.5 947.499,-536.5 825.898,-536.5"/>
<text text-anchor="middle" x="886.699" y="-542.5" font-family="Helvetica,sans-Serif" font-size="10.00">ocra::JointLimitFunction</text>
</a>
</g>
</g>
<!-- Node15&#45;&gt;Node25 -->
<g id="edge21" class="edge"><title>Node15&#45;&gt;Node25</title>
<path fill="none" stroke="midnightblue" d="M755.496,-484.227C759.829,-486.062 764.038,-488.143 767.936,-490.5 787.569,-502.373 783.888,-516.342 803.936,-527.5 810.667,-531.247 818.115,-534.213 825.696,-536.562"/>
<polygon fill="midnightblue" stroke="midnightblue" points="756.476,-480.856 745.884,-480.594 754.001,-487.404 756.476,-480.856"/>
</g>
<!-- Node28 -->
<g id="node23" class="node"><title>Node28</title>
<g id="a_node23"><a xlink:href="../../d0/dd6/classocra_1_1LinearizedCoulombFunction.html" target="_top" xlink:title="LinearizedCoulombFunction class. ">
<polygon fill="white" stroke="black" points="803.936,-499.5 803.936,-517.5 969.462,-517.5 969.462,-499.5 803.936,-499.5"/>
<text text-anchor="middle" x="886.699" y="-505.5" font-family="Helvetica,sans-Serif" font-size="10.00">ocra::LinearizedCoulombFunction</text>
</a>
</g>
</g>
<!-- Node15&#45;&gt;Node28 -->
<g id="edge22" class="edge"><title>Node15&#45;&gt;Node28</title>
<path fill="none" stroke="midnightblue" d="M758.317,-482.566C784.841,-487.966 816.344,-494.38 841.385,-499.478"/>
<polygon fill="midnightblue" stroke="midnightblue" points="758.916,-479.117 748.419,-480.551 757.519,-485.976 758.916,-479.117"/>
</g>
<!-- Node29 -->
<g id="node24" class="node"><title>Node29</title>
<g id="a_node24"><a xlink:href="../../dd/d16/classocra_1_1LinearTask.html" target="_top" xlink:title="LinearTask class. ">
<polygon fill="white" stroke="black" points="842.014,-462.5 842.014,-480.5 931.383,-480.5 931.383,-462.5 842.014,-462.5"/>
<text text-anchor="middle" x="886.699" y="-468.5" font-family="Helvetica,sans-Serif" font-size="10.00">ocra::LinearTask</text>
</a>
</g>
</g>
<!-- Node15&#45;&gt;Node29 -->
<g id="edge23" class="edge"><title>Node15&#45;&gt;Node29</title>
<path fill="none" stroke="midnightblue" d="M767.341,-471.5C791.914,-471.5 819.448,-471.5 841.771,-471.5"/>
<polygon fill="midnightblue" stroke="midnightblue" points="767.015,-468 757.015,-471.5 767.015,-475 767.015,-468"/>
</g>
<!-- Node30 -->
<g id="node25" class="node"><title>Node30</title>
<g id="a_node25"><a xlink:href="../../dd/dda/classocra_1_1SecondOrderLinearTask.html" target="_top" xlink:title="SecondOrderLinearTask class. ">
<polygon fill="white" stroke="black" points="812.275,-425.5 812.275,-443.5 961.122,-443.5 961.122,-425.5 812.275,-425.5"/>
<text text-anchor="middle" x="886.699" y="-431.5" font-family="Helvetica,sans-Serif" font-size="10.00">ocra::SecondOrderLinearTask</text>
</a>
</g>
</g>
<!-- Node15&#45;&gt;Node30 -->
<g id="edge24" class="edge"><title>Node15&#45;&gt;Node30</title>
<path fill="none" stroke="midnightblue" d="M758.317,-460.434C784.841,-455.034 816.344,-448.62 841.385,-443.522"/>
<polygon fill="midnightblue" stroke="midnightblue" points="757.519,-457.024 748.419,-462.449 758.916,-463.883 757.519,-457.024"/>
</g>
<!-- Node31 -->
<g id="node26" class="node"><title>Node31</title>
<g id="a_node26"><a xlink:href="../../d0/d8f/classocra_1_1SumOfLinearFunctions.html" target="_top" xlink:title="ocra::SumOfLinearFunctions">
<polygon fill="white" stroke="black" points="815.059,-388.5 815.059,-406.5 958.339,-406.5 958.339,-388.5 815.059,-388.5"/>
<text text-anchor="middle" x="886.699" y="-394.5" font-family="Helvetica,sans-Serif" font-size="10.00">ocra::SumOfLinearFunctions</text>
</a>
</g>
</g>
<!-- Node15&#45;&gt;Node31 -->
<g id="edge25" class="edge"><title>Node15&#45;&gt;Node31</title>
<path fill="none" stroke="midnightblue" d="M757.275,-458.88C760.98,-457.286 764.573,-455.5 767.936,-453.5 787.654,-441.769 783.953,-427.775 803.936,-416.5 811.297,-412.346 819.52,-409.1 827.836,-406.562"/>
<polygon fill="midnightblue" stroke="midnightblue" points="755.998,-455.621 747.904,-462.457 758.495,-462.161 755.998,-455.621"/>
</g>
<!-- Node32 -->
<g id="node27" class="node"><title>Node32</title>
<g id="a_node27"><a xlink:href="../../dd/d3d/classocra_1_1TorqueLimitFunction.html" target="_top" xlink:title="Create a linear function that represents the torque limit function. ">
<polygon fill="white" stroke="black" points="821.172,-351.5 821.172,-369.5 952.226,-369.5 952.226,-351.5 821.172,-351.5"/>
<text text-anchor="middle" x="886.699" y="-357.5" font-family="Helvetica,sans-Serif" font-size="10.00">ocra::TorqueLimitFunction</text>
</a>
</g>
</g>
<!-- Node15&#45;&gt;Node32 -->
<g id="edge26" class="edge"><title>Node15&#45;&gt;Node32</title>
<path fill="none" stroke="midnightblue" d="M762.218,-457.644C764.221,-456.381 766.137,-455.003 767.936,-453.5 796,-430.046 775.34,-402.303 803.936,-379.5 809.063,-375.411 814.914,-372.173 821.076,-369.612"/>
<polygon fill="midnightblue" stroke="midnightblue" points="760.21,-454.744 752.968,-462.478 763.452,-460.948 760.21,-454.744"/>
</g>
<!-- Node33 -->
<g id="node28" class="node"><title>Node33</title>
<g id="a_node28"><a xlink:href="../../d7/d46/classocra_1_1VariableChiFunction.html" target="_top" xlink:title="ocra::VariableChiFunction">
<polygon fill="white" stroke="black" points="821.538,-314.5 821.538,-332.5 951.859,-332.5 951.859,-314.5 821.538,-314.5"/>
<text text-anchor="middle" x="886.699" y="-320.5" font-family="Helvetica,sans-Serif" font-size="10.00">ocra::VariableChiFunction</text>
</a>
</g>
</g>
<!-- Node15&#45;&gt;Node33 -->
<g id="edge27" class="edge"><title>Node15&#45;&gt;Node33</title>
<path fill="none" stroke="midnightblue" d="M763.359,-457.333C764.969,-456.155 766.501,-454.879 767.936,-453.5 805.323,-417.556 765.733,-377.576 803.936,-342.5 808.981,-337.868 814.93,-334.296 821.28,-331.551"/>
<polygon fill="midnightblue" stroke="midnightblue" points="761.555,-454.334 754.757,-462.46 765.139,-460.347 761.555,-454.334"/>
</g>
<!-- Node38 -->
<g id="node33" class="node"><title>Node38</title>
<g id="a_node33"><a xlink:href="../../d3/d16/classocra_1_1FcQuadraticFunction.html" target="_top" xlink:title="ocra::FcQuadraticFunction">
<polygon fill="white" stroke="black" points="819.785,-277.5 819.785,-295.5 953.612,-295.5 953.612,-277.5 819.785,-277.5"/>
<text text-anchor="middle" x="886.699" y="-283.5" font-family="Helvetica,sans-Serif" font-size="10.00">ocra::FcQuadraticFunction</text>
</a>
</g>
</g>
<!-- Node37&#45;&gt;Node38 -->
<g id="edge32" class="edge"><title>Node37&#45;&gt;Node38</title>
<path fill="none" stroke="midnightblue" d="M774.57,-298.118C789.354,-296.572 804.891,-294.948 819.507,-293.42"/>
<polygon fill="midnightblue" stroke="midnightblue" points="774.059,-294.652 764.477,-299.173 774.786,-301.614 774.059,-294.652"/>
</g>
<!-- Node39 -->
<g id="node34" class="node"><title>Node39</title>
<g id="a_node34"><a xlink:href="../../df/dfc/classocra_1_1SquaredLinearFunction.html" target="_top" xlink:title="SquaredLinearFunction class. ">
<polygon fill="white" stroke="black" points="814.214,-240.5 814.214,-258.5 959.184,-258.5 959.184,-240.5 814.214,-240.5"/>
<text text-anchor="middle" x="886.699" y="-246.5" font-family="Helvetica,sans-Serif" font-size="10.00">ocra::SquaredLinearFunction</text>
</a>
</g>
</g>
<!-- Node37&#45;&gt;Node39 -->
<g id="edge33" class="edge"><title>Node37&#45;&gt;Node39</title>
<path fill="none" stroke="midnightblue" d="M750.951,-293.514C756.734,-291.678 762.513,-289.666 767.936,-287.5 784.737,-280.79 786.984,-274.822 803.936,-268.5 814.586,-264.528 826.337,-261.212 837.529,-258.522"/>
<polygon fill="midnightblue" stroke="midnightblue" points="749.841,-290.193 741.279,-296.433 751.863,-296.895 749.841,-290.193"/>
</g>
<!-- Node40 -->
<g id="node35" class="node"><title>Node40</title>
<g id="a_node35"><a xlink:href="../../d2/d31/classocra_1_1WeightedSquareDistanceFunction.html" target="_top" xlink:title="WeightedSquareDistanceFunction class. ">
<polygon fill="white" stroke="black" points="809.583,-193.5 809.583,-221.5 963.815,-221.5 963.815,-193.5 809.583,-193.5"/>
<text text-anchor="start" x="817.583" y="-209.5" font-family="Helvetica,sans-Serif" font-size="10.00">ocra::WeightedSquareDistance</text>
<text text-anchor="middle" x="886.699" y="-199.5" font-family="Helvetica,sans-Serif" font-size="10.00">Function</text>
</a>
</g>
</g>
<!-- Node37&#45;&gt;Node40 -->
<g id="edge34" class="edge"><title>Node37&#45;&gt;Node40</title>
<path fill="none" stroke="midnightblue" d="M760.463,-292.224C763.078,-290.806 765.588,-289.237 767.936,-287.5 791.723,-269.905 780.247,-249.229 803.936,-231.5 809.147,-227.6 814.982,-224.331 821.073,-221.592"/>
<polygon fill="midnightblue" stroke="midnightblue" points="758.85,-289.114 751.24,-296.486 761.786,-295.468 758.85,-289.114"/>
</g>
<!-- Node45 -->
<g id="node40" class="node"><title>Node45</title>
<g id="a_node40"><a xlink:href="../../d6/d35/classocra_1_1CascadeQPSolver.html" target="_top" xlink:title="CascadeQPSolver class. ">
<polygon fill="white" stroke="black" points="641.325,-222.5 641.325,-240.5 764.596,-240.5 764.596,-222.5 641.325,-222.5"/>
<text text-anchor="middle" x="702.96" y="-228.5" font-family="Helvetica,sans-Serif" font-size="10.00">ocra::CascadeQPSolver</text>
</a>
</g>
</g>
<!-- Node44&#45;&gt;Node45 -->
<g id="edge39" class="edge"><title>Node44&#45;&gt;Node45</title>
<path fill="none" stroke="midnightblue" d="M590.586,-170.372C594.559,-172.193 598.424,-174.23 601.985,-176.5 621.333,-188.832 618.267,-201.769 637.985,-213.5 644.133,-217.158 651.056,-220.099 658.017,-222.457"/>
<polygon fill="midnightblue" stroke="midnightblue" points="591.792,-167.084 581.213,-166.512 589.126,-173.557 591.792,-167.084"/>
</g>
<!-- Node46 -->
<g id="node41" class="node"><title>Node46</title>
<g id="a_node41"><a xlink:href="../../dc/d6e/classocra_1_1FSQPSolver.html" target="_top" xlink:title="FSQPSolver class. ">
<polygon fill="white" stroke="black" points="654.67,-185.5 654.67,-203.5 751.251,-203.5 751.251,-185.5 654.67,-185.5"/>
<text text-anchor="middle" x="702.96" y="-191.5" font-family="Helvetica,sans-Serif" font-size="10.00">ocra::FSQPSolver</text>
</a>
</g>
</g>
<!-- Node44&#45;&gt;Node46 -->
<g id="edge40" class="edge"><title>Node44&#45;&gt;Node46</title>
<path fill="none" stroke="midnightblue" d="M591.306,-167.985C614.345,-173.505 642.311,-180.207 664.364,-185.491"/>
<polygon fill="midnightblue" stroke="midnightblue" points="591.977,-164.546 581.437,-165.62 590.346,-171.354 591.977,-164.546"/>
</g>
<!-- Node47 -->
<g id="node42" class="node"><title>Node47</title>
<g id="a_node42"><a xlink:href="../../d2/d07/classocra_1_1NewtonSolver.html" target="_top" xlink:title="NewtonSolver class. ">
<polygon fill="white" stroke="black" points="651.33,-148.5 651.33,-166.5 754.591,-166.5 754.591,-148.5 651.33,-148.5"/>
<text text-anchor="middle" x="702.96" y="-154.5" font-family="Helvetica,sans-Serif" font-size="10.00">ocra::NewtonSolver</text>
</a>
</g>
</g>
<!-- Node44&#45;&gt;Node47 -->
<g id="edge41" class="edge"><title>Node44&#45;&gt;Node47</title>
<path fill="none" stroke="midnightblue" d="M591.668,-157.5C610.22,-157.5 631.915,-157.5 651.132,-157.5"/>
<polygon fill="midnightblue" stroke="midnightblue" points="591.437,-154 581.437,-157.5 591.437,-161 591.437,-154"/>
</g>
<!-- Node48 -->
<g id="node43" class="node"><title>Node48</title>
<g id="a_node43"><a xlink:href="../../d2/d5e/classocra_1_1OneLevelSolver.html" target="_top" xlink:title="A generic abstract class the solvers that can be used in the wOcra Controller. ">
<polygon fill="white" stroke="red" points="646.879,-111.5 646.879,-129.5 759.042,-129.5 759.042,-111.5 646.879,-111.5"/>
<text text-anchor="middle" x="702.96" y="-117.5" font-family="Helvetica,sans-Serif" font-size="10.00">ocra::OneLevelSolver</text>
</a>
</g>
</g>
<!-- Node44&#45;&gt;Node48 -->
<g id="edge42" class="edge"><title>Node44&#45;&gt;Node48</title>
<path fill="none" stroke="midnightblue" d="M591.306,-147.015C614.345,-141.495 642.311,-134.793 664.364,-129.509"/>
<polygon fill="midnightblue" stroke="midnightblue" points="590.346,-143.646 581.437,-149.38 591.977,-150.454 590.346,-143.646"/>
</g>
<!-- Node52 -->
<g id="node46" class="node"><title>Node52</title>
<g id="a_node46"><a xlink:href="../../d7/dab/classocra_1_1QuadraticSolver.html" target="_top" xlink:title="QuadraticSolver class. ">
<polygon fill="white" stroke="red" points="646.606,-74.5 646.606,-92.5 759.315,-92.5 759.315,-74.5 646.606,-74.5"/>
<text text-anchor="middle" x="702.96" y="-80.5" font-family="Helvetica,sans-Serif" font-size="10.00">ocra::QuadraticSolver</text>
</a>
</g>
</g>
<!-- Node44&#45;&gt;Node52 -->
<g id="edge45" class="edge"><title>Node44&#45;&gt;Node52</title>
<path fill="none" stroke="midnightblue" d="M568.615,-142.532C586.42,-130.419 612.954,-113.605 637.985,-102.5 646.67,-98.6472 656.355,-95.3132 665.508,-92.561"/>
<polygon fill="midnightblue" stroke="midnightblue" points="566.389,-139.816 560.154,-148.382 570.37,-145.574 566.389,-139.816"/>
</g>
<!-- Node49 -->
<g id="node44" class="node"><title>Node49</title>
<g id="a_node44"><a xlink:href="../../df/d1b/classocra_1_1OneLevelSolverWithQLD.html" target="_top" xlink:title="Solver class that only consider one level of importance for all tasks using QLD. ">
<polygon fill="white" stroke="black" points="810.337,-132.5 810.337,-150.5 963.061,-150.5 963.061,-132.5 810.337,-132.5"/>
<text text-anchor="middle" x="886.699" y="-138.5" font-family="Helvetica,sans-Serif" font-size="10.00">ocra::OneLevelSolverWithQLD</text>
</a>
</g>
</g>
<!-- Node48&#45;&gt;Node49 -->
<g id="edge43" class="edge"><title>Node48&#45;&gt;Node49</title>
<path fill="none" stroke="midnightblue" d="M769.79,-128.107C782.88,-129.619 796.723,-131.219 810.11,-132.766"/>
<polygon fill="midnightblue" stroke="midnightblue" points="769.811,-124.586 759.475,-126.915 769.008,-131.54 769.811,-124.586"/>
</g>
<!-- Node50 -->
<g id="node45" class="node"><title>Node50</title>
<g id="a_node45"><a xlink:href="../../d0/d12/classocra_1_1OneLevelSolverWithQPOASES.html" target="_top" xlink:title="Solver class that only consider one level of importance for all tasks using QPOASES. ">
<polygon fill="white" stroke="black" points="820.618,-85.5 820.618,-113.5 952.78,-113.5 952.78,-85.5 820.618,-85.5"/>
<text text-anchor="start" x="828.618" y="-101.5" font-family="Helvetica,sans-Serif" font-size="10.00">ocra::OneLevelSolverWith</text>
<text text-anchor="middle" x="886.699" y="-91.5" font-family="Helvetica,sans-Serif" font-size="10.00">QPOASES</text>
</a>
</g>
</g>
<!-- Node48&#45;&gt;Node50 -->
<g id="edge44" class="edge"><title>Node48&#45;&gt;Node50</title>
<path fill="none" stroke="midnightblue" d="M769.579,-112.918C786.091,-111.01 803.811,-108.962 820.312,-107.056"/>
<polygon fill="midnightblue" stroke="midnightblue" points="769.008,-109.46 759.475,-114.085 769.811,-116.414 769.008,-109.46"/>
</g>
<!-- Node56 -->
<g id="node48" class="node"><title>Node56</title>
<g id="a_node48"><a xlink:href="../../d5/d40/classocra_1_1BaseVariable.html" target="_top" xlink:title="Implements a basic variable. ">
<polygon fill="white" stroke="black" points="653.083,-37.5 653.083,-55.5 752.838,-55.5 752.838,-37.5 653.083,-37.5"/>
<text text-anchor="middle" x="702.96" y="-43.5" font-family="Helvetica,sans-Serif" font-size="10.00">ocra::BaseVariable</text>
</a>
</g>
</g>
<!-- Node55&#45;&gt;Node56 -->
<g id="edge47" class="edge"><title>Node55&#45;&gt;Node56</title>
<path fill="none" stroke="midnightblue" d="M595.454,-46.5C613.713,-46.5 634.538,-46.5 652.902,-46.5"/>
<polygon fill="midnightblue" stroke="midnightblue" points="595.324,-43.0001 585.324,-46.5 595.324,-50.0001 595.324,-43.0001"/>
</g>
<!-- Node57 -->
<g id="node49" class="node"><title>Node57</title>
<g id="a_node49"><a xlink:href="../../d2/d7c/classocra_1_1CompositeVariable.html" target="_top" xlink:title="A concatenation of base variables and other composite variables. ">
<polygon fill="white" stroke="black" points="640.581,-0.5 640.581,-18.5 765.34,-18.5 765.34,-0.5 640.581,-0.5"/>
<text text-anchor="middle" x="702.96" y="-6.5" font-family="Helvetica,sans-Serif" font-size="10.00">ocra::CompositeVariable</text>
</a>
</g>
</g>
<!-- Node55&#45;&gt;Node57 -->
<g id="edge48" class="edge"><title>Node55&#45;&gt;Node57</title>
<path fill="none" stroke="midnightblue" d="M595.229,-35.0753C617.446,-29.7516 643.504,-23.5076 664.31,-18.5218"/>
<polygon fill="midnightblue" stroke="midnightblue" points="594.233,-31.7148 585.324,-37.4488 595.864,-38.5221 594.233,-31.7148"/>
</g>
</g>
</svg>
