<?xml version="1.0" encoding="UTF-8" standalone="no"?>
<!DOCTYPE svg PUBLIC "-//W3C//DTD SVG 1.1//EN"
 "http://www.w3.org/Graphics/SVG/1.1/DTD/svg11.dtd">
<!-- Generated by graphviz version 2.38.0 (20140413.2041)
 -->
<!-- Title: Performances.h Pages: 1 -->
<svg width="189pt" height="82pt"
 viewBox="0.00 0.00 188.68 82.00" xmlns="http://www.w3.org/2000/svg" xmlns:xlink="http://www.w3.org/1999/xlink">
<g id="graph0" class="graph" transform="scale(1 1) rotate(0) translate(4 78)">
<title>Performances.h</title>
<polygon fill="white" stroke="none" points="-4,4 -4,-78 184.677,-78 184.677,4 -4,4"/>
<!-- Node0 -->
<g id="node1" class="node"><title>Node0</title>
<polygon fill="#bfbfbf" stroke="black" points="50.2119,-55.5 50.2119,-73.5 136.798,-73.5 136.798,-55.5 50.2119,-55.5"/>
<text text-anchor="middle" x="93.5049" y="-61.5" font-family="Helvetica,sans-Serif" font-size="10.00">Performances.h</text>
</g>
<!-- Node1 -->
<g id="node2" class="node"><title>Node1</title>
<polygon fill="white" stroke="#bfbfbf" points="0,-0.5 0,-18.5 61.0098,-18.5 61.0098,-0.5 0,-0.5"/>
<text text-anchor="middle" x="30.5049" y="-6.5" font-family="Helvetica,sans-Serif" font-size="10.00">sys/time.h</text>
</g>
<!-- Node0&#45;&gt;Node1 -->
<g id="edge1" class="edge"><title>Node0&#45;&gt;Node1</title>
<path fill="none" stroke="midnightblue" d="M83.9365,-55.4504C74.4081,-47.4345 59.5646,-34.9471 47.9384,-25.1663"/>
<polygon fill="midnightblue" stroke="midnightblue" points="50.0687,-22.3847 40.1633,-18.6253 45.5624,-27.7413 50.0687,-22.3847"/>
</g>
<!-- Node2 -->
<g id="node3" class="node"><title>Node2</title>
<polygon fill="white" stroke="#bfbfbf" points="79.0049,-0.5 79.0049,-18.5 108.005,-18.5 108.005,-0.5 79.0049,-0.5"/>
<text text-anchor="middle" x="93.1157" y="-6.5" font-family="Helvetica,sans-Serif" font-size="10.00">list</text>
</g>
<!-- Node0&#45;&gt;Node2 -->
<g id="edge2" class="edge"><title>Node0&#45;&gt;Node2</title>
<path fill="none" stroke="midnightblue" d="M93.5049,-55.2188C93.5049,-48.1769 93.5049,-37.8083 93.5049,-28.8277"/>
<polygon fill="midnightblue" stroke="midnightblue" points="97.005,-28.5495 93.5049,-18.5496 90.005,-28.5496 97.005,-28.5495"/>
</g>
<!-- Node3 -->
<g id="node4" class="node"><title>Node3</title>
<polygon fill="white" stroke="#bfbfbf" points="126.333,-0.5 126.333,-18.5 180.677,-18.5 180.677,-0.5 126.333,-0.5"/>
<text text-anchor="middle" x="153.505" y="-6.5" font-family="Helvetica,sans-Serif" font-size="10.00">iostream</text>
</g>
<!-- Node0&#45;&gt;Node3 -->
<g id="edge3" class="edge"><title>Node0&#45;&gt;Node3</title>
<path fill="none" stroke="midnightblue" d="M102.618,-55.4504C111.604,-47.5123 125.555,-35.1891 136.578,-25.4519"/>
<polygon fill="midnightblue" stroke="midnightblue" points="139.129,-27.8689 144.306,-18.6253 134.495,-22.6225 139.129,-27.8689"/>
</g>
</g>
</svg>
