<?xml version="1.0" encoding="UTF-8" standalone="no"?>
<!DOCTYPE svg PUBLIC "-//W3C//DTD SVG 1.1//EN"
 "http://www.w3.org/Graphics/SVG/1.1/DTD/svg11.dtd">
<!-- Generated by graphviz version 2.38.0 (20140413.2041)
 -->
<!-- Title: wocra::WocraController Pages: 1 -->
<svg width="210pt" height="137pt"
 viewBox="0.00 0.00 209.88 137.00" xmlns="http://www.w3.org/2000/svg" xmlns:xlink="http://www.w3.org/1999/xlink">
<g id="graph0" class="graph" transform="scale(1 1) rotate(0) translate(4 133)">
<title>wocra::WocraController</title>
<polygon fill="white" stroke="none" points="-4,4 -4,-133 205.881,-133 205.881,4 -4,4"/>
<!-- Node0 -->
<g id="node1" class="node"><title>Node0</title>
<polygon fill="#bfbfbf" stroke="black" points="50.376,-0.5 50.376,-18.5 170.673,-18.5 170.673,-0.5 50.376,-0.5"/>
<text text-anchor="middle" x="110.524" y="-6.5" font-family="Helvetica,sans-Serif" font-size="10.00">wocra::WocraController</text>
</g>
<!-- Node1 -->
<g id="node2" class="node"><title>Node1</title>
<g id="a_node2"><a xlink:href="../../d8/d92/classocra_1_1Controller.html" target="_top" xlink:title="Interface for controllers. ">
<polygon fill="white" stroke="black" points="68.3447,-55.5 68.3447,-73.5 152.704,-73.5 152.704,-55.5 68.3447,-55.5"/>
<text text-anchor="middle" x="110.524" y="-61.5" font-family="Helvetica,sans-Serif" font-size="10.00">ocra::Controller</text>
</a>
</g>
</g>
<!-- Node1&#45;&gt;Node0 -->
<g id="edge1" class="edge"><title>Node1&#45;&gt;Node0</title>
<path fill="none" stroke="midnightblue" d="M110.524,-45.1746C110.524,-36.0945 110.524,-25.5949 110.524,-18.5496"/>
<polygon fill="midnightblue" stroke="midnightblue" points="107.025,-45.2187 110.524,-55.2188 114.025,-45.2188 107.025,-45.2187"/>
</g>
<!-- Node2 -->
<g id="node3" class="node"><title>Node2</title>
<g id="a_node3"><a xlink:href="../../db/de3/classocra_1_1NamedInstance.html" target="_top" xlink:title="ocra::NamedInstance">
<polygon fill="white" stroke="black" points="0,-110.5 0,-128.5 111.049,-128.5 111.049,-110.5 0,-110.5"/>
<text text-anchor="middle" x="55.5244" y="-116.5" font-family="Helvetica,sans-Serif" font-size="10.00">ocra::NamedInstance</text>
</a>
</g>
</g>
<!-- Node2&#45;&gt;Node1 -->
<g id="edge2" class="edge"><title>Node2&#45;&gt;Node1</title>
<path fill="none" stroke="midnightblue" d="M71.495,-103.11C81.5261,-93.4438 94.0564,-81.3692 102.171,-73.5496"/>
<polygon fill="midnightblue" stroke="midnightblue" points="68.8903,-100.76 64.1182,-110.219 73.7476,-105.8 68.8903,-100.76"/>
</g>
<!-- Node3 -->
<g id="node4" class="node"><title>Node3</title>
<polygon fill="white" stroke="#bfbfbf" points="129.167,-110.5 129.167,-128.5 201.881,-128.5 201.881,-110.5 129.167,-110.5"/>
<text text-anchor="middle" x="165.524" y="-116.5" font-family="Helvetica,sans-Serif" font-size="10.00">noncopyable</text>
</g>
<!-- Node3&#45;&gt;Node1 -->
<g id="edge3" class="edge"><title>Node3&#45;&gt;Node1</title>
<path fill="none" stroke="#8b1a1a" d="M149.554,-103.11C139.523,-93.4438 126.992,-81.3692 118.878,-73.5496"/>
<polygon fill="#8b1a1a" stroke="#8b1a1a" points="147.301,-105.8 156.931,-110.219 152.158,-100.76 147.301,-105.8"/>
</g>
</g>
</svg>
