<?xml version="1.0" encoding="UTF-8" standalone="no"?>
<!DOCTYPE svg PUBLIC "-//W3C//DTD SVG 1.1//EN"
 "http://www.w3.org/Graphics/SVG/1.1/DTD/svg11.dtd">
<!-- Generated by graphviz version 2.38.0 (20140413.2041)
 -->
<!-- Title: Module Pages: 1 -->
<svg width="244pt" height="92pt"
 viewBox="0.00 0.00 244.37 92.00" xmlns="http://www.w3.org/2000/svg" xmlns:xlink="http://www.w3.org/1999/xlink">
<g id="graph0" class="graph" transform="scale(1 1) rotate(0) translate(4 88)">
<title>Module</title>
<polygon fill="white" stroke="none" points="-4,4 -4,-88 240.369,-88 240.369,4 -4,4"/>
<!-- Node2 -->
<g id="node1" class="node"><title>Node2</title>
<polygon fill="#bfbfbf" stroke="black" points="90.229,-0.5 90.229,-18.5 139.027,-18.5 139.027,-0.5 90.229,-0.5"/>
<text text-anchor="middle" x="114.628" y="-6.5" font-family="Helvetica,sans-Serif" font-size="10.00">Module</text>
</g>
<!-- Node3 -->
<g id="node2" class="node"><title>Node3</title>
<polygon fill="white" stroke="#bfbfbf" points="0,-65.5 0,-83.5 103.256,-83.5 103.256,-65.5 0,-65.5"/>
<text text-anchor="middle" x="51.6279" y="-71.5" font-family="Helvetica,sans-Serif" font-size="10.00">yarp::os::RFModule</text>
</g>
<!-- Node3&#45;&gt;Node2 -->
<g id="edge1" class="edge"><title>Node3&#45;&gt;Node2</title>
<path fill="none" stroke="midnightblue" d="M66.9409,-58.187C79.4478,-45.6802 96.6294,-28.4986 106.589,-18.539"/>
<polygon fill="midnightblue" stroke="midnightblue" points="64.4603,-55.7179 59.8641,-65.2639 69.4101,-60.6676 64.4603,-55.7179"/>
</g>
<!-- Node4 -->
<g id="node3" class="node"><title>Node4</title>
<g id="a_node3"><a xlink:href="classOcraControllerOptions.html" target="_top" xlink:title="OcraControllerOptions">
<polygon fill="white" stroke="black" points="120.887,-65.5 120.887,-83.5 236.369,-83.5 236.369,-65.5 120.887,-65.5"/>
<text text-anchor="middle" x="178.628" y="-71.5" font-family="Helvetica,sans-Serif" font-size="10.00">OcraControllerOptions</text>
</a>
</g>
</g>
<!-- Node4&#45;&gt;Node2 -->
<g id="edge2" class="edge"><title>Node4&#45;&gt;Node2</title>
<path fill="none" stroke="#9a32cd" stroke-dasharray="5,2" d="M163.072,-58.187C150.367,-45.6802 132.912,-28.4986 122.795,-18.539"/>
<polygon fill="#9a32cd" stroke="#9a32cd" points="160.679,-60.7429 170.261,-65.2639 165.59,-55.7544 160.679,-60.7429"/>
<text text-anchor="middle" x="190.485" y="-39" font-family="Helvetica,sans-Serif" font-size="10.00"> controller_options</text>
</g>
</g>
</svg>
