<?xml version="1.0" encoding="UTF-8" standalone="no"?>
<!DOCTYPE svg PUBLIC "-//W3C//DTD SVG 1.1//EN"
 "http://www.w3.org/Graphics/SVG/1.1/DTD/svg11.dtd">
<!-- Generated by graphviz version 2.38.0 (20140413.2041)
 -->
<!-- Title: Thread Pages: 1 -->
<svg width="252pt" height="92pt"
 viewBox="0.00 0.00 251.71 92.00" xmlns="http://www.w3.org/2000/svg" xmlns:xlink="http://www.w3.org/1999/xlink">
<g id="graph0" class="graph" transform="scale(1 1) rotate(0) translate(4 88)">
<title>Thread</title>
<polygon fill="white" stroke="none" points="-4,4 -4,-88 247.709,-88 247.709,4 -4,4"/>
<!-- Node2 -->
<g id="node1" class="node"><title>Node2</title>
<polygon fill="#bfbfbf" stroke="black" points="96.1255,-0.5 96.1255,-18.5 143.81,-18.5 143.81,-0.5 96.1255,-0.5"/>
<text text-anchor="middle" x="119.968" y="-6.5" font-family="Helvetica,sans-Serif" font-size="10.00">Thread</text>
</g>
<!-- Node3 -->
<g id="node2" class="node"><title>Node3</title>
<polygon fill="white" stroke="#bfbfbf" points="0,-65.5 0,-83.5 109.936,-83.5 109.936,-65.5 0,-65.5"/>
<text text-anchor="middle" x="54.9678" y="-71.5" font-family="Helvetica,sans-Serif" font-size="10.00">yarp::os::RateThread</text>
</g>
<!-- Node3&#45;&gt;Node2 -->
<g id="edge1" class="edge"><title>Node3&#45;&gt;Node2</title>
<path fill="none" stroke="midnightblue" d="M70.7669,-58.187C83.6708,-45.6802 101.398,-28.4986 111.674,-18.539"/>
<polygon fill="midnightblue" stroke="midnightblue" points="68.2102,-55.7908 63.4654,-65.2639 73.082,-60.8173 68.2102,-55.7908"/>
</g>
<!-- Node4 -->
<g id="node3" class="node"><title>Node4</title>
<g id="a_node3"><a xlink:href="classOcraControllerOptions.html" target="_top" xlink:title="OcraControllerOptions">
<polygon fill="white" stroke="black" points="128.227,-65.5 128.227,-83.5 243.709,-83.5 243.709,-65.5 128.227,-65.5"/>
<text text-anchor="middle" x="185.968" y="-71.5" font-family="Helvetica,sans-Serif" font-size="10.00">OcraControllerOptions</text>
</a>
</g>
</g>
<!-- Node4&#45;&gt;Node2 -->
<g id="edge2" class="edge"><title>Node4&#45;&gt;Node2</title>
<path fill="none" stroke="#9a32cd" stroke-dasharray="5,2" d="M169.926,-58.187C156.823,-45.6802 138.823,-28.4986 128.39,-18.539"/>
<polygon fill="#9a32cd" stroke="#9a32cd" points="167.689,-60.8908 177.339,-65.2639 172.523,-55.8273 167.689,-60.8908"/>
<text text-anchor="middle" x="182.253" y="-39" font-family="Helvetica,sans-Serif" font-size="10.00"> ctrlOptions</text>
</g>
</g>
</svg>
