<?xml version="1.0" encoding="UTF-8" standalone="no"?>
<!DOCTYPE svg PUBLIC "-//W3C//DTD SVG 1.1//EN"
 "http://www.w3.org/Graphics/SVG/1.1/DTD/svg11.dtd">
<!-- Generated by graphviz version 2.38.0 (20140413.2041)
 -->
<!-- Title: WalkingClient Pages: 1 -->
<svg width="207pt" height="157pt"
 viewBox="0.00 0.00 207.36 157.00" xmlns="http://www.w3.org/2000/svg" xmlns:xlink="http://www.w3.org/1999/xlink">
<g id="graph0" class="graph" transform="scale(1 1) rotate(0) translate(4 153)">
<title>WalkingClient</title>
<polygon fill="white" stroke="none" points="-4,4 -4,-153 203.359,-153 203.359,4 -4,4"/>
<!-- Node2 -->
<g id="node1" class="node"><title>Node2</title>
<polygon fill="#bfbfbf" stroke="black" points="37.0747,-0.5 37.0747,-18.5 113.841,-18.5 113.841,-0.5 37.0747,-0.5"/>
<text text-anchor="middle" x="75.458" y="-6.5" font-family="Helvetica,sans-Serif" font-size="10.00">WalkingClient</text>
</g>
<!-- Node3 -->
<g id="node2" class="node"><title>Node3</title>
<polygon fill="white" stroke="#bfbfbf" points="0,-65.5 0,-83.5 84.916,-83.5 84.916,-65.5 0,-65.5"/>
<text text-anchor="middle" x="42.458" y="-71.5" font-family="Helvetica,sans-Serif" font-size="10.00">ControllerClient</text>
</g>
<!-- Node3&#45;&gt;Node2 -->
<g id="edge1" class="edge"><title>Node3&#45;&gt;Node2</title>
<path fill="none" stroke="midnightblue" d="M51.4218,-56.3872C57.8709,-44.0753 66.2763,-28.0288 71.2471,-18.539"/>
<polygon fill="midnightblue" stroke="midnightblue" points="48.3119,-54.7815 46.7722,-65.2639 54.5127,-58.0296 48.3119,-54.7815"/>
</g>
<!-- Node4 -->
<g id="node3" class="node"><title>Node4</title>
<g id="a_node3"><a xlink:href="classZmpController.html" target="_top" xlink:title="Implementes a ZMP controller as a force set point regulator. ">
<polygon fill="white" stroke="black" points="102.783,-65.5 102.783,-83.5 182.133,-83.5 182.133,-65.5 102.783,-65.5"/>
<text text-anchor="middle" x="142.458" y="-71.5" font-family="Helvetica,sans-Serif" font-size="10.00">ZmpController</text>
</a>
</g>
</g>
<!-- Node4&#45;&gt;Node2 -->
<g id="edge2" class="edge"><title>Node4&#45;&gt;Node2</title>
<path fill="none" stroke="#9a32cd" stroke-dasharray="5,2" d="M126.173,-58.187C112.872,-45.6802 94.5993,-28.4986 84.0074,-18.539"/>
<polygon fill="#9a32cd" stroke="#9a32cd" points="124.016,-60.9634 133.699,-65.2639 128.811,-55.8637 124.016,-60.9634"/>
<text text-anchor="middle" x="152.749" y="-39" font-family="Helvetica,sans-Serif" font-size="10.00"> zmpControllerObj</text>
</g>
<!-- Node5 -->
<g id="node4" class="node"><title>Node5</title>
<g id="a_node4"><a xlink:href="structZmpControllerParams.html" target="_top" xlink:title="ZmpControllerParams">
<polygon fill="white" stroke="black" points="85.5566,-130.5 85.5566,-148.5 199.359,-148.5 199.359,-130.5 85.5566,-130.5"/>
<text text-anchor="middle" x="142.458" y="-136.5" font-family="Helvetica,sans-Serif" font-size="10.00">ZmpControllerParams</text>
</a>
</g>
</g>
<!-- Node5&#45;&gt;Node4 -->
<g id="edge3" class="edge"><title>Node5&#45;&gt;Node4</title>
<path fill="none" stroke="#9a32cd" stroke-dasharray="5,2" d="M142.458,-119.907C142.458,-107.815 142.458,-92.6529 142.458,-83.539"/>
<polygon fill="#9a32cd" stroke="#9a32cd" points="138.958,-120.264 142.458,-130.264 145.958,-120.264 138.958,-120.264"/>
<text text-anchor="middle" x="160.52" y="-104" font-family="Helvetica,sans-Serif" font-size="10.00"> params</text>
</g>
</g>
</svg>
