<?xml version="1.0" encoding="UTF-8" standalone="no"?>
<!DOCTYPE svg PUBLIC "-//W3C//DTD SVG 1.1//EN"
 "http://www.w3.org/Graphics/SVG/1.1/DTD/svg11.dtd">
<!-- Generated by graphviz version 2.38.0 (20140413.2041)
 -->
<!-- Title: Thread::ControllerRpcServerCallback Pages: 1 -->
<svg width="252pt" height="167pt"
 viewBox="0.00 0.00 251.71 167.00" xmlns="http://www.w3.org/2000/svg" xmlns:xlink="http://www.w3.org/1999/xlink">
<g id="graph0" class="graph" transform="scale(1 1) rotate(0) translate(4 163)">
<title>Thread::ControllerRpcServerCallback</title>
<polygon fill="white" stroke="none" points="-4,4 -4,-163 247.709,-163 247.709,4 -4,4"/>
<!-- Node2 -->
<g id="node1" class="node"><title>Node2</title>
<polygon fill="#bfbfbf" stroke="black" points="1.0542,-0.5 1.0542,-28.5 144.881,-28.5 144.881,-0.5 1.0542,-0.5"/>
<text text-anchor="start" x="9.0542" y="-16.5" font-family="Helvetica,sans-Serif" font-size="10.00">Thread::ControllerRpcServer</text>
<text text-anchor="middle" x="72.9678" y="-6.5" font-family="Helvetica,sans-Serif" font-size="10.00">Callback</text>
</g>
<!-- Node3 -->
<g id="node2" class="node"><title>Node3</title>
<polygon fill="white" stroke="#bfbfbf" points="12.3989,-75.5 12.3989,-93.5 79.5366,-93.5 79.5366,-75.5 12.3989,-75.5"/>
<text text-anchor="middle" x="45.9678" y="-81.5" font-family="Helvetica,sans-Serif" font-size="10.00">PortReader</text>
</g>
<!-- Node3&#45;&gt;Node2 -->
<g id="edge1" class="edge"><title>Node3&#45;&gt;Node2</title>
<path fill="none" stroke="midnightblue" d="M52.9461,-65.9248C57.5632,-54.2967 63.5198,-39.2949 67.7319,-28.6867"/>
<polygon fill="midnightblue" stroke="midnightblue" points="49.6085,-64.8467 49.1711,-75.4325 56.1144,-67.4299 49.6085,-64.8467"/>
</g>
<!-- Node4 -->
<g id="node3" class="node"><title>Node4</title>
<g id="a_node3"><a xlink:href="classThread.html" target="_top" xlink:title="The meat and potatoes of the controller server. ">
<polygon fill="white" stroke="black" points="97.1255,-75.5 97.1255,-93.5 144.81,-93.5 144.81,-75.5 97.1255,-75.5"/>
<text text-anchor="middle" x="120.968" y="-81.5" font-family="Helvetica,sans-Serif" font-size="10.00">Thread</text>
</a>
</g>
</g>
<!-- Node4&#45;&gt;Node2 -->
<g id="edge2" class="edge"><title>Node4&#45;&gt;Node2</title>
<path fill="none" stroke="#9a32cd" stroke-dasharray="5,2" d="M109.309,-66.983C101.005,-55.2193 89.9934,-39.6196 82.276,-28.6867"/>
<polygon fill="#9a32cd" stroke="#9a32cd" points="106.647,-69.2812 115.273,-75.4325 112.366,-65.2444 106.647,-69.2812"/>
<text text-anchor="middle" x="117.534" y="-49" font-family="Helvetica,sans-Serif" font-size="10.00"> thread</text>
</g>
<!-- Node5 -->
<g id="node4" class="node"><title>Node5</title>
<polygon fill="white" stroke="#bfbfbf" points="0,-140.5 0,-158.5 109.936,-158.5 109.936,-140.5 0,-140.5"/>
<text text-anchor="middle" x="54.9678" y="-146.5" font-family="Helvetica,sans-Serif" font-size="10.00">yarp::os::RateThread</text>
</g>
<!-- Node5&#45;&gt;Node4 -->
<g id="edge3" class="edge"><title>Node5&#45;&gt;Node4</title>
<path fill="none" stroke="midnightblue" d="M71.0099,-133.187C84.1124,-120.68 102.112,-103.499 112.546,-93.539"/>
<polygon fill="midnightblue" stroke="midnightblue" points="68.413,-130.827 63.5961,-140.264 73.2464,-135.891 68.413,-130.827"/>
</g>
<!-- Node6 -->
<g id="node5" class="node"><title>Node6</title>
<g id="a_node5"><a xlink:href="classOcraControllerOptions.html" target="_top" xlink:title="OcraControllerOptions">
<polygon fill="white" stroke="black" points="128.227,-140.5 128.227,-158.5 243.709,-158.5 243.709,-140.5 128.227,-140.5"/>
<text text-anchor="middle" x="185.968" y="-146.5" font-family="Helvetica,sans-Serif" font-size="10.00">OcraControllerOptions</text>
</a>
</g>
</g>
<!-- Node6&#45;&gt;Node4 -->
<g id="edge4" class="edge"><title>Node6&#45;&gt;Node4</title>
<path fill="none" stroke="#9a32cd" stroke-dasharray="5,2" d="M170.169,-133.187C157.265,-120.68 139.538,-103.499 129.262,-93.539"/>
<polygon fill="#9a32cd" stroke="#9a32cd" points="167.854,-135.817 177.47,-140.264 172.725,-130.791 167.854,-135.817"/>
<text text-anchor="middle" x="182.253" y="-114" font-family="Helvetica,sans-Serif" font-size="10.00"> ctrlOptions</text>
</g>
</g>
</svg>
