<?xml version="1.0" encoding="UTF-8" standalone="no"?>
<!DOCTYPE svg PUBLIC "-//W3C//DTD SVG 1.1//EN"
 "http://www.w3.org/Graphics/SVG/1.1/DTD/svg11.dtd">
<!-- Generated by graphviz version 2.38.0 (20140413.2041)
 -->
<!-- Title: /Users/jorhabibeljaik/Code/codyco&#45;superbuild/main/ocra&#45;wbi&#45;plugins/ocra&#45;icub&#45;clients/example&#45;client/src Pages: 1 -->
<svg width="111pt" height="222pt"
 viewBox="0.00 0.00 111.00 222.00" xmlns="http://www.w3.org/2000/svg" xmlns:xlink="http://www.w3.org/1999/xlink">
<g id="graph0" class="graph" transform="scale(1 1) rotate(0) translate(4 218)">
<title>/Users/jorhabibeljaik/Code/codyco&#45;superbuild/main/ocra&#45;wbi&#45;plugins/ocra&#45;icub&#45;clients/example&#45;client/src</title>
<polygon fill="white" stroke="none" points="-4,4 -4,-218 107,-218 107,4 -4,4"/>
<g id="clust1" class="cluster"><title>clusterdir_15fefd76ec8e69ad06581a4a7e5808dd</title>
<g id="a_clust1"><a xlink:href="dir_15fefd76ec8e69ad06581a4a7e5808dd.html" target="_top" xlink:title="example&#45;client">
<polygon fill="#ddddee" stroke="black" points="8,-136 8,-206 88,-206 88,-136 8,-136"/>
<text text-anchor="middle" x="48" y="-194" font-family="Helvetica,sans-Serif" font-size="10.00">example&#45;client</text>
</a>
</g>
</g>
<!-- dir_ba121be2e20fd665188ddae35ddb43f7 -->
<g id="node1" class="node"><title>dir_ba121be2e20fd665188ddae35ddb43f7</title>
<g id="a_node1"><a xlink:href="dir_ba121be2e20fd665188ddae35ddb43f7.html" target="_top" xlink:title="src">
<polygon fill="#eeeeff" stroke="black" points="75,-180 21,-180 21,-144 75,-144 75,-180"/>
<text text-anchor="middle" x="48" y="-159" font-family="Helvetica,sans-Serif" font-size="10.00">src</text>
</a>
</g>
</g>
<!-- dir_ae0ac749c71297e1475c146e3b298b2a -->
<g id="node2" class="node"><title>dir_ae0ac749c71297e1475c146e3b298b2a</title>
<g id="a_node2"><a xlink:href="dir_ae0ac749c71297e1475c146e3b298b2a.html" target="_top" xlink:title="ocra&#45;icub">
<polygon fill="white" stroke="red" points="76.6281,-36 19.3719,-36 19.3719,-0 76.6281,-0 76.6281,-36"/>
<text text-anchor="middle" x="48" y="-15" font-family="Helvetica,sans-Serif" font-size="10.00">ocra&#45;icub</text>
</a>
</g>
</g>
<!-- dir_ba121be2e20fd665188ddae35ddb43f7&#45;&gt;dir_ae0ac749c71297e1475c146e3b298b2a -->
<g id="edge1" class="edge"><title>dir_ba121be2e20fd665188ddae35ddb43f7&#45;&gt;dir_ae0ac749c71297e1475c146e3b298b2a</title>
<path fill="none" stroke="black" d="M44.7517,-143.888C42.9542,-133.542 40.9053,-120.063 40,-108 38.8026,-92.0449 38.8026,-87.9551 40,-72 40.6366,-63.5179 41.8384,-54.3361 43.1208,-46.0356"/>
<polygon fill="black" stroke="black" points="46.5836,-46.5472 44.7517,-36.1119 39.6763,-45.412 46.5836,-46.5472"/>
<g id="a_edge1&#45;headlabel"><a xlink:href="dir_000006_000019.html" target="_top" xlink:title="1">
<text text-anchor="middle" x="48.8024" y="-47.5546" font-family="Helvetica,sans-Serif" font-size="10.00">1</text>
</a>
</g>
</g>
<!-- dir_a42d3cb0a5c745edc4935fe50bb2938a -->
<g id="node3" class="node"><title>dir_a42d3cb0a5c745edc4935fe50bb2938a</title>
<g id="a_node3"><a xlink:href="dir_a42d3cb0a5c745edc4935fe50bb2938a.html" target="_top" xlink:title="include">
<polygon fill="white" stroke="red" points="103,-108 49,-108 49,-72 103,-72 103,-108"/>
<text text-anchor="middle" x="76" y="-87" font-family="Helvetica,sans-Serif" font-size="10.00">include</text>
</a>
</g>
</g>
<!-- dir_ba121be2e20fd665188ddae35ddb43f7&#45;&gt;dir_a42d3cb0a5c745edc4935fe50bb2938a -->
<g id="edge2" class="edge"><title>dir_ba121be2e20fd665188ddae35ddb43f7&#45;&gt;dir_a42d3cb0a5c745edc4935fe50bb2938a</title>
<path fill="none" stroke="black" d="M54.9214,-143.697C58.0747,-135.813 61.8783,-126.304 65.3814,-117.546"/>
<polygon fill="black" stroke="black" points="68.694,-118.689 69.1583,-108.104 62.1946,-116.089 68.694,-118.689"/>
<g id="a_edge2&#45;headlabel"><a xlink:href="dir_000006_000004.html" target="_top" xlink:title="2">
<text text-anchor="middle" x="69.9952" y="-120.081" font-family="Helvetica,sans-Serif" font-size="10.00">2</text>
</a>
</g>
</g>
<!-- dir_a42d3cb0a5c745edc4935fe50bb2938a&#45;&gt;dir_ae0ac749c71297e1475c146e3b298b2a -->
<g id="edge3" class="edge"><title>dir_a42d3cb0a5c745edc4935fe50bb2938a&#45;&gt;dir_ae0ac749c71297e1475c146e3b298b2a</title>
<path fill="none" stroke="black" d="M69.0786,-71.6966C65.9253,-63.8132 62.1217,-54.3042 58.6186,-45.5464"/>
<polygon fill="black" stroke="black" points="61.8054,-44.0892 54.8417,-36.1043 55.306,-46.689 61.8054,-44.0892"/>
<g id="a_edge3&#45;headlabel"><a xlink:href="dir_000004_000019.html" target="_top" xlink:title="1">
<text text-anchor="middle" x="65.7765" y="-43.3723" font-family="Helvetica,sans-Serif" font-size="10.00">1</text>
</a>
</g>
</g>
</g>
</svg>
