<?xml version="1.0" encoding="UTF-8" standalone="no"?>
<!DOCTYPE svg PUBLIC "-//W3C//DTD SVG 1.1//EN"
 "http://www.w3.org/Graphics/SVG/1.1/DTD/svg11.dtd">
<!-- Generated by graphviz version 2.38.0 (20140413.2041)
 -->
<!-- Title: /Users/jorhabibeljaik/Code/codyco&#45;superbuild/main/ocra&#45;wbi&#45;plugins/ocra&#45;icub/src Pages: 1 -->
<svg width="94pt" height="150pt"
 viewBox="0.00 0.00 94.00 150.00" xmlns="http://www.w3.org/2000/svg" xmlns:xlink="http://www.w3.org/1999/xlink">
<g id="graph0" class="graph" transform="scale(1 1) rotate(0) translate(4 146)">
<title>/Users/jorhabibeljaik/Code/codyco&#45;superbuild/main/ocra&#45;wbi&#45;plugins/ocra&#45;icub/src</title>
<polygon fill="white" stroke="none" points="-4,4 -4,-146 90,-146 90,4 -4,4"/>
<g id="clust1" class="cluster"><title>clusterdir_ae0ac749c71297e1475c146e3b298b2a</title>
<g id="a_clust1"><a xlink:href="dir_ae0ac749c71297e1475c146e3b298b2a.html" target="_top" xlink:title="ocra&#45;icub">
<polygon fill="#ddddee" stroke="black" points="8,-64 8,-134 78,-134 78,-64 8,-64"/>
<text text-anchor="middle" x="43" y="-122" font-family="Helvetica,sans-Serif" font-size="10.00">ocra&#45;icub</text>
</a>
</g>
</g>
<!-- dir_891e3bb7bb3d0b104b19c7d104381c6c -->
<g id="node1" class="node"><title>dir_891e3bb7bb3d0b104b19c7d104381c6c</title>
<g id="a_node1"><a xlink:href="dir_891e3bb7bb3d0b104b19c7d104381c6c.html" target="_top" xlink:title="src">
<polygon fill="#eeeeff" stroke="black" points="70,-108 16,-108 16,-72 70,-72 70,-108"/>
<text text-anchor="middle" x="43" y="-87" font-family="Helvetica,sans-Serif" font-size="10.00">src</text>
</a>
</g>
</g>
<!-- dir_64d70e58af70d29ce410f9d2ad82d6e7 -->
<g id="node2" class="node"><title>dir_64d70e58af70d29ce410f9d2ad82d6e7</title>
<g id="a_node2"><a xlink:href="dir_64d70e58af70d29ce410f9d2ad82d6e7.html" target="_top" xlink:title="include">
<polygon fill="white" stroke="red" points="70,-36 16,-36 16,-0 70,-0 70,-36"/>
<text text-anchor="middle" x="43" y="-15" font-family="Helvetica,sans-Serif" font-size="10.00">include</text>
</a>
</g>
</g>
<!-- dir_891e3bb7bb3d0b104b19c7d104381c6c&#45;&gt;dir_64d70e58af70d29ce410f9d2ad82d6e7 -->
<g id="edge1" class="edge"><title>dir_891e3bb7bb3d0b104b19c7d104381c6c&#45;&gt;dir_64d70e58af70d29ce410f9d2ad82d6e7</title>
<path fill="none" stroke="black" d="M43,-71.6966C43,-63.9827 43,-54.7125 43,-46.1124"/>
<polygon fill="black" stroke="black" points="46.5001,-46.1043 43,-36.1043 39.5001,-46.1044 46.5001,-46.1043"/>
<g id="a_edge1&#45;headlabel"><a xlink:href="dir_000022_000020.html" target="_top" xlink:title="4">
<text text-anchor="middle" x="49.3393" y="-46.699" font-family="Helvetica,sans-Serif" font-size="10.00">4</text>
</a>
</g>
</g>
</g>
</svg>
