<?xml version="1.0" encoding="UTF-8" standalone="no"?>
<!DOCTYPE svg PUBLIC "-//W3C//DTD SVG 1.1//EN"
 "http://www.w3.org/Graphics/SVG/1.1/DTD/svg11.dtd">
<!-- Generated by graphviz version 2.38.0 (20140413.2041)
 -->
<!-- Title: /Users/jorhabibeljaik/Code/codyco&#45;superbuild/main/ocra&#45;wbi&#45;plugins/ocra&#45;icub&#45;clients/stepping&#45;demo Pages: 1 -->
<svg width="210pt" height="230pt"
 viewBox="0.00 0.00 210.00 230.00" xmlns="http://www.w3.org/2000/svg" xmlns:xlink="http://www.w3.org/1999/xlink">
<g id="graph0" class="graph" transform="scale(1 1) rotate(0) translate(4 226)">
<title>/Users/jorhabibeljaik/Code/codyco&#45;superbuild/main/ocra&#45;wbi&#45;plugins/ocra&#45;icub&#45;clients/stepping&#45;demo</title>
<polygon fill="white" stroke="none" points="-4,4 -4,-226 206,-226 206,4 -4,4"/>
<g id="clust1" class="cluster"><title>clusterdir_db7b68153cf186e2b42ba19332873216</title>
<g id="a_clust1"><a xlink:href="dir_db7b68153cf186e2b42ba19332873216.html" target="_top" xlink:title="ocra&#45;icub&#45;clients">
<polygon fill="#ddddee" stroke="black" points="8,-56 8,-214 194,-214 194,-56 8,-56"/>
<text text-anchor="middle" x="101" y="-202" font-family="Helvetica,sans-Serif" font-size="10.00">ocra&#45;icub&#45;clients</text>
</a>
</g>
</g>
<g id="clust2" class="cluster"><title>clusterdir_fcc395ba666c1357dbdd5acdca827b57</title>
<g id="a_clust2"><a xlink:href="dir_fcc395ba666c1357dbdd5acdca827b57.html" target="_top">
<polygon fill="#eeeeff" stroke="black" points="16,-64 16,-188 186,-188 186,-64 16,-64"/>
</a>
</g>
</g>
<!-- dir_fcc395ba666c1357dbdd5acdca827b57 -->
<g id="node1" class="node"><title>dir_fcc395ba666c1357dbdd5acdca827b57</title>
<text text-anchor="middle" x="137" y="-159" font-family="Helvetica,sans-Serif" font-size="10.00">stepping&#45;demo</text>
</g>
<!-- dir_366cbf0128f73ed6199a629df4526714 -->
<g id="node2" class="node"><title>dir_366cbf0128f73ed6199a629df4526714</title>
<g id="a_node2"><a xlink:href="dir_366cbf0128f73ed6199a629df4526714.html" target="_top" xlink:title="include">
<polygon fill="white" stroke="red" points="78,-108 24,-108 24,-72 78,-72 78,-108"/>
<text text-anchor="middle" x="51" y="-87" font-family="Helvetica,sans-Serif" font-size="10.00">include</text>
</a>
</g>
</g>
<!-- dir_ae0ac749c71297e1475c146e3b298b2a -->
<g id="node4" class="node"><title>dir_ae0ac749c71297e1475c146e3b298b2a</title>
<g id="a_node4"><a xlink:href="dir_ae0ac749c71297e1475c146e3b298b2a.html" target="_top" xlink:title="ocra&#45;icub">
<polygon fill="white" stroke="red" points="106.628,-36 49.3719,-36 49.3719,-0 106.628,-0 106.628,-36"/>
<text text-anchor="middle" x="78" y="-15" font-family="Helvetica,sans-Serif" font-size="10.00">ocra&#45;icub</text>
</a>
</g>
</g>
<!-- dir_366cbf0128f73ed6199a629df4526714&#45;&gt;dir_ae0ac749c71297e1475c146e3b298b2a -->
<g id="edge1" class="edge"><title>dir_366cbf0128f73ed6199a629df4526714&#45;&gt;dir_ae0ac749c71297e1475c146e3b298b2a</title>
<path fill="none" stroke="black" d="M57.6742,-71.6966C60.7149,-63.8132 64.3827,-54.3042 67.7607,-45.5464"/>
<polygon fill="black" stroke="black" points="71.0693,-46.6939 71.4026,-36.1043 64.5383,-44.1748 71.0693,-46.6939"/>
<g id="a_edge1&#45;headlabel"><a xlink:href="dir_000016_000031.html" target="_top" xlink:title="1">
<text text-anchor="middle" x="72.4248" y="-48.0695" font-family="Helvetica,sans-Serif" font-size="10.00">1</text>
</a>
</g>
</g>
<!-- dir_27c1a7d88bf0eabbdcf4446ecd733e30 -->
<g id="node3" class="node"><title>dir_27c1a7d88bf0eabbdcf4446ecd733e30</title>
<g id="a_node3"><a xlink:href="dir_27c1a7d88bf0eabbdcf4446ecd733e30.html" target="_top" xlink:title="src">
<polygon fill="white" stroke="black" points="78,-180 24,-180 24,-144 78,-144 78,-180"/>
<text text-anchor="middle" x="51" y="-159" font-family="Helvetica,sans-Serif" font-size="10.00">src</text>
</a>
</g>
</g>
<!-- dir_27c1a7d88bf0eabbdcf4446ecd733e30&#45;&gt;dir_366cbf0128f73ed6199a629df4526714 -->
<g id="edge2" class="edge"><title>dir_27c1a7d88bf0eabbdcf4446ecd733e30&#45;&gt;dir_366cbf0128f73ed6199a629df4526714</title>
<path fill="none" stroke="black" d="M51,-143.697C51,-135.983 51,-126.712 51,-118.112"/>
<polygon fill="black" stroke="black" points="54.5001,-118.104 51,-108.104 47.5001,-118.104 54.5001,-118.104"/>
<g id="a_edge2&#45;headlabel"><a xlink:href="dir_000018_000016.html" target="_top" xlink:title="2">
<text text-anchor="middle" x="57.3393" y="-118.699" font-family="Helvetica,sans-Serif" font-size="10.00">2</text>
</a>
</g>
</g>
<!-- dir_27c1a7d88bf0eabbdcf4446ecd733e30&#45;&gt;dir_ae0ac749c71297e1475c146e3b298b2a -->
<g id="edge3" class="edge"><title>dir_27c1a7d88bf0eabbdcf4446ecd733e30&#45;&gt;dir_ae0ac749c71297e1475c146e3b298b2a</title>
<path fill="none" stroke="black" d="M66.6099,-143.774C74.3729,-134.03 82.9459,-121.184 87,-108 93.2198,-87.7736 90.2688,-63.865 86.1475,-45.9241"/>
<polygon fill="black" stroke="black" points="89.5104,-44.9471 83.6461,-36.1232 82.7278,-46.6782 89.5104,-44.9471"/>
<g id="a_edge3&#45;headlabel"><a xlink:href="dir_000018_000031.html" target="_top" xlink:title="1">
<text text-anchor="middle" x="93.1503" y="-44.728" font-family="Helvetica,sans-Serif" font-size="10.00">1</text>
</a>
</g>
</g>
</g>
</svg>
