<?xml version="1.0" encoding="UTF-8" standalone="no"?>
<!DOCTYPE svg PUBLIC "-//W3C//DTD SVG 1.1//EN"
 "http://www.w3.org/Graphics/SVG/1.1/DTD/svg11.dtd">
<!-- Generated by graphviz version 2.38.0 (20140413.2041)
 -->
<!-- Title: /Users/jorhabibeljaik/Code/codyco&#45;superbuild/main/ocra&#45;wbi&#45;plugins Pages: 1 -->
<svg width="358pt" height="182pt"
 viewBox="0.00 0.00 358.00 182.00" xmlns="http://www.w3.org/2000/svg" xmlns:xlink="http://www.w3.org/1999/xlink">
<g id="graph0" class="graph" transform="scale(1 1) rotate(0) translate(4 178)">
<title>/Users/jorhabibeljaik/Code/codyco&#45;superbuild/main/ocra&#45;wbi&#45;plugins</title>
<polygon fill="white" stroke="none" points="-4,4 -4,-178 354,-178 354,4 -4,4"/>
<g id="clust1" class="cluster"><title>clusterdir_5c982d53a68cdbcd421152b4020263a9</title>
<g id="a_clust1"><a xlink:href="dir_5c982d53a68cdbcd421152b4020263a9.html" target="_top" xlink:title="main">
<polygon fill="#ddddee" stroke="black" points="8,-8 8,-166 342,-166 342,-8 8,-8"/>
<text text-anchor="middle" x="175" y="-154" font-family="Helvetica,sans-Serif" font-size="10.00">main</text>
</a>
</g>
</g>
<g id="clust2" class="cluster"><title>clusterdir_fc6a0c39831b5ee8ca68bf3518822430</title>
<g id="a_clust2"><a xlink:href="dir_fc6a0c39831b5ee8ca68bf3518822430.html" target="_top">
<polygon fill="#eeeeff" stroke="black" points="16,-16 16,-140 334,-140 334,-16 16,-16"/>
</a>
</g>
</g>
<!-- dir_fc6a0c39831b5ee8ca68bf3518822430 -->
<g id="node1" class="node"><title>dir_fc6a0c39831b5ee8ca68bf3518822430</title>
<text text-anchor="middle" x="282" y="-111" font-family="Helvetica,sans-Serif" font-size="10.00">ocra&#45;wbi&#45;plugins</text>
</g>
<!-- dir_ae0ac749c71297e1475c146e3b298b2a -->
<g id="node2" class="node"><title>dir_ae0ac749c71297e1475c146e3b298b2a</title>
<g id="a_node2"><a xlink:href="dir_ae0ac749c71297e1475c146e3b298b2a.html" target="_top" xlink:title="ocra&#45;icub">
<polygon fill="white" stroke="red" points="149.628,-60 92.3719,-60 92.3719,-24 149.628,-24 149.628,-60"/>
<text text-anchor="middle" x="121" y="-39" font-family="Helvetica,sans-Serif" font-size="10.00">ocra&#45;icub</text>
</a>
</g>
</g>
<!-- dir_db7b68153cf186e2b42ba19332873216 -->
<g id="node3" class="node"><title>dir_db7b68153cf186e2b42ba19332873216</title>
<g id="a_node3"><a xlink:href="dir_db7b68153cf186e2b42ba19332873216.html" target="_top" xlink:title="ocra&#45;icub&#45;clients">
<polygon fill="white" stroke="red" points="219.303,-132 130.697,-132 130.697,-96 219.303,-96 219.303,-132"/>
<text text-anchor="middle" x="175" y="-111" font-family="Helvetica,sans-Serif" font-size="10.00">ocra&#45;icub&#45;clients</text>
</a>
</g>
</g>
<!-- dir_db7b68153cf186e2b42ba19332873216&#45;&gt;dir_ae0ac749c71297e1475c146e3b298b2a -->
<g id="edge2" class="edge"><title>dir_db7b68153cf186e2b42ba19332873216&#45;&gt;dir_ae0ac749c71297e1475c146e3b298b2a</title>
<path fill="none" stroke="black" d="M161.652,-95.6966C155.243,-87.3893 147.442,-77.2771 140.394,-68.1407"/>
<polygon fill="black" stroke="black" points="143.074,-65.8844 134.195,-60.1043 137.532,-70.16 143.074,-65.8844"/>
<g id="a_edge2&#45;headlabel"><a xlink:href="dir_000002_000031.html" target="_top" xlink:title="14">
<text text-anchor="middle" x="147.518" y="-63.9963" font-family="Helvetica,sans-Serif" font-size="10.00">14</text>
</a>
</g>
</g>
<!-- dir_a208979033f7da8ecfe3d6ff13da8f25 -->
<g id="node4" class="node"><title>dir_a208979033f7da8ecfe3d6ff13da8f25</title>
<g id="a_node4"><a xlink:href="dir_a208979033f7da8ecfe3d6ff13da8f25.html" target="_top" xlink:title="ocra&#45;icub&#45;server">
<polygon fill="white" stroke="red" points="112.242,-132 23.7585,-132 23.7585,-96 112.242,-96 112.242,-132"/>
<text text-anchor="middle" x="68" y="-111" font-family="Helvetica,sans-Serif" font-size="10.00">ocra&#45;icub&#45;server</text>
</a>
</g>
</g>
<!-- dir_a208979033f7da8ecfe3d6ff13da8f25&#45;&gt;dir_ae0ac749c71297e1475c146e3b298b2a -->
<g id="edge1" class="edge"><title>dir_a208979033f7da8ecfe3d6ff13da8f25&#45;&gt;dir_ae0ac749c71297e1475c146e3b298b2a</title>
<path fill="none" stroke="black" d="M81.1011,-95.6966C87.3909,-87.3893 95.0474,-77.2771 101.965,-68.1407"/>
<polygon fill="black" stroke="black" points="104.804,-70.1897 108.05,-60.1043 99.2227,-65.9642 104.804,-70.1897"/>
<g id="a_edge1&#45;headlabel"><a xlink:href="dir_000027_000031.html" target="_top" xlink:title="3">
<text text-anchor="middle" x="104.897" y="-71.7694" font-family="Helvetica,sans-Serif" font-size="10.00">3</text>
</a>
</g>
</g>
</g>
</svg>
