<?xml version="1.0" encoding="UTF-8" standalone="no"?>
<!DOCTYPE svg PUBLIC "-//W3C//DTD SVG 1.1//EN"
 "http://www.w3.org/Graphics/SVG/1.1/DTD/svg11.dtd">
<!-- Generated by graphviz version 2.38.0 (20140413.2041)
 -->
<!-- Title: /Users/jorhabibeljaik/Code/codyco&#45;superbuild/main/ocra&#45;wbi&#45;plugins/ocra&#45;icub Pages: 1 -->
<svg width="186pt" height="182pt"
 viewBox="0.00 0.00 186.00 182.00" xmlns="http://www.w3.org/2000/svg" xmlns:xlink="http://www.w3.org/1999/xlink">
<g id="graph0" class="graph" transform="scale(1 1) rotate(0) translate(4 178)">
<title>/Users/jorhabibeljaik/Code/codyco&#45;superbuild/main/ocra&#45;wbi&#45;plugins/ocra&#45;icub</title>
<polygon fill="white" stroke="none" points="-4,4 -4,-178 182,-178 182,4 -4,4"/>
<g id="clust1" class="cluster"><title>clusterdir_fc6a0c39831b5ee8ca68bf3518822430</title>
<g id="a_clust1"><a xlink:href="dir_fc6a0c39831b5ee8ca68bf3518822430.html" target="_top" xlink:title="ocra&#45;wbi&#45;plugins">
<polygon fill="#ddddee" stroke="black" points="8,-8 8,-166 170,-166 170,-8 8,-8"/>
<text text-anchor="middle" x="89" y="-154" font-family="Helvetica,sans-Serif" font-size="10.00">ocra&#45;wbi&#45;plugins</text>
</a>
</g>
</g>
<g id="clust2" class="cluster"><title>clusterdir_ae0ac749c71297e1475c146e3b298b2a</title>
<g id="a_clust2"><a xlink:href="dir_ae0ac749c71297e1475c146e3b298b2a.html" target="_top">
<polygon fill="#eeeeff" stroke="black" points="16,-16 16,-140 162,-140 162,-16 16,-16"/>
</a>
</g>
</g>
<!-- dir_ae0ac749c71297e1475c146e3b298b2a -->
<g id="node1" class="node"><title>dir_ae0ac749c71297e1475c146e3b298b2a</title>
<text text-anchor="middle" x="125" y="-111" font-family="Helvetica,sans-Serif" font-size="10.00">ocra&#45;icub</text>
</g>
<!-- dir_64d70e58af70d29ce410f9d2ad82d6e7 -->
<g id="node2" class="node"><title>dir_64d70e58af70d29ce410f9d2ad82d6e7</title>
<g id="a_node2"><a xlink:href="dir_64d70e58af70d29ce410f9d2ad82d6e7.html" target="_top" xlink:title="include">
<polygon fill="white" stroke="red" points="78,-60 24,-60 24,-24 78,-24 78,-60"/>
<text text-anchor="middle" x="51" y="-39" font-family="Helvetica,sans-Serif" font-size="10.00">include</text>
</a>
</g>
</g>
<!-- dir_891e3bb7bb3d0b104b19c7d104381c6c -->
<g id="node3" class="node"><title>dir_891e3bb7bb3d0b104b19c7d104381c6c</title>
<g id="a_node3"><a xlink:href="dir_891e3bb7bb3d0b104b19c7d104381c6c.html" target="_top" xlink:title="src">
<polygon fill="white" stroke="black" points="78,-132 24,-132 24,-96 78,-96 78,-132"/>
<text text-anchor="middle" x="51" y="-111" font-family="Helvetica,sans-Serif" font-size="10.00">src</text>
</a>
</g>
</g>
<!-- dir_891e3bb7bb3d0b104b19c7d104381c6c&#45;&gt;dir_64d70e58af70d29ce410f9d2ad82d6e7 -->
<g id="edge1" class="edge"><title>dir_891e3bb7bb3d0b104b19c7d104381c6c&#45;&gt;dir_64d70e58af70d29ce410f9d2ad82d6e7</title>
<path fill="none" stroke="black" d="M51,-95.6966C51,-87.9827 51,-78.7125 51,-70.1124"/>
<polygon fill="black" stroke="black" points="54.5001,-70.1043 51,-60.1043 47.5001,-70.1044 54.5001,-70.1043"/>
<g id="a_edge1&#45;headlabel"><a xlink:href="dir_000034_000032.html" target="_top" xlink:title="4">
<text text-anchor="middle" x="57.3393" y="-70.699" font-family="Helvetica,sans-Serif" font-size="10.00">4</text>
</a>
</g>
</g>
</g>
</svg>
