<?xml version="1.0" encoding="UTF-8" standalone="no"?>
<!DOCTYPE svg PUBLIC "-//W3C//DTD SVG 1.1//EN"
 "http://www.w3.org/Graphics/SVG/1.1/DTD/svg11.dtd">
<!-- Generated by graphviz version 2.38.0 (20140413.2041)
 -->
<!-- Title: /Users/jorhabibeljaik/Code/codyco&#45;superbuild/main/ocra&#45;wbi&#45;plugins/ocra&#45;icub&#45;clients/standing&#45;demo/src Pages: 1 -->
<svg width="112pt" height="222pt"
 viewBox="0.00 0.00 112.00 222.00" xmlns="http://www.w3.org/2000/svg" xmlns:xlink="http://www.w3.org/1999/xlink">
<g id="graph0" class="graph" transform="scale(1 1) rotate(0) translate(4 218)">
<title>/Users/jorhabibeljaik/Code/codyco&#45;superbuild/main/ocra&#45;wbi&#45;plugins/ocra&#45;icub&#45;clients/standing&#45;demo/src</title>
<polygon fill="white" stroke="none" points="-4,4 -4,-218 108,-218 108,4 -4,4"/>
<g id="clust1" class="cluster"><title>clusterdir_3afe2da444b1a6939b7898871a0d757a</title>
<g id="a_clust1"><a xlink:href="dir_3afe2da444b1a6939b7898871a0d757a.html" target="_top" xlink:title="standing&#45;demo">
<polygon fill="#ddddee" stroke="black" points="8,-136 8,-206 90,-206 90,-136 8,-136"/>
<text text-anchor="middle" x="49" y="-194" font-family="Helvetica,sans-Serif" font-size="10.00">standing&#45;demo</text>
</a>
</g>
</g>
<!-- dir_d27db65e68689489bda85d8b34d29402 -->
<g id="node1" class="node"><title>dir_d27db65e68689489bda85d8b34d29402</title>
<g id="a_node1"><a xlink:href="dir_d27db65e68689489bda85d8b34d29402.html" target="_top" xlink:title="src">
<polygon fill="#eeeeff" stroke="black" points="76,-180 22,-180 22,-144 76,-144 76,-180"/>
<text text-anchor="middle" x="49" y="-159" font-family="Helvetica,sans-Serif" font-size="10.00">src</text>
</a>
</g>
</g>
<!-- dir_ae0ac749c71297e1475c146e3b298b2a -->
<g id="node2" class="node"><title>dir_ae0ac749c71297e1475c146e3b298b2a</title>
<g id="a_node2"><a xlink:href="dir_ae0ac749c71297e1475c146e3b298b2a.html" target="_top" xlink:title="ocra&#45;icub">
<polygon fill="white" stroke="red" points="77.6281,-36 20.3719,-36 20.3719,-0 77.6281,-0 77.6281,-36"/>
<text text-anchor="middle" x="49" y="-15" font-family="Helvetica,sans-Serif" font-size="10.00">ocra&#45;icub</text>
</a>
</g>
</g>
<!-- dir_d27db65e68689489bda85d8b34d29402&#45;&gt;dir_ae0ac749c71297e1475c146e3b298b2a -->
<g id="edge1" class="edge"><title>dir_d27db65e68689489bda85d8b34d29402&#45;&gt;dir_ae0ac749c71297e1475c146e3b298b2a</title>
<path fill="none" stroke="black" d="M45.7517,-143.888C43.9542,-133.542 41.9053,-120.063 41,-108 39.8026,-92.0449 39.8026,-87.9551 41,-72 41.6366,-63.5179 42.8384,-54.3361 44.1208,-46.0356"/>
<polygon fill="black" stroke="black" points="47.5836,-46.5472 45.7517,-36.1119 40.6763,-45.412 47.5836,-46.5472"/>
<g id="a_edge1&#45;headlabel"><a xlink:href="dir_000014_000031.html" target="_top" xlink:title="1">
<text text-anchor="middle" x="49.8024" y="-47.5546" font-family="Helvetica,sans-Serif" font-size="10.00">1</text>
</a>
</g>
</g>
<!-- dir_1534dcf4db404d04ff240a97e9879c16 -->
<g id="node3" class="node"><title>dir_1534dcf4db404d04ff240a97e9879c16</title>
<g id="a_node3"><a xlink:href="dir_1534dcf4db404d04ff240a97e9879c16.html" target="_top" xlink:title="include">
<polygon fill="white" stroke="red" points="104,-108 50,-108 50,-72 104,-72 104,-108"/>
<text text-anchor="middle" x="77" y="-87" font-family="Helvetica,sans-Serif" font-size="10.00">include</text>
</a>
</g>
</g>
<!-- dir_d27db65e68689489bda85d8b34d29402&#45;&gt;dir_1534dcf4db404d04ff240a97e9879c16 -->
<g id="edge2" class="edge"><title>dir_d27db65e68689489bda85d8b34d29402&#45;&gt;dir_1534dcf4db404d04ff240a97e9879c16</title>
<path fill="none" stroke="black" d="M55.9214,-143.697C59.0747,-135.813 62.8783,-126.304 66.3814,-117.546"/>
<polygon fill="black" stroke="black" points="69.694,-118.689 70.1583,-108.104 63.1946,-116.089 69.694,-118.689"/>
<g id="a_edge2&#45;headlabel"><a xlink:href="dir_000014_000012.html" target="_top" xlink:title="2">
<text text-anchor="middle" x="70.9952" y="-120.081" font-family="Helvetica,sans-Serif" font-size="10.00">2</text>
</a>
</g>
</g>
<!-- dir_1534dcf4db404d04ff240a97e9879c16&#45;&gt;dir_ae0ac749c71297e1475c146e3b298b2a -->
<g id="edge3" class="edge"><title>dir_1534dcf4db404d04ff240a97e9879c16&#45;&gt;dir_ae0ac749c71297e1475c146e3b298b2a</title>
<path fill="none" stroke="black" d="M70.0786,-71.6966C66.9253,-63.8132 63.1217,-54.3042 59.6186,-45.5464"/>
<polygon fill="black" stroke="black" points="62.8054,-44.0892 55.8417,-36.1043 56.306,-46.689 62.8054,-44.0892"/>
<g id="a_edge3&#45;headlabel"><a xlink:href="dir_000012_000031.html" target="_top" xlink:title="1">
<text text-anchor="middle" x="66.7765" y="-43.3723" font-family="Helvetica,sans-Serif" font-size="10.00">1</text>
</a>
</g>
</g>
</g>
</svg>
