<?xml version="1.0" encoding="UTF-8" standalone="no"?>
<!DOCTYPE svg PUBLIC "-//W3C//DTD SVG 1.1//EN"
 "http://www.w3.org/Graphics/SVG/1.1/DTD/svg11.dtd">
<!-- Generated by graphviz version 2.38.0 (20140413.2041)
 -->
<!-- Title: /Users/jorhabibeljaik/Code/codyco&#45;superbuild/main/ocra&#45;wbi&#45;plugins/ocra&#45;icub&#45;clients Pages: 1 -->
<svg width="655pt" height="158pt"
 viewBox="0.00 0.00 655.00 158.00" xmlns="http://www.w3.org/2000/svg" xmlns:xlink="http://www.w3.org/1999/xlink">
<g id="graph0" class="graph" transform="scale(1 1) rotate(0) translate(4 154)">
<title>/Users/jorhabibeljaik/Code/codyco&#45;superbuild/main/ocra&#45;wbi&#45;plugins/ocra&#45;icub&#45;clients</title>
<polygon fill="white" stroke="none" points="-4,4 -4,-154 651,-154 651,4 -4,4"/>
<g id="clust1" class="cluster"><title>clusterdir_fc6a0c39831b5ee8ca68bf3518822430</title>
<g id="a_clust1"><a xlink:href="dir_fc6a0c39831b5ee8ca68bf3518822430.html" target="_top" xlink:title="ocra&#45;wbi&#45;plugins">
<polygon fill="#ddddee" stroke="black" points="8,-56 8,-142 639,-142 639,-56 8,-56"/>
<text text-anchor="middle" x="323.5" y="-130" font-family="Helvetica,sans-Serif" font-size="10.00">ocra&#45;wbi&#45;plugins</text>
</a>
</g>
</g>
<g id="clust2" class="cluster"><title>clusterdir_db7b68153cf186e2b42ba19332873216</title>
<g id="a_clust2"><a xlink:href="dir_db7b68153cf186e2b42ba19332873216.html" target="_top">
<polygon fill="#eeeeff" stroke="black" points="16,-64 16,-116 631,-116 631,-64 16,-64"/>
</a>
</g>
</g>
<!-- dir_db7b68153cf186e2b42ba19332873216 -->
<g id="node1" class="node"><title>dir_db7b68153cf186e2b42ba19332873216</title>
<text text-anchor="middle" x="579" y="-87" font-family="Helvetica,sans-Serif" font-size="10.00">ocra&#45;icub&#45;clients</text>
</g>
<!-- dir_15fefd76ec8e69ad06581a4a7e5808dd -->
<g id="node2" class="node"><title>dir_15fefd76ec8e69ad06581a4a7e5808dd</title>
<g id="a_node2"><a xlink:href="dir_15fefd76ec8e69ad06581a4a7e5808dd.html" target="_top" xlink:title="example&#45;client">
<polygon fill="white" stroke="red" points="516.474,-108 435.526,-108 435.526,-72 516.474,-72 516.474,-108"/>
<text text-anchor="middle" x="476" y="-87" font-family="Helvetica,sans-Serif" font-size="10.00">example&#45;client</text>
</a>
</g>
</g>
<!-- dir_ae0ac749c71297e1475c146e3b298b2a -->
<g id="node7" class="node"><title>dir_ae0ac749c71297e1475c146e3b298b2a</title>
<g id="a_node7"><a xlink:href="dir_ae0ac749c71297e1475c146e3b298b2a.html" target="_top" xlink:title="ocra&#45;icub">
<polygon fill="white" stroke="red" points="317.628,-36 260.372,-36 260.372,-0 317.628,-0 317.628,-36"/>
<text text-anchor="middle" x="289" y="-15" font-family="Helvetica,sans-Serif" font-size="10.00">ocra&#45;icub</text>
</a>
</g>
</g>
<!-- dir_15fefd76ec8e69ad06581a4a7e5808dd&#45;&gt;dir_ae0ac749c71297e1475c146e3b298b2a -->
<g id="edge3" class="edge"><title>dir_15fefd76ec8e69ad06581a4a7e5808dd&#45;&gt;dir_ae0ac749c71297e1475c146e3b298b2a</title>
<path fill="none" stroke="black" d="M453.987,-71.9075C445.853,-66.2158 436.334,-60.2506 427,-56 394.933,-41.3968 355.961,-31.6074 327.622,-25.786"/>
<polygon fill="black" stroke="black" points="328.185,-22.3295 317.695,-23.8192 326.824,-29.196 328.185,-22.3295"/>
<g id="a_edge3&#45;headlabel"><a xlink:href="dir_000003_000027.html" target="_top" xlink:title="2">
<text text-anchor="middle" x="332.262" y="-17.2428" font-family="Helvetica,sans-Serif" font-size="10.00">2</text>
</a>
</g>
</g>
<!-- dir_4d77d69d9ce7ea07dda3c7b04c8e255f -->
<g id="node3" class="node"><title>dir_4d77d69d9ce7ea07dda3c7b04c8e255f</title>
<g id="a_node3"><a xlink:href="dir_4d77d69d9ce7ea07dda3c7b04c8e255f.html" target="_top" xlink:title="sitting&#45;demo">
<polygon fill="white" stroke="red" points="418.469,-108 347.531,-108 347.531,-72 418.469,-72 418.469,-108"/>
<text text-anchor="middle" x="383" y="-87" font-family="Helvetica,sans-Serif" font-size="10.00">sitting&#45;demo</text>
</a>
</g>
</g>
<!-- dir_4d77d69d9ce7ea07dda3c7b04c8e255f&#45;&gt;dir_ae0ac749c71297e1475c146e3b298b2a -->
<g id="edge1" class="edge"><title>dir_4d77d69d9ce7ea07dda3c7b04c8e255f&#45;&gt;dir_ae0ac749c71297e1475c146e3b298b2a</title>
<path fill="none" stroke="black" d="M360.184,-71.8445C353.376,-66.737 345.892,-61.1341 339,-56 332.987,-51.5202 326.557,-46.7485 320.379,-42.1728"/>
<polygon fill="black" stroke="black" points="322.294,-39.2357 312.174,-36.1005 318.13,-44.8626 322.294,-39.2357"/>
<g id="a_edge1&#45;headlabel"><a xlink:href="dir_000007_000027.html" target="_top" xlink:title="2">
<text text-anchor="middle" x="326.872" y="-36.0917" font-family="Helvetica,sans-Serif" font-size="10.00">2</text>
</a>
</g>
</g>
<!-- dir_fcc395ba666c1357dbdd5acdca827b57 -->
<g id="node4" class="node"><title>dir_fcc395ba666c1357dbdd5acdca827b57</title>
<g id="a_node4"><a xlink:href="dir_fcc395ba666c1357dbdd5acdca827b57.html" target="_top" xlink:title="stepping&#45;demo">
<polygon fill="white" stroke="red" points="330.152,-108 247.848,-108 247.848,-72 330.152,-72 330.152,-108"/>
<text text-anchor="middle" x="289" y="-87" font-family="Helvetica,sans-Serif" font-size="10.00">stepping&#45;demo</text>
</a>
</g>
</g>
<!-- dir_fcc395ba666c1357dbdd5acdca827b57&#45;&gt;dir_ae0ac749c71297e1475c146e3b298b2a -->
<g id="edge5" class="edge"><title>dir_fcc395ba666c1357dbdd5acdca827b57&#45;&gt;dir_ae0ac749c71297e1475c146e3b298b2a</title>
<path fill="none" stroke="black" d="M289,-71.6966C289,-63.9827 289,-54.7125 289,-46.1124"/>
<polygon fill="black" stroke="black" points="292.5,-46.1043 289,-36.1043 285.5,-46.1044 292.5,-46.1043"/>
<g id="a_edge5&#45;headlabel"><a xlink:href="dir_000011_000027.html" target="_top" xlink:title="2">
<text text-anchor="middle" x="295.339" y="-46.699" font-family="Helvetica,sans-Serif" font-size="10.00">2</text>
</a>
</g>
</g>
<!-- dir_694b6b78b1c099d47fd1cae57fd523aa -->
<g id="node5" class="node"><title>dir_694b6b78b1c099d47fd1cae57fd523aa</title>
<g id="a_node5"><a xlink:href="dir_694b6b78b1c099d47fd1cae57fd523aa.html" target="_top" xlink:title="task&#45;operations&#45;demo">
<polygon fill="white" stroke="red" points="230.214,-108 117.786,-108 117.786,-72 230.214,-72 230.214,-108"/>
<text text-anchor="middle" x="174" y="-87" font-family="Helvetica,sans-Serif" font-size="10.00">task&#45;operations&#45;demo</text>
</a>
</g>
</g>
<!-- dir_694b6b78b1c099d47fd1cae57fd523aa&#45;&gt;dir_ae0ac749c71297e1475c146e3b298b2a -->
<g id="edge4" class="edge"><title>dir_694b6b78b1c099d47fd1cae57fd523aa&#45;&gt;dir_ae0ac749c71297e1475c146e3b298b2a</title>
<path fill="none" stroke="black" d="M202.132,-71.8761C217.168,-62.7236 235.867,-51.3417 252.06,-41.485"/>
<polygon fill="black" stroke="black" points="254.038,-44.379 260.76,-36.1898 250.398,-38.3996 254.038,-44.379"/>
<g id="a_edge4&#45;headlabel"><a xlink:href="dir_000015_000027.html" target="_top" xlink:title="2">
<text text-anchor="middle" x="252.443" y="-45.6732" font-family="Helvetica,sans-Serif" font-size="10.00">2</text>
</a>
</g>
</g>
<!-- dir_71aa64cd31fb3b61733e68e781f108fb -->
<g id="node6" class="node"><title>dir_71aa64cd31fb3b61733e68e781f108fb</title>
<g id="a_node6"><a xlink:href="dir_71aa64cd31fb3b61733e68e781f108fb.html" target="_top" xlink:title="walking&#45;client">
<polygon fill="white" stroke="red" points="100.024,-108 23.9756,-108 23.9756,-72 100.024,-72 100.024,-108"/>
<text text-anchor="middle" x="62" y="-87" font-family="Helvetica,sans-Serif" font-size="10.00">walking&#45;client</text>
</a>
</g>
</g>
<!-- dir_71aa64cd31fb3b61733e68e781f108fb&#45;&gt;dir_ae0ac749c71297e1475c146e3b298b2a -->
<g id="edge2" class="edge"><title>dir_71aa64cd31fb3b61733e68e781f108fb&#45;&gt;dir_ae0ac749c71297e1475c146e3b298b2a</title>
<path fill="none" stroke="black" d="M82.4251,-71.9167C90.305,-66.0872 99.6629,-60.0298 109,-56 155.186,-36.0665 212.763,-26.6516 250.177,-22.3601"/>
<polygon fill="black" stroke="black" points="250.603,-25.8345 260.17,-21.281 249.851,-18.875 250.603,-25.8345"/>
<g id="a_edge2&#45;headlabel"><a xlink:href="dir_000019_000027.html" target="_top" xlink:title="3">
<text text-anchor="middle" x="247.334" y="-26.0433" font-family="Helvetica,sans-Serif" font-size="10.00">3</text>
</a>
</g>
</g>
</g>
</svg>
