<?xml version="1.0" encoding="UTF-8" standalone="no"?>
<!DOCTYPE svg PUBLIC "-//W3C//DTD SVG 1.1//EN"
 "http://www.w3.org/Graphics/SVG/1.1/DTD/svg11.dtd">
<!-- Generated by graphviz version 2.38.0 (20140413.2041)
 -->
<!-- Title: /Users/jorhabibeljaik/Code/codyco&#45;superbuild/main/ocra&#45;wbi&#45;plugins/ocra&#45;icub&#45;server/src Pages: 1 -->
<svg width="112pt" height="150pt"
 viewBox="0.00 0.00 112.00 150.00" xmlns="http://www.w3.org/2000/svg" xmlns:xlink="http://www.w3.org/1999/xlink">
<g id="graph0" class="graph" transform="scale(1 1) rotate(0) translate(4 146)">
<title>/Users/jorhabibeljaik/Code/codyco&#45;superbuild/main/ocra&#45;wbi&#45;plugins/ocra&#45;icub&#45;server/src</title>
<polygon fill="white" stroke="none" points="-4,4 -4,-146 108,-146 108,4 -4,4"/>
<g id="clust1" class="cluster"><title>clusterdir_a208979033f7da8ecfe3d6ff13da8f25</title>
<g id="a_clust1"><a xlink:href="dir_a208979033f7da8ecfe3d6ff13da8f25.html" target="_top" xlink:title="ocra&#45;icub&#45;server">
<polygon fill="#ddddee" stroke="black" points="8,-64 8,-134 96,-134 96,-64 8,-64"/>
<text text-anchor="middle" x="52" y="-122" font-family="Helvetica,sans-Serif" font-size="10.00">ocra&#45;icub&#45;server</text>
</a>
</g>
</g>
<!-- dir_c066dc11dc45c9db121405c36d3221eb -->
<g id="node1" class="node"><title>dir_c066dc11dc45c9db121405c36d3221eb</title>
<g id="a_node1"><a xlink:href="dir_c066dc11dc45c9db121405c36d3221eb.html" target="_top" xlink:title="src">
<polygon fill="#eeeeff" stroke="black" points="79,-108 25,-108 25,-72 79,-72 79,-108"/>
<text text-anchor="middle" x="52" y="-87" font-family="Helvetica,sans-Serif" font-size="10.00">src</text>
</a>
</g>
</g>
<!-- dir_4278de7ca957599826cde9efb2694f7e -->
<g id="node2" class="node"><title>dir_4278de7ca957599826cde9efb2694f7e</title>
<g id="a_node2"><a xlink:href="dir_4278de7ca957599826cde9efb2694f7e.html" target="_top" xlink:title="include">
<polygon fill="white" stroke="red" points="79,-36 25,-36 25,-0 79,-0 79,-36"/>
<text text-anchor="middle" x="52" y="-15" font-family="Helvetica,sans-Serif" font-size="10.00">include</text>
</a>
</g>
</g>
<!-- dir_c066dc11dc45c9db121405c36d3221eb&#45;&gt;dir_4278de7ca957599826cde9efb2694f7e -->
<g id="edge1" class="edge"><title>dir_c066dc11dc45c9db121405c36d3221eb&#45;&gt;dir_4278de7ca957599826cde9efb2694f7e</title>
<path fill="none" stroke="black" d="M52,-71.6966C52,-63.9827 52,-54.7125 52,-46.1124"/>
<polygon fill="black" stroke="black" points="55.5001,-46.1043 52,-36.1043 48.5001,-46.1044 55.5001,-46.1043"/>
<g id="a_edge1&#45;headlabel"><a xlink:href="dir_000018_000016.html" target="_top" xlink:title="4">
<text text-anchor="middle" x="58.3393" y="-46.699" font-family="Helvetica,sans-Serif" font-size="10.00">4</text>
</a>
</g>
</g>
</g>
</svg>
