<?xml version="1.0" encoding="UTF-8" standalone="no"?>
<!DOCTYPE svg PUBLIC "-//W3C//DTD SVG 1.1//EN"
 "http://www.w3.org/Graphics/SVG/1.1/DTD/svg11.dtd">
<!-- Generated by graphviz version 2.38.0 (20140413.2041)
 -->
<!-- Title: /Users/jorhabibeljaik/Code/codyco&#45;superbuild/main/ocra&#45;wbi&#45;plugins/ocra&#45;icub&#45;clients Pages: 1 -->
<svg width="755pt" height="158pt"
 viewBox="0.00 0.00 755.00 158.00" xmlns="http://www.w3.org/2000/svg" xmlns:xlink="http://www.w3.org/1999/xlink">
<g id="graph0" class="graph" transform="scale(1 1) rotate(0) translate(4 154)">
<title>/Users/jorhabibeljaik/Code/codyco&#45;superbuild/main/ocra&#45;wbi&#45;plugins/ocra&#45;icub&#45;clients</title>
<polygon fill="white" stroke="none" points="-4,4 -4,-154 751,-154 751,4 -4,4"/>
<g id="clust1" class="cluster"><title>clusterdir_fc6a0c39831b5ee8ca68bf3518822430</title>
<g id="a_clust1"><a xlink:href="dir_fc6a0c39831b5ee8ca68bf3518822430.html" target="_top" xlink:title="ocra&#45;wbi&#45;plugins">
<polygon fill="#ddddee" stroke="black" points="8,-56 8,-142 739,-142 739,-56 8,-56"/>
<text text-anchor="middle" x="373.5" y="-130" font-family="Helvetica,sans-Serif" font-size="10.00">ocra&#45;wbi&#45;plugins</text>
</a>
</g>
</g>
<g id="clust2" class="cluster"><title>clusterdir_db7b68153cf186e2b42ba19332873216</title>
<g id="a_clust2"><a xlink:href="dir_db7b68153cf186e2b42ba19332873216.html" target="_top">
<polygon fill="#eeeeff" stroke="black" points="16,-64 16,-116 731,-116 731,-64 16,-64"/>
</a>
</g>
</g>
<!-- dir_db7b68153cf186e2b42ba19332873216 -->
<g id="node1" class="node"><title>dir_db7b68153cf186e2b42ba19332873216</title>
<text text-anchor="middle" x="679" y="-87" font-family="Helvetica,sans-Serif" font-size="10.00">ocra&#45;icub&#45;clients</text>
</g>
<!-- dir_15fefd76ec8e69ad06581a4a7e5808dd -->
<g id="node2" class="node"><title>dir_15fefd76ec8e69ad06581a4a7e5808dd</title>
<g id="a_node2"><a xlink:href="dir_15fefd76ec8e69ad06581a4a7e5808dd.html" target="_top" xlink:title="example&#45;client">
<polygon fill="white" stroke="red" points="616.474,-108 535.526,-108 535.526,-72 616.474,-72 616.474,-108"/>
<text text-anchor="middle" x="576" y="-87" font-family="Helvetica,sans-Serif" font-size="10.00">example&#45;client</text>
</a>
</g>
</g>
<!-- dir_ae0ac749c71297e1475c146e3b298b2a -->
<g id="node8" class="node"><title>dir_ae0ac749c71297e1475c146e3b298b2a</title>
<g id="a_node8"><a xlink:href="dir_ae0ac749c71297e1475c146e3b298b2a.html" target="_top" xlink:title="ocra&#45;icub">
<polygon fill="white" stroke="red" points="367.628,-36 310.372,-36 310.372,-0 367.628,-0 367.628,-36"/>
<text text-anchor="middle" x="339" y="-15" font-family="Helvetica,sans-Serif" font-size="10.00">ocra&#45;icub</text>
</a>
</g>
</g>
<!-- dir_15fefd76ec8e69ad06581a4a7e5808dd&#45;&gt;dir_ae0ac749c71297e1475c146e3b298b2a -->
<g id="edge4" class="edge"><title>dir_15fefd76ec8e69ad06581a4a7e5808dd&#45;&gt;dir_ae0ac749c71297e1475c146e3b298b2a</title>
<path fill="none" stroke="black" d="M554.627,-71.8965C546.403,-66.0649 536.662,-60.0113 527,-56 477.996,-35.6554 417.075,-26.2991 378.11,-22.1362"/>
<polygon fill="black" stroke="black" points="378.029,-18.6106 367.73,-21.0949 377.331,-25.5757 378.029,-18.6106"/>
<g id="a_edge4&#45;headlabel"><a xlink:href="dir_000003_000031.html" target="_top" xlink:title="2">
<text text-anchor="middle" x="381.889" y="-13.1442" font-family="Helvetica,sans-Serif" font-size="10.00">2</text>
</a>
</g>
</g>
<!-- dir_4d77d69d9ce7ea07dda3c7b04c8e255f -->
<g id="node3" class="node"><title>dir_4d77d69d9ce7ea07dda3c7b04c8e255f</title>
<g id="a_node3"><a xlink:href="dir_4d77d69d9ce7ea07dda3c7b04c8e255f.html" target="_top" xlink:title="sitting&#45;demo">
<polygon fill="white" stroke="red" points="518.469,-108 447.531,-108 447.531,-72 518.469,-72 518.469,-108"/>
<text text-anchor="middle" x="483" y="-87" font-family="Helvetica,sans-Serif" font-size="10.00">sitting&#45;demo</text>
</a>
</g>
</g>
<!-- dir_4d77d69d9ce7ea07dda3c7b04c8e255f&#45;&gt;dir_ae0ac749c71297e1475c146e3b298b2a -->
<g id="edge1" class="edge"><title>dir_4d77d69d9ce7ea07dda3c7b04c8e255f&#45;&gt;dir_ae0ac749c71297e1475c146e3b298b2a</title>
<path fill="none" stroke="black" d="M462.797,-71.9222C455.591,-66.363 447.217,-60.4776 439,-56 419.621,-45.4401 396.604,-36.6913 377.541,-30.3569"/>
<polygon fill="black" stroke="black" points="378.564,-27.0093 367.972,-27.2677 376.413,-33.6708 378.564,-27.0093"/>
<g id="a_edge1&#45;headlabel"><a xlink:href="dir_000007_000031.html" target="_top" xlink:title="2">
<text text-anchor="middle" x="382.857" y="-22.4117" font-family="Helvetica,sans-Serif" font-size="10.00">2</text>
</a>
</g>
</g>
<!-- dir_3afe2da444b1a6939b7898871a0d757a -->
<g id="node4" class="node"><title>dir_3afe2da444b1a6939b7898871a0d757a</title>
<g id="a_node4"><a xlink:href="dir_3afe2da444b1a6939b7898871a0d757a.html" target="_top" xlink:title="standing&#45;demo">
<polygon fill="white" stroke="red" points="430.152,-108 347.848,-108 347.848,-72 430.152,-72 430.152,-108"/>
<text text-anchor="middle" x="389" y="-87" font-family="Helvetica,sans-Serif" font-size="10.00">standing&#45;demo</text>
</a>
</g>
</g>
<!-- dir_3afe2da444b1a6939b7898871a0d757a&#45;&gt;dir_ae0ac749c71297e1475c146e3b298b2a -->
<g id="edge2" class="edge"><title>dir_3afe2da444b1a6939b7898871a0d757a&#45;&gt;dir_ae0ac749c71297e1475c146e3b298b2a</title>
<path fill="none" stroke="black" d="M376.64,-71.6966C370.767,-63.4741 363.631,-53.4832 357.158,-44.4207"/>
<polygon fill="black" stroke="black" points="359.878,-42.2073 351.217,-36.1043 354.182,-46.276 359.878,-42.2073"/>
<g id="a_edge2&#45;headlabel"><a xlink:href="dir_000011_000031.html" target="_top" xlink:title="2">
<text text-anchor="middle" x="364.278" y="-40.4821" font-family="Helvetica,sans-Serif" font-size="10.00">2</text>
</a>
</g>
</g>
<!-- dir_fcc395ba666c1357dbdd5acdca827b57 -->
<g id="node5" class="node"><title>dir_fcc395ba666c1357dbdd5acdca827b57</title>
<g id="a_node5"><a xlink:href="dir_fcc395ba666c1357dbdd5acdca827b57.html" target="_top" xlink:title="stepping&#45;demo">
<polygon fill="white" stroke="red" points="330.152,-108 247.848,-108 247.848,-72 330.152,-72 330.152,-108"/>
<text text-anchor="middle" x="289" y="-87" font-family="Helvetica,sans-Serif" font-size="10.00">stepping&#45;demo</text>
</a>
</g>
</g>
<!-- dir_fcc395ba666c1357dbdd5acdca827b57&#45;&gt;dir_ae0ac749c71297e1475c146e3b298b2a -->
<g id="edge6" class="edge"><title>dir_fcc395ba666c1357dbdd5acdca827b57&#45;&gt;dir_ae0ac749c71297e1475c146e3b298b2a</title>
<path fill="none" stroke="black" d="M301.36,-71.6966C307.233,-63.4741 314.369,-53.4832 320.842,-44.4207"/>
<polygon fill="black" stroke="black" points="323.818,-46.276 326.783,-36.1043 318.122,-42.2073 323.818,-46.276"/>
<g id="a_edge6&#45;headlabel"><a xlink:href="dir_000015_000031.html" target="_top" xlink:title="2">
<text text-anchor="middle" x="324.039" y="-47.8514" font-family="Helvetica,sans-Serif" font-size="10.00">2</text>
</a>
</g>
</g>
<!-- dir_694b6b78b1c099d47fd1cae57fd523aa -->
<g id="node6" class="node"><title>dir_694b6b78b1c099d47fd1cae57fd523aa</title>
<g id="a_node6"><a xlink:href="dir_694b6b78b1c099d47fd1cae57fd523aa.html" target="_top" xlink:title="task&#45;operations&#45;demo">
<polygon fill="white" stroke="red" points="230.214,-108 117.786,-108 117.786,-72 230.214,-72 230.214,-108"/>
<text text-anchor="middle" x="174" y="-87" font-family="Helvetica,sans-Serif" font-size="10.00">task&#45;operations&#45;demo</text>
</a>
</g>
</g>
<!-- dir_694b6b78b1c099d47fd1cae57fd523aa&#45;&gt;dir_ae0ac749c71297e1475c146e3b298b2a -->
<g id="edge5" class="edge"><title>dir_694b6b78b1c099d47fd1cae57fd523aa&#45;&gt;dir_ae0ac749c71297e1475c146e3b298b2a</title>
<path fill="none" stroke="black" d="M205.718,-71.9743C216.192,-66.6013 227.983,-60.8154 239,-56 258.985,-47.2644 281.757,-38.7322 300.517,-32.0666"/>
<polygon fill="black" stroke="black" points="301.929,-35.2803 310.203,-28.6633 299.609,-28.676 301.929,-35.2803"/>
<g id="a_edge5&#45;headlabel"><a xlink:href="dir_000019_000031.html" target="_top" xlink:title="2">
<text text-anchor="middle" x="299.479" y="-36.1505" font-family="Helvetica,sans-Serif" font-size="10.00">2</text>
</a>
</g>
</g>
<!-- dir_71aa64cd31fb3b61733e68e781f108fb -->
<g id="node7" class="node"><title>dir_71aa64cd31fb3b61733e68e781f108fb</title>
<g id="a_node7"><a xlink:href="dir_71aa64cd31fb3b61733e68e781f108fb.html" target="_top" xlink:title="walking&#45;client">
<polygon fill="white" stroke="red" points="100.024,-108 23.9756,-108 23.9756,-72 100.024,-72 100.024,-108"/>
<text text-anchor="middle" x="62" y="-87" font-family="Helvetica,sans-Serif" font-size="10.00">walking&#45;client</text>
</a>
</g>
</g>
<!-- dir_71aa64cd31fb3b61733e68e781f108fb&#45;&gt;dir_ae0ac749c71297e1475c146e3b298b2a -->
<g id="edge3" class="edge"><title>dir_71aa64cd31fb3b61733e68e781f108fb&#45;&gt;dir_ae0ac749c71297e1475c146e3b298b2a</title>
<path fill="none" stroke="black" d="M82.3329,-71.6966C90.2028,-65.8433 99.578,-59.8271 109,-56 172.75,-30.1056 253.35,-22.2873 300.247,-19.9558"/>
<polygon fill="black" stroke="black" points="300.45,-23.4504 310.287,-19.5155 300.143,-16.4571 300.45,-23.4504"/>
<g id="a_edge3&#45;headlabel"><a xlink:href="dir_000023_000031.html" target="_top" xlink:title="4">
<text text-anchor="middle" x="296.983" y="-23.4443" font-family="Helvetica,sans-Serif" font-size="10.00">4</text>
</a>
</g>
</g>
</g>
</svg>
