<?xml version="1.0" encoding="UTF-8" standalone="no"?>
<!DOCTYPE svg PUBLIC "-//W3C//DTD SVG 1.1//EN"
 "http://www.w3.org/Graphics/SVG/1.1/DTD/svg11.dtd">
<!-- Generated by graphviz version 2.38.0 (20140413.2041)
 -->
<!-- Title: /Users/jorhabibeljaik/Code/codyco&#45;superbuild/main/ocra&#45;wbi&#45;plugins/ocra&#45;icub&#45;clients/example&#45;client/include/example&#45;client/ExampleClient.h Pages: 1 -->
<svg width="2604pt" height="417pt"
 viewBox="0.00 0.00 2603.92 417.00" xmlns="http://www.w3.org/2000/svg" xmlns:xlink="http://www.w3.org/1999/xlink">
<g id="graph0" class="graph" transform="scale(1 1) rotate(0) translate(4 413)">
<title>/Users/jorhabibeljaik/Code/codyco&#45;superbuild/main/ocra&#45;wbi&#45;plugins/ocra&#45;icub&#45;clients/example&#45;client/include/example&#45;client/ExampleClient.h</title>
<polygon fill="white" stroke="none" points="-4,4 -4,-413 2599.92,-413 2599.92,4 -4,4"/>
<!-- Node0 -->
<g id="node1" class="node"><title>Node0</title>
<polygon fill="#bfbfbf" stroke="black" points="967.104,-340.5 967.104,-408.5 1111.5,-408.5 1111.5,-340.5 967.104,-340.5"/>
<text text-anchor="start" x="975.104" y="-396.5" font-family="Helvetica,sans-Serif" font-size="10.00">/Users/jorhabibeljaik</text>
<text text-anchor="start" x="975.104" y="-386.5" font-family="Helvetica,sans-Serif" font-size="10.00">/Code/codyco&#45;superbuild</text>
<text text-anchor="start" x="975.104" y="-376.5" font-family="Helvetica,sans-Serif" font-size="10.00">/main/ocra&#45;wbi&#45;plugins</text>
<text text-anchor="start" x="975.104" y="-366.5" font-family="Helvetica,sans-Serif" font-size="10.00">/ocra&#45;icub&#45;clients/example</text>
<text text-anchor="start" x="975.104" y="-356.5" font-family="Helvetica,sans-Serif" font-size="10.00">&#45;client/include/example&#45;client</text>
<text text-anchor="middle" x="1039.3" y="-346.5" font-family="Helvetica,sans-Serif" font-size="10.00">/ExampleClient.h</text>
</g>
<!-- Node1 -->
<g id="node2" class="node"><title>Node1</title>
<g id="a_node2"><a xlink:href="IcubClient_8h.html" target="_top" xlink:title="ocra&#45;icub/IcubClient.h">
<polygon fill="white" stroke="black" points="829.943,-285.5 829.943,-303.5 942.657,-303.5 942.657,-285.5 829.943,-285.5"/>
<text text-anchor="middle" x="886.3" y="-291.5" font-family="Helvetica,sans-Serif" font-size="10.00">ocra&#45;icub/IcubClient.h</text>
</a>
</g>
</g>
<!-- Node0&#45;&gt;Node1 -->
<g id="edge1" class="edge"><title>Node0&#45;&gt;Node1</title>
<path fill="none" stroke="midnightblue" d="M974.415,-340.421C952.219,-329.106 928.689,-317.11 911.532,-308.363"/>
<polygon fill="midnightblue" stroke="midnightblue" points="912.724,-305.042 902.225,-303.619 909.545,-311.279 912.724,-305.042"/>
</g>
<!-- Node34 -->
<g id="node35" class="node"><title>Node34</title>
<polygon fill="white" stroke="#bfbfbf" points="960.346,-285.5 960.346,-303.5 1118.25,-303.5 1118.25,-285.5 960.346,-285.5"/>
<text text-anchor="middle" x="1039.3" y="-291.5" font-family="Helvetica,sans-Serif" font-size="10.00">ocra&#45;recipes/TrajectoryThread.h</text>
</g>
<!-- Node0&#45;&gt;Node34 -->
<g id="edge52" class="edge"><title>Node0&#45;&gt;Node34</title>
<path fill="none" stroke="midnightblue" d="M1039.3,-340.421C1039.3,-331.382 1039.3,-321.909 1039.3,-314.005"/>
<polygon fill="midnightblue" stroke="midnightblue" points="1042.8,-313.78 1039.3,-303.78 1035.8,-313.78 1042.8,-313.78"/>
</g>
<!-- Node35 -->
<g id="node36" class="node"><title>Node35</title>
<polygon fill="white" stroke="#bfbfbf" points="1135.77,-285.5 1135.77,-303.5 1286.83,-303.5 1286.83,-285.5 1135.77,-285.5"/>
<text text-anchor="middle" x="1211.3" y="-291.5" font-family="Helvetica,sans-Serif" font-size="10.00">ocra&#45;recipes/ControllerClient.h</text>
</g>
<!-- Node0&#45;&gt;Node35 -->
<g id="edge53" class="edge"><title>Node0&#45;&gt;Node35</title>
<path fill="none" stroke="midnightblue" d="M1111.75,-340.647C1137.51,-328.965 1164.93,-316.527 1184.46,-307.671"/>
<polygon fill="midnightblue" stroke="midnightblue" points="1185.97,-310.828 1193.64,-303.51 1183.08,-304.453 1185.97,-310.828"/>
</g>
<!-- Node2 -->
<g id="node3" class="node"><title>Node2</title>
<g id="a_node3"><a xlink:href="ModelInitializer_8h.html" target="_top" xlink:title="ocra&#45;icub/ModelInitializer.h">
<polygon fill="white" stroke="black" points="325.104,-230.5 325.104,-248.5 459.497,-248.5 459.497,-230.5 325.104,-230.5"/>
<text text-anchor="middle" x="392.3" y="-236.5" font-family="Helvetica,sans-Serif" font-size="10.00">ocra&#45;icub/ModelInitializer.h</text>
</a>
</g>
</g>
<!-- Node1&#45;&gt;Node2 -->
<g id="edge2" class="edge"><title>Node1&#45;&gt;Node2</title>
<path fill="none" stroke="midnightblue" d="M829.632,-287.42C741.058,-277.917 569.629,-259.525 469.732,-248.807"/>
<polygon fill="midnightblue" stroke="midnightblue" points="470.015,-245.318 459.699,-247.731 469.269,-252.278 470.015,-245.318"/>
</g>
<!-- Node3 -->
<g id="node4" class="node"><title>Node3</title>
<g id="a_node4"><a xlink:href="OcraWbiModel_8h.html" target="_top" xlink:title="Implementation of ocra::Model using wholeBodyInterface. ">
<polygon fill="white" stroke="black" points="758.113,-175.5 758.113,-193.5 892.487,-193.5 892.487,-175.5 758.113,-175.5"/>
<text text-anchor="middle" x="825.3" y="-181.5" font-family="Helvetica,sans-Serif" font-size="10.00">ocra&#45;icub/OcraWbiModel.h</text>
</a>
</g>
</g>
<!-- Node1&#45;&gt;Node3 -->
<g id="edge50" class="edge"><title>Node1&#45;&gt;Node3</title>
<path fill="none" stroke="midnightblue" d="M881.715,-285.382C871.824,-267.869 848.298,-226.218 834.961,-202.605"/>
<polygon fill="midnightblue" stroke="midnightblue" points="837.904,-200.698 829.938,-193.712 831.809,-204.14 837.904,-200.698"/>
</g>
<!-- Node8 -->
<g id="node9" class="node"><title>Node8</title>
<g id="a_node9"><a xlink:href="OcraWbiConversions_8h.html" target="_top" xlink:title="A utility class full of static conversion functions. ">
<polygon fill="white" stroke="black" points="1343.94,-120.5 1343.94,-138.5 1506.66,-138.5 1506.66,-120.5 1343.94,-120.5"/>
<text text-anchor="middle" x="1425.3" y="-126.5" font-family="Helvetica,sans-Serif" font-size="10.00">ocra&#45;icub/OcraWbiConversions.h</text>
</a>
</g>
</g>
<!-- Node1&#45;&gt;Node8 -->
<g id="edge49" class="edge"><title>Node1&#45;&gt;Node8</title>
<path fill="none" stroke="midnightblue" d="M913.029,-285.417C1001.85,-258.556 1287.26,-172.245 1388.92,-141.502"/>
<polygon fill="midnightblue" stroke="midnightblue" points="1390.17,-144.781 1398.73,-138.536 1388.14,-138.08 1390.17,-144.781"/>
</g>
<!-- Node14 -->
<g id="node15" class="node"><title>Node14</title>
<g id="a_node15"><a xlink:href="Utilities_8h.html" target="_top" xlink:title="Some useful tools for the ocra&#45;icub lib. ">
<polygon fill="white" stroke="black" points="1188.06,-60.5 1188.06,-78.5 1288.54,-78.5 1288.54,-60.5 1188.06,-60.5"/>
<text text-anchor="middle" x="1238.3" y="-66.5" font-family="Helvetica,sans-Serif" font-size="10.00">ocra&#45;icub/Utilities.h</text>
</a>
</g>
</g>
<!-- Node1&#45;&gt;Node14 -->
<g id="edge51" class="edge"><title>Node1&#45;&gt;Node14</title>
<path fill="none" stroke="midnightblue" d="M899.246,-285.299C951.972,-251.896 1150.87,-125.891 1216.87,-84.0778"/>
<polygon fill="midnightblue" stroke="midnightblue" points="1219.03,-86.8489 1225.61,-78.5406 1215.29,-80.9356 1219.03,-86.8489"/>
</g>
<!-- Node2&#45;&gt;Node3 -->
<g id="edge3" class="edge"><title>Node2&#45;&gt;Node3</title>
<path fill="none" stroke="midnightblue" d="M458.064,-230.45C536.417,-220.86 667.061,-204.869 749.564,-194.77"/>
<polygon fill="midnightblue" stroke="midnightblue" points="750.128,-198.227 759.629,-193.538 749.278,-191.279 750.128,-198.227"/>
</g>
<!-- Node5 -->
<g id="node6" class="node"><title>Node5</title>
<polygon fill="white" stroke="#bfbfbf" points="0,-0.5 0,-18.5 106.601,-18.5 106.601,-0.5 0,-0.5"/>
<text text-anchor="middle" x="53.3003" y="-6.5" font-family="Helvetica,sans-Serif" font-size="10.00">ocra/control/Model.h</text>
</g>
<!-- Node2&#45;&gt;Node5 -->
<g id="edge43" class="edge"><title>Node2&#45;&gt;Node5</title>
<path fill="none" stroke="midnightblue" d="M326.734,-230.479C293.369,-224.228 253.23,-213.227 221.3,-194 147.907,-149.803 87.3898,-63.934 63.856,-27.5014"/>
<polygon fill="midnightblue" stroke="midnightblue" points="66.5302,-25.1829 58.2189,-18.6122 60.6186,-28.9317 66.5302,-25.1829"/>
</g>
<!-- Node7 -->
<g id="node8" class="node"><title>Node7</title>
<polygon fill="white" stroke="#bfbfbf" points="373.002,-0.5 373.002,-18.5 449.598,-18.5 449.598,-0.5 373.002,-0.5"/>
<text text-anchor="middle" x="411.3" y="-6.5" font-family="Helvetica,sans-Serif" font-size="10.00">yarp/os/Log.h</text>
</g>
<!-- Node2&#45;&gt;Node7 -->
<g id="edge48" class="edge"><title>Node2&#45;&gt;Node7</title>
<path fill="none" stroke="midnightblue" d="M392.977,-230.385C395.695,-197.769 405.864,-75.7392 409.764,-28.9343"/>
<polygon fill="midnightblue" stroke="midnightblue" points="413.27,-29.0118 410.612,-18.7557 406.294,-28.4304 413.27,-29.0118"/>
</g>
<!-- Node13 -->
<g id="node14" class="node"><title>Node13</title>
<polygon fill="white" stroke="#bfbfbf" points="784.99,-55.5 784.99,-83.5 921.61,-83.5 921.61,-55.5 784.99,-55.5"/>
<text text-anchor="start" x="792.99" y="-71.5" font-family="Helvetica,sans-Serif" font-size="10.00">yarpWholeBodyInterface</text>
<text text-anchor="middle" x="853.3" y="-61.5" font-family="Helvetica,sans-Serif" font-size="10.00">/yarpWholeBodyInterface.h</text>
</g>
<!-- Node2&#45;&gt;Node13 -->
<g id="edge44" class="edge"><title>Node2&#45;&gt;Node13</title>
<path fill="none" stroke="midnightblue" d="M414.535,-230.397C486.002,-204.353 710.81,-122.427 807.904,-87.0436"/>
<polygon fill="midnightblue" stroke="midnightblue" points="809.247,-90.2794 817.444,-83.5669 806.85,-83.7025 809.247,-90.2794"/>
</g>
<!-- Node23 -->
<g id="node24" class="node"><title>Node23</title>
<polygon fill="white" stroke="#bfbfbf" points="124.67,-0.5 124.67,-18.5 227.931,-18.5 227.931,-0.5 124.67,-0.5"/>
<text text-anchor="middle" x="176.3" y="-6.5" font-family="Helvetica,sans-Serif" font-size="10.00">yarp/os/RpcClient.h</text>
</g>
<!-- Node2&#45;&gt;Node23 -->
<g id="edge45" class="edge"><title>Node2&#45;&gt;Node23</title>
<path fill="none" stroke="midnightblue" d="M324.853,-232.547C295.648,-226.782 263.021,-215.595 240.3,-194 192.635,-148.696 180.452,-66.0092 177.351,-29.1237"/>
<polygon fill="midnightblue" stroke="midnightblue" points="180.823,-28.5927 176.631,-18.8626 173.84,-29.0834 180.823,-28.5927"/>
</g>
<!-- Node27 -->
<g id="node28" class="node"><title>Node27</title>
<polygon fill="white" stroke="#bfbfbf" points="245.887,-0.5 245.887,-18.5 354.714,-18.5 354.714,-0.5 245.887,-0.5"/>
<text text-anchor="middle" x="300.3" y="-6.5" font-family="Helvetica,sans-Serif" font-size="10.00">yarp/os/LogStream.h</text>
</g>
<!-- Node2&#45;&gt;Node27 -->
<g id="edge47" class="edge"><title>Node2&#45;&gt;Node27</title>
<path fill="none" stroke="midnightblue" d="M389.026,-230.385C375.781,-197.562 325.997,-74.1843 307.382,-28.051"/>
<polygon fill="midnightblue" stroke="midnightblue" points="310.619,-26.7195 303.632,-18.7557 304.128,-29.3389 310.619,-26.7195"/>
</g>
<!-- Node33 -->
<g id="node34" class="node"><title>Node33</title>
<polygon fill="white" stroke="#bfbfbf" points="249.007,-175.5 249.007,-193.5 345.593,-193.5 345.593,-175.5 249.007,-175.5"/>
<text text-anchor="middle" x="297.3" y="-181.5" font-family="Helvetica,sans-Serif" font-size="10.00">yarp/os/Network.h</text>
</g>
<!-- Node2&#45;&gt;Node33 -->
<g id="edge46" class="edge"><title>Node2&#45;&gt;Node33</title>
<path fill="none" stroke="midnightblue" d="M377.872,-230.45C362.806,-222.045 338.928,-208.724 321.071,-198.762"/>
<polygon fill="midnightblue" stroke="midnightblue" points="322.303,-195.441 311.865,-193.625 318.892,-201.554 322.303,-195.441"/>
</g>
<!-- Node4 -->
<g id="node5" class="node"><title>Node4</title>
<polygon fill="white" stroke="#bfbfbf" points="467.244,-0.5 467.244,-18.5 519.357,-18.5 519.357,-0.5 467.244,-0.5"/>
<text text-anchor="middle" x="493.3" y="-6.5" font-family="Helvetica,sans-Serif" font-size="10.00">memory</text>
</g>
<!-- Node3&#45;&gt;Node4 -->
<g id="edge4" class="edge"><title>Node3&#45;&gt;Node4</title>
<path fill="none" stroke="midnightblue" d="M809.733,-175.388C756.689,-147.748 582.726,-57.0984 517.921,-23.3292"/>
<polygon fill="midnightblue" stroke="midnightblue" points="519.32,-20.1118 508.834,-18.5946 516.085,-26.3196 519.32,-20.1118"/>
</g>
<!-- Node3&#45;&gt;Node5 -->
<g id="edge5" class="edge"><title>Node3&#45;&gt;Node5</title>
<path fill="none" stroke="midnightblue" d="M789.357,-175.445C663.035,-147.137 239.513,-52.229 99.021,-20.7457"/>
<polygon fill="midnightblue" stroke="midnightblue" points="99.5377,-17.2748 89.0144,-18.5033 98.007,-24.1054 99.5377,-17.2748"/>
</g>
<!-- Node6 -->
<g id="node7" class="node"><title>Node6</title>
<polygon fill="white" stroke="#bfbfbf" points="2296.74,-0.5 2296.74,-18.5 2353.86,-18.5 2353.86,-0.5 2296.74,-0.5"/>
<text text-anchor="middle" x="2325.3" y="-6.5" font-family="Helvetica,sans-Serif" font-size="10.00">wbi/wbi.h</text>
</g>
<!-- Node3&#45;&gt;Node6 -->
<g id="edge6" class="edge"><title>Node3&#45;&gt;Node6</title>
<path fill="none" stroke="midnightblue" d="M868.489,-175.473C951.826,-159.748 1140.45,-122.998 1297.3,-84 1342.62,-72.7316 1352.19,-62.4414 1398.3,-55 1785.88,7.55384 1894.13,-70.2317 2286.79,-18.9339"/>
<polygon fill="midnightblue" stroke="midnightblue" points="2287.26,-22.4027 2296.71,-17.6185 2286.34,-15.4634 2287.26,-22.4027"/>
</g>
<!-- Node3&#45;&gt;Node7 -->
<g id="edge7" class="edge"><title>Node3&#45;&gt;Node7</title>
<path fill="none" stroke="midnightblue" d="M802.146,-175.356C777.868,-166.713 738.68,-152.471 705.3,-139 605.782,-98.8369 489.544,-46.3482 438.114,-22.8319"/>
<polygon fill="midnightblue" stroke="midnightblue" points="439.265,-19.5096 428.716,-18.5272 436.35,-25.8738 439.265,-19.5096"/>
</g>
<!-- Node3&#45;&gt;Node8 -->
<g id="edge8" class="edge"><title>Node3&#45;&gt;Node8</title>
<path fill="none" stroke="midnightblue" d="M892.692,-177.59C989.516,-169.094 1173.59,-152.915 1330.3,-139 1331.41,-138.901 1332.53,-138.802 1333.66,-138.701"/>
<polygon fill="midnightblue" stroke="midnightblue" points="1334.29,-142.16 1343.94,-137.787 1333.67,-135.187 1334.29,-142.16"/>
</g>
<!-- Node3&#45;&gt;Node14 -->
<g id="edge42" class="edge"><title>Node3&#45;&gt;Node14</title>
<path fill="none" stroke="midnightblue" d="M843.846,-175.476C874.752,-162.354 938.969,-136.151 995.3,-120 1056.67,-102.405 1128.47,-88.5853 1178.03,-80.0708"/>
<polygon fill="midnightblue" stroke="midnightblue" points="1178.68,-83.5118 1187.95,-78.387 1177.51,-76.6106 1178.68,-83.5118"/>
</g>
<!-- Node8&#45;&gt;Node6 -->
<g id="edge14" class="edge"><title>Node8&#45;&gt;Node6</title>
<path fill="none" stroke="midnightblue" d="M1506.91,-120.882C1658.84,-106.102 1995.33,-70.5522 2286.76,-19.1308"/>
<polygon fill="midnightblue" stroke="midnightblue" points="2287.44,-22.5653 2296.67,-17.3725 2286.22,-15.6729 2287.44,-22.5653"/>
</g>
<!-- Node8&#45;&gt;Node7 -->
<g id="edge13" class="edge"><title>Node8&#45;&gt;Node7</title>
<path fill="none" stroke="midnightblue" d="M1378.7,-120.446C1291.11,-105.563 1095.85,-73.5805 930.3,-55 724.493,-31.9015 668.712,-45.3208 459.79,-19.0619"/>
<polygon fill="midnightblue" stroke="midnightblue" points="460.086,-15.5714 449.725,-17.7811 459.203,-22.5154 460.086,-15.5714"/>
</g>
<!-- Node9 -->
<g id="node10" class="node"><title>Node9</title>
<polygon fill="white" stroke="#bfbfbf" points="2480.13,-0.5 2480.13,-18.5 2534.47,-18.5 2534.47,-0.5 2480.13,-0.5"/>
<text text-anchor="middle" x="2507.3" y="-6.5" font-family="Helvetica,sans-Serif" font-size="10.00">iostream</text>
</g>
<!-- Node8&#45;&gt;Node9 -->
<g id="edge9" class="edge"><title>Node8&#45;&gt;Node9</title>
<path fill="none" stroke="midnightblue" d="M1506.83,-125.569C1631.41,-120.509 1876.48,-108.258 2083.3,-84 2253.74,-64.0099 2298.26,-53.9301 2469.95,-19.1817"/>
<polygon fill="midnightblue" stroke="midnightblue" points="2470.72,-22.5974 2479.82,-17.1842 2469.33,-15.7363 2470.72,-22.5974"/>
</g>
<!-- Node10 -->
<g id="node11" class="node"><title>Node10</title>
<polygon fill="white" stroke="#bfbfbf" points="1407.57,-60.5 1407.57,-78.5 1443.03,-78.5 1443.03,-60.5 1407.57,-60.5"/>
<text text-anchor="middle" x="1425.3" y="-66.5" font-family="Helvetica,sans-Serif" font-size="10.00">map</text>
</g>
<!-- Node8&#45;&gt;Node10 -->
<g id="edge10" class="edge"><title>Node8&#45;&gt;Node10</title>
<path fill="none" stroke="midnightblue" d="M1425.3,-120.435C1425.3,-112.389 1425.3,-99.7388 1425.3,-89.1846"/>
<polygon fill="midnightblue" stroke="midnightblue" points="1428.8,-88.8717 1425.3,-78.8718 1421.8,-88.8718 1428.8,-88.8717"/>
</g>
<!-- Node11 -->
<g id="node12" class="node"><title>Node11</title>
<polygon fill="white" stroke="#bfbfbf" points="2552.68,-0.5 2552.68,-18.5 2595.92,-18.5 2595.92,-0.5 2552.68,-0.5"/>
<text text-anchor="middle" x="2574.3" y="-6.5" font-family="Helvetica,sans-Serif" font-size="10.00">vector</text>
</g>
<!-- Node8&#45;&gt;Node11 -->
<g id="edge11" class="edge"><title>Node8&#45;&gt;Node11</title>
<path fill="none" stroke="midnightblue" d="M1506.74,-127.231C1647.86,-124.268 1946.77,-114.625 2197.3,-84 2349.43,-65.4038 2389.22,-54.6101 2542.87,-18.945"/>
<polygon fill="midnightblue" stroke="midnightblue" points="2543.73,-22.3403 2552.68,-16.6718 2542.15,-15.5212 2543.73,-22.3403"/>
</g>
<!-- Node12 -->
<g id="node13" class="node"><title>Node12</title>
<polygon fill="white" stroke="#bfbfbf" points="2372.33,-0.5 2372.33,-18.5 2462.27,-18.5 2462.27,-0.5 2372.33,-0.5"/>
<text text-anchor="middle" x="2417.3" y="-6.5" font-family="Helvetica,sans-Serif" font-size="10.00">yarp/sig/Vector.h</text>
</g>
<!-- Node8&#45;&gt;Node12 -->
<g id="edge12" class="edge"><title>Node8&#45;&gt;Node12</title>
<path fill="none" stroke="midnightblue" d="M1507.07,-123.96C1614.19,-117.529 1807.76,-104.247 1972.3,-84 2115.54,-66.3742 2283.19,-36.0292 2365.86,-20.4164"/>
<polygon fill="midnightblue" stroke="midnightblue" points="2366.57,-23.8427 2375.75,-18.5417 2365.27,-16.9651 2366.57,-23.8427"/>
</g>
<!-- Node8&#45;&gt;Node13 -->
<g id="edge15" class="edge"><title>Node8&#45;&gt;Node13</title>
<path fill="none" stroke="midnightblue" d="M1346.37,-120.496C1237.15,-109.422 1041.09,-89.5418 931.997,-78.4798"/>
<polygon fill="midnightblue" stroke="midnightblue" points="932.342,-74.9968 922.04,-77.4701 931.636,-81.9611 932.342,-74.9968"/>
</g>
<!-- Node8&#45;&gt;Node14 -->
<g id="edge16" class="edge"><title>Node8&#45;&gt;Node14</title>
<path fill="none" stroke="midnightblue" d="M1399.3,-120.435C1366.73,-110.335 1310.78,-92.9798 1274.16,-81.6227"/>
<polygon fill="midnightblue" stroke="midnightblue" points="1274.97,-78.209 1264.38,-78.5894 1272.9,-84.8948 1274.97,-78.209"/>
</g>
<!-- Node14&#45;&gt;Node4 -->
<g id="edge17" class="edge"><title>Node14&#45;&gt;Node4</title>
<path fill="none" stroke="midnightblue" d="M1187.76,-62.95C1162.68,-60.3131 1131.92,-57.2532 1104.3,-55 851.896,-34.4054 783.632,-56.8311 529.472,-18.8991"/>
<polygon fill="midnightblue" stroke="midnightblue" points="529.985,-15.4369 519.575,-17.4057 528.941,-22.3586 529.985,-15.4369"/>
</g>
<!-- Node14&#45;&gt;Node5 -->
<g id="edge38" class="edge"><title>Node14&#45;&gt;Node5</title>
<path fill="none" stroke="midnightblue" d="M1188.03,-66.292C982.767,-57.2748 214.712,-23.5257 116.851,-18.6895"/>
<polygon fill="midnightblue" stroke="midnightblue" points="116.874,-15.1857 106.699,-18.139 116.495,-22.1754 116.874,-15.1857"/>
</g>
<!-- Node14&#45;&gt;Node6 -->
<g id="edge37" class="edge"><title>Node14&#45;&gt;Node6</title>
<path fill="none" stroke="midnightblue" d="M1271.01,-60.4745C1280.99,-58.3295 1292.04,-56.2595 1302.3,-55 1734.25,-1.95465 1851.78,-75.223 2286.71,-18.9401"/>
<polygon fill="midnightblue" stroke="midnightblue" points="2287.25,-22.3987 2296.71,-17.6298 2286.34,-15.458 2287.25,-22.3987"/>
</g>
<!-- Node14&#45;&gt;Node7 -->
<g id="edge32" class="edge"><title>Node14&#45;&gt;Node7</title>
<path fill="none" stroke="midnightblue" d="M1187.76,-62.8693C1162.69,-60.213 1131.92,-57.16 1104.3,-55 820.978,-32.8449 745.639,-52.1867 459.968,-19.0469"/>
<polygon fill="midnightblue" stroke="midnightblue" points="460.056,-15.5333 449.717,-17.8457 459.241,-22.4857 460.056,-15.5333"/>
</g>
<!-- Node14&#45;&gt;Node9 -->
<g id="edge19" class="edge"><title>Node14&#45;&gt;Node9</title>
<path fill="none" stroke="midnightblue" d="M1288.7,-63.5898C1320.18,-60.6861 1361.57,-57.1645 1398.3,-55 1871.26,-27.1309 1996.57,-81.3563 2469.71,-18.9174"/>
<polygon fill="midnightblue" stroke="midnightblue" points="2470.44,-22.3521 2479.89,-17.5638 2469.51,-15.4132 2470.44,-22.3521"/>
</g>
<!-- Node14&#45;&gt;Node11 -->
<g id="edge21" class="edge"><title>Node14&#45;&gt;Node11</title>
<path fill="none" stroke="midnightblue" d="M1288.69,-63.5626C1320.17,-60.6486 1361.56,-57.1258 1398.3,-55 1649.22,-40.4799 2275.4,-56.5054 2542.31,-18.6727"/>
<polygon fill="midnightblue" stroke="midnightblue" points="2543.04,-22.103 2552.42,-17.1864 2542.02,-15.1773 2543.04,-22.103"/>
</g>
<!-- Node14&#45;&gt;Node12 -->
<g id="edge35" class="edge"><title>Node14&#45;&gt;Node12</title>
<path fill="none" stroke="midnightblue" d="M1288.7,-63.6383C1320.18,-60.7528 1361.57,-57.2334 1398.3,-55 1823.35,-29.1541 1934.39,-59.9524 2362.11,-18.9792"/>
<polygon fill="midnightblue" stroke="midnightblue" points="2362.65,-22.4429 2372.27,-17.9979 2361.98,-15.4753 2362.65,-22.4429"/>
</g>
<!-- Node15 -->
<g id="node16" class="node"><title>Node15</title>
<polygon fill="white" stroke="#bfbfbf" points="2235.68,-0.5 2235.68,-18.5 2278.92,-18.5 2278.92,-0.5 2235.68,-0.5"/>
<text text-anchor="middle" x="2257.3" y="-6.5" font-family="Helvetica,sans-Serif" font-size="10.00">cmath</text>
</g>
<!-- Node14&#45;&gt;Node15 -->
<g id="edge18" class="edge"><title>Node14&#45;&gt;Node15</title>
<path fill="none" stroke="midnightblue" d="M1271.01,-60.4901C1280.99,-58.3456 1292.05,-56.2721 1302.3,-55 1706.87,-4.81513 1818.35,-80.51 2225.44,-18.699"/>
<polygon fill="midnightblue" stroke="midnightblue" points="2226.07,-22.144 2235.42,-17.1655 2225,-15.2252 2226.07,-22.144"/>
</g>
<!-- Node16 -->
<g id="node17" class="node"><title>Node16</title>
<polygon fill="white" stroke="#bfbfbf" points="537.074,-0.5 537.074,-18.5 577.527,-18.5 577.527,-0.5 537.074,-0.5"/>
<text text-anchor="middle" x="557.3" y="-6.5" font-family="Helvetica,sans-Serif" font-size="10.00">string</text>
</g>
<!-- Node14&#45;&gt;Node16 -->
<g id="edge20" class="edge"><title>Node14&#45;&gt;Node16</title>
<path fill="none" stroke="midnightblue" d="M1187.75,-63.0333C1162.67,-60.4164 1131.91,-57.3494 1104.3,-55 877.61,-35.7083 815.22,-59.0137 587.673,-18.8616"/>
<polygon fill="midnightblue" stroke="midnightblue" points="588.224,-15.4048 577.765,-17.0918 586.993,-22.2957 588.224,-15.4048"/>
</g>
<!-- Node17 -->
<g id="node18" class="node"><title>Node17</title>
<polygon fill="white" stroke="#bfbfbf" points="595.52,-0.5 595.52,-18.5 647.081,-18.5 647.081,-0.5 595.52,-0.5"/>
<text text-anchor="middle" x="621.3" y="-6.5" font-family="Helvetica,sans-Serif" font-size="10.00">sstream</text>
</g>
<!-- Node14&#45;&gt;Node17 -->
<g id="edge22" class="edge"><title>Node14&#45;&gt;Node17</title>
<path fill="none" stroke="midnightblue" d="M1188.05,-63.1949C1162.91,-60.6025 1132.01,-57.509 1104.3,-55 908.664,-37.2866 855.288,-50.2239 657.351,-18.8979"/>
<polygon fill="midnightblue" stroke="midnightblue" points="657.629,-15.3979 647.201,-17.2732 656.522,-22.3099 657.629,-15.3979"/>
</g>
<!-- Node18 -->
<g id="node19" class="node"><title>Node18</title>
<polygon fill="white" stroke="#bfbfbf" points="665.361,-0.5 665.361,-18.5 781.239,-18.5 781.239,-0.5 665.361,-0.5"/>
<text text-anchor="middle" x="723.3" y="-6.5" font-family="Helvetica,sans-Serif" font-size="10.00">yarp/os/BufferedPort.h</text>
</g>
<!-- Node14&#45;&gt;Node18 -->
<g id="edge23" class="edge"><title>Node14&#45;&gt;Node18</title>
<path fill="none" stroke="midnightblue" d="M1187.88,-63.1973C1106.78,-54.6092 942.059,-36.9232 791.736,-19.1538"/>
<polygon fill="midnightblue" stroke="midnightblue" points="791.74,-15.6299 781.398,-17.9289 790.917,-22.5813 791.74,-15.6299"/>
</g>
<!-- Node19 -->
<g id="node20" class="node"><title>Node19</title>
<polygon fill="white" stroke="#bfbfbf" points="799.559,-0.5 799.559,-18.5 885.042,-18.5 885.042,-0.5 799.559,-0.5"/>
<text text-anchor="middle" x="842.3" y="-6.5" font-family="Helvetica,sans-Serif" font-size="10.00">yarp/os/Bottle.h</text>
</g>
<!-- Node14&#45;&gt;Node19 -->
<g id="edge24" class="edge"><title>Node14&#45;&gt;Node19</title>
<path fill="none" stroke="midnightblue" d="M1187.83,-61.5459C1122.71,-52.5036 1005.63,-36.0163 895.125,-19.1015"/>
<polygon fill="midnightblue" stroke="midnightblue" points="895.554,-15.6265 885.139,-17.569 894.492,-22.5455 895.554,-15.6265"/>
</g>
<!-- Node20 -->
<g id="node21" class="node"><title>Node20</title>
<polygon fill="white" stroke="#bfbfbf" points="902.941,-0.5 902.941,-18.5 1015.66,-18.5 1015.66,-0.5 902.941,-0.5"/>
<text text-anchor="middle" x="959.3" y="-6.5" font-family="Helvetica,sans-Serif" font-size="10.00">yarp/os/RateThread.h</text>
</g>
<!-- Node14&#45;&gt;Node20 -->
<g id="edge25" class="edge"><title>Node14&#45;&gt;Node20</title>
<path fill="none" stroke="midnightblue" d="M1199.8,-60.4962C1149.8,-50.103 1062.51,-31.955 1007.97,-20.6179"/>
<polygon fill="midnightblue" stroke="midnightblue" points="1008.36,-17.1234 997.854,-18.5147 1006.93,-23.9768 1008.36,-17.1234"/>
</g>
<!-- Node21 -->
<g id="node22" class="node"><title>Node21</title>
<polygon fill="white" stroke="#bfbfbf" points="1034.05,-0.5 1034.05,-18.5 1164.55,-18.5 1164.55,-0.5 1034.05,-0.5"/>
<text text-anchor="middle" x="1099.3" y="-6.5" font-family="Helvetica,sans-Serif" font-size="10.00">yarp/os/ResourceFinder.h</text>
</g>
<!-- Node14&#45;&gt;Node21 -->
<g id="edge26" class="edge"><title>Node14&#45;&gt;Node21</title>
<path fill="none" stroke="midnightblue" d="M1218.97,-60.4353C1195.45,-50.6217 1155.52,-33.9593 1128.31,-22.604"/>
<polygon fill="midnightblue" stroke="midnightblue" points="1129.49,-19.304 1118.91,-18.6831 1126.79,-25.7641 1129.49,-19.304"/>
</g>
<!-- Node22 -->
<g id="node23" class="node"><title>Node22</title>
<polygon fill="white" stroke="#bfbfbf" points="1183.05,-0.5 1183.05,-18.5 1293.55,-18.5 1293.55,-0.5 1183.05,-0.5"/>
<text text-anchor="middle" x="1238.3" y="-6.5" font-family="Helvetica,sans-Serif" font-size="10.00">yarp/os/PortReader.h</text>
</g>
<!-- Node14&#45;&gt;Node22 -->
<g id="edge27" class="edge"><title>Node14&#45;&gt;Node22</title>
<path fill="none" stroke="midnightblue" d="M1238.3,-60.4353C1238.3,-52.3891 1238.3,-39.7388 1238.3,-29.1846"/>
<polygon fill="midnightblue" stroke="midnightblue" points="1241.8,-28.8717 1238.3,-18.8718 1234.8,-28.8718 1241.8,-28.8717"/>
</g>
<!-- Node14&#45;&gt;Node23 -->
<g id="edge28" class="edge"><title>Node14&#45;&gt;Node23</title>
<path fill="none" stroke="midnightblue" d="M1187.88,-66.2712C1003.41,-58.081 369.529,-29.6166 238.344,-18.9365"/>
<polygon fill="midnightblue" stroke="midnightblue" points="238.444,-15.4321 228.178,-18.049 237.835,-22.4056 238.444,-15.4321"/>
</g>
<!-- Node24 -->
<g id="node25" class="node"><title>Node24</title>
<polygon fill="white" stroke="#bfbfbf" points="1312,-0.5 1312,-18.5 1418.6,-18.5 1418.6,-0.5 1312,-0.5"/>
<text text-anchor="middle" x="1365.3" y="-6.5" font-family="Helvetica,sans-Serif" font-size="10.00">yarp/os/RpcServer.h</text>
</g>
<!-- Node14&#45;&gt;Node24 -->
<g id="edge29" class="edge"><title>Node14&#45;&gt;Node24</title>
<path fill="none" stroke="midnightblue" d="M1255.96,-60.4353C1277.26,-50.7078 1313.29,-34.2511 1338.14,-22.9041"/>
<polygon fill="midnightblue" stroke="midnightblue" points="1339.74,-26.0211 1347.38,-18.6831 1336.83,-19.6537 1339.74,-26.0211"/>
</g>
<!-- Node25 -->
<g id="node26" class="node"><title>Node25</title>
<polygon fill="white" stroke="#bfbfbf" points="1436.92,-0.5 1436.92,-18.5 1579.68,-18.5 1579.68,-0.5 1436.92,-0.5"/>
<text text-anchor="middle" x="1508.3" y="-6.5" font-family="Helvetica,sans-Serif" font-size="10.00">yarp/os/ConnectionReader.h</text>
</g>
<!-- Node14&#45;&gt;Node25 -->
<g id="edge30" class="edge"><title>Node14&#45;&gt;Node25</title>
<path fill="none" stroke="midnightblue" d="M1275.56,-60.4962C1323.94,-50.103 1408.42,-31.955 1461.2,-20.6179"/>
<polygon fill="midnightblue" stroke="midnightblue" points="1461.95,-24.0369 1470.99,-18.5147 1460.48,-17.1931 1461.95,-24.0369"/>
</g>
<!-- Node26 -->
<g id="node27" class="node"><title>Node26</title>
<polygon fill="white" stroke="#bfbfbf" points="1597.42,-0.5 1597.42,-18.5 1679.18,-18.5 1679.18,-0.5 1597.42,-0.5"/>
<text text-anchor="middle" x="1638.3" y="-6.5" font-family="Helvetica,sans-Serif" font-size="10.00">yarp/os/Time.h</text>
</g>
<!-- Node14&#45;&gt;Node26 -->
<g id="edge31" class="edge"><title>Node14&#45;&gt;Node26</title>
<path fill="none" stroke="midnightblue" d="M1273.75,-60.4778C1283.01,-58.531 1293.01,-56.5625 1302.3,-55 1425.43,-34.3 1459.83,-37.5542 1587.24,-19.0902"/>
<polygon fill="midnightblue" stroke="midnightblue" points="1588.01,-22.5157 1597.39,-17.6021 1586.99,-15.5897 1588.01,-22.5157"/>
</g>
<!-- Node14&#45;&gt;Node27 -->
<g id="edge33" class="edge"><title>Node14&#45;&gt;Node27</title>
<path fill="none" stroke="midnightblue" d="M1187.95,-66.1501C1030.06,-58.7027 544.964,-35.2135 364.874,-18.9526"/>
<polygon fill="midnightblue" stroke="midnightblue" points="365.016,-15.4508 354.736,-18.0139 364.37,-22.421 365.016,-15.4508"/>
</g>
<!-- Node28 -->
<g id="node29" class="node"><title>Node28</title>
<polygon fill="white" stroke="#bfbfbf" points="1696.82,-0.5 1696.82,-18.5 1793.78,-18.5 1793.78,-0.5 1696.82,-0.5"/>
<text text-anchor="middle" x="1745.3" y="-6.5" font-family="Helvetica,sans-Serif" font-size="10.00">yarp/os/Property.h</text>
</g>
<!-- Node14&#45;&gt;Node28 -->
<g id="edge34" class="edge"><title>Node14&#45;&gt;Node28</title>
<path fill="none" stroke="midnightblue" d="M1272.71,-60.4833C1282.25,-58.4675 1292.64,-56.4637 1302.3,-55 1469.41,-29.6682 1515.51,-39.3261 1686.7,-19.1264"/>
<polygon fill="midnightblue" stroke="midnightblue" points="1687.3,-22.5796 1696.81,-17.9157 1686.47,-15.6292 1687.3,-22.5796"/>
</g>
<!-- Node29 -->
<g id="node30" class="node"><title>Node29</title>
<polygon fill="white" stroke="#bfbfbf" points="1811.62,-0.5 1811.62,-18.5 1900.98,-18.5 1900.98,-0.5 1811.62,-0.5"/>
<text text-anchor="middle" x="1856.3" y="-6.5" font-family="Helvetica,sans-Serif" font-size="10.00">yarp/sig/Matrix.h</text>
</g>
<!-- Node14&#45;&gt;Node29 -->
<g id="edge36" class="edge"><title>Node14&#45;&gt;Node29</title>
<path fill="none" stroke="midnightblue" d="M1272.03,-60.4891C1281.75,-58.4239 1292.4,-56.3933 1302.3,-55 1519.69,-24.391 1579.21,-43.7573 1801.53,-18.9761"/>
<polygon fill="midnightblue" stroke="midnightblue" points="1802.01,-22.4441 1811.55,-17.8413 1801.22,-15.4885 1802.01,-22.4441"/>
</g>
<!-- Node30 -->
<g id="node31" class="node"><title>Node30</title>
<polygon fill="white" stroke="#bfbfbf" points="1919.06,-0.5 1919.06,-18.5 2039.54,-18.5 2039.54,-0.5 1919.06,-0.5"/>
<text text-anchor="middle" x="1979.3" y="-6.5" font-family="Helvetica,sans-Serif" font-size="10.00">ocra/util/StringUtilities.h</text>
</g>
<!-- Node14&#45;&gt;Node30 -->
<g id="edge39" class="edge"><title>Node14&#45;&gt;Node30</title>
<path fill="none" stroke="midnightblue" d="M1271.69,-60.4781C1281.5,-58.387 1292.28,-56.3454 1302.3,-55 1567.31,-19.4051 1638.98,-42.9691 1908.65,-19.0879"/>
<polygon fill="midnightblue" stroke="midnightblue" points="1909.1,-22.5622 1918.74,-18.1806 1908.47,-15.5904 1909.1,-22.5622"/>
</g>
<!-- Node31 -->
<g id="node32" class="node"><title>Node31</title>
<polygon fill="white" stroke="#bfbfbf" points="2057.67,-0.5 2057.67,-18.5 2130.93,-18.5 2130.93,-0.5 2057.67,-0.5"/>
<text text-anchor="middle" x="2094.3" y="-6.5" font-family="Helvetica,sans-Serif" font-size="10.00">Eigen/Dense</text>
</g>
<!-- Node14&#45;&gt;Node31 -->
<g id="edge40" class="edge"><title>Node14&#45;&gt;Node31</title>
<path fill="none" stroke="midnightblue" d="M1271.35,-60.4788C1281.24,-58.3612 1292.16,-56.3052 1302.3,-55 1628.15,-13.044 1716.76,-56.3382 2047.11,-18.9469"/>
<polygon fill="midnightblue" stroke="midnightblue" points="2047.92,-22.3769 2057.46,-17.7586 2047.12,-15.4226 2047.92,-22.3769"/>
</g>
<!-- Node32 -->
<g id="node33" class="node"><title>Node32</title>
<polygon fill="white" stroke="#bfbfbf" points="2148.9,-0.5 2148.9,-18.5 2217.7,-18.5 2217.7,-0.5 2148.9,-0.5"/>
<text text-anchor="middle" x="2183.3" y="-6.5" font-family="Helvetica,sans-Serif" font-size="10.00">Eigen/Lgsm</text>
</g>
<!-- Node14&#45;&gt;Node32 -->
<g id="edge41" class="edge"><title>Node14&#45;&gt;Node32</title>
<path fill="none" stroke="midnightblue" d="M1271.34,-60.445C1281.24,-58.3264 1292.16,-56.2784 1302.3,-55 1668.82,-8.79178 1768.36,-62.2904 2138.45,-19.0295"/>
<polygon fill="midnightblue" stroke="midnightblue" points="2139.12,-22.4746 2148.64,-17.8222 2138.3,-15.5233 2139.12,-22.4746"/>
</g>
</g>
</svg>
