<?xml version="1.0" encoding="UTF-8" standalone="no"?>
<!DOCTYPE svg PUBLIC "-//W3C//DTD SVG 1.1//EN"
 "http://www.w3.org/Graphics/SVG/1.1/DTD/svg11.dtd">
<!-- Generated by graphviz version 2.38.0 (20140413.2041)
 -->
<!-- Title: /Users/jorhabibeljaik/Code/codyco&#45;superbuild/main/ocra&#45;wbi&#45;plugins/ocra&#45;icub&#45;clients/example&#45;client/src/example&#45;client.cpp Pages: 1 -->
<svg width="2605pt" height="462pt"
 viewBox="0.00 0.00 2604.67 462.00" xmlns="http://www.w3.org/2000/svg" xmlns:xlink="http://www.w3.org/1999/xlink">
<g id="graph0" class="graph" transform="scale(1 1) rotate(0) translate(4 458)">
<title>/Users/jorhabibeljaik/Code/codyco&#45;superbuild/main/ocra&#45;wbi&#45;plugins/ocra&#45;icub&#45;clients/example&#45;client/src/example&#45;client.cpp</title>
<polygon fill="white" stroke="none" points="-4,4 -4,-458 2600.67,-458 2600.67,4 -4,4"/>
<!-- Node0 -->
<g id="node1" class="node"><title>Node0</title>
<polygon fill="#bfbfbf" stroke="black" points="1196.79,-395.5 1196.79,-453.5 1341.72,-453.5 1341.72,-395.5 1196.79,-395.5"/>
<text text-anchor="start" x="1204.79" y="-441.5" font-family="Helvetica,sans-Serif" font-size="10.00">/Users/jorhabibeljaik</text>
<text text-anchor="start" x="1204.79" y="-431.5" font-family="Helvetica,sans-Serif" font-size="10.00">/Code/codyco&#45;superbuild</text>
<text text-anchor="start" x="1204.79" y="-421.5" font-family="Helvetica,sans-Serif" font-size="10.00">/main/ocra&#45;wbi&#45;plugins</text>
<text text-anchor="start" x="1204.79" y="-411.5" font-family="Helvetica,sans-Serif" font-size="10.00">/ocra&#45;icub&#45;clients/example</text>
<text text-anchor="middle" x="1269.25" y="-401.5" font-family="Helvetica,sans-Serif" font-size="10.00">&#45;client/src/example&#45;client.cpp</text>
</g>
<!-- Node1 -->
<g id="node2" class="node"><title>Node1</title>
<polygon fill="white" stroke="#bfbfbf" points="0,-0.5 0,-18.5 130.507,-18.5 130.507,-0.5 0,-0.5"/>
<text text-anchor="middle" x="65.2534" y="-6.5" font-family="Helvetica,sans-Serif" font-size="10.00">yarp/os/ResourceFinder.h</text>
</g>
<!-- Node0&#45;&gt;Node1 -->
<g id="edge1" class="edge"><title>Node0&#45;&gt;Node1</title>
<path fill="none" stroke="midnightblue" d="M1196.63,-423.399C937.285,-422.091 72.2534,-409.208 72.2534,-295.5 72.2534,-295.5 72.2534,-295.5 72.2534,-128.5 72.2534,-93.0368 69.0639,-51.6836 66.9908,-28.5508"/>
<polygon fill="midnightblue" stroke="midnightblue" points="70.4674,-28.1355 66.0564,-18.5026 63.4974,-28.7837 70.4674,-28.1355"/>
</g>
<!-- Node2 -->
<g id="node3" class="node"><title>Node2</title>
<polygon fill="white" stroke="#bfbfbf" points="804.96,-175.5 804.96,-193.5 901.546,-193.5 901.546,-175.5 804.96,-175.5"/>
<text text-anchor="middle" x="853.253" y="-181.5" font-family="Helvetica,sans-Serif" font-size="10.00">yarp/os/Network.h</text>
</g>
<!-- Node0&#45;&gt;Node2 -->
<g id="edge2" class="edge"><title>Node0&#45;&gt;Node2</title>
<path fill="none" stroke="midnightblue" d="M1214.39,-395.4C1150.01,-362.014 1040.47,-303.904 949.253,-249 922.354,-232.809 892.312,-212.573 873.117,-199.356"/>
<polygon fill="midnightblue" stroke="midnightblue" points="875.084,-196.461 864.87,-193.649 871.101,-202.217 875.084,-196.461"/>
</g>
<!-- Node3 -->
<g id="node4" class="node"><title>Node3</title>
<polygon fill="white" stroke="#bfbfbf" points="148.956,-0.5 148.956,-18.5 225.551,-18.5 225.551,-0.5 148.956,-0.5"/>
<text text-anchor="middle" x="187.253" y="-6.5" font-family="Helvetica,sans-Serif" font-size="10.00">yarp/os/Log.h</text>
</g>
<!-- Node0&#45;&gt;Node3 -->
<g id="edge3" class="edge"><title>Node0&#45;&gt;Node3</title>
<path fill="none" stroke="midnightblue" d="M1196.56,-422.505C954.846,-418.247 193.253,-396.792 193.253,-295.5 193.253,-295.5 193.253,-295.5 193.253,-128.5 193.253,-93.0533 190.52,-51.6943 188.743,-28.5561"/>
<polygon fill="midnightblue" stroke="midnightblue" points="192.225,-28.1955 187.942,-18.5051 185.247,-28.7516 192.225,-28.1955"/>
</g>
<!-- Node4 -->
<g id="node5" class="node"><title>Node4</title>
<polygon fill="white" stroke="#bfbfbf" points="2487.84,-0.5 2487.84,-18.5 2596.67,-18.5 2596.67,-0.5 2487.84,-0.5"/>
<text text-anchor="middle" x="2542.25" y="-6.5" font-family="Helvetica,sans-Serif" font-size="10.00">yarp/os/LogStream.h</text>
</g>
<!-- Node0&#45;&gt;Node4 -->
<g id="edge4" class="edge"><title>Node0&#45;&gt;Node4</title>
<path fill="none" stroke="midnightblue" d="M1341.74,-414.324C1452.78,-398.215 1652.25,-360.262 1652.25,-295.5 1652.25,-295.5 1652.25,-295.5 1652.25,-128.5 1652.25,-38.4342 2346.33,-31.6074 2477.61,-18.9991"/>
<polygon fill="midnightblue" stroke="midnightblue" points="2478.07,-22.4692 2487.62,-17.8797 2477.29,-15.5125 2478.07,-22.4692"/>
</g>
<!-- Node5 -->
<g id="node6" class="node"><title>Node5</title>
<polygon fill="white" stroke="#bfbfbf" points="2388.37,-0.5 2388.37,-18.5 2470.14,-18.5 2470.14,-0.5 2388.37,-0.5"/>
<text text-anchor="middle" x="2429.25" y="-6.5" font-family="Helvetica,sans-Serif" font-size="10.00">yarp/os/Time.h</text>
</g>
<!-- Node0&#45;&gt;Node5 -->
<g id="edge5" class="edge"><title>Node0&#45;&gt;Node5</title>
<path fill="none" stroke="midnightblue" d="M1266.61,-395.465C1265.2,-365.747 1267.08,-318.56 1288.25,-285 1387.58,-127.58 1461.27,-112.662 1638.25,-55 1792.02,-4.9018 2199.45,-35.6238 2377.97,-18.9238"/>
<polygon fill="midnightblue" stroke="midnightblue" points="2378.51,-22.3872 2388.11,-17.8966 2377.81,-15.4229 2378.51,-22.3872"/>
</g>
<!-- Node6 -->
<g id="node7" class="node"><title>Node6</title>
<g id="a_node7"><a xlink:href="ExampleClient_8h.html" target="_top" xlink:title="example&#45;client/ExampleClient.h">
<polygon fill="white" stroke="black" points="1298.22,-340.5 1298.22,-358.5 1454.29,-358.5 1454.29,-340.5 1298.22,-340.5"/>
<text text-anchor="middle" x="1376.25" y="-346.5" font-family="Helvetica,sans-Serif" font-size="10.00">example&#45;client/ExampleClient.h</text>
</a>
</g>
</g>
<!-- Node0&#45;&gt;Node6 -->
<g id="edge6" class="edge"><title>Node0&#45;&gt;Node6</title>
<path fill="none" stroke="midnightblue" d="M1310.32,-395.485C1325.87,-384.873 1342.91,-373.247 1355.77,-364.473"/>
<polygon fill="midnightblue" stroke="midnightblue" points="1358.03,-367.171 1364.32,-358.644 1354.08,-361.389 1358.03,-367.171"/>
</g>
<!-- Node7 -->
<g id="node8" class="node"><title>Node7</title>
<g id="a_node8"><a xlink:href="IcubClient_8h.html" target="_top" xlink:title="ocra&#45;icub/IcubClient.h">
<polygon fill="white" stroke="black" points="1082.9,-285.5 1082.9,-303.5 1195.61,-303.5 1195.61,-285.5 1082.9,-285.5"/>
<text text-anchor="middle" x="1139.25" y="-291.5" font-family="Helvetica,sans-Serif" font-size="10.00">ocra&#45;icub/IcubClient.h</text>
</a>
</g>
</g>
<!-- Node0&#45;&gt;Node7 -->
<g id="edge60" class="edge"><title>Node0&#45;&gt;Node7</title>
<path fill="none" stroke="midnightblue" d="M1240.72,-395.41C1214.21,-369.308 1175.74,-331.423 1154.6,-310.607"/>
<polygon fill="midnightblue" stroke="midnightblue" points="1156.99,-308.047 1147.4,-303.525 1152.07,-313.035 1156.99,-308.047"/>
</g>
<!-- Node36 -->
<g id="node37" class="node"><title>Node36</title>
<polygon fill="white" stroke="#bfbfbf" points="1472.73,-285.5 1472.73,-303.5 1623.78,-303.5 1623.78,-285.5 1472.73,-285.5"/>
<text text-anchor="middle" x="1548.25" y="-291.5" font-family="Helvetica,sans-Serif" font-size="10.00">ocra&#45;recipes/ControllerClient.h</text>
</g>
<!-- Node0&#45;&gt;Node36 -->
<g id="edge61" class="edge"><title>Node0&#45;&gt;Node36</title>
<path fill="none" stroke="midnightblue" d="M1341.98,-405.327C1379.39,-394.506 1425.03,-378.964 1463.25,-359 1489.11,-345.494 1515.51,-324.392 1531.88,-310.264"/>
<polygon fill="midnightblue" stroke="midnightblue" points="1534.28,-312.821 1539.48,-303.589 1529.65,-307.564 1534.28,-312.821"/>
</g>
<!-- Node37 -->
<g id="node38" class="node"><title>Node37</title>
<polygon fill="white" stroke="#bfbfbf" points="1679.94,-340.5 1679.94,-358.5 1826.57,-358.5 1826.57,-340.5 1679.94,-340.5"/>
<text text-anchor="middle" x="1753.25" y="-346.5" font-family="Helvetica,sans-Serif" font-size="10.00">ocra&#45;recipes/ClientManager.h</text>
</g>
<!-- Node0&#45;&gt;Node37 -->
<g id="edge62" class="edge"><title>Node0&#45;&gt;Node37</title>
<path fill="none" stroke="midnightblue" d="M1341.97,-412.532C1436.63,-398.255 1600.5,-373.539 1690.16,-360.016"/>
<polygon fill="midnightblue" stroke="midnightblue" points="1690.82,-363.456 1700.19,-358.504 1689.78,-356.534 1690.82,-363.456"/>
</g>
<!-- Node6&#45;&gt;Node7 -->
<g id="edge7" class="edge"><title>Node6&#45;&gt;Node7</title>
<path fill="none" stroke="midnightblue" d="M1340.26,-340.45C1298.72,-331.162 1230.35,-315.871 1185.06,-305.743"/>
<polygon fill="midnightblue" stroke="midnightblue" points="1185.72,-302.305 1175.2,-303.538 1184.19,-309.136 1185.72,-302.305"/>
</g>
<!-- Node35 -->
<g id="node36" class="node"><title>Node35</title>
<polygon fill="white" stroke="#bfbfbf" points="1297.3,-285.5 1297.3,-303.5 1455.21,-303.5 1455.21,-285.5 1297.3,-285.5"/>
<text text-anchor="middle" x="1376.25" y="-291.5" font-family="Helvetica,sans-Serif" font-size="10.00">ocra&#45;recipes/TrajectoryThread.h</text>
</g>
<!-- Node6&#45;&gt;Node35 -->
<g id="edge58" class="edge"><title>Node6&#45;&gt;Node35</title>
<path fill="none" stroke="midnightblue" d="M1376.25,-340.219C1376.25,-333.177 1376.25,-322.808 1376.25,-313.828"/>
<polygon fill="midnightblue" stroke="midnightblue" points="1379.75,-313.55 1376.25,-303.55 1372.75,-313.55 1379.75,-313.55"/>
</g>
<!-- Node6&#45;&gt;Node36 -->
<g id="edge59" class="edge"><title>Node6&#45;&gt;Node36</title>
<path fill="none" stroke="midnightblue" d="M1402.38,-340.45C1431.76,-331.396 1479.65,-316.638 1512.5,-306.519"/>
<polygon fill="midnightblue" stroke="midnightblue" points="1513.64,-309.828 1522.17,-303.538 1511.58,-303.138 1513.64,-309.828"/>
</g>
<!-- Node8 -->
<g id="node9" class="node"><title>Node8</title>
<g id="a_node9"><a xlink:href="ModelInitializer_8h.html" target="_top" xlink:title="ocra&#45;icub/ModelInitializer.h">
<polygon fill="white" stroke="black" points="958.057,-230.5 958.057,-248.5 1092.45,-248.5 1092.45,-230.5 958.057,-230.5"/>
<text text-anchor="middle" x="1025.25" y="-236.5" font-family="Helvetica,sans-Serif" font-size="10.00">ocra&#45;icub/ModelInitializer.h</text>
</a>
</g>
</g>
<!-- Node7&#45;&gt;Node8 -->
<g id="edge8" class="edge"><title>Node7&#45;&gt;Node8</title>
<path fill="none" stroke="midnightblue" d="M1121.94,-285.45C1103.36,-276.812 1073.61,-262.98 1052.01,-252.94"/>
<polygon fill="midnightblue" stroke="midnightblue" points="1053.27,-249.667 1042.73,-248.625 1050.32,-256.015 1053.27,-249.667"/>
</g>
<!-- Node9 -->
<g id="node10" class="node"><title>Node9</title>
<g id="a_node10"><a xlink:href="OcraWbiModel_8h.html" target="_top" xlink:title="Implementation of ocra::Model using wholeBodyInterface. ">
<polygon fill="white" stroke="black" points="995.066,-175.5 995.066,-193.5 1129.44,-193.5 1129.44,-175.5 995.066,-175.5"/>
<text text-anchor="middle" x="1062.25" y="-181.5" font-family="Helvetica,sans-Serif" font-size="10.00">ocra&#45;icub/OcraWbiModel.h</text>
</a>
</g>
</g>
<!-- Node7&#45;&gt;Node9 -->
<g id="edge56" class="edge"><title>Node7&#45;&gt;Node9</title>
<path fill="none" stroke="midnightblue" d="M1135.01,-285.388C1128.42,-273.022 1115.02,-248.901 1101.25,-230 1093.91,-219.911 1084.75,-209.374 1077.15,-201.088"/>
<polygon fill="midnightblue" stroke="midnightblue" points="1079.59,-198.569 1070.2,-193.652 1074.47,-203.348 1079.59,-198.569"/>
</g>
<!-- Node13 -->
<g id="node14" class="node"><title>Node13</title>
<g id="a_node14"><a xlink:href="OcraWbiConversions_8h.html" target="_top" xlink:title="A utility class full of static conversion functions. ">
<polygon fill="white" stroke="black" points="409.894,-120.5 409.894,-138.5 572.613,-138.5 572.613,-120.5 409.894,-120.5"/>
<text text-anchor="middle" x="491.253" y="-126.5" font-family="Helvetica,sans-Serif" font-size="10.00">ocra&#45;icub/OcraWbiConversions.h</text>
</a>
</g>
</g>
<!-- Node7&#45;&gt;Node13 -->
<g id="edge55" class="edge"><title>Node7&#45;&gt;Node13</title>
<path fill="none" stroke="midnightblue" d="M1103.83,-285.46C1065.62,-276.73 1003.04,-262.254 949.253,-249 794.324,-210.82 610.773,-162.342 531.269,-141.186"/>
<polygon fill="midnightblue" stroke="midnightblue" points="531.765,-137.696 521.201,-138.504 529.964,-144.46 531.765,-137.696"/>
</g>
<!-- Node19 -->
<g id="node20" class="node"><title>Node19</title>
<g id="a_node20"><a xlink:href="Utilities_8h.html" target="_top" xlink:title="Some useful tools for the ocra&#45;icub lib. ">
<polygon fill="white" stroke="black" points="1071.02,-60.5 1071.02,-78.5 1171.49,-78.5 1171.49,-60.5 1071.02,-60.5"/>
<text text-anchor="middle" x="1121.25" y="-66.5" font-family="Helvetica,sans-Serif" font-size="10.00">ocra&#45;icub/Utilities.h</text>
</a>
</g>
</g>
<!-- Node7&#45;&gt;Node19 -->
<g id="edge57" class="edge"><title>Node7&#45;&gt;Node19</title>
<path fill="none" stroke="midnightblue" d="M1139.61,-285.434C1140.36,-266.25 1141.78,-216.409 1138.25,-175 1135.65,-144.403 1129.21,-109.237 1125.04,-88.4956"/>
<polygon fill="midnightblue" stroke="midnightblue" points="1128.44,-87.6671 1123,-78.5773 1121.59,-89.0774 1128.44,-87.6671"/>
</g>
<!-- Node8&#45;&gt;Node2 -->
<g id="edge52" class="edge"><title>Node8&#45;&gt;Node2</title>
<path fill="none" stroke="midnightblue" d="M999.13,-230.45C969.748,-221.396 921.853,-206.638 889.012,-196.519"/>
<polygon fill="midnightblue" stroke="midnightblue" points="889.927,-193.138 879.34,-193.538 887.866,-199.828 889.927,-193.138"/>
</g>
<!-- Node8&#45;&gt;Node3 -->
<g id="edge54" class="edge"><title>Node8&#45;&gt;Node3</title>
<path fill="none" stroke="midnightblue" d="M1017.45,-230.289C985.923,-197.317 867.267,-75.3439 818.253,-55 700.978,-6.32255 378.916,-33.2601 235.671,-18.9316"/>
<polygon fill="midnightblue" stroke="midnightblue" points="235.996,-15.4463 225.672,-17.8271 235.227,-22.404 235.996,-15.4463"/>
</g>
<!-- Node8&#45;&gt;Node4 -->
<g id="edge53" class="edge"><title>Node8&#45;&gt;Node4</title>
<path fill="none" stroke="midnightblue" d="M1056.87,-230.422C1090.35,-221.776 1144.68,-207.478 1191.25,-194 1391.1,-136.165 1433.28,-90.6354 1638.25,-55 2003.61,8.51713 2104.82,-50.9813 2477.67,-19.0485"/>
<polygon fill="midnightblue" stroke="midnightblue" points="2477.99,-22.5335 2487.65,-18.1773 2477.39,-15.56 2477.99,-22.5335"/>
</g>
<!-- Node8&#45;&gt;Node9 -->
<g id="edge9" class="edge"><title>Node8&#45;&gt;Node9</title>
<path fill="none" stroke="midnightblue" d="M1031.03,-230.219C1036.33,-222.629 1044.33,-211.175 1050.9,-201.76"/>
<polygon fill="midnightblue" stroke="midnightblue" points="1053.78,-203.753 1056.63,-193.55 1048.04,-199.746 1053.78,-203.753"/>
</g>
<!-- Node11 -->
<g id="node12" class="node"><title>Node11</title>
<polygon fill="white" stroke="#bfbfbf" points="2141.95,-0.5 2141.95,-18.5 2248.55,-18.5 2248.55,-0.5 2141.95,-0.5"/>
<text text-anchor="middle" x="2195.25" y="-6.5" font-family="Helvetica,sans-Serif" font-size="10.00">ocra/control/Model.h</text>
</g>
<!-- Node8&#45;&gt;Node11 -->
<g id="edge49" class="edge"><title>Node8&#45;&gt;Node11</title>
<path fill="none" stroke="midnightblue" d="M1052.94,-230.494C1076.59,-222.992 1111.01,-210.469 1138.25,-194 1178.71,-169.549 1255.32,-72.4299 1299.25,-55 1382.94,-21.7991 2002.96,-26.9616 2131.58,-18.9087"/>
<polygon fill="midnightblue" stroke="midnightblue" points="2132.14,-22.3765 2141.86,-18.1421 2131.62,-15.396 2132.14,-22.3765"/>
</g>
<!-- Node18 -->
<g id="node19" class="node"><title>Node18</title>
<polygon fill="white" stroke="#bfbfbf" points="672.943,-55.5 672.943,-83.5 809.563,-83.5 809.563,-55.5 672.943,-55.5"/>
<text text-anchor="start" x="680.943" y="-71.5" font-family="Helvetica,sans-Serif" font-size="10.00">yarpWholeBodyInterface</text>
<text text-anchor="middle" x="741.253" y="-61.5" font-family="Helvetica,sans-Serif" font-size="10.00">/yarpWholeBodyInterface.h</text>
</g>
<!-- Node8&#45;&gt;Node18 -->
<g id="edge50" class="edge"><title>Node8&#45;&gt;Node18</title>
<path fill="none" stroke="midnightblue" d="M1011.56,-230.397C968.24,-204.774 833.487,-125.061 772.181,-88.7952"/>
<polygon fill="midnightblue" stroke="midnightblue" points="773.732,-85.6459 763.343,-83.5669 770.168,-91.6707 773.732,-85.6459"/>
</g>
<!-- Node27 -->
<g id="node28" class="node"><title>Node27</title>
<polygon fill="white" stroke="#bfbfbf" points="2266.62,-0.5 2266.62,-18.5 2369.88,-18.5 2369.88,-0.5 2266.62,-0.5"/>
<text text-anchor="middle" x="2318.25" y="-6.5" font-family="Helvetica,sans-Serif" font-size="10.00">yarp/os/RpcClient.h</text>
</g>
<!-- Node8&#45;&gt;Node27 -->
<g id="edge51" class="edge"><title>Node8&#45;&gt;Node27</title>
<path fill="none" stroke="midnightblue" d="M1062.74,-230.47C1091.6,-223.365 1131.89,-211.399 1164.25,-194 1185.97,-182.323 1314.16,-63.6398 1337.25,-55 1430.54,-20.1007 2117.7,-27.6315 2256.35,-18.8371"/>
<polygon fill="midnightblue" stroke="midnightblue" points="2256.67,-22.3227 2266.38,-18.0855 2256.15,-15.3423 2256.67,-22.3227"/>
</g>
<!-- Node9&#45;&gt;Node3 -->
<g id="edge13" class="edge"><title>Node9&#45;&gt;Node3</title>
<path fill="none" stroke="midnightblue" d="M1059.98,-175.248C1052.95,-151.501 1029.08,-82.913 981.253,-55 911.727,-14.4259 353.348,-27.514 235.65,-18.7848"/>
<polygon fill="midnightblue" stroke="midnightblue" points="235.945,-15.2972 225.667,-17.8694 235.306,-22.268 235.945,-15.2972"/>
</g>
<!-- Node10 -->
<g id="node11" class="node"><title>Node10</title>
<polygon fill="white" stroke="#bfbfbf" points="2072.2,-0.5 2072.2,-18.5 2124.31,-18.5 2124.31,-0.5 2072.2,-0.5"/>
<text text-anchor="middle" x="2098.25" y="-6.5" font-family="Helvetica,sans-Serif" font-size="10.00">memory</text>
</g>
<!-- Node9&#45;&gt;Node10 -->
<g id="edge10" class="edge"><title>Node9&#45;&gt;Node10</title>
<path fill="none" stroke="midnightblue" d="M1071.93,-175.186C1103.93,-147.795 1205.25,-61.7395 1223.25,-55 1395.24,9.3869 1861.94,-43.3038 2061.81,-18.8105"/>
<polygon fill="midnightblue" stroke="midnightblue" points="2062.53,-22.2449 2071.99,-17.4619 2061.61,-15.3056 2062.53,-22.2449"/>
</g>
<!-- Node9&#45;&gt;Node11 -->
<g id="edge11" class="edge"><title>Node9&#45;&gt;Node11</title>
<path fill="none" stroke="midnightblue" d="M1077.44,-175.356C1093.33,-166.714 1118.89,-152.472 1140.25,-139 1147.18,-134.635 1253.5,-57.6056 1261.25,-55 1442.14,5.75742 1924.2,-34.8339 2131.88,-18.9738"/>
<polygon fill="midnightblue" stroke="midnightblue" points="2132.18,-22.4608 2141.86,-18.1485 2131.6,-15.4847 2132.18,-22.4608"/>
</g>
<!-- Node12 -->
<g id="node13" class="node"><title>Node12</title>
<polygon fill="white" stroke="#bfbfbf" points="485.689,-0.5 485.689,-18.5 542.817,-18.5 542.817,-0.5 485.689,-0.5"/>
<text text-anchor="middle" x="514.253" y="-6.5" font-family="Helvetica,sans-Serif" font-size="10.00">wbi/wbi.h</text>
</g>
<!-- Node9&#45;&gt;Node12 -->
<g id="edge12" class="edge"><title>Node9&#45;&gt;Node12</title>
<path fill="none" stroke="midnightblue" d="M1062.36,-175.487C1062.19,-152.388 1058.21,-85.3833 1019.25,-55 980.06,-24.4306 636.696,-26.4389 553.215,-18.603"/>
<polygon fill="midnightblue" stroke="midnightblue" points="553.56,-15.1195 543.219,-17.4276 552.742,-22.0716 553.56,-15.1195"/>
</g>
<!-- Node9&#45;&gt;Node13 -->
<g id="edge14" class="edge"><title>Node9&#45;&gt;Node13</title>
<path fill="none" stroke="midnightblue" d="M994.792,-177.238C892.524,-167.746 698.018,-149.692 582.984,-139.014"/>
<polygon fill="midnightblue" stroke="midnightblue" points="583.071,-135.508 572.791,-138.068 582.424,-142.478 583.071,-135.508"/>
</g>
<!-- Node9&#45;&gt;Node19 -->
<g id="edge48" class="edge"><title>Node9&#45;&gt;Node19</title>
<path fill="none" stroke="midnightblue" d="M1066.5,-175.373C1076.06,-157.049 1099.49,-112.187 1112.38,-87.4904"/>
<polygon fill="midnightblue" stroke="midnightblue" points="1115.52,-89.0374 1117.05,-78.553 1109.32,-85.7976 1115.52,-89.0374"/>
</g>
<!-- Node13&#45;&gt;Node3 -->
<g id="edge19" class="edge"><title>Node13&#45;&gt;Node3</title>
<path fill="none" stroke="midnightblue" d="M456.266,-120.47C424.25,-112.667 375.831,-99.7109 335.253,-84 289.585,-66.3179 239.015,-39.5363 210.386,-23.6526"/>
<polygon fill="midnightblue" stroke="midnightblue" points="211.993,-20.5411 201.557,-18.7126 208.575,-26.6499 211.993,-20.5411"/>
</g>
<!-- Node13&#45;&gt;Node12 -->
<g id="edge20" class="edge"><title>Node13&#45;&gt;Node12</title>
<path fill="none" stroke="midnightblue" d="M492.834,-120.389C496.494,-101.611 505.625,-54.7676 510.704,-28.7111"/>
<polygon fill="midnightblue" stroke="midnightblue" points="514.184,-29.1523 512.661,-18.6674 507.313,-27.813 514.184,-29.1523"/>
</g>
<!-- Node14 -->
<g id="node15" class="node"><title>Node14</title>
<polygon fill="white" stroke="#bfbfbf" points="243.081,-0.5 243.081,-18.5 297.426,-18.5 297.426,-0.5 243.081,-0.5"/>
<text text-anchor="middle" x="270.253" y="-6.5" font-family="Helvetica,sans-Serif" font-size="10.00">iostream</text>
</g>
<!-- Node13&#45;&gt;Node14 -->
<g id="edge15" class="edge"><title>Node13&#45;&gt;Node14</title>
<path fill="none" stroke="midnightblue" d="M469.914,-120.364C448.779,-112.056 415.691,-98.3696 388.253,-84 352.738,-65.3995 313.629,-39.9912 290.545,-24.4416"/>
<polygon fill="midnightblue" stroke="midnightblue" points="292.207,-21.3395 281.967,-18.6194 288.275,-27.1314 292.207,-21.3395"/>
</g>
<!-- Node15 -->
<g id="node16" class="node"><title>Node15</title>
<polygon fill="white" stroke="#bfbfbf" points="450.527,-60.5 450.527,-78.5 485.98,-78.5 485.98,-60.5 450.527,-60.5"/>
<text text-anchor="middle" x="468.253" y="-66.5" font-family="Helvetica,sans-Serif" font-size="10.00">map</text>
</g>
<!-- Node13&#45;&gt;Node15 -->
<g id="edge16" class="edge"><title>Node13&#45;&gt;Node15</title>
<path fill="none" stroke="midnightblue" d="M488.055,-120.435C484.763,-112.132 479.526,-98.9267 475.265,-88.1807"/>
<polygon fill="midnightblue" stroke="midnightblue" points="478.513,-86.8773 471.573,-78.8718 472.006,-89.4578 478.513,-86.8773"/>
</g>
<!-- Node16 -->
<g id="node17" class="node"><title>Node16</title>
<polygon fill="white" stroke="#bfbfbf" points="315.638,-0.5 315.638,-18.5 358.869,-18.5 358.869,-0.5 315.638,-0.5"/>
<text text-anchor="middle" x="337.253" y="-6.5" font-family="Helvetica,sans-Serif" font-size="10.00">vector</text>
</g>
<!-- Node13&#45;&gt;Node16 -->
<g id="edge17" class="edge"><title>Node13&#45;&gt;Node16</title>
<path fill="none" stroke="midnightblue" d="M478.557,-120.296C465.281,-111.606 443.953,-97.3251 426.253,-84 400.388,-64.5275 371.722,-40.3589 354.092,-25.1774"/>
<polygon fill="midnightblue" stroke="midnightblue" points="356.237,-22.4045 346.385,-18.5065 351.656,-27.6973 356.237,-22.4045"/>
</g>
<!-- Node17 -->
<g id="node18" class="node"><title>Node17</title>
<polygon fill="white" stroke="#bfbfbf" points="377.283,-0.5 377.283,-18.5 467.224,-18.5 467.224,-0.5 377.283,-0.5"/>
<text text-anchor="middle" x="422.253" y="-6.5" font-family="Helvetica,sans-Serif" font-size="10.00">yarp/sig/Vector.h</text>
</g>
<!-- Node13&#45;&gt;Node17 -->
<g id="edge18" class="edge"><title>Node13&#45;&gt;Node17</title>
<path fill="none" stroke="midnightblue" d="M478.208,-120.21C466.78,-112.274 450.581,-99.2729 441.253,-84 430.861,-66.9836 426.117,-44.4115 423.974,-28.7922"/>
<polygon fill="midnightblue" stroke="midnightblue" points="427.447,-28.3621 422.829,-18.8266 420.493,-29.1606 427.447,-28.3621"/>
</g>
<!-- Node13&#45;&gt;Node18 -->
<g id="edge21" class="edge"><title>Node13&#45;&gt;Node18</title>
<path fill="none" stroke="midnightblue" d="M525.752,-120.496C564.144,-111.589 627.084,-96.9874 675.057,-85.8575"/>
<polygon fill="midnightblue" stroke="midnightblue" points="676.103,-89.208 685.053,-83.5385 674.521,-82.3891 676.103,-89.208"/>
</g>
<!-- Node13&#45;&gt;Node19 -->
<g id="edge22" class="edge"><title>Node13&#45;&gt;Node19</title>
<path fill="none" stroke="midnightblue" d="M572.647,-121.007C700.704,-109.217 946.355,-86.6017 1060.36,-76.1063"/>
<polygon fill="midnightblue" stroke="midnightblue" points="1061.01,-79.5616 1070.64,-75.1595 1060.36,-72.591 1061.01,-79.5616"/>
</g>
<!-- Node19&#45;&gt;Node1 -->
<g id="edge32" class="edge"><title>Node19&#45;&gt;Node1</title>
<path fill="none" stroke="midnightblue" d="M1070.89,-66.1439C888.891,-57.6047 269.668,-28.3287 140.682,-18.9283"/>
<polygon fill="midnightblue" stroke="midnightblue" points="140.916,-15.436 130.676,-18.158 140.378,-22.4154 140.916,-15.436"/>
</g>
<!-- Node19&#45;&gt;Node3 -->
<g id="edge38" class="edge"><title>Node19&#45;&gt;Node3</title>
<path fill="none" stroke="midnightblue" d="M1070.76,-60.9461C1054.37,-58.7264 1036.07,-56.4955 1019.25,-55 674.683,-24.3535 583.045,-57.5206 235.753,-19.0075"/>
<polygon fill="midnightblue" stroke="midnightblue" points="235.994,-15.5126 225.666,-17.8768 235.214,-22.469 235.994,-15.5126"/>
</g>
<!-- Node19&#45;&gt;Node4 -->
<g id="edge39" class="edge"><title>Node19&#45;&gt;Node4</title>
<path fill="none" stroke="midnightblue" d="M1171.86,-64.8941C1215.61,-61.8819 1280.58,-57.6637 1337.25,-55 1841.16,-31.3162 1971.47,-60.6134 2477.53,-19.0519"/>
<polygon fill="midnightblue" stroke="midnightblue" points="2477.98,-22.5271 2487.66,-18.2152 2477.4,-15.5508 2477.98,-22.5271"/>
</g>
<!-- Node19&#45;&gt;Node5 -->
<g id="edge37" class="edge"><title>Node19&#45;&gt;Node5</title>
<path fill="none" stroke="midnightblue" d="M1171.86,-64.9373C1215.62,-61.9521 1280.58,-57.7493 1337.25,-55 1796.71,-32.7096 1916.5,-65.4498 2377.84,-18.9842"/>
<polygon fill="midnightblue" stroke="midnightblue" points="2378.52,-22.4341 2388.11,-17.9427 2377.81,-15.4698 2378.52,-22.4341"/>
</g>
<!-- Node19&#45;&gt;Node10 -->
<g id="edge23" class="edge"><title>Node19&#45;&gt;Node10</title>
<path fill="none" stroke="midnightblue" d="M1154.29,-60.4325C1164.19,-58.3136 1175.11,-56.2684 1185.25,-55 1569.47,-6.94156 1674.71,-72.215 2061.91,-18.873"/>
<polygon fill="midnightblue" stroke="midnightblue" points="2062.57,-22.3157 2071.99,-17.4672 2061.6,-15.3829 2062.57,-22.3157"/>
</g>
<!-- Node19&#45;&gt;Node11 -->
<g id="edge44" class="edge"><title>Node19&#45;&gt;Node11</title>
<path fill="none" stroke="midnightblue" d="M1171.74,-60.883C1188.13,-58.6597 1206.43,-56.4426 1223.25,-55 1623.19,-20.6964 1728.32,-53.9684 2131.66,-19.0457"/>
<polygon fill="midnightblue" stroke="midnightblue" points="2132.2,-22.5124 2141.86,-18.1543 2131.59,-15.539 2132.2,-22.5124"/>
</g>
<!-- Node19&#45;&gt;Node12 -->
<g id="edge43" class="edge"><title>Node19&#45;&gt;Node12</title>
<path fill="none" stroke="midnightblue" d="M1087.53,-60.4845C1077.8,-58.4193 1067.15,-56.3898 1057.25,-55 837.69,-24.1643 776.665,-50.8436 553.288,-18.9086"/>
<polygon fill="midnightblue" stroke="midnightblue" points="553.616,-15.4196 543.217,-17.4451 552.609,-22.3468 553.616,-15.4196"/>
</g>
<!-- Node19&#45;&gt;Node14 -->
<g id="edge25" class="edge"><title>Node19&#45;&gt;Node14</title>
<path fill="none" stroke="midnightblue" d="M1070.76,-60.9925C1054.36,-58.7754 1036.06,-56.5343 1019.25,-55 706.669,-26.4703 622.198,-62.8417 307.991,-18.9728"/>
<polygon fill="midnightblue" stroke="midnightblue" points="308.064,-15.4485 297.673,-17.5152 307.085,-22.3797 308.064,-15.4485"/>
</g>
<!-- Node19&#45;&gt;Node16 -->
<g id="edge27" class="edge"><title>Node19&#45;&gt;Node16</title>
<path fill="none" stroke="midnightblue" d="M1071.02,-61.0757C1054.55,-58.8501 1036.15,-56.5829 1019.25,-55 734.122,-28.2865 656.083,-64.703 369.428,-18.7885"/>
<polygon fill="midnightblue" stroke="midnightblue" points="369.573,-15.2664 359.142,-17.1202 368.452,-22.1762 369.573,-15.2664"/>
</g>
<!-- Node19&#45;&gt;Node17 -->
<g id="edge41" class="edge"><title>Node19&#45;&gt;Node17</title>
<path fill="none" stroke="midnightblue" d="M1071,-61.1855C1054.54,-58.9665 1036.14,-56.6755 1019.25,-55 781.863,-31.4464 718.351,-45.4361 477.416,-19.0218"/>
<polygon fill="midnightblue" stroke="midnightblue" points="477.619,-15.5229 467.294,-17.8999 476.847,-22.4803 477.619,-15.5229"/>
</g>
<!-- Node20 -->
<g id="node21" class="node"><title>Node20</title>
<polygon fill="white" stroke="#bfbfbf" points="1099.64,-0.5 1099.64,-18.5 1142.87,-18.5 1142.87,-0.5 1099.64,-0.5"/>
<text text-anchor="middle" x="1121.25" y="-6.5" font-family="Helvetica,sans-Serif" font-size="10.00">cmath</text>
</g>
<!-- Node19&#45;&gt;Node20 -->
<g id="edge24" class="edge"><title>Node19&#45;&gt;Node20</title>
<path fill="none" stroke="midnightblue" d="M1121.25,-60.4353C1121.25,-52.3891 1121.25,-39.7388 1121.25,-29.1846"/>
<polygon fill="midnightblue" stroke="midnightblue" points="1124.75,-28.8717 1121.25,-18.8718 1117.75,-28.8718 1124.75,-28.8717"/>
</g>
<!-- Node21 -->
<g id="node22" class="node"><title>Node21</title>
<polygon fill="white" stroke="#bfbfbf" points="1161.03,-0.5 1161.03,-18.5 1201.48,-18.5 1201.48,-0.5 1161.03,-0.5"/>
<text text-anchor="middle" x="1181.25" y="-6.5" font-family="Helvetica,sans-Serif" font-size="10.00">string</text>
</g>
<!-- Node19&#45;&gt;Node21 -->
<g id="edge26" class="edge"><title>Node19&#45;&gt;Node21</title>
<path fill="none" stroke="midnightblue" d="M1129.6,-60.4353C1138.81,-51.5331 1153.84,-36.9952 1165.33,-25.8954"/>
<polygon fill="midnightblue" stroke="midnightblue" points="1167.84,-28.3385 1172.59,-18.8718 1162.97,-23.3055 1167.84,-28.3385"/>
</g>
<!-- Node22 -->
<g id="node23" class="node"><title>Node22</title>
<polygon fill="white" stroke="#bfbfbf" points="1219.47,-0.5 1219.47,-18.5 1271.03,-18.5 1271.03,-0.5 1219.47,-0.5"/>
<text text-anchor="middle" x="1245.25" y="-6.5" font-family="Helvetica,sans-Serif" font-size="10.00">sstream</text>
</g>
<!-- Node19&#45;&gt;Node22 -->
<g id="edge28" class="edge"><title>Node19&#45;&gt;Node22</title>
<path fill="none" stroke="midnightblue" d="M1138.5,-60.4353C1159.2,-50.7508 1194.16,-34.3966 1218.41,-23.055"/>
<polygon fill="midnightblue" stroke="midnightblue" points="1220.18,-26.0904 1227.76,-18.6831 1217.22,-19.7497 1220.18,-26.0904"/>
</g>
<!-- Node23 -->
<g id="node24" class="node"><title>Node23</title>
<polygon fill="white" stroke="#bfbfbf" points="1289.31,-0.5 1289.31,-18.5 1405.19,-18.5 1405.19,-0.5 1289.31,-0.5"/>
<text text-anchor="middle" x="1347.25" y="-6.5" font-family="Helvetica,sans-Serif" font-size="10.00">yarp/os/BufferedPort.h</text>
</g>
<!-- Node19&#45;&gt;Node23 -->
<g id="edge29" class="edge"><title>Node19&#45;&gt;Node23</title>
<path fill="none" stroke="midnightblue" d="M1152.68,-60.4353C1192.62,-50.1839 1261.69,-32.459 1305.88,-21.1171"/>
<polygon fill="midnightblue" stroke="midnightblue" points="1306.92,-24.4655 1315.73,-18.5894 1305.18,-17.6852 1306.92,-24.4655"/>
</g>
<!-- Node24 -->
<g id="node25" class="node"><title>Node24</title>
<polygon fill="white" stroke="#bfbfbf" points="1423.51,-0.5 1423.51,-18.5 1508.99,-18.5 1508.99,-0.5 1423.51,-0.5"/>
<text text-anchor="middle" x="1466.25" y="-6.5" font-family="Helvetica,sans-Serif" font-size="10.00">yarp/os/Bottle.h</text>
</g>
<!-- Node19&#45;&gt;Node24 -->
<g id="edge30" class="edge"><title>Node19&#45;&gt;Node24</title>
<path fill="none" stroke="midnightblue" d="M1157.74,-60.4615C1166.72,-58.5781 1176.32,-56.6435 1185.25,-55 1283.41,-36.9439 1310.83,-35.3932 1413.26,-19.1442"/>
<polygon fill="midnightblue" stroke="midnightblue" points="1414.08,-22.5565 1423.41,-17.5248 1412.98,-15.6439 1414.08,-22.5565"/>
</g>
<!-- Node25 -->
<g id="node26" class="node"><title>Node25</title>
<polygon fill="white" stroke="#bfbfbf" points="1526.89,-0.5 1526.89,-18.5 1639.61,-18.5 1639.61,-0.5 1526.89,-0.5"/>
<text text-anchor="middle" x="1583.25" y="-6.5" font-family="Helvetica,sans-Serif" font-size="10.00">yarp/os/RateThread.h</text>
</g>
<!-- Node19&#45;&gt;Node25 -->
<g id="edge31" class="edge"><title>Node19&#45;&gt;Node25</title>
<path fill="none" stroke="midnightblue" d="M1156.35,-60.4365C1165.7,-58.4676 1175.83,-56.4989 1185.25,-55 1328.96,-32.1338 1368.67,-36.44 1516.53,-19.1735"/>
<polygon fill="midnightblue" stroke="midnightblue" points="1517.37,-22.598 1526.89,-17.9485 1516.55,-15.6464 1517.37,-22.598"/>
</g>
<!-- Node26 -->
<g id="node27" class="node"><title>Node26</title>
<polygon fill="white" stroke="#bfbfbf" points="1658,-0.5 1658,-18.5 1768.5,-18.5 1768.5,-0.5 1658,-0.5"/>
<text text-anchor="middle" x="1713.25" y="-6.5" font-family="Helvetica,sans-Serif" font-size="10.00">yarp/os/PortReader.h</text>
</g>
<!-- Node19&#45;&gt;Node26 -->
<g id="edge33" class="edge"><title>Node19&#45;&gt;Node26</title>
<path fill="none" stroke="midnightblue" d="M1155.32,-60.4552C1164.95,-58.4148 1175.47,-56.4054 1185.25,-55 1386.36,-26.0966 1441.26,-39.9385 1648,-18.9571"/>
<polygon fill="midnightblue" stroke="midnightblue" points="1648.37,-22.4374 1657.96,-17.9314 1647.65,-15.4743 1648.37,-22.4374"/>
</g>
<!-- Node19&#45;&gt;Node27 -->
<g id="edge34" class="edge"><title>Node19&#45;&gt;Node27</title>
<path fill="none" stroke="midnightblue" d="M1171.86,-64.1458C1207.46,-61.2087 1256.24,-57.4382 1299.25,-55 1721.33,-31.0728 1831.11,-56.0529 2256.28,-18.9784"/>
<polygon fill="midnightblue" stroke="midnightblue" points="2256.72,-22.4527 2266.38,-18.091 2256.11,-15.4795 2256.72,-22.4527"/>
</g>
<!-- Node28 -->
<g id="node29" class="node"><title>Node28</title>
<polygon fill="white" stroke="#bfbfbf" points="1786.95,-0.5 1786.95,-18.5 1893.55,-18.5 1893.55,-0.5 1786.95,-0.5"/>
<text text-anchor="middle" x="1840.25" y="-6.5" font-family="Helvetica,sans-Serif" font-size="10.00">yarp/os/RpcServer.h</text>
</g>
<!-- Node19&#45;&gt;Node28 -->
<g id="edge35" class="edge"><title>Node19&#45;&gt;Node28</title>
<path fill="none" stroke="midnightblue" d="M1154.64,-60.4883C1164.45,-58.3974 1175.24,-56.3534 1185.25,-55 1443.16,-20.15 1513.14,-44.0164 1776.42,-18.9917"/>
<polygon fill="midnightblue" stroke="midnightblue" points="1777.05,-22.4467 1786.67,-18.0019 1776.38,-15.4791 1777.05,-22.4467"/>
</g>
<!-- Node29 -->
<g id="node30" class="node"><title>Node29</title>
<polygon fill="white" stroke="#bfbfbf" points="1911.88,-0.5 1911.88,-18.5 2054.63,-18.5 2054.63,-0.5 1911.88,-0.5"/>
<text text-anchor="middle" x="1983.25" y="-6.5" font-family="Helvetica,sans-Serif" font-size="10.00">yarp/os/ConnectionReader.h</text>
</g>
<!-- Node19&#45;&gt;Node29 -->
<g id="edge36" class="edge"><title>Node19&#45;&gt;Node29</title>
<path fill="none" stroke="midnightblue" d="M1154.3,-60.4912C1164.2,-58.374 1175.12,-56.315 1185.25,-55 1498.42,-14.3662 1582.42,-43.057 1901.72,-18.9852"/>
<polygon fill="midnightblue" stroke="midnightblue" points="1902.02,-22.4728 1911.72,-18.2199 1901.48,-15.4932 1902.02,-22.4728"/>
</g>
<!-- Node30 -->
<g id="node31" class="node"><title>Node30</title>
<polygon fill="white" stroke="#bfbfbf" points="560.77,-0.5 560.77,-18.5 657.737,-18.5 657.737,-0.5 560.77,-0.5"/>
<text text-anchor="middle" x="609.253" y="-6.5" font-family="Helvetica,sans-Serif" font-size="10.00">yarp/os/Property.h</text>
</g>
<!-- Node19&#45;&gt;Node30 -->
<g id="edge40" class="edge"><title>Node19&#45;&gt;Node30</title>
<path fill="none" stroke="midnightblue" d="M1086.84,-60.4757C1077.3,-58.4599 1066.91,-56.458 1057.25,-55 887.898,-29.4302 841.233,-39.4849 667.717,-19.1084"/>
<polygon fill="midnightblue" stroke="midnightblue" points="668.082,-15.6272 657.738,-17.9196 667.254,-22.5781 668.082,-15.6272"/>
</g>
<!-- Node31 -->
<g id="node32" class="node"><title>Node31</title>
<polygon fill="white" stroke="#bfbfbf" points="675.576,-0.5 675.576,-18.5 764.931,-18.5 764.931,-0.5 675.576,-0.5"/>
<text text-anchor="middle" x="720.253" y="-6.5" font-family="Helvetica,sans-Serif" font-size="10.00">yarp/sig/Matrix.h</text>
</g>
<!-- Node19&#45;&gt;Node31 -->
<g id="edge42" class="edge"><title>Node19&#45;&gt;Node31</title>
<path fill="none" stroke="midnightblue" d="M1085.81,-60.4862C1076.54,-58.5392 1066.55,-56.5686 1057.25,-55 935.405,-34.4337 901.488,-36.7247 775.097,-19.0732"/>
<polygon fill="midnightblue" stroke="midnightblue" points="775.418,-15.5839 765.027,-17.6522 774.44,-22.5152 775.418,-15.5839"/>
</g>
<!-- Node32 -->
<g id="node33" class="node"><title>Node32</title>
<polygon fill="white" stroke="#bfbfbf" points="783.012,-0.5 783.012,-18.5 903.495,-18.5 903.495,-0.5 783.012,-0.5"/>
<text text-anchor="middle" x="843.253" y="-6.5" font-family="Helvetica,sans-Serif" font-size="10.00">ocra/util/StringUtilities.h</text>
</g>
<!-- Node19&#45;&gt;Node32 -->
<g id="edge45" class="edge"><title>Node19&#45;&gt;Node32</title>
<path fill="none" stroke="midnightblue" d="M1083.35,-60.4869C1074.77,-58.6777 1065.7,-56.7691 1057.25,-55 1000.52,-43.1173 935.297,-29.5713 891.916,-20.5778"/>
<polygon fill="midnightblue" stroke="midnightblue" points="892.422,-17.1083 881.92,-18.5057 891.001,-23.9626 892.422,-17.1083"/>
</g>
<!-- Node33 -->
<g id="node34" class="node"><title>Node33</title>
<polygon fill="white" stroke="#bfbfbf" points="921.623,-0.5 921.623,-18.5 994.884,-18.5 994.884,-0.5 921.623,-0.5"/>
<text text-anchor="middle" x="958.253" y="-6.5" font-family="Helvetica,sans-Serif" font-size="10.00">Eigen/Dense</text>
</g>
<!-- Node19&#45;&gt;Node33 -->
<g id="edge46" class="edge"><title>Node19&#45;&gt;Node33</title>
<path fill="none" stroke="midnightblue" d="M1098.59,-60.4353C1070.57,-50.4645 1022.68,-33.4237 990.748,-22.0624"/>
<polygon fill="midnightblue" stroke="midnightblue" points="991.582,-18.6444 980.988,-18.5894 989.236,-25.2394 991.582,-18.6444"/>
</g>
<!-- Node34 -->
<g id="node35" class="node"><title>Node34</title>
<polygon fill="white" stroke="#bfbfbf" points="1012.85,-0.5 1012.85,-18.5 1081.66,-18.5 1081.66,-0.5 1012.85,-0.5"/>
<text text-anchor="middle" x="1047.25" y="-6.5" font-family="Helvetica,sans-Serif" font-size="10.00">Eigen/Lgsm</text>
</g>
<!-- Node19&#45;&gt;Node34 -->
<g id="edge47" class="edge"><title>Node19&#45;&gt;Node34</title>
<path fill="none" stroke="midnightblue" d="M1110.96,-60.4353C1099.39,-51.3619 1080.34,-36.434 1066.08,-25.2589"/>
<polygon fill="midnightblue" stroke="midnightblue" points="1067.96,-22.2859 1057.93,-18.8718 1063.65,-27.7953 1067.96,-22.2859"/>
</g>
</g>
</svg>
