<?xml version="1.0" encoding="UTF-8" standalone="no"?>
<!DOCTYPE svg PUBLIC "-//W3C//DTD SVG 1.1//EN"
 "http://www.w3.org/Graphics/SVG/1.1/DTD/svg11.dtd">
<!-- Generated by graphviz version 2.38.0 (20140413.2041)
 -->
<!-- Title: /Users/jorhabibeljaik/Code/codyco&#45;superbuild/main/ocra&#45;wbi&#45;plugins/ocra&#45;icub/include/ocra&#45;icub/IcubClient.h Pages: 1 -->
<svg width="1039pt" height="277pt"
 viewBox="0.00 0.00 1038.78 277.00" xmlns="http://www.w3.org/2000/svg" xmlns:xlink="http://www.w3.org/1999/xlink">
<g id="graph0" class="graph" transform="scale(1 1) rotate(0) translate(4 273)">
<title>/Users/jorhabibeljaik/Code/codyco&#45;superbuild/main/ocra&#45;wbi&#45;plugins/ocra&#45;icub/include/ocra&#45;icub/IcubClient.h</title>
<polygon fill="white" stroke="none" points="-4,4 -4,-273 1034.78,-273 1034.78,4 -4,4"/>
<!-- Node32 -->
<g id="node1" class="node"><title>Node32</title>
<polygon fill="#bfbfbf" stroke="black" points="388.158,-210.5 388.158,-268.5 514.778,-268.5 514.778,-210.5 388.158,-210.5"/>
<text text-anchor="start" x="396.158" y="-256.5" font-family="Helvetica,sans-Serif" font-size="10.00">/Users/jorhabibeljaik</text>
<text text-anchor="start" x="396.158" y="-246.5" font-family="Helvetica,sans-Serif" font-size="10.00">/Code/codyco&#45;superbuild</text>
<text text-anchor="start" x="396.158" y="-236.5" font-family="Helvetica,sans-Serif" font-size="10.00">/main/ocra&#45;wbi&#45;plugins</text>
<text text-anchor="start" x="396.158" y="-226.5" font-family="Helvetica,sans-Serif" font-size="10.00">/ocra&#45;icub/include/ocra</text>
<text text-anchor="middle" x="451.468" y="-216.5" font-family="Helvetica,sans-Serif" font-size="10.00">&#45;icub/IcubClient.h</text>
</g>
<!-- Node33 -->
<g id="node2" class="node"><title>Node33</title>
<g id="a_node2"><a xlink:href="ExampleClient_8h.html" target="_top" xlink:title="/Users/jorhabibeljaik\l/Code/codyco&#45;superbuild\l/main/ocra&#45;wbi&#45;plugins\l/ocra&#45;icub&#45;clients/example\l&#45;client/include/example&#45;client\l/ExampleClient.h">
<polygon fill="white" stroke="black" points="163.271,-105.5 163.271,-173.5 307.665,-173.5 307.665,-105.5 163.271,-105.5"/>
<text text-anchor="start" x="171.271" y="-161.5" font-family="Helvetica,sans-Serif" font-size="10.00">/Users/jorhabibeljaik</text>
<text text-anchor="start" x="171.271" y="-151.5" font-family="Helvetica,sans-Serif" font-size="10.00">/Code/codyco&#45;superbuild</text>
<text text-anchor="start" x="171.271" y="-141.5" font-family="Helvetica,sans-Serif" font-size="10.00">/main/ocra&#45;wbi&#45;plugins</text>
<text text-anchor="start" x="171.271" y="-131.5" font-family="Helvetica,sans-Serif" font-size="10.00">/ocra&#45;icub&#45;clients/example</text>
<text text-anchor="start" x="171.271" y="-121.5" font-family="Helvetica,sans-Serif" font-size="10.00">&#45;client/include/example&#45;client</text>
<text text-anchor="middle" x="235.468" y="-111.5" font-family="Helvetica,sans-Serif" font-size="10.00">/ExampleClient.h</text>
</a>
</g>
</g>
<!-- Node32&#45;&gt;Node33 -->
<g id="edge1" class="edge"><title>Node32&#45;&gt;Node33</title>
<path fill="none" stroke="midnightblue" d="M380.424,-206.267C357.076,-195.674 331.108,-183.893 307.675,-173.261"/>
<polygon fill="midnightblue" stroke="midnightblue" points="379.018,-209.473 389.571,-210.417 381.91,-203.098 379.018,-209.473"/>
</g>
<!-- Node34 -->
<g id="node3" class="node"><title>Node34</title>
<g id="a_node3"><a xlink:href="example-client_8cpp.html" target="_top" xlink:title="/Users/jorhabibeljaik\l/Code/codyco&#45;superbuild\l/main/ocra&#45;wbi&#45;plugins\l/ocra&#45;icub&#45;clients/example\l&#45;client/src/example&#45;client.cpp">
<polygon fill="white" stroke="black" points="0,-5.5 0,-63.5 144.936,-63.5 144.936,-5.5 0,-5.5"/>
<text text-anchor="start" x="8" y="-51.5" font-family="Helvetica,sans-Serif" font-size="10.00">/Users/jorhabibeljaik</text>
<text text-anchor="start" x="8" y="-41.5" font-family="Helvetica,sans-Serif" font-size="10.00">/Code/codyco&#45;superbuild</text>
<text text-anchor="start" x="8" y="-31.5" font-family="Helvetica,sans-Serif" font-size="10.00">/main/ocra&#45;wbi&#45;plugins</text>
<text text-anchor="start" x="8" y="-21.5" font-family="Helvetica,sans-Serif" font-size="10.00">/ocra&#45;icub&#45;clients/example</text>
<text text-anchor="middle" x="72.4678" y="-11.5" font-family="Helvetica,sans-Serif" font-size="10.00">&#45;client/src/example&#45;client.cpp</text>
</a>
</g>
</g>
<!-- Node32&#45;&gt;Node34 -->
<g id="edge4" class="edge"><title>Node32&#45;&gt;Node34</title>
<path fill="none" stroke="midnightblue" d="M378.073,-229.378C302.081,-218.755 189.634,-199.374 154.468,-174 116.398,-146.531 92.9806,-95.4681 81.3793,-63.6082"/>
<polygon fill="midnightblue" stroke="midnightblue" points="377.693,-232.858 388.077,-230.755 378.648,-225.924 377.693,-232.858"/>
</g>
<!-- Node36 -->
<g id="node5" class="node"><title>Node36</title>
<g id="a_node5"><a xlink:href="SteppingDemoClient_8h.html" target="_top" xlink:title="/Users/jorhabibeljaik\l/Code/codyco&#45;superbuild\l/main/ocra&#45;wbi&#45;plugins\l/ocra&#45;icub&#45;clients/stepping\l&#45;demo/include/stepping&#45;demo\l/SteppingDemoClient.h">
<polygon fill="white" stroke="black" points="428.596,-105.5 428.596,-173.5 576.339,-173.5 576.339,-105.5 428.596,-105.5"/>
<text text-anchor="start" x="436.596" y="-161.5" font-family="Helvetica,sans-Serif" font-size="10.00">/Users/jorhabibeljaik</text>
<text text-anchor="start" x="436.596" y="-151.5" font-family="Helvetica,sans-Serif" font-size="10.00">/Code/codyco&#45;superbuild</text>
<text text-anchor="start" x="436.596" y="-141.5" font-family="Helvetica,sans-Serif" font-size="10.00">/main/ocra&#45;wbi&#45;plugins</text>
<text text-anchor="start" x="436.596" y="-131.5" font-family="Helvetica,sans-Serif" font-size="10.00">/ocra&#45;icub&#45;clients/stepping</text>
<text text-anchor="start" x="436.596" y="-121.5" font-family="Helvetica,sans-Serif" font-size="10.00">&#45;demo/include/stepping&#45;demo</text>
<text text-anchor="middle" x="502.468" y="-111.5" font-family="Helvetica,sans-Serif" font-size="10.00">/SteppingDemoClient.h</text>
</a>
</g>
</g>
<!-- Node32&#45;&gt;Node36 -->
<g id="edge5" class="edge"><title>Node32&#45;&gt;Node36</title>
<path fill="none" stroke="midnightblue" d="M470.846,-201.264C475.547,-192.23 480.544,-182.629 485.143,-173.79"/>
<polygon fill="midnightblue" stroke="midnightblue" points="467.594,-199.931 466.082,-210.417 473.803,-203.162 467.594,-199.931"/>
</g>
<!-- Node37 -->
<g id="node6" class="node"><title>Node37</title>
<g id="a_node6"><a xlink:href="stepping-demo_8cpp.html" target="_top" xlink:title="/Users/jorhabibeljaik\l/Code/codyco&#45;superbuild\l/main/ocra&#45;wbi&#45;plugins\l/ocra&#45;icub&#45;clients/stepping\l&#45;demo/src/stepping&#45;demo.cpp">
<polygon fill="white" stroke="black" points="326.325,-5.5 326.325,-63.5 474.61,-63.5 474.61,-5.5 326.325,-5.5"/>
<text text-anchor="start" x="334.325" y="-51.5" font-family="Helvetica,sans-Serif" font-size="10.00">/Users/jorhabibeljaik</text>
<text text-anchor="start" x="334.325" y="-41.5" font-family="Helvetica,sans-Serif" font-size="10.00">/Code/codyco&#45;superbuild</text>
<text text-anchor="start" x="334.325" y="-31.5" font-family="Helvetica,sans-Serif" font-size="10.00">/main/ocra&#45;wbi&#45;plugins</text>
<text text-anchor="start" x="334.325" y="-21.5" font-family="Helvetica,sans-Serif" font-size="10.00">/ocra&#45;icub&#45;clients/stepping</text>
<text text-anchor="middle" x="400.468" y="-11.5" font-family="Helvetica,sans-Serif" font-size="10.00">&#45;demo/src/stepping&#45;demo.cpp</text>
</a>
</g>
</g>
<!-- Node32&#45;&gt;Node37 -->
<g id="edge8" class="edge"><title>Node32&#45;&gt;Node37</title>
<path fill="none" stroke="midnightblue" d="M430.459,-201.275C426.255,-192.546 422.275,-183.125 419.468,-174 408.05,-136.884 403.483,-92.0614 401.663,-63.6639"/>
<polygon fill="midnightblue" stroke="midnightblue" points="427.443,-203.067 435.063,-210.428 433.696,-199.921 427.443,-203.067"/>
</g>
<!-- Node39 -->
<g id="node8" class="node"><title>Node39</title>
<g id="a_node8"><a xlink:href="TaskOpsClient_8h.html" target="_top" xlink:title="/Users/jorhabibeljaik\l/Code/codyco&#45;superbuild\l/main/ocra&#45;wbi&#45;plugins\l/ocra&#45;icub&#45;clients/task\l&#45;operations&#45;demo/include\l/task&#45;operations&#45;demo/TaskOpsClient.h">
<polygon fill="white" stroke="black" points="654.929,-105.5 654.929,-173.5 846.007,-173.5 846.007,-105.5 654.929,-105.5"/>
<text text-anchor="start" x="662.929" y="-161.5" font-family="Helvetica,sans-Serif" font-size="10.00">/Users/jorhabibeljaik</text>
<text text-anchor="start" x="662.929" y="-151.5" font-family="Helvetica,sans-Serif" font-size="10.00">/Code/codyco&#45;superbuild</text>
<text text-anchor="start" x="662.929" y="-141.5" font-family="Helvetica,sans-Serif" font-size="10.00">/main/ocra&#45;wbi&#45;plugins</text>
<text text-anchor="start" x="662.929" y="-131.5" font-family="Helvetica,sans-Serif" font-size="10.00">/ocra&#45;icub&#45;clients/task</text>
<text text-anchor="start" x="662.929" y="-121.5" font-family="Helvetica,sans-Serif" font-size="10.00">&#45;operations&#45;demo/include</text>
<text text-anchor="middle" x="750.468" y="-111.5" font-family="Helvetica,sans-Serif" font-size="10.00">/task&#45;operations&#45;demo/TaskOpsClient.h</text>
</a>
</g>
</g>
<!-- Node32&#45;&gt;Node39 -->
<g id="edge9" class="edge"><title>Node32&#45;&gt;Node39</title>
<path fill="none" stroke="midnightblue" d="M524.626,-214.522C563.817,-201.677 612.574,-185.696 654.744,-171.874"/>
<polygon fill="midnightblue" stroke="midnightblue" points="523.29,-211.276 514.878,-217.717 525.471,-217.928 523.29,-211.276"/>
</g>
<!-- Node40 -->
<g id="node9" class="node"><title>Node40</title>
<g id="a_node9"><a xlink:href="task-operations-demo_8cpp.html" target="_top" xlink:title="/Users/jorhabibeljaik\l/Code/codyco&#45;superbuild\l/main/ocra&#45;wbi&#45;plugins\l/ocra&#45;icub&#45;clients/task\l&#45;operations&#45;demo/src/task\l&#45;operations&#45;demo.cpp">
<polygon fill="white" stroke="black" points="684.667,-0.5 684.667,-68.5 816.268,-68.5 816.268,-0.5 684.667,-0.5"/>
<text text-anchor="start" x="692.667" y="-56.5" font-family="Helvetica,sans-Serif" font-size="10.00">/Users/jorhabibeljaik</text>
<text text-anchor="start" x="692.667" y="-46.5" font-family="Helvetica,sans-Serif" font-size="10.00">/Code/codyco&#45;superbuild</text>
<text text-anchor="start" x="692.667" y="-36.5" font-family="Helvetica,sans-Serif" font-size="10.00">/main/ocra&#45;wbi&#45;plugins</text>
<text text-anchor="start" x="692.667" y="-26.5" font-family="Helvetica,sans-Serif" font-size="10.00">/ocra&#45;icub&#45;clients/task</text>
<text text-anchor="start" x="692.667" y="-16.5" font-family="Helvetica,sans-Serif" font-size="10.00">&#45;operations&#45;demo/src/task</text>
<text text-anchor="middle" x="750.468" y="-6.5" font-family="Helvetica,sans-Serif" font-size="10.00">&#45;operations&#45;demo.cpp</text>
</a>
</g>
</g>
<!-- Node32&#45;&gt;Node40 -->
<g id="edge12" class="edge"><title>Node32&#45;&gt;Node40</title>
<path fill="none" stroke="midnightblue" d="M524.016,-210.144C544.872,-200.296 566.963,-188.121 585.468,-174 617.775,-149.346 614.912,-131.793 645.468,-105 660.425,-91.8846 678.016,-79.3115 694.479,-68.5525"/>
<polygon fill="midnightblue" stroke="midnightblue" points="522.474,-207.001 514.854,-214.362 525.401,-213.359 522.474,-207.001"/>
</g>
<!-- Node33&#45;&gt;Node34 -->
<g id="edge2" class="edge"><title>Node33&#45;&gt;Node34</title>
<path fill="none" stroke="midnightblue" d="M174.36,-99.8858C155.283,-87.8313 134.614,-74.7702 116.909,-63.5825"/>
<polygon fill="midnightblue" stroke="midnightblue" points="172.673,-102.96 182.996,-105.343 176.412,-97.0425 172.673,-102.96"/>
</g>
<!-- Node35 -->
<g id="node4" class="node"><title>Node35</title>
<g id="a_node4"><a xlink:href="ExampleClient_8cpp.html" target="_top" xlink:title="/Users/jorhabibeljaik\l/Code/codyco&#45;superbuild\l/main/ocra&#45;wbi&#45;plugins\l/ocra&#45;icub&#45;clients/example\l&#45;client/src/ExampleClient.cpp">
<polygon fill="white" stroke="black" points="163,-5.5 163,-63.5 307.936,-63.5 307.936,-5.5 163,-5.5"/>
<text text-anchor="start" x="171" y="-51.5" font-family="Helvetica,sans-Serif" font-size="10.00">/Users/jorhabibeljaik</text>
<text text-anchor="start" x="171" y="-41.5" font-family="Helvetica,sans-Serif" font-size="10.00">/Code/codyco&#45;superbuild</text>
<text text-anchor="start" x="171" y="-31.5" font-family="Helvetica,sans-Serif" font-size="10.00">/main/ocra&#45;wbi&#45;plugins</text>
<text text-anchor="start" x="171" y="-21.5" font-family="Helvetica,sans-Serif" font-size="10.00">/ocra&#45;icub&#45;clients/example</text>
<text text-anchor="middle" x="235.468" y="-11.5" font-family="Helvetica,sans-Serif" font-size="10.00">&#45;client/src/ExampleClient.cpp</text>
</a>
</g>
</g>
<!-- Node33&#45;&gt;Node35 -->
<g id="edge3" class="edge"><title>Node33&#45;&gt;Node35</title>
<path fill="none" stroke="midnightblue" d="M235.468,-95.3273C235.468,-84.6595 235.468,-73.502 235.468,-63.7516"/>
<polygon fill="midnightblue" stroke="midnightblue" points="231.968,-95.3432 235.468,-105.343 238.968,-95.3432 231.968,-95.3432"/>
</g>
<!-- Node36&#45;&gt;Node37 -->
<g id="edge6" class="edge"><title>Node36&#45;&gt;Node37</title>
<path fill="none" stroke="midnightblue" d="M462.317,-97.9557C450.982,-86.5094 438.897,-74.3061 428.445,-63.7516"/>
<polygon fill="midnightblue" stroke="midnightblue" points="460.109,-100.7 469.633,-105.343 465.083,-95.7749 460.109,-100.7"/>
</g>
<!-- Node38 -->
<g id="node7" class="node"><title>Node38</title>
<g id="a_node7"><a xlink:href="SteppingDemoClient_8cpp.html" target="_top" xlink:title="/Users/jorhabibeljaik\l/Code/codyco&#45;superbuild\l/main/ocra&#45;wbi&#45;plugins\l/ocra&#45;icub&#45;clients/stepping\l&#45;demo/src/SteppingDemoClient.cpp">
<polygon fill="white" stroke="black" points="492.542,-5.5 492.542,-63.5 666.394,-63.5 666.394,-5.5 492.542,-5.5"/>
<text text-anchor="start" x="500.542" y="-51.5" font-family="Helvetica,sans-Serif" font-size="10.00">/Users/jorhabibeljaik</text>
<text text-anchor="start" x="500.542" y="-41.5" font-family="Helvetica,sans-Serif" font-size="10.00">/Code/codyco&#45;superbuild</text>
<text text-anchor="start" x="500.542" y="-31.5" font-family="Helvetica,sans-Serif" font-size="10.00">/main/ocra&#45;wbi&#45;plugins</text>
<text text-anchor="start" x="500.542" y="-21.5" font-family="Helvetica,sans-Serif" font-size="10.00">/ocra&#45;icub&#45;clients/stepping</text>
<text text-anchor="middle" x="579.468" y="-11.5" font-family="Helvetica,sans-Serif" font-size="10.00">&#45;demo/src/SteppingDemoClient.cpp</text>
</a>
</g>
</g>
<!-- Node36&#45;&gt;Node38 -->
<g id="edge7" class="edge"><title>Node36&#45;&gt;Node38</title>
<path fill="none" stroke="midnightblue" d="M533.267,-97.3008C541.682,-86.0451 550.608,-74.1051 558.348,-63.7516"/>
<polygon fill="midnightblue" stroke="midnightblue" points="530.439,-95.2382 527.255,-105.343 536.046,-99.4295 530.439,-95.2382"/>
</g>
<!-- Node39&#45;&gt;Node40 -->
<g id="edge10" class="edge"><title>Node39&#45;&gt;Node40</title>
<path fill="none" stroke="midnightblue" d="M750.468,-95.1362C750.468,-86.256 750.468,-77.0447 750.468,-68.5947"/>
<polygon fill="midnightblue" stroke="midnightblue" points="746.968,-95.3432 750.468,-105.343 753.968,-95.3432 746.968,-95.3432"/>
</g>
<!-- Node41 -->
<g id="node10" class="node"><title>Node41</title>
<g id="a_node10"><a xlink:href="TaskOpsClient_8cpp.html" target="_top" xlink:title="/Users/jorhabibeljaik\l/Code/codyco&#45;superbuild\l/main/ocra&#45;wbi&#45;plugins\l/ocra&#45;icub&#45;clients/task\l&#45;operations&#45;demo/src/TaskOpsClient.cpp">
<polygon fill="white" stroke="black" points="834.153,-5.5 834.153,-63.5 1030.78,-63.5 1030.78,-5.5 834.153,-5.5"/>
<text text-anchor="start" x="842.153" y="-51.5" font-family="Helvetica,sans-Serif" font-size="10.00">/Users/jorhabibeljaik</text>
<text text-anchor="start" x="842.153" y="-41.5" font-family="Helvetica,sans-Serif" font-size="10.00">/Code/codyco&#45;superbuild</text>
<text text-anchor="start" x="842.153" y="-31.5" font-family="Helvetica,sans-Serif" font-size="10.00">/main/ocra&#45;wbi&#45;plugins</text>
<text text-anchor="start" x="842.153" y="-21.5" font-family="Helvetica,sans-Serif" font-size="10.00">/ocra&#45;icub&#45;clients/task</text>
<text text-anchor="middle" x="932.468" y="-11.5" font-family="Helvetica,sans-Serif" font-size="10.00">&#45;operations&#45;demo/src/TaskOpsClient.cpp</text>
</a>
</g>
</g>
<!-- Node39&#45;&gt;Node41 -->
<g id="edge11" class="edge"><title>Node39&#45;&gt;Node41</title>
<path fill="none" stroke="midnightblue" d="M817.592,-100.512C839.15,-88.312 862.631,-75.023 882.713,-63.6577"/>
<polygon fill="midnightblue" stroke="midnightblue" points="815.784,-97.5138 808.805,-105.485 819.232,-103.606 815.784,-97.5138"/>
</g>
</g>
</svg>
