<?xml version="1.0" encoding="UTF-8" standalone="no"?>
<!DOCTYPE svg PUBLIC "-//W3C//DTD SVG 1.1//EN"
 "http://www.w3.org/Graphics/SVG/1.1/DTD/svg11.dtd">
<!-- Generated by graphviz version 2.38.0 (20140413.2041)
 -->
<!-- Title: /Users/jorhabibeljaik/Code/codyco&#45;superbuild/main/ocra&#45;wbi&#45;plugins/ocra&#45;icub&#45;server/src/IcubControllerServer.cpp Pages: 1 -->
<svg width="2854pt" height="372pt"
 viewBox="0.00 0.00 2854.19 372.00" xmlns="http://www.w3.org/2000/svg" xmlns:xlink="http://www.w3.org/1999/xlink">
<g id="graph0" class="graph" transform="scale(1 1) rotate(0) translate(4 368)">
<title>/Users/jorhabibeljaik/Code/codyco&#45;superbuild/main/ocra&#45;wbi&#45;plugins/ocra&#45;icub&#45;server/src/IcubControllerServer.cpp</title>
<polygon fill="white" stroke="none" points="-4,4 -4,-368 2850.19,-368 2850.19,4 -4,4"/>
<!-- Node0 -->
<g id="node1" class="node"><title>Node0</title>
<polygon fill="#bfbfbf" stroke="black" points="2341.98,-305.5 2341.98,-363.5 2514.14,-363.5 2514.14,-305.5 2341.98,-305.5"/>
<text text-anchor="start" x="2349.98" y="-351.5" font-family="Helvetica,sans-Serif" font-size="10.00">/Users/jorhabibeljaik</text>
<text text-anchor="start" x="2349.98" y="-341.5" font-family="Helvetica,sans-Serif" font-size="10.00">/Code/codyco&#45;superbuild</text>
<text text-anchor="start" x="2349.98" y="-331.5" font-family="Helvetica,sans-Serif" font-size="10.00">/main/ocra&#45;wbi&#45;plugins</text>
<text text-anchor="start" x="2349.98" y="-321.5" font-family="Helvetica,sans-Serif" font-size="10.00">/ocra&#45;icub&#45;server/src/IcubController</text>
<text text-anchor="middle" x="2428.06" y="-311.5" font-family="Helvetica,sans-Serif" font-size="10.00">Server.cpp</text>
</g>
<!-- Node1 -->
<g id="node2" class="node"><title>Node1</title>
<g id="a_node2"><a xlink:href="IcubControllerServer_8h.html" target="_top" xlink:title="ocra&#45;icub&#45;server/IcubController\lServer.h">
<polygon fill="white" stroke="black" points="2351.42,-240.5 2351.42,-268.5 2504.69,-268.5 2504.69,-240.5 2351.42,-240.5"/>
<text text-anchor="start" x="2359.42" y="-256.5" font-family="Helvetica,sans-Serif" font-size="10.00">ocra&#45;icub&#45;server/IcubController</text>
<text text-anchor="middle" x="2428.06" y="-246.5" font-family="Helvetica,sans-Serif" font-size="10.00">Server.h</text>
</a>
</g>
</g>
<!-- Node0&#45;&gt;Node1 -->
<g id="edge1" class="edge"><title>Node0&#45;&gt;Node1</title>
<path fill="none" stroke="midnightblue" d="M2428.06,-305.34C2428.06,-296.602 2428.06,-287.075 2428.06,-278.713"/>
<polygon fill="midnightblue" stroke="midnightblue" points="2431.56,-278.555 2428.06,-268.555 2424.56,-278.555 2431.56,-278.555"/>
</g>
<!-- Node2 -->
<g id="node3" class="node"><title>Node2</title>
<polygon fill="white" stroke="#bfbfbf" points="2309.49,-0.5 2309.49,-18.5 2366.62,-18.5 2366.62,-0.5 2309.49,-0.5"/>
<text text-anchor="middle" x="2338.06" y="-6.5" font-family="Helvetica,sans-Serif" font-size="10.00">wbi/wbi.h</text>
</g>
<!-- Node1&#45;&gt;Node2 -->
<g id="edge2" class="edge"><title>Node1&#45;&gt;Node2</title>
<path fill="none" stroke="midnightblue" d="M2413.25,-240.134C2403.85,-230.866 2392.16,-217.755 2385.06,-204 2354.41,-144.669 2343.25,-64.7064 2339.62,-29.027"/>
<polygon fill="midnightblue" stroke="midnightblue" points="2343.07,-28.3507 2338.66,-18.7184 2336.11,-28.9999 2343.07,-28.3507"/>
</g>
<!-- Node3 -->
<g id="node4" class="node"><title>Node3</title>
<polygon fill="white" stroke="#bfbfbf" points="2403.86,-180.5 2403.86,-198.5 2558.25,-198.5 2558.25,-180.5 2403.86,-180.5"/>
<text text-anchor="middle" x="2481.06" y="-186.5" font-family="Helvetica,sans-Serif" font-size="10.00">ocra&#45;recipes/ControllerServer.h</text>
</g>
<!-- Node1&#45;&gt;Node3 -->
<g id="edge3" class="edge"><title>Node1&#45;&gt;Node3</title>
<path fill="none" stroke="midnightblue" d="M2439.04,-240.446C2447.28,-230.648 2458.62,-217.172 2467.44,-206.687"/>
<polygon fill="midnightblue" stroke="midnightblue" points="2470.37,-208.636 2474.13,-198.73 2465.02,-204.129 2470.37,-208.636"/>
</g>
<!-- Node4 -->
<g id="node5" class="node"><title>Node4</title>
<polygon fill="white" stroke="#bfbfbf" points="2384.43,-0.5 2384.43,-18.5 2457.69,-18.5 2457.69,-0.5 2384.43,-0.5"/>
<text text-anchor="middle" x="2421.06" y="-6.5" font-family="Helvetica,sans-Serif" font-size="10.00">Eigen/Dense</text>
</g>
<!-- Node1&#45;&gt;Node4 -->
<g id="edge4" class="edge"><title>Node1&#45;&gt;Node4</title>
<path fill="none" stroke="midnightblue" d="M2416.12,-240.34C2408.45,-230.96 2399.19,-217.642 2395.06,-204 2376.09,-141.355 2400.53,-63.1206 2413.68,-28.4581"/>
<polygon fill="midnightblue" stroke="midnightblue" points="2417.08,-29.3969 2417.49,-18.8101 2410.56,-26.8286 2417.08,-29.3969"/>
</g>
<!-- Node5 -->
<g id="node6" class="node"><title>Node5</title>
<g id="a_node6"><a xlink:href="OcraWbiModel_8h.html" target="_top" xlink:title="Implementation of ocra::Model using wholeBodyInterface. ">
<polygon fill="white" stroke="black" points="1027.87,-180.5 1027.87,-198.5 1162.24,-198.5 1162.24,-180.5 1027.87,-180.5"/>
<text text-anchor="middle" x="1095.06" y="-186.5" font-family="Helvetica,sans-Serif" font-size="10.00">ocra&#45;icub/OcraWbiModel.h</text>
</a>
</g>
</g>
<!-- Node1&#45;&gt;Node5 -->
<g id="edge5" class="edge"><title>Node1&#45;&gt;Node5</title>
<path fill="none" stroke="midnightblue" d="M2351.11,-249.864C2115.93,-238.748 1408.27,-205.303 1172.46,-194.158"/>
<polygon fill="midnightblue" stroke="midnightblue" points="1172.41,-190.652 1162.26,-193.676 1172.08,-197.644 1172.41,-190.652"/>
</g>
<!-- Node32 -->
<g id="node33" class="node"><title>Node32</title>
<polygon fill="white" stroke="#bfbfbf" points="2575.95,-175.5 2575.95,-203.5 2710.17,-203.5 2710.17,-175.5 2575.95,-175.5"/>
<text text-anchor="start" x="2583.95" y="-191.5" font-family="Helvetica,sans-Serif" font-size="10.00">iDynTree/Estimation</text>
<text text-anchor="middle" x="2643.06" y="-181.5" font-family="Helvetica,sans-Serif" font-size="10.00">/SimpleLeggedOdometry.h</text>
</g>
<!-- Node1&#45;&gt;Node32 -->
<g id="edge44" class="edge"><title>Node1&#45;&gt;Node32</title>
<path fill="none" stroke="midnightblue" d="M2472.6,-240.446C2506.33,-230.563 2552.83,-216.939 2588.74,-206.417"/>
<polygon fill="midnightblue" stroke="midnightblue" points="2589.95,-209.708 2598.57,-203.537 2587.98,-202.99 2589.95,-209.708"/>
</g>
<!-- Node33 -->
<g id="node34" class="node"><title>Node33</title>
<polygon fill="white" stroke="#bfbfbf" points="2727.92,-180.5 2727.92,-198.5 2846.19,-198.5 2846.19,-180.5 2727.92,-180.5"/>
<text text-anchor="middle" x="2787.06" y="-186.5" font-family="Helvetica,sans-Serif" font-size="10.00">ocra/util/ErrorsHelper.h</text>
</g>
<!-- Node1&#45;&gt;Node33 -->
<g id="edge45" class="edge"><title>Node1&#45;&gt;Node33</title>
<path fill="none" stroke="midnightblue" d="M2504.74,-241.046C2563.48,-231.364 2646.48,-217.374 2719.06,-204 2724.97,-202.91 2731.17,-201.731 2737.31,-200.54"/>
<polygon fill="midnightblue" stroke="midnightblue" points="2738.4,-203.893 2747.54,-198.536 2737.05,-197.024 2738.4,-203.893"/>
</g>
<!-- Node5&#45;&gt;Node2 -->
<g id="edge8" class="edge"><title>Node5&#45;&gt;Node2</title>
<path fill="none" stroke="midnightblue" d="M1162.51,-180.848C1244.5,-171.452 1387.02,-154.812 1509.06,-139 1858.42,-93.7347 1949.28,-86.6928 2299.55,-19.0002"/>
<polygon fill="midnightblue" stroke="midnightblue" points="2300.31,-22.4189 2309.46,-17.0825 2298.98,-15.5464 2300.31,-22.4189"/>
</g>
<!-- Node6 -->
<g id="node7" class="node"><title>Node6</title>
<polygon fill="white" stroke="#bfbfbf" points="0,-0.5 0,-18.5 52.1133,-18.5 52.1133,-0.5 0,-0.5"/>
<text text-anchor="middle" x="26.0566" y="-6.5" font-family="Helvetica,sans-Serif" font-size="10.00">memory</text>
</g>
<!-- Node5&#45;&gt;Node6 -->
<g id="edge6" class="edge"><title>Node5&#45;&gt;Node6</title>
<path fill="none" stroke="midnightblue" d="M1027.74,-183.139C888.434,-171.313 558.852,-139.537 287.057,-84 204.21,-67.0717 109.126,-37.7132 59.7659,-21.7023"/>
<polygon fill="midnightblue" stroke="midnightblue" points="60.8264,-18.3668 50.234,-18.5916 58.6547,-25.0214 60.8264,-18.3668"/>
</g>
<!-- Node7 -->
<g id="node8" class="node"><title>Node7</title>
<polygon fill="white" stroke="#bfbfbf" points="311.756,-0.5 311.756,-18.5 418.357,-18.5 418.357,-0.5 311.756,-0.5"/>
<text text-anchor="middle" x="365.057" y="-6.5" font-family="Helvetica,sans-Serif" font-size="10.00">ocra/control/Model.h</text>
</g>
<!-- Node5&#45;&gt;Node7 -->
<g id="edge7" class="edge"><title>Node5&#45;&gt;Node7</title>
<path fill="none" stroke="midnightblue" d="M1091.68,-180.263C1081.2,-155.885 1046.6,-83.9952 992.057,-55 883.682,2.61692 568.161,-29.87 428.602,-18.9739"/>
<polygon fill="midnightblue" stroke="midnightblue" points="428.732,-15.4717 418.462,-18.0723 428.112,-22.4442 428.732,-15.4717"/>
</g>
<!-- Node8 -->
<g id="node9" class="node"><title>Node8</title>
<polygon fill="white" stroke="#bfbfbf" points="2214.76,-0.5 2214.76,-18.5 2291.35,-18.5 2291.35,-0.5 2214.76,-0.5"/>
<text text-anchor="middle" x="2253.06" y="-6.5" font-family="Helvetica,sans-Serif" font-size="10.00">yarp/os/Log.h</text>
</g>
<!-- Node5&#45;&gt;Node8 -->
<g id="edge9" class="edge"><title>Node5&#45;&gt;Node8</title>
<path fill="none" stroke="midnightblue" d="M1150.57,-180.499C1311.65,-157.181 1793.29,-86.7422 2204.55,-19.0492"/>
<polygon fill="midnightblue" stroke="midnightblue" points="2205.26,-22.4796 2214.56,-17.4003 2204.12,-15.5728 2205.26,-22.4796"/>
</g>
<!-- Node9 -->
<g id="node10" class="node"><title>Node9</title>
<g id="a_node10"><a xlink:href="OcraWbiConversions_8h.html" target="_top" xlink:title="A utility class full of static conversion functions. ">
<polygon fill="white" stroke="black" points="826.697,-120.5 826.697,-138.5 989.416,-138.5 989.416,-120.5 826.697,-120.5"/>
<text text-anchor="middle" x="908.057" y="-126.5" font-family="Helvetica,sans-Serif" font-size="10.00">ocra&#45;icub/OcraWbiConversions.h</text>
</a>
</g>
</g>
<!-- Node5&#45;&gt;Node9 -->
<g id="edge10" class="edge"><title>Node5&#45;&gt;Node9</title>
<path fill="none" stroke="midnightblue" d="M1069.06,-180.435C1036.49,-170.335 980.535,-152.98 943.918,-141.623"/>
<polygon fill="midnightblue" stroke="midnightblue" points="944.726,-138.209 934.138,-138.589 942.652,-144.895 944.726,-138.209"/>
</g>
<!-- Node15 -->
<g id="node16" class="node"><title>Node15</title>
<g id="a_node16"><a xlink:href="Utilities_8h.html" target="_top" xlink:title="Some useful tools for the ocra&#45;icub lib. ">
<polygon fill="white" stroke="black" points="1044.82,-60.5 1044.82,-78.5 1145.29,-78.5 1145.29,-60.5 1044.82,-60.5"/>
<text text-anchor="middle" x="1095.06" y="-66.5" font-family="Helvetica,sans-Serif" font-size="10.00">ocra&#45;icub/Utilities.h</text>
</a>
</g>
</g>
<!-- Node5&#45;&gt;Node15 -->
<g id="edge43" class="edge"><title>Node5&#45;&gt;Node15</title>
<path fill="none" stroke="midnightblue" d="M1095.06,-180.389C1095.06,-161.611 1095.06,-114.768 1095.06,-88.7111"/>
<polygon fill="midnightblue" stroke="midnightblue" points="1098.56,-88.6673 1095.06,-78.6674 1091.56,-88.6674 1098.56,-88.6673"/>
</g>
<!-- Node9&#45;&gt;Node2 -->
<g id="edge16" class="edge"><title>Node9&#45;&gt;Node2</title>
<path fill="none" stroke="midnightblue" d="M989.642,-126.049C1141.22,-121.092 1476.48,-108.227 1758.06,-84 1996.47,-63.4861 2059.22,-60.068 2299.39,-18.9469"/>
<polygon fill="midnightblue" stroke="midnightblue" points="2300.22,-22.3563 2309.48,-17.215 2299.04,-15.4571 2300.22,-22.3563"/>
</g>
<!-- Node9&#45;&gt;Node8 -->
<g id="edge15" class="edge"><title>Node9&#45;&gt;Node8</title>
<path fill="none" stroke="midnightblue" d="M989.523,-124.206C1192.94,-112.928 1739.57,-79.199 2204.66,-18.9226"/>
<polygon fill="midnightblue" stroke="midnightblue" points="2205.13,-22.3908 2214.59,-17.6292 2204.22,-15.4494 2205.13,-22.3908"/>
</g>
<!-- Node10 -->
<g id="node11" class="node"><title>Node10</title>
<polygon fill="white" stroke="#bfbfbf" points="69.8843,-0.5 69.8843,-18.5 124.229,-18.5 124.229,-0.5 69.8843,-0.5"/>
<text text-anchor="middle" x="97.0566" y="-6.5" font-family="Helvetica,sans-Serif" font-size="10.00">iostream</text>
</g>
<!-- Node9&#45;&gt;Node10 -->
<g id="edge11" class="edge"><title>Node9&#45;&gt;Node10</title>
<path fill="none" stroke="midnightblue" d="M826.658,-123.465C733.565,-117.069 576.748,-104.348 443.057,-84 329.764,-66.7562 197.787,-35.5966 134.566,-19.9718"/>
<polygon fill="midnightblue" stroke="midnightblue" points="135.211,-16.5256 124.662,-17.5118 133.523,-23.3192 135.211,-16.5256"/>
</g>
<!-- Node11 -->
<g id="node12" class="node"><title>Node11</title>
<polygon fill="white" stroke="#bfbfbf" points="793.33,-60.5 793.33,-78.5 828.783,-78.5 828.783,-60.5 793.33,-60.5"/>
<text text-anchor="middle" x="811.057" y="-66.5" font-family="Helvetica,sans-Serif" font-size="10.00">map</text>
</g>
<!-- Node9&#45;&gt;Node11 -->
<g id="edge12" class="edge"><title>Node9&#45;&gt;Node11</title>
<path fill="none" stroke="midnightblue" d="M894.569,-120.435C878.733,-110.966 852.232,-95.1201 833.33,-83.8184"/>
<polygon fill="midnightblue" stroke="midnightblue" points="835.121,-80.8112 824.742,-78.6831 831.529,-86.8191 835.121,-80.8112"/>
</g>
<!-- Node12 -->
<g id="node13" class="node"><title>Node12</title>
<polygon fill="white" stroke="#bfbfbf" points="142.441,-0.5 142.441,-18.5 185.672,-18.5 185.672,-0.5 142.441,-0.5"/>
<text text-anchor="middle" x="164.057" y="-6.5" font-family="Helvetica,sans-Serif" font-size="10.00">vector</text>
</g>
<!-- Node9&#45;&gt;Node12 -->
<g id="edge13" class="edge"><title>Node9&#45;&gt;Node12</title>
<path fill="none" stroke="midnightblue" d="M857.636,-120.448C754.519,-103.993 522.552,-67.052 443.057,-55 336.056,-38.778 305.781,-41.5893 195.813,-18.9222"/>
<polygon fill="midnightblue" stroke="midnightblue" points="196.494,-15.4891 185.991,-16.8742 195.066,-22.3417 196.494,-15.4891"/>
</g>
<!-- Node13 -->
<g id="node14" class="node"><title>Node13</title>
<polygon fill="white" stroke="#bfbfbf" points="204.086,-0.5 204.086,-18.5 294.027,-18.5 294.027,-0.5 204.086,-0.5"/>
<text text-anchor="middle" x="249.057" y="-6.5" font-family="Helvetica,sans-Serif" font-size="10.00">yarp/sig/Vector.h</text>
</g>
<!-- Node9&#45;&gt;Node13 -->
<g id="edge14" class="edge"><title>Node9&#45;&gt;Node13</title>
<path fill="none" stroke="midnightblue" d="M882.667,-120.423C834.117,-105.285 724.534,-72.5887 630.057,-55 489.544,-28.8408 449.754,-37.9361 304.31,-19.0965"/>
<polygon fill="midnightblue" stroke="midnightblue" points="304.487,-15.5896 294.115,-17.7529 303.572,-22.5296 304.487,-15.5896"/>
</g>
<!-- Node14 -->
<g id="node15" class="node"><title>Node14</title>
<polygon fill="white" stroke="#bfbfbf" points="846.747,-55.5 846.747,-83.5 983.367,-83.5 983.367,-55.5 846.747,-55.5"/>
<text text-anchor="start" x="854.747" y="-71.5" font-family="Helvetica,sans-Serif" font-size="10.00">yarpWholeBodyInterface</text>
<text text-anchor="middle" x="915.057" y="-61.5" font-family="Helvetica,sans-Serif" font-size="10.00">/yarpWholeBodyInterface.h</text>
</g>
<!-- Node9&#45;&gt;Node14 -->
<g id="edge17" class="edge"><title>Node9&#45;&gt;Node14</title>
<path fill="none" stroke="midnightblue" d="M909.03,-120.435C909.86,-113.56 911.095,-103.324 912.232,-93.9057"/>
<polygon fill="midnightblue" stroke="midnightblue" points="915.723,-94.1901 913.446,-83.8428 908.773,-93.3513 915.723,-94.1901"/>
</g>
<!-- Node9&#45;&gt;Node15 -->
<g id="edge18" class="edge"><title>Node9&#45;&gt;Node15</title>
<path fill="none" stroke="midnightblue" d="M934.058,-120.435C966.623,-110.335 1022.58,-92.9798 1059.2,-81.6227"/>
<polygon fill="midnightblue" stroke="midnightblue" points="1060.46,-84.8948 1068.98,-78.5894 1058.39,-78.209 1060.46,-84.8948"/>
</g>
<!-- Node15&#45;&gt;Node2 -->
<g id="edge39" class="edge"><title>Node15&#45;&gt;Node2</title>
<path fill="none" stroke="midnightblue" d="M1145.62,-67.6298C1341.54,-64.0735 2051.66,-49.4266 2299.09,-18.8183"/>
<polygon fill="midnightblue" stroke="midnightblue" points="2299.63,-22.2772 2309.11,-17.5363 2298.74,-15.3338 2299.63,-22.2772"/>
</g>
<!-- Node15&#45;&gt;Node4 -->
<g id="edge41" class="edge"><title>Node15&#45;&gt;Node4</title>
<path fill="none" stroke="midnightblue" d="M1145.59,-67.5482C1349.21,-63.5601 2110.82,-47.135 2374.01,-19.0368"/>
<polygon fill="midnightblue" stroke="midnightblue" points="2374.73,-22.4785 2384.29,-17.9044 2373.96,-15.5206 2374.73,-22.4785"/>
</g>
<!-- Node15&#45;&gt;Node6 -->
<g id="edge19" class="edge"><title>Node15&#45;&gt;Node6</title>
<path fill="none" stroke="midnightblue" d="M1044.6,-60.9483C1027.91,-58.7012 1009.22,-56.4534 992.057,-55 582.771,-20.3382 472.946,-75.2482 62.3851,-18.8698"/>
<polygon fill="midnightblue" stroke="midnightblue" points="62.7075,-15.3811 52.3215,-17.4739 61.7457,-22.3147 62.7075,-15.3811"/>
</g>
<!-- Node15&#45;&gt;Node7 -->
<g id="edge40" class="edge"><title>Node15&#45;&gt;Node7</title>
<path fill="none" stroke="midnightblue" d="M1061.67,-60.4806C1051.86,-58.3895 1041.07,-56.3473 1031.06,-55 767.79,-19.587 696.425,-44.6538 428.485,-19.0586"/>
<polygon fill="midnightblue" stroke="midnightblue" points="428.752,-15.5681 418.46,-18.0862 428.076,-22.5354 428.752,-15.5681"/>
</g>
<!-- Node15&#45;&gt;Node8 -->
<g id="edge34" class="edge"><title>Node15&#45;&gt;Node8</title>
<path fill="none" stroke="midnightblue" d="M1145.4,-67.1309C1330.71,-61.9575 1975.42,-42.7379 2204.35,-18.8684"/>
<polygon fill="midnightblue" stroke="midnightblue" points="2205.04,-22.3145 2214.61,-17.7645 2204.29,-15.3546 2205.04,-22.3145"/>
</g>
<!-- Node15&#45;&gt;Node10 -->
<g id="edge21" class="edge"><title>Node15&#45;&gt;Node10</title>
<path fill="none" stroke="midnightblue" d="M1044.6,-60.9811C1027.91,-58.736 1009.22,-56.4812 992.057,-55 614.705,-22.4277 513.371,-70.2834 134.614,-18.9294"/>
<polygon fill="midnightblue" stroke="midnightblue" points="134.855,-15.4299 124.473,-17.5398 133.905,-22.3651 134.855,-15.4299"/>
</g>
<!-- Node15&#45;&gt;Node12 -->
<g id="edge23" class="edge"><title>Node15&#45;&gt;Node12</title>
<path fill="none" stroke="midnightblue" d="M1044.6,-61.014C1027.9,-58.771 1009.21,-56.5091 992.057,-55 642.114,-24.2199 547.071,-73.297 195.874,-18.7092"/>
<polygon fill="midnightblue" stroke="midnightblue" points="196.363,-15.2431 185.94,-17.1483 195.276,-22.1582 196.363,-15.2431"/>
</g>
<!-- Node15&#45;&gt;Node13 -->
<g id="edge37" class="edge"><title>Node15&#45;&gt;Node13</title>
<path fill="none" stroke="midnightblue" d="M1044.59,-61.0854C1027.9,-58.8469 1009.21,-56.5697 992.057,-55 689.973,-27.354 609.751,-50.3772 304.128,-18.9893"/>
<polygon fill="midnightblue" stroke="midnightblue" points="304.4,-15.4987 294.092,-17.9474 303.677,-22.4613 304.4,-15.4987"/>
</g>
<!-- Node16 -->
<g id="node17" class="node"><title>Node16</title>
<polygon fill="white" stroke="#bfbfbf" points="436.441,-0.5 436.441,-18.5 479.672,-18.5 479.672,-0.5 436.441,-0.5"/>
<text text-anchor="middle" x="458.057" y="-6.5" font-family="Helvetica,sans-Serif" font-size="10.00">cmath</text>
</g>
<!-- Node15&#45;&gt;Node16 -->
<g id="edge20" class="edge"><title>Node15&#45;&gt;Node16</title>
<path fill="none" stroke="midnightblue" d="M1061.33,-60.4535C1051.61,-58.3878 1040.96,-56.3658 1031.06,-55 795.172,-22.4545 728.923,-58.1209 489.986,-18.7695"/>
<polygon fill="midnightblue" stroke="midnightblue" points="490.391,-15.2885 479.95,-17.0895 489.235,-22.1925 490.391,-15.2885"/>
</g>
<!-- Node17 -->
<g id="node18" class="node"><title>Node17</title>
<polygon fill="white" stroke="#bfbfbf" points="497.83,-0.5 497.83,-18.5 538.283,-18.5 538.283,-0.5 497.83,-0.5"/>
<text text-anchor="middle" x="518.057" y="-6.5" font-family="Helvetica,sans-Serif" font-size="10.00">string</text>
</g>
<!-- Node15&#45;&gt;Node17 -->
<g id="edge22" class="edge"><title>Node15&#45;&gt;Node17</title>
<path fill="none" stroke="midnightblue" d="M1061,-60.4338C1051.36,-58.3931 1040.84,-56.389 1031.06,-55 820.727,-25.1311 761.087,-56.569 548.438,-18.867"/>
<polygon fill="midnightblue" stroke="midnightblue" points="548.986,-15.4095 538.523,-17.0792 547.743,-22.2984 548.986,-15.4095"/>
</g>
<!-- Node18 -->
<g id="node19" class="node"><title>Node18</title>
<polygon fill="white" stroke="#bfbfbf" points="556.276,-0.5 556.276,-18.5 607.837,-18.5 607.837,-0.5 556.276,-0.5"/>
<text text-anchor="middle" x="582.057" y="-6.5" font-family="Helvetica,sans-Serif" font-size="10.00">sstream</text>
</g>
<!-- Node15&#45;&gt;Node18 -->
<g id="edge24" class="edge"><title>Node15&#45;&gt;Node18</title>
<path fill="none" stroke="midnightblue" d="M1060.65,-60.4433C1051.11,-58.4273 1040.72,-56.4334 1031.06,-55 851.574,-28.3668 801.084,-48.1563 617.921,-18.8735"/>
<polygon fill="midnightblue" stroke="midnightblue" points="618.393,-15.4042 607.961,-17.2539 617.269,-22.3135 618.393,-15.4042"/>
</g>
<!-- Node19 -->
<g id="node20" class="node"><title>Node19</title>
<polygon fill="white" stroke="#bfbfbf" points="626.118,-0.5 626.118,-18.5 741.996,-18.5 741.996,-0.5 626.118,-0.5"/>
<text text-anchor="middle" x="684.057" y="-6.5" font-family="Helvetica,sans-Serif" font-size="10.00">yarp/os/BufferedPort.h</text>
</g>
<!-- Node15&#45;&gt;Node19 -->
<g id="edge25" class="edge"><title>Node15&#45;&gt;Node19</title>
<path fill="none" stroke="midnightblue" d="M1059.61,-60.4927C1050.34,-58.5456 1040.35,-56.5734 1031.06,-55 1024.24,-53.8452 851.276,-31.7832 752.176,-19.166"/>
<polygon fill="midnightblue" stroke="midnightblue" points="752.599,-15.6916 742.237,-17.9007 751.715,-22.6356 752.599,-15.6916"/>
</g>
<!-- Node20 -->
<g id="node21" class="node"><title>Node20</title>
<polygon fill="white" stroke="#bfbfbf" points="760.315,-0.5 760.315,-18.5 845.798,-18.5 845.798,-0.5 760.315,-0.5"/>
<text text-anchor="middle" x="803.057" y="-6.5" font-family="Helvetica,sans-Serif" font-size="10.00">yarp/os/Bottle.h</text>
</g>
<!-- Node15&#45;&gt;Node20 -->
<g id="edge26" class="edge"><title>Node15&#45;&gt;Node20</title>
<path fill="none" stroke="midnightblue" d="M1057.51,-60.4812C1048.83,-58.6545 1039.63,-56.7399 1031.06,-55 970.795,-42.7643 901.44,-29.3184 855.198,-20.4441"/>
<polygon fill="midnightblue" stroke="midnightblue" points="855.597,-16.9569 845.117,-18.5115 854.279,-23.8317 855.597,-16.9569"/>
</g>
<!-- Node21 -->
<g id="node22" class="node"><title>Node21</title>
<polygon fill="white" stroke="#bfbfbf" points="863.697,-0.5 863.697,-18.5 976.416,-18.5 976.416,-0.5 863.697,-0.5"/>
<text text-anchor="middle" x="920.057" y="-6.5" font-family="Helvetica,sans-Serif" font-size="10.00">yarp/os/RateThread.h</text>
</g>
<!-- Node15&#45;&gt;Node21 -->
<g id="edge27" class="edge"><title>Node15&#45;&gt;Node21</title>
<path fill="none" stroke="midnightblue" d="M1070.72,-60.4353C1040.38,-50.3782 988.331,-33.128 954.057,-21.7686"/>
<polygon fill="midnightblue" stroke="midnightblue" points="955.058,-18.4132 944.464,-18.5894 952.856,-25.0578 955.058,-18.4132"/>
</g>
<!-- Node22 -->
<g id="node23" class="node"><title>Node22</title>
<polygon fill="white" stroke="#bfbfbf" points="994.803,-0.5 994.803,-18.5 1125.31,-18.5 1125.31,-0.5 994.803,-0.5"/>
<text text-anchor="middle" x="1060.06" y="-6.5" font-family="Helvetica,sans-Serif" font-size="10.00">yarp/os/ResourceFinder.h</text>
</g>
<!-- Node15&#45;&gt;Node22 -->
<g id="edge28" class="edge"><title>Node15&#45;&gt;Node22</title>
<path fill="none" stroke="midnightblue" d="M1090.19,-60.4353C1085.08,-51.9611 1076.88,-38.38 1070.33,-27.5192"/>
<polygon fill="midnightblue" stroke="midnightblue" points="1073.27,-25.6253 1065.11,-18.8718 1067.28,-29.242 1073.27,-25.6253"/>
</g>
<!-- Node23 -->
<g id="node24" class="node"><title>Node23</title>
<polygon fill="white" stroke="#bfbfbf" points="1143.81,-0.5 1143.81,-18.5 1254.31,-18.5 1254.31,-0.5 1143.81,-0.5"/>
<text text-anchor="middle" x="1199.06" y="-6.5" font-family="Helvetica,sans-Serif" font-size="10.00">yarp/os/PortReader.h</text>
</g>
<!-- Node15&#45;&gt;Node23 -->
<g id="edge29" class="edge"><title>Node15&#45;&gt;Node23</title>
<path fill="none" stroke="midnightblue" d="M1109.52,-60.4353C1126.57,-50.923 1155.17,-34.9759 1175.45,-23.6645"/>
<polygon fill="midnightblue" stroke="midnightblue" points="1177.35,-26.6106 1184.38,-18.6831 1173.95,-20.4971 1177.35,-26.6106"/>
</g>
<!-- Node24 -->
<g id="node25" class="node"><title>Node24</title>
<polygon fill="white" stroke="#bfbfbf" points="1272.43,-0.5 1272.43,-18.5 1375.69,-18.5 1375.69,-0.5 1272.43,-0.5"/>
<text text-anchor="middle" x="1324.06" y="-6.5" font-family="Helvetica,sans-Serif" font-size="10.00">yarp/os/RpcClient.h</text>
</g>
<!-- Node15&#45;&gt;Node24 -->
<g id="edge30" class="edge"><title>Node15&#45;&gt;Node24</title>
<path fill="none" stroke="midnightblue" d="M1126.9,-60.4353C1167.46,-50.1624 1237.65,-32.3844 1282.42,-21.0456"/>
<polygon fill="midnightblue" stroke="midnightblue" points="1283.28,-24.4376 1292.12,-18.5894 1281.56,-17.6519 1283.28,-24.4376"/>
</g>
<!-- Node25 -->
<g id="node26" class="node"><title>Node25</title>
<polygon fill="white" stroke="#bfbfbf" points="1393.76,-0.5 1393.76,-18.5 1500.36,-18.5 1500.36,-0.5 1393.76,-0.5"/>
<text text-anchor="middle" x="1447.06" y="-6.5" font-family="Helvetica,sans-Serif" font-size="10.00">yarp/os/RpcServer.h</text>
</g>
<!-- Node15&#45;&gt;Node25 -->
<g id="edge31" class="edge"><title>Node15&#45;&gt;Node25</title>
<path fill="none" stroke="midnightblue" d="M1143.63,-60.4962C1207.49,-49.9734 1319.6,-31.501 1388.21,-20.1969"/>
<polygon fill="midnightblue" stroke="midnightblue" points="1389.12,-23.594 1398.42,-18.5147 1387.98,-16.6871 1389.12,-23.594"/>
</g>
<!-- Node26 -->
<g id="node27" class="node"><title>Node26</title>
<polygon fill="white" stroke="#bfbfbf" points="1518.68,-0.5 1518.68,-18.5 1661.43,-18.5 1661.43,-0.5 1518.68,-0.5"/>
<text text-anchor="middle" x="1590.06" y="-6.5" font-family="Helvetica,sans-Serif" font-size="10.00">yarp/os/ConnectionReader.h</text>
</g>
<!-- Node15&#45;&gt;Node26 -->
<g id="edge32" class="edge"><title>Node15&#45;&gt;Node26</title>
<path fill="none" stroke="midnightblue" d="M1145.7,-62.5656C1232.15,-52.4369 1408.75,-31.7443 1511.37,-19.7196"/>
<polygon fill="midnightblue" stroke="midnightblue" points="1511.85,-23.188 1521.37,-18.5479 1511.03,-16.2355 1511.85,-23.188"/>
</g>
<!-- Node27 -->
<g id="node28" class="node"><title>Node27</title>
<polygon fill="white" stroke="#bfbfbf" points="1679.17,-0.5 1679.17,-18.5 1760.94,-18.5 1760.94,-0.5 1679.17,-0.5"/>
<text text-anchor="middle" x="1720.06" y="-6.5" font-family="Helvetica,sans-Serif" font-size="10.00">yarp/os/Time.h</text>
</g>
<!-- Node15&#45;&gt;Node27 -->
<g id="edge33" class="edge"><title>Node15&#45;&gt;Node27</title>
<path fill="none" stroke="midnightblue" d="M1145.58,-65.5566C1244.19,-59.5071 1469.36,-44.1968 1669.08,-19.0174"/>
<polygon fill="midnightblue" stroke="midnightblue" points="1669.69,-22.4676 1679.17,-17.7337 1668.81,-15.5235 1669.69,-22.4676"/>
</g>
<!-- Node28 -->
<g id="node29" class="node"><title>Node28</title>
<polygon fill="white" stroke="#bfbfbf" points="1778.64,-0.5 1778.64,-18.5 1887.47,-18.5 1887.47,-0.5 1778.64,-0.5"/>
<text text-anchor="middle" x="1833.06" y="-6.5" font-family="Helvetica,sans-Serif" font-size="10.00">yarp/os/LogStream.h</text>
</g>
<!-- Node15&#45;&gt;Node28 -->
<g id="edge35" class="edge"><title>Node15&#45;&gt;Node28</title>
<path fill="none" stroke="midnightblue" d="M1145.53,-65.8523C1256.32,-59.8133 1529.31,-43.6902 1768.17,-19.1384"/>
<polygon fill="midnightblue" stroke="midnightblue" points="1768.86,-22.5864 1778.45,-18.0753 1768.14,-15.6236 1768.86,-22.5864"/>
</g>
<!-- Node29 -->
<g id="node30" class="node"><title>Node29</title>
<polygon fill="white" stroke="#bfbfbf" points="1905.57,-0.5 1905.57,-18.5 2002.54,-18.5 2002.54,-0.5 1905.57,-0.5"/>
<text text-anchor="middle" x="1954.06" y="-6.5" font-family="Helvetica,sans-Serif" font-size="10.00">yarp/os/Property.h</text>
</g>
<!-- Node15&#45;&gt;Node29 -->
<g id="edge36" class="edge"><title>Node15&#45;&gt;Node29</title>
<path fill="none" stroke="midnightblue" d="M1145.32,-66.8579C1270.25,-62.4624 1605.04,-48.7607 1895.06,-19.0041"/>
<polygon fill="midnightblue" stroke="midnightblue" points="1895.77,-22.4494 1905.36,-17.9388 1895.05,-15.4865 1895.77,-22.4494"/>
</g>
<!-- Node30 -->
<g id="node31" class="node"><title>Node30</title>
<polygon fill="white" stroke="#bfbfbf" points="2020.38,-0.5 2020.38,-18.5 2109.73,-18.5 2109.73,-0.5 2020.38,-0.5"/>
<text text-anchor="middle" x="2065.06" y="-6.5" font-family="Helvetica,sans-Serif" font-size="10.00">yarp/sig/Matrix.h</text>
</g>
<!-- Node15&#45;&gt;Node30 -->
<g id="edge38" class="edge"><title>Node15&#45;&gt;Node30</title>
<path fill="none" stroke="midnightblue" d="M1145.34,-67.5851C1282.35,-64.7076 1673.88,-53.9197 2009.89,-18.9965"/>
<polygon fill="midnightblue" stroke="midnightblue" points="2010.73,-22.4272 2020.31,-17.9033 2010,-15.4654 2010.73,-22.4272"/>
</g>
<!-- Node31 -->
<g id="node32" class="node"><title>Node31</title>
<polygon fill="white" stroke="#bfbfbf" points="2127.65,-0.5 2127.65,-18.5 2196.46,-18.5 2196.46,-0.5 2127.65,-0.5"/>
<text text-anchor="middle" x="2162.06" y="-6.5" font-family="Helvetica,sans-Serif" font-size="10.00">Eigen/Lgsm</text>
</g>
<!-- Node15&#45;&gt;Node31 -->
<g id="edge42" class="edge"><title>Node15&#45;&gt;Node31</title>
<path fill="none" stroke="midnightblue" d="M1145.46,-67.0455C1321.31,-61.8194 1907.94,-43.0807 2117.41,-18.9937"/>
<polygon fill="midnightblue" stroke="midnightblue" points="2117.88,-22.4627 2127.39,-17.806 2117.05,-15.5118 2117.88,-22.4627"/>
</g>
</g>
</svg>
