<?xml version="1.0" encoding="UTF-8" standalone="no"?>
<!DOCTYPE svg PUBLIC "-//W3C//DTD SVG 1.1//EN"
 "http://www.w3.org/Graphics/SVG/1.1/DTD/svg11.dtd">
<!-- Generated by graphviz version 2.38.0 (20140413.2041)
 -->
<!-- Title: /Users/jorhabibeljaik/Code/codyco&#45;superbuild/main/ocra&#45;wbi&#45;plugins/ocra&#45;icub&#45;server/include/ocra&#45;icub&#45;server/IcubControllerServer.h Pages: 1 -->
<svg width="510pt" height="342pt"
 viewBox="0.00 0.00 510.32 342.00" xmlns="http://www.w3.org/2000/svg" xmlns:xlink="http://www.w3.org/1999/xlink">
<g id="graph0" class="graph" transform="scale(1 1) rotate(0) translate(4 338)">
<title>/Users/jorhabibeljaik/Code/codyco&#45;superbuild/main/ocra&#45;wbi&#45;plugins/ocra&#45;icub&#45;server/include/ocra&#45;icub&#45;server/IcubControllerServer.h</title>
<polygon fill="white" stroke="none" points="-4,4 -4,-338 506.32,-338 506.32,4 -4,4"/>
<!-- Node34 -->
<g id="node1" class="node"><title>Node34</title>
<polygon fill="#bfbfbf" stroke="black" points="233.594,-275.5 233.594,-333.5 426.889,-333.5 426.889,-275.5 233.594,-275.5"/>
<text text-anchor="start" x="241.594" y="-321.5" font-family="Helvetica,sans-Serif" font-size="10.00">/Users/jorhabibeljaik</text>
<text text-anchor="start" x="241.594" y="-311.5" font-family="Helvetica,sans-Serif" font-size="10.00">/Code/codyco&#45;superbuild</text>
<text text-anchor="start" x="241.594" y="-301.5" font-family="Helvetica,sans-Serif" font-size="10.00">/main/ocra&#45;wbi&#45;plugins</text>
<text text-anchor="start" x="241.594" y="-291.5" font-family="Helvetica,sans-Serif" font-size="10.00">/ocra&#45;icub&#45;server/include</text>
<text text-anchor="middle" x="330.241" y="-281.5" font-family="Helvetica,sans-Serif" font-size="10.00">/ocra&#45;icub&#45;server/IcubControllerServer.h</text>
</g>
<!-- Node35 -->
<g id="node2" class="node"><title>Node35</title>
<g id="a_node2"><a xlink:href="Thread_8h.html" target="_top" xlink:title="The thread class for the controller server. ">
<polygon fill="white" stroke="black" points="178.33,-180.5 178.33,-238.5 312.152,-238.5 312.152,-180.5 178.33,-180.5"/>
<text text-anchor="start" x="186.33" y="-226.5" font-family="Helvetica,sans-Serif" font-size="10.00">/Users/jorhabibeljaik</text>
<text text-anchor="start" x="186.33" y="-216.5" font-family="Helvetica,sans-Serif" font-size="10.00">/Code/codyco&#45;superbuild</text>
<text text-anchor="start" x="186.33" y="-206.5" font-family="Helvetica,sans-Serif" font-size="10.00">/main/ocra&#45;wbi&#45;plugins</text>
<text text-anchor="start" x="186.33" y="-196.5" font-family="Helvetica,sans-Serif" font-size="10.00">/ocra&#45;icub&#45;server/include</text>
<text text-anchor="middle" x="245.241" y="-186.5" font-family="Helvetica,sans-Serif" font-size="10.00">/ocra&#45;icub&#45;server/Thread.h</text>
</a>
</g>
</g>
<!-- Node34&#45;&gt;Node35 -->
<g id="edge1" class="edge"><title>Node34&#45;&gt;Node35</title>
<path fill="none" stroke="midnightblue" d="M297.575,-267.759C288.731,-258.083 279.285,-247.748 270.887,-238.56"/>
<polygon fill="midnightblue" stroke="midnightblue" points="295.178,-270.324 304.508,-275.345 300.345,-265.602 295.178,-270.324"/>
</g>
<!-- Node40 -->
<g id="node7" class="node"><title>Node40</title>
<g id="a_node7"><a xlink:href="IcubControllerServer_8cpp.html" target="_top" xlink:title="/Users/jorhabibeljaik\l/Code/codyco&#45;superbuild\l/main/ocra&#45;wbi&#45;plugins\l/ocra&#45;icub&#45;server/src/IcubController\lServer.cpp">
<polygon fill="white" stroke="black" points="330.163,-180.5 330.163,-238.5 502.32,-238.5 502.32,-180.5 330.163,-180.5"/>
<text text-anchor="start" x="338.163" y="-226.5" font-family="Helvetica,sans-Serif" font-size="10.00">/Users/jorhabibeljaik</text>
<text text-anchor="start" x="338.163" y="-216.5" font-family="Helvetica,sans-Serif" font-size="10.00">/Code/codyco&#45;superbuild</text>
<text text-anchor="start" x="338.163" y="-206.5" font-family="Helvetica,sans-Serif" font-size="10.00">/main/ocra&#45;wbi&#45;plugins</text>
<text text-anchor="start" x="338.163" y="-196.5" font-family="Helvetica,sans-Serif" font-size="10.00">/ocra&#45;icub&#45;server/src/IcubController</text>
<text text-anchor="middle" x="416.241" y="-186.5" font-family="Helvetica,sans-Serif" font-size="10.00">Server.cpp</text>
</a>
</g>
</g>
<!-- Node34&#45;&gt;Node40 -->
<g id="edge6" class="edge"><title>Node34&#45;&gt;Node40</title>
<path fill="none" stroke="midnightblue" d="M363.292,-267.759C372.24,-258.083 381.797,-247.748 390.293,-238.56"/>
<polygon fill="midnightblue" stroke="midnightblue" points="360.497,-265.626 356.277,-275.345 365.637,-270.379 360.497,-265.626"/>
</g>
<!-- Node36 -->
<g id="node3" class="node"><title>Node36</title>
<g id="a_node3"><a xlink:href="Module_8h.html" target="_top" xlink:title="Module class for the controller server. ">
<polygon fill="white" stroke="black" points="94.7734,-85.5 94.7734,-143.5 229.709,-143.5 229.709,-85.5 94.7734,-85.5"/>
<text text-anchor="start" x="102.773" y="-131.5" font-family="Helvetica,sans-Serif" font-size="10.00">/Users/jorhabibeljaik</text>
<text text-anchor="start" x="102.773" y="-121.5" font-family="Helvetica,sans-Serif" font-size="10.00">/Code/codyco&#45;superbuild</text>
<text text-anchor="start" x="102.773" y="-111.5" font-family="Helvetica,sans-Serif" font-size="10.00">/main/ocra&#45;wbi&#45;plugins</text>
<text text-anchor="start" x="102.773" y="-101.5" font-family="Helvetica,sans-Serif" font-size="10.00">/ocra&#45;icub&#45;server/include</text>
<text text-anchor="middle" x="162.241" y="-91.5" font-family="Helvetica,sans-Serif" font-size="10.00">/ocra&#45;icub&#45;server/Module.h</text>
</a>
</g>
</g>
<!-- Node35&#45;&gt;Node36 -->
<g id="edge2" class="edge"><title>Node35&#45;&gt;Node36</title>
<path fill="none" stroke="midnightblue" d="M213.344,-172.759C204.707,-163.083 195.484,-152.748 187.284,-143.56"/>
<polygon fill="midnightblue" stroke="midnightblue" points="210.843,-175.214 220.113,-180.345 216.066,-170.553 210.843,-175.214"/>
</g>
<!-- Node39 -->
<g id="node6" class="node"><title>Node39</title>
<g id="a_node6"><a xlink:href="Thread_8cpp.html" target="_top" xlink:title="The thread class for the controller server. ">
<polygon fill="white" stroke="black" points="247.995,-90.5 247.995,-138.5 408.487,-138.5 408.487,-90.5 247.995,-90.5"/>
<text text-anchor="start" x="255.995" y="-126.5" font-family="Helvetica,sans-Serif" font-size="10.00">/Users/jorhabibeljaik</text>
<text text-anchor="start" x="255.995" y="-116.5" font-family="Helvetica,sans-Serif" font-size="10.00">/Code/codyco&#45;superbuild</text>
<text text-anchor="start" x="255.995" y="-106.5" font-family="Helvetica,sans-Serif" font-size="10.00">/main/ocra&#45;wbi&#45;plugins</text>
<text text-anchor="middle" x="328.241" y="-96.5" font-family="Helvetica,sans-Serif" font-size="10.00">/ocra&#45;icub&#45;server/src/Thread.cpp</text>
</a>
</g>
</g>
<!-- Node35&#45;&gt;Node39 -->
<g id="edge5" class="edge"><title>Node35&#45;&gt;Node39</title>
<path fill="none" stroke="midnightblue" d="M277.273,-172.609C287.478,-161.174 298.49,-148.835 307.659,-138.562"/>
<polygon fill="midnightblue" stroke="midnightblue" points="274.416,-170.553 270.369,-180.345 279.639,-175.214 274.416,-170.553"/>
</g>
<!-- Node37 -->
<g id="node4" class="node"><title>Node37</title>
<g id="a_node4"><a xlink:href="ocra-icub-server_2src_2main_8cpp.html" target="_top" xlink:title="/Users/jorhabibeljaik\l/Code/codyco&#45;superbuild\l/main/ocra&#45;wbi&#45;plugins\l/ocra&#45;icub&#45;server/src/main.cpp">
<polygon fill="white" stroke="black" points="0,-0.5 0,-48.5 150.482,-48.5 150.482,-0.5 0,-0.5"/>
<text text-anchor="start" x="8" y="-36.5" font-family="Helvetica,sans-Serif" font-size="10.00">/Users/jorhabibeljaik</text>
<text text-anchor="start" x="8" y="-26.5" font-family="Helvetica,sans-Serif" font-size="10.00">/Code/codyco&#45;superbuild</text>
<text text-anchor="start" x="8" y="-16.5" font-family="Helvetica,sans-Serif" font-size="10.00">/main/ocra&#45;wbi&#45;plugins</text>
<text text-anchor="middle" x="75.2412" y="-6.5" font-family="Helvetica,sans-Serif" font-size="10.00">/ocra&#45;icub&#45;server/src/main.cpp</text>
</a>
</g>
</g>
<!-- Node36&#45;&gt;Node37 -->
<g id="edge3" class="edge"><title>Node36&#45;&gt;Node37</title>
<path fill="none" stroke="midnightblue" d="M126.975,-77.8285C117.294,-68.0359 107.048,-57.672 98.2506,-48.7739"/>
<polygon fill="midnightblue" stroke="midnightblue" points="124.715,-80.5212 134.235,-85.1719 129.693,-75.5998 124.715,-80.5212"/>
</g>
<!-- Node38 -->
<g id="node5" class="node"><title>Node38</title>
<g id="a_node5"><a xlink:href="Module_8cpp.html" target="_top" xlink:title="/Users/jorhabibeljaik\l/Code/codyco&#45;superbuild\l/main/ocra&#45;wbi&#45;plugins\l/ocra&#45;icub&#45;server/src/Module.cpp">
<polygon fill="white" stroke="black" points="168.438,-0.5 168.438,-48.5 330.044,-48.5 330.044,-0.5 168.438,-0.5"/>
<text text-anchor="start" x="176.438" y="-36.5" font-family="Helvetica,sans-Serif" font-size="10.00">/Users/jorhabibeljaik</text>
<text text-anchor="start" x="176.438" y="-26.5" font-family="Helvetica,sans-Serif" font-size="10.00">/Code/codyco&#45;superbuild</text>
<text text-anchor="start" x="176.438" y="-16.5" font-family="Helvetica,sans-Serif" font-size="10.00">/main/ocra&#45;wbi&#45;plugins</text>
<text text-anchor="middle" x="249.241" y="-6.5" font-family="Helvetica,sans-Serif" font-size="10.00">/ocra&#45;icub&#45;server/src/Module.cpp</text>
</a>
</g>
</g>
<!-- Node36&#45;&gt;Node38 -->
<g id="edge4" class="edge"><title>Node36&#45;&gt;Node38</title>
<path fill="none" stroke="midnightblue" d="M197.507,-77.8285C207.189,-68.0359 217.435,-57.672 226.232,-48.7739"/>
<polygon fill="midnightblue" stroke="midnightblue" points="194.789,-75.5998 190.247,-85.1719 199.767,-80.5212 194.789,-75.5998"/>
</g>
</g>
</svg>
