<?xml version="1.0" encoding="UTF-8" standalone="no"?>
<!DOCTYPE svg PUBLIC "-//W3C//DTD SVG 1.1//EN"
 "http://www.w3.org/Graphics/SVG/1.1/DTD/svg11.dtd">
<!-- Generated by graphviz version 2.38.0 (20140413.2041)
 -->
<!-- Title: /Users/jorhabibeljaik/Code/codyco&#45;superbuild/main/ocra&#45;wbi&#45;plugins/ocra&#45;icub&#45;server/src/IcubControllerServer.cpp Pages: 1 -->
<svg width="2993pt" height="372pt"
 viewBox="0.00 0.00 2993.19 372.00" xmlns="http://www.w3.org/2000/svg" xmlns:xlink="http://www.w3.org/1999/xlink">
<g id="graph0" class="graph" transform="scale(1 1) rotate(0) translate(4 368)">
<title>/Users/jorhabibeljaik/Code/codyco&#45;superbuild/main/ocra&#45;wbi&#45;plugins/ocra&#45;icub&#45;server/src/IcubControllerServer.cpp</title>
<polygon fill="white" stroke="none" points="-4,4 -4,-368 2989.19,-368 2989.19,4 -4,4"/>
<!-- Node0 -->
<g id="node1" class="node"><title>Node0</title>
<polygon fill="#bfbfbf" stroke="black" points="2480.98,-305.5 2480.98,-363.5 2653.14,-363.5 2653.14,-305.5 2480.98,-305.5"/>
<text text-anchor="start" x="2488.98" y="-351.5" font-family="Helvetica,sans-Serif" font-size="10.00">/Users/jorhabibeljaik</text>
<text text-anchor="start" x="2488.98" y="-341.5" font-family="Helvetica,sans-Serif" font-size="10.00">/Code/codyco&#45;superbuild</text>
<text text-anchor="start" x="2488.98" y="-331.5" font-family="Helvetica,sans-Serif" font-size="10.00">/main/ocra&#45;wbi&#45;plugins</text>
<text text-anchor="start" x="2488.98" y="-321.5" font-family="Helvetica,sans-Serif" font-size="10.00">/ocra&#45;icub&#45;server/src/IcubController</text>
<text text-anchor="middle" x="2567.06" y="-311.5" font-family="Helvetica,sans-Serif" font-size="10.00">Server.cpp</text>
</g>
<!-- Node1 -->
<g id="node2" class="node"><title>Node1</title>
<g id="a_node2"><a xlink:href="IcubControllerServer_8h.html" target="_top" xlink:title="ocra&#45;icub&#45;server/IcubController\lServer.h">
<polygon fill="white" stroke="black" points="2490.42,-240.5 2490.42,-268.5 2643.69,-268.5 2643.69,-240.5 2490.42,-240.5"/>
<text text-anchor="start" x="2498.42" y="-256.5" font-family="Helvetica,sans-Serif" font-size="10.00">ocra&#45;icub&#45;server/IcubController</text>
<text text-anchor="middle" x="2567.06" y="-246.5" font-family="Helvetica,sans-Serif" font-size="10.00">Server.h</text>
</a>
</g>
</g>
<!-- Node0&#45;&gt;Node1 -->
<g id="edge1" class="edge"><title>Node0&#45;&gt;Node1</title>
<path fill="none" stroke="midnightblue" d="M2567.06,-305.34C2567.06,-296.602 2567.06,-287.075 2567.06,-278.713"/>
<polygon fill="midnightblue" stroke="midnightblue" points="2570.56,-278.555 2567.06,-268.555 2563.56,-278.555 2570.56,-278.555"/>
</g>
<!-- Node2 -->
<g id="node3" class="node"><title>Node2</title>
<polygon fill="white" stroke="#bfbfbf" points="2448.49,-0.5 2448.49,-18.5 2505.62,-18.5 2505.62,-0.5 2448.49,-0.5"/>
<text text-anchor="middle" x="2477.06" y="-6.5" font-family="Helvetica,sans-Serif" font-size="10.00">wbi/wbi.h</text>
</g>
<!-- Node1&#45;&gt;Node2 -->
<g id="edge2" class="edge"><title>Node1&#45;&gt;Node2</title>
<path fill="none" stroke="midnightblue" d="M2552.25,-240.134C2542.85,-230.866 2531.16,-217.755 2524.06,-204 2493.41,-144.669 2482.25,-64.7064 2478.62,-29.027"/>
<polygon fill="midnightblue" stroke="midnightblue" points="2482.07,-28.3507 2477.66,-18.7184 2475.11,-28.9999 2482.07,-28.3507"/>
</g>
<!-- Node3 -->
<g id="node4" class="node"><title>Node3</title>
<polygon fill="white" stroke="#bfbfbf" points="2542.86,-180.5 2542.86,-198.5 2697.25,-198.5 2697.25,-180.5 2542.86,-180.5"/>
<text text-anchor="middle" x="2620.06" y="-186.5" font-family="Helvetica,sans-Serif" font-size="10.00">ocra&#45;recipes/ControllerServer.h</text>
</g>
<!-- Node1&#45;&gt;Node3 -->
<g id="edge3" class="edge"><title>Node1&#45;&gt;Node3</title>
<path fill="none" stroke="midnightblue" d="M2578.04,-240.446C2586.28,-230.648 2597.62,-217.172 2606.44,-206.687"/>
<polygon fill="midnightblue" stroke="midnightblue" points="2609.37,-208.636 2613.13,-198.73 2604.02,-204.129 2609.37,-208.636"/>
</g>
<!-- Node4 -->
<g id="node5" class="node"><title>Node4</title>
<polygon fill="white" stroke="#bfbfbf" points="2523.43,-0.5 2523.43,-18.5 2596.69,-18.5 2596.69,-0.5 2523.43,-0.5"/>
<text text-anchor="middle" x="2560.06" y="-6.5" font-family="Helvetica,sans-Serif" font-size="10.00">Eigen/Dense</text>
</g>
<!-- Node1&#45;&gt;Node4 -->
<g id="edge4" class="edge"><title>Node1&#45;&gt;Node4</title>
<path fill="none" stroke="midnightblue" d="M2555.12,-240.34C2547.45,-230.96 2538.19,-217.642 2534.06,-204 2515.09,-141.355 2539.53,-63.1206 2552.68,-28.4581"/>
<polygon fill="midnightblue" stroke="midnightblue" points="2556.08,-29.3969 2556.49,-18.8101 2549.56,-26.8286 2556.08,-29.3969"/>
</g>
<!-- Node5 -->
<g id="node6" class="node"><title>Node5</title>
<g id="a_node6"><a xlink:href="OcraWbiModel_8h.html" target="_top" xlink:title="Implementation of ocra::Model using wholeBodyInterface. ">
<polygon fill="white" stroke="black" points="1079.87,-180.5 1079.87,-198.5 1214.24,-198.5 1214.24,-180.5 1079.87,-180.5"/>
<text text-anchor="middle" x="1147.06" y="-186.5" font-family="Helvetica,sans-Serif" font-size="10.00">ocra&#45;icub/OcraWbiModel.h</text>
</a>
</g>
</g>
<!-- Node1&#45;&gt;Node5 -->
<g id="edge5" class="edge"><title>Node1&#45;&gt;Node5</title>
<path fill="none" stroke="midnightblue" d="M2490.21,-250.091C2243.32,-239.137 1472.07,-204.92 1224.44,-193.933"/>
<polygon fill="midnightblue" stroke="midnightblue" points="1224.59,-190.436 1214.44,-193.49 1224.28,-197.43 1224.59,-190.436"/>
</g>
<!-- Node33 -->
<g id="node34" class="node"><title>Node33</title>
<polygon fill="white" stroke="#bfbfbf" points="2714.95,-175.5 2714.95,-203.5 2849.17,-203.5 2849.17,-175.5 2714.95,-175.5"/>
<text text-anchor="start" x="2722.95" y="-191.5" font-family="Helvetica,sans-Serif" font-size="10.00">iDynTree/Estimation</text>
<text text-anchor="middle" x="2782.06" y="-181.5" font-family="Helvetica,sans-Serif" font-size="10.00">/SimpleLeggedOdometry.h</text>
</g>
<!-- Node1&#45;&gt;Node33 -->
<g id="edge45" class="edge"><title>Node1&#45;&gt;Node33</title>
<path fill="none" stroke="midnightblue" d="M2611.6,-240.446C2645.33,-230.563 2691.83,-216.939 2727.74,-206.417"/>
<polygon fill="midnightblue" stroke="midnightblue" points="2728.95,-209.708 2737.57,-203.537 2726.98,-202.99 2728.95,-209.708"/>
</g>
<!-- Node34 -->
<g id="node35" class="node"><title>Node34</title>
<polygon fill="white" stroke="#bfbfbf" points="2866.92,-180.5 2866.92,-198.5 2985.19,-198.5 2985.19,-180.5 2866.92,-180.5"/>
<text text-anchor="middle" x="2926.06" y="-186.5" font-family="Helvetica,sans-Serif" font-size="10.00">ocra/util/ErrorsHelper.h</text>
</g>
<!-- Node1&#45;&gt;Node34 -->
<g id="edge46" class="edge"><title>Node1&#45;&gt;Node34</title>
<path fill="none" stroke="midnightblue" d="M2643.74,-241.046C2702.48,-231.364 2785.48,-217.374 2858.06,-204 2863.97,-202.91 2870.17,-201.731 2876.31,-200.54"/>
<polygon fill="midnightblue" stroke="midnightblue" points="2877.4,-203.893 2886.54,-198.536 2876.05,-197.024 2877.4,-203.893"/>
</g>
<!-- Node5&#45;&gt;Node2 -->
<g id="edge8" class="edge"><title>Node5&#45;&gt;Node2</title>
<path fill="none" stroke="midnightblue" d="M1214.32,-181.629C1303.32,-172.439 1465.07,-155.395 1603.06,-139 1792.63,-116.476 1840.1,-111.171 2029.06,-84 2208.47,-58.2024 2256.17,-53.751 2438.54,-18.9932"/>
<polygon fill="midnightblue" stroke="midnightblue" points="2439.3,-22.4124 2448.46,-17.0981 2437.98,-15.5367 2439.3,-22.4124"/>
</g>
<!-- Node6 -->
<g id="node7" class="node"><title>Node6</title>
<polygon fill="white" stroke="#bfbfbf" points="0,-0.5 0,-18.5 52.1133,-18.5 52.1133,-0.5 0,-0.5"/>
<text text-anchor="middle" x="26.0566" y="-6.5" font-family="Helvetica,sans-Serif" font-size="10.00">memory</text>
</g>
<!-- Node5&#45;&gt;Node6 -->
<g id="edge6" class="edge"><title>Node5&#45;&gt;Node6</title>
<path fill="none" stroke="midnightblue" d="M1079.62,-183.601C934.764,-172.343 583.515,-141.107 294.057,-84 208.812,-67.1823 110.873,-37.6519 60.287,-21.6183"/>
<polygon fill="midnightblue" stroke="midnightblue" points="61.1165,-18.2092 50.5258,-18.5052 58.9895,-24.8783 61.1165,-18.2092"/>
</g>
<!-- Node7 -->
<g id="node8" class="node"><title>Node7</title>
<polygon fill="white" stroke="#bfbfbf" points="311.756,-0.5 311.756,-18.5 418.357,-18.5 418.357,-0.5 311.756,-0.5"/>
<text text-anchor="middle" x="365.057" y="-6.5" font-family="Helvetica,sans-Serif" font-size="10.00">ocra/control/Model.h</text>
</g>
<!-- Node5&#45;&gt;Node7 -->
<g id="edge7" class="edge"><title>Node5&#45;&gt;Node7</title>
<path fill="none" stroke="midnightblue" d="M1143.69,-180.25C1133.23,-155.835 1098.67,-83.8518 1044.06,-55 985.625,-24.1318 530.947,-25.4447 428.623,-18.7942"/>
<polygon fill="midnightblue" stroke="midnightblue" points="428.884,-15.304 418.641,-18.0105 428.336,-22.2825 428.884,-15.304"/>
</g>
<!-- Node8 -->
<g id="node9" class="node"><title>Node8</title>
<polygon fill="white" stroke="#bfbfbf" points="2353.76,-0.5 2353.76,-18.5 2430.35,-18.5 2430.35,-0.5 2353.76,-0.5"/>
<text text-anchor="middle" x="2392.06" y="-6.5" font-family="Helvetica,sans-Serif" font-size="10.00">yarp/os/Log.h</text>
</g>
<!-- Node5&#45;&gt;Node8 -->
<g id="edge9" class="edge"><title>Node5&#45;&gt;Node8</title>
<path fill="none" stroke="midnightblue" d="M1209.16,-180.477C1385.2,-157.571 1902.69,-89.0947 2343.49,-19.0402"/>
<polygon fill="midnightblue" stroke="midnightblue" points="2344.24,-22.4656 2353.56,-17.4372 2343.14,-15.5526 2344.24,-22.4656"/>
</g>
<!-- Node9 -->
<g id="node10" class="node"><title>Node9</title>
<g id="a_node10"><a xlink:href="OcraWbiConversions_8h.html" target="_top" xlink:title="A utility class full of static conversion functions. ">
<polygon fill="white" stroke="black" points="878.697,-120.5 878.697,-138.5 1041.42,-138.5 1041.42,-120.5 878.697,-120.5"/>
<text text-anchor="middle" x="960.057" y="-126.5" font-family="Helvetica,sans-Serif" font-size="10.00">ocra&#45;icub/OcraWbiConversions.h</text>
</a>
</g>
</g>
<!-- Node5&#45;&gt;Node9 -->
<g id="edge10" class="edge"><title>Node5&#45;&gt;Node9</title>
<path fill="none" stroke="midnightblue" d="M1121.06,-180.435C1088.49,-170.335 1032.53,-152.98 995.918,-141.623"/>
<polygon fill="midnightblue" stroke="midnightblue" points="996.726,-138.209 986.138,-138.589 994.652,-144.895 996.726,-138.209"/>
</g>
<!-- Node15 -->
<g id="node16" class="node"><title>Node15</title>
<g id="a_node16"><a xlink:href="Utilities_8h.html" target="_top" xlink:title="Some useful tools for the ocra&#45;icub lib. ">
<polygon fill="white" stroke="black" points="1096.82,-60.5 1096.82,-78.5 1197.29,-78.5 1197.29,-60.5 1096.82,-60.5"/>
<text text-anchor="middle" x="1147.06" y="-66.5" font-family="Helvetica,sans-Serif" font-size="10.00">ocra&#45;icub/Utilities.h</text>
</a>
</g>
</g>
<!-- Node5&#45;&gt;Node15 -->
<g id="edge44" class="edge"><title>Node5&#45;&gt;Node15</title>
<path fill="none" stroke="midnightblue" d="M1147.06,-180.389C1147.06,-161.611 1147.06,-114.768 1147.06,-88.7111"/>
<polygon fill="midnightblue" stroke="midnightblue" points="1150.56,-88.6673 1147.06,-78.6674 1143.56,-88.6674 1150.56,-88.6673"/>
</g>
<!-- Node9&#45;&gt;Node2 -->
<g id="edge16" class="edge"><title>Node9&#45;&gt;Node2</title>
<path fill="none" stroke="midnightblue" d="M1041.69,-126.238C1200.6,-121.449 1562.53,-108.645 1866.06,-84 2118.27,-63.5215 2184.63,-61.5274 2438.6,-18.8995"/>
<polygon fill="midnightblue" stroke="midnightblue" points="2439.21,-22.3461 2448.49,-17.2348 2438.05,-15.4431 2439.21,-22.3461"/>
</g>
<!-- Node9&#45;&gt;Node8 -->
<g id="edge15" class="edge"><title>Node9&#45;&gt;Node8</title>
<path fill="none" stroke="midnightblue" d="M1041.46,-124.804C1254.09,-114.559 1843.7,-82.3709 2343.65,-18.9145"/>
<polygon fill="midnightblue" stroke="midnightblue" points="2344.12,-22.3838 2353.59,-17.6472 2343.23,-15.44 2344.12,-22.3838"/>
</g>
<!-- Node10 -->
<g id="node11" class="node"><title>Node10</title>
<polygon fill="white" stroke="#bfbfbf" points="69.8843,-0.5 69.8843,-18.5 124.229,-18.5 124.229,-0.5 69.8843,-0.5"/>
<text text-anchor="middle" x="97.0566" y="-6.5" font-family="Helvetica,sans-Serif" font-size="10.00">iostream</text>
</g>
<!-- Node9&#45;&gt;Node10 -->
<g id="edge11" class="edge"><title>Node9&#45;&gt;Node10</title>
<path fill="none" stroke="midnightblue" d="M878.556,-124.083C778.634,-118.028 604.289,-105.392 456.057,-84 337.414,-66.8781 198.94,-35.1439 134.098,-19.5823"/>
<polygon fill="midnightblue" stroke="midnightblue" points="134.88,-16.1706 124.338,-17.2284 133.238,-22.9754 134.88,-16.1706"/>
</g>
<!-- Node11 -->
<g id="node12" class="node"><title>Node11</title>
<polygon fill="white" stroke="#bfbfbf" points="845.33,-60.5 845.33,-78.5 880.783,-78.5 880.783,-60.5 845.33,-60.5"/>
<text text-anchor="middle" x="863.057" y="-66.5" font-family="Helvetica,sans-Serif" font-size="10.00">map</text>
</g>
<!-- Node9&#45;&gt;Node11 -->
<g id="edge12" class="edge"><title>Node9&#45;&gt;Node11</title>
<path fill="none" stroke="midnightblue" d="M946.569,-120.435C930.733,-110.966 904.232,-95.1201 885.33,-83.8184"/>
<polygon fill="midnightblue" stroke="midnightblue" points="887.121,-80.8112 876.742,-78.6831 883.529,-86.8191 887.121,-80.8112"/>
</g>
<!-- Node12 -->
<g id="node13" class="node"><title>Node12</title>
<polygon fill="white" stroke="#bfbfbf" points="142.441,-0.5 142.441,-18.5 185.672,-18.5 185.672,-0.5 142.441,-0.5"/>
<text text-anchor="middle" x="164.057" y="-6.5" font-family="Helvetica,sans-Serif" font-size="10.00">vector</text>
</g>
<!-- Node9&#45;&gt;Node12 -->
<g id="edge13" class="edge"><title>Node9&#45;&gt;Node12</title>
<path fill="none" stroke="midnightblue" d="M906.002,-120.477C813.754,-106.816 619.992,-78.2591 456.057,-55 343.29,-39.0006 311.49,-42.33 195.934,-18.9315"/>
<polygon fill="midnightblue" stroke="midnightblue" points="196.486,-15.4718 185.987,-16.8938 195.081,-22.3294 196.486,-15.4718"/>
</g>
<!-- Node13 -->
<g id="node14" class="node"><title>Node13</title>
<polygon fill="white" stroke="#bfbfbf" points="204.086,-0.5 204.086,-18.5 294.027,-18.5 294.027,-0.5 204.086,-0.5"/>
<text text-anchor="middle" x="249.057" y="-6.5" font-family="Helvetica,sans-Serif" font-size="10.00">yarp/sig/Vector.h</text>
</g>
<!-- Node9&#45;&gt;Node13 -->
<g id="edge14" class="edge"><title>Node9&#45;&gt;Node13</title>
<path fill="none" stroke="midnightblue" d="M933.488,-120.498C882.128,-105.34 765.427,-72.3999 665.057,-55 509.017,-27.9494 465.209,-39.0951 304.369,-19.0868"/>
<polygon fill="midnightblue" stroke="midnightblue" points="304.471,-15.5719 294.11,-17.7885 303.592,-22.5165 304.471,-15.5719"/>
</g>
<!-- Node14 -->
<g id="node15" class="node"><title>Node14</title>
<polygon fill="white" stroke="#bfbfbf" points="898.747,-55.5 898.747,-83.5 1035.37,-83.5 1035.37,-55.5 898.747,-55.5"/>
<text text-anchor="start" x="906.747" y="-71.5" font-family="Helvetica,sans-Serif" font-size="10.00">yarpWholeBodyInterface</text>
<text text-anchor="middle" x="967.057" y="-61.5" font-family="Helvetica,sans-Serif" font-size="10.00">/yarpWholeBodyInterface.h</text>
</g>
<!-- Node9&#45;&gt;Node14 -->
<g id="edge17" class="edge"><title>Node9&#45;&gt;Node14</title>
<path fill="none" stroke="midnightblue" d="M961.03,-120.435C961.86,-113.56 963.095,-103.324 964.232,-93.9057"/>
<polygon fill="midnightblue" stroke="midnightblue" points="967.723,-94.1901 965.446,-83.8428 960.773,-93.3513 967.723,-94.1901"/>
</g>
<!-- Node9&#45;&gt;Node15 -->
<g id="edge18" class="edge"><title>Node9&#45;&gt;Node15</title>
<path fill="none" stroke="midnightblue" d="M986.058,-120.435C1018.62,-110.335 1074.58,-92.9798 1111.2,-81.6227"/>
<polygon fill="midnightblue" stroke="midnightblue" points="1112.46,-84.8948 1120.98,-78.5894 1110.39,-78.209 1112.46,-84.8948"/>
</g>
<!-- Node15&#45;&gt;Node2 -->
<g id="edge39" class="edge"><title>Node15&#45;&gt;Node2</title>
<path fill="none" stroke="midnightblue" d="M1197.34,-67.7954C1401.86,-64.7435 2172.48,-51.3877 2438.11,-18.8109"/>
<polygon fill="midnightblue" stroke="midnightblue" points="2438.63,-22.2739 2448.11,-17.5447 2437.75,-15.3294 2438.63,-22.2739"/>
</g>
<!-- Node15&#45;&gt;Node4 -->
<g id="edge42" class="edge"><title>Node15&#45;&gt;Node4</title>
<path fill="none" stroke="midnightblue" d="M1197.34,-67.6953C1409.33,-64.1485 2231.74,-48.7977 2513.11,-19.0224"/>
<polygon fill="midnightblue" stroke="midnightblue" points="2513.73,-22.4756 2523.29,-17.9119 2512.97,-15.5169 2513.73,-22.4756"/>
</g>
<!-- Node15&#45;&gt;Node6 -->
<g id="edge19" class="edge"><title>Node15&#45;&gt;Node6</title>
<path fill="none" stroke="midnightblue" d="M1096.6,-60.9277C1079.91,-58.6792 1061.22,-56.4359 1044.06,-55 611.694,-18.8285 495.865,-77.9832 62.2957,-18.8533"/>
<polygon fill="midnightblue" stroke="midnightblue" points="62.7046,-15.3767 52.3206,-17.4798 61.7497,-22.3113 62.7046,-15.3767"/>
</g>
<!-- Node15&#45;&gt;Node7 -->
<g id="edge40" class="edge"><title>Node15&#45;&gt;Node7</title>
<path fill="none" stroke="midnightblue" d="M1113.68,-60.451C1103.86,-58.3593 1093.08,-56.3242 1083.06,-55 797.265,-17.2299 720.034,-45.8543 428.652,-18.9613"/>
<polygon fill="midnightblue" stroke="midnightblue" points="428.923,-15.4714 418.64,-18.0232 428.27,-22.4409 428.923,-15.4714"/>
</g>
<!-- Node15&#45;&gt;Node8 -->
<g id="edge34" class="edge"><title>Node15&#45;&gt;Node8</title>
<path fill="none" stroke="midnightblue" d="M1197.58,-67.3139C1392.55,-62.5987 2096.86,-44.2543 2343.61,-18.8366"/>
<polygon fill="midnightblue" stroke="midnightblue" points="2344.03,-22.3118 2353.61,-17.7756 2343.3,-15.3509 2344.03,-22.3118"/>
</g>
<!-- Node15&#45;&gt;Node10 -->
<g id="edge21" class="edge"><title>Node15&#45;&gt;Node10</title>
<path fill="none" stroke="midnightblue" d="M1096.6,-60.9569C1079.91,-58.7103 1061.22,-56.4607 1044.06,-55 643.663,-20.9203 536.314,-72.9331 134.621,-18.9253"/>
<polygon fill="midnightblue" stroke="midnightblue" points="134.852,-15.4246 124.472,-17.5467 133.91,-22.3609 134.852,-15.4246"/>
</g>
<!-- Node15&#45;&gt;Node12 -->
<g id="edge23" class="edge"><title>Node15&#45;&gt;Node12</title>
<path fill="none" stroke="midnightblue" d="M1096.6,-60.9861C1079.91,-58.7413 1061.22,-56.4854 1044.06,-55 671.098,-22.7143 569.973,-76.3461 195.953,-18.7154"/>
<polygon fill="midnightblue" stroke="midnightblue" points="196.359,-15.2364 185.939,-17.156 195.282,-22.1531 196.359,-15.2364"/>
</g>
<!-- Node15&#45;&gt;Node13 -->
<g id="edge37" class="edge"><title>Node15&#45;&gt;Node13</title>
<path fill="none" stroke="midnightblue" d="M1096.59,-61.0484C1079.9,-58.8076 1061.21,-56.5383 1044.06,-55 719.02,-25.8526 632.814,-52.1329 304.377,-19.0085"/>
<polygon fill="midnightblue" stroke="midnightblue" points="304.394,-15.4922 294.091,-17.9598 303.684,-22.4561 304.394,-15.4922"/>
</g>
<!-- Node16 -->
<g id="node17" class="node"><title>Node16</title>
<polygon fill="white" stroke="#bfbfbf" points="523.441,-0.5 523.441,-18.5 566.672,-18.5 566.672,-0.5 523.441,-0.5"/>
<text text-anchor="middle" x="545.057" y="-6.5" font-family="Helvetica,sans-Serif" font-size="10.00">cmath</text>
</g>
<!-- Node15&#45;&gt;Node16 -->
<g id="edge20" class="edge"><title>Node15&#45;&gt;Node16</title>
<path fill="none" stroke="midnightblue" d="M1113.33,-60.4827C1103.61,-58.4175 1092.95,-56.3884 1083.06,-55 862.624,-24.0737 800.54,-56.0861 577.029,-18.7867"/>
<polygon fill="midnightblue" stroke="midnightblue" points="577.397,-15.2992 566.952,-17.0768 576.226,-22.2006 577.397,-15.2992"/>
</g>
<!-- Node17 -->
<g id="node18" class="node"><title>Node17</title>
<polygon fill="white" stroke="#bfbfbf" points="584.83,-0.5 584.83,-18.5 625.283,-18.5 625.283,-0.5 584.83,-0.5"/>
<text text-anchor="middle" x="605.057" y="-6.5" font-family="Helvetica,sans-Serif" font-size="10.00">string</text>
</g>
<!-- Node15&#45;&gt;Node17 -->
<g id="edge22" class="edge"><title>Node15&#45;&gt;Node17</title>
<path fill="none" stroke="midnightblue" d="M1112.99,-60.4706C1103.36,-58.4303 1092.83,-56.4172 1083.06,-55 888.22,-26.7583 832.759,-54.3965 635.632,-18.9157"/>
<polygon fill="midnightblue" stroke="midnightblue" points="635.993,-15.4236 625.526,-17.0642 634.732,-22.309 635.993,-15.4236"/>
</g>
<!-- Node18 -->
<g id="node19" class="node"><title>Node18</title>
<polygon fill="white" stroke="#bfbfbf" points="643.276,-0.5 643.276,-18.5 694.837,-18.5 694.837,-0.5 643.276,-0.5"/>
<text text-anchor="middle" x="669.057" y="-6.5" font-family="Helvetica,sans-Serif" font-size="10.00">sstream</text>
</g>
<!-- Node15&#45;&gt;Node18 -->
<g id="edge24" class="edge"><title>Node15&#45;&gt;Node18</title>
<path fill="none" stroke="midnightblue" d="M1112.64,-60.4942C1103.1,-58.4784 1092.71,-56.4719 1083.06,-55 918.972,-29.9835 872.673,-46.3854 704.876,-18.8825"/>
<polygon fill="midnightblue" stroke="midnightblue" points="705.404,-15.4224 694.965,-17.2306 704.253,-22.3271 705.404,-15.4224"/>
</g>
<!-- Node19 -->
<g id="node20" class="node"><title>Node19</title>
<polygon fill="white" stroke="#bfbfbf" points="713.118,-0.5 713.118,-18.5 828.996,-18.5 828.996,-0.5 713.118,-0.5"/>
<text text-anchor="middle" x="771.057" y="-6.5" font-family="Helvetica,sans-Serif" font-size="10.00">yarp/os/BufferedPort.h</text>
</g>
<!-- Node15&#45;&gt;Node19 -->
<g id="edge25" class="edge"><title>Node15&#45;&gt;Node19</title>
<path fill="none" stroke="midnightblue" d="M1110.92,-60.4416C1101.85,-58.5383 1092.11,-56.5995 1083.06,-55 1037.61,-46.9756 916.603,-30.2064 839.335,-19.6999"/>
<polygon fill="midnightblue" stroke="midnightblue" points="839.583,-16.2015 829.203,-18.324 838.641,-23.1378 839.583,-16.2015"/>
</g>
<!-- Node20 -->
<g id="node21" class="node"><title>Node20</title>
<polygon fill="white" stroke="#bfbfbf" points="847.315,-0.5 847.315,-18.5 932.798,-18.5 932.798,-0.5 847.315,-0.5"/>
<text text-anchor="middle" x="890.057" y="-6.5" font-family="Helvetica,sans-Serif" font-size="10.00">yarp/os/Bottle.h</text>
</g>
<!-- Node15&#45;&gt;Node20 -->
<g id="edge26" class="edge"><title>Node15&#45;&gt;Node20</title>
<path fill="none" stroke="midnightblue" d="M1111.59,-60.4962C1065.73,-50.1462 985.793,-32.1058 935.518,-20.7597"/>
<polygon fill="midnightblue" stroke="midnightblue" points="936.095,-17.3021 925.57,-18.5147 934.554,-24.1303 936.095,-17.3021"/>
</g>
<!-- Node21 -->
<g id="node22" class="node"><title>Node21</title>
<polygon fill="white" stroke="#bfbfbf" points="950.697,-0.5 950.697,-18.5 1063.42,-18.5 1063.42,-0.5 950.697,-0.5"/>
<text text-anchor="middle" x="1007.06" y="-6.5" font-family="Helvetica,sans-Serif" font-size="10.00">yarp/os/RateThread.h</text>
</g>
<!-- Node15&#45;&gt;Node21 -->
<g id="edge27" class="edge"><title>Node15&#45;&gt;Node21</title>
<path fill="none" stroke="midnightblue" d="M1127.59,-60.4353C1103.9,-50.6217 1063.68,-33.9593 1036.27,-22.604"/>
<polygon fill="midnightblue" stroke="midnightblue" points="1037.39,-19.2771 1026.81,-18.6831 1034.71,-25.7441 1037.39,-19.2771"/>
</g>
<!-- Node22 -->
<g id="node23" class="node"><title>Node22</title>
<polygon fill="white" stroke="#bfbfbf" points="1081.8,-0.5 1081.8,-18.5 1212.31,-18.5 1212.31,-0.5 1081.8,-0.5"/>
<text text-anchor="middle" x="1147.06" y="-6.5" font-family="Helvetica,sans-Serif" font-size="10.00">yarp/os/ResourceFinder.h</text>
</g>
<!-- Node15&#45;&gt;Node22 -->
<g id="edge28" class="edge"><title>Node15&#45;&gt;Node22</title>
<path fill="none" stroke="midnightblue" d="M1147.06,-60.4353C1147.06,-52.3891 1147.06,-39.7388 1147.06,-29.1846"/>
<polygon fill="midnightblue" stroke="midnightblue" points="1150.56,-28.8717 1147.06,-18.8718 1143.56,-28.8718 1150.56,-28.8717"/>
</g>
<!-- Node23 -->
<g id="node24" class="node"><title>Node23</title>
<polygon fill="white" stroke="#bfbfbf" points="1230.81,-0.5 1230.81,-18.5 1341.31,-18.5 1341.31,-0.5 1230.81,-0.5"/>
<text text-anchor="middle" x="1286.06" y="-6.5" font-family="Helvetica,sans-Serif" font-size="10.00">yarp/os/PortReader.h</text>
</g>
<!-- Node15&#45;&gt;Node23 -->
<g id="edge29" class="edge"><title>Node15&#45;&gt;Node23</title>
<path fill="none" stroke="midnightblue" d="M1166.38,-60.4353C1189.9,-50.6217 1229.84,-33.9593 1257.05,-22.604"/>
<polygon fill="midnightblue" stroke="midnightblue" points="1258.56,-25.7641 1266.45,-18.6831 1255.87,-19.304 1258.56,-25.7641"/>
</g>
<!-- Node24 -->
<g id="node25" class="node"><title>Node24</title>
<polygon fill="white" stroke="#bfbfbf" points="1359.43,-0.5 1359.43,-18.5 1462.69,-18.5 1462.69,-0.5 1359.43,-0.5"/>
<text text-anchor="middle" x="1411.06" y="-6.5" font-family="Helvetica,sans-Serif" font-size="10.00">yarp/os/RpcClient.h</text>
</g>
<!-- Node15&#45;&gt;Node24 -->
<g id="edge30" class="edge"><title>Node15&#45;&gt;Node24</title>
<path fill="none" stroke="midnightblue" d="M1183.49,-60.4962C1230.7,-50.1246 1313.06,-32.0304 1364.68,-20.6887"/>
<polygon fill="midnightblue" stroke="midnightblue" points="1365.56,-24.079 1374.58,-18.5147 1364.06,-17.2421 1365.56,-24.079"/>
</g>
<!-- Node25 -->
<g id="node26" class="node"><title>Node25</title>
<polygon fill="white" stroke="#bfbfbf" points="1480.76,-0.5 1480.76,-18.5 1587.36,-18.5 1587.36,-0.5 1480.76,-0.5"/>
<text text-anchor="middle" x="1534.06" y="-6.5" font-family="Helvetica,sans-Serif" font-size="10.00">yarp/os/RpcServer.h</text>
</g>
<!-- Node15&#45;&gt;Node25 -->
<g id="edge31" class="edge"><title>Node15&#45;&gt;Node25</title>
<path fill="none" stroke="midnightblue" d="M1197.65,-60.9175C1267.75,-50.4117 1394.38,-31.4331 1470.69,-19.9966"/>
<polygon fill="midnightblue" stroke="midnightblue" points="1471.28,-23.4469 1480.66,-18.5033 1470.25,-16.5242 1471.28,-23.4469"/>
</g>
<!-- Node26 -->
<g id="node27" class="node"><title>Node26</title>
<polygon fill="white" stroke="#bfbfbf" points="1605.68,-0.5 1605.68,-18.5 1748.43,-18.5 1748.43,-0.5 1605.68,-0.5"/>
<text text-anchor="middle" x="1677.06" y="-6.5" font-family="Helvetica,sans-Serif" font-size="10.00">yarp/os/ConnectionReader.h</text>
</g>
<!-- Node15&#45;&gt;Node26 -->
<g id="edge32" class="edge"><title>Node15&#45;&gt;Node26</title>
<path fill="none" stroke="midnightblue" d="M1197.4,-62.9912C1289.1,-52.9552 1484.16,-31.6095 1595.21,-19.4566"/>
<polygon fill="midnightblue" stroke="midnightblue" points="1595.8,-22.9131 1605.36,-18.3459 1595.04,-15.9546 1595.8,-22.9131"/>
</g>
<!-- Node27 -->
<g id="node28" class="node"><title>Node27</title>
<polygon fill="white" stroke="#bfbfbf" points="1766.17,-0.5 1766.17,-18.5 1847.94,-18.5 1847.94,-0.5 1766.17,-0.5"/>
<text text-anchor="middle" x="1807.06" y="-6.5" font-family="Helvetica,sans-Serif" font-size="10.00">yarp/os/Time.h</text>
</g>
<!-- Node15&#45;&gt;Node27 -->
<g id="edge33" class="edge"><title>Node15&#45;&gt;Node27</title>
<path fill="none" stroke="midnightblue" d="M1197.42,-65.9069C1300.36,-60.2837 1542.44,-45.4053 1756.02,-19.0155"/>
<polygon fill="midnightblue" stroke="midnightblue" points="1756.68,-22.4606 1766.17,-17.7501 1755.81,-15.5144 1756.68,-22.4606"/>
</g>
<!-- Node28 -->
<g id="node29" class="node"><title>Node28</title>
<polygon fill="white" stroke="#bfbfbf" points="1865.64,-0.5 1865.64,-18.5 1974.47,-18.5 1974.47,-0.5 1865.64,-0.5"/>
<text text-anchor="middle" x="1920.06" y="-6.5" font-family="Helvetica,sans-Serif" font-size="10.00">yarp/os/LogStream.h</text>
</g>
<!-- Node15&#45;&gt;Node28 -->
<g id="edge35" class="edge"><title>Node15&#45;&gt;Node28</title>
<path fill="none" stroke="midnightblue" d="M1197.51,-66.1028C1312.4,-60.4027 1602.51,-44.6454 1855.33,-19.1158"/>
<polygon fill="midnightblue" stroke="midnightblue" points="1855.85,-22.5812 1865.45,-18.0873 1855.14,-15.6172 1855.85,-22.5812"/>
</g>
<!-- Node29 -->
<g id="node30" class="node"><title>Node29</title>
<polygon fill="white" stroke="#bfbfbf" points="1992.57,-0.5 1992.57,-18.5 2089.54,-18.5 2089.54,-0.5 1992.57,-0.5"/>
<text text-anchor="middle" x="2041.06" y="-6.5" font-family="Helvetica,sans-Serif" font-size="10.00">yarp/os/Property.h</text>
</g>
<!-- Node15&#45;&gt;Node29 -->
<g id="edge36" class="edge"><title>Node15&#45;&gt;Node29</title>
<path fill="none" stroke="midnightblue" d="M1197.59,-67.0293C1326.5,-62.9519 1678.18,-49.7839 1982.03,-19.0036"/>
<polygon fill="midnightblue" stroke="midnightblue" points="1982.77,-22.4461 1992.36,-17.948 1982.06,-15.4824 1982.77,-22.4461"/>
</g>
<!-- Node30 -->
<g id="node31" class="node"><title>Node30</title>
<polygon fill="white" stroke="#bfbfbf" points="2107.38,-0.5 2107.38,-18.5 2196.73,-18.5 2196.73,-0.5 2107.38,-0.5"/>
<text text-anchor="middle" x="2152.06" y="-6.5" font-family="Helvetica,sans-Serif" font-size="10.00">yarp/sig/Matrix.h</text>
</g>
<!-- Node15&#45;&gt;Node30 -->
<g id="edge38" class="edge"><title>Node15&#45;&gt;Node30</title>
<path fill="none" stroke="midnightblue" d="M1197.46,-67.7228C1338.15,-65.1599 1747.12,-55.0244 2097.23,-18.9575"/>
<polygon fill="midnightblue" stroke="midnightblue" points="2097.73,-22.4249 2107.31,-17.9102 2097.01,-15.4624 2097.73,-22.4249"/>
</g>
<!-- Node31 -->
<g id="node32" class="node"><title>Node31</title>
<polygon fill="white" stroke="#bfbfbf" points="2214.82,-0.5 2214.82,-18.5 2335.3,-18.5 2335.3,-0.5 2214.82,-0.5"/>
<text text-anchor="middle" x="2275.06" y="-6.5" font-family="Helvetica,sans-Serif" font-size="10.00">ocra/util/StringUtilities.h</text>
</g>
<!-- Node15&#45;&gt;Node31 -->
<g id="edge41" class="edge"><title>Node15&#45;&gt;Node31</title>
<path fill="none" stroke="midnightblue" d="M1197.31,-67.5043C1348.19,-64.2268 1810.64,-52.08 2204.34,-19.0811"/>
<polygon fill="midnightblue" stroke="midnightblue" points="2204.83,-22.552 2214.5,-18.2233 2204.24,-15.5768 2204.83,-22.552"/>
</g>
<!-- Node32 -->
<g id="node33" class="node"><title>Node32</title>
<polygon fill="white" stroke="#bfbfbf" points="436.653,-0.5 436.653,-18.5 505.46,-18.5 505.46,-0.5 436.653,-0.5"/>
<text text-anchor="middle" x="471.057" y="-6.5" font-family="Helvetica,sans-Serif" font-size="10.00">Eigen/Lgsm</text>
</g>
<!-- Node15&#45;&gt;Node32 -->
<g id="edge43" class="edge"><title>Node15&#45;&gt;Node32</title>
<path fill="none" stroke="midnightblue" d="M1113.34,-60.4335C1103.61,-58.3674 1092.96,-56.3503 1083.06,-55 835.296,-21.212 767.129,-50.8375 515.894,-19.0676"/>
<polygon fill="midnightblue" stroke="midnightblue" points="516.09,-15.5642 505.726,-17.7612 515.198,-22.5071 516.09,-15.5642"/>
</g>
</g>
</svg>
