<?xml version="1.0" encoding="UTF-8" standalone="no"?>
<!DOCTYPE svg PUBLIC "-//W3C//DTD SVG 1.1//EN"
 "http://www.w3.org/Graphics/SVG/1.1/DTD/svg11.dtd">
<!-- Generated by graphviz version 2.38.0 (20140413.2041)
 -->
<!-- Title: Graphical Class Hierarchy Pages: 1 -->
<svg width="237pt" height="212pt"
 viewBox="0.00 0.00 236.63 212.00" xmlns="http://www.w3.org/2000/svg" xmlns:xlink="http://www.w3.org/1999/xlink">
<g id="graph0" class="graph" transform="scale(1 1) rotate(0) translate(4 208)">
<title>Graphical Class Hierarchy</title>
<polygon fill="white" stroke="none" points="-4,4 -4,-208 232.635,-208 232.635,4 -4,4"/>
<!-- Node20 -->
<g id="node1" class="node"><title>Node20</title>
<polygon fill="white" stroke="#bfbfbf" points="0,-92.5 0,-110.5 84.916,-110.5 84.916,-92.5 0,-92.5"/>
<text text-anchor="middle" x="42.458" y="-98.5" font-family="Helvetica,sans-Serif" font-size="10.00">ControllerClient</text>
</g>
<!-- Node0 -->
<g id="node2" class="node"><title>Node0</title>
<g id="a_node2"><a xlink:href="classExampleClient.html" target="_top" xlink:title="ExampleClient">
<polygon fill="white" stroke="black" points="134.539,-185.5 134.539,-203.5 215.012,-203.5 215.012,-185.5 134.539,-185.5"/>
<text text-anchor="middle" x="174.775" y="-191.5" font-family="Helvetica,sans-Serif" font-size="10.00">ExampleClient</text>
</a>
</g>
</g>
<!-- Node20&#45;&gt;Node0 -->
<g id="edge1" class="edge"><title>Node20&#45;&gt;Node0</title>
<path fill="none" stroke="midnightblue" d="M57.1612,-118.61C71.4668,-135.457 95.3487,-160.869 120.916,-176.5 126.706,-180.04 133.281,-182.99 139.78,-185.407"/>
<polygon fill="midnightblue" stroke="midnightblue" points="59.6679,-116.15 50.595,-110.679 54.2758,-120.613 59.6679,-116.15"/>
</g>
<!-- Node22 -->
<g id="node3" class="node"><title>Node22</title>
<g id="a_node3"><a xlink:href="classSittingDemoClient.html" target="_top" xlink:title="SittingDemoClient">
<polygon fill="white" stroke="black" points="126.758,-148.5 126.758,-166.5 222.792,-166.5 222.792,-148.5 126.758,-148.5"/>
<text text-anchor="middle" x="174.775" y="-154.5" font-family="Helvetica,sans-Serif" font-size="10.00">SittingDemoClient</text>
</a>
</g>
</g>
<!-- Node20&#45;&gt;Node22 -->
<g id="edge2" class="edge"><title>Node20&#45;&gt;Node22</title>
<path fill="none" stroke="midnightblue" d="M69.4865,-115.306C84.3398,-122.92 103.43,-132.268 120.916,-139.5 128.62,-142.686 137.114,-145.763 144.997,-148.445"/>
<polygon fill="midnightblue" stroke="midnightblue" points="70.8857,-112.089 60.3971,-110.592 67.663,-118.303 70.8857,-112.089"/>
</g>
<!-- Node23 -->
<g id="node4" class="node"><title>Node23</title>
<g id="a_node4"><a xlink:href="classStandingDemoClient.html" target="_top" xlink:title="StandingDemoClient">
<polygon fill="white" stroke="black" points="120.916,-111.5 120.916,-129.5 228.635,-129.5 228.635,-111.5 120.916,-111.5"/>
<text text-anchor="middle" x="174.775" y="-117.5" font-family="Helvetica,sans-Serif" font-size="10.00">StandingDemoClient</text>
</a>
</g>
</g>
<!-- Node20&#45;&gt;Node23 -->
<g id="edge3" class="edge"><title>Node20&#45;&gt;Node23</title>
<path fill="none" stroke="midnightblue" d="M95.1033,-109.03C103.506,-110.255 112.222,-111.526 120.659,-112.756"/>
<polygon fill="midnightblue" stroke="midnightblue" points="95.4499,-105.543 85.0495,-107.564 94.4399,-112.47 95.4499,-105.543"/>
</g>
<!-- Node24 -->
<g id="node5" class="node"><title>Node24</title>
<g id="a_node5"><a xlink:href="classSteppingDemoClient.html" target="_top" xlink:title="SteppingDemoClient">
<polygon fill="white" stroke="black" points="120.916,-74.5 120.916,-92.5 228.635,-92.5 228.635,-74.5 120.916,-74.5"/>
<text text-anchor="middle" x="174.775" y="-80.5" font-family="Helvetica,sans-Serif" font-size="10.00">SteppingDemoClient</text>
</a>
</g>
</g>
<!-- Node20&#45;&gt;Node24 -->
<g id="edge4" class="edge"><title>Node20&#45;&gt;Node24</title>
<path fill="none" stroke="midnightblue" d="M95.1033,-94.3665C103.506,-93.2059 112.222,-92.0021 120.659,-90.8367"/>
<polygon fill="midnightblue" stroke="midnightblue" points="94.4766,-90.9198 85.0495,-95.7552 95.4344,-97.8539 94.4766,-90.9198"/>
</g>
<!-- Node25 -->
<g id="node6" class="node"><title>Node25</title>
<g id="a_node6"><a xlink:href="classTaskOpsClient.html" target="_top" xlink:title="TaskOpsClient">
<polygon fill="white" stroke="black" points="134.542,-37.5 134.542,-55.5 215.009,-55.5 215.009,-37.5 134.542,-37.5"/>
<text text-anchor="middle" x="174.775" y="-43.5" font-family="Helvetica,sans-Serif" font-size="10.00">TaskOpsClient</text>
</a>
</g>
</g>
<!-- Node20&#45;&gt;Node25 -->
<g id="edge5" class="edge"><title>Node20&#45;&gt;Node25</title>
<path fill="none" stroke="midnightblue" d="M70.7784,-88.0699C85.4921,-81.0237 104.04,-72.4383 120.916,-65.5 129.394,-62.0144 138.773,-58.5268 147.248,-55.5087"/>
<polygon fill="midnightblue" stroke="midnightblue" points="69.2017,-84.9445 61.7191,-92.4453 72.2461,-91.2479 69.2017,-84.9445"/>
</g>
<!-- Node26 -->
<g id="node7" class="node"><title>Node26</title>
<g id="a_node7"><a xlink:href="classWalkingClient.html" target="_top" xlink:title="WalkingClient">
<polygon fill="white" stroke="black" points="136.392,-0.5 136.392,-18.5 213.159,-18.5 213.159,-0.5 136.392,-0.5"/>
<text text-anchor="middle" x="174.775" y="-6.5" font-family="Helvetica,sans-Serif" font-size="10.00">WalkingClient</text>
</a>
</g>
</g>
<!-- Node20&#45;&gt;Node26 -->
<g id="edge6" class="edge"><title>Node20&#45;&gt;Node26</title>
<path fill="none" stroke="midnightblue" d="M57.7735,-84.4316C72.2418,-68.1188 95.9705,-43.8087 120.916,-28.5 127.399,-24.5215 134.839,-21.2035 142.05,-18.513"/>
<polygon fill="midnightblue" stroke="midnightblue" points="54.9958,-82.2927 51.0943,-92.143 60.287,-86.8756 54.9958,-82.2927"/>
</g>
</g>
</svg>
