<?xml version="1.0" encoding="UTF-8" standalone="no"?>
<!DOCTYPE svg PUBLIC "-//W3C//DTD SVG 1.1//EN"
 "http://www.w3.org/Graphics/SVG/1.1/DTD/svg11.dtd">
<!-- Generated by graphviz version 2.38.0 (20140413.2041)
 -->
<!-- Title: Graphical Class Hierarchy Pages: 1 -->
<svg width="237pt" height="101pt"
 viewBox="0.00 0.00 236.63 101.00" xmlns="http://www.w3.org/2000/svg" xmlns:xlink="http://www.w3.org/1999/xlink">
<g id="graph0" class="graph" transform="scale(1 1) rotate(0) translate(4 97)">
<title>Graphical Class Hierarchy</title>
<polygon fill="white" stroke="none" points="-4,4 -4,-97 232.635,-97 232.635,4 -4,4"/>
<!-- Node15 -->
<g id="node1" class="node"><title>Node15</title>
<polygon fill="white" stroke="#bfbfbf" points="0,-37.5 0,-55.5 84.916,-55.5 84.916,-37.5 0,-37.5"/>
<text text-anchor="middle" x="42.458" y="-43.5" font-family="Helvetica,sans-Serif" font-size="10.00">ControllerClient</text>
</g>
<!-- Node0 -->
<g id="node2" class="node"><title>Node0</title>
<g id="a_node2"><a xlink:href="classExampleClient.html" target="_top" xlink:title="ExampleClient">
<polygon fill="white" stroke="black" points="134.539,-74.5 134.539,-92.5 215.012,-92.5 215.012,-74.5 134.539,-74.5"/>
<text text-anchor="middle" x="174.775" y="-80.5" font-family="Helvetica,sans-Serif" font-size="10.00">ExampleClient</text>
</a>
</g>
</g>
<!-- Node15&#45;&gt;Node0 -->
<g id="edge1" class="edge"><title>Node15&#45;&gt;Node0</title>
<path fill="none" stroke="midnightblue" d="M85.1859,-58.3475C103.522,-63.5536 124.715,-69.5706 141.774,-74.414"/>
<polygon fill="midnightblue" stroke="midnightblue" points="85.913,-54.9156 75.3372,-55.5512 84.001,-61.6495 85.913,-54.9156"/>
</g>
<!-- Node17 -->
<g id="node3" class="node"><title>Node17</title>
<g id="a_node3"><a xlink:href="classSteppingDemoClient.html" target="_top" xlink:title="SteppingDemoClient">
<polygon fill="white" stroke="black" points="120.916,-37.5 120.916,-55.5 228.635,-55.5 228.635,-37.5 120.916,-37.5"/>
<text text-anchor="middle" x="174.775" y="-43.5" font-family="Helvetica,sans-Serif" font-size="10.00">SteppingDemoClient</text>
</a>
</g>
</g>
<!-- Node15&#45;&gt;Node17 -->
<g id="edge2" class="edge"><title>Node15&#45;&gt;Node17</title>
<path fill="none" stroke="midnightblue" d="M95.1033,-46.5C103.506,-46.5 112.222,-46.5 120.659,-46.5"/>
<polygon fill="midnightblue" stroke="midnightblue" points="95.0496,-43.0001 85.0495,-46.5 95.0495,-50.0001 95.0496,-43.0001"/>
</g>
<!-- Node18 -->
<g id="node4" class="node"><title>Node18</title>
<g id="a_node4"><a xlink:href="classTaskOpsClient.html" target="_top" xlink:title="TaskOpsClient">
<polygon fill="white" stroke="black" points="134.542,-0.5 134.542,-18.5 215.009,-18.5 215.009,-0.5 134.542,-0.5"/>
<text text-anchor="middle" x="174.775" y="-6.5" font-family="Helvetica,sans-Serif" font-size="10.00">TaskOpsClient</text>
</a>
</g>
</g>
<!-- Node15&#45;&gt;Node18 -->
<g id="edge3" class="edge"><title>Node15&#45;&gt;Node18</title>
<path fill="none" stroke="midnightblue" d="M85.1859,-34.6525C103.522,-29.4464 124.715,-23.4294 141.774,-18.586"/>
<polygon fill="midnightblue" stroke="midnightblue" points="84.001,-31.3505 75.3372,-37.4488 85.913,-38.0844 84.001,-31.3505"/>
</g>
</g>
</svg>
