<?xml version="1.0" encoding="UTF-8" standalone="no"?>
<!DOCTYPE svg PUBLIC "-//W3C//DTD SVG 1.1//EN"
 "http://www.w3.org/Graphics/SVG/1.1/DTD/svg11.dtd">
<!-- Generated by graphviz version 2.38.0 (20140413.2041)
 -->
<!-- Title: Graphical Class Hierarchy Pages: 1 -->
<svg width="237pt" height="175pt"
 viewBox="0.00 0.00 236.63 175.00" xmlns="http://www.w3.org/2000/svg" xmlns:xlink="http://www.w3.org/1999/xlink">
<g id="graph0" class="graph" transform="scale(1 1) rotate(0) translate(4 171)">
<title>Graphical Class Hierarchy</title>
<polygon fill="white" stroke="none" points="-4,4 -4,-171 232.635,-171 232.635,4 -4,4"/>
<!-- Node17 -->
<g id="node1" class="node"><title>Node17</title>
<polygon fill="white" stroke="#bfbfbf" points="0,-74.5 0,-92.5 84.916,-92.5 84.916,-74.5 0,-74.5"/>
<text text-anchor="middle" x="42.458" y="-80.5" font-family="Helvetica,sans-Serif" font-size="10.00">ControllerClient</text>
</g>
<!-- Node0 -->
<g id="node2" class="node"><title>Node0</title>
<g id="a_node2"><a xlink:href="classExampleClient.html" target="_top" xlink:title="ExampleClient">
<polygon fill="white" stroke="black" points="134.539,-148.5 134.539,-166.5 215.012,-166.5 215.012,-148.5 134.539,-148.5"/>
<text text-anchor="middle" x="174.775" y="-154.5" font-family="Helvetica,sans-Serif" font-size="10.00">ExampleClient</text>
</a>
</g>
</g>
<!-- Node17&#45;&gt;Node0 -->
<g id="edge1" class="edge"><title>Node17&#45;&gt;Node0</title>
<path fill="none" stroke="midnightblue" d="M61.8034,-99.1881C76.8854,-111.468 99.2284,-128.289 120.916,-139.5 127.547,-142.928 134.971,-145.922 142.112,-148.433"/>
<polygon fill="midnightblue" stroke="midnightblue" points="63.7513,-96.2561 53.8223,-92.5593 59.2788,-101.641 63.7513,-96.2561"/>
</g>
<!-- Node19 -->
<g id="node3" class="node"><title>Node19</title>
<g id="a_node3"><a xlink:href="classSittingDemoClient.html" target="_top" xlink:title="SittingDemoClient">
<polygon fill="white" stroke="black" points="126.758,-111.5 126.758,-129.5 222.792,-129.5 222.792,-111.5 126.758,-111.5"/>
<text text-anchor="middle" x="174.775" y="-117.5" font-family="Helvetica,sans-Serif" font-size="10.00">SittingDemoClient</text>
</a>
</g>
</g>
<!-- Node17&#45;&gt;Node19 -->
<g id="edge2" class="edge"><title>Node17&#45;&gt;Node19</title>
<path fill="none" stroke="midnightblue" d="M85.1859,-95.3475C103.522,-100.554 124.715,-106.571 141.774,-111.414"/>
<polygon fill="midnightblue" stroke="midnightblue" points="85.913,-91.9156 75.3372,-92.5512 84.001,-98.6495 85.913,-91.9156"/>
</g>
<!-- Node20 -->
<g id="node4" class="node"><title>Node20</title>
<g id="a_node4"><a xlink:href="classSteppingDemoClient.html" target="_top" xlink:title="SteppingDemoClient">
<polygon fill="white" stroke="black" points="120.916,-74.5 120.916,-92.5 228.635,-92.5 228.635,-74.5 120.916,-74.5"/>
<text text-anchor="middle" x="174.775" y="-80.5" font-family="Helvetica,sans-Serif" font-size="10.00">SteppingDemoClient</text>
</a>
</g>
</g>
<!-- Node17&#45;&gt;Node20 -->
<g id="edge3" class="edge"><title>Node17&#45;&gt;Node20</title>
<path fill="none" stroke="midnightblue" d="M95.1033,-83.5C103.506,-83.5 112.222,-83.5 120.659,-83.5"/>
<polygon fill="midnightblue" stroke="midnightblue" points="95.0496,-80.0001 85.0495,-83.5 95.0495,-87.0001 95.0496,-80.0001"/>
</g>
<!-- Node21 -->
<g id="node5" class="node"><title>Node21</title>
<g id="a_node5"><a xlink:href="classTaskOpsClient.html" target="_top" xlink:title="TaskOpsClient">
<polygon fill="white" stroke="black" points="134.542,-37.5 134.542,-55.5 215.009,-55.5 215.009,-37.5 134.542,-37.5"/>
<text text-anchor="middle" x="174.775" y="-43.5" font-family="Helvetica,sans-Serif" font-size="10.00">TaskOpsClient</text>
</a>
</g>
</g>
<!-- Node17&#45;&gt;Node21 -->
<g id="edge4" class="edge"><title>Node17&#45;&gt;Node21</title>
<path fill="none" stroke="midnightblue" d="M85.1859,-71.6525C103.522,-66.4464 124.715,-60.4294 141.774,-55.586"/>
<polygon fill="midnightblue" stroke="midnightblue" points="84.001,-68.3505 75.3372,-74.4488 85.913,-75.0844 84.001,-68.3505"/>
</g>
<!-- Node22 -->
<g id="node6" class="node"><title>Node22</title>
<g id="a_node6"><a xlink:href="classWalkingClient.html" target="_top" xlink:title="WalkingClient">
<polygon fill="white" stroke="black" points="136.392,-0.5 136.392,-18.5 213.159,-18.5 213.159,-0.5 136.392,-0.5"/>
<text text-anchor="middle" x="174.775" y="-6.5" font-family="Helvetica,sans-Serif" font-size="10.00">WalkingClient</text>
</a>
</g>
</g>
<!-- Node17&#45;&gt;Node22 -->
<g id="edge5" class="edge"><title>Node17&#45;&gt;Node22</title>
<path fill="none" stroke="midnightblue" d="M62.1591,-68.0074C77.2916,-56.0325 99.5293,-39.6683 120.916,-28.5 128.177,-24.7082 136.364,-21.3591 144.088,-18.5705"/>
<polygon fill="midnightblue" stroke="midnightblue" points="59.7201,-65.4779 54.1306,-74.4784 64.1129,-70.928 59.7201,-65.4779"/>
</g>
</g>
</svg>
