<?xml version="1.0" encoding="UTF-8" standalone="no"?>
<!DOCTYPE svg PUBLIC "-//W3C//DTD SVG 1.1//EN"
 "http://www.w3.org/Graphics/SVG/1.1/DTD/svg11.dtd">
<!-- Generated by graphviz version 2.38.0 (20140413.2041)
 -->
<!-- Title: Graphical Class Hierarchy Pages: 1 -->
<svg width="279pt" height="74pt"
 viewBox="0.00 0.00 279.43 74.00" xmlns="http://www.w3.org/2000/svg" xmlns:xlink="http://www.w3.org/1999/xlink">
<g id="graph0" class="graph" transform="scale(1 1) rotate(0) translate(4 70)">
<title>Graphical Class Hierarchy</title>
<polygon fill="white" stroke="none" points="-4,4 -4,-70 275.433,-70 275.433,4 -4,4"/>
<!-- Node9 -->
<g id="node1" class="node"><title>Node9</title>
<polygon fill="white" stroke="#bfbfbf" points="0,-21.5 0,-39.5 67.1377,-39.5 67.1377,-21.5 0,-21.5"/>
<text text-anchor="middle" x="33.5688" y="-27.5" font-family="Helvetica,sans-Serif" font-size="10.00">PortReader</text>
</g>
<!-- Node0 -->
<g id="node2" class="node"><title>Node0</title>
<g id="a_node2"><a xlink:href="classThread_1_1ControllerRpcServerCallback.html" target="_top" xlink:title="A callback function which binds the rpc server port opened in the contoller server module to the cont...">
<polygon fill="white" stroke="black" points="115.372,-37.5 115.372,-65.5 259.199,-65.5 259.199,-37.5 115.372,-37.5"/>
<text text-anchor="start" x="123.372" y="-53.5" font-family="Helvetica,sans-Serif" font-size="10.00">Thread::ControllerRpcServer</text>
<text text-anchor="middle" x="187.285" y="-43.5" font-family="Helvetica,sans-Serif" font-size="10.00">Callback</text>
</a>
</g>
</g>
<!-- Node9&#45;&gt;Node0 -->
<g id="edge1" class="edge"><title>Node9&#45;&gt;Node0</title>
<path fill="none" stroke="midnightblue" d="M77.4384,-36.4338C89.1868,-38.06 102.246,-39.8676 115.124,-41.6502"/>
<polygon fill="midnightblue" stroke="midnightblue" points="77.8745,-32.9609 67.489,-35.0567 76.9147,-39.8948 77.8745,-32.9609"/>
</g>
<!-- Node11 -->
<g id="node3" class="node"><title>Node11</title>
<g id="a_node3"><a xlink:href="classThread_1_1DebugRpcServerCallback.html" target="_top" xlink:title="A callback function which binds the rpc server port opened in the contoller server module to the cont...">
<polygon fill="white" stroke="black" points="103.138,-0.5 103.138,-18.5 271.433,-18.5 271.433,-0.5 103.138,-0.5"/>
<text text-anchor="middle" x="187.285" y="-6.5" font-family="Helvetica,sans-Serif" font-size="10.00">Thread::DebugRpcServerCallback</text>
</a>
</g>
</g>
<!-- Node9&#45;&gt;Node11 -->
<g id="edge2" class="edge"><title>Node9&#45;&gt;Node11</title>
<path fill="none" stroke="midnightblue" d="M77.4627,-24.5628C90.9977,-22.6893 106.271,-20.5753 121.001,-18.5363"/>
<polygon fill="midnightblue" stroke="midnightblue" points="76.9147,-21.1052 67.489,-25.9433 77.8745,-28.0391 76.9147,-21.1052"/>
</g>
</g>
</svg>
