<?xml version="1.0" encoding="UTF-8" standalone="no"?>
<!DOCTYPE svg PUBLIC "-//W3C//DTD SVG 1.1//EN"
 "http://www.w3.org/Graphics/SVG/1.1/DTD/svg11.dtd">
<!-- Generated by graphviz version 2.38.0 (20140413.2041)
 -->
<!-- Title: /Users/jorhabibeljaik/Code/codyco&#45;superbuild/main/ocra&#45;wbi&#45;plugins/ocra&#45;icub/src/ModelInitializer.cpp Pages: 1 -->
<svg width="2605pt" height="342pt"
 viewBox="0.00 0.00 2604.71 342.00" xmlns="http://www.w3.org/2000/svg" xmlns:xlink="http://www.w3.org/1999/xlink">
<g id="graph0" class="graph" transform="scale(1 1) rotate(0) translate(4 338)">
<title>/Users/jorhabibeljaik/Code/codyco&#45;superbuild/main/ocra&#45;wbi&#45;plugins/ocra&#45;icub/src/ModelInitializer.cpp</title>
<polygon fill="white" stroke="none" points="-4,4 -4,-338 2600.71,-338 2600.71,4 -4,4"/>
<!-- Node0 -->
<g id="node1" class="node"><title>Node0</title>
<polygon fill="#bfbfbf" stroke="black" points="1395.38,-285.5 1395.38,-333.5 1559.22,-333.5 1559.22,-285.5 1395.38,-285.5"/>
<text text-anchor="start" x="1403.38" y="-321.5" font-family="Helvetica,sans-Serif" font-size="10.00">/Users/jorhabibeljaik</text>
<text text-anchor="start" x="1403.38" y="-311.5" font-family="Helvetica,sans-Serif" font-size="10.00">/Code/codyco&#45;superbuild</text>
<text text-anchor="start" x="1403.38" y="-301.5" font-family="Helvetica,sans-Serif" font-size="10.00">/main/ocra&#45;wbi&#45;plugins</text>
<text text-anchor="middle" x="1477.3" y="-291.5" font-family="Helvetica,sans-Serif" font-size="10.00">/ocra&#45;icub/src/ModelInitializer.cpp</text>
</g>
<!-- Node1 -->
<g id="node2" class="node"><title>Node1</title>
<g id="a_node2"><a xlink:href="ModelInitializer_8h.html" target="_top" xlink:title="ocra&#45;icub/ModelInitializer.h">
<polygon fill="white" stroke="black" points="1410.1,-230.5 1410.1,-248.5 1544.5,-248.5 1544.5,-230.5 1410.1,-230.5"/>
<text text-anchor="middle" x="1477.3" y="-236.5" font-family="Helvetica,sans-Serif" font-size="10.00">ocra&#45;icub/ModelInitializer.h</text>
</a>
</g>
</g>
<!-- Node0&#45;&gt;Node1 -->
<g id="edge1" class="edge"><title>Node0&#45;&gt;Node1</title>
<path fill="none" stroke="midnightblue" d="M1477.3,-285.478C1477.3,-276.684 1477.3,-266.792 1477.3,-258.528"/>
<polygon fill="midnightblue" stroke="midnightblue" points="1480.8,-258.526 1477.3,-248.526 1473.8,-258.526 1480.8,-258.526"/>
</g>
<!-- Node2 -->
<g id="node3" class="node"><title>Node2</title>
<g id="a_node3"><a xlink:href="OcraWbiModel_8h.html" target="_top" xlink:title="Implementation of ocra::Model using wholeBodyInterface. ">
<polygon fill="white" stroke="black" points="1160.11,-175.5 1160.11,-193.5 1294.49,-193.5 1294.49,-175.5 1160.11,-175.5"/>
<text text-anchor="middle" x="1227.3" y="-181.5" font-family="Helvetica,sans-Serif" font-size="10.00">ocra&#45;icub/OcraWbiModel.h</text>
</a>
</g>
</g>
<!-- Node1&#45;&gt;Node2 -->
<g id="edge2" class="edge"><title>Node1&#45;&gt;Node2</title>
<path fill="none" stroke="midnightblue" d="M1439.33,-230.45C1395.33,-221.123 1322.78,-205.742 1275.01,-195.615"/>
<polygon fill="midnightblue" stroke="midnightblue" points="1275.73,-192.188 1265.22,-193.538 1274.27,-199.036 1275.73,-192.188"/>
</g>
<!-- Node4 -->
<g id="node5" class="node"><title>Node4</title>
<polygon fill="white" stroke="#bfbfbf" points="0,-0.5 0,-18.5 106.601,-18.5 106.601,-0.5 0,-0.5"/>
<text text-anchor="middle" x="53.3003" y="-6.5" font-family="Helvetica,sans-Serif" font-size="10.00">ocra/control/Model.h</text>
</g>
<!-- Node1&#45;&gt;Node4 -->
<g id="edge42" class="edge"><title>Node1&#45;&gt;Node4</title>
<path fill="none" stroke="midnightblue" d="M1409.85,-236.867C1286.59,-233.274 1016.85,-222.595 791.3,-194 661.156,-177.501 629.602,-166.36 501.3,-139 397.662,-116.899 371.131,-113.324 269.3,-84 202.662,-64.8105 126.152,-37.4942 84.4359,-22.1401"/>
<polygon fill="midnightblue" stroke="midnightblue" points="85.4449,-18.7816 74.8517,-18.5973 83.0179,-25.3474 85.4449,-18.7816"/>
</g>
<!-- Node6 -->
<g id="node7" class="node"><title>Node6</title>
<polygon fill="white" stroke="#bfbfbf" points="125.002,-0.5 125.002,-18.5 201.598,-18.5 201.598,-0.5 125.002,-0.5"/>
<text text-anchor="middle" x="163.3" y="-6.5" font-family="Helvetica,sans-Serif" font-size="10.00">yarp/os/Log.h</text>
</g>
<!-- Node1&#45;&gt;Node6 -->
<g id="edge47" class="edge"><title>Node1&#45;&gt;Node6</title>
<path fill="none" stroke="midnightblue" d="M1409.83,-236.181C1233.24,-228.63 744.309,-198.17 356.3,-84 296.249,-66.3303 228.342,-38.577 191.224,-22.7117"/>
<polygon fill="midnightblue" stroke="midnightblue" points="192.172,-19.3094 181.603,-18.5703 189.404,-25.739 192.172,-19.3094"/>
</g>
<!-- Node12 -->
<g id="node13" class="node"><title>Node12</title>
<polygon fill="white" stroke="#bfbfbf" points="1408.99,-55.5 1408.99,-83.5 1545.61,-83.5 1545.61,-55.5 1408.99,-55.5"/>
<text text-anchor="start" x="1416.99" y="-71.5" font-family="Helvetica,sans-Serif" font-size="10.00">yarpWholeBodyInterface</text>
<text text-anchor="middle" x="1477.3" y="-61.5" font-family="Helvetica,sans-Serif" font-size="10.00">/yarpWholeBodyInterface.h</text>
</g>
<!-- Node1&#45;&gt;Node12 -->
<g id="edge43" class="edge"><title>Node1&#45;&gt;Node12</title>
<path fill="none" stroke="midnightblue" d="M1477.3,-230.397C1477.3,-205.938 1477.3,-132.195 1477.3,-94"/>
<polygon fill="midnightblue" stroke="midnightblue" points="1480.8,-93.8099 1477.3,-83.8099 1473.8,-93.8099 1480.8,-93.8099"/>
</g>
<!-- Node22 -->
<g id="node23" class="node"><title>Node22</title>
<polygon fill="white" stroke="#bfbfbf" points="2366.67,-0.5 2366.67,-18.5 2469.93,-18.5 2469.93,-0.5 2366.67,-0.5"/>
<text text-anchor="middle" x="2418.3" y="-6.5" font-family="Helvetica,sans-Serif" font-size="10.00">yarp/os/RpcClient.h</text>
</g>
<!-- Node1&#45;&gt;Node22 -->
<g id="edge44" class="edge"><title>Node1&#45;&gt;Node22</title>
<path fill="none" stroke="midnightblue" d="M1479.69,-230.294C1488.9,-200.296 1525.27,-96.1952 1597.3,-55 1668.39,-14.3431 2235.99,-26.0331 2356.22,-18.8162"/>
<polygon fill="midnightblue" stroke="midnightblue" points="2356.71,-22.2892 2366.42,-18.0563 2356.19,-15.3085 2356.71,-22.2892"/>
</g>
<!-- Node26 -->
<g id="node27" class="node"><title>Node26</title>
<polygon fill="white" stroke="#bfbfbf" points="2487.89,-0.5 2487.89,-18.5 2596.71,-18.5 2596.71,-0.5 2487.89,-0.5"/>
<text text-anchor="middle" x="2542.3" y="-6.5" font-family="Helvetica,sans-Serif" font-size="10.00">yarp/os/LogStream.h</text>
</g>
<!-- Node1&#45;&gt;Node26 -->
<g id="edge46" class="edge"><title>Node1&#45;&gt;Node26</title>
<path fill="none" stroke="midnightblue" d="M1493.41,-230.453C1520.85,-217.059 1578.7,-190.168 1630.3,-175 1792.13,-127.426 2300.69,-47.4274 2479.43,-20.0352"/>
<polygon fill="midnightblue" stroke="midnightblue" points="2480.1,-23.4726 2489.46,-18.5 2479.04,-16.5531 2480.1,-23.4726"/>
</g>
<!-- Node32 -->
<g id="node33" class="node"><title>Node32</title>
<polygon fill="white" stroke="#bfbfbf" points="1639.01,-175.5 1639.01,-193.5 1735.59,-193.5 1735.59,-175.5 1639.01,-175.5"/>
<text text-anchor="middle" x="1687.3" y="-181.5" font-family="Helvetica,sans-Serif" font-size="10.00">yarp/os/Network.h</text>
</g>
<!-- Node1&#45;&gt;Node32 -->
<g id="edge45" class="edge"><title>Node1&#45;&gt;Node32</title>
<path fill="none" stroke="midnightblue" d="M1509.19,-230.45C1545.69,-221.24 1605.57,-206.128 1645.7,-195.999"/>
<polygon fill="midnightblue" stroke="midnightblue" points="1646.61,-199.379 1655.45,-193.538 1644.9,-192.592 1646.61,-199.379"/>
</g>
<!-- Node3 -->
<g id="node4" class="node"><title>Node3</title>
<polygon fill="white" stroke="#bfbfbf" points="2296.24,-0.5 2296.24,-18.5 2348.36,-18.5 2348.36,-0.5 2296.24,-0.5"/>
<text text-anchor="middle" x="2322.3" y="-6.5" font-family="Helvetica,sans-Serif" font-size="10.00">memory</text>
</g>
<!-- Node2&#45;&gt;Node3 -->
<g id="edge3" class="edge"><title>Node2&#45;&gt;Node3</title>
<path fill="none" stroke="midnightblue" d="M1240.14,-175.237C1253.58,-166.498 1275.2,-152.179 1293.3,-139 1296.35,-136.776 1396.75,-56.3066 1400.3,-55 1582.42,12.1123 2075.7,-44.5235 2285.94,-18.7995"/>
<polygon fill="midnightblue" stroke="midnightblue" points="2286.58,-22.2452 2296.03,-17.4684 2285.66,-15.3052 2286.58,-22.2452"/>
</g>
<!-- Node2&#45;&gt;Node4 -->
<g id="edge4" class="edge"><title>Node2&#45;&gt;Node4</title>
<path fill="none" stroke="midnightblue" d="M1160.07,-181.656C1047.19,-177.878 812.656,-167.104 616.3,-139 501.1,-122.511 473.785,-109.772 360.3,-84 265.573,-62.4878 154.85,-35.5304 95.6915,-20.9803"/>
<polygon fill="midnightblue" stroke="midnightblue" points="96.5018,-17.5754 85.955,-18.5831 94.8283,-24.3724 96.5018,-17.5754"/>
</g>
<!-- Node5 -->
<g id="node6" class="node"><title>Node5</title>
<polygon fill="white" stroke="#bfbfbf" points="2220.74,-0.5 2220.74,-18.5 2277.86,-18.5 2277.86,-0.5 2220.74,-0.5"/>
<text text-anchor="middle" x="2249.3" y="-6.5" font-family="Helvetica,sans-Serif" font-size="10.00">wbi/wbi.h</text>
</g>
<!-- Node2&#45;&gt;Node5 -->
<g id="edge5" class="edge"><title>Node2&#45;&gt;Node5</title>
<path fill="none" stroke="midnightblue" d="M1234.74,-175.349C1258.77,-149.226 1334.69,-68.5063 1367.3,-55 1451.57,-20.1049 2081.09,-30.6403 2210.35,-18.6399"/>
<polygon fill="midnightblue" stroke="midnightblue" points="2210.8,-22.1118 2220.35,-17.5315 2210.02,-15.1544 2210.8,-22.1118"/>
</g>
<!-- Node2&#45;&gt;Node6 -->
<g id="edge6" class="edge"><title>Node2&#45;&gt;Node6</title>
<path fill="none" stroke="midnightblue" d="M1159.95,-180.658C1062.32,-175.847 876.002,-164.065 719.3,-139 557.492,-113.118 519.998,-91.7197 360.3,-55 308.59,-43.1101 249.177,-29.7275 209.237,-20.7716"/>
<polygon fill="midnightblue" stroke="midnightblue" points="209.79,-17.309 199.267,-18.5374 208.26,-24.1396 209.79,-17.309"/>
</g>
<!-- Node7 -->
<g id="node8" class="node"><title>Node7</title>
<g id="a_node8"><a xlink:href="OcraWbiConversions_8h.html" target="_top" xlink:title="A utility class full of static conversion functions. ">
<polygon fill="white" stroke="black" points="727.941,-120.5 727.941,-138.5 890.66,-138.5 890.66,-120.5 727.941,-120.5"/>
<text text-anchor="middle" x="809.3" y="-126.5" font-family="Helvetica,sans-Serif" font-size="10.00">ocra&#45;icub/OcraWbiConversions.h</text>
</a>
</g>
</g>
<!-- Node2&#45;&gt;Node7 -->
<g id="edge7" class="edge"><title>Node2&#45;&gt;Node7</title>
<path fill="none" stroke="midnightblue" d="M1163.82,-175.45C1088.25,-165.87 962.314,-149.901 882.656,-139.801"/>
<polygon fill="midnightblue" stroke="midnightblue" points="883.058,-136.324 872.697,-138.538 882.177,-143.268 883.058,-136.324"/>
</g>
<!-- Node13 -->
<g id="node14" class="node"><title>Node13</title>
<g id="a_node14"><a xlink:href="Utilities_8h.html" target="_top" xlink:title="Some useful tools for the ocra&#45;icub lib. ">
<polygon fill="white" stroke="black" points="1177.06,-60.5 1177.06,-78.5 1277.54,-78.5 1277.54,-60.5 1177.06,-60.5"/>
<text text-anchor="middle" x="1227.3" y="-66.5" font-family="Helvetica,sans-Serif" font-size="10.00">ocra&#45;icub/Utilities.h</text>
</a>
</g>
</g>
<!-- Node2&#45;&gt;Node13 -->
<g id="edge41" class="edge"><title>Node2&#45;&gt;Node13</title>
<path fill="none" stroke="midnightblue" d="M1227.3,-175.373C1227.3,-157.374 1227.3,-113.774 1227.3,-88.8264"/>
<polygon fill="midnightblue" stroke="midnightblue" points="1230.8,-88.553 1227.3,-78.553 1223.8,-88.5531 1230.8,-88.553"/>
</g>
<!-- Node7&#45;&gt;Node5 -->
<g id="edge13" class="edge"><title>Node7&#45;&gt;Node5</title>
<path fill="none" stroke="midnightblue" d="M890.851,-125.762C1007.47,-121.021 1215.61,-109.258 1286.3,-84 1308.01,-76.2435 1307.4,-62.187 1329.3,-55 1512.68,5.17539 2000.74,-42.9086 2210.28,-18.7814"/>
<polygon fill="midnightblue" stroke="midnightblue" points="2210.85,-22.2373 2220.35,-17.5371 2210,-15.2901 2210.85,-22.2373"/>
</g>
<!-- Node7&#45;&gt;Node6 -->
<g id="edge12" class="edge"><title>Node7&#45;&gt;Node6</title>
<path fill="none" stroke="midnightblue" d="M770.201,-120.473C733.07,-112.49 675.867,-99.2567 627.3,-84 593.205,-73.2891 587.04,-63.3881 552.3,-55 406.922,-19.898 363.463,-39.718 211.88,-19.1076"/>
<polygon fill="midnightblue" stroke="midnightblue" points="212.125,-15.6079 201.737,-17.6905 211.156,-22.5406 212.125,-15.6079"/>
</g>
<!-- Node8 -->
<g id="node9" class="node"><title>Node8</title>
<polygon fill="white" stroke="#bfbfbf" points="327.128,-0.5 327.128,-18.5 381.473,-18.5 381.473,-0.5 327.128,-0.5"/>
<text text-anchor="middle" x="354.3" y="-6.5" font-family="Helvetica,sans-Serif" font-size="10.00">iostream</text>
</g>
<!-- Node7&#45;&gt;Node8 -->
<g id="edge8" class="edge"><title>Node7&#45;&gt;Node8</title>
<path fill="none" stroke="midnightblue" d="M805.714,-120.322C798.313,-104.553 779.715,-70.1602 752.3,-55 684.112,-17.2918 485.139,-31.2022 391.783,-18.8763"/>
<polygon fill="midnightblue" stroke="midnightblue" points="392.149,-15.3922 381.742,-17.3753 391.114,-22.3153 392.149,-15.3922"/>
</g>
<!-- Node9 -->
<g id="node10" class="node"><title>Node9</title>
<polygon fill="white" stroke="#bfbfbf" points="707.574,-60.5 707.574,-78.5 743.027,-78.5 743.027,-60.5 707.574,-60.5"/>
<text text-anchor="middle" x="725.3" y="-66.5" font-family="Helvetica,sans-Serif" font-size="10.00">map</text>
</g>
<!-- Node7&#45;&gt;Node9 -->
<g id="edge9" class="edge"><title>Node7&#45;&gt;Node9</title>
<path fill="none" stroke="midnightblue" d="M797.62,-120.435C784.156,-111.138 761.789,-95.6942 745.488,-84.4393"/>
<polygon fill="midnightblue" stroke="midnightblue" points="747.369,-81.4849 737.152,-78.6831 743.392,-87.2452 747.369,-81.4849"/>
</g>
<!-- Node10 -->
<g id="node11" class="node"><title>Node10</title>
<polygon fill="white" stroke="#bfbfbf" points="399.685,-0.5 399.685,-18.5 442.916,-18.5 442.916,-0.5 399.685,-0.5"/>
<text text-anchor="middle" x="421.3" y="-6.5" font-family="Helvetica,sans-Serif" font-size="10.00">vector</text>
</g>
<!-- Node7&#45;&gt;Node10 -->
<g id="edge10" class="edge"><title>Node7&#45;&gt;Node10</title>
<path fill="none" stroke="midnightblue" d="M809.304,-120.06C808.809,-104.461 805.317,-71.2347 785.3,-55 729.694,-9.90083 540.607,-31.1026 453.114,-18.6219"/>
<polygon fill="midnightblue" stroke="midnightblue" points="453.653,-15.1635 443.214,-16.9749 452.504,-22.0686 453.653,-15.1635"/>
</g>
<!-- Node11 -->
<g id="node12" class="node"><title>Node11</title>
<polygon fill="white" stroke="#bfbfbf" points="219.33,-0.5 219.33,-18.5 309.271,-18.5 309.271,-0.5 219.33,-0.5"/>
<text text-anchor="middle" x="264.3" y="-6.5" font-family="Helvetica,sans-Serif" font-size="10.00">yarp/sig/Vector.h</text>
</g>
<!-- Node7&#45;&gt;Node11 -->
<g id="edge11" class="edge"><title>Node7&#45;&gt;Node11</title>
<path fill="none" stroke="midnightblue" d="M788.826,-120.338C766.541,-111.443 729.863,-96.7726 698.3,-84 666.703,-71.2135 660.311,-63.495 627.3,-55 496.539,-21.3497 457.124,-36.9748 319.447,-19.0791"/>
<polygon fill="midnightblue" stroke="midnightblue" points="319.737,-15.5868 309.362,-17.7315 318.81,-22.5252 319.737,-15.5868"/>
</g>
<!-- Node7&#45;&gt;Node12 -->
<g id="edge14" class="edge"><title>Node7&#45;&gt;Node12</title>
<path fill="none" stroke="midnightblue" d="M890.876,-121.417C1020.32,-110.178 1271.15,-88.399 1398.71,-77.3239"/>
<polygon fill="midnightblue" stroke="midnightblue" points="1399.14,-80.8 1408.8,-76.4481 1398.53,-73.8263 1399.14,-80.8"/>
</g>
<!-- Node7&#45;&gt;Node13 -->
<g id="edge15" class="edge"><title>Node7&#45;&gt;Node13</title>
<path fill="none" stroke="midnightblue" d="M866.983,-120.496C945.805,-109.559 1086.52,-90.0343 1166.79,-78.8961"/>
<polygon fill="midnightblue" stroke="midnightblue" points="1167.32,-82.3556 1176.75,-77.5143 1166.36,-75.422 1167.32,-82.3556"/>
</g>
<!-- Node13&#45;&gt;Node3 -->
<g id="edge16" class="edge"><title>Node13&#45;&gt;Node3</title>
<path fill="none" stroke="midnightblue" d="M1277.79,-62.9303C1304.39,-60.1733 1337.58,-57.0129 1367.3,-55 1772.28,-27.5732 1880.29,-74.7934 2286.09,-18.8561"/>
<polygon fill="midnightblue" stroke="midnightblue" points="2286.61,-22.3169 2296.04,-17.4726 2285.65,-15.3837 2286.61,-22.3169"/>
</g>
<!-- Node13&#45;&gt;Node4 -->
<g id="edge37" class="edge"><title>Node13&#45;&gt;Node4</title>
<path fill="none" stroke="midnightblue" d="M1176.94,-66.8573C991.564,-60.7188 346.567,-38.5226 117.16,-18.9613"/>
<polygon fill="midnightblue" stroke="midnightblue" points="117.147,-15.4468 106.88,-18.0612 116.536,-22.4202 117.147,-15.4468"/>
</g>
<!-- Node13&#45;&gt;Node5 -->
<g id="edge36" class="edge"><title>Node13&#45;&gt;Node5</title>
<path fill="none" stroke="midnightblue" d="M1260.01,-60.4912C1269.99,-58.3468 1281.05,-56.273 1291.3,-55 1694.11,-4.99798 1803.77,-70.802 2210.38,-18.832"/>
<polygon fill="midnightblue" stroke="midnightblue" points="2210.88,-22.2967 2220.35,-17.5422 2209.98,-15.3546 2210.88,-22.2967"/>
</g>
<!-- Node13&#45;&gt;Node6 -->
<g id="edge31" class="edge"><title>Node13&#45;&gt;Node6</title>
<path fill="none" stroke="midnightblue" d="M1176.95,-66.9196C1002.05,-61.2962 420.605,-41.449 211.959,-19.0067"/>
<polygon fill="midnightblue" stroke="midnightblue" points="212.04,-15.4942 201.714,-17.8679 211.266,-22.4514 212.04,-15.4942"/>
</g>
<!-- Node13&#45;&gt;Node8 -->
<g id="edge18" class="edge"><title>Node13&#45;&gt;Node8</title>
<path fill="none" stroke="midnightblue" d="M1176.82,-66.6608C1023.28,-60.8894 562.467,-42.2142 391.814,-18.9234"/>
<polygon fill="midnightblue" stroke="midnightblue" points="392.116,-15.4314 381.723,-17.4903 391.132,-22.3618 392.116,-15.4314"/>
</g>
<!-- Node13&#45;&gt;Node10 -->
<g id="edge20" class="edge"><title>Node13&#45;&gt;Node10</title>
<path fill="none" stroke="midnightblue" d="M1176.88,-66.624C1031.3,-60.9987 611.171,-43.2466 453.212,-18.7217"/>
<polygon fill="midnightblue" stroke="midnightblue" points="453.624,-15.2428 443.192,-17.0965 452.503,-22.1525 453.624,-15.2428"/>
</g>
<!-- Node13&#45;&gt;Node11 -->
<g id="edge34" class="edge"><title>Node13&#45;&gt;Node11</title>
<path fill="none" stroke="midnightblue" d="M1176.9,-67.5534C1040.49,-64.6074 652.497,-53.6844 319.663,-19.0248"/>
<polygon fill="midnightblue" stroke="midnightblue" points="319.647,-15.504 309.336,-17.9399 318.916,-22.4657 319.647,-15.504"/>
</g>
<!-- Node14 -->
<g id="node15" class="node"><title>Node14</title>
<polygon fill="white" stroke="#bfbfbf" points="1662.68,-0.5 1662.68,-18.5 1705.92,-18.5 1705.92,-0.5 1662.68,-0.5"/>
<text text-anchor="middle" x="1684.3" y="-6.5" font-family="Helvetica,sans-Serif" font-size="10.00">cmath</text>
</g>
<!-- Node13&#45;&gt;Node14 -->
<g id="edge17" class="edge"><title>Node13&#45;&gt;Node14</title>
<path fill="none" stroke="midnightblue" d="M1262.05,-60.4521C1271.5,-58.46 1281.76,-56.4759 1291.3,-55 1447.8,-30.7852 1492.51,-47.7531 1652.21,-18.8736"/>
<polygon fill="midnightblue" stroke="midnightblue" points="1653.19,-22.2515 1662.39,-16.9986 1651.92,-15.3672 1653.19,-22.2515"/>
</g>
<!-- Node15 -->
<g id="node16" class="node"><title>Node15</title>
<polygon fill="white" stroke="#bfbfbf" points="1724.07,-0.5 1724.07,-18.5 1764.53,-18.5 1764.53,-0.5 1724.07,-0.5"/>
<text text-anchor="middle" x="1744.3" y="-6.5" font-family="Helvetica,sans-Serif" font-size="10.00">string</text>
</g>
<!-- Node13&#45;&gt;Node15 -->
<g id="edge19" class="edge"><title>Node13&#45;&gt;Node15</title>
<path fill="none" stroke="midnightblue" d="M1261.7,-60.4303C1271.25,-58.4143 1281.64,-56.4236 1291.3,-55 1475.2,-27.9018 1527.62,-52.8871 1713.98,-18.8799"/>
<polygon fill="midnightblue" stroke="midnightblue" points="1714.64,-22.319 1723.83,-17.052 1713.36,-15.4366 1714.64,-22.319"/>
</g>
<!-- Node16 -->
<g id="node17" class="node"><title>Node16</title>
<polygon fill="white" stroke="#bfbfbf" points="1782.52,-0.5 1782.52,-18.5 1834.08,-18.5 1834.08,-0.5 1782.52,-0.5"/>
<text text-anchor="middle" x="1808.3" y="-6.5" font-family="Helvetica,sans-Serif" font-size="10.00">sstream</text>
</g>
<!-- Node13&#45;&gt;Node16 -->
<g id="edge21" class="edge"><title>Node13&#45;&gt;Node16</title>
<path fill="none" stroke="midnightblue" d="M1261.36,-60.4358C1270.99,-58.3951 1281.52,-56.3905 1291.3,-55 1500.76,-25.2217 1559.34,-51.6352 1772.46,-18.844"/>
<polygon fill="midnightblue" stroke="midnightblue" points="1773.06,-22.293 1782.4,-17.2897 1771.98,-15.3771 1773.06,-22.293"/>
</g>
<!-- Node17 -->
<g id="node18" class="node"><title>Node17</title>
<polygon fill="white" stroke="#bfbfbf" points="1852.36,-0.5 1852.36,-18.5 1968.24,-18.5 1968.24,-0.5 1852.36,-0.5"/>
<text text-anchor="middle" x="1910.3" y="-6.5" font-family="Helvetica,sans-Serif" font-size="10.00">yarp/os/BufferedPort.h</text>
</g>
<!-- Node13&#45;&gt;Node17 -->
<g id="edge22" class="edge"><title>Node13&#45;&gt;Node17</title>
<path fill="none" stroke="midnightblue" d="M1261.02,-60.4459C1270.74,-58.3801 1281.4,-56.3599 1291.3,-55 1531.54,-22.0006 1596.79,-41.9198 1841.92,-19.0641"/>
<polygon fill="midnightblue" stroke="midnightblue" points="1842.59,-22.5161 1852.22,-18.0888 1841.93,-15.5473 1842.59,-22.5161"/>
</g>
<!-- Node18 -->
<g id="node19" class="node"><title>Node18</title>
<polygon fill="white" stroke="#bfbfbf" points="1986.56,-0.5 1986.56,-18.5 2072.04,-18.5 2072.04,-0.5 1986.56,-0.5"/>
<text text-anchor="middle" x="2029.3" y="-6.5" font-family="Helvetica,sans-Serif" font-size="10.00">yarp/os/Bottle.h</text>
</g>
<!-- Node13&#45;&gt;Node18 -->
<g id="edge23" class="edge"><title>Node13&#45;&gt;Node18</title>
<path fill="none" stroke="midnightblue" d="M1260.68,-60.4352C1270.49,-58.3431 1281.28,-56.3118 1291.3,-55 1590.77,-15.7989 1672.01,-50.9041 1976.5,-18.9423"/>
<polygon fill="midnightblue" stroke="midnightblue" points="1976.93,-22.4169 1986.5,-17.8772 1976.19,-15.4562 1976.93,-22.4169"/>
</g>
<!-- Node19 -->
<g id="node20" class="node"><title>Node19</title>
<polygon fill="white" stroke="#bfbfbf" points="2089.94,-0.5 2089.94,-18.5 2202.66,-18.5 2202.66,-0.5 2089.94,-0.5"/>
<text text-anchor="middle" x="2146.3" y="-6.5" font-family="Helvetica,sans-Serif" font-size="10.00">yarp/os/RateThread.h</text>
</g>
<!-- Node13&#45;&gt;Node19 -->
<g id="edge24" class="edge"><title>Node13&#45;&gt;Node19</title>
<path fill="none" stroke="midnightblue" d="M1260.34,-60.4616C1270.24,-58.3435 1281.16,-56.2916 1291.3,-55 1636.64,-11.0051 1729.42,-49.0751 2079.44,-19.0838"/>
<polygon fill="midnightblue" stroke="midnightblue" points="2079.95,-22.553 2089.61,-18.1999 2079.35,-15.5793 2079.95,-22.553"/>
</g>
<!-- Node20 -->
<g id="node21" class="node"><title>Node20</title>
<polygon fill="white" stroke="#bfbfbf" points="461.047,-0.5 461.047,-18.5 591.554,-18.5 591.554,-0.5 461.047,-0.5"/>
<text text-anchor="middle" x="526.3" y="-6.5" font-family="Helvetica,sans-Serif" font-size="10.00">yarp/os/ResourceFinder.h</text>
</g>
<!-- Node13&#45;&gt;Node20 -->
<g id="edge25" class="edge"><title>Node13&#45;&gt;Node20</title>
<path fill="none" stroke="midnightblue" d="M1176.94,-65.1005C1072.15,-57.9007 822.782,-40.11 601.897,-19.0227"/>
<polygon fill="midnightblue" stroke="midnightblue" points="602.022,-15.5186 591.733,-18.0481 601.353,-22.4867 602.022,-15.5186"/>
</g>
<!-- Node21 -->
<g id="node22" class="node"><title>Node21</title>
<polygon fill="white" stroke="#bfbfbf" points="610.049,-0.5 610.049,-18.5 720.551,-18.5 720.551,-0.5 610.049,-0.5"/>
<text text-anchor="middle" x="665.3" y="-6.5" font-family="Helvetica,sans-Serif" font-size="10.00">yarp/os/PortReader.h</text>
</g>
<!-- Node13&#45;&gt;Node21 -->
<g id="edge26" class="edge"><title>Node13&#45;&gt;Node21</title>
<path fill="none" stroke="midnightblue" d="M1176.8,-63.9879C1088.68,-56.0009 900.848,-38.4752 730.748,-19.0149"/>
<polygon fill="midnightblue" stroke="midnightblue" points="730.939,-15.5139 720.604,-17.8497 730.14,-22.4682 730.939,-15.5139"/>
</g>
<!-- Node13&#45;&gt;Node22 -->
<g id="edge27" class="edge"><title>Node13&#45;&gt;Node22</title>
<path fill="none" stroke="midnightblue" d="M1277.61,-64.0366C1312.11,-61.1075 1358.95,-57.3904 1400.3,-55 1821.91,-30.6301 1931.61,-56.0158 2356.33,-18.9774"/>
<polygon fill="midnightblue" stroke="midnightblue" points="2356.77,-22.4527 2366.43,-18.0909 2356.16,-15.4795 2356.77,-22.4527"/>
</g>
<!-- Node23 -->
<g id="node24" class="node"><title>Node23</title>
<polygon fill="white" stroke="#bfbfbf" points="739,-0.5 739,-18.5 845.601,-18.5 845.601,-0.5 739,-0.5"/>
<text text-anchor="middle" x="792.3" y="-6.5" font-family="Helvetica,sans-Serif" font-size="10.00">yarp/os/RpcServer.h</text>
</g>
<!-- Node13&#45;&gt;Node23 -->
<g id="edge28" class="edge"><title>Node13&#45;&gt;Node23</title>
<path fill="none" stroke="midnightblue" d="M1177.05,-61.8437C1107.53,-52.6261 977.75,-35.3983 856.15,-19.1117"/>
<polygon fill="midnightblue" stroke="midnightblue" points="856.292,-15.5995 845.916,-17.7406 855.362,-22.5375 856.292,-15.5995"/>
</g>
<!-- Node24 -->
<g id="node25" class="node"><title>Node24</title>
<polygon fill="white" stroke="#bfbfbf" points="863.924,-0.5 863.924,-18.5 1006.68,-18.5 1006.68,-0.5 863.924,-0.5"/>
<text text-anchor="middle" x="935.3" y="-6.5" font-family="Helvetica,sans-Serif" font-size="10.00">yarp/os/ConnectionReader.h</text>
</g>
<!-- Node13&#45;&gt;Node24 -->
<g id="edge29" class="edge"><title>Node13&#45;&gt;Node24</title>
<path fill="none" stroke="midnightblue" d="M1187.01,-60.4962C1134.46,-50.0598 1042.55,-31.8039 985.529,-20.4768"/>
<polygon fill="midnightblue" stroke="midnightblue" points="986.14,-17.0301 975.65,-18.5147 984.777,-23.8959 986.14,-17.0301"/>
</g>
<!-- Node25 -->
<g id="node26" class="node"><title>Node25</title>
<polygon fill="white" stroke="#bfbfbf" points="1024.42,-0.5 1024.42,-18.5 1106.18,-18.5 1106.18,-0.5 1024.42,-0.5"/>
<text text-anchor="middle" x="1065.3" y="-6.5" font-family="Helvetica,sans-Serif" font-size="10.00">yarp/os/Time.h</text>
</g>
<!-- Node13&#45;&gt;Node25 -->
<g id="edge30" class="edge"><title>Node13&#45;&gt;Node25</title>
<path fill="none" stroke="midnightblue" d="M1204.77,-60.4353C1176.93,-50.4645 1129.33,-33.4237 1097.6,-22.0624"/>
<polygon fill="midnightblue" stroke="midnightblue" points="1098.49,-18.6651 1087.89,-18.5894 1096.13,-25.2554 1098.49,-18.6651"/>
</g>
<!-- Node13&#45;&gt;Node26 -->
<g id="edge32" class="edge"><title>Node13&#45;&gt;Node26</title>
<path fill="none" stroke="midnightblue" d="M1277.6,-63.9802C1312.1,-61.0262 1358.94,-57.3025 1400.3,-55 1875.99,-28.5176 1999.42,-58.696 2477.42,-19.0674"/>
<polygon fill="midnightblue" stroke="midnightblue" points="2478.03,-22.5291 2487.7,-18.209 2477.44,-15.5534 2478.03,-22.5291"/>
</g>
<!-- Node27 -->
<g id="node28" class="node"><title>Node27</title>
<polygon fill="white" stroke="#bfbfbf" points="1123.82,-0.5 1123.82,-18.5 1220.78,-18.5 1220.78,-0.5 1123.82,-0.5"/>
<text text-anchor="middle" x="1172.3" y="-6.5" font-family="Helvetica,sans-Serif" font-size="10.00">yarp/os/Property.h</text>
</g>
<!-- Node13&#45;&gt;Node27 -->
<g id="edge33" class="edge"><title>Node13&#45;&gt;Node27</title>
<path fill="none" stroke="midnightblue" d="M1219.65,-60.4353C1211.29,-51.6187 1197.69,-37.2743 1187.2,-26.2165"/>
<polygon fill="midnightblue" stroke="midnightblue" points="1189.66,-23.7197 1180.24,-18.8718 1184.58,-28.5364 1189.66,-23.7197"/>
</g>
<!-- Node28 -->
<g id="node29" class="node"><title>Node28</title>
<polygon fill="white" stroke="#bfbfbf" points="1238.62,-0.5 1238.62,-18.5 1327.98,-18.5 1327.98,-0.5 1238.62,-0.5"/>
<text text-anchor="middle" x="1283.3" y="-6.5" font-family="Helvetica,sans-Serif" font-size="10.00">yarp/sig/Matrix.h</text>
</g>
<!-- Node13&#45;&gt;Node28 -->
<g id="edge35" class="edge"><title>Node13&#45;&gt;Node28</title>
<path fill="none" stroke="midnightblue" d="M1235.09,-60.4353C1243.6,-51.6187 1257.45,-37.2743 1268.13,-26.2165"/>
<polygon fill="midnightblue" stroke="midnightblue" points="1270.79,-28.4969 1275.22,-18.8718 1265.75,-23.6347 1270.79,-28.4969"/>
</g>
<!-- Node29 -->
<g id="node30" class="node"><title>Node29</title>
<polygon fill="white" stroke="#bfbfbf" points="1346.06,-0.5 1346.06,-18.5 1466.54,-18.5 1466.54,-0.5 1346.06,-0.5"/>
<text text-anchor="middle" x="1406.3" y="-6.5" font-family="Helvetica,sans-Serif" font-size="10.00">ocra/util/StringUtilities.h</text>
</g>
<!-- Node13&#45;&gt;Node29 -->
<g id="edge38" class="edge"><title>Node13&#45;&gt;Node29</title>
<path fill="none" stroke="midnightblue" d="M1252.19,-60.4353C1283.23,-50.3782 1336.47,-33.128 1371.52,-21.7686"/>
<polygon fill="midnightblue" stroke="midnightblue" points="1372.9,-25.0015 1381.33,-18.5894 1370.74,-18.3424 1372.9,-25.0015"/>
</g>
<!-- Node30 -->
<g id="node31" class="node"><title>Node30</title>
<polygon fill="white" stroke="#bfbfbf" points="1484.67,-0.5 1484.67,-18.5 1557.93,-18.5 1557.93,-0.5 1484.67,-0.5"/>
<text text-anchor="middle" x="1521.3" y="-6.5" font-family="Helvetica,sans-Serif" font-size="10.00">Eigen/Dense</text>
</g>
<!-- Node13&#45;&gt;Node30 -->
<g id="edge39" class="edge"><title>Node13&#45;&gt;Node30</title>
<path fill="none" stroke="midnightblue" d="M1264.84,-60.4709C1273.53,-58.6447 1282.73,-56.7329 1291.3,-55 1354.68,-42.186 1428.04,-28.1259 1474.54,-19.309"/>
<polygon fill="midnightblue" stroke="midnightblue" points="1475.44,-22.7008 1484.62,-17.4013 1474.14,-15.823 1475.44,-22.7008"/>
</g>
<!-- Node31 -->
<g id="node32" class="node"><title>Node31</title>
<polygon fill="white" stroke="#bfbfbf" points="1575.9,-0.5 1575.9,-18.5 1644.7,-18.5 1644.7,-0.5 1575.9,-0.5"/>
<text text-anchor="middle" x="1610.3" y="-6.5" font-family="Helvetica,sans-Serif" font-size="10.00">Eigen/Lgsm</text>
</g>
<!-- Node13&#45;&gt;Node31 -->
<g id="edge40" class="edge"><title>Node13&#45;&gt;Node31</title>
<path fill="none" stroke="midnightblue" d="M1263.09,-60.436C1272.26,-58.5116 1282.12,-56.5643 1291.3,-55 1410.03,-34.7659 1443.47,-38.7707 1565.49,-19.2039"/>
<polygon fill="midnightblue" stroke="midnightblue" points="1566.29,-22.6196 1575.6,-17.5614 1565.17,-15.7102 1566.29,-22.6196"/>
</g>
</g>
</svg>
