<?xml version="1.0" encoding="UTF-8" standalone="no"?>
<!DOCTYPE svg PUBLIC "-//W3C//DTD SVG 1.1//EN"
 "http://www.w3.org/Graphics/SVG/1.1/DTD/svg11.dtd">
<!-- Generated by graphviz version 2.38.0 (20140413.2041)
 -->
<!-- Title: /Users/jorhabibeljaik/Code/codyco&#45;superbuild/main/ocra&#45;wbi&#45;plugins/ocra&#45;icub/include/ocra&#45;icub/ModelInitializer.h Pages: 1 -->
<svg width="2009pt" height="372pt"
 viewBox="0.00 0.00 2009.08 372.00" xmlns="http://www.w3.org/2000/svg" xmlns:xlink="http://www.w3.org/1999/xlink">
<g id="graph0" class="graph" transform="scale(1 1) rotate(0) translate(4 368)">
<title>/Users/jorhabibeljaik/Code/codyco&#45;superbuild/main/ocra&#45;wbi&#45;plugins/ocra&#45;icub/include/ocra&#45;icub/ModelInitializer.h</title>
<polygon fill="white" stroke="none" points="-4,4 -4,-368 2005.08,-368 2005.08,4 -4,4"/>
<!-- Node32 -->
<g id="node1" class="node"><title>Node32</title>
<polygon fill="#bfbfbf" stroke="black" points="943.158,-305.5 943.158,-363.5 1069.78,-363.5 1069.78,-305.5 943.158,-305.5"/>
<text text-anchor="start" x="951.158" y="-351.5" font-family="Helvetica,sans-Serif" font-size="10.00">/Users/jorhabibeljaik</text>
<text text-anchor="start" x="951.158" y="-341.5" font-family="Helvetica,sans-Serif" font-size="10.00">/Code/codyco&#45;superbuild</text>
<text text-anchor="start" x="951.158" y="-331.5" font-family="Helvetica,sans-Serif" font-size="10.00">/main/ocra&#45;wbi&#45;plugins</text>
<text text-anchor="start" x="951.158" y="-321.5" font-family="Helvetica,sans-Serif" font-size="10.00">/ocra&#45;icub/include/ocra</text>
<text text-anchor="middle" x="1006.47" y="-311.5" font-family="Helvetica,sans-Serif" font-size="10.00">&#45;icub/ModelInitializer.h</text>
</g>
<!-- Node33 -->
<g id="node2" class="node"><title>Node33</title>
<g id="a_node2"><a xlink:href="IcubClient_8h.html" target="_top" xlink:title="/Users/jorhabibeljaik\l/Code/codyco&#45;superbuild\l/main/ocra&#45;wbi&#45;plugins\l/ocra&#45;icub/include/ocra\l&#45;icub/IcubClient.h">
<polygon fill="white" stroke="black" points="862.158,-210.5 862.158,-268.5 988.778,-268.5 988.778,-210.5 862.158,-210.5"/>
<text text-anchor="start" x="870.158" y="-256.5" font-family="Helvetica,sans-Serif" font-size="10.00">/Users/jorhabibeljaik</text>
<text text-anchor="start" x="870.158" y="-246.5" font-family="Helvetica,sans-Serif" font-size="10.00">/Code/codyco&#45;superbuild</text>
<text text-anchor="start" x="870.158" y="-236.5" font-family="Helvetica,sans-Serif" font-size="10.00">/main/ocra&#45;wbi&#45;plugins</text>
<text text-anchor="start" x="870.158" y="-226.5" font-family="Helvetica,sans-Serif" font-size="10.00">/ocra&#45;icub/include/ocra</text>
<text text-anchor="middle" x="925.468" y="-216.5" font-family="Helvetica,sans-Serif" font-size="10.00">&#45;icub/IcubClient.h</text>
</a>
</g>
</g>
<!-- Node32&#45;&gt;Node33 -->
<g id="edge1" class="edge"><title>Node32&#45;&gt;Node33</title>
<path fill="none" stroke="midnightblue" d="M975.339,-297.759C966.911,-288.083 957.91,-277.748 949.907,-268.56"/>
<polygon fill="midnightblue" stroke="midnightblue" points="972.738,-300.102 981.945,-305.345 978.017,-295.505 972.738,-300.102"/>
</g>
<!-- Node52 -->
<g id="node21" class="node"><title>Node52</title>
<g id="a_node21"><a xlink:href="ModelInitializer_8cpp.html" target="_top" xlink:title="/Users/jorhabibeljaik\l/Code/codyco&#45;superbuild\l/main/ocra&#45;wbi&#45;plugins\l/ocra&#45;icub/src/ModelInitializer.cpp">
<polygon fill="white" stroke="black" points="1006.55,-215.5 1006.55,-263.5 1170.39,-263.5 1170.39,-215.5 1006.55,-215.5"/>
<text text-anchor="start" x="1014.55" y="-251.5" font-family="Helvetica,sans-Serif" font-size="10.00">/Users/jorhabibeljaik</text>
<text text-anchor="start" x="1014.55" y="-241.5" font-family="Helvetica,sans-Serif" font-size="10.00">/Code/codyco&#45;superbuild</text>
<text text-anchor="start" x="1014.55" y="-231.5" font-family="Helvetica,sans-Serif" font-size="10.00">/main/ocra&#45;wbi&#45;plugins</text>
<text text-anchor="middle" x="1088.47" y="-221.5" font-family="Helvetica,sans-Serif" font-size="10.00">/ocra&#45;icub/src/ModelInitializer.cpp</text>
</a>
</g>
</g>
<!-- Node32&#45;&gt;Node52 -->
<g id="edge26" class="edge"><title>Node32&#45;&gt;Node52</title>
<path fill="none" stroke="midnightblue" d="M1038.11,-297.609C1048.2,-286.174 1059.08,-273.835 1068.13,-263.562"/>
<polygon fill="midnightblue" stroke="midnightblue" points="1035.28,-295.529 1031.29,-305.345 1040.53,-300.159 1035.28,-295.529"/>
</g>
<!-- Node34 -->
<g id="node3" class="node"><title>Node34</title>
<g id="a_node3"><a xlink:href="ExampleClient_8h.html" target="_top" xlink:title="/Users/jorhabibeljaik\l/Code/codyco&#45;superbuild\l/main/ocra&#45;wbi&#45;plugins\l/ocra&#45;icub&#45;clients/example\l&#45;client/include/example&#45;client\l/ExampleClient.h">
<polygon fill="white" stroke="black" points="163.271,-105.5 163.271,-173.5 307.665,-173.5 307.665,-105.5 163.271,-105.5"/>
<text text-anchor="start" x="171.271" y="-161.5" font-family="Helvetica,sans-Serif" font-size="10.00">/Users/jorhabibeljaik</text>
<text text-anchor="start" x="171.271" y="-151.5" font-family="Helvetica,sans-Serif" font-size="10.00">/Code/codyco&#45;superbuild</text>
<text text-anchor="start" x="171.271" y="-141.5" font-family="Helvetica,sans-Serif" font-size="10.00">/main/ocra&#45;wbi&#45;plugins</text>
<text text-anchor="start" x="171.271" y="-131.5" font-family="Helvetica,sans-Serif" font-size="10.00">/ocra&#45;icub&#45;clients/example</text>
<text text-anchor="start" x="171.271" y="-121.5" font-family="Helvetica,sans-Serif" font-size="10.00">&#45;client/include/example&#45;client</text>
<text text-anchor="middle" x="235.468" y="-111.5" font-family="Helvetica,sans-Serif" font-size="10.00">/ExampleClient.h</text>
</a>
</g>
</g>
<!-- Node33&#45;&gt;Node34 -->
<g id="edge2" class="edge"><title>Node33&#45;&gt;Node34</title>
<path fill="none" stroke="midnightblue" d="M851.959,-230.901C751.513,-220.159 565.867,-199.029 408.468,-174 375.384,-168.739 338.951,-161.85 308.087,-155.688"/>
<polygon fill="midnightblue" stroke="midnightblue" points="851.688,-234.392 862.002,-231.971 852.429,-227.431 851.688,-234.392"/>
</g>
<!-- Node35 -->
<g id="node4" class="node"><title>Node35</title>
<g id="a_node4"><a xlink:href="example-client_8cpp.html" target="_top" xlink:title="/Users/jorhabibeljaik\l/Code/codyco&#45;superbuild\l/main/ocra&#45;wbi&#45;plugins\l/ocra&#45;icub&#45;clients/example\l&#45;client/src/example&#45;client.cpp">
<polygon fill="white" stroke="black" points="0,-5.5 0,-63.5 144.936,-63.5 144.936,-5.5 0,-5.5"/>
<text text-anchor="start" x="8" y="-51.5" font-family="Helvetica,sans-Serif" font-size="10.00">/Users/jorhabibeljaik</text>
<text text-anchor="start" x="8" y="-41.5" font-family="Helvetica,sans-Serif" font-size="10.00">/Code/codyco&#45;superbuild</text>
<text text-anchor="start" x="8" y="-31.5" font-family="Helvetica,sans-Serif" font-size="10.00">/main/ocra&#45;wbi&#45;plugins</text>
<text text-anchor="start" x="8" y="-21.5" font-family="Helvetica,sans-Serif" font-size="10.00">/ocra&#45;icub&#45;clients/example</text>
<text text-anchor="middle" x="72.4678" y="-11.5" font-family="Helvetica,sans-Serif" font-size="10.00">&#45;client/src/example&#45;client.cpp</text>
</a>
</g>
</g>
<!-- Node33&#45;&gt;Node35 -->
<g id="edge5" class="edge"><title>Node33&#45;&gt;Node35</title>
<path fill="none" stroke="midnightblue" d="M851.884,-236.161C670.555,-229.861 212.699,-210.496 154.468,-174 114.335,-148.847 91.3986,-96.2851 80.4809,-63.6366"/>
<polygon fill="midnightblue" stroke="midnightblue" points="852.012,-239.667 862.127,-236.513 852.253,-232.672 852.012,-239.667"/>
</g>
<!-- Node37 -->
<g id="node6" class="node"><title>Node37</title>
<g id="a_node6"><a xlink:href="SittingDemoClient_8h.html" target="_top" xlink:title="/Users/jorhabibeljaik\l/Code/codyco&#45;superbuild\l/main/ocra&#45;wbi&#45;plugins\l/ocra&#45;icub&#45;clients/sitting\l&#45;demo/include/sitting&#45;demo\l/SittingDemoClient.h">
<polygon fill="white" stroke="black" points="483.438,-105.5 483.438,-173.5 619.497,-173.5 619.497,-105.5 483.438,-105.5"/>
<text text-anchor="start" x="491.438" y="-161.5" font-family="Helvetica,sans-Serif" font-size="10.00">/Users/jorhabibeljaik</text>
<text text-anchor="start" x="491.438" y="-151.5" font-family="Helvetica,sans-Serif" font-size="10.00">/Code/codyco&#45;superbuild</text>
<text text-anchor="start" x="491.438" y="-141.5" font-family="Helvetica,sans-Serif" font-size="10.00">/main/ocra&#45;wbi&#45;plugins</text>
<text text-anchor="start" x="491.438" y="-131.5" font-family="Helvetica,sans-Serif" font-size="10.00">/ocra&#45;icub&#45;clients/sitting</text>
<text text-anchor="start" x="491.438" y="-121.5" font-family="Helvetica,sans-Serif" font-size="10.00">&#45;demo/include/sitting&#45;demo</text>
<text text-anchor="middle" x="551.468" y="-111.5" font-family="Helvetica,sans-Serif" font-size="10.00">/SittingDemoClient.h</text>
</a>
</g>
</g>
<!-- Node33&#45;&gt;Node37 -->
<g id="edge6" class="edge"><title>Node33&#45;&gt;Node37</title>
<path fill="none" stroke="midnightblue" d="M852.311,-219.33C784.854,-201.655 685.492,-175.619 619.661,-158.369"/>
<polygon fill="midnightblue" stroke="midnightblue" points="851.463,-222.727 862.024,-221.876 853.238,-215.955 851.463,-222.727"/>
</g>
<!-- Node38 -->
<g id="node7" class="node"><title>Node38</title>
<g id="a_node7"><a xlink:href="ocra-icub-clients_2sitting-demo_2src_2main_8cpp.html" target="_top" xlink:title="/Users/jorhabibeljaik\l/Code/codyco&#45;superbuild\l/main/ocra&#45;wbi&#45;plugins\l/ocra&#45;icub&#45;clients/sitting\l&#45;demo/src/main.cpp">
<polygon fill="white" stroke="black" points="326.158,-5.5 326.158,-63.5 452.778,-63.5 452.778,-5.5 326.158,-5.5"/>
<text text-anchor="start" x="334.158" y="-51.5" font-family="Helvetica,sans-Serif" font-size="10.00">/Users/jorhabibeljaik</text>
<text text-anchor="start" x="334.158" y="-41.5" font-family="Helvetica,sans-Serif" font-size="10.00">/Code/codyco&#45;superbuild</text>
<text text-anchor="start" x="334.158" y="-31.5" font-family="Helvetica,sans-Serif" font-size="10.00">/main/ocra&#45;wbi&#45;plugins</text>
<text text-anchor="start" x="334.158" y="-21.5" font-family="Helvetica,sans-Serif" font-size="10.00">/ocra&#45;icub&#45;clients/sitting</text>
<text text-anchor="middle" x="389.468" y="-11.5" font-family="Helvetica,sans-Serif" font-size="10.00">&#45;demo/src/main.cpp</text>
</a>
</g>
</g>
<!-- Node33&#45;&gt;Node38 -->
<g id="edge9" class="edge"><title>Node33&#45;&gt;Node38</title>
<path fill="none" stroke="midnightblue" d="M851.629,-235.476C740.049,-229.669 535.049,-213.795 474.468,-174 434.618,-147.823 410.339,-95.8486 398.439,-63.5456"/>
<polygon fill="midnightblue" stroke="midnightblue" points="851.635,-238.981 861.799,-235.991 851.989,-231.99 851.635,-238.981"/>
</g>
<!-- Node40 -->
<g id="node9" class="node"><title>Node40</title>
<g id="a_node9"><a xlink:href="StandingDemoClient_8h.html" target="_top" xlink:title="/Users/jorhabibeljaik\l/Code/codyco&#45;superbuild\l/main/ocra&#45;wbi&#45;plugins\l/ocra&#45;icub&#45;clients/standing\l&#45;demo/include/standing&#45;demo\l/StandingDemoClient.h">
<polygon fill="white" stroke="black" points="800.596,-105.5 800.596,-173.5 948.339,-173.5 948.339,-105.5 800.596,-105.5"/>
<text text-anchor="start" x="808.596" y="-161.5" font-family="Helvetica,sans-Serif" font-size="10.00">/Users/jorhabibeljaik</text>
<text text-anchor="start" x="808.596" y="-151.5" font-family="Helvetica,sans-Serif" font-size="10.00">/Code/codyco&#45;superbuild</text>
<text text-anchor="start" x="808.596" y="-141.5" font-family="Helvetica,sans-Serif" font-size="10.00">/main/ocra&#45;wbi&#45;plugins</text>
<text text-anchor="start" x="808.596" y="-131.5" font-family="Helvetica,sans-Serif" font-size="10.00">/ocra&#45;icub&#45;clients/standing</text>
<text text-anchor="start" x="808.596" y="-121.5" font-family="Helvetica,sans-Serif" font-size="10.00">&#45;demo/include/standing&#45;demo</text>
<text text-anchor="middle" x="874.468" y="-111.5" font-family="Helvetica,sans-Serif" font-size="10.00">/StandingDemoClient.h</text>
</a>
</g>
</g>
<!-- Node33&#45;&gt;Node40 -->
<g id="edge10" class="edge"><title>Node33&#45;&gt;Node40</title>
<path fill="none" stroke="midnightblue" d="M906.09,-201.264C901.388,-192.23 896.392,-182.629 891.792,-173.79"/>
<polygon fill="midnightblue" stroke="midnightblue" points="903.132,-203.162 910.853,-210.417 909.342,-199.931 903.132,-203.162"/>
</g>
<!-- Node41 -->
<g id="node10" class="node"><title>Node41</title>
<g id="a_node10"><a xlink:href="ocra-icub-clients_2standing-demo_2src_2main_8cpp.html" target="_top" xlink:title="/Users/jorhabibeljaik\l/Code/codyco&#45;superbuild\l/main/ocra&#45;wbi&#45;plugins\l/ocra&#45;icub&#45;clients/standing\l&#45;demo/src/main.cpp">
<polygon fill="white" stroke="black" points="650.384,-5.5 650.384,-63.5 782.551,-63.5 782.551,-5.5 650.384,-5.5"/>
<text text-anchor="start" x="658.384" y="-51.5" font-family="Helvetica,sans-Serif" font-size="10.00">/Users/jorhabibeljaik</text>
<text text-anchor="start" x="658.384" y="-41.5" font-family="Helvetica,sans-Serif" font-size="10.00">/Code/codyco&#45;superbuild</text>
<text text-anchor="start" x="658.384" y="-31.5" font-family="Helvetica,sans-Serif" font-size="10.00">/main/ocra&#45;wbi&#45;plugins</text>
<text text-anchor="start" x="658.384" y="-21.5" font-family="Helvetica,sans-Serif" font-size="10.00">/ocra&#45;icub&#45;clients/standing</text>
<text text-anchor="middle" x="716.468" y="-11.5" font-family="Helvetica,sans-Serif" font-size="10.00">&#45;demo/src/main.cpp</text>
</a>
</g>
</g>
<!-- Node33&#45;&gt;Node41 -->
<g id="edge13" class="edge"><title>Node33&#45;&gt;Node41</title>
<path fill="none" stroke="midnightblue" d="M852.939,-213.564C831.373,-203.664 808.881,-190.602 791.468,-174 758.813,-142.867 737.096,-94.3303 725.782,-63.758"/>
<polygon fill="midnightblue" stroke="midnightblue" points="851.545,-216.774 862.107,-217.614 854.374,-210.371 851.545,-216.774"/>
</g>
<!-- Node43 -->
<g id="node12" class="node"><title>Node43</title>
<g id="a_node12"><a xlink:href="SteppingDemoClient_8h.html" target="_top" xlink:title="/Users/jorhabibeljaik\l/Code/codyco&#45;superbuild\l/main/ocra&#45;wbi&#45;plugins\l/ocra&#45;icub&#45;clients/stepping\l&#45;demo/include/stepping&#45;demo\l/SteppingDemoClient.h">
<polygon fill="white" stroke="black" points="1004.6,-105.5 1004.6,-173.5 1152.34,-173.5 1152.34,-105.5 1004.6,-105.5"/>
<text text-anchor="start" x="1012.6" y="-161.5" font-family="Helvetica,sans-Serif" font-size="10.00">/Users/jorhabibeljaik</text>
<text text-anchor="start" x="1012.6" y="-151.5" font-family="Helvetica,sans-Serif" font-size="10.00">/Code/codyco&#45;superbuild</text>
<text text-anchor="start" x="1012.6" y="-141.5" font-family="Helvetica,sans-Serif" font-size="10.00">/main/ocra&#45;wbi&#45;plugins</text>
<text text-anchor="start" x="1012.6" y="-131.5" font-family="Helvetica,sans-Serif" font-size="10.00">/ocra&#45;icub&#45;clients/stepping</text>
<text text-anchor="start" x="1012.6" y="-121.5" font-family="Helvetica,sans-Serif" font-size="10.00">&#45;demo/include/stepping&#45;demo</text>
<text text-anchor="middle" x="1078.47" y="-111.5" font-family="Helvetica,sans-Serif" font-size="10.00">/SteppingDemoClient.h</text>
</a>
</g>
</g>
<!-- Node33&#45;&gt;Node43 -->
<g id="edge14" class="edge"><title>Node33&#45;&gt;Node43</title>
<path fill="none" stroke="midnightblue" d="M977.91,-204.91C993.705,-194.792 1011.02,-183.7 1026.77,-173.614"/>
<polygon fill="midnightblue" stroke="midnightblue" points="975.844,-202.076 969.311,-210.417 979.62,-207.971 975.844,-202.076"/>
</g>
<!-- Node44 -->
<g id="node13" class="node"><title>Node44</title>
<g id="a_node13"><a xlink:href="stepping-demo_8cpp.html" target="_top" xlink:title="/Users/jorhabibeljaik\l/Code/codyco&#45;superbuild\l/main/ocra&#45;wbi&#45;plugins\l/ocra&#45;icub&#45;clients/stepping\l&#45;demo/src/stepping&#45;demo.cpp">
<polygon fill="white" stroke="black" points="992.325,-5.5 992.325,-63.5 1140.61,-63.5 1140.61,-5.5 992.325,-5.5"/>
<text text-anchor="start" x="1000.33" y="-51.5" font-family="Helvetica,sans-Serif" font-size="10.00">/Users/jorhabibeljaik</text>
<text text-anchor="start" x="1000.33" y="-41.5" font-family="Helvetica,sans-Serif" font-size="10.00">/Code/codyco&#45;superbuild</text>
<text text-anchor="start" x="1000.33" y="-31.5" font-family="Helvetica,sans-Serif" font-size="10.00">/main/ocra&#45;wbi&#45;plugins</text>
<text text-anchor="start" x="1000.33" y="-21.5" font-family="Helvetica,sans-Serif" font-size="10.00">/ocra&#45;icub&#45;clients/stepping</text>
<text text-anchor="middle" x="1066.47" y="-11.5" font-family="Helvetica,sans-Serif" font-size="10.00">&#45;demo/src/stepping&#45;demo.cpp</text>
</a>
</g>
</g>
<!-- Node33&#45;&gt;Node44 -->
<g id="edge17" class="edge"><title>Node33&#45;&gt;Node44</title>
<path fill="none" stroke="midnightblue" d="M944.442,-200.864C962.933,-164.429 989.16,-113.481 995.468,-105 1006.48,-90.1907 1020.69,-75.6196 1033.5,-63.6746"/>
<polygon fill="midnightblue" stroke="midnightblue" points="941.087,-199.741 939.69,-210.244 947.332,-202.905 941.087,-199.741"/>
</g>
<!-- Node46 -->
<g id="node15" class="node"><title>Node46</title>
<g id="a_node15"><a xlink:href="TaskOpsClient_8h.html" target="_top" xlink:title="/Users/jorhabibeljaik\l/Code/codyco&#45;superbuild\l/main/ocra&#45;wbi&#45;plugins\l/ocra&#45;icub&#45;clients/task\l&#45;operations&#45;demo/include\l/task&#45;operations&#45;demo/TaskOpsClient.h">
<polygon fill="white" stroke="black" points="1320.93,-105.5 1320.93,-173.5 1512.01,-173.5 1512.01,-105.5 1320.93,-105.5"/>
<text text-anchor="start" x="1328.93" y="-161.5" font-family="Helvetica,sans-Serif" font-size="10.00">/Users/jorhabibeljaik</text>
<text text-anchor="start" x="1328.93" y="-151.5" font-family="Helvetica,sans-Serif" font-size="10.00">/Code/codyco&#45;superbuild</text>
<text text-anchor="start" x="1328.93" y="-141.5" font-family="Helvetica,sans-Serif" font-size="10.00">/main/ocra&#45;wbi&#45;plugins</text>
<text text-anchor="start" x="1328.93" y="-131.5" font-family="Helvetica,sans-Serif" font-size="10.00">/ocra&#45;icub&#45;clients/task</text>
<text text-anchor="start" x="1328.93" y="-121.5" font-family="Helvetica,sans-Serif" font-size="10.00">&#45;operations&#45;demo/include</text>
<text text-anchor="middle" x="1416.47" y="-111.5" font-family="Helvetica,sans-Serif" font-size="10.00">/task&#45;operations&#45;demo/TaskOpsClient.h</text>
</a>
</g>
</g>
<!-- Node33&#45;&gt;Node46 -->
<g id="edge18" class="edge"><title>Node33&#45;&gt;Node46</title>
<path fill="none" stroke="midnightblue" d="M998.53,-209.952C1111.67,-181.117 1145.1,-193.375 1256.47,-174 1277.3,-170.376 1299.55,-166.024 1320.64,-161.675"/>
<polygon fill="midnightblue" stroke="midnightblue" points="997.593,-206.579 988.795,-212.483 999.354,-213.354 997.593,-206.579"/>
</g>
<!-- Node47 -->
<g id="node16" class="node"><title>Node47</title>
<g id="a_node16"><a xlink:href="task-operations-demo_8cpp.html" target="_top" xlink:title="/Users/jorhabibeljaik\l/Code/codyco&#45;superbuild\l/main/ocra&#45;wbi&#45;plugins\l/ocra&#45;icub&#45;clients/task\l&#45;operations&#45;demo/src/task\l&#45;operations&#45;demo.cpp">
<polygon fill="white" stroke="black" points="1350.67,-0.5 1350.67,-68.5 1482.27,-68.5 1482.27,-0.5 1350.67,-0.5"/>
<text text-anchor="start" x="1358.67" y="-56.5" font-family="Helvetica,sans-Serif" font-size="10.00">/Users/jorhabibeljaik</text>
<text text-anchor="start" x="1358.67" y="-46.5" font-family="Helvetica,sans-Serif" font-size="10.00">/Code/codyco&#45;superbuild</text>
<text text-anchor="start" x="1358.67" y="-36.5" font-family="Helvetica,sans-Serif" font-size="10.00">/main/ocra&#45;wbi&#45;plugins</text>
<text text-anchor="start" x="1358.67" y="-26.5" font-family="Helvetica,sans-Serif" font-size="10.00">/ocra&#45;icub&#45;clients/task</text>
<text text-anchor="start" x="1358.67" y="-16.5" font-family="Helvetica,sans-Serif" font-size="10.00">&#45;operations&#45;demo/src/task</text>
<text text-anchor="middle" x="1416.47" y="-6.5" font-family="Helvetica,sans-Serif" font-size="10.00">&#45;operations&#45;demo.cpp</text>
</a>
</g>
</g>
<!-- Node33&#45;&gt;Node47 -->
<g id="edge21" class="edge"><title>Node33&#45;&gt;Node47</title>
<path fill="none" stroke="midnightblue" d="M998.873,-209.791C1070.87,-189.147 1094.55,-198.946 1161.47,-174 1236.05,-146.196 1315.71,-99.9552 1365.76,-68.6265"/>
<polygon fill="midnightblue" stroke="midnightblue" points="997.463,-206.558 988.874,-212.761 999.457,-213.268 997.463,-206.558"/>
</g>
<!-- Node49 -->
<g id="node18" class="node"><title>Node49</title>
<g id="a_node18"><a xlink:href="WalkingClient_8h.html" target="_top" xlink:title="/Users/jorhabibeljaik\l/Code/codyco&#45;superbuild\l/main/ocra&#45;wbi&#45;plugins\l/ocra&#45;icub&#45;clients/walking\l&#45;client/include/walking&#45;client\l/WalkingClient.h">
<polygon fill="white" stroke="black" points="1708.5,-105.5 1708.5,-173.5 1848.44,-173.5 1848.44,-105.5 1708.5,-105.5"/>
<text text-anchor="start" x="1716.5" y="-161.5" font-family="Helvetica,sans-Serif" font-size="10.00">/Users/jorhabibeljaik</text>
<text text-anchor="start" x="1716.5" y="-151.5" font-family="Helvetica,sans-Serif" font-size="10.00">/Code/codyco&#45;superbuild</text>
<text text-anchor="start" x="1716.5" y="-141.5" font-family="Helvetica,sans-Serif" font-size="10.00">/main/ocra&#45;wbi&#45;plugins</text>
<text text-anchor="start" x="1716.5" y="-131.5" font-family="Helvetica,sans-Serif" font-size="10.00">/ocra&#45;icub&#45;clients/walking</text>
<text text-anchor="start" x="1716.5" y="-121.5" font-family="Helvetica,sans-Serif" font-size="10.00">&#45;client/include/walking&#45;client</text>
<text text-anchor="middle" x="1778.47" y="-111.5" font-family="Helvetica,sans-Serif" font-size="10.00">/WalkingClient.h</text>
</a>
</g>
</g>
<!-- Node33&#45;&gt;Node49 -->
<g id="edge22" class="edge"><title>Node33&#45;&gt;Node49</title>
<path fill="none" stroke="midnightblue" d="M998.917,-209.945C1271.89,-151.306 1351.15,-211.339 1624.47,-174 1652.12,-170.222 1682.18,-164.137 1708.35,-158.182"/>
<polygon fill="midnightblue" stroke="midnightblue" points="998.149,-206.53 989.124,-212.081 999.641,-213.369 998.149,-206.53"/>
</g>
<!-- Node50 -->
<g id="node19" class="node"><title>Node50</title>
<g id="a_node19"><a xlink:href="ocra-icub-clients_2walking-client_2src_2main_8cpp.html" target="_top" xlink:title="/Users/jorhabibeljaik\l/Code/codyco&#45;superbuild\l/main/ocra&#45;wbi&#45;plugins\l/ocra&#45;icub&#45;clients/walking\l&#45;client/src/main.cpp">
<polygon fill="white" stroke="black" points="1714.61,-5.5 1714.61,-63.5 1842.32,-63.5 1842.32,-5.5 1714.61,-5.5"/>
<text text-anchor="start" x="1722.61" y="-51.5" font-family="Helvetica,sans-Serif" font-size="10.00">/Users/jorhabibeljaik</text>
<text text-anchor="start" x="1722.61" y="-41.5" font-family="Helvetica,sans-Serif" font-size="10.00">/Code/codyco&#45;superbuild</text>
<text text-anchor="start" x="1722.61" y="-31.5" font-family="Helvetica,sans-Serif" font-size="10.00">/main/ocra&#45;wbi&#45;plugins</text>
<text text-anchor="start" x="1722.61" y="-21.5" font-family="Helvetica,sans-Serif" font-size="10.00">/ocra&#45;icub&#45;clients/walking</text>
<text text-anchor="middle" x="1778.47" y="-11.5" font-family="Helvetica,sans-Serif" font-size="10.00">&#45;client/src/main.cpp</text>
</a>
</g>
</g>
<!-- Node33&#45;&gt;Node50 -->
<g id="edge25" class="edge"><title>Node33&#45;&gt;Node50</title>
<path fill="none" stroke="midnightblue" d="M999.061,-209.92C1227.21,-160.678 1300.39,-237.917 1521.47,-174 1604.24,-150.069 1690.41,-96.8456 1738.97,-63.787"/>
<polygon fill="midnightblue" stroke="midnightblue" points="998.139,-206.539 989.133,-212.121 999.654,-213.373 998.139,-206.539"/>
</g>
<!-- Node34&#45;&gt;Node35 -->
<g id="edge3" class="edge"><title>Node34&#45;&gt;Node35</title>
<path fill="none" stroke="midnightblue" d="M174.36,-99.8858C155.283,-87.8313 134.614,-74.7702 116.909,-63.5825"/>
<polygon fill="midnightblue" stroke="midnightblue" points="172.673,-102.96 182.996,-105.343 176.412,-97.0425 172.673,-102.96"/>
</g>
<!-- Node36 -->
<g id="node5" class="node"><title>Node36</title>
<g id="a_node5"><a xlink:href="ExampleClient_8cpp.html" target="_top" xlink:title="/Users/jorhabibeljaik\l/Code/codyco&#45;superbuild\l/main/ocra&#45;wbi&#45;plugins\l/ocra&#45;icub&#45;clients/example\l&#45;client/src/ExampleClient.cpp">
<polygon fill="white" stroke="black" points="163,-5.5 163,-63.5 307.936,-63.5 307.936,-5.5 163,-5.5"/>
<text text-anchor="start" x="171" y="-51.5" font-family="Helvetica,sans-Serif" font-size="10.00">/Users/jorhabibeljaik</text>
<text text-anchor="start" x="171" y="-41.5" font-family="Helvetica,sans-Serif" font-size="10.00">/Code/codyco&#45;superbuild</text>
<text text-anchor="start" x="171" y="-31.5" font-family="Helvetica,sans-Serif" font-size="10.00">/main/ocra&#45;wbi&#45;plugins</text>
<text text-anchor="start" x="171" y="-21.5" font-family="Helvetica,sans-Serif" font-size="10.00">/ocra&#45;icub&#45;clients/example</text>
<text text-anchor="middle" x="235.468" y="-11.5" font-family="Helvetica,sans-Serif" font-size="10.00">&#45;client/src/ExampleClient.cpp</text>
</a>
</g>
</g>
<!-- Node34&#45;&gt;Node36 -->
<g id="edge4" class="edge"><title>Node34&#45;&gt;Node36</title>
<path fill="none" stroke="midnightblue" d="M235.468,-95.3273C235.468,-84.6595 235.468,-73.502 235.468,-63.7516"/>
<polygon fill="midnightblue" stroke="midnightblue" points="231.968,-95.3432 235.468,-105.343 238.968,-95.3432 231.968,-95.3432"/>
</g>
<!-- Node37&#45;&gt;Node38 -->
<g id="edge7" class="edge"><title>Node37&#45;&gt;Node38</title>
<path fill="none" stroke="midnightblue" d="M490.735,-99.8858C471.775,-87.8313 451.233,-74.7702 433.636,-63.5825"/>
<polygon fill="midnightblue" stroke="midnightblue" points="489.002,-102.931 499.318,-105.343 492.757,-97.0242 489.002,-102.931"/>
</g>
<!-- Node39 -->
<g id="node8" class="node"><title>Node39</title>
<g id="a_node8"><a xlink:href="SittingDemoClient_8cpp.html" target="_top" xlink:title="/Users/jorhabibeljaik\l/Code/codyco&#45;superbuild\l/main/ocra&#45;wbi&#45;plugins\l/ocra&#45;icub&#45;clients/sitting\l&#45;demo/src/SittingDemoClient.cpp">
<polygon fill="white" stroke="black" points="470.384,-5.5 470.384,-63.5 632.551,-63.5 632.551,-5.5 470.384,-5.5"/>
<text text-anchor="start" x="478.384" y="-51.5" font-family="Helvetica,sans-Serif" font-size="10.00">/Users/jorhabibeljaik</text>
<text text-anchor="start" x="478.384" y="-41.5" font-family="Helvetica,sans-Serif" font-size="10.00">/Code/codyco&#45;superbuild</text>
<text text-anchor="start" x="478.384" y="-31.5" font-family="Helvetica,sans-Serif" font-size="10.00">/main/ocra&#45;wbi&#45;plugins</text>
<text text-anchor="start" x="478.384" y="-21.5" font-family="Helvetica,sans-Serif" font-size="10.00">/ocra&#45;icub&#45;clients/sitting</text>
<text text-anchor="middle" x="551.468" y="-11.5" font-family="Helvetica,sans-Serif" font-size="10.00">&#45;demo/src/SittingDemoClient.cpp</text>
</a>
</g>
</g>
<!-- Node37&#45;&gt;Node39 -->
<g id="edge8" class="edge"><title>Node37&#45;&gt;Node39</title>
<path fill="none" stroke="midnightblue" d="M551.468,-95.3273C551.468,-84.6595 551.468,-73.502 551.468,-63.7516"/>
<polygon fill="midnightblue" stroke="midnightblue" points="547.968,-95.3432 551.468,-105.343 554.968,-95.3432 547.968,-95.3432"/>
</g>
<!-- Node40&#45;&gt;Node41 -->
<g id="edge11" class="edge"><title>Node40&#45;&gt;Node41</title>
<path fill="none" stroke="midnightblue" d="M814.984,-99.7229C796.563,-87.7137 776.63,-74.7198 759.546,-63.5825"/>
<polygon fill="midnightblue" stroke="midnightblue" points="813.317,-102.814 823.606,-105.343 817.14,-96.9501 813.317,-102.814"/>
</g>
<!-- Node42 -->
<g id="node11" class="node"><title>Node42</title>
<g id="a_node11"><a xlink:href="StandingDemoClient_8cpp.html" target="_top" xlink:title="/Users/jorhabibeljaik\l/Code/codyco&#45;superbuild\l/main/ocra&#45;wbi&#45;plugins\l/ocra&#45;icub&#45;clients/standing\l&#45;demo/src/StandingDemoClient.cpp">
<polygon fill="white" stroke="black" points="800.542,-5.5 800.542,-63.5 974.394,-63.5 974.394,-5.5 800.542,-5.5"/>
<text text-anchor="start" x="808.542" y="-51.5" font-family="Helvetica,sans-Serif" font-size="10.00">/Users/jorhabibeljaik</text>
<text text-anchor="start" x="808.542" y="-41.5" font-family="Helvetica,sans-Serif" font-size="10.00">/Code/codyco&#45;superbuild</text>
<text text-anchor="start" x="808.542" y="-31.5" font-family="Helvetica,sans-Serif" font-size="10.00">/main/ocra&#45;wbi&#45;plugins</text>
<text text-anchor="start" x="808.542" y="-21.5" font-family="Helvetica,sans-Serif" font-size="10.00">/ocra&#45;icub&#45;clients/standing</text>
<text text-anchor="middle" x="887.468" y="-11.5" font-family="Helvetica,sans-Serif" font-size="10.00">&#45;demo/src/StandingDemoClient.cpp</text>
</a>
</g>
</g>
<!-- Node40&#45;&gt;Node42 -->
<g id="edge12" class="edge"><title>Node40&#45;&gt;Node42</title>
<path fill="none" stroke="midnightblue" d="M879.917,-95.3273C881.263,-84.6595 882.671,-73.502 883.902,-63.7516"/>
<polygon fill="midnightblue" stroke="midnightblue" points="876.432,-94.9836 878.653,-105.343 883.377,-95.8602 876.432,-94.9836"/>
</g>
<!-- Node43&#45;&gt;Node44 -->
<g id="edge15" class="edge"><title>Node43&#45;&gt;Node44</title>
<path fill="none" stroke="midnightblue" d="M1073.44,-95.3273C1072.2,-84.6595 1070.9,-73.502 1069.76,-63.7516"/>
<polygon fill="midnightblue" stroke="midnightblue" points="1069.97,-95.8154 1074.6,-105.343 1076.92,-95.0053 1069.97,-95.8154"/>
</g>
<!-- Node45 -->
<g id="node14" class="node"><title>Node45</title>
<g id="a_node14"><a xlink:href="SteppingDemoClient_8cpp.html" target="_top" xlink:title="/Users/jorhabibeljaik\l/Code/codyco&#45;superbuild\l/main/ocra&#45;wbi&#45;plugins\l/ocra&#45;icub&#45;clients/stepping\l&#45;demo/src/SteppingDemoClient.cpp">
<polygon fill="white" stroke="black" points="1158.54,-5.5 1158.54,-63.5 1332.39,-63.5 1332.39,-5.5 1158.54,-5.5"/>
<text text-anchor="start" x="1166.54" y="-51.5" font-family="Helvetica,sans-Serif" font-size="10.00">/Users/jorhabibeljaik</text>
<text text-anchor="start" x="1166.54" y="-41.5" font-family="Helvetica,sans-Serif" font-size="10.00">/Code/codyco&#45;superbuild</text>
<text text-anchor="start" x="1166.54" y="-31.5" font-family="Helvetica,sans-Serif" font-size="10.00">/main/ocra&#45;wbi&#45;plugins</text>
<text text-anchor="start" x="1166.54" y="-21.5" font-family="Helvetica,sans-Serif" font-size="10.00">/ocra&#45;icub&#45;clients/stepping</text>
<text text-anchor="middle" x="1245.47" y="-11.5" font-family="Helvetica,sans-Serif" font-size="10.00">&#45;demo/src/SteppingDemoClient.cpp</text>
</a>
</g>
</g>
<!-- Node43&#45;&gt;Node45 -->
<g id="edge16" class="edge"><title>Node43&#45;&gt;Node45</title>
<path fill="none" stroke="midnightblue" d="M1140.81,-100.049C1160.43,-87.949 1181.71,-74.8206 1199.94,-63.5825"/>
<polygon fill="midnightblue" stroke="midnightblue" points="1138.9,-97.1147 1132.23,-105.343 1142.58,-103.073 1138.9,-97.1147"/>
</g>
<!-- Node46&#45;&gt;Node47 -->
<g id="edge19" class="edge"><title>Node46&#45;&gt;Node47</title>
<path fill="none" stroke="midnightblue" d="M1416.47,-95.1362C1416.47,-86.256 1416.47,-77.0447 1416.47,-68.5947"/>
<polygon fill="midnightblue" stroke="midnightblue" points="1412.97,-95.3432 1416.47,-105.343 1419.97,-95.3432 1412.97,-95.3432"/>
</g>
<!-- Node48 -->
<g id="node17" class="node"><title>Node48</title>
<g id="a_node17"><a xlink:href="TaskOpsClient_8cpp.html" target="_top" xlink:title="/Users/jorhabibeljaik\l/Code/codyco&#45;superbuild\l/main/ocra&#45;wbi&#45;plugins\l/ocra&#45;icub&#45;clients/task\l&#45;operations&#45;demo/src/TaskOpsClient.cpp">
<polygon fill="white" stroke="black" points="1500.15,-5.5 1500.15,-63.5 1696.78,-63.5 1696.78,-5.5 1500.15,-5.5"/>
<text text-anchor="start" x="1508.15" y="-51.5" font-family="Helvetica,sans-Serif" font-size="10.00">/Users/jorhabibeljaik</text>
<text text-anchor="start" x="1508.15" y="-41.5" font-family="Helvetica,sans-Serif" font-size="10.00">/Code/codyco&#45;superbuild</text>
<text text-anchor="start" x="1508.15" y="-31.5" font-family="Helvetica,sans-Serif" font-size="10.00">/main/ocra&#45;wbi&#45;plugins</text>
<text text-anchor="start" x="1508.15" y="-21.5" font-family="Helvetica,sans-Serif" font-size="10.00">/ocra&#45;icub&#45;clients/task</text>
<text text-anchor="middle" x="1598.47" y="-11.5" font-family="Helvetica,sans-Serif" font-size="10.00">&#45;operations&#45;demo/src/TaskOpsClient.cpp</text>
</a>
</g>
</g>
<!-- Node46&#45;&gt;Node48 -->
<g id="edge20" class="edge"><title>Node46&#45;&gt;Node48</title>
<path fill="none" stroke="midnightblue" d="M1483.59,-100.512C1505.15,-88.312 1528.63,-75.023 1548.71,-63.6577"/>
<polygon fill="midnightblue" stroke="midnightblue" points="1481.78,-97.5138 1474.8,-105.485 1485.23,-103.606 1481.78,-97.5138"/>
</g>
<!-- Node49&#45;&gt;Node50 -->
<g id="edge23" class="edge"><title>Node49&#45;&gt;Node50</title>
<path fill="none" stroke="midnightblue" d="M1778.47,-95.3273C1778.47,-84.6595 1778.47,-73.502 1778.47,-63.7516"/>
<polygon fill="midnightblue" stroke="midnightblue" points="1774.97,-95.3432 1778.47,-105.343 1781.97,-95.3432 1774.97,-95.3432"/>
</g>
<!-- Node51 -->
<g id="node20" class="node"><title>Node51</title>
<g id="a_node20"><a xlink:href="WalkingClient_8cpp.html" target="_top" xlink:title="/Users/jorhabibeljaik\l/Code/codyco&#45;superbuild\l/main/ocra&#45;wbi&#45;plugins\l/ocra&#45;icub&#45;clients/walking\l&#45;client/src/WalkingClient.cpp">
<polygon fill="white" stroke="black" points="1859.85,-5.5 1859.85,-63.5 2001.08,-63.5 2001.08,-5.5 1859.85,-5.5"/>
<text text-anchor="start" x="1867.85" y="-51.5" font-family="Helvetica,sans-Serif" font-size="10.00">/Users/jorhabibeljaik</text>
<text text-anchor="start" x="1867.85" y="-41.5" font-family="Helvetica,sans-Serif" font-size="10.00">/Code/codyco&#45;superbuild</text>
<text text-anchor="start" x="1867.85" y="-31.5" font-family="Helvetica,sans-Serif" font-size="10.00">/main/ocra&#45;wbi&#45;plugins</text>
<text text-anchor="start" x="1867.85" y="-21.5" font-family="Helvetica,sans-Serif" font-size="10.00">/ocra&#45;icub&#45;clients/walking</text>
<text text-anchor="middle" x="1930.47" y="-11.5" font-family="Helvetica,sans-Serif" font-size="10.00">&#45;client/src/WalkingClient.cpp</text>
</a>
</g>
</g>
<!-- Node49&#45;&gt;Node51 -->
<g id="edge24" class="edge"><title>Node49&#45;&gt;Node51</title>
<path fill="none" stroke="midnightblue" d="M1835.9,-99.5854C1853.47,-87.6754 1872.46,-74.8087 1888.78,-63.7516"/>
<polygon fill="midnightblue" stroke="midnightblue" points="1833.71,-96.836 1827.4,-105.343 1837.64,-102.631 1833.71,-96.836"/>
</g>
</g>
</svg>
