<?xml version="1.0" encoding="UTF-8" standalone="no"?>
<!DOCTYPE svg PUBLIC "-//W3C//DTD SVG 1.1//EN"
 "http://www.w3.org/Graphics/SVG/1.1/DTD/svg11.dtd">
<!-- Generated by graphviz version 2.38.0 (20140413.2041)
 -->
<!-- Title: /Users/jorhabibeljaik/Code/codyco&#45;superbuild/main/ocra&#45;wbi&#45;plugins/ocra&#45;icub/src/ModelInitializer.cpp Pages: 1 -->
<svg width="2466pt" height="342pt"
 viewBox="0.00 0.00 2465.71 342.00" xmlns="http://www.w3.org/2000/svg" xmlns:xlink="http://www.w3.org/1999/xlink">
<g id="graph0" class="graph" transform="scale(1 1) rotate(0) translate(4 338)">
<title>/Users/jorhabibeljaik/Code/codyco&#45;superbuild/main/ocra&#45;wbi&#45;plugins/ocra&#45;icub/src/ModelInitializer.cpp</title>
<polygon fill="white" stroke="none" points="-4,4 -4,-338 2461.71,-338 2461.71,4 -4,4"/>
<!-- Node0 -->
<g id="node1" class="node"><title>Node0</title>
<polygon fill="#bfbfbf" stroke="black" points="1340.38,-285.5 1340.38,-333.5 1504.22,-333.5 1504.22,-285.5 1340.38,-285.5"/>
<text text-anchor="start" x="1348.38" y="-321.5" font-family="Helvetica,sans-Serif" font-size="10.00">/Users/jorhabibeljaik</text>
<text text-anchor="start" x="1348.38" y="-311.5" font-family="Helvetica,sans-Serif" font-size="10.00">/Code/codyco&#45;superbuild</text>
<text text-anchor="start" x="1348.38" y="-301.5" font-family="Helvetica,sans-Serif" font-size="10.00">/main/ocra&#45;wbi&#45;plugins</text>
<text text-anchor="middle" x="1422.3" y="-291.5" font-family="Helvetica,sans-Serif" font-size="10.00">/ocra&#45;icub/src/ModelInitializer.cpp</text>
</g>
<!-- Node1 -->
<g id="node2" class="node"><title>Node1</title>
<g id="a_node2"><a xlink:href="ModelInitializer_8h.html" target="_top" xlink:title="ocra&#45;icub/ModelInitializer.h">
<polygon fill="white" stroke="black" points="1355.1,-230.5 1355.1,-248.5 1489.5,-248.5 1489.5,-230.5 1355.1,-230.5"/>
<text text-anchor="middle" x="1422.3" y="-236.5" font-family="Helvetica,sans-Serif" font-size="10.00">ocra&#45;icub/ModelInitializer.h</text>
</a>
</g>
</g>
<!-- Node0&#45;&gt;Node1 -->
<g id="edge1" class="edge"><title>Node0&#45;&gt;Node1</title>
<path fill="none" stroke="midnightblue" d="M1422.3,-285.478C1422.3,-276.684 1422.3,-266.792 1422.3,-258.528"/>
<polygon fill="midnightblue" stroke="midnightblue" points="1425.8,-258.526 1422.3,-248.526 1418.8,-258.526 1425.8,-258.526"/>
</g>
<!-- Node2 -->
<g id="node3" class="node"><title>Node2</title>
<g id="a_node3"><a xlink:href="OcraWbiModel_8h.html" target="_top" xlink:title="Implementation of ocra::Model using wholeBodyInterface. ">
<polygon fill="white" stroke="black" points="1105.11,-175.5 1105.11,-193.5 1239.49,-193.5 1239.49,-175.5 1105.11,-175.5"/>
<text text-anchor="middle" x="1172.3" y="-181.5" font-family="Helvetica,sans-Serif" font-size="10.00">ocra&#45;icub/OcraWbiModel.h</text>
</a>
</g>
</g>
<!-- Node1&#45;&gt;Node2 -->
<g id="edge2" class="edge"><title>Node1&#45;&gt;Node2</title>
<path fill="none" stroke="midnightblue" d="M1384.33,-230.45C1340.33,-221.123 1267.78,-205.742 1220.01,-195.615"/>
<polygon fill="midnightblue" stroke="midnightblue" points="1220.73,-192.188 1210.22,-193.538 1219.27,-199.036 1220.73,-192.188"/>
</g>
<!-- Node4 -->
<g id="node5" class="node"><title>Node4</title>
<polygon fill="white" stroke="#bfbfbf" points="0,-0.5 0,-18.5 106.601,-18.5 106.601,-0.5 0,-0.5"/>
<text text-anchor="middle" x="53.3003" y="-6.5" font-family="Helvetica,sans-Serif" font-size="10.00">ocra/control/Model.h</text>
</g>
<!-- Node1&#45;&gt;Node4 -->
<g id="edge41" class="edge"><title>Node1&#45;&gt;Node4</title>
<path fill="none" stroke="midnightblue" d="M1355.01,-238.359C1222.99,-237.236 921.053,-230.49 670.3,-194 564.151,-178.553 539.186,-165.719 435.3,-139 347.676,-116.463 325.041,-112.886 239.3,-84 182.305,-64.7986 117.284,-37.9319 81.1921,-22.5636"/>
<polygon fill="midnightblue" stroke="midnightblue" points="82.3806,-19.2653 71.81,-18.5498 79.6272,-25.7011 82.3806,-19.2653"/>
</g>
<!-- Node6 -->
<g id="node7" class="node"><title>Node6</title>
<polygon fill="white" stroke="#bfbfbf" points="125.002,-0.5 125.002,-18.5 201.598,-18.5 201.598,-0.5 125.002,-0.5"/>
<text text-anchor="middle" x="163.3" y="-6.5" font-family="Helvetica,sans-Serif" font-size="10.00">yarp/os/Log.h</text>
</g>
<!-- Node1&#45;&gt;Node6 -->
<g id="edge46" class="edge"><title>Node1&#45;&gt;Node6</title>
<path fill="none" stroke="midnightblue" d="M1354.92,-238.313C1178.16,-235.897 688.611,-216.749 309.3,-84 263.297,-67.9001 213.306,-40.3203 185.383,-23.9109"/>
<polygon fill="midnightblue" stroke="midnightblue" points="186.854,-20.7134 176.47,-18.6097 183.276,-26.7297 186.854,-20.7134"/>
</g>
<!-- Node12 -->
<g id="node13" class="node"><title>Node12</title>
<polygon fill="white" stroke="#bfbfbf" points="1353.99,-55.5 1353.99,-83.5 1490.61,-83.5 1490.61,-55.5 1353.99,-55.5"/>
<text text-anchor="start" x="1361.99" y="-71.5" font-family="Helvetica,sans-Serif" font-size="10.00">yarpWholeBodyInterface</text>
<text text-anchor="middle" x="1422.3" y="-61.5" font-family="Helvetica,sans-Serif" font-size="10.00">/yarpWholeBodyInterface.h</text>
</g>
<!-- Node1&#45;&gt;Node12 -->
<g id="edge42" class="edge"><title>Node1&#45;&gt;Node12</title>
<path fill="none" stroke="midnightblue" d="M1422.3,-230.397C1422.3,-205.938 1422.3,-132.195 1422.3,-94"/>
<polygon fill="midnightblue" stroke="midnightblue" points="1425.8,-93.8099 1422.3,-83.8099 1418.8,-93.8099 1425.8,-93.8099"/>
</g>
<!-- Node22 -->
<g id="node23" class="node"><title>Node22</title>
<polygon fill="white" stroke="#bfbfbf" points="2227.67,-0.5 2227.67,-18.5 2330.93,-18.5 2330.93,-0.5 2227.67,-0.5"/>
<text text-anchor="middle" x="2279.3" y="-6.5" font-family="Helvetica,sans-Serif" font-size="10.00">yarp/os/RpcClient.h</text>
</g>
<!-- Node1&#45;&gt;Node22 -->
<g id="edge43" class="edge"><title>Node1&#45;&gt;Node22</title>
<path fill="none" stroke="midnightblue" d="M1424.69,-230.308C1433.93,-200.359 1470.39,-96.4065 1542.3,-55 1605.26,-18.7505 2107.34,-25.6543 2217.26,-18.8157"/>
<polygon fill="midnightblue" stroke="midnightblue" points="2217.72,-22.291 2227.42,-18.0355 2217.18,-15.3115 2217.72,-22.291"/>
</g>
<!-- Node26 -->
<g id="node27" class="node"><title>Node26</title>
<polygon fill="white" stroke="#bfbfbf" points="2348.89,-0.5 2348.89,-18.5 2457.71,-18.5 2457.71,-0.5 2348.89,-0.5"/>
<text text-anchor="middle" x="2403.3" y="-6.5" font-family="Helvetica,sans-Serif" font-size="10.00">yarp/os/LogStream.h</text>
</g>
<!-- Node1&#45;&gt;Node26 -->
<g id="edge45" class="edge"><title>Node1&#45;&gt;Node26</title>
<path fill="none" stroke="midnightblue" d="M1438.88,-230.339C1466.54,-217.02 1524.11,-190.54 1575.3,-175 1722.39,-130.344 2184.37,-48.4201 2346.43,-20.2875"/>
<polygon fill="midnightblue" stroke="midnightblue" points="2347.41,-23.67 2356.67,-18.5132 2346.22,-16.7729 2347.41,-23.67"/>
</g>
<!-- Node31 -->
<g id="node32" class="node"><title>Node31</title>
<polygon fill="white" stroke="#bfbfbf" points="1584.01,-175.5 1584.01,-193.5 1680.59,-193.5 1680.59,-175.5 1584.01,-175.5"/>
<text text-anchor="middle" x="1632.3" y="-181.5" font-family="Helvetica,sans-Serif" font-size="10.00">yarp/os/Network.h</text>
</g>
<!-- Node1&#45;&gt;Node31 -->
<g id="edge44" class="edge"><title>Node1&#45;&gt;Node31</title>
<path fill="none" stroke="midnightblue" d="M1454.19,-230.45C1490.69,-221.24 1550.57,-206.128 1590.7,-195.999"/>
<polygon fill="midnightblue" stroke="midnightblue" points="1591.61,-199.379 1600.45,-193.538 1589.9,-192.592 1591.61,-199.379"/>
</g>
<!-- Node3 -->
<g id="node4" class="node"><title>Node3</title>
<polygon fill="white" stroke="#bfbfbf" points="2157.24,-0.5 2157.24,-18.5 2209.36,-18.5 2209.36,-0.5 2157.24,-0.5"/>
<text text-anchor="middle" x="2183.3" y="-6.5" font-family="Helvetica,sans-Serif" font-size="10.00">memory</text>
</g>
<!-- Node2&#45;&gt;Node3 -->
<g id="edge3" class="edge"><title>Node2&#45;&gt;Node3</title>
<path fill="none" stroke="midnightblue" d="M1185.14,-175.237C1198.58,-166.498 1220.2,-152.179 1238.3,-139 1241.35,-136.776 1341.76,-56.3141 1345.3,-55 1509.83,6.02595 1955.43,-42.4262 2147,-18.795"/>
<polygon fill="midnightblue" stroke="midnightblue" points="2147.58,-22.2478 2157.03,-17.4563 2146.66,-15.3093 2147.58,-22.2478"/>
</g>
<!-- Node2&#45;&gt;Node4 -->
<g id="edge4" class="edge"><title>Node2&#45;&gt;Node4</title>
<path fill="none" stroke="midnightblue" d="M1104.84,-181.431C993.323,-177.356 763.73,-166.199 571.3,-139 453.489,-122.348 424.78,-112.658 309.3,-84 229.903,-64.296 137.982,-36.7232 88.7668,-21.568"/>
<polygon fill="midnightblue" stroke="midnightblue" points="89.5205,-18.1376 78.9329,-18.5298 87.4541,-24.8257 89.5205,-18.1376"/>
</g>
<!-- Node5 -->
<g id="node6" class="node"><title>Node5</title>
<polygon fill="white" stroke="#bfbfbf" points="2081.74,-0.5 2081.74,-18.5 2138.86,-18.5 2138.86,-0.5 2081.74,-0.5"/>
<text text-anchor="middle" x="2110.3" y="-6.5" font-family="Helvetica,sans-Serif" font-size="10.00">wbi/wbi.h</text>
</g>
<!-- Node2&#45;&gt;Node5 -->
<g id="edge5" class="edge"><title>Node2&#45;&gt;Node5</title>
<path fill="none" stroke="midnightblue" d="M1179.74,-175.355C1203.78,-149.252 1279.72,-68.583 1312.3,-55 1465.47,8.84988 1888.63,-39.6635 2071.25,-18.7775"/>
<polygon fill="midnightblue" stroke="midnightblue" points="2071.86,-22.229 2081.35,-17.5173 2070.99,-15.2829 2071.86,-22.229"/>
</g>
<!-- Node2&#45;&gt;Node6 -->
<g id="edge6" class="edge"><title>Node2&#45;&gt;Node6</title>
<path fill="none" stroke="midnightblue" d="M1104.88,-181.106C1007.15,-176.843 820.727,-165.727 664.3,-139 486.473,-108.617 279.195,-46.7793 198.215,-21.5709"/>
<polygon fill="midnightblue" stroke="midnightblue" points="199.119,-18.1864 188.53,-18.5428 197.03,-24.8675 199.119,-18.1864"/>
</g>
<!-- Node7 -->
<g id="node8" class="node"><title>Node7</title>
<g id="a_node8"><a xlink:href="OcraWbiConversions_8h.html" target="_top" xlink:title="A utility class full of static conversion functions. ">
<polygon fill="white" stroke="black" points="672.941,-120.5 672.941,-138.5 835.66,-138.5 835.66,-120.5 672.941,-120.5"/>
<text text-anchor="middle" x="754.3" y="-126.5" font-family="Helvetica,sans-Serif" font-size="10.00">ocra&#45;icub/OcraWbiConversions.h</text>
</a>
</g>
</g>
<!-- Node2&#45;&gt;Node7 -->
<g id="edge7" class="edge"><title>Node2&#45;&gt;Node7</title>
<path fill="none" stroke="midnightblue" d="M1108.82,-175.45C1033.25,-165.87 907.314,-149.901 827.656,-139.801"/>
<polygon fill="midnightblue" stroke="midnightblue" points="828.058,-136.324 817.697,-138.538 827.177,-143.268 828.058,-136.324"/>
</g>
<!-- Node13 -->
<g id="node14" class="node"><title>Node13</title>
<g id="a_node14"><a xlink:href="Utilities_8h.html" target="_top" xlink:title="Some useful tools for the ocra&#45;icub lib. ">
<polygon fill="white" stroke="black" points="1122.06,-60.5 1122.06,-78.5 1222.54,-78.5 1222.54,-60.5 1122.06,-60.5"/>
<text text-anchor="middle" x="1172.3" y="-66.5" font-family="Helvetica,sans-Serif" font-size="10.00">ocra&#45;icub/Utilities.h</text>
</a>
</g>
</g>
<!-- Node2&#45;&gt;Node13 -->
<g id="edge40" class="edge"><title>Node2&#45;&gt;Node13</title>
<path fill="none" stroke="midnightblue" d="M1172.3,-175.373C1172.3,-157.374 1172.3,-113.774 1172.3,-88.8264"/>
<polygon fill="midnightblue" stroke="midnightblue" points="1175.8,-88.553 1172.3,-78.553 1168.8,-88.5531 1175.8,-88.553"/>
</g>
<!-- Node7&#45;&gt;Node5 -->
<g id="edge13" class="edge"><title>Node7&#45;&gt;Node5</title>
<path fill="none" stroke="midnightblue" d="M835.851,-125.762C952.473,-121.021 1160.61,-109.258 1231.3,-84 1253.01,-76.2435 1252.41,-62.234 1274.3,-55 1439.88,-0.271459 1880.49,-40.9772 2071.35,-18.7771"/>
<polygon fill="midnightblue" stroke="midnightblue" points="2071.86,-22.2401 2081.35,-17.5241 2070.99,-15.2944 2071.86,-22.2401"/>
</g>
<!-- Node7&#45;&gt;Node6 -->
<g id="edge12" class="edge"><title>Node7&#45;&gt;Node6</title>
<path fill="none" stroke="midnightblue" d="M715.201,-120.473C678.07,-112.49 620.867,-99.2567 572.3,-84 538.205,-73.2891 531.955,-63.7335 497.3,-55 375.808,-24.3824 339.225,-37.7214 211.886,-19.146"/>
<polygon fill="midnightblue" stroke="midnightblue" points="212.154,-15.6472 201.746,-17.6279 211.118,-22.57 212.154,-15.6472"/>
</g>
<!-- Node8 -->
<g id="node9" class="node"><title>Node8</title>
<polygon fill="white" stroke="#bfbfbf" points="327.128,-0.5 327.128,-18.5 381.473,-18.5 381.473,-0.5 327.128,-0.5"/>
<text text-anchor="middle" x="354.3" y="-6.5" font-family="Helvetica,sans-Serif" font-size="10.00">iostream</text>
</g>
<!-- Node7&#45;&gt;Node8 -->
<g id="edge8" class="edge"><title>Node7&#45;&gt;Node8</title>
<path fill="none" stroke="midnightblue" d="M750.69,-120.365C743.248,-104.669 724.58,-70.401 697.3,-55 580.473,10.9555 528.076,-40.2963 391.715,-18.9872"/>
<polygon fill="midnightblue" stroke="midnightblue" points="392.19,-15.518 381.75,-17.3249 391.038,-22.4226 392.19,-15.518"/>
</g>
<!-- Node9 -->
<g id="node10" class="node"><title>Node9</title>
<polygon fill="white" stroke="#bfbfbf" points="652.574,-60.5 652.574,-78.5 688.027,-78.5 688.027,-60.5 652.574,-60.5"/>
<text text-anchor="middle" x="670.3" y="-66.5" font-family="Helvetica,sans-Serif" font-size="10.00">map</text>
</g>
<!-- Node7&#45;&gt;Node9 -->
<g id="edge9" class="edge"><title>Node7&#45;&gt;Node9</title>
<path fill="none" stroke="midnightblue" d="M742.62,-120.435C729.156,-111.138 706.789,-95.6942 690.488,-84.4393"/>
<polygon fill="midnightblue" stroke="midnightblue" points="692.369,-81.4849 682.152,-78.6831 688.392,-87.2452 692.369,-81.4849"/>
</g>
<!-- Node10 -->
<g id="node11" class="node"><title>Node10</title>
<polygon fill="white" stroke="#bfbfbf" points="399.685,-0.5 399.685,-18.5 442.916,-18.5 442.916,-0.5 399.685,-0.5"/>
<text text-anchor="middle" x="421.3" y="-6.5" font-family="Helvetica,sans-Serif" font-size="10.00">vector</text>
</g>
<!-- Node7&#45;&gt;Node10 -->
<g id="edge10" class="edge"><title>Node7&#45;&gt;Node10</title>
<path fill="none" stroke="midnightblue" d="M754.271,-120.099C753.723,-104.566 750.145,-71.4448 730.3,-55 684.49,-17.0383 528.31,-29.9396 453.257,-18.6744"/>
<polygon fill="midnightblue" stroke="midnightblue" points="453.68,-15.1951 443.226,-16.9166 452.471,-22.0901 453.68,-15.1951"/>
</g>
<!-- Node11 -->
<g id="node12" class="node"><title>Node11</title>
<polygon fill="white" stroke="#bfbfbf" points="219.33,-0.5 219.33,-18.5 309.271,-18.5 309.271,-0.5 219.33,-0.5"/>
<text text-anchor="middle" x="264.3" y="-6.5" font-family="Helvetica,sans-Serif" font-size="10.00">yarp/sig/Vector.h</text>
</g>
<!-- Node7&#45;&gt;Node11 -->
<g id="edge11" class="edge"><title>Node7&#45;&gt;Node11</title>
<path fill="none" stroke="midnightblue" d="M733.826,-120.338C711.541,-111.443 674.863,-96.7726 643.3,-84 611.703,-71.2135 605.203,-63.9039 572.3,-55 465.359,-26.0603 432.892,-35.2942 319.499,-19.1276"/>
<polygon fill="midnightblue" stroke="midnightblue" points="319.775,-15.6309 309.374,-17.6478 318.762,-22.5573 319.775,-15.6309"/>
</g>
<!-- Node7&#45;&gt;Node12 -->
<g id="edge14" class="edge"><title>Node7&#45;&gt;Node12</title>
<path fill="none" stroke="midnightblue" d="M835.876,-121.417C965.324,-110.178 1216.15,-88.399 1343.71,-77.3239"/>
<polygon fill="midnightblue" stroke="midnightblue" points="1344.14,-80.8 1353.8,-76.4481 1343.53,-73.8263 1344.14,-80.8"/>
</g>
<!-- Node7&#45;&gt;Node13 -->
<g id="edge15" class="edge"><title>Node7&#45;&gt;Node13</title>
<path fill="none" stroke="midnightblue" d="M811.983,-120.496C890.805,-109.559 1031.52,-90.0343 1111.79,-78.8961"/>
<polygon fill="midnightblue" stroke="midnightblue" points="1112.32,-82.3556 1121.75,-77.5143 1111.36,-75.422 1112.32,-82.3556"/>
</g>
<!-- Node13&#45;&gt;Node3 -->
<g id="edge16" class="edge"><title>Node13&#45;&gt;Node3</title>
<path fill="none" stroke="midnightblue" d="M1222.79,-62.9782C1249.39,-60.2343 1282.58,-57.0712 1312.3,-55 1679.95,-29.3764 1778.3,-70.3788 2146.89,-18.8925"/>
<polygon fill="midnightblue" stroke="midnightblue" points="2147.62,-22.3237 2157.03,-17.4613 2146.64,-15.3923 2147.62,-22.3237"/>
</g>
<!-- Node13&#45;&gt;Node4 -->
<g id="edge37" class="edge"><title>Node13&#45;&gt;Node4</title>
<path fill="none" stroke="midnightblue" d="M1121.95,-66.7242C942.628,-60.3101 334.713,-37.774 116.952,-18.9464"/>
<polygon fill="midnightblue" stroke="midnightblue" points="117.151,-15.4504 106.881,-18.0528 116.532,-22.423 117.151,-15.4504"/>
</g>
<!-- Node13&#45;&gt;Node5 -->
<g id="edge36" class="edge"><title>Node13&#45;&gt;Node5</title>
<path fill="none" stroke="midnightblue" d="M1205.34,-60.4456C1215.24,-58.3271 1226.16,-56.2789 1236.3,-55 1601.94,-8.8831 1701.81,-66.7189 2071.18,-18.8654"/>
<polygon fill="midnightblue" stroke="midnightblue" points="2071.89,-22.3024 2081.35,-17.5303 2070.98,-15.362 2071.89,-22.3024"/>
</g>
<!-- Node13&#45;&gt;Node6 -->
<g id="edge31" class="edge"><title>Node13&#45;&gt;Node6</title>
<path fill="none" stroke="midnightblue" d="M1122.02,-66.7617C953.51,-60.8047 408.674,-40.4542 211.672,-18.9802"/>
<polygon fill="midnightblue" stroke="midnightblue" points="212.044,-15.5001 201.715,-17.8591 211.261,-22.4561 212.044,-15.5001"/>
</g>
<!-- Node13&#45;&gt;Node8 -->
<g id="edge18" class="edge"><title>Node13&#45;&gt;Node8</title>
<path fill="none" stroke="midnightblue" d="M1121.67,-68.243C998.222,-66.9856 671.893,-59.8655 391.674,-18.9483"/>
<polygon fill="midnightblue" stroke="midnightblue" points="392.129,-15.4777 381.725,-17.4784 391.106,-22.4025 392.129,-15.4777"/>
</g>
<!-- Node13&#45;&gt;Node10 -->
<g id="edge20" class="edge"><title>Node13&#45;&gt;Node10</title>
<path fill="none" stroke="midnightblue" d="M1121.7,-68.4661C1005.16,-67.6505 708.85,-61.3643 453.41,-18.8081"/>
<polygon fill="midnightblue" stroke="midnightblue" points="453.638,-15.2971 443.195,-17.083 452.472,-22.1994 453.638,-15.2971"/>
</g>
<!-- Node13&#45;&gt;Node11 -->
<g id="edge34" class="edge"><title>Node13&#45;&gt;Node11</title>
<path fill="none" stroke="midnightblue" d="M1121.62,-67.2995C990.637,-63.8248 629.977,-51.8968 319.436,-19.0069"/>
<polygon fill="midnightblue" stroke="midnightblue" points="319.653,-15.5103 309.338,-17.9281 318.909,-22.4707 319.653,-15.5103"/>
</g>
<!-- Node14 -->
<g id="node15" class="node"><title>Node14</title>
<polygon fill="white" stroke="#bfbfbf" points="1523.68,-0.5 1523.68,-18.5 1566.92,-18.5 1566.92,-0.5 1523.68,-0.5"/>
<text text-anchor="middle" x="1545.3" y="-6.5" font-family="Helvetica,sans-Serif" font-size="10.00">cmath</text>
</g>
<!-- Node13&#45;&gt;Node14 -->
<g id="edge17" class="edge"><title>Node13&#45;&gt;Node14</title>
<path fill="none" stroke="midnightblue" d="M1208.08,-60.4301C1217.25,-58.5058 1227.12,-56.5601 1236.3,-55 1356.01,-34.6565 1390.42,-43.0735 1513.57,-18.8753"/>
<polygon fill="midnightblue" stroke="midnightblue" points="1514.25,-22.3072 1523.38,-16.9166 1512.88,-15.4427 1514.25,-22.3072"/>
</g>
<!-- Node15 -->
<g id="node16" class="node"><title>Node15</title>
<polygon fill="white" stroke="#bfbfbf" points="1585.07,-0.5 1585.07,-18.5 1625.53,-18.5 1625.53,-0.5 1585.07,-0.5"/>
<text text-anchor="middle" x="1605.3" y="-6.5" font-family="Helvetica,sans-Serif" font-size="10.00">string</text>
</g>
<!-- Node13&#45;&gt;Node15 -->
<g id="edge19" class="edge"><title>Node13&#45;&gt;Node15</title>
<path fill="none" stroke="midnightblue" d="M1207.06,-60.4927C1216.51,-58.5005 1226.77,-56.5062 1236.3,-55 1383.17,-31.7969 1425.43,-47.7689 1574.82,-18.9611"/>
<polygon fill="midnightblue" stroke="midnightblue" points="1575.68,-22.3593 1584.82,-16.998 1574.33,-15.4905 1575.68,-22.3593"/>
</g>
<!-- Node16 -->
<g id="node17" class="node"><title>Node16</title>
<polygon fill="white" stroke="#bfbfbf" points="1643.52,-0.5 1643.52,-18.5 1695.08,-18.5 1695.08,-0.5 1643.52,-0.5"/>
<text text-anchor="middle" x="1669.3" y="-6.5" font-family="Helvetica,sans-Serif" font-size="10.00">sstream</text>
</g>
<!-- Node13&#45;&gt;Node16 -->
<g id="edge21" class="edge"><title>Node13&#45;&gt;Node16</title>
<path fill="none" stroke="midnightblue" d="M1206.71,-60.4655C1216.25,-58.4496 1226.64,-56.4502 1236.3,-55 1408.68,-29.1147 1457.29,-47.3328 1633.27,-18.9066"/>
<polygon fill="midnightblue" stroke="midnightblue" points="1634.09,-22.319 1643.39,-17.2438 1632.96,-15.4116 1634.09,-22.319"/>
</g>
<!-- Node17 -->
<g id="node18" class="node"><title>Node17</title>
<polygon fill="white" stroke="#bfbfbf" points="1713.36,-0.5 1713.36,-18.5 1829.24,-18.5 1829.24,-0.5 1713.36,-0.5"/>
<text text-anchor="middle" x="1771.3" y="-6.5" font-family="Helvetica,sans-Serif" font-size="10.00">yarp/os/BufferedPort.h</text>
</g>
<!-- Node13&#45;&gt;Node17 -->
<g id="edge22" class="edge"><title>Node13&#45;&gt;Node17</title>
<path fill="none" stroke="midnightblue" d="M1206.36,-60.45C1216,-58.4095 1226.52,-56.4014 1236.3,-55 1439.58,-25.8702 1495.04,-39.6849 1703.19,-19.0559"/>
<polygon fill="midnightblue" stroke="midnightblue" points="1703.62,-22.5305 1713.22,-18.0473 1702.92,-15.5657 1703.62,-22.5305"/>
</g>
<!-- Node18 -->
<g id="node19" class="node"><title>Node18</title>
<polygon fill="white" stroke="#bfbfbf" points="1847.56,-0.5 1847.56,-18.5 1933.04,-18.5 1933.04,-0.5 1847.56,-0.5"/>
<text text-anchor="middle" x="1890.3" y="-6.5" font-family="Helvetica,sans-Serif" font-size="10.00">yarp/os/Bottle.h</text>
</g>
<!-- Node13&#45;&gt;Node18 -->
<g id="edge23" class="edge"><title>Node13&#45;&gt;Node18</title>
<path fill="none" stroke="midnightblue" d="M1205.69,-60.4818C1215.5,-58.3908 1226.28,-56.3483 1236.3,-55 1498.7,-19.6779 1570.18,-47.95 1837.5,-18.9538"/>
<polygon fill="midnightblue" stroke="midnightblue" points="1837.94,-22.4261 1847.5,-17.8523 1837.18,-15.4681 1837.94,-22.4261"/>
</g>
<!-- Node19 -->
<g id="node20" class="node"><title>Node19</title>
<polygon fill="white" stroke="#bfbfbf" points="1950.94,-0.5 1950.94,-18.5 2063.66,-18.5 2063.66,-0.5 1950.94,-0.5"/>
<text text-anchor="middle" x="2007.3" y="-6.5" font-family="Helvetica,sans-Serif" font-size="10.00">yarp/os/RateThread.h</text>
</g>
<!-- Node13&#45;&gt;Node19 -->
<g id="edge24" class="edge"><title>Node13&#45;&gt;Node19</title>
<path fill="none" stroke="midnightblue" d="M1205.35,-60.4962C1215.25,-58.3791 1226.17,-56.319 1236.3,-55 1544.51,-14.8875 1627.62,-46.6925 1940.34,-19.1017"/>
<polygon fill="midnightblue" stroke="midnightblue" points="1940.96,-22.5602 1950.61,-18.1817 1940.34,-15.5881 1940.96,-22.5602"/>
</g>
<!-- Node20 -->
<g id="node21" class="node"><title>Node20</title>
<polygon fill="white" stroke="#bfbfbf" points="461.047,-0.5 461.047,-18.5 591.554,-18.5 591.554,-0.5 461.047,-0.5"/>
<text text-anchor="middle" x="526.3" y="-6.5" font-family="Helvetica,sans-Serif" font-size="10.00">yarp/os/ResourceFinder.h</text>
</g>
<!-- Node13&#45;&gt;Node20 -->
<g id="edge25" class="edge"><title>Node13&#45;&gt;Node20</title>
<path fill="none" stroke="midnightblue" d="M1121.85,-64.5758C1023.91,-56.8604 800.943,-38.8189 601.801,-19.0229"/>
<polygon fill="midnightblue" stroke="midnightblue" points="602.034,-15.5289 591.736,-18.0189 601.339,-22.4944 602.034,-15.5289"/>
</g>
<!-- Node21 -->
<g id="node22" class="node"><title>Node21</title>
<polygon fill="white" stroke="#bfbfbf" points="610.049,-0.5 610.049,-18.5 720.551,-18.5 720.551,-0.5 610.049,-0.5"/>
<text text-anchor="middle" x="665.3" y="-6.5" font-family="Helvetica,sans-Serif" font-size="10.00">yarp/os/PortReader.h</text>
</g>
<!-- Node13&#45;&gt;Node21 -->
<g id="edge26" class="edge"><title>Node13&#45;&gt;Node21</title>
<path fill="none" stroke="midnightblue" d="M1121.89,-63.1611C1041.63,-54.5942 879.598,-37.0234 730.842,-19.0435"/>
<polygon fill="midnightblue" stroke="midnightblue" points="730.958,-15.5321 720.61,-17.8035 730.116,-22.4812 730.958,-15.5321"/>
</g>
<!-- Node13&#45;&gt;Node22 -->
<g id="edge27" class="edge"><title>Node13&#45;&gt;Node22</title>
<path fill="none" stroke="midnightblue" d="M1222.61,-64.0847C1257.11,-61.1767 1303.95,-57.4651 1345.3,-55 1729.63,-32.0879 1829.83,-53.4662 2217.34,-18.9822"/>
<polygon fill="midnightblue" stroke="midnightblue" points="2217.78,-22.4572 2227.43,-18.078 2217.15,-15.4851 2217.78,-22.4572"/>
</g>
<!-- Node23 -->
<g id="node24" class="node"><title>Node23</title>
<polygon fill="white" stroke="#bfbfbf" points="739,-0.5 739,-18.5 845.601,-18.5 845.601,-0.5 739,-0.5"/>
<text text-anchor="middle" x="792.3" y="-6.5" font-family="Helvetica,sans-Serif" font-size="10.00">yarp/os/RpcServer.h</text>
</g>
<!-- Node13&#45;&gt;Node23 -->
<g id="edge28" class="edge"><title>Node13&#45;&gt;Node23</title>
<path fill="none" stroke="midnightblue" d="M1121.84,-60.798C1053,-50.2914 929.704,-31.4722 855.009,-20.0713"/>
<polygon fill="midnightblue" stroke="midnightblue" points="855.216,-16.5625 844.803,-18.5135 854.16,-23.4824 855.216,-16.5625"/>
</g>
<!-- Node24 -->
<g id="node25" class="node"><title>Node24</title>
<polygon fill="white" stroke="#bfbfbf" points="863.924,-0.5 863.924,-18.5 1006.68,-18.5 1006.68,-0.5 863.924,-0.5"/>
<text text-anchor="middle" x="935.3" y="-6.5" font-family="Helvetica,sans-Serif" font-size="10.00">yarp/os/ConnectionReader.h</text>
</g>
<!-- Node13&#45;&gt;Node24 -->
<g id="edge29" class="edge"><title>Node13&#45;&gt;Node24</title>
<path fill="none" stroke="midnightblue" d="M1139.35,-60.4353C1097.28,-50.1408 1024.42,-32.3097 978.1,-20.9742"/>
<polygon fill="midnightblue" stroke="midnightblue" points="978.901,-17.5669 968.355,-18.5894 977.237,-24.3663 978.901,-17.5669"/>
</g>
<!-- Node25 -->
<g id="node26" class="node"><title>Node25</title>
<polygon fill="white" stroke="#bfbfbf" points="1024.42,-0.5 1024.42,-18.5 1106.18,-18.5 1106.18,-0.5 1024.42,-0.5"/>
<text text-anchor="middle" x="1065.3" y="-6.5" font-family="Helvetica,sans-Serif" font-size="10.00">yarp/os/Time.h</text>
</g>
<!-- Node13&#45;&gt;Node25 -->
<g id="edge30" class="edge"><title>Node13&#45;&gt;Node25</title>
<path fill="none" stroke="midnightblue" d="M1157.42,-60.4353C1139.79,-50.88 1110.19,-34.8315 1089.3,-23.5113"/>
<polygon fill="midnightblue" stroke="midnightblue" points="1090.86,-20.3716 1080.4,-18.6831 1087.52,-26.5257 1090.86,-20.3716"/>
</g>
<!-- Node13&#45;&gt;Node26 -->
<g id="edge32" class="edge"><title>Node13&#45;&gt;Node26</title>
<path fill="none" stroke="midnightblue" d="M1222.6,-64.0176C1257.11,-61.0801 1303.94,-57.3607 1345.3,-55 1783.75,-29.9721 1897.67,-56.2256 2338.56,-19.0609"/>
<polygon fill="midnightblue" stroke="midnightblue" points="2339.03,-22.5332 2348.7,-18.1995 2338.44,-15.5583 2339.03,-22.5332"/>
</g>
<!-- Node27 -->
<g id="node28" class="node"><title>Node27</title>
<polygon fill="white" stroke="#bfbfbf" points="1123.82,-0.5 1123.82,-18.5 1220.78,-18.5 1220.78,-0.5 1123.82,-0.5"/>
<text text-anchor="middle" x="1172.3" y="-6.5" font-family="Helvetica,sans-Serif" font-size="10.00">yarp/os/Property.h</text>
</g>
<!-- Node13&#45;&gt;Node27 -->
<g id="edge33" class="edge"><title>Node13&#45;&gt;Node27</title>
<path fill="none" stroke="midnightblue" d="M1172.3,-60.4353C1172.3,-52.3891 1172.3,-39.7388 1172.3,-29.1846"/>
<polygon fill="midnightblue" stroke="midnightblue" points="1175.8,-28.8717 1172.3,-18.8718 1168.8,-28.8718 1175.8,-28.8717"/>
</g>
<!-- Node28 -->
<g id="node29" class="node"><title>Node28</title>
<polygon fill="white" stroke="#bfbfbf" points="1238.62,-0.5 1238.62,-18.5 1327.98,-18.5 1327.98,-0.5 1238.62,-0.5"/>
<text text-anchor="middle" x="1283.3" y="-6.5" font-family="Helvetica,sans-Serif" font-size="10.00">yarp/sig/Matrix.h</text>
</g>
<!-- Node13&#45;&gt;Node28 -->
<g id="edge35" class="edge"><title>Node13&#45;&gt;Node28</title>
<path fill="none" stroke="midnightblue" d="M1187.73,-60.4353C1206.1,-50.8369 1237.01,-34.6868 1258.69,-23.3586"/>
<polygon fill="midnightblue" stroke="midnightblue" points="1260.4,-26.4164 1267.64,-18.6831 1257.16,-20.2123 1260.4,-26.4164"/>
</g>
<!-- Node29 -->
<g id="node30" class="node"><title>Node29</title>
<polygon fill="white" stroke="#bfbfbf" points="1345.67,-0.5 1345.67,-18.5 1418.93,-18.5 1418.93,-0.5 1345.67,-0.5"/>
<text text-anchor="middle" x="1382.3" y="-6.5" font-family="Helvetica,sans-Serif" font-size="10.00">Eigen/Dense</text>
</g>
<!-- Node13&#45;&gt;Node29 -->
<g id="edge38" class="edge"><title>Node13&#45;&gt;Node29</title>
<path fill="none" stroke="midnightblue" d="M1201.5,-60.4353C1238.46,-50.2271 1302.25,-32.6082 1343.34,-21.2607"/>
<polygon fill="midnightblue" stroke="midnightblue" points="1344.3,-24.6254 1353.01,-18.5894 1342.44,-17.8781 1344.3,-24.6254"/>
</g>
<!-- Node30 -->
<g id="node31" class="node"><title>Node30</title>
<polygon fill="white" stroke="#bfbfbf" points="1436.9,-0.5 1436.9,-18.5 1505.7,-18.5 1505.7,-0.5 1436.9,-0.5"/>
<text text-anchor="middle" x="1471.3" y="-6.5" font-family="Helvetica,sans-Serif" font-size="10.00">Eigen/Lgsm</text>
</g>
<!-- Node13&#45;&gt;Node30 -->
<g id="edge39" class="edge"><title>Node13&#45;&gt;Node30</title>
<path fill="none" stroke="midnightblue" d="M1209.84,-60.4347C1218.52,-58.6101 1227.72,-56.7081 1236.3,-55 1318.37,-38.6521 1341.4,-35.6265 1426.71,-19.29"/>
<polygon fill="midnightblue" stroke="midnightblue" points="1427.41,-22.7191 1436.57,-17.3952 1426.09,-15.8448 1427.41,-22.7191"/>
</g>
</g>
</svg>
