<?xml version="1.0" encoding="UTF-8" standalone="no"?>
<!DOCTYPE svg PUBLIC "-//W3C//DTD SVG 1.1//EN"
 "http://www.w3.org/Graphics/SVG/1.1/DTD/svg11.dtd">
<!-- Generated by graphviz version 2.38.0 (20140413.2041)
 -->
<!-- Title: /Users/jorhabibeljaik/Code/codyco&#45;superbuild/main/ocra&#45;wbi&#45;plugins/ocra&#45;icub&#45;server/src/Module.cpp Pages: 1 -->
<svg width="2464pt" height="472pt"
 viewBox="0.00 0.00 2464.45 472.00" xmlns="http://www.w3.org/2000/svg" xmlns:xlink="http://www.w3.org/1999/xlink">
<g id="graph0" class="graph" transform="scale(1 1) rotate(0) translate(4 468)">
<title>/Users/jorhabibeljaik/Code/codyco&#45;superbuild/main/ocra&#45;wbi&#45;plugins/ocra&#45;icub&#45;server/src/Module.cpp</title>
<polygon fill="white" stroke="none" points="-4,4 -4,-468 2460.45,-468 2460.45,4 -4,4"/>
<!-- Node0 -->
<g id="node1" class="node"><title>Node0</title>
<polygon fill="#bfbfbf" stroke="black" points="949.761,-415.5 949.761,-463.5 1111.37,-463.5 1111.37,-415.5 949.761,-415.5"/>
<text text-anchor="start" x="957.761" y="-451.5" font-family="Helvetica,sans-Serif" font-size="10.00">/Users/jorhabibeljaik</text>
<text text-anchor="start" x="957.761" y="-441.5" font-family="Helvetica,sans-Serif" font-size="10.00">/Code/codyco&#45;superbuild</text>
<text text-anchor="start" x="957.761" y="-431.5" font-family="Helvetica,sans-Serif" font-size="10.00">/main/ocra&#45;wbi&#45;plugins</text>
<text text-anchor="middle" x="1030.56" y="-421.5" font-family="Helvetica,sans-Serif" font-size="10.00">/ocra&#45;icub&#45;server/src/Module.cpp</text>
</g>
<!-- Node1 -->
<g id="node2" class="node"><title>Node1</title>
<g id="a_node2"><a xlink:href="Module_8h.html" target="_top" xlink:title="Module class for the controller server. ">
<polygon fill="white" stroke="black" points="964.485,-360.5 964.485,-378.5 1096.64,-378.5 1096.64,-360.5 964.485,-360.5"/>
<text text-anchor="middle" x="1030.56" y="-366.5" font-family="Helvetica,sans-Serif" font-size="10.00">ocra&#45;icub&#45;server/Module.h</text>
</a>
</g>
</g>
<!-- Node0&#45;&gt;Node1 -->
<g id="edge1" class="edge"><title>Node0&#45;&gt;Node1</title>
<path fill="none" stroke="midnightblue" d="M1030.56,-415.478C1030.56,-406.684 1030.56,-396.792 1030.56,-388.528"/>
<polygon fill="midnightblue" stroke="midnightblue" points="1034.06,-388.526 1030.56,-378.526 1027.06,-388.526 1034.06,-388.526"/>
</g>
<!-- Node2 -->
<g id="node3" class="node"><title>Node2</title>
<polygon fill="white" stroke="#bfbfbf" points="75.3916,-0.5 75.3916,-18.5 129.736,-18.5 129.736,-0.5 75.3916,-0.5"/>
<text text-anchor="middle" x="102.564" y="-6.5" font-family="Helvetica,sans-Serif" font-size="10.00">iostream</text>
</g>
<!-- Node1&#45;&gt;Node2 -->
<g id="edge2" class="edge"><title>Node1&#45;&gt;Node2</title>
<path fill="none" stroke="midnightblue" d="M964.232,-367.481C750.33,-363.327 92.564,-343.407 92.564,-255.5 92.564,-255.5 92.564,-255.5 92.564,-188.5 92.564,-130.06 98.0037,-60.9964 100.859,-28.7703"/>
<polygon fill="midnightblue" stroke="midnightblue" points="104.359,-28.9281 101.779,-18.6522 97.3879,-28.294 104.359,-28.9281"/>
</g>
<!-- Node3 -->
<g id="node4" class="node"><title>Node3</title>
<polygon fill="white" stroke="#bfbfbf" points="535.507,-0.5 535.507,-18.5 587.621,-18.5 587.621,-0.5 535.507,-0.5"/>
<text text-anchor="middle" x="561.564" y="-6.5" font-family="Helvetica,sans-Serif" font-size="10.00">memory</text>
</g>
<!-- Node1&#45;&gt;Node3 -->
<g id="edge3" class="edge"><title>Node1&#45;&gt;Node3</title>
<path fill="none" stroke="midnightblue" d="M964.115,-363.331C851.099,-352.694 633.564,-323.399 633.564,-255.5 633.564,-255.5 633.564,-255.5 633.564,-128.5 633.564,-86.3657 599.699,-46.5232 578.419,-25.6468"/>
<polygon fill="midnightblue" stroke="midnightblue" points="580.647,-22.9368 570.977,-18.6092 575.838,-28.023 580.647,-22.9368"/>
</g>
<!-- Node4 -->
<g id="node5" class="node"><title>Node4</title>
<polygon fill="white" stroke="#bfbfbf" points="1343,-305.5 1343,-323.5 1400.13,-323.5 1400.13,-305.5 1343,-305.5"/>
<text text-anchor="middle" x="1371.56" y="-311.5" font-family="Helvetica,sans-Serif" font-size="10.00">algorithm</text>
</g>
<!-- Node1&#45;&gt;Node4 -->
<g id="edge4" class="edge"><title>Node1&#45;&gt;Node4</title>
<path fill="none" stroke="midnightblue" d="M1096.05,-360.463C1155.49,-352.814 1245.78,-340.324 1332.87,-324.198"/>
<polygon fill="midnightblue" stroke="midnightblue" points="1333.74,-327.597 1342.93,-322.318 1332.46,-320.716 1333.74,-327.597"/>
</g>
<!-- Node5 -->
<g id="node6" class="node"><title>Node5</title>
<polygon fill="white" stroke="#bfbfbf" points="1418.5,-305.5 1418.5,-323.5 1460.63,-323.5 1460.63,-305.5 1418.5,-305.5"/>
<text text-anchor="middle" x="1439.56" y="-311.5" font-family="Helvetica,sans-Serif" font-size="10.00">locale</text>
</g>
<!-- Node1&#45;&gt;Node5 -->
<g id="edge5" class="edge"><title>Node1&#45;&gt;Node5</title>
<path fill="none" stroke="midnightblue" d="M1096.79,-363.936C1170.68,-358.125 1293.83,-346.294 1408.37,-323.94"/>
<polygon fill="midnightblue" stroke="midnightblue" points="1409.23,-327.338 1418.36,-321.959 1407.87,-320.471 1409.23,-327.338"/>
</g>
<!-- Node6 -->
<g id="node7" class="node"><title>Node6</title>
<polygon fill="white" stroke="#bfbfbf" points="1478.54,-305.5 1478.54,-323.5 1584.58,-323.5 1584.58,-305.5 1478.54,-305.5"/>
<text text-anchor="middle" x="1531.56" y="-311.5" font-family="Helvetica,sans-Serif" font-size="10.00">yarp/os/RFModule.h</text>
</g>
<!-- Node1&#45;&gt;Node6 -->
<g id="edge6" class="edge"><title>Node1&#45;&gt;Node6</title>
<path fill="none" stroke="midnightblue" d="M1096.84,-362.515C1180.76,-354.773 1330.07,-340.452 1468.14,-324.132"/>
<polygon fill="midnightblue" stroke="midnightblue" points="1468.96,-327.558 1478.48,-322.903 1468.14,-320.607 1468.96,-327.558"/>
</g>
<!-- Node7 -->
<g id="node8" class="node"><title>Node7</title>
<polygon fill="white" stroke="#bfbfbf" points="696.254,-55.5 696.254,-83.5 832.874,-83.5 832.874,-55.5 696.254,-55.5"/>
<text text-anchor="start" x="704.254" y="-71.5" font-family="Helvetica,sans-Serif" font-size="10.00">yarpWholeBodyInterface</text>
<text text-anchor="middle" x="764.564" y="-61.5" font-family="Helvetica,sans-Serif" font-size="10.00">/yarpWholeBodyInterface.h</text>
</g>
<!-- Node1&#45;&gt;Node7 -->
<g id="edge7" class="edge"><title>Node1&#45;&gt;Node7</title>
<path fill="none" stroke="midnightblue" d="M964.469,-367.921C885.69,-363.33 764.564,-342.177 764.564,-255.5 764.564,-255.5 764.564,-255.5 764.564,-188.5 764.564,-155.605 764.564,-117.553 764.564,-93.7537"/>
<polygon fill="midnightblue" stroke="midnightblue" points="768.064,-93.5961 764.564,-83.5961 761.064,-93.5961 768.064,-93.5961"/>
</g>
<!-- Node8 -->
<g id="node9" class="node"><title>Node8</title>
<g id="a_node9"><a xlink:href="Thread_8h.html" target="_top" xlink:title="The thread class for the controller server. ">
<polygon fill="white" stroke="black" points="1194.04,-305.5 1194.04,-323.5 1325.09,-323.5 1325.09,-305.5 1194.04,-305.5"/>
<text text-anchor="middle" x="1259.56" y="-311.5" font-family="Helvetica,sans-Serif" font-size="10.00">ocra&#45;icub&#45;server/Thread.h</text>
</a>
</g>
</g>
<!-- Node1&#45;&gt;Node8 -->
<g id="edge8" class="edge"><title>Node1&#45;&gt;Node8</title>
<path fill="none" stroke="midnightblue" d="M1065.34,-360.45C1105.39,-351.182 1171.27,-335.935 1215.03,-325.807"/>
<polygon fill="midnightblue" stroke="midnightblue" points="1215.88,-329.203 1224.83,-323.538 1214.3,-322.383 1215.88,-329.203"/>
</g>
<!-- Node20 -->
<g id="node21" class="node"><title>Node20</title>
<g id="a_node21"><a xlink:href="Utilities_8h.html" target="_top" xlink:title="Some useful tools for the ocra&#45;icub lib. ">
<polygon fill="white" stroke="black" points="952.328,-60.5 952.328,-78.5 1052.8,-78.5 1052.8,-60.5 952.328,-60.5"/>
<text text-anchor="middle" x="1002.56" y="-66.5" font-family="Helvetica,sans-Serif" font-size="10.00">ocra&#45;icub/Utilities.h</text>
</a>
</g>
</g>
<!-- Node1&#45;&gt;Node20 -->
<g id="edge65" class="edge"><title>Node1&#45;&gt;Node20</title>
<path fill="none" stroke="midnightblue" d="M1019.61,-360.442C991.366,-338.905 916.447,-276.673 889.564,-204 870.091,-151.36 937.645,-105.14 976.708,-83.5101"/>
<polygon fill="midnightblue" stroke="midnightblue" points="978.796,-86.362 985.955,-78.5519 975.488,-80.1928 978.796,-86.362"/>
</g>
<!-- Node8&#45;&gt;Node7 -->
<g id="edge9" class="edge"><title>Node8&#45;&gt;Node7</title>
<path fill="none" stroke="midnightblue" d="M1194.02,-309.571C1139.24,-304.637 1059.83,-293.591 994.564,-269 897.593,-232.462 813.999,-135.096 780.362,-91.7853"/>
<polygon fill="midnightblue" stroke="midnightblue" points="782.989,-89.458 774.134,-83.641 777.429,-93.7105 782.989,-89.458"/>
</g>
<!-- Node9 -->
<g id="node10" class="node"><title>Node9</title>
<polygon fill="white" stroke="#bfbfbf" points="0,-0.5 0,-18.5 57.1279,-18.5 57.1279,-0.5 0,-0.5"/>
<text text-anchor="middle" x="28.564" y="-6.5" font-family="Helvetica,sans-Serif" font-size="10.00">wbi/wbi.h</text>
</g>
<!-- Node8&#45;&gt;Node9 -->
<g id="edge10" class="edge"><title>Node8&#45;&gt;Node9</title>
<path fill="none" stroke="midnightblue" d="M1193.98,-313.247C1041.1,-311.043 650.549,-296.046 340.564,-204 225.096,-169.713 194.333,-155.723 97.564,-84 75.0223,-67.2926 53.6542,-42.687 40.8297,-26.6271"/>
<polygon fill="midnightblue" stroke="midnightblue" points="43.5439,-24.4162 34.6307,-18.6886 38.0267,-28.7244 43.5439,-24.4162"/>
</g>
<!-- Node10 -->
<g id="node11" class="node"><title>Node10</title>
<g id="a_node11"><a xlink:href="IcubControllerServer_8h.html" target="_top" xlink:title="ocra&#45;icub&#45;server/IcubController\lServer.h">
<polygon fill="white" stroke="black" points="1003.93,-240.5 1003.93,-268.5 1157.2,-268.5 1157.2,-240.5 1003.93,-240.5"/>
<text text-anchor="start" x="1011.93" y="-256.5" font-family="Helvetica,sans-Serif" font-size="10.00">ocra&#45;icub&#45;server/IcubController</text>
<text text-anchor="middle" x="1080.56" y="-246.5" font-family="Helvetica,sans-Serif" font-size="10.00">Server.h</text>
</a>
</g>
</g>
<!-- Node8&#45;&gt;Node10 -->
<g id="edge11" class="edge"><title>Node8&#45;&gt;Node10</title>
<path fill="none" stroke="midnightblue" d="M1234.67,-305.435C1207.83,-296.738 1164.39,-282.661 1130.46,-271.667"/>
<polygon fill="midnightblue" stroke="midnightblue" points="1131.31,-268.262 1120.71,-268.51 1129.15,-274.922 1131.31,-268.262"/>
</g>
<!-- Node8&#45;&gt;Node20 -->
<g id="edge56" class="edge"><title>Node8&#45;&gt;Node20</title>
<path fill="none" stroke="midnightblue" d="M1277.96,-305.397C1322.25,-284.779 1428.24,-228.186 1387.56,-175 1348.25,-123.592 1161.16,-91.5506 1063,-77.9966"/>
<polygon fill="midnightblue" stroke="midnightblue" points="1063.3,-74.5058 1052.92,-76.627 1062.36,-81.442 1063.3,-74.5058"/>
</g>
<!-- Node22 -->
<g id="node23" class="node"><title>Node22</title>
<polygon fill="white" stroke="#bfbfbf" points="1858.34,-0.5 1858.34,-18.5 1898.79,-18.5 1898.79,-0.5 1858.34,-0.5"/>
<text text-anchor="middle" x="1878.56" y="-6.5" font-family="Helvetica,sans-Serif" font-size="10.00">string</text>
</g>
<!-- Node8&#45;&gt;Node22 -->
<g id="edge63" class="edge"><title>Node8&#45;&gt;Node22</title>
<path fill="none" stroke="midnightblue" d="M1287.8,-305.38C1350.84,-286.411 1497.56,-237.244 1497.56,-190.5 1497.56,-190.5 1497.56,-190.5 1497.56,-128.5 1497.56,-123.916 1758.45,-46.1202 1848.46,-19.4147"/>
<polygon fill="midnightblue" stroke="midnightblue" points="1849.49,-22.7603 1858.08,-16.5618 1847.5,-16.0492 1849.49,-22.7603"/>
</g>
<!-- Node23 -->
<g id="node24" class="node"><title>Node23</title>
<polygon fill="white" stroke="#bfbfbf" points="1916.78,-0.5 1916.78,-18.5 1968.34,-18.5 1968.34,-0.5 1916.78,-0.5"/>
<text text-anchor="middle" x="1942.56" y="-6.5" font-family="Helvetica,sans-Serif" font-size="10.00">sstream</text>
</g>
<!-- Node8&#45;&gt;Node23 -->
<g id="edge62" class="edge"><title>Node8&#45;&gt;Node23</title>
<path fill="none" stroke="midnightblue" d="M1323.81,-305.493C1466.34,-286.857 1796.56,-238.501 1796.56,-190.5 1796.56,-190.5 1796.56,-190.5 1796.56,-128.5 1796.56,-71.9594 1863.61,-37.8601 1906.84,-21.7524"/>
<polygon fill="midnightblue" stroke="midnightblue" points="1908.22,-24.9744 1916.46,-18.3136 1905.87,-18.3825 1908.22,-24.9744"/>
</g>
<!-- Node25 -->
<g id="node26" class="node"><title>Node25</title>
<polygon fill="white" stroke="#bfbfbf" points="2146.82,-0.5 2146.82,-18.5 2232.31,-18.5 2232.31,-0.5 2146.82,-0.5"/>
<text text-anchor="middle" x="2189.56" y="-6.5" font-family="Helvetica,sans-Serif" font-size="10.00">yarp/os/Bottle.h</text>
</g>
<!-- Node8&#45;&gt;Node25 -->
<g id="edge58" class="edge"><title>Node8&#45;&gt;Node25</title>
<path fill="none" stroke="midnightblue" d="M1325.31,-305.75C1328.1,-305.484 1330.86,-305.232 1333.56,-305 1473.5,-292.981 1831.16,-312.934 1964.56,-269 2025.1,-249.065 2084.56,-254.231 2084.56,-190.5 2084.56,-190.5 2084.56,-190.5 2084.56,-128.5 2084.56,-80.2881 2134.09,-42.6423 2165.11,-23.7888"/>
<polygon fill="midnightblue" stroke="midnightblue" points="2167.21,-26.6193 2174.07,-18.5501 2163.67,-20.5765 2167.21,-26.6193"/>
</g>
<!-- Node30 -->
<g id="node31" class="node"><title>Node30</title>
<polygon fill="white" stroke="#bfbfbf" points="2250.26,-0.5 2250.26,-18.5 2356.86,-18.5 2356.86,-0.5 2250.26,-0.5"/>
<text text-anchor="middle" x="2303.56" y="-6.5" font-family="Helvetica,sans-Serif" font-size="10.00">yarp/os/RpcServer.h</text>
</g>
<!-- Node8&#45;&gt;Node30 -->
<g id="edge59" class="edge"><title>Node8&#45;&gt;Node30</title>
<path fill="none" stroke="midnightblue" d="M1325.31,-305.733C1328.1,-305.472 1330.86,-305.226 1333.56,-305 1640.03,-279.441 1722.37,-326.047 2024.56,-269 2133.18,-248.495 2260.56,-301.039 2260.56,-190.5 2260.56,-190.5 2260.56,-190.5 2260.56,-128.5 2260.56,-90.6838 2280.3,-49.9466 2293.03,-27.6037"/>
<polygon fill="midnightblue" stroke="midnightblue" points="2296.21,-29.0981 2298.29,-18.709 2290.19,-25.5349 2296.21,-29.0981"/>
</g>
<!-- Node31 -->
<g id="node32" class="node"><title>Node31</title>
<polygon fill="white" stroke="#bfbfbf" points="1986.19,-0.5 1986.19,-18.5 2128.94,-18.5 2128.94,-0.5 1986.19,-0.5"/>
<text text-anchor="middle" x="2057.56" y="-6.5" font-family="Helvetica,sans-Serif" font-size="10.00">yarp/os/ConnectionReader.h</text>
</g>
<!-- Node8&#45;&gt;Node31 -->
<g id="edge60" class="edge"><title>Node8&#45;&gt;Node31</title>
<path fill="none" stroke="midnightblue" d="M1325.33,-305.944C1328.11,-305.625 1330.87,-305.309 1333.56,-305 1483.63,-287.806 2003.56,-341.547 2003.56,-190.5 2003.56,-190.5 2003.56,-190.5 2003.56,-128.5 2003.56,-89.0736 2028.8,-48.4091 2044.77,-26.6231"/>
<polygon fill="midnightblue" stroke="midnightblue" points="2047.68,-28.5795 2050.94,-18.5007 2042.1,-24.3426 2047.68,-28.5795"/>
</g>
<!-- Node32 -->
<g id="node33" class="node"><title>Node32</title>
<polygon fill="white" stroke="#bfbfbf" points="2374.68,-0.5 2374.68,-18.5 2456.45,-18.5 2456.45,-0.5 2374.68,-0.5"/>
<text text-anchor="middle" x="2415.56" y="-6.5" font-family="Helvetica,sans-Serif" font-size="10.00">yarp/os/Time.h</text>
</g>
<!-- Node8&#45;&gt;Node32 -->
<g id="edge61" class="edge"><title>Node8&#45;&gt;Node32</title>
<path fill="none" stroke="midnightblue" d="M1325.31,-305.706C1328.1,-305.452 1330.86,-305.215 1333.56,-305 1694.56,-276.32 1792.78,-341.564 2147.56,-269 2244.78,-249.117 2356.56,-289.725 2356.56,-190.5 2356.56,-190.5 2356.56,-190.5 2356.56,-128.5 2356.56,-88.4401 2384.1,-48.0391 2401.55,-26.4622"/>
<polygon fill="midnightblue" stroke="midnightblue" points="2404.35,-28.5769 2408.09,-18.6659 2398.98,-24.0786 2404.35,-28.5769"/>
</g>
<!-- Node37 -->
<g id="node38" class="node"><title>Node37</title>
<polygon fill="white" stroke="#bfbfbf" points="1244.46,-175.5 1244.46,-203.5 1378.67,-203.5 1378.67,-175.5 1244.46,-175.5"/>
<text text-anchor="start" x="1252.46" y="-191.5" font-family="Helvetica,sans-Serif" font-size="10.00">iDynTree/Estimation</text>
<text text-anchor="middle" x="1311.56" y="-181.5" font-family="Helvetica,sans-Serif" font-size="10.00">/SimpleLeggedOdometry.h</text>
</g>
<!-- Node8&#45;&gt;Node37 -->
<g id="edge64" class="edge"><title>Node8&#45;&gt;Node37</title>
<path fill="none" stroke="midnightblue" d="M1262.98,-305.43C1270.78,-286.961 1290.19,-241.069 1301.97,-213.184"/>
<polygon fill="midnightblue" stroke="midnightblue" points="1305.27,-214.383 1305.94,-203.809 1298.82,-211.657 1305.27,-214.383"/>
</g>
<!-- Node38 -->
<g id="node39" class="node"><title>Node38</title>
<polygon fill="white" stroke="#bfbfbf" points="1108.43,-180.5 1108.43,-198.5 1226.7,-198.5 1226.7,-180.5 1108.43,-180.5"/>
<text text-anchor="middle" x="1167.56" y="-186.5" font-family="Helvetica,sans-Serif" font-size="10.00">ocra/util/ErrorsHelper.h</text>
</g>
<!-- Node8&#45;&gt;Node38 -->
<g id="edge57" class="edge"><title>Node8&#45;&gt;Node38</title>
<path fill="none" stroke="midnightblue" d="M1253.53,-305.43C1238.65,-285.541 1199.99,-233.851 1179.98,-207.093"/>
<polygon fill="midnightblue" stroke="midnightblue" points="1182.54,-204.673 1173.74,-198.761 1176.93,-208.866 1182.54,-204.673"/>
</g>
<!-- Node10&#45;&gt;Node9 -->
<g id="edge12" class="edge"><title>Node10&#45;&gt;Node9</title>
<path fill="none" stroke="midnightblue" d="M1003.74,-248.542C847.593,-238.31 503.452,-214.898 450.564,-204 362.739,-185.903 341.52,-175.386 259.564,-139 179.185,-103.313 89.7,-49.0474 49.7845,-24.0162"/>
<polygon fill="midnightblue" stroke="midnightblue" points="51.4962,-20.9578 41.1706,-18.5844 47.7624,-26.8789 51.4962,-20.9578"/>
</g>
<!-- Node11 -->
<g id="node12" class="node"><title>Node11</title>
<polygon fill="white" stroke="#bfbfbf" points="898.367,-180.5 898.367,-198.5 1052.76,-198.5 1052.76,-180.5 898.367,-180.5"/>
<text text-anchor="middle" x="975.564" y="-186.5" font-family="Helvetica,sans-Serif" font-size="10.00">ocra&#45;recipes/ControllerServer.h</text>
</g>
<!-- Node10&#45;&gt;Node11 -->
<g id="edge13" class="edge"><title>Node10&#45;&gt;Node11</title>
<path fill="none" stroke="midnightblue" d="M1058.81,-240.446C1040.9,-229.704 1015.64,-214.544 997.645,-203.749"/>
<polygon fill="midnightblue" stroke="midnightblue" points="999.353,-200.692 988.977,-198.548 995.751,-206.694 999.353,-200.692"/>
</g>
<!-- Node12 -->
<g id="node13" class="node"><title>Node12</title>
<polygon fill="white" stroke="#bfbfbf" points="1766.93,-0.5 1766.93,-18.5 1840.19,-18.5 1840.19,-0.5 1766.93,-0.5"/>
<text text-anchor="middle" x="1803.56" y="-6.5" font-family="Helvetica,sans-Serif" font-size="10.00">Eigen/Dense</text>
</g>
<!-- Node10&#45;&gt;Node12 -->
<g id="edge14" class="edge"><title>Node10&#45;&gt;Node12</title>
<path fill="none" stroke="midnightblue" d="M1080.03,-240.275C1080.07,-223.016 1082.79,-192.909 1099.56,-175 1221.8,-44.4982 1308.94,-93.4555 1483.56,-55 1600.35,-29.2809 1634.46,-37.6853 1756.34,-19.1026"/>
<polygon fill="midnightblue" stroke="midnightblue" points="1757.09,-22.5273 1766.44,-17.5322 1756.02,-15.6104 1757.09,-22.5273"/>
</g>
<!-- Node13 -->
<g id="node14" class="node"><title>Node13</title>
<g id="a_node14"><a xlink:href="OcraWbiModel_8h.html" target="_top" xlink:title="Implementation of ocra::Model using wholeBodyInterface. ">
<polygon fill="white" stroke="black" points="459.377,-180.5 459.377,-198.5 593.751,-198.5 593.751,-180.5 459.377,-180.5"/>
<text text-anchor="middle" x="526.564" y="-186.5" font-family="Helvetica,sans-Serif" font-size="10.00">ocra&#45;icub/OcraWbiModel.h</text>
</a>
</g>
</g>
<!-- Node10&#45;&gt;Node13 -->
<g id="edge15" class="edge"><title>Node10&#45;&gt;Node13</title>
<path fill="none" stroke="midnightblue" d="M1003.82,-244.773C898.349,-232.779 709.656,-211.321 603.88,-199.292"/>
<polygon fill="midnightblue" stroke="midnightblue" points="604.239,-195.811 593.908,-198.158 603.448,-202.766 604.239,-195.811"/>
</g>
<!-- Node10&#45;&gt;Node37 -->
<g id="edge54" class="edge"><title>Node10&#45;&gt;Node37</title>
<path fill="none" stroke="midnightblue" d="M1128.43,-240.446C1164.82,-230.521 1215.05,-216.823 1253.7,-206.282"/>
<polygon fill="midnightblue" stroke="midnightblue" points="1255.04,-209.545 1263.76,-203.537 1253.19,-202.791 1255.04,-209.545"/>
</g>
<!-- Node10&#45;&gt;Node38 -->
<g id="edge55" class="edge"><title>Node10&#45;&gt;Node38</title>
<path fill="none" stroke="midnightblue" d="M1098.59,-240.446C1113.02,-230 1133.21,-215.375 1148.02,-204.65"/>
<polygon fill="midnightblue" stroke="midnightblue" points="1150.4,-207.248 1156.45,-198.548 1146.3,-201.578 1150.4,-207.248"/>
</g>
<!-- Node13&#45;&gt;Node3 -->
<g id="edge16" class="edge"><title>Node13&#45;&gt;Node3</title>
<path fill="none" stroke="midnightblue" d="M529.235,-180.166C532.296,-170.387 537.307,-153.646 540.564,-139 549.205,-100.14 555.896,-53.9337 559.23,-28.879"/>
<polygon fill="midnightblue" stroke="midnightblue" points="562.737,-29.0477 560.556,-18.6799 555.796,-28.1452 562.737,-29.0477"/>
</g>
<!-- Node13&#45;&gt;Node9 -->
<g id="edge18" class="edge"><title>Node13&#45;&gt;Node9</title>
<path fill="none" stroke="midnightblue" d="M459.272,-181.669C411.894,-175.069 347.855,-162.472 295.564,-139 257.853,-122.072 253.662,-108.762 220.564,-84 203.553,-71.2732 201.538,-64.5569 182.564,-55 162.372,-44.8296 105.775,-29.6433 67.1192,-19.9052"/>
<polygon fill="midnightblue" stroke="midnightblue" points="67.7749,-16.4615 57.2247,-17.4325 66.0777,-23.2526 67.7749,-16.4615"/>
</g>
<!-- Node14 -->
<g id="node15" class="node"><title>Node14</title>
<polygon fill="white" stroke="#bfbfbf" points="411.264,-0.5 411.264,-18.5 517.864,-18.5 517.864,-0.5 411.264,-0.5"/>
<text text-anchor="middle" x="464.564" y="-6.5" font-family="Helvetica,sans-Serif" font-size="10.00">ocra/control/Model.h</text>
</g>
<!-- Node13&#45;&gt;Node14 -->
<g id="edge17" class="edge"><title>Node13&#45;&gt;Node14</title>
<path fill="none" stroke="midnightblue" d="M524.608,-180.404C521.426,-167.502 514.758,-141.538 507.564,-120 496.548,-87.0223 481.168,-49.4818 472.099,-28.0303"/>
<polygon fill="midnightblue" stroke="midnightblue" points="475.236,-26.4618 468.095,-18.6349 468.796,-29.2065 475.236,-26.4618"/>
</g>
<!-- Node15 -->
<g id="node16" class="node"><title>Node15</title>
<polygon fill="white" stroke="#bfbfbf" points="147.266,-0.5 147.266,-18.5 223.862,-18.5 223.862,-0.5 147.266,-0.5"/>
<text text-anchor="middle" x="185.564" y="-6.5" font-family="Helvetica,sans-Serif" font-size="10.00">yarp/os/Log.h</text>
</g>
<!-- Node13&#45;&gt;Node15 -->
<g id="edge19" class="edge"><title>Node13&#45;&gt;Node15</title>
<path fill="none" stroke="midnightblue" d="M460.917,-180.467C420.648,-173.572 369.036,-161.103 327.564,-139 272.229,-109.509 221.359,-53.7323 198.406,-26.4029"/>
<polygon fill="midnightblue" stroke="midnightblue" points="201.03,-24.0828 191.964,-18.5986 195.631,-28.5389 201.03,-24.0828"/>
</g>
<!-- Node16 -->
<g id="node17" class="node"><title>Node16</title>
<g id="a_node17"><a xlink:href="OcraWbiConversions_8h.html" target="_top" xlink:title="A utility class full of static conversion functions. ">
<polygon fill="white" stroke="black" points="336.205,-120.5 336.205,-138.5 498.923,-138.5 498.923,-120.5 336.205,-120.5"/>
<text text-anchor="middle" x="417.564" y="-126.5" font-family="Helvetica,sans-Serif" font-size="10.00">ocra&#45;icub/OcraWbiConversions.h</text>
</a>
</g>
</g>
<!-- Node13&#45;&gt;Node16 -->
<g id="edge20" class="edge"><title>Node13&#45;&gt;Node16</title>
<path fill="none" stroke="midnightblue" d="M511.408,-180.435C493.45,-170.88 463.29,-154.832 442.016,-143.511"/>
<polygon fill="midnightblue" stroke="midnightblue" points="443.415,-140.291 432.943,-138.683 440.127,-146.47 443.415,-140.291"/>
</g>
<!-- Node13&#45;&gt;Node20 -->
<g id="edge53" class="edge"><title>Node13&#45;&gt;Node20</title>
<path fill="none" stroke="midnightblue" d="M558.907,-180.482C642.692,-159.712 866.771,-104.163 960.467,-80.9359"/>
<polygon fill="midnightblue" stroke="midnightblue" points="961.312,-84.3323 970.176,-78.5289 959.628,-77.5379 961.312,-84.3323"/>
</g>
<!-- Node16&#45;&gt;Node2 -->
<g id="edge21" class="edge"><title>Node16&#45;&gt;Node2</title>
<path fill="none" stroke="midnightblue" d="M400.582,-120.394C383.483,-112.004 356.56,-98.161 334.564,-84 316.701,-72.4996 315.804,-64.0097 296.564,-55 234.142,-25.7693 210.745,-34.4219 139.912,-19.2172"/>
<polygon fill="midnightblue" stroke="midnightblue" points="140.599,-15.7845 130.076,-17.0193 139.072,-22.616 140.599,-15.7845"/>
</g>
<!-- Node16&#45;&gt;Node7 -->
<g id="edge27" class="edge"><title>Node16&#45;&gt;Node7</title>
<path fill="none" stroke="midnightblue" d="M465.449,-120.496C522.303,-110.993 617.946,-95.0067 685.762,-83.6715"/>
<polygon fill="midnightblue" stroke="midnightblue" points="686.691,-87.0649 695.977,-81.9641 685.537,-80.1607 686.691,-87.0649"/>
</g>
<!-- Node16&#45;&gt;Node9 -->
<g id="edge26" class="edge"><title>Node16&#45;&gt;Node9</title>
<path fill="none" stroke="midnightblue" d="M395.233,-120.379C370.929,-111.519 330.938,-96.8785 296.564,-84 262.709,-71.3159 255.144,-65.5506 220.564,-55 205.99,-50.5533 118.743,-30.7505 67.01,-19.1139"/>
<polygon fill="midnightblue" stroke="midnightblue" points="67.6931,-15.6802 57.169,-16.9025 66.1583,-22.5099 67.6931,-15.6802"/>
</g>
<!-- Node16&#45;&gt;Node15 -->
<g id="edge25" class="edge"><title>Node16&#45;&gt;Node15</title>
<path fill="none" stroke="midnightblue" d="M410.651,-120.383C397.4,-105.324 366.862,-72.96 334.564,-55 303.191,-37.554 264.21,-26.2258 233.99,-19.3667"/>
<polygon fill="midnightblue" stroke="midnightblue" points="234.616,-15.9212 224.1,-17.2096 233.125,-22.7604 234.616,-15.9212"/>
</g>
<!-- Node17 -->
<g id="node18" class="node"><title>Node17</title>
<polygon fill="white" stroke="#bfbfbf" points="386.837,-60.5 386.837,-78.5 422.291,-78.5 422.291,-60.5 386.837,-60.5"/>
<text text-anchor="middle" x="404.564" y="-66.5" font-family="Helvetica,sans-Serif" font-size="10.00">map</text>
</g>
<!-- Node16&#45;&gt;Node17 -->
<g id="edge22" class="edge"><title>Node16&#45;&gt;Node17</title>
<path fill="none" stroke="midnightblue" d="M415.756,-120.435C413.934,-112.304 411.057,-99.4692 408.677,-88.8485"/>
<polygon fill="midnightblue" stroke="midnightblue" points="412.043,-87.8641 406.44,-78.8718 405.212,-89.3952 412.043,-87.8641"/>
</g>
<!-- Node18 -->
<g id="node19" class="node"><title>Node18</title>
<polygon fill="white" stroke="#bfbfbf" points="349.948,-0.5 349.948,-18.5 393.18,-18.5 393.18,-0.5 349.948,-0.5"/>
<text text-anchor="middle" x="371.564" y="-6.5" font-family="Helvetica,sans-Serif" font-size="10.00">vector</text>
</g>
<!-- Node16&#45;&gt;Node18 -->
<g id="edge23" class="edge"><title>Node16&#45;&gt;Node18</title>
<path fill="none" stroke="midnightblue" d="M431.189,-120.202C442.509,-112.435 457.813,-99.6892 464.564,-84 469.658,-72.1607 471.435,-65.9047 464.564,-55 457.436,-43.6867 426.948,-30.4206 402.797,-21.3351"/>
<polygon fill="midnightblue" stroke="midnightblue" points="403.846,-17.9921 393.253,-17.8339 401.435,-24.5639 403.846,-17.9921"/>
</g>
<!-- Node19 -->
<g id="node20" class="node"><title>Node19</title>
<polygon fill="white" stroke="#bfbfbf" points="241.594,-0.5 241.594,-18.5 331.534,-18.5 331.534,-0.5 241.594,-0.5"/>
<text text-anchor="middle" x="286.564" y="-6.5" font-family="Helvetica,sans-Serif" font-size="10.00">yarp/sig/Vector.h</text>
</g>
<!-- Node16&#45;&gt;Node19 -->
<g id="edge24" class="edge"><title>Node16&#45;&gt;Node19</title>
<path fill="none" stroke="midnightblue" d="M422.801,-120.321C431.416,-105.721 446.234,-74.8476 431.564,-55 420.548,-40.0958 377.805,-28.1276 341.558,-20.3728"/>
<polygon fill="midnightblue" stroke="midnightblue" points="342.04,-16.8985 331.538,-18.2984 340.621,-23.7531 342.04,-16.8985"/>
</g>
<!-- Node16&#45;&gt;Node20 -->
<g id="edge28" class="edge"><title>Node16&#45;&gt;Node20</title>
<path fill="none" stroke="midnightblue" d="M498.292,-120.496C617.048,-108.722 836.188,-86.9954 942.11,-76.4937"/>
<polygon fill="midnightblue" stroke="midnightblue" points="942.701,-79.9524 952.307,-75.4827 942.011,-72.9865 942.701,-79.9524"/>
</g>
<!-- Node20&#45;&gt;Node2 -->
<g id="edge31" class="edge"><title>Node20&#45;&gt;Node2</title>
<path fill="none" stroke="midnightblue" d="M952.197,-63.8537C920.471,-61.0319 878.645,-57.5034 841.564,-55 532.774,-34.1529 450.06,-62.5042 140.16,-18.9573"/>
<polygon fill="midnightblue" stroke="midnightblue" points="140.376,-15.453 129.984,-17.5131 139.393,-22.3835 140.376,-15.453"/>
</g>
<!-- Node20&#45;&gt;Node3 -->
<g id="edge29" class="edge"><title>Node20&#45;&gt;Node3</title>
<path fill="none" stroke="midnightblue" d="M952.277,-64.2758C877.159,-57.5473 731.072,-42.8499 597.843,-19.0415"/>
<polygon fill="midnightblue" stroke="midnightblue" points="598.33,-15.5728 587.867,-17.237 597.084,-22.4611 598.33,-15.5728"/>
</g>
<!-- Node20&#45;&gt;Node9 -->
<g id="edge49" class="edge"><title>Node20&#45;&gt;Node9</title>
<path fill="none" stroke="midnightblue" d="M952.201,-63.7922C920.477,-60.947 878.651,-57.4154 841.564,-55 500.753,-32.8035 410.044,-64.1989 67.4666,-18.8493"/>
<polygon fill="midnightblue" stroke="midnightblue" points="67.8922,-15.3751 57.5167,-17.52 66.9652,-22.3135 67.8922,-15.3751"/>
</g>
<!-- Node20&#45;&gt;Node12 -->
<g id="edge51" class="edge"><title>Node20&#45;&gt;Node12</title>
<path fill="none" stroke="midnightblue" d="M1035.94,-60.4327C1045.75,-58.3406 1056.54,-56.3099 1066.56,-55 1368.22,-15.571 1450.39,-54.1693 1756.66,-18.9206"/>
<polygon fill="midnightblue" stroke="midnightblue" points="1757.19,-22.3825 1766.72,-17.746 1756.38,-15.4298 1757.19,-22.3825"/>
</g>
<!-- Node20&#45;&gt;Node14 -->
<g id="edge50" class="edge"><title>Node20&#45;&gt;Node14</title>
<path fill="none" stroke="midnightblue" d="M952.129,-63.8008C866.953,-55.7449 688.93,-38.3943 528.065,-19.1477"/>
<polygon fill="midnightblue" stroke="midnightblue" points="528.33,-15.6545 517.984,-17.9363 527.495,-22.6045 528.33,-15.6545"/>
</g>
<!-- Node20&#45;&gt;Node15 -->
<g id="edge44" class="edge"><title>Node20&#45;&gt;Node15</title>
<path fill="none" stroke="midnightblue" d="M952.19,-63.9557C920.462,-61.1728 878.635,-57.6495 841.564,-55 574.416,-35.9066 503.509,-50.8108 234.063,-19.0346"/>
<polygon fill="midnightblue" stroke="midnightblue" points="234.325,-15.5413 223.982,-17.835 233.498,-22.4922 234.325,-15.5413"/>
</g>
<!-- Node20&#45;&gt;Node18 -->
<g id="edge33" class="edge"><title>Node20&#45;&gt;Node18</title>
<path fill="none" stroke="midnightblue" d="M952.167,-64.2503C920.43,-61.58 878.602,-58.0715 841.564,-55 649.707,-39.0897 597.087,-52.5669 403.396,-18.7975"/>
<polygon fill="midnightblue" stroke="midnightblue" points="403.921,-15.336 393.465,-17.0465 402.705,-22.2297 403.921,-15.336"/>
</g>
<!-- Node20&#45;&gt;Node19 -->
<g id="edge47" class="edge"><title>Node20&#45;&gt;Node19</title>
<path fill="none" stroke="midnightblue" d="M952.178,-64.1198C920.445,-61.3997 878.617,-57.8846 841.564,-55 622.257,-37.9268 564.052,-44.1875 341.636,-19.0244"/>
<polygon fill="midnightblue" stroke="midnightblue" points="341.939,-15.5363 331.606,-17.8812 341.146,-22.4913 341.939,-15.5363"/>
</g>
<!-- Node21 -->
<g id="node22" class="node"><title>Node21</title>
<polygon fill="white" stroke="#bfbfbf" points="1570.95,-0.5 1570.95,-18.5 1614.18,-18.5 1614.18,-0.5 1570.95,-0.5"/>
<text text-anchor="middle" x="1592.56" y="-6.5" font-family="Helvetica,sans-Serif" font-size="10.00">cmath</text>
</g>
<!-- Node20&#45;&gt;Node21 -->
<g id="edge30" class="edge"><title>Node20&#45;&gt;Node21</title>
<path fill="none" stroke="midnightblue" d="M1036.29,-60.4937C1046.01,-58.4286 1056.67,-56.3969 1066.56,-55 1281.67,-24.6327 1342.34,-55.3822 1560.5,-18.8067"/>
<polygon fill="midnightblue" stroke="midnightblue" points="1561.4,-22.2034 1570.67,-17.072 1560.22,-15.303 1561.4,-22.2034"/>
</g>
<!-- Node20&#45;&gt;Node22 -->
<g id="edge32" class="edge"><title>Node20&#45;&gt;Node22</title>
<path fill="none" stroke="midnightblue" d="M1052.87,-67.0571C1207.63,-62.3866 1676.12,-46.4648 1848.18,-18.7885"/>
<polygon fill="midnightblue" stroke="midnightblue" points="1848.82,-22.2296 1858.1,-17.1205 1847.66,-15.3264 1848.82,-22.2296"/>
</g>
<!-- Node20&#45;&gt;Node23 -->
<g id="edge34" class="edge"><title>Node20&#45;&gt;Node23</title>
<path fill="none" stroke="midnightblue" d="M1052.92,-68.9734C1189.19,-69.5673 1576.5,-66.7038 1906.44,-18.85"/>
<polygon fill="midnightblue" stroke="midnightblue" points="1907.29,-22.2629 1916.67,-17.3482 1906.27,-15.337 1907.29,-22.2629"/>
</g>
<!-- Node24 -->
<g id="node25" class="node"><title>Node24</title>
<polygon fill="white" stroke="#bfbfbf" points="1632.62,-0.5 1632.62,-18.5 1748.5,-18.5 1748.5,-0.5 1632.62,-0.5"/>
<text text-anchor="middle" x="1690.56" y="-6.5" font-family="Helvetica,sans-Serif" font-size="10.00">yarp/os/BufferedPort.h</text>
</g>
<!-- Node20&#45;&gt;Node24 -->
<g id="edge35" class="edge"><title>Node20&#45;&gt;Node24</title>
<path fill="none" stroke="midnightblue" d="M1036.28,-60.4422C1046.01,-58.3763 1056.66,-56.357 1066.56,-55 1309.1,-21.7571 1374.89,-42.0697 1622.46,-19.0374"/>
<polygon fill="midnightblue" stroke="midnightblue" points="1622.86,-22.5158 1632.48,-18.0908 1622.2,-15.5469 1622.86,-22.5158"/>
</g>
<!-- Node20&#45;&gt;Node25 -->
<g id="edge36" class="edge"><title>Node20&#45;&gt;Node25</title>
<path fill="none" stroke="midnightblue" d="M1053.06,-68.4263C1211.39,-67.7435 1712.25,-62.1521 2136.76,-18.9353"/>
<polygon fill="midnightblue" stroke="midnightblue" points="2137.18,-22.4104 2146.77,-17.9075 2136.46,-15.447 2137.18,-22.4104"/>
</g>
<!-- Node26 -->
<g id="node27" class="node"><title>Node26</title>
<polygon fill="white" stroke="#bfbfbf" points="605.205,-0.5 605.205,-18.5 717.923,-18.5 717.923,-0.5 605.205,-0.5"/>
<text text-anchor="middle" x="661.564" y="-6.5" font-family="Helvetica,sans-Serif" font-size="10.00">yarp/os/RateThread.h</text>
</g>
<!-- Node20&#45;&gt;Node26 -->
<g id="edge37" class="edge"><title>Node20&#45;&gt;Node26</title>
<path fill="none" stroke="midnightblue" d="M955.507,-60.4962C893.64,-49.9734 785.036,-31.501 718.575,-20.1969"/>
<polygon fill="midnightblue" stroke="midnightblue" points="719.13,-16.7411 708.685,-18.5147 717.956,-23.642 719.13,-16.7411"/>
</g>
<!-- Node27 -->
<g id="node28" class="node"><title>Node27</title>
<polygon fill="white" stroke="#bfbfbf" points="736.311,-0.5 736.311,-18.5 866.817,-18.5 866.817,-0.5 736.311,-0.5"/>
<text text-anchor="middle" x="801.564" y="-6.5" font-family="Helvetica,sans-Serif" font-size="10.00">yarp/os/ResourceFinder.h</text>
</g>
<!-- Node20&#45;&gt;Node27 -->
<g id="edge38" class="edge"><title>Node20&#45;&gt;Node27</title>
<path fill="none" stroke="midnightblue" d="M974.616,-60.4353C939.389,-50.2703 878.696,-32.757 839.355,-21.405"/>
<polygon fill="midnightblue" stroke="midnightblue" points="840.176,-17.9992 829.598,-18.5894 838.236,-24.7248 840.176,-17.9992"/>
</g>
<!-- Node28 -->
<g id="node29" class="node"><title>Node28</title>
<polygon fill="white" stroke="#bfbfbf" points="885.313,-0.5 885.313,-18.5 995.815,-18.5 995.815,-0.5 885.313,-0.5"/>
<text text-anchor="middle" x="940.564" y="-6.5" font-family="Helvetica,sans-Serif" font-size="10.00">yarp/os/PortReader.h</text>
</g>
<!-- Node20&#45;&gt;Node28 -->
<g id="edge39" class="edge"><title>Node20&#45;&gt;Node28</title>
<path fill="none" stroke="midnightblue" d="M993.943,-60.4353C984.427,-51.5331 968.886,-36.9952 957.021,-25.8954"/>
<polygon fill="midnightblue" stroke="midnightblue" points="959.207,-23.1474 949.513,-18.8718 954.425,-28.2593 959.207,-23.1474"/>
</g>
<!-- Node29 -->
<g id="node30" class="node"><title>Node29</title>
<polygon fill="white" stroke="#bfbfbf" points="1013.93,-0.5 1013.93,-18.5 1117.19,-18.5 1117.19,-0.5 1013.93,-0.5"/>
<text text-anchor="middle" x="1065.56" y="-6.5" font-family="Helvetica,sans-Serif" font-size="10.00">yarp/os/RpcClient.h</text>
</g>
<!-- Node20&#45;&gt;Node29 -->
<g id="edge40" class="edge"><title>Node20&#45;&gt;Node29</title>
<path fill="none" stroke="midnightblue" d="M1011.32,-60.4353C1020.99,-51.5331 1036.78,-36.9952 1048.84,-25.8954"/>
<polygon fill="midnightblue" stroke="midnightblue" points="1051.48,-28.2198 1056.47,-18.8718 1046.74,-23.0699 1051.48,-28.2198"/>
</g>
<!-- Node20&#45;&gt;Node30 -->
<g id="edge41" class="edge"><title>Node20&#45;&gt;Node30</title>
<path fill="none" stroke="midnightblue" d="M1052.83,-68.2265C1220.08,-66.9491 1773.14,-59.7739 2240.19,-19.0297"/>
<polygon fill="midnightblue" stroke="midnightblue" points="2240.51,-22.515 2250.17,-18.153 2239.9,-15.5418 2240.51,-22.515"/>
</g>
<!-- Node20&#45;&gt;Node31 -->
<g id="edge42" class="edge"><title>Node20&#45;&gt;Node31</title>
<path fill="none" stroke="midnightblue" d="M1052.86,-66.9256C1195.68,-62.2461 1616.1,-47.0234 1975.96,-19.0837"/>
<polygon fill="midnightblue" stroke="midnightblue" points="1976.36,-22.5635 1986.05,-18.2955 1975.81,-15.5848 1976.36,-22.5635"/>
</g>
<!-- Node20&#45;&gt;Node32 -->
<g id="edge43" class="edge"><title>Node20&#45;&gt;Node32</title>
<path fill="none" stroke="midnightblue" d="M1053.01,-67.5615C1264.75,-63.4867 2083.19,-46.3393 2364.25,-18.9568"/>
<polygon fill="midnightblue" stroke="midnightblue" points="2364.82,-22.4172 2374.42,-17.9369 2364.12,-15.4521 2364.82,-22.4172"/>
</g>
<!-- Node33 -->
<g id="node34" class="node"><title>Node33</title>
<polygon fill="white" stroke="#bfbfbf" points="1135.15,-0.5 1135.15,-18.5 1243.98,-18.5 1243.98,-0.5 1135.15,-0.5"/>
<text text-anchor="middle" x="1189.56" y="-6.5" font-family="Helvetica,sans-Serif" font-size="10.00">yarp/os/LogStream.h</text>
</g>
<!-- Node20&#45;&gt;Node33 -->
<g id="edge45" class="edge"><title>Node20&#45;&gt;Node33</title>
<path fill="none" stroke="midnightblue" d="M1028.57,-60.4353C1061.13,-50.335 1117.09,-32.9798 1153.7,-21.6227"/>
<polygon fill="midnightblue" stroke="midnightblue" points="1154.97,-24.8948 1163.48,-18.5894 1152.89,-18.209 1154.97,-24.8948"/>
</g>
<!-- Node34 -->
<g id="node35" class="node"><title>Node34</title>
<polygon fill="white" stroke="#bfbfbf" points="1262.08,-0.5 1262.08,-18.5 1359.05,-18.5 1359.05,-0.5 1262.08,-0.5"/>
<text text-anchor="middle" x="1310.56" y="-6.5" font-family="Helvetica,sans-Serif" font-size="10.00">yarp/os/Property.h</text>
</g>
<!-- Node20&#45;&gt;Node34 -->
<g id="edge46" class="edge"><title>Node20&#45;&gt;Node34</title>
<path fill="none" stroke="midnightblue" d="M1039.76,-60.4745C1048.54,-58.6296 1057.87,-56.7088 1066.56,-55 1130.8,-42.3707 1204.79,-29.0479 1254.3,-20.3091"/>
<polygon fill="midnightblue" stroke="midnightblue" points="1254.93,-23.7518 1264.17,-18.5699 1253.71,-16.858 1254.93,-23.7518"/>
</g>
<!-- Node35 -->
<g id="node36" class="node"><title>Node35</title>
<polygon fill="white" stroke="#bfbfbf" points="1376.89,-0.5 1376.89,-18.5 1466.24,-18.5 1466.24,-0.5 1376.89,-0.5"/>
<text text-anchor="middle" x="1421.56" y="-6.5" font-family="Helvetica,sans-Serif" font-size="10.00">yarp/sig/Matrix.h</text>
</g>
<!-- Node20&#45;&gt;Node35 -->
<g id="edge48" class="edge"><title>Node20&#45;&gt;Node35</title>
<path fill="none" stroke="midnightblue" d="M1038,-60.4385C1047.27,-58.4921 1057.26,-56.5338 1066.56,-55 1196.25,-33.6097 1232.36,-37.2787 1366.53,-19.0857"/>
<polygon fill="midnightblue" stroke="midnightblue" points="1367.36,-22.5049 1376.79,-17.6781 1366.41,-15.5698 1367.36,-22.5049"/>
</g>
<!-- Node36 -->
<g id="node37" class="node"><title>Node36</title>
<polygon fill="white" stroke="#bfbfbf" points="1484.16,-0.5 1484.16,-18.5 1552.97,-18.5 1552.97,-0.5 1484.16,-0.5"/>
<text text-anchor="middle" x="1518.56" y="-6.5" font-family="Helvetica,sans-Serif" font-size="10.00">Eigen/Lgsm</text>
</g>
<!-- Node20&#45;&gt;Node36 -->
<g id="edge52" class="edge"><title>Node20&#45;&gt;Node36</title>
<path fill="none" stroke="midnightblue" d="M1036.97,-60.4501C1046.51,-58.4341 1056.9,-56.4385 1066.56,-55 1243.79,-28.6056 1293.13,-44.1446 1473.78,-19.1107"/>
<polygon fill="midnightblue" stroke="midnightblue" points="1474.47,-22.5479 1483.88,-17.6872 1473.49,-15.6163 1474.47,-22.5479"/>
</g>
</g>
</svg>
