<?xml version="1.0" encoding="UTF-8" standalone="no"?>
<!DOCTYPE svg PUBLIC "-//W3C//DTD SVG 1.1//EN"
 "http://www.w3.org/Graphics/SVG/1.1/DTD/svg11.dtd">
<!-- Generated by graphviz version 2.38.0 (20140413.2041)
 -->
<!-- Title: /Users/jorhabibeljaik/Code/codyco&#45;superbuild/main/ocra&#45;wbi&#45;plugins/ocra&#45;icub&#45;server/include/ocra&#45;icub&#45;server/Module.h Pages: 1 -->
<svg width="2604pt" height="427pt"
 viewBox="0.00 0.00 2603.62 427.00" xmlns="http://www.w3.org/2000/svg" xmlns:xlink="http://www.w3.org/1999/xlink">
<g id="graph0" class="graph" transform="scale(1 1) rotate(0) translate(4 423)">
<title>/Users/jorhabibeljaik/Code/codyco&#45;superbuild/main/ocra&#45;wbi&#45;plugins/ocra&#45;icub&#45;server/include/ocra&#45;icub&#45;server/Module.h</title>
<polygon fill="white" stroke="none" points="-4,4 -4,-423 2599.62,-423 2599.62,4 -4,4"/>
<!-- Node0 -->
<g id="node1" class="node"><title>Node0</title>
<polygon fill="#bfbfbf" stroke="black" points="1379.1,-360.5 1379.1,-418.5 1514.03,-418.5 1514.03,-360.5 1379.1,-360.5"/>
<text text-anchor="start" x="1387.1" y="-406.5" font-family="Helvetica,sans-Serif" font-size="10.00">/Users/jorhabibeljaik</text>
<text text-anchor="start" x="1387.1" y="-396.5" font-family="Helvetica,sans-Serif" font-size="10.00">/Code/codyco&#45;superbuild</text>
<text text-anchor="start" x="1387.1" y="-386.5" font-family="Helvetica,sans-Serif" font-size="10.00">/main/ocra&#45;wbi&#45;plugins</text>
<text text-anchor="start" x="1387.1" y="-376.5" font-family="Helvetica,sans-Serif" font-size="10.00">/ocra&#45;icub&#45;server/include</text>
<text text-anchor="middle" x="1446.56" y="-366.5" font-family="Helvetica,sans-Serif" font-size="10.00">/ocra&#45;icub&#45;server/Module.h</text>
</g>
<!-- Node1 -->
<g id="node2" class="node"><title>Node1</title>
<polygon fill="white" stroke="#bfbfbf" points="2347.39,-0.5 2347.39,-18.5 2401.74,-18.5 2401.74,-0.5 2347.39,-0.5"/>
<text text-anchor="middle" x="2374.56" y="-6.5" font-family="Helvetica,sans-Serif" font-size="10.00">iostream</text>
</g>
<!-- Node0&#45;&gt;Node1 -->
<g id="edge1" class="edge"><title>Node0&#45;&gt;Node1</title>
<path fill="none" stroke="midnightblue" d="M1514.15,-364.609C1559.72,-343.695 1611.56,-308.298 1611.56,-255.5 1611.56,-255.5 1611.56,-255.5 1611.56,-128.5 1611.56,-73.3419 1659.67,-73.6851 1711.56,-55 1839.93,-8.7844 2184.51,-37.7414 2336.94,-18.8731"/>
<polygon fill="midnightblue" stroke="midnightblue" points="2337.7,-22.3028 2347.14,-17.4953 2336.76,-15.3658 2337.7,-22.3028"/>
</g>
<!-- Node2 -->
<g id="node3" class="node"><title>Node2</title>
<polygon fill="white" stroke="#bfbfbf" points="2543.51,-0.5 2543.51,-18.5 2595.62,-18.5 2595.62,-0.5 2543.51,-0.5"/>
<text text-anchor="middle" x="2569.56" y="-6.5" font-family="Helvetica,sans-Serif" font-size="10.00">memory</text>
</g>
<!-- Node0&#45;&gt;Node2 -->
<g id="edge2" class="edge"><title>Node0&#45;&gt;Node2</title>
<path fill="none" stroke="midnightblue" d="M1514.1,-385.043C1596.67,-376.756 1725.56,-348.868 1725.56,-255.5 1725.56,-255.5 1725.56,-255.5 1725.56,-128.5 1725.56,-40.4489 2403.86,-36.0017 2533.09,-18.7947"/>
<polygon fill="midnightblue" stroke="midnightblue" points="2533.92,-22.2075 2543.25,-17.1992 2532.83,-15.2921 2533.92,-22.2075"/>
</g>
<!-- Node3 -->
<g id="node4" class="node"><title>Node3</title>
<polygon fill="white" stroke="#bfbfbf" points="1304,-305.5 1304,-323.5 1361.13,-323.5 1361.13,-305.5 1304,-305.5"/>
<text text-anchor="middle" x="1332.56" y="-311.5" font-family="Helvetica,sans-Serif" font-size="10.00">algorithm</text>
</g>
<!-- Node0&#45;&gt;Node3 -->
<g id="edge3" class="edge"><title>Node0&#45;&gt;Node3</title>
<path fill="none" stroke="midnightblue" d="M1402.81,-360.485C1386.08,-349.77 1367.73,-338.021 1353.99,-329.219"/>
<polygon fill="midnightblue" stroke="midnightblue" points="1355.59,-326.089 1345.28,-323.644 1351.82,-331.984 1355.59,-326.089"/>
</g>
<!-- Node4 -->
<g id="node5" class="node"><title>Node4</title>
<polygon fill="white" stroke="#bfbfbf" points="1379.5,-305.5 1379.5,-323.5 1421.63,-323.5 1421.63,-305.5 1379.5,-305.5"/>
<text text-anchor="middle" x="1400.56" y="-311.5" font-family="Helvetica,sans-Serif" font-size="10.00">locale</text>
</g>
<!-- Node0&#45;&gt;Node4 -->
<g id="edge4" class="edge"><title>Node0&#45;&gt;Node4</title>
<path fill="none" stroke="midnightblue" d="M1428.91,-360.485C1422.87,-350.903 1416.31,-340.495 1411.03,-332.106"/>
<polygon fill="midnightblue" stroke="midnightblue" points="1413.99,-330.238 1405.7,-323.644 1408.07,-333.97 1413.99,-330.238"/>
</g>
<!-- Node5 -->
<g id="node6" class="node"><title>Node5</title>
<polygon fill="white" stroke="#bfbfbf" points="1439.54,-305.5 1439.54,-323.5 1545.58,-323.5 1545.58,-305.5 1439.54,-305.5"/>
<text text-anchor="middle" x="1492.56" y="-311.5" font-family="Helvetica,sans-Serif" font-size="10.00">yarp/os/RFModule.h</text>
</g>
<!-- Node0&#45;&gt;Node5 -->
<g id="edge5" class="edge"><title>Node0&#45;&gt;Node5</title>
<path fill="none" stroke="midnightblue" d="M1464.22,-360.485C1470.26,-350.903 1476.81,-340.495 1482.1,-332.106"/>
<polygon fill="midnightblue" stroke="midnightblue" points="1485.06,-333.97 1487.43,-323.644 1479.14,-330.238 1485.06,-333.97"/>
</g>
<!-- Node6 -->
<g id="node7" class="node"><title>Node6</title>
<polygon fill="white" stroke="#bfbfbf" points="916.254,-55.5 916.254,-83.5 1052.87,-83.5 1052.87,-55.5 916.254,-55.5"/>
<text text-anchor="start" x="924.254" y="-71.5" font-family="Helvetica,sans-Serif" font-size="10.00">yarpWholeBodyInterface</text>
<text text-anchor="middle" x="984.564" y="-61.5" font-family="Helvetica,sans-Serif" font-size="10.00">/yarpWholeBodyInterface.h</text>
</g>
<!-- Node0&#45;&gt;Node6 -->
<g id="edge6" class="edge"><title>Node0&#45;&gt;Node6</title>
<path fill="none" stroke="midnightblue" d="M1378.81,-373.909C1349.18,-364.317 1316.3,-348.784 1294.56,-324 1273.73,-300.248 1275.56,-287.094 1275.56,-255.5 1275.56,-255.5 1275.56,-255.5 1275.56,-188.5 1275.56,-142.109 1146.95,-105.248 1060.73,-85.7488"/>
<polygon fill="midnightblue" stroke="midnightblue" points="1061.48,-82.3306 1050.96,-83.5722 1059.96,-89.1631 1061.48,-82.3306"/>
</g>
<!-- Node7 -->
<g id="node8" class="node"><title>Node7</title>
<g id="a_node8"><a xlink:href="Thread_8h.html" target="_top" xlink:title="The thread class for the controller server. ">
<polygon fill="white" stroke="black" points="880.042,-305.5 880.042,-323.5 1011.09,-323.5 1011.09,-305.5 880.042,-305.5"/>
<text text-anchor="middle" x="945.564" y="-311.5" font-family="Helvetica,sans-Serif" font-size="10.00">ocra&#45;icub&#45;server/Thread.h</text>
</a>
</g>
</g>
<!-- Node0&#45;&gt;Node7 -->
<g id="edge7" class="edge"><title>Node0&#45;&gt;Node7</title>
<path fill="none" stroke="midnightblue" d="M1379,-378.655C1282.36,-364.574 1105.85,-338.855 1010.62,-324.979"/>
<polygon fill="midnightblue" stroke="midnightblue" points="1010.94,-321.489 1000.54,-323.511 1009.93,-328.416 1010.94,-321.489"/>
</g>
<!-- Node19 -->
<g id="node20" class="node"><title>Node19</title>
<g id="a_node20"><a xlink:href="Utilities_8h.html" target="_top" xlink:title="Some useful tools for the ocra&#45;icub lib. ">
<polygon fill="white" stroke="black" points="1071.33,-60.5 1071.33,-78.5 1171.8,-78.5 1171.8,-60.5 1071.33,-60.5"/>
<text text-anchor="middle" x="1121.56" y="-66.5" font-family="Helvetica,sans-Serif" font-size="10.00">ocra&#45;icub/Utilities.h</text>
</a>
</g>
</g>
<!-- Node0&#45;&gt;Node19 -->
<g id="edge65" class="edge"><title>Node0&#45;&gt;Node19</title>
<path fill="none" stroke="midnightblue" d="M1514.29,-365.407C1543.44,-351.299 1568.1,-330.953 1554.56,-305 1479.57,-161.177 1277.89,-101.731 1178.51,-80.5928"/>
<polygon fill="midnightblue" stroke="midnightblue" points="1179.14,-77.1498 1168.64,-78.5485 1177.72,-84.0043 1179.14,-77.1498"/>
</g>
<!-- Node7&#45;&gt;Node6 -->
<g id="edge8" class="edge"><title>Node7&#45;&gt;Node6</title>
<path fill="none" stroke="midnightblue" d="M953.899,-305.408C970.663,-288.477 1008.01,-247.285 1021.56,-204 1033.72,-165.16 1013.64,-119.336 998.628,-92.7323"/>
<polygon fill="midnightblue" stroke="midnightblue" points="1001.49,-90.6891 993.396,-83.8489 995.455,-94.2417 1001.49,-90.6891"/>
</g>
<!-- Node8 -->
<g id="node9" class="node"><title>Node8</title>
<polygon fill="white" stroke="#bfbfbf" points="0,-0.5 0,-18.5 57.1279,-18.5 57.1279,-0.5 0,-0.5"/>
<text text-anchor="middle" x="28.564" y="-6.5" font-family="Helvetica,sans-Serif" font-size="10.00">wbi/wbi.h</text>
</g>
<!-- Node7&#45;&gt;Node8 -->
<g id="edge9" class="edge"><title>Node7&#45;&gt;Node8</title>
<path fill="none" stroke="midnightblue" d="M879.805,-311.732C711.812,-306.901 275.773,-292.261 214.564,-269 161.747,-248.928 114.564,-247.003 114.564,-190.5 114.564,-190.5 114.564,-190.5 114.564,-128.5 114.564,-84.055 74.2253,-45.1402 48.8019,-25.0277"/>
<polygon fill="midnightblue" stroke="midnightblue" points="50.5975,-21.9957 40.5219,-18.7195 46.3553,-27.5638 50.5975,-21.9957"/>
</g>
<!-- Node9 -->
<g id="node10" class="node"><title>Node9</title>
<g id="a_node10"><a xlink:href="IcubControllerServer_8h.html" target="_top" xlink:title="ocra&#45;icub&#45;server/IcubController\lServer.h">
<polygon fill="white" stroke="black" points="544.929,-240.5 544.929,-268.5 698.199,-268.5 698.199,-240.5 544.929,-240.5"/>
<text text-anchor="start" x="552.929" y="-256.5" font-family="Helvetica,sans-Serif" font-size="10.00">ocra&#45;icub&#45;server/IcubController</text>
<text text-anchor="middle" x="621.564" y="-246.5" font-family="Helvetica,sans-Serif" font-size="10.00">Server.h</text>
</a>
</g>
</g>
<!-- Node7&#45;&gt;Node9 -->
<g id="edge10" class="edge"><title>Node7&#45;&gt;Node9</title>
<path fill="none" stroke="midnightblue" d="M900.853,-305.496C850.265,-296.44 766.789,-281.497 704.249,-270.302"/>
<polygon fill="midnightblue" stroke="midnightblue" points="704.86,-266.855 694.4,-268.538 703.626,-273.746 704.86,-266.855"/>
</g>
<!-- Node7&#45;&gt;Node19 -->
<g id="edge56" class="edge"><title>Node7&#45;&gt;Node19</title>
<path fill="none" stroke="midnightblue" d="M960.996,-305.429C974.96,-297.553 995.444,-284.512 1009.56,-269 1061.93,-211.474 1099.92,-125.238 1114.73,-88.3133"/>
<polygon fill="midnightblue" stroke="midnightblue" points="1118.03,-89.4822 1118.43,-78.8949 1111.51,-86.9225 1118.03,-89.4822"/>
</g>
<!-- Node21 -->
<g id="node22" class="node"><title>Node21</title>
<polygon fill="white" stroke="#bfbfbf" points="335.337,-0.5 335.337,-18.5 375.791,-18.5 375.791,-0.5 335.337,-0.5"/>
<text text-anchor="middle" x="355.564" y="-6.5" font-family="Helvetica,sans-Serif" font-size="10.00">string</text>
</g>
<!-- Node7&#45;&gt;Node21 -->
<g id="edge63" class="edge"><title>Node7&#45;&gt;Node21</title>
<path fill="none" stroke="midnightblue" d="M879.897,-313.187C734.046,-310.822 391.399,-295.454 333.564,-204 298.037,-147.822 330.05,-63.8128 346.82,-27.8483"/>
<polygon fill="midnightblue" stroke="midnightblue" points="350.054,-29.2011 351.262,-18.6753 343.754,-26.1507 350.054,-29.2011"/>
</g>
<!-- Node22 -->
<g id="node23" class="node"><title>Node22</title>
<polygon fill="white" stroke="#bfbfbf" points="2173.78,-0.5 2173.78,-18.5 2225.34,-18.5 2225.34,-0.5 2173.78,-0.5"/>
<text text-anchor="middle" x="2199.56" y="-6.5" font-family="Helvetica,sans-Serif" font-size="10.00">sstream</text>
</g>
<!-- Node7&#45;&gt;Node22 -->
<g id="edge62" class="edge"><title>Node7&#45;&gt;Node22</title>
<path fill="none" stroke="midnightblue" d="M1011.31,-309.497C1086.56,-300.939 1199.56,-274.16 1199.56,-190.5 1199.56,-190.5 1199.56,-190.5 1199.56,-128.5 1199.56,18.292 1376.21,-75.5026 1521.56,-55 1802.1,-15.4298 1880.31,-60.8662 2163.52,-19.0329"/>
<polygon fill="midnightblue" stroke="midnightblue" points="2164.31,-22.4533 2173.68,-17.5077 2163.27,-15.5309 2164.31,-22.4533"/>
</g>
<!-- Node24 -->
<g id="node25" class="node"><title>Node24</title>
<polygon fill="white" stroke="#bfbfbf" points="2243.82,-0.5 2243.82,-18.5 2329.31,-18.5 2329.31,-0.5 2243.82,-0.5"/>
<text text-anchor="middle" x="2286.56" y="-6.5" font-family="Helvetica,sans-Serif" font-size="10.00">yarp/os/Bottle.h</text>
</g>
<!-- Node7&#45;&gt;Node24 -->
<g id="edge58" class="edge"><title>Node7&#45;&gt;Node24</title>
<path fill="none" stroke="midnightblue" d="M1011.16,-306.12C1058.8,-299.543 1124.31,-287.958 1179.56,-269 1376.97,-201.261 1396.13,-109.625 1597.56,-55 1868.04,18.3468 1950.76,-48.3147 2233.62,-18.949"/>
<polygon fill="midnightblue" stroke="midnightblue" points="2234.19,-22.4074 2243.76,-17.8635 2233.45,-15.4471 2234.19,-22.4074"/>
</g>
<!-- Node29 -->
<g id="node30" class="node"><title>Node29</title>
<polygon fill="white" stroke="#bfbfbf" points="2419.26,-0.5 2419.26,-18.5 2525.86,-18.5 2525.86,-0.5 2419.26,-0.5"/>
<text text-anchor="middle" x="2472.56" y="-6.5" font-family="Helvetica,sans-Serif" font-size="10.00">yarp/os/RpcServer.h</text>
</g>
<!-- Node7&#45;&gt;Node29 -->
<g id="edge59" class="edge"><title>Node7&#45;&gt;Node29</title>
<path fill="none" stroke="midnightblue" d="M1011.26,-308.071C1069.31,-302.124 1155.81,-290.435 1228.56,-269 1453.79,-202.644 1483.18,-109.502 1711.56,-55 2010.9,16.434 2098.97,-46.7641 2408.98,-19.049"/>
<polygon fill="midnightblue" stroke="midnightblue" points="2409.53,-22.5142 2419.16,-18.1137 2408.88,-15.5436 2409.53,-22.5142"/>
</g>
<!-- Node30 -->
<g id="node31" class="node"><title>Node30</title>
<polygon fill="white" stroke="#bfbfbf" points="75.1875,-0.5 75.1875,-18.5 217.94,-18.5 217.94,-0.5 75.1875,-0.5"/>
<text text-anchor="middle" x="146.564" y="-6.5" font-family="Helvetica,sans-Serif" font-size="10.00">yarp/os/ConnectionReader.h</text>
</g>
<!-- Node7&#45;&gt;Node30 -->
<g id="edge60" class="edge"><title>Node7&#45;&gt;Node30</title>
<path fill="none" stroke="midnightblue" d="M879.793,-313.627C737.169,-313.153 403.815,-307.784 298.564,-269 243.556,-248.73 192.564,-249.123 192.564,-190.5 192.564,-190.5 192.564,-190.5 192.564,-128.5 192.564,-90.1933 171.26,-49.375 157.648,-27.2049"/>
<polygon fill="midnightblue" stroke="midnightblue" points="160.528,-25.2114 152.204,-18.6562 154.623,-28.9713 160.528,-25.2114"/>
</g>
<!-- Node31 -->
<g id="node32" class="node"><title>Node31</title>
<polygon fill="white" stroke="#bfbfbf" points="235.681,-0.5 235.681,-18.5 317.447,-18.5 317.447,-0.5 235.681,-0.5"/>
<text text-anchor="middle" x="276.564" y="-6.5" font-family="Helvetica,sans-Serif" font-size="10.00">yarp/os/Time.h</text>
</g>
<!-- Node7&#45;&gt;Node31 -->
<g id="edge61" class="edge"><title>Node7&#45;&gt;Node31</title>
<path fill="none" stroke="midnightblue" d="M879.979,-313.255C749.905,-311.979 464.019,-305.025 373.564,-269 322.04,-248.48 276.564,-245.96 276.564,-190.5 276.564,-190.5 276.564,-190.5 276.564,-128.5 276.564,-93.099 276.564,-51.724 276.564,-28.5706"/>
<polygon fill="midnightblue" stroke="midnightblue" points="280.064,-28.5122 276.564,-18.5123 273.064,-28.5123 280.064,-28.5122"/>
</g>
<!-- Node37 -->
<g id="node38" class="node"><title>Node37</title>
<polygon fill="white" stroke="#bfbfbf" points="878.455,-175.5 878.455,-203.5 1012.67,-203.5 1012.67,-175.5 878.455,-175.5"/>
<text text-anchor="start" x="886.455" y="-191.5" font-family="Helvetica,sans-Serif" font-size="10.00">iDynTree/Estimation</text>
<text text-anchor="middle" x="945.564" y="-181.5" font-family="Helvetica,sans-Serif" font-size="10.00">/SimpleLeggedOdometry.h</text>
</g>
<!-- Node7&#45;&gt;Node37 -->
<g id="edge64" class="edge"><title>Node7&#45;&gt;Node37</title>
<path fill="none" stroke="midnightblue" d="M945.564,-305.43C945.564,-287.123 945.564,-241.872 945.564,-213.922"/>
<polygon fill="midnightblue" stroke="midnightblue" points="949.064,-213.809 945.564,-203.809 942.064,-213.809 949.064,-213.809"/>
</g>
<!-- Node38 -->
<g id="node39" class="node"><title>Node38</title>
<polygon fill="white" stroke="#bfbfbf" points="342.431,-180.5 342.431,-198.5 460.697,-198.5 460.697,-180.5 342.431,-180.5"/>
<text text-anchor="middle" x="401.564" y="-186.5" font-family="Helvetica,sans-Serif" font-size="10.00">ocra/util/ErrorsHelper.h</text>
</g>
<!-- Node7&#45;&gt;Node38 -->
<g id="edge57" class="edge"><title>Node7&#45;&gt;Node38</title>
<path fill="none" stroke="midnightblue" d="M879.736,-309.721C780.552,-303.458 597.771,-289.547 535.564,-269 490.873,-254.239 444.825,-223.108 420.05,-204.796"/>
<polygon fill="midnightblue" stroke="midnightblue" points="422.022,-201.9 411.927,-198.684 417.813,-207.493 422.022,-201.9"/>
</g>
<!-- Node9&#45;&gt;Node8 -->
<g id="edge11" class="edge"><title>Node9&#45;&gt;Node8</title>
<path fill="none" stroke="midnightblue" d="M592.039,-240.394C571.006,-230.83 542.214,-217.27 517.564,-204 495.618,-192.185 492.004,-185.847 469.564,-175 324.695,-104.975 141.776,-45.3496 65.0501,-21.5546"/>
<polygon fill="midnightblue" stroke="midnightblue" points="65.9583,-18.1721 55.3709,-18.5686 63.8947,-24.861 65.9583,-18.1721"/>
</g>
<!-- Node10 -->
<g id="node11" class="node"><title>Node10</title>
<polygon fill="white" stroke="#bfbfbf" points="706.367,-180.5 706.367,-198.5 860.761,-198.5 860.761,-180.5 706.367,-180.5"/>
<text text-anchor="middle" x="783.564" y="-186.5" font-family="Helvetica,sans-Serif" font-size="10.00">ocra&#45;recipes/ControllerServer.h</text>
</g>
<!-- Node9&#45;&gt;Node10 -->
<g id="edge12" class="edge"><title>Node9&#45;&gt;Node10</title>
<path fill="none" stroke="midnightblue" d="M655.13,-240.446C684.02,-229.212 725.338,-213.143 753.243,-202.291"/>
<polygon fill="midnightblue" stroke="midnightblue" points="754.818,-205.435 762.869,-198.548 752.28,-198.91 754.818,-205.435"/>
</g>
<!-- Node11 -->
<g id="node12" class="node"><title>Node11</title>
<polygon fill="white" stroke="#bfbfbf" points="393.934,-0.5 393.934,-18.5 467.194,-18.5 467.194,-0.5 393.934,-0.5"/>
<text text-anchor="middle" x="430.564" y="-6.5" font-family="Helvetica,sans-Serif" font-size="10.00">Eigen/Dense</text>
</g>
<!-- Node9&#45;&gt;Node11 -->
<g id="edge13" class="edge"><title>Node9&#45;&gt;Node11</title>
<path fill="none" stroke="midnightblue" d="M595.46,-240.479C579.693,-231.707 559.936,-219.016 545.564,-204 492.385,-148.438 497.068,-120.989 457.564,-55 452.093,-45.8607 445.936,-35.7031 440.884,-27.4027"/>
<polygon fill="midnightblue" stroke="midnightblue" points="443.763,-25.401 435.57,-18.6841 437.786,-29.0445 443.763,-25.401"/>
</g>
<!-- Node12 -->
<g id="node13" class="node"><title>Node12</title>
<g id="a_node13"><a xlink:href="OcraWbiModel_8h.html" target="_top" xlink:title="Implementation of ocra::Model using wholeBodyInterface. ">
<polygon fill="white" stroke="black" points="554.377,-180.5 554.377,-198.5 688.751,-198.5 688.751,-180.5 554.377,-180.5"/>
<text text-anchor="middle" x="621.564" y="-186.5" font-family="Helvetica,sans-Serif" font-size="10.00">ocra&#45;icub/OcraWbiModel.h</text>
</a>
</g>
</g>
<!-- Node9&#45;&gt;Node12 -->
<g id="edge14" class="edge"><title>Node9&#45;&gt;Node12</title>
<path fill="none" stroke="midnightblue" d="M621.564,-240.446C621.564,-231.334 621.564,-219.041 621.564,-208.931"/>
<polygon fill="midnightblue" stroke="midnightblue" points="625.064,-208.73 621.564,-198.73 618.064,-208.73 625.064,-208.73"/>
</g>
<!-- Node9&#45;&gt;Node37 -->
<g id="edge54" class="edge"><title>Node9&#45;&gt;Node37</title>
<path fill="none" stroke="midnightblue" d="M688.697,-240.446C741.045,-230.268 813.799,-216.121 868.518,-205.481"/>
<polygon fill="midnightblue" stroke="midnightblue" points="869.369,-208.881 878.517,-203.537 868.033,-202.01 869.369,-208.881"/>
</g>
<!-- Node9&#45;&gt;Node38 -->
<g id="edge55" class="edge"><title>Node9&#45;&gt;Node38</title>
<path fill="none" stroke="midnightblue" d="M575.98,-240.446C535.543,-228.867 477.175,-212.152 439.303,-201.307"/>
<polygon fill="midnightblue" stroke="midnightblue" points="440.245,-197.936 429.668,-198.548 438.318,-204.666 440.245,-197.936"/>
</g>
<!-- Node12&#45;&gt;Node2 -->
<g id="edge15" class="edge"><title>Node12&#45;&gt;Node2</title>
<path fill="none" stroke="midnightblue" d="M664.101,-180.496C674.989,-178.57 686.693,-176.607 697.564,-175 809.797,-158.405 1598.48,-64.1519 1711.56,-55 2073.2,-25.7323 2170.32,-69.6392 2533.3,-18.8714"/>
<polygon fill="midnightblue" stroke="midnightblue" points="2533.89,-22.3242 2543.3,-17.4594 2532.91,-15.393 2533.89,-22.3242"/>
</g>
<!-- Node12&#45;&gt;Node8 -->
<g id="edge17" class="edge"><title>Node12&#45;&gt;Node8</title>
<path fill="none" stroke="midnightblue" d="M603.424,-180.42C567.338,-164.067 484.441,-125.095 419.564,-84 401.616,-72.6314 401.271,-62.9361 381.564,-55 253.917,-3.59659 207.689,-40.5864 67.3995,-18.8973"/>
<polygon fill="midnightblue" stroke="midnightblue" points="67.5651,-15.3785 57.1337,-17.2322 66.4443,-22.2882 67.5651,-15.3785"/>
</g>
<!-- Node13 -->
<g id="node14" class="node"><title>Node13</title>
<polygon fill="white" stroke="#bfbfbf" points="580.264,-0.5 580.264,-18.5 686.864,-18.5 686.864,-0.5 580.264,-0.5"/>
<text text-anchor="middle" x="633.564" y="-6.5" font-family="Helvetica,sans-Serif" font-size="10.00">ocra/control/Model.h</text>
</g>
<!-- Node12&#45;&gt;Node13 -->
<g id="edge16" class="edge"><title>Node12&#45;&gt;Node13</title>
<path fill="none" stroke="midnightblue" d="M622.111,-180.389C623.922,-153.516 629.759,-66.9404 632.329,-28.8152"/>
<polygon fill="midnightblue" stroke="midnightblue" points="635.833,-28.8713 633.014,-18.6585 628.849,-28.4004 635.833,-28.8713"/>
</g>
<!-- Node14 -->
<g id="node15" class="node"><title>Node14</title>
<polygon fill="white" stroke="#bfbfbf" points="485.266,-0.5 485.266,-18.5 561.862,-18.5 561.862,-0.5 485.266,-0.5"/>
<text text-anchor="middle" x="523.564" y="-6.5" font-family="Helvetica,sans-Serif" font-size="10.00">yarp/os/Log.h</text>
</g>
<!-- Node12&#45;&gt;Node14 -->
<g id="edge18" class="edge"><title>Node12&#45;&gt;Node14</title>
<path fill="none" stroke="midnightblue" d="M617.098,-180.389C602.176,-153.284 553.814,-65.4433 533.111,-27.8401"/>
<polygon fill="midnightblue" stroke="midnightblue" points="535.945,-25.7305 528.056,-18.6585 529.813,-29.1066 535.945,-25.7305"/>
</g>
<!-- Node15 -->
<g id="node16" class="node"><title>Node15</title>
<g id="a_node16"><a xlink:href="OcraWbiConversions_8h.html" target="_top" xlink:title="A utility class full of static conversion functions. ">
<polygon fill="white" stroke="black" points="718.205,-120.5 718.205,-138.5 880.923,-138.5 880.923,-120.5 718.205,-120.5"/>
<text text-anchor="middle" x="799.564" y="-126.5" font-family="Helvetica,sans-Serif" font-size="10.00">ocra&#45;icub/OcraWbiConversions.h</text>
</a>
</g>
</g>
<!-- Node12&#45;&gt;Node15 -->
<g id="edge19" class="edge"><title>Node12&#45;&gt;Node15</title>
<path fill="none" stroke="midnightblue" d="M646.314,-180.435C677.179,-170.378 730.119,-153.128 764.981,-141.769"/>
<polygon fill="midnightblue" stroke="midnightblue" points="766.314,-145.015 774.738,-138.589 764.145,-138.36 766.314,-145.015"/>
</g>
<!-- Node12&#45;&gt;Node19 -->
<g id="edge53" class="edge"><title>Node12&#45;&gt;Node19</title>
<path fill="none" stroke="midnightblue" d="M666.489,-180.467C737.095,-167.803 868.224,-144.106 889.564,-139 960.951,-121.918 1043,-96.2309 1087.88,-81.6514"/>
<polygon fill="midnightblue" stroke="midnightblue" points="1088.99,-84.9729 1097.41,-78.5426 1086.81,-78.3185 1088.99,-84.9729"/>
</g>
<!-- Node15&#45;&gt;Node1 -->
<g id="edge20" class="edge"><title>Node15&#45;&gt;Node1</title>
<path fill="none" stroke="midnightblue" d="M874.565,-120.5C1015.87,-105.67 1331.27,-73.7234 1597.56,-55 1923.1,-32.1112 2010.3,-64.4022 2336.92,-18.9582"/>
<polygon fill="midnightblue" stroke="midnightblue" points="2337.73,-22.3784 2347.15,-17.5206 2336.76,-15.4465 2337.73,-22.3784"/>
</g>
<!-- Node15&#45;&gt;Node6 -->
<g id="edge26" class="edge"><title>Node15&#45;&gt;Node6</title>
<path fill="none" stroke="midnightblue" d="M825.287,-120.435C853.148,-111.701 898.314,-97.5404 933.447,-86.5257"/>
<polygon fill="midnightblue" stroke="midnightblue" points="934.573,-89.8409 943.068,-83.5096 932.479,-83.1615 934.573,-89.8409"/>
</g>
<!-- Node15&#45;&gt;Node8 -->
<g id="edge25" class="edge"><title>Node15&#45;&gt;Node8</title>
<path fill="none" stroke="midnightblue" d="M763.858,-120.485C696.741,-105.667 547.033,-73.789 419.564,-55 266.747,-32.4747 223.974,-43.7689 67.5201,-18.9594"/>
<polygon fill="midnightblue" stroke="midnightblue" points="67.9707,-15.4869 57.5415,-17.3529 66.858,-22.3979 67.9707,-15.4869"/>
</g>
<!-- Node15&#45;&gt;Node14 -->
<g id="edge24" class="edge"><title>Node15&#45;&gt;Node14</title>
<path fill="none" stroke="midnightblue" d="M780.593,-120.389C732.913,-100.005 607.872,-46.5447 551.653,-22.509"/>
<polygon fill="midnightblue" stroke="midnightblue" points="552.873,-19.2243 542.302,-18.5113 550.121,-25.6608 552.873,-19.2243"/>
</g>
<!-- Node16 -->
<g id="node17" class="node"><title>Node16</title>
<polygon fill="white" stroke="#bfbfbf" points="827.837,-60.5 827.837,-78.5 863.291,-78.5 863.291,-60.5 827.837,-60.5"/>
<text text-anchor="middle" x="845.564" y="-66.5" font-family="Helvetica,sans-Serif" font-size="10.00">map</text>
</g>
<!-- Node15&#45;&gt;Node16 -->
<g id="edge21" class="edge"><title>Node15&#45;&gt;Node16</title>
<path fill="none" stroke="midnightblue" d="M805.96,-120.435C812.817,-111.79 823.889,-97.8292 832.585,-86.8643"/>
<polygon fill="midnightblue" stroke="midnightblue" points="835.453,-88.8816 838.924,-78.8718 829.968,-84.5319 835.453,-88.8816"/>
</g>
<!-- Node17 -->
<g id="node18" class="node"><title>Node17</title>
<polygon fill="white" stroke="#bfbfbf" points="704.948,-0.5 704.948,-18.5 748.18,-18.5 748.18,-0.5 704.948,-0.5"/>
<text text-anchor="middle" x="726.564" y="-6.5" font-family="Helvetica,sans-Serif" font-size="10.00">vector</text>
</g>
<!-- Node15&#45;&gt;Node17 -->
<g id="edge22" class="edge"><title>Node15&#45;&gt;Node17</title>
<path fill="none" stroke="midnightblue" d="M794.546,-120.389C782.721,-101.275 752.905,-53.0781 736.975,-27.3293"/>
<polygon fill="midnightblue" stroke="midnightblue" points="739.854,-25.3302 731.617,-18.6674 733.901,-29.013 739.854,-25.3302"/>
</g>
<!-- Node18 -->
<g id="node19" class="node"><title>Node18</title>
<polygon fill="white" stroke="#bfbfbf" points="766.594,-0.5 766.594,-18.5 856.534,-18.5 856.534,-0.5 766.594,-0.5"/>
<text text-anchor="middle" x="811.564" y="-6.5" font-family="Helvetica,sans-Serif" font-size="10.00">yarp/sig/Vector.h</text>
</g>
<!-- Node15&#45;&gt;Node18 -->
<g id="edge23" class="edge"><title>Node15&#45;&gt;Node18</title>
<path fill="none" stroke="midnightblue" d="M800.389,-120.389C802.298,-101.611 807.062,-54.7676 809.712,-28.7111"/>
<polygon fill="midnightblue" stroke="midnightblue" points="813.204,-28.9702 810.733,-18.6674 806.24,-28.2619 813.204,-28.9702"/>
</g>
<!-- Node15&#45;&gt;Node19 -->
<g id="edge27" class="edge"><title>Node15&#45;&gt;Node19</title>
<path fill="none" stroke="midnightblue" d="M851.908,-120.448C904.902,-112.099 989.14,-98.2878 1061.56,-84 1066.67,-82.9926 1072.01,-81.8793 1077.3,-80.7369"/>
<polygon fill="midnightblue" stroke="midnightblue" points="1078.35,-84.091 1087.36,-78.5247 1076.84,-77.2543 1078.35,-84.091"/>
</g>
<!-- Node19&#45;&gt;Node1 -->
<g id="edge30" class="edge"><title>Node19&#45;&gt;Node1</title>
<path fill="none" stroke="midnightblue" d="M1171.92,-67.0213C1381.83,-60.7815 2183.1,-36.1868 2337.19,-18.7836"/>
<polygon fill="midnightblue" stroke="midnightblue" points="2337.66,-22.2524 2347.15,-17.5434 2336.79,-15.3061 2337.66,-22.2524"/>
</g>
<!-- Node19&#45;&gt;Node2 -->
<g id="edge28" class="edge"><title>Node19&#45;&gt;Node2</title>
<path fill="none" stroke="midnightblue" d="M1171.99,-67.0211C1408.44,-60.0514 2401.01,-30.3876 2533.24,-18.5709"/>
<polygon fill="midnightblue" stroke="midnightblue" points="2533.73,-22.0383 2543.3,-17.4844 2532.98,-15.0788 2533.73,-22.0383"/>
</g>
<!-- Node19&#45;&gt;Node8 -->
<g id="edge48" class="edge"><title>Node19&#45;&gt;Node8</title>
<path fill="none" stroke="midnightblue" d="M1090.93,-60.4593C1081.57,-58.3138 1071.2,-56.2474 1061.56,-55 626.036,1.38164 507.242,-74.3736 67.6265,-18.8446"/>
<polygon fill="midnightblue" stroke="midnightblue" points="67.8759,-15.348 57.5126,-17.5511 66.9878,-22.2915 67.8759,-15.348"/>
</g>
<!-- Node19&#45;&gt;Node11 -->
<g id="edge51" class="edge"><title>Node19&#45;&gt;Node11</title>
<path fill="none" stroke="midnightblue" d="M1090.29,-60.47C1081.09,-58.3788 1070.97,-56.3391 1061.56,-55 806.945,-18.7583 736.888,-49.9125 477.511,-18.941"/>
<polygon fill="midnightblue" stroke="midnightblue" points="477.76,-15.4456 467.411,-17.7152 476.916,-22.3946 477.76,-15.4456"/>
</g>
<!-- Node19&#45;&gt;Node13 -->
<g id="edge49" class="edge"><title>Node19&#45;&gt;Node13</title>
<path fill="none" stroke="midnightblue" d="M1089.32,-60.4785C1080.38,-58.4626 1070.63,-56.46 1061.56,-55 903.501,-29.5438 859.68,-37.7458 697.337,-19.1586"/>
<polygon fill="midnightblue" stroke="midnightblue" points="697.319,-15.633 686.982,-17.9553 696.511,-22.5862 697.319,-15.633"/>
</g>
<!-- Node19&#45;&gt;Node14 -->
<g id="edge43" class="edge"><title>Node19&#45;&gt;Node14</title>
<path fill="none" stroke="midnightblue" d="M1089.97,-60.4709C1080.85,-58.4055 1070.86,-56.3792 1061.56,-55 848.834,-23.4306 790.016,-45.3858 572.182,-18.9212"/>
<polygon fill="midnightblue" stroke="midnightblue" points="572.378,-15.4189 562.024,-17.6663 571.519,-22.3661 572.378,-15.4189"/>
</g>
<!-- Node19&#45;&gt;Node17 -->
<g id="edge32" class="edge"><title>Node19&#45;&gt;Node17</title>
<path fill="none" stroke="midnightblue" d="M1088.68,-60.4566C1079.9,-58.4876 1070.4,-56.5138 1061.56,-55 930.604,-32.5746 892.858,-44.471 758.339,-18.8568"/>
<polygon fill="midnightblue" stroke="midnightblue" points="758.967,-15.4134 748.483,-16.9467 757.635,-22.2856 758.967,-15.4134"/>
</g>
<!-- Node19&#45;&gt;Node18 -->
<g id="edge46" class="edge"><title>Node19&#45;&gt;Node18</title>
<path fill="none" stroke="midnightblue" d="M1087.04,-60.4516C1078.71,-58.5884 1069.83,-56.6653 1061.56,-55 994.852,-41.5646 917.694,-28.152 866.944,-19.6197"/>
<polygon fill="midnightblue" stroke="midnightblue" points="867.284,-16.128 856.843,-17.9273 866.127,-23.0317 867.284,-16.128"/>
</g>
<!-- Node20 -->
<g id="node21" class="node"><title>Node20</title>
<polygon fill="white" stroke="#bfbfbf" points="1099.95,-0.5 1099.95,-18.5 1143.18,-18.5 1143.18,-0.5 1099.95,-0.5"/>
<text text-anchor="middle" x="1121.56" y="-6.5" font-family="Helvetica,sans-Serif" font-size="10.00">cmath</text>
</g>
<!-- Node19&#45;&gt;Node20 -->
<g id="edge29" class="edge"><title>Node19&#45;&gt;Node20</title>
<path fill="none" stroke="midnightblue" d="M1121.56,-60.4353C1121.56,-52.3891 1121.56,-39.7388 1121.56,-29.1846"/>
<polygon fill="midnightblue" stroke="midnightblue" points="1125.06,-28.8717 1121.56,-18.8718 1118.06,-28.8718 1125.06,-28.8717"/>
</g>
<!-- Node19&#45;&gt;Node21 -->
<g id="edge31" class="edge"><title>Node19&#45;&gt;Node21</title>
<path fill="none" stroke="midnightblue" d="M1090.6,-60.4905C1081.32,-58.3732 1071.08,-56.3145 1061.56,-55 766.434,-14.2462 683.437,-68.4721 386.231,-18.865"/>
<polygon fill="midnightblue" stroke="midnightblue" points="386.465,-15.3548 376.021,-17.1342 385.295,-22.2563 386.465,-15.3548"/>
</g>
<!-- Node19&#45;&gt;Node22 -->
<g id="edge33" class="edge"><title>Node19&#45;&gt;Node22</title>
<path fill="none" stroke="midnightblue" d="M1154.27,-60.4759C1164.26,-58.3309 1175.31,-56.2607 1185.56,-55 1614.88,-2.22909 1732.26,-79.0074 2163.76,-18.9576"/>
<polygon fill="midnightblue" stroke="midnightblue" points="2164.27,-22.42 2173.69,-17.5598 2163.29,-15.4884 2164.27,-22.42"/>
</g>
<!-- Node23 -->
<g id="node24" class="node"><title>Node23</title>
<polygon fill="white" stroke="#bfbfbf" points="1161.62,-0.5 1161.62,-18.5 1277.5,-18.5 1277.5,-0.5 1161.62,-0.5"/>
<text text-anchor="middle" x="1219.56" y="-6.5" font-family="Helvetica,sans-Serif" font-size="10.00">yarp/os/BufferedPort.h</text>
</g>
<!-- Node19&#45;&gt;Node23 -->
<g id="edge34" class="edge"><title>Node19&#45;&gt;Node23</title>
<path fill="none" stroke="midnightblue" d="M1135.19,-60.4353C1151.19,-50.9661 1177.96,-35.1201 1197.06,-23.8184"/>
<polygon fill="midnightblue" stroke="midnightblue" points="1198.91,-26.7884 1205.74,-18.6831 1195.35,-20.7644 1198.91,-26.7884"/>
</g>
<!-- Node19&#45;&gt;Node24 -->
<g id="edge35" class="edge"><title>Node19&#45;&gt;Node24</title>
<path fill="none" stroke="midnightblue" d="M1171.98,-66.6078C1370.02,-59.1289 2090.32,-31.4737 2233.75,-18.8592"/>
<polygon fill="midnightblue" stroke="midnightblue" points="2234.15,-22.3377 2243.77,-17.9045 2233.48,-15.3692 2234.15,-22.3377"/>
</g>
<!-- Node25 -->
<g id="node26" class="node"><title>Node25</title>
<polygon fill="white" stroke="#bfbfbf" points="1295.2,-0.5 1295.2,-18.5 1407.92,-18.5 1407.92,-0.5 1295.2,-0.5"/>
<text text-anchor="middle" x="1351.56" y="-6.5" font-family="Helvetica,sans-Serif" font-size="10.00">yarp/os/RateThread.h</text>
</g>
<!-- Node19&#45;&gt;Node25 -->
<g id="edge36" class="edge"><title>Node19&#45;&gt;Node25</title>
<path fill="none" stroke="midnightblue" d="M1153.54,-60.4353C1194.28,-50.1624 1264.78,-32.3844 1309.75,-21.0456"/>
<polygon fill="midnightblue" stroke="midnightblue" points="1310.64,-24.4285 1319.49,-18.5894 1308.93,-17.6409 1310.64,-24.4285"/>
</g>
<!-- Node26 -->
<g id="node27" class="node"><title>Node26</title>
<polygon fill="white" stroke="#bfbfbf" points="1426.31,-0.5 1426.31,-18.5 1556.82,-18.5 1556.82,-0.5 1426.31,-0.5"/>
<text text-anchor="middle" x="1491.56" y="-6.5" font-family="Helvetica,sans-Serif" font-size="10.00">yarp/os/ResourceFinder.h</text>
</g>
<!-- Node19&#45;&gt;Node26 -->
<g id="edge37" class="edge"><title>Node19&#45;&gt;Node26</title>
<path fill="none" stroke="midnightblue" d="M1157.7,-60.459C1166.78,-58.5553 1176.51,-56.6119 1185.56,-55 1264.67,-40.9198 1355.87,-28.093 1417.98,-19.8667"/>
<polygon fill="midnightblue" stroke="midnightblue" points="1418.62,-23.3128 1428.08,-18.5362 1417.71,-16.3728 1418.62,-23.3128"/>
</g>
<!-- Node27 -->
<g id="node28" class="node"><title>Node27</title>
<polygon fill="white" stroke="#bfbfbf" points="1575.31,-0.5 1575.31,-18.5 1685.81,-18.5 1685.81,-0.5 1575.31,-0.5"/>
<text text-anchor="middle" x="1630.56" y="-6.5" font-family="Helvetica,sans-Serif" font-size="10.00">yarp/os/PortReader.h</text>
</g>
<!-- Node19&#45;&gt;Node27 -->
<g id="edge38" class="edge"><title>Node19&#45;&gt;Node27</title>
<path fill="none" stroke="midnightblue" d="M1155.98,-60.4926C1165.52,-58.4768 1175.91,-56.4707 1185.56,-55 1350.08,-29.9384 1395.28,-37.6883 1565.22,-18.9873"/>
<polygon fill="midnightblue" stroke="midnightblue" points="1565.71,-22.4545 1575.26,-17.8678 1564.94,-15.4976 1565.71,-22.4545"/>
</g>
<!-- Node28 -->
<g id="node29" class="node"><title>Node28</title>
<polygon fill="white" stroke="#bfbfbf" points="1703.93,-0.5 1703.93,-18.5 1807.19,-18.5 1807.19,-0.5 1703.93,-0.5"/>
<text text-anchor="middle" x="1755.56" y="-6.5" font-family="Helvetica,sans-Serif" font-size="10.00">yarp/os/RpcClient.h</text>
</g>
<!-- Node19&#45;&gt;Node28 -->
<g id="edge39" class="edge"><title>Node19&#45;&gt;Node28</title>
<path fill="none" stroke="midnightblue" d="M1155.29,-60.481C1165.01,-58.4157 1175.67,-56.387 1185.56,-55 1406.87,-23.983 1467.25,-42.1133 1693.48,-19.0309"/>
<polygon fill="midnightblue" stroke="midnightblue" points="1694.09,-22.486 1703.68,-17.9738 1693.37,-15.5233 1694.09,-22.486"/>
</g>
<!-- Node19&#45;&gt;Node29 -->
<g id="edge40" class="edge"><title>Node19&#45;&gt;Node29</title>
<path fill="none" stroke="midnightblue" d="M1172.02,-67.2237C1376.36,-61.9546 2143.66,-41.166 2409.18,-19.0135"/>
<polygon fill="midnightblue" stroke="midnightblue" points="2409.5,-22.4984 2419.17,-18.1583 2408.9,-15.5239 2409.5,-22.4984"/>
</g>
<!-- Node19&#45;&gt;Node30 -->
<g id="edge41" class="edge"><title>Node19&#45;&gt;Node30</title>
<path fill="none" stroke="midnightblue" d="M1090.61,-60.4302C1081.33,-58.3113 1071.09,-56.2667 1061.56,-55 696.676,-6.47847 598.753,-45.9106 228.273,-19.0731"/>
<polygon fill="midnightblue" stroke="midnightblue" points="228.303,-15.566 218.073,-18.3226 227.789,-22.5471 228.303,-15.566"/>
</g>
<!-- Node19&#45;&gt;Node31 -->
<g id="edge42" class="edge"><title>Node19&#45;&gt;Node31</title>
<path fill="none" stroke="midnightblue" d="M1090.61,-60.4654C1081.33,-58.3474 1071.09,-56.2945 1061.56,-55 740.81,-11.3916 653.478,-53.5865 327.906,-18.9953"/>
<polygon fill="midnightblue" stroke="midnightblue" points="328.028,-15.4882 317.71,-17.8953 327.277,-22.4479 328.028,-15.4882"/>
</g>
<!-- Node32 -->
<g id="node33" class="node"><title>Node32</title>
<polygon fill="white" stroke="#bfbfbf" points="1825.15,-0.5 1825.15,-18.5 1933.98,-18.5 1933.98,-0.5 1825.15,-0.5"/>
<text text-anchor="middle" x="1879.56" y="-6.5" font-family="Helvetica,sans-Serif" font-size="10.00">yarp/os/LogStream.h</text>
</g>
<!-- Node19&#45;&gt;Node32 -->
<g id="edge44" class="edge"><title>Node19&#45;&gt;Node32</title>
<path fill="none" stroke="midnightblue" d="M1154.95,-60.4643C1164.76,-58.3729 1175.55,-56.3346 1185.56,-55 1460.74,-18.3408 1535.21,-45.1546 1814.92,-19.0797"/>
<polygon fill="midnightblue" stroke="midnightblue" points="1815.33,-22.5565 1824.96,-18.1296 1814.67,-15.5876 1815.33,-22.5565"/>
</g>
<!-- Node33 -->
<g id="node34" class="node"><title>Node33</title>
<polygon fill="white" stroke="#bfbfbf" points="1952.08,-0.5 1952.08,-18.5 2049.05,-18.5 2049.05,-0.5 1952.08,-0.5"/>
<text text-anchor="middle" x="2000.56" y="-6.5" font-family="Helvetica,sans-Serif" font-size="10.00">yarp/os/Property.h</text>
</g>
<!-- Node19&#45;&gt;Node33 -->
<g id="edge45" class="edge"><title>Node19&#45;&gt;Node33</title>
<path fill="none" stroke="midnightblue" d="M1154.61,-60.4743C1164.51,-58.3566 1175.43,-56.3016 1185.56,-55 1516.38,-12.5215 1605.57,-50.6984 1941.85,-18.9491"/>
<polygon fill="midnightblue" stroke="midnightblue" points="1942.25,-22.4268 1951.87,-17.9893 1941.58,-15.4587 1942.25,-22.4268"/>
</g>
<!-- Node34 -->
<g id="node35" class="node"><title>Node34</title>
<polygon fill="white" stroke="#bfbfbf" points="2066.89,-0.5 2066.89,-18.5 2156.24,-18.5 2156.24,-0.5 2066.89,-0.5"/>
<text text-anchor="middle" x="2111.56" y="-6.5" font-family="Helvetica,sans-Serif" font-size="10.00">yarp/sig/Matrix.h</text>
</g>
<!-- Node19&#45;&gt;Node34 -->
<g id="edge47" class="edge"><title>Node19&#45;&gt;Node34</title>
<path fill="none" stroke="midnightblue" d="M1154.6,-60.4343C1164.5,-58.3154 1175.42,-56.2699 1185.56,-55 1567.15,-7.21568 1669.82,-56.3653 2056.76,-18.9347"/>
<polygon fill="midnightblue" stroke="midnightblue" points="2057.22,-22.4067 2066.83,-17.9474 2056.53,-15.4401 2057.22,-22.4067"/>
</g>
<!-- Node35 -->
<g id="node36" class="node"><title>Node35</title>
<polygon fill="white" stroke="#bfbfbf" points="874.323,-0.5 874.323,-18.5 994.805,-18.5 994.805,-0.5 874.323,-0.5"/>
<text text-anchor="middle" x="934.564" y="-6.5" font-family="Helvetica,sans-Serif" font-size="10.00">ocra/util/StringUtilities.h</text>
</g>
<!-- Node19&#45;&gt;Node35 -->
<g id="edge50" class="edge"><title>Node19&#45;&gt;Node35</title>
<path fill="none" stroke="midnightblue" d="M1095.56,-60.4353C1063,-50.335 1007.04,-32.9798 970.425,-21.6227"/>
<polygon fill="midnightblue" stroke="midnightblue" points="971.233,-18.209 960.645,-18.5894 969.16,-24.8948 971.233,-18.209"/>
</g>
<!-- Node36 -->
<g id="node37" class="node"><title>Node36</title>
<polygon fill="white" stroke="#bfbfbf" points="1013.16,-0.5 1013.16,-18.5 1081.97,-18.5 1081.97,-0.5 1013.16,-0.5"/>
<text text-anchor="middle" x="1047.56" y="-6.5" font-family="Helvetica,sans-Serif" font-size="10.00">Eigen/Lgsm</text>
</g>
<!-- Node19&#45;&gt;Node36 -->
<g id="edge52" class="edge"><title>Node19&#45;&gt;Node36</title>
<path fill="none" stroke="midnightblue" d="M1111.27,-60.4353C1099.7,-51.3619 1080.65,-36.434 1066.39,-25.2589"/>
<polygon fill="midnightblue" stroke="midnightblue" points="1068.27,-22.2859 1058.25,-18.8718 1063.96,-27.7953 1068.27,-22.2859"/>
</g>
</g>
</svg>
