<?xml version="1.0" encoding="UTF-8" standalone="no"?>
<!DOCTYPE svg PUBLIC "-//W3C//DTD SVG 1.1//EN"
 "http://www.w3.org/Graphics/SVG/1.1/DTD/svg11.dtd">
<!-- Generated by graphviz version 2.38.0 (20140413.2041)
 -->
<!-- Title: /Users/jorhabibeljaik/Code/codyco&#45;superbuild/main/ocra&#45;wbi&#45;plugins/ocra&#45;icub/src/OcraWbiConversions.cpp Pages: 1 -->
<svg width="2605pt" height="232pt"
 viewBox="0.00 0.00 2604.66 232.00" xmlns="http://www.w3.org/2000/svg" xmlns:xlink="http://www.w3.org/1999/xlink">
<g id="graph0" class="graph" transform="scale(1 1) rotate(0) translate(4 228)">
<title>/Users/jorhabibeljaik/Code/codyco&#45;superbuild/main/ocra&#45;wbi&#45;plugins/ocra&#45;icub/src/OcraWbiConversions.cpp</title>
<polygon fill="white" stroke="none" points="-4,4 -4,-228 2600.66,-228 2600.66,4 -4,4"/>
<!-- Node0 -->
<g id="node1" class="node"><title>Node0</title>
<polygon fill="#bfbfbf" stroke="black" points="226.089,-175.5 226.089,-223.5 418.256,-223.5 418.256,-175.5 226.089,-175.5"/>
<text text-anchor="start" x="234.089" y="-211.5" font-family="Helvetica,sans-Serif" font-size="10.00">/Users/jorhabibeljaik</text>
<text text-anchor="start" x="234.089" y="-201.5" font-family="Helvetica,sans-Serif" font-size="10.00">/Code/codyco&#45;superbuild</text>
<text text-anchor="start" x="234.089" y="-191.5" font-family="Helvetica,sans-Serif" font-size="10.00">/main/ocra&#45;wbi&#45;plugins</text>
<text text-anchor="middle" x="322.172" y="-181.5" font-family="Helvetica,sans-Serif" font-size="10.00">/ocra&#45;icub/src/OcraWbiConversions.cpp</text>
</g>
<!-- Node1 -->
<g id="node2" class="node"><title>Node1</title>
<g id="a_node2"><a xlink:href="OcraWbiConversions_8h.html" target="_top" xlink:title="A utility class full of static conversion functions. ">
<polygon fill="white" stroke="black" points="240.813,-120.5 240.813,-138.5 403.532,-138.5 403.532,-120.5 240.813,-120.5"/>
<text text-anchor="middle" x="322.172" y="-126.5" font-family="Helvetica,sans-Serif" font-size="10.00">ocra&#45;icub/OcraWbiConversions.h</text>
</a>
</g>
</g>
<!-- Node0&#45;&gt;Node1 -->
<g id="edge1" class="edge"><title>Node0&#45;&gt;Node1</title>
<path fill="none" stroke="midnightblue" d="M322.172,-175.478C322.172,-166.684 322.172,-156.792 322.172,-148.528"/>
<polygon fill="midnightblue" stroke="midnightblue" points="325.672,-148.526 322.172,-138.526 318.672,-148.526 325.672,-148.526"/>
</g>
<!-- Node2 -->
<g id="node3" class="node"><title>Node2</title>
<polygon fill="white" stroke="#bfbfbf" points="0,-0.5 0,-18.5 54.3447,-18.5 54.3447,-0.5 0,-0.5"/>
<text text-anchor="middle" x="27.1724" y="-6.5" font-family="Helvetica,sans-Serif" font-size="10.00">iostream</text>
</g>
<!-- Node1&#45;&gt;Node2 -->
<g id="edge2" class="edge"><title>Node1&#45;&gt;Node2</title>
<path fill="none" stroke="midnightblue" d="M289.583,-120.427C259.226,-112.504 212.951,-99.3926 174.172,-84 128.901,-66.0303 78.6434,-39.3447 50.1781,-23.5568"/>
<polygon fill="midnightblue" stroke="midnightblue" points="51.8354,-20.4735 41.3988,-18.6488 48.4195,-26.5836 51.8354,-20.4735"/>
</g>
<!-- Node3 -->
<g id="node4" class="node"><title>Node3</title>
<polygon fill="white" stroke="#bfbfbf" points="1087.45,-60.5 1087.45,-78.5 1122.9,-78.5 1122.9,-60.5 1087.45,-60.5"/>
<text text-anchor="middle" x="1105.17" y="-66.5" font-family="Helvetica,sans-Serif" font-size="10.00">map</text>
</g>
<!-- Node1&#45;&gt;Node3 -->
<g id="edge3" class="edge"><title>Node1&#45;&gt;Node3</title>
<path fill="none" stroke="midnightblue" d="M403.553,-127.836C571.851,-125.79 952.902,-117.488 1078.17,-84 1079.45,-83.6574 1080.75,-83.2506 1082.03,-82.7955"/>
<polygon fill="midnightblue" stroke="midnightblue" points="1083.82,-85.8362 1091.59,-78.631 1081.02,-79.4196 1083.82,-85.8362"/>
</g>
<!-- Node4 -->
<g id="node5" class="node"><title>Node4</title>
<polygon fill="white" stroke="#bfbfbf" points="72.5566,-0.5 72.5566,-18.5 115.788,-18.5 115.788,-0.5 72.5566,-0.5"/>
<text text-anchor="middle" x="94.1724" y="-6.5" font-family="Helvetica,sans-Serif" font-size="10.00">vector</text>
</g>
<!-- Node1&#45;&gt;Node4 -->
<g id="edge4" class="edge"><title>Node1&#45;&gt;Node4</title>
<path fill="none" stroke="midnightblue" d="M304.762,-120.365C286.176,-111.613 255.917,-97.1749 230.172,-84 190.381,-63.6371 144.803,-38.6608 117.808,-23.6922"/>
<polygon fill="midnightblue" stroke="midnightblue" points="119.19,-20.456 108.749,-18.6574 115.79,-26.5746 119.19,-20.456"/>
</g>
<!-- Node5 -->
<g id="node6" class="node"><title>Node5</title>
<polygon fill="white" stroke="#bfbfbf" points="134.202,-0.5 134.202,-18.5 224.143,-18.5 224.143,-0.5 134.202,-0.5"/>
<text text-anchor="middle" x="179.172" y="-6.5" font-family="Helvetica,sans-Serif" font-size="10.00">yarp/sig/Vector.h</text>
</g>
<!-- Node1&#45;&gt;Node5 -->
<g id="edge5" class="edge"><title>Node1&#45;&gt;Node5</title>
<path fill="none" stroke="midnightblue" d="M312.343,-120.389C288.567,-100.769 227.659,-50.5099 197.151,-25.3355"/>
<polygon fill="midnightblue" stroke="midnightblue" points="199.011,-22.3325 189.07,-18.6674 194.556,-27.7316 199.011,-22.3325"/>
</g>
<!-- Node6 -->
<g id="node7" class="node"><title>Node6</title>
<polygon fill="white" stroke="#bfbfbf" points="241.875,-0.5 241.875,-18.5 318.47,-18.5 318.47,-0.5 241.875,-0.5"/>
<text text-anchor="middle" x="280.172" y="-6.5" font-family="Helvetica,sans-Serif" font-size="10.00">yarp/os/Log.h</text>
</g>
<!-- Node1&#45;&gt;Node6 -->
<g id="edge6" class="edge"><title>Node1&#45;&gt;Node6</title>
<path fill="none" stroke="midnightblue" d="M319.286,-120.389C312.572,-101.527 295.779,-54.3469 286.53,-28.3618"/>
<polygon fill="midnightblue" stroke="midnightblue" points="289.73,-26.9147 283.079,-18.6674 283.135,-29.2621 289.73,-26.9147"/>
</g>
<!-- Node7 -->
<g id="node8" class="node"><title>Node7</title>
<polygon fill="white" stroke="#bfbfbf" points="336.608,-0.5 336.608,-18.5 393.736,-18.5 393.736,-0.5 336.608,-0.5"/>
<text text-anchor="middle" x="365.172" y="-6.5" font-family="Helvetica,sans-Serif" font-size="10.00">wbi/wbi.h</text>
</g>
<!-- Node1&#45;&gt;Node7 -->
<g id="edge7" class="edge"><title>Node1&#45;&gt;Node7</title>
<path fill="none" stroke="midnightblue" d="M325.128,-120.389C332.001,-101.527 349.194,-54.3469 358.663,-28.3618"/>
<polygon fill="midnightblue" stroke="midnightblue" points="362.061,-29.2613 362.196,-18.6674 355.484,-26.8646 362.061,-29.2613"/>
</g>
<!-- Node8 -->
<g id="node9" class="node"><title>Node8</title>
<polygon fill="white" stroke="#bfbfbf" points="1140.86,-55.5 1140.86,-83.5 1277.48,-83.5 1277.48,-55.5 1140.86,-55.5"/>
<text text-anchor="start" x="1148.86" y="-71.5" font-family="Helvetica,sans-Serif" font-size="10.00">yarpWholeBodyInterface</text>
<text text-anchor="middle" x="1209.17" y="-61.5" font-family="Helvetica,sans-Serif" font-size="10.00">/yarpWholeBodyInterface.h</text>
</g>
<!-- Node1&#45;&gt;Node8 -->
<g id="edge8" class="edge"><title>Node1&#45;&gt;Node8</title>
<path fill="none" stroke="midnightblue" d="M403.784,-127.215C548.379,-124.236 859.144,-114.675 1130.75,-84.0657"/>
<polygon fill="midnightblue" stroke="midnightblue" points="1131.26,-87.5302 1140.8,-82.9212 1130.47,-80.5751 1131.26,-87.5302"/>
</g>
<!-- Node9 -->
<g id="node10" class="node"><title>Node9</title>
<g id="a_node10"><a xlink:href="Utilities_8h.html" target="_top" xlink:title="Some useful tools for the ocra&#45;icub lib. ">
<polygon fill="white" stroke="black" points="968.936,-60.5 968.936,-78.5 1069.41,-78.5 1069.41,-60.5 968.936,-60.5"/>
<text text-anchor="middle" x="1019.17" y="-66.5" font-family="Helvetica,sans-Serif" font-size="10.00">ocra&#45;icub/Utilities.h</text>
</a>
</g>
</g>
<!-- Node1&#45;&gt;Node9 -->
<g id="edge9" class="edge"><title>Node1&#45;&gt;Node9</title>
<path fill="none" stroke="midnightblue" d="M403.834,-121.705C545.442,-109.921 833.4,-85.9588 958.684,-75.5335"/>
<polygon fill="midnightblue" stroke="midnightblue" points="959.182,-79.0042 968.857,-74.6869 958.601,-72.0283 959.182,-79.0042"/>
</g>
<!-- Node9&#45;&gt;Node2 -->
<g id="edge12" class="edge"><title>Node9&#45;&gt;Node2</title>
<path fill="none" stroke="midnightblue" d="M968.849,-69.0727C827.483,-70.006 414.787,-68.0959 64.6718,-18.9421"/>
<polygon fill="midnightblue" stroke="midnightblue" points="64.9852,-15.4516 54.5925,-17.5115 64.0014,-22.3821 64.9852,-15.4516"/>
</g>
<!-- Node9&#45;&gt;Node4 -->
<g id="edge14" class="edge"><title>Node9&#45;&gt;Node4</title>
<path fill="none" stroke="midnightblue" d="M968.709,-67.1158C807.999,-62.4903 308.534,-46.3838 126.065,-18.7024"/>
<polygon fill="midnightblue" stroke="midnightblue" points="126.485,-15.2253 116.061,-17.12 125.391,-22.1394 126.485,-15.2253"/>
</g>
<!-- Node9&#45;&gt;Node5 -->
<g id="edge28" class="edge"><title>Node9&#45;&gt;Node5</title>
<path fill="none" stroke="midnightblue" d="M968.917,-66.9606C845.568,-62.8335 517.888,-49.7583 234.281,-19.0123"/>
<polygon fill="midnightblue" stroke="midnightblue" points="234.533,-15.519 224.212,-17.9111 233.772,-22.4776 234.533,-15.519"/>
</g>
<!-- Node9&#45;&gt;Node6 -->
<g id="edge25" class="edge"><title>Node9&#45;&gt;Node6</title>
<path fill="none" stroke="midnightblue" d="M968.63,-66.7473C855.667,-62.4289 574.02,-49.4341 328.772,-19.0688"/>
<polygon fill="midnightblue" stroke="midnightblue" points="328.952,-15.5641 318.595,-17.796 328.083,-22.51 328.952,-15.5641"/>
</g>
<!-- Node9&#45;&gt;Node7 -->
<g id="edge30" class="edge"><title>Node9&#45;&gt;Node7</title>
<path fill="none" stroke="midnightblue" d="M968.9,-66.9487C864.945,-63.2053 618.738,-51.5687 403.67,-19.0203"/>
<polygon fill="midnightblue" stroke="midnightblue" points="404.191,-15.5593 393.776,-17.5047 403.131,-22.4786 404.191,-15.5593"/>
</g>
<!-- Node10 -->
<g id="node11" class="node"><title>Node10</title>
<polygon fill="white" stroke="#bfbfbf" points="960.116,-0.5 960.116,-18.5 1012.23,-18.5 1012.23,-0.5 960.116,-0.5"/>
<text text-anchor="middle" x="986.172" y="-6.5" font-family="Helvetica,sans-Serif" font-size="10.00">memory</text>
</g>
<!-- Node9&#45;&gt;Node10 -->
<g id="edge10" class="edge"><title>Node9&#45;&gt;Node10</title>
<path fill="none" stroke="midnightblue" d="M1014.58,-60.4353C1009.81,-52.0467 1002.19,-38.6539 996.043,-27.8491"/>
<polygon fill="midnightblue" stroke="midnightblue" points="998.923,-25.8326 990.936,-18.8718 992.839,-29.2943 998.923,-25.8326"/>
</g>
<!-- Node11 -->
<g id="node12" class="node"><title>Node11</title>
<polygon fill="white" stroke="#bfbfbf" points="1030.56,-0.5 1030.56,-18.5 1073.79,-18.5 1073.79,-0.5 1030.56,-0.5"/>
<text text-anchor="middle" x="1052.17" y="-6.5" font-family="Helvetica,sans-Serif" font-size="10.00">cmath</text>
</g>
<!-- Node9&#45;&gt;Node11 -->
<g id="edge11" class="edge"><title>Node9&#45;&gt;Node11</title>
<path fill="none" stroke="midnightblue" d="M1023.76,-60.4353C1028.53,-52.0467 1036.15,-38.6539 1042.3,-27.8491"/>
<polygon fill="midnightblue" stroke="midnightblue" points="1045.51,-29.2943 1047.41,-18.8718 1039.42,-25.8326 1045.51,-29.2943"/>
</g>
<!-- Node12 -->
<g id="node13" class="node"><title>Node12</title>
<polygon fill="white" stroke="#bfbfbf" points="1091.95,-0.5 1091.95,-18.5 1132.4,-18.5 1132.4,-0.5 1091.95,-0.5"/>
<text text-anchor="middle" x="1112.17" y="-6.5" font-family="Helvetica,sans-Serif" font-size="10.00">string</text>
</g>
<!-- Node9&#45;&gt;Node12 -->
<g id="edge13" class="edge"><title>Node9&#45;&gt;Node12</title>
<path fill="none" stroke="midnightblue" d="M1032.1,-60.4353C1047.15,-51.0521 1072.23,-35.4077 1090.32,-24.1277"/>
<polygon fill="midnightblue" stroke="midnightblue" points="1092.42,-26.9448 1099.05,-18.6831 1088.71,-21.0052 1092.42,-26.9448"/>
</g>
<!-- Node13 -->
<g id="node14" class="node"><title>Node13</title>
<polygon fill="white" stroke="#bfbfbf" points="1150.39,-0.5 1150.39,-18.5 1201.95,-18.5 1201.95,-0.5 1150.39,-0.5"/>
<text text-anchor="middle" x="1176.17" y="-6.5" font-family="Helvetica,sans-Serif" font-size="10.00">sstream</text>
</g>
<!-- Node9&#45;&gt;Node13 -->
<g id="edge15" class="edge"><title>Node9&#45;&gt;Node13</title>
<path fill="none" stroke="midnightblue" d="M1041,-60.4353C1067.99,-50.4645 1114.12,-33.4237 1144.87,-22.0624"/>
<polygon fill="midnightblue" stroke="midnightblue" points="1146.11,-25.338 1154.28,-18.5894 1143.68,-18.7717 1146.11,-25.338"/>
</g>
<!-- Node14 -->
<g id="node15" class="node"><title>Node14</title>
<polygon fill="white" stroke="#bfbfbf" points="1220.23,-0.5 1220.23,-18.5 1336.11,-18.5 1336.11,-0.5 1220.23,-0.5"/>
<text text-anchor="middle" x="1278.17" y="-6.5" font-family="Helvetica,sans-Serif" font-size="10.00">yarp/os/BufferedPort.h</text>
</g>
<!-- Node9&#45;&gt;Node14 -->
<g id="edge16" class="edge"><title>Node9&#45;&gt;Node14</title>
<path fill="none" stroke="midnightblue" d="M1054.11,-60.4702C1062.02,-58.6618 1070.38,-56.7579 1078.17,-55 1130.79,-43.126 1191.25,-29.7043 1231.8,-20.7352"/>
<polygon fill="midnightblue" stroke="midnightblue" points="1232.65,-24.131 1241.66,-18.5545 1231.14,-17.296 1232.65,-24.131"/>
</g>
<!-- Node15 -->
<g id="node16" class="node"><title>Node15</title>
<polygon fill="white" stroke="#bfbfbf" points="1354.43,-0.5 1354.43,-18.5 1439.91,-18.5 1439.91,-0.5 1354.43,-0.5"/>
<text text-anchor="middle" x="1397.17" y="-6.5" font-family="Helvetica,sans-Serif" font-size="10.00">yarp/os/Bottle.h</text>
</g>
<!-- Node9&#45;&gt;Node15 -->
<g id="edge17" class="edge"><title>Node9&#45;&gt;Node15</title>
<path fill="none" stroke="midnightblue" d="M1051.83,-60.4702C1060.37,-58.5234 1069.59,-56.557 1078.17,-55 1192.88,-34.1875 1225.06,-36.5169 1344.44,-19.0617"/>
<polygon fill="midnightblue" stroke="midnightblue" points="1344.96,-22.5239 1354.34,-17.5992 1343.93,-15.5991 1344.96,-22.5239"/>
</g>
<!-- Node16 -->
<g id="node17" class="node"><title>Node16</title>
<polygon fill="white" stroke="#bfbfbf" points="1457.81,-0.5 1457.81,-18.5 1570.53,-18.5 1570.53,-0.5 1457.81,-0.5"/>
<text text-anchor="middle" x="1514.17" y="-6.5" font-family="Helvetica,sans-Serif" font-size="10.00">yarp/os/RateThread.h</text>
</g>
<!-- Node9&#45;&gt;Node16 -->
<g id="edge18" class="edge"><title>Node9&#45;&gt;Node16</title>
<path fill="none" stroke="midnightblue" d="M1050.87,-60.4615C1059.67,-58.4456 1069.25,-56.4472 1078.17,-55 1238.5,-28.9881 1282.85,-37.3944 1447.48,-19.1509"/>
<polygon fill="midnightblue" stroke="midnightblue" points="1447.92,-22.6239 1457.47,-18.0285 1447.14,-15.6678 1447.92,-22.6239"/>
</g>
<!-- Node17 -->
<g id="node18" class="node"><title>Node17</title>
<polygon fill="white" stroke="#bfbfbf" points="1588.92,-0.5 1588.92,-18.5 1719.43,-18.5 1719.43,-0.5 1588.92,-0.5"/>
<text text-anchor="middle" x="1654.17" y="-6.5" font-family="Helvetica,sans-Serif" font-size="10.00">yarp/os/ResourceFinder.h</text>
</g>
<!-- Node9&#45;&gt;Node17 -->
<g id="edge19" class="edge"><title>Node9&#45;&gt;Node17</title>
<path fill="none" stroke="midnightblue" d="M1050.23,-60.4546C1059.2,-58.3889 1069.03,-56.3666 1078.17,-55 1295.73,-22.4897 1355.15,-39.0704 1578.66,-18.9956"/>
<polygon fill="midnightblue" stroke="midnightblue" points="1579.1,-22.4703 1588.74,-18.0757 1578.47,-15.4993 1579.1,-22.4703"/>
</g>
<!-- Node18 -->
<g id="node19" class="node"><title>Node18</title>
<polygon fill="white" stroke="#bfbfbf" points="1737.92,-0.5 1737.92,-18.5 1848.42,-18.5 1848.42,-0.5 1737.92,-0.5"/>
<text text-anchor="middle" x="1793.17" y="-6.5" font-family="Helvetica,sans-Serif" font-size="10.00">yarp/os/PortReader.h</text>
</g>
<!-- Node9&#45;&gt;Node18 -->
<g id="edge20" class="edge"><title>Node9&#45;&gt;Node18</title>
<path fill="none" stroke="midnightblue" d="M1049.61,-60.4987C1058.74,-58.3816 1068.81,-56.3209 1078.17,-55 1361.31,-15.0608 1438.29,-45.0556 1727.51,-18.9673"/>
<polygon fill="midnightblue" stroke="midnightblue" points="1728.25,-22.4142 1737.89,-18.0154 1727.61,-15.4435 1728.25,-22.4142"/>
</g>
<!-- Node19 -->
<g id="node20" class="node"><title>Node19</title>
<polygon fill="white" stroke="#bfbfbf" points="1866.54,-0.5 1866.54,-18.5 1969.8,-18.5 1969.8,-0.5 1866.54,-0.5"/>
<text text-anchor="middle" x="1918.17" y="-6.5" font-family="Helvetica,sans-Serif" font-size="10.00">yarp/os/RpcClient.h</text>
</g>
<!-- Node9&#45;&gt;Node19 -->
<g id="edge21" class="edge"><title>Node9&#45;&gt;Node19</title>
<path fill="none" stroke="midnightblue" d="M1049.6,-60.4446C1058.73,-58.3261 1068.8,-56.2781 1078.17,-55 1418.31,-8.60553 1510.31,-50.144 1856.25,-18.9795"/>
<polygon fill="midnightblue" stroke="midnightblue" points="1856.66,-22.4569 1866.3,-18.0604 1856.02,-15.486 1856.66,-22.4569"/>
</g>
<!-- Node20 -->
<g id="node21" class="node"><title>Node20</title>
<polygon fill="white" stroke="#bfbfbf" points="1987.87,-0.5 1987.87,-18.5 2094.47,-18.5 2094.47,-0.5 1987.87,-0.5"/>
<text text-anchor="middle" x="2041.17" y="-6.5" font-family="Helvetica,sans-Serif" font-size="10.00">yarp/os/RpcServer.h</text>
</g>
<!-- Node9&#45;&gt;Node20 -->
<g id="edge22" class="edge"><title>Node9&#45;&gt;Node20</title>
<path fill="none" stroke="midnightblue" d="M1049.29,-60.4784C1058.5,-58.3335 1068.69,-56.2627 1078.17,-55 1472.13,-2.51801 1578.21,-53.399 1977.68,-19.0339"/>
<polygon fill="midnightblue" stroke="midnightblue" points="1978.12,-22.5093 1987.77,-18.153 1977.51,-15.5359 1978.12,-22.5093"/>
</g>
<!-- Node21 -->
<g id="node22" class="node"><title>Node21</title>
<polygon fill="white" stroke="#bfbfbf" points="2112.8,-0.5 2112.8,-18.5 2255.55,-18.5 2255.55,-0.5 2112.8,-0.5"/>
<text text-anchor="middle" x="2184.17" y="-6.5" font-family="Helvetica,sans-Serif" font-size="10.00">yarp/os/ConnectionReader.h</text>
</g>
<!-- Node9&#45;&gt;Node21 -->
<g id="edge23" class="edge"><title>Node9&#45;&gt;Node21</title>
<path fill="none" stroke="midnightblue" d="M1049.29,-60.4499C1058.5,-58.304 1068.69,-56.2398 1078.17,-55 1526.85,3.67011 1646.7,-50.0077 2102.5,-18.9791"/>
<polygon fill="midnightblue" stroke="midnightblue" points="2102.91,-22.4593 2112.64,-18.2784 2102.42,-15.476 2102.91,-22.4593"/>
</g>
<!-- Node22 -->
<g id="node23" class="node"><title>Node22</title>
<polygon fill="white" stroke="#bfbfbf" points="2273.29,-0.5 2273.29,-18.5 2355.06,-18.5 2355.06,-0.5 2273.29,-0.5"/>
<text text-anchor="middle" x="2314.17" y="-6.5" font-family="Helvetica,sans-Serif" font-size="10.00">yarp/os/Time.h</text>
</g>
<!-- Node9&#45;&gt;Node22 -->
<g id="edge24" class="edge"><title>Node9&#45;&gt;Node22</title>
<path fill="none" stroke="midnightblue" d="M1048.98,-60.4925C1058.27,-58.3202 1068.58,-56.2306 1078.17,-55 1597.92,11.7043 1737.65,-70.2623 2262.92,-18.9562"/>
<polygon fill="midnightblue" stroke="midnightblue" points="2263.43,-22.4232 2273.03,-17.9565 2262.74,-15.4572 2263.43,-22.4232"/>
</g>
<!-- Node23 -->
<g id="node24" class="node"><title>Node23</title>
<polygon fill="white" stroke="#bfbfbf" points="2372.76,-0.5 2372.76,-18.5 2481.59,-18.5 2481.59,-0.5 2372.76,-0.5"/>
<text text-anchor="middle" x="2427.17" y="-6.5" font-family="Helvetica,sans-Serif" font-size="10.00">yarp/os/LogStream.h</text>
</g>
<!-- Node9&#45;&gt;Node23 -->
<g id="edge26" class="edge"><title>Node9&#45;&gt;Node23</title>
<path fill="none" stroke="midnightblue" d="M1048.98,-60.4786C1058.27,-58.3057 1068.58,-56.2193 1078.17,-55 1642.06,16.6943 1792.51,-64.3308 2362.45,-19.041"/>
<polygon fill="midnightblue" stroke="midnightblue" points="2362.89,-22.5175 2372.58,-18.227 2362.33,-15.54 2362.89,-22.5175"/>
</g>
<!-- Node24 -->
<g id="node25" class="node"><title>Node24</title>
<polygon fill="white" stroke="#bfbfbf" points="2499.69,-0.5 2499.69,-18.5 2596.66,-18.5 2596.66,-0.5 2499.69,-0.5"/>
<text text-anchor="middle" x="2548.17" y="-6.5" font-family="Helvetica,sans-Serif" font-size="10.00">yarp/os/Property.h</text>
</g>
<!-- Node9&#45;&gt;Node24 -->
<g id="edge27" class="edge"><title>Node9&#45;&gt;Node24</title>
<path fill="none" stroke="midnightblue" d="M1048.98,-60.4639C1058.26,-58.2904 1068.58,-56.2073 1078.17,-55 1697.67,22.979 1862.93,-71.5836 2489.3,-18.9334"/>
<polygon fill="midnightblue" stroke="midnightblue" points="2489.82,-22.4019 2499.49,-18.0676 2489.23,-15.4271 2489.82,-22.4019"/>
</g>
<!-- Node25 -->
<g id="node26" class="node"><title>Node25</title>
<polygon fill="white" stroke="#bfbfbf" points="411.495,-0.5 411.495,-18.5 500.85,-18.5 500.85,-0.5 411.495,-0.5"/>
<text text-anchor="middle" x="456.172" y="-6.5" font-family="Helvetica,sans-Serif" font-size="10.00">yarp/sig/Matrix.h</text>
</g>
<!-- Node9&#45;&gt;Node25 -->
<g id="edge29" class="edge"><title>Node9&#45;&gt;Node25</title>
<path fill="none" stroke="midnightblue" d="M968.851,-64.5999C879.104,-57.4274 685.299,-40.9594 511.057,-19.0373"/>
<polygon fill="midnightblue" stroke="midnightblue" points="511.293,-15.5393 500.932,-17.7545 510.413,-22.4838 511.293,-15.5393"/>
</g>
<!-- Node26 -->
<g id="node27" class="node"><title>Node26</title>
<polygon fill="white" stroke="#bfbfbf" points="518.872,-0.5 518.872,-18.5 625.473,-18.5 625.473,-0.5 518.872,-0.5"/>
<text text-anchor="middle" x="572.172" y="-6.5" font-family="Helvetica,sans-Serif" font-size="10.00">ocra/control/Model.h</text>
</g>
<!-- Node9&#45;&gt;Node26 -->
<g id="edge31" class="edge"><title>Node9&#45;&gt;Node26</title>
<path fill="none" stroke="midnightblue" d="M968.84,-62.1082C897.39,-53.0133 762.164,-35.722 636.013,-19.1039"/>
<polygon fill="midnightblue" stroke="midnightblue" points="636.157,-15.5927 625.786,-17.7555 635.242,-22.5327 636.157,-15.5927"/>
</g>
<!-- Node27 -->
<g id="node28" class="node"><title>Node27</title>
<polygon fill="white" stroke="#bfbfbf" points="643.931,-0.5 643.931,-18.5 764.414,-18.5 764.414,-0.5 643.931,-0.5"/>
<text text-anchor="middle" x="704.172" y="-6.5" font-family="Helvetica,sans-Serif" font-size="10.00">ocra/util/StringUtilities.h</text>
</g>
<!-- Node9&#45;&gt;Node27 -->
<g id="edge32" class="edge"><title>Node9&#45;&gt;Node27</title>
<path fill="none" stroke="midnightblue" d="M975.704,-60.4962C918.788,-50.0166 819.053,-31.6526 757.595,-20.3365"/>
<polygon fill="midnightblue" stroke="midnightblue" points="758.169,-16.8835 747.7,-18.5147 756.901,-23.7677 758.169,-16.8835"/>
</g>
<!-- Node28 -->
<g id="node29" class="node"><title>Node28</title>
<polygon fill="white" stroke="#bfbfbf" points="782.542,-0.5 782.542,-18.5 855.803,-18.5 855.803,-0.5 782.542,-0.5"/>
<text text-anchor="middle" x="819.172" y="-6.5" font-family="Helvetica,sans-Serif" font-size="10.00">Eigen/Dense</text>
</g>
<!-- Node9&#45;&gt;Node28 -->
<g id="edge33" class="edge"><title>Node9&#45;&gt;Node28</title>
<path fill="none" stroke="midnightblue" d="M991.363,-60.4353C956.311,-50.2703 895.921,-32.757 856.776,-21.405"/>
<polygon fill="midnightblue" stroke="midnightblue" points="857.646,-18.0133 847.067,-18.5894 855.696,-24.7363 857.646,-18.0133"/>
</g>
<!-- Node29 -->
<g id="node30" class="node"><title>Node29</title>
<polygon fill="white" stroke="#bfbfbf" points="873.769,-0.5 873.769,-18.5 942.576,-18.5 942.576,-0.5 873.769,-0.5"/>
<text text-anchor="middle" x="908.172" y="-6.5" font-family="Helvetica,sans-Serif" font-size="10.00">Eigen/Lgsm</text>
</g>
<!-- Node9&#45;&gt;Node29 -->
<g id="edge34" class="edge"><title>Node9&#45;&gt;Node29</title>
<path fill="none" stroke="midnightblue" d="M1003.74,-60.4353C985.369,-50.8369 954.461,-34.6868 932.781,-23.3586"/>
<polygon fill="midnightblue" stroke="midnightblue" points="934.317,-20.2123 923.833,-18.6831 931.075,-26.4164 934.317,-20.2123"/>
</g>
</g>
</svg>
