<?xml version="1.0" encoding="UTF-8" standalone="no"?>
<!DOCTYPE svg PUBLIC "-//W3C//DTD SVG 1.1//EN"
 "http://www.w3.org/Graphics/SVG/1.1/DTD/svg11.dtd">
<!-- Generated by graphviz version 2.38.0 (20140413.2041)
 -->
<!-- Title: /Users/jorhabibeljaik/Code/codyco&#45;superbuild/main/ocra&#45;wbi&#45;plugins/ocra&#45;icub&#45;clients/walking&#45;client/src/main.cpp Pages: 1 -->
<svg width="2467pt" height="462pt"
 viewBox="0.00 0.00 2467.14 462.00" xmlns="http://www.w3.org/2000/svg" xmlns:xlink="http://www.w3.org/1999/xlink">
<g id="graph0" class="graph" transform="scale(1 1) rotate(0) translate(4 458)">
<title>/Users/jorhabibeljaik/Code/codyco&#45;superbuild/main/ocra&#45;wbi&#45;plugins/ocra&#45;icub&#45;clients/walking&#45;client/src/main.cpp</title>
<polygon fill="white" stroke="none" points="-4,4 -4,-458 2463.14,-458 2463.14,4 -4,4"/>
<!-- Node0 -->
<g id="node1" class="node"><title>Node0</title>
<polygon fill="#bfbfbf" stroke="black" points="1026.4,-395.5 1026.4,-453.5 1154.11,-453.5 1154.11,-395.5 1026.4,-395.5"/>
<text text-anchor="start" x="1034.4" y="-441.5" font-family="Helvetica,sans-Serif" font-size="10.00">/Users/jorhabibeljaik</text>
<text text-anchor="start" x="1034.4" y="-431.5" font-family="Helvetica,sans-Serif" font-size="10.00">/Code/codyco&#45;superbuild</text>
<text text-anchor="start" x="1034.4" y="-421.5" font-family="Helvetica,sans-Serif" font-size="10.00">/main/ocra&#45;wbi&#45;plugins</text>
<text text-anchor="start" x="1034.4" y="-411.5" font-family="Helvetica,sans-Serif" font-size="10.00">/ocra&#45;icub&#45;clients/walking</text>
<text text-anchor="middle" x="1090.25" y="-401.5" font-family="Helvetica,sans-Serif" font-size="10.00">&#45;client/src/main.cpp</text>
</g>
<!-- Node1 -->
<g id="node2" class="node"><title>Node1</title>
<polygon fill="white" stroke="#bfbfbf" points="0,-0.5 0,-18.5 130.507,-18.5 130.507,-0.5 0,-0.5"/>
<text text-anchor="middle" x="65.2534" y="-6.5" font-family="Helvetica,sans-Serif" font-size="10.00">yarp/os/ResourceFinder.h</text>
</g>
<!-- Node0&#45;&gt;Node1 -->
<g id="edge1" class="edge"><title>Node0&#45;&gt;Node1</title>
<path fill="none" stroke="midnightblue" d="M1026.15,-421.867C808.793,-415.493 113.253,-387.876 113.253,-295.5 113.253,-295.5 113.253,-295.5 113.253,-128.5 113.253,-89.9695 91.0228,-49.232 76.8193,-27.1364"/>
<polygon fill="midnightblue" stroke="midnightblue" points="79.5995,-24.9969 71.1392,-18.6194 73.7758,-28.8809 79.5995,-24.9969"/>
</g>
<!-- Node2 -->
<g id="node3" class="node"><title>Node2</title>
<polygon fill="white" stroke="#bfbfbf" points="225.96,-175.5 225.96,-193.5 322.546,-193.5 322.546,-175.5 225.96,-175.5"/>
<text text-anchor="middle" x="274.253" y="-181.5" font-family="Helvetica,sans-Serif" font-size="10.00">yarp/os/Network.h</text>
</g>
<!-- Node0&#45;&gt;Node2 -->
<g id="edge2" class="edge"><title>Node0&#45;&gt;Node2</title>
<path fill="none" stroke="midnightblue" d="M1026.28,-415.071C898.331,-396.683 603.521,-346.584 374.253,-249 343.706,-235.998 311.919,-214.143 292.604,-199.771"/>
<polygon fill="midnightblue" stroke="midnightblue" points="294.504,-196.819 284.419,-193.57 290.277,-202.399 294.504,-196.819"/>
</g>
<!-- Node3 -->
<g id="node4" class="node"><title>Node3</title>
<polygon fill="white" stroke="#bfbfbf" points="273.956,-0.5 273.956,-18.5 350.551,-18.5 350.551,-0.5 273.956,-0.5"/>
<text text-anchor="middle" x="312.253" y="-6.5" font-family="Helvetica,sans-Serif" font-size="10.00">yarp/os/Log.h</text>
</g>
<!-- Node0&#45;&gt;Node3 -->
<g id="edge3" class="edge"><title>Node0&#45;&gt;Node3</title>
<path fill="none" stroke="midnightblue" d="M1026.37,-417.077C841.426,-396.993 312.675,-328.535 217.253,-194 175.963,-135.784 256.229,-57.2244 294.052,-25.1028"/>
<polygon fill="midnightblue" stroke="midnightblue" points="296.377,-27.7216 301.835,-18.6405 291.906,-22.3362 296.377,-27.7216"/>
</g>
<!-- Node4 -->
<g id="node5" class="node"><title>Node4</title>
<polygon fill="white" stroke="#bfbfbf" points="2250.84,-0.5 2250.84,-18.5 2359.67,-18.5 2359.67,-0.5 2250.84,-0.5"/>
<text text-anchor="middle" x="2305.25" y="-6.5" font-family="Helvetica,sans-Serif" font-size="10.00">yarp/os/LogStream.h</text>
</g>
<!-- Node0&#45;&gt;Node4 -->
<g id="edge4" class="edge"><title>Node0&#45;&gt;Node4</title>
<path fill="none" stroke="midnightblue" d="M1087.61,-395.465C1086.2,-365.747 1088.08,-318.56 1109.25,-285 1208.58,-127.58 1282.2,-112.431 1459.25,-55 1621.95,-2.22751 2052.83,-33.4817 2240.54,-19.0126"/>
<polygon fill="midnightblue" stroke="midnightblue" points="2240.98,-22.4883 2250.65,-18.1667 2240.39,-15.5127 2240.98,-22.4883"/>
</g>
<!-- Node5 -->
<g id="node6" class="node"><title>Node5</title>
<polygon fill="white" stroke="#bfbfbf" points="2377.37,-0.5 2377.37,-18.5 2459.14,-18.5 2459.14,-0.5 2377.37,-0.5"/>
<text text-anchor="middle" x="2418.25" y="-6.5" font-family="Helvetica,sans-Serif" font-size="10.00">yarp/os/Time.h</text>
</g>
<!-- Node0&#45;&gt;Node5 -->
<g id="edge5" class="edge"><title>Node0&#45;&gt;Node5</title>
<path fill="none" stroke="midnightblue" d="M1154.36,-415.523C1263.39,-400.148 1473.25,-361.927 1473.25,-295.5 1473.25,-295.5 1473.25,-295.5 1473.25,-128.5 1473.25,-30.9557 2227.7,-33.2833 2367.38,-18.8274"/>
<polygon fill="midnightblue" stroke="midnightblue" points="2367.84,-22.2968 2377.35,-17.6137 2367,-15.3481 2367.84,-22.2968"/>
</g>
<!-- Node6 -->
<g id="node7" class="node"><title>Node6</title>
<g id="a_node7"><a xlink:href="IcubClient_8h.html" target="_top" xlink:title="ocra&#45;icub/IcubClient.h">
<polygon fill="white" stroke="black" points="829.896,-285.5 829.896,-303.5 942.61,-303.5 942.61,-285.5 829.896,-285.5"/>
<text text-anchor="middle" x="886.253" y="-291.5" font-family="Helvetica,sans-Serif" font-size="10.00">ocra&#45;icub/IcubClient.h</text>
</a>
</g>
</g>
<!-- Node0&#45;&gt;Node6 -->
<g id="edge6" class="edge"><title>Node0&#45;&gt;Node6</title>
<path fill="none" stroke="midnightblue" d="M1045.48,-395.41C1002.79,-368.618 940.301,-329.412 907.758,-308.993"/>
<polygon fill="midnightblue" stroke="midnightblue" points="909.374,-305.875 899.043,-303.525 905.654,-311.805 909.374,-305.875"/>
</g>
<!-- Node33 -->
<g id="node34" class="node"><title>Node33</title>
<polygon fill="white" stroke="#bfbfbf" points="1293.73,-285.5 1293.73,-303.5 1444.78,-303.5 1444.78,-285.5 1293.73,-285.5"/>
<text text-anchor="middle" x="1369.25" y="-291.5" font-family="Helvetica,sans-Serif" font-size="10.00">ocra&#45;recipes/ControllerClient.h</text>
</g>
<!-- Node0&#45;&gt;Node33 -->
<g id="edge56" class="edge"><title>Node0&#45;&gt;Node33</title>
<path fill="none" stroke="midnightblue" d="M1154.33,-406.126C1191.27,-394.96 1238.02,-378.835 1277.25,-359 1304.79,-345.078 1333.61,-323.957 1351.49,-309.948"/>
<polygon fill="midnightblue" stroke="midnightblue" points="1353.69,-312.669 1359.34,-303.705 1349.34,-307.191 1353.69,-312.669"/>
</g>
<!-- Node34 -->
<g id="node35" class="node"><title>Node34</title>
<polygon fill="white" stroke="#bfbfbf" points="1500.94,-340.5 1500.94,-358.5 1647.57,-358.5 1647.57,-340.5 1500.94,-340.5"/>
<text text-anchor="middle" x="1574.25" y="-346.5" font-family="Helvetica,sans-Serif" font-size="10.00">ocra&#45;recipes/ClientManager.h</text>
</g>
<!-- Node0&#45;&gt;Node34 -->
<g id="edge57" class="edge"><title>Node0&#45;&gt;Node34</title>
<path fill="none" stroke="midnightblue" d="M1154.52,-413.806C1247.47,-399.788 1418.37,-374.012 1510.83,-360.065"/>
<polygon fill="midnightblue" stroke="midnightblue" points="1511.53,-363.501 1520.89,-358.548 1510.48,-356.579 1511.53,-363.501"/>
</g>
<!-- Node35 -->
<g id="node36" class="node"><title>Node35</title>
<g id="a_node36"><a xlink:href="WalkingClient_8h.html" target="_top" xlink:title="walking&#45;client/WalkingClient.h">
<polygon fill="white" stroke="black" points="1120.3,-340.5 1120.3,-358.5 1268.21,-358.5 1268.21,-340.5 1120.3,-340.5"/>
<text text-anchor="middle" x="1194.25" y="-346.5" font-family="Helvetica,sans-Serif" font-size="10.00">walking&#45;client/WalkingClient.h</text>
</a>
</g>
</g>
<!-- Node0&#45;&gt;Node35 -->
<g id="edge58" class="edge"><title>Node0&#45;&gt;Node35</title>
<path fill="none" stroke="midnightblue" d="M1130.17,-395.485C1145.28,-384.873 1161.85,-373.247 1174.35,-364.473"/>
<polygon fill="midnightblue" stroke="midnightblue" points="1176.48,-367.254 1182.65,-358.644 1172.46,-361.524 1176.48,-367.254"/>
</g>
<!-- Node7 -->
<g id="node8" class="node"><title>Node7</title>
<g id="a_node8"><a xlink:href="ModelInitializer_8h.html" target="_top" xlink:title="ocra&#45;icub/ModelInitializer.h">
<polygon fill="white" stroke="black" points="383.057,-230.5 383.057,-248.5 517.45,-248.5 517.45,-230.5 383.057,-230.5"/>
<text text-anchor="middle" x="450.253" y="-236.5" font-family="Helvetica,sans-Serif" font-size="10.00">ocra&#45;icub/ModelInitializer.h</text>
</a>
</g>
</g>
<!-- Node6&#45;&gt;Node7 -->
<g id="edge7" class="edge"><title>Node6&#45;&gt;Node7</title>
<path fill="none" stroke="midnightblue" d="M829.701,-286.626C752.239,-277.209 612.905,-260.272 526.349,-249.75"/>
<polygon fill="midnightblue" stroke="midnightblue" points="526.672,-246.264 516.323,-248.531 525.828,-253.213 526.672,-246.264"/>
</g>
<!-- Node8 -->
<g id="node9" class="node"><title>Node8</title>
<g id="a_node9"><a xlink:href="OcraWbiModel_8h.html" target="_top" xlink:title="Implementation of ocra::Model using wholeBodyInterface. ">
<polygon fill="white" stroke="black" points="464.066,-175.5 464.066,-193.5 598.44,-193.5 598.44,-175.5 464.066,-175.5"/>
<text text-anchor="middle" x="531.253" y="-181.5" font-family="Helvetica,sans-Serif" font-size="10.00">ocra&#45;icub/OcraWbiModel.h</text>
</a>
</g>
</g>
<!-- Node6&#45;&gt;Node8 -->
<g id="edge54" class="edge"><title>Node6&#45;&gt;Node8</title>
<path fill="none" stroke="midnightblue" d="M859.861,-285.471C797.22,-266.414 639.471,-218.423 567.755,-196.605"/>
<polygon fill="midnightblue" stroke="midnightblue" points="568.406,-193.144 557.82,-193.582 566.368,-199.841 568.406,-193.144"/>
</g>
<!-- Node12 -->
<g id="node13" class="node"><title>Node12</title>
<g id="a_node13"><a xlink:href="OcraWbiConversions_8h.html" target="_top" xlink:title="A utility class full of static conversion functions. ">
<polygon fill="white" stroke="black" points="729.894,-120.5 729.894,-138.5 892.613,-138.5 892.613,-120.5 729.894,-120.5"/>
<text text-anchor="middle" x="811.253" y="-126.5" font-family="Helvetica,sans-Serif" font-size="10.00">ocra&#45;icub/OcraWbiConversions.h</text>
</a>
</g>
</g>
<!-- Node6&#45;&gt;Node12 -->
<g id="edge53" class="edge"><title>Node6&#45;&gt;Node12</title>
<path fill="none" stroke="midnightblue" d="M882.431,-285.193C870.745,-259.794 835.314,-182.791 819.283,-147.952"/>
<polygon fill="midnightblue" stroke="midnightblue" points="822.339,-146.219 814.979,-138.597 815.98,-149.145 822.339,-146.219"/>
</g>
<!-- Node18 -->
<g id="node19" class="node"><title>Node18</title>
<g id="a_node19"><a xlink:href="Utilities_8h.html" target="_top" xlink:title="Some useful tools for the ocra&#45;icub lib. ">
<polygon fill="white" stroke="black" points="928.017,-60.5 928.017,-78.5 1028.49,-78.5 1028.49,-60.5 928.017,-60.5"/>
<text text-anchor="middle" x="978.253" y="-66.5" font-family="Helvetica,sans-Serif" font-size="10.00">ocra&#45;icub/Utilities.h</text>
</a>
</g>
</g>
<!-- Node6&#45;&gt;Node18 -->
<g id="edge55" class="edge"><title>Node6&#45;&gt;Node18</title>
<path fill="none" stroke="midnightblue" d="M889.637,-285.299C903.022,-252.854 952.45,-133.045 971.083,-87.8802"/>
<polygon fill="midnightblue" stroke="midnightblue" points="974.358,-89.1196 974.936,-78.5406 967.887,-86.4499 974.358,-89.1196"/>
</g>
<!-- Node7&#45;&gt;Node2 -->
<g id="edge50" class="edge"><title>Node7&#45;&gt;Node2</title>
<path fill="none" stroke="midnightblue" d="M423.523,-230.45C393.457,-221.396 344.448,-206.638 310.843,-196.519"/>
<polygon fill="midnightblue" stroke="midnightblue" points="311.531,-193.07 300.947,-193.538 309.513,-199.773 311.531,-193.07"/>
</g>
<!-- Node7&#45;&gt;Node3 -->
<g id="edge52" class="edge"><title>Node7&#45;&gt;Node3</title>
<path fill="none" stroke="midnightblue" d="M445.342,-230.385C425.391,-197.424 350.169,-73.1438 322.526,-27.4723"/>
<polygon fill="midnightblue" stroke="midnightblue" points="325.423,-25.4984 317.25,-18.7557 319.434,-29.123 325.423,-25.4984"/>
</g>
<!-- Node7&#45;&gt;Node4 -->
<g id="edge51" class="edge"><title>Node7&#45;&gt;Node4</title>
<path fill="none" stroke="midnightblue" d="M502.79,-230.489C591.823,-216.277 777.562,-183.865 930.253,-139 995.586,-119.803 1012.54,-114.828 1073.25,-84 1094.47,-73.2282 1095.54,-62.0823 1118.25,-55 1234.86,-18.6421 2078.58,-28.8725 2240.58,-18.9315"/>
<polygon fill="midnightblue" stroke="midnightblue" points="2240.93,-22.4159 2250.65,-18.2135 2240.43,-15.4336 2240.93,-22.4159"/>
</g>
<!-- Node7&#45;&gt;Node8 -->
<g id="edge8" class="edge"><title>Node7&#45;&gt;Node8</title>
<path fill="none" stroke="midnightblue" d="M462.556,-230.45C475.163,-222.201 495.008,-209.216 510.134,-199.319"/>
<polygon fill="midnightblue" stroke="midnightblue" points="512.384,-202.029 518.835,-193.625 508.551,-196.172 512.384,-202.029"/>
</g>
<!-- Node10 -->
<g id="node11" class="node"><title>Node10</title>
<polygon fill="white" stroke="#bfbfbf" points="148.953,-0.5 148.953,-18.5 255.554,-18.5 255.554,-0.5 148.953,-0.5"/>
<text text-anchor="middle" x="202.253" y="-6.5" font-family="Helvetica,sans-Serif" font-size="10.00">ocra/control/Model.h</text>
</g>
<!-- Node7&#45;&gt;Node10 -->
<g id="edge47" class="edge"><title>Node7&#45;&gt;Node10</title>
<path fill="none" stroke="midnightblue" d="M441.427,-230.385C405.042,-196.934 266.356,-69.4328 218.559,-25.4904"/>
<polygon fill="midnightblue" stroke="midnightblue" points="220.705,-22.7088 210.974,-18.5174 215.967,-27.862 220.705,-22.7088"/>
</g>
<!-- Node17 -->
<g id="node18" class="node"><title>Node17</title>
<polygon fill="white" stroke="#bfbfbf" points="567.943,-55.5 567.943,-83.5 704.563,-83.5 704.563,-55.5 567.943,-55.5"/>
<text text-anchor="start" x="575.943" y="-71.5" font-family="Helvetica,sans-Serif" font-size="10.00">yarpWholeBodyInterface</text>
<text text-anchor="middle" x="636.253" y="-61.5" font-family="Helvetica,sans-Serif" font-size="10.00">/yarpWholeBodyInterface.h</text>
</g>
<!-- Node7&#45;&gt;Node17 -->
<g id="edge48" class="edge"><title>Node7&#45;&gt;Node17</title>
<path fill="none" stroke="midnightblue" d="M517.801,-234.719C548.998,-229.514 584.159,-218.171 607.253,-194 633.062,-166.988 637.401,-121.55 637.391,-93.9638"/>
<polygon fill="midnightblue" stroke="midnightblue" points="640.885,-93.6007 637.184,-83.6731 633.886,-93.7415 640.885,-93.6007"/>
</g>
<!-- Node26 -->
<g id="node27" class="node"><title>Node26</title>
<polygon fill="white" stroke="#bfbfbf" points="368.623,-0.5 368.623,-18.5 471.884,-18.5 471.884,-0.5 368.623,-0.5"/>
<text text-anchor="middle" x="420.253" y="-6.5" font-family="Helvetica,sans-Serif" font-size="10.00">yarp/os/RpcClient.h</text>
</g>
<!-- Node7&#45;&gt;Node26 -->
<g id="edge49" class="edge"><title>Node7&#45;&gt;Node26</title>
<path fill="none" stroke="midnightblue" d="M449.186,-230.385C444.894,-197.769 428.838,-75.7392 422.679,-28.9343"/>
<polygon fill="midnightblue" stroke="midnightblue" points="426.114,-28.2136 421.34,-18.7557 419.174,-29.1268 426.114,-28.2136"/>
</g>
<!-- Node8&#45;&gt;Node3 -->
<g id="edge12" class="edge"><title>Node8&#45;&gt;Node3</title>
<path fill="none" stroke="midnightblue" d="M520.984,-175.388C486.498,-148.145 374.525,-59.6913 330.381,-24.8203"/>
<polygon fill="midnightblue" stroke="midnightblue" points="332.517,-22.0469 322.5,-18.5946 328.178,-27.5398 332.517,-22.0469"/>
</g>
<!-- Node9 -->
<g id="node10" class="node"><title>Node9</title>
<polygon fill="white" stroke="#bfbfbf" points="490.197,-0.5 490.197,-18.5 542.31,-18.5 542.31,-0.5 490.197,-0.5"/>
<text text-anchor="middle" x="516.253" y="-6.5" font-family="Helvetica,sans-Serif" font-size="10.00">memory</text>
</g>
<!-- Node8&#45;&gt;Node9 -->
<g id="edge9" class="edge"><title>Node8&#45;&gt;Node9</title>
<path fill="none" stroke="midnightblue" d="M530.248,-175.307C529.173,-166.386 527.46,-151.693 526.253,-139 522.524,-99.7698 519.193,-53.7028 517.478,-28.7709"/>
<polygon fill="midnightblue" stroke="midnightblue" points="520.958,-28.3667 516.789,-18.6268 513.974,-28.841 520.958,-28.3667"/>
</g>
<!-- Node8&#45;&gt;Node10 -->
<g id="edge10" class="edge"><title>Node8&#45;&gt;Node10</title>
<path fill="none" stroke="midnightblue" d="M515.826,-175.388C463.262,-147.748 290.871,-57.0984 226.651,-23.3292"/>
<polygon fill="midnightblue" stroke="midnightblue" points="228.127,-20.1509 217.647,-18.5946 224.869,-26.3466 228.127,-20.1509"/>
</g>
<!-- Node11 -->
<g id="node12" class="node"><title>Node11</title>
<polygon fill="white" stroke="#bfbfbf" points="560.689,-0.5 560.689,-18.5 617.817,-18.5 617.817,-0.5 560.689,-0.5"/>
<text text-anchor="middle" x="589.253" y="-6.5" font-family="Helvetica,sans-Serif" font-size="10.00">wbi/wbi.h</text>
</g>
<!-- Node8&#45;&gt;Node11 -->
<g id="edge11" class="edge"><title>Node8&#45;&gt;Node11</title>
<path fill="none" stroke="midnightblue" d="M531.954,-175.357C533.97,-154.55 540.86,-98.0411 559.253,-55 563.51,-45.0399 570.087,-34.9494 575.999,-26.9007"/>
<polygon fill="midnightblue" stroke="midnightblue" points="578.91,-28.8571 582.233,-18.7968 573.361,-24.5892 578.91,-28.8571"/>
</g>
<!-- Node8&#45;&gt;Node12 -->
<g id="edge13" class="edge"><title>Node8&#45;&gt;Node12</title>
<path fill="none" stroke="midnightblue" d="M573.779,-175.45C623.364,-166.065 705.334,-150.549 758.817,-140.425"/>
<polygon fill="midnightblue" stroke="midnightblue" points="759.612,-143.837 768.787,-138.538 758.31,-136.959 759.612,-143.837"/>
</g>
<!-- Node8&#45;&gt;Node18 -->
<g id="edge46" class="edge"><title>Node8&#45;&gt;Node18</title>
<path fill="none" stroke="midnightblue" d="M598.747,-180.213C690.382,-174.93 848.755,-162.657 901.253,-139 927.68,-127.092 951.495,-102.824 965.421,-86.6078"/>
<polygon fill="midnightblue" stroke="midnightblue" points="968.408,-88.4895 972.095,-78.5568 963.018,-84.0224 968.408,-88.4895"/>
</g>
<!-- Node12&#45;&gt;Node3 -->
<g id="edge18" class="edge"><title>Node12&#45;&gt;Node3</title>
<path fill="none" stroke="midnightblue" d="M798.474,-120.406C785.13,-111.804 763.747,-97.595 746.253,-84 730.836,-72.0188 731.151,-62.8037 713.253,-55 571.262,6.90982 518.038,-39.1141 360.709,-19.0504"/>
<polygon fill="midnightblue" stroke="midnightblue" points="361.066,-15.5669 350.688,-17.7016 360.132,-22.5044 361.066,-15.5669"/>
</g>
<!-- Node12&#45;&gt;Node11 -->
<g id="edge19" class="edge"><title>Node12&#45;&gt;Node11</title>
<path fill="none" stroke="midnightblue" d="M806.288,-120.281C796.659,-105.05 773.939,-72.4131 746.253,-55 736.124,-48.6289 670.98,-31.2843 627.85,-20.226"/>
<polygon fill="midnightblue" stroke="midnightblue" points="628.497,-16.7788 617.942,-17.6964 626.765,-23.5612 628.497,-16.7788"/>
</g>
<!-- Node13 -->
<g id="node14" class="node"><title>Node13</title>
<polygon fill="white" stroke="#bfbfbf" points="636.081,-0.5 636.081,-18.5 690.426,-18.5 690.426,-0.5 636.081,-0.5"/>
<text text-anchor="middle" x="663.253" y="-6.5" font-family="Helvetica,sans-Serif" font-size="10.00">iostream</text>
</g>
<!-- Node12&#45;&gt;Node13 -->
<g id="edge14" class="edge"><title>Node12&#45;&gt;Node13</title>
<path fill="none" stroke="midnightblue" d="M810.495,-120.477C808.667,-105.573 802.706,-73.4595 784.253,-55 772.117,-42.8587 731.079,-29.2898 700.134,-20.3637"/>
<polygon fill="midnightblue" stroke="midnightblue" points="701.066,-16.9901 690.491,-17.6364 699.161,-23.7258 701.066,-16.9901"/>
</g>
<!-- Node14 -->
<g id="node15" class="node"><title>Node14</title>
<polygon fill="white" stroke="#bfbfbf" points="874.527,-60.5 874.527,-78.5 909.98,-78.5 909.98,-60.5 874.527,-60.5"/>
<text text-anchor="middle" x="892.253" y="-66.5" font-family="Helvetica,sans-Serif" font-size="10.00">map</text>
</g>
<!-- Node12&#45;&gt;Node14 -->
<g id="edge15" class="edge"><title>Node12&#45;&gt;Node14</title>
<path fill="none" stroke="midnightblue" d="M822.516,-120.435C835.38,-111.224 856.67,-95.9797 872.348,-84.753"/>
<polygon fill="midnightblue" stroke="midnightblue" points="874.732,-87.3507 880.825,-78.6831 870.657,-81.6594 874.732,-87.3507"/>
</g>
<!-- Node15 -->
<g id="node16" class="node"><title>Node15</title>
<polygon fill="white" stroke="#bfbfbf" points="708.638,-0.5 708.638,-18.5 751.869,-18.5 751.869,-0.5 708.638,-0.5"/>
<text text-anchor="middle" x="730.253" y="-6.5" font-family="Helvetica,sans-Serif" font-size="10.00">vector</text>
</g>
<!-- Node12&#45;&gt;Node15 -->
<g id="edge16" class="edge"><title>Node12&#45;&gt;Node15</title>
<path fill="none" stroke="midnightblue" d="M815.897,-120.047C823.168,-105.556 835.141,-75.5499 822.253,-55 815.252,-43.8367 785.404,-30.6467 761.578,-21.54"/>
<polygon fill="midnightblue" stroke="midnightblue" points="762.74,-18.2383 752.148,-18.0244 760.295,-24.7973 762.74,-18.2383"/>
</g>
<!-- Node16 -->
<g id="node17" class="node"><title>Node16</title>
<polygon fill="white" stroke="#bfbfbf" points="2143.28,-0.5 2143.28,-18.5 2233.22,-18.5 2233.22,-0.5 2143.28,-0.5"/>
<text text-anchor="middle" x="2188.25" y="-6.5" font-family="Helvetica,sans-Serif" font-size="10.00">yarp/sig/Vector.h</text>
</g>
<!-- Node12&#45;&gt;Node16 -->
<g id="edge17" class="edge"><title>Node12&#45;&gt;Node16</title>
<path fill="none" stroke="midnightblue" d="M892.495,-120.462C936.569,-114.154 991.279,-103.107 1037.25,-84 1058.54,-75.1535 1058.33,-62.1142 1080.25,-55 1189.1,-19.6832 1979.28,-29.6276 2133.26,-18.8233"/>
<polygon fill="midnightblue" stroke="midnightblue" points="2133.54,-22.3116 2143.22,-18.0086 2132.97,-15.3349 2133.54,-22.3116"/>
</g>
<!-- Node12&#45;&gt;Node17 -->
<g id="edge20" class="edge"><title>Node12&#45;&gt;Node17</title>
<path fill="none" stroke="midnightblue" d="M786.92,-120.435C760.678,-111.738 718.206,-97.6614 685.034,-86.6671"/>
<polygon fill="midnightblue" stroke="midnightblue" points="686.1,-83.3333 675.506,-83.5096 683.898,-89.9779 686.1,-83.3333"/>
</g>
<!-- Node12&#45;&gt;Node18 -->
<g id="edge21" class="edge"><title>Node12&#45;&gt;Node18</title>
<path fill="none" stroke="midnightblue" d="M834.474,-120.435C863.307,-110.421 912.674,-93.276 945.386,-81.9152"/>
<polygon fill="midnightblue" stroke="midnightblue" points="946.663,-85.1766 954.961,-78.5894 944.367,-78.5641 946.663,-85.1766"/>
</g>
<!-- Node18&#45;&gt;Node1 -->
<g id="edge31" class="edge"><title>Node18&#45;&gt;Node1</title>
<path fill="none" stroke="midnightblue" d="M947.822,-60.4446C938.698,-58.3261 928.624,-56.2781 919.253,-55 579.111,-8.60553 487.489,-45.8076 140.746,-18.9663"/>
<polygon fill="midnightblue" stroke="midnightblue" points="140.919,-15.4692 130.675,-18.1744 140.37,-22.4477 140.919,-15.4692"/>
</g>
<!-- Node18&#45;&gt;Node3 -->
<g id="edge37" class="edge"><title>Node18&#45;&gt;Node3</title>
<path fill="none" stroke="midnightblue" d="M947.503,-60.4805C938.458,-58.3895 928.508,-56.3473 919.253,-55 675.706,-19.5432 608.578,-48.458 360.705,-19.0298"/>
<polygon fill="midnightblue" stroke="midnightblue" points="361.02,-15.5425 350.673,-17.8188 360.181,-22.492 361.02,-15.5425"/>
</g>
<!-- Node18&#45;&gt;Node4 -->
<g id="edge38" class="edge"><title>Node18&#45;&gt;Node4</title>
<path fill="none" stroke="midnightblue" d="M1028.73,-60.7969C1045.13,-58.5688 1063.43,-56.3705 1080.25,-55 1591.85,-13.3262 1725.56,-60.9637 2240.36,-19.063"/>
<polygon fill="midnightblue" stroke="midnightblue" points="2240.98,-22.524 2250.66,-18.217 2240.4,-15.5475 2240.98,-22.524"/>
</g>
<!-- Node18&#45;&gt;Node5 -->
<g id="edge36" class="edge"><title>Node18&#45;&gt;Node5</title>
<path fill="none" stroke="midnightblue" d="M1028.52,-67.1066C1256.89,-60.7238 2192.67,-33.9858 2366.96,-18.8938"/>
<polygon fill="midnightblue" stroke="midnightblue" points="2367.48,-22.3604 2377.11,-17.9392 2366.83,-15.3912 2367.48,-22.3604"/>
</g>
<!-- Node18&#45;&gt;Node9 -->
<g id="edge22" class="edge"><title>Node18&#45;&gt;Node9</title>
<path fill="none" stroke="midnightblue" d="M946.555,-60.4661C937.758,-58.4502 928.173,-56.4507 919.253,-55 760.375,-29.16 715.124,-45.7463 552.89,-19.0402"/>
<polygon fill="midnightblue" stroke="midnightblue" points="552.986,-15.5073 542.544,-17.305 551.828,-22.4109 552.986,-15.5073"/>
</g>
<!-- Node18&#45;&gt;Node10 -->
<g id="edge43" class="edge"><title>Node18&#45;&gt;Node10</title>
<path fill="none" stroke="midnightblue" d="M947.815,-60.4967C938.69,-58.3796 928.618,-56.3193 919.253,-55 634.231,-14.844 556.792,-45.7716 265.834,-18.9591"/>
<polygon fill="midnightblue" stroke="midnightblue" points="266.119,-15.4706 255.836,-18.0229 265.467,-22.4401 266.119,-15.4706"/>
</g>
<!-- Node18&#45;&gt;Node11 -->
<g id="edge42" class="edge"><title>Node18&#45;&gt;Node11</title>
<path fill="none" stroke="midnightblue" d="M945.915,-60.4737C937.288,-58.5046 927.947,-56.5264 919.253,-55 793.607,-32.9395 757.833,-40.882 627.772,-18.9114"/>
<polygon fill="midnightblue" stroke="midnightblue" points="628.276,-15.4467 617.828,-17.2048 627.092,-22.3458 628.276,-15.4467"/>
</g>
<!-- Node18&#45;&gt;Node13 -->
<g id="edge24" class="edge"><title>Node18&#45;&gt;Node13</title>
<path fill="none" stroke="midnightblue" d="M944.945,-60.4946C936.579,-58.59 927.606,-56.6373 919.253,-55 825.159,-36.5552 798.14,-38.2596 700.701,-19.1725"/>
<polygon fill="midnightblue" stroke="midnightblue" points="701.217,-15.7068 690.728,-17.195 699.856,-22.5731 701.217,-15.7068"/>
</g>
<!-- Node18&#45;&gt;Node15 -->
<g id="edge26" class="edge"><title>Node18&#45;&gt;Node15</title>
<path fill="none" stroke="midnightblue" d="M943.313,-60.4996C935.402,-58.6897 927.039,-56.7777 919.253,-55 852.056,-39.6567 832.747,-36.7615 761.782,-19.0438"/>
<polygon fill="midnightblue" stroke="midnightblue" points="762.453,-15.6038 751.902,-16.5652 760.75,-22.3934 762.453,-15.6038"/>
</g>
<!-- Node18&#45;&gt;Node16 -->
<g id="edge40" class="edge"><title>Node18&#45;&gt;Node16</title>
<path fill="none" stroke="midnightblue" d="M1010.96,-60.4519C1020.94,-58.3061 1031.99,-56.2414 1042.25,-55 1521.04,2.9368 1649.08,-63.9142 2133.18,-18.9569"/>
<polygon fill="midnightblue" stroke="midnightblue" points="2133.6,-22.4331 2143.22,-18.0126 2132.94,-15.4638 2133.6,-22.4331"/>
</g>
<!-- Node19 -->
<g id="node20" class="node"><title>Node19</title>
<polygon fill="white" stroke="#bfbfbf" points="1953.64,-0.5 1953.64,-18.5 1996.87,-18.5 1996.87,-0.5 1953.64,-0.5"/>
<text text-anchor="middle" x="1975.25" y="-6.5" font-family="Helvetica,sans-Serif" font-size="10.00">cmath</text>
</g>
<!-- Node18&#45;&gt;Node19 -->
<g id="edge23" class="edge"><title>Node18&#45;&gt;Node19</title>
<path fill="none" stroke="midnightblue" d="M1010.96,-60.4962C1020.95,-58.3519 1032,-56.277 1042.25,-55 1437.08,-5.83292 1545.98,-79.2074 1943.33,-18.7103"/>
<polygon fill="midnightblue" stroke="midnightblue" points="1944.02,-22.1456 1953.37,-17.1629 1942.96,-15.2273 1944.02,-22.1456"/>
</g>
<!-- Node20 -->
<g id="node21" class="node"><title>Node20</title>
<polygon fill="white" stroke="#bfbfbf" points="2015.03,-0.5 2015.03,-18.5 2055.48,-18.5 2055.48,-0.5 2015.03,-0.5"/>
<text text-anchor="middle" x="2035.25" y="-6.5" font-family="Helvetica,sans-Serif" font-size="10.00">string</text>
</g>
<!-- Node18&#45;&gt;Node20 -->
<g id="edge25" class="edge"><title>Node18&#45;&gt;Node20</title>
<path fill="none" stroke="midnightblue" d="M1010.96,-60.4798C1020.95,-58.335 1032,-56.2638 1042.25,-55 1464.45,-2.97372 1581.25,-86.5001 2004.74,-18.8029"/>
<polygon fill="midnightblue" stroke="midnightblue" points="2005.49,-22.2274 2014.8,-17.1755 2004.37,-15.3172 2005.49,-22.2274"/>
</g>
<!-- Node21 -->
<g id="node22" class="node"><title>Node21</title>
<polygon fill="white" stroke="#bfbfbf" points="2073.47,-0.5 2073.47,-18.5 2125.03,-18.5 2125.03,-0.5 2073.47,-0.5"/>
<text text-anchor="middle" x="2099.25" y="-6.5" font-family="Helvetica,sans-Serif" font-size="10.00">sstream</text>
</g>
<!-- Node18&#45;&gt;Node21 -->
<g id="edge27" class="edge"><title>Node18&#45;&gt;Node21</title>
<path fill="none" stroke="midnightblue" d="M1010.96,-60.4663C1020.94,-58.321 1032,-56.253 1042.25,-55 1490.1,-0.294518 1612.21,-79.7697 2063.33,-18.7784"/>
<polygon fill="midnightblue" stroke="midnightblue" points="2063.94,-22.2282 2073.37,-17.4054 2062.99,-15.2928 2063.94,-22.2282"/>
</g>
<!-- Node22 -->
<g id="node23" class="node"><title>Node22</title>
<polygon fill="white" stroke="#bfbfbf" points="770.314,-0.5 770.314,-18.5 886.192,-18.5 886.192,-0.5 770.314,-0.5"/>
<text text-anchor="middle" x="828.253" y="-6.5" font-family="Helvetica,sans-Serif" font-size="10.00">yarp/os/BufferedPort.h</text>
</g>
<!-- Node18&#45;&gt;Node22 -->
<g id="edge28" class="edge"><title>Node18&#45;&gt;Node22</title>
<path fill="none" stroke="midnightblue" d="M957.397,-60.4353C931.794,-50.5356 888.167,-33.6664 858.787,-22.3064"/>
<polygon fill="midnightblue" stroke="midnightblue" points="860.006,-19.0252 849.417,-18.6831 857.481,-25.5541 860.006,-19.0252"/>
</g>
<!-- Node23 -->
<g id="node24" class="node"><title>Node23</title>
<polygon fill="white" stroke="#bfbfbf" points="904.512,-0.5 904.512,-18.5 989.995,-18.5 989.995,-0.5 904.512,-0.5"/>
<text text-anchor="middle" x="947.253" y="-6.5" font-family="Helvetica,sans-Serif" font-size="10.00">yarp/os/Bottle.h</text>
</g>
<!-- Node18&#45;&gt;Node23 -->
<g id="edge29" class="edge"><title>Node18&#45;&gt;Node23</title>
<path fill="none" stroke="midnightblue" d="M973.943,-60.4353C969.459,-52.0467 962.301,-38.6539 956.526,-27.8491"/>
<polygon fill="midnightblue" stroke="midnightblue" points="959.529,-26.0412 951.728,-18.8718 953.355,-29.3409 959.529,-26.0412"/>
</g>
<!-- Node24 -->
<g id="node25" class="node"><title>Node24</title>
<polygon fill="white" stroke="#bfbfbf" points="1007.89,-0.5 1007.89,-18.5 1120.61,-18.5 1120.61,-0.5 1007.89,-0.5"/>
<text text-anchor="middle" x="1064.25" y="-6.5" font-family="Helvetica,sans-Serif" font-size="10.00">yarp/os/RateThread.h</text>
</g>
<!-- Node18&#45;&gt;Node24 -->
<g id="edge30" class="edge"><title>Node18&#45;&gt;Node24</title>
<path fill="none" stroke="midnightblue" d="M990.211,-60.4353C1004,-51.1382 1026.9,-35.6942 1043.58,-24.4393"/>
<polygon fill="midnightblue" stroke="midnightblue" points="1045.79,-27.1764 1052.12,-18.6831 1041.87,-21.3728 1045.79,-27.1764"/>
</g>
<!-- Node25 -->
<g id="node26" class="node"><title>Node25</title>
<polygon fill="white" stroke="#bfbfbf" points="1139,-0.5 1139,-18.5 1249.5,-18.5 1249.5,-0.5 1139,-0.5"/>
<text text-anchor="middle" x="1194.25" y="-6.5" font-family="Helvetica,sans-Serif" font-size="10.00">yarp/os/PortReader.h</text>
</g>
<!-- Node18&#45;&gt;Node25 -->
<g id="edge32" class="edge"><title>Node18&#45;&gt;Node25</title>
<path fill="none" stroke="midnightblue" d="M1008.29,-60.4353C1046.38,-50.2055 1112.2,-32.5336 1154.45,-21.1888"/>
<polygon fill="midnightblue" stroke="midnightblue" points="1155.38,-24.5631 1164.13,-18.5894 1153.56,-17.8026 1155.38,-24.5631"/>
</g>
<!-- Node18&#45;&gt;Node26 -->
<g id="edge33" class="edge"><title>Node18&#45;&gt;Node26</title>
<path fill="none" stroke="midnightblue" d="M946.876,-60.4449C937.996,-58.4043 928.288,-56.3975 919.253,-55 729.431,-25.6362 677.118,-39.9898 482.141,-19.0258"/>
<polygon fill="midnightblue" stroke="midnightblue" points="482.464,-15.5403 472.143,-17.9334 481.703,-22.4989 482.464,-15.5403"/>
</g>
<!-- Node27 -->
<g id="node28" class="node"><title>Node27</title>
<polygon fill="white" stroke="#bfbfbf" points="1267.95,-0.5 1267.95,-18.5 1374.55,-18.5 1374.55,-0.5 1267.95,-0.5"/>
<text text-anchor="middle" x="1321.25" y="-6.5" font-family="Helvetica,sans-Serif" font-size="10.00">yarp/os/RpcServer.h</text>
</g>
<!-- Node18&#45;&gt;Node27 -->
<g id="edge34" class="edge"><title>Node18&#45;&gt;Node27</title>
<path fill="none" stroke="midnightblue" d="M1014.74,-60.4756C1023.72,-58.5919 1033.32,-56.6534 1042.25,-55 1115.92,-41.364 1201,-28.1581 1257.65,-19.7235"/>
<polygon fill="midnightblue" stroke="midnightblue" points="1258.51,-23.1344 1267.89,-18.205 1257.49,-16.2101 1258.51,-23.1344"/>
</g>
<!-- Node28 -->
<g id="node29" class="node"><title>Node28</title>
<polygon fill="white" stroke="#bfbfbf" points="1392.88,-0.5 1392.88,-18.5 1535.63,-18.5 1535.63,-0.5 1392.88,-0.5"/>
<text text-anchor="middle" x="1464.25" y="-6.5" font-family="Helvetica,sans-Serif" font-size="10.00">yarp/os/ConnectionReader.h</text>
</g>
<!-- Node18&#45;&gt;Node28 -->
<g id="edge35" class="edge"><title>Node18&#45;&gt;Node28</title>
<path fill="none" stroke="midnightblue" d="M1013.01,-60.49C1022.46,-58.4978 1032.72,-56.5042 1042.25,-55 1044.34,-54.6707 1260.47,-31.9275 1382.57,-19.0878"/>
<polygon fill="midnightblue" stroke="midnightblue" points="1383.05,-22.5558 1392.63,-18.0292 1382.32,-15.5942 1383.05,-22.5558"/>
</g>
<!-- Node29 -->
<g id="node30" class="node"><title>Node29</title>
<polygon fill="white" stroke="#bfbfbf" points="1553.77,-0.5 1553.77,-18.5 1650.74,-18.5 1650.74,-0.5 1553.77,-0.5"/>
<text text-anchor="middle" x="1602.25" y="-6.5" font-family="Helvetica,sans-Serif" font-size="10.00">yarp/os/Property.h</text>
</g>
<!-- Node18&#45;&gt;Node29 -->
<g id="edge39" class="edge"><title>Node18&#45;&gt;Node29</title>
<path fill="none" stroke="midnightblue" d="M1011.98,-60.4872C1021.7,-58.4221 1032.36,-56.3919 1042.25,-55 1260.51,-24.3003 1320.15,-42.6767 1543.48,-18.9885"/>
<polygon fill="midnightblue" stroke="midnightblue" points="1543.98,-22.4547 1553.55,-17.9038 1543.24,-15.4949 1543.98,-22.4547"/>
</g>
<!-- Node30 -->
<g id="node31" class="node"><title>Node30</title>
<polygon fill="white" stroke="#bfbfbf" points="1668.58,-0.5 1668.58,-18.5 1757.93,-18.5 1757.93,-0.5 1668.58,-0.5"/>
<text text-anchor="middle" x="1713.25" y="-6.5" font-family="Helvetica,sans-Serif" font-size="10.00">yarp/sig/Matrix.h</text>
</g>
<!-- Node18&#45;&gt;Node30 -->
<g id="edge41" class="edge"><title>Node18&#45;&gt;Node30</title>
<path fill="none" stroke="midnightblue" d="M1011.64,-60.4726C1021.45,-58.3813 1032.24,-56.3411 1042.25,-55 1311.19,-18.9957 1384.36,-47.6726 1658.26,-18.9787"/>
<polygon fill="midnightblue" stroke="midnightblue" points="1658.94,-22.4269 1668.51,-17.8884 1658.19,-15.4662 1658.94,-22.4269"/>
</g>
<!-- Node31 -->
<g id="node32" class="node"><title>Node31</title>
<polygon fill="white" stroke="#bfbfbf" points="1775.62,-0.5 1775.62,-18.5 1848.88,-18.5 1848.88,-0.5 1775.62,-0.5"/>
<text text-anchor="middle" x="1812.25" y="-6.5" font-family="Helvetica,sans-Serif" font-size="10.00">Eigen/Dense</text>
</g>
<!-- Node18&#45;&gt;Node31 -->
<g id="edge44" class="edge"><title>Node18&#45;&gt;Node31</title>
<path fill="none" stroke="midnightblue" d="M1011.3,-60.4877C1021.2,-58.3703 1032.12,-56.3122 1042.25,-55 1358.92,-14.0015 1445.12,-56.1472 1765.45,-19.0498"/>
<polygon fill="midnightblue" stroke="midnightblue" points="1765.96,-22.5143 1775.48,-17.8711 1765.14,-15.5621 1765.96,-22.5143"/>
</g>
<!-- Node32 -->
<g id="node33" class="node"><title>Node32</title>
<polygon fill="white" stroke="#bfbfbf" points="1866.85,-0.5 1866.85,-18.5 1935.66,-18.5 1935.66,-0.5 1866.85,-0.5"/>
<text text-anchor="middle" x="1901.25" y="-6.5" font-family="Helvetica,sans-Serif" font-size="10.00">Eigen/Lgsm</text>
</g>
<!-- Node18&#45;&gt;Node32 -->
<g id="edge45" class="edge"><title>Node18&#45;&gt;Node32</title>
<path fill="none" stroke="midnightblue" d="M1011.3,-60.4524C1021.19,-58.334 1032.11,-56.2842 1042.25,-55 1399.05,-9.80746 1496.03,-61.3485 1856.4,-19.0323"/>
<polygon fill="midnightblue" stroke="midnightblue" points="1857.08,-22.4765 1866.59,-17.8187 1856.25,-15.5256 1857.08,-22.4765"/>
</g>
<!-- Node35&#45;&gt;Node6 -->
<g id="edge59" class="edge"><title>Node35&#45;&gt;Node6</title>
<path fill="none" stroke="midnightblue" d="M1147.47,-340.45C1092.59,-331.006 1001.64,-315.355 942.836,-305.237"/>
<polygon fill="midnightblue" stroke="midnightblue" points="943.415,-301.785 932.967,-303.538 942.228,-308.684 943.415,-301.785"/>
</g>
<!-- Node35&#45;&gt;Node33 -->
<g id="edge61" class="edge"><title>Node35&#45;&gt;Node33</title>
<path fill="none" stroke="midnightblue" d="M1220.83,-340.45C1250.73,-331.396 1299.46,-316.638 1332.87,-306.519"/>
<polygon fill="midnightblue" stroke="midnightblue" points="1334.16,-309.787 1342.71,-303.538 1332.13,-303.087 1334.16,-309.787"/>
</g>
<!-- Node36 -->
<g id="node37" class="node"><title>Node36</title>
<polygon fill="white" stroke="#bfbfbf" points="1118.3,-285.5 1118.3,-303.5 1276.21,-303.5 1276.21,-285.5 1118.3,-285.5"/>
<text text-anchor="middle" x="1197.25" y="-291.5" font-family="Helvetica,sans-Serif" font-size="10.00">ocra&#45;recipes/TrajectoryThread.h</text>
</g>
<!-- Node35&#45;&gt;Node36 -->
<g id="edge60" class="edge"><title>Node35&#45;&gt;Node36</title>
<path fill="none" stroke="midnightblue" d="M1194.72,-340.219C1195.12,-333.177 1195.71,-322.808 1196.22,-313.828"/>
<polygon fill="midnightblue" stroke="midnightblue" points="1199.73,-313.731 1196.8,-303.55 1192.74,-313.336 1199.73,-313.731"/>
</g>
</g>
</svg>
