<?xml version="1.0" encoding="UTF-8" standalone="no"?>
<!DOCTYPE svg PUBLIC "-//W3C//DTD SVG 1.1//EN"
 "http://www.w3.org/Graphics/SVG/1.1/DTD/svg11.dtd">
<!-- Generated by graphviz version 2.38.0 (20140413.2041)
 -->
<!-- Title: /Users/jorhabibeljaik/Code/codyco&#45;superbuild/main/ocra&#45;wbi&#45;plugins/ocra&#45;icub&#45;server/src/main.cpp Pages: 1 -->
<svg width="2639pt" height="472pt"
 viewBox="0.00 0.00 2639.14 472.00" xmlns="http://www.w3.org/2000/svg" xmlns:xlink="http://www.w3.org/1999/xlink">
<g id="graph0" class="graph" transform="scale(1 1) rotate(0) translate(4 468)">
<title>/Users/jorhabibeljaik/Code/codyco&#45;superbuild/main/ocra&#45;wbi&#45;plugins/ocra&#45;icub&#45;server/src/main.cpp</title>
<polygon fill="white" stroke="none" points="-4,4 -4,-468 2635.14,-468 2635.14,4 -4,4"/>
<!-- Node0 -->
<g id="node1" class="node"><title>Node0</title>
<polygon fill="#bfbfbf" stroke="black" points="68.0122,-415.5 68.0122,-463.5 218.495,-463.5 218.495,-415.5 68.0122,-415.5"/>
<text text-anchor="start" x="76.0122" y="-451.5" font-family="Helvetica,sans-Serif" font-size="10.00">/Users/jorhabibeljaik</text>
<text text-anchor="start" x="76.0122" y="-441.5" font-family="Helvetica,sans-Serif" font-size="10.00">/Code/codyco&#45;superbuild</text>
<text text-anchor="start" x="76.0122" y="-431.5" font-family="Helvetica,sans-Serif" font-size="10.00">/main/ocra&#45;wbi&#45;plugins</text>
<text text-anchor="middle" x="143.253" y="-421.5" font-family="Helvetica,sans-Serif" font-size="10.00">/ocra&#45;icub&#45;server/src/main.cpp</text>
</g>
<!-- Node1 -->
<g id="node2" class="node"><title>Node1</title>
<polygon fill="white" stroke="#bfbfbf" points="0,-0.5 0,-18.5 130.507,-18.5 130.507,-0.5 0,-0.5"/>
<text text-anchor="middle" x="65.2534" y="-6.5" font-family="Helvetica,sans-Serif" font-size="10.00">yarp/os/ResourceFinder.h</text>
</g>
<!-- Node0&#45;&gt;Node1 -->
<g id="edge1" class="edge"><title>Node0&#45;&gt;Node1</title>
<path fill="none" stroke="midnightblue" d="M91.579,-415.242C75.7642,-405.944 59.5746,-393.862 48.2534,-379 30.4023,-355.566 29.2534,-344.958 29.2534,-315.5 29.2534,-315.5 29.2534,-315.5 29.2534,-128.5 29.2534,-91.3351 45.7928,-50.3393 56.4504,-27.7804"/>
<polygon fill="midnightblue" stroke="midnightblue" points="59.7222,-29.0578 60.9824,-18.5381 53.4371,-25.9759 59.7222,-29.0578"/>
</g>
<!-- Node2 -->
<g id="node3" class="node"><title>Node2</title>
<polygon fill="white" stroke="#bfbfbf" points="56.9604,-360.5 56.9604,-378.5 153.546,-378.5 153.546,-360.5 56.9604,-360.5"/>
<text text-anchor="middle" x="105.253" y="-366.5" font-family="Helvetica,sans-Serif" font-size="10.00">yarp/os/Network.h</text>
</g>
<!-- Node0&#45;&gt;Node2 -->
<g id="edge2" class="edge"><title>Node0&#45;&gt;Node2</title>
<path fill="none" stroke="midnightblue" d="M130.388,-415.478C125.25,-406.284 119.442,-395.89 114.704,-387.412"/>
<polygon fill="midnightblue" stroke="midnightblue" points="117.672,-385.548 109.738,-378.526 111.561,-388.962 117.672,-385.548"/>
</g>
<!-- Node3 -->
<g id="node4" class="node"><title>Node3</title>
<polygon fill="white" stroke="#bfbfbf" points="183.956,-0.5 183.956,-18.5 260.551,-18.5 260.551,-0.5 183.956,-0.5"/>
<text text-anchor="middle" x="222.253" y="-6.5" font-family="Helvetica,sans-Serif" font-size="10.00">yarp/os/Log.h</text>
</g>
<!-- Node0&#45;&gt;Node3 -->
<g id="edge3" class="edge"><title>Node0&#45;&gt;Node3</title>
<path fill="none" stroke="midnightblue" d="M155.069,-415.122C166.224,-390.856 181.253,-351.484 181.253,-315.5 181.253,-315.5 181.253,-315.5 181.253,-128.5 181.253,-90.8857 200.072,-50.0769 212.211,-27.6667"/>
<polygon fill="midnightblue" stroke="midnightblue" points="215.378,-29.1748 217.226,-18.7424 209.276,-25.7453 215.378,-29.1748"/>
</g>
<!-- Node4 -->
<g id="node5" class="node"><title>Node4</title>
<g id="a_node5"><a xlink:href="Module_8h.html" target="_top" xlink:title="Module class for the controller server. ">
<polygon fill="white" stroke="black" points="316.175,-360.5 316.175,-378.5 448.332,-378.5 448.332,-360.5 316.175,-360.5"/>
<text text-anchor="middle" x="382.253" y="-366.5" font-family="Helvetica,sans-Serif" font-size="10.00">ocra&#45;icub&#45;server/Module.h</text>
</a>
</g>
</g>
<!-- Node0&#45;&gt;Node4 -->
<g id="edge4" class="edge"><title>Node0&#45;&gt;Node4</title>
<path fill="none" stroke="midnightblue" d="M218.546,-417.078C260.334,-405.188 310.518,-390.91 344.213,-381.323"/>
<polygon fill="midnightblue" stroke="midnightblue" points="345.452,-384.61 354.113,-378.507 343.537,-377.877 345.452,-384.61"/>
</g>
<!-- Node5 -->
<g id="node6" class="node"><title>Node5</title>
<polygon fill="white" stroke="#bfbfbf" points="278.081,-0.5 278.081,-18.5 332.426,-18.5 332.426,-0.5 278.081,-0.5"/>
<text text-anchor="middle" x="305.253" y="-6.5" font-family="Helvetica,sans-Serif" font-size="10.00">iostream</text>
</g>
<!-- Node4&#45;&gt;Node5 -->
<g id="edge5" class="edge"><title>Node4&#45;&gt;Node5</title>
<path fill="none" stroke="midnightblue" d="M339.682,-360.489C314.433,-354.025 283.021,-342.814 260.253,-324 232.902,-301.398 219.253,-290.981 219.253,-255.5 219.253,-255.5 219.253,-255.5 219.253,-128.5 219.253,-84.055 259.592,-45.1402 285.016,-25.0277"/>
<polygon fill="midnightblue" stroke="midnightblue" points="287.462,-27.5638 293.295,-18.7195 283.22,-21.9957 287.462,-27.5638"/>
</g>
<!-- Node6 -->
<g id="node7" class="node"><title>Node6</title>
<polygon fill="white" stroke="#bfbfbf" points="350.197,-0.5 350.197,-18.5 402.31,-18.5 402.31,-0.5 350.197,-0.5"/>
<text text-anchor="middle" x="376.253" y="-6.5" font-family="Helvetica,sans-Serif" font-size="10.00">memory</text>
</g>
<!-- Node4&#45;&gt;Node6 -->
<g id="edge6" class="edge"><title>Node4&#45;&gt;Node6</title>
<path fill="none" stroke="midnightblue" d="M341.393,-360.481C319.223,-354.124 293.004,-343.024 276.253,-324 255.375,-300.288 257.253,-287.094 257.253,-255.5 257.253,-255.5 257.253,-255.5 257.253,-128.5 257.253,-94.7595 254.452,-80.7509 276.253,-55 285.305,-44.3093 317.096,-31.1733 342.434,-21.9542"/>
<polygon fill="midnightblue" stroke="midnightblue" points="343.87,-25.1582 352.115,-18.5048 341.521,-18.5643 343.87,-25.1582"/>
</g>
<!-- Node7 -->
<g id="node8" class="node"><title>Node7</title>
<polygon fill="white" stroke="#bfbfbf" points="285.689,-305.5 285.689,-323.5 342.817,-323.5 342.817,-305.5 285.689,-305.5"/>
<text text-anchor="middle" x="314.253" y="-311.5" font-family="Helvetica,sans-Serif" font-size="10.00">algorithm</text>
</g>
<!-- Node4&#45;&gt;Node7 -->
<g id="edge7" class="edge"><title>Node4&#45;&gt;Node7</title>
<path fill="none" stroke="midnightblue" d="M371.926,-360.45C361.541,-352.357 345.308,-339.704 332.706,-329.882"/>
<polygon fill="midnightblue" stroke="midnightblue" points="334.717,-327.012 324.678,-323.625 330.414,-332.533 334.717,-327.012"/>
</g>
<!-- Node8 -->
<g id="node9" class="node"><title>Node8</title>
<polygon fill="white" stroke="#bfbfbf" points="361.189,-305.5 361.189,-323.5 403.317,-323.5 403.317,-305.5 361.189,-305.5"/>
<text text-anchor="middle" x="382.253" y="-311.5" font-family="Helvetica,sans-Serif" font-size="10.00">locale</text>
</g>
<!-- Node4&#45;&gt;Node8 -->
<g id="edge8" class="edge"><title>Node4&#45;&gt;Node8</title>
<path fill="none" stroke="midnightblue" d="M382.253,-360.219C382.253,-353.177 382.253,-342.808 382.253,-333.828"/>
<polygon fill="midnightblue" stroke="midnightblue" points="385.754,-333.55 382.253,-323.55 378.754,-333.55 385.754,-333.55"/>
</g>
<!-- Node9 -->
<g id="node10" class="node"><title>Node9</title>
<polygon fill="white" stroke="#bfbfbf" points="421.234,-305.5 421.234,-323.5 527.273,-323.5 527.273,-305.5 421.234,-305.5"/>
<text text-anchor="middle" x="474.253" y="-311.5" font-family="Helvetica,sans-Serif" font-size="10.00">yarp/os/RFModule.h</text>
</g>
<!-- Node4&#45;&gt;Node9 -->
<g id="edge9" class="edge"><title>Node4&#45;&gt;Node9</title>
<path fill="none" stroke="midnightblue" d="M396.226,-360.45C410.816,-352.045 433.94,-338.724 451.233,-328.762"/>
<polygon fill="midnightblue" stroke="midnightblue" points="453.231,-331.65 460.149,-323.625 449.737,-325.584 453.231,-331.65"/>
</g>
<!-- Node10 -->
<g id="node11" class="node"><title>Node10</title>
<polygon fill="white" stroke="#bfbfbf" points="284.943,-55.5 284.943,-83.5 421.563,-83.5 421.563,-55.5 284.943,-55.5"/>
<text text-anchor="start" x="292.943" y="-71.5" font-family="Helvetica,sans-Serif" font-size="10.00">yarpWholeBodyInterface</text>
<text text-anchor="middle" x="353.253" y="-61.5" font-family="Helvetica,sans-Serif" font-size="10.00">/yarpWholeBodyInterface.h</text>
</g>
<!-- Node4&#45;&gt;Node10 -->
<g id="edge10" class="edge"><title>Node4&#45;&gt;Node10</title>
<path fill="none" stroke="midnightblue" d="M448.424,-363.252C501.585,-356.349 563.27,-340.588 536.253,-305 500.262,-257.59 449.206,-311.227 407.253,-269 359.41,-220.843 352.843,-134.77 352.634,-93.6317"/>
<polygon fill="midnightblue" stroke="midnightblue" points="356.134,-93.5395 352.71,-83.5135 349.135,-93.487 356.134,-93.5395"/>
</g>
<!-- Node11 -->
<g id="node12" class="node"><title>Node11</title>
<g id="a_node12"><a xlink:href="Thread_8h.html" target="_top" xlink:title="The thread class for the controller server. ">
<polygon fill="white" stroke="black" points="1109.73,-305.5 1109.73,-323.5 1240.78,-323.5 1240.78,-305.5 1109.73,-305.5"/>
<text text-anchor="middle" x="1175.25" y="-311.5" font-family="Helvetica,sans-Serif" font-size="10.00">ocra&#45;icub&#45;server/Thread.h</text>
</a>
</g>
</g>
<!-- Node4&#45;&gt;Node11 -->
<g id="edge11" class="edge"><title>Node4&#45;&gt;Node11</title>
<path fill="none" stroke="midnightblue" d="M448.5,-364.072C594.691,-354.302 944.202,-330.942 1099.11,-320.589"/>
<polygon fill="midnightblue" stroke="midnightblue" points="1099.73,-324.055 1109.47,-319.896 1099.26,-317.071 1099.73,-324.055"/>
</g>
<!-- Node22 -->
<g id="node23" class="node"><title>Node22</title>
<g id="a_node23"><a xlink:href="Utilities_8h.html" target="_top" xlink:title="Some useful tools for the ocra&#45;icub lib. ">
<polygon fill="white" stroke="black" points="1133.02,-60.5 1133.02,-78.5 1233.49,-78.5 1233.49,-60.5 1133.02,-60.5"/>
<text text-anchor="middle" x="1183.25" y="-66.5" font-family="Helvetica,sans-Serif" font-size="10.00">ocra&#45;icub/Utilities.h</text>
</a>
</g>
</g>
<!-- Node4&#45;&gt;Node22 -->
<g id="edge69" class="edge"><title>Node4&#45;&gt;Node22</title>
<path fill="none" stroke="midnightblue" d="M448.72,-368.482C682.269,-367.553 1451.25,-356.802 1451.25,-255.5 1451.25,-255.5 1451.25,-255.5 1451.25,-188.5 1451.25,-98.4907 1323.06,-76.5417 1244,-71.5643"/>
<polygon fill="midnightblue" stroke="midnightblue" points="1243.84,-68.0503 1233.66,-70.9919 1243.45,-75.0396 1243.84,-68.0503"/>
</g>
<!-- Node11&#45;&gt;Node10 -->
<g id="edge12" class="edge"><title>Node11&#45;&gt;Node10</title>
<path fill="none" stroke="midnightblue" d="M1109.46,-313.719C938.142,-313.71 487.823,-309.766 435.253,-269 380.274,-226.365 417.938,-182.442 387.253,-120 382.476,-110.278 375.975,-100.293 369.937,-91.8603"/>
<polygon fill="midnightblue" stroke="midnightblue" points="372.668,-89.6657 363.905,-83.7107 367.041,-93.8306 372.668,-89.6657"/>
</g>
<!-- Node12 -->
<g id="node13" class="node"><title>Node12</title>
<polygon fill="white" stroke="#bfbfbf" points="420.689,-0.5 420.689,-18.5 477.817,-18.5 477.817,-0.5 420.689,-0.5"/>
<text text-anchor="middle" x="449.253" y="-6.5" font-family="Helvetica,sans-Serif" font-size="10.00">wbi/wbi.h</text>
</g>
<!-- Node11&#45;&gt;Node12 -->
<g id="edge13" class="edge"><title>Node11&#45;&gt;Node12</title>
<path fill="none" stroke="midnightblue" d="M1109.55,-309.25C930.834,-296.818 449.253,-257.135 449.253,-190.5 449.253,-190.5 449.253,-190.5 449.253,-128.5 449.253,-93.099 449.253,-51.724 449.253,-28.5706"/>
<polygon fill="midnightblue" stroke="midnightblue" points="452.754,-28.5122 449.253,-18.5123 445.754,-28.5123 452.754,-28.5122"/>
</g>
<!-- Node13 -->
<g id="node14" class="node"><title>Node13</title>
<g id="a_node14"><a xlink:href="IcubControllerServer_8h.html" target="_top" xlink:title="ocra&#45;icub&#45;server/IcubController\lServer.h">
<polygon fill="white" stroke="black" points="715.618,-240.5 715.618,-268.5 868.889,-268.5 868.889,-240.5 715.618,-240.5"/>
<text text-anchor="start" x="723.618" y="-256.5" font-family="Helvetica,sans-Serif" font-size="10.00">ocra&#45;icub&#45;server/IcubController</text>
<text text-anchor="middle" x="792.253" y="-246.5" font-family="Helvetica,sans-Serif" font-size="10.00">Server.h</text>
</a>
</g>
</g>
<!-- Node11&#45;&gt;Node13 -->
<g id="edge14" class="edge"><title>Node11&#45;&gt;Node13</title>
<path fill="none" stroke="midnightblue" d="M1122.4,-305.496C1059.56,-295.979 953.772,-279.96 878.902,-268.622"/>
<polygon fill="midnightblue" stroke="midnightblue" points="879.422,-265.161 869.011,-267.124 878.374,-272.082 879.422,-265.161"/>
</g>
<!-- Node11&#45;&gt;Node22 -->
<g id="edge60" class="edge"><title>Node11&#45;&gt;Node22</title>
<path fill="none" stroke="midnightblue" d="M1175.52,-305.415C1176.64,-271.259 1181.02,-138.29 1182.64,-89.0093"/>
<polygon fill="midnightblue" stroke="midnightblue" points="1186.15,-88.9744 1182.98,-78.8646 1179.15,-88.744 1186.15,-88.9744"/>
</g>
<!-- Node24 -->
<g id="node25" class="node"><title>Node24</title>
<polygon fill="white" stroke="#bfbfbf" points="881.027,-0.5 881.027,-18.5 921.48,-18.5 921.48,-0.5 881.027,-0.5"/>
<text text-anchor="middle" x="901.253" y="-6.5" font-family="Helvetica,sans-Serif" font-size="10.00">string</text>
</g>
<!-- Node11&#45;&gt;Node24 -->
<g id="edge67" class="edge"><title>Node11&#45;&gt;Node24</title>
<path fill="none" stroke="midnightblue" d="M1179.22,-305.206C1183.17,-296.442 1188.97,-282.102 1191.25,-269 1198.91,-225.082 1186.51,-207.743 1156.25,-175 1088.21,-101.36 980.408,-46.2972 929.565,-22.8884"/>
<polygon fill="midnightblue" stroke="midnightblue" points="930.737,-19.5769 920.185,-18.6325 927.845,-25.9515 930.737,-19.5769"/>
</g>
<!-- Node25 -->
<g id="node26" class="node"><title>Node25</title>
<polygon fill="white" stroke="#bfbfbf" points="2090.47,-0.5 2090.47,-18.5 2142.03,-18.5 2142.03,-0.5 2090.47,-0.5"/>
<text text-anchor="middle" x="2116.25" y="-6.5" font-family="Helvetica,sans-Serif" font-size="10.00">sstream</text>
</g>
<!-- Node11&#45;&gt;Node25 -->
<g id="edge66" class="edge"><title>Node11&#45;&gt;Node25</title>
<path fill="none" stroke="midnightblue" d="M1186.5,-305.365C1209.81,-287.457 1261.25,-242.091 1261.25,-190.5 1261.25,-190.5 1261.25,-190.5 1261.25,-128.5 1261.25,-94.1359 1257.9,-75.8018 1285.25,-55 1353.59,-3.02912 1955.5,-29.7595 2080.12,-18.5411"/>
<polygon fill="midnightblue" stroke="midnightblue" points="2080.83,-21.9837 2090.37,-17.376 2080.04,-15.0285 2080.83,-21.9837"/>
</g>
<!-- Node27 -->
<g id="node28" class="node"><title>Node27</title>
<polygon fill="white" stroke="#bfbfbf" points="2160.51,-0.5 2160.51,-18.5 2245.99,-18.5 2245.99,-0.5 2160.51,-0.5"/>
<text text-anchor="middle" x="2203.25" y="-6.5" font-family="Helvetica,sans-Serif" font-size="10.00">yarp/os/Bottle.h</text>
</g>
<!-- Node11&#45;&gt;Node27 -->
<g id="edge62" class="edge"><title>Node11&#45;&gt;Node27</title>
<path fill="none" stroke="midnightblue" d="M1194.09,-305.452C1228.77,-289.214 1299.25,-249.022 1299.25,-190.5 1299.25,-190.5 1299.25,-190.5 1299.25,-128.5 1299.25,-94.1359 1295.88,-75.7779 1323.25,-55 1394.45,-0.951661 2021.31,-26.8107 2150.18,-18.735"/>
<polygon fill="midnightblue" stroke="midnightblue" points="2150.77,-22.1988 2160.46,-17.9079 2150.21,-15.2213 2150.77,-22.1988"/>
</g>
<!-- Node31 -->
<g id="node32" class="node"><title>Node31</title>
<polygon fill="white" stroke="#bfbfbf" points="2263.95,-0.5 2263.95,-18.5 2370.55,-18.5 2370.55,-0.5 2263.95,-0.5"/>
<text text-anchor="middle" x="2317.25" y="-6.5" font-family="Helvetica,sans-Serif" font-size="10.00">yarp/os/RpcServer.h</text>
</g>
<!-- Node11&#45;&gt;Node31 -->
<g id="edge63" class="edge"><title>Node11&#45;&gt;Node31</title>
<path fill="none" stroke="midnightblue" d="M1205.72,-305.44C1252.65,-290.972 1337.25,-255.829 1337.25,-190.5 1337.25,-190.5 1337.25,-190.5 1337.25,-128.5 1337.25,-94.1359 1333.85,-75.7341 1361.25,-55 1399.34,-26.1801 2144.03,-23.5512 2253.72,-18.7501"/>
<polygon fill="midnightblue" stroke="midnightblue" points="2254.08,-22.2349 2263.86,-18.1519 2253.67,-15.2471 2254.08,-22.2349"/>
</g>
<!-- Node32 -->
<g id="node33" class="node"><title>Node32</title>
<polygon fill="white" stroke="#bfbfbf" points="2388.88,-0.5 2388.88,-18.5 2531.63,-18.5 2531.63,-0.5 2388.88,-0.5"/>
<text text-anchor="middle" x="2460.25" y="-6.5" font-family="Helvetica,sans-Serif" font-size="10.00">yarp/os/ConnectionReader.h</text>
</g>
<!-- Node11&#45;&gt;Node32 -->
<g id="edge64" class="edge"><title>Node11&#45;&gt;Node32</title>
<path fill="none" stroke="midnightblue" d="M1224.18,-305.446C1283.39,-292.581 1375.25,-261.224 1375.25,-190.5 1375.25,-190.5 1375.25,-190.5 1375.25,-128.5 1375.25,-94.1359 1371.81,-75.6857 1399.25,-55 1441.19,-23.3897 2262.25,-22.8425 2378.68,-18.7493"/>
<polygon fill="midnightblue" stroke="midnightblue" points="2378.9,-22.2428 2388.72,-18.2722 2378.57,-15.2507 2378.9,-22.2428"/>
</g>
<!-- Node33 -->
<g id="node34" class="node"><title>Node33</title>
<polygon fill="white" stroke="#bfbfbf" points="2549.37,-0.5 2549.37,-18.5 2631.14,-18.5 2631.14,-0.5 2549.37,-0.5"/>
<text text-anchor="middle" x="2590.25" y="-6.5" font-family="Helvetica,sans-Serif" font-size="10.00">yarp/os/Time.h</text>
</g>
<!-- Node11&#45;&gt;Node33 -->
<g id="edge65" class="edge"><title>Node11&#45;&gt;Node33</title>
<path fill="none" stroke="midnightblue" d="M1240.92,-307.496C1311.36,-297.022 1413.25,-268.406 1413.25,-190.5 1413.25,-190.5 1413.25,-190.5 1413.25,-128.5 1413.25,-5.45253 2371.98,-34.2654 2539.3,-18.808"/>
<polygon fill="midnightblue" stroke="midnightblue" points="2539.8,-22.2737 2549.36,-17.6969 2539.04,-15.3161 2539.8,-22.2737"/>
</g>
<!-- Node39 -->
<g id="node40" class="node"><title>Node39</title>
<polygon fill="white" stroke="#bfbfbf" points="877.145,-175.5 877.145,-203.5 1011.36,-203.5 1011.36,-175.5 877.145,-175.5"/>
<text text-anchor="start" x="885.145" y="-191.5" font-family="Helvetica,sans-Serif" font-size="10.00">iDynTree/Estimation</text>
<text text-anchor="middle" x="944.253" y="-181.5" font-family="Helvetica,sans-Serif" font-size="10.00">/SimpleLeggedOdometry.h</text>
</g>
<!-- Node11&#45;&gt;Node39 -->
<g id="edge68" class="edge"><title>Node11&#45;&gt;Node39</title>
<path fill="none" stroke="midnightblue" d="M1160.1,-305.43C1123.34,-285.857 1028.74,-235.488 977.849,-208.389"/>
<polygon fill="midnightblue" stroke="midnightblue" points="979.35,-205.223 968.879,-203.612 976.06,-211.401 979.35,-205.223"/>
</g>
<!-- Node40 -->
<g id="node41" class="node"><title>Node40</title>
<polygon fill="white" stroke="#bfbfbf" points="1029.12,-180.5 1029.12,-198.5 1147.39,-198.5 1147.39,-180.5 1029.12,-180.5"/>
<text text-anchor="middle" x="1088.25" y="-186.5" font-family="Helvetica,sans-Serif" font-size="10.00">ocra/util/ErrorsHelper.h</text>
</g>
<!-- Node11&#45;&gt;Node40 -->
<g id="edge61" class="edge"><title>Node11&#45;&gt;Node40</title>
<path fill="none" stroke="midnightblue" d="M1169.55,-305.43C1155.48,-285.541 1118.92,-233.851 1099.99,-207.093"/>
<polygon fill="midnightblue" stroke="midnightblue" points="1102.73,-204.904 1094.1,-198.761 1097.01,-208.947 1102.73,-204.904"/>
</g>
<!-- Node13&#45;&gt;Node12 -->
<g id="edge15" class="edge"><title>Node13&#45;&gt;Node12</title>
<path fill="none" stroke="midnightblue" d="M715.465,-249.266C641.469,-243.63 536.418,-231.028 506.253,-204 454.92,-158.005 483.153,-120.99 463.253,-55 460.587,-46.1579 457.518,-36.3636 454.935,-28.2198"/>
<polygon fill="midnightblue" stroke="midnightblue" points="458.266,-27.1468 451.892,-18.6837 451.597,-29.2744 458.266,-27.1468"/>
</g>
<!-- Node14 -->
<g id="node15" class="node"><title>Node14</title>
<polygon fill="white" stroke="#bfbfbf" points="515.057,-180.5 515.057,-198.5 669.45,-198.5 669.45,-180.5 515.057,-180.5"/>
<text text-anchor="middle" x="592.253" y="-186.5" font-family="Helvetica,sans-Serif" font-size="10.00">ocra&#45;recipes/ControllerServer.h</text>
</g>
<!-- Node13&#45;&gt;Node14 -->
<g id="edge16" class="edge"><title>Node13&#45;&gt;Node14</title>
<path fill="none" stroke="midnightblue" d="M750.813,-240.446C714.365,-228.965 661.892,-212.436 627.444,-201.585"/>
<polygon fill="midnightblue" stroke="midnightblue" points="628.392,-198.214 617.803,-198.548 626.289,-204.891 628.392,-198.214"/>
</g>
<!-- Node15 -->
<g id="node16" class="node"><title>Node15</title>
<polygon fill="white" stroke="#bfbfbf" points="495.623,-0.5 495.623,-18.5 568.884,-18.5 568.884,-0.5 495.623,-0.5"/>
<text text-anchor="middle" x="532.253" y="-6.5" font-family="Helvetica,sans-Serif" font-size="10.00">Eigen/Dense</text>
</g>
<!-- Node13&#45;&gt;Node15 -->
<g id="edge17" class="edge"><title>Node13&#45;&gt;Node15</title>
<path fill="none" stroke="midnightblue" d="M769.005,-240.3C753.437,-231.003 732.837,-217.797 716.253,-204 645.593,-145.213 574.008,-61.4094 545.32,-26.6085"/>
<polygon fill="midnightblue" stroke="midnightblue" points="547.731,-24.0274 538.688,-18.5056 542.314,-28.461 547.731,-24.0274"/>
</g>
<!-- Node16 -->
<g id="node17" class="node"><title>Node16</title>
<g id="a_node17"><a xlink:href="OcraWbiModel_8h.html" target="_top" xlink:title="Implementation of ocra::Model using wholeBodyInterface. ">
<polygon fill="white" stroke="black" points="725.066,-180.5 725.066,-198.5 859.44,-198.5 859.44,-180.5 725.066,-180.5"/>
<text text-anchor="middle" x="792.253" y="-186.5" font-family="Helvetica,sans-Serif" font-size="10.00">ocra&#45;icub/OcraWbiModel.h</text>
</a>
</g>
</g>
<!-- Node13&#45;&gt;Node16 -->
<g id="edge18" class="edge"><title>Node13&#45;&gt;Node16</title>
<path fill="none" stroke="midnightblue" d="M792.253,-240.446C792.253,-231.334 792.253,-219.041 792.253,-208.931"/>
<polygon fill="midnightblue" stroke="midnightblue" points="795.754,-208.73 792.253,-198.73 788.754,-208.73 795.754,-208.73"/>
</g>
<!-- Node13&#45;&gt;Node39 -->
<g id="edge58" class="edge"><title>Node13&#45;&gt;Node39</title>
<path fill="none" stroke="midnightblue" d="M823.748,-240.446C846.88,-230.859 878.505,-217.751 903.553,-207.369"/>
<polygon fill="midnightblue" stroke="midnightblue" points="904.901,-210.599 912.799,-203.537 902.221,-204.133 904.901,-210.599"/>
</g>
<!-- Node13&#45;&gt;Node40 -->
<g id="edge59" class="edge"><title>Node13&#45;&gt;Node40</title>
<path fill="none" stroke="midnightblue" d="M853.585,-240.446C909.033,-228.645 989.539,-211.51 1040.37,-200.69"/>
<polygon fill="midnightblue" stroke="midnightblue" points="1041.39,-204.053 1050.44,-198.548 1039.93,-197.206 1041.39,-204.053"/>
</g>
<!-- Node16&#45;&gt;Node3 -->
<g id="edge22" class="edge"><title>Node16&#45;&gt;Node3</title>
<path fill="none" stroke="midnightblue" d="M764.881,-180.45C733.743,-171.133 681.479,-155.009 637.253,-139 543.895,-105.206 525.16,-84.1636 430.253,-55 401.049,-46.0258 322.699,-30.0613 270.936,-19.8924"/>
<polygon fill="midnightblue" stroke="midnightblue" points="271.446,-16.426 260.96,-17.9397 270.101,-23.2956 271.446,-16.426"/>
</g>
<!-- Node16&#45;&gt;Node6 -->
<g id="edge19" class="edge"><title>Node16&#45;&gt;Node6</title>
<path fill="none" stroke="midnightblue" d="M761.12,-180.494C733.887,-172.601 693.994,-158.831 663.253,-139 618.622,-110.208 624.968,-80.2722 578.253,-55 514.211,-20.3538 487.48,-34.6485 412.501,-19.138"/>
<polygon fill="midnightblue" stroke="midnightblue" points="413.126,-15.692 402.609,-16.9782 411.633,-22.5309 413.126,-15.692"/>
</g>
<!-- Node16&#45;&gt;Node12 -->
<g id="edge21" class="edge"><title>Node16&#45;&gt;Node12</title>
<path fill="none" stroke="midnightblue" d="M767.419,-180.437C744.79,-172.307 711.191,-158.214 686.253,-139 647.757,-109.34 657.214,-81.1524 616.253,-55 605.379,-48.0571 533.737,-30.3571 487.888,-19.4881"/>
<polygon fill="midnightblue" stroke="midnightblue" points="488.502,-16.0369 477.966,-17.1468 486.895,-22.8498 488.502,-16.0369"/>
</g>
<!-- Node17 -->
<g id="node18" class="node"><title>Node17</title>
<polygon fill="white" stroke="#bfbfbf" points="586.953,-0.5 586.953,-18.5 693.554,-18.5 693.554,-0.5 586.953,-0.5"/>
<text text-anchor="middle" x="640.253" y="-6.5" font-family="Helvetica,sans-Serif" font-size="10.00">ocra/control/Model.h</text>
</g>
<!-- Node16&#45;&gt;Node17 -->
<g id="edge20" class="edge"><title>Node16&#45;&gt;Node17</title>
<path fill="none" stroke="midnightblue" d="M768.995,-180.368C749.134,-172.433 720.902,-158.67 702.253,-139 686.018,-121.875 659.605,-59.059 647.158,-28.052"/>
<polygon fill="midnightblue" stroke="midnightblue" points="650.323,-26.5386 643.377,-18.538 643.818,-29.1237 650.323,-26.5386"/>
</g>
<!-- Node18 -->
<g id="node19" class="node"><title>Node18</title>
<g id="a_node19"><a xlink:href="OcraWbiConversions_8h.html" target="_top" xlink:title="A utility class full of static conversion functions. ">
<polygon fill="white" stroke="black" points="710.894,-120.5 710.894,-138.5 873.613,-138.5 873.613,-120.5 710.894,-120.5"/>
<text text-anchor="middle" x="792.253" y="-126.5" font-family="Helvetica,sans-Serif" font-size="10.00">ocra&#45;icub/OcraWbiConversions.h</text>
</a>
</g>
</g>
<!-- Node16&#45;&gt;Node18 -->
<g id="edge23" class="edge"><title>Node16&#45;&gt;Node18</title>
<path fill="none" stroke="midnightblue" d="M792.253,-180.435C792.253,-172.389 792.253,-159.739 792.253,-149.185"/>
<polygon fill="midnightblue" stroke="midnightblue" points="795.754,-148.872 792.253,-138.872 788.754,-148.872 795.754,-148.872"/>
</g>
<!-- Node16&#45;&gt;Node22 -->
<g id="edge57" class="edge"><title>Node16&#45;&gt;Node22</title>
<path fill="none" stroke="midnightblue" d="M818.821,-180.482C887.087,-159.88 1068.74,-105.06 1146.78,-81.5064"/>
<polygon fill="midnightblue" stroke="midnightblue" points="1148.09,-84.7689 1156.65,-78.5289 1146.06,-78.0674 1148.09,-84.7689"/>
</g>
<!-- Node18&#45;&gt;Node3 -->
<g id="edge28" class="edge"><title>Node18&#45;&gt;Node3</title>
<path fill="none" stroke="midnightblue" d="M773.184,-120.389C736.274,-105.043 652.185,-71.7974 578.253,-55 446.587,-25.0853 407.823,-38.6374 270.738,-19.1191"/>
<polygon fill="midnightblue" stroke="midnightblue" points="271.095,-15.6343 260.695,-17.6556 270.086,-22.5611 271.095,-15.6343"/>
</g>
<!-- Node18&#45;&gt;Node5 -->
<g id="edge24" class="edge"><title>Node18&#45;&gt;Node5</title>
<path fill="none" stroke="midnightblue" d="M788.157,-120.292C779.765,-104.47 758.962,-69.9891 730.253,-55 655.927,-16.1941 442.229,-31.8336 342.806,-18.8812"/>
<polygon fill="midnightblue" stroke="midnightblue" points="343.094,-15.386 332.691,-17.395 342.076,-22.3116 343.094,-15.386"/>
</g>
<!-- Node18&#45;&gt;Node10 -->
<g id="edge30" class="edge"><title>Node18&#45;&gt;Node10</title>
<path fill="none" stroke="midnightblue" d="M731.673,-120.496C653.615,-110.183 517.765,-92.2351 431.834,-80.882"/>
<polygon fill="midnightblue" stroke="midnightblue" points="432.241,-77.4054 421.869,-79.5654 431.324,-84.3451 432.241,-77.4054"/>
</g>
<!-- Node18&#45;&gt;Node12 -->
<g id="edge29" class="edge"><title>Node18&#45;&gt;Node12</title>
<path fill="none" stroke="midnightblue" d="M792.227,-120.096C791.683,-104.557 788.113,-71.4269 768.253,-55 721.76,-16.543 563.576,-28.8189 487.978,-18.9217"/>
<polygon fill="midnightblue" stroke="midnightblue" points="488.295,-15.4293 477.879,-17.3704 487.232,-22.3482 488.295,-15.4293"/>
</g>
<!-- Node19 -->
<g id="node20" class="node"><title>Node19</title>
<polygon fill="white" stroke="#bfbfbf" points="820.527,-60.5 820.527,-78.5 855.98,-78.5 855.98,-60.5 820.527,-60.5"/>
<text text-anchor="middle" x="838.253" y="-66.5" font-family="Helvetica,sans-Serif" font-size="10.00">map</text>
</g>
<!-- Node18&#45;&gt;Node19 -->
<g id="edge25" class="edge"><title>Node18&#45;&gt;Node19</title>
<path fill="none" stroke="midnightblue" d="M798.65,-120.435C805.506,-111.79 816.579,-97.8292 825.275,-86.8643"/>
<polygon fill="midnightblue" stroke="midnightblue" points="828.142,-88.8816 831.614,-78.8718 822.658,-84.5319 828.142,-88.8816"/>
</g>
<!-- Node20 -->
<g id="node21" class="node"><title>Node20</title>
<polygon fill="white" stroke="#bfbfbf" points="711.638,-0.5 711.638,-18.5 754.869,-18.5 754.869,-0.5 711.638,-0.5"/>
<text text-anchor="middle" x="733.253" y="-6.5" font-family="Helvetica,sans-Serif" font-size="10.00">vector</text>
</g>
<!-- Node18&#45;&gt;Node20 -->
<g id="edge26" class="edge"><title>Node18&#45;&gt;Node20</title>
<path fill="none" stroke="midnightblue" d="M817.73,-120.384C834.498,-113.562 855.151,-101.989 865.253,-84 871.564,-72.7619 872.772,-65.4688 865.253,-55 862.194,-50.74 802.653,-31.8152 764.594,-20.0594"/>
<polygon fill="midnightblue" stroke="midnightblue" points="765.548,-16.6911 754.961,-17.0952 763.489,-23.3815 765.548,-16.6911"/>
</g>
<!-- Node21 -->
<g id="node22" class="node"><title>Node21</title>
<polygon fill="white" stroke="#bfbfbf" points="773.283,-0.5 773.283,-18.5 863.224,-18.5 863.224,-0.5 773.283,-0.5"/>
<text text-anchor="middle" x="818.253" y="-6.5" font-family="Helvetica,sans-Serif" font-size="10.00">yarp/sig/Vector.h</text>
</g>
<!-- Node18&#45;&gt;Node21 -->
<g id="edge27" class="edge"><title>Node18&#45;&gt;Node21</title>
<path fill="none" stroke="midnightblue" d="M841.185,-120.429C862.471,-114.225 885.437,-103.281 898.253,-84 905.389,-73.2662 904.787,-66.1103 898.253,-55 889.247,-39.684 872.85,-29.2585 857.235,-22.373"/>
<polygon fill="midnightblue" stroke="midnightblue" points="858.27,-19.0169 847.686,-18.5312 855.657,-25.511 858.27,-19.0169"/>
</g>
<!-- Node18&#45;&gt;Node22 -->
<g id="edge31" class="edge"><title>Node18&#45;&gt;Node22</title>
<path fill="none" stroke="midnightblue" d="M846.21,-120.496C918.64,-109.752 1046.94,-90.7206 1122.63,-79.4933"/>
<polygon fill="midnightblue" stroke="midnightblue" points="1123.57,-82.8921 1132.95,-77.9626 1122.54,-75.9679 1123.57,-82.8921"/>
</g>
<!-- Node22&#45;&gt;Node1 -->
<g id="edge41" class="edge"><title>Node22&#45;&gt;Node1</title>
<path fill="none" stroke="midnightblue" d="M1132.8,-66.2103C955.965,-58.1562 364.76,-30.9726 175.253,-19 164.091,-18.2948 152.297,-17.469 140.741,-16.6144"/>
<polygon fill="midnightblue" stroke="midnightblue" points="140.903,-13.1168 130.669,-15.8582 140.379,-20.0971 140.903,-13.1168"/>
</g>
<!-- Node22&#45;&gt;Node3 -->
<g id="edge47" class="edge"><title>Node22&#45;&gt;Node3</title>
<path fill="none" stroke="midnightblue" d="M1132.97,-66.1451C959.725,-57.9825 392.061,-30.8118 270.966,-18.9496"/>
<polygon fill="midnightblue" stroke="midnightblue" points="270.984,-15.4318 260.669,-17.8506 270.241,-22.3923 270.984,-15.4318"/>
</g>
<!-- Node22&#45;&gt;Node5 -->
<g id="edge34" class="edge"><title>Node22&#45;&gt;Node5</title>
<path fill="none" stroke="midnightblue" d="M1132.86,-66.0474C968.874,-57.9988 455.063,-32.2202 342.792,-18.8263"/>
<polygon fill="midnightblue" stroke="midnightblue" points="343.048,-15.3298 332.676,-17.4914 342.133,-22.2696 343.048,-15.3298"/>
</g>
<!-- Node22&#45;&gt;Node6 -->
<g id="edge32" class="edge"><title>Node22&#45;&gt;Node6</title>
<path fill="none" stroke="midnightblue" d="M1132.8,-66.4155C987.62,-60.2393 569.727,-41.1645 412.502,-18.8738"/>
<polygon fill="midnightblue" stroke="midnightblue" points="412.933,-15.3995 402.529,-17.401 411.91,-22.3244 412.933,-15.3995"/>
</g>
<!-- Node22&#45;&gt;Node12 -->
<g id="edge52" class="edge"><title>Node22&#45;&gt;Node12</title>
<path fill="none" stroke="midnightblue" d="M1132.59,-65.9247C997.474,-58.8974 629.733,-38.6906 488.057,-19.0074"/>
<polygon fill="midnightblue" stroke="midnightblue" points="488.251,-15.4991 477.853,-17.5309 487.249,-22.427 488.251,-15.4991"/>
</g>
<!-- Node22&#45;&gt;Node15 -->
<g id="edge55" class="edge"><title>Node22&#45;&gt;Node15</title>
<path fill="none" stroke="midnightblue" d="M1132.87,-66.1034C1030.5,-60.86 790.656,-46.6755 579.158,-18.9783"/>
<polygon fill="midnightblue" stroke="midnightblue" points="579.481,-15.4907 569.109,-17.6492 578.564,-22.4303 579.481,-15.4907"/>
</g>
<!-- Node22&#45;&gt;Node17 -->
<g id="edge53" class="edge"><title>Node22&#45;&gt;Node17</title>
<path fill="none" stroke="midnightblue" d="M1132.99,-63.8895C1047.2,-55.8975 866.758,-38.5543 703.88,-19.1608"/>
<polygon fill="midnightblue" stroke="midnightblue" points="704.018,-15.6524 693.673,-17.94 703.187,-22.6029 704.018,-15.6524"/>
</g>
<!-- Node22&#45;&gt;Node20 -->
<g id="edge36" class="edge"><title>Node22&#45;&gt;Node20</title>
<path fill="none" stroke="midnightblue" d="M1132.89,-65.0043C1055.68,-59.1084 903.355,-45.3581 765.101,-18.8763"/>
<polygon fill="midnightblue" stroke="midnightblue" points="765.657,-15.4188 755.173,-16.9475 764.322,-22.2903 765.657,-15.4188"/>
</g>
<!-- Node22&#45;&gt;Node21 -->
<g id="edge50" class="edge"><title>Node22&#45;&gt;Node21</title>
<path fill="none" stroke="midnightblue" d="M1132.88,-60.4962C1064.76,-49.6704 943.679,-30.4307 873.246,-19.2386"/>
<polygon fill="midnightblue" stroke="midnightblue" points="873.66,-15.7605 863.234,-17.6476 872.561,-22.6737 873.66,-15.7605"/>
</g>
<!-- Node23 -->
<g id="node24" class="node"><title>Node23</title>
<polygon fill="white" stroke="#bfbfbf" points="939.638,-0.5 939.638,-18.5 982.869,-18.5 982.869,-0.5 939.638,-0.5"/>
<text text-anchor="middle" x="961.253" y="-6.5" font-family="Helvetica,sans-Serif" font-size="10.00">cmath</text>
</g>
<!-- Node22&#45;&gt;Node23 -->
<g id="edge33" class="edge"><title>Node22&#45;&gt;Node23</title>
<path fill="none" stroke="midnightblue" d="M1151.79,-60.489C1115.82,-51.3017 1054.94,-35.6532 992.889,-19.1401"/>
<polygon fill="midnightblue" stroke="midnightblue" points="993.487,-15.6776 982.923,-16.4833 991.684,-22.4413 993.487,-15.6776"/>
</g>
<!-- Node22&#45;&gt;Node24 -->
<g id="edge35" class="edge"><title>Node22&#45;&gt;Node24</title>
<path fill="none" stroke="midnightblue" d="M1145.71,-60.4527C1137.03,-58.6273 1127.83,-56.7205 1119.25,-55 1038.53,-38.7991 1015.1,-39.0087 931.699,-19.1694"/>
<polygon fill="midnightblue" stroke="midnightblue" points="932.324,-15.7199 921.782,-16.7842 930.687,-22.5258 932.324,-15.7199"/>
</g>
<!-- Node22&#45;&gt;Node25 -->
<g id="edge37" class="edge"><title>Node22&#45;&gt;Node25</title>
<path fill="none" stroke="midnightblue" d="M1216.29,-60.4463C1226.19,-58.3278 1237.11,-56.2794 1247.25,-55 1612.02,-8.97443 1712.1,-69.9065 2080.23,-18.8075"/>
<polygon fill="midnightblue" stroke="midnightblue" points="2080.95,-22.2409 2090.37,-17.382 2079.98,-15.3091 2080.95,-22.2409"/>
</g>
<!-- Node26 -->
<g id="node27" class="node"><title>Node26</title>
<polygon fill="white" stroke="#bfbfbf" points="1001.31,-0.5 1001.31,-18.5 1117.19,-18.5 1117.19,-0.5 1001.31,-0.5"/>
<text text-anchor="middle" x="1059.25" y="-6.5" font-family="Helvetica,sans-Serif" font-size="10.00">yarp/os/BufferedPort.h</text>
</g>
<!-- Node22&#45;&gt;Node26 -->
<g id="edge38" class="edge"><title>Node22&#45;&gt;Node26</title>
<path fill="none" stroke="midnightblue" d="M1166.01,-60.4353C1145.31,-50.7508 1110.34,-34.3966 1086.1,-23.055"/>
<polygon fill="midnightblue" stroke="midnightblue" points="1087.29,-19.7497 1076.75,-18.6831 1084.32,-26.0904 1087.29,-19.7497"/>
</g>
<!-- Node22&#45;&gt;Node27 -->
<g id="edge39" class="edge"><title>Node22&#45;&gt;Node27</title>
<path fill="none" stroke="midnightblue" d="M1233.74,-60.9031C1250.14,-58.681 1268.44,-56.4595 1285.25,-55 1665.75,-21.9787 1766.31,-57.5252 2150.46,-18.929"/>
<polygon fill="midnightblue" stroke="midnightblue" points="2150.86,-22.4064 2160.46,-17.9144 2150.16,-15.4422 2150.86,-22.4064"/>
</g>
<!-- Node28 -->
<g id="node29" class="node"><title>Node28</title>
<polygon fill="white" stroke="#bfbfbf" points="1134.89,-0.5 1134.89,-18.5 1247.61,-18.5 1247.61,-0.5 1134.89,-0.5"/>
<text text-anchor="middle" x="1191.25" y="-6.5" font-family="Helvetica,sans-Serif" font-size="10.00">yarp/os/RateThread.h</text>
</g>
<!-- Node22&#45;&gt;Node28 -->
<g id="edge40" class="edge"><title>Node22&#45;&gt;Node28</title>
<path fill="none" stroke="midnightblue" d="M1184.37,-60.4353C1185.49,-52.3035 1187.26,-39.4692 1188.72,-28.8485"/>
<polygon fill="midnightblue" stroke="midnightblue" points="1192.2,-29.2562 1190.1,-18.8718 1185.27,-28.2997 1192.2,-29.2562"/>
</g>
<!-- Node29 -->
<g id="node30" class="node"><title>Node29</title>
<polygon fill="white" stroke="#bfbfbf" points="1266,-0.5 1266,-18.5 1376.5,-18.5 1376.5,-0.5 1266,-0.5"/>
<text text-anchor="middle" x="1321.25" y="-6.5" font-family="Helvetica,sans-Serif" font-size="10.00">yarp/os/PortReader.h</text>
</g>
<!-- Node22&#45;&gt;Node29 -->
<g id="edge42" class="edge"><title>Node22&#45;&gt;Node29</title>
<path fill="none" stroke="midnightblue" d="M1202.44,-60.4353C1225.79,-50.6217 1265.44,-33.9593 1292.45,-22.604"/>
<polygon fill="midnightblue" stroke="midnightblue" points="1293.92,-25.7844 1301.78,-18.6831 1291.21,-19.3312 1293.92,-25.7844"/>
</g>
<!-- Node30 -->
<g id="node31" class="node"><title>Node30</title>
<polygon fill="white" stroke="#bfbfbf" points="1394.62,-0.5 1394.62,-18.5 1497.88,-18.5 1497.88,-0.5 1394.62,-0.5"/>
<text text-anchor="middle" x="1446.25" y="-6.5" font-family="Helvetica,sans-Serif" font-size="10.00">yarp/os/RpcClient.h</text>
</g>
<!-- Node22&#45;&gt;Node30 -->
<g id="edge43" class="edge"><title>Node22&#45;&gt;Node30</title>
<path fill="none" stroke="midnightblue" d="M1219.55,-60.4962C1266.58,-50.1246 1348.62,-32.0304 1400.05,-20.6887"/>
<polygon fill="midnightblue" stroke="midnightblue" points="1400.9,-24.0862 1409.91,-18.5147 1399.39,-17.2505 1400.9,-24.0862"/>
</g>
<!-- Node22&#45;&gt;Node31 -->
<g id="edge44" class="edge"><title>Node22&#45;&gt;Node31</title>
<path fill="none" stroke="midnightblue" d="M1233.74,-62.9241C1260.34,-60.1655 1293.53,-57.0054 1323.25,-55 1733.51,-27.3192 1840.59,-54.7461 2253.73,-19.0401"/>
<polygon fill="midnightblue" stroke="midnightblue" points="2254.2,-22.5125 2263.86,-18.1575 2253.59,-15.539 2254.2,-22.5125"/>
</g>
<!-- Node22&#45;&gt;Node32 -->
<g id="edge45" class="edge"><title>Node22&#45;&gt;Node32</title>
<path fill="none" stroke="midnightblue" d="M1233.86,-64.116C1269.46,-61.1652 1318.24,-57.3906 1361.25,-55 1809.97,-30.06 1925.94,-50.3417 2378.65,-18.9801"/>
<polygon fill="midnightblue" stroke="midnightblue" points="2378.99,-22.4648 2388.72,-18.2775 2378.5,-15.4817 2378.99,-22.4648"/>
</g>
<!-- Node22&#45;&gt;Node33 -->
<g id="edge46" class="edge"><title>Node22&#45;&gt;Node33</title>
<path fill="none" stroke="midnightblue" d="M1233.86,-64.8945C1277.61,-61.8825 1342.58,-57.6644 1399.25,-55 1902.72,-31.33 2033.7,-69.13 2539,-18.9629"/>
<polygon fill="midnightblue" stroke="midnightblue" points="2539.51,-22.4298 2549.11,-17.9526 2538.81,-15.4645 2539.51,-22.4298"/>
</g>
<!-- Node34 -->
<g id="node35" class="node"><title>Node34</title>
<polygon fill="white" stroke="#bfbfbf" points="1515.84,-0.5 1515.84,-18.5 1624.67,-18.5 1624.67,-0.5 1515.84,-0.5"/>
<text text-anchor="middle" x="1570.25" y="-6.5" font-family="Helvetica,sans-Serif" font-size="10.00">yarp/os/LogStream.h</text>
</g>
<!-- Node22&#45;&gt;Node34 -->
<g id="edge48" class="edge"><title>Node22&#45;&gt;Node34</title>
<path fill="none" stroke="midnightblue" d="M1219.05,-60.4818C1228.22,-58.5565 1238.08,-56.5974 1247.25,-55 1259.82,-52.8115 1414.91,-31.6319 1505.53,-19.2977"/>
<polygon fill="midnightblue" stroke="midnightblue" points="1506.27,-22.7292 1515.7,-17.9127 1505.32,-15.7931 1506.27,-22.7292"/>
</g>
<!-- Node35 -->
<g id="node36" class="node"><title>Node35</title>
<polygon fill="white" stroke="#bfbfbf" points="1642.77,-0.5 1642.77,-18.5 1739.74,-18.5 1739.74,-0.5 1642.77,-0.5"/>
<text text-anchor="middle" x="1691.25" y="-6.5" font-family="Helvetica,sans-Serif" font-size="10.00">yarp/os/Property.h</text>
</g>
<!-- Node22&#45;&gt;Node35 -->
<g id="edge49" class="edge"><title>Node22&#45;&gt;Node35</title>
<path fill="none" stroke="midnightblue" d="M1217.66,-60.4833C1227.21,-58.4675 1237.6,-56.4637 1247.25,-55 1414.36,-29.6682 1460.43,-39.119 1632.39,-19.0316"/>
<polygon fill="midnightblue" stroke="midnightblue" points="1633.03,-22.4804 1642.54,-17.8279 1632.2,-15.529 1633.03,-22.4804"/>
</g>
<!-- Node36 -->
<g id="node37" class="node"><title>Node36</title>
<polygon fill="white" stroke="#bfbfbf" points="1757.58,-0.5 1757.58,-18.5 1846.93,-18.5 1846.93,-0.5 1757.58,-0.5"/>
<text text-anchor="middle" x="1802.25" y="-6.5" font-family="Helvetica,sans-Serif" font-size="10.00">yarp/sig/Matrix.h</text>
</g>
<!-- Node22&#45;&gt;Node36 -->
<g id="edge51" class="edge"><title>Node22&#45;&gt;Node36</title>
<path fill="none" stroke="midnightblue" d="M1216.98,-60.4881C1226.7,-58.423 1237.36,-56.3926 1247.25,-55 1465.08,-24.3457 1524.72,-43.7896 1747.46,-18.978"/>
<polygon fill="midnightblue" stroke="midnightblue" points="1747.96,-22.4438 1757.5,-17.8418 1747.17,-15.4882 1747.96,-22.4438"/>
</g>
<!-- Node37 -->
<g id="node38" class="node"><title>Node37</title>
<polygon fill="white" stroke="#bfbfbf" points="1865.01,-0.5 1865.01,-18.5 1985.49,-18.5 1985.49,-0.5 1865.01,-0.5"/>
<text text-anchor="middle" x="1925.25" y="-6.5" font-family="Helvetica,sans-Serif" font-size="10.00">ocra/util/StringUtilities.h</text>
</g>
<!-- Node22&#45;&gt;Node37 -->
<g id="edge54" class="edge"><title>Node22&#45;&gt;Node37</title>
<path fill="none" stroke="midnightblue" d="M1216.64,-60.4775C1226.45,-58.3863 1237.24,-56.3449 1247.25,-55 1512.7,-19.3596 1584.49,-42.9945 1854.59,-19.0891"/>
<polygon fill="midnightblue" stroke="midnightblue" points="1855.05,-22.5621 1864.69,-18.1809 1854.42,-15.5902 1855.05,-22.5621"/>
</g>
<!-- Node38 -->
<g id="node39" class="node"><title>Node38</title>
<polygon fill="white" stroke="#bfbfbf" points="2003.85,-0.5 2003.85,-18.5 2072.66,-18.5 2072.66,-0.5 2003.85,-0.5"/>
<text text-anchor="middle" x="2038.25" y="-6.5" font-family="Helvetica,sans-Serif" font-size="10.00">Eigen/Lgsm</text>
</g>
<!-- Node22&#45;&gt;Node38 -->
<g id="edge56" class="edge"><title>Node22&#45;&gt;Node38</title>
<path fill="none" stroke="midnightblue" d="M1216.3,-60.4784C1226.2,-58.3607 1237.12,-56.3048 1247.25,-55 1573.54,-12.9984 1662.42,-57.6881 1993.37,-18.8831"/>
<polygon fill="midnightblue" stroke="midnightblue" points="1994.22,-22.307 2003.74,-17.65 1993.4,-15.356 1994.22,-22.307"/>
</g>
</g>
</svg>
