<?xml version="1.0" encoding="UTF-8" standalone="no"?>
<!DOCTYPE svg PUBLIC "-//W3C//DTD SVG 1.1//EN"
 "http://www.w3.org/Graphics/SVG/1.1/DTD/svg11.dtd">
<!-- Generated by graphviz version 2.38.0 (20140413.2041)
 -->
<!-- Title: /Users/jorhabibeljaik/Code/codyco&#45;superbuild/main/ocra&#45;wbi&#45;plugins/ocra&#45;icub&#45;clients/walking&#45;client/src/main.cpp Pages: 1 -->
<svg width="2466pt" height="472pt"
 viewBox="0.00 0.00 2466.04 472.00" xmlns="http://www.w3.org/2000/svg" xmlns:xlink="http://www.w3.org/1999/xlink">
<g id="graph0" class="graph" transform="scale(1 1) rotate(0) translate(4 468)">
<title>/Users/jorhabibeljaik/Code/codyco&#45;superbuild/main/ocra&#45;wbi&#45;plugins/ocra&#45;icub&#45;clients/walking&#45;client/src/main.cpp</title>
<polygon fill="white" stroke="none" points="-4,4 -4,-468 2462.04,-468 2462.04,4 -4,4"/>
<!-- Node0 -->
<g id="node1" class="node"><title>Node0</title>
<polygon fill="#bfbfbf" stroke="black" points="275.559,-405.5 275.559,-463.5 403.268,-463.5 403.268,-405.5 275.559,-405.5"/>
<text text-anchor="start" x="283.559" y="-451.5" font-family="Helvetica,sans-Serif" font-size="10.00">/Users/jorhabibeljaik</text>
<text text-anchor="start" x="283.559" y="-441.5" font-family="Helvetica,sans-Serif" font-size="10.00">/Code/codyco&#45;superbuild</text>
<text text-anchor="start" x="283.559" y="-431.5" font-family="Helvetica,sans-Serif" font-size="10.00">/main/ocra&#45;wbi&#45;plugins</text>
<text text-anchor="start" x="283.559" y="-421.5" font-family="Helvetica,sans-Serif" font-size="10.00">/ocra&#45;icub&#45;clients/walking</text>
<text text-anchor="middle" x="339.414" y="-411.5" font-family="Helvetica,sans-Serif" font-size="10.00">&#45;client/src/main.cpp</text>
</g>
<!-- Node1 -->
<g id="node2" class="node"><title>Node1</title>
<polygon fill="white" stroke="#bfbfbf" points="222.16,-0.5 222.16,-18.5 352.667,-18.5 352.667,-0.5 222.16,-0.5"/>
<text text-anchor="middle" x="287.414" y="-6.5" font-family="Helvetica,sans-Serif" font-size="10.00">yarp/os/ResourceFinder.h</text>
</g>
<!-- Node0&#45;&gt;Node1 -->
<g id="edge1" class="edge"><title>Node0&#45;&gt;Node1</title>
<path fill="none" stroke="midnightblue" d="M301.867,-405.291C275.313,-381.855 244.414,-345.904 244.414,-305.5 244.414,-305.5 244.414,-305.5 244.414,-133.5 244.414,-93.6951 264.729,-50.4988 277.432,-27.379"/>
<polygon fill="midnightblue" stroke="midnightblue" points="280.575,-28.9321 282.481,-18.5101 274.492,-25.4689 280.575,-28.9321"/>
</g>
<!-- Node2 -->
<g id="node3" class="node"><title>Node2</title>
<polygon fill="white" stroke="#bfbfbf" points="310.121,-185.5 310.121,-203.5 406.707,-203.5 406.707,-185.5 310.121,-185.5"/>
<text text-anchor="middle" x="358.414" y="-191.5" font-family="Helvetica,sans-Serif" font-size="10.00">yarp/os/Network.h</text>
</g>
<!-- Node0&#45;&gt;Node2 -->
<g id="edge2" class="edge"><title>Node0&#45;&gt;Node2</title>
<path fill="none" stroke="midnightblue" d="M341.668,-405.264C345.613,-355.847 353.662,-255.019 356.958,-213.739"/>
<polygon fill="midnightblue" stroke="midnightblue" points="360.463,-213.81 357.77,-203.564 353.485,-213.253 360.463,-213.81"/>
</g>
<!-- Node3 -->
<g id="node4" class="node"><title>Node3</title>
<polygon fill="white" stroke="#bfbfbf" points="127.116,-0.5 127.116,-18.5 203.711,-18.5 203.711,-0.5 127.116,-0.5"/>
<text text-anchor="middle" x="165.414" y="-6.5" font-family="Helvetica,sans-Serif" font-size="10.00">yarp/os/Log.h</text>
</g>
<!-- Node0&#45;&gt;Node3 -->
<g id="edge3" class="edge"><title>Node0&#45;&gt;Node3</title>
<path fill="none" stroke="midnightblue" d="M275.257,-411.267C230.744,-391.295 179.414,-357.081 179.414,-305.5 179.414,-305.5 179.414,-305.5 179.414,-133.5 179.414,-96.0065 172.912,-52.4942 168.77,-28.5776"/>
<polygon fill="midnightblue" stroke="midnightblue" points="172.177,-27.7473 166.965,-18.5231 165.287,-28.9842 172.177,-27.7473"/>
</g>
<!-- Node4 -->
<g id="node5" class="node"><title>Node4</title>
<polygon fill="white" stroke="#bfbfbf" points="0,-0.5 0,-18.5 108.827,-18.5 108.827,-0.5 0,-0.5"/>
<text text-anchor="middle" x="54.4136" y="-6.5" font-family="Helvetica,sans-Serif" font-size="10.00">yarp/os/LogStream.h</text>
</g>
<!-- Node0&#45;&gt;Node4 -->
<g id="edge4" class="edge"><title>Node0&#45;&gt;Node4</title>
<path fill="none" stroke="midnightblue" d="M275.547,-427.939C202.067,-417.631 91.4136,-388.353 91.4136,-305.5 91.4136,-305.5 91.4136,-305.5 91.4136,-133.5 91.4136,-94.4377 74.0895,-51.2424 63.1498,-27.86"/>
<polygon fill="midnightblue" stroke="midnightblue" points="66.1705,-26.0676 58.6579,-18.5969 59.872,-29.122 66.1705,-26.0676"/>
</g>
<!-- Node5 -->
<g id="node6" class="node"><title>Node5</title>
<polygon fill="white" stroke="#bfbfbf" points="370.53,-0.5 370.53,-18.5 452.297,-18.5 452.297,-0.5 370.53,-0.5"/>
<text text-anchor="middle" x="411.414" y="-6.5" font-family="Helvetica,sans-Serif" font-size="10.00">yarp/os/Time.h</text>
</g>
<!-- Node0&#45;&gt;Node5 -->
<g id="edge5" class="edge"><title>Node0&#45;&gt;Node5</title>
<path fill="none" stroke="midnightblue" d="M318.513,-405.103C302.245,-380.165 282.414,-342.232 282.414,-305.5 282.414,-305.5 282.414,-305.5 282.414,-248.5 282.414,-154.517 361.124,-62.1414 395.579,-26.2066"/>
<polygon fill="midnightblue" stroke="midnightblue" points="398.454,-28.2741 402.95,-18.6805 393.452,-23.3765 398.454,-28.2741"/>
</g>
<!-- Node6 -->
<g id="node7" class="node"><title>Node6</title>
<g id="a_node7"><a xlink:href="IcubClient_8h.html" target="_top" xlink:title="ocra&#45;icub/IcubClient.h">
<polygon fill="white" stroke="black" points="694.057,-295.5 694.057,-313.5 806.771,-313.5 806.771,-295.5 694.057,-295.5"/>
<text text-anchor="middle" x="750.414" y="-301.5" font-family="Helvetica,sans-Serif" font-size="10.00">ocra&#45;icub/IcubClient.h</text>
</a>
</g>
</g>
<!-- Node0&#45;&gt;Node6 -->
<g id="edge6" class="edge"><title>Node0&#45;&gt;Node6</title>
<path fill="none" stroke="midnightblue" d="M352.628,-405.468C363.099,-386.543 379.597,-362.767 401.414,-350 447.94,-322.773 596.223,-311.936 683.823,-307.832"/>
<polygon fill="midnightblue" stroke="midnightblue" points="684.1,-311.323 693.932,-307.375 683.785,-304.33 684.1,-311.323"/>
</g>
<!-- Node33 -->
<g id="node34" class="node"><title>Node33</title>
<polygon fill="white" stroke="#bfbfbf" points="840.887,-295.5 840.887,-313.5 991.94,-313.5 991.94,-295.5 840.887,-295.5"/>
<text text-anchor="middle" x="916.414" y="-301.5" font-family="Helvetica,sans-Serif" font-size="10.00">ocra&#45;recipes/ControllerClient.h</text>
</g>
<!-- Node0&#45;&gt;Node33 -->
<g id="edge56" class="edge"><title>Node0&#45;&gt;Node33</title>
<path fill="none" stroke="midnightblue" d="M362.861,-405.092C380.413,-385.99 406.178,-362.157 434.414,-350 443.403,-346.13 694.673,-324.317 830.759,-312.732"/>
<polygon fill="midnightblue" stroke="midnightblue" points="831.087,-316.217 840.754,-311.882 830.493,-309.243 831.087,-316.217"/>
</g>
<!-- Node34 -->
<g id="node35" class="node"><title>Node34</title>
<polygon fill="white" stroke="#bfbfbf" points="443.101,-350.5 443.101,-368.5 589.726,-368.5 589.726,-350.5 443.101,-350.5"/>
<text text-anchor="middle" x="516.414" y="-356.5" font-family="Helvetica,sans-Serif" font-size="10.00">ocra&#45;recipes/ClientManager.h</text>
</g>
<!-- Node0&#45;&gt;Node34 -->
<g id="edge57" class="edge"><title>Node0&#45;&gt;Node34</title>
<path fill="none" stroke="midnightblue" d="M403.315,-407.145C432.125,-395.263 464.713,-381.823 487.482,-372.432"/>
<polygon fill="midnightblue" stroke="midnightblue" points="488.991,-375.596 496.901,-368.547 486.322,-369.125 488.991,-375.596"/>
</g>
<!-- Node35 -->
<g id="node36" class="node"><title>Node35</title>
<g id="a_node36"><a xlink:href="WalkingClient_8h.html" target="_top" xlink:title="walking&#45;client/WalkingClient.h">
<polygon fill="white" stroke="black" points="946.459,-350.5 946.459,-368.5 1094.37,-368.5 1094.37,-350.5 946.459,-350.5"/>
<text text-anchor="middle" x="1020.41" y="-356.5" font-family="Helvetica,sans-Serif" font-size="10.00">walking&#45;client/WalkingClient.h</text>
</a>
</g>
</g>
<!-- Node0&#45;&gt;Node35 -->
<g id="edge58" class="edge"><title>Node0&#45;&gt;Node35</title>
<path fill="none" stroke="midnightblue" d="M403.48,-426.632C527.036,-413.388 798.201,-384.32 936.179,-369.53"/>
<polygon fill="midnightblue" stroke="midnightblue" points="936.713,-372.992 946.283,-368.446 935.967,-366.032 936.713,-372.992"/>
</g>
<!-- Node7 -->
<g id="node8" class="node"><title>Node7</title>
<g id="a_node8"><a xlink:href="ModelInitializer_8h.html" target="_top" xlink:title="ocra&#45;icub/ModelInitializer.h">
<polygon fill="white" stroke="black" points="462.217,-240.5 462.217,-258.5 596.61,-258.5 596.61,-240.5 462.217,-240.5"/>
<text text-anchor="middle" x="529.414" y="-246.5" font-family="Helvetica,sans-Serif" font-size="10.00">ocra&#45;icub/ModelInitializer.h</text>
</a>
</g>
</g>
<!-- Node6&#45;&gt;Node7 -->
<g id="edge7" class="edge"><title>Node6&#45;&gt;Node7</title>
<path fill="none" stroke="midnightblue" d="M716.848,-295.45C678.282,-286.201 614.892,-270.999 572.658,-260.871"/>
<polygon fill="midnightblue" stroke="midnightblue" points="573.472,-257.467 562.932,-258.538 571.84,-264.274 573.472,-257.467"/>
</g>
<!-- Node8 -->
<g id="node9" class="node"><title>Node8</title>
<g id="a_node9"><a xlink:href="OcraWbiModel_8h.html" target="_top" xlink:title="Implementation of ocra::Model using wholeBodyInterface. ">
<polygon fill="white" stroke="black" points="605.227,-185.5 605.227,-203.5 739.601,-203.5 739.601,-185.5 605.227,-185.5"/>
<text text-anchor="middle" x="672.414" y="-191.5" font-family="Helvetica,sans-Serif" font-size="10.00">ocra&#45;icub/OcraWbiModel.h</text>
</a>
</g>
</g>
<!-- Node6&#45;&gt;Node8 -->
<g id="edge54" class="edge"><title>Node6&#45;&gt;Node8</title>
<path fill="none" stroke="midnightblue" d="M744.551,-295.382C731.79,-277.713 701.283,-235.472 684.313,-211.976"/>
<polygon fill="midnightblue" stroke="midnightblue" points="687.037,-209.769 678.344,-203.712 681.362,-213.868 687.037,-209.769"/>
</g>
<!-- Node12 -->
<g id="node13" class="node"><title>Node12</title>
<g id="a_node13"><a xlink:href="OcraWbiConversions_8h.html" target="_top" xlink:title="A utility class full of static conversion functions. ">
<polygon fill="white" stroke="black" points="857.054,-125.5 857.054,-143.5 1019.77,-143.5 1019.77,-125.5 857.054,-125.5"/>
<text text-anchor="middle" x="938.414" y="-131.5" font-family="Helvetica,sans-Serif" font-size="10.00">ocra&#45;icub/OcraWbiConversions.h</text>
</a>
</g>
</g>
<!-- Node6&#45;&gt;Node12 -->
<g id="edge53" class="edge"><title>Node6&#45;&gt;Node12</title>
<path fill="none" stroke="midnightblue" d="M759.481,-295.397C789.076,-268.951 883.149,-184.886 921.696,-150.439"/>
<polygon fill="midnightblue" stroke="midnightblue" points="924.313,-152.795 929.437,-143.522 919.648,-147.575 924.313,-152.795"/>
</g>
<!-- Node18 -->
<g id="node19" class="node"><title>Node18</title>
<g id="a_node19"><a xlink:href="Utilities_8h.html" target="_top" xlink:title="Some useful tools for the ocra&#45;icub lib. ">
<polygon fill="white" stroke="black" points="1188.18,-60.5 1188.18,-78.5 1288.65,-78.5 1288.65,-60.5 1188.18,-60.5"/>
<text text-anchor="middle" x="1238.41" y="-66.5" font-family="Helvetica,sans-Serif" font-size="10.00">ocra&#45;icub/Utilities.h</text>
</a>
</g>
</g>
<!-- Node6&#45;&gt;Node18 -->
<g id="edge55" class="edge"><title>Node6&#45;&gt;Node18</title>
<path fill="none" stroke="midnightblue" d="M767.212,-295.48C839.502,-260.964 1124.41,-124.933 1212.39,-82.9245"/>
<polygon fill="midnightblue" stroke="midnightblue" points="1213.92,-86.074 1221.43,-78.6069 1210.9,-79.7571 1213.92,-86.074"/>
</g>
<!-- Node7&#45;&gt;Node2 -->
<g id="edge50" class="edge"><title>Node7&#45;&gt;Node2</title>
<path fill="none" stroke="midnightblue" d="M503.442,-240.45C474.231,-231.396 426.614,-216.638 393.964,-206.519"/>
<polygon fill="midnightblue" stroke="midnightblue" points="394.936,-203.156 384.348,-203.538 392.864,-209.842 394.936,-203.156"/>
</g>
<!-- Node7&#45;&gt;Node3 -->
<g id="edge52" class="edge"><title>Node7&#45;&gt;Node3</title>
<path fill="none" stroke="midnightblue" d="M527.018,-240.182C517.78,-209.721 481.394,-103.513 410.414,-55 409.394,-54.3034 284.961,-31.921 213.847,-19.1714"/>
<polygon fill="midnightblue" stroke="midnightblue" points="214.223,-15.6832 203.762,-17.364 212.988,-22.5734 214.223,-15.6832"/>
</g>
<!-- Node7&#45;&gt;Node4 -->
<g id="edge51" class="edge"><title>Node7&#45;&gt;Node4</title>
<path fill="none" stroke="midnightblue" d="M515.515,-240.416C494.185,-228.086 452.001,-204.012 415.414,-185 291.953,-120.844 141.22,-50.4971 81.0592,-22.7343"/>
<polygon fill="midnightblue" stroke="midnightblue" points="82.4211,-19.5082 71.8741,-18.5019 79.4916,-25.8657 82.4211,-19.5082"/>
</g>
<!-- Node7&#45;&gt;Node8 -->
<g id="edge8" class="edge"><title>Node7&#45;&gt;Node8</title>
<path fill="none" stroke="midnightblue" d="M551.132,-240.45C575.07,-231.578 613.787,-217.229 641.024,-207.134"/>
<polygon fill="midnightblue" stroke="midnightblue" points="642.33,-210.383 650.491,-203.625 639.897,-203.819 642.33,-210.383"/>
</g>
<!-- Node10 -->
<g id="node11" class="node"><title>Node10</title>
<polygon fill="white" stroke="#bfbfbf" points="470.113,-0.5 470.113,-18.5 576.714,-18.5 576.714,-0.5 470.113,-0.5"/>
<text text-anchor="middle" x="523.414" y="-6.5" font-family="Helvetica,sans-Serif" font-size="10.00">ocra/control/Model.h</text>
</g>
<!-- Node7&#45;&gt;Node10 -->
<g id="edge47" class="edge"><title>Node7&#45;&gt;Node10</title>
<path fill="none" stroke="midnightblue" d="M529.207,-240.308C528.354,-206.478 525.095,-77.1778 523.876,-28.8594"/>
<polygon fill="midnightblue" stroke="midnightblue" points="527.37,-28.5666 523.619,-18.658 520.372,-28.7431 527.37,-28.5666"/>
</g>
<!-- Node17 -->
<g id="node18" class="node"><title>Node17</title>
<polygon fill="white" stroke="#bfbfbf" points="728.104,-55.5 728.104,-83.5 864.724,-83.5 864.724,-55.5 728.104,-55.5"/>
<text text-anchor="start" x="736.104" y="-71.5" font-family="Helvetica,sans-Serif" font-size="10.00">yarpWholeBodyInterface</text>
<text text-anchor="middle" x="796.414" y="-61.5" font-family="Helvetica,sans-Serif" font-size="10.00">/yarpWholeBodyInterface.h</text>
</g>
<!-- Node7&#45;&gt;Node17 -->
<g id="edge48" class="edge"><title>Node7&#45;&gt;Node17</title>
<path fill="none" stroke="midnightblue" d="M596.613,-242.082C652.365,-235.479 726.001,-223.384 748.414,-204 780.933,-175.876 791.422,-124.033 794.804,-93.8958"/>
<polygon fill="midnightblue" stroke="midnightblue" points="798.296,-94.1446 795.757,-83.8586 791.328,-93.4833 798.296,-94.1446"/>
</g>
<!-- Node26 -->
<g id="node27" class="node"><title>Node26</title>
<polygon fill="white" stroke="#bfbfbf" points="594.783,-0.5 594.783,-18.5 698.044,-18.5 698.044,-0.5 594.783,-0.5"/>
<text text-anchor="middle" x="646.414" y="-6.5" font-family="Helvetica,sans-Serif" font-size="10.00">yarp/os/RpcClient.h</text>
</g>
<!-- Node7&#45;&gt;Node26 -->
<g id="edge49" class="edge"><title>Node7&#45;&gt;Node26</title>
<path fill="none" stroke="midnightblue" d="M533.441,-240.308C550.212,-206.192 614.713,-74.984 637.982,-27.651"/>
<polygon fill="midnightblue" stroke="midnightblue" points="641.132,-29.1764 642.403,-18.658 634.85,-26.0882 641.132,-29.1764"/>
</g>
<!-- Node8&#45;&gt;Node3 -->
<g id="edge12" class="edge"><title>Node8&#45;&gt;Node3</title>
<path fill="none" stroke="midnightblue" d="M660.84,-185.476C621.772,-158.532 494.643,-72.0267 448.414,-55 352.264,-19.5873 319.64,-35.1895 214.022,-19.0095"/>
<polygon fill="midnightblue" stroke="midnightblue" points="214.339,-15.5159 203.912,-17.3987 213.237,-22.4287 214.339,-15.5159"/>
</g>
<!-- Node9 -->
<g id="node10" class="node"><title>Node9</title>
<polygon fill="white" stroke="#bfbfbf" points="716.357,-0.5 716.357,-18.5 768.47,-18.5 768.47,-0.5 716.357,-0.5"/>
<text text-anchor="middle" x="742.414" y="-6.5" font-family="Helvetica,sans-Serif" font-size="10.00">memory</text>
</g>
<!-- Node8&#45;&gt;Node9 -->
<g id="edge9" class="edge"><title>Node8&#45;&gt;Node9</title>
<path fill="none" stroke="midnightblue" d="M671.164,-185.371C668.133,-162.974 662.312,-99.1141 686.414,-55 693.508,-42.0156 706.129,-31.4782 717.596,-23.9226"/>
<polygon fill="midnightblue" stroke="midnightblue" points="719.722,-26.7244 726.417,-18.5127 716.062,-20.7572 719.722,-26.7244"/>
</g>
<!-- Node8&#45;&gt;Node10 -->
<g id="edge10" class="edge"><title>Node8&#45;&gt;Node10</title>
<path fill="none" stroke="midnightblue" d="M666.102,-185.272C649.472,-163.653 602.941,-103.566 562.414,-55 554.318,-45.2986 544.999,-34.6468 537.5,-26.1974"/>
<polygon fill="midnightblue" stroke="midnightblue" points="539.99,-23.7313 530.722,-18.599 534.767,-28.3912 539.99,-23.7313"/>
</g>
<!-- Node11 -->
<g id="node12" class="node"><title>Node11</title>
<polygon fill="white" stroke="#bfbfbf" points="786.85,-0.5 786.85,-18.5 843.978,-18.5 843.978,-0.5 786.85,-0.5"/>
<text text-anchor="middle" x="815.414" y="-6.5" font-family="Helvetica,sans-Serif" font-size="10.00">wbi/wbi.h</text>
</g>
<!-- Node8&#45;&gt;Node11 -->
<g id="edge11" class="edge"><title>Node8&#45;&gt;Node11</title>
<path fill="none" stroke="midnightblue" d="M674.327,-185.171C680.612,-158.414 701.256,-75.2106 719.414,-55 734.537,-38.1663 757.335,-27.2292 776.92,-20.4117"/>
<polygon fill="midnightblue" stroke="midnightblue" points="778.085,-23.7134 786.518,-17.3005 775.926,-17.0545 778.085,-23.7134"/>
</g>
<!-- Node8&#45;&gt;Node12 -->
<g id="edge13" class="edge"><title>Node8&#45;&gt;Node12</title>
<path fill="none" stroke="midnightblue" d="M709.12,-185.496C756.687,-175.125 839.671,-157.03 891.686,-145.689"/>
<polygon fill="midnightblue" stroke="midnightblue" points="892.632,-149.065 901.657,-143.515 891.14,-142.226 892.632,-149.065"/>
</g>
<!-- Node8&#45;&gt;Node18 -->
<g id="edge46" class="edge"><title>Node8&#45;&gt;Node18</title>
<path fill="none" stroke="midnightblue" d="M739.908,-194.295C813.204,-193.073 932.625,-184.93 1028.41,-149 1050,-140.904 1050.57,-129.834 1071.41,-120 1109.34,-102.112 1155.17,-89.0799 1189.22,-80.8912"/>
<polygon fill="midnightblue" stroke="midnightblue" points="1190.45,-84.1975 1199.39,-78.5054 1188.85,-77.3826 1190.45,-84.1975"/>
</g>
<!-- Node12&#45;&gt;Node3 -->
<g id="edge18" class="edge"><title>Node12&#45;&gt;Node3</title>
<path fill="none" stroke="midnightblue" d="M934.607,-125.413C926.253,-108.717 904.541,-70.6883 873.414,-55 810.072,-23.0755 321.486,-27.0893 213.829,-18.673"/>
<polygon fill="midnightblue" stroke="midnightblue" points="214.151,-15.188 203.866,-17.7306 213.492,-22.1569 214.151,-15.188"/>
</g>
<!-- Node12&#45;&gt;Node11 -->
<g id="edge19" class="edge"><title>Node12&#45;&gt;Node11</title>
<path fill="none" stroke="midnightblue" d="M945.736,-125.392C958.502,-110.244 981.965,-77.1751 965.414,-55 958.603,-45.875 896.364,-29.613 854.228,-19.4777"/>
<polygon fill="midnightblue" stroke="midnightblue" points="854.796,-16.0153 844.257,-17.1031 853.174,-22.8248 854.796,-16.0153"/>
</g>
<!-- Node13 -->
<g id="node14" class="node"><title>Node13</title>
<polygon fill="white" stroke="#bfbfbf" points="970.241,-0.5 970.241,-18.5 1024.59,-18.5 1024.59,-0.5 970.241,-0.5"/>
<text text-anchor="middle" x="997.414" y="-6.5" font-family="Helvetica,sans-Serif" font-size="10.00">iostream</text>
</g>
<!-- Node12&#45;&gt;Node13 -->
<g id="edge14" class="edge"><title>Node12&#45;&gt;Node13</title>
<path fill="none" stroke="midnightblue" d="M962.316,-125.372C980.492,-117.782 1004.22,-104.505 1015.41,-84 1025.12,-66.2171 1016.6,-43.1861 1008.29,-27.6835"/>
<polygon fill="midnightblue" stroke="midnightblue" points="1011.12,-25.5852 1003.05,-18.7141 1005.07,-29.1147 1011.12,-25.5852"/>
</g>
<!-- Node14 -->
<g id="node15" class="node"><title>Node14</title>
<polygon fill="white" stroke="#bfbfbf" points="920.687,-60.5 920.687,-78.5 956.14,-78.5 956.14,-60.5 920.687,-60.5"/>
<text text-anchor="middle" x="938.414" y="-66.5" font-family="Helvetica,sans-Serif" font-size="10.00">map</text>
</g>
<!-- Node12&#45;&gt;Node14 -->
<g id="edge15" class="edge"><title>Node12&#45;&gt;Node14</title>
<path fill="none" stroke="midnightblue" d="M938.414,-125.264C938.414,-116.064 938.414,-100.881 938.414,-88.8326"/>
<polygon fill="midnightblue" stroke="midnightblue" points="941.914,-88.5389 938.414,-78.539 934.914,-88.539 941.914,-88.5389"/>
</g>
<!-- Node15 -->
<g id="node16" class="node"><title>Node15</title>
<polygon fill="white" stroke="#bfbfbf" points="2323.8,-0.5 2323.8,-18.5 2367.03,-18.5 2367.03,-0.5 2323.8,-0.5"/>
<text text-anchor="middle" x="2345.41" y="-6.5" font-family="Helvetica,sans-Serif" font-size="10.00">vector</text>
</g>
<!-- Node12&#45;&gt;Node15 -->
<g id="edge16" class="edge"><title>Node12&#45;&gt;Node15</title>
<path fill="none" stroke="midnightblue" d="M1020.03,-127.127C1296.72,-105.47 2188.41,-35.2237 2313.4,-18.5657"/>
<polygon fill="midnightblue" stroke="midnightblue" points="2314.15,-21.9935 2323.51,-17.0432 2313.1,-15.0716 2314.15,-21.9935"/>
</g>
<!-- Node16 -->
<g id="node17" class="node"><title>Node16</title>
<polygon fill="white" stroke="#bfbfbf" points="862.443,-0.5 862.443,-18.5 952.384,-18.5 952.384,-0.5 862.443,-0.5"/>
<text text-anchor="middle" x="907.414" y="-6.5" font-family="Helvetica,sans-Serif" font-size="10.00">yarp/sig/Vector.h</text>
</g>
<!-- Node12&#45;&gt;Node16 -->
<g id="edge17" class="edge"><title>Node12&#45;&gt;Node16</title>
<path fill="none" stroke="midnightblue" d="M954.615,-125.464C969.116,-117.268 989.431,-103.055 998.414,-84 1003.91,-72.3415 1005.24,-65.9339 998.414,-55 988.528,-39.1614 971.191,-28.8064 954.284,-22.1108"/>
<polygon fill="midnightblue" stroke="midnightblue" points="955.033,-18.661 944.438,-18.5775 952.668,-25.2496 955.033,-18.661"/>
</g>
<!-- Node12&#45;&gt;Node17 -->
<g id="edge20" class="edge"><title>Node12&#45;&gt;Node17</title>
<path fill="none" stroke="midnightblue" d="M920.14,-125.393C898.765,-115.91 862.784,-99.9461 835.117,-87.6714"/>
<polygon fill="midnightblue" stroke="midnightblue" points="836.276,-84.3564 825.716,-83.5002 833.437,-90.755 836.276,-84.3564"/>
</g>
<!-- Node12&#45;&gt;Node18 -->
<g id="edge21" class="edge"><title>Node12&#45;&gt;Node18</title>
<path fill="none" stroke="midnightblue" d="M976.714,-125.457C1031.07,-114.043 1130.56,-93.1486 1189.98,-80.672"/>
<polygon fill="midnightblue" stroke="midnightblue" points="1190.8,-84.0752 1199.87,-78.5946 1189.36,-77.2246 1190.8,-84.0752"/>
</g>
<!-- Node18&#45;&gt;Node1 -->
<g id="edge31" class="edge"><title>Node18&#45;&gt;Node1</title>
<path fill="none" stroke="midnightblue" d="M1187.9,-66.0358C1029.5,-58.2479 542.823,-33.851 362.89,-19.0645"/>
<polygon fill="midnightblue" stroke="midnightblue" points="363.021,-15.5632 352.763,-18.2144 362.435,-22.5387 363.021,-15.5632"/>
</g>
<!-- Node18&#45;&gt;Node3 -->
<g id="edge37" class="edge"><title>Node18&#45;&gt;Node3</title>
<path fill="none" stroke="midnightblue" d="M1188.1,-65.9881C1133.32,-63.2591 1043.15,-58.7826 965.414,-55 634.468,-38.8957 547.628,-55.9094 213.812,-18.8652"/>
<polygon fill="midnightblue" stroke="midnightblue" points="214.19,-15.3858 203.863,-17.7534 213.413,-22.3424 214.19,-15.3858"/>
</g>
<!-- Node18&#45;&gt;Node4 -->
<g id="edge38" class="edge"><title>Node18&#45;&gt;Node4</title>
<path fill="none" stroke="midnightblue" d="M1188.1,-65.9074C1133.33,-63.1094 1043.16,-58.5743 965.414,-55 592.335,-37.8473 495.461,-51.5898 118.927,-18.9457"/>
<polygon fill="midnightblue" stroke="midnightblue" points="119.111,-15.4485 108.844,-18.0663 118.502,-22.4221 119.111,-15.4485"/>
</g>
<!-- Node18&#45;&gt;Node5 -->
<g id="edge36" class="edge"><title>Node18&#45;&gt;Node5</title>
<path fill="none" stroke="midnightblue" d="M1187.96,-65.9792C1042.25,-58.5921 621.66,-36.4836 462.655,-18.9923"/>
<polygon fill="midnightblue" stroke="midnightblue" points="462.896,-15.4973 452.565,-17.8471 462.107,-22.4527 462.896,-15.4973"/>
</g>
<!-- Node18&#45;&gt;Node9 -->
<g id="edge22" class="edge"><title>Node18&#45;&gt;Node9</title>
<path fill="none" stroke="midnightblue" d="M1187.97,-65.2609C1104.69,-59.4377 933.082,-45.4368 778.842,-19.035"/>
<polygon fill="midnightblue" stroke="midnightblue" points="779.16,-15.538 768.709,-17.278 777.964,-22.435 779.16,-15.538"/>
</g>
<!-- Node18&#45;&gt;Node10 -->
<g id="edge43" class="edge"><title>Node18&#45;&gt;Node10</title>
<path fill="none" stroke="midnightblue" d="M1187.93,-65.7186C1079.76,-59.5325 817.382,-43.3211 587.072,-19.1162"/>
<polygon fill="midnightblue" stroke="midnightblue" points="587.136,-15.6034 576.823,-18.0314 586.399,-22.5645 587.136,-15.6034"/>
</g>
<!-- Node18&#45;&gt;Node11 -->
<g id="edge42" class="edge"><title>Node18&#45;&gt;Node11</title>
<path fill="none" stroke="midnightblue" d="M1188.05,-63.522C1116.24,-56.0954 980.138,-40.8012 854.199,-18.9762"/>
<polygon fill="midnightblue" stroke="midnightblue" points="854.445,-15.4661 843.991,-17.1887 853.237,-22.3611 854.445,-15.4661"/>
</g>
<!-- Node18&#45;&gt;Node13 -->
<g id="edge24" class="edge"><title>Node18&#45;&gt;Node13</title>
<path fill="none" stroke="midnightblue" d="M1205.16,-60.4962C1160.5,-49.7488 1081.39,-30.709 1034.74,-19.4831"/>
<polygon fill="midnightblue" stroke="midnightblue" points="1035.28,-16.0141 1024.74,-17.0771 1033.65,-22.8198 1035.28,-16.0141"/>
</g>
<!-- Node18&#45;&gt;Node15 -->
<g id="edge26" class="edge"><title>Node18&#45;&gt;Node15</title>
<path fill="none" stroke="midnightblue" d="M1288.88,-66.837C1482.66,-60.3631 2174.74,-36.4073 2313.49,-18.5804"/>
<polygon fill="midnightblue" stroke="midnightblue" points="2314.13,-22.0259 2323.53,-17.146 2313.13,-15.0964 2314.13,-22.0259"/>
</g>
<!-- Node18&#45;&gt;Node16 -->
<g id="edge40" class="edge"><title>Node18&#45;&gt;Node16</title>
<path fill="none" stroke="midnightblue" d="M1192.74,-60.4962C1132.64,-49.9655 1027.11,-31.4733 962.607,-20.1714"/>
<polygon fill="midnightblue" stroke="midnightblue" points="963.075,-16.7002 952.621,-18.4216 961.867,-23.5951 963.075,-16.7002"/>
</g>
<!-- Node19 -->
<g id="node20" class="node"><title>Node19</title>
<polygon fill="white" stroke="#bfbfbf" points="1636.8,-0.5 1636.8,-18.5 1680.03,-18.5 1680.03,-0.5 1636.8,-0.5"/>
<text text-anchor="middle" x="1658.41" y="-6.5" font-family="Helvetica,sans-Serif" font-size="10.00">cmath</text>
</g>
<!-- Node18&#45;&gt;Node19 -->
<g id="edge23" class="edge"><title>Node18&#45;&gt;Node19</title>
<path fill="none" stroke="midnightblue" d="M1288.83,-64.3746C1361.46,-57.9286 1499.82,-43.7724 1626.61,-18.8894"/>
<polygon fill="midnightblue" stroke="midnightblue" points="1627.36,-22.307 1636.49,-16.9227 1626,-15.4416 1627.36,-22.307"/>
</g>
<!-- Node20 -->
<g id="node21" class="node"><title>Node20</title>
<polygon fill="white" stroke="#bfbfbf" points="1698.19,-0.5 1698.19,-18.5 1738.64,-18.5 1738.64,-0.5 1698.19,-0.5"/>
<text text-anchor="middle" x="1718.41" y="-6.5" font-family="Helvetica,sans-Serif" font-size="10.00">string</text>
</g>
<!-- Node18&#45;&gt;Node20 -->
<g id="edge25" class="edge"><title>Node18&#45;&gt;Node20</title>
<path fill="none" stroke="midnightblue" d="M1288.91,-65.8601C1370.96,-60.9382 1538.35,-48.2676 1688.09,-18.9437"/>
<polygon fill="midnightblue" stroke="midnightblue" points="1688.8,-22.3709 1697.93,-16.988 1687.44,-15.5053 1688.8,-22.3709"/>
</g>
<!-- Node21 -->
<g id="node22" class="node"><title>Node21</title>
<polygon fill="white" stroke="#bfbfbf" points="1756.63,-0.5 1756.63,-18.5 1808.19,-18.5 1808.19,-0.5 1756.63,-0.5"/>
<text text-anchor="middle" x="1782.41" y="-6.5" font-family="Helvetica,sans-Serif" font-size="10.00">sstream</text>
</g>
<!-- Node18&#45;&gt;Node21 -->
<g id="edge27" class="edge"><title>Node18&#45;&gt;Node21</title>
<path fill="none" stroke="midnightblue" d="M1288.94,-65.9575C1379,-60.91 1573.28,-47.6929 1746.44,-18.9175"/>
<polygon fill="midnightblue" stroke="midnightblue" points="1747.22,-22.3356 1756.5,-17.224 1746.06,-15.4327 1747.22,-22.3356"/>
</g>
<!-- Node22 -->
<g id="node23" class="node"><title>Node22</title>
<polygon fill="white" stroke="#bfbfbf" points="1826.47,-0.5 1826.47,-18.5 1942.35,-18.5 1942.35,-0.5 1826.47,-0.5"/>
<text text-anchor="middle" x="1884.41" y="-6.5" font-family="Helvetica,sans-Serif" font-size="10.00">yarp/os/BufferedPort.h</text>
</g>
<!-- Node18&#45;&gt;Node22 -->
<g id="edge28" class="edge"><title>Node18&#45;&gt;Node22</title>
<path fill="none" stroke="midnightblue" d="M1288.82,-64.8879C1387.77,-57.6463 1614.59,-40.2986 1816.14,-19.0941"/>
<polygon fill="midnightblue" stroke="midnightblue" points="1816.75,-22.5493 1826.33,-18.0169 1816.01,-15.5882 1816.75,-22.5493"/>
</g>
<!-- Node23 -->
<g id="node24" class="node"><title>Node23</title>
<polygon fill="white" stroke="#bfbfbf" points="1960.67,-0.5 1960.67,-18.5 2046.15,-18.5 2046.15,-0.5 1960.67,-0.5"/>
<text text-anchor="middle" x="2003.41" y="-6.5" font-family="Helvetica,sans-Serif" font-size="10.00">yarp/os/Bottle.h</text>
</g>
<!-- Node18&#45;&gt;Node23 -->
<g id="edge29" class="edge"><title>Node18&#45;&gt;Node23</title>
<path fill="none" stroke="midnightblue" d="M1288.7,-66.6133C1403.88,-61.9461 1695.84,-48.1549 1950.43,-18.9965"/>
<polygon fill="midnightblue" stroke="midnightblue" points="1951.08,-22.4446 1960.61,-17.8196 1950.27,-15.4909 1951.08,-22.4446"/>
</g>
<!-- Node24 -->
<g id="node25" class="node"><title>Node24</title>
<polygon fill="white" stroke="#bfbfbf" points="2064.05,-0.5 2064.05,-18.5 2176.77,-18.5 2176.77,-0.5 2064.05,-0.5"/>
<text text-anchor="middle" x="2120.41" y="-6.5" font-family="Helvetica,sans-Serif" font-size="10.00">yarp/os/RateThread.h</text>
</g>
<!-- Node18&#45;&gt;Node24 -->
<g id="edge30" class="edge"><title>Node18&#45;&gt;Node24</title>
<path fill="none" stroke="midnightblue" d="M1288.71,-66.6705C1415.38,-61.8017 1757.97,-47.0148 2053.66,-19.1058"/>
<polygon fill="midnightblue" stroke="midnightblue" points="2054.1,-22.5805 2063.72,-18.1497 2053.43,-15.6119 2054.1,-22.5805"/>
</g>
<!-- Node25 -->
<g id="node26" class="node"><title>Node25</title>
<polygon fill="white" stroke="#bfbfbf" points="2195.16,-0.5 2195.16,-18.5 2305.66,-18.5 2305.66,-0.5 2195.16,-0.5"/>
<text text-anchor="middle" x="2250.41" y="-6.5" font-family="Helvetica,sans-Serif" font-size="10.00">yarp/os/PortReader.h</text>
</g>
<!-- Node18&#45;&gt;Node25 -->
<g id="edge32" class="edge"><title>Node18&#45;&gt;Node25</title>
<path fill="none" stroke="midnightblue" d="M1288.82,-67.2462C1429.03,-63.4633 1835.73,-50.4875 2185.07,-18.942"/>
<polygon fill="midnightblue" stroke="midnightblue" points="2185.49,-22.4187 2195.13,-18.0271 2184.85,-15.4475 2185.49,-22.4187"/>
</g>
<!-- Node18&#45;&gt;Node26 -->
<g id="edge33" class="edge"><title>Node18&#45;&gt;Node26</title>
<path fill="none" stroke="midnightblue" d="M1187.82,-64.5547C1095,-57.1495 891.074,-40.0994 708.369,-19.06"/>
<polygon fill="midnightblue" stroke="midnightblue" points="708.643,-15.5685 698.307,-17.8947 707.838,-22.522 708.643,-15.5685"/>
</g>
<!-- Node27 -->
<g id="node28" class="node"><title>Node27</title>
<polygon fill="white" stroke="#bfbfbf" points="1042.11,-0.5 1042.11,-18.5 1148.71,-18.5 1148.71,-0.5 1042.11,-0.5"/>
<text text-anchor="middle" x="1095.41" y="-6.5" font-family="Helvetica,sans-Serif" font-size="10.00">yarp/os/RpcServer.h</text>
</g>
<!-- Node18&#45;&gt;Node27 -->
<g id="edge34" class="edge"><title>Node18&#45;&gt;Node27</title>
<path fill="none" stroke="midnightblue" d="M1218.53,-60.4353C1194.23,-50.5787 1152.89,-33.813 1124.89,-22.4549"/>
<polygon fill="midnightblue" stroke="midnightblue" points="1126.17,-19.1984 1115.59,-18.6831 1123.54,-25.6851 1126.17,-19.1984"/>
</g>
<!-- Node28 -->
<g id="node29" class="node"><title>Node28</title>
<polygon fill="white" stroke="#bfbfbf" points="1167.04,-0.5 1167.04,-18.5 1309.79,-18.5 1309.79,-0.5 1167.04,-0.5"/>
<text text-anchor="middle" x="1238.41" y="-6.5" font-family="Helvetica,sans-Serif" font-size="10.00">yarp/os/ConnectionReader.h</text>
</g>
<!-- Node18&#45;&gt;Node28 -->
<g id="edge35" class="edge"><title>Node18&#45;&gt;Node28</title>
<path fill="none" stroke="midnightblue" d="M1238.41,-60.4353C1238.41,-52.3891 1238.41,-39.7388 1238.41,-29.1846"/>
<polygon fill="midnightblue" stroke="midnightblue" points="1241.91,-28.8717 1238.41,-18.8718 1234.91,-28.8718 1241.91,-28.8717"/>
</g>
<!-- Node29 -->
<g id="node30" class="node"><title>Node29</title>
<polygon fill="white" stroke="#bfbfbf" points="1327.93,-0.5 1327.93,-18.5 1424.9,-18.5 1424.9,-0.5 1327.93,-0.5"/>
<text text-anchor="middle" x="1376.41" y="-6.5" font-family="Helvetica,sans-Serif" font-size="10.00">yarp/os/Property.h</text>
</g>
<!-- Node18&#45;&gt;Node29 -->
<g id="edge39" class="edge"><title>Node18&#45;&gt;Node29</title>
<path fill="none" stroke="midnightblue" d="M1257.6,-60.4353C1280.95,-50.6217 1320.6,-33.9593 1347.61,-22.604"/>
<polygon fill="midnightblue" stroke="midnightblue" points="1349.08,-25.7844 1356.94,-18.6831 1346.37,-19.3312 1349.08,-25.7844"/>
</g>
<!-- Node30 -->
<g id="node31" class="node"><title>Node30</title>
<polygon fill="white" stroke="#bfbfbf" points="1442.74,-0.5 1442.74,-18.5 1532.09,-18.5 1532.09,-0.5 1442.74,-0.5"/>
<text text-anchor="middle" x="1487.41" y="-6.5" font-family="Helvetica,sans-Serif" font-size="10.00">yarp/sig/Matrix.h</text>
</g>
<!-- Node18&#45;&gt;Node30 -->
<g id="edge41" class="edge"><title>Node18&#45;&gt;Node30</title>
<path fill="none" stroke="midnightblue" d="M1272.77,-60.4962C1317.12,-50.1678 1394.33,-32.1811 1443.06,-20.8308"/>
<polygon fill="midnightblue" stroke="midnightblue" points="1444.06,-24.1921 1453.01,-18.5147 1442.47,-17.3746 1444.06,-24.1921"/>
</g>
<!-- Node31 -->
<g id="node32" class="node"><title>Node31</title>
<polygon fill="white" stroke="#bfbfbf" points="2384.78,-0.5 2384.78,-18.5 2458.04,-18.5 2458.04,-0.5 2384.78,-0.5"/>
<text text-anchor="middle" x="2421.41" y="-6.5" font-family="Helvetica,sans-Serif" font-size="10.00">Eigen/Dense</text>
</g>
<!-- Node18&#45;&gt;Node31 -->
<g id="edge44" class="edge"><title>Node18&#45;&gt;Node31</title>
<path fill="none" stroke="midnightblue" d="M1288.81,-68.8744C1447.39,-69.5084 1950.28,-67.3724 2374.63,-19.0401"/>
<polygon fill="midnightblue" stroke="midnightblue" points="2375.11,-22.5087 2384.64,-17.8898 2374.31,-15.5545 2375.11,-22.5087"/>
</g>
<!-- Node32 -->
<g id="node33" class="node"><title>Node32</title>
<polygon fill="white" stroke="#bfbfbf" points="1550.01,-0.5 1550.01,-18.5 1618.82,-18.5 1618.82,-0.5 1550.01,-0.5"/>
<text text-anchor="middle" x="1584.41" y="-6.5" font-family="Helvetica,sans-Serif" font-size="10.00">Eigen/Lgsm</text>
</g>
<!-- Node18&#45;&gt;Node32 -->
<g id="edge45" class="edge"><title>Node18&#45;&gt;Node32</title>
<path fill="none" stroke="midnightblue" d="M1288.9,-60.778C1347.05,-51.7651 1445.73,-36.1142 1539.74,-19.2588"/>
<polygon fill="midnightblue" stroke="midnightblue" points="1540.48,-22.682 1549.7,-17.465 1539.24,-15.7928 1540.48,-22.682"/>
</g>
<!-- Node35&#45;&gt;Node6 -->
<g id="edge59" class="edge"><title>Node35&#45;&gt;Node6</title>
<path fill="none" stroke="midnightblue" d="M979.406,-350.45C931.692,-341.084 852.879,-325.614 801.299,-315.489"/>
<polygon fill="midnightblue" stroke="midnightblue" points="801.85,-312.03 791.363,-313.538 800.502,-318.899 801.85,-312.03"/>
</g>
<!-- Node35&#45;&gt;Node33 -->
<g id="edge61" class="edge"><title>Node35&#45;&gt;Node33</title>
<path fill="none" stroke="midnightblue" d="M1004.62,-350.45C987.82,-341.89 961.014,-328.229 941.358,-318.212"/>
<polygon fill="midnightblue" stroke="midnightblue" points="942.857,-315.047 932.358,-313.625 939.678,-321.284 942.857,-315.047"/>
</g>
<!-- Node36 -->
<g id="node37" class="node"><title>Node36</title>
<polygon fill="white" stroke="#bfbfbf" points="1151.46,-295.5 1151.46,-313.5 1309.37,-313.5 1309.37,-295.5 1151.46,-295.5"/>
<text text-anchor="middle" x="1230.41" y="-301.5" font-family="Helvetica,sans-Serif" font-size="10.00">ocra&#45;recipes/TrajectoryThread.h</text>
</g>
<!-- Node35&#45;&gt;Node36 -->
<g id="edge60" class="edge"><title>Node35&#45;&gt;Node36</title>
<path fill="none" stroke="midnightblue" d="M1052.31,-350.45C1088.8,-341.24 1148.68,-326.128 1188.81,-315.999"/>
<polygon fill="midnightblue" stroke="midnightblue" points="1189.72,-319.379 1198.56,-313.538 1188.01,-312.592 1189.72,-319.379"/>
</g>
<!-- Node37 -->
<g id="node38" class="node"><title>Node37</title>
<g id="a_node38"><a xlink:href="ZmpPreviewController_8h.html" target="_top" xlink:title="walking&#45;client/ZmpPreview\lController.h">
<polygon fill="white" stroke="black" points="2026.23,-120.5 2026.23,-148.5 2160.6,-148.5 2160.6,-120.5 2026.23,-120.5"/>
<text text-anchor="start" x="2034.23" y="-136.5" font-family="Helvetica,sans-Serif" font-size="10.00">walking&#45;client/ZmpPreview</text>
<text text-anchor="middle" x="2093.41" y="-126.5" font-family="Helvetica,sans-Serif" font-size="10.00">Controller.h</text>
</a>
</g>
</g>
<!-- Node35&#45;&gt;Node37 -->
<g id="edge62" class="edge"><title>Node35&#45;&gt;Node37</title>
<path fill="none" stroke="midnightblue" d="M1084.02,-350.467C1144.52,-342.481 1237.98,-329.244 1318.41,-314 1586.8,-263.133 1903.24,-184.276 2033.15,-151.074"/>
<polygon fill="midnightblue" stroke="midnightblue" points="2034.1,-154.444 2042.92,-148.573 2032.37,-147.663 2034.1,-154.444"/>
</g>
<!-- Node39 -->
<g id="node40" class="node"><title>Node39</title>
<g id="a_node40"><a xlink:href="ZmpController_8h.html" target="_top" xlink:title="walking&#45;client/ZmpController.h">
<polygon fill="white" stroke="black" points="1858.44,-125.5 1858.44,-143.5 2008.39,-143.5 2008.39,-125.5 1858.44,-125.5"/>
<text text-anchor="middle" x="1933.41" y="-131.5" font-family="Helvetica,sans-Serif" font-size="10.00">walking&#45;client/ZmpController.h</text>
</a>
</g>
</g>
<!-- Node35&#45;&gt;Node39 -->
<g id="edge67" class="edge"><title>Node35&#45;&gt;Node39</title>
<path fill="none" stroke="midnightblue" d="M1033.07,-350.345C1078.64,-321.472 1239.47,-223.756 1387.41,-185 1546.41,-143.349 1739.33,-135.366 1848.07,-134.581"/>
<polygon fill="midnightblue" stroke="midnightblue" points="1848.35,-138.08 1858.33,-134.527 1848.31,-131.08 1848.35,-138.08"/>
</g>
<!-- Node37&#45;&gt;Node15 -->
<g id="edge66" class="edge"><title>Node37&#45;&gt;Node15</title>
<path fill="none" stroke="midnightblue" d="M2120.38,-120.337C2169.32,-96.4493 2272.11,-46.2787 2319.93,-22.9362"/>
<polygon fill="midnightblue" stroke="midnightblue" points="2321.55,-26.0428 2329,-18.5111 2318.48,-19.7522 2321.55,-26.0428"/>
</g>
<!-- Node37&#45;&gt;Node18 -->
<g id="edge63" class="edge"><title>Node37&#45;&gt;Node18</title>
<path fill="none" stroke="midnightblue" d="M2025.93,-121.107C2023.05,-120.707 2020.21,-120.336 2017.41,-120 1750.83,-87.9561 1430.26,-75.8624 1298.96,-72.0323"/>
<polygon fill="midnightblue" stroke="midnightblue" points="1298.81,-68.5267 1288.72,-71.7391 1298.61,-75.5238 1298.81,-68.5267"/>
</g>
<!-- Node37&#45;&gt;Node31 -->
<g id="edge65" class="edge"><title>Node37&#45;&gt;Node31</title>
<path fill="none" stroke="midnightblue" d="M2132.73,-120.421C2161.55,-110.704 2201.57,-96.9462 2236.41,-84 2292.09,-63.3174 2356.38,-37.2829 2392.63,-22.4012"/>
<polygon fill="midnightblue" stroke="midnightblue" points="2394.16,-25.5545 2402.08,-18.5132 2391.5,-19.0808 2394.16,-25.5545"/>
</g>
<!-- Node38 -->
<g id="node39" class="node"><title>Node38</title>
<polygon fill="white" stroke="#bfbfbf" points="2017.28,-60.5 2017.28,-78.5 2135.55,-78.5 2135.55,-60.5 2017.28,-60.5"/>
<text text-anchor="middle" x="2076.41" y="-66.5" font-family="Helvetica,sans-Serif" font-size="10.00">ocra/util/ErrorsHelper.h</text>
</g>
<!-- Node37&#45;&gt;Node38 -->
<g id="edge64" class="edge"><title>Node37&#45;&gt;Node38</title>
<path fill="none" stroke="midnightblue" d="M2089.89,-120.446C2087.41,-111.236 2084.04,-98.7759 2081.3,-88.6055"/>
<polygon fill="midnightblue" stroke="midnightblue" points="2084.62,-87.4729 2078.63,-78.7301 2077.86,-89.2966 2084.62,-87.4729"/>
</g>
<!-- Node39&#45;&gt;Node15 -->
<g id="edge71" class="edge"><title>Node39&#45;&gt;Node15</title>
<path fill="none" stroke="midnightblue" d="M1934.7,-125.396C1937.75,-109.01 1947.13,-72.0561 1971.41,-55 2031.8,-12.587 2224.08,-31.6218 2313.62,-18.6332"/>
<polygon fill="midnightblue" stroke="midnightblue" points="2314.21,-22.0826 2323.5,-16.9835 2313.06,-15.1781 2314.21,-22.0826"/>
</g>
<!-- Node39&#45;&gt;Node18 -->
<g id="edge68" class="edge"><title>Node39&#45;&gt;Node18</title>
<path fill="none" stroke="midnightblue" d="M1858.38,-126.698C1719.77,-114.133 1426.17,-87.5194 1299.12,-76.0027"/>
<polygon fill="midnightblue" stroke="midnightblue" points="1299.08,-72.485 1288.8,-75.0679 1298.45,-79.4564 1299.08,-72.485"/>
</g>
<!-- Node39&#45;&gt;Node31 -->
<g id="edge70" class="edge"><title>Node39&#45;&gt;Node31</title>
<path fill="none" stroke="midnightblue" d="M1939.95,-125.334C1954.86,-106.954 1991.38,-63.2882 2008.41,-55 2079.63,-20.3476 2279.88,-29.8617 2374.44,-19.0333"/>
<polygon fill="midnightblue" stroke="midnightblue" points="2375.15,-22.4716 2384.62,-17.7263 2374.26,-15.5287 2375.15,-22.4716"/>
</g>
<!-- Node39&#45;&gt;Node38 -->
<g id="edge69" class="edge"><title>Node39&#45;&gt;Node38</title>
<path fill="none" stroke="midnightblue" d="M1951.82,-125.393C1976.38,-114.572 2020.09,-95.3134 2048.66,-82.7256"/>
<polygon fill="midnightblue" stroke="midnightblue" points="2050.34,-85.8107 2058.08,-78.5761 2047.52,-79.4048 2050.34,-85.8107"/>
</g>
</g>
</svg>
