<?xml version="1.0" encoding="UTF-8" standalone="no"?>
<!DOCTYPE svg PUBLIC "-//W3C//DTD SVG 1.1//EN"
 "http://www.w3.org/Graphics/SVG/1.1/DTD/svg11.dtd">
<!-- Generated by graphviz version 2.38.0 (20140413.2041)
 -->
<!-- Title: /Users/jorhabibeljaik/Code/codyco&#45;superbuild/main/ocra&#45;wbi&#45;plugins/ocra&#45;icub/include/ocra&#45;icub/OcraWbiConversions.h Pages: 1 -->
<svg width="2466pt" height="187pt"
 viewBox="0.00 0.00 2465.66 187.00" xmlns="http://www.w3.org/2000/svg" xmlns:xlink="http://www.w3.org/1999/xlink">
<g id="graph0" class="graph" transform="scale(1 1) rotate(0) translate(4 183)">
<title>/Users/jorhabibeljaik/Code/codyco&#45;superbuild/main/ocra&#45;wbi&#45;plugins/ocra&#45;icub/include/ocra&#45;icub/OcraWbiConversions.h</title>
<polygon fill="white" stroke="none" points="-4,4 -4,-183 2461.66,-183 2461.66,4 -4,4"/>
<!-- Node0 -->
<g id="node1" class="node"><title>Node0</title>
<polygon fill="#bfbfbf" stroke="black" points="250.54,-120.5 250.54,-178.5 393.805,-178.5 393.805,-120.5 250.54,-120.5"/>
<text text-anchor="start" x="258.54" y="-166.5" font-family="Helvetica,sans-Serif" font-size="10.00">/Users/jorhabibeljaik</text>
<text text-anchor="start" x="258.54" y="-156.5" font-family="Helvetica,sans-Serif" font-size="10.00">/Code/codyco&#45;superbuild</text>
<text text-anchor="start" x="258.54" y="-146.5" font-family="Helvetica,sans-Serif" font-size="10.00">/main/ocra&#45;wbi&#45;plugins</text>
<text text-anchor="start" x="258.54" y="-136.5" font-family="Helvetica,sans-Serif" font-size="10.00">/ocra&#45;icub/include/ocra</text>
<text text-anchor="middle" x="322.172" y="-126.5" font-family="Helvetica,sans-Serif" font-size="10.00">&#45;icub/OcraWbiConversions.h</text>
</g>
<!-- Node1 -->
<g id="node2" class="node"><title>Node1</title>
<polygon fill="white" stroke="#bfbfbf" points="0,-0.5 0,-18.5 54.3447,-18.5 54.3447,-0.5 0,-0.5"/>
<text text-anchor="middle" x="27.1724" y="-6.5" font-family="Helvetica,sans-Serif" font-size="10.00">iostream</text>
</g>
<!-- Node0&#45;&gt;Node1 -->
<g id="edge1" class="edge"><title>Node0&#45;&gt;Node1</title>
<path fill="none" stroke="midnightblue" d="M250.304,-121.009C223.053,-110.104 191.917,-97.0614 164.172,-84 123.066,-64.6478 76.7851,-38.9674 49.9072,-23.6477"/>
<polygon fill="midnightblue" stroke="midnightblue" points="51.3449,-20.4377 40.9282,-18.5032 47.865,-26.5114 51.3449,-20.4377"/>
</g>
<!-- Node2 -->
<g id="node3" class="node"><title>Node2</title>
<polygon fill="white" stroke="#bfbfbf" points="981.446,-60.5 981.446,-78.5 1016.9,-78.5 1016.9,-60.5 981.446,-60.5"/>
<text text-anchor="middle" x="999.172" y="-66.5" font-family="Helvetica,sans-Serif" font-size="10.00">map</text>
</g>
<!-- Node0&#45;&gt;Node2 -->
<g id="edge2" class="edge"><title>Node0&#45;&gt;Node2</title>
<path fill="none" stroke="midnightblue" d="M393.843,-144.679C539.452,-136.378 865.134,-114.927 972.172,-84 973.447,-83.6318 974.733,-83.2044 976.017,-82.7331"/>
<polygon fill="midnightblue" stroke="midnightblue" points="977.823,-85.7614 985.553,-78.516 974.992,-79.3594 977.823,-85.7614"/>
</g>
<!-- Node3 -->
<g id="node4" class="node"><title>Node3</title>
<polygon fill="white" stroke="#bfbfbf" points="72.5566,-0.5 72.5566,-18.5 115.788,-18.5 115.788,-0.5 72.5566,-0.5"/>
<text text-anchor="middle" x="94.1724" y="-6.5" font-family="Helvetica,sans-Serif" font-size="10.00">vector</text>
</g>
<!-- Node0&#45;&gt;Node3 -->
<g id="edge3" class="edge"><title>Node0&#45;&gt;Node3</title>
<path fill="none" stroke="midnightblue" d="M275.758,-120.407C227.232,-91.0363 153.136,-46.1884 116.408,-23.9583"/>
<polygon fill="midnightblue" stroke="midnightblue" points="117.869,-20.7516 107.502,-18.5678 114.244,-26.7401 117.869,-20.7516"/>
</g>
<!-- Node4 -->
<g id="node5" class="node"><title>Node4</title>
<polygon fill="white" stroke="#bfbfbf" points="134.202,-0.5 134.202,-18.5 224.143,-18.5 224.143,-0.5 134.202,-0.5"/>
<text text-anchor="middle" x="179.172" y="-6.5" font-family="Helvetica,sans-Serif" font-size="10.00">yarp/sig/Vector.h</text>
</g>
<!-- Node0&#45;&gt;Node4 -->
<g id="edge4" class="edge"><title>Node0&#45;&gt;Node4</title>
<path fill="none" stroke="midnightblue" d="M292.889,-120.241C263.213,-91.6021 218.42,-48.3755 194.888,-25.6662"/>
<polygon fill="midnightblue" stroke="midnightblue" points="197.137,-22.9724 187.511,-18.5468 192.276,-28.0095 197.137,-22.9724"/>
</g>
<!-- Node5 -->
<g id="node6" class="node"><title>Node5</title>
<polygon fill="white" stroke="#bfbfbf" points="241.875,-0.5 241.875,-18.5 318.47,-18.5 318.47,-0.5 241.875,-0.5"/>
<text text-anchor="middle" x="280.172" y="-6.5" font-family="Helvetica,sans-Serif" font-size="10.00">yarp/os/Log.h</text>
</g>
<!-- Node0&#45;&gt;Node5 -->
<g id="edge5" class="edge"><title>Node0&#45;&gt;Node5</title>
<path fill="none" stroke="midnightblue" d="M313.572,-120.241C305.16,-92.6026 292.613,-51.3779 285.535,-28.1198"/>
<polygon fill="midnightblue" stroke="midnightblue" points="288.881,-27.0944 282.621,-18.5468 282.185,-29.1326 288.881,-27.0944"/>
</g>
<!-- Node6 -->
<g id="node7" class="node"><title>Node6</title>
<polygon fill="white" stroke="#bfbfbf" points="336.608,-0.5 336.608,-18.5 393.736,-18.5 393.736,-0.5 336.608,-0.5"/>
<text text-anchor="middle" x="365.172" y="-6.5" font-family="Helvetica,sans-Serif" font-size="10.00">wbi/wbi.h</text>
</g>
<!-- Node0&#45;&gt;Node6 -->
<g id="edge6" class="edge"><title>Node0&#45;&gt;Node6</title>
<path fill="none" stroke="midnightblue" d="M330.978,-120.241C339.59,-92.6026 352.435,-51.3779 359.682,-28.1198"/>
<polygon fill="midnightblue" stroke="midnightblue" points="363.032,-29.1353 362.665,-18.5468 356.349,-27.0528 363.032,-29.1353"/>
</g>
<!-- Node7 -->
<g id="node8" class="node"><title>Node7</title>
<polygon fill="white" stroke="#bfbfbf" points="1034.86,-55.5 1034.86,-83.5 1171.48,-83.5 1171.48,-55.5 1034.86,-55.5"/>
<text text-anchor="start" x="1042.86" y="-71.5" font-family="Helvetica,sans-Serif" font-size="10.00">yarpWholeBodyInterface</text>
<text text-anchor="middle" x="1103.17" y="-61.5" font-family="Helvetica,sans-Serif" font-size="10.00">/yarpWholeBodyInterface.h</text>
</g>
<!-- Node0&#45;&gt;Node7 -->
<g id="edge7" class="edge"><title>Node0&#45;&gt;Node7</title>
<path fill="none" stroke="midnightblue" d="M393.841,-143.888C519.563,-135.37 788.187,-115.258 1024.62,-84.1385"/>
<polygon fill="midnightblue" stroke="midnightblue" points="1025.33,-87.5746 1034.78,-82.7908 1024.41,-80.6353 1025.33,-87.5746"/>
</g>
<!-- Node8 -->
<g id="node9" class="node"><title>Node8</title>
<g id="a_node9"><a xlink:href="Utilities_8h.html" target="_top" xlink:title="Some useful tools for the ocra&#45;icub lib. ">
<polygon fill="white" stroke="black" points="862.936,-60.5 862.936,-78.5 963.409,-78.5 963.409,-60.5 862.936,-60.5"/>
<text text-anchor="middle" x="913.172" y="-66.5" font-family="Helvetica,sans-Serif" font-size="10.00">ocra&#45;icub/Utilities.h</text>
</a>
</g>
</g>
<!-- Node0&#45;&gt;Node8 -->
<g id="edge8" class="edge"><title>Node0&#45;&gt;Node8</title>
<path fill="none" stroke="midnightblue" d="M394.05,-139.014C511.614,-123.498 742.904,-92.9719 852.642,-78.4888"/>
<polygon fill="midnightblue" stroke="midnightblue" points="853.418,-81.9168 862.874,-77.1383 852.502,-74.977 853.418,-81.9168"/>
</g>
<!-- Node8&#45;&gt;Node1 -->
<g id="edge11" class="edge"><title>Node8&#45;&gt;Node1</title>
<path fill="none" stroke="midnightblue" d="M862.565,-68.6073C731.796,-68.2328 371.96,-63.0637 64.5893,-18.944"/>
<polygon fill="midnightblue" stroke="midnightblue" points="64.9943,-15.4662 54.5952,-17.4929 63.9885,-22.3936 64.9943,-15.4662"/>
</g>
<!-- Node8&#45;&gt;Node3 -->
<g id="edge13" class="edge"><title>Node8&#45;&gt;Node3</title>
<path fill="none" stroke="midnightblue" d="M862.522,-68.8946C738.263,-69.0993 408.511,-65.0199 126.09,-18.7628"/>
<polygon fill="midnightblue" stroke="midnightblue" points="126.502,-15.2833 116.064,-17.0994 125.356,-22.189 126.502,-15.2833"/>
</g>
<!-- Node8&#45;&gt;Node4 -->
<g id="edge27" class="edge"><title>Node8&#45;&gt;Node4</title>
<path fill="none" stroke="midnightblue" d="M862.707,-66.2698C751.238,-61.0323 475.45,-46.3636 234.226,-19.0223"/>
<polygon fill="midnightblue" stroke="midnightblue" points="234.548,-15.5364 224.215,-17.878 233.753,-22.4911 234.548,-15.5364"/>
</g>
<!-- Node8&#45;&gt;Node5 -->
<g id="edge24" class="edge"><title>Node8&#45;&gt;Node5</title>
<path fill="none" stroke="midnightblue" d="M862.832,-65.8576C762.875,-60.2619 532.136,-45.6062 328.578,-19.0688"/>
<polygon fill="midnightblue" stroke="midnightblue" points="328.971,-15.5904 318.6,-17.7554 328.058,-22.5306 328.971,-15.5904"/>
</g>
<!-- Node8&#45;&gt;Node6 -->
<g id="edge29" class="edge"><title>Node8&#45;&gt;Node6</title>
<path fill="none" stroke="midnightblue" d="M862.848,-65.7886C772.648,-60.4585 577.386,-46.7847 403.864,-19.0863"/>
<polygon fill="midnightblue" stroke="midnightblue" points="404.214,-15.5976 393.783,-17.4573 403.097,-22.5079 404.214,-15.5976"/>
</g>
<!-- Node9 -->
<g id="node10" class="node"><title>Node9</title>
<polygon fill="white" stroke="#bfbfbf" points="821.116,-0.5 821.116,-18.5 873.229,-18.5 873.229,-0.5 821.116,-0.5"/>
<text text-anchor="middle" x="847.172" y="-6.5" font-family="Helvetica,sans-Serif" font-size="10.00">memory</text>
</g>
<!-- Node8&#45;&gt;Node9 -->
<g id="edge9" class="edge"><title>Node8&#45;&gt;Node9</title>
<path fill="none" stroke="midnightblue" d="M903.995,-60.4353C893.768,-51.4475 877.003,-36.7151 864.328,-25.5762"/>
<polygon fill="midnightblue" stroke="midnightblue" points="866.521,-22.8438 856.699,-18.8718 861.9,-28.102 866.521,-22.8438"/>
</g>
<!-- Node10 -->
<g id="node11" class="node"><title>Node10</title>
<polygon fill="white" stroke="#bfbfbf" points="891.557,-0.5 891.557,-18.5 934.788,-18.5 934.788,-0.5 891.557,-0.5"/>
<text text-anchor="middle" x="913.172" y="-6.5" font-family="Helvetica,sans-Serif" font-size="10.00">cmath</text>
</g>
<!-- Node8&#45;&gt;Node10 -->
<g id="edge10" class="edge"><title>Node8&#45;&gt;Node10</title>
<path fill="none" stroke="midnightblue" d="M913.172,-60.4353C913.172,-52.3891 913.172,-39.7388 913.172,-29.1846"/>
<polygon fill="midnightblue" stroke="midnightblue" points="916.672,-28.8717 913.172,-18.8718 909.672,-28.8718 916.672,-28.8717"/>
</g>
<!-- Node11 -->
<g id="node12" class="node"><title>Node11</title>
<polygon fill="white" stroke="#bfbfbf" points="952.946,-0.5 952.946,-18.5 993.399,-18.5 993.399,-0.5 952.946,-0.5"/>
<text text-anchor="middle" x="973.172" y="-6.5" font-family="Helvetica,sans-Serif" font-size="10.00">string</text>
</g>
<!-- Node8&#45;&gt;Node11 -->
<g id="edge12" class="edge"><title>Node8&#45;&gt;Node11</title>
<path fill="none" stroke="midnightblue" d="M921.515,-60.4353C930.724,-51.5331 945.764,-36.9952 957.246,-25.8954"/>
<polygon fill="midnightblue" stroke="midnightblue" points="959.755,-28.3385 964.512,-18.8718 954.889,-23.3055 959.755,-28.3385"/>
</g>
<!-- Node12 -->
<g id="node13" class="node"><title>Node12</title>
<polygon fill="white" stroke="#bfbfbf" points="1011.39,-0.5 1011.39,-18.5 1062.95,-18.5 1062.95,-0.5 1011.39,-0.5"/>
<text text-anchor="middle" x="1037.17" y="-6.5" font-family="Helvetica,sans-Serif" font-size="10.00">sstream</text>
</g>
<!-- Node8&#45;&gt;Node12 -->
<g id="edge14" class="edge"><title>Node8&#45;&gt;Node12</title>
<path fill="none" stroke="midnightblue" d="M930.414,-60.4353C951.119,-50.7508 986.083,-34.3966 1010.33,-23.055"/>
<polygon fill="midnightblue" stroke="midnightblue" points="1012.1,-26.0904 1019.68,-18.6831 1009.14,-19.7497 1012.1,-26.0904"/>
</g>
<!-- Node13 -->
<g id="node14" class="node"><title>Node13</title>
<polygon fill="white" stroke="#bfbfbf" points="1081.23,-0.5 1081.23,-18.5 1197.11,-18.5 1197.11,-0.5 1081.23,-0.5"/>
<text text-anchor="middle" x="1139.17" y="-6.5" font-family="Helvetica,sans-Serif" font-size="10.00">yarp/os/BufferedPort.h</text>
</g>
<!-- Node8&#45;&gt;Node13 -->
<g id="edge15" class="edge"><title>Node8&#45;&gt;Node13</title>
<path fill="none" stroke="midnightblue" d="M944.597,-60.4353C984.542,-50.1839 1053.61,-32.459 1097.8,-21.1171"/>
<polygon fill="midnightblue" stroke="midnightblue" points="1098.84,-24.4655 1107.65,-18.5894 1097.1,-17.6852 1098.84,-24.4655"/>
</g>
<!-- Node14 -->
<g id="node15" class="node"><title>Node14</title>
<polygon fill="white" stroke="#bfbfbf" points="1215.43,-0.5 1215.43,-18.5 1300.91,-18.5 1300.91,-0.5 1215.43,-0.5"/>
<text text-anchor="middle" x="1258.17" y="-6.5" font-family="Helvetica,sans-Serif" font-size="10.00">yarp/os/Bottle.h</text>
</g>
<!-- Node8&#45;&gt;Node14 -->
<g id="edge16" class="edge"><title>Node8&#45;&gt;Node14</title>
<path fill="none" stroke="midnightblue" d="M946.47,-60.4387C954.836,-58.5354 963.812,-56.5974 972.172,-55 1072.4,-35.8499 1100.56,-35.4916 1205.29,-19.1174"/>
<polygon fill="midnightblue" stroke="midnightblue" points="1206,-22.5498 1215.33,-17.5359 1204.91,-15.6351 1206,-22.5498"/>
</g>
<!-- Node15 -->
<g id="node16" class="node"><title>Node15</title>
<polygon fill="white" stroke="#bfbfbf" points="1318.81,-0.5 1318.81,-18.5 1431.53,-18.5 1431.53,-0.5 1318.81,-0.5"/>
<text text-anchor="middle" x="1375.17" y="-6.5" font-family="Helvetica,sans-Serif" font-size="10.00">yarp/os/RateThread.h</text>
</g>
<!-- Node8&#45;&gt;Node15 -->
<g id="edge17" class="edge"><title>Node8&#45;&gt;Node15</title>
<path fill="none" stroke="midnightblue" d="M945.186,-60.4465C953.899,-58.4544 963.363,-56.4717 972.172,-55 1117.98,-30.6426 1158.43,-36.5229 1308.75,-19.1336"/>
<polygon fill="midnightblue" stroke="midnightblue" points="1309.29,-22.5946 1318.81,-17.954 1308.47,-15.6422 1309.29,-22.5946"/>
</g>
<!-- Node16 -->
<g id="node17" class="node"><title>Node16</title>
<polygon fill="white" stroke="#bfbfbf" points="1449.92,-0.5 1449.92,-18.5 1580.43,-18.5 1580.43,-0.5 1449.92,-0.5"/>
<text text-anchor="middle" x="1515.17" y="-6.5" font-family="Helvetica,sans-Serif" font-size="10.00">yarp/os/ResourceFinder.h</text>
</g>
<!-- Node8&#45;&gt;Node16 -->
<g id="edge18" class="edge"><title>Node8&#45;&gt;Node16</title>
<path fill="none" stroke="midnightblue" d="M944.239,-60.4844C953.202,-58.4191 963.031,-56.3897 972.172,-55 1175.19,-24.1382 1230.77,-38.2889 1439.68,-19.0004"/>
<polygon fill="midnightblue" stroke="midnightblue" points="1440.11,-22.475 1449.74,-18.0563 1439.46,-15.5056 1440.11,-22.475"/>
</g>
<!-- Node17 -->
<g id="node18" class="node"><title>Node17</title>
<polygon fill="white" stroke="#bfbfbf" points="1598.92,-0.5 1598.92,-18.5 1709.42,-18.5 1709.42,-0.5 1598.92,-0.5"/>
<text text-anchor="middle" x="1654.17" y="-6.5" font-family="Helvetica,sans-Serif" font-size="10.00">yarp/os/PortReader.h</text>
</g>
<!-- Node8&#45;&gt;Node17 -->
<g id="edge19" class="edge"><title>Node8&#45;&gt;Node17</title>
<path fill="none" stroke="midnightblue" d="M943.918,-60.4456C952.962,-58.3537 962.914,-56.3199 972.172,-55 1240.79,-16.7042 1313.92,-44.1373 1588.61,-18.9619"/>
<polygon fill="midnightblue" stroke="midnightblue" points="1589.25,-22.4171 1598.88,-18.0043 1588.6,-15.4473 1589.25,-22.4171"/>
</g>
<!-- Node18 -->
<g id="node19" class="node"><title>Node18</title>
<polygon fill="white" stroke="#bfbfbf" points="1727.54,-0.5 1727.54,-18.5 1830.8,-18.5 1830.8,-0.5 1727.54,-0.5"/>
<text text-anchor="middle" x="1779.17" y="-6.5" font-family="Helvetica,sans-Serif" font-size="10.00">yarp/os/RpcClient.h</text>
</g>
<!-- Node8&#45;&gt;Node18 -->
<g id="edge20" class="edge"><title>Node8&#45;&gt;Node18</title>
<path fill="none" stroke="midnightblue" d="M943.605,-60.4567C952.73,-58.3384 962.803,-56.2876 972.172,-55 1297.65,-10.2675 1385.87,-49.1232 1716.93,-19.0114"/>
<polygon fill="midnightblue" stroke="midnightblue" points="1717.66,-22.4587 1727.3,-18.0532 1717.02,-15.4884 1717.66,-22.4587"/>
</g>
<!-- Node19 -->
<g id="node20" class="node"><title>Node19</title>
<polygon fill="white" stroke="#bfbfbf" points="1848.87,-0.5 1848.87,-18.5 1955.47,-18.5 1955.47,-0.5 1848.87,-0.5"/>
<text text-anchor="middle" x="1902.17" y="-6.5" font-family="Helvetica,sans-Serif" font-size="10.00">yarp/os/RpcServer.h</text>
</g>
<!-- Node8&#45;&gt;Node19 -->
<g id="edge21" class="edge"><title>Node8&#45;&gt;Node19</title>
<path fill="none" stroke="midnightblue" d="M943.296,-60.4873C952.5,-58.3428 962.695,-56.2699 972.172,-55 1351.59,-4.16182 1453.84,-52.4212 1838.76,-19.0295"/>
<polygon fill="midnightblue" stroke="midnightblue" points="1839.12,-22.5113 1848.77,-18.1478 1838.51,-15.5383 1839.12,-22.5113"/>
</g>
<!-- Node20 -->
<g id="node21" class="node"><title>Node20</title>
<polygon fill="white" stroke="#bfbfbf" points="1973.8,-0.5 1973.8,-18.5 2116.55,-18.5 2116.55,-0.5 1973.8,-0.5"/>
<text text-anchor="middle" x="2045.17" y="-6.5" font-family="Helvetica,sans-Serif" font-size="10.00">yarp/os/ConnectionReader.h</text>
</g>
<!-- Node8&#45;&gt;Node20 -->
<g id="edge22" class="edge"><title>Node8&#45;&gt;Node20</title>
<path fill="none" stroke="midnightblue" d="M943.292,-60.4568C952.496,-58.3111 962.692,-56.2453 972.172,-55 1406.28,2.02291 1522.33,-49.2516 1963.49,-18.9807"/>
<polygon fill="midnightblue" stroke="midnightblue" points="1963.91,-22.4603 1973.64,-18.2739 1963.42,-15.4772 1963.91,-22.4603"/>
</g>
<!-- Node21 -->
<g id="node22" class="node"><title>Node21</title>
<polygon fill="white" stroke="#bfbfbf" points="2134.29,-0.5 2134.29,-18.5 2216.06,-18.5 2216.06,-0.5 2134.29,-0.5"/>
<text text-anchor="middle" x="2175.17" y="-6.5" font-family="Helvetica,sans-Serif" font-size="10.00">yarp/os/Time.h</text>
</g>
<!-- Node8&#45;&gt;Node21 -->
<g id="edge23" class="edge"><title>Node8&#45;&gt;Node21</title>
<path fill="none" stroke="midnightblue" d="M942.985,-60.4977C952.268,-58.3256 962.584,-56.2348 972.172,-55 1477.32,10.0533 1613.24,-69.0269 2123.82,-18.9673"/>
<polygon fill="midnightblue" stroke="midnightblue" points="2124.43,-22.4242 2134.03,-17.9536 2123.74,-15.4584 2124.43,-22.4242"/>
</g>
<!-- Node22 -->
<g id="node23" class="node"><title>Node22</title>
<polygon fill="white" stroke="#bfbfbf" points="2233.76,-0.5 2233.76,-18.5 2342.59,-18.5 2342.59,-0.5 2233.76,-0.5"/>
<text text-anchor="middle" x="2288.17" y="-6.5" font-family="Helvetica,sans-Serif" font-size="10.00">yarp/os/LogStream.h</text>
</g>
<!-- Node8&#45;&gt;Node22 -->
<g id="edge25" class="edge"><title>Node8&#45;&gt;Node22</title>
<path fill="none" stroke="midnightblue" d="M942.983,-60.483C952.266,-58.3103 962.583,-56.2228 972.172,-55 1521.44,15.0412 1668.11,-63.3405 2223.3,-19.0544"/>
<polygon fill="midnightblue" stroke="midnightblue" points="2223.89,-22.5183 2233.57,-18.2245 2223.33,-15.541 2223.89,-22.5183"/>
</g>
<!-- Node23 -->
<g id="node24" class="node"><title>Node23</title>
<polygon fill="white" stroke="#bfbfbf" points="2360.69,-0.5 2360.69,-18.5 2457.66,-18.5 2457.66,-0.5 2360.69,-0.5"/>
<text text-anchor="middle" x="2409.17" y="-6.5" font-family="Helvetica,sans-Serif" font-size="10.00">yarp/os/Property.h</text>
</g>
<!-- Node8&#45;&gt;Node23 -->
<g id="edge26" class="edge"><title>Node8&#45;&gt;Node23</title>
<path fill="none" stroke="midnightblue" d="M942.981,-60.4675C952.264,-58.2942 962.581,-56.2102 972.172,-55 1577.03,21.3235 1738.52,-70.5017 2350.08,-18.9525"/>
<polygon fill="midnightblue" stroke="midnightblue" points="2350.82,-22.4024 2360.49,-18.0654 2350.23,-15.4277 2350.82,-22.4024"/>
</g>
<!-- Node24 -->
<g id="node25" class="node"><title>Node24</title>
<polygon fill="white" stroke="#bfbfbf" points="411.495,-0.5 411.495,-18.5 500.85,-18.5 500.85,-0.5 411.495,-0.5"/>
<text text-anchor="middle" x="456.172" y="-6.5" font-family="Helvetica,sans-Serif" font-size="10.00">yarp/sig/Matrix.h</text>
</g>
<!-- Node8&#45;&gt;Node24 -->
<g id="edge28" class="edge"><title>Node8&#45;&gt;Node24</title>
<path fill="none" stroke="midnightblue" d="M862.839,-62.8728C788.354,-54.4232 644.138,-37.5958 510.923,-19.0617"/>
<polygon fill="midnightblue" stroke="midnightblue" points="511.332,-15.5849 500.944,-17.6671 510.363,-22.5175 511.332,-15.5849"/>
</g>
<!-- Node25 -->
<g id="node26" class="node"><title>Node25</title>
<polygon fill="white" stroke="#bfbfbf" points="518.872,-0.5 518.872,-18.5 625.473,-18.5 625.473,-0.5 518.872,-0.5"/>
<text text-anchor="middle" x="572.172" y="-6.5" font-family="Helvetica,sans-Serif" font-size="10.00">ocra/control/Model.h</text>
</g>
<!-- Node8&#45;&gt;Node25 -->
<g id="edge30" class="edge"><title>Node8&#45;&gt;Node25</title>
<path fill="none" stroke="midnightblue" d="M866.116,-60.4962C804.249,-49.9734 695.644,-31.501 629.183,-20.1969"/>
<polygon fill="midnightblue" stroke="midnightblue" points="629.739,-16.7411 619.293,-18.5147 628.565,-23.642 629.739,-16.7411"/>
</g>
<!-- Node26 -->
<g id="node27" class="node"><title>Node26</title>
<polygon fill="white" stroke="#bfbfbf" points="643.542,-0.5 643.542,-18.5 716.803,-18.5 716.803,-0.5 643.542,-0.5"/>
<text text-anchor="middle" x="680.172" y="-6.5" font-family="Helvetica,sans-Serif" font-size="10.00">Eigen/Dense</text>
</g>
<!-- Node8&#45;&gt;Node26 -->
<g id="edge31" class="edge"><title>Node8&#45;&gt;Node26</title>
<path fill="none" stroke="midnightblue" d="M880.775,-60.4353C839.506,-50.1624 768.087,-32.3844 722.537,-21.0456"/>
<polygon fill="midnightblue" stroke="midnightblue" points="723.219,-17.6087 712.67,-18.5894 721.528,-24.4014 723.219,-17.6087"/>
</g>
<!-- Node27 -->
<g id="node28" class="node"><title>Node27</title>
<polygon fill="white" stroke="#bfbfbf" points="734.769,-0.5 734.769,-18.5 803.576,-18.5 803.576,-0.5 734.769,-0.5"/>
<text text-anchor="middle" x="769.172" y="-6.5" font-family="Helvetica,sans-Serif" font-size="10.00">Eigen/Lgsm</text>
</g>
<!-- Node8&#45;&gt;Node27 -->
<g id="edge32" class="edge"><title>Node8&#45;&gt;Node27</title>
<path fill="none" stroke="midnightblue" d="M893.15,-60.4353C868.678,-50.5787 827.053,-33.813 798.854,-22.4549"/>
<polygon fill="midnightblue" stroke="midnightblue" points="800.073,-19.1728 789.489,-18.6831 797.457,-25.6659 800.073,-19.1728"/>
</g>
</g>
</svg>
