<?xml version="1.0" encoding="UTF-8" standalone="no"?>
<!DOCTYPE svg PUBLIC "-//W3C//DTD SVG 1.1//EN"
 "http://www.w3.org/Graphics/SVG/1.1/DTD/svg11.dtd">
<!-- Generated by graphviz version 2.38.0 (20140413.2041)
 -->
<!-- Title: /Users/jorhabibeljaik/Code/codyco&#45;superbuild/main/ocra&#45;wbi&#45;plugins/ocra&#45;icub/include/ocra&#45;icub/OcraWbiModel.h Pages: 1 -->
<svg width="2604pt" height="242pt"
 viewBox="0.00 0.00 2604.35 242.00" xmlns="http://www.w3.org/2000/svg" xmlns:xlink="http://www.w3.org/1999/xlink">
<g id="graph0" class="graph" transform="scale(1 1) rotate(0) translate(4 238)">
<title>/Users/jorhabibeljaik/Code/codyco&#45;superbuild/main/ocra&#45;wbi&#45;plugins/ocra&#45;icub/include/ocra&#45;icub/OcraWbiModel.h</title>
<polygon fill="white" stroke="none" points="-4,4 -4,-238 2600.35,-238 2600.35,4 -4,4"/>
<!-- Node0 -->
<g id="node1" class="node"><title>Node0</title>
<polygon fill="#bfbfbf" stroke="black" points="1910.75,-175.5 1910.75,-233.5 2037.37,-233.5 2037.37,-175.5 1910.75,-175.5"/>
<text text-anchor="start" x="1918.75" y="-221.5" font-family="Helvetica,sans-Serif" font-size="10.00">/Users/jorhabibeljaik</text>
<text text-anchor="start" x="1918.75" y="-211.5" font-family="Helvetica,sans-Serif" font-size="10.00">/Code/codyco&#45;superbuild</text>
<text text-anchor="start" x="1918.75" y="-201.5" font-family="Helvetica,sans-Serif" font-size="10.00">/main/ocra&#45;wbi&#45;plugins</text>
<text text-anchor="start" x="1918.75" y="-191.5" font-family="Helvetica,sans-Serif" font-size="10.00">/ocra&#45;icub/include/ocra</text>
<text text-anchor="middle" x="1974.06" y="-181.5" font-family="Helvetica,sans-Serif" font-size="10.00">&#45;icub/OcraWbiModel.h</text>
</g>
<!-- Node1 -->
<g id="node2" class="node"><title>Node1</title>
<polygon fill="white" stroke="#bfbfbf" points="0,-0.5 0,-18.5 52.1133,-18.5 52.1133,-0.5 0,-0.5"/>
<text text-anchor="middle" x="26.0566" y="-6.5" font-family="Helvetica,sans-Serif" font-size="10.00">memory</text>
</g>
<!-- Node0&#45;&gt;Node1 -->
<g id="edge1" class="edge"><title>Node0&#45;&gt;Node1</title>
<path fill="none" stroke="midnightblue" d="M1910.46,-200.073C1705.09,-188.641 1041.21,-148.83 495.057,-84 304.592,-61.3913 254.123,-56.6515 62.2157,-19.0896"/>
<polygon fill="midnightblue" stroke="midnightblue" points="62.861,-15.6496 52.3742,-17.159 61.5134,-22.5186 62.861,-15.6496"/>
</g>
<!-- Node2 -->
<g id="node3" class="node"><title>Node2</title>
<polygon fill="white" stroke="#bfbfbf" points="69.7563,-0.5 69.7563,-18.5 176.357,-18.5 176.357,-0.5 69.7563,-0.5"/>
<text text-anchor="middle" x="123.057" y="-6.5" font-family="Helvetica,sans-Serif" font-size="10.00">ocra/control/Model.h</text>
</g>
<!-- Node0&#45;&gt;Node2 -->
<g id="edge2" class="edge"><title>Node0&#45;&gt;Node2</title>
<path fill="none" stroke="midnightblue" d="M1910.59,-197.73C1680.36,-176.635 867.322,-100.713 186.489,-19.1404"/>
<polygon fill="midnightblue" stroke="midnightblue" points="186.822,-15.6554 176.476,-17.9392 185.988,-22.6055 186.822,-15.6554"/>
</g>
<!-- Node3 -->
<g id="node4" class="node"><title>Node3</title>
<polygon fill="white" stroke="#bfbfbf" points="2202.49,-0.5 2202.49,-18.5 2259.62,-18.5 2259.62,-0.5 2202.49,-0.5"/>
<text text-anchor="middle" x="2231.06" y="-6.5" font-family="Helvetica,sans-Serif" font-size="10.00">wbi/wbi.h</text>
</g>
<!-- Node0&#45;&gt;Node3 -->
<g id="edge3" class="edge"><title>Node0&#45;&gt;Node3</title>
<path fill="none" stroke="midnightblue" d="M2004.2,-175.414C2038.55,-144.123 2097.08,-92.9498 2152.06,-55 2169.22,-43.1518 2189.78,-31.6474 2205.62,-23.3048"/>
<polygon fill="midnightblue" stroke="midnightblue" points="2207.54,-26.2544 2214.81,-18.5442 2204.32,-20.0401 2207.54,-26.2544"/>
</g>
<!-- Node4 -->
<g id="node5" class="node"><title>Node4</title>
<polygon fill="white" stroke="#bfbfbf" points="2519.76,-0.5 2519.76,-18.5 2596.35,-18.5 2596.35,-0.5 2519.76,-0.5"/>
<text text-anchor="middle" x="2558.06" y="-6.5" font-family="Helvetica,sans-Serif" font-size="10.00">yarp/os/Log.h</text>
</g>
<!-- Node0&#45;&gt;Node4 -->
<g id="edge4" class="edge"><title>Node0&#45;&gt;Node4</title>
<path fill="none" stroke="midnightblue" d="M2037.49,-202.42C2126.42,-199.137 2292.06,-186.505 2424.06,-139 2468.16,-123.126 2481.06,-117.299 2514.06,-84 2530.37,-67.5349 2543.13,-43.8744 2550.62,-27.8831"/>
<polygon fill="midnightblue" stroke="midnightblue" points="2553.86,-29.1918 2554.76,-18.6347 2547.48,-26.3309 2553.86,-29.1918"/>
</g>
<!-- Node5 -->
<g id="node6" class="node"><title>Node5</title>
<g id="a_node6"><a xlink:href="OcraWbiConversions_8h.html" target="_top" xlink:title="A utility class full of static conversion functions. ">
<polygon fill="white" stroke="black" points="2252.7,-120.5 2252.7,-138.5 2415.42,-138.5 2415.42,-120.5 2252.7,-120.5"/>
<text text-anchor="middle" x="2334.06" y="-126.5" font-family="Helvetica,sans-Serif" font-size="10.00">ocra&#45;icub/OcraWbiConversions.h</text>
</a>
</g>
</g>
<!-- Node0&#45;&gt;Node5 -->
<g id="edge5" class="edge"><title>Node0&#45;&gt;Node5</title>
<path fill="none" stroke="midnightblue" d="M2037.59,-190.617C2108.1,-176.319 2220.39,-153.548 2284.64,-140.521"/>
<polygon fill="midnightblue" stroke="midnightblue" points="2285.42,-143.934 2294.52,-138.517 2284.03,-137.074 2285.42,-143.934"/>
</g>
<!-- Node11 -->
<g id="node12" class="node"><title>Node11</title>
<g id="a_node12"><a xlink:href="Utilities_8h.html" target="_top" xlink:title="Some useful tools for the ocra&#45;icub lib. ">
<polygon fill="white" stroke="black" points="1571.82,-60.5 1571.82,-78.5 1672.29,-78.5 1672.29,-60.5 1571.82,-60.5"/>
<text text-anchor="middle" x="1622.06" y="-66.5" font-family="Helvetica,sans-Serif" font-size="10.00">ocra&#45;icub/Utilities.h</text>
</a>
</g>
</g>
<!-- Node0&#45;&gt;Node11 -->
<g id="edge39" class="edge"><title>Node0&#45;&gt;Node11</title>
<path fill="none" stroke="midnightblue" d="M1910.72,-179.569C1834.72,-150.854 1710.38,-103.871 1652.93,-82.1662"/>
<polygon fill="midnightblue" stroke="midnightblue" points="1653.93,-78.7999 1643.33,-78.5394 1651.45,-85.3481 1653.93,-78.7999"/>
</g>
<!-- Node5&#45;&gt;Node3 -->
<g id="edge11" class="edge"><title>Node5&#45;&gt;Node3</title>
<path fill="none" stroke="midnightblue" d="M2271.09,-120.46C2227.4,-113.438 2174.69,-101.585 2161.06,-84 2153.16,-73.814 2154.85,-66.297 2161.06,-55 2169,-40.5399 2183.85,-30.1101 2197.84,-22.9992"/>
<polygon fill="midnightblue" stroke="midnightblue" points="2199.7,-25.9928 2207.29,-18.5978 2196.75,-19.6473 2199.7,-25.9928"/>
</g>
<!-- Node5&#45;&gt;Node4 -->
<g id="edge10" class="edge"><title>Node5&#45;&gt;Node4</title>
<path fill="none" stroke="midnightblue" d="M2381.41,-120.48C2411.94,-113.874 2451.66,-102.511 2483.06,-84 2508.5,-68.9991 2531.77,-43.5505 2545.44,-26.8843"/>
<polygon fill="midnightblue" stroke="midnightblue" points="2548.5,-28.6544 2551.99,-18.6509 2543.02,-24.2946 2548.5,-28.6544"/>
</g>
<!-- Node6 -->
<g id="node7" class="node"><title>Node6</title>
<polygon fill="white" stroke="#bfbfbf" points="2277.88,-0.5 2277.88,-18.5 2332.23,-18.5 2332.23,-0.5 2277.88,-0.5"/>
<text text-anchor="middle" x="2305.06" y="-6.5" font-family="Helvetica,sans-Serif" font-size="10.00">iostream</text>
</g>
<!-- Node5&#45;&gt;Node6 -->
<g id="edge6" class="edge"><title>Node5&#45;&gt;Node6</title>
<path fill="none" stroke="midnightblue" d="M2332.06,-120.389C2327.45,-101.611 2315.94,-54.7676 2309.53,-28.7111"/>
<polygon fill="midnightblue" stroke="midnightblue" points="2312.85,-27.5431 2307.06,-18.6674 2306.05,-29.2137 2312.85,-27.5431"/>
</g>
<!-- Node7 -->
<g id="node8" class="node"><title>Node7</title>
<polygon fill="white" stroke="#bfbfbf" points="2438.33,-60.5 2438.33,-78.5 2473.78,-78.5 2473.78,-60.5 2438.33,-60.5"/>
<text text-anchor="middle" x="2456.06" y="-66.5" font-family="Helvetica,sans-Serif" font-size="10.00">map</text>
</g>
<!-- Node5&#45;&gt;Node7 -->
<g id="edge7" class="edge"><title>Node5&#45;&gt;Node7</title>
<path fill="none" stroke="midnightblue" d="M2351.02,-120.435C2371.39,-110.751 2405.79,-94.3966 2429.65,-83.055"/>
<polygon fill="midnightblue" stroke="midnightblue" points="2431.32,-86.1378 2438.84,-78.6831 2428.31,-79.8158 2431.32,-86.1378"/>
</g>
<!-- Node8 -->
<g id="node9" class="node"><title>Node8</title>
<polygon fill="white" stroke="#bfbfbf" points="2350.44,-0.5 2350.44,-18.5 2393.67,-18.5 2393.67,-0.5 2350.44,-0.5"/>
<text text-anchor="middle" x="2372.06" y="-6.5" font-family="Helvetica,sans-Serif" font-size="10.00">vector</text>
</g>
<!-- Node5&#45;&gt;Node8 -->
<g id="edge8" class="edge"><title>Node5&#45;&gt;Node8</title>
<path fill="none" stroke="midnightblue" d="M2336.67,-120.389C2342.74,-101.527 2357.94,-54.3469 2366.3,-28.3618"/>
<polygon fill="midnightblue" stroke="midnightblue" points="2369.69,-29.2589 2369.43,-18.6674 2363.03,-27.1131 2369.69,-29.2589"/>
</g>
<!-- Node9 -->
<g id="node10" class="node"><title>Node9</title>
<polygon fill="white" stroke="#bfbfbf" points="2412.09,-0.5 2412.09,-18.5 2502.03,-18.5 2502.03,-0.5 2412.09,-0.5"/>
<text text-anchor="middle" x="2457.06" y="-6.5" font-family="Helvetica,sans-Serif" font-size="10.00">yarp/sig/Vector.h</text>
</g>
<!-- Node5&#45;&gt;Node9 -->
<g id="edge9" class="edge"><title>Node5&#45;&gt;Node9</title>
<path fill="none" stroke="midnightblue" d="M2342.51,-120.389C2362.87,-100.854 2414.9,-50.9408 2441.25,-25.6611"/>
<polygon fill="midnightblue" stroke="midnightblue" points="2443.75,-28.116 2448.54,-18.6674 2438.9,-23.0646 2443.75,-28.116"/>
</g>
<!-- Node10 -->
<g id="node11" class="node"><title>Node10</title>
<polygon fill="white" stroke="#bfbfbf" points="2169.75,-55.5 2169.75,-83.5 2306.37,-83.5 2306.37,-55.5 2169.75,-55.5"/>
<text text-anchor="start" x="2177.75" y="-71.5" font-family="Helvetica,sans-Serif" font-size="10.00">yarpWholeBodyInterface</text>
<text text-anchor="middle" x="2238.06" y="-61.5" font-family="Helvetica,sans-Serif" font-size="10.00">/yarpWholeBodyInterface.h</text>
</g>
<!-- Node5&#45;&gt;Node10 -->
<g id="edge12" class="edge"><title>Node5&#45;&gt;Node10</title>
<path fill="none" stroke="midnightblue" d="M2320.71,-120.435C2307.28,-112.324 2286.11,-99.5352 2268.56,-88.9304"/>
<polygon fill="midnightblue" stroke="midnightblue" points="2270.14,-85.7958 2259.77,-83.6203 2266.52,-91.7872 2270.14,-85.7958"/>
</g>
<!-- Node5&#45;&gt;Node11 -->
<g id="edge13" class="edge"><title>Node5&#45;&gt;Node11</title>
<path fill="none" stroke="midnightblue" d="M2252.38,-121.847C2107.81,-110.07 1810.1,-85.8183 1682.4,-75.4154"/>
<polygon fill="midnightblue" stroke="midnightblue" points="1682.65,-71.9248 1672.4,-74.6012 1682.09,-78.9016 1682.65,-71.9248"/>
</g>
<!-- Node11&#45;&gt;Node1 -->
<g id="edge14" class="edge"><title>Node11&#45;&gt;Node1</title>
<path fill="none" stroke="midnightblue" d="M1571.45,-68.3001C1340.43,-67.1749 383.843,-60.1541 62.5586,-18.8516"/>
<polygon fill="midnightblue" stroke="midnightblue" points="62.692,-15.3387 52.3187,-17.4939 61.7719,-22.278 62.692,-15.3387"/>
</g>
<!-- Node11&#45;&gt;Node2 -->
<g id="edge35" class="edge"><title>Node11&#45;&gt;Node2</title>
<path fill="none" stroke="midnightblue" d="M1571.61,-66.9066C1332.71,-59.3438 321.48,-27.1251 186.704,-18.892"/>
<polygon fill="midnightblue" stroke="midnightblue" points="186.673,-15.3813 176.452,-18.1717 186.183,-22.3641 186.673,-15.3813"/>
</g>
<!-- Node11&#45;&gt;Node3 -->
<g id="edge34" class="edge"><title>Node11&#45;&gt;Node3</title>
<path fill="none" stroke="midnightblue" d="M1672.35,-66.3999C1770.49,-61.8132 1994.44,-48.9455 2192.1,-18.9334"/>
<polygon fill="midnightblue" stroke="midnightblue" points="2192.73,-22.377 2202.09,-17.3987 2191.67,-15.4582 2192.73,-22.377"/>
</g>
<!-- Node11&#45;&gt;Node4 -->
<g id="edge29" class="edge"><title>Node11&#45;&gt;Node4</title>
<path fill="none" stroke="midnightblue" d="M1672.37,-67.8685C1806.76,-65.7183 2185.4,-56.6272 2509.58,-19.0238"/>
<polygon fill="midnightblue" stroke="midnightblue" points="2510.12,-22.4854 2519.64,-17.8458 2509.3,-15.5329 2510.12,-22.4854"/>
</g>
<!-- Node11&#45;&gt;Node6 -->
<g id="edge16" class="edge"><title>Node11&#45;&gt;Node6</title>
<path fill="none" stroke="midnightblue" d="M1672.7,-67.3014C1780.54,-64.1725 2040.87,-53.5569 2267.54,-18.9979"/>
<polygon fill="midnightblue" stroke="midnightblue" points="2268.28,-22.4256 2277.63,-17.4407 2267.21,-15.5075 2268.28,-22.4256"/>
</g>
<!-- Node11&#45;&gt;Node8 -->
<g id="edge18" class="edge"><title>Node11&#45;&gt;Node8</title>
<path fill="none" stroke="midnightblue" d="M1672.58,-68.4597C1788.97,-67.6308 2084.86,-61.3185 2339.96,-18.8061"/>
<polygon fill="midnightblue" stroke="midnightblue" points="2340.88,-22.1996 2350.16,-17.0828 2339.72,-15.2974 2340.88,-22.1996"/>
</g>
<!-- Node11&#45;&gt;Node9 -->
<g id="edge32" class="edge"><title>Node11&#45;&gt;Node9</title>
<path fill="none" stroke="midnightblue" d="M1672.45,-66.9279C1795.37,-62.745 2120.5,-49.5854 2402.02,-19.005"/>
<polygon fill="midnightblue" stroke="midnightblue" points="2402.46,-22.4782 2412.02,-17.9098 2401.7,-15.5198 2402.46,-22.4782"/>
</g>
<!-- Node12 -->
<g id="node13" class="node"><title>Node12</title>
<polygon fill="white" stroke="#bfbfbf" points="1878.44,-0.5 1878.44,-18.5 1921.67,-18.5 1921.67,-0.5 1878.44,-0.5"/>
<text text-anchor="middle" x="1900.06" y="-6.5" font-family="Helvetica,sans-Serif" font-size="10.00">cmath</text>
</g>
<!-- Node11&#45;&gt;Node12 -->
<g id="edge15" class="edge"><title>Node11&#45;&gt;Node12</title>
<path fill="none" stroke="midnightblue" d="M1666.88,-60.4907C1714.49,-51.7671 1792.14,-36.9221 1868.62,-18.9597"/>
<polygon fill="midnightblue" stroke="midnightblue" points="1869.5,-22.3483 1878.43,-16.6381 1867.89,-15.5367 1869.5,-22.3483"/>
</g>
<!-- Node13 -->
<g id="node14" class="node"><title>Node13</title>
<polygon fill="white" stroke="#bfbfbf" points="1939.83,-0.5 1939.83,-18.5 1980.28,-18.5 1980.28,-0.5 1939.83,-0.5"/>
<text text-anchor="middle" x="1960.06" y="-6.5" font-family="Helvetica,sans-Serif" font-size="10.00">string</text>
</g>
<!-- Node11&#45;&gt;Node13 -->
<g id="edge17" class="edge"><title>Node11&#45;&gt;Node13</title>
<path fill="none" stroke="midnightblue" d="M1672.47,-62.4137C1731.91,-54.7968 1833.78,-40.3637 1929.69,-19.0773"/>
<polygon fill="midnightblue" stroke="midnightblue" points="1930.56,-22.4691 1939.55,-16.8599 1929.02,-15.6398 1930.56,-22.4691"/>
</g>
<!-- Node14 -->
<g id="node15" class="node"><title>Node14</title>
<polygon fill="white" stroke="#bfbfbf" points="1998.28,-0.5 1998.28,-18.5 2049.84,-18.5 2049.84,-0.5 1998.28,-0.5"/>
<text text-anchor="middle" x="2024.06" y="-6.5" font-family="Helvetica,sans-Serif" font-size="10.00">sstream</text>
</g>
<!-- Node11&#45;&gt;Node14 -->
<g id="edge19" class="edge"><title>Node11&#45;&gt;Node14</title>
<path fill="none" stroke="midnightblue" d="M1672.48,-63.3813C1741.53,-56.0018 1869.51,-41.0007 1988.15,-18.9885"/>
<polygon fill="midnightblue" stroke="midnightblue" points="1988.95,-22.3997 1998.13,-17.1154 1987.65,-15.5198 1988.95,-22.3997"/>
</g>
<!-- Node15 -->
<g id="node16" class="node"><title>Node15</title>
<polygon fill="white" stroke="#bfbfbf" points="2068.12,-0.5 2068.12,-18.5 2184,-18.5 2184,-0.5 2068.12,-0.5"/>
<text text-anchor="middle" x="2126.06" y="-6.5" font-family="Helvetica,sans-Serif" font-size="10.00">yarp/os/BufferedPort.h</text>
</g>
<!-- Node11&#45;&gt;Node15 -->
<g id="edge20" class="edge"><title>Node11&#45;&gt;Node15</title>
<path fill="none" stroke="midnightblue" d="M1672.55,-63.0028C1752.12,-54.2915 1911.81,-36.6102 2057.91,-19.124"/>
<polygon fill="midnightblue" stroke="midnightblue" points="2058.45,-22.5849 2067.96,-17.9191 2057.61,-15.6347 2058.45,-22.5849"/>
</g>
<!-- Node16 -->
<g id="node17" class="node"><title>Node16</title>
<polygon fill="white" stroke="#bfbfbf" points="194.315,-0.5 194.315,-18.5 279.798,-18.5 279.798,-0.5 194.315,-0.5"/>
<text text-anchor="middle" x="237.057" y="-6.5" font-family="Helvetica,sans-Serif" font-size="10.00">yarp/os/Bottle.h</text>
</g>
<!-- Node11&#45;&gt;Node16 -->
<g id="edge21" class="edge"><title>Node11&#45;&gt;Node16</title>
<path fill="none" stroke="midnightblue" d="M1571.79,-66.8096C1344.45,-59.1431 418.372,-27.6717 290.174,-18.7655"/>
<polygon fill="midnightblue" stroke="midnightblue" points="290.099,-15.248 279.849,-17.9296 289.534,-22.2252 290.099,-15.248"/>
</g>
<!-- Node17 -->
<g id="node18" class="node"><title>Node17</title>
<polygon fill="white" stroke="#bfbfbf" points="297.697,-0.5 297.697,-18.5 410.416,-18.5 410.416,-0.5 297.697,-0.5"/>
<text text-anchor="middle" x="354.057" y="-6.5" font-family="Helvetica,sans-Serif" font-size="10.00">yarp/os/RateThread.h</text>
</g>
<!-- Node11&#45;&gt;Node17 -->
<g id="edge22" class="edge"><title>Node11&#45;&gt;Node17</title>
<path fill="none" stroke="midnightblue" d="M1571.69,-67.0109C1376.5,-61.1509 668.951,-39.0555 420.608,-18.9388"/>
<polygon fill="midnightblue" stroke="midnightblue" points="420.803,-15.443 410.548,-18.1034 420.224,-22.419 420.803,-15.443"/>
</g>
<!-- Node18 -->
<g id="node19" class="node"><title>Node18</title>
<polygon fill="white" stroke="#bfbfbf" points="428.803,-0.5 428.803,-18.5 559.31,-18.5 559.31,-0.5 428.803,-0.5"/>
<text text-anchor="middle" x="494.057" y="-6.5" font-family="Helvetica,sans-Serif" font-size="10.00">yarp/os/ResourceFinder.h</text>
</g>
<!-- Node11&#45;&gt;Node18 -->
<g id="edge23" class="edge"><title>Node11&#45;&gt;Node18</title>
<path fill="none" stroke="midnightblue" d="M1571.57,-67.3067C1421.02,-63.4974 961.921,-50.0587 569.607,-18.9788"/>
<polygon fill="midnightblue" stroke="midnightblue" points="569.725,-15.4772 559.479,-18.1713 569.169,-22.4551 569.725,-15.4772"/>
</g>
<!-- Node19 -->
<g id="node20" class="node"><title>Node19</title>
<polygon fill="white" stroke="#bfbfbf" points="577.806,-0.5 577.806,-18.5 688.308,-18.5 688.308,-0.5 577.806,-0.5"/>
<text text-anchor="middle" x="633.057" y="-6.5" font-family="Helvetica,sans-Serif" font-size="10.00">yarp/os/PortReader.h</text>
</g>
<!-- Node11&#45;&gt;Node19 -->
<g id="edge24" class="edge"><title>Node11&#45;&gt;Node19</title>
<path fill="none" stroke="midnightblue" d="M1571.57,-67.1924C1433.48,-63.3179 1037.75,-50.2219 698.548,-19.0658"/>
<polygon fill="midnightblue" stroke="midnightblue" points="698.809,-15.575 688.529,-18.1387 698.164,-22.5453 698.809,-15.575"/>
</g>
<!-- Node20 -->
<g id="node21" class="node"><title>Node20</title>
<polygon fill="white" stroke="#bfbfbf" points="706.426,-0.5 706.426,-18.5 809.687,-18.5 809.687,-0.5 706.426,-0.5"/>
<text text-anchor="middle" x="758.057" y="-6.5" font-family="Helvetica,sans-Serif" font-size="10.00">yarp/os/RpcClient.h</text>
</g>
<!-- Node11&#45;&gt;Node20 -->
<g id="edge25" class="edge"><title>Node11&#45;&gt;Node20</title>
<path fill="none" stroke="midnightblue" d="M1571.68,-66.7414C1446.47,-62.0812 1110.9,-47.8231 820.258,-19.036"/>
<polygon fill="midnightblue" stroke="midnightblue" points="820.236,-15.5166 809.938,-18.0059 819.541,-22.482 820.236,-15.5166"/>
</g>
<!-- Node21 -->
<g id="node22" class="node"><title>Node21</title>
<polygon fill="white" stroke="#bfbfbf" points="827.756,-0.5 827.756,-18.5 934.357,-18.5 934.357,-0.5 827.756,-0.5"/>
<text text-anchor="middle" x="881.057" y="-6.5" font-family="Helvetica,sans-Serif" font-size="10.00">yarp/os/RpcServer.h</text>
</g>
<!-- Node11&#45;&gt;Node21 -->
<g id="edge26" class="edge"><title>Node11&#45;&gt;Node21</title>
<path fill="none" stroke="midnightblue" d="M1571.78,-65.8854C1460.72,-59.8819 1185.9,-43.7733 944.658,-18.9929"/>
<polygon fill="midnightblue" stroke="midnightblue" points="944.953,-15.5049 934.646,-17.9575 944.233,-22.4677 944.953,-15.5049"/>
</g>
<!-- Node22 -->
<g id="node23" class="node"><title>Node22</title>
<polygon fill="white" stroke="#bfbfbf" points="952.68,-0.5 952.68,-18.5 1095.43,-18.5 1095.43,-0.5 952.68,-0.5"/>
<text text-anchor="middle" x="1024.06" y="-6.5" font-family="Helvetica,sans-Serif" font-size="10.00">yarp/os/ConnectionReader.h</text>
</g>
<!-- Node11&#45;&gt;Node22 -->
<g id="edge27" class="edge"><title>Node11&#45;&gt;Node22</title>
<path fill="none" stroke="midnightblue" d="M1571.67,-63.8637C1480.77,-55.4602 1283.03,-37.0015 1105.62,-19.1493"/>
<polygon fill="midnightblue" stroke="midnightblue" points="1105.88,-15.658 1095.58,-18.1375 1105.18,-22.6227 1105.88,-15.658"/>
</g>
<!-- Node23 -->
<g id="node24" class="node"><title>Node23</title>
<polygon fill="white" stroke="#bfbfbf" points="1113.17,-0.5 1113.17,-18.5 1194.94,-18.5 1194.94,-0.5 1113.17,-0.5"/>
<text text-anchor="middle" x="1154.06" y="-6.5" font-family="Helvetica,sans-Serif" font-size="10.00">yarp/os/Time.h</text>
</g>
<!-- Node11&#45;&gt;Node23 -->
<g id="edge28" class="edge"><title>Node11&#45;&gt;Node23</title>
<path fill="none" stroke="midnightblue" d="M1571.76,-63.3737C1494.99,-55.3658 1343.72,-38.8722 1204.93,-19.0588"/>
<polygon fill="midnightblue" stroke="midnightblue" points="1205.36,-15.5842 1194.96,-17.6266 1204.36,-22.513 1205.36,-15.5842"/>
</g>
<!-- Node24 -->
<g id="node25" class="node"><title>Node24</title>
<polygon fill="white" stroke="#bfbfbf" points="1212.64,-0.5 1212.64,-18.5 1321.47,-18.5 1321.47,-0.5 1212.64,-0.5"/>
<text text-anchor="middle" x="1267.06" y="-6.5" font-family="Helvetica,sans-Serif" font-size="10.00">yarp/os/LogStream.h</text>
</g>
<!-- Node11&#45;&gt;Node24 -->
<g id="edge30" class="edge"><title>Node11&#45;&gt;Node24</title>
<path fill="none" stroke="midnightblue" d="M1573.07,-60.4962C1508.53,-49.9518 1395.13,-31.4251 1325.98,-20.1273"/>
<polygon fill="midnightblue" stroke="midnightblue" points="1326.55,-16.673 1316.11,-18.5147 1325.42,-23.5814 1326.55,-16.673"/>
</g>
<!-- Node25 -->
<g id="node26" class="node"><title>Node25</title>
<polygon fill="white" stroke="#bfbfbf" points="1339.57,-0.5 1339.57,-18.5 1436.54,-18.5 1436.54,-0.5 1339.57,-0.5"/>
<text text-anchor="middle" x="1388.06" y="-6.5" font-family="Helvetica,sans-Serif" font-size="10.00">yarp/os/Property.h</text>
</g>
<!-- Node11&#45;&gt;Node25 -->
<g id="edge31" class="edge"><title>Node11&#45;&gt;Node25</title>
<path fill="none" stroke="midnightblue" d="M1589.52,-60.4353C1548.07,-50.1624 1476.35,-32.3844 1430.6,-21.0456"/>
<polygon fill="midnightblue" stroke="midnightblue" points="1431.24,-17.5981 1420.69,-18.5894 1429.56,-24.3925 1431.24,-17.5981"/>
</g>
<!-- Node26 -->
<g id="node27" class="node"><title>Node26</title>
<polygon fill="white" stroke="#bfbfbf" points="1454.38,-0.5 1454.38,-18.5 1543.73,-18.5 1543.73,-0.5 1454.38,-0.5"/>
<text text-anchor="middle" x="1499.06" y="-6.5" font-family="Helvetica,sans-Serif" font-size="10.00">yarp/sig/Matrix.h</text>
</g>
<!-- Node11&#45;&gt;Node26 -->
<g id="edge33" class="edge"><title>Node11&#45;&gt;Node26</title>
<path fill="none" stroke="midnightblue" d="M1604.95,-60.4353C1584.42,-50.7508 1549.73,-34.3966 1525.68,-23.055"/>
<polygon fill="midnightblue" stroke="midnightblue" points="1526.95,-19.7825 1516.41,-18.6831 1523.96,-26.1139 1526.95,-19.7825"/>
</g>
<!-- Node27 -->
<g id="node28" class="node"><title>Node27</title>
<polygon fill="white" stroke="#bfbfbf" points="1561.82,-0.5 1561.82,-18.5 1682.3,-18.5 1682.3,-0.5 1561.82,-0.5"/>
<text text-anchor="middle" x="1622.06" y="-6.5" font-family="Helvetica,sans-Serif" font-size="10.00">ocra/util/StringUtilities.h</text>
</g>
<!-- Node11&#45;&gt;Node27 -->
<g id="edge36" class="edge"><title>Node11&#45;&gt;Node27</title>
<path fill="none" stroke="midnightblue" d="M1622.06,-60.4353C1622.06,-52.3891 1622.06,-39.7388 1622.06,-29.1846"/>
<polygon fill="midnightblue" stroke="midnightblue" points="1625.56,-28.8717 1622.06,-18.8718 1618.56,-28.8718 1625.56,-28.8717"/>
</g>
<!-- Node28 -->
<g id="node29" class="node"><title>Node28</title>
<polygon fill="white" stroke="#bfbfbf" points="1700.43,-0.5 1700.43,-18.5 1773.69,-18.5 1773.69,-0.5 1700.43,-0.5"/>
<text text-anchor="middle" x="1737.06" y="-6.5" font-family="Helvetica,sans-Serif" font-size="10.00">Eigen/Dense</text>
</g>
<!-- Node11&#45;&gt;Node28 -->
<g id="edge37" class="edge"><title>Node11&#45;&gt;Node28</title>
<path fill="none" stroke="midnightblue" d="M1638.05,-60.4353C1657.16,-50.7939 1689.39,-34.5418 1711.86,-23.2065"/>
<polygon fill="midnightblue" stroke="midnightblue" points="1713.48,-26.3114 1720.83,-18.6831 1710.33,-20.0613 1713.48,-26.3114"/>
</g>
<!-- Node29 -->
<g id="node30" class="node"><title>Node29</title>
<polygon fill="white" stroke="#bfbfbf" points="1791.65,-0.5 1791.65,-18.5 1860.46,-18.5 1860.46,-0.5 1791.65,-0.5"/>
<text text-anchor="middle" x="1826.06" y="-6.5" font-family="Helvetica,sans-Serif" font-size="10.00">Eigen/Lgsm</text>
</g>
<!-- Node11&#45;&gt;Node29 -->
<g id="edge38" class="edge"><title>Node11&#45;&gt;Node29</title>
<path fill="none" stroke="midnightblue" d="M1650.42,-60.4353C1686.25,-50.2487 1748.03,-32.6826 1787.96,-21.3328"/>
<polygon fill="midnightblue" stroke="midnightblue" points="1788.94,-24.6908 1797.6,-18.5894 1787.03,-17.9577 1788.94,-24.6908"/>
</g>
</g>
</svg>
