<?xml version="1.0" encoding="UTF-8" standalone="no"?>
<!DOCTYPE svg PUBLIC "-//W3C//DTD SVG 1.1//EN"
 "http://www.w3.org/Graphics/SVG/1.1/DTD/svg11.dtd">
<!-- Generated by graphviz version 2.38.0 (20140413.2041)
 -->
<!-- Title: /Users/jorhabibeljaik/Code/codyco&#45;superbuild/main/ocra&#45;wbi&#45;plugins/ocra&#45;icub/src/OcraWbiModel.cpp Pages: 1 -->
<svg width="2465pt" height="287pt"
 viewBox="0.00 0.00 2465.35 287.00" xmlns="http://www.w3.org/2000/svg" xmlns:xlink="http://www.w3.org/1999/xlink">
<g id="graph0" class="graph" transform="scale(1 1) rotate(0) translate(4 283)">
<title>/Users/jorhabibeljaik/Code/codyco&#45;superbuild/main/ocra&#45;wbi&#45;plugins/ocra&#45;icub/src/OcraWbiModel.cpp</title>
<polygon fill="white" stroke="none" points="-4,4 -4,-283 2461.35,-283 2461.35,4 -4,4"/>
<!-- Node0 -->
<g id="node1" class="node"><title>Node0</title>
<polygon fill="#bfbfbf" stroke="black" points="1788.15,-230.5 1788.15,-278.5 1951.97,-278.5 1951.97,-230.5 1788.15,-230.5"/>
<text text-anchor="start" x="1796.15" y="-266.5" font-family="Helvetica,sans-Serif" font-size="10.00">/Users/jorhabibeljaik</text>
<text text-anchor="start" x="1796.15" y="-256.5" font-family="Helvetica,sans-Serif" font-size="10.00">/Code/codyco&#45;superbuild</text>
<text text-anchor="start" x="1796.15" y="-246.5" font-family="Helvetica,sans-Serif" font-size="10.00">/main/ocra&#45;wbi&#45;plugins</text>
<text text-anchor="middle" x="1870.06" y="-236.5" font-family="Helvetica,sans-Serif" font-size="10.00">/ocra&#45;icub/src/OcraWbiModel.cpp</text>
</g>
<!-- Node1 -->
<g id="node2" class="node"><title>Node1</title>
<g id="a_node2"><a xlink:href="OcraWbiModel_8h.html" target="_top" xlink:title="Implementation of ocra::Model using wholeBodyInterface. ">
<polygon fill="white" stroke="black" points="1802.87,-175.5 1802.87,-193.5 1937.24,-193.5 1937.24,-175.5 1802.87,-175.5"/>
<text text-anchor="middle" x="1870.06" y="-181.5" font-family="Helvetica,sans-Serif" font-size="10.00">ocra&#45;icub/OcraWbiModel.h</text>
</a>
</g>
</g>
<!-- Node0&#45;&gt;Node1 -->
<g id="edge1" class="edge"><title>Node0&#45;&gt;Node1</title>
<path fill="none" stroke="midnightblue" d="M1870.06,-230.478C1870.06,-221.684 1870.06,-211.792 1870.06,-203.528"/>
<polygon fill="midnightblue" stroke="midnightblue" points="1873.56,-203.526 1870.06,-193.526 1866.56,-203.526 1873.56,-203.526"/>
</g>
<!-- Node2 -->
<g id="node3" class="node"><title>Node2</title>
<polygon fill="white" stroke="#bfbfbf" points="0,-0.5 0,-18.5 52.1133,-18.5 52.1133,-0.5 0,-0.5"/>
<text text-anchor="middle" x="26.0566" y="-6.5" font-family="Helvetica,sans-Serif" font-size="10.00">memory</text>
</g>
<!-- Node1&#45;&gt;Node2 -->
<g id="edge2" class="edge"><title>Node1&#45;&gt;Node2</title>
<path fill="none" stroke="midnightblue" d="M1802.71,-180.526C1604.35,-171.348 1005.21,-140.61 511.057,-84 313.529,-61.3712 261.14,-57.4554 62.2617,-19.0869"/>
<polygon fill="midnightblue" stroke="midnightblue" points="62.854,-15.6367 52.3713,-17.1738 61.5246,-22.5093 62.854,-15.6367"/>
</g>
<!-- Node3 -->
<g id="node4" class="node"><title>Node3</title>
<polygon fill="white" stroke="#bfbfbf" points="69.7563,-0.5 69.7563,-18.5 176.357,-18.5 176.357,-0.5 69.7563,-0.5"/>
<text text-anchor="middle" x="123.057" y="-6.5" font-family="Helvetica,sans-Serif" font-size="10.00">ocra/control/Model.h</text>
</g>
<!-- Node1&#45;&gt;Node3 -->
<g id="edge3" class="edge"><title>Node1&#45;&gt;Node3</title>
<path fill="none" stroke="midnightblue" d="M1802.58,-177.806C1576.01,-158.495 821.563,-92.649 186.927,-19.0608"/>
<polygon fill="midnightblue" stroke="midnightblue" points="186.993,-15.545 176.656,-17.868 186.185,-22.4983 186.993,-15.545"/>
</g>
<!-- Node4 -->
<g id="node5" class="node"><title>Node4</title>
<polygon fill="white" stroke="#bfbfbf" points="2063.49,-0.5 2063.49,-18.5 2120.62,-18.5 2120.62,-0.5 2063.49,-0.5"/>
<text text-anchor="middle" x="2092.06" y="-6.5" font-family="Helvetica,sans-Serif" font-size="10.00">wbi/wbi.h</text>
</g>
<!-- Node1&#45;&gt;Node4 -->
<g id="edge4" class="edge"><title>Node1&#45;&gt;Node4</title>
<path fill="none" stroke="midnightblue" d="M1877.9,-175.297C1898.64,-153.867 1957.2,-95.091 2013.06,-55 2029.9,-42.9144 2050.31,-31.4887 2066.17,-23.2412"/>
<polygon fill="midnightblue" stroke="midnightblue" points="2068.07,-26.2027 2075.38,-18.5393 2064.89,-19.9678 2068.07,-26.2027"/>
</g>
<!-- Node5 -->
<g id="node6" class="node"><title>Node5</title>
<polygon fill="white" stroke="#bfbfbf" points="2380.76,-0.5 2380.76,-18.5 2457.35,-18.5 2457.35,-0.5 2380.76,-0.5"/>
<text text-anchor="middle" x="2419.06" y="-6.5" font-family="Helvetica,sans-Serif" font-size="10.00">yarp/os/Log.h</text>
</g>
<!-- Node1&#45;&gt;Node5 -->
<g id="edge5" class="edge"><title>Node1&#45;&gt;Node5</title>
<path fill="none" stroke="midnightblue" d="M1937.56,-179.864C2038.2,-173.836 2222.45,-160.281 2285.06,-139 2329.44,-123.912 2342.06,-117.299 2375.06,-84 2391.37,-67.5349 2404.13,-43.8744 2411.62,-27.8831"/>
<polygon fill="midnightblue" stroke="midnightblue" points="2414.86,-29.1918 2415.76,-18.6347 2408.48,-26.3309 2414.86,-29.1918"/>
</g>
<!-- Node6 -->
<g id="node7" class="node"><title>Node6</title>
<g id="a_node7"><a xlink:href="OcraWbiConversions_8h.html" target="_top" xlink:title="A utility class full of static conversion functions. ">
<polygon fill="white" stroke="black" points="2113.7,-120.5 2113.7,-138.5 2276.42,-138.5 2276.42,-120.5 2113.7,-120.5"/>
<text text-anchor="middle" x="2195.06" y="-126.5" font-family="Helvetica,sans-Serif" font-size="10.00">ocra&#45;icub/OcraWbiConversions.h</text>
</a>
</g>
</g>
<!-- Node1&#45;&gt;Node6 -->
<g id="edge6" class="edge"><title>Node1&#45;&gt;Node6</title>
<path fill="none" stroke="midnightblue" d="M1919.42,-175.45C1977.45,-165.987 2073.7,-150.291 2135.74,-140.174"/>
<polygon fill="midnightblue" stroke="midnightblue" points="2136.46,-143.602 2145.77,-138.538 2135.33,-136.694 2136.46,-143.602"/>
</g>
<!-- Node12 -->
<g id="node13" class="node"><title>Node12</title>
<g id="a_node13"><a xlink:href="Utilities_8h.html" target="_top" xlink:title="Some useful tools for the ocra&#45;icub lib. ">
<polygon fill="white" stroke="black" points="1476.82,-60.5 1476.82,-78.5 1577.29,-78.5 1577.29,-60.5 1476.82,-60.5"/>
<text text-anchor="middle" x="1527.06" y="-66.5" font-family="Helvetica,sans-Serif" font-size="10.00">ocra&#45;icub/Utilities.h</text>
</a>
</g>
</g>
<!-- Node1&#45;&gt;Node12 -->
<g id="edge39" class="edge"><title>Node1&#45;&gt;Node12</title>
<path fill="none" stroke="midnightblue" d="M1845.66,-175.464C1785.56,-155.664 1630.24,-104.492 1561.11,-81.7177"/>
<polygon fill="midnightblue" stroke="midnightblue" points="1562.15,-78.3756 1551.55,-78.5707 1559.96,-85.0241 1562.15,-78.3756"/>
</g>
<!-- Node6&#45;&gt;Node4 -->
<g id="edge12" class="edge"><title>Node6&#45;&gt;Node4</title>
<path fill="none" stroke="midnightblue" d="M2132.09,-120.46C2088.4,-113.438 2035.69,-101.585 2022.06,-84 2014.16,-73.814 2015.85,-66.297 2022.06,-55 2030,-40.5399 2044.85,-30.1101 2058.84,-22.9992"/>
<polygon fill="midnightblue" stroke="midnightblue" points="2060.7,-25.9928 2068.29,-18.5978 2057.75,-19.6473 2060.7,-25.9928"/>
</g>
<!-- Node6&#45;&gt;Node5 -->
<g id="edge11" class="edge"><title>Node6&#45;&gt;Node5</title>
<path fill="none" stroke="midnightblue" d="M2242.41,-120.48C2272.94,-113.874 2312.66,-102.511 2344.06,-84 2369.5,-68.9991 2392.77,-43.5505 2406.44,-26.8843"/>
<polygon fill="midnightblue" stroke="midnightblue" points="2409.5,-28.6544 2412.99,-18.6509 2404.02,-24.2946 2409.5,-28.6544"/>
</g>
<!-- Node7 -->
<g id="node8" class="node"><title>Node7</title>
<polygon fill="white" stroke="#bfbfbf" points="2138.88,-0.5 2138.88,-18.5 2193.23,-18.5 2193.23,-0.5 2138.88,-0.5"/>
<text text-anchor="middle" x="2166.06" y="-6.5" font-family="Helvetica,sans-Serif" font-size="10.00">iostream</text>
</g>
<!-- Node6&#45;&gt;Node7 -->
<g id="edge7" class="edge"><title>Node6&#45;&gt;Node7</title>
<path fill="none" stroke="midnightblue" d="M2193.06,-120.389C2188.45,-101.611 2176.94,-54.7676 2170.53,-28.7111"/>
<polygon fill="midnightblue" stroke="midnightblue" points="2173.85,-27.5431 2168.06,-18.6674 2167.05,-29.2137 2173.85,-27.5431"/>
</g>
<!-- Node8 -->
<g id="node9" class="node"><title>Node8</title>
<polygon fill="white" stroke="#bfbfbf" points="2299.33,-60.5 2299.33,-78.5 2334.78,-78.5 2334.78,-60.5 2299.33,-60.5"/>
<text text-anchor="middle" x="2317.06" y="-66.5" font-family="Helvetica,sans-Serif" font-size="10.00">map</text>
</g>
<!-- Node6&#45;&gt;Node8 -->
<g id="edge8" class="edge"><title>Node6&#45;&gt;Node8</title>
<path fill="none" stroke="midnightblue" d="M2212.02,-120.435C2232.39,-110.751 2266.79,-94.3966 2290.65,-83.055"/>
<polygon fill="midnightblue" stroke="midnightblue" points="2292.32,-86.1378 2299.84,-78.6831 2289.31,-79.8158 2292.32,-86.1378"/>
</g>
<!-- Node9 -->
<g id="node10" class="node"><title>Node9</title>
<polygon fill="white" stroke="#bfbfbf" points="2211.44,-0.5 2211.44,-18.5 2254.67,-18.5 2254.67,-0.5 2211.44,-0.5"/>
<text text-anchor="middle" x="2233.06" y="-6.5" font-family="Helvetica,sans-Serif" font-size="10.00">vector</text>
</g>
<!-- Node6&#45;&gt;Node9 -->
<g id="edge9" class="edge"><title>Node6&#45;&gt;Node9</title>
<path fill="none" stroke="midnightblue" d="M2197.67,-120.389C2203.74,-101.527 2218.94,-54.3469 2227.3,-28.3618"/>
<polygon fill="midnightblue" stroke="midnightblue" points="2230.69,-29.2589 2230.43,-18.6674 2224.03,-27.1131 2230.69,-29.2589"/>
</g>
<!-- Node10 -->
<g id="node11" class="node"><title>Node10</title>
<polygon fill="white" stroke="#bfbfbf" points="2273.09,-0.5 2273.09,-18.5 2363.03,-18.5 2363.03,-0.5 2273.09,-0.5"/>
<text text-anchor="middle" x="2318.06" y="-6.5" font-family="Helvetica,sans-Serif" font-size="10.00">yarp/sig/Vector.h</text>
</g>
<!-- Node6&#45;&gt;Node10 -->
<g id="edge10" class="edge"><title>Node6&#45;&gt;Node10</title>
<path fill="none" stroke="midnightblue" d="M2203.51,-120.389C2223.87,-100.854 2275.9,-50.9408 2302.25,-25.6611"/>
<polygon fill="midnightblue" stroke="midnightblue" points="2304.75,-28.116 2309.54,-18.6674 2299.9,-23.0646 2304.75,-28.116"/>
</g>
<!-- Node11 -->
<g id="node12" class="node"><title>Node11</title>
<polygon fill="white" stroke="#bfbfbf" points="2030.75,-55.5 2030.75,-83.5 2167.37,-83.5 2167.37,-55.5 2030.75,-55.5"/>
<text text-anchor="start" x="2038.75" y="-71.5" font-family="Helvetica,sans-Serif" font-size="10.00">yarpWholeBodyInterface</text>
<text text-anchor="middle" x="2099.06" y="-61.5" font-family="Helvetica,sans-Serif" font-size="10.00">/yarpWholeBodyInterface.h</text>
</g>
<!-- Node6&#45;&gt;Node11 -->
<g id="edge13" class="edge"><title>Node6&#45;&gt;Node11</title>
<path fill="none" stroke="midnightblue" d="M2181.71,-120.435C2168.28,-112.324 2147.11,-99.5352 2129.56,-88.9304"/>
<polygon fill="midnightblue" stroke="midnightblue" points="2131.14,-85.7958 2120.77,-83.6203 2127.52,-91.7872 2131.14,-85.7958"/>
</g>
<!-- Node6&#45;&gt;Node12 -->
<g id="edge14" class="edge"><title>Node6&#45;&gt;Node12</title>
<path fill="none" stroke="midnightblue" d="M2113.48,-121.417C1977.7,-109.628 1708.36,-86.2421 1587.84,-75.7773"/>
<polygon fill="midnightblue" stroke="midnightblue" points="1587.95,-72.274 1577.68,-74.8958 1587.34,-79.2478 1587.95,-72.274"/>
</g>
<!-- Node12&#45;&gt;Node2 -->
<g id="edge15" class="edge"><title>Node12&#45;&gt;Node2</title>
<path fill="none" stroke="midnightblue" d="M1476.56,-68.1802C1254.6,-66.5643 363.651,-57.8261 62.3558,-18.8286"/>
<polygon fill="midnightblue" stroke="midnightblue" points="62.6949,-15.3429 52.3195,-17.488 61.7681,-22.2812 62.6949,-15.3429"/>
</g>
<!-- Node12&#45;&gt;Node3 -->
<g id="edge36" class="edge"><title>Node12&#45;&gt;Node3</title>
<path fill="none" stroke="midnightblue" d="M1476.49,-66.7715C1247.57,-58.9295 314.346,-26.7706 186.655,-18.8029"/>
<polygon fill="midnightblue" stroke="midnightblue" points="186.857,-15.3085 176.634,-18.0892 186.36,-22.2909 186.857,-15.3085"/>
</g>
<!-- Node12&#45;&gt;Node4 -->
<g id="edge35" class="edge"><title>Node12&#45;&gt;Node4</title>
<path fill="none" stroke="midnightblue" d="M1577.57,-65.9942C1670.18,-60.9157 1873.47,-47.5233 2053.53,-19.053"/>
<polygon fill="midnightblue" stroke="midnightblue" points="2054.13,-22.5027 2063.45,-17.4662 2053.02,-15.5907 2054.13,-22.5027"/>
</g>
<!-- Node12&#45;&gt;Node5 -->
<g id="edge30" class="edge"><title>Node12&#45;&gt;Node5</title>
<path fill="none" stroke="midnightblue" d="M1577.72,-67.6567C1707.84,-65.0364 2064.42,-54.9856 2370.68,-19.0176"/>
<polygon fill="midnightblue" stroke="midnightblue" points="2371.12,-22.49 2380.64,-17.8367 2370.3,-15.5387 2371.12,-22.49"/>
</g>
<!-- Node12&#45;&gt;Node7 -->
<g id="edge17" class="edge"><title>Node12&#45;&gt;Node7</title>
<path fill="none" stroke="midnightblue" d="M1577.39,-66.9182C1679.65,-63.1539 1919.07,-51.5376 2128.67,-18.9905"/>
<polygon fill="midnightblue" stroke="midnightblue" points="2129.29,-22.4357 2138.62,-17.4247 2128.2,-15.5206 2129.29,-22.4357"/>
</g>
<!-- Node12&#45;&gt;Node9 -->
<g id="edge19" class="edge"><title>Node12&#45;&gt;Node9</title>
<path fill="none" stroke="midnightblue" d="M1577.42,-68.1401C1688.61,-66.63 1963.39,-58.9674 2201.29,-18.7611"/>
<polygon fill="midnightblue" stroke="midnightblue" points="2201.89,-22.2085 2211.16,-17.0704 2200.71,-15.3089 2201.89,-22.2085"/>
</g>
<!-- Node12&#45;&gt;Node10 -->
<g id="edge33" class="edge"><title>Node12&#45;&gt;Node10</title>
<path fill="none" stroke="midnightblue" d="M1577.68,-66.655C1695.83,-62.0146 1999.11,-48.1699 2262.86,-19.0287"/>
<polygon fill="midnightblue" stroke="midnightblue" points="2263.47,-22.4832 2273.02,-17.897 2262.69,-15.5263 2263.47,-22.4832"/>
</g>
<!-- Node13 -->
<g id="node14" class="node"><title>Node13</title>
<polygon fill="white" stroke="#bfbfbf" points="1636.44,-0.5 1636.44,-18.5 1679.67,-18.5 1679.67,-0.5 1636.44,-0.5"/>
<text text-anchor="middle" x="1658.06" y="-6.5" font-family="Helvetica,sans-Serif" font-size="10.00">cmath</text>
</g>
<!-- Node12&#45;&gt;Node13 -->
<g id="edge16" class="edge"><title>Node12&#45;&gt;Node13</title>
<path fill="none" stroke="midnightblue" d="M1545.27,-60.4353C1567.34,-50.6648 1604.74,-34.1053 1630.38,-22.7537"/>
<polygon fill="midnightblue" stroke="midnightblue" points="1631.85,-25.932 1639.57,-18.6831 1629.01,-19.5313 1631.85,-25.932"/>
</g>
<!-- Node14 -->
<g id="node15" class="node"><title>Node14</title>
<polygon fill="white" stroke="#bfbfbf" points="1697.83,-0.5 1697.83,-18.5 1738.28,-18.5 1738.28,-0.5 1697.83,-0.5"/>
<text text-anchor="middle" x="1718.06" y="-6.5" font-family="Helvetica,sans-Serif" font-size="10.00">string</text>
</g>
<!-- Node12&#45;&gt;Node14 -->
<g id="edge18" class="edge"><title>Node12&#45;&gt;Node14</title>
<path fill="none" stroke="midnightblue" d="M1553.61,-60.4353C1588.84,-49.7375 1650.87,-30.9012 1687.85,-19.6729"/>
<polygon fill="midnightblue" stroke="midnightblue" points="1689.02,-22.9755 1697.57,-16.7208 1686.99,-16.2775 1689.02,-22.9755"/>
</g>
<!-- Node15 -->
<g id="node16" class="node"><title>Node15</title>
<polygon fill="white" stroke="#bfbfbf" points="1756.28,-0.5 1756.28,-18.5 1807.84,-18.5 1807.84,-0.5 1756.28,-0.5"/>
<text text-anchor="middle" x="1782.06" y="-6.5" font-family="Helvetica,sans-Serif" font-size="10.00">sstream</text>
</g>
<!-- Node12&#45;&gt;Node15 -->
<g id="edge20" class="edge"><title>Node12&#45;&gt;Node15</title>
<path fill="none" stroke="midnightblue" d="M1563.69,-60.4561C1605.43,-51.2479 1675.94,-35.5595 1746.17,-19.1773"/>
<polygon fill="midnightblue" stroke="midnightblue" points="1747.13,-22.5463 1756.07,-16.8617 1745.54,-15.73 1747.13,-22.5463"/>
</g>
<!-- Node16 -->
<g id="node17" class="node"><title>Node16</title>
<polygon fill="white" stroke="#bfbfbf" points="1826.12,-0.5 1826.12,-18.5 1942,-18.5 1942,-0.5 1826.12,-0.5"/>
<text text-anchor="middle" x="1884.06" y="-6.5" font-family="Helvetica,sans-Serif" font-size="10.00">yarp/os/BufferedPort.h</text>
</g>
<!-- Node12&#45;&gt;Node16 -->
<g id="edge21" class="edge"><title>Node12&#45;&gt;Node16</title>
<path fill="none" stroke="midnightblue" d="M1576.32,-60.4962C1641.22,-49.9518 1755.26,-31.4251 1824.8,-20.1273"/>
<polygon fill="midnightblue" stroke="midnightblue" points="1825.42,-23.5731 1834.72,-18.5147 1824.29,-16.6637 1825.42,-23.5731"/>
</g>
<!-- Node17 -->
<g id="node18" class="node"><title>Node17</title>
<polygon fill="white" stroke="#bfbfbf" points="1960.32,-0.5 1960.32,-18.5 2045.8,-18.5 2045.8,-0.5 1960.32,-0.5"/>
<text text-anchor="middle" x="2003.06" y="-6.5" font-family="Helvetica,sans-Serif" font-size="10.00">yarp/os/Bottle.h</text>
</g>
<!-- Node12&#45;&gt;Node17 -->
<g id="edge22" class="edge"><title>Node12&#45;&gt;Node17</title>
<path fill="none" stroke="midnightblue" d="M1577.41,-63.3761C1655.06,-55.3085 1808.95,-38.6629 1950.09,-19.0751"/>
<polygon fill="midnightblue" stroke="midnightblue" points="1950.81,-22.5087 1960.23,-17.6597 1949.84,-15.5759 1950.81,-22.5087"/>
</g>
<!-- Node18 -->
<g id="node19" class="node"><title>Node18</title>
<polygon fill="white" stroke="#bfbfbf" points="194.697,-0.5 194.697,-18.5 307.416,-18.5 307.416,-0.5 194.697,-0.5"/>
<text text-anchor="middle" x="251.057" y="-6.5" font-family="Helvetica,sans-Serif" font-size="10.00">yarp/os/RateThread.h</text>
</g>
<!-- Node12&#45;&gt;Node18 -->
<g id="edge23" class="edge"><title>Node12&#45;&gt;Node18</title>
<path fill="none" stroke="midnightblue" d="M1476.67,-66.6989C1267.55,-59.1894 472.17,-30.2744 317.556,-18.893"/>
<polygon fill="midnightblue" stroke="midnightblue" points="317.792,-15.4009 307.548,-18.1044 317.242,-22.3793 317.792,-15.4009"/>
</g>
<!-- Node19 -->
<g id="node20" class="node"><title>Node19</title>
<polygon fill="white" stroke="#bfbfbf" points="325.803,-0.5 325.803,-18.5 456.31,-18.5 456.31,-0.5 325.803,-0.5"/>
<text text-anchor="middle" x="391.057" y="-6.5" font-family="Helvetica,sans-Serif" font-size="10.00">yarp/os/ResourceFinder.h</text>
</g>
<!-- Node12&#45;&gt;Node19 -->
<g id="edge24" class="edge"><title>Node12&#45;&gt;Node19</title>
<path fill="none" stroke="midnightblue" d="M1476.79,-66.5981C1297.06,-59.729 685.815,-35.7657 466.617,-18.9671"/>
<polygon fill="midnightblue" stroke="midnightblue" points="466.721,-15.4646 456.478,-18.1727 466.174,-22.4433 466.721,-15.4646"/>
</g>
<!-- Node20 -->
<g id="node21" class="node"><title>Node20</title>
<polygon fill="white" stroke="#bfbfbf" points="474.806,-0.5 474.806,-18.5 585.308,-18.5 585.308,-0.5 474.806,-0.5"/>
<text text-anchor="middle" x="530.057" y="-6.5" font-family="Helvetica,sans-Serif" font-size="10.00">yarp/os/PortReader.h</text>
</g>
<!-- Node12&#45;&gt;Node20 -->
<g id="edge25" class="edge"><title>Node12&#45;&gt;Node20</title>
<path fill="none" stroke="midnightblue" d="M1476.64,-67.2265C1337.82,-63.4205 938.115,-50.4472 595.645,-19.0738"/>
<polygon fill="midnightblue" stroke="midnightblue" points="595.809,-15.5742 585.529,-18.1403 595.165,-22.5446 595.809,-15.5742"/>
</g>
<!-- Node21 -->
<g id="node22" class="node"><title>Node21</title>
<polygon fill="white" stroke="#bfbfbf" points="603.426,-0.5 603.426,-18.5 706.687,-18.5 706.687,-0.5 603.426,-0.5"/>
<text text-anchor="middle" x="655.057" y="-6.5" font-family="Helvetica,sans-Serif" font-size="10.00">yarp/os/RpcClient.h</text>
</g>
<!-- Node12&#45;&gt;Node21 -->
<g id="edge26" class="edge"><title>Node12&#45;&gt;Node21</title>
<path fill="none" stroke="midnightblue" d="M1476.65,-66.7824C1350.5,-62.1925 1010.84,-48.0374 716.934,-19.0031"/>
<polygon fill="midnightblue" stroke="midnightblue" points="717.236,-15.5159 706.938,-18.008 716.542,-22.4814 717.236,-15.5159"/>
</g>
<!-- Node22 -->
<g id="node23" class="node"><title>Node22</title>
<polygon fill="white" stroke="#bfbfbf" points="724.756,-0.5 724.756,-18.5 831.357,-18.5 831.357,-0.5 724.756,-0.5"/>
<text text-anchor="middle" x="778.057" y="-6.5" font-family="Helvetica,sans-Serif" font-size="10.00">yarp/os/RpcServer.h</text>
</g>
<!-- Node12&#45;&gt;Node22 -->
<g id="edge27" class="edge"><title>Node12&#45;&gt;Node22</title>
<path fill="none" stroke="midnightblue" d="M1476.61,-65.9351C1364.53,-60.0036 1086.06,-43.9866 841.784,-19.0046"/>
<polygon fill="midnightblue" stroke="midnightblue" points="841.952,-15.5035 831.646,-17.9606 841.235,-22.4667 841.952,-15.5035"/>
</g>
<!-- Node23 -->
<g id="node24" class="node"><title>Node23</title>
<polygon fill="white" stroke="#bfbfbf" points="849.68,-0.5 849.68,-18.5 992.433,-18.5 992.433,-0.5 849.68,-0.5"/>
<text text-anchor="middle" x="921.057" y="-6.5" font-family="Helvetica,sans-Serif" font-size="10.00">yarp/os/ConnectionReader.h</text>
</g>
<!-- Node12&#45;&gt;Node23 -->
<g id="edge28" class="edge"><title>Node12&#45;&gt;Node23</title>
<path fill="none" stroke="midnightblue" d="M1476.63,-63.9576C1384.66,-55.6291 1183.26,-37.1861 1002.79,-19.1642"/>
<polygon fill="midnightblue" stroke="midnightblue" points="1002.88,-15.6555 992.582,-18.1426 1002.18,-22.6207 1002.88,-15.6555"/>
</g>
<!-- Node24 -->
<g id="node25" class="node"><title>Node24</title>
<polygon fill="white" stroke="#bfbfbf" points="1010.17,-0.5 1010.17,-18.5 1091.94,-18.5 1091.94,-0.5 1010.17,-0.5"/>
<text text-anchor="middle" x="1051.06" y="-6.5" font-family="Helvetica,sans-Serif" font-size="10.00">yarp/os/Time.h</text>
</g>
<!-- Node12&#45;&gt;Node24 -->
<g id="edge29" class="edge"><title>Node12&#45;&gt;Node24</title>
<path fill="none" stroke="midnightblue" d="M1476.78,-63.525C1398.85,-55.6236 1243.97,-39.1619 1102.15,-19.0856"/>
<polygon fill="midnightblue" stroke="midnightblue" points="1102.35,-15.5797 1091.96,-17.634 1101.37,-22.5097 1102.35,-15.5797"/>
</g>
<!-- Node25 -->
<g id="node26" class="node"><title>Node25</title>
<polygon fill="white" stroke="#bfbfbf" points="1109.64,-0.5 1109.64,-18.5 1218.47,-18.5 1218.47,-0.5 1109.64,-0.5"/>
<text text-anchor="middle" x="1164.06" y="-6.5" font-family="Helvetica,sans-Serif" font-size="10.00">yarp/os/LogStream.h</text>
</g>
<!-- Node12&#45;&gt;Node25 -->
<g id="edge31" class="edge"><title>Node12&#45;&gt;Node25</title>
<path fill="none" stroke="midnightblue" d="M1476.96,-60.4962C1410.97,-49.9518 1295.02,-31.4251 1224.31,-20.1273"/>
<polygon fill="midnightblue" stroke="midnightblue" points="1224.64,-16.6364 1214.22,-18.5147 1223.54,-23.5487 1224.64,-16.6364"/>
</g>
<!-- Node26 -->
<g id="node27" class="node"><title>Node26</title>
<polygon fill="white" stroke="#bfbfbf" points="1236.57,-0.5 1236.57,-18.5 1333.54,-18.5 1333.54,-0.5 1236.57,-0.5"/>
<text text-anchor="middle" x="1285.06" y="-6.5" font-family="Helvetica,sans-Serif" font-size="10.00">yarp/os/Property.h</text>
</g>
<!-- Node12&#45;&gt;Node26 -->
<g id="edge32" class="edge"><title>Node12&#45;&gt;Node26</title>
<path fill="none" stroke="midnightblue" d="M1493.66,-60.4962C1450.66,-50.1894 1375.83,-32.2563 1328.46,-20.9022"/>
<polygon fill="midnightblue" stroke="midnightblue" points="1329.04,-17.4418 1318.5,-18.5147 1327.41,-24.2491 1329.04,-17.4418"/>
</g>
<!-- Node27 -->
<g id="node28" class="node"><title>Node27</title>
<polygon fill="white" stroke="#bfbfbf" points="1351.38,-0.5 1351.38,-18.5 1440.73,-18.5 1440.73,-0.5 1351.38,-0.5"/>
<text text-anchor="middle" x="1396.06" y="-6.5" font-family="Helvetica,sans-Serif" font-size="10.00">yarp/sig/Matrix.h</text>
</g>
<!-- Node12&#45;&gt;Node27 -->
<g id="edge34" class="edge"><title>Node12&#45;&gt;Node27</title>
<path fill="none" stroke="midnightblue" d="M1508.84,-60.4353C1486.77,-50.6648 1449.37,-34.1053 1423.73,-22.7537"/>
<polygon fill="midnightblue" stroke="midnightblue" points="1425.1,-19.5313 1414.54,-18.6831 1422.27,-25.932 1425.1,-19.5313"/>
</g>
<!-- Node28 -->
<g id="node29" class="node"><title>Node28</title>
<polygon fill="white" stroke="#bfbfbf" points="1458.43,-0.5 1458.43,-18.5 1531.69,-18.5 1531.69,-0.5 1458.43,-0.5"/>
<text text-anchor="middle" x="1495.06" y="-6.5" font-family="Helvetica,sans-Serif" font-size="10.00">Eigen/Dense</text>
</g>
<!-- Node12&#45;&gt;Node28 -->
<g id="edge37" class="edge"><title>Node12&#45;&gt;Node28</title>
<path fill="none" stroke="midnightblue" d="M1522.61,-60.4353C1517.98,-52.0467 1510.59,-38.6539 1504.63,-27.8491"/>
<polygon fill="midnightblue" stroke="midnightblue" points="1507.57,-25.9368 1499.68,-18.8718 1501.44,-29.3183 1507.57,-25.9368"/>
</g>
<!-- Node29 -->
<g id="node30" class="node"><title>Node29</title>
<polygon fill="white" stroke="#bfbfbf" points="1549.65,-0.5 1549.65,-18.5 1618.46,-18.5 1618.46,-0.5 1549.65,-0.5"/>
<text text-anchor="middle" x="1584.06" y="-6.5" font-family="Helvetica,sans-Serif" font-size="10.00">Eigen/Lgsm</text>
</g>
<!-- Node12&#45;&gt;Node29 -->
<g id="edge38" class="edge"><title>Node12&#45;&gt;Node29</title>
<path fill="none" stroke="midnightblue" d="M1534.98,-60.4353C1543.65,-51.6187 1557.74,-37.2743 1568.61,-26.2165"/>
<polygon fill="midnightblue" stroke="midnightblue" points="1571.32,-28.4573 1575.83,-18.8718 1566.32,-23.5508 1571.32,-28.4573"/>
</g>
</g>
</svg>
