<?xml version="1.0" encoding="UTF-8" standalone="no"?>
<!DOCTYPE svg PUBLIC "-//W3C//DTD SVG 1.1//EN"
 "http://www.w3.org/Graphics/SVG/1.1/DTD/svg11.dtd">
<!-- Generated by graphviz version 2.38.0 (20140413.2041)
 -->
<!-- Title: /Users/jorhabibeljaik/Code/codyco&#45;superbuild/main/ocra&#45;wbi&#45;plugins/ocra&#45;icub/include/ocra&#45;icub/OcraWbiModel.h Pages: 1 -->
<svg width="2367pt" height="467pt"
 viewBox="0.00 0.00 2366.86 467.00" xmlns="http://www.w3.org/2000/svg" xmlns:xlink="http://www.w3.org/1999/xlink">
<g id="graph0" class="graph" transform="scale(1 1) rotate(0) translate(4 463)">
<title>/Users/jorhabibeljaik/Code/codyco&#45;superbuild/main/ocra&#45;wbi&#45;plugins/ocra&#45;icub/include/ocra&#45;icub/OcraWbiModel.h</title>
<polygon fill="white" stroke="none" points="-4,4 -4,-463 2362.86,-463 2362.86,4 -4,4"/>
<!-- Node30 -->
<g id="node1" class="node"><title>Node30</title>
<polygon fill="#bfbfbf" stroke="black" points="1138.93,-400.5 1138.93,-458.5 1265.55,-458.5 1265.55,-400.5 1138.93,-400.5"/>
<text text-anchor="start" x="1146.93" y="-446.5" font-family="Helvetica,sans-Serif" font-size="10.00">/Users/jorhabibeljaik</text>
<text text-anchor="start" x="1146.93" y="-436.5" font-family="Helvetica,sans-Serif" font-size="10.00">/Code/codyco&#45;superbuild</text>
<text text-anchor="start" x="1146.93" y="-426.5" font-family="Helvetica,sans-Serif" font-size="10.00">/main/ocra&#45;wbi&#45;plugins</text>
<text text-anchor="start" x="1146.93" y="-416.5" font-family="Helvetica,sans-Serif" font-size="10.00">/ocra&#45;icub/include/ocra</text>
<text text-anchor="middle" x="1202.24" y="-406.5" font-family="Helvetica,sans-Serif" font-size="10.00">&#45;icub/OcraWbiModel.h</text>
</g>
<!-- Node31 -->
<g id="node2" class="node"><title>Node31</title>
<g id="a_node2"><a xlink:href="IcubControllerServer_8h.html" target="_top" xlink:title="/Users/jorhabibeljaik\l/Code/codyco&#45;superbuild\l/main/ocra&#45;wbi&#45;plugins\l/ocra&#45;icub&#45;server/include\l/ocra&#45;icub&#45;server/IcubControllerServer.h">
<polygon fill="white" stroke="black" points="651.594,-305.5 651.594,-363.5 844.889,-363.5 844.889,-305.5 651.594,-305.5"/>
<text text-anchor="start" x="659.594" y="-351.5" font-family="Helvetica,sans-Serif" font-size="10.00">/Users/jorhabibeljaik</text>
<text text-anchor="start" x="659.594" y="-341.5" font-family="Helvetica,sans-Serif" font-size="10.00">/Code/codyco&#45;superbuild</text>
<text text-anchor="start" x="659.594" y="-331.5" font-family="Helvetica,sans-Serif" font-size="10.00">/main/ocra&#45;wbi&#45;plugins</text>
<text text-anchor="start" x="659.594" y="-321.5" font-family="Helvetica,sans-Serif" font-size="10.00">/ocra&#45;icub&#45;server/include</text>
<text text-anchor="middle" x="748.241" y="-311.5" font-family="Helvetica,sans-Serif" font-size="10.00">/ocra&#45;icub&#45;server/IcubControllerServer.h</text>
</a>
</g>
</g>
<!-- Node30&#45;&gt;Node31 -->
<g id="edge1" class="edge"><title>Node30&#45;&gt;Node31</title>
<path fill="none" stroke="midnightblue" d="M1128.52,-413.399C1051.4,-397.6 929.964,-372.725 845.131,-355.348"/>
<polygon fill="midnightblue" stroke="midnightblue" points="1128.14,-416.893 1138.64,-415.471 1129.54,-410.035 1128.14,-416.893"/>
</g>
<!-- Node38 -->
<g id="node9" class="node"><title>Node38</title>
<g id="a_node9"><a xlink:href="IcubClient_8h.html" target="_top" xlink:title="/Users/jorhabibeljaik\l/Code/codyco&#45;superbuild\l/main/ocra&#45;wbi&#45;plugins\l/ocra&#45;icub/include/ocra\l&#45;icub/IcubClient.h">
<polygon fill="white" stroke="black" points="1139.93,-210.5 1139.93,-268.5 1266.55,-268.5 1266.55,-210.5 1139.93,-210.5"/>
<text text-anchor="start" x="1147.93" y="-256.5" font-family="Helvetica,sans-Serif" font-size="10.00">/Users/jorhabibeljaik</text>
<text text-anchor="start" x="1147.93" y="-246.5" font-family="Helvetica,sans-Serif" font-size="10.00">/Code/codyco&#45;superbuild</text>
<text text-anchor="start" x="1147.93" y="-236.5" font-family="Helvetica,sans-Serif" font-size="10.00">/main/ocra&#45;wbi&#45;plugins</text>
<text text-anchor="start" x="1147.93" y="-226.5" font-family="Helvetica,sans-Serif" font-size="10.00">/ocra&#45;icub/include/ocra</text>
<text text-anchor="middle" x="1203.24" y="-216.5" font-family="Helvetica,sans-Serif" font-size="10.00">&#45;icub/IcubClient.h</text>
</a>
</g>
</g>
<!-- Node30&#45;&gt;Node38 -->
<g id="edge8" class="edge"><title>Node30&#45;&gt;Node38</title>
<path fill="none" stroke="midnightblue" d="M1184.29,-390.889C1180.96,-382.245 1177.98,-372.956 1176.24,-364 1171.25,-338.258 1171.08,-330.709 1176.24,-305 1178.73,-292.622 1183.65,-279.656 1188.62,-268.623"/>
<polygon fill="midnightblue" stroke="midnightblue" points="1181.12,-392.398 1188.16,-400.323 1187.6,-389.743 1181.12,-392.398"/>
</g>
<!-- Node57 -->
<g id="node28" class="node"><title>Node57</title>
<g id="a_node28"><a xlink:href="ModelInitializer_8h.html" target="_top" xlink:title="/Users/jorhabibeljaik\l/Code/codyco&#45;superbuild\l/main/ocra&#45;wbi&#45;plugins\l/ocra&#45;icub/include/ocra\l&#45;icub/ModelInitializer.h">
<polygon fill="white" stroke="black" points="1184.93,-305.5 1184.93,-363.5 1311.55,-363.5 1311.55,-305.5 1184.93,-305.5"/>
<text text-anchor="start" x="1192.93" y="-351.5" font-family="Helvetica,sans-Serif" font-size="10.00">/Users/jorhabibeljaik</text>
<text text-anchor="start" x="1192.93" y="-341.5" font-family="Helvetica,sans-Serif" font-size="10.00">/Code/codyco&#45;superbuild</text>
<text text-anchor="start" x="1192.93" y="-331.5" font-family="Helvetica,sans-Serif" font-size="10.00">/main/ocra&#45;wbi&#45;plugins</text>
<text text-anchor="start" x="1192.93" y="-321.5" font-family="Helvetica,sans-Serif" font-size="10.00">/ocra&#45;icub/include/ocra</text>
<text text-anchor="middle" x="1248.24" y="-311.5" font-family="Helvetica,sans-Serif" font-size="10.00">&#45;icub/ModelInitializer.h</text>
</a>
</g>
</g>
<!-- Node30&#45;&gt;Node57 -->
<g id="edge33" class="edge"><title>Node30&#45;&gt;Node57</title>
<path fill="none" stroke="midnightblue" d="M1220.63,-391.318C1225.21,-382.062 1230.04,-372.293 1234.36,-363.56"/>
<polygon fill="midnightblue" stroke="midnightblue" points="1217.46,-389.829 1216.17,-400.345 1223.74,-392.933 1217.46,-389.829"/>
</g>
<!-- Node59 -->
<g id="node30" class="node"><title>Node59</title>
<g id="a_node30"><a xlink:href="OcraWbiModel_8cpp.html" target="_top" xlink:title="Implementation of ocra::Model using wholeBodyInterface. ">
<polygon fill="white" stroke="black" points="1329.33,-310.5 1329.33,-358.5 1493.15,-358.5 1493.15,-310.5 1329.33,-310.5"/>
<text text-anchor="start" x="1337.33" y="-346.5" font-family="Helvetica,sans-Serif" font-size="10.00">/Users/jorhabibeljaik</text>
<text text-anchor="start" x="1337.33" y="-336.5" font-family="Helvetica,sans-Serif" font-size="10.00">/Code/codyco&#45;superbuild</text>
<text text-anchor="start" x="1337.33" y="-326.5" font-family="Helvetica,sans-Serif" font-size="10.00">/main/ocra&#45;wbi&#45;plugins</text>
<text text-anchor="middle" x="1411.24" y="-316.5" font-family="Helvetica,sans-Serif" font-size="10.00">/ocra&#45;icub/src/OcraWbiModel.cpp</text>
</a>
</g>
</g>
<!-- Node30&#45;&gt;Node59 -->
<g id="edge36" class="edge"><title>Node30&#45;&gt;Node59</title>
<path fill="none" stroke="midnightblue" d="M1274.54,-396.327C1302.42,-383.922 1333.69,-370.009 1359.28,-358.624"/>
<polygon fill="midnightblue" stroke="midnightblue" points="1272.94,-393.208 1265.23,-400.471 1275.79,-399.603 1272.94,-393.208"/>
</g>
<!-- Node32 -->
<g id="node3" class="node"><title>Node32</title>
<g id="a_node3"><a xlink:href="Thread_8h.html" target="_top" xlink:title="The thread class for the controller server. ">
<polygon fill="white" stroke="black" points="328.33,-210.5 328.33,-268.5 462.152,-268.5 462.152,-210.5 328.33,-210.5"/>
<text text-anchor="start" x="336.33" y="-256.5" font-family="Helvetica,sans-Serif" font-size="10.00">/Users/jorhabibeljaik</text>
<text text-anchor="start" x="336.33" y="-246.5" font-family="Helvetica,sans-Serif" font-size="10.00">/Code/codyco&#45;superbuild</text>
<text text-anchor="start" x="336.33" y="-236.5" font-family="Helvetica,sans-Serif" font-size="10.00">/main/ocra&#45;wbi&#45;plugins</text>
<text text-anchor="start" x="336.33" y="-226.5" font-family="Helvetica,sans-Serif" font-size="10.00">/ocra&#45;icub&#45;server/include</text>
<text text-anchor="middle" x="395.241" y="-216.5" font-family="Helvetica,sans-Serif" font-size="10.00">/ocra&#45;icub&#45;server/Thread.h</text>
</a>
</g>
</g>
<!-- Node31&#45;&gt;Node32 -->
<g id="edge2" class="edge"><title>Node31&#45;&gt;Node32</title>
<path fill="none" stroke="midnightblue" d="M641.338,-305.336C583.114,-289.996 512.859,-271.487 462.344,-258.179"/>
<polygon fill="midnightblue" stroke="midnightblue" points="640.754,-308.801 651.316,-307.964 642.537,-302.032 640.754,-308.801"/>
</g>
<!-- Node37 -->
<g id="node8" class="node"><title>Node37</title>
<g id="a_node8"><a xlink:href="IcubControllerServer_8cpp.html" target="_top" xlink:title="/Users/jorhabibeljaik\l/Code/codyco&#45;superbuild\l/main/ocra&#45;wbi&#45;plugins\l/ocra&#45;icub&#45;server/src/IcubController\lServer.cpp">
<polygon fill="white" stroke="black" points="662.163,-210.5 662.163,-268.5 834.32,-268.5 834.32,-210.5 662.163,-210.5"/>
<text text-anchor="start" x="670.163" y="-256.5" font-family="Helvetica,sans-Serif" font-size="10.00">/Users/jorhabibeljaik</text>
<text text-anchor="start" x="670.163" y="-246.5" font-family="Helvetica,sans-Serif" font-size="10.00">/Code/codyco&#45;superbuild</text>
<text text-anchor="start" x="670.163" y="-236.5" font-family="Helvetica,sans-Serif" font-size="10.00">/main/ocra&#45;wbi&#45;plugins</text>
<text text-anchor="start" x="670.163" y="-226.5" font-family="Helvetica,sans-Serif" font-size="10.00">/ocra&#45;icub&#45;server/src/IcubController</text>
<text text-anchor="middle" x="748.241" y="-216.5" font-family="Helvetica,sans-Serif" font-size="10.00">Server.cpp</text>
</a>
</g>
</g>
<!-- Node31&#45;&gt;Node37 -->
<g id="edge7" class="edge"><title>Node31&#45;&gt;Node37</title>
<path fill="none" stroke="midnightblue" d="M748.241,-295.158C748.241,-286.25 748.241,-276.929 748.241,-268.56"/>
<polygon fill="midnightblue" stroke="midnightblue" points="744.741,-295.345 748.241,-305.345 751.741,-295.345 744.741,-295.345"/>
</g>
<!-- Node33 -->
<g id="node4" class="node"><title>Node33</title>
<g id="a_node4"><a xlink:href="Module_8h.html" target="_top" xlink:title="Module class for the controller server. ">
<polygon fill="white" stroke="black" points="161.773,-110.5 161.773,-168.5 296.709,-168.5 296.709,-110.5 161.773,-110.5"/>
<text text-anchor="start" x="169.773" y="-156.5" font-family="Helvetica,sans-Serif" font-size="10.00">/Users/jorhabibeljaik</text>
<text text-anchor="start" x="169.773" y="-146.5" font-family="Helvetica,sans-Serif" font-size="10.00">/Code/codyco&#45;superbuild</text>
<text text-anchor="start" x="169.773" y="-136.5" font-family="Helvetica,sans-Serif" font-size="10.00">/main/ocra&#45;wbi&#45;plugins</text>
<text text-anchor="start" x="169.773" y="-126.5" font-family="Helvetica,sans-Serif" font-size="10.00">/ocra&#45;icub&#45;server/include</text>
<text text-anchor="middle" x="229.241" y="-116.5" font-family="Helvetica,sans-Serif" font-size="10.00">/ocra&#45;icub&#45;server/Module.h</text>
</a>
</g>
</g>
<!-- Node32&#45;&gt;Node33 -->
<g id="edge3" class="edge"><title>Node32&#45;&gt;Node33</title>
<path fill="none" stroke="midnightblue" d="M338.887,-205.23C318.708,-193.318 296.18,-180.018 276.817,-168.587"/>
<polygon fill="midnightblue" stroke="midnightblue" points="337.282,-208.347 347.672,-210.417 340.84,-202.319 337.282,-208.347"/>
</g>
<!-- Node36 -->
<g id="node7" class="node"><title>Node36</title>
<g id="a_node7"><a xlink:href="Thread_8cpp.html" target="_top" xlink:title="The thread class for the controller server. ">
<polygon fill="white" stroke="black" points="314.995,-115.5 314.995,-163.5 475.487,-163.5 475.487,-115.5 314.995,-115.5"/>
<text text-anchor="start" x="322.995" y="-151.5" font-family="Helvetica,sans-Serif" font-size="10.00">/Users/jorhabibeljaik</text>
<text text-anchor="start" x="322.995" y="-141.5" font-family="Helvetica,sans-Serif" font-size="10.00">/Code/codyco&#45;superbuild</text>
<text text-anchor="start" x="322.995" y="-131.5" font-family="Helvetica,sans-Serif" font-size="10.00">/main/ocra&#45;wbi&#45;plugins</text>
<text text-anchor="middle" x="395.241" y="-121.5" font-family="Helvetica,sans-Serif" font-size="10.00">/ocra&#45;icub&#45;server/src/Thread.cpp</text>
</a>
</g>
</g>
<!-- Node32&#45;&gt;Node36 -->
<g id="edge6" class="edge"><title>Node32&#45;&gt;Node36</title>
<path fill="none" stroke="midnightblue" d="M395.241,-200.316C395.241,-187.93 395.241,-174.573 395.241,-163.631"/>
<polygon fill="midnightblue" stroke="midnightblue" points="391.741,-200.417 395.241,-210.417 398.741,-200.417 391.741,-200.417"/>
</g>
<!-- Node34 -->
<g id="node5" class="node"><title>Node34</title>
<g id="a_node5"><a xlink:href="ocra-icub-server_2src_2main_8cpp.html" target="_top" xlink:title="/Users/jorhabibeljaik\l/Code/codyco&#45;superbuild\l/main/ocra&#45;wbi&#45;plugins\l/ocra&#45;icub&#45;server/src/main.cpp">
<polygon fill="white" stroke="black" points="0,-10.5 0,-58.5 150.482,-58.5 150.482,-10.5 0,-10.5"/>
<text text-anchor="start" x="8" y="-46.5" font-family="Helvetica,sans-Serif" font-size="10.00">/Users/jorhabibeljaik</text>
<text text-anchor="start" x="8" y="-36.5" font-family="Helvetica,sans-Serif" font-size="10.00">/Code/codyco&#45;superbuild</text>
<text text-anchor="start" x="8" y="-26.5" font-family="Helvetica,sans-Serif" font-size="10.00">/main/ocra&#45;wbi&#45;plugins</text>
<text text-anchor="middle" x="75.2412" y="-16.5" font-family="Helvetica,sans-Serif" font-size="10.00">/ocra&#45;icub&#45;server/src/main.cpp</text>
</a>
</g>
</g>
<!-- Node33&#45;&gt;Node34 -->
<g id="edge4" class="edge"><title>Node33&#45;&gt;Node34</title>
<path fill="none" stroke="midnightblue" d="M178.69,-104.69C156.098,-89.5797 130.049,-72.1571 109.742,-58.5751"/>
<polygon fill="midnightblue" stroke="midnightblue" points="176.902,-107.705 187.16,-110.355 180.794,-101.886 176.902,-107.705"/>
</g>
<!-- Node35 -->
<g id="node6" class="node"><title>Node35</title>
<g id="a_node6"><a xlink:href="Module_8cpp.html" target="_top" xlink:title="/Users/jorhabibeljaik\l/Code/codyco&#45;superbuild\l/main/ocra&#45;wbi&#45;plugins\l/ocra&#45;icub&#45;server/src/Module.cpp">
<polygon fill="white" stroke="black" points="168.438,-10.5 168.438,-58.5 330.044,-58.5 330.044,-10.5 168.438,-10.5"/>
<text text-anchor="start" x="176.438" y="-46.5" font-family="Helvetica,sans-Serif" font-size="10.00">/Users/jorhabibeljaik</text>
<text text-anchor="start" x="176.438" y="-36.5" font-family="Helvetica,sans-Serif" font-size="10.00">/Code/codyco&#45;superbuild</text>
<text text-anchor="start" x="176.438" y="-26.5" font-family="Helvetica,sans-Serif" font-size="10.00">/main/ocra&#45;wbi&#45;plugins</text>
<text text-anchor="middle" x="249.241" y="-16.5" font-family="Helvetica,sans-Serif" font-size="10.00">/ocra&#45;icub&#45;server/src/Module.cpp</text>
</a>
</g>
</g>
<!-- Node33&#45;&gt;Node35 -->
<g id="edge5" class="edge"><title>Node33&#45;&gt;Node35</title>
<path fill="none" stroke="midnightblue" d="M236.624,-100.479C239.342,-86.4805 242.338,-71.0525 244.728,-58.7436"/>
<polygon fill="midnightblue" stroke="midnightblue" points="233.177,-99.871 234.706,-110.355 240.048,-101.205 233.177,-99.871"/>
</g>
<!-- Node39 -->
<g id="node10" class="node"><title>Node39</title>
<g id="a_node10"><a xlink:href="ExampleClient_8h.html" target="_top" xlink:title="/Users/jorhabibeljaik\l/Code/codyco&#45;superbuild\l/main/ocra&#45;wbi&#45;plugins\l/ocra&#45;icub&#45;clients/example\l&#45;client/include/example&#45;client\l/ExampleClient.h">
<polygon fill="white" stroke="black" points="531.044,-105.5 531.044,-173.5 675.438,-173.5 675.438,-105.5 531.044,-105.5"/>
<text text-anchor="start" x="539.044" y="-161.5" font-family="Helvetica,sans-Serif" font-size="10.00">/Users/jorhabibeljaik</text>
<text text-anchor="start" x="539.044" y="-151.5" font-family="Helvetica,sans-Serif" font-size="10.00">/Code/codyco&#45;superbuild</text>
<text text-anchor="start" x="539.044" y="-141.5" font-family="Helvetica,sans-Serif" font-size="10.00">/main/ocra&#45;wbi&#45;plugins</text>
<text text-anchor="start" x="539.044" y="-131.5" font-family="Helvetica,sans-Serif" font-size="10.00">/ocra&#45;icub&#45;clients/example</text>
<text text-anchor="start" x="539.044" y="-121.5" font-family="Helvetica,sans-Serif" font-size="10.00">&#45;client/include/example&#45;client</text>
<text text-anchor="middle" x="603.241" y="-111.5" font-family="Helvetica,sans-Serif" font-size="10.00">/ExampleClient.h</text>
</a>
</g>
</g>
<!-- Node38&#45;&gt;Node39 -->
<g id="edge9" class="edge"><title>Node38&#45;&gt;Node39</title>
<path fill="none" stroke="midnightblue" d="M1129.7,-228.929C1042.69,-217.309 893.556,-196.46 766.241,-174 736.51,-168.755 703.891,-162.21 675.696,-156.3"/>
<polygon fill="midnightblue" stroke="midnightblue" points="1129.36,-232.415 1139.74,-230.266 1130.29,-225.476 1129.36,-232.415"/>
</g>
<!-- Node40 -->
<g id="node11" class="node"><title>Node40</title>
<g id="a_node11"><a xlink:href="example-client_8cpp.html" target="_top" xlink:title="/Users/jorhabibeljaik\l/Code/codyco&#45;superbuild\l/main/ocra&#45;wbi&#45;plugins\l/ocra&#45;icub&#45;clients/example\l&#45;client/src/example&#45;client.cpp">
<polygon fill="white" stroke="black" points="357.773,-5.5 357.773,-63.5 502.709,-63.5 502.709,-5.5 357.773,-5.5"/>
<text text-anchor="start" x="365.773" y="-51.5" font-family="Helvetica,sans-Serif" font-size="10.00">/Users/jorhabibeljaik</text>
<text text-anchor="start" x="365.773" y="-41.5" font-family="Helvetica,sans-Serif" font-size="10.00">/Code/codyco&#45;superbuild</text>
<text text-anchor="start" x="365.773" y="-31.5" font-family="Helvetica,sans-Serif" font-size="10.00">/main/ocra&#45;wbi&#45;plugins</text>
<text text-anchor="start" x="365.773" y="-21.5" font-family="Helvetica,sans-Serif" font-size="10.00">/ocra&#45;icub&#45;clients/example</text>
<text text-anchor="middle" x="430.241" y="-11.5" font-family="Helvetica,sans-Serif" font-size="10.00">&#45;client/src/example&#45;client.cpp</text>
</a>
</g>
</g>
<!-- Node38&#45;&gt;Node40 -->
<g id="edge12" class="edge"><title>Node38&#45;&gt;Node40</title>
<path fill="none" stroke="midnightblue" d="M1129.58,-232.431C955.999,-218.009 534.842,-182.272 522.241,-174 492.974,-154.787 503.485,-134.246 484.241,-105 475.002,-90.9589 463.733,-76.1525 453.884,-63.8309"/>
<polygon fill="midnightblue" stroke="midnightblue" points="1129.4,-235.928 1139.66,-233.267 1129.98,-228.952 1129.4,-235.928"/>
</g>
<!-- Node42 -->
<g id="node13" class="node"><title>Node42</title>
<g id="a_node13"><a xlink:href="SittingDemoClient_8h.html" target="_top" xlink:title="/Users/jorhabibeljaik\l/Code/codyco&#45;superbuild\l/main/ocra&#45;wbi&#45;plugins\l/ocra&#45;icub&#45;clients/sitting\l&#45;demo/include/sitting&#45;demo\l/SittingDemoClient.h">
<polygon fill="white" stroke="black" points="841.212,-105.5 841.212,-173.5 977.271,-173.5 977.271,-105.5 841.212,-105.5"/>
<text text-anchor="start" x="849.212" y="-161.5" font-family="Helvetica,sans-Serif" font-size="10.00">/Users/jorhabibeljaik</text>
<text text-anchor="start" x="849.212" y="-151.5" font-family="Helvetica,sans-Serif" font-size="10.00">/Code/codyco&#45;superbuild</text>
<text text-anchor="start" x="849.212" y="-141.5" font-family="Helvetica,sans-Serif" font-size="10.00">/main/ocra&#45;wbi&#45;plugins</text>
<text text-anchor="start" x="849.212" y="-131.5" font-family="Helvetica,sans-Serif" font-size="10.00">/ocra&#45;icub&#45;clients/sitting</text>
<text text-anchor="start" x="849.212" y="-121.5" font-family="Helvetica,sans-Serif" font-size="10.00">&#45;demo/include/sitting&#45;demo</text>
<text text-anchor="middle" x="909.241" y="-111.5" font-family="Helvetica,sans-Serif" font-size="10.00">/SittingDemoClient.h</text>
</a>
</g>
</g>
<!-- Node38&#45;&gt;Node42 -->
<g id="edge13" class="edge"><title>Node38&#45;&gt;Node42</title>
<path fill="none" stroke="midnightblue" d="M1130.05,-214.103C1083.32,-198.526 1023.15,-178.47 977.426,-163.228"/>
<polygon fill="midnightblue" stroke="midnightblue" points="1129.22,-217.514 1139.81,-217.356 1131.43,-210.873 1129.22,-217.514"/>
</g>
<!-- Node43 -->
<g id="node14" class="node"><title>Node43</title>
<g id="a_node14"><a xlink:href="ocra-icub-clients_2sitting-demo_2src_2main_8cpp.html" target="_top" xlink:title="/Users/jorhabibeljaik\l/Code/codyco&#45;superbuild\l/main/ocra&#45;wbi&#45;plugins\l/ocra&#45;icub&#45;clients/sitting\l&#45;demo/src/main.cpp">
<polygon fill="white" stroke="black" points="683.931,-5.5 683.931,-63.5 810.551,-63.5 810.551,-5.5 683.931,-5.5"/>
<text text-anchor="start" x="691.931" y="-51.5" font-family="Helvetica,sans-Serif" font-size="10.00">/Users/jorhabibeljaik</text>
<text text-anchor="start" x="691.931" y="-41.5" font-family="Helvetica,sans-Serif" font-size="10.00">/Code/codyco&#45;superbuild</text>
<text text-anchor="start" x="691.931" y="-31.5" font-family="Helvetica,sans-Serif" font-size="10.00">/main/ocra&#45;wbi&#45;plugins</text>
<text text-anchor="start" x="691.931" y="-21.5" font-family="Helvetica,sans-Serif" font-size="10.00">/ocra&#45;icub&#45;clients/sitting</text>
<text text-anchor="middle" x="747.241" y="-11.5" font-family="Helvetica,sans-Serif" font-size="10.00">&#45;demo/src/main.cpp</text>
</a>
</g>
</g>
<!-- Node38&#45;&gt;Node43 -->
<g id="edge16" class="edge"><title>Node38&#45;&gt;Node43</title>
<path fill="none" stroke="midnightblue" d="M1129.73,-232.879C1035.78,-224.493 879.607,-206.144 832.241,-174 792.906,-147.306 768.527,-95.7494 756.457,-63.6244"/>
<polygon fill="midnightblue" stroke="midnightblue" points="1129.47,-236.37 1139.74,-233.756 1130.08,-229.397 1129.47,-236.37"/>
</g>
<!-- Node45 -->
<g id="node16" class="node"><title>Node45</title>
<g id="a_node16"><a xlink:href="StandingDemoClient_8h.html" target="_top" xlink:title="/Users/jorhabibeljaik\l/Code/codyco&#45;superbuild\l/main/ocra&#45;wbi&#45;plugins\l/ocra&#45;icub&#45;clients/standing\l&#45;demo/include/standing&#45;demo\l/StandingDemoClient.h">
<polygon fill="white" stroke="black" points="1129.37,-105.5 1129.37,-173.5 1277.11,-173.5 1277.11,-105.5 1129.37,-105.5"/>
<text text-anchor="start" x="1137.37" y="-161.5" font-family="Helvetica,sans-Serif" font-size="10.00">/Users/jorhabibeljaik</text>
<text text-anchor="start" x="1137.37" y="-151.5" font-family="Helvetica,sans-Serif" font-size="10.00">/Code/codyco&#45;superbuild</text>
<text text-anchor="start" x="1137.37" y="-141.5" font-family="Helvetica,sans-Serif" font-size="10.00">/main/ocra&#45;wbi&#45;plugins</text>
<text text-anchor="start" x="1137.37" y="-131.5" font-family="Helvetica,sans-Serif" font-size="10.00">/ocra&#45;icub&#45;clients/standing</text>
<text text-anchor="start" x="1137.37" y="-121.5" font-family="Helvetica,sans-Serif" font-size="10.00">&#45;demo/include/standing&#45;demo</text>
<text text-anchor="middle" x="1203.24" y="-111.5" font-family="Helvetica,sans-Serif" font-size="10.00">/StandingDemoClient.h</text>
</a>
</g>
</g>
<!-- Node38&#45;&gt;Node45 -->
<g id="edge17" class="edge"><title>Node38&#45;&gt;Node45</title>
<path fill="none" stroke="midnightblue" d="M1203.24,-200.406C1203.24,-191.624 1203.24,-182.35 1203.24,-173.79"/>
<polygon fill="midnightblue" stroke="midnightblue" points="1199.74,-200.417 1203.24,-210.417 1206.74,-200.417 1199.74,-200.417"/>
</g>
<!-- Node46 -->
<g id="node17" class="node"><title>Node46</title>
<g id="a_node17"><a xlink:href="ocra-icub-clients_2standing-demo_2src_2main_8cpp.html" target="_top" xlink:title="/Users/jorhabibeljaik\l/Code/codyco&#45;superbuild\l/main/ocra&#45;wbi&#45;plugins\l/ocra&#45;icub&#45;clients/standing\l&#45;demo/src/main.cpp">
<polygon fill="white" stroke="black" points="1008.16,-5.5 1008.16,-63.5 1140.32,-63.5 1140.32,-5.5 1008.16,-5.5"/>
<text text-anchor="start" x="1016.16" y="-51.5" font-family="Helvetica,sans-Serif" font-size="10.00">/Users/jorhabibeljaik</text>
<text text-anchor="start" x="1016.16" y="-41.5" font-family="Helvetica,sans-Serif" font-size="10.00">/Code/codyco&#45;superbuild</text>
<text text-anchor="start" x="1016.16" y="-31.5" font-family="Helvetica,sans-Serif" font-size="10.00">/main/ocra&#45;wbi&#45;plugins</text>
<text text-anchor="start" x="1016.16" y="-21.5" font-family="Helvetica,sans-Serif" font-size="10.00">/ocra&#45;icub&#45;clients/standing</text>
<text text-anchor="middle" x="1074.24" y="-11.5" font-family="Helvetica,sans-Serif" font-size="10.00">&#45;demo/src/main.cpp</text>
</a>
</g>
</g>
<!-- Node38&#45;&gt;Node46 -->
<g id="edge20" class="edge"><title>Node38&#45;&gt;Node46</title>
<path fill="none" stroke="midnightblue" d="M1148.91,-203.811C1138.29,-195.098 1128.05,-185.043 1120.24,-174 1096.4,-140.278 1084.27,-93.3496 1078.6,-63.7035"/>
<polygon fill="midnightblue" stroke="midnightblue" points="1147.03,-206.789 1157.06,-210.207 1151.35,-201.281 1147.03,-206.789"/>
</g>
<!-- Node48 -->
<g id="node19" class="node"><title>Node48</title>
<g id="a_node19"><a xlink:href="SteppingDemoClient_8h.html" target="_top" xlink:title="/Users/jorhabibeljaik\l/Code/codyco&#45;superbuild\l/main/ocra&#45;wbi&#45;plugins\l/ocra&#45;icub&#45;clients/stepping\l&#45;demo/include/stepping&#45;demo\l/SteppingDemoClient.h">
<polygon fill="white" stroke="black" points="1350.37,-105.5 1350.37,-173.5 1498.11,-173.5 1498.11,-105.5 1350.37,-105.5"/>
<text text-anchor="start" x="1358.37" y="-161.5" font-family="Helvetica,sans-Serif" font-size="10.00">/Users/jorhabibeljaik</text>
<text text-anchor="start" x="1358.37" y="-151.5" font-family="Helvetica,sans-Serif" font-size="10.00">/Code/codyco&#45;superbuild</text>
<text text-anchor="start" x="1358.37" y="-141.5" font-family="Helvetica,sans-Serif" font-size="10.00">/main/ocra&#45;wbi&#45;plugins</text>
<text text-anchor="start" x="1358.37" y="-131.5" font-family="Helvetica,sans-Serif" font-size="10.00">/ocra&#45;icub&#45;clients/stepping</text>
<text text-anchor="start" x="1358.37" y="-121.5" font-family="Helvetica,sans-Serif" font-size="10.00">&#45;demo/include/stepping&#45;demo</text>
<text text-anchor="middle" x="1424.24" y="-111.5" font-family="Helvetica,sans-Serif" font-size="10.00">/SteppingDemoClient.h</text>
</a>
</g>
</g>
<!-- Node38&#45;&gt;Node48 -->
<g id="edge21" class="edge"><title>Node38&#45;&gt;Node48</title>
<path fill="none" stroke="midnightblue" d="M1275.93,-206.267C1299.82,-195.674 1326.39,-183.893 1350.36,-173.261"/>
<polygon fill="midnightblue" stroke="midnightblue" points="1274.29,-203.164 1266.57,-210.417 1277.13,-209.563 1274.29,-203.164"/>
</g>
<!-- Node49 -->
<g id="node20" class="node"><title>Node49</title>
<g id="a_node20"><a xlink:href="stepping-demo_8cpp.html" target="_top" xlink:title="/Users/jorhabibeljaik\l/Code/codyco&#45;superbuild\l/main/ocra&#45;wbi&#45;plugins\l/ocra&#45;icub&#45;clients/stepping\l&#45;demo/src/stepping&#45;demo.cpp">
<polygon fill="white" stroke="black" points="1350.1,-5.5 1350.1,-63.5 1498.38,-63.5 1498.38,-5.5 1350.1,-5.5"/>
<text text-anchor="start" x="1358.1" y="-51.5" font-family="Helvetica,sans-Serif" font-size="10.00">/Users/jorhabibeljaik</text>
<text text-anchor="start" x="1358.1" y="-41.5" font-family="Helvetica,sans-Serif" font-size="10.00">/Code/codyco&#45;superbuild</text>
<text text-anchor="start" x="1358.1" y="-31.5" font-family="Helvetica,sans-Serif" font-size="10.00">/main/ocra&#45;wbi&#45;plugins</text>
<text text-anchor="start" x="1358.1" y="-21.5" font-family="Helvetica,sans-Serif" font-size="10.00">/ocra&#45;icub&#45;clients/stepping</text>
<text text-anchor="middle" x="1424.24" y="-11.5" font-family="Helvetica,sans-Serif" font-size="10.00">&#45;demo/src/stepping&#45;demo.cpp</text>
</a>
</g>
</g>
<!-- Node38&#45;&gt;Node49 -->
<g id="edge24" class="edge"><title>Node38&#45;&gt;Node49</title>
<path fill="none" stroke="midnightblue" d="M1251.37,-204.209C1263.23,-194.929 1275.59,-184.524 1286.24,-174 1314.14,-146.441 1313.85,-133.063 1341.24,-105 1355.42,-90.4751 1372.41,-75.8361 1387.31,-63.7643"/>
<polygon fill="midnightblue" stroke="midnightblue" points="1249.05,-201.574 1243.26,-210.442 1253.32,-207.124 1249.05,-201.574"/>
</g>
<!-- Node51 -->
<g id="node22" class="node"><title>Node51</title>
<g id="a_node22"><a xlink:href="TaskOpsClient_8h.html" target="_top" xlink:title="/Users/jorhabibeljaik\l/Code/codyco&#45;superbuild\l/main/ocra&#45;wbi&#45;plugins\l/ocra&#45;icub&#45;clients/task\l&#45;operations&#45;demo/include\l/task&#45;operations&#45;demo/TaskOpsClient.h">
<polygon fill="white" stroke="black" points="1678.7,-105.5 1678.7,-173.5 1869.78,-173.5 1869.78,-105.5 1678.7,-105.5"/>
<text text-anchor="start" x="1686.7" y="-161.5" font-family="Helvetica,sans-Serif" font-size="10.00">/Users/jorhabibeljaik</text>
<text text-anchor="start" x="1686.7" y="-151.5" font-family="Helvetica,sans-Serif" font-size="10.00">/Code/codyco&#45;superbuild</text>
<text text-anchor="start" x="1686.7" y="-141.5" font-family="Helvetica,sans-Serif" font-size="10.00">/main/ocra&#45;wbi&#45;plugins</text>
<text text-anchor="start" x="1686.7" y="-131.5" font-family="Helvetica,sans-Serif" font-size="10.00">/ocra&#45;icub&#45;clients/task</text>
<text text-anchor="start" x="1686.7" y="-121.5" font-family="Helvetica,sans-Serif" font-size="10.00">&#45;operations&#45;demo/include</text>
<text text-anchor="middle" x="1774.24" y="-111.5" font-family="Helvetica,sans-Serif" font-size="10.00">/task&#45;operations&#45;demo/TaskOpsClient.h</text>
</a>
</g>
</g>
<!-- Node38&#45;&gt;Node51 -->
<g id="edge25" class="edge"><title>Node38&#45;&gt;Node51</title>
<path fill="none" stroke="midnightblue" d="M1276.9,-209.825C1419.02,-175.711 1460.94,-195.501 1602.24,-174 1627.05,-170.224 1653.74,-165.403 1678.51,-160.602"/>
<polygon fill="midnightblue" stroke="midnightblue" points="1275.82,-206.485 1266.94,-212.263 1277.49,-213.284 1275.82,-206.485"/>
</g>
<!-- Node52 -->
<g id="node23" class="node"><title>Node52</title>
<g id="a_node23"><a xlink:href="task-operations-demo_8cpp.html" target="_top" xlink:title="/Users/jorhabibeljaik\l/Code/codyco&#45;superbuild\l/main/ocra&#45;wbi&#45;plugins\l/ocra&#45;icub&#45;clients/task\l&#45;operations&#45;demo/src/task\l&#45;operations&#45;demo.cpp">
<polygon fill="white" stroke="black" points="1708.44,-0.5 1708.44,-68.5 1840.04,-68.5 1840.04,-0.5 1708.44,-0.5"/>
<text text-anchor="start" x="1716.44" y="-56.5" font-family="Helvetica,sans-Serif" font-size="10.00">/Users/jorhabibeljaik</text>
<text text-anchor="start" x="1716.44" y="-46.5" font-family="Helvetica,sans-Serif" font-size="10.00">/Code/codyco&#45;superbuild</text>
<text text-anchor="start" x="1716.44" y="-36.5" font-family="Helvetica,sans-Serif" font-size="10.00">/main/ocra&#45;wbi&#45;plugins</text>
<text text-anchor="start" x="1716.44" y="-26.5" font-family="Helvetica,sans-Serif" font-size="10.00">/ocra&#45;icub&#45;clients/task</text>
<text text-anchor="start" x="1716.44" y="-16.5" font-family="Helvetica,sans-Serif" font-size="10.00">&#45;operations&#45;demo/src/task</text>
<text text-anchor="middle" x="1774.24" y="-6.5" font-family="Helvetica,sans-Serif" font-size="10.00">&#45;operations&#45;demo.cpp</text>
</a>
</g>
</g>
<!-- Node38&#45;&gt;Node52 -->
<g id="edge28" class="edge"><title>Node38&#45;&gt;Node52</title>
<path fill="none" stroke="midnightblue" d="M1276.31,-209.968C1377.94,-184.019 1411.07,-205.468 1507.24,-174 1586.4,-148.098 1670.57,-100.708 1722.77,-68.6615"/>
<polygon fill="midnightblue" stroke="midnightblue" points="1275.36,-206.599 1266.58,-212.54 1277.15,-213.366 1275.36,-206.599"/>
</g>
<!-- Node54 -->
<g id="node25" class="node"><title>Node54</title>
<g id="a_node25"><a xlink:href="WalkingClient_8h.html" target="_top" xlink:title="/Users/jorhabibeljaik\l/Code/codyco&#45;superbuild\l/main/ocra&#45;wbi&#45;plugins\l/ocra&#45;icub&#45;clients/walking\l&#45;client/include/walking&#45;client\l/WalkingClient.h">
<polygon fill="white" stroke="black" points="2066.27,-105.5 2066.27,-173.5 2206.21,-173.5 2206.21,-105.5 2066.27,-105.5"/>
<text text-anchor="start" x="2074.27" y="-161.5" font-family="Helvetica,sans-Serif" font-size="10.00">/Users/jorhabibeljaik</text>
<text text-anchor="start" x="2074.27" y="-151.5" font-family="Helvetica,sans-Serif" font-size="10.00">/Code/codyco&#45;superbuild</text>
<text text-anchor="start" x="2074.27" y="-141.5" font-family="Helvetica,sans-Serif" font-size="10.00">/main/ocra&#45;wbi&#45;plugins</text>
<text text-anchor="start" x="2074.27" y="-131.5" font-family="Helvetica,sans-Serif" font-size="10.00">/ocra&#45;icub&#45;clients/walking</text>
<text text-anchor="start" x="2074.27" y="-121.5" font-family="Helvetica,sans-Serif" font-size="10.00">&#45;client/include/walking&#45;client</text>
<text text-anchor="middle" x="2136.24" y="-111.5" font-family="Helvetica,sans-Serif" font-size="10.00">/WalkingClient.h</text>
</a>
</g>
</g>
<!-- Node38&#45;&gt;Node54 -->
<g id="edge29" class="edge"><title>Node38&#45;&gt;Node54</title>
<path fill="none" stroke="midnightblue" d="M1276.99,-209.889C1584.61,-144.757 1673.72,-215.131 1982.24,-174 2009.91,-170.312 2039.97,-164.245 2066.14,-158.279"/>
<polygon fill="midnightblue" stroke="midnightblue" points="1275.93,-206.536 1266.89,-212.059 1277.41,-213.38 1275.93,-206.536"/>
</g>
<!-- Node55 -->
<g id="node26" class="node"><title>Node55</title>
<g id="a_node26"><a xlink:href="ocra-icub-clients_2walking-client_2src_2main_8cpp.html" target="_top" xlink:title="/Users/jorhabibeljaik\l/Code/codyco&#45;superbuild\l/main/ocra&#45;wbi&#45;plugins\l/ocra&#45;icub&#45;clients/walking\l&#45;client/src/main.cpp">
<polygon fill="white" stroke="black" points="2072.39,-5.5 2072.39,-63.5 2200.1,-63.5 2200.1,-5.5 2072.39,-5.5"/>
<text text-anchor="start" x="2080.39" y="-51.5" font-family="Helvetica,sans-Serif" font-size="10.00">/Users/jorhabibeljaik</text>
<text text-anchor="start" x="2080.39" y="-41.5" font-family="Helvetica,sans-Serif" font-size="10.00">/Code/codyco&#45;superbuild</text>
<text text-anchor="start" x="2080.39" y="-31.5" font-family="Helvetica,sans-Serif" font-size="10.00">/main/ocra&#45;wbi&#45;plugins</text>
<text text-anchor="start" x="2080.39" y="-21.5" font-family="Helvetica,sans-Serif" font-size="10.00">/ocra&#45;icub&#45;clients/walking</text>
<text text-anchor="middle" x="2136.24" y="-11.5" font-family="Helvetica,sans-Serif" font-size="10.00">&#45;client/src/main.cpp</text>
</a>
</g>
</g>
<!-- Node38&#45;&gt;Node55 -->
<g id="edge32" class="edge"><title>Node38&#45;&gt;Node55</title>
<path fill="none" stroke="midnightblue" d="M1276.74,-209.95C1539.83,-154.093 1623.72,-246.622 1879.24,-174 1962.37,-150.375 2048.77,-96.7837 2097.21,-63.6218"/>
<polygon fill="midnightblue" stroke="midnightblue" points="1275.93,-206.544 1266.9,-212.089 1277.41,-213.384 1275.93,-206.544"/>
</g>
<!-- Node39&#45;&gt;Node40 -->
<g id="edge10" class="edge"><title>Node39&#45;&gt;Node40</title>
<path fill="none" stroke="midnightblue" d="M538.931,-100.211C518.533,-88.0668 496.369,-74.871 477.409,-63.5825"/>
<polygon fill="midnightblue" stroke="midnightblue" points="537.168,-103.235 547.551,-105.343 540.749,-97.2201 537.168,-103.235"/>
</g>
<!-- Node41 -->
<g id="node12" class="node"><title>Node41</title>
<g id="a_node12"><a xlink:href="ExampleClient_8cpp.html" target="_top" xlink:title="/Users/jorhabibeljaik\l/Code/codyco&#45;superbuild\l/main/ocra&#45;wbi&#45;plugins\l/ocra&#45;icub&#45;clients/example\l&#45;client/src/ExampleClient.cpp">
<polygon fill="white" stroke="black" points="520.773,-5.5 520.773,-63.5 665.709,-63.5 665.709,-5.5 520.773,-5.5"/>
<text text-anchor="start" x="528.773" y="-51.5" font-family="Helvetica,sans-Serif" font-size="10.00">/Users/jorhabibeljaik</text>
<text text-anchor="start" x="528.773" y="-41.5" font-family="Helvetica,sans-Serif" font-size="10.00">/Code/codyco&#45;superbuild</text>
<text text-anchor="start" x="528.773" y="-31.5" font-family="Helvetica,sans-Serif" font-size="10.00">/main/ocra&#45;wbi&#45;plugins</text>
<text text-anchor="start" x="528.773" y="-21.5" font-family="Helvetica,sans-Serif" font-size="10.00">/ocra&#45;icub&#45;clients/example</text>
<text text-anchor="middle" x="593.241" y="-11.5" font-family="Helvetica,sans-Serif" font-size="10.00">&#45;client/src/ExampleClient.cpp</text>
</a>
</g>
</g>
<!-- Node39&#45;&gt;Node41 -->
<g id="edge11" class="edge"><title>Node39&#45;&gt;Node41</title>
<path fill="none" stroke="midnightblue" d="M599.05,-95.3273C598.014,-84.6595 596.931,-73.502 595.984,-63.7516"/>
<polygon fill="midnightblue" stroke="midnightblue" points="595.572,-95.7282 600.022,-105.343 602.539,-95.0517 595.572,-95.7282"/>
</g>
<!-- Node42&#45;&gt;Node43 -->
<g id="edge14" class="edge"><title>Node42&#45;&gt;Node43</title>
<path fill="none" stroke="midnightblue" d="M848.508,-99.8858C829.549,-87.8313 809.006,-74.7702 791.41,-63.5825"/>
<polygon fill="midnightblue" stroke="midnightblue" points="846.775,-102.931 857.092,-105.343 850.531,-97.0242 846.775,-102.931"/>
</g>
<!-- Node44 -->
<g id="node15" class="node"><title>Node44</title>
<g id="a_node15"><a xlink:href="SittingDemoClient_8cpp.html" target="_top" xlink:title="/Users/jorhabibeljaik\l/Code/codyco&#45;superbuild\l/main/ocra&#45;wbi&#45;plugins\l/ocra&#45;icub&#45;clients/sitting\l&#45;demo/src/SittingDemoClient.cpp">
<polygon fill="white" stroke="black" points="828.158,-5.5 828.158,-63.5 990.325,-63.5 990.325,-5.5 828.158,-5.5"/>
<text text-anchor="start" x="836.158" y="-51.5" font-family="Helvetica,sans-Serif" font-size="10.00">/Users/jorhabibeljaik</text>
<text text-anchor="start" x="836.158" y="-41.5" font-family="Helvetica,sans-Serif" font-size="10.00">/Code/codyco&#45;superbuild</text>
<text text-anchor="start" x="836.158" y="-31.5" font-family="Helvetica,sans-Serif" font-size="10.00">/main/ocra&#45;wbi&#45;plugins</text>
<text text-anchor="start" x="836.158" y="-21.5" font-family="Helvetica,sans-Serif" font-size="10.00">/ocra&#45;icub&#45;clients/sitting</text>
<text text-anchor="middle" x="909.241" y="-11.5" font-family="Helvetica,sans-Serif" font-size="10.00">&#45;demo/src/SittingDemoClient.cpp</text>
</a>
</g>
</g>
<!-- Node42&#45;&gt;Node44 -->
<g id="edge15" class="edge"><title>Node42&#45;&gt;Node44</title>
<path fill="none" stroke="midnightblue" d="M909.241,-95.3273C909.241,-84.6595 909.241,-73.502 909.241,-63.7516"/>
<polygon fill="midnightblue" stroke="midnightblue" points="905.741,-95.3432 909.241,-105.343 912.741,-95.3432 905.741,-95.3432"/>
</g>
<!-- Node45&#45;&gt;Node46 -->
<g id="edge18" class="edge"><title>Node45&#45;&gt;Node46</title>
<path fill="none" stroke="midnightblue" d="M1153.69,-98.9349C1139,-87.2081 1123.22,-74.6077 1109.62,-63.7516"/>
<polygon fill="midnightblue" stroke="midnightblue" points="1151.72,-101.839 1161.71,-105.343 1156.08,-96.3685 1151.72,-101.839"/>
</g>
<!-- Node47 -->
<g id="node18" class="node"><title>Node47</title>
<g id="a_node18"><a xlink:href="StandingDemoClient_8cpp.html" target="_top" xlink:title="/Users/jorhabibeljaik\l/Code/codyco&#45;superbuild\l/main/ocra&#45;wbi&#45;plugins\l/ocra&#45;icub&#45;clients/standing\l&#45;demo/src/StandingDemoClient.cpp">
<polygon fill="white" stroke="black" points="1158.32,-5.5 1158.32,-63.5 1332.17,-63.5 1332.17,-5.5 1158.32,-5.5"/>
<text text-anchor="start" x="1166.32" y="-51.5" font-family="Helvetica,sans-Serif" font-size="10.00">/Users/jorhabibeljaik</text>
<text text-anchor="start" x="1166.32" y="-41.5" font-family="Helvetica,sans-Serif" font-size="10.00">/Code/codyco&#45;superbuild</text>
<text text-anchor="start" x="1166.32" y="-31.5" font-family="Helvetica,sans-Serif" font-size="10.00">/main/ocra&#45;wbi&#45;plugins</text>
<text text-anchor="start" x="1166.32" y="-21.5" font-family="Helvetica,sans-Serif" font-size="10.00">/ocra&#45;icub&#45;clients/standing</text>
<text text-anchor="middle" x="1245.24" y="-11.5" font-family="Helvetica,sans-Serif" font-size="10.00">&#45;demo/src/StandingDemoClient.cpp</text>
</a>
</g>
</g>
<!-- Node45&#45;&gt;Node47 -->
<g id="edge19" class="edge"><title>Node45&#45;&gt;Node47</title>
<path fill="none" stroke="midnightblue" d="M1220.58,-95.9865C1225.01,-85.1202 1229.66,-73.703 1233.72,-63.7516"/>
<polygon fill="midnightblue" stroke="midnightblue" points="1217.3,-94.7619 1216.76,-105.343 1223.78,-97.405 1217.3,-94.7619"/>
</g>
<!-- Node48&#45;&gt;Node49 -->
<g id="edge22" class="edge"><title>Node48&#45;&gt;Node49</title>
<path fill="none" stroke="midnightblue" d="M1424.24,-95.3273C1424.24,-84.6595 1424.24,-73.502 1424.24,-63.7516"/>
<polygon fill="midnightblue" stroke="midnightblue" points="1420.74,-95.3432 1424.24,-105.343 1427.74,-95.3432 1420.74,-95.3432"/>
</g>
<!-- Node50 -->
<g id="node21" class="node"><title>Node50</title>
<g id="a_node21"><a xlink:href="SteppingDemoClient_8cpp.html" target="_top" xlink:title="/Users/jorhabibeljaik\l/Code/codyco&#45;superbuild\l/main/ocra&#45;wbi&#45;plugins\l/ocra&#45;icub&#45;clients/stepping\l&#45;demo/src/SteppingDemoClient.cpp">
<polygon fill="white" stroke="black" points="1516.32,-5.5 1516.32,-63.5 1690.17,-63.5 1690.17,-5.5 1516.32,-5.5"/>
<text text-anchor="start" x="1524.32" y="-51.5" font-family="Helvetica,sans-Serif" font-size="10.00">/Users/jorhabibeljaik</text>
<text text-anchor="start" x="1524.32" y="-41.5" font-family="Helvetica,sans-Serif" font-size="10.00">/Code/codyco&#45;superbuild</text>
<text text-anchor="start" x="1524.32" y="-31.5" font-family="Helvetica,sans-Serif" font-size="10.00">/main/ocra&#45;wbi&#45;plugins</text>
<text text-anchor="start" x="1524.32" y="-21.5" font-family="Helvetica,sans-Serif" font-size="10.00">/ocra&#45;icub&#45;clients/stepping</text>
<text text-anchor="middle" x="1603.24" y="-11.5" font-family="Helvetica,sans-Serif" font-size="10.00">&#45;demo/src/SteppingDemoClient.cpp</text>
</a>
</g>
</g>
<!-- Node48&#45;&gt;Node50 -->
<g id="edge23" class="edge"><title>Node48&#45;&gt;Node50</title>
<path fill="none" stroke="midnightblue" d="M1490.78,-100.211C1511.89,-88.0668 1534.82,-74.871 1554.44,-63.5825"/>
<polygon fill="midnightblue" stroke="midnightblue" points="1488.79,-97.3221 1481.86,-105.343 1492.28,-103.389 1488.79,-97.3221"/>
</g>
<!-- Node51&#45;&gt;Node52 -->
<g id="edge26" class="edge"><title>Node51&#45;&gt;Node52</title>
<path fill="none" stroke="midnightblue" d="M1774.24,-95.1362C1774.24,-86.256 1774.24,-77.0447 1774.24,-68.5947"/>
<polygon fill="midnightblue" stroke="midnightblue" points="1770.74,-95.3432 1774.24,-105.343 1777.74,-95.3432 1770.74,-95.3432"/>
</g>
<!-- Node53 -->
<g id="node24" class="node"><title>Node53</title>
<g id="a_node24"><a xlink:href="TaskOpsClient_8cpp.html" target="_top" xlink:title="/Users/jorhabibeljaik\l/Code/codyco&#45;superbuild\l/main/ocra&#45;wbi&#45;plugins\l/ocra&#45;icub&#45;clients/task\l&#45;operations&#45;demo/src/TaskOpsClient.cpp">
<polygon fill="white" stroke="black" points="1857.93,-5.5 1857.93,-63.5 2054.56,-63.5 2054.56,-5.5 1857.93,-5.5"/>
<text text-anchor="start" x="1865.93" y="-51.5" font-family="Helvetica,sans-Serif" font-size="10.00">/Users/jorhabibeljaik</text>
<text text-anchor="start" x="1865.93" y="-41.5" font-family="Helvetica,sans-Serif" font-size="10.00">/Code/codyco&#45;superbuild</text>
<text text-anchor="start" x="1865.93" y="-31.5" font-family="Helvetica,sans-Serif" font-size="10.00">/main/ocra&#45;wbi&#45;plugins</text>
<text text-anchor="start" x="1865.93" y="-21.5" font-family="Helvetica,sans-Serif" font-size="10.00">/ocra&#45;icub&#45;clients/task</text>
<text text-anchor="middle" x="1956.24" y="-11.5" font-family="Helvetica,sans-Serif" font-size="10.00">&#45;operations&#45;demo/src/TaskOpsClient.cpp</text>
</a>
</g>
</g>
<!-- Node51&#45;&gt;Node53 -->
<g id="edge27" class="edge"><title>Node51&#45;&gt;Node53</title>
<path fill="none" stroke="midnightblue" d="M1841.37,-100.512C1862.92,-88.312 1886.4,-75.023 1906.49,-63.6577"/>
<polygon fill="midnightblue" stroke="midnightblue" points="1839.56,-97.5138 1832.58,-105.485 1843,-103.606 1839.56,-97.5138"/>
</g>
<!-- Node54&#45;&gt;Node55 -->
<g id="edge30" class="edge"><title>Node54&#45;&gt;Node55</title>
<path fill="none" stroke="midnightblue" d="M2136.24,-95.3273C2136.24,-84.6595 2136.24,-73.502 2136.24,-63.7516"/>
<polygon fill="midnightblue" stroke="midnightblue" points="2132.74,-95.3432 2136.24,-105.343 2139.74,-95.3432 2132.74,-95.3432"/>
</g>
<!-- Node56 -->
<g id="node27" class="node"><title>Node56</title>
<g id="a_node27"><a xlink:href="WalkingClient_8cpp.html" target="_top" xlink:title="/Users/jorhabibeljaik\l/Code/codyco&#45;superbuild\l/main/ocra&#45;wbi&#45;plugins\l/ocra&#45;icub&#45;clients/walking\l&#45;client/src/WalkingClient.cpp">
<polygon fill="white" stroke="black" points="2217.63,-5.5 2217.63,-63.5 2358.86,-63.5 2358.86,-5.5 2217.63,-5.5"/>
<text text-anchor="start" x="2225.63" y="-51.5" font-family="Helvetica,sans-Serif" font-size="10.00">/Users/jorhabibeljaik</text>
<text text-anchor="start" x="2225.63" y="-41.5" font-family="Helvetica,sans-Serif" font-size="10.00">/Code/codyco&#45;superbuild</text>
<text text-anchor="start" x="2225.63" y="-31.5" font-family="Helvetica,sans-Serif" font-size="10.00">/main/ocra&#45;wbi&#45;plugins</text>
<text text-anchor="start" x="2225.63" y="-21.5" font-family="Helvetica,sans-Serif" font-size="10.00">/ocra&#45;icub&#45;clients/walking</text>
<text text-anchor="middle" x="2288.24" y="-11.5" font-family="Helvetica,sans-Serif" font-size="10.00">&#45;client/src/WalkingClient.cpp</text>
</a>
</g>
</g>
<!-- Node54&#45;&gt;Node56 -->
<g id="edge31" class="edge"><title>Node54&#45;&gt;Node56</title>
<path fill="none" stroke="midnightblue" d="M2193.67,-99.5854C2211.24,-87.6754 2230.23,-74.8087 2246.55,-63.7516"/>
<polygon fill="midnightblue" stroke="midnightblue" points="2191.49,-96.836 2185.17,-105.343 2195.41,-102.631 2191.49,-96.836"/>
</g>
<!-- Node57&#45;&gt;Node38 -->
<g id="edge34" class="edge"><title>Node57&#45;&gt;Node38</title>
<path fill="none" stroke="midnightblue" d="M1230.25,-296.318C1225.77,-287.062 1221.04,-277.293 1216.82,-268.56"/>
<polygon fill="midnightblue" stroke="midnightblue" points="1227.11,-297.867 1234.62,-305.345 1233.41,-294.818 1227.11,-297.867"/>
</g>
<!-- Node58 -->
<g id="node29" class="node"><title>Node58</title>
<g id="a_node29"><a xlink:href="ModelInitializer_8cpp.html" target="_top" xlink:title="/Users/jorhabibeljaik\l/Code/codyco&#45;superbuild\l/main/ocra&#45;wbi&#45;plugins\l/ocra&#45;icub/src/ModelInitializer.cpp">
<polygon fill="white" stroke="black" points="1284.32,-215.5 1284.32,-263.5 1448.16,-263.5 1448.16,-215.5 1284.32,-215.5"/>
<text text-anchor="start" x="1292.32" y="-251.5" font-family="Helvetica,sans-Serif" font-size="10.00">/Users/jorhabibeljaik</text>
<text text-anchor="start" x="1292.32" y="-241.5" font-family="Helvetica,sans-Serif" font-size="10.00">/Code/codyco&#45;superbuild</text>
<text text-anchor="start" x="1292.32" y="-231.5" font-family="Helvetica,sans-Serif" font-size="10.00">/main/ocra&#45;wbi&#45;plugins</text>
<text text-anchor="middle" x="1366.24" y="-221.5" font-family="Helvetica,sans-Serif" font-size="10.00">/ocra&#45;icub/src/ModelInitializer.cpp</text>
</a>
</g>
</g>
<!-- Node57&#45;&gt;Node58 -->
<g id="edge35" class="edge"><title>Node57&#45;&gt;Node58</title>
<path fill="none" stroke="midnightblue" d="M1292.11,-298.924C1307.08,-287.126 1323.44,-274.23 1336.98,-263.562"/>
<polygon fill="midnightblue" stroke="midnightblue" points="1289.65,-296.406 1283.97,-305.345 1293.99,-301.903 1289.65,-296.406"/>
</g>
</g>
</svg>
