<?xml version="1.0" encoding="UTF-8" standalone="no"?>
<!DOCTYPE svg PUBLIC "-//W3C//DTD SVG 1.1//EN"
 "http://www.w3.org/Graphics/SVG/1.1/DTD/svg11.dtd">
<!-- Generated by graphviz version 2.38.0 (20140413.2041)
 -->
<!-- Title: /Users/jorhabibeljaik/Code/codyco&#45;superbuild/main/ocra&#45;wbi&#45;plugins/ocra&#45;icub&#45;clients/walking&#45;client/src/main.cpp Pages: 1 -->
<svg width="2605pt" height="472pt"
 viewBox="0.00 0.00 2605.30 472.00" xmlns="http://www.w3.org/2000/svg" xmlns:xlink="http://www.w3.org/1999/xlink">
<g id="graph0" class="graph" transform="scale(1 1) rotate(0) translate(4 468)">
<title>/Users/jorhabibeljaik/Code/codyco&#45;superbuild/main/ocra&#45;wbi&#45;plugins/ocra&#45;icub&#45;clients/walking&#45;client/src/main.cpp</title>
<polygon fill="white" stroke="none" points="-4,4 -4,-468 2601.3,-468 2601.3,4 -4,4"/>
<!-- Node0 -->
<g id="node1" class="node"><title>Node0</title>
<polygon fill="#bfbfbf" stroke="black" points="867.559,-405.5 867.559,-463.5 995.268,-463.5 995.268,-405.5 867.559,-405.5"/>
<text text-anchor="start" x="875.559" y="-451.5" font-family="Helvetica,sans-Serif" font-size="10.00">/Users/jorhabibeljaik</text>
<text text-anchor="start" x="875.559" y="-441.5" font-family="Helvetica,sans-Serif" font-size="10.00">/Code/codyco&#45;superbuild</text>
<text text-anchor="start" x="875.559" y="-431.5" font-family="Helvetica,sans-Serif" font-size="10.00">/main/ocra&#45;wbi&#45;plugins</text>
<text text-anchor="start" x="875.559" y="-421.5" font-family="Helvetica,sans-Serif" font-size="10.00">/ocra&#45;icub&#45;clients/walking</text>
<text text-anchor="middle" x="931.414" y="-411.5" font-family="Helvetica,sans-Serif" font-size="10.00">&#45;client/src/main.cpp</text>
</g>
<!-- Node1 -->
<g id="node2" class="node"><title>Node1</title>
<polygon fill="white" stroke="#bfbfbf" points="222.16,-0.5 222.16,-18.5 352.667,-18.5 352.667,-0.5 222.16,-0.5"/>
<text text-anchor="middle" x="287.414" y="-6.5" font-family="Helvetica,sans-Serif" font-size="10.00">yarp/os/ResourceFinder.h</text>
</g>
<!-- Node0&#45;&gt;Node1 -->
<g id="edge1" class="edge"><title>Node0&#45;&gt;Node1</title>
<path fill="none" stroke="midnightblue" d="M867.271,-428.987C689.137,-415.603 201.414,-372.81 201.414,-305.5 201.414,-305.5 201.414,-305.5 201.414,-133.5 201.414,-87.1486 242.94,-45.8225 268.281,-24.9193"/>
<polygon fill="midnightblue" stroke="midnightblue" points="270.529,-27.6032 276.171,-18.6355 266.168,-22.1276 270.529,-27.6032"/>
</g>
<!-- Node2 -->
<g id="node3" class="node"><title>Node2</title>
<polygon fill="white" stroke="#bfbfbf" points="229.121,-185.5 229.121,-203.5 325.707,-203.5 325.707,-185.5 229.121,-185.5"/>
<text text-anchor="middle" x="277.414" y="-191.5" font-family="Helvetica,sans-Serif" font-size="10.00">yarp/os/Network.h</text>
</g>
<!-- Node0&#45;&gt;Node2 -->
<g id="edge2" class="edge"><title>Node0&#45;&gt;Node2</title>
<path fill="none" stroke="midnightblue" d="M867.153,-419.787C760.809,-395.717 543.025,-340.553 372.414,-259 343.804,-245.324 313.884,-223.97 295.445,-209.858"/>
<polygon fill="midnightblue" stroke="midnightblue" points="297.413,-206.955 287.371,-203.577 293.115,-212.48 297.413,-206.955"/>
</g>
<!-- Node3 -->
<g id="node4" class="node"><title>Node3</title>
<polygon fill="white" stroke="#bfbfbf" points="127.116,-0.5 127.116,-18.5 203.711,-18.5 203.711,-0.5 127.116,-0.5"/>
<text text-anchor="middle" x="165.414" y="-6.5" font-family="Helvetica,sans-Serif" font-size="10.00">yarp/os/Log.h</text>
</g>
<!-- Node0&#45;&gt;Node3 -->
<g id="edge3" class="edge"><title>Node0&#45;&gt;Node3</title>
<path fill="none" stroke="midnightblue" d="M867.492,-430.679C724.542,-423.815 382.977,-404.172 273.414,-369 219.665,-351.746 163.414,-361.95 163.414,-305.5 163.414,-305.5 163.414,-305.5 163.414,-133.5 163.414,-96.2421 164.342,-52.6443 164.934,-28.6493"/>
<polygon fill="midnightblue" stroke="midnightblue" points="168.435,-28.6445 165.192,-18.5583 161.438,-28.4656 168.435,-28.6445"/>
</g>
<!-- Node4 -->
<g id="node5" class="node"><title>Node4</title>
<polygon fill="white" stroke="#bfbfbf" points="0,-0.5 0,-18.5 108.827,-18.5 108.827,-0.5 0,-0.5"/>
<text text-anchor="middle" x="54.4136" y="-6.5" font-family="Helvetica,sans-Serif" font-size="10.00">yarp/os/LogStream.h</text>
</g>
<!-- Node0&#45;&gt;Node4 -->
<g id="edge4" class="edge"><title>Node0&#45;&gt;Node4</title>
<path fill="none" stroke="midnightblue" d="M867.363,-431.258C711.446,-425.267 315.713,-406.717 189.414,-369 132.348,-351.958 71.4136,-365.056 71.4136,-305.5 71.4136,-305.5 71.4136,-305.5 71.4136,-133.5 71.4136,-95.8929 63.519,-52.4218 58.4896,-28.543"/>
<polygon fill="midnightblue" stroke="midnightblue" points="61.8507,-27.5291 56.2978,-18.5061 55.0119,-29.0226 61.8507,-27.5291"/>
</g>
<!-- Node5 -->
<g id="node6" class="node"><title>Node5</title>
<polygon fill="white" stroke="#bfbfbf" points="2515.53,-0.5 2515.53,-18.5 2597.3,-18.5 2597.3,-0.5 2515.53,-0.5"/>
<text text-anchor="middle" x="2556.41" y="-6.5" font-family="Helvetica,sans-Serif" font-size="10.00">yarp/os/Time.h</text>
</g>
<!-- Node0&#45;&gt;Node5 -->
<g id="edge5" class="edge"><title>Node0&#45;&gt;Node5</title>
<path fill="none" stroke="midnightblue" d="M995.527,-430.629C1193.9,-420.899 1784.41,-385.241 1784.41,-305.5 1784.41,-305.5 1784.41,-305.5 1784.41,-133.5 1784.41,25.856 2324.92,-42.5922 2505.39,-18.9768"/>
<polygon fill="midnightblue" stroke="midnightblue" points="2506.1,-22.4101 2515.49,-17.4951 2505.09,-15.4843 2506.1,-22.4101"/>
</g>
<!-- Node6 -->
<g id="node7" class="node"><title>Node6</title>
<g id="a_node7"><a xlink:href="IcubClient_8h.html" target="_top" xlink:title="ocra&#45;icub/IcubClient.h">
<polygon fill="white" stroke="black" points="875.057,-295.5 875.057,-313.5 987.771,-313.5 987.771,-295.5 875.057,-295.5"/>
<text text-anchor="middle" x="931.414" y="-301.5" font-family="Helvetica,sans-Serif" font-size="10.00">ocra&#45;icub/IcubClient.h</text>
</a>
</g>
</g>
<!-- Node0&#45;&gt;Node6 -->
<g id="edge6" class="edge"><title>Node0&#45;&gt;Node6</title>
<path fill="none" stroke="midnightblue" d="M931.414,-405.41C931.414,-380.573 931.414,-345.067 931.414,-323.75"/>
<polygon fill="midnightblue" stroke="midnightblue" points="934.914,-323.525 931.414,-313.525 927.914,-323.525 934.914,-323.525"/>
</g>
<!-- Node34 -->
<g id="node35" class="node"><title>Node34</title>
<polygon fill="white" stroke="#bfbfbf" points="1604.89,-295.5 1604.89,-313.5 1755.94,-313.5 1755.94,-295.5 1604.89,-295.5"/>
<text text-anchor="middle" x="1680.41" y="-301.5" font-family="Helvetica,sans-Serif" font-size="10.00">ocra&#45;recipes/ControllerClient.h</text>
</g>
<!-- Node0&#45;&gt;Node34 -->
<g id="edge57" class="edge"><title>Node0&#45;&gt;Node34</title>
<path fill="none" stroke="midnightblue" d="M995.462,-429.943C1098.57,-423.332 1307.32,-406.29 1480.41,-369 1541.87,-355.759 1611.36,-331.513 1650.12,-317.116"/>
<polygon fill="midnightblue" stroke="midnightblue" points="1651.61,-320.295 1659.75,-313.508 1649.16,-313.74 1651.61,-320.295"/>
</g>
<!-- Node35 -->
<g id="node36" class="node"><title>Node35</title>
<polygon fill="white" stroke="#bfbfbf" points="1812.1,-350.5 1812.1,-368.5 1958.73,-368.5 1958.73,-350.5 1812.1,-350.5"/>
<text text-anchor="middle" x="1885.41" y="-356.5" font-family="Helvetica,sans-Serif" font-size="10.00">ocra&#45;recipes/ClientManager.h</text>
</g>
<!-- Node0&#45;&gt;Node35 -->
<g id="edge58" class="edge"><title>Node0&#45;&gt;Node35</title>
<path fill="none" stroke="midnightblue" d="M995.356,-429.251C1139,-419.596 1498.22,-394.828 1798.41,-369 1799.51,-368.906 1800.61,-368.81 1801.72,-368.713"/>
<polygon fill="midnightblue" stroke="midnightblue" points="1802.2,-372.184 1811.85,-367.808 1801.58,-365.212 1802.2,-372.184"/>
</g>
<!-- Node36 -->
<g id="node37" class="node"><title>Node36</title>
<g id="a_node37"><a xlink:href="WalkingClient_8h.html" target="_top" xlink:title="walking&#45;client/WalkingClient.h">
<polygon fill="white" stroke="black" points="1323.46,-350.5 1323.46,-368.5 1471.37,-368.5 1471.37,-350.5 1323.46,-350.5"/>
<text text-anchor="middle" x="1397.41" y="-356.5" font-family="Helvetica,sans-Serif" font-size="10.00">walking&#45;client/WalkingClient.h</text>
</a>
</g>
</g>
<!-- Node0&#45;&gt;Node36 -->
<g id="edge59" class="edge"><title>Node0&#45;&gt;Node36</title>
<path fill="none" stroke="midnightblue" d="M995.72,-423.426C1085.66,-409.336 1247.89,-383.923 1336.16,-370.095"/>
<polygon fill="midnightblue" stroke="midnightblue" points="1336.96,-373.514 1346.29,-368.508 1335.87,-366.598 1336.96,-373.514"/>
</g>
<!-- Node7 -->
<g id="node8" class="node"><title>Node7</title>
<g id="a_node8"><a xlink:href="ModelInitializer_8h.html" target="_top" xlink:title="ocra&#45;icub/ModelInitializer.h">
<polygon fill="white" stroke="black" points="381.217,-240.5 381.217,-258.5 515.61,-258.5 515.61,-240.5 381.217,-240.5"/>
<text text-anchor="middle" x="448.414" y="-246.5" font-family="Helvetica,sans-Serif" font-size="10.00">ocra&#45;icub/ModelInitializer.h</text>
</a>
</g>
</g>
<!-- Node6&#45;&gt;Node7 -->
<g id="edge7" class="edge"><title>Node6&#45;&gt;Node7</title>
<path fill="none" stroke="midnightblue" d="M874.587,-297.264C788.123,-287.777 623.321,-269.693 525.935,-259.006"/>
<polygon fill="midnightblue" stroke="midnightblue" points="526.178,-255.512 515.856,-257.9 525.414,-262.47 526.178,-255.512"/>
</g>
<!-- Node8 -->
<g id="node9" class="node"><title>Node8</title>
<g id="a_node9"><a xlink:href="OcraWbiModel_8h.html" target="_top" xlink:title="Implementation of ocra::Model using wholeBodyInterface. ">
<polygon fill="white" stroke="black" points="864.227,-185.5 864.227,-203.5 998.601,-203.5 998.601,-185.5 864.227,-185.5"/>
<text text-anchor="middle" x="931.414" y="-191.5" font-family="Helvetica,sans-Serif" font-size="10.00">ocra&#45;icub/OcraWbiModel.h</text>
</a>
</g>
</g>
<!-- Node6&#45;&gt;Node8 -->
<g id="edge55" class="edge"><title>Node6&#45;&gt;Node8</title>
<path fill="none" stroke="midnightblue" d="M931.414,-295.382C931.414,-278.182 931.414,-237.698 931.414,-213.887"/>
<polygon fill="midnightblue" stroke="midnightblue" points="934.914,-213.712 931.414,-203.712 927.914,-213.712 934.914,-213.712"/>
</g>
<!-- Node12 -->
<g id="node13" class="node"><title>Node12</title>
<g id="a_node13"><a xlink:href="OcraWbiConversions_8h.html" target="_top" xlink:title="A utility class full of static conversion functions. ">
<polygon fill="white" stroke="black" points="755.054,-125.5 755.054,-143.5 917.773,-143.5 917.773,-125.5 755.054,-125.5"/>
<text text-anchor="middle" x="836.414" y="-131.5" font-family="Helvetica,sans-Serif" font-size="10.00">ocra&#45;icub/OcraWbiConversions.h</text>
</a>
</g>
</g>
<!-- Node6&#45;&gt;Node12 -->
<g id="edge54" class="edge"><title>Node6&#45;&gt;Node12</title>
<path fill="none" stroke="midnightblue" d="M923.503,-295.463C908.153,-279.431 874.189,-241.759 855.414,-204 847.436,-187.956 842.396,-168.077 839.527,-153.874"/>
<polygon fill="midnightblue" stroke="midnightblue" points="842.939,-153.078 837.678,-143.882 836.056,-154.352 842.939,-153.078"/>
</g>
<!-- Node18 -->
<g id="node19" class="node"><title>Node18</title>
<g id="a_node19"><a xlink:href="Utilities_8h.html" target="_top" xlink:title="Some useful tools for the ocra&#45;icub lib. ">
<polygon fill="white" stroke="black" points="1226.18,-60.5 1226.18,-78.5 1326.65,-78.5 1326.65,-60.5 1226.18,-60.5"/>
<text text-anchor="middle" x="1276.41" y="-66.5" font-family="Helvetica,sans-Serif" font-size="10.00">ocra&#45;icub/Utilities.h</text>
</a>
</g>
</g>
<!-- Node6&#45;&gt;Node18 -->
<g id="edge56" class="edge"><title>Node6&#45;&gt;Node18</title>
<path fill="none" stroke="midnightblue" d="M943.289,-295.48C993.77,-261.387 1190.9,-128.251 1255.67,-84.5103"/>
<polygon fill="midnightblue" stroke="midnightblue" points="1257.9,-87.2252 1264.23,-78.7279 1253.98,-81.4242 1257.9,-87.2252"/>
</g>
<!-- Node7&#45;&gt;Node2 -->
<g id="edge51" class="edge"><title>Node7&#45;&gt;Node2</title>
<path fill="none" stroke="midnightblue" d="M422.442,-240.45C393.231,-231.396 345.614,-216.638 312.964,-206.519"/>
<polygon fill="midnightblue" stroke="midnightblue" points="313.936,-203.156 303.348,-203.538 311.864,-209.842 313.936,-203.156"/>
</g>
<!-- Node7&#45;&gt;Node3 -->
<g id="edge53" class="edge"><title>Node7&#45;&gt;Node3</title>
<path fill="none" stroke="midnightblue" d="M438.672,-240.308C397.426,-205.62 236.824,-70.5556 183.061,-25.3411"/>
<polygon fill="midnightblue" stroke="midnightblue" points="185.02,-22.4158 175.114,-18.658 180.515,-27.7731 185.02,-22.4158"/>
</g>
<!-- Node7&#45;&gt;Node4 -->
<g id="edge52" class="edge"><title>Node7&#45;&gt;Node4</title>
<path fill="none" stroke="midnightblue" d="M434.162,-240.4C418.662,-231.558 393.183,-216.932 371.414,-204 259.475,-137.503 126.893,-55.5156 75.8822,-23.8497"/>
<polygon fill="midnightblue" stroke="midnightblue" points="77.6715,-20.8409 67.33,-18.5377 73.978,-26.7873 77.6715,-20.8409"/>
</g>
<!-- Node7&#45;&gt;Node8 -->
<g id="edge8" class="edge"><title>Node7&#45;&gt;Node8</title>
<path fill="none" stroke="midnightblue" d="M515.827,-241.103C604.683,-231.352 760.643,-214.239 854.159,-203.977"/>
<polygon fill="midnightblue" stroke="midnightblue" points="854.567,-207.453 864.126,-202.884 853.804,-200.495 854.567,-207.453"/>
</g>
<!-- Node10 -->
<g id="node11" class="node"><title>Node10</title>
<polygon fill="white" stroke="#bfbfbf" points="492.113,-0.5 492.113,-18.5 598.714,-18.5 598.714,-0.5 492.113,-0.5"/>
<text text-anchor="middle" x="545.414" y="-6.5" font-family="Helvetica,sans-Serif" font-size="10.00">ocra/control/Model.h</text>
</g>
<!-- Node7&#45;&gt;Node10 -->
<g id="edge48" class="edge"><title>Node7&#45;&gt;Node10</title>
<path fill="none" stroke="midnightblue" d="M451.753,-240.308C465.628,-206.264 518.908,-75.5338 538.302,-27.9498"/>
<polygon fill="midnightblue" stroke="midnightblue" points="541.556,-29.2395 542.089,-18.658 535.073,-26.5975 541.556,-29.2395"/>
</g>
<!-- Node17 -->
<g id="node18" class="node"><title>Node17</title>
<polygon fill="white" stroke="#bfbfbf" points="575.104,-55.5 575.104,-83.5 711.724,-83.5 711.724,-55.5 575.104,-55.5"/>
<text text-anchor="start" x="583.104" y="-71.5" font-family="Helvetica,sans-Serif" font-size="10.00">yarpWholeBodyInterface</text>
<text text-anchor="middle" x="643.414" y="-61.5" font-family="Helvetica,sans-Serif" font-size="10.00">/yarpWholeBodyInterface.h</text>
</g>
<!-- Node7&#45;&gt;Node17 -->
<g id="edge49" class="edge"><title>Node7&#45;&gt;Node17</title>
<path fill="none" stroke="midnightblue" d="M457.299,-240.389C486.277,-213.937 578.627,-129.639 621.347,-90.6427"/>
<polygon fill="midnightblue" stroke="midnightblue" points="623.932,-93.0218 628.958,-83.695 619.213,-87.8518 623.932,-93.0218"/>
</g>
<!-- Node26 -->
<g id="node27" class="node"><title>Node26</title>
<polygon fill="white" stroke="#bfbfbf" points="370.783,-0.5 370.783,-18.5 474.044,-18.5 474.044,-0.5 370.783,-0.5"/>
<text text-anchor="middle" x="422.414" y="-6.5" font-family="Helvetica,sans-Serif" font-size="10.00">yarp/os/RpcClient.h</text>
</g>
<!-- Node7&#45;&gt;Node26 -->
<g id="edge50" class="edge"><title>Node7&#45;&gt;Node26</title>
<path fill="none" stroke="midnightblue" d="M447.519,-240.308C443.823,-206.478 429.698,-77.1778 424.419,-28.8594"/>
<polygon fill="midnightblue" stroke="midnightblue" points="427.87,-28.2188 423.305,-18.658 420.912,-28.979 427.87,-28.2188"/>
</g>
<!-- Node8&#45;&gt;Node3 -->
<g id="edge12" class="edge"><title>Node8&#45;&gt;Node3</title>
<path fill="none" stroke="midnightblue" d="M864.105,-190.123C797.706,-185.433 693.887,-174.43 607.414,-149 512.414,-121.062 499.733,-85.1547 405.414,-55 396.331,-52.0963 281.357,-31.2737 213.9,-19.1677"/>
<polygon fill="midnightblue" stroke="midnightblue" points="214.368,-15.696 203.907,-17.3759 213.133,-22.5861 214.368,-15.696"/>
</g>
<!-- Node9 -->
<g id="node10" class="node"><title>Node9</title>
<polygon fill="white" stroke="#bfbfbf" points="872.357,-0.5 872.357,-18.5 924.47,-18.5 924.47,-0.5 872.357,-0.5"/>
<text text-anchor="middle" x="898.414" y="-6.5" font-family="Helvetica,sans-Serif" font-size="10.00">memory</text>
</g>
<!-- Node8&#45;&gt;Node9 -->
<g id="edge9" class="edge"><title>Node8&#45;&gt;Node9</title>
<path fill="none" stroke="midnightblue" d="M938.565,-185.34C945.441,-176.907 955.366,-163.032 959.414,-149 970.992,-108.859 978.344,-92.2426 959.414,-55 952.435,-41.271 939.015,-30.771 926.534,-23.4277"/>
<polygon fill="midnightblue" stroke="midnightblue" points="928.177,-20.3366 917.719,-18.6375 924.834,-26.4873 928.177,-20.3366"/>
</g>
<!-- Node8&#45;&gt;Node10 -->
<g id="edge10" class="edge"><title>Node8&#45;&gt;Node10</title>
<path fill="none" stroke="midnightblue" d="M864.037,-192.709C781.751,-187.944 643.972,-167.04 566.414,-84 552.43,-69.0276 547.675,-45.3851 546.103,-28.9736"/>
<polygon fill="midnightblue" stroke="midnightblue" points="549.594,-28.7132 545.449,-18.9625 542.608,-29.1694 549.594,-28.7132"/>
</g>
<!-- Node11 -->
<g id="node12" class="node"><title>Node11</title>
<polygon fill="white" stroke="#bfbfbf" points="796.85,-0.5 796.85,-18.5 853.978,-18.5 853.978,-0.5 796.85,-0.5"/>
<text text-anchor="middle" x="825.414" y="-6.5" font-family="Helvetica,sans-Serif" font-size="10.00">wbi/wbi.h</text>
</g>
<!-- Node8&#45;&gt;Node11 -->
<g id="edge11" class="edge"><title>Node8&#45;&gt;Node11</title>
<path fill="none" stroke="midnightblue" d="M931.963,-185.493C933.109,-162.304 933.255,-94.25 899.414,-55 887.529,-41.2159 870.273,-30.4975 855.414,-23.0371"/>
<polygon fill="midnightblue" stroke="midnightblue" points="856.611,-19.7311 846.077,-18.6056 853.61,-26.0551 856.611,-19.7311"/>
</g>
<!-- Node8&#45;&gt;Node12 -->
<g id="edge13" class="edge"><title>Node8&#45;&gt;Node12</title>
<path fill="none" stroke="midnightblue" d="M918.204,-185.435C902.765,-176.009 876.975,-160.264 858.481,-148.973"/>
<polygon fill="midnightblue" stroke="midnightblue" points="860.176,-145.907 849.817,-143.683 856.528,-151.881 860.176,-145.907"/>
</g>
<!-- Node8&#45;&gt;Node18 -->
<g id="edge47" class="edge"><title>Node8&#45;&gt;Node18</title>
<path fill="none" stroke="midnightblue" d="M954.05,-185.43C1013.63,-164.187 1174.97,-106.668 1244.17,-81.9939"/>
<polygon fill="midnightblue" stroke="midnightblue" points="1245.45,-85.2551 1253.69,-78.6001 1243.1,-78.6616 1245.45,-85.2551"/>
</g>
<!-- Node12&#45;&gt;Node3 -->
<g id="edge18" class="edge"><title>Node12&#45;&gt;Node3</title>
<path fill="none" stroke="midnightblue" d="M822.936,-125.435C807.203,-115.91 780.519,-99.4064 758.414,-84 740.984,-71.8524 740.287,-62.5115 720.414,-55 617.544,-16.1179 340.635,-31.9679 213.837,-18.8092"/>
<polygon fill="midnightblue" stroke="midnightblue" points="214.204,-15.3285 203.873,-17.6747 213.412,-22.2835 214.204,-15.3285"/>
</g>
<!-- Node12&#45;&gt;Node11 -->
<g id="edge19" class="edge"><title>Node12&#45;&gt;Node11</title>
<path fill="none" stroke="midnightblue" d="M848.32,-125.267C859.783,-116.543 876.385,-101.61 883.414,-84 888.191,-72.0293 889.114,-66.5595 883.414,-55 876.793,-41.5755 863.963,-31.0756 852.049,-23.6547"/>
<polygon fill="midnightblue" stroke="midnightblue" points="853.649,-20.5371 843.236,-18.5827 850.157,-26.6042 853.649,-20.5371"/>
</g>
<!-- Node13 -->
<g id="node14" class="node"><title>Node13</title>
<polygon fill="white" stroke="#bfbfbf" points="724.241,-0.5 724.241,-18.5 778.586,-18.5 778.586,-0.5 724.241,-0.5"/>
<text text-anchor="middle" x="751.414" y="-6.5" font-family="Helvetica,sans-Serif" font-size="10.00">iostream</text>
</g>
<!-- Node12&#45;&gt;Node13 -->
<g id="edge14" class="edge"><title>Node12&#45;&gt;Node13</title>
<path fill="none" stroke="midnightblue" d="M840.461,-125.407C847.394,-110.283 859.5,-77.2544 845.414,-55 838.411,-43.9378 809.177,-31.1285 785.147,-22.1014"/>
<polygon fill="midnightblue" stroke="midnightblue" points="786.176,-18.7511 775.582,-18.6001 783.77,-25.3245 786.176,-18.7511"/>
</g>
<!-- Node14 -->
<g id="node15" class="node"><title>Node14</title>
<polygon fill="white" stroke="#bfbfbf" points="767.687,-60.5 767.687,-78.5 803.14,-78.5 803.14,-60.5 767.687,-60.5"/>
<text text-anchor="middle" x="785.414" y="-66.5" font-family="Helvetica,sans-Serif" font-size="10.00">map</text>
</g>
<!-- Node12&#45;&gt;Node14 -->
<g id="edge15" class="edge"><title>Node12&#45;&gt;Node14</title>
<path fill="none" stroke="midnightblue" d="M829.746,-125.264C821.838,-115.494 808.469,-98.9798 798.475,-86.635"/>
<polygon fill="midnightblue" stroke="midnightblue" points="800.934,-84.1092 791.921,-78.539 795.493,-88.5137 800.934,-84.1092"/>
</g>
<!-- Node15 -->
<g id="node16" class="node"><title>Node15</title>
<polygon fill="white" stroke="#bfbfbf" points="2362.8,-0.5 2362.8,-18.5 2406.03,-18.5 2406.03,-0.5 2362.8,-0.5"/>
<text text-anchor="middle" x="2384.41" y="-6.5" font-family="Helvetica,sans-Serif" font-size="10.00">vector</text>
</g>
<!-- Node12&#45;&gt;Node15 -->
<g id="edge16" class="edge"><title>Node12&#45;&gt;Node15</title>
<path fill="none" stroke="midnightblue" d="M917.882,-133.793C1017.96,-132.256 1192.08,-123.391 1335.41,-84 1364.75,-75.9388 1367.85,-62.1594 1397.41,-55 1600.91,-5.72398 2127.04,-49.9408 2352.36,-18.6653"/>
<polygon fill="midnightblue" stroke="midnightblue" points="2353.15,-22.087 2362.53,-17.1692 2352.13,-15.1615 2353.15,-22.087"/>
</g>
<!-- Node16 -->
<g id="node17" class="node"><title>Node16</title>
<polygon fill="white" stroke="#bfbfbf" points="616.443,-0.5 616.443,-18.5 706.384,-18.5 706.384,-0.5 616.443,-0.5"/>
<text text-anchor="middle" x="661.414" y="-6.5" font-family="Helvetica,sans-Serif" font-size="10.00">yarp/sig/Vector.h</text>
</g>
<!-- Node12&#45;&gt;Node16 -->
<g id="edge17" class="edge"><title>Node12&#45;&gt;Node16</title>
<path fill="none" stroke="midnightblue" d="M836.33,-125.34C835.713,-109.502 832.062,-74.4504 812.414,-55 798.417,-41.1448 752.322,-28.786 714.706,-20.63"/>
<polygon fill="midnightblue" stroke="midnightblue" points="715.362,-17.1913 704.854,-18.5462 713.913,-24.0398 715.362,-17.1913"/>
</g>
<!-- Node12&#45;&gt;Node17 -->
<g id="edge20" class="edge"><title>Node12&#45;&gt;Node17</title>
<path fill="none" stroke="midnightblue" d="M811.577,-125.393C781.764,-115.661 731.045,-99.1052 693.086,-86.7144"/>
<polygon fill="midnightblue" stroke="midnightblue" points="693.832,-83.2762 683.24,-83.5002 691.66,-89.9306 693.832,-83.2762"/>
</g>
<!-- Node12&#45;&gt;Node18 -->
<g id="edge21" class="edge"><title>Node12&#45;&gt;Node18</title>
<path fill="none" stroke="midnightblue" d="M892.587,-125.457C975.627,-113.567 1130.51,-91.3911 1215.95,-79.1577"/>
<polygon fill="midnightblue" stroke="midnightblue" points="1216.61,-82.5986 1226.01,-77.7165 1215.62,-75.6692 1216.61,-82.5986"/>
</g>
<!-- Node18&#45;&gt;Node1 -->
<g id="edge31" class="edge"><title>Node18&#45;&gt;Node1</title>
<path fill="none" stroke="midnightblue" d="M1225.75,-66.8327C1088.61,-62.0897 698.46,-47.0757 363.165,-19.0965"/>
<polygon fill="midnightblue" stroke="midnightblue" points="363.02,-15.5721 352.762,-18.2227 362.434,-22.5475 363.02,-15.5721"/>
</g>
<!-- Node18&#45;&gt;Node3 -->
<g id="edge37" class="edge"><title>Node18&#45;&gt;Node3</title>
<path fill="none" stroke="midnightblue" d="M1226.02,-67.0155C1045.81,-61.5749 433.001,-41.9021 213.991,-18.8577"/>
<polygon fill="midnightblue" stroke="midnightblue" points="214.182,-15.358 203.863,-17.7578 213.427,-22.317 214.182,-15.358"/>
</g>
<!-- Node18&#45;&gt;Node4 -->
<g id="edge38" class="edge"><title>Node18&#45;&gt;Node4</title>
<path fill="none" stroke="midnightblue" d="M1225.92,-66.9435C1035.22,-60.9726 357.971,-38.91 118.873,-18.9253"/>
<polygon fill="midnightblue" stroke="midnightblue" points="119.107,-15.4325 108.844,-18.0654 118.509,-22.4069 119.107,-15.4325"/>
</g>
<!-- Node18&#45;&gt;Node5 -->
<g id="edge36" class="edge"><title>Node18&#45;&gt;Node5</title>
<path fill="none" stroke="midnightblue" d="M1326.72,-63.9894C1361.22,-61.0395 1408.06,-57.3169 1449.41,-55 1915.41,-28.8953 2037.05,-65.9644 2505.2,-18.9626"/>
<polygon fill="midnightblue" stroke="midnightblue" points="2505.68,-22.433 2515.27,-17.9443 2504.97,-15.4685 2505.68,-22.433"/>
</g>
<!-- Node18&#45;&gt;Node9 -->
<g id="edge22" class="edge"><title>Node18&#45;&gt;Node9</title>
<path fill="none" stroke="midnightblue" d="M1226.18,-62.7658C1161.08,-55.0005 1043.91,-39.8851 934.602,-19.074"/>
<polygon fill="midnightblue" stroke="midnightblue" points="935.209,-15.6267 924.728,-17.1742 933.887,-22.5006 935.209,-15.6267"/>
</g>
<!-- Node18&#45;&gt;Node10 -->
<g id="edge43" class="edge"><title>Node18&#45;&gt;Node10</title>
<path fill="none" stroke="midnightblue" d="M1225.96,-65.8452C1115.88,-59.8197 845.693,-43.7655 609,-19.1054"/>
<polygon fill="midnightblue" stroke="midnightblue" points="609.133,-15.6002 598.822,-18.0375 608.402,-22.562 609.133,-15.6002"/>
</g>
<!-- Node18&#45;&gt;Node11 -->
<g id="edge42" class="edge"><title>Node18&#45;&gt;Node11</title>
<path fill="none" stroke="midnightblue" d="M1225.95,-64.1053C1149.8,-57.1105 1000.82,-42.015 864.217,-18.961"/>
<polygon fill="midnightblue" stroke="midnightblue" points="864.432,-15.4473 853.986,-17.2152 863.255,-22.3475 864.432,-15.4473"/>
</g>
<!-- Node18&#45;&gt;Node13 -->
<g id="edge24" class="edge"><title>Node18&#45;&gt;Node13</title>
<path fill="none" stroke="midnightblue" d="M1226.14,-65.5912C1139.02,-60.0759 954.24,-46.289 789.195,-19.096"/>
<polygon fill="midnightblue" stroke="midnightblue" points="789.295,-15.5644 778.856,-17.3703 788.143,-22.4689 789.295,-15.5644"/>
</g>
<!-- Node18&#45;&gt;Node15 -->
<g id="edge26" class="edge"><title>Node18&#45;&gt;Node15</title>
<path fill="none" stroke="midnightblue" d="M1309.12,-60.4683C1319.1,-58.323 1330.16,-56.2546 1340.41,-55 1784.31,-0.706295 1906.29,-85.7593 2352.6,-18.6847"/>
<polygon fill="midnightblue" stroke="midnightblue" points="2353.17,-22.1381 2362.53,-17.175 2352.12,-15.2176 2353.17,-22.1381"/>
</g>
<!-- Node18&#45;&gt;Node16 -->
<g id="edge40" class="edge"><title>Node18&#45;&gt;Node16</title>
<path fill="none" stroke="midnightblue" d="M1226,-65.2087C1129.3,-58.6432 910.833,-42.5977 716.573,-19.0606"/>
<polygon fill="midnightblue" stroke="midnightblue" points="716.813,-15.564 706.463,-17.8261 715.965,-22.5124 716.813,-15.564"/>
</g>
<!-- Node19 -->
<g id="node20" class="node"><title>Node19</title>
<polygon fill="white" stroke="#bfbfbf" points="1675.8,-0.5 1675.8,-18.5 1719.03,-18.5 1719.03,-0.5 1675.8,-0.5"/>
<text text-anchor="middle" x="1697.41" y="-6.5" font-family="Helvetica,sans-Serif" font-size="10.00">cmath</text>
</g>
<!-- Node18&#45;&gt;Node19 -->
<g id="edge23" class="edge"><title>Node18&#45;&gt;Node19</title>
<path fill="none" stroke="midnightblue" d="M1311.51,-60.4511C1320.87,-58.4821 1331,-56.5097 1340.41,-55 1481.11,-32.4474 1521.43,-45.7289 1665.41,-18.8835"/>
<polygon fill="midnightblue" stroke="midnightblue" points="1666.33,-22.2717 1675.5,-16.9685 1665.02,-15.3944 1666.33,-22.2717"/>
</g>
<!-- Node20 -->
<g id="node21" class="node"><title>Node20</title>
<polygon fill="white" stroke="#bfbfbf" points="1737.19,-0.5 1737.19,-18.5 1777.64,-18.5 1777.64,-0.5 1737.19,-0.5"/>
<text text-anchor="middle" x="1757.41" y="-6.5" font-family="Helvetica,sans-Serif" font-size="10.00">string</text>
</g>
<!-- Node18&#45;&gt;Node20 -->
<g id="edge25" class="edge"><title>Node18&#45;&gt;Node20</title>
<path fill="none" stroke="midnightblue" d="M1310.82,-60.4803C1320.37,-58.4644 1330.76,-56.4614 1340.41,-55 1508.39,-29.5781 1556.48,-50.6701 1726.87,-18.94"/>
<polygon fill="midnightblue" stroke="midnightblue" points="1727.77,-22.3336 1736.94,-17.0317 1726.46,-15.4562 1727.77,-22.3336"/>
</g>
<!-- Node21 -->
<g id="node22" class="node"><title>Node21</title>
<polygon fill="white" stroke="#bfbfbf" points="1795.63,-0.5 1795.63,-18.5 1847.19,-18.5 1847.19,-0.5 1795.63,-0.5"/>
<text text-anchor="middle" x="1821.41" y="-6.5" font-family="Helvetica,sans-Serif" font-size="10.00">sstream</text>
</g>
<!-- Node18&#45;&gt;Node21 -->
<g id="edge27" class="edge"><title>Node18&#45;&gt;Node21</title>
<path fill="none" stroke="midnightblue" d="M1310.48,-60.4741C1320.11,-58.4338 1330.64,-56.4198 1340.41,-55 1533.95,-26.8939 1588.27,-49.777 1785.41,-18.8832"/>
<polygon fill="midnightblue" stroke="midnightblue" points="1786.19,-22.3027 1795.51,-17.2721 1785.09,-15.39 1786.19,-22.3027"/>
</g>
<!-- Node22 -->
<g id="node23" class="node"><title>Node22</title>
<polygon fill="white" stroke="#bfbfbf" points="1865.47,-0.5 1865.47,-18.5 1981.35,-18.5 1981.35,-0.5 1865.47,-0.5"/>
<text text-anchor="middle" x="1923.41" y="-6.5" font-family="Helvetica,sans-Serif" font-size="10.00">yarp/os/BufferedPort.h</text>
</g>
<!-- Node18&#45;&gt;Node22 -->
<g id="edge28" class="edge"><title>Node18&#45;&gt;Node22</title>
<path fill="none" stroke="midnightblue" d="M1310.14,-60.4749C1319.86,-58.4095 1330.52,-56.3823 1340.41,-55 1564.87,-23.6501 1625.9,-40.9681 1855.34,-19.042"/>
<polygon fill="midnightblue" stroke="midnightblue" points="1855.72,-22.522 1865.33,-18.0726 1855.04,-15.5547 1855.72,-22.522"/>
</g>
<!-- Node23 -->
<g id="node24" class="node"><title>Node23</title>
<polygon fill="white" stroke="#bfbfbf" points="1999.67,-0.5 1999.67,-18.5 2085.15,-18.5 2085.15,-0.5 1999.67,-0.5"/>
<text text-anchor="middle" x="2042.41" y="-6.5" font-family="Helvetica,sans-Serif" font-size="10.00">yarp/os/Bottle.h</text>
</g>
<!-- Node18&#45;&gt;Node23 -->
<g id="edge29" class="edge"><title>Node18&#45;&gt;Node23</title>
<path fill="none" stroke="midnightblue" d="M1309.8,-60.4537C1319.61,-58.362 1330.39,-56.3263 1340.41,-55 1623.88,-17.4761 1700.99,-49.6103 1989.27,-18.9835"/>
<polygon fill="midnightblue" stroke="midnightblue" points="1990.05,-22.42 1999.61,-17.8673 1989.3,-15.4604 1990.05,-22.42"/>
</g>
<!-- Node24 -->
<g id="node25" class="node"><title>Node24</title>
<polygon fill="white" stroke="#bfbfbf" points="2103.05,-0.5 2103.05,-18.5 2215.77,-18.5 2215.77,-0.5 2103.05,-0.5"/>
<text text-anchor="middle" x="2159.41" y="-6.5" font-family="Helvetica,sans-Serif" font-size="10.00">yarp/os/RateThread.h</text>
</g>
<!-- Node18&#45;&gt;Node24 -->
<g id="edge30" class="edge"><title>Node18&#45;&gt;Node24</title>
<path fill="none" stroke="midnightblue" d="M1309.46,-60.4755C1319.36,-58.3578 1330.28,-56.3026 1340.41,-55 1669.76,-12.6792 1758.43,-48.0352 2092.27,-19.1124"/>
<polygon fill="midnightblue" stroke="midnightblue" points="2093.07,-22.5556 2102.72,-18.1926 2092.46,-15.5825 2093.07,-22.5556"/>
</g>
<!-- Node25 -->
<g id="node26" class="node"><title>Node25</title>
<polygon fill="white" stroke="#bfbfbf" points="2234.16,-0.5 2234.16,-18.5 2344.66,-18.5 2344.66,-0.5 2234.16,-0.5"/>
<text text-anchor="middle" x="2289.41" y="-6.5" font-family="Helvetica,sans-Serif" font-size="10.00">yarp/os/PortReader.h</text>
</g>
<!-- Node18&#45;&gt;Node25 -->
<g id="edge32" class="edge"><title>Node18&#45;&gt;Node25</title>
<path fill="none" stroke="midnightblue" d="M1309.45,-60.4307C1319.35,-58.3117 1330.27,-56.267 1340.41,-55 1727.26,-6.66743 1830.87,-51.7427 2223.9,-18.9363"/>
<polygon fill="midnightblue" stroke="midnightblue" points="2224.46,-22.4017 2234.13,-18.0706 2223.87,-15.4267 2224.46,-22.4017"/>
</g>
<!-- Node18&#45;&gt;Node26 -->
<g id="edge33" class="edge"><title>Node18&#45;&gt;Node26</title>
<path fill="none" stroke="midnightblue" d="M1225.74,-66.676C1101.37,-61.9114 770.92,-47.5125 484.466,-19.0225"/>
<polygon fill="midnightblue" stroke="midnightblue" points="484.595,-15.5179 474.295,-18.0031 483.896,-22.483 484.595,-15.5179"/>
</g>
<!-- Node27 -->
<g id="node28" class="node"><title>Node27</title>
<polygon fill="white" stroke="#bfbfbf" points="942.113,-0.5 942.113,-18.5 1048.71,-18.5 1048.71,-0.5 942.113,-0.5"/>
<text text-anchor="middle" x="995.414" y="-6.5" font-family="Helvetica,sans-Serif" font-size="10.00">yarp/os/RpcServer.h</text>
</g>
<!-- Node18&#45;&gt;Node27 -->
<g id="edge34" class="edge"><title>Node18&#45;&gt;Node27</title>
<path fill="none" stroke="midnightblue" d="M1237.64,-60.4962C1187.18,-50.0814 1098.99,-31.8795 1044.09,-20.5473"/>
<polygon fill="midnightblue" stroke="midnightblue" points="1044.74,-17.1085 1034.24,-18.5147 1043.33,-23.964 1044.74,-17.1085"/>
</g>
<!-- Node28 -->
<g id="node29" class="node"><title>Node28</title>
<polygon fill="white" stroke="#bfbfbf" points="1067.04,-0.5 1067.04,-18.5 1209.79,-18.5 1209.79,-0.5 1067.04,-0.5"/>
<text text-anchor="middle" x="1138.41" y="-6.5" font-family="Helvetica,sans-Serif" font-size="10.00">yarp/os/ConnectionReader.h</text>
</g>
<!-- Node18&#45;&gt;Node28 -->
<g id="edge35" class="edge"><title>Node18&#45;&gt;Node28</title>
<path fill="none" stroke="midnightblue" d="M1257.23,-60.4353C1233.88,-50.6217 1194.23,-33.9593 1167.21,-22.604"/>
<polygon fill="midnightblue" stroke="midnightblue" points="1168.46,-19.3312 1157.88,-18.6831 1165.75,-25.7844 1168.46,-19.3312"/>
</g>
<!-- Node29 -->
<g id="node30" class="node"><title>Node29</title>
<polygon fill="white" stroke="#bfbfbf" points="1227.93,-0.5 1227.93,-18.5 1324.9,-18.5 1324.9,-0.5 1227.93,-0.5"/>
<text text-anchor="middle" x="1276.41" y="-6.5" font-family="Helvetica,sans-Serif" font-size="10.00">yarp/os/Property.h</text>
</g>
<!-- Node18&#45;&gt;Node29 -->
<g id="edge39" class="edge"><title>Node18&#45;&gt;Node29</title>
<path fill="none" stroke="midnightblue" d="M1276.41,-60.4353C1276.41,-52.3891 1276.41,-39.7388 1276.41,-29.1846"/>
<polygon fill="midnightblue" stroke="midnightblue" points="1279.91,-28.8717 1276.41,-18.8718 1272.91,-28.8718 1279.91,-28.8717"/>
</g>
<!-- Node30 -->
<g id="node31" class="node"><title>Node30</title>
<polygon fill="white" stroke="#bfbfbf" points="1342.74,-0.5 1342.74,-18.5 1432.09,-18.5 1432.09,-0.5 1342.74,-0.5"/>
<text text-anchor="middle" x="1387.41" y="-6.5" font-family="Helvetica,sans-Serif" font-size="10.00">yarp/sig/Matrix.h</text>
</g>
<!-- Node18&#45;&gt;Node30 -->
<g id="edge41" class="edge"><title>Node18&#45;&gt;Node30</title>
<path fill="none" stroke="midnightblue" d="M1291.85,-60.4353C1310.22,-50.8369 1341.13,-34.6868 1362.8,-23.3586"/>
<polygon fill="midnightblue" stroke="midnightblue" points="1364.51,-26.4164 1371.75,-18.6831 1361.27,-20.2123 1364.51,-26.4164"/>
</g>
<!-- Node31 -->
<g id="node32" class="node"><title>Node31</title>
<polygon fill="white" stroke="#bfbfbf" points="1450.17,-0.5 1450.17,-18.5 1570.65,-18.5 1570.65,-0.5 1450.17,-0.5"/>
<text text-anchor="middle" x="1510.41" y="-6.5" font-family="Helvetica,sans-Serif" font-size="10.00">ocra/util/StringUtilities.h</text>
</g>
<!-- Node18&#45;&gt;Node31 -->
<g id="edge44" class="edge"><title>Node18&#45;&gt;Node31</title>
<path fill="none" stroke="midnightblue" d="M1308.95,-60.4353C1350.4,-50.1624 1422.12,-32.3844 1467.87,-21.0456"/>
<polygon fill="midnightblue" stroke="midnightblue" points="1468.91,-24.3925 1477.78,-18.5894 1467.23,-17.5981 1468.91,-24.3925"/>
</g>
<!-- Node32 -->
<g id="node33" class="node"><title>Node32</title>
<polygon fill="white" stroke="#bfbfbf" points="2423.78,-0.5 2423.78,-18.5 2497.04,-18.5 2497.04,-0.5 2423.78,-0.5"/>
<text text-anchor="middle" x="2460.41" y="-6.5" font-family="Helvetica,sans-Serif" font-size="10.00">Eigen/Dense</text>
</g>
<!-- Node18&#45;&gt;Node32 -->
<g id="edge45" class="edge"><title>Node18&#45;&gt;Node32</title>
<path fill="none" stroke="midnightblue" d="M1326.9,-62.8925C1353.5,-60.1252 1386.69,-56.967 1416.41,-55 1856.38,-25.8866 1972.13,-67.7292 2413.49,-19.0421"/>
<polygon fill="midnightblue" stroke="midnightblue" points="2414.09,-22.4967 2423.64,-17.9123 2413.32,-15.5396 2414.09,-22.4967"/>
</g>
<!-- Node33 -->
<g id="node34" class="node"><title>Node33</title>
<polygon fill="white" stroke="#bfbfbf" points="1589.01,-0.5 1589.01,-18.5 1657.82,-18.5 1657.82,-0.5 1589.01,-0.5"/>
<text text-anchor="middle" x="1623.41" y="-6.5" font-family="Helvetica,sans-Serif" font-size="10.00">Eigen/Lgsm</text>
</g>
<!-- Node18&#45;&gt;Node33 -->
<g id="edge46" class="edge"><title>Node18&#45;&gt;Node33</title>
<path fill="none" stroke="midnightblue" d="M1312.56,-60.4913C1321.63,-58.5868 1331.36,-56.6349 1340.41,-55 1443.03,-36.4657 1471.87,-37.1336 1578.94,-19.0101"/>
<polygon fill="midnightblue" stroke="midnightblue" points="1579.58,-22.4508 1588.85,-17.3167 1578.4,-15.5507 1579.58,-22.4508"/>
</g>
<!-- Node36&#45;&gt;Node5 -->
<g id="edge75" class="edge"><title>Node36&#45;&gt;Node5</title>
<path fill="none" stroke="midnightblue" d="M1426.56,-350.482C1450.12,-343.189 1483.51,-330.967 1509.41,-314 1646.12,-224.458 1620.88,-120.922 1770.41,-55 1842.92,-23.037 2388.18,-27.5367 2505.05,-18.8129"/>
<polygon fill="midnightblue" stroke="midnightblue" points="2505.62,-22.2759 2515.27,-17.8955 2504.99,-15.3039 2505.62,-22.2759"/>
</g>
<!-- Node36&#45;&gt;Node6 -->
<g id="edge60" class="edge"><title>Node36&#45;&gt;Node6</title>
<path fill="none" stroke="midnightblue" d="M1326.89,-350.479C1237.68,-340.333 1085.19,-322.99 997.928,-313.065"/>
<polygon fill="midnightblue" stroke="midnightblue" points="998.209,-309.574 987.878,-311.922 997.418,-316.53 998.209,-309.574"/>
</g>
<!-- Node36&#45;&gt;Node34 -->
<g id="edge62" class="edge"><title>Node36&#45;&gt;Node34</title>
<path fill="none" stroke="midnightblue" d="M1440.4,-350.45C1490.51,-341.065 1573.36,-325.549 1627.42,-315.425"/>
<polygon fill="midnightblue" stroke="midnightblue" points="1628.31,-318.819 1637.49,-313.538 1627.02,-311.939 1628.31,-318.819"/>
</g>
<!-- Node37 -->
<g id="node38" class="node"><title>Node37</title>
<polygon fill="white" stroke="#bfbfbf" points="1019.46,-295.5 1019.46,-313.5 1177.37,-313.5 1177.37,-295.5 1019.46,-295.5"/>
<text text-anchor="middle" x="1098.41" y="-301.5" font-family="Helvetica,sans-Serif" font-size="10.00">ocra&#45;recipes/TrajectoryThread.h</text>
</g>
<!-- Node36&#45;&gt;Node37 -->
<g id="edge61" class="edge"><title>Node36&#45;&gt;Node37</title>
<path fill="none" stroke="midnightblue" d="M1352,-350.45C1298.83,-341.026 1210.79,-325.42 1153.7,-315.299"/>
<polygon fill="midnightblue" stroke="midnightblue" points="1154.22,-311.837 1143.76,-313.538 1153,-318.73 1154.22,-311.837"/>
</g>
<!-- Node38 -->
<g id="node39" class="node"><title>Node38</title>
<polygon fill="white" stroke="#bfbfbf" points="1195.45,-295.5 1195.45,-313.5 1315.38,-313.5 1315.38,-295.5 1195.45,-295.5"/>
<text text-anchor="middle" x="1255.41" y="-301.5" font-family="Helvetica,sans-Serif" font-size="10.00">ocra/util/EigenUtilities.h</text>
</g>
<!-- Node36&#45;&gt;Node38 -->
<g id="edge63" class="edge"><title>Node36&#45;&gt;Node38</title>
<path fill="none" stroke="midnightblue" d="M1375.85,-350.45C1352.08,-341.578 1313.63,-327.229 1286.58,-317.134"/>
<polygon fill="midnightblue" stroke="midnightblue" points="1287.78,-313.843 1277.18,-313.625 1285.33,-320.401 1287.78,-313.843"/>
</g>
<!-- Node39 -->
<g id="node40" class="node"><title>Node39</title>
<g id="a_node40"><a xlink:href="ZmpPreviewController_8h.html" target="_top" xlink:title="walking&#45;client/ZmpPreview\lController.h">
<polygon fill="white" stroke="black" points="1494.23,-120.5 1494.23,-148.5 1628.6,-148.5 1628.6,-120.5 1494.23,-120.5"/>
<text text-anchor="start" x="1502.23" y="-136.5" font-family="Helvetica,sans-Serif" font-size="10.00">walking&#45;client/ZmpPreview</text>
<text text-anchor="middle" x="1561.41" y="-126.5" font-family="Helvetica,sans-Serif" font-size="10.00">Controller.h</text>
</a>
</g>
</g>
<!-- Node36&#45;&gt;Node39 -->
<g id="edge64" class="edge"><title>Node36&#45;&gt;Node39</title>
<path fill="none" stroke="midnightblue" d="M1426.17,-350.445C1445.95,-343.603 1471.59,-331.98 1488.41,-314 1530.67,-268.826 1549.96,-195.88 1557.42,-158.78"/>
<polygon fill="midnightblue" stroke="midnightblue" points="1560.87,-159.38 1559.29,-148.903 1553.99,-158.075 1560.87,-159.38"/>
</g>
<!-- Node41 -->
<g id="node42" class="node"><title>Node41</title>
<g id="a_node42"><a xlink:href="ZmpController_8h.html" target="_top" xlink:title="walking&#45;client/ZmpController.h">
<polygon fill="white" stroke="black" points="1326.44,-125.5 1326.44,-143.5 1476.39,-143.5 1476.39,-125.5 1326.44,-125.5"/>
<text text-anchor="middle" x="1401.41" y="-131.5" font-family="Helvetica,sans-Serif" font-size="10.00">walking&#45;client/ZmpController.h</text>
</a>
</g>
</g>
<!-- Node36&#45;&gt;Node41 -->
<g id="edge69" class="edge"><title>Node36&#45;&gt;Node41</title>
<path fill="none" stroke="midnightblue" d="M1422.89,-350.384C1439.66,-343.562 1460.31,-331.989 1470.41,-314 1502.22,-257.358 1445.19,-183.11 1416.47,-151.193"/>
<polygon fill="midnightblue" stroke="midnightblue" points="1418.89,-148.658 1409.53,-143.694 1413.75,-153.411 1418.89,-148.658"/>
</g>
<!-- Node42 -->
<g id="node43" class="node"><title>Node42</title>
<polygon fill="white" stroke="#bfbfbf" points="1333.83,-295.5 1333.83,-313.5 1460.99,-313.5 1460.99,-295.5 1333.83,-295.5"/>
<text text-anchor="middle" x="1397.41" y="-301.5" font-family="Helvetica,sans-Serif" font-size="10.00">ocra/util/FileOperations.h</text>
</g>
<!-- Node36&#45;&gt;Node42 -->
<g id="edge74" class="edge"><title>Node36&#45;&gt;Node42</title>
<path fill="none" stroke="midnightblue" d="M1397.41,-350.219C1397.41,-343.177 1397.41,-332.808 1397.41,-323.828"/>
<polygon fill="midnightblue" stroke="midnightblue" points="1400.91,-323.55 1397.41,-313.55 1393.91,-323.55 1400.91,-323.55"/>
</g>
<!-- Node39&#45;&gt;Node15 -->
<g id="edge68" class="edge"><title>Node39&#45;&gt;Node15</title>
<path fill="none" stroke="midnightblue" d="M1568.14,-120.307C1578.34,-101.892 1599.63,-69.1505 1628.41,-55 1698.46,-20.5613 2237.36,-30.9949 2352.47,-18.4663"/>
<polygon fill="midnightblue" stroke="midnightblue" points="2353.07,-21.9173 2362.53,-17.1359 2352.16,-14.9777 2353.07,-21.9173"/>
</g>
<!-- Node39&#45;&gt;Node18 -->
<g id="edge65" class="edge"><title>Node39&#45;&gt;Node18</title>
<path fill="none" stroke="midnightblue" d="M1502.36,-120.446C1449.09,-108.67 1371.78,-91.5816 1322.82,-80.7583"/>
<polygon fill="midnightblue" stroke="midnightblue" points="1323.34,-77.289 1312.82,-78.548 1321.83,-84.124 1323.34,-77.289"/>
</g>
<!-- Node39&#45;&gt;Node32 -->
<g id="edge67" class="edge"><title>Node39&#45;&gt;Node32</title>
<path fill="none" stroke="midnightblue" d="M1578,-120.25C1604.99,-98.8263 1656.4,-58.5986 1666.41,-55 1820.24,0.282963 2233.77,-37.0278 2413.44,-18.9901"/>
<polygon fill="midnightblue" stroke="midnightblue" points="2414.08,-22.4416 2423.64,-17.876 2413.32,-15.483 2414.08,-22.4416"/>
</g>
<!-- Node40 -->
<g id="node41" class="node"><title>Node40</title>
<polygon fill="white" stroke="#bfbfbf" points="1458.28,-60.5 1458.28,-78.5 1576.55,-78.5 1576.55,-60.5 1458.28,-60.5"/>
<text text-anchor="middle" x="1517.41" y="-66.5" font-family="Helvetica,sans-Serif" font-size="10.00">ocra/util/ErrorsHelper.h</text>
</g>
<!-- Node39&#45;&gt;Node40 -->
<g id="edge66" class="edge"><title>Node39&#45;&gt;Node40</title>
<path fill="none" stroke="midnightblue" d="M1552.3,-120.446C1545.52,-110.746 1536.23,-97.4412 1528.94,-87.0028"/>
<polygon fill="midnightblue" stroke="midnightblue" points="1531.76,-84.9245 1523.16,-78.7301 1526.02,-88.9326 1531.76,-84.9245"/>
</g>
<!-- Node41&#45;&gt;Node15 -->
<g id="edge73" class="edge"><title>Node41&#45;&gt;Node15</title>
<path fill="none" stroke="midnightblue" d="M1400.07,-125.258C1397.93,-108.954 1395.9,-72.6402 1416.41,-55 1454.41,-22.3292 2238.66,-26.5479 2352.28,-18.2185"/>
<polygon fill="midnightblue" stroke="midnightblue" points="2352.94,-21.6689 2362.53,-17.167 2352.23,-14.7054 2352.94,-21.6689"/>
</g>
<!-- Node41&#45;&gt;Node18 -->
<g id="edge70" class="edge"><title>Node41&#45;&gt;Node18</title>
<path fill="none" stroke="midnightblue" d="M1385.33,-125.393C1364.14,-114.714 1326.64,-95.8165 1301.66,-83.2237"/>
<polygon fill="midnightblue" stroke="midnightblue" points="1302.94,-79.9513 1292.44,-78.5761 1299.79,-86.2023 1302.94,-79.9513"/>
</g>
<!-- Node41&#45;&gt;Node32 -->
<g id="edge72" class="edge"><title>Node41&#45;&gt;Node32</title>
<path fill="none" stroke="midnightblue" d="M1403.56,-125.447C1408.47,-108.814 1422.26,-70.8985 1449.41,-55 1539.75,-2.11478 2270.19,-29.5189 2413.65,-18.8241"/>
<polygon fill="midnightblue" stroke="midnightblue" points="2414.01,-22.3062 2423.64,-17.9086 2413.37,-15.3354 2414.01,-22.3062"/>
</g>
<!-- Node41&#45;&gt;Node40 -->
<g id="edge71" class="edge"><title>Node41&#45;&gt;Node40</title>
<path fill="none" stroke="midnightblue" d="M1416.58,-125.264C1436.23,-114.593 1470.69,-95.8761 1493.78,-83.3341"/>
<polygon fill="midnightblue" stroke="midnightblue" points="1495.49,-86.3873 1502.61,-78.539 1492.15,-80.2359 1495.49,-86.3873"/>
</g>
</g>
</svg>
