<?xml version="1.0" encoding="UTF-8" standalone="no"?>
<!DOCTYPE svg PUBLIC "-//W3C//DTD SVG 1.1//EN"
 "http://www.w3.org/Graphics/SVG/1.1/DTD/svg11.dtd">
<!-- Generated by graphviz version 2.38.0 (20140413.2041)
 -->
<!-- Title: /Users/jorhabibeljaik/Code/codyco&#45;superbuild/main/ocra&#45;wbi&#45;plugins/ocra&#45;icub&#45;clients/sitting&#45;demo/src/SittingDemoClient.cpp Pages: 1 -->
<svg width="2466pt" height="472pt"
 viewBox="0.00 0.00 2465.92 472.00" xmlns="http://www.w3.org/2000/svg" xmlns:xlink="http://www.w3.org/1999/xlink">
<g id="graph0" class="graph" transform="scale(1 1) rotate(0) translate(4 468)">
<title>/Users/jorhabibeljaik/Code/codyco&#45;superbuild/main/ocra&#45;wbi&#45;plugins/ocra&#45;icub&#45;clients/sitting&#45;demo/src/SittingDemoClient.cpp</title>
<polygon fill="white" stroke="none" points="-4,4 -4,-468 2461.92,-468 2461.92,4 -4,4"/>
<!-- Node0 -->
<g id="node1" class="node"><title>Node0</title>
<polygon fill="#bfbfbf" stroke="black" points="1242.22,-405.5 1242.22,-463.5 1404.38,-463.5 1404.38,-405.5 1242.22,-405.5"/>
<text text-anchor="start" x="1250.22" y="-451.5" font-family="Helvetica,sans-Serif" font-size="10.00">/Users/jorhabibeljaik</text>
<text text-anchor="start" x="1250.22" y="-441.5" font-family="Helvetica,sans-Serif" font-size="10.00">/Code/codyco&#45;superbuild</text>
<text text-anchor="start" x="1250.22" y="-431.5" font-family="Helvetica,sans-Serif" font-size="10.00">/main/ocra&#45;wbi&#45;plugins</text>
<text text-anchor="start" x="1250.22" y="-421.5" font-family="Helvetica,sans-Serif" font-size="10.00">/ocra&#45;icub&#45;clients/sitting</text>
<text text-anchor="middle" x="1323.3" y="-411.5" font-family="Helvetica,sans-Serif" font-size="10.00">&#45;demo/src/SittingDemoClient.cpp</text>
</g>
<!-- Node1 -->
<g id="node2" class="node"><title>Node1</title>
<g id="a_node2"><a xlink:href="SittingDemoClient_8h.html" target="_top" xlink:title="sitting&#45;demo/SittingDemo\lClient.h">
<polygon fill="white" stroke="black" points="1259.44,-340.5 1259.44,-368.5 1387.16,-368.5 1387.16,-340.5 1259.44,-340.5"/>
<text text-anchor="start" x="1267.44" y="-356.5" font-family="Helvetica,sans-Serif" font-size="10.00">sitting&#45;demo/SittingDemo</text>
<text text-anchor="middle" x="1323.3" y="-346.5" font-family="Helvetica,sans-Serif" font-size="10.00">Client.h</text>
</a>
</g>
</g>
<!-- Node0&#45;&gt;Node1 -->
<g id="edge1" class="edge"><title>Node0&#45;&gt;Node1</title>
<path fill="none" stroke="midnightblue" d="M1323.3,-405.34C1323.3,-396.602 1323.3,-387.075 1323.3,-378.713"/>
<polygon fill="midnightblue" stroke="midnightblue" points="1326.8,-378.555 1323.3,-368.555 1319.8,-378.555 1326.8,-378.555"/>
</g>
<!-- Node2 -->
<g id="node3" class="node"><title>Node2</title>
<g id="a_node3"><a xlink:href="IcubClient_8h.html" target="_top" xlink:title="ocra&#45;icub/IcubClient.h">
<polygon fill="white" stroke="black" points="1113.94,-285.5 1113.94,-303.5 1226.66,-303.5 1226.66,-285.5 1113.94,-285.5"/>
<text text-anchor="middle" x="1170.3" y="-291.5" font-family="Helvetica,sans-Serif" font-size="10.00">ocra&#45;icub/IcubClient.h</text>
</a>
</g>
</g>
<!-- Node1&#45;&gt;Node2 -->
<g id="edge2" class="edge"><title>Node1&#45;&gt;Node2</title>
<path fill="none" stroke="midnightblue" d="M1288.96,-340.484C1262.67,-330.518 1226.72,-316.889 1201.3,-307.252"/>
<polygon fill="midnightblue" stroke="midnightblue" points="1202.37,-303.915 1191.78,-303.643 1199.89,-310.461 1202.37,-303.915"/>
</g>
<!-- Node34 -->
<g id="node35" class="node"><title>Node34</title>
<polygon fill="white" stroke="#bfbfbf" points="1244.35,-285.5 1244.35,-303.5 1402.25,-303.5 1402.25,-285.5 1244.35,-285.5"/>
<text text-anchor="middle" x="1323.3" y="-291.5" font-family="Helvetica,sans-Serif" font-size="10.00">ocra&#45;recipes/TrajectoryThread.h</text>
</g>
<!-- Node1&#45;&gt;Node34 -->
<g id="edge52" class="edge"><title>Node1&#45;&gt;Node34</title>
<path fill="none" stroke="midnightblue" d="M1323.3,-340.339C1323.3,-332.531 1323.3,-322.512 1323.3,-313.927"/>
<polygon fill="midnightblue" stroke="midnightblue" points="1326.8,-313.771 1323.3,-303.771 1319.8,-313.772 1326.8,-313.771"/>
</g>
<!-- Node35 -->
<g id="node36" class="node"><title>Node35</title>
<polygon fill="white" stroke="#bfbfbf" points="1419.77,-285.5 1419.77,-303.5 1570.83,-303.5 1570.83,-285.5 1419.77,-285.5"/>
<text text-anchor="middle" x="1495.3" y="-291.5" font-family="Helvetica,sans-Serif" font-size="10.00">ocra&#45;recipes/ControllerClient.h</text>
</g>
<!-- Node1&#45;&gt;Node35 -->
<g id="edge53" class="edge"><title>Node1&#45;&gt;Node35</title>
<path fill="none" stroke="midnightblue" d="M1361.9,-340.484C1391.94,-330.356 1433.19,-316.445 1461.83,-306.785"/>
<polygon fill="midnightblue" stroke="midnightblue" points="1463.04,-310.071 1471.4,-303.559 1460.81,-303.438 1463.04,-310.071"/>
</g>
<!-- Node3 -->
<g id="node4" class="node"><title>Node3</title>
<g id="a_node4"><a xlink:href="ModelInitializer_8h.html" target="_top" xlink:title="ocra&#45;icub/ModelInitializer.h">
<polygon fill="white" stroke="black" points="325.104,-230.5 325.104,-248.5 459.497,-248.5 459.497,-230.5 325.104,-230.5"/>
<text text-anchor="middle" x="392.3" y="-236.5" font-family="Helvetica,sans-Serif" font-size="10.00">ocra&#45;icub/ModelInitializer.h</text>
</a>
</g>
</g>
<!-- Node2&#45;&gt;Node3 -->
<g id="edge3" class="edge"><title>Node2&#45;&gt;Node3</title>
<path fill="none" stroke="midnightblue" d="M1113.72,-289.646C976.516,-280.299 625.898,-256.413 469.562,-245.763"/>
<polygon fill="midnightblue" stroke="midnightblue" points="469.764,-242.269 459.55,-245.081 469.288,-249.253 469.764,-242.269"/>
</g>
<!-- Node4 -->
<g id="node5" class="node"><title>Node4</title>
<g id="a_node5"><a xlink:href="OcraWbiModel_8h.html" target="_top" xlink:title="Implementation of ocra::Model using wholeBodyInterface. ">
<polygon fill="white" stroke="black" points="664.113,-175.5 664.113,-193.5 798.487,-193.5 798.487,-175.5 664.113,-175.5"/>
<text text-anchor="middle" x="731.3" y="-181.5" font-family="Helvetica,sans-Serif" font-size="10.00">ocra&#45;icub/OcraWbiModel.h</text>
</a>
</g>
</g>
<!-- Node2&#45;&gt;Node4 -->
<g id="edge50" class="edge"><title>Node2&#45;&gt;Node4</title>
<path fill="none" stroke="midnightblue" d="M1137.66,-285.471C1059.39,-266.215 861.033,-217.416 773.693,-195.929"/>
<polygon fill="midnightblue" stroke="midnightblue" points="774.401,-192.499 763.855,-193.509 772.729,-199.296 774.401,-192.499"/>
</g>
<!-- Node9 -->
<g id="node10" class="node"><title>Node9</title>
<g id="a_node10"><a xlink:href="OcraWbiConversions_8h.html" target="_top" xlink:title="A utility class full of static conversion functions. ">
<polygon fill="white" stroke="black" points="1326.94,-120.5 1326.94,-138.5 1489.66,-138.5 1489.66,-120.5 1326.94,-120.5"/>
<text text-anchor="middle" x="1408.3" y="-126.5" font-family="Helvetica,sans-Serif" font-size="10.00">ocra&#45;icub/OcraWbiConversions.h</text>
</a>
</g>
</g>
<!-- Node2&#45;&gt;Node9 -->
<g id="edge49" class="edge"><title>Node2&#45;&gt;Node9</title>
<path fill="none" stroke="midnightblue" d="M1182.1,-285.417C1220.17,-259.346 1340.01,-177.269 1388.07,-144.355"/>
<polygon fill="midnightblue" stroke="midnightblue" points="1390.15,-147.17 1396.43,-138.632 1386.2,-141.395 1390.15,-147.17"/>
</g>
<!-- Node15 -->
<g id="node16" class="node"><title>Node15</title>
<g id="a_node16"><a xlink:href="Utilities_8h.html" target="_top" xlink:title="Some useful tools for the ocra&#45;icub lib. ">
<polygon fill="white" stroke="black" points="1171.06,-60.5 1171.06,-78.5 1271.54,-78.5 1271.54,-60.5 1171.06,-60.5"/>
<text text-anchor="middle" x="1221.3" y="-66.5" font-family="Helvetica,sans-Serif" font-size="10.00">ocra&#45;icub/Utilities.h</text>
</a>
</g>
</g>
<!-- Node2&#45;&gt;Node15 -->
<g id="edge51" class="edge"><title>Node2&#45;&gt;Node15</title>
<path fill="none" stroke="midnightblue" d="M1172.18,-285.299C1179.56,-252.991 1206.77,-134.054 1217.19,-88.4559"/>
<polygon fill="midnightblue" stroke="midnightblue" points="1220.64,-89.0692 1219.46,-78.5406 1213.82,-87.5085 1220.64,-89.0692"/>
</g>
<!-- Node3&#45;&gt;Node4 -->
<g id="edge4" class="edge"><title>Node3&#45;&gt;Node4</title>
<path fill="none" stroke="midnightblue" d="M443.787,-230.45C504.444,-220.967 605.129,-205.226 669.823,-195.111"/>
<polygon fill="midnightblue" stroke="midnightblue" points="670.546,-198.541 679.885,-193.538 669.465,-191.625 670.546,-198.541"/>
</g>
<!-- Node6 -->
<g id="node7" class="node"><title>Node6</title>
<polygon fill="white" stroke="#bfbfbf" points="0,-0.5 0,-18.5 106.601,-18.5 106.601,-0.5 0,-0.5"/>
<text text-anchor="middle" x="53.3003" y="-6.5" font-family="Helvetica,sans-Serif" font-size="10.00">ocra/control/Model.h</text>
</g>
<!-- Node3&#45;&gt;Node6 -->
<g id="edge43" class="edge"><title>Node3&#45;&gt;Node6</title>
<path fill="none" stroke="midnightblue" d="M326.734,-230.479C293.369,-224.228 253.23,-213.227 221.3,-194 147.907,-149.803 87.3898,-63.934 63.856,-27.5014"/>
<polygon fill="midnightblue" stroke="midnightblue" points="66.5302,-25.1829 58.2189,-18.6122 60.6186,-28.9317 66.5302,-25.1829"/>
</g>
<!-- Node8 -->
<g id="node9" class="node"><title>Node8</title>
<polygon fill="white" stroke="#bfbfbf" points="373.002,-0.5 373.002,-18.5 449.598,-18.5 449.598,-0.5 373.002,-0.5"/>
<text text-anchor="middle" x="411.3" y="-6.5" font-family="Helvetica,sans-Serif" font-size="10.00">yarp/os/Log.h</text>
</g>
<!-- Node3&#45;&gt;Node8 -->
<g id="edge48" class="edge"><title>Node3&#45;&gt;Node8</title>
<path fill="none" stroke="midnightblue" d="M392.977,-230.385C395.695,-197.769 405.864,-75.7392 409.764,-28.9343"/>
<polygon fill="midnightblue" stroke="midnightblue" points="413.27,-29.0118 410.612,-18.7557 406.294,-28.4304 413.27,-29.0118"/>
</g>
<!-- Node14 -->
<g id="node15" class="node"><title>Node14</title>
<polygon fill="white" stroke="#bfbfbf" points="771.99,-55.5 771.99,-83.5 908.61,-83.5 908.61,-55.5 771.99,-55.5"/>
<text text-anchor="start" x="779.99" y="-71.5" font-family="Helvetica,sans-Serif" font-size="10.00">yarpWholeBodyInterface</text>
<text text-anchor="middle" x="840.3" y="-61.5" font-family="Helvetica,sans-Serif" font-size="10.00">/yarpWholeBodyInterface.h</text>
</g>
<!-- Node3&#45;&gt;Node14 -->
<g id="edge44" class="edge"><title>Node3&#45;&gt;Node14</title>
<path fill="none" stroke="midnightblue" d="M413.908,-230.397C483.289,-204.379 701.387,-122.593 795.898,-87.151"/>
<polygon fill="midnightblue" stroke="midnightblue" points="797.321,-90.3553 805.455,-83.5669 794.863,-83.801 797.321,-90.3553"/>
</g>
<!-- Node24 -->
<g id="node25" class="node"><title>Node24</title>
<polygon fill="white" stroke="#bfbfbf" points="124.67,-0.5 124.67,-18.5 227.931,-18.5 227.931,-0.5 124.67,-0.5"/>
<text text-anchor="middle" x="176.3" y="-6.5" font-family="Helvetica,sans-Serif" font-size="10.00">yarp/os/RpcClient.h</text>
</g>
<!-- Node3&#45;&gt;Node24 -->
<g id="edge45" class="edge"><title>Node3&#45;&gt;Node24</title>
<path fill="none" stroke="midnightblue" d="M324.853,-232.547C295.648,-226.782 263.021,-215.595 240.3,-194 192.635,-148.696 180.452,-66.0092 177.351,-29.1237"/>
<polygon fill="midnightblue" stroke="midnightblue" points="180.823,-28.5927 176.631,-18.8626 173.84,-29.0834 180.823,-28.5927"/>
</g>
<!-- Node28 -->
<g id="node29" class="node"><title>Node28</title>
<polygon fill="white" stroke="#bfbfbf" points="245.887,-0.5 245.887,-18.5 354.714,-18.5 354.714,-0.5 245.887,-0.5"/>
<text text-anchor="middle" x="300.3" y="-6.5" font-family="Helvetica,sans-Serif" font-size="10.00">yarp/os/LogStream.h</text>
</g>
<!-- Node3&#45;&gt;Node28 -->
<g id="edge47" class="edge"><title>Node3&#45;&gt;Node28</title>
<path fill="none" stroke="midnightblue" d="M389.026,-230.385C375.781,-197.562 325.997,-74.1843 307.382,-28.051"/>
<polygon fill="midnightblue" stroke="midnightblue" points="310.619,-26.7195 303.632,-18.7557 304.128,-29.3389 310.619,-26.7195"/>
</g>
<!-- Node33 -->
<g id="node34" class="node"><title>Node33</title>
<polygon fill="white" stroke="#bfbfbf" points="249.007,-175.5 249.007,-193.5 345.593,-193.5 345.593,-175.5 249.007,-175.5"/>
<text text-anchor="middle" x="297.3" y="-181.5" font-family="Helvetica,sans-Serif" font-size="10.00">yarp/os/Network.h</text>
</g>
<!-- Node3&#45;&gt;Node33 -->
<g id="edge46" class="edge"><title>Node3&#45;&gt;Node33</title>
<path fill="none" stroke="midnightblue" d="M377.872,-230.45C362.806,-222.045 338.928,-208.724 321.071,-198.762"/>
<polygon fill="midnightblue" stroke="midnightblue" points="322.303,-195.441 311.865,-193.625 318.892,-201.554 322.303,-195.441"/>
</g>
<!-- Node5 -->
<g id="node6" class="node"><title>Node5</title>
<polygon fill="white" stroke="#bfbfbf" points="467.244,-0.5 467.244,-18.5 519.357,-18.5 519.357,-0.5 467.244,-0.5"/>
<text text-anchor="middle" x="493.3" y="-6.5" font-family="Helvetica,sans-Serif" font-size="10.00">memory</text>
</g>
<!-- Node4&#45;&gt;Node5 -->
<g id="edge5" class="edge"><title>Node4&#45;&gt;Node5</title>
<path fill="none" stroke="midnightblue" d="M720.14,-175.388C682.584,-148.088 560.467,-59.3225 512.702,-24.6031"/>
<polygon fill="midnightblue" stroke="midnightblue" points="514.583,-21.6432 504.436,-18.5946 510.467,-27.3054 514.583,-21.6432"/>
</g>
<!-- Node4&#45;&gt;Node6 -->
<g id="edge6" class="edge"><title>Node4&#45;&gt;Node6</title>
<path fill="none" stroke="midnightblue" d="M699.508,-175.388C588.738,-147.123 219.748,-52.9712 94.9578,-21.1294"/>
<polygon fill="midnightblue" stroke="midnightblue" points="95.5784,-17.6757 85.0235,-18.5946 93.8476,-24.4584 95.5784,-17.6757"/>
</g>
<!-- Node7 -->
<g id="node8" class="node"><title>Node7</title>
<polygon fill="white" stroke="#bfbfbf" points="2158.74,-0.5 2158.74,-18.5 2215.86,-18.5 2215.86,-0.5 2158.74,-0.5"/>
<text text-anchor="middle" x="2187.3" y="-6.5" font-family="Helvetica,sans-Serif" font-size="10.00">wbi/wbi.h</text>
</g>
<!-- Node4&#45;&gt;Node7 -->
<g id="edge7" class="edge"><title>Node4&#45;&gt;Node7</title>
<path fill="none" stroke="midnightblue" d="M777.305,-175.495C827.84,-166.673 911.385,-152.008 983.3,-139 1115.4,-115.105 1149.63,-114.782 1280.3,-84 1325.76,-73.2911 1335.22,-62.5892 1381.3,-55 1715.17,-0.0146984 1808.81,-63.2082 2148.23,-18.8624"/>
<polygon fill="midnightblue" stroke="midnightblue" points="2148.9,-22.3052 2158.35,-17.5188 2147.97,-15.3662 2148.9,-22.3052"/>
</g>
<!-- Node4&#45;&gt;Node8 -->
<g id="edge8" class="edge"><title>Node4&#45;&gt;Node8</title>
<path fill="none" stroke="midnightblue" d="M715.188,-175.447C697.665,-166.646 668.87,-152.055 644.3,-139 566.904,-97.8771 476.254,-47.1306 434.503,-23.6105"/>
<polygon fill="midnightblue" stroke="midnightblue" points="436.096,-20.4905 425.666,-18.6272 432.658,-26.5879 436.096,-20.4905"/>
</g>
<!-- Node4&#45;&gt;Node9 -->
<g id="edge9" class="edge"><title>Node4&#45;&gt;Node9</title>
<path fill="none" stroke="midnightblue" d="M798.536,-178.643C906.921,-170.749 1126.97,-154.458 1313.3,-139 1314.39,-138.909 1315.49,-138.818 1316.6,-138.725"/>
<polygon fill="midnightblue" stroke="midnightblue" points="1317.02,-142.202 1326.69,-137.871 1316.43,-135.227 1317.02,-142.202"/>
</g>
<!-- Node4&#45;&gt;Node15 -->
<g id="edge42" class="edge"><title>Node4&#45;&gt;Node15</title>
<path fill="none" stroke="midnightblue" d="M766.147,-175.464C853.149,-155.4 1079.84,-103.123 1176.54,-80.8229"/>
<polygon fill="midnightblue" stroke="midnightblue" points="1177.35,-84.2284 1186.3,-78.5707 1175.77,-77.4075 1177.35,-84.2284"/>
</g>
<!-- Node9&#45;&gt;Node7 -->
<g id="edge15" class="edge"><title>Node9&#45;&gt;Node7</title>
<path fill="none" stroke="midnightblue" d="M1473.99,-120.438C1601.9,-104.383 1893.43,-66.0351 2148.51,-19.0194"/>
<polygon fill="midnightblue" stroke="midnightblue" points="2149.52,-22.3925 2158.71,-17.1305 2148.24,-15.5094 2149.52,-22.3925"/>
</g>
<!-- Node9&#45;&gt;Node8 -->
<g id="edge14" class="edge"><title>Node9&#45;&gt;Node8</title>
<path fill="none" stroke="midnightblue" d="M1362.07,-120.47C1275.2,-105.626 1081.51,-73.7071 917.3,-55 717.265,-32.2119 662.976,-44.8189 459.827,-19.0706"/>
<polygon fill="midnightblue" stroke="midnightblue" points="460.09,-15.5756 449.725,-17.7744 459.199,-22.5187 460.09,-15.5756"/>
</g>
<!-- Node10 -->
<g id="node11" class="node"><title>Node10</title>
<polygon fill="white" stroke="#bfbfbf" points="2342.13,-0.5 2342.13,-18.5 2396.47,-18.5 2396.47,-0.5 2342.13,-0.5"/>
<text text-anchor="middle" x="2369.3" y="-6.5" font-family="Helvetica,sans-Serif" font-size="10.00">iostream</text>
</g>
<!-- Node9&#45;&gt;Node10 -->
<g id="edge10" class="edge"><title>Node9&#45;&gt;Node10</title>
<path fill="none" stroke="midnightblue" d="M1490.09,-124.043C1596.74,-117.72 1788.95,-104.576 1952.3,-84 2119.49,-62.9413 2163.3,-53.5581 2331.86,-19.2049"/>
<polygon fill="midnightblue" stroke="midnightblue" points="2332.72,-22.6017 2341.82,-17.1757 2331.32,-15.7427 2332.72,-22.6017"/>
</g>
<!-- Node11 -->
<g id="node12" class="node"><title>Node11</title>
<polygon fill="white" stroke="#bfbfbf" points="1390.57,-60.5 1390.57,-78.5 1426.03,-78.5 1426.03,-60.5 1390.57,-60.5"/>
<text text-anchor="middle" x="1408.3" y="-66.5" font-family="Helvetica,sans-Serif" font-size="10.00">map</text>
</g>
<!-- Node9&#45;&gt;Node11 -->
<g id="edge11" class="edge"><title>Node9&#45;&gt;Node11</title>
<path fill="none" stroke="midnightblue" d="M1408.3,-120.435C1408.3,-112.389 1408.3,-99.7388 1408.3,-89.1846"/>
<polygon fill="midnightblue" stroke="midnightblue" points="1411.8,-88.8717 1408.3,-78.8718 1404.8,-88.8718 1411.8,-88.8717"/>
</g>
<!-- Node12 -->
<g id="node13" class="node"><title>Node12</title>
<polygon fill="white" stroke="#bfbfbf" points="2414.68,-0.5 2414.68,-18.5 2457.92,-18.5 2457.92,-0.5 2414.68,-0.5"/>
<text text-anchor="middle" x="2436.3" y="-6.5" font-family="Helvetica,sans-Serif" font-size="10.00">vector</text>
</g>
<!-- Node9&#45;&gt;Node12 -->
<g id="edge12" class="edge"><title>Node9&#45;&gt;Node12</title>
<path fill="none" stroke="midnightblue" d="M1489.91,-126.127C1614.28,-121.798 1858.53,-110.493 2064.3,-84 2214.03,-64.722 2253.34,-54.3231 2404.55,-19.0257"/>
<polygon fill="midnightblue" stroke="midnightblue" points="2405.73,-22.3443 2414.68,-16.6644 2404.14,-15.5273 2405.73,-22.3443"/>
</g>
<!-- Node13 -->
<g id="node14" class="node"><title>Node13</title>
<polygon fill="white" stroke="#bfbfbf" points="2234.33,-0.5 2234.33,-18.5 2324.27,-18.5 2324.27,-0.5 2234.33,-0.5"/>
<text text-anchor="middle" x="2279.3" y="-6.5" font-family="Helvetica,sans-Serif" font-size="10.00">yarp/sig/Vector.h</text>
</g>
<!-- Node9&#45;&gt;Node13 -->
<g id="edge13" class="edge"><title>Node9&#45;&gt;Node13</title>
<path fill="none" stroke="midnightblue" d="M1489.96,-121.986C1578.82,-114.499 1724.97,-101.025 1850.3,-84 1987.45,-65.3701 2147.96,-35.7725 2228.19,-20.439"/>
<polygon fill="midnightblue" stroke="midnightblue" points="2228.87,-23.8718 2238.03,-18.5518 2227.55,-16.997 2228.87,-23.8718"/>
</g>
<!-- Node9&#45;&gt;Node14 -->
<g id="edge16" class="edge"><title>Node9&#45;&gt;Node14</title>
<path fill="none" stroke="midnightblue" d="M1329.92,-120.496C1221.72,-109.448 1027.7,-89.6358 919.218,-78.5585"/>
<polygon fill="midnightblue" stroke="midnightblue" points="919.296,-75.0483 908.992,-77.5143 918.585,-82.0121 919.296,-75.0483"/>
</g>
<!-- Node9&#45;&gt;Node15 -->
<g id="edge17" class="edge"><title>Node9&#45;&gt;Node15</title>
<path fill="none" stroke="midnightblue" d="M1382.3,-120.435C1349.73,-110.335 1293.78,-92.9798 1257.16,-81.6227"/>
<polygon fill="midnightblue" stroke="midnightblue" points="1257.97,-78.209 1247.38,-78.5894 1255.9,-84.8948 1257.97,-78.209"/>
</g>
<!-- Node15&#45;&gt;Node5 -->
<g id="edge18" class="edge"><title>Node15&#45;&gt;Node5</title>
<path fill="none" stroke="midnightblue" d="M1170.82,-62.9322C1145.98,-60.3066 1115.59,-57.2617 1088.3,-55 843.026,-34.6751 776.6,-55.9943 529.574,-18.918"/>
<polygon fill="midnightblue" stroke="midnightblue" points="529.988,-15.4408 519.576,-17.4005 528.937,-22.3616 529.988,-15.4408"/>
</g>
<!-- Node15&#45;&gt;Node6 -->
<g id="edge39" class="edge"><title>Node15&#45;&gt;Node6</title>
<path fill="none" stroke="midnightblue" d="M1170.87,-66.2585C967.531,-57.218 214.388,-23.716 116.906,-18.7173"/>
<polygon fill="midnightblue" stroke="midnightblue" points="116.882,-15.2104 106.699,-18.1367 116.484,-22.1991 116.882,-15.2104"/>
</g>
<!-- Node15&#45;&gt;Node7 -->
<g id="edge38" class="edge"><title>Node15&#45;&gt;Node7</title>
<path fill="none" stroke="midnightblue" d="M1254.34,-60.4367C1264.24,-58.3179 1275.16,-56.2718 1285.3,-55 1663.39,-7.58118 1766.5,-68.0963 2148.41,-18.8329"/>
<polygon fill="midnightblue" stroke="midnightblue" points="2148.89,-22.3007 2158.35,-17.5345 2147.98,-15.3596 2148.89,-22.3007"/>
</g>
<!-- Node15&#45;&gt;Node8 -->
<g id="edge33" class="edge"><title>Node15&#45;&gt;Node8</title>
<path fill="none" stroke="midnightblue" d="M1170.82,-62.8476C1145.99,-60.2019 1115.6,-57.1645 1088.3,-55 811.997,-33.0934 738.521,-51.5729 459.722,-19.0209"/>
<polygon fill="midnightblue" stroke="midnightblue" points="460.058,-15.5364 449.717,-17.8412 459.238,-22.4882 460.058,-15.5364"/>
</g>
<!-- Node15&#45;&gt;Node10 -->
<g id="edge20" class="edge"><title>Node15&#45;&gt;Node10</title>
<path fill="none" stroke="midnightblue" d="M1271.7,-63.6449C1303.18,-60.7619 1344.57,-57.2427 1381.3,-55 1800.62,-29.3952 1911.99,-75.1908 2331.91,-18.9003"/>
<polygon fill="midnightblue" stroke="midnightblue" points="2332.44,-22.3598 2341.89,-17.5516 2331.51,-15.4229 2332.44,-22.3598"/>
</g>
<!-- Node15&#45;&gt;Node12 -->
<g id="edge22" class="edge"><title>Node15&#45;&gt;Node12</title>
<path fill="none" stroke="midnightblue" d="M1271.7,-63.6105C1303.18,-60.7146 1344.57,-57.194 1381.3,-55 1832.55,-28.0469 1953.35,-86.8022 2404.38,-18.7042"/>
<polygon fill="midnightblue" stroke="midnightblue" points="2405.06,-22.1414 2414.42,-17.1761 2404.01,-15.2211 2405.06,-22.1414"/>
</g>
<!-- Node15&#45;&gt;Node13 -->
<g id="edge36" class="edge"><title>Node15&#45;&gt;Node13</title>
<path fill="none" stroke="midnightblue" d="M1271.7,-63.7073C1303.19,-60.8478 1344.58,-57.3314 1381.3,-55 1752.7,-31.4206 1850,-55.8137 2224.25,-18.9743"/>
<polygon fill="midnightblue" stroke="midnightblue" points="2224.66,-22.4503 2234.27,-17.9798 2223.97,-15.4846 2224.66,-22.4503"/>
</g>
<!-- Node16 -->
<g id="node17" class="node"><title>Node16</title>
<polygon fill="white" stroke="#bfbfbf" points="2038.68,-0.5 2038.68,-18.5 2081.92,-18.5 2081.92,-0.5 2038.68,-0.5"/>
<text text-anchor="middle" x="2060.3" y="-6.5" font-family="Helvetica,sans-Serif" font-size="10.00">cmath</text>
</g>
<!-- Node15&#45;&gt;Node16 -->
<g id="edge19" class="edge"><title>Node15&#45;&gt;Node16</title>
<path fill="none" stroke="midnightblue" d="M1254.35,-60.4796C1264.24,-58.362 1275.16,-56.3058 1285.3,-55 1610.27,-13.1352 1700.52,-69.8968 2028.16,-18.7636"/>
<polygon fill="midnightblue" stroke="midnightblue" points="2029.09,-22.16 2038.42,-17.1394 2027.99,-15.2461 2029.09,-22.16"/>
</g>
<!-- Node17 -->
<g id="node18" class="node"><title>Node17</title>
<polygon fill="white" stroke="#bfbfbf" points="2100.07,-0.5 2100.07,-18.5 2140.53,-18.5 2140.53,-0.5 2100.07,-0.5"/>
<text text-anchor="middle" x="2120.3" y="-6.5" font-family="Helvetica,sans-Serif" font-size="10.00">string</text>
</g>
<!-- Node15&#45;&gt;Node17 -->
<g id="edge21" class="edge"><title>Node15&#45;&gt;Node17</title>
<path fill="none" stroke="midnightblue" d="M1254.34,-60.4559C1264.24,-58.3376 1275.16,-56.287 1285.3,-55 1637.72,-10.2639 1735.77,-76.6017 2089.83,-18.8127"/>
<polygon fill="midnightblue" stroke="midnightblue" points="2090.55,-22.2413 2099.85,-17.1564 2089.41,-15.3351 2090.55,-22.2413"/>
</g>
<!-- Node18 -->
<g id="node19" class="node"><title>Node18</title>
<polygon fill="white" stroke="#bfbfbf" points="537.52,-0.5 537.52,-18.5 589.081,-18.5 589.081,-0.5 537.52,-0.5"/>
<text text-anchor="middle" x="563.3" y="-6.5" font-family="Helvetica,sans-Serif" font-size="10.00">sstream</text>
</g>
<!-- Node15&#45;&gt;Node18 -->
<g id="edge23" class="edge"><title>Node15&#45;&gt;Node18</title>
<path fill="none" stroke="midnightblue" d="M1170.81,-63.041C1145.97,-60.4411 1115.58,-57.3864 1088.3,-55 874.059,-36.2604 815.775,-52.3782 599.293,-18.8736"/>
<polygon fill="midnightblue" stroke="midnightblue" points="599.619,-15.3821 589.198,-17.2933 598.536,-22.2978 599.619,-15.3821"/>
</g>
<!-- Node19 -->
<g id="node20" class="node"><title>Node19</title>
<polygon fill="white" stroke="#bfbfbf" points="607.361,-0.5 607.361,-18.5 723.239,-18.5 723.239,-0.5 607.361,-0.5"/>
<text text-anchor="middle" x="665.3" y="-6.5" font-family="Helvetica,sans-Serif" font-size="10.00">yarp/os/BufferedPort.h</text>
</g>
<!-- Node15&#45;&gt;Node19 -->
<g id="edge24" class="edge"><title>Node15&#45;&gt;Node19</title>
<path fill="none" stroke="midnightblue" d="M1170.78,-63.3671C1145.93,-60.8444 1115.55,-57.7605 1088.3,-55 933.326,-39.299 891.988,-37.0953 733.505,-19.1124"/>
<polygon fill="midnightblue" stroke="midnightblue" points="733.726,-15.615 723.394,-17.9618 732.934,-22.5701 733.726,-15.615"/>
</g>
<!-- Node20 -->
<g id="node21" class="node"><title>Node20</title>
<polygon fill="white" stroke="#bfbfbf" points="741.559,-0.5 741.559,-18.5 827.042,-18.5 827.042,-0.5 741.559,-0.5"/>
<text text-anchor="middle" x="784.3" y="-6.5" font-family="Helvetica,sans-Serif" font-size="10.00">yarp/os/Bottle.h</text>
</g>
<!-- Node15&#45;&gt;Node20 -->
<g id="edge25" class="edge"><title>Node15&#45;&gt;Node20</title>
<path fill="none" stroke="midnightblue" d="M1170.77,-62.5618C1099.06,-54.0105 963.393,-37.3793 837.349,-19.108"/>
<polygon fill="midnightblue" stroke="midnightblue" points="837.531,-15.5977 827.131,-17.6201 836.522,-22.5247 837.531,-15.5977"/>
</g>
<!-- Node21 -->
<g id="node22" class="node"><title>Node21</title>
<polygon fill="white" stroke="#bfbfbf" points="844.941,-0.5 844.941,-18.5 957.66,-18.5 957.66,-0.5 844.941,-0.5"/>
<text text-anchor="middle" x="901.3" y="-6.5" font-family="Helvetica,sans-Serif" font-size="10.00">yarp/os/RateThread.h</text>
</g>
<!-- Node15&#45;&gt;Node21 -->
<g id="edge26" class="edge"><title>Node15&#45;&gt;Node21</title>
<path fill="none" stroke="midnightblue" d="M1177.14,-60.4962C1119.32,-50.0166 1018,-31.6526 955.571,-20.3365"/>
<polygon fill="midnightblue" stroke="midnightblue" points="955.983,-16.8543 945.519,-18.5147 954.735,-23.7421 955.983,-16.8543"/>
</g>
<!-- Node22 -->
<g id="node23" class="node"><title>Node22</title>
<polygon fill="white" stroke="#bfbfbf" points="976.047,-0.5 976.047,-18.5 1106.55,-18.5 1106.55,-0.5 976.047,-0.5"/>
<text text-anchor="middle" x="1041.3" y="-6.5" font-family="Helvetica,sans-Serif" font-size="10.00">yarp/os/ResourceFinder.h</text>
</g>
<!-- Node15&#45;&gt;Node22 -->
<g id="edge27" class="edge"><title>Node15&#45;&gt;Node22</title>
<path fill="none" stroke="midnightblue" d="M1196.27,-60.4353C1165.06,-50.3782 1111.53,-33.128 1076.27,-21.7686"/>
<polygon fill="midnightblue" stroke="midnightblue" points="1077,-18.3251 1066.41,-18.5894 1074.85,-24.9878 1077,-18.3251"/>
</g>
<!-- Node23 -->
<g id="node24" class="node"><title>Node23</title>
<polygon fill="white" stroke="#bfbfbf" points="1125.05,-0.5 1125.05,-18.5 1235.55,-18.5 1235.55,-0.5 1125.05,-0.5"/>
<text text-anchor="middle" x="1180.3" y="-6.5" font-family="Helvetica,sans-Serif" font-size="10.00">yarp/os/PortReader.h</text>
</g>
<!-- Node15&#45;&gt;Node23 -->
<g id="edge28" class="edge"><title>Node15&#45;&gt;Node23</title>
<path fill="none" stroke="midnightblue" d="M1215.6,-60.4353C1209.55,-51.8755 1199.81,-38.1052 1192.1,-27.1909"/>
<polygon fill="midnightblue" stroke="midnightblue" points="1194.85,-25.0172 1186.22,-18.8718 1189.13,-29.0579 1194.85,-25.0172"/>
</g>
<!-- Node15&#45;&gt;Node24 -->
<g id="edge29" class="edge"><title>Node15&#45;&gt;Node24</title>
<path fill="none" stroke="midnightblue" d="M1170.78,-66.2207C988.197,-57.9487 367.009,-29.4894 238.166,-18.9233"/>
<polygon fill="midnightblue" stroke="midnightblue" points="238.446,-15.4345 228.178,-18.0459 237.833,-22.4076 238.446,-15.4345"/>
</g>
<!-- Node25 -->
<g id="node26" class="node"><title>Node25</title>
<polygon fill="white" stroke="#bfbfbf" points="1254,-0.5 1254,-18.5 1360.6,-18.5 1360.6,-0.5 1254,-0.5"/>
<text text-anchor="middle" x="1307.3" y="-6.5" font-family="Helvetica,sans-Serif" font-size="10.00">yarp/os/RpcServer.h</text>
</g>
<!-- Node15&#45;&gt;Node25 -->
<g id="edge30" class="edge"><title>Node15&#45;&gt;Node25</title>
<path fill="none" stroke="midnightblue" d="M1233.26,-60.4353C1247.04,-51.1382 1269.94,-35.6942 1286.63,-24.4393"/>
<polygon fill="midnightblue" stroke="midnightblue" points="1288.83,-27.1764 1295.17,-18.6831 1284.92,-21.3728 1288.83,-27.1764"/>
</g>
<!-- Node26 -->
<g id="node27" class="node"><title>Node26</title>
<polygon fill="white" stroke="#bfbfbf" points="1378.92,-0.5 1378.92,-18.5 1521.68,-18.5 1521.68,-0.5 1378.92,-0.5"/>
<text text-anchor="middle" x="1450.3" y="-6.5" font-family="Helvetica,sans-Serif" font-size="10.00">yarp/os/ConnectionReader.h</text>
</g>
<!-- Node15&#45;&gt;Node26 -->
<g id="edge31" class="edge"><title>Node15&#45;&gt;Node26</title>
<path fill="none" stroke="midnightblue" d="M1253.14,-60.4353C1293.7,-50.1624 1363.89,-32.3844 1408.66,-21.0456"/>
<polygon fill="midnightblue" stroke="midnightblue" points="1409.53,-24.4376 1418.36,-18.5894 1407.81,-17.6519 1409.53,-24.4376"/>
</g>
<!-- Node27 -->
<g id="node28" class="node"><title>Node27</title>
<polygon fill="white" stroke="#bfbfbf" points="1539.42,-0.5 1539.42,-18.5 1621.18,-18.5 1621.18,-0.5 1539.42,-0.5"/>
<text text-anchor="middle" x="1580.3" y="-6.5" font-family="Helvetica,sans-Serif" font-size="10.00">yarp/os/Time.h</text>
</g>
<!-- Node15&#45;&gt;Node27 -->
<g id="edge32" class="edge"><title>Node15&#45;&gt;Node27</title>
<path fill="none" stroke="midnightblue" d="M1257.44,-60.4684C1266.51,-58.5644 1276.25,-56.6186 1285.3,-55 1390.47,-36.2003 1419.89,-36.2062 1529.26,-19.1271"/>
<polygon fill="midnightblue" stroke="midnightblue" points="1530.05,-22.5458 1539.38,-17.5331 1528.96,-15.6309 1530.05,-22.5458"/>
</g>
<!-- Node15&#45;&gt;Node28 -->
<g id="edge34" class="edge"><title>Node15&#45;&gt;Node28</title>
<path fill="none" stroke="midnightblue" d="M1170.82,-66.0792C1014.91,-58.5259 541.48,-34.9962 364.929,-18.959"/>
<polygon fill="midnightblue" stroke="midnightblue" points="365.018,-15.4523 354.736,-18.0097 364.368,-22.4221 365.018,-15.4523"/>
</g>
<!-- Node29 -->
<g id="node30" class="node"><title>Node29</title>
<polygon fill="white" stroke="#bfbfbf" points="1638.82,-0.5 1638.82,-18.5 1735.78,-18.5 1735.78,-0.5 1638.82,-0.5"/>
<text text-anchor="middle" x="1687.3" y="-6.5" font-family="Helvetica,sans-Serif" font-size="10.00">yarp/os/Property.h</text>
</g>
<!-- Node15&#45;&gt;Node29 -->
<g id="edge35" class="edge"><title>Node15&#45;&gt;Node29</title>
<path fill="none" stroke="midnightblue" d="M1256.06,-60.4831C1265.51,-58.4909 1275.77,-56.499 1285.3,-55 1434.32,-31.5725 1475.6,-38.0739 1628.57,-19.1624"/>
<polygon fill="midnightblue" stroke="midnightblue" points="1629.32,-22.5956 1638.81,-17.8794 1628.45,-15.6499 1629.32,-22.5956"/>
</g>
<!-- Node30 -->
<g id="node31" class="node"><title>Node30</title>
<polygon fill="white" stroke="#bfbfbf" points="1753.62,-0.5 1753.62,-18.5 1842.98,-18.5 1842.98,-0.5 1753.62,-0.5"/>
<text text-anchor="middle" x="1798.3" y="-6.5" font-family="Helvetica,sans-Serif" font-size="10.00">yarp/sig/Matrix.h</text>
</g>
<!-- Node15&#45;&gt;Node30 -->
<g id="edge37" class="edge"><title>Node15&#45;&gt;Node30</title>
<path fill="none" stroke="midnightblue" d="M1255.36,-60.4596C1265,-58.4191 1275.52,-56.4087 1285.3,-55 1484.57,-26.2919 1539.32,-42.3879 1743.4,-19.0003"/>
<polygon fill="midnightblue" stroke="midnightblue" points="1744.02,-22.4519 1753.55,-17.8191 1743.21,-15.4988 1744.02,-22.4519"/>
</g>
<!-- Node31 -->
<g id="node32" class="node"><title>Node31</title>
<polygon fill="white" stroke="#bfbfbf" points="1860.67,-0.5 1860.67,-18.5 1933.93,-18.5 1933.93,-0.5 1860.67,-0.5"/>
<text text-anchor="middle" x="1897.3" y="-6.5" font-family="Helvetica,sans-Serif" font-size="10.00">Eigen/Dense</text>
</g>
<!-- Node15&#45;&gt;Node31 -->
<g id="edge40" class="edge"><title>Node15&#45;&gt;Node31</title>
<path fill="none" stroke="midnightblue" d="M1255.02,-60.4349C1264.74,-58.3689 1275.4,-56.3514 1285.3,-55 1532.19,-21.3029 1599.99,-49.7229 1850.39,-19.0891"/>
<polygon fill="midnightblue" stroke="midnightblue" points="1851.03,-22.5362 1860.52,-17.8294 1850.17,-15.5897 1851.03,-22.5362"/>
</g>
<!-- Node32 -->
<g id="node33" class="node"><title>Node32</title>
<polygon fill="white" stroke="#bfbfbf" points="1951.9,-0.5 1951.9,-18.5 2020.7,-18.5 2020.7,-0.5 1951.9,-0.5"/>
<text text-anchor="middle" x="1986.3" y="-6.5" font-family="Helvetica,sans-Serif" font-size="10.00">Eigen/Lgsm</text>
</g>
<!-- Node15&#45;&gt;Node32 -->
<g id="edge41" class="edge"><title>Node15&#45;&gt;Node32</title>
<path fill="none" stroke="midnightblue" d="M1254.68,-60.4494C1264.49,-58.3577 1275.28,-56.3229 1285.3,-55 1572.4,-17.0933 1650.94,-54.6258 1941.65,-19.0283"/>
<polygon fill="midnightblue" stroke="midnightblue" points="1942.14,-22.4936 1951.63,-17.7868 1941.28,-15.5471 1942.14,-22.4936"/>
</g>
</g>
</svg>
