<?xml version="1.0" encoding="UTF-8" standalone="no"?>
<!DOCTYPE svg PUBLIC "-//W3C//DTD SVG 1.1//EN"
 "http://www.w3.org/Graphics/SVG/1.1/DTD/svg11.dtd">
<!-- Generated by graphviz version 2.38.0 (20140413.2041)
 -->
<!-- Title: /Users/jorhabibeljaik/Code/codyco&#45;superbuild/main/ocra&#45;wbi&#45;plugins/ocra&#45;icub&#45;clients/stepping&#45;demo/src/stepping&#45;demo.cpp Pages: 1 -->
<svg width="2605pt" height="472pt"
 viewBox="0.00 0.00 2604.67 472.00" xmlns="http://www.w3.org/2000/svg" xmlns:xlink="http://www.w3.org/1999/xlink">
<g id="graph0" class="graph" transform="scale(1 1) rotate(0) translate(4 468)">
<title>/Users/jorhabibeljaik/Code/codyco&#45;superbuild/main/ocra&#45;wbi&#45;plugins/ocra&#45;icub&#45;clients/stepping&#45;demo/src/stepping&#45;demo.cpp</title>
<polygon fill="white" stroke="none" points="-4,4 -4,-468 2600.67,-468 2600.67,4 -4,4"/>
<!-- Node0 -->
<g id="node1" class="node"><title>Node0</title>
<polygon fill="#bfbfbf" stroke="black" points="1104.11,-405.5 1104.11,-463.5 1252.4,-463.5 1252.4,-405.5 1104.11,-405.5"/>
<text text-anchor="start" x="1112.11" y="-451.5" font-family="Helvetica,sans-Serif" font-size="10.00">/Users/jorhabibeljaik</text>
<text text-anchor="start" x="1112.11" y="-441.5" font-family="Helvetica,sans-Serif" font-size="10.00">/Code/codyco&#45;superbuild</text>
<text text-anchor="start" x="1112.11" y="-431.5" font-family="Helvetica,sans-Serif" font-size="10.00">/main/ocra&#45;wbi&#45;plugins</text>
<text text-anchor="start" x="1112.11" y="-421.5" font-family="Helvetica,sans-Serif" font-size="10.00">/ocra&#45;icub&#45;clients/stepping</text>
<text text-anchor="middle" x="1178.25" y="-411.5" font-family="Helvetica,sans-Serif" font-size="10.00">&#45;demo/src/stepping&#45;demo.cpp</text>
</g>
<!-- Node1 -->
<g id="node2" class="node"><title>Node1</title>
<polygon fill="white" stroke="#bfbfbf" points="0,-0.5 0,-18.5 130.507,-18.5 130.507,-0.5 0,-0.5"/>
<text text-anchor="middle" x="65.2534" y="-6.5" font-family="Helvetica,sans-Serif" font-size="10.00">yarp/os/ResourceFinder.h</text>
</g>
<!-- Node0&#45;&gt;Node1 -->
<g id="edge1" class="edge"><title>Node0&#45;&gt;Node1</title>
<path fill="none" stroke="midnightblue" d="M1103.87,-431.414C918.045,-425.679 437.31,-407.477 282.253,-369 203.548,-349.469 115.253,-376.593 115.253,-295.5 115.253,-295.5 115.253,-295.5 115.253,-128.5 115.253,-89.7375 92.0965,-49.0838 77.3013,-27.0654"/>
<polygon fill="midnightblue" stroke="midnightblue" points="79.9755,-24.7814 71.3844,-18.5811 74.2339,-28.7856 79.9755,-24.7814"/>
</g>
<!-- Node2 -->
<g id="node3" class="node"><title>Node2</title>
<polygon fill="white" stroke="#bfbfbf" points="506.96,-175.5 506.96,-193.5 603.546,-193.5 603.546,-175.5 506.96,-175.5"/>
<text text-anchor="middle" x="555.253" y="-181.5" font-family="Helvetica,sans-Serif" font-size="10.00">yarp/os/Network.h</text>
</g>
<!-- Node0&#45;&gt;Node2 -->
<g id="edge2" class="edge"><title>Node0&#45;&gt;Node2</title>
<path fill="none" stroke="midnightblue" d="M1107.7,-405.413C971.837,-351.331 679.03,-234.772 584.984,-197.335"/>
<polygon fill="midnightblue" stroke="midnightblue" points="586.098,-194.011 575.513,-193.565 583.509,-200.515 586.098,-194.011"/>
</g>
<!-- Node3 -->
<g id="node4" class="node"><title>Node3</title>
<polygon fill="white" stroke="#bfbfbf" points="148.956,-0.5 148.956,-18.5 225.551,-18.5 225.551,-0.5 148.956,-0.5"/>
<text text-anchor="middle" x="187.253" y="-6.5" font-family="Helvetica,sans-Serif" font-size="10.00">yarp/os/Log.h</text>
</g>
<!-- Node0&#45;&gt;Node3 -->
<g id="edge3" class="edge"><title>Node0&#45;&gt;Node3</title>
<path fill="none" stroke="midnightblue" d="M1103.88,-430.599C878.792,-420.839 220.253,-384.664 220.253,-295.5 220.253,-295.5 220.253,-295.5 220.253,-128.5 220.253,-91.5887 205.092,-50.5027 195.323,-27.8594"/>
<polygon fill="midnightblue" stroke="midnightblue" points="198.449,-26.2761 191.169,-18.5788 192.06,-29.1361 198.449,-26.2761"/>
</g>
<!-- Node4 -->
<g id="node5" class="node"><title>Node4</title>
<polygon fill="white" stroke="#bfbfbf" points="2487.84,-0.5 2487.84,-18.5 2596.67,-18.5 2596.67,-0.5 2487.84,-0.5"/>
<text text-anchor="middle" x="2542.25" y="-6.5" font-family="Helvetica,sans-Serif" font-size="10.00">yarp/os/LogStream.h</text>
</g>
<!-- Node0&#45;&gt;Node4 -->
<g id="edge4" class="edge"><title>Node0&#45;&gt;Node4</title>
<path fill="none" stroke="midnightblue" d="M1252.61,-429.212C1396.12,-418.891 1697.25,-386.404 1697.25,-295.5 1697.25,-295.5 1697.25,-295.5 1697.25,-128.5 1697.25,-126.039 2280.45,-46.2259 2477.84,-19.2829"/>
<polygon fill="midnightblue" stroke="midnightblue" points="2478.35,-22.7463 2487.79,-17.9261 2477.4,-15.8106 2478.35,-22.7463"/>
</g>
<!-- Node5 -->
<g id="node6" class="node"><title>Node5</title>
<polygon fill="white" stroke="#bfbfbf" points="2388.37,-0.5 2388.37,-18.5 2470.14,-18.5 2470.14,-0.5 2388.37,-0.5"/>
<text text-anchor="middle" x="2429.25" y="-6.5" font-family="Helvetica,sans-Serif" font-size="10.00">yarp/os/Time.h</text>
</g>
<!-- Node0&#45;&gt;Node5 -->
<g id="edge5" class="edge"><title>Node0&#45;&gt;Node5</title>
<path fill="none" stroke="midnightblue" d="M1181.07,-405.267C1185.42,-359.277 1193.25,-265.298 1193.25,-185.5 1193.25,-185.5 1193.25,-185.5 1193.25,-128.5 1193.25,-18.3929 1573.7,-66.0235 1683.25,-55 1988.13,-24.3225 2069.64,-52.3973 2377.98,-18.9963"/>
<polygon fill="midnightblue" stroke="midnightblue" points="2378.55,-22.4553 2388.11,-17.8863 2377.78,-15.497 2378.55,-22.4553"/>
</g>
<!-- Node6 -->
<g id="node7" class="node"><title>Node6</title>
<g id="a_node7"><a xlink:href="SteppingDemoClient_8h.html" target="_top" xlink:title="stepping&#45;demo/SteppingDemo\lClient.h">
<polygon fill="white" stroke="black" points="1206.71,-340.5 1206.71,-368.5 1357.79,-368.5 1357.79,-340.5 1206.71,-340.5"/>
<text text-anchor="start" x="1214.71" y="-356.5" font-family="Helvetica,sans-Serif" font-size="10.00">stepping&#45;demo/SteppingDemo</text>
<text text-anchor="middle" x="1282.25" y="-346.5" font-family="Helvetica,sans-Serif" font-size="10.00">Client.h</text>
</a>
</g>
</g>
<!-- Node0&#45;&gt;Node6 -->
<g id="edge6" class="edge"><title>Node0&#45;&gt;Node6</title>
<path fill="none" stroke="midnightblue" d="M1215.8,-405.34C1229.41,-395.129 1244.47,-383.841 1256.8,-374.593"/>
<polygon fill="midnightblue" stroke="midnightblue" points="1258.95,-377.355 1264.85,-368.555 1254.75,-371.755 1258.95,-377.355"/>
</g>
<!-- Node7 -->
<g id="node8" class="node"><title>Node7</title>
<g id="a_node8"><a xlink:href="IcubClient_8h.html" target="_top" xlink:title="ocra&#45;icub/IcubClient.h">
<polygon fill="white" stroke="black" points="912.896,-285.5 912.896,-303.5 1025.61,-303.5 1025.61,-285.5 912.896,-285.5"/>
<text text-anchor="middle" x="969.253" y="-291.5" font-family="Helvetica,sans-Serif" font-size="10.00">ocra&#45;icub/IcubClient.h</text>
</a>
</g>
</g>
<!-- Node0&#45;&gt;Node7 -->
<g id="edge61" class="edge"><title>Node0&#45;&gt;Node7</title>
<path fill="none" stroke="midnightblue" d="M1135.71,-405.407C1091.41,-376.161 1023.88,-331.57 990.068,-309.243"/>
<polygon fill="midnightblue" stroke="midnightblue" points="991.746,-306.157 981.472,-303.568 987.888,-311.999 991.746,-306.157"/>
</g>
<!-- Node36 -->
<g id="node37" class="node"><title>Node36</title>
<polygon fill="white" stroke="#bfbfbf" points="1517.73,-285.5 1517.73,-303.5 1668.78,-303.5 1668.78,-285.5 1517.73,-285.5"/>
<text text-anchor="middle" x="1593.25" y="-291.5" font-family="Helvetica,sans-Serif" font-size="10.00">ocra&#45;recipes/ControllerClient.h</text>
</g>
<!-- Node0&#45;&gt;Node36 -->
<g id="edge62" class="edge"><title>Node0&#45;&gt;Node36</title>
<path fill="none" stroke="midnightblue" d="M1252.45,-408.828C1343.15,-378.668 1492.77,-328.913 1559.41,-306.752"/>
<polygon fill="midnightblue" stroke="midnightblue" points="1560.62,-310.041 1569,-303.564 1558.41,-303.398 1560.62,-310.041"/>
</g>
<!-- Node38 -->
<g id="node39" class="node"><title>Node38</title>
<polygon fill="white" stroke="#bfbfbf" points="1724.94,-345.5 1724.94,-363.5 1871.57,-363.5 1871.57,-345.5 1724.94,-345.5"/>
<text text-anchor="middle" x="1798.25" y="-351.5" font-family="Helvetica,sans-Serif" font-size="10.00">ocra&#45;recipes/ClientManager.h</text>
</g>
<!-- Node0&#45;&gt;Node38 -->
<g id="edge63" class="edge"><title>Node0&#45;&gt;Node38</title>
<path fill="none" stroke="midnightblue" d="M1252.51,-425.31C1355.59,-413.759 1547.82,-391.562 1711.25,-369 1719.94,-367.8 1729.11,-366.46 1738.1,-365.102"/>
<polygon fill="midnightblue" stroke="midnightblue" points="1738.79,-368.538 1748.15,-363.568 1737.74,-361.618 1738.79,-368.538"/>
</g>
<!-- Node6&#45;&gt;Node7 -->
<g id="edge7" class="edge"><title>Node6&#45;&gt;Node7</title>
<path fill="none" stroke="midnightblue" d="M1212.01,-340.484C1154.73,-329.869 1075.02,-315.1 1022.81,-305.423"/>
<polygon fill="midnightblue" stroke="midnightblue" points="1023.21,-301.939 1012.74,-303.559 1021.94,-308.822 1023.21,-301.939"/>
</g>
<!-- Node35 -->
<g id="node36" class="node"><title>Node35</title>
<polygon fill="white" stroke="#bfbfbf" points="1342.3,-285.5 1342.3,-303.5 1500.21,-303.5 1500.21,-285.5 1342.3,-285.5"/>
<text text-anchor="middle" x="1421.25" y="-291.5" font-family="Helvetica,sans-Serif" font-size="10.00">ocra&#45;recipes/TrajectoryThread.h</text>
</g>
<!-- Node6&#45;&gt;Node35 -->
<g id="edge58" class="edge"><title>Node6&#45;&gt;Node35</title>
<path fill="none" stroke="midnightblue" d="M1313.45,-340.484C1337.12,-330.606 1369.42,-317.13 1392.47,-307.509"/>
<polygon fill="midnightblue" stroke="midnightblue" points="1393.86,-310.724 1401.74,-303.643 1391.16,-304.264 1393.86,-310.724"/>
</g>
<!-- Node6&#45;&gt;Node36 -->
<g id="edge59" class="edge"><title>Node6&#45;&gt;Node36</title>
<path fill="none" stroke="midnightblue" d="M1352.05,-340.484C1408.96,-329.869 1488.16,-315.1 1540.04,-305.423"/>
<polygon fill="midnightblue" stroke="midnightblue" points="1540.85,-308.833 1550.04,-303.559 1539.57,-301.951 1540.85,-308.833"/>
</g>
<!-- Node37 -->
<g id="node38" class="node"><title>Node37</title>
<polygon fill="white" stroke="#bfbfbf" points="1206.12,-285.5 1206.12,-303.5 1324.39,-303.5 1324.39,-285.5 1206.12,-285.5"/>
<text text-anchor="middle" x="1265.25" y="-291.5" font-family="Helvetica,sans-Serif" font-size="10.00">ocra/util/ErrorsHelper.h</text>
</g>
<!-- Node6&#45;&gt;Node37 -->
<g id="edge60" class="edge"><title>Node6&#45;&gt;Node37</title>
<path fill="none" stroke="midnightblue" d="M1278.4,-340.339C1276.08,-332.443 1273.1,-322.287 1270.57,-313.638"/>
<polygon fill="midnightblue" stroke="midnightblue" points="1273.85,-312.383 1267.68,-303.771 1267.13,-314.352 1273.85,-312.383"/>
</g>
<!-- Node8 -->
<g id="node9" class="node"><title>Node8</title>
<g id="a_node9"><a xlink:href="ModelInitializer_8h.html" target="_top" xlink:title="ocra&#45;icub/ModelInitializer.h">
<polygon fill="white" stroke="black" points="839.057,-230.5 839.057,-248.5 973.45,-248.5 973.45,-230.5 839.057,-230.5"/>
<text text-anchor="middle" x="906.253" y="-236.5" font-family="Helvetica,sans-Serif" font-size="10.00">ocra&#45;icub/ModelInitializer.h</text>
</a>
</g>
</g>
<!-- Node7&#45;&gt;Node8 -->
<g id="edge8" class="edge"><title>Node7&#45;&gt;Node8</title>
<path fill="none" stroke="midnightblue" d="M959.685,-285.45C950.157,-277.434 935.313,-264.947 923.687,-255.166"/>
<polygon fill="midnightblue" stroke="midnightblue" points="925.817,-252.385 915.912,-248.625 921.311,-257.741 925.817,-252.385"/>
</g>
<!-- Node9 -->
<g id="node10" class="node"><title>Node9</title>
<g id="a_node10"><a xlink:href="OcraWbiModel_8h.html" target="_top" xlink:title="Implementation of ocra::Model using wholeBodyInterface. ">
<polygon fill="white" stroke="black" points="713.066,-175.5 713.066,-193.5 847.44,-193.5 847.44,-175.5 713.066,-175.5"/>
<text text-anchor="middle" x="780.253" y="-181.5" font-family="Helvetica,sans-Serif" font-size="10.00">ocra&#45;icub/OcraWbiModel.h</text>
</a>
</g>
</g>
<!-- Node7&#45;&gt;Node9 -->
<g id="edge56" class="edge"><title>Node7&#45;&gt;Node9</title>
<path fill="none" stroke="midnightblue" d="M921.374,-285.497C893.007,-279.052 857.417,-267.856 830.253,-249 812.834,-236.908 798.556,-216.963 789.782,-202.651"/>
<polygon fill="midnightblue" stroke="midnightblue" points="792.682,-200.677 784.615,-193.809 786.638,-204.209 792.682,-200.677"/>
</g>
<!-- Node13 -->
<g id="node14" class="node"><title>Node13</title>
<g id="a_node14"><a xlink:href="OcraWbiConversions_8h.html" target="_top" xlink:title="A utility class full of static conversion functions. ">
<polygon fill="white" stroke="black" points="397.894,-120.5 397.894,-138.5 560.613,-138.5 560.613,-120.5 397.894,-120.5"/>
<text text-anchor="middle" x="479.253" y="-126.5" font-family="Helvetica,sans-Serif" font-size="10.00">ocra&#45;icub/OcraWbiConversions.h</text>
</a>
</g>
</g>
<!-- Node7&#45;&gt;Node13 -->
<g id="edge55" class="edge"><title>Node7&#45;&gt;Node13</title>
<path fill="none" stroke="midnightblue" d="M912.84,-288.727C801.345,-278.182 558.355,-249.335 498.253,-194 485.829,-182.561 481.405,-163.367 479.893,-149.07"/>
<polygon fill="midnightblue" stroke="midnightblue" points="483.372,-148.637 479.206,-138.895 476.388,-149.108 483.372,-148.637"/>
</g>
<!-- Node19 -->
<g id="node20" class="node"><title>Node19</title>
<g id="a_node20"><a xlink:href="Utilities_8h.html" target="_top" xlink:title="Some useful tools for the ocra&#45;icub lib. ">
<polygon fill="white" stroke="black" points="913.017,-60.5 913.017,-78.5 1013.49,-78.5 1013.49,-60.5 913.017,-60.5"/>
<text text-anchor="middle" x="963.253" y="-66.5" font-family="Helvetica,sans-Serif" font-size="10.00">ocra&#45;icub/Utilities.h</text>
</a>
</g>
</g>
<!-- Node7&#45;&gt;Node19 -->
<g id="edge57" class="edge"><title>Node7&#45;&gt;Node19</title>
<path fill="none" stroke="midnightblue" d="M972.359,-285.452C975.574,-276.654 980.384,-262.067 982.253,-249 990.624,-190.495 976.167,-120.715 968.109,-88.4704"/>
<polygon fill="midnightblue" stroke="midnightblue" points="971.475,-87.5092 965.574,-78.7104 964.7,-89.2692 971.475,-87.5092"/>
</g>
<!-- Node8&#45;&gt;Node2 -->
<g id="edge52" class="edge"><title>Node8&#45;&gt;Node2</title>
<path fill="none" stroke="midnightblue" d="M852.944,-230.45C788.46,-220.714 680.284,-204.379 613.614,-194.312"/>
<polygon fill="midnightblue" stroke="midnightblue" points="614.096,-190.845 603.686,-192.813 613.051,-197.767 614.096,-190.845"/>
</g>
<!-- Node8&#45;&gt;Node3 -->
<g id="edge54" class="edge"><title>Node8&#45;&gt;Node3</title>
<path fill="none" stroke="midnightblue" d="M870.338,-230.494C803.36,-215.607 661.708,-184.326 612.253,-175 513.598,-156.396 483.094,-174.677 389.253,-139 314.716,-110.662 238.447,-52.6264 204.905,-25.3224"/>
<polygon fill="midnightblue" stroke="midnightblue" points="206.912,-22.4406 196.969,-18.7819 202.46,-27.8426 206.912,-22.4406"/>
</g>
<!-- Node8&#45;&gt;Node4 -->
<g id="edge53" class="edge"><title>Node8&#45;&gt;Node4</title>
<path fill="none" stroke="midnightblue" d="M932.413,-230.432C1030.15,-200.694 1383.64,-96.7803 1683.25,-55 2030.74,-6.54269 2124.8,-49.8873 2477.67,-19.055"/>
<polygon fill="midnightblue" stroke="midnightblue" points="2478,-22.5396 2487.65,-18.1692 2477.38,-15.567 2478,-22.5396"/>
</g>
<!-- Node8&#45;&gt;Node9 -->
<g id="edge9" class="edge"><title>Node8&#45;&gt;Node9</title>
<path fill="none" stroke="midnightblue" d="M887.117,-230.45C866.302,-221.695 832.806,-207.606 808.864,-197.535"/>
<polygon fill="midnightblue" stroke="midnightblue" points="810.145,-194.276 799.57,-193.625 807.431,-200.729 810.145,-194.276"/>
</g>
<!-- Node11 -->
<g id="node12" class="node"><title>Node11</title>
<polygon fill="white" stroke="#bfbfbf" points="2141.95,-0.5 2141.95,-18.5 2248.55,-18.5 2248.55,-0.5 2141.95,-0.5"/>
<text text-anchor="middle" x="2195.25" y="-6.5" font-family="Helvetica,sans-Serif" font-size="10.00">ocra/control/Model.h</text>
</g>
<!-- Node8&#45;&gt;Node11 -->
<g id="edge49" class="edge"><title>Node8&#45;&gt;Node11</title>
<path fill="none" stroke="midnightblue" d="M913.617,-230.256C943.389,-197.155 1055.53,-74.753 1103.25,-55 1206.38,-12.3141 1979.16,-27.8464 2131.43,-18.8212"/>
<polygon fill="midnightblue" stroke="midnightblue" points="2131.95,-22.2935 2141.68,-18.0962 2131.45,-15.3109 2131.95,-22.2935"/>
</g>
<!-- Node18 -->
<g id="node19" class="node"><title>Node18</title>
<polygon fill="white" stroke="#bfbfbf" points="615.943,-55.5 615.943,-83.5 752.563,-83.5 752.563,-55.5 615.943,-55.5"/>
<text text-anchor="start" x="623.943" y="-71.5" font-family="Helvetica,sans-Serif" font-size="10.00">yarpWholeBodyInterface</text>
<text text-anchor="middle" x="684.253" y="-61.5" font-family="Helvetica,sans-Serif" font-size="10.00">/yarpWholeBodyInterface.h</text>
</g>
<!-- Node8&#45;&gt;Node18 -->
<g id="edge50" class="edge"><title>Node8&#45;&gt;Node18</title>
<path fill="none" stroke="midnightblue" d="M901.199,-230.319C892.955,-217.433 875.581,-192.119 856.253,-175 814.596,-138.103 758.198,-106.668 721.525,-88.1811"/>
<polygon fill="midnightblue" stroke="midnightblue" points="722.703,-84.8582 712.19,-83.5404 719.587,-91.1263 722.703,-84.8582"/>
</g>
<!-- Node27 -->
<g id="node28" class="node"><title>Node27</title>
<polygon fill="white" stroke="#bfbfbf" points="2266.62,-0.5 2266.62,-18.5 2369.88,-18.5 2369.88,-0.5 2266.62,-0.5"/>
<text text-anchor="middle" x="2318.25" y="-6.5" font-family="Helvetica,sans-Serif" font-size="10.00">yarp/os/RpcClient.h</text>
</g>
<!-- Node8&#45;&gt;Node27 -->
<g id="edge51" class="edge"><title>Node8&#45;&gt;Node27</title>
<path fill="none" stroke="midnightblue" d="M917.938,-230.383C968.195,-195.503 1164.11,-59.8954 1179.25,-55 1290.62,-19.0087 2098.66,-28.7883 2256.18,-18.8559"/>
<polygon fill="midnightblue" stroke="midnightblue" points="2256.66,-22.33 2266.38,-18.1058 2256.15,-15.3489 2256.66,-22.33"/>
</g>
<!-- Node9&#45;&gt;Node3 -->
<g id="edge13" class="edge"><title>Node9&#45;&gt;Node3</title>
<path fill="none" stroke="midnightblue" d="M764.989,-175.365C721.422,-152.517 592.217,-87.3238 477.253,-55 375.229,-26.3142 343.817,-36.092 235.712,-19.1652"/>
<polygon fill="midnightblue" stroke="midnightblue" points="236.139,-15.689 225.71,-17.5579 235.028,-22.6003 236.139,-15.689"/>
</g>
<!-- Node10 -->
<g id="node11" class="node"><title>Node10</title>
<polygon fill="white" stroke="#bfbfbf" points="560.197,-0.5 560.197,-18.5 612.31,-18.5 612.31,-0.5 560.197,-0.5"/>
<text text-anchor="middle" x="586.253" y="-6.5" font-family="Helvetica,sans-Serif" font-size="10.00">memory</text>
</g>
<!-- Node9&#45;&gt;Node10 -->
<g id="edge10" class="edge"><title>Node9&#45;&gt;Node10</title>
<path fill="none" stroke="midnightblue" d="M784.652,-175.461C796.056,-153.41 823.706,-91.2123 794.253,-55 746.635,3.54814 701.53,-33.1302 622.423,-18.9852"/>
<polygon fill="midnightblue" stroke="midnightblue" points="623.1,-15.5514 612.605,-16.9984 621.712,-22.4123 623.1,-15.5514"/>
</g>
<!-- Node9&#45;&gt;Node11 -->
<g id="edge11" class="edge"><title>Node9&#45;&gt;Node11</title>
<path fill="none" stroke="midnightblue" d="M813.272,-175.432C842.926,-167.689 887.346,-154.847 924.253,-139 970.148,-119.294 979.735,-110.208 1022.25,-84 1041.88,-71.9046 1043.33,-62.1096 1065.25,-55 1175.45,-19.271 1975.26,-28.4753 2131.55,-18.8288"/>
<polygon fill="midnightblue" stroke="midnightblue" points="2131.95,-22.3092 2141.68,-18.1008 2131.45,-15.3272 2131.95,-22.3092"/>
</g>
<!-- Node12 -->
<g id="node13" class="node"><title>Node12</title>
<polygon fill="white" stroke="#bfbfbf" points="423.689,-0.5 423.689,-18.5 480.817,-18.5 480.817,-0.5 423.689,-0.5"/>
<text text-anchor="middle" x="452.253" y="-6.5" font-family="Helvetica,sans-Serif" font-size="10.00">wbi/wbi.h</text>
</g>
<!-- Node9&#45;&gt;Node12 -->
<g id="edge12" class="edge"><title>Node9&#45;&gt;Node12</title>
<path fill="none" stroke="midnightblue" d="M781.963,-175.441C786.248,-152.792 794.834,-88.0735 761.253,-55 719.85,-14.2212 564.782,-28.3184 491.134,-18.9232"/>
<polygon fill="midnightblue" stroke="midnightblue" points="491.296,-15.4073 480.882,-17.3572 490.239,-22.3271 491.296,-15.4073"/>
</g>
<!-- Node9&#45;&gt;Node13 -->
<g id="edge14" class="edge"><title>Node9&#45;&gt;Node13</title>
<path fill="none" stroke="midnightblue" d="M734.538,-175.45C681.013,-166.026 592.384,-150.42 534.907,-140.299"/>
<polygon fill="midnightblue" stroke="midnightblue" points="535.36,-136.826 524.905,-138.538 534.146,-143.719 535.36,-136.826"/>
</g>
<!-- Node9&#45;&gt;Node19 -->
<g id="edge48" class="edge"><title>Node9&#45;&gt;Node19</title>
<path fill="none" stroke="midnightblue" d="M813.747,-175.453C838.725,-168.427 872.928,-156.573 899.253,-139 920.527,-124.799 939.8,-102.219 951.512,-86.899"/>
<polygon fill="midnightblue" stroke="midnightblue" points="954.346,-88.9531 957.492,-78.836 948.724,-84.7831 954.346,-88.9531"/>
</g>
<!-- Node13&#45;&gt;Node3 -->
<g id="edge19" class="edge"><title>Node13&#45;&gt;Node3</title>
<path fill="none" stroke="midnightblue" d="M451.098,-120.468C424.916,-112.575 385.119,-99.4824 352.253,-84 329.706,-73.378 326.659,-65.919 304.253,-55 277.416,-41.9214 245.69,-30.0649 222.05,-21.8852"/>
<polygon fill="midnightblue" stroke="midnightblue" points="223.046,-18.527 212.452,-18.6118 220.787,-25.1523 223.046,-18.527"/>
</g>
<!-- Node13&#45;&gt;Node12 -->
<g id="edge20" class="edge"><title>Node13&#45;&gt;Node12</title>
<path fill="none" stroke="midnightblue" d="M480.305,-120.152C481.767,-106.316 483.576,-77.8859 477.253,-55 474.54,-45.1773 469.219,-35.1997 464.182,-27.1886"/>
<polygon fill="midnightblue" stroke="midnightblue" points="467.045,-25.174 458.571,-18.8146 461.23,-29.0704 467.045,-25.174"/>
</g>
<!-- Node14 -->
<g id="node15" class="node"><title>Node14</title>
<polygon fill="white" stroke="#bfbfbf" points="351.081,-0.5 351.081,-18.5 405.426,-18.5 405.426,-0.5 351.081,-0.5"/>
<text text-anchor="middle" x="378.253" y="-6.5" font-family="Helvetica,sans-Serif" font-size="10.00">iostream</text>
</g>
<!-- Node13&#45;&gt;Node14 -->
<g id="edge15" class="edge"><title>Node13&#45;&gt;Node14</title>
<path fill="none" stroke="midnightblue" d="M466.633,-120.389C454.539,-112.201 436.255,-98.6944 423.253,-84 407.963,-66.719 394.764,-43.5851 386.686,-27.9215"/>
<polygon fill="midnightblue" stroke="midnightblue" points="389.75,-26.2221 382.146,-18.8436 383.489,-29.3531 389.75,-26.2221"/>
</g>
<!-- Node15 -->
<g id="node16" class="node"><title>Node15</title>
<polygon fill="white" stroke="#bfbfbf" points="432.527,-60.5 432.527,-78.5 467.98,-78.5 467.98,-60.5 432.527,-60.5"/>
<text text-anchor="middle" x="450.253" y="-66.5" font-family="Helvetica,sans-Serif" font-size="10.00">map</text>
</g>
<!-- Node13&#45;&gt;Node15 -->
<g id="edge16" class="edge"><title>Node13&#45;&gt;Node15</title>
<path fill="none" stroke="midnightblue" d="M475.221,-120.435C471.027,-112.047 464.33,-98.6539 458.928,-87.8491"/>
<polygon fill="midnightblue" stroke="midnightblue" points="462.042,-86.2508 454.439,-78.8718 455.781,-89.3813 462.042,-86.2508"/>
</g>
<!-- Node16 -->
<g id="node17" class="node"><title>Node16</title>
<polygon fill="white" stroke="#bfbfbf" points="498.638,-0.5 498.638,-18.5 541.869,-18.5 541.869,-0.5 498.638,-0.5"/>
<text text-anchor="middle" x="520.253" y="-6.5" font-family="Helvetica,sans-Serif" font-size="10.00">vector</text>
</g>
<!-- Node13&#45;&gt;Node16 -->
<g id="edge17" class="edge"><title>Node13&#45;&gt;Node16</title>
<path fill="none" stroke="midnightblue" d="M482.072,-120.389C488.625,-101.527 505.018,-54.3469 514.047,-28.3618"/>
<polygon fill="midnightblue" stroke="midnightblue" points="517.44,-29.2622 517.416,-18.6674 510.827,-26.9647 517.44,-29.2622"/>
</g>
<!-- Node17 -->
<g id="node18" class="node"><title>Node17</title>
<polygon fill="white" stroke="#bfbfbf" points="243.283,-0.5 243.283,-18.5 333.224,-18.5 333.224,-0.5 243.283,-0.5"/>
<text text-anchor="middle" x="288.253" y="-6.5" font-family="Helvetica,sans-Serif" font-size="10.00">yarp/sig/Vector.h</text>
</g>
<!-- Node13&#45;&gt;Node17 -->
<g id="edge18" class="edge"><title>Node13&#45;&gt;Node17</title>
<path fill="none" stroke="midnightblue" d="M464.015,-120.477C447.769,-111.819 421.389,-97.4577 399.253,-84 366.766,-64.2489 330.197,-39.5324 308.207,-24.3872"/>
<polygon fill="midnightblue" stroke="midnightblue" points="309.945,-21.3338 299.729,-18.5248 305.963,-27.0913 309.945,-21.3338"/>
</g>
<!-- Node13&#45;&gt;Node18 -->
<g id="edge21" class="edge"><title>Node13&#45;&gt;Node18</title>
<path fill="none" stroke="midnightblue" d="M507.758,-120.435C538.894,-111.626 589.536,-97.298 628.607,-86.244"/>
<polygon fill="midnightblue" stroke="midnightblue" points="629.602,-89.5998 638.271,-83.5096 627.696,-82.8642 629.602,-89.5998"/>
</g>
<!-- Node13&#45;&gt;Node19 -->
<g id="edge22" class="edge"><title>Node13&#45;&gt;Node19</title>
<path fill="none" stroke="midnightblue" d="M546.043,-120.496C640.555,-109.17 811.913,-88.6358 902.827,-77.7412"/>
<polygon fill="midnightblue" stroke="midnightblue" points="903.458,-81.1907 912.971,-76.5256 902.625,-74.2404 903.458,-81.1907"/>
</g>
<!-- Node19&#45;&gt;Node1 -->
<g id="edge32" class="edge"><title>Node19&#45;&gt;Node1</title>
<path fill="none" stroke="midnightblue" d="M912.622,-64.9919C871.771,-62.1915 812.82,-58.2178 761.253,-55 488.695,-37.9923 417.44,-42.4618 141.021,-19.0114"/>
<polygon fill="midnightblue" stroke="midnightblue" points="140.94,-15.4918 130.679,-18.1291 140.345,-22.4665 140.94,-15.4918"/>
</g>
<!-- Node19&#45;&gt;Node3 -->
<g id="edge38" class="edge"><title>Node19&#45;&gt;Node3</title>
<path fill="none" stroke="midnightblue" d="M912.943,-65.121C760.563,-54.8822 310.367,-24.5989 235.764,-18.6956"/>
<polygon fill="midnightblue" stroke="midnightblue" points="235.943,-15.1979 225.674,-17.8074 235.329,-22.1709 235.943,-15.1979"/>
</g>
<!-- Node19&#45;&gt;Node4 -->
<g id="edge39" class="edge"><title>Node19&#45;&gt;Node4</title>
<path fill="none" stroke="midnightblue" d="M1013.84,-65.4446C1065.09,-62.4354 1146.66,-57.8826 1217.25,-55 1774.48,-32.2474 1918.24,-64.1825 2477.31,-19.0652"/>
<polygon fill="midnightblue" stroke="midnightblue" points="2477.97,-22.5229 2487.66,-18.2252 2477.41,-15.5459 2477.97,-22.5229"/>
</g>
<!-- Node19&#45;&gt;Node5 -->
<g id="edge37" class="edge"><title>Node19&#45;&gt;Node5</title>
<path fill="none" stroke="midnightblue" d="M1013.85,-64.8723C1057.61,-61.8465 1122.58,-57.6205 1179.25,-55 1708.87,-30.5115 1846.56,-71.3147 2377.88,-18.9722"/>
<polygon fill="midnightblue" stroke="midnightblue" points="2378.51,-22.4275 2388.11,-17.9577 2377.82,-15.4617 2378.51,-22.4275"/>
</g>
<!-- Node19&#45;&gt;Node10 -->
<g id="edge23" class="edge"><title>Node19&#45;&gt;Node10</title>
<path fill="none" stroke="midnightblue" d="M927.469,-60.4301C918.299,-58.5058 908.433,-56.5601 899.253,-55 779.666,-34.6769 745.535,-41.3537 622.735,-19.0893"/>
<polygon fill="midnightblue" stroke="midnightblue" points="623.029,-15.5845 612.56,-17.2157 621.761,-22.4688 623.029,-15.5845"/>
</g>
<!-- Node19&#45;&gt;Node11 -->
<g id="edge44" class="edge"><title>Node19&#45;&gt;Node11</title>
<path fill="none" stroke="midnightblue" d="M995.957,-60.4494C1005.94,-58.3035 1016.99,-56.2394 1027.25,-55 1511.74,3.53193 1640.83,-59.0361 2131.49,-18.9475"/>
<polygon fill="midnightblue" stroke="midnightblue" points="2132,-22.4177 2141.68,-18.105 2131.42,-15.4415 2132,-22.4177"/>
</g>
<!-- Node19&#45;&gt;Node12 -->
<g id="edge43" class="edge"><title>Node19&#45;&gt;Node12</title>
<path fill="none" stroke="midnightblue" d="M912.936,-64.0283C811.889,-54.9245 586.444,-33.9584 490.794,-19.0415"/>
<polygon fill="midnightblue" stroke="midnightblue" points="491.299,-15.5777 480.868,-17.4359 490.181,-22.4879 491.299,-15.5777"/>
</g>
<!-- Node19&#45;&gt;Node14 -->
<g id="edge25" class="edge"><title>Node19&#45;&gt;Node14</title>
<path fill="none" stroke="midnightblue" d="M913.012,-64.8886C799.854,-56.6105 526.862,-35.7961 415.625,-18.9658"/>
<polygon fill="midnightblue" stroke="midnightblue" points="416.113,-15.4995 405.69,-17.4017 415.024,-22.4144 416.113,-15.4995"/>
</g>
<!-- Node19&#45;&gt;Node16 -->
<g id="edge27" class="edge"><title>Node19&#45;&gt;Node16</title>
<path fill="none" stroke="midnightblue" d="M912.776,-64.8571C836.629,-58.8319 687.77,-44.9921 552.316,-18.9223"/>
<polygon fill="midnightblue" stroke="midnightblue" points="552.659,-15.4232 542.174,-16.942 551.318,-22.2935 552.659,-15.4232"/>
</g>
<!-- Node19&#45;&gt;Node17 -->
<g id="edge41" class="edge"><title>Node19&#45;&gt;Node17</title>
<path fill="none" stroke="midnightblue" d="M912.709,-64.9737C788.632,-56.2385 470.517,-33.3469 343.546,-19.0404"/>
<polygon fill="midnightblue" stroke="midnightblue" points="343.635,-15.5275 333.299,-17.8547 342.83,-22.4811 343.635,-15.5275"/>
</g>
<!-- Node20 -->
<g id="node21" class="node"><title>Node20</title>
<polygon fill="white" stroke="#bfbfbf" points="1329.64,-0.5 1329.64,-18.5 1372.87,-18.5 1372.87,-0.5 1329.64,-0.5"/>
<text text-anchor="middle" x="1351.25" y="-6.5" font-family="Helvetica,sans-Serif" font-size="10.00">cmath</text>
</g>
<!-- Node19&#45;&gt;Node20 -->
<g id="edge24" class="edge"><title>Node19&#45;&gt;Node20</title>
<path fill="none" stroke="midnightblue" d="M998.696,-60.459C1007.96,-58.5124 1017.96,-56.5488 1027.25,-55 1153.51,-33.9669 1189.78,-43.8977 1319.42,-18.8796"/>
<polygon fill="midnightblue" stroke="midnightblue" points="1320.19,-22.2948 1329.33,-16.9346 1318.84,-15.4258 1320.19,-22.2948"/>
</g>
<!-- Node21 -->
<g id="node22" class="node"><title>Node21</title>
<polygon fill="white" stroke="#bfbfbf" points="1391.03,-0.5 1391.03,-18.5 1431.48,-18.5 1431.48,-0.5 1391.03,-0.5"/>
<text text-anchor="middle" x="1411.25" y="-6.5" font-family="Helvetica,sans-Serif" font-size="10.00">string</text>
</g>
<!-- Node19&#45;&gt;Node21 -->
<g id="edge26" class="edge"><title>Node19&#45;&gt;Node21</title>
<path fill="none" stroke="midnightblue" d="M998.006,-60.4645C1007.46,-58.4723 1017.72,-56.4851 1027.25,-55 1180.74,-31.0998 1224.82,-48.6774 1380.83,-18.9403"/>
<polygon fill="midnightblue" stroke="midnightblue" points="1381.62,-22.3508 1390.77,-17.0095 1380.29,-15.479 1381.62,-22.3508"/>
</g>
<!-- Node22 -->
<g id="node23" class="node"><title>Node22</title>
<polygon fill="white" stroke="#bfbfbf" points="1449.47,-0.5 1449.47,-18.5 1501.03,-18.5 1501.03,-0.5 1449.47,-0.5"/>
<text text-anchor="middle" x="1475.25" y="-6.5" font-family="Helvetica,sans-Serif" font-size="10.00">sstream</text>
</g>
<!-- Node19&#45;&gt;Node22 -->
<g id="edge28" class="edge"><title>Node19&#45;&gt;Node22</title>
<path fill="none" stroke="midnightblue" d="M997.659,-60.4447C1007.2,-58.4287 1017.59,-56.4345 1027.25,-55 1206.3,-28.4119 1256.67,-48.1071 1439.41,-18.8702"/>
<polygon fill="midnightblue" stroke="midnightblue" points="1440.04,-22.3139 1449.35,-17.2533 1438.92,-15.4047 1440.04,-22.3139"/>
</g>
<!-- Node23 -->
<g id="node24" class="node"><title>Node23</title>
<polygon fill="white" stroke="#bfbfbf" points="1519.31,-0.5 1519.31,-18.5 1635.19,-18.5 1635.19,-0.5 1519.31,-0.5"/>
<text text-anchor="middle" x="1577.25" y="-6.5" font-family="Helvetica,sans-Serif" font-size="10.00">yarp/os/BufferedPort.h</text>
</g>
<!-- Node19&#45;&gt;Node23 -->
<g id="edge29" class="edge"><title>Node19&#45;&gt;Node23</title>
<path fill="none" stroke="midnightblue" d="M997.315,-60.4348C1006.95,-58.3941 1017.47,-56.3898 1027.25,-55 1237.15,-25.1764 1294.35,-40.0845 1509.15,-19.0513"/>
<polygon fill="midnightblue" stroke="midnightblue" points="1509.56,-22.5277 1519.17,-18.0557 1508.87,-15.562 1509.56,-22.5277"/>
</g>
<!-- Node24 -->
<g id="node25" class="node"><title>Node24</title>
<polygon fill="white" stroke="#bfbfbf" points="1653.51,-0.5 1653.51,-18.5 1738.99,-18.5 1738.99,-0.5 1653.51,-0.5"/>
<text text-anchor="middle" x="1696.25" y="-6.5" font-family="Helvetica,sans-Serif" font-size="10.00">yarp/os/Bottle.h</text>
</g>
<!-- Node19&#45;&gt;Node24 -->
<g id="edge30" class="edge"><title>Node19&#45;&gt;Node24</title>
<path fill="none" stroke="midnightblue" d="M996.637,-60.4726C1006.45,-58.3813 1017.24,-56.3411 1027.25,-55 1296.19,-18.9957 1369.45,-48.4589 1643.21,-18.9775"/>
<polygon fill="midnightblue" stroke="midnightblue" points="1643.89,-22.4239 1653.45,-17.8573 1643.13,-15.4654 1643.89,-22.4239"/>
</g>
<!-- Node25 -->
<g id="node26" class="node"><title>Node25</title>
<polygon fill="white" stroke="#bfbfbf" points="1756.89,-0.5 1756.89,-18.5 1869.61,-18.5 1869.61,-0.5 1756.89,-0.5"/>
<text text-anchor="middle" x="1813.25" y="-6.5" font-family="Helvetica,sans-Serif" font-size="10.00">yarp/os/RateThread.h</text>
</g>
<!-- Node19&#45;&gt;Node25 -->
<g id="edge31" class="edge"><title>Node19&#45;&gt;Node25</title>
<path fill="none" stroke="midnightblue" d="M996.3,-60.4895C1006.2,-58.3721 1017.12,-56.3136 1027.25,-55 1342.17,-14.1839 1426.97,-47.1336 1746.55,-19.0771"/>
<polygon fill="midnightblue" stroke="midnightblue" points="1746.91,-22.5591 1756.56,-18.1853 1746.29,-15.5867 1746.91,-22.5591"/>
</g>
<!-- Node26 -->
<g id="node27" class="node"><title>Node26</title>
<polygon fill="white" stroke="#bfbfbf" points="1888,-0.5 1888,-18.5 1998.5,-18.5 1998.5,-0.5 1888,-0.5"/>
<text text-anchor="middle" x="1943.25" y="-6.5" font-family="Helvetica,sans-Serif" font-size="10.00">yarp/os/PortReader.h</text>
</g>
<!-- Node19&#45;&gt;Node26 -->
<g id="edge33" class="edge"><title>Node19&#45;&gt;Node26</title>
<path fill="none" stroke="midnightblue" d="M996.294,-60.4408C1006.19,-58.3221 1017.11,-56.275 1027.25,-55 1399.56,-8.18663 1499.35,-50.8115 1877.84,-18.9304"/>
<polygon fill="midnightblue" stroke="midnightblue" points="1878.31,-22.4033 1887.97,-18.0647 1877.71,-15.4287 1878.31,-22.4033"/>
</g>
<!-- Node19&#45;&gt;Node27 -->
<g id="edge34" class="edge"><title>Node19&#45;&gt;Node27</title>
<path fill="none" stroke="midnightblue" d="M1013.73,-62.8335C1040.33,-60.05 1073.52,-56.8951 1103.25,-55 1611.98,-22.5716 1744.22,-61.9461 2256.14,-18.9799"/>
<polygon fill="midnightblue" stroke="midnightblue" points="2256.71,-22.4441 2266.38,-18.1136 2256.12,-15.469 2256.71,-22.4441"/>
</g>
<!-- Node28 -->
<g id="node29" class="node"><title>Node28</title>
<polygon fill="white" stroke="#bfbfbf" points="2016.95,-0.5 2016.95,-18.5 2123.55,-18.5 2123.55,-0.5 2016.95,-0.5"/>
<text text-anchor="middle" x="2070.25" y="-6.5" font-family="Helvetica,sans-Serif" font-size="10.00">yarp/os/RpcServer.h</text>
</g>
<!-- Node19&#45;&gt;Node28 -->
<g id="edge35" class="edge"><title>Node19&#45;&gt;Node28</title>
<path fill="none" stroke="midnightblue" d="M995.96,-60.4759C1005.95,-58.3309 1017,-56.2607 1027.25,-55 1456.57,-2.22909 1571.26,-55.366 2006.66,-18.9389"/>
<polygon fill="midnightblue" stroke="midnightblue" points="2007.01,-22.422 2016.68,-18.0898 2006.42,-15.447 2007.01,-22.422"/>
</g>
<!-- Node29 -->
<g id="node30" class="node"><title>Node29</title>
<polygon fill="white" stroke="#bfbfbf" points="629.877,-0.5 629.877,-18.5 772.63,-18.5 772.63,-0.5 629.877,-0.5"/>
<text text-anchor="middle" x="701.253" y="-6.5" font-family="Helvetica,sans-Serif" font-size="10.00">yarp/os/ConnectionReader.h</text>
</g>
<!-- Node19&#45;&gt;Node29 -->
<g id="edge36" class="edge"><title>Node19&#45;&gt;Node29</title>
<path fill="none" stroke="midnightblue" d="M927.099,-60.4962C880.247,-50.1246 798.512,-32.0304 747.278,-20.6887"/>
<polygon fill="midnightblue" stroke="midnightblue" points="747.978,-17.2589 737.458,-18.5147 746.465,-24.0934 747.978,-17.2589"/>
</g>
<!-- Node30 -->
<g id="node31" class="node"><title>Node30</title>
<polygon fill="white" stroke="#bfbfbf" points="790.77,-0.5 790.77,-18.5 887.737,-18.5 887.737,-0.5 790.77,-0.5"/>
<text text-anchor="middle" x="839.253" y="-6.5" font-family="Helvetica,sans-Serif" font-size="10.00">yarp/os/Property.h</text>
</g>
<!-- Node19&#45;&gt;Node30 -->
<g id="edge40" class="edge"><title>Node19&#45;&gt;Node30</title>
<path fill="none" stroke="midnightblue" d="M946.012,-60.4353C925.307,-50.7508 890.343,-34.3966 866.095,-23.055"/>
<polygon fill="midnightblue" stroke="midnightblue" points="867.289,-19.7497 856.748,-18.6831 864.324,-26.0904 867.289,-19.7497"/>
</g>
<!-- Node31 -->
<g id="node32" class="node"><title>Node31</title>
<polygon fill="white" stroke="#bfbfbf" points="905.576,-0.5 905.576,-18.5 994.931,-18.5 994.931,-0.5 905.576,-0.5"/>
<text text-anchor="middle" x="950.253" y="-6.5" font-family="Helvetica,sans-Serif" font-size="10.00">yarp/sig/Matrix.h</text>
</g>
<!-- Node19&#45;&gt;Node31 -->
<g id="edge42" class="edge"><title>Node19&#45;&gt;Node31</title>
<path fill="none" stroke="midnightblue" d="M961.446,-60.4353C959.623,-52.3035 956.747,-39.4692 954.366,-28.8485"/>
<polygon fill="midnightblue" stroke="midnightblue" points="957.732,-27.8641 952.13,-18.8718 950.902,-29.3952 957.732,-27.8641"/>
</g>
<!-- Node32 -->
<g id="node33" class="node"><title>Node32</title>
<polygon fill="white" stroke="#bfbfbf" points="1013.01,-0.5 1013.01,-18.5 1133.49,-18.5 1133.49,-0.5 1013.01,-0.5"/>
<text text-anchor="middle" x="1073.25" y="-6.5" font-family="Helvetica,sans-Serif" font-size="10.00">ocra/util/StringUtilities.h</text>
</g>
<!-- Node19&#45;&gt;Node32 -->
<g id="edge45" class="edge"><title>Node19&#45;&gt;Node32</title>
<path fill="none" stroke="midnightblue" d="M978.548,-60.4353C996.752,-50.8369 1027.38,-34.6868 1048.87,-23.3586"/>
<polygon fill="midnightblue" stroke="midnightblue" points="1050.52,-26.4433 1057.73,-18.6831 1047.26,-20.2513 1050.52,-26.4433"/>
</g>
<!-- Node33 -->
<g id="node34" class="node"><title>Node33</title>
<polygon fill="white" stroke="#bfbfbf" points="1151.62,-0.5 1151.62,-18.5 1224.88,-18.5 1224.88,-0.5 1151.62,-0.5"/>
<text text-anchor="middle" x="1188.25" y="-6.5" font-family="Helvetica,sans-Serif" font-size="10.00">Eigen/Dense</text>
</g>
<!-- Node19&#45;&gt;Node33 -->
<g id="edge46" class="edge"><title>Node19&#45;&gt;Node33</title>
<path fill="none" stroke="midnightblue" d="M994.539,-60.4353C1034.31,-50.1839 1103.07,-32.459 1147.07,-21.1171"/>
<polygon fill="midnightblue" stroke="midnightblue" points="1148.06,-24.4749 1156.87,-18.5894 1146.31,-17.6965 1148.06,-24.4749"/>
</g>
<!-- Node34 -->
<g id="node35" class="node"><title>Node34</title>
<polygon fill="white" stroke="#bfbfbf" points="1242.85,-0.5 1242.85,-18.5 1311.66,-18.5 1311.66,-0.5 1242.85,-0.5"/>
<text text-anchor="middle" x="1277.25" y="-6.5" font-family="Helvetica,sans-Serif" font-size="10.00">Eigen/Lgsm</text>
</g>
<!-- Node19&#45;&gt;Node34 -->
<g id="edge47" class="edge"><title>Node19&#45;&gt;Node34</title>
<path fill="none" stroke="midnightblue" d="M1000.1,-60.4936C1008.98,-58.6289 1018.44,-56.6946 1027.25,-55 1115.82,-37.9634 1140.76,-36.1637 1232.53,-19.2845"/>
<polygon fill="midnightblue" stroke="midnightblue" points="1233.34,-22.6952 1242.53,-17.4344 1232.06,-15.812 1233.34,-22.6952"/>
</g>
</g>
</svg>
