<?xml version="1.0" encoding="UTF-8" standalone="no"?>
<!DOCTYPE svg PUBLIC "-//W3C//DTD SVG 1.1//EN"
 "http://www.w3.org/Graphics/SVG/1.1/DTD/svg11.dtd">
<!-- Generated by graphviz version 2.38.0 (20140413.2041)
 -->
<!-- Title: /Users/jorhabibeljaik/Code/codyco&#45;superbuild/main/ocra&#45;wbi&#45;plugins/ocra&#45;icub&#45;clients/stepping&#45;demo/src/stepping&#45;demo.cpp Pages: 1 -->
<svg width="2466pt" height="472pt"
 viewBox="0.00 0.00 2465.67 472.00" xmlns="http://www.w3.org/2000/svg" xmlns:xlink="http://www.w3.org/1999/xlink">
<g id="graph0" class="graph" transform="scale(1 1) rotate(0) translate(4 468)">
<title>/Users/jorhabibeljaik/Code/codyco&#45;superbuild/main/ocra&#45;wbi&#45;plugins/ocra&#45;icub&#45;clients/stepping&#45;demo/src/stepping&#45;demo.cpp</title>
<polygon fill="white" stroke="none" points="-4,4 -4,-468 2461.67,-468 2461.67,4 -4,4"/>
<!-- Node0 -->
<g id="node1" class="node"><title>Node0</title>
<polygon fill="#bfbfbf" stroke="black" points="1098.11,-405.5 1098.11,-463.5 1246.4,-463.5 1246.4,-405.5 1098.11,-405.5"/>
<text text-anchor="start" x="1106.11" y="-451.5" font-family="Helvetica,sans-Serif" font-size="10.00">/Users/jorhabibeljaik</text>
<text text-anchor="start" x="1106.11" y="-441.5" font-family="Helvetica,sans-Serif" font-size="10.00">/Code/codyco&#45;superbuild</text>
<text text-anchor="start" x="1106.11" y="-431.5" font-family="Helvetica,sans-Serif" font-size="10.00">/main/ocra&#45;wbi&#45;plugins</text>
<text text-anchor="start" x="1106.11" y="-421.5" font-family="Helvetica,sans-Serif" font-size="10.00">/ocra&#45;icub&#45;clients/stepping</text>
<text text-anchor="middle" x="1172.25" y="-411.5" font-family="Helvetica,sans-Serif" font-size="10.00">&#45;demo/src/stepping&#45;demo.cpp</text>
</g>
<!-- Node1 -->
<g id="node2" class="node"><title>Node1</title>
<polygon fill="white" stroke="#bfbfbf" points="0,-0.5 0,-18.5 130.507,-18.5 130.507,-0.5 0,-0.5"/>
<text text-anchor="middle" x="65.2534" y="-6.5" font-family="Helvetica,sans-Serif" font-size="10.00">yarp/os/ResourceFinder.h</text>
</g>
<!-- Node0&#45;&gt;Node1 -->
<g id="edge1" class="edge"><title>Node0&#45;&gt;Node1</title>
<path fill="none" stroke="midnightblue" d="M1097.78,-431.39C912.331,-425.612 433.695,-407.344 279.253,-369 200.55,-349.46 112.253,-376.593 112.253,-295.5 112.253,-295.5 112.253,-295.5 112.253,-128.5 112.253,-90.0824 90.486,-49.3042 76.5784,-27.171"/>
<polygon fill="midnightblue" stroke="midnightblue" points="79.4092,-25.1043 71.0165,-18.638 73.545,-28.9267 79.4092,-25.1043"/>
</g>
<!-- Node2 -->
<g id="node3" class="node"><title>Node2</title>
<polygon fill="white" stroke="#bfbfbf" points="500.96,-175.5 500.96,-193.5 597.546,-193.5 597.546,-175.5 500.96,-175.5"/>
<text text-anchor="middle" x="549.253" y="-181.5" font-family="Helvetica,sans-Serif" font-size="10.00">yarp/os/Network.h</text>
</g>
<!-- Node0&#45;&gt;Node2 -->
<g id="edge2" class="edge"><title>Node0&#45;&gt;Node2</title>
<path fill="none" stroke="midnightblue" d="M1101.7,-405.413C965.837,-351.331 673.03,-234.772 578.984,-197.335"/>
<polygon fill="midnightblue" stroke="midnightblue" points="580.098,-194.011 569.513,-193.565 577.509,-200.515 580.098,-194.011"/>
</g>
<!-- Node3 -->
<g id="node4" class="node"><title>Node3</title>
<polygon fill="white" stroke="#bfbfbf" points="148.956,-0.5 148.956,-18.5 225.551,-18.5 225.551,-0.5 148.956,-0.5"/>
<text text-anchor="middle" x="187.253" y="-6.5" font-family="Helvetica,sans-Serif" font-size="10.00">yarp/os/Log.h</text>
</g>
<!-- Node0&#45;&gt;Node3 -->
<g id="edge3" class="edge"><title>Node0&#45;&gt;Node3</title>
<path fill="none" stroke="midnightblue" d="M1098.11,-430.575C873.729,-420.745 217.253,-384.391 217.253,-295.5 217.253,-295.5 217.253,-295.5 217.253,-128.5 217.253,-91.8218 203.471,-50.6529 194.589,-27.932"/>
<polygon fill="midnightblue" stroke="midnightblue" points="197.813,-26.5686 190.813,-18.6162 191.326,-29.1986 197.813,-26.5686"/>
</g>
<!-- Node4 -->
<g id="node5" class="node"><title>Node4</title>
<polygon fill="white" stroke="#bfbfbf" points="2348.84,-0.5 2348.84,-18.5 2457.67,-18.5 2457.67,-0.5 2348.84,-0.5"/>
<text text-anchor="middle" x="2403.25" y="-6.5" font-family="Helvetica,sans-Serif" font-size="10.00">yarp/os/LogStream.h</text>
</g>
<!-- Node0&#45;&gt;Node4 -->
<g id="edge4" class="edge"><title>Node0&#45;&gt;Node4</title>
<path fill="none" stroke="midnightblue" d="M1246.61,-429.212C1390.12,-418.891 1691.25,-386.404 1691.25,-295.5 1691.25,-295.5 1691.25,-295.5 1691.25,-128.5 1691.25,-112.184 2162.87,-44.2655 2338.43,-19.5469"/>
<polygon fill="midnightblue" stroke="midnightblue" points="2339.15,-22.9804 2348.57,-18.1219 2338.18,-16.0486 2339.15,-22.9804"/>
</g>
<!-- Node5 -->
<g id="node6" class="node"><title>Node5</title>
<polygon fill="white" stroke="#bfbfbf" points="2249.37,-0.5 2249.37,-18.5 2331.14,-18.5 2331.14,-0.5 2249.37,-0.5"/>
<text text-anchor="middle" x="2290.25" y="-6.5" font-family="Helvetica,sans-Serif" font-size="10.00">yarp/os/Time.h</text>
</g>
<!-- Node0&#45;&gt;Node5 -->
<g id="edge5" class="edge"><title>Node0&#45;&gt;Node5</title>
<path fill="none" stroke="midnightblue" d="M1173.76,-405.243C1176.08,-359.219 1180.25,-265.194 1180.25,-185.5 1180.25,-185.5 1180.25,-185.5 1180.25,-128.5 1180.25,-57.1089 2117.5,-26.9902 2238.81,-18.7077"/>
<polygon fill="midnightblue" stroke="midnightblue" points="2239.43,-22.1684 2249.1,-17.8463 2238.84,-15.1928 2239.43,-22.1684"/>
</g>
<!-- Node6 -->
<g id="node7" class="node"><title>Node6</title>
<g id="a_node7"><a xlink:href="SteppingDemoClient_8h.html" target="_top" xlink:title="stepping&#45;demo/SteppingDemo\lClient.h">
<polygon fill="white" stroke="black" points="1200.71,-340.5 1200.71,-368.5 1351.79,-368.5 1351.79,-340.5 1200.71,-340.5"/>
<text text-anchor="start" x="1208.71" y="-356.5" font-family="Helvetica,sans-Serif" font-size="10.00">stepping&#45;demo/SteppingDemo</text>
<text text-anchor="middle" x="1276.25" y="-346.5" font-family="Helvetica,sans-Serif" font-size="10.00">Client.h</text>
</a>
</g>
</g>
<!-- Node0&#45;&gt;Node6 -->
<g id="edge6" class="edge"><title>Node0&#45;&gt;Node6</title>
<path fill="none" stroke="midnightblue" d="M1209.8,-405.34C1223.41,-395.129 1238.47,-383.841 1250.8,-374.593"/>
<polygon fill="midnightblue" stroke="midnightblue" points="1252.95,-377.355 1258.85,-368.555 1248.75,-371.755 1252.95,-377.355"/>
</g>
<!-- Node7 -->
<g id="node8" class="node"><title>Node7</title>
<g id="a_node8"><a xlink:href="IcubClient_8h.html" target="_top" xlink:title="ocra&#45;icub/IcubClient.h">
<polygon fill="white" stroke="black" points="906.896,-285.5 906.896,-303.5 1019.61,-303.5 1019.61,-285.5 906.896,-285.5"/>
<text text-anchor="middle" x="963.253" y="-291.5" font-family="Helvetica,sans-Serif" font-size="10.00">ocra&#45;icub/IcubClient.h</text>
</a>
</g>
</g>
<!-- Node0&#45;&gt;Node7 -->
<g id="edge60" class="edge"><title>Node0&#45;&gt;Node7</title>
<path fill="none" stroke="midnightblue" d="M1129.71,-405.407C1085.41,-376.161 1017.88,-331.57 984.068,-309.243"/>
<polygon fill="midnightblue" stroke="midnightblue" points="985.746,-306.157 975.472,-303.568 981.888,-311.999 985.746,-306.157"/>
</g>
<!-- Node35 -->
<g id="node36" class="node"><title>Node35</title>
<polygon fill="white" stroke="#bfbfbf" points="1511.73,-285.5 1511.73,-303.5 1662.78,-303.5 1662.78,-285.5 1511.73,-285.5"/>
<text text-anchor="middle" x="1587.25" y="-291.5" font-family="Helvetica,sans-Serif" font-size="10.00">ocra&#45;recipes/ControllerClient.h</text>
</g>
<!-- Node0&#45;&gt;Node35 -->
<g id="edge61" class="edge"><title>Node0&#45;&gt;Node35</title>
<path fill="none" stroke="midnightblue" d="M1246.45,-408.828C1337.15,-378.668 1486.77,-328.913 1553.41,-306.752"/>
<polygon fill="midnightblue" stroke="midnightblue" points="1554.62,-310.041 1563,-303.564 1552.41,-303.398 1554.62,-310.041"/>
</g>
<!-- Node37 -->
<g id="node38" class="node"><title>Node37</title>
<polygon fill="white" stroke="#bfbfbf" points="1718.94,-345.5 1718.94,-363.5 1865.57,-363.5 1865.57,-345.5 1718.94,-345.5"/>
<text text-anchor="middle" x="1792.25" y="-351.5" font-family="Helvetica,sans-Serif" font-size="10.00">ocra&#45;recipes/ClientManager.h</text>
</g>
<!-- Node0&#45;&gt;Node37 -->
<g id="edge62" class="edge"><title>Node0&#45;&gt;Node37</title>
<path fill="none" stroke="midnightblue" d="M1246.51,-425.31C1349.59,-413.759 1541.82,-391.562 1705.25,-369 1713.94,-367.8 1723.11,-366.46 1732.1,-365.102"/>
<polygon fill="midnightblue" stroke="midnightblue" points="1732.79,-368.538 1742.15,-363.568 1731.74,-361.618 1732.79,-368.538"/>
</g>
<!-- Node6&#45;&gt;Node7 -->
<g id="edge7" class="edge"><title>Node6&#45;&gt;Node7</title>
<path fill="none" stroke="midnightblue" d="M1206.01,-340.484C1148.73,-329.869 1069.02,-315.1 1016.81,-305.423"/>
<polygon fill="midnightblue" stroke="midnightblue" points="1017.21,-301.939 1006.74,-303.559 1015.94,-308.822 1017.21,-301.939"/>
</g>
<!-- Node34 -->
<g id="node35" class="node"><title>Node34</title>
<polygon fill="white" stroke="#bfbfbf" points="1336.3,-285.5 1336.3,-303.5 1494.21,-303.5 1494.21,-285.5 1336.3,-285.5"/>
<text text-anchor="middle" x="1415.25" y="-291.5" font-family="Helvetica,sans-Serif" font-size="10.00">ocra&#45;recipes/TrajectoryThread.h</text>
</g>
<!-- Node6&#45;&gt;Node34 -->
<g id="edge57" class="edge"><title>Node6&#45;&gt;Node34</title>
<path fill="none" stroke="midnightblue" d="M1307.45,-340.484C1331.12,-330.606 1363.42,-317.13 1386.47,-307.509"/>
<polygon fill="midnightblue" stroke="midnightblue" points="1387.86,-310.724 1395.74,-303.643 1385.16,-304.264 1387.86,-310.724"/>
</g>
<!-- Node6&#45;&gt;Node35 -->
<g id="edge58" class="edge"><title>Node6&#45;&gt;Node35</title>
<path fill="none" stroke="midnightblue" d="M1346.05,-340.484C1402.96,-329.869 1482.16,-315.1 1534.04,-305.423"/>
<polygon fill="midnightblue" stroke="midnightblue" points="1534.85,-308.833 1544.04,-303.559 1533.57,-301.951 1534.85,-308.833"/>
</g>
<!-- Node36 -->
<g id="node37" class="node"><title>Node36</title>
<polygon fill="white" stroke="#bfbfbf" points="1200.12,-285.5 1200.12,-303.5 1318.39,-303.5 1318.39,-285.5 1200.12,-285.5"/>
<text text-anchor="middle" x="1259.25" y="-291.5" font-family="Helvetica,sans-Serif" font-size="10.00">ocra/util/ErrorsHelper.h</text>
</g>
<!-- Node6&#45;&gt;Node36 -->
<g id="edge59" class="edge"><title>Node6&#45;&gt;Node36</title>
<path fill="none" stroke="midnightblue" d="M1272.4,-340.339C1270.08,-332.443 1267.1,-322.287 1264.57,-313.638"/>
<polygon fill="midnightblue" stroke="midnightblue" points="1267.85,-312.383 1261.68,-303.771 1261.13,-314.352 1267.85,-312.383"/>
</g>
<!-- Node8 -->
<g id="node9" class="node"><title>Node8</title>
<g id="a_node9"><a xlink:href="ModelInitializer_8h.html" target="_top" xlink:title="ocra&#45;icub/ModelInitializer.h">
<polygon fill="white" stroke="black" points="833.057,-230.5 833.057,-248.5 967.45,-248.5 967.45,-230.5 833.057,-230.5"/>
<text text-anchor="middle" x="900.253" y="-236.5" font-family="Helvetica,sans-Serif" font-size="10.00">ocra&#45;icub/ModelInitializer.h</text>
</a>
</g>
</g>
<!-- Node7&#45;&gt;Node8 -->
<g id="edge8" class="edge"><title>Node7&#45;&gt;Node8</title>
<path fill="none" stroke="midnightblue" d="M953.685,-285.45C944.157,-277.434 929.313,-264.947 917.687,-255.166"/>
<polygon fill="midnightblue" stroke="midnightblue" points="919.817,-252.385 909.912,-248.625 915.311,-257.741 919.817,-252.385"/>
</g>
<!-- Node9 -->
<g id="node10" class="node"><title>Node9</title>
<g id="a_node10"><a xlink:href="OcraWbiModel_8h.html" target="_top" xlink:title="Implementation of ocra::Model using wholeBodyInterface. ">
<polygon fill="white" stroke="black" points="707.066,-175.5 707.066,-193.5 841.44,-193.5 841.44,-175.5 707.066,-175.5"/>
<text text-anchor="middle" x="774.253" y="-181.5" font-family="Helvetica,sans-Serif" font-size="10.00">ocra&#45;icub/OcraWbiModel.h</text>
</a>
</g>
</g>
<!-- Node7&#45;&gt;Node9 -->
<g id="edge55" class="edge"><title>Node7&#45;&gt;Node9</title>
<path fill="none" stroke="midnightblue" d="M915.374,-285.497C887.007,-279.052 851.417,-267.856 824.253,-249 806.834,-236.908 792.556,-216.963 783.782,-202.651"/>
<polygon fill="midnightblue" stroke="midnightblue" points="786.682,-200.677 778.615,-193.809 780.638,-204.209 786.682,-200.677"/>
</g>
<!-- Node13 -->
<g id="node14" class="node"><title>Node13</title>
<g id="a_node14"><a xlink:href="OcraWbiConversions_8h.html" target="_top" xlink:title="A utility class full of static conversion functions. ">
<polygon fill="white" stroke="black" points="391.894,-120.5 391.894,-138.5 554.613,-138.5 554.613,-120.5 391.894,-120.5"/>
<text text-anchor="middle" x="473.253" y="-126.5" font-family="Helvetica,sans-Serif" font-size="10.00">ocra&#45;icub/OcraWbiConversions.h</text>
</a>
</g>
</g>
<!-- Node7&#45;&gt;Node13 -->
<g id="edge54" class="edge"><title>Node7&#45;&gt;Node13</title>
<path fill="none" stroke="midnightblue" d="M906.84,-288.727C795.345,-278.182 552.355,-249.335 492.253,-194 479.829,-182.561 475.405,-163.367 473.893,-149.07"/>
<polygon fill="midnightblue" stroke="midnightblue" points="477.372,-148.637 473.206,-138.895 470.388,-149.108 477.372,-148.637"/>
</g>
<!-- Node19 -->
<g id="node20" class="node"><title>Node19</title>
<g id="a_node20"><a xlink:href="Utilities_8h.html" target="_top" xlink:title="Some useful tools for the ocra&#45;icub lib. ">
<polygon fill="white" stroke="black" points="900.017,-60.5 900.017,-78.5 1000.49,-78.5 1000.49,-60.5 900.017,-60.5"/>
<text text-anchor="middle" x="950.253" y="-66.5" font-family="Helvetica,sans-Serif" font-size="10.00">ocra&#45;icub/Utilities.h</text>
</a>
</g>
</g>
<!-- Node7&#45;&gt;Node19 -->
<g id="edge56" class="edge"><title>Node7&#45;&gt;Node19</title>
<path fill="none" stroke="midnightblue" d="M966.359,-285.452C969.574,-276.654 974.384,-262.067 976.253,-249 984.665,-190.21 966.346,-120.567 956.284,-88.4129"/>
<polygon fill="midnightblue" stroke="midnightblue" points="959.542,-87.1137 953.127,-78.6821 952.884,-89.2742 959.542,-87.1137"/>
</g>
<!-- Node8&#45;&gt;Node2 -->
<g id="edge51" class="edge"><title>Node8&#45;&gt;Node2</title>
<path fill="none" stroke="midnightblue" d="M846.944,-230.45C782.46,-220.714 674.284,-204.379 607.614,-194.312"/>
<polygon fill="midnightblue" stroke="midnightblue" points="608.096,-190.845 597.686,-192.813 607.051,-197.767 608.096,-190.845"/>
</g>
<!-- Node8&#45;&gt;Node3 -->
<g id="edge53" class="edge"><title>Node8&#45;&gt;Node3</title>
<path fill="none" stroke="midnightblue" d="M864.338,-230.494C797.36,-215.607 655.708,-184.326 606.253,-175 507.598,-156.396 476.956,-175.04 383.253,-139 310.393,-110.976 236.657,-52.7841 204.28,-25.3816"/>
<polygon fill="midnightblue" stroke="midnightblue" points="206.491,-22.6673 196.621,-18.8165 201.936,-27.982 206.491,-22.6673"/>
</g>
<!-- Node8&#45;&gt;Node4 -->
<g id="edge52" class="edge"><title>Node8&#45;&gt;Node4</title>
<path fill="none" stroke="midnightblue" d="M926.762,-230.419C1025.02,-200.858 1378.18,-98.0862 1677.25,-55 1966.06,-13.3934 2044.7,-46.0007 2338.55,-19.0794"/>
<polygon fill="midnightblue" stroke="midnightblue" points="2339.02,-22.5514 2348.65,-18.1389 2338.37,-15.5816 2339.02,-22.5514"/>
</g>
<!-- Node8&#45;&gt;Node9 -->
<g id="edge9" class="edge"><title>Node8&#45;&gt;Node9</title>
<path fill="none" stroke="midnightblue" d="M881.117,-230.45C860.302,-221.695 826.806,-207.606 802.864,-197.535"/>
<polygon fill="midnightblue" stroke="midnightblue" points="804.145,-194.276 793.57,-193.625 801.431,-200.729 804.145,-194.276"/>
</g>
<!-- Node11 -->
<g id="node12" class="node"><title>Node11</title>
<polygon fill="white" stroke="#bfbfbf" points="2002.95,-0.5 2002.95,-18.5 2109.55,-18.5 2109.55,-0.5 2002.95,-0.5"/>
<text text-anchor="middle" x="2056.25" y="-6.5" font-family="Helvetica,sans-Serif" font-size="10.00">ocra/control/Model.h</text>
</g>
<!-- Node8&#45;&gt;Node11 -->
<g id="edge48" class="edge"><title>Node8&#45;&gt;Node11</title>
<path fill="none" stroke="midnightblue" d="M907.324,-230.265C935.914,-197.2 1043.66,-74.9161 1090.25,-55 1180.06,-16.6141 1854.82,-27.0949 1992.37,-18.8221"/>
<polygon fill="midnightblue" stroke="midnightblue" points="1992.95,-22.2894 2002.68,-18.0784 1992.45,-15.3075 1992.95,-22.2894"/>
</g>
<!-- Node18 -->
<g id="node19" class="node"><title>Node18</title>
<polygon fill="white" stroke="#bfbfbf" points="609.943,-55.5 609.943,-83.5 746.563,-83.5 746.563,-55.5 609.943,-55.5"/>
<text text-anchor="start" x="617.943" y="-71.5" font-family="Helvetica,sans-Serif" font-size="10.00">yarpWholeBodyInterface</text>
<text text-anchor="middle" x="678.253" y="-61.5" font-family="Helvetica,sans-Serif" font-size="10.00">/yarpWholeBodyInterface.h</text>
</g>
<!-- Node8&#45;&gt;Node18 -->
<g id="edge49" class="edge"><title>Node8&#45;&gt;Node18</title>
<path fill="none" stroke="midnightblue" d="M895.199,-230.319C886.955,-217.433 869.581,-192.119 850.253,-175 808.596,-138.103 752.198,-106.668 715.525,-88.1811"/>
<polygon fill="midnightblue" stroke="midnightblue" points="716.703,-84.8582 706.19,-83.5404 713.587,-91.1263 716.703,-84.8582"/>
</g>
<!-- Node27 -->
<g id="node28" class="node"><title>Node27</title>
<polygon fill="white" stroke="#bfbfbf" points="2127.62,-0.5 2127.62,-18.5 2230.88,-18.5 2230.88,-0.5 2127.62,-0.5"/>
<text text-anchor="middle" x="2179.25" y="-6.5" font-family="Helvetica,sans-Serif" font-size="10.00">yarp/os/RpcClient.h</text>
</g>
<!-- Node8&#45;&gt;Node27 -->
<g id="edge50" class="edge"><title>Node8&#45;&gt;Node27</title>
<path fill="none" stroke="midnightblue" d="M911.634,-230.384C960.585,-195.512 1151.41,-59.9319 1166.25,-55 1264.06,-22.498 1973.91,-27.9909 2117.02,-18.8648"/>
<polygon fill="midnightblue" stroke="midnightblue" points="2117.67,-22.3264 2127.38,-18.0902 2117.15,-15.3459 2117.67,-22.3264"/>
</g>
<!-- Node9&#45;&gt;Node3 -->
<g id="edge13" class="edge"><title>Node9&#45;&gt;Node3</title>
<path fill="none" stroke="midnightblue" d="M758.983,-175.386C715.4,-152.594 586.157,-87.5346 471.253,-55 371.845,-26.8529 341.197,-35.882 235.806,-19.1871"/>
<polygon fill="midnightblue" stroke="midnightblue" points="236.144,-15.6962 225.712,-17.5464 235.021,-22.6056 236.144,-15.6962"/>
</g>
<!-- Node10 -->
<g id="node11" class="node"><title>Node10</title>
<polygon fill="white" stroke="#bfbfbf" points="560.197,-0.5 560.197,-18.5 612.31,-18.5 612.31,-0.5 560.197,-0.5"/>
<text text-anchor="middle" x="586.253" y="-6.5" font-family="Helvetica,sans-Serif" font-size="10.00">memory</text>
</g>
<!-- Node9&#45;&gt;Node10 -->
<g id="edge10" class="edge"><title>Node9&#45;&gt;Node10</title>
<path fill="none" stroke="midnightblue" d="M778.638,-175.472C790.007,-153.449 817.576,-91.3174 788.253,-55 742.512,1.65225 698.982,-32.8433 622.594,-19.027"/>
<polygon fill="midnightblue" stroke="midnightblue" points="623.109,-15.5598 612.609,-16.9782 621.702,-22.417 623.109,-15.5598"/>
</g>
<!-- Node9&#45;&gt;Node11 -->
<g id="edge11" class="edge"><title>Node9&#45;&gt;Node11</title>
<path fill="none" stroke="midnightblue" d="M804.82,-175.446C833.013,-167.582 875.746,-154.549 911.253,-139 957.005,-118.965 966.735,-110.208 1009.25,-84 1028.88,-71.9046 1030.34,-62.1591 1052.25,-55 1248.16,9.00773 1768.69,-35.6137 1992.57,-18.899"/>
<polygon fill="midnightblue" stroke="midnightblue" points="1992.99,-22.3763 2002.68,-18.0843 1992.43,-15.399 1992.99,-22.3763"/>
</g>
<!-- Node12 -->
<g id="node13" class="node"><title>Node12</title>
<polygon fill="white" stroke="#bfbfbf" points="423.689,-0.5 423.689,-18.5 480.817,-18.5 480.817,-0.5 423.689,-0.5"/>
<text text-anchor="middle" x="452.253" y="-6.5" font-family="Helvetica,sans-Serif" font-size="10.00">wbi/wbi.h</text>
</g>
<!-- Node9&#45;&gt;Node12 -->
<g id="edge12" class="edge"><title>Node9&#45;&gt;Node12</title>
<path fill="none" stroke="midnightblue" d="M775.958,-175.446C780.23,-152.81 788.785,-88.1227 755.253,-55 714.806,-15.0457 563.126,-28.2605 490.935,-18.9023"/>
<polygon fill="midnightblue" stroke="midnightblue" points="491.301,-15.4173 480.883,-17.3488 490.231,-22.3352 491.301,-15.4173"/>
</g>
<!-- Node9&#45;&gt;Node13 -->
<g id="edge14" class="edge"><title>Node9&#45;&gt;Node13</title>
<path fill="none" stroke="midnightblue" d="M728.538,-175.45C675.013,-166.026 586.384,-150.42 528.907,-140.299"/>
<polygon fill="midnightblue" stroke="midnightblue" points="529.36,-136.826 518.905,-138.538 528.146,-143.719 529.36,-136.826"/>
</g>
<!-- Node9&#45;&gt;Node19 -->
<g id="edge47" class="edge"><title>Node9&#45;&gt;Node19</title>
<path fill="none" stroke="midnightblue" d="M804.542,-175.449C828.14,-168.27 861.02,-156.217 886.253,-139 907.381,-124.584 926.688,-102.052 938.447,-86.8025"/>
<polygon fill="midnightblue" stroke="midnightblue" points="941.261,-88.8834 944.455,-78.7814 935.659,-84.6868 941.261,-88.8834"/>
</g>
<!-- Node13&#45;&gt;Node3 -->
<g id="edge19" class="edge"><title>Node13&#45;&gt;Node3</title>
<path fill="none" stroke="midnightblue" d="M447.33,-120.475C422.1,-112.351 382.898,-98.8898 350.253,-84 326.177,-73.0184 322.138,-66.391 298.253,-55 272.135,-42.5438 241.555,-30.4606 219.113,-22.0364"/>
<polygon fill="midnightblue" stroke="midnightblue" points="220.318,-18.7505 209.725,-18.5475 217.879,-25.312 220.318,-18.7505"/>
</g>
<!-- Node13&#45;&gt;Node12 -->
<g id="edge20" class="edge"><title>Node13&#45;&gt;Node12</title>
<path fill="none" stroke="midnightblue" d="M474.025,-120.222C475.084,-106.485 476.328,-78.1946 471.253,-55 469.209,-45.6524 465.222,-35.8132 461.426,-27.7705"/>
<polygon fill="midnightblue" stroke="midnightblue" points="464.495,-26.083 456.881,-18.716 458.239,-29.2234 464.495,-26.083"/>
</g>
<!-- Node14 -->
<g id="node15" class="node"><title>Node14</title>
<polygon fill="white" stroke="#bfbfbf" points="351.081,-0.5 351.081,-18.5 405.426,-18.5 405.426,-0.5 351.081,-0.5"/>
<text text-anchor="middle" x="378.253" y="-6.5" font-family="Helvetica,sans-Serif" font-size="10.00">iostream</text>
</g>
<!-- Node13&#45;&gt;Node14 -->
<g id="edge15" class="edge"><title>Node13&#45;&gt;Node14</title>
<path fill="none" stroke="midnightblue" d="M459.964,-120.253C447.724,-112.162 429.638,-98.8964 417.253,-84 403.147,-67.0325 391.99,-44.1454 385.284,-28.4437"/>
<polygon fill="midnightblue" stroke="midnightblue" points="388.398,-26.812 381.372,-18.8824 381.92,-29.4631 388.398,-26.812"/>
</g>
<!-- Node15 -->
<g id="node16" class="node"><title>Node15</title>
<polygon fill="white" stroke="#bfbfbf" points="426.527,-60.5 426.527,-78.5 461.98,-78.5 461.98,-60.5 426.527,-60.5"/>
<text text-anchor="middle" x="444.253" y="-66.5" font-family="Helvetica,sans-Serif" font-size="10.00">map</text>
</g>
<!-- Node13&#45;&gt;Node15 -->
<g id="edge16" class="edge"><title>Node13&#45;&gt;Node15</title>
<path fill="none" stroke="midnightblue" d="M469.221,-120.435C465.027,-112.047 458.33,-98.6539 452.928,-87.8491"/>
<polygon fill="midnightblue" stroke="midnightblue" points="456.042,-86.2508 448.439,-78.8718 449.781,-89.3813 456.042,-86.2508"/>
</g>
<!-- Node16 -->
<g id="node17" class="node"><title>Node16</title>
<polygon fill="white" stroke="#bfbfbf" points="498.638,-0.5 498.638,-18.5 541.869,-18.5 541.869,-0.5 498.638,-0.5"/>
<text text-anchor="middle" x="520.253" y="-6.5" font-family="Helvetica,sans-Serif" font-size="10.00">vector</text>
</g>
<!-- Node13&#45;&gt;Node16 -->
<g id="edge17" class="edge"><title>Node13&#45;&gt;Node16</title>
<path fill="none" stroke="midnightblue" d="M476.484,-120.389C484.03,-101.443 502.957,-53.9251 513.277,-28.0151"/>
<polygon fill="midnightblue" stroke="midnightblue" points="516.551,-29.2527 517,-18.6674 510.048,-26.6624 516.551,-29.2527"/>
</g>
<!-- Node17 -->
<g id="node18" class="node"><title>Node17</title>
<polygon fill="white" stroke="#bfbfbf" points="243.283,-0.5 243.283,-18.5 333.224,-18.5 333.224,-0.5 243.283,-0.5"/>
<text text-anchor="middle" x="288.253" y="-6.5" font-family="Helvetica,sans-Serif" font-size="10.00">yarp/sig/Vector.h</text>
</g>
<!-- Node13&#45;&gt;Node17 -->
<g id="edge18" class="edge"><title>Node13&#45;&gt;Node17</title>
<path fill="none" stroke="midnightblue" d="M458.374,-120.494C442.517,-111.851 416.782,-97.5025 395.253,-84 363.846,-64.3018 328.621,-39.5702 307.453,-24.4075"/>
<polygon fill="midnightblue" stroke="midnightblue" points="309.455,-21.5363 299.294,-18.5376 305.367,-27.2187 309.455,-21.5363"/>
</g>
<!-- Node13&#45;&gt;Node18 -->
<g id="edge21" class="edge"><title>Node13&#45;&gt;Node18</title>
<path fill="none" stroke="midnightblue" d="M501.758,-120.435C532.894,-111.626 583.536,-97.298 622.607,-86.244"/>
<polygon fill="midnightblue" stroke="midnightblue" points="623.602,-89.5998 632.271,-83.5096 621.696,-82.8642 623.602,-89.5998"/>
</g>
<!-- Node13&#45;&gt;Node19 -->
<g id="edge22" class="edge"><title>Node13&#45;&gt;Node19</title>
<path fill="none" stroke="midnightblue" d="M539.077,-120.496C631.976,-109.2 800.21,-88.7443 889.989,-77.8278"/>
<polygon fill="midnightblue" stroke="midnightblue" points="890.506,-81.2907 900.011,-76.6092 889.661,-74.3419 890.506,-81.2907"/>
</g>
<!-- Node19&#45;&gt;Node1 -->
<g id="edge32" class="edge"><title>Node19&#45;&gt;Node1</title>
<path fill="none" stroke="midnightblue" d="M899.759,-64.8561C860.397,-62.0514 804.359,-58.137 755.253,-55 485.345,-37.7577 414.765,-42.3095 140.925,-19.0038"/>
<polygon fill="midnightblue" stroke="midnightblue" points="140.941,-15.4925 130.679,-18.1269 140.344,-22.467 140.941,-15.4925"/>
</g>
<!-- Node19&#45;&gt;Node3 -->
<g id="edge38" class="edge"><title>Node19&#45;&gt;Node3</title>
<path fill="none" stroke="midnightblue" d="M899.75,-65.0017C860.382,-62.2753 804.342,-58.3952 755.253,-55 526.978,-39.2115 466.289,-47.455 235.716,-19.0505"/>
<polygon fill="midnightblue" stroke="midnightblue" points="236.03,-15.5626 225.675,-17.8036 235.167,-22.5093 236.03,-15.5626"/>
</g>
<!-- Node19&#45;&gt;Node4 -->
<g id="edge39" class="edge"><title>Node19&#45;&gt;Node4</title>
<path fill="none" stroke="midnightblue" d="M1000.84,-65.4917C1052.09,-62.519 1133.66,-57.9941 1204.25,-55 1705.62,-33.7347 1835.14,-60.469 2338.58,-19.0482"/>
<polygon fill="midnightblue" stroke="midnightblue" points="2338.98,-22.5276 2348.66,-18.2146 2338.4,-15.5515 2338.98,-22.5276"/>
</g>
<!-- Node19&#45;&gt;Node5 -->
<g id="edge37" class="edge"><title>Node19&#45;&gt;Node5</title>
<path fill="none" stroke="midnightblue" d="M1000.86,-64.9226C1044.62,-61.9282 1109.58,-57.7202 1166.25,-55 1639.93,-32.2638 1763.34,-66.6382 2238.89,-18.9782"/>
<polygon fill="midnightblue" stroke="midnightblue" points="2239.51,-22.4326 2249.11,-17.9461 2238.81,-15.468 2239.51,-22.4326"/>
</g>
<!-- Node19&#45;&gt;Node10 -->
<g id="edge23" class="edge"><title>Node19&#45;&gt;Node10</title>
<path fill="none" stroke="midnightblue" d="M914.462,-60.4698C905.292,-58.5448 895.428,-56.5887 886.253,-55 772.339,-35.275 739.813,-40.7281 622.649,-19.0883"/>
<polygon fill="midnightblue" stroke="midnightblue" points="623.037,-15.6001 612.564,-17.1979 621.748,-22.4803 623.037,-15.6001"/>
</g>
<!-- Node19&#45;&gt;Node11 -->
<g id="edge44" class="edge"><title>Node19&#45;&gt;Node11</title>
<path fill="none" stroke="midnightblue" d="M982.96,-60.4762C992.945,-58.3312 1004,-56.2609 1014.25,-55 1443.13,-2.27483 1557.71,-55.3374 1992.67,-18.9382"/>
<polygon fill="midnightblue" stroke="midnightblue" points="1993.01,-22.4221 2002.68,-18.0897 1992.42,-15.4471 1993.01,-22.4221"/>
</g>
<!-- Node19&#45;&gt;Node12 -->
<g id="edge43" class="edge"><title>Node19&#45;&gt;Node12</title>
<path fill="none" stroke="midnightblue" d="M899.76,-63.8437C800.827,-54.5995 583.693,-33.683 490.782,-19.0462"/>
<polygon fill="midnightblue" stroke="midnightblue" points="491.303,-15.585 480.869,-17.4276 490.175,-22.4935 491.303,-15.585"/>
</g>
<!-- Node19&#45;&gt;Node14 -->
<g id="edge25" class="edge"><title>Node19&#45;&gt;Node14</title>
<path fill="none" stroke="midnightblue" d="M899.926,-64.7571C788.785,-56.3491 524.282,-35.5217 415.702,-18.9822"/>
<polygon fill="midnightblue" stroke="midnightblue" points="416.116,-15.5042 405.691,-17.3955 415.02,-22.4179 416.116,-15.5042"/>
</g>
<!-- Node19&#45;&gt;Node16 -->
<g id="edge27" class="edge"><title>Node19&#45;&gt;Node16</title>
<path fill="none" stroke="midnightblue" d="M899.808,-64.5905C825.669,-58.3302 682.847,-44.315 552.348,-18.9379"/>
<polygon fill="midnightblue" stroke="midnightblue" points="552.664,-15.4328 542.176,-16.9314 551.309,-22.3005 552.664,-15.4328"/>
</g>
<!-- Node19&#45;&gt;Node17 -->
<g id="edge41" class="edge"><title>Node19&#45;&gt;Node17</title>
<path fill="none" stroke="midnightblue" d="M899.852,-64.8862C777.722,-56.0528 467.502,-33.1368 343.323,-19.0183"/>
<polygon fill="midnightblue" stroke="midnightblue" points="343.638,-15.5314 333.3,-17.849 342.827,-22.4843 343.638,-15.5314"/>
</g>
<!-- Node20 -->
<g id="node21" class="node"><title>Node20</title>
<polygon fill="white" stroke="#bfbfbf" points="1190.64,-0.5 1190.64,-18.5 1233.87,-18.5 1233.87,-0.5 1190.64,-0.5"/>
<text text-anchor="middle" x="1212.25" y="-6.5" font-family="Helvetica,sans-Serif" font-size="10.00">cmath</text>
</g>
<!-- Node19&#45;&gt;Node20 -->
<g id="edge24" class="edge"><title>Node19&#45;&gt;Node20</title>
<path fill="none" stroke="midnightblue" d="M988.466,-60.4351C1043.49,-48.8064 1141.9,-27.9379 1180.63,-18.9766"/>
<polygon fill="midnightblue" stroke="midnightblue" points="1181.69,-22.32 1190.61,-16.6011 1180.08,-15.5099 1181.69,-22.32"/>
</g>
<!-- Node21 -->
<g id="node22" class="node"><title>Node21</title>
<polygon fill="white" stroke="#bfbfbf" points="1252.03,-0.5 1252.03,-18.5 1292.48,-18.5 1292.48,-0.5 1252.03,-0.5"/>
<text text-anchor="middle" x="1272.25" y="-6.5" font-family="Helvetica,sans-Serif" font-size="10.00">string</text>
</g>
<!-- Node19&#45;&gt;Node21 -->
<g id="edge26" class="edge"><title>Node19&#45;&gt;Node21</title>
<path fill="none" stroke="midnightblue" d="M986.741,-60.4615C995.718,-58.5781 1005.32,-56.6435 1014.25,-55 1112.41,-36.9439 1140.95,-41.2362 1241.76,-19.0943"/>
<polygon fill="midnightblue" stroke="midnightblue" points="1242.75,-22.4602 1251.74,-16.8674 1241.22,-15.628 1242.75,-22.4602"/>
</g>
<!-- Node22 -->
<g id="node23" class="node"><title>Node22</title>
<polygon fill="white" stroke="#bfbfbf" points="1310.47,-0.5 1310.47,-18.5 1362.03,-18.5 1362.03,-0.5 1310.47,-0.5"/>
<text text-anchor="middle" x="1336.25" y="-6.5" font-family="Helvetica,sans-Serif" font-size="10.00">sstream</text>
</g>
<!-- Node19&#45;&gt;Node22 -->
<g id="edge28" class="edge"><title>Node19&#45;&gt;Node22</title>
<path fill="none" stroke="midnightblue" d="M985.699,-60.4751C994.963,-58.5282 1004.96,-56.5605 1014.25,-55 1137.82,-34.2555 1173.04,-41.7946 1300.2,-18.9878"/>
<polygon fill="midnightblue" stroke="midnightblue" points="1301.12,-22.3782 1310.33,-17.1425 1299.86,-15.4916 1301.12,-22.3782"/>
</g>
<!-- Node23 -->
<g id="node24" class="node"><title>Node23</title>
<polygon fill="white" stroke="#bfbfbf" points="1380.31,-0.5 1380.31,-18.5 1496.19,-18.5 1496.19,-0.5 1380.31,-0.5"/>
<text text-anchor="middle" x="1438.25" y="-6.5" font-family="Helvetica,sans-Serif" font-size="10.00">yarp/os/BufferedPort.h</text>
</g>
<!-- Node19&#45;&gt;Node23 -->
<g id="edge29" class="edge"><title>Node19&#45;&gt;Node23</title>
<path fill="none" stroke="midnightblue" d="M985.005,-60.4609C994.456,-58.4688 1004.72,-56.4824 1014.25,-55 1168.6,-31.0099 1211.08,-36.782 1370.02,-19.1045"/>
<polygon fill="midnightblue" stroke="midnightblue" points="1370.61,-22.5599 1380.16,-17.9628 1369.83,-15.6038 1370.61,-22.5599"/>
</g>
<!-- Node24 -->
<g id="node25" class="node"><title>Node24</title>
<polygon fill="white" stroke="#bfbfbf" points="1514.51,-0.5 1514.51,-18.5 1599.99,-18.5 1599.99,-0.5 1514.51,-0.5"/>
<text text-anchor="middle" x="1557.25" y="-6.5" font-family="Helvetica,sans-Serif" font-size="10.00">yarp/os/Bottle.h</text>
</g>
<!-- Node19&#45;&gt;Node24 -->
<g id="edge30" class="edge"><title>Node19&#45;&gt;Node24</title>
<path fill="none" stroke="midnightblue" d="M983.982,-60.4974C993.704,-58.4324 1004.36,-56.3998 1014.25,-55 1227.62,-24.8139 1286.19,-44.0708 1504.28,-18.9943"/>
<polygon fill="midnightblue" stroke="midnightblue" points="1504.92,-22.4431 1514.45,-17.8064 1504.11,-15.4904 1504.92,-22.4431"/>
</g>
<!-- Node25 -->
<g id="node26" class="node"><title>Node25</title>
<polygon fill="white" stroke="#bfbfbf" points="1617.89,-0.5 1617.89,-18.5 1730.61,-18.5 1730.61,-0.5 1617.89,-0.5"/>
<text text-anchor="middle" x="1674.25" y="-6.5" font-family="Helvetica,sans-Serif" font-size="10.00">yarp/os/RateThread.h</text>
</g>
<!-- Node19&#45;&gt;Node25 -->
<g id="edge31" class="edge"><title>Node19&#45;&gt;Node25</title>
<path fill="none" stroke="midnightblue" d="M983.639,-60.4863C993.451,-58.3954 1004.24,-56.3518 1014.25,-55 1273.47,-20.0136 1343.75,-43.5756 1607.3,-19.1175"/>
<polygon fill="midnightblue" stroke="midnightblue" points="1607.93,-22.5732 1617.56,-18.15 1607.28,-15.6041 1607.93,-22.5732"/>
</g>
<!-- Node26 -->
<g id="node27" class="node"><title>Node26</title>
<polygon fill="white" stroke="#bfbfbf" points="1749,-0.5 1749,-18.5 1859.5,-18.5 1859.5,-0.5 1749,-0.5"/>
<text text-anchor="middle" x="1804.25" y="-6.5" font-family="Helvetica,sans-Serif" font-size="10.00">yarp/os/PortReader.h</text>
</g>
<!-- Node19&#45;&gt;Node26 -->
<g id="edge33" class="edge"><title>Node19&#45;&gt;Node26</title>
<path fill="none" stroke="midnightblue" d="M983.3,-60.4877C993.199,-58.3703 1004.12,-56.3122 1014.25,-55 1330.92,-14.0015 1416.19,-47.2429 1738.86,-18.9367"/>
<polygon fill="midnightblue" stroke="midnightblue" points="1739.32,-22.4101 1748.97,-18.037 1738.7,-15.4377 1739.32,-22.4101"/>
</g>
<!-- Node19&#45;&gt;Node27 -->
<g id="edge34" class="edge"><title>Node19&#45;&gt;Node27</title>
<path fill="none" stroke="midnightblue" d="M1000.74,-62.8801C1027.34,-60.1094 1060.53,-56.9519 1090.25,-55 1543.1,-25.2651 1661.08,-58.112 2117.23,-18.9781"/>
<polygon fill="midnightblue" stroke="midnightblue" points="2117.72,-22.4488 2127.38,-18.1001 2117.12,-15.4748 2117.72,-22.4488"/>
</g>
<!-- Node28 -->
<g id="node29" class="node"><title>Node28</title>
<polygon fill="white" stroke="#bfbfbf" points="1877.95,-0.5 1877.95,-18.5 1984.55,-18.5 1984.55,-0.5 1877.95,-0.5"/>
<text text-anchor="middle" x="1931.25" y="-6.5" font-family="Helvetica,sans-Serif" font-size="10.00">yarp/os/RpcServer.h</text>
</g>
<!-- Node19&#45;&gt;Node28 -->
<g id="edge35" class="edge"><title>Node19&#45;&gt;Node28</title>
<path fill="none" stroke="midnightblue" d="M983.294,-60.4398C993.193,-58.3211 1004.11,-56.2743 1014.25,-55 1387.87,-8.04961 1488.08,-51.6525 1867.52,-18.9578"/>
<polygon fill="midnightblue" stroke="midnightblue" points="1868.02,-22.4274 1877.67,-18.07 1867.41,-15.454 1868.02,-22.4274"/>
</g>
<!-- Node29 -->
<g id="node30" class="node"><title>Node29</title>
<polygon fill="white" stroke="#bfbfbf" points="629.877,-0.5 629.877,-18.5 772.63,-18.5 772.63,-0.5 629.877,-0.5"/>
<text text-anchor="middle" x="701.253" y="-6.5" font-family="Helvetica,sans-Serif" font-size="10.00">yarp/os/ConnectionReader.h</text>
</g>
<!-- Node19&#45;&gt;Node29 -->
<g id="edge36" class="edge"><title>Node19&#45;&gt;Node29</title>
<path fill="none" stroke="midnightblue" d="M915.892,-60.4962C871.552,-50.1678 794.332,-32.1811 745.605,-20.8308"/>
<polygon fill="midnightblue" stroke="midnightblue" points="746.195,-17.3746 735.661,-18.5147 744.607,-24.1921 746.195,-17.3746"/>
</g>
<!-- Node30 -->
<g id="node31" class="node"><title>Node30</title>
<polygon fill="white" stroke="#bfbfbf" points="790.77,-0.5 790.77,-18.5 887.737,-18.5 887.737,-0.5 790.77,-0.5"/>
<text text-anchor="middle" x="839.253" y="-6.5" font-family="Helvetica,sans-Serif" font-size="10.00">yarp/os/Property.h</text>
</g>
<!-- Node19&#45;&gt;Node30 -->
<g id="edge40" class="edge"><title>Node19&#45;&gt;Node30</title>
<path fill="none" stroke="midnightblue" d="M934.819,-60.4353C916.45,-50.8369 885.542,-34.6868 863.862,-23.3586"/>
<polygon fill="midnightblue" stroke="midnightblue" points="865.398,-20.2123 854.914,-18.6831 862.156,-26.4164 865.398,-20.2123"/>
</g>
<!-- Node31 -->
<g id="node32" class="node"><title>Node31</title>
<polygon fill="white" stroke="#bfbfbf" points="905.576,-0.5 905.576,-18.5 994.931,-18.5 994.931,-0.5 905.576,-0.5"/>
<text text-anchor="middle" x="950.253" y="-6.5" font-family="Helvetica,sans-Serif" font-size="10.00">yarp/sig/Matrix.h</text>
</g>
<!-- Node19&#45;&gt;Node31 -->
<g id="edge42" class="edge"><title>Node19&#45;&gt;Node31</title>
<path fill="none" stroke="midnightblue" d="M950.253,-60.4353C950.253,-52.3891 950.253,-39.7388 950.253,-29.1846"/>
<polygon fill="midnightblue" stroke="midnightblue" points="953.754,-28.8717 950.253,-18.8718 946.754,-28.8718 953.754,-28.8717"/>
</g>
<!-- Node32 -->
<g id="node33" class="node"><title>Node32</title>
<polygon fill="white" stroke="#bfbfbf" points="1012.62,-0.5 1012.62,-18.5 1085.88,-18.5 1085.88,-0.5 1012.62,-0.5"/>
<text text-anchor="middle" x="1049.25" y="-6.5" font-family="Helvetica,sans-Serif" font-size="10.00">Eigen/Dense</text>
</g>
<!-- Node19&#45;&gt;Node32 -->
<g id="edge45" class="edge"><title>Node19&#45;&gt;Node32</title>
<path fill="none" stroke="midnightblue" d="M964.019,-60.4353C980.182,-50.9661 1007.23,-35.1201 1026.52,-23.8184"/>
<polygon fill="midnightblue" stroke="midnightblue" points="1028.43,-26.758 1035.29,-18.6831 1024.89,-20.7182 1028.43,-26.758"/>
</g>
<!-- Node33 -->
<g id="node34" class="node"><title>Node33</title>
<polygon fill="white" stroke="#bfbfbf" points="1103.85,-0.5 1103.85,-18.5 1172.66,-18.5 1172.66,-0.5 1103.85,-0.5"/>
<text text-anchor="middle" x="1138.25" y="-6.5" font-family="Helvetica,sans-Serif" font-size="10.00">Eigen/Lgsm</text>
</g>
<!-- Node19&#45;&gt;Node33 -->
<g id="edge46" class="edge"><title>Node19&#45;&gt;Node33</title>
<path fill="none" stroke="midnightblue" d="M976.394,-60.4353C1009.13,-50.335 1065.39,-32.9798 1102.2,-21.6227"/>
<polygon fill="midnightblue" stroke="midnightblue" points="1103.51,-24.882 1112.03,-18.5894 1101.45,-18.1931 1103.51,-24.882"/>
</g>
</g>
</svg>
