<?xml version="1.0" encoding="UTF-8" standalone="no"?>
<!DOCTYPE svg PUBLIC "-//W3C//DTD SVG 1.1//EN"
 "http://www.w3.org/Graphics/SVG/1.1/DTD/svg11.dtd">
<!-- Generated by graphviz version 2.38.0 (20140413.2041)
 -->
<!-- Title: /Users/jorhabibeljaik/Code/codyco&#45;superbuild/main/ocra&#45;wbi&#45;plugins/ocra&#45;icub&#45;server/include/ocra&#45;icub&#45;server/Thread.h Pages: 1 -->
<svg width="2604pt" height="372pt"
 viewBox="0.00 0.00 2604.45 372.00" xmlns="http://www.w3.org/2000/svg" xmlns:xlink="http://www.w3.org/1999/xlink">
<g id="graph0" class="graph" transform="scale(1 1) rotate(0) translate(4 368)">
<title>/Users/jorhabibeljaik/Code/codyco&#45;superbuild/main/ocra&#45;wbi&#45;plugins/ocra&#45;icub&#45;server/include/ocra&#45;icub&#45;server/Thread.h</title>
<polygon fill="white" stroke="none" points="-4,4 -4,-368 2600.45,-368 2600.45,4 -4,4"/>
<!-- Node0 -->
<g id="node1" class="node"><title>Node0</title>
<polygon fill="#bfbfbf" stroke="black" points="1846.65,-305.5 1846.65,-363.5 1980.48,-363.5 1980.48,-305.5 1846.65,-305.5"/>
<text text-anchor="start" x="1854.65" y="-351.5" font-family="Helvetica,sans-Serif" font-size="10.00">/Users/jorhabibeljaik</text>
<text text-anchor="start" x="1854.65" y="-341.5" font-family="Helvetica,sans-Serif" font-size="10.00">/Code/codyco&#45;superbuild</text>
<text text-anchor="start" x="1854.65" y="-331.5" font-family="Helvetica,sans-Serif" font-size="10.00">/main/ocra&#45;wbi&#45;plugins</text>
<text text-anchor="start" x="1854.65" y="-321.5" font-family="Helvetica,sans-Serif" font-size="10.00">/ocra&#45;icub&#45;server/include</text>
<text text-anchor="middle" x="1913.56" y="-311.5" font-family="Helvetica,sans-Serif" font-size="10.00">/ocra&#45;icub&#45;server/Thread.h</text>
</g>
<!-- Node1 -->
<g id="node2" class="node"><title>Node1</title>
<polygon fill="white" stroke="#bfbfbf" points="75.2539,-55.5 75.2539,-83.5 211.874,-83.5 211.874,-55.5 75.2539,-55.5"/>
<text text-anchor="start" x="83.2539" y="-71.5" font-family="Helvetica,sans-Serif" font-size="10.00">yarpWholeBodyInterface</text>
<text text-anchor="middle" x="143.564" y="-61.5" font-family="Helvetica,sans-Serif" font-size="10.00">/yarpWholeBodyInterface.h</text>
</g>
<!-- Node0&#45;&gt;Node1 -->
<g id="edge1" class="edge"><title>Node0&#45;&gt;Node1</title>
<path fill="none" stroke="midnightblue" d="M1846.55,-332.591C1643.04,-328.713 1015.06,-308.482 507.564,-204 383.087,-178.373 244.223,-117.93 179.903,-87.9665"/>
<polygon fill="midnightblue" stroke="midnightblue" points="181.139,-84.6802 170.599,-83.6018 178.166,-91.0176 181.139,-84.6802"/>
</g>
<!-- Node2 -->
<g id="node3" class="node"><title>Node2</title>
<polygon fill="white" stroke="#bfbfbf" points="0,-0.5 0,-18.5 57.1279,-18.5 57.1279,-0.5 0,-0.5"/>
<text text-anchor="middle" x="28.564" y="-6.5" font-family="Helvetica,sans-Serif" font-size="10.00">wbi/wbi.h</text>
</g>
<!-- Node0&#45;&gt;Node2 -->
<g id="edge2" class="edge"><title>Node0&#45;&gt;Node2</title>
<path fill="none" stroke="midnightblue" d="M1846.64,-332.051C1509.1,-324.312 9.56396,-284.637 9.56396,-190.5 9.56396,-190.5 9.56396,-190.5 9.56396,-128.5 9.56396,-92.6577 18.2143,-51.4612 23.8414,-28.4542"/>
<polygon fill="midnightblue" stroke="midnightblue" points="27.2433,-29.2778 26.3098,-18.7241 20.4582,-27.5564 27.2433,-29.2778"/>
</g>
<!-- Node3 -->
<g id="node4" class="node"><title>Node3</title>
<g id="a_node4"><a xlink:href="IcubControllerServer_8h.html" target="_top" xlink:title="ocra&#45;icub&#45;server/IcubController\lServer.h">
<polygon fill="white" stroke="black" points="1360.93,-240.5 1360.93,-268.5 1514.2,-268.5 1514.2,-240.5 1360.93,-240.5"/>
<text text-anchor="start" x="1368.93" y="-256.5" font-family="Helvetica,sans-Serif" font-size="10.00">ocra&#45;icub&#45;server/IcubController</text>
<text text-anchor="middle" x="1437.56" y="-246.5" font-family="Helvetica,sans-Serif" font-size="10.00">Server.h</text>
</a>
</g>
</g>
<!-- Node0&#45;&gt;Node3 -->
<g id="edge3" class="edge"><title>Node0&#45;&gt;Node3</title>
<path fill="none" stroke="midnightblue" d="M1846.63,-322.531C1762.25,-308.705 1617.06,-284.914 1524.28,-269.709"/>
<polygon fill="midnightblue" stroke="midnightblue" points="1524.78,-266.245 1514.35,-268.082 1523.65,-273.153 1524.78,-266.245"/>
</g>
<!-- Node15 -->
<g id="node16" class="node"><title>Node15</title>
<g id="a_node16"><a xlink:href="Utilities_8h.html" target="_top" xlink:title="Some useful tools for the ocra&#45;icub lib. ">
<polygon fill="white" stroke="black" points="1152.33,-60.5 1152.33,-78.5 1252.8,-78.5 1252.8,-60.5 1152.33,-60.5"/>
<text text-anchor="middle" x="1202.56" y="-66.5" font-family="Helvetica,sans-Serif" font-size="10.00">ocra&#45;icub/Utilities.h</text>
</a>
</g>
</g>
<!-- Node0&#45;&gt;Node15 -->
<g id="edge49" class="edge"><title>Node0&#45;&gt;Node15</title>
<path fill="none" stroke="midnightblue" d="M1913.75,-305.26C1912.34,-269.302 1904.13,-207.904 1866.56,-175 1777.19,-96.7232 1409.94,-76.8564 1263.37,-72.0034"/>
<polygon fill="midnightblue" stroke="midnightblue" points="1263.31,-68.4998 1253.21,-71.6793 1263.09,-75.4963 1263.31,-68.4998"/>
</g>
<!-- Node17 -->
<g id="node18" class="node"><title>Node17</title>
<polygon fill="white" stroke="#bfbfbf" points="1997.34,-0.5 1997.34,-18.5 2037.79,-18.5 2037.79,-0.5 1997.34,-0.5"/>
<text text-anchor="middle" x="2017.56" y="-6.5" font-family="Helvetica,sans-Serif" font-size="10.00">string</text>
</g>
<!-- Node0&#45;&gt;Node17 -->
<g id="edge56" class="edge"><title>Node0&#45;&gt;Node17</title>
<path fill="none" stroke="midnightblue" d="M1933.54,-305.425C1951.33,-277.622 1974.56,-233.145 1974.56,-190.5 1974.56,-190.5 1974.56,-190.5 1974.56,-128.5 1974.56,-90.6838 1994.3,-49.9466 2007.03,-27.6037"/>
<polygon fill="midnightblue" stroke="midnightblue" points="2010.21,-29.0981 2012.29,-18.709 2004.19,-25.5349 2010.21,-29.0981"/>
</g>
<!-- Node18 -->
<g id="node19" class="node"><title>Node18</title>
<polygon fill="white" stroke="#bfbfbf" points="2055.78,-0.5 2055.78,-18.5 2107.34,-18.5 2107.34,-0.5 2055.78,-0.5"/>
<text text-anchor="middle" x="2081.56" y="-6.5" font-family="Helvetica,sans-Serif" font-size="10.00">sstream</text>
</g>
<!-- Node0&#45;&gt;Node18 -->
<g id="edge55" class="edge"><title>Node0&#45;&gt;Node18</title>
<path fill="none" stroke="midnightblue" d="M1954.32,-305.351C1986.34,-279.586 2025.56,-238.275 2025.56,-190.5 2025.56,-190.5 2025.56,-190.5 2025.56,-128.5 2025.56,-88.8391 2051.7,-48.2919 2068.27,-26.5823"/>
<polygon fill="midnightblue" stroke="midnightblue" points="2071.01,-28.7483 2074.47,-18.7334 2065.52,-24.4065 2071.01,-28.7483"/>
</g>
<!-- Node20 -->
<g id="node21" class="node"><title>Node20</title>
<polygon fill="white" stroke="#bfbfbf" points="2125.82,-0.5 2125.82,-18.5 2211.31,-18.5 2211.31,-0.5 2125.82,-0.5"/>
<text text-anchor="middle" x="2168.56" y="-6.5" font-family="Helvetica,sans-Serif" font-size="10.00">yarp/os/Bottle.h</text>
</g>
<!-- Node0&#45;&gt;Node20 -->
<g id="edge51" class="edge"><title>Node0&#45;&gt;Node20</title>
<path fill="none" stroke="midnightblue" d="M1978.33,-305.328C2021.58,-281.664 2070.56,-243.222 2070.56,-190.5 2070.56,-190.5 2070.56,-190.5 2070.56,-128.5 2070.56,-81.6428 2116.86,-43.4523 2145.81,-24.1512"/>
<polygon fill="midnightblue" stroke="midnightblue" points="2148,-26.9082 2154.52,-18.5614 2144.22,-21.0171 2148,-26.9082"/>
</g>
<!-- Node25 -->
<g id="node26" class="node"><title>Node25</title>
<polygon fill="white" stroke="#bfbfbf" points="2229.26,-0.5 2229.26,-18.5 2335.86,-18.5 2335.86,-0.5 2229.26,-0.5"/>
<text text-anchor="middle" x="2282.56" y="-6.5" font-family="Helvetica,sans-Serif" font-size="10.00">yarp/os/RpcServer.h</text>
</g>
<!-- Node0&#45;&gt;Node25 -->
<g id="edge52" class="edge"><title>Node0&#45;&gt;Node25</title>
<path fill="none" stroke="midnightblue" d="M1980.68,-324.153C2054.12,-309.7 2161.56,-274.245 2161.56,-190.5 2161.56,-190.5 2161.56,-190.5 2161.56,-128.5 2161.56,-77.0535 2218.32,-40.7266 2254.09,-22.941"/>
<polygon fill="midnightblue" stroke="midnightblue" points="2255.61,-26.0931 2263.12,-18.6196 2252.59,-19.7788 2255.61,-26.0931"/>
</g>
<!-- Node26 -->
<g id="node27" class="node"><title>Node26</title>
<polygon fill="white" stroke="#bfbfbf" points="2354.19,-0.5 2354.19,-18.5 2496.94,-18.5 2496.94,-0.5 2354.19,-0.5"/>
<text text-anchor="middle" x="2425.56" y="-6.5" font-family="Helvetica,sans-Serif" font-size="10.00">yarp/os/ConnectionReader.h</text>
</g>
<!-- Node0&#45;&gt;Node26 -->
<g id="edge53" class="edge"><title>Node0&#45;&gt;Node26</title>
<path fill="none" stroke="midnightblue" d="M1980.5,-331.476C2072.17,-324.727 2225.56,-297.455 2225.56,-190.5 2225.56,-190.5 2225.56,-190.5 2225.56,-128.5 2225.56,-64.0934 2303.45,-34.1188 2362.02,-20.6842"/>
<polygon fill="midnightblue" stroke="midnightblue" points="2362.94,-24.0646 2371.97,-18.5151 2361.45,-17.2252 2362.94,-24.0646"/>
</g>
<!-- Node27 -->
<g id="node28" class="node"><title>Node27</title>
<polygon fill="white" stroke="#bfbfbf" points="2514.68,-0.5 2514.68,-18.5 2596.45,-18.5 2596.45,-0.5 2514.68,-0.5"/>
<text text-anchor="middle" x="2555.56" y="-6.5" font-family="Helvetica,sans-Serif" font-size="10.00">yarp/os/Time.h</text>
</g>
<!-- Node0&#45;&gt;Node27 -->
<g id="edge54" class="edge"><title>Node0&#45;&gt;Node27</title>
<path fill="none" stroke="midnightblue" d="M1980.62,-332.487C2143.85,-328.214 2548.56,-305.976 2548.56,-190.5 2548.56,-190.5 2548.56,-190.5 2548.56,-128.5 2548.56,-93.0368 2551.75,-51.6836 2553.83,-28.5508"/>
<polygon fill="midnightblue" stroke="midnightblue" points="2557.32,-28.7837 2554.76,-18.5026 2550.35,-28.1355 2557.32,-28.7837"/>
</g>
<!-- Node33 -->
<g id="node34" class="node"><title>Node33</title>
<polygon fill="white" stroke="#bfbfbf" points="1569.46,-175.5 1569.46,-203.5 1703.67,-203.5 1703.67,-175.5 1569.46,-175.5"/>
<text text-anchor="start" x="1577.46" y="-191.5" font-family="Helvetica,sans-Serif" font-size="10.00">iDynTree/Estimation</text>
<text text-anchor="middle" x="1636.56" y="-181.5" font-family="Helvetica,sans-Serif" font-size="10.00">/SimpleLeggedOdometry.h</text>
</g>
<!-- Node0&#45;&gt;Node33 -->
<g id="edge57" class="edge"><title>Node0&#45;&gt;Node33</title>
<path fill="none" stroke="midnightblue" d="M1859.17,-305.418C1803.33,-276.594 1718.15,-232.618 1670.99,-208.273"/>
<polygon fill="midnightblue" stroke="midnightblue" points="1672.58,-205.154 1662.09,-203.676 1669.37,-211.374 1672.58,-205.154"/>
</g>
<!-- Node34 -->
<g id="node35" class="node"><title>Node34</title>
<polygon fill="white" stroke="#bfbfbf" points="1739.43,-180.5 1739.43,-198.5 1857.7,-198.5 1857.7,-180.5 1739.43,-180.5"/>
<text text-anchor="middle" x="1798.56" y="-186.5" font-family="Helvetica,sans-Serif" font-size="10.00">ocra/util/ErrorsHelper.h</text>
</g>
<!-- Node0&#45;&gt;Node34 -->
<g id="edge50" class="edge"><title>Node0&#45;&gt;Node34</title>
<path fill="none" stroke="midnightblue" d="M1890.84,-305.248C1867.16,-275.8 1830.87,-230.676 1811.62,-206.732"/>
<polygon fill="midnightblue" stroke="midnightblue" points="1814.13,-204.269 1805.13,-198.669 1808.67,-208.656 1814.13,-204.269"/>
</g>
<!-- Node3&#45;&gt;Node2 -->
<g id="edge4" class="edge"><title>Node3&#45;&gt;Node2</title>
<path fill="none" stroke="midnightblue" d="M1360.67,-251.512C1168.52,-246.205 671.092,-230.294 507.564,-204 307.013,-171.753 224.554,-211.67 66.564,-84 48.9667,-69.7797 38.6388,-45.2363 33.2963,-28.4547"/>
<polygon fill="midnightblue" stroke="midnightblue" points="36.6245,-27.3646 30.4792,-18.734 29.9012,-29.3131 36.6245,-27.3646"/>
</g>
<!-- Node4 -->
<g id="node5" class="node"><title>Node4</title>
<polygon fill="white" stroke="#bfbfbf" points="1360.37,-180.5 1360.37,-198.5 1514.76,-198.5 1514.76,-180.5 1360.37,-180.5"/>
<text text-anchor="middle" x="1437.56" y="-186.5" font-family="Helvetica,sans-Serif" font-size="10.00">ocra&#45;recipes/ControllerServer.h</text>
</g>
<!-- Node3&#45;&gt;Node4 -->
<g id="edge5" class="edge"><title>Node3&#45;&gt;Node4</title>
<path fill="none" stroke="midnightblue" d="M1437.56,-240.446C1437.56,-231.334 1437.56,-219.041 1437.56,-208.931"/>
<polygon fill="midnightblue" stroke="midnightblue" points="1441.06,-208.73 1437.56,-198.73 1434.06,-208.73 1441.06,-208.73"/>
</g>
<!-- Node5 -->
<g id="node6" class="node"><title>Node5</title>
<polygon fill="white" stroke="#bfbfbf" points="74.9336,-0.5 74.9336,-18.5 148.194,-18.5 148.194,-0.5 74.9336,-0.5"/>
<text text-anchor="middle" x="111.564" y="-6.5" font-family="Helvetica,sans-Serif" font-size="10.00">Eigen/Dense</text>
</g>
<!-- Node3&#45;&gt;Node5 -->
<g id="edge6" class="edge"><title>Node3&#45;&gt;Node5</title>
<path fill="none" stroke="midnightblue" d="M1360.87,-250.013C1145.49,-239.496 538.722,-204.702 351.564,-139 286.305,-116.091 281.947,-86.8703 220.564,-55 195.709,-42.095 166.235,-30.2566 144.207,-22.0398"/>
<polygon fill="midnightblue" stroke="midnightblue" points="145.247,-18.6931 134.654,-18.5286 142.833,-25.2635 145.247,-18.6931"/>
</g>
<!-- Node6 -->
<g id="node7" class="node"><title>Node6</title>
<g id="a_node7"><a xlink:href="OcraWbiModel_8h.html" target="_top" xlink:title="Implementation of ocra::Model using wholeBodyInterface. ">
<polygon fill="white" stroke="black" points="1135.38,-180.5 1135.38,-198.5 1269.75,-198.5 1269.75,-180.5 1135.38,-180.5"/>
<text text-anchor="middle" x="1202.56" y="-186.5" font-family="Helvetica,sans-Serif" font-size="10.00">ocra&#45;icub/OcraWbiModel.h</text>
</a>
</g>
</g>
<!-- Node3&#45;&gt;Node6 -->
<g id="edge7" class="edge"><title>Node3&#45;&gt;Node6</title>
<path fill="none" stroke="midnightblue" d="M1388.87,-240.446C1345.49,-228.817 1282.8,-212.01 1242.36,-201.169"/>
<polygon fill="midnightblue" stroke="midnightblue" points="1243.15,-197.757 1232.58,-198.548 1241.34,-204.518 1243.15,-197.757"/>
</g>
<!-- Node3&#45;&gt;Node33 -->
<g id="edge47" class="edge"><title>Node3&#45;&gt;Node33</title>
<path fill="none" stroke="midnightblue" d="M1478.8,-240.446C1509.75,-230.648 1552.31,-217.172 1585.43,-206.687"/>
<polygon fill="midnightblue" stroke="midnightblue" points="1586.91,-209.892 1595.38,-203.537 1584.79,-203.218 1586.91,-209.892"/>
</g>
<!-- Node3&#45;&gt;Node34 -->
<g id="edge48" class="edge"><title>Node3&#45;&gt;Node34</title>
<path fill="none" stroke="midnightblue" d="M1512.36,-240.446C1580.93,-228.48 1680.92,-211.03 1742.75,-200.241"/>
<polygon fill="midnightblue" stroke="midnightblue" points="1743.46,-203.67 1752.71,-198.503 1742.25,-196.774 1743.46,-203.67"/>
</g>
<!-- Node6&#45;&gt;Node2 -->
<g id="edge10" class="edge"><title>Node6&#45;&gt;Node2</title>
<path fill="none" stroke="midnightblue" d="M1135.08,-188.961C960.359,-189.459 496.713,-186.159 351.564,-139 285.785,-117.629 284.296,-81.8676 220.564,-55 218.774,-54.2453 122.811,-32.1463 67.2513,-19.3807"/>
<polygon fill="midnightblue" stroke="midnightblue" points="67.9089,-15.9407 57.3791,-17.1129 66.3417,-22.763 67.9089,-15.9407"/>
</g>
<!-- Node7 -->
<g id="node8" class="node"><title>Node7</title>
<polygon fill="white" stroke="#bfbfbf" points="1802.51,-0.5 1802.51,-18.5 1854.62,-18.5 1854.62,-0.5 1802.51,-0.5"/>
<text text-anchor="middle" x="1828.56" y="-6.5" font-family="Helvetica,sans-Serif" font-size="10.00">memory</text>
</g>
<!-- Node6&#45;&gt;Node7 -->
<g id="edge8" class="edge"><title>Node6&#45;&gt;Node7</title>
<path fill="none" stroke="midnightblue" d="M1221.1,-180.45C1274.67,-157.488 1434.75,-91.0084 1573.56,-55 1666.38,-30.9242 1694.65,-38.1869 1792.25,-19.1154"/>
<polygon fill="midnightblue" stroke="midnightblue" points="1793.12,-22.5118 1802.24,-17.1204 1791.75,-15.6474 1793.12,-22.5118"/>
</g>
<!-- Node8 -->
<g id="node9" class="node"><title>Node8</title>
<polygon fill="white" stroke="#bfbfbf" points="1872.26,-0.5 1872.26,-18.5 1978.86,-18.5 1978.86,-0.5 1872.26,-0.5"/>
<text text-anchor="middle" x="1925.56" y="-6.5" font-family="Helvetica,sans-Serif" font-size="10.00">ocra/control/Model.h</text>
</g>
<!-- Node6&#45;&gt;Node8 -->
<g id="edge9" class="edge"><title>Node6&#45;&gt;Node8</title>
<path fill="none" stroke="midnightblue" d="M1235.51,-180.389C1353.03,-151.456 1751.66,-53.315 1883.12,-20.9497"/>
<polygon fill="midnightblue" stroke="midnightblue" points="1883.97,-24.3456 1892.84,-18.5565 1882.29,-17.5486 1883.97,-24.3456"/>
</g>
<!-- Node9 -->
<g id="node10" class="node"><title>Node9</title>
<polygon fill="white" stroke="#bfbfbf" points="166.266,-0.5 166.266,-18.5 242.862,-18.5 242.862,-0.5 166.266,-0.5"/>
<text text-anchor="middle" x="204.564" y="-6.5" font-family="Helvetica,sans-Serif" font-size="10.00">yarp/os/Log.h</text>
</g>
<!-- Node6&#45;&gt;Node9 -->
<g id="edge11" class="edge"><title>Node6&#45;&gt;Node9</title>
<path fill="none" stroke="midnightblue" d="M1135.35,-186.955C952.281,-182.392 453.892,-167.478 385.564,-139 333.848,-117.445 337.773,-86.6839 291.564,-55 273.029,-42.2911 250.381,-30.8194 232.839,-22.7075"/>
<polygon fill="midnightblue" stroke="midnightblue" points="234.231,-19.4958 223.678,-18.56 231.344,-25.8728 234.231,-19.4958"/>
</g>
<!-- Node10 -->
<g id="node11" class="node"><title>Node10</title>
<g id="a_node11"><a xlink:href="OcraWbiConversions_8h.html" target="_top" xlink:title="A utility class full of static conversion functions. ">
<polygon fill="white" stroke="black" points="394.205,-120.5 394.205,-138.5 556.923,-138.5 556.923,-120.5 394.205,-120.5"/>
<text text-anchor="middle" x="475.564" y="-126.5" font-family="Helvetica,sans-Serif" font-size="10.00">ocra&#45;icub/OcraWbiConversions.h</text>
</a>
</g>
</g>
<!-- Node6&#45;&gt;Node10 -->
<g id="edge12" class="edge"><title>Node6&#45;&gt;Node10</title>
<path fill="none" stroke="midnightblue" d="M1135.15,-183.122C1004.13,-172.669 715.039,-149.605 566.934,-137.789"/>
<polygon fill="midnightblue" stroke="midnightblue" points="567.198,-134.3 556.951,-136.993 566.641,-141.277 567.198,-134.3"/>
</g>
<!-- Node6&#45;&gt;Node15 -->
<g id="edge46" class="edge"><title>Node6&#45;&gt;Node15</title>
<path fill="none" stroke="midnightblue" d="M1202.56,-180.389C1202.56,-161.611 1202.56,-114.768 1202.56,-88.7111"/>
<polygon fill="midnightblue" stroke="midnightblue" points="1206.06,-88.6673 1202.56,-78.6674 1199.06,-88.6674 1206.06,-88.6673"/>
</g>
<!-- Node10&#45;&gt;Node1 -->
<g id="edge19" class="edge"><title>Node10&#45;&gt;Node1</title>
<path fill="none" stroke="midnightblue" d="M429.749,-120.496C376.224,-111.145 286.766,-95.5173 222.098,-84.2199"/>
<polygon fill="midnightblue" stroke="midnightblue" points="222.395,-80.7187 211.942,-82.4455 221.19,-87.6143 222.395,-80.7187"/>
</g>
<!-- Node10&#45;&gt;Node2 -->
<g id="edge18" class="edge"><title>Node10&#45;&gt;Node2</title>
<path fill="none" stroke="midnightblue" d="M454.41,-120.466C415.252,-105.827 328.611,-74.5197 253.564,-55 174.285,-34.3797 150.559,-36.342 67.1415,-19.2559"/>
<polygon fill="midnightblue" stroke="midnightblue" points="67.7276,-15.8029 57.2243,-17.1931 66.302,-22.6563 67.7276,-15.8029"/>
</g>
<!-- Node10&#45;&gt;Node9 -->
<g id="edge17" class="edge"><title>Node10&#45;&gt;Node9</title>
<path fill="none" stroke="midnightblue" d="M462.184,-120.465C447.931,-111.798 424.816,-97.4289 405.564,-84 388.139,-71.8456 386.608,-64.4163 367.564,-55 347.02,-44.842 290.827,-30.5053 250.158,-20.8757"/>
<polygon fill="midnightblue" stroke="midnightblue" points="250.719,-17.4124 240.184,-18.5343 249.119,-24.2271 250.719,-17.4124"/>
</g>
<!-- Node11 -->
<g id="node12" class="node"><title>Node11</title>
<polygon fill="white" stroke="#bfbfbf" points="430.392,-0.5 430.392,-18.5 484.736,-18.5 484.736,-0.5 430.392,-0.5"/>
<text text-anchor="middle" x="457.564" y="-6.5" font-family="Helvetica,sans-Serif" font-size="10.00">iostream</text>
</g>
<!-- Node10&#45;&gt;Node11 -->
<g id="edge13" class="edge"><title>Node10&#45;&gt;Node11</title>
<path fill="none" stroke="midnightblue" d="M494.272,-120.429C508.481,-113.174 526.993,-101.029 535.564,-84 541.359,-72.4873 542.037,-66.1455 535.564,-55 526.616,-39.593 510.113,-29.0736 494.583,-22.1484"/>
<polygon fill="midnightblue" stroke="midnightblue" points="495.697,-18.823 485.116,-18.2894 493.055,-25.3052 495.697,-18.823"/>
</g>
<!-- Node12 -->
<g id="node13" class="node"><title>Node12</title>
<polygon fill="white" stroke="#bfbfbf" points="457.837,-60.5 457.837,-78.5 493.291,-78.5 493.291,-60.5 457.837,-60.5"/>
<text text-anchor="middle" x="475.564" y="-66.5" font-family="Helvetica,sans-Serif" font-size="10.00">map</text>
</g>
<!-- Node10&#45;&gt;Node12 -->
<g id="edge14" class="edge"><title>Node10&#45;&gt;Node12</title>
<path fill="none" stroke="midnightblue" d="M475.564,-120.435C475.564,-112.389 475.564,-99.7388 475.564,-89.1846"/>
<polygon fill="midnightblue" stroke="midnightblue" points="479.064,-88.8717 475.564,-78.8718 472.064,-88.8718 479.064,-88.8717"/>
</g>
<!-- Node13 -->
<g id="node14" class="node"><title>Node13</title>
<polygon fill="white" stroke="#bfbfbf" points="260.948,-0.5 260.948,-18.5 304.18,-18.5 304.18,-0.5 260.948,-0.5"/>
<text text-anchor="middle" x="282.564" y="-6.5" font-family="Helvetica,sans-Serif" font-size="10.00">vector</text>
</g>
<!-- Node10&#45;&gt;Node13 -->
<g id="edge15" class="edge"><title>Node10&#45;&gt;Node13</title>
<path fill="none" stroke="midnightblue" d="M469.938,-120.484C459.103,-105.593 433.893,-73.4979 405.564,-55 390.232,-44.9886 345.405,-29.931 314.328,-20.158"/>
<polygon fill="midnightblue" stroke="midnightblue" points="314.967,-16.6913 304.379,-17.0612 312.887,-23.3751 314.967,-16.6913"/>
</g>
<!-- Node14 -->
<g id="node15" class="node"><title>Node14</title>
<polygon fill="white" stroke="#bfbfbf" points="322.594,-0.5 322.594,-18.5 412.534,-18.5 412.534,-0.5 322.594,-0.5"/>
<text text-anchor="middle" x="367.564" y="-6.5" font-family="Helvetica,sans-Serif" font-size="10.00">yarp/sig/Vector.h</text>
</g>
<!-- Node10&#45;&gt;Node14 -->
<g id="edge16" class="edge"><title>Node10&#45;&gt;Node14</title>
<path fill="none" stroke="midnightblue" d="M483.437,-120.081C495.96,-105.64 517.542,-75.708 502.564,-55 492.329,-40.8501 452.15,-28.7447 418.263,-20.7479"/>
<polygon fill="midnightblue" stroke="midnightblue" points="418.975,-17.3206 408.447,-18.5019 417.414,-24.1442 418.975,-17.3206"/>
</g>
<!-- Node10&#45;&gt;Node15 -->
<g id="edge20" class="edge"><title>Node10&#45;&gt;Node15</title>
<path fill="none" stroke="midnightblue" d="M557.195,-121.987C704.546,-110.232 1011.74,-85.7241 1142.04,-75.3285"/>
<polygon fill="midnightblue" stroke="midnightblue" points="1142.54,-78.7998 1152.23,-74.5155 1141.98,-71.822 1142.54,-78.7998"/>
</g>
<!-- Node15&#45;&gt;Node2 -->
<g id="edge41" class="edge"><title>Node15&#45;&gt;Node2</title>
<path fill="none" stroke="midnightblue" d="M1152.27,-67.5304C963.976,-63.7139 300.049,-48.5332 67.2462,-18.939"/>
<polygon fill="midnightblue" stroke="midnightblue" points="67.5238,-15.4454 57.1524,-17.6096 66.6097,-22.3855 67.5238,-15.4454"/>
</g>
<!-- Node15&#45;&gt;Node5 -->
<g id="edge44" class="edge"><title>Node15&#45;&gt;Node5</title>
<path fill="none" stroke="midnightblue" d="M1152.07,-68.5257C1002.05,-68.0884 545.924,-63.0463 158.409,-18.9113"/>
<polygon fill="midnightblue" stroke="midnightblue" points="158.74,-15.4264 148.405,-17.7615 157.94,-22.3806 158.74,-15.4264"/>
</g>
<!-- Node15&#45;&gt;Node7 -->
<g id="edge21" class="edge"><title>Node15&#45;&gt;Node7</title>
<path fill="none" stroke="midnightblue" d="M1252.97,-64.7283C1380.18,-55.1482 1709.48,-29.9516 1792.28,-18.8194"/>
<polygon fill="midnightblue" stroke="midnightblue" points="1792.9,-22.2662 1802.28,-17.345 1791.88,-15.3411 1792.9,-22.2662"/>
</g>
<!-- Node15&#45;&gt;Node8 -->
<g id="edge42" class="edge"><title>Node15&#45;&gt;Node8</title>
<path fill="none" stroke="midnightblue" d="M1252.83,-65.794C1361.85,-59.6956 1628.43,-43.5503 1862.11,-19.0935"/>
<polygon fill="midnightblue" stroke="midnightblue" points="1862.58,-22.5634 1872.16,-18.0345 1861.84,-15.6019 1862.58,-22.5634"/>
</g>
<!-- Node15&#45;&gt;Node9 -->
<g id="edge36" class="edge"><title>Node15&#45;&gt;Node9</title>
<path fill="none" stroke="midnightblue" d="M1152.11,-68.1242C1011.31,-66.5959 602.075,-58.8844 253.028,-19.016"/>
<polygon fill="midnightblue" stroke="midnightblue" points="253.314,-15.5258 242.979,-17.8573 252.512,-22.4798 253.314,-15.5258"/>
</g>
<!-- Node15&#45;&gt;Node11 -->
<g id="edge23" class="edge"><title>Node15&#45;&gt;Node11</title>
<path fill="none" stroke="midnightblue" d="M1152.05,-67.6686C1037.08,-65.1963 747.006,-55.6836 495.03,-18.7864"/>
<polygon fill="midnightblue" stroke="midnightblue" points="495.357,-15.2967 484.952,-17.2929 494.331,-22.2211 495.357,-15.2967"/>
</g>
<!-- Node15&#45;&gt;Node13 -->
<g id="edge25" class="edge"><title>Node15&#45;&gt;Node13</title>
<path fill="none" stroke="midnightblue" d="M1152.1,-67.0976C991.979,-62.4312 495.785,-46.2473 314.398,-18.6941"/>
<polygon fill="midnightblue" stroke="midnightblue" points="314.877,-15.2263 304.452,-17.1192 313.782,-22.1402 314.877,-15.2263"/>
</g>
<!-- Node15&#45;&gt;Node14 -->
<g id="edge39" class="edge"><title>Node15&#45;&gt;Node14</title>
<path fill="none" stroke="midnightblue" d="M1152.17,-66.9279C1029.25,-62.745 704.121,-49.5854 422.599,-19.005"/>
<polygon fill="midnightblue" stroke="midnightblue" points="422.925,-15.5198 412.603,-17.9098 422.163,-22.4782 422.925,-15.5198"/>
</g>
<!-- Node16 -->
<g id="node17" class="node"><title>Node16</title>
<polygon fill="white" stroke="#bfbfbf" points="950.948,-0.5 950.948,-18.5 994.18,-18.5 994.18,-0.5 950.948,-0.5"/>
<text text-anchor="middle" x="972.564" y="-6.5" font-family="Helvetica,sans-Serif" font-size="10.00">cmath</text>
</g>
<!-- Node15&#45;&gt;Node16 -->
<g id="edge22" class="edge"><title>Node15&#45;&gt;Node16</title>
<path fill="none" stroke="midnightblue" d="M1169.05,-60.4223C1131.38,-51.286 1068.16,-35.7814 1004.1,-19.0897"/>
<polygon fill="midnightblue" stroke="midnightblue" points="1004.79,-15.6527 994.227,-16.5104 1003.02,-22.4252 1004.79,-15.6527"/>
</g>
<!-- Node15&#45;&gt;Node17 -->
<g id="edge24" class="edge"><title>Node15&#45;&gt;Node17</title>
<path fill="none" stroke="midnightblue" d="M1253.05,-69.0224C1376.89,-69.5131 1705.5,-66.0277 1987.04,-18.6423"/>
<polygon fill="midnightblue" stroke="midnightblue" points="1987.77,-22.0692 1997.04,-16.9381 1986.59,-15.1687 1987.77,-22.0692"/>
</g>
<!-- Node15&#45;&gt;Node18 -->
<g id="edge26" class="edge"><title>Node15&#45;&gt;Node18</title>
<path fill="none" stroke="midnightblue" d="M1252.83,-68.6889C1382.72,-68.5077 1740.1,-63.76 2045.73,-18.815"/>
<polygon fill="midnightblue" stroke="midnightblue" points="2046.3,-22.27 2055.67,-17.3366 2045.27,-15.3462 2046.3,-22.27"/>
</g>
<!-- Node19 -->
<g id="node20" class="node"><title>Node19</title>
<polygon fill="white" stroke="#bfbfbf" points="1012.62,-0.5 1012.62,-18.5 1128.5,-18.5 1128.5,-0.5 1012.62,-0.5"/>
<text text-anchor="middle" x="1070.56" y="-6.5" font-family="Helvetica,sans-Serif" font-size="10.00">yarp/os/BufferedPort.h</text>
</g>
<!-- Node15&#45;&gt;Node19 -->
<g id="edge27" class="edge"><title>Node15&#45;&gt;Node19</title>
<path fill="none" stroke="midnightblue" d="M1184.21,-60.4353C1161.97,-50.6648 1124.29,-34.1053 1098.45,-22.7537"/>
<polygon fill="midnightblue" stroke="midnightblue" points="1099.75,-19.5016 1089.19,-18.6831 1096.93,-25.9103 1099.75,-19.5016"/>
</g>
<!-- Node15&#45;&gt;Node20 -->
<g id="edge28" class="edge"><title>Node15&#45;&gt;Node20</title>
<path fill="none" stroke="midnightblue" d="M1253.25,-67.6727C1390.44,-65.0241 1780.63,-54.7782 2115.38,-18.992"/>
<polygon fill="midnightblue" stroke="midnightblue" points="2116.2,-22.424 2125.77,-17.8715 2115.45,-15.4644 2116.2,-22.424"/>
</g>
<!-- Node21 -->
<g id="node22" class="node"><title>Node21</title>
<polygon fill="white" stroke="#bfbfbf" points="1146.2,-0.5 1146.2,-18.5 1258.92,-18.5 1258.92,-0.5 1146.2,-0.5"/>
<text text-anchor="middle" x="1202.56" y="-6.5" font-family="Helvetica,sans-Serif" font-size="10.00">yarp/os/RateThread.h</text>
</g>
<!-- Node15&#45;&gt;Node21 -->
<g id="edge29" class="edge"><title>Node15&#45;&gt;Node21</title>
<path fill="none" stroke="midnightblue" d="M1202.56,-60.4353C1202.56,-52.3891 1202.56,-39.7388 1202.56,-29.1846"/>
<polygon fill="midnightblue" stroke="midnightblue" points="1206.06,-28.8717 1202.56,-18.8718 1199.06,-28.8718 1206.06,-28.8717"/>
</g>
<!-- Node22 -->
<g id="node23" class="node"><title>Node22</title>
<polygon fill="white" stroke="#bfbfbf" points="1277.31,-0.5 1277.31,-18.5 1407.82,-18.5 1407.82,-0.5 1277.31,-0.5"/>
<text text-anchor="middle" x="1342.56" y="-6.5" font-family="Helvetica,sans-Serif" font-size="10.00">yarp/os/ResourceFinder.h</text>
</g>
<!-- Node15&#45;&gt;Node22 -->
<g id="edge30" class="edge"><title>Node15&#45;&gt;Node22</title>
<path fill="none" stroke="midnightblue" d="M1222.03,-60.4353C1245.72,-50.6217 1285.94,-33.9593 1313.35,-22.604"/>
<polygon fill="midnightblue" stroke="midnightblue" points="1314.91,-25.7441 1322.81,-18.6831 1312.23,-19.2771 1314.91,-25.7441"/>
</g>
<!-- Node23 -->
<g id="node24" class="node"><title>Node23</title>
<polygon fill="white" stroke="#bfbfbf" points="1426.31,-0.5 1426.31,-18.5 1536.81,-18.5 1536.81,-0.5 1426.31,-0.5"/>
<text text-anchor="middle" x="1481.56" y="-6.5" font-family="Helvetica,sans-Serif" font-size="10.00">yarp/os/PortReader.h</text>
</g>
<!-- Node15&#45;&gt;Node23 -->
<g id="edge31" class="edge"><title>Node15&#45;&gt;Node23</title>
<path fill="none" stroke="midnightblue" d="M1241.06,-60.4962C1291.06,-50.103 1378.36,-31.955 1432.89,-20.6179"/>
<polygon fill="midnightblue" stroke="midnightblue" points="1433.93,-23.9768 1443.01,-18.5147 1432.51,-17.1234 1433.93,-23.9768"/>
</g>
<!-- Node24 -->
<g id="node25" class="node"><title>Node24</title>
<polygon fill="white" stroke="#bfbfbf" points="1554.93,-0.5 1554.93,-18.5 1658.19,-18.5 1658.19,-0.5 1554.93,-0.5"/>
<text text-anchor="middle" x="1606.56" y="-6.5" font-family="Helvetica,sans-Serif" font-size="10.00">yarp/os/RpcClient.h</text>
</g>
<!-- Node15&#45;&gt;Node24 -->
<g id="edge32" class="edge"><title>Node15&#45;&gt;Node24</title>
<path fill="none" stroke="midnightblue" d="M1252.91,-61.2715C1326.85,-50.6567 1464.67,-30.8711 1544.68,-19.3843"/>
<polygon fill="midnightblue" stroke="midnightblue" points="1545.22,-22.843 1554.62,-17.9574 1544.22,-15.9141 1545.22,-22.843"/>
</g>
<!-- Node15&#45;&gt;Node25 -->
<g id="edge33" class="edge"><title>Node15&#45;&gt;Node25</title>
<path fill="none" stroke="midnightblue" d="M1252.99,-67.6118C1400.2,-64.6857 1842.26,-53.5311 2219.15,-19.0463"/>
<polygon fill="midnightblue" stroke="midnightblue" points="2219.53,-22.5268 2229.16,-18.1235 2218.88,-15.5564 2219.53,-22.5268"/>
</g>
<!-- Node15&#45;&gt;Node26 -->
<g id="edge34" class="edge"><title>Node15&#45;&gt;Node26</title>
<path fill="none" stroke="midnightblue" d="M1253,-67.4158C1411.72,-63.77 1915.32,-50.4171 2343.92,-18.9922"/>
<polygon fill="midnightblue" stroke="midnightblue" points="2344.32,-22.4727 2354.03,-18.2465 2343.8,-15.4916 2344.32,-22.4727"/>
</g>
<!-- Node15&#45;&gt;Node27 -->
<g id="edge35" class="edge"><title>Node15&#45;&gt;Node27</title>
<path fill="none" stroke="midnightblue" d="M1253.04,-68.9445C1426.13,-69.9698 2011.67,-69.3143 2504.26,-18.9779"/>
<polygon fill="midnightblue" stroke="midnightblue" points="2504.83,-22.4378 2514.42,-17.9314 2504.12,-15.4747 2504.83,-22.4378"/>
</g>
<!-- Node28 -->
<g id="node29" class="node"><title>Node28</title>
<polygon fill="white" stroke="#bfbfbf" points="1676.15,-0.5 1676.15,-18.5 1784.98,-18.5 1784.98,-0.5 1676.15,-0.5"/>
<text text-anchor="middle" x="1730.56" y="-6.5" font-family="Helvetica,sans-Serif" font-size="10.00">yarp/os/LogStream.h</text>
</g>
<!-- Node15&#45;&gt;Node28 -->
<g id="edge37" class="edge"><title>Node15&#45;&gt;Node28</title>
<path fill="none" stroke="midnightblue" d="M1252.85,-63.614C1336.36,-55.3966 1509.21,-37.9568 1665.66,-19.2024"/>
<polygon fill="midnightblue" stroke="midnightblue" points="1666.43,-22.6351 1675.94,-17.9653 1665.59,-15.6852 1666.43,-22.6351"/>
</g>
<!-- Node29 -->
<g id="node30" class="node"><title>Node29</title>
<polygon fill="white" stroke="#bfbfbf" points="503.081,-0.5 503.081,-18.5 600.047,-18.5 600.047,-0.5 503.081,-0.5"/>
<text text-anchor="middle" x="551.564" y="-6.5" font-family="Helvetica,sans-Serif" font-size="10.00">yarp/os/Property.h</text>
</g>
<!-- Node15&#45;&gt;Node29 -->
<g id="edge38" class="edge"><title>Node15&#45;&gt;Node29</title>
<path fill="none" stroke="midnightblue" d="M1152,-65.3971C1051,-58.9593 816.967,-42.833 610.476,-19.1577"/>
<polygon fill="midnightblue" stroke="midnightblue" points="610.69,-15.6591 600.354,-17.9884 609.886,-22.6129 610.69,-15.6591"/>
</g>
<!-- Node30 -->
<g id="node31" class="node"><title>Node30</title>
<polygon fill="white" stroke="#bfbfbf" points="617.887,-0.5 617.887,-18.5 707.241,-18.5 707.241,-0.5 617.887,-0.5"/>
<text text-anchor="middle" x="662.564" y="-6.5" font-family="Helvetica,sans-Serif" font-size="10.00">yarp/sig/Matrix.h</text>
</g>
<!-- Node15&#45;&gt;Node30 -->
<g id="edge40" class="edge"><title>Node15&#45;&gt;Node30</title>
<path fill="none" stroke="midnightblue" d="M1152.09,-64.2739C1065.48,-56.8237 882.801,-40.2352 717.674,-19.0739"/>
<polygon fill="midnightblue" stroke="midnightblue" points="717.692,-15.5472 707.326,-17.7387 716.796,-22.4897 717.692,-15.5472"/>
</g>
<!-- Node31 -->
<g id="node32" class="node"><title>Node31</title>
<polygon fill="white" stroke="#bfbfbf" points="725.323,-0.5 725.323,-18.5 845.805,-18.5 845.805,-0.5 725.323,-0.5"/>
<text text-anchor="middle" x="785.564" y="-6.5" font-family="Helvetica,sans-Serif" font-size="10.00">ocra/util/StringUtilities.h</text>
</g>
<!-- Node15&#45;&gt;Node31 -->
<g id="edge43" class="edge"><title>Node15&#45;&gt;Node31</title>
<path fill="none" stroke="midnightblue" d="M1152.26,-61.5038C1077.54,-51.1099 937.033,-31.5676 853.317,-19.9236"/>
<polygon fill="midnightblue" stroke="midnightblue" points="853.784,-16.455 843.397,-18.5439 852.82,-23.3883 853.784,-16.455"/>
</g>
<!-- Node32 -->
<g id="node33" class="node"><title>Node32</title>
<polygon fill="white" stroke="#bfbfbf" points="864.16,-0.5 864.16,-18.5 932.968,-18.5 932.968,-0.5 864.16,-0.5"/>
<text text-anchor="middle" x="898.564" y="-6.5" font-family="Helvetica,sans-Serif" font-size="10.00">Eigen/Lgsm</text>
</g>
<!-- Node15&#45;&gt;Node32 -->
<g id="edge45" class="edge"><title>Node15&#45;&gt;Node32</title>
<path fill="none" stroke="midnightblue" d="M1159.59,-60.4556C1109.87,-51.1238 1025.25,-35.171 943.275,-19.321"/>
<polygon fill="midnightblue" stroke="midnightblue" points="943.776,-15.8532 933.293,-17.389 942.446,-22.7256 943.776,-15.8532"/>
</g>
</g>
</svg>
