<?xml version="1.0" encoding="UTF-8" standalone="no"?>
<!DOCTYPE svg PUBLIC "-//W3C//DTD SVG 1.1//EN"
 "http://www.w3.org/Graphics/SVG/1.1/DTD/svg11.dtd">
<!-- Generated by graphviz version 2.38.0 (20140413.2041)
 -->
<!-- Title: /Users/jorhabibeljaik/Code/codyco&#45;superbuild/main/ocra&#45;wbi&#45;plugins/ocra&#45;icub/include/ocra&#45;icub/Utilities.h Pages: 1 -->
<svg width="2465pt" height="122pt"
 viewBox="0.00 0.00 2465.46 122.00" xmlns="http://www.w3.org/2000/svg" xmlns:xlink="http://www.w3.org/1999/xlink">
<g id="graph0" class="graph" transform="scale(1 1) rotate(0) translate(4 118)">
<title>/Users/jorhabibeljaik/Code/codyco&#45;superbuild/main/ocra&#45;wbi&#45;plugins/ocra&#45;icub/include/ocra&#45;icub/Utilities.h</title>
<polygon fill="white" stroke="none" points="-4,4 -4,-118 2461.46,-118 2461.46,4 -4,4"/>
<!-- Node0 -->
<g id="node1" class="node"><title>Node0</title>
<polygon fill="#bfbfbf" stroke="black" points="1088.75,-55.5 1088.75,-113.5 1215.37,-113.5 1215.37,-55.5 1088.75,-55.5"/>
<text text-anchor="start" x="1096.75" y="-101.5" font-family="Helvetica,sans-Serif" font-size="10.00">/Users/jorhabibeljaik</text>
<text text-anchor="start" x="1096.75" y="-91.5" font-family="Helvetica,sans-Serif" font-size="10.00">/Code/codyco&#45;superbuild</text>
<text text-anchor="start" x="1096.75" y="-81.5" font-family="Helvetica,sans-Serif" font-size="10.00">/main/ocra&#45;wbi&#45;plugins</text>
<text text-anchor="start" x="1096.75" y="-71.5" font-family="Helvetica,sans-Serif" font-size="10.00">/ocra&#45;icub/include/ocra</text>
<text text-anchor="middle" x="1152.06" y="-61.5" font-family="Helvetica,sans-Serif" font-size="10.00">&#45;icub/Utilities.h</text>
</g>
<!-- Node1 -->
<g id="node2" class="node"><title>Node1</title>
<polygon fill="white" stroke="#bfbfbf" points="0,-0.5 0,-18.5 52.1133,-18.5 52.1133,-0.5 0,-0.5"/>
<text text-anchor="middle" x="26.0566" y="-6.5" font-family="Helvetica,sans-Serif" font-size="10.00">memory</text>
</g>
<!-- Node0&#45;&gt;Node1 -->
<g id="edge1" class="edge"><title>Node0&#45;&gt;Node1</title>
<path fill="none" stroke="midnightblue" d="M1088.62,-83.7061C921.655,-83.4036 456.358,-77.1021 62.4973,-18.931"/>
<polygon fill="midnightblue" stroke="midnightblue" points="62.7367,-15.4281 52.3299,-17.4153 61.7046,-22.3516 62.7367,-15.4281"/>
</g>
<!-- Node2 -->
<g id="node3" class="node"><title>Node2</title>
<polygon fill="white" stroke="#bfbfbf" points="70.4409,-0.5 70.4409,-18.5 113.672,-18.5 113.672,-0.5 70.4409,-0.5"/>
<text text-anchor="middle" x="92.0566" y="-6.5" font-family="Helvetica,sans-Serif" font-size="10.00">cmath</text>
</g>
<!-- Node0&#45;&gt;Node2 -->
<g id="edge2" class="edge"><title>Node0&#45;&gt;Node2</title>
<path fill="none" stroke="midnightblue" d="M1088.61,-84.0218C928.043,-84.3811 492.747,-79.3655 124.015,-18.7707"/>
<polygon fill="midnightblue" stroke="midnightblue" points="124.386,-15.2846 113.948,-17.0998 123.24,-22.1901 124.386,-15.2846"/>
</g>
<!-- Node3 -->
<g id="node4" class="node"><title>Node3</title>
<polygon fill="white" stroke="#bfbfbf" points="131.884,-0.5 131.884,-18.5 186.229,-18.5 186.229,-0.5 131.884,-0.5"/>
<text text-anchor="middle" x="159.057" y="-6.5" font-family="Helvetica,sans-Serif" font-size="10.00">iostream</text>
</g>
<!-- Node0&#45;&gt;Node3 -->
<g id="edge3" class="edge"><title>Node0&#45;&gt;Node3</title>
<path fill="none" stroke="midnightblue" d="M1088.68,-82.8241C936.229,-80.4264 537.015,-69.5602 196.539,-18.9749"/>
<polygon fill="midnightblue" stroke="midnightblue" points="196.892,-15.4888 186.483,-17.4667 195.854,-22.4113 196.892,-15.4888"/>
</g>
<!-- Node4 -->
<g id="node5" class="node"><title>Node4</title>
<polygon fill="white" stroke="#bfbfbf" points="203.83,-0.5 203.83,-18.5 244.283,-18.5 244.283,-0.5 203.83,-0.5"/>
<text text-anchor="middle" x="224.057" y="-6.5" font-family="Helvetica,sans-Serif" font-size="10.00">string</text>
</g>
<!-- Node0&#45;&gt;Node4 -->
<g id="edge4" class="edge"><title>Node0&#45;&gt;Node4</title>
<path fill="none" stroke="midnightblue" d="M1088.54,-83.5767C942.322,-82.7594 570.872,-75.008 254.799,-18.93"/>
<polygon fill="midnightblue" stroke="midnightblue" points="254.983,-15.4072 244.522,-17.086 253.747,-22.2972 254.983,-15.4072"/>
</g>
<!-- Node5 -->
<g id="node6" class="node"><title>Node5</title>
<polygon fill="white" stroke="#bfbfbf" points="262.441,-0.5 262.441,-18.5 305.672,-18.5 305.672,-0.5 262.441,-0.5"/>
<text text-anchor="middle" x="284.057" y="-6.5" font-family="Helvetica,sans-Serif" font-size="10.00">vector</text>
</g>
<!-- Node0&#45;&gt;Node5 -->
<g id="edge5" class="edge"><title>Node0&#45;&gt;Node5</title>
<path fill="none" stroke="midnightblue" d="M1088.7,-82.9163C949.744,-80.7124 607.893,-70.2439 315.826,-18.9931"/>
<polygon fill="midnightblue" stroke="midnightblue" points="316.352,-15.5317 305.894,-17.2309 315.129,-22.4241 316.352,-15.5317"/>
</g>
<!-- Node6 -->
<g id="node7" class="node"><title>Node6</title>
<polygon fill="white" stroke="#bfbfbf" points="323.276,-0.5 323.276,-18.5 374.837,-18.5 374.837,-0.5 323.276,-0.5"/>
<text text-anchor="middle" x="349.057" y="-6.5" font-family="Helvetica,sans-Serif" font-size="10.00">sstream</text>
</g>
<!-- Node0&#45;&gt;Node6 -->
<g id="edge6" class="edge"><title>Node0&#45;&gt;Node6</title>
<path fill="none" stroke="midnightblue" d="M1088.69,-81.4886C958.456,-76.6387 651.34,-61.5159 385.205,-18.9194"/>
<polygon fill="midnightblue" stroke="midnightblue" points="385.39,-15.4039 374.959,-17.2626 384.272,-22.3142 385.39,-15.4039"/>
</g>
<!-- Node7 -->
<g id="node8" class="node"><title>Node7</title>
<polygon fill="white" stroke="#bfbfbf" points="393.118,-0.5 393.118,-18.5 508.996,-18.5 508.996,-0.5 393.118,-0.5"/>
<text text-anchor="middle" x="451.057" y="-6.5" font-family="Helvetica,sans-Serif" font-size="10.00">yarp/os/BufferedPort.h</text>
</g>
<!-- Node0&#45;&gt;Node7 -->
<g id="edge7" class="edge"><title>Node0&#45;&gt;Node7</title>
<path fill="none" stroke="midnightblue" d="M1088.56,-77.5659C976.112,-66.9419 734.342,-43.5815 519.367,-19.125"/>
<polygon fill="midnightblue" stroke="midnightblue" points="519.483,-15.6157 509.151,-17.9597 518.69,-22.5706 519.483,-15.6157"/>
</g>
<!-- Node8 -->
<g id="node9" class="node"><title>Node8</title>
<polygon fill="white" stroke="#bfbfbf" points="527.315,-0.5 527.315,-18.5 612.798,-18.5 612.798,-0.5 527.315,-0.5"/>
<text text-anchor="middle" x="570.057" y="-6.5" font-family="Helvetica,sans-Serif" font-size="10.00">yarp/os/Bottle.h</text>
</g>
<!-- Node0&#45;&gt;Node8 -->
<g id="edge8" class="edge"><title>Node0&#45;&gt;Node8</title>
<path fill="none" stroke="midnightblue" d="M1088.72,-76.6402C991.099,-65.8799 797.759,-43.8265 623.038,-19.0869"/>
<polygon fill="midnightblue" stroke="midnightblue" points="623.277,-15.5858 612.884,-17.6431 622.292,-22.5161 623.277,-15.5858"/>
</g>
<!-- Node9 -->
<g id="node10" class="node"><title>Node9</title>
<polygon fill="white" stroke="#bfbfbf" points="630.697,-0.5 630.697,-18.5 743.416,-18.5 743.416,-0.5 630.697,-0.5"/>
<text text-anchor="middle" x="687.057" y="-6.5" font-family="Helvetica,sans-Serif" font-size="10.00">yarp/os/RateThread.h</text>
</g>
<!-- Node0&#45;&gt;Node9 -->
<g id="edge9" class="edge"><title>Node0&#45;&gt;Node9</title>
<path fill="none" stroke="midnightblue" d="M1088.38,-73.5027C998.772,-59.436 836.589,-33.975 748.316,-20.1171"/>
<polygon fill="midnightblue" stroke="midnightblue" points="748.609,-16.6203 738.187,-18.527 747.524,-23.5356 748.609,-16.6203"/>
</g>
<!-- Node10 -->
<g id="node11" class="node"><title>Node10</title>
<polygon fill="white" stroke="#bfbfbf" points="761.803,-0.5 761.803,-18.5 892.31,-18.5 892.31,-0.5 761.803,-0.5"/>
<text text-anchor="middle" x="827.057" y="-6.5" font-family="Helvetica,sans-Serif" font-size="10.00">yarp/os/ResourceFinder.h</text>
</g>
<!-- Node0&#45;&gt;Node10 -->
<g id="edge10" class="edge"><title>Node0&#45;&gt;Node10</title>
<path fill="none" stroke="midnightblue" d="M1088.62,-69.2516C1025.15,-54.9941 929.061,-33.4118 872.725,-20.7579"/>
<polygon fill="midnightblue" stroke="midnightblue" points="873.209,-17.2795 862.686,-18.5028 871.675,-24.1093 873.209,-17.2795"/>
</g>
<!-- Node11 -->
<g id="node12" class="node"><title>Node11</title>
<polygon fill="white" stroke="#bfbfbf" points="910.806,-0.5 910.806,-18.5 1021.31,-18.5 1021.31,-0.5 910.806,-0.5"/>
<text text-anchor="middle" x="966.057" y="-6.5" font-family="Helvetica,sans-Serif" font-size="10.00">yarp/os/PortReader.h</text>
</g>
<!-- Node0&#45;&gt;Node11 -->
<g id="edge11" class="edge"><title>Node0&#45;&gt;Node11</title>
<path fill="none" stroke="midnightblue" d="M1088.57,-58.5817C1057.3,-46.3116 1021.08,-32.0934 996.169,-22.3185"/>
<polygon fill="midnightblue" stroke="midnightblue" points="997.15,-18.9433 986.562,-18.5479 994.592,-25.4594 997.15,-18.9433"/>
</g>
<!-- Node12 -->
<g id="node13" class="node"><title>Node12</title>
<polygon fill="white" stroke="#bfbfbf" points="1039.43,-0.5 1039.43,-18.5 1142.69,-18.5 1142.69,-0.5 1039.43,-0.5"/>
<text text-anchor="middle" x="1091.06" y="-6.5" font-family="Helvetica,sans-Serif" font-size="10.00">yarp/os/RpcClient.h</text>
</g>
<!-- Node0&#45;&gt;Node12 -->
<g id="edge12" class="edge"><title>Node0&#45;&gt;Node12</title>
<path fill="none" stroke="midnightblue" d="M1128.65,-55.4851C1120.47,-45.697 1111.57,-35.0471 1104.48,-26.5676"/>
<polygon fill="midnightblue" stroke="midnightblue" points="1106.96,-24.0733 1097.86,-18.6439 1101.59,-28.5618 1106.96,-24.0733"/>
</g>
<!-- Node13 -->
<g id="node14" class="node"><title>Node13</title>
<polygon fill="white" stroke="#bfbfbf" points="1160.76,-0.5 1160.76,-18.5 1267.36,-18.5 1267.36,-0.5 1160.76,-0.5"/>
<text text-anchor="middle" x="1214.06" y="-6.5" font-family="Helvetica,sans-Serif" font-size="10.00">yarp/os/RpcServer.h</text>
</g>
<!-- Node0&#45;&gt;Node13 -->
<g id="edge13" class="edge"><title>Node0&#45;&gt;Node13</title>
<path fill="none" stroke="midnightblue" d="M1175.85,-55.4851C1184.25,-45.594 1193.4,-34.8228 1200.64,-26.3006"/>
<polygon fill="midnightblue" stroke="midnightblue" points="1203.33,-28.5316 1207.14,-18.6439 1198,-24.0002 1203.33,-28.5316"/>
</g>
<!-- Node14 -->
<g id="node15" class="node"><title>Node14</title>
<polygon fill="white" stroke="#bfbfbf" points="1285.68,-0.5 1285.68,-18.5 1428.43,-18.5 1428.43,-0.5 1285.68,-0.5"/>
<text text-anchor="middle" x="1357.06" y="-6.5" font-family="Helvetica,sans-Serif" font-size="10.00">yarp/os/ConnectionReader.h</text>
</g>
<!-- Node0&#45;&gt;Node14 -->
<g id="edge14" class="edge"><title>Node0&#45;&gt;Node14</title>
<path fill="none" stroke="midnightblue" d="M1215.52,-60.9023C1251.7,-48.0169 1295.52,-32.414 1324.72,-22.0144"/>
<polygon fill="midnightblue" stroke="midnightblue" points="1326.16,-25.2179 1334.41,-18.566 1323.81,-18.6235 1326.16,-25.2179"/>
</g>
<!-- Node15 -->
<g id="node16" class="node"><title>Node15</title>
<polygon fill="white" stroke="#bfbfbf" points="1446.17,-0.5 1446.17,-18.5 1527.94,-18.5 1527.94,-0.5 1446.17,-0.5"/>
<text text-anchor="middle" x="1487.06" y="-6.5" font-family="Helvetica,sans-Serif" font-size="10.00">yarp/os/Time.h</text>
</g>
<!-- Node0&#45;&gt;Node15 -->
<g id="edge15" class="edge"><title>Node0&#45;&gt;Node15</title>
<path fill="none" stroke="midnightblue" d="M1215.46,-69.6834C1280.95,-55.4118 1381.63,-33.4745 1440.25,-20.7004"/>
<polygon fill="midnightblue" stroke="midnightblue" points="1441.31,-24.0512 1450.33,-18.5022 1439.82,-17.2117 1441.31,-24.0512"/>
</g>
<!-- Node16 -->
<g id="node17" class="node"><title>Node16</title>
<polygon fill="white" stroke="#bfbfbf" points="1545.76,-0.5 1545.76,-18.5 1622.35,-18.5 1622.35,-0.5 1545.76,-0.5"/>
<text text-anchor="middle" x="1584.06" y="-6.5" font-family="Helvetica,sans-Serif" font-size="10.00">yarp/os/Log.h</text>
</g>
<!-- Node0&#45;&gt;Node16 -->
<g id="edge16" class="edge"><title>Node0&#45;&gt;Node16</title>
<path fill="none" stroke="midnightblue" d="M1215.46,-73.1362C1289.71,-60.9401 1416.71,-39.9021 1535.58,-19.2401"/>
<polygon fill="midnightblue" stroke="midnightblue" points="1536.34,-22.6616 1545.59,-17.4986 1535.14,-15.7653 1536.34,-22.6616"/>
</g>
<!-- Node17 -->
<g id="node18" class="node"><title>Node17</title>
<polygon fill="white" stroke="#bfbfbf" points="1640.64,-0.5 1640.64,-18.5 1749.47,-18.5 1749.47,-0.5 1640.64,-0.5"/>
<text text-anchor="middle" x="1695.06" y="-6.5" font-family="Helvetica,sans-Serif" font-size="10.00">yarp/os/LogStream.h</text>
</g>
<!-- Node0&#45;&gt;Node17 -->
<g id="edge17" class="edge"><title>Node0&#45;&gt;Node17</title>
<path fill="none" stroke="midnightblue" d="M1215.41,-74.9831C1319.37,-61.0061 1525.11,-33.3474 1630.11,-19.2316"/>
<polygon fill="midnightblue" stroke="midnightblue" points="1630.81,-22.6688 1640.25,-17.8675 1629.88,-15.7312 1630.81,-22.6688"/>
</g>
<!-- Node18 -->
<g id="node19" class="node"><title>Node18</title>
<polygon fill="white" stroke="#bfbfbf" points="1767.57,-0.5 1767.57,-18.5 1864.54,-18.5 1864.54,-0.5 1767.57,-0.5"/>
<text text-anchor="middle" x="1816.06" y="-6.5" font-family="Helvetica,sans-Serif" font-size="10.00">yarp/os/Property.h</text>
</g>
<!-- Node0&#45;&gt;Node18 -->
<g id="edge18" class="edge"><title>Node0&#45;&gt;Node18</title>
<path fill="none" stroke="midnightblue" d="M1215.4,-77.5884C1324,-67.2714 1552.93,-44.727 1757.32,-19.0459"/>
<polygon fill="midnightblue" stroke="midnightblue" points="1757.86,-22.5058 1767.34,-17.7817 1756.98,-15.5609 1757.86,-22.5058"/>
</g>
<!-- Node19 -->
<g id="node20" class="node"><title>Node19</title>
<polygon fill="white" stroke="#bfbfbf" points="1882.09,-0.5 1882.09,-18.5 1972.03,-18.5 1972.03,-0.5 1882.09,-0.5"/>
<text text-anchor="middle" x="1927.06" y="-6.5" font-family="Helvetica,sans-Serif" font-size="10.00">yarp/sig/Vector.h</text>
</g>
<!-- Node0&#45;&gt;Node19 -->
<g id="edge19" class="edge"><title>Node0&#45;&gt;Node19</title>
<path fill="none" stroke="midnightblue" d="M1215.38,-79.2662C1339.39,-70.6625 1623.16,-49.4415 1872.05,-19.0451"/>
<polygon fill="midnightblue" stroke="midnightblue" points="1872.51,-22.5153 1882.01,-17.822 1871.65,-15.5676 1872.51,-22.5153"/>
</g>
<!-- Node20 -->
<g id="node21" class="node"><title>Node20</title>
<polygon fill="white" stroke="#bfbfbf" points="1990.38,-0.5 1990.38,-18.5 2079.73,-18.5 2079.73,-0.5 1990.38,-0.5"/>
<text text-anchor="middle" x="2035.06" y="-6.5" font-family="Helvetica,sans-Serif" font-size="10.00">yarp/sig/Matrix.h</text>
</g>
<!-- Node0&#45;&gt;Node20 -->
<g id="edge20" class="edge"><title>Node0&#45;&gt;Node20</title>
<path fill="none" stroke="midnightblue" d="M1215.4,-80.2716C1352.73,-72.9044 1688.3,-52.9149 1979.95,-19.0324"/>
<polygon fill="midnightblue" stroke="midnightblue" points="1980.78,-22.4593 1990.3,-17.8213 1979.97,-15.5067 1980.78,-22.4593"/>
</g>
<!-- Node21 -->
<g id="node22" class="node"><title>Node21</title>
<polygon fill="white" stroke="#bfbfbf" points="2097.49,-0.5 2097.49,-18.5 2154.62,-18.5 2154.62,-0.5 2097.49,-0.5"/>
<text text-anchor="middle" x="2126.06" y="-6.5" font-family="Helvetica,sans-Serif" font-size="10.00">wbi/wbi.h</text>
</g>
<!-- Node0&#45;&gt;Node21 -->
<g id="edge21" class="edge"><title>Node0&#45;&gt;Node21</title>
<path fill="none" stroke="midnightblue" d="M1215.49,-82.5637C1365.68,-79.61 1754.75,-67.6412 2087.15,-19.0589"/>
<polygon fill="midnightblue" stroke="midnightblue" points="2088.08,-22.4596 2097.46,-17.5372 2087.05,-15.5346 2088.08,-22.4596"/>
</g>
<!-- Node22 -->
<g id="node23" class="node"><title>Node22</title>
<polygon fill="white" stroke="#bfbfbf" points="2172.76,-0.5 2172.76,-18.5 2279.36,-18.5 2279.36,-0.5 2172.76,-0.5"/>
<text text-anchor="middle" x="2226.06" y="-6.5" font-family="Helvetica,sans-Serif" font-size="10.00">ocra/control/Model.h</text>
</g>
<!-- Node0&#45;&gt;Node22 -->
<g id="edge22" class="edge"><title>Node0&#45;&gt;Node22</title>
<path fill="none" stroke="midnightblue" d="M1215.54,-81.057C1373.72,-74.625 1798.29,-55.2441 2162.44,-19.0922"/>
<polygon fill="midnightblue" stroke="midnightblue" points="2163.05,-22.5487 2172.65,-18.0722 2162.35,-15.5834 2163.05,-22.5487"/>
</g>
<!-- Node23 -->
<g id="node24" class="node"><title>Node23</title>
<polygon fill="white" stroke="#bfbfbf" points="2297.43,-0.5 2297.43,-18.5 2370.69,-18.5 2370.69,-0.5 2297.43,-0.5"/>
<text text-anchor="middle" x="2334.06" y="-6.5" font-family="Helvetica,sans-Serif" font-size="10.00">Eigen/Dense</text>
</g>
<!-- Node0&#45;&gt;Node23 -->
<g id="edge23" class="edge"><title>Node0&#45;&gt;Node23</title>
<path fill="none" stroke="midnightblue" d="M1215.42,-82.6983C1386.72,-79.9331 1873.41,-68.1183 2287.15,-18.9365"/>
<polygon fill="midnightblue" stroke="midnightblue" points="2287.7,-22.3953 2297.21,-17.7307 2286.87,-15.445 2287.7,-22.3953"/>
</g>
<!-- Node24 -->
<g id="node25" class="node"><title>Node24</title>
<polygon fill="white" stroke="#bfbfbf" points="2388.65,-0.5 2388.65,-18.5 2457.46,-18.5 2457.46,-0.5 2388.65,-0.5"/>
<text text-anchor="middle" x="2423.06" y="-6.5" font-family="Helvetica,sans-Serif" font-size="10.00">Eigen/Lgsm</text>
</g>
<!-- Node0&#45;&gt;Node24 -->
<g id="edge24" class="edge"><title>Node0&#45;&gt;Node24</title>
<path fill="none" stroke="midnightblue" d="M1215.61,-83.3523C1396.37,-82.2519 1928.88,-74.2889 2378.45,-19.0244"/>
<polygon fill="midnightblue" stroke="midnightblue" points="2378.9,-22.4963 2388.39,-17.7934 2378.04,-15.5494 2378.9,-22.4963"/>
</g>
</g>
</svg>
