<?xml version="1.0" encoding="UTF-8" standalone="no"?>
<!DOCTYPE svg PUBLIC "-//W3C//DTD SVG 1.1//EN"
 "http://www.w3.org/Graphics/SVG/1.1/DTD/svg11.dtd">
<!-- Generated by graphviz version 2.38.0 (20140413.2041)
 -->
<!-- Title: /Users/jorhabibeljaik/Code/codyco&#45;superbuild/main/ocra&#45;wbi&#45;plugins/ocra&#45;icub/include/ocra&#45;icub/Utilities.h Pages: 1 -->
<svg width="1411pt" height="657pt"
 viewBox="0.00 0.00 1410.56 657.00" xmlns="http://www.w3.org/2000/svg" xmlns:xlink="http://www.w3.org/1999/xlink">
<g id="graph0" class="graph" transform="scale(1 1) rotate(0) translate(4 653)">
<title>/Users/jorhabibeljaik/Code/codyco&#45;superbuild/main/ocra&#45;wbi&#45;plugins/ocra&#45;icub/include/ocra&#45;icub/Utilities.h</title>
<polygon fill="white" stroke="none" points="-4,4 -4,-653 1406.56,-653 1406.56,4 -4,4"/>
<!-- Node25 -->
<g id="node1" class="node"><title>Node25</title>
<polygon fill="#bfbfbf" stroke="black" points="520.931,-590.5 520.931,-648.5 647.551,-648.5 647.551,-590.5 520.931,-590.5"/>
<text text-anchor="start" x="528.931" y="-636.5" font-family="Helvetica,sans-Serif" font-size="10.00">/Users/jorhabibeljaik</text>
<text text-anchor="start" x="528.931" y="-626.5" font-family="Helvetica,sans-Serif" font-size="10.00">/Code/codyco&#45;superbuild</text>
<text text-anchor="start" x="528.931" y="-616.5" font-family="Helvetica,sans-Serif" font-size="10.00">/main/ocra&#45;wbi&#45;plugins</text>
<text text-anchor="start" x="528.931" y="-606.5" font-family="Helvetica,sans-Serif" font-size="10.00">/ocra&#45;icub/include/ocra</text>
<text text-anchor="middle" x="584.241" y="-596.5" font-family="Helvetica,sans-Serif" font-size="10.00">&#45;icub/Utilities.h</text>
</g>
<!-- Node26 -->
<g id="node2" class="node"><title>Node26</title>
<g id="a_node2"><a xlink:href="Module_8h.html" target="_top" xlink:title="Module class for the controller server. ">
<polygon fill="white" stroke="black" points="156.773,-110.5 156.773,-168.5 291.709,-168.5 291.709,-110.5 156.773,-110.5"/>
<text text-anchor="start" x="164.773" y="-156.5" font-family="Helvetica,sans-Serif" font-size="10.00">/Users/jorhabibeljaik</text>
<text text-anchor="start" x="164.773" y="-146.5" font-family="Helvetica,sans-Serif" font-size="10.00">/Code/codyco&#45;superbuild</text>
<text text-anchor="start" x="164.773" y="-136.5" font-family="Helvetica,sans-Serif" font-size="10.00">/main/ocra&#45;wbi&#45;plugins</text>
<text text-anchor="start" x="164.773" y="-126.5" font-family="Helvetica,sans-Serif" font-size="10.00">/ocra&#45;icub&#45;server/include</text>
<text text-anchor="middle" x="224.241" y="-116.5" font-family="Helvetica,sans-Serif" font-size="10.00">/ocra&#45;icub&#45;server/Module.h</text>
</a>
</g>
</g>
<!-- Node25&#45;&gt;Node26 -->
<g id="edge1" class="edge"><title>Node25&#45;&gt;Node26</title>
<path fill="none" stroke="midnightblue" d="M510.766,-612.546C405.479,-599.548 224.241,-558.573 224.241,-430.5 224.241,-430.5 224.241,-430.5 224.241,-333.5 224.241,-274.863 224.241,-206.205 224.241,-168.627"/>
<polygon fill="midnightblue" stroke="midnightblue" points="510.368,-616.024 520.709,-613.719 511.188,-609.072 510.368,-616.024"/>
</g>
<!-- Node29 -->
<g id="node5" class="node"><title>Node29</title>
<g id="a_node5"><a xlink:href="Thread_8h.html" target="_top" xlink:title="The thread class for the controller server. ">
<polygon fill="white" stroke="black" points="252.33,-210.5 252.33,-268.5 386.152,-268.5 386.152,-210.5 252.33,-210.5"/>
<text text-anchor="start" x="260.33" y="-256.5" font-family="Helvetica,sans-Serif" font-size="10.00">/Users/jorhabibeljaik</text>
<text text-anchor="start" x="260.33" y="-246.5" font-family="Helvetica,sans-Serif" font-size="10.00">/Code/codyco&#45;superbuild</text>
<text text-anchor="start" x="260.33" y="-236.5" font-family="Helvetica,sans-Serif" font-size="10.00">/main/ocra&#45;wbi&#45;plugins</text>
<text text-anchor="start" x="260.33" y="-226.5" font-family="Helvetica,sans-Serif" font-size="10.00">/ocra&#45;icub&#45;server/include</text>
<text text-anchor="middle" x="319.241" y="-216.5" font-family="Helvetica,sans-Serif" font-size="10.00">/ocra&#45;icub&#45;server/Thread.h</text>
</a>
</g>
</g>
<!-- Node25&#45;&gt;Node29 -->
<g id="edge4" class="edge"><title>Node25&#45;&gt;Node29</title>
<path fill="none" stroke="midnightblue" d="M534.651,-584.222C475.855,-540.551 380.077,-459.209 334.241,-364 319.673,-333.738 317.268,-294.673 317.626,-268.665"/>
<polygon fill="midnightblue" stroke="midnightblue" points="532.915,-587.29 543.047,-590.389 537.059,-581.648 532.915,-587.29"/>
</g>
<!-- Node31 -->
<g id="node7" class="node"><title>Node31</title>
<g id="a_node7"><a xlink:href="IcubClient_8h.html" target="_top" xlink:title="/Users/jorhabibeljaik\l/Code/codyco&#45;superbuild\l/main/ocra&#45;wbi&#45;plugins\l/ocra&#45;icub/include/ocra\l&#45;icub/IcubClient.h">
<polygon fill="white" stroke="black" points="721.931,-210.5 721.931,-268.5 848.551,-268.5 848.551,-210.5 721.931,-210.5"/>
<text text-anchor="start" x="729.931" y="-256.5" font-family="Helvetica,sans-Serif" font-size="10.00">/Users/jorhabibeljaik</text>
<text text-anchor="start" x="729.931" y="-246.5" font-family="Helvetica,sans-Serif" font-size="10.00">/Code/codyco&#45;superbuild</text>
<text text-anchor="start" x="729.931" y="-236.5" font-family="Helvetica,sans-Serif" font-size="10.00">/main/ocra&#45;wbi&#45;plugins</text>
<text text-anchor="start" x="729.931" y="-226.5" font-family="Helvetica,sans-Serif" font-size="10.00">/ocra&#45;icub/include/ocra</text>
<text text-anchor="middle" x="785.241" y="-216.5" font-family="Helvetica,sans-Serif" font-size="10.00">&#45;icub/IcubClient.h</text>
</a>
</g>
</g>
<!-- Node25&#45;&gt;Node31 -->
<g id="edge7" class="edge"><title>Node25&#45;&gt;Node31</title>
<path fill="none" stroke="midnightblue" d="M571.316,-580.854C552.051,-517.258 524.116,-387.438 584.241,-305 615.447,-262.214 675.464,-247.179 721.825,-242.199"/>
<polygon fill="midnightblue" stroke="midnightblue" points="567.998,-581.972 574.318,-590.475 574.68,-579.887 567.998,-581.972"/>
</g>
<!-- Node41 -->
<g id="node17" class="node"><title>Node41</title>
<g id="a_node17"><a xlink:href="OcraWbiConversions_8h.html" target="_top" xlink:title="A utility class full of static conversion functions. ">
<polygon fill="white" stroke="black" points="631.608,-495.5 631.608,-553.5 774.874,-553.5 774.874,-495.5 631.608,-495.5"/>
<text text-anchor="start" x="639.608" y="-541.5" font-family="Helvetica,sans-Serif" font-size="10.00">/Users/jorhabibeljaik</text>
<text text-anchor="start" x="639.608" y="-531.5" font-family="Helvetica,sans-Serif" font-size="10.00">/Code/codyco&#45;superbuild</text>
<text text-anchor="start" x="639.608" y="-521.5" font-family="Helvetica,sans-Serif" font-size="10.00">/main/ocra&#45;wbi&#45;plugins</text>
<text text-anchor="start" x="639.608" y="-511.5" font-family="Helvetica,sans-Serif" font-size="10.00">/ocra&#45;icub/include/ocra</text>
<text text-anchor="middle" x="703.241" y="-501.5" font-family="Helvetica,sans-Serif" font-size="10.00">&#45;icub/OcraWbiConversions.h</text>
</a>
</g>
</g>
<!-- Node25&#45;&gt;Node41 -->
<g id="edge20" class="edge"><title>Node25&#45;&gt;Node41</title>
<path fill="none" stroke="midnightblue" d="M628.507,-583.906C641.306,-573.903 655.114,-563.112 667.337,-553.56"/>
<polygon fill="midnightblue" stroke="midnightblue" points="625.992,-581.429 620.268,-590.345 630.303,-586.945 625.992,-581.429"/>
</g>
<!-- Node42 -->
<g id="node18" class="node"><title>Node42</title>
<g id="a_node18"><a xlink:href="OcraWbiModel_8h.html" target="_top" xlink:title="Implementation of ocra::Model using wholeBodyInterface. ">
<polygon fill="white" stroke="black" points="625.931,-400.5 625.931,-458.5 752.551,-458.5 752.551,-400.5 625.931,-400.5"/>
<text text-anchor="start" x="633.931" y="-446.5" font-family="Helvetica,sans-Serif" font-size="10.00">/Users/jorhabibeljaik</text>
<text text-anchor="start" x="633.931" y="-436.5" font-family="Helvetica,sans-Serif" font-size="10.00">/Code/codyco&#45;superbuild</text>
<text text-anchor="start" x="633.931" y="-426.5" font-family="Helvetica,sans-Serif" font-size="10.00">/main/ocra&#45;wbi&#45;plugins</text>
<text text-anchor="start" x="633.931" y="-416.5" font-family="Helvetica,sans-Serif" font-size="10.00">/ocra&#45;icub/include/ocra</text>
<text text-anchor="middle" x="689.241" y="-406.5" font-family="Helvetica,sans-Serif" font-size="10.00">&#45;icub/OcraWbiModel.h</text>
</a>
</g>
</g>
<!-- Node25&#45;&gt;Node42 -->
<g id="edge32" class="edge"><title>Node25&#45;&gt;Node42</title>
<path fill="none" stroke="midnightblue" d="M590.789,-580.282C596.373,-554.76 606.126,-521.198 622.241,-495 630.447,-481.66 642.053,-469.169 653.305,-458.799"/>
<polygon fill="midnightblue" stroke="midnightblue" points="587.309,-579.832 588.713,-590.333 594.164,-581.248 587.309,-579.832"/>
</g>
<!-- Node49 -->
<g id="node25" class="node"><title>Node49</title>
<g id="a_node25"><a xlink:href="Utilities_8cpp.html" target="_top" xlink:title="Some useful tools for the ocra&#45;icub lib. ">
<polygon fill="white" stroke="black" points="793.281,-500.5 793.281,-548.5 923.202,-548.5 923.202,-500.5 793.281,-500.5"/>
<text text-anchor="start" x="801.281" y="-536.5" font-family="Helvetica,sans-Serif" font-size="10.00">/Users/jorhabibeljaik</text>
<text text-anchor="start" x="801.281" y="-526.5" font-family="Helvetica,sans-Serif" font-size="10.00">/Code/codyco&#45;superbuild</text>
<text text-anchor="start" x="801.281" y="-516.5" font-family="Helvetica,sans-Serif" font-size="10.00">/main/ocra&#45;wbi&#45;plugins</text>
<text text-anchor="middle" x="858.241" y="-506.5" font-family="Helvetica,sans-Serif" font-size="10.00">/ocra&#45;icub/src/Utilities.cpp</text>
</a>
</g>
</g>
<!-- Node25&#45;&gt;Node49 -->
<g id="edge33" class="edge"><title>Node25&#45;&gt;Node49</title>
<path fill="none" stroke="midnightblue" d="M657.551,-595.933C695.53,-583.971 742.561,-568.734 784.241,-554 789.174,-552.256 794.272,-550.402 799.379,-548.509"/>
<polygon fill="midnightblue" stroke="midnightblue" points="656.089,-592.724 647.597,-599.059 658.186,-599.402 656.089,-592.724"/>
</g>
<!-- Node27 -->
<g id="node3" class="node"><title>Node27</title>
<g id="a_node3"><a xlink:href="main_8cpp.html" target="_top" xlink:title="Basically just launches the server module which then launches the server thread. (...it&#39;s a dream within a dream) ">
<polygon fill="white" stroke="black" points="0,-10.5 0,-58.5 150.482,-58.5 150.482,-10.5 0,-10.5"/>
<text text-anchor="start" x="8" y="-46.5" font-family="Helvetica,sans-Serif" font-size="10.00">/Users/jorhabibeljaik</text>
<text text-anchor="start" x="8" y="-36.5" font-family="Helvetica,sans-Serif" font-size="10.00">/Code/codyco&#45;superbuild</text>
<text text-anchor="start" x="8" y="-26.5" font-family="Helvetica,sans-Serif" font-size="10.00">/main/ocra&#45;wbi&#45;plugins</text>
<text text-anchor="middle" x="75.2412" y="-16.5" font-family="Helvetica,sans-Serif" font-size="10.00">/ocra&#45;icub&#45;server/src/main.cpp</text>
</a>
</g>
</g>
<!-- Node26&#45;&gt;Node27 -->
<g id="edge2" class="edge"><title>Node26&#45;&gt;Node27</title>
<path fill="none" stroke="midnightblue" d="M175.074,-104.512C153.366,-89.5056 128.4,-72.2476 108.866,-58.7436"/>
<polygon fill="midnightblue" stroke="midnightblue" points="173.31,-107.547 183.526,-110.355 177.291,-101.789 173.31,-107.547"/>
</g>
<!-- Node28 -->
<g id="node4" class="node"><title>Node28</title>
<g id="a_node4"><a xlink:href="Module_8cpp.html" target="_top" xlink:title="/Users/jorhabibeljaik\l/Code/codyco&#45;superbuild\l/main/ocra&#45;wbi&#45;plugins\l/ocra&#45;icub&#45;server/src/Module.cpp">
<polygon fill="white" stroke="black" points="168.438,-10.5 168.438,-58.5 330.044,-58.5 330.044,-10.5 168.438,-10.5"/>
<text text-anchor="start" x="176.438" y="-46.5" font-family="Helvetica,sans-Serif" font-size="10.00">/Users/jorhabibeljaik</text>
<text text-anchor="start" x="176.438" y="-36.5" font-family="Helvetica,sans-Serif" font-size="10.00">/Code/codyco&#45;superbuild</text>
<text text-anchor="start" x="176.438" y="-26.5" font-family="Helvetica,sans-Serif" font-size="10.00">/main/ocra&#45;wbi&#45;plugins</text>
<text text-anchor="middle" x="249.241" y="-16.5" font-family="Helvetica,sans-Serif" font-size="10.00">/ocra&#45;icub&#45;server/src/Module.cpp</text>
</a>
</g>
</g>
<!-- Node26&#45;&gt;Node28 -->
<g id="edge3" class="edge"><title>Node26&#45;&gt;Node28</title>
<path fill="none" stroke="midnightblue" d="M233.47,-100.479C236.867,-86.4805 240.612,-71.0525 243.6,-58.7436"/>
<polygon fill="midnightblue" stroke="midnightblue" points="230.03,-99.8114 231.073,-110.355 236.833,-101.463 230.03,-99.8114"/>
</g>
<!-- Node29&#45;&gt;Node26 -->
<g id="edge5" class="edge"><title>Node29&#45;&gt;Node26</title>
<path fill="none" stroke="midnightblue" d="M284.957,-203.134C273.945,-191.774 261.903,-179.351 251.468,-168.587"/>
<polygon fill="midnightblue" stroke="midnightblue" points="282.545,-205.673 292.018,-210.417 287.571,-200.801 282.545,-205.673"/>
</g>
<!-- Node30 -->
<g id="node6" class="node"><title>Node30</title>
<g id="a_node6"><a xlink:href="Thread_8cpp.html" target="_top" xlink:title="The thread class for the controller server. ">
<polygon fill="white" stroke="black" points="309.995,-115.5 309.995,-163.5 470.487,-163.5 470.487,-115.5 309.995,-115.5"/>
<text text-anchor="start" x="317.995" y="-151.5" font-family="Helvetica,sans-Serif" font-size="10.00">/Users/jorhabibeljaik</text>
<text text-anchor="start" x="317.995" y="-141.5" font-family="Helvetica,sans-Serif" font-size="10.00">/Code/codyco&#45;superbuild</text>
<text text-anchor="start" x="317.995" y="-131.5" font-family="Helvetica,sans-Serif" font-size="10.00">/main/ocra&#45;wbi&#45;plugins</text>
<text text-anchor="middle" x="390.241" y="-121.5" font-family="Helvetica,sans-Serif" font-size="10.00">/ocra&#45;icub&#45;server/src/Thread.cpp</text>
</a>
</g>
</g>
<!-- Node29&#45;&gt;Node30 -->
<g id="edge6" class="edge"><title>Node29&#45;&gt;Node30</title>
<path fill="none" stroke="midnightblue" d="M345.565,-202.166C354.907,-189.271 365.159,-175.121 373.483,-163.631"/>
<polygon fill="midnightblue" stroke="midnightblue" points="342.62,-200.266 339.587,-210.417 348.288,-204.372 342.62,-200.266"/>
</g>
<!-- Node32 -->
<g id="node8" class="node"><title>Node32</title>
<g id="a_node8"><a xlink:href="ExampleClient_8h.html" target="_top" xlink:title="/Users/jorhabibeljaik\l/Code/codyco&#45;superbuild\l/main/ocra&#45;wbi&#45;plugins\l/ocra&#45;icub&#45;clients/example\l&#45;client/include/example&#45;client\l/ExampleClient.h">
<polygon fill="white" stroke="black" points="535.044,-105.5 535.044,-173.5 679.438,-173.5 679.438,-105.5 535.044,-105.5"/>
<text text-anchor="start" x="543.044" y="-161.5" font-family="Helvetica,sans-Serif" font-size="10.00">/Users/jorhabibeljaik</text>
<text text-anchor="start" x="543.044" y="-151.5" font-family="Helvetica,sans-Serif" font-size="10.00">/Code/codyco&#45;superbuild</text>
<text text-anchor="start" x="543.044" y="-141.5" font-family="Helvetica,sans-Serif" font-size="10.00">/main/ocra&#45;wbi&#45;plugins</text>
<text text-anchor="start" x="543.044" y="-131.5" font-family="Helvetica,sans-Serif" font-size="10.00">/ocra&#45;icub&#45;clients/example</text>
<text text-anchor="start" x="543.044" y="-121.5" font-family="Helvetica,sans-Serif" font-size="10.00">&#45;client/include/example&#45;client</text>
<text text-anchor="middle" x="607.241" y="-111.5" font-family="Helvetica,sans-Serif" font-size="10.00">/ExampleClient.h</text>
</a>
</g>
</g>
<!-- Node31&#45;&gt;Node32 -->
<g id="edge8" class="edge"><title>Node31&#45;&gt;Node32</title>
<path fill="none" stroke="midnightblue" d="M725.249,-205.471C706.601,-195.204 686.045,-183.886 667.387,-173.614"/>
<polygon fill="midnightblue" stroke="midnightblue" points="723.785,-208.66 734.234,-210.417 727.162,-202.528 723.785,-208.66"/>
</g>
<!-- Node33 -->
<g id="node9" class="node"><title>Node33</title>
<g id="a_node9"><a xlink:href="example-client_8cpp.html" target="_top" xlink:title="/Users/jorhabibeljaik\l/Code/codyco&#45;superbuild\l/main/ocra&#45;wbi&#45;plugins\l/ocra&#45;icub&#45;clients/example\l&#45;client/src/example&#45;client.cpp">
<polygon fill="white" stroke="black" points="371.773,-5.5 371.773,-63.5 516.709,-63.5 516.709,-5.5 371.773,-5.5"/>
<text text-anchor="start" x="379.773" y="-51.5" font-family="Helvetica,sans-Serif" font-size="10.00">/Users/jorhabibeljaik</text>
<text text-anchor="start" x="379.773" y="-41.5" font-family="Helvetica,sans-Serif" font-size="10.00">/Code/codyco&#45;superbuild</text>
<text text-anchor="start" x="379.773" y="-31.5" font-family="Helvetica,sans-Serif" font-size="10.00">/main/ocra&#45;wbi&#45;plugins</text>
<text text-anchor="start" x="379.773" y="-21.5" font-family="Helvetica,sans-Serif" font-size="10.00">/ocra&#45;icub&#45;clients/example</text>
<text text-anchor="middle" x="444.241" y="-11.5" font-family="Helvetica,sans-Serif" font-size="10.00">&#45;client/src/example&#45;client.cpp</text>
</a>
</g>
</g>
<!-- Node31&#45;&gt;Node33 -->
<g id="edge11" class="edge"><title>Node31&#45;&gt;Node33</title>
<path fill="none" stroke="midnightblue" d="M711.754,-235.27C656.039,-229.492 580.12,-214.128 526.241,-174 516.212,-166.531 480.118,-101.793 459.312,-63.5252"/>
<polygon fill="midnightblue" stroke="midnightblue" points="711.625,-238.774 721.913,-236.242 712.291,-231.806 711.625,-238.774"/>
</g>
<!-- Node35 -->
<g id="node11" class="node"><title>Node35</title>
<g id="a_node11"><a xlink:href="SteppingDemoClient_8h.html" target="_top" xlink:title="/Users/jorhabibeljaik\l/Code/codyco&#45;superbuild\l/main/ocra&#45;wbi&#45;plugins\l/ocra&#45;icub&#45;clients/stepping\l&#45;demo/include/stepping&#45;demo\l/SteppingDemoClient.h">
<polygon fill="white" stroke="black" points="800.37,-105.5 800.37,-173.5 948.113,-173.5 948.113,-105.5 800.37,-105.5"/>
<text text-anchor="start" x="808.37" y="-161.5" font-family="Helvetica,sans-Serif" font-size="10.00">/Users/jorhabibeljaik</text>
<text text-anchor="start" x="808.37" y="-151.5" font-family="Helvetica,sans-Serif" font-size="10.00">/Code/codyco&#45;superbuild</text>
<text text-anchor="start" x="808.37" y="-141.5" font-family="Helvetica,sans-Serif" font-size="10.00">/main/ocra&#45;wbi&#45;plugins</text>
<text text-anchor="start" x="808.37" y="-131.5" font-family="Helvetica,sans-Serif" font-size="10.00">/ocra&#45;icub&#45;clients/stepping</text>
<text text-anchor="start" x="808.37" y="-121.5" font-family="Helvetica,sans-Serif" font-size="10.00">&#45;demo/include/stepping&#45;demo</text>
<text text-anchor="middle" x="874.241" y="-111.5" font-family="Helvetica,sans-Serif" font-size="10.00">/SteppingDemoClient.h</text>
</a>
</g>
</g>
<!-- Node31&#45;&gt;Node35 -->
<g id="edge12" class="edge"><title>Node31&#45;&gt;Node35</title>
<path fill="none" stroke="midnightblue" d="M817.51,-202.968C826.158,-193.446 835.474,-183.187 844.008,-173.79"/>
<polygon fill="midnightblue" stroke="midnightblue" points="814.877,-200.661 810.745,-210.417 820.059,-205.367 814.877,-200.661"/>
</g>
<!-- Node36 -->
<g id="node12" class="node"><title>Node36</title>
<g id="a_node12"><a xlink:href="stepping-demo_8cpp.html" target="_top" xlink:title="/Users/jorhabibeljaik\l/Code/codyco&#45;superbuild\l/main/ocra&#45;wbi&#45;plugins\l/ocra&#45;icub&#45;clients/stepping\l&#45;demo/src/stepping&#45;demo.cpp">
<polygon fill="white" stroke="black" points="698.099,-5.5 698.099,-63.5 846.384,-63.5 846.384,-5.5 698.099,-5.5"/>
<text text-anchor="start" x="706.099" y="-51.5" font-family="Helvetica,sans-Serif" font-size="10.00">/Users/jorhabibeljaik</text>
<text text-anchor="start" x="706.099" y="-41.5" font-family="Helvetica,sans-Serif" font-size="10.00">/Code/codyco&#45;superbuild</text>
<text text-anchor="start" x="706.099" y="-31.5" font-family="Helvetica,sans-Serif" font-size="10.00">/main/ocra&#45;wbi&#45;plugins</text>
<text text-anchor="start" x="706.099" y="-21.5" font-family="Helvetica,sans-Serif" font-size="10.00">/ocra&#45;icub&#45;clients/stepping</text>
<text text-anchor="middle" x="772.241" y="-11.5" font-family="Helvetica,sans-Serif" font-size="10.00">&#45;demo/src/stepping&#45;demo.cpp</text>
</a>
</g>
</g>
<!-- Node31&#45;&gt;Node36 -->
<g id="edge15" class="edge"><title>Node31&#45;&gt;Node36</title>
<path fill="none" stroke="midnightblue" d="M782.787,-200.176C780.244,-160.472 776.331,-99.357 774.054,-63.813"/>
<polygon fill="midnightblue" stroke="midnightblue" points="779.302,-200.518 783.434,-210.274 786.287,-200.07 779.302,-200.518"/>
</g>
<!-- Node38 -->
<g id="node14" class="node"><title>Node38</title>
<g id="a_node14"><a xlink:href="TaskOpsClient_8h.html" target="_top" xlink:title="/Users/jorhabibeljaik\l/Code/codyco&#45;superbuild\l/main/ocra&#45;wbi&#45;plugins\l/ocra&#45;icub&#45;clients/task\l&#45;operations&#45;demo/include\l/task&#45;operations&#45;demo/TaskOpsClient.h">
<polygon fill="white" stroke="black" points="1026.7,-105.5 1026.7,-173.5 1217.78,-173.5 1217.78,-105.5 1026.7,-105.5"/>
<text text-anchor="start" x="1034.7" y="-161.5" font-family="Helvetica,sans-Serif" font-size="10.00">/Users/jorhabibeljaik</text>
<text text-anchor="start" x="1034.7" y="-151.5" font-family="Helvetica,sans-Serif" font-size="10.00">/Code/codyco&#45;superbuild</text>
<text text-anchor="start" x="1034.7" y="-141.5" font-family="Helvetica,sans-Serif" font-size="10.00">/main/ocra&#45;wbi&#45;plugins</text>
<text text-anchor="start" x="1034.7" y="-131.5" font-family="Helvetica,sans-Serif" font-size="10.00">/ocra&#45;icub&#45;clients/task</text>
<text text-anchor="start" x="1034.7" y="-121.5" font-family="Helvetica,sans-Serif" font-size="10.00">&#45;operations&#45;demo/include</text>
<text text-anchor="middle" x="1122.24" y="-111.5" font-family="Helvetica,sans-Serif" font-size="10.00">/task&#45;operations&#45;demo/TaskOpsClient.h</text>
</a>
</g>
</g>
<!-- Node31&#45;&gt;Node38 -->
<g id="edge16" class="edge"><title>Node31&#45;&gt;Node38</title>
<path fill="none" stroke="midnightblue" d="M858.37,-209.777C921.781,-189.869 940.438,-190.015 1001.24,-174 1009.46,-171.835 1017.99,-169.552 1026.53,-167.237"/>
<polygon fill="midnightblue" stroke="midnightblue" points="857.145,-206.493 848.68,-212.863 859.27,-213.163 857.145,-206.493"/>
</g>
<!-- Node39 -->
<g id="node15" class="node"><title>Node39</title>
<g id="a_node15"><a xlink:href="task-operations-demo_8cpp.html" target="_top" xlink:title="/Users/jorhabibeljaik\l/Code/codyco&#45;superbuild\l/main/ocra&#45;wbi&#45;plugins\l/ocra&#45;icub&#45;clients/task\l&#45;operations&#45;demo/src/task\l&#45;operations&#45;demo.cpp">
<polygon fill="white" stroke="black" points="1056.44,-0.5 1056.44,-68.5 1188.04,-68.5 1188.04,-0.5 1056.44,-0.5"/>
<text text-anchor="start" x="1064.44" y="-56.5" font-family="Helvetica,sans-Serif" font-size="10.00">/Users/jorhabibeljaik</text>
<text text-anchor="start" x="1064.44" y="-46.5" font-family="Helvetica,sans-Serif" font-size="10.00">/Code/codyco&#45;superbuild</text>
<text text-anchor="start" x="1064.44" y="-36.5" font-family="Helvetica,sans-Serif" font-size="10.00">/main/ocra&#45;wbi&#45;plugins</text>
<text text-anchor="start" x="1064.44" y="-26.5" font-family="Helvetica,sans-Serif" font-size="10.00">/ocra&#45;icub&#45;clients/task</text>
<text text-anchor="start" x="1064.44" y="-16.5" font-family="Helvetica,sans-Serif" font-size="10.00">&#45;operations&#45;demo/src/task</text>
<text text-anchor="middle" x="1122.24" y="-6.5" font-family="Helvetica,sans-Serif" font-size="10.00">&#45;operations&#45;demo.cpp</text>
</a>
</g>
</g>
<!-- Node31&#45;&gt;Node39 -->
<g id="edge19" class="edge"><title>Node31&#45;&gt;Node39</title>
<path fill="none" stroke="midnightblue" d="M858.265,-209.787C903.62,-194.094 920.699,-199.016 957.241,-174 990.775,-151.043 986.685,-131.793 1017.24,-105 1032.2,-91.8846 1049.79,-79.3115 1066.25,-68.5525"/>
<polygon fill="midnightblue" stroke="midnightblue" points="857.012,-206.518 848.803,-213.215 859.397,-213.099 857.012,-206.518"/>
</g>
<!-- Node32&#45;&gt;Node33 -->
<g id="edge9" class="edge"><title>Node32&#45;&gt;Node33</title>
<path fill="none" stroke="midnightblue" d="M546.133,-99.8858C527.057,-87.8313 506.387,-74.7702 488.682,-63.5825"/>
<polygon fill="midnightblue" stroke="midnightblue" points="544.446,-102.96 554.77,-105.343 548.186,-97.0425 544.446,-102.96"/>
</g>
<!-- Node34 -->
<g id="node10" class="node"><title>Node34</title>
<g id="a_node10"><a xlink:href="ExampleClient_8cpp.html" target="_top" xlink:title="/Users/jorhabibeljaik\l/Code/codyco&#45;superbuild\l/main/ocra&#45;wbi&#45;plugins\l/ocra&#45;icub&#45;clients/example\l&#45;client/src/ExampleClient.cpp">
<polygon fill="white" stroke="black" points="534.773,-5.5 534.773,-63.5 679.709,-63.5 679.709,-5.5 534.773,-5.5"/>
<text text-anchor="start" x="542.773" y="-51.5" font-family="Helvetica,sans-Serif" font-size="10.00">/Users/jorhabibeljaik</text>
<text text-anchor="start" x="542.773" y="-41.5" font-family="Helvetica,sans-Serif" font-size="10.00">/Code/codyco&#45;superbuild</text>
<text text-anchor="start" x="542.773" y="-31.5" font-family="Helvetica,sans-Serif" font-size="10.00">/main/ocra&#45;wbi&#45;plugins</text>
<text text-anchor="start" x="542.773" y="-21.5" font-family="Helvetica,sans-Serif" font-size="10.00">/ocra&#45;icub&#45;clients/example</text>
<text text-anchor="middle" x="607.241" y="-11.5" font-family="Helvetica,sans-Serif" font-size="10.00">&#45;client/src/ExampleClient.cpp</text>
</a>
</g>
</g>
<!-- Node32&#45;&gt;Node34 -->
<g id="edge10" class="edge"><title>Node32&#45;&gt;Node34</title>
<path fill="none" stroke="midnightblue" d="M607.241,-95.3273C607.241,-84.6595 607.241,-73.502 607.241,-63.7516"/>
<polygon fill="midnightblue" stroke="midnightblue" points="603.741,-95.3432 607.241,-105.343 610.741,-95.3432 603.741,-95.3432"/>
</g>
<!-- Node35&#45;&gt;Node36 -->
<g id="edge13" class="edge"><title>Node35&#45;&gt;Node36</title>
<path fill="none" stroke="midnightblue" d="M834.091,-97.9557C822.755,-86.5094 810.671,-74.3061 800.219,-63.7516"/>
<polygon fill="midnightblue" stroke="midnightblue" points="831.883,-100.7 841.406,-105.343 836.857,-95.7749 831.883,-100.7"/>
</g>
<!-- Node37 -->
<g id="node13" class="node"><title>Node37</title>
<g id="a_node13"><a xlink:href="SteppingDemoClient_8cpp.html" target="_top" xlink:title="/Users/jorhabibeljaik\l/Code/codyco&#45;superbuild\l/main/ocra&#45;wbi&#45;plugins\l/ocra&#45;icub&#45;clients/stepping\l&#45;demo/src/SteppingDemoClient.cpp">
<polygon fill="white" stroke="black" points="864.315,-5.5 864.315,-63.5 1038.17,-63.5 1038.17,-5.5 864.315,-5.5"/>
<text text-anchor="start" x="872.315" y="-51.5" font-family="Helvetica,sans-Serif" font-size="10.00">/Users/jorhabibeljaik</text>
<text text-anchor="start" x="872.315" y="-41.5" font-family="Helvetica,sans-Serif" font-size="10.00">/Code/codyco&#45;superbuild</text>
<text text-anchor="start" x="872.315" y="-31.5" font-family="Helvetica,sans-Serif" font-size="10.00">/main/ocra&#45;wbi&#45;plugins</text>
<text text-anchor="start" x="872.315" y="-21.5" font-family="Helvetica,sans-Serif" font-size="10.00">/ocra&#45;icub&#45;clients/stepping</text>
<text text-anchor="middle" x="951.241" y="-11.5" font-family="Helvetica,sans-Serif" font-size="10.00">&#45;demo/src/SteppingDemoClient.cpp</text>
</a>
</g>
</g>
<!-- Node35&#45;&gt;Node37 -->
<g id="edge14" class="edge"><title>Node35&#45;&gt;Node37</title>
<path fill="none" stroke="midnightblue" d="M905.041,-97.3008C913.455,-86.0451 922.381,-74.1051 930.121,-63.7516"/>
<polygon fill="midnightblue" stroke="midnightblue" points="902.213,-95.2382 899.028,-105.343 907.819,-99.4295 902.213,-95.2382"/>
</g>
<!-- Node38&#45;&gt;Node39 -->
<g id="edge17" class="edge"><title>Node38&#45;&gt;Node39</title>
<path fill="none" stroke="midnightblue" d="M1122.24,-95.1362C1122.24,-86.256 1122.24,-77.0447 1122.24,-68.5947"/>
<polygon fill="midnightblue" stroke="midnightblue" points="1118.74,-95.3432 1122.24,-105.343 1125.74,-95.3432 1118.74,-95.3432"/>
</g>
<!-- Node40 -->
<g id="node16" class="node"><title>Node40</title>
<g id="a_node16"><a xlink:href="TaskOpsClient_8cpp.html" target="_top" xlink:title="/Users/jorhabibeljaik\l/Code/codyco&#45;superbuild\l/main/ocra&#45;wbi&#45;plugins\l/ocra&#45;icub&#45;clients/task\l&#45;operations&#45;demo/src/TaskOpsClient.cpp">
<polygon fill="white" stroke="black" points="1205.93,-5.5 1205.93,-63.5 1402.56,-63.5 1402.56,-5.5 1205.93,-5.5"/>
<text text-anchor="start" x="1213.93" y="-51.5" font-family="Helvetica,sans-Serif" font-size="10.00">/Users/jorhabibeljaik</text>
<text text-anchor="start" x="1213.93" y="-41.5" font-family="Helvetica,sans-Serif" font-size="10.00">/Code/codyco&#45;superbuild</text>
<text text-anchor="start" x="1213.93" y="-31.5" font-family="Helvetica,sans-Serif" font-size="10.00">/main/ocra&#45;wbi&#45;plugins</text>
<text text-anchor="start" x="1213.93" y="-21.5" font-family="Helvetica,sans-Serif" font-size="10.00">/ocra&#45;icub&#45;clients/task</text>
<text text-anchor="middle" x="1304.24" y="-11.5" font-family="Helvetica,sans-Serif" font-size="10.00">&#45;operations&#45;demo/src/TaskOpsClient.cpp</text>
</a>
</g>
</g>
<!-- Node38&#45;&gt;Node40 -->
<g id="edge18" class="edge"><title>Node38&#45;&gt;Node40</title>
<path fill="none" stroke="midnightblue" d="M1189.37,-100.512C1210.92,-88.312 1234.4,-75.023 1254.49,-63.6577"/>
<polygon fill="midnightblue" stroke="midnightblue" points="1187.56,-97.5138 1180.58,-105.485 1191,-103.606 1187.56,-97.5138"/>
</g>
<!-- Node41&#45;&gt;Node31 -->
<g id="edge21" class="edge"><title>Node41&#45;&gt;Node31</title>
<path fill="none" stroke="midnightblue" d="M784.325,-494.894C841.456,-469.976 913.694,-427.714 948.241,-364 960.74,-340.948 962.983,-326.686 948.241,-305 948.241,-305 894.496,-283.733 848.728,-265.622"/>
<polygon fill="midnightblue" stroke="midnightblue" points="782.761,-491.756 774.933,-498.895 785.504,-498.196 782.761,-491.756"/>
</g>
<!-- Node41&#45;&gt;Node42 -->
<g id="edge22" class="edge"><title>Node41&#45;&gt;Node42</title>
<path fill="none" stroke="midnightblue" d="M697.513,-485.448C696.159,-476.453 694.739,-467.02 693.465,-458.56"/>
<polygon fill="midnightblue" stroke="midnightblue" points="694.053,-485.977 699.003,-495.345 700.975,-484.935 694.053,-485.977"/>
</g>
<!-- Node48 -->
<g id="node24" class="node"><title>Node48</title>
<g id="a_node24"><a xlink:href="OcraWbiConversions_8cpp.html" target="_top" xlink:title="A utility class full of static conversion functions. ">
<polygon fill="white" stroke="black" points="995.158,-405.5 995.158,-453.5 1187.32,-453.5 1187.32,-405.5 995.158,-405.5"/>
<text text-anchor="start" x="1003.16" y="-441.5" font-family="Helvetica,sans-Serif" font-size="10.00">/Users/jorhabibeljaik</text>
<text text-anchor="start" x="1003.16" y="-431.5" font-family="Helvetica,sans-Serif" font-size="10.00">/Code/codyco&#45;superbuild</text>
<text text-anchor="start" x="1003.16" y="-421.5" font-family="Helvetica,sans-Serif" font-size="10.00">/main/ocra&#45;wbi&#45;plugins</text>
<text text-anchor="middle" x="1091.24" y="-411.5" font-family="Helvetica,sans-Serif" font-size="10.00">/ocra&#45;icub/src/OcraWbiConversions.cpp</text>
</a>
</g>
</g>
<!-- Node41&#45;&gt;Node48 -->
<g id="edge31" class="edge"><title>Node41&#45;&gt;Node48</title>
<path fill="none" stroke="midnightblue" d="M784.831,-495.008C872.035,-472.55 897.381,-477.5 981.241,-459 988.851,-457.321 996.731,-455.482 1004.62,-453.572"/>
<polygon fill="midnightblue" stroke="midnightblue" points="783.831,-491.652 775.046,-497.575 785.607,-498.423 783.831,-491.652"/>
</g>
<!-- Node42&#45;&gt;Node31 -->
<g id="edge26" class="edge"><title>Node42&#45;&gt;Node31</title>
<path fill="none" stroke="midnightblue" d="M741.609,-393.601C751.146,-384.99 760.027,-375.029 766.241,-364 782.906,-334.422 786.296,-294.853 786.414,-268.562"/>
<polygon fill="midnightblue" stroke="midnightblue" points="739.196,-391.06 733.859,-400.212 743.739,-396.385 739.196,-391.06"/>
</g>
<!-- Node43 -->
<g id="node19" class="node"><title>Node43</title>
<g id="a_node19"><a xlink:href="IcubControllerServer_8h.html" target="_top" xlink:title="/Users/jorhabibeljaik\l/Code/codyco&#45;superbuild\l/main/ocra&#45;wbi&#45;plugins\l/ocra&#45;icub&#45;server/include\l/ocra&#45;icub&#45;server/IcubControllerServer.h">
<polygon fill="white" stroke="black" points="343.594,-305.5 343.594,-363.5 536.889,-363.5 536.889,-305.5 343.594,-305.5"/>
<text text-anchor="start" x="351.594" y="-351.5" font-family="Helvetica,sans-Serif" font-size="10.00">/Users/jorhabibeljaik</text>
<text text-anchor="start" x="351.594" y="-341.5" font-family="Helvetica,sans-Serif" font-size="10.00">/Code/codyco&#45;superbuild</text>
<text text-anchor="start" x="351.594" y="-331.5" font-family="Helvetica,sans-Serif" font-size="10.00">/main/ocra&#45;wbi&#45;plugins</text>
<text text-anchor="start" x="351.594" y="-321.5" font-family="Helvetica,sans-Serif" font-size="10.00">/ocra&#45;icub&#45;server/include</text>
<text text-anchor="middle" x="440.241" y="-311.5" font-family="Helvetica,sans-Serif" font-size="10.00">/ocra&#45;icub&#45;server/IcubControllerServer.h</text>
</a>
</g>
</g>
<!-- Node42&#45;&gt;Node43 -->
<g id="edge23" class="edge"><title>Node42&#45;&gt;Node43</title>
<path fill="none" stroke="midnightblue" d="M616.126,-401.192C584.477,-389.371 547.455,-375.544 515.563,-363.632"/>
<polygon fill="midnightblue" stroke="midnightblue" points="615.171,-404.571 625.764,-404.792 617.62,-398.014 615.171,-404.571"/>
</g>
<!-- Node45 -->
<g id="node21" class="node"><title>Node45</title>
<g id="a_node21"><a xlink:href="ModelInitializer_8h.html" target="_top" xlink:title="/Users/jorhabibeljaik\l/Code/codyco&#45;superbuild\l/main/ocra&#45;wbi&#45;plugins\l/ocra&#45;icub/include/ocra\l&#45;icub/ModelInitializer.h">
<polygon fill="white" stroke="black" points="812.931,-305.5 812.931,-363.5 939.551,-363.5 939.551,-305.5 812.931,-305.5"/>
<text text-anchor="start" x="820.931" y="-351.5" font-family="Helvetica,sans-Serif" font-size="10.00">/Users/jorhabibeljaik</text>
<text text-anchor="start" x="820.931" y="-341.5" font-family="Helvetica,sans-Serif" font-size="10.00">/Code/codyco&#45;superbuild</text>
<text text-anchor="start" x="820.931" y="-331.5" font-family="Helvetica,sans-Serif" font-size="10.00">/main/ocra&#45;wbi&#45;plugins</text>
<text text-anchor="start" x="820.931" y="-321.5" font-family="Helvetica,sans-Serif" font-size="10.00">/ocra&#45;icub/include/ocra</text>
<text text-anchor="middle" x="876.241" y="-311.5" font-family="Helvetica,sans-Serif" font-size="10.00">&#45;icub/ModelInitializer.h</text>
</a>
</g>
</g>
<!-- Node42&#45;&gt;Node45 -->
<g id="edge27" class="edge"><title>Node42&#45;&gt;Node45</title>
<path fill="none" stroke="midnightblue" d="M754.837,-395.878C775.987,-385.359 799.233,-373.798 819.674,-363.632"/>
<polygon fill="midnightblue" stroke="midnightblue" points="752.996,-392.884 745.601,-400.471 756.113,-399.152 752.996,-392.884"/>
</g>
<!-- Node47 -->
<g id="node23" class="node"><title>Node47</title>
<g id="a_node23"><a xlink:href="OcraWbiModel_8cpp.html" target="_top" xlink:title="Implementation of ocra::Model using wholeBodyInterface. ">
<polygon fill="white" stroke="black" points="593.33,-310.5 593.33,-358.5 757.152,-358.5 757.152,-310.5 593.33,-310.5"/>
<text text-anchor="start" x="601.33" y="-346.5" font-family="Helvetica,sans-Serif" font-size="10.00">/Users/jorhabibeljaik</text>
<text text-anchor="start" x="601.33" y="-336.5" font-family="Helvetica,sans-Serif" font-size="10.00">/Code/codyco&#45;superbuild</text>
<text text-anchor="start" x="601.33" y="-326.5" font-family="Helvetica,sans-Serif" font-size="10.00">/main/ocra&#45;wbi&#45;plugins</text>
<text text-anchor="middle" x="675.241" y="-316.5" font-family="Helvetica,sans-Serif" font-size="10.00">/ocra&#45;icub/src/OcraWbiModel.cpp</text>
</a>
</g>
</g>
<!-- Node42&#45;&gt;Node47 -->
<g id="edge30" class="edge"><title>Node42&#45;&gt;Node47</title>
<path fill="none" stroke="midnightblue" d="M683.489,-390.289C681.868,-379.523 680.155,-368.144 678.713,-358.562"/>
<polygon fill="midnightblue" stroke="midnightblue" points="680.053,-390.977 685.003,-400.345 686.975,-389.935 680.053,-390.977"/>
</g>
<!-- Node43&#45;&gt;Node29 -->
<g id="edge24" class="edge"><title>Node43&#45;&gt;Node29</title>
<path fill="none" stroke="midnightblue" d="M395.603,-299.192C382.485,-289.109 368.296,-278.203 355.749,-268.56"/>
<polygon fill="midnightblue" stroke="midnightblue" points="393.547,-302.026 403.609,-305.345 397.813,-296.476 393.547,-302.026"/>
</g>
<!-- Node44 -->
<g id="node20" class="node"><title>Node44</title>
<g id="a_node20"><a xlink:href="IcubControllerServer_8cpp.html" target="_top" xlink:title="/Users/jorhabibeljaik\l/Code/codyco&#45;superbuild\l/main/ocra&#45;wbi&#45;plugins\l/ocra&#45;icub&#45;server/src/IcubController\lServer.cpp">
<polygon fill="white" stroke="black" points="404.163,-210.5 404.163,-268.5 576.32,-268.5 576.32,-210.5 404.163,-210.5"/>
<text text-anchor="start" x="412.163" y="-256.5" font-family="Helvetica,sans-Serif" font-size="10.00">/Users/jorhabibeljaik</text>
<text text-anchor="start" x="412.163" y="-246.5" font-family="Helvetica,sans-Serif" font-size="10.00">/Code/codyco&#45;superbuild</text>
<text text-anchor="start" x="412.163" y="-236.5" font-family="Helvetica,sans-Serif" font-size="10.00">/main/ocra&#45;wbi&#45;plugins</text>
<text text-anchor="start" x="412.163" y="-226.5" font-family="Helvetica,sans-Serif" font-size="10.00">/ocra&#45;icub&#45;server/src/IcubController</text>
<text text-anchor="middle" x="490.241" y="-216.5" font-family="Helvetica,sans-Serif" font-size="10.00">Server.cpp</text>
</a>
</g>
</g>
<!-- Node43&#45;&gt;Node44 -->
<g id="edge25" class="edge"><title>Node43&#45;&gt;Node44</title>
<path fill="none" stroke="midnightblue" d="M460.232,-296.318C465.208,-287.062 470.46,-277.293 475.155,-268.56"/>
<polygon fill="midnightblue" stroke="midnightblue" points="457.031,-294.879 455.379,-305.345 463.197,-298.194 457.031,-294.879"/>
</g>
<!-- Node45&#45;&gt;Node31 -->
<g id="edge28" class="edge"><title>Node45&#45;&gt;Node31</title>
<path fill="none" stroke="midnightblue" d="M841.55,-298.047C832.001,-288.287 821.777,-277.839 812.698,-268.56"/>
<polygon fill="midnightblue" stroke="midnightblue" points="839.196,-300.645 848.691,-305.345 844.199,-295.749 839.196,-300.645"/>
</g>
<!-- Node46 -->
<g id="node22" class="node"><title>Node46</title>
<g id="a_node22"><a xlink:href="ModelInitializer_8cpp.html" target="_top" xlink:title="/Users/jorhabibeljaik\l/Code/codyco&#45;superbuild\l/main/ocra&#45;wbi&#45;plugins\l/ocra&#45;icub/src/ModelInitializer.cpp">
<polygon fill="white" stroke="black" points="866.32,-215.5 866.32,-263.5 1030.16,-263.5 1030.16,-215.5 866.32,-215.5"/>
<text text-anchor="start" x="874.32" y="-251.5" font-family="Helvetica,sans-Serif" font-size="10.00">/Users/jorhabibeljaik</text>
<text text-anchor="start" x="874.32" y="-241.5" font-family="Helvetica,sans-Serif" font-size="10.00">/Code/codyco&#45;superbuild</text>
<text text-anchor="start" x="874.32" y="-231.5" font-family="Helvetica,sans-Serif" font-size="10.00">/main/ocra&#45;wbi&#45;plugins</text>
<text text-anchor="middle" x="948.241" y="-221.5" font-family="Helvetica,sans-Serif" font-size="10.00">/ocra&#45;icub/src/ModelInitializer.cpp</text>
</a>
</g>
</g>
<!-- Node45&#45;&gt;Node46 -->
<g id="edge29" class="edge"><title>Node45&#45;&gt;Node46</title>
<path fill="none" stroke="midnightblue" d="M904.283,-297.279C913.064,-285.937 922.51,-273.736 930.386,-263.562"/>
<polygon fill="midnightblue" stroke="midnightblue" points="901.393,-295.295 898.039,-305.345 906.928,-299.58 901.393,-295.295"/>
</g>
</g>
</svg>
