<?xml version="1.0" encoding="UTF-8" standalone="no"?>
<!DOCTYPE svg PUBLIC "-//W3C//DTD SVG 1.1//EN"
 "http://www.w3.org/Graphics/SVG/1.1/DTD/svg11.dtd">
<!-- Generated by graphviz version 2.38.0 (20140413.2041)
 -->
<!-- Title: /Users/jorhabibeljaik/Code/codyco&#45;superbuild/main/ocra&#45;wbi&#45;plugins/ocra&#45;icub/src/Utilities.cpp Pages: 1 -->
<svg width="2604pt" height="167pt"
 viewBox="0.00 0.00 2604.46 167.00" xmlns="http://www.w3.org/2000/svg" xmlns:xlink="http://www.w3.org/1999/xlink">
<g id="graph0" class="graph" transform="scale(1 1) rotate(0) translate(4 163)">
<title>/Users/jorhabibeljaik/Code/codyco&#45;superbuild/main/ocra&#45;wbi&#45;plugins/ocra&#45;icub/src/Utilities.cpp</title>
<polygon fill="white" stroke="none" points="-4,4 -4,-163 2600.46,-163 2600.46,4 -4,4"/>
<!-- Node0 -->
<g id="node1" class="node"><title>Node0</title>
<polygon fill="#bfbfbf" stroke="black" points="1149.1,-110.5 1149.1,-158.5 1279.02,-158.5 1279.02,-110.5 1149.1,-110.5"/>
<text text-anchor="start" x="1157.1" y="-146.5" font-family="Helvetica,sans-Serif" font-size="10.00">/Users/jorhabibeljaik</text>
<text text-anchor="start" x="1157.1" y="-136.5" font-family="Helvetica,sans-Serif" font-size="10.00">/Code/codyco&#45;superbuild</text>
<text text-anchor="start" x="1157.1" y="-126.5" font-family="Helvetica,sans-Serif" font-size="10.00">/main/ocra&#45;wbi&#45;plugins</text>
<text text-anchor="middle" x="1214.06" y="-116.5" font-family="Helvetica,sans-Serif" font-size="10.00">/ocra&#45;icub/src/Utilities.cpp</text>
</g>
<!-- Node1 -->
<g id="node2" class="node"><title>Node1</title>
<g id="a_node2"><a xlink:href="Utilities_8h.html" target="_top" xlink:title="Some useful tools for the ocra&#45;icub lib. ">
<polygon fill="white" stroke="black" points="1163.82,-55.5 1163.82,-73.5 1264.29,-73.5 1264.29,-55.5 1163.82,-55.5"/>
<text text-anchor="middle" x="1214.06" y="-61.5" font-family="Helvetica,sans-Serif" font-size="10.00">ocra&#45;icub/Utilities.h</text>
</a>
</g>
</g>
<!-- Node0&#45;&gt;Node1 -->
<g id="edge1" class="edge"><title>Node0&#45;&gt;Node1</title>
<path fill="none" stroke="midnightblue" d="M1214.06,-110.478C1214.06,-101.684 1214.06,-91.7916 1214.06,-83.5282"/>
<polygon fill="midnightblue" stroke="midnightblue" points="1217.56,-83.5255 1214.06,-73.5256 1210.56,-83.5256 1217.56,-83.5255"/>
</g>
<!-- Node2 -->
<g id="node3" class="node"><title>Node2</title>
<polygon fill="white" stroke="#bfbfbf" points="0,-0.5 0,-18.5 52.1133,-18.5 52.1133,-0.5 0,-0.5"/>
<text text-anchor="middle" x="26.0566" y="-6.5" font-family="Helvetica,sans-Serif" font-size="10.00">memory</text>
</g>
<!-- Node1&#45;&gt;Node2 -->
<g id="edge2" class="edge"><title>Node1&#45;&gt;Node2</title>
<path fill="none" stroke="midnightblue" d="M1163.7,-62.894C973.629,-60.4019 298.974,-49.6544 62.5711,-18.8608"/>
<polygon fill="midnightblue" stroke="midnightblue" points="62.7004,-15.3465 52.3214,-17.4742 61.7619,-22.2833 62.7004,-15.3465"/>
</g>
<!-- Node3 -->
<g id="node4" class="node"><title>Node3</title>
<polygon fill="white" stroke="#bfbfbf" points="70.4409,-0.5 70.4409,-18.5 113.672,-18.5 113.672,-0.5 70.4409,-0.5"/>
<text text-anchor="middle" x="92.0566" y="-6.5" font-family="Helvetica,sans-Serif" font-size="10.00">cmath</text>
</g>
<!-- Node1&#45;&gt;Node3 -->
<g id="edge3" class="edge"><title>Node1&#45;&gt;Node3</title>
<path fill="none" stroke="midnightblue" d="M1163.54,-62.9588C979.872,-60.7586 347.14,-51.0877 123.937,-18.6713"/>
<polygon fill="midnightblue" stroke="midnightblue" points="124.349,-15.194 113.938,-17.1605 123.303,-22.1154 124.349,-15.194"/>
</g>
<!-- Node4 -->
<g id="node5" class="node"><title>Node4</title>
<polygon fill="white" stroke="#bfbfbf" points="131.884,-0.5 131.884,-18.5 186.229,-18.5 186.229,-0.5 131.884,-0.5"/>
<text text-anchor="middle" x="159.057" y="-6.5" font-family="Helvetica,sans-Serif" font-size="10.00">iostream</text>
</g>
<!-- Node1&#45;&gt;Node4 -->
<g id="edge4" class="edge"><title>Node1&#45;&gt;Node4</title>
<path fill="none" stroke="midnightblue" d="M1163.56,-62.5533C988.089,-59.0698 404.588,-45.8196 196.397,-18.8699"/>
<polygon fill="midnightblue" stroke="midnightblue" points="196.851,-15.3995 186.474,-17.5347 195.917,-22.337 196.851,-15.3995"/>
</g>
<!-- Node5 -->
<g id="node6" class="node"><title>Node5</title>
<polygon fill="white" stroke="#bfbfbf" points="203.83,-0.5 203.83,-18.5 244.283,-18.5 244.283,-0.5 203.83,-0.5"/>
<text text-anchor="middle" x="224.057" y="-6.5" font-family="Helvetica,sans-Serif" font-size="10.00">string</text>
</g>
<!-- Node1&#45;&gt;Node5 -->
<g id="edge5" class="edge"><title>Node1&#45;&gt;Node5</title>
<path fill="none" stroke="midnightblue" d="M1163.74,-62.7545C995.085,-60.0122 449.935,-49.1158 254.39,-18.7535"/>
<polygon fill="midnightblue" stroke="midnightblue" points="254.942,-15.2975 244.511,-17.1521 253.822,-22.2073 254.942,-15.2975"/>
</g>
<!-- Node6 -->
<g id="node7" class="node"><title>Node6</title>
<polygon fill="white" stroke="#bfbfbf" points="262.441,-0.5 262.441,-18.5 305.672,-18.5 305.672,-0.5 262.441,-0.5"/>
<text text-anchor="middle" x="284.057" y="-6.5" font-family="Helvetica,sans-Serif" font-size="10.00">vector</text>
</g>
<!-- Node1&#45;&gt;Node6 -->
<g id="edge6" class="edge"><title>Node1&#45;&gt;Node6</title>
<path fill="none" stroke="midnightblue" d="M1163.54,-62.5081C1002.04,-59.1054 498.68,-46.6449 315.9,-18.8924"/>
<polygon fill="midnightblue" stroke="midnightblue" points="316.307,-15.4132 305.882,-17.302 315.21,-22.3267 316.307,-15.4132"/>
</g>
<!-- Node7 -->
<g id="node8" class="node"><title>Node7</title>
<polygon fill="white" stroke="#bfbfbf" points="323.276,-0.5 323.276,-18.5 374.837,-18.5 374.837,-0.5 323.276,-0.5"/>
<text text-anchor="middle" x="349.057" y="-6.5" font-family="Helvetica,sans-Serif" font-size="10.00">sstream</text>
</g>
<!-- Node1&#45;&gt;Node7 -->
<g id="edge7" class="edge"><title>Node1&#45;&gt;Node7</title>
<path fill="none" stroke="midnightblue" d="M1163.68,-64.0238C1035.24,-64.6711 685.077,-62.1197 385.146,-18.8418"/>
<polygon fill="midnightblue" stroke="midnightblue" points="385.347,-15.3341 374.946,-17.3514 384.334,-22.2605 385.347,-15.3341"/>
</g>
<!-- Node8 -->
<g id="node9" class="node"><title>Node8</title>
<polygon fill="white" stroke="#bfbfbf" points="393.118,-0.5 393.118,-18.5 508.996,-18.5 508.996,-0.5 393.118,-0.5"/>
<text text-anchor="middle" x="451.057" y="-6.5" font-family="Helvetica,sans-Serif" font-size="10.00">yarp/os/BufferedPort.h</text>
</g>
<!-- Node1&#45;&gt;Node8 -->
<g id="edge8" class="edge"><title>Node1&#45;&gt;Node8</title>
<path fill="none" stroke="midnightblue" d="M1163.75,-61.3609C1050.62,-56.318 767.312,-42.3921 519.424,-19.0686"/>
<polygon fill="midnightblue" stroke="midnightblue" points="519.422,-15.5529 509.137,-18.0933 518.762,-22.5216 519.422,-15.5529"/>
</g>
<!-- Node9 -->
<g id="node10" class="node"><title>Node9</title>
<polygon fill="white" stroke="#bfbfbf" points="527.315,-0.5 527.315,-18.5 612.798,-18.5 612.798,-0.5 527.315,-0.5"/>
<text text-anchor="middle" x="570.057" y="-6.5" font-family="Helvetica,sans-Serif" font-size="10.00">yarp/os/Bottle.h</text>
</g>
<!-- Node1&#45;&gt;Node9 -->
<g id="edge9" class="edge"><title>Node1&#45;&gt;Node9</title>
<path fill="none" stroke="midnightblue" d="M1163.63,-61.1917C1062.91,-56.2608 829.563,-43.2259 622.991,-18.9994"/>
<polygon fill="midnightblue" stroke="midnightblue" points="623.206,-15.5005 612.864,-17.8001 622.383,-22.4519 623.206,-15.5005"/>
</g>
<!-- Node10 -->
<g id="node11" class="node"><title>Node10</title>
<polygon fill="white" stroke="#bfbfbf" points="630.697,-0.5 630.697,-18.5 743.416,-18.5 743.416,-0.5 630.697,-0.5"/>
<text text-anchor="middle" x="687.057" y="-6.5" font-family="Helvetica,sans-Serif" font-size="10.00">yarp/os/RateThread.h</text>
</g>
<!-- Node1&#45;&gt;Node10 -->
<g id="edge10" class="edge"><title>Node1&#45;&gt;Node10</title>
<path fill="none" stroke="midnightblue" d="M1163.52,-59.1524C1080.46,-51.8902 909.617,-36.465 753.808,-19.0482"/>
<polygon fill="midnightblue" stroke="midnightblue" points="753.896,-15.5362 743.568,-17.8982 753.115,-22.4925 753.896,-15.5362"/>
</g>
<!-- Node11 -->
<g id="node12" class="node"><title>Node11</title>
<polygon fill="white" stroke="#bfbfbf" points="761.803,-0.5 761.803,-18.5 892.31,-18.5 892.31,-0.5 761.803,-0.5"/>
<text text-anchor="middle" x="827.057" y="-6.5" font-family="Helvetica,sans-Serif" font-size="10.00">yarp/os/ResourceFinder.h</text>
</g>
<!-- Node1&#45;&gt;Node11 -->
<g id="edge11" class="edge"><title>Node1&#45;&gt;Node11</title>
<path fill="none" stroke="midnightblue" d="M1163.46,-56.5712C1094.93,-47.1859 972.37,-30.4008 895.619,-19.8897"/>
<polygon fill="midnightblue" stroke="midnightblue" points="895.95,-16.4024 885.568,-18.5131 895,-23.3377 895.95,-16.4024"/>
</g>
<!-- Node12 -->
<g id="node13" class="node"><title>Node12</title>
<polygon fill="white" stroke="#bfbfbf" points="910.806,-0.5 910.806,-18.5 1021.31,-18.5 1021.31,-0.5 910.806,-0.5"/>
<text text-anchor="middle" x="966.057" y="-6.5" font-family="Helvetica,sans-Serif" font-size="10.00">yarp/os/PortReader.h</text>
</g>
<!-- Node1&#45;&gt;Node12 -->
<g id="edge12" class="edge"><title>Node1&#45;&gt;Node12</title>
<path fill="none" stroke="midnightblue" d="M1176.39,-55.4504C1132.84,-46.1428 1061.08,-30.8067 1013.69,-20.6791"/>
<polygon fill="midnightblue" stroke="midnightblue" points="1014.18,-17.2056 1003.67,-18.5383 1012.72,-24.051 1014.18,-17.2056"/>
</g>
<!-- Node13 -->
<g id="node14" class="node"><title>Node13</title>
<polygon fill="white" stroke="#bfbfbf" points="1039.43,-0.5 1039.43,-18.5 1142.69,-18.5 1142.69,-0.5 1039.43,-0.5"/>
<text text-anchor="middle" x="1091.06" y="-6.5" font-family="Helvetica,sans-Serif" font-size="10.00">yarp/os/RpcClient.h</text>
</g>
<!-- Node1&#45;&gt;Node13 -->
<g id="edge13" class="edge"><title>Node1&#45;&gt;Node13</title>
<path fill="none" stroke="midnightblue" d="M1195.38,-55.4504C1175.15,-46.734 1142.65,-32.7306 1119.3,-22.6691"/>
<polygon fill="midnightblue" stroke="midnightblue" points="1120.48,-19.3683 1109.91,-18.6253 1117.71,-25.7969 1120.48,-19.3683"/>
</g>
<!-- Node14 -->
<g id="node15" class="node"><title>Node14</title>
<polygon fill="white" stroke="#bfbfbf" points="1160.76,-0.5 1160.76,-18.5 1267.36,-18.5 1267.36,-0.5 1160.76,-0.5"/>
<text text-anchor="middle" x="1214.06" y="-6.5" font-family="Helvetica,sans-Serif" font-size="10.00">yarp/os/RpcServer.h</text>
</g>
<!-- Node1&#45;&gt;Node14 -->
<g id="edge14" class="edge"><title>Node1&#45;&gt;Node14</title>
<path fill="none" stroke="midnightblue" d="M1214.06,-55.2188C1214.06,-48.1769 1214.06,-37.8083 1214.06,-28.8277"/>
<polygon fill="midnightblue" stroke="midnightblue" points="1217.56,-28.5495 1214.06,-18.5496 1210.56,-28.5496 1217.56,-28.5495"/>
</g>
<!-- Node15 -->
<g id="node16" class="node"><title>Node15</title>
<polygon fill="white" stroke="#bfbfbf" points="1285.68,-0.5 1285.68,-18.5 1428.43,-18.5 1428.43,-0.5 1285.68,-0.5"/>
<text text-anchor="middle" x="1357.06" y="-6.5" font-family="Helvetica,sans-Serif" font-size="10.00">yarp/os/ConnectionReader.h</text>
</g>
<!-- Node1&#45;&gt;Node15 -->
<g id="edge15" class="edge"><title>Node1&#45;&gt;Node15</title>
<path fill="none" stroke="midnightblue" d="M1235.78,-55.4504C1259.71,-46.5784 1298.43,-32.2288 1325.67,-22.134"/>
<polygon fill="midnightblue" stroke="midnightblue" points="1326.97,-25.3825 1335.13,-18.6253 1324.54,-18.8188 1326.97,-25.3825"/>
</g>
<!-- Node16 -->
<g id="node17" class="node"><title>Node16</title>
<polygon fill="white" stroke="#bfbfbf" points="1446.17,-0.5 1446.17,-18.5 1527.94,-18.5 1527.94,-0.5 1446.17,-0.5"/>
<text text-anchor="middle" x="1487.06" y="-6.5" font-family="Helvetica,sans-Serif" font-size="10.00">yarp/os/Time.h</text>
</g>
<!-- Node1&#45;&gt;Node16 -->
<g id="edge16" class="edge"><title>Node1&#45;&gt;Node16</title>
<path fill="none" stroke="midnightblue" d="M1255.52,-55.4504C1303.9,-46.0571 1383.92,-30.5238 1436.06,-20.4007"/>
<polygon fill="midnightblue" stroke="midnightblue" points="1436.95,-23.7934 1446.1,-18.4517 1435.61,-16.9217 1436.95,-23.7934"/>
</g>
<!-- Node17 -->
<g id="node18" class="node"><title>Node17</title>
<polygon fill="white" stroke="#bfbfbf" points="1545.76,-0.5 1545.76,-18.5 1622.35,-18.5 1622.35,-0.5 1545.76,-0.5"/>
<text text-anchor="middle" x="1584.06" y="-6.5" font-family="Helvetica,sans-Serif" font-size="10.00">yarp/os/Log.h</text>
</g>
<!-- Node1&#45;&gt;Node17 -->
<g id="edge17" class="edge"><title>Node1&#45;&gt;Node17</title>
<path fill="none" stroke="midnightblue" d="M1264.51,-57.2162C1326.1,-49.3962 1433.69,-35.2595 1535.46,-19.2003"/>
<polygon fill="midnightblue" stroke="midnightblue" points="1536.28,-22.6144 1545.6,-17.5898 1535.18,-15.701 1536.28,-22.6144"/>
</g>
<!-- Node18 -->
<g id="node19" class="node"><title>Node18</title>
<polygon fill="white" stroke="#bfbfbf" points="1640.64,-0.5 1640.64,-18.5 1749.47,-18.5 1749.47,-0.5 1640.64,-0.5"/>
<text text-anchor="middle" x="1695.06" y="-6.5" font-family="Helvetica,sans-Serif" font-size="10.00">yarp/os/LogStream.h</text>
</g>
<!-- Node1&#45;&gt;Node18 -->
<g id="edge18" class="edge"><title>Node1&#45;&gt;Node18</title>
<path fill="none" stroke="midnightblue" d="M1264.49,-58.5405C1341.11,-50.9134 1491.68,-35.5608 1630.62,-19.022"/>
<polygon fill="midnightblue" stroke="midnightblue" points="1631.09,-22.491 1640.6,-17.8292 1630.26,-15.5404 1631.09,-22.491"/>
</g>
<!-- Node19 -->
<g id="node20" class="node"><title>Node19</title>
<polygon fill="white" stroke="#bfbfbf" points="1767.57,-0.5 1767.57,-18.5 1864.54,-18.5 1864.54,-0.5 1767.57,-0.5"/>
<text text-anchor="middle" x="1816.06" y="-6.5" font-family="Helvetica,sans-Serif" font-size="10.00">yarp/os/Property.h</text>
</g>
<!-- Node1&#45;&gt;Node19 -->
<g id="edge19" class="edge"><title>Node1&#45;&gt;Node19</title>
<path fill="none" stroke="midnightblue" d="M1264.41,-60.46C1358.86,-54.5231 1569.25,-40.1874 1757.28,-19.0115"/>
<polygon fill="midnightblue" stroke="midnightblue" points="1757.81,-22.4739 1767.35,-17.8682 1757.02,-15.5186 1757.81,-22.4739"/>
</g>
<!-- Node20 -->
<g id="node21" class="node"><title>Node20</title>
<polygon fill="white" stroke="#bfbfbf" points="1882.09,-0.5 1882.09,-18.5 1972.03,-18.5 1972.03,-0.5 1882.09,-0.5"/>
<text text-anchor="middle" x="1927.06" y="-6.5" font-family="Helvetica,sans-Serif" font-size="10.00">yarp/sig/Vector.h</text>
</g>
<!-- Node1&#45;&gt;Node20 -->
<g id="edge20" class="edge"><title>Node1&#45;&gt;Node20</title>
<path fill="none" stroke="midnightblue" d="M1264.63,-61.6161C1373.67,-57.2233 1639.2,-44.7494 1872,-19.013"/>
<polygon fill="midnightblue" stroke="midnightblue" points="1872.47,-22.4834 1882.02,-17.8958 1871.69,-15.5266 1872.47,-22.4834"/>
</g>
<!-- Node21 -->
<g id="node22" class="node"><title>Node21</title>
<polygon fill="white" stroke="#bfbfbf" points="1990.38,-0.5 1990.38,-18.5 2079.73,-18.5 2079.73,-0.5 1990.38,-0.5"/>
<text text-anchor="middle" x="2035.06" y="-6.5" font-family="Helvetica,sans-Serif" font-size="10.00">yarp/sig/Matrix.h</text>
</g>
<!-- Node1&#45;&gt;Node21 -->
<g id="edge21" class="edge"><title>Node1&#45;&gt;Node21</title>
<path fill="none" stroke="midnightblue" d="M1264.45,-62.2874C1385.79,-59.0001 1703.94,-48.1959 1980.09,-18.9811"/>
<polygon fill="midnightblue" stroke="midnightblue" points="1980.74,-22.432 1990.31,-17.8895 1980,-15.4716 1980.74,-22.432"/>
</g>
<!-- Node22 -->
<g id="node23" class="node"><title>Node22</title>
<polygon fill="white" stroke="#bfbfbf" points="2097.49,-0.5 2097.49,-18.5 2154.62,-18.5 2154.62,-0.5 2097.49,-0.5"/>
<text text-anchor="middle" x="2126.06" y="-6.5" font-family="Helvetica,sans-Serif" font-size="10.00">wbi/wbi.h</text>
</g>
<!-- Node1&#45;&gt;Node22 -->
<g id="edge22" class="edge"><title>Node1&#45;&gt;Node22</title>
<path fill="none" stroke="midnightblue" d="M1264.65,-64.0094C1397.97,-64.6944 1769.85,-62.3566 2087.15,-19.0151"/>
<polygon fill="midnightblue" stroke="midnightblue" points="2088.04,-22.4254 2097.47,-17.5886 2087.08,-15.4913 2088.04,-22.4254"/>
</g>
<!-- Node23 -->
<g id="node24" class="node"><title>Node23</title>
<polygon fill="white" stroke="#bfbfbf" points="2172.76,-0.5 2172.76,-18.5 2279.36,-18.5 2279.36,-0.5 2172.76,-0.5"/>
<text text-anchor="middle" x="2226.06" y="-6.5" font-family="Helvetica,sans-Serif" font-size="10.00">ocra/control/Model.h</text>
</g>
<!-- Node1&#45;&gt;Node23 -->
<g id="edge23" class="edge"><title>Node1&#45;&gt;Node23</title>
<path fill="none" stroke="midnightblue" d="M1264.38,-62.7268C1404.83,-60.2305 1813.16,-50.6684 2162.6,-19.0476"/>
<polygon fill="midnightblue" stroke="midnightblue" points="2163.02,-22.5239 2172.66,-18.1296 2162.38,-15.5529 2163.02,-22.5239"/>
</g>
<!-- Node24 -->
<g id="node25" class="node"><title>Node24</title>
<polygon fill="white" stroke="#bfbfbf" points="2297.82,-0.5 2297.82,-18.5 2418.3,-18.5 2418.3,-0.5 2297.82,-0.5"/>
<text text-anchor="middle" x="2358.06" y="-6.5" font-family="Helvetica,sans-Serif" font-size="10.00">ocra/util/StringUtilities.h</text>
</g>
<!-- Node1&#45;&gt;Node24 -->
<g id="edge24" class="edge"><title>Node1&#45;&gt;Node24</title>
<path fill="none" stroke="midnightblue" d="M1264.47,-62.8329C1416.94,-60.5128 1886.77,-51.1416 2287.71,-18.9435"/>
<polygon fill="midnightblue" stroke="midnightblue" points="2288.07,-22.4253 2297.76,-18.1302 2287.51,-15.4481 2288.07,-22.4253"/>
</g>
<!-- Node25 -->
<g id="node26" class="node"><title>Node25</title>
<polygon fill="white" stroke="#bfbfbf" points="2436.43,-0.5 2436.43,-18.5 2509.69,-18.5 2509.69,-0.5 2436.43,-0.5"/>
<text text-anchor="middle" x="2473.06" y="-6.5" font-family="Helvetica,sans-Serif" font-size="10.00">Eigen/Dense</text>
</g>
<!-- Node1&#45;&gt;Node25 -->
<g id="edge25" class="edge"><title>Node1&#45;&gt;Node25</title>
<path fill="none" stroke="midnightblue" d="M1264.58,-62.6314C1461.21,-59.1004 2176.33,-44.8183 2426.1,-18.8817"/>
<polygon fill="midnightblue" stroke="midnightblue" points="2426.65,-22.3433 2436.22,-17.7964 2425.9,-15.3832 2426.65,-22.3433"/>
</g>
<!-- Node26 -->
<g id="node27" class="node"><title>Node26</title>
<polygon fill="white" stroke="#bfbfbf" points="2527.65,-0.5 2527.65,-18.5 2596.46,-18.5 2596.46,-0.5 2527.65,-0.5"/>
<text text-anchor="middle" x="2562.06" y="-6.5" font-family="Helvetica,sans-Serif" font-size="10.00">Eigen/Lgsm</text>
</g>
<!-- Node1&#45;&gt;Node26 -->
<g id="edge26" class="edge"><title>Node1&#45;&gt;Node26</title>
<path fill="none" stroke="midnightblue" d="M1264.47,-62.8672C1470.43,-60.1167 2249.24,-48.0586 2517.31,-18.979"/>
<polygon fill="midnightblue" stroke="midnightblue" points="2517.85,-22.4408 2527.4,-17.8488 2517.07,-15.4843 2517.85,-22.4408"/>
</g>
</g>
</svg>
