<?xml version="1.0" encoding="UTF-8" standalone="no"?>
<!DOCTYPE svg PUBLIC "-//W3C//DTD SVG 1.1//EN"
 "http://www.w3.org/Graphics/SVG/1.1/DTD/svg11.dtd">
<!-- Generated by graphviz version 2.38.0 (20140413.2041)
 -->
<!-- Title: /Users/jorhabibeljaik/Code/codyco&#45;superbuild/main/ocra&#45;wbi&#45;plugins/ocra&#45;icub&#45;clients/walking&#45;client/src/WalkingClient.cpp Pages: 1 -->
<svg width="3131pt" height="472pt"
 viewBox="0.00 0.00 3130.88 472.00" xmlns="http://www.w3.org/2000/svg" xmlns:xlink="http://www.w3.org/1999/xlink">
<g id="graph0" class="graph" transform="scale(1 1) rotate(0) translate(4 468)">
<title>/Users/jorhabibeljaik/Code/codyco&#45;superbuild/main/ocra&#45;wbi&#45;plugins/ocra&#45;icub&#45;clients/walking&#45;client/src/WalkingClient.cpp</title>
<polygon fill="white" stroke="none" points="-4,4 -4,-468 3126.88,-468 3126.88,4 -4,4"/>
<!-- Node0 -->
<g id="node1" class="node"><title>Node0</title>
<polygon fill="#bfbfbf" stroke="black" points="2467.69,-405.5 2467.69,-463.5 2608.92,-463.5 2608.92,-405.5 2467.69,-405.5"/>
<text text-anchor="start" x="2475.69" y="-451.5" font-family="Helvetica,sans-Serif" font-size="10.00">/Users/jorhabibeljaik</text>
<text text-anchor="start" x="2475.69" y="-441.5" font-family="Helvetica,sans-Serif" font-size="10.00">/Code/codyco&#45;superbuild</text>
<text text-anchor="start" x="2475.69" y="-431.5" font-family="Helvetica,sans-Serif" font-size="10.00">/main/ocra&#45;wbi&#45;plugins</text>
<text text-anchor="start" x="2475.69" y="-421.5" font-family="Helvetica,sans-Serif" font-size="10.00">/ocra&#45;icub&#45;clients/walking</text>
<text text-anchor="middle" x="2538.3" y="-411.5" font-family="Helvetica,sans-Serif" font-size="10.00">&#45;client/src/WalkingClient.cpp</text>
</g>
<!-- Node1 -->
<g id="node2" class="node"><title>Node1</title>
<g id="a_node2"><a xlink:href="WalkingClient_8h.html" target="_top" xlink:title="walking&#45;client/WalkingClient.h">
<polygon fill="white" stroke="black" points="2464.35,-350.5 2464.35,-368.5 2612.25,-368.5 2612.25,-350.5 2464.35,-350.5"/>
<text text-anchor="middle" x="2538.3" y="-356.5" font-family="Helvetica,sans-Serif" font-size="10.00">walking&#45;client/WalkingClient.h</text>
</a>
</g>
</g>
<!-- Node0&#45;&gt;Node1 -->
<g id="edge1" class="edge"><title>Node0&#45;&gt;Node1</title>
<path fill="none" stroke="midnightblue" d="M2538.3,-405.485C2538.3,-396.521 2538.3,-386.835 2538.3,-378.754"/>
<polygon fill="midnightblue" stroke="midnightblue" points="2541.8,-378.644 2538.3,-368.644 2534.8,-378.644 2541.8,-378.644"/>
</g>
<!-- Node2 -->
<g id="node3" class="node"><title>Node2</title>
<g id="a_node3"><a xlink:href="IcubClient_8h.html" target="_top" xlink:title="ocra&#45;icub/IcubClient.h">
<polygon fill="white" stroke="black" points="656.943,-295.5 656.943,-313.5 769.657,-313.5 769.657,-295.5 656.943,-295.5"/>
<text text-anchor="middle" x="713.3" y="-301.5" font-family="Helvetica,sans-Serif" font-size="10.00">ocra&#45;icub/IcubClient.h</text>
</a>
</g>
</g>
<!-- Node1&#45;&gt;Node2 -->
<g id="edge2" class="edge"><title>Node1&#45;&gt;Node2</title>
<path fill="none" stroke="midnightblue" d="M2464.21,-356.348C2167.03,-347.718 1063.78,-315.678 780.134,-307.441"/>
<polygon fill="midnightblue" stroke="midnightblue" points="780.094,-303.938 769.996,-307.147 779.89,-310.935 780.094,-303.938"/>
</g>
<!-- Node27 -->
<g id="node28" class="node"><title>Node27</title>
<polygon fill="white" stroke="#bfbfbf" points="2515.42,-0.5 2515.42,-18.5 2597.18,-18.5 2597.18,-0.5 2515.42,-0.5"/>
<text text-anchor="middle" x="2556.3" y="-6.5" font-family="Helvetica,sans-Serif" font-size="10.00">yarp/os/Time.h</text>
</g>
<!-- Node1&#45;&gt;Node27 -->
<g id="edge67" class="edge"><title>Node1&#45;&gt;Node27</title>
<path fill="none" stroke="midnightblue" d="M2530.52,-350.266C2522.88,-341.776 2511.37,-327.858 2504.3,-314 2490.92,-287.757 2485.3,-279.958 2485.3,-250.5 2485.3,-250.5 2485.3,-250.5 2485.3,-133.5 2485.3,-89.7733 2519.37,-47.602 2540.31,-25.8156"/>
<polygon fill="midnightblue" stroke="midnightblue" points="2543.02,-28.0583 2547.59,-18.5031 2538.06,-23.1185 2543.02,-28.0583"/>
</g>
<!-- Node35 -->
<g id="node36" class="node"><title>Node35</title>
<polygon fill="white" stroke="#bfbfbf" points="2513.35,-295.5 2513.35,-313.5 2671.25,-313.5 2671.25,-295.5 2513.35,-295.5"/>
<text text-anchor="middle" x="2592.3" y="-301.5" font-family="Helvetica,sans-Serif" font-size="10.00">ocra&#45;recipes/TrajectoryThread.h</text>
</g>
<!-- Node1&#45;&gt;Node35 -->
<g id="edge53" class="edge"><title>Node1&#45;&gt;Node35</title>
<path fill="none" stroke="midnightblue" d="M2546.74,-350.219C2554.79,-342.316 2567.11,-330.224 2576.91,-320.606"/>
<polygon fill="midnightblue" stroke="midnightblue" points="2579.41,-323.052 2584.1,-313.55 2574.51,-318.056 2579.41,-323.052"/>
</g>
<!-- Node36 -->
<g id="node37" class="node"><title>Node36</title>
<polygon fill="white" stroke="#bfbfbf" points="2688.77,-295.5 2688.77,-313.5 2839.83,-313.5 2839.83,-295.5 2688.77,-295.5"/>
<text text-anchor="middle" x="2764.3" y="-301.5" font-family="Helvetica,sans-Serif" font-size="10.00">ocra&#45;recipes/ControllerClient.h</text>
</g>
<!-- Node1&#45;&gt;Node36 -->
<g id="edge54" class="edge"><title>Node1&#45;&gt;Node36</title>
<path fill="none" stroke="midnightblue" d="M2572.62,-350.45C2612.06,-341.201 2676.89,-325.999 2720.08,-315.871"/>
<polygon fill="midnightblue" stroke="midnightblue" points="2721.09,-319.229 2730.02,-313.538 2719.49,-312.414 2721.09,-319.229"/>
</g>
<!-- Node37 -->
<g id="node38" class="node"><title>Node37</title>
<polygon fill="white" stroke="#bfbfbf" points="2857.33,-295.5 2857.33,-313.5 2977.27,-313.5 2977.27,-295.5 2857.33,-295.5"/>
<text text-anchor="middle" x="2917.3" y="-301.5" font-family="Helvetica,sans-Serif" font-size="10.00">ocra/util/EigenUtilities.h</text>
</g>
<!-- Node1&#45;&gt;Node37 -->
<g id="edge55" class="edge"><title>Node1&#45;&gt;Node37</title>
<path fill="none" stroke="midnightblue" d="M2595.86,-350.45C2664.09,-340.909 2777.63,-325.031 2849.9,-314.925"/>
<polygon fill="midnightblue" stroke="midnightblue" points="2850.4,-318.39 2859.82,-313.538 2849.43,-311.457 2850.4,-318.39"/>
</g>
<!-- Node38 -->
<g id="node39" class="node"><title>Node38</title>
<g id="a_node39"><a xlink:href="ZmpPreviewController_8h.html" target="_top" xlink:title="walking&#45;client/ZmpPreview\lController.h">
<polygon fill="white" stroke="black" points="2155.12,-120.5 2155.12,-148.5 2289.48,-148.5 2289.48,-120.5 2155.12,-120.5"/>
<text text-anchor="start" x="2163.12" y="-136.5" font-family="Helvetica,sans-Serif" font-size="10.00">walking&#45;client/ZmpPreview</text>
<text text-anchor="middle" x="2222.3" y="-126.5" font-family="Helvetica,sans-Serif" font-size="10.00">Controller.h</text>
</a>
</g>
</g>
<!-- Node1&#45;&gt;Node38 -->
<g id="edge56" class="edge"><title>Node1&#45;&gt;Node38</title>
<path fill="none" stroke="midnightblue" d="M2520.32,-350.375C2502.54,-342.076 2474.82,-328.396 2452.3,-314 2371.82,-262.555 2284.82,-189.791 2244.79,-155.218"/>
<polygon fill="midnightblue" stroke="midnightblue" points="2247.05,-152.545 2237.2,-148.636 2242.46,-157.833 2247.05,-152.545"/>
</g>
<!-- Node40 -->
<g id="node41" class="node"><title>Node40</title>
<g id="a_node41"><a xlink:href="ZmpController_8h.html" target="_top" xlink:title="walking&#45;client/ZmpController.h">
<polygon fill="white" stroke="black" points="2307.33,-125.5 2307.33,-143.5 2457.27,-143.5 2457.27,-125.5 2307.33,-125.5"/>
<text text-anchor="middle" x="2382.3" y="-131.5" font-family="Helvetica,sans-Serif" font-size="10.00">walking&#45;client/ZmpController.h</text>
</a>
</g>
</g>
<!-- Node1&#45;&gt;Node40 -->
<g id="edge61" class="edge"><title>Node1&#45;&gt;Node40</title>
<path fill="none" stroke="midnightblue" d="M2521.36,-350.462C2506.61,-342.78 2485.44,-330.012 2471.3,-314 2427.03,-263.884 2398.91,-187.812 2387.76,-153.456"/>
<polygon fill="midnightblue" stroke="midnightblue" points="2391.08,-152.341 2384.74,-143.853 2384.4,-154.442 2391.08,-152.341"/>
</g>
<!-- Node41 -->
<g id="node42" class="node"><title>Node41</title>
<polygon fill="white" stroke="#bfbfbf" points="2995.72,-295.5 2995.72,-313.5 3122.88,-313.5 3122.88,-295.5 2995.72,-295.5"/>
<text text-anchor="middle" x="3059.3" y="-301.5" font-family="Helvetica,sans-Serif" font-size="10.00">ocra/util/FileOperations.h</text>
</g>
<!-- Node1&#45;&gt;Node41 -->
<g id="edge66" class="edge"><title>Node1&#45;&gt;Node41</title>
<path fill="none" stroke="midnightblue" d="M2612.46,-351.521C2699.17,-343.273 2847.32,-328.911 2985.27,-314.094"/>
<polygon fill="midnightblue" stroke="midnightblue" points="2986.04,-317.531 2995.61,-312.981 2985.29,-310.572 2986.04,-317.531"/>
</g>
<!-- Node3 -->
<g id="node4" class="node"><title>Node3</title>
<g id="a_node4"><a xlink:href="ModelInitializer_8h.html" target="_top" xlink:title="ocra&#45;icub/ModelInitializer.h">
<polygon fill="white" stroke="black" points="210.104,-240.5 210.104,-258.5 344.497,-258.5 344.497,-240.5 210.104,-240.5"/>
<text text-anchor="middle" x="277.3" y="-246.5" font-family="Helvetica,sans-Serif" font-size="10.00">ocra&#45;icub/ModelInitializer.h</text>
</a>
</g>
</g>
<!-- Node2&#45;&gt;Node3 -->
<g id="edge3" class="edge"><title>Node2&#45;&gt;Node3</title>
<path fill="none" stroke="midnightblue" d="M656.748,-296.626C579.286,-287.209 439.952,-270.272 353.396,-259.75"/>
<polygon fill="midnightblue" stroke="midnightblue" points="353.719,-256.264 343.37,-258.531 352.874,-263.213 353.719,-256.264"/>
</g>
<!-- Node4 -->
<g id="node5" class="node"><title>Node4</title>
<g id="a_node5"><a xlink:href="OcraWbiModel_8h.html" target="_top" xlink:title="Implementation of ocra::Model using wholeBodyInterface. ">
<polygon fill="white" stroke="black" points="486.113,-185.5 486.113,-203.5 620.487,-203.5 620.487,-185.5 486.113,-185.5"/>
<text text-anchor="middle" x="553.3" y="-191.5" font-family="Helvetica,sans-Serif" font-size="10.00">ocra&#45;icub/OcraWbiModel.h</text>
</a>
</g>
</g>
<!-- Node2&#45;&gt;Node4 -->
<g id="edge51" class="edge"><title>Node2&#45;&gt;Node4</title>
<path fill="none" stroke="midnightblue" d="M701.274,-295.382C674.171,-277.088 608.043,-232.451 574.12,-209.554"/>
<polygon fill="midnightblue" stroke="midnightblue" points="575.713,-206.406 565.466,-203.712 571.796,-212.207 575.713,-206.406"/>
</g>
<!-- Node9 -->
<g id="node10" class="node"><title>Node9</title>
<g id="a_node10"><a xlink:href="OcraWbiConversions_8h.html" target="_top" xlink:title="A utility class full of static conversion functions. ">
<polygon fill="white" stroke="black" points="631.941,-125.5 631.941,-143.5 794.66,-143.5 794.66,-125.5 631.941,-125.5"/>
<text text-anchor="middle" x="713.3" y="-131.5" font-family="Helvetica,sans-Serif" font-size="10.00">ocra&#45;icub/OcraWbiConversions.h</text>
</a>
</g>
</g>
<!-- Node2&#45;&gt;Node9 -->
<g id="edge50" class="edge"><title>Node2&#45;&gt;Node9</title>
<path fill="none" stroke="midnightblue" d="M713.3,-295.397C713.3,-269.729 713.3,-189.781 713.3,-153.605"/>
<polygon fill="midnightblue" stroke="midnightblue" points="716.8,-153.522 713.3,-143.522 709.8,-153.522 716.8,-153.522"/>
</g>
<!-- Node15 -->
<g id="node16" class="node"><title>Node15</title>
<g id="a_node16"><a xlink:href="Utilities_8h.html" target="_top" xlink:title="Some useful tools for the ocra&#45;icub lib. ">
<polygon fill="white" stroke="black" points="1246.06,-60.5 1246.06,-78.5 1346.54,-78.5 1346.54,-60.5 1246.06,-60.5"/>
<text text-anchor="middle" x="1296.3" y="-66.5" font-family="Helvetica,sans-Serif" font-size="10.00">ocra&#45;icub/Utilities.h</text>
</a>
</g>
</g>
<!-- Node2&#45;&gt;Node15 -->
<g id="edge52" class="edge"><title>Node2&#45;&gt;Node15</title>
<path fill="none" stroke="midnightblue" d="M733.368,-295.48C820.081,-260.824 1162.86,-123.829 1266.48,-82.4184"/>
<polygon fill="midnightblue" stroke="midnightblue" points="1268.03,-85.5681 1276.02,-78.6069 1265.43,-79.068 1268.03,-85.5681"/>
</g>
<!-- Node3&#45;&gt;Node4 -->
<g id="edge4" class="edge"><title>Node3&#45;&gt;Node4</title>
<path fill="none" stroke="midnightblue" d="M319.219,-240.45C368.095,-231.065 448.894,-215.549 501.613,-205.425"/>
<polygon fill="midnightblue" stroke="midnightblue" points="502.28,-208.861 511.44,-203.538 500.96,-201.987 502.28,-208.861"/>
</g>
<!-- Node6 -->
<g id="node7" class="node"><title>Node6</title>
<polygon fill="white" stroke="#bfbfbf" points="0,-0.5 0,-18.5 106.601,-18.5 106.601,-0.5 0,-0.5"/>
<text text-anchor="middle" x="53.3003" y="-6.5" font-family="Helvetica,sans-Serif" font-size="10.00">ocra/control/Model.h</text>
</g>
<!-- Node3&#45;&gt;Node6 -->
<g id="edge44" class="edge"><title>Node3&#45;&gt;Node6</title>
<path fill="none" stroke="midnightblue" d="M258.605,-240.488C241.893,-232.74 217.328,-219.857 199.3,-204 136.912,-149.123 83.9141,-63.7968 62.9312,-27.63"/>
<polygon fill="midnightblue" stroke="midnightblue" points="65.8835,-25.742 57.8807,-18.7989 59.807,-29.2172 65.8835,-25.742"/>
</g>
<!-- Node8 -->
<g id="node9" class="node"><title>Node8</title>
<polygon fill="white" stroke="#bfbfbf" points="125.002,-0.5 125.002,-18.5 201.598,-18.5 201.598,-0.5 125.002,-0.5"/>
<text text-anchor="middle" x="163.3" y="-6.5" font-family="Helvetica,sans-Serif" font-size="10.00">yarp/os/Log.h</text>
</g>
<!-- Node3&#45;&gt;Node8 -->
<g id="edge49" class="edge"><title>Node3&#45;&gt;Node8</title>
<path fill="none" stroke="midnightblue" d="M259.434,-240.499C244.876,-233.075 224.897,-220.661 213.3,-204 174.667,-148.494 165.878,-65.3436 163.883,-28.8174"/>
<polygon fill="midnightblue" stroke="midnightblue" points="167.374,-28.5301 163.445,-18.6907 160.381,-28.8327 167.374,-28.5301"/>
</g>
<!-- Node14 -->
<g id="node15" class="node"><title>Node14</title>
<polygon fill="white" stroke="#bfbfbf" points="418.99,-55.5 418.99,-83.5 555.61,-83.5 555.61,-55.5 418.99,-55.5"/>
<text text-anchor="start" x="426.99" y="-71.5" font-family="Helvetica,sans-Serif" font-size="10.00">yarpWholeBodyInterface</text>
<text text-anchor="middle" x="487.3" y="-61.5" font-family="Helvetica,sans-Serif" font-size="10.00">/yarpWholeBodyInterface.h</text>
</g>
<!-- Node3&#45;&gt;Node14 -->
<g id="edge45" class="edge"><title>Node3&#45;&gt;Node14</title>
<path fill="none" stroke="midnightblue" d="M283.848,-240.211C293.989,-227.615 314.406,-203.197 334.3,-185 374.803,-147.953 426.857,-110.968 458.615,-89.4382"/>
<polygon fill="midnightblue" stroke="midnightblue" points="460.667,-92.2761 467.008,-83.7883 456.758,-86.4693 460.667,-92.2761"/>
</g>
<!-- Node24 -->
<g id="node25" class="node"><title>Node24</title>
<polygon fill="white" stroke="#bfbfbf" points="219.67,-0.5 219.67,-18.5 322.931,-18.5 322.931,-0.5 219.67,-0.5"/>
<text text-anchor="middle" x="271.3" y="-6.5" font-family="Helvetica,sans-Serif" font-size="10.00">yarp/os/RpcClient.h</text>
</g>
<!-- Node3&#45;&gt;Node24 -->
<g id="edge46" class="edge"><title>Node3&#45;&gt;Node24</title>
<path fill="none" stroke="midnightblue" d="M261.771,-240.257C249.326,-232.685 232.754,-220.19 225.3,-204 197.605,-143.847 199.452,-115.969 225.3,-55 230.466,-42.815 240.783,-32.3355 250.339,-24.6121"/>
<polygon fill="midnightblue" stroke="midnightblue" points="252.5,-27.3661 258.393,-18.5608 248.295,-21.7698 252.5,-27.3661"/>
</g>
<!-- Node28 -->
<g id="node29" class="node"><title>Node28</title>
<polygon fill="white" stroke="#bfbfbf" points="340.887,-0.5 340.887,-18.5 449.714,-18.5 449.714,-0.5 340.887,-0.5"/>
<text text-anchor="middle" x="395.3" y="-6.5" font-family="Helvetica,sans-Serif" font-size="10.00">yarp/os/LogStream.h</text>
</g>
<!-- Node3&#45;&gt;Node28 -->
<g id="edge48" class="edge"><title>Node3&#45;&gt;Node28</title>
<path fill="none" stroke="midnightblue" d="M281.362,-240.308C298.277,-206.192 363.329,-74.984 386.797,-27.651"/>
<polygon fill="midnightblue" stroke="midnightblue" points="389.949,-29.172 391.256,-18.658 383.678,-26.0626 389.949,-29.172"/>
</g>
<!-- Node34 -->
<g id="node35" class="node"><title>Node34</title>
<polygon fill="white" stroke="#bfbfbf" points="343.007,-185.5 343.007,-203.5 439.593,-203.5 439.593,-185.5 343.007,-185.5"/>
<text text-anchor="middle" x="391.3" y="-191.5" font-family="Helvetica,sans-Serif" font-size="10.00">yarp/os/Network.h</text>
</g>
<!-- Node3&#45;&gt;Node34 -->
<g id="edge47" class="edge"><title>Node3&#45;&gt;Node34</title>
<path fill="none" stroke="midnightblue" d="M294.614,-240.45C313.196,-231.812 342.946,-217.98 364.543,-207.94"/>
<polygon fill="midnightblue" stroke="midnightblue" points="366.231,-211.015 373.823,-203.625 363.28,-204.667 366.231,-211.015"/>
</g>
<!-- Node5 -->
<g id="node6" class="node"><title>Node5</title>
<polygon fill="white" stroke="#bfbfbf" points="467.244,-0.5 467.244,-18.5 519.357,-18.5 519.357,-0.5 467.244,-0.5"/>
<text text-anchor="middle" x="493.3" y="-6.5" font-family="Helvetica,sans-Serif" font-size="10.00">memory</text>
</g>
<!-- Node4&#45;&gt;Node5 -->
<g id="edge5" class="edge"><title>Node4&#45;&gt;Node5</title>
<path fill="none" stroke="midnightblue" d="M533.639,-185.467C500.903,-170.874 436.258,-136.57 410.3,-84 404.594,-72.4432 403.681,-66.0594 410.3,-55 420.573,-37.836 439.984,-26.9141 457.452,-20.188"/>
<polygon fill="midnightblue" stroke="midnightblue" points="458.614,-23.4896 466.886,-16.8701 456.291,-16.8861 458.614,-23.4896"/>
</g>
<!-- Node4&#45;&gt;Node6 -->
<g id="edge6" class="edge"><title>Node4&#45;&gt;Node6</title>
<path fill="none" stroke="midnightblue" d="M516.935,-185.468C482.415,-177.482 429.269,-164.246 384.3,-149 267.985,-109.564 134.5,-48.7208 79.2848,-22.836"/>
<polygon fill="midnightblue" stroke="midnightblue" points="80.7449,-19.6549 70.2064,-18.5638 77.7643,-25.9887 80.7449,-19.6549"/>
</g>
<!-- Node7 -->
<g id="node8" class="node"><title>Node7</title>
<polygon fill="white" stroke="#bfbfbf" points="537.736,-0.5 537.736,-18.5 594.864,-18.5 594.864,-0.5 537.736,-0.5"/>
<text text-anchor="middle" x="566.3" y="-6.5" font-family="Helvetica,sans-Serif" font-size="10.00">wbi/wbi.h</text>
</g>
<!-- Node4&#45;&gt;Node7 -->
<g id="edge7" class="edge"><title>Node4&#45;&gt;Node7</title>
<path fill="none" stroke="midnightblue" d="M554.334,-185.275C556.576,-167.064 561.881,-121.944 564.3,-84 565.492,-65.3031 565.975,-43.8865 566.17,-29.0138"/>
<polygon fill="midnightblue" stroke="midnightblue" points="569.673,-28.7004 566.272,-18.6661 562.673,-28.6309 569.673,-28.7004"/>
</g>
<!-- Node4&#45;&gt;Node8 -->
<g id="edge8" class="edge"><title>Node4&#45;&gt;Node8</title>
<path fill="none" stroke="midnightblue" d="M526.342,-185.468C501.521,-177.619 464.007,-164.595 433.3,-149 365.818,-114.728 359.13,-88.578 291.3,-55 262.821,-40.9018 228.761,-29.2926 202.938,-21.4706"/>
<polygon fill="midnightblue" stroke="midnightblue" points="203.705,-18.0473 193.122,-18.5588 201.714,-24.7582 203.705,-18.0473"/>
</g>
<!-- Node4&#45;&gt;Node9 -->
<g id="edge9" class="edge"><title>Node4&#45;&gt;Node9</title>
<path fill="none" stroke="midnightblue" d="M575.548,-185.435C603.053,-175.465 650.063,-158.424 681.404,-147.062"/>
<polygon fill="midnightblue" stroke="midnightblue" points="682.776,-150.288 690.985,-143.589 680.39,-143.707 682.776,-150.288"/>
</g>
<!-- Node4&#45;&gt;Node15 -->
<g id="edge43" class="edge"><title>Node4&#45;&gt;Node15</title>
<path fill="none" stroke="midnightblue" d="M601.764,-185.477C733.003,-163.751 1094.98,-103.828 1237.52,-80.2309"/>
<polygon fill="midnightblue" stroke="midnightblue" points="1238.51,-83.615 1247.8,-78.5287 1237.36,-76.709 1238.51,-83.615"/>
</g>
<!-- Node9&#45;&gt;Node7 -->
<g id="edge15" class="edge"><title>Node9&#45;&gt;Node7</title>
<path fill="none" stroke="midnightblue" d="M713.713,-125.462C714.065,-109.839 712.579,-75.1461 694.3,-55 682.087,-41.5387 637.986,-28.1157 604.94,-19.5888"/>
<polygon fill="midnightblue" stroke="midnightblue" points="605.639,-16.1556 595.087,-17.105 603.928,-22.9432 605.639,-16.1556"/>
</g>
<!-- Node9&#45;&gt;Node8 -->
<g id="edge14" class="edge"><title>Node9&#45;&gt;Node8</title>
<path fill="none" stroke="midnightblue" d="M701.624,-125.314C677.358,-108.777 619.163,-71.5584 564.3,-55 416.006,-10.2427 368.826,-39.8176 211.748,-19.072"/>
<polygon fill="midnightblue" stroke="midnightblue" points="212.118,-15.59 201.735,-17.7016 211.168,-22.5254 212.118,-15.59"/>
</g>
<!-- Node10 -->
<g id="node11" class="node"><title>Node10</title>
<polygon fill="white" stroke="#bfbfbf" points="613.128,-0.5 613.128,-18.5 667.473,-18.5 667.473,-0.5 613.128,-0.5"/>
<text text-anchor="middle" x="640.3" y="-6.5" font-family="Helvetica,sans-Serif" font-size="10.00">iostream</text>
</g>
<!-- Node9&#45;&gt;Node10 -->
<g id="edge10" class="edge"><title>Node9&#45;&gt;Node10</title>
<path fill="none" stroke="midnightblue" d="M718.088,-125.486C726.36,-110.493 741.17,-77.6736 727.3,-55 716.344,-37.0895 695.649,-26.0961 677.191,-19.5177"/>
<polygon fill="midnightblue" stroke="midnightblue" points="678.118,-16.1388 667.526,-16.3841 675.959,-22.7976 678.118,-16.1388"/>
</g>
<!-- Node11 -->
<g id="node12" class="node"><title>Node11</title>
<polygon fill="white" stroke="#bfbfbf" points="649.574,-60.5 649.574,-78.5 685.027,-78.5 685.027,-60.5 649.574,-60.5"/>
<text text-anchor="middle" x="667.3" y="-66.5" font-family="Helvetica,sans-Serif" font-size="10.00">map</text>
</g>
<!-- Node9&#45;&gt;Node11 -->
<g id="edge11" class="edge"><title>Node9&#45;&gt;Node11</title>
<path fill="none" stroke="midnightblue" d="M707.287,-125.264C700.153,-115.494 688.095,-98.9798 679.081,-86.635"/>
<polygon fill="midnightblue" stroke="midnightblue" points="681.894,-84.5513 673.17,-78.539 676.24,-88.6792 681.894,-84.5513"/>
</g>
<!-- Node12 -->
<g id="node13" class="node"><title>Node12</title>
<polygon fill="white" stroke="#bfbfbf" points="2362.68,-0.5 2362.68,-18.5 2405.92,-18.5 2405.92,-0.5 2362.68,-0.5"/>
<text text-anchor="middle" x="2384.3" y="-6.5" font-family="Helvetica,sans-Serif" font-size="10.00">vector</text>
</g>
<!-- Node9&#45;&gt;Node12 -->
<g id="edge12" class="edge"><title>Node9&#45;&gt;Node12</title>
<path fill="none" stroke="midnightblue" d="M794.694,-133.734C1033.79,-133.166 1754.3,-122.472 2352.35,-19.011"/>
<polygon fill="midnightblue" stroke="midnightblue" points="2353.21,-22.4127 2362.47,-17.2495 2352.01,-15.5164 2353.21,-22.4127"/>
</g>
<!-- Node13 -->
<g id="node14" class="node"><title>Node13</title>
<polygon fill="white" stroke="#bfbfbf" points="685.33,-0.5 685.33,-18.5 775.271,-18.5 775.271,-0.5 685.33,-0.5"/>
<text text-anchor="middle" x="730.3" y="-6.5" font-family="Helvetica,sans-Serif" font-size="10.00">yarp/sig/Vector.h</text>
</g>
<!-- Node9&#45;&gt;Node13 -->
<g id="edge13" class="edge"><title>Node9&#45;&gt;Node13</title>
<path fill="none" stroke="midnightblue" d="M726.916,-125.249C739.551,-116.713 757.541,-102.1 765.3,-84 770.379,-72.1539 769.516,-67.1799 765.3,-55 761.53,-44.108 753.87,-33.8573 746.675,-25.9458"/>
<polygon fill="midnightblue" stroke="midnightblue" points="749.016,-23.3332 739.527,-18.6191 744.005,-28.2213 749.016,-23.3332"/>
</g>
<!-- Node9&#45;&gt;Node14 -->
<g id="edge16" class="edge"><title>Node9&#45;&gt;Node14</title>
<path fill="none" stroke="midnightblue" d="M684.217,-125.393C648.861,-115.537 588.395,-98.6813 543.771,-86.2419"/>
<polygon fill="midnightblue" stroke="midnightblue" points="544.509,-82.8141 533.936,-83.5002 542.629,-89.557 544.509,-82.8141"/>
</g>
<!-- Node9&#45;&gt;Node15 -->
<g id="edge17" class="edge"><title>Node9&#45;&gt;Node15</title>
<path fill="none" stroke="midnightblue" d="M787.433,-125.489C904.046,-112.888 1128.11,-88.6753 1235.71,-77.0476"/>
<polygon fill="midnightblue" stroke="midnightblue" points="1236.18,-80.5166 1245.75,-75.9624 1235.43,-73.5572 1236.18,-80.5166"/>
</g>
<!-- Node15&#45;&gt;Node5 -->
<g id="edge18" class="edge"><title>Node15&#45;&gt;Node5</title>
<path fill="none" stroke="midnightblue" d="M1245.65,-68.2703C1123.75,-67.068 804.354,-60.0558 529.736,-18.9401"/>
<polygon fill="midnightblue" stroke="midnightblue" points="529.987,-15.4383 519.576,-17.4001 528.938,-22.3592 529.987,-15.4383"/>
</g>
<!-- Node15&#45;&gt;Node6 -->
<g id="edge39" class="edge"><title>Node15&#45;&gt;Node6</title>
<path fill="none" stroke="midnightblue" d="M1245.88,-68.0451C1083.67,-66.2297 560.623,-57.6352 117.014,-18.9608"/>
<polygon fill="midnightblue" stroke="midnightblue" points="117.147,-15.4591 106.879,-18.0708 116.534,-22.4323 117.147,-15.4591"/>
</g>
<!-- Node15&#45;&gt;Node7 -->
<g id="edge38" class="edge"><title>Node15&#45;&gt;Node7</title>
<path fill="none" stroke="midnightblue" d="M1245.66,-67.4522C1132.51,-64.5573 850.489,-54.2691 605.432,-18.9284"/>
<polygon fill="midnightblue" stroke="midnightblue" points="605.664,-15.4253 595.264,-17.4443 604.653,-22.3519 605.664,-15.4253"/>
</g>
<!-- Node15&#45;&gt;Node8 -->
<g id="edge33" class="edge"><title>Node15&#45;&gt;Node8</title>
<path fill="none" stroke="midnightblue" d="M1245.77,-67.0931C1062.8,-61.8611 434.386,-42.6605 211.69,-18.973"/>
<polygon fill="midnightblue" stroke="midnightblue" points="212.035,-15.4899 201.713,-17.8777 211.271,-22.4481 212.035,-15.4899"/>
</g>
<!-- Node15&#45;&gt;Node10 -->
<g id="edge20" class="edge"><title>Node15&#45;&gt;Node10</title>
<path fill="none" stroke="midnightblue" d="M1245.77,-67.0693C1141.28,-63.5493 893.822,-52.307 677.676,-18.9833"/>
<polygon fill="midnightblue" stroke="midnightblue" points="678.153,-15.5155 667.732,-17.4311 677.073,-22.4317 678.153,-15.5155"/>
</g>
<!-- Node15&#45;&gt;Node12 -->
<g id="edge22" class="edge"><title>Node15&#45;&gt;Node12</title>
<path fill="none" stroke="midnightblue" d="M1346.59,-66.8257C1537.88,-60.3668 2215.86,-36.622 2352.28,-18.7976"/>
<polygon fill="midnightblue" stroke="midnightblue" points="2353.09,-22.2167 2362.48,-17.3088 2352.08,-15.2901 2353.09,-22.2167"/>
</g>
<!-- Node15&#45;&gt;Node13 -->
<g id="edge36" class="edge"><title>Node15&#45;&gt;Node13</title>
<path fill="none" stroke="midnightblue" d="M1246.04,-64.6438C1155.93,-57.5107 960.689,-41.0636 785.53,-19.084"/>
<polygon fill="midnightblue" stroke="midnightblue" points="785.713,-15.5794 775.353,-17.7978 784.835,-22.5241 785.713,-15.5794"/>
</g>
<!-- Node16 -->
<g id="node17" class="node"><title>Node16</title>
<polygon fill="white" stroke="#bfbfbf" points="2173.68,-0.5 2173.68,-18.5 2216.92,-18.5 2216.92,-0.5 2173.68,-0.5"/>
<text text-anchor="middle" x="2195.3" y="-6.5" font-family="Helvetica,sans-Serif" font-size="10.00">cmath</text>
</g>
<!-- Node15&#45;&gt;Node16 -->
<g id="edge19" class="edge"><title>Node15&#45;&gt;Node16</title>
<path fill="none" stroke="midnightblue" d="M1346.7,-67.0215C1504.14,-62.1869 1986.35,-45.6949 2163.45,-18.6995"/>
<polygon fill="midnightblue" stroke="midnightblue" points="2164.08,-22.1421 2173.41,-17.1154 2162.99,-15.2289 2164.08,-22.1421"/>
</g>
<!-- Node17 -->
<g id="node18" class="node"><title>Node17</title>
<polygon fill="white" stroke="#bfbfbf" points="2235.07,-0.5 2235.07,-18.5 2275.53,-18.5 2275.53,-0.5 2235.07,-0.5"/>
<text text-anchor="middle" x="2255.3" y="-6.5" font-family="Helvetica,sans-Serif" font-size="10.00">string</text>
</g>
<!-- Node15&#45;&gt;Node17 -->
<g id="edge21" class="edge"><title>Node15&#45;&gt;Node17</title>
<path fill="none" stroke="midnightblue" d="M1346.57,-66.5074C1522.04,-59.4608 2102.88,-35.3398 2224.79,-18.6725"/>
<polygon fill="midnightblue" stroke="midnightblue" points="2225.49,-22.107 2234.84,-17.1341 2224.43,-15.1876 2225.49,-22.107"/>
</g>
<!-- Node18 -->
<g id="node19" class="node"><title>Node18</title>
<polygon fill="white" stroke="#bfbfbf" points="2293.52,-0.5 2293.52,-18.5 2345.08,-18.5 2345.08,-0.5 2293.52,-0.5"/>
<text text-anchor="middle" x="2319.3" y="-6.5" font-family="Helvetica,sans-Serif" font-size="10.00">sstream</text>
</g>
<!-- Node15&#45;&gt;Node18 -->
<g id="edge23" class="edge"><title>Node15&#45;&gt;Node18</title>
<path fill="none" stroke="midnightblue" d="M1346.74,-66.5306C1529.77,-59.31 2154.51,-33.9912 2283.43,-18.6747"/>
<polygon fill="midnightblue" stroke="midnightblue" points="2283.95,-22.1356 2293.41,-17.3617 2283.04,-15.1953 2283.95,-22.1356"/>
</g>
<!-- Node19 -->
<g id="node20" class="node"><title>Node19</title>
<polygon fill="white" stroke="#bfbfbf" points="793.361,-0.5 793.361,-18.5 909.239,-18.5 909.239,-0.5 793.361,-0.5"/>
<text text-anchor="middle" x="851.3" y="-6.5" font-family="Helvetica,sans-Serif" font-size="10.00">yarp/os/BufferedPort.h</text>
</g>
<!-- Node15&#45;&gt;Node19 -->
<g id="edge24" class="edge"><title>Node15&#45;&gt;Node19</title>
<path fill="none" stroke="midnightblue" d="M1245.69,-61.9031C1165.51,-51.4538 1009.22,-31.0825 919.328,-19.3666"/>
<polygon fill="midnightblue" stroke="midnightblue" points="919.608,-15.8735 909.24,-18.0516 918.703,-22.8148 919.608,-15.8735"/>
</g>
<!-- Node20 -->
<g id="node21" class="node"><title>Node20</title>
<polygon fill="white" stroke="#bfbfbf" points="927.559,-0.5 927.559,-18.5 1013.04,-18.5 1013.04,-0.5 927.559,-0.5"/>
<text text-anchor="middle" x="970.3" y="-6.5" font-family="Helvetica,sans-Serif" font-size="10.00">yarp/os/Bottle.h</text>
</g>
<!-- Node15&#45;&gt;Node20 -->
<g id="edge25" class="edge"><title>Node15&#45;&gt;Node20</title>
<path fill="none" stroke="midnightblue" d="M1251.31,-60.4962C1191.75,-49.8988 1086.87,-31.2389 1023.46,-19.9577"/>
<polygon fill="midnightblue" stroke="midnightblue" points="1023.73,-16.4508 1013.27,-18.1449 1022.5,-23.3425 1023.73,-16.4508"/>
</g>
<!-- Node21 -->
<g id="node22" class="node"><title>Node21</title>
<polygon fill="white" stroke="#bfbfbf" points="1030.94,-0.5 1030.94,-18.5 1143.66,-18.5 1143.66,-0.5 1030.94,-0.5"/>
<text text-anchor="middle" x="1087.3" y="-6.5" font-family="Helvetica,sans-Serif" font-size="10.00">yarp/os/RateThread.h</text>
</g>
<!-- Node15&#45;&gt;Node21 -->
<g id="edge26" class="edge"><title>Node15&#45;&gt;Node21</title>
<path fill="none" stroke="midnightblue" d="M1267.24,-60.4353C1230.53,-50.2487 1167.23,-32.6826 1126.34,-21.3328"/>
<polygon fill="midnightblue" stroke="midnightblue" points="1127.02,-17.891 1116.45,-18.5894 1125.15,-24.6361 1127.02,-17.891"/>
</g>
<!-- Node22 -->
<g id="node23" class="node"><title>Node22</title>
<polygon fill="white" stroke="#bfbfbf" points="1162.05,-0.5 1162.05,-18.5 1292.55,-18.5 1292.55,-0.5 1162.05,-0.5"/>
<text text-anchor="middle" x="1227.3" y="-6.5" font-family="Helvetica,sans-Serif" font-size="10.00">yarp/os/ResourceFinder.h</text>
</g>
<!-- Node15&#45;&gt;Node22 -->
<g id="edge27" class="edge"><title>Node15&#45;&gt;Node22</title>
<path fill="none" stroke="midnightblue" d="M1286.71,-60.4353C1276.01,-51.4475 1258.49,-36.7151 1245.24,-25.5762"/>
<polygon fill="midnightblue" stroke="midnightblue" points="1247.17,-22.6271 1237.26,-18.8718 1242.66,-27.9855 1247.17,-22.6271"/>
</g>
<!-- Node23 -->
<g id="node24" class="node"><title>Node23</title>
<polygon fill="white" stroke="#bfbfbf" points="1311.05,-0.5 1311.05,-18.5 1421.55,-18.5 1421.55,-0.5 1311.05,-0.5"/>
<text text-anchor="middle" x="1366.3" y="-6.5" font-family="Helvetica,sans-Serif" font-size="10.00">yarp/os/PortReader.h</text>
</g>
<!-- Node15&#45;&gt;Node23 -->
<g id="edge28" class="edge"><title>Node15&#45;&gt;Node23</title>
<path fill="none" stroke="midnightblue" d="M1306.03,-60.4353C1316.98,-51.3619 1335,-36.434 1348.49,-25.2589"/>
<polygon fill="midnightblue" stroke="midnightblue" points="1350.73,-27.9471 1356.2,-18.8718 1346.26,-22.5569 1350.73,-27.9471"/>
</g>
<!-- Node15&#45;&gt;Node24 -->
<g id="edge29" class="edge"><title>Node15&#45;&gt;Node24</title>
<path fill="none" stroke="midnightblue" d="M1246.01,-67.4624C1104.18,-64.2068 688.774,-52.4026 333.153,-18.9867"/>
<polygon fill="midnightblue" stroke="midnightblue" points="333.464,-15.5006 323.178,-18.0422 332.804,-22.4694 333.464,-15.5006"/>
</g>
<!-- Node25 -->
<g id="node26" class="node"><title>Node25</title>
<polygon fill="white" stroke="#bfbfbf" points="1440,-0.5 1440,-18.5 1546.6,-18.5 1546.6,-0.5 1440,-0.5"/>
<text text-anchor="middle" x="1493.3" y="-6.5" font-family="Helvetica,sans-Serif" font-size="10.00">yarp/os/RpcServer.h</text>
</g>
<!-- Node15&#45;&gt;Node25 -->
<g id="edge30" class="edge"><title>Node15&#45;&gt;Node25</title>
<path fill="none" stroke="midnightblue" d="M1323.69,-60.4353C1358.15,-50.2918 1417.45,-32.8314 1456.01,-21.4774"/>
<polygon fill="midnightblue" stroke="midnightblue" points="1457.22,-24.7713 1465.82,-18.5894 1455.24,-18.0563 1457.22,-24.7713"/>
</g>
<!-- Node26 -->
<g id="node27" class="node"><title>Node26</title>
<polygon fill="white" stroke="#bfbfbf" points="1564.92,-0.5 1564.92,-18.5 1707.68,-18.5 1707.68,-0.5 1564.92,-0.5"/>
<text text-anchor="middle" x="1636.3" y="-6.5" font-family="Helvetica,sans-Serif" font-size="10.00">yarp/os/ConnectionReader.h</text>
</g>
<!-- Node15&#45;&gt;Node26 -->
<g id="edge31" class="edge"><title>Node15&#45;&gt;Node26</title>
<path fill="none" stroke="midnightblue" d="M1343.22,-60.4962C1404.9,-49.9734 1513.19,-31.501 1579.46,-20.1969"/>
<polygon fill="midnightblue" stroke="midnightblue" points="1580.05,-23.6465 1589.32,-18.5147 1578.87,-16.7462 1580.05,-23.6465"/>
</g>
<!-- Node15&#45;&gt;Node27 -->
<g id="edge32" class="edge"><title>Node15&#45;&gt;Node27</title>
<path fill="none" stroke="midnightblue" d="M1346.61,-68.7338C1511.45,-69.0148 2050.34,-66.0917 2505.1,-18.972"/>
<polygon fill="midnightblue" stroke="midnightblue" points="2505.57,-22.4421 2515.16,-17.9218 2504.85,-15.48 2505.57,-22.4421"/>
</g>
<!-- Node15&#45;&gt;Node28 -->
<g id="edge34" class="edge"><title>Node15&#45;&gt;Node28</title>
<path fill="none" stroke="midnightblue" d="M1245.66,-66.8352C1116.5,-62.3046 764.072,-48.1605 460.24,-19.1183"/>
<polygon fill="midnightblue" stroke="midnightblue" points="460.196,-15.5979 449.907,-18.1229 459.525,-22.5657 460.196,-15.5979"/>
</g>
<!-- Node29 -->
<g id="node30" class="node"><title>Node29</title>
<polygon fill="white" stroke="#bfbfbf" points="1725.82,-0.5 1725.82,-18.5 1822.78,-18.5 1822.78,-0.5 1725.82,-0.5"/>
<text text-anchor="middle" x="1774.3" y="-6.5" font-family="Helvetica,sans-Serif" font-size="10.00">yarp/os/Property.h</text>
</g>
<!-- Node15&#45;&gt;Node29 -->
<g id="edge35" class="edge"><title>Node15&#45;&gt;Node29</title>
<path fill="none" stroke="midnightblue" d="M1346.79,-63.0153C1423.86,-54.5392 1575.76,-37.4325 1715.54,-19.0662"/>
<polygon fill="midnightblue" stroke="midnightblue" points="1716.12,-22.5194 1725.58,-17.7418 1715.21,-15.5795 1716.12,-22.5194"/>
</g>
<!-- Node30 -->
<g id="node31" class="node"><title>Node30</title>
<polygon fill="white" stroke="#bfbfbf" points="1840.62,-0.5 1840.62,-18.5 1929.98,-18.5 1929.98,-0.5 1840.62,-0.5"/>
<text text-anchor="middle" x="1885.3" y="-6.5" font-family="Helvetica,sans-Serif" font-size="10.00">yarp/sig/Matrix.h</text>
</g>
<!-- Node15&#45;&gt;Node30 -->
<g id="edge37" class="edge"><title>Node15&#45;&gt;Node30</title>
<path fill="none" stroke="midnightblue" d="M1346.57,-64.9254C1439.79,-58.0627 1645.96,-41.7874 1830.39,-19.0332"/>
<polygon fill="midnightblue" stroke="midnightblue" points="1831.05,-22.4776 1840.54,-17.7707 1830.19,-15.531 1831.05,-22.4776"/>
</g>
<!-- Node31 -->
<g id="node32" class="node"><title>Node31</title>
<polygon fill="white" stroke="#bfbfbf" points="1948.06,-0.5 1948.06,-18.5 2068.54,-18.5 2068.54,-0.5 1948.06,-0.5"/>
<text text-anchor="middle" x="2008.3" y="-6.5" font-family="Helvetica,sans-Serif" font-size="10.00">ocra/util/StringUtilities.h</text>
</g>
<!-- Node15&#45;&gt;Node31 -->
<g id="edge40" class="edge"><title>Node15&#45;&gt;Node31</title>
<path fill="none" stroke="midnightblue" d="M1346.8,-65.4008C1453.78,-58.6655 1711.3,-41.549 1937.66,-19.1235"/>
<polygon fill="midnightblue" stroke="midnightblue" points="1938.13,-22.594 1947.74,-18.1198 1937.44,-15.6285 1938.13,-22.594"/>
</g>
<!-- Node32 -->
<g id="node33" class="node"><title>Node32</title>
<polygon fill="white" stroke="#bfbfbf" points="2423.67,-0.5 2423.67,-18.5 2496.93,-18.5 2496.93,-0.5 2423.67,-0.5"/>
<text text-anchor="middle" x="2460.3" y="-6.5" font-family="Helvetica,sans-Serif" font-size="10.00">Eigen/Dense</text>
</g>
<!-- Node15&#45;&gt;Node32 -->
<g id="edge41" class="edge"><title>Node15&#45;&gt;Node32</title>
<path fill="none" stroke="midnightblue" d="M1346.69,-68.8212C1503.5,-69.28 1996.79,-66.6437 2413.39,-19.056"/>
<polygon fill="midnightblue" stroke="midnightblue" points="2414,-22.5098 2423.53,-17.8875 2413.19,-15.5559 2414,-22.5098"/>
</g>
<!-- Node33 -->
<g id="node34" class="node"><title>Node33</title>
<polygon fill="white" stroke="#bfbfbf" points="2086.9,-0.5 2086.9,-18.5 2155.7,-18.5 2155.7,-0.5 2086.9,-0.5"/>
<text text-anchor="middle" x="2121.3" y="-6.5" font-family="Helvetica,sans-Serif" font-size="10.00">Eigen/Lgsm</text>
</g>
<!-- Node15&#45;&gt;Node33 -->
<g id="edge42" class="edge"><title>Node15&#45;&gt;Node33</title>
<path fill="none" stroke="midnightblue" d="M1346.77,-67.5289C1469.84,-64.6831 1795.3,-54.2837 2076.79,-18.8704"/>
<polygon fill="midnightblue" stroke="midnightblue" points="2077.3,-22.3331 2086.78,-17.6 2076.42,-15.389 2077.3,-22.3331"/>
</g>
<!-- Node38&#45;&gt;Node12 -->
<g id="edge60" class="edge"><title>Node38&#45;&gt;Node12</title>
<path fill="none" stroke="midnightblue" d="M2215.36,-120.304C2207.52,-103.351 2197.62,-73.8665 2212.3,-55 2250.41,-6.02414 2287.75,-33.0353 2352.59,-19.1503"/>
<polygon fill="midnightblue" stroke="midnightblue" points="2353.47,-22.5406 2362.36,-16.7911 2351.82,-15.7361 2353.47,-22.5406"/>
</g>
<!-- Node38&#45;&gt;Node15 -->
<g id="edge57" class="edge"><title>Node38&#45;&gt;Node15</title>
<path fill="none" stroke="midnightblue" d="M2154.96,-128.918C1981.6,-117.124 1522.02,-85.8566 1356.65,-74.6059"/>
<polygon fill="midnightblue" stroke="midnightblue" points="1356.87,-71.1128 1346.66,-73.9259 1356.39,-78.0967 1356.87,-71.1128"/>
</g>
<!-- Node38&#45;&gt;Node32 -->
<g id="edge59" class="edge"><title>Node38&#45;&gt;Node32</title>
<path fill="none" stroke="midnightblue" d="M2222.25,-120.257C2222.95,-102.694 2226.93,-71.9444 2245.3,-55 2248.42,-52.1238 2351.24,-31.7145 2413.54,-19.5577"/>
<polygon fill="midnightblue" stroke="midnightblue" points="2414.4,-22.9565 2423.55,-17.6086 2413.06,-16.0857 2414.4,-22.9565"/>
</g>
<!-- Node39 -->
<g id="node40" class="node"><title>Node39</title>
<polygon fill="white" stroke="#bfbfbf" points="2254.17,-60.5 2254.17,-78.5 2372.43,-78.5 2372.43,-60.5 2254.17,-60.5"/>
<text text-anchor="middle" x="2313.3" y="-66.5" font-family="Helvetica,sans-Serif" font-size="10.00">ocra/util/ErrorsHelper.h</text>
</g>
<!-- Node38&#45;&gt;Node39 -->
<g id="edge58" class="edge"><title>Node38&#45;&gt;Node39</title>
<path fill="none" stroke="midnightblue" d="M2241.16,-120.446C2256.39,-109.901 2277.77,-95.0984 2293.3,-84.3471"/>
<polygon fill="midnightblue" stroke="midnightblue" points="2295.45,-87.1178 2301.68,-78.548 2291.46,-81.3625 2295.45,-87.1178"/>
</g>
<!-- Node40&#45;&gt;Node12 -->
<g id="edge65" class="edge"><title>Node40&#45;&gt;Node12</title>
<path fill="none" stroke="midnightblue" d="M2382.43,-125.43C2382.75,-105.975 2383.56,-56.0935 2384,-28.8811"/>
<polygon fill="midnightblue" stroke="midnightblue" points="2387.5,-28.817 2384.17,-18.7614 2380.5,-28.7031 2387.5,-28.817"/>
</g>
<!-- Node40&#45;&gt;Node15 -->
<g id="edge62" class="edge"><title>Node40&#45;&gt;Node15</title>
<path fill="none" stroke="midnightblue" d="M2337.96,-125.438C2325.19,-123.372 2311.23,-121.354 2298.3,-120 1942.91,-82.778 1513.61,-73.4244 1357.11,-71.1773"/>
<polygon fill="midnightblue" stroke="midnightblue" points="1356.8,-67.6728 1346.76,-71.0334 1356.71,-74.6722 1356.8,-67.6728"/>
</g>
<!-- Node40&#45;&gt;Node32 -->
<g id="edge64" class="edge"><title>Node40&#45;&gt;Node32</title>
<path fill="none" stroke="midnightblue" d="M2387.42,-125.43C2399.98,-105.628 2432.52,-54.3023 2449.55,-27.4453"/>
<polygon fill="midnightblue" stroke="midnightblue" points="2452.66,-29.0809 2455.06,-18.7614 2446.75,-25.3321 2452.66,-29.0809"/>
</g>
<!-- Node40&#45;&gt;Node39 -->
<g id="edge63" class="edge"><title>Node40&#45;&gt;Node39</title>
<path fill="none" stroke="midnightblue" d="M2373.28,-125.264C2362.27,-115.21 2343.43,-98.0121 2329.8,-85.5672"/>
<polygon fill="midnightblue" stroke="midnightblue" points="2331.85,-82.697 2322.1,-78.539 2327.13,-87.8664 2331.85,-82.697"/>
</g>
</g>
</svg>
