<?xml version="1.0" encoding="UTF-8" standalone="no"?>
<!DOCTYPE svg PUBLIC "-//W3C//DTD SVG 1.1//EN"
 "http://www.w3.org/Graphics/SVG/1.1/DTD/svg11.dtd">
<!-- Generated by graphviz version 2.38.0 (20140413.2041)
 -->
<!-- Title: /Users/jorhabibeljaik/Code/codyco&#45;superbuild/main/ocra&#45;wbi&#45;plugins/ocra&#45;icub&#45;clients/walking&#45;client/src/WalkingClient.cpp Pages: 1 -->
<svg width="2464pt" height="472pt"
 viewBox="0.00 0.00 2464.26 472.00" xmlns="http://www.w3.org/2000/svg" xmlns:xlink="http://www.w3.org/1999/xlink">
<g id="graph0" class="graph" transform="scale(1 1) rotate(0) translate(4 468)">
<title>/Users/jorhabibeljaik/Code/codyco&#45;superbuild/main/ocra&#45;wbi&#45;plugins/ocra&#45;icub&#45;clients/walking&#45;client/src/WalkingClient.cpp</title>
<polygon fill="white" stroke="none" points="-4,4 -4,-468 2460.26,-468 2460.26,4 -4,4"/>
<!-- Node0 -->
<g id="node1" class="node"><title>Node0</title>
<polygon fill="#bfbfbf" stroke="black" points="1080.02,-405.5 1080.02,-463.5 1221.25,-463.5 1221.25,-405.5 1080.02,-405.5"/>
<text text-anchor="start" x="1088.02" y="-451.5" font-family="Helvetica,sans-Serif" font-size="10.00">/Users/jorhabibeljaik</text>
<text text-anchor="start" x="1088.02" y="-441.5" font-family="Helvetica,sans-Serif" font-size="10.00">/Code/codyco&#45;superbuild</text>
<text text-anchor="start" x="1088.02" y="-431.5" font-family="Helvetica,sans-Serif" font-size="10.00">/main/ocra&#45;wbi&#45;plugins</text>
<text text-anchor="start" x="1088.02" y="-421.5" font-family="Helvetica,sans-Serif" font-size="10.00">/ocra&#45;icub&#45;clients/walking</text>
<text text-anchor="middle" x="1150.63" y="-411.5" font-family="Helvetica,sans-Serif" font-size="10.00">&#45;client/src/WalkingClient.cpp</text>
</g>
<!-- Node1 -->
<g id="node2" class="node"><title>Node1</title>
<g id="a_node2"><a xlink:href="WalkingClient_8h.html" target="_top" xlink:title="walking&#45;client/WalkingClient.h">
<polygon fill="white" stroke="black" points="1076.68,-350.5 1076.68,-368.5 1224.58,-368.5 1224.58,-350.5 1076.68,-350.5"/>
<text text-anchor="middle" x="1150.63" y="-356.5" font-family="Helvetica,sans-Serif" font-size="10.00">walking&#45;client/WalkingClient.h</text>
</a>
</g>
</g>
<!-- Node0&#45;&gt;Node1 -->
<g id="edge1" class="edge"><title>Node0&#45;&gt;Node1</title>
<path fill="none" stroke="midnightblue" d="M1150.63,-405.485C1150.63,-396.521 1150.63,-386.835 1150.63,-378.754"/>
<polygon fill="midnightblue" stroke="midnightblue" points="1154.13,-378.644 1150.63,-368.644 1147.13,-378.644 1154.13,-378.644"/>
</g>
<!-- Node2 -->
<g id="node3" class="node"><title>Node2</title>
<g id="a_node3"><a xlink:href="IcubClient_8h.html" target="_top" xlink:title="ocra&#45;icub/IcubClient.h">
<polygon fill="white" stroke="black" points="794.273,-295.5 794.273,-313.5 906.987,-313.5 906.987,-295.5 794.273,-295.5"/>
<text text-anchor="middle" x="850.63" y="-301.5" font-family="Helvetica,sans-Serif" font-size="10.00">ocra&#45;icub/IcubClient.h</text>
</a>
</g>
</g>
<!-- Node1&#45;&gt;Node2 -->
<g id="edge2" class="edge"><title>Node1&#45;&gt;Node2</title>
<path fill="none" stroke="midnightblue" d="M1105.07,-350.45C1051.72,-341.026 963.385,-325.42 906.099,-315.299"/>
<polygon fill="midnightblue" stroke="midnightblue" points="906.587,-311.831 896.13,-313.538 905.369,-318.725 906.587,-311.831"/>
</g>
<!-- Node34 -->
<g id="node35" class="node"><title>Node34</title>
<polygon fill="white" stroke="#bfbfbf" points="985.676,-295.5 985.676,-313.5 1143.58,-313.5 1143.58,-295.5 985.676,-295.5"/>
<text text-anchor="middle" x="1064.63" y="-301.5" font-family="Helvetica,sans-Serif" font-size="10.00">ocra&#45;recipes/TrajectoryThread.h</text>
</g>
<!-- Node1&#45;&gt;Node34 -->
<g id="edge52" class="edge"><title>Node1&#45;&gt;Node34</title>
<path fill="none" stroke="midnightblue" d="M1137.57,-350.45C1124.06,-342.123 1102.71,-328.97 1086.6,-319.039"/>
<polygon fill="midnightblue" stroke="midnightblue" points="1088.16,-315.892 1077.81,-313.625 1084.49,-321.851 1088.16,-315.892"/>
</g>
<!-- Node35 -->
<g id="node36" class="node"><title>Node35</title>
<polygon fill="white" stroke="#bfbfbf" points="1161.1,-295.5 1161.1,-313.5 1312.16,-313.5 1312.16,-295.5 1161.1,-295.5"/>
<text text-anchor="middle" x="1236.63" y="-301.5" font-family="Helvetica,sans-Serif" font-size="10.00">ocra&#45;recipes/ControllerClient.h</text>
</g>
<!-- Node1&#45;&gt;Node35 -->
<g id="edge53" class="edge"><title>Node1&#45;&gt;Node35</title>
<path fill="none" stroke="midnightblue" d="M1163.69,-350.45C1177.2,-342.123 1198.55,-328.97 1214.66,-319.039"/>
<polygon fill="midnightblue" stroke="midnightblue" points="1216.77,-321.851 1223.45,-313.625 1213.1,-315.892 1216.77,-321.851"/>
</g>
<!-- Node36 -->
<g id="node37" class="node"><title>Node36</title>
<g id="a_node37"><a xlink:href="ZmpPreviewController_8h.html" target="_top" xlink:title="walking&#45;client/ZmpPreview\lController.h">
<polygon fill="white" stroke="black" points="2098.45,-120.5 2098.45,-148.5 2232.81,-148.5 2232.81,-120.5 2098.45,-120.5"/>
<text text-anchor="start" x="2106.45" y="-136.5" font-family="Helvetica,sans-Serif" font-size="10.00">walking&#45;client/ZmpPreview</text>
<text text-anchor="middle" x="2165.63" y="-126.5" font-family="Helvetica,sans-Serif" font-size="10.00">Controller.h</text>
</a>
</g>
</g>
<!-- Node1&#45;&gt;Node36 -->
<g id="edge54" class="edge"><title>Node1&#45;&gt;Node36</title>
<path fill="none" stroke="midnightblue" d="M1187.05,-350.498C1335.75,-317.829 1898.23,-194.25 2096.19,-150.756"/>
<polygon fill="midnightblue" stroke="midnightblue" points="2097.17,-154.126 2106.18,-148.561 2095.66,-147.289 2097.17,-154.126"/>
</g>
<!-- Node3 -->
<g id="node4" class="node"><title>Node3</title>
<g id="a_node4"><a xlink:href="ModelInitializer_8h.html" target="_top" xlink:title="ocra&#45;icub/ModelInitializer.h">
<polygon fill="white" stroke="black" points="305.434,-240.5 305.434,-258.5 439.827,-258.5 439.827,-240.5 305.434,-240.5"/>
<text text-anchor="middle" x="372.63" y="-246.5" font-family="Helvetica,sans-Serif" font-size="10.00">ocra&#45;icub/ModelInitializer.h</text>
</a>
</g>
</g>
<!-- Node2&#45;&gt;Node3 -->
<g id="edge3" class="edge"><title>Node2&#45;&gt;Node3</title>
<path fill="none" stroke="midnightblue" d="M793.92,-297.212C708.413,-287.731 546.263,-269.752 449.983,-259.077"/>
<polygon fill="midnightblue" stroke="midnightblue" points="450.34,-255.595 440.015,-257.972 449.569,-262.552 450.34,-255.595"/>
</g>
<!-- Node4 -->
<g id="node5" class="node"><title>Node4</title>
<g id="a_node5"><a xlink:href="OcraWbiModel_8h.html" target="_top" xlink:title="Implementation of ocra::Model using wholeBodyInterface. ">
<polygon fill="white" stroke="black" points="783.443,-185.5 783.443,-203.5 917.817,-203.5 917.817,-185.5 783.443,-185.5"/>
<text text-anchor="middle" x="850.63" y="-191.5" font-family="Helvetica,sans-Serif" font-size="10.00">ocra&#45;icub/OcraWbiModel.h</text>
</a>
</g>
</g>
<!-- Node2&#45;&gt;Node4 -->
<g id="edge50" class="edge"><title>Node2&#45;&gt;Node4</title>
<path fill="none" stroke="midnightblue" d="M850.63,-295.382C850.63,-278.182 850.63,-237.698 850.63,-213.887"/>
<polygon fill="midnightblue" stroke="midnightblue" points="854.13,-213.712 850.63,-203.712 847.13,-213.712 854.13,-213.712"/>
</g>
<!-- Node9 -->
<g id="node10" class="node"><title>Node9</title>
<g id="a_node10"><a xlink:href="OcraWbiConversions_8h.html" target="_top" xlink:title="A utility class full of static conversion functions. ">
<polygon fill="white" stroke="black" points="674.271,-125.5 674.271,-143.5 836.99,-143.5 836.99,-125.5 674.271,-125.5"/>
<text text-anchor="middle" x="755.63" y="-131.5" font-family="Helvetica,sans-Serif" font-size="10.00">ocra&#45;icub/OcraWbiConversions.h</text>
</a>
</g>
</g>
<!-- Node2&#45;&gt;Node9 -->
<g id="edge49" class="edge"><title>Node2&#45;&gt;Node9</title>
<path fill="none" stroke="midnightblue" d="M842.72,-295.463C827.37,-279.431 793.405,-241.759 774.63,-204 766.653,-187.956 761.613,-168.077 758.744,-153.874"/>
<polygon fill="midnightblue" stroke="midnightblue" points="762.156,-153.078 756.895,-143.882 755.273,-154.352 762.156,-153.078"/>
</g>
<!-- Node15 -->
<g id="node16" class="node"><title>Node15</title>
<g id="a_node16"><a xlink:href="Utilities_8h.html" target="_top" xlink:title="Some useful tools for the ocra&#45;icub lib. ">
<polygon fill="white" stroke="black" points="1167.39,-60.5 1167.39,-78.5 1267.87,-78.5 1267.87,-60.5 1167.39,-60.5"/>
<text text-anchor="middle" x="1217.63" y="-66.5" font-family="Helvetica,sans-Serif" font-size="10.00">ocra&#45;icub/Utilities.h</text>
</a>
</g>
</g>
<!-- Node2&#45;&gt;Node15 -->
<g id="edge51" class="edge"><title>Node2&#45;&gt;Node15</title>
<path fill="none" stroke="midnightblue" d="M863.263,-295.48C917.073,-261.317 1127.53,-127.705 1195.98,-84.2425"/>
<polygon fill="midnightblue" stroke="midnightblue" points="1198.1,-87.0426 1204.67,-78.7279 1194.35,-81.1329 1198.1,-87.0426"/>
</g>
<!-- Node3&#45;&gt;Node4 -->
<g id="edge4" class="edge"><title>Node3&#45;&gt;Node4</title>
<path fill="none" stroke="midnightblue" d="M439.85,-241.047C527.589,-231.318 680.821,-214.328 773.288,-204.076"/>
<polygon fill="midnightblue" stroke="midnightblue" points="773.87,-207.533 783.424,-202.952 773.099,-200.575 773.87,-207.533"/>
</g>
<!-- Node6 -->
<g id="node7" class="node"><title>Node6</title>
<polygon fill="white" stroke="#bfbfbf" points="343.33,-0.5 343.33,-18.5 449.931,-18.5 449.931,-0.5 343.33,-0.5"/>
<text text-anchor="middle" x="396.63" y="-6.5" font-family="Helvetica,sans-Serif" font-size="10.00">ocra/control/Model.h</text>
</g>
<!-- Node3&#45;&gt;Node6 -->
<g id="edge43" class="edge"><title>Node3&#45;&gt;Node6</title>
<path fill="none" stroke="midnightblue" d="M388.041,-240.354C424.811,-219.92 517.18,-162.447 551.63,-84 556.813,-72.1989 559.385,-65.2948 551.63,-55 540.071,-39.6556 496.361,-27.9744 458.293,-20.4385"/>
<polygon fill="midnightblue" stroke="midnightblue" points="458.729,-16.9586 448.25,-18.5179 457.414,-23.834 458.729,-16.9586"/>
</g>
<!-- Node8 -->
<g id="node9" class="node"><title>Node8</title>
<polygon fill="white" stroke="#bfbfbf" points="248.333,-0.5 248.333,-18.5 324.928,-18.5 324.928,-0.5 248.333,-0.5"/>
<text text-anchor="middle" x="286.63" y="-6.5" font-family="Helvetica,sans-Serif" font-size="10.00">yarp/os/Log.h</text>
</g>
<!-- Node3&#45;&gt;Node8 -->
<g id="edge48" class="edge"><title>Node3&#45;&gt;Node8</title>
<path fill="none" stroke="midnightblue" d="M369.67,-240.308C357.394,-206.335 310.328,-76.0826 293.045,-28.2508"/>
<polygon fill="midnightblue" stroke="midnightblue" points="296.268,-26.8734 289.578,-18.658 289.685,-29.2523 296.268,-26.8734"/>
</g>
<!-- Node14 -->
<g id="node15" class="node"><title>Node14</title>
<polygon fill="white" stroke="#bfbfbf" points="352.32,-55.5 352.32,-83.5 488.94,-83.5 488.94,-55.5 352.32,-55.5"/>
<text text-anchor="start" x="360.32" y="-71.5" font-family="Helvetica,sans-Serif" font-size="10.00">yarpWholeBodyInterface</text>
<text text-anchor="middle" x="420.63" y="-61.5" font-family="Helvetica,sans-Serif" font-size="10.00">/yarpWholeBodyInterface.h</text>
</g>
<!-- Node3&#45;&gt;Node14 -->
<g id="edge44" class="edge"><title>Node3&#45;&gt;Node14</title>
<path fill="none" stroke="midnightblue" d="M374.818,-240.389C381.788,-214.542 403.651,-133.464 414.458,-93.388"/>
<polygon fill="midnightblue" stroke="midnightblue" points="417.848,-94.2614 417.072,-83.695 411.089,-92.4388 417.848,-94.2614"/>
</g>
<!-- Node24 -->
<g id="node25" class="node"><title>Node24</title>
<polygon fill="white" stroke="#bfbfbf" points="0,-0.5 0,-18.5 103.261,-18.5 103.261,-0.5 0,-0.5"/>
<text text-anchor="middle" x="51.6304" y="-6.5" font-family="Helvetica,sans-Serif" font-size="10.00">yarp/os/RpcClient.h</text>
</g>
<!-- Node3&#45;&gt;Node24 -->
<g id="edge45" class="edge"><title>Node3&#45;&gt;Node24</title>
<path fill="none" stroke="midnightblue" d="M305.245,-245.644C265.129,-241.064 214.942,-230.021 177.63,-204 112.389,-158.5 72.5894,-67.2927 57.9852,-28.5616"/>
<polygon fill="midnightblue" stroke="midnightblue" points="61.1107,-26.9162 54.3967,-18.7204 54.5343,-29.3143 61.1107,-26.9162"/>
</g>
<!-- Node28 -->
<g id="node29" class="node"><title>Node28</title>
<polygon fill="white" stroke="#bfbfbf" points="121.217,-0.5 121.217,-18.5 230.044,-18.5 230.044,-0.5 121.217,-0.5"/>
<text text-anchor="middle" x="175.63" y="-6.5" font-family="Helvetica,sans-Serif" font-size="10.00">yarp/os/LogStream.h</text>
</g>
<!-- Node3&#45;&gt;Node28 -->
<g id="edge47" class="edge"><title>Node3&#45;&gt;Node28</title>
<path fill="none" stroke="midnightblue" d="M308.453,-240.441C263.416,-233.38 208.658,-221.486 193.63,-204 150.384,-153.681 162.958,-66.4839 171.112,-28.7614"/>
<polygon fill="midnightblue" stroke="midnightblue" points="174.587,-29.2702 173.434,-18.7383 167.767,-27.6905 174.587,-29.2702"/>
</g>
<!-- Node33 -->
<g id="node34" class="node"><title>Node33</title>
<polygon fill="white" stroke="#bfbfbf" points="202.337,-185.5 202.337,-203.5 298.923,-203.5 298.923,-185.5 202.337,-185.5"/>
<text text-anchor="middle" x="250.63" y="-191.5" font-family="Helvetica,sans-Serif" font-size="10.00">yarp/os/Network.h</text>
</g>
<!-- Node3&#45;&gt;Node33 -->
<g id="edge46" class="edge"><title>Node3&#45;&gt;Node33</title>
<path fill="none" stroke="midnightblue" d="M354.101,-240.45C334.037,-231.734 301.803,-217.731 278.642,-207.669"/>
<polygon fill="midnightblue" stroke="midnightblue" points="279.9,-204.4 269.334,-203.625 277.111,-210.82 279.9,-204.4"/>
</g>
<!-- Node5 -->
<g id="node6" class="node"><title>Node5</title>
<polygon fill="white" stroke="#bfbfbf" points="647.574,-0.5 647.574,-18.5 699.687,-18.5 699.687,-0.5 647.574,-0.5"/>
<text text-anchor="middle" x="673.63" y="-6.5" font-family="Helvetica,sans-Serif" font-size="10.00">memory</text>
</g>
<!-- Node4&#45;&gt;Node5 -->
<g id="edge5" class="edge"><title>Node4&#45;&gt;Node5</title>
<path fill="none" stroke="midnightblue" d="M852.358,-185.073C854.849,-170.622 857.908,-140.674 845.63,-120 815.072,-68.5442 749.862,-37.2955 709.095,-22.0055"/>
<polygon fill="midnightblue" stroke="midnightblue" points="710.137,-18.6604 699.543,-18.5465 707.754,-25.2422 710.137,-18.6604"/>
</g>
<!-- Node4&#45;&gt;Node6 -->
<g id="edge6" class="edge"><title>Node4&#45;&gt;Node6</title>
<path fill="none" stroke="midnightblue" d="M783.057,-191.461C744.882,-187.091 698.398,-175.985 665.63,-149 630.166,-119.795 658.695,-83.4602 622.63,-55 609.899,-44.9533 522.556,-29.7708 460.271,-19.9954"/>
<polygon fill="midnightblue" stroke="midnightblue" points="460.538,-16.495 450.119,-18.4149 459.461,-23.4116 460.538,-16.495"/>
</g>
<!-- Node7 -->
<g id="node8" class="node"><title>Node7</title>
<polygon fill="white" stroke="#bfbfbf" points="2247.07,-0.5 2247.07,-18.5 2304.19,-18.5 2304.19,-0.5 2247.07,-0.5"/>
<text text-anchor="middle" x="2275.63" y="-6.5" font-family="Helvetica,sans-Serif" font-size="10.00">wbi/wbi.h</text>
</g>
<!-- Node4&#45;&gt;Node7 -->
<g id="edge7" class="edge"><title>Node4&#45;&gt;Node7</title>
<path fill="none" stroke="midnightblue" d="M918.085,-187.305C1118.16,-168.444 1725.67,-107.657 2236.89,-18.9663"/>
<polygon fill="midnightblue" stroke="midnightblue" points="2237.8,-22.3602 2247.05,-17.1971 2236.6,-15.4639 2237.8,-22.3602"/>
</g>
<!-- Node4&#45;&gt;Node8 -->
<g id="edge8" class="edge"><title>Node4&#45;&gt;Node8</title>
<path fill="none" stroke="midnightblue" d="M783.212,-193.256C680.591,-189.907 482.481,-171.492 343.63,-84 321.703,-70.1832 304.865,-44.8007 295.355,-27.7858"/>
<polygon fill="midnightblue" stroke="midnightblue" points="298.406,-26.069 290.618,-18.8853 292.226,-29.3574 298.406,-26.069"/>
</g>
<!-- Node4&#45;&gt;Node9 -->
<g id="edge9" class="edge"><title>Node4&#45;&gt;Node9</title>
<path fill="none" stroke="midnightblue" d="M837.421,-185.435C821.981,-176.009 796.192,-160.264 777.698,-148.973"/>
<polygon fill="midnightblue" stroke="midnightblue" points="779.393,-145.907 769.034,-143.683 775.745,-151.881 779.393,-145.907"/>
</g>
<!-- Node4&#45;&gt;Node15 -->
<g id="edge42" class="edge"><title>Node4&#45;&gt;Node15</title>
<path fill="none" stroke="midnightblue" d="M874.71,-185.43C938.221,-164.144 1110.42,-106.432 1183.79,-81.8427"/>
<polygon fill="midnightblue" stroke="midnightblue" points="1185.09,-85.0965 1193.46,-78.6001 1182.87,-78.4594 1185.09,-85.0965"/>
</g>
<!-- Node9&#45;&gt;Node7 -->
<g id="edge15" class="edge"><title>Node9&#45;&gt;Node7</title>
<path fill="none" stroke="midnightblue" d="M836.55,-125.484C991.521,-110.31 1340.99,-76.9468 1635.63,-55 1899.66,-35.3333 1970.49,-55.861 2236.71,-18.8773"/>
<polygon fill="midnightblue" stroke="midnightblue" points="2237.26,-22.3355 2246.67,-17.4797 2236.28,-15.4034 2237.26,-22.3355"/>
</g>
<!-- Node9&#45;&gt;Node8 -->
<g id="edge14" class="edge"><title>Node9&#45;&gt;Node8</title>
<path fill="none" stroke="midnightblue" d="M738.297,-125.443C703.605,-109.632 622.847,-74.3933 551.63,-55 460.343,-30.1408 432.753,-35.1565 335.127,-19.039"/>
<polygon fill="midnightblue" stroke="midnightblue" points="335.579,-15.5659 325.136,-17.3567 334.416,-22.4687 335.579,-15.5659"/>
</g>
<!-- Node10 -->
<g id="node11" class="node"><title>Node10</title>
<polygon fill="white" stroke="#bfbfbf" points="575.458,-0.5 575.458,-18.5 629.803,-18.5 629.803,-0.5 575.458,-0.5"/>
<text text-anchor="middle" x="602.63" y="-6.5" font-family="Helvetica,sans-Serif" font-size="10.00">iostream</text>
</g>
<!-- Node9&#45;&gt;Node10 -->
<g id="edge10" class="edge"><title>Node9&#45;&gt;Node10</title>
<path fill="none" stroke="midnightblue" d="M753.478,-125.432C748.905,-109.757 736.781,-74.9766 714.63,-55 702.99,-44.5022 666.609,-31.0488 638.435,-21.6958"/>
<polygon fill="midnightblue" stroke="midnightblue" points="639.458,-18.3481 628.866,-18.57 637.285,-25.0022 639.458,-18.3481"/>
</g>
<!-- Node11 -->
<g id="node12" class="node"><title>Node11</title>
<polygon fill="white" stroke="#bfbfbf" points="506.904,-60.5 506.904,-78.5 542.357,-78.5 542.357,-60.5 506.904,-60.5"/>
<text text-anchor="middle" x="524.63" y="-66.5" font-family="Helvetica,sans-Serif" font-size="10.00">map</text>
</g>
<!-- Node9&#45;&gt;Node11 -->
<g id="edge11" class="edge"><title>Node9&#45;&gt;Node11</title>
<path fill="none" stroke="midnightblue" d="M715.465,-125.432C674.897,-116.836 610.674,-102 556.63,-84 555.018,-83.4629 553.372,-82.8804 551.721,-82.2691"/>
<polygon fill="midnightblue" stroke="midnightblue" points="552.969,-78.9988 542.383,-78.5666 550.389,-85.506 552.969,-78.9988"/>
</g>
<!-- Node12 -->
<g id="node13" class="node"><title>Node12</title>
<polygon fill="white" stroke="#bfbfbf" points="2322.01,-0.5 2322.01,-18.5 2365.25,-18.5 2365.25,-0.5 2322.01,-0.5"/>
<text text-anchor="middle" x="2343.63" y="-6.5" font-family="Helvetica,sans-Serif" font-size="10.00">vector</text>
</g>
<!-- Node9&#45;&gt;Node12 -->
<g id="edge12" class="edge"><title>Node9&#45;&gt;Node12</title>
<path fill="none" stroke="midnightblue" d="M837.194,-128.19C971.408,-119.394 1247.23,-101.074 1480.63,-84 1847.64,-57.1524 1946.31,-83.8886 2311.73,-19.0249"/>
<polygon fill="midnightblue" stroke="midnightblue" points="2312.56,-22.432 2321.79,-17.2282 2311.33,-15.541 2312.56,-22.432"/>
</g>
<!-- Node13 -->
<g id="node14" class="node"><title>Node13</title>
<polygon fill="white" stroke="#bfbfbf" points="467.66,-0.5 467.66,-18.5 557.601,-18.5 557.601,-0.5 467.66,-0.5"/>
<text text-anchor="middle" x="512.63" y="-6.5" font-family="Helvetica,sans-Serif" font-size="10.00">yarp/sig/Vector.h</text>
</g>
<!-- Node9&#45;&gt;Node13 -->
<g id="edge13" class="edge"><title>Node9&#45;&gt;Node13</title>
<path fill="none" stroke="midnightblue" d="M748.053,-125.363C732.914,-109.566 697.227,-74.5828 660.63,-55 630.792,-39.0337 594.43,-27.9982 565.215,-20.9105"/>
<polygon fill="midnightblue" stroke="midnightblue" points="565.737,-17.438 555.202,-18.5665 564.141,-24.2537 565.737,-17.438"/>
</g>
<!-- Node9&#45;&gt;Node14 -->
<g id="edge16" class="edge"><title>Node9&#45;&gt;Node14</title>
<path fill="none" stroke="midnightblue" d="M712.862,-125.457C659.089,-115.345 565.75,-97.7912 499.024,-85.2427"/>
<polygon fill="midnightblue" stroke="midnightblue" points="499.442,-81.76 488.967,-83.3514 498.148,-88.6394 499.442,-81.76"/>
</g>
<!-- Node9&#45;&gt;Node15 -->
<g id="edge17" class="edge"><title>Node9&#45;&gt;Node15</title>
<path fill="none" stroke="midnightblue" d="M814.612,-125.457C902.801,-113.431 1068.16,-90.8826 1157.19,-78.742"/>
<polygon fill="midnightblue" stroke="midnightblue" points="1157.7,-82.205 1167.13,-77.3859 1156.75,-75.2692 1157.7,-82.205"/>
</g>
<!-- Node15&#45;&gt;Node5 -->
<g id="edge18" class="edge"><title>Node15&#45;&gt;Node5</title>
<path fill="none" stroke="midnightblue" d="M1167.11,-65.9575C1077.05,-60.91 882.76,-47.6929 709.959,-18.9955"/>
<polygon fill="midnightblue" stroke="midnightblue" points="710.363,-15.5143 699.921,-17.3067 709.202,-22.4173 710.363,-15.5143"/>
</g>
<!-- Node15&#45;&gt;Node6 -->
<g id="edge39" class="edge"><title>Node15&#45;&gt;Node6</title>
<path fill="none" stroke="midnightblue" d="M1167.35,-66.459C1047.02,-61.3082 732.803,-46.2843 460.126,-19.0813"/>
<polygon fill="midnightblue" stroke="midnightblue" points="460.336,-15.5849 450.036,-18.0672 459.636,-22.5498 460.336,-15.5849"/>
</g>
<!-- Node15&#45;&gt;Node7 -->
<g id="edge38" class="edge"><title>Node15&#45;&gt;Node7</title>
<path fill="none" stroke="midnightblue" d="M1268.06,-66.0126C1323.22,-63.2951 1414.21,-58.8195 1492.63,-55 1820.34,-39.0384 1907.34,-62.8471 2236.37,-18.9021"/>
<polygon fill="midnightblue" stroke="midnightblue" points="2237.23,-22.3178 2246.68,-17.5144 2236.3,-15.3804 2237.23,-22.3178"/>
</g>
<!-- Node15&#45;&gt;Node8 -->
<g id="edge33" class="edge"><title>Node15&#45;&gt;Node8</title>
<path fill="none" stroke="midnightblue" d="M1167.17,-67.7754C1033.28,-65.4028 657.76,-55.8244 335.095,-18.8825"/>
<polygon fill="midnightblue" stroke="midnightblue" points="335.419,-15.3968 325.083,-17.7255 334.615,-22.3505 335.419,-15.3968"/>
</g>
<!-- Node15&#45;&gt;Node10 -->
<g id="edge20" class="edge"><title>Node15&#45;&gt;Node10</title>
<path fill="none" stroke="midnightblue" d="M1167.38,-66.6833C1068.23,-62.5631 840.373,-50.4378 640.18,-19.0226"/>
<polygon fill="midnightblue" stroke="midnightblue" points="640.491,-15.5282 630.065,-17.415 639.392,-22.4414 640.491,-15.5282"/>
</g>
<!-- Node15&#45;&gt;Node12 -->
<g id="edge22" class="edge"><title>Node15&#45;&gt;Node12</title>
<path fill="none" stroke="midnightblue" d="M1268.07,-67.767C1452.2,-64.8547 2088.55,-52.6561 2311.81,-18.8855"/>
<polygon fill="midnightblue" stroke="midnightblue" points="2312.47,-22.3243 2321.81,-17.313 2311.38,-15.4093 2312.47,-22.3243"/>
</g>
<!-- Node15&#45;&gt;Node13 -->
<g id="edge36" class="edge"><title>Node15&#45;&gt;Node13</title>
<path fill="none" stroke="midnightblue" d="M1167.27,-66.0503C1059.35,-60.5034 797.646,-45.4593 567.899,-19.0523"/>
<polygon fill="midnightblue" stroke="midnightblue" points="568.011,-15.542 557.674,-17.8671 567.205,-22.4954 568.011,-15.542"/>
</g>
<!-- Node16 -->
<g id="node17" class="node"><title>Node16</title>
<polygon fill="white" stroke="#bfbfbf" points="1689.01,-0.5 1689.01,-18.5 1732.25,-18.5 1732.25,-0.5 1689.01,-0.5"/>
<text text-anchor="middle" x="1710.63" y="-6.5" font-family="Helvetica,sans-Serif" font-size="10.00">cmath</text>
</g>
<!-- Node15&#45;&gt;Node16 -->
<g id="edge19" class="edge"><title>Node15&#45;&gt;Node16</title>
<path fill="none" stroke="midnightblue" d="M1267.92,-65.7681C1351.39,-60.6565 1523.8,-47.6457 1678.55,-18.8942"/>
<polygon fill="midnightblue" stroke="midnightblue" points="1679.54,-22.2697 1688.72,-16.9775 1678.24,-15.3908 1679.54,-22.2697"/>
</g>
<!-- Node17 -->
<g id="node18" class="node"><title>Node17</title>
<polygon fill="white" stroke="#bfbfbf" points="1750.4,-0.5 1750.4,-18.5 1790.86,-18.5 1790.86,-0.5 1750.4,-0.5"/>
<text text-anchor="middle" x="1770.63" y="-6.5" font-family="Helvetica,sans-Serif" font-size="10.00">string</text>
</g>
<!-- Node15&#45;&gt;Node17 -->
<g id="edge21" class="edge"><title>Node15&#45;&gt;Node17</title>
<path fill="none" stroke="midnightblue" d="M1267.93,-66.9389C1360.08,-63.3889 1562.1,-52.406 1740.09,-18.9491"/>
<polygon fill="midnightblue" stroke="midnightblue" points="1740.99,-22.3403 1750.15,-17.0273 1739.68,-15.4644 1740.99,-22.3403"/>
</g>
<!-- Node18 -->
<g id="node19" class="node"><title>Node18</title>
<polygon fill="white" stroke="#bfbfbf" points="1808.85,-0.5 1808.85,-18.5 1860.41,-18.5 1860.41,-0.5 1808.85,-0.5"/>
<text text-anchor="middle" x="1834.63" y="-6.5" font-family="Helvetica,sans-Serif" font-size="10.00">sstream</text>
</g>
<!-- Node15&#45;&gt;Node18 -->
<g id="edge23" class="edge"><title>Node15&#45;&gt;Node18</title>
<path fill="none" stroke="midnightblue" d="M1268.16,-66.8102C1367.91,-62.911 1597.17,-51.1523 1798.84,-18.8625"/>
<polygon fill="midnightblue" stroke="midnightblue" points="1799.42,-22.3151 1808.73,-17.2595 1798.3,-15.4053 1799.42,-22.3151"/>
</g>
<!-- Node19 -->
<g id="node20" class="node"><title>Node19</title>
<polygon fill="white" stroke="#bfbfbf" points="1878.69,-0.5 1878.69,-18.5 1994.57,-18.5 1994.57,-0.5 1878.69,-0.5"/>
<text text-anchor="middle" x="1936.63" y="-6.5" font-family="Helvetica,sans-Serif" font-size="10.00">yarp/os/BufferedPort.h</text>
</g>
<!-- Node15&#45;&gt;Node19 -->
<g id="edge24" class="edge"><title>Node15&#45;&gt;Node19</title>
<path fill="none" stroke="midnightblue" d="M1268.02,-65.5432C1375.99,-59.0192 1637.9,-42.1907 1868.29,-19.0854"/>
<polygon fill="midnightblue" stroke="midnightblue" points="1868.95,-22.5371 1878.55,-18.0508 1868.25,-15.5725 1868.95,-22.5371"/>
</g>
<!-- Node20 -->
<g id="node21" class="node"><title>Node20</title>
<polygon fill="white" stroke="#bfbfbf" points="2012.89,-0.5 2012.89,-18.5 2098.37,-18.5 2098.37,-0.5 2012.89,-0.5"/>
<text text-anchor="middle" x="2055.63" y="-6.5" font-family="Helvetica,sans-Serif" font-size="10.00">yarp/os/Bottle.h</text>
</g>
<!-- Node15&#45;&gt;Node20 -->
<g id="edge25" class="edge"><title>Node15&#45;&gt;Node20</title>
<path fill="none" stroke="midnightblue" d="M1268.13,-65.9769C1415.01,-58.5365 1841.27,-36.1956 2002.59,-18.9686"/>
<polygon fill="midnightblue" stroke="midnightblue" points="2003.27,-22.415 2012.83,-17.8415 2002.51,-15.457 2003.27,-22.415"/>
</g>
<!-- Node21 -->
<g id="node22" class="node"><title>Node21</title>
<polygon fill="white" stroke="#bfbfbf" points="2116.27,-0.5 2116.27,-18.5 2228.99,-18.5 2228.99,-0.5 2116.27,-0.5"/>
<text text-anchor="middle" x="2172.63" y="-6.5" font-family="Helvetica,sans-Serif" font-size="10.00">yarp/os/RateThread.h</text>
</g>
<!-- Node15&#45;&gt;Node21 -->
<g id="edge26" class="edge"><title>Node15&#45;&gt;Node21</title>
<path fill="none" stroke="midnightblue" d="M1268.09,-65.914C1438.52,-57.1503 1988.27,-28.6309 2105.93,-19.0346"/>
<polygon fill="midnightblue" stroke="midnightblue" points="2106.28,-22.5175 2115.94,-18.1663 2105.67,-15.5437 2106.28,-22.5175"/>
</g>
<!-- Node22 -->
<g id="node23" class="node"><title>Node22</title>
<polygon fill="white" stroke="#bfbfbf" points="717.377,-0.5 717.377,-18.5 847.884,-18.5 847.884,-0.5 717.377,-0.5"/>
<text text-anchor="middle" x="782.63" y="-6.5" font-family="Helvetica,sans-Serif" font-size="10.00">yarp/os/ResourceFinder.h</text>
</g>
<!-- Node15&#45;&gt;Node22 -->
<g id="edge27" class="edge"><title>Node15&#45;&gt;Node22</title>
<path fill="none" stroke="midnightblue" d="M1167.31,-61.79C1089.86,-51.464 941.207,-31.6436 853.096,-19.8954"/>
<polygon fill="midnightblue" stroke="midnightblue" points="853.297,-16.3914 842.922,-18.5389 852.372,-23.33 853.297,-16.3914"/>
</g>
<!-- Node23 -->
<g id="node24" class="node"><title>Node23</title>
<polygon fill="white" stroke="#bfbfbf" points="866.379,-0.5 866.379,-18.5 976.881,-18.5 976.881,-0.5 866.379,-0.5"/>
<text text-anchor="middle" x="921.63" y="-6.5" font-family="Helvetica,sans-Serif" font-size="10.00">yarp/os/PortReader.h</text>
</g>
<!-- Node15&#45;&gt;Node23 -->
<g id="edge28" class="edge"><title>Node15&#45;&gt;Node23</title>
<path fill="none" stroke="midnightblue" d="M1176.78,-60.4962C1123.52,-50.0598 1030.35,-31.8039 972.547,-20.4768"/>
<polygon fill="midnightblue" stroke="midnightblue" points="973.019,-17.003 962.533,-18.5147 971.673,-23.8723 973.019,-17.003"/>
</g>
<!-- Node15&#45;&gt;Node24 -->
<g id="edge29" class="edge"><title>Node15&#45;&gt;Node24</title>
<path fill="none" stroke="midnightblue" d="M1167.13,-67.9202C1011.63,-65.7775 526.179,-56.4175 113.546,-18.9831"/>
<polygon fill="midnightblue" stroke="midnightblue" points="113.783,-15.4903 103.506,-18.0654 113.146,-22.4613 113.783,-15.4903"/>
</g>
<!-- Node25 -->
<g id="node26" class="node"><title>Node25</title>
<polygon fill="white" stroke="#bfbfbf" points="995.33,-0.5 995.33,-18.5 1101.93,-18.5 1101.93,-0.5 995.33,-0.5"/>
<text text-anchor="middle" x="1048.63" y="-6.5" font-family="Helvetica,sans-Serif" font-size="10.00">yarp/os/RpcServer.h</text>
</g>
<!-- Node15&#45;&gt;Node25 -->
<g id="edge30" class="edge"><title>Node15&#45;&gt;Node25</title>
<path fill="none" stroke="midnightblue" d="M1194.13,-60.4353C1164.95,-50.4213 1114.99,-33.276 1081.89,-21.9152"/>
<polygon fill="midnightblue" stroke="midnightblue" points="1082.8,-18.5251 1072.2,-18.5894 1080.52,-25.1461 1082.8,-18.5251"/>
</g>
<!-- Node26 -->
<g id="node27" class="node"><title>Node26</title>
<polygon fill="white" stroke="#bfbfbf" points="1120.25,-0.5 1120.25,-18.5 1263.01,-18.5 1263.01,-0.5 1120.25,-0.5"/>
<text text-anchor="middle" x="1191.63" y="-6.5" font-family="Helvetica,sans-Serif" font-size="10.00">yarp/os/ConnectionReader.h</text>
</g>
<!-- Node15&#45;&gt;Node26 -->
<g id="edge31" class="edge"><title>Node15&#45;&gt;Node26</title>
<path fill="none" stroke="midnightblue" d="M1214.02,-60.4353C1210.29,-52.1323 1204.37,-38.9267 1199.56,-28.1807"/>
<polygon fill="midnightblue" stroke="midnightblue" points="1202.67,-26.5651 1195.38,-18.8718 1196.28,-29.4286 1202.67,-26.5651"/>
</g>
<!-- Node27 -->
<g id="node28" class="node"><title>Node27</title>
<polygon fill="white" stroke="#bfbfbf" points="1280.75,-0.5 1280.75,-18.5 1362.51,-18.5 1362.51,-0.5 1280.75,-0.5"/>
<text text-anchor="middle" x="1321.63" y="-6.5" font-family="Helvetica,sans-Serif" font-size="10.00">yarp/os/Time.h</text>
</g>
<!-- Node15&#45;&gt;Node27 -->
<g id="edge32" class="edge"><title>Node15&#45;&gt;Node27</title>
<path fill="none" stroke="midnightblue" d="M1232.09,-60.4353C1249.15,-50.923 1277.74,-34.9759 1298.02,-23.6645"/>
<polygon fill="midnightblue" stroke="midnightblue" points="1299.93,-26.6106 1306.96,-18.6831 1296.52,-20.4971 1299.93,-26.6106"/>
</g>
<!-- Node15&#45;&gt;Node28 -->
<g id="edge34" class="edge"><title>Node15&#45;&gt;Node28</title>
<path fill="none" stroke="midnightblue" d="M1167.14,-67.3957C1023.78,-63.9507 601.819,-51.6669 240.206,-18.9604"/>
<polygon fill="midnightblue" stroke="midnightblue" points="240.34,-15.4582 230.064,-18.0362 239.705,-22.4293 240.34,-15.4582"/>
</g>
<!-- Node29 -->
<g id="node30" class="node"><title>Node29</title>
<polygon fill="white" stroke="#bfbfbf" points="1380.15,-0.5 1380.15,-18.5 1477.11,-18.5 1477.11,-0.5 1380.15,-0.5"/>
<text text-anchor="middle" x="1428.63" y="-6.5" font-family="Helvetica,sans-Serif" font-size="10.00">yarp/os/Property.h</text>
</g>
<!-- Node15&#45;&gt;Node29 -->
<g id="edge35" class="edge"><title>Node15&#45;&gt;Node29</title>
<path fill="none" stroke="midnightblue" d="M1246.97,-60.4353C1284.11,-50.2271 1348.2,-32.6082 1389.48,-21.2607"/>
<polygon fill="midnightblue" stroke="midnightblue" points="1390.49,-24.6148 1399.2,-18.5894 1388.63,-17.8652 1390.49,-24.6148"/>
</g>
<!-- Node30 -->
<g id="node31" class="node"><title>Node30</title>
<polygon fill="white" stroke="#bfbfbf" points="1494.95,-0.5 1494.95,-18.5 1584.31,-18.5 1584.31,-0.5 1494.95,-0.5"/>
<text text-anchor="middle" x="1539.63" y="-6.5" font-family="Helvetica,sans-Serif" font-size="10.00">yarp/sig/Matrix.h</text>
</g>
<!-- Node15&#45;&gt;Node30 -->
<g id="edge37" class="edge"><title>Node15&#45;&gt;Node30</title>
<path fill="none" stroke="midnightblue" d="M1262.07,-60.4962C1320.25,-50.0166 1422.2,-31.6526 1485.02,-20.3365"/>
<polygon fill="midnightblue" stroke="midnightblue" points="1485.91,-23.732 1495.14,-18.5147 1484.67,-16.8429 1485.91,-23.732"/>
</g>
<!-- Node31 -->
<g id="node32" class="node"><title>Node31</title>
<polygon fill="white" stroke="#bfbfbf" points="2383,-0.5 2383,-18.5 2456.26,-18.5 2456.26,-0.5 2383,-0.5"/>
<text text-anchor="middle" x="2419.63" y="-6.5" font-family="Helvetica,sans-Serif" font-size="10.00">Eigen/Dense</text>
</g>
<!-- Node15&#45;&gt;Node31 -->
<g id="edge40" class="edge"><title>Node15&#45;&gt;Node31</title>
<path fill="none" stroke="midnightblue" d="M1268.02,-68.9258C1428.27,-69.7334 1940.62,-68.1047 2372.67,-19.0593"/>
<polygon fill="midnightblue" stroke="midnightblue" points="2373.32,-22.5073 2382.86,-17.8919 2372.53,-15.5528 2373.32,-22.5073"/>
</g>
<!-- Node32 -->
<g id="node33" class="node"><title>Node32</title>
<polygon fill="white" stroke="#bfbfbf" points="1602.23,-0.5 1602.23,-18.5 1671.03,-18.5 1671.03,-0.5 1602.23,-0.5"/>
<text text-anchor="middle" x="1636.63" y="-6.5" font-family="Helvetica,sans-Serif" font-size="10.00">Eigen/Lgsm</text>
</g>
<!-- Node15&#45;&gt;Node32 -->
<g id="edge41" class="edge"><title>Node15&#45;&gt;Node32</title>
<path fill="none" stroke="midnightblue" d="M1267.96,-62.9163C1338.25,-54.8874 1470.04,-39.0013 1591.7,-19.2341"/>
<polygon fill="midnightblue" stroke="midnightblue" points="1592.63,-22.6282 1601.93,-17.5579 1591.5,-15.7203 1592.63,-22.6282"/>
</g>
<!-- Node36&#45;&gt;Node12 -->
<g id="edge58" class="edge"><title>Node36&#45;&gt;Node12</title>
<path fill="none" stroke="midnightblue" d="M2165.01,-120.494C2164.93,-103.198 2167.49,-72.7504 2184.63,-55 2223.88,-14.3609 2253.22,-32.9543 2312.27,-19.1469"/>
<polygon fill="midnightblue" stroke="midnightblue" points="2313.19,-22.5225 2322,-16.6387 2311.45,-15.7437 2313.19,-22.5225"/>
</g>
<!-- Node36&#45;&gt;Node15 -->
<g id="edge55" class="edge"><title>Node36&#45;&gt;Node15</title>
<path fill="none" stroke="midnightblue" d="M2098.21,-129.02C1921.5,-117.276 1446.92,-85.7378 1278.19,-74.5249"/>
<polygon fill="midnightblue" stroke="midnightblue" points="1278.21,-71.0185 1268,-73.8477 1277.75,-78.0031 1278.21,-71.0185"/>
</g>
<!-- Node36&#45;&gt;Node31 -->
<g id="edge57" class="edge"><title>Node36&#45;&gt;Node31</title>
<path fill="none" stroke="midnightblue" d="M2221.54,-120.439C2251.82,-112.196 2289.34,-100.049 2320.63,-84 2352.18,-67.82 2384.35,-41.8089 2403.13,-25.4615"/>
<polygon fill="midnightblue" stroke="midnightblue" points="2405.59,-27.9502 2410.76,-18.7005 2400.95,-22.7094 2405.59,-27.9502"/>
</g>
<!-- Node37 -->
<g id="node38" class="node"><title>Node37</title>
<polygon fill="white" stroke="#bfbfbf" points="2193.5,-60.5 2193.5,-78.5 2311.76,-78.5 2311.76,-60.5 2193.5,-60.5"/>
<text text-anchor="middle" x="2252.63" y="-66.5" font-family="Helvetica,sans-Serif" font-size="10.00">ocra/util/ErrorsHelper.h</text>
</g>
<!-- Node36&#45;&gt;Node37 -->
<g id="edge56" class="edge"><title>Node36&#45;&gt;Node37</title>
<path fill="none" stroke="midnightblue" d="M2183.66,-120.446C2198.08,-110 2218.28,-95.3747 2233.09,-84.6496"/>
<polygon fill="midnightblue" stroke="midnightblue" points="2235.47,-87.2479 2241.52,-78.548 2231.36,-81.5783 2235.47,-87.2479"/>
</g>
</g>
</svg>
