<?xml version="1.0" encoding="UTF-8" standalone="no"?>
<!DOCTYPE svg PUBLIC "-//W3C//DTD SVG 1.1//EN"
 "http://www.w3.org/Graphics/SVG/1.1/DTD/svg11.dtd">
<!-- Generated by graphviz version 2.38.0 (20140413.2041)
 -->
<!-- Title: /Users/jorhabibeljaik/Code/codyco&#45;superbuild/main/ocra&#45;wbi&#45;plugins/ocra&#45;icub&#45;clients/walking&#45;client/src/ZmpController.cpp Pages: 1 -->
<svg width="2466pt" height="232pt"
 viewBox="0.00 0.00 2466.25 232.00" xmlns="http://www.w3.org/2000/svg" xmlns:xlink="http://www.w3.org/1999/xlink">
<g id="graph0" class="graph" transform="scale(1 1) rotate(0) translate(4 228)">
<title>/Users/jorhabibeljaik/Code/codyco&#45;superbuild/main/ocra&#45;wbi&#45;plugins/ocra&#45;icub&#45;clients/walking&#45;client/src/ZmpController.cpp</title>
<polygon fill="white" stroke="none" points="-4,4 -4,-228 2462.25,-228 2462.25,4 -4,4"/>
<!-- Node0 -->
<g id="node1" class="node"><title>Node0</title>
<polygon fill="#bfbfbf" stroke="black" points="1119.98,-165.5 1119.98,-223.5 1263.25,-223.5 1263.25,-165.5 1119.98,-165.5"/>
<text text-anchor="start" x="1127.98" y="-211.5" font-family="Helvetica,sans-Serif" font-size="10.00">/Users/jorhabibeljaik</text>
<text text-anchor="start" x="1127.98" y="-201.5" font-family="Helvetica,sans-Serif" font-size="10.00">/Code/codyco&#45;superbuild</text>
<text text-anchor="start" x="1127.98" y="-191.5" font-family="Helvetica,sans-Serif" font-size="10.00">/main/ocra&#45;wbi&#45;plugins</text>
<text text-anchor="start" x="1127.98" y="-181.5" font-family="Helvetica,sans-Serif" font-size="10.00">/ocra&#45;icub&#45;clients/walking</text>
<text text-anchor="middle" x="1191.62" y="-171.5" font-family="Helvetica,sans-Serif" font-size="10.00">&#45;client/src/ZmpController.cpp</text>
</g>
<!-- Node1 -->
<g id="node2" class="node"><title>Node1</title>
<g id="a_node2"><a xlink:href="ZmpController_8h.html" target="_top" xlink:title="walking&#45;client/ZmpController.h">
<polygon fill="white" stroke="black" points="1116.64,-110.5 1116.64,-128.5 1266.59,-128.5 1266.59,-110.5 1116.64,-110.5"/>
<text text-anchor="middle" x="1191.62" y="-116.5" font-family="Helvetica,sans-Serif" font-size="10.00">walking&#45;client/ZmpController.h</text>
</a>
</g>
</g>
<!-- Node0&#45;&gt;Node1 -->
<g id="edge1" class="edge"><title>Node0&#45;&gt;Node1</title>
<path fill="none" stroke="midnightblue" d="M1191.62,-165.485C1191.62,-156.521 1191.62,-146.835 1191.62,-138.754"/>
<polygon fill="midnightblue" stroke="midnightblue" points="1195.12,-138.644 1191.62,-128.644 1188.12,-138.644 1195.12,-138.644"/>
</g>
<!-- Node2 -->
<g id="node3" class="node"><title>Node2</title>
<g id="a_node3"><a xlink:href="Utilities_8h.html" target="_top" xlink:title="Some useful tools for the ocra&#45;icub lib. ">
<polygon fill="white" stroke="black" points="1102.38,-55.5 1102.38,-73.5 1202.85,-73.5 1202.85,-55.5 1102.38,-55.5"/>
<text text-anchor="middle" x="1152.62" y="-61.5" font-family="Helvetica,sans-Serif" font-size="10.00">ocra&#45;icub/Utilities.h</text>
</a>
</g>
</g>
<!-- Node1&#45;&gt;Node2 -->
<g id="edge2" class="edge"><title>Node1&#45;&gt;Node2</title>
<path fill="none" stroke="midnightblue" d="M1185.52,-110.219C1179.94,-102.629 1171.51,-91.1753 1164.58,-81.7597"/>
<polygon fill="midnightblue" stroke="midnightblue" points="1167.28,-79.5296 1158.54,-73.5496 1161.65,-83.6784 1167.28,-79.5296"/>
</g>
<!-- Node7 -->
<g id="node8" class="node"><title>Node7</title>
<polygon fill="white" stroke="#bfbfbf" points="0,-0.5 0,-18.5 43.2314,-18.5 43.2314,-0.5 0,-0.5"/>
<text text-anchor="middle" x="21.6157" y="-6.5" font-family="Helvetica,sans-Serif" font-size="10.00">vector</text>
</g>
<!-- Node1&#45;&gt;Node7 -->
<g id="edge29" class="edge"><title>Node1&#45;&gt;Node7</title>
<path fill="none" stroke="midnightblue" d="M1116.37,-116.614C934.568,-111.052 457.252,-90.4451 53.6385,-18.8405"/>
<polygon fill="midnightblue" stroke="midnightblue" points="53.979,-15.346 43.5191,-17.0317 52.7472,-22.2368 53.979,-15.346"/>
</g>
<!-- Node25 -->
<g id="node26" class="node"><title>Node25</title>
<polygon fill="white" stroke="#bfbfbf" points="2384.99,-0.5 2384.99,-18.5 2458.25,-18.5 2458.25,-0.5 2384.99,-0.5"/>
<text text-anchor="middle" x="2421.62" y="-6.5" font-family="Helvetica,sans-Serif" font-size="10.00">Eigen/Dense</text>
</g>
<!-- Node1&#45;&gt;Node25 -->
<g id="edge28" class="edge"><title>Node1&#45;&gt;Node25</title>
<path fill="none" stroke="midnightblue" d="M1196.05,-110.379C1204.38,-96.0935 1223.85,-66.8595 1249.62,-55 1360.77,-3.84594 2211.67,-31.1161 2374.65,-18.7299"/>
<polygon fill="midnightblue" stroke="midnightblue" points="2375.14,-22.2004 2384.78,-17.8119 2374.5,-15.229 2375.14,-22.2004"/>
</g>
<!-- Node27 -->
<g id="node28" class="node"><title>Node27</title>
<polygon fill="white" stroke="#bfbfbf" points="1258.48,-55.5 1258.48,-73.5 1376.75,-73.5 1376.75,-55.5 1258.48,-55.5"/>
<text text-anchor="middle" x="1317.62" y="-61.5" font-family="Helvetica,sans-Serif" font-size="10.00">ocra/util/ErrorsHelper.h</text>
</g>
<!-- Node1&#45;&gt;Node27 -->
<g id="edge27" class="edge"><title>Node1&#45;&gt;Node27</title>
<path fill="none" stroke="midnightblue" d="M1210.75,-110.45C1231.57,-101.695 1265.06,-87.6055 1289.01,-77.5346"/>
<polygon fill="midnightblue" stroke="midnightblue" points="1290.44,-80.7289 1298.3,-73.6253 1287.72,-74.2765 1290.44,-80.7289"/>
</g>
<!-- Node3 -->
<g id="node4" class="node"><title>Node3</title>
<polygon fill="white" stroke="#bfbfbf" points="61.5591,-0.5 61.5591,-18.5 113.672,-18.5 113.672,-0.5 61.5591,-0.5"/>
<text text-anchor="middle" x="87.6157" y="-6.5" font-family="Helvetica,sans-Serif" font-size="10.00">memory</text>
</g>
<!-- Node2&#45;&gt;Node3 -->
<g id="edge3" class="edge"><title>Node2&#45;&gt;Node3</title>
<path fill="none" stroke="midnightblue" d="M1102.19,-62.6242C925.568,-59.3562 334.586,-46.6849 123.923,-18.8412"/>
<polygon fill="midnightblue" stroke="midnightblue" points="124.266,-15.3555 113.882,-17.4609 123.313,-22.2902 124.266,-15.3555"/>
</g>
<!-- Node4 -->
<g id="node5" class="node"><title>Node4</title>
<polygon fill="white" stroke="#bfbfbf" points="132,-0.5 132,-18.5 175.231,-18.5 175.231,-0.5 132,-0.5"/>
<text text-anchor="middle" x="153.616" y="-6.5" font-family="Helvetica,sans-Serif" font-size="10.00">cmath</text>
</g>
<!-- Node2&#45;&gt;Node4 -->
<g id="edge4" class="edge"><title>Node2&#45;&gt;Node4</title>
<path fill="none" stroke="midnightblue" d="M1102.25,-62.658C932.777,-59.5986 383.301,-47.7822 185.495,-18.6798"/>
<polygon fill="midnightblue" stroke="midnightblue" points="185.915,-15.2034 175.5,-17.1461 184.853,-22.1224 185.915,-15.2034"/>
</g>
<!-- Node5 -->
<g id="node6" class="node"><title>Node5</title>
<polygon fill="white" stroke="#bfbfbf" points="193.443,-0.5 193.443,-18.5 247.788,-18.5 247.788,-0.5 193.443,-0.5"/>
<text text-anchor="middle" x="220.616" y="-6.5" font-family="Helvetica,sans-Serif" font-size="10.00">iostream</text>
</g>
<!-- Node2&#45;&gt;Node5 -->
<g id="edge5" class="edge"><title>Node2&#45;&gt;Node5</title>
<path fill="none" stroke="midnightblue" d="M1102.28,-64.1995C966.98,-65.3986 584.169,-64.3035 258.149,-18.9417"/>
<polygon fill="midnightblue" stroke="midnightblue" points="258.425,-15.4461 248.035,-17.5175 257.449,-22.3777 258.425,-15.4461"/>
</g>
<!-- Node6 -->
<g id="node7" class="node"><title>Node6</title>
<polygon fill="white" stroke="#bfbfbf" points="265.389,-0.5 265.389,-18.5 305.842,-18.5 305.842,-0.5 265.389,-0.5"/>
<text text-anchor="middle" x="285.616" y="-6.5" font-family="Helvetica,sans-Serif" font-size="10.00">string</text>
</g>
<!-- Node2&#45;&gt;Node6 -->
<g id="edge6" class="edge"><title>Node2&#45;&gt;Node6</title>
<path fill="none" stroke="midnightblue" d="M1102.3,-62.3586C948.7,-58.638 486.488,-45.6306 316.142,-18.7963"/>
<polygon fill="midnightblue" stroke="midnightblue" points="316.509,-15.3097 306.073,-17.1344 315.369,-22.2162 316.509,-15.3097"/>
</g>
<!-- Node2&#45;&gt;Node7 -->
<g id="edge7" class="edge"><title>Node2&#45;&gt;Node7</title>
<path fill="none" stroke="midnightblue" d="M1102.32,-62.981C917.987,-60.8468 278.824,-51.3466 53.5862,-18.6839"/>
<polygon fill="midnightblue" stroke="midnightblue" points="53.9078,-15.1928 43.4974,-17.1614 52.8632,-22.1145 53.9078,-15.1928"/>
</g>
<!-- Node8 -->
<g id="node9" class="node"><title>Node8</title>
<polygon fill="white" stroke="#bfbfbf" points="323.835,-0.5 323.835,-18.5 375.396,-18.5 375.396,-0.5 323.835,-0.5"/>
<text text-anchor="middle" x="349.616" y="-6.5" font-family="Helvetica,sans-Serif" font-size="10.00">sstream</text>
</g>
<!-- Node2&#45;&gt;Node8 -->
<g id="edge8" class="edge"><title>Node2&#45;&gt;Node8</title>
<path fill="none" stroke="midnightblue" d="M1101.97,-63.7106C980.073,-63.5445 660.694,-59.1063 385.681,-18.8477"/>
<polygon fill="midnightblue" stroke="midnightblue" points="385.912,-15.3436 375.507,-17.3387 384.885,-22.2679 385.912,-15.3436"/>
</g>
<!-- Node9 -->
<g id="node10" class="node"><title>Node9</title>
<polygon fill="white" stroke="#bfbfbf" points="393.677,-0.5 393.677,-18.5 509.555,-18.5 509.555,-0.5 393.677,-0.5"/>
<text text-anchor="middle" x="451.616" y="-6.5" font-family="Helvetica,sans-Serif" font-size="10.00">yarp/os/BufferedPort.h</text>
</g>
<!-- Node2&#45;&gt;Node9 -->
<g id="edge9" class="edge"><title>Node2&#45;&gt;Node9</title>
<path fill="none" stroke="midnightblue" d="M1101.99,-60.9139C996.054,-55.2926 743.027,-40.7724 519.961,-19.0766"/>
<polygon fill="midnightblue" stroke="midnightblue" points="519.992,-15.5629 509.698,-18.0711 519.309,-22.5295 519.992,-15.5629"/>
</g>
<!-- Node10 -->
<g id="node11" class="node"><title>Node10</title>
<polygon fill="white" stroke="#bfbfbf" points="527.875,-0.5 527.875,-18.5 613.357,-18.5 613.357,-0.5 527.875,-0.5"/>
<text text-anchor="middle" x="570.616" y="-6.5" font-family="Helvetica,sans-Serif" font-size="10.00">yarp/os/Bottle.h</text>
</g>
<!-- Node2&#45;&gt;Node10 -->
<g id="edge10" class="edge"><title>Node2&#45;&gt;Node10</title>
<path fill="none" stroke="midnightblue" d="M1102.06,-60.577C1009.33,-54.9281 805.641,-41.1853 623.459,-19.0032"/>
<polygon fill="midnightblue" stroke="midnightblue" points="623.779,-15.5162 613.426,-17.7703 622.925,-22.4639 623.779,-15.5162"/>
</g>
<!-- Node11 -->
<g id="node12" class="node"><title>Node11</title>
<polygon fill="white" stroke="#bfbfbf" points="631.256,-0.5 631.256,-18.5 743.975,-18.5 743.975,-0.5 631.256,-0.5"/>
<text text-anchor="middle" x="687.616" y="-6.5" font-family="Helvetica,sans-Serif" font-size="10.00">yarp/os/RateThread.h</text>
</g>
<!-- Node2&#45;&gt;Node11 -->
<g id="edge11" class="edge"><title>Node2&#45;&gt;Node11</title>
<path fill="none" stroke="midnightblue" d="M1102.2,-58.1547C1028.39,-50.2688 886.321,-34.8576 754.42,-19.077"/>
<polygon fill="midnightblue" stroke="midnightblue" points="754.479,-15.5591 744.134,-17.843 753.645,-22.5092 754.479,-15.5591"/>
</g>
<!-- Node12 -->
<g id="node13" class="node"><title>Node12</title>
<polygon fill="white" stroke="#bfbfbf" points="762.362,-0.5 762.362,-18.5 892.869,-18.5 892.869,-0.5 762.362,-0.5"/>
<text text-anchor="middle" x="827.616" y="-6.5" font-family="Helvetica,sans-Serif" font-size="10.00">yarp/os/ResourceFinder.h</text>
</g>
<!-- Node2&#45;&gt;Node12 -->
<g id="edge12" class="edge"><title>Node2&#45;&gt;Node12</title>
<path fill="none" stroke="midnightblue" d="M1103.26,-55.4504C1045.22,-45.9867 948.973,-30.2906 886.937,-20.174"/>
<polygon fill="midnightblue" stroke="midnightblue" points="887.34,-16.6935 876.907,-18.5383 886.214,-23.6023 887.34,-16.6935"/>
</g>
<!-- Node13 -->
<g id="node14" class="node"><title>Node13</title>
<polygon fill="white" stroke="#bfbfbf" points="911.365,-0.5 911.365,-18.5 1021.87,-18.5 1021.87,-0.5 911.365,-0.5"/>
<text text-anchor="middle" x="966.616" y="-6.5" font-family="Helvetica,sans-Serif" font-size="10.00">yarp/os/PortReader.h</text>
</g>
<!-- Node2&#45;&gt;Node13 -->
<g id="edge13" class="edge"><title>Node2&#45;&gt;Node13</title>
<path fill="none" stroke="midnightblue" d="M1124.37,-55.4504C1092.46,-46.3575 1040.35,-31.5108 1004.83,-21.3879"/>
<polygon fill="midnightblue" stroke="midnightblue" points="1005.4,-17.9127 994.826,-18.5383 1003.48,-24.6448 1005.4,-17.9127"/>
</g>
<!-- Node14 -->
<g id="node15" class="node"><title>Node14</title>
<polygon fill="white" stroke="#bfbfbf" points="1039.99,-0.5 1039.99,-18.5 1143.25,-18.5 1143.25,-0.5 1039.99,-0.5"/>
<text text-anchor="middle" x="1091.62" y="-6.5" font-family="Helvetica,sans-Serif" font-size="10.00">yarp/os/RpcClient.h</text>
</g>
<!-- Node2&#45;&gt;Node14 -->
<g id="edge14" class="edge"><title>Node2&#45;&gt;Node14</title>
<path fill="none" stroke="midnightblue" d="M1143.35,-55.4504C1134.21,-47.5123 1120.03,-35.1891 1108.82,-25.4519"/>
<polygon fill="midnightblue" stroke="midnightblue" points="1110.81,-22.542 1100.97,-18.6253 1106.22,-27.8261 1110.81,-22.542"/>
</g>
<!-- Node15 -->
<g id="node16" class="node"><title>Node15</title>
<polygon fill="white" stroke="#bfbfbf" points="1161.32,-0.5 1161.32,-18.5 1267.92,-18.5 1267.92,-0.5 1161.32,-0.5"/>
<text text-anchor="middle" x="1214.62" y="-6.5" font-family="Helvetica,sans-Serif" font-size="10.00">yarp/os/RpcServer.h</text>
</g>
<!-- Node2&#45;&gt;Node15 -->
<g id="edge15" class="edge"><title>Node2&#45;&gt;Node15</title>
<path fill="none" stroke="midnightblue" d="M1162.03,-55.4504C1171.41,-47.4345 1186.02,-34.9471 1197.46,-25.1663"/>
<polygon fill="midnightblue" stroke="midnightblue" points="1199.78,-27.7836 1205.11,-18.6253 1195.24,-22.4627 1199.78,-27.7836"/>
</g>
<!-- Node16 -->
<g id="node17" class="node"><title>Node16</title>
<polygon fill="white" stroke="#bfbfbf" points="1286.24,-0.5 1286.24,-18.5 1428.99,-18.5 1428.99,-0.5 1286.24,-0.5"/>
<text text-anchor="middle" x="1357.62" y="-6.5" font-family="Helvetica,sans-Serif" font-size="10.00">yarp/os/ConnectionReader.h</text>
</g>
<!-- Node2&#45;&gt;Node16 -->
<g id="edge16" class="edge"><title>Node2&#45;&gt;Node16</title>
<path fill="none" stroke="midnightblue" d="M1183.75,-55.4504C1219.3,-46.2599 1277.58,-31.1916 1316.76,-21.0637"/>
<polygon fill="midnightblue" stroke="midnightblue" points="1317.72,-24.43 1326.52,-18.5383 1315.97,-17.6529 1317.72,-24.43"/>
</g>
<!-- Node17 -->
<g id="node18" class="node"><title>Node17</title>
<polygon fill="white" stroke="#bfbfbf" points="1446.73,-0.5 1446.73,-18.5 1528.5,-18.5 1528.5,-0.5 1446.73,-0.5"/>
<text text-anchor="middle" x="1487.62" y="-6.5" font-family="Helvetica,sans-Serif" font-size="10.00">yarp/os/Time.h</text>
</g>
<!-- Node2&#45;&gt;Node17 -->
<g id="edge17" class="edge"><title>Node2&#45;&gt;Node17</title>
<path fill="none" stroke="midnightblue" d="M1203.1,-55.8278C1258.03,-47.4326 1348.72,-33.4361 1436.8,-19.1148"/>
<polygon fill="midnightblue" stroke="midnightblue" points="1437.39,-22.5656 1446.69,-17.5031 1436.26,-15.6566 1437.39,-22.5656"/>
</g>
<!-- Node18 -->
<g id="node19" class="node"><title>Node18</title>
<polygon fill="white" stroke="#bfbfbf" points="1546.32,-0.5 1546.32,-18.5 1622.91,-18.5 1622.91,-0.5 1546.32,-0.5"/>
<text text-anchor="middle" x="1584.62" y="-6.5" font-family="Helvetica,sans-Serif" font-size="10.00">yarp/os/Log.h</text>
</g>
<!-- Node2&#45;&gt;Node18 -->
<g id="edge18" class="edge"><title>Node2&#45;&gt;Node18</title>
<path fill="none" stroke="midnightblue" d="M1202.91,-56.7217C1207.54,-56.1272 1212.17,-55.545 1216.62,-55 1355.91,-37.9407 1393.88,-39.6955 1536.2,-19.123"/>
<polygon fill="midnightblue" stroke="midnightblue" points="1536.79,-22.5745 1546.18,-17.6691 1535.78,-15.6477 1536.79,-22.5745"/>
</g>
<!-- Node19 -->
<g id="node20" class="node"><title>Node19</title>
<polygon fill="white" stroke="#bfbfbf" points="1641.2,-0.5 1641.2,-18.5 1750.03,-18.5 1750.03,-0.5 1641.2,-0.5"/>
<text text-anchor="middle" x="1695.62" y="-6.5" font-family="Helvetica,sans-Serif" font-size="10.00">yarp/os/LogStream.h</text>
</g>
<!-- Node2&#45;&gt;Node19 -->
<g id="edge19" class="edge"><title>Node2&#45;&gt;Node19</title>
<path fill="none" stroke="midnightblue" d="M1202.9,-56.6021C1207.53,-56.0327 1212.16,-55.489 1216.62,-55 1397.41,-35.1625 1445.89,-39.0459 1631.09,-19.0018"/>
<polygon fill="midnightblue" stroke="midnightblue" points="1631.61,-22.4667 1641.17,-17.9026 1630.85,-15.508 1631.61,-22.4667"/>
</g>
<!-- Node20 -->
<g id="node21" class="node"><title>Node20</title>
<polygon fill="white" stroke="#bfbfbf" points="1768.13,-0.5 1768.13,-18.5 1865.1,-18.5 1865.1,-0.5 1768.13,-0.5"/>
<text text-anchor="middle" x="1816.62" y="-6.5" font-family="Helvetica,sans-Serif" font-size="10.00">yarp/os/Property.h</text>
</g>
<!-- Node2&#45;&gt;Node20 -->
<g id="edge20" class="edge"><title>Node2&#45;&gt;Node20</title>
<path fill="none" stroke="midnightblue" d="M1202.89,-56.5059C1207.52,-55.9567 1212.15,-55.4439 1216.62,-55 1453.56,-31.4217 1516.83,-44.1631 1757.79,-18.9913"/>
<polygon fill="midnightblue" stroke="midnightblue" points="1758.34,-22.4531 1767.92,-17.9225 1757.6,-15.4918 1758.34,-22.4531"/>
</g>
<!-- Node21 -->
<g id="node22" class="node"><title>Node21</title>
<polygon fill="white" stroke="#bfbfbf" points="1882.65,-0.5 1882.65,-18.5 1972.59,-18.5 1972.59,-0.5 1882.65,-0.5"/>
<text text-anchor="middle" x="1927.62" y="-6.5" font-family="Helvetica,sans-Serif" font-size="10.00">yarp/sig/Vector.h</text>
</g>
<!-- Node2&#45;&gt;Node21 -->
<g id="edge21" class="edge"><title>Node2&#45;&gt;Node21</title>
<path fill="none" stroke="midnightblue" d="M1202.88,-56.4507C1207.52,-55.9131 1212.15,-55.4181 1216.62,-55 1504.51,-28.0352 1581.09,-49.2866 1872.56,-18.9911"/>
<polygon fill="midnightblue" stroke="midnightblue" points="1873,-22.4647 1882.58,-17.9388 1872.27,-15.503 1873,-22.4647"/>
</g>
<!-- Node22 -->
<g id="node23" class="node"><title>Node22</title>
<polygon fill="white" stroke="#bfbfbf" points="1990.94,-0.5 1990.94,-18.5 2080.29,-18.5 2080.29,-0.5 1990.94,-0.5"/>
<text text-anchor="middle" x="2035.62" y="-6.5" font-family="Helvetica,sans-Serif" font-size="10.00">yarp/sig/Matrix.h</text>
</g>
<!-- Node2&#45;&gt;Node22 -->
<g id="edge22" class="edge"><title>Node2&#45;&gt;Node22</title>
<path fill="none" stroke="midnightblue" d="M1202.88,-56.4139C1207.52,-55.884 1212.15,-55.4009 1216.62,-55 1552.32,-24.8634 1641.26,-52.9546 1980.76,-18.9517"/>
<polygon fill="midnightblue" stroke="midnightblue" points="1981.28,-22.4169 1990.88,-17.9274 1980.57,-15.4525 1981.28,-22.4169"/>
</g>
<!-- Node23 -->
<g id="node24" class="node"><title>Node23</title>
<polygon fill="white" stroke="#bfbfbf" points="2098.05,-0.5 2098.05,-18.5 2155.18,-18.5 2155.18,-0.5 2098.05,-0.5"/>
<text text-anchor="middle" x="2126.62" y="-6.5" font-family="Helvetica,sans-Serif" font-size="10.00">wbi/wbi.h</text>
</g>
<!-- Node2&#45;&gt;Node23 -->
<g id="edge23" class="edge"><title>Node2&#45;&gt;Node23</title>
<path fill="none" stroke="midnightblue" d="M1202.88,-56.3862C1207.52,-55.8621 1212.15,-55.3879 1216.62,-55 1600.18,-21.6894 1702.99,-69.8567 2088.01,-18.9545"/>
<polygon fill="midnightblue" stroke="midnightblue" points="2088.58,-22.4096 2098.03,-17.6162 2087.65,-15.4712 2088.58,-22.4096"/>
</g>
<!-- Node24 -->
<g id="node25" class="node"><title>Node24</title>
<polygon fill="white" stroke="#bfbfbf" points="2173.32,-0.5 2173.32,-18.5 2279.92,-18.5 2279.92,-0.5 2173.32,-0.5"/>
<text text-anchor="middle" x="2226.62" y="-6.5" font-family="Helvetica,sans-Serif" font-size="10.00">ocra/control/Model.h</text>
</g>
<!-- Node2&#45;&gt;Node24 -->
<g id="edge24" class="edge"><title>Node2&#45;&gt;Node24</title>
<path fill="none" stroke="midnightblue" d="M1202.88,-56.3706C1207.51,-55.8498 1212.15,-55.3806 1216.62,-55 1633.45,-19.4844 1742.87,-55.1135 2163.23,-19.0256"/>
<polygon fill="midnightblue" stroke="midnightblue" points="2163.56,-22.5104 2173.22,-18.1597 2162.95,-15.5366 2163.56,-22.5104"/>
</g>
<!-- Node2&#45;&gt;Node25 -->
<g id="edge25" class="edge"><title>Node2&#45;&gt;Node25</title>
<path fill="none" stroke="midnightblue" d="M1202.87,-56.3377C1207.51,-55.8238 1212.15,-55.3652 1216.62,-55 1726.88,-13.298 1861.43,-73.1809 2374.52,-18.9103"/>
<polygon fill="midnightblue" stroke="midnightblue" points="2375.21,-22.3564 2384.78,-17.8148 2374.47,-15.396 2375.21,-22.3564"/>
</g>
<!-- Node26 -->
<g id="node27" class="node"><title>Node26</title>
<polygon fill="white" stroke="#bfbfbf" points="2298.21,-0.5 2298.21,-18.5 2367.02,-18.5 2367.02,-0.5 2298.21,-0.5"/>
<text text-anchor="middle" x="2332.62" y="-6.5" font-family="Helvetica,sans-Serif" font-size="10.00">Eigen/Lgsm</text>
</g>
<!-- Node2&#45;&gt;Node26 -->
<g id="edge26" class="edge"><title>Node2&#45;&gt;Node26</title>
<path fill="none" stroke="midnightblue" d="M1202.87,-56.3497C1207.51,-55.8333 1212.15,-55.3708 1216.62,-55 1688.33,-15.8502 1813.14,-71.5757 2287.9,-18.8428"/>
<polygon fill="midnightblue" stroke="midnightblue" points="2288.56,-22.2906 2298.11,-17.6981 2287.78,-15.3342 2288.56,-22.2906"/>
</g>
</g>
</svg>
