<?xml version="1.0" encoding="UTF-8" standalone="no"?>
<!DOCTYPE svg PUBLIC "-//W3C//DTD SVG 1.1//EN"
 "http://www.w3.org/Graphics/SVG/1.1/DTD/svg11.dtd">
<!-- Generated by graphviz version 2.38.0 (20140413.2041)
 -->
<!-- Title: /Users/jorhabibeljaik/Code/codyco&#45;superbuild/main/ocra&#45;wbi&#45;plugins/ocra&#45;icub&#45;clients/walking&#45;client/include/walking&#45;client/ZmpController.h Pages: 1 -->
<svg width="2605pt" height="187pt"
 viewBox="0.00 0.00 2605.25 187.00" xmlns="http://www.w3.org/2000/svg" xmlns:xlink="http://www.w3.org/1999/xlink">
<g id="graph0" class="graph" transform="scale(1 1) rotate(0) translate(4 183)">
<title>/Users/jorhabibeljaik/Code/codyco&#45;superbuild/main/ocra&#45;wbi&#45;plugins/ocra&#45;icub&#45;clients/walking&#45;client/include/walking&#45;client/ZmpController.h</title>
<polygon fill="white" stroke="none" points="-4,4 -4,-183 2601.25,-183 2601.25,4 -4,4"/>
<!-- Node0 -->
<g id="node1" class="node"><title>Node0</title>
<polygon fill="#bfbfbf" stroke="black" points="1183.64,-110.5 1183.64,-178.5 1323.59,-178.5 1323.59,-110.5 1183.64,-110.5"/>
<text text-anchor="start" x="1191.64" y="-166.5" font-family="Helvetica,sans-Serif" font-size="10.00">/Users/jorhabibeljaik</text>
<text text-anchor="start" x="1191.64" y="-156.5" font-family="Helvetica,sans-Serif" font-size="10.00">/Code/codyco&#45;superbuild</text>
<text text-anchor="start" x="1191.64" y="-146.5" font-family="Helvetica,sans-Serif" font-size="10.00">/main/ocra&#45;wbi&#45;plugins</text>
<text text-anchor="start" x="1191.64" y="-136.5" font-family="Helvetica,sans-Serif" font-size="10.00">/ocra&#45;icub&#45;clients/walking</text>
<text text-anchor="start" x="1191.64" y="-126.5" font-family="Helvetica,sans-Serif" font-size="10.00">&#45;client/include/walking&#45;client</text>
<text text-anchor="middle" x="1253.62" y="-116.5" font-family="Helvetica,sans-Serif" font-size="10.00">/ZmpController.h</text>
</g>
<!-- Node1 -->
<g id="node2" class="node"><title>Node1</title>
<g id="a_node2"><a xlink:href="Utilities_8h.html" target="_top" xlink:title="Some useful tools for the ocra&#45;icub lib. ">
<polygon fill="white" stroke="black" points="1164.38,-55.5 1164.38,-73.5 1264.85,-73.5 1264.85,-55.5 1164.38,-55.5"/>
<text text-anchor="middle" x="1214.62" y="-61.5" font-family="Helvetica,sans-Serif" font-size="10.00">ocra&#45;icub/Utilities.h</text>
</a>
</g>
</g>
<!-- Node0&#45;&gt;Node1 -->
<g id="edge1" class="edge"><title>Node0&#45;&gt;Node1</title>
<path fill="none" stroke="midnightblue" d="M1237.08,-110.421C1232.35,-100.962 1227.38,-91.0271 1223.32,-82.9125"/>
<polygon fill="midnightblue" stroke="midnightblue" points="1226.36,-81.1594 1218.76,-73.7804 1220.1,-84.29 1226.36,-81.1594"/>
</g>
<!-- Node6 -->
<g id="node7" class="node"><title>Node6</title>
<polygon fill="white" stroke="#bfbfbf" points="0,-0.5 0,-18.5 43.2314,-18.5 43.2314,-0.5 0,-0.5"/>
<text text-anchor="middle" x="21.6157" y="-6.5" font-family="Helvetica,sans-Serif" font-size="10.00">vector</text>
</g>
<!-- Node0&#45;&gt;Node6 -->
<g id="edge29" class="edge"><title>Node0&#45;&gt;Node6</title>
<path fill="none" stroke="midnightblue" d="M1183.32,-140.254C998.747,-130.87 485.401,-99.2071 53.3964,-18.8343"/>
<polygon fill="midnightblue" stroke="midnightblue" points="54.0006,-15.3867 43.5273,-16.987 52.7126,-22.2672 54.0006,-15.3867"/>
</g>
<!-- Node25 -->
<g id="node26" class="node"><title>Node25</title>
<polygon fill="white" stroke="#bfbfbf" points="2523.99,-0.5 2523.99,-18.5 2597.25,-18.5 2597.25,-0.5 2523.99,-0.5"/>
<text text-anchor="middle" x="2560.62" y="-6.5" font-family="Helvetica,sans-Serif" font-size="10.00">Eigen/Dense</text>
</g>
<!-- Node0&#45;&gt;Node25 -->
<g id="edge28" class="edge"><title>Node0&#45;&gt;Node25</title>
<path fill="none" stroke="midnightblue" d="M1266.15,-110.106C1275.47,-90.3546 1290.3,-66.9334 1311.62,-55 1368.08,-23.3946 2379.7,-25.8913 2513.41,-18.5829"/>
<polygon fill="midnightblue" stroke="midnightblue" points="2514.06,-22.0443 2523.78,-17.8186 2513.55,-15.0632 2514.06,-22.0443"/>
</g>
<!-- Node27 -->
<g id="node28" class="node"><title>Node27</title>
<polygon fill="white" stroke="#bfbfbf" points="1320.48,-55.5 1320.48,-73.5 1438.75,-73.5 1438.75,-55.5 1320.48,-55.5"/>
<text text-anchor="middle" x="1379.62" y="-61.5" font-family="Helvetica,sans-Serif" font-size="10.00">ocra/util/ErrorsHelper.h</text>
</g>
<!-- Node0&#45;&gt;Node27 -->
<g id="edge27" class="edge"><title>Node0&#45;&gt;Node27</title>
<path fill="none" stroke="midnightblue" d="M1307.05,-110.421C1324.82,-99.423 1343.62,-87.7819 1357.64,-79.1065"/>
<polygon fill="midnightblue" stroke="midnightblue" points="1359.84,-81.8582 1366.5,-73.6186 1356.16,-75.9063 1359.84,-81.8582"/>
</g>
<!-- Node2 -->
<g id="node3" class="node"><title>Node2</title>
<polygon fill="white" stroke="#bfbfbf" points="61.5591,-0.5 61.5591,-18.5 113.672,-18.5 113.672,-0.5 61.5591,-0.5"/>
<text text-anchor="middle" x="87.6157" y="-6.5" font-family="Helvetica,sans-Serif" font-size="10.00">memory</text>
</g>
<!-- Node1&#45;&gt;Node2 -->
<g id="edge2" class="edge"><title>Node1&#45;&gt;Node2</title>
<path fill="none" stroke="midnightblue" d="M1164.08,-62.7654C980.346,-59.8917 347.341,-48.1667 123.891,-18.833"/>
<polygon fill="midnightblue" stroke="midnightblue" points="124.263,-15.3514 113.881,-17.468 123.317,-22.2872 124.263,-15.3514"/>
</g>
<!-- Node3 -->
<g id="node4" class="node"><title>Node3</title>
<polygon fill="white" stroke="#bfbfbf" points="132,-0.5 132,-18.5 175.231,-18.5 175.231,-0.5 132,-0.5"/>
<text text-anchor="middle" x="153.616" y="-6.5" font-family="Helvetica,sans-Serif" font-size="10.00">cmath</text>
</g>
<!-- Node1&#45;&gt;Node3 -->
<g id="edge3" class="edge"><title>Node1&#45;&gt;Node3</title>
<path fill="none" stroke="midnightblue" d="M1164.16,-62.8183C987.442,-60.2005 396.175,-49.4458 185.538,-18.6814"/>
<polygon fill="midnightblue" stroke="midnightblue" points="185.911,-15.1981 175.499,-17.1538 184.858,-22.1184 185.911,-15.1981"/>
</g>
<!-- Node4 -->
<g id="node5" class="node"><title>Node4</title>
<polygon fill="white" stroke="#bfbfbf" points="193.443,-0.5 193.443,-18.5 247.788,-18.5 247.788,-0.5 193.443,-0.5"/>
<text text-anchor="middle" x="220.616" y="-6.5" font-family="Helvetica,sans-Serif" font-size="10.00">iostream</text>
</g>
<!-- Node1&#45;&gt;Node4 -->
<g id="edge4" class="edge"><title>Node1&#45;&gt;Node4</title>
<path fill="none" stroke="midnightblue" d="M1164.21,-62.3932C995.995,-58.5096 454.005,-44.4182 258.207,-18.9071"/>
<polygon fill="midnightblue" stroke="midnightblue" points="258.414,-15.4031 248.034,-17.5268 257.472,-22.3396 258.414,-15.4031"/>
</g>
<!-- Node5 -->
<g id="node6" class="node"><title>Node5</title>
<polygon fill="white" stroke="#bfbfbf" points="265.389,-0.5 265.389,-18.5 305.842,-18.5 305.842,-0.5 265.389,-0.5"/>
<text text-anchor="middle" x="285.616" y="-6.5" font-family="Helvetica,sans-Serif" font-size="10.00">string</text>
</g>
<!-- Node1&#45;&gt;Node5 -->
<g id="edge5" class="edge"><title>Node1&#45;&gt;Node5</title>
<path fill="none" stroke="midnightblue" d="M1164.37,-62.573C1003.16,-59.3588 499.233,-47.3886 316.109,-18.7842"/>
<polygon fill="midnightblue" stroke="midnightblue" points="316.505,-15.3025 306.071,-17.1439 315.376,-22.2109 316.505,-15.3025"/>
</g>
<!-- Node1&#45;&gt;Node6 -->
<g id="edge6" class="edge"><title>Node1&#45;&gt;Node6</title>
<path fill="none" stroke="midnightblue" d="M1164.17,-63.1057C972.872,-61.3756 291.399,-53.0168 53.4717,-18.6638"/>
<polygon fill="midnightblue" stroke="midnightblue" points="53.9051,-15.1898 43.4965,-17.1674 52.8666,-22.1123 53.9051,-15.1898"/>
</g>
<!-- Node7 -->
<g id="node8" class="node"><title>Node7</title>
<polygon fill="white" stroke="#bfbfbf" points="323.835,-0.5 323.835,-18.5 375.396,-18.5 375.396,-0.5 323.835,-0.5"/>
<text text-anchor="middle" x="349.616" y="-6.5" font-family="Helvetica,sans-Serif" font-size="10.00">sstream</text>
</g>
<!-- Node1&#45;&gt;Node7 -->
<g id="edge7" class="edge"><title>Node1&#45;&gt;Node7</title>
<path fill="none" stroke="midnightblue" d="M1164.24,-64.0238C1035.8,-64.6711 685.636,-62.1197 385.705,-18.8418"/>
<polygon fill="midnightblue" stroke="midnightblue" points="385.906,-15.3341 375.505,-17.3514 384.893,-22.2605 385.906,-15.3341"/>
</g>
<!-- Node8 -->
<g id="node9" class="node"><title>Node8</title>
<polygon fill="white" stroke="#bfbfbf" points="393.677,-0.5 393.677,-18.5 509.555,-18.5 509.555,-0.5 393.677,-0.5"/>
<text text-anchor="middle" x="451.616" y="-6.5" font-family="Helvetica,sans-Serif" font-size="10.00">yarp/os/BufferedPort.h</text>
</g>
<!-- Node1&#45;&gt;Node8 -->
<g id="edge8" class="edge"><title>Node1&#45;&gt;Node8</title>
<path fill="none" stroke="midnightblue" d="M1164.31,-61.3609C1051.18,-56.318 767.872,-42.3921 519.983,-19.0686"/>
<polygon fill="midnightblue" stroke="midnightblue" points="519.981,-15.5529 509.696,-18.0933 519.321,-22.5216 519.981,-15.5529"/>
</g>
<!-- Node9 -->
<g id="node10" class="node"><title>Node9</title>
<polygon fill="white" stroke="#bfbfbf" points="527.875,-0.5 527.875,-18.5 613.357,-18.5 613.357,-0.5 527.875,-0.5"/>
<text text-anchor="middle" x="570.616" y="-6.5" font-family="Helvetica,sans-Serif" font-size="10.00">yarp/os/Bottle.h</text>
</g>
<!-- Node1&#45;&gt;Node9 -->
<g id="edge9" class="edge"><title>Node1&#45;&gt;Node9</title>
<path fill="none" stroke="midnightblue" d="M1164.18,-61.1917C1063.47,-56.2608 830.122,-43.2259 623.55,-18.9994"/>
<polygon fill="midnightblue" stroke="midnightblue" points="623.765,-15.5005 613.423,-17.8001 622.942,-22.4519 623.765,-15.5005"/>
</g>
<!-- Node10 -->
<g id="node11" class="node"><title>Node10</title>
<polygon fill="white" stroke="#bfbfbf" points="631.256,-0.5 631.256,-18.5 743.975,-18.5 743.975,-0.5 631.256,-0.5"/>
<text text-anchor="middle" x="687.616" y="-6.5" font-family="Helvetica,sans-Serif" font-size="10.00">yarp/os/RateThread.h</text>
</g>
<!-- Node1&#45;&gt;Node10 -->
<g id="edge10" class="edge"><title>Node1&#45;&gt;Node10</title>
<path fill="none" stroke="midnightblue" d="M1164.08,-59.1524C1081.02,-51.8902 910.176,-36.465 754.367,-19.0482"/>
<polygon fill="midnightblue" stroke="midnightblue" points="754.455,-15.5362 744.127,-17.8982 753.674,-22.4925 754.455,-15.5362"/>
</g>
<!-- Node11 -->
<g id="node12" class="node"><title>Node11</title>
<polygon fill="white" stroke="#bfbfbf" points="762.362,-0.5 762.362,-18.5 892.869,-18.5 892.869,-0.5 762.362,-0.5"/>
<text text-anchor="middle" x="827.616" y="-6.5" font-family="Helvetica,sans-Serif" font-size="10.00">yarp/os/ResourceFinder.h</text>
</g>
<!-- Node1&#45;&gt;Node11 -->
<g id="edge11" class="edge"><title>Node1&#45;&gt;Node11</title>
<path fill="none" stroke="midnightblue" d="M1164.02,-56.5712C1095.49,-47.1859 972.929,-30.4008 896.178,-19.8897"/>
<polygon fill="midnightblue" stroke="midnightblue" points="896.509,-16.4024 886.127,-18.5131 895.559,-23.3377 896.509,-16.4024"/>
</g>
<!-- Node12 -->
<g id="node13" class="node"><title>Node12</title>
<polygon fill="white" stroke="#bfbfbf" points="911.365,-0.5 911.365,-18.5 1021.87,-18.5 1021.87,-0.5 911.365,-0.5"/>
<text text-anchor="middle" x="966.616" y="-6.5" font-family="Helvetica,sans-Serif" font-size="10.00">yarp/os/PortReader.h</text>
</g>
<!-- Node1&#45;&gt;Node12 -->
<g id="edge12" class="edge"><title>Node1&#45;&gt;Node12</title>
<path fill="none" stroke="midnightblue" d="M1176.95,-55.4504C1133.4,-46.1428 1061.64,-30.8067 1014.25,-20.6791"/>
<polygon fill="midnightblue" stroke="midnightblue" points="1014.74,-17.2056 1004.23,-18.5383 1013.28,-24.051 1014.74,-17.2056"/>
</g>
<!-- Node13 -->
<g id="node14" class="node"><title>Node13</title>
<polygon fill="white" stroke="#bfbfbf" points="1039.99,-0.5 1039.99,-18.5 1143.25,-18.5 1143.25,-0.5 1039.99,-0.5"/>
<text text-anchor="middle" x="1091.62" y="-6.5" font-family="Helvetica,sans-Serif" font-size="10.00">yarp/os/RpcClient.h</text>
</g>
<!-- Node1&#45;&gt;Node13 -->
<g id="edge13" class="edge"><title>Node1&#45;&gt;Node13</title>
<path fill="none" stroke="midnightblue" d="M1195.93,-55.4504C1175.71,-46.734 1143.21,-32.7306 1119.86,-22.6691"/>
<polygon fill="midnightblue" stroke="midnightblue" points="1121.04,-19.3683 1110.47,-18.6253 1118.27,-25.7969 1121.04,-19.3683"/>
</g>
<!-- Node14 -->
<g id="node15" class="node"><title>Node14</title>
<polygon fill="white" stroke="#bfbfbf" points="1161.32,-0.5 1161.32,-18.5 1267.92,-18.5 1267.92,-0.5 1161.32,-0.5"/>
<text text-anchor="middle" x="1214.62" y="-6.5" font-family="Helvetica,sans-Serif" font-size="10.00">yarp/os/RpcServer.h</text>
</g>
<!-- Node1&#45;&gt;Node14 -->
<g id="edge14" class="edge"><title>Node1&#45;&gt;Node14</title>
<path fill="none" stroke="midnightblue" d="M1214.62,-55.2188C1214.62,-48.1769 1214.62,-37.8083 1214.62,-28.8277"/>
<polygon fill="midnightblue" stroke="midnightblue" points="1218.12,-28.5495 1214.62,-18.5496 1211.12,-28.5496 1218.12,-28.5495"/>
</g>
<!-- Node15 -->
<g id="node16" class="node"><title>Node15</title>
<polygon fill="white" stroke="#bfbfbf" points="1286.24,-0.5 1286.24,-18.5 1428.99,-18.5 1428.99,-0.5 1286.24,-0.5"/>
<text text-anchor="middle" x="1357.62" y="-6.5" font-family="Helvetica,sans-Serif" font-size="10.00">yarp/os/ConnectionReader.h</text>
</g>
<!-- Node1&#45;&gt;Node15 -->
<g id="edge15" class="edge"><title>Node1&#45;&gt;Node15</title>
<path fill="none" stroke="midnightblue" d="M1236.33,-55.4504C1260.27,-46.5784 1298.99,-32.2288 1326.23,-22.134"/>
<polygon fill="midnightblue" stroke="midnightblue" points="1327.53,-25.3825 1335.69,-18.6253 1325.1,-18.8188 1327.53,-25.3825"/>
</g>
<!-- Node16 -->
<g id="node17" class="node"><title>Node16</title>
<polygon fill="white" stroke="#bfbfbf" points="1446.73,-0.5 1446.73,-18.5 1528.5,-18.5 1528.5,-0.5 1446.73,-0.5"/>
<text text-anchor="middle" x="1487.62" y="-6.5" font-family="Helvetica,sans-Serif" font-size="10.00">yarp/os/Time.h</text>
</g>
<!-- Node1&#45;&gt;Node16 -->
<g id="edge16" class="edge"><title>Node1&#45;&gt;Node16</title>
<path fill="none" stroke="midnightblue" d="M1256.08,-55.4504C1304.46,-46.0571 1384.47,-30.5238 1436.62,-20.4007"/>
<polygon fill="midnightblue" stroke="midnightblue" points="1437.51,-23.7934 1446.66,-18.4517 1436.17,-16.9217 1437.51,-23.7934"/>
</g>
<!-- Node17 -->
<g id="node18" class="node"><title>Node17</title>
<polygon fill="white" stroke="#bfbfbf" points="1546.32,-0.5 1546.32,-18.5 1622.91,-18.5 1622.91,-0.5 1546.32,-0.5"/>
<text text-anchor="middle" x="1584.62" y="-6.5" font-family="Helvetica,sans-Serif" font-size="10.00">yarp/os/Log.h</text>
</g>
<!-- Node1&#45;&gt;Node17 -->
<g id="edge17" class="edge"><title>Node1&#45;&gt;Node17</title>
<path fill="none" stroke="midnightblue" d="M1264.98,-56.6798C1342.63,-46.1487 1487.04,-26.4928 1536.07,-19.1444"/>
<polygon fill="midnightblue" stroke="midnightblue" points="1536.81,-22.5715 1546.16,-17.5898 1535.75,-15.6531 1536.81,-22.5715"/>
</g>
<!-- Node18 -->
<g id="node19" class="node"><title>Node18</title>
<polygon fill="white" stroke="#bfbfbf" points="1641.2,-0.5 1641.2,-18.5 1750.03,-18.5 1750.03,-0.5 1641.2,-0.5"/>
<text text-anchor="middle" x="1695.62" y="-6.5" font-family="Helvetica,sans-Serif" font-size="10.00">yarp/os/LogStream.h</text>
</g>
<!-- Node1&#45;&gt;Node18 -->
<g id="edge18" class="edge"><title>Node1&#45;&gt;Node18</title>
<path fill="none" stroke="midnightblue" d="M1264.91,-56.6739C1269.54,-56.0895 1274.16,-55.5226 1278.62,-55 1432.03,-36.9936 1473.31,-37.36 1631.1,-19.0233"/>
<polygon fill="midnightblue" stroke="midnightblue" points="1631.64,-22.4841 1641.16,-17.8466 1630.82,-15.5314 1631.64,-22.4841"/>
</g>
<!-- Node19 -->
<g id="node20" class="node"><title>Node19</title>
<polygon fill="white" stroke="#bfbfbf" points="1768.13,-0.5 1768.13,-18.5 1865.1,-18.5 1865.1,-0.5 1768.13,-0.5"/>
<text text-anchor="middle" x="1816.62" y="-6.5" font-family="Helvetica,sans-Serif" font-size="10.00">yarp/os/Property.h</text>
</g>
<!-- Node1&#45;&gt;Node19 -->
<g id="edge19" class="edge"><title>Node1&#45;&gt;Node19</title>
<path fill="none" stroke="midnightblue" d="M1264.89,-56.5465C1269.53,-55.9888 1274.16,-55.463 1278.62,-55 1488.18,-33.2426 1544.29,-42.2412 1757.95,-18.9875"/>
<polygon fill="midnightblue" stroke="midnightblue" points="1758.36,-22.464 1767.91,-17.8922 1757.59,-15.5059 1758.36,-22.464"/>
</g>
<!-- Node20 -->
<g id="node21" class="node"><title>Node20</title>
<polygon fill="white" stroke="#bfbfbf" points="1882.65,-0.5 1882.65,-18.5 1972.59,-18.5 1972.59,-0.5 1882.65,-0.5"/>
<text text-anchor="middle" x="1927.62" y="-6.5" font-family="Helvetica,sans-Serif" font-size="10.00">yarp/sig/Vector.h</text>
</g>
<!-- Node1&#45;&gt;Node20 -->
<g id="edge20" class="edge"><title>Node1&#45;&gt;Node20</title>
<path fill="none" stroke="midnightblue" d="M1264.89,-56.4778C1269.52,-55.9345 1274.15,-55.4308 1278.62,-55 1538.97,-29.8671 1608.48,-47.1778 1872.3,-19.0281"/>
<polygon fill="midnightblue" stroke="midnightblue" points="1873.01,-22.4722 1882.58,-17.9195 1872.26,-15.5126 1873.01,-22.4722"/>
</g>
<!-- Node21 -->
<g id="node22" class="node"><title>Node21</title>
<polygon fill="white" stroke="#bfbfbf" points="1990.94,-0.5 1990.94,-18.5 2080.29,-18.5 2080.29,-0.5 1990.94,-0.5"/>
<text text-anchor="middle" x="2035.62" y="-6.5" font-family="Helvetica,sans-Serif" font-size="10.00">yarp/sig/Matrix.h</text>
</g>
<!-- Node1&#45;&gt;Node21 -->
<g id="edge21" class="edge"><title>Node1&#45;&gt;Node21</title>
<path fill="none" stroke="midnightblue" d="M1264.88,-56.4336C1269.52,-55.8996 1274.15,-55.4101 1278.62,-55 1586.81,-26.6894 1668.69,-50.8372 1980.63,-18.9711"/>
<polygon fill="midnightblue" stroke="midnightblue" points="1981.29,-22.422 1990.87,-17.9131 1980.57,-15.4591 1981.29,-22.422"/>
</g>
<!-- Node22 -->
<g id="node23" class="node"><title>Node22</title>
<polygon fill="white" stroke="#bfbfbf" points="2098.05,-0.5 2098.05,-18.5 2155.18,-18.5 2155.18,-0.5 2098.05,-0.5"/>
<text text-anchor="middle" x="2126.62" y="-6.5" font-family="Helvetica,sans-Serif" font-size="10.00">wbi/wbi.h</text>
</g>
<!-- Node1&#45;&gt;Node22 -->
<g id="edge22" class="edge"><title>Node1&#45;&gt;Node22</title>
<path fill="none" stroke="midnightblue" d="M1264.88,-56.4012C1269.52,-55.874 1274.15,-55.3949 1278.62,-55 1634.68,-23.5135 1730.33,-66.7741 2087.91,-18.9741"/>
<polygon fill="midnightblue" stroke="midnightblue" points="2088.59,-22.415 2098.03,-17.6072 2087.65,-15.478 2088.59,-22.415"/>
</g>
<!-- Node23 -->
<g id="node24" class="node"><title>Node23</title>
<polygon fill="white" stroke="#bfbfbf" points="2173.32,-0.5 2173.32,-18.5 2279.92,-18.5 2279.92,-0.5 2173.32,-0.5"/>
<text text-anchor="middle" x="2226.62" y="-6.5" font-family="Helvetica,sans-Serif" font-size="10.00">ocra/control/Model.h</text>
</g>
<!-- Node1&#45;&gt;Node23 -->
<g id="edge23" class="edge"><title>Node1&#45;&gt;Node23</title>
<path fill="none" stroke="midnightblue" d="M1264.88,-56.3833C1269.52,-55.8598 1274.15,-55.3866 1278.62,-55 1667.9,-21.3118 1770.31,-53.2491 2163,-19.0497"/>
<polygon fill="midnightblue" stroke="midnightblue" points="2163.56,-22.5138 2173.22,-18.1507 2162.95,-15.5407 2163.56,-22.5138"/>
</g>
<!-- Node24 -->
<g id="node25" class="node"><title>Node24</title>
<polygon fill="white" stroke="#bfbfbf" points="2298.37,-0.5 2298.37,-18.5 2418.86,-18.5 2418.86,-0.5 2298.37,-0.5"/>
<text text-anchor="middle" x="2358.62" y="-6.5" font-family="Helvetica,sans-Serif" font-size="10.00">ocra/util/StringUtilities.h</text>
</g>
<!-- Node1&#45;&gt;Node24 -->
<g id="edge24" class="edge"><title>Node1&#45;&gt;Node24</title>
<path fill="none" stroke="midnightblue" d="M1264.87,-56.3595C1269.51,-55.8411 1274.15,-55.3754 1278.62,-55 1722.93,-17.6635 1839.12,-53.5704 2288.32,-18.9307"/>
<polygon fill="midnightblue" stroke="midnightblue" points="2288.62,-22.4181 2298.32,-18.1524 2288.08,-15.4392 2288.62,-22.4181"/>
</g>
<!-- Node1&#45;&gt;Node25 -->
<g id="edge25" class="edge"><title>Node1&#45;&gt;Node25</title>
<path fill="none" stroke="midnightblue" d="M1264.87,-56.3285C1269.51,-55.8165 1274.15,-55.3609 1278.62,-55 1823.06,-11.0345 1966.38,-76.2955 2513.65,-18.8926"/>
<polygon fill="midnightblue" stroke="midnightblue" points="2514.2,-22.3539 2523.78,-17.8212 2513.47,-15.3927 2514.2,-22.3539"/>
</g>
<!-- Node26 -->
<g id="node27" class="node"><title>Node26</title>
<polygon fill="white" stroke="#bfbfbf" points="2437.21,-0.5 2437.21,-18.5 2506.02,-18.5 2506.02,-0.5 2437.21,-0.5"/>
<text text-anchor="middle" x="2471.62" y="-6.5" font-family="Helvetica,sans-Serif" font-size="10.00">Eigen/Lgsm</text>
</g>
<!-- Node1&#45;&gt;Node26 -->
<g id="edge26" class="edge"><title>Node1&#45;&gt;Node26</title>
<path fill="none" stroke="midnightblue" d="M1264.87,-56.339C1269.51,-55.8248 1274.15,-55.3658 1278.62,-55 1784.47,-13.5892 1918.09,-74.8171 2426.93,-18.8355"/>
<polygon fill="midnightblue" stroke="midnightblue" points="2427.56,-22.2876 2437.11,-17.7055 2426.78,-15.3303 2427.56,-22.2876"/>
</g>
</g>
</svg>
