<?xml version="1.0" encoding="UTF-8" standalone="no"?>
<!DOCTYPE svg PUBLIC "-//W3C//DTD SVG 1.1//EN"
 "http://www.w3.org/Graphics/SVG/1.1/DTD/svg11.dtd">
<!-- Generated by graphviz version 2.38.0 (20140413.2041)
 -->
<!-- Title: /Users/jorhabibeljaik/Code/codyco&#45;superbuild/main/ocra&#45;wbi&#45;plugins/ocra&#45;icub&#45;clients/walking&#45;client/src/ZmpPreviewController.cpp Pages: 1 -->
<svg width="187pt" height="132pt"
 viewBox="0.00 0.00 186.83 132.00" xmlns="http://www.w3.org/2000/svg" xmlns:xlink="http://www.w3.org/1999/xlink">
<g id="graph0" class="graph" transform="scale(1 1) rotate(0) translate(4 128)">
<title>/Users/jorhabibeljaik/Code/codyco&#45;superbuild/main/ocra&#45;wbi&#45;plugins/ocra&#45;icub&#45;clients/walking&#45;client/src/ZmpPreviewController.cpp</title>
<polygon fill="white" stroke="none" points="-4,4 -4,-128 182.832,-128 182.832,4 -4,4"/>
<!-- Node0 -->
<g id="node1" class="node"><title>Node0</title>
<polygon fill="#bfbfbf" stroke="black" points="0,-65.5 0,-123.5 178.832,-123.5 178.832,-65.5 0,-65.5"/>
<text text-anchor="start" x="8" y="-111.5" font-family="Helvetica,sans-Serif" font-size="10.00">/Users/jorhabibeljaik</text>
<text text-anchor="start" x="8" y="-101.5" font-family="Helvetica,sans-Serif" font-size="10.00">/Code/codyco&#45;superbuild</text>
<text text-anchor="start" x="8" y="-91.5" font-family="Helvetica,sans-Serif" font-size="10.00">/main/ocra&#45;wbi&#45;plugins</text>
<text text-anchor="start" x="8" y="-81.5" font-family="Helvetica,sans-Serif" font-size="10.00">/ocra&#45;icub&#45;clients/walking</text>
<text text-anchor="middle" x="89.416" y="-71.5" font-family="Helvetica,sans-Serif" font-size="10.00">&#45;client/src/ZmpPreviewController.cpp</text>
</g>
<!-- Node1 -->
<g id="node2" class="node"><title>Node1</title>
<g id="a_node2"><a xlink:href="ZmpPreviewController_8h.html" target="_top" xlink:title="walking&#45;client/ZmpPreview\lController.h">
<polygon fill="white" stroke="black" points="22.2314,-0.5 22.2314,-28.5 156.601,-28.5 156.601,-0.5 22.2314,-0.5"/>
<text text-anchor="start" x="30.2314" y="-16.5" font-family="Helvetica,sans-Serif" font-size="10.00">walking&#45;client/ZmpPreview</text>
<text text-anchor="middle" x="89.416" y="-6.5" font-family="Helvetica,sans-Serif" font-size="10.00">Controller.h</text>
</a>
</g>
</g>
<!-- Node0&#45;&gt;Node1 -->
<g id="edge1" class="edge"><title>Node0&#45;&gt;Node1</title>
<path fill="none" stroke="midnightblue" d="M89.416,-65.3402C89.416,-56.6019 89.416,-47.0749 89.416,-38.7128"/>
<polygon fill="midnightblue" stroke="midnightblue" points="92.9161,-38.5554 89.416,-28.5554 85.9161,-38.5555 92.9161,-38.5554"/>
</g>
</g>
</svg>
