<?xml version="1.0" encoding="UTF-8" standalone="no"?>
<!DOCTYPE svg PUBLIC "-//W3C//DTD SVG 1.1//EN"
 "http://www.w3.org/Graphics/SVG/1.1/DTD/svg11.dtd">
<!-- Generated by graphviz version 2.38.0 (20140413.2041)
 -->
<!-- Title: OrthonormalFamily.h Pages: 1 -->
<svg width="331pt" height="82pt"
 viewBox="0.00 0.00 330.88 82.00" xmlns="http://www.w3.org/2000/svg" xmlns:xlink="http://www.w3.org/1999/xlink">
<g id="graph0" class="graph" transform="scale(1 1) rotate(0) translate(4 78)">
<title>OrthonormalFamily.h</title>
<polygon fill="white" stroke="none" points="-4,4 -4,-78 326.88,-78 326.88,4 -4,4"/>
<!-- Node2 -->
<g id="node1" class="node"><title>Node2</title>
<polygon fill="#bfbfbf" stroke="black" points="75.9771,-55.5 75.9771,-73.5 184.599,-73.5 184.599,-55.5 75.9771,-55.5"/>
<text text-anchor="middle" x="130.288" y="-61.5" font-family="Helvetica,sans-Serif" font-size="10.00">OrthonormalFamily.h</text>
</g>
<!-- Node3 -->
<g id="node2" class="node"><title>Node3</title>
<g id="a_node2"><a xlink:href="../../df/d0a/main_8cpp.html" target="_top" xlink:title="main.cpp">
<polygon fill="white" stroke="black" points="0,-0.5 0,-18.5 56.5762,-18.5 56.5762,-0.5 0,-0.5"/>
<text text-anchor="middle" x="28.2881" y="-6.5" font-family="Helvetica,sans-Serif" font-size="10.00">main.cpp</text>
</a>
</g>
</g>
<!-- Node2&#45;&gt;Node3 -->
<g id="edge1" class="edge"><title>Node2&#45;&gt;Node3</title>
<path fill="none" stroke="midnightblue" d="M105.731,-50.74C86.518,-40.7567 60.3834,-27.177 43.9255,-18.6253"/>
<polygon fill="midnightblue" stroke="midnightblue" points="104.309,-53.9454 114.796,-55.4504 107.537,-47.7338 104.309,-53.9454"/>
</g>
<!-- Node4 -->
<g id="node3" class="node"><title>Node4</title>
<g id="a_node3"><a xlink:href="../../d0/d71/GHCJTController_8cpp.html" target="_top" xlink:title="Implement the quasi&#45;static Generalized Hierarchical Control based on Jacobian Transpose (GHCJT)...">
<polygon fill="white" stroke="black" points="74.771,-0.5 74.771,-18.5 185.805,-18.5 185.805,-0.5 74.771,-0.5"/>
<text text-anchor="middle" x="130.288" y="-6.5" font-family="Helvetica,sans-Serif" font-size="10.00">GHCJTController.cpp</text>
</a>
</g>
</g>
<!-- Node2&#45;&gt;Node4 -->
<g id="edge2" class="edge"><title>Node2&#45;&gt;Node4</title>
<path fill="none" stroke="midnightblue" d="M130.288,-45.1746C130.288,-36.0945 130.288,-25.5949 130.288,-18.5496"/>
<polygon fill="midnightblue" stroke="midnightblue" points="126.788,-45.2187 130.288,-55.2188 133.788,-45.2188 126.788,-45.2187"/>
</g>
<!-- Node5 -->
<g id="node4" class="node"><title>Node5</title>
<g id="a_node4"><a xlink:href="../../d9/d81/OrthonormalFamily_8cpp.html" target="_top" xlink:title="Orthonormal Family computation for Generalized Hierarchical Control (GHC). ">
<polygon fill="white" stroke="black" points="203.696,-0.5 203.696,-18.5 322.88,-18.5 322.88,-0.5 203.696,-0.5"/>
<text text-anchor="middle" x="263.288" y="-6.5" font-family="Helvetica,sans-Serif" font-size="10.00">OrthonormalFamily.cpp</text>
</a>
</g>
</g>
<!-- Node2&#45;&gt;Node5 -->
<g id="edge3" class="edge"><title>Node2&#45;&gt;Node5</title>
<path fill="none" stroke="midnightblue" d="M159.935,-51.686C185.169,-41.63 220.752,-27.4503 242.898,-18.6253"/>
<polygon fill="midnightblue" stroke="midnightblue" points="158.482,-48.4972 150.488,-55.4504 161.073,-54.9999 158.482,-48.4972"/>
</g>
</g>
</svg>
