<?xml version="1.0" encoding="UTF-8" standalone="no"?>
<!DOCTYPE svg PUBLIC "-//W3C//DTD SVG 1.1//EN"
 "http://www.w3.org/Graphics/SVG/1.1/DTD/svg11.dtd">
<!-- Generated by graphviz version 2.38.0 (20140413.2041)
 -->
<!-- Title: gOcraDebug.h Pages: 1 -->
<svg width="206pt" height="82pt"
 viewBox="0.00 0.00 206.20 82.00" xmlns="http://www.w3.org/2000/svg" xmlns:xlink="http://www.w3.org/1999/xlink">
<g id="graph0" class="graph" transform="scale(1 1) rotate(0) translate(4 78)">
<title>gOcraDebug.h</title>
<polygon fill="white" stroke="none" points="-4,4 -4,-78 202.197,-78 202.197,4 -4,4"/>
<!-- Node5 -->
<g id="node1" class="node"><title>Node5</title>
<polygon fill="#bfbfbf" stroke="black" points="59.2808,-55.5 59.2808,-73.5 140.32,-73.5 140.32,-55.5 59.2808,-55.5"/>
<text text-anchor="middle" x="99.8003" y="-61.5" font-family="Helvetica,sans-Serif" font-size="10.00">gOcraDebug.h</text>
</g>
<!-- Node6 -->
<g id="node2" class="node"><title>Node6</title>
<g id="a_node2"><a xlink:href="../../d5/d78/gOcraDebug_8cpp.html" target="_top" xlink:title="Implementation to get debugging information. ">
<polygon fill="white" stroke="black" points="0,-0.5 0,-18.5 91.6006,-18.5 91.6006,-0.5 0,-0.5"/>
<text text-anchor="middle" x="45.8003" y="-6.5" font-family="Helvetica,sans-Serif" font-size="10.00">gOcraDebug.cpp</text>
</a>
</g>
</g>
<!-- Node5&#45;&gt;Node6 -->
<g id="edge1" class="edge"><title>Node5&#45;&gt;Node6</title>
<path fill="none" stroke="midnightblue" d="M84.1201,-48.1101C74.2713,-38.4438 61.9689,-26.3692 54.0017,-18.5496"/>
<polygon fill="midnightblue" stroke="midnightblue" points="81.7743,-50.7119 91.3628,-55.2188 86.6776,-45.7161 81.7743,-50.7119"/>
</g>
<!-- Node7 -->
<g id="node3" class="node"><title>Node7</title>
<g id="a_node3"><a xlink:href="../../d2/d79/GHCJTTask_8cpp.html" target="_top" xlink:title="Implement task class for GHCJT controller. It inherits from the task class defined in the ocra framew...">
<polygon fill="white" stroke="black" points="109.404,-0.5 109.404,-18.5 198.197,-18.5 198.197,-0.5 109.404,-0.5"/>
<text text-anchor="middle" x="153.8" y="-6.5" font-family="Helvetica,sans-Serif" font-size="10.00">GHCJTTask.cpp</text>
</a>
</g>
</g>
<!-- Node5&#45;&gt;Node7 -->
<g id="edge2" class="edge"><title>Node5&#45;&gt;Node7</title>
<path fill="none" stroke="midnightblue" d="M115.481,-48.1101C125.329,-38.4438 137.632,-26.3692 145.599,-18.5496"/>
<polygon fill="midnightblue" stroke="midnightblue" points="112.923,-45.7161 108.238,-55.2188 117.826,-50.7119 112.923,-45.7161"/>
</g>
</g>
</svg>
