<?xml version="1.0" encoding="UTF-8" standalone="no"?>
<!DOCTYPE svg PUBLIC "-//W3C//DTD SVG 1.1//EN"
 "http://www.w3.org/Graphics/SVG/1.1/DTD/svg11.dtd">
<!-- Generated by graphviz version 2.38.0 (20140413.2041)
 -->
<!-- Title: TaskBuilder.h Pages: 1 -->
<svg width="1185pt" height="302pt"
 viewBox="0.00 0.00 1184.60 302.00" xmlns="http://www.w3.org/2000/svg" xmlns:xlink="http://www.w3.org/1999/xlink">
<g id="graph0" class="graph" transform="scale(1 1) rotate(0) translate(4 298)">
<title>TaskBuilder.h</title>
<polygon fill="white" stroke="none" points="-4,4 -4,-298 1180.6,-298 1180.6,4 -4,4"/>
<!-- Node87 -->
<g id="node1" class="node"><title>Node87</title>
<polygon fill="#bfbfbf" stroke="black" points="561.837,-275.5 561.837,-293.5 637.32,-293.5 637.32,-275.5 561.837,-275.5"/>
<text text-anchor="middle" x="599.579" y="-281.5" font-family="Helvetica,sans-Serif" font-size="10.00">TaskBuilder.h</text>
</g>
<!-- Node88 -->
<g id="node2" class="node"><title>Node88</title>
<g id="a_node2"><a xlink:href="../../da/db2/CartesianTaskBuilder_8h.html" target="_top" xlink:title="CartesianTaskBuilder.h">
<polygon fill="white" stroke="black" points="954.438,-220.5 954.438,-238.5 1072.72,-238.5 1072.72,-220.5 954.438,-220.5"/>
<text text-anchor="middle" x="1013.58" y="-226.5" font-family="Helvetica,sans-Serif" font-size="10.00">CartesianTaskBuilder.h</text>
</a>
</g>
</g>
<!-- Node87&#45;&gt;Node88 -->
<g id="edge1" class="edge"><title>Node87&#45;&gt;Node88</title>
<path fill="none" stroke="midnightblue" d="M647.659,-277.345C723.737,-267.605 871.68,-248.666 954.244,-238.096"/>
<polygon fill="midnightblue" stroke="midnightblue" points="646.89,-273.915 637.416,-278.656 647.779,-280.858 646.89,-273.915"/>
</g>
<!-- Node89 -->
<g id="node3" class="node"><title>Node89</title>
<g id="a_node3"><a xlink:href="../../d1/d7b/TaskConstructionManager_8h.html" target="_top" xlink:title="TaskConstructionManager.h">
<polygon fill="white" stroke="black" points="432.599,-165.5 432.599,-183.5 572.559,-183.5 572.559,-165.5 432.599,-165.5"/>
<text text-anchor="middle" x="502.579" y="-171.5" font-family="Helvetica,sans-Serif" font-size="10.00">TaskConstructionManager.h</text>
</a>
</g>
</g>
<!-- Node87&#45;&gt;Node89 -->
<g id="edge32" class="edge"><title>Node87&#45;&gt;Node89</title>
<path fill="none" stroke="midnightblue" d="M566.488,-271.432C550.862,-264.206 533.146,-253.555 521.579,-239 508.405,-222.424 504.353,-196.872 503.116,-183.81"/>
<polygon fill="midnightblue" stroke="midnightblue" points="565.306,-274.734 575.874,-275.492 568.086,-268.309 565.306,-274.734"/>
</g>
<!-- Node100 -->
<g id="node14" class="node"><title>Node100</title>
<g id="a_node14"><a xlink:href="../../de/d08/ComTaskBuilder_8h.html" target="_top" xlink:title="ComTaskBuilder.h">
<polygon fill="white" stroke="black" points="92.2808,-220.5 92.2808,-238.5 188.876,-238.5 188.876,-220.5 92.2808,-220.5"/>
<text text-anchor="middle" x="140.579" y="-226.5" font-family="Helvetica,sans-Serif" font-size="10.00">ComTaskBuilder.h</text>
</a>
</g>
</g>
<!-- Node87&#45;&gt;Node100 -->
<g id="edge14" class="edge"><title>Node87&#45;&gt;Node100</title>
<path fill="none" stroke="midnightblue" d="M551.705,-278.791C476.293,-271.241 325.269,-255.582 197.579,-239 194.8,-238.639 191.948,-238.256 189.071,-237.859"/>
<polygon fill="midnightblue" stroke="midnightblue" points="551.536,-282.292 561.834,-279.802 552.231,-275.326 551.536,-282.292"/>
</g>
<!-- Node102 -->
<g id="node16" class="node"><title>Node102</title>
<g id="a_node16"><a xlink:href="../../dc/d87/FullPostureTaskBuilder_8h.html" target="_top" xlink:title="FullPostureTaskBuilder.h">
<polygon fill="white" stroke="black" points="206.549,-220.5 206.549,-238.5 332.608,-238.5 332.608,-220.5 206.549,-220.5"/>
<text text-anchor="middle" x="269.579" y="-226.5" font-family="Helvetica,sans-Serif" font-size="10.00">FullPostureTaskBuilder.h</text>
</a>
</g>
</g>
<!-- Node87&#45;&gt;Node102 -->
<g id="edge17" class="edge"><title>Node87&#45;&gt;Node102</title>
<path fill="none" stroke="midnightblue" d="M551.828,-275.831C489.951,-265.893 382.56,-248.645 319.595,-238.533"/>
<polygon fill="midnightblue" stroke="midnightblue" points="551.295,-279.29 561.723,-277.42 552.405,-272.379 551.295,-279.29"/>
</g>
<!-- Node104 -->
<g id="node18" class="node"><title>Node104</title>
<g id="a_node18"><a xlink:href="../../d1/df8/OrientationTaskBuilder_8h.html" target="_top" xlink:title="OrientationTaskBuilder.h">
<polygon fill="white" stroke="black" points="350.379,-220.5 350.379,-238.5 474.778,-238.5 474.778,-220.5 350.379,-220.5"/>
<text text-anchor="middle" x="412.579" y="-226.5" font-family="Helvetica,sans-Serif" font-size="10.00">OrientationTaskBuilder.h</text>
</a>
</g>
</g>
<!-- Node87&#45;&gt;Node104 -->
<g id="edge20" class="edge"><title>Node87&#45;&gt;Node104</title>
<path fill="none" stroke="midnightblue" d="M561.119,-272.6C525.388,-262.473 473.006,-247.627 440.94,-238.538"/>
<polygon fill="midnightblue" stroke="midnightblue" points="560.602,-276.091 571.177,-275.45 562.511,-269.356 560.602,-276.091"/>
</g>
<!-- Node106 -->
<g id="node20" class="node"><title>Node106</title>
<g id="a_node20"><a xlink:href="../../d5/d81/PartialPostureTaskBuilder_8h.html" target="_top" xlink:title="PartialPostureTaskBuilder.h">
<polygon fill="white" stroke="black" points="530.434,-220.5 530.434,-238.5 668.724,-238.5 668.724,-220.5 530.434,-220.5"/>
<text text-anchor="middle" x="599.579" y="-226.5" font-family="Helvetica,sans-Serif" font-size="10.00">PartialPostureTaskBuilder.h</text>
</a>
</g>
</g>
<!-- Node87&#45;&gt;Node106 -->
<g id="edge23" class="edge"><title>Node87&#45;&gt;Node106</title>
<path fill="none" stroke="midnightblue" d="M599.579,-265.175C599.579,-256.094 599.579,-245.595 599.579,-238.55"/>
<polygon fill="midnightblue" stroke="midnightblue" points="596.079,-265.219 599.579,-275.219 603.079,-265.219 596.079,-265.219"/>
</g>
<!-- Node108 -->
<g id="node22" class="node"><title>Node108</title>
<g id="a_node22"><a xlink:href="../../d2/d1a/PointContactTaskBuilder_8h.html" target="_top" xlink:title="PointContactTaskBuilder.h">
<polygon fill="white" stroke="black" points="687.209,-220.5 687.209,-238.5 819.948,-238.5 819.948,-220.5 687.209,-220.5"/>
<text text-anchor="middle" x="753.579" y="-226.5" font-family="Helvetica,sans-Serif" font-size="10.00">PointContactTaskBuilder.h</text>
</a>
</g>
</g>
<!-- Node87&#45;&gt;Node108 -->
<g id="edge26" class="edge"><title>Node87&#45;&gt;Node108</title>
<path fill="none" stroke="midnightblue" d="M632.779,-272.074C662.153,-261.965 704.268,-247.471 730.222,-238.538"/>
<polygon fill="midnightblue" stroke="midnightblue" points="631.285,-268.887 622.968,-275.45 633.563,-275.506 631.285,-268.887"/>
</g>
<!-- Node110 -->
<g id="node24" class="node"><title>Node110</title>
<g id="a_node24"><a xlink:href="../../d4/d7b/PoseTaskBuilder_8h.html" target="_top" xlink:title="PoseTaskBuilder.h">
<polygon fill="white" stroke="black" points="838.441,-220.5 838.441,-238.5 936.716,-238.5 936.716,-220.5 838.441,-220.5"/>
<text text-anchor="middle" x="887.579" y="-226.5" font-family="Helvetica,sans-Serif" font-size="10.00">PoseTaskBuilder.h</text>
</a>
</g>
</g>
<!-- Node87&#45;&gt;Node110 -->
<g id="edge29" class="edge"><title>Node87&#45;&gt;Node110</title>
<path fill="none" stroke="midnightblue" d="M647.668,-274.65C702.408,-264.576 791.056,-248.263 843.893,-238.539"/>
<polygon fill="midnightblue" stroke="midnightblue" points="646.727,-271.265 637.526,-276.517 647.994,-278.149 646.727,-271.265"/>
</g>
<!-- Node112 -->
<g id="node26" class="node"><title>Node112</title>
<g id="a_node26"><a xlink:href="../../da/d3a/TaskBuilder_8cpp.html" target="_top" xlink:title="TaskBuilder.cpp">
<polygon fill="white" stroke="black" points="1090.56,-220.5 1090.56,-238.5 1176.6,-238.5 1176.6,-220.5 1090.56,-220.5"/>
<text text-anchor="middle" x="1133.58" y="-226.5" font-family="Helvetica,sans-Serif" font-size="10.00">TaskBuilder.cpp</text>
</a>
</g>
</g>
<!-- Node87&#45;&gt;Node112 -->
<g id="edge33" class="edge"><title>Node87&#45;&gt;Node112</title>
<path fill="none" stroke="midnightblue" d="M647.555,-280.188C734.356,-273.948 923.175,-259.233 1081.58,-239 1084.48,-238.629 1087.47,-238.218 1090.48,-237.783"/>
<polygon fill="midnightblue" stroke="midnightblue" points="647.209,-276.704 637.484,-280.907 647.707,-283.686 647.209,-276.704"/>
</g>
<!-- Node88&#45;&gt;Node89 -->
<g id="edge2" class="edge"><title>Node88&#45;&gt;Node89</title>
<path fill="none" stroke="midnightblue" d="M943.939,-219.841C782.299,-201.86 739.97,-200.353 581.579,-184 578.697,-183.702 575.757,-183.397 572.787,-183.086"/>
<polygon fill="midnightblue" stroke="midnightblue" points="943.924,-223.361 954.251,-220.993 944.701,-216.405 943.924,-223.361"/>
</g>
<!-- Node99 -->
<g id="node13" class="node"><title>Node99</title>
<g id="a_node13"><a xlink:href="../../d5/d46/CartesianTaskBuilder_8cpp.html" target="_top" xlink:title="CartesianTaskBuilder.cpp">
<polygon fill="white" stroke="black" points="1045.16,-165.5 1045.16,-183.5 1174,-183.5 1174,-165.5 1045.16,-165.5"/>
<text text-anchor="middle" x="1109.58" y="-171.5" font-family="Helvetica,sans-Serif" font-size="10.00">CartesianTaskBuilder.cpp</text>
</a>
</g>
</g>
<!-- Node88&#45;&gt;Node99 -->
<g id="edge13" class="edge"><title>Node88&#45;&gt;Node99</title>
<path fill="none" stroke="midnightblue" d="M1036.94,-215.603C1055,-205.633 1079.44,-192.138 1094.86,-183.625"/>
<polygon fill="midnightblue" stroke="midnightblue" points="1035.22,-212.553 1028.16,-220.45 1038.61,-218.681 1035.22,-212.553"/>
</g>
<!-- Node90 -->
<g id="node4" class="node"><title>Node90</title>
<g id="a_node4"><a xlink:href="../../dd/d25/TaskConstructionManager_8cpp.html" target="_top" xlink:title="TaskConstructionManager.cpp">
<polygon fill="white" stroke="black" points="250.318,-110.5 250.318,-128.5 400.839,-128.5 400.839,-110.5 250.318,-110.5"/>
<text text-anchor="middle" x="325.579" y="-116.5" font-family="Helvetica,sans-Serif" font-size="10.00">TaskConstructionManager.cpp</text>
</a>
</g>
</g>
<!-- Node89&#45;&gt;Node90 -->
<g id="edge3" class="edge"><title>Node89&#45;&gt;Node90</title>
<path fill="none" stroke="midnightblue" d="M465.739,-162.469C431.93,-152.345 382.645,-137.588 352.424,-128.538"/>
<polygon fill="midnightblue" stroke="midnightblue" points="465.112,-165.935 475.696,-165.45 467.12,-159.229 465.112,-165.935"/>
</g>
<!-- Node91 -->
<g id="node5" class="node"><title>Node91</title>
<g id="a_node5"><a xlink:href="../../db/d9a/ControllerClient_8h.html" target="_top" xlink:title="ControllerClient.h">
<polygon fill="white" stroke="black" points="418.951,-110.5 418.951,-128.5 512.207,-128.5 512.207,-110.5 418.951,-110.5"/>
<text text-anchor="middle" x="465.579" y="-116.5" font-family="Helvetica,sans-Serif" font-size="10.00">ControllerClient.h</text>
</a>
</g>
</g>
<!-- Node89&#45;&gt;Node91 -->
<g id="edge4" class="edge"><title>Node89&#45;&gt;Node91</title>
<path fill="none" stroke="midnightblue" d="M491.025,-156.951C484.424,-147.494 476.441,-136.059 471.198,-128.55"/>
<polygon fill="midnightblue" stroke="midnightblue" points="488.203,-159.023 496.797,-165.219 493.943,-155.016 488.203,-159.023"/>
</g>
<!-- Node95 -->
<g id="node9" class="node"><title>Node95</title>
<g id="a_node9"><a xlink:href="../../da/d7c/ControllerServer_8h.html" target="_top" xlink:title="ControllerServer.h">
<polygon fill="white" stroke="black" points="535.281,-55.5 535.281,-73.5 631.876,-73.5 631.876,-55.5 535.281,-55.5"/>
<text text-anchor="middle" x="583.579" y="-61.5" font-family="Helvetica,sans-Serif" font-size="10.00">ControllerServer.h</text>
</a>
</g>
</g>
<!-- Node89&#45;&gt;Node95 -->
<g id="edge8" class="edge"><title>Node89&#45;&gt;Node95</title>
<path fill="none" stroke="midnightblue" d="M514.842,-157.148C532.414,-133.719 564.103,-91.4681 577.42,-73.7118"/>
<polygon fill="midnightblue" stroke="midnightblue" points="511.867,-155.282 508.667,-165.382 517.467,-159.482 511.867,-155.282"/>
</g>
<!-- Node97 -->
<g id="node11" class="node"><title>Node97</title>
<g id="a_node11"><a xlink:href="../../d2/d6c/ServerCommunications_8h.html" target="_top" xlink:title="ServerCommunications.h">
<polygon fill="white" stroke="black" points="568.446,-110.5 568.446,-128.5 696.711,-128.5 696.711,-110.5 568.446,-110.5"/>
<text text-anchor="middle" x="632.579" y="-116.5" font-family="Helvetica,sans-Serif" font-size="10.00">ServerCommunications.h</text>
</a>
</g>
</g>
<!-- Node89&#45;&gt;Node97 -->
<g id="edge10" class="edge"><title>Node89&#45;&gt;Node97</title>
<path fill="none" stroke="midnightblue" d="M531.884,-161.552C556.53,-151.505 591.098,-137.411 612.649,-128.625"/>
<polygon fill="midnightblue" stroke="midnightblue" points="530.261,-158.434 522.323,-165.45 532.904,-164.916 530.261,-158.434"/>
</g>
<!-- Node92 -->
<g id="node6" class="node"><title>Node92</title>
<g id="a_node6"><a xlink:href="../../d8/d80/ClientManager_8h.html" target="_top" xlink:title="Module class for the controller Client. ">
<polygon fill="white" stroke="black" points="307.165,-55.5 307.165,-73.5 395.992,-73.5 395.992,-55.5 307.165,-55.5"/>
<text text-anchor="middle" x="351.579" y="-61.5" font-family="Helvetica,sans-Serif" font-size="10.00">ClientManager.h</text>
</a>
</g>
</g>
<!-- Node91&#45;&gt;Node92 -->
<g id="edge5" class="edge"><title>Node91&#45;&gt;Node92</title>
<path fill="none" stroke="midnightblue" d="M439.011,-106.148C417.461,-96.1297 387.702,-82.2941 369.056,-73.6253"/>
<polygon fill="midnightblue" stroke="midnightblue" points="437.721,-109.408 448.264,-110.45 440.672,-103.061 437.721,-109.408"/>
</g>
<!-- Node94 -->
<g id="node8" class="node"><title>Node94</title>
<g id="a_node8"><a xlink:href="../../d2/d77/ControllerClient_8cpp.html" target="_top" xlink:title="ControllerClient.cpp">
<polygon fill="white" stroke="black" points="413.67,-55.5 413.67,-73.5 517.487,-73.5 517.487,-55.5 413.67,-55.5"/>
<text text-anchor="middle" x="465.579" y="-61.5" font-family="Helvetica,sans-Serif" font-size="10.00">ControllerClient.cpp</text>
</a>
</g>
</g>
<!-- Node91&#45;&gt;Node94 -->
<g id="edge7" class="edge"><title>Node91&#45;&gt;Node94</title>
<path fill="none" stroke="midnightblue" d="M465.579,-100.175C465.579,-91.0945 465.579,-80.5949 465.579,-73.5496"/>
<polygon fill="midnightblue" stroke="midnightblue" points="462.079,-100.219 465.579,-110.219 469.079,-100.219 462.079,-100.219"/>
</g>
<!-- Node93 -->
<g id="node7" class="node"><title>Node93</title>
<g id="a_node7"><a xlink:href="../../d9/d36/ClientManager_8cpp.html" target="_top" xlink:title="ClientManager.cpp">
<polygon fill="white" stroke="black" points="301.884,-0.5 301.884,-18.5 401.273,-18.5 401.273,-0.5 301.884,-0.5"/>
<text text-anchor="middle" x="351.579" y="-6.5" font-family="Helvetica,sans-Serif" font-size="10.00">ClientManager.cpp</text>
</a>
</g>
</g>
<!-- Node92&#45;&gt;Node93 -->
<g id="edge6" class="edge"><title>Node92&#45;&gt;Node93</title>
<path fill="none" stroke="midnightblue" d="M351.579,-45.1746C351.579,-36.0945 351.579,-25.5949 351.579,-18.5496"/>
<polygon fill="midnightblue" stroke="midnightblue" points="348.079,-45.2187 351.579,-55.2188 355.079,-45.2188 348.079,-45.2187"/>
</g>
<!-- Node96 -->
<g id="node10" class="node"><title>Node96</title>
<g id="a_node10"><a xlink:href="../../d5/dd2/ControllerServer_8cpp.html" target="_top" xlink:title="ControllerServer.cpp">
<polygon fill="white" stroke="black" points="530,-0.5 530,-18.5 637.157,-18.5 637.157,-0.5 530,-0.5"/>
<text text-anchor="middle" x="583.579" y="-6.5" font-family="Helvetica,sans-Serif" font-size="10.00">ControllerServer.cpp</text>
</a>
</g>
</g>
<!-- Node95&#45;&gt;Node96 -->
<g id="edge9" class="edge"><title>Node95&#45;&gt;Node96</title>
<path fill="none" stroke="midnightblue" d="M583.579,-45.1746C583.579,-36.0945 583.579,-25.5949 583.579,-18.5496"/>
<polygon fill="midnightblue" stroke="midnightblue" points="580.079,-45.2187 583.579,-55.2188 587.079,-45.2188 580.079,-45.2187"/>
</g>
<!-- Node97&#45;&gt;Node95 -->
<g id="edge11" class="edge"><title>Node97&#45;&gt;Node95</title>
<path fill="none" stroke="midnightblue" d="M618.084,-102.822C609.193,-93.2051 598.179,-81.2917 591.021,-73.5496"/>
<polygon fill="midnightblue" stroke="midnightblue" points="615.564,-105.252 624.922,-110.219 620.704,-100.5 615.564,-105.252"/>
</g>
<!-- Node98 -->
<g id="node12" class="node"><title>Node98</title>
<g id="a_node12"><a xlink:href="../../dc/dac/ServerCommunications_8cpp.html" target="_top" xlink:title="ServerCommunications.cpp">
<polygon fill="white" stroke="black" points="650.165,-55.5 650.165,-73.5 788.992,-73.5 788.992,-55.5 650.165,-55.5"/>
<text text-anchor="middle" x="719.579" y="-61.5" font-family="Helvetica,sans-Serif" font-size="10.00">ServerCommunications.cpp</text>
</a>
</g>
</g>
<!-- Node97&#45;&gt;Node98 -->
<g id="edge12" class="edge"><title>Node97&#45;&gt;Node98</title>
<path fill="none" stroke="midnightblue" d="M654.656,-105.051C670.925,-95.1393 692.524,-81.9817 706.241,-73.6253"/>
<polygon fill="midnightblue" stroke="midnightblue" points="652.511,-102.259 645.792,-110.45 656.153,-108.237 652.511,-102.259"/>
</g>
<!-- Node100&#45;&gt;Node89 -->
<g id="edge15" class="edge"><title>Node100&#45;&gt;Node89</title>
<path fill="none" stroke="midnightblue" d="M199.2,-219.764C291.867,-206.106 388.223,-192.086 447.194,-183.527"/>
<polygon fill="midnightblue" stroke="midnightblue" points="198.469,-216.334 189.087,-221.256 199.491,-223.259 198.469,-216.334"/>
</g>
<!-- Node101 -->
<g id="node15" class="node"><title>Node101</title>
<g id="a_node15"><a xlink:href="../../d4/d18/ComTaskBuilder_8cpp.html" target="_top" xlink:title="ComTaskBuilder.cpp">
<polygon fill="white" stroke="black" points="0,-165.5 0,-183.5 107.157,-183.5 107.157,-165.5 0,-165.5"/>
<text text-anchor="middle" x="53.5786" y="-171.5" font-family="Helvetica,sans-Serif" font-size="10.00">ComTaskBuilder.cpp</text>
</a>
</g>
</g>
<!-- Node100&#45;&gt;Node101 -->
<g id="edge16" class="edge"><title>Node100&#45;&gt;Node101</title>
<path fill="none" stroke="midnightblue" d="M118.501,-215.051C102.232,-205.139 80.6335,-191.982 66.9164,-183.625"/>
<polygon fill="midnightblue" stroke="midnightblue" points="117.004,-218.237 127.365,-220.45 120.646,-212.259 117.004,-218.237"/>
</g>
<!-- Node102&#45;&gt;Node89 -->
<g id="edge18" class="edge"><title>Node102&#45;&gt;Node89</title>
<path fill="none" stroke="midnightblue" d="M314.944,-218.181C359.489,-208.048 426.515,-192.802 467.24,-183.538"/>
<polygon fill="midnightblue" stroke="midnightblue" points="313.941,-214.82 304.966,-220.45 315.494,-221.645 313.941,-214.82"/>
</g>
<!-- Node103 -->
<g id="node17" class="node"><title>Node103</title>
<g id="a_node17"><a xlink:href="../../d7/de9/FullPostureTaskBuilder_8cpp.html" target="_top" xlink:title="FullPostureTaskBuilder.cpp">
<polygon fill="white" stroke="black" points="125.269,-165.5 125.269,-183.5 261.889,-183.5 261.889,-165.5 125.269,-165.5"/>
<text text-anchor="middle" x="193.579" y="-171.5" font-family="Helvetica,sans-Serif" font-size="10.00">FullPostureTaskBuilder.cpp</text>
</a>
</g>
</g>
<!-- Node102&#45;&gt;Node103 -->
<g id="edge19" class="edge"><title>Node102&#45;&gt;Node103</title>
<path fill="none" stroke="midnightblue" d="M249.491,-214.492C235.377,-204.649 216.989,-191.826 205.23,-183.625"/>
<polygon fill="midnightblue" stroke="midnightblue" points="247.831,-217.601 258.036,-220.45 251.835,-211.859 247.831,-217.601"/>
</g>
<!-- Node104&#45;&gt;Node89 -->
<g id="edge21" class="edge"><title>Node104&#45;&gt;Node89</title>
<path fill="none" stroke="midnightblue" d="M434.947,-215.328C451.829,-205.386 474.458,-192.06 488.781,-183.625"/>
<polygon fill="midnightblue" stroke="midnightblue" points="433.089,-212.36 426.248,-220.45 436.641,-218.392 433.089,-212.36"/>
</g>
<!-- Node105 -->
<g id="node19" class="node"><title>Node105</title>
<g id="a_node19"><a xlink:href="../../d8/da4/OrientationTaskBuilder_8cpp.html" target="_top" xlink:title="OrientationTaskBuilder.cpp">
<polygon fill="white" stroke="black" points="280.099,-165.5 280.099,-183.5 415.059,-183.5 415.059,-165.5 280.099,-165.5"/>
<text text-anchor="middle" x="347.579" y="-171.5" font-family="Helvetica,sans-Serif" font-size="10.00">OrientationTaskBuilder.cpp</text>
</a>
</g>
</g>
<!-- Node104&#45;&gt;Node105 -->
<g id="edge22" class="edge"><title>Node104&#45;&gt;Node105</title>
<path fill="none" stroke="midnightblue" d="M394.705,-213.926C382.73,-204.162 367.409,-191.669 357.544,-183.625"/>
<polygon fill="midnightblue" stroke="midnightblue" points="392.745,-216.844 402.707,-220.45 397.168,-211.418 392.745,-216.844"/>
</g>
<!-- Node106&#45;&gt;Node89 -->
<g id="edge24" class="edge"><title>Node106&#45;&gt;Node89</title>
<path fill="none" stroke="midnightblue" d="M575.975,-215.603C557.727,-205.633 533.029,-192.138 517.449,-183.625"/>
<polygon fill="midnightblue" stroke="midnightblue" points="574.393,-218.727 584.846,-220.45 577.749,-212.584 574.393,-218.727"/>
</g>
<!-- Node107 -->
<g id="node21" class="node"><title>Node107</title>
<g id="a_node21"><a xlink:href="../../d5/df0/PartialPostureTaskBuilder_8cpp.html" target="_top" xlink:title="PartialPostureTaskBuilder.cpp">
<polygon fill="white" stroke="black" points="590.153,-165.5 590.153,-183.5 739.004,-183.5 739.004,-165.5 590.153,-165.5"/>
<text text-anchor="middle" x="664.579" y="-171.5" font-family="Helvetica,sans-Serif" font-size="10.00">PartialPostureTaskBuilder.cpp</text>
</a>
</g>
</g>
<!-- Node106&#45;&gt;Node107 -->
<g id="edge25" class="edge"><title>Node106&#45;&gt;Node107</title>
<path fill="none" stroke="midnightblue" d="M617.452,-213.926C629.427,-204.162 644.748,-191.669 654.614,-183.625"/>
<polygon fill="midnightblue" stroke="midnightblue" points="614.989,-211.418 609.451,-220.45 619.413,-216.844 614.989,-211.418"/>
</g>
<!-- Node108&#45;&gt;Node89 -->
<g id="edge27" class="edge"><title>Node108&#45;&gt;Node89</title>
<path fill="none" stroke="midnightblue" d="M705.615,-218.372C657.636,-208.241 584.796,-192.861 540.647,-183.538"/>
<polygon fill="midnightblue" stroke="midnightblue" points="704.95,-221.809 715.457,-220.45 706.396,-214.96 704.95,-221.809"/>
</g>
<!-- Node109 -->
<g id="node23" class="node"><title>Node109</title>
<g id="a_node23"><a xlink:href="../../da/d78/PointContactTaskBuilder_8cpp.html" target="_top" xlink:title="PointContactTaskBuilder.cpp">
<polygon fill="white" stroke="black" points="756.929,-165.5 756.929,-183.5 900.229,-183.5 900.229,-165.5 756.929,-165.5"/>
<text text-anchor="middle" x="828.579" y="-171.5" font-family="Helvetica,sans-Serif" font-size="10.00">PointContactTaskBuilder.cpp</text>
</a>
</g>
</g>
<!-- Node108&#45;&gt;Node109 -->
<g id="edge28" class="edge"><title>Node108&#45;&gt;Node109</title>
<path fill="none" stroke="midnightblue" d="M773.402,-214.492C787.33,-204.649 805.476,-191.826 817.081,-183.625"/>
<polygon fill="midnightblue" stroke="midnightblue" points="771.116,-211.821 764.969,-220.45 775.156,-217.538 771.116,-211.821"/>
</g>
<!-- Node110&#45;&gt;Node89 -->
<g id="edge30" class="edge"><title>Node110&#45;&gt;Node89</title>
<path fill="none" stroke="midnightblue" d="M828.387,-219.983C728.756,-206.029 625.672,-192.055 562.383,-183.528"/>
<polygon fill="midnightblue" stroke="midnightblue" points="827.938,-223.454 838.327,-221.377 828.91,-216.522 827.938,-223.454"/>
</g>
<!-- Node111 -->
<g id="node25" class="node"><title>Node111</title>
<g id="a_node25"><a xlink:href="../../d2/def/PoseTaskBuilder_8cpp.html" target="_top" xlink:title="PoseTaskBuilder.cpp">
<polygon fill="white" stroke="black" points="918.16,-165.5 918.16,-183.5 1027,-183.5 1027,-165.5 918.16,-165.5"/>
<text text-anchor="middle" x="972.579" y="-171.5" font-family="Helvetica,sans-Serif" font-size="10.00">PoseTaskBuilder.cpp</text>
</a>
</g>
</g>
<!-- Node110&#45;&gt;Node111 -->
<g id="edge31" class="edge"><title>Node110&#45;&gt;Node111</title>
<path fill="none" stroke="midnightblue" d="M909.148,-215.051C925.044,-205.139 946.146,-191.982 959.547,-183.625"/>
<polygon fill="midnightblue" stroke="midnightblue" points="907.122,-212.189 900.488,-220.45 910.826,-218.129 907.122,-212.189"/>
</g>
</g>
</svg>
