<?xml version="1.0" encoding="UTF-8" standalone="no"?>
<!DOCTYPE svg PUBLIC "-//W3C//DTD SVG 1.1//EN"
 "http://www.w3.org/Graphics/SVG/1.1/DTD/svg11.dtd">
<!-- Generated by graphviz version 2.38.0 (20140413.2041)
 -->
<!-- Title: ocra::PoseTaskBuilder Pages: 1 -->
<svg width="156pt" height="263pt"
 viewBox="0.00 0.00 155.90 263.00" xmlns="http://www.w3.org/2000/svg" xmlns:xlink="http://www.w3.org/1999/xlink">
<g id="graph0" class="graph" transform="scale(1 1) rotate(0) translate(4 259)">
<title>ocra::PoseTaskBuilder</title>
<polygon fill="white" stroke="none" points="-4,4 -4,-259 151.897,-259 151.897,4 -4,4"/>
<!-- Node2 -->
<g id="node1" class="node"><title>Node2</title>
<polygon fill="#bfbfbf" stroke="black" points="5.83496,-0.5 5.83496,-18.5 121.327,-18.5 121.327,-0.5 5.83496,-0.5"/>
<text text-anchor="middle" x="63.5811" y="-6.5" font-family="Helvetica,sans-Serif" font-size="10.00">ocra::PoseTaskBuilder</text>
</g>
<!-- Node3 -->
<g id="node2" class="node"><title>Node3</title>
<g id="a_node2"><a xlink:href="../../d6/d6a/classocra_1_1TaskBuilder.html" target="_top" xlink:title="ocra::TaskBuilder">
<polygon fill="white" stroke="black" points="17.2314,-56.5 17.2314,-74.5 109.931,-74.5 109.931,-56.5 17.2314,-56.5"/>
<text text-anchor="middle" x="63.5811" y="-62.5" font-family="Helvetica,sans-Serif" font-size="10.00">ocra::TaskBuilder</text>
</a>
</g>
</g>
<!-- Node3&#45;&gt;Node2 -->
<g id="edge1" class="edge"><title>Node3&#45;&gt;Node2</title>
<path fill="none" stroke="midnightblue" d="M63.5811,-45.8288C63.5811,-36.5774 63.5811,-25.8798 63.5811,-18.7014"/>
<polygon fill="midnightblue" stroke="midnightblue" points="60.0812,-46.0625 63.5811,-56.0625 67.0812,-46.0625 60.0812,-46.0625"/>
</g>
<!-- Node4 -->
<g id="node3" class="node"><title>Node4</title>
<g id="a_node3"><a xlink:href="../../d9/d2f/classocra_1_1TaskBuilderOptions.html" target="_top" xlink:title="ocra::TaskBuilderOptions">
<polygon fill="white" stroke="black" points="0,-121.5 0,-139.5 127.162,-139.5 127.162,-121.5 0,-121.5"/>
<text text-anchor="middle" x="63.5811" y="-127.5" font-family="Helvetica,sans-Serif" font-size="10.00">ocra::TaskBuilderOptions</text>
</a>
</g>
</g>
<!-- Node4&#45;&gt;Node3 -->
<g id="edge2" class="edge"><title>Node4&#45;&gt;Node3</title>
<path fill="none" stroke="#9a32cd" stroke-dasharray="5,2" d="M63.5811,-110.907C63.5811,-98.8146 63.5811,-83.6529 63.5811,-74.539"/>
<polygon fill="#9a32cd" stroke="#9a32cd" points="60.0812,-111.264 63.5811,-121.264 67.0812,-111.264 60.0812,-111.264"/>
<text text-anchor="middle" x="81.0933" y="-95" font-family="Helvetica,sans-Serif" font-size="10.00"> options</text>
</g>
<!-- Node5 -->
<g id="node4" class="node"><title>Node5</title>
<polygon fill="white" stroke="#bfbfbf" points="35.2881,-236.5 35.2881,-254.5 91.874,-254.5 91.874,-236.5 35.2881,-236.5"/>
<text text-anchor="middle" x="63.5811" y="-242.5" font-family="Helvetica,sans-Serif" font-size="10.00">VectorXd</text>
</g>
<!-- Node5&#45;&gt;Node4 -->
<g id="edge3" class="edge"><title>Node5&#45;&gt;Node4</title>
<path fill="none" stroke="#9a32cd" stroke-dasharray="5,2" d="M63.5811,-226.071C63.5811,-201.073 63.5811,-157.482 63.5811,-139.553"/>
<polygon fill="#9a32cd" stroke="#9a32cd" points="60.0812,-226.373 63.5811,-236.373 67.0812,-226.373 60.0812,-226.373"/>
<text text-anchor="middle" x="105.739" y="-210" font-family="Helvetica,sans-Serif" font-size="10.00"> nameDesired</text>
<text text-anchor="middle" x="105.739" y="-200" font-family="Helvetica,sans-Serif" font-size="10.00">indexDesired</text>
<text text-anchor="middle" x="105.739" y="-190" font-family="Helvetica,sans-Serif" font-size="10.00">desired</text>
<text text-anchor="middle" x="105.739" y="-180" font-family="Helvetica,sans-Serif" font-size="10.00">indexWeightVector</text>
<text text-anchor="middle" x="105.739" y="-170" font-family="Helvetica,sans-Serif" font-size="10.00">weightVector</text>
<text text-anchor="middle" x="105.739" y="-160" font-family="Helvetica,sans-Serif" font-size="10.00">nameWeightVector</text>
</g>
</g>
</svg>
