<?xml version="1.0" encoding="UTF-8" standalone="no"?>
<!DOCTYPE svg PUBLIC "-//W3C//DTD SVG 1.1//EN"
 "http://www.w3.org/Graphics/SVG/1.1/DTD/svg11.dtd">
<!-- Generated by graphviz version 2.38.0 (20140413.2041)
 -->
<!-- Title: ClientCommunications.h Pages: 1 -->
<svg width="477pt" height="247pt"
 viewBox="0.00 0.00 477.16 247.00" xmlns="http://www.w3.org/2000/svg" xmlns:xlink="http://www.w3.org/1999/xlink">
<g id="graph0" class="graph" transform="scale(1 1) rotate(0) translate(4 243)">
<title>ClientCommunications.h</title>
<polygon fill="white" stroke="none" points="-4,4 -4,-243 473.165,-243 473.165,4 -4,4"/>
<!-- Node23 -->
<g id="node1" class="node"><title>Node23</title>
<polygon fill="#bfbfbf" stroke="black" points="206.505,-220.5 206.505,-238.5 330.884,-238.5 330.884,-220.5 206.505,-220.5"/>
<text text-anchor="middle" x="268.694" y="-226.5" font-family="Helvetica,sans-Serif" font-size="10.00">ClientCommunications.h</text>
</g>
<!-- Node24 -->
<g id="node2" class="node"><title>Node24</title>
<g id="a_node2"><a xlink:href="../../db/d9a/ControllerClient_8h.html" target="_top" xlink:title="ControllerClient.h">
<polygon fill="white" stroke="black" points="117.066,-110.5 117.066,-128.5 210.322,-128.5 210.322,-110.5 117.066,-110.5"/>
<text text-anchor="middle" x="163.694" y="-116.5" font-family="Helvetica,sans-Serif" font-size="10.00">ControllerClient.h</text>
</a>
</g>
</g>
<!-- Node23&#45;&gt;Node24 -->
<g id="edge1" class="edge"><title>Node23&#45;&gt;Node24</title>
<path fill="none" stroke="midnightblue" d="M248.179,-214.498C236.829,-206.272 222.814,-195.295 211.694,-184 194.049,-166.077 177.232,-141.543 168.985,-128.857"/>
<polygon fill="midnightblue" stroke="midnightblue" points="246.42,-217.54 256.604,-220.459 250.462,-211.826 246.42,-217.54"/>
</g>
<!-- Node28 -->
<g id="node6" class="node"><title>Node28</title>
<g id="a_node6"><a xlink:href="../../de/d5d/TaskConnection_8h.html" target="_top" xlink:title="TaskConnection.h">
<polygon fill="white" stroke="black" points="220.948,-165.5 220.948,-183.5 316.44,-183.5 316.44,-165.5 220.948,-165.5"/>
<text text-anchor="middle" x="268.694" y="-171.5" font-family="Helvetica,sans-Serif" font-size="10.00">TaskConnection.h</text>
</a>
</g>
</g>
<!-- Node23&#45;&gt;Node28 -->
<g id="edge5" class="edge"><title>Node23&#45;&gt;Node28</title>
<path fill="none" stroke="midnightblue" d="M268.694,-210.175C268.694,-201.094 268.694,-190.595 268.694,-183.55"/>
<polygon fill="midnightblue" stroke="midnightblue" points="265.194,-210.219 268.694,-220.219 272.194,-210.219 265.194,-210.219"/>
</g>
<!-- Node32 -->
<g id="node10" class="node"><title>Node32</title>
<g id="a_node10"><a xlink:href="../../d3/d45/ClientCommunications_8cpp.html" target="_top" xlink:title="ClientCommunications.cpp">
<polygon fill="white" stroke="black" points="334.224,-165.5 334.224,-183.5 469.165,-183.5 469.165,-165.5 334.224,-165.5"/>
<text text-anchor="middle" x="401.694" y="-171.5" font-family="Helvetica,sans-Serif" font-size="10.00">ClientCommunications.cpp</text>
</a>
</g>
</g>
<!-- Node23&#45;&gt;Node32 -->
<g id="edge10" class="edge"><title>Node23&#45;&gt;Node32</title>
<path fill="none" stroke="midnightblue" d="M298.341,-216.686C323.576,-206.63 359.159,-192.45 381.304,-183.625"/>
<polygon fill="midnightblue" stroke="midnightblue" points="296.888,-213.497 288.894,-220.45 299.479,-220 296.888,-213.497"/>
</g>
<!-- Node25 -->
<g id="node3" class="node"><title>Node25</title>
<g id="a_node3"><a xlink:href="../../d8/d80/ClientManager_8h.html" target="_top" xlink:title="Module class for the controller Client. ">
<polygon fill="white" stroke="black" points="5.28076,-55.5 5.28076,-73.5 94.1079,-73.5 94.1079,-55.5 5.28076,-55.5"/>
<text text-anchor="middle" x="49.6943" y="-61.5" font-family="Helvetica,sans-Serif" font-size="10.00">ClientManager.h</text>
</a>
</g>
</g>
<!-- Node24&#45;&gt;Node25 -->
<g id="edge2" class="edge"><title>Node24&#45;&gt;Node25</title>
<path fill="none" stroke="midnightblue" d="M137.126,-106.148C115.577,-96.1297 85.8176,-82.2941 67.1714,-73.6253"/>
<polygon fill="midnightblue" stroke="midnightblue" points="135.837,-109.408 146.38,-110.45 138.788,-103.061 135.837,-109.408"/>
</g>
<!-- Node27 -->
<g id="node5" class="node"><title>Node27</title>
<g id="a_node5"><a xlink:href="../../d2/d77/ControllerClient_8cpp.html" target="_top" xlink:title="ControllerClient.cpp">
<polygon fill="white" stroke="black" points="111.786,-55.5 111.786,-73.5 215.603,-73.5 215.603,-55.5 111.786,-55.5"/>
<text text-anchor="middle" x="163.694" y="-61.5" font-family="Helvetica,sans-Serif" font-size="10.00">ControllerClient.cpp</text>
</a>
</g>
</g>
<!-- Node24&#45;&gt;Node27 -->
<g id="edge4" class="edge"><title>Node24&#45;&gt;Node27</title>
<path fill="none" stroke="midnightblue" d="M163.694,-100.175C163.694,-91.0945 163.694,-80.5949 163.694,-73.5496"/>
<polygon fill="midnightblue" stroke="midnightblue" points="160.194,-100.219 163.694,-110.219 167.194,-100.219 160.194,-100.219"/>
</g>
<!-- Node26 -->
<g id="node4" class="node"><title>Node26</title>
<g id="a_node4"><a xlink:href="../../d9/d36/ClientManager_8cpp.html" target="_top" xlink:title="ClientManager.cpp">
<polygon fill="white" stroke="black" points="0,-0.5 0,-18.5 99.3887,-18.5 99.3887,-0.5 0,-0.5"/>
<text text-anchor="middle" x="49.6943" y="-6.5" font-family="Helvetica,sans-Serif" font-size="10.00">ClientManager.cpp</text>
</a>
</g>
</g>
<!-- Node25&#45;&gt;Node26 -->
<g id="edge3" class="edge"><title>Node25&#45;&gt;Node26</title>
<path fill="none" stroke="midnightblue" d="M49.6943,-45.1746C49.6943,-36.0945 49.6943,-25.5949 49.6943,-18.5496"/>
<polygon fill="midnightblue" stroke="midnightblue" points="46.1944,-45.2187 49.6943,-55.2188 53.1944,-45.2188 46.1944,-45.2187"/>
</g>
<!-- Node28&#45;&gt;Node24 -->
<g id="edge6" class="edge"><title>Node28&#45;&gt;Node24</title>
<path fill="none" stroke="midnightblue" d="M243.686,-160.877C223.883,-150.881 196.811,-137.216 179.792,-128.625"/>
<polygon fill="midnightblue" stroke="midnightblue" points="242.243,-164.069 252.747,-165.45 245.397,-157.82 242.243,-164.069"/>
</g>
<!-- Node29 -->
<g id="node7" class="node"><title>Node29</title>
<g id="a_node7"><a xlink:href="../../da/d00/TrajectoryThread_8h.html" target="_top" xlink:title="A thread for launching trajectory generators. ">
<polygon fill="white" stroke="black" points="228.639,-110.5 228.639,-128.5 328.75,-128.5 328.75,-110.5 228.639,-110.5"/>
<text text-anchor="middle" x="278.694" y="-116.5" font-family="Helvetica,sans-Serif" font-size="10.00">TrajectoryThread.h</text>
</a>
</g>
</g>
<!-- Node28&#45;&gt;Node29 -->
<g id="edge7" class="edge"><title>Node28&#45;&gt;Node29</title>
<path fill="none" stroke="midnightblue" d="M272.152,-155.175C273.865,-146.094 275.846,-135.595 277.176,-128.55"/>
<polygon fill="midnightblue" stroke="midnightblue" points="268.672,-154.743 270.257,-165.219 275.55,-156.041 268.672,-154.743"/>
</g>
<!-- Node31 -->
<g id="node9" class="node"><title>Node31</title>
<g id="a_node9"><a xlink:href="../../d1/d60/TaskConnection_8cpp.html" target="_top" xlink:title="TaskConnection.cpp">
<polygon fill="white" stroke="black" points="346.667,-110.5 346.667,-128.5 452.721,-128.5 452.721,-110.5 346.667,-110.5"/>
<text text-anchor="middle" x="399.694" y="-116.5" font-family="Helvetica,sans-Serif" font-size="10.00">TaskConnection.cpp</text>
</a>
</g>
</g>
<!-- Node28&#45;&gt;Node31 -->
<g id="edge9" class="edge"><title>Node28&#45;&gt;Node31</title>
<path fill="none" stroke="midnightblue" d="M297.895,-161.686C322.75,-151.63 357.798,-137.45 379.611,-128.625"/>
<polygon fill="midnightblue" stroke="midnightblue" points="296.548,-158.455 288.59,-165.45 299.173,-164.944 296.548,-158.455"/>
</g>
<!-- Node30 -->
<g id="node8" class="node"><title>Node30</title>
<g id="a_node8"><a xlink:href="../../d6/db4/TrajectoryThread_8cpp.html" target="_top" xlink:title="A thread for launching trajectory generators. ">
<polygon fill="white" stroke="black" points="233.358,-55.5 233.358,-73.5 344.031,-73.5 344.031,-55.5 233.358,-55.5"/>
<text text-anchor="middle" x="288.694" y="-61.5" font-family="Helvetica,sans-Serif" font-size="10.00">TrajectoryThread.cpp</text>
</a>
</g>
</g>
<!-- Node29&#45;&gt;Node30 -->
<g id="edge8" class="edge"><title>Node29&#45;&gt;Node30</title>
<path fill="none" stroke="midnightblue" d="M282.152,-100.175C283.865,-91.0945 285.846,-80.5949 287.176,-73.5496"/>
<polygon fill="midnightblue" stroke="midnightblue" points="278.672,-99.7432 280.257,-110.219 285.55,-101.041 278.672,-99.7432"/>
</g>
</g>
</svg>
