<?xml version="1.0" encoding="UTF-8" standalone="no"?>
<!DOCTYPE svg PUBLIC "-//W3C//DTD SVG 1.1//EN"
 "http://www.w3.org/Graphics/SVG/1.1/DTD/svg11.dtd">
<!-- Generated by graphviz version 2.38.0 (20140413.2041)
 -->
<!-- Title: MathTypes.h Pages: 1 -->
<svg width="142pt" height="82pt"
 viewBox="0.00 0.00 142.25 82.00" xmlns="http://www.w3.org/2000/svg" xmlns:xlink="http://www.w3.org/1999/xlink">
<g id="graph0" class="graph" transform="scale(1 1) rotate(0) translate(4 78)">
<title>MathTypes.h</title>
<polygon fill="white" stroke="none" points="-4,4 -4,-78 138.246,-78 138.246,4 -4,4"/>
<!-- Node0 -->
<g id="node1" class="node"><title>Node0</title>
<polygon fill="#bfbfbf" stroke="black" points="38.0024,-55.5 38.0024,-73.5 111.258,-73.5 111.258,-55.5 38.0024,-55.5"/>
<text text-anchor="middle" x="74.6304" y="-61.5" font-family="Helvetica,sans-Serif" font-size="10.00">MathTypes.h</text>
</g>
<!-- Node1 -->
<g id="node2" class="node"><title>Node1</title>
<polygon fill="white" stroke="#bfbfbf" points="0,-0.5 0,-18.5 73.2607,-18.5 73.2607,-0.5 0,-0.5"/>
<text text-anchor="middle" x="36.6304" y="-6.5" font-family="Helvetica,sans-Serif" font-size="10.00">Eigen/Dense</text>
</g>
<!-- Node0&#45;&gt;Node1 -->
<g id="edge1" class="edge"><title>Node0&#45;&gt;Node1</title>
<path fill="none" stroke="midnightblue" d="M68.6929,-55.2188C63.2513,-47.6292 55.0391,-36.1753 48.2883,-26.7597"/>
<polygon fill="midnightblue" stroke="midnightblue" points="51.0731,-24.6371 42.4018,-18.5496 45.3842,-28.716 51.0731,-24.6371"/>
</g>
<!-- Node2 -->
<g id="node3" class="node"><title>Node2</title>
<polygon fill="white" stroke="#bfbfbf" points="91.0146,-0.5 91.0146,-18.5 134.246,-18.5 134.246,-0.5 91.0146,-0.5"/>
<text text-anchor="middle" x="112.63" y="-6.5" font-family="Helvetica,sans-Serif" font-size="10.00">cmath</text>
</g>
<!-- Node0&#45;&gt;Node2 -->
<g id="edge2" class="edge"><title>Node0&#45;&gt;Node2</title>
<path fill="none" stroke="midnightblue" d="M80.5679,-55.2188C86.0095,-47.6292 94.2217,-36.1753 100.972,-26.7597"/>
<polygon fill="midnightblue" stroke="midnightblue" points="103.877,-28.716 106.859,-18.5496 98.1876,-24.6371 103.877,-28.716"/>
</g>
</g>
</svg>
