<?xml version="1.0" encoding="UTF-8" standalone="no"?>
<!DOCTYPE svg PUBLIC "-//W3C//DTD SVG 1.1//EN"
 "http://www.w3.org/Graphics/SVG/1.1/DTD/svg11.dtd">
<!-- Generated by graphviz version 2.38.0 (20140413.2041)
 -->
<!-- Title: SquaredLinearFunction.cpp Pages: 1 -->
<svg width="1581pt" height="452pt"
 viewBox="0.00 0.00 1580.86 452.00" xmlns="http://www.w3.org/2000/svg" xmlns:xlink="http://www.w3.org/1999/xlink">
<g id="graph0" class="graph" transform="scale(1 1) rotate(0) translate(4 448)">
<title>SquaredLinearFunction.cpp</title>
<polygon fill="white" stroke="none" points="-4,4 -4,-448 1576.86,-448 1576.86,4 -4,4"/>
<!-- Node0 -->
<g id="node1" class="node"><title>Node0</title>
<polygon fill="#bfbfbf" stroke="black" points="783.256,-425.5 783.256,-443.5 922.118,-443.5 922.118,-425.5 783.256,-425.5"/>
<text text-anchor="middle" x="852.687" y="-431.5" font-family="Helvetica,sans-Serif" font-size="10.00">SquaredLinearFunction.cpp</text>
</g>
<!-- Node1 -->
<g id="node2" class="node"><title>Node1</title>
<g id="a_node2"><a xlink:href="../../d1/d0e/SquaredLinearFunction_8h.html" target="_top" xlink:title="Declaration file of the SquaredLinearFunction class. ">
<polygon fill="white" stroke="black" points="862.153,-360.5 862.153,-388.5 993.221,-388.5 993.221,-360.5 862.153,-360.5"/>
<text text-anchor="start" x="870.153" y="-376.5" font-family="Helvetica,sans-Serif" font-size="10.00">ocra/optim/SquaredLinear</text>
<text text-anchor="middle" x="927.687" y="-366.5" font-family="Helvetica,sans-Serif" font-size="10.00">Function.h</text>
</a>
</g>
</g>
<!-- Node0&#45;&gt;Node1 -->
<g id="edge1" class="edge"><title>Node0&#45;&gt;Node1</title>
<path fill="none" stroke="midnightblue" d="M863.115,-425.435C873.315,-417.548 889.236,-405.236 902.716,-394.811"/>
<polygon fill="midnightblue" stroke="midnightblue" points="904.952,-397.507 910.721,-388.62 900.669,-391.969 904.952,-397.507"/>
</g>
<!-- Node39 -->
<g id="node40" class="node"><title>Node39</title>
<g id="a_node40"><a xlink:href="../../dc/d6f/DiagonalLinearFunction_8h.html" target="_top" xlink:title="Declaration file of the DiagonalLinearFunction class. ">
<polygon fill="white" stroke="black" points="711.32,-360.5 711.32,-388.5 844.054,-388.5 844.054,-360.5 711.32,-360.5"/>
<text text-anchor="start" x="719.32" y="-376.5" font-family="Helvetica,sans-Serif" font-size="10.00">ocra/optim/DiagonalLinear</text>
<text text-anchor="middle" x="777.687" y="-366.5" font-family="Helvetica,sans-Serif" font-size="10.00">Function.h</text>
</a>
</g>
</g>
<!-- Node0&#45;&gt;Node39 -->
<g id="edge60" class="edge"><title>Node0&#45;&gt;Node39</title>
<path fill="none" stroke="midnightblue" d="M842.259,-425.435C832.059,-417.548 816.138,-405.236 802.658,-394.811"/>
<polygon fill="midnightblue" stroke="midnightblue" points="804.705,-391.969 794.653,-388.62 800.422,-397.507 804.705,-391.969"/>
</g>
<!-- Node2 -->
<g id="node3" class="node"><title>Node2</title>
<g id="a_node3"><a xlink:href="../../dc/d8a/LinearFunction_8h.html" target="_top" xlink:title="Declaration file of the LinearFunction class. ">
<polygon fill="white" stroke="black" points="725.709,-305.5 725.709,-323.5 865.665,-323.5 865.665,-305.5 725.709,-305.5"/>
<text text-anchor="middle" x="795.687" y="-311.5" font-family="Helvetica,sans-Serif" font-size="10.00">ocra/optim/LinearFunction.h</text>
</a>
</g>
</g>
<!-- Node1&#45;&gt;Node2 -->
<g id="edge2" class="edge"><title>Node1&#45;&gt;Node2</title>
<path fill="none" stroke="midnightblue" d="M898.064,-360.484C875.784,-350.694 845.461,-337.371 823.607,-327.768"/>
<polygon fill="midnightblue" stroke="midnightblue" points="824.783,-324.462 814.22,-323.643 821.968,-330.871 824.783,-324.462"/>
</g>
<!-- Node37 -->
<g id="node38" class="node"><title>Node37</title>
<g id="a_node38"><a xlink:href="../../d4/d83/QuadraticFunction_8h.html" target="_top" xlink:title="Declaration file of the QuadraticFunction class. ">
<polygon fill="white" stroke="black" points="953.931,-305.5 953.931,-323.5 1109.44,-323.5 1109.44,-305.5 953.931,-305.5"/>
<text text-anchor="middle" x="1031.69" y="-311.5" font-family="Helvetica,sans-Serif" font-size="10.00">ocra/optim/QuadraticFunction.h</text>
</a>
</g>
</g>
<!-- Node1&#45;&gt;Node37 -->
<g id="edge55" class="edge"><title>Node1&#45;&gt;Node37</title>
<path fill="none" stroke="midnightblue" d="M951.027,-360.484C968.106,-350.959 991.184,-338.088 1008.28,-328.554"/>
<polygon fill="midnightblue" stroke="midnightblue" points="1010.06,-331.571 1017.09,-323.643 1006.65,-325.457 1010.06,-331.571"/>
</g>
<!-- Node38 -->
<g id="node39" class="node"><title>Node38</title>
<polygon fill="white" stroke="#bfbfbf" points="883.906,-305.5 883.906,-323.5 935.468,-323.5 935.468,-305.5 883.906,-305.5"/>
<text text-anchor="middle" x="909.687" y="-311.5" font-family="Helvetica,sans-Serif" font-size="10.00">sstream</text>
</g>
<!-- Node1&#45;&gt;Node38 -->
<g id="edge59" class="edge"><title>Node1&#45;&gt;Node38</title>
<path fill="none" stroke="midnightblue" d="M923.603,-360.339C921.125,-352.355 917.93,-342.061 915.227,-333.35"/>
<polygon fill="midnightblue" stroke="midnightblue" points="918.561,-332.285 912.254,-323.771 911.875,-334.36 918.561,-332.285"/>
</g>
<!-- Node3 -->
<g id="node4" class="node"><title>Node3</title>
<g id="a_node4"><a xlink:href="../../df/df5/Function_8h.html" target="_top" xlink:title="Declaration file of the Function class. ">
<polygon fill="white" stroke="black" points="918.608,-250.5 918.608,-268.5 1030.77,-268.5 1030.77,-250.5 918.608,-250.5"/>
<text text-anchor="middle" x="974.687" y="-256.5" font-family="Helvetica,sans-Serif" font-size="10.00">ocra/optim/Function.h</text>
</a>
</g>
</g>
<!-- Node2&#45;&gt;Node3 -->
<g id="edge3" class="edge"><title>Node2&#45;&gt;Node3</title>
<path fill="none" stroke="midnightblue" d="M822.873,-305.45C853.584,-296.357 903.726,-281.511 937.915,-271.388"/>
<polygon fill="midnightblue" stroke="midnightblue" points="938.944,-274.733 947.539,-268.538 936.957,-268.021 938.944,-274.733"/>
</g>
<!-- Node35 -->
<g id="node36" class="node"><title>Node35</title>
<g id="a_node36"><a xlink:href="../../df/d0a/Macros_8h.html" target="_top" xlink:title="ocra/util/Macros.h">
<polygon fill="white" stroke="black" points="748.229,-250.5 748.229,-268.5 843.145,-268.5 843.145,-250.5 748.229,-250.5"/>
<text text-anchor="middle" x="795.687" y="-256.5" font-family="Helvetica,sans-Serif" font-size="10.00">ocra/util/Macros.h</text>
</a>
</g>
</g>
<!-- Node2&#45;&gt;Node35 -->
<g id="edge53" class="edge"><title>Node2&#45;&gt;Node35</title>
<path fill="none" stroke="midnightblue" d="M795.687,-305.219C795.687,-298.177 795.687,-287.808 795.687,-278.828"/>
<polygon fill="midnightblue" stroke="midnightblue" points="799.187,-278.55 795.687,-268.55 792.187,-278.55 799.187,-278.55"/>
</g>
<!-- Node4 -->
<g id="node5" class="node"><title>Node4</title>
<g id="a_node5"><a xlink:href="../../de/d94/IFunction_8h.html" target="_top" xlink:title="Declaration file of the IFunction interface. ">
<polygon fill="white" stroke="black" points="1250.22,-130.5 1250.22,-148.5 1365.15,-148.5 1365.15,-130.5 1250.22,-130.5"/>
<text text-anchor="middle" x="1307.69" y="-136.5" font-family="Helvetica,sans-Serif" font-size="10.00">ocra/optim/IFunction.h</text>
</a>
</g>
</g>
<!-- Node3&#45;&gt;Node4 -->
<g id="edge4" class="edge"><title>Node3&#45;&gt;Node4</title>
<path fill="none" stroke="midnightblue" d="M1030.77,-256.212C1134,-251.422 1345.65,-238.678 1367.69,-214 1376.27,-204.387 1373.48,-196.513 1367.69,-185 1360.86,-171.43 1347.71,-160.962 1335.47,-153.597"/>
<polygon fill="midnightblue" stroke="midnightblue" points="1336.84,-150.356 1326.39,-148.571 1333.45,-156.479 1336.84,-150.356"/>
</g>
<!-- Node13 -->
<g id="node14" class="node"><title>Node13</title>
<g id="a_node14"><a xlink:href="../../d9/d54/IFunctionProperties_8h.html" target="_top" xlink:title="ocra/optim/IFunctionProperties.h">
<polygon fill="white" stroke="black" points="1064.43,-190.5 1064.43,-208.5 1224.94,-208.5 1224.94,-190.5 1064.43,-190.5"/>
<text text-anchor="middle" x="1144.69" y="-196.5" font-family="Helvetica,sans-Serif" font-size="10.00">ocra/optim/IFunctionProperties.h</text>
</a>
</g>
</g>
<!-- Node3&#45;&gt;Node13 -->
<g id="edge13" class="edge"><title>Node3&#45;&gt;Node13</title>
<path fill="none" stroke="midnightblue" d="M998.325,-250.435C1027.68,-240.421 1077.93,-223.276 1111.23,-211.915"/>
<polygon fill="midnightblue" stroke="midnightblue" points="1112.64,-215.131 1120.98,-208.589 1110.38,-208.506 1112.64,-215.131"/>
</g>
<!-- Node15 -->
<g id="node16" class="node"><title>Node15</title>
<g id="a_node16"><a xlink:href="../../db/d47/AbilitySet_8h.html" target="_top" xlink:title="ocra/optim/AbilitySet.h">
<polygon fill="white" stroke="black" points="1242.94,-190.5 1242.94,-208.5 1358.43,-208.5 1358.43,-190.5 1242.94,-190.5"/>
<text text-anchor="middle" x="1300.69" y="-196.5" font-family="Helvetica,sans-Serif" font-size="10.00">ocra/optim/AbilitySet.h</text>
</a>
</g>
</g>
<!-- Node3&#45;&gt;Node15 -->
<g id="edge16" class="edge"><title>Node3&#45;&gt;Node15</title>
<path fill="none" stroke="midnightblue" d="M1023.93,-250.471C1076.09,-241.865 1160.81,-227.601 1233.69,-214 1239.52,-212.912 1245.62,-211.735 1251.67,-210.544"/>
<polygon fill="midnightblue" stroke="midnightblue" points="1252.63,-213.924 1261.75,-208.541 1251.26,-207.058 1252.63,-213.924"/>
</g>
<!-- Node16 -->
<g id="node17" class="node"><title>Node16</title>
<g id="a_node17"><a xlink:href="../../d1/d87/CoupledInputOutputSize_8h.html" target="_top" xlink:title="ocra/optim/CoupledInputOutput\lSize.h">
<polygon fill="white" stroke="black" points="602.2,-185.5 602.2,-213.5 757.174,-213.5 757.174,-185.5 602.2,-185.5"/>
<text text-anchor="start" x="610.2" y="-201.5" font-family="Helvetica,sans-Serif" font-size="10.00">ocra/optim/CoupledInputOutput</text>
<text text-anchor="middle" x="679.687" y="-191.5" font-family="Helvetica,sans-Serif" font-size="10.00">Size.h</text>
</a>
</g>
</g>
<!-- Node3&#45;&gt;Node16 -->
<g id="edge19" class="edge"><title>Node3&#45;&gt;Node16</title>
<path fill="none" stroke="midnightblue" d="M933.978,-250.496C888.203,-241.496 812.85,-226.681 756.028,-215.509"/>
<polygon fill="midnightblue" stroke="midnightblue" points="756.491,-212.033 746.003,-213.538 755.14,-218.902 756.491,-212.033"/>
</g>
<!-- Node17 -->
<g id="node18" class="node"><title>Node17</title>
<g id="a_node18"><a xlink:href="../../d7/d90/Variable_8h.html" target="_top" xlink:title="Declaration file of the Variable class. ">
<polygon fill="white" stroke="black" points="774.81,-190.5 774.81,-208.5 884.564,-208.5 884.564,-190.5 774.81,-190.5"/>
<text text-anchor="middle" x="829.687" y="-196.5" font-family="Helvetica,sans-Serif" font-size="10.00">ocra/optim/Variable.h</text>
</a>
</g>
</g>
<!-- Node3&#45;&gt;Node17 -->
<g id="edge20" class="edge"><title>Node3&#45;&gt;Node17</title>
<path fill="none" stroke="midnightblue" d="M954.525,-250.435C929.884,-240.579 887.969,-223.813 859.574,-212.455"/>
<polygon fill="midnightblue" stroke="midnightblue" points="860.73,-209.147 850.145,-208.683 858.13,-215.647 860.73,-209.147"/>
</g>
<!-- Node18 -->
<g id="node19" class="node"><title>Node18</title>
<g id="a_node19"><a xlink:href="../../d8/ddc/ObserverSubject_8h.html" target="_top" xlink:title="Declaration file of the Observer, Subject and ObserverSubject classes. ">
<polygon fill="white" stroke="black" points="403.547,-130.5 403.547,-148.5 551.827,-148.5 551.827,-130.5 403.547,-130.5"/>
<text text-anchor="middle" x="477.687" y="-136.5" font-family="Helvetica,sans-Serif" font-size="10.00">ocra/optim/ObserverSubject.h</text>
</a>
</g>
</g>
<!-- Node3&#45;&gt;Node18 -->
<g id="edge50" class="edge"><title>Node3&#45;&gt;Node18</title>
<path fill="none" stroke="midnightblue" d="M918.4,-253.585C819.711,-244.723 623.093,-225.884 593.687,-214 573.99,-206.039 573.397,-196.734 555.687,-185 538.359,-173.519 517.923,-161.926 502.317,-153.453"/>
<polygon fill="midnightblue" stroke="midnightblue" points="503.761,-150.255 493.295,-148.608 500.449,-156.423 503.761,-150.255"/>
</g>
<!-- Node34 -->
<g id="node35" class="node"><title>Node34</title>
<g id="a_node35"><a xlink:href="../../df/d97/NamedInstance_8h.html" target="_top" xlink:title="ocra/optim/NamedInstance.h">
<polygon fill="white" stroke="black" points="902.766,-190.5 902.766,-208.5 1046.61,-208.5 1046.61,-190.5 902.766,-190.5"/>
<text text-anchor="middle" x="974.687" y="-196.5" font-family="Helvetica,sans-Serif" font-size="10.00">ocra/optim/NamedInstance.h</text>
</a>
</g>
</g>
<!-- Node3&#45;&gt;Node34 -->
<g id="edge51" class="edge"><title>Node3&#45;&gt;Node34</title>
<path fill="none" stroke="midnightblue" d="M974.687,-250.435C974.687,-242.389 974.687,-229.739 974.687,-219.185"/>
<polygon fill="midnightblue" stroke="midnightblue" points="978.187,-218.872 974.687,-208.872 971.187,-218.872 978.187,-218.872"/>
</g>
<!-- Node5 -->
<g id="node6" class="node"><title>Node5</title>
<g id="a_node6"><a xlink:href="../../d5/d55/MathTypes_8h.html" target="_top" xlink:title="Declaration file of the OptimizationVariable class. ">
<polygon fill="white" stroke="black" points="1389.16,-70.5 1389.16,-88.5 1500.21,-88.5 1500.21,-70.5 1389.16,-70.5"/>
<text text-anchor="middle" x="1444.69" y="-76.5" font-family="Helvetica,sans-Serif" font-size="10.00">ocra/util/MathTypes.h</text>
</a>
</g>
</g>
<!-- Node4&#45;&gt;Node5 -->
<g id="edge5" class="edge"><title>Node4&#45;&gt;Node5</title>
<path fill="none" stroke="midnightblue" d="M1326.74,-130.435C1349.92,-120.622 1389.27,-103.959 1416.1,-92.604"/>
<polygon fill="midnightblue" stroke="midnightblue" points="1417.51,-95.8049 1425.36,-88.6831 1414.78,-89.3587 1417.51,-95.8049"/>
</g>
<!-- Node8 -->
<g id="node9" class="node"><title>Node8</title>
<g id="a_node9"><a xlink:href="../../de/df3/ocra__assert_8h.html" target="_top" xlink:title="ocra/optim/ocra_assert.h">
<polygon fill="white" stroke="black" points="1244.66,-70.5 1244.66,-88.5 1370.71,-88.5 1370.71,-70.5 1244.66,-70.5"/>
<text text-anchor="middle" x="1307.69" y="-76.5" font-family="Helvetica,sans-Serif" font-size="10.00">ocra/optim/ocra_assert.h</text>
</a>
</g>
</g>
<!-- Node4&#45;&gt;Node8 -->
<g id="edge8" class="edge"><title>Node4&#45;&gt;Node8</title>
<path fill="none" stroke="midnightblue" d="M1307.69,-130.435C1307.69,-122.389 1307.69,-109.739 1307.69,-99.1846"/>
<polygon fill="midnightblue" stroke="midnightblue" points="1311.19,-98.8717 1307.69,-88.8718 1304.19,-98.8718 1311.19,-98.8717"/>
</g>
<!-- Node10 -->
<g id="node11" class="node"><title>Node10</title>
<polygon fill="white" stroke="#bfbfbf" points="1518.51,-70.5 1518.51,-88.5 1572.86,-88.5 1572.86,-70.5 1518.51,-70.5"/>
<text text-anchor="middle" x="1545.69" y="-76.5" font-family="Helvetica,sans-Serif" font-size="10.00">iostream</text>
</g>
<!-- Node4&#45;&gt;Node10 -->
<g id="edge10" class="edge"><title>Node4&#45;&gt;Node10</title>
<path fill="none" stroke="midnightblue" d="M1352.68,-130.488C1393.93,-122.696 1456.49,-109.748 1509.69,-94 1511.82,-93.3688 1514.01,-92.6733 1516.2,-91.9409"/>
<polygon fill="midnightblue" stroke="midnightblue" points="1517.42,-95.2206 1525.68,-88.5788 1515.08,-88.6234 1517.42,-95.2206"/>
</g>
<!-- Node11 -->
<g id="node12" class="node"><title>Node11</title>
<polygon fill="white" stroke="#bfbfbf" points="1183.07,-70.5 1183.07,-88.5 1226.3,-88.5 1226.3,-70.5 1183.07,-70.5"/>
<text text-anchor="middle" x="1204.69" y="-76.5" font-family="Helvetica,sans-Serif" font-size="10.00">vector</text>
</g>
<!-- Node4&#45;&gt;Node11 -->
<g id="edge11" class="edge"><title>Node4&#45;&gt;Node11</title>
<path fill="none" stroke="midnightblue" d="M1293.37,-130.435C1276.47,-120.923 1248.15,-104.976 1228.07,-93.6645"/>
<polygon fill="midnightblue" stroke="midnightblue" points="1229.65,-90.5401 1219.22,-88.6831 1226.22,-96.6395 1229.65,-90.5401"/>
</g>
<!-- Node12 -->
<g id="node13" class="node"><title>Node12</title>
<polygon fill="white" stroke="#bfbfbf" points="1106.29,-70.5 1106.29,-88.5 1165.09,-88.5 1165.09,-70.5 1106.29,-70.5"/>
<text text-anchor="middle" x="1135.69" y="-76.5" font-family="Helvetica,sans-Serif" font-size="10.00">stdexcept</text>
</g>
<!-- Node4&#45;&gt;Node12 -->
<g id="edge12" class="edge"><title>Node4&#45;&gt;Node12</title>
<path fill="none" stroke="midnightblue" d="M1282.94,-130.451C1256.01,-121.653 1211.71,-107.065 1173.69,-94 1171.8,-93.3516 1169.86,-92.6802 1167.91,-91.999"/>
<polygon fill="midnightblue" stroke="midnightblue" points="1168.76,-88.5884 1158.16,-88.5723 1166.44,-95.1919 1168.76,-88.5884"/>
</g>
<!-- Node6 -->
<g id="node7" class="node"><title>Node6</title>
<polygon fill="white" stroke="#bfbfbf" points="1377.06,-5.5 1377.06,-23.5 1450.32,-23.5 1450.32,-5.5 1377.06,-5.5"/>
<text text-anchor="middle" x="1413.69" y="-11.5" font-family="Helvetica,sans-Serif" font-size="10.00">Eigen/Dense</text>
</g>
<!-- Node5&#45;&gt;Node6 -->
<g id="edge6" class="edge"><title>Node5&#45;&gt;Node6</title>
<path fill="none" stroke="midnightblue" d="M1440.63,-70.2639C1435.97,-60.779 1428.17,-44.9361 1422.16,-32.724"/>
<polygon fill="midnightblue" stroke="midnightblue" points="1425.2,-30.9663 1417.64,-23.539 1418.92,-34.0569 1425.2,-30.9663"/>
</g>
<!-- Node7 -->
<g id="node8" class="node"><title>Node7</title>
<polygon fill="white" stroke="#bfbfbf" points="1468.07,-5.5 1468.07,-23.5 1511.3,-23.5 1511.3,-5.5 1468.07,-5.5"/>
<text text-anchor="middle" x="1489.69" y="-11.5" font-family="Helvetica,sans-Serif" font-size="10.00">cmath</text>
</g>
<!-- Node5&#45;&gt;Node7 -->
<g id="edge7" class="edge"><title>Node5&#45;&gt;Node7</title>
<path fill="none" stroke="midnightblue" d="M1450.57,-70.2639C1457.48,-60.5893 1469.12,-44.2999 1477.9,-31.9957"/>
<polygon fill="midnightblue" stroke="midnightblue" points="1480.98,-33.7107 1483.94,-23.539 1475.28,-29.642 1480.98,-33.7107"/>
</g>
<!-- Node9 -->
<g id="node10" class="node"><title>Node9</title>
<polygon fill="white" stroke="#bfbfbf" points="1286.63,-5.5 1286.63,-23.5 1328.75,-23.5 1328.75,-5.5 1286.63,-5.5"/>
<text text-anchor="middle" x="1307.69" y="-11.5" font-family="Helvetica,sans-Serif" font-size="10.00">cstdio</text>
</g>
<!-- Node8&#45;&gt;Node9 -->
<g id="edge9" class="edge"><title>Node8&#45;&gt;Node9</title>
<path fill="none" stroke="midnightblue" d="M1307.69,-70.2639C1307.69,-61.0635 1307.69,-45.881 1307.69,-33.8326"/>
<polygon fill="midnightblue" stroke="midnightblue" points="1311.19,-33.5389 1307.69,-23.539 1304.19,-33.539 1311.19,-33.5389"/>
</g>
<!-- Node13&#45;&gt;Node11 -->
<g id="edge15" class="edge"><title>Node13&#45;&gt;Node11</title>
<path fill="none" stroke="midnightblue" d="M1148.81,-190.389C1158.49,-171.359 1182.82,-123.502 1195.96,-97.6709"/>
<polygon fill="midnightblue" stroke="midnightblue" points="1199.12,-99.1676 1200.53,-88.6674 1192.88,-95.9949 1199.12,-99.1676"/>
</g>
<!-- Node14 -->
<g id="node15" class="node"><title>Node14</title>
<polygon fill="white" stroke="#bfbfbf" points="1065.46,-130.5 1065.46,-148.5 1105.91,-148.5 1105.91,-130.5 1065.46,-130.5"/>
<text text-anchor="middle" x="1085.69" y="-136.5" font-family="Helvetica,sans-Serif" font-size="10.00">string</text>
</g>
<!-- Node13&#45;&gt;Node14 -->
<g id="edge14" class="edge"><title>Node13&#45;&gt;Node14</title>
<path fill="none" stroke="midnightblue" d="M1136.48,-190.435C1127.43,-181.533 1112.64,-166.995 1101.35,-155.895"/>
<polygon fill="midnightblue" stroke="midnightblue" points="1103.79,-153.386 1094.2,-148.872 1098.88,-158.378 1103.79,-153.386"/>
</g>
<!-- Node15&#45;&gt;Node4 -->
<g id="edge17" class="edge"><title>Node15&#45;&gt;Node4</title>
<path fill="none" stroke="midnightblue" d="M1301.66,-190.435C1302.64,-182.304 1304.19,-169.469 1305.47,-158.848"/>
<polygon fill="midnightblue" stroke="midnightblue" points="1308.95,-159.219 1306.68,-148.872 1302,-158.38 1308.95,-159.219"/>
</g>
<!-- Node15&#45;&gt;Node11 -->
<g id="edge18" class="edge"><title>Node15&#45;&gt;Node11</title>
<path fill="none" stroke="midnightblue" d="M1288.2,-190.17C1275.37,-181.151 1255.37,-165.788 1241.69,-149 1228.9,-133.32 1218.42,-112.56 1211.92,-98.0201"/>
<polygon fill="midnightblue" stroke="midnightblue" points="1215.07,-96.4992 1207.91,-88.6933 1208.64,-99.2628 1215.07,-96.4992"/>
</g>
<!-- Node17&#45;&gt;Node11 -->
<g id="edge49" class="edge"><title>Node17&#45;&gt;Node11</title>
<path fill="none" stroke="midnightblue" d="M848.303,-190.387C869.656,-180.948 905.596,-164.652 935.687,-149 950.701,-141.19 952.778,-135.773 968.687,-130 1055.64,-98.4435 1085.1,-120.654 1173.69,-94 1175.35,-93.5 1177.04,-92.9354 1178.73,-92.3279"/>
<polygon fill="midnightblue" stroke="midnightblue" points="1180.24,-95.4932 1188.23,-88.5287 1177.64,-88.9941 1180.24,-95.4932"/>
</g>
<!-- Node17&#45;&gt;Node14 -->
<g id="edge48" class="edge"><title>Node17&#45;&gt;Node14</title>
<path fill="none" stroke="midnightblue" d="M867.246,-190.461C921.089,-178.917 1017.21,-158.225 1055.27,-149.142"/>
<polygon fill="midnightblue" stroke="midnightblue" points="1056.59,-152.422 1065.46,-146.627 1054.91,-145.626 1056.59,-152.422"/>
</g>
<!-- Node17&#45;&gt;Node18 -->
<g id="edge21" class="edge"><title>Node17&#45;&gt;Node18</title>
<path fill="none" stroke="midnightblue" d="M793.203,-190.445C784.225,-188.562 774.624,-186.632 765.687,-185 690.799,-171.327 604.451,-158.354 545.985,-149.981"/>
<polygon fill="midnightblue" stroke="midnightblue" points="546.158,-146.471 535.764,-148.524 545.17,-153.4 546.158,-146.471"/>
</g>
<!-- Node29 -->
<g id="node30" class="node"><title>Node29</title>
<g id="a_node30"><a xlink:href="../../d1/de6/Composite_8h.html" target="_top" xlink:title="Utility classes and functions to implement the Composite design pattern. ">
<polygon fill="white" stroke="black" points="761.887,-130.5 761.887,-148.5 883.487,-148.5 883.487,-130.5 761.887,-130.5"/>
<text text-anchor="middle" x="822.687" y="-136.5" font-family="Helvetica,sans-Serif" font-size="10.00">ocra/optim/Composite.h</text>
</a>
</g>
</g>
<!-- Node17&#45;&gt;Node29 -->
<g id="edge35" class="edge"><title>Node17&#45;&gt;Node29</title>
<path fill="none" stroke="midnightblue" d="M828.714,-190.435C827.732,-182.304 826.183,-169.469 824.901,-158.848"/>
<polygon fill="midnightblue" stroke="midnightblue" points="828.37,-158.38 823.697,-148.872 821.421,-159.219 828.37,-158.38"/>
</g>
<!-- Node30 -->
<g id="node31" class="node"><title>Node30</title>
<polygon fill="white" stroke="#bfbfbf" points="968.978,-70.5 968.978,-88.5 1088.4,-88.5 1088.4,-70.5 968.978,-70.5"/>
<text text-anchor="middle" x="1028.69" y="-76.5" font-family="Helvetica,sans-Serif" font-size="10.00">boost/noncopyable.hpp</text>
</g>
<!-- Node17&#45;&gt;Node30 -->
<g id="edge47" class="edge"><title>Node17&#45;&gt;Node30</title>
<path fill="none" stroke="midnightblue" d="M841.561,-190.356C860.947,-177.167 900.742,-150.542 935.687,-130 958.245,-116.74 984.634,-102.841 1003.53,-93.1592"/>
<polygon fill="midnightblue" stroke="midnightblue" points="1005.34,-96.1631 1012.66,-88.5061 1002.17,-89.9254 1005.34,-96.1631"/>
</g>
<!-- Node33 -->
<g id="node34" class="node"><title>Node33</title>
<polygon fill="white" stroke="#bfbfbf" points="977.722,-130.5 977.722,-148.5 1047.65,-148.5 1047.65,-130.5 977.722,-130.5"/>
<text text-anchor="middle" x="1012.69" y="-136.5" font-family="Helvetica,sans-Serif" font-size="10.00">Eigen/Eigen</text>
</g>
<!-- Node17&#45;&gt;Node33 -->
<g id="edge46" class="edge"><title>Node17&#45;&gt;Node33</title>
<path fill="none" stroke="midnightblue" d="M855.132,-190.435C887.001,-180.335 941.759,-162.98 977.593,-151.623"/>
<polygon fill="midnightblue" stroke="midnightblue" points="978.688,-154.947 987.163,-148.589 976.573,-148.274 978.688,-154.947"/>
</g>
<!-- Node19 -->
<g id="node20" class="node"><title>Node19</title>
<g id="a_node20"><a xlink:href="../../df/d67/ObserverSubjectBase_8h.html" target="_top" xlink:title="Declaration file of the Observer and Subject base classes. ">
<polygon fill="white" stroke="black" points="144.717,-65.5 144.717,-93.5 284.657,-93.5 284.657,-65.5 144.717,-65.5"/>
<text text-anchor="start" x="152.717" y="-81.5" font-family="Helvetica,sans-Serif" font-size="10.00">ocra/optim/ObserverSubject</text>
<text text-anchor="middle" x="214.687" y="-71.5" font-family="Helvetica,sans-Serif" font-size="10.00">Base.h</text>
</a>
</g>
</g>
<!-- Node18&#45;&gt;Node19 -->
<g id="edge22" class="edge"><title>Node18&#45;&gt;Node19</title>
<path fill="none" stroke="midnightblue" d="M441.394,-130.496C400.837,-121.552 334.239,-106.865 283.693,-95.718"/>
<polygon fill="midnightblue" stroke="midnightblue" points="284.329,-92.2743 273.81,-93.5385 282.821,-99.11 284.329,-92.2743"/>
</g>
<!-- Node23 -->
<g id="node24" class="node"><title>Node23</title>
<polygon fill="white" stroke="#bfbfbf" points="0,-0.5 0,-28.5 99.374,-28.5 99.374,-0.5 0,-0.5"/>
<text text-anchor="start" x="8" y="-16.5" font-family="Helvetica,sans-Serif" font-size="10.00">boost/type_traits/is</text>
<text text-anchor="middle" x="49.687" y="-6.5" font-family="Helvetica,sans-Serif" font-size="10.00">_class.hpp</text>
</g>
<!-- Node18&#45;&gt;Node23 -->
<g id="edge34" class="edge"><title>Node18&#45;&gt;Node23</title>
<path fill="none" stroke="midnightblue" d="M403.459,-134.063C317.517,-128.022 181.85,-115.429 135.687,-94 107.384,-80.8612 81.9455,-55.0268 66.2073,-36.5837"/>
<polygon fill="midnightblue" stroke="midnightblue" points="68.756,-34.1737 59.6834,-28.7021 63.3637,-38.6372 68.756,-34.1737"/>
</g>
<!-- Node24 -->
<g id="node25" class="node"><title>Node24</title>
<polygon fill="white" stroke="#bfbfbf" points="409,-0.5 409,-28.5 508.374,-28.5 508.374,-0.5 409,-0.5"/>
<text text-anchor="start" x="417" y="-16.5" font-family="Helvetica,sans-Serif" font-size="10.00">boost/type_traits/is</text>
<text text-anchor="middle" x="458.687" y="-6.5" font-family="Helvetica,sans-Serif" font-size="10.00">_base_of.hpp</text>
</g>
<!-- Node18&#45;&gt;Node24 -->
<g id="edge32" class="edge"><title>Node18&#45;&gt;Node24</title>
<path fill="none" stroke="midnightblue" d="M476.44,-130.43C473.612,-112.123 466.622,-66.8717 462.305,-38.9218"/>
<polygon fill="midnightblue" stroke="midnightblue" points="465.729,-38.1577 460.743,-28.8093 458.811,-39.2264 465.729,-38.1577"/>
</g>
<!-- Node25 -->
<g id="node26" class="node"><title>Node25</title>
<polygon fill="white" stroke="#bfbfbf" points="526.269,-5.5 526.269,-23.5 645.105,-23.5 645.105,-5.5 526.269,-5.5"/>
<text text-anchor="middle" x="585.687" y="-11.5" font-family="Helvetica,sans-Serif" font-size="10.00">boost/static_assert.hpp</text>
</g>
<!-- Node18&#45;&gt;Node25 -->
<g id="edge31" class="edge"><title>Node18&#45;&gt;Node25</title>
<path fill="none" stroke="midnightblue" d="M480.389,-130.468C485.515,-116.102 497.768,-85.5871 515.687,-65 528.513,-50.2645 546.587,-37.6272 561.157,-28.81"/>
<polygon fill="midnightblue" stroke="midnightblue" points="563.253,-31.6396 570.135,-23.5838 559.732,-25.5899 563.253,-31.6396"/>
</g>
<!-- Node27 -->
<g id="node28" class="node"><title>Node27</title>
<g id="a_node28"><a xlink:href="../../db/ddf/ocra__events_8h.html" target="_top" xlink:title="ocra/optim/ocra_events.h">
<polygon fill="white" stroke="black" points="302.547,-70.5 302.547,-88.5 430.827,-88.5 430.827,-70.5 302.547,-70.5"/>
<text text-anchor="middle" x="366.687" y="-76.5" font-family="Helvetica,sans-Serif" font-size="10.00">ocra/optim/ocra_events.h</text>
</a>
</g>
</g>
<!-- Node18&#45;&gt;Node27 -->
<g id="edge30" class="edge"><title>Node18&#45;&gt;Node27</title>
<path fill="none" stroke="midnightblue" d="M462.253,-130.435C443.884,-120.837 412.976,-104.687 391.296,-93.3586"/>
<polygon fill="midnightblue" stroke="midnightblue" points="392.832,-90.2123 382.348,-88.6831 389.59,-96.4164 392.832,-90.2123"/>
</g>
<!-- Node28 -->
<g id="node29" class="node"><title>Node28</title>
<polygon fill="white" stroke="#bfbfbf" points="525,-65.5 525,-93.5 624.374,-93.5 624.374,-65.5 525,-65.5"/>
<text text-anchor="start" x="533" y="-81.5" font-family="Helvetica,sans-Serif" font-size="10.00">boost/type_traits/is</text>
<text text-anchor="middle" x="574.687" y="-71.5" font-family="Helvetica,sans-Serif" font-size="10.00">_convertible.hpp</text>
</g>
<!-- Node18&#45;&gt;Node28 -->
<g id="edge33" class="edge"><title>Node18&#45;&gt;Node28</title>
<path fill="none" stroke="midnightblue" d="M491.174,-130.435C504.739,-122.324 526.128,-109.535 543.864,-98.9304"/>
<polygon fill="midnightblue" stroke="midnightblue" points="545.958,-101.756 552.744,-93.6203 542.365,-95.7484 545.958,-101.756"/>
</g>
<!-- Node20 -->
<g id="node21" class="node"><title>Node20</title>
<polygon fill="white" stroke="#bfbfbf" points="236.283,-5.5 236.283,-23.5 295.091,-23.5 295.091,-5.5 236.283,-5.5"/>
<text text-anchor="middle" x="265.687" y="-11.5" font-family="Helvetica,sans-Serif" font-size="10.00">functional</text>
</g>
<!-- Node19&#45;&gt;Node20 -->
<g id="edge23" class="edge"><title>Node19&#45;&gt;Node20</title>
<path fill="none" stroke="midnightblue" d="M225.254,-65.4464C233.187,-55.6477 244.095,-42.1721 252.583,-31.6874"/>
<polygon fill="midnightblue" stroke="midnightblue" points="255.453,-33.7048 259.025,-23.7301 250.012,-29.3004 255.453,-33.7048"/>
</g>
<!-- Node21 -->
<g id="node22" class="node"><title>Node21</title>
<polygon fill="white" stroke="#bfbfbf" points="681.123,-5.5 681.123,-23.5 738.251,-23.5 738.251,-5.5 681.123,-5.5"/>
<text text-anchor="middle" x="709.687" y="-11.5" font-family="Helvetica,sans-Serif" font-size="10.00">algorithm</text>
</g>
<!-- Node19&#45;&gt;Node21 -->
<g id="edge24" class="edge"><title>Node19&#45;&gt;Node21</title>
<path fill="none" stroke="midnightblue" d="M284.859,-66.2479C287.839,-65.81 290.791,-65.3917 293.687,-65 453.034,-43.4442 495.156,-55.9051 653.687,-29 659.295,-28.0483 665.175,-26.8531 670.929,-25.5696"/>
<polygon fill="midnightblue" stroke="midnightblue" points="672.127,-28.884 681.066,-23.1975 670.532,-22.0682 672.127,-28.884"/>
</g>
<!-- Node22 -->
<g id="node23" class="node"><title>Node22</title>
<polygon fill="white" stroke="#bfbfbf" points="312.642,-5.5 312.642,-23.5 390.732,-23.5 390.732,-5.5 312.642,-5.5"/>
<text text-anchor="middle" x="351.687" y="-11.5" font-family="Helvetica,sans-Serif" font-size="10.00">boost/any.hpp</text>
</g>
<!-- Node19&#45;&gt;Node22 -->
<g id="edge25" class="edge"><title>Node19&#45;&gt;Node22</title>
<path fill="none" stroke="midnightblue" d="M243.074,-65.4464C267.076,-54.4087 301.224,-38.7057 324.793,-27.8674"/>
<polygon fill="midnightblue" stroke="midnightblue" points="326.563,-30.9059 334.186,-23.548 323.638,-24.5461 326.563,-30.9059"/>
</g>
<!-- Node19&#45;&gt;Node23 -->
<g id="edge26" class="edge"><title>Node19&#45;&gt;Node23</title>
<path fill="none" stroke="midnightblue" d="M180.499,-65.4464C155.278,-55.8166 120.757,-42.6356 93.5098,-32.2323"/>
<polygon fill="midnightblue" stroke="midnightblue" points="94.422,-28.8342 83.8313,-28.5369 91.925,-35.3738 94.422,-28.8342"/>
</g>
<!-- Node19&#45;&gt;Node24 -->
<g id="edge27" class="edge"><title>Node19&#45;&gt;Node24</title>
<path fill="none" stroke="midnightblue" d="M265.244,-65.4464C304.06,-55.4243 357.772,-41.5558 398.752,-30.9751"/>
<polygon fill="midnightblue" stroke="midnightblue" points="399.805,-34.3179 408.613,-28.429 398.055,-27.5402 399.805,-34.3179"/>
</g>
<!-- Node19&#45;&gt;Node25 -->
<g id="edge28" class="edge"><title>Node19&#45;&gt;Node25</title>
<path fill="none" stroke="midnightblue" d="M284.892,-66.4658C287.863,-65.9683 290.804,-65.4779 293.687,-65 393.162,-48.5074 418.441,-46.8205 517.687,-29 523.829,-27.8972 530.272,-26.6874 536.642,-25.4592"/>
<polygon fill="midnightblue" stroke="midnightblue" points="537.395,-28.8783 546.539,-23.5267 536.053,-22.0081 537.395,-28.8783"/>
</g>
<!-- Node26 -->
<g id="node27" class="node"><title>Node26</title>
<polygon fill="white" stroke="#bfbfbf" points="116.882,-0.5 116.882,-28.5 218.492,-28.5 218.492,-0.5 116.882,-0.5"/>
<text text-anchor="start" x="124.882" y="-16.5" font-family="Helvetica,sans-Serif" font-size="10.00">boost/ptr_container</text>
<text text-anchor="middle" x="167.687" y="-6.5" font-family="Helvetica,sans-Serif" font-size="10.00">/ptr_vector.hpp</text>
</g>
<!-- Node19&#45;&gt;Node26 -->
<g id="edge29" class="edge"><title>Node19&#45;&gt;Node26</title>
<path fill="none" stroke="midnightblue" d="M204.949,-65.4464C198.773,-57.1681 190.639,-46.2656 183.547,-36.7593"/>
<polygon fill="midnightblue" stroke="midnightblue" points="186.198,-34.4593 177.413,-28.5369 180.587,-38.6451 186.198,-34.4593"/>
</g>
<!-- Node29&#45;&gt;Node8 -->
<g id="edge36" class="edge"><title>Node29&#45;&gt;Node8</title>
<path fill="none" stroke="midnightblue" d="M883.756,-133.421C964.523,-126.36 1111.19,-112.35 1235.69,-94 1242.87,-92.9418 1250.42,-91.6846 1257.83,-90.3697"/>
<polygon fill="midnightblue" stroke="midnightblue" points="1258.58,-93.7906 1267.79,-88.5541 1257.33,-86.904 1258.58,-93.7906"/>
</g>
<!-- Node29&#45;&gt;Node11 -->
<g id="edge42" class="edge"><title>Node29&#45;&gt;Node11</title>
<path fill="none" stroke="midnightblue" d="M883.745,-132.87C969.352,-124.616 1120.53,-108.62 1173.69,-94 1175.4,-93.5291 1177.14,-92.981 1178.88,-92.3804"/>
<polygon fill="midnightblue" stroke="midnightblue" points="1180.58,-95.4714 1188.59,-88.5411 1178.01,-88.9613 1180.58,-95.4714"/>
</g>
<!-- Node29&#45;&gt;Node12 -->
<g id="edge45" class="edge"><title>Node29&#45;&gt;Node12</title>
<path fill="none" stroke="midnightblue" d="M883.689,-131.843C939.85,-124.959 1025.19,-112.581 1097.69,-94 1100.18,-93.3612 1102.74,-92.6276 1105.3,-91.8396"/>
<polygon fill="midnightblue" stroke="midnightblue" points="1106.61,-95.0925 1114.99,-88.6161 1104.4,-88.45 1106.61,-95.0925"/>
</g>
<!-- Node29&#45;&gt;Node21 -->
<g id="edge43" class="edge"><title>Node29&#45;&gt;Node21</title>
<path fill="none" stroke="midnightblue" d="M802.332,-130.383C785.852,-122.962 762.949,-110.613 747.687,-94 731.553,-76.4386 720.888,-50.7727 715.069,-33.6218"/>
<polygon fill="midnightblue" stroke="midnightblue" points="718.298,-32.2243 711.937,-23.7516 711.626,-34.3419 718.298,-32.2243"/>
</g>
<!-- Node29&#45;&gt;Node24 -->
<g id="edge39" class="edge"><title>Node29&#45;&gt;Node24</title>
<path fill="none" stroke="midnightblue" d="M780.773,-130.473C749.576,-123.487 706.545,-111.673 671.687,-94 652.738,-84.3929 652.688,-74.5033 633.687,-65 613.426,-54.8666 560.895,-40.5407 518.636,-29.9062"/>
<polygon fill="midnightblue" stroke="midnightblue" points="519.242,-26.4503 508.692,-27.4238 517.547,-33.2418 519.242,-26.4503"/>
</g>
<!-- Node29&#45;&gt;Node25 -->
<g id="edge38" class="edge"><title>Node29&#45;&gt;Node25</title>
<path fill="none" stroke="midnightblue" d="M803.878,-130.411C784.177,-121.814 752.44,-107.609 725.687,-94 683.474,-72.5267 635.604,-44.9651 608.194,-28.8643"/>
<polygon fill="midnightblue" stroke="midnightblue" points="609.787,-25.7405 599.395,-23.676 606.232,-31.7703 609.787,-25.7405"/>
</g>
<!-- Node29&#45;&gt;Node28 -->
<g id="edge40" class="edge"><title>Node29&#45;&gt;Node28</title>
<path fill="none" stroke="midnightblue" d="M788.464,-130.496C748.767,-121.212 682.612,-105.741 634.391,-94.463"/>
<polygon fill="midnightblue" stroke="midnightblue" points="634.923,-90.9932 624.389,-92.1239 633.329,-97.8092 634.923,-90.9932"/>
</g>
<!-- Node29&#45;&gt;Node30 -->
<g id="edge37" class="edge"><title>Node29&#45;&gt;Node30</title>
<path fill="none" stroke="midnightblue" d="M851.33,-130.435C887.511,-120.249 949.9,-102.683 990.212,-91.3328"/>
<polygon fill="midnightblue" stroke="midnightblue" points="991.278,-94.6687 999.956,-88.5894 989.381,-87.9307 991.278,-94.6687"/>
</g>
<!-- Node31 -->
<g id="node32" class="node"><title>Node31</title>
<polygon fill="white" stroke="#bfbfbf" points="757.148,-65.5 757.148,-93.5 888.226,-93.5 888.226,-65.5 757.148,-65.5"/>
<text text-anchor="start" x="765.148" y="-81.5" font-family="Helvetica,sans-Serif" font-size="10.00">boost/type_traits/has</text>
<text text-anchor="middle" x="822.687" y="-71.5" font-family="Helvetica,sans-Serif" font-size="10.00">_nothrow_constructor.hpp</text>
</g>
<!-- Node29&#45;&gt;Node31 -->
<g id="edge41" class="edge"><title>Node29&#45;&gt;Node31</title>
<path fill="none" stroke="midnightblue" d="M822.687,-130.435C822.687,-123.56 822.687,-113.324 822.687,-103.906"/>
<polygon fill="midnightblue" stroke="midnightblue" points="826.187,-103.843 822.687,-93.8428 819.187,-103.843 826.187,-103.843"/>
</g>
<!-- Node32 -->
<g id="node33" class="node"><title>Node32</title>
<polygon fill="white" stroke="#bfbfbf" points="906.515,-70.5 906.515,-88.5 950.859,-88.5 950.859,-70.5 906.515,-70.5"/>
<text text-anchor="middle" x="928.687" y="-76.5" font-family="Helvetica,sans-Serif" font-size="10.00">iosfwd</text>
</g>
<!-- Node29&#45;&gt;Node32 -->
<g id="edge44" class="edge"><title>Node29&#45;&gt;Node32</title>
<path fill="none" stroke="midnightblue" d="M837.426,-130.435C854.889,-120.88 884.219,-104.832 904.908,-93.5113"/>
<polygon fill="midnightblue" stroke="midnightblue" points="906.639,-96.5537 913.732,-88.6831 903.279,-90.4129 906.639,-96.5537"/>
</g>
<!-- Node34&#45;&gt;Node14 -->
<g id="edge52" class="edge"><title>Node34&#45;&gt;Node14</title>
<path fill="none" stroke="midnightblue" d="M990.121,-190.435C1008.49,-180.837 1039.4,-164.687 1061.08,-153.359"/>
<polygon fill="midnightblue" stroke="midnightblue" points="1062.78,-156.416 1070.03,-148.683 1059.54,-150.212 1062.78,-156.416"/>
</g>
<!-- Node36 -->
<g id="node37" class="node"><title>Node36</title>
<polygon fill="white" stroke="#bfbfbf" points="494.63,-190.5 494.63,-208.5 546.744,-208.5 546.744,-190.5 494.63,-190.5"/>
<text text-anchor="middle" x="520.687" y="-196.5" font-family="Helvetica,sans-Serif" font-size="10.00">memory</text>
</g>
<!-- Node35&#45;&gt;Node36 -->
<g id="edge54" class="edge"><title>Node35&#45;&gt;Node36</title>
<path fill="none" stroke="midnightblue" d="M747.996,-251.455C700.211,-243.933 624.753,-230.791 560.687,-214 558.053,-213.31 555.34,-212.535 552.628,-211.716"/>
<polygon fill="midnightblue" stroke="midnightblue" points="553.538,-208.332 542.947,-208.62 551.406,-215 553.538,-208.332"/>
</g>
<!-- Node37&#45;&gt;Node3 -->
<g id="edge56" class="edge"><title>Node37&#45;&gt;Node3</title>
<path fill="none" stroke="midnightblue" d="M1022.78,-305.219C1014.28,-297.316 1001.28,-285.224 990.933,-275.606"/>
<polygon fill="midnightblue" stroke="midnightblue" points="993.051,-272.796 983.344,-268.55 988.284,-277.922 993.051,-272.796"/>
</g>
<!-- Node37&#45;&gt;Node8 -->
<g id="edge57" class="edge"><title>Node37&#45;&gt;Node8</title>
<path fill="none" stroke="midnightblue" d="M1090.99,-305.454C1181.98,-291.757 1349.28,-260.767 1384.69,-214 1396.12,-198.895 1378.61,-137.813 1373.69,-130 1363.91,-114.494 1347.42,-102.121 1333.37,-93.6236"/>
<polygon fill="midnightblue" stroke="midnightblue" points="1335,-90.5249 1324.58,-88.6054 1331.53,-96.6036 1335,-90.5249"/>
</g>
<!-- Node37&#45;&gt;Node35 -->
<g id="edge58" class="edge"><title>Node37&#45;&gt;Node35</title>
<path fill="none" stroke="midnightblue" d="M995.844,-305.45C954.485,-296.162 886.396,-280.871 841.297,-270.743"/>
<polygon fill="midnightblue" stroke="midnightblue" points="842.004,-267.315 831.48,-268.538 840.47,-274.145 842.004,-267.315"/>
</g>
<!-- Node39&#45;&gt;Node2 -->
<g id="edge61" class="edge"><title>Node39&#45;&gt;Node2</title>
<path fill="none" stroke="midnightblue" d="M781.771,-360.339C784.249,-352.355 787.444,-342.061 790.147,-333.35"/>
<polygon fill="midnightblue" stroke="midnightblue" points="793.499,-334.36 793.12,-323.771 786.813,-332.285 793.499,-334.36"/>
</g>
</g>
</svg>
