<?xml version="1.0" encoding="UTF-8" standalone="no"?>
<!DOCTYPE svg PUBLIC "-//W3C//DTD SVG 1.1//EN"
 "http://www.w3.org/Graphics/SVG/1.1/DTD/svg11.dtd">
<!-- Generated by graphviz version 2.38.0 (20140413.2041)
 -->
<!-- Title: ocra::Variable Pages: 1 -->
<svg width="826pt" height="272pt"
 viewBox="0.00 0.00 825.72 272.00" xmlns="http://www.w3.org/2000/svg" xmlns:xlink="http://www.w3.org/1999/xlink">
<g id="graph0" class="graph" transform="scale(1 1) rotate(0) translate(4 268)">
<title>ocra::Variable</title>
<polygon fill="white" stroke="none" points="-4,4 -4,-268 821.716,-268 821.716,4 -4,4"/>
<!-- Node0 -->
<g id="node1" class="node"><title>Node0</title>
<polygon fill="#bfbfbf" stroke="black" points="579.994,-103.5 579.994,-121.5 656.956,-121.5 656.956,-103.5 579.994,-103.5"/>
<text text-anchor="middle" x="618.475" y="-109.5" font-family="Helvetica,sans-Serif" font-size="10.00">ocra::Variable</text>
</g>
<!-- Node13 -->
<g id="node14" class="node"><title>Node13</title>
<g id="a_node14"><a xlink:href="../../d5/d40/classocra_1_1BaseVariable.html" target="_top" xlink:title="Implements a basic variable. ">
<polygon fill="white" stroke="black" points="705.458,-122.5 705.458,-140.5 805.213,-140.5 805.213,-122.5 705.458,-122.5"/>
<text text-anchor="middle" x="755.336" y="-128.5" font-family="Helvetica,sans-Serif" font-size="10.00">ocra::BaseVariable</text>
</a>
</g>
</g>
<!-- Node0&#45;&gt;Node13 -->
<g id="edge13" class="edge"><title>Node0&#45;&gt;Node13</title>
<path fill="none" stroke="midnightblue" d="M667.173,-119.22C679.557,-120.965 692.914,-122.847 705.362,-124.6"/>
<polygon fill="midnightblue" stroke="midnightblue" points="667.432,-115.722 657.041,-117.793 666.455,-122.653 667.432,-115.722"/>
</g>
<!-- Node14 -->
<g id="node15" class="node"><title>Node14</title>
<g id="a_node15"><a xlink:href="../../d2/d7c/classocra_1_1CompositeVariable.html" target="_top" xlink:title="A concatenation of base variables and other composite variables. ">
<polygon fill="white" stroke="black" points="692.956,-85.5 692.956,-103.5 817.716,-103.5 817.716,-85.5 692.956,-85.5"/>
<text text-anchor="middle" x="755.336" y="-91.5" font-family="Helvetica,sans-Serif" font-size="10.00">ocra::CompositeVariable</text>
</a>
</g>
</g>
<!-- Node0&#45;&gt;Node14 -->
<g id="edge14" class="edge"><title>Node0&#45;&gt;Node14</title>
<path fill="none" stroke="midnightblue" d="M667.009,-106.156C675.396,-105.036 684.234,-103.857 692.938,-102.695"/>
<polygon fill="midnightblue" stroke="midnightblue" points="666.49,-102.694 657.041,-107.486 667.417,-109.632 666.49,-102.694"/>
</g>
<!-- Node1 -->
<g id="node2" class="node"><title>Node1</title>
<g id="a_node2"><a xlink:href="../../d0/d29/classocra_1_1Component.html" target="_top" xlink:title="ocra::Component\&lt; Variable,\l CompositeVariable, VariableParenthood \&gt;">
<polygon fill="white" stroke="black" points="339.63,-159.5 339.63,-187.5 543.994,-187.5 543.994,-159.5 339.63,-159.5"/>
<text text-anchor="start" x="347.63" y="-175.5" font-family="Helvetica,sans-Serif" font-size="10.00">ocra::Component&lt; Variable,</text>
<text text-anchor="middle" x="441.812" y="-165.5" font-family="Helvetica,sans-Serif" font-size="10.00"> CompositeVariable, VariableParenthood &gt;</text>
</a>
</g>
</g>
<!-- Node1&#45;&gt;Node0 -->
<g id="edge1" class="edge"><title>Node1&#45;&gt;Node0</title>
<path fill="none" stroke="midnightblue" d="M524.726,-156.766C531.305,-154.851 537.799,-152.764 543.994,-150.5 565.307,-142.711 588.302,-130.061 602.785,-121.518"/>
<polygon fill="midnightblue" stroke="midnightblue" points="523.752,-153.404 515.05,-159.447 525.622,-160.149 523.752,-153.404"/>
</g>
<!-- Node2 -->
<g id="node3" class="node"><title>Node2</title>
<g id="a_node3"><a xlink:href="../../d3/d16/classocra_1_1ObserverSubject.html" target="_top" xlink:title="ocra::ObserverSubject">
<polygon fill="white" stroke="black" points="384.068,-122.5 384.068,-140.5 499.556,-140.5 499.556,-122.5 384.068,-122.5"/>
<text text-anchor="middle" x="441.812" y="-128.5" font-family="Helvetica,sans-Serif" font-size="10.00">ocra::ObserverSubject</text>
</a>
</g>
</g>
<!-- Node2&#45;&gt;Node0 -->
<g id="edge2" class="edge"><title>Node2&#45;&gt;Node0</title>
<path fill="none" stroke="midnightblue" d="M510.025,-124.188C533.76,-121.607 559.592,-118.797 579.979,-116.579"/>
<polygon fill="midnightblue" stroke="midnightblue" points="509.566,-120.718 500.003,-125.279 510.323,-127.677 509.566,-120.718"/>
</g>
<!-- Node3 -->
<g id="node4" class="node"><title>Node3</title>
<g id="a_node4"><a xlink:href="../../d2/d45/classocra_1_1Observer.html" target="_top" xlink:title="ocra::Observer">
<polygon fill="white" stroke="black" points="221.497,-169.5 221.497,-187.5 303.63,-187.5 303.63,-169.5 221.497,-169.5"/>
<text text-anchor="middle" x="262.563" y="-175.5" font-family="Helvetica,sans-Serif" font-size="10.00">ocra::Observer</text>
</a>
</g>
</g>
<!-- Node3&#45;&gt;Node2 -->
<g id="edge3" class="edge"><title>Node3&#45;&gt;Node2</title>
<path fill="none" stroke="midnightblue" d="M294.619,-165.732C308.258,-160.474 324.566,-154.656 339.63,-150.5 353.844,-146.579 369.406,-143.212 383.969,-140.449"/>
<polygon fill="midnightblue" stroke="midnightblue" points="293.242,-162.512 285.216,-169.429 295.804,-169.027 293.242,-162.512"/>
</g>
<!-- Node4 -->
<g id="node5" class="node"><title>Node4</title>
<g id="a_node5"><a xlink:href="../../d4/dee/classocra_1_1ObserverBase.html" target="_top" xlink:title="ocra::ObserverBase\l\&lt; EVT_RESIZE \&gt;">
<polygon fill="white" stroke="black" points="40.2856,-235.5 40.2856,-263.5 145.211,-263.5 145.211,-235.5 40.2856,-235.5"/>
<text text-anchor="start" x="48.2856" y="-251.5" font-family="Helvetica,sans-Serif" font-size="10.00">ocra::ObserverBase</text>
<text text-anchor="middle" x="92.7485" y="-241.5" font-family="Helvetica,sans-Serif" font-size="10.00">&lt; EVT_RESIZE &gt;</text>
</a>
</g>
</g>
<!-- Node4&#45;&gt;Node3 -->
<g id="edge4" class="edge"><title>Node4&#45;&gt;Node3</title>
<path fill="none" stroke="midnightblue" d="M155.394,-236.918C165.632,-234.018 176.001,-230.563 185.497,-226.5 209.903,-216.058 235.439,-198.317 249.841,-187.576"/>
<polygon fill="midnightblue" stroke="midnightblue" points="154.402,-233.56 145.65,-239.531 156.215,-240.321 154.402,-233.56"/>
</g>
<!-- Node5 -->
<g id="node6" class="node"><title>Node5</title>
<g id="a_node6"><a xlink:href="../../d4/dee/classocra_1_1ObserverBase.html" target="_top" xlink:title="ocra::ObserverBase\l\&lt; EVT_CHANGE_DEPENDENCIES \&gt;">
<polygon fill="white" stroke="black" points="0,-188.5 0,-216.5 185.497,-216.5 185.497,-188.5 0,-188.5"/>
<text text-anchor="start" x="8" y="-204.5" font-family="Helvetica,sans-Serif" font-size="10.00">ocra::ObserverBase</text>
<text text-anchor="middle" x="92.7485" y="-194.5" font-family="Helvetica,sans-Serif" font-size="10.00">&lt; EVT_CHANGE_DEPENDENCIES &gt;</text>
</a>
</g>
</g>
<!-- Node5&#45;&gt;Node3 -->
<g id="edge5" class="edge"><title>Node5&#45;&gt;Node3</title>
<path fill="none" stroke="midnightblue" d="M195.441,-187.957C204.506,-186.66 213.28,-185.405 221.314,-184.256"/>
<polygon fill="midnightblue" stroke="midnightblue" points="194.916,-184.496 185.512,-189.376 195.907,-191.425 194.916,-184.496"/>
</g>
<!-- Node6 -->
<g id="node7" class="node"><title>Node6</title>
<g id="a_node7"><a xlink:href="../../d4/dee/classocra_1_1ObserverBase.html" target="_top" xlink:title="ocra::ObserverBase\l\&lt; EVT_CHANGE_VALUE \&gt;">
<polygon fill="white" stroke="black" points="23.4253,-141.5 23.4253,-169.5 162.072,-169.5 162.072,-141.5 23.4253,-141.5"/>
<text text-anchor="start" x="31.4253" y="-157.5" font-family="Helvetica,sans-Serif" font-size="10.00">ocra::ObserverBase</text>
<text text-anchor="middle" x="92.7485" y="-147.5" font-family="Helvetica,sans-Serif" font-size="10.00">&lt; EVT_CHANGE_VALUE &gt;</text>
</a>
</g>
</g>
<!-- Node6&#45;&gt;Node3 -->
<g id="edge6" class="edge"><title>Node6&#45;&gt;Node3</title>
<path fill="none" stroke="midnightblue" d="M172.838,-166.34C189.55,-168.63 206.517,-170.956 221.077,-172.951"/>
<polygon fill="midnightblue" stroke="midnightblue" points="172.872,-162.812 162.489,-164.921 171.922,-169.747 172.872,-162.812"/>
</g>
<!-- Node7 -->
<g id="node8" class="node"><title>Node7</title>
<g id="a_node8"><a xlink:href="../../dc/d77/classocra_1_1Subject.html" target="_top" xlink:title="ocra::Subject">
<polygon fill="white" stroke="black" points="225.381,-75.5 225.381,-93.5 299.746,-93.5 299.746,-75.5 225.381,-75.5"/>
<text text-anchor="middle" x="262.563" y="-81.5" font-family="Helvetica,sans-Serif" font-size="10.00">ocra::Subject</text>
</a>
</g>
</g>
<!-- Node7&#45;&gt;Node2 -->
<g id="edge7" class="edge"><title>Node7&#45;&gt;Node2</title>
<path fill="none" stroke="midnightblue" d="M293.676,-97.4798C307.479,-103.038 324.176,-109.221 339.63,-113.5 353.816,-117.428 369.367,-120.694 383.93,-123.316"/>
<polygon fill="midnightblue" stroke="midnightblue" points="294.775,-94.1476 284.196,-93.579 292.112,-100.621 294.775,-94.1476"/>
</g>
<!-- Node8 -->
<g id="node9" class="node"><title>Node8</title>
<g id="a_node9"><a xlink:href="../../dc/d29/classocra_1_1SubjectBase.html" target="_top" xlink:title="ocra::SubjectBase\&lt;\l EVT_RESIZE \&gt;">
<polygon fill="white" stroke="black" points="41.25,-94.5 41.25,-122.5 144.247,-122.5 144.247,-94.5 41.25,-94.5"/>
<text text-anchor="start" x="49.25" y="-110.5" font-family="Helvetica,sans-Serif" font-size="10.00">ocra::SubjectBase&lt;</text>
<text text-anchor="middle" x="92.7485" y="-100.5" font-family="Helvetica,sans-Serif" font-size="10.00"> EVT_RESIZE &gt;</text>
</a>
</g>
</g>
<!-- Node8&#45;&gt;Node7 -->
<g id="edge8" class="edge"><title>Node8&#45;&gt;Node7</title>
<path fill="none" stroke="midnightblue" d="M154.534,-99.8067C178.262,-96.4133 204.665,-92.6373 225.31,-89.6848"/>
<polygon fill="midnightblue" stroke="midnightblue" points="153.958,-96.3535 144.554,-101.234 154.949,-103.283 153.958,-96.3535"/>
</g>
<!-- Node9 -->
<g id="node10" class="node"><title>Node9</title>
<g id="a_node10"><a xlink:href="../../dc/d29/classocra_1_1SubjectBase.html" target="_top" xlink:title="ocra::SubjectBase\&lt;\l EVT_CHANGE_DEPENDENCIES \&gt;">
<polygon fill="white" stroke="black" points="2.91992,-47.5 2.91992,-75.5 182.577,-75.5 182.577,-47.5 2.91992,-47.5"/>
<text text-anchor="start" x="10.9199" y="-63.5" font-family="Helvetica,sans-Serif" font-size="10.00">ocra::SubjectBase&lt;</text>
<text text-anchor="middle" x="92.7485" y="-53.5" font-family="Helvetica,sans-Serif" font-size="10.00"> EVT_CHANGE_DEPENDENCIES &gt;</text>
</a>
</g>
</g>
<!-- Node9&#45;&gt;Node7 -->
<g id="edge9" class="edge"><title>Node9&#45;&gt;Node7</title>
<path fill="none" stroke="midnightblue" d="M193.112,-75.1184C204.461,-76.6738 215.419,-78.1756 225.116,-79.5047"/>
<polygon fill="midnightblue" stroke="midnightblue" points="193.443,-71.6311 183.061,-73.7408 192.493,-78.5663 193.443,-71.6311"/>
</g>
<!-- Node10 -->
<g id="node11" class="node"><title>Node10</title>
<g id="a_node11"><a xlink:href="../../dc/d29/classocra_1_1SubjectBase.html" target="_top" xlink:title="ocra::SubjectBase\&lt;\l EVT_CHANGE_VALUE \&gt;">
<polygon fill="white" stroke="black" points="26.3452,-0.5 26.3452,-28.5 159.152,-28.5 159.152,-0.5 26.3452,-0.5"/>
<text text-anchor="start" x="34.3452" y="-16.5" font-family="Helvetica,sans-Serif" font-size="10.00">ocra::SubjectBase&lt;</text>
<text text-anchor="middle" x="92.7485" y="-6.5" font-family="Helvetica,sans-Serif" font-size="10.00"> EVT_CHANGE_VALUE &gt;</text>
</a>
</g>
</g>
<!-- Node10&#45;&gt;Node7 -->
<g id="edge10" class="edge"><title>Node10&#45;&gt;Node7</title>
<path fill="none" stroke="midnightblue" d="M168.869,-31.2914C174.566,-33.1824 180.167,-35.2493 185.497,-37.5 209.665,-47.7052 235.074,-64.9193 249.553,-75.4408"/>
<polygon fill="midnightblue" stroke="midnightblue" points="169.813,-27.9194 159.224,-28.2737 167.723,-34.6 169.813,-27.9194"/>
</g>
<!-- Node11 -->
<g id="node12" class="node"><title>Node11</title>
<polygon fill="white" stroke="#bfbfbf" points="405.455,-85.5 405.455,-103.5 478.169,-103.5 478.169,-85.5 405.455,-85.5"/>
<text text-anchor="middle" x="441.812" y="-91.5" font-family="Helvetica,sans-Serif" font-size="10.00">noncopyable</text>
</g>
<!-- Node11&#45;&gt;Node0 -->
<g id="edge11" class="edge"><title>Node11&#45;&gt;Node0</title>
<path fill="none" stroke="#8b1a1a" d="M488.681,-99.2271C517.126,-102.158 553.211,-105.877 579.945,-108.632"/>
<polygon fill="#8b1a1a" stroke="#8b1a1a" points="488.885,-95.7297 478.579,-98.186 488.168,-102.693 488.885,-95.7297"/>
</g>
<!-- Node12 -->
<g id="node13" class="node"><title>Node12</title>
<g id="a_node13"><a xlink:href="../../dc/d20/classocra_1_1VariableHasRestrictedClassDerivation.html" target="_top" xlink:title="ocra::VariableHasRestricted\lClassDerivation">
<polygon fill="white" stroke="black" points="371.932,-38.5 371.932,-66.5 511.692,-66.5 511.692,-38.5 371.932,-38.5"/>
<text text-anchor="start" x="379.932" y="-54.5" font-family="Helvetica,sans-Serif" font-size="10.00">ocra::VariableHasRestricted</text>
<text text-anchor="middle" x="441.812" y="-44.5" font-family="Helvetica,sans-Serif" font-size="10.00">ClassDerivation</text>
</a>
</g>
</g>
<!-- Node12&#45;&gt;Node0 -->
<g id="edge12" class="edge"><title>Node12&#45;&gt;Node0</title>
<path fill="none" stroke="#8b1a1a" d="M521.499,-68.4002C529.174,-70.543 536.782,-72.9084 543.994,-75.5 564.963,-83.0354 587.662,-95.1265 602.197,-103.423"/>
<polygon fill="#8b1a1a" stroke="#8b1a1a" points="522.331,-64.9999 511.767,-65.8048 520.527,-71.7635 522.331,-64.9999"/>
</g>
</g>
</svg>
