<?xml version="1.0" encoding="UTF-8" standalone="no"?>
<!DOCTYPE svg PUBLIC "-//W3C//DTD SVG 1.1//EN"
 "http://www.w3.org/Graphics/SVG/1.1/DTD/svg11.dtd">
<!-- Generated by graphviz version 2.38.0 (20140413.2041)
 -->
<!-- Title: ocra::TaskBuilder Pages: 1 -->
<svg width="156pt" height="207pt"
 viewBox="0.00 0.00 155.90 207.00" xmlns="http://www.w3.org/2000/svg" xmlns:xlink="http://www.w3.org/1999/xlink">
<g id="graph0" class="graph" transform="scale(1 1) rotate(0) translate(4 203)">
<title>ocra::TaskBuilder</title>
<polygon fill="white" stroke="none" points="-4,4 -4,-203 151.897,-203 151.897,4 -4,4"/>
<!-- Node8 -->
<g id="node1" class="node"><title>Node8</title>
<polygon fill="#bfbfbf" stroke="black" points="17.2314,-0.5 17.2314,-18.5 109.931,-18.5 109.931,-0.5 17.2314,-0.5"/>
<text text-anchor="middle" x="63.5811" y="-6.5" font-family="Helvetica,sans-Serif" font-size="10.00">ocra::TaskBuilder</text>
</g>
<!-- Node9 -->
<g id="node2" class="node"><title>Node9</title>
<g id="a_node2"><a xlink:href="../../d9/d2f/classocra_1_1TaskBuilderOptions.html" target="_top" xlink:title="ocra::TaskBuilderOptions">
<polygon fill="white" stroke="black" points="0,-65.5 0,-83.5 127.162,-83.5 127.162,-65.5 0,-65.5"/>
<text text-anchor="middle" x="63.5811" y="-71.5" font-family="Helvetica,sans-Serif" font-size="10.00">ocra::TaskBuilderOptions</text>
</a>
</g>
</g>
<!-- Node9&#45;&gt;Node8 -->
<g id="edge1" class="edge"><title>Node9&#45;&gt;Node8</title>
<path fill="none" stroke="#9a32cd" stroke-dasharray="5,2" d="M63.5811,-54.9075C63.5811,-42.8146 63.5811,-27.6529 63.5811,-18.539"/>
<polygon fill="#9a32cd" stroke="#9a32cd" points="60.0812,-55.2638 63.5811,-65.2639 67.0812,-55.2639 60.0812,-55.2638"/>
<text text-anchor="middle" x="81.0933" y="-39" font-family="Helvetica,sans-Serif" font-size="10.00"> options</text>
</g>
<!-- Node10 -->
<g id="node3" class="node"><title>Node10</title>
<polygon fill="white" stroke="#bfbfbf" points="35.2881,-180.5 35.2881,-198.5 91.874,-198.5 91.874,-180.5 35.2881,-180.5"/>
<text text-anchor="middle" x="63.5811" y="-186.5" font-family="Helvetica,sans-Serif" font-size="10.00">VectorXd</text>
</g>
<!-- Node10&#45;&gt;Node9 -->
<g id="edge2" class="edge"><title>Node10&#45;&gt;Node9</title>
<path fill="none" stroke="#9a32cd" stroke-dasharray="5,2" d="M63.5811,-170.071C63.5811,-145.073 63.5811,-101.482 63.5811,-83.553"/>
<polygon fill="#9a32cd" stroke="#9a32cd" points="60.0812,-170.373 63.5811,-180.373 67.0812,-170.373 60.0812,-170.373"/>
<text text-anchor="middle" x="105.739" y="-154" font-family="Helvetica,sans-Serif" font-size="10.00"> nameDesired</text>
<text text-anchor="middle" x="105.739" y="-144" font-family="Helvetica,sans-Serif" font-size="10.00">indexDesired</text>
<text text-anchor="middle" x="105.739" y="-134" font-family="Helvetica,sans-Serif" font-size="10.00">desired</text>
<text text-anchor="middle" x="105.739" y="-124" font-family="Helvetica,sans-Serif" font-size="10.00">indexWeightVector</text>
<text text-anchor="middle" x="105.739" y="-114" font-family="Helvetica,sans-Serif" font-size="10.00">weightVector</text>
<text text-anchor="middle" x="105.739" y="-104" font-family="Helvetica,sans-Serif" font-size="10.00">nameWeightVector</text>
</g>
</g>
</svg>
