<?xml version="1.0" encoding="UTF-8" standalone="no"?>
<!DOCTYPE svg PUBLIC "-//W3C//DTD SVG 1.1//EN"
 "http://www.w3.org/Graphics/SVG/1.1/DTD/svg11.dtd">
<!-- Generated by graphviz version 2.38.0 (20140413.2041)
 -->
<!-- Title: ocra::BaseVariable Pages: 1 -->
<svg width="860pt" height="272pt"
 viewBox="0.00 0.00 860.20 272.00" xmlns="http://www.w3.org/2000/svg" xmlns:xlink="http://www.w3.org/1999/xlink">
<g id="graph0" class="graph" transform="scale(1 1) rotate(0) translate(4 268)">
<title>ocra::BaseVariable</title>
<polygon fill="white" stroke="none" points="-4,4 -4,-268 856.203,-268 856.203,4 -4,4"/>
<!-- Node15 -->
<g id="node1" class="node"><title>Node15</title>
<polygon fill="#bfbfbf" stroke="black" points="752.448,-121.5 752.448,-139.5 852.203,-139.5 852.203,-121.5 752.448,-121.5"/>
<text text-anchor="middle" x="802.326" y="-127.5" font-family="Helvetica,sans-Serif" font-size="10.00">ocra::BaseVariable</text>
</g>
<!-- Node16 -->
<g id="node2" class="node"><title>Node16</title>
<g id="a_node2"><a xlink:href="../../db/d90/classocra_1_1Leaf.html" target="_top" xlink:title="ocra::Leaf\&lt; BaseVariable \&gt;">
<polygon fill="white" stroke="black" points="579.994,-140.5 579.994,-158.5 716.448,-158.5 716.448,-140.5 579.994,-140.5"/>
<text text-anchor="middle" x="648.221" y="-146.5" font-family="Helvetica,sans-Serif" font-size="10.00">ocra::Leaf&lt; BaseVariable &gt;</text>
</a>
</g>
</g>
<!-- Node16&#45;&gt;Node15 -->
<g id="edge1" class="edge"><title>Node16&#45;&gt;Node15</title>
<path fill="none" stroke="midnightblue" d="M726.904,-139.796C735.504,-138.722 744.076,-137.651 752.18,-136.639"/>
<polygon fill="midnightblue" stroke="midnightblue" points="726.311,-136.343 716.822,-141.056 727.179,-143.289 726.311,-136.343"/>
</g>
<!-- Node17 -->
<g id="node3" class="node"><title>Node17</title>
<g id="a_node3"><a xlink:href="../../d2/dac/classocra_1_1Variable.html" target="_top" xlink:title="This class represents a variable in a mathematical sense. ">
<polygon fill="white" stroke="black" points="609.74,-103.5 609.74,-121.5 686.702,-121.5 686.702,-103.5 609.74,-103.5"/>
<text text-anchor="middle" x="648.221" y="-109.5" font-family="Helvetica,sans-Serif" font-size="10.00">ocra::Variable</text>
</a>
</g>
</g>
<!-- Node17&#45;&gt;Node15 -->
<g id="edge2" class="edge"><title>Node17&#45;&gt;Node15</title>
<path fill="none" stroke="midnightblue" d="M696.908,-118.143C714.569,-120.233 734.612,-122.605 752.383,-124.708"/>
<polygon fill="midnightblue" stroke="midnightblue" points="697.162,-114.649 686.82,-116.949 696.339,-121.6 697.162,-114.649"/>
</g>
<!-- Node18 -->
<g id="node4" class="node"><title>Node18</title>
<g id="a_node4"><a xlink:href="../../d0/d29/classocra_1_1Component.html" target="_top" xlink:title="ocra::Component\&lt; Variable,\l CompositeVariable, VariableParenthood \&gt;">
<polygon fill="white" stroke="black" points="339.63,-159.5 339.63,-187.5 543.994,-187.5 543.994,-159.5 339.63,-159.5"/>
<text text-anchor="start" x="347.63" y="-175.5" font-family="Helvetica,sans-Serif" font-size="10.00">ocra::Component&lt; Variable,</text>
<text text-anchor="middle" x="441.812" y="-165.5" font-family="Helvetica,sans-Serif" font-size="10.00"> CompositeVariable, VariableParenthood &gt;</text>
</a>
</g>
</g>
<!-- Node18&#45;&gt;Node17 -->
<g id="edge3" class="edge"><title>Node18&#45;&gt;Node17</title>
<path fill="none" stroke="midnightblue" d="M525.382,-156.636C531.739,-154.76 538.007,-152.716 543.994,-150.5 560.96,-144.219 563.197,-138.219 579.994,-131.5 589.453,-127.716 599.943,-124.37 609.768,-121.581"/>
<polygon fill="midnightblue" stroke="midnightblue" points="524.033,-153.379 515.347,-159.447 525.921,-160.12 524.033,-153.379"/>
</g>
<!-- Node19 -->
<g id="node5" class="node"><title>Node19</title>
<g id="a_node5"><a xlink:href="../../d3/d16/classocra_1_1ObserverSubject.html" target="_top" xlink:title="ocra::ObserverSubject">
<polygon fill="white" stroke="black" points="384.068,-122.5 384.068,-140.5 499.556,-140.5 499.556,-122.5 384.068,-122.5"/>
<text text-anchor="middle" x="441.812" y="-128.5" font-family="Helvetica,sans-Serif" font-size="10.00">ocra::ObserverSubject</text>
</a>
</g>
</g>
<!-- Node19&#45;&gt;Node17 -->
<g id="edge4" class="edge"><title>Node19&#45;&gt;Node17</title>
<path fill="none" stroke="midnightblue" d="M509.836,-125.27C542.971,-122.19 581.724,-118.588 609.608,-115.996"/>
<polygon fill="midnightblue" stroke="midnightblue" points="509.384,-121.797 499.751,-126.207 510.032,-128.767 509.384,-121.797"/>
</g>
<!-- Node20 -->
<g id="node6" class="node"><title>Node20</title>
<g id="a_node6"><a xlink:href="../../d2/d45/classocra_1_1Observer.html" target="_top" xlink:title="ocra::Observer">
<polygon fill="white" stroke="black" points="221.497,-169.5 221.497,-187.5 303.63,-187.5 303.63,-169.5 221.497,-169.5"/>
<text text-anchor="middle" x="262.563" y="-175.5" font-family="Helvetica,sans-Serif" font-size="10.00">ocra::Observer</text>
</a>
</g>
</g>
<!-- Node20&#45;&gt;Node19 -->
<g id="edge5" class="edge"><title>Node20&#45;&gt;Node19</title>
<path fill="none" stroke="midnightblue" d="M294.619,-165.732C308.258,-160.474 324.566,-154.656 339.63,-150.5 353.844,-146.579 369.406,-143.212 383.969,-140.449"/>
<polygon fill="midnightblue" stroke="midnightblue" points="293.242,-162.512 285.216,-169.429 295.804,-169.027 293.242,-162.512"/>
</g>
<!-- Node21 -->
<g id="node7" class="node"><title>Node21</title>
<g id="a_node7"><a xlink:href="../../d4/dee/classocra_1_1ObserverBase.html" target="_top" xlink:title="ocra::ObserverBase\l\&lt; EVT_RESIZE \&gt;">
<polygon fill="white" stroke="black" points="40.2856,-235.5 40.2856,-263.5 145.211,-263.5 145.211,-235.5 40.2856,-235.5"/>
<text text-anchor="start" x="48.2856" y="-251.5" font-family="Helvetica,sans-Serif" font-size="10.00">ocra::ObserverBase</text>
<text text-anchor="middle" x="92.7485" y="-241.5" font-family="Helvetica,sans-Serif" font-size="10.00">&lt; EVT_RESIZE &gt;</text>
</a>
</g>
</g>
<!-- Node21&#45;&gt;Node20 -->
<g id="edge6" class="edge"><title>Node21&#45;&gt;Node20</title>
<path fill="none" stroke="midnightblue" d="M155.394,-236.918C165.632,-234.018 176.001,-230.563 185.497,-226.5 209.903,-216.058 235.439,-198.317 249.841,-187.576"/>
<polygon fill="midnightblue" stroke="midnightblue" points="154.402,-233.56 145.65,-239.531 156.215,-240.321 154.402,-233.56"/>
</g>
<!-- Node22 -->
<g id="node8" class="node"><title>Node22</title>
<g id="a_node8"><a xlink:href="../../d4/dee/classocra_1_1ObserverBase.html" target="_top" xlink:title="ocra::ObserverBase\l\&lt; EVT_CHANGE_DEPENDENCIES \&gt;">
<polygon fill="white" stroke="black" points="0,-188.5 0,-216.5 185.497,-216.5 185.497,-188.5 0,-188.5"/>
<text text-anchor="start" x="8" y="-204.5" font-family="Helvetica,sans-Serif" font-size="10.00">ocra::ObserverBase</text>
<text text-anchor="middle" x="92.7485" y="-194.5" font-family="Helvetica,sans-Serif" font-size="10.00">&lt; EVT_CHANGE_DEPENDENCIES &gt;</text>
</a>
</g>
</g>
<!-- Node22&#45;&gt;Node20 -->
<g id="edge7" class="edge"><title>Node22&#45;&gt;Node20</title>
<path fill="none" stroke="midnightblue" d="M195.441,-187.957C204.506,-186.66 213.28,-185.405 221.314,-184.256"/>
<polygon fill="midnightblue" stroke="midnightblue" points="194.916,-184.496 185.512,-189.376 195.907,-191.425 194.916,-184.496"/>
</g>
<!-- Node23 -->
<g id="node9" class="node"><title>Node23</title>
<g id="a_node9"><a xlink:href="../../d4/dee/classocra_1_1ObserverBase.html" target="_top" xlink:title="ocra::ObserverBase\l\&lt; EVT_CHANGE_VALUE \&gt;">
<polygon fill="white" stroke="black" points="23.4253,-141.5 23.4253,-169.5 162.072,-169.5 162.072,-141.5 23.4253,-141.5"/>
<text text-anchor="start" x="31.4253" y="-157.5" font-family="Helvetica,sans-Serif" font-size="10.00">ocra::ObserverBase</text>
<text text-anchor="middle" x="92.7485" y="-147.5" font-family="Helvetica,sans-Serif" font-size="10.00">&lt; EVT_CHANGE_VALUE &gt;</text>
</a>
</g>
</g>
<!-- Node23&#45;&gt;Node20 -->
<g id="edge8" class="edge"><title>Node23&#45;&gt;Node20</title>
<path fill="none" stroke="midnightblue" d="M172.838,-166.34C189.55,-168.63 206.517,-170.956 221.077,-172.951"/>
<polygon fill="midnightblue" stroke="midnightblue" points="172.872,-162.812 162.489,-164.921 171.922,-169.747 172.872,-162.812"/>
</g>
<!-- Node24 -->
<g id="node10" class="node"><title>Node24</title>
<g id="a_node10"><a xlink:href="../../dc/d77/classocra_1_1Subject.html" target="_top" xlink:title="ocra::Subject">
<polygon fill="white" stroke="black" points="225.381,-75.5 225.381,-93.5 299.746,-93.5 299.746,-75.5 225.381,-75.5"/>
<text text-anchor="middle" x="262.563" y="-81.5" font-family="Helvetica,sans-Serif" font-size="10.00">ocra::Subject</text>
</a>
</g>
</g>
<!-- Node24&#45;&gt;Node19 -->
<g id="edge9" class="edge"><title>Node24&#45;&gt;Node19</title>
<path fill="none" stroke="midnightblue" d="M293.676,-97.4798C307.479,-103.038 324.176,-109.221 339.63,-113.5 353.816,-117.428 369.367,-120.694 383.93,-123.316"/>
<polygon fill="midnightblue" stroke="midnightblue" points="294.775,-94.1476 284.196,-93.579 292.112,-100.621 294.775,-94.1476"/>
</g>
<!-- Node25 -->
<g id="node11" class="node"><title>Node25</title>
<g id="a_node11"><a xlink:href="../../dc/d29/classocra_1_1SubjectBase.html" target="_top" xlink:title="ocra::SubjectBase\&lt;\l EVT_RESIZE \&gt;">
<polygon fill="white" stroke="black" points="41.25,-94.5 41.25,-122.5 144.247,-122.5 144.247,-94.5 41.25,-94.5"/>
<text text-anchor="start" x="49.25" y="-110.5" font-family="Helvetica,sans-Serif" font-size="10.00">ocra::SubjectBase&lt;</text>
<text text-anchor="middle" x="92.7485" y="-100.5" font-family="Helvetica,sans-Serif" font-size="10.00"> EVT_RESIZE &gt;</text>
</a>
</g>
</g>
<!-- Node25&#45;&gt;Node24 -->
<g id="edge10" class="edge"><title>Node25&#45;&gt;Node24</title>
<path fill="none" stroke="midnightblue" d="M154.534,-99.8067C178.262,-96.4133 204.665,-92.6373 225.31,-89.6848"/>
<polygon fill="midnightblue" stroke="midnightblue" points="153.958,-96.3535 144.554,-101.234 154.949,-103.283 153.958,-96.3535"/>
</g>
<!-- Node26 -->
<g id="node12" class="node"><title>Node26</title>
<g id="a_node12"><a xlink:href="../../dc/d29/classocra_1_1SubjectBase.html" target="_top" xlink:title="ocra::SubjectBase\&lt;\l EVT_CHANGE_DEPENDENCIES \&gt;">
<polygon fill="white" stroke="black" points="2.91992,-47.5 2.91992,-75.5 182.577,-75.5 182.577,-47.5 2.91992,-47.5"/>
<text text-anchor="start" x="10.9199" y="-63.5" font-family="Helvetica,sans-Serif" font-size="10.00">ocra::SubjectBase&lt;</text>
<text text-anchor="middle" x="92.7485" y="-53.5" font-family="Helvetica,sans-Serif" font-size="10.00"> EVT_CHANGE_DEPENDENCIES &gt;</text>
</a>
</g>
</g>
<!-- Node26&#45;&gt;Node24 -->
<g id="edge11" class="edge"><title>Node26&#45;&gt;Node24</title>
<path fill="none" stroke="midnightblue" d="M193.112,-75.1184C204.461,-76.6738 215.419,-78.1756 225.116,-79.5047"/>
<polygon fill="midnightblue" stroke="midnightblue" points="193.443,-71.6311 183.061,-73.7408 192.493,-78.5663 193.443,-71.6311"/>
</g>
<!-- Node27 -->
<g id="node13" class="node"><title>Node27</title>
<g id="a_node13"><a xlink:href="../../dc/d29/classocra_1_1SubjectBase.html" target="_top" xlink:title="ocra::SubjectBase\&lt;\l EVT_CHANGE_VALUE \&gt;">
<polygon fill="white" stroke="black" points="26.3452,-0.5 26.3452,-28.5 159.152,-28.5 159.152,-0.5 26.3452,-0.5"/>
<text text-anchor="start" x="34.3452" y="-16.5" font-family="Helvetica,sans-Serif" font-size="10.00">ocra::SubjectBase&lt;</text>
<text text-anchor="middle" x="92.7485" y="-6.5" font-family="Helvetica,sans-Serif" font-size="10.00"> EVT_CHANGE_VALUE &gt;</text>
</a>
</g>
</g>
<!-- Node27&#45;&gt;Node24 -->
<g id="edge12" class="edge"><title>Node27&#45;&gt;Node24</title>
<path fill="none" stroke="midnightblue" d="M168.869,-31.2914C174.566,-33.1824 180.167,-35.2493 185.497,-37.5 209.665,-47.7052 235.074,-64.9193 249.553,-75.4408"/>
<polygon fill="midnightblue" stroke="midnightblue" points="169.813,-27.9194 159.224,-28.2737 167.723,-34.6 169.813,-27.9194"/>
</g>
<!-- Node28 -->
<g id="node14" class="node"><title>Node28</title>
<polygon fill="white" stroke="#bfbfbf" points="405.455,-85.5 405.455,-103.5 478.169,-103.5 478.169,-85.5 405.455,-85.5"/>
<text text-anchor="middle" x="441.812" y="-91.5" font-family="Helvetica,sans-Serif" font-size="10.00">noncopyable</text>
</g>
<!-- Node28&#45;&gt;Node17 -->
<g id="edge13" class="edge"><title>Node28&#45;&gt;Node17</title>
<path fill="none" stroke="#8b1a1a" d="M488.777,-98.5476C525.224,-101.757 575.527,-106.187 609.603,-109.187"/>
<polygon fill="#8b1a1a" stroke="#8b1a1a" points="488.686,-95.0261 478.417,-97.6354 488.072,-101.999 488.686,-95.0261"/>
</g>
<!-- Node29 -->
<g id="node15" class="node"><title>Node29</title>
<g id="a_node15"><a xlink:href="../../dc/d20/classocra_1_1VariableHasRestrictedClassDerivation.html" target="_top" xlink:title="ocra::VariableHasRestricted\lClassDerivation">
<polygon fill="white" stroke="black" points="371.932,-38.5 371.932,-66.5 511.692,-66.5 511.692,-38.5 371.932,-38.5"/>
<text text-anchor="start" x="379.932" y="-54.5" font-family="Helvetica,sans-Serif" font-size="10.00">ocra::VariableHasRestricted</text>
<text text-anchor="middle" x="441.812" y="-44.5" font-family="Helvetica,sans-Serif" font-size="10.00">ClassDerivation</text>
</a>
</g>
</g>
<!-- Node29&#45;&gt;Node17 -->
<g id="edge14" class="edge"><title>Node29&#45;&gt;Node17</title>
<path fill="none" stroke="#8b1a1a" d="M519.504,-68.9034C527.807,-70.9849 536.101,-73.1975 543.994,-75.5 572.139,-83.7104 603.778,-95.4322 624.522,-103.469"/>
<polygon fill="#8b1a1a" stroke="#8b1a1a" points="520.324,-65.5007 509.778,-66.5226 518.659,-72.3 520.324,-65.5007"/>
</g>
</g>
</svg>
