<?xml version="1.0" encoding="UTF-8" standalone="no"?>
<!DOCTYPE svg PUBLIC "-//W3C//DTD SVG 1.1//EN"
 "http://www.w3.org/Graphics/SVG/1.1/DTD/svg11.dtd">
<!-- Generated by graphviz version 2.38.0 (20140413.2041)
 -->
<!-- Title: QuadProg++.cpp Pages: 1 -->
<svg width="551pt" height="137pt"
 viewBox="0.00 0.00 550.71 137.00" xmlns="http://www.w3.org/2000/svg" xmlns:xlink="http://www.w3.org/1999/xlink">
<g id="graph0" class="graph" transform="scale(1 1) rotate(0) translate(4 133)">
<title>QuadProg++.cpp</title>
<polygon fill="white" stroke="none" points="-4,4 -4,-133 546.707,-133 546.707,4 -4,4"/>
<!-- Node0 -->
<g id="node1" class="node"><title>Node0</title>
<polygon fill="#bfbfbf" stroke="black" points="182.089,-110.5 182.089,-128.5 274.256,-128.5 274.256,-110.5 182.089,-110.5"/>
<text text-anchor="middle" x="228.172" y="-116.5" font-family="Helvetica,sans-Serif" font-size="10.00">QuadProg++.cpp</text>
</g>
<!-- Node1 -->
<g id="node2" class="node"><title>Node1</title>
<polygon fill="white" stroke="#bfbfbf" points="0,-55.5 0,-73.5 54.3447,-73.5 54.3447,-55.5 0,-55.5"/>
<text text-anchor="middle" x="27.1724" y="-61.5" font-family="Helvetica,sans-Serif" font-size="10.00">iostream</text>
</g>
<!-- Node0&#45;&gt;Node1 -->
<g id="edge1" class="edge"><title>Node0&#45;&gt;Node1</title>
<path fill="none" stroke="midnightblue" d="M197.645,-110.45C161.856,-101.014 102.565,-85.3797 64.1877,-75.2603"/>
<polygon fill="midnightblue" stroke="midnightblue" points="64.994,-71.8533 54.432,-72.6879 63.2091,-78.6219 64.994,-71.8533"/>
</g>
<!-- Node2 -->
<g id="node3" class="node"><title>Node2</title>
<polygon fill="white" stroke="#bfbfbf" points="72.6084,-55.5 72.6084,-73.5 129.736,-73.5 129.736,-55.5 72.6084,-55.5"/>
<text text-anchor="middle" x="101.172" y="-61.5" font-family="Helvetica,sans-Serif" font-size="10.00">algorithm</text>
</g>
<!-- Node0&#45;&gt;Node2 -->
<g id="edge2" class="edge"><title>Node0&#45;&gt;Node2</title>
<path fill="none" stroke="midnightblue" d="M208.884,-110.45C187.904,-101.695 154.142,-87.6055 130.01,-77.5346"/>
<polygon fill="midnightblue" stroke="midnightblue" points="131.219,-74.2467 120.642,-73.6253 128.523,-80.7067 131.219,-74.2467"/>
</g>
<!-- Node3 -->
<g id="node4" class="node"><title>Node3</title>
<polygon fill="white" stroke="#bfbfbf" points="147.557,-55.5 147.557,-73.5 190.788,-73.5 190.788,-55.5 147.557,-55.5"/>
<text text-anchor="middle" x="169.172" y="-61.5" font-family="Helvetica,sans-Serif" font-size="10.00">cmath</text>
</g>
<!-- Node0&#45;&gt;Node3 -->
<g id="edge3" class="edge"><title>Node0&#45;&gt;Node3</title>
<path fill="none" stroke="midnightblue" d="M219.212,-110.45C210.375,-102.512 196.656,-90.1891 185.817,-80.4519"/>
<polygon fill="midnightblue" stroke="midnightblue" points="187.996,-77.7043 178.218,-73.6253 183.318,-82.9118 187.996,-77.7043"/>
</g>
<!-- Node4 -->
<g id="node5" class="node"><title>Node4</title>
<polygon fill="white" stroke="#bfbfbf" points="208.786,-55.5 208.786,-73.5 247.559,-73.5 247.559,-55.5 208.786,-55.5"/>
<text text-anchor="middle" x="228.172" y="-61.5" font-family="Helvetica,sans-Serif" font-size="10.00">limits</text>
</g>
<!-- Node0&#45;&gt;Node4 -->
<g id="edge4" class="edge"><title>Node0&#45;&gt;Node4</title>
<path fill="none" stroke="midnightblue" d="M228.172,-110.219C228.172,-103.177 228.172,-92.8083 228.172,-83.8277"/>
<polygon fill="midnightblue" stroke="midnightblue" points="231.672,-83.5495 228.172,-73.5496 224.672,-83.5496 231.672,-83.5495"/>
</g>
<!-- Node5 -->
<g id="node6" class="node"><title>Node5</title>
<polygon fill="white" stroke="#bfbfbf" points="265.392,-55.5 265.392,-73.5 316.953,-73.5 316.953,-55.5 265.392,-55.5"/>
<text text-anchor="middle" x="291.172" y="-61.5" font-family="Helvetica,sans-Serif" font-size="10.00">sstream</text>
</g>
<!-- Node0&#45;&gt;Node5 -->
<g id="edge5" class="edge"><title>Node0&#45;&gt;Node5</title>
<path fill="none" stroke="midnightblue" d="M237.741,-110.45C247.269,-102.434 262.113,-89.9471 273.739,-80.1663"/>
<polygon fill="midnightblue" stroke="midnightblue" points="276.115,-82.7413 281.514,-73.6253 271.609,-77.3847 276.115,-82.7413"/>
</g>
<!-- Node6 -->
<g id="node7" class="node"><title>Node6</title>
<polygon fill="white" stroke="#bfbfbf" points="334.771,-55.5 334.771,-73.5 393.574,-73.5 393.574,-55.5 334.771,-55.5"/>
<text text-anchor="middle" x="364.172" y="-61.5" font-family="Helvetica,sans-Serif" font-size="10.00">stdexcept</text>
</g>
<!-- Node0&#45;&gt;Node6 -->
<g id="edge6" class="edge"><title>Node0&#45;&gt;Node6</title>
<path fill="none" stroke="midnightblue" d="M248.828,-110.45C271.494,-101.617 308.093,-87.3546 333.978,-77.267"/>
<polygon fill="midnightblue" stroke="midnightblue" points="335.276,-80.5176 343.323,-73.6253 332.734,-73.9953 335.276,-80.5176"/>
</g>
<!-- Node7 -->
<g id="node8" class="node"><title>Node7</title>
<g id="a_node8"><a xlink:href="../../d8/d25/QuadProg_09_09_8h.html" target="_top" xlink:title="ocra/optim/QuadProg++.h">
<polygon fill="white" stroke="black" points="411.638,-55.5 411.638,-73.5 542.707,-73.5 542.707,-55.5 411.638,-55.5"/>
<text text-anchor="middle" x="477.172" y="-61.5" font-family="Helvetica,sans-Serif" font-size="10.00">ocra/optim/QuadProg++.h</text>
</a>
</g>
</g>
<!-- Node0&#45;&gt;Node7 -->
<g id="edge7" class="edge"><title>Node0&#45;&gt;Node7</title>
<path fill="none" stroke="midnightblue" d="M265.99,-110.45C309.718,-101.143 381.769,-85.8067 429.35,-75.6791"/>
<polygon fill="midnightblue" stroke="midnightblue" points="430.355,-79.0436 439.407,-73.5383 428.898,-72.197 430.355,-79.0436"/>
</g>
<!-- Node8 -->
<g id="node9" class="node"><title>Node8</title>
<polygon fill="white" stroke="#bfbfbf" points="444.158,-0.5 444.158,-18.5 510.187,-18.5 510.187,-0.5 444.158,-0.5"/>
<text text-anchor="middle" x="477.172" y="-6.5" font-family="Helvetica,sans-Serif" font-size="10.00">Eigen/Core</text>
</g>
<!-- Node7&#45;&gt;Node8 -->
<g id="edge8" class="edge"><title>Node7&#45;&gt;Node8</title>
<path fill="none" stroke="midnightblue" d="M477.172,-55.2188C477.172,-48.1769 477.172,-37.8083 477.172,-28.8277"/>
<polygon fill="midnightblue" stroke="midnightblue" points="480.672,-28.5495 477.172,-18.5496 473.672,-28.5496 480.672,-28.5495"/>
</g>
</g>
</svg>
