<?xml version="1.0" encoding="UTF-8" standalone="no"?>
<!DOCTYPE svg PUBLIC "-//W3C//DTD SVG 1.1//EN"
 "http://www.w3.org/Graphics/SVG/1.1/DTD/svg11.dtd">
<!-- Generated by graphviz version 2.38.0 (20140413.2041)
 -->
<!-- Title: ocra::ContactConstraintFeature::Pimpl Pages: 1 -->
<svg width="190pt" height="132pt"
 viewBox="0.00 0.00 189.64 132.00" xmlns="http://www.w3.org/2000/svg" xmlns:xlink="http://www.w3.org/1999/xlink">
<g id="graph0" class="graph" transform="scale(1 1) rotate(0) translate(4 128)">
<title>ocra::ContactConstraintFeature::Pimpl</title>
<polygon fill="white" stroke="none" points="-4,4 -4,-128 185.636,-128 185.636,4 -4,4"/>
<!-- Node1 -->
<g id="node1" class="node"><title>Node1</title>
<polygon fill="#bfbfbf" stroke="black" points="0,-0.5 0,-28.5 155.512,-28.5 155.512,-0.5 0,-0.5"/>
<text text-anchor="start" x="8" y="-16.5" font-family="Helvetica,sans-Serif" font-size="10.00">ocra::ContactConstraintFeature</text>
<text text-anchor="middle" x="77.7559" y="-6.5" font-family="Helvetica,sans-Serif" font-size="10.00">::Pimpl</text>
</g>
<!-- Node2 -->
<g id="node2" class="node"><title>Node2</title>
<polygon fill="white" stroke="#bfbfbf" points="11.4629,-105.5 11.4629,-123.5 68.0488,-123.5 68.0488,-105.5 11.4629,-105.5"/>
<text text-anchor="middle" x="39.7559" y="-111.5" font-family="Helvetica,sans-Serif" font-size="10.00">VectorXd</text>
</g>
<!-- Node2&#45;&gt;Node1 -->
<g id="edge1" class="edge"><title>Node2&#45;&gt;Node1</title>
<path fill="none" stroke="#9a32cd" stroke-dasharray="5,2" d="M36.1155,-95.0164C34.2902,-81.1354 33.7599,-62.0149 40.835,-47 44.211,-39.8353 50.0856,-33.6852 56.1688,-28.7705"/>
<polygon fill="#9a32cd" stroke="#9a32cd" points="32.7223,-95.9483 37.8149,-105.239 39.6276,-94.8003 32.7223,-95.9483"/>
<text text-anchor="middle" x="68.7163" y="-79" font-family="Helvetica,sans-Serif" font-size="10.00"> error</text>
<text text-anchor="middle" x="68.7163" y="-69" font-family="Helvetica,sans-Serif" font-size="10.00">acceleration</text>
<text text-anchor="middle" x="68.7163" y="-59" font-family="Helvetica,sans-Serif" font-size="10.00">errorDot</text>
<text text-anchor="middle" x="68.7163" y="-49" font-family="Helvetica,sans-Serif" font-size="10.00">effort</text>
</g>
<!-- Node3 -->
<g id="node3" class="node"><title>Node3</title>
<polygon fill="white" stroke="#bfbfbf" points="89.0293,-105.5 89.0293,-123.5 144.482,-123.5 144.482,-105.5 89.0293,-105.5"/>
<text text-anchor="middle" x="116.756" y="-111.5" font-family="Helvetica,sans-Serif" font-size="10.00">MatrixXd</text>
</g>
<!-- Node3&#45;&gt;Node1 -->
<g id="edge2" class="edge"><title>Node3&#45;&gt;Node1</title>
<path fill="none" stroke="#9a32cd" stroke-dasharray="5,2" d="M111.638,-95.1698C107.631,-81.6319 101.604,-62.877 94.7559,-47 92.0979,-40.8373 88.657,-34.268 85.5667,-28.7321"/>
<polygon fill="#9a32cd" stroke="#9a32cd" points="108.376,-96.4922 114.501,-105.137 115.104,-94.5593 108.376,-96.4922"/>
<text text-anchor="middle" x="145.696" y="-79" font-family="Helvetica,sans-Serif" font-size="10.00"> Minv</text>
<text text-anchor="middle" x="145.696" y="-69" font-family="Helvetica,sans-Serif" font-size="10.00">spaceTransform</text>
<text text-anchor="middle" x="145.696" y="-59" font-family="Helvetica,sans-Serif" font-size="10.00">M</text>
<text text-anchor="middle" x="145.696" y="-49" font-family="Helvetica,sans-Serif" font-size="10.00">jacobian</text>
</g>
</g>
</svg>
