<?xml version="1.0" encoding="UTF-8" standalone="no"?>
<!DOCTYPE svg PUBLIC "-//W3C//DTD SVG 1.1//EN"
 "http://www.w3.org/Graphics/SVG/1.1/DTD/svg11.dtd">
<!-- Generated by graphviz version 2.38.0 (20140413.2041)
 -->
<!-- Title: OFSQP.h Pages: 1 -->
<svg width="179pt" height="137pt"
 viewBox="0.00 0.00 179.27 137.00" xmlns="http://www.w3.org/2000/svg" xmlns:xlink="http://www.w3.org/1999/xlink">
<g id="graph0" class="graph" transform="scale(1 1) rotate(0) translate(4 133)">
<title>OFSQP.h</title>
<polygon fill="white" stroke="none" points="-4,4 -4,-133 175.271,-133 175.271,4 -4,4"/>
<!-- Node4 -->
<g id="node1" class="node"><title>Node4</title>
<polygon fill="#bfbfbf" stroke="black" points="61.9351,-110.5 61.9351,-128.5 119.991,-128.5 119.991,-110.5 61.9351,-110.5"/>
<text text-anchor="middle" x="90.9629" y="-116.5" font-family="Helvetica,sans-Serif" font-size="10.00">OFSQP.h</text>
</g>
<!-- Node5 -->
<g id="node2" class="node"><title>Node5</title>
<g id="a_node2"><a xlink:href="../../dc/d89/FSQPSolver_8h.html" target="_top" xlink:title="Declaration file of the FSQPSolver class. ">
<polygon fill="white" stroke="black" points="5.28076,-55.5 5.28076,-73.5 84.645,-73.5 84.645,-55.5 5.28076,-55.5"/>
<text text-anchor="middle" x="44.9629" y="-61.5" font-family="Helvetica,sans-Serif" font-size="10.00">FSQPSolver.h</text>
</a>
</g>
</g>
<!-- Node4&#45;&gt;Node5 -->
<g id="edge1" class="edge"><title>Node4&#45;&gt;Node5</title>
<path fill="none" stroke="midnightblue" d="M77.1048,-102.533C68.8024,-92.9673 58.6017,-81.2143 51.9493,-73.5496"/>
<polygon fill="midnightblue" stroke="midnightblue" points="74.5774,-104.961 83.7754,-110.219 79.8639,-100.372 74.5774,-104.961"/>
</g>
<!-- Node7 -->
<g id="node4" class="node"><title>Node7</title>
<g id="a_node4"><a xlink:href="../../d4/df9/OFSQP_8cpp.html" target="_top" xlink:title="OFSQP.cpp">
<polygon fill="white" stroke="black" points="102.654,-55.5 102.654,-73.5 171.271,-73.5 171.271,-55.5 102.654,-55.5"/>
<text text-anchor="middle" x="136.963" y="-61.5" font-family="Helvetica,sans-Serif" font-size="10.00">OFSQP.cpp</text>
</a>
</g>
</g>
<!-- Node4&#45;&gt;Node7 -->
<g id="edge3" class="edge"><title>Node4&#45;&gt;Node7</title>
<path fill="none" stroke="midnightblue" d="M104.821,-102.533C113.123,-92.9673 123.324,-81.2143 129.976,-73.5496"/>
<polygon fill="midnightblue" stroke="midnightblue" points="102.062,-100.372 98.1504,-110.219 107.348,-104.961 102.062,-100.372"/>
</g>
<!-- Node6 -->
<g id="node3" class="node"><title>Node6</title>
<g id="a_node3"><a xlink:href="../../d4/d2f/FSQPSolver_8cpp.html" target="_top" xlink:title="FSQPSolver.cpp">
<polygon fill="white" stroke="black" points="0,-0.5 0,-18.5 89.9258,-18.5 89.9258,-0.5 0,-0.5"/>
<text text-anchor="middle" x="44.9629" y="-6.5" font-family="Helvetica,sans-Serif" font-size="10.00">FSQPSolver.cpp</text>
</a>
</g>
</g>
<!-- Node5&#45;&gt;Node6 -->
<g id="edge2" class="edge"><title>Node5&#45;&gt;Node6</title>
<path fill="none" stroke="midnightblue" d="M44.9629,-45.1746C44.9629,-36.0945 44.9629,-25.5949 44.9629,-18.5496"/>
<polygon fill="midnightblue" stroke="midnightblue" points="41.463,-45.2187 44.9629,-55.2188 48.463,-45.2188 41.463,-45.2187"/>
</g>
</g>
</svg>
