<?xml version="1.0" encoding="UTF-8" standalone="no"?>
<!DOCTYPE svg PUBLIC "-//W3C//DTD SVG 1.1//EN"
 "http://www.w3.org/Graphics/SVG/1.1/DTD/svg11.dtd">
<!-- Generated by graphviz version 2.38.0 (20140413.2041)
 -->
<!-- Title: ocra_recipes::ControlThread Pages: 1 -->
<svg width="587pt" height="158pt"
 viewBox="0.00 0.00 587.09 158.00" xmlns="http://www.w3.org/2000/svg" xmlns:xlink="http://www.w3.org/1999/xlink">
<g id="graph0" class="graph" transform="scale(1 1) rotate(0) translate(4 154)">
<title>ocra_recipes::ControlThread</title>
<polygon fill="white" stroke="none" points="-4,4 -4,-154 583.087,-154 583.087,4 -4,4"/>
<!-- Node2 -->
<g id="node1" class="node"><title>Node2</title>
<polygon fill="#bfbfbf" stroke="black" points="436.358,-72.5 436.358,-90.5 579.087,-90.5 579.087,-72.5 436.358,-72.5"/>
<text text-anchor="middle" x="507.723" y="-78.5" font-family="Helvetica,sans-Serif" font-size="10.00">ocra_recipes::ControlThread</text>
</g>
<!-- Node3 -->
<g id="node2" class="node"><title>Node3</title>
<polygon fill="white" stroke="#bfbfbf" points="180.948,-131.5 180.948,-149.5 290.883,-149.5 290.883,-131.5 180.948,-131.5"/>
<text text-anchor="middle" x="235.916" y="-137.5" font-family="Helvetica,sans-Serif" font-size="10.00">yarp::os::RateThread</text>
</g>
<!-- Node3&#45;&gt;Node2 -->
<g id="edge1" class="edge"><title>Node3&#45;&gt;Node2</title>
<path fill="none" stroke="midnightblue" d="M301.273,-135.864C336.296,-132.376 380.152,-126.432 418.358,-116.5 443.112,-110.065 470.284,-98.592 487.872,-90.5403"/>
<polygon fill="midnightblue" stroke="midnightblue" points="300.796,-132.394 291.173,-136.827 301.46,-139.362 300.796,-132.394"/>
</g>
<!-- Node4 -->
<g id="node3" class="node"><title>Node4</title>
<polygon fill="white" stroke="#bfbfbf" points="5.27588,-70.5 5.27588,-88.5 61.8618,-88.5 61.8618,-70.5 5.27588,-70.5"/>
<text text-anchor="middle" x="33.5688" y="-76.5" font-family="Helvetica,sans-Serif" font-size="10.00">VectorXd</text>
</g>
<!-- Node4&#45;&gt;Node2 -->
<g id="edge2" class="edge"><title>Node4&#45;&gt;Node2</title>
<path fill="none" stroke="#9a32cd" stroke-dasharray="5,2" d="M72.0784,-86.9315C76.4661,-87.5762 80.8906,-88.125 85.1377,-88.5 232.662,-101.525 270.376,-94.3522 418.358,-88.5 424.202,-88.2689 430.257,-87.9522 436.333,-87.5804"/>
<polygon fill="#9a32cd" stroke="#9a32cd" points="72.4414,-83.4445 62.0085,-85.2899 71.3151,-90.3533 72.4414,-83.4445"/>
<text text-anchor="middle" x="235.916" y="-98.5" font-family="Helvetica,sans-Serif" font-size="10.00"> currentStateVector</text>
</g>
<!-- Node7 -->
<g id="node6" class="node"><title>Node7</title>
<g id="a_node6"><a xlink:href="../../d7/d59/classocra__recipes_1_1TaskParameters.html" target="_top" xlink:title="ocra_recipes::TaskParameters">
<polygon fill="white" stroke="black" points="160.389,-47.5 160.389,-65.5 311.442,-65.5 311.442,-47.5 160.389,-47.5"/>
<text text-anchor="middle" x="235.916" y="-53.5" font-family="Helvetica,sans-Serif" font-size="10.00">ocra_recipes::TaskParameters</text>
</a>
</g>
</g>
<!-- Node4&#45;&gt;Node7 -->
<g id="edge6" class="edge"><title>Node4&#45;&gt;Node7</title>
<path fill="none" stroke="#9a32cd" stroke-dasharray="5,2" d="M61.2015,-66.227C68.7545,-63.0789 77.1106,-60.1563 85.1377,-58.5 109.206,-53.5339 135.914,-51.9617 160.034,-51.9544"/>
<polygon fill="#9a32cd" stroke="#9a32cd" points="59.5365,-63.1373 51.8301,-70.4079 62.3885,-69.5299 59.5365,-63.1373"/>
<text text-anchor="middle" x="113.763" y="-80.5" font-family="Helvetica,sans-Serif" font-size="10.00"> currentState</text>
<text text-anchor="middle" x="113.763" y="-70.5" font-family="Helvetica,sans-Serif" font-size="10.00">desired</text>
<text text-anchor="middle" x="113.763" y="-60.5" font-family="Helvetica,sans-Serif" font-size="10.00">weight</text>
</g>
<!-- Node5 -->
<g id="node4" class="node"><title>Node5</title>
<g id="a_node4"><a xlink:href="../../d5/d79/classocra__recipes_1_1ControlThread_1_1inputCallback.html" target="_top" xlink:title="ocra_recipes::ControlThread\l::inputCallback">
<polygon fill="white" stroke="black" points="164.551,-0.5 164.551,-28.5 307.28,-28.5 307.28,-0.5 164.551,-0.5"/>
<text text-anchor="start" x="172.551" y="-16.5" font-family="Helvetica,sans-Serif" font-size="10.00">ocra_recipes::ControlThread</text>
<text text-anchor="middle" x="235.916" y="-6.5" font-family="Helvetica,sans-Serif" font-size="10.00">::inputCallback</text>
</a>
</g>
</g>
<!-- Node5&#45;&gt;Node2 -->
<g id="edge3" class="edge"><title>Node5&#45;&gt;Node2</title>
<path fill="none" stroke="#9a32cd" stroke-dasharray="5,2" d="M317.524,-25.8311C349.253,-31.1538 385.814,-38.3664 418.358,-47.5 442.256,-54.2067 468.705,-64.8307 486.381,-72.4175"/>
<polygon fill="#9a32cd" stroke="#9a32cd" points="317.839,-22.3359 307.404,-24.1693 316.704,-29.2434 317.839,-22.3359"/>
<text text-anchor="middle" x="373.9" y="-49.5" font-family="Helvetica,sans-Serif" font-size="10.00"> inpCallback</text>
</g>
<!-- Node6 -->
<g id="node5" class="node"><title>Node6</title>
<polygon fill="white" stroke="#bfbfbf" points="0,-5.5 0,-23.5 67.1377,-23.5 67.1377,-5.5 0,-5.5"/>
<text text-anchor="middle" x="33.5688" y="-11.5" font-family="Helvetica,sans-Serif" font-size="10.00">PortReader</text>
</g>
<!-- Node6&#45;&gt;Node5 -->
<g id="edge4" class="edge"><title>Node6&#45;&gt;Node5</title>
<path fill="none" stroke="midnightblue" d="M77.2319,-14.5C102.588,-14.5 135.378,-14.5 164.484,-14.5"/>
<polygon fill="midnightblue" stroke="midnightblue" points="77.2039,-11.0001 67.2039,-14.5 77.2039,-18.0001 77.2039,-11.0001"/>
</g>
<!-- Node7&#45;&gt;Node2 -->
<g id="edge5" class="edge"><title>Node7&#45;&gt;Node2</title>
<path fill="none" stroke="#9a32cd" stroke-dasharray="5,2" d="M321.799,-60.7046C352.292,-62.5871 386.911,-65.1523 418.358,-68.5 428.535,-69.5833 439.338,-70.9722 449.767,-72.4369"/>
<polygon fill="#9a32cd" stroke="#9a32cd" points="321.818,-57.1995 311.626,-60.0922 321.398,-64.1869 321.818,-57.1995"/>
<text text-anchor="middle" x="373.9" y="-80.5" font-family="Helvetica,sans-Serif" font-size="10.00"> currentTaskParams</text>
<text text-anchor="middle" x="373.9" y="-70.5" font-family="Helvetica,sans-Serif" font-size="10.00">originalTaskParams</text>
</g>
</g>
</svg>
