<?xml version="1.0" encoding="UTF-8" standalone="no"?>
<!DOCTYPE svg PUBLIC "-//W3C//DTD SVG 1.1//EN"
 "http://www.w3.org/Graphics/SVG/1.1/DTD/svg11.dtd">
<!-- Generated by graphviz version 2.38.0 (20140413.2041)
 -->
<!-- Title: IFunctionProperties.h Pages: 1 -->
<svg width="119pt" height="82pt"
 viewBox="0.00 0.00 119.05 82.00" xmlns="http://www.w3.org/2000/svg" xmlns:xlink="http://www.w3.org/1999/xlink">
<g id="graph0" class="graph" transform="scale(1 1) rotate(0) translate(4 78)">
<title>IFunctionProperties.h</title>
<polygon fill="white" stroke="none" points="-4,4 -4,-78 115.049,-78 115.049,4 -4,4"/>
<!-- Node0 -->
<g id="node1" class="node"><title>Node0</title>
<polygon fill="#bfbfbf" stroke="black" points="0,-55.5 0,-73.5 111.049,-73.5 111.049,-55.5 0,-55.5"/>
<text text-anchor="middle" x="55.5244" y="-61.5" font-family="Helvetica,sans-Serif" font-size="10.00">IFunctionProperties.h</text>
</g>
<!-- Node1 -->
<g id="node2" class="node"><title>Node1</title>
<polygon fill="white" stroke="#bfbfbf" points="5.29785,-0.5 5.29785,-18.5 45.751,-18.5 45.751,-0.5 5.29785,-0.5"/>
<text text-anchor="middle" x="25.5244" y="-6.5" font-family="Helvetica,sans-Serif" font-size="10.00">string</text>
</g>
<!-- Node0&#45;&gt;Node1 -->
<g id="edge1" class="edge"><title>Node0&#45;&gt;Node1</title>
<path fill="none" stroke="midnightblue" d="M50.8369,-55.2188C46.6295,-47.7856 40.324,-36.646 35.0591,-27.3446"/>
<polygon fill="midnightblue" stroke="midnightblue" points="38.0527,-25.528 30.0808,-18.5496 31.9609,-28.9763 38.0527,-25.528"/>
</g>
<!-- Node2 -->
<g id="node3" class="node"><title>Node2</title>
<polygon fill="white" stroke="#bfbfbf" points="63.9087,-0.5 63.9087,-18.5 107.14,-18.5 107.14,-0.5 63.9087,-0.5"/>
<text text-anchor="middle" x="85.5244" y="-6.5" font-family="Helvetica,sans-Serif" font-size="10.00">vector</text>
</g>
<!-- Node0&#45;&gt;Node2 -->
<g id="edge2" class="edge"><title>Node0&#45;&gt;Node2</title>
<path fill="none" stroke="midnightblue" d="M60.2119,-55.2188C64.4193,-47.7856 70.7248,-36.646 75.9897,-27.3446"/>
<polygon fill="midnightblue" stroke="midnightblue" points="79.0879,-28.9763 80.9681,-18.5496 72.9961,-25.528 79.0879,-28.9763"/>
</g>
</g>
</svg>
