<?xml version="1.0" encoding="UTF-8" standalone="no"?>
<!DOCTYPE svg PUBLIC "-//W3C//DTD SVG 1.1//EN"
 "http://www.w3.org/Graphics/SVG/1.1/DTD/svg11.dtd">
<!-- Generated by graphviz version 2.38.0 (20140413.2041)
 -->
<!-- Title: ocra::ReducedContactAvoidanceFunction::Pimpl Pages: 1 -->
<svg width="1515pt" height="410pt"
 viewBox="0.00 0.00 1515.49 410.00" xmlns="http://www.w3.org/2000/svg" xmlns:xlink="http://www.w3.org/1999/xlink">
<g id="graph0" class="graph" transform="scale(1 1) rotate(0) translate(4 406)">
<title>ocra::ReducedContactAvoidanceFunction::Pimpl</title>
<polygon fill="white" stroke="none" points="-4,4 -4,-406 1511.49,-406 1511.49,4 -4,4"/>
<!-- Node1 -->
<g id="node1" class="node"><title>Node1</title>
<polygon fill="#bfbfbf" stroke="black" points="1345.46,-289.5 1345.46,-317.5 1507.49,-317.5 1507.49,-289.5 1345.46,-289.5"/>
<text text-anchor="start" x="1353.46" y="-305.5" font-family="Helvetica,sans-Serif" font-size="10.00">ocra::ReducedContactAvoidance</text>
<text text-anchor="middle" x="1426.47" y="-295.5" font-family="Helvetica,sans-Serif" font-size="10.00">Function::Pimpl</text>
</g>
<!-- Node2 -->
<g id="node2" class="node"><title>Node2</title>
<polygon fill="white" stroke="#bfbfbf" points="636.6,-324.5 636.6,-342.5 693.186,-342.5 693.186,-324.5 636.6,-324.5"/>
<text text-anchor="middle" x="664.893" y="-330.5" font-family="Helvetica,sans-Serif" font-size="10.00">VectorXd</text>
</g>
<!-- Node2&#45;&gt;Node1 -->
<g id="edge1" class="edge"><title>Node2&#45;&gt;Node1</title>
<path fill="none" stroke="#9a32cd" stroke-dasharray="5,2" d="M703.102,-344.842C743.183,-356.04 809.028,-371.5 867.065,-371.5 867.065,-371.5 867.065,-371.5 1157.66,-371.5 1244.49,-371.5 1342.41,-337.507 1392.34,-317.59"/>
<polygon fill="#9a32cd" stroke="#9a32cd" points="703.82,-341.407 693.243,-342.028 701.898,-348.139 703.82,-341.407"/>
<text text-anchor="middle" x="998.328" y="-373.5" font-family="Helvetica,sans-Serif" font-size="10.00"> _fullb</text>
</g>
<!-- Node4 -->
<g id="node4" class="node"><title>Node4</title>
<g id="a_node4"><a xlink:href="../../de/d3a/classocra_1_1LinearFunction.html" target="_top" xlink:title="LinearFunction class. ">
<polygon fill="white" stroke="black" points="944.747,-294.5 944.747,-312.5 1051.91,-312.5 1051.91,-294.5 944.747,-294.5"/>
<text text-anchor="middle" x="998.328" y="-300.5" font-family="Helvetica,sans-Serif" font-size="10.00">ocra::LinearFunction</text>
</a>
</g>
</g>
<!-- Node2&#45;&gt;Node4 -->
<g id="edge26" class="edge"><title>Node2&#45;&gt;Node4</title>
<path fill="none" stroke="#9a32cd" stroke-dasharray="5,2" d="M703.303,-330.114C762.33,-324.771 877.27,-314.367 944.629,-308.27"/>
<polygon fill="#9a32cd" stroke="#9a32cd" points="702.942,-326.632 693.298,-331.019 703.573,-333.604 702.942,-326.632"/>
<text text-anchor="middle" x="868.065" y="-321.5" font-family="Helvetica,sans-Serif" font-size="10.00"> _b</text>
</g>
<!-- Node5 -->
<g id="node5" class="node"><title>Node5</title>
<g id="a_node5"><a xlink:href="../../d2/d99/classocra_1_1Function.html" target="_top" xlink:title="Function class. ">
<polygon fill="white" stroke="black" points="828.383,-175.5 828.383,-193.5 907.747,-193.5 907.747,-175.5 828.383,-175.5"/>
<text text-anchor="middle" x="868.065" y="-181.5" font-family="Helvetica,sans-Serif" font-size="10.00">ocra::Function</text>
</a>
</g>
</g>
<!-- Node2&#45;&gt;Node5 -->
<g id="edge19" class="edge"><title>Node2&#45;&gt;Node5</title>
<path fill="none" stroke="#9a32cd" stroke-dasharray="5,2" d="M703.396,-324.921C740.623,-315.782 794.378,-300.704 810.383,-286.5 840.384,-259.874 857.885,-213.418 864.275,-193.735"/>
<polygon fill="#9a32cd" stroke="#9a32cd" points="702.281,-321.59 693.38,-327.336 703.922,-328.395 702.281,-321.59"/>
<text text-anchor="middle" x="787.587" y="-309.5" font-family="Helvetica,sans-Serif" font-size="10.00"> _value</text>
</g>
<!-- Node3 -->
<g id="node3" class="node"><title>Node3</title>
<g id="a_node3"><a xlink:href="../../de/ddd/classocra_1_1FullDynamicEquationFunction.html" target="_top" xlink:title="Create a linear function that represents the dynamic equation of motion. ">
<polygon fill="white" stroke="black" points="1088.91,-289.5 1088.91,-317.5 1224.41,-317.5 1224.41,-289.5 1088.91,-289.5"/>
<text text-anchor="start" x="1096.91" y="-305.5" font-family="Helvetica,sans-Serif" font-size="10.00">ocra::FullDynamicEquation</text>
<text text-anchor="middle" x="1156.66" y="-295.5" font-family="Helvetica,sans-Serif" font-size="10.00">Function</text>
</a>
</g>
</g>
<!-- Node3&#45;&gt;Node1 -->
<g id="edge2" class="edge"><title>Node3&#45;&gt;Node1</title>
<path fill="none" stroke="#9a32cd" stroke-dasharray="5,2" d="M1234.61,-303.5C1269.24,-303.5 1310.11,-303.5 1345.14,-303.5"/>
<polygon fill="#9a32cd" stroke="#9a32cd" points="1234.55,-300 1224.55,-303.5 1234.55,-307 1234.55,-300"/>
<text text-anchor="middle" x="1284.93" y="-305.5" font-family="Helvetica,sans-Serif" font-size="10.00"> _dynamicEquation</text>
</g>
<!-- Node4&#45;&gt;Node3 -->
<g id="edge3" class="edge"><title>Node4&#45;&gt;Node3</title>
<path fill="none" stroke="midnightblue" d="M1062.29,-303.5C1070.97,-303.5 1079.91,-303.5 1088.65,-303.5"/>
<polygon fill="midnightblue" stroke="midnightblue" points="1062.25,-300 1052.25,-303.5 1062.25,-307 1062.25,-300"/>
</g>
<!-- Node5&#45;&gt;Node4 -->
<g id="edge4" class="edge"><title>Node5&#45;&gt;Node4</title>
<path fill="none" stroke="midnightblue" d="M886.77,-200.927C914.088,-226.272 965.624,-274.086 987.31,-294.206"/>
<polygon fill="midnightblue" stroke="midnightblue" points="888.841,-198.073 879.13,-193.838 884.08,-203.205 888.841,-198.073"/>
</g>
<!-- Node6 -->
<g id="node6" class="node"><title>Node6</title>
<g id="a_node6"><a xlink:href="../../d3/d16/classocra_1_1ObserverSubject.html" target="_top" xlink:title="ocra::ObserverSubject">
<polygon fill="white" stroke="black" points="386.068,-239.5 386.068,-257.5 501.556,-257.5 501.556,-239.5 386.068,-239.5"/>
<text text-anchor="middle" x="443.812" y="-245.5" font-family="Helvetica,sans-Serif" font-size="10.00">ocra::ObserverSubject</text>
</a>
</g>
</g>
<!-- Node6&#45;&gt;Node5 -->
<g id="edge5" class="edge"><title>Node6&#45;&gt;Node5</title>
<path fill="none" stroke="midnightblue" d="M511.982,-246.379C573.436,-243.677 666.705,-237.663 746.792,-224.5 775.55,-219.773 782.751,-217.765 810.383,-208.5 823.048,-204.254 836.859,-198.432 847.677,-193.586"/>
<polygon fill="midnightblue" stroke="midnightblue" points="511.488,-242.896 501.645,-246.815 511.783,-249.89 511.488,-242.896"/>
</g>
<!-- Node21 -->
<g id="node21" class="node"><title>Node21</title>
<g id="a_node21"><a xlink:href="../../d2/dac/classocra_1_1Variable.html" target="_top" xlink:title="This class represents a variable in a mathematical sense. ">
<polygon fill="white" stroke="black" points="626.412,-285.5 626.412,-303.5 703.374,-303.5 703.374,-285.5 626.412,-285.5"/>
<text text-anchor="middle" x="664.893" y="-291.5" font-family="Helvetica,sans-Serif" font-size="10.00">ocra::Variable</text>
</a>
</g>
</g>
<!-- Node6&#45;&gt;Node21 -->
<g id="edge23" class="edge"><title>Node6&#45;&gt;Node21</title>
<path fill="none" stroke="midnightblue" d="M501.549,-259.488C516.052,-262.359 531.611,-265.493 545.994,-268.5 572.871,-274.119 603.114,-280.796 626.24,-285.976"/>
<polygon fill="midnightblue" stroke="midnightblue" points="502.192,-256.047 491.704,-257.547 500.838,-262.915 502.192,-256.047"/>
</g>
<!-- Node7 -->
<g id="node7" class="node"><title>Node7</title>
<g id="a_node7"><a xlink:href="../../d2/d45/classocra_1_1Observer.html" target="_top" xlink:title="ocra::Observer">
<polygon fill="white" stroke="black" points="222.497,-307.5 222.497,-325.5 304.63,-325.5 304.63,-307.5 222.497,-307.5"/>
<text text-anchor="middle" x="263.563" y="-313.5" font-family="Helvetica,sans-Serif" font-size="10.00">ocra::Observer</text>
</a>
</g>
</g>
<!-- Node7&#45;&gt;Node6 -->
<g id="edge6" class="edge"><title>Node7&#45;&gt;Node6</title>
<path fill="none" stroke="midnightblue" d="M284.539,-301.224C299.495,-290.514 320.869,-276.698 341.63,-268.5 355.537,-263.008 371.136,-258.971 385.844,-256.024"/>
<polygon fill="midnightblue" stroke="midnightblue" points="282.103,-298.67 276.118,-307.413 286.249,-304.311 282.103,-298.67"/>
</g>
<!-- Node8 -->
<g id="node8" class="node"><title>Node8</title>
<g id="a_node8"><a xlink:href="../../d4/dee/classocra_1_1ObserverBase.html" target="_top" xlink:title="ocra::ObserverBase\l\&lt; EVT_RESIZE \&gt;">
<polygon fill="white" stroke="black" points="40.2856,-373.5 40.2856,-401.5 145.211,-401.5 145.211,-373.5 40.2856,-373.5"/>
<text text-anchor="start" x="48.2856" y="-389.5" font-family="Helvetica,sans-Serif" font-size="10.00">ocra::ObserverBase</text>
<text text-anchor="middle" x="92.7485" y="-379.5" font-family="Helvetica,sans-Serif" font-size="10.00">&lt; EVT_RESIZE &gt;</text>
</a>
</g>
</g>
<!-- Node8&#45;&gt;Node7 -->
<g id="edge7" class="edge"><title>Node8&#45;&gt;Node7</title>
<path fill="none" stroke="midnightblue" d="M155.373,-374.87C165.614,-371.976 175.989,-368.535 185.497,-364.5 210.164,-354.032 236.055,-336.3 250.667,-325.567"/>
<polygon fill="midnightblue" stroke="midnightblue" points="154.382,-371.512 145.628,-377.48 156.193,-378.274 154.382,-371.512"/>
</g>
<!-- Node9 -->
<g id="node9" class="node"><title>Node9</title>
<g id="a_node9"><a xlink:href="../../d4/dee/classocra_1_1ObserverBase.html" target="_top" xlink:title="ocra::ObserverBase\l\&lt; EVT_CHANGE_DEPENDENCIES \&gt;">
<polygon fill="white" stroke="black" points="0,-326.5 0,-354.5 185.497,-354.5 185.497,-326.5 0,-326.5"/>
<text text-anchor="start" x="8" y="-342.5" font-family="Helvetica,sans-Serif" font-size="10.00">ocra::ObserverBase</text>
<text text-anchor="middle" x="92.7485" y="-332.5" font-family="Helvetica,sans-Serif" font-size="10.00">&lt; EVT_CHANGE_DEPENDENCIES &gt;</text>
</a>
</g>
</g>
<!-- Node9&#45;&gt;Node7 -->
<g id="edge8" class="edge"><title>Node9&#45;&gt;Node7</title>
<path fill="none" stroke="midnightblue" d="M195.725,-326.002C205,-324.684 213.979,-323.407 222.187,-322.24"/>
<polygon fill="midnightblue" stroke="midnightblue" points="194.974,-322.574 185.566,-327.447 195.959,-329.504 194.974,-322.574"/>
</g>
<!-- Node10 -->
<g id="node10" class="node"><title>Node10</title>
<g id="a_node10"><a xlink:href="../../d4/dee/classocra_1_1ObserverBase.html" target="_top" xlink:title="ocra::ObserverBase\l\&lt; EVT_CHANGE_VALUE \&gt;">
<polygon fill="white" stroke="black" points="23.4253,-279.5 23.4253,-307.5 162.072,-307.5 162.072,-279.5 23.4253,-279.5"/>
<text text-anchor="start" x="31.4253" y="-295.5" font-family="Helvetica,sans-Serif" font-size="10.00">ocra::ObserverBase</text>
<text text-anchor="middle" x="92.7485" y="-285.5" font-family="Helvetica,sans-Serif" font-size="10.00">&lt; EVT_CHANGE_VALUE &gt;</text>
</a>
</g>
</g>
<!-- Node10&#45;&gt;Node7 -->
<g id="edge9" class="edge"><title>Node10&#45;&gt;Node7</title>
<path fill="none" stroke="midnightblue" d="M172.466,-304.225C189.64,-306.565 207.13,-308.948 222.074,-310.984"/>
<polygon fill="midnightblue" stroke="midnightblue" points="172.793,-300.737 162.412,-302.855 171.848,-307.673 172.793,-300.737"/>
</g>
<!-- Node11 -->
<g id="node11" class="node"><title>Node11</title>
<g id="a_node11"><a xlink:href="../../dc/d77/classocra_1_1Subject.html" target="_top" xlink:title="ocra::Subject">
<polygon fill="white" stroke="black" points="226.381,-210.5 226.381,-228.5 300.746,-228.5 300.746,-210.5 226.381,-210.5"/>
<text text-anchor="middle" x="263.563" y="-216.5" font-family="Helvetica,sans-Serif" font-size="10.00">ocra::Subject</text>
</a>
</g>
</g>
<!-- Node11&#45;&gt;Node6 -->
<g id="edge10" class="edge"><title>Node11&#45;&gt;Node6</title>
<path fill="none" stroke="midnightblue" d="M311.07,-227.066C334.43,-230.867 362.898,-235.499 387.386,-239.483"/>
<polygon fill="midnightblue" stroke="midnightblue" points="311.497,-223.59 301.065,-225.439 310.373,-230.499 311.497,-223.59"/>
</g>
<!-- Node12 -->
<g id="node12" class="node"><title>Node12</title>
<g id="a_node12"><a xlink:href="../../dc/d29/classocra_1_1SubjectBase.html" target="_top" xlink:title="ocra::SubjectBase\&lt;\l EVT_RESIZE \&gt;">
<polygon fill="white" stroke="black" points="41.25,-232.5 41.25,-260.5 144.247,-260.5 144.247,-232.5 41.25,-232.5"/>
<text text-anchor="start" x="49.25" y="-248.5" font-family="Helvetica,sans-Serif" font-size="10.00">ocra::SubjectBase&lt;</text>
<text text-anchor="middle" x="92.7485" y="-238.5" font-family="Helvetica,sans-Serif" font-size="10.00"> EVT_RESIZE &gt;</text>
</a>
</g>
</g>
<!-- Node12&#45;&gt;Node11 -->
<g id="edge11" class="edge"><title>Node12&#45;&gt;Node11</title>
<path fill="none" stroke="midnightblue" d="M154.489,-236.785C178.489,-232.947 205.266,-228.664 226.162,-225.322"/>
<polygon fill="midnightblue" stroke="midnightblue" points="153.72,-233.364 144.399,-238.399 154.826,-240.276 153.72,-233.364"/>
</g>
<!-- Node13 -->
<g id="node13" class="node"><title>Node13</title>
<g id="a_node13"><a xlink:href="../../dc/d29/classocra_1_1SubjectBase.html" target="_top" xlink:title="ocra::SubjectBase\&lt;\l EVT_CHANGE_DEPENDENCIES \&gt;">
<polygon fill="white" stroke="black" points="2.91992,-185.5 2.91992,-213.5 182.577,-213.5 182.577,-185.5 2.91992,-185.5"/>
<text text-anchor="start" x="10.9199" y="-201.5" font-family="Helvetica,sans-Serif" font-size="10.00">ocra::SubjectBase&lt;</text>
<text text-anchor="middle" x="92.7485" y="-191.5" font-family="Helvetica,sans-Serif" font-size="10.00"> EVT_CHANGE_DEPENDENCIES &gt;</text>
</a>
</g>
</g>
<!-- Node13&#45;&gt;Node11 -->
<g id="edge12" class="edge"><title>Node13&#45;&gt;Node11</title>
<path fill="none" stroke="midnightblue" d="M192.668,-211.219C204.562,-212.628 216.06,-213.991 226.178,-215.189"/>
<polygon fill="midnightblue" stroke="midnightblue" points="192.948,-207.728 182.605,-210.027 192.124,-214.679 192.948,-207.728"/>
</g>
<!-- Node14 -->
<g id="node14" class="node"><title>Node14</title>
<g id="a_node14"><a xlink:href="../../dc/d29/classocra_1_1SubjectBase.html" target="_top" xlink:title="ocra::SubjectBase\&lt;\l EVT_CHANGE_VALUE \&gt;">
<polygon fill="white" stroke="black" points="26.3452,-138.5 26.3452,-166.5 159.152,-166.5 159.152,-138.5 26.3452,-138.5"/>
<text text-anchor="start" x="34.3452" y="-154.5" font-family="Helvetica,sans-Serif" font-size="10.00">ocra::SubjectBase&lt;</text>
<text text-anchor="middle" x="92.7485" y="-144.5" font-family="Helvetica,sans-Serif" font-size="10.00"> EVT_CHANGE_VALUE &gt;</text>
</a>
</g>
</g>
<!-- Node14&#45;&gt;Node11 -->
<g id="edge13" class="edge"><title>Node14&#45;&gt;Node11</title>
<path fill="none" stroke="midnightblue" d="M168.784,-169.498C174.5,-171.342 180.129,-173.342 185.497,-175.5 209.084,-184.981 234.281,-200.519 249.214,-210.367"/>
<polygon fill="midnightblue" stroke="midnightblue" points="169.7,-166.119 159.114,-166.542 167.653,-172.813 169.7,-166.119"/>
</g>
<!-- Node15 -->
<g id="node15" class="node"><title>Node15</title>
<g id="a_node15"><a xlink:href="../../dd/d68/classocra_1_1IFunctionProperties.html" target="_top" xlink:title="ocra::IFunctionProperties">
<polygon fill="white" stroke="black" points="601.034,-197.5 601.034,-215.5 728.752,-215.5 728.752,-197.5 601.034,-197.5"/>
<text text-anchor="middle" x="664.893" y="-203.5" font-family="Helvetica,sans-Serif" font-size="10.00">ocra::IFunctionProperties</text>
</a>
</g>
</g>
<!-- Node15&#45;&gt;Node5 -->
<g id="edge14" class="edge"><title>Node15&#45;&gt;Node5</title>
<path fill="none" stroke="midnightblue" d="M738.857,-199.204C761.762,-196.839 787.136,-194.142 810.383,-191.5 816.195,-190.839 822.34,-190.112 828.354,-189.382"/>
<polygon fill="midnightblue" stroke="midnightblue" points="738.455,-195.727 728.865,-200.231 739.17,-202.69 738.455,-195.727"/>
</g>
<!-- Node16 -->
<g id="node16" class="node"><title>Node16</title>
<polygon fill="white" stroke="#bfbfbf" points="582.994,-150.5 582.994,-178.5 746.792,-178.5 746.792,-150.5 582.994,-150.5"/>
<text text-anchor="start" x="590.994" y="-166.5" font-family="Helvetica,sans-Serif" font-size="10.00">OCRA_FUNCTION_INTERFACE</text>
<text text-anchor="middle" x="664.893" y="-156.5" font-family="Helvetica,sans-Serif" font-size="10.00">_INHERITANCEpublic</text>
</g>
<!-- Node16&#45;&gt;Node5 -->
<g id="edge15" class="edge"><title>Node16&#45;&gt;Node5</title>
<path fill="none" stroke="#8b1a1a" d="M757.118,-173.569C782.113,-176.054 807.885,-178.616 828.189,-180.635"/>
<polygon fill="#8b1a1a" stroke="#8b1a1a" points="757.145,-170.055 746.848,-172.548 756.452,-177.021 757.145,-170.055"/>
</g>
<!-- Node17 -->
<g id="node17" class="node"><title>Node17</title>
<g id="a_node17"><a xlink:href="../../db/de3/classocra_1_1NamedInstance.html" target="_top" xlink:title="ocra::NamedInstance">
<polygon fill="white" stroke="black" points="609.369,-113.5 609.369,-131.5 720.417,-131.5 720.417,-113.5 609.369,-113.5"/>
<text text-anchor="middle" x="664.893" y="-119.5" font-family="Helvetica,sans-Serif" font-size="10.00">ocra::NamedInstance</text>
</a>
</g>
</g>
<!-- Node17&#45;&gt;Node5 -->
<g id="edge16" class="edge"><title>Node17&#45;&gt;Node5</title>
<path fill="none" stroke="midnightblue" d="M721.435,-133.841C729.974,-135.877 738.653,-138.117 746.792,-140.5 781.574,-150.683 820.823,-165.737 844.75,-175.33"/>
<polygon fill="midnightblue" stroke="midnightblue" points="722.047,-130.39 711.516,-131.548 720.47,-137.211 722.047,-130.39"/>
</g>
<!-- Node18 -->
<g id="node18" class="node"><title>Node18</title>
<g id="a_node18"><a xlink:href="../../d8/d24/classocra_1_1AbilitySet.html" target="_top" xlink:title="ocra::AbilitySet">
<polygon fill="white" stroke="black" points="623.546,-76.5 623.546,-94.5 706.24,-94.5 706.24,-76.5 623.546,-76.5"/>
<text text-anchor="middle" x="664.893" y="-82.5" font-family="Helvetica,sans-Serif" font-size="10.00">ocra::AbilitySet</text>
</a>
</g>
</g>
<!-- Node18&#45;&gt;Node5 -->
<g id="edge17" class="edge"><title>Node18&#45;&gt;Node5</title>
<path fill="none" stroke="midnightblue" d="M716.667,-94.0002C726.841,-96.4772 737.311,-99.6004 746.792,-103.5 791.494,-121.886 836.796,-158.255 856.654,-175.291"/>
<polygon fill="midnightblue" stroke="midnightblue" points="717.164,-90.5245 706.639,-91.7339 715.621,-97.3523 717.164,-90.5245"/>
</g>
<!-- Node19 -->
<g id="node19" class="node"><title>Node19</title>
<g id="a_node19"><a xlink:href="../../d5/dc0/classocra_1_1CoupledInputOutputSize.html" target="_top" xlink:title="ocra::CoupledInputOutputSize">
<polygon fill="white" stroke="black" points="589.906,-39.5 589.906,-57.5 739.88,-57.5 739.88,-39.5 589.906,-39.5"/>
<text text-anchor="middle" x="664.893" y="-45.5" font-family="Helvetica,sans-Serif" font-size="10.00">ocra::CoupledInputOutputSize</text>
</a>
</g>
</g>
<!-- Node19&#45;&gt;Node5 -->
<g id="edge18" class="edge"><title>Node19&#45;&gt;Node5</title>
<path fill="none" stroke="midnightblue" d="M730.068,-60.3477C735.817,-62.1341 741.471,-64.174 746.792,-66.5 778.283,-80.2661 785.5,-86.7925 810.383,-110.5 831.941,-131.04 851.791,-160.282 861.252,-175.106"/>
<polygon fill="midnightblue" stroke="midnightblue" points="730.919,-56.9511 720.343,-57.5752 729,-63.6829 730.919,-56.9511"/>
</g>
<!-- Node20 -->
<g id="node20" class="node"><title>Node20</title>
<polygon fill="white" stroke="#bfbfbf" points="637.167,-0.5 637.167,-18.5 692.62,-18.5 692.62,-0.5 637.167,-0.5"/>
<text text-anchor="middle" x="664.893" y="-6.5" font-family="Helvetica,sans-Serif" font-size="10.00">MatrixXd</text>
</g>
<!-- Node20&#45;&gt;Node1 -->
<g id="edge27" class="edge"><title>Node20&#45;&gt;Node1</title>
<path fill="none" stroke="#9a32cd" stroke-dasharray="5,2" d="M703.072,-8.31842C743.443,-7.13875 809.825,-5.5 867.065,-5.5 867.065,-5.5 867.065,-5.5 1157.66,-5.5 1312.08,-5.5 1400.08,-229.6 1420.73,-289.127"/>
<polygon fill="#9a32cd" stroke="#9a32cd" points="702.788,-4.82523 692.897,-8.62218 702.997,-11.8221 702.788,-4.82523"/>
<text text-anchor="middle" x="998.328" y="-7.5" font-family="Helvetica,sans-Serif" font-size="10.00"> _fullJacobian</text>
</g>
<!-- Node20&#45;&gt;Node5 -->
<g id="edge20" class="edge"><title>Node20&#45;&gt;Node5</title>
<path fill="none" stroke="#9a32cd" stroke-dasharray="5,2" d="M702.652,-13.5927C735.18,-19.1036 781.799,-31.9161 810.383,-61.5 843.548,-95.8259 859.757,-153.055 865.047,-175.281"/>
<polygon fill="#9a32cd" stroke="#9a32cd" points="703.042,-10.1117 692.626,-12.0479 701.976,-17.03 703.042,-10.1117"/>
<text text-anchor="middle" x="787.587" y="-63.5" font-family="Helvetica,sans-Serif" font-size="10.00"> _jacobian</text>
</g>
<!-- Node21&#45;&gt;Node5 -->
<g id="edge21" class="edge"><title>Node21&#45;&gt;Node5</title>
<path fill="none" stroke="#9a32cd" stroke-dasharray="5,2" d="M713.623,-288.394C743.341,-282.868 781.308,-272.54 810.383,-253.5 834.506,-237.703 853.497,-208.436 862.079,-193.612"/>
<polygon fill="#9a32cd" stroke="#9a32cd" points="712.738,-284.996 703.484,-290.155 713.935,-291.892 712.738,-284.996"/>
<text text-anchor="middle" x="787.587" y="-277.5" font-family="Helvetica,sans-Serif" font-size="10.00"> x</text>
</g>
<!-- Node22 -->
<g id="node22" class="node"><title>Node22</title>
<g id="a_node22"><a xlink:href="../../d0/d29/classocra_1_1Component.html" target="_top" xlink:title="ocra::Component\&lt; Variable,\l CompositeVariable, VariableParenthood \&gt;">
<polygon fill="white" stroke="black" points="341.63,-362.5 341.63,-390.5 545.994,-390.5 545.994,-362.5 341.63,-362.5"/>
<text text-anchor="start" x="349.63" y="-378.5" font-family="Helvetica,sans-Serif" font-size="10.00">ocra::Component&lt; Variable,</text>
<text text-anchor="middle" x="443.812" y="-368.5" font-family="Helvetica,sans-Serif" font-size="10.00"> CompositeVariable, VariableParenthood &gt;</text>
</a>
</g>
</g>
<!-- Node22&#45;&gt;Node21 -->
<g id="edge22" class="edge"><title>Node22&#45;&gt;Node21</title>
<path fill="none" stroke="midnightblue" d="M533.474,-358.676C537.799,-356.817 541.999,-354.765 545.994,-352.5 566.5,-340.873 562.544,-326.224 582.994,-314.5 596.048,-307.017 611.847,-302.313 626.006,-299.365"/>
<polygon fill="midnightblue" stroke="midnightblue" points="531.876,-355.543 523.838,-362.444 534.426,-362.062 531.876,-355.543"/>
</g>
<!-- Node23 -->
<g id="node23" class="node"><title>Node23</title>
<polygon fill="white" stroke="#bfbfbf" points="407.455,-325.5 407.455,-343.5 480.169,-343.5 480.169,-325.5 407.455,-325.5"/>
<text text-anchor="middle" x="443.812" y="-331.5" font-family="Helvetica,sans-Serif" font-size="10.00">noncopyable</text>
</g>
<!-- Node23&#45;&gt;Node21 -->
<g id="edge24" class="edge"><title>Node23&#45;&gt;Node21</title>
<path fill="none" stroke="#8b1a1a" d="M490.591,-326.142C530.871,-318.787 588.795,-308.212 626.386,-301.348"/>
<polygon fill="#8b1a1a" stroke="#8b1a1a" points="489.707,-322.745 480.499,-327.984 490.965,-329.631 489.707,-322.745"/>
</g>
<!-- Node24 -->
<g id="node24" class="node"><title>Node24</title>
<g id="a_node24"><a xlink:href="../../dc/d20/classocra_1_1VariableHasRestrictedClassDerivation.html" target="_top" xlink:title="ocra::VariableHasRestricted\lClassDerivation">
<polygon fill="white" stroke="black" points="373.932,-278.5 373.932,-306.5 513.692,-306.5 513.692,-278.5 373.932,-278.5"/>
<text text-anchor="start" x="381.932" y="-294.5" font-family="Helvetica,sans-Serif" font-size="10.00">ocra::VariableHasRestricted</text>
<text text-anchor="middle" x="443.812" y="-284.5" font-family="Helvetica,sans-Serif" font-size="10.00">ClassDerivation</text>
</a>
</g>
</g>
<!-- Node24&#45;&gt;Node21 -->
<g id="edge25" class="edge"><title>Node24&#45;&gt;Node21</title>
<path fill="none" stroke="#8b1a1a" d="M523.996,-293.223C558.816,-293.541 598.079,-293.899 626.126,-294.155"/>
<polygon fill="#8b1a1a" stroke="#8b1a1a" points="523.861,-289.722 513.83,-293.13 523.798,-296.721 523.861,-289.722"/>
</g>
</g>
</svg>
