<?xml version="1.0" encoding="UTF-8" standalone="no"?>
<!DOCTYPE svg PUBLIC "-//W3C//DTD SVG 1.1//EN"
 "http://www.w3.org/Graphics/SVG/1.1/DTD/svg11.dtd">
<!-- Generated by graphviz version 2.38.0 (20140413.2041)
 -->
<!-- Title: ocra::ReducedContactAvoidanceFunction::Pimpl Pages: 1 -->
<svg width="1550pt" height="430pt"
 viewBox="0.00 0.00 1550.06 429.50" xmlns="http://www.w3.org/2000/svg" xmlns:xlink="http://www.w3.org/1999/xlink">
<g id="graph0" class="graph" transform="scale(1 1) rotate(0) translate(4 425.5)">
<title>ocra::ReducedContactAvoidanceFunction::Pimpl</title>
<polygon fill="white" stroke="none" points="-4,4 -4,-425.5 1546.06,-425.5 1546.06,4 -4,4"/>
<!-- Node1 -->
<g id="node1" class="node"><title>Node1</title>
<polygon fill="#bfbfbf" stroke="black" points="1380.04,-170.5 1380.04,-198.5 1542.06,-198.5 1542.06,-170.5 1380.04,-170.5"/>
<text text-anchor="start" x="1388.04" y="-186.5" font-family="Helvetica,sans-Serif" font-size="10.00">ocra::ReducedContactAvoidance</text>
<text text-anchor="middle" x="1461.05" y="-176.5" font-family="Helvetica,sans-Serif" font-size="10.00">Function::Pimpl</text>
</g>
<!-- Node2 -->
<g id="node2" class="node"><title>Node2</title>
<polygon fill="white" stroke="#bfbfbf" points="636.6,-371.5 636.6,-389.5 693.186,-389.5 693.186,-371.5 636.6,-371.5"/>
<text text-anchor="middle" x="664.893" y="-377.5" font-family="Helvetica,sans-Serif" font-size="10.00">VectorXd</text>
</g>
<!-- Node2&#45;&gt;Node1 -->
<g id="edge1" class="edge"><title>Node2&#45;&gt;Node1</title>
<path fill="none" stroke="#9a32cd" stroke-dasharray="5,2" d="M703.234,-389.753C743.426,-398.888 809.363,-411.5 867.065,-411.5 867.065,-411.5 867.065,-411.5 1192.23,-411.5 1324.5,-411.5 1424.96,-248.396 1452.5,-198.7"/>
<polygon fill="#9a32cd" stroke="#9a32cd" points="703.879,-386.31 693.346,-387.457 702.295,-393.128 703.879,-386.31"/>
<text text-anchor="middle" x="998.328" y="-413.5" font-family="Helvetica,sans-Serif" font-size="10.00"> _fullb</text>
</g>
<!-- Node4 -->
<g id="node4" class="node"><title>Node4</title>
<g id="a_node4"><a xlink:href="../../de/d3a/classocra_1_1LinearFunction.html" target="_top" xlink:title="LinearFunction class. ">
<polygon fill="white" stroke="black" points="944.747,-221.5 944.747,-239.5 1051.91,-239.5 1051.91,-221.5 944.747,-221.5"/>
<text text-anchor="middle" x="998.328" y="-227.5" font-family="Helvetica,sans-Serif" font-size="10.00">ocra::LinearFunction</text>
</a>
</g>
</g>
<!-- Node2&#45;&gt;Node4 -->
<g id="edge26" class="edge"><title>Node2&#45;&gt;Node4</title>
<path fill="none" stroke="#9a32cd" stroke-dasharray="5,2" d="M703.215,-379.733C733.118,-378.032 775.663,-373.133 810.383,-359.5 886.361,-329.666 961.698,-263.736 987.754,-239.59"/>
<polygon fill="#9a32cd" stroke="#9a32cd" points="703.021,-376.238 693.199,-380.211 703.354,-383.23 703.021,-376.238"/>
<text text-anchor="middle" x="868.065" y="-353.5" font-family="Helvetica,sans-Serif" font-size="10.00"> _b</text>
</g>
<!-- Node5 -->
<g id="node5" class="node"><title>Node5</title>
<g id="a_node5"><a xlink:href="../../d2/d99/classocra_1_1Function.html" target="_top" xlink:title="Function class. ">
<polygon fill="white" stroke="black" points="828.383,-221.5 828.383,-239.5 907.747,-239.5 907.747,-221.5 828.383,-221.5"/>
<text text-anchor="middle" x="868.065" y="-227.5" font-family="Helvetica,sans-Serif" font-size="10.00">ocra::Function</text>
</a>
</g>
</g>
<!-- Node2&#45;&gt;Node5 -->
<g id="edge19" class="edge"><title>Node2&#45;&gt;Node5</title>
<path fill="none" stroke="#9a32cd" stroke-dasharray="5,2" d="M703.265,-375.01C717.331,-372.105 733.202,-367.792 746.792,-361.5 750.779,-359.654 807.344,-317.672 810.383,-314.5 833.507,-290.362 853.529,-255.783 862.316,-239.558"/>
<polygon fill="#9a32cd" stroke="#9a32cd" points="702.57,-371.579 693.399,-376.884 703.877,-378.456 702.57,-371.579"/>
<text text-anchor="middle" x="787.587" y="-351.5" font-family="Helvetica,sans-Serif" font-size="10.00"> _value</text>
</g>
<!-- Node3 -->
<g id="node3" class="node"><title>Node3</title>
<g id="a_node3"><a xlink:href="../../de/ddd/classocra_1_1FullDynamicEquationFunction.html" target="_top" xlink:title="Create a linear function that represents the dynamic equation of motion. ">
<polygon fill="white" stroke="black" points="1123.49,-199.5 1123.49,-227.5 1258.98,-227.5 1258.98,-199.5 1123.49,-199.5"/>
<text text-anchor="start" x="1131.49" y="-215.5" font-family="Helvetica,sans-Serif" font-size="10.00">ocra::FullDynamicEquation</text>
<text text-anchor="middle" x="1191.23" y="-205.5" font-family="Helvetica,sans-Serif" font-size="10.00">Function</text>
</a>
</g>
</g>
<!-- Node3&#45;&gt;Node1 -->
<g id="edge2" class="edge"><title>Node3&#45;&gt;Node1</title>
<path fill="none" stroke="#9a32cd" stroke-dasharray="5,2" d="M1269.19,-205.167C1303.81,-201.418 1344.69,-196.991 1379.71,-193.199"/>
<polygon fill="#9a32cd" stroke="#9a32cd" points="1268.69,-201.701 1259.12,-206.257 1269.44,-208.66 1268.69,-201.701"/>
<text text-anchor="middle" x="1319.51" y="-206.5" font-family="Helvetica,sans-Serif" font-size="10.00"> _dynamicEquation</text>
</g>
<!-- Node4&#45;&gt;Node3 -->
<g id="edge3" class="edge"><title>Node4&#45;&gt;Node3</title>
<path fill="none" stroke="midnightblue" d="M1062.06,-224.914C1081.71,-223.164 1103.47,-221.227 1123.39,-219.452"/>
<polygon fill="midnightblue" stroke="midnightblue" points="1061.65,-221.436 1052,-225.81 1062.27,-228.409 1061.65,-221.436"/>
</g>
<!-- Node5&#45;&gt;Node4 -->
<g id="edge4" class="edge"><title>Node5&#45;&gt;Node4</title>
<path fill="none" stroke="midnightblue" d="M918.15,-230.5C926.749,-230.5 935.73,-230.5 944.427,-230.5"/>
<polygon fill="midnightblue" stroke="midnightblue" points="917.896,-227 907.896,-230.5 917.896,-234 917.896,-227"/>
</g>
<!-- Node6 -->
<g id="node6" class="node"><title>Node6</title>
<g id="a_node6"><a xlink:href="../../d3/d16/classocra_1_1ObserverSubject.html" target="_top" xlink:title="ocra::ObserverSubject">
<polygon fill="white" stroke="black" points="386.068,-101.5 386.068,-119.5 501.556,-119.5 501.556,-101.5 386.068,-101.5"/>
<text text-anchor="middle" x="443.812" y="-107.5" font-family="Helvetica,sans-Serif" font-size="10.00">ocra::ObserverSubject</text>
</a>
</g>
</g>
<!-- Node6&#45;&gt;Node5 -->
<g id="edge5" class="edge"><title>Node6&#45;&gt;Node5</title>
<path fill="none" stroke="midnightblue" d="M511.713,-105.802C574.008,-103.489 668.728,-105.289 746.792,-129.5 799.659,-145.896 844.31,-199.798 860.532,-221.414"/>
<polygon fill="midnightblue" stroke="midnightblue" points="511.465,-102.309 501.619,-106.223 511.757,-109.303 511.465,-102.309"/>
</g>
<!-- Node21 -->
<g id="node21" class="node"><title>Node21</title>
<g id="a_node21"><a xlink:href="../../d2/dac/classocra_1_1Variable.html" target="_top" xlink:title="This class represents a variable in a mathematical sense. ">
<polygon fill="white" stroke="black" points="626.412,-176.5 626.412,-194.5 703.374,-194.5 703.374,-176.5 626.412,-176.5"/>
<text text-anchor="middle" x="664.893" y="-182.5" font-family="Helvetica,sans-Serif" font-size="10.00">ocra::Variable</text>
</a>
</g>
</g>
<!-- Node6&#45;&gt;Node21 -->
<g id="edge23" class="edge"><title>Node6&#45;&gt;Node21</title>
<path fill="none" stroke="midnightblue" d="M511.54,-121.507C523.377,-124.796 535.322,-129.039 545.994,-134.5 565.349,-144.404 563.629,-156.617 582.994,-166.5 596.359,-173.32 612.216,-177.735 626.335,-180.573"/>
<polygon fill="midnightblue" stroke="midnightblue" points="512.208,-118.065 501.651,-118.962 510.464,-124.844 512.208,-118.065"/>
</g>
<!-- Node25 -->
<g id="node25" class="node"><title>Node25</title>
<g id="a_node25"><a xlink:href="../../d4/d00/classocra_1_1Model.html" target="_top" xlink:title="Model class. ">
<polygon fill="white" stroke="black" points="833.942,-51.5 833.942,-69.5 902.188,-69.5 902.188,-51.5 833.942,-51.5"/>
<text text-anchor="middle" x="868.065" y="-57.5" font-family="Helvetica,sans-Serif" font-size="10.00">ocra::Model</text>
</a>
</g>
</g>
<!-- Node6&#45;&gt;Node25 -->
<g id="edge28" class="edge"><title>Node6&#45;&gt;Node25</title>
<path fill="none" stroke="midnightblue" d="M469.851,-96.6493C496.835,-82.5781 541.505,-61.7211 582.994,-53.5 672.277,-35.8084 780.417,-47.2535 833.859,-55.0267"/>
<polygon fill="midnightblue" stroke="midnightblue" points="467.934,-93.7046 460.748,-101.49 471.221,-99.8849 467.934,-93.7046"/>
</g>
<!-- Node7 -->
<g id="node7" class="node"><title>Node7</title>
<g id="a_node7"><a xlink:href="../../d2/d45/classocra_1_1Observer.html" target="_top" xlink:title="ocra::Observer">
<polygon fill="white" stroke="black" points="222.497,-169.5 222.497,-187.5 304.63,-187.5 304.63,-169.5 222.497,-169.5"/>
<text text-anchor="middle" x="263.563" y="-175.5" font-family="Helvetica,sans-Serif" font-size="10.00">ocra::Observer</text>
</a>
</g>
</g>
<!-- Node7&#45;&gt;Node6 -->
<g id="edge6" class="edge"><title>Node7&#45;&gt;Node6</title>
<path fill="none" stroke="midnightblue" d="M286.158,-163.936C301.164,-154.386 321.929,-142.274 341.63,-134.5 357.668,-128.172 375.821,-123.225 392.279,-119.51"/>
<polygon fill="midnightblue" stroke="midnightblue" points="284.095,-161.103 277.62,-169.49 287.912,-166.971 284.095,-161.103"/>
</g>
<!-- Node8 -->
<g id="node8" class="node"><title>Node8</title>
<g id="a_node8"><a xlink:href="../../d4/dee/classocra_1_1ObserverBase.html" target="_top" xlink:title="ocra::ObserverBase\l\&lt; EVT_RESIZE \&gt;">
<polygon fill="white" stroke="black" points="40.2856,-235.5 40.2856,-263.5 145.211,-263.5 145.211,-235.5 40.2856,-235.5"/>
<text text-anchor="start" x="48.2856" y="-251.5" font-family="Helvetica,sans-Serif" font-size="10.00">ocra::ObserverBase</text>
<text text-anchor="middle" x="92.7485" y="-241.5" font-family="Helvetica,sans-Serif" font-size="10.00">&lt; EVT_RESIZE &gt;</text>
</a>
</g>
</g>
<!-- Node8&#45;&gt;Node7 -->
<g id="edge7" class="edge"><title>Node8&#45;&gt;Node7</title>
<path fill="none" stroke="midnightblue" d="M155.334,-236.047C165.579,-233.058 175.966,-229.549 185.497,-225.5 209.873,-215.144 235.651,-197.978 250.357,-187.507"/>
<polygon fill="midnightblue" stroke="midnightblue" points="154.285,-232.705 145.586,-238.754 156.158,-239.45 154.285,-232.705"/>
</g>
<!-- Node9 -->
<g id="node9" class="node"><title>Node9</title>
<g id="a_node9"><a xlink:href="../../d4/dee/classocra_1_1ObserverBase.html" target="_top" xlink:title="ocra::ObserverBase\l\&lt; EVT_CHANGE_DEPENDENCIES \&gt;">
<polygon fill="white" stroke="black" points="0,-188.5 0,-216.5 185.497,-216.5 185.497,-188.5 0,-188.5"/>
<text text-anchor="start" x="8" y="-204.5" font-family="Helvetica,sans-Serif" font-size="10.00">ocra::ObserverBase</text>
<text text-anchor="middle" x="92.7485" y="-194.5" font-family="Helvetica,sans-Serif" font-size="10.00">&lt; EVT_CHANGE_DEPENDENCIES &gt;</text>
</a>
</g>
</g>
<!-- Node9&#45;&gt;Node7 -->
<g id="edge8" class="edge"><title>Node9&#45;&gt;Node7</title>
<path fill="none" stroke="midnightblue" d="M195.725,-188.002C205,-186.684 213.979,-185.407 222.187,-184.24"/>
<polygon fill="midnightblue" stroke="midnightblue" points="194.974,-184.574 185.566,-189.447 195.959,-191.504 194.974,-184.574"/>
</g>
<!-- Node10 -->
<g id="node10" class="node"><title>Node10</title>
<g id="a_node10"><a xlink:href="../../d4/dee/classocra_1_1ObserverBase.html" target="_top" xlink:title="ocra::ObserverBase\l\&lt; EVT_CHANGE_VALUE \&gt;">
<polygon fill="white" stroke="black" points="23.4253,-141.5 23.4253,-169.5 162.072,-169.5 162.072,-141.5 23.4253,-141.5"/>
<text text-anchor="start" x="31.4253" y="-157.5" font-family="Helvetica,sans-Serif" font-size="10.00">ocra::ObserverBase</text>
<text text-anchor="middle" x="92.7485" y="-147.5" font-family="Helvetica,sans-Serif" font-size="10.00">&lt; EVT_CHANGE_VALUE &gt;</text>
</a>
</g>
</g>
<!-- Node10&#45;&gt;Node7 -->
<g id="edge9" class="edge"><title>Node10&#45;&gt;Node7</title>
<path fill="none" stroke="midnightblue" d="M172.466,-166.225C189.64,-168.565 207.13,-170.948 222.074,-172.984"/>
<polygon fill="midnightblue" stroke="midnightblue" points="172.793,-162.737 162.412,-164.855 171.848,-169.673 172.793,-162.737"/>
</g>
<!-- Node11 -->
<g id="node11" class="node"><title>Node11</title>
<g id="a_node11"><a xlink:href="../../dc/d77/classocra_1_1Subject.html" target="_top" xlink:title="ocra::Subject">
<polygon fill="white" stroke="black" points="226.381,-72.5 226.381,-90.5 300.746,-90.5 300.746,-72.5 226.381,-72.5"/>
<text text-anchor="middle" x="263.563" y="-78.5" font-family="Helvetica,sans-Serif" font-size="10.00">ocra::Subject</text>
</a>
</g>
</g>
<!-- Node11&#45;&gt;Node6 -->
<g id="edge10" class="edge"><title>Node11&#45;&gt;Node6</title>
<path fill="none" stroke="midnightblue" d="M311.07,-89.0664C334.43,-92.8669 362.898,-97.4985 387.386,-101.483"/>
<polygon fill="midnightblue" stroke="midnightblue" points="311.497,-85.5899 301.065,-87.4386 310.373,-92.4991 311.497,-85.5899"/>
</g>
<!-- Node12 -->
<g id="node12" class="node"><title>Node12</title>
<g id="a_node12"><a xlink:href="../../dc/d29/classocra_1_1SubjectBase.html" target="_top" xlink:title="ocra::SubjectBase\&lt;\l EVT_RESIZE \&gt;">
<polygon fill="white" stroke="black" points="41.25,-94.5 41.25,-122.5 144.247,-122.5 144.247,-94.5 41.25,-94.5"/>
<text text-anchor="start" x="49.25" y="-110.5" font-family="Helvetica,sans-Serif" font-size="10.00">ocra::SubjectBase&lt;</text>
<text text-anchor="middle" x="92.7485" y="-100.5" font-family="Helvetica,sans-Serif" font-size="10.00"> EVT_RESIZE &gt;</text>
</a>
</g>
</g>
<!-- Node12&#45;&gt;Node11 -->
<g id="edge11" class="edge"><title>Node12&#45;&gt;Node11</title>
<path fill="none" stroke="midnightblue" d="M154.489,-98.7853C178.489,-94.9468 205.266,-90.6641 226.162,-87.322"/>
<polygon fill="midnightblue" stroke="midnightblue" points="153.72,-95.3636 144.399,-100.399 154.826,-102.276 153.72,-95.3636"/>
</g>
<!-- Node13 -->
<g id="node13" class="node"><title>Node13</title>
<g id="a_node13"><a xlink:href="../../dc/d29/classocra_1_1SubjectBase.html" target="_top" xlink:title="ocra::SubjectBase\&lt;\l EVT_CHANGE_DEPENDENCIES \&gt;">
<polygon fill="white" stroke="black" points="2.91992,-47.5 2.91992,-75.5 182.577,-75.5 182.577,-47.5 2.91992,-47.5"/>
<text text-anchor="start" x="10.9199" y="-63.5" font-family="Helvetica,sans-Serif" font-size="10.00">ocra::SubjectBase&lt;</text>
<text text-anchor="middle" x="92.7485" y="-53.5" font-family="Helvetica,sans-Serif" font-size="10.00"> EVT_CHANGE_DEPENDENCIES &gt;</text>
</a>
</g>
</g>
<!-- Node13&#45;&gt;Node11 -->
<g id="edge12" class="edge"><title>Node13&#45;&gt;Node11</title>
<path fill="none" stroke="midnightblue" d="M192.668,-73.2193C204.562,-74.6284 216.06,-75.9906 226.178,-77.1893"/>
<polygon fill="midnightblue" stroke="midnightblue" points="192.948,-69.728 182.605,-72.0271 192.124,-76.6794 192.948,-69.728"/>
</g>
<!-- Node14 -->
<g id="node14" class="node"><title>Node14</title>
<g id="a_node14"><a xlink:href="../../dc/d29/classocra_1_1SubjectBase.html" target="_top" xlink:title="ocra::SubjectBase\&lt;\l EVT_CHANGE_VALUE \&gt;">
<polygon fill="white" stroke="black" points="26.3452,-0.5 26.3452,-28.5 159.152,-28.5 159.152,-0.5 26.3452,-0.5"/>
<text text-anchor="start" x="34.3452" y="-16.5" font-family="Helvetica,sans-Serif" font-size="10.00">ocra::SubjectBase&lt;</text>
<text text-anchor="middle" x="92.7485" y="-6.5" font-family="Helvetica,sans-Serif" font-size="10.00"> EVT_CHANGE_VALUE &gt;</text>
</a>
</g>
</g>
<!-- Node14&#45;&gt;Node11 -->
<g id="edge13" class="edge"><title>Node14&#45;&gt;Node11</title>
<path fill="none" stroke="midnightblue" d="M168.784,-31.4984C174.5,-33.3424 180.129,-35.342 185.497,-37.5 209.084,-46.9811 234.281,-62.519 249.214,-72.3674"/>
<polygon fill="midnightblue" stroke="midnightblue" points="169.7,-28.1186 159.114,-28.5415 167.653,-34.8126 169.7,-28.1186"/>
</g>
<!-- Node15 -->
<g id="node15" class="node"><title>Node15</title>
<g id="a_node15"><a xlink:href="../../dd/d68/classocra_1_1IFunctionProperties.html" target="_top" xlink:title="ocra::IFunctionProperties">
<polygon fill="white" stroke="black" points="601.034,-334.5 601.034,-352.5 728.752,-352.5 728.752,-334.5 601.034,-334.5"/>
<text text-anchor="middle" x="664.893" y="-340.5" font-family="Helvetica,sans-Serif" font-size="10.00">ocra::IFunctionProperties</text>
</a>
</g>
</g>
<!-- Node15&#45;&gt;Node5 -->
<g id="edge14" class="edge"><title>Node15&#45;&gt;Node5</title>
<path fill="none" stroke="midnightblue" d="M727.179,-331.627C733.914,-329.583 740.576,-327.221 746.792,-324.5 794.861,-303.457 840.521,-258.734 858.744,-239.548"/>
<polygon fill="midnightblue" stroke="midnightblue" points="725.985,-328.327 717.303,-334.399 727.876,-335.067 725.985,-328.327"/>
</g>
<!-- Node16 -->
<g id="node16" class="node"><title>Node16</title>
<polygon fill="white" stroke="#bfbfbf" points="582.994,-287.5 582.994,-315.5 746.792,-315.5 746.792,-287.5 582.994,-287.5"/>
<text text-anchor="start" x="590.994" y="-303.5" font-family="Helvetica,sans-Serif" font-size="10.00">OCRA_FUNCTION_INTERFACE</text>
<text text-anchor="middle" x="664.893" y="-293.5" font-family="Helvetica,sans-Serif" font-size="10.00">_INHERITANCEpublic</text>
</g>
<!-- Node16&#45;&gt;Node5 -->
<g id="edge15" class="edge"><title>Node16&#45;&gt;Node5</title>
<path fill="none" stroke="#8b1a1a" d="M733.314,-284.764C757.915,-277.913 785.735,-269.284 810.383,-259.5 824.561,-253.872 839.924,-245.884 851.075,-239.717"/>
<polygon fill="#8b1a1a" stroke="#8b1a1a" points="732.067,-281.477 723.346,-287.493 733.915,-288.229 732.067,-281.477"/>
</g>
<!-- Node17 -->
<g id="node17" class="node"><title>Node17</title>
<g id="a_node17"><a xlink:href="../../db/de3/classocra_1_1NamedInstance.html" target="_top" xlink:title="ocra::NamedInstance">
<polygon fill="white" stroke="black" points="609.369,-63.5 609.369,-81.5 720.417,-81.5 720.417,-63.5 609.369,-63.5"/>
<text text-anchor="middle" x="664.893" y="-69.5" font-family="Helvetica,sans-Serif" font-size="10.00">ocra::NamedInstance</text>
</a>
</g>
</g>
<!-- Node17&#45;&gt;Node5 -->
<g id="edge16" class="edge"><title>Node17&#45;&gt;Node5</title>
<path fill="none" stroke="midnightblue" d="M730.931,-71.6466C757.985,-74.3696 788.187,-81.7852 810.383,-99.5 850.475,-131.498 862.791,-197.4 866.037,-221.456"/>
<polygon fill="midnightblue" stroke="midnightblue" points="730.99,-68.14 720.74,-70.821 730.425,-75.1171 730.99,-68.14"/>
</g>
<!-- Node17&#45;&gt;Node25 -->
<g id="edge29" class="edge"><title>Node17&#45;&gt;Node25</title>
<path fill="none" stroke="midnightblue" d="M731.02,-68.6151C765.322,-66.569 805.932,-64.1466 833.799,-62.4843"/>
<polygon fill="midnightblue" stroke="midnightblue" points="730.372,-65.1475 720.598,-69.2368 730.789,-72.1351 730.372,-65.1475"/>
</g>
<!-- Node18 -->
<g id="node18" class="node"><title>Node18</title>
<g id="a_node18"><a xlink:href="../../d8/d24/classocra_1_1AbilitySet.html" target="_top" xlink:title="ocra::AbilitySet">
<polygon fill="white" stroke="black" points="623.546,-250.5 623.546,-268.5 706.24,-268.5 706.24,-250.5 623.546,-250.5"/>
<text text-anchor="middle" x="664.893" y="-256.5" font-family="Helvetica,sans-Serif" font-size="10.00">ocra::AbilitySet</text>
</a>
</g>
</g>
<!-- Node18&#45;&gt;Node5 -->
<g id="edge17" class="edge"><title>Node18&#45;&gt;Node5</title>
<path fill="none" stroke="midnightblue" d="M716.738,-254.018C744.48,-250.813 779.391,-246.432 810.383,-241.5 816.125,-240.586 822.174,-239.522 828.097,-238.422"/>
<polygon fill="midnightblue" stroke="midnightblue" points="716.019,-250.578 706.48,-255.188 716.812,-257.532 716.019,-250.578"/>
</g>
<!-- Node19 -->
<g id="node19" class="node"><title>Node19</title>
<g id="a_node19"><a xlink:href="../../d5/dc0/classocra_1_1CoupledInputOutputSize.html" target="_top" xlink:title="ocra::CoupledInputOutputSize">
<polygon fill="white" stroke="black" points="589.906,-213.5 589.906,-231.5 739.88,-231.5 739.88,-213.5 589.906,-213.5"/>
<text text-anchor="middle" x="664.893" y="-219.5" font-family="Helvetica,sans-Serif" font-size="10.00">ocra::CoupledInputOutputSize</text>
</a>
</g>
</g>
<!-- Node19&#45;&gt;Node5 -->
<g id="edge18" class="edge"><title>Node19&#45;&gt;Node5</title>
<path fill="none" stroke="midnightblue" d="M750.224,-225.854C777.292,-226.93 805.975,-228.071 828.147,-228.952"/>
<polygon fill="midnightblue" stroke="midnightblue" points="750.076,-222.345 739.945,-225.445 749.798,-229.34 750.076,-222.345"/>
</g>
<!-- Node20 -->
<g id="node20" class="node"><title>Node20</title>
<polygon fill="white" stroke="#bfbfbf" points="637.167,-139.5 637.167,-157.5 692.62,-157.5 692.62,-139.5 637.167,-139.5"/>
<text text-anchor="middle" x="664.893" y="-145.5" font-family="Helvetica,sans-Serif" font-size="10.00">MatrixXd</text>
</g>
<!-- Node20&#45;&gt;Node1 -->
<g id="edge30" class="edge"><title>Node20&#45;&gt;Node1</title>
<path fill="none" stroke="#9a32cd" stroke-dasharray="5,2" d="M703.054,-145.841C743.41,-143.187 809.779,-139.5 867.065,-139.5 867.065,-139.5 867.065,-139.5 1192.23,-139.5 1268.02,-139.5 1354.23,-157.243 1407.89,-170.447"/>
<polygon fill="#9a32cd" stroke="#9a32cd" points="702.626,-142.362 692.883,-146.525 703.095,-149.346 702.626,-142.362"/>
<text text-anchor="middle" x="998.328" y="-141.5" font-family="Helvetica,sans-Serif" font-size="10.00"> _fullJacobian</text>
</g>
<!-- Node20&#45;&gt;Node5 -->
<g id="edge20" class="edge"><title>Node20&#45;&gt;Node5</title>
<path fill="none" stroke="#9a32cd" stroke-dasharray="5,2" d="M702.829,-154.539C733.023,-160.497 776.158,-171.393 810.383,-189.5 827.559,-198.588 845.407,-212.331 856.377,-221.361"/>
<polygon fill="#9a32cd" stroke="#9a32cd" points="703.2,-151.047 692.725,-152.634 701.903,-157.926 703.2,-151.047"/>
<text text-anchor="middle" x="787.587" y="-191.5" font-family="Helvetica,sans-Serif" font-size="10.00"> _jacobian</text>
</g>
<!-- Node21&#45;&gt;Node5 -->
<g id="edge21" class="edge"><title>Node21&#45;&gt;Node5</title>
<path fill="none" stroke="#9a32cd" stroke-dasharray="5,2" d="M713.626,-192.905C741.936,-197.672 778.42,-204.471 810.383,-212.5 820.497,-215.041 831.453,-218.378 841.013,-221.489"/>
<polygon fill="#9a32cd" stroke="#9a32cd" points="714.026,-189.423 703.589,-191.242 712.882,-196.329 714.026,-189.423"/>
<text text-anchor="middle" x="787.587" y="-214.5" font-family="Helvetica,sans-Serif" font-size="10.00"> x</text>
</g>
<!-- Node22 -->
<g id="node22" class="node"><title>Node22</title>
<g id="a_node22"><a xlink:href="../../d0/d29/classocra_1_1Component.html" target="_top" xlink:title="ocra::Component\&lt; Variable,\l CompositeVariable, VariableParenthood \&gt;">
<polygon fill="white" stroke="black" points="341.63,-181.5 341.63,-209.5 545.994,-209.5 545.994,-181.5 341.63,-181.5"/>
<text text-anchor="start" x="349.63" y="-197.5" font-family="Helvetica,sans-Serif" font-size="10.00">ocra::Component&lt; Variable,</text>
<text text-anchor="middle" x="443.812" y="-187.5" font-family="Helvetica,sans-Serif" font-size="10.00"> CompositeVariable, VariableParenthood &gt;</text>
</a>
</g>
</g>
<!-- Node22&#45;&gt;Node21 -->
<g id="edge22" class="edge"><title>Node22&#45;&gt;Node21</title>
<path fill="none" stroke="midnightblue" d="M556.086,-190.421C581.387,-189.266 606.565,-188.117 626.219,-187.22"/>
<polygon fill="midnightblue" stroke="midnightblue" points="555.846,-186.928 546.016,-190.881 556.165,-193.921 555.846,-186.928"/>
</g>
<!-- Node23 -->
<g id="node23" class="node"><title>Node23</title>
<polygon fill="white" stroke="#bfbfbf" points="407.455,-144.5 407.455,-162.5 480.169,-162.5 480.169,-144.5 407.455,-144.5"/>
<text text-anchor="middle" x="443.812" y="-150.5" font-family="Helvetica,sans-Serif" font-size="10.00">noncopyable</text>
</g>
<!-- Node23&#45;&gt;Node21 -->
<g id="edge24" class="edge"><title>Node23&#45;&gt;Node21</title>
<path fill="none" stroke="#8b1a1a" d="M490.591,-160.187C530.871,-166.07 588.795,-174.531 626.386,-180.022"/>
<polygon fill="#8b1a1a" stroke="#8b1a1a" points="490.9,-156.695 480.499,-158.713 489.888,-163.621 490.9,-156.695"/>
</g>
<!-- Node24 -->
<g id="node24" class="node"><title>Node24</title>
<g id="a_node24"><a xlink:href="../../dc/d20/classocra_1_1VariableHasRestrictedClassDerivation.html" target="_top" xlink:title="ocra::VariableHasRestricted\lClassDerivation">
<polygon fill="white" stroke="black" points="373.932,-228.5 373.932,-256.5 513.692,-256.5 513.692,-228.5 373.932,-228.5"/>
<text text-anchor="start" x="381.932" y="-244.5" font-family="Helvetica,sans-Serif" font-size="10.00">ocra::VariableHasRestricted</text>
<text text-anchor="middle" x="443.812" y="-234.5" font-family="Helvetica,sans-Serif" font-size="10.00">ClassDerivation</text>
</a>
</g>
</g>
<!-- Node24&#45;&gt;Node21 -->
<g id="edge25" class="edge"><title>Node24&#45;&gt;Node21</title>
<path fill="none" stroke="#8b1a1a" d="M520.333,-225.928C529.039,-223.622 537.747,-221.133 545.994,-218.5 562.898,-213.103 566.053,-208.778 582.994,-203.5 596.869,-199.177 612.388,-195.463 626.094,-192.551"/>
<polygon fill="#8b1a1a" stroke="#8b1a1a" points="519.34,-222.569 510.528,-228.452 521.085,-229.348 519.34,-222.569"/>
</g>
<!-- Node25&#45;&gt;Node1 -->
<g id="edge27" class="edge"><title>Node25&#45;&gt;Node1</title>
<path fill="none" stroke="#9a32cd" stroke-dasharray="5,2" d="M912.536,-60.3449C1000.14,-61.293 1203.08,-69.9012 1362.04,-125.5 1392.03,-135.992 1422.82,-156.416 1441.69,-170.258"/>
<polygon fill="#9a32cd" stroke="#9a32cd" points="912.463,-56.8444 902.435,-60.2647 912.407,-63.8441 912.463,-56.8444"/>
<text text-anchor="middle" x="1087.7" y="-74.5" font-family="Helvetica,sans-Serif" font-size="10.00"> _model</text>
</g>
</g>
</svg>
