<?xml version="1.0" encoding="UTF-8" standalone="no"?>
<!DOCTYPE svg PUBLIC "-//W3C//DTD SVG 1.1//EN"
 "http://www.w3.org/Graphics/SVG/1.1/DTD/svg11.dtd">
<!-- Generated by graphviz version 2.38.0 (20140413.2041)
 -->
<!-- Title: ocra_recipes::ControllerServer Pages: 1 -->
<svg width="208pt" height="177pt"
 viewBox="0.00 0.00 208.50 177.00" xmlns="http://www.w3.org/2000/svg" xmlns:xlink="http://www.w3.org/1999/xlink">
<g id="graph0" class="graph" transform="scale(1 1) rotate(0) translate(4 173)">
<title>ocra_recipes::ControllerServer</title>
<polygon fill="white" stroke="none" points="-4,4 -4,-173 204.5,-173 204.5,4 -4,4"/>
<!-- Node1 -->
<g id="node1" class="node"><title>Node1</title>
<polygon fill="#bfbfbf" stroke="black" points="78.3423,-0.5 78.3423,-28.5 200.5,-28.5 200.5,-0.5 78.3423,-0.5"/>
<text text-anchor="start" x="86.3423" y="-16.5" font-family="Helvetica,sans-Serif" font-size="10.00">ocra_recipes::Controller</text>
<text text-anchor="middle" x="139.421" y="-6.5" font-family="Helvetica,sans-Serif" font-size="10.00">Server</text>
</g>
<!-- Node2 -->
<g id="node2" class="node"><title>Node2</title>
<g id="a_node2"><a xlink:href="../../d5/dd0/classocra__recipes_1_1RobotState.html" target="_top" xlink:title="A portable class for sending robot state information over yarp. ">
<polygon fill="white" stroke="black" points="0,-75.5 0,-93.5 128.842,-93.5 128.842,-75.5 0,-75.5"/>
<text text-anchor="middle" x="64.4209" y="-81.5" font-family="Helvetica,sans-Serif" font-size="10.00">ocra_recipes::RobotState</text>
</a>
</g>
</g>
<!-- Node2&#45;&gt;Node1 -->
<g id="edge1" class="edge"><title>Node2&#45;&gt;Node1</title>
<path fill="none" stroke="#9a32cd" stroke-dasharray="5,2" d="M80.7435,-68.7009C93.8967,-56.7753 112.221,-40.1609 124.877,-28.6867"/>
<polygon fill="#9a32cd" stroke="#9a32cd" points="78.3763,-66.1226 73.3189,-75.4325 83.0782,-71.3085 78.3763,-66.1226"/>
<text text-anchor="middle" x="119.15" y="-49" font-family="Helvetica,sans-Serif" font-size="10.00"> rState</text>
</g>
<!-- Node3 -->
<g id="node3" class="node"><title>Node3</title>
<polygon fill="white" stroke="#bfbfbf" points="17.2339,-150.5 17.2339,-168.5 111.608,-168.5 111.608,-150.5 17.2339,-150.5"/>
<text text-anchor="middle" x="64.4209" y="-156.5" font-family="Helvetica,sans-Serif" font-size="10.00">yarp::os::Portable</text>
</g>
<!-- Node3&#45;&gt;Node2 -->
<g id="edge2" class="edge"><title>Node3&#45;&gt;Node2</title>
<path fill="none" stroke="midnightblue" d="M64.4209,-140.349C64.4209,-125.479 64.4209,-105.117 64.4209,-93.8518"/>
<polygon fill="midnightblue" stroke="midnightblue" points="60.921,-140.409 64.4209,-150.409 67.921,-140.409 60.921,-140.409"/>
</g>
<!-- Node4 -->
<g id="node4" class="node"><title>Node4</title>
<polygon fill="white" stroke="#bfbfbf" points="132.128,-150.5 132.128,-168.5 188.714,-168.5 188.714,-150.5 132.128,-150.5"/>
<text text-anchor="middle" x="160.421" y="-156.5" font-family="Helvetica,sans-Serif" font-size="10.00">VectorXd</text>
</g>
<!-- Node4&#45;&gt;Node1 -->
<g id="edge4" class="edge"><title>Node4&#45;&gt;Node1</title>
<path fill="none" stroke="#9a32cd" stroke-dasharray="5,2" d="M157.757,-140.36C153.465,-111.135 145.121,-54.3174 141.352,-28.6489"/>
<polygon fill="#9a32cd" stroke="#9a32cd" points="154.316,-141.017 159.232,-150.402 161.242,-140 154.316,-141.017"/>
<text text-anchor="middle" x="159.761" y="-81.5" font-family="Helvetica,sans-Serif" font-size="10.00"> tau</text>
</g>
<!-- Node4&#45;&gt;Node2 -->
<g id="edge3" class="edge"><title>Node4&#45;&gt;Node2</title>
<path fill="none" stroke="#9a32cd" stroke-dasharray="5,2" d="M141.766,-144.314C121.919,-129.223 91.2123,-105.873 75.109,-93.6274"/>
<polygon fill="#9a32cd" stroke="#9a32cd" points="139.702,-147.142 149.78,-150.409 143.939,-141.57 139.702,-147.142"/>
<text text-anchor="middle" x="131.372" y="-124" font-family="Helvetica,sans-Serif" font-size="10.00"> qd</text>
<text text-anchor="middle" x="131.372" y="-114" font-family="Helvetica,sans-Serif" font-size="10.00">q</text>
</g>
</g>
</svg>
