<?xml version="1.0" encoding="UTF-8" standalone="no"?>
<!DOCTYPE svg PUBLIC "-//W3C//DTD SVG 1.1//EN"
 "http://www.w3.org/Graphics/SVG/1.1/DTD/svg11.dtd">
<!-- Generated by graphviz version 2.38.0 (20140413.2041)
 -->
<!-- Title: ocra::PartialTargetState Pages: 1 -->
<svg width="128pt" height="137pt"
 viewBox="0.00 0.00 128.50 137.00" xmlns="http://www.w3.org/2000/svg" xmlns:xlink="http://www.w3.org/1999/xlink">
<g id="graph0" class="graph" transform="scale(1 1) rotate(0) translate(4 133)">
<title>ocra::PartialTargetState</title>
<polygon fill="white" stroke="none" points="-4,4 -4,-133 124.497,-133 124.497,4 -4,4"/>
<!-- Node0 -->
<g id="node1" class="node"><title>Node0</title>
<polygon fill="#bfbfbf" stroke="black" points="0,-0.5 0,-18.5 120.497,-18.5 120.497,-0.5 0,-0.5"/>
<text text-anchor="middle" x="60.2485" y="-6.5" font-family="Helvetica,sans-Serif" font-size="10.00">ocra::PartialTargetState</text>
</g>
<!-- Node1 -->
<g id="node2" class="node"><title>Node1</title>
<g id="a_node2"><a xlink:href="../../d0/d45/classocra_1_1PartialState.html" target="_top" xlink:title="A abstract partial state. ">
<polygon fill="white" stroke="black" points="13.8965,-55.5 13.8965,-73.5 106.601,-73.5 106.601,-55.5 13.8965,-55.5"/>
<text text-anchor="middle" x="60.2485" y="-61.5" font-family="Helvetica,sans-Serif" font-size="10.00">ocra::PartialState</text>
</a>
</g>
</g>
<!-- Node1&#45;&gt;Node0 -->
<g id="edge1" class="edge"><title>Node1&#45;&gt;Node0</title>
<path fill="none" stroke="midnightblue" d="M60.2485,-45.1746C60.2485,-36.0945 60.2485,-25.5949 60.2485,-18.5496"/>
<polygon fill="midnightblue" stroke="midnightblue" points="56.7486,-45.2187 60.2485,-55.2188 63.7486,-45.2188 56.7486,-45.2187"/>
</g>
<!-- Node2 -->
<g id="node3" class="node"><title>Node2</title>
<g id="a_node3"><a xlink:href="../../db/de3/classocra_1_1NamedInstance.html" target="_top" xlink:title="ocra::NamedInstance">
<polygon fill="white" stroke="black" points="4.72412,-110.5 4.72412,-128.5 115.773,-128.5 115.773,-110.5 4.72412,-110.5"/>
<text text-anchor="middle" x="60.2485" y="-116.5" font-family="Helvetica,sans-Serif" font-size="10.00">ocra::NamedInstance</text>
</a>
</g>
</g>
<!-- Node2&#45;&gt;Node1 -->
<g id="edge2" class="edge"><title>Node2&#45;&gt;Node1</title>
<path fill="none" stroke="midnightblue" d="M60.2485,-100.175C60.2485,-91.0945 60.2485,-80.5949 60.2485,-73.5496"/>
<polygon fill="midnightblue" stroke="midnightblue" points="56.7486,-100.219 60.2485,-110.219 63.7486,-100.219 56.7486,-100.219"/>
</g>
</g>
</svg>
