<?xml version="1.0" encoding="UTF-8" standalone="no"?>
<!DOCTYPE svg PUBLIC "-//W3C//DTD SVG 1.1//EN"
 "http://www.w3.org/Graphics/SVG/1.1/DTD/svg11.dtd">
<!-- Generated by graphviz version 2.38.0 (20140413.2041)
 -->
<!-- Title: VariableMapping.h Pages: 1 -->
<svg width="476pt" height="82pt"
 viewBox="0.00 0.00 475.99 82.00" xmlns="http://www.w3.org/2000/svg" xmlns:xlink="http://www.w3.org/1999/xlink">
<g id="graph0" class="graph" transform="scale(1 1) rotate(0) translate(4 78)">
<title>VariableMapping.h</title>
<polygon fill="white" stroke="none" points="-4,4 -4,-78 471.986,-78 471.986,4 -4,4"/>
<!-- Node2 -->
<g id="node1" class="node"><title>Node2</title>
<polygon fill="#bfbfbf" stroke="black" points="164.054,-55.5 164.054,-73.5 262.706,-73.5 262.706,-55.5 164.054,-55.5"/>
<text text-anchor="middle" x="213.38" y="-61.5" font-family="Helvetica,sans-Serif" font-size="10.00">VariableMapping.h</text>
</g>
<!-- Node3 -->
<g id="node2" class="node"><title>Node3</title>
<g id="a_node2"><a xlink:href="../../d9/d4f/MergedVariable_8cpp.html" target="_top" xlink:title="MergedVariable.cpp">
<polygon fill="white" stroke="black" points="0,-0.5 0,-18.5 104.76,-18.5 104.76,-0.5 0,-0.5"/>
<text text-anchor="middle" x="52.3799" y="-6.5" font-family="Helvetica,sans-Serif" font-size="10.00">MergedVariable.cpp</text>
</a>
</g>
</g>
<!-- Node2&#45;&gt;Node3 -->
<g id="edge1" class="edge"><title>Node2&#45;&gt;Node3</title>
<path fill="none" stroke="midnightblue" d="M179.072,-52.2061C148.346,-42.0914 104.05,-27.5095 76.7981,-18.5383"/>
<polygon fill="midnightblue" stroke="midnightblue" points="178.334,-55.648 188.927,-55.4504 180.523,-48.999 178.334,-55.648"/>
</g>
<!-- Node4 -->
<g id="node3" class="node"><title>Node4</title>
<g id="a_node3"><a xlink:href="../../d4/d01/Solver_8cpp.html" target="_top" xlink:title="Solver.cpp">
<polygon fill="white" stroke="black" points="123.03,-0.5 123.03,-18.5 185.729,-18.5 185.729,-0.5 123.03,-0.5"/>
<text text-anchor="middle" x="154.38" y="-6.5" font-family="Helvetica,sans-Serif" font-size="10.00">Solver.cpp</text>
</a>
</g>
</g>
<!-- Node2&#45;&gt;Node4 -->
<g id="edge2" class="edge"><title>Node2&#45;&gt;Node4</title>
<path fill="none" stroke="midnightblue" d="M196.838,-48.6408C186.017,-38.9201 172.293,-26.5913 163.425,-18.6253"/>
<polygon fill="midnightblue" stroke="midnightblue" points="194.641,-51.3715 204.419,-55.4504 199.319,-46.164 194.641,-51.3715"/>
</g>
<!-- Node5 -->
<g id="node4" class="node"><title>Node5</title>
<g id="a_node4"><a xlink:href="../../d8/d27/SumOfLinearFunctions_8cpp.html" target="_top" xlink:title="SumOfLinearFunctions.cpp">
<polygon fill="white" stroke="black" points="203.794,-0.5 203.794,-18.5 340.966,-18.5 340.966,-0.5 203.794,-0.5"/>
<text text-anchor="middle" x="272.38" y="-6.5" font-family="Helvetica,sans-Serif" font-size="10.00">SumOfLinearFunctions.cpp</text>
</a>
</g>
</g>
<!-- Node2&#45;&gt;Node5 -->
<g id="edge3" class="edge"><title>Node2&#45;&gt;Node5</title>
<path fill="none" stroke="midnightblue" d="M229.921,-48.6408C240.742,-38.9201 254.467,-26.5913 263.335,-18.6253"/>
<polygon fill="midnightblue" stroke="midnightblue" points="227.441,-46.164 222.341,-55.4504 232.119,-51.3715 227.441,-46.164"/>
</g>
<!-- Node6 -->
<g id="node5" class="node"><title>Node6</title>
<g id="a_node5"><a xlink:href="../../d4/d29/VariableMapping_8cpp.html" target="_top" xlink:title="VariableMapping.cpp">
<polygon fill="white" stroke="black" points="358.773,-0.5 358.773,-18.5 467.986,-18.5 467.986,-0.5 358.773,-0.5"/>
<text text-anchor="middle" x="413.38" y="-6.5" font-family="Helvetica,sans-Serif" font-size="10.00">VariableMapping.cpp</text>
</a>
</g>
</g>
<!-- Node2&#45;&gt;Node6 -->
<g id="edge4" class="edge"><title>Node2&#45;&gt;Node6</title>
<path fill="none" stroke="midnightblue" d="M253.534,-52.8593C291.765,-42.728 348.457,-27.7046 383.047,-18.5383"/>
<polygon fill="midnightblue" stroke="midnightblue" points="252.525,-49.5056 243.756,-55.4504 254.319,-56.272 252.525,-49.5056"/>
</g>
</g>
</svg>
