<?xml version="1.0" encoding="UTF-8" standalone="no"?>
<!DOCTYPE svg PUBLIC "-//W3C//DTD SVG 1.1//EN"
 "http://www.w3.org/Graphics/SVG/1.1/DTD/svg11.dtd">
<!-- Generated by graphviz version 2.38.0 (20140413.2041)
 -->
<!-- Title: ocra::PartialPostureTaskBuilder Pages: 1 -->
<svg width="156pt" height="273pt"
 viewBox="0.00 0.00 155.90 273.00" xmlns="http://www.w3.org/2000/svg" xmlns:xlink="http://www.w3.org/1999/xlink">
<g id="graph0" class="graph" transform="scale(1 1) rotate(0) translate(4 269)">
<title>ocra::PartialPostureTaskBuilder</title>
<polygon fill="white" stroke="none" points="-4,4 -4,-269 151.897,-269 151.897,4 -4,4"/>
<!-- Node2 -->
<g id="node1" class="node"><title>Node2</title>
<polygon fill="#bfbfbf" stroke="black" points="1.3916,-0.5 1.3916,-28.5 125.771,-28.5 125.771,-0.5 1.3916,-0.5"/>
<text text-anchor="start" x="9.3916" y="-16.5" font-family="Helvetica,sans-Serif" font-size="10.00">ocra::PartialPostureTask</text>
<text text-anchor="middle" x="63.5811" y="-6.5" font-family="Helvetica,sans-Serif" font-size="10.00">Builder</text>
</g>
<!-- Node3 -->
<g id="node2" class="node"><title>Node3</title>
<g id="a_node2"><a xlink:href="../../d6/d6a/classocra_1_1TaskBuilder.html" target="_top" xlink:title="ocra::TaskBuilder">
<polygon fill="white" stroke="black" points="17.2314,-66.5 17.2314,-84.5 109.931,-84.5 109.931,-66.5 17.2314,-66.5"/>
<text text-anchor="middle" x="63.5811" y="-72.5" font-family="Helvetica,sans-Serif" font-size="10.00">ocra::TaskBuilder</text>
</a>
</g>
</g>
<!-- Node3&#45;&gt;Node2 -->
<g id="edge1" class="edge"><title>Node3&#45;&gt;Node2</title>
<path fill="none" stroke="midnightblue" d="M63.5811,-56.1543C63.5811,-47.2359 63.5811,-36.7225 63.5811,-28.6215"/>
<polygon fill="midnightblue" stroke="midnightblue" points="60.0812,-56.2963 63.5811,-66.2963 67.0812,-56.2963 60.0812,-56.2963"/>
</g>
<!-- Node4 -->
<g id="node3" class="node"><title>Node4</title>
<g id="a_node3"><a xlink:href="../../d9/d2f/classocra_1_1TaskBuilderOptions.html" target="_top" xlink:title="ocra::TaskBuilderOptions">
<polygon fill="white" stroke="black" points="0,-131.5 0,-149.5 127.162,-149.5 127.162,-131.5 0,-131.5"/>
<text text-anchor="middle" x="63.5811" y="-137.5" font-family="Helvetica,sans-Serif" font-size="10.00">ocra::TaskBuilderOptions</text>
</a>
</g>
</g>
<!-- Node4&#45;&gt;Node3 -->
<g id="edge2" class="edge"><title>Node4&#45;&gt;Node3</title>
<path fill="none" stroke="#9a32cd" stroke-dasharray="5,2" d="M63.5811,-120.907C63.5811,-108.815 63.5811,-93.6529 63.5811,-84.539"/>
<polygon fill="#9a32cd" stroke="#9a32cd" points="60.0812,-121.264 63.5811,-131.264 67.0812,-121.264 60.0812,-121.264"/>
<text text-anchor="middle" x="81.0933" y="-105" font-family="Helvetica,sans-Serif" font-size="10.00"> options</text>
</g>
<!-- Node5 -->
<g id="node4" class="node"><title>Node5</title>
<polygon fill="white" stroke="#bfbfbf" points="35.2881,-246.5 35.2881,-264.5 91.874,-264.5 91.874,-246.5 35.2881,-246.5"/>
<text text-anchor="middle" x="63.5811" y="-252.5" font-family="Helvetica,sans-Serif" font-size="10.00">VectorXd</text>
</g>
<!-- Node5&#45;&gt;Node4 -->
<g id="edge3" class="edge"><title>Node5&#45;&gt;Node4</title>
<path fill="none" stroke="#9a32cd" stroke-dasharray="5,2" d="M63.5811,-236.071C63.5811,-211.073 63.5811,-167.482 63.5811,-149.553"/>
<polygon fill="#9a32cd" stroke="#9a32cd" points="60.0812,-236.373 63.5811,-246.373 67.0812,-236.373 60.0812,-236.373"/>
<text text-anchor="middle" x="105.739" y="-220" font-family="Helvetica,sans-Serif" font-size="10.00"> nameDesired</text>
<text text-anchor="middle" x="105.739" y="-210" font-family="Helvetica,sans-Serif" font-size="10.00">indexDesired</text>
<text text-anchor="middle" x="105.739" y="-200" font-family="Helvetica,sans-Serif" font-size="10.00">desired</text>
<text text-anchor="middle" x="105.739" y="-190" font-family="Helvetica,sans-Serif" font-size="10.00">indexWeightVector</text>
<text text-anchor="middle" x="105.739" y="-180" font-family="Helvetica,sans-Serif" font-size="10.00">weightVector</text>
<text text-anchor="middle" x="105.739" y="-170" font-family="Helvetica,sans-Serif" font-size="10.00">nameWeightVector</text>
</g>
</g>
</svg>
