<?xml version="1.0" encoding="UTF-8" standalone="no"?>
<!DOCTYPE svg PUBLIC "-//W3C//DTD SVG 1.1//EN"
 "http://www.w3.org/Graphics/SVG/1.1/DTD/svg11.dtd">
<!-- Generated by graphviz version 2.38.0 (20140413.2041)
 -->
<!-- Title: EigenUtilities.h Pages: 1 -->
<svg width="1457pt" height="357pt"
 viewBox="0.00 0.00 1456.75 357.00" xmlns="http://www.w3.org/2000/svg" xmlns:xlink="http://www.w3.org/1999/xlink">
<g id="graph0" class="graph" transform="scale(1 1) rotate(0) translate(4 353)">
<title>EigenUtilities.h</title>
<polygon fill="white" stroke="none" points="-4,4 -4,-353 1452.75,-353 1452.75,4 -4,4"/>
<!-- Node4 -->
<g id="node1" class="node"><title>Node4</title>
<polygon fill="#bfbfbf" stroke="black" points="965.347,-330.5 965.347,-348.5 1047.49,-348.5 1047.49,-330.5 965.347,-330.5"/>
<text text-anchor="middle" x="1006.42" y="-336.5" font-family="Helvetica,sans-Serif" font-size="10.00">EigenUtilities.h</text>
</g>
<!-- Node5 -->
<g id="node2" class="node"><title>Node5</title>
<g id="a_node2"><a xlink:href="../../d4/d7b/PoseTaskBuilder_8h.html" target="_top" xlink:title="PoseTaskBuilder.h">
<polygon fill="white" stroke="black" points="36.2808,-220.5 36.2808,-238.5 134.556,-238.5 134.556,-220.5 36.2808,-220.5"/>
<text text-anchor="middle" x="85.4185" y="-226.5" font-family="Helvetica,sans-Serif" font-size="10.00">PoseTaskBuilder.h</text>
</a>
</g>
</g>
<!-- Node4&#45;&gt;Node5 -->
<g id="edge1" class="edge"><title>Node4&#45;&gt;Node5</title>
<path fill="none" stroke="midnightblue" d="M954.768,-333.438C874.738,-325.517 715.963,-309.49 581.418,-294 386.51,-271.561 337.823,-265.448 143.418,-239 140.595,-238.616 137.695,-238.214 134.77,-237.803"/>
<polygon fill="midnightblue" stroke="midnightblue" points="954.766,-336.955 965.062,-334.455 955.455,-329.989 954.766,-336.955"/>
</g>
<!-- Node6 -->
<g id="node3" class="node"><title>Node6</title>
<g id="a_node3"><a xlink:href="../../d1/d7b/TaskConstructionManager_8h.html" target="_top" xlink:title="TaskConstructionManager.h">
<polygon fill="white" stroke="black" points="580.438,-165.5 580.438,-183.5 720.398,-183.5 720.398,-165.5 580.438,-165.5"/>
<text text-anchor="middle" x="650.418" y="-171.5" font-family="Helvetica,sans-Serif" font-size="10.00">TaskConstructionManager.h</text>
</a>
</g>
</g>
<!-- Node4&#45;&gt;Node6 -->
<g id="edge36" class="edge"><title>Node4&#45;&gt;Node6</title>
<path fill="none" stroke="midnightblue" d="M1009.48,-320.421C1012.77,-294.28 1014.35,-246.196 987.418,-220 982.633,-215.345 816.15,-195.027 719.013,-183.522"/>
<polygon fill="midnightblue" stroke="midnightblue" points="1006,-320.038 1007.99,-330.443 1012.92,-321.064 1006,-320.038"/>
</g>
<!-- Node17 -->
<g id="node14" class="node"><title>Node17</title>
<g id="a_node14"><a xlink:href="../../d3/dc1/TaskBuilder_8h.html" target="_top" xlink:title="TaskBuilder.h">
<polygon fill="white" stroke="black" points="590.677,-275.5 590.677,-293.5 666.16,-293.5 666.16,-275.5 590.677,-275.5"/>
<text text-anchor="middle" x="628.418" y="-281.5" font-family="Helvetica,sans-Serif" font-size="10.00">TaskBuilder.h</text>
</a>
</g>
</g>
<!-- Node4&#45;&gt;Node17 -->
<g id="edge14" class="edge"><title>Node4&#45;&gt;Node17</title>
<path fill="none" stroke="midnightblue" d="M955.308,-331.334C878.431,-320.555 734.779,-300.413 666.434,-290.83"/>
<polygon fill="midnightblue" stroke="midnightblue" points="954.857,-334.805 965.246,-332.727 955.829,-327.872 954.857,-334.805"/>
</g>
<!-- Node31 -->
<g id="node28" class="node"><title>Node31</title>
<g id="a_node28"><a xlink:href="../../de/d5d/TaskConnection_8h.html" target="_top" xlink:title="TaskConnection.h">
<polygon fill="white" stroke="black" points="1202.67,-275.5 1202.67,-293.5 1298.16,-293.5 1298.16,-275.5 1202.67,-275.5"/>
<text text-anchor="middle" x="1250.42" y="-281.5" font-family="Helvetica,sans-Serif" font-size="10.00">TaskConnection.h</text>
</a>
</g>
</g>
<!-- Node4&#45;&gt;Node31 -->
<g id="edge37" class="edge"><title>Node4&#45;&gt;Node31</title>
<path fill="none" stroke="midnightblue" d="M1053.34,-328.309C1099.98,-318.177 1170.58,-302.841 1213.41,-293.538"/>
<polygon fill="midnightblue" stroke="midnightblue" points="1052.51,-324.907 1043.48,-330.45 1053.99,-331.748 1052.51,-324.907"/>
</g>
<!-- Node32 -->
<g id="node29" class="node"><title>Node32</title>
<g id="a_node29"><a xlink:href="../../da/d00/TrajectoryThread_8h.html" target="_top" xlink:title="A thread for launching trajectory generators. ">
<polygon fill="white" stroke="black" points="1338.36,-220.5 1338.36,-238.5 1438.47,-238.5 1438.47,-220.5 1338.36,-220.5"/>
<text text-anchor="middle" x="1388.42" y="-226.5" font-family="Helvetica,sans-Serif" font-size="10.00">TrajectoryThread.h</text>
</a>
</g>
</g>
<!-- Node4&#45;&gt;Node32 -->
<g id="edge42" class="edge"><title>Node4&#45;&gt;Node32</title>
<path fill="none" stroke="midnightblue" d="M1057.91,-338.803C1119.64,-337.413 1225.06,-329.386 1307.42,-294 1338.28,-280.738 1367.5,-252.709 1380.84,-238.754"/>
<polygon fill="midnightblue" stroke="midnightblue" points="1057.59,-335.308 1047.65,-338.982 1057.71,-342.307 1057.59,-335.308"/>
</g>
<!-- Node5&#45;&gt;Node6 -->
<g id="edge2" class="edge"><title>Node5&#45;&gt;Node6</title>
<path fill="none" stroke="midnightblue" d="M144.789,-219.908C334.751,-198.282 384.643,-201.901 571.418,-184 574.302,-183.724 577.244,-183.435 580.216,-183.139"/>
<polygon fill="midnightblue" stroke="midnightblue" points="144.288,-216.442 134.752,-221.059 145.086,-223.397 144.288,-216.442"/>
</g>
<!-- Node16 -->
<g id="node13" class="node"><title>Node16</title>
<g id="a_node13"><a xlink:href="../../d2/def/PoseTaskBuilder_8cpp.html" target="_top" xlink:title="PoseTaskBuilder.cpp">
<polygon fill="white" stroke="black" points="0,-165.5 0,-183.5 108.837,-183.5 108.837,-165.5 0,-165.5"/>
<text text-anchor="middle" x="54.4185" y="-171.5" font-family="Helvetica,sans-Serif" font-size="10.00">PoseTaskBuilder.cpp</text>
</a>
</g>
</g>
<!-- Node5&#45;&gt;Node16 -->
<g id="edge13" class="edge"><title>Node5&#45;&gt;Node16</title>
<path fill="none" stroke="midnightblue" d="M75.3951,-211.363C69.9326,-202.024 63.4287,-190.905 59.1267,-183.55"/>
<polygon fill="midnightblue" stroke="midnightblue" points="72.5047,-213.354 80.5747,-220.219 78.547,-209.82 72.5047,-213.354"/>
</g>
<!-- Node7 -->
<g id="node4" class="node"><title>Node7</title>
<g id="a_node4"><a xlink:href="../../dd/d25/TaskConstructionManager_8cpp.html" target="_top" xlink:title="TaskConstructionManager.cpp">
<polygon fill="white" stroke="black" points="575.158,-110.5 575.158,-128.5 725.679,-128.5 725.679,-110.5 575.158,-110.5"/>
<text text-anchor="middle" x="650.418" y="-116.5" font-family="Helvetica,sans-Serif" font-size="10.00">TaskConstructionManager.cpp</text>
</a>
</g>
</g>
<!-- Node6&#45;&gt;Node7 -->
<g id="edge3" class="edge"><title>Node6&#45;&gt;Node7</title>
<path fill="none" stroke="midnightblue" d="M650.418,-155.175C650.418,-146.094 650.418,-135.595 650.418,-128.55"/>
<polygon fill="midnightblue" stroke="midnightblue" points="646.919,-155.219 650.418,-165.219 653.919,-155.219 646.919,-155.219"/>
</g>
<!-- Node8 -->
<g id="node5" class="node"><title>Node8</title>
<g id="a_node5"><a xlink:href="../../db/d9a/ControllerClient_8h.html" target="_top" xlink:title="ControllerClient.h">
<polygon fill="white" stroke="black" points="799.791,-110.5 799.791,-128.5 893.046,-128.5 893.046,-110.5 799.791,-110.5"/>
<text text-anchor="middle" x="846.418" y="-116.5" font-family="Helvetica,sans-Serif" font-size="10.00">ControllerClient.h</text>
</a>
</g>
</g>
<!-- Node6&#45;&gt;Node8 -->
<g id="edge4" class="edge"><title>Node6&#45;&gt;Node8</title>
<path fill="none" stroke="midnightblue" d="M690.248,-162.73C727.708,-152.6 782.938,-137.666 816.692,-128.538"/>
<polygon fill="midnightblue" stroke="midnightblue" points="688.926,-159.461 680.187,-165.45 690.754,-166.219 688.926,-159.461"/>
</g>
<!-- Node12 -->
<g id="node9" class="node"><title>Node12</title>
<g id="a_node9"><a xlink:href="../../da/d7c/ControllerServer_8h.html" target="_top" xlink:title="ControllerServer.h">
<polygon fill="white" stroke="black" points="629.121,-55.5 629.121,-73.5 725.716,-73.5 725.716,-55.5 629.121,-55.5"/>
<text text-anchor="middle" x="677.418" y="-61.5" font-family="Helvetica,sans-Serif" font-size="10.00">ControllerServer.h</text>
</a>
</g>
</g>
<!-- Node6&#45;&gt;Node12 -->
<g id="edge8" class="edge"><title>Node6&#45;&gt;Node12</title>
<path fill="none" stroke="midnightblue" d="M691.933,-161.828C708.126,-155.022 725.028,-144.602 734.418,-129 747.864,-106.661 715.881,-85.0246 694.578,-73.6832"/>
<polygon fill="midnightblue" stroke="midnightblue" points="690.627,-158.581 682.543,-165.43 693.133,-165.116 690.627,-158.581"/>
</g>
<!-- Node14 -->
<g id="node11" class="node"><title>Node14</title>
<g id="a_node11"><a xlink:href="../../d2/d6c/ServerCommunications_8h.html" target="_top" xlink:title="ServerCommunications.h">
<polygon fill="white" stroke="black" points="429.286,-110.5 429.286,-128.5 557.551,-128.5 557.551,-110.5 429.286,-110.5"/>
<text text-anchor="middle" x="493.418" y="-116.5" font-family="Helvetica,sans-Serif" font-size="10.00">ServerCommunications.h</text>
</a>
</g>
</g>
<!-- Node6&#45;&gt;Node14 -->
<g id="edge10" class="edge"><title>Node6&#45;&gt;Node14</title>
<path fill="none" stroke="midnightblue" d="M616.963,-162.206C587.001,-152.091 543.805,-137.51 517.23,-128.538"/>
<polygon fill="midnightblue" stroke="midnightblue" points="615.979,-165.568 626.574,-165.45 618.218,-158.936 615.979,-165.568"/>
</g>
<!-- Node9 -->
<g id="node6" class="node"><title>Node9</title>
<g id="a_node6"><a xlink:href="../../d8/d80/ClientManager_8h.html" target="_top" xlink:title="Module class for the controller Client. ">
<polygon fill="white" stroke="black" points="778.005,-55.5 778.005,-73.5 866.832,-73.5 866.832,-55.5 778.005,-55.5"/>
<text text-anchor="middle" x="822.418" y="-61.5" font-family="Helvetica,sans-Serif" font-size="10.00">ClientManager.h</text>
</a>
</g>
</g>
<!-- Node8&#45;&gt;Node9 -->
<g id="edge5" class="edge"><title>Node8&#45;&gt;Node9</title>
<path fill="none" stroke="midnightblue" d="M838.525,-101.068C834.324,-91.7905 829.359,-80.8272 826.064,-73.5496"/>
<polygon fill="midnightblue" stroke="midnightblue" points="835.355,-102.553 842.668,-110.219 841.732,-99.6654 835.355,-102.553"/>
</g>
<!-- Node11 -->
<g id="node8" class="node"><title>Node11</title>
<g id="a_node8"><a xlink:href="../../d2/d77/ControllerClient_8cpp.html" target="_top" xlink:title="ControllerClient.cpp">
<polygon fill="white" stroke="black" points="884.51,-55.5 884.51,-73.5 988.327,-73.5 988.327,-55.5 884.51,-55.5"/>
<text text-anchor="middle" x="936.418" y="-61.5" font-family="Helvetica,sans-Serif" font-size="10.00">ControllerClient.cpp</text>
</a>
</g>
</g>
<!-- Node8&#45;&gt;Node11 -->
<g id="edge7" class="edge"><title>Node8&#45;&gt;Node11</title>
<path fill="none" stroke="midnightblue" d="M868.786,-105.328C885.669,-95.3856 908.298,-82.0598 922.621,-73.6253"/>
<polygon fill="midnightblue" stroke="midnightblue" points="866.928,-102.36 860.088,-110.45 870.48,-108.392 866.928,-102.36"/>
</g>
<!-- Node10 -->
<g id="node7" class="node"><title>Node10</title>
<g id="a_node7"><a xlink:href="../../d9/d36/ClientManager_8cpp.html" target="_top" xlink:title="ClientManager.cpp">
<polygon fill="white" stroke="black" points="772.724,-0.5 772.724,-18.5 872.113,-18.5 872.113,-0.5 772.724,-0.5"/>
<text text-anchor="middle" x="822.418" y="-6.5" font-family="Helvetica,sans-Serif" font-size="10.00">ClientManager.cpp</text>
</a>
</g>
</g>
<!-- Node9&#45;&gt;Node10 -->
<g id="edge6" class="edge"><title>Node9&#45;&gt;Node10</title>
<path fill="none" stroke="midnightblue" d="M822.418,-45.1746C822.418,-36.0945 822.418,-25.5949 822.418,-18.5496"/>
<polygon fill="midnightblue" stroke="midnightblue" points="818.919,-45.2187 822.418,-55.2188 825.919,-45.2188 818.919,-45.2187"/>
</g>
<!-- Node13 -->
<g id="node10" class="node"><title>Node13</title>
<g id="a_node10"><a xlink:href="../../d5/dd2/ControllerServer_8cpp.html" target="_top" xlink:title="ControllerServer.cpp">
<polygon fill="white" stroke="black" points="623.84,-0.5 623.84,-18.5 730.997,-18.5 730.997,-0.5 623.84,-0.5"/>
<text text-anchor="middle" x="677.418" y="-6.5" font-family="Helvetica,sans-Serif" font-size="10.00">ControllerServer.cpp</text>
</a>
</g>
</g>
<!-- Node12&#45;&gt;Node13 -->
<g id="edge9" class="edge"><title>Node12&#45;&gt;Node13</title>
<path fill="none" stroke="midnightblue" d="M677.418,-45.1746C677.418,-36.0945 677.418,-25.5949 677.418,-18.5496"/>
<polygon fill="midnightblue" stroke="midnightblue" points="673.919,-45.2187 677.418,-55.2188 680.919,-45.2188 673.919,-45.2187"/>
</g>
<!-- Node14&#45;&gt;Node12 -->
<g id="edge11" class="edge"><title>Node14&#45;&gt;Node12</title>
<path fill="none" stroke="midnightblue" d="M531.262,-107.6C566.419,-97.4728 617.96,-82.6265 649.512,-73.5383"/>
<polygon fill="midnightblue" stroke="midnightblue" points="530.005,-104.319 521.364,-110.45 531.942,-111.046 530.005,-104.319"/>
</g>
<!-- Node15 -->
<g id="node12" class="node"><title>Node15</title>
<g id="a_node12"><a xlink:href="../../dc/dac/ServerCommunications_8cpp.html" target="_top" xlink:title="ServerCommunications.cpp">
<polygon fill="white" stroke="black" points="424.005,-55.5 424.005,-73.5 562.832,-73.5 562.832,-55.5 424.005,-55.5"/>
<text text-anchor="middle" x="493.418" y="-61.5" font-family="Helvetica,sans-Serif" font-size="10.00">ServerCommunications.cpp</text>
</a>
</g>
</g>
<!-- Node14&#45;&gt;Node15 -->
<g id="edge12" class="edge"><title>Node14&#45;&gt;Node15</title>
<path fill="none" stroke="midnightblue" d="M493.418,-100.175C493.418,-91.0945 493.418,-80.5949 493.418,-73.5496"/>
<polygon fill="midnightblue" stroke="midnightblue" points="489.919,-100.219 493.418,-110.219 496.919,-100.219 489.919,-100.219"/>
</g>
<!-- Node17&#45;&gt;Node5 -->
<g id="edge33" class="edge"><title>Node17&#45;&gt;Node5</title>
<path fill="none" stroke="midnightblue" d="M580.506,-279.967C493.365,-273.349 303.169,-258.021 143.418,-239 140.589,-238.663 137.684,-238.298 134.755,-237.915"/>
<polygon fill="midnightblue" stroke="midnightblue" points="580.378,-283.467 590.614,-280.73 580.906,-276.487 580.378,-283.467"/>
</g>
<!-- Node17&#45;&gt;Node6 -->
<g id="edge34" class="edge"><title>Node17&#45;&gt;Node6</title>
<path fill="none" stroke="midnightblue" d="M614.797,-267.27C605.705,-254.372 596.569,-235.917 603.418,-220 610.17,-204.311 625.473,-191.565 636.793,-183.798"/>
<polygon fill="midnightblue" stroke="midnightblue" points="612.025,-269.407 620.888,-275.213 617.58,-265.148 612.025,-269.407"/>
</g>
<!-- Node18 -->
<g id="node15" class="node"><title>Node18</title>
<g id="a_node15"><a xlink:href="../../da/db2/CartesianTaskBuilder_8h.html" target="_top" xlink:title="CartesianTaskBuilder.h">
<polygon fill="white" stroke="black" points="612.278,-220.5 612.278,-238.5 730.559,-238.5 730.559,-220.5 612.278,-220.5"/>
<text text-anchor="middle" x="671.418" y="-226.5" font-family="Helvetica,sans-Serif" font-size="10.00">CartesianTaskBuilder.h</text>
</a>
</g>
</g>
<!-- Node17&#45;&gt;Node18 -->
<g id="edge15" class="edge"><title>Node17&#45;&gt;Node18</title>
<path fill="none" stroke="midnightblue" d="M641.608,-267.243C649.326,-257.73 658.732,-246.137 664.888,-238.55"/>
<polygon fill="midnightblue" stroke="midnightblue" points="638.72,-265.248 635.137,-275.219 644.156,-269.658 638.72,-265.248"/>
</g>
<!-- Node20 -->
<g id="node17" class="node"><title>Node20</title>
<g id="a_node17"><a xlink:href="../../de/d08/ComTaskBuilder_8h.html" target="_top" xlink:title="ComTaskBuilder.h">
<polygon fill="white" stroke="black" points="460.121,-220.5 460.121,-238.5 556.716,-238.5 556.716,-220.5 460.121,-220.5"/>
<text text-anchor="middle" x="508.418" y="-226.5" font-family="Helvetica,sans-Serif" font-size="10.00">ComTaskBuilder.h</text>
</a>
</g>
</g>
<!-- Node17&#45;&gt;Node20 -->
<g id="edge18" class="edge"><title>Node17&#45;&gt;Node20</title>
<path fill="none" stroke="midnightblue" d="M600.758,-271.283C578.051,-261.254 546.531,-247.333 526.815,-238.625"/>
<polygon fill="midnightblue" stroke="midnightblue" points="599.631,-274.612 610.193,-275.45 602.46,-268.209 599.631,-274.612"/>
</g>
<!-- Node22 -->
<g id="node19" class="node"><title>Node22</title>
<g id="a_node19"><a xlink:href="../../dc/d87/FullPostureTaskBuilder_8h.html" target="_top" xlink:title="FullPostureTaskBuilder.h">
<polygon fill="white" stroke="black" points="852.389,-220.5 852.389,-238.5 978.448,-238.5 978.448,-220.5 852.389,-220.5"/>
<text text-anchor="middle" x="915.418" y="-226.5" font-family="Helvetica,sans-Serif" font-size="10.00">FullPostureTaskBuilder.h</text>
</a>
</g>
</g>
<!-- Node17&#45;&gt;Node22 -->
<g id="edge21" class="edge"><title>Node17&#45;&gt;Node22</title>
<path fill="none" stroke="midnightblue" d="M676.341,-274.65C730.891,-264.576 819.231,-248.263 871.885,-238.539"/>
<polygon fill="midnightblue" stroke="midnightblue" points="675.432,-271.259 666.234,-276.517 676.703,-278.142 675.432,-271.259"/>
</g>
<!-- Node24 -->
<g id="node21" class="node"><title>Node24</title>
<g id="a_node21"><a xlink:href="../../d1/df8/OrientationTaskBuilder_8h.html" target="_top" xlink:title="OrientationTaskBuilder.h">
<polygon fill="white" stroke="black" points="1034.22,-220.5 1034.22,-238.5 1158.62,-238.5 1158.62,-220.5 1034.22,-220.5"/>
<text text-anchor="middle" x="1096.42" y="-226.5" font-family="Helvetica,sans-Serif" font-size="10.00">OrientationTaskBuilder.h</text>
</a>
</g>
</g>
<!-- Node17&#45;&gt;Node24 -->
<g id="edge24" class="edge"><title>Node17&#45;&gt;Node24</title>
<path fill="none" stroke="midnightblue" d="M676.499,-278.055C761.806,-268.394 939.536,-248.267 1034.1,-237.557"/>
<polygon fill="midnightblue" stroke="midnightblue" points="675.863,-274.605 666.32,-279.208 676.651,-281.56 675.863,-274.605"/>
</g>
<!-- Node26 -->
<g id="node23" class="node"><title>Node26</title>
<g id="a_node23"><a xlink:href="../../d5/d81/PartialPostureTaskBuilder_8h.html" target="_top" xlink:title="PartialPostureTaskBuilder.h">
<polygon fill="white" stroke="black" points="152.273,-220.5 152.273,-238.5 290.563,-238.5 290.563,-220.5 152.273,-220.5"/>
<text text-anchor="middle" x="221.418" y="-226.5" font-family="Helvetica,sans-Serif" font-size="10.00">PartialPostureTaskBuilder.h</text>
</a>
</g>
</g>
<!-- Node17&#45;&gt;Node26 -->
<g id="edge27" class="edge"><title>Node17&#45;&gt;Node26</title>
<path fill="none" stroke="midnightblue" d="M580.522,-277.263C506.554,-267.631 364.567,-249.141 283.044,-238.525"/>
<polygon fill="midnightblue" stroke="midnightblue" points="580.126,-280.741 590.494,-278.561 581.03,-273.799 580.126,-280.741"/>
</g>
<!-- Node28 -->
<g id="node25" class="node"><title>Node28</title>
<g id="a_node25"><a xlink:href="../../d2/d1a/PointContactTaskBuilder_8h.html" target="_top" xlink:title="PointContactTaskBuilder.h">
<polygon fill="white" stroke="black" points="309.049,-220.5 309.049,-238.5 441.788,-238.5 441.788,-220.5 309.049,-220.5"/>
<text text-anchor="middle" x="375.418" y="-226.5" font-family="Helvetica,sans-Serif" font-size="10.00">PointContactTaskBuilder.h</text>
</a>
</g>
</g>
<!-- Node17&#45;&gt;Node28 -->
<g id="edge30" class="edge"><title>Node17&#45;&gt;Node28</title>
<path fill="none" stroke="midnightblue" d="M580.643,-273.492C532.354,-263.376 458.663,-247.939 413.969,-238.576"/>
<polygon fill="midnightblue" stroke="midnightblue" points="580.037,-276.941 590.542,-275.565 581.472,-270.089 580.037,-276.941"/>
</g>
<!-- Node30 -->
<g id="node27" class="node"><title>Node30</title>
<g id="a_node27"><a xlink:href="../../da/d3a/TaskBuilder_8cpp.html" target="_top" xlink:title="TaskBuilder.cpp">
<polygon fill="white" stroke="black" points="748.396,-220.5 748.396,-238.5 834.44,-238.5 834.44,-220.5 748.396,-220.5"/>
<text text-anchor="middle" x="791.418" y="-226.5" font-family="Helvetica,sans-Serif" font-size="10.00">TaskBuilder.cpp</text>
</a>
</g>
</g>
<!-- Node17&#45;&gt;Node30 -->
<g id="edge35" class="edge"><title>Node17&#45;&gt;Node30</title>
<path fill="none" stroke="midnightblue" d="M662.748,-272.338C693.87,-262.218 738.986,-247.549 766.697,-238.538"/>
<polygon fill="midnightblue" stroke="midnightblue" points="661.602,-269.03 653.175,-275.45 663.767,-275.687 661.602,-269.03"/>
</g>
<!-- Node18&#45;&gt;Node6 -->
<g id="edge16" class="edge"><title>Node18&#45;&gt;Node6</title>
<path fill="none" stroke="midnightblue" d="M664.394,-210.771C660.743,-201.558 656.461,-190.75 653.608,-183.55"/>
<polygon fill="midnightblue" stroke="midnightblue" points="661.2,-212.211 668.137,-220.219 667.707,-209.633 661.2,-212.211"/>
</g>
<!-- Node19 -->
<g id="node16" class="node"><title>Node19</title>
<g id="a_node16"><a xlink:href="../../d5/d46/CartesianTaskBuilder_8cpp.html" target="_top" xlink:title="CartesianTaskBuilder.cpp">
<polygon fill="white" stroke="black" points="737.998,-165.5 737.998,-183.5 866.839,-183.5 866.839,-165.5 737.998,-165.5"/>
<text text-anchor="middle" x="802.418" y="-171.5" font-family="Helvetica,sans-Serif" font-size="10.00">CartesianTaskBuilder.cpp</text>
</a>
</g>
</g>
<!-- Node18&#45;&gt;Node19 -->
<g id="edge17" class="edge"><title>Node18&#45;&gt;Node19</title>
<path fill="none" stroke="midnightblue" d="M700.619,-216.686C725.475,-206.63 760.522,-192.45 782.335,-183.625"/>
<polygon fill="midnightblue" stroke="midnightblue" points="699.272,-213.455 691.315,-220.45 701.897,-219.944 699.272,-213.455"/>
</g>
<!-- Node20&#45;&gt;Node6 -->
<g id="edge19" class="edge"><title>Node20&#45;&gt;Node6</title>
<path fill="none" stroke="midnightblue" d="M539.358,-216.952C566.34,-206.881 604.795,-192.528 628.649,-183.625"/>
<polygon fill="midnightblue" stroke="midnightblue" points="538.13,-213.675 529.985,-220.45 540.578,-220.233 538.13,-213.675"/>
</g>
<!-- Node21 -->
<g id="node18" class="node"><title>Node21</title>
<g id="a_node18"><a xlink:href="../../d4/d18/ComTaskBuilder_8cpp.html" target="_top" xlink:title="ComTaskBuilder.cpp">
<polygon fill="white" stroke="black" points="454.84,-165.5 454.84,-183.5 561.997,-183.5 561.997,-165.5 454.84,-165.5"/>
<text text-anchor="middle" x="508.418" y="-171.5" font-family="Helvetica,sans-Serif" font-size="10.00">ComTaskBuilder.cpp</text>
</a>
</g>
</g>
<!-- Node20&#45;&gt;Node21 -->
<g id="edge20" class="edge"><title>Node20&#45;&gt;Node21</title>
<path fill="none" stroke="midnightblue" d="M508.418,-210.175C508.418,-201.094 508.418,-190.595 508.418,-183.55"/>
<polygon fill="midnightblue" stroke="midnightblue" points="504.919,-210.219 508.418,-220.219 511.919,-210.219 504.919,-210.219"/>
</g>
<!-- Node22&#45;&gt;Node6 -->
<g id="edge22" class="edge"><title>Node22&#45;&gt;Node6</title>
<path fill="none" stroke="midnightblue" d="M865.098,-218.436C814.446,-208.306 737.319,-192.88 690.61,-183.538"/>
<polygon fill="midnightblue" stroke="midnightblue" points="864.678,-221.921 875.171,-220.45 866.051,-215.057 864.678,-221.921"/>
</g>
<!-- Node23 -->
<g id="node20" class="node"><title>Node23</title>
<g id="a_node20"><a xlink:href="../../d7/de9/FullPostureTaskBuilder_8cpp.html" target="_top" xlink:title="FullPostureTaskBuilder.cpp">
<polygon fill="white" stroke="black" points="885.108,-165.5 885.108,-183.5 1021.73,-183.5 1021.73,-165.5 885.108,-165.5"/>
<text text-anchor="middle" x="953.418" y="-171.5" font-family="Helvetica,sans-Serif" font-size="10.00">FullPostureTaskBuilder.cpp</text>
</a>
</g>
</g>
<!-- Node22&#45;&gt;Node23 -->
<g id="edge23" class="edge"><title>Node22&#45;&gt;Node23</title>
<path fill="none" stroke="midnightblue" d="M927.284,-211.951C934.064,-202.494 942.263,-191.059 947.647,-183.55"/>
<polygon fill="midnightblue" stroke="midnightblue" points="924.338,-210.052 921.356,-220.219 930.027,-214.131 924.338,-210.052"/>
</g>
<!-- Node24&#45;&gt;Node6 -->
<g id="edge25" class="edge"><title>Node24&#45;&gt;Node6</title>
<path fill="none" stroke="midnightblue" d="M1023.89,-219.881C939.243,-209.822 800.385,-193.321 717.948,-183.525"/>
<polygon fill="midnightblue" stroke="midnightblue" points="1023.59,-223.37 1033.93,-221.075 1024.42,-216.419 1023.59,-223.37"/>
</g>
<!-- Node25 -->
<g id="node22" class="node"><title>Node25</title>
<g id="a_node22"><a xlink:href="../../d8/da4/OrientationTaskBuilder_8cpp.html" target="_top" xlink:title="OrientationTaskBuilder.cpp">
<polygon fill="white" stroke="black" points="1039.94,-165.5 1039.94,-183.5 1174.9,-183.5 1174.9,-165.5 1039.94,-165.5"/>
<text text-anchor="middle" x="1107.42" y="-171.5" font-family="Helvetica,sans-Serif" font-size="10.00">OrientationTaskBuilder.cpp</text>
</a>
</g>
</g>
<!-- Node24&#45;&gt;Node25 -->
<g id="edge26" class="edge"><title>Node24&#45;&gt;Node25</title>
<path fill="none" stroke="midnightblue" d="M1100.22,-210.175C1102.11,-201.094 1104.29,-190.595 1105.75,-183.55"/>
<polygon fill="midnightblue" stroke="midnightblue" points="1096.74,-209.716 1098.14,-220.219 1103.6,-211.139 1096.74,-209.716"/>
</g>
<!-- Node26&#45;&gt;Node6 -->
<g id="edge28" class="edge"><title>Node26&#45;&gt;Node6</title>
<path fill="none" stroke="midnightblue" d="M296.551,-219.218C378.329,-209.115 507.765,-193.124 585.354,-183.538"/>
<polygon fill="midnightblue" stroke="midnightblue" points="296.07,-215.751 286.574,-220.45 296.928,-222.698 296.07,-215.751"/>
</g>
<!-- Node27 -->
<g id="node24" class="node"><title>Node27</title>
<g id="a_node24"><a xlink:href="../../d5/df0/PartialPostureTaskBuilder_8cpp.html" target="_top" xlink:title="PartialPostureTaskBuilder.cpp">
<polygon fill="white" stroke="black" points="126.993,-165.5 126.993,-183.5 275.844,-183.5 275.844,-165.5 126.993,-165.5"/>
<text text-anchor="middle" x="201.418" y="-171.5" font-family="Helvetica,sans-Serif" font-size="10.00">PartialPostureTaskBuilder.cpp</text>
</a>
</g>
</g>
<!-- Node26&#45;&gt;Node27 -->
<g id="edge29" class="edge"><title>Node26&#45;&gt;Node27</title>
<path fill="none" stroke="midnightblue" d="M214.728,-210.771C211.252,-201.558 207.173,-190.75 204.456,-183.55"/>
<polygon fill="midnightblue" stroke="midnightblue" points="211.488,-212.098 218.293,-220.219 218.037,-209.627 211.488,-212.098"/>
</g>
<!-- Node28&#45;&gt;Node6 -->
<g id="edge31" class="edge"><title>Node28&#45;&gt;Node6</title>
<path fill="none" stroke="midnightblue" d="M427.309,-218.499C479.867,-208.37 560.138,-192.9 608.71,-183.538"/>
<polygon fill="midnightblue" stroke="midnightblue" points="426.342,-215.121 417.185,-220.45 427.667,-221.995 426.342,-215.121"/>
</g>
<!-- Node29 -->
<g id="node26" class="node"><title>Node29</title>
<g id="a_node26"><a xlink:href="../../da/d78/PointContactTaskBuilder_8cpp.html" target="_top" xlink:title="PointContactTaskBuilder.cpp">
<polygon fill="white" stroke="black" points="293.769,-165.5 293.769,-183.5 437.068,-183.5 437.068,-165.5 293.769,-165.5"/>
<text text-anchor="middle" x="365.418" y="-171.5" font-family="Helvetica,sans-Serif" font-size="10.00">PointContactTaskBuilder.cpp</text>
</a>
</g>
</g>
<!-- Node28&#45;&gt;Node29 -->
<g id="edge32" class="edge"><title>Node28&#45;&gt;Node29</title>
<path fill="none" stroke="midnightblue" d="M371.961,-210.175C370.248,-201.094 368.267,-190.595 366.937,-183.55"/>
<polygon fill="midnightblue" stroke="midnightblue" points="368.562,-211.041 373.856,-220.219 375.441,-209.743 368.562,-211.041"/>
</g>
<!-- Node31&#45;&gt;Node8 -->
<g id="edge38" class="edge"><title>Node31&#45;&gt;Node8</title>
<path fill="none" stroke="midnightblue" d="M1270.42,-268.963C1285.46,-256.172 1301.83,-236.992 1291.42,-220 1263.27,-174.075 1234.86,-180.978 1183.42,-165 1083.1,-133.841 959.361,-124.498 893.271,-121.698"/>
<polygon fill="midnightblue" stroke="midnightblue" points="1268.03,-266.394 1262.38,-275.358 1272.38,-271.873 1268.03,-266.394"/>
</g>
<!-- Node31&#45;&gt;Node32 -->
<g id="edge39" class="edge"><title>Node31&#45;&gt;Node32</title>
<path fill="none" stroke="midnightblue" d="M1280.83,-271.819C1307.04,-261.756 1344.18,-247.489 1367.26,-238.625"/>
<polygon fill="midnightblue" stroke="midnightblue" points="1279.46,-268.598 1271.38,-275.45 1281.97,-275.132 1279.46,-268.598"/>
</g>
<!-- Node34 -->
<g id="node31" class="node"><title>Node34</title>
<g id="a_node31"><a xlink:href="../../d1/d60/TaskConnection_8cpp.html" target="_top" xlink:title="TaskConnection.cpp">
<polygon fill="white" stroke="black" points="1176.39,-220.5 1176.39,-238.5 1282.45,-238.5 1282.45,-220.5 1176.39,-220.5"/>
<text text-anchor="middle" x="1229.42" y="-226.5" font-family="Helvetica,sans-Serif" font-size="10.00">TaskConnection.cpp</text>
</a>
</g>
</g>
<!-- Node31&#45;&gt;Node34 -->
<g id="edge41" class="edge"><title>Node31&#45;&gt;Node34</title>
<path fill="none" stroke="midnightblue" d="M1243.39,-265.771C1239.74,-256.558 1235.46,-245.75 1232.61,-238.55"/>
<polygon fill="midnightblue" stroke="midnightblue" points="1240.2,-267.211 1247.14,-275.219 1246.71,-264.633 1240.2,-267.211"/>
</g>
<!-- Node33 -->
<g id="node30" class="node"><title>Node33</title>
<g id="a_node30"><a xlink:href="../../d6/db4/TrajectoryThread_8cpp.html" target="_top" xlink:title="A thread for launching trajectory generators. ">
<polygon fill="white" stroke="black" points="1338.08,-165.5 1338.08,-183.5 1448.75,-183.5 1448.75,-165.5 1338.08,-165.5"/>
<text text-anchor="middle" x="1393.42" y="-171.5" font-family="Helvetica,sans-Serif" font-size="10.00">TrajectoryThread.cpp</text>
</a>
</g>
</g>
<!-- Node32&#45;&gt;Node33 -->
<g id="edge40" class="edge"><title>Node32&#45;&gt;Node33</title>
<path fill="none" stroke="midnightblue" d="M1390.15,-210.175C1391,-201.094 1391.99,-190.595 1392.66,-183.55"/>
<polygon fill="midnightblue" stroke="midnightblue" points="1386.65,-209.934 1389.2,-220.219 1393.62,-210.592 1386.65,-209.934"/>
</g>
</g>
</svg>
