<?xml version="1.0" encoding="UTF-8" standalone="no"?>
<!DOCTYPE svg PUBLIC "-//W3C//DTD SVG 1.1//EN"
 "http://www.w3.org/Graphics/SVG/1.1/DTD/svg11.dtd">
<!-- Generated by graphviz version 2.38.0 (20140413.2041)
 -->
<!-- Title: OrthonormalFamily.cpp Pages: 1 -->
<svg width="216pt" height="137pt"
 viewBox="0.00 0.00 216.38 137.00" xmlns="http://www.w3.org/2000/svg" xmlns:xlink="http://www.w3.org/1999/xlink">
<g id="graph0" class="graph" transform="scale(1 1) rotate(0) translate(4 133)">
<title>OrthonormalFamily.cpp</title>
<polygon fill="white" stroke="none" points="-4,4 -4,-133 212.38,-133 212.38,4 -4,4"/>
<!-- Node0 -->
<g id="node1" class="node"><title>Node0</title>
<polygon fill="#bfbfbf" stroke="black" points="64.6157,-110.5 64.6157,-128.5 183.799,-128.5 183.799,-110.5 64.6157,-110.5"/>
<text text-anchor="middle" x="124.208" y="-116.5" font-family="Helvetica,sans-Serif" font-size="10.00">OrthonormalFamily.cpp</text>
</g>
<!-- Node1 -->
<g id="node2" class="node"><title>Node1</title>
<g id="a_node2"><a xlink:href="../../d0/d09/OrthonormalFamily_8h.html" target="_top" xlink:title="gocra/OrthonormalFamily.h">
<polygon fill="white" stroke="black" points="0,-55.5 0,-73.5 136.415,-73.5 136.415,-55.5 0,-55.5"/>
<text text-anchor="middle" x="68.2075" y="-61.5" font-family="Helvetica,sans-Serif" font-size="10.00">gocra/OrthonormalFamily.h</text>
</a>
</g>
</g>
<!-- Node0&#45;&gt;Node1 -->
<g id="edge1" class="edge"><title>Node0&#45;&gt;Node1</title>
<path fill="none" stroke="midnightblue" d="M115.458,-110.219C107.108,-102.316 94.331,-90.2241 84.1682,-80.6057"/>
<polygon fill="midnightblue" stroke="midnightblue" points="86.3815,-77.8814 76.7127,-73.5496 81.5698,-82.9655 86.3815,-77.8814"/>
</g>
<!-- Node3 -->
<g id="node4" class="node"><title>Node3</title>
<polygon fill="white" stroke="#bfbfbf" points="154.035,-55.5 154.035,-73.5 208.38,-73.5 208.38,-55.5 154.035,-55.5"/>
<text text-anchor="middle" x="181.208" y="-61.5" font-family="Helvetica,sans-Serif" font-size="10.00">iostream</text>
</g>
<!-- Node0&#45;&gt;Node3 -->
<g id="edge3" class="edge"><title>Node0&#45;&gt;Node3</title>
<path fill="none" stroke="midnightblue" d="M133.114,-110.219C141.613,-102.316 154.617,-90.2241 164.962,-80.6057"/>
<polygon fill="midnightblue" stroke="midnightblue" points="167.61,-82.9222 172.55,-73.5496 162.844,-77.7958 167.61,-82.9222"/>
</g>
<!-- Node2 -->
<g id="node3" class="node"><title>Node2</title>
<polygon fill="white" stroke="#bfbfbf" points="33.2422,-0.5 33.2422,-18.5 103.173,-18.5 103.173,-0.5 33.2422,-0.5"/>
<text text-anchor="middle" x="68.2075" y="-6.5" font-family="Helvetica,sans-Serif" font-size="10.00">Eigen/Eigen</text>
</g>
<!-- Node1&#45;&gt;Node2 -->
<g id="edge2" class="edge"><title>Node1&#45;&gt;Node2</title>
<path fill="none" stroke="midnightblue" d="M68.2075,-55.2188C68.2075,-48.1769 68.2075,-37.8083 68.2075,-28.8277"/>
<polygon fill="midnightblue" stroke="midnightblue" points="71.7076,-28.5495 68.2075,-18.5496 64.7076,-28.5496 71.7076,-28.5495"/>
</g>
</g>
</svg>
