<?xml version="1.0" encoding="UTF-8" standalone="no"?>
<!DOCTYPE svg PUBLIC "-//W3C//DTD SVG 1.1//EN"
 "http://www.w3.org/Graphics/SVG/1.1/DTD/svg11.dtd">
<!-- Generated by graphviz version 2.38.0 (20140413.2041)
 -->
<!-- Title: IFunctionProperties.cpp Pages: 1 -->
<svg width="388pt" height="137pt"
 viewBox="0.00 0.00 387.82 137.00" xmlns="http://www.w3.org/2000/svg" xmlns:xlink="http://www.w3.org/1999/xlink">
<g id="graph0" class="graph" transform="scale(1 1) rotate(0) translate(4 133)">
<title>IFunctionProperties.cpp</title>
<polygon fill="white" stroke="none" points="-4,4 -4,-133 383.82,-133 383.82,4 -4,4"/>
<!-- Node0 -->
<g id="node1" class="node"><title>Node0</title>
<polygon fill="#bfbfbf" stroke="black" points="180.451,-110.5 180.451,-128.5 302.061,-128.5 302.061,-110.5 180.451,-110.5"/>
<text text-anchor="middle" x="241.256" y="-116.5" font-family="Helvetica,sans-Serif" font-size="10.00">IFunctionProperties.cpp</text>
</g>
<!-- Node1 -->
<g id="node2" class="node"><title>Node1</title>
<g id="a_node2"><a xlink:href="../../d9/d54/IFunctionProperties_8h.html" target="_top" xlink:title="ocra/optim/IFunctionProperties.h">
<polygon fill="white" stroke="black" points="0,-55.5 0,-73.5 160.512,-73.5 160.512,-55.5 0,-55.5"/>
<text text-anchor="middle" x="80.2559" y="-61.5" font-family="Helvetica,sans-Serif" font-size="10.00">ocra/optim/IFunctionProperties.h</text>
</a>
</g>
</g>
<!-- Node0&#45;&gt;Node1 -->
<g id="edge1" class="edge"><title>Node0&#45;&gt;Node1</title>
<path fill="none" stroke="midnightblue" d="M216.803,-110.45C189.537,-101.475 145.24,-86.8922 114.525,-76.7813"/>
<polygon fill="midnightblue" stroke="midnightblue" points="115.267,-73.3407 104.674,-73.5383 113.078,-79.9897 115.267,-73.3407"/>
</g>
<!-- Node4 -->
<g id="node5" class="node"><title>Node4</title>
<g id="a_node5"><a xlink:href="../../de/df3/ocra__assert_8h.html" target="_top" xlink:title="ocra/optim/ocra_assert.h">
<polygon fill="white" stroke="black" points="178.231,-55.5 178.231,-73.5 304.28,-73.5 304.28,-55.5 178.231,-55.5"/>
<text text-anchor="middle" x="241.256" y="-61.5" font-family="Helvetica,sans-Serif" font-size="10.00">ocra/optim/ocra_assert.h</text>
</a>
</g>
</g>
<!-- Node0&#45;&gt;Node4 -->
<g id="edge4" class="edge"><title>Node0&#45;&gt;Node4</title>
<path fill="none" stroke="midnightblue" d="M241.256,-110.219C241.256,-103.177 241.256,-92.8083 241.256,-83.8277"/>
<polygon fill="midnightblue" stroke="midnightblue" points="244.756,-83.5495 241.256,-73.5496 237.756,-83.5496 244.756,-83.5495"/>
</g>
<!-- Node6 -->
<g id="node7" class="node"><title>Node6</title>
<polygon fill="white" stroke="#bfbfbf" points="322.692,-55.5 322.692,-73.5 379.82,-73.5 379.82,-55.5 322.692,-55.5"/>
<text text-anchor="middle" x="351.256" y="-61.5" font-family="Helvetica,sans-Serif" font-size="10.00">algorithm</text>
</g>
<!-- Node0&#45;&gt;Node6 -->
<g id="edge6" class="edge"><title>Node0&#45;&gt;Node6</title>
<path fill="none" stroke="midnightblue" d="M257.962,-110.45C275.811,-101.851 304.34,-88.1048 325.156,-78.0755"/>
<polygon fill="midnightblue" stroke="midnightblue" points="326.902,-81.1191 334.392,-73.6253 323.864,-74.8129 326.902,-81.1191"/>
</g>
<!-- Node2 -->
<g id="node3" class="node"><title>Node2</title>
<polygon fill="white" stroke="#bfbfbf" points="30.0293,-0.5 30.0293,-18.5 70.4824,-18.5 70.4824,-0.5 30.0293,-0.5"/>
<text text-anchor="middle" x="50.2559" y="-6.5" font-family="Helvetica,sans-Serif" font-size="10.00">string</text>
</g>
<!-- Node1&#45;&gt;Node2 -->
<g id="edge2" class="edge"><title>Node1&#45;&gt;Node2</title>
<path fill="none" stroke="midnightblue" d="M75.5684,-55.2188C71.3609,-47.7856 65.0555,-36.646 59.7906,-27.3446"/>
<polygon fill="midnightblue" stroke="midnightblue" points="62.7841,-25.528 54.8122,-18.5496 56.6923,-28.9763 62.7841,-25.528"/>
</g>
<!-- Node3 -->
<g id="node4" class="node"><title>Node3</title>
<polygon fill="white" stroke="#bfbfbf" points="88.6401,-0.5 88.6401,-18.5 131.872,-18.5 131.872,-0.5 88.6401,-0.5"/>
<text text-anchor="middle" x="110.256" y="-6.5" font-family="Helvetica,sans-Serif" font-size="10.00">vector</text>
</g>
<!-- Node1&#45;&gt;Node3 -->
<g id="edge3" class="edge"><title>Node1&#45;&gt;Node3</title>
<path fill="none" stroke="midnightblue" d="M84.9434,-55.2188C89.1508,-47.7856 95.4563,-36.646 100.721,-27.3446"/>
<polygon fill="midnightblue" stroke="midnightblue" points="103.819,-28.9763 105.7,-18.5496 97.7276,-25.528 103.819,-28.9763"/>
</g>
<!-- Node5 -->
<g id="node6" class="node"><title>Node5</title>
<polygon fill="white" stroke="#bfbfbf" points="220.194,-0.5 220.194,-18.5 262.317,-18.5 262.317,-0.5 220.194,-0.5"/>
<text text-anchor="middle" x="241.256" y="-6.5" font-family="Helvetica,sans-Serif" font-size="10.00">cstdio</text>
</g>
<!-- Node4&#45;&gt;Node5 -->
<g id="edge5" class="edge"><title>Node4&#45;&gt;Node5</title>
<path fill="none" stroke="midnightblue" d="M241.256,-55.2188C241.256,-48.1769 241.256,-37.8083 241.256,-28.8277"/>
<polygon fill="midnightblue" stroke="midnightblue" points="244.756,-28.5495 241.256,-18.5496 237.756,-28.5496 244.756,-28.5495"/>
</g>
</g>
</svg>
