<?xml version="1.0" encoding="UTF-8" standalone="no"?>
<!DOCTYPE svg PUBLIC "-//W3C//DTD SVG 1.1//EN"
 "http://www.w3.org/Graphics/SVG/1.1/DTD/svg11.dtd">
<!-- Generated by graphviz version 2.38.0 (20140413.2041)
 -->
<!-- Title: LinearTask.cpp Pages: 1 -->
<svg width="1547pt" height="507pt"
 viewBox="0.00 0.00 1547.30 507.00" xmlns="http://www.w3.org/2000/svg" xmlns:xlink="http://www.w3.org/1999/xlink">
<g id="graph0" class="graph" transform="scale(1 1) rotate(0) translate(4 503)">
<title>LinearTask.cpp</title>
<polygon fill="white" stroke="none" points="-4,4 -4,-503 1543.3,-503 1543.3,4 -4,4"/>
<!-- Node0 -->
<g id="node1" class="node"><title>Node0</title>
<polygon fill="#bfbfbf" stroke="black" points="608.057,-480.5 608.057,-498.5 691.317,-498.5 691.317,-480.5 608.057,-480.5"/>
<text text-anchor="middle" x="649.687" y="-486.5" font-family="Helvetica,sans-Serif" font-size="10.00">LinearTask.cpp</text>
</g>
<!-- Node1 -->
<g id="node2" class="node"><title>Node1</title>
<g id="a_node2"><a xlink:href="../../dc/df4/LinearTask_8h.html" target="_top" xlink:title="Declaration file of the LinearTask class. ">
<polygon fill="white" stroke="black" points="588.606,-425.5 588.606,-443.5 710.768,-443.5 710.768,-425.5 588.606,-425.5"/>
<text text-anchor="middle" x="649.687" y="-431.5" font-family="Helvetica,sans-Serif" font-size="10.00">ocra/optim/LinearTask.h</text>
</a>
</g>
</g>
<!-- Node0&#45;&gt;Node1 -->
<g id="edge1" class="edge"><title>Node0&#45;&gt;Node1</title>
<path fill="none" stroke="midnightblue" d="M649.687,-480.219C649.687,-473.177 649.687,-462.808 649.687,-453.828"/>
<polygon fill="midnightblue" stroke="midnightblue" points="653.187,-453.55 649.687,-443.55 646.187,-453.55 653.187,-453.55"/>
</g>
<!-- Node12 -->
<g id="node13" class="node"><title>Node12</title>
<polygon fill="white" stroke="#bfbfbf" points="1069.29,-70.5 1069.29,-88.5 1128.09,-88.5 1128.09,-70.5 1069.29,-70.5"/>
<text text-anchor="middle" x="1098.69" y="-76.5" font-family="Helvetica,sans-Serif" font-size="10.00">stdexcept</text>
</g>
<!-- Node0&#45;&gt;Node12 -->
<g id="edge59" class="edge"><title>Node0&#45;&gt;Node12</title>
<path fill="none" stroke="midnightblue" d="M629.5,-480.396C595.549,-465.277 530.687,-429.347 530.687,-375.5 530.687,-375.5 530.687,-375.5 530.687,-258.5 530.687,-224.76 524.607,-207.57 549.687,-185 590.102,-148.631 738.145,-158.449 791.687,-149 851.773,-138.396 1001.91,-110.364 1060.69,-94 1063.02,-93.3504 1065.42,-92.6299 1067.82,-91.8695"/>
<polygon fill="midnightblue" stroke="midnightblue" points="1069.19,-95.1015 1077.55,-88.5981 1066.96,-88.4662 1069.19,-95.1015"/>
</g>
<!-- Node38 -->
<g id="node39" class="node"><title>Node38</title>
<g id="a_node39"><a xlink:href="../../d1/d68/FunctionUtilities_8h.html" target="_top" xlink:title="Declaration file of the FunctionProperties class. ">
<polygon fill="white" stroke="black" points="774.495,-365.5 774.495,-383.5 918.879,-383.5 918.879,-365.5 774.495,-365.5"/>
<text text-anchor="middle" x="846.687" y="-371.5" font-family="Helvetica,sans-Serif" font-size="10.00">ocra/optim/FunctionUtilities.h</text>
</a>
</g>
</g>
<!-- Node0&#45;&gt;Node38 -->
<g id="edge57" class="edge"><title>Node0&#45;&gt;Node38</title>
<path fill="none" stroke="midnightblue" d="M663.855,-480.373C697.576,-461.031 782.844,-412.12 823.903,-388.569"/>
<polygon fill="midnightblue" stroke="midnightblue" points="825.715,-391.565 832.648,-383.553 822.232,-385.493 825.715,-391.565"/>
</g>
<!-- Node2 -->
<g id="node3" class="node"><title>Node2</title>
<g id="a_node3"><a xlink:href="../../dc/d8a/LinearFunction_8h.html" target="_top" xlink:title="Declaration file of the LinearFunction class. ">
<polygon fill="white" stroke="black" points="593.709,-305.5 593.709,-323.5 733.665,-323.5 733.665,-305.5 593.709,-305.5"/>
<text text-anchor="middle" x="663.687" y="-311.5" font-family="Helvetica,sans-Serif" font-size="10.00">ocra/optim/LinearFunction.h</text>
</a>
</g>
</g>
<!-- Node1&#45;&gt;Node2 -->
<g id="edge2" class="edge"><title>Node1&#45;&gt;Node2</title>
<path fill="none" stroke="midnightblue" d="M637.327,-425.307C626.677,-417.436 612.046,-404.476 605.687,-389 600.788,-377.078 599.986,-371.56 605.687,-360 612.308,-346.576 625.138,-336.076 637.051,-328.655"/>
<polygon fill="midnightblue" stroke="midnightblue" points="638.943,-331.604 645.865,-323.583 635.452,-325.537 638.943,-331.604"/>
</g>
<!-- Node37 -->
<g id="node38" class="node"><title>Node37</title>
<g id="a_node38"><a xlink:href="../../dc/d6f/DiagonalLinearFunction_8h.html" target="_top" xlink:title="Declaration file of the DiagonalLinearFunction class. ">
<polygon fill="white" stroke="black" points="614.32,-360.5 614.32,-388.5 747.054,-388.5 747.054,-360.5 614.32,-360.5"/>
<text text-anchor="start" x="622.32" y="-376.5" font-family="Helvetica,sans-Serif" font-size="10.00">ocra/optim/DiagonalLinear</text>
<text text-anchor="middle" x="680.687" y="-366.5" font-family="Helvetica,sans-Serif" font-size="10.00">Function.h</text>
</a>
</g>
</g>
<!-- Node1&#45;&gt;Node37 -->
<g id="edge55" class="edge"><title>Node1&#45;&gt;Node37</title>
<path fill="none" stroke="midnightblue" d="M653.997,-425.435C657.83,-418.265 663.617,-407.437 668.824,-397.695"/>
<polygon fill="midnightblue" stroke="midnightblue" points="671.928,-399.312 673.556,-388.843 665.755,-396.012 671.928,-399.312"/>
</g>
<!-- Node3 -->
<g id="node4" class="node"><title>Node3</title>
<g id="a_node4"><a xlink:href="../../df/df5/Function_8h.html" target="_top" xlink:title="Declaration file of the Function class. ">
<polygon fill="white" stroke="black" points="837.608,-250.5 837.608,-268.5 949.766,-268.5 949.766,-250.5 837.608,-250.5"/>
<text text-anchor="middle" x="893.687" y="-256.5" font-family="Helvetica,sans-Serif" font-size="10.00">ocra/optim/Function.h</text>
</a>
</g>
</g>
<!-- Node2&#45;&gt;Node3 -->
<g id="edge3" class="edge"><title>Node2&#45;&gt;Node3</title>
<path fill="none" stroke="midnightblue" d="M698.619,-305.45C738.841,-296.182 805.006,-280.935 848.96,-270.807"/>
<polygon fill="midnightblue" stroke="midnightblue" points="849.845,-274.195 858.804,-268.538 848.273,-267.373 849.845,-274.195"/>
</g>
<!-- Node35 -->
<g id="node36" class="node"><title>Node35</title>
<g id="a_node36"><a xlink:href="../../df/d0a/Macros_8h.html" target="_top" xlink:title="ocra/util/Macros.h">
<polygon fill="white" stroke="black" points="596.229,-250.5 596.229,-268.5 691.145,-268.5 691.145,-250.5 596.229,-250.5"/>
<text text-anchor="middle" x="643.687" y="-256.5" font-family="Helvetica,sans-Serif" font-size="10.00">ocra/util/Macros.h</text>
</a>
</g>
</g>
<!-- Node2&#45;&gt;Node35 -->
<g id="edge53" class="edge"><title>Node2&#45;&gt;Node35</title>
<path fill="none" stroke="midnightblue" d="M660.562,-305.219C657.816,-297.942 653.73,-287.113 650.266,-277.934"/>
<polygon fill="midnightblue" stroke="midnightblue" points="653.53,-276.67 646.725,-268.55 646.981,-279.141 653.53,-276.67"/>
</g>
<!-- Node4 -->
<g id="node5" class="node"><title>Node4</title>
<g id="a_node5"><a xlink:href="../../de/d94/IFunction_8h.html" target="_top" xlink:title="Declaration file of the IFunction interface. ">
<polygon fill="white" stroke="black" points="1307.22,-130.5 1307.22,-148.5 1422.15,-148.5 1422.15,-130.5 1307.22,-130.5"/>
<text text-anchor="middle" x="1364.69" y="-136.5" font-family="Helvetica,sans-Serif" font-size="10.00">ocra/optim/IFunction.h</text>
</a>
</g>
</g>
<!-- Node3&#45;&gt;Node4 -->
<g id="edge4" class="edge"><title>Node3&#45;&gt;Node4</title>
<path fill="none" stroke="midnightblue" d="M950.146,-258.055C1081.62,-256.433 1399.55,-248.905 1431.69,-214 1440.42,-204.518 1437.78,-196.359 1431.69,-185 1424.02,-170.702 1409.51,-160.216 1395.95,-153.027"/>
<polygon fill="midnightblue" stroke="midnightblue" points="1397.33,-149.807 1386.81,-148.571 1394.26,-156.099 1397.33,-149.807"/>
</g>
<!-- Node13 -->
<g id="node14" class="node"><title>Node13</title>
<g id="a_node14"><a xlink:href="../../d9/d54/IFunctionProperties_8h.html" target="_top" xlink:title="ocra/optim/IFunctionProperties.h">
<polygon fill="white" stroke="black" points="1128.43,-190.5 1128.43,-208.5 1288.94,-208.5 1288.94,-190.5 1128.43,-190.5"/>
<text text-anchor="middle" x="1208.69" y="-196.5" font-family="Helvetica,sans-Serif" font-size="10.00">ocra/optim/IFunctionProperties.h</text>
</a>
</g>
</g>
<!-- Node3&#45;&gt;Node13 -->
<g id="edge13" class="edge"><title>Node3&#45;&gt;Node13</title>
<path fill="none" stroke="midnightblue" d="M937.156,-250.496C994.071,-240.017 1093.81,-221.653 1155.26,-210.336"/>
<polygon fill="midnightblue" stroke="midnightblue" points="1155.96,-213.768 1165.16,-208.515 1154.69,-206.883 1155.96,-213.768"/>
</g>
<!-- Node15 -->
<g id="node16" class="node"><title>Node15</title>
<g id="a_node16"><a xlink:href="../../db/d47/AbilitySet_8h.html" target="_top" xlink:title="ocra/optim/AbilitySet.h">
<polygon fill="white" stroke="black" points="1306.94,-190.5 1306.94,-208.5 1422.43,-208.5 1422.43,-190.5 1306.94,-190.5"/>
<text text-anchor="middle" x="1364.69" y="-196.5" font-family="Helvetica,sans-Serif" font-size="10.00">ocra/optim/AbilitySet.h</text>
</a>
</g>
</g>
<!-- Node3&#45;&gt;Node15 -->
<g id="edge16" class="edge"><title>Node3&#45;&gt;Node15</title>
<path fill="none" stroke="midnightblue" d="M949.772,-253.914C1027.98,-247.157 1174.1,-233.218 1297.69,-214 1304.3,-212.971 1311.26,-211.74 1318.08,-210.445"/>
<polygon fill="midnightblue" stroke="midnightblue" points="1318.79,-213.873 1327.93,-208.519 1317.45,-207.004 1318.79,-213.873"/>
</g>
<!-- Node16 -->
<g id="node17" class="node"><title>Node16</title>
<g id="a_node17"><a xlink:href="../../d1/d87/CoupledInputOutputSize_8h.html" target="_top" xlink:title="ocra/optim/CoupledInputOutput\lSize.h">
<polygon fill="white" stroke="black" points="666.2,-185.5 666.2,-213.5 821.174,-213.5 821.174,-185.5 666.2,-185.5"/>
<text text-anchor="start" x="674.2" y="-201.5" font-family="Helvetica,sans-Serif" font-size="10.00">ocra/optim/CoupledInputOutput</text>
<text text-anchor="middle" x="743.687" y="-191.5" font-family="Helvetica,sans-Serif" font-size="10.00">Size.h</text>
</a>
</g>
</g>
<!-- Node3&#45;&gt;Node16 -->
<g id="edge19" class="edge"><title>Node3&#45;&gt;Node16</title>
<path fill="none" stroke="midnightblue" d="M872.83,-250.435C850.723,-241.887 815.178,-228.143 786.97,-217.236"/>
<polygon fill="midnightblue" stroke="midnightblue" points="787.922,-213.852 777.332,-213.51 785.397,-220.381 787.922,-213.852"/>
</g>
<!-- Node17 -->
<g id="node18" class="node"><title>Node17</title>
<g id="a_node18"><a xlink:href="../../d7/d90/Variable_8h.html" target="_top" xlink:title="Declaration file of the Variable class. ">
<polygon fill="white" stroke="black" points="838.81,-190.5 838.81,-208.5 948.564,-208.5 948.564,-190.5 838.81,-190.5"/>
<text text-anchor="middle" x="893.687" y="-196.5" font-family="Helvetica,sans-Serif" font-size="10.00">ocra/optim/Variable.h</text>
</a>
</g>
</g>
<!-- Node3&#45;&gt;Node17 -->
<g id="edge20" class="edge"><title>Node3&#45;&gt;Node17</title>
<path fill="none" stroke="midnightblue" d="M893.687,-250.435C893.687,-242.389 893.687,-229.739 893.687,-219.185"/>
<polygon fill="midnightblue" stroke="midnightblue" points="897.187,-218.872 893.687,-208.872 890.187,-218.872 897.187,-218.872"/>
</g>
<!-- Node18 -->
<g id="node19" class="node"><title>Node18</title>
<g id="a_node19"><a xlink:href="../../d8/ddc/ObserverSubject_8h.html" target="_top" xlink:title="Declaration file of the Observer, Subject and ObserverSubject classes. ">
<polygon fill="white" stroke="black" points="366.547,-130.5 366.547,-148.5 514.827,-148.5 514.827,-130.5 366.547,-130.5"/>
<text text-anchor="middle" x="440.687" y="-136.5" font-family="Helvetica,sans-Serif" font-size="10.00">ocra/optim/ObserverSubject.h</text>
</a>
</g>
</g>
<!-- Node3&#45;&gt;Node18 -->
<g id="edge50" class="edge"><title>Node3&#45;&gt;Node18</title>
<path fill="none" stroke="midnightblue" d="M837.148,-255.204C787.922,-250.643 715.577,-239.791 657.687,-214 638.281,-205.354 638.838,-194.198 619.687,-185 584.482,-168.091 542.195,-157.193 507.563,-150.417"/>
<polygon fill="midnightblue" stroke="midnightblue" points="508.02,-146.942 497.545,-148.529 506.724,-153.821 508.02,-146.942"/>
</g>
<!-- Node34 -->
<g id="node35" class="node"><title>Node34</title>
<g id="a_node35"><a xlink:href="../../df/d97/NamedInstance_8h.html" target="_top" xlink:title="ocra/optim/NamedInstance.h">
<polygon fill="white" stroke="black" points="966.766,-190.5 966.766,-208.5 1110.61,-208.5 1110.61,-190.5 966.766,-190.5"/>
<text text-anchor="middle" x="1038.69" y="-196.5" font-family="Helvetica,sans-Serif" font-size="10.00">ocra/optim/NamedInstance.h</text>
</a>
</g>
</g>
<!-- Node3&#45;&gt;Node34 -->
<g id="edge51" class="edge"><title>Node3&#45;&gt;Node34</title>
<path fill="none" stroke="midnightblue" d="M913.849,-250.435C938.49,-240.579 980.405,-223.813 1008.8,-212.455"/>
<polygon fill="midnightblue" stroke="midnightblue" points="1010.24,-215.647 1018.23,-208.683 1007.64,-209.147 1010.24,-215.647"/>
</g>
<!-- Node5 -->
<g id="node6" class="node"><title>Node5</title>
<g id="a_node6"><a xlink:href="../../d5/d55/MathTypes_8h.html" target="_top" xlink:title="Declaration file of the OptimizationVariable class. ">
<polygon fill="white" stroke="black" points="1424.16,-70.5 1424.16,-88.5 1535.21,-88.5 1535.21,-70.5 1424.16,-70.5"/>
<text text-anchor="middle" x="1479.69" y="-76.5" font-family="Helvetica,sans-Serif" font-size="10.00">ocra/util/MathTypes.h</text>
</a>
</g>
</g>
<!-- Node4&#45;&gt;Node5 -->
<g id="edge5" class="edge"><title>Node4&#45;&gt;Node5</title>
<path fill="none" stroke="midnightblue" d="M1380.68,-130.435C1399.79,-120.794 1432.02,-104.542 1454.49,-93.2065"/>
<polygon fill="midnightblue" stroke="midnightblue" points="1456.11,-96.3114 1463.46,-88.6831 1452.96,-90.0613 1456.11,-96.3114"/>
</g>
<!-- Node8 -->
<g id="node9" class="node"><title>Node8</title>
<g id="a_node9"><a xlink:href="../../de/df3/ocra__assert_8h.html" target="_top" xlink:title="ocra/optim/ocra_assert.h">
<polygon fill="white" stroke="black" points="1207.66,-70.5 1207.66,-88.5 1333.71,-88.5 1333.71,-70.5 1207.66,-70.5"/>
<text text-anchor="middle" x="1270.69" y="-76.5" font-family="Helvetica,sans-Serif" font-size="10.00">ocra/optim/ocra_assert.h</text>
</a>
</g>
</g>
<!-- Node4&#45;&gt;Node8 -->
<g id="edge8" class="edge"><title>Node4&#45;&gt;Node8</title>
<path fill="none" stroke="midnightblue" d="M1351.62,-130.435C1336.34,-121.009 1310.82,-105.264 1292.52,-93.9728"/>
<polygon fill="midnightblue" stroke="midnightblue" points="1294.3,-90.9556 1283.95,-88.6831 1290.62,-96.9129 1294.3,-90.9556"/>
</g>
<!-- Node10 -->
<g id="node11" class="node"><title>Node10</title>
<polygon fill="white" stroke="#bfbfbf" points="1351.51,-70.5 1351.51,-88.5 1405.86,-88.5 1405.86,-70.5 1351.51,-70.5"/>
<text text-anchor="middle" x="1378.69" y="-76.5" font-family="Helvetica,sans-Serif" font-size="10.00">iostream</text>
</g>
<!-- Node4&#45;&gt;Node10 -->
<g id="edge10" class="edge"><title>Node4&#45;&gt;Node10</title>
<path fill="none" stroke="midnightblue" d="M1366.63,-130.435C1368.6,-122.304 1371.69,-109.469 1374.26,-98.8485"/>
<polygon fill="midnightblue" stroke="midnightblue" points="1377.72,-99.4138 1376.67,-88.8718 1370.92,-97.7713 1377.72,-99.4138"/>
</g>
<!-- Node11 -->
<g id="node12" class="node"><title>Node11</title>
<polygon fill="white" stroke="#bfbfbf" points="1146.07,-70.5 1146.07,-88.5 1189.3,-88.5 1189.3,-70.5 1146.07,-70.5"/>
<text text-anchor="middle" x="1167.69" y="-76.5" font-family="Helvetica,sans-Serif" font-size="10.00">vector</text>
</g>
<!-- Node4&#45;&gt;Node11 -->
<g id="edge11" class="edge"><title>Node4&#45;&gt;Node11</title>
<path fill="none" stroke="midnightblue" d="M1328.6,-130.466C1294.66,-122.525 1242.63,-109.361 1198.69,-94 1197.27,-93.5036 1195.82,-92.9713 1194.37,-92.4153"/>
<polygon fill="midnightblue" stroke="midnightblue" points="1195.47,-89.0829 1184.89,-88.5305 1192.81,-95.5603 1195.47,-89.0829"/>
</g>
<!-- Node4&#45;&gt;Node12 -->
<g id="edge12" class="edge"><title>Node4&#45;&gt;Node12</title>
<path fill="none" stroke="midnightblue" d="M1311.65,-130.444C1265.11,-122.832 1195.82,-110.177 1136.69,-94 1134.35,-93.3609 1131.95,-92.6479 1129.55,-91.8929"/>
<polygon fill="midnightblue" stroke="midnightblue" points="1130.41,-88.4889 1119.81,-88.6324 1128.18,-95.1266 1130.41,-88.4889"/>
</g>
<!-- Node6 -->
<g id="node7" class="node"><title>Node6</title>
<polygon fill="white" stroke="#bfbfbf" points="1405.06,-5.5 1405.06,-23.5 1478.32,-23.5 1478.32,-5.5 1405.06,-5.5"/>
<text text-anchor="middle" x="1441.69" y="-11.5" font-family="Helvetica,sans-Serif" font-size="10.00">Eigen/Dense</text>
</g>
<!-- Node5&#45;&gt;Node6 -->
<g id="edge6" class="edge"><title>Node5&#45;&gt;Node6</title>
<path fill="none" stroke="midnightblue" d="M1474.72,-70.2639C1468.94,-60.6842 1459.25,-44.6186 1451.86,-32.3587"/>
<polygon fill="midnightblue" stroke="midnightblue" points="1454.7,-30.2942 1446.54,-23.539 1448.7,-33.9096 1454.7,-30.2942"/>
</g>
<!-- Node7 -->
<g id="node8" class="node"><title>Node7</title>
<polygon fill="white" stroke="#bfbfbf" points="1496.07,-5.5 1496.07,-23.5 1539.3,-23.5 1539.3,-5.5 1496.07,-5.5"/>
<text text-anchor="middle" x="1517.69" y="-11.5" font-family="Helvetica,sans-Serif" font-size="10.00">cmath</text>
</g>
<!-- Node5&#45;&gt;Node7 -->
<g id="edge7" class="edge"><title>Node5&#45;&gt;Node7</title>
<path fill="none" stroke="midnightblue" d="M1484.65,-70.2639C1490.43,-60.6842 1500.12,-44.6186 1507.52,-32.3587"/>
<polygon fill="midnightblue" stroke="midnightblue" points="1510.67,-33.9096 1512.84,-23.539 1504.68,-30.2942 1510.67,-33.9096"/>
</g>
<!-- Node9 -->
<g id="node10" class="node"><title>Node9</title>
<polygon fill="white" stroke="#bfbfbf" points="1249.63,-5.5 1249.63,-23.5 1291.75,-23.5 1291.75,-5.5 1249.63,-5.5"/>
<text text-anchor="middle" x="1270.69" y="-11.5" font-family="Helvetica,sans-Serif" font-size="10.00">cstdio</text>
</g>
<!-- Node8&#45;&gt;Node9 -->
<g id="edge9" class="edge"><title>Node8&#45;&gt;Node9</title>
<path fill="none" stroke="midnightblue" d="M1270.69,-70.2639C1270.69,-61.0635 1270.69,-45.881 1270.69,-33.8326"/>
<polygon fill="midnightblue" stroke="midnightblue" points="1274.19,-33.5389 1270.69,-23.539 1267.19,-33.539 1274.19,-33.5389"/>
</g>
<!-- Node13&#45;&gt;Node11 -->
<g id="edge15" class="edge"><title>Node13&#45;&gt;Node11</title>
<path fill="none" stroke="midnightblue" d="M1205.87,-190.389C1199.32,-171.527 1182.92,-124.347 1173.89,-98.3618"/>
<polygon fill="midnightblue" stroke="midnightblue" points="1177.11,-96.9647 1170.52,-88.6674 1170.5,-99.2622 1177.11,-96.9647"/>
</g>
<!-- Node14 -->
<g id="node15" class="node"><title>Node14</title>
<polygon fill="white" stroke="#bfbfbf" points="1032.46,-130.5 1032.46,-148.5 1072.91,-148.5 1072.91,-130.5 1032.46,-130.5"/>
<text text-anchor="middle" x="1052.69" y="-136.5" font-family="Helvetica,sans-Serif" font-size="10.00">string</text>
</g>
<!-- Node13&#45;&gt;Node14 -->
<g id="edge14" class="edge"><title>Node13&#45;&gt;Node14</title>
<path fill="none" stroke="midnightblue" d="M1187,-190.435C1159.92,-180.368 1113.45,-163.093 1082.9,-151.734"/>
<polygon fill="midnightblue" stroke="midnightblue" points="1083.79,-148.332 1073.2,-148.127 1081.35,-154.893 1083.79,-148.332"/>
</g>
<!-- Node15&#45;&gt;Node4 -->
<g id="edge17" class="edge"><title>Node15&#45;&gt;Node4</title>
<path fill="none" stroke="midnightblue" d="M1364.69,-190.435C1364.69,-182.389 1364.69,-169.739 1364.69,-159.185"/>
<polygon fill="midnightblue" stroke="midnightblue" points="1368.19,-158.872 1364.69,-148.872 1361.19,-158.872 1368.19,-158.872"/>
</g>
<!-- Node15&#45;&gt;Node11 -->
<g id="edge18" class="edge"><title>Node15&#45;&gt;Node11</title>
<path fill="none" stroke="midnightblue" d="M1351.15,-190.389C1317.68,-170.342 1230.8,-118.307 1189.77,-93.7273"/>
<polygon fill="midnightblue" stroke="midnightblue" points="1191.44,-90.6474 1181.06,-88.5113 1187.84,-96.6525 1191.44,-90.6474"/>
</g>
<!-- Node17&#45;&gt;Node11 -->
<g id="edge49" class="edge"><title>Node17&#45;&gt;Node11</title>
<path fill="none" stroke="midnightblue" d="M908.889,-190.296C940.643,-173.188 1012.04,-134.879 1023.69,-130 1072.3,-109.635 1087.35,-112.547 1136.69,-94 1138.06,-93.4836 1139.46,-92.9393 1140.87,-92.3776"/>
<polygon fill="midnightblue" stroke="midnightblue" points="1142.23,-95.6046 1150.11,-88.5258 1139.53,-89.1436 1142.23,-95.6046"/>
</g>
<!-- Node17&#45;&gt;Node14 -->
<g id="edge48" class="edge"><title>Node17&#45;&gt;Node14</title>
<path fill="none" stroke="midnightblue" d="M915.795,-190.435C943.668,-180.268 991.694,-162.749 1022.81,-151.397"/>
<polygon fill="midnightblue" stroke="midnightblue" points="1024.08,-154.66 1032.28,-147.945 1021.68,-148.084 1024.08,-154.66"/>
</g>
<!-- Node17&#45;&gt;Node18 -->
<g id="edge21" class="edge"><title>Node17&#45;&gt;Node18</title>
<path fill="none" stroke="midnightblue" d="M858.588,-190.476C849.23,-188.507 839.103,-186.528 829.687,-185 725.5,-168.091 604.586,-155.322 525.569,-147.892"/>
<polygon fill="midnightblue" stroke="midnightblue" points="525.466,-144.368 515.184,-146.924 524.816,-151.338 525.466,-144.368"/>
</g>
<!-- Node29 -->
<g id="node30" class="node"><title>Node29</title>
<g id="a_node30"><a xlink:href="../../d1/de6/Composite_8h.html" target="_top" xlink:title="Utility classes and functions to implement the Composite design pattern. ">
<polygon fill="white" stroke="black" points="660.887,-130.5 660.887,-148.5 782.487,-148.5 782.487,-130.5 660.887,-130.5"/>
<text text-anchor="middle" x="721.687" y="-136.5" font-family="Helvetica,sans-Serif" font-size="10.00">ocra/optim/Composite.h</text>
</a>
</g>
</g>
<!-- Node17&#45;&gt;Node29 -->
<g id="edge35" class="edge"><title>Node17&#45;&gt;Node29</title>
<path fill="none" stroke="midnightblue" d="M869.771,-190.435C840.074,-180.421 789.23,-163.276 755.539,-151.915"/>
<polygon fill="midnightblue" stroke="midnightblue" points="756.271,-148.468 745.676,-148.589 754.034,-155.101 756.271,-148.468"/>
</g>
<!-- Node30 -->
<g id="node31" class="node"><title>Node30</title>
<polygon fill="white" stroke="#bfbfbf" points="931.978,-70.5 931.978,-88.5 1051.4,-88.5 1051.4,-70.5 931.978,-70.5"/>
<text text-anchor="middle" x="991.687" y="-76.5" font-family="Helvetica,sans-Serif" font-size="10.00">boost/noncopyable.hpp</text>
</g>
<!-- Node17&#45;&gt;Node30 -->
<g id="edge47" class="edge"><title>Node17&#45;&gt;Node30</title>
<path fill="none" stroke="midnightblue" d="M891.729,-190.114C889.014,-176.348 885.689,-148.628 897.687,-130 909.563,-111.562 930.687,-99.5728 949.906,-92.0197"/>
<polygon fill="midnightblue" stroke="midnightblue" points="951.225,-95.2644 959.43,-88.5615 948.836,-88.6847 951.225,-95.2644"/>
</g>
<!-- Node33 -->
<g id="node34" class="node"><title>Node33</title>
<polygon fill="white" stroke="#bfbfbf" points="906.722,-130.5 906.722,-148.5 976.652,-148.5 976.652,-130.5 906.722,-130.5"/>
<text text-anchor="middle" x="941.687" y="-136.5" font-family="Helvetica,sans-Serif" font-size="10.00">Eigen/Eigen</text>
</g>
<!-- Node17&#45;&gt;Node33 -->
<g id="edge46" class="edge"><title>Node17&#45;&gt;Node33</title>
<path fill="none" stroke="midnightblue" d="M900.361,-190.435C907.516,-181.79 919.07,-167.829 928.144,-156.864"/>
<polygon fill="midnightblue" stroke="midnightblue" points="931.079,-158.807 934.759,-148.872 925.687,-154.344 931.079,-158.807"/>
</g>
<!-- Node19 -->
<g id="node20" class="node"><title>Node19</title>
<g id="a_node20"><a xlink:href="../../df/d67/ObserverSubjectBase_8h.html" target="_top" xlink:title="Declaration file of the Observer and Subject base classes. ">
<polygon fill="white" stroke="black" points="253.717,-65.5 253.717,-93.5 393.657,-93.5 393.657,-65.5 253.717,-65.5"/>
<text text-anchor="start" x="261.717" y="-81.5" font-family="Helvetica,sans-Serif" font-size="10.00">ocra/optim/ObserverSubject</text>
<text text-anchor="middle" x="323.687" y="-71.5" font-family="Helvetica,sans-Serif" font-size="10.00">Base.h</text>
</a>
</g>
</g>
<!-- Node18&#45;&gt;Node19 -->
<g id="edge22" class="edge"><title>Node18&#45;&gt;Node19</title>
<path fill="none" stroke="midnightblue" d="M424.419,-130.435C407.682,-122.138 381.07,-108.946 359.401,-98.2043"/>
<polygon fill="midnightblue" stroke="midnightblue" points="360.668,-94.926 350.154,-93.6203 357.559,-101.198 360.668,-94.926"/>
</g>
<!-- Node23 -->
<g id="node24" class="node"><title>Node23</title>
<polygon fill="white" stroke="#bfbfbf" points="0,-0.5 0,-28.5 99.374,-28.5 99.374,-0.5 0,-0.5"/>
<text text-anchor="start" x="8" y="-16.5" font-family="Helvetica,sans-Serif" font-size="10.00">boost/type_traits/is</text>
<text text-anchor="middle" x="49.687" y="-6.5" font-family="Helvetica,sans-Serif" font-size="10.00">_class.hpp</text>
</g>
<!-- Node18&#45;&gt;Node23 -->
<g id="edge34" class="edge"><title>Node18&#45;&gt;Node23</title>
<path fill="none" stroke="midnightblue" d="M366.476,-136.175C279.479,-132.2 141.694,-121.632 98.687,-94 78.3873,-80.9576 65.0411,-56.2001 57.4764,-37.9622"/>
<polygon fill="midnightblue" stroke="midnightblue" points="60.7334,-36.6804 53.8612,-28.6167 54.2048,-39.2059 60.7334,-36.6804"/>
</g>
<!-- Node24 -->
<g id="node25" class="node"><title>Node24</title>
<polygon fill="white" stroke="#bfbfbf" points="546,-0.5 546,-28.5 645.374,-28.5 645.374,-0.5 546,-0.5"/>
<text text-anchor="start" x="554" y="-16.5" font-family="Helvetica,sans-Serif" font-size="10.00">boost/type_traits/is</text>
<text text-anchor="middle" x="595.687" y="-6.5" font-family="Helvetica,sans-Serif" font-size="10.00">_base_of.hpp</text>
</g>
<!-- Node18&#45;&gt;Node24 -->
<g id="edge32" class="edge"><title>Node18&#45;&gt;Node24</title>
<path fill="none" stroke="midnightblue" d="M442.968,-130.06C447.429,-115.048 458.66,-83.543 478.687,-65 494.894,-49.9944 516.324,-39.1541 536.411,-31.5164"/>
<polygon fill="midnightblue" stroke="midnightblue" points="537.606,-34.8064 545.828,-28.1248 535.234,-28.2206 537.606,-34.8064"/>
</g>
<!-- Node25 -->
<g id="node26" class="node"><title>Node25</title>
<polygon fill="white" stroke="#bfbfbf" points="409.269,-5.5 409.269,-23.5 528.105,-23.5 528.105,-5.5 409.269,-5.5"/>
<text text-anchor="middle" x="468.687" y="-11.5" font-family="Helvetica,sans-Serif" font-size="10.00">boost/static_assert.hpp</text>
</g>
<!-- Node18&#45;&gt;Node25 -->
<g id="edge31" class="edge"><title>Node18&#45;&gt;Node25</title>
<path fill="none" stroke="midnightblue" d="M440.276,-130.187C439.811,-116.401 439.768,-88.0412 445.687,-65 448.596,-53.6765 454.043,-41.7704 458.906,-32.4734"/>
<polygon fill="midnightblue" stroke="midnightblue" points="462.056,-34.0093 463.806,-23.5601 455.922,-30.637 462.056,-34.0093"/>
</g>
<!-- Node27 -->
<g id="node28" class="node"><title>Node27</title>
<g id="a_node28"><a xlink:href="../../db/ddf/ocra__events_8h.html" target="_top" xlink:title="ocra/optim/ocra_events.h">
<polygon fill="white" stroke="black" points="107.547,-70.5 107.547,-88.5 235.827,-88.5 235.827,-70.5 107.547,-70.5"/>
<text text-anchor="middle" x="171.687" y="-76.5" font-family="Helvetica,sans-Serif" font-size="10.00">ocra/optim/ocra_events.h</text>
</a>
</g>
</g>
<!-- Node18&#45;&gt;Node27 -->
<g id="edge30" class="edge"><title>Node18&#45;&gt;Node27</title>
<path fill="none" stroke="midnightblue" d="M403.566,-130.496C355.463,-120.125 271.544,-102.03 218.942,-90.6887"/>
<polygon fill="midnightblue" stroke="midnightblue" points="219.372,-87.2011 208.859,-88.5147 217.896,-94.0438 219.372,-87.2011"/>
</g>
<!-- Node28 -->
<g id="node29" class="node"><title>Node28</title>
<polygon fill="white" stroke="#bfbfbf" points="488,-65.5 488,-93.5 587.374,-93.5 587.374,-65.5 488,-65.5"/>
<text text-anchor="start" x="496" y="-81.5" font-family="Helvetica,sans-Serif" font-size="10.00">boost/type_traits/is</text>
<text text-anchor="middle" x="537.687" y="-71.5" font-family="Helvetica,sans-Serif" font-size="10.00">_convertible.hpp</text>
</g>
<!-- Node18&#45;&gt;Node28 -->
<g id="edge33" class="edge"><title>Node18&#45;&gt;Node28</title>
<path fill="none" stroke="midnightblue" d="M454.174,-130.435C467.739,-122.324 489.128,-109.535 506.864,-98.9304"/>
<polygon fill="midnightblue" stroke="midnightblue" points="508.958,-101.756 515.744,-93.6203 505.365,-95.7484 508.958,-101.756"/>
</g>
<!-- Node20 -->
<g id="node21" class="node"><title>Node20</title>
<polygon fill="white" stroke="#bfbfbf" points="117.283,-5.5 117.283,-23.5 176.091,-23.5 176.091,-5.5 117.283,-5.5"/>
<text text-anchor="middle" x="146.687" y="-11.5" font-family="Helvetica,sans-Serif" font-size="10.00">functional</text>
</g>
<!-- Node19&#45;&gt;Node20 -->
<g id="edge23" class="edge"><title>Node19&#45;&gt;Node20</title>
<path fill="none" stroke="midnightblue" d="M287.012,-65.4464C255.171,-54.1131 209.511,-37.8611 179.016,-27.0071"/>
<polygon fill="midnightblue" stroke="midnightblue" points="179.893,-23.6039 169.298,-23.548 177.545,-30.1987 179.893,-23.6039"/>
</g>
<!-- Node21 -->
<g id="node22" class="node"><title>Node21</title>
<polygon fill="white" stroke="#bfbfbf" points="663.123,-5.5 663.123,-23.5 720.251,-23.5 720.251,-5.5 663.123,-5.5"/>
<text text-anchor="middle" x="691.687" y="-11.5" font-family="Helvetica,sans-Serif" font-size="10.00">algorithm</text>
</g>
<!-- Node19&#45;&gt;Node21 -->
<g id="edge24" class="edge"><title>Node19&#45;&gt;Node21</title>
<path fill="none" stroke="midnightblue" d="M393.919,-72.1431C461.483,-65.0584 566.139,-51.5299 654.687,-29 657.18,-28.3656 659.74,-27.6261 662.293,-26.826"/>
<polygon fill="midnightblue" stroke="midnightblue" points="663.612,-30.0742 671.948,-23.5347 661.353,-23.4485 663.612,-30.0742"/>
</g>
<!-- Node22 -->
<g id="node23" class="node"><title>Node22</title>
<polygon fill="white" stroke="#bfbfbf" points="193.642,-5.5 193.642,-23.5 271.732,-23.5 271.732,-5.5 193.642,-5.5"/>
<text text-anchor="middle" x="232.687" y="-11.5" font-family="Helvetica,sans-Serif" font-size="10.00">boost/any.hpp</text>
</g>
<!-- Node19&#45;&gt;Node22 -->
<g id="edge25" class="edge"><title>Node19&#45;&gt;Node22</title>
<path fill="none" stroke="midnightblue" d="M304.832,-65.4464C289.6,-54.9015 268.218,-40.0984 252.688,-29.3471"/>
<polygon fill="midnightblue" stroke="midnightblue" points="254.526,-26.3625 244.312,-23.548 250.542,-32.1178 254.526,-26.3625"/>
</g>
<!-- Node19&#45;&gt;Node23 -->
<g id="edge26" class="edge"><title>Node19&#45;&gt;Node23</title>
<path fill="none" stroke="midnightblue" d="M266.914,-65.4464C220.913,-54.8695 156.279,-40.0085 109.486,-29.2493"/>
<polygon fill="midnightblue" stroke="midnightblue" points="110.018,-25.7804 99.4876,-26.9505 108.449,-32.6024 110.018,-25.7804"/>
</g>
<!-- Node19&#45;&gt;Node24 -->
<g id="edge27" class="edge"><title>Node19&#45;&gt;Node24</title>
<path fill="none" stroke="midnightblue" d="M380.046,-65.4464C425.566,-54.903 489.466,-40.1028 535.882,-29.3519"/>
<polygon fill="midnightblue" stroke="midnightblue" points="536.851,-32.7203 545.803,-27.054 535.271,-25.9008 536.851,-32.7203"/>
</g>
<!-- Node19&#45;&gt;Node25 -->
<g id="edge28" class="edge"><title>Node19&#45;&gt;Node25</title>
<path fill="none" stroke="midnightblue" d="M353.731,-65.4464C379.362,-54.3102 415.923,-38.4249 440.888,-27.5782"/>
<polygon fill="midnightblue" stroke="midnightblue" points="442.387,-30.7431 450.164,-23.548 439.597,-24.3229 442.387,-30.7431"/>
</g>
<!-- Node26 -->
<g id="node27" class="node"><title>Node26</title>
<polygon fill="white" stroke="#bfbfbf" points="289.882,-0.5 289.882,-28.5 391.492,-28.5 391.492,-0.5 289.882,-0.5"/>
<text text-anchor="start" x="297.882" y="-16.5" font-family="Helvetica,sans-Serif" font-size="10.00">boost/ptr_container</text>
<text text-anchor="middle" x="340.687" y="-6.5" font-family="Helvetica,sans-Serif" font-size="10.00">/ptr_vector.hpp</text>
</g>
<!-- Node19&#45;&gt;Node26 -->
<g id="edge29" class="edge"><title>Node19&#45;&gt;Node26</title>
<path fill="none" stroke="midnightblue" d="M327.209,-65.4464C329.329,-57.5905 332.087,-47.3713 334.555,-38.2247"/>
<polygon fill="midnightblue" stroke="midnightblue" points="337.943,-39.1035 337.169,-28.5369 331.185,-37.2797 337.943,-39.1035"/>
</g>
<!-- Node29&#45;&gt;Node8 -->
<g id="edge36" class="edge"><title>Node29&#45;&gt;Node8</title>
<path fill="none" stroke="midnightblue" d="M782.51,-134.632C873.371,-128.445 1049.81,-114.857 1198.69,-94 1206.13,-92.9572 1213.98,-91.6764 1221.64,-90.323"/>
<polygon fill="midnightblue" stroke="midnightblue" points="1222.35,-93.7514 1231.56,-88.5159 1221.09,-86.8647 1222.35,-93.7514"/>
</g>
<!-- Node29&#45;&gt;Node11 -->
<g id="edge42" class="edge"><title>Node29&#45;&gt;Node11</title>
<path fill="none" stroke="midnightblue" d="M782.794,-134.235C881.475,-126.964 1071.45,-111.267 1136.69,-94 1138.4,-93.5456 1140.15,-93.0101 1141.89,-92.419"/>
<polygon fill="midnightblue" stroke="midnightblue" points="1143.58,-95.5149 1151.61,-88.6032 1141.02,-88.9989 1143.58,-95.5149"/>
</g>
<!-- Node29&#45;&gt;Node12 -->
<g id="edge45" class="edge"><title>Node29&#45;&gt;Node12</title>
<path fill="none" stroke="midnightblue" d="M782.591,-131.212C872.841,-120.305 1034.32,-100.339 1060.69,-94 1063.34,-93.3622 1066.07,-92.6058 1068.78,-91.7817"/>
<polygon fill="midnightblue" stroke="midnightblue" points="1070.02,-95.0571 1078.42,-88.5911 1067.82,-88.412 1070.02,-95.0571"/>
</g>
<!-- Node29&#45;&gt;Node21 -->
<g id="edge43" class="edge"><title>Node29&#45;&gt;Node21</title>
<path fill="none" stroke="midnightblue" d="M719.648,-130.301C717.43,-121.375 713.788,-106.678 710.687,-94 705.647,-73.3949 699.928,-49.7294 696.094,-33.8162"/>
<polygon fill="midnightblue" stroke="midnightblue" points="699.414,-32.6564 693.671,-23.7536 692.609,-34.295 699.414,-32.6564"/>
</g>
<!-- Node29&#45;&gt;Node24 -->
<g id="edge39" class="edge"><title>Node29&#45;&gt;Node24</title>
<path fill="none" stroke="midnightblue" d="M713.42,-130.43C694.003,-111.475 644.995,-63.6344 616.708,-36.0206"/>
<polygon fill="midnightblue" stroke="midnightblue" points="618.922,-33.2902 609.321,-28.8093 614.032,-38.2992 618.922,-33.2902"/>
</g>
<!-- Node29&#45;&gt;Node25 -->
<g id="edge38" class="edge"><title>Node29&#45;&gt;Node25</title>
<path fill="none" stroke="midnightblue" d="M707.225,-130.445C691.502,-121.643 665.674,-107.05 643.687,-94 622.58,-81.4721 618.671,-75.9171 596.687,-65 565.844,-49.6833 529.027,-35.8832 502.813,-26.7695"/>
<polygon fill="midnightblue" stroke="midnightblue" points="503.914,-23.4473 493.32,-23.5127 501.643,-30.0685 503.914,-23.4473"/>
</g>
<!-- Node29&#45;&gt;Node28 -->
<g id="edge40" class="edge"><title>Node29&#45;&gt;Node28</title>
<path fill="none" stroke="midnightblue" d="M696.103,-130.435C668.393,-121.701 623.47,-107.54 588.527,-96.5257"/>
<polygon fill="midnightblue" stroke="midnightblue" points="589.548,-93.1779 578.959,-93.5096 587.444,-99.8541 589.548,-93.1779"/>
</g>
<!-- Node29&#45;&gt;Node30 -->
<g id="edge37" class="edge"><title>Node29&#45;&gt;Node30</title>
<path fill="none" stroke="midnightblue" d="M758.946,-130.496C807.328,-120.103 891.81,-101.955 944.586,-90.6179"/>
<polygon fill="midnightblue" stroke="midnightblue" points="945.335,-94.0369 954.377,-88.5147 943.865,-87.1931 945.335,-94.0369"/>
</g>
<!-- Node31 -->
<g id="node32" class="node"><title>Node31</title>
<polygon fill="white" stroke="#bfbfbf" points="720.148,-65.5 720.148,-93.5 851.226,-93.5 851.226,-65.5 720.148,-65.5"/>
<text text-anchor="start" x="728.148" y="-81.5" font-family="Helvetica,sans-Serif" font-size="10.00">boost/type_traits/has</text>
<text text-anchor="middle" x="785.687" y="-71.5" font-family="Helvetica,sans-Serif" font-size="10.00">_nothrow_constructor.hpp</text>
</g>
<!-- Node29&#45;&gt;Node31 -->
<g id="edge41" class="edge"><title>Node29&#45;&gt;Node31</title>
<path fill="none" stroke="midnightblue" d="M730.586,-130.435C739.07,-122.747 752.192,-110.855 763.502,-100.605"/>
<polygon fill="midnightblue" stroke="midnightblue" points="765.904,-103.151 770.964,-93.8428 761.204,-97.9645 765.904,-103.151"/>
</g>
<!-- Node32 -->
<g id="node33" class="node"><title>Node32</title>
<polygon fill="white" stroke="#bfbfbf" points="869.515,-70.5 869.515,-88.5 913.859,-88.5 913.859,-70.5 869.515,-70.5"/>
<text text-anchor="middle" x="891.687" y="-76.5" font-family="Helvetica,sans-Serif" font-size="10.00">iosfwd</text>
</g>
<!-- Node29&#45;&gt;Node32 -->
<g id="edge44" class="edge"><title>Node29&#45;&gt;Node32</title>
<path fill="none" stroke="midnightblue" d="M749.662,-130.449C777.936,-122.102 822.748,-108.292 860.687,-94 862.06,-93.4826 863.461,-92.9376 864.871,-92.3752"/>
<polygon fill="midnightblue" stroke="midnightblue" points="866.227,-95.6019 874.108,-88.5214 863.532,-89.1415 866.227,-95.6019"/>
</g>
<!-- Node34&#45;&gt;Node14 -->
<g id="edge52" class="edge"><title>Node34&#45;&gt;Node14</title>
<path fill="none" stroke="midnightblue" d="M1040.63,-190.435C1042.6,-182.304 1045.69,-169.469 1048.26,-158.848"/>
<polygon fill="midnightblue" stroke="midnightblue" points="1051.72,-159.414 1050.67,-148.872 1044.92,-157.771 1051.72,-159.414"/>
</g>
<!-- Node36 -->
<g id="node37" class="node"><title>Node36</title>
<polygon fill="white" stroke="#bfbfbf" points="558.63,-190.5 558.63,-208.5 610.744,-208.5 610.744,-190.5 558.63,-190.5"/>
<text text-anchor="middle" x="584.687" y="-196.5" font-family="Helvetica,sans-Serif" font-size="10.00">memory</text>
</g>
<!-- Node35&#45;&gt;Node36 -->
<g id="edge54" class="edge"><title>Node35&#45;&gt;Node36</title>
<path fill="none" stroke="midnightblue" d="M635.483,-250.435C626.428,-241.533 611.639,-226.995 600.348,-215.895"/>
<polygon fill="midnightblue" stroke="midnightblue" points="602.788,-213.386 593.203,-208.872 597.881,-218.378 602.788,-213.386"/>
</g>
<!-- Node37&#45;&gt;Node2 -->
<g id="edge56" class="edge"><title>Node37&#45;&gt;Node2</title>
<path fill="none" stroke="midnightblue" d="M676.829,-360.339C674.515,-352.443 671.538,-342.287 669.003,-333.638"/>
<polygon fill="midnightblue" stroke="midnightblue" points="672.283,-332.383 666.111,-323.771 665.565,-334.352 672.283,-332.383"/>
</g>
<!-- Node38&#45;&gt;Node3 -->
<g id="edge58" class="edge"><title>Node38&#45;&gt;Node3</title>
<path fill="none" stroke="midnightblue" d="M850.067,-365.373C857.655,-347.13 876.183,-302.585 886.483,-277.821"/>
<polygon fill="midnightblue" stroke="midnightblue" points="889.729,-279.13 890.338,-268.553 883.265,-276.442 889.729,-279.13"/>
</g>
</g>
</svg>
