<?xml version="1.0" encoding="UTF-8" standalone="no"?>
<!DOCTYPE svg PUBLIC "-//W3C//DTD SVG 1.1//EN"
 "http://www.w3.org/Graphics/SVG/1.1/DTD/svg11.dtd">
<!-- Generated by graphviz version 2.38.0 (20140413.2041)
 -->
<!-- Title: ocra::SquaredLinearFunction Pages: 1 -->
<svg width="1304pt" height="409pt"
 viewBox="0.00 0.00 1303.80 409.26" xmlns="http://www.w3.org/2000/svg" xmlns:xlink="http://www.w3.org/1999/xlink">
<g id="graph0" class="graph" transform="scale(1 1) rotate(0) translate(4 405.255)">
<title>ocra::SquaredLinearFunction</title>
<polygon fill="white" stroke="none" points="-4,4 -4,-405.255 1299.8,-405.255 1299.8,4 -4,4"/>
<!-- Node17 -->
<g id="node1" class="node"><title>Node17</title>
<polygon fill="#bfbfbf" stroke="black" points="1150.83,-13.7552 1150.83,-31.7552 1295.8,-31.7552 1295.8,-13.7552 1150.83,-13.7552"/>
<text text-anchor="middle" x="1223.31" y="-19.7552" font-family="Helvetica,sans-Serif" font-size="10.00">ocra::SquaredLinearFunction</text>
</g>
<!-- Node18 -->
<g id="node2" class="node"><title>Node18</title>
<g id="a_node2"><a xlink:href="../../d9/d7e/classocra_1_1QuadraticFunction.html" target="_top" xlink:title="QuadraticFunction class. ">
<polygon fill="white" stroke="black" points="980.993,-55.7552 980.993,-73.7552 1103.71,-73.7552 1103.71,-55.7552 980.993,-55.7552"/>
<text text-anchor="middle" x="1042.35" y="-61.7552" font-family="Helvetica,sans-Serif" font-size="10.00">ocra::QuadraticFunction</text>
</a>
</g>
</g>
<!-- Node18&#45;&gt;Node17 -->
<g id="edge1" class="edge"><title>Node18&#45;&gt;Node17</title>
<path fill="none" stroke="midnightblue" d="M1091.63,-53.4262C1120.5,-46.6493 1156.7,-38.1533 1183.68,-31.8227"/>
<polygon fill="midnightblue" stroke="midnightblue" points="1090.68,-50.0529 1081.74,-55.7451 1092.28,-56.8677 1090.68,-50.0529"/>
</g>
<!-- Node19 -->
<g id="node3" class="node"><title>Node19</title>
<g id="a_node3"><a xlink:href="../../d2/d99/classocra_1_1Function.html" target="_top" xlink:title="Function class. ">
<polygon fill="white" stroke="black" points="828.383,-152.755 828.383,-170.755 907.747,-170.755 907.747,-152.755 828.383,-152.755"/>
<text text-anchor="middle" x="868.065" y="-158.755" font-family="Helvetica,sans-Serif" font-size="10.00">ocra::Function</text>
</a>
</g>
</g>
<!-- Node19&#45;&gt;Node18 -->
<g id="edge2" class="edge"><title>Node19&#45;&gt;Node18</title>
<path fill="none" stroke="midnightblue" d="M898.44,-148.494C917.202,-139.75 941.88,-127.737 962.993,-115.755 986.709,-102.296 1013.04,-84.5381 1028.35,-73.92"/>
<polygon fill="midnightblue" stroke="midnightblue" points="896.831,-145.382 889.218,-152.751 899.764,-151.737 896.831,-145.382"/>
</g>
<!-- Node40 -->
<g id="node24" class="node"><title>Node40</title>
<g id="a_node24"><a xlink:href="../../de/d3a/classocra_1_1LinearFunction.html" target="_top" xlink:title="LinearFunction class. ">
<polygon fill="white" stroke="black" points="988.771,-13.7552 988.771,-31.7552 1095.93,-31.7552 1095.93,-13.7552 988.771,-13.7552"/>
<text text-anchor="middle" x="1042.35" y="-19.7552" font-family="Helvetica,sans-Serif" font-size="10.00">ocra::LinearFunction</text>
</a>
</g>
</g>
<!-- Node19&#45;&gt;Node40 -->
<g id="edge27" class="edge"><title>Node19&#45;&gt;Node40</title>
<path fill="none" stroke="midnightblue" d="M881.718,-144.456C900.74,-119.538 938.981,-73.5008 980.993,-45.7552 989.696,-40.0079 1000.04,-35.401 1009.69,-31.8644"/>
<polygon fill="midnightblue" stroke="midnightblue" points="878.805,-142.506 875.608,-152.607 884.406,-146.704 878.805,-142.506"/>
</g>
<!-- Node20 -->
<g id="node4" class="node"><title>Node20</title>
<g id="a_node4"><a xlink:href="../../d3/d16/classocra_1_1ObserverSubject.html" target="_top" xlink:title="ocra::ObserverSubject">
<polygon fill="white" stroke="black" points="386.068,-238.755 386.068,-256.755 501.556,-256.755 501.556,-238.755 386.068,-238.755"/>
<text text-anchor="middle" x="443.812" y="-244.755" font-family="Helvetica,sans-Serif" font-size="10.00">ocra::ObserverSubject</text>
</a>
</g>
</g>
<!-- Node20&#45;&gt;Node19 -->
<g id="edge3" class="edge"><title>Node20&#45;&gt;Node19</title>
<path fill="none" stroke="midnightblue" d="M511.638,-248C573.493,-246.824 667.581,-241.451 746.792,-221.755 788.459,-211.395 832.363,-184.931 853.763,-170.865"/>
<polygon fill="midnightblue" stroke="midnightblue" points="511.558,-244.501 501.615,-248.16 511.669,-251.5 511.558,-244.501"/>
</g>
<!-- Node36 -->
<g id="node20" class="node"><title>Node36</title>
<g id="a_node20"><a xlink:href="../../d2/dac/classocra_1_1Variable.html" target="_top" xlink:title="This class represents a variable in a mathematical sense. ">
<polygon fill="white" stroke="black" points="626.412,-270.755 626.412,-288.755 703.374,-288.755 703.374,-270.755 626.412,-270.755"/>
<text text-anchor="middle" x="664.893" y="-276.755" font-family="Helvetica,sans-Serif" font-size="10.00">ocra::Variable</text>
</a>
</g>
</g>
<!-- Node20&#45;&gt;Node36 -->
<g id="edge21" class="edge"><title>Node20&#45;&gt;Node36</title>
<path fill="none" stroke="midnightblue" d="M512.143,-257.59C549.607,-263.062 594.847,-269.67 626.131,-274.24"/>
<polygon fill="midnightblue" stroke="midnightblue" points="512.202,-254.061 501.801,-256.079 511.19,-260.988 512.202,-254.061"/>
</g>
<!-- Node21 -->
<g id="node5" class="node"><title>Node21</title>
<g id="a_node5"><a xlink:href="../../d2/d45/classocra_1_1Observer.html" target="_top" xlink:title="ocra::Observer">
<polygon fill="white" stroke="black" points="222.497,-306.755 222.497,-324.755 304.63,-324.755 304.63,-306.755 222.497,-306.755"/>
<text text-anchor="middle" x="263.563" y="-312.755" font-family="Helvetica,sans-Serif" font-size="10.00">ocra::Observer</text>
</a>
</g>
</g>
<!-- Node21&#45;&gt;Node20 -->
<g id="edge4" class="edge"><title>Node21&#45;&gt;Node20</title>
<path fill="none" stroke="midnightblue" d="M284.874,-300.688C299.852,-290.264 321.11,-276.859 341.63,-268.755 355.563,-263.252 371.172,-259.105 385.88,-256.015"/>
<polygon fill="midnightblue" stroke="midnightblue" points="282.529,-298.062 276.423,-306.72 286.596,-303.76 282.529,-298.062"/>
</g>
<!-- Node22 -->
<g id="node6" class="node"><title>Node22</title>
<g id="a_node6"><a xlink:href="../../d4/dee/classocra_1_1ObserverBase.html" target="_top" xlink:title="ocra::ObserverBase\l\&lt; EVT_RESIZE \&gt;">
<polygon fill="white" stroke="black" points="40.2856,-372.755 40.2856,-400.755 145.211,-400.755 145.211,-372.755 40.2856,-372.755"/>
<text text-anchor="start" x="48.2856" y="-388.755" font-family="Helvetica,sans-Serif" font-size="10.00">ocra::ObserverBase</text>
<text text-anchor="middle" x="92.7485" y="-378.755" font-family="Helvetica,sans-Serif" font-size="10.00">&lt; EVT_RESIZE &gt;</text>
</a>
</g>
</g>
<!-- Node22&#45;&gt;Node21 -->
<g id="edge5" class="edge"><title>Node22&#45;&gt;Node21</title>
<path fill="none" stroke="midnightblue" d="M155.373,-374.126C165.614,-371.231 175.989,-367.79 185.497,-363.755 210.164,-353.287 236.055,-335.555 250.667,-324.823"/>
<polygon fill="midnightblue" stroke="midnightblue" points="154.382,-370.768 145.628,-376.735 156.193,-377.529 154.382,-370.768"/>
</g>
<!-- Node23 -->
<g id="node7" class="node"><title>Node23</title>
<g id="a_node7"><a xlink:href="../../d4/dee/classocra_1_1ObserverBase.html" target="_top" xlink:title="ocra::ObserverBase\l\&lt; EVT_CHANGE_DEPENDENCIES \&gt;">
<polygon fill="white" stroke="black" points="0,-325.755 0,-353.755 185.497,-353.755 185.497,-325.755 0,-325.755"/>
<text text-anchor="start" x="8" y="-341.755" font-family="Helvetica,sans-Serif" font-size="10.00">ocra::ObserverBase</text>
<text text-anchor="middle" x="92.7485" y="-331.755" font-family="Helvetica,sans-Serif" font-size="10.00">&lt; EVT_CHANGE_DEPENDENCIES &gt;</text>
</a>
</g>
</g>
<!-- Node23&#45;&gt;Node21 -->
<g id="edge6" class="edge"><title>Node23&#45;&gt;Node21</title>
<path fill="none" stroke="midnightblue" d="M195.725,-325.258C205,-323.939 213.979,-322.662 222.187,-321.495"/>
<polygon fill="midnightblue" stroke="midnightblue" points="194.974,-321.829 185.566,-326.702 195.959,-328.759 194.974,-321.829"/>
</g>
<!-- Node24 -->
<g id="node8" class="node"><title>Node24</title>
<g id="a_node8"><a xlink:href="../../d4/dee/classocra_1_1ObserverBase.html" target="_top" xlink:title="ocra::ObserverBase\l\&lt; EVT_CHANGE_VALUE \&gt;">
<polygon fill="white" stroke="black" points="23.4253,-278.755 23.4253,-306.755 162.072,-306.755 162.072,-278.755 23.4253,-278.755"/>
<text text-anchor="start" x="31.4253" y="-294.755" font-family="Helvetica,sans-Serif" font-size="10.00">ocra::ObserverBase</text>
<text text-anchor="middle" x="92.7485" y="-284.755" font-family="Helvetica,sans-Serif" font-size="10.00">&lt; EVT_CHANGE_VALUE &gt;</text>
</a>
</g>
</g>
<!-- Node24&#45;&gt;Node21 -->
<g id="edge7" class="edge"><title>Node24&#45;&gt;Node21</title>
<path fill="none" stroke="midnightblue" d="M172.466,-303.48C189.64,-305.82 207.13,-308.203 222.074,-310.239"/>
<polygon fill="midnightblue" stroke="midnightblue" points="172.793,-299.992 162.412,-302.11 171.848,-306.928 172.793,-299.992"/>
</g>
<!-- Node25 -->
<g id="node9" class="node"><title>Node25</title>
<g id="a_node9"><a xlink:href="../../dc/d77/classocra_1_1Subject.html" target="_top" xlink:title="ocra::Subject">
<polygon fill="white" stroke="black" points="226.381,-209.755 226.381,-227.755 300.746,-227.755 300.746,-209.755 226.381,-209.755"/>
<text text-anchor="middle" x="263.563" y="-215.755" font-family="Helvetica,sans-Serif" font-size="10.00">ocra::Subject</text>
</a>
</g>
</g>
<!-- Node25&#45;&gt;Node20 -->
<g id="edge8" class="edge"><title>Node25&#45;&gt;Node20</title>
<path fill="none" stroke="midnightblue" d="M311.07,-226.322C334.43,-230.122 362.898,-234.754 387.386,-238.738"/>
<polygon fill="midnightblue" stroke="midnightblue" points="311.497,-222.845 301.065,-224.694 310.373,-229.754 311.497,-222.845"/>
</g>
<!-- Node26 -->
<g id="node10" class="node"><title>Node26</title>
<g id="a_node10"><a xlink:href="../../dc/d29/classocra_1_1SubjectBase.html" target="_top" xlink:title="ocra::SubjectBase\&lt;\l EVT_RESIZE \&gt;">
<polygon fill="white" stroke="black" points="41.25,-231.755 41.25,-259.755 144.247,-259.755 144.247,-231.755 41.25,-231.755"/>
<text text-anchor="start" x="49.25" y="-247.755" font-family="Helvetica,sans-Serif" font-size="10.00">ocra::SubjectBase&lt;</text>
<text text-anchor="middle" x="92.7485" y="-237.755" font-family="Helvetica,sans-Serif" font-size="10.00"> EVT_RESIZE &gt;</text>
</a>
</g>
</g>
<!-- Node26&#45;&gt;Node25 -->
<g id="edge9" class="edge"><title>Node26&#45;&gt;Node25</title>
<path fill="none" stroke="midnightblue" d="M154.489,-236.04C178.489,-232.202 205.266,-227.919 226.162,-224.577"/>
<polygon fill="midnightblue" stroke="midnightblue" points="153.72,-232.619 144.399,-237.654 154.826,-239.531 153.72,-232.619"/>
</g>
<!-- Node27 -->
<g id="node11" class="node"><title>Node27</title>
<g id="a_node11"><a xlink:href="../../dc/d29/classocra_1_1SubjectBase.html" target="_top" xlink:title="ocra::SubjectBase\&lt;\l EVT_CHANGE_DEPENDENCIES \&gt;">
<polygon fill="white" stroke="black" points="2.91992,-184.755 2.91992,-212.755 182.577,-212.755 182.577,-184.755 2.91992,-184.755"/>
<text text-anchor="start" x="10.9199" y="-200.755" font-family="Helvetica,sans-Serif" font-size="10.00">ocra::SubjectBase&lt;</text>
<text text-anchor="middle" x="92.7485" y="-190.755" font-family="Helvetica,sans-Serif" font-size="10.00"> EVT_CHANGE_DEPENDENCIES &gt;</text>
</a>
</g>
</g>
<!-- Node27&#45;&gt;Node25 -->
<g id="edge10" class="edge"><title>Node27&#45;&gt;Node25</title>
<path fill="none" stroke="midnightblue" d="M192.668,-210.474C204.562,-211.884 216.06,-213.246 226.178,-214.445"/>
<polygon fill="midnightblue" stroke="midnightblue" points="192.948,-206.983 182.605,-209.282 192.124,-213.935 192.948,-206.983"/>
</g>
<!-- Node28 -->
<g id="node12" class="node"><title>Node28</title>
<g id="a_node12"><a xlink:href="../../dc/d29/classocra_1_1SubjectBase.html" target="_top" xlink:title="ocra::SubjectBase\&lt;\l EVT_CHANGE_VALUE \&gt;">
<polygon fill="white" stroke="black" points="26.3452,-137.755 26.3452,-165.755 159.152,-165.755 159.152,-137.755 26.3452,-137.755"/>
<text text-anchor="start" x="34.3452" y="-153.755" font-family="Helvetica,sans-Serif" font-size="10.00">ocra::SubjectBase&lt;</text>
<text text-anchor="middle" x="92.7485" y="-143.755" font-family="Helvetica,sans-Serif" font-size="10.00"> EVT_CHANGE_VALUE &gt;</text>
</a>
</g>
</g>
<!-- Node28&#45;&gt;Node25 -->
<g id="edge11" class="edge"><title>Node28&#45;&gt;Node25</title>
<path fill="none" stroke="midnightblue" d="M168.784,-168.754C174.5,-170.598 180.129,-172.597 185.497,-174.755 209.084,-184.236 234.281,-199.774 249.214,-209.623"/>
<polygon fill="midnightblue" stroke="midnightblue" points="169.7,-165.374 159.114,-165.797 167.653,-172.068 169.7,-165.374"/>
</g>
<!-- Node29 -->
<g id="node13" class="node"><title>Node29</title>
<g id="a_node13"><a xlink:href="../../dd/d68/classocra_1_1IFunctionProperties.html" target="_top" xlink:title="ocra::IFunctionProperties">
<polygon fill="white" stroke="black" points="601.034,-194.755 601.034,-212.755 728.752,-212.755 728.752,-194.755 601.034,-194.755"/>
<text text-anchor="middle" x="664.893" y="-200.755" font-family="Helvetica,sans-Serif" font-size="10.00">ocra::IFunctionProperties</text>
</a>
</g>
</g>
<!-- Node29&#45;&gt;Node19 -->
<g id="edge12" class="edge"><title>Node29&#45;&gt;Node19</title>
<path fill="none" stroke="midnightblue" d="M725.933,-192.826C751.956,-187.907 782.736,-181.844 810.383,-175.755 817.312,-174.229 824.69,-172.491 831.753,-170.77"/>
<polygon fill="midnightblue" stroke="midnightblue" points="725.022,-189.436 715.84,-194.722 726.314,-196.316 725.022,-189.436"/>
</g>
<!-- Node30 -->
<g id="node14" class="node"><title>Node30</title>
<polygon fill="white" stroke="#bfbfbf" points="582.994,-147.755 582.994,-175.755 746.792,-175.755 746.792,-147.755 582.994,-147.755"/>
<text text-anchor="start" x="590.994" y="-163.755" font-family="Helvetica,sans-Serif" font-size="10.00">OCRA_FUNCTION_INTERFACE</text>
<text text-anchor="middle" x="664.893" y="-153.755" font-family="Helvetica,sans-Serif" font-size="10.00">_INHERITANCEpublic</text>
</g>
<!-- Node30&#45;&gt;Node19 -->
<g id="edge13" class="edge"><title>Node30&#45;&gt;Node19</title>
<path fill="none" stroke="#8b1a1a" d="M757.118,-161.755C782.113,-161.755 807.885,-161.755 828.189,-161.755"/>
<polygon fill="#8b1a1a" stroke="#8b1a1a" points="756.848,-158.255 746.848,-161.755 756.848,-165.255 756.848,-158.255"/>
</g>
<!-- Node31 -->
<g id="node15" class="node"><title>Node31</title>
<g id="a_node15"><a xlink:href="../../db/de3/classocra_1_1NamedInstance.html" target="_top" xlink:title="ocra::NamedInstance">
<polygon fill="white" stroke="black" points="609.369,-110.755 609.369,-128.755 720.417,-128.755 720.417,-110.755 609.369,-110.755"/>
<text text-anchor="middle" x="664.893" y="-116.755" font-family="Helvetica,sans-Serif" font-size="10.00">ocra::NamedInstance</text>
</a>
</g>
</g>
<!-- Node31&#45;&gt;Node19 -->
<g id="edge14" class="edge"><title>Node31&#45;&gt;Node19</title>
<path fill="none" stroke="midnightblue" d="M718.894,-130.821C753.155,-137.974 796.987,-147.125 828.066,-153.613"/>
<polygon fill="midnightblue" stroke="midnightblue" points="719.554,-127.383 709.049,-128.765 718.123,-134.235 719.554,-127.383"/>
</g>
<!-- Node32 -->
<g id="node16" class="node"><title>Node32</title>
<g id="a_node16"><a xlink:href="../../d8/d24/classocra_1_1AbilitySet.html" target="_top" xlink:title="ocra::AbilitySet">
<polygon fill="white" stroke="black" points="623.546,-73.7552 623.546,-91.7552 706.24,-91.7552 706.24,-73.7552 623.546,-73.7552"/>
<text text-anchor="middle" x="664.893" y="-79.7552" font-family="Helvetica,sans-Serif" font-size="10.00">ocra::AbilitySet</text>
</a>
</g>
</g>
<!-- Node32&#45;&gt;Node19 -->
<g id="edge15" class="edge"><title>Node32&#45;&gt;Node19</title>
<path fill="none" stroke="midnightblue" d="M716.402,-91.9439C726.596,-94.3684 737.141,-97.2963 746.792,-100.755 786.464,-114.974 829.808,-139.355 852.048,-152.578"/>
<polygon fill="midnightblue" stroke="midnightblue" points="716.895,-88.4674 706.37,-89.6862 715.358,-95.2966 716.895,-88.4674"/>
</g>
<!-- Node33 -->
<g id="node17" class="node"><title>Node33</title>
<g id="a_node17"><a xlink:href="../../d5/dc0/classocra_1_1CoupledInputOutputSize.html" target="_top" xlink:title="ocra::CoupledInputOutputSize">
<polygon fill="white" stroke="black" points="589.906,-344.755 589.906,-362.755 739.88,-362.755 739.88,-344.755 589.906,-344.755"/>
<text text-anchor="middle" x="664.893" y="-350.755" font-family="Helvetica,sans-Serif" font-size="10.00">ocra::CoupledInputOutputSize</text>
</a>
</g>
</g>
<!-- Node33&#45;&gt;Node19 -->
<g id="edge16" class="edge"><title>Node33&#45;&gt;Node19</title>
<path fill="none" stroke="midnightblue" d="M749.955,-350.956C771.703,-346.56 793.672,-338.396 810.383,-323.755 857.896,-282.127 865.588,-198.348 866.828,-170.778"/>
<polygon fill="midnightblue" stroke="midnightblue" points="749.234,-347.529 739.998,-352.72 750.455,-354.422 749.234,-347.529"/>
</g>
<!-- Node34 -->
<g id="node18" class="node"><title>Node34</title>
<polygon fill="white" stroke="#bfbfbf" points="636.6,-22.7552 636.6,-40.7552 693.186,-40.7552 693.186,-22.7552 636.6,-22.7552"/>
<text text-anchor="middle" x="664.893" y="-28.7552" font-family="Helvetica,sans-Serif" font-size="10.00">VectorXd</text>
</g>
<!-- Node34&#45;&gt;Node17 -->
<g id="edge25" class="edge"><title>Node34&#45;&gt;Node17</title>
<path fill="none" stroke="#9a32cd" stroke-dasharray="5,2" d="M703.316,-25.7493C778.99,-14.4026 955.601,8.03323 1103.71,-3.7552 1128.03,-5.69099 1154.9,-9.82602 1176.9,-13.7457"/>
<polygon fill="#9a32cd" stroke="#9a32cd" points="702.68,-22.3057 693.322,-27.2721 703.735,-29.2259 702.68,-22.3057"/>
<text text-anchor="middle" x="944.37" y="-4.7552" font-family="Helvetica,sans-Serif" font-size="10.00"> _weight</text>
</g>
<!-- Node34&#45;&gt;Node18 -->
<g id="edge24" class="edge"><title>Node34&#45;&gt;Node18</title>
<path fill="none" stroke="#9a32cd" stroke-dasharray="5,2" d="M703.387,-35.0507C768.377,-40.7627 902.485,-52.5498 980.817,-59.4346"/>
<polygon fill="#9a32cd" stroke="#9a32cd" points="703.466,-31.5441 693.198,-34.1551 702.853,-38.5173 703.466,-31.5441"/>
<text text-anchor="middle" x="868.065" y="-54.7552" font-family="Helvetica,sans-Serif" font-size="10.00"> _r</text>
</g>
<!-- Node34&#45;&gt;Node19 -->
<g id="edge17" class="edge"><title>Node34&#45;&gt;Node19</title>
<path fill="none" stroke="#9a32cd" stroke-dasharray="5,2" d="M702.874,-42.4975C733.79,-52.7312 777.914,-70.3622 810.383,-95.7552 832.036,-112.69 851.55,-138.904 861.022,-152.644"/>
<polygon fill="#9a32cd" stroke="#9a32cd" points="703.923,-39.1584 693.332,-39.4343 701.783,-45.8234 703.923,-39.1584"/>
<text text-anchor="middle" x="787.587" y="-97.7552" font-family="Helvetica,sans-Serif" font-size="10.00"> _value</text>
</g>
<!-- Node34&#45;&gt;Node40 -->
<g id="edge28" class="edge"><title>Node34&#45;&gt;Node40</title>
<path fill="none" stroke="#9a32cd" stroke-dasharray="5,2" d="M703.323,-30.858C770.503,-29.2476 911.688,-25.8633 988.631,-24.019"/>
<polygon fill="#9a32cd" stroke="#9a32cd" points="703.111,-27.362 693.198,-31.1007 703.279,-34.3599 703.111,-27.362"/>
<text text-anchor="middle" x="868.065" y="-30.7552" font-family="Helvetica,sans-Serif" font-size="10.00"> _b</text>
</g>
<!-- Node35 -->
<g id="node19" class="node"><title>Node35</title>
<polygon fill="white" stroke="#bfbfbf" points="637.167,-307.755 637.167,-325.755 692.62,-325.755 692.62,-307.755 637.167,-307.755"/>
<text text-anchor="middle" x="664.893" y="-313.755" font-family="Helvetica,sans-Serif" font-size="10.00">MatrixXd</text>
</g>
<!-- Node35&#45;&gt;Node19 -->
<g id="edge18" class="edge"><title>Node35&#45;&gt;Node19</title>
<path fill="none" stroke="#9a32cd" stroke-dasharray="5,2" d="M703.102,-318.605C734.831,-318.241 780.002,-312.884 810.383,-288.755 849.332,-257.821 862.3,-194.436 865.88,-170.857"/>
<polygon fill="#9a32cd" stroke="#9a32cd" points="702.914,-315.104 692.897,-318.557 702.881,-322.104 702.914,-315.104"/>
<text text-anchor="middle" x="787.587" y="-311.755" font-family="Helvetica,sans-Serif" font-size="10.00"> _jacobian</text>
</g>
<!-- Node36&#45;&gt;Node19 -->
<g id="edge19" class="edge"><title>Node36&#45;&gt;Node19</title>
<path fill="none" stroke="#9a32cd" stroke-dasharray="5,2" d="M713.733,-281.642C743.821,-280.587 782.153,-274.919 810.383,-255.755 841.602,-234.563 858.436,-189.921 864.462,-170.781"/>
<polygon fill="#9a32cd" stroke="#9a32cd" points="713.395,-278.148 703.464,-281.837 713.529,-285.146 713.395,-278.148"/>
<text text-anchor="middle" x="787.587" y="-276.755" font-family="Helvetica,sans-Serif" font-size="10.00"> x</text>
</g>
<!-- Node37 -->
<g id="node21" class="node"><title>Node37</title>
<g id="a_node21"><a xlink:href="../../d0/d29/classocra_1_1Component.html" target="_top" xlink:title="ocra::Component\&lt; Variable,\l CompositeVariable, VariableParenthood \&gt;">
<polygon fill="white" stroke="black" points="341.63,-315.755 341.63,-343.755 545.994,-343.755 545.994,-315.755 341.63,-315.755"/>
<text text-anchor="start" x="349.63" y="-331.755" font-family="Helvetica,sans-Serif" font-size="10.00">ocra::Component&lt; Variable,</text>
<text text-anchor="middle" x="443.812" y="-321.755" font-family="Helvetica,sans-Serif" font-size="10.00"> CompositeVariable, VariableParenthood &gt;</text>
</a>
</g>
</g>
<!-- Node37&#45;&gt;Node36 -->
<g id="edge20" class="edge"><title>Node37&#45;&gt;Node36</title>
<path fill="none" stroke="midnightblue" d="M514.83,-313.417C536.656,-308.357 560.816,-302.79 582.994,-297.755 597.025,-294.57 612.439,-291.126 626.014,-288.112"/>
<polygon fill="midnightblue" stroke="midnightblue" points="513.931,-310.032 504.981,-315.702 515.514,-316.851 513.931,-310.032"/>
</g>
<!-- Node38 -->
<g id="node22" class="node"><title>Node38</title>
<polygon fill="white" stroke="#bfbfbf" points="407.455,-278.755 407.455,-296.755 480.169,-296.755 480.169,-278.755 407.455,-278.755"/>
<text text-anchor="middle" x="443.812" y="-284.755" font-family="Helvetica,sans-Serif" font-size="10.00">noncopyable</text>
</g>
<!-- Node38&#45;&gt;Node36 -->
<g id="edge22" class="edge"><title>Node38&#45;&gt;Node36</title>
<path fill="none" stroke="#8b1a1a" d="M490.591,-286.084C530.871,-284.613 588.795,-282.497 626.386,-281.125"/>
<polygon fill="#8b1a1a" stroke="#8b1a1a" points="490.364,-282.589 480.499,-286.452 490.62,-289.585 490.364,-282.589"/>
</g>
<!-- Node39 -->
<g id="node23" class="node"><title>Node39</title>
<g id="a_node23"><a xlink:href="../../dc/d20/classocra_1_1VariableHasRestrictedClassDerivation.html" target="_top" xlink:title="ocra::VariableHasRestricted\lClassDerivation">
<polygon fill="white" stroke="black" points="373.932,-362.755 373.932,-390.755 513.692,-390.755 513.692,-362.755 373.932,-362.755"/>
<text text-anchor="start" x="381.932" y="-378.755" font-family="Helvetica,sans-Serif" font-size="10.00">ocra::VariableHasRestricted</text>
<text text-anchor="middle" x="443.812" y="-368.755" font-family="Helvetica,sans-Serif" font-size="10.00">ClassDerivation</text>
</a>
</g>
</g>
<!-- Node39&#45;&gt;Node36 -->
<g id="edge23" class="edge"><title>Node39&#45;&gt;Node36</title>
<path fill="none" stroke="#8b1a1a" d="M523.424,-365.304C531.427,-362.291 539.126,-358.507 545.994,-353.755 570.526,-336.783 558.423,-314.671 582.994,-297.755 595.557,-289.107 611.586,-284.534 626.057,-282.145"/>
<polygon fill="#8b1a1a" stroke="#8b1a1a" points="522.285,-361.994 513.921,-368.497 524.515,-368.63 522.285,-361.994"/>
</g>
<!-- Node40&#45;&gt;Node17 -->
<g id="edge26" class="edge"><title>Node40&#45;&gt;Node17</title>
<path fill="none" stroke="#9a32cd" stroke-dasharray="5,2" d="M1106.33,-22.7552C1120.69,-22.7552 1136.05,-22.7552 1150.73,-22.7552"/>
<polygon fill="#9a32cd" stroke="#9a32cd" points="1106.08,-19.2553 1096.08,-22.7552 1106.08,-26.2553 1106.08,-19.2553"/>
<text text-anchor="middle" x="1127.27" y="-24.7552" font-family="Helvetica,sans-Serif" font-size="10.00"> _f</text>
</g>
</g>
</svg>
