<?xml version="1.0" encoding="UTF-8" standalone="no"?>
<!DOCTYPE svg PUBLIC "-//W3C//DTD SVG 1.1//EN"
 "http://www.w3.org/Graphics/SVG/1.1/DTD/svg11.dtd">
<!-- Generated by graphviz version 2.38.0 (20140413.2041)
 -->
<!-- Title: wocra::WocraController::Pimpl Pages: 1 -->
<svg width="1530pt" height="577pt"
 viewBox="0.00 0.00 1530.14 577.00" xmlns="http://www.w3.org/2000/svg" xmlns:xlink="http://www.w3.org/1999/xlink">
<g id="graph0" class="graph" transform="scale(1 1) rotate(0) translate(4 573)">
<title>wocra::WocraController::Pimpl</title>
<polygon fill="white" stroke="none" points="-4,4 -4,-573 1526.14,-573 1526.14,4 -4,4"/>
<!-- Node1 -->
<g id="node1" class="node"><title>Node1</title>
<polygon fill="#bfbfbf" stroke="black" points="1401.85,-95.5 1401.85,-123.5 1522.14,-123.5 1522.14,-95.5 1401.85,-95.5"/>
<text text-anchor="start" x="1409.85" y="-111.5" font-family="Helvetica,sans-Serif" font-size="10.00">wocra::WocraController</text>
<text text-anchor="middle" x="1462" y="-101.5" font-family="Helvetica,sans-Serif" font-size="10.00">::Pimpl</text>
</g>
<!-- Node2 -->
<g id="node2" class="node"><title>Node2</title>
<g id="a_node2"><a xlink:href="../../d9/d7e/classocra_1_1QuadraticFunction.html" target="_top" xlink:title="QuadraticFunction class. ">
<polygon fill="white" stroke="black" points="944.747,-175.5 944.747,-193.5 1067.47,-193.5 1067.47,-175.5 944.747,-175.5"/>
<text text-anchor="middle" x="1006.11" y="-181.5" font-family="Helvetica,sans-Serif" font-size="10.00">ocra::QuadraticFunction</text>
</a>
</g>
</g>
<!-- Node2&#45;&gt;Node1 -->
<g id="edge1" class="edge"><title>Node2&#45;&gt;Node1</title>
<path fill="none" stroke="#9a32cd" stroke-dasharray="5,2" d="M1077.64,-194.599C1155.36,-202.828 1282.74,-207.642 1383.85,-169.5 1409.72,-159.738 1433.92,-138.083 1448.09,-123.637"/>
<polygon fill="#9a32cd" stroke="#9a32cd" points="1077.81,-191.096 1067.48,-193.474 1077.04,-198.053 1077.81,-191.096"/>
<text text-anchor="middle" x="1182.91" y="-212.5" font-family="Helvetica,sans-Serif" font-size="10.00"> minDdqFunction</text>
<text text-anchor="middle" x="1182.91" y="-202.5" font-family="Helvetica,sans-Serif" font-size="10.00">minTauFunction</text>
</g>
<!-- Node26 -->
<g id="node26" class="node"><title>Node26</title>
<g id="a_node26"><a xlink:href="../../d3/d16/classocra_1_1FcQuadraticFunction.html" target="_top" xlink:title="ocra::FcQuadraticFunction">
<polygon fill="white" stroke="black" points="1116,-147.5 1116,-165.5 1249.83,-165.5 1249.83,-147.5 1116,-147.5"/>
<text text-anchor="middle" x="1182.91" y="-153.5" font-family="Helvetica,sans-Serif" font-size="10.00">ocra::FcQuadraticFunction</text>
</a>
</g>
</g>
<!-- Node2&#45;&gt;Node26 -->
<g id="edge28" class="edge"><title>Node2&#45;&gt;Node26</title>
<path fill="none" stroke="midnightblue" d="M1073.33,-173.892C1090.5,-171.142 1108.83,-168.206 1125.45,-165.545"/>
<polygon fill="midnightblue" stroke="midnightblue" points="1072.7,-170.449 1063.38,-175.486 1073.81,-177.361 1072.7,-170.449"/>
</g>
<!-- Node3 -->
<g id="node3" class="node"><title>Node3</title>
<g id="a_node3"><a xlink:href="../../d2/d99/classocra_1_1Function.html" target="_top" xlink:title="Function class. ">
<polygon fill="white" stroke="black" points="828.383,-301.5 828.383,-319.5 907.747,-319.5 907.747,-301.5 828.383,-301.5"/>
<text text-anchor="middle" x="868.065" y="-307.5" font-family="Helvetica,sans-Serif" font-size="10.00">ocra::Function</text>
</a>
</g>
</g>
<!-- Node3&#45;&gt;Node2 -->
<g id="edge2" class="edge"><title>Node3&#45;&gt;Node2</title>
<path fill="none" stroke="midnightblue" d="M886.514,-294.339C915.347,-267.634 972.035,-215.13 995.044,-193.819"/>
<polygon fill="midnightblue" stroke="midnightblue" points="883.807,-292.075 878.849,-301.438 888.564,-297.211 883.807,-292.075"/>
</g>
<!-- Node4 -->
<g id="node4" class="node"><title>Node4</title>
<g id="a_node4"><a xlink:href="../../d3/d16/classocra_1_1ObserverSubject.html" target="_top" xlink:title="ocra::ObserverSubject">
<polygon fill="white" stroke="black" points="386.068,-406.5 386.068,-424.5 501.556,-424.5 501.556,-406.5 386.068,-406.5"/>
<text text-anchor="middle" x="443.812" y="-412.5" font-family="Helvetica,sans-Serif" font-size="10.00">ocra::ObserverSubject</text>
</a>
</g>
</g>
<!-- Node4&#45;&gt;Node3 -->
<g id="edge3" class="edge"><title>Node4&#45;&gt;Node3</title>
<path fill="none" stroke="midnightblue" d="M511.916,-418.384C574.158,-419.153 668.671,-415.428 746.792,-391.5 793.73,-377.123 838.945,-337.651 857.828,-319.656"/>
<polygon fill="midnightblue" stroke="midnightblue" points="511.886,-414.883 501.83,-418.216 511.77,-421.882 511.886,-414.883"/>
</g>
<!-- Node20 -->
<g id="node20" class="node"><title>Node20</title>
<g id="a_node20"><a xlink:href="../../d2/dac/classocra_1_1Variable.html" target="_top" xlink:title="This class represents a variable in a mathematical sense. ">
<polygon fill="white" stroke="black" points="626.412,-446.5 626.412,-464.5 703.374,-464.5 703.374,-446.5 626.412,-446.5"/>
<text text-anchor="middle" x="664.893" y="-452.5" font-family="Helvetica,sans-Serif" font-size="10.00">ocra::Variable</text>
</a>
</g>
</g>
<!-- Node4&#45;&gt;Node20 -->
<g id="edge21" class="edge"><title>Node4&#45;&gt;Node20</title>
<path fill="none" stroke="midnightblue" d="M504.39,-426.378C543.234,-433.47 592.746,-442.51 626.224,-448.622"/>
<polygon fill="midnightblue" stroke="midnightblue" points="504.717,-422.88 494.251,-424.527 503.46,-429.766 504.717,-422.88"/>
</g>
<!-- Node5 -->
<g id="node5" class="node"><title>Node5</title>
<g id="a_node5"><a xlink:href="../../d2/d45/classocra_1_1Observer.html" target="_top" xlink:title="ocra::Observer">
<polygon fill="white" stroke="black" points="222.497,-474.5 222.497,-492.5 304.63,-492.5 304.63,-474.5 222.497,-474.5"/>
<text text-anchor="middle" x="263.563" y="-480.5" font-family="Helvetica,sans-Serif" font-size="10.00">ocra::Observer</text>
</a>
</g>
</g>
<!-- Node5&#45;&gt;Node4 -->
<g id="edge4" class="edge"><title>Node5&#45;&gt;Node4</title>
<path fill="none" stroke="midnightblue" d="M284.539,-468.224C299.495,-457.514 320.869,-443.698 341.63,-435.5 355.537,-430.008 371.136,-425.971 385.844,-423.024"/>
<polygon fill="midnightblue" stroke="midnightblue" points="282.103,-465.67 276.118,-474.413 286.249,-471.311 282.103,-465.67"/>
</g>
<!-- Node6 -->
<g id="node6" class="node"><title>Node6</title>
<g id="a_node6"><a xlink:href="../../d4/dee/classocra_1_1ObserverBase.html" target="_top" xlink:title="ocra::ObserverBase\l\&lt; EVT_RESIZE \&gt;">
<polygon fill="white" stroke="black" points="40.2856,-540.5 40.2856,-568.5 145.211,-568.5 145.211,-540.5 40.2856,-540.5"/>
<text text-anchor="start" x="48.2856" y="-556.5" font-family="Helvetica,sans-Serif" font-size="10.00">ocra::ObserverBase</text>
<text text-anchor="middle" x="92.7485" y="-546.5" font-family="Helvetica,sans-Serif" font-size="10.00">&lt; EVT_RESIZE &gt;</text>
</a>
</g>
</g>
<!-- Node6&#45;&gt;Node5 -->
<g id="edge5" class="edge"><title>Node6&#45;&gt;Node5</title>
<path fill="none" stroke="midnightblue" d="M155.373,-541.87C165.614,-538.976 175.989,-535.535 185.497,-531.5 210.164,-521.032 236.055,-503.3 250.667,-492.567"/>
<polygon fill="midnightblue" stroke="midnightblue" points="154.382,-538.512 145.628,-544.48 156.193,-545.274 154.382,-538.512"/>
</g>
<!-- Node7 -->
<g id="node7" class="node"><title>Node7</title>
<g id="a_node7"><a xlink:href="../../d4/dee/classocra_1_1ObserverBase.html" target="_top" xlink:title="ocra::ObserverBase\l\&lt; EVT_CHANGE_DEPENDENCIES \&gt;">
<polygon fill="white" stroke="black" points="0,-493.5 0,-521.5 185.497,-521.5 185.497,-493.5 0,-493.5"/>
<text text-anchor="start" x="8" y="-509.5" font-family="Helvetica,sans-Serif" font-size="10.00">ocra::ObserverBase</text>
<text text-anchor="middle" x="92.7485" y="-499.5" font-family="Helvetica,sans-Serif" font-size="10.00">&lt; EVT_CHANGE_DEPENDENCIES &gt;</text>
</a>
</g>
</g>
<!-- Node7&#45;&gt;Node5 -->
<g id="edge6" class="edge"><title>Node7&#45;&gt;Node5</title>
<path fill="none" stroke="midnightblue" d="M195.725,-493.002C205,-491.684 213.979,-490.407 222.187,-489.24"/>
<polygon fill="midnightblue" stroke="midnightblue" points="194.974,-489.574 185.566,-494.447 195.959,-496.504 194.974,-489.574"/>
</g>
<!-- Node8 -->
<g id="node8" class="node"><title>Node8</title>
<g id="a_node8"><a xlink:href="../../d4/dee/classocra_1_1ObserverBase.html" target="_top" xlink:title="ocra::ObserverBase\l\&lt; EVT_CHANGE_VALUE \&gt;">
<polygon fill="white" stroke="black" points="23.4253,-446.5 23.4253,-474.5 162.072,-474.5 162.072,-446.5 23.4253,-446.5"/>
<text text-anchor="start" x="31.4253" y="-462.5" font-family="Helvetica,sans-Serif" font-size="10.00">ocra::ObserverBase</text>
<text text-anchor="middle" x="92.7485" y="-452.5" font-family="Helvetica,sans-Serif" font-size="10.00">&lt; EVT_CHANGE_VALUE &gt;</text>
</a>
</g>
</g>
<!-- Node8&#45;&gt;Node5 -->
<g id="edge7" class="edge"><title>Node8&#45;&gt;Node5</title>
<path fill="none" stroke="midnightblue" d="M172.466,-471.225C189.64,-473.565 207.13,-475.948 222.074,-477.984"/>
<polygon fill="midnightblue" stroke="midnightblue" points="172.793,-467.737 162.412,-469.855 171.848,-474.673 172.793,-467.737"/>
</g>
<!-- Node9 -->
<g id="node9" class="node"><title>Node9</title>
<g id="a_node9"><a xlink:href="../../dc/d77/classocra_1_1Subject.html" target="_top" xlink:title="ocra::Subject">
<polygon fill="white" stroke="black" points="226.381,-377.5 226.381,-395.5 300.746,-395.5 300.746,-377.5 226.381,-377.5"/>
<text text-anchor="middle" x="263.563" y="-383.5" font-family="Helvetica,sans-Serif" font-size="10.00">ocra::Subject</text>
</a>
</g>
</g>
<!-- Node9&#45;&gt;Node4 -->
<g id="edge8" class="edge"><title>Node9&#45;&gt;Node4</title>
<path fill="none" stroke="midnightblue" d="M311.07,-394.066C334.43,-397.867 362.898,-402.499 387.386,-406.483"/>
<polygon fill="midnightblue" stroke="midnightblue" points="311.497,-390.59 301.065,-392.439 310.373,-397.499 311.497,-390.59"/>
</g>
<!-- Node10 -->
<g id="node10" class="node"><title>Node10</title>
<g id="a_node10"><a xlink:href="../../dc/d29/classocra_1_1SubjectBase.html" target="_top" xlink:title="ocra::SubjectBase\&lt;\l EVT_RESIZE \&gt;">
<polygon fill="white" stroke="black" points="41.25,-399.5 41.25,-427.5 144.247,-427.5 144.247,-399.5 41.25,-399.5"/>
<text text-anchor="start" x="49.25" y="-415.5" font-family="Helvetica,sans-Serif" font-size="10.00">ocra::SubjectBase&lt;</text>
<text text-anchor="middle" x="92.7485" y="-405.5" font-family="Helvetica,sans-Serif" font-size="10.00"> EVT_RESIZE &gt;</text>
</a>
</g>
</g>
<!-- Node10&#45;&gt;Node9 -->
<g id="edge9" class="edge"><title>Node10&#45;&gt;Node9</title>
<path fill="none" stroke="midnightblue" d="M154.489,-403.785C178.489,-399.947 205.266,-395.664 226.162,-392.322"/>
<polygon fill="midnightblue" stroke="midnightblue" points="153.72,-400.364 144.399,-405.399 154.826,-407.276 153.72,-400.364"/>
</g>
<!-- Node11 -->
<g id="node11" class="node"><title>Node11</title>
<g id="a_node11"><a xlink:href="../../dc/d29/classocra_1_1SubjectBase.html" target="_top" xlink:title="ocra::SubjectBase\&lt;\l EVT_CHANGE_DEPENDENCIES \&gt;">
<polygon fill="white" stroke="black" points="2.91992,-352.5 2.91992,-380.5 182.577,-380.5 182.577,-352.5 2.91992,-352.5"/>
<text text-anchor="start" x="10.9199" y="-368.5" font-family="Helvetica,sans-Serif" font-size="10.00">ocra::SubjectBase&lt;</text>
<text text-anchor="middle" x="92.7485" y="-358.5" font-family="Helvetica,sans-Serif" font-size="10.00"> EVT_CHANGE_DEPENDENCIES &gt;</text>
</a>
</g>
</g>
<!-- Node11&#45;&gt;Node9 -->
<g id="edge10" class="edge"><title>Node11&#45;&gt;Node9</title>
<path fill="none" stroke="midnightblue" d="M192.668,-378.219C204.562,-379.628 216.06,-380.991 226.178,-382.189"/>
<polygon fill="midnightblue" stroke="midnightblue" points="192.948,-374.728 182.605,-377.027 192.124,-381.679 192.948,-374.728"/>
</g>
<!-- Node12 -->
<g id="node12" class="node"><title>Node12</title>
<g id="a_node12"><a xlink:href="../../dc/d29/classocra_1_1SubjectBase.html" target="_top" xlink:title="ocra::SubjectBase\&lt;\l EVT_CHANGE_VALUE \&gt;">
<polygon fill="white" stroke="black" points="26.3452,-305.5 26.3452,-333.5 159.152,-333.5 159.152,-305.5 26.3452,-305.5"/>
<text text-anchor="start" x="34.3452" y="-321.5" font-family="Helvetica,sans-Serif" font-size="10.00">ocra::SubjectBase&lt;</text>
<text text-anchor="middle" x="92.7485" y="-311.5" font-family="Helvetica,sans-Serif" font-size="10.00"> EVT_CHANGE_VALUE &gt;</text>
</a>
</g>
</g>
<!-- Node12&#45;&gt;Node9 -->
<g id="edge11" class="edge"><title>Node12&#45;&gt;Node9</title>
<path fill="none" stroke="midnightblue" d="M168.784,-336.498C174.5,-338.342 180.129,-340.342 185.497,-342.5 209.084,-351.981 234.281,-367.519 249.214,-377.367"/>
<polygon fill="midnightblue" stroke="midnightblue" points="169.7,-333.119 159.114,-333.542 167.653,-339.813 169.7,-333.119"/>
</g>
<!-- Node13 -->
<g id="node13" class="node"><title>Node13</title>
<g id="a_node13"><a xlink:href="../../dd/d68/classocra_1_1IFunctionProperties.html" target="_top" xlink:title="ocra::IFunctionProperties">
<polygon fill="white" stroke="black" points="601.034,-364.5 601.034,-382.5 728.752,-382.5 728.752,-364.5 601.034,-364.5"/>
<text text-anchor="middle" x="664.893" y="-370.5" font-family="Helvetica,sans-Serif" font-size="10.00">ocra::IFunctionProperties</text>
</a>
</g>
</g>
<!-- Node13&#45;&gt;Node3 -->
<g id="edge12" class="edge"><title>Node13&#45;&gt;Node3</title>
<path fill="none" stroke="midnightblue" d="M717.623,-362.069C727.353,-359.716 737.414,-357.144 746.792,-354.5 775.439,-346.423 782.446,-343.768 810.383,-333.5 822.145,-329.177 835.107,-323.952 845.663,-319.576"/>
<polygon fill="midnightblue" stroke="midnightblue" points="716.567,-358.722 707.645,-364.436 718.183,-365.533 716.567,-358.722"/>
</g>
<!-- Node14 -->
<g id="node14" class="node"><title>Node14</title>
<polygon fill="white" stroke="#bfbfbf" points="582.994,-317.5 582.994,-345.5 746.792,-345.5 746.792,-317.5 582.994,-317.5"/>
<text text-anchor="start" x="590.994" y="-333.5" font-family="Helvetica,sans-Serif" font-size="10.00">OCRA_FUNCTION_INTERFACE</text>
<text text-anchor="middle" x="664.893" y="-323.5" font-family="Helvetica,sans-Serif" font-size="10.00">_INHERITANCEpublic</text>
</g>
<!-- Node14&#45;&gt;Node3 -->
<g id="edge13" class="edge"><title>Node14&#45;&gt;Node3</title>
<path fill="none" stroke="#8b1a1a" d="M757.118,-321.977C782.113,-319.368 807.885,-316.678 828.189,-314.558"/>
<polygon fill="#8b1a1a" stroke="#8b1a1a" points="756.43,-318.53 746.848,-323.049 757.157,-325.492 756.43,-318.53"/>
</g>
<!-- Node15 -->
<g id="node15" class="node"><title>Node15</title>
<g id="a_node15"><a xlink:href="../../db/de3/classocra_1_1NamedInstance.html" target="_top" xlink:title="ocra::NamedInstance">
<polygon fill="white" stroke="black" points="609.369,-280.5 609.369,-298.5 720.417,-298.5 720.417,-280.5 609.369,-280.5"/>
<text text-anchor="middle" x="664.893" y="-286.5" font-family="Helvetica,sans-Serif" font-size="10.00">ocra::NamedInstance</text>
</a>
</g>
</g>
<!-- Node15&#45;&gt;Node3 -->
<g id="edge14" class="edge"><title>Node15&#45;&gt;Node3</title>
<path fill="none" stroke="midnightblue" d="M730.822,-296.278C762.976,-299.634 800.714,-303.574 828.309,-306.454"/>
<polygon fill="midnightblue" stroke="midnightblue" points="730.908,-292.768 720.598,-295.211 730.181,-299.73 730.908,-292.768"/>
</g>
<!-- Node16 -->
<g id="node16" class="node"><title>Node16</title>
<g id="a_node16"><a xlink:href="../../d8/d24/classocra_1_1AbilitySet.html" target="_top" xlink:title="ocra::AbilitySet">
<polygon fill="white" stroke="black" points="623.546,-243.5 623.546,-261.5 706.24,-261.5 706.24,-243.5 623.546,-243.5"/>
<text text-anchor="middle" x="664.893" y="-249.5" font-family="Helvetica,sans-Serif" font-size="10.00">ocra::AbilitySet</text>
</a>
</g>
</g>
<!-- Node16&#45;&gt;Node3 -->
<g id="edge15" class="edge"><title>Node16&#45;&gt;Node3</title>
<path fill="none" stroke="midnightblue" d="M716.366,-262.895C726.489,-265.214 737.016,-267.794 746.792,-270.5 780.301,-279.774 818.261,-292.837 842.415,-301.48"/>
<polygon fill="midnightblue" stroke="midnightblue" points="716.943,-259.437 706.42,-260.668 715.414,-266.268 716.943,-259.437"/>
</g>
<!-- Node17 -->
<g id="node17" class="node"><title>Node17</title>
<g id="a_node17"><a xlink:href="../../d5/dc0/classocra_1_1CoupledInputOutputSize.html" target="_top" xlink:title="ocra::CoupledInputOutputSize">
<polygon fill="white" stroke="black" points="589.906,-206.5 589.906,-224.5 739.88,-224.5 739.88,-206.5 589.906,-206.5"/>
<text text-anchor="middle" x="664.893" y="-212.5" font-family="Helvetica,sans-Serif" font-size="10.00">ocra::CoupledInputOutputSize</text>
</a>
</g>
</g>
<!-- Node17&#45;&gt;Node3 -->
<g id="edge16" class="edge"><title>Node17&#45;&gt;Node3</title>
<path fill="none" stroke="midnightblue" d="M728.384,-227.205C734.691,-229.038 740.928,-231.127 746.792,-233.5 790.459,-251.171 835.559,-285.027 855.912,-301.309"/>
<polygon fill="midnightblue" stroke="midnightblue" points="729.022,-223.753 718.456,-224.533 727.203,-230.512 729.022,-223.753"/>
</g>
<!-- Node18 -->
<g id="node18" class="node"><title>Node18</title>
<polygon fill="white" stroke="#bfbfbf" points="636.6,-167.5 636.6,-185.5 693.186,-185.5 693.186,-167.5 636.6,-167.5"/>
<text text-anchor="middle" x="664.893" y="-173.5" font-family="Helvetica,sans-Serif" font-size="10.00">VectorXd</text>
</g>
<!-- Node18&#45;&gt;Node2 -->
<g id="edge24" class="edge"><title>Node18&#45;&gt;Node2</title>
<path fill="none" stroke="#9a32cd" stroke-dasharray="5,2" d="M703.609,-177.389C761.984,-178.766 874.755,-181.426 944.612,-183.073"/>
<polygon fill="#9a32cd" stroke="#9a32cd" points="703.445,-173.885 693.365,-177.148 703.28,-180.883 703.445,-173.885"/>
<text text-anchor="middle" x="868.065" y="-184.5" font-family="Helvetica,sans-Serif" font-size="10.00"> _r</text>
</g>
<!-- Node18&#45;&gt;Node3 -->
<g id="edge17" class="edge"><title>Node18&#45;&gt;Node3</title>
<path fill="none" stroke="#9a32cd" stroke-dasharray="5,2" d="M703.599,-182.525C735.256,-189.262 780.048,-202.924 810.383,-229.5 834.912,-250.99 854.253,-285.199 862.596,-301.41"/>
<polygon fill="#9a32cd" stroke="#9a32cd" points="703.897,-179.015 693.407,-180.496 702.531,-185.881 703.897,-179.015"/>
<text text-anchor="middle" x="787.587" y="-231.5" font-family="Helvetica,sans-Serif" font-size="10.00"> _value</text>
</g>
<!-- Node19 -->
<g id="node19" class="node"><title>Node19</title>
<polygon fill="white" stroke="#bfbfbf" points="637.167,-483.5 637.167,-501.5 692.62,-501.5 692.62,-483.5 637.167,-483.5"/>
<text text-anchor="middle" x="664.893" y="-489.5" font-family="Helvetica,sans-Serif" font-size="10.00">MatrixXd</text>
</g>
<!-- Node19&#45;&gt;Node3 -->
<g id="edge18" class="edge"><title>Node19&#45;&gt;Node3</title>
<path fill="none" stroke="#9a32cd" stroke-dasharray="5,2" d="M702.971,-493.927C735.008,-493.178 780.705,-487.087 810.383,-461.5 854.918,-423.103 864.53,-346.091 866.546,-319.655"/>
<polygon fill="#9a32cd" stroke="#9a32cd" points="702.648,-490.429 692.672,-493.997 702.696,-497.429 702.648,-490.429"/>
<text text-anchor="middle" x="787.587" y="-487.5" font-family="Helvetica,sans-Serif" font-size="10.00"> _jacobian</text>
</g>
<!-- Node20&#45;&gt;Node3 -->
<g id="edge19" class="edge"><title>Node20&#45;&gt;Node3</title>
<path fill="none" stroke="#9a32cd" stroke-dasharray="5,2" d="M713.439,-455.949C743.967,-453.928 782.899,-446.777 810.383,-425.5 846.112,-397.84 860.819,-341.735 865.377,-319.69"/>
<polygon fill="#9a32cd" stroke="#9a32cd" points="713.249,-452.455 703.437,-456.451 713.6,-459.446 713.249,-452.455"/>
<text text-anchor="middle" x="787.587" y="-449.5" font-family="Helvetica,sans-Serif" font-size="10.00"> x</text>
</g>
<!-- Node21 -->
<g id="node21" class="node"><title>Node21</title>
<g id="a_node21"><a xlink:href="../../d0/d29/classocra_1_1Component.html" target="_top" xlink:title="ocra::Component\&lt; Variable,\l CompositeVariable, VariableParenthood \&gt;">
<polygon fill="white" stroke="black" points="341.63,-529.5 341.63,-557.5 545.994,-557.5 545.994,-529.5 341.63,-529.5"/>
<text text-anchor="start" x="349.63" y="-545.5" font-family="Helvetica,sans-Serif" font-size="10.00">ocra::Component&lt; Variable,</text>
<text text-anchor="middle" x="443.812" y="-535.5" font-family="Helvetica,sans-Serif" font-size="10.00"> CompositeVariable, VariableParenthood &gt;</text>
</a>
</g>
</g>
<!-- Node21&#45;&gt;Node20 -->
<g id="edge20" class="edge"><title>Node21&#45;&gt;Node20</title>
<path fill="none" stroke="midnightblue" d="M537.732,-525.178C540.576,-523.735 543.339,-522.178 545.994,-520.5 568.466,-506.295 560.49,-487.653 582.994,-473.5 595.783,-465.457 611.69,-460.984 626.007,-458.505"/>
<polygon fill="midnightblue" stroke="midnightblue" points="536.066,-522.091 528.409,-529.414 538.961,-528.464 536.066,-522.091"/>
</g>
<!-- Node22 -->
<g id="node22" class="node"><title>Node22</title>
<polygon fill="white" stroke="#bfbfbf" points="407.455,-492.5 407.455,-510.5 480.169,-510.5 480.169,-492.5 407.455,-492.5"/>
<text text-anchor="middle" x="443.812" y="-498.5" font-family="Helvetica,sans-Serif" font-size="10.00">noncopyable</text>
</g>
<!-- Node22&#45;&gt;Node20 -->
<g id="edge22" class="edge"><title>Node22&#45;&gt;Node20</title>
<path fill="none" stroke="#8b1a1a" d="M490.42,-493.466C507.849,-490.257 527.883,-486.4 545.994,-482.5 562.539,-478.937 566.511,-477.338 582.994,-473.5 597.148,-470.204 612.726,-466.707 626.401,-463.681"/>
<polygon fill="#8b1a1a" stroke="#8b1a1a" points="489.703,-490.039 480.493,-495.276 490.958,-496.926 489.703,-490.039"/>
</g>
<!-- Node23 -->
<g id="node23" class="node"><title>Node23</title>
<g id="a_node23"><a xlink:href="../../dc/d20/classocra_1_1VariableHasRestrictedClassDerivation.html" target="_top" xlink:title="ocra::VariableHasRestricted\lClassDerivation">
<polygon fill="white" stroke="black" points="373.932,-445.5 373.932,-473.5 513.692,-473.5 513.692,-445.5 373.932,-445.5"/>
<text text-anchor="start" x="381.932" y="-461.5" font-family="Helvetica,sans-Serif" font-size="10.00">ocra::VariableHasRestricted</text>
<text text-anchor="middle" x="443.812" y="-451.5" font-family="Helvetica,sans-Serif" font-size="10.00">ClassDerivation</text>
</a>
</g>
</g>
<!-- Node23&#45;&gt;Node20 -->
<g id="edge23" class="edge"><title>Node23&#45;&gt;Node20</title>
<path fill="none" stroke="#8b1a1a" d="M523.996,-458.054C558.816,-457.419 598.079,-456.702 626.126,-456.19"/>
<polygon fill="#8b1a1a" stroke="#8b1a1a" points="523.764,-454.558 513.83,-458.24 523.892,-461.557 523.764,-454.558"/>
</g>
<!-- Node24 -->
<g id="node24" class="node"><title>Node24</title>
<g id="a_node24"><a xlink:href="../../d9/dce/classocra_1_1ObjectivePtr.html" target="_top" xlink:title="ocra::ObjectivePtr\l\&lt; ocra::QuadraticFunction \&gt;">
<polygon fill="white" stroke="black" points="1112.94,-95.5 1112.94,-123.5 1252.89,-123.5 1252.89,-95.5 1112.94,-95.5"/>
<text text-anchor="start" x="1120.94" y="-111.5" font-family="Helvetica,sans-Serif" font-size="10.00">ocra::ObjectivePtr</text>
<text text-anchor="middle" x="1182.91" y="-101.5" font-family="Helvetica,sans-Serif" font-size="10.00">&lt; ocra::QuadraticFunction &gt;</text>
</a>
</g>
</g>
<!-- Node24&#45;&gt;Node1 -->
<g id="edge25" class="edge"><title>Node24&#45;&gt;Node1</title>
<path fill="none" stroke="#9a32cd" stroke-dasharray="5,2" d="M1263.22,-109.5C1307.28,-109.5 1361.18,-109.5 1401.58,-109.5"/>
<polygon fill="#9a32cd" stroke="#9a32cd" points="1263.12,-106 1253.12,-109.5 1263.12,-113 1263.12,-106"/>
<text text-anchor="middle" x="1331.6" y="-131.5" font-family="Helvetica,sans-Serif" font-size="10.00"> minFcObjective</text>
<text text-anchor="middle" x="1331.6" y="-121.5" font-family="Helvetica,sans-Serif" font-size="10.00">minDdqObjective</text>
<text text-anchor="middle" x="1331.6" y="-111.5" font-family="Helvetica,sans-Serif" font-size="10.00">minTauObjective</text>
</g>
<!-- Node25 -->
<g id="node25" class="node"><title>Node25</title>
<g id="a_node25"><a xlink:href="../../d4/d43/classwocra_1_1PerformanceRecorder.html" target="_top" xlink:title="To get and save time information to collect some data on performances. ">
<polygon fill="white" stroke="black" points="1109.61,-57.5 1109.61,-75.5 1256.22,-75.5 1256.22,-57.5 1109.61,-57.5"/>
<text text-anchor="middle" x="1182.91" y="-63.5" font-family="Helvetica,sans-Serif" font-size="10.00">wocra::PerformanceRecorder</text>
</a>
</g>
</g>
<!-- Node25&#45;&gt;Node1 -->
<g id="edge26" class="edge"><title>Node25&#45;&gt;Node1</title>
<path fill="none" stroke="#9a32cd" stroke-dasharray="5,2" d="M1266.65,-70.5097C1302.88,-73.2537 1345.73,-77.8449 1383.85,-85.5 1396.22,-87.9854 1409.43,-91.6896 1421.36,-95.4484"/>
<polygon fill="#9a32cd" stroke="#9a32cd" points="1266.85,-67.0148 1256.62,-69.7837 1266.34,-73.9965 1266.85,-67.0148"/>
<text text-anchor="middle" x="1331.6" y="-97.5" font-family="Helvetica,sans-Serif" font-size="10.00"> solveProblemRecorder</text>
<text text-anchor="middle" x="1331.6" y="-87.5" font-family="Helvetica,sans-Serif" font-size="10.00">updateTasksRecorder</text>
</g>
<!-- Node26&#45;&gt;Node1 -->
<g id="edge27" class="edge"><title>Node26&#45;&gt;Node1</title>
<path fill="none" stroke="#9a32cd" stroke-dasharray="5,2" d="M1260.35,-155.781C1297.96,-154.066 1343.72,-149.936 1383.85,-140.5 1400.29,-136.634 1417.81,-129.826 1432,-123.574"/>
<polygon fill="#9a32cd" stroke="#9a32cd" points="1259.82,-152.299 1249.97,-156.202 1260.1,-159.293 1259.82,-152.299"/>
<text text-anchor="middle" x="1331.6" y="-157.5" font-family="Helvetica,sans-Serif" font-size="10.00"> minFcFunction</text>
</g>
<!-- Node27 -->
<g id="node27" class="node"><title>Node27</title>
<g id="a_node27"><a xlink:href="../../d5/d01/classocra_1_1EqualZeroConstraintPtr.html" target="_top" xlink:title="ocra::EqualZeroConstraint\lPtr\&lt; ocra::FullDynamicEquation\lFunction \&gt;">
<polygon fill="white" stroke="black" points="1104.47,-0.5 1104.47,-38.5 1261.36,-38.5 1261.36,-0.5 1104.47,-0.5"/>
<text text-anchor="start" x="1112.47" y="-26.5" font-family="Helvetica,sans-Serif" font-size="10.00">ocra::EqualZeroConstraint</text>
<text text-anchor="start" x="1112.47" y="-16.5" font-family="Helvetica,sans-Serif" font-size="10.00">Ptr&lt; ocra::FullDynamicEquation</text>
<text text-anchor="middle" x="1182.91" y="-6.5" font-family="Helvetica,sans-Serif" font-size="10.00">Function &gt;</text>
</a>
</g>
</g>
<!-- Node27&#45;&gt;Node1 -->
<g id="edge29" class="edge"><title>Node27&#45;&gt;Node1</title>
<path fill="none" stroke="#9a32cd" stroke-dasharray="5,2" d="M1271.36,-28.9796C1307.15,-34.7813 1348.39,-43.9939 1383.85,-58.5 1406.29,-67.6811 1429.09,-83.775 1444.03,-95.4326"/>
<polygon fill="#9a32cd" stroke="#9a32cd" points="1271.84,-25.5122 1261.42,-27.4322 1270.76,-32.4289 1271.84,-25.5122"/>
<text text-anchor="middle" x="1331.6" y="-60.5" font-family="Helvetica,sans-Serif" font-size="10.00"> dynamicEquation</text>
</g>
</g>
</svg>
