<?xml version="1.0" encoding="UTF-8" standalone="no"?>
<!DOCTYPE svg PUBLIC "-//W3C//DTD SVG 1.1//EN"
 "http://www.w3.org/Graphics/SVG/1.1/DTD/svg11.dtd">
<!-- Generated by graphviz version 2.38.0 (20140413.2041)
 -->
<!-- Title: ocra::FullStateFeature::Pimpl Pages: 1 -->
<svg width="178pt" height="132pt"
 viewBox="0.00 0.00 178.17 132.00" xmlns="http://www.w3.org/2000/svg" xmlns:xlink="http://www.w3.org/1999/xlink">
<g id="graph0" class="graph" transform="scale(1 1) rotate(0) translate(4 128)">
<title>ocra::FullStateFeature::Pimpl</title>
<polygon fill="white" stroke="none" points="-4,4 -4,-128 174.173,-128 174.173,4 -4,4"/>
<!-- Node1 -->
<g id="node1" class="node"><title>Node1</title>
<polygon fill="#bfbfbf" stroke="black" points="8.8252,-0.5 8.8252,-28.5 123.761,-28.5 123.761,-0.5 8.8252,-0.5"/>
<text text-anchor="start" x="16.8252" y="-16.5" font-family="Helvetica,sans-Serif" font-size="10.00">ocra::FullStateFeature</text>
<text text-anchor="middle" x="66.293" y="-6.5" font-family="Helvetica,sans-Serif" font-size="10.00">::Pimpl</text>
</g>
<!-- Node2 -->
<g id="node2" class="node"><title>Node2</title>
<polygon fill="white" stroke="#bfbfbf" points="0,-105.5 0,-123.5 56.5859,-123.5 56.5859,-105.5 0,-105.5"/>
<text text-anchor="middle" x="28.293" y="-111.5" font-family="Helvetica,sans-Serif" font-size="10.00">VectorXd</text>
</g>
<!-- Node2&#45;&gt;Node1 -->
<g id="edge1" class="edge"><title>Node2&#45;&gt;Node1</title>
<path fill="none" stroke="#9a32cd" stroke-dasharray="5,2" d="M24.6527,-95.0164C22.8273,-81.1354 22.297,-62.0149 29.3721,-47 32.7481,-39.8353 38.6227,-33.6852 44.706,-28.7705"/>
<polygon fill="#9a32cd" stroke="#9a32cd" points="21.2595,-95.9483 26.352,-105.239 28.1647,-94.8003 21.2595,-95.9483"/>
<text text-anchor="middle" x="57.2534" y="-79" font-family="Helvetica,sans-Serif" font-size="10.00"> error</text>
<text text-anchor="middle" x="57.2534" y="-69" font-family="Helvetica,sans-Serif" font-size="10.00">acceleration</text>
<text text-anchor="middle" x="57.2534" y="-59" font-family="Helvetica,sans-Serif" font-size="10.00">errorDot</text>
<text text-anchor="middle" x="57.2534" y="-49" font-family="Helvetica,sans-Serif" font-size="10.00">effort</text>
</g>
<!-- Node3 -->
<g id="node3" class="node"><title>Node3</title>
<polygon fill="white" stroke="#bfbfbf" points="77.5664,-105.5 77.5664,-123.5 133.02,-123.5 133.02,-105.5 77.5664,-105.5"/>
<text text-anchor="middle" x="105.293" y="-111.5" font-family="Helvetica,sans-Serif" font-size="10.00">MatrixXd</text>
</g>
<!-- Node3&#45;&gt;Node1 -->
<g id="edge2" class="edge"><title>Node3&#45;&gt;Node1</title>
<path fill="none" stroke="#9a32cd" stroke-dasharray="5,2" d="M100.175,-95.1698C96.1685,-81.6319 90.1406,-62.877 83.293,-47 80.635,-40.8373 77.1941,-34.268 74.1039,-28.7321"/>
<polygon fill="#9a32cd" stroke="#9a32cd" points="96.9129,-96.4922 103.038,-105.137 103.641,-94.5593 96.9129,-96.4922"/>
<text text-anchor="middle" x="134.233" y="-79" font-family="Helvetica,sans-Serif" font-size="10.00"> Minv</text>
<text text-anchor="middle" x="134.233" y="-69" font-family="Helvetica,sans-Serif" font-size="10.00">spaceTransform</text>
<text text-anchor="middle" x="134.233" y="-59" font-family="Helvetica,sans-Serif" font-size="10.00">J</text>
<text text-anchor="middle" x="134.233" y="-49" font-family="Helvetica,sans-Serif" font-size="10.00">M</text>
</g>
</g>
</svg>
