<?xml version="1.0" encoding="UTF-8" standalone="no"?>
<!DOCTYPE svg PUBLIC "-//W3C//DTD SVG 1.1//EN"
 "http://www.w3.org/Graphics/SVG/1.1/DTD/svg11.dtd">
<!-- Generated by graphviz version 2.38.0 (20140413.2041)
 -->
<!-- Title: ocra::LinearFunction Pages: 1 -->
<svg width="1170pt" height="511pt"
 viewBox="0.00 0.00 1169.51 511.00" xmlns="http://www.w3.org/2000/svg" xmlns:xlink="http://www.w3.org/1999/xlink">
<g id="graph0" class="graph" transform="scale(1 1) rotate(0) translate(4 507)">
<title>ocra::LinearFunction</title>
<polygon fill="white" stroke="none" points="-4,4 -4,-507 1165.51,-507 1165.51,4 -4,4"/>
<!-- Node0 -->
<g id="node1" class="node"><title>Node0</title>
<polygon fill="#bfbfbf" stroke="black" points="654.792,-203.5 654.792,-221.5 761.954,-221.5 761.954,-203.5 654.792,-203.5"/>
<text text-anchor="middle" x="708.373" y="-209.5" font-family="Helvetica,sans-Serif" font-size="10.00">ocra::LinearFunction</text>
</g>
<!-- Node16 -->
<g id="node17" class="node"><title>Node16</title>
<g id="a_node17"><a xlink:href="../../d4/d45/classocra_1_1ContactAvoidanceFunction.html" target="_top" xlink:title="Create a linear function that represents the joint limit function. ">
<polygon fill="white" stroke="black" points="800.542,-432.5 800.542,-450.5 960.893,-450.5 960.893,-432.5 800.542,-432.5"/>
<text text-anchor="middle" x="880.717" y="-438.5" font-family="Helvetica,sans-Serif" font-size="10.00">ocra::ContactAvoidanceFunction</text>
</a>
</g>
</g>
<!-- Node0&#45;&gt;Node16 -->
<g id="edge16" class="edge"><title>Node0&#45;&gt;Node16</title>
<path fill="none" stroke="midnightblue" d="M712.033,-231.653C718.709,-272.323 739.997,-367.724 797.954,-418.5 804.942,-424.622 813.442,-429.123 822.287,-432.432"/>
<polygon fill="midnightblue" stroke="midnightblue" points="715.454,-230.87 710.49,-221.51 708.533,-231.923 715.454,-230.87"/>
</g>
<!-- Node19 -->
<g id="node20" class="node"><title>Node19</title>
<g id="a_node20"><a xlink:href="../../d3/d89/classocra_1_1DiagonalLinearFunction.html" target="_top" xlink:title="DiagonalLinearFunction class. ">
<polygon fill="white" stroke="black" points="807.4,-390.5 807.4,-408.5 954.035,-408.5 954.035,-390.5 807.4,-390.5"/>
<text text-anchor="middle" x="880.717" y="-396.5" font-family="Helvetica,sans-Serif" font-size="10.00">ocra::DiagonalLinearFunction</text>
</a>
</g>
</g>
<!-- Node0&#45;&gt;Node19 -->
<g id="edge19" class="edge"><title>Node0&#45;&gt;Node19</title>
<path fill="none" stroke="midnightblue" d="M713.709,-231.557C722.805,-266.975 747.359,-342.849 797.954,-381.5 802.69,-385.118 808.006,-388.038 813.595,-390.392"/>
<polygon fill="midnightblue" stroke="midnightblue" points="717.046,-230.469 711.285,-221.577 710.244,-232.121 717.046,-230.469"/>
</g>
<!-- Node22 -->
<g id="node23" class="node"><title>Node22</title>
<g id="a_node23"><a xlink:href="../../d4/d5c/classocra_1_1DoubleDiagonalLinearFunction.html" target="_top" xlink:title="DoubleDiagonalLinearFunction class. ">
<polygon fill="white" stroke="black" points="810.732,-343.5 810.732,-371.5 950.702,-371.5 950.702,-343.5 810.732,-343.5"/>
<text text-anchor="start" x="818.732" y="-359.5" font-family="Helvetica,sans-Serif" font-size="10.00">ocra::DoubleDiagonalLinear</text>
<text text-anchor="middle" x="880.717" y="-349.5" font-family="Helvetica,sans-Serif" font-size="10.00">Function</text>
</a>
</g>
</g>
<!-- Node0&#45;&gt;Node22 -->
<g id="edge22" class="edge"><title>Node0&#45;&gt;Node22</title>
<path fill="none" stroke="midnightblue" d="M717.742,-230.854C730.93,-257.705 759.105,-307.434 797.954,-334.5 802.915,-337.956 808.384,-340.895 814.071,-343.394"/>
<polygon fill="midnightblue" stroke="midnightblue" points="720.882,-229.308 713.43,-221.778 714.56,-232.312 720.882,-229.308"/>
</g>
<!-- Node23 -->
<g id="node24" class="node"><title>Node23</title>
<g id="a_node24"><a xlink:href="../../d9/da6/classocra_1_1DynamicEquationFunction.html" target="_top" xlink:title="DynamicEquationFunction class. ">
<polygon fill="white" stroke="black" points="801.848,-306.5 801.848,-324.5 959.586,-324.5 959.586,-306.5 801.848,-306.5"/>
<text text-anchor="middle" x="880.717" y="-312.5" font-family="Helvetica,sans-Serif" font-size="10.00">ocra::DynamicEquationFunction</text>
</a>
</g>
</g>
<!-- Node0&#45;&gt;Node23 -->
<g id="edge23" class="edge"><title>Node0&#45;&gt;Node23</title>
<path fill="none" stroke="midnightblue" d="M722.642,-229.691C738.462,-248.959 766.717,-279.694 797.954,-296.5 805.654,-300.643 814.236,-303.887 822.864,-306.427"/>
<polygon fill="midnightblue" stroke="midnightblue" points="725.26,-227.362 716.282,-221.737 719.793,-231.733 725.26,-227.362"/>
</g>
<!-- Node24 -->
<g id="node25" class="node"><title>Node24</title>
<g id="a_node25"><a xlink:href="../../de/ddd/classocra_1_1FullDynamicEquationFunction.html" target="_top" xlink:title="Create a linear function that represents the dynamic equation of motion. ">
<polygon fill="white" stroke="black" points="812.969,-259.5 812.969,-287.5 948.466,-287.5 948.466,-259.5 812.969,-259.5"/>
<text text-anchor="start" x="820.969" y="-275.5" font-family="Helvetica,sans-Serif" font-size="10.00">ocra::FullDynamicEquation</text>
<text text-anchor="middle" x="880.717" y="-265.5" font-family="Helvetica,sans-Serif" font-size="10.00">Function</text>
</a>
</g>
</g>
<!-- Node0&#45;&gt;Node24 -->
<g id="edge24" class="edge"><title>Node0&#45;&gt;Node24</title>
<path fill="none" stroke="midnightblue" d="M738.624,-225.673C755.737,-233.139 777.863,-242.38 797.954,-249.5 807.715,-252.959 818.251,-256.321 828.409,-259.38"/>
<polygon fill="midnightblue" stroke="midnightblue" points="739.743,-222.342 729.181,-221.512 736.92,-228.747 739.743,-222.342"/>
</g>
<!-- Node25 -->
<g id="node26" class="node"><title>Node25</title>
<g id="a_node26"><a xlink:href="../../df/de0/classocra_1_1JointLimitFunction.html" target="_top" xlink:title="Create a linear function that represents the joint limit function. ">
<polygon fill="white" stroke="black" points="819.917,-222.5 819.917,-240.5 941.518,-240.5 941.518,-222.5 819.917,-222.5"/>
<text text-anchor="middle" x="880.717" y="-228.5" font-family="Helvetica,sans-Serif" font-size="10.00">ocra::JointLimitFunction</text>
</a>
</g>
</g>
<!-- Node0&#45;&gt;Node25 -->
<g id="edge25" class="edge"><title>Node0&#45;&gt;Node25</title>
<path fill="none" stroke="midnightblue" d="M772.328,-219.522C787.798,-221.247 804.319,-223.09 819.649,-224.8"/>
<polygon fill="midnightblue" stroke="midnightblue" points="772.664,-216.038 762.337,-218.408 771.888,-222.995 772.664,-216.038"/>
</g>
<!-- Node28 -->
<g id="node29" class="node"><title>Node28</title>
<g id="a_node29"><a xlink:href="../../d0/dd6/classocra_1_1LinearizedCoulombFunction.html" target="_top" xlink:title="LinearizedCoulombFunction class. ">
<polygon fill="white" stroke="black" points="797.954,-185.5 797.954,-203.5 963.48,-203.5 963.48,-185.5 797.954,-185.5"/>
<text text-anchor="middle" x="880.717" y="-191.5" font-family="Helvetica,sans-Serif" font-size="10.00">ocra::LinearizedCoulombFunction</text>
</a>
</g>
</g>
<!-- Node0&#45;&gt;Node28 -->
<g id="edge28" class="edge"><title>Node0&#45;&gt;Node28</title>
<path fill="none" stroke="midnightblue" d="M772.547,-205.825C780.751,-204.958 789.246,-204.06 797.701,-203.167"/>
<polygon fill="midnightblue" stroke="midnightblue" points="771.914,-202.372 762.337,-206.903 772.65,-209.333 771.914,-202.372"/>
</g>
<!-- Node29 -->
<g id="node30" class="node"><title>Node29</title>
<g id="a_node30"><a xlink:href="../../dd/d16/classocra_1_1LinearTask.html" target="_top" xlink:title="LinearTask class. ">
<polygon fill="white" stroke="black" points="836.033,-148.5 836.033,-166.5 925.402,-166.5 925.402,-148.5 836.033,-148.5"/>
<text text-anchor="middle" x="880.717" y="-154.5" font-family="Helvetica,sans-Serif" font-size="10.00">ocra::LinearTask</text>
</a>
</g>
</g>
<!-- Node0&#45;&gt;Node29 -->
<g id="edge29" class="edge"><title>Node0&#45;&gt;Node29</title>
<path fill="none" stroke="midnightblue" d="M737.782,-199.103C754.924,-191.408 777.364,-182.009 797.954,-175.5 810.011,-171.688 823.317,-168.389 835.629,-165.693"/>
<polygon fill="midnightblue" stroke="midnightblue" points="736.002,-196.068 728.356,-203.403 738.906,-202.437 736.002,-196.068"/>
</g>
<!-- Node30 -->
<g id="node31" class="node"><title>Node30</title>
<g id="a_node31"><a xlink:href="../../dd/dda/classocra_1_1SecondOrderLinearTask.html" target="_top" xlink:title="SecondOrderLinearTask class. ">
<polygon fill="white" stroke="black" points="806.294,-111.5 806.294,-129.5 955.141,-129.5 955.141,-111.5 806.294,-111.5"/>
<text text-anchor="middle" x="880.717" y="-117.5" font-family="Helvetica,sans-Serif" font-size="10.00">ocra::SecondOrderLinearTask</text>
</a>
</g>
</g>
<!-- Node0&#45;&gt;Node30 -->
<g id="edge30" class="edge"><title>Node0&#45;&gt;Node30</title>
<path fill="none" stroke="midnightblue" d="M724.516,-195.814C740.937,-178.773 768.737,-152.842 797.954,-138.5 805.391,-134.849 813.57,-131.932 821.792,-129.602"/>
<polygon fill="midnightblue" stroke="midnightblue" points="721.709,-193.691 717.413,-203.376 726.811,-198.484 721.709,-193.691"/>
</g>
<!-- Node31 -->
<g id="node32" class="node"><title>Node31</title>
<g id="a_node32"><a xlink:href="../../d0/d8f/classocra_1_1SumOfLinearFunctions.html" target="_top" xlink:title="ocra::SumOfLinearFunctions">
<polygon fill="white" stroke="black" points="809.077,-74.5 809.077,-92.5 952.357,-92.5 952.357,-74.5 809.077,-74.5"/>
<text text-anchor="middle" x="880.717" y="-80.5" font-family="Helvetica,sans-Serif" font-size="10.00">ocra::SumOfLinearFunctions</text>
</a>
</g>
</g>
<!-- Node0&#45;&gt;Node31 -->
<g id="edge31" class="edge"><title>Node0&#45;&gt;Node31</title>
<path fill="none" stroke="midnightblue" d="M718.764,-194.132C732.574,-169.07 760.798,-124.639 797.954,-101.5 803.876,-97.8119 810.452,-94.8741 817.229,-92.5348"/>
<polygon fill="midnightblue" stroke="midnightblue" points="715.503,-192.81 713.891,-203.281 721.681,-196.1 715.503,-192.81"/>
</g>
<!-- Node32 -->
<g id="node33" class="node"><title>Node32</title>
<g id="a_node33"><a xlink:href="../../dd/d3d/classocra_1_1TorqueLimitFunction.html" target="_top" xlink:title="Create a linear function that represents the torque limit function. ">
<polygon fill="white" stroke="black" points="815.19,-37.5 815.19,-55.5 946.244,-55.5 946.244,-37.5 815.19,-37.5"/>
<text text-anchor="middle" x="880.717" y="-43.5" font-family="Helvetica,sans-Serif" font-size="10.00">ocra::TorqueLimitFunction</text>
</a>
</g>
</g>
<!-- Node0&#45;&gt;Node32 -->
<g id="edge32" class="edge"><title>Node0&#45;&gt;Node32</title>
<path fill="none" stroke="midnightblue" d="M715.158,-193.608C725.953,-161.692 752.305,-97.371 797.954,-64.5 803.144,-60.7629 808.965,-57.7786 815.047,-55.3989"/>
<polygon fill="midnightblue" stroke="midnightblue" points="711.725,-192.849 711.982,-203.441 718.386,-195.001 711.725,-192.849"/>
</g>
<!-- Node33 -->
<g id="node34" class="node"><title>Node33</title>
<g id="a_node34"><a xlink:href="../../d7/d46/classocra_1_1VariableChiFunction.html" target="_top" xlink:title="ocra::VariableChiFunction">
<polygon fill="white" stroke="black" points="815.557,-0.5 815.557,-18.5 945.878,-18.5 945.878,-0.5 815.557,-0.5"/>
<text text-anchor="middle" x="880.717" y="-6.5" font-family="Helvetica,sans-Serif" font-size="10.00">ocra::VariableChiFunction</text>
</a>
</g>
</g>
<!-- Node0&#45;&gt;Node33 -->
<g id="edge33" class="edge"><title>Node0&#45;&gt;Node33</title>
<path fill="none" stroke="midnightblue" d="M712.816,-193.252C720.666,-155.266 743.59,-70.6117 797.954,-27.5 803.193,-23.3456 809.189,-20.103 815.501,-17.5787"/>
<polygon fill="midnightblue" stroke="midnightblue" points="709.307,-192.962 710.845,-203.445 716.18,-194.291 709.307,-192.962"/>
</g>
<!-- Node1 -->
<g id="node2" class="node"><title>Node1</title>
<g id="a_node2"><a xlink:href="../../d2/d99/classocra_1_1Function.html" target="_top" xlink:title="Function class. ">
<polygon fill="white" stroke="black" points="539.428,-203.5 539.428,-221.5 618.792,-221.5 618.792,-203.5 539.428,-203.5"/>
<text text-anchor="middle" x="579.11" y="-209.5" font-family="Helvetica,sans-Serif" font-size="10.00">ocra::Function</text>
</a>
</g>
</g>
<!-- Node1&#45;&gt;Node0 -->
<g id="edge1" class="edge"><title>Node1&#45;&gt;Node0</title>
<path fill="none" stroke="midnightblue" d="M629.011,-212.5C637.413,-212.5 646.178,-212.5 654.674,-212.5"/>
<polygon fill="midnightblue" stroke="midnightblue" points="628.985,-209 618.985,-212.5 628.984,-216 628.985,-209"/>
</g>
<!-- Node2 -->
<g id="node3" class="node"><title>Node2</title>
<g id="a_node3"><a xlink:href="../../d3/d16/classocra_1_1ObserverSubject.html" target="_top" xlink:title="ocra::ObserverSubject">
<polygon fill="white" stroke="black" points="363.785,-303.5 363.785,-321.5 479.272,-321.5 479.272,-303.5 363.785,-303.5"/>
<text text-anchor="middle" x="421.529" y="-309.5" font-family="Helvetica,sans-Serif" font-size="10.00">ocra::ObserverSubject</text>
</a>
</g>
</g>
<!-- Node2&#45;&gt;Node1 -->
<g id="edge2" class="edge"><title>Node2&#45;&gt;Node1</title>
<path fill="none" stroke="midnightblue" d="M489.159,-300.314C494.131,-298.37 498.948,-296.115 503.428,-293.5 535.145,-274.988 561.295,-238.681 572.388,-221.685"/>
<polygon fill="midnightblue" stroke="midnightblue" points="487.755,-297.097 479.457,-303.685 490.052,-303.71 487.755,-297.097"/>
</g>
<!-- Node3 -->
<g id="node4" class="node"><title>Node3</title>
<g id="a_node4"><a xlink:href="../../d2/d45/classocra_1_1Observer.html" target="_top" xlink:title="ocra::Observer">
<polygon fill="white" stroke="black" points="221.497,-350.5 221.497,-368.5 303.63,-368.5 303.63,-350.5 221.497,-350.5"/>
<text text-anchor="middle" x="262.563" y="-356.5" font-family="Helvetica,sans-Serif" font-size="10.00">ocra::Observer</text>
</a>
</g>
</g>
<!-- Node3&#45;&gt;Node2 -->
<g id="edge3" class="edge"><title>Node3&#45;&gt;Node2</title>
<path fill="none" stroke="midnightblue" d="M303.743,-347.469C330.736,-339.387 365.737,-328.906 390.357,-321.534"/>
<polygon fill="midnightblue" stroke="midnightblue" points="302.404,-344.216 293.828,-350.438 304.412,-350.922 302.404,-344.216"/>
</g>
<!-- Node4 -->
<g id="node5" class="node"><title>Node4</title>
<g id="a_node5"><a xlink:href="../../d4/dee/classocra_1_1ObserverBase.html" target="_top" xlink:title="ocra::ObserverBase\l\&lt; EVT_RESIZE \&gt;">
<polygon fill="white" stroke="black" points="40.2856,-416.5 40.2856,-444.5 145.211,-444.5 145.211,-416.5 40.2856,-416.5"/>
<text text-anchor="start" x="48.2856" y="-432.5" font-family="Helvetica,sans-Serif" font-size="10.00">ocra::ObserverBase</text>
<text text-anchor="middle" x="92.7485" y="-422.5" font-family="Helvetica,sans-Serif" font-size="10.00">&lt; EVT_RESIZE &gt;</text>
</a>
</g>
</g>
<!-- Node4&#45;&gt;Node3 -->
<g id="edge4" class="edge"><title>Node4&#45;&gt;Node3</title>
<path fill="none" stroke="midnightblue" d="M155.394,-417.918C165.632,-415.018 176.001,-411.563 185.497,-407.5 209.903,-397.058 235.439,-379.317 249.841,-368.576"/>
<polygon fill="midnightblue" stroke="midnightblue" points="154.402,-414.56 145.65,-420.531 156.215,-421.321 154.402,-414.56"/>
</g>
<!-- Node5 -->
<g id="node6" class="node"><title>Node5</title>
<g id="a_node6"><a xlink:href="../../d4/dee/classocra_1_1ObserverBase.html" target="_top" xlink:title="ocra::ObserverBase\l\&lt; EVT_CHANGE_DEPENDENCIES \&gt;">
<polygon fill="white" stroke="black" points="0,-369.5 0,-397.5 185.497,-397.5 185.497,-369.5 0,-369.5"/>
<text text-anchor="start" x="8" y="-385.5" font-family="Helvetica,sans-Serif" font-size="10.00">ocra::ObserverBase</text>
<text text-anchor="middle" x="92.7485" y="-375.5" font-family="Helvetica,sans-Serif" font-size="10.00">&lt; EVT_CHANGE_DEPENDENCIES &gt;</text>
</a>
</g>
</g>
<!-- Node5&#45;&gt;Node3 -->
<g id="edge5" class="edge"><title>Node5&#45;&gt;Node3</title>
<path fill="none" stroke="midnightblue" d="M195.441,-368.957C204.506,-367.66 213.28,-366.405 221.314,-365.256"/>
<polygon fill="midnightblue" stroke="midnightblue" points="194.916,-365.496 185.512,-370.376 195.907,-372.425 194.916,-365.496"/>
</g>
<!-- Node6 -->
<g id="node7" class="node"><title>Node6</title>
<g id="a_node7"><a xlink:href="../../d4/dee/classocra_1_1ObserverBase.html" target="_top" xlink:title="ocra::ObserverBase\l\&lt; EVT_CHANGE_VALUE \&gt;">
<polygon fill="white" stroke="black" points="23.4253,-322.5 23.4253,-350.5 162.072,-350.5 162.072,-322.5 23.4253,-322.5"/>
<text text-anchor="start" x="31.4253" y="-338.5" font-family="Helvetica,sans-Serif" font-size="10.00">ocra::ObserverBase</text>
<text text-anchor="middle" x="92.7485" y="-328.5" font-family="Helvetica,sans-Serif" font-size="10.00">&lt; EVT_CHANGE_VALUE &gt;</text>
</a>
</g>
</g>
<!-- Node6&#45;&gt;Node3 -->
<g id="edge6" class="edge"><title>Node6&#45;&gt;Node3</title>
<path fill="none" stroke="midnightblue" d="M172.838,-347.34C189.55,-349.63 206.517,-351.956 221.077,-353.951"/>
<polygon fill="midnightblue" stroke="midnightblue" points="172.872,-343.812 162.489,-345.921 171.922,-350.747 172.872,-343.812"/>
</g>
<!-- Node7 -->
<g id="node8" class="node"><title>Node7</title>
<g id="a_node8"><a xlink:href="../../dc/d77/classocra_1_1Subject.html" target="_top" xlink:title="ocra::Subject">
<polygon fill="white" stroke="black" points="225.381,-256.5 225.381,-274.5 299.746,-274.5 299.746,-256.5 225.381,-256.5"/>
<text text-anchor="middle" x="262.563" y="-262.5" font-family="Helvetica,sans-Serif" font-size="10.00">ocra::Subject</text>
</a>
</g>
</g>
<!-- Node7&#45;&gt;Node2 -->
<g id="edge7" class="edge"><title>Node7&#45;&gt;Node2</title>
<path fill="none" stroke="midnightblue" d="M295.309,-278.169C308.84,-283.312 324.88,-289.071 339.63,-293.5 351.789,-297.151 365.149,-300.537 377.446,-303.409"/>
<polygon fill="midnightblue" stroke="midnightblue" points="296.543,-274.894 285.953,-274.561 294.024,-281.425 296.543,-274.894"/>
</g>
<!-- Node8 -->
<g id="node9" class="node"><title>Node8</title>
<g id="a_node9"><a xlink:href="../../dc/d29/classocra_1_1SubjectBase.html" target="_top" xlink:title="ocra::SubjectBase\&lt;\l EVT_RESIZE \&gt;">
<polygon fill="white" stroke="black" points="41.25,-275.5 41.25,-303.5 144.247,-303.5 144.247,-275.5 41.25,-275.5"/>
<text text-anchor="start" x="49.25" y="-291.5" font-family="Helvetica,sans-Serif" font-size="10.00">ocra::SubjectBase&lt;</text>
<text text-anchor="middle" x="92.7485" y="-281.5" font-family="Helvetica,sans-Serif" font-size="10.00"> EVT_RESIZE &gt;</text>
</a>
</g>
</g>
<!-- Node8&#45;&gt;Node7 -->
<g id="edge8" class="edge"><title>Node8&#45;&gt;Node7</title>
<path fill="none" stroke="midnightblue" d="M154.534,-280.807C178.262,-277.413 204.665,-273.637 225.31,-270.685"/>
<polygon fill="midnightblue" stroke="midnightblue" points="153.958,-277.354 144.554,-282.234 154.949,-284.283 153.958,-277.354"/>
</g>
<!-- Node9 -->
<g id="node10" class="node"><title>Node9</title>
<g id="a_node10"><a xlink:href="../../dc/d29/classocra_1_1SubjectBase.html" target="_top" xlink:title="ocra::SubjectBase\&lt;\l EVT_CHANGE_DEPENDENCIES \&gt;">
<polygon fill="white" stroke="black" points="2.91992,-228.5 2.91992,-256.5 182.577,-256.5 182.577,-228.5 2.91992,-228.5"/>
<text text-anchor="start" x="10.9199" y="-244.5" font-family="Helvetica,sans-Serif" font-size="10.00">ocra::SubjectBase&lt;</text>
<text text-anchor="middle" x="92.7485" y="-234.5" font-family="Helvetica,sans-Serif" font-size="10.00"> EVT_CHANGE_DEPENDENCIES &gt;</text>
</a>
</g>
</g>
<!-- Node9&#45;&gt;Node7 -->
<g id="edge9" class="edge"><title>Node9&#45;&gt;Node7</title>
<path fill="none" stroke="midnightblue" d="M193.112,-256.118C204.461,-257.674 215.419,-259.176 225.116,-260.505"/>
<polygon fill="midnightblue" stroke="midnightblue" points="193.443,-252.631 183.061,-254.741 192.493,-259.566 193.443,-252.631"/>
</g>
<!-- Node10 -->
<g id="node11" class="node"><title>Node10</title>
<g id="a_node11"><a xlink:href="../../dc/d29/classocra_1_1SubjectBase.html" target="_top" xlink:title="ocra::SubjectBase\&lt;\l EVT_CHANGE_VALUE \&gt;">
<polygon fill="white" stroke="black" points="26.3452,-181.5 26.3452,-209.5 159.152,-209.5 159.152,-181.5 26.3452,-181.5"/>
<text text-anchor="start" x="34.3452" y="-197.5" font-family="Helvetica,sans-Serif" font-size="10.00">ocra::SubjectBase&lt;</text>
<text text-anchor="middle" x="92.7485" y="-187.5" font-family="Helvetica,sans-Serif" font-size="10.00"> EVT_CHANGE_VALUE &gt;</text>
</a>
</g>
</g>
<!-- Node10&#45;&gt;Node7 -->
<g id="edge10" class="edge"><title>Node10&#45;&gt;Node7</title>
<path fill="none" stroke="midnightblue" d="M168.869,-212.291C174.566,-214.182 180.167,-216.249 185.497,-218.5 209.665,-228.705 235.074,-245.919 249.553,-256.441"/>
<polygon fill="midnightblue" stroke="midnightblue" points="169.813,-208.919 159.224,-209.274 167.723,-215.6 169.813,-208.919"/>
</g>
<!-- Node11 -->
<g id="node12" class="node"><title>Node11</title>
<g id="a_node12"><a xlink:href="../../dd/d68/classocra_1_1IFunctionProperties.html" target="_top" xlink:title="ocra::IFunctionProperties">
<polygon fill="white" stroke="black" points="357.669,-266.5 357.669,-284.5 485.388,-284.5 485.388,-266.5 357.669,-266.5"/>
<text text-anchor="middle" x="421.529" y="-272.5" font-family="Helvetica,sans-Serif" font-size="10.00">ocra::IFunctionProperties</text>
</a>
</g>
</g>
<!-- Node11&#45;&gt;Node1 -->
<g id="edge11" class="edge"><title>Node11&#45;&gt;Node1</title>
<path fill="none" stroke="midnightblue" d="M481.442,-263.873C488.951,-261.75 496.445,-259.301 503.428,-256.5 526.612,-247.198 551.131,-231.459 565.505,-221.542"/>
<polygon fill="midnightblue" stroke="midnightblue" points="480.375,-260.535 471.605,-266.479 482.168,-267.301 480.375,-260.535"/>
</g>
<!-- Node12 -->
<g id="node13" class="node"><title>Node12</title>
<polygon fill="white" stroke="#bfbfbf" points="339.63,-219.5 339.63,-247.5 503.428,-247.5 503.428,-219.5 339.63,-219.5"/>
<text text-anchor="start" x="347.63" y="-235.5" font-family="Helvetica,sans-Serif" font-size="10.00">OCRA_FUNCTION_INTERFACE</text>
<text text-anchor="middle" x="421.529" y="-225.5" font-family="Helvetica,sans-Serif" font-size="10.00">_INHERITANCEpublic</text>
</g>
<!-- Node12&#45;&gt;Node1 -->
<g id="edge12" class="edge"><title>Node12&#45;&gt;Node1</title>
<path fill="none" stroke="#8b1a1a" d="M513.634,-221.203C522.535,-220.001 531.196,-218.832 539.133,-217.761"/>
<polygon fill="#8b1a1a" stroke="#8b1a1a" points="512.951,-217.763 503.509,-222.569 513.888,-224.7 512.951,-217.763"/>
</g>
<!-- Node13 -->
<g id="node14" class="node"><title>Node13</title>
<g id="a_node14"><a xlink:href="../../db/de3/classocra_1_1NamedInstance.html" target="_top" xlink:title="ocra::NamedInstance">
<polygon fill="white" stroke="black" points="366.004,-182.5 366.004,-200.5 477.053,-200.5 477.053,-182.5 366.004,-182.5"/>
<text text-anchor="middle" x="421.529" y="-188.5" font-family="Helvetica,sans-Serif" font-size="10.00">ocra::NamedInstance</text>
</a>
</g>
</g>
<!-- Node13&#45;&gt;Node1 -->
<g id="edge13" class="edge"><title>Node13&#45;&gt;Node1</title>
<path fill="none" stroke="midnightblue" d="M487.616,-200.285C505.224,-202.662 523.724,-205.159 539.375,-207.272"/>
<polygon fill="midnightblue" stroke="midnightblue" points="487.759,-196.773 477.381,-198.904 486.823,-203.71 487.759,-196.773"/>
</g>
<!-- Node14 -->
<g id="node15" class="node"><title>Node14</title>
<g id="a_node15"><a xlink:href="../../d8/d24/classocra_1_1AbilitySet.html" target="_top" xlink:title="ocra::AbilitySet">
<polygon fill="white" stroke="black" points="380.182,-145.5 380.182,-163.5 462.876,-163.5 462.876,-145.5 380.182,-145.5"/>
<text text-anchor="middle" x="421.529" y="-151.5" font-family="Helvetica,sans-Serif" font-size="10.00">ocra::AbilitySet</text>
</a>
</g>
</g>
<!-- Node14&#45;&gt;Node1 -->
<g id="edge14" class="edge"><title>Node14&#45;&gt;Node1</title>
<path fill="none" stroke="midnightblue" d="M473.099,-163.521C483.289,-165.958 493.816,-168.933 503.428,-172.5 525.629,-180.738 549.444,-194.435 564.061,-203.467"/>
<polygon fill="midnightblue" stroke="midnightblue" points="473.593,-160.044 463.068,-161.261 472.054,-166.873 473.593,-160.044"/>
</g>
<!-- Node15 -->
<g id="node16" class="node"><title>Node15</title>
<g id="a_node16"><a xlink:href="../../d5/dc0/classocra_1_1CoupledInputOutputSize.html" target="_top" xlink:title="ocra::CoupledInputOutputSize">
<polygon fill="white" stroke="black" points="346.542,-108.5 346.542,-126.5 496.516,-126.5 496.516,-108.5 346.542,-108.5"/>
<text text-anchor="middle" x="421.529" y="-114.5" font-family="Helvetica,sans-Serif" font-size="10.00">ocra::CoupledInputOutputSize</text>
</a>
</g>
</g>
<!-- Node15&#45;&gt;Node1 -->
<g id="edge15" class="edge"><title>Node15&#45;&gt;Node1</title>
<path fill="none" stroke="midnightblue" d="M491.855,-130.015C495.864,-131.627 499.754,-133.446 503.428,-135.5 534.474,-152.858 560.766,-187.177 572.115,-203.486"/>
<polygon fill="midnightblue" stroke="midnightblue" points="492.924,-126.68 482.329,-126.618 490.573,-133.274 492.924,-126.68"/>
</g>
<!-- Node17 -->
<g id="node18" class="node"><title>Node17</title>
<g id="a_node18"><a xlink:href="../../da/d90/classocra_1_1FullContactAvoidanceFunction.html" target="_top" xlink:title="Create a linear function that represents the contact avoidance function for the full formalism...">
<polygon fill="white" stroke="black" points="1011.44,-474.5 1011.44,-502.5 1149.55,-502.5 1149.55,-474.5 1011.44,-474.5"/>
<text text-anchor="start" x="1019.44" y="-490.5" font-family="Helvetica,sans-Serif" font-size="10.00">ocra::FullContactAvoidance</text>
<text text-anchor="middle" x="1080.49" y="-480.5" font-family="Helvetica,sans-Serif" font-size="10.00">Function</text>
</a>
</g>
</g>
<!-- Node16&#45;&gt;Node17 -->
<g id="edge17" class="edge"><title>Node16&#45;&gt;Node17</title>
<path fill="none" stroke="midnightblue" d="M929.937,-452.959C957.225,-459.444 991.565,-467.604 1020.46,-474.47"/>
<polygon fill="midnightblue" stroke="midnightblue" points="930.389,-449.469 919.85,-450.562 928.77,-456.279 930.389,-449.469"/>
</g>
<!-- Node18 -->
<g id="node19" class="node"><title>Node18</title>
<g id="a_node19"><a xlink:href="../../db/d40/classocra_1_1ReducedContactAvoidanceFunction.html" target="_top" xlink:title="Create a linear function that represents the contact avoidance function for the reduced formalism...">
<polygon fill="white" stroke="black" points="999.48,-427.5 999.48,-455.5 1161.51,-455.5 1161.51,-427.5 999.48,-427.5"/>
<text text-anchor="start" x="1007.48" y="-443.5" font-family="Helvetica,sans-Serif" font-size="10.00">ocra::ReducedContactAvoidance</text>
<text text-anchor="middle" x="1080.49" y="-433.5" font-family="Helvetica,sans-Serif" font-size="10.00">Function</text>
</a>
</g>
</g>
<!-- Node16&#45;&gt;Node18 -->
<g id="edge18" class="edge"><title>Node16&#45;&gt;Node18</title>
<path fill="none" stroke="midnightblue" d="M971.117,-441.5C980.478,-441.5 989.954,-441.5 999.204,-441.5"/>
<polygon fill="midnightblue" stroke="midnightblue" points="971.021,-438 961.021,-441.5 971.021,-445 971.021,-438"/>
</g>
<!-- Node20 -->
<g id="node21" class="node"><title>Node20</title>
<g id="a_node21"><a xlink:href="../../dd/d77/classocra_1_1BoundFunction.html" target="_top" xlink:title="BoundFunction class. ">
<polygon fill="white" stroke="black" points="1026.35,-390.5 1026.35,-408.5 1134.63,-408.5 1134.63,-390.5 1026.35,-390.5"/>
<text text-anchor="middle" x="1080.49" y="-396.5" font-family="Helvetica,sans-Serif" font-size="10.00">ocra::BoundFunction</text>
</a>
</g>
</g>
<!-- Node19&#45;&gt;Node20 -->
<g id="edge20" class="edge"><title>Node19&#45;&gt;Node20</title>
<path fill="none" stroke="midnightblue" d="M964.398,-399.5C985.291,-399.5 1007.18,-399.5 1026.18,-399.5"/>
<polygon fill="midnightblue" stroke="midnightblue" points="964.239,-396 954.239,-399.5 964.239,-403 964.239,-396"/>
</g>
<!-- Node21 -->
<g id="node22" class="node"><title>Node21</title>
<g id="a_node22"><a xlink:href="../../d4/d58/classocra_1_1IdentityFunction.html" target="_top" xlink:title="IdentityFunction class. ">
<polygon fill="white" stroke="black" points="1024.69,-353.5 1024.69,-371.5 1136.3,-371.5 1136.3,-353.5 1024.69,-353.5"/>
<text text-anchor="middle" x="1080.49" y="-359.5" font-family="Helvetica,sans-Serif" font-size="10.00">ocra::IdentityFunction</text>
</a>
</g>
</g>
<!-- Node19&#45;&gt;Node21 -->
<g id="edge21" class="edge"><title>Node19&#45;&gt;Node21</title>
<path fill="none" stroke="midnightblue" d="M939.857,-388.623C968.888,-383.192 1003.6,-376.699 1031.15,-371.544"/>
<polygon fill="midnightblue" stroke="midnightblue" points="939.032,-385.217 929.846,-390.496 940.319,-392.097 939.032,-385.217"/>
</g>
<!-- Node26 -->
<g id="node27" class="node"><title>Node26</title>
<g id="a_node27"><a xlink:href="../../df/d42/classocra_1_1FullJointLimitFunction.html" target="_top" xlink:title="Create a linear function that represents the joint limit function for the full formalism. ">
<polygon fill="white" stroke="black" points="1011.64,-241.5 1011.64,-259.5 1149.35,-259.5 1149.35,-241.5 1011.64,-241.5"/>
<text text-anchor="middle" x="1080.49" y="-247.5" font-family="Helvetica,sans-Serif" font-size="10.00">ocra::FullJointLimitFunction</text>
</a>
</g>
</g>
<!-- Node25&#45;&gt;Node26 -->
<g id="edge26" class="edge"><title>Node25&#45;&gt;Node26</title>
<path fill="none" stroke="midnightblue" d="M951.601,-238.214C971.06,-240.083 992.162,-242.11 1011.51,-243.969"/>
<polygon fill="midnightblue" stroke="midnightblue" points="951.882,-234.725 941.593,-237.252 951.213,-241.693 951.882,-234.725"/>
</g>
<!-- Node27 -->
<g id="node28" class="node"><title>Node27</title>
<g id="a_node28"><a xlink:href="../../dc/daa/classocra_1_1ReducedJointLimitFunction.html" target="_top" xlink:title="Create a linear function that represents the joint limit function for the reduced formalism...">
<polygon fill="white" stroke="black" points="999.678,-204.5 999.678,-222.5 1161.31,-222.5 1161.31,-204.5 999.678,-204.5"/>
<text text-anchor="middle" x="1080.49" y="-210.5" font-family="Helvetica,sans-Serif" font-size="10.00">ocra::ReducedJointLimitFunction</text>
</a>
</g>
</g>
<!-- Node25&#45;&gt;Node27 -->
<g id="edge27" class="edge"><title>Node25&#45;&gt;Node27</title>
<path fill="none" stroke="midnightblue" d="M951.585,-225.141C967.043,-223.734 983.54,-222.233 999.371,-220.792"/>
<polygon fill="midnightblue" stroke="midnightblue" points="951.235,-221.658 941.593,-226.051 951.869,-228.63 951.235,-221.658"/>
</g>
</g>
</svg>
