<?xml version="1.0" encoding="UTF-8" standalone="no"?>
<!DOCTYPE svg PUBLIC "-//W3C//DTD SVG 1.1//EN"
 "http://www.w3.org/Graphics/SVG/1.1/DTD/svg11.dtd">
<!-- Generated by graphviz version 2.38.0 (20140413.2041)
 -->
<!-- Title: PartialState.cpp Pages: 1 -->
<svg width="1859pt" height="377pt"
 viewBox="0.00 0.00 1858.63 377.00" xmlns="http://www.w3.org/2000/svg" xmlns:xlink="http://www.w3.org/1999/xlink">
<g id="graph0" class="graph" transform="scale(1 1) rotate(0) translate(4 373)">
<title>PartialState.cpp</title>
<polygon fill="white" stroke="none" points="-4,4 -4,-373 1854.63,-373 1854.63,4 -4,4"/>
<!-- Node0 -->
<g id="node1" class="node"><title>Node0</title>
<polygon fill="#bfbfbf" stroke="black" points="182.717,-350.5 182.717,-368.5 269.312,-368.5 269.312,-350.5 182.717,-350.5"/>
<text text-anchor="middle" x="226.015" y="-356.5" font-family="Helvetica,sans-Serif" font-size="10.00">PartialState.cpp</text>
</g>
<!-- Node1 -->
<g id="node2" class="node"><title>Node1</title>
<g id="a_node2"><a xlink:href="../../d9/daf/PartialState_8h.html" target="_top" xlink:title="Define partial state classes that can be used to control some joints of the robot. ">
<polygon fill="white" stroke="black" points="160.485,-295.5 160.485,-313.5 291.544,-313.5 291.544,-295.5 160.485,-295.5"/>
<text text-anchor="middle" x="226.015" y="-301.5" font-family="Helvetica,sans-Serif" font-size="10.00">ocra/control/PartialState.h</text>
</a>
</g>
</g>
<!-- Node0&#45;&gt;Node1 -->
<g id="edge1" class="edge"><title>Node0&#45;&gt;Node1</title>
<path fill="none" stroke="midnightblue" d="M226.015,-350.219C226.015,-343.177 226.015,-332.808 226.015,-323.828"/>
<polygon fill="midnightblue" stroke="midnightblue" points="229.515,-323.55 226.015,-313.55 222.515,-323.55 229.515,-323.55"/>
</g>
<!-- Node35 -->
<g id="node36" class="node"><title>Node35</title>
<polygon fill="white" stroke="#bfbfbf" points="1154.84,-185.5 1154.84,-203.5 1209.19,-203.5 1209.19,-185.5 1154.84,-185.5"/>
<text text-anchor="middle" x="1182.01" y="-191.5" font-family="Helvetica,sans-Serif" font-size="10.00">iostream</text>
</g>
<!-- Node0&#45;&gt;Node35 -->
<g id="edge59" class="edge"><title>Node0&#45;&gt;Node35</title>
<path fill="none" stroke="midnightblue" d="M269.779,-352.192C401.03,-333.051 802.886,-272.84 1144.7,-204.166"/>
<polygon fill="midnightblue" stroke="midnightblue" points="1145.43,-207.589 1154.54,-202.183 1144.04,-200.727 1145.43,-207.589"/>
</g>
<!-- Node37 -->
<g id="node38" class="node"><title>Node37</title>
<g id="a_node38"><a xlink:href="../../da/dfc/FullState_8h.html" target="_top" xlink:title="ocra/control/FullState.h">
<polygon fill="white" stroke="black" points="41.6011,-240.5 41.6011,-258.5 160.428,-258.5 160.428,-240.5 41.6011,-240.5"/>
<text text-anchor="middle" x="101.015" y="-246.5" font-family="Helvetica,sans-Serif" font-size="10.00">ocra/control/FullState.h</text>
</a>
</g>
</g>
<!-- Node0&#45;&gt;Node37 -->
<g id="edge54" class="edge"><title>Node0&#45;&gt;Node37</title>
<path fill="none" stroke="midnightblue" d="M208.445,-350.409C192.435,-342.518 168.663,-329.468 151.015,-314 135.239,-300.173 120.837,-280.84 111.584,-267.147"/>
<polygon fill="midnightblue" stroke="midnightblue" points="114.459,-265.148 106.048,-258.705 108.605,-268.987 114.459,-265.148"/>
</g>
<!-- Node2 -->
<g id="node3" class="node"><title>Node2</title>
<g id="a_node3"><a xlink:href="../../df/d97/NamedInstance_8h.html" target="_top" xlink:title="ocra/optim/NamedInstance.h">
<polygon fill="white" stroke="black" points="279.094,-185.5 279.094,-203.5 422.936,-203.5 422.936,-185.5 279.094,-185.5"/>
<text text-anchor="middle" x="351.015" y="-191.5" font-family="Helvetica,sans-Serif" font-size="10.00">ocra/optim/NamedInstance.h</text>
</a>
</g>
</g>
<!-- Node1&#45;&gt;Node2 -->
<g id="edge2" class="edge"><title>Node1&#45;&gt;Node2</title>
<path fill="none" stroke="midnightblue" d="M235.41,-295.382C256.313,-277.322 306.927,-233.591 333.717,-210.445"/>
<polygon fill="midnightblue" stroke="midnightblue" points="336.232,-212.898 341.51,-203.712 331.655,-207.601 336.232,-212.898"/>
</g>
<!-- Node4 -->
<g id="node5" class="node"><title>Node4</title>
<g id="a_node5"><a xlink:href="../../d3/d5a/Model_8h.html" target="_top" xlink:title="Declaration file of the Model class. ">
<polygon fill="white" stroke="black" points="693.714,-240.5 693.714,-258.5 800.315,-258.5 800.315,-240.5 693.714,-240.5"/>
<text text-anchor="middle" x="747.015" y="-246.5" font-family="Helvetica,sans-Serif" font-size="10.00">ocra/control/Model.h</text>
</a>
</g>
</g>
<!-- Node1&#45;&gt;Node4 -->
<g id="edge4" class="edge"><title>Node1&#45;&gt;Node4</title>
<path fill="none" stroke="midnightblue" d="M291.736,-296.814C392.531,-286.561 584.039,-267.079 683.495,-256.962"/>
<polygon fill="midnightblue" stroke="midnightblue" points="684.106,-260.418 693.7,-255.924 683.397,-253.454 684.106,-260.418"/>
</g>
<!-- Node30 -->
<g id="node31" class="node"><title>Node30</title>
<polygon fill="white" stroke="#bfbfbf" points="0,-130.5 0,-148.5 66.0293,-148.5 66.0293,-130.5 0,-130.5"/>
<text text-anchor="middle" x="33.0146" y="-136.5" font-family="Helvetica,sans-Serif" font-size="10.00">Eigen/Core</text>
</g>
<!-- Node1&#45;&gt;Node30 -->
<g id="edge52" class="edge"><title>Node1&#45;&gt;Node30</title>
<path fill="none" stroke="midnightblue" d="M160.407,-297.054C110.888,-290.674 48.8578,-278.912 33.0146,-259 10.0291,-230.112 19.2674,-183.498 26.8481,-158.203"/>
<polygon fill="midnightblue" stroke="midnightblue" points="30.2391,-159.092 29.9949,-148.5 23.5806,-156.933 30.2391,-159.092"/>
</g>
<!-- Node31 -->
<g id="node32" class="node"><title>Node31</title>
<polygon fill="white" stroke="#bfbfbf" points="84.0322,-130.5 84.0322,-148.5 193.997,-148.5 193.997,-130.5 84.0322,-130.5"/>
<text text-anchor="middle" x="139.015" y="-136.5" font-family="Helvetica,sans-Serif" font-size="10.00">boost/shared_ptr.hpp</text>
</g>
<!-- Node1&#45;&gt;Node31 -->
<g id="edge53" class="edge"><title>Node1&#45;&gt;Node31</title>
<path fill="none" stroke="midnightblue" d="M219.056,-295.265C205.531,-278.886 175.492,-240.635 158.015,-204 151.04,-189.38 145.991,-171.639 142.859,-158.629"/>
<polygon fill="midnightblue" stroke="midnightblue" points="146.214,-157.597 140.599,-148.612 139.385,-159.137 146.214,-157.597"/>
</g>
<!-- Node32 -->
<g id="node33" class="node"><title>Node32</title>
<g id="a_node33"><a xlink:href="../../df/d0a/Macros_8h.html" target="_top" xlink:title="ocra/util/Macros.h">
<polygon fill="white" stroke="black" points="166.557,-185.5 166.557,-203.5 261.473,-203.5 261.473,-185.5 166.557,-185.5"/>
<text text-anchor="middle" x="214.015" y="-191.5" font-family="Helvetica,sans-Serif" font-size="10.00">ocra/util/Macros.h</text>
</a>
</g>
</g>
<!-- Node1&#45;&gt;Node32 -->
<g id="edge51" class="edge"><title>Node1&#45;&gt;Node32</title>
<path fill="none" stroke="midnightblue" d="M225.113,-295.382C223.202,-278.182 218.703,-237.698 216.058,-213.887"/>
<polygon fill="midnightblue" stroke="midnightblue" points="219.51,-213.264 214.927,-203.712 212.553,-214.037 219.51,-213.264"/>
</g>
<!-- Node3 -->
<g id="node4" class="node"><title>Node3</title>
<polygon fill="white" stroke="#bfbfbf" points="691.788,-130.5 691.788,-148.5 732.241,-148.5 732.241,-130.5 691.788,-130.5"/>
<text text-anchor="middle" x="712.015" y="-136.5" font-family="Helvetica,sans-Serif" font-size="10.00">string</text>
</g>
<!-- Node2&#45;&gt;Node3 -->
<g id="edge3" class="edge"><title>Node2&#45;&gt;Node3</title>
<path fill="none" stroke="midnightblue" d="M405.843,-185.45C482.876,-174.141 620.536,-153.93 681.509,-144.979"/>
<polygon fill="midnightblue" stroke="midnightblue" points="682.247,-148.408 691.633,-143.492 681.23,-141.482 682.247,-148.408"/>
</g>
<!-- Node4&#45;&gt;Node2 -->
<g id="edge40" class="edge"><title>Node4&#45;&gt;Node2</title>
<path fill="none" stroke="midnightblue" d="M693.608,-241.352C623.196,-231.928 499.142,-215.325 421.211,-204.895"/>
<polygon fill="midnightblue" stroke="midnightblue" points="421.378,-201.386 411.002,-203.529 420.45,-208.324 421.378,-201.386"/>
</g>
<!-- Node4&#45;&gt;Node3 -->
<g id="edge48" class="edge"><title>Node4&#45;&gt;Node3</title>
<path fill="none" stroke="midnightblue" d="M766.935,-240.405C791.157,-229.325 827.053,-208.152 812.015,-185 803.938,-172.565 768.545,-158.753 742.142,-149.865"/>
<polygon fill="midnightblue" stroke="midnightblue" points="743.132,-146.506 732.539,-146.713 740.949,-153.157 743.132,-146.506"/>
</g>
<!-- Node5 -->
<g id="node6" class="node"><title>Node5</title>
<g id="a_node6"><a xlink:href="../../d5/d55/MathTypes_8h.html" target="_top" xlink:title="Declaration file of the OptimizationVariable class. ">
<polygon fill="white" stroke="black" points="859.49,-185.5 859.49,-203.5 970.539,-203.5 970.539,-185.5 859.49,-185.5"/>
<text text-anchor="middle" x="915.015" y="-191.5" font-family="Helvetica,sans-Serif" font-size="10.00">ocra/util/MathTypes.h</text>
</a>
</g>
</g>
<!-- Node4&#45;&gt;Node5 -->
<g id="edge5" class="edge"><title>Node4&#45;&gt;Node5</title>
<path fill="none" stroke="midnightblue" d="M772.53,-240.45C801.106,-231.436 847.608,-216.765 879.672,-206.65"/>
<polygon fill="midnightblue" stroke="midnightblue" points="881.051,-209.885 889.535,-203.538 878.945,-203.209 881.051,-209.885"/>
</g>
<!-- Node8 -->
<g id="node9" class="node"><title>Node8</title>
<g id="a_node9"><a xlink:href="../../d8/ddc/ObserverSubject_8h.html" target="_top" xlink:title="Declaration file of the Observer, Subject and ObserverSubject classes. ">
<polygon fill="white" stroke="black" points="902.875,-130.5 902.875,-148.5 1051.15,-148.5 1051.15,-130.5 902.875,-130.5"/>
<text text-anchor="middle" x="977.015" y="-136.5" font-family="Helvetica,sans-Serif" font-size="10.00">ocra/optim/ObserverSubject.h</text>
</a>
</g>
</g>
<!-- Node4&#45;&gt;Node8 -->
<g id="edge8" class="edge"><title>Node4&#45;&gt;Node8</title>
<path fill="none" stroke="midnightblue" d="M800.408,-245.959C861.996,-241.779 957.672,-231.014 980.015,-204 990.44,-191.395 987.788,-172.099 983.706,-158.087"/>
<polygon fill="midnightblue" stroke="midnightblue" points="987.017,-156.951 980.5,-148.599 980.386,-159.193 987.017,-156.951"/>
</g>
<!-- Node19 -->
<g id="node20" class="node"><title>Node19</title>
<g id="a_node20"><a xlink:href="../../d7/d90/Variable_8h.html" target="_top" xlink:title="Declaration file of the Variable class. ">
<polygon fill="white" stroke="black" points="1027.14,-185.5 1027.14,-203.5 1136.89,-203.5 1136.89,-185.5 1027.14,-185.5"/>
<text text-anchor="middle" x="1082.01" y="-191.5" font-family="Helvetica,sans-Serif" font-size="10.00">ocra/optim/Variable.h</text>
</a>
</g>
</g>
<!-- Node4&#45;&gt;Node19 -->
<g id="edge22" class="edge"><title>Node4&#45;&gt;Node19</title>
<path fill="none" stroke="midnightblue" d="M797.894,-240.45C857.835,-230.967 957.332,-215.226 1021.26,-205.111"/>
<polygon fill="midnightblue" stroke="midnightblue" points="1021.88,-208.558 1031.21,-203.538 1020.78,-201.644 1021.88,-208.558"/>
</g>
<!-- Node29 -->
<g id="node30" class="node"><title>Node29</title>
<g id="a_node30"><a xlink:href="../../d9/d5d/ModelContacts_8h.html" target="_top" xlink:title="Declaration file of the ModelContacts class. ">
<polygon fill="white" stroke="black" points="440.983,-185.5 440.983,-203.5 587.046,-203.5 587.046,-185.5 440.983,-185.5"/>
<text text-anchor="middle" x="514.015" y="-191.5" font-family="Helvetica,sans-Serif" font-size="10.00">ocra/control/ModelContacts.h</text>
</a>
</g>
</g>
<!-- Node4&#45;&gt;Node29 -->
<g id="edge41" class="edge"><title>Node4&#45;&gt;Node29</title>
<path fill="none" stroke="midnightblue" d="M711.627,-240.45C670.88,-231.182 603.852,-215.935 559.325,-205.807"/>
<polygon fill="midnightblue" stroke="midnightblue" points="559.88,-202.344 549.353,-203.538 558.327,-209.169 559.88,-202.344"/>
</g>
<!-- Node4&#45;&gt;Node32 -->
<g id="edge45" class="edge"><title>Node4&#45;&gt;Node32</title>
<path fill="none" stroke="midnightblue" d="M693.612,-244.528C607.115,-237.872 430.785,-223.385 271.622,-204.136"/>
<polygon fill="midnightblue" stroke="midnightblue" points="271.998,-200.656 261.648,-202.921 271.151,-207.605 271.998,-200.656"/>
</g>
<!-- Node34 -->
<g id="node35" class="node"><title>Node34</title>
<polygon fill="white" stroke="#bfbfbf" points="604.611,-185.5 604.611,-203.5 673.418,-203.5 673.418,-185.5 604.611,-185.5"/>
<text text-anchor="middle" x="639.015" y="-191.5" font-family="Helvetica,sans-Serif" font-size="10.00">Eigen/Lgsm</text>
</g>
<!-- Node4&#45;&gt;Node34 -->
<g id="edge47" class="edge"><title>Node4&#45;&gt;Node34</title>
<path fill="none" stroke="midnightblue" d="M730.612,-240.45C713.088,-231.851 685.077,-218.105 664.64,-208.075"/>
<polygon fill="midnightblue" stroke="midnightblue" points="666.091,-204.889 655.572,-203.625 663.007,-211.173 666.091,-204.889"/>
</g>
<!-- Node4&#45;&gt;Node35 -->
<g id="edge49" class="edge"><title>Node4&#45;&gt;Node35</title>
<path fill="none" stroke="midnightblue" d="M800.548,-244.597C875.445,-238.68 1015.89,-225.928 1144.54,-204.068"/>
<polygon fill="midnightblue" stroke="midnightblue" points="1145.31,-207.487 1154.57,-202.341 1144.12,-200.589 1145.31,-207.487"/>
</g>
<!-- Node36 -->
<g id="node37" class="node"><title>Node36</title>
<polygon fill="white" stroke="#bfbfbf" points="691.209,-185.5 691.209,-203.5 802.82,-203.5 802.82,-185.5 691.209,-185.5"/>
<text text-anchor="middle" x="747.015" y="-191.5" font-family="Helvetica,sans-Serif" font-size="10.00">yarp/os/Semaphore.h</text>
</g>
<!-- Node4&#45;&gt;Node36 -->
<g id="edge50" class="edge"><title>Node4&#45;&gt;Node36</title>
<path fill="none" stroke="midnightblue" d="M747.015,-240.219C747.015,-233.177 747.015,-222.808 747.015,-213.828"/>
<polygon fill="midnightblue" stroke="midnightblue" points="750.515,-213.55 747.015,-203.55 743.515,-213.55 750.515,-213.55"/>
</g>
<!-- Node6 -->
<g id="node7" class="node"><title>Node6</title>
<polygon fill="white" stroke="#bfbfbf" points="811.384,-130.5 811.384,-148.5 884.645,-148.5 884.645,-130.5 811.384,-130.5"/>
<text text-anchor="middle" x="848.015" y="-136.5" font-family="Helvetica,sans-Serif" font-size="10.00">Eigen/Dense</text>
</g>
<!-- Node5&#45;&gt;Node6 -->
<g id="edge6" class="edge"><title>Node5&#45;&gt;Node6</title>
<path fill="none" stroke="midnightblue" d="M904.839,-185.45C894.607,-177.357 878.612,-164.704 866.196,-154.882"/>
<polygon fill="midnightblue" stroke="midnightblue" points="868.301,-152.084 858.286,-148.625 863.958,-157.574 868.301,-152.084"/>
</g>
<!-- Node7 -->
<g id="node8" class="node"><title>Node7</title>
<polygon fill="white" stroke="#bfbfbf" points="750.399,-130.5 750.399,-148.5 793.63,-148.5 793.63,-130.5 750.399,-130.5"/>
<text text-anchor="middle" x="772.015" y="-136.5" font-family="Helvetica,sans-Serif" font-size="10.00">cmath</text>
</g>
<!-- Node5&#45;&gt;Node7 -->
<g id="edge7" class="edge"><title>Node5&#45;&gt;Node7</title>
<path fill="none" stroke="midnightblue" d="M893.296,-185.45C869.358,-176.578 830.642,-162.229 803.404,-152.134"/>
<polygon fill="midnightblue" stroke="midnightblue" points="804.531,-148.819 793.938,-148.625 802.098,-155.383 804.531,-148.819"/>
</g>
<!-- Node9 -->
<g id="node10" class="node"><title>Node9</title>
<g id="a_node10"><a xlink:href="../../df/d67/ObserverSubjectBase_8h.html" target="_top" xlink:title="Declaration file of the Observer and Subject base classes. ">
<polygon fill="white" stroke="black" points="625.044,-65.5 625.044,-93.5 764.985,-93.5 764.985,-65.5 625.044,-65.5"/>
<text text-anchor="start" x="633.044" y="-81.5" font-family="Helvetica,sans-Serif" font-size="10.00">ocra/optim/ObserverSubject</text>
<text text-anchor="middle" x="695.015" y="-71.5" font-family="Helvetica,sans-Serif" font-size="10.00">Base.h</text>
</a>
</g>
</g>
<!-- Node8&#45;&gt;Node9 -->
<g id="edge9" class="edge"><title>Node8&#45;&gt;Node9</title>
<path fill="none" stroke="midnightblue" d="M938.1,-130.496C894.432,-121.515 822.608,-106.743 768.329,-95.5788"/>
<polygon fill="midnightblue" stroke="midnightblue" points="768.909,-92.1249 758.409,-93.5385 767.499,-98.9814 768.909,-92.1249"/>
</g>
<!-- Node13 -->
<g id="node14" class="node"><title>Node13</title>
<polygon fill="white" stroke="#bfbfbf" points="429.328,-0.5 429.328,-28.5 528.702,-28.5 528.702,-0.5 429.328,-0.5"/>
<text text-anchor="start" x="437.328" y="-16.5" font-family="Helvetica,sans-Serif" font-size="10.00">boost/type_traits/is</text>
<text text-anchor="middle" x="479.015" y="-6.5" font-family="Helvetica,sans-Serif" font-size="10.00">_class.hpp</text>
</g>
<!-- Node8&#45;&gt;Node13 -->
<g id="edge21" class="edge"><title>Node8&#45;&gt;Node13</title>
<path fill="none" stroke="midnightblue" d="M906.125,-130.49C804.902,-118.947 629.589,-98.5207 616.015,-94 574.422,-80.1479 531.331,-52.9684 504.846,-34.5182"/>
<polygon fill="midnightblue" stroke="midnightblue" points="506.71,-31.5499 496.526,-28.6277 502.665,-37.2629 506.71,-31.5499"/>
</g>
<!-- Node14 -->
<g id="node15" class="node"><title>Node14</title>
<polygon fill="white" stroke="#bfbfbf" points="838.328,-0.5 838.328,-28.5 937.702,-28.5 937.702,-0.5 838.328,-0.5"/>
<text text-anchor="start" x="846.328" y="-16.5" font-family="Helvetica,sans-Serif" font-size="10.00">boost/type_traits/is</text>
<text text-anchor="middle" x="888.015" y="-6.5" font-family="Helvetica,sans-Serif" font-size="10.00">_base_of.hpp</text>
</g>
<!-- Node8&#45;&gt;Node14 -->
<g id="edge19" class="edge"><title>Node8&#45;&gt;Node14</title>
<path fill="none" stroke="midnightblue" d="M919.098,-130.436C877.001,-123.25 825.186,-111.194 812.015,-94 794.811,-71.5414 823.446,-48.6078 850.35,-33.3751"/>
<polygon fill="midnightblue" stroke="midnightblue" points="852.207,-36.3505 859.339,-28.5162 848.878,-30.1925 852.207,-36.3505"/>
</g>
<!-- Node15 -->
<g id="node16" class="node"><title>Node15</title>
<polygon fill="white" stroke="#bfbfbf" points="955.596,-5.5 955.596,-23.5 1074.43,-23.5 1074.43,-5.5 955.596,-5.5"/>
<text text-anchor="middle" x="1015.01" y="-11.5" font-family="Helvetica,sans-Serif" font-size="10.00">boost/static_assert.hpp</text>
</g>
<!-- Node8&#45;&gt;Node15 -->
<g id="edge18" class="edge"><title>Node8&#45;&gt;Node15</title>
<path fill="none" stroke="midnightblue" d="M978.824,-130.256C981.898,-116.569 988.543,-88.3481 996.015,-65 999.439,-54.2987 1003.92,-42.5488 1007.67,-33.183"/>
<polygon fill="midnightblue" stroke="midnightblue" points="1010.96,-34.3861 1011.49,-23.8049 1004.47,-31.7411 1010.96,-34.3861"/>
</g>
<!-- Node17 -->
<g id="node18" class="node"><title>Node17</title>
<g id="a_node18"><a xlink:href="../../db/ddf/ocra__events_8h.html" target="_top" xlink:title="ocra/optim/ocra_events.h">
<polygon fill="white" stroke="black" points="820.875,-70.5 820.875,-88.5 949.155,-88.5 949.155,-70.5 820.875,-70.5"/>
<text text-anchor="middle" x="885.015" y="-76.5" font-family="Helvetica,sans-Serif" font-size="10.00">ocra/optim/ocra_events.h</text>
</a>
</g>
</g>
<!-- Node8&#45;&gt;Node17 -->
<g id="edge17" class="edge"><title>Node8&#45;&gt;Node17</title>
<path fill="none" stroke="midnightblue" d="M964.222,-130.435C949.339,-121.052 924.523,-105.408 906.631,-94.1277"/>
<polygon fill="midnightblue" stroke="midnightblue" points="908.321,-91.0554 897.995,-88.6831 904.587,-96.9769 908.321,-91.0554"/>
</g>
<!-- Node18 -->
<g id="node19" class="node"><title>Node18</title>
<polygon fill="white" stroke="#bfbfbf" points="1005.33,-65.5 1005.33,-93.5 1104.7,-93.5 1104.7,-65.5 1005.33,-65.5"/>
<text text-anchor="start" x="1013.33" y="-81.5" font-family="Helvetica,sans-Serif" font-size="10.00">boost/type_traits/is</text>
<text text-anchor="middle" x="1055.01" y="-71.5" font-family="Helvetica,sans-Serif" font-size="10.00">_convertible.hpp</text>
</g>
<!-- Node8&#45;&gt;Node18 -->
<g id="edge20" class="edge"><title>Node8&#45;&gt;Node18</title>
<path fill="none" stroke="midnightblue" d="M987.86,-130.435C998.468,-122.548 1015.03,-110.236 1029.04,-99.8109"/>
<polygon fill="midnightblue" stroke="midnightblue" points="1031.43,-102.396 1037.37,-93.6203 1027.26,-96.7788 1031.43,-102.396"/>
</g>
<!-- Node10 -->
<g id="node11" class="node"><title>Node10</title>
<polygon fill="white" stroke="#bfbfbf" points="665.611,-5.5 665.611,-23.5 724.418,-23.5 724.418,-5.5 665.611,-5.5"/>
<text text-anchor="middle" x="695.015" y="-11.5" font-family="Helvetica,sans-Serif" font-size="10.00">functional</text>
</g>
<!-- Node9&#45;&gt;Node10 -->
<g id="edge10" class="edge"><title>Node9&#45;&gt;Node10</title>
<path fill="none" stroke="midnightblue" d="M695.015,-65.4464C695.015,-56.3336 695.015,-44.0406 695.015,-33.9308"/>
<polygon fill="midnightblue" stroke="midnightblue" points="698.515,-33.7301 695.015,-23.7301 691.515,-33.7301 698.515,-33.7301"/>
</g>
<!-- Node11 -->
<g id="node12" class="node"><title>Node11</title>
<polygon fill="white" stroke="#bfbfbf" points="1136.45,-5.5 1136.45,-23.5 1193.58,-23.5 1193.58,-5.5 1136.45,-5.5"/>
<text text-anchor="middle" x="1165.01" y="-11.5" font-family="Helvetica,sans-Serif" font-size="10.00">algorithm</text>
</g>
<!-- Node9&#45;&gt;Node11 -->
<g id="edge11" class="edge"><title>Node9&#45;&gt;Node11</title>
<path fill="none" stroke="midnightblue" d="M765.212,-70.321C843.01,-61.0758 972.144,-45.1934 1083.01,-29 1097.12,-26.9396 1112.55,-24.4585 1126.19,-22.1884"/>
<polygon fill="midnightblue" stroke="midnightblue" points="1126.93,-25.6128 1136.21,-20.504 1125.77,-18.7096 1126.93,-25.6128"/>
</g>
<!-- Node12 -->
<g id="node13" class="node"><title>Node12</title>
<polygon fill="white" stroke="#bfbfbf" points="741.97,-5.5 741.97,-23.5 820.06,-23.5 820.06,-5.5 741.97,-5.5"/>
<text text-anchor="middle" x="781.015" y="-11.5" font-family="Helvetica,sans-Serif" font-size="10.00">boost/any.hpp</text>
</g>
<!-- Node9&#45;&gt;Node12 -->
<g id="edge12" class="edge"><title>Node9&#45;&gt;Node12</title>
<path fill="none" stroke="midnightblue" d="M712.834,-65.4464C727.094,-55 747.059,-40.3747 761.699,-29.6496"/>
<polygon fill="midnightblue" stroke="midnightblue" points="764.03,-32.2811 770.029,-23.548 759.893,-26.6341 764.03,-32.2811"/>
</g>
<!-- Node9&#45;&gt;Node13 -->
<g id="edge13" class="edge"><title>Node9&#45;&gt;Node13</title>
<path fill="none" stroke="midnightblue" d="M650.259,-65.4464C616.374,-55.5632 569.664,-41.9394 533.587,-31.4169"/>
<polygon fill="midnightblue" stroke="midnightblue" points="534.293,-27.977 523.713,-28.5369 532.333,-34.697 534.293,-27.977"/>
</g>
<!-- Node9&#45;&gt;Node14 -->
<g id="edge14" class="edge"><title>Node9&#45;&gt;Node14</title>
<path fill="none" stroke="midnightblue" d="M735.004,-65.4464C765.023,-55.6477 806.305,-42.1721 838.425,-31.6874"/>
<polygon fill="midnightblue" stroke="midnightblue" points="839.656,-34.9673 848.076,-28.5369 837.484,-28.3129 839.656,-34.9673"/>
</g>
<!-- Node9&#45;&gt;Node15 -->
<g id="edge15" class="edge"><title>Node9&#45;&gt;Node15</title>
<path fill="none" stroke="midnightblue" d="M761.609,-65.4571C812.416,-55.497 884.137,-41.4171 947.015,-29 952.764,-27.8647 958.785,-26.6729 964.768,-25.4872"/>
<polygon fill="midnightblue" stroke="midnightblue" points="965.617,-28.8871 974.746,-23.5086 964.256,-22.0208 965.617,-28.8871"/>
</g>
<!-- Node16 -->
<g id="node17" class="node"><title>Node16</title>
<polygon fill="white" stroke="#bfbfbf" points="546.209,-0.5 546.209,-28.5 647.82,-28.5 647.82,-0.5 546.209,-0.5"/>
<text text-anchor="start" x="554.209" y="-16.5" font-family="Helvetica,sans-Serif" font-size="10.00">boost/ptr_container</text>
<text text-anchor="middle" x="597.015" y="-6.5" font-family="Helvetica,sans-Serif" font-size="10.00">/ptr_vector.hpp</text>
</g>
<!-- Node9&#45;&gt;Node16 -->
<g id="edge16" class="edge"><title>Node9&#45;&gt;Node16</title>
<path fill="none" stroke="midnightblue" d="M674.709,-65.4464C660.649,-56.4079 641.723,-44.241 626.07,-34.1787"/>
<polygon fill="midnightblue" stroke="midnightblue" points="627.599,-31.0004 617.294,-28.5369 623.813,-36.8887 627.599,-31.0004"/>
</g>
<!-- Node19&#45;&gt;Node3 -->
<g id="edge38" class="edge"><title>Node19&#45;&gt;Node3</title>
<path fill="none" stroke="midnightblue" d="M1026.94,-188.967C961.211,-182.968 847.894,-170.764 742.368,-149.001"/>
<polygon fill="midnightblue" stroke="midnightblue" points="743.015,-145.561 732.51,-146.935 741.579,-152.412 743.015,-145.561"/>
</g>
<!-- Node19&#45;&gt;Node8 -->
<g id="edge23" class="edge"><title>Node19&#45;&gt;Node8</title>
<path fill="none" stroke="midnightblue" d="M1066.07,-185.45C1049.11,-176.89 1022.04,-163.229 1002.2,-153.212"/>
<polygon fill="midnightblue" stroke="midnightblue" points="1003.62,-150.007 993.112,-148.625 1000.46,-156.256 1003.62,-150.007"/>
</g>
<!-- Node20 -->
<g id="node21" class="node"><title>Node20</title>
<g id="a_node21"><a xlink:href="../../d1/de6/Composite_8h.html" target="_top" xlink:title="Utility classes and functions to implement the Composite design pattern. ">
<polygon fill="white" stroke="black" points="1242.21,-130.5 1242.21,-148.5 1363.81,-148.5 1363.81,-130.5 1242.21,-130.5"/>
<text text-anchor="middle" x="1303.01" y="-136.5" font-family="Helvetica,sans-Serif" font-size="10.00">ocra/optim/Composite.h</text>
</a>
</g>
</g>
<!-- Node19&#45;&gt;Node20 -->
<g id="edge24" class="edge"><title>Node19&#45;&gt;Node20</title>
<path fill="none" stroke="midnightblue" d="M1115.58,-185.45C1154.15,-176.201 1217.54,-160.999 1259.77,-150.871"/>
<polygon fill="midnightblue" stroke="midnightblue" points="1260.59,-154.274 1269.5,-148.538 1258.96,-147.467 1260.59,-154.274"/>
</g>
<!-- Node23 -->
<g id="node24" class="node"><title>Node23</title>
<polygon fill="white" stroke="#bfbfbf" points="1670.31,-70.5 1670.31,-88.5 1789.72,-88.5 1789.72,-70.5 1670.31,-70.5"/>
<text text-anchor="middle" x="1730.01" y="-76.5" font-family="Helvetica,sans-Serif" font-size="10.00">boost/noncopyable.hpp</text>
</g>
<!-- Node19&#45;&gt;Node23 -->
<g id="edge37" class="edge"><title>Node19&#45;&gt;Node23</title>
<path fill="none" stroke="midnightblue" d="M1137.09,-185.697C1195.68,-177.251 1291.04,-163.091 1373.01,-149 1501.44,-126.925 1533.07,-118.733 1661.01,-94 1666.85,-92.872 1672.96,-91.6848 1679.03,-90.5017"/>
<polygon fill="midnightblue" stroke="midnightblue" points="1680.01,-93.8765 1689.16,-88.5256 1678.67,-87.0062 1680.01,-93.8765"/>
</g>
<!-- Node25 -->
<g id="node26" class="node"><title>Node25</title>
<polygon fill="white" stroke="#bfbfbf" points="1807.4,-70.5 1807.4,-88.5 1850.63,-88.5 1850.63,-70.5 1807.4,-70.5"/>
<text text-anchor="middle" x="1829.01" y="-76.5" font-family="Helvetica,sans-Serif" font-size="10.00">vector</text>
</g>
<!-- Node19&#45;&gt;Node25 -->
<g id="edge39" class="edge"><title>Node19&#45;&gt;Node25</title>
<path fill="none" stroke="midnightblue" d="M1137.17,-186.139C1140.16,-185.751 1143.12,-185.369 1146.01,-185 1436.68,-147.903 1518.01,-177.072 1799.01,-94 1800.49,-93.5649 1801.98,-93.0723 1803.47,-92.5392"/>
<polygon fill="midnightblue" stroke="midnightblue" points="1805.18,-95.6219 1813.13,-88.6109 1802.55,-89.1382 1805.18,-95.6219"/>
</g>
<!-- Node28 -->
<g id="node29" class="node"><title>Node28</title>
<polygon fill="white" stroke="#bfbfbf" points="1069.05,-130.5 1069.05,-148.5 1138.98,-148.5 1138.98,-130.5 1069.05,-130.5"/>
<text text-anchor="middle" x="1104.01" y="-136.5" font-family="Helvetica,sans-Serif" font-size="10.00">Eigen/Eigen</text>
</g>
<!-- Node19&#45;&gt;Node28 -->
<g id="edge36" class="edge"><title>Node19&#45;&gt;Node28</title>
<path fill="none" stroke="midnightblue" d="M1085.45,-185.219C1088.47,-177.942 1092.97,-167.113 1096.78,-157.934"/>
<polygon fill="midnightblue" stroke="midnightblue" points="1100.07,-159.127 1100.67,-148.55 1093.61,-156.444 1100.07,-159.127"/>
</g>
<!-- Node20&#45;&gt;Node11 -->
<g id="edge33" class="edge"><title>Node20&#45;&gt;Node11</title>
<path fill="none" stroke="midnightblue" d="M1285.48,-130.37C1269.49,-122.454 1245.73,-109.386 1228.01,-94 1206.84,-75.6119 1187.45,-49.4248 1175.93,-32.4456"/>
<polygon fill="midnightblue" stroke="midnightblue" points="1178.55,-30.0496 1170.11,-23.6412 1172.71,-33.9123 1178.55,-30.0496"/>
</g>
<!-- Node20&#45;&gt;Node14 -->
<g id="edge29" class="edge"><title>Node20&#45;&gt;Node14</title>
<path fill="none" stroke="midnightblue" d="M1254.83,-130.498C1222.87,-123.84 1180.76,-112.411 1147.01,-94 1129.87,-84.649 1131.45,-73.7843 1114.01,-65 1048.99,-32.2419 1023.26,-44.3503 947.853,-29.0762"/>
<polygon fill="midnightblue" stroke="midnightblue" points="948.407,-25.6158 937.898,-26.9605 946.952,-32.4629 948.407,-25.6158"/>
</g>
<!-- Node20&#45;&gt;Node15 -->
<g id="edge28" class="edge"><title>Node20&#45;&gt;Node15</title>
<path fill="none" stroke="midnightblue" d="M1282.17,-130.498C1260.75,-122.081 1226.59,-108.121 1198.01,-94 1174.64,-82.4487 1170.63,-76.0568 1147.01,-65 1114.98,-49.9996 1077.04,-36.1586 1050.08,-26.9494"/>
<polygon fill="midnightblue" stroke="midnightblue" points="1050.91,-23.5365 1040.31,-23.654 1048.67,-30.1688 1050.91,-23.5365"/>
</g>
<!-- Node20&#45;&gt;Node18 -->
<g id="edge30" class="edge"><title>Node20&#45;&gt;Node18</title>
<path fill="none" stroke="midnightblue" d="M1268.79,-130.496C1229.09,-121.212 1162.94,-105.741 1114.72,-94.463"/>
<polygon fill="midnightblue" stroke="midnightblue" points="1115.25,-90.9932 1104.72,-92.1239 1113.66,-97.8092 1115.25,-90.9932"/>
</g>
<!-- Node21 -->
<g id="node22" class="node"><title>Node21</title>
<g id="a_node22"><a xlink:href="../../de/df3/ocra__assert_8h.html" target="_top" xlink:title="ocra/optim/ocra_assert.h">
<polygon fill="white" stroke="black" points="1525.99,-70.5 1525.99,-88.5 1652.04,-88.5 1652.04,-70.5 1525.99,-70.5"/>
<text text-anchor="middle" x="1589.01" y="-76.5" font-family="Helvetica,sans-Serif" font-size="10.00">ocra/optim/ocra_assert.h</text>
</a>
</g>
</g>
<!-- Node20&#45;&gt;Node21 -->
<g id="edge25" class="edge"><title>Node20&#45;&gt;Node21</title>
<path fill="none" stroke="midnightblue" d="M1342.48,-130.496C1393.84,-120.081 1483.59,-101.879 1539.47,-90.5473"/>
<polygon fill="midnightblue" stroke="midnightblue" points="1540.39,-93.9325 1549.49,-88.5147 1539,-87.0721 1540.39,-93.9325"/>
</g>
<!-- Node20&#45;&gt;Node23 -->
<g id="edge27" class="edge"><title>Node20&#45;&gt;Node23</title>
<path fill="none" stroke="midnightblue" d="M1364.01,-132.225C1435.4,-124.578 1557.11,-110.601 1661.01,-94 1667.66,-92.939 1674.63,-91.7094 1681.5,-90.4329"/>
<polygon fill="midnightblue" stroke="midnightblue" points="1682.25,-93.8528 1691.42,-88.5433 1680.94,-86.9765 1682.25,-93.8528"/>
</g>
<!-- Node24 -->
<g id="node25" class="node"><title>Node24</title>
<polygon fill="white" stroke="#bfbfbf" points="1237.48,-65.5 1237.48,-93.5 1368.55,-93.5 1368.55,-65.5 1237.48,-65.5"/>
<text text-anchor="start" x="1245.48" y="-81.5" font-family="Helvetica,sans-Serif" font-size="10.00">boost/type_traits/has</text>
<text text-anchor="middle" x="1303.01" y="-71.5" font-family="Helvetica,sans-Serif" font-size="10.00">_nothrow_constructor.hpp</text>
</g>
<!-- Node20&#45;&gt;Node24 -->
<g id="edge31" class="edge"><title>Node20&#45;&gt;Node24</title>
<path fill="none" stroke="midnightblue" d="M1303.01,-130.435C1303.01,-123.56 1303.01,-113.324 1303.01,-103.906"/>
<polygon fill="midnightblue" stroke="midnightblue" points="1306.51,-103.843 1303.01,-93.8428 1299.51,-103.843 1306.51,-103.843"/>
</g>
<!-- Node20&#45;&gt;Node25 -->
<g id="edge32" class="edge"><title>Node20&#45;&gt;Node25</title>
<path fill="none" stroke="midnightblue" d="M1364.06,-139.488C1458.78,-139.587 1646.17,-134.033 1799.01,-94 1800.72,-93.5523 1802.46,-93.0156 1804.19,-92.4181"/>
<polygon fill="midnightblue" stroke="midnightblue" points="1805.85,-95.5215 1813.8,-88.5247 1803.22,-89.0331 1805.85,-95.5215"/>
</g>
<!-- Node26 -->
<g id="node27" class="node"><title>Node26</title>
<polygon fill="white" stroke="#bfbfbf" points="1386.84,-70.5 1386.84,-88.5 1431.19,-88.5 1431.19,-70.5 1386.84,-70.5"/>
<text text-anchor="middle" x="1409.01" y="-76.5" font-family="Helvetica,sans-Serif" font-size="10.00">iosfwd</text>
</g>
<!-- Node20&#45;&gt;Node26 -->
<g id="edge34" class="edge"><title>Node20&#45;&gt;Node26</title>
<path fill="none" stroke="midnightblue" d="M1317.75,-130.435C1335.22,-120.88 1364.55,-104.832 1385.24,-93.5113"/>
<polygon fill="midnightblue" stroke="midnightblue" points="1386.97,-96.5537 1394.06,-88.6831 1383.61,-90.4129 1386.97,-96.5537"/>
</g>
<!-- Node27 -->
<g id="node28" class="node"><title>Node27</title>
<polygon fill="white" stroke="#bfbfbf" points="1449.61,-70.5 1449.61,-88.5 1508.42,-88.5 1508.42,-70.5 1449.61,-70.5"/>
<text text-anchor="middle" x="1479.01" y="-76.5" font-family="Helvetica,sans-Serif" font-size="10.00">stdexcept</text>
</g>
<!-- Node20&#45;&gt;Node27 -->
<g id="edge35" class="edge"><title>Node20&#45;&gt;Node27</title>
<path fill="none" stroke="midnightblue" d="M1328.31,-130.443C1355.84,-121.638 1401.13,-107.044 1440.01,-94 1442.11,-93.2964 1444.27,-92.5662 1446.45,-91.826"/>
<polygon fill="midnightblue" stroke="midnightblue" points="1447.62,-95.1237 1455.94,-88.5684 1445.35,-88.5024 1447.62,-95.1237"/>
</g>
<!-- Node22 -->
<g id="node23" class="node"><title>Node22</title>
<polygon fill="white" stroke="#bfbfbf" points="1567.95,-5.5 1567.95,-23.5 1610.08,-23.5 1610.08,-5.5 1567.95,-5.5"/>
<text text-anchor="middle" x="1589.01" y="-11.5" font-family="Helvetica,sans-Serif" font-size="10.00">cstdio</text>
</g>
<!-- Node21&#45;&gt;Node22 -->
<g id="edge26" class="edge"><title>Node21&#45;&gt;Node22</title>
<path fill="none" stroke="midnightblue" d="M1589.01,-70.2639C1589.01,-61.0635 1589.01,-45.881 1589.01,-33.8326"/>
<polygon fill="midnightblue" stroke="midnightblue" points="1592.51,-33.5389 1589.01,-23.539 1585.51,-33.539 1592.51,-33.5389"/>
</g>
<!-- Node29&#45;&gt;Node8 -->
<g id="edge42" class="edge"><title>Node29&#45;&gt;Node8</title>
<path fill="none" stroke="midnightblue" d="M584.083,-185.479C668.184,-175.852 808.886,-159.746 897.128,-149.645"/>
<polygon fill="midnightblue" stroke="midnightblue" points="897.553,-153.119 907.09,-148.504 896.757,-146.164 897.553,-153.119"/>
</g>
<!-- Node29&#45;&gt;Node30 -->
<g id="edge43" class="edge"><title>Node29&#45;&gt;Node30</title>
<path fill="none" stroke="midnightblue" d="M440.698,-185.89C437.765,-185.589 434.862,-185.291 432.015,-185 276.624,-169.111 234.411,-172.687 76.5048,-149.092"/>
<polygon fill="midnightblue" stroke="midnightblue" points="76.8422,-145.604 66.4322,-147.574 75.7988,-152.526 76.8422,-145.604"/>
</g>
<!-- Node29&#45;&gt;Node31 -->
<g id="edge44" class="edge"><title>Node29&#45;&gt;Node31</title>
<path fill="none" stroke="midnightblue" d="M457.06,-185.45C389.1,-175.845 275.715,-159.82 204.282,-149.724"/>
<polygon fill="midnightblue" stroke="midnightblue" points="204.449,-146.213 194.058,-148.279 203.469,-153.144 204.449,-146.213"/>
</g>
<!-- Node33 -->
<g id="node34" class="node"><title>Node33</title>
<polygon fill="white" stroke="#bfbfbf" points="211.958,-130.5 211.958,-148.5 264.071,-148.5 264.071,-130.5 211.958,-130.5"/>
<text text-anchor="middle" x="238.015" y="-136.5" font-family="Helvetica,sans-Serif" font-size="10.00">memory</text>
</g>
<!-- Node32&#45;&gt;Node33 -->
<g id="edge46" class="edge"><title>Node32&#45;&gt;Node33</title>
<path fill="none" stroke="midnightblue" d="M217.765,-185.219C221.06,-177.942 225.963,-167.113 230.12,-157.934"/>
<polygon fill="midnightblue" stroke="midnightblue" points="233.433,-159.103 234.37,-148.55 227.056,-156.215 233.433,-159.103"/>
</g>
<!-- Node37&#45;&gt;Node2 -->
<g id="edge55" class="edge"><title>Node37&#45;&gt;Node2</title>
<path fill="none" stroke="midnightblue" d="M138.984,-240.45C182.98,-231.123 255.532,-215.742 303.3,-205.615"/>
<polygon fill="midnightblue" stroke="midnightblue" points="304.041,-209.036 313.098,-203.538 302.59,-202.188 304.041,-209.036"/>
</g>
<!-- Node37&#45;&gt;Node30 -->
<g id="edge57" class="edge"><title>Node37&#45;&gt;Node30</title>
<path fill="none" stroke="midnightblue" d="M95.9036,-240.382C84.8277,-222.791 58.4175,-180.846 43.5857,-157.289"/>
<polygon fill="midnightblue" stroke="midnightblue" points="46.475,-155.309 38.185,-148.712 40.5514,-159.039 46.475,-155.309"/>
</g>
<!-- Node37&#45;&gt;Node31 -->
<g id="edge58" class="edge"><title>Node37&#45;&gt;Node31</title>
<path fill="none" stroke="midnightblue" d="M103.871,-240.382C109.978,-223.026 124.427,-181.96 132.772,-158.241"/>
<polygon fill="midnightblue" stroke="midnightblue" points="136.108,-159.307 136.125,-148.712 129.505,-156.983 136.108,-159.307"/>
</g>
<!-- Node37&#45;&gt;Node32 -->
<g id="edge56" class="edge"><title>Node37&#45;&gt;Node32</title>
<path fill="none" stroke="midnightblue" d="M118.177,-240.45C136.595,-231.812 166.085,-217.98 187.493,-207.94"/>
<polygon fill="midnightblue" stroke="midnightblue" points="189.123,-211.041 196.691,-203.625 186.151,-204.703 189.123,-211.041"/>
</g>
</g>
</svg>
