<?xml version="1.0" encoding="UTF-8" standalone="no"?>
<!DOCTYPE svg PUBLIC "-//W3C//DTD SVG 1.1//EN"
 "http://www.w3.org/Graphics/SVG/1.1/DTD/svg11.dtd">
<!-- Generated by graphviz version 2.38.0 (20140413.2041)
 -->
<!-- Title: gOcraTaskManagerCollectionBase.h Pages: 1 -->
<svg width="155pt" height="102pt"
 viewBox="0.00 0.00 155.17 102.00" xmlns="http://www.w3.org/2000/svg" xmlns:xlink="http://www.w3.org/1999/xlink">
<g id="graph0" class="graph" transform="scale(1 1) rotate(0) translate(4 98)">
<title>gOcraTaskManagerCollectionBase.h</title>
<polygon fill="white" stroke="none" points="-4,4 -4,-98 151.172,-98 151.172,4 -4,4"/>
<!-- Node113 -->
<g id="node1" class="node"><title>Node113</title>
<polygon fill="#bfbfbf" stroke="black" points="0,-65.5 0,-93.5 147.172,-93.5 147.172,-65.5 0,-65.5"/>
<text text-anchor="start" x="8" y="-81.5" font-family="Helvetica,sans-Serif" font-size="10.00">gOcraTaskManagerCollection</text>
<text text-anchor="middle" x="73.5859" y="-71.5" font-family="Helvetica,sans-Serif" font-size="10.00">Base.h</text>
</g>
<!-- Node114 -->
<g id="node2" class="node"><title>Node114</title>
<g id="a_node2"><a xlink:href="../../de/d9f/gOcraTaskManagerCollectionBase_8cpp.html" target="_top" xlink:title="gOcraTaskManagerCollection\lBase.cpp">
<polygon fill="white" stroke="black" points="0,-0.5 0,-28.5 147.172,-28.5 147.172,-0.5 0,-0.5"/>
<text text-anchor="start" x="8" y="-16.5" font-family="Helvetica,sans-Serif" font-size="10.00">gOcraTaskManagerCollection</text>
<text text-anchor="middle" x="73.5859" y="-6.5" font-family="Helvetica,sans-Serif" font-size="10.00">Base.cpp</text>
</a>
</g>
</g>
<!-- Node113&#45;&gt;Node114 -->
<g id="edge1" class="edge"><title>Node113&#45;&gt;Node114</title>
<path fill="none" stroke="midnightblue" d="M73.5859,-55.1641C73.5859,-46.1693 73.5859,-36.2205 73.5859,-28.5369"/>
<polygon fill="midnightblue" stroke="midnightblue" points="70.086,-55.4463 73.5859,-65.4464 77.086,-55.4464 70.086,-55.4463"/>
</g>
</g>
</svg>
