<?xml version="1.0" encoding="UTF-8" standalone="no"?>
<!DOCTYPE svg PUBLIC "-//W3C//DTD SVG 1.1//EN"
 "http://www.w3.org/Graphics/SVG/1.1/DTD/svg11.dtd">
<!-- Generated by graphviz version 2.38.0 (20140413.2041)
 -->
<!-- Title: ocra::TaskBuilderOptions Pages: 1 -->
<svg width="156pt" height="142pt"
 viewBox="0.00 0.00 155.90 142.00" xmlns="http://www.w3.org/2000/svg" xmlns:xlink="http://www.w3.org/1999/xlink">
<g id="graph0" class="graph" transform="scale(1 1) rotate(0) translate(4 138)">
<title>ocra::TaskBuilderOptions</title>
<polygon fill="white" stroke="none" points="-4,4 -4,-138 151.897,-138 151.897,4 -4,4"/>
<!-- Node1 -->
<g id="node1" class="node"><title>Node1</title>
<polygon fill="#bfbfbf" stroke="black" points="0,-0.5 0,-18.5 127.162,-18.5 127.162,-0.5 0,-0.5"/>
<text text-anchor="middle" x="63.5811" y="-6.5" font-family="Helvetica,sans-Serif" font-size="10.00">ocra::TaskBuilderOptions</text>
</g>
<!-- Node2 -->
<g id="node2" class="node"><title>Node2</title>
<polygon fill="white" stroke="#bfbfbf" points="35.2881,-115.5 35.2881,-133.5 91.874,-133.5 91.874,-115.5 35.2881,-115.5"/>
<text text-anchor="middle" x="63.5811" y="-121.5" font-family="Helvetica,sans-Serif" font-size="10.00">VectorXd</text>
</g>
<!-- Node2&#45;&gt;Node1 -->
<g id="edge1" class="edge"><title>Node2&#45;&gt;Node1</title>
<path fill="none" stroke="#9a32cd" stroke-dasharray="5,2" d="M63.5811,-105.071C63.5811,-80.0731 63.5811,-36.4819 63.5811,-18.553"/>
<polygon fill="#9a32cd" stroke="#9a32cd" points="60.0812,-105.373 63.5811,-115.373 67.0812,-105.373 60.0812,-105.373"/>
<text text-anchor="middle" x="105.739" y="-89" font-family="Helvetica,sans-Serif" font-size="10.00"> nameDesired</text>
<text text-anchor="middle" x="105.739" y="-79" font-family="Helvetica,sans-Serif" font-size="10.00">indexDesired</text>
<text text-anchor="middle" x="105.739" y="-69" font-family="Helvetica,sans-Serif" font-size="10.00">desired</text>
<text text-anchor="middle" x="105.739" y="-59" font-family="Helvetica,sans-Serif" font-size="10.00">indexWeightVector</text>
<text text-anchor="middle" x="105.739" y="-49" font-family="Helvetica,sans-Serif" font-size="10.00">weightVector</text>
<text text-anchor="middle" x="105.739" y="-39" font-family="Helvetica,sans-Serif" font-size="10.00">nameWeightVector</text>
</g>
</g>
</svg>
