<?xml version="1.0" encoding="UTF-8" standalone="no"?>
<!DOCTYPE svg PUBLIC "-//W3C//DTD SVG 1.1//EN"
 "http://www.w3.org/Graphics/SVG/1.1/DTD/svg11.dtd">
<!-- Generated by graphviz version 2.38.0 (20140413.2041)
 -->
<!-- Title: ClientCommunications.cpp Pages: 1 -->
<svg width="1663pt" height="202pt"
 viewBox="0.00 0.00 1662.61 202.00" xmlns="http://www.w3.org/2000/svg" xmlns:xlink="http://www.w3.org/1999/xlink">
<g id="graph0" class="graph" transform="scale(1 1) rotate(0) translate(4 198)">
<title>ClientCommunications.cpp</title>
<polygon fill="white" stroke="none" points="-4,4 -4,-198 1658.61,-198 1658.61,4 -4,4"/>
<!-- Node0 -->
<g id="node1" class="node"><title>Node0</title>
<polygon fill="#bfbfbf" stroke="black" points="626.259,-175.5 626.259,-193.5 761.2,-193.5 761.2,-175.5 626.259,-175.5"/>
<text text-anchor="middle" x="693.729" y="-181.5" font-family="Helvetica,sans-Serif" font-size="10.00">ClientCommunications.cpp</text>
</g>
<!-- Node1 -->
<g id="node2" class="node"><title>Node1</title>
<g id="a_node2"><a xlink:href="../../d0/ddc/ClientCommunications_8h.html" target="_top" xlink:title="ocra&#45;recipes/ClientCommunications.h">
<polygon fill="white" stroke="black" points="602.641,-120.5 602.641,-138.5 784.818,-138.5 784.818,-120.5 602.641,-120.5"/>
<text text-anchor="middle" x="693.729" y="-126.5" font-family="Helvetica,sans-Serif" font-size="10.00">ocra&#45;recipes/ClientCommunications.h</text>
</a>
</g>
</g>
<!-- Node0&#45;&gt;Node1 -->
<g id="edge1" class="edge"><title>Node0&#45;&gt;Node1</title>
<path fill="none" stroke="midnightblue" d="M693.729,-175.219C693.729,-168.177 693.729,-157.808 693.729,-148.828"/>
<polygon fill="midnightblue" stroke="midnightblue" points="697.23,-148.55 693.729,-138.55 690.23,-148.55 697.23,-148.55"/>
</g>
<!-- Node2 -->
<g id="node3" class="node"><title>Node2</title>
<polygon fill="white" stroke="#bfbfbf" points="57.5571,-0.5 57.5571,-18.5 111.902,-18.5 111.902,-0.5 57.5571,-0.5"/>
<text text-anchor="middle" x="84.7295" y="-6.5" font-family="Helvetica,sans-Serif" font-size="10.00">iostream</text>
</g>
<!-- Node1&#45;&gt;Node2 -->
<g id="edge2" class="edge"><title>Node1&#45;&gt;Node2</title>
<path fill="none" stroke="midnightblue" d="M602.549,-124.706C487.048,-119.051 294.948,-106.576 227.729,-84 204.462,-76.1852 202.347,-66.6263 180.729,-55 158.446,-43.0156 132.353,-31.0459 112.999,-22.5441"/>
<polygon fill="midnightblue" stroke="midnightblue" points="114.383,-19.3295 103.817,-18.5485 111.59,-25.7481 114.383,-19.3295"/>
</g>
<!-- Node3 -->
<g id="node4" class="node"><title>Node3</title>
<polygon fill="white" stroke="#bfbfbf" points="730.673,-0.5 730.673,-18.5 782.786,-18.5 782.786,-0.5 730.673,-0.5"/>
<text text-anchor="middle" x="756.729" y="-6.5" font-family="Helvetica,sans-Serif" font-size="10.00">memory</text>
</g>
<!-- Node1&#45;&gt;Node3 -->
<g id="edge3" class="edge"><title>Node1&#45;&gt;Node3</title>
<path fill="none" stroke="midnightblue" d="M686.172,-120.293C674.127,-106.173 653.245,-76.7101 666.729,-55 673.409,-44.2465 701.482,-31.3701 724.521,-22.2416"/>
<polygon fill="midnightblue" stroke="midnightblue" points="725.943,-25.4444 734.01,-18.576 723.421,-18.9147 725.943,-25.4444"/>
</g>
<!-- Node4 -->
<g id="node5" class="node"><title>Node4</title>
<polygon fill="white" stroke="#bfbfbf" points="676.003,-60.5 676.003,-78.5 711.456,-78.5 711.456,-60.5 676.003,-60.5"/>
<text text-anchor="middle" x="693.729" y="-66.5" font-family="Helvetica,sans-Serif" font-size="10.00">map</text>
</g>
<!-- Node1&#45;&gt;Node4 -->
<g id="edge4" class="edge"><title>Node1&#45;&gt;Node4</title>
<path fill="none" stroke="midnightblue" d="M693.729,-120.435C693.729,-112.389 693.729,-99.7388 693.729,-89.1846"/>
<polygon fill="midnightblue" stroke="midnightblue" points="697.23,-88.8717 693.729,-78.8718 690.23,-88.8718 697.23,-88.8717"/>
</g>
<!-- Node5 -->
<g id="node6" class="node"><title>Node5</title>
<polygon fill="white" stroke="#bfbfbf" points="130.099,-0.5 130.099,-18.5 203.36,-18.5 203.36,-0.5 130.099,-0.5"/>
<text text-anchor="middle" x="166.729" y="-6.5" font-family="Helvetica,sans-Serif" font-size="10.00">Eigen/Dense</text>
</g>
<!-- Node1&#45;&gt;Node5 -->
<g id="edge5" class="edge"><title>Node1&#45;&gt;Node5</title>
<path fill="none" stroke="midnightblue" d="M602.375,-122.841C501.95,-115.836 347.452,-102.521 291.729,-84 250.814,-70.4004 208.698,-42.1009 185.3,-24.8569"/>
<polygon fill="midnightblue" stroke="midnightblue" points="187.116,-21.8432 177.018,-18.6345 182.911,-27.4396 187.116,-21.8432"/>
</g>
<!-- Node6 -->
<g id="node7" class="node"><title>Node6</title>
<polygon fill="white" stroke="#bfbfbf" points="221.326,-0.5 221.326,-18.5 290.133,-18.5 290.133,-0.5 221.326,-0.5"/>
<text text-anchor="middle" x="255.729" y="-6.5" font-family="Helvetica,sans-Serif" font-size="10.00">Eigen/Lgsm</text>
</g>
<!-- Node1&#45;&gt;Node6 -->
<g id="edge6" class="edge"><title>Node1&#45;&gt;Node6</title>
<path fill="none" stroke="midnightblue" d="M602.578,-123.496C512.498,-117.427 381.7,-105.271 335.729,-84 307.451,-70.9154 282.355,-44.1098 268.11,-26.7412"/>
<polygon fill="midnightblue" stroke="midnightblue" points="270.645,-24.3046 261.69,-18.6414 265.159,-28.6525 270.645,-24.3046"/>
</g>
<!-- Node7 -->
<g id="node8" class="node"><title>Node7</title>
<polygon fill="white" stroke="#bfbfbf" points="307.988,-0.5 307.988,-18.5 393.471,-18.5 393.471,-0.5 307.988,-0.5"/>
<text text-anchor="middle" x="350.729" y="-6.5" font-family="Helvetica,sans-Serif" font-size="10.00">yarp/os/Bottle.h</text>
</g>
<!-- Node1&#45;&gt;Node7 -->
<g id="edge7" class="edge"><title>Node1&#45;&gt;Node7</title>
<path fill="none" stroke="midnightblue" d="M602.534,-122.927C505.732,-116.059 364.38,-102.929 347.729,-84 334.445,-68.897 338.642,-44.5571 343.839,-28.0626"/>
<polygon fill="midnightblue" stroke="midnightblue" points="347.175,-29.127 347.224,-18.5323 340.579,-26.7837 347.175,-29.127"/>
</g>
<!-- Node8 -->
<g id="node9" class="node"><title>Node8</title>
<polygon fill="white" stroke="#bfbfbf" points="729.099,-60.5 729.099,-78.5 832.36,-78.5 832.36,-60.5 729.099,-60.5"/>
<text text-anchor="middle" x="780.729" y="-66.5" font-family="Helvetica,sans-Serif" font-size="10.00">yarp/os/RpcClient.h</text>
</g>
<!-- Node1&#45;&gt;Node8 -->
<g id="edge8" class="edge"><title>Node1&#45;&gt;Node8</title>
<path fill="none" stroke="midnightblue" d="M705.826,-120.435C719.772,-111.138 742.938,-95.6942 759.821,-84.4393"/>
<polygon fill="midnightblue" stroke="midnightblue" points="762.076,-87.1424 768.455,-78.6831 758.193,-81.318 762.076,-87.1424"/>
</g>
<!-- Node9 -->
<g id="node10" class="node"><title>Node9</title>
<polygon fill="white" stroke="#bfbfbf" points="850.604,-60.5 850.604,-78.5 928.855,-78.5 928.855,-60.5 850.604,-60.5"/>
<text text-anchor="middle" x="889.729" y="-66.5" font-family="Helvetica,sans-Serif" font-size="10.00">yarp/os/Port.h</text>
</g>
<!-- Node1&#45;&gt;Node9 -->
<g id="edge9" class="edge"><title>Node1&#45;&gt;Node9</title>
<path fill="none" stroke="midnightblue" d="M720.982,-120.435C755.26,-110.292 814.265,-92.8314 852.633,-81.4774"/>
<polygon fill="midnightblue" stroke="midnightblue" points="853.797,-84.7832 862.393,-78.5894 851.811,-78.0709 853.797,-84.7832"/>
</g>
<!-- Node10 -->
<g id="node11" class="node"><title>Node10</title>
<polygon fill="white" stroke="#bfbfbf" points="946.437,-60.5 946.437,-78.5 1043.02,-78.5 1043.02,-60.5 946.437,-60.5"/>
<text text-anchor="middle" x="994.729" y="-66.5" font-family="Helvetica,sans-Serif" font-size="10.00">yarp/os/Network.h</text>
</g>
<!-- Node1&#45;&gt;Node10 -->
<g id="edge10" class="edge"><title>Node1&#45;&gt;Node10</title>
<path fill="none" stroke="midnightblue" d="M742.023,-120.457C791.352,-112.063 870.086,-98.1686 937.729,-84 942.457,-83.0097 947.393,-81.9221 952.297,-80.8074"/>
<polygon fill="midnightblue" stroke="midnightblue" points="953.289,-84.1705 962.241,-78.5039 951.709,-77.351 953.289,-84.1705"/>
</g>
<!-- Node11 -->
<g id="node12" class="node"><title>Node11</title>
<polygon fill="white" stroke="#bfbfbf" points="1061.43,-60.5 1061.43,-78.5 1138.03,-78.5 1138.03,-60.5 1061.43,-60.5"/>
<text text-anchor="middle" x="1099.73" y="-66.5" font-family="Helvetica,sans-Serif" font-size="10.00">yarp/os/Log.h</text>
</g>
<!-- Node1&#45;&gt;Node11 -->
<g id="edge11" class="edge"><title>Node1&#45;&gt;Node11</title>
<path fill="none" stroke="midnightblue" d="M784.825,-120.992C857.543,-114.084 961.784,-102.131 1051.73,-84 1055.83,-83.1725 1060.1,-82.1757 1064.32,-81.1031"/>
<polygon fill="midnightblue" stroke="midnightblue" points="1065.25,-84.4799 1074,-78.5068 1063.43,-77.7193 1065.25,-84.4799"/>
</g>
<!-- Node12 -->
<g id="node13" class="node"><title>Node12</title>
<polygon fill="white" stroke="#bfbfbf" points="1156.32,-60.5 1156.32,-78.5 1265.14,-78.5 1265.14,-60.5 1156.32,-60.5"/>
<text text-anchor="middle" x="1210.73" y="-66.5" font-family="Helvetica,sans-Serif" font-size="10.00">yarp/os/LogStream.h</text>
</g>
<!-- Node1&#45;&gt;Node12 -->
<g id="edge12" class="edge"><title>Node1&#45;&gt;Node12</title>
<path fill="none" stroke="midnightblue" d="M785.204,-122.481C876.964,-115.748 1022.16,-103.198 1146.73,-84 1152.99,-83.0352 1159.56,-81.8499 1166.01,-80.586"/>
<polygon fill="midnightblue" stroke="midnightblue" points="1166.88,-83.9807 1175.98,-78.5556 1165.48,-77.1214 1166.88,-83.9807"/>
</g>
<!-- Node13 -->
<g id="node14" class="node"><title>Node13</title>
<polygon fill="white" stroke="#bfbfbf" points="1283.48,-60.5 1283.48,-78.5 1393.98,-78.5 1393.98,-60.5 1283.48,-60.5"/>
<text text-anchor="middle" x="1338.73" y="-66.5" font-family="Helvetica,sans-Serif" font-size="10.00">yarp/os/PortReader.h</text>
</g>
<!-- Node1&#45;&gt;Node13 -->
<g id="edge13" class="edge"><title>Node1&#45;&gt;Node13</title>
<path fill="none" stroke="midnightblue" d="M785.036,-125.115C899.631,-120.037 1101.99,-108.32 1273.73,-84 1280.4,-83.0554 1287.41,-81.8383 1294.26,-80.5224"/>
<polygon fill="midnightblue" stroke="midnightblue" points="1295.01,-83.9423 1304.13,-78.5441 1293.64,-77.079 1295.01,-83.9423"/>
</g>
<!-- Node14 -->
<g id="node15" class="node"><title>Node14</title>
<polygon fill="white" stroke="#bfbfbf" points="1412.35,-60.5 1412.35,-78.5 1555.11,-78.5 1555.11,-60.5 1412.35,-60.5"/>
<text text-anchor="middle" x="1483.73" y="-66.5" font-family="Helvetica,sans-Serif" font-size="10.00">yarp/os/ConnectionReader.h</text>
</g>
<!-- Node1&#45;&gt;Node14 -->
<g id="edge14" class="edge"><title>Node1&#45;&gt;Node14</title>
<path fill="none" stroke="midnightblue" d="M784.928,-125.764C920.166,-121.032 1181.71,-109.287 1402.73,-84 1411.78,-82.9646 1421.36,-81.6052 1430.64,-80.1479"/>
<polygon fill="midnightblue" stroke="midnightblue" points="1431.24,-83.5962 1440.55,-78.539 1430.12,-76.6866 1431.24,-83.5962"/>
</g>
<!-- Node15 -->
<g id="node16" class="node"><title>Node15</title>
<polygon fill="white" stroke="#bfbfbf" points="1572.85,-60.5 1572.85,-78.5 1654.61,-78.5 1654.61,-60.5 1572.85,-60.5"/>
<text text-anchor="middle" x="1613.73" y="-66.5" font-family="Helvetica,sans-Serif" font-size="10.00">yarp/os/Time.h</text>
</g>
<!-- Node1&#45;&gt;Node15 -->
<g id="edge15" class="edge"><title>Node1&#45;&gt;Node15</title>
<path fill="none" stroke="midnightblue" d="M785.058,-126.287C976.839,-121.238 1415.95,-107.456 1563.73,-84 1568.47,-83.2468 1573.42,-82.2198 1578.27,-81.0662"/>
<polygon fill="midnightblue" stroke="midnightblue" points="1579.19,-84.4435 1588.01,-78.5674 1577.45,-77.6632 1579.19,-84.4435"/>
</g>
<!-- Node16 -->
<g id="node17" class="node"><title>Node16</title>
<g id="a_node17"><a xlink:href="../../da/d33/TaskYarpInterfaceVocab_8h.html" target="_top" xlink:title="ocra/control/TaskYarpInterface\lVocab.h">
<polygon fill="white" stroke="black" points="356.288,-55.5 356.288,-83.5 507.171,-83.5 507.171,-55.5 356.288,-55.5"/>
<text text-anchor="start" x="364.288" y="-71.5" font-family="Helvetica,sans-Serif" font-size="10.00">ocra/control/TaskYarpInterface</text>
<text text-anchor="middle" x="431.729" y="-61.5" font-family="Helvetica,sans-Serif" font-size="10.00">Vocab.h</text>
</a>
</g>
</g>
<!-- Node1&#45;&gt;Node16 -->
<g id="edge16" class="edge"><title>Node1&#45;&gt;Node16</title>
<path fill="none" stroke="midnightblue" d="M657.575,-120.496C617.172,-111.552 550.827,-96.8651 500.473,-85.718"/>
<polygon fill="midnightblue" stroke="midnightblue" points="501.148,-82.2827 490.628,-83.5385 499.635,-89.1173 501.148,-82.2827"/>
</g>
<!-- Node22 -->
<g id="node23" class="node"><title>Node22</title>
<g id="a_node23"><a xlink:href="../../d2/de1/MessageVocabulary_8h.html" target="_top" xlink:title="ocra&#45;recipes/MessageVocabulary.h">
<polygon fill="white" stroke="black" points="0,-60.5 0,-78.5 171.459,-78.5 171.459,-60.5 0,-60.5"/>
<text text-anchor="middle" x="85.7295" y="-66.5" font-family="Helvetica,sans-Serif" font-size="10.00">ocra&#45;recipes/MessageVocabulary.h</text>
</a>
</g>
</g>
<!-- Node1&#45;&gt;Node22 -->
<g id="edge26" class="edge"><title>Node1&#45;&gt;Node22</title>
<path fill="none" stroke="midnightblue" d="M602.477,-121.743C500.88,-113.928 331.857,-100.06 186.729,-84 175.578,-82.766 163.753,-81.3148 152.272,-79.8298"/>
<polygon fill="midnightblue" stroke="midnightblue" points="152.668,-76.3518 142.297,-78.5207 151.757,-83.2923 152.668,-76.3518"/>
</g>
<!-- Node23 -->
<g id="node24" class="node"><title>Node23</title>
<g id="a_node24"><a xlink:href="../../df/d0a/Macros_8h.html" target="_top" xlink:title="ocra/util/Macros.h">
<polygon fill="white" stroke="black" points="525.271,-60.5 525.271,-78.5 620.188,-78.5 620.188,-60.5 525.271,-60.5"/>
<text text-anchor="middle" x="572.729" y="-66.5" font-family="Helvetica,sans-Serif" font-size="10.00">ocra/util/Macros.h</text>
</a>
</g>
</g>
<!-- Node1&#45;&gt;Node23 -->
<g id="edge28" class="edge"><title>Node1&#45;&gt;Node23</title>
<path fill="none" stroke="midnightblue" d="M676.905,-120.435C656.701,-110.751 622.583,-94.3966 598.922,-83.055"/>
<polygon fill="midnightblue" stroke="midnightblue" points="600.332,-79.8495 589.801,-78.6831 597.306,-86.1618 600.332,-79.8495"/>
</g>
<!-- Node16&#45;&gt;Node2 -->
<g id="edge17" class="edge"><title>Node16&#45;&gt;Node2</title>
<path fill="none" stroke="midnightblue" d="M356.04,-58.0526C295.236,-49.2914 207.456,-35.8184 122.062,-19.1489"/>
<polygon fill="midnightblue" stroke="midnightblue" points="122.689,-15.7052 112.201,-17.2074 121.337,-22.5734 122.689,-15.7052"/>
</g>
<!-- Node16&#45;&gt;Node5 -->
<g id="edge19" class="edge"><title>Node16&#45;&gt;Node5</title>
<path fill="none" stroke="midnightblue" d="M372.258,-55.4837C324.266,-44.9796 257.683,-30.4069 213.458,-20.7274"/>
<polygon fill="midnightblue" stroke="midnightblue" points="214.067,-17.2778 203.549,-18.5587 212.57,-24.1159 214.067,-17.2778"/>
</g>
<!-- Node16&#45;&gt;Node6 -->
<g id="edge20" class="edge"><title>Node16&#45;&gt;Node6</title>
<path fill="none" stroke="midnightblue" d="M392.232,-55.4837C361.498,-45.3555 319.286,-31.4448 289.974,-21.785"/>
<polygon fill="midnightblue" stroke="midnightblue" points="290.777,-18.3645 280.183,-18.5587 288.586,-25.0128 290.777,-18.3645"/>
</g>
<!-- Node16&#45;&gt;Node7 -->
<g id="edge21" class="edge"><title>Node16&#45;&gt;Node7</title>
<path fill="none" stroke="midnightblue" d="M413.349,-55.3389C400.607,-46.2145 383.65,-34.0725 370.595,-24.7249"/>
<polygon fill="midnightblue" stroke="midnightblue" points="372.449,-21.7477 362.281,-18.7715 368.374,-27.4391 372.449,-21.7477"/>
</g>
<!-- Node17 -->
<g id="node18" class="node"><title>Node17</title>
<polygon fill="white" stroke="#bfbfbf" points="411.114,-0.5 411.114,-18.5 454.345,-18.5 454.345,-0.5 411.114,-0.5"/>
<text text-anchor="middle" x="432.729" y="-6.5" font-family="Helvetica,sans-Serif" font-size="10.00">vector</text>
</g>
<!-- Node16&#45;&gt;Node17 -->
<g id="edge18" class="edge"><title>Node16&#45;&gt;Node17</title>
<path fill="none" stroke="midnightblue" d="M431.956,-55.3389C432.091,-47.5305 432.264,-37.5122 432.412,-28.9265"/>
<polygon fill="midnightblue" stroke="midnightblue" points="435.914,-28.8304 432.587,-18.7715 428.915,-28.7096 435.914,-28.8304"/>
</g>
<!-- Node18 -->
<g id="node19" class="node"><title>Node18</title>
<polygon fill="white" stroke="#bfbfbf" points="472.166,-0.5 472.166,-18.5 529.293,-18.5 529.293,-0.5 472.166,-0.5"/>
<text text-anchor="middle" x="500.729" y="-6.5" font-family="Helvetica,sans-Serif" font-size="10.00">algorithm</text>
</g>
<!-- Node16&#45;&gt;Node18 -->
<g id="edge22" class="edge"><title>Node16&#45;&gt;Node18</title>
<path fill="none" stroke="midnightblue" d="M447.387,-55.3389C458.033,-46.39 472.132,-34.5384 483.162,-25.2673"/>
<polygon fill="midnightblue" stroke="midnightblue" points="485.487,-27.8852 490.889,-18.7715 480.982,-22.5268 485.487,-27.8852"/>
</g>
<!-- Node19 -->
<g id="node20" class="node"><title>Node19</title>
<polygon fill="white" stroke="#bfbfbf" points="547.503,-0.5 547.503,-18.5 587.956,-18.5 587.956,-0.5 547.503,-0.5"/>
<text text-anchor="middle" x="567.729" y="-6.5" font-family="Helvetica,sans-Serif" font-size="10.00">string</text>
</g>
<!-- Node16&#45;&gt;Node19 -->
<g id="edge23" class="edge"><title>Node16&#45;&gt;Node19</title>
<path fill="none" stroke="midnightblue" d="M462.251,-55.4837C485.309,-45.65 516.728,-32.2505 539.268,-22.6381"/>
<polygon fill="midnightblue" stroke="midnightblue" points="540.809,-25.7858 548.635,-18.6434 538.063,-19.3469 540.809,-25.7858"/>
</g>
<!-- Node20 -->
<g id="node21" class="node"><title>Node20</title>
<polygon fill="white" stroke="#bfbfbf" points="606.222,-0.5 606.222,-18.5 647.237,-18.5 647.237,-0.5 606.222,-0.5"/>
<text text-anchor="middle" x="626.729" y="-6.5" font-family="Helvetica,sans-Serif" font-size="10.00">regex</text>
</g>
<!-- Node16&#45;&gt;Node20 -->
<g id="edge24" class="edge"><title>Node16&#45;&gt;Node20</title>
<path fill="none" stroke="midnightblue" d="M475.491,-55.4837C512.272,-44.5438 563.89,-29.1906 596.308,-19.5484"/>
<polygon fill="midnightblue" stroke="midnightblue" points="597.528,-22.8371 606.115,-16.6314 595.533,-16.1276 597.528,-22.8371"/>
</g>
<!-- Node21 -->
<g id="node22" class="node"><title>Node21</title>
<polygon fill="white" stroke="#bfbfbf" points="665.168,-0.5 665.168,-18.5 712.291,-18.5 712.291,-0.5 665.168,-0.5"/>
<text text-anchor="middle" x="688.729" y="-6.5" font-family="Helvetica,sans-Serif" font-size="10.00">iterator</text>
</g>
<!-- Node16&#45;&gt;Node21 -->
<g id="edge25" class="edge"><title>Node16&#45;&gt;Node21</title>
<path fill="none" stroke="midnightblue" d="M494.454,-55.4574C537.295,-46.3748 595.582,-33.6783 655.052,-19.3369"/>
<polygon fill="midnightblue" stroke="midnightblue" points="656.099,-22.6846 664.993,-16.9268 654.45,-15.8817 656.099,-22.6846"/>
</g>
<!-- Node22&#45;&gt;Node2 -->
<g id="edge27" class="edge"><title>Node22&#45;&gt;Node2</title>
<path fill="none" stroke="midnightblue" d="M85.5904,-60.4353C85.4517,-52.3891 85.2336,-39.7388 85.0516,-29.1846"/>
<polygon fill="midnightblue" stroke="midnightblue" points="88.5458,-28.8099 84.8738,-18.8718 81.5468,-28.9306 88.5458,-28.8099"/>
</g>
<!-- Node23&#45;&gt;Node3 -->
<g id="edge29" class="edge"><title>Node23&#45;&gt;Node3</title>
<path fill="none" stroke="midnightblue" d="M598.314,-60.4353C630.356,-50.335 685.414,-32.9798 721.444,-21.6227"/>
<polygon fill="midnightblue" stroke="midnightblue" points="722.581,-24.934 731.066,-18.5894 720.477,-18.2578 722.581,-24.934"/>
</g>
</g>
</svg>
