<?xml version="1.0" encoding="UTF-8" standalone="no"?>
<!DOCTYPE svg PUBLIC "-//W3C//DTD SVG 1.1//EN"
 "http://www.w3.org/Graphics/SVG/1.1/DTD/svg11.dtd">
<!-- Generated by graphviz version 2.38.0 (20140413.2041)
 -->
<!-- Title: ocra::Feature Pages: 1 -->
<svg width="240pt" height="82pt"
 viewBox="0.00 0.00 239.89 82.00" xmlns="http://www.w3.org/2000/svg" xmlns:xlink="http://www.w3.org/1999/xlink">
<g id="graph0" class="graph" transform="scale(1 1) rotate(0) translate(4 78)">
<title>ocra::Feature</title>
<polygon fill="white" stroke="none" points="-4,4 -4,-78 235.891,-78 235.891,4 -4,4"/>
<!-- Node10 -->
<g id="node1" class="node"><title>Node10</title>
<polygon fill="#bfbfbf" stroke="black" points="79.7881,-0.5 79.7881,-18.5 155.261,-18.5 155.261,-0.5 79.7881,-0.5"/>
<text text-anchor="middle" x="117.524" y="-6.5" font-family="Helvetica,sans-Serif" font-size="10.00">ocra::Feature</text>
</g>
<!-- Node11 -->
<g id="node2" class="node"><title>Node11</title>
<g id="a_node2"><a xlink:href="../../db/de3/classocra_1_1NamedInstance.html" target="_top" xlink:title="ocra::NamedInstance">
<polygon fill="white" stroke="black" points="0,-55.5 0,-73.5 111.049,-73.5 111.049,-55.5 0,-55.5"/>
<text text-anchor="middle" x="55.5244" y="-61.5" font-family="Helvetica,sans-Serif" font-size="10.00">ocra::NamedInstance</text>
</a>
</g>
</g>
<!-- Node11&#45;&gt;Node10 -->
<g id="edge1" class="edge"><title>Node11&#45;&gt;Node10</title>
<path fill="none" stroke="midnightblue" d="M72.5733,-48.9259C83.995,-39.1622 98.6093,-26.6693 108.019,-18.6253"/>
<polygon fill="midnightblue" stroke="midnightblue" points="70.2679,-46.2922 64.9409,-55.4504 74.8164,-51.613 70.2679,-46.2922"/>
</g>
<!-- Node12 -->
<g id="node3" class="node"><title>Node12</title>
<polygon fill="white" stroke="#bfbfbf" points="129.158,-55.5 129.158,-73.5 231.891,-73.5 231.891,-55.5 129.158,-55.5"/>
<text text-anchor="middle" x="180.524" y="-61.5" font-family="Helvetica,sans-Serif" font-size="10.00">boost::noncopyable</text>
</g>
<!-- Node12&#45;&gt;Node10 -->
<g id="edge2" class="edge"><title>Node12&#45;&gt;Node10</title>
<path fill="none" stroke="#8b1a1a" d="M163.201,-48.9259C151.595,-39.1622 136.745,-26.6693 127.183,-18.6253"/>
<polygon fill="#8b1a1a" stroke="#8b1a1a" points="161.051,-51.6911 170.956,-55.4504 165.557,-46.3345 161.051,-51.6911"/>
</g>
</g>
</svg>
