<?xml version="1.0" encoding="UTF-8" standalone="no"?>
<!DOCTYPE svg PUBLIC "-//W3C//DTD SVG 1.1//EN"
 "http://www.w3.org/Graphics/SVG/1.1/DTD/svg11.dtd">
<!-- Generated by graphviz version 2.38.0 (20140413.2041)
 -->
<!-- Title: ocra::InvokerBase&lt; EVT &gt; Pages: 1 -->
<svg width="260pt" height="131pt"
 viewBox="0.00 0.00 260.36 131.00" xmlns="http://www.w3.org/2000/svg" xmlns:xlink="http://www.w3.org/1999/xlink">
<g id="graph0" class="graph" transform="scale(1 1) rotate(0) translate(4 127)">
<title>ocra::InvokerBase&lt; EVT &gt;</title>
<polygon fill="white" stroke="none" points="-4,4 -4,-127 256.355,-127 256.355,4 -4,4"/>
<!-- Node0 -->
<g id="node1" class="node"><title>Node0</title>
<polygon fill="#bfbfbf" stroke="black" points="0,-47.5 0,-75.5 102.436,-75.5 102.436,-47.5 0,-47.5"/>
<text text-anchor="start" x="8" y="-63.5" font-family="Helvetica,sans-Serif" font-size="10.00">ocra::InvokerBase&lt;</text>
<text text-anchor="middle" x="51.2178" y="-53.5" font-family="Helvetica,sans-Serif" font-size="10.00"> EVT &gt;</text>
</g>
<!-- Node1 -->
<g id="node2" class="node"><title>Node1</title>
<g id="a_node2"><a xlink:href="../../d6/d77/classocra_1_1Invoker_3_01T_00_01EVT_00_01false_01_4.html" target="_top" xlink:title="ocra::Invoker\&lt; T, EVT,\l false \&gt;">
<polygon fill="white" stroke="black" points="138.436,-94.5 138.436,-122.5 252.355,-122.5 252.355,-94.5 138.436,-94.5"/>
<text text-anchor="start" x="146.436" y="-110.5" font-family="Helvetica,sans-Serif" font-size="10.00">ocra::Invoker&lt; T, EVT,</text>
<text text-anchor="middle" x="195.396" y="-100.5" font-family="Helvetica,sans-Serif" font-size="10.00"> false &gt;</text>
</a>
</g>
</g>
<!-- Node0&#45;&gt;Node1 -->
<g id="edge1" class="edge"><title>Node0&#45;&gt;Node1</title>
<path fill="none" stroke="midnightblue" d="M104.383,-78.7443C119.971,-83.8973 136.868,-89.4831 151.768,-94.4084"/>
<polygon fill="midnightblue" stroke="midnightblue" points="105.469,-75.4172 94.8758,-75.6015 103.272,-82.0634 105.469,-75.4172"/>
</g>
<!-- Node2 -->
<g id="node3" class="node"><title>Node2</title>
<g id="a_node3"><a xlink:href="../../d5/d80/classocra_1_1Invoker_3_01T_00_01EVT_00_01true_01_4.html" target="_top" xlink:title="ocra::Invoker\&lt; T, EVT,\l true \&gt;">
<polygon fill="white" stroke="black" points="138.436,-47.5 138.436,-75.5 252.355,-75.5 252.355,-47.5 138.436,-47.5"/>
<text text-anchor="start" x="146.436" y="-63.5" font-family="Helvetica,sans-Serif" font-size="10.00">ocra::Invoker&lt; T, EVT,</text>
<text text-anchor="middle" x="195.396" y="-53.5" font-family="Helvetica,sans-Serif" font-size="10.00"> true &gt;</text>
</a>
</g>
</g>
<!-- Node0&#45;&gt;Node2 -->
<g id="edge2" class="edge"><title>Node0&#45;&gt;Node2</title>
<path fill="none" stroke="midnightblue" d="M112.876,-61.5C121.289,-61.5 129.902,-61.5 138.229,-61.5"/>
<polygon fill="midnightblue" stroke="midnightblue" points="112.745,-58.0001 102.745,-61.5 112.745,-65.0001 112.745,-58.0001"/>
</g>
<!-- Node3 -->
<g id="node4" class="node"><title>Node3</title>
<g id="a_node4"><a xlink:href="../../d2/d1a/classocra_1_1Invoker_3_01void_00_01EVT_00_01false_01_4.html" target="_top" xlink:title="ocra::Invoker\&lt; void,\l EVT, false \&gt;">
<polygon fill="white" stroke="black" points="143.624,-0.5 143.624,-28.5 247.167,-28.5 247.167,-0.5 143.624,-0.5"/>
<text text-anchor="start" x="151.624" y="-16.5" font-family="Helvetica,sans-Serif" font-size="10.00">ocra::Invoker&lt; void,</text>
<text text-anchor="middle" x="195.396" y="-6.5" font-family="Helvetica,sans-Serif" font-size="10.00"> EVT, false &gt;</text>
</a>
</g>
</g>
<!-- Node0&#45;&gt;Node3 -->
<g id="edge3" class="edge"><title>Node0&#45;&gt;Node3</title>
<path fill="none" stroke="midnightblue" d="M104.383,-44.2557C119.971,-39.1027 136.868,-33.5169 151.768,-28.5916"/>
<polygon fill="midnightblue" stroke="midnightblue" points="103.272,-40.9366 94.8758,-47.3985 105.469,-47.5828 103.272,-40.9366"/>
</g>
</g>
</svg>
