<?xml version="1.0" encoding="UTF-8" standalone="no"?>
<!DOCTYPE svg PUBLIC "-//W3C//DTD SVG 1.1//EN"
 "http://www.w3.org/Graphics/SVG/1.1/DTD/svg11.dtd">
<!-- Generated by graphviz version 2.38.0 (20140413.2041)
 -->
<!-- Title: ocra::ReducedJointLimitFunction::Pimpl Pages: 1 -->
<svg width="1515pt" height="410pt"
 viewBox="0.00 0.00 1515.09 410.00" xmlns="http://www.w3.org/2000/svg" xmlns:xlink="http://www.w3.org/1999/xlink">
<g id="graph0" class="graph" transform="scale(1 1) rotate(0) translate(4 406)">
<title>ocra::ReducedJointLimitFunction::Pimpl</title>
<polygon fill="white" stroke="none" points="-4,4 -4,-406 1511.09,-406 1511.09,4 -4,4"/>
<!-- Node1 -->
<g id="node1" class="node"><title>Node1</title>
<polygon fill="#bfbfbf" stroke="black" points="1345.46,-10.5 1345.46,-38.5 1507.09,-38.5 1507.09,-10.5 1345.46,-10.5"/>
<text text-anchor="start" x="1353.46" y="-26.5" font-family="Helvetica,sans-Serif" font-size="10.00">ocra::ReducedJointLimitFunction</text>
<text text-anchor="middle" x="1426.27" y="-16.5" font-family="Helvetica,sans-Serif" font-size="10.00">::Pimpl</text>
</g>
<!-- Node2 -->
<g id="node2" class="node"><title>Node2</title>
<g id="a_node2"><a xlink:href="../../de/ddd/classocra_1_1FullDynamicEquationFunction.html" target="_top" xlink:title="Create a linear function that represents the dynamic equation of motion. ">
<polygon fill="white" stroke="black" points="1088.91,-89.5 1088.91,-117.5 1224.41,-117.5 1224.41,-89.5 1088.91,-89.5"/>
<text text-anchor="start" x="1096.91" y="-105.5" font-family="Helvetica,sans-Serif" font-size="10.00">ocra::FullDynamicEquation</text>
<text text-anchor="middle" x="1156.66" y="-95.5" font-family="Helvetica,sans-Serif" font-size="10.00">Function</text>
</a>
</g>
</g>
<!-- Node2&#45;&gt;Node1 -->
<g id="edge1" class="edge"><title>Node2&#45;&gt;Node1</title>
<path fill="none" stroke="#9a32cd" stroke-dasharray="5,2" d="M1214.92,-86.5962C1263.44,-72.2724 1332.2,-51.9753 1377.73,-38.5347"/>
<polygon fill="#9a32cd" stroke="#9a32cd" points="1213.79,-83.2794 1205.19,-89.4674 1215.78,-89.9929 1213.79,-83.2794"/>
<text text-anchor="middle" x="1284.93" y="-80.5" font-family="Helvetica,sans-Serif" font-size="10.00"> _dynamicEquation</text>
</g>
<!-- Node3 -->
<g id="node3" class="node"><title>Node3</title>
<g id="a_node3"><a xlink:href="../../de/d3a/classocra_1_1LinearFunction.html" target="_top" xlink:title="LinearFunction class. ">
<polygon fill="white" stroke="black" points="944.747,-155.5 944.747,-173.5 1051.91,-173.5 1051.91,-155.5 944.747,-155.5"/>
<text text-anchor="middle" x="998.328" y="-161.5" font-family="Helvetica,sans-Serif" font-size="10.00">ocra::LinearFunction</text>
</a>
</g>
</g>
<!-- Node3&#45;&gt;Node2 -->
<g id="edge2" class="edge"><title>Node3&#45;&gt;Node2</title>
<path fill="none" stroke="midnightblue" d="M1032.03,-151.739C1057.67,-141.735 1093.31,-127.829 1119.74,-117.516"/>
<polygon fill="midnightblue" stroke="midnightblue" points="1030.44,-148.604 1022.4,-155.499 1032.98,-155.125 1030.44,-148.604"/>
</g>
<!-- Node4 -->
<g id="node4" class="node"><title>Node4</title>
<g id="a_node4"><a xlink:href="../../d2/d99/classocra_1_1Function.html" target="_top" xlink:title="Function class. ">
<polygon fill="white" stroke="black" points="828.383,-155.5 828.383,-173.5 907.747,-173.5 907.747,-155.5 828.383,-155.5"/>
<text text-anchor="middle" x="868.065" y="-161.5" font-family="Helvetica,sans-Serif" font-size="10.00">ocra::Function</text>
</a>
</g>
</g>
<!-- Node4&#45;&gt;Node3 -->
<g id="edge3" class="edge"><title>Node4&#45;&gt;Node3</title>
<path fill="none" stroke="midnightblue" d="M918.15,-164.5C926.749,-164.5 935.73,-164.5 944.427,-164.5"/>
<polygon fill="midnightblue" stroke="midnightblue" points="917.896,-161 907.896,-164.5 917.896,-168 917.896,-161"/>
</g>
<!-- Node5 -->
<g id="node5" class="node"><title>Node5</title>
<g id="a_node5"><a xlink:href="../../d3/d16/classocra_1_1ObserverSubject.html" target="_top" xlink:title="ocra::ObserverSubject">
<polygon fill="white" stroke="black" points="386.068,-239.5 386.068,-257.5 501.556,-257.5 501.556,-239.5 386.068,-239.5"/>
<text text-anchor="middle" x="443.812" y="-245.5" font-family="Helvetica,sans-Serif" font-size="10.00">ocra::ObserverSubject</text>
</a>
</g>
</g>
<!-- Node5&#45;&gt;Node4 -->
<g id="edge4" class="edge"><title>Node5&#45;&gt;Node4</title>
<path fill="none" stroke="midnightblue" d="M511.628,-249.306C573.476,-248.621 667.56,-243.924 746.792,-224.5 788.493,-214.277 832.382,-187.753 853.771,-173.643"/>
<polygon fill="midnightblue" stroke="midnightblue" points="511.578,-245.806 501.606,-249.385 511.634,-252.806 511.578,-245.806"/>
</g>
<!-- Node21 -->
<g id="node21" class="node"><title>Node21</title>
<g id="a_node21"><a xlink:href="../../d2/dac/classocra_1_1Variable.html" target="_top" xlink:title="This class represents a variable in a mathematical sense. ">
<polygon fill="white" stroke="black" points="626.412,-285.5 626.412,-303.5 703.374,-303.5 703.374,-285.5 626.412,-285.5"/>
<text text-anchor="middle" x="664.893" y="-291.5" font-family="Helvetica,sans-Serif" font-size="10.00">ocra::Variable</text>
</a>
</g>
</g>
<!-- Node5&#45;&gt;Node21 -->
<g id="edge22" class="edge"><title>Node5&#45;&gt;Node21</title>
<path fill="none" stroke="midnightblue" d="M501.549,-259.488C516.052,-262.359 531.611,-265.493 545.994,-268.5 572.871,-274.119 603.114,-280.796 626.24,-285.976"/>
<polygon fill="midnightblue" stroke="midnightblue" points="502.192,-256.047 491.704,-257.547 500.838,-262.915 502.192,-256.047"/>
</g>
<!-- Node6 -->
<g id="node6" class="node"><title>Node6</title>
<g id="a_node6"><a xlink:href="../../d2/d45/classocra_1_1Observer.html" target="_top" xlink:title="ocra::Observer">
<polygon fill="white" stroke="black" points="222.497,-307.5 222.497,-325.5 304.63,-325.5 304.63,-307.5 222.497,-307.5"/>
<text text-anchor="middle" x="263.563" y="-313.5" font-family="Helvetica,sans-Serif" font-size="10.00">ocra::Observer</text>
</a>
</g>
</g>
<!-- Node6&#45;&gt;Node5 -->
<g id="edge5" class="edge"><title>Node6&#45;&gt;Node5</title>
<path fill="none" stroke="midnightblue" d="M284.539,-301.224C299.495,-290.514 320.869,-276.698 341.63,-268.5 355.537,-263.008 371.136,-258.971 385.844,-256.024"/>
<polygon fill="midnightblue" stroke="midnightblue" points="282.103,-298.67 276.118,-307.413 286.249,-304.311 282.103,-298.67"/>
</g>
<!-- Node7 -->
<g id="node7" class="node"><title>Node7</title>
<g id="a_node7"><a xlink:href="../../d4/dee/classocra_1_1ObserverBase.html" target="_top" xlink:title="ocra::ObserverBase\l\&lt; EVT_RESIZE \&gt;">
<polygon fill="white" stroke="black" points="40.2856,-373.5 40.2856,-401.5 145.211,-401.5 145.211,-373.5 40.2856,-373.5"/>
<text text-anchor="start" x="48.2856" y="-389.5" font-family="Helvetica,sans-Serif" font-size="10.00">ocra::ObserverBase</text>
<text text-anchor="middle" x="92.7485" y="-379.5" font-family="Helvetica,sans-Serif" font-size="10.00">&lt; EVT_RESIZE &gt;</text>
</a>
</g>
</g>
<!-- Node7&#45;&gt;Node6 -->
<g id="edge6" class="edge"><title>Node7&#45;&gt;Node6</title>
<path fill="none" stroke="midnightblue" d="M155.373,-374.87C165.614,-371.976 175.989,-368.535 185.497,-364.5 210.164,-354.032 236.055,-336.3 250.667,-325.567"/>
<polygon fill="midnightblue" stroke="midnightblue" points="154.382,-371.512 145.628,-377.48 156.193,-378.274 154.382,-371.512"/>
</g>
<!-- Node8 -->
<g id="node8" class="node"><title>Node8</title>
<g id="a_node8"><a xlink:href="../../d4/dee/classocra_1_1ObserverBase.html" target="_top" xlink:title="ocra::ObserverBase\l\&lt; EVT_CHANGE_DEPENDENCIES \&gt;">
<polygon fill="white" stroke="black" points="0,-326.5 0,-354.5 185.497,-354.5 185.497,-326.5 0,-326.5"/>
<text text-anchor="start" x="8" y="-342.5" font-family="Helvetica,sans-Serif" font-size="10.00">ocra::ObserverBase</text>
<text text-anchor="middle" x="92.7485" y="-332.5" font-family="Helvetica,sans-Serif" font-size="10.00">&lt; EVT_CHANGE_DEPENDENCIES &gt;</text>
</a>
</g>
</g>
<!-- Node8&#45;&gt;Node6 -->
<g id="edge7" class="edge"><title>Node8&#45;&gt;Node6</title>
<path fill="none" stroke="midnightblue" d="M195.725,-326.002C205,-324.684 213.979,-323.407 222.187,-322.24"/>
<polygon fill="midnightblue" stroke="midnightblue" points="194.974,-322.574 185.566,-327.447 195.959,-329.504 194.974,-322.574"/>
</g>
<!-- Node9 -->
<g id="node9" class="node"><title>Node9</title>
<g id="a_node9"><a xlink:href="../../d4/dee/classocra_1_1ObserverBase.html" target="_top" xlink:title="ocra::ObserverBase\l\&lt; EVT_CHANGE_VALUE \&gt;">
<polygon fill="white" stroke="black" points="23.4253,-279.5 23.4253,-307.5 162.072,-307.5 162.072,-279.5 23.4253,-279.5"/>
<text text-anchor="start" x="31.4253" y="-295.5" font-family="Helvetica,sans-Serif" font-size="10.00">ocra::ObserverBase</text>
<text text-anchor="middle" x="92.7485" y="-285.5" font-family="Helvetica,sans-Serif" font-size="10.00">&lt; EVT_CHANGE_VALUE &gt;</text>
</a>
</g>
</g>
<!-- Node9&#45;&gt;Node6 -->
<g id="edge8" class="edge"><title>Node9&#45;&gt;Node6</title>
<path fill="none" stroke="midnightblue" d="M172.466,-304.225C189.64,-306.565 207.13,-308.948 222.074,-310.984"/>
<polygon fill="midnightblue" stroke="midnightblue" points="172.793,-300.737 162.412,-302.855 171.848,-307.673 172.793,-300.737"/>
</g>
<!-- Node10 -->
<g id="node10" class="node"><title>Node10</title>
<g id="a_node10"><a xlink:href="../../dc/d77/classocra_1_1Subject.html" target="_top" xlink:title="ocra::Subject">
<polygon fill="white" stroke="black" points="226.381,-210.5 226.381,-228.5 300.746,-228.5 300.746,-210.5 226.381,-210.5"/>
<text text-anchor="middle" x="263.563" y="-216.5" font-family="Helvetica,sans-Serif" font-size="10.00">ocra::Subject</text>
</a>
</g>
</g>
<!-- Node10&#45;&gt;Node5 -->
<g id="edge9" class="edge"><title>Node10&#45;&gt;Node5</title>
<path fill="none" stroke="midnightblue" d="M311.07,-227.066C334.43,-230.867 362.898,-235.499 387.386,-239.483"/>
<polygon fill="midnightblue" stroke="midnightblue" points="311.497,-223.59 301.065,-225.439 310.373,-230.499 311.497,-223.59"/>
</g>
<!-- Node11 -->
<g id="node11" class="node"><title>Node11</title>
<g id="a_node11"><a xlink:href="../../dc/d29/classocra_1_1SubjectBase.html" target="_top" xlink:title="ocra::SubjectBase\&lt;\l EVT_RESIZE \&gt;">
<polygon fill="white" stroke="black" points="41.25,-232.5 41.25,-260.5 144.247,-260.5 144.247,-232.5 41.25,-232.5"/>
<text text-anchor="start" x="49.25" y="-248.5" font-family="Helvetica,sans-Serif" font-size="10.00">ocra::SubjectBase&lt;</text>
<text text-anchor="middle" x="92.7485" y="-238.5" font-family="Helvetica,sans-Serif" font-size="10.00"> EVT_RESIZE &gt;</text>
</a>
</g>
</g>
<!-- Node11&#45;&gt;Node10 -->
<g id="edge10" class="edge"><title>Node11&#45;&gt;Node10</title>
<path fill="none" stroke="midnightblue" d="M154.489,-236.785C178.489,-232.947 205.266,-228.664 226.162,-225.322"/>
<polygon fill="midnightblue" stroke="midnightblue" points="153.72,-233.364 144.399,-238.399 154.826,-240.276 153.72,-233.364"/>
</g>
<!-- Node12 -->
<g id="node12" class="node"><title>Node12</title>
<g id="a_node12"><a xlink:href="../../dc/d29/classocra_1_1SubjectBase.html" target="_top" xlink:title="ocra::SubjectBase\&lt;\l EVT_CHANGE_DEPENDENCIES \&gt;">
<polygon fill="white" stroke="black" points="2.91992,-185.5 2.91992,-213.5 182.577,-213.5 182.577,-185.5 2.91992,-185.5"/>
<text text-anchor="start" x="10.9199" y="-201.5" font-family="Helvetica,sans-Serif" font-size="10.00">ocra::SubjectBase&lt;</text>
<text text-anchor="middle" x="92.7485" y="-191.5" font-family="Helvetica,sans-Serif" font-size="10.00"> EVT_CHANGE_DEPENDENCIES &gt;</text>
</a>
</g>
</g>
<!-- Node12&#45;&gt;Node10 -->
<g id="edge11" class="edge"><title>Node12&#45;&gt;Node10</title>
<path fill="none" stroke="midnightblue" d="M192.668,-211.219C204.562,-212.628 216.06,-213.991 226.178,-215.189"/>
<polygon fill="midnightblue" stroke="midnightblue" points="192.948,-207.728 182.605,-210.027 192.124,-214.679 192.948,-207.728"/>
</g>
<!-- Node13 -->
<g id="node13" class="node"><title>Node13</title>
<g id="a_node13"><a xlink:href="../../dc/d29/classocra_1_1SubjectBase.html" target="_top" xlink:title="ocra::SubjectBase\&lt;\l EVT_CHANGE_VALUE \&gt;">
<polygon fill="white" stroke="black" points="26.3452,-138.5 26.3452,-166.5 159.152,-166.5 159.152,-138.5 26.3452,-138.5"/>
<text text-anchor="start" x="34.3452" y="-154.5" font-family="Helvetica,sans-Serif" font-size="10.00">ocra::SubjectBase&lt;</text>
<text text-anchor="middle" x="92.7485" y="-144.5" font-family="Helvetica,sans-Serif" font-size="10.00"> EVT_CHANGE_VALUE &gt;</text>
</a>
</g>
</g>
<!-- Node13&#45;&gt;Node10 -->
<g id="edge12" class="edge"><title>Node13&#45;&gt;Node10</title>
<path fill="none" stroke="midnightblue" d="M168.784,-169.498C174.5,-171.342 180.129,-173.342 185.497,-175.5 209.084,-184.981 234.281,-200.519 249.214,-210.367"/>
<polygon fill="midnightblue" stroke="midnightblue" points="169.7,-166.119 159.114,-166.542 167.653,-172.813 169.7,-166.119"/>
</g>
<!-- Node14 -->
<g id="node14" class="node"><title>Node14</title>
<g id="a_node14"><a xlink:href="../../dd/d68/classocra_1_1IFunctionProperties.html" target="_top" xlink:title="ocra::IFunctionProperties">
<polygon fill="white" stroke="black" points="601.034,-197.5 601.034,-215.5 728.752,-215.5 728.752,-197.5 601.034,-197.5"/>
<text text-anchor="middle" x="664.893" y="-203.5" font-family="Helvetica,sans-Serif" font-size="10.00">ocra::IFunctionProperties</text>
</a>
</g>
</g>
<!-- Node14&#45;&gt;Node4 -->
<g id="edge13" class="edge"><title>Node14&#45;&gt;Node4</title>
<path fill="none" stroke="midnightblue" d="M725.933,-195.571C751.956,-190.652 782.736,-184.589 810.383,-178.5 817.312,-176.974 824.69,-175.236 831.753,-173.515"/>
<polygon fill="midnightblue" stroke="midnightblue" points="725.022,-192.181 715.84,-197.467 726.314,-199.061 725.022,-192.181"/>
</g>
<!-- Node15 -->
<g id="node15" class="node"><title>Node15</title>
<polygon fill="white" stroke="#bfbfbf" points="582.994,-150.5 582.994,-178.5 746.792,-178.5 746.792,-150.5 582.994,-150.5"/>
<text text-anchor="start" x="590.994" y="-166.5" font-family="Helvetica,sans-Serif" font-size="10.00">OCRA_FUNCTION_INTERFACE</text>
<text text-anchor="middle" x="664.893" y="-156.5" font-family="Helvetica,sans-Serif" font-size="10.00">_INHERITANCEpublic</text>
</g>
<!-- Node15&#45;&gt;Node4 -->
<g id="edge14" class="edge"><title>Node15&#45;&gt;Node4</title>
<path fill="none" stroke="#8b1a1a" d="M757.118,-164.5C782.113,-164.5 807.885,-164.5 828.189,-164.5"/>
<polygon fill="#8b1a1a" stroke="#8b1a1a" points="756.848,-161 746.848,-164.5 756.848,-168 756.848,-161"/>
</g>
<!-- Node16 -->
<g id="node16" class="node"><title>Node16</title>
<g id="a_node16"><a xlink:href="../../db/de3/classocra_1_1NamedInstance.html" target="_top" xlink:title="ocra::NamedInstance">
<polygon fill="white" stroke="black" points="609.369,-113.5 609.369,-131.5 720.417,-131.5 720.417,-113.5 609.369,-113.5"/>
<text text-anchor="middle" x="664.893" y="-119.5" font-family="Helvetica,sans-Serif" font-size="10.00">ocra::NamedInstance</text>
</a>
</g>
</g>
<!-- Node16&#45;&gt;Node4 -->
<g id="edge15" class="edge"><title>Node16&#45;&gt;Node4</title>
<path fill="none" stroke="midnightblue" d="M718.894,-133.565C753.155,-140.718 796.987,-149.869 828.066,-156.358"/>
<polygon fill="midnightblue" stroke="midnightblue" points="719.554,-130.128 709.049,-131.51 718.123,-136.98 719.554,-130.128"/>
</g>
<!-- Node17 -->
<g id="node17" class="node"><title>Node17</title>
<g id="a_node17"><a xlink:href="../../d8/d24/classocra_1_1AbilitySet.html" target="_top" xlink:title="ocra::AbilitySet">
<polygon fill="white" stroke="black" points="623.546,-76.5 623.546,-94.5 706.24,-94.5 706.24,-76.5 623.546,-76.5"/>
<text text-anchor="middle" x="664.893" y="-82.5" font-family="Helvetica,sans-Serif" font-size="10.00">ocra::AbilitySet</text>
</a>
</g>
</g>
<!-- Node17&#45;&gt;Node4 -->
<g id="edge16" class="edge"><title>Node17&#45;&gt;Node4</title>
<path fill="none" stroke="midnightblue" d="M716.402,-94.6887C726.596,-97.1132 737.141,-100.041 746.792,-103.5 786.464,-117.719 829.808,-142.1 852.048,-155.323"/>
<polygon fill="midnightblue" stroke="midnightblue" points="716.895,-91.2122 706.37,-92.431 715.358,-98.0414 716.895,-91.2122"/>
</g>
<!-- Node18 -->
<g id="node18" class="node"><title>Node18</title>
<g id="a_node18"><a xlink:href="../../d5/dc0/classocra_1_1CoupledInputOutputSize.html" target="_top" xlink:title="ocra::CoupledInputOutputSize">
<polygon fill="white" stroke="black" points="589.906,-39.5 589.906,-57.5 739.88,-57.5 739.88,-39.5 589.906,-39.5"/>
<text text-anchor="middle" x="664.893" y="-45.5" font-family="Helvetica,sans-Serif" font-size="10.00">ocra::CoupledInputOutputSize</text>
</a>
</g>
</g>
<!-- Node18&#45;&gt;Node4 -->
<g id="edge17" class="edge"><title>Node18&#45;&gt;Node4</title>
<path fill="none" stroke="midnightblue" d="M729.466,-60.3033C735.415,-62.1043 741.277,-64.1596 746.792,-66.5 796.133,-87.4379 841.441,-135.042 859.171,-155.202"/>
<polygon fill="midnightblue" stroke="midnightblue" points="729.989,-56.8159 719.417,-57.507 728.112,-63.5597 729.989,-56.8159"/>
</g>
<!-- Node19 -->
<g id="node19" class="node"><title>Node19</title>
<polygon fill="white" stroke="#bfbfbf" points="636.6,-324.5 636.6,-342.5 693.186,-342.5 693.186,-324.5 636.6,-324.5"/>
<text text-anchor="middle" x="664.893" y="-330.5" font-family="Helvetica,sans-Serif" font-size="10.00">VectorXd</text>
</g>
<!-- Node19&#45;&gt;Node3 -->
<g id="edge25" class="edge"><title>Node19&#45;&gt;Node3</title>
<path fill="none" stroke="#9a32cd" stroke-dasharray="5,2" d="M703.47,-336.487C733.519,-337.461 776.134,-335.606 810.383,-321.5 893.464,-287.281 967.147,-202.068 990.022,-173.787"/>
<polygon fill="#9a32cd" stroke="#9a32cd" points="703.546,-332.987 693.401,-336.041 703.236,-339.98 703.546,-332.987"/>
<text text-anchor="middle" x="868.065" y="-315.5" font-family="Helvetica,sans-Serif" font-size="10.00"> _b</text>
</g>
<!-- Node19&#45;&gt;Node4 -->
<g id="edge18" class="edge"><title>Node19&#45;&gt;Node4</title>
<path fill="none" stroke="#9a32cd" stroke-dasharray="5,2" d="M703.255,-325.74C740.635,-317.313 794.765,-303.092 810.383,-288.5 845.666,-255.534 860.71,-196.366 865.366,-173.69"/>
<polygon fill="#9a32cd" stroke="#9a32cd" points="702.212,-322.386 693.202,-327.959 703.721,-329.222 702.212,-322.386"/>
<text text-anchor="middle" x="787.587" y="-310.5" font-family="Helvetica,sans-Serif" font-size="10.00"> _value</text>
</g>
<!-- Node20 -->
<g id="node20" class="node"><title>Node20</title>
<polygon fill="white" stroke="#bfbfbf" points="637.167,-0.5 637.167,-18.5 692.62,-18.5 692.62,-0.5 637.167,-0.5"/>
<text text-anchor="middle" x="664.893" y="-6.5" font-family="Helvetica,sans-Serif" font-size="10.00">MatrixXd</text>
</g>
<!-- Node20&#45;&gt;Node1 -->
<g id="edge26" class="edge"><title>Node20&#45;&gt;Node1</title>
<path fill="none" stroke="#9a32cd" stroke-dasharray="5,2" d="M703.072,-8.31842C743.443,-7.13875 809.825,-5.5 867.065,-5.5 867.065,-5.5 867.065,-5.5 1157.66,-5.5 1220.89,-5.5 1292.31,-10.8426 1345.46,-15.8617"/>
<polygon fill="#9a32cd" stroke="#9a32cd" points="702.788,-4.82523 692.897,-8.62218 702.997,-11.8221 702.788,-4.82523"/>
<text text-anchor="middle" x="998.328" y="-7.5" font-family="Helvetica,sans-Serif" font-size="10.00"> _fullJacobian</text>
</g>
<!-- Node20&#45;&gt;Node4 -->
<g id="edge19" class="edge"><title>Node20&#45;&gt;Node4</title>
<path fill="none" stroke="#9a32cd" stroke-dasharray="5,2" d="M702.753,-14.4504C734.943,-20.5723 780.99,-33.9341 810.383,-62.5 839.148,-90.4565 857.325,-136.185 864.084,-155.47"/>
<polygon fill="#9a32cd" stroke="#9a32cd" points="703.283,-10.9899 692.828,-12.7071 702.072,-17.8844 703.283,-10.9899"/>
<text text-anchor="middle" x="787.587" y="-64.5" font-family="Helvetica,sans-Serif" font-size="10.00"> _jacobian</text>
</g>
<!-- Node21&#45;&gt;Node4 -->
<g id="edge20" class="edge"><title>Node21&#45;&gt;Node4</title>
<path fill="none" stroke="#9a32cd" stroke-dasharray="5,2" d="M713.895,-290.53C744.048,-285.994 782.391,-276.283 810.383,-255.5 839.673,-233.752 857.339,-191.963 864.01,-173.569"/>
<polygon fill="#9a32cd" stroke="#9a32cd" points="713.039,-287.114 703.601,-291.928 713.981,-294.05 713.039,-287.114"/>
<text text-anchor="middle" x="787.587" y="-280.5" font-family="Helvetica,sans-Serif" font-size="10.00"> x</text>
</g>
<!-- Node22 -->
<g id="node22" class="node"><title>Node22</title>
<g id="a_node22"><a xlink:href="../../d0/d29/classocra_1_1Component.html" target="_top" xlink:title="ocra::Component\&lt; Variable,\l CompositeVariable, VariableParenthood \&gt;">
<polygon fill="white" stroke="black" points="341.63,-278.5 341.63,-306.5 545.994,-306.5 545.994,-278.5 341.63,-278.5"/>
<text text-anchor="start" x="349.63" y="-294.5" font-family="Helvetica,sans-Serif" font-size="10.00">ocra::Component&lt; Variable,</text>
<text text-anchor="middle" x="443.812" y="-284.5" font-family="Helvetica,sans-Serif" font-size="10.00"> CompositeVariable, VariableParenthood &gt;</text>
</a>
</g>
</g>
<!-- Node22&#45;&gt;Node21 -->
<g id="edge21" class="edge"><title>Node22&#45;&gt;Node21</title>
<path fill="none" stroke="midnightblue" d="M556.086,-293.516C581.387,-293.747 606.565,-293.977 626.219,-294.156"/>
<polygon fill="midnightblue" stroke="midnightblue" points="556.047,-290.015 546.016,-293.424 555.983,-297.015 556.047,-290.015"/>
</g>
<!-- Node23 -->
<g id="node23" class="node"><title>Node23</title>
<polygon fill="white" stroke="#bfbfbf" points="407.455,-372.5 407.455,-390.5 480.169,-390.5 480.169,-372.5 407.455,-372.5"/>
<text text-anchor="middle" x="443.812" y="-378.5" font-family="Helvetica,sans-Serif" font-size="10.00">noncopyable</text>
</g>
<!-- Node23&#45;&gt;Node21 -->
<g id="edge23" class="edge"><title>Node23&#45;&gt;Node21</title>
<path fill="none" stroke="#8b1a1a" d="M490.52,-380.528C508.862,-378.38 529.515,-373.604 545.994,-363.5 569.258,-349.235 560.216,-329.528 582.994,-314.5 595.795,-306.055 611.865,-301.174 626.302,-298.354"/>
<polygon fill="#8b1a1a" stroke="#8b1a1a" points="489.951,-377.066 480.323,-381.488 490.607,-384.035 489.951,-377.066"/>
</g>
<!-- Node24 -->
<g id="node24" class="node"><title>Node24</title>
<g id="a_node24"><a xlink:href="../../dc/d20/classocra_1_1VariableHasRestrictedClassDerivation.html" target="_top" xlink:title="ocra::VariableHasRestricted\lClassDerivation">
<polygon fill="white" stroke="black" points="373.932,-325.5 373.932,-353.5 513.692,-353.5 513.692,-325.5 373.932,-325.5"/>
<text text-anchor="start" x="381.932" y="-341.5" font-family="Helvetica,sans-Serif" font-size="10.00">ocra::VariableHasRestricted</text>
<text text-anchor="middle" x="443.812" y="-331.5" font-family="Helvetica,sans-Serif" font-size="10.00">ClassDerivation</text>
</a>
</g>
</g>
<!-- Node24&#45;&gt;Node21 -->
<g id="edge24" class="edge"><title>Node24&#45;&gt;Node21</title>
<path fill="none" stroke="#8b1a1a" d="M523.444,-323.349C558.443,-316.16 598.026,-308.029 626.229,-302.236"/>
<polygon fill="#8b1a1a" stroke="#8b1a1a" points="522.321,-320.006 513.229,-325.447 523.729,-326.863 522.321,-320.006"/>
</g>
</g>
</svg>
