<?xml version="1.0" encoding="UTF-8" standalone="no"?>
<!DOCTYPE svg PUBLIC "-//W3C//DTD SVG 1.1//EN"
 "http://www.w3.org/Graphics/SVG/1.1/DTD/svg11.dtd">
<!-- Generated by graphviz version 2.38.0 (20140413.2041)
 -->
<!-- Title: ocra::ReducedJointLimitFunction::Pimpl Pages: 1 -->
<svg width="1550pt" height="449pt"
 viewBox="0.00 0.00 1549.67 449.00" xmlns="http://www.w3.org/2000/svg" xmlns:xlink="http://www.w3.org/1999/xlink">
<g id="graph0" class="graph" transform="scale(1 1) rotate(0) translate(4 445)">
<title>ocra::ReducedJointLimitFunction::Pimpl</title>
<polygon fill="white" stroke="none" points="-4,4 -4,-445 1545.67,-445 1545.67,4 -4,4"/>
<!-- Node1 -->
<g id="node1" class="node"><title>Node1</title>
<polygon fill="#bfbfbf" stroke="black" points="1380.04,-87.5 1380.04,-115.5 1541.67,-115.5 1541.67,-87.5 1380.04,-87.5"/>
<text text-anchor="start" x="1388.04" y="-103.5" font-family="Helvetica,sans-Serif" font-size="10.00">ocra::ReducedJointLimitFunction</text>
<text text-anchor="middle" x="1460.85" y="-93.5" font-family="Helvetica,sans-Serif" font-size="10.00">::Pimpl</text>
</g>
<!-- Node2 -->
<g id="node2" class="node"><title>Node2</title>
<g id="a_node2"><a xlink:href="../../de/ddd/classocra_1_1FullDynamicEquationFunction.html" target="_top" xlink:title="Create a linear function that represents the dynamic equation of motion. ">
<polygon fill="white" stroke="black" points="1123.49,-87.5 1123.49,-115.5 1258.98,-115.5 1258.98,-87.5 1123.49,-87.5"/>
<text text-anchor="start" x="1131.49" y="-103.5" font-family="Helvetica,sans-Serif" font-size="10.00">ocra::FullDynamicEquation</text>
<text text-anchor="middle" x="1191.23" y="-93.5" font-family="Helvetica,sans-Serif" font-size="10.00">Function</text>
</a>
</g>
</g>
<!-- Node2&#45;&gt;Node1 -->
<g id="edge1" class="edge"><title>Node2&#45;&gt;Node1</title>
<path fill="none" stroke="#9a32cd" stroke-dasharray="5,2" d="M1269.13,-101.5C1303.73,-101.5 1344.58,-101.5 1379.57,-101.5"/>
<polygon fill="#9a32cd" stroke="#9a32cd" points="1269.07,-98.0001 1259.07,-101.5 1269.07,-105 1269.07,-98.0001"/>
<text text-anchor="middle" x="1319.51" y="-103.5" font-family="Helvetica,sans-Serif" font-size="10.00"> _dynamicEquation</text>
</g>
<!-- Node3 -->
<g id="node3" class="node"><title>Node3</title>
<g id="a_node3"><a xlink:href="../../de/d3a/classocra_1_1LinearFunction.html" target="_top" xlink:title="LinearFunction class. ">
<polygon fill="white" stroke="black" points="944.747,-92.5 944.747,-110.5 1051.91,-110.5 1051.91,-92.5 944.747,-92.5"/>
<text text-anchor="middle" x="998.328" y="-98.5" font-family="Helvetica,sans-Serif" font-size="10.00">ocra::LinearFunction</text>
</a>
</g>
</g>
<!-- Node3&#45;&gt;Node2 -->
<g id="edge2" class="edge"><title>Node3&#45;&gt;Node2</title>
<path fill="none" stroke="midnightblue" d="M1062.06,-101.5C1081.71,-101.5 1103.47,-101.5 1123.39,-101.5"/>
<polygon fill="midnightblue" stroke="midnightblue" points="1062,-98.0001 1052,-101.5 1062,-105 1062,-98.0001"/>
</g>
<!-- Node4 -->
<g id="node4" class="node"><title>Node4</title>
<g id="a_node4"><a xlink:href="../../d2/d99/classocra_1_1Function.html" target="_top" xlink:title="Function class. ">
<polygon fill="white" stroke="black" points="828.383,-144.5 828.383,-162.5 907.747,-162.5 907.747,-144.5 828.383,-144.5"/>
<text text-anchor="middle" x="868.065" y="-150.5" font-family="Helvetica,sans-Serif" font-size="10.00">ocra::Function</text>
</a>
</g>
</g>
<!-- Node4&#45;&gt;Node3 -->
<g id="edge3" class="edge"><title>Node4&#45;&gt;Node3</title>
<path fill="none" stroke="midnightblue" d="M900.746,-140.656C923.737,-131.335 954.282,-118.952 974.812,-110.628"/>
<polygon fill="midnightblue" stroke="midnightblue" points="899.359,-137.442 891.407,-144.442 901.989,-143.929 899.359,-137.442"/>
</g>
<!-- Node5 -->
<g id="node5" class="node"><title>Node5</title>
<g id="a_node5"><a xlink:href="../../d3/d16/classocra_1_1ObserverSubject.html" target="_top" xlink:title="ocra::ObserverSubject">
<polygon fill="white" stroke="black" points="386.068,-278.5 386.068,-296.5 501.556,-296.5 501.556,-278.5 386.068,-278.5"/>
<text text-anchor="middle" x="443.812" y="-284.5" font-family="Helvetica,sans-Serif" font-size="10.00">ocra::ObserverSubject</text>
</a>
</g>
</g>
<!-- Node5&#45;&gt;Node4 -->
<g id="edge4" class="edge"><title>Node5&#45;&gt;Node4</title>
<path fill="none" stroke="midnightblue" d="M511.784,-290.152C573.741,-290.951 667.896,-287.937 746.792,-267.5 777.043,-259.664 786.664,-257.846 810.383,-237.5 836.021,-215.508 855.086,-179.254 863.016,-162.501"/>
<polygon fill="midnightblue" stroke="midnightblue" points="511.801,-286.652 501.744,-289.985 511.685,-293.651 511.801,-286.652"/>
</g>
<!-- Node21 -->
<g id="node21" class="node"><title>Node21</title>
<g id="a_node21"><a xlink:href="../../d2/dac/classocra_1_1Variable.html" target="_top" xlink:title="This class represents a variable in a mathematical sense. ">
<polygon fill="white" stroke="black" points="626.412,-240.5 626.412,-258.5 703.374,-258.5 703.374,-240.5 626.412,-240.5"/>
<text text-anchor="middle" x="664.893" y="-246.5" font-family="Helvetica,sans-Serif" font-size="10.00">ocra::Variable</text>
</a>
</g>
</g>
<!-- Node5&#45;&gt;Node21 -->
<g id="edge22" class="edge"><title>Node5&#45;&gt;Node21</title>
<path fill="none" stroke="midnightblue" d="M506.809,-276.746C545.339,-270.063 593.606,-261.691 626.397,-256.004"/>
<polygon fill="midnightblue" stroke="midnightblue" points="505.986,-273.337 496.731,-278.495 507.182,-280.234 505.986,-273.337"/>
</g>
<!-- Node25 -->
<g id="node25" class="node"><title>Node25</title>
<g id="a_node25"><a xlink:href="../../d4/d00/classocra_1_1Model.html" target="_top" xlink:title="Model class. ">
<polygon fill="white" stroke="black" points="833.942,-328.5 833.942,-346.5 902.188,-346.5 902.188,-328.5 833.942,-328.5"/>
<text text-anchor="middle" x="868.065" y="-334.5" font-family="Helvetica,sans-Serif" font-size="10.00">ocra::Model</text>
</a>
</g>
</g>
<!-- Node5&#45;&gt;Node25 -->
<g id="edge27" class="edge"><title>Node5&#45;&gt;Node25</title>
<path fill="none" stroke="midnightblue" d="M470.812,-301.38C497.936,-315.049 542.128,-335.066 582.994,-343.5 681.985,-363.929 709.691,-356.314 810.383,-347.5 818.048,-346.829 826.23,-345.657 833.924,-344.346"/>
<polygon fill="midnightblue" stroke="midnightblue" points="472.123,-298.119 461.628,-296.665 468.926,-304.346 472.123,-298.119"/>
</g>
<!-- Node6 -->
<g id="node6" class="node"><title>Node6</title>
<g id="a_node6"><a xlink:href="../../d2/d45/classocra_1_1Observer.html" target="_top" xlink:title="ocra::Observer">
<polygon fill="white" stroke="black" points="222.497,-346.5 222.497,-364.5 304.63,-364.5 304.63,-346.5 222.497,-346.5"/>
<text text-anchor="middle" x="263.563" y="-352.5" font-family="Helvetica,sans-Serif" font-size="10.00">ocra::Observer</text>
</a>
</g>
</g>
<!-- Node6&#45;&gt;Node5 -->
<g id="edge5" class="edge"><title>Node6&#45;&gt;Node5</title>
<path fill="none" stroke="midnightblue" d="M297.618,-342.89C332.87,-329.442 387.832,-308.474 419.044,-296.567"/>
<polygon fill="midnightblue" stroke="midnightblue" points="296.329,-339.636 288.234,-346.47 298.824,-346.176 296.329,-339.636"/>
</g>
<!-- Node7 -->
<g id="node7" class="node"><title>Node7</title>
<g id="a_node7"><a xlink:href="../../d4/dee/classocra_1_1ObserverBase.html" target="_top" xlink:title="ocra::ObserverBase\l\&lt; EVT_RESIZE \&gt;">
<polygon fill="white" stroke="black" points="40.2856,-412.5 40.2856,-440.5 145.211,-440.5 145.211,-412.5 40.2856,-412.5"/>
<text text-anchor="start" x="48.2856" y="-428.5" font-family="Helvetica,sans-Serif" font-size="10.00">ocra::ObserverBase</text>
<text text-anchor="middle" x="92.7485" y="-418.5" font-family="Helvetica,sans-Serif" font-size="10.00">&lt; EVT_RESIZE &gt;</text>
</a>
</g>
</g>
<!-- Node7&#45;&gt;Node6 -->
<g id="edge6" class="edge"><title>Node7&#45;&gt;Node6</title>
<path fill="none" stroke="midnightblue" d="M155.334,-413.047C165.579,-410.058 175.966,-406.549 185.497,-402.5 209.873,-392.144 235.651,-374.978 250.357,-364.507"/>
<polygon fill="midnightblue" stroke="midnightblue" points="154.285,-409.705 145.586,-415.754 156.158,-416.45 154.285,-409.705"/>
</g>
<!-- Node8 -->
<g id="node8" class="node"><title>Node8</title>
<g id="a_node8"><a xlink:href="../../d4/dee/classocra_1_1ObserverBase.html" target="_top" xlink:title="ocra::ObserverBase\l\&lt; EVT_CHANGE_DEPENDENCIES \&gt;">
<polygon fill="white" stroke="black" points="0,-365.5 0,-393.5 185.497,-393.5 185.497,-365.5 0,-365.5"/>
<text text-anchor="start" x="8" y="-381.5" font-family="Helvetica,sans-Serif" font-size="10.00">ocra::ObserverBase</text>
<text text-anchor="middle" x="92.7485" y="-371.5" font-family="Helvetica,sans-Serif" font-size="10.00">&lt; EVT_CHANGE_DEPENDENCIES &gt;</text>
</a>
</g>
</g>
<!-- Node8&#45;&gt;Node6 -->
<g id="edge7" class="edge"><title>Node8&#45;&gt;Node6</title>
<path fill="none" stroke="midnightblue" d="M195.725,-365.002C205,-363.684 213.979,-362.407 222.187,-361.24"/>
<polygon fill="midnightblue" stroke="midnightblue" points="194.974,-361.574 185.566,-366.447 195.959,-368.504 194.974,-361.574"/>
</g>
<!-- Node9 -->
<g id="node9" class="node"><title>Node9</title>
<g id="a_node9"><a xlink:href="../../d4/dee/classocra_1_1ObserverBase.html" target="_top" xlink:title="ocra::ObserverBase\l\&lt; EVT_CHANGE_VALUE \&gt;">
<polygon fill="white" stroke="black" points="23.4253,-318.5 23.4253,-346.5 162.072,-346.5 162.072,-318.5 23.4253,-318.5"/>
<text text-anchor="start" x="31.4253" y="-334.5" font-family="Helvetica,sans-Serif" font-size="10.00">ocra::ObserverBase</text>
<text text-anchor="middle" x="92.7485" y="-324.5" font-family="Helvetica,sans-Serif" font-size="10.00">&lt; EVT_CHANGE_VALUE &gt;</text>
</a>
</g>
</g>
<!-- Node9&#45;&gt;Node6 -->
<g id="edge8" class="edge"><title>Node9&#45;&gt;Node6</title>
<path fill="none" stroke="midnightblue" d="M172.466,-343.225C189.64,-345.565 207.13,-347.948 222.074,-349.984"/>
<polygon fill="midnightblue" stroke="midnightblue" points="172.793,-339.737 162.412,-341.855 171.848,-346.673 172.793,-339.737"/>
</g>
<!-- Node10 -->
<g id="node10" class="node"><title>Node10</title>
<g id="a_node10"><a xlink:href="../../dc/d77/classocra_1_1Subject.html" target="_top" xlink:title="ocra::Subject">
<polygon fill="white" stroke="black" points="226.381,-249.5 226.381,-267.5 300.746,-267.5 300.746,-249.5 226.381,-249.5"/>
<text text-anchor="middle" x="263.563" y="-255.5" font-family="Helvetica,sans-Serif" font-size="10.00">ocra::Subject</text>
</a>
</g>
</g>
<!-- Node10&#45;&gt;Node5 -->
<g id="edge9" class="edge"><title>Node10&#45;&gt;Node5</title>
<path fill="none" stroke="midnightblue" d="M311.07,-266.066C334.43,-269.867 362.898,-274.499 387.386,-278.483"/>
<polygon fill="midnightblue" stroke="midnightblue" points="311.497,-262.59 301.065,-264.439 310.373,-269.499 311.497,-262.59"/>
</g>
<!-- Node11 -->
<g id="node11" class="node"><title>Node11</title>
<g id="a_node11"><a xlink:href="../../dc/d29/classocra_1_1SubjectBase.html" target="_top" xlink:title="ocra::SubjectBase\&lt;\l EVT_RESIZE \&gt;">
<polygon fill="white" stroke="black" points="41.25,-271.5 41.25,-299.5 144.247,-299.5 144.247,-271.5 41.25,-271.5"/>
<text text-anchor="start" x="49.25" y="-287.5" font-family="Helvetica,sans-Serif" font-size="10.00">ocra::SubjectBase&lt;</text>
<text text-anchor="middle" x="92.7485" y="-277.5" font-family="Helvetica,sans-Serif" font-size="10.00"> EVT_RESIZE &gt;</text>
</a>
</g>
</g>
<!-- Node11&#45;&gt;Node10 -->
<g id="edge10" class="edge"><title>Node11&#45;&gt;Node10</title>
<path fill="none" stroke="midnightblue" d="M154.489,-275.785C178.489,-271.947 205.266,-267.664 226.162,-264.322"/>
<polygon fill="midnightblue" stroke="midnightblue" points="153.72,-272.364 144.399,-277.399 154.826,-279.276 153.72,-272.364"/>
</g>
<!-- Node12 -->
<g id="node12" class="node"><title>Node12</title>
<g id="a_node12"><a xlink:href="../../dc/d29/classocra_1_1SubjectBase.html" target="_top" xlink:title="ocra::SubjectBase\&lt;\l EVT_CHANGE_DEPENDENCIES \&gt;">
<polygon fill="white" stroke="black" points="2.91992,-224.5 2.91992,-252.5 182.577,-252.5 182.577,-224.5 2.91992,-224.5"/>
<text text-anchor="start" x="10.9199" y="-240.5" font-family="Helvetica,sans-Serif" font-size="10.00">ocra::SubjectBase&lt;</text>
<text text-anchor="middle" x="92.7485" y="-230.5" font-family="Helvetica,sans-Serif" font-size="10.00"> EVT_CHANGE_DEPENDENCIES &gt;</text>
</a>
</g>
</g>
<!-- Node12&#45;&gt;Node10 -->
<g id="edge11" class="edge"><title>Node12&#45;&gt;Node10</title>
<path fill="none" stroke="midnightblue" d="M192.668,-250.219C204.562,-251.628 216.06,-252.991 226.178,-254.189"/>
<polygon fill="midnightblue" stroke="midnightblue" points="192.948,-246.728 182.605,-249.027 192.124,-253.679 192.948,-246.728"/>
</g>
<!-- Node13 -->
<g id="node13" class="node"><title>Node13</title>
<g id="a_node13"><a xlink:href="../../dc/d29/classocra_1_1SubjectBase.html" target="_top" xlink:title="ocra::SubjectBase\&lt;\l EVT_CHANGE_VALUE \&gt;">
<polygon fill="white" stroke="black" points="26.3452,-177.5 26.3452,-205.5 159.152,-205.5 159.152,-177.5 26.3452,-177.5"/>
<text text-anchor="start" x="34.3452" y="-193.5" font-family="Helvetica,sans-Serif" font-size="10.00">ocra::SubjectBase&lt;</text>
<text text-anchor="middle" x="92.7485" y="-183.5" font-family="Helvetica,sans-Serif" font-size="10.00"> EVT_CHANGE_VALUE &gt;</text>
</a>
</g>
</g>
<!-- Node13&#45;&gt;Node10 -->
<g id="edge12" class="edge"><title>Node13&#45;&gt;Node10</title>
<path fill="none" stroke="midnightblue" d="M168.784,-208.498C174.5,-210.342 180.129,-212.342 185.497,-214.5 209.084,-223.981 234.281,-239.519 249.214,-249.367"/>
<polygon fill="midnightblue" stroke="midnightblue" points="169.7,-205.119 159.114,-205.542 167.653,-211.813 169.7,-205.119"/>
</g>
<!-- Node14 -->
<g id="node14" class="node"><title>Node14</title>
<g id="a_node14"><a xlink:href="../../dd/d68/classocra_1_1IFunctionProperties.html" target="_top" xlink:title="ocra::IFunctionProperties">
<polygon fill="white" stroke="black" points="601.034,-203.5 601.034,-221.5 728.752,-221.5 728.752,-203.5 601.034,-203.5"/>
<text text-anchor="middle" x="664.893" y="-209.5" font-family="Helvetica,sans-Serif" font-size="10.00">ocra::IFunctionProperties</text>
</a>
</g>
</g>
<!-- Node14&#45;&gt;Node4 -->
<g id="edge13" class="edge"><title>Node14&#45;&gt;Node4</title>
<path fill="none" stroke="midnightblue" d="M716.608,-201.079C726.638,-198.682 737.069,-196.092 746.792,-193.5 775.294,-185.902 782.407,-183.851 810.383,-174.5 821.431,-170.807 833.554,-166.369 843.744,-162.525"/>
<polygon fill="midnightblue" stroke="midnightblue" points="715.681,-197.701 706.752,-203.404 717.288,-204.514 715.681,-197.701"/>
</g>
<!-- Node15 -->
<g id="node15" class="node"><title>Node15</title>
<polygon fill="white" stroke="#bfbfbf" points="582.994,-156.5 582.994,-184.5 746.792,-184.5 746.792,-156.5 582.994,-156.5"/>
<text text-anchor="start" x="590.994" y="-172.5" font-family="Helvetica,sans-Serif" font-size="10.00">OCRA_FUNCTION_INTERFACE</text>
<text text-anchor="middle" x="664.893" y="-162.5" font-family="Helvetica,sans-Serif" font-size="10.00">_INHERITANCEpublic</text>
</g>
<!-- Node15&#45;&gt;Node4 -->
<g id="edge14" class="edge"><title>Node15&#45;&gt;Node4</title>
<path fill="none" stroke="#8b1a1a" d="M757.118,-162.791C782.113,-160.679 807.885,-158.501 828.189,-156.785"/>
<polygon fill="#8b1a1a" stroke="#8b1a1a" points="756.518,-159.329 746.848,-163.659 757.107,-166.304 756.518,-159.329"/>
</g>
<!-- Node16 -->
<g id="node16" class="node"><title>Node16</title>
<g id="a_node16"><a xlink:href="../../db/de3/classocra_1_1NamedInstance.html" target="_top" xlink:title="ocra::NamedInstance">
<polygon fill="white" stroke="black" points="609.369,-316.5 609.369,-334.5 720.417,-334.5 720.417,-316.5 609.369,-316.5"/>
<text text-anchor="middle" x="664.893" y="-322.5" font-family="Helvetica,sans-Serif" font-size="10.00">ocra::NamedInstance</text>
</a>
</g>
</g>
<!-- Node16&#45;&gt;Node4 -->
<g id="edge15" class="edge"><title>Node16&#45;&gt;Node4</title>
<path fill="none" stroke="midnightblue" d="M730.914,-326.762C758.106,-324.135 788.419,-316.68 810.383,-298.5 853.899,-262.479 864.141,-188.628 866.435,-162.725"/>
<polygon fill="midnightblue" stroke="midnightblue" points="730.373,-323.293 720.669,-327.545 730.907,-330.273 730.373,-323.293"/>
</g>
<!-- Node16&#45;&gt;Node25 -->
<g id="edge28" class="edge"><title>Node16&#45;&gt;Node25</title>
<path fill="none" stroke="midnightblue" d="M731.02,-329.385C765.322,-331.431 805.932,-333.853 833.799,-335.516"/>
<polygon fill="midnightblue" stroke="midnightblue" points="730.789,-325.865 720.598,-328.763 730.372,-332.853 730.789,-325.865"/>
</g>
<!-- Node17 -->
<g id="node17" class="node"><title>Node17</title>
<g id="a_node17"><a xlink:href="../../d8/d24/classocra_1_1AbilitySet.html" target="_top" xlink:title="ocra::AbilitySet">
<polygon fill="white" stroke="black" points="623.546,-119.5 623.546,-137.5 706.24,-137.5 706.24,-119.5 623.546,-119.5"/>
<text text-anchor="middle" x="664.893" y="-125.5" font-family="Helvetica,sans-Serif" font-size="10.00">ocra::AbilitySet</text>
</a>
</g>
</g>
<!-- Node17&#45;&gt;Node4 -->
<g id="edge16" class="edge"><title>Node17&#45;&gt;Node4</title>
<path fill="none" stroke="midnightblue" d="M716.967,-134.847C751.519,-139.141 796.456,-144.725 828.124,-148.661"/>
<polygon fill="midnightblue" stroke="midnightblue" points="716.959,-131.319 706.603,-133.559 716.095,-138.266 716.959,-131.319"/>
</g>
<!-- Node18 -->
<g id="node18" class="node"><title>Node18</title>
<g id="a_node18"><a xlink:href="../../d5/dc0/classocra_1_1CoupledInputOutputSize.html" target="_top" xlink:title="ocra::CoupledInputOutputSize">
<polygon fill="white" stroke="black" points="589.906,-82.5 589.906,-100.5 739.88,-100.5 739.88,-82.5 589.906,-82.5"/>
<text text-anchor="middle" x="664.893" y="-88.5" font-family="Helvetica,sans-Serif" font-size="10.00">ocra::CoupledInputOutputSize</text>
</a>
</g>
</g>
<!-- Node18&#45;&gt;Node4 -->
<g id="edge17" class="edge"><title>Node18&#45;&gt;Node4</title>
<path fill="none" stroke="midnightblue" d="M721.435,-102.841C729.974,-104.877 738.653,-107.117 746.792,-109.5 781.574,-119.683 820.823,-134.737 844.75,-144.33"/>
<polygon fill="midnightblue" stroke="midnightblue" points="722.047,-99.3905 711.516,-100.548 720.47,-106.211 722.047,-99.3905"/>
</g>
<!-- Node19 -->
<g id="node19" class="node"><title>Node19</title>
<polygon fill="white" stroke="#bfbfbf" points="636.6,-45.5 636.6,-63.5 693.186,-63.5 693.186,-45.5 636.6,-45.5"/>
<text text-anchor="middle" x="664.893" y="-51.5" font-family="Helvetica,sans-Serif" font-size="10.00">VectorXd</text>
</g>
<!-- Node19&#45;&gt;Node3 -->
<g id="edge25" class="edge"><title>Node19&#45;&gt;Node3</title>
<path fill="none" stroke="#9a32cd" stroke-dasharray="5,2" d="M703.303,-59.805C762.33,-68.1754 877.27,-84.4748 944.629,-94.0268"/>
<polygon fill="#9a32cd" stroke="#9a32cd" points="703.69,-56.325 693.298,-58.3862 702.707,-63.2556 703.69,-56.325"/>
<text text-anchor="middle" x="868.065" y="-91.5" font-family="Helvetica,sans-Serif" font-size="10.00"> _b</text>
</g>
<!-- Node19&#45;&gt;Node4 -->
<g id="edge18" class="edge"><title>Node19&#45;&gt;Node4</title>
<path fill="none" stroke="#9a32cd" stroke-dasharray="5,2" d="M703.424,-61.0435C717.244,-63.9229 732.907,-67.7461 746.792,-72.5 776.357,-82.6224 784.36,-85.1985 810.383,-102.5 829.123,-114.959 847.969,-133.361 858.517,-144.319"/>
<polygon fill="#9a32cd" stroke="#9a32cd" points="703.765,-57.5429 693.274,-59.0257 702.4,-64.4086 703.765,-57.5429"/>
<text text-anchor="middle" x="787.587" y="-104.5" font-family="Helvetica,sans-Serif" font-size="10.00"> _value</text>
</g>
<!-- Node20 -->
<g id="node20" class="node"><title>Node20</title>
<polygon fill="white" stroke="#bfbfbf" points="637.167,-0.5 637.167,-18.5 692.62,-18.5 692.62,-0.5 637.167,-0.5"/>
<text text-anchor="middle" x="664.893" y="-6.5" font-family="Helvetica,sans-Serif" font-size="10.00">MatrixXd</text>
</g>
<!-- Node20&#45;&gt;Node1 -->
<g id="edge29" class="edge"><title>Node20&#45;&gt;Node1</title>
<path fill="none" stroke="#9a32cd" stroke-dasharray="5,2" d="M703.054,-6.84145C743.41,-4.18718 809.779,-0.5 867.065,-0.5 867.065,-0.5 867.065,-0.5 1192.23,-0.5 1289.57,-0.5 1394.73,-59.7043 1438.68,-87.4564"/>
<polygon fill="#9a32cd" stroke="#9a32cd" points="702.626,-3.36221 692.883,-7.52491 703.095,-10.3465 702.626,-3.36221"/>
<text text-anchor="middle" x="998.328" y="-2.5" font-family="Helvetica,sans-Serif" font-size="10.00"> _fullJacobian</text>
</g>
<!-- Node20&#45;&gt;Node4 -->
<g id="edge19" class="edge"><title>Node20&#45;&gt;Node4</title>
<path fill="none" stroke="#9a32cd" stroke-dasharray="5,2" d="M702.934,-16.3959C734.556,-23.889 779.664,-38.5746 810.383,-65.5 836.758,-88.6186 855.581,-126.896 863.248,-144.335"/>
<polygon fill="#9a32cd" stroke="#9a32cd" points="703.29,-12.8892 692.767,-14.1232 701.763,-19.7206 703.29,-12.8892"/>
<text text-anchor="middle" x="787.587" y="-67.5" font-family="Helvetica,sans-Serif" font-size="10.00"> _jacobian</text>
</g>
<!-- Node21&#45;&gt;Node4 -->
<g id="edge20" class="edge"><title>Node21&#45;&gt;Node4</title>
<path fill="none" stroke="#9a32cd" stroke-dasharray="5,2" d="M713.563,-240.581C724.647,-237.886 736.275,-234.542 746.792,-230.5 776.905,-218.927 783.23,-212.92 810.383,-195.5 826.67,-185.05 844.444,-171.501 855.666,-162.658"/>
<polygon fill="#9a32cd" stroke="#9a32cd" points="712.546,-237.224 703.585,-242.876 714.115,-244.046 712.546,-237.224"/>
<text text-anchor="middle" x="787.587" y="-225.5" font-family="Helvetica,sans-Serif" font-size="10.00"> x</text>
</g>
<!-- Node22 -->
<g id="node22" class="node"><title>Node22</title>
<g id="a_node22"><a xlink:href="../../d0/d29/classocra_1_1Component.html" target="_top" xlink:title="ocra::Component\&lt; Variable,\l CompositeVariable, VariableParenthood \&gt;">
<polygon fill="white" stroke="black" points="341.63,-180.5 341.63,-208.5 545.994,-208.5 545.994,-180.5 341.63,-180.5"/>
<text text-anchor="start" x="349.63" y="-196.5" font-family="Helvetica,sans-Serif" font-size="10.00">ocra::Component&lt; Variable,</text>
<text text-anchor="middle" x="443.812" y="-186.5" font-family="Helvetica,sans-Serif" font-size="10.00"> CompositeVariable, VariableParenthood &gt;</text>
</a>
</g>
</g>
<!-- Node22&#45;&gt;Node21 -->
<g id="edge21" class="edge"><title>Node22&#45;&gt;Node21</title>
<path fill="none" stroke="midnightblue" d="M521.294,-210.905C529.664,-212.991 538.032,-215.204 545.994,-217.5 562.742,-222.329 566.264,-225.612 582.994,-230.5 596.981,-234.587 612.523,-238.406 626.217,-241.533"/>
<polygon fill="midnightblue" stroke="midnightblue" points="522.035,-207.483 511.49,-208.517 520.378,-214.284 522.035,-207.483"/>
</g>
<!-- Node23 -->
<g id="node23" class="node"><title>Node23</title>
<polygon fill="white" stroke="#bfbfbf" points="407.455,-143.5 407.455,-161.5 480.169,-161.5 480.169,-143.5 407.455,-143.5"/>
<text text-anchor="middle" x="443.812" y="-149.5" font-family="Helvetica,sans-Serif" font-size="10.00">noncopyable</text>
</g>
<!-- Node23&#45;&gt;Node21 -->
<g id="edge23" class="edge"><title>Node23&#45;&gt;Node21</title>
<path fill="none" stroke="#8b1a1a" d="M490.326,-152.635C508.919,-154.617 529.81,-159.496 545.994,-170.5 571.902,-188.116 557.577,-212.183 582.994,-230.5 595.518,-239.525 611.706,-244.325 626.306,-246.855"/>
<polygon fill="#8b1a1a" stroke="#8b1a1a" points="490.53,-149.14 480.278,-151.811 489.958,-156.116 490.53,-149.14"/>
</g>
<!-- Node24 -->
<g id="node24" class="node"><title>Node24</title>
<g id="a_node24"><a xlink:href="../../dc/d20/classocra_1_1VariableHasRestrictedClassDerivation.html" target="_top" xlink:title="ocra::VariableHasRestricted\lClassDerivation">
<polygon fill="white" stroke="black" points="373.932,-227.5 373.932,-255.5 513.692,-255.5 513.692,-227.5 373.932,-227.5"/>
<text text-anchor="start" x="381.932" y="-243.5" font-family="Helvetica,sans-Serif" font-size="10.00">ocra::VariableHasRestricted</text>
<text text-anchor="middle" x="443.812" y="-233.5" font-family="Helvetica,sans-Serif" font-size="10.00">ClassDerivation</text>
</a>
</g>
</g>
<!-- Node24&#45;&gt;Node21 -->
<g id="edge24" class="edge"><title>Node24&#45;&gt;Node21</title>
<path fill="none" stroke="#8b1a1a" d="M523.996,-244.392C558.816,-245.663 598.079,-247.097 626.126,-248.121"/>
<polygon fill="#8b1a1a" stroke="#8b1a1a" points="523.951,-240.888 513.83,-244.02 523.696,-247.883 523.951,-240.888"/>
</g>
<!-- Node25&#45;&gt;Node1 -->
<g id="edge26" class="edge"><title>Node25&#45;&gt;Node1</title>
<path fill="none" stroke="#9a32cd" stroke-dasharray="5,2" d="M901.325,-324.613C1003.29,-283.88 1318.17,-158.097 1424.42,-115.654"/>
<polygon fill="#9a32cd" stroke="#9a32cd" points="899.851,-321.433 891.862,-328.393 902.447,-327.934 899.851,-321.433"/>
<text text-anchor="middle" x="1087.7" y="-259.5" font-family="Helvetica,sans-Serif" font-size="10.00"> _model</text>
</g>
</g>
</svg>
