<?xml version="1.0" encoding="UTF-8" standalone="no"?>
<!DOCTYPE svg PUBLIC "-//W3C//DTD SVG 1.1//EN"
 "http://www.w3.org/Graphics/SVG/1.1/DTD/svg11.dtd">
<!-- Generated by graphviz version 2.38.0 (20140413.2041)
 -->
<!-- Title: FileOperations.cpp Pages: 1 -->
<svg width="337pt" height="192pt"
 viewBox="0.00 0.00 336.80 192.00" xmlns="http://www.w3.org/2000/svg" xmlns:xlink="http://www.w3.org/1999/xlink">
<g id="graph0" class="graph" transform="scale(1 1) rotate(0) translate(4 188)">
<title>FileOperations.cpp</title>
<polygon fill="white" stroke="none" points="-4,4 -4,-188 332.803,-188 332.803,4 -4,4"/>
<!-- Node0 -->
<g id="node1" class="node"><title>Node0</title>
<polygon fill="#bfbfbf" stroke="black" points="149.665,-165.5 149.665,-183.5 249.596,-183.5 249.596,-165.5 149.665,-165.5"/>
<text text-anchor="middle" x="199.63" y="-171.5" font-family="Helvetica,sans-Serif" font-size="10.00">FileOperations.cpp</text>
</g>
<!-- Node1 -->
<g id="node2" class="node"><title>Node1</title>
<g id="a_node2"><a xlink:href="../../d5/d92/FileOperations_8h.html" target="_top" xlink:title="Some FileOperations function for debbuging purpose. ">
<polygon fill="white" stroke="black" points="136.049,-110.5 136.049,-128.5 263.211,-128.5 263.211,-110.5 136.049,-110.5"/>
<text text-anchor="middle" x="199.63" y="-116.5" font-family="Helvetica,sans-Serif" font-size="10.00">ocra/util/FileOperations.h</text>
</a>
</g>
</g>
<!-- Node0&#45;&gt;Node1 -->
<g id="edge1" class="edge"><title>Node0&#45;&gt;Node1</title>
<path fill="none" stroke="midnightblue" d="M199.63,-165.219C199.63,-158.177 199.63,-147.808 199.63,-138.828"/>
<polygon fill="midnightblue" stroke="midnightblue" points="203.13,-138.55 199.63,-128.55 196.13,-138.55 203.13,-138.55"/>
</g>
<!-- Node2 -->
<g id="node3" class="node"><title>Node2</title>
<g id="a_node3"><a xlink:href="../../d5/d55/MathTypes_8h.html" target="_top" xlink:title="Declaration file of the OptimizationVariable class. ">
<polygon fill="white" stroke="black" points="19.106,-55.5 19.106,-73.5 130.155,-73.5 130.155,-55.5 19.106,-55.5"/>
<text text-anchor="middle" x="74.6304" y="-61.5" font-family="Helvetica,sans-Serif" font-size="10.00">ocra/util/MathTypes.h</text>
</a>
</g>
</g>
<!-- Node1&#45;&gt;Node2 -->
<g id="edge2" class="edge"><title>Node1&#45;&gt;Node2</title>
<path fill="none" stroke="midnightblue" d="M180.646,-110.45C159.996,-101.695 126.766,-87.6055 103.014,-77.5346"/>
<polygon fill="midnightblue" stroke="midnightblue" points="104.367,-74.3067 93.7938,-73.6253 101.634,-80.7513 104.367,-74.3067"/>
</g>
<!-- Node5 -->
<g id="node6" class="node"><title>Node5</title>
<polygon fill="white" stroke="#bfbfbf" points="148.404,-55.5 148.404,-73.5 188.857,-73.5 188.857,-55.5 148.404,-55.5"/>
<text text-anchor="middle" x="168.63" y="-61.5" font-family="Helvetica,sans-Serif" font-size="10.00">string</text>
</g>
<!-- Node1&#45;&gt;Node5 -->
<g id="edge5" class="edge"><title>Node1&#45;&gt;Node5</title>
<path fill="none" stroke="midnightblue" d="M194.787,-110.219C190.439,-102.786 183.923,-91.646 178.483,-82.3446"/>
<polygon fill="midnightblue" stroke="midnightblue" points="181.409,-80.4143 173.339,-73.5496 175.366,-83.9486 181.409,-80.4143"/>
</g>
<!-- Node6 -->
<g id="node7" class="node"><title>Node6</title>
<polygon fill="white" stroke="#bfbfbf" points="206.96,-55.5 206.96,-73.5 256.3,-73.5 256.3,-55.5 206.96,-55.5"/>
<text text-anchor="middle" x="231.63" y="-61.5" font-family="Helvetica,sans-Serif" font-size="10.00">fstream</text>
</g>
<!-- Node1&#45;&gt;Node6 -->
<g id="edge6" class="edge"><title>Node1&#45;&gt;Node6</title>
<path fill="none" stroke="midnightblue" d="M204.63,-110.219C209.118,-102.786 215.844,-91.646 221.46,-82.3446"/>
<polygon fill="midnightblue" stroke="midnightblue" points="224.598,-83.9193 226.77,-73.5496 218.605,-80.3012 224.598,-83.9193"/>
</g>
<!-- Node7 -->
<g id="node8" class="node"><title>Node7</title>
<polygon fill="white" stroke="#bfbfbf" points="274.458,-55.5 274.458,-73.5 328.803,-73.5 328.803,-55.5 274.458,-55.5"/>
<text text-anchor="middle" x="301.63" y="-61.5" font-family="Helvetica,sans-Serif" font-size="10.00">iostream</text>
</g>
<!-- Node1&#45;&gt;Node7 -->
<g id="edge7" class="edge"><title>Node1&#45;&gt;Node7</title>
<path fill="none" stroke="midnightblue" d="M215.122,-110.45C231.523,-101.929 257.649,-88.3532 276.903,-78.3487"/>
<polygon fill="midnightblue" stroke="midnightblue" points="278.733,-81.3419 285.993,-73.6253 275.506,-75.1304 278.733,-81.3419"/>
</g>
<!-- Node3 -->
<g id="node4" class="node"><title>Node3</title>
<polygon fill="white" stroke="#bfbfbf" points="0,-0.5 0,-18.5 73.2607,-18.5 73.2607,-0.5 0,-0.5"/>
<text text-anchor="middle" x="36.6304" y="-6.5" font-family="Helvetica,sans-Serif" font-size="10.00">Eigen/Dense</text>
</g>
<!-- Node2&#45;&gt;Node3 -->
<g id="edge3" class="edge"><title>Node2&#45;&gt;Node3</title>
<path fill="none" stroke="midnightblue" d="M68.6929,-55.2188C63.2513,-47.6292 55.0391,-36.1753 48.2883,-26.7597"/>
<polygon fill="midnightblue" stroke="midnightblue" points="51.0731,-24.6371 42.4018,-18.5496 45.3842,-28.716 51.0731,-24.6371"/>
</g>
<!-- Node4 -->
<g id="node5" class="node"><title>Node4</title>
<polygon fill="white" stroke="#bfbfbf" points="91.0146,-0.5 91.0146,-18.5 134.246,-18.5 134.246,-0.5 91.0146,-0.5"/>
<text text-anchor="middle" x="112.63" y="-6.5" font-family="Helvetica,sans-Serif" font-size="10.00">cmath</text>
</g>
<!-- Node2&#45;&gt;Node4 -->
<g id="edge4" class="edge"><title>Node2&#45;&gt;Node4</title>
<path fill="none" stroke="midnightblue" d="M80.5679,-55.2188C86.0095,-47.6292 94.2217,-36.1753 100.972,-26.7597"/>
<polygon fill="midnightblue" stroke="midnightblue" points="103.877,-28.716 106.859,-18.5496 98.1876,-24.6371 103.877,-28.716"/>
</g>
</g>
</svg>
